<svg id="Layer_1" data-name="Layer 1" xmlns="http://www.w3.org/2000/svg" viewBox="0 0 1200 1200"><title>BB_Artboard 56</title><path d="M620.23,482.78a2.26,2.26,0,0,1,1,2.2c-.1,2.87-.65,6.38,3.49,6.53,8.06.29,16.16-.28,24.2.2,6.17.37,13.08-2.55,18.34,3.73,1,1.14,4.11.53,6.26.54,8.8,0,17.61.14,26.41,0,4.47-.08,8.5,0,11.65,4.12.79,1,4.07,1.09,5.79-1a38,38,0,0,1,3.09-3c7,8.35,16.39,3.39,24.64,4.14,9.46.86,19.06.2,28.6.2,8.8,0,17.61-.1,26.41,0,4.17.07,8.49-1.15,12,3.14,1.3,1.58,5.34,1.17,8.14,1.18,19.08.09,38.15.05,57.23.05h39.62c5.87,0,11.82.6,17.59-.16,6.83-.89,12.08,3.78,18,4.26,12.39,1,24.94.68,37.39.13,5.47-.24,9.18,3.27,13.67,4.21,5.05,1,3.85,5,5.76,7,7.57,7.71,3.12,16.74,3.47,25,.17,4.1-3.87,8.52-6.38,12.56-1.69,2.71-14.92,8.7-18.34,8.72-7.34,0-14.68.22-22-.07-3.41-.13-5,2.65-7.38,3.47-1.62.56-4.32-2.2-6.6-3.34-.59-.29-1.46,0-2.18,0-6.1-.74-9.75,4.9-15.2,5.87a2.1,2.1,0,0,0,0,1.46c.37.6,1,1.38,1.56,1.43,2.19.16,4.44-.21,6.59.11,9.67,1.42,20.35-3.76,29,4.36,7.34,0,14.85,1,22-.29,6.63-1.19,10.91,2.63,15.73,4.92,5.67,2.7,9.9,7.29,12.71,13.55,4.69,10.47,4.31,9.92.18,20.78-2,5.35-6.5,7.52-9,11.71a5.2,5.2,0,0,0,0,4.25c.49,1.06,2.06,1.72,3.27,2.32.59.3,1.44,0,2.18,0,2.2,0,4.52.46,6.58-.07,11.67-3,19.16,7.39,29.37,9,1,.15,2.25,1.9,2.45,3.07.91,5.44-2.3,11.83,3.84,16.07a1.77,1.77,0,0,1-.3,1.46c-6.22,2.93-1.23,9.85-4.71,13.46-5.43,5.65-10.24,12.62-20.12,10-3.43-.9-7.55.71-10.91-.31-7.85-2.38-12.85,5.47-20.25,4.72-6.54-.67-13.2-.14-19.8-.14-7.77,8.53-17.87,2.87-26.8,4.37-7.5,1.27-16.16-3.35-22.38,4.44-3.67,0-7.38-.38-11,.08-9.69,1.21-20.34-3.73-29,4.33-5.13,0-10.29-.31-15.4.08-7.07.53-14.68-2.4-21.13,2-6.09,4.17-12.59,1.8-18.88,2.21-7.31.47-14.67.11-22,.11-9.53,7.54-20.77,3.1-31.18,4.44-6.16.79-12.95-2.35-18.39,3.77-1.34,1.5-5.53.57-8.41.58-9.54,0-19.08,0-28.61,0-5,0-7.69,6.11-13.64,4.6-4.13-1-8.75-.2-13.15-.2-5.14,0-10.43.77-15.37-.21-5.31-1.05-6.94,4.78-11.43,4.65-5.13-.15-10.27,0-15.4,0q-6.6,0-13.19,0c-3.22,6-6.36,2.43-9.61,0a2.26,2.26,0,0,0-2.13,0c-9.61,7.36-20.78,3.28-31.22,4.45-1.11.13-2.08,1.49-3.12,2.27,1.18.69,2.32,1.85,3.56,2,10.46,1.06,21.62-2.9,31.19,4.49H658.3c5.87,0,11.75-.22,17.6.06,6.44.31,13.87-2.5,19.06,1.5,5.58,4.31,11.08,2.5,16.55,2.67,6.19.19,13.2,2.48,18.11-4.14.47-.64,3.58-.51,4,.2,3.54,5.34,8.87,4.09,13.8,4.09,58.7,0,117.4-.23,176.1.26,10.37.09,21.74-4.25,31.28,4.08.83.72,2.87-.09,4.31.12,10.39,1.52,21.76-3.85,31.2,4.38,4.4,0,9,.72,13.17-.16,7.14-1.5,10.82,2.93,14.71,7.2,6.72,7.37,10.6,20.71,8.37,29.49-1.4,5.49-10,6.64-8.82,14,.08.45-.81,1.16-1.38,1.57a3.7,3.7,0,0,1-1.86.76c-2.2.09-4.41,0-6.61,0-4.88.24-10-1.34-14,3.7-1.33,1.68-2.83-5.21-5.92-2.31-2.3,2.16-4.42,3.58-7.61,3-.71-.12-1.47,0-6.43,0-2.12,0,0-.27,2.1.08s3.07-.2,2-2.14A4.59,4.59,0,0,0,975,809c-4.17-.16-8.36.07-12.54.31-.52,0-1.48,1.29-1.42,1.37.7.94,1.46,2.32,2.41,2.5,2.05.37,4.21.11,10.56.11,4.75,1.26,5.14,3.52,5.81,3.6a60.86,60.86,0,0,0,12.91.7c6.65-.61,10.84,7.81,18,4.52,5.39,5.44,12.82,9,11.83,19.13-1,10.54-.62,10.45-4.4,20.26-1.28,3.31-2.33,4.35-5.56,4.84-2.32.35-6,3.55-6.39,3.13-5.44-6.31-12.5-2-18.62-3.25-1.41-.28-3,.29-4.38-.09-6.9-2-11,5.8-18,4.68-6.44-1-13.17-.22-19.78-.22-9.28,9.15-20.89,2.22-31.15,4.57-.61.14-1.58,1.28-1.48,1.46.55,1,1.31,2.56,2.13,2.66a32.69,32.69,0,0,0,8.78.05c8.8-1.47,15.57,7.74,24.62,4.48,5.6,5.88,14.24,4.15,20.82,8.43,3.65,2.37,8.38,4.41,8.74,8.12.45,4.68,6.14,6.39,5,11.39-.18.72,2,2.94,2.54,2.76,7.73-2.54,12.68,5.35,20.27,4.83,11.95-.81,12.26-.52,25.63,6.83,5,2.73,11.11-.25,15.54,5.72,3.39,4.57.34,9.52,4,14,4.22,5.2,3.7,6.33-.39,13.09-1.75,2.9-1.54,5.45-1.52,8.18,0,2.57-1,4.46-3.22,4.68-5.58.54-9.09,6.21-15.85,4.81-7.68-1.59-15.84-.89-23.79-1.19-3.1-4.93-5.28-1.83-7.84.71-1.83,1.82-1.29,2.69-.12,4.81,2.8,5.12,9.57,2.88,12.44,7.65,2.29,3.8,6.16,5.65,10.56,6.27,2.87,6.25,9.94,1.17,13.36,4.78s9.62,2.71,12.52,7.43c.4.66,2.87.4,4.24,0,9-2.28,13,4.72,18.11,9.54.53.5,1.53,1.13,1.45,1.56-1.15,6.89,2.47,14-2.81,20.92s-4.43,7.78-9.81,7.71c-4.4-.06-8.81.1-13.21,0-3.74-.12-5.74,1.87-4.82,5.16,1.86,6.62-6.17,9.47-5.32,15.5-3.13,2.82-5.33,6.52-10.82,6a107,107,0,0,0-22,0c-10.43,1.14-21.63-4-31.39,4-1.75,1.45-5.75-.11-8.64.27-11.86,1.54-24.61-4.12-35.62,4.35-5.14,0-10.31-.37-15.4.09-6.18.56-13-2.4-18.41,3.7-1.34,1.51-5.53.58-8.41.59-9.54,0-19.26-1.09-28.56.42-6,1-11.4,4.74-18.07,4.12-5.82-.54-11.92-1-17.55.15-5.28,1.1-9.54,5.49-15.88,4.33-5-.91-10.25-.19-15.39-.18-4.35,0-6.18,5.85-11.42,4.57-3.47-.85-7.3-.16-11-.16-4.4,0-9.9-1.7-13,.31-10.1,6.55-20.95,3-31.4,4.15-11.16,1.28-23-3.74-33.57,4.15-1.88,1.41-5.72.2-8.66.2-11,0-22-.06-33,0-3.56,0-8.41-.85-10.4,1.06-3.9,3.73-5.68,2.11-8.06-.88-4.78,6.46-11.73,3.86-17.91,4.12-6.59.29-13.21.07-19.82.07H539.66c-5.14,0-10.48-.89-15.36.22-6,1.36-8.73-4.42-13.64-4.6-4.4-.15-8.81,0-13.22,0-8.81,0-17.61,0-26.42,0-8,0-16.09-.15-24.13-.22-7.08-8.21-16.46-3.09-24.72-4-8-.87-16.15.19-24.2-.31-6.15-.38-11-5.83-18-4.5-5.67,1.07-11.7.22-17.58.22-6.6,0-13.25-.45-19.81.12s-10.75-6.56-18.06-4.8c-5.55,1.34-11.69.27-17.56.27-6.6,0-13.22.18-19.81-.12-1.89-.08-3.85-1.35-5.55-2.44-4.8-3.09-9.41-3.54-13.44,1-1.46,1.65-2,2-3.2.1-1.76-2.8-4.49-3-7.58-3-27.16.1-54.32.16-81.48,0-4.79,0-9.46.92-14.37-2.76-3.37-2.53-9.65-1.33-14.64-1.51s-10.3.25-15.4-.21c-1.81-.16-3.32-2.86-5.19-3.21-4.27-.8-7.25-3.93-11-5.34-10-3.73-14-8.63-14.07-18.49a17.29,17.29,0,0,1,.07-4.38,8.81,8.81,0,0,1,2-3.4c7.22,2.89,11.37-5,18-4.82,13.2.46,26.43.48,39.63,0,6-.22,9,6.63,15.87,4.86,5.5-1.44,11.67-.29,17.54-.29H249.3c5.87,0,11.75-.1,17.62,0,4.19.09,8.92-1.41,11.82,3.4a1.58,1.58,0,0,0,1.48.32c8.17-7.58,18.08-3.23,27.1-3.54,19.8-.68,39.63-.21,59.45-.21,6.61,0,13.23.25,19.82-.08,5.51-.28,11.88,2.39,16-3.86,5.05,5.28,11.64,3.44,17.79,4,6.65.63,10.56-6.61,18.08-4.85,7,1.63,14.6.35,21.95.35h61.66a137.09,137.09,0,0,1,21.84,1.28c1.34.43.74-.55-.1-1.23a1.87,1.87,0,0,0-1.85,0,1.85,1.85,0,0,0,0,1.85,8.9,8.9,0,0,0,2.59,2c.17.09.89-.85-.63-2.64-1.5-2.54-1.33-4.39-.4-4.94,4.11-2.4,6.21,1.17,9.14,3.1,2,1.32,2.84-5.73,6-2.3,2.81,3.07,4.36,2.35,6.36-.4.94-1.3,2.29-1.05,3,.86.49,1.28-.11,3,.42,4.24.36.86,2.36,2,2.69,1.75a31.47,31.47,0,0,0,4.74-4.57c1.94-2.18,2.91-3.08,6.44-1,6.24,3.78,13.87,3.31,20.44.19,2.58-1.22,4.64-2.75,7.72-2.73,13.2.08,26.39,0,39.58-.2.53,0,1.56-1.32,1.48-1.44-.66-1-1.47-2.52-2.34-2.59-3.65-.28-7.39.3-11-.19-11.13-1.52-23.25,4.35-33.44-4.33-11.75,0-23.51.2-35.25-.09-5.51-.14-11.51,2.12-16.28-3.56-1.27-1.51-5.48-.73-8.34-.74-15.42,0-30.86.28-46.27-.16-6.87-.2-14.52,2.86-20.5-3.82-1-1.13-4.16-.43-6.32-.43q-12.12-.06-24.24,0c-5,0-10.35,1-13.61-4.38-5.08-.52-10-.49-13.49,4.14-4.74-7-11.95-3.58-18.12-4.06-6.57-.51-13.38-1-19.77.15-6,1.12-8.42-5-13.65-4.77-5,.19-10.07-.41-15.1-.67-3.88-7.2-6.49,1-9.89.88-11.75-.3-23.51-.28-35.26,0-4.6.09-6.13-6-11.44-4.66-3.44.89-7.3.17-11,.17-4.41,0-8.84.33-13.21-.09-4.77-.45-7.81-5.83-13.65-4.5-4.19,1-8.77.18-13.18.18-5.14,0-10.4-.67-15.39.19-5.18.89-6.67-5.13-11.44-4.7-5.1.46-10.27.11-15.42.11-4.4,0-8.81,0-13.22,0-1.39,0-3.36.19-4.09-.6a43.56,43.56,0,0,0-15.38-10.87c-4.52-1.91-2.91-7.84-6.29-10.55-2.46-2-1.4-3.52.43-4.66,3.26-2,.19-8.63,4.86-8.31,8.78.59,15.29-6.35,24.69-5.09,13,1.75,26.4.15,39.6.57,6.17.2,13.27-2.7,18.2,3.83,5.05-5.3,11.63-4.1,17.82-3.88s13.25-2.49,18,4.24c7.78-8.71,17.93-2.68,26.86-4.27,5.86-1,8.93,6.88,15.89,4.64,4.66-1.5,10.19-.28,15.33-.28,8.08,0,16.16,0,24.24,0,2.12,0,5-.43,6.23.72,7.62,7,16.73,2.22,25,3.61,2.8.47,3.95-7.08,8.11-1.69,2.72,3.53,6.82,1.37,10.27,1.65,4.38.35,8.81.08,13.21.08h11c3.67,0,8.85-1.56,10.76.28,8.36,8,18.15,3.75,27.08,3.9q51.78.86,103.56,0c9.69-.15,20.16,3.66,29.2-4C617,970.74,621,972,624,972c14.69,0,29.42.65,44.06-.21,10.43-.62,21.64,4.07,31.41-4,1.75-1.44,5.7-.2,8.64-.2,14,0,27.94.54,41.86-.21,8.25-.44,15.73-5.39,24.65-4.41,8.71,1,17.8,1.32,26.36-.15,6.72-1.15,12.79-5.12,20.29-4.21,6.51.79,13.21-.11,19.8.26,4.68.25,6.18-5.82,11.44-4.69,4.22.91,8.79.38,13.18.12,3.15-.18,5.77.33,7.56,3.08,1.11,1.72,1.58.69,3.21-.17,13.76-7.3,13.82-7.13,25.62-7.28,4.32,0,8.63-.38,12.94-.72.53-.05,1.41-1,1.36-1.49a2.13,2.13,0,0,0-1.45-1.5c-13.87-.28-27.74-.54-41.61-.63-4.41,0-8.6.28-11.74-4-.56-.76-4.43-.27-5.65.86-5.74,5.32-12.1,3.79-17.89,1.3-2.56-1.1-4.64-2.71-7.72-2.7q-72.72.12-145.43,0c-3.25,0-5.55.91-7.46,3.38-1,1.23-1.92.77-3.14-.88-1.94-2.64-5.41-3.85-7.3-1.54-3.45,4.23-7.63,3.52-11.88,3.52-31.59,0-63.17-.16-94.75.15-6.86.07-14.69-3-20.34,4-9.35.14-18.94,2-27.88-1.28-2.81-1-4-3-6.41.21-2.12,2.79-6,2.09-8.11,1.16-7.82-3.45-15.21-8.77-23.25-.61a1.5,1.5,0,0,1-1.48,0c-5.11-6.47-12.22-2.67-18.38-3.52-3.6-.49-7.33-.13-11-.08-2.7,0-3.36-6-6.28-2.95-3.09,3.18-6.31,3-9.9,2.93-5.62-.18-11.81,1.64-15.81-4.4h-11c-6.61,0-13.51-1.19-19.76.3-8,1.92-12.67-6.11-20.32-4.91-6.45,1-13.19.21-19.8.21s-13.24-.32-19.82.13c-3.22.23-4-7-8.25-2.21-3.5,4-4.1-1.9-6.21-2-4.12-.21-8.81-2.09-11.91,2.57-1.58,2.37-5.17,2.16-5.78,1.32-3.68-5.12-8.8-4.23-13.82-4.23q-32,0-63.9,0c-3.63,0-7.26-.19-10.89-.3-3.35-7.24-13.07-.92-16.6-7.79-7.95-1-12.34-7-15.83-13-1.32-2.29-3.28-4.8-3.76-7.12-.35-1.65,3.33-3.89,4.64-6.19,2.77-4.84,8.89-4.15,12.23-7.78,3-3.31,6.86-2,10.23-1.78,4.19.25,6.87-1.5,9.26-4.42,2.86,7.42,11,1.71,15,6,2.26,2.47,4.76,2.73,7.75,2.71,11-.11,22.09-.73,33,.14,11.17.89,23.09-4.32,33.61,4,1.8,1.43,5.71.2,8.65.2,22.77,0,45.56-.63,68.3.25,12.62.49,25.88-4.32,38,3.91,2.52,1.71,7.18.25,10.85.25,7.35,0,14.72-.37,22,.11,6.17.41,13.29-2.73,18.22,3.88a2.88,2.88,0,0,0,1.48-.79,7.74,7.74,0,0,1,7.51-3.27c3.65.31,7.34.07,11,.07,4.41,0,9,.84,13.16-.24s4.59,7,8.43,2.83c3.06-3.3,6.6-2.94,10-2.49,11.15,1.48,23.09-4.2,33.61,4.1,1.81,1.43,5.71.21,8.65.21q80.43,0,160.86,0c4.86,0,10,1.44,14.1-3.55,1.25-1.52,5.49-.39,8.3-.86,5.32-.87,11.27,2.23,16-2.46-4.44-4-9.76-1.41-14.64-1.79-5.85-.45-11.75-.11-17.62-.11s-11.86-.69-17.6.19c-6.3,1-10.8-4.1-15.85-4.25-25-.76-49.93-.45-74.9-.26-4.8,0-7.77,5.9-13.65,4.51-4.17-1-8.82.24-13.16-.28-9.72-1.14-20.17,3.51-29.21-4.11-1.72-1.45-5.7-.21-8.64-.21-14,0-28,.67-41.85-.21-11.18-.7-23.26,4.5-33.45-4.19-8.81,0-17.63,0-26.44,0-4.32,0-8.42.44-11.84-3.66-1.46-1.75-2.91,5.08-5.93,2.3a10.65,10.65,0,0,0-7.6-3.17c-6.4-.22-13.59,2.4-19.06-1.6-6.88-5-14-2-21-2.56-6.57-.58-13.22-.13-19.83-.13s-13.26-.45-19.82.14c-6.06.54-8.89-7.19-15.91-4.84-4.62,1.55-10.18.3-15.32.3-5.88,0-11.85.66-17.61-.18-6.79-1-12.61-5.65-20.26-4.44-6.45,1-13.24-.25-19.79.36-4.91.46-6.4-5.54-11.43-4.71-4.29.72-9.53,1.61-13-.16-6.67-3.38-13.22-7-20.07-10.13-5.69-2.59-4-10.56-9.29-13.83-.68-.42-.78-3.25-.09-4.13a50.6,50.6,0,0,1,7.61-7.87c5.41-4.39,12.53-6.37,17.08-12.11.5-.63,3.52-.43,4,.3,3,4.36,7.31,4.67,11.64,3.91,6.8-1.19,10.76,6.56,18.09,4.77,5.54-1.35,11.69-.26,17.56-.26,11,8.79,23.81,2.5,35.64,4.38,7.54,1.2,16-3.16,22.65,4.1,1,1.12,4.19.32,6.37.32,11,0,22.11-.8,33,.24,10.41,1,21.84-4.89,31.39,3.91.18.17,2.94-2.47,4.5-3.79,4,6.39,10.44,3.85,16,4,13.21.27,26.44,0,39.66.15,4.84.07,10-1.58,14.13,3.47,1.24,1.52,5.44.83,8.28.84,16.16.07,32.33-.22,48.48.17,6.16.15,13.27-2.73,18.18,3.86,4.35.14,8.77-.18,13,.51,9,1.42,18.85-4.2,27.1,4,1.5,1.48,5.63.34,8.55.34,25.71,0,51.43.42,77.12-.23,8.2-.2,17.67,4.32,24.62-4.17,6.86,1.3,14.65-3.35,20.72,3.21.37.41,1.36.9,1.49.77,8-8,18.11-3.74,27-3.54,7.17.16,11.36-5.32,17.64-5.82.37,0,1.06-1.11.94-1.47-.22-.62-.92-1.47-1.48-1.52-2.88-.27-5.77-.42-8.65-.43-26.45,0-52.89.23-79.33-.17-7.56-.11-15.9,3.28-22.68-3.93-1.39-1.48-5.63-.31-8.55-.31H590.52a20,20,0,0,1-10-2.61c-5.4-2.88-12.12-4.18-17.75,1.4-2.37,2.36-5,1.51-7.53-.68-1.47-1.27-3.78-2.56-5.51-2.33-3.29.43-6.26,6.76-9.73.15-5.1-.11-10.19-.26-15.29-.33-4.4-.05-8.81,0-13.22,0H438.8c-5,0-9.91.73-13.9-4.11-1.2-1.45-7.16-1.48-8.24-.08-3.9,5.06-6.4,2.55-10,0-1.44-1.05-4.28-.17-6.49-.17-7.34,0-14.7.23-22-.09-4.8-.21-10.05,1.88-14.19-3.29-1.24-1.55-5.4-1-8.23-1-8.81-.11-17.62,0-26.44,0-7.18-7.16-16.29-3.57-24.61-4.44a6,6,0,0,0-5.55,2.59c-2.4,3-3.64.54-3.95-1.24-.51-2.9-.12-5.94-4.48-5.75-2.93.13-5.88,0-8.81,0-8.82,0-17.73-.8-26.41.27-6.44.79-9.75-5.45-15.85-4.82-5.78.6-11.68,0-17.52-.08-5.59-7.11-13.46-3.18-20.31-4.17-4.78-.69-10.21,1.89-14.11-3.49-.85-1.17-4-.86-6.1-.89-6.61-.1-13.23-.26-19.82.05-4,.18-7-.76-9.44-4-2.78-3.65-6.12-6-11.17-5-4.5.82-8.45-.14-11.47-4.28-2.14-2.93-5.13-5.23-7.69-7.86-4.42-4.53-4.61-15-.21-19.42s8.57-10.34,16.49-8c2.87-3.87,6.73-4.59,11.4-4.58,4.16,0,4.81,5.48,9.21,4.68,2.84-.52,6.75-1.3,8.64.11,8.43,6.26,17.88,3.74,27,4.16,7.72.35,13.82,6.47,22.47,4.77,7.78-1.53,16.21-1.14,24.14-.06,6,.83,11.22,5.22,18.06,4.3,5.78-.77,11.74.06,17.61-.24,3.58-.18,4.71,3,7.14,4.16a4.7,4.7,0,0,0,5.91-1,33.51,33.51,0,0,1,3.1-3c7,8.31,16.47,2.63,24.65,4.32,4,.84,6.29,5.54,11.42,4.58,4.12-.78,8.75-1.11,11.77,3.48.52.79,3.29,1.23,3.9.65,7.35-7,16.48-3,24.69-4.47,5.78-1,9,3.92,13.65,4.43,5.81.62,11.73.15,17.61.15h15.42c6.2,7.94,14.88,3.79,22.43,4.14,4.12.18,6.07,2.79,9,4.28,2.72-4.58,7.17-4.15,11.55-4,3.67.1,7.37-.24,11,.08,5.5.49,11.51-2.17,16.3,3.52,1.29,1.53,5.47.79,8.32.8,14.69.06,29.39-.25,44.06.16,6.16.17,13-2.47,18.4,3.7,1.32,1.5,5.54.56,8.43.56,34.52,0,69,0,103.56.07,4.51,0,8.5-.11,11.64-4.2.72-.94,4.11-1,5.8,1.16a22.49,22.49,0,0,0,3.08,2.83c4.5-7.17,12-2.81,17.88-4.72a2.66,2.66,0,0,0,1.49-1.54c.11-.37-.58-1.37-1-1.47a31.5,31.5,0,0,0-6.24-.89c-15.42-.07-30.89.67-46.26-.26-12.63-.77-26.08,4.52-37.85-4.18-10.28,0-20.58.36-30.84-.13-6.89-.34-14.67,2.95-20.4-3.91-.34-.4-1.33-.35-2-.36-5.88,0-11.76.15-17.63-.06-5.57-.19-11.87,2-15.83-4.29-1.58,1.45-3.21,4.16-4.75,4.11-5.5-.19-11.6,2.51-16.4-3-1.08-1.22-4-1.13-6-1.17-7.34-.13-14.69,0-22,0-4.41,0-8.82.07-13.22,0-4.23-.08-8.05.21-12.06-3.19-2.63-2.23-8.29-.77-12.55-1.29-1.23-.15-2.26-1.54-3.48-2.17-6-3.14-12.26-4-17.78.54-2.74,2.24-5.41,1.35-8.15,1.73-4.62.63-6.13-5.67-11.44-4.62-4.95,1-10.24.21-15.38.21-4.41,0-8.82-.1-13.22,0s-6.15-5.93-11.44-4.6a25.28,25.28,0,0,1-10.95,0c-4.63-.95-7.94-5.43-13.66-4.45-5,.86-10.25.18-15.39.18H307.59a39.25,39.25,0,0,0-6.6.06c-5.41.94-9.23-2.19-13.74-4.18-3.69-1.64-9.82.8-12.46-1.43-4-3.35-7.79-3.22-12-3.24-8.81-.06-17.77-1-26.39.3-6.11.92-8-5.8-13.68-4.92s-11.72.19-17.6.19c-5.14,0-10.29-.2-15.42.08-2.65.15-3.67-1.89-5.47-2.86-4.19-2.23-8.54-4.18-12.93-6-5.92-2.45-9.45-6.27-8.43-13.11.11-.72.32-1.89,0-2.14-4.08-2.86-5.25-6.91-4.3-11.44,1.31-6.2,7.67-8.39,11-13,8.62,3.78,16.47-11.65,25.48-1,.72.85,2.57.88,3.92,1,8.33.84,17.19-2.43,24.8,4.23,1.67,1.45,5.69.21,8.63.21h59.5c6.61,0,13.23-.25,19.82.08,5.52.27,11.9-2.41,16,3.88a15.13,15.13,0,0,1,3.14-2.18c6.1-2.28,12-3.61,17.95,1.06,3.61,2.85,8.41,3.08,11.72-.22s4.42-1.24,6.47.75c.33.32,2-.72,3-1.15s2.67-1.54,3-1.22c2.05,1.85,3.54,4.41,6.39.73,2.73-3.52,6.84-1,10.26-1.73,5.43,7.47,13.36,3.59,20.23,4.22,1.64.15,3.54-1.91,5.23-3.08,2.79-1.93,5.27-1.68,7.54.82,2.95,3.25,6,3.6,9.07.21,2.22-2.46,5.23-3.46,7.4-1.11,2.86,3.1,6,3.4,9.71,3.39,36-.07,72-.23,108,.14,6.07.06,9.38-6.16,15.85-4.8,4.92,1,10.29.66,15.36.07,4.32-.5,6.48,2.14,9.14,4.37,4-6.34,10.35-3.9,15.88-4.17,5.86-.28,11.75-.06,17.62-.06,9.57-7.41,20.78-3.2,31.22-4.47,12.61-1.55,26,4.17,37.95-4.21,1.47-1,4.34.11,6.5-.18,6.15-.85,13.3,2.71,18.2-4,.29-.4,1.33-.35,2-.35,6.61,0,13.27.48,19.81-.17,5.51-.54,11.11,2,16.68-2.39,5.29-4.16,12.58-1.57,19-1.79,8.8-.29,17.64-.43,26.43.08,4.43.25,6.62-2.14,9.11-4.76.51-.54,1.55-1.4,1.48-1.51-.68-1-1.54-2.58-2.36-2.58q-29.74-.22-59.49-.06c-3.79,0-6.8-.55-9.67-3.51-2.21-2.26-5.38-1.27-7.36,1.37s-3.43,1.16-4.66-.51c-1.59-2.15-3.87-2.18-5.86-1.71-2.69.65-3.36,4.51-7,4.39-8.07-.27-16.16-.09-24.24-.09-7.74-8.72-17.87-3-26.83-4.31-9.22-1.31-19.15,2.42-27.78-2.1s-17-2-25.47-2.23c-19.09-.53-38.19-.17-57.29-.17-3.67,0-7.36.22-11-.06-4.82-.37-10.05,1.78-14.18-3.37-1.23-1.54-5.41-.91-8.24-.94-8.08-.1-16.16-.22-24.23,0-3.47.12-4.93-3-7.3-3.63-1.82-.45-4.3,2.66-6.72,3.42-2,.62-5.56,1-6.38,0-4.4-5.74-10.38-4.08-16-4.24-3.67-.1-7.34,0-11,0-7.34,0-14.69.2-22-.07-6.17-.22-13.05,2.2-17.89-4.06-4.87,8.45-8.79-3.08-14.26-.66-4.3,1.9-10.15.75-15.25.28-6.18-.56-12.94,2.37-18.43-3.63-1.39-1.52-5.53-.65-8.4-.66-16.16,0-32.33.32-48.47-.17-7.58-.22-16.07,3.39-22.61-3.95-.67-.76-2.77-.29-4.21-.3-4.41,0-8.82,0-13.23,0-6.61,0-13.22.1-19.83,0-5.59-.11-11.81,1.81-15.78-4.33-2.41,2.85-5,5.06-9.22,4.43s-8.94,1.35-11.79-3.51a127.91,127.91,0,0,1-27.24-14c-6.19.79-7.27-2.67-6.84-7.83a66.35,66.35,0,0,0,0-11c-.33-3.94,2.68-6.59,3.42-9.55.95-3.84,4.9-6.29,4.18-10.51-3.54-.31-7.08-.66-10.63-.91-1.46-.11-2.94,0-4.41,0-7.67-.4-15.72,1.91-22.5-4.3-3.41-3.12-5.57,7.38-10.23,1.63a93.72,93.72,0,0,0-7.75-7.82,19.26,19.26,0,0,0-3.31-2.67,3.37,3.37,0,0,0-2.16,0c-8.36,1.72-10.83-6.06-15.73-9.86-.89-.69-1.19-2.49-1.27-3.8-.19-2.93.62-6.08-.18-8.78-2.95-9.92,4.31-14.6,9.77-20.27.49-.51,1.26-1.43,1.6-1.31,6.36,2.24,10.51-3.67,15.85-4.24,4.67-.5,10.43-2.37,13.93,3.32,4.29.28,9.85-1,12.62,1.16,7.19,5.72,15,4.19,22.65,3.93,6.65-.24,10.57,6.68,18.1,4.92,7-1.63,14.61-.35,21.95-.35,6.61,0,13.22-.09,19.83,0,4.94.09,7.7,6.09,13.65,4.58,4.14-1,8.77-.2,13.17-.2H288.4c4.4,0,8.85.37,13.21-.09,6-.65,9.42,5.76,15.85,4.72s13.18-.23,19.79-.23c5.88,0,11.8.46,17.62-.12,6.06-.61,8.86,6.81,15.91,4.88,6.15-1.68,13.12-.35,19.73-.35H428c5.88,0,11.78.32,17.63-.08,7.26-.5,12.38,6.27,20.27,4.77,7.08-1.35,14.63-.28,22-.28a40.34,40.34,0,0,1,4.4,0c5.5.6,11.51-2,16.27,3.64,1.27,1.52,5.49.72,8.35.72,22.77.05,45.54,0,68.31.06,4.43,0,8.67.27,11.64-4.07.5-.73,2.73-.35,4.16-.36,5.88,0,11.75,0,17.63,0,5.14,0,10.29.12,15.42,0,5.6-.17,11.87,1.87,15.81-4.36l15.42,0h17.63c13.22,0,26.44,0,39.66-.07,1.26,0,2.54-.91,3.74-1.53.15-.08,0-1.32-.23-1.44a10.15,10.15,0,0,0-3.83-1.31c-9.55-.11-19.11-.22-28.65,0-3.28.09-5.11-1.7-7.55-3.24-2.16-1.36-6.34-2.22-8.1-1-8.66,5.83-16.63,5.82-25.28,0-2-1.36-5.74-.2-8.68-.2-9.55,0-19.12-.38-28.64.13-6.65.35-10.57-6.64-18.09-4.89-7,1.63-14.61.35-22,.35-6.61,0-13.37.85-19.78-.27-5.29-.92-9.51-5.42-15.89-4.34-5.7,1-11.73.49-17.57,0-1.66-.14-3.13-2.55-4.69-3.92-4.16,8.11-7.7-1.47-11.94-.5s-8.77.31-13.17.19c-4.9-.14-10,1.31-14-3.74-1.27-1.62-2.75,5.36-5.92,2.32a9.81,9.81,0,0,0-7.65-3c-13.21.18-26.49-.63-39.63.4-5.93.47-7.5-6.52-13.7-5-5.54,1.35-11.68.28-17.56.28H378.35c-5.14,0-10.37-.6-15.4.16-5.61.85-7.59-6.35-13.69-4.81-4.83,1.22-10.22.24-15.36.24s-10.28,0-15.42,0c-5.66,0-9.1-6.38-15.88-4.68-5.53,1.38-11.68.28-17.55.28s-11.79.41-17.62-.11c-7.58-.67-14-6-22.47-4.56-7.13,1.25-14.64.26-22,.26-8.67-8.08-19.31-3.27-29-4.3-5.82-.61-11.74-.11-17.62-.11H158.69c-6.61,0-13.33-.73-19.8.21s-10.67-3.79-15.86-4.29c-10.92-1.06-22-.62-33-.21-6.18.23-10.05-.23-12.31-7.61C75.84,478,67.27,477.91,62.43,474c-8.08,1.19-3.68-8.1-8.58-10.29-2.15-1,2.19-2.69,2.36-4.37.52-5,.59-10.06.88-15.1.26-4.59,5.1-9.84,9.38-9.88,11-.09,22.06.46,33-.25,5.06-.32,6.58,5.33,11.42,4.75,3.5-.41,8.53-1.06,10.43.84,3.76,3.75,7.69,3.43,12,3.44,8.08,0,16.17-.23,24.23.09,5.51.22,11.7-2.26,16.23,3.76.57.76,4-6.25,7.59-.87,2,2.93,5.43,1.34,8.17,1.36,16.16.14,32.32-.19,48.47.22,5.61.14,12.39-3,16.7,1.78s12.1-.84,15.48,5.93c.41.83,4.68,1.06,5.58.09,2.77-3,5.8-3.72,9.66-3.61,8.07.23,16.21.65,24.21-.12,6.2-.6,9.37,6.09,15.87,4.83,5.66-1.11,11.71-.23,17.58-.23s11.8.44,17.62-.15c4.4-.44,5,5,9.21,4.63,5.52-.54,11.65,1.57,15.71-4.27,4.1,8.15,7.72-1.31,11.9-.41s8.79.44,13.17.12a11.36,11.36,0,0,1,9.6,3.77c.9.92,4.38.58,5.67-.46,2.32-1.87,3.85-4.08,6.38-.41,2.13,3.09,5.77,2.08,8.07,1.36,5.24-1.64,9.55-5.42,15.9-4.38,5.73.94,11.83-.49,17.57.39s7.58-6.42,13.69-4.85c4.83,1.24,10.28.74,15.35.15,11.16-1.31,23.19,4.17,33.52-4.21.89-.72,2.87,0,4.33-.12,10.48-.91,21.65,3,31.23-4.39,5.87,0,11.78.36,17.62-.11,4.81-.38,9.88,2.09,14.47-2.37s11.16-1.57,16.77-1.78a354,354,0,0,1,37.43.11c6.31.44,10.6-3.16,15.88-4.41,4.87-1.16,10.23-.25,15.37-.25l17.62,0c5.39-7.67,13.42-4.16,20.22-4.13,7.32,0,12.34-6.64,20.27-4.94,6.31,1.36,13.16.28,19.77.28,6.91-7.23,16.33-2.79,24.26-5.28.51-.16,1.23-1.11,1.12-1.49a2.5,2.5,0,0,0-1.48-1.52,19.62,19.62,0,0,0-4.2-.51c-4.93-.21-10.38,1.28-13.68-4.23-2.9,3.74-6.74,4.4-11.31,4.31-14.69-.27-29.38,0-44.07-.12-5.63,0-11.52,1.19-16-4.23-.85-1-4.11-.42-5.67,1.71-1.29,1.75-2.85,3-4.66.4-.41-.6-1.35-1.59-1.5-1.49-3.31,2-6.57,4.63-9.39-.62-3.42,4.91-8.48,4.29-13.53,4.36-3.24,0-5.31-1.12-7.62-3.18-1.24-1.11-5.05-1.59-5.63-.81-3.15,4.25-7.36,4-11.75,3.91-7.34-.1-14.69,0-22,0-8.73-7.69-19.29-3.9-29-4.1-3.92-.08-5.34-5.79-8.59-3.39-6.77,5-13.15,5.19-19.49,0-2.75-2.25-5.56-1.25-8.3-1.26-21.3-.13-42.61.37-63.89-.29-9-.27-19,4.11-26.83-4.19-7.62.7-16-2.44-22.46,4.36-.35.37-1.48.22-2.15,0-3.22-1-6.24-6.94-9.72-.32-6.45-6.68-14.73-3.57-22.27-4-8.06-.42-16.16-.09-24.24-.09-7.34,0-14.73.47-22-.14-6.22-.52-12.44,1.9-18.8-2.59-6-4.22-14.11-1.07-21.26-1.66-3.65-.3-7.28-.45-9.68,3.26-.84,1.31-2,.85-3.1-.87-1.91-2.92-4.93-2.42-7.8-2.41-17.63,0-35.26.16-52.88-.09-5.51-.08-11.78,2.37-16.16-3.66-.57-.78-2.66-.54-4.06-.63s-2.93,0-4.4,0H207.74c-4.4,0-8.93-.62-13.19.16-5.67,1-9.06-3.44-13.66-4.38-4.24-.86-8.78-.18-13.19-.18-7.34,0-14.72.45-22-.13-6.86-.56-14.82,3.36-20.24-4.24l-19.81,0c-7.35,0-14.7-.09-22,0-4.47.07-6.13-5.82-11.44-4.64-4.19.94-8.77.19-13.18.19s-8.91-.58-13.19.14c-6.7,1.12-11.17-1.65-15-6.58-2.69-3.47-8.06-2.08-10.75-6.15-1.89-2.87-4.37-5.88-8.87-5.2-.68.11-2.26-1.81-2.46-3-.94-5.45,2.33-11.85-3.85-16.06.58-3.25,3.42-5.23,4.23-8.81s5.44-6.51,8.53-9.58c.94-.93,2.32-2,3.52-2,8.07-.18,16.15-.09,24.23-.09,6.84,9.8,20.42-1.22,27.26,8.77.24.34,1.41,0,2.15,0,5.87,0,11.75-.07,17.62,0,5.63.1,11.77-1.49,15.81,4.39h17.62c5.88,0,11.83-.59,17.62.13,10.42,1.29,21.82-4.2,31.24,4.28,5.14,0,10.29-.21,15.42.06,4.83.24,10-1.67,14.15,3.42,1.24,1.54,5.43.86,8.27.89,8.81.09,17.64-.32,26.43.16,6.18.33,13.08-2.54,18.37,3.68,1,1.15,4.11.55,6.26.58,4.4.07,8.81,0,13.22,0h15.42c4.41,0,9.79,1.6,13-.35,5.52-3.37,7.28,8.27,12.72,1.94,3.22-3.74,8.29-1,12.49-1.52,3.58-.43,7.34-.73,9.71,3.11.91,1.47,1.63.15,3.17-.5,8.69-3.65,13.09-3.55,22.22-.47.62.21,1.28,1.54,1.53,1.43,3.62-1.53,6.52-4.09,11.16-3.92,4.28.16,5.14,4.88,9.19,4.82,2.68,0,4-1.55,5.31-3.15s2-1.61,3.24.24c.7,1,2,1.61,3.06,2.4,4.06-6.33,10.46-3.91,16-3.94,32.32-.18,64.64-.07,96.95-.12a66.3,66.3,0,0,0,10.73-.78c.7-.11,1.06-2.34,2.86-5.62.43-1.33-.55-.74-1.22.1a1.32,1.32,0,0,0,1.86,1.87,8.82,8.82,0,0,0,2-2.6c.09-.16-.85-.88-2.64.63-4,1.43-7.1,3.39-9.48.5-1.34-1.61-2.75-3-5.39-3-8.81.22-17.62.11-26.43.08-3.63,0-8,1-10.72-.56-3-1.72-6.51-2.83-9-4.67-3.53-2.58-5.42-3.61-8,.31l-26.21.52c-8.62-8.39-19.34-3.82-29-4-5.63-.12-8.83-4.34-13.59-4.7-5.84-.44-11.74-.1-17.61-.1H354.62c-6.94-8.52-16.41-2.88-24.61-4.35s-17.48,3.05-24.59-4.47c-7.34,0-14.69.07-22,0-6.31-.07-13.07,1.48-18-4.39-6.61,0-13.37.86-19.77-.29-4.45-.79-8.59-4.07-12.5-6.78-1.58-1.09-2-1.82-3.24-.53-1.75,1.89-4.26,5.53-5.2-.25-.81-5.07-.86-4.91-5.88-2.48-7.65,3.7-15.65,1.85-30.89-2.05a21.31,21.31,0,0,0-4.06-.81c-6.5-.31-13-.51-19.52-.75-5-6.46-12.14-3-18.31-3.55-5-.44-7.67-6.26-13.62-4.74a29.06,29.06,0,0,1-13.12,0c-5.3-1.21-9.45-5.72-15.88-4.42-4.94,1-10.25,0-15.37.29-2.78.18-3.87-1.69-5.32-3.16-2.5-2.53-5.59-1.43-8.27-1.23-9.72.76-9.71.93-13-2.38l-21.8-21.8c-.06-.71-.16-1.42-.16-2.13,0-5.14-1.72-11.2.41-15.2,3-5.57,8.75-9.67,13.47-14.26A5.15,5.15,0,0,1,57,227.26c6.17,1.07,13.06-2.91,18.68,2.86,1.2,1.24,3.91,1.36,5.94,1.39,9.54.13,19.12-.5,28.61.21,9.73.73,20.15-3.57,29.2,4.05,1.71,1.44,5.69.2,8.63.2,31.56,0,63.14-.44,94.69.24,11.13.25,23.24-4.58,33.42,4.17H296c11,0,22.09-.76,33,.28,6.73.65,12.63,5.4,20.26,4.34,7.2-1,14.65-.21,22-.21h90.29c7.34,0,14.68,0,22,0a12.61,12.61,0,0,0,4-.87,2.35,2.35,0,0,0,1.31-1.59,31.15,31.15,0,0,0-.14-4.31l-15-6.41c-9.54,0-19.09.08-28.63,0-5.61-.06-11.75,1.77-15.93-4.28-.46-.67-3.62-.63-4.1.06-2.95,4.23-7,4.45-11.56,4.34-3.7-.1-6.77-.4-9.79-3.3-1.63-1.55-5.39-1.12-8.2-1.15-10.27-.11-20.56.12-30.83-.11-4.82-.11-10.43,2-13.89-3.61L338,222.75c-4.9-.26-10.39,1.59-13.79-3.93-4.93-.51-10.12-.26-14.67-1.86-2.5-.88-3.16-2.34-6.51-.44-6.24,3.54-10.46,2.25-17.74-1.26-3.54-1.71-7.51-2.53-10.6-5.16-5,7.08-8.9-2.59-14.33-1-4.92,1.44-11.78,2.6-15.75-3.77l-17.54-.21c-4.7-6.77-12-5-17.94-4.07s-7.54-6.82-13.71-5c-4,1.18-8.66,0-13-.06-3.08-5.63-9.08-3-13.41-4.85-2.42-1-4.42-2.91-7.15-4-3.76-1.51-6.64-5.32-9.77-8.28s-6.4-6.07-9.32-9.37c-3.23-3.65-2.49-7.77-.7-11.89s1.72-4.6-1.12-7.89c5.27-5,9.76-12.06,16-14.56s14.46-.6,21.8-.54c5.83,0,11.65.21,17.48.32,4.83,6.74,12,2.93,18.12,4.13,5.12,1,9-1.72,13.25-3.61,2.82,4.81,7.52,3.45,11.74,3.53,5.14.1,10.29.25,15.41,0,5.53-.31,11.91,2.21,15.88-4.15,5.43,1,11.7-3,16.33,2.72,2.31,2.87,5.47,1.4,8.19,1.42,23.49.13,47,.07,70.47.07,5.14,0,10.29.21,15.42,0s9.69.13,13.82,4.23c1.48,1.46,5.64.23,8.58.23,34.5,0,69-.07,103.5.06,7,0,13.82-1.11,20.43,4.06,5.31,4.15,10.4-4.86,15.47-3.7,4.48,1,9.45,6.69,13.46,3.69,10.09-7.57,21.07-2.36,31.43-4.11,3.47,4.74,8.42,4.42,13.59,4.54,6.54.15,10.63-6.65,18.07-4.85,6.24,1.51,13.14.31,19.75.31h17.61c6.61,0,13.23-.2,19.82.09,3.27.14,5.29-1.22,7.52-3.32,2.43-2.28,5.25-1.7,7.43.85s5.16,3.69,7.39,1.51c2.89-2.83,5.79-3.68,9.63-3.6,10.27.2,20.57.43,30.82-.06,6.88-.34,14.6,2.91,20.44-3.87.66-.76,2.75-.38,4.17-.4,4.4,0,8.81,0,13.21,0s9-.73,13.18.18c5.26,1.13,7.07-4.58,11.42-4.59,9.55,0,19.15.66,28.62-.19,9-.8,18.93,4.28,27-4.07,1.06-1.1,4.25-.15,6.45-.15h30.83c4.41,0,9-.85,13.17.2,5.95,1.52,8.66-4.55,13.64-4.6,4.4,0,8.81,0,13.21,0s10,1.7,13-.34c7.29-5,14.93-3.92,22.64-4,7.33-.12,14.68.14,22-.08,4.85-.14,10.17,1.71,14-3.55.84-1.15,4-.75,6.14-.77,8.08-.07,16.18.33,24.22-.15,6.17-.37,13.27,2.71,18.18-3.87,8-.14,16-.37,24-.37,3.65,0,4.46-1.74,5.21-5.09,1-4.32,3.75-4.89,7.78-2.35,1.74,1.11,2.64,3.63,5.38,3,.69-.16,1.56.14,2.14-.16,1.77-.92,2.17-2.12,1.11-3.06-4.71-4.17-7.94-10.4-15.28-11a1.83,1.83,0,0,1-1-1.47,2.45,2.45,0,0,1,1.48-1.52c2.12-.3,4.66-1.14,6.36-.33,5.77,2.76,11.4,5,18.07,4.37,5.82-.53,11.73-.11,17.61-.11,2.93,0,5.88.17,8.8,0,4.55-.31,6.14,6,11.44,4.61,3.44-.88,7.3-.17,11-.17,4.4,0,9.13-1,13.13.26,5.21,1.67,9.7,5.59,15.73,4.49,2.09,4.28,5.23,8.37,6,12.87.92,5.42,2,11.77-4.13,15.75,1.17,6-6.84,8.87-4.83,15.91,1,3.66-6,8-10.73,8-8.08,0-16.21-.58-24.21.16-9.72.89-20.07-3.5-29.24,4-2.21,1.79-7.12.26-10.8.26h-26.42c-8.07,6.74-17.72,4-26.81,4.35-8.8.29-17.62-.06-26.42.12-3.25.07-6.17,7.31-9.76.41-3.29,2.55-6.54,4.67-11.21,4.06-4.33-.57-8.79-.12-13.2-.12s-8.82.2-13.21-.06c-4.58-.27-6.13,6-11.43,4.63-3.44-.88-7.3-.17-11-.17-4.4,0-8.83-.26-13.21.09-3.54.28-4.48-4.44-6.8-3.9s-3.65,4-7.17,4c-2,0-4.92.73-11.77-.14a11.93,11.93,0,0,0-4.38,0c-5.29,1.39-9.32,6.07-15.86,4.57-4.88-1.11-10.23-.22-15.37-.22-5.87,0-11.75-.19-17.61.09-2.67.12-3.86-1.56-5.41-3-.53-.48-1-1-1.56-1.48-4,6.23-10.23,4.12-15.81,4.35-5.1.21-10.2.22-15.3.31-4.77,8.6-16-.22-21,7.78a72.32,72.32,0,0,1-23.58-.06c-3-4.69-5-.36-7.86.17-7.08,1.32-14.55.56-21.86.64-4.71,6.73-11.77,3.92-18,4.37-2.93.21-5.87,0-8.81,0-7.34,0-14.69-.2-22,.07-6.17.22-13.07-2.25-17.89,4.07-4.14-8.1-7.7,1.44-11.92.48s-8.76-.21-13.17-.21H648.75c-4.41,0-8.81,0-13.22,0s-8.72-.64-11.72,3.82c-.52.76-3.27,1.11-4,.49-9.54-8.32-20.88-3-31.31-4.14-7.26-.78-7.33-.12-16.82,4.25,1,.68,1.77,0,1-2a2.77,2.77,0,0,0-1.33-1.46,8.21,8.21,0,0,0-3.72-.81c-1.17.16-2.24,1.12-3.36,1.73.76.86,1.38,2.14,2.32,2.47,1.22.43,2.7.11,5.09.11,1.71,2.69-.49,3.86-2,5.12s-1.75,2.89.24,2.95a51.64,51.64,0,0,1,21.51,5.07,6.62,6.62,0,0,0,4.22,0,14.6,14.6,0,0,0,3.43-2,24.5,24.5,0,0,1-2.81-3.06,21.28,21.28,0,0,1-1.51-3.64h52.86c6.6,0,13.25-.44,19.81.13,5.48.48,11-1.71,16.58,2.66,5.2,4.05,12.62,1.23,19.05,1.55,5.86.29,11.74.06,17.62.06,13.94,0,27.89,0,41.84,0,3.67,0,7.28-.37,9.67,3.33.83,1.28,1.94.78,3.11-.9,2.59-3.71,7.93-3.66,9.75-2.1,6.35,5.42,13.44,4,20.45,4.08q24.22.13,48.45,0c4.42,0,8.27.06,11.75,3.92,1.86,2.07,5-.12,7.39-2.16,3.59-3,8.36-3.18,11.68-.07,3.05,2.86,4.14,1.71,6.52-.42,1.31-1.18,4-1.18,6-1.19,19.82-.08,39.64,0,59.47-.1a15.2,15.2,0,0,1,9.73,3.33c3.29,2.37,8,2.24,11.81-1,1.45-1.25,4.86-2.66,5.47-2.06,6.67,6.62,15.13,4.77,22.52,3.83,6.14-.78,7.88,7.14,13.64,4.8,6.49,3,5.85,11.19,10.88,15.3a4.55,4.55,0,0,1-1.14,1.47c-3.88,2.4-2.9,6.21-3,9.78-.34,8.09-7.21,20.44-14.11,24.91a11.57,11.57,0,0,1-6,1.37c-30.83.09-61.67,0-92.5.14-3.25,0-5.15-1.47-7.56-3.22-3.07-2.22-3.83,3.92-6.37,3-9.19-3.21-15.89,5.42-24.66,4.66a164.26,164.26,0,0,0-24.2,0c-6.89.43-14.39-2.68-20.57,3.74-1.44,1.5-5.56.52-8.45.53-14.68,0-29.38-.35-44,.17-7.58.26-15.76-3.14-22.73,3.88-1.83,1.84-7,.36-10.69.37s-6.65,0-10-2.74-5.81,4.64-10.67,3c-3.29-1.13-7.27-.22-10.94-.22s-7.35-.08-11,0c-4.21.12-7.84.41-12,3-5.22,3.28-13.69,3.39-18.57.16s-9.35-2.87-14.2-3.21c-4.38-.32-8.32-.11-11.79,3.79-1.34,1.5-5.52.56-8.41.57-11.74,0-23.49.08-35.24,0-3,0-5.87-.08-7.65,2.79-1.18,1.9-2,2-3.16.23-3-4.75-7.77-2.57-11.91-2.84-3.29,5.44-8.68,4.24-13.65,4.26-11.74,0-23.49,0-35.24,0-2.15,0-4-.18-5.89-1.84-2.44-2.13-3.77-6.81-7.63-5.79-2.45.65-4.35,3.77-6.26,6-2.76,3.21-3.47-.49-4.65-1.44-3.33-2.66-7-1-10.43-1-.67,0-1.66,2.13-2,3.4a4,4,0,0,0,2.76,5c1.31.45,2.94-.11,4.37.12,10.37,1.68,21.75-4.06,31.3,4.28.83.72,2.85.09,4.32.09H556c5.88,0,11.87.75,17.59-.19,7-1.13,12,4.12,18,4.39,14.65.65,29.36.21,44,.21,2.93,0,6.9-1.24,8.64.21,9,7.51,19.59,4.44,29.14,3.7,6.74-.53,9.8,5.68,15.84,5,5.08-.56,10.27-.12,15.41-.12,5.87,0,11.75.21,17.62-.07,3.67-.17,5.06,2.66,6.86,4.65,4,4.43,7.71,6.62,12.37.83.67-.84,2.59-1,3.92-.95,9.59.26,9.59.3,11.29-1.21,5-4.4,7.32-4.42,15.05-.29a10.73,10.73,0,0,0,3.81,1.4c4.3.4,6.68-7.66,11-3.73,3.76,3.43,7.38,3.9,11.76,3.8s8.82-.21,13.21.06c2.31.14,4,1.54,1.49,4.33-4.27,0-6.41-.26-8.43.12-.93.17-1.67,1.56-2.35,2.5-.06.09.88,1.31,1.42,1.36a46,46,0,0,0,8.2.31c1.11-.09,2.89-1.3,3-2.22.68-4.21-2.83-1-1.88-2.07,10.45-4.37,10.45-4.4,17.77-4.4,36.64,0,73.28.28,109.91-.29,6.27-.09,10.53,3.32,15.81,4.48,4.88,1.07,11.19-1.33,14.93,1,3.55,2.17,7.89,2.77,10.92,5.72-1.65,5,4.8,6.8,4.57,11.3a28.93,28.93,0,0,0,0,6.58c1.21,6.49-1.1,11.34-6.35,15-2.82,2-2.55,4.85-2.55,7.75,0,4.46.85,5.77,4.32,5.78,8.79,0,17.59,0,26.38,0,9.19,0,11.28,1.58,13.22,12.48.87,4.87,6.55,7.68,4.71,13.57-1.26,4,1.71,9-1.47,12.54-3.82,4.2-3.43,10.64-9,14.08-3.68,2.27-6.33,5.09-11.33,4.83-4.73-.24-10-2.09-14.28,2.58-3.4,3.7-8.29,1.19-12.47,1.52-5.1.41-10.25.1-15.38.1-6.92,8.51-16.43,4-24.56,4-6.29,0-9.64,5.81-15.78,5-5-.68-10.24-.14-15.37-.14H889.53c-13.29,8.75-28.13,2.55-42.14,4.39-2.2.28-4.31,0-5.72-2.09-1.58-2.28-2.72-1.14-4.74-.07-8.39,4.42-17.31,8-25.37,12.87-6.86,4.11-4.53-.69-5.34-3.49-.28-.93-1.66-1.62-2.66-2.2-.17-.1-1.44.95-1.44,1.47,0,3.94-.41,7.25-5.68,6.78-2.18-.19-4.41.09-6.59-.05-10.45-.68-10.44-.68-15,2.77-3.77,2.85-7.86,2.5-11.89.2-1.41-.8-2.1-4.39-4.68-1.23-1.39,1.69-3.26,3-4.59,4.72-2.12,2.74-5.27,1.63-7.77,2.56-4.28,1.57-7.74-8.68-11.95-.55-5.08.13-10.17.44-15.24.28-2.56-.07-3.94,1.3-5.48,2.8-3.55,3.46-6.08,1.39-9.15-1.16s-3.44-2.15-7.4.13c-1.51.88-2.1,3.37-4.77.91-5.07-4.69-10.33-4.1-14.91,1.13-3,3.37-6,6-11.11,5.2-3.57-.57-7.33.13-11-.17-4.11-.35-8.51,1.57-12.19-2.48-3.89-4.27-4.37,3.83-8.4,2.78s-8.73-.24-14.11-.24c-.33,0,.58.26.91-.07a1.92,1.92,0,0,0,0-1.86c-1-1.45-2.28-3.26-3.83-.61C617.13,480.59,618.57,481.91,620.23,482.78ZM562,1086.57c.66,0,1.57.26,1.89-.07a1.92,1.92,0,0,0,0-1.86c-1-1.45-2.28-3.26-3.83-.61-.21.36,1.23,1.67,12.31,5.12-.23-.48-.37-1.3-.71-1.39-1.86-.49-3.8-.71-5.66-1.21-2.09-.57-2.8,0-2,2.06a3,3,0,0,0,1.33,1.48C568.3,1091.59,571.87,1091.07,562,1086.57ZM870.46,147.83c.65,0,1.56.25,1.89-.07a1.92,1.92,0,0,0,0-1.86c-1-1.45-2.28-3.26-3.83-.61-.21.35,1.23,1.67,12.71,9.12-2.26-2.19-4.48-4.43-6.82-6.53a2.21,2.21,0,0,0-2,0c-2.56,1.44,0-.92,0,2-.06,5.78,2.5,8.27,6.79,6.53C879.79,156.18,880.19,155.48,870.46,147.83ZM588.39,478.37c.66,0,1.57.26,1.9-.07a1.92,1.92,0,0,0,0-1.86c-1-1.45-2.28-3.26-3.83-.61-.21.36,1.24,1.67,14.93,20.15,3.4-3.4,6.85-6.82,10.23-10.31a1.59,1.59,0,0,0-.08-1.46c-.37-.57-1-1.31-1.54-1.38-6-.68-12.55,2-17.76-4.25-1.91-2.28-1.42,2.75-3.29,3.66-1,.48-4.91,3.35-1.32,4C593.93,487.49,596.92,492.1,588.39,478.37ZM285.88,591.13c-.23-.48-.37-1.3-.71-1.39-1.86-.49-3.8-.71-5.67-1.21-2.08-.57-2.79,0-2,2.06a3,3,0,0,0,1.32,1.48c3,1.5,6.6,1-16.74-3.52,4.4,0,8.81-.23,13.18.1,2.24.17,3-.12,2.16-2.28a3,3,0,0,0-1.52-1.53c-4.44-1.67-10.41,1.08-13.44-4.68-5.81-.14-11.61-.39-17.41-.3-.81,0-1.66,1.61-2.31,2.59-.08.12.89,1.07,1.48,1.48,2.28,1.57,3.17,5,6.88,4.68S258.4,588.55,285.88,591.13Zm99.88,6.24a19.33,19.33,0,0,1,4.17,0c2.14.49,2.86-.07,2.07-2.13-.23-.6-.87-1.42-1.37-1.46q-5-.41-10-.44c-.49,0-1.47,1.27-1.4,1.36.68.94,1.38,2.18,2.36,2.51,1.24.43,2.75.11,10.42.11-.5,2.77,1.19,4.21,3.47,4.32,5.11.27,10.23.09,15.35.09s10.38.73,15.31-.23c4.2-.82,7.73,8.6,11.87.51,2.8,1.83,4.73,4.82,9,4.27,5-.64,10.22-.15,15.33-.15h15.36c5.12,0,10.4.81,15.31-.21,5.85-1.21,8.81,4.22,13.58,4.53,5.82.38,11.69.09,17.54.09s11.89-.92,17.49.27c5.25,1.11,9.58,4.47,15.78,4.39,40.94-.49,81.88-.25,122.83-.25,2.92,0,6.9,1.23,8.6-.21,9-7.68,19.4-3,29.07-4.08,5.77-.65,11.68-.1,17.53-.12,5.12,0,5.12,0,22-1.83-.23-.48-.38-1.3-.71-1.39-1.87-.5-3.81-.71-5.67-1.21-2.08-.57-2.8,0-2,2.06a2.94,2.94,0,0,0,1.32,1.48c3,1.5,6.59,1-1.36-3.52-2.8-5-4.5-6.25-7.28-3.3-3.72,4-8.34,4.44-11.79,2.94-3.86-1.66-6.52-5.17-9.69.36-5.13,0-10.29-.32-15.38.1-4.59.38-8.24-.82-11.24-4.21-3.3,5.56-8.8,3.69-13.68,4.17-3.38.34-5-2.2-7.4-3.48s-5.63-1.26-8.33-.8c-1.83.32-3.49,3.58-5,3.41-2.36-.26-4.46-3.26-6.78-3.42-7.3-.48-14.64-.17-22-.17H601.93c-7-7.86-16.33-3.21-24.56-4.33-3.6-.49-8.33-1.49-10.74.25-3.73,2.67-6.94,4.31-11.6,4.18-11-.32-22-.24-33,0-5.14.09-9.93.25-13.74-4.31-.81-1-4.13-.62-5.73,1.56-.71,1-2,1.49-3.06,2.22-4.09-6.26-10.46-3.79-15.94-3.85-19.05-.23-38.09-.07-57.14-.12a19.11,19.11,0,0,1-6.3-.7c-.87-.32-1.16-2.32-1.68-3.57s-.81-3.49-1.5-3.61c-2.74-.49-3.06,1.6-2.91,3.74.2,2.68-1.29,4.09-3.71,4.11-3.47,0-7.31,1.17-9.93-2.53-2.27-3.23-3.17.3-4.65,1C394.56,596.39,393.28,596.85,385.76,597.37Zm557.68,423.09c12.47,0,25-.93,37.38.36,7.34.76,11.58-4.61,17.77-5.46,2.13-.29,2.16-2.68.15-2.86-6.52-.58-9.61-5.69-13.74-9.47-7.09.59-9.91-5.44-13.58-9.49-3.48-3.84-7.27-4.06-11.68-4-2.79.07-7.65.8-7.59-2.09.18-8.93-5.83-6.1-10.38-6.73-6-.84-10.65,2.2-15.94,4.06a29.71,29.71,0,0,1-17.37.07c-7-2.13-9.85,5.6-15.9,4.84-4.33-.54-8.79-.11-13.19-.11s-9,.75-13.17-.18c-5.3-1.19-7,4.71-11.43,4.62-5.13-.11-10.27,0-15.4,0-5.88,0-11.76-.27-17.61.08-4.93.3-10.72-2.27-14.63,1.61-5.23,5.18-11.11,2-16.59,2.55-7.24.75-14.6.31-21.9.39-5.58,7.13-13.42,3.68-20.29,4.05-9.51.53-19.08.3-28.61,0-3.35-.09-5.4,1.38-7.34,3.64-.94,1.08-2,2.08-3,3.12,1.17.71,2.32,2,3.52,2,6.6.21,13.2.1,19.81.1,7.33,0,14.83,1,22-.27s11.81,4.27,18,4.62c5.12.29,10.41.8,15.37-.14,5.78-1.09,8.94,4,13.64,4.45,5.55.46,11.81,1.87,15.77-4.25h11c4.41,0,8.81,0,13.21,0,3.66,0,8.92-1.43,10.64.41,3.87,4.17,6.4,2.66,9.66.22,2.73,4.25,4.6,2.06,8,.12,3.22-1.85,7.88-1.74,11.87,1.78s9.31,3.62,13.28-1.13c1.33-1.6,2-1.65,3.19.26,1.78,2.86,4.65,2.81,7.64,2.79C918.49,1020.41,931,1020.46,943.44,1020.46ZM856.93,385.82c7.28,0,14.57.07,21.85-.13.61,0,1.32-1.76,1.65-2.81.1-.3-.94-1.4-1.47-1.4-13.11-.08-26.22-.11-39.34.06-.59,0-1.31,1.77-1.65,2.82-.1.29.94,1.39,1.47,1.4C845.27,385.86,851.1,385.82,856.93,385.82Zm-416.3-83.74A24,24,0,0,0,445,302a19.31,19.31,0,0,0,3.67-1.45c-.55-1-.88-2.27-1.69-3-2-1.76-3.22-4.67-6.76-4.38s-7.14-.07-10.68.19c-.54,0-1.61,2.39-1.29,2.82C431.31,300.31,435,303.41,440.63,302.08ZM349.69,596.91l2.68-1.75c-1.13-.73-2.21-2-3.4-2.11-4.19-.44-8.42-.49-12.63-.7-4.2-6.4-6.38-.7-9.11,1.54-.46.38-1.11,1.12-1,1.48.2.6.92,1.47,1.43,1.48C334.78,597,341.88,596.91,349.69,596.91Zm-48-3.95c4.35,0,8.71.11,13-.13.6,0,1.25-1.79,1.55-2.85.08-.31-.95-1.36-1.48-1.36-7.25-.1-14.5-.13-21.74.06-.57,0-1.25,1.8-1.54,2.85-.09.32.93,1.34,1.48,1.37C295.88,593,298.79,593,301.68,593Zm425.2,193.92c3.62,0,7.24.15,10.84-.13.67,0,1.36-1.73,1.72-2.78.1-.3-.92-1.42-1.44-1.43-5.78-.11-11.57-.16-17.35.06-.63,0-1.36,1.74-1.72,2.78-.1.3.9,1.39,1.45,1.43C722.53,787,724.71,786.88,726.88,786.88ZM522.05,187.49c6.07,0,6.5-.31,6.57-5.42a33.07,33.07,0,0,0-.63-6.19,2.21,2.21,0,0,0-1.48-1.43c-.42-.07-1.27.72-1.45,1.28-1.2,3.72-.67,9-7.34,7.49-.28-.06-1.17,1.8-1.43,2.85-.08.33.89,1.28,1.47,1.36A30.63,30.63,0,0,0,522.05,187.49ZM537.64,310.9c3.62,0,7.24.06,10.85-.07.53,0,1.54-1.13,1.44-1.43-.36-1-1.08-2.76-1.72-2.78-5.78-.22-11.56-.17-17.35-.06-.52,0-1.54,1.13-1.44,1.43.36,1,1,2.64,1.74,2.78A37.8,37.8,0,0,0,537.64,310.9Zm105.78,762.45c3.61,0,7.23.06,10.84-.07.53,0,1.55-1.13,1.44-1.43-.35-1-1.08-2.76-1.71-2.78-5.78-.21-11.57-.16-17.35-.06-.52,0-1.55,1.14-1.44,1.44.36,1,1,2.63,1.73,2.77A36.92,36.92,0,0,0,643.42,1073.35Zm204.9-806.53c2.89,0,5.79.08,8.67-.06.54,0,1.55-1.14,1.45-1.44-.36-1-1.08-2.75-1.72-2.78-5.78-.21-11.57-.16-17.35-.06-.52,0-1.54,1.14-1.44,1.44.36,1,1,2.7,1.73,2.77A78.1,78.1,0,0,0,848.32,266.82ZM550.8,205.12c3.61,0,7.23.06,10.84-.06.54,0,1.56-1.08,1.46-1.39-.31-1-1-2.8-1.6-2.83-5.77-.21-11.56-.16-17.35-.06-.52,0-1.55,1.08-1.46,1.39.32,1.05.91,2.69,1.62,2.82A36.92,36.92,0,0,0,550.8,205.12Zm273.25,13.22c3.61,0,7.23.07,10.84-.06.54,0,1.56-1.08,1.46-1.39-.31-1-1-2.8-1.6-2.82-5.77-.22-11.56-.17-17.35-.07-.52,0-1.55,1.08-1.46,1.39.32,1.05.91,2.69,1.62,2.82A36.92,36.92,0,0,0,824.05,218.34Zm-138.93-4.4a80,80,0,0,0,8.63-.14c.64-.07,1.26-1.78,1.56-2.83.09-.32-.94-1.36-1.47-1.37-4.32-.12-8.65-.18-13,.06-.6,0-1.25,1.79-1.55,2.83-.09.32.9,1.3,1.47,1.38A29.58,29.58,0,0,0,685.12,213.94ZM819.66,385.82c2.16,0,4.33.1,6.48-.07.55,0,1.54-1.12,1.44-1.43-.35-1-1.05-2.74-1.69-2.78-4.31-.25-8.64-.18-13-.06-.53,0-1.54,1.12-1.44,1.43.35,1,1,2.64,1.71,2.78A36.58,36.58,0,0,0,819.66,385.82ZM513.4,200.72c2.88,0,5.77.07,8.64-.07.54,0,1.54-1.13,1.44-1.43-.35-1-1.05-2.75-1.69-2.78-4.31-.25-8.64-.18-13-.06-.53,0-1.54,1.12-1.44,1.43.35,1,.9,2.47,1.73,2.78C510.39,201.06,512,200.72,513.4,200.72Zm94.63,141c2.16,0,4.33.1,6.48-.07.55,0,1.55-1.06,1.47-1.37-.3-1.05-1-2.8-1.56-2.84-4.3-.24-8.64-.18-13-.06-.53,0-1.55,1-1.46,1.37.3,1.05.87,2.71,1.57,2.83A36.56,36.56,0,0,0,608,341.75ZM834.52,518c3.73,0,5.93.25,8-.1,1.23-.2,2.29-1.37,3.43-2.11-1.14-.73-2.27-2.08-3.41-2.09-4.23,0-8.46.29-12.68.63a2.06,2.06,0,0,0-1.43,1.46c0,.51.84,1.34,1.43,1.47C831.92,517.76,834,518,834.52,518ZM764.36,328.53a77.51,77.51,0,0,0,8.63-.14c.7-.07,1.36-1.73,1.7-2.77.11-.31-.91-1.42-1.43-1.43-4.32-.12-8.65-.19-13,.06-.65,0-1.35,1.74-1.7,2.78-.1.3.88,1.34,1.45,1.43A29.47,29.47,0,0,0,764.36,328.53ZM634.58,513.63,630.9,515a13.13,13.13,0,0,0,1.29,3,28.09,28.09,0,0,0,2.95,3l1.5,1.49c.73-1.1,2-2.15,2.11-3.33C639.23,515.3,638,513.86,634.58,513.63ZM694,319.71c-1.43,0-3-.35-4.25.12-.83.31-1.36,1.76-1.69,2.8-.1.31.9,1.39,1.43,1.42a54.59,54.59,0,0,0,8.58-.06c.67-.08,1.32-1.75,1.65-2.79.1-.31-.86-1.33-1.43-1.42A29.2,29.2,0,0,0,694,319.71ZM508.72,306.49c1.43,0,3,.35,4.25-.12.82-.31,1.36-1.76,1.69-2.8.1-.31-.9-1.39-1.43-1.42a54.59,54.59,0,0,0-8.58.06c-.68.08-1.33,1.75-1.66,2.79-.1.31.87,1.33,1.44,1.42A29.17,29.17,0,0,0,508.72,306.49Zm-75.29-22c2.26,0,3.09.23,3.67,0a32.07,32.07,0,0,0,3.41-2.16c-1.13-.73-2.23-2-3.39-2.09a48.34,48.34,0,0,0-8.3.63,2.1,2.1,0,0,0-1.42,1.46c0,.51.83,1.33,1.42,1.46A45.42,45.42,0,0,0,433.43,284.45Zm181.65-79.33c-2.27,0-3.1-.23-3.68,0a30.55,30.55,0,0,0-3.41,2.16c1.13.73,2.23,2,3.39,2.09a47.3,47.3,0,0,0,8.3-.64,2.07,2.07,0,0,0,1.42-1.45c0-.51-.83-1.33-1.42-1.47C617.67,205.41,615.6,205.2,615.08,205.12Zm-124-4.4c1.43,0,3,.34,4.25-.13.83-.31,1.36-1.75,1.69-2.79.1-.32-.9-1.4-1.43-1.42a53.41,53.41,0,0,0-8.58.06c-.68.08-1.33,1.74-1.66,2.79-.1.31.87,1.33,1.44,1.42A29.2,29.2,0,0,0,491.09,200.72Zm150.44,550.9c-2.28,0-3.1-.23-3.69,0a31.49,31.49,0,0,0-3.41,2.16c1.13.73,2.23,2,3.39,2.09a47.49,47.49,0,0,0,8.31-.64,2.07,2.07,0,0,0,1.41-1.45c0-.51-.83-1.33-1.42-1.47C644.11,751.91,642.05,751.7,641.53,751.62Zm312.54-617c-1.44,0-3-.35-4.26.12-.82.31-1.36,1.75-1.68,2.79-.1.32.89,1.4,1.42,1.43a54.59,54.59,0,0,0,8.58-.07c.68-.07,1.33-1.74,1.66-2.78.1-.32-.86-1.34-1.44-1.42A27.75,27.75,0,0,0,954.07,134.61ZM687.44,985.2c1.17-.49,2.41-.94,3.56-1.56.18-.09.14-1.08-.11-1.42-1.64-2.21-6.5-2.26-7.14.12S685.25,985.39,687.44,985.2Zm-114.59,88.14c1.17-.49,2.41-.93,3.56-1.55.18-.1.14-1.08-.11-1.43-1.64-2.2-6.5-2.26-7.14.13S570.66,1073.54,572.85,1073.34Zm-208-477.48c0-.5.12-1.14-.14-1.48-1.64-2.21-6-2.14-7.24.1a1.69,1.69,0,0,0,.1,1.47C359.25,598.16,363.6,598.07,364.89,595.86Zm436.32-379c0-.5.11-1.14-.14-1.48-1.64-2.21-6-2.15-7.24.1a1.64,1.64,0,0,0,.1,1.46C795.57,219.13,799.92,219.05,801.21,216.84Zm70.52,4.41c0-.5.11-1.14-.14-1.49-1.64-2.2-6-2.14-7.25.11a1.64,1.64,0,0,0,.11,1.46C866.09,223.54,870.43,223.46,871.73,221.25Zm-211.55,4.4c0-.5.11-1.14-.14-1.48-1.64-2.21-6-2.14-7.25.11a1.64,1.64,0,0,0,.11,1.46C654.54,228,658.88,227.86,660.18,225.65Zm1.05,10.87-2.56-5c-.73,1.82-1.84,3.6-2,5.48-.11,1,1.32,2.22,2,3.33C659.41,239.27,660.14,238.15,661.23,236.52Zm-159.71,2.36c0-.51.11-1.15-.14-1.49-1.64-2.21-6-2.14-7.25.11a1.64,1.64,0,0,0,.11,1.46C495.88,241.17,500.22,241.09,501.52,238.88Zm181.93,36.41-5,2.55c1.83.74,3.61,1.85,5.49,2.06,1,.11,2.22-1.32,3.33-2.06Zm-48.9,44.41c1.17-.49,2.41-.93,3.56-1.55.18-.1.15-1.09-.11-1.43-1.64-2.2-6.5-2.26-7.14.13S632.36,319.9,634.55,319.7Zm25.63-2.89c-1.29-2.21-5.64-2.29-7.28-.09a1.66,1.66,0,0,0-.11,1.47c1.23,2.24,5.61,2.31,7.25.1C660.29,318,660.14,317.31,660.18,316.81ZM475.07,330c-1.29-2.21-5.64-2.29-7.28-.08a1.67,1.67,0,0,0-.1,1.46c1.22,2.25,5.6,2.31,7.24.1C475.19,331.17,475,330.53,475.07,330Zm441.55,55.78c1.17-.49,2.4-.94,3.56-1.55.18-.1.14-1.09-.11-1.43-1.64-2.21-6.5-2.26-7.14.13S914.43,386,916.62,385.81ZM787.18,512.93l1.51-1.5c-.51-.5-.92-1.26-1.53-1.45a8.28,8.28,0,0,0-3.92-.65c-1.22.25-2.25,1.36-3.37,2.1,1.12.73,2.15,1.85,3.37,2.09S785.86,513.17,787.18,512.93ZM566.82,464.45l1.5-1.5c-.5-.5-.92-1.26-1.52-1.45a8.3,8.3,0,0,0-3.93-.65c-1.21.25-2.25,1.36-3.36,2.1,1.11.73,2.15,1.85,3.36,2.09S565.5,464.69,566.82,464.45Zm88.95,41.87c-1.29-2.21-5.64-2.29-7.28-.08a1.64,1.64,0,0,0-.1,1.46c1.22,2.25,5.6,2.31,7.24.1C655.89,507.46,655.73,506.82,655.77,506.32Zm-61.7-7.42c0-.5.11-1.14-.14-1.48-1.64-2.21-6-2.14-7.24.1a1.65,1.65,0,0,0,.1,1.47C588.43,501.2,592.78,501.11,594.07,498.9Zm100.56,9.62c2.21-1.29,2.29-5.63.08-7.27a1.64,1.64,0,0,0-1.46-.11c-2.25,1.23-2.31,5.61-.1,7.25C693.49,508.64,694.13,508.49,694.63,508.52Zm-11.08-.86,1.57,1.56a13.63,13.63,0,0,0,1.37-3c.08-.36-.88-.95-1.37-1.44Zm28.65-2.21L709.36,507c.49.49,1.08,1.46,1.44,1.38a13.67,13.67,0,0,0,3-1.38ZM649.86,474c-.49.48-1.46,1.08-1.38,1.44a13.67,13.67,0,0,0,1.38,3c.49-.49,1.46-1.08,1.38-1.45A13.6,13.6,0,0,0,649.86,474Zm-7.25-1.57L641,469.56c-.49.49-1.46,1.08-1.37,1.45a13.85,13.85,0,0,0,1.37,3Zm87.21,37.46L727,511.43c.49.49,1.09,1.46,1.45,1.37a13.63,13.63,0,0,0,3-1.37Zm-480.39-119-2.84,1.57c.49.49,1.09,1.46,1.45,1.38a13.67,13.67,0,0,0,3-1.38ZM778.3,526.22l1.57-1.57a13.67,13.67,0,0,0-3-1.38c-.36-.08-1,.89-1.45,1.38Zm-29.92,3.47-1.56-2.84c-.49.49-1.46,1.09-1.38,1.45a13.67,13.67,0,0,0,1.38,3Zm-119-167.48-1.57-2.83c-.49.49-1.46,1.08-1.38,1.45a13.82,13.82,0,0,0,1.38,2.95Zm29.28-24.87c-.49.49-1.46,1.08-1.38,1.45a14.16,14.16,0,0,0,1.38,3c.49-.49,1.46-1.09,1.38-1.45A13.67,13.67,0,0,0,658.67,337.34Zm-99.8,1.57-1.56-1.57a13.67,13.67,0,0,0-1.38,3c-.08.36.89,1,1.38,1.45C557.83,340.79,558.36,339.83,558.87,338.91Zm-141-60.43-1.57-2.84c-.49.49-1.46,1.09-1.37,1.45a13.85,13.85,0,0,0,1.37,3Zm138.83-6.61-1.57,1.57a14.11,14.11,0,0,0,3,1.37c.36.08,1-.89,1.45-1.37ZM443.35,261.78l1.57-1.57a13.63,13.63,0,0,0-3-1.37c-.36-.09-1,.88-1.45,1.37Zm198.33-7.54-2.84,1.57c.49.49,1.09,1.46,1.45,1.37a13.63,13.63,0,0,0,3-1.37Zm41.87-25.51,1.57,2.84c.49-.49,1.45-1.09,1.37-1.45a13.63,13.63,0,0,0-1.37-3Zm89.71-14.79c-.49.49-1.46,1.08-1.38,1.45a13.6,13.6,0,0,0,1.38,3c.49-.48,1.46-1.08,1.38-1.44A13.67,13.67,0,0,0,773.26,213.94ZM670.33,211.1c.51.92,1,1.88,1.56,2.84.49-.49,1.46-1.09,1.38-1.45a13.67,13.67,0,0,0-1.38-3ZM929.08,573.76l-1.57-2.84c-.48.49-1.45,1.09-1.37,1.45a14.11,14.11,0,0,0,1.37,3Zm-717.74,3.78c-.49-.49-1.09-1.46-1.45-1.38a13.67,13.67,0,0,0-3,1.38c.49.49,1.09,1.45,1.45,1.37A13.85,13.85,0,0,0,211.34,577.54ZM571.16,183.72l-2.84,1.57c.49.49,1.09,1.46,1.45,1.38a13.67,13.67,0,0,0,3-1.38Zm-9.45-22.67c-.49.49-1.46,1.09-1.38,1.45a14.16,14.16,0,0,0,1.38,3c.49-.49,1.46-1.09,1.38-1.45A13.67,13.67,0,0,0,561.71,161.05Zm-167.47-4.41c-.49.49-1.46,1.09-1.38,1.45a13.67,13.67,0,0,0,1.38,3c.49-.49,1.46-1.09,1.37-1.45A13.63,13.63,0,0,0,394.24,156.64Zm80,435.69,1.57-1.57a13.67,13.67,0,0,0-3-1.38c-.36-.08-1,.89-1.45,1.38ZM373.77,595.8,372.2,593c-.49.49-1.46,1.09-1.38,1.45a13.67,13.67,0,0,0,1.38,3Zm294.35,473.78-2.84,1.57c.49.49,1.09,1.46,1.45,1.38a13.67,13.67,0,0,0,3-1.38Zm25.17-26.44-1.56,1.56a13.67,13.67,0,0,0,3,1.38c.36.08.95-.89,1.44-1.38Zm-30.85-27.72,2.84-1.57c-.49-.49-1.08-1.46-1.45-1.37a13.77,13.77,0,0,0-3,1.37Zm143.24-41.87L804.11,972a13.89,13.89,0,0,0-1.38,3c-.08.37.89,1,1.38,1.45ZM749.66,784c.51.92,1,1.88,1.56,2.84.49-.49,1.46-1.09,1.38-1.45a14.11,14.11,0,0,0-1.37-3ZM738,654.66c-.49.49-1.46,1.09-1.38,1.45a14.16,14.16,0,0,0,1.38,3c.49-.49,1.46-1.09,1.38-1.45A13.67,13.67,0,0,0,738,654.66ZM479.54,286,478,284.45a14.11,14.11,0,0,0-1.37,3c-.08.36.89,1,1.37,1.45Z"/><path d="M592.8,200.72c-.68-.87-2.12-2.19-1.91-2.54,1.55-2.66,2.81-.84,3.83.6a1.94,1.94,0,0,1,0,1.86C594.37,201,593.46,200.72,592.8,200.72Z"/></svg>