<svg id="Layer_1" data-name="Layer 1" xmlns="http://www.w3.org/2000/svg" viewBox="0 0 1200 1200"><title>BB_Artboard 106</title><path d="M479.85,681.86c6.72-.55,2.65-8.15,6.73-9.93,6.48-2.83,5.67-11,10.5-15.16.73-.64-.4-3.27.33-4.08,3.87-4.27,8.73-7.79,11.95-12.46,3-4.3,3-11,6.57-14.37,6.82-6.51,9-15.22,13.48-22.73,6.62-11,9.7-24,19.7-33,.36-.32,0-1.4,0-2.11.29-4.23,6.12-6.07,4.76-11,5.72-3,2.5-9.09,4.7-13.19,2-3.65,7.51-5.11,7.68-9.75s6.41-6.16,4.51-11.18c4.15-2.69,4.9-6.68,4.34-11.2-.49-3.92,5.27-4.73,4.42-9-.39-2-.6-4.83.48-6.18,5.27-6.6,6.8-14.47,9.43-22.15,2.36-6.9,8.21-12.58,7.32-20.75,4.25-2.21,3.16-7.78,6.18-10.34,4.13-3.52.69-8.68,3.15-11.69,2.33-2.85,2.87-6.19,4.58-9,2.2-3.57,6.66-1.52,10-1.43,4.82.13,9.74-1.46,14.55,1.33,5.39,3.13,11,5.8,15,10.78a76.78,76.78,0,0,0,6.09,6.15c1.08,1.06.76,2-.92,3.08-2.87,1.88-2.89,5-2.26,7.65,1.77,7.44-2.54,13.35-4.42,19.87-7,4-1.31,14.17-8.62,18.08,2.87,8.19-7.35,13.75-4.39,22,2,5.5-6.27,7.4-4.55,13.41,1.08,3.79,1.24,8.44-3.15,11.65-1.16.84-.87,3.92-.91,6a22.27,22.27,0,0,1-3.38,11.68c-3.28,5.55-6.68,11.88-5.5,19.39.73,4.7-6,7.56-4.28,13.37,1.34,4.38-1.59,7.61-3.87,11.36S612.07,607.09,608,611c-3.89,3.73-1.91,8-2.49,12-.2,1.37.15,3.65-.53,4-6.42,3.3-1.39,11.11-6.07,14.9-2.32,1.88-1.61,3.51.59,4.16,1.92.57,5.21.57,5.48-1.76.44-3.84,3.84-6.26,4.34-9,.72-3.9,4.4-6.26,4.46-8.93.12-5.41,4-7.4,6.79-10.27,3-3.06,1.69-8.4,6-10.54-1-4.82,4.73-6.89,4.73-11,0-4.53,6.41-6.16,4.48-11.19,6.5-5.5,9.84-12.89,13.14-20.53,3.17-7.36,7.82-14.06,11.21-21.34S666.81,527,670.58,520c2.53-4.72,5.5-9.56,7.48-14.24s2.4-10.33,5.29-15.14c2.39-4,3.29-9,6.13-12.52,3.09-3.83,2.72-9.37,7-12.34-1.11-5.28,1.67-9.18,4.2-13.43,2.37-4,2.73-9.47,5.73-12.62,3.52-3.71,2.21-9.91,7.39-12.23-.48-5.07-.42-10,4.34-13.35-2.3-7.81,5.25-11,7.43-16.4,2.26-5.63,4.29-7.83,10.09-7.14,3.56.42,7.21,0,10.81.1,2.05.05,4.47-.76,5.79,1.64,4,7.18,14.19,6.39,17.78,13.91.56,1.18-.25,2.94.13,4.28,1.57,5.51-6.52,7.49-4.51,13.41,1.73,5.08-2.65,9-3.8,13.42-1.2,4.65-6.4,7.41-5,13.31,1.16,4.69-5.65,7.5-4.45,13.37.53,2.6-3,5.83-3.86,9-.7,2.7-.41,5.76-.07,8.61s-2.2,3.47-3.08,5.26c-2,4.18-5.65,8.72-5.22,12.75.63,5.87-5.49,8.27-4.76,13.41.93,6.49-7.17,10.74-4.34,17.68-3.9,3.66-5.09,8.15-4.35,13.36.84,6-4.61,9.61-6,14.84-.48,1.78-3.17,2.79-2.66,5.38,1.3,6.55-2.86,11.88-3.91,17.76-.78,4.42-3.49,7.42-4.49,11.18-1.09,4,.57,8.8-.44,12.87-1.45,5.82-4.78,11.09-5.3,17.3-.09,1.1-2.36,1.87-2.85,3.11-2,5.12,2,11-3,16.18-4.36,4.51-.62,11-1.69,17.53.67-1,0-1.74-2-1a2.63,2.63,0,0,0-1.43,1.31,8,8,0,0,0-.8,3.65c.16,1.16,1.1,2.21,1.7,3.3.85-.75,2.1-1.35,2.43-2.28.43-1.19.11-2.65.11-5,1.22-1.51,3.23-1.72,3.55-2.56,2.87-7.65,5.79-15.18,12.18-20.79a5.29,5.29,0,0,0,1.51-3.6c0-4.37,6.15-6.11,4.57-11,3-3,6-6.16,9.14-9.09,3-2.78,5.09-6.66,10.38-6.32,2,.12,1.8-3.28,2.1-5.36.14-.94,1.55-1.73,2.48-2.45.07-.06,1.42,1,1.39,1.44-.41,7.41,3.1,15.22-3.58,22-1.8,1.85-.94,7-.24,10.4.65,3.14,2.72,6,4.17,14.38,0,2.52-.28-.4.08-3.23.29-2.21-.11-3-2.23-2.13a2.82,2.82,0,0,0-1.5,1.5,65.12,65.12,0,0,1-7.83,16.13c-2.18,3.3.13,3.35,1.68,3.9,1.28.45,2.85.1,4.29.09,3,0,5.78-.21,5.53-4.39-.13-2.15,0-4.32,0-11.87,2.45-6.92,1.1-2.71,2.2-5.38.25-.62,1.21-.95,1.46-1.56,2.57-6.55-2.29-14.32,3.13-20.34,5-5.53-2-14.59,6-19.37,1-.58,0-4.1.28-6.23.55-4.72-1.83-9.9,2.84-14,3.85-3.38-.87-9.62,4.49-13.42,3.83-2.71-.76-9.37,4.54-13.32,3.46-2.58-1.17-10.08,4.81-12.95.2-5-.57-10.24.84-14.84,2-6.57,5.67-12.65,4.1-19.93,5.55-4,3.71-10.06,4.51-15.5.46-3.16,3-5.95,4.07-9.09.88-2.53-1.18-5.82,1.79-7.92,2.72-1.92,2.74-4.65,2.67-7.58s-.8-7.36.56-8.19c6.12-3.74,1.21-11.42,6-15s-.52-9.82,4.44-13.46c3.21-2.36,1.85-8.19,6.23-10.31-3.12-7,5.36-11.15,4.43-17.67-.19-1.38-.38-3.09.24-4.2,2.63-4.71,6.58-8.95,8.09-13.95,1.4-4.63-.56-10.22.58-15a28,28,0,0,1,5.4-10.55c2.17-2.61,7.06-3.3,10.47-5.63.94-.65,4.13.71,5.37,2,4.08,4.31,8,8,14.76,6.68,1.26-.25,3,3.52,4.75,3.75,3.78.5,7.07.54,6.65,5.74-.4,4.93-.53,9.89-.78,14.84-6.08,2.85-1.43,9.72-4.74,13.11-2.9,3-3.5,6-3.16,9.59.42,4.49-1,7.79-4,11.47-2.2,2.67.73,7.8-3.16,11.68-3.69,3.68.46,11.43-5.83,14.78,1.75,8-6.19,13.73-4.62,22.08,1,5.12-6.73,9.15-4,15.47-3.91,3.66-5.18,8.17-4.34,13.37-4.8,3.36-4.39,8.3-4.56,13.34-.06,1.62-3,3-4,4.79-.57,1-.07,2.77.19,4.14.44,2.28,2.18,1.95,4.58-.8.94-1.09,2.83-2,2.92-3.09,1-12.63,9.42-22.12,13.9-33.26,1.74-4.33,4-8.46,6.15-12.61s6.18-8.15,6.38-12.36c.24-5.32,3.5-8.91,4.51-13.4,1.06-4.68,6.71-7.61,4.68-13.35a4.32,4.32,0,0,1,1.3-3.65,29,29,0,0,0,9.14-13.59c1.61-5.13,4.49-9.81,7.08-14.34,3-5.23,4.3-11.77,9.75-15.49,2.66-1.82,2.11-5.14,3.36-7.22,1.77-2.95,2.87-6.37,4.62-8.88,3.52-5,8.17-9.18,10.58-15.2a6.63,6.63,0,0,1,6.79-4.21,44.42,44.42,0,0,0,10.81,0c8.92-1.47,16,2.78,23.26,6.71,8.45,4.57,8.75,4.48,8.41,11.28-.23,4.72,1.89,9.88-3.19,14-1.53,1.22-1.18,5.33-1,8a24,24,0,0,1-4.23,15.66,32.41,32.41,0,0,0-4.88,17.57c-.07,5.08-6.09,9.36-4,15.53-6.1,3.88-4.13,10-4.32,15.53s-.1,10.58-3.94,15.83c-2.83,3.86,2.17,11.36-3.9,15.57-.28,4.22-.36,8.46-.9,12.64-.43,3.39-5.36,4.75-4.32,9,.33,1.37,0,2.89.1,4.32a4.17,4.17,0,0,0,.91,1.77c1,1.43,1.65.76,3.13-.54,3.47-3.06,5.56-6.3,4.62-11.16-.87-4.55.38-8.36,4.44-11.18,1.68-1.16,4-3.11,4-4.72.12-12.35,9.68-20.65,13-31.48,1.38-4.49,6.67-7.61,4.63-13.35-.33-.94.55-2.83,1.44-3.6,10.25-8.83,11.66-22.89,19.67-33.11,2.3-2.93-1-8.11,3.09-11.75,2.86-2.55,2.17-7.92,6-10.39,1.35-9.86,9.81-12.19,16.7-16.69,6.21-4,12.51-2.46,18.52-2.06,4.27.29,8.55,3.66,12.39,6.28,2.93,2,5,5.17,7.77,7.51,4.88,4.17,8.41,8.18,1.46,13.66-.76.6-.87,2.84-.45,4,2.52,7-4.36,11.49-4.41,17.73-3.87,2.79-4.78,6.6-4.41,11.2.35,4.25-6.05,6.15-4.27,11.2,1.72,4.89-5.19,6.5-4.35,11.19.68,3.76-.82,6.55-3.47,9.45s.91,8.16-3.06,11.75c-2.33,2.09-3.18,5.8-4.75,8.76-2.17,4.1-2.75,4.63-.18,7.27,4,4,3.45,6.74-.18,10.72-2.92,3.2-1.71,6.18,2.68,7.34,2.24.59,4.66,1.14,4.5,3.22-.38,4.77,2.62,10.33-2,14.2-4.09,3.39.14,9.06-3.15,11.61-4.27,3.3-2.19,10-7.51,12.18,1.67,5-4.6,6.7-4.51,11.15.09,4.27-6.14,6-4.67,11-3.09,2.3-4.66,5.26-3.94,9.19,1.4,7.6-4.42,12.63-7,18.78-1.5,3.63-7.33,5-6,10.49-4.1,2.7-4.59,6.66-4.51,11.2,0,1.7-1.83,3.55-3.09,5.12s-3.52,2.86-4.41,4.7a8,8,0,0,0-.17,5.74c1,2.55,3.93,1.92,5.67,1.3s3-3.61,4.82-3.94c6.15-1.13,13,1.9,18.61-2.12,6-4.29,12.46-2.4,18.52-2.11,6.68.33,10.57-6.62,17.78-4.86,5.45,1.33,11.48.26,17.25.26,6.32-6.68,14.52-3.73,22-4.33,5.16-8.83,17.23.17,22.39-8.66,7.94,0,15.89.14,23.82-.09,2.73-.07,3.7,1.85,5.18,3.24,2.63,2.47,4.9,5.38,7.74,7.54,2.59,2,7.65,2.69,8.25,4.88,1.28,4.7.5,10,.31,15a6.1,6.1,0,0,1-1.7,3.57c-4,4.18-7.47,9.64-12.39,11.9-5.3,2.44-11.39,3.72-17.1,5.69-3.23,1.11-7.31.88-10.73.07-9.63-2.28-17,5.6-26,5.34-3.61,6.45-12.75.57-16.62,7.48-.71,1.26-5.43.3-8.3.29s-5.87-.64-6.67,3.26c-.7,3.38,2.33,4.81,3.7,7.14,2.29,3.92,11.37.47,9.28,8.76,3.49,3.6,7,7.17,10.46,10.83a10.48,10.48,0,0,1,.48,13.25c-2.47,3.25-7.39,4.88-6.68,10.26.07.54-12.92,7.32-13.88,7.11-9.4-2.08-16.67,7.31-26.45,4.68-2.53-.68-4.63,5.06-9,4.09-2.9-.65-5.65,0-7.54,2.66-.4.59-.94,1.38-1.52,1.49-4.79.9-10.58-2-14.34,1.76s-8.13,3.14-11.94,2.46c-5.71-1-7.43,6.39-13.47,4.81-4.72-1.23-10-.3-15.09-.22-3.63,0-4.71,5-9.05,4.45a30.91,30.91,0,0,0-10.48.71c-1.84.4-3.22,3-5.06,3.35-6.06,1.32-12.53-1.78-18.5,2.51-5.59,4-12.45,2-18.64,1.73-6-.29-9.22,5.93-15.58,4.79-5.31-.94-11.37-1.74-15.68,4-.8,1-4.14.13-6.3.15l-23.74.2c-5.48,7-13.74,1.9-19.78,4.5a88.11,88.11,0,0,1-15.33,5c-2.28.52-4,3.26-7.22,3.49-5.44.38-11.49-2.31-16.27,2.37-4.14,4.05-12-1.13-14.81,6.11-4,.59-8.35-1.43-11.86,3-3.12,3.9-10.28-1.41-13.11,4.7-4.19.35-8.38.71-12.57,1-3.57.28-4.78,5.56-9,4.33-4.88-1.42-7.34,3.58-11.23,4.19-4.23.67-9-1-12.88.41a146,146,0,0,1-17.23,5.45c-1.19.26-1.93,2.59-3.11,2.84-4.77,1-10.46-2-14.37,1.78-4.45,4.34-9.63,3.12-14.08,2.38-6.38-1.07-9.54,5.28-15.59,4.85-5.3-.37-11.57-2.71-15.93,3.27-.59.8-2.57.68-3.92.81-9.59.92-19.85-2.68-28.55,4.31-.44.35-1.41,0-2.13,0-5.05,0-10.22.67-15.13-.17-5.61-1-8.88,3.33-13.41,4.43-9.36,2.26-20.12-4.47-28.5,4.41H486.33c-17.32,0-34.66-.52-52,.21-8.81.38-18.72-4.28-26.36,4.12-6.72-1.36-14.45,3.47-20.28-3.32-4.91-.34-9.85-1.17-14.73-.92-14.09.71-24.94-6.34-35.14-14.49-7.28-5.81-7-6.06-23.33-11.76-3-1.07-5.32-4.33-8-6.57,1.8-5-4.9-6.58-4.42-11.21.25-2.37-1.34-3.83-3.95-3.72-.72,0-1.44,0-2.16,0-6.5,0-13.12-.8-19.46.22S266.91,793,261,793.41a130.45,130.45,0,0,1-19.47,0c-4.66-.35-7.69-5.66-13.41-4.4-4.13.92-9.17,1.45-12.82-.13-4.83-2.08-9.93-3.89-14.27-7.51-10.7-8.9-13.11-9.47-24.16-9.5-6.5,0-13,.21-19.48-.09-3.42-.16-7.38,1.75-10.21-1.32-2.14-2.33-5.11-2.1-7.3-3.29-3.65-2-6.13-6-9.41-8.83-2.1-1.8-1.42-3.88-1.48-5.91a95.24,95.24,0,0,1,0-10.82c.41-4.74-2.18-10.38,3-13.85,5.59-3.74,10.92-8,18.38-7.94,47.63.13,95.27.06,142.91.06,2.16,0,4.41.34,6.46-.14,1-.23,2.57-2.34,2.32-3-2.61-6.47,5.12-10.11,4.29-15.56-.78-5.07,4.07-7.17,4.45-11.23.33-3.58-.71-7.45.29-10.75.93-3.07,5-4.75,4.19-9.12-.93-4.77,1.37-9.93-2-15.43-8.67,8.67-17.29,17-25.52,25.63-6.33,6.67-15.86,7.59-22.74,13.37-1.66,1.39-7,1.27-8.14-.15-2.95-3.72-9-2.63-10.34-6s-2.22-6.43-5-8.79c2-6.14-3.43-10.38-4.06-15.56-.95-7.77-.09-15.77,0-23.67,6.61-3,1.87-10.74,6.09-14.81,1-.93,2.43-2.57,2.15-3.32-3.4-9,6.16-15.61,4.47-24.24,5.24-6.3,8-14.05,11.54-21.22,5.62-11.39,11.28-22.76,17.25-34a12.74,12.74,0,0,0,1.52-5.88c.06-1.44-.56-3.75.1-4.2,6.77-4.49,7.68-13.22,13.5-18.33,1.15-1,9.32-2.5,10.15-1.5,4.69,5.62,9.91,10,17.92,9.28.45,0,1.65,2.3,1.57,3.47-.35,4.56.2,8.69,4.56,11.12,6,3.36,1.76,6.26,0,9.54a4.54,4.54,0,0,0,.6,4c2.62,3.47,2.94-1.1,4.5-1.54a2.61,2.61,0,0,0,1.51-1.49c1.72-5.44,5.39-9.41,9-13.67,2.91-3.42,3.54-8.66,6-12.54,2.63-4.1,6.18-7.63,9.54-11.2a5.81,5.81,0,0,1,3.76-1.24c6.49-.12,13.11-.83,19.45.15,7.47,1.16,14.27,4.58,19.1,10.89-1.17,5.45,3.51,7.5,6.41,10.28,3.19,3,2.52,6.64,2.09,9.93s-6.57,6.16-.13,9.55c-4.3,3.51-4.58,8.25-4,13.24-5.23,3.22-5.13,8.5-4.17,13.33,1,5.11-5.57,6.66-4.44,11.21,1.68,6.77-7.23,10.66-4.44,17.73,2.4,6.09-5.53,9.09-4.67,15.56.67,5-6.4,9.21-3.94,15.48-5.9,3.94-4.13,10-4.33,16.55.67-1,0-1.73-2-1a2.65,2.65,0,0,0-1.43,1.3,8.09,8.09,0,0,0-.8,3.66c.16,1.15,1.1,2.2,1.7,3.3.84-.75,2.1-1.35,2.43-2.28.43-1.19.11-2.65.11-5,3.64-.48,5.27-3.61,6.58-5.69,3.17-5.06,4.9-11.14,8.11-16,3-4.52,6.59-8.54,9-13.65,4.64-9.9,8.8-20.3,18.21-27,2.24-1.61,1.84-4.07,1.31-5.87-1.67-5.74,6.67-7.62,4.78-13.23,3.75-4,7.38-7.71,9.64-13.31,1.87-4.66,7.47-7.94,8.69-13.69,6.52-4.69,8.45-12.21,11.68-18.94.59-1.2,1.09-2.82,2.11-3.39,6.65-3.7,6.1-12.57,12.15-16.66,1.17-.8,3.08-2.28,2.9-3-2.16-8.61,5.58-12.21,8.58-18.19s5.7-12,8.85-17.93c4.95-9.28,10-11.63,20.16-8.75,2.72,4.58,7.23,4,11.42,3.64a10.08,10.08,0,0,1,9.24,3.94,84.75,84.75,0,0,0,7.62,7.66c5.09,4.64,5.47,9.74,1,14.71-2.91,3.25-1,6.83-1.82,10.11-.69,2.64-4.8,3.35-4.27,6.87.69,4.55-.43,8.4-4.33,11.17,1.8,5-5.25,6.62-4.29,11.17,1,4.78-1.88,7.87-4.38,11.18,1.68,7.29-6,12.53-4.33,19.83-7,4.06-1.21,14.16-8.52,18.09,2.92,7.58-6.52,12.37-4.47,19.76-2.67,4.78-5.76,9.44-4.66,15.36-6.56,3-1.53,11.12-6.17,14.68s.57,10-4.48,13.37c-4.36,2.87.24,8.75-3.17,11.55-4.94,4-2.15,9.29-3.31,13.86-.79,3.16-3.23,5.91-4.06,9.08-.7,2.7-.14,5.73-.14,9.57,0,.33.25-.57-.07-.89a1.91,1.91,0,0,0-1.83,0c-1.43,1-3.21,2.25-.6,3.77C477.7,684.91,479,683.5,479.85,681.86ZM419.2,697.24c0-7.11-.25-10.69.09-14.2.22-2.18-.11-2.92-2.2-2.1a2.84,2.84,0,0,0-1.5,1.45c-2.86,7.54-5.74,15-11.91,20.68-2.91,2.7-2.09,7.65-5.91,10.43-2.08,1.51.3,6,2.94,6.39,5.27.74,9.49-.75,12.85-5.09,2.11-2.71,1.58-6.2,4.06-9.14,2.24-2.66,1.5-7.84,4.1-28.74a15.09,15.09,0,0,0-2.46,2.09,1.29,1.29,0,0,0,1.83,1.83,8.67,8.67,0,0,0,2-2.55C423.14,678.13,422.22,677.42,419.2,697.24Zm422.22-46.66c5.72,0,11.45.11,17.17-.06,2.4-.07,5.93-7,4.26-8.74-3-3.17-1.25-6.72-1.81-10,5.76-4.77,4.28-11.36,4.31-17.52.08-12.88.2-25.77-.08-38.64a11.13,11.13,0,0,1,4-9.2c.75-.7.46-2.66.4-4a2.94,2.94,0,0,0-1.09-1.65,2.58,2.58,0,0,0-1.44-.56c-1.91,2.82-5.25,4.13-6.33,8.14-1.37,5.11-5.74,9.38-4.27,15.36-5.29,2.21-3.53,8.56-7.3,12.17-3.05,2.93-3.29,8.58-5.63,12.51A30.94,30.94,0,0,0,839,621.57c-.45,4.24-4.4,8.06-6.57,12.19a108,108,0,0,0-5.86,12.59c-.32.85-2.35,4.45,2,4.27s8.58,0-2.15,1.89c0-.65.25-1.54-.07-1.86a1.88,1.88,0,0,0-1.83,0c-1.42,1-3.2,2.24-.6,3.77C824.24,654.59,825.54,653.17,841.42,650.58ZM536.16,683.2a8.64,8.64,0,0,0,0-2.1c-.33-1.25-.55-3.25-1.32-3.52-2.76-1-3.21,1.18-2.92,3.16.38,2.6-1.67,3.56-2.85,5.16-1.32,1.8-.45,3.52,1.72,3.66C535.1,689.84,536.17,688.59,536.16,683.2Z"/><path d="M836.68,738.16c-6.73.56-2.66,8.16-6.74,9.94-6.48,2.83-5.67,11-10.5,15.16-.73.64.4,3.27-.33,4.07-3.87,4.27-8.72,7.8-12,12.47-2.95,4.3-3,11-6.57,14.37-6.82,6.51-9,15.22-13.48,22.73-6.62,11-9.7,24-19.7,33-.36.32,0,1.39,0,2.11-.28,4.23-6.12,6.07-4.75,11-5.72,3-2.51,9.09-4.7,13.19-2,3.65-7.52,5.11-7.69,9.75s-6.41,6.16-4.51,11.18c-4.15,2.69-4.9,6.68-4.34,11.19.49,3.93-5.27,4.74-4.42,9,.4,2,.6,4.83-.48,6.18-5.27,6.6-6.79,14.47-9.43,22.15-2.36,6.89-8.21,12.58-7.32,20.75-4.24,2.21-3.16,7.77-6.17,10.34-4.13,3.52-.69,8.68-3.15,11.69-2.34,2.85-2.88,6.19-4.59,9-2.2,3.57-6.66,1.52-10,1.43-4.82-.13-9.74,1.46-14.55-1.33-5.39-3.13-11-5.8-15-10.78a78.51,78.51,0,0,0-6.09-6.15c-1.09-1.06-.77-2,.91-3.08,2.87-1.88,2.89-5,2.26-7.65-1.77-7.44,2.55-13.35,4.43-19.87,7-4,1.31-14.17,8.61-18.08-2.87-8.19,7.35-13.75,4.4-22-2-5.5,6.26-7.4,4.55-13.41-1.09-3.8-1.25-8.44,3.15-11.65,1.15-.84.86-3.92.91-6a22.26,22.26,0,0,1,3.37-11.68c3.28-5.55,6.68-11.88,5.51-19.39-.74-4.7,6-7.56,4.27-13.37-1.34-4.38,1.59-7.61,3.87-11.36s-1.93-10.18,2.18-14.12c3.88-3.72,1.9-8,2.49-12,.2-1.37-.16-3.65.52-4,6.43-3.3,1.4-11.11,6.07-14.9,2.32-1.88,1.62-3.51-.59-4.16-1.92-.57-5.21-.57-5.48,1.75-.44,3.84-3.83,6.27-4.34,9-.72,3.9-4.4,6.26-4.46,8.93-.12,5.41-4,7.4-6.79,10.27-3,3.06-1.69,8.4-6,10.54,1,4.82-4.73,6.89-4.74,11,0,4.53-6.41,6.16-4.48,11.19-6.5,5.5-9.84,12.89-13.13,20.53-3.18,7.36-7.83,14.06-11.21,21.34S649.72,893,645.94,900c-2.53,4.72-5.5,9.56-7.48,14.24s-2.4,10.33-5.29,15.14c-2.39,4-3.29,9-6.13,12.52-3.09,3.83-2.72,9.37-6.95,12.34,1.1,5.28-1.67,9.18-4.21,13.43-2.37,4-2.73,9.47-5.73,12.62-3.52,3.71-2.21,9.91-7.39,12.23.48,5.07.42,10-4.33,13.35,2.29,7.81-5.25,11-7.44,16.4-2.26,5.63-4.29,7.83-10.09,7.14-3.55-.42-7.2,0-10.81-.1-2.05,0-4.46.75-5.79-1.64-4-7.18-14.18-6.39-17.78-13.91-.56-1.18.25-2.94-.13-4.28-1.56-5.51,6.53-7.49,4.51-13.42-1.72-5.07,2.65-9,3.8-13.42,1.21-4.64,6.41-7.4,4.95-13.3-1.16-4.69,5.66-7.5,4.46-13.37-.54-2.61,3-5.83,3.85-9,.7-2.7.41-5.76.07-8.61s2.2-3.47,3.08-5.26c2.06-4.18,5.65-8.72,5.22-12.76-.63-5.86,5.49-8.27,4.76-13.4-.93-6.49,7.17-10.74,4.34-17.68,3.91-3.66,5.09-8.15,4.36-13.36-.85-6,4.6-9.61,6-14.84.47-1.78,3.16-2.79,2.65-5.38-1.3-6.55,2.86-11.88,3.91-17.76.79-4.42,3.49-7.42,4.5-11.18,1.08-4-.58-8.8.44-12.88,1.44-5.81,4.77-11.08,5.29-17.29.09-1.1,2.37-1.88,2.85-3.11,2-5.12-2-11,3-16.18,4.36-4.51.61-11,1.69-17.53-.68,1,0,1.74,2,1a2.63,2.63,0,0,0,1.43-1.31,8,8,0,0,0,.8-3.65c-.15-1.16-1.1-2.21-1.7-3.3-.84.74-2.1,1.35-2.43,2.28-.42,1.19-.1,2.65-.1,5-1.23,1.51-3.24,1.72-3.55,2.56-2.88,7.65-5.8,15.18-12.18,20.79a5.3,5.3,0,0,0-1.52,3.6c0,4.37-6.15,6.11-4.57,11-3,3-6,6.16-9.14,9.09-3,2.77-5.09,6.65-10.38,6.32-2-.12-1.8,3.28-2.1,5.36-.14.94-1.54,1.73-2.48,2.45-.06.06-1.41-1-1.39-1.44.42-7.41-3.09-15.22,3.58-22.06,1.8-1.84.94-7,.24-10.39-.65-3.14-2.72-6-4.16-14.38,0-2.52.27.4-.09,3.23-.28,2.21.11,2.95,2.23,2.13a2.79,2.79,0,0,0,1.5-1.5,65.71,65.71,0,0,1,7.83-16.14c2.18-3.29-.13-3.34-1.68-3.89-1.28-.45-2.85-.1-4.29-.09-3,0-5.78.21-5.53,4.39.13,2.15,0,4.32,0,11.87-2.46,6.92-1.11,2.71-2.21,5.38-.25.62-1.21.95-1.45,1.56-2.58,6.55,2.28,14.32-3.13,20.34-5,5.53,2,14.59-6,19.37-1,.58,0,4.1-.28,6.22-.56,4.73,1.82,9.91-2.85,14-3.85,3.38.87,9.62-4.49,13.42-3.83,2.71.77,9.36-4.53,13.31-3.47,2.59,1.16,10.09-4.82,13-.2,5,.57,10.24-.84,14.84-2,6.57-5.67,12.65-4.1,19.93-5.55,4-3.71,10.06-4.51,15.5-.46,3.15-3,5.95-4.07,9.09-.88,2.53,1.19,5.82-1.79,7.92-2.72,1.92-2.73,4.65-2.67,7.58s.8,7.36-.56,8.19c-6.12,3.74-1.21,11.42-6,15s.52,9.83-4.43,13.47c-3.21,2.36-1.86,8.19-6.24,10.31,3.13,7-5.36,11.15-4.43,17.67.2,1.38.38,3.09-.24,4.2-2.63,4.71-6.58,9-8.09,14-1.39,4.63.57,10.22-.57,15a28.22,28.22,0,0,1-5.41,10.55c-2.17,2.61-7.06,3.3-10.47,5.63-.94.65-4.13-.71-5.37-2-4.07-4.3-8-8-14.76-6.67-1.26.25-3-3.52-4.74-3.75-3.79-.5-7.08-.54-6.66-5.74.4-4.93.53-9.89.78-14.84,6.08-2.85,1.44-9.72,4.74-13.11,2.9-3,3.5-6,3.16-9.6-.42-4.48,1-7.78,4-11.46,2.2-2.67-.73-7.8,3.16-11.68,3.7-3.68-.45-11.43,5.83-14.78-1.75-8,6.19-13.74,4.62-22.08-.95-5.12,6.73-9.15,4.05-15.47,3.9-3.66,5.18-8.17,4.33-13.37,4.8-3.36,4.39-8.3,4.57-13.34,0-1.62,3-3,4-4.79.58-1,.07-2.77-.19-4.14-.44-2.29-2.18-1.95-4.57.8-.95,1.09-2.84,2-2.93,3.09-1,12.63-9.42,22.12-13.9,33.26-1.74,4.32-4,8.46-6.15,12.61s-6.18,8.15-6.37,12.36c-.25,5.32-3.51,8.91-4.52,13.4-1.06,4.68-6.71,7.61-4.68,13.35.35,1-.42,2.9-1.3,3.65a29,29,0,0,0-9.14,13.59c-1.6,5.13-4.49,9.81-7.08,14.34-3,5.23-4.3,11.77-9.75,15.49-2.66,1.82-2.11,5.14-3.36,7.22-1.77,3-2.87,6.36-4.62,8.88-3.52,5-8.17,9.18-10.57,15.2a6.64,6.64,0,0,1-6.8,4.21,44.42,44.42,0,0,0-10.81,0c-8.92,1.47-16-2.78-23.26-6.71-8.45-4.57-8.75-4.49-8.41-11.28.23-4.72-1.88-9.88,3.19-14,1.53-1.22,1.18-5.33,1-8.06A24,24,0,0,1,360,1017.1a32.34,32.34,0,0,0,4.88-17.57c.07-5.08,6.1-9.36,4-15.53,6.11-3.88,4.13-10,4.32-15.53s.1-10.58,3.94-15.83c2.83-3.86-2.16-11.36,3.9-15.57.28-4.22.36-8.46.9-12.64.43-3.39,5.36-4.75,4.32-9-.33-1.37,0-2.89-.09-4.32a4.31,4.31,0,0,0-.92-1.77c-1-1.43-1.65-.77-3.13.54-3.47,3.06-5.55,6.3-4.62,11.16.87,4.55-.38,8.36-4.44,11.18-1.67,1.16-4,3.11-4,4.72-.11,12.35-9.68,20.65-13,31.48-1.38,4.49-6.66,7.61-4.63,13.35.33.94-.54,2.83-1.44,3.6-10.25,8.83-11.65,22.89-19.67,33.11-2.3,2.93,1,8.11-3.08,11.75-2.87,2.55-2.17,7.92-6,10.39-1.35,9.86-9.8,12.19-16.7,16.69-6.21,4-12.5,2.46-18.51,2.06-4.28-.29-8.56-3.66-12.4-6.28-2.93-2-5-5.17-7.77-7.51-4.88-4.17-8.41-8.19-1.46-13.66.76-.6.87-2.84.45-4-2.51-7,4.36-11.49,4.41-17.73,3.87-2.79,4.78-6.6,4.41-11.2-.34-4.25,6.05-6.15,4.27-11.2-1.72-4.89,5.19-6.5,4.35-11.2-.68-3.75.82-6.54,3.47-9.44s-.91-8.17,3.07-11.75c2.32-2.09,3.17-5.8,4.74-8.76,2.18-4.1,2.75-4.63.18-7.27-3.95-4-3.45-6.74.18-10.72,2.93-3.2,1.72-6.18-2.67-7.34-2.25-.6-4.67-1.14-4.5-3.22.37-4.77-2.62-10.33,2-14.2,4.09-3.39-.14-9.07,3.15-11.61,4.27-3.3,2.19-10,7.51-12.18-1.67-5,4.6-6.7,4.51-11.15-.08-4.27,6.15-6,4.67-11,3.1-2.3,4.66-5.26,3.94-9.19-1.4-7.6,4.43-12.63,7-18.78,1.5-3.64,7.33-5,6-10.49,4.1-2.7,4.59-6.66,4.52-11.2,0-1.7,1.82-3.55,3.08-5.12s3.52-2.86,4.41-4.7a8,8,0,0,0,.17-5.74c-1-2.55-3.93-1.93-5.67-1.3s-3,3.61-4.82,3.94c-6.15,1.13-13-1.9-18.61,2.12-6,4.29-12.45,2.4-18.52,2.11-6.68-.33-10.57,6.62-17.77,4.86-5.45-1.33-11.49-.26-17.26-.26-6.31,6.68-14.52,3.73-22,4.33-5.16,8.83-17.23-.17-22.39,8.66-7.94,0-15.89-.14-23.82.08-2.73.08-3.7-1.85-5.18-3.23-2.63-2.47-4.9-5.38-7.74-7.55-2.59-2-7.65-2.68-8.25-4.87-1.28-4.71-.5-10-.31-15a6.05,6.05,0,0,1,1.71-3.57c4-4.18,7.46-9.64,12.38-11.9,5.3-2.44,11.39-3.72,17.1-5.69,3.23-1.11,7.31-.88,10.73-.07,9.63,2.28,17-5.6,26-5.34,3.61-6.45,12.76-.57,16.63-7.48.7-1.26,5.43-.31,8.3-.29s5.86.64,6.67-3.26c.69-3.38-2.34-4.81-3.7-7.14-2.3-3.92-11.38-.47-9.29-8.76-3.49-3.6-7-7.17-10.46-10.83A10.47,10.47,0,0,1,241,708.9c2.46-3.25,7.38-4.88,6.67-10.26-.07-.55,12.92-7.32,13.88-7.11,9.4,2.08,16.68-7.31,26.45-4.68,2.53.68,4.64-5.06,9-4.09,2.89.65,5.65,0,7.53-2.66.4-.59.94-1.38,1.52-1.49,4.8-.9,10.58,2,14.34-1.76s8.13-3.14,11.94-2.46c5.71,1,7.43-6.39,13.47-4.82,4.73,1.24,10,.31,15.09.23,3.63,0,4.71-5,9.05-4.45a31,31,0,0,0,10.49-.71c1.84-.4,3.21-3,5-3.36,6.06-1.31,12.53,1.79,18.51-2.5,5.58-4,12.45-2,18.63-1.73,6,.29,9.22-5.93,15.58-4.8,5.31,1,11.37,1.75,15.69-3.94.79-1,4.13-.13,6.3-.15l23.73-.2c5.48-7,13.74-1.9,19.79-4.5a86.9,86.9,0,0,1,15.32-5c2.28-.52,4-3.26,7.22-3.49,5.45-.38,11.49,2.31,16.28-2.37,4.13-4,12,1.13,14.8-6.11,4-.59,8.35,1.43,11.86-2.95,3.12-3.9,10.28,1.41,13.12-4.7,4.18-.35,8.37-.71,12.56-1,3.58-.28,4.78-5.56,9-4.33,4.88,1.42,7.33-3.58,11.22-4.19,4.23-.67,9,.95,12.88-.41a144.74,144.74,0,0,1,17.23-5.45c1.19-.26,1.93-2.6,3.12-2.84,4.76-1,10.45,2,14.36-1.79,4.46-4.33,9.63-3.11,14.08-2.37,6.39,1.07,9.54-5.28,15.6-4.85,5.3.37,11.57,2.71,15.92-3.27.59-.8,2.57-.68,3.92-.81,9.59-.92,19.85,2.68,28.56-4.31.43-.35,1.4,0,2.12,0,5.06,0,10.22-.67,15.13.17,5.61,1,8.88-3.33,13.41-4.43,9.36-2.26,20.13,4.47,28.5-4.41h30.32c17.32,0,34.67.52,52-.21,8.81-.38,18.72,4.28,26.36-4.12,6.72,1.36,14.45-3.47,20.28,3.32,4.91.34,9.85,1.17,14.73.92,14.09-.71,24.94,6.34,35.15,14.49,7.27,5.81,7,6.06,23.32,11.76,3,1.07,5.33,4.33,8,6.57-1.8,5,4.91,6.58,4.42,11.21-.25,2.37,1.34,3.83,4,3.72.72,0,1.45,0,2.17,0,6.49,0,13.12.8,19.45-.22s9.67,5.13,15.57,4.67a130.45,130.45,0,0,1,19.47,0c4.66.34,7.69,5.66,13.41,4.39,4.13-.91,9.17-1.44,12.82.14,4.83,2.08,9.93,3.89,14.28,7.51,10.69,8.9,13.1,9.47,24.15,9.5,6.5,0,13-.21,19.49.09,3.41.16,7.37-1.75,10.2,1.32,2.14,2.33,5.12,2.1,7.3,3.29,3.65,2,6.13,6,9.41,8.83,2.1,1.8,1.42,3.88,1.48,5.91a93,93,0,0,1,0,10.82c-.4,4.73,2.18,10.38-3,13.85-5.59,3.74-10.92,8-18.37,7.94-47.64-.13-95.28-.06-142.92-.06-2.16,0-4.4-.34-6.46.14-1,.23-2.57,2.34-2.32,3,2.62,6.46-5.12,10.11-4.28,15.56.78,5.07-4.07,7.17-4.45,11.23-.34,3.58.7,7.45-.3,10.75-.93,3.07-5,4.75-4.19,9.12.94,4.77-1.37,9.93,2,15.43,8.67-8.67,17.3-17,25.52-25.63,6.33-6.67,15.87-7.59,22.74-13.37,1.66-1.39,7-1.27,8.14.15,3,3.72,9.05,2.63,10.35,6s2.21,6.43,5,8.79c-2,6.14,3.43,10.38,4.06,15.56,1,7.77.09,15.77,0,23.67-6.61,3-1.87,10.74-6.09,14.81-1,.92-2.43,2.57-2.15,3.32,3.4,9-6.16,15.61-4.47,24.24-5.24,6.3-8,14-11.54,21.22-5.62,11.39-11.27,22.76-17.25,34A12.74,12.74,0,0,0,1036,884c-.06,1.44.56,3.75-.1,4.2-6.77,4.49-7.68,13.22-13.5,18.33-1.15,1-9.32,2.49-10.15,1.5-4.69-5.62-9.91-10-17.92-9.28-.45,0-1.65-2.3-1.56-3.47.35-4.56-.21-8.69-4.57-11.12-6-3.36-1.75-6.26,0-9.55a4.56,4.56,0,0,0-.61-3.94c-2.62-3.47-2.94,1.1-4.5,1.54a2.56,2.56,0,0,0-1.5,1.49c-1.72,5.44-5.4,9.41-9,13.67-2.9,3.42-3.54,8.66-6,12.54-2.63,4.1-6.18,7.63-9.54,11.2a5.79,5.79,0,0,1-3.76,1.24c-6.49.12-13.11.83-19.45-.15-7.47-1.16-14.27-4.58-19.1-10.89,1.17-5.45-3.51-7.5-6.41-10.28-3.18-3-2.52-6.64-2.08-9.93s6.56-6.17.13-9.55c4.29-3.51,4.57-8.25,4-13.24,5.22-3.23,5.12-8.5,4.16-13.33-1-5.11,5.58-6.67,4.45-11.21-1.69-6.77,7.22-10.66,4.43-17.73C921,810,928.89,807,928,800.48c-.66-5,6.4-9.21,4-15.48,5.89-3.94,4.12-10,4.33-16.55-.68,1,0,1.73,2,1a2.6,2.6,0,0,0,1.43-1.31,7.89,7.89,0,0,0,.8-3.65c-.15-1.15-1.1-2.2-1.7-3.3-.84.75-2.1,1.35-2.43,2.28-.42,1.19-.1,2.65-.1,5-3.65.48-5.28,3.6-6.59,5.69-3.17,5.06-4.89,11.14-8.11,16-3,4.52-6.59,8.54-9,13.65-4.64,9.9-8.8,20.3-18.21,27-2.24,1.6-1.83,4.07-1.31,5.86,1.68,5.75-6.67,7.63-4.77,13.24-3.75,4-7.39,7.71-9.64,13.31-1.88,4.66-7.48,7.94-8.7,13.69-6.52,4.69-8.44,12.21-11.68,18.93-.58,1.21-1.09,2.83-2.11,3.39-6.65,3.71-6.1,12.58-12.15,16.67-1.17.79-3.08,2.28-2.89,3,2.15,8.61-5.59,12.21-8.59,18.19s-5.7,12-8.85,17.93c-5,9.28-10,11.63-20.15,8.75-2.73-4.58-7.24-4-11.43-3.64a10.11,10.11,0,0,1-9.24-3.94,84.75,84.75,0,0,0-7.62-7.66c-5.09-4.64-5.47-9.74-1-14.71,2.91-3.25,1-6.83,1.82-10.11.7-2.65,4.8-3.35,4.27-6.87-.69-4.56.43-8.4,4.33-11.17-1.8-5,5.25-6.62,4.3-11.17-1-4.78,1.87-7.87,4.37-11.19-1.68-7.28,6-12.52,4.33-19.82,7-4.06,1.22-14.16,8.52-18.09-2.92-7.58,6.52-12.37,4.48-19.76,2.66-4.78,5.75-9.44,4.65-15.36,6.56-3,1.53-11.12,6.18-14.68s-.58-10,4.47-13.37c4.36-2.87-.24-8.75,3.17-11.55,4.94-4,2.16-9.29,3.31-13.86.8-3.16,3.24-5.91,4.06-9.08.7-2.7.15-5.73.15-9.57,0-.33-.26.57.07.89a1.87,1.87,0,0,0,1.82,0c1.43-1,3.21-2.24.6-3.76C838.82,735.12,837.53,736.53,836.68,738.16Zm60.64-15.37c0,7.11.25,10.68-.09,14.2-.21,2.18.12,2.91,2.21,2.1a2.85,2.85,0,0,0,1.49-1.45c2.86-7.54,5.74-15,11.92-20.68,2.91-2.7,2.09-7.65,5.9-10.43,2.08-1.51-.29-6-2.94-6.39-5.26-.74-9.48.75-12.85,5.09-2.11,2.71-1.57,6.2-4.06,9.14-2.24,2.66-1.5,7.84-4.1,28.74a15.6,15.6,0,0,0,2.47-2.09,1.87,1.87,0,0,0,0-1.82,1.84,1.84,0,0,0-1.82,0,8.64,8.64,0,0,0-2,2.55C893.38,741.9,894.3,742.61,897.32,722.79ZM475.11,769.45c-5.73,0-11.46-.11-17.18.06-2.4.07-5.93,7-4.26,8.74,3,3.17,1.26,6.72,1.81,10-5.76,4.77-4.28,11.36-4.31,17.52-.07,12.88-.2,25.77.08,38.64a11.15,11.15,0,0,1-4,9.2c-.76.7-.47,2.66-.41,4a3,3,0,0,0,1.1,1.65,2.56,2.56,0,0,0,1.43.56c1.91-2.82,5.25-4.13,6.33-8.14,1.38-5.11,5.75-9.38,4.27-15.37,5.29-2.2,3.53-8.55,7.3-12.17,3.05-2.92,3.29-8.57,5.63-12.5a30.8,30.8,0,0,0,4.59-13.27c.45-4.24,4.4-8.06,6.57-12.19A108,108,0,0,0,490,773.68c.32-.85,2.35-4.45-2-4.27s-8.58,0,2.15-1.89c0,.65-.25,1.54.07,1.86a1.91,1.91,0,0,0,1.83,0c1.42-1,3.2-2.24.6-3.77C492.28,765.44,491,766.85,475.11,769.45Zm305.25-32.62a8.65,8.65,0,0,0,0,2.1c.33,1.24.55,3.25,1.32,3.52,2.76,1,3.21-1.18,2.93-3.16-.38-2.6,1.66-3.56,2.84-5.16,1.33-1.8.45-3.52-1.71-3.66C781.42,730.19,780.36,731.44,780.36,736.83Z"/><path d="M479.49,125.83c4,0,8.22.68,12.06-.17,5.24-1.17,8.57,3.93,13.73,3,4.35-.77,8.93-.16,13.41-.16,2.87,5.52,9.62.09,12.94,4.56a3,3,0,0,0,2.3.78c6.25-.52,11.93.8,16.78,5,6.93.57,12.36,4.76,18.37,7.56,5.66,2.64,11.17,5.53,16.69,8.41,2.28,1.19,4.52,2.12,6.44,3.93,2.14,2,3.67,4.56,7.36,5.06,2.65.35,3.47,5.07,7.23,5.14.72,0,1.47.76,2.14,1.26,4.14,3.07,6.27,8.71,12.19,9.49L633.48,192c3.81,3.8,7.5,7.71,11.45,11.35,2.29,2.13,1.74,5.68,4.63,7.59,2.57,1.7,4.43,4.42,6.76,6.52,1.71,1.53.56,4.16,2.74,5.68,1.62,1.14,3.7,2.39,3.73,5.11,0,2.51,2.8,3.25,3.92,5.08s1.61,4,3,5.45c1.81,2,.55,4.28,1.2,6.26.52,1.55,1.83,2.82,2.59,4.3,1.32,2.58,2.41,5.28,3.75,7.85s3.86,5,4.09,7.64c.28,3.21,2.58,5.73,2.64,8.27.09,4.22,2.56,7.19,4,10.57.85,2,1.91,3.8,1.68,6-.3,2.83.64,4.89,2.56,7.08,1.22,1.39-.83,4.33,1.18,6.17a4.33,4.33,0,0,1,1.72,3.34c.08,4.25-1.15,8.76,2.53,12.42.67.66,0,2.6.12,3.93.62,5.94-2,12.37,2.67,17.7,0,4,.16,8.07-.06,12.09-.14,2.47,1,4,2.41,5.79,1.16,1.44.3,3.39-1.35,4.48-1.15.75-1.15,1.16-.14,1.95,1.95,1.53,2.94,3.4.76,5.49-1.86,1.79-2.39,3.45-.46,5.6a5,5,0,0,1,1.4,3.36c-.19,1.41-1.73,2.66-1.83,4.05-.07,1,1.42,2,1.89,3.17.32.77,0,1.78.08,2.66.37,2.83-3.6,3.76-2.8,7,.52,2.1.1,4.45.1,6.69,0,2.69-.35,5.43.08,8.05.6,3.71-1.35,5.89-3.86,7.84-2.29,1.77.56,3,.37,3.77-.65,2.7-2.39,5-2.07,8.15.31,2.94.9,6.18-2.31,8.48-.67.47-.34,2.52-.25,3.83a9.18,9.18,0,0,1-2.5,7.12c-1.38,1.65.7,5-2,7.2-2.43,1.94.42,5.82-2.76,8.34-2,1.58-2.52,5.1-3.47,7.83-1.17,3.39-2.2,1.06-3.35.08a4.7,4.7,0,0,0-.94-.51,13.51,13.51,0,0,0-1.09,2.23c-.45,1.58,1,2.26,1.67,3.33,1.39,2.1,1.33,2.16,0,4.56a4.68,4.68,0,0,1-.93,1c-2.13,2,.57,5.24-1.87,7.31a39.3,39.3,0,0,0-5.69,5.7c-2.82,3.63-3.07,8.75-6.68,12,.77,2.66-2.38,3.86-2.46,5.61-.12,2.62-2.1,3.69-2.88,5.61-.31.77.05,2-.43,2.49-2.09,2.32-4.68,4.25-6.5,6.76a24.51,24.51,0,0,0-3.75,7.81c-.78,2.92-4.12,3.74-4.73,6.09-.83,3.21-2.75,5.27-4.9,7.42-1.81,1.81-1.09,5.16-3.82,6.47-3.13,1.49-2.27,5.47-4.71,7.48-2.07,1.7-3.84,3.76-5.74,5.66s-3.56,4.16-5.75,5.61c-3.2,2.1-2.41,6.42-5.58,8.57-2.55,1.74-4.5,4.34-6.72,6.56-2.53,2.53-5,5.16-7.62,7.58-4.79,4.38-9,9.24-14.85,12.66-5.24,3.05-8.63,9.13-13.62,12.81-3.06,2.26-6.29,4.3-9.31,6.71-1.44,1.15-5,0-6,1.24-2.69,3.1-6.66,4-9.47,6.55a22.21,22.21,0,0,1-6.43,4c-1.94.85-3.52,2.28-5.88,2.07a3.29,3.29,0,0,0-2.4.58c-2.38,2.57-5.55,3.92-8.3,5.85-4.33,3-7.19,8.35-11.69,10.94a48.8,48.8,0,0,0-12,9.83,29.13,29.13,0,0,1-11.69,7.54c-1.83.67-2.77,2.46-4.24,2.7-1.84.29-3.13,1.38-4.62,1.87-3.94,1.3-7.1,4.66-12,3.81-3.72-.64-7.93-1-11,2.51-.19.22-.93.18-1.3,0-2-.91-3.85-4-5.91-.12-4.29-4.9-10-1.54-15-2.54-2.87-.58-4.84-3.94-8.29-2.7-6.28-3.22-12.94-5.9-18.68-9.9-3.07-2.12-5.47-3.87-9.35-3.64s-8,1.17-11-2.58l-10.67-.2c-2.45-3.91-6.75-1.31-9.61-2.7-3.22-1.57-6.14-2.92-9.75-2.52a3.59,3.59,0,0,1-2.43-.52c-4-3.29-9.1-4-13.73-5.84-5-2-9.66-4.74-14.53-7.08-4.49-2.16-8.79-4.71-13.24-7-3.32-1.69-7.45-2.47-9.94-5a24.13,24.13,0,0,0-10.78-6.51c-4.16-1-4.91-6.81-9.79-5.77-.25.05-.63-.56-1-.84-4.32-3.56-7.06-9.1-13.14-10.45-4.12-4.12-8.52-8-12.24-12.45-2.14-2.56-5.63-2.3-7.52-4.68-2.66-3.36-7.5-5-7.88-10.16-3.08-3.2-6.14-6.43-9.26-9.6s-6.33-6.34-9.49-9.51c.26-4.88-5-6-6.52-9.39a25.94,25.94,0,0,0-6.81-9.25c-2.16-1.89-3.49-3.89-2.93-6.91a3,3,0,0,0-.88-2.27c-6.29-6-8-14.66-12.49-21.72-1.79-2.81-2.46-6.23-4.6-8.83-2-2.43.93-6.42-2.78-8.32-.5-.26-.68-1.55-.65-2.34a16.88,16.88,0,0,0-2.49-9.78c-1.57-2.66,1.18-7.1-2.6-9.63-.11-4.44-.19-8.87-.34-13.31-.09-3,.68-6.08-2.38-8.52-.9-.71-1-4.27-.16-5,3.79-3.23,2.48-7.33,2.51-11.13.11-14.34.29-28.68-.12-43-.11-3.83,2-6.45,2.72-9.67.69-3-.82-6.83.57-9.14s2.7-4.52,2.19-7.17c-.81-4.18,1.18-7.59,2.86-10.94,1.35-2.71,3.15-5,2.64-8.36a5.61,5.61,0,0,1,.63-3.71c2.35-3.49,3.3-7.89,5.84-10.95,2.69-3.26-.34-8.34,4.22-10.43,2.74-7.88,7.69-14.72,10.61-22.48.88-2.34,2.88-3.24,3.95-5.09s1.48-4.22,3-5.41c2.88-2.31,3.95-5.55,5.6-8.51,1.43-2.58,1.89-5.77,4.76-7.44,2.49-1.44,1.17-5,3.77-6.53,3.9-2.32,3.75-7.61,7.54-10.36,3.58-2.6,6.41-6.23,9.59-9.38s3.91-7.59,7.53-10.38c3.17-2.44,5.77-5.61,8.62-8.46l9.5-9.51c2.85-2.85,5.58-5.84,8.59-8.51,4.18-3.72,7.05-9.1,13.1-10.49.18-3.51,3.62-3.83,5.36-5.7,5.12-5.52,12.52-8.1,17.13-14.08.27-.35.66-.94.94-.91,4.33.46,5.36-4.87,8.52-5.26,3.81-.47,5.07-3.34,7.25-5.3s3.79-3.74,6.86-3c1.56.37,2.56-.66,3.3-1.71,2.6-3.7,7.34-4.2,10.52-7.37,2.43-2.42,6.8-3.2,9.75-5.21,2.57-1.75,4.95-1.23,7.33-2,1.9-.58,3-3.32,5.64-2.55,1.35-2.66,4.75-2,6.43-3.84,1.86-2,4.08-1.1,6.1-1.64,1.55-.41,2.77-2.18,4.31-2.49,3.3-.65,5.68-4.46,9.61-2.79,1.88-2.59,5.55-2.06,7.62-4.38a4,4,0,0,1,2.26-1c2.91-.48,6.1,1,8.67-1.87,2.07-2.33,6.4.89,8.2-2.89a1.45,1.45,0,0,1,1.05-.62c4.67-.37,9.73,1.37,13.7-2.69.22-.22.86,0,1.31,0,5.12-.28,10.55,1.23,15-2.68Zm69.14,150.53h1.2c0-.4.16-.91,0-1.18-.62-.88-1.39-2-2.33-.37-.13.22.75,1,5,4.66,0-.42.15-.92,0-1.24-.38-.67-.86-1.7-1.42-1.79-2.48-.4-.92,1.58-1.18,2.44a1.83,1.83,0,0,0,1.53,2.52C551.68,281.44,552.15,280.15,548.63,276.36Zm-23-18.82c-1-4.24-3.89-5.8-10.8-5.37a12.26,12.26,0,0,0,2.72,0c1.12-.28.13-2.4-2.1-2.47-2.89-.09-3.89-3.83-6.9-2.86a2.72,2.72,0,0,0-1.05.68c-.22.23-.48.79-.38.9,2.05,2.33,4,4.89,10.44,3.79,1.06,4.24,3.9,5.81,8.07,5.37,1.05,4.25,3.89,5.81,10.53,6.94a9.56,9.56,0,0,0-1.3-1.53.8.8,0,0,0-1.13,1.14,5.23,5.23,0,0,0,1.58,1.22c.1.06.54-.52-1.62-2.39C532.65,258.68,529.81,257.11,525.64,257.54ZM372.82,526.36a18.43,18.43,0,0,0,2.68,0c2.52-.37,5.31,1.06,7.55-1.19s5.43-2.08,7.53-4.66A78.31,78.31,0,0,1,401,510c3.43-2.89,3.93-7.61,7.44-10.45,1.47-1.2,2-3.58,2.93-5.42s1.5-4.1,2.92-5.45c2.73-2.6,4.86-5.15,3.85-9.19,3-2.08,3-5.13,2.7-8.27,0-.45,0-.9,0-1.35-.76.32-1.88.42-2.22,1-.84,1.4-.42,3.23-1.91,4.6-3.63,3.31-7,6.9-10.49,10.38-3.16,3.16-6.19,6.47-9.52,9.45-3.57,3.19-6.08,7.63-10.79,9.53s-7.16,6.38-10.79,9.52c-1.12,1-2.29,1-3.51,1.31-2,.59-3,3.33-5.63,2.65-.26-.06-.78.4-1,.74-.82,1.34-3.41,1.88-2.62,3.73a6.71,6.71,0,0,0,3.82,3.41c2.07.58,4.43.15,56.23-61.45-.3.14-.8.23-.85.43-.31,1.14-.44,2.32-.74,3.46s0,1.71,1.26,1.23a1.8,1.8,0,0,0,.9-.8C423.86,467.23,423.54,465.05,372.82,526.36ZM325.52,478c.4,0,1,.16,1.15,0a1.18,1.18,0,0,0,0-1.14c-.62-.88-1.39-2-2.34-.37-.12.22.76,1,96.45-102.11,0-2.24,0-4.48,0-6.72,0-3.12,1-6.86-.4-9.19a16.38,16.38,0,0,1-2.4-7.15c-.29-2.71-3.78-5-6.67-5q-3.36,0-6.72,0c-1.78,0-3.53,2.25-2.56,3.48,1.61,2,1.91,5,3.53,6.53,3.59,3.33,5.11,6.85,4.55,11.69a52,52,0,0,0,0,10.73c.13,1.44,1.48,2.77,2.28,4.15-4.14,3.51-1.77,8.27-2.38,12.45-.19,1.28.14,3.26-.55,3.71-2.51,1.64-1.51,5-3.71,6.64-2.72,2.07-.44,5.54-2.61,8.39-3.25,4.26-4.22,10.16-8.8,13.74.67,5.07-6.42,6-5.84,11-2.38,3.62-6.27,5.77-8.31,10-1.83,3.8-5.68,6.63-8.66,9.87a24,24,0,0,1-2.87,2.83c-1.62,1.24-1.82,2.86-1.69,4.7a4,4,0,0,1-1.11,3.58,102.38,102.38,0,0,0-9.45,9.53c-2.86,3.5-6.24,4.5-10.47,4.1a27.39,27.39,0,0,0-6.71,0c-4.47.7-7.61-1.16-10.31-4.45-.46-.56-1.49-.66-2.25-1,0,1.34-.57,3.19.1,3.94,2.95,3.34,6.26,6.36,9.44,9.5,3.1-1.13,4.2,3.47,6.92,2.6s4.94-3.45,8.34-2.68c.57.13,1.58-.69,2.07-1.31,3.3-4.18,8.77-5.29,12.36-9.36,6.5-7.38,13.84-14,20.75-21.05,2.07-2.11,4-4.08,5.09-7.3,1-3.05,4.81-5.12,7.23-7.77.46-.51-.11-1.9.33-2.5,2.7-3.77,4-8.27,6.48-12.09s2.93-8.86,6.54-12.1c-.42-5,2.82-8.67,4.77-12.8.18-.39.88-.64.89-1,.08-3.13-.08-6.27.13-9.39.2-2.94,3.39-4.73,2.79-8.32C420.3,382.46,420.8,378.34,325.52,478Zm145.16-80.64h1.2c0-.4.16-.92,0-1.18-.63-.89-1.39-2-2.34-.37-.12.21.75,1,10.43,47v-9.38c0-3.13-.54-6.37.14-9.35.82-3.63-2.68-5.25-2.88-8.29s1.35-6.36-2.11-8.49c-.31-3-.59-6-1-9-.05-.34-.54-.77-.92-.92-1.32-.51-1,.51-1.49,1.21-1.23,1.8-2.72,3.09-2.61,5.69.25,6.25-.25,12.53.2,18.75.29,4-.9,6.84-4,9.12-2.44,1.81-.06,2.63.78,3.8a2.86,2.86,0,0,1,.4,1.16,2.3,2.3,0,0,1,0,1.33c-1.17,2-3.87,3.85-.06,5.86-4.09,2.61-1.09,8.58-5.29,11.13,1.55,3.89-2.72,6.42-2.5,9.59.31,4.53-3.22,5.95-5.2,8.67a3.23,3.23,0,0,0-.31,2.5c.93,3.1-2.64,4.43-2.67,6.94,0,2.76-.05,5.31-2.73,6.94,1.15,3.11-2.82,4.13-2.77,6.91.05,2.61-3.74,3.75-2.89,6.82-2.68,1.33-2.57,4.37-3.6,6.56-1.4,3-3,5.92-4.46,8.84-1.67,3.41-5.29,5.86-8,8.75-2.34,2.48-5.22,4.44-5.85,8.34a5.23,5.23,0,0,1-3.74,3.34,6.49,6.49,0,0,0-5.32,3.37c-1.65,2.47-4.74,1.72-6.61,3.67-1.73,1.79-3,4.66-6.4,4-.2,0-.72,1.11-.89,1.76,0,.18.59.8.92.81,3.57.06,7.24-.47,10.69.17,3.92.72,6.53-2.64,9.63-2.59,5.05.07,9.16-1.79,13-4.31,2.13-1.39,5.22-1,6.55-3.67,4.71.62,5.75-4.78,9.66-5.81a11.06,11.06,0,0,0,7.94-7.83c1-4,6.62-4.9,5.75-9.71,3-2.61,3-7.05,5.34-9.78,2.55-2.93,1.3-7.25,3.37-9.25,3.18-3.08-.17-8.41,4.51-10.32-.17-3.11-.34-6.22,2.72-8.25,0-2.68-.1-5.37,0-8,.13-2.52-.69-5.06,1.84-7.35,2.06-1.86.69-5,.77-7.62C480.06,453.49,479.94,448.13,470.68,397.33Zm99.46-129h1.2c0-.4.16-.92,0-1.18-.63-.89-1.39-2-2.34-.37-.12.21.75,1,48.07,108.08V364.08c-4.75-4.31-2-10-2.64-15-.29-2.2.88-5.36-.24-6.53-2.5-2.6-2.66-5.35-2.56-8.44-3.39-1.9-1.44-6.19-3.07-8-2.53-2.81-2-5.6-2.3-8.58a9.82,9.82,0,0,0-1.29-3.47c-2.93-5.5-5.43-11.21-8.52-16.62-1.23-2.18-1.17-5.13-3.8-6.48s-1.93-4.66-3.78-6.5c-5.41-5.35-10.77-10.76-16.19-16.11a1.29,1.29,0,0,0-1.26,0c-.23.23-.09.86,0,1.3.14,1.26-.52,2.66.92,3.66,2.6,1.79,1.71,5.7,4.72,7.49s2.55,6.38,5.74,8.31c2.28,1.38,2.28,3.63,2,5.86s2,2.78,2.64,4.29c.78,2-.61,4.19,1,6.35,3,4.17,5.23,8.78,4.51,14.23a1.47,1.47,0,0,0,.33,1.18c3.33,2.13,2.91,5.68,2.16,8.4-1.14,4.15,2.95,6.19,2.88,9.68-.06,3.13,0,6.27,0,9.4s.6,6.42-.15,9.36c-1,3.73,3.52,4.87,2.95,8.35-.49,3,.5,6.28-2.8,8.27,5.15,2.84-1.24,5.54-.14,8.57.72,2,.34,4.44.1,6.66-.65,5.93,2.22,12.4-2.65,17.69-.15,3.52-.31,7-.46,10.55-3.79,2.59-2.32,6.53-2.08,9.81.28,3.77-4.16,5.79-2.86,9.65.51,1.54-.82,2.36-1.69,3.32-2.38,2.61.91,7.47-3.64,9.27-.16.06-.09.86,0,1.29.72,4.06-2.16,7.47-2.35,11s-3.59,5.14-3,8.26c.76,3.89-3.47,5.83-3.35,9.38-3.81,1.76-.45,6.42-2.93,8.09-3.65,2.45-.18,6.84-3.56,9.5-2,1.59-2.93,5-3.51,7.79-.45,2.16-.31,4.24-2.3,5.82-1.74,1.38-3.11,3.23-4.81,4.68s-.08,2.23.68,2.82c1.09.85.71,1,.07,2-2,3.26-3.59,6.79-6.72,9.31-1.92,1.55-4.52,3.31-.66,5.67-2.34,1.53-2,4.5-3.5,6.46-2.58,3.4-6.49,5.51-7.84,10.23-.75,2.63-4.2,4.48-6.37,6.73s-5.46,4.25-6,6.85c-.79,3.63-3.57,4.9-5.43,7.19a48.61,48.61,0,0,1-5.68,5.71c-2.22,1.94-5.38,2.19-7.51,4.69-3.05,3.58-6.17,7.38-11.13,8.63-2,3.07-6.24,3.47-8.17,5.87-2.69,3.36-7.23,3.09-9.61,6.34-4.34-.59-5.17,4.81-8.53,5.22-3.19.39-4.23,2.92-6.28,4.4l-9.17,3.82a4.33,4.33,0,0,0-4.6,1.87c-2,2.65-4.54,3.46-7.92,3.74-2.71.22-5,3.35-8.31,2.46-2.42,3.11-6.17,2.42-9.38,3.29-1.85,4.19-6.59.57-9.32,3.67-2.56,2.89-6.75.77-10.2,1-4.94.36-4.95.11-11,2.78-2.6,1.15-3.38,3.09-1.8,4.7,3.44,3.52,6.92,7,10.46,10.43a3.77,3.77,0,0,0,2.26.95c2.23.13,4.48.05,6.71.05,1.95,3.54,3.74.5,5.87.24,5.73-.71,11.61-.22,17.42-.26,2.2,0,5.3.71,6.43-.44,3.48-3.51,7.5-1.8,11.27-2.18,2.66-.27,5.38.09,8-.11a5.81,5.81,0,0,0,3.4-1.38c2.62-2.54,7.34.34,9.23-3.75,3.69.74,6.58-2.63,9.54-2.57,4.62.1,7.57-4.86,12.28-3.12,1.88-3.43,5.7-1.63,8.12-3,2.63-1.49,4.53-4.26,6.75-6.48,2.85-2.85,5.73-5.66,8.53-8.56a75.94,75.94,0,0,0,8.86-11c2.8-4.19,4.69-9.42,9.21-12.35,4.27-2.77,5.22-7.77,8.09-11.46.73-.94.61-2.87,1.44-3.34,3.79-2.14,3.49-7,6.59-9.44-.89-5.13,6.52-6,5.7-11.07,3-2.63,3.21-6.8,5.23-9.9s4.72-6.58,4.93-9.94c.25-3.74,3.68-5.95,3.13-9.57,4.28-1.81,1.84-6.28,3.65-9.26a120.73,120.73,0,0,0,7.88-15.51c.64-1.52,2.29-2.68,1.8-4.62-1.21-4.76,2.2-8,3.82-11.86.47-1.12,2.08-1.9,1.54-3.36-1.31-3.56,3.25-5.22,2.65-8.29-.77-3.93,3.56-5.82,3.33-9.41,4-2.24.29-7.94,4.64-10.31.76-.42.15-3.38.16-5.16s-.74-4.51.13-5.21c3.95-3.17,2.08-7.36,2.65-11.1,4.45-3.36,1.94-8.19,2.6-12.35.07-.42,0-1.05.27-1.21,3.83-2.52,2.82-6.57,2.22-9.73-.78-4.06,3.25-5.73,3.16-9.67-.17-7.23-2.45-15,2.42-21.71C617,381.09,617,378,570.14,268.3Zm-2.76,328c4.07-4.1,8.07-8.32,12.31-12.29,1.14-1.06,3.2-1.07,4.48-2,1.78-1.33,3.93-2.82,4.68-4.73,2.69-6.92,9-10.61,13.39-16,2.2-2.69,6-4.1,6.72-8s4.65-5.15,6.62-8c.48-.69,1.4-1.4,1.38-2.08-.08-3.83,4.51-4.62,5-7.3a10.62,10.62,0,0,1,4.08-6.4c2.4-2,1.58-5.89,4.67-7.56a4.8,4.8,0,0,0,2.56-4.31c0-1,1.47-2,2.23-3.06,1-1.38,3.16-2,3-4.12-.23-2.81,3.93-3.82,2.73-6.95,1.76-1.43,2.32-3.34,3.06-5.47.8-2.29,4-3.75,4.79-6s-.21-5.32,2.6-7c-.26-3.06,2-4.64,3.78-6.5.88-.91,2.29-1.56,1.89-3.25-1-4.34,3-6.82,3.89-10.49.79-3.22,3.63-5.67,4.11-9,.43-3-.3-5.79,2.27-8.59,1.69-1.85-.36-6.15,3.06-8,.07-3.05-.43-6.28,2.8-8.25,0-2.69.44-5.47-.12-8-.69-3.22,2.81-4.16,2.9-7,.15-5.09-1.77-10.63,2.59-15,0-4.48-.75-9.13.21-13.39,1-4.56,2.85-8.81,2.58-13.72-.39-7.15-.1-14.33-.1-21.5,0-1.34.57-3.15-.09-4-5.18-6.34-1.65-13.67-2.54-20.47-.35-2.64,0-5.37-.09-8,0-.81-.18-2-.71-2.34-2.91-1.9-2.27-4.89-1.8-7.27.63-3.24-2.81-4.24-2.9-7-.1-2.93,1.07-6.06-1.83-8.67-2.25-2,.89-6.4-2.93-8.15-.71-5.08-.14-10.66-5.65-13.84-.43-.25-.31-1.66-.25-2.51a7.54,7.54,0,0,0-1.58-4.77c-2-3.11-3.27-6.68-4.87-10s-2.88-7.08-5-10c-2.22-3.11-4.81-5.95-6.43-9.49-.69-1.5-.84-3.64-2-4.48-5.82-4.27-7.79-11.51-13.16-16.18-5.73-5-10.84-10.68-16.23-16.07-.95-.95-1.81-2.58-2.87-2.73-4.95-.68-7.35-4.69-10.16-7.82-3-3.34-8.18-3.32-10.41-7.5-1.79-3.35-5.59-3.8-8.38-5.7-2.08-1.41-4.6-1.67-6.6-3.7-5.08-5.15-12.93-5.81-18.45-10.5a3.27,3.27,0,0,0-2.56-.19c-3.81,1.06-6.47-1.76-9.69-2.57-2.52-.64-3.76-4-6.92-2.87-3.37,1.18-4.66-4.11-8.3-2.71-2.56,1-3.54-2.45-5.59-2.56a78.21,78.21,0,0,0-13.43,0c-5,.58-8.54-4-13.71-2.94-3.43.73-7.13.14-10.72.14-3.13,0-6.32.34-9.39-.09-3.77-.52-6.5,1.78-9.71,2.56a26.39,26.39,0,0,1-12,0c-4.53-1.08-7.05,3.06-11,2.95-2.5-.07-5.26-1-7.34,1.79-1.72,2.33-5.32-.65-7.2,2-1.62,2.25-4,1.15-6.06,1.63-2.4.56-3.91,3.31-7,2.68s-4.68,3.27-8.31,2.9c-2.51-.25-5.49,1.75-7.85,3.35-1.53,1-2.75,2.1-4.68,1.76l-9.16,3.83c-1.91,3.91-6.86,3.54-9.34,6.65-3.43-1-4.75,3.93-8.18,3-2,3.16-6.45,2.37-8.53,5.37-2.71-.57-4.22,1.4-5.36,3.13-1.65,2.48-4.79,1.72-6.62,3.7s-5.14,1.12-6.44,3.84c-1.5,3.13-5.36,2.38-7.51,4.69-2.61,2.79-5.08,5.57-9.19,7-3.87,1.32-5.14,6.84-10.33,7.62-2.14.32-4.23,3.29-5.65,5.5-1.87,2.89-6.1,1.42-7.55,4.68-.85,1.9-1.88,3.7-2.84,5.55-3.37-.8-4.63,2.09-6.45,3.83-2.89,2.76-5.59,5.73-8.36,8.62,1,4.74-7,3.15-5.76,8.13q-7.14,7.12-14.26,14.25c-1.89,1.87-3.85,3.68-5.78,5.52-5.78-.52-3.05,3.94-3.82,6.41a6,6,0,0,1-1.65,2,51.72,51.72,0,0,0-4.68,4.81c-1.23,1.64-1.54,4.14-3,5.38-2.76,2.37-3.38,6.35-5.79,8.28-3.38,2.69-3.08,7.24-6.34,9.62.58,4.33-4.8,5.17-5.22,8.54-.4,3.18-3.49,4-4.29,6.32-1.22,3.53-5,6.17-3.88,10.47.24.92-1.4,2.95,1.31,2.69,1.26-.12,2.68.52,3.65-.94s2.83-2.71,2.89-4.12c.13-2.81,4-3.83,2.86-6.94,1.88-1.91,3.75-3.83,5.64-5.73a43.22,43.22,0,0,0,4.69-4.79c1.68-2.33,4.79-1.39,6.65-3.68a88,88,0,0,1,10.4-10.48c3.88-3.38,6.26-8.73,12.14-9.56,3.41-3.3,6.56-6.68,11.14-8.77,3.06-1.39,5.39-4.67,7.64-7.43,2.56-3.15,6.36-4.31,9.35-6.67,2.79-2.21,4.78-5.54,7.75-7.38s6.54-2.82,8.19-5.92c1.92-3.62,6.22-2.89,8.55-5.59a10,10,0,0,1,5.22-3.63c2.27-.61,3.74-4,6-4.76,2.13-.73,4-1.31,5.46-3.06,3.14,1.21,4.46-2.11,6.87-2.92,3.17-1.07,6.51-1.88,9.45-3.11A72.83,72.83,0,0,0,364,228c2.47-1.48,6.14-1.71,7.73-3.72,2.66-3.37,6.7-.33,9.58-3.45,2.75-3,8.79,1,11.8-3.65,5.07,1.72,9-2.28,13.67-2.69,6.39-.56,13.2,1.83,19-2.68,17.47,0,34.94-.09,52.41.13,1.83,0,2.95,2.7,5.61,2.69,4.8,0,10.21-1.8,14.31.89,4.78,3.14,9.52.65,14.14,1.68a11.92,11.92,0,0,1,2.28,1c4.15,1.92,7.8,5.18,12.81,4.75a5.23,5.23,0,0,0,5.75,2.29c2.68-.58,3.35,2.69,5.62,2.72,3,0,4.76,4,8.3,2.72,1.57-.58,2.27,1,3.29,1.76a50.11,50.11,0,0,0,5.1,3.81c5.05,2.94,9.53,6.87,15.3,8.55,2.17,3.56,6.5,4.1,9.31,6.69,3.3,3,6.39,6.28,9.53,9.48,2.7,2.75,6.12,5,6.66,9.33,4.09,2.28,4.24,7.47,7.6,10.29a37,37,0,0,1,11.4,16.78c3,1.81.64,5.55,2.1,7.09,1.93,2,1.66,5.11,3.67,6.59,3,2.25-.28,6.3,2.78,8.31s-.22,6,2.8,8.3c2.85,2.16-.48,7.32,3.86,9.1.54,3-1.26,6.57,1,8.92,3.14,3.19,1.06,6.77,1.68,10.1,1.18,6.31-2.45,13.3,2.72,19-.08,2.66.55,5.64-.47,7.86-.87,1.91-2.37,3.36-2.28,5.81.2,4.92-.24,9.88.15,14.78s-1.11,9.23-2.66,13.71c-.69,2-.39,4.49,0,6.67.42,2.69-2.89,3.3-2.74,5.62.18,2.76.05,5.34-2.66,7,.84.95,2.39,1.94,2.34,2.84s-2.16,1.92-2.27,3c-.34,3.1.64,6.52-.32,9.32-1,3.05-2.1,6.46-4.8,8.77-.11.1,0,.77.24.9,3.1,2,.92,3.35-.59,4.78,1.15,3.11-3.14,4.16-2.68,6.93.48,2.93-1.49,4.73-2.53,7s-.46,4.71-2.11,7.25-.84,6.63-3.46,9.25c1.72,4.3-3.24,6.71-3,11,.19,3-3.62,5.81-2.4,9.62-3.25,1.92-2.57,6.32-5.37,8.52.7,3.29-1,5.71-2.63,8.34-1.71,2.82-2.74,6-4.4,8.9-1.26,2.17-1.05,5.19-3.72,6.53,1.33,3.54-4.1,4.72-2.87,8.22-2.77,1.65-2.57,4.33-2.58,7a3.81,3.81,0,0,1-1.24,2.13c-7.1,7.49-8.93,17.95-14.74,26.18-.67,1,0,2.57-346.85-253.35.42-1.25,0-1.7-1.24-1.23a1.61,1.61,0,0,0-.89.81,5,5,0,0,0-.49,2.26,6.66,6.66,0,0,0,1.05,2.05c.52-.46,1.3-.83,1.51-1.41C219.39,341.18,219.19,340.27,567.38,596.27ZM297.15,478.39c0-.42.15-.92,0-1.24-.38-.67-.86-1.7-1.42-1.79-2.49-.39-.92,1.58-1.19,2.44a1.84,1.84,0,0,0,1.54,2.52c.26,0,.73-1.25,267.22-93.9V375.67c0-4-.55-8.17.16-12.07s-2.15-6.42-2.75-9.68a19.18,19.18,0,0,1,0-8c.94-3.64-3.4-5.23-2.75-8.31,1-4.72-2.08-8.14-3.49-12-.54-1.48-1.71-2.69-2.12-4.52s-2.07-3.4-2.82-5.54c-.94-2.67-4.13-4.53-6.31-6.78s-2.16-5.38-4.67-7.53a129.35,129.35,0,0,1-13.31-13.28c-2.94-3.4-8-3.46-10.49-7.45-.73-1.14-3.13-1.08-4.44-2-5.8-4.18-12.69-6.26-18.77-9.95-3.46-2.11-7.56-3.37-11.1-5.56-4.58,1.25-7.55-4.3-12.37-2.84-1.28.38-2-2.48-4.21-2.62-4.2-.29-9,1.9-12.34-2.6-2.68,0-5.39-.2-8,0-3.24.29-5.66-.95-8.43-2.52-2-1.15-5.28-.5-7.93-.17-6.36.8-13.29-2.46-19.05,2.64-4.71.12-9.39-.59-13.8,2.5-1.84,1.29-5.9-.36-7.49,1a8,8,0,0,1-7.37,1.72c-3.23-.65-4.28,3-7,2.79-2.88-.28-5.2.33-6.91,2.85-1.32,1.94-3.16,2.64-5.65,2.66-3.45,0-5.79,3.18-9,4-1.92,3.9-6.83,3.59-9.35,6.64-4.91-1.18-5.47,5.09-9.84,5.64-2.57.33-4.59,4.29-7.26,4.91-5.49,1.26-6.47,8.55-12.65,8.6-1.38,0-.58,2.59-1.23,3.35-2.89,3.38-7,6-9,9.79a32.84,32.84,0,0,1-7.89,10.09c-5.21,4.3-6,11.13-9.91,16.1,1.28,4.29-1.86,6.42-4.26,9-1.7,1.84-1.25,4.94-3.68,6.61-.42.28,3.48,1.16,1.48,3.69a29,29,0,0,0-2.89,5.5A11.36,11.36,0,0,0,273,365.8c-.33,3.05-.39,6.12-.56,9.19-3.47,2.13-1.95,5.57-2.14,8.51a62.62,62.62,0,0,0,0,9.39c.22,2.55-1,4-2.53,5.75a2.77,2.77,0,0,0,.59,3.58c.93.84,2,1.54,1.93,3.24a62.75,62.75,0,0,0,0,9.4c.3,3.35-1.19,6.84,1.76,10.06,2.14,2.35.54,6,.86,9,.1.86-.17,2.26.26,2.51,2.58,1.52,1.7,5,3.79,6.53,3,2.19.56,5.64,2.53,8.47s5.08,6,4.17,10.29c-.35,1.65.95,2.35,1.82,3.27,1.77,1.88,3.94,3.37,3.94,6.5,0,.95,1.69,2,2.73,2.82a9.85,9.85,0,0,0,2.27,1v-1.36c0-1.79,0-3.58,0-5.37-4.71-1.91-.75-7.88-4.75-10.13-.21-3.05-.79-6.13-.51-9.14.3-3.34-3.72-4.6-3-8.34.6-3.16,1.62-7.21-2.19-9.72-.1-3.55-.57-7.13-.19-10.62.42-3.76-3.3-5.74-3-9.67a190.89,190.89,0,0,0,.1-22.82c-.16-4.06,4.14-6.45,3-11-1-3.78-.2-8-.2-12a3.6,3.6,0,0,1,.06-1.32c.17-.38.68-.6.9-1,1.5-2.52,3.43-4.9,4.27-7.63.74-2.38-.51-5.39,2.4-7.08-.75-3.4,3.79-4.75,3.12-8.11,2.93-3.13,3.82-7.51,7.24-10.51,6.79-6,12.28-13.41,21.58-16.2,2.64-.8,3.64-5.15,7.48-4.6,1.9-3.38,5.26-2.56,8.23-2.85,2.44-3.92,6.71-1.36,9.61-2.72,3.21-1.51,6.12-3,9.74-2.5,8.12,1.07,16.76-2.56,24.42,2.7h12.09c3,3.57,7.16,2.93,11,2.59s5.8,4,9.67,2.86a2.56,2.56,0,0,1,2.2.95c1.58,2.41,4.68,1.59,6.72,3.59s5.29,2.17,7.85,3.5c3,1.55,5.58,4.48,8.64,5,3.65.58,4.81,3.87,7.46,4.85,3.42,1.27,5.82,3.49,8.38,5.81,1.15,1,4.21,0,4.23,2,0,3.85,2.92,5.5,5.16,7.24,2.66,2.07,2.63,5.31,4.58,7.62,3.33,3.93,8.75,6.24,9.57,12.14,4.57,3,4.94,9.22,9.5,12.19,1.45.95.76,2.4.91,3.66s-.55,2.83,1,3.6c2.39,1.17.91,4.22,2.84,5.56,2.27,1.58.63,4.47,1.67,6a35.71,35.71,0,0,1,5.93,17.74c4.71,3.13-.81,9.92,4.62,13,.57.32.07,2.55.07,3.89,0,13.44-.29,26.89.19,40.31.14,3.88-3.38,5.91-3,9.65a60.22,60.22,0,0,1-.21,10.65c-.05.67-1.71,1.26-1.73,1.91-.09,3.93-2.93,7.13-3.14,10.75s-.77,6.76-2.89,9.63c1.19,4.32-2.17,6.33-4.47,8.91a3.17,3.17,0,0,0-.85,2.29c.83,4.35-3.13,6.8-4,10.49-.91,3.95-3.76,6.68-6.6,9.35-1,.92-2.72,1.9-2.72,2.85,0,4.88-4.36,6.44-6.88,9.26-2.23,2.48-4,6.12-8.3,5.78a31.61,31.61,0,0,1-9.25,6.84c-2.24,1.09-4.44.24-6.24,1.15s-3.26,2.93-4.95,4.33a4.11,4.11,0,0,1-2.3.88c-3.12.12-6.25.08-9.38.1-2.42,3.84-6.28,2.45-9.66,2.6-3.13.14-6.27,0-9.41,0H403c-3.14,0-6.29.2-9.4-.06-2.49-.21-3.87-3.52-7-2.66-3.26.91-5.78-.95-8.28-2.65-4.31,1.28-6.56-1.8-8.91-4.39-1.13-1.23-2.39-.81-3.65-1s-3.09-.16-3.56-.92c-2.25-3.63-6.79-3.73-9.45-6.58-4.48.09-6.09-4.42-9.61-6-4.22-1.88-8.87-3.24-11.76-7.31-5.11-.22-6.88-6.49-12-6.66-2.85-2.85-5.35-6.23-8.65-8.4s-6.61-3.86-9.26-6.78a97.18,97.18,0,0,0-7.61-7.58c-2.68-2.34-2.5-6.29-5.59-8.54a39,39,0,0,1-8.52-8.53c-2.41-3.32-3.82-7.35-5.85-11-1.22-2.19-1.07-5.19-3.77-6.51s-2.46-4.37-3.7-6.55a41.79,41.79,0,0,0-5.67-8.45c-1.91-2-3.88-5.19-3.69-7.68.35-4.67-4.8-7.59-3.09-12.29-3.9-2.43-1.44-6.66-2.75-9.61-1.42-3.21-3-6.08-2.55-9.73.2-1.69.42-4.17-.53-5-2.4-2.19-1.5-3.42.43-4.89-4.92-4.8-2.06-10.84-2.41-16.3-.47-7.58-.09-15.22-.16-22.83a7.09,7.09,0,0,0-.9-2.3,12.22,12.22,0,0,0-1.89,1.12c-3.08,2.59-4.4,6.45-5,10-.48,3-1.54,5-3.64,6.59-2.62,1.93-1.54,6-4.67,7.49,3.68,2,.39,3.82.24,5.87-.25,3.21-1.77,5.57-2.78,8.33-1.13,3.08,1.24,7.19-2.58,9.69-.09,3.55-.73,7.19-.12,10.61.53,3-5.16,5.71-.16,8.55,0,4.48.77,9.14-.2,13.4-1.13,4.93,3.83,7.72,3,12.39-.41,2.38-1.3,5.42,1,7.53,2.88,2.61.89,5.9,1.55,8.8.17.77,1,1.38,1.24,2.16.8,3.28,2.75,6.15,4.32,8.93,3.26,5.82,5.29,12.33,9.19,17.67,2,2.77,3.77,5.62,5.64,8.45a27,27,0,0,0,6.6,6.64c3,2.21,2.86,6.06,5.54,8.58,9.45,8.9,18.47,18.26,27.66,27.45,1.53,1.53,2.8,3.59,5.5,2.94,3.12,4.38,8.91,5.27,12.24,9.4a20.68,20.68,0,0,0,10.69,6.56c2.49.72,3.79,3.93,6.86,3,1.31,2.73,4.73,2,6.46,3.84s4.74,1.48,6.67,3.64c1.58,1.78,5.3-.81,7.12,2,.7,1.09,1.38,1.32,1.87.38.38-.72.88-1.92.56-2.38-2.16-3.11-2.64-7.29-6-9.62-2.64-1.84-1.87-5.61-4.55-7.65-.87-.66-.16-3.41-.13-5.2s2.56-6.32,3.85-6.41c3-.2,6.35-1.32,8.94.63,2.84,2.14,4.79,5.55,7.76,7.38,4.15,2.56,2.6,7.17,4.73,10.22,2.66,3.8,3,8.81,6.59,12.07.61,6.43,4.82,7.64,10.26,7.11a4.66,4.66,0,0,1,3.55,1.22,8.42,8.42,0,0,0,9.74.7c2.53-1.73,4.75-1.83,7.33-1.92.45,0,.9,0,1.35,0h22.84c2.52-3.38,6.2-2.54,9.64-2.71,3-.14,4.76-4,8.32-2.74.58.2,1.51-.54,2.25-.91,7.06-3.5,13.83-7.59,21.21-10.45,1.05-2.49,4-1.35,5.53-2.86,2.88-2.82,6.17-5.37,8.43-8.63,2.46-3.53,6.8-3.63,9.51-6.52,4.6-4.9,9.24-9.8,14.27-14.23,5.32-4.68,7.23-12.05,13.25-16.06a12.58,12.58,0,0,1,4.72-7.47c.63-.49,1.42-1.46,1.32-2.07-.49-3,2.54-4.18,3.11-6.89s3.81-4.7,6.09-6.79a5.27,5.27,0,0,0,1.65-4.73c-.09-1.31-.08-2.55,1.14-3.57,3.75-3.1,4.53-8.16,7.19-11.69,3.14-4.2.83-11,7.05-13.37.47-.18.7-1.52.7-2.32,0-3.49.38-6.54,2.48-9.79,1.65-2.56-.6-6.52,2.36-9.81,2.37-2.65-1.38-8,3-10.74.07-2.66.62-5.42.1-7.95-.66-3.21,2.63-4.34,2.83-7,.4-5.24-1.83-11,1.06-15.63,3-4.8,1.06-9.49,1.49-14.17C563.65,397.21,563.27,391.8,297.15,478.39ZM195,446.13c0,2.69-1,6.08.2,7.93,3.28,4.87,2.23,10,2.5,15.15.05.84,0,2.1.49,2.43,3.36,2.25,1.84,5.62,2.19,8.55.2,1.71-.22,4.18.74,5,2.62,2.18.83,5.54,2.15,7.19a10.8,10.8,0,0,1,2.48,8.46c3.36,1.91,2.61,5.24,2.85,8.23,3.3,1.38,1.64,5.93,4.75,7.44,1.17,4.9,4.74,8.72,6,13.67.47,1.87,3.27,3,2.56,5.63,1.53.63,3.11,1.16,4.58,1.92,3,1.55,2.82,5.21,4.8,7.39,2.7,3,5.66,5.73,8.51,8.58l8.55,8.55c3.17,3.17,6.32,6.35,9.51,9.5,2.85,2.82,5.74,5.6,8.61,8.4,4.76,0,6.11,4.64,9.28,6.8a8.28,8.28,0,0,0,2.17,1.24c7.4,2.1,12.27,8.83,19.74,10.75,3.47.89,4.15,6,8.51,5.4,2.15,4.39,7.7.93,10.26,4.46,1.32,1.81,3.35.93,5,.83,2.54-.14,3,3.53,5.61,2.75a13.56,13.56,0,0,0,2.21-1.13,3.57,3.57,0,0,0-.59-.94c-1.32-1.12-2.51-2.64-4.05-3.17-1.94-.67-4.2.4-6.15-1.51-1.42-1.39-3.68-1.86-5.43-3-2.13-1.34-5.26-1-6.49-3.77-1.47-3.26-5.31-2.38-7.66-4.53-1.65-1.5-4.86-1.72-6.23-4.05-1.54-2.6-4.74-1.61-6.62-3.7-3.88-4.33-8.49-8-12.19-12.5s-9.6-5.71-13.37-10.26c-4.83-5.84-10.63-10.88-16-16.27-2.85-2.85-6-5.44-8.43-8.64-1.68-2.23-2.1-5.38-3.42-7.94-.78-1.51-2.25-2.64-3.34-4-2.39-3-3.75-6.58-6.49-9.5s-2.6-7.93-5.87-10.91a11.42,11.42,0,0,0-4.72-10.18,3.32,3.32,0,0,1-1-2.23c-.12-2.23.86-5.21-.24-6.55-1.85-2.26-2.83-4.31-2.49-7.12.29-2.42-3.18-2.93-2.76-5.61.35-2.19,0-4.47.09-6.71.15-3.52-4.57-5.66-2.7-9.64q0-18.13,0-36.28c0-2.63-.05-5,2.16-7.27,1.15-1.19.35-4.21.55-6.4.26-2.74-2.19-3.61-3.49-5.27a1,1,0,0,0-.91-.19c-.38.19-.88.56-.94.92-.77,4.58,2,9.87-2.74,13.65q0,8.07,0,16.13c0,.88.26,2.26-.18,2.55C193.7,438.93,195.37,442.78,195,446.13ZM376.89,368c-4.34,2-5.8,7.85-11.33,8.07-.43,0-1.24,1.43-1.14,2.07.55,3.49-1,5.92-3.57,7.92l-4.56,8.81c1.4,3.5-2.74,5.19-2.69,8.25.07,3.47-.11,6.6-2.48,9.74-1.3,1.73-.46,5.08-.58,7.71-3.75,2.53-2,6.4-2.24,9.74-.05.59.88,1.26,1.36,1.89a5.21,5.21,0,0,1,.95-.93c2.48-1.46,2.19-4.87,3.9-6.32,3.13-2.66,3.66-6.93,6.55-9.36,3.45-2.88,3.88-7.49,7.3-10.53,2.95-2.62,3.45-7.47,5.91-10.78,1.91-2.55-.88-6.43,2.73-8.27a1.49,1.49,0,0,0,.76-1,49.63,49.63,0,0,0,0-6.68C377.4,374.9,378.86,371.29,376.89,368ZM316,430.49v8.06c5,5.28,1.77,11.8,2.68,17.7.06.44-.18,1.06,0,1.31a4.64,4.64,0,0,0,1.73,1.13c.17.07.88-.58.88-.9.05-13.43,0-26.87,0-40.3,0-1.8-.76-4.41.13-5.24,4.44-4.12,2-9.12,2.36-13.74,0-.3-.55-.75-.93-.9-.21-.09-.87.24-.89.44-.27,2.59,0,5.35-.79,7.75-.92,2.76-3.18,5-2.66,8.35.33,2.1.62,5.25-.55,6.33C314.68,423.57,316.44,427.15,316,430.49Zm31.15,206.08a48.18,48.18,0,0,0-5.39.08c-.45.05-.88,1-1.13,1.67-.06.16.69.94.87.87,3.13-1.1,4.15,3.14,6.89,2.73s4.68,1.45,7,2.5c2.93,1.34,6.6-.79,9.88,2.09,2.29,2,6.77.2,9.25,3.4.22.28,2.35-.59,3.25-1.34a2.61,2.61,0,0,0,0-2.52c-1-1.42-2.52-2.5-3.66-3.84-1.81-2.13-3.75-3.33-6.8-3-4,.36-8.35,1.06-11.87-.23C352.62,637.93,350.27,636,347.12,636.57Zm-10.93-21.51a17.59,17.59,0,0,0,2.62,0c.35,0,.94-.67.88-.87-.21-.63-.6-1.65-1-1.69a32.6,32.6,0,0,0-5.23,0c-.32,0-.93.67-.87.86.2.64.53,1.52,1,1.71A7.7,7.7,0,0,0,336.19,615.06ZM501.47,246.81l2.23-.93a11.23,11.23,0,0,0-1-1.81,19.63,19.63,0,0,0-1.81-1.84,10.55,10.55,0,0,0-.91-.71c-.41.68-1.11,1.34-1.19,2.07C498.6,245.46,499.15,246.94,501.47,246.81Zm-6.32-3.13.92-.92c-.31-.31-.56-.77-.93-.89a5.21,5.21,0,0,0-2.39-.39,6.89,6.89,0,0,0-2.06,1.28,6.89,6.89,0,0,0,2.06,1.28A7.11,7.11,0,0,0,495.15,243.68ZM248.77,364.42l-1.35-2c-.45.68-1.32,1.41-1.25,2a13.39,13.39,0,0,0,1.25,3.35Zm-40.72,34.64-1-1.73c-.3.29-.89.66-.84.88a8.15,8.15,0,0,0,.84,1.8C207.4,399.72,207.7,399.42,208.05,399.06Z"/><path d="M756.17,402.5c4,0,8.21.69,12.06-.17,5.24-1.16,8.56,3.93,13.73,3,4.34-.77,8.93-.16,13.41-.16,2.87,5.52,9.61.08,12.93,4.55a3,3,0,0,0,2.31.78c6.25-.52,11.92.8,16.78,5,6.93.56,12.35,4.75,18.37,7.56,5.65,2.64,11.16,5.52,16.68,8.41,2.28,1.19,4.52,2.11,6.45,3.93,2.14,2,3.66,4.56,7.35,5.05,2.66.36,3.47,5.07,7.23,5.14.73,0,1.47.77,2.14,1.27,4.14,3.06,6.27,8.71,12.2,9.49l12.35,12.35c3.8,3.8,7.5,7.71,11.44,11.36,2.3,2.12,1.75,5.67,4.64,7.59,2.56,1.7,4.42,4.42,6.75,6.51,1.71,1.54.57,4.17,2.74,5.69,1.63,1.14,3.71,2.38,3.74,5.11,0,2.5,2.79,3.24,3.91,5.08s1.62,4,3,5.45c1.81,2,.55,4.28,1.21,6.26.51,1.55,1.82,2.81,2.59,4.3,1.32,2.58,2.41,5.28,3.75,7.85s3.85,5,4.08,7.63c.28,3.21,2.59,5.73,2.64,8.28.1,4.21,2.57,7.19,4,10.56.85,2,1.91,3.81,1.68,6-.29,2.83.64,4.89,2.57,7.08,1.22,1.39-.84,4.33,1.17,6.17a4.33,4.33,0,0,1,1.72,3.34c.08,4.25-1.15,8.76,2.54,12.42.67.67,0,2.6.11,3.93.63,5.94-2,12.38,2.67,17.7,0,4,.16,8.08-.06,12.09-.13,2.47,1,4,2.41,5.79,1.17,1.45.3,3.39-1.35,4.48-1.15.75-1.15,1.16-.13,1.95,2,1.53,2.93,3.4.75,5.5-1.85,1.78-2.38,3.44-.46,5.59a4.9,4.9,0,0,1,1.4,3.36c-.19,1.41-1.72,2.67-1.82,4-.08,1,1.42,2,1.89,3.17.31.77,0,1.78.08,2.66.37,2.83-3.61,3.77-2.81,7,.53,2.11.1,4.45.1,6.69,0,2.69-.34,5.43.08,8.05.61,3.71-1.35,5.9-3.85,7.84-2.29,1.77.56,3,.36,3.78-.65,2.7-2.39,5-2.06,8.14.3,3,.89,6.19-2.32,8.48-.66.48-.34,2.52-.25,3.83a9.23,9.23,0,0,1-2.49,7.13c-1.39,1.65.69,5-2,7.19-2.43,1.94.43,5.82-2.75,8.35-2,1.57-2.53,5.1-3.47,7.83-1.17,3.38-2.21,1.05-3.35.07a5.08,5.08,0,0,0-.95-.51,14.45,14.45,0,0,0-1.09,2.24c-.45,1.57,1,2.26,1.68,3.32,1.38,2.1,1.32,2.16,0,4.56a4.74,4.74,0,0,1-.94,1c-2.13,2,.57,5.24-1.87,7.31a39.74,39.74,0,0,0-5.68,5.7c-2.83,3.64-3.08,8.76-6.68,12,.76,2.66-2.39,3.87-2.47,5.62-.11,2.61-2.09,3.69-2.88,5.6-.31.77.05,2-.42,2.49-2.1,2.33-4.69,4.26-6.51,6.76a24.23,24.23,0,0,0-3.74,7.82c-.79,2.91-4.12,3.73-4.73,6.09-.84,3.21-2.76,5.26-4.9,7.41-1.81,1.81-1.09,5.17-3.82,6.47-3.13,1.5-2.27,5.47-4.72,7.48-2.06,1.7-3.83,3.76-5.73,5.66s-3.56,4.17-5.76,5.61c-3.2,2.11-2.41,6.42-5.58,8.58-2.54,1.73-4.5,4.33-6.71,6.55-2.54,2.54-5,5.17-7.62,7.58-4.79,4.38-9,9.25-14.86,12.67-5.24,3-8.63,9.12-13.62,12.8-3.05,2.26-6.28,4.31-9.3,6.71-1.44,1.15-5,0-6,1.25-2.68,3.1-6.66,3.95-9.47,6.54a22.08,22.08,0,0,1-6.42,4c-1.94.85-3.52,2.29-5.89,2.08a3.26,3.26,0,0,0-2.39.57c-2.39,2.57-5.56,3.92-8.3,5.86-4.33,3.05-7.2,8.35-11.7,10.94a49.18,49.18,0,0,0-12,9.82,29,29,0,0,1-11.69,7.54c-1.83.68-2.76,2.47-4.24,2.7-1.84.29-3.13,1.38-4.62,1.87-3.94,1.31-7.1,4.66-12,3.82-3.72-.65-7.94-1-11,2.51-.19.22-.93.17-1.3,0-2-.91-3.84-4-5.9-.12-4.3-4.89-10-1.54-15-2.54-2.87-.58-4.83-3.93-8.29-2.69-6.28-3.23-12.93-5.91-18.68-9.9-3.06-2.13-5.47-3.88-9.35-3.64s-8,1.16-11-2.59l-10.67-.2c-2.45-3.91-6.76-1.3-9.62-2.7-3.21-1.57-6.13-2.92-9.74-2.52a3.55,3.55,0,0,1-2.44-.52c-4-3.29-9.1-4-13.72-5.83-5-2-9.67-4.75-14.53-7.09-4.49-2.16-8.8-4.71-13.24-7-3.33-1.69-7.46-2.48-9.94-4.95a24.15,24.15,0,0,0-10.79-6.52c-4.16-1-4.91-6.81-9.79-5.76-.25,0-.63-.56-1-.84-4.31-3.57-7.06-9.11-13.13-10.46-4.12-4.11-8.53-8-12.24-12.44-2.14-2.57-5.63-2.31-7.52-4.69-2.67-3.35-7.51-5-7.89-10.15-3.08-3.21-6.14-6.43-9.25-9.6s-6.33-6.34-9.5-9.51c.27-4.88-5-6-6.52-9.4a25.94,25.94,0,0,0-6.81-9.25c-2.16-1.88-3.49-3.89-2.92-6.91a3,3,0,0,0-.88-2.26c-6.3-6-8-14.66-12.5-21.72-1.78-2.82-2.45-6.23-4.59-8.84-2-2.43.93-6.42-2.79-8.32-.5-.25-.68-1.54-.65-2.34a17,17,0,0,0-2.48-9.78c-1.58-2.65,1.17-7.1-2.61-9.63-.11-4.43-.19-8.87-.33-13.3-.1-3,.67-6.08-2.39-8.52-.89-.72-1-4.28-.16-5,3.79-3.24,2.48-7.34,2.51-11.14.12-14.33.3-28.67-.12-43-.11-3.83,2-6.45,2.72-9.68.69-3-.82-6.83.57-9.14s2.71-4.52,2.19-7.17c-.8-4.17,1.19-7.58,2.86-10.93,1.36-2.72,3.16-5.05,2.64-8.36a5.69,5.69,0,0,1,.64-3.72c2.35-3.48,3.3-7.88,5.83-11,2.7-3.26-.34-8.34,4.22-10.43,2.74-7.88,7.69-14.72,10.61-22.47.88-2.35,2.88-3.25,3.95-5.1s1.48-4.22,3-5.41c2.88-2.31,3.95-5.54,5.6-8.51,1.44-2.57,1.89-5.77,4.76-7.43,2.49-1.44,1.17-5,3.77-6.54,3.9-2.32,3.75-7.61,7.54-10.36,3.58-2.6,6.41-6.23,9.6-9.37s3.91-7.6,7.53-10.38c3.17-2.44,5.77-5.62,8.62-8.47l9.5-9.5c2.85-2.85,5.57-5.85,8.58-8.52,4.18-3.71,7.06-9.1,13.11-10.48.17-3.52,3.62-3.84,5.35-5.71,5.12-5.51,12.52-8.09,17.13-14.08.27-.35.66-.94.94-.91,4.34.46,5.36-4.87,8.53-5.26,3.8-.47,5.06-3.34,7.24-5.3s3.79-3.73,6.86-3c1.56.38,2.56-.65,3.3-1.7,2.61-3.7,7.35-4.2,10.53-7.38,2.42-2.42,6.8-3.2,9.74-5.21,2.57-1.75,4.95-1.23,7.33-2,1.91-.59,3-3.32,5.65-2.56,1.35-2.66,4.75-2,6.43-3.84,1.85-2,4.08-1.1,6.1-1.63,1.54-.41,2.76-2.19,4.3-2.49,3.31-.66,5.69-4.47,9.62-2.79,1.87-2.59,5.54-2.06,7.61-4.39a4.11,4.11,0,0,1,2.26-1c2.91-.47,6.1,1,8.67-1.87,2.07-2.32,6.4.89,8.2-2.89a1.47,1.47,0,0,1,1.06-.62c4.66-.37,9.72,1.37,13.69-2.68.22-.23.87,0,1.32,0,5.11-.27,10.54,1.24,15-2.68ZM825.31,553h1.2c0-.39.16-.91,0-1.17-.63-.89-1.39-2-2.34-.37-.13.21.75,1,5.05,4.65,0-.42.15-.92,0-1.23-.38-.68-.85-1.71-1.41-1.8-2.49-.39-.92,1.59-1.19,2.44a1.84,1.84,0,0,0,1.54,2.53C828.35,558.12,828.83,556.82,825.31,553Zm-23-18.81c-1-4.25-3.89-5.81-10.79-5.38a11.69,11.69,0,0,0,2.72,0c1.12-.28.12-2.39-2.11-2.46-2.88-.09-3.88-3.84-6.9-2.86a2.63,2.63,0,0,0-1,.67c-.22.24-.49.8-.39.91,2.06,2.33,4,4.89,10.45,3.78,1,4.25,3.89,5.81,8.06,5.38,1.06,4.24,3.9,5.81,10.54,6.94a10.19,10.19,0,0,0-1.3-1.53,1.14,1.14,0,0,0-1.13,0,1.12,1.12,0,0,0,0,1.12A5.34,5.34,0,0,0,812,542c.1,0,.53-.52-1.62-2.4C809.32,535.35,806.48,533.79,802.31,534.22ZM649.49,803a18.41,18.41,0,0,0,2.68,0c2.52-.37,5.31,1,7.56-1.19s5.43-2.08,7.52-4.67a78.84,78.84,0,0,1,10.39-10.44c3.43-2.89,3.93-7.62,7.44-10.46,1.47-1.19,2-3.58,2.93-5.42s1.51-4.09,2.92-5.44c2.73-2.6,4.86-5.16,3.86-9.19,3-2.09,3-5.14,2.69-8.28,0-.44,0-.89,0-1.34-.77.31-1.88.42-2.22,1-.84,1.4-.42,3.22-1.92,4.59-3.63,3.32-7,6.9-10.48,10.38-3.16,3.16-6.2,6.47-9.52,9.45-3.58,3.2-6.08,7.64-10.79,9.53s-7.16,6.39-10.8,9.52c-1.11,1-2.29,1-3.51,1.32-2,.59-3,3.32-5.63,2.65-.26-.07-.78.4-1,.74-.82,1.33-3.41,1.88-2.61,3.72a6.61,6.61,0,0,0,3.82,3.41c2.07.59,4.43.15,56.22-61.45-.29.14-.8.23-.85.44-.3,1.13-.43,2.32-.74,3.45s0,1.71,1.26,1.24a1.82,1.82,0,0,0,.9-.81C700.54,743.91,700.22,741.73,649.49,803Zm-47.3-48.39c.4,0,1,.16,1.16,0a1.16,1.16,0,0,0,0-1.13c-.62-.89-1.39-2-2.33-.38-.13.22.75,1,96.45-102.11,0-2.24,0-4.48,0-6.72,0-3.12,1-6.86-.4-9.18a16.58,16.58,0,0,1-2.39-7.16c-.3-2.7-3.79-5-6.68-5q-3.36,0-6.72,0c-1.78,0-3.53,2.25-2.56,3.48,1.61,2,1.92,5,3.53,6.54,3.6,3.32,5.11,6.84,4.55,11.69a52.72,52.72,0,0,0,0,10.73c.14,1.44,1.49,2.77,2.28,4.14-4.14,3.51-1.76,8.27-2.38,12.45-.19,1.28.15,3.26-.55,3.72-2.5,1.64-1.5,5-3.7,6.63-2.73,2.07-.44,5.54-2.62,8.4-3.25,4.26-4.22,10.16-8.8,13.74.67,5.06-6.42,6-5.84,11-2.38,3.61-6.26,5.77-8.3,10-1.84,3.8-5.69,6.62-8.67,9.86a23.87,23.87,0,0,1-2.86,2.83c-1.63,1.25-1.82,2.86-1.7,4.7a4,4,0,0,1-1.1,3.59,103.74,103.74,0,0,0-9.46,9.53c-2.85,3.49-6.24,4.49-10.47,4.1a27.3,27.3,0,0,0-6.7,0c-4.48.69-7.62-1.17-10.32-4.45-.46-.57-1.48-.67-2.25-1,0,1.35-.57,3.19.1,4,3,3.33,6.26,6.36,9.44,9.49,3.1-1.12,4.2,3.47,6.93,2.61s4.94-3.46,8.33-2.69c.58.13,1.59-.68,2.08-1.31,3.29-4.18,8.76-5.29,12.35-9.36,6.5-7.38,13.84-14,20.75-21,2.08-2.12,4-4.09,5.1-7.31,1-3,4.81-5.12,7.22-7.76.46-.51-.1-1.9.33-2.51,2.7-3.76,4-8.27,6.48-12.09s2.94-8.86,6.55-12.09c-.43-5,2.82-8.68,4.77-12.81.18-.38.88-.64.89-1,.08-3.13-.09-6.27.12-9.39.2-2.93,3.4-4.72,2.8-8.32C697,659.13,697.48,655,602.19,754.64ZM747.35,674h1.2c0-.4.16-.91,0-1.18-.62-.88-1.39-2-2.33-.37-.13.22.75,1,10.43,47v-9.38c0-3.12-.54-6.37.13-9.34.83-3.64-2.68-5.26-2.87-8.3s1.35-6.35-2.11-8.48c-.31-3-.59-6-1-9,0-.35-.54-.78-.92-.92-1.31-.52-1,.5-1.48,1.21-1.23,1.79-2.73,3.08-2.62,5.69.26,6.24-.25,12.52.2,18.74.29,4-.9,6.84-4,9.13-2.45,1.8-.06,2.63.77,3.79a2.76,2.76,0,0,1,.4,1.17,2.27,2.27,0,0,1,0,1.32c-1.18,2-3.87,3.85-.07,5.87-4.08,2.61-1.09,8.57-5.28,11.13,1.54,3.88-2.72,6.41-2.5,9.59.31,4.53-3.23,6-5.21,8.67a3.27,3.27,0,0,0-.31,2.5c.94,3.1-2.64,4.42-2.66,6.94,0,2.76-.06,5.31-2.74,6.93,1.16,3.12-2.82,4.14-2.76,6.92,0,2.6-3.75,3.75-2.9,6.81-2.68,1.33-2.57,4.37-3.6,6.56-1.4,3-3,5.92-4.46,8.84-1.67,3.41-5.28,5.86-8,8.76-2.34,2.47-5.23,4.43-5.86,8.33a5.2,5.2,0,0,1-3.74,3.35c-2.68.11-4.17,1.65-5.31,3.36-1.65,2.48-4.75,1.72-6.62,3.67-1.72,1.79-3,4.67-6.4,4-.19,0-.72,1.1-.89,1.75-.05.19.59.81.92.81,3.58.06,7.24-.46,10.7.17,3.92.73,6.52-2.63,9.62-2.59,5.06.08,9.17-1.79,13-4.31,2.13-1.39,5.23-1,6.55-3.66,4.71.62,5.76-4.78,9.67-5.82a11,11,0,0,0,7.93-7.83c1-4,6.63-4.9,5.75-9.7,3-2.62,3-7.06,5.34-9.78,2.55-2.94,1.3-7.25,3.38-9.26,3.17-3.07-.18-8.41,4.51-10.32-.17-3.1-.35-6.21,2.72-8.25,0-2.68-.11-5.36,0-8,.12-2.52-.7-5.06,1.83-7.34,2.06-1.86.7-5,.78-7.62C756.73,730.16,756.62,724.8,747.35,674Zm99.46-129H848c0-.4.16-.91,0-1.18-.62-.88-1.39-2-2.33-.37-.13.22.75,1,48.06,108.08V640.76c-4.74-4.32-2-10-2.64-15-.29-2.21.88-5.36-.24-6.53-2.49-2.61-2.66-5.36-2.55-8.45-3.4-1.89-1.44-6.19-3.08-8-2.53-2.82-2-5.61-2.3-8.58a9.92,9.92,0,0,0-1.28-3.48c-2.93-5.49-5.44-11.2-8.52-16.62-1.24-2.18-1.18-5.13-3.81-6.47s-1.92-4.67-3.78-6.51c-5.41-5.35-10.77-10.76-16.18-16.1a1.28,1.28,0,0,0-1.27,0c-.22.23-.09.85,0,1.3.14,1.25-.51,2.65.93,3.65,2.59,1.8,1.71,5.7,4.71,7.5s2.56,6.38,5.74,8.31c2.28,1.38,2.28,3.62,2,5.86s2,2.77,2.63,4.29c.78,2-.6,4.18,1,6.34,3,4.18,5.23,8.78,4.52,14.24,0,.38.06,1,.32,1.17,3.34,2.13,2.92,5.69,2.17,8.4-1.15,4.16,2.94,6.19,2.88,9.68-.06,3.14,0,6.27,0,9.41s.61,6.42-.15,9.36c-1,3.73,3.52,4.87,3,8.34-.48,3,.5,6.29-2.79,8.28,5.14,2.84-1.24,5.53-.14,8.56.71,2,.33,4.45.09,6.66-.64,5.93,2.22,12.4-2.65,17.69l-.45,10.56c-3.8,2.58-2.33,6.52-2.09,9.81.28,3.76-4.15,5.78-2.86,9.65.52,1.54-.82,2.35-1.69,3.31-2.38,2.61.92,7.47-3.64,9.28-.15.06-.08.85,0,1.29.72,4.06-2.16,7.47-2.34,11s-3.6,5.14-3,8.26c.76,3.9-3.47,5.83-3.35,9.39-3.81,1.75-.45,6.42-2.94,8.09-3.64,2.45-.18,6.83-3.55,9.5-2,1.58-2.93,5-3.51,7.78-.45,2.17-.31,4.24-2.31,5.82-1.74,1.39-3.1,3.24-4.8,4.68s-.08,2.23.67,2.82c1.09.85.71,1,.07,2-2,3.25-3.59,6.79-6.71,9.3-1.93,1.56-4.52,3.32-.66,5.67-2.34,1.53-2,4.51-3.51,6.47-2.57,3.4-6.49,5.5-7.83,10.22-.76,2.64-4.2,4.48-6.38,6.74s-5.46,4.24-6,6.84c-.79,3.63-3.57,4.9-5.43,7.19a47.12,47.12,0,0,1-5.68,5.71c-2.21,1.95-5.38,2.19-7.51,4.69-3,3.58-6.17,7.38-11.13,8.63-2,3.07-6.23,3.47-8.16,5.88-2.7,3.36-7.23,3.08-9.61,6.33-4.35-.59-5.18,4.81-8.54,5.23-3.18.39-4.23,2.91-6.28,4.4l-9.16,3.82a4.33,4.33,0,0,0-4.61,1.86c-2,2.66-4.53,3.47-7.92,3.74-2.7.23-5,3.35-8.31,2.46-2.42,3.11-6.17,2.42-9.37,3.3-1.85,4.18-6.6.57-9.33,3.66-2.55,2.9-6.75.77-10.19,1-4.94.35-5,.1-11,2.77-2.6,1.16-3.39,3.1-1.81,4.71q5.18,5.28,10.47,10.43a3.87,3.87,0,0,0,2.26,1c2.23.12,4.47,0,6.71,0,1.94,3.54,3.73.51,5.86.24,5.73-.71,11.61-.21,17.43-.25,2.2,0,5.29.7,6.43-.44,3.47-3.51,7.5-1.8,11.26-2.19,2.66-.27,5.38.09,8-.11a5.83,5.83,0,0,0,3.41-1.38c2.61-2.54,7.33.34,9.22-3.74,3.7.74,6.59-2.63,9.55-2.57,4.61.09,7.57-4.87,12.27-3.12,1.88-3.43,5.71-1.64,8.13-3,2.63-1.49,4.52-4.27,6.74-6.49,2.85-2.84,5.73-5.66,8.54-8.55a77.87,77.87,0,0,0,8.86-11c2.8-4.2,4.69-9.42,9.21-12.36,4.27-2.77,5.21-7.77,8.09-11.46.73-.94.6-2.87,1.44-3.34,3.78-2.13,3.48-7,6.59-9.43-.9-5.13,6.52-6,5.69-11.08,3-2.62,3.21-6.79,5.23-9.89s4.72-6.59,4.94-9.95c.24-3.73,3.67-5.94,3.12-9.57,4.29-1.81,1.84-6.28,3.65-9.26a117.6,117.6,0,0,0,7.88-15.51c.64-1.52,2.29-2.68,1.8-4.62-1.21-4.76,2.21-8,3.82-11.85.48-1.12,2.08-1.9,1.54-3.37-1.31-3.55,3.26-5.22,2.66-8.29-.77-3.92,3.55-5.82,3.32-9.41,4-2.24.29-7.94,4.64-10.31.77-.42.16-3.37.17-5.15s-.75-4.51.13-5.22c4-3.17,2.07-7.36,2.65-11.09,4.44-3.37,1.93-8.2,2.6-12.36.06-.41,0-1,.26-1.21,3.84-2.52,2.82-6.56,2.22-9.72-.77-4.06,3.25-5.73,3.16-9.68-.16-7.23-2.45-15,2.42-21.71C893.71,657.77,893.71,654.63,846.81,545Zm-2.76,328c4.07-4.1,8.08-8.33,12.32-12.29,1.13-1.06,3.19-1.07,4.48-2,1.77-1.33,3.93-2.83,4.67-4.74,2.7-6.92,9-10.61,13.39-16,2.2-2.69,6-4.11,6.72-7.95s4.65-5.15,6.62-8c.49-.7,1.4-1.4,1.39-2.09-.09-3.83,4.51-4.62,5-7.3a10.56,10.56,0,0,1,4.09-6.39c2.4-2,1.57-5.89,4.67-7.57A4.78,4.78,0,0,0,910,794.3c0-1,1.48-2,2.23-3.06,1-1.37,3.16-2,3-4.12-.24-2.81,3.92-3.82,2.72-7,1.76-1.43,2.33-3.34,3.06-5.46.8-2.3,4-3.76,4.8-6.05s-.22-5.33,2.59-7c-.26-3.06,2-4.64,3.79-6.51.88-.9,2.29-1.55,1.88-3.24-1-4.34,3-6.82,3.89-10.49.8-3.23,3.63-5.67,4.12-9,.42-2.95-.3-5.78,2.26-8.59,1.69-1.84-.36-6.14,3.07-8,.06-3-.43-6.27,2.79-8.25,0-2.69.44-5.47-.11-8-.7-3.21,2.81-4.15,2.89-7,.15-5.09-1.76-10.63,2.6-15,0-4.48-.75-9.13.2-13.4,1-4.55,2.85-8.8,2.58-13.72-.38-7.14-.1-14.33-.1-21.49,0-1.35.57-3.16-.09-4-5.17-6.35-1.64-13.68-2.54-20.47-.35-2.64,0-5.37-.09-8.06,0-.8-.17-2-.7-2.33-2.92-1.91-2.28-4.9-1.81-7.28.64-3.24-2.81-4.23-2.9-7-.09-2.94,1.07-6.07-1.83-8.68-2.24-2,.89-6.39-2.92-8.14-.72-5.08-.14-10.66-5.66-13.85-.43-.25-.31-1.65-.25-2.51a7.45,7.45,0,0,0-1.57-4.76c-2-3.11-3.27-6.68-4.88-10s-2.87-7.08-5-10c-2.23-3.11-4.82-6-6.44-9.49-.69-1.51-.84-3.65-2-4.49-5.81-4.26-7.78-11.51-13.15-16.18-5.73-5-10.85-10.68-16.24-16.06-1-.95-1.8-2.59-2.86-2.74-5-.68-7.35-4.68-10.16-7.82-3-3.34-8.18-3.32-10.41-7.5-1.79-3.35-5.59-3.8-8.39-5.7-2.08-1.41-4.6-1.66-6.59-3.69-5.08-5.16-12.94-5.82-18.46-10.51a3.31,3.31,0,0,0-2.56-.18c-3.8,1.05-6.47-1.77-9.68-2.58-2.53-.63-3.76-4-6.92-2.86-3.38,1.18-4.66-4.12-8.31-2.72-2.55,1-3.54-2.45-5.59-2.56a78.1,78.1,0,0,0-13.42,0c-5,.59-8.55-4-13.71-2.93-3.43.72-7.14.13-10.72.13-3.14,0-6.32.35-9.4-.08-3.76-.53-6.5,1.77-9.7,2.55a26.43,26.43,0,0,1-12,0c-4.53-1.09-7.05,3.05-11,2.94-2.49-.06-5.26-1-7.33,1.79-1.72,2.34-5.33-.65-7.2,2-1.62,2.24-4,1.14-6.07,1.62-2.4.57-3.91,3.31-7,2.69s-4.68,3.27-8.31,2.9c-2.5-.26-5.49,1.74-7.85,3.34-1.53,1.05-2.75,2.11-4.67,1.76l-9.17,3.83c-1.9,3.92-6.86,3.54-9.34,6.65-3.43-.95-4.74,3.94-8.18,3-2,3.16-6.45,2.38-8.52,5.38-2.72-.58-4.22,1.39-5.37,3.12-1.65,2.49-4.79,1.72-6.61,3.71s-5.14,1.11-6.45,3.84c-1.5,3.13-5.36,2.38-7.51,4.68-2.6,2.8-5.08,5.57-9.19,7-3.87,1.31-5.13,6.83-10.33,7.61-2.14.32-4.22,3.3-5.65,5.5-1.87,2.9-6.09,1.42-7.55,4.69-.84,1.89-1.88,3.7-2.83,5.54-3.38-.8-4.64,2.09-6.46,3.84-2.89,2.76-5.58,5.73-8.36,8.61,1,4.75-7,3.15-5.76,8.13-4.75,4.75-9.49,9.52-14.26,14.25-1.89,1.88-3.85,3.69-5.77,5.53-5.78-.52-3.05,3.94-3.83,6.4a6.14,6.14,0,0,1-1.64,2,51.77,51.77,0,0,0-4.69,4.8c-1.22,1.64-1.54,4.14-3,5.39-2.76,2.36-3.37,6.35-5.79,8.27-3.37,2.69-3.07,7.24-6.33,9.62.57,4.34-4.81,5.17-5.23,8.54-.39,3.19-3.49,4-4.28,6.33-1.23,3.53-5,6.16-3.88,10.46.24.92-1.4,3,1.3,2.7,1.26-.13,2.68.51,3.66-1s2.82-2.71,2.88-4.12c.13-2.8,4-3.83,2.86-6.94l5.64-5.72a43.3,43.3,0,0,0,4.69-4.8c1.68-2.33,4.79-1.39,6.66-3.67A88,88,0,0,1,534,578.17c3.88-3.37,6.26-8.72,12.14-9.55,3.41-3.3,6.56-6.69,11.15-8.77,3.05-1.39,5.39-4.67,7.64-7.44,2.56-3.14,6.36-4.31,9.34-6.67,2.79-2.21,4.79-5.54,7.75-7.38s6.55-2.81,8.19-5.91c1.92-3.63,6.22-2.89,8.55-5.6a10,10,0,0,1,5.22-3.62c2.27-.62,3.75-4,6-4.76,2.13-.73,4-1.31,5.47-3.07,3.13,1.22,4.46-2.11,6.87-2.92,3.16-1.07,6.5-1.87,9.44-3.11a70.92,70.92,0,0,0,8.84-4.66c2.46-1.48,6.14-1.71,7.72-3.71,2.67-3.38,6.7-.34,9.59-3.45s8.79,1,11.79-3.65c5.07,1.72,9-2.29,13.67-2.69,6.4-.56,13.21,1.82,19.05-2.69,17.47,0,34.94-.09,52.41.13,1.82,0,2.94,2.71,5.6,2.69,4.81,0,10.22-1.8,14.31.89,4.79,3.15,9.53.65,14.14,1.69a11.92,11.92,0,0,1,2.28,1c4.15,1.92,7.8,5.18,12.82,4.74a5.23,5.23,0,0,0,5.75,2.3c2.67-.59,3.34,2.68,5.61,2.71,3,0,4.76,4,8.31,2.73,1.57-.58,2.26,1,3.28,1.75a52.92,52.92,0,0,0,5.1,3.82c5.06,2.93,9.53,6.86,15.31,8.55,2.16,3.55,6.49,4.1,9.31,6.68,3.3,3,6.39,6.28,9.52,9.48,2.7,2.76,6.12,5,6.66,9.33,4.09,2.28,4.25,7.48,7.61,10.29a37.15,37.15,0,0,1,11.4,16.78c3,1.81.63,5.55,2.09,7.09,1.94,2.06,1.66,5.11,3.67,6.59,3.05,2.26-.28,6.31,2.79,8.31s-.23,6,2.79,8.31c2.85,2.15-.48,7.31,3.86,9.1.54,3-1.26,6.56,1,8.91,3.14,3.2,1,6.78,1.67,10.11,1.18,6.3-2.44,13.29,2.73,19-.09,2.65.54,5.63-.47,7.86-.88,1.91-2.38,3.36-2.28,5.81.2,4.92-.25,9.88.14,14.77s-1.11,9.24-2.65,13.72c-.69,2-.4,4.48,0,6.67.42,2.69-2.89,3.3-2.74,5.61.18,2.76,0,5.34-2.65,7,.84,1,2.39,1.94,2.34,2.84s-2.16,1.91-2.28,3c-.33,3.1.64,6.52-.32,9.33-1,3-2.1,6.45-4.8,8.77a1.06,1.06,0,0,0,.24.89c3.11,2,.92,3.35-.59,4.78,1.16,3.12-3.14,4.17-2.68,6.93.49,2.93-1.48,4.73-2.53,7s-.45,4.71-2.11,7.25-.83,6.64-3.46,9.26c1.72,4.29-3.24,6.7-3,11,.18,3-3.63,5.82-2.4,9.62-3.26,1.92-2.58,6.32-5.38,8.53.7,3.28-1,5.71-2.62,8.33-1.71,2.82-2.75,6-4.41,8.91-1.25,2.16-1.05,5.18-3.72,6.53,1.33,3.53-4.1,4.71-2.87,8.21-2.76,1.66-2.57,4.33-2.57,7a3.85,3.85,0,0,1-1.25,2.14c-7.09,7.49-8.92,18-14.74,26.18-.67.95,0,2.57-346.84-253.36.42-1.25,0-1.7-1.25-1.23a1.69,1.69,0,0,0-.89.81,5,5,0,0,0-.49,2.27,6.88,6.88,0,0,0,1.05,2c.53-.47,1.31-.84,1.51-1.42C496.07,617.85,495.87,617,844.05,873ZM573.82,755.06c0-.42.15-.92,0-1.23-.38-.68-.85-1.71-1.42-1.8-2.48-.39-.91,1.59-1.18,2.44a1.84,1.84,0,0,0,1.54,2.53c.25,0,.72-1.26,267.22-93.91V652.34c0-4-.56-8.16.15-12.06s-2.15-6.43-2.75-9.69a19.3,19.3,0,0,1,0-8c.94-3.64-3.4-5.24-2.74-8.31,1-4.72-2.09-8.14-3.5-12-.54-1.49-1.7-2.7-2.12-4.52s-2.07-3.41-2.82-5.54c-.94-2.67-4.13-4.53-6.31-6.78s-2.16-5.38-4.66-7.54a127.29,127.29,0,0,1-13.31-13.27c-2.95-3.41-8-3.47-10.5-7.45-.73-1.15-3.13-1.09-4.43-2-5.8-4.17-12.69-6.25-18.78-10-3.46-2.1-7.55-3.36-11.1-5.56-4.58,1.26-7.55-4.3-12.37-2.84-1.28.39-2-2.47-4.21-2.62-4.2-.29-9,1.91-12.33-2.6-2.69,0-5.39-.2-8.06.05-3.24.3-5.66-1-8.43-2.51-2-1.15-5.28-.5-7.92-.17-6.36.79-13.3-2.46-19.06,2.63-4.7.13-9.39-.58-13.79,2.51-1.84,1.29-5.91-.36-7.49,1a7.94,7.94,0,0,1-7.37,1.71c-3.23-.65-4.29,3.05-7,2.79-2.87-.28-5.19.33-6.91,2.86-1.31,1.93-3.15,2.64-5.64,2.65-3.45,0-5.79,3.18-9,4-1.92,3.89-6.83,3.58-9.35,6.63-4.9-1.18-5.46,5.09-9.83,5.65-2.58.32-4.6,4.29-7.26,4.9-5.49,1.27-6.47,8.55-12.66,8.6-1.37,0-.58,2.59-1.23,3.35-2.89,3.38-7,6-9,9.79a32.62,32.62,0,0,1-7.89,10.1c-5.2,4.29-6,11.12-9.91,16.1,1.28,4.28-1.86,6.41-4.25,9-1.71,1.84-1.25,4.95-3.68,6.61-.42.29,3.47,1.17,1.48,3.7A29.08,29.08,0,0,0,551,639a11.46,11.46,0,0,0-1.35,3.45c-.33,3-.39,6.13-.56,9.19-3.47,2.13-2,5.58-2.13,8.51a62.75,62.75,0,0,0,0,9.4c.21,2.54-1,4-2.54,5.75a2.77,2.77,0,0,0,.59,3.57c.93.85,2,1.55,1.94,3.24a61.45,61.45,0,0,0,0,9.4c.3,3.36-1.19,6.84,1.76,10.07,2.14,2.34.54,6,.87,9,.09.87-.17,2.26.26,2.52,2.57,1.51,1.69,5,3.78,6.53,3,2.18.56,5.63,2.54,8.46s5.07,6,4.17,10.29c-.35,1.66.94,2.35,1.82,3.28,1.76,1.88,3.94,3.36,3.94,6.49,0,1,1.68,2,2.73,2.82a9.13,9.13,0,0,0,2.27,1v-1.37c0-1.79,0-3.58,0-5.37-4.71-1.9-.75-7.88-4.75-10.12-.2-3.05-.78-6.14-.51-9.15.3-3.33-3.71-4.6-3-8.34.61-3.16,1.63-7.21-2.19-9.72-.09-3.54-.57-7.13-.18-10.62.41-3.75-3.3-5.73-3-9.66a189,189,0,0,0,.1-22.83c-.16-4,4.15-6.45,3-11-1-3.79-.2-8-.2-12a3.4,3.4,0,0,1,.07-1.32c.16-.38.68-.6.9-1,1.49-2.51,3.42-4.9,4.26-7.62.74-2.39-.5-5.39,2.4-7.09-.75-3.39,3.79-4.75,3.13-8.11,2.93-3.12,3.82-7.5,7.24-10.51,6.78-6,12.27-13.41,21.57-16.2,2.65-.79,3.64-5.15,7.49-4.6,1.9-3.37,5.25-2.56,8.22-2.85,2.44-3.91,6.72-1.36,9.61-2.72,3.22-1.51,6.12-3,9.74-2.49,8.12,1.07,16.76-2.57,24.42,2.7h12.09c3,3.56,7.16,2.92,11,2.59s5.8,4,9.67,2.85a2.58,2.58,0,0,1,2.2.95c1.57,2.42,4.68,1.59,6.71,3.6s5.3,2.16,7.86,3.5c3,1.54,5.57,4.47,8.63,5,3.66.58,4.81,3.87,7.46,4.85,3.43,1.28,5.83,3.49,8.38,5.81,1.15,1,4.21,0,4.24,2,.05,3.85,2.91,5.5,5.15,7.25,2.66,2.07,2.63,5.31,4.59,7.62,3.32,3.92,8.75,6.24,9.56,12.14,4.57,3,4.94,9.21,9.51,12.19,1.44.94.76,2.4.91,3.65s-.55,2.84,1,3.6c2.38,1.18.91,4.22,2.84,5.56,2.27,1.58.63,4.48,1.67,6a35.71,35.71,0,0,1,5.93,17.74c4.7,3.13-.82,9.93,4.61,13,.57.32.08,2.55.08,3.89,0,13.44-.3,26.89.18,40.31.14,3.88-3.37,5.92-3,9.66a60.12,60.12,0,0,1-.2,10.64c0,.68-1.72,1.26-1.73,1.91-.09,3.93-2.93,7.14-3.14,10.76s-.77,6.75-2.9,9.62c1.19,4.33-2.16,6.33-4.47,8.92a3.14,3.14,0,0,0-.84,2.28c.83,4.35-3.13,6.81-4,10.49-.91,4-3.76,6.68-6.6,9.36-1,.92-2.71,1.89-2.72,2.84,0,4.89-4.35,6.44-6.88,9.26-2.23,2.48-4,6.12-8.3,5.78a31.6,31.6,0,0,1-9.24,6.85c-2.24,1.09-4.45.24-6.25,1.14s-3.25,2.93-5,4.34a4.08,4.08,0,0,1-2.29.88c-3.13.11-6.26.08-9.38.1-2.42,3.83-6.28,2.44-9.67,2.6-3.13.14-6.27,0-9.4,0h-8.07c-3.13,0-6.29.19-9.4-.07-2.49-.21-3.87-3.51-7-2.65-3.27.9-5.79-1-8.29-2.66-4.31,1.29-6.55-1.8-8.91-4.38-1.12-1.24-2.39-.82-3.64-1s-3.1-.16-3.57-.91c-2.24-3.63-6.78-3.74-9.45-6.59-4.48.09-6.09-4.42-9.61-6-4.22-1.87-8.86-3.23-11.75-7.31-5.12-.22-6.89-6.48-12-6.65-2.85-2.85-5.35-6.24-8.65-8.4s-6.61-3.87-9.27-6.78a94,94,0,0,0-7.61-7.59c-2.68-2.34-2.5-6.29-5.59-8.54a39.56,39.56,0,0,1-8.52-8.52c-2.4-3.33-3.82-7.36-5.85-11-1.22-2.18-1.06-5.19-3.76-6.5s-2.46-4.38-3.7-6.55a41.56,41.56,0,0,0-5.68-8.45c-1.9-2-3.88-5.19-3.69-7.69.36-4.66-4.8-7.58-3.08-12.29-3.9-2.43-1.45-6.66-2.75-9.6-1.42-3.21-3-6.08-2.55-9.74.19-1.68.41-4.17-.53-5-2.41-2.19-1.5-3.43.42-4.89-4.91-4.8-2.06-10.85-2.4-16.3-.48-7.59-.09-15.22-.16-22.84a7.12,7.12,0,0,0-.91-2.3,14.24,14.24,0,0,0-1.89,1.12c-3.07,2.6-4.4,6.45-5,10-.48,3-1.53,5-3.64,6.58-2.62,1.94-1.54,6-4.67,7.5,3.69,2,.4,3.81.24,5.86-.25,3.21-1.77,5.58-2.78,8.34-1.13,3.08,1.25,7.18-2.58,9.69-.09,3.54-.72,7.18-.11,10.6.53,3-5.16,5.72-.17,8.56,0,4.48.77,9.13-.2,13.39-1.12,4.94,3.83,7.73,3,12.4-.4,2.37-1.3,5.42,1,7.53,2.88,2.61.9,5.9,1.55,8.79.18.77,1,1.38,1.24,2.16.81,3.28,2.76,6.15,4.32,8.94,3.27,5.82,5.3,12.32,9.19,17.67,2,2.76,3.77,5.62,5.64,8.44a27.24,27.24,0,0,0,6.6,6.65c3,2.2,2.86,6.05,5.54,8.58,9.45,8.9,18.48,18.26,27.66,27.44,1.54,1.53,2.8,3.59,5.51,2.94,3.11,4.38,8.91,5.27,12.23,9.41a20.73,20.73,0,0,0,10.7,6.56c2.49.72,3.78,3.93,6.86,2.95,1.31,2.72,4.73,2,6.45,3.83s4.74,1.48,6.67,3.64c1.59,1.79,5.3-.81,7.12,2,.7,1.09,1.39,1.31,1.88.37.37-.72.87-1.92.56-2.37-2.17-3.11-2.65-7.29-6-9.63-2.63-1.84-1.87-5.61-4.55-7.65-.86-.65-.15-3.4-.13-5.2s2.57-6.32,3.86-6.4c3-.2,6.34-1.32,8.94.63,2.83,2.13,4.78,5.54,7.75,7.37,4.15,2.56,2.6,7.18,4.74,10.22,2.66,3.8,3,8.81,6.58,12.07.61,6.43,4.82,7.65,10.27,7.12a4.57,4.57,0,0,1,3.54,1.22,8.42,8.42,0,0,0,9.74.7c2.53-1.73,4.76-1.84,7.34-1.93.44,0,.89,0,1.34,0H701.1c2.51-3.39,6.2-2.54,9.63-2.71,3-.15,4.77-4,8.32-2.74.58.2,1.51-.55,2.26-.92,7.06-3.49,13.83-7.58,21.2-10.44,1-2.5,4-1.35,5.53-2.86,2.88-2.83,6.17-5.37,8.44-8.63,2.45-3.54,6.79-3.64,9.51-6.53,4.59-4.9,9.24-9.79,14.27-14.22,5.31-4.68,7.22-12,13.24-16.06a12.57,12.57,0,0,1,4.73-7.48c.63-.48,1.42-1.46,1.31-2.07-.49-2.95,2.54-4.18,3.12-6.89s3.8-4.7,6.08-6.79a5.3,5.3,0,0,0,1.66-4.73c-.09-1.3-.08-2.55,1.14-3.56,3.74-3.11,4.53-8.16,7.18-11.7,3.14-4.19.84-11,7.06-13.37.46-.17.69-1.51.69-2.31,0-3.49.38-6.55,2.48-9.8,1.65-2.56-.59-6.52,2.36-9.81,2.38-2.65-1.38-8,3.05-10.74.07-2.66.61-5.41.09-8-.66-3.21,2.64-4.33,2.84-7,.4-5.25-1.84-11,1.06-15.64,3-4.79,1.06-9.49,1.48-14.17C840.32,673.88,840,668.47,573.82,755.06ZM471.67,722.81c0,2.69-1,6.08.21,7.92,3.28,4.88,2.22,10,2.5,15.15,0,.84,0,2.1.49,2.43,3.35,2.25,1.84,5.62,2.18,8.55.2,1.71-.22,4.18.74,5,2.62,2.17.84,5.53,2.16,7.18a10.86,10.86,0,0,1,2.48,8.46c3.35,1.91,2.61,5.24,2.84,8.23,3.3,1.38,1.64,5.94,4.75,7.44,1.17,4.9,4.75,8.73,6,13.67.47,1.87,3.28,3,2.56,5.63,1.53.64,3.12,1.17,4.58,1.93,3,1.54,2.83,5.2,4.8,7.38,2.7,3,5.66,5.73,8.51,8.59L525,838.9c3.16,3.17,6.32,6.35,9.5,9.5,2.85,2.81,5.74,5.59,8.62,8.39,4.75,0,6.11,4.64,9.28,6.81a8.08,8.08,0,0,0,2.17,1.23c7.39,2.1,12.27,8.84,19.73,10.75,3.47.89,4.16,6,8.52,5.4,2.15,4.4,7.7.93,10.26,4.47,1.31,1.81,3.34.92,5,.83,2.53-.14,3,3.52,5.6,2.75a13.22,13.22,0,0,0,2.21-1.14,3.82,3.82,0,0,0-.58-.94c-1.32-1.11-2.52-2.64-4-3.16-2-.67-4.21.39-6.15-1.51-1.42-1.39-3.69-1.87-5.44-3-2.12-1.35-5.26-1-6.49-3.78-1.47-3.26-5.3-2.37-7.66-4.52-1.65-1.51-4.86-1.73-6.23-4-1.54-2.61-4.74-1.62-6.61-3.71-3.89-4.33-8.49-8-12.2-12.49s-9.6-5.72-13.36-10.27c-4.83-5.84-10.64-10.88-16-16.26-2.85-2.85-6-5.45-8.44-8.64-1.68-2.24-2.1-5.38-3.42-8-.77-1.5-2.25-2.64-3.34-4-2.39-3-3.75-6.57-6.48-9.49s-2.6-7.93-5.88-10.92a11.37,11.37,0,0,0-4.71-10.17,3.27,3.27,0,0,1-1-2.24c-.13-2.23.85-5.21-.25-6.55-1.85-2.26-2.82-4.31-2.49-7.11.29-2.43-3.17-2.93-2.75-5.62.34-2.18,0-4.47.08-6.71.15-3.52-4.57-5.65-2.7-9.63V698.91c0-2.63-.05-5,2.16-7.27,1.15-1.19.34-4.21.55-6.39.25-2.74-2.19-3.62-3.5-5.28a1,1,0,0,0-.91-.19c-.38.2-.87.56-.93.92-.77,4.58,2,9.87-2.75,13.66,0,5.37,0,10.75,0,16.12,0,.88.25,2.26-.19,2.56C470.37,715.6,472,719.45,471.67,722.81Zm181.9-78.15c-4.34,2.05-5.81,7.84-11.33,8.07-.43,0-1.24,1.42-1.14,2.07.55,3.48-1,5.91-3.58,7.92l-4.56,8.8c1.4,3.5-2.74,5.2-2.68,8.25.06,3.47-.11,6.61-2.48,9.74-1.31,1.73-.46,5.09-.59,7.71-3.74,2.54-2,6.4-2.24,9.74,0,.6.89,1.26,1.36,1.89a6,6,0,0,1,1-.93c2.47-1.46,2.19-4.87,3.89-6.32,3.13-2.65,3.67-6.93,6.56-9.36,3.44-2.88,3.88-7.49,7.3-10.53,2.94-2.61,3.44-7.47,5.9-10.77,1.91-2.56-.87-6.43,2.73-8.27a1.48,1.48,0,0,0,.76-1,49.63,49.63,0,0,0,0-6.68C654.07,651.57,655.54,648,653.57,644.66Zm-60.93,62.5v8.06c5,5.28,1.78,11.81,2.68,17.7.07.44-.18,1.06,0,1.31a4.63,4.63,0,0,0,1.73,1.14c.17.06.88-.58.88-.9q.06-20.16,0-40.31c0-1.79-.77-4.41.13-5.24,4.44-4.11,2-9.11,2.35-13.74,0-.29-.54-.74-.92-.9-.22-.09-.88.25-.9.44-.26,2.59,0,5.35-.79,7.76-.92,2.76-3.18,5-2.65,8.34.32,2.1.62,5.25-.55,6.33C591.36,700.24,593.11,703.83,592.64,707.16Zm31.15,206.08a50.47,50.47,0,0,0-5.38.08c-.46,0-.88,1-1.13,1.68-.07.16.68.93.86.87,3.14-1.11,4.15,3.14,6.9,2.72s4.68,1.46,7,2.51c2.92,1.33,6.59-.79,9.88,2.08,2.29,2,6.76.2,9.25,3.41.21.27,2.35-.59,3.24-1.34a2.63,2.63,0,0,0,0-2.53c-1-1.41-2.52-2.49-3.67-3.84-1.8-2.12-3.74-3.32-6.8-3-4,.37-8.34,1.07-11.87-.22C629.3,914.61,626.94,912.69,623.79,913.24Zm-10.92-21.5a17.45,17.45,0,0,0,2.61,0c.35-.05.94-.67.88-.86-.2-.64-.6-1.65-1-1.7a32.61,32.61,0,0,0-5.23,0c-.33,0-.94.68-.88.87.2.63.53,1.51,1,1.7A7.74,7.74,0,0,0,612.87,891.74ZM778.14,523.48l2.24-.93a11.27,11.27,0,0,0-1-1.81,16.45,16.45,0,0,0-1.81-1.83,10.51,10.51,0,0,0-.9-.72c-.42.69-1.11,1.35-1.19,2.07C775.28,522.13,775.83,523.62,778.14,523.48Zm-6.31-3.13.91-.92c-.3-.3-.56-.76-.92-.88a5.13,5.13,0,0,0-2.4-.4,7.05,7.05,0,0,0-2,1.28,6.85,6.85,0,0,0,2,1.28A6.92,6.92,0,0,0,771.83,520.35ZM525.44,641.09l-1.35-2c-.44.68-1.32,1.41-1.25,2a14.05,14.05,0,0,0,1.25,3.35Zm-40.71,34.64-1-1.73c-.3.3-.89.66-.84.88a8.22,8.22,0,0,0,.84,1.81Z"/></svg>