<svg id="Layer_1" data-name="Layer 1" xmlns="http://www.w3.org/2000/svg" viewBox="0 0 1200 1200"><title>BB_Artboard 95</title><path d="M566.65,545.81c-261.75,139.54-269.24,132-276.73,124.55-12.14.22-14.13-16.08-26.15-16.05-3.57-3.57-7.27-7-10.66-10.74-2.66-2.93-7.52-5-6.19-9.92.78-2.91,3.26-5.35,4.86-8.06,1.14-1.93,2-5.65,3.11-5.7,8.34-.36,16.7,0,25.06.12,4.61,7.34,11.95,4.08,18.26,4.53,1.28.09,2.67-1.51,4-2.34a21.23,21.23,0,0,0-3.89-2.53c-13.08-5-19.47-16.54-25.7-27.67-2-3.6-2.46-9.66,2.56-13.55,2.6-2,5.25-4.46,6.64-7.31.75-1.54-.9-6.16-1.86-6.28-4.38-.54-8-2-10.3-5.69-4.61-7.39-13.44-8.85-19.33-14.29-5.56-5.13-10.12-11.67-16.37-15.59-3.2-2-7.46-.95-7.52-6.9-.16-15.93,2.63-18.66,18.49-19,6.16-.14,10.58,2.46,15.74,4.88,4.14,1.95,9.71.88,14.64,1.15,4.84,7.08,12.16,3.41,18.44,4.18.63.08,1.41-.62,2.05-1.06,1.66-1.15.78-1.88-.62-3.65-4.48-5.64-11.79-8.68-13.42-17.17-1.15-6-10.88-7.89-9.88-16-3.18-2.49-6.11-6.59-9.58-7.12-6.47-1-6.36-5.33-5.23-8.86,2.12-6.64,3.71-13.8,9.39-18.8,3.73-3.3,7.32-6.75,10.79-10-3.71-7.11-11.16-7.48-16.07-11.49-4.48-3.67-7.95-9.59-13-11.31s-7.1-2.78-6.56-7.91a35.38,35.38,0,0,0,0-7.56c-1-9,3.39-13.54,11.85-15.42,3.22-.71,4.85-6.27,2.79-7.89-7.61-6-11.83-16-22.78-18.18-2.68-.54-6.48-4.46-6.59-7-.24-5.52-2.78-11.8,1.72-16.73,2.11-2.31,5-5.06,7.74-5.39,6.63-.78,13.44,0,20.15-.33,5.29-.27,9.67.51,13.29,4.94.59.73,5.15-.4,6.3-1.89s.83-5.19-.38-6.49c-7.44-8-14.75-16.31-23.23-23.1-6.51-5.23-5.88-11.44-5.63-17.94a10.55,10.55,0,0,1,2.9-6.27c4.46-4.62,8.24-10.24,15.65-10.94,1.86-.17,1.61-3.18-.6-3.25-8.89-.27-12-8.08-17.46-12.73-10.94-9.39-10.77-9.58-10.73-17.78,0-1.68-.07-3.37,0-5.05.17-3.43,5.87-10.57,9.08-10.3,5.52.46,11.8-2.88,16.48,2.7,3.31,3.94,7.79,1.56,11.73,2.11.57.08,1.4-.75,1.9-1.35.36-.42.69-1.49.47-1.7-4.16-4.05-8.42-8-12.65-12-9.22.58-11.07-12.34-20.58-11.22-12.12-8.12-13.8-19.6-10.5-32.67,9.32-6.93,1.69-11-2.58-15.77s-5.75-10.18-1.19-15.09c3.24-3.48,0-10.84,7.37-11.09,5.63-.18,8.84-7.14,15.63-5.21,3.89,1.1,8.36.27,12.56.12.61,0,1.8-1.33,1.68-1.65-.45-1.19-1.66-3.27-2-3.16-5.84,1.78-8-4.6-13-5.6-7-1.39-10.4-7.28-9.38-15a24.13,24.13,0,0,0,0-7.54c-1.22-6.42,4.51-8.36,7.37-12.14,6.76.67,8.58-2.82,7.92-8.94-.36-3.4,0-6.81,5-6.51,2.51.16,5,0,7.57,0l15.13,0c3.57,6.33,9.86,4.82,15.44,5.35,5.47,9.87,18.33-.25,24.2,8.83,0,.06,3.16-1.37,3.09-1.82-1.11-6.91,7-10.32,5.8-18.21-1-6.31,11.51-12.93,16.77-8.81s10.2,4.4,15.94,4.65a13.56,13.56,0,0,1,6.61,2.15c2,1.31,3.32,3.36,5.44.35,7.74-11,18.52-8.24,29.1-6.39,3.31,5.62,9.84,1.82,13.31,4.17,4.33,2.93,8,5.33,13.32,4.78a6.3,6.3,0,0,1,4.21,1.81c4.81,4.44,8.61,10.07,16.89,8.53,2.08-.39,5,3.72,7.54,5.67,1.9,1.43,4.25,4.17,5.82,3.81,6.57-1.54,10.49,3.5,15.59,5.39a69.62,69.62,0,0,1,14.72,7c4.6,3.09,7.35,9,14.06,8.77,4.24,11.38,17.94,6.48,24.51,14.14,1.26,1.47,5.27.57,6.55,2,10.4,11.86,27,13.26,38.47,23.07,10.89-3.38,15.51,7.21,23.32,10.69,13.51,6,26.45,13.32,39.68,20,4.86,2.44,10.31,3.94,14.69,7,2.91,2,5.34,3.41,8.87,3.17,3.3-.22,6.77.43,7.24-4.41.73-7.6,8.25-9.92,12.1-15.12.67-.9,3.06-.65,4.66-.65a2.55,2.55,0,0,1,2,1.12c3.56,7.81,12.55.9,17.61,6.83,3.21,3.76,9.75,7,14.45,6.6,6.77-.6,10.08,6.68,15.56,5.32,6.87-1.7,9.63,5.81,15.64,5.37,5-.36,10.4,1,15-.33,7-2,9.39,6.15,15.67,5.48,5.54-.59,11.06-1,16,4.28,2.74,2.94,9.39-1.19,13.5,3.74,3.66,4.4,9.72.36,14.19,2,5.9,2.23,11,6.76,18,5.21,3.1,5.18,8.42,3.84,13.09,5.06,5.21,1.36,9.45,5,15.64,5.2,4.06.14,7.59,4.64,13,5,5.1.31,10.39,3.38,14.82,6.39,2.87,1.95,5.14,3.6,8.79,3.44,2.23-.11,5.07.44,6.7,1.82,5,4.21,8.7,10.42,16.9,8.29,1.06-.28,3.12,1.16,3.92,2.34,4.84,7.11,11.74,8.17,19.62,7.71,5.79-.34,8.55,4.43,10.68,8.71,2,4.09-.09,10.56-4.32,13.13-5.31,3.22-10.88,6.74-16.79,8-5.18,1.1-11.39,2.09-16.1-3.69-1.43-1.76-6.25-.6-9.48-1-7-1-14.64,2.45-21.14-4.22-2.1-2.15-8-.22-12.08-.88-8.8-1.42-17.84,2.94-26.64-2.77-8-5.22-17.85-1.12-26.8-2.19-8-9.75-18.85-4.58-28.18-4.55-7.21,0-11.09-6.49-18.11-5.73-6.59.71-13.33-.09-20-.23-5.13-8.31-15.19-1.24-20.16-5.72-6.18-5.55-12.45-3.13-18.72-4-.73-.1-1.8-.46-2-1-3.53-7.9-12-2-17.64-6.69-6.25-5.26-11.49-3-16.93,2.79-2.61,2.77-3.77,6-1,8.54,5.56,5.16,3.82,17.07,15.34,16.6,5.31,4.85,11.75,8.4,13.95,16.36,1,3.43,4.74,7.66,8.05,8.56,10.58,2.87,18.76,12.93,31,10.41,5.59,2.74,11,5.87,16.82,8.13,7.25,2.84,13.35,9.28,22.34,7.07,6.8-1.66,10.51,8.81,18.08,5,7.71,5.92,14.94,13.07,26.1,10.09,7.33,6.13,16.61,8.7,24.74,13.44s17,7.63,25.28,11.94c3.53,1.84,6.43,5,9.35,7.89,6.26,6.14,6.32,12.24.33,19-1.68,1.88-5.37,4.36-5,5.22,1.18,2.77,3.45,6.31,6,7,5,1.33,8.53,4,12.21,7.32,4.67,4.21,7.18,8.73,6.33,15.15-.44,3.3.95,7.19-.33,10-1.62,3.49-4.82,8.29-7.85,8.7-8.2,1.11-16.67.19-25,.08-3.54-7.7-12.13-2.66-17.37-7A36.51,36.51,0,0,0,863.23,408c-4.78-1.08-10,0-13.07-5.13-9.51,3-16-8.59-25.58-5.31a7.82,7.82,0,0,1-2.42,0c.6,1.44,1.11,4.07,1.8,4.12,5.41.37,9,3.5,12.13,7.35a9.39,9.39,0,0,0,8.61,3.8c2.25-.14,5.39.22,6.72,1.66,4.52,4.86,10,7.83,15.77,10.83,4.27,2.22,7,7.15,10.89,10.38,7,5.89,4.66,13.4,3.71,20.51-.12.92-4.85.62-6.39,2-6.24,5.73-12.28,7.69-19.23,1.22a6.84,6.84,0,0,0-4.45-1.27c-6.58.1-13.09.49-18.23-5-.6-.64-3.42-.09-4.5.78-3.78,3.08.83,4.11,2,5.14,7.07,6.43,17.21,7.71,24.36,14.14,5-1.41,7,3.43,10.55,5,5,2.19,10.65,3.21,15,6.18,4.79,3.23,8.47,8.11,12.63,12.27,4.76,4.76,9.65,9.4,14.16,14.38.85.94.93,3.82.13,4.78a133.72,133.72,0,0,1-10.48,10.82,7,7,0,0,1-4.15,2c-9.25.18-18.5.09-27.75.09-6-10.29-19.78,0-26.42-9.87-1-1.46-6.32-.09-9.63.18-.64.06-1.42,1-1.7,1.74-.16.41.41,1.32.89,1.73,2.46,2.12,4.69,5.11,7.56,6,8.22,2.66,14.89,8.46,23.44,10.57,3.49.86,5.64,6.06,10.57,4.82,4.55,7.32,13.69,8.47,19.28,14.31,3.56,3.71,6.93,7.12,12.78,5.92,1.36-.28,3.78.27,4.37,1.25,4.52,7.53,13.36,8.87,19.64,13.95,7,5.67,7.08,12.45,7,20,0,5.1-4.48,8.57-7.26,9.2-6,1.37-13,3.26-18.61-2.17-4.81-4.64-14,1.58-17.28-7-6.53,2.08-9.06-5.54-15.34-6.07-5.63-.48-10.74-6-16.26-9a133.25,133.25,0,0,0-16.81-8.12,42.23,42.23,0,0,1-15.86-10.68c-1.36-1.39-4.57-.88-6.87-1.48s-5-.9-6.54-2.35a61.09,61.09,0,0,0-13.81-9.31c-5.41-2.76-9.9-7.63-15.87-10.49-4.84-2.32-8-7-13.89-9.2s-9-11.36-14.68-13.05c-6.31-1.89-9.57-6-13.74-9.61-5.72-5-23.8-14.76-33.54-16.42-5.6-.95-8.82-7.48-15.6-5.45-2.55.76-5.08,1.23-5.21,3.79-.12,2.12,1.86,6.29,2.27,6.21,5.09-1,7.39,4.86,10.59,4.93,6.3.15,8.25,5,12,7.86-2.85,6.69,8,8.63,5.29,15.56-1.36,3.45,1.75,5.77,3.42,8.62,3.95,6.73,11.1,1.47,15.7,5.17,3.73,3,5.59,8.73,11.54,8.59,4.25-.1,7.77.34,11.19,3.76,2.58,2.59,7.06,2.46,10.44,5.26,4,3.32,11.45-.89,15.32,5.57,2.7,4.51,7,6.87,12.74,5.76a5.15,5.15,0,0,1,4.28,1.51c8.54,11.51,25.39,10.94,33.38,23.12,12.08,3.52,22.31,11.08,33.93,15.54,4.4,1.68,8.11,4.58,12.48,6.42,5.5,2.33,9.57,7.81,15.84,10.5,6.86,2.95,7.43,11.82,11.29,17.77.57.89-.41,3.08-1.11,4.44-2.9,5.61-9.9,5.13-13.84,9-2.47,2.46-3.56,1.23-5.48-.4-3.62-3.06-5.71-8.8-12.1-7.29-3.15-4.79-7.78-5.72-13-5.07-.79.1-2.06.21-2.37-.22-5.9-8.21-13.6-11.75-23.75-10-1.14.2-2.92-1.33-3.9-2.49-5.37-6.34-12.69-9.81-20.15-12.27-6-2-8.14-8-13.42-10.3-4.29-1.83-9.13-2.73-12.92-5.24A51.14,51.14,0,0,1,773,592.78c-3.34-4.5-9-2.66-12.68-6.72-2.88-3.21-8.68-3.09-12-7.28a38.81,38.81,0,0,0-11.13-9.48c-8.84-4.92-18.47-8.33-27.08-13.79-1.27-.81-3.07-1.67-4.39-1.38-5.32,1.15-8.91-2-12.81-4.54l-1.89,4.26,8.81,16.54c10.11,10.11,20.08,20.36,30.38,30.27,5.18,5,13.35,5.9,17.6,12.47.65,1,2.85,1.28,4.36,1.39,4.14.3,8.3.33,12.44.47,3.51,6.53,11.31,2.41,15.22,5.63,6.94,5.72,15.5,7.62,23,11.91,5.91,3.38,11.62,7.77,19.65,7.74,4.87,0,10.33,3.69,14.47,7,3.86,3.1,8.65,3.62,12.7,6.44s11.35.6,16.46,2.58,6.9,8.68,14,9.19c3.08.22,5.68,5.66,10.48,4.77,5.35,5.36,10.84,10.58,16,16.1,4,4.32-.09,18.2-6,18.71-7,.6-14.51,2.54-20.74-4.69-3.91-4.55-10.46-6.82-15.82-10.11-8.15,2.6-13.73-3.95-19.93-6.69s-13.63-5.21-18-11.85c-.92-1.41-4.44-1.07-6.73-1.67s-4.82-.86-6.65-2.13c-3.35-2.31-5.9-6-9.43-7.81-10.33-5.42-20.8-10.65-31.58-15.09-5-2-8.83-6.78-15.55-5.52-4.51.84-7.08-6.65-12.74-5.37-3.4-6.83-11.53-1.95-15.18-5.61-4.34-4.36-9.8-2.09-13.46-4.26-5.16-3.06-10-6.32-15.72-4.41-3.54,1.18-5.61,6.12-10.63,5-.19,0-1.63,2.93-1.27,3.3,13,13.21,26.07,26.27,39.15,39.36.59.59,1.09,1.5,1.8,1.73,8.19,2.7,15.29,7.74,23.25,10.89,11.57,4.59,21.5,12.69,34,15.32,7.66,1.61,14.21,6.29,21.07,10,5.5,2.95,11.21,5.46,16.76,8.32,5,2.57,10.37,4.1,14,9a8.56,8.56,0,0,0,6.26,2.74c4.46-.1,7.46,1.73,11.05,4.19,3,2.08,8.09,1.74,10.09,5.71,3,5.94,10.39,4.16,14.13,8.81a20.72,20.72,0,0,0,12,7.62c5.06,1.2,6.5,9.52,13.79,9.41,1.85,0,3.82,2.81,5.61,4.46,4.91,4.55,10,8.84,8.08,16.91-.78,3.18.22,6.75-.24,10.05-.36,2.61-2.27,4-5.28,3.73-4.16-.31-9.09,1.14-12.31-.66a109.13,109.13,0,0,0-10.47-5.29c-4.3-1.85-7.15-7.63-11.43-8.82-4.6-1.28-6.58-4.63-9.82-6.9-1.93-1.35-4.08-3.49-6.06-3.42-5.39.2-9.62-.85-13-5.46-2.47-3.34-5.43-6.72-8.94-8.78-3.31-2-7.55-1.93-10.45-5.41-1.23-1.47-4.94-.68-6.56-2.05-5.08-4.32-9-11.44-14.7-13.18-5.4-1.64-8.94-6.18-15.06-6.85-4.89-.53-6.44-9.81-13.8-8.94-3.29-3.78-8.91-3.87-12.19-6.83-4.34-3.93-11.22-2.84-14.33-8.32-10.86-2-19-11.48-30.74-11.06-4.91-7.08-12.22-3.3-18.51-3.93-.8-.08-2.76,2.42-2.54,2.82,1.16,2.09,3.47,3.66,4.25,5.82,5.15,14.27,17.62,20.16,29.72,26.54,7.88-2.43,12.75,7.44,20.62,5l16.56,8.75c2.48,2.13,5.39,6.42,7.37,6,9.45-1.87,13.7,4.81,18.7,10.1,3.66,3.88,7.3,6.73,12.95,5.43a4.71,4.71,0,0,1,2.5,0,3.43,3.43,0,0,1,1.81,1.62c2,4.7,7.95,1.81,10.41,5.36,2.18,3.14,6,2.2,8.54,3.73,4.14,2.5,7.11,7.81,11.39,9,4.59,1.27,6.71,4.43,9.8,6.9,1.31,1,2.67,3.56,3.55,3.36,9.92-2.21,14.53,5.78,21.18,10.18,4.43,2.93,10.56,3.31,15,6.27,4.79,3.23,8.23,8.41,12.74,12.15,2.28,1.9,7,1.74,8.19,3.87,1.89,3.36,3.37,7,5.26,10.44a10.78,10.78,0,0,1-2.12,13.53c-4.67,4.25-10.92,6.87-15.31,3.27-5-4.13-12.43-4.41-15.95-10.45-4-6.83-11.51-10-17.74-11.87-7.7-2.35-11.13-9.19-17.83-11.93-5.76-2.37-11.06-5.89-16.8-8.16-12.22-4.81-23.43-11.06-31.28-21.67-4.25-5.74-12.52-4.25-16-10.5-8.92-.89-15.65-6.92-23.45-10.37s-16-6.79-22.86-11.55c-4.87-3.39-9.5-1.93-13.77-3.61-3.52-1.37-6.22-4.18-10.45-5.38s-7.56-8.05-12.08-2c-3,4,1.75,7.17,4.42,10.27,5.77,6.7,8.59,15.44,16,21.22,6.57,5.15,12,11.73,18,17.67,3,3,5.79,8.23,9,8.46,7.08.5,9.27,6.48,14,9.25s10.42,3.64,14.87,6.59c11.8,7.84,25.9,11.3,37.14,20.06,5.09-1.18,7.62,2.58,10.24,5.65,2.94,3.44,6.38,4.25,10.78,4.71A31.48,31.48,0,0,1,854,852c4.16,2.62,7.64,6,13.17,5a5.44,5.44,0,0,1,4.33,1.43c4.36,5,10.1,7.64,15.65,10.94s9.74,9.17,14.45,14c2.26,2.31,1.27,5.41-.78,8.67-3.84,6.07-12.13,4.54-16.25,10.12-.45.61-4.79-.61-6.34-2.05-4.18-3.88-10.35-3.73-14.35-8.58-3.34-4.05-8.82-8.1-13.75-8.67-7-.82-9.11-6.9-14-9.15-5.22-2.39-10.41-4.3-13.85-9.16-2.33-3.3-5.79-2.43-9-2.63-1.56-.09-3.7-.07-4.55-1-9.95-11.06-24.26-14.55-36.69-21.23-6.15-3.3-12.17-7-18.93-9.11-2.18-.69-4.31-4-5.87-3.68-6.58,1.57-10.57-5.55-15.59-4.93-8.78,1.1-14-7.8-23.29-5.91-5.83,1.19-9.76,4.18-11.6,8s-2.79,10,2.59,13.4,5.4,9.9,9.07,13.85c4.26,4.59,7.44,11.54,15.57,10.87,4.76,4.76,9.49,9.54,14.3,14.24a2.7,2.7,0,0,0,2.19.67c6.37-1.79,10.37,3.92,15.63,4.87,6.65,1.2,8.51,7.54,13.44,10.33,9-2.62,12.93,5.18,19.12,8.79,5.92,3.47,13.08,5.54,18.6,9.57,4.65,3.4,10.59-1,13.75,3.35,6,8.29,17.39,9.2,23,17.74,2.84,4.31,8.07,4.94,12,7.44,6,3.84,13.54,5.49,17.8,12.14,3.36,5.23,8.4,7.83,14.88,6.58,11.32,7.25,24.34,11.37,34.08,21.73,6.25,6.64,5.12,13.43,5.27,20.62,0,1-2,2.66-3.3,3-3.85.89-8.45-1.55-11.56,2.57-2,2.58-4,2.3-5.31-.18-3.77-7.24-12.87-6.68-17.62-12.43s-12.88-6-18.44-10.17c-7-5.32-15.12-9.26-21.35-15.15-4.41-4.18-10.52-4-14.37-8.51-3.46-4.06-9.75,1-13.64-3.59a127.07,127.07,0,0,0-10.66-10.74c-3.48-3.28-9.68-2.06-12.16-7.16s-8.34-4.37-12.18-7.13-5.68-8.56-11.76-8.15c-8.24-7.64-18-12.58-28.23-17.11-2.94-1.3-5.28-3.26-8.83-3.21-2.24,0-5.65-.49-6.55-2-5.8-9.53-17.84-6.54-25.13-12.91-.68-.6-3.86.18-4.28,1.08-1,2-2,5.61-1,6.53,3.17,3,3.81,6.88,5.5,10.44,1,2.09,6,1.9,8.16,3.86,6.25,5.6,12,11.77,18,17.72l10.7,10.7c6.39-1.6,8.6,4,12.14,7.19,3.77,3.34,6.79,7.63,10.85,10.5,4.41,3.12,9.61,5.12,14.5,7.55,3.48,1.73,6.88,4.32,10.55,4.81,4.08.54,5.13,4,7.84,5.62,5.35,3.29,10.54,6.94,16.18,9.67,7.86,3.79,16.21,6.42,22.3,13.39,1.84,2.09,5.94,2,8.39,3.8,7.06,5.09,16.31,6,22.68,12.36,5.74,5.73,13.21,8.15,20.57,11.21,9.31,3.87,8.66,13.13,7.83,21.53-.12,1.23-1.9,3.23-3,3.27-7.56.29-15.15.43-22.69,0-2.05-.12-4-2.38-5.92-3.81-2.58-2-4.78-5.2-7.63-5.88-8.07-1.93-10.8-10.26-17.2-13.44-5.48-2.73-11.75-5-16.77-7.95-6-3.57-14.28-4.6-17.85-12-6.37-1.91-10.85-6.51-16-10.39-4.3-3.24-10.31-4.24-13.79-9.18-.87-1.23-2.51-2.64-3.84-2.71-15.74-.7-26.78-12.6-40.93-17-1.43-.45-2.86-3.32-3.63-3.07-7.36,2.41-12.11-3.61-18.19-5.08-1.11-.27-3.47,1.09-3.91,2.22-1.72,4.36.84,9.13,5.84,12.82,3.28,2.42,6.73,4.88,9.25,8,5.77,7.18,15.9,8.14,21.48,15.78,1.31,1.78,6.12,1,9.31,1.43a5.4,5.4,0,0,1,2.27.58c10.38,7.09,21.93,12,33.1,17.62,5.49,2.75,10.49,7.11,17.13,7.33,7.06,9.47,18.24,12.6,28,17.63A84.64,84.64,0,0,1,848.69,1052c4,3.34,10.23,3.89,14.66,6.89,5.4,3.66,9.75,8.84,14.94,12.86,2.37,1.84,7.5,1.85,8.19,3.8,2.11,6.06,3.08,12.84-1.41,18.51-1.91,2.41-3.79,5.41-7.94,5.11-6.48-.45-13.6,1.42-17.8-5.81-2.34-4-7.07-3.47-10.29-5.52-3.47-2.21-5.66-6.45-9.15-8.56s-7.9,1-11.84-1.87c-5.81-4.19-12.88-6.51-17.65-12.44-.95-1.17-4.47-.79-6.59-.27-.89.22-1.66,2.64-1.76,4.11-.28,4.09-.39,7.82,3.28,11.34,3,2.91,2.76,4.1-.54,8.3-3,3.81-3.61,6.32-.59,10.62,5.48,7.79,14.22,10.58,21.76,14.84,5.3,3,10.75,6.36,16.73,8.22a33.85,33.85,0,0,1,15.83,10.65c.88,1,3.13,1.92,4.26,1.52,6.69-2.37,9.89,5.17,15.62,5.18,3.36,0,6.83.49,10.06-.17,2.15-.45,3.8-2.88,5.94-3.84,5-2.22,10.1-5.71,15.14-5.65,5.76.07,8.35-5.17,13.05-5.37,9.24-.39,18.5-.22,27.75,0,1,0,2.54,2,2.91,3.36s.29,3.83-.63,4.62c-5.44,4.67-9,11.32-17.36,13-5,1-9.19,7.58-14.09,8-6.15.6-8.94,7.56-15.26,6.19-11.7,11.48-22.54,3.51-32.65-2.34-5.53-3.2-9-10.15-17-7.76-5.37-3.26-10.94-6.26-16.07-9.87-6-4.24-12.93-7.43-23.47-10.42-3.69-1-6.9-4-10.6-4.75-4-.85-8.39.07-12.56-.3a14.39,14.39,0,0,1-6.53-2.38c-3.35-2.26-6-5.57-9.55-7.5-6.8-3.74-13.94-6.89-21-10.19-10.75-5-10.77-5-18.09-5-5,0-10.1.2-15.13-.11-2.26-.14-5.67-.65-6.49-2.14-4.69-8.5-14.17-6.89-21.15-10.28-6.18-3-11.48-8.82-19.54-7.87-1.9.23-4.05-2.13-6.16-3.13-4.93-2.31-10.11-6.68-14.81-6.25-6.78.63-9.86-5.14-15.6-5.73-9.48-1-18.06-7-28.24-5.06-1.9.36-4.29-1.59-6.38-2.61-4.9-2.39-9.74-4.91-14.64-7.29s-11.15-3.5-14.47-7.24c-4.76-5.35-10.82-1.42-16-4.67-6.19-3.88-11.42-9.26-17.55-12.36-5.37-2.71-13.57.62-19.55-1.49a55.31,55.31,0,0,1-12.46-6.3c-4.58-3.14-7.58-7.66-13.92-9.31-5.62-1.46-7.83-10.69-16.35-9.23-5.75,1-8.86-7.27-15.62-5.16-1.61.5-4.49-1.47-6.13-3-6.11-5.77-12.18-11.62-17.82-17.85-3.13-3.47-6.76-3.64-10.89-4.44a42.18,42.18,0,0,1-14.94-6.34c-6.65-4.41-10-13.32-19.42-14.11-5.95-5.95-11.85-11.94-17.85-17.83-7.53-7.4-15-14.52-24.39-20.09-8.41-5-14.48-13.89-21.75-20.88-1-1-3.16-.52-4.47-1.28C315.17,880.4,313.72,869,323,858.88c4.28-4.7,3.88-4.39.28-9-3.89-5-11.68-7.31-11.06-15.66.06-.77-2.35-2.33-3.74-2.48a78.76,78.76,0,0,0-10.08-.11c-3.72.06-5.44-1.06-6.47-5.32-1.25-5.16-4.17-10.13-7.25-14.57-2.06-3-4-5.85-1.56-8.59s4.58-6.69,9.66-7a48.08,48.08,0,0,1,25.7,5.14c4.13,2.14,7.38,5.4,13,5.52a23.37,23.37,0,0,1,14.73,6.24c3.79,3.8,9.64,2.05,12.59,6.77,2.17,3.48,6.32.71,9.27,1.81,2.79,1,5.25,3,7.86,4.5.69-1.4,2.33-3.18,1.93-4.13-4-9.68-10.08-16.84-22-15.62a9.89,9.89,0,0,1-8.86-3.07c-17.71-18-35.66-35.7-53.4-53.64-2.72-2.75-1.61-5.57.62-8.65,3-4.18,2.57-4.32-4.49-10.39-5.65-4.85-10.88-10.18-16.54-15-1.67-1.43-5.82-1.68-6-2.84a55.15,55.15,0,0,1,0-15c.68-4.57,13.09-10.57,16.61-7.11,6.59,6.49,13.82,4.18,21,4.62,2.28.15,4.6-.58,261.85-149.45,253.84-148.27,255-147.94,255.42-148.36a2.71,2.71,0,0,0,0-2.39c-4.29-9.77-16.88-4.57-22.33-12.32-1,1-2.8,2.19-2.69,3.1.26,2.24,1.85,6.31,2.16,6.24,7.09-1.57,12.23,2.77,17.92,5.42C817.87,397.82,818.83,397.54,566.65,545.81ZM436.31,74.51h2.25c0-.75.3-1.71-.06-2.22-1.17-1.65-2.61-3.73-4.38-.69-.24.4,1.41,1.91,4.44,2.91,1.09,1.68,1.82,4.16,3.35,4.84,1.9.85,4.47.2,16.41,3.16-.27-.56-.43-1.5-.82-1.6-2.14-.56-4.36-.81-6.49-1.39-2.39-.65-3.2.06-2.32,2.37a3.43,3.43,0,0,0,1.52,1.69c3.46,1.72,7.55,1.12-1.56-4-1.09-1.68-1.82-4.16-3.35-4.84C443.4,73.86,440.83,74.51,436.31,74.51ZM453.7,967.9c.13-3.49-1.55-5.18-5.05-5-1.38-7.28-8.37-9.91-12.55-14.87-4.85-5.75-10.83-10.53-15.82-16.17-4.73-5.35-12.21-8.78-12.69-17.4,0-.75-2.63-1.33-4-2-9.41-4.87-9.4-4.87-22.79-5,.75,0,1.79.29,2.16-.08a2.2,2.2,0,0,0,0-2.13c-1.17-1.66-2.61-3.73-4.39-.7-.23.4,1.42,1.91,4.45,2.91,0,.83-.37,2,0,2.45q22,22.22,44.17,44.3c1.18,1.18,2.48,3.47,3.52,3.36,6.81-.73,10.71,7.81,17.87,5.41-.13,3.49,1.56,5.18,5.05,5,2,8,7.31,10.9,15.14,10.09,5,10.79,12.66,17,29.87,18.08a18.25,18.25,0,0,0-2.43-2.87,1.51,1.51,0,0,0-2.14,2.13,10.21,10.21,0,0,0,3,2.3c.18.1,1-1-3-4.49-.5-5.33-4.87-9.35-8.51-9.64-6.33-.48-9.49-9.32-16.73-5.51C466.86,970,461.53,967.09,453.7,967.9Zm221.67,13a17.81,17.81,0,0,0-2.43-2.87,1.51,1.51,0,0,0-2.14,2.13,10.21,10.21,0,0,0,3,2.3c.18.1,1-1-4.37-7.8-5.42-7.3-12.11-11.26-19.18-15.09-3.53-1.91-4-.21-4.6,1.7-.46,1.35-.29,4,.56,4.49,2.53,1.59,5.89,2,8.27,3.7,3.27,2.4,5.63,6.11,9,8.3,1.73,1.13,4.81.2,7.28.2C670.17,976.58,669.6,975.17,675.37,980.93Zm-62.66,27.35c.83,0,2,.32,2.41-.09a2.38,2.38,0,0,0,0-2.35c-3.68-2.94-5.63-8.8-11.82-7.55-1.07.22-1.84,1.92-2.75,2.93,3.64,3,6,8.34,23.53,18.44l0,0c3.55,3.56,7.09,7.13,10.68,10.65,1.15,1.14,2.31,2.59,3.74,3.06a7.79,7.79,0,0,0,4.8-.33c2.24-.87,2.23-2.11.81-3.5-6.59-6.45-13-13.06-19.64-19.47a8.56,8.56,0,0,0-4.26-1.75,19.94,19.94,0,0,0-5,0c-.07,0-.37,1.91,0,2.36C618.13,1013.8,621.15,1016.7,612.71,1008.28ZM364.33,785.36l.43-.53c-3.79-2.91-7.47-6-11.46-8.59-.85-.55-2.9.59-4.31,1.18a2.43,2.43,0,0,0-.75,1.62c5.21,3.7,7.48,11,14.71,12.16a20.44,20.44,0,0,0,4.94-.07,4,4,0,0,0-.06-2.31c-1-1.29-2.31-2.33.06,2.42.52,3,.15,6.69,1.74,9a36.23,36.23,0,0,0,10.29,10.24c3.12,1.91,7.05,2.14,10.19,5,1.54,1.41,3.19-1.76,3-4.22-.1-1.61,0-3.24,0-4.87.84,0,2.27-.28,2.43,0,1.35,2.79,1.81,6.35,3.84,8.38s6.84,1.75,8.2,3.89c4.74,7.49,14.06,7.74,19.77,13.91,5.27,5.7,14,6.94,20.35,11.23,4.62,3.11,10.95,2.89,14.33,8.51s11.34,5.35,15.79,10.62c4.12,4.89,15.27,5.49,20.26,2.4a2.66,2.66,0,0,0,1-2.06c-.08-1.58-.05-3.39-.8-4.68-5.19-9-16.52-10.32-22.74-17.93-4.79-5.84-11.31-8.89-17.6-12.43-4.1-2.31-9.09-2.57-12.31-7-4.41-6.1-12.27-6.67-18.54-9.83-7.35-3.72-10.61-12.55-18.93-15.2-2.19-.7-3.94-2.65-6.09-3.55-9.59-4-19.19-7.73-26.32-15.92-.84-1-4.36.39-6.63.67.38,1.19.46,2.61,1.19,3.53,5.59,7.09,14.21,11.53,17.78,20.39-3.92-.05-7.71.62-11-3.12C374.64,795.42,372.83,791,364.33,785.36ZM809.59,538.87c.82,0,2,.32,2.39-.09a2.4,2.4,0,0,0,0-2.35c-5.73-6.94-13.59-10.3-22-12.63-.5-.14-1.39.67-1.91,1.22s-.93,1.37-.74,1.69c2.42,4,15.84,11.3,80.23,42.49-.65-5.23-4.77-7.84-9-10.09a153.92,153.92,0,0,0-16.67-7.93,42,42,0,0,1-15.67-10.54c-3.89-4.06-9.45-.9-14.17-1.77,0,.83-.36,2,0,2.45,3.11,3.81,8.75,2.71,12.21,6.89s6.61,10.08,12.85,10.65c4,.37,5.49,5.37,7.82,4.94,8.93-1.65,13.65,3.89,18.94,9.08.42.41,2.37-.44,3.37-1.08C867.73,571.54,867.52,570.29,809.59,538.87Zm-524.71,5c.75,0,1.8.29,2.17-.09a2.2,2.2,0,0,0,0-2.13c-1.17-1.66-2.61-3.73-4.39-.69-.23.4,1.42,1.91,95.3,59-.47-1.49-.8-4.2-1.42-4.27-7.29-.8-11.24-6.27-15.66-10.91-6.19-6.49-16.35-7.49-21.26-15.64-6.87-1.87-14.09-3.82-18.68-9.37-5.4-6.52-15.13-6.35-19.54-14-2.1-3.68-6.16-1.6-9.26-1.62-1.54,0-5.5-2.73-5,2.32.22,2.36-.66,4.7,1.68,6.91,7.33,6.9,14,14.57,21.58,21.14a62.53,62.53,0,0,0,16.1,9.61c3.47,1.49,7.87-.75,11.51,2.82,2.66,2.6,6.76,3.74,10.23,5.49,1.39.7,2.77,1.79,4.22,1.9,4,.32,8.22-.82,11.28,3.38,2.42,3.33,8.27.65,10.37,5.37.8,1.8,2.37,1.44,3.46-.73C377.93,601.64,377.86,600.76,284.88,543.92Zm390.47,23.14c-.26-.55-.43-1.49-.81-1.6-2.14-.56-4.36-.81-6.49-1.39-2.39-.64-3.21.06-2.32,2.37a3.43,3.43,0,0,0,1.52,1.69c3.46,1.72,7.55,1.12-4.41-3.26,2.85.07,3-.77,3-3.26,0-3.6-.67-6.37-3.63-8.59-4.88-3.66-7.78-8.18-6.72-14.75.53-3.25,1-7-.14-9.88a21.81,21.81,0,0,0-7.32-9.31c-2.81-1.93-6.25-.08-8.41,2.91a13.35,13.35,0,0,1-1.75,1.69c-3.15-8.55-11.84-3-17.24-6.81-6.27-4.38-13.62-7.2-20.48-10.77-.7-.36-1.54-1.75-1.73-1.64a28.83,28.83,0,0,0-5.31,3.6c-1.48,1.37-4.28,2.79-1,5.27,5.06,3.76,7.56,10.92,15.64,10.95,1.17,0,1.67,6,3.68,8s5.49,2.61,8.37,3.67a43.32,43.32,0,0,1,17.42,12.33c2.77,3.1,5.45,6.6,8.9,8.71C651.4,560.15,657.25,562.29,675.35,567.06ZM614.8,895.12a18.25,18.25,0,0,0-2.43-2.87,1.51,1.51,0,0,0-2.14,2.13,10.21,10.21,0,0,0,3,2.3c.18.1,1-1-120-81.8-8.2,1.72-10.69,1.86-12.83,2.81-1.85.82-.79.91,4,7.17s13.21,6,17.89,11.81c14.65,4.68,27.73,11.82,38.18,23.45,1.31,1.46,4.79.74,6.62,2,9.11,6.15,19,10.71,29,15.09,5.7,2.49,11.76,5.49,15.86,9.93,4.74,5.12,9.8,5.15,15.67,5.2,2.53,0,3.3-.12,2.54-2.65-.68-2.25-.46-5.51-1.93-6.63-3.81-2.92-9.7,1.26-13.58-3.65A59,59,0,0,0,584,868.77c-3.69-2.77-9.22-2.59-12.21-6.87-6.29,1.19-8.51-4.33-11.92-7.56-3.58-3.4-9.74-2-12.23-7-6.38,1.62-8.94-7.15-15.29-5.61-4.19-4.05-8.33-8.17-12.6-12.14-3-2.78-6.38-7.84-9.19-7.59C501.93,822.78,496,814.12,614.8,895.12ZM289.93,200.69c.75,0,1.8.29,2.17-.08a2.2,2.2,0,0,0,0-2.13c-1.17-1.66-2.61-3.73-4.39-.7-.24.41,1.41,1.92,4.4,3-.53,4.14,3.7,5.11,5.39,7.8,4.58,7.29,14,7.71,19.46,14.15,5.94,7.05,12.94,13.2,19.48,19.74l16.58,8.71c5.67-1.37,9.61,1.33,12.82,5.56,2.73,3.61,6.17,4.95,10.75,4.7,2.11-.12,4.54,1.24,6.44,2.5,3.95,2.6,5.79,7.67,12.07,7.82,3.27.08,5.53,6.08,10.53,4.65,3.11,4.88,7.79,5.29,13,5.26,2,0,4.24,2.07,5.94,3.65,3.61,3.37,6.6,7.79,12.58,6.22,5-1.3,6.82,3.69,10.45,5.24,10.73,4.56,21.11,9.93,31.66,14.93.69.33,1.88-.09,2.35.35,3.65,3.48,6.89,7.46,10.82,10.56,4.32,3.41,10.11,5.26,13.65,9.23s9.39,3.61,12.25,7.07c9,10.95,25.54,10.72,33.52,23,.28.43,1.55.19,2.35.32,3.15.49,7.88-.09,9.14,1.73,2.89,4.16,7.81,2,10.81,5a12.64,12.64,0,0,0,6.16,3.21c5.41,1.11,11.9-2.34,16,4,5.73.38,11.56.24,17.15,1.31,4.51.86,8.61,3.88,13.11,4.71,5.63,1,11.49.74,17.24,1.18.63,0,1.1,1.31,1.81,1.66a24.78,24.78,0,0,0,3.54,1.14c.27-2.28,1.58-5.84.62-6.62-5.54-4.54-8.31-13-17.36-12.7-4.65-5.83-14-5.13-17.54-12.48-6.34-2-10.74-6.8-16-10.32-4.91-3.28-11.55-5.14-16.65-8.07C577,333,570.6,331.25,566,326.07s-11.6-7.91-18.7-9.34a3.58,3.58,0,0,1-1.84-1.58c-6.14-9.18-17.61-11.93-24.47-19.8-7.18-8.22-18.46-10.33-25.16-19.22-3.11-4.14-8.89-6.46-13.78-9-1.76-.89-5.28-.79-6.58.4-3,2.76,1.51,3.37,2.34,5.15,1.75,3.8,1.47,8-1.36,8.41a20.1,20.1,0,0,0-8.73,3.57c-5.11,3.39-10.37,2.9-15.4-1.86-6.84-6.46-16.77-9.83-28-11.55-6.19-1-10.74-7.8-18.17-5.16-.76.27-2.27-2.24-3.69-3-2.76-1.39-6.55-1.69-8.4-3.78-3.4-3.87-7.38-2.93-11.41-3.27a6.42,6.42,0,0,1-4.14-2c-4.16-5.28-10.07-7.7-15.69-10.88-4.08-2.3-9.9-1.83-12.29-6.91-2.81-6-10.33-4.2-14.06-8.85-3-3.79-7.09-5.83-11.92-7.69-5-1.93-9.22-7.34-12.52-12.1C306.9,200.22,299.72,200.44,289.93,200.69Zm338.28,525.2c3.82-.33,7.37,0,10.23-1.19,1.35-.58,2.63-5,1.79-6.35-3.3-5.38-8.77-8.66-11-15.73-1.76-5.68-9-9.62-13.63-14.46-4-4.12-10-4.12-14.21-8.66-7.66-8.29-14.72-17.45-26.06-21.9-4.3-1.69-7.54-6.59-10.74-10.45-3.88-4.68-10.36.35-13.56-3.62-3.84-4.76-11.06-2.94-14.24-8.7-2-3.66-6.12-4.45-10.12-5.82-4.3-1.47-7.28-6.45-11.28-9.28-3.12-2.21-6.92-3.48-10.43-5.15-2.1-1-4.63-1.54-6.25-3.05-5.54-5.13-9.9-12.59-16.35-15.43-7.17-3.15-12.13-7.92-17.22-13a13.57,13.57,0,0,0-8.51-4c-13.06-1.91-15.84-7.83-10.28-20.28,3.7-8.26,3.14-11.26-2.58-17.23A42.43,42.43,0,0,0,430,532.28c-7-3.17-14.87-6-20.63-10.67-7-5.7-14.57-9.36-22.43-13.14-4.19-2-9.2-3.74-12.25-6.46-3.91-3.5-9.2-2.59-12.72-6.55-3-3.37-9.31-2.41-12.07-7.07-6.34,1.37-8.89-4-11.93-7.47-4.09-4.7-9.63-.88-13.76-3.47a16.86,16.86,0,0,1-3.58-3.53c-3.35-4-7-6.94-12.77-5.77-5.25,1.06-7.15-7.11-13-5-2.21.78-5.46.41-6.66,1.87-2.34,2.83-1.4,6.28,1.69,8.41,7.71,5.28,7.89,16.19,16,21.11,1.43,5.63,4.73,9.87,8.69,14.15A31.76,31.76,0,0,1,322.13,523c1,4.79,4.65,6.55,6.87,9.83,4.76,7,14.95,6.51,19.51,14.11.88,1.46,4.94.73,6.46,2.15,7.11,6.63,17.43,7.46,24.5,14,5.92,5.48,10.21,13.78,20.63,11.3.95-.23,2.83,1.67,3.65,3,3.27,5.28,9.2,6.13,14,8.94,4.09,2.41,5.93,7.32,11.71,8.44a29.45,29.45,0,0,1,14.23,7.73c4.22,4.17,9.34,6,14,8.91,5.34,3.35,12.5,3.87,16,10.38,1.54,2.83,4.2,6,7.06,7,10.84,3.85,18.87,9.38,18.49,22.38,0,1.29,1.43,2.83,2.54,3.9,3.56,3.44,7.28,6.7,10.94,10,8.76-1.39,9.71,11.54,18.5,10.1,5.41,5.18,10.85,10.33,16.23,15.54,3,2.92,5.51,6.76,9,8.67s7.19,4.15,10.41,5c5.24,1.42,9.3,3.77,11.85,7.77,4.05,6.34,11.72.4,15.53,5.28,5.93,7.62,16.41-1.33,22.67,6.79C618.7,726.48,624.68,725.46,628.21,725.89Zm16.91-224.4a6.17,6.17,0,0,0-1-1.82c-4.3-3.79-8.12-9.27-13.13-10.77-4.66-1.4-7.18-5.82-12.87-6.08-5.06-.24-6.87-8.5-13.44-9.88-3.53-.74-6.65-4.43-9.51-7.25-3.52-3.48-9.74-2-12.24-7.07-5.79.57-8.4-4.15-12.26-7-5.75-4.27-12.36-7.09-17.73-12.31-3.61-3.51-9.79-4.42-14.85-6.39-3.65-1.42-5.54-6.45-10.52-5.06-10.2-11.93-25.89-17.34-35.52-29.9a13.09,13.09,0,0,1-2.87-6.31,149.64,149.64,0,0,1-.12-15.13c.06-3.34,2.41-4.71,7.36-4.14,2.32.27,5.08.41,6.8,1.72,5.07,3.87,12.05,4.34,16,10.45,3.15,4.82,7.91,8.7,12.34,12.55,4.79,4.17,7.56,11.44,15.69,10.77,10,12.31,26,14.81,38.23,23.33,4.1,2.85,8,.92,12,1.61.48.09,1.34-1,1.74-1.66a1.84,1.84,0,0,0-.16-1.71c-2.39-2.27-4.56-5.05-7.4-6.5-4.82-2.46-10.6-3.27-15-6.24-4.79-3.23-8.45-8.13-12.64-12.26-2.37-2.34-4.8-6.48-7.25-6.51-7.22-.12-8.95-7.88-13.94-9.17-7.07-1.84-10.31-8.68-15.84-10.51-5.16-1.69-9-4.08-11.85-7.82-3.29-4.29-8.6-4-12.66-6.47-4.79-2.9-9.5-5.53-13.73-9.37-4.06-3.69-10.44-3.81-14-8.93-2.32-3.34-5.53-7.52-9-8.29-6.45-1.43-11.64-5.2-16.75-8.28-5.58-3.37-9.43-9.29-17.3-7.4-1,.23-2.42-2-3.76-2.86-3.32-2.23-4.67-6.6-9.65-7.29-3.67-.52-7.33-2.73-10.49-4.91A29.3,29.3,0,0,0,389.92,301c-7-9.53-18.73-11.73-27.86-17.95-3.33-2.27-7.9-.89-10.68-5.09-2.07-3.12-4.81-6.1-9.69-6.89-4.33-.7-9.17-3.56-12.31-6.18-4-3.32-9-3-12.78-6.44A28.32,28.32,0,0,0,302,251.54c-5.22-.62-9.24-1.87-13.19-5.2-.93-.78-5.23.66-6.17,2.19s0,4.67,1.06,6.58c1.18,2.12,3.35,5.06,5.23,5.17,6.67.41,9.26,6.51,14.09,8.88,5.51,2.71,10.27,7.64,17.09,7.43,5.44,7.5,13.86,11.05,21.69,14.66s14.57,9.16,23.4,10.59c2.85.46,3.85,5.26,8,4.9,8.66-.74,14.84,4.83,21.39,9.16,3.3,2.17,5.51,5.19,10,6.42,4.11,1.12,9.34,3.28,12.29,6.28,4.49,4.56,9.23,2.68,13.92,3.39.68.1,1.13,1.25,1.83,1.64,6.33,3.49,13,6.43,17.52,12.51,11.68,2.39,16.43,11.54,21.32,21,1.39,2.68,1.5,3.71-.47,5.48s-3.56,3.59-5.38,5.33c-6.09,5.79-8.92,6.45-17.12,1.61-4.06-2.39-9.83-1.84-12.28-7-5.71,1.61-7.91-5.9-12.92-5.21-5.66.78-9.51-1.28-13-5.44-2-2.42-4.06-5.64-8.06-4.74-5.89,1.33-9.35-2.17-12.66-6-4.36-5.07-10.93-6.58-16.57-8.71-4.39-1.65-9.28-1-13-5.44-4.82-5.8-10.47-10.93-15.95-16.13-5.83-5.54-14.43-7.21-19.56-14-.91-1.21-4.83-.33-7.34-.14-4.18.32-5.31-3.55-7.81-5.51-8.92-7-17-10.45-23.74-9.55a5.29,5.29,0,0,0-3.5,2.83c-.57,1.39-.64,3.84.22,4.78,4.52,5,11.64,8.86,13.58,14.57,2.35,6.9,6.51,11.53,11.45,15.33,5.62,4.32,3.89,13.29,10.6,15.78,5.86,2.18,10.3,7.47,17.16,7.49,1.19,0,2.38,2.21,3.56,3.4,1.79,1.79,3.27,4.45,5.41,5.19a81.2,81.2,0,0,1,18.8,9.32c5.48,3.72,14-1.32,17.47,6.86.14.32,1.58.23,2.39.12,5.33-.69,9.73.48,13,5.23,5.27,7.61,14,10.56,21.64,14.74,3.18,1.75,7.83-.64,11.45,3,2.63,2.63,6.76,3.76,10.24,5.51,1.39.69,2.9,1.88,4.26,1.75,5.36-.48,9.76.59,13,5.35,2.44,3.59,5.81,5.61,10.57,4.91,9.67-1.43,18.23.33,23.83,9.4,8.88-1.18,10.77,9.17,18.21,10.91,7.63,1.79,11.83,8.8,16.7,14.2a53.06,53.06,0,0,0,23.86,15.63c3.71,1.14,5.19,3.82,7.77,5.66,2,1.42,3.78,4.53,5.62,4.5,12.84-.25,21.93,8.38,32.26,13.64,5.7,2.9,14.18-1.76,17.5,6.73.11.29,1.59,0,2.43,0,6.43.23,13.49-1.77,18.09,5.05C637.27,502.87,641.73,505.21,645.12,501.49Zm-5.4,309.94c1.68,0,3.36,0,5,0,4.8-.1,7.33-4,5.27-8.08-3.89-7.71-10.84-19.29-16.15-20.7-9.81-2.61-14.22-10.77-21-16.48-3.8-3.22-7-9.21-11-9.73-7.1-.92-10.17-5.89-13.48-10-4.39-5.51-12.66-4.26-16-10.52-3-5.76-10.42-4.12-14-8.87-5.53-7.25-16-8.16-21.06-16.07-6.5,2-8.85-7.59-15.38-5.49-3-5.64-10.39-4-14.07-8.74-6.72-8.6-15-8.49-24-3.86s-17.53,4.81-23.94-4c-5.09-7-12.91-10-19.83-13.25-8.39-3.94-17.13-7.69-25.2-12.05-8.22-4.43-17.63-7-24.67-13.64-6.35,1.39-8.49-4.27-12.05-7.38-4.24-3.71-10.15-4-14.24-8.66-5.2-5.94-14.34-7.3-19.17-14.24-9,2.61-13.62-4-18.95-9.11a2,2,0,0,0-1.68-.13c-.7,1.39-2,3.18-1.63,4.27,4.43,12,13.09,21.45,19.59,32.22.42.7,1.09,1.62,1.77,1.74,10.83,1.9,15.5,11.64,22.77,18,2.7,2.36,5,4.17,8.7,3.48s6.29.67,8.69,3.48a27.43,27.43,0,0,0,7.38,6.49c4.07,2.18,8.75,3.22,12.93,5.24a125.53,125.53,0,0,1,14.33,8c3.95,2.6,9.75,2,12.22,7,6.69-2.67,8.82,7.82,15.44,5.35,3.1,5.16,8.08,4.91,13.17,4.87a5.67,5.67,0,0,1,4,2.31c3.85,5.77,10.35,7.39,15.77,10.74,4,2.47,9.85,1.91,12.21,7.05,2.77,6,10.07,4.24,14.21,8.69s7.57,10.47,15.24,11.78c6.08,1,7.84,11,16,9.83,5.73,8.37,17.25,9.65,22.71,17.94,4.44,6.75,12.42,7.27,18,11.95,1.81,1.52,5.75,1.48,8.42,3.83,2.21,1.95,5.7,2.35,8.46,3.76,4.86,2.5,9.35,6,14.46,7.66,4.55,1.45,9.75.89,14.66,1.21C627.74,814,634.26,810.61,639.72,811.43ZM655.48,587c-5.53-4.47-8.28-12.41-16.9-12.79-5.64-8.52-16.74-9.69-23.16-17.3-2.59-3.07-5.87-7-9.34-7.57-5.83-1-7.64-6-11.72-8.49-4.4-2.65-9.94-3.15-10.78-10.42-.37-3.09-7.39-1.12-10.17-5.26-2.11-3.13-4.78-6.17-9.76-6.74-6.46-.72-7.86-10.81-16-10-1.12.11-2.5-1.92-3.7-3C536,498.06,529,489.17,520,483.76c-9.58-5.72-16.19-14-23.75-21.38-4.25-4.16-8.51-4.38-13.48-4.27-14.41.31-14.7.65-19.57-3.41-2.4-2-4.63-1.7-6.95-1.57-5.93.35-10.8-.61-15.89-4.73-3.07-2.48-8.72-.48-13.57-3.72-4.55-3-9.07-6.52-13.81-9.09-6-3.26-11.53-8.86-19.45-7.78-5.23.71-7.16-7.28-13-5.06-9.48-12.8-26.08-17.4-35.3-30.38-5-7-13-9.62-19.65-13.8-3.93-2.45-9.21-3.44-11.78-7.64s-8.32-2-10.36-5.38c-2.66-4.34-8.07-1.76-10.54-5.26-3-4.26-7.48-2.36-11.31-3.3s-7-3.45-10.62-4.7c-.94-.33-2.62,1.49-4,2.34,8.92,8.92,17.78,17.88,26.78,26.71,2.29,2.25,4.88,5.56,7.57,5.79,5,.44,7.61,3.76,9.73,6.86,3.17,4.67,9.79,2,12.4,7,3.32,6.32,12.39,5,15.54,10.82,4.15,7.61,11.79,4.44,17.36,7.15,4.93,2.4,9.37,5.83,14,8.8,6.72-2.74,8.77,8,15.45,5.35,4.65,3,9.12,6.31,14,8.81s10.21,3.82,15.09,6.19,9.58,5.35,14.26,8.21c4,2.46,9.72,2.05,12.19,7.11s8.87,3.62,12.14,7.18,9.3,2.32,12.38,7c2.16,3.28,5.47,5.13,10,6.27,4.22,1.06,7.38,6.38,10.95,9.89,4.2,4.13,8.67,8,12.4,12.56a26.93,26.93,0,0,0,14.06,8.84c0,6.52,5,9.93,8.92,14,5.09,5.22,10.36,9.87,17.42,12.77,4.17,1.72,9.86,1.72,12.29,6.85,2.8,5.9,9.9,4.72,14.12,8.77,6.55,6.29,22.68,14.14,33.42,16.45a12.54,12.54,0,0,1,7.91,5.18c3.43,4.65,7.75,5.77,13.09,5.21,2.48-.26,6.31-1,7.29.24,3.64,4.62,8.17,5.4,13.31,4.71C645.79,588.66,651.06,591.34,655.48,587ZM262.1,147c1.5,1.82,2.89,3.41,4.17,5.08,3.58,4.65,10.72,3.22,14.1,8.81s11.4,5.26,15.78,10.59c2.94,3.58,5.66,9.85,11.19,8.72,6.83-1.39,10,5.72,15.58,5.17,5.8-.58,9.24,2,12.86,5.77,3.37,3.5,7.38,6.39,11.11,9.55,8.13-2.36,11.93,3.91,16.76,8.27,1.08,1,3.11,2.07,4.2,1.69,6.68-2.36,10.81,3.18,15.41,5.53,9,4.59,19.73,6.85,26.65,14.41,4.7,5.13,12.63,4.11,16,10.44,6.78-1,11,5.28,18,5.72,6.35.39,12.3,6.22,18.58,9.37,1.34.67,3.31,0,5,.11,4.5.29,6.12-.77,6.35-5.15.22-4.11-.29-7.89,3.56-11.23,5.43-4.7,6.87-5.1,12.33-.72,3.09,2.48,4.59,6.86,9.67,7.1,5.62.27,7.1,7.86,11.42,8.59,6.93,1.17,8.24,5.92,10.31,10.76,10,3.15,19.09,7.87,26.17,15.87,7.16,1.23,12.75,5.74,19.06,8.77s12.48,6.3,18.83,9.21c7.14,3.28,13.63,8.38,22.19,7.26,3.59,9,14.74,1.28,19.09,8.67,1,1.73,2,1,3.65-.61s4.12-2.07,6.25-3c4.46-2,5.09-5.8,2.51-9.34-5-6.87-15.16-6.37-19.51-14.11-.59-1.05-2.81-1.11-4.19-1.81-13.18-6.7-26.3-13.52-39.52-20.13-4.86-2.43-10.21-3.94-14.83-6.7s-6.84-9.78-14-8.78c-19.88-12.38-41.42-21.55-62.29-32-8.79-4.42-11.51-4.36-17.2,1.09-3,2.91-6,5.89-8.91,8.91-2.7,2.79-5.42,3-8.63.76-9.69-6.67-20.94-10.31-31.17-16s-20.73-10.75-31.12-16.07c-1.38-.71-2.88-1.91-4.23-1.8-5.32.43-9.33-.92-13.13-5.17-4.08-4.57-23.32-12.86-31.4-15.18-2.22-.64-5.17-1.22-6.26-2.85-4.81-7.19-14.5-7.27-19.56-14.05a8.45,8.45,0,0,0-6.12-3.07c-7.81.37-13.69-4.42-19.33-8.06s-13.87.87-17.44-6.74ZM635.58,864.6c-5.4-5.41-11.63-10-15.62-16.05-4.51-6.86-13.25-5.94-17.91-12.17-4.33-5.79-9.93-10.63-17.34-12.56-3.57-7.33-12.78-6.7-17.52-12.43s-12.46-6.44-18.48-10.06c-1.34-.8-3.32-1.27-3.93-2.45-3.77-7.23-13.28-6.35-17.51-12.46-4.43-6.4-14-4.73-17.7-12.33-2.26-4.71-9-2.51-12.36-6.93-1.33-1.75-6.17-1.27-9.36-1.06-4.5.3-8.26-.64-10.74-4.51-2.9-4.51-8.51-4.46-12-7.31-5-4.08-12.21-3.85-16.17-10.28-3.35-5.44-8.41-10.57-16.55-8.44-1,.28-3.08-1.23-3.86-2.43-5.15-7.89-16.3-7.75-21.13-16-6.59-1.57-10.78-6.59-15.91-10.41-4.83-3.59-11.93-4.08-16.85-7.58-7.13-5.08-16.84-6.14-22.45-12.44C340,673,322.47,669,307.65,660.14c-.87-.52-2.86.86-4.34,1.35.5,1.19.72,2.63,1.54,3.52,3.86,4.17,9.14,7.45,7.63,14.55a5.62,5.62,0,0,0,1.27,4.4c10,10.2,19.34,21.2,30.48,29.95C350.66,719,359.66,721,367,725.58c2,1.22,4.25,1.9,6.33,2.93,3.49,1.72,7,3.36,10.36,5.36,4,2.43,9.56,2.14,12.25,6.89,9-2.53,13.73,3.76,18.89,9.07,3.49,3.6,6.64,7.23,12.63,6.27,1.93-.31,4.26,1.6,6.36,2.6,9.8,4.7,19.8,9.16,29.18,14.52,5.78,3.31,10.26,4.48,15.55.69,1.91-1.38,2.62-2.45,5.5-.63,12.57,8,27.76,11.54,38.25,23,8.14-2.11,5.53,7.59,8.59,8.46,7.76,2.19,12.16,7.86,17.37,12.87s13.65,5.51,17.5,12.44c6.68,1.44,11.52,5.67,15.67,10.71,3.25,3.94,8.18,4.86,12,7.4,5.92,4,13.93,5.1,17.72,12.12C619.06,861.91,625.54,871.62,635.58,864.6ZM627,649.91c2.51,0,5.11.4,7.51-.12,2.09-.46,5.14-1.58,5.62-3.09.57-1.8-.59-4.8-2-6.44-3.23-3.78-7-7.06-10.63-10.54-8,2.1-5.62-7.2-8.64-8.35-6.42-2.42-10.7-6.83-15.61-11-5.45-4.58-12.57-7.5-17.11-12.75-5-5.85-11.79-8.55-17.94-11.77-5.07-2.64-9.66-5.22-13.79-9.18-4-3.79-10.57-3.6-13.88-8.91-3.14-5-10.5-3.4-14-8.83-5.86-9.15-18.12-10.73-24.44-19.59-5.73,1.52-7.9-5.24-12.77-5.47-1.44-.07-3.78.52-4.25,1.5-1.89,4-.86,10.51-8.75,8.69-.51-.12-2.37,2.45-2.37,3.77,0,5.36-2.29,12.61,7.65,11.4,4.15,4.14,8.35,8.23,12.41,12.45,3.4,3.53,8.86,2.73,12.38,6.88s6.57,9.62,13,10.79c6.24,1.13,8.73,7.15,13.1,10.74,2.5,2.06,4.35,4.5,8.25,4.6,1.94.06,3.78,2.76,5.7,4.2,2.55,1.92,5,4.93,7.75,5.38,4.24.69,5.37,2.47,5.54,6.29.13,2.67,1.7,4.37,4.86,4.11,5.11-.41,7.1,6.87,13,5.39.83-.22,2.44,2.07,3.48,3.37,7.55,9.36,20,8.75,29.17,14.38C616,651.38,621.5,648.93,627,649.91ZM619.17,978c2.53,0,5.11.33,7.55-.13,1.34-.24,3.46-1.83,3.43-2.77,0-2.25-.9-6.29-1.89-6.43-6.48-.94-11.28-5.41-17.06-7.73-2.68-1.08.51-8.32-6.27-8.31-5.65,0-7.74-5.76-11.31-9C587.4,938,581.5,932,575.78,925.8c-2.54-2.73-5.19-3.53-8.76-3.46-2.24,0-5.27-.47-6.62-1.94-6.17-6.76-14.79-9-22.23-13.39-8.13-4.78-17.64-7.18-24.72-13.39-6.77-5.92-12.31-13.36-22.7-12.34-10.24-7.35-22-11.85-33.13-17.55-5.88-3-10.45-7.44-15.81-10.62A116.37,116.37,0,0,0,423,843.92c-6.25-2.3-11.61-5.57-15.69-10.81-1.35-1.72-2.62-1.72-3.52.59-.57,1.46-1.15,3.95-.42,4.7,4.52,4.67,8.75,10.66,14.38,12.86,4.33,1.7,7.06,7.59,12.83,5.6,4.21,4.06,8.27,8.28,12.68,12.1,1.7,1.47,4.24,1.92,6.26,3.06,8.38,4.72,17.5,8.44,23.38,16.65,2.17,3,5,3.93,8.65,3.61,2.31-.21,5.09-1.07,6.81,1.73,4.54,7.42,13.56,8.24,19.7,13.32,11.06.24,12.26,15.16,23.95,15.7,4.2.19,1.87,7.2,2.5,11.11.12.73.59,1.87,1.1,2a24.35,24.35,0,0,1,14,9c.91,1.18,2.81,2.72,3.88,2.48,9.28-2.11,13.76,4.71,18.5,10.17,3.74,4.32,7.77,5.79,13.11,5.14,4.15-.51,5.3,3.52,7.8,5.47C601.16,974.79,609.64,978,619.17,978ZM887.92,395.16c-4.62-4.62-9.36-9-13.6-13.71-4.93-5.53-13.7-5.22-17.74-12.26-.83-1.43-4.34-1.9-6.58-1.8-3.62.15-6.51-.55-8.62-3.62-4.33-6.32-12.25-7.1-18-11.43-2.19-1.65-6.72.13-9.49-1.16-4.95-2.29-9.2-6.06-14.06-8.58-4.16-2.16-9.33.9-13.81-3.38-3.73-3.57-9.55-5-14.44-7.3-3.49-1.68-7.34-5.25-10.41-4.67-7.41,1.41-11.07-6.24-18.11-5.67-6.4.51-11.39-4.84-16.73-7.76-4.14-2.27-7.83-1.79-11.75-1.93-1.14,0-2.88,1.64-3.36,2.9s-.57,4,.29,4.7c5.13,4,7.51,11.56,14.92,12.34,7.19.76,8.22,9.55,15.85,10.68,4.86.73,8.56,7.7,13.59,9.25,7.12,2.2,10,8.29,15,12.41,2.81,2.36,5.4,3.69,8.83,3.06,10.26-1.89,18.46,3.11,27.2,7.24,11.92,5.65,22.5,15.52,37.37,13.13,1.06-.17,2.69,1.74,3.68,3,3.72,4.66,10.21-.95,13.58,3.57,3.09,4.15,7.17,3.66,11.21,3.32C877.52,397.08,882.65,399.15,887.92,395.16ZM534.75,197.64l-.84.06c.62,5.64-.47,12.48,2.37,16.58,2.6,3.74,9.54,4.35,14.41,6.66,2.81,1.34,5.12,4,8,4.84,5.29,1.55,11.48-2.35,16.4,2.85,4.76,5,11,2,16.54,2.13,4.59.13,7.35,2.2,10.78,4.62,2.26,1.59,7.64,2,9.43.37a18.81,18.81,0,0,1,15.7-4.85c.55.06,1.36-.88,1.8-1.52a1.86,1.86,0,0,0,.16-1.71c-7.09-8.91-20.59-19.6-28.5-21.81-3.74-1.05-7.87.79-11.49-2.78-2.62-2.59-6.72-3.7-10.18-5.44-1.37-.7-2.82-2-4.17-1.88A15.8,15.8,0,0,1,562,190.88c-2.41-2.37-8.55,2-11.41-2.1-3.15-4.46-9.74-1.86-12.3-6.93-.82-1.63-3.1-1.26-3.32.9C534.41,187.66,534.75,192.67,534.75,197.64Zm201.5,252.8L753.81,468c4.73-.77,7.07,3.36,10.53,4.87,2.8,1.21,6,1.19,8.47,3.86,2.67,2.89,8.25.79,10.25,5.37,15.64,4.48,27.78,18.72,45.86,16.39,3.63,3.43,7.47,6,13,5.11,4.76-.81,9.83,1.14,14.44-1.37.2-.65.72-1.47.5-1.8-8.86-13.43-27-14-36.58-26.57-4.22-.27-7.84-1.68-10.34-5.3-6.87,1.28-12.2-2.41-17.84-5.35s-10.83-7.15-17.95-5.15c-3.56,1-5.84-2.24-8.64-3.22C756.25,451.6,747.61,442.62,736.25,450.44Zm-2.37-254.8c-6.71,0-13.42,0-20.13.08-.61,0-1.35,1-1.75,1.66a1.84,1.84,0,0,0,.11,1.71c1.7,1.85,3.27,4.66,5.35,5.15,4.69,1.12,10.13,0,14.39,1.79,5,2.13,9.08,6.44,13.55,9.8,8.52-2.07,15.38,3.37,23.08,5,6.93,1.46,15.27-3.23,20.64,4.88,5.84.07,11.89,1.16,17.46,0,7.42-1.58,11.25,5.83,18.1,5.44,10-.57,20.11-.11,30.18-.22.61,0,1.35-1,1.75-1.66a1.8,1.8,0,0,0-.11-1.7c-3.15-2.39-4.81-7.69-9.78-6.55-10.31,2.37-17.9-7.12-27.82-5.89-3.49-7.79-12.35-1.72-17.34-6.94-5.22-5.46-12.7-1.12-19-2.44-1.52-.31-3.61-.32-4.42-1.31-5.28-6.46-12.39-2.83-18.65-3.72-4.54-6.94-11.62-4.81-18-5C738.91,195.57,736.39,195.64,733.88,195.64ZM686.25,423.92c-2.55-5.57-4.75-10.5-7.1-15.35-.25-.52-1.33-.81-2.06-.91-6.22-.85-13.46,2.7-18.21-4.32-6.56-.25-13.12-.46-19.68-.77-4.06-.19-8.11-.51-12.16-.78-3.47-7.79-12.61-1.28-17.18-6.93-3.76-4.65-4.79,1.3-6.93,2.5s-2.93,3-.42,5.27c4.92,4.49,9,10,14.35,13.86,4.25,3.06,10.24,3.6,14.75,6.41,14.49,9,30.79,14.52,45.21,23.63.6.38,1.33,1.24,1.73,1.11A2.91,2.91,0,0,0,680.3,446C682.08,438.37,678,429.37,686.25,423.92ZM711,783.74c-5.7-4.24-8.3-12.64-17.14-12.69-1.82-3.36-3.27-7-5.57-10-2.53-3.31-5.93-5.94-8.79-9-4.8-5.15-9.49-10.26-15.76-1.76-4.78.51-9,1-13.85-2.08-7.8-5-14.1-2.89-18.65,4.54-1,1.62-.77,5,.31,6.61a20,20,0,0,0,7.26,6.53c6.28,3.12,14.15,3.61,18.58,9.71,4.56,6.31,13.63,5.49,17.79,12.3,1,1.71,3.92,3,6.07,3.21,5,.47,10.17-.5,15.09.3C703.46,792.55,707,788,711,783.74ZM448.65,121.67c0-8.27-2.44-13.67-7.65-16.88-6.63,2.8-8.65-7.92-15.58-5.25-1.7.66-5.11-.5-6.47-2-6.16-6.7-14.75-8.93-22.13-13.32-6.7-4-14.93-5.9-19.91-13-2.25-3.22-11.3-2.42-13.44.14-1.77,2.12-.18,6.32,4,10.38s7.69,10.59,12.59,11.87c7.22,1.91,10.66,7.14,15.54,11.19,9.37-.84,11.26,8.88,17.5,12.35,8.14,4.54,16.48,8.71,24.85,12.8,1.35.66,3.32-.07,5,.12,2.84.35,4.8-.86,5.59-3.4C449,125.14,448.65,123.34,448.65,121.67ZM434.53,897.23c2.66,0,3.56.22,4.31,0a41.74,41.74,0,0,0,4.2-1.92c-.8-1.18-1.62-2.35-2.41-3.54-2.45-3.7-6.71-3.81-10.2-5.52-4.22-2.07-7.32-6.33-11.3-9.07-3.14-2.16-6.87-3.48-10.35-5.14-8.35-4-18.06-6.41-24.77-12.28-12.15-10.63-27.63-14.48-40.66-23a3.52,3.52,0,0,0-2.46,0,4.51,4.51,0,0,0-2,1.23c-.43.43-.95,1.5-.78,1.68,2.87,3,7.7,5.54,8.46,9,2.85,12.9,13.62,17.5,23.19,22.21,8.2,4.05,16.34,8.57,25.15,11.71,4.29,1.53,7.72,4.81,13.06,4.93,3.51.08,6.8,3.78,10.47,4.55,3.89.82,8-.48,11.17,3.6C430.81,897.09,434,897.06,434.53,897.23ZM323.81,434.05c-.45.66-1.24,1.3-1.27,2-.07,1.61-.37,4.15.47,4.69,2.57,1.65,6,2.05,8.41,3.85,3.33,2.49,6,5.89,9,8.78,5.27,5,9.34,12.22,18.65,10,1-.25,2.63,1.57,3.89,2.53,3.2,2.44,6.12,6.51,9.6,7,5,.77,7.09,7.71,13,5.42,3.19,8.54,12,3,17.37,6.92,4.94,3.6,11.14,5.44,16.68,8.27,2.79,1.42,5.18,4,8.08,4.74,1.58.41,5.06-1.47,5.52-3,.56-1.81-.63-5.74-2-6.28-3.65-1.4-8.92-.13-11.53-2.33-5-4.19-9.71-8.18-15.94-10.51a113.28,113.28,0,0,1-16.84-8,322.67,322.67,0,0,0-33.37-16.84c-6.8-9.86-19.77-10.06-28-17.76C325.33,433.32,324.41,433.86,323.81,434.05Zm387.31-14c1.4.76,3.14,2.23,5.12,2.68,6.33,1.45,13.9-3,19.12,2,6,5.73,12.72,1.45,18.77,3.31.71.22,1.3,1.06,1.77,1.74,2.18,3.14,5.38,3.81,8.72,3.06,5-1.11,6.82,4,10.49,4.93,3,.74,6.49-.09,9.74-.44.64-.06,1.47-1,1.67-1.72.12-.43-.75-1.61-1.27-1.67-5.09-.63-9.42-2.9-12-7.19-2.9-4.85-8.69-3.28-12.43-6.77s-9.64-4.61-13.82-8.89c-18.41-18.87-13.18-18.07-31.4-.29a35.6,35.6,0,0,0-4.44,5.67C710.79,417,711.12,418.06,711.12,420ZM299.75,109.84a8.85,8.85,0,0,0-1.84,1.94,1.89,1.89,0,0,0,.5,1.7c5.35,4.72,9.93,9.77,17.09,13s11.32,12.28,18.14,16.75c6.33,4.15,14.69,5.64,20.27,11,8.2,7.89,19.63,9.54,28.49,16,.77.57,4.91-1.51,5.38-3,.56-1.8-1.14-4.31-1.86-6.51-6.5,2.19-8.75-7.59-15.25-5.4-4.73-4.66-9.42-9.36-14.23-13.93-2.33-2.22-4.82-5.8-7.4-6-7.08-.42-8.54-8.21-13.58-9.59-6.17-1.68-11.62-4.85-16.74-7.79-4.66-2.68-11.09-2.64-14.34-8.07C304,109.21,301.25,109.84,299.75,109.84Zm330,80.76c4.78,0,8.12.22,11.42-.11a6.93,6.93,0,0,0,4-2.23c1.89-2.08-.48-12-3.19-12.72-8.29-2.21-15.72-6.65-23-10.63-6.15-3.39-9.26-3.32-12.89,2-2.08,3-4.89,4-8.53,3.6a48,48,0,0,0-10,.08c-.72.08-1.91,3-1.74,3.12,3.09,2.42,4.53,7.22,9.6,6.83,4.17-.32,7.36,1.75,11.09,3.34C614.31,187.15,621.49,194.3,629.78,190.6ZM817.49,425c-3.64-3.41-7-7.11-10.94-10.06-3-2.29-6.79-3.67-10.26-5.38-13.87-6.82-28.19-12.77-41.36-21-.6-.37-2.95.68-3.28,1.54-.56,1.45-.82,3.74,0,4.86,3.32,4.74,9.34,6.12,13.37,9.36A111.21,111.21,0,0,0,782.85,416c6.83,3.6,14.06,6.33,20.71,10.48C807.44,428.94,812.83,429.61,817.49,425ZM650.24,675.15c-1.68,0-3.35,0-5,0-.81,0-2.17-.13-2.34.23-1,2.1-2.59,4.55-2.16,6.47.46,2.11,3.34,3.55,4.43,5.66,3.75,7.23,12.64,6.82,17.63,12.31s10.65,10.52,16.11,15.64c.45.42,1.63.1,2.46,0a6.41,6.41,0,0,0,2.35-.38c2.16-1.09,2.23-2.18.83-3.55-6-5.85-11.59-12.14-17.88-17.63-4.84-4.23-6.77-8.94-6.15-15.19.11-1.11-1.58-3.19-2.75-3.46C655.35,674.77,652.75,675.15,650.24,675.15Zm-7.55-418.72c2.14-5.16,2.14-5.2-2.11-5.25s-8.34,0-12.51,0c-4.47,7-11.56,4.68-17.92,5.12-1.45.1-2.85,1.1-4.27,1.69a25.43,25.43,0,0,0,2.06,3.51c1,1.3,2.12,2.85,3.54,3.49,5.61,2.53,11.43,4.63,17.06,7.13,4.78,2.13,10.61.5,11.83-4C641.4,264.35,638.82,259.83,642.69,256.43Zm118.9,803.9c-.21-1.59.15-3.71-.75-4.67-5.13-5.51-12.16-9.9-15.5-16.27-4.68-8.94-14.23-2.87-19.45-8.53-1.39-1.51-4.24-1.74-6.49-2.31-.52-.13-1.41.66-1.94,1.21s-.92,1.43-.73,1.7c9.75,13.63,26.73,18.89,37,32,.36.46,1.52.32,2.32.38s1.94.35,2.46-.06A25.68,25.68,0,0,0,761.59,1060.33ZM635.07,331.92c-3.35,0-6.72-.19-10.05.1-1.44.12-2.81,1.22-4.21,1.88.82,1.19,1.55,2.44,2.47,3.54,6.4,7.61,17.76,6.68,24.37,14.09.8.89,3.88,1.18,4.59.46,3.5-3.6,8.24-4.48,12.39-6.62.89-.46,1.2-3,.93-4.44s-1.62-3.8-2.43-3.77c-5.91.21-10.88-.5-15.82-4.88C645,330.2,639.25,331.92,635.07,331.92Zm106.11,23.9c-.55-.59-1.7-2.86-3.49-3.58-8-3.27-15.79-6.59-22.1-13.06-4.51-4.62-11-3-17,2.64-2.06,2-2.54,3.43-.06,5.36,1.93,1.5,4.14,5,5.37,4.65,7.36-2.13,12,4.66,18,5,5.36.3,8.89,2.59,12.94,5.25C737.66,363.94,741.86,360.77,741.18,355.82ZM665.36,904.48c7.14,7.14,14.09,13.85,20.75,20.84,3.5,3.67,7.69,1.91,11.57,2.08,2.81.13,4.94-5.68,3-7.78-3.42-3.62-6.75-7.39-10.63-10.46-2.3-1.83-6.29-1.73-8.27-3.73C676.69,900.35,671.72,901.31,665.36,904.48Zm-19.8-70.28c4.71,4.71,9.6,9.27,14.07,14.2,2.47,2.72,5,3.93,8.64,3.43,5.57-.76,11.47,1.64,17.13-1.8-5.93-9.74-13.47-15.63-25.66-13.59-1.65.27-3.73-2.69-5.77-3.87C650.8,830.75,647.89,831.2,645.56,834.2Zm98-350.53c3.2-.62,5.17-.41,6.21-1.3,3.56-3.05-1-3.69-2-5.13-5.26-7.52-13.85-10.14-21.55-14-.66-.33-2.07-.38-2.39,0-.77,1-1.84,3-1.49,3.36a173.45,173.45,0,0,0,14.1,14.08C738.64,482.55,742,483.06,743.57,483.67ZM682.91,256.21a11.6,11.6,0,0,0,3,0c1.48-.45,2.88-1.14,4.32-1.73a18.7,18.7,0,0,0-2.1-3.53,74.46,74.46,0,0,0-9.05-8.72c-.56-.42-3.56,2-5.12,3.39s-4.22,2.69-1,5.34S678.18,257.75,682.91,256.21Zm1.56,30.29c4.1,0,5.82.3,7.36-.09s2.65-1.48,4-2.26a18.11,18.11,0,0,0-3.48-2.65c-4.16-1.82-8.32-3.92-12.7-4.88-2.21-.49-4.5,1.67-3.8,4.76.34,1.46.79,3.82,1.67,4.07A37,37,0,0,0,684.47,286.5Zm-238.34,212a9,9,0,0,0-2.43,0c-1.44.4-2.82,1-4.22,1.56.53,1.15,1,2.35,1.62,3.44,3.5,6,9.31,5.46,14.94,4.91.73-.07,2-2.86,1.8-3.06C454.48,502.21,452.12,497.17,446.13,498.49ZM808.32,443a6.39,6.39,0,0,0-2.49,0,35,35,0,0,0-3.86,2.47,14,14,0,0,1,1.71,1.74c3.61,5.17,8.67,6.82,14.64,5.74,1.38-.24,2.56-1.59,3.84-2.43l-1.72-1.73C817.08,445.39,814,441.34,808.32,443ZM710,286.49,706.15,289c3.56,2.78,5.33,8.33,11.16,7.55,1.35-.18,2.55-1.54,3.83-2.35C717.45,291.54,716,285.64,710,286.49ZM321.75,89.3c-1,1.08-3.56,2.78-3.3,3.6.87,2.72,6.23,2.7,8.11.17.29-.39.33-1.52.12-1.63C325.36,90.73,323.94,90.22,321.75,89.3ZM817.84,515.43l1.8,3.25c.56-.56,1.67-1.24,1.58-1.66a16,16,0,0,0-1.58-3.39ZM776,495.24l-1.8-1.8a16,16,0,0,0-1.58,3.39c-.09.41,1,1.1,1.58,1.66Zm-10.1-5.05-1.79-1.8a15.49,15.49,0,0,0-1.58,3.39c-.1.42,1,1.1,1.58,1.66C764.72,492.34,765.33,491.25,765.91,490.19Zm26.69-50.47c.59,1,1.19,2.15,1.8,3.25.56-.56,1.67-1.25,1.58-1.66a16,16,0,0,0-1.58-3.39ZM358.53,229.18l1.79,1.8a15.74,15.74,0,0,0,1.58-3.39c.09-.42-1-1.1-1.58-1.66C359.72,227,359.11,228.12,358.53,229.18Z"/><path d="M393.13,806.38q-5.24.2-5.05-5Q393.33,801.15,393.13,806.38Z"/></svg>