<svg id="Layer_1" data-name="Layer 1" xmlns="http://www.w3.org/2000/svg" viewBox="0 0 1200 1200"><title>BB_Artboard 2</title><path d="M724.34,689.2c2.27-1.7,4.92.45,6.89-2.7.74-1.19,2.07-3.17,2.64-2.93,5.42,2.39,8.81-3.93,13.33-4.82,12.08-2.4,21.64,5.7,30.49,14.15,6.85,6.55,12.31,15.46,18.51,23.17,1.66,2.06,4.09,5.37,5.62,4.93,4.95-1.41,7.44,4.6,11.49,5,3.05.32,7.25,1.6,9-.37,3.11-3.53,6.17-3.8,9.81-4.57,3.86-.82,6.89-6.49,11.44-4.4,5.46,2.5,7.81-6.94,13.34-5,4.11,1.44,6.47-6.78,11.41-4.65,2.85,1.23,4.47-2.24,5.81-4.56,2.52-4.38,5.75-4.73,9.59-5.08,2.65-.24,5.06-3.57,7.77-4.3,2.95-.8,6.15-.42,9.22-.13,4.93.48,7.54-7.36,13.36-5.12,3.84,1.48,8.41-.15,12.65-.38,4.23-6.92,10.2-3.71,15.36-3.79,4.52-.08,7.89,7.31,13.27,4.5,3.1,3.77,6.21,7.54,9.21,11.44.05.08-1.29,2.71-1.86,2.64-4.62-.59-9.82,2.78-13.73-3.53-.79-1.29-3.36-1-5.11-1-5.56-.11-11.13.29-16.66-.14-5-.38-9,1.67-13.42,4.47-3.94,2.48-9.35-1.55-13.48,4.5-1.95,2.86-6.86-1-9.94,3.45-2.18,3.2-6.83,2.29-8.87,6.65-5.32.1-9.08,6.75-15.19,5.14-2.81-.75-6.62,4.67-9.44,3.93-5.15-1.35-6.91,5.84-11.5,5.36-3.38-.36-7.14-1.81-10.29,2.45-3.41,4.62-9-.36-12,2.46-3.8,3.56-7.28,4.9-11.64,4.39-1.22-.14-3.38.46-3.56-.1-2.56-7.9-9.47-1.94-12.72-6.68-1.84-2.68-4.46-2-6.28-3.5-1.09-.91-.57-4.61-1.62-6-5.9-8-11.83-16.1-18.23-23.48a24.37,24.37,0,0,0-10.48-7.36,22.15,22.15,0,0,0-12.85,0,24.07,24.07,0,0,0-10.46,7.43c-7.72,9.09-14.92,18.88-22.37,28.35-2.42,3.08-4.83,2.59-7.62-1.31-.84-1.16-2.1-2-2.54-3.4-1-3.14,0-9-4.62-7.39a12.47,12.47,0,0,0-6.72,7c-.92,2.61-1,5.57-2.85,8-4.26,5.49-9.29,10.69-12,17.36s-7.68,10-10.17,15.93c-2,4.68-4.71,8.76-6.45,13.18-5.08,12.95-14,21.12-21.28,31.32-.7,1-2,1.29-3.11,1.75-9.83,4.19-9.18,4.74-15.14,16.14-2.61,5-3.14,11.41-7,15.51-.48.51.91,5.74,1.5,5.76,11.07.45,22.15.45,33.23.54,6.53-9.2,15-3.2,22.54-4.66,5.19-1,11.16,2.39,15.12-4.82h14.81c7.41,0,14.81.11,22.22-.09,1.64,0,3.8-.59,4.83-2,5.8-7.84,14.68-10.61,19.57-20a47,47,0,0,0,3.32-7.75c1.53-4.81,4.32-9.3,9.69-8.27a34.43,34.43,0,0,0,9.24,0c2-.17,2.56-1.92,3.18-4.51,1.15-4.84,2.72-9.89,5.15-13.77A76.78,76.78,0,0,1,789.7,769c1.51-1.45,4.76-.28,7.11.3.69.18,1.44,2.41,1.51,3.75a111.53,111.53,0,0,1,0,11.85c-.3,5.34,1.86,11.8-1.22,15.78-3.29,4.27-1.52,8.84-2.52,13C790,833,789.9,833,793.83,850.61c.15.68.82,1.27.82,1.9.05,11.86,0,23.71,0,35.57C788,900,792.06,913.61,791,926.42a16.12,16.12,0,0,0,0,4.71c.31,1.32,1.07,2.94,2,3.46s2.87.7,3.53-.1c5.37-6.52,10.94-12.9,15.62-20.18,2.43-3.77,4.7-9.45,4.4-14-.6-9.29,3.8-15.52,6.24-23,.45-1.34,1.33-2.6,1.42-4,.25-3.79-.3-7.37,2.37-10.73,2.38-3,1.84-8.64,5.33-11.35,2.77-2.15,3-5.93,3.73-9.88,1.14-6.31,2.64-12.94,6.75-17.72,2-2.28,8-4.41,9.94-2.13,2.09,2.46,5.54,4.17,5.21,8.95a14.57,14.57,0,0,1-1.34,4c-.74,2-2,3.84-2.21,5.91a87.58,87.58,0,0,0-.11,9.46c0,.74,0,1.92-.32,2.15-4.75,3.38-1.71,10.79-4.15,14.28-2.57,3.66-1.93,9-5,11.71-4.12,3.68,4.17,5,.88,8.41-3.82,3.9-5.71,9.36-8.1,14.63-1.73,3.81-1.27,9.29-5,11.62a16.06,16.06,0,0,0,1.72,3,1.61,1.61,0,0,0,1.79,0,20.14,20.14,0,0,0,4.35-3.66c9.23-11.66,18.09-23.81,27.63-35a62.15,62.15,0,0,0,11.84-22.26c1.23-4,2.9-7.06,5.18-8.95,3.16-2.61,2.17-6.88,3.67-10.1a166.41,166.41,0,0,0,9.94-25.52c.67-2.37,1.66-3.89,3.9-3.56,1.81.27,3.67.05,5.49.29.48.06,1.18,1,1.26,1.61a65.67,65.67,0,0,1,.45,6.88c.07,4,.54,8.06-.14,11.81-.62,3.44-4.58,5.24-3.54,9.93-4.08,2.87-3.68,9.16-6.07,13.49-1.8,3.24-.9,8.87-1.4,13.4-.15,1.37-1.08,2.57-1.49,3.92-4,13.3-2.29,21,6.18,27.63.5.39,1,1.14,1.47,1.13,7.35-.09,14.71-.28,22.06-.44,4-9.16,13.57.64,17.65-8.38,6.61.15,13.22.28,19.82.53.26,0,.78,1.19.66,1.57-.2.67-.89,1.71-1.23,1.62-5.12-1.25-9,4.6-13.18,4.58-4.84,0-7.39,4.43-11.41,5.45s-6.67,5.54-11.46,4.85c-5.81-.83-11.93-1.81-17.14,4.25-1.19,1.39-4.58-.3-7-.58-.79-6.26-8.57-.73-9-9.22-.17-3.69-4.79-6.72-6.34-10.72-1.27-3.3-1.35-7.35-4.1-9.66-.87-.73-1.72-1.5-2.57-2.25-2.23,2.86-4.37,5.71-6.6,8.44-5.15,6.31-9.42,14.1-16.79,16.77-.75,10.78-9.26,13.86-13,21.58-2.51,5.17-7.29,4.48-10.49,8.08-2.68,3-6.82,3-9.82-.61-2.67-3.21-5-3.8-7.69-.28-4.32,5.64-9,10.87-13,16.89-2.78,4.23-5.94,4.84-9.72,4.51a19.47,19.47,0,0,0-5.55,0c-3.77.77-5.64-2.67-7.41-5.61-2.07-3.47-1.92-8.6-5-11.64-.53-.52-.4-3.61.25-4.35,2.51-2.9,4.08-5.42.28-8.5,5.38-8.74,2.3-19,3.09-28.53,6.36-7.65,2.68-17.61,3.71-26.48.33-2.83-.83-4.79-2.71-4.87-1.56-.07-3.21,1.35-4.75,2.28-3.76,2.26-2.59,10.11-5.33,11-4.43,1.35-6.53,3-5.72,8.84a8.13,8.13,0,0,1-3.17,7.76c-5.83,4.85-7.23,13.94-11.82,19.8-4.75,6.06-4.68,15.46-9.22,21.13-3.55,4.44.48,10.87-3.71,14.84-2.76,2.62-1.73,8.65-5.27,11.42a10.17,10.17,0,0,0-4,9.67c0,.46-.74,1.26-1.26,1.63-3.12,2.28-12-1.31-12.5-5.63-1.08-9-2.34-18.26,1-27,2.53-6.57,5.07-13.14,7.89-19.51,2-4.44,2.4-8.93,0-12.75-1.69-2.64-2.65-5-2.35-8.31.4-4.45-.23-8.57,2.44-13.09,2.16-3.63,0-11.38,2-15.24s2.51-8.3,4.76-11.89,1.48-4.52-2.21-4.52c-17.28,0-34.58.57-51.82-.34-5.87-.32-9,7.32-15.2,5.36-4.65-1.48-9.82-.29-14.75-.29-5.56,0-11.11-.05-16.66,0-4.75,0-7.65,6.84-13.34,5-4.65-1.48-9.82-.44-14.75-.18-.91,0-1.9,1.54-2.65,2.61-7,10-8.62,11.42-14.65,11.48-5.43.05-11.06,1.05-14.65-6.44a5.91,5.91,0,0,0-4.5-2.9c-9.25-.26-18.53.4-27.75-.37-4.27-.35-5.54,5.71-9.6,5.1-3.65-.55-7.92-1.58-11,.22a21,21,0,0,0-10.45,14.7c-.14.75.08,1.6,0,2.36-.93,6-4.53,11.27-7.56,11s-7-6.35-7.21-11.51a58,58,0,0,1,0-7.1c.22-2.81-.83-4.89-2.71-5-6.78-.3-13.57-.12-20.36-.12-9.91,9.07-21.22,2.88-31.79,4.76-5.76,1-12.08-2.77-17.28,4.14-1.21,1.61-4.67.56-7.1.57-9.87,0-19.76.4-29.62-.13-5.58-.3-8.88,7.31-15.2,5.24-5.21-1.71-11-.35-16.59-.35H333.79c-5.56,0-11.11-.08-16.66.07a4,4,0,0,0-3.12,1.59c-2.12,3.71-3.55,2.29-5.38-.38-.64-.93-2.65-1.69-3.17-1.16-6.9,7.05-15,4.51-22.61,4.54q-76.83.24-153.65,0c-4.62,0-9.52,2.09-13.73-3.73-1.48-2-5.79-.89-8.81-.89-27.76-.05-55.54-.23-83.3.17-4.49.07-6.67-3-9.09-6.34a7.43,7.43,0,0,1-.81-4.23c.18-2.54,1.25-3.93,3.57-3.91,15.42.11,30.85.14,46.28,0A6.63,6.63,0,0,1,69.72,881a3.47,3.47,0,0,0,3.15,1.43c4-.9,7.63-9.4,12-.78,4.22.3,8.45.72,12.67.85,4.94.15,9.88,0,14.81,0H155c4.94,0,10,.94,14.77-.25,5.47-1.38,7.82,6.95,13.36,5.24,4.09-1.27,8.6-.25,12.92-.25h14.81c4.32,0,8.64-.11,13,0,3.71.13,7.21.25,9.84-4.29.47-.8,3.26.22,4.82,1s3,3,4.49,3.14a146.41,146.41,0,0,0,18.5.05c4-.26,6.53-6.17,11.47-4.86,4.14,1.1,8.6.23,12.92.23H313.6c4.32,0,8.7.59,12.95-.13,8.75-1.46,18.29,4.45,26.31-4.51.7-.79,2.4-.11,3.64-.11h16.66c4.93,0,9.95-.69,14.79.18,5.77,1,10.14-4.19,15.16-4.62,11.06-1,22.2-.3,33.31-.3,2.47,0,5.14.76,7.34-.22s3.73-3.69,5.58-5.62c1.09-1.14.18-1.75-.52-3.44-3.13-7.56-2.94-7.91-.34-14.42s5.3-13,7.81-19.58a42.44,42.44,0,0,0,1.44-6.34c.43-2.14.26-5,1.31-6.35,8.61-10.72,11-25.92,17.17-38.39,1.51-3.07,3.2-6.43,3.57-9.88.51-4.69,3.43-6.32,5.44-9a11,11,0,0,0,2.11-8.41c-.41-3.62,1.15-5.8,3-7.9a16.87,16.87,0,0,0,4.6-11.87c.4-14.51-1.71-21.43-15.75-19.92-4.9.53-9.87-.1-14.8.14-4.07.21-8.56-1.86-11.82,3.81-.71,1.24-3.39.63-5.16.88-10,1.38-20.52-3.61-30.05,4.53-1.7,1.46-4.82.21-7.29.21-6.79,0-13.62.57-20.35-.18-5.16-.58-7.88,6.5-13.33,5.16-4.76-1.16-9.84-.24-14.77-.24s-9.88.17-14.81-.05c-3.82-.18-5.16,6.43-9.61,5-2.9-1-6.14-.18-9.22-.18-3.71,0-7.46-.49-11.1.14-3.95.67-6.61,6.11-11.47,4.79-3.54-1-7.37-.19-11.07-.19-4.32,0-8.66.29-13-.07-4.94-.41-7.53,7.46-13.35,5.12-3.93-1.58-8.61-.82-12.88-.2-10,1.45-20.62-4.28-30,4.48-1.21,1.13-3.62.16-5.47.16H178.94c-3.95,4.17-7.79-9.69-11.78-.13-5.87-8.92-13.95-2.16-20.59-4.83-4.41-1.79-8.11-5.89-13.34-4.65-4.82,1.15-7.63-7.6-13.36-5-1.16.53-3.78-3.27-5.4-5.47-2-2.66-1.49-5.38.43-8.07,2.34-3.29,3.51-3.14,6.62-2,5.49,2.1,9.83,8.37,16.49,6.54,4.71-1.29,7.76,7.88,13.25,4.57,4.13,6.34,9.82,4.61,15.13,4.72,4.93.1,9.87,0,14.81,0,6,7.72,13.77,3.32,20.65,4.92,5.9,1.38,9.28-6.36,15.19-5.15,5.41,1.1,11.07.23,16.63.23h14.81c5.55,0,11.12.3,16.65-.1,4-.28,6.53-6.06,11.47-4.88,4.77,1.13,9.84.24,14.77.24,4.32,0,8.64.07,13,0,5.32-.1,9.08-6.62,15.18-5,5.33,1.4,11.06.29,16.61.29,8.66-8.41,18.76-2.93,28.07-4.91,5.08-1.09,9.37-5.85,15.17-4.76,4.83.91,10.07,1.33,14.73-.13,5-1.57,9.53-5.29,15.19-4.58s11.1.19,16.65.09c.48,0,1.08-.74,1.39-1.34,1.78-3.47,3-2.8,5.39-.19,2.81,3.09,3.69-4.48,7.18-3.37,2.81.9,6,.06,9-.52.61-.12,1.23-2.44,1.37-3.83.22-2.33-.7-6.08.18-6.89,7.67-7.09,8.11-20.06,14.29-28,2.69-3.47,3.09-8.37,5.3-11.38,4.14-5.63,3.15-12.34,2.1-17.63-1-5.08-6.4-2-9.85-2.56-1.82-.31-3.74.26-5.54-.15s-3-2.1-2.75-4.94c.21-2.32-.6-5.89.32-6.81,3.44-3.44,3.83-7.77,3.39-12.56-.94-10.24,1.37-19.33,5.6-27.88.89-1.81,2.11-4.47,1.68-6.05-1.79-6.46,5.14-8.73,3.9-14.72-.31-1.48.05-3.16-.1-4.72-.06-.65-.71-1.77-1-1.72-.9.17-2.53.86-2.51,1.2a10.15,10.15,0,0,1-2.69,8.17c-1.82,2-4.86,4.92-4.6,6.8,1.37,9.87-4.44,13.93-8.58,19.33-1.79,2.33-2,5.49-3,7.85-3.31,7.38-9,11.79-15,15.49-3.08,1.9-7.15,1.84-9,6.6L417,633.28c.37,3.3-.78,5.6-2.28,8.33-2.25,4.12-5.06,9.35-4.74,13.77.45,6.37-4.68,9.29-4,14.66s-2.7,8.19-3.65,12.34c-.72,3.19-.8,5.37-4.08,6-3.91.71-6.76,6.54-11.43,4.51-1.07-.47-2.95-1.73-2.87-2.09,1.12-5.49-4.31-7.42-4-12.23.55-7.65-2.47-16.7,1.63-22.67,4.57-6.67-1.59-16.23,5-21.24-.31-3.39-4.51-7.06.45-10.06-1.25-5.45,4.17-7.41,4-12.07A18.16,18.16,0,0,1,394.58,600c1.2-1.65,1.13-7.66-.08-8.88-4.06-4.05-3.15-11.68-7.62-15.2-2-1.59-4.73-2.21-6.35.17s-3.39,4.54-4.16,7.26c-3.2,11.18-11,14.92-18.41,19.35-.74.44-2.63-.45-3.09-1.41-1.17-2.46-1.27-6.3-2.84-7.8-2.76-2.64.15-10.28-5.77-9.75a14.41,14.41,0,0,0-8.21,3.5c-4.9,3.88-11.57.15-13.62-6.08,2.72-8.35-4.9-13.54-3.88-21.78.86-6.94.18-14.19.18-21.3s.54-14.32-.15-21.32c-.72-7.38,2.13-13.09,3.81-19.41a3.49,3.49,0,0,0-.61-2,8.26,8.26,0,0,0-1.28-1.49c-6.65,10.88-17.43,17.18-21,31.53-.89,3.56-6.76-.69-6.59,5.53.13,4.83-2.75,7-5,9.11s-5.38,2-7.67,5c-1.76,2.35-4.41.85-6.19-1.82s-4.08-3.07-6.28-.74c-1.42,1.5-2.64,3.32-3.95,5s-3.82,3.47-3.73,5c.5,8.39-7.44,9.94-8,17.22a8.25,8.25,0,0,1-1.36,4c-3.84,5.14-7.4,10.86-11.86,14.92s-4.63,10.52-7.75,15-7.4,7.21-11.32,10.51c-4.2,3.54-8.06,2.39-12.1,2.85-3.73.42-4.69-4.47-7.07-6.68-6.16-5.75-5.49-14.19-2.52-20.68,3.21-7,1.87-12.93,1.45-21.43-5.77,7.39-10.55,13.23-15.06,19.39-2.53,3.46-6.27,4.49-8.72,7.06-3.4,3.57-6.71,4.06-10.1,3.22-4.38-1.09-6,4.71-9.6,4.91a39.1,39.1,0,0,1-9.24-.08c-3.23-.59-8,3.15-9.35-3.41s-8.3-13-1.65-20.5c3.3-3.74-.55-9.75,2.64-12.78,3.88-3.67,3-8.72,2.37-12.89-.85-5.73,4.2-7.36,4-12.31a105.26,105.26,0,0,1,.08-14.21c.16-2,2.45-3.7,2.55-5.64.33-6.19,5.78-9.72,4.77-16.54-.81-5.56,5.37-8.27,3.75-14.66-1.23-4.87,4.94-6.74,3.65-12.23-1.05-4.49,1.34-7.25,3.66-9.88-1.7-6.71,3.5-11.63,3.31-17-.25-6.88,3.92-10.67,4.43-17,.77-9.44,6.12-17.16,9.39-25.69,1-2.67,3.33-4.54,5-6.77-3.74-2.32-2.64-8.56-5.31-11.33-4.73-4.91-6.37-10.76-5.84-18.38.44-6.27-.91-13,.34-18.87,1.57-7.4-4.08-10.84-4-17.09.05-5.36.88-12.07-1.23-15.75-2.6-4.54-1.39-9-2.6-13-1-3.31-4.35-5.35-3.65-10,.07-.43-1-1.67-1.2-1.56-.85.57-2.24,1.44-2.25,2.23-.15,11.86-.05,23.71-.13,35.56,0,4.59-2.75,4.2-5.19,4.21s-5.85.64-5.69-3.32c.3-7.41-2.86-15.82,2.94-22.05-.43-3.53-3.46-5.16-3.3-9.61.46-12.61.49-25.3,0-37.91-.3-8.16,2.6-17-3.24-24.48-1.55-2,0-7.61-.4-11.49-.7-7.37,2.63-15.91-3.65-21.75,0-4.72-.07-9.46.25-14.15,0-.85,2-2.29,2.82-2.08a11.27,11.27,0,0,1,4.15,2.7c-2.54,7.83,4.4,12.33,4,19.48-.34,6.18.23,12.44.5,18.66,0,.58.83,1.55,1.25,1.53a2.05,2.05,0,0,0,1.26-1.56c.25-10.18.3-20.36.68-30.53a9.62,9.62,0,0,1,2.18-5.57c1.33-1.44,8.32.33,8.39,1.85a13.89,13.89,0,0,0,4.06,9.76c-6.59,4.28.84,8.4.12,12.63a4.22,4.22,0,0,0,.36,2.15,3.18,3.18,0,0,0,1.3,1.6c.31.12,1.18-.66,1.24-1.14.34-3,.52-6.06.77-9.09.19-2.27-.14-4.95.71-6.7,1.27-2.62,3.39-4.54,5.11-6.81,3.46-4.59-3.41-4.91-2.26-9.11.76-2.82.14-6.26.14-9.42,0-5.53.17-11.07-.06-16.59-.14-3.42.42-6.05,2.62-8.15,3.65-3.47,5.59-7.84,4.93-14-.42-3.88.1-7.9-.13-11.83-.29-5.25,1.6-6.47,5.39-6.63,2.09-.09,2.82-5.2,5.88-4.5,2.29.52,4.81-1.28,6.87,1.72,2.44,3.55,5.33,6.61,7.72,10.21.61.91.48,3.29,0,4.56a4,4,0,0,1-2.8,2.36c-3.69.27-7.41,0-11.1.14s-8.46,5.61-8.08,10.22c.54,6.64-2.32,14,2.77,20,1.3,1.54.49,5.89.83,8.91.75,6.62-1.93,13.92,3.09,19.84,1.28,1.51.57,5.93.58,9,0,21.33-.2,42.68.14,64,.11,7.38-2.57,15.82,3.37,21.85.07,9.45.06,18.9.32,28.34,0,.95,1.71,2.68,2.51,2.58,1.64-.21,3.93-.88,4.6-2.36.8-1.78.18-4.61.18-7V197.34c2.77-7.72-4.27-12.23-3.79-19.39.43-6.27,0-12.63.14-18.95,0-2.15.63-4.29,1.54-10,2.51,4.65,3.86,7.13,5.19,9.63,1.56,2.94,3.76,3.54,6.38,3.21,5.22-.65,7.59,3.8,9,9.17.51,2,.24,4.49,2.52,4.09.55-.11,1.18-2.51,1.22-3.89.15-4.73-.77-9.81.27-14.14,1.34-5.62,4.66-10.4,3.9-17-.11-.93,1.64-2.17,2.47-3.33,2.8-3.94,5.17-4.33,7.67-1.85,5.84,5.8,8.8,14,11.67,22.29l1.39,4c.77-.77,2.25-1.63,2.2-2.31-.45-6.36,6.29-9.75,4.09-17.15-.43-1.44,2.44-5,4.27-6.84,1.19-1.17,3.94-2,4.8-1.1,3.32,3.46,6.15,7.67,9.17,11.61-1,6.45,6.26,10,3.7,17,0,39.51.39,79-.27,118.53-.16,9.69,5.39,16.86,4.53,26.2,4.25,5.34,5.18,13.72,10.43,18.23,2,1.73,3.54,4.39,5.76,7.24,1.85-2.79,4-5.27,5.39-8.35,2.53-5.73,3.71-12.2,6.92-17.78,1.5-2.62,2.69-6.39,4-9.65s.9-7.91.18-11.62c-1.33-6.89,4.56-10.5,3.94-17.06-.51-5.45.84-11.42-.36-16.48-1.34-5.66-4.27-10.45-3.58-17.12.64-6.22-.32-12.7.29-18.92.41-4.22,2.74-8.09,3.42-12.32.6-3.79.13-7.87.13-11.82,0-7.9,0-15.81,0-23.71,0-5.26,2.57-7.24,7.5-6,2.86.73,7.26,6,7.27,9.05.06,14.22.09,28.45,0,42.67,0,5.3-5,8.26-3.86,14.69.94,5.26.19,11,.19,16.54s-.19,11.08.08,16.59c.15,3-2.09,3.78-2.59,5.77-1.84,7.41-2.88,15.4.55,22.1,1.92,3.78,1.7,7.15,2,10.88.2,2.6,1.25,3.94,3.51,4.05s3.25-1.24,3.87-3.64c1.64-6.33,4.79-12,3.82-19.4-.7-5.3,4.84-8.23,3.8-14.66-.8-5,4.92-8.23,3.66-14.63-.88-4.46-.15-9.43-.18-14.17,0-3.87-.64-7.94,2.63-10.47,1.32-1,1-2-.44-3.39-3.51-3.51-3.42-9.76-1.47-12.5,5-7.06,2.08-14.9,3-22.27-5.69-6.92-3.39-15.88-3.65-24.12-.21-6.71.56-7.88,4.17-7.79,2.32,0,4.87-1,6.74,2.07,1.13,1.85,3.54,3.28,3.67,5.11a137.45,137.45,0,0,1,.09,18.93c-.39,5.92,2,12.48-2.47,17.71-1,1.2-1.09,4.23-1.1,6.42-.08,16.59.5,33.23-.3,49.76-.34,6.91,4.85,10.38,4.09,17.05-.63,5.41-1.56,12,.23,16.33,2.29,5.54,3.22,11,4.15,16.84.31,1.94,1.39,1.38,2.57-.37,4.25-6.32,11-24.73,11.44-31.89.21-3,.2-5.65,1.42-8.75,6-15.31,5.87-15.45,5.95-27.63a24.54,24.54,0,0,1,3.07-12.74c2.29-4.14,1.14-10.15-2.81-14.4-1.82-2,.19-6.72,2.55-7.07,7.23-1.05,11.93,3.8,12,12.47,0,5.53,0,11.06,0,16.59.08,8.64.21,17.27.32,25.91,5.73,6.14,2.22,14.63,3.54,21.87.48,2.67,2.86,4.75,4.31,7.16.93,1.56,2.53,1.37,2.48-.62-.17-6.62,4-9.17,6.71-13.11,2.78-4.09,5.69-8.05,8.55-12.07-2.41-7.6,4.83-12.09,3.77-19.39-.53-3.59.84-5.52,4-5.7,5.71-.34,10.93.22,14.42,7.12A9.73,9.73,0,0,0,464,248c3.95,3,3.83,9.34,6.61,13.06,3.1,4.17,2.3,9.1,1.69,13.23-1.17,7.83,4.3,12.21,4.87,19,.13,1.54,2.24,1.26,2.4-.8.48-6.19,3.58-10.84,5.57-16,1.07-2.79,2.24-5.07,2.24-8.35,0-4.48-.49-8.7,2.47-13.06,1.9-2.79.88-8.84,1.17-13.43l10.91-25c3.59-2.84,4.12-7.1,4-12.16-.27-9.47-.79-19.08.19-28.4.58-5.63,4.45-10.27,3.6-17.08-.77-6.16.37-12.71-.32-18.9s5.25-8.15,4.08-14.73c-1.07-6-.22-12.58-.22-18.9V89.8c0-5.53.19-11.08-.07-16.59a9.42,9.42,0,0,1,3.18-7.8,15.67,15.67,0,0,1,4.53-3.11c1-.43,7,5.58,7,6.8-.14,10.05,1.71,20.36-1.17,30-.8,2.69-2.45,4.84-2.4,8.24.17,11.06.47,22.16-.08,33.17-.36,7,1.11,12.05,5.4,16.23,3.52,3.43,3.33,9.58,1.37,12.47-2.83,4.19-2.93,8.21-2.93,12.84q0,41.49,0,83c0,4.7-.13,9,3.17,12.72,1.27,1.44.53,5.92.53,9,0,15.81,0,31.61,0,47.42,0,5.33-1,11.16,3.55,14.7,0,4.72-.48,9.62.36,14.09.5,2.63,3.16,4.61,4.91,6.8.16.19,1.15-.16,1.23-.47a45,45,0,0,1,4.22-11.43c-3.56-2.94-1.77-5-.11-8.61,1.4-3.08,2.63-6.47,4-9.72,1.28-3.1.37-7.69.37-11.62,0-11.86-.54-23.76.17-35.55.59-9.66-3.75-20.53,3.54-28.87,0-10.27,0-20.55,0-30.82,0-3.66,1.41-4.38,4.93-4.65,5.14-.4,8.18,5.49,12.82,6.27.25,3,1.62,7.37.56,8.86-4.76,6.66-3.33,14.44-3.49,22-.1,4.74-.53,9.6.1,14.2.84,6.06-3,9.76-3.63,14.7-.8,6.15-.19,12.6-.19,18.92,0,5.53.3,11.11-.17,16.58-.16,1.87-3.47,4.68-3.27,5,1.81,3,4.17,5.51,3.7,10,0,.18,2,1.3,2.44.89,3.34-3,5-9.21,10.31-8.28,1.83-4.56,3.83-9,5.46-13.7,1.88-5.39,4.56-10.11,4-17-.87-10.15-.41-20.52-.15-30.78.13-5.18-1.26-10.51,2.34-15.42,3.06-4.16.59-10.48,1.46-15.72,5.93-5.08,3.21-12.87,3.36-19.47.13-5.82,3.37-8.06,5.94-11,1.67-1.9,7.83.85,9.92,3.28a11,11,0,0,1,2.9,8c-.18,14.22,0,28.45-.13,42.67,0,2.19-.1,5.58-1.12,6.34-4.81,3.65-.25,11.34-3.91,14.57-4.45,3.93-.11,11-3.87,14.61-3.09,2.95-2.94,8-4.83,11.81-2.33,4.7-2.49,12,1,17.16,1.94,2.82,1.23,5.75,1.73,8.65.34,2,1.23,4.95,2.3,5.27,2.26.71,5.43,1.11,7.08-.41,3.41-3.17,7.76-7.16,8.61-11.76,1-5.37,3.85-7.6,5.91-11.19.69-1.2,1.81-2.45,1.84-3.72.12-4.67-.46-9.51,3.41-12.46-1.1-5.39,3.19-7.68,4.23-12,1.36-5.65,5.34-10.45,3.51-17-1.75-6.31,5.26-8.06,4-14.72-1.13-6-.23-12.57-.23-18.9,0-5.53,0-11.06,0-16.59,0-3.65,1-4.2,5.17-4.3,2.54-.06,4.82.11,6.44,3.07,1,1.85,3,3.56,3,5.43.33,8.67.15,17.38.15,26.07-5.31,6.11-3.53,14.23-3.67,21.75-.15,7.89.12,15.81-.11,23.7-.11,3.86,2.08,5.38,3.68,7.55.64.86,2.27,1.95,2.5,1.67,4.9-6,10-11.82,14.35-18.47,2.49-3.82,4.11-8.86,5.29-13.69.6-2.49,1.06-4.63,3-4.75,4.93-.31,10.15-1.41,14.74.22,5.95,2.11,13.29,4.15,15.51,12.68,1.72,6.62,5.95,9.5,8.8,14.29.16.28,1.65-.72,2.52-1.13-2.12-6.3,6-8.18,3.79-14.61-2.82-8.3,5.46-13.64,3.68-21.73,2.47-4.23,5.65-8.07,7.19-12.79,1.32-4-.41-10.15,1.38-13.36s1.8-7.15,3.61-10.07c3.64-5.9,8.55-10,10.88-17.95,1.79-6.07,7.69-10,11.3-15.37,5-7.55,10.71-12.56,18.89-10.37,3.52.93,5.3-3,7.87-4.27,3.23-1.58,7.27-.45,11-.49,3.92,7.26,7.71,5.22,11.89.2.58-.7,3.32.85,4.62,2.1.62.6.56,3.08.21,4.46-.71,2.8-5.86,4.27-1,8.58,7.62,6.77,10.09,18.16,14.42,27.86a12,12,0,0,1,1.41,4c.37,6-1.46,12.76,3.76,17,0,6.32.18,12.65-.06,19a10.76,10.76,0,0,0,2.71,8.13c2.06,2.43,2.4,2.79,5.28.53s6.39-2.84,9.13-6.45c3.12-4.1,7.7-6.38,11.64-9.45,6.27,2,10.55-6.48,17-5a38.57,38.57,0,0,0,14.76.06c5.19-.84,9,2.78,13.38,4.57,3.92,1.6,8.56.17,12.87.49.76.05,1.87,2,2.06,3.25.46,3-.46,7.27.82,8.94,3.81,5,5.63,12.1,9.3,16.25,4,4.52,3.9,11.09,7.47,15.35,2.77,3.31,3.45,3.78,4.7,0,1.57-4.7,2.78-9.62,4.61-14.14s4.29-8.8,6.47-13.17c-2-6.31,5.82-8.26,3.93-14.51,3.78-2.91,3-7.78,3.78-12.29.56-3.29,3.38-6.1,5.51-8.7.63-.76,2.78-.69,3.5.1,2.8,3.08,5.23,6.71,8,9.91s-1,3.33-1.33,5.06c-.27,1.42-1,2.79-1,4.17,0,4,0,7.53-2.86,10.42-6.19,6.27-10.27,14.43-12,24.39-4.5,4.19-4,12.22-8.79,16.88-6,5.91-9.26,17.11-9.56,27.84-.12,4.17-6.89,8.36-.22,12.63-6,5-3.06,12.77-3.59,19.41-.39,5-1.19,6.64-3.39,6.67-3.77.07-6.62-4-6.87-6.52-.82-8.32-.22-16.87-.17-25.33,4.78-3.78,2.52-9.86,2.93-15A35.46,35.46,0,0,0,939,319c-.71-3.47-2.56-6.54-3.52-10-.77-2.79,1.12-6.43-1.27-8.79-2.17-2.14-2.8-4.83-2.66-8.14a2.32,2.32,0,0,0-1.25-1.61c-1.13-.39-2.44-.89-3.48-.5s-2.38,1.81-2.4,2.82c-.19,8.69-.09,17.39-.13,26.08,0,2.31.45,6.1-.4,6.7-5.39,3.83-1.31,12.16-5.17,16.38-.36.39-1.2.05-1.82.05,0-6.3-.54-12.7.13-18.88,1-8.83-3.58-19,3.58-26.41,0-5.51.07-11,0-16.53,0-3.21-4.17-9.61-7-9-4.89,1-7.48-4.69-11.43-4.85s-7-.79-9.63-4.83c-.47-.73-3-.6-3.42.16-3,5.66-7.4,4.71-11.54,4.38-4.94-.38-7.71,8.35-13.23,4.83-2.29,2.45-4.64,4.79-6.83,7.36s-4.89,5.15-6.42,8.43c-1.92,4.12-5.73,1.84-7.75,4.88-1.2,1.79-3.24,3.09-3.74,5.09-.71,2.85-.26,6.15-.49,9.23-.16,2.21-.07,5-1.06,6.44-1.71,2.47-2.87,4.65-2.67,8.14.26,4.7,0,9.45.08,14.17.1,5.45,0,10.23-3.45,14.9-1.93,2.58,1.19,9.18-2.85,12.56a5.43,5.43,0,0,0-1,4c1.73,7.48-6,11.8-3.79,19.33,2,6.82-3.74,10.41-4.14,16.89-.45,7.15,4.06,10.93,4.14,17,0,3.15-.09,6.31,0,9.45.14,3.82.47,7.62.72,11.42,5.8,3.23.4,12.31,5.15,16.24a5.67,5.67,0,0,1,1.43,3.85c-.26,4.94.32,9.07,3.76,12.29a37.38,37.38,0,0,1,6.51,8.33c2.23,3.83,5.16,3.17,8.16,3.54,1.57.2,3,2,4.52,3,3.07,2.1,3.4,2.58,6.19-.4,2-2.18,4.56-1.93,6.26-3.44s2-5,2.72-7.81c1.63-6.34,8.62-3.26,10.4-10.65,1.29-5.29,2.73-11.38,6.36-15.47,1.3-1.47,2.1-4.12,4.44-3.36v11.86c-4.66,3.15-3.78,10.73-7.71,15-7,7.64-13.23,16.55-20.06,25.3-3.38,0-7.08-.4-10.69.11s-5.77-1.66-7.75-4.79c-3.45-5.44-9.93-5.07-13-11.63-1.78-3.78-7.11-13.91-7.21-19.8-.09-4.65-3.29-6.39-3.8-9.91a42.78,42.78,0,0,1,0-11.8c.91-6.72-2.69-9.61-5.85-13.06-1.31,1.68-2.65,3.31-3.92,5-10.49,14.23-9,10.88-19.42-2.24.38-6.32-5.18-9.69-4.45-16.76.89-8.54.15-17.35.32-26,0-.8,1.39-1.67,2.24-2.25.16-.11,1.17,1,1.22,1.59,1.56,19.1,2.7,22.23,13.55,36.13.51-2.46.6-4.86,1.46-6.63,7-14.46,7.31-14.43,7.24-29.31,0-7.05,5.61-11.42,4.07-19.45-1.28-6.71-.65-14.19-.1-21.23.27-3.43,3.22-6.56,3.36-9.93.35-8.36,6.62-15,4-24.15-.24-.83,1.17-2.43,1.81-3.67a51.36,51.36,0,0,0,5.57-27.92c-.49-7.06-.12-14.22-.08-21.33,0-5.41.2-10.3-3.43-15-2-2.54,1.12-9.05-2.78-12.69-1-1-1.34-4.26-1.11-6.33.54-4.83-2.11-7-4.24-9.65-2.58-3.2-5.63-2.48-7,1.69-.64,2-1,5-2.09,5.65s-4.43-.5-4.66-1.59c-.9-4.32-1.3-8.5,1.36-12.93,3.14-5.2,2.59-5.74-2.8-8.9-10.3-6-10.27-5.93-23-.48-2.74,1.17-6.59,0-8.51,2-3.67,3.92-7.17,7.58-11.69,9.93-4.89,2.53-3.24,11.48-7.85,14.69,1.63,5.5-3.45,7.43-4,12.21-.37,3.24-3.53,5.88-5.18,9a16.54,16.54,0,0,0-1.87,6.07c-.43,5.24.74,10.48-3.23,15.08-2.3,2.67,1.1,9.24-2.79,12.59-2.58,2.22-1.48,5.79-1.37,8.68A18.69,18.69,0,0,1,732,302.06c-1.71,2.39,1.32,7.87-1.63,10.81s.06,4.51.36,6.83c.52,3.92-3.6,6.72-2.79,11.83.72,4.55.25,9.45.12,14.18s-.43,9.23-.78,13.82c0,.53-.82,1.14-1.35,1.37a2.57,2.57,0,0,1-1.83,0,10.57,10.57,0,0,1-7-9.27c-.49-5.46.1-11.07-.17-16.58-.26-5.32,1.35-10.93-1.15-15.95-4.35-8.76-6.18-19.47-13-26.34-4.13-4.14-12.44-4.18-16.4.7a7.47,7.47,0,0,1-1.32,1.65c-5.42,3.37-4.47,12.26-9.06,16.65-3.92,3.75-7.07,8.79-10.56,13.26,1.49,8.43-5.38,6.14-7.64,9.77-1.74,2.77-4.21,3.71-6.22,1.37s-5.06-4.34-5-9.16c.12-7-.17-14.08-.39-21.12a2.27,2.27,0,0,0-1.28-1.58c-.32-.11-1.19.74-1.23,1.23A18.69,18.69,0,0,1,638.34,317c-1.87,2.05-3.37,4.67-5.3,6.6s-.55,4.69-1.39,6.39a25.43,25.43,0,0,1-5.15,6.73c-2.25,2.18-1.67,5.53-2.68,8.1-.8,2-2.47,3.49-3.84,5.08a14.14,14.14,0,0,0-3.27,7.83c-.36,2.59-2.83,4.87-4.63,6.9-.76.85-2.67,1.49-3.26.91-4.55-4.49-11.36-4.87-14.07-12.61-.69-2-.86-5.46-1.87-5.87-2.23-.92-4.85-.34-7.3-.37-1.39,6.1-10.27,1.9-9.36,11.16-2.64,4.15-4.78,9.11-10.12,7.9-2.39-.54-4.93-.2-7.39-.06-3.89.21-8.38,4.53-8.2,10,.33,9.78-6,12.85-9.83,18.35-.55.79-2.37.1-3.61.12-2.43,0-4.61.33-5.38-4.08-1-5.72-4.81-10.08-3.84-17.09.69-5,2-11.57-1.09-15.73-4.27-5.66-1.68-11.93-2.26-17.83-.54-5.45.12-11.07-.24-16.56-.13-2-2-3.67-2.5-5.72-.67-2.86-1.45-6.16-.93-8.88,1-5.19,7-9.87.4-15.37-.44-5.3-.85-10.61-1.37-15.9,0-.43-.93-1.15-1.23-1-.52.23-1.35,1.19-1.26,1.56,1.68,7.5-4.13,12.34-4.1,19.23,0,6.32-1,13,.26,18.87,1.77,8.08-4.52,12.31-4,19.48.41,6.25,0,12.59,0,18.89-7.48,5,.18,17.22-6.55,22.6q-.07,15.07-.16,30.13c2.4,2.12,3.53,5.89,7.17,6.57,7.05,1.32,7,1.77,7.06,8.77,0,3.16.65,6.61-.12,9.43-1.92,7.1,4.71,10.61,3.95,17.08,0,.36,1.92,1.79,2.38,1.45,3.51-2.57,7.69-4.64,10.09-8.47,2.92-4.65,7.3-4.75,10.66-7.8,2.53-2.3,6.91-1.39,10.48-1.64a53.9,53.9,0,0,1,9.25.05c1.67.17,3.27,1.26,4.9,1.95,4.36,1.85,8.12,8,12.31,6.89,3.58-1,6.4-6.73,9.48-10.46,2.25-2.71,4.85-5.18,6.47-8.44,4.75-9.56,11.95-9.31,19.37-9,4.33.15,5.95,4.48,8.17,8-2.33,7.58,4.12,12.24,3.81,19.38-.35,8.29-1,16.64,3.36,24.32,1.32,2.35.63,7.09-1.83,10.63-3.11,4.47-3,9.81.75,14.41a7.07,7.07,0,0,1,1.25,4c-.06,4.69,2.4,4.65,4.9,4.67s5.78.86,6.1-2.86c.7-8.22,6.42-10.81,9.66-16.1,5.3.83,7.7-4.75,10-8.76,3.66-6.36,8.38-5.42,13.17-5.45,4.28,0,6,4.41,8.08,8-1.41,8.71,5.42,15.06,3.92,24.18-.79,4.79,4.12,10,7.78,10.48,10.13,1.22,18.92-2.32,25.6-12.36,5.19-7.78,13.42-8.77,19.28-15a4,4,0,0,1,3.3-1.08c3.48.53,7.49-2.09,10.34,2.23,1.37,2.09-1.09,11-3.72,14.46-2.15,2.82-4.47,5.46-6.47,8.46a7.39,7.39,0,0,0-.72,4.27c.28,2.48,1.38,4.13,3.7,3.73a21.74,21.74,0,0,1,3.7,0l20.34.06c4.56,8.15,11.26,4.26,17,4.51,12.33.56,24.71-.44,37,.39,8.16.55,17-4.3,24.5,4.36,1,1.18,3.59.17,5.44.17q32.4,0,64.79,0c3.58,0,7.09.76,10-3.78,1.59-2.49,4.42-1.11,6.16,1.63,2.38,3.76,5.68,1.58,8.56,2.17,4.14-6.3,9.81-4.63,15.12-4.73,4.94-.09,9.88,0,14.81,0h14.81c3.34-6.59,8.56-4.59,13.28-4.71,4.93-.12,9.87,0,14.81,0,3.66,0,5.19-6.3,9.6-4.91,2.92.91,6.14.17,9.23.17,3.7,0,7.41.15,11.1-.09a4.14,4.14,0,0,0,3-2c2.93-5.44,4.49,3.09,6.54,1s3.43-4,6.25-3.77c3.68.35,7.4.09,11.1.09s8.22,1.7,10.92-.41c3.81-3,7.18-4.9,11.62-4.42a54.19,54.19,0,0,0,11.1-.06c.94-.09,1.67-2.24,2.7-3,3-2.19,3.05-2.14,6.29.21.94.69,2.42,2.54,2.53,2.4,6.81-8.59,15.23-2.56,22.76-4.18,4.58-1,10,2.57,13.5-4.08,7.33-.23,14.66-.56,22-.58.95,0,2.07,1.46,2.81,2.57,2.21,3.31,5.51,5.47,6.63,9.93-.53.6-1,1.53-1.44,1.54-3.7.12-7.4.07-11.11.07-9.25,0-18.51,0-27.77,0-4.3,0-8.6.09-12.9.14-2.38,5.62-5.13,2.94-7.86.58-1.94,3.65-4.71,4.33-8,4.08a49,49,0,0,0-11.09,0c-4.56.7-7.75,6.52-13.34,4.91-4.7-1.35-9.82-.28-14.76-.28-6.55,9.08-15,3.08-22.53,4.73-6.31,1.39-13.62-3.78-18.83,4.76-5.56,0-11.17-.65-16.65.14-9.38,1.35-19.4-4.58-28.23,4.38-1.52,1.54-4.8.22-7.27.22-11.11,0-22.24-.56-33.32.23-5.69.4-10.58,6-17,4.75-6-1.12-12.32-.24-18.49-.24H827.19c-6.18,0-12.35.24-18.52-.06-6.43-.32-11.68-6.79-18.87-5-5.95,1.5-12.3.31-18.47.31-6.79,0-13.63-.63-20.34.26-3.44.46-4.42-6.26-7.19-3.48-2.31,2.31-3.29,3.31-5.49.08-.89-1.3-4.21-2-4.73-1.23-6.88,10.65-17.19,17.23-21.32,31.3-2,6.85-10.39,8.76-10.31,18.26,0,.55-.82,1.61-1.25,1.6-5.74-.11-7.57,7.4-11.69,9.76-3.08,1.77-7.29.53-11,.16-.69-.07-1.77-2.35-1.76-3.6.06-5.5-5.24-8.27-4-14.68.88-4.46,0-9.44.21-14.17s-.26-8.92-3.58-12.43c-4.27-4.51-7.72-10.28-12-14.84-2.58-2.77-6.18-3.54-9.13-6.18-3.22-2.88-9.09-.2-10.88,5.18-3.76,11.34-8.42,21.57-15.8,29.63a8.26,8.26,0,0,0,1.66,3.16c1.45,1.36,1.72,2.33.42,3.42-8.17,6.87-6.48,17.36-6.06,27.35a3.21,3.21,0,0,0,1.21,1.59,7.67,7.67,0,0,0,2.18-2.69c2.13-6.29,12.7-13.33,16.79-10.77a5.33,5.33,0,0,1,1.68,3.72c0,3,.34,7.07-1,8.78-2.5,3.26-2.64,6.63-2.7,10.59,0,3,.13,7.41-1.2,8.59-3.06,2.72-1.47,7.38-3.73,10.12s-5.75,5.67-5.79,8.59c-.09,7.68-7.26,8.61-7.64,15s-.16,12.64-.06,19c.06,3.88-1.45,4.67-4.21,5.69-4.11,1.52-7.27,5.11-7,11.72.22,4.73-.15,9.5.11,14.22a11,11,0,0,1-2.67,8.15c-2,2.59-4.59,4.54-5,9.23-.37,4.18-3.23,7.29-3.87,12.21-.94,7.24-4.74,13.84-3.33,21.82-3.59,3.91-4.35,9-3.71,14.64-3.38,3-4.1,7.25-3.76,12.26.26,3.9,1,8.51-.3,11.62-1.32,3.26-2.73,6.38-4,9.77s-3.6,5.9-3.13,10.25a31.13,31.13,0,0,1,0,7.09c-1.19,9.7,3.23,20.38-3.11,29.16,2.35,4.31,3.87,8.86,3.28,14.36-.09.82,1.49,2.74,2.36,2.8a105.57,105.57,0,0,0,12.95,0c1,0,2.23-1.13,2.94-2.18,3-4.55,7.32-7.48,8.19-14.7.58-4.69,3.57-9.45,6.39-13s3.77-7.48,5.16-11.59c.45-1.35,2.37-2.21,2.43-3.4.29-5.5.27-11,.15-16.55-.1-4.84,4.43-6.62,4-12.29-.52-6.71-2-14.4,1.34-20.41,3.73-6.6,1-13.66,2.23-20.24.52-2.72,2.82-4.86,3.47-7.6.83-3.51-.73-7.51,1.92-10.93,1.48-1.92,1.74-5.33,2.76-7.93.78-2,3-4.1,2.65-5.55-1.26-6.24,3.06-9.64,3.9-14.69,1.5-9,6.25-24.16,10.53-29.9,4.55-6.11,6-14.73,11.56-20.15,5.34-5.25,9.8-12,14.48-18.29,1.87-2.52,4.27-4.3,6.23-2.2,2.15,2.3,5.63,4.12,5.29,8.9-.37,5.18,1.65,11-2.56,15.28-.75.75-.86,2.67-1.08,4.1-.7,4.42,1.72,9.79-1.66,13.28-3.61,3.73-.31,9.82-2.72,12.71-3.24,3.9-2.19,8.5-3.31,12.63A48.42,48.42,0,0,1,671.32,701a18.42,18.42,0,0,0-2.55,10.62c0,2.19-4.07,17.26-5.08,18.62-3.31,4.47-7.69,8.13-6.11,15.83.2,1-.92,2.75-1.75,3.68-3.83,4.28-6.75,8.68-5.78,16.11.28,2.18-2.46,4.84-3.36,7.53-.32,1,.63,2.71,1.13,4,.08.23.93.27,1.24,0,7.35-6.08,8.87-18.16,15.61-25,.94-1,.5-4.46.37-6.76-.15-2.7.74-5.15,2.55-5.13,4.16,0,4.48-2.59,5.22-7.05.55-3.25,3.78-6.06,6.19-8.44,5.88-5.78,8.71-14.13,12-22.13.8-1.94,1.18-4.63,2.42-5.73,3.75-3.3,4.52-8.7,6.47-13.26,8.09,1.25,5.68-9.83,9.63-13.45-.59-4.81,2.47-6.91,4.65-9.29,1.08-1.18,4-1.78,4.77-.86,2.49,3,6.16,5.16,5.51,11.28-.58,5.43-.12,11.05-.12,17.65,0,.35.21-.62-.06-1a1.32,1.32,0,0,0-1.57,0c-1.21,1.1-2.73,2.45-.51,4.12C722.5,692.54,723.61,691,724.34,689.2ZM207.18,531c8-6.14,10.3-14.77,13.48-22.55.38-.92-.39-2.8-.94-4-.11-.25-1.83.2-2.41.88-4.74,5.52-5.45,14.84-11.25,19.6-.82.67-.12,4.4-.12,6.71,1-.53,2.07-1.06,0,2.36,0-.79.24-1.88-.07-2.27a1.41,1.41,0,0,0-1.72,0c-2.15,3.46-6.45,5.3-5.53,11.1.16,1,1.4,1.74,2.14,2.6C203,542,206.88,539.8,207.18,531Zm387.56,64.56c0-3.13-.23-6.31.07-9.39.24-2.42,0-3-1.92-2.43-1.16.34-2.69-.51-3.62.16-5.13,3.69-7.84,11.59-4.48,17.33,2.6,4.46,2.16,8.46,2.64,12.88.1.87,1.41,1.64,2.26,2.19.18.11,1.24-1.06,1.2-1.56-.46-7,6.5-11.52,6-35.29a15.25,15.25,0,0,0-2.11,2.28,2.54,2.54,0,0,0,0,2,1.26,1.26,0,0,0,1.55,0A9.35,9.35,0,0,0,598,581C598.11,580.79,597.32,580,594.74,595.58Zm186.6,216.15c-1.45,3.37-5.36,4.38-5.12,9,.15,2.86-1,4.79-2.77,4.74-4.23-.11-5.32,2.69-4.63,7.18s-2,6.69-3.61,9.81c-.82,1.64-.23,4.54-.09,6.86,0,.69,6.66-.71,6.66-1.55,0-6.15,4.32-8.66,6.28-13,2.78-6.2,6.53-12.36,5.44-20.31-.13-1-1.36-1.77-18.43,37.1.57-2.21,0-3-1.71-2.17a2.57,2.57,0,0,0-1.23,1.43,10.8,10.8,0,0,0-.68,4,13.52,13.52,0,0,0,1.45,3.61c.72-.82,1.8-1.48,2.08-2.49C765.34,854.65,765.07,853.05,781.34,811.73Zm-505-474.49c2.9,0,5.61.44,8.11-3,2.14-2.91,3.47-2.3,6-.26,1.42,1.13,2.9,2.15,4.35,3.22v11.85c-4.53,3.5-4,9.22-3.64,14.6.43,5.72-.42,10.63-3.77,14.63,2.29,6.92-3.9,11.15-3.52,17,.53,8-4.57,10.4-7.27,15.23-.6,1.06-.39,3-.28,4.54.22,3.28-1.17,5.56-2.18,8.35-2,5.65-5.48,9.85-7.77,14.88a162.92,162.92,0,0,0-6.88,17.6,91.46,91.46,0,0,1-3.9,9.76c-1.47,3.27-4.34,4.72-5.44,9-2,7.77-4.94,15.19-10.19,20.65s-5.81,15.12-11.72,19.92c-.56.45.41,3.89-.17,4.43-3.48,3.18-3.39,7.57-3.81,12.36-.44,5-4.79,8.57-3.59,14.67.77,4,0,7.74-3,10.21.47,7.06-3.72,12.5-4.24,19-.61,7.81-.23,15.77,0,23.66a4.45,4.45,0,0,0,2.19,3.11,3.55,3.55,0,0,0,3.48-.33c1.52-1.27,2.68-3.24,4-4.91,3.93-5,7.54-10.54,11.85-14.94,4.87-5,5.13-13.53,10.21-18.56,3.56-3.52,8.22-6.93,9-14,.65-6.38,7.44-7.36,7.65-15,.14-5.12,5.84-6.94,7.29-12.59,2.21-8.6,5.63-16.66,11.59-22.24,2.81-2.63,3.37-6.11,3.09-10.24-.34-4.74-.38-9.46,3.42-12.37-1.06-6.54,3.57-11.58,3.53-16.85-.06-7.41,5.67-11.9,4.3-19.4-.27-1.52,1.72-3.68,2.61-5.58,1.6-3.44-3.3-3.84-2.1-6.65,1.93-4.54,5.23-8.47,6.23-13.24,1.22-5.86,3-11.9,5.79-15.71,3.49-4.85.32-10.69,3.52-15,4.44-5.93,5.77-14.34,8.8-21.4,3.63-8.46,7-15.42,14.57-17.88,1.42-.46,1.75-4.66,3.87-2.49,1.83,1.87,4.36,4.5,4.45,6.94.33,8.24,1.63,17-3.48,24.07a22.18,22.18,0,0,1-3.09,12.7c-2.09,3.73.41,10.85-4.25,14.19,2,6.31-5.86,8.23-3.92,14.5-2.42,5-5.06,9.92-7.18,15.15-1.83,4.51-2.47,10-4.74,14-2.75,4.91-4,10.61-6.37,15.65-2.06,4.35-3.44,9.22-5.25,13.77-4.4,11.09-8.93,22.1-13.24,33.25-.37.95.28,3.15,1,4s2.36,1.49,3.23,1c1.58-.82,2.88-2.52,4.31-3.81,3.59-3.23,2.58-9.72,6.4-13.34,4.9-4.65,8.89-10.89,13.2-16.53,4.56-6,10.57-11,9.16-21.19,3.95-3.77,3.67-11,7.77-14.92,3.42-3.27,6-8,9.29-11.49,3.12-3.25,6.93-5.39,10.12-8.56,2.37-2.36,4-5.37,7.71-5,6.12.58,12.31.19,18.47.2,2.69,5.64,8.5,4.8,11.89,9.24.49.64,4.49-1.61,4.44-2-.73-6,2.86-10.22,5.53-11,4.69-1.36,7.2-5.21,10.14-8.88,5.29-6.62,10.88-13,15.59-20.2,4.35-6.72,9.81-4.78,15.07-4.95.68,0,2,2.15,2,3.27-.06,3.7,1.15,7.77-1.75,10.89-2.75,2.95-1.53,9.15-5.26,11.36-4.43,2.62-3.39,9.36-6.38,13.33-2.28,3-2.39,8-5.23,11.45s-5.79,8.27-6.38,13c-.9,7.17-2.1,13.32-6.79,17.87a6.54,6.54,0,0,0-1.36,3.93c-.15,5.52-.06,11.05-.06,16.57-4.38,3.57-4.29,9.21-3.62,14.6A38.37,38.37,0,0,1,404,521.69c-3.24,5.16.69,13-4.94,16.55-.6.38-.53,2.82-.57,4.31a69.25,69.25,0,0,0,.06,9.45c.29,2.44,1.81,4,3.93,3.32,1.08-.35,3-1.39,2.93-1.89-.58-6.47,3.54-11.55,3.7-16.85.18-6.05,4.67-9.64,3.93-14.53-1-6.43,2.8-9.85,4.21-14.54,1.71-5.65,4.47-10.65,3.44-17.12l5.75-20.63c2.09-3.55,6.65-5.49,5.28-11.34-1.32-5.65,4.33-7.48,3.71-12.26-.69-5.35,1-8.91,4-12.15,1.78-1.93,3.76-3.83,3.5-7.63-.21-3-.3-5.85,1.64-8.63s2.45-6.64,4.11-9.56c2.07-3.62,1.4-9.2,5.16-11.5,4.31-2.63,3-9.88,6.53-13.11,1.26-9.2,7.21-13.95,11.86-19.69s7.76-14.89,16.29-12.58c.65.18,2.41-1.88,2.36-2.76-.41-6.35,5.61-9.57,4.13-17.09-1.29-6.54,0-13.93.2-20.95,5.2-4.49,2.85-11.33,3.13-17.25.29-6.3.16-12.63,0-18.94,0-1.12-1.25-2.18-1.92-3.26a15.25,15.25,0,0,0-1.29,1.68c-1.39,2.41-4.15,5.22-3.84,7.23,1.06,6.89-4.84,10.64-4,17s-5.5,10-4,17.08c.38,1.79-2.35,5-4,7.1-2.36,3.14-5.51,2.2-6.87-1.83-2.06-6.07-4.3-12.08-4.63-18.86-5.39-5.58-2-13.21-2.69-19.85-.56-5.47-4.51-18-7.74-22-2.05-2.56-4.37-2.55-6.35-.83-7.24,6.27-8.79,18.28-15.55,25-.6.6,0,3-.1,4.61-.14,2.22.6,4.56-1.29,6.44-5.3,5.31-7.37,13.21-9.83,20.8-1.28,3.94-10.35,5-10.33,1.69,0-6-5.2-8.34-4.57-14.41.56-5.43-.05-11,.17-16.56.19-4.92-.29-9-3.62-12.46-.9-.93-.14-4.52,2-11.25a15.29,15.29,0,0,0-2.11,2.29,2.54,2.54,0,0,0,0,2,1.29,1.29,0,0,0,1.56,0,9.92,9.92,0,0,0,1.68-2.79c.07-.18-.71-1-3.3,2.85-4.35,1.71-7.73,4.78-7.31,11.23.29,4.51-2.36,6.8-3.37,10.09-1.26,4.1-.38,9.27-.42,14-4.24,3.59-2.7,9.73-4.12,14.38s-5.64,8.13-8.86,11.78a2.94,2.94,0,0,1-3.52.08c-5.33-6.23-11.37-11.83-9.67-23.31.42-2.89-2.75-6.38-3.32-9.84-.62-3.78,0-7.86-.25-11.78,0-.54-2.13-1.64-2.42-1.3-1.76,2.08-4.55,4.41-4.66,6.83-.54,12.62-6.94,21.63-10.83,32.22-1.24,3.37-1.67,7.16-4.17,9.57-.74.72-2.37,1.67-2.5,1.45-2.86-4.79-7.73-7.32-8.79-14.27-.59-3.88-1.92-3.29-4.44-.39-3.63,4.2-2.85,11.81-7.72,14.95-3.4,2.2-2.33,6.66-2.56,10.45-.08,1.36-.83,3.75-1.38,3.8-5.23.47-10.76,3-15.09-3.69-1.41-2.18-2.57-5.68-5.68-5.1,0-3.85,1.15-8.7-.25-11.32-2.57-4.83-6.52-8.54-10.22-12.18-.61-.61-4.2,1.81-4.13,2.33.62,4.68-2.87,6.47-3.71,9.71-.9,3.47-.2,7.61-.2,13.57,0-.7.21-1.68-.06-2a1.32,1.32,0,0,0-1.57,0c-1.21,1.1-2.74,2.45-.51,4.12C274.46,341.63,275.57,340.08,276.3,337.24ZM175.91,474.35c-1,1.12-3,2.33-3.13,3.84-.46,4.51.61,9.46-3.3,12.44-2.53,11.2-10.17,20.39-8,33.46a2.65,2.65,0,0,1-1,1.76c-4.09,3.18-3.28,8.72-2.41,12.66,1.46,6.63-5.68,8.08-4.13,14.68,1,4.31.39,9.36.11,14-.14,2.4.2,3.42,1.87,2.26a5.92,5.92,0,0,0,1.84-3.62c.5-3.64-1-7.85,2.08-10.7,3.59-3.34.31-8.88,2.52-12.8,2.35-4.18,4.95-8.38,6.33-13.1,1-3.44,0-7.78.36-11.63.21-2,1.59-3.83,2.38-5.77,1.56-3.89,1.8-8.71,4.92-11.52-.73-5.66.84-10.13,3.5-14.71,1.1-1.9.16-6-.33-9-.14-.86-1.91-1.29-25.39,102a51.49,51.49,0,0,1,.07-6.81c.31-2.34-.17-3.3-1.8-2.19a5.05,5.05,0,0,0-1.88,3.38c-.13,4.49.06,9,.26,13.49a3,3,0,0,0,1.16,1.53c.79-.76,2-1.57,2.1-2.59C154.32,583.31,154.1,581,175.91,474.35Zm353.6,327c.44-.19,1.17-.25,1.26-.59,1.18-4.25,1.71-9.92,5.32-11.15,5.69-1.93.65-10.8,5.71-12.39,2.84-8,6.19-15.71,8.26-24,.91-3.63,2.22-6.85,3.13-10.17,1.26-4.6,2.84-8.28,5.61-11.23a9.11,9.11,0,0,0,2.62-8.11c-.5-3.4,1.57-5.56,2.31-8.22,1.72-6.17,6.43-11.16,5-18.61a18.27,18.27,0,0,0-1.64-3.85c-.44.42-1.25.84-1.25,1.27-.06,4.87-3.06,7.87-4.46,11.86-3.06,8.67-6.59,17-9.83,25.57-3.33,8.74-5.68,18.07-11.88,24.46.72,5.22-3.66,7.56-4.16,12-.42,3.71.78,7.82-2.35,10.63-2.57,2.31-.77,7.26-3.83,9.91-2.89,2.51-.87,7.24-1.1,11,0,.51.8,1.11,87.92-176.68-.67-.53-1.25-1.35-1.63-1.23-1.65.55-3.59.86-4.79,2.2-3.24,3.61-6.12,7.75-9.22,11.6s-2.48,10-6.47,13.2c-5.7,4.53-7.66,11.4-6.84,20a91.16,91.16,0,0,1-.06,16.52c-.22,2.48-2.06,2.78-3.61.45-.54-.81-1.69-1-2.56-1.44-3.16,11-8,21-12.19,31.38,1.65,9.62-1.54,16.57-7.33,22.18-.3.3-.23,1.57,0,2.27,1.71,6.78-4.63,10.5-3.88,16.89-3.76,2.89-3.73,7.5-3.64,12.31,0,1.27-1.11,3.73-1.56,3.68-7.3-.89-5.43,5.84-5.81,10.9-.19,2.47-1.33,3.86-3.66,3.91-1.15,0-4.44-2.43-3.59,2.16,1.26,6.81-1.86,11.61-3.83,17-1.7,4.63-3.59,9.14-5.39,13.7-7.59-.57-6.81,8.79-9.06,13.78-1.55,3.43-.09,9-3.63,12.34-.64.61-.16,4.55.72,6.09a56.48,56.48,0,0,0,6.46,8.41c.61.71,2.31,1.3,2.48,1,3.19-5.7,7.84-3.12,11.87-3.42,4.91-.36,9.84-.08,14.77-.08.62,0,1.41.32,1.82-.06,2.37-2.15,4.1-4.89,7.72-5.07,2.53-.13,1.87-5.05,1.88-8.06,0-11,0-22.08,0-33.12,0-3-.48-7.44.82-8.84,3.52-3.78,3.34-8.46,2.69-12.81-.82-5.58,3.37-7.81,3.87-12.27s-1.75-10.11,1.21-13.42c3.58-4,.91-9.74,2.76-12.72A21.09,21.09,0,0,0,580,740c-.06-4.51,4.32-6.69,3.84-12.26-.53-6,3.22-11.11,5.66-15.68,3.2-6-.88-13,2.5-17.57,2.3-3.12,1.72-7.53,3.82-9.82,2.82-3.08,2.88-6.67,2.57-10.54s2.93-4.79,3.66-7.54c.94-3.52-.51-7.23,1.33-11.17,4.4-9.38,8-19.37,11.88-29.14C615.68,625.24,615.9,624.1,529.51,801.4Zm31.9-203.35c-2.27-.63-4.88,1.46-6.87-1.63a33.07,33.07,0,0,0-3.91-5,13.77,13.77,0,0,1-4.12-12.08c.46-3.85-.65-8.19.31-11.7.9-3.32,3.79-5.25,3.65-10-.19-6.64-2-14.12,3.41-19.51.47-.47-.67-4.11-1.43-6-3.19-8.16-3.1-10.76.87-16.17s10.13-9.64,8.09-19.34c3.86-3.76,4.21-9,3.71-14.57,6-4.4,1.42-15.29,7.37-19.78a3.05,3.05,0,0,0,0-2.25c-3.11-4.62-6.31-9.14-9.48-13.7-7.48,1.64-15.91-4.13-22.46,4.75-6.45-1.38-7.12,10.65-13.55,9.62-.85-.13-2,1.5-2.81,2.53-3.08,3.85-6.25,7.62-9.07,11.76a10.42,10.42,0,0,0-1.72,6.06c1,10.15-6.42,18.38-3.82,28.78-2.94,3.22-4,7.13-3.83,12.22s-5.31,8.39-3.68,14.61a5.42,5.42,0,0,1-1.34,3.87,20.14,20.14,0,0,0-6,18.16c.54,3.63-1.47,5.51-3.07,7.84-4.37,6.34-5.11,12.28-4.42,24.48.45,7.84,0,15.75.2,23.62,0,.52,2.09,1.7,2.4,1.36,4.62-5,12.94-5.28,12.95-16.31,0-.53.88-1.58,1.27-1.52,5.28.8,7.83-4.6,10-8.65,4.32-8,12.63-3.67,17.17-10.29.33-.49,2.22.37,3.21,1,6.24,4.27,5.81,12.4,4.37,18.61-1.65,7.1-6.82,13.17-.09,20.1a2.59,2.59,0,0,1-.5,1.57c-5.49,4,.07,14.4-6.39,18.13-.69.4-.09,4.46-.09,13.58a25.82,25.82,0,0,1,.05-4.49c.41-2.3-.07-3.08-1.8-2.22a2.3,2.3,0,0,0-1.22,1.47c-.23,3.57-.36,7.15-.37,10.73a2.81,2.81,0,0,0,1.14,1.51c.79-.73,1.83-1.48,2.11-2.53.36-1.35.09-3,.09-11.22,3.67.18,6.35-4.26,6.57-6.59.48-5,3.45-7.55,4.59-11.63,1.32-4.7,2.63-9.57,4.77-13.66,1-2,4.5-1.62,5.92-3.5,2.81-3.72,7-6.17,24-30.48,4.8-6.15,9.41-12.57,14.49-18.3,2.06-2.32,5.9-1.23,7.54-5.17,5.73,0,6.46-4.36,6.37-10.55,0-2.48,2.68-4.83,3.38-7.56.9-3.49-1.14-7.87,1.81-10.91,1.58-1.63,1.76-5.1.12-4.6-5,1.54-6.44-7.7-11.53-5.24-2.16,1-5.12-.47-7.17.72a53.7,53.7,0,0,0-10.25,8.3c-1.24,1.22-2.66,4.11-2.33,5.65,1.5,6.91-4.44,10.46-4.05,17.08.35,6-4,10.33-5.57,15.9-1.33,4.79-5.12,9.27-5,13.72.22,6.2-3.41,9.55-4.07,14.66a18.71,18.71,0,0,0,0,2.37c0,.79-.24,1.89.07,2.28a1.43,1.43,0,0,0,1.74,0C568.08,591.92,572.86,585.75,561.41,598.05ZM491.06,379.22c0-1.58.08-3.16,0-4.73-.16-2.65-1.21-4.16-3.44-4.07-3,.13-6-.82-8.3,3.06-1.84,3.11-5.3,5.2-6.19,8.55-1,3.72-1.51,7.58-4.22,9.53-4.15,3-2.69,10.4-6.52,13.11-5.33,3.76-3.82,10.61-5.36,16.17-1.31,4.75-5.79,8.72-5.94,13.2-.21,6-5.88,8.3-4.44,14.39-4.11,2.82-3.15,9.49-6.31,13.29s1.25,11.28-4,14.37c.2,6.27-5.17,9.68-4.72,16.55.38,5.77-5.77,10-3.5,16.93-4.65,4.43-3.41,10.93-3.81,16.95-.13,2-1.72,3.8-2.25,5.85-2.87,11.09-9.72,20.17-9.08,33.24.22,4.43-4.49,8.64-3.49,14.6.17,1-1.28,2.37-1.76,3.7-.72,2-2.19,4.88-1.64,6a25.06,25.06,0,0,0,6.15,8c1.3,1.07,3.61.37,5.44.15,3.5-.42,2.1-5.54,3.22-6.62,3.69-3.57,3.43-9.45,6-13.67,2.72-4.39,2.85-11.5,5.69-15.66,2.5-3.67,2.24-8.49,4.88-11.8C440,547.18,444,545,442.92,539c4.11-2.81,3.49-9.22,6.22-13.37,2.45-3.73,3.19-9.25,4.93-13.84s3.82-9,5.67-13.55,4.3-8.91,5.22-13.75c1.14-6,6.91-7.7,7.26-12.61.4-5.76,5.59-8.34,4.49-14.31,5-3.19,1.36-11,4.1-14.22,4-4.77,2.6-10.05,2.77-15.22.19-5.41,5.33-8.27,3.9-14.64a12.72,12.72,0,0,1,3.42-12.42c.53-.52-.6-4.09-1.14-6.17-.44-1.65-3.67-2.5-.91-5C492,387.07,490.88,383,491.06,379.22ZM472.39,868.35c3.52-.6,7.72,1.94,10.48-1.66,3.7-4.83,8-2.38,12-3.08.6-.11,1.54.23,1.76-.16,3.44-6,10.59-8.76,9.36-18.78-.34-2.75-1.39-6.48,1.16-8.73,3.14-2.77,2.26-6.79,2.44-10.58.21-4.54,5.09-6.76,3.71-12.25-1.16-4.61,3-6.31,3.61-9.87s0-7.1,1.7-11c3-7.07,2.79-16.44,9.35-21.09.28-.19.28-1.56.09-2.23-1.81-6.18,3.06-9.47,3.8-14.6s5-8.5,3.82-14.68c-.27-1.46,1.72-3.69,2.77-5.47,1.43-2.42,3.17-4.59,4.34-7.19.43-.94-.2-2.93-.7-4.22-.68-1.8-1.65-1.5-2.57.51-1.43,3.12-5.51,1.83-6.07,3.48-3.56,10.44-13.51,5.78-18.08,13.24-8.71-1.52-13.13,5.8-16.84,13.93-3.21,7-4.59,15.45-10.1,20.73a5.41,5.41,0,0,0-1,4.05c1.75,6.28-3.46,9.26-4,14.62-.4,4.19-3.78,6.95-3.84,12.26-.05,4.73-2.09,10.12-4.5,13.92-2.2,3.45-2.24,6.73-2.76,10.52-.47,3.46-3.23,6.57-3.32,9.92-.14,5-1.52,8.46-3.63,12.47-1.11,2.11-1.61,5.24-3,7.81-2.29,4.18-.81,8,2.58,8.1C467.46,868.38,469.92,868.34,472.39,868.35ZM174.32,560.07c3.27-5.29,9.17-7.85,9.41-16,4.77-4.8,6.64-12.25,10.14-18.2,2.52-4.3,5.95-7.77,8.25-12.21,1.84-3.56,2.52-8.07,3.84-12.09,1.63-5,6.44-6.74,7.5-12.57.63-3.46,2.82-6.45,3.47-9.91.83-4.36,5.22-6.7,3.85-12.17-1.15-4.61,2.68-6.4,3.68-9.83,1.2-4.08,3.93-8.5,3.38-12.12-1-6.54,5.29-8.88,4-14.62-1.26-5.52,4.25-7.91,3.56-12.17-1-6.3,3.55-9.48,3.82-14.61.33-6.27.12-12.59.06-18.88,0-3.15-4.08-9.14-6.84-9.43s-6.07-1.24-8.34,2.65a29.33,29.33,0,0,0-3.56,7.6c-1.65,6.13-4.66,11.67-7.17,17.41-3,6.75-4.79,13.77-3.75,21.66.06.5-.6,1.31-1.07,1.74-3.54,3.29-2.19,10.37-6.28,13.21,2,6.8-2.45,11.29-3.7,16.92-.94,4.21-4.2,6.81-4,12.21.16,4-3.33,8.2-3.15,12.16.24,5.43-4.16,8.13-3.75,12.18.63,6.16-2.56,9.83-4,14.58-1.67,5.51-5.19,10.24-3.69,17,.74,3.33-1.59,5.51-2.33,8.15C175.25,541.39,168.65,549.54,174.32,560.07Zm153.82-30.86c0,7.87.12,15.75-.06,23.62-.08,3.37.43,5.93,2.53,8.18,2.34,2.53,4.26,5.7,6.63,8.19.75.79,2.82,1,3.45.28,4.1-4.69,7.87-9.84,11.95-14.57,2.34-2.72.58-7.59,3.82-9.91,2.65-1.9.57-5.87,1.36-8.64,1-3.41,3.81-7,3.36-9.81-1-6.41,4.75-9.41,3.83-14.6-1.28-7.15,5.16-10.21,4.48-16.66,2.88-2.47,2.88-6.17,3.27-10.15.33-3.42,2.73-6.45,3.39-9.92s-.79-8,2.45-10.51c1.61-1.28,1.81-2.83.13-3.25-2.92-.72-6-.26-8.93-1-10.34-2.65-17.32,7.45-26,11.14-2.61,1.11-4.69,5-6.51,8.17-1.68,2.89-2.28,6.86-4.07,9.57-3.18,4.79,1.15,13.19-5.06,16.42-.43.22-.05,3-.05,4.54Zm137,152.15c0,12,3.26,16.29,10.85,16.22,4.69,0,9.93,2,13.22-4.68l3.92,4.45c2.7-5,7.43-7.51,9.24-14a93.3,93.3,0,0,1,7.05-17.55c2.78-5.43,2.94-12.8,7.15-17.43-1.4-7.33,3.76-12.35,4.11-19.07,5.6-5.06,3.13-12.64,3.81-19.28.13-1.25,1.82-2.1,2.42-3.42,1.79-3.93,1.68-7.33-.3-7.9a7.5,7.5,0,0,0-4.94.63c-1,.48-2,2-2.61,3.25-2.3,4.51-5.55,5.56-9.5,5.06-1-.12-3,1-3,1.57-.16,9.86-6.79,11.07-11.6,14.82-1.52,1.18-3.87,3.56-3.69,4.92,1.16,8.69-8.18,9.47-7.61,17.38-4.06,5.71-7.75,12-12.33,16.94-3.1,3.33-1.62,8.78-4.92,11.88C465,676.47,465.25,680.72,465.14,681.36ZM250.47,284.48c-.43,6,.26,11.62-.19,17.07-.52,6.46,5.29,10.15,3.89,17-.75,3.68,2.69,4.76,3.92,7.29,1,2,1.69,2.16,2.64.58,1.43-2.41,4.57-5.37,4.18-7-1.88-7.84,5.81-12.13,3.93-19.38-2-7.59,5.38-11.82,3.84-19.34-1-4.77,4.78-6.52,3.78-12.22-.8-4.49-.16-9.4-.16-14.12,0-9.45.07-18.89-.06-28.34,0-2.16-.18-5-1.22-6.32-3.51-4.25-3-7.37.13-11.7,2.28-3.14-2.54-3.86-2.58-6.79-.09-7.79-.19-15.59-.55-23.37,0-.68-1.92-1.65-3-1.7s-3,.71-3.06,1.43c-.79,5.86-1.43,11.46-4.26,16.76-1.43,2.69-.75,7.79-.13,11.56.91,5.49-3.2,7.89-3.79,12.24-1,7.3,2.49,15.79-3.59,21.72q-.06,11.78-.14,23.54C247.86,269.2,251,277.68,250.47,284.48ZM621,465.8c-.42-2.95-.06-6.9-1.43-8.62-2.54-3.21-3-6.64-2.55-10.5.85-7.25-1.68-12.26-6.64-14.41-4.36-1.89-7.94,1.1-11,5.57-3.62,5.3-9.17,9.24-11.21,15.26s-.55,13.74-.9,20.71c-.19,3.76,2,5.26,3.34,7.7a6.26,6.26,0,0,1,.32,4.38c-.8,2-3.22,3.54-3.2,5.24,0,2.71,3,3.72,3.49,7.32.9,6.92,5,8.45,10.28,10,5.92,1.72,8.24-6.19,13.27-5.48.56.09,2.06-3.47,2.06-5.34,0-4.07.64-7.22,3-10.29,1.85-2.36.92-5.55-1.09-7.95a5.92,5.92,0,0,1-1-3.15C620.71,473.56,621,469.9,621,465.8ZM576.22,624.6c0-3.15.46-6.47-.19-9.38-.31-1.38-3.66-3.22-4-2.75-3.4,4.21-10.92,2.14-11,11.82,0,1.14-4.39,1.61-5.91,3.5-2,2.47-1.27,6.89-3.94,9.73-7.34,7.83-7.27,22.3-15.58,29.57-.59.52.27,4.1-.21,4.39-6.25,3.69-1,14-6.4,18.12-.14.1.57,3.06.93,3.08,8.45.35,17.21,2.43,22.75-9.61,2.11-4.59,5.8-8,8.77-11.93-1.45-5.42,4.33-7.14,3.81-12.25-.12-1.15.91-2.67,1.65-3.76,2.71-4,6.17-6.79,5.91-13.59C572.55,635.89,578.42,631.49,576.22,624.6ZM250.38,196.07c0-8.66.07-17.33-.09-26,0-1.2-1.33-3.44-1.9-3.37-2.89.38-6-1.81-8.7,1.56-2.49,3.16-7.79,15.68-7.82,19.5,0,6.3,0,12.6,0,18.9v18.9c0,5.51-.3,11.06.08,16.53.43,6.1-2.21,13.19,1.21,18.12,4,5.75,1.44,11.91,2.46,17.72a3,3,0,0,0,1.27,1.63c.31.21,1.14.06,1.24-.22.94-2.65,1.19-6.34,2.76-7.86,4.44-4.31-.64-12.88,5-16.56.9-.59.69-4.24.78-6.48.25-6.2.39-12.41.57-18.61,5.18-4.5,2.77-11.33,3.09-17.24C250.61,207.12,250.38,201.58,250.38,196.07ZM183.73,363.14c-1.28,7.17,1.49,12.65,6,17.4,2.44,2.59,2.06,1.59,6.57.25,7.91-2.34,11-11.43,16.58-16.9a3.28,3.28,0,0,0,.48-2c-.2-4.57.34-9.58-1-13.56-1-2.91-3.18-6.63-6.92-6.38-2,.14-3.34-1.49-3.16-4.29.32-4.85-.2-9-3.6-12.27-2.9-2.81-5.14-6.7-7.88-9.81a12.45,12.45,0,0,1-3.42-10,85,85,0,0,0,0-11.73c-.07-1.31-1.06-2.54-1.63-3.8-.67,1.09-1.88,2.17-1.91,3.29-.17,7,.47,14.18-.24,21.11-.75,7.35,2.56,12.84,3.74,19.24.92,5-1.35,11.07,3.27,14.74-.53,1-1.1,3-1.56,2.94-3.8-.38-5.73,1.35-5.31,6.51C183.83,359.38,183.73,361,183.73,363.14ZM639.17,743c0,2.41,0,4.78,0,7.15a6.74,6.74,0,0,0,.24,2.23,3.29,3.29,0,0,0,1.3,1.62c.29.16,1.17-.38,1.23-.76,2.26-13,11.29-22.38,12.13-36.26.12-2,1.11-4.64,2.36-5.72,4.79-4.1,5.66-9.83,4.92-16.42-.39-3.54,1.86-5.45,2.65-8.08a119.13,119.13,0,0,1,7-17.58c1.87-3.88,1.15-7.4,1.49-11.09a3.36,3.36,0,0,0-.84-1.88c-.32-.42-1.15-1-1.24-.82-5.35,7.14-11.76,13.08-14.51,23.07-2.45,9-7.65,16.33-9.41,25.83-.36,2-3.24,3.34-3.41,5.21-.47,5.45.63,11.28-.38,16.48C641.56,731.69,637.62,736.41,639.17,743ZM717.1,525c-1.16-.84-3-3.08-3.79-2.59-4.6,3-9.72,4.74-13.66,9.28-5.75-2.11-9,2.55-12.47,7.22-5,6.77-5,6.67-.67,17.9.5,1.29.39,3,.83,4.3,1.35,4.09,4.53,5.07,6.81,2.09,2.05-2.7,5-4.78,4.27-9.57l7.29-5.2c-.16-9.5,7.21-11.87,10.41-18.18C716.71,529.06,716.68,527.38,717.1,525ZM280,368.63c0-1.66.28-3.35-.1-4.75-.27-1-1.4-1.69-2.25-2.25-.17-.11-1.22,1-1.2,1.56.23,6.44-3.65,10.66-5.42,16s-3,11.56-7.53,14.85c-2.52,1.81-2,5.23-2,8.29,0,4.57-.4,8.39-2.81,12.72-2.84,5.09-4.06,12-6.91,17.32-2,3.81-1,7.42-1.27,11.09-.05.67,1.43,1.52,2.2,2.29,1.59-3.12,5.57-4.35,5-9-.63-5.29,1.39-8.44,3.89-12.17,3-4.38,4.91-9.85,7.3-14.85-1.24-10.57,5.35-17.55,7.75-26.48C277.94,378.34,280.76,374.2,280,368.63Zm107.7,73c-.78-1.41-1.89-4.66-2.6-4.52-3.7.72-5-4.49-7.68-4.81-5.46-.65-11-.3-16.49-.1-1,0-2.14,1.12-3,2.08-2.24,2.65-4.35,5.5-6.51,8.26s-4.33,5.53-6.48,8.31c-1.91,2.47-2,4.67-.17,4.93,1.21.18,3.19.66,3.55-.06,2.86-5.62,7.22-4.68,11.37-4.8,3.3-6.71,8.57-4.22,13.19-4.54,4.25-.29,8.52,0,12.76-.42C386.32,445.87,386.82,443.56,387.7,441.6Zm7.18,206.33c0,6.43-.06,10.35.06,14.25,0,.57.74,1.28,1.26,1.6a1.17,1.17,0,0,0,1.23-.44c2.67-13.49,11.33-23.55,12.43-38.26.8-10.69.78-12.76-6.7-12.81-.61,0-1.32-.25-1.81.06-1,.64-2.7,1.54-2.74,2.42-.23,6.26-.12,12.55-.12,18.83C393.26,637.77,395,644.46,394.88,647.93Zm111-197.44h-.24c0-5.45,0-10.9-.06-16.34,0-.57-.74-1.32-1.26-1.59-.3-.15-1.19.44-1.23.79-.52,5.72-3.31,9.54-6.52,13a7.11,7.11,0,0,0-1.28,1.68,7.48,7.48,0,0,0-.51,2.07c-1.33,8.78,3.07,18.74-3.32,26.49,1.47,2.21,2.76,4.75,4.54,6.43.46.44,2.45-1.9,3.78-2.84,3.52-2.48,1.74-8.55,5-11.67,1.31-1.25.91-5.66,1.06-8.65S505.87,453.63,505.87,450.49ZM676.2,500.24a39.23,39.23,0,0,1,0-4.73,10.49,10.49,0,0,0-5.74-10.81c-2.76-1.5-7.29-2.36-9.92,2.85-1,1.94-2.58,3.37-3.87,5.07-4.68,6.14-3.92,5.63,1.73,10.92,5,4.72,10,4.36,15.31,4.27.83,0,2-1.66,2.36-2.88C676.52,503.56,676.2,501.82,676.2,500.24ZM363.44,579.45c3-4.06,5.63-8.6,9-11.81,4.57-4.36,3.57-13,8.91-16.85,2.07-1.5,2.31-6.66,4.12-9.35,2.82-4.17,2-8.43,1.28-12.89-.11-.61-.86-1.52-1.25-1.47a2.15,2.15,0,0,0-1.26,1.56c-.45,4.89-1.35,9-6.35,8.13-.37-.07-1.31,1.19-1.23,1.56,1.35,6.12-5.56,8.33-4.09,14.42q-4.5,5.88-9,11.76C360,569.2,360.31,574,363.44,579.45ZM250.38,381.65c0,1.68-.1,3.25,0,4.79.06.64.62,1.75.92,1.73.87-.07,2.06-.25,2.51-1,1.41-2.3,4.36-3.28,3.93-7.22-.53-4.91.19-9.25,3.79-12,4.43-3.36,3.44-11,7.24-14.93.5-.53.24-3.17-.31-4.31-1.69-3.47-2.75-.17-3.77,1-2.24,2.62-5,5-6.27,8.33s-1.3,7.29-4,9.51C250.23,371,249.88,376.18,250.38,381.65Zm-25.92-162c-1.46-6.34,3.12-15.75-3.69-22.27,0-6.24.06-12.49-.12-18.72,0-.66-1.48-1.42-2.36-1.78-.26-.1-1.11,1-1.18,1.58a40.49,40.49,0,0,0-.06,4.68c0,6.24.9,12.77-.24,18.65-1.29,6.64,5.37,8,4.17,14.58-1.08,5.92-.3,12.42-.12,18.66,0,.66,1.48,1.42,2.36,1.78.25.1,1.17-1,1.18-1.57C224.5,230.55,224.46,225.86,224.46,219.64ZM202.13,407.27c.3-6.87-.68-8.26-3.63-8.42-3.55-.19-3.61,2.83-3.67,6-.15,7.38,1.24,15-3.51,21.45-1.1,1.48.08,5.79.37,8.77a2.11,2.11,0,0,0,1.24,1.54c.35.08,1-.76,1.23-1.37C197.53,425.38,199.55,414.92,202.13,407.27ZM376.27,503c0,3.74-.1,5.34.05,6.89.07.65.75,1.76,1,1.7.9-.19,2.53-.94,2.5-1.27-.31-3.46,1.17-5.56,2.57-8.25,1.86-3.59,2.69-8,4.83-11.66,1.52-2.61-.59-11.5-1.54-10.66-2,1.72-5.16,4.35-5,6.25C381.25,493.42,376.86,498.53,376.27,503ZM243,351.4a33.54,33.54,0,0,0-.05-4.6,25.44,25.44,0,0,0-1.15-4c-.84.53-1.94.79-2.49,1.63-1.45,2.2-4.59,3.59-3.61,7.17,1.14,4.12-5.81,4.72-2.2,8.6,1.44,1.55,4.55.82,6.87.6a3.74,3.74,0,0,0,2.51-2.55A39.21,39.21,0,0,0,243,351.4Zm162.92,89a7.36,7.36,0,0,0,0,2.26,35.72,35.72,0,0,0,1.78,3.62,7.83,7.83,0,0,1,1.27-1.49c4-2.69,3.39-9.12,6.23-12.65,1.6-2,1.63-3.55-.23-4.67-1-.59-2.83-.75-3.45,0C408.67,431,404.59,433.82,405.89,440.37ZM239.32,303.77c-1.26,6.36,1.49,10.22,4.89,13.52.35.34,2.32-.82,2.35-1.4.32-5.24.89-10.74-3.5-14.09-.82-.63-1.69-1.17-2.53-1.74C240.11,301.36,239.68,302.66,239.32,303.77ZM527.48,713.44c-.49-.57-.9-1.47-1.36-1.52-1.79-.17-3.6.14-5.38-.12-2.22-.31-3.57,1.24-3.63,3.53,0,2,.67,4.94,1.78,5.67s3.35-.22,4.73-1.24,2.62-3.09,3.83-4.79C527.66,714.67,527.48,713.92,527.48,713.44Zm41.34-180.56a7.82,7.82,0,0,0,0-2.34,38.18,38.18,0,0,0-1.81-3.62c-.42.54-1,1-1.24,1.63-1.48,4.56-2.92,9.14-4.27,13.76-.15.5.31,1.32.55,2,.82,2.17,1.38,1.84,2.58.08C566.89,540.94,570,538.24,568.82,532.88Zm7.4-32.16a41.6,41.6,0,0,0-.05-4.61c-.08-.62-.93-1.66-1.2-1.55-.87.36-2.28,1.06-2.34,1.78a74.93,74.93,0,0,0,0,9.24c0,.57.93,1.64,1.19,1.53.88-.35,2.09-.93,2.35-1.81C576.52,504,576.22,502.26,576.22,500.72ZM186.16,251.13c1.86-1.39,1.93-6.06.07-7.83a1.13,1.13,0,0,0-1.23-.11c-1.88,1.32-1.94,6-.08,7.79C185.2,251.26,185.74,251.09,186.16,251.13ZM453.5,547.57l-1.32-1.68a17.3,17.3,0,0,0-1.16,3.18c-.07.39.75,1,1.16,1.56Zm-266.61,19-1.31-1.69a16.27,16.27,0,0,0-1.16,3.19c-.07.39.74,1,1.16,1.56Zm-1.31-295.69c-.42.53-1.23,1.17-1.16,1.56a16,16,0,0,0,1.16,3.18c.41-.52,1.22-1.16,1.15-1.56A17.07,17.07,0,0,0,185.58,270.85ZM162,263.05l1.32,3.06c.41-.53,1.23-1.17,1.16-1.56a17.57,17.57,0,0,0-1.16-3.18Zm23.54-6.42c-.41.52-1.23,1.16-1.16,1.55a16.27,16.27,0,0,0,1.16,3.19c.41-.53,1.22-1.17,1.15-1.56A16.57,16.57,0,0,0,185.58,256.63Zm342,556.49-1.31-1.68a16,16,0,0,0-1.16,3.18c-.07.39.74,1,1.16,1.56Z"/><path d="M939.93,1100c4.54,1.56,10,.35,15.38.71,2.28-3.86,6.05-4.19,9.06-6.33,10-7.15,20.44-13.18,30.55-20a10,10,0,0,1,4.88-2c2.52-.08,4.94,0,6.41-3.12,3-6.33,9.39-6.09,13.13-11.12,1.06-1.41,3.59-1,4.69-2.38,3.53-4.47,6.69-9.07,12.57-7.46,1.08.3,2.54-3.51,4.11-4,4.25-1.36,8.26-1,11.38,4.15,1.66,2.76,3,6,1,8-6,5.73-6.93,16-12.91,21.82-5.74,5.56-7.07,15.65-13,21.58-5.81,5.77-10.35,13.58-15.94,19.75-2.56,2.83.05,9.41-5.75,10-2.94.32-5.51,5.45-8.39,8.16-.28.27-2.27-1.2-2.25-1.82.1-4.48-1.37-9.51,2.65-12.81,1.52-1.26,2.65-3.29,4-5l11.78-15.09c-.59-8.83,6-11.1,9.28-16.38,2.23-3.6,1.42-9.2,5.1-11.62,0,0-.19-1.4-.48-1.55-1-.57-2.49-1.65-3.24-1.16-6.66,4.29-12.86,10-20.71,10.39-5.32,5.89-12,9-18.14,12.68-6.7,4-13.18,8.75-20,12.52-3.67,2-7,5.86-10.75,6.67-5.4,1.15-11.07.29-16.62.29-2.15-4.15-6.44-3.65-9-6.52-3.84-4.36-7.84-4.88-11.29-.84-2.76,3.23-6.69,2.31-9.26,6.33-2.18,3.42-7.05-1.11-9.9,3.48-2.74,4.4-6.88,2.25-10.32,2.11-4-.17-5.25,6.22-9.61,5.14-2.76-.68-6.49-.44-8.6,1.5-2.49,2.28-3.14,2.27-5.53-.14-3.53-3.56-8.23-1.35-12.39-1.43a6.39,6.39,0,0,1-6.19-3.83c-2.75-5.55-8-6-11.8-9.67-2.37-2.31-6.83-2.35-9.91,1.85-1,1.39-4.28,2.49-4.67,1.85-3.15-5-7.29-4.94-11.58-4.63-1.25-6.19-10.08-2-9.39-11.33.11-1.56-2.18-3.54-3.49-5.13-2.25-2.71-4.2-5.23-3.83-9.9.43-5.48-.3-11.11.21-16.57s-1.37-8.71-4.17-12.13c-3.31-4-3-6.86,1.26-9.86,3-2.14,6.83-2.56,8.9-6.82.32-.65,1.19-1.12,1.2-1.69s-.76-1.59-1.2-1.61c-9.8-.32-19.59-.54-29.39-.77-6.66,8.2-15,3.42-22.53,4.76-6.35,1.12-13.36-3.37-19.06,4.37-1.18,1.59-4.73.34-7.18.35-12.34,0-24.71-.63-37,.24-7.53.53-15.73-4.44-22.76,4.21-1.6,2-5.95.29-9,.29-64.17,0-128.35.17-192.53-.21-8.13,0-16.85,3.78-24.57-4.24-1.86-1.93-6-.29-9.07-.29-30.24,0-60.48.42-90.71-.26-8.74-.19-18.18,4.41-26.39-4.26-1.46-1.55-4.79-.22-7.26-.22-13.57,0-27.15.19-40.73-.11-4.61-.1-10,2.71-13.49-4-6.61.11-13.22.14-19.82.49-.41,0-1.07,2.63-1,4a6.09,6.09,0,0,0,1.51,3.8c.9.73,2.32.41,3.51.53,4.18.43,9.42-1,12.28,1.74,3.56,3.39,7.94.91,10,3.36,3.69,4.35,7.65,5.72,11.62,4.15,6.73-2.65,10.63,6.47,17.07,5.22,5.36-1,11,.07,16.48.22,4,9.25,13.57-.65,17.7,8.35.21.47,1,.64,1.6.65,6.79,0,13.58,0,20.36,0,5.38,7.42,12.49,4.94,18.82,4.43,5.27-.42,8.91,3.48,13.34,4.75,4.7,1.35,9.82.31,14.76.31s9.88.12,14.81,0c3.77-.12,5.15,6.13,9.61,5,4.16-1,8.61-.22,12.93-.22,3.7,0,7.48-.6,11.08.19,2.7.6,5.06,3.56,7.78,4.39,2.89.88,6,.43,9.06.74.46,0,1.08,1,1.23,1.63.09.4-.58,1.56-.93,1.58-9.78.38-19.56.66-29.34,1-8.6-9-18.73-3-28.08-4.75-5.76-1-12.35,3.1-17.08-4.42-3.67-.1-7.34-.25-11-.3-4.32,0-8.77-.86-12.93.21-4.9,1.26-7.47-4.34-11.46-4.86-3.67-.48-7.4-.1-11.1-.1h-13c-5.22-8.48-12.49-4.35-18.84-4.48-5-.09-7.43-7.77-13.36-5.39-3.53,1.42-8.66,2.57-11.64-3.48a2,2,0,0,0-1.55-.85c-4.84-.33-9.69-.58-14.54-.86-3.56-6.7-8.94-3.13-13.55-3.88-1.21-.2-3.27.56-3.57-.12-4.24-9.55-13.27-.32-18-7.67a4.86,4.86,0,0,0-3.11-1.68c-4-.83-8.3,1.65-12-3.26-2.75-3.68-7-.71-10.53-1.59a4.59,4.59,0,0,1-3-2c-2.78-5.79-8.54.25-11.43-5-1-1.84-3.65-4.41-3.41-4.88a19.19,19.19,0,0,1,5.11-6.7c1.39-1,3.57-.39,5.4-.4,28.38,0,56.78.4,85.15-.32,6.35-.16,10.24,7.26,17.05,5.43,6.5-1.74,13.51-.37,20.3-.37h18.51c6.17,0,12.48-1,18.47.33,4.42,1,8,5.68,13.35,4.61,4.82-1,9.85-.2,14.78-.2h29.62c29.63,0,59.25-.42,88.86.26,8.74.2,18.18-4.41,26.39,4.26,1.47,1.55,4.79.22,7.26.22,26.53,0,53.07.07,79.6-.07,4.06,0,8.43,1.8,11.89-3.68,1-1.65,4.56-1,7-1,17.27-.06,34.58.74,51.82-.3,11.84-.71,24.3,5,35.55-4.38.87-.72,2.44.07,3.65-.12,11.21-1.7,22.81,3.8,33.81-4.35,3.24-2.39,8.48-.36,12.8-.36,4.93,0,10.09-1.17,14.75.3,5.22,1.65,6.45-5.91,11.51-5.52,7.72.6,15.8,2.77,23.47-1.28,1.38-11.22,9.81-15.25,14.36-23.23,1.81-3.18.4-10.22,6.31-8.21,3.07-3.86,6.15-7.7,9.21-11.58,2.64-3.33,5.24-6.7,7.86-10s4.8-7.94,8-9.77c4.47-2.58,7.93-6.25,11.56-10.18,3-3.27,8.76,1.32,11.23-5.2,3.63-.21,7.47.45,10.85-.85,5.09-2,6.85,6.59,11.47,5,10.05,6.24,11.24,6.32,21.47,1.46a15.89,15.89,0,0,1,3.24-1.42c4-.82,8.71,2.18,11.8-3.61,4.19-.39,8.38-.94,12.58-1.13s8.64-.09,13,0c7.53.11,13.85,8.79,14.25,19.5.09,2.32-.09,4.75.43,6.9.24,1,1.87,1.77,2.94,2a11.83,11.83,0,0,0,5.52,0c2.26-.7,2.83-4.85,5.9-4.72,6.78.29,13.57.09,20.36.09,2.48,6,9.13,4,11.56,10,.52,1.29,1.33,2.63,1.36,4,.16,5.53-.78,11.35.28,16.52,1.37,6.67-5.67,8.22-4.33,14.75.32,1.54-3.06,4.56-5,6.56-3.59,3.81-5.57,10.72-11.53,10.1-2.17,4.39-2.88,9.7-6.46,13.27-3.86,3.85-6.94,9-10.59,13.22-3.9,4.55-6.62,11.33-12.83,11.78-3.46,5.4-8.15,8.5-12.76,12-2.53,1.9-5.75.84-7.85,4.68C952.4,1088.19,942.43,1088.09,939.93,1100Zm28-138.06c-.28-1-.63-3.1-.85-3.08-3.44.34-5.34-4.16-7.7-4.74-5.35-1.32-11-.74-16.58-.31-4,.32-6.53,6.1-11.46,4.91-3.32-.81-5.18,6.27-9.34,5-2.2,3.48-5.65,5.47-5.28,11.51a269,269,0,0,1,0,28.4c-.21,4.82,2,7,4.14,9.73.87,1.11,1.78,2.18,2.59,3.37a2.27,2.27,0,0,1,.23,1.62c-.28.67-.83,1.62-1.27,1.63-5.54.12-11.34-1.18-16.57.47a31.29,31.29,0,0,0-13.65,9.11c-5.4-2.92-8.72,5-13.24,4.5-6.22-.67-8.13,5.85-11.9,9.31-.84.77-2.36.2-3.55.44-1.71.35-4,.14-5,1.45-6.32,8-15,14.6-12.19,29.16.24,1.24-3.46,3.88-3.19,4.93.71,2.65,3.4,3.82,3.5,7.65.12,5.35,2.07,3.86,4.15,1.22.75-1,2.16-1.88,3.09-1.65,6,1.51,9.44-5.37,14.51-6.77,3.41-6.86,9.7-8.15,14.54-12.26,4.3-3.64,10-4.13,13.56-9.51,6.87.74,8.42-8.08,12.84-11.74.51-.41.89-1.58,1.32-1.58,4.87,0,7.63-4.45,10.13-8.55,2.78-4.55,6.94-5.52,10.25-8.45,3.49-3.09,6.2-7.63,9.26-11.54,1.74-2.23,3.25-4.91,5.27-6.62,6.8-5.77,8.17-16.93,14.35-23.23,2.46-2.52.85-7.2,3.8-10C967.17,973.11,962.69,965.22,967.94,961.93Zm-29.26,101.61c.93,6-1.13,11.08,2.22,13.09,4.39,2.63,6.57-3,8.74-6.3,2.51-3.81,6.89-2,9.18-6.46a12.25,12.25,0,0,1,7.17-6.29c3.12-1,5.28-8,8.21-8.44,6.6-1,10-7.25,12.43-12.47,3.13-6.66,12.56-3.81,11.93-14.48q6.53-8.38,13.07-16.75l5.23-16.17c.09-3.09.5-6.25-2.91-7.2a12.68,12.68,0,0,1-4.68-2.61c-4-3.43-7.72-3.65-11.39.81a6.35,6.35,0,0,1-3.07,1.84c-12,3.62-17.27,8.18-26.15,21.28-4.43,6.54-9.55,12.31-14.3,18.51-4.17,5.45-9.5,9.93-8.09,19.57.29,2-2.76,4.15-3.73,7.32C940.82,1054.41,937.93,1059.38,938.68,1063.54Zm-72.23,51.65c3.45-.32,7.13.62,8-1,3.13-5.66,9-1.67,11.21-5,3.52-5.33,9.07-1.19,11.28-4.88,3.4-5.65,8.12-1.76,11.51-4.7,7.56-6.56,17.94-10.28,15.95-26.47-.22-1.8.93-4.35,2-5.86,3.35-4.62-.76-13,5.09-16.15-.83-.87-1.74-2.54-2.47-2.43-1.63.26-4,.84-4.62,2.3-2.91,6.65-9.53,6.07-12.91,11.52-7.06-1.72-8.07,11.41-15.18,10.17-1.17-.21-3,4.35-4,4-6.77-2-10.15,3.91-13.68,9-2.51,3.65-6,4.4-8.85,6.76-5.3,4.43-11.45,6.67-16.55,11.4-3,2.75-2.48,3.67,1,6.36C858.44,1113.49,862.48,1116.23,866.45,1115.19Zm-25.67-99.55c5.22-1.26,9.23,1.27,13.41-2.55,5.13-4.69,11.41-9.08,13.87-13.6,1.24-2.31,1.68-7.38,2.7-7.47,3.65-.34,5.71-1.31,5.5-6.62,0-1,1.43-3.16,2.09-3.09,5.31.55,7-5.49,10-8.85,3.24-3.56,6.12-7.67,9.12-11.6a2.18,2.18,0,0,0,.35-1.6c-.25-.67-1-1.72-1.22-1.61-4.27,1.72-5.9-4.19-9.43-5.21-5-1.45-7.34,4.2-11.34,5.17-2.69.66-5.06,3.2-7.69,4.52-4.9,2.48-7,10.62-13.14,10.57-.37,0-1.12,1.2-1,1.68.76,4.76-1.72,8.2-4.21,9.36-7.12,3.33-11.4,10.72-16.64,16.8-1.32,1.53-1.67,2.24-.31,3.4,2.26,1.92,2.27,4.92,2.9,7.92C836.08,1014.52,839.65,1015.08,840.78,1015.64Zm-19.31,85.06a55.83,55.83,0,0,0,7.32-.08c1.92-.25,3.07-1.64,3-4.62-.17-6.25.12-12.52-.11-18.76-.18-4.9.5-8.76,3.62-12.32,1.79-2-.34-6.86-2.73-6.89-4.27,0-8.64.71-12.8-.17-7.14-1.5-12.1,4.29-17.72,7.7-1.1.67-5.37,2.82-1.94,6.31,4,4.05-2.54,5.8-.91,8.31,3.75,5.74,4.88,13.93,10.28,18a11.39,11.39,0,0,0,4.69,2.39A44.69,44.69,0,0,0,821.47,1100.7Zm84.31-111.38c0-3.91,0-5.47,0-7-.08-5,0-4.6-3.82-2.51-4.39,2.37-8.37,5.14-11.43,10-1.53,2.41-3.5,6.38-5.14,6.27-5.67-.38-5.73,3.67-5.54,8.74.24,6.3,2.24,7.81,6.85,3.88,2.14-1.83,3.94-3.15,6.45-2.79,6.12.88,7.63-6.73,11.2-10.42C905.78,994,905.64,990,905.78,989.32Z"/><path d="M924.29,219.59c0,.71-.22,6.15-.55,11.58a2.14,2.14,0,0,1-1.26,1.57c-.38.06-1.16-.85-1.25-1.45-.33-2.23-.36-4.53-.66-6.78-.7-5.16,1.86-10.89-2-15.56-3.69-4.5-.11-11-2-15.48-1.62-3.88-3.2-7.78-4.62-11.8-.71-2-2.08-3.73-2.46-5.79a68.63,68.63,0,0,0-9.21-23.61c-1.38-2.18-1.34-5.93-2.83-7.84s-4.29-2-6.13-3.63-3.35-4.72-5.35-6.48c-1.83-1.62-4.2-2.2-6.25-3.49-5.11-3.21-10-3.82-15.08.44-1.37,1.17-3.21,1.49-4.87,2s-3.81.28-5,1.52a59.18,59.18,0,0,0-7.87,10c-2.4,3.84-6.56,2.51-9.17,6.45a65.73,65.73,0,0,0-7.87,14.86c-.81,2.28-3.57,7.05-5.26,4.75-1.54-2.1-.53-7.54-.21-11.44.1-1.22,1.62-2.25,2.5-3.37q11.12-14.25,22.24-28.49c3.85-5,7.32-10.56,14-8.73,1,.28,2.46-3.86,4-4.32,7.47-2.21,13.94,1.81,19.88,6.86,3,2.56,5.18,6.74,8,9.86,2.6,2.94,4.17,8.16,8.9,7,.44-.11,1.43,2.17,1.88,3.49,3.16,9.46,6.35,18.9,11.13,27.27-.28,6.93,6.06,11.7,3.74,19.39-1.59,5.29,4.21,7.08,3.76,12.24C924,205.32,924.29,210.11,924.29,219.59Z"/><path d="M961.32,331.13c0-3.16-.18-6.34.09-9.46.1-1.13,1.28-2.1,2-3.13l1.3,1.67c.88,1.12,1.72,2.27,2.62,3.34,4.58,5.46,6.64,5.29,12.68,1.83a35.8,35.8,0,0,0,11.56-10.1c6.33-8.62,13-16.88,19.63-25.1.66-.81,2.48-.74,3.5-.22a4.64,4.64,0,0,1,2.09,3.24c.22,5.51.25,11.06,0,16.57-.09,2.47-1.5,3.26-3.59,4-6.09,2-11,7.68-17.1,10-3,1.13.16,10.46-6.08,8.74-2.71,3.07-5.78,5.76-8,9.31-2.63,4.16-5.61,5.51-9.57,5a31,31,0,0,0-7.39,0c-2.36.26-3.5-1.34-3.65-3.81C961.14,339,961.32,335.08,961.32,331.13Z"/><path d="M913.18,377.24c2.72,7.84-5,14-3.83,22.74.38,2.77-3.35,4.74-3.36,3.65,0-3.82-2.93-4.62-3.68-7.36-.09-.31.89-1,1.2-1.63,3.74-7.63,6.91-15.46,6.06-25-.1-1.17,1-2.51,1.6-3.78.67,1.08,1.76,2.05,1.92,3.24A67.13,67.13,0,0,1,913.18,377.24Z"/><path d="M891,446.3c0-2.23-.73-5.42.14-6.52,3.16-4,3.92-8.45,3.69-13.85-.09-2.07,1.44-3.87,3.58-3.34,0,3-.15,6,0,8.93C898.86,438.94,897,444.33,891,446.3Z"/><path d="M802.1,236.33a43.42,43.42,0,0,1,.77-6.56c.18-.82,1.91-1.25,3-1.56,2.27-.66,3.85,1.49,3.5,3.56-.71,4.12-2.25,8-3.59,11.94a16.88,16.88,0,0,1-1.94,3.27,17.79,17.79,0,0,1-1.66-3.74C801.87,241.8,802.1,240.18,802.1,236.33Z"/><path d="M176.32,157.81c0,.72-.1,3.73-.35,6.71a3.05,3.05,0,0,1-1.16,1.55c-.79-.78-2.07-1.69-2.1-2.62-.18-6.11.07-12.23-.18-18.33-.09-2.33.19-3.32,1.83-2.2a5.33,5.33,0,0,1,1.87,3.44C176.5,149.37,176.32,152.46,176.32,157.81Z"/><path d="M921.86,238.38c.79.55,2.34,1.21,2.31,1.68-.23,3.32.37,6.06,2.62,7.87,1.52,1.22,1.58,2.34-.14,3.22a4.83,4.83,0,0,1-3.33.62c-1-.3-2.5-1.44-2.61-2.42a62.34,62.34,0,0,1-.07-9.17C920.66,239.6,921.38,239.06,921.86,238.38Z"/><path d="M916.88,351.09a49.64,49.64,0,0,1-.09,6.8c-.15,1-1.31,1.84-2.1,2.6a3,3,0,0,1-1.16-1.53c-.19-4.5-.39-9-.26-13.5a5.07,5.07,0,0,1,1.88-3.38c1.63-1.11,2.11-.15,1.8,2.19A51.62,51.62,0,0,0,916.88,351.09Z"/><path d="M459.18,1091.21a34.41,34.41,0,0,1-3.86-.79,2.17,2.17,0,0,1-1.2-1.58,2.09,2.09,0,0,1,1.2-1.57,31.62,31.62,0,0,1,7-.68c1,.06,1.9,1.46,2.85,2.25a26.65,26.65,0,0,1-2.86,2.32C461.78,1091.46,461.09,1091.21,459.18,1091.21Z"/><path d="M902.07,417.85c0-3.66-.25-7.36.1-11,.2-2.12,1.51-3.78,3.61-3.25,0,3.66.24,7.36-.1,11C905.48,416.72,904.16,418.38,902.07,417.85Z"/><path d="M902.07,417.85c.1,3.28-1.14,4.87-3.7,4.74Q898.23,417.67,902.07,417.85Z"/><path d="M798.93,254.94c.43-1,.87-2,1.32-3.06.41.53,1.22,1.17,1.15,1.56a16.9,16.9,0,0,1-1.15,3.19Z"/><path d="M824.31,173.39c-.73.73-1.83,2.28-2.13,2.05-2.23-1.67-.71-3,.51-4.12a1.32,1.32,0,0,1,1.56,0C824.53,171.7,824.31,172.68,824.31,173.39Z"/><path d="M171,142.82c-.58-.94-1.79-2.35-1.61-2.73,1.3-2.86,2.36-.91,3.22.65a2.61,2.61,0,0,1,0,2C172.28,143.09,171.52,142.82,171,142.82Z"/></svg>