<svg id="Layer_1" data-name="Layer 1" xmlns="http://www.w3.org/2000/svg" viewBox="0 0 1200 1200"><title>BB_Artboard 22</title><path d="M392.29,912.42c-70.24,36.76-73.87,39.94-77.76,42.91-3,2.3-7.31,6.64-9.43,6.09-9.9-2.56-15,5.78-23.38,5.54a34.76,34.76,0,0,1-9.06-1.24c-2.78-.86-4.94-3.22-7.73-3.8-19.89-4.18-19.26-4.12-20.24-17.15-.65-8.51,2.21-15,10.71-19.88,8.86-5.06,9.52-14.62,18.13-20.08,8.41-5.34,15.44-12.07,23.08-18.19l20.61-16.52,22.91-18.36c7.63-6.12,14.8-12.68,23-18.22,7.48-5,10.47-12.23,16-18.11s14.54-9.54,16.31-18.06c.56-2.66,5.65-6.38,9-6.63,6.79-.51,9.44-2.13,9.34-7.65,0-1,4.81-2,7.35-3.12,1.78-.77,3.45-1.68,5.18-2.53-1.49-1.22-3-2.42-4.44-3.68a20.34,20.34,0,0,1-1.66-1.82c5.35-4.29,11.46-8.13,15.82-13,4.18-4.67,11.68-3.65,15.73-7.31,4.4-4,9.72-2.52,14.81-2.81,2.15-.13,4.35.18,6.47-.06,21.73-2.42,33.75,3.92,37.58,19.94.2.83-.43,2,.1,2.54,3.85,3.85,8.69,7.57-.07,11.32,0,4.33.19,8.67-.11,13-.1,1.51-1.56,4.29-2.15,4.24-10.18-.73-9.86,6.61-13.31,10.93-1.61,2-3.54,4.27-3.69,6.5-.38,5.28.7,10.8-9.67,9.7-.94-.1-2.61,2.3-3.44,3.73-5.05,8.7-8.31,18.47-15.39,25.91s-2,14.92-4.1,22.13a43.43,43.43,0,0,1,6.46.06c4.16.65,5.65-2,7.8-3.75,16.86-13.41,34.46-26.32,50.14-40.57,10.16-9.23,25.86-9.76,36.48-17.83,2.26-1.72,10.35-1.67,12.28.06,8.26,7.38,21.32,11.85,23.44,23.27.1.53,4.12,1.2,4.22,1,2.92-5.08,6.57-10.09,8-15.46,1.54-5.74,1-11.84,1.32-17.78,8.24-4.09,4.43-10.72,5.56-16.36a12.41,12.41,0,0,1,3.68-6.5c10.46-9.37,21.69-17.91,37.93-20.58,1.78-.3,2.93-2.62,4.77-3.25,2.72-.93,7.44-2.41,8.45-1.54,6.5,5.61,20.4,4.8,22,12.75,1.12,5.51,8.4,8,7.21,13.29-1.62,7.25,4.63,15.64-4.82,21.75C692,822.29,680.54,834,672.74,847s-14.87,26.34-24.6,38.59c-1.54,1.95-1,5-2.51,6.91-5.55,6.94-18.45,9.56-18.22,19.94-7.44,4.82-6.91,13.94-15.83,18.3-2.75,1.34-2.32,6.42-4.94,8.46-6.82,5.32-6.58,14.35-15.83,18.24-7.08,3-7.38,9.73-11.63,14.24-3.87,4.1-9.47,7.14-13.44,11.2-3,3.09-4.73,7-7,10.6s-4,7.54-7,10.6c-4.05,4-1.08,8.29-2.05,12.35-.57,2.39.43,4.7-2.2,7.13-5.32,4.91-6.12,12.2-13.78,16.25-4.34,2.3-7.2,5.65-13.6,5.3-10.75-.59-21.59-.39-32.38-.07-4.79.15-7.49-2.2-11.16-3.64-4.24-1.66-12.1-2.71-14.64-.8-7,5.25-12.25,6.17-18.35-.13-7.14,1-10.34-5.38-16.39-5.77-5.49-.35-7.07-2.22-7.28-6.27-.36-6.86,1.73-12.57,6.18-18.8,9.9-13.87,17.36-28.83,26.49-43.07,3.26-5.06,8.68-9.21,12.63-14,.78-1-.31-3.22-1.14-4.66-1.22-2.11-2.45-1.48-4.6.35-7.39,6.3-15.44,12.11-22.72,18.5-4.66,4.09-9.41,6.69-16.68,5.61a7.86,7.86,0,0,0-5.43,1.73c-4.9,4.63-14,3.34-18.33,8.54-11.87,0-24.5,2-35.43-.54-12.43-2.93-24.87-8.51-31.45-18.75-1.32-2-.11-5.11-.21-7.71-.14-3.29,1.2-6.94,63.11-43.18,62.08-33.87,59.92-32.14,60.08-27.38,0,.38.38-.69-.1-1.08a3.47,3.47,0,0,0-2.74,0c-2.13,1.2-4.79,2.68-.89,4.51.52.25,2.45-1.45,3.73-3.41C456.86,884,459,882.28,392.29,912.42Z"/><path d="M642.69,1185.23c-5.4,0-11.23,1-16.07-.3-4.6-1.26-11-4.61-11.56-7.67-1.08-5.49-2.9-11.75,1.68-17.34,3.86-4.72,9.44-9.55,10.07-14.67.77-6.15,3.64-10.83,6.91-16,11.24-17.87,20.15-36.82,33.15-53.79,9-11.74,18.14-23.33,25.26-35.83,6.64-11.67,13.71-23.25,21.32-34.41,8.18-12,13.74-25.15,24.17-36.16-1.4-5.24,3.56-7.79,7.47-10.44,4.53-3.08,5.85-6.62,5.71-11.22-.07-2.17,1.41-5.46,3.49-6.4,8.19-3.72,9.1-11,13.35-16.52,3.74-4.85,5-10.92,11.68-14.27a6.61,6.61,0,0,0,2.28-1.83c3.67-4.9-2-12.24,6.85-16,6-2.53,5.52-9.73,9.57-12.06,8.66-5,1.36-12.87,8.22-18.57,5.67-4.72,8.34-12.57,11.86-19.18,3.15-5.9,7.64-11.21,10.58-17.26s8.21-11.11,12.47-16.62c-4.23-8.39,5.78-13.69,7.45-21C850,781.77,858.22,777,860.25,771c1.58-4.67,5.17-7.07,8.33-10.28,1.89-1.92,5.47-4.64,4.85-6-3.71-7.87,8.47-11.66,6.81-18.72,7.73-3.76,8.31-11.26,12.26-16.78,3.8-5.32,7.42-11.31,10.74-17.1,6.27-10.91,13.63-21.47,20-32.32,6-10.16,12.29-20.16,18.71-30.11,6.89-10.69,13.79-21.41,20.2-32.26,6-10.14,12.28-20.16,18.72-30.11,6.91-10.68,13-21.7,20.32-32.22,1.89-2.69,1.37-6.42,2.28-9.61.44-1.53,1.65-4.18,2.47-4.17,8.76.11,12.53-5.57,18-9.31a11.47,11.47,0,0,1,5.5-1.76c8.26-.39,16.87,1.35,23.47-5.1,2-1.94,14.4,3.73,14.91,7.56.79,5.9-.53,12,6.89,16,0,6.05.16,12.11-.11,18.16a5.75,5.75,0,0,1-2.51,4.27c-11.54,6.75-12.78,18.46-20.58,27-3.63,3.94-2.56,10-9.11,12.56,1.53,5.06-5.92,7.64-6,10.81-.18,6.5-6.63,8.39-9.93,12.47-2.71,3.35-4.48,7.18-7,10.64-8.08,11.12-12.73,23.69-22.56,34.05,1.49,9.71-15.7,11.52-14,21.3-12.62,14.63-19.55,31.68-30.86,46.94-3.9,5.26-6.68,11.84-10.86,17-3.87,4.78-8.9,8.88-11.08,14.61-.55,1.46-4.23,2.49-4.21,3.7.09,6.06.48,12-6.74,16,1.13,7.44-9.74,9.22-11.34,14.35-3.22,10.32-15.4,17.47-14.81,29,.11,2.09-1.9,5-4.07,6.27-8,4.71-10.83,12.33-14.58,18.65-6.43,10.85-13.37,21.5-20.1,32.23-6.31,10-10.81,20.82-19.38,29.91,1.24,5.26-3.74,7.93-7.78,10.3-4.9,2.88-3.53,8-7,10.66-4.55,3.48-4.12,7.32-5,11.49-.82,3.79-5.27,7.13-5.87,10.9-.67,4.22-4.65,5.57-7.29,8-6.12,5.65-15.76,9.71-12.49,19.24-11.58,8.54-15,21.27-24.35,30.78-4.81,4.87-6.66,9.63-8.78,15.4a71.74,71.74,0,0,1-14.41,23.55,196.64,196.64,0,0,0-15.26,18.48c-4,5.47-5.14,12.37-9.6,17.5-7.58,8.71-12.06,18.59-17.94,27.88-3,4.76-9.42,8.91-7.18,15.9,1.59,5-7,7.25-7.38,13.18-.35,5-7.19,9.49-10.65,14.44-2.92,4.18-6.1,8.51-7.33,13.09-1.07,4-2.39,6.08-7.72,5.94S648.09,1185.23,642.69,1185.23Z"/><path d="M1165.48,52.6c0,3.46.23,6.94-.1,10.38a7.1,7.1,0,0,1-2.27,4.38c-4.38,3.81-8.93,7.53-13.71,11s-2.77,9.8-9.08,12.62c-8.78,3.94-6.81,14.26-16.08,18s-8.58,13.22-16,18.09c-5.09,3.33-9,7-7.86,13.07.38,2-1.62,5.47-3.73,6.27-9.82,3.76-7.29,14-15.87,18.29-7.46,3.71-6.75,11.75-13.54,16.38s-7.53,13.52-12.61,18.86c-6.26,6.59-10.84,14-17.39,20.36,1.45,9.79-15,11.69-14.58,21.19.06,1.25-2.16,2.88-3.78,3.83-14.87,8.77-19.6,22.91-28,34.91-6,8.58-10.18,17.95-20,24.44-4.27,2.82-5.56,6.51-7.25,10.61-2.16,5.23-6.1,10.83-11.34,14.19C945.87,333.55,947.3,340.9,941,344c-8.87,4.35-7.78,13.61-15.36,18.36-3.32,10.81-10.25,20-21.32,26.56-5.79,3.42-3,9.58-8.87,12.85a19.37,19.37,0,0,0-9.88,12.28c-1.2,4.34-7.88,7.62-11.7,11.63-1.77,1.85-1.78,5.18-3.88,6.36-9,5.08-9.3,15-18.16,20.06-7,4-10.47,10-13.87,16.14-6.68,12.09-13.66,24.1-27.34,32.48-5.09,3.12-7,7.81-9.82,12.25-2.27,3.57-3.08,8.35-6.49,10.73-7.34,5.15-9.71,12.91-16.1,18-5.48,4.39-7.07,10-11.13,14.63-9.21-1.48-8.81,4.27-11.37,8.74s-7.76,7.79-11.51,11.79c-1.13,1.22-.71,3.76-2,4.42-8.54,4.31-9.66,12.7-16,18.13-5.15,4.43-10.08,9.24-16.16,12.7-5.88,3.34-2.91,9.94-9,12.72-6.95,3.17-7.74,9.52-11.52,14.33-3.25,4.14-10.44,5.89-10.55,12.18,0,2-3.28,4.11-5.45,5.87-15.2,12.29-30.42,24.56-45.81,36.71-6.61,5.22-18.26,3.37-24.47-3.32-1.53-1.64-1.65-2.3.9-3.78,6.55-3.77,4.66-9.76,3.43-14.21-2.37-8.64,7.44-13.49,8-20.89,11.51-6.48,13.67-18.84,25.11-25.47,4.32-2.51,8.72-5.59,11.25-9.22,2.41-3.47,2.95-7.52,6.87-10.79,2.38-2,1-6.23,4.77-8.73a121.77,121.77,0,0,0,13.76-11c3.35-3,2.4-7.52,6.65-10.88,6.45-5.12,10.34-12.27,16.51-17.67,5.67-5,9.5-10.65,14.05-16.08s10.51-10,13.25-16.47a37.57,37.57,0,0,1,13.63-16.3c5.63-3.92,13.3-8,14.84-13.09,1.79-5.84,7.18-8.11,10.35-12.25,3.66-4.78,8.48-9.7,9.41-14.94,1.37-7.66,12.16-9,13.79-16.36,1.16-5.3,5.5-10.26,9-15.08,3.1-4.19,9.69-6,10.38-12.24.66-5.92,12.22-7.15,12.47-13.89.2-5.31,7.68-7.37,7.49-13.37-.09-3,7.42-5.83,10.62-9.26,2.32-2.48,2.21-6.73,4.9-8.62,13.56-9.53,14.36-25.79,29-34.6,3.2-8.77,8.71-16.23,16.33-23.25,6.44-5.94,9.23-14.15,13.82-21.27,3.32-5.16,5.31-10.73,11.64-14.32,5.3-3,2.73-9.87,9.18-12.52,8.22-3.37,5.67-12.69,13.75-16.19-2.69-6,6.88-8,6.69-13.39-.17-5,5.9-6.84,9.47-9.73,4.53-3.67,2.62-9.94,9-12.69,6.08-2.62,5.72-8.81,9.51-12.27,4.91-4.48,4.46-10.8,10.84-14.89,5.24-3.35,7.21-9.81,11.95-13.92,4.4-3.81,5.8-9.05,9.46-12.32,4.49-4,2.76-9.92,8.58-13,4.55-2.39,1.21-8,6.78-10.82,5.2-2.6,8.13-6.8,9.83-12.24,1.63-5.22,11-6.89,12.41-14.12.78-4,4.33-9.22,8-12.65,4.86-4.53,3.63-11.58,10.76-14.73-1.49-5.23,3.64-7.57,7.23-10.57,1.49-1.25,4.51-2.59,4.35-3.66C1071.79,66.4,1082,60.58,1087.72,53c9.45-12.39,15.49-16.83,33.6-24.69,2.52-1.09,7.73-2.18,8.41-1.41,5.39,6.11,13.08,4.58,20.38,4.91,9.09.4,15.25,5.76,15.36,13C1165.52,47.41,1165.48,50,1165.48,52.6Z"/><path d="M537.47,1117.68c-4.32,0-8.64.12-13,0-7.67-.25-15.36-7.81-13.62-14.21,1.25-4.63,6.05-9,5.85-13.44-.29-6.35,3.89-10,9-12.59,5.5-2.86,2.43-8.24,6.72-10.87,6.06-3.72,4.57-10.67,11.11-14.71,5.28-3.27,9.9-8.94,11.25-14.14,1.7-6.58,7.8-9.65,11.72-14.4s5.75-10.21,11.36-14.5c4.86-3.72,7.65-9.41,10.5-14.53,4.59-8.21,8-17,17.31-22.76,3.32-2.06.82-5.36,2.47-6.93a25.51,25.51,0,0,0,7.15-10.73c1.25-3.63,7-6.33,10.95-9.27,4.8-3.55,9-7,7.87-13.09-.38-2,1.55-5.14,3.68-6.33,6.49-3.65,7.24-10,11.63-14.31,4.71-4.55,3.39-11.73,11.1-14.61,6.55-2.44,4.62-8.9,9.05-12.59,4.19-3.49,10-5.83,10.19-12.3.09-3.3,7.8-5.69,6-10.84,6.54-7.33,12.65-14.92,19-22.33,6.22-7.23,8.8-16.31,17.42-22.76,4.27-3.2,2.84-9.83,9.34-12.37s5.06-8.79,9-12.61c1.83-1.76,3.45-4.39,3.34-6.56-.25-4.66,1.76-7.87,5.77-11.21,5-4.18,12.86-6.92,13.73-13.5.68-5.15,9.06-7.41,7-13.27,6.58-2.52,4.62-9.13,9.2-12.49,4.74-3.48,2.7-9.89,9.08-12.61,6.14-2.62,6.22-8.28,9.3-12.44,5.15-6.92,8.16-14.8,13.87-21.3,4.13-4.7,4.63-10.69,10.89-14.8,5.21-3.42,8.62-9,11.45-14.18,1.6-2.9,1.41-6.17,4.64-8.92,2.56-2.18,2.44-6.37,5-8.55,3.23-2.75,2.52-7.27,4.67-8.73,11.54-7.86,16.18-19,22.21-29.16,3.77-6.38,9.6-11.93,10.23-20.14.56-7.35,9.5-13,18.6-15.3,4.61-1.17,6.45-4.85,10.18-5.31,6.32-.78,12.92,0,19.38-.26,11.64-.45,20.93,1.53,22.45,12.57,8.8,4.71,7.44,12.16,6.09,18.55-1.12,5.31-5,10.53-8.92,15.08-3.63,4.2-9.24,7.26-13.41,11.21a11,11,0,0,0-3,6.68c-.33,3.42.51,7.32-4,9-9.76,3.69-7.76,13.61-15.9,18.21-7.81,4.41-7.57,13.31-15.75,18.31-5,3.07-6.75,9.62-9.88,14.64-2.24,3.58-5.53,7.07-6.21,10.85-.92,5.12-6.61,6.46-9.44,9.9-1.14,1.38-3.9,2.87-3.61,3.89,3.06,10.72-7.26,15.44-14.82,21-4.61,3.42-4.72,7.12-5,11.44-.16,2.2-2.22,4.5-4,6.36-2.61,2.69-8.55,5.29-8.23,7.47,1.18,7.93-4.11,12.33-9.59,17.9-5,5-7.35,11.65-14,16.1-1.94,1.3-1.27,4.85-3,6.67-6.75,7.22-12,15.2-18.71,22.52-6.33,7-8.65,16.35-17.23,22.75-1.91,1.42-1,5.35-3,6.6-7.59,4.91-5.71,14.58-15.36,18.49-3.66,1.48-8.62,4.62-8.81,7.2-.63,8.71-13.15,11.2-14.3,18.67-1.26,8.16-15.78,9.6-13.6,18.9-7.51,3.8-6.14,12.21-13.63,16.32-7.84,4.31-6.82,14.1-16,18-1.36.58-1.53,2.86-2.39,4.3-3,5.06-5.41,10.46-9.32,15s-11.46,7.62-11.25,14.47c-12.41,7.13-15,19.27-22.74,28.81-3.27,4-3.57,9.33-9.2,12.57-4.33,2.49-9.15,5.51-11.15,9.2s-2.64,8-7.26,10.56c2,5.86-7,8.07-6.85,13.29s-6.66,6.34-9.12,10c-5.74,8.45-11.28,17-16.8,25.55-2.29,3.56-4.49,7.16-6.47,10.83-6,11.14-15.3,18-31.64,16A55.79,55.79,0,0,0,537.47,1117.68Z"/><path d="M478.31,570.23c-2.39-10,4.25-18.21,11.37-24.59,5.8-5.19,6.63-12.18,13.14-16.66,5.72-3.94,10.44-8.81,16.21-12.69s4.33-11,11.19-14.67c5.11-2.75,11.37-7,12.3-11.23,1.57-7.11,11.89-9,12.5-14,1.52-12.32,21.28-14.48,21.19-26.87,11.42-6.54,14.68-18.07,24.91-25.64,8.12-6,11.33-15.6,19.81-21.84-.77-6.32,6.57-8.26,10.29-12.16s3-9.47,9-12.68c7.94-4.26,6.7-14.24,16.15-17.92,2-6.3,6.68-11.83,10.5-17.22,4.44-6.25,6.18-14.53,14.77-18.46,9.09-4.15,11.33-12.18,15.32-18.41,6.62-10.34,12-20.88,23.52-28.52,1.59-1.06,3.61-2.37,4-3.82,4-14.05,17.71-23.51,25.7-35.64,1.37-2.08.65-5.72,2.53-6.82,11.49-6.64,15.87-17.63,25.14-25.49,6.46-5.48,6.73-14.36,16-18.1,8.39-3.4,6.86-12.07,13.73-16.23,5.22-3.17,7.11-7.73,9.54-12.42,1.92-3.69,7.26-6.24,11.08-9.3-2.51-6,5.88-8.21,6.94-13.33,1.86-9,14.67-11.67,19.3-19.51,3.85-6.52,4.95-14.56,12.83-19,5.85-3.31,5.45-8.75,9-12.69s8.14-6.9,11-11.9c6-10.41,29.41-25.61,43.54-31.9,1.81-.81,3-3.21,4.69-3.35,5.35-.44,11.3-1.3,16.06.1,7.61,2.23,14.27,6.63,23.14,5.34,3.88,3.8,2.79,9.79,9,12.81.77.38-.77,4.61-2.08,6.73A85.4,85.4,0,0,1,966,80.44c-7.46,6.75-20.32,10.22-21.41,21.47-.14,1.45-8.91,1.71-10.18,3.85-3.13,5.31-6,10.32-11.73,14.34-5.39,3.75-4.45,11.08-11.55,14.3-6.89,3.11-3.8,11.49-11.47,14.35-6.58,2.47-5.15,8.84-9.21,12.5-4.79,4.32-9.87,7.95-11.93,14.29-1.67,5.13-10.72,7.11-11.78,14.34-.79,5.34-10.37,7.35-13,13.78-2.09,5.17-8.47,9.52-13.81,13.49-6.27,4.65-6.19,12.15-13.43,16.52-5.56,3.36-9.88,7.65-12.44,14-2.38,5.87-14.22,9.23-16.77,15.12-2.68,6.17-8,9.57-12.09,14.23-3.47,3.92-3,9.85-9.3,12.45s-4.8,8.9-9.06,12.63c-4.09,3.58-9.27,6.06-10.49,12.2-.83,4.18-8.14,7.53-12.5,11.29-2.15,1.85-6.34,4.22-5.91,5.64,2.86,9.61-5.19,14.72-12.63,19.22-7.27,4.4-5.42,13-13.56,16.39-6.44,2.69-5.54,8.65-9.14,12.58s-9.71,6-10.9,12.06c-.69,3.54-6.22,6.52-9.76,9.63-2.91,2.55-9,5.22-8.63,7.31,1.55,9.56-13.61,10.54-13.91,19.09-.09,2.68-4.2,5.71-7.3,7.79-7.41,4.95-11.36,11.65-16.06,18.08-4.17,5.73-12,8.73-15.75,15.55-3.62,6.64-12.13,11.57-18.5,17.24,2.28,10-16,11.44-13.74,21.41-7.64,6.12-15.34,12.19-22.85,18.41-1.32,1.09-2.61,2.87-2.51,4.28.36,5.39-9.46,7.38-6.71,13.4l-16,12.86c-11.46,9.18-23.42,18-34.16,27.69-5.53,5-12.61,4.69-17.48,3.06s-11.31-5.36-10.08-11.83A28.88,28.88,0,0,0,478.31,570.23Z"/><path d="M873.76,37c-.86,4.84,2.13,10.22-2.23,14.73C866.51,56.9,865.7,64,858,68.15c-6.16,3.31-10.33,8.94-16.35,12.49-5.71,3.37-4.74,10.07-9.32,12.3-5.11,2.5-12.39,2-10.75,9.27-6.11,4.9-11.54,10.59-18.53,14.46s-6.84,10.08-10.79,14.85c-4.22,5.11-9.38,10.64-9.62,17.49-11.43,6.53-13.57,19.1-25.29,25.28-6,3.17-6.12,8.43-9,12.68-4.44,6.57-11.28,12.14-15.31,18.35S724.7,217,718.29,221c-5.58,3.5-5.29,8.91-9.06,12.68-4.5,4.49-10.15,7.78-11.91,14.33-1.17,4.35-7.68,7.71-11.48,11.71-1.13,1.19-.55,3.78-1.82,4.48-14.39,7.92-19,22.16-31.76,31.21-5.11,3.62-7.78,9.43-11.69,14.17s-11.29,7.07-13.66,13.7c-1.85,5.19-10.4,8.93-11.91,14.09-2,6.87-9.3,9.05-13.35,13.82,3.52,6.91-10.35,9-6.87,15.9-6.11,4.89-14.73,9-17.62,14.91s-7.57,9.72-12.08,14.2c-3.8,3.77-3,9.55-9.17,12.58-9.43,4.66-21.18,5.88-29.11,12.69-5-.88-10.71,1.93-15.23-1.89-3.72-3.13-7.63-6.13-11.44-9.19-3.32-2.68-3.62-4.66-.09-8.82,6.25-7.38,8-16.8,16-23.23,7.52-6,9.12-14.68,14.74-21,6-6.68,10.67-14.13,17.41-20.28a36.22,36.22,0,0,0,9.45-12.52c1.61-3.68,7.2-6.24,11-9.3-2.81-6.13,7.29-8,6.89-13.3a4.94,4.94,0,0,1,.07-2.57,6.15,6.15,0,0,1,2.21-1.86c6.75-4.23,10.23-10.1,14-16.11s14.23-8.22,15.94-15.47c1.6-6.78,8.85-9.36,13.76-13.57,3.79-3.25,4.94-7,7.06-10.7s7.26-6.25,11.08-9.31c-1.86-9.8,15.85-11.52,13.74-21.41,11.43-6.54,13.63-19,25.27-25.31,5.82-3.15,5.36-9.09,9.36-12.41,5.25-4.35,3.41-11.74,11.17-14.62,6.54-2.42,4-9.81,9.31-12.33,9-4.29,8.32-13.52,15.93-18.19s6.57-14.25,15.88-18.27c2.08-.89,2.17-4.41,3.83-6.35,6.34-7.44,9.59-16.56,19.18-22.23,7.76-4.58,7.27-13.54,15.85-18.27,7.87-4.34,14.25-10.56,20.72-16.35,4-3.59,3.66-9,9.07-12.66,8.75-5.84,17.12-9.86,32.47-12.62A34.6,34.6,0,0,0,847,19.5c17.13-6.25,26.67-1.91,26.79,12.2C873.77,33.43,873.76,35.16,873.76,37Z"/><path d="M1139.55,764.94c1.9,10.71-3.65,19.57-12.13,27-4.42,3.88-6,8.54-9.19,12.56-6,7.5-8.07,17-16,23.11-7.8,5.94-8.35,15.32-17.79,20.37-3.63,1.94-4.27,7.17-7.22,10.34a63.79,63.79,0,0,1-11.36,9.2c-5.81,3.87-3.69,11.56-11.36,14.44-6.55,2.46-4,9.41-9.19,12.46-6.22,3.65-7.77,9.64-11.85,14.14-4.26,4.7-3.58,11.38-10.86,14.8a29.91,29.91,0,0,0-11.29,9.12c-2.45,3.43-5.11,7.36-6.44,10.74A25.71,25.71,0,0,1,995,955.53c-6.46,4.44-10.15,10.12-14,16.09-3.2,4.94-8.78,8.51-11.8,14.26s-9.57,10.21-13.52,16.22c-3.67,5.6-4.93,12.54-13.05,16.62-10.78,5.43-12.34,17.39-23,23.32,1.28,7.39-8.1,9.45-11.15,14.47-3.2,5.25-5.84,10.35-11.52,14.42-2.68,1.92-2.4,6.41-5,8.5s-7.67,2.08-10.66,4-6.1,4.92-7.1,7.88c-.89,2.67-1.61,5.29-4.88,5.44-6.31.28-13.74,1.22-18.76-1-6.23-2.71-10.93-8-15.33-12.83-1.55-1.68-.82-5.14-.13-7.61,1.31-4.68,8.55-7.56,6.39-13.44-1.87-5.08,6.28-6.62,6.34-10.81.09-6.2,7.42-7.91,10.61-12.09,2-2.7,2.59-6.16,4.77-8.76,6.2-7.38,7.94-16.8,16-23.2,7.55-6,10.78-13.56,14.38-21.21,1.39-3,5.25-5.35,8.48-7.51,3.71-2.48,4.89-5.37,4.25-9-.93-5.34,1.55-8,8.72-7.67,1.34.06,3.48-1.83,4.12-3.17,3.26-6.78,8-13.09,11.42-19.57,3.53-6.65,9.1-11,14.47-15.94-3.55-6.91,10.35-9,6.85-15.88,4.25-3.77,11.24-7.17,12.14-11.41,1.53-7.12,11.66-9,12.32-14,.75-5.74,7.16-8.06,7.93-13.15.34-2.22,2.37-4.49,4.28-6.29,4.79-4.54,12.81-8.29,14.29-13.34,2-6.91,11.36-8.84,12.52-14,1.52-6.81,8-9.59,11.81-14.38s6.22-10,8.7-15.23c3.31-7,12.35-10.4,15-18.43,2.2-6.56,7.29-13.14,11.49-19.39,4.4-6.56,13-11.35,19.91-16.75,1.33-1,3.69-1.17,5.42-2,7.87-3.53,16.39-6,24-10.09,2.8-1.51,9.66-1.23,12.16.52,8.55,6,19.45,11.57,15.81,23.15A8.63,8.63,0,0,0,1139.55,764.94Z"/><path d="M545.3,73.38c8.9-1.62,15.88,1.86,23.28,5.08,12.94,5.62,17.68,13.81,12,24.47-2.77,5.15-6.32,10.76-11.55,14.14-6.33,4.09-5,11-11.1,14.7-5,3.11-7.64,7.26-9.64,12.37S537.13,151,536,158.35c-.65,4.12-11,7.26-11.65,11.4-1.19,7.15-9.15,9.27-11.93,14.36-2.52,4.61-4.48,9-9.42,12.47s-8.64,8-13.94,10.78c-8.58,4.49-9.64,12.64-15.72,18.31-5.29,5-14.69,7.6-14.66,15.9,0,1.28-2.23,2.84-3.85,3.81-13,7.78-17.2,20.17-25.27,30.54-3.74,4.82-4.9,10.63-11.09,14.65-5.37,3.49-11.09,7-12.27,14.08-.86,5.11-11.29,6.83-12.63,13.93-.67,3.53-5.56,7.42-9.79,9.47-8.07,3.91-7.46,12.13-13.76,16.23-6.14,4-8.35,9.46-11.07,14.6-6.87,13-20.93,20.94-32.23,30.82-8.62-.57-15.92,2.07-23,5.65-1.07.54-3.88-.62-5.51-1.46-1.78-.91-3.06-2.42-4.65-3.59-4.65-3.43-2.9-9.69-8.94-12.79-1-.54-.52-5.45,1.14-6.59,5.81-4,3.7-11.66,11.24-14.55,6.57-2.52,4.73-9.13,9.25-12.44,4.81-3.52,2.67-9.88,9-12.67,6-2.63,6.25-8.27,9.38-12.38,8.46-11.14,12.75-24.61,27.25-32.51.88-.48,1.95-1.1,2.24-1.83,2.72-6.94,5.78-14.81,12-19.07,7.12-4.87,9.25-11.33,12.68-16.89,6.92-11.21,13.23-22.32,25.72-30.34,3-9.6,12.65-15.13,20.6-21.71-1.49-9.78,14.23-11.7,14.84-21.17.21-3.27,6.19-6.85,10.44-9.26,6.53-3.68,7-10,11.46-14.41s8.67-8.74,11.92-14.22c4.26-7.17,8.4-15.31,17.5-20.16A36.82,36.82,0,0,1,503,97.9c7.15-6.46,15.57-12,22.65-18.53C531.14,74.33,537.45,72.63,545.3,73.38Z"/><path d="M270.85,113.59c1.13,6.42-1.58,11.49-7.91,15.57-3.35,2.16-6.16,4.84-9.21,7.29-4.58,3.67-10,6.88-13.5,11.13-3.74,4.61-4.64,10.73-8.5,15.25-5.74,6.74-7.22,15.91-16.94,20.32-9,4.09-8.14,13.2-15.75,18.31-7.15,4.8-15.62,9.37-18.81,17-3.29,7.8-15,10.87-17.32,17.53-2.82,8-13.61,11.26-14.77,18.42-1.26,7.85-13.27,8.81-13.42,16.4,0,.87.46,2.07-.08,2.55-6.37,5.71-15.21,10.52-18.73,17.16-3.63,6.83-10.63,10.28-15.53,15.59-4.22,4.59-12.7,7-11.41,14.38-5.34,4.28-10.6,8.63-16,12.82-4.58,3.52-8.93,9.06-14.21,9.77-8.91,1.21-11.28,7.54-17.55,10.24-2.11.91-7.06.44-8.39-.88-4.07-4.06-9.13-4-14.45-3.61-4,.29-5.61-1.34-6.8-3.93-2.08-4.5-6.3-9.09-5.82-13.38.37-3.37,6.15-6.62,10.12-9.38,3.14-2.2.69-5.66,2.4-7,6.94-5.23,6.38-14.52,15.8-18.2s9.06-12.83,15.86-18.17c5.77-4.54,14.75-7.71,13.89-16.07,12.08-7.17,17.69-18.63,27.78-26.95,4.79-3.95,2.7-9.7,8.66-13,4-2.19,8.34-4.78,9-10,.33-2.78,4.73-5.23,7.21-7.88,8.11-8.64,22.83-13.06,25.19-25.37C153,173,155.34,160.73,166.75,154.2c-1.28-7.4,7.66-9.58,11.28-14.44s4.48-11,8.81-15.12c9.51-9,19.61-17.78,31.1-25,7.92-5,18.43-6.25,29.42-5.75C267.49,94.81,271,97,270.85,113.59Z"/><path d="M398.62,140.91c5.84,0,9.1.21,12.3,0,6.9-.55,9.9,1.76,9,7.28,6.74,4.13,7.32,9.85,6.52,16-.23,1.71.16,3.47-.13,5.17-.13.69-1.23,1.36-2,1.88q-10,6.39-13.68,16.18c-11.64-.4-15.15,8.37-22.39,12.89-4.06,2.54-8.08,5.27-7.71,10.54.08,1.08-8.81,1.77-9.84,3.84-3.19,6.39-10.27,10.72-13.42,16.29-3.63,6.43-8.66,11.17-14.39,15.92-3.75,3.1-7.48,6.22-11.45,9.13s-1.71,7.71-6.46,11c-4.34,3-10.17,2.47-13.46,5.32s-2.95,7.28-6.78,10.71c-11.26,10.05-25.13,17.85-34.43,29.82-8.26,10.64-21.5,18.74-32,28.37-4.6,4.23-7.25,9.79-11.68,14.16-4.73,4.67-10.46,8.69-15.88,12.9-12,9.29-30,13.84-45.68,11.64-5.06-.72-12.4-9.45-10.8-13.89A68.33,68.33,0,0,1,162,350.47c3.4-5,11.07-7,12.29-14.21.7-4.14,10.94-7.24,11.65-11.38,1.23-7.16,8.26-9.54,12.41-14.16,5.37-6,10.18-12.32,16.12-17.9,6.27-5.9,15.82-10.17,20-16.75,10.47-16.5,29.07-26.7,44-39.68,6.39-5.56,10-13,16.35-17.65,7.45-5.49,7.34-13.8,15.27-18.66a40.69,40.69,0,0,0,14.57-15.74c3.66-6.63,13-11.22,19.84-16.74,1.48-1.2,4.05-2.59,4-3.79-.89-12,12.87-12.34,21.05-15.61C379.13,144.36,388.3,136.42,398.62,140.91Z"/></svg>