<svg id="Layer_1" data-name="Layer 1" xmlns="http://www.w3.org/2000/svg" viewBox="0 0 1200 1200"><title>BB_Artboard 49</title><path d="M350.67,83.56c15.58,0,31.17-.12,46.76.08,5.13.06,10.41-1.49,15.05,3.57,1.86,2,7.27,1,11.07,1,24.16.06,48.35-.69,72.47.3,15,.61,30.59-4.81,45,4.21,2.23,1.41,6.11.2,9.23.2,16.36,0,32.74-.37,49.09.15,8.05.26,17-3.52,24,4.17,1.09,1.19,4.45.34,6.76.35,6.24,0,12.47,0,18.71,0h21c7,0,14.2-.95,21,.29,5.6,1,10.11,5.61,16.85,4.61s14-.23,21-.23c15.59,0,31.22.7,46.75-.28,8.06-.52,13,7.23,21.54,5.31,7.42-1.67,15.51-.35,23.3-.35h23.38c7.8,0,15.6-.2,23.38.06,6.63.22,11.54,6.47,19.16,4.87,6-1.26,12.42-.25,18.65-.25h21c6.23,0,12.55.62,18.68-.17,7.24-.92,11.42,7,19.2,5.13,5.88-1.44,12.4-.29,18.63-.29,7.62,7.63,17.27,4,26.13,4.61,5.29.36,8.3,7.14,14.43,4.76s9.31,4.2,14.43,4.6c4.58.36,6.62,6.6,12.1,4.78,4.54-1.51,6.72,4.89,9.67,4.32,7.72-1.5,13,3.68,18.54,6.41,5.69,2.81,11.71,5.91,16.87,10.69,5,4.61,13.36,5.44,18.84,10.38,5.21,4.68,10,9.86,14.94,14.82,8.85-.23,9.94,7,13.16,12.82s10.51,8.7,12.81,15.78c.87,2.68,3.24,4.95,5.19,7.17s4.83,4.1,4,7.7c-1.3,5.59,2.51,8.53,5.93,11.56,2.47,2.2,4.15,4.51,3.45,8-1.29,6.39,6.16,10,4.91,16.81-1.1,6-.29,12.43-.21,18.66.08,6-1.17,12.2,4.5,17,1.11.93.38,4.34-1.82,6a8.43,8.43,0,0,0-2,3.11c6.47,4.59,3.49,11.34,3.84,17.18.38,6.21.09,12.46.09,18.7-8.43,9.22-4.57,20.52-4.28,30.78.21,7.37-6.55,11.7-5.32,19.16,1,5.75,2.11,12.53-4.43,16.73,0,5.45.42,10.95-.12,16.35-.59,6,3,12.9-1.81,17.83-5.31,5.51-.18,12.44-3.42,17.31-2.35,3.54-4.43,5.38-.23,8.72.34.28-3.17,4.36-3.6,6.89-.66,3.78-1.1,8.05,0,11.6,2.42,7.68-5,12.36-4.88,19.16.1,6.24,0,12.47,0,18.71-9,7.37-4.3,17.47-4.23,26.12.06,7.31-6.69,11.67-5.35,19.14,1.09,6,.22,12.43.22,18.67-8.86,12.53-3.07,26.77-4.59,40.16-.51,4.5.63,9.1-4,12.55-1.22.92-.76,4.29-.78,6.54-.08,7.8.07,15.59-.07,23.38-.07,3.68,1.06,7.52-2.54,10.68-4.21,3.7,3.17,5.37,2.29,6.36-9.21,10.21-2.42,22.29-4.26,33.29a38.81,38.81,0,0,0,.06,14c1.15,5.54-5.15,7.14-5,12.13.38,10.9-.78,21.92.44,32.69.78,6.92-6.24,10.14-5.2,16.84,1,6.09.2,12.44.2,18.67s.94,12.66-.24,18.66c-1.41,7.16-5.84,13.45-4.65,21.52a61.9,61.9,0,0,1-.09,20.95c-1.29,6.38-5.37,12-4.52,19.19.72,6.15.15,12.45.15,18.68,0,7-.43,14.07.12,21s-7.19,11.22-5.15,19.2c1.69,6.58.43,13.94.28,21a6.18,6.18,0,0,1-1.56,4c-6,5.78-13,9.75-21.48,10.1-3.3.13-9.57-5.57-9.59-8.42-.08-17.93,0-35.85,0-53.78,9-10,3-22.1,4.57-33.15.64-4.59-.7-9.53.37-14,.8-3.29,4.9-5.13,4.59-9.83a178.43,178.43,0,0,1,0-28c.91-9.53-4.61-20.23,4.49-28.47-.07-14-.13-28-.29-42,0-.56-1-1.29-1.62-1.58a1.71,1.71,0,0,0-1.56.67c-3,12.8-14.27,22.11-15.28,35.78-.11,1.4-.43,3.3-1.38,4-8,6.16-9.6,17.08-18,23.17-4,2.89-10,6-8.52,12.58,1.31,5.63-5.86,7.61-4.65,12.08,1.71,6.31-3.47,9.66-5.17,14.37s-8,8.2-8.52,12.66c-.63,5.58-3.35,9.65-5,14.45a16.53,16.53,0,0,1-3,5.8c-2.86,3.35-8,5.41-6.64,11.26-4.7,2.84-4,7.54-4.92,12.06-1,4.77-4.84,8.87-6.53,13.59-2.2,6.12-7.83,10.83-7.27,18.08.11,1.35-.28,3.27-1.2,4.09a36.91,36.91,0,0,0-10,14.62c-1.83,4.68-5.65,8.62-7.26,13.34a59,59,0,0,1-7.81,15.4c-3.41,4.71.88,10.71-4.48,14.76-3.3,2.49-2.2,8.64-6.61,11.15,1.23,8.81-11.34,10.38-10.08,19.2-5.42,4.31-5.19,12.29-11.44,16.46-5.08,3.4-9,8.61-13.36,13-7.56-.9-9.35,7.41-14.81,9.38-6.89,2.48-13.13,6-19.52,9.38-5.79,3.11-11.83,6.17-19,5-2.81-.46-6.57-.25-8.66,1.3-2.76,2.06-4.36,3.84-6.79.1-1.61-2.47-4.45-2-6.25-1.24-2.59,1.17-3.74,4.47-7.54,4.49-7.39.05-15.12-1.87-21.66,4.33-1.65,1.56-6,.24-9.14.24q-69,0-137.94-.07c-5.15,0-10.4,1.4-15-3.62-1.87-2-7.28-1-11.08-1-28.84-.06-57.68.15-86.51-.17-6.53-.07-13.75,2.59-19.53-3.89-1.43-1.6-5.87-.62-8.93-.63-18.71,0-37.42.3-56.11-.17-7.4-.19-15.06,2.59-22.31-2.55-5.95-4.22-13.44-1.16-20.17-2.1-1.24-.17-2.11-2.23-3.41-3-3.77-2.15-3.84-2.1-7.94.23a32.82,32.82,0,0,0-3.32,2.47c-4.32-6.71-11.09-3.81-16.94-4.21-6.91-.48-13.84-.52-20.76-.75-4.46-6.56-12.62-1.35-16.74-4.4-7.12-5.28-14.47-3.22-21.72-4.46-5.65-1-10.12-6.83-16.8-4.48-3.54-5.5-9.06-5.31-14.42-4.59-6.41.86-9.77-7.94-16.8-4.81-6,2.68-9.15-4-14.35-5-4.73-.9-9.38-4-13.28-7.15-4.84-3.89-13,1.19-16.07-6.47-6.23,2.54-8.12-7.4-14.32-5-2.4-5.75-10.28-2.93-12.94-8.27-9.39.51-15-5.6-21.05-11.44-4.75-4.56-12.25-5.68-16.12-11.7-6.66-.68-11-5.29-14.42-10.05-3.87-5.37-11-4.43-15-9.63-3.53-4.58-7.25-9.83-14.38-10.31-1.75-.12-4.32-2.83-4.8-4.77-2-8-8.17-12.51-13.41-17.85-4.91-5-10-9.81-14.83-14.93-4.56-4.87-9.58-8.95-12.11-16-1.89-5.31-8.32-9-12.73-13.41,2-5.43-4.15-7.42-5-12a31,31,0,0,0-6.74-13.43c-3.6-4.31-1.13-8.94-2.42-13.11-1.91-6.22-5.29-12-5.8-18.68-.1-1.18-2.68-2-3.07-3.34-2.11-7.16,2-14.82-3.15-22.17-4.56-6.5-1-15-2-22.51-.38-3,1.87-4.07,3.42-5.61,2-2,2.06-5.27.88-6.17-4.42-3.37-4.33-7.7-4.28-12.41.12-12.47.51-25-.18-37.4-.28-4.94,4.83-8.75,3.54-11.51-1.59-3.43-3.87-6.33-3.3-10.34,1-7.27-2.84-15.3,4.2-21.79,1.58-1.45.44-5.93.45-9,0-13.25-.68-26.55.34-39.72.42-5.51,5.7-10.07,4.56-16.83-1-6.06-.21-12.44-.21-18.67V591c0-6.23-1.31-12.84.31-18.62,2.23-8-5.71-12.14-5.1-19.2.53-6.19.11-12.46.11-18.7v-21c-7.84-10.16-4.28-22-4.48-33.14-.14-7.66-6.9-13.12-5.16-21.49,1.4-6.73.29-14,.29-21-7.63-7.62-4-17.27-4.61-26.12-.34-5.31-6.42-8.15-5-14.48,1.18-5.19.24-10.86.24-16.32-8.29-6.6-4.28-15.76-4.42-23.78-.12-6.32-6.72-9.79-5.26-16.83,1-4.71,2.53-10.89-3.23-14.91-.9-.62-.95-2.7-1.09-4.13-.89-8.83,2.6-18.24-4.48-26.32-1.54-1.76-.23-6-.23-9.15,0-13.25-.29-26.51.14-39.75.19-5.89-2.36-12.4,2.43-17.63,4.36-4.75,1.1-10.39,2.15-15.5A3.33,3.33,0,0,1,23.57,211c2.61-2,2.91-4.87,3.82-7.82,1-3.26,5.52-5.28,4.43-9.83,6.78-4.21,7.91-12.6,13.22-17.9Q55.8,164.75,66.53,154c8.39,1.56,9.87-8.38,17-10,6.11-1.39,11.42-6.09,17.27-9,11-5.39,22.18-10.43,33.16-15.86,1.94-1,3.15-3.73,5.81-2.84,6.74,2.25,10.26-6.07,16.81-4.85,2.89.54,7.08.88,8.87-.71,4.58-4.07,10.12-6.35,15.41-8.16,4.88-1.68,10.79-.36,16.25-.36,5.57-9.53,18.6.18,24.18-9.35,4.67,0,9.36.2,14-.06,4.39-.24,8.86,1.32,12.84-3.14,3.26-3.66,8.79-1.18,13.29-1.39a189.14,189.14,0,0,1,21,0c6.31.41,9.47-7.49,16.88-5.08,4.93,1.61,10.81.3,16.26.3h35.08Zm88,243.2c2.11,0,4.32.39,6.3-.1s3.57-2,3.05-4.57c2.11,0,4.32.39,6.3-.11s3.57-2,3.06-4.57c2.11,0,4.31.39,6.3-.11a3.72,3.72,0,0,0,3.05-4.57c2.11,0,4.32.39,6.3-.11s3.57-2,3.05-4.56c5.44,0,11.83,1.77,16-.51a39.15,39.15,0,0,1,12.26-4.48c4.75-.87,9.09-4.15,13.55-6.49s9-6.94,13.3-6.77c7.94.31,14.27-4.6,21.39-4.74,5.32-.1,7.55-4.85,12-5a130.37,130.37,0,0,1,14,0c2.82.19,4.06-1.64,5.73-3.13,4.57-4.05,13,1.65,16.11-6.28.11-.26,1.48.06,2.25,0,5.06-.69,10,1,15.18-3.09,3.47-2.74,10.1-1.44,15.3-2.09a2.58,2.58,0,0,0,1.57-1.62c.12-.38-.59-1.43-1.09-1.56-7-1.85-12.81-6.72-21-5.92-10.77,1.06-21.73.32-32.6.22-3,0-7.33.62-8.71-1-3.72-4.43-8.17-3.59-12.65-3.6q-33.8-.06-67.57,0c-6.92-3.25-10.59,5.09-16.7,4.68-3.13-.22-6.11-.18-8.18,2.77-2.33,3.3-7,1.28-9.83,4.76-2.6,3.19-8.5,2.23-11.09,6.72-2,3.5-6.17,3.65-9.39,5.28-3.95,2-6.91,6.13-10,9.62-2.39,2.72-1.2,7.13-4.88,9.71s-6.37,6.87-10.07,9.63c-4,3-4.32,7.61-6.57,11.32-7.86,13-12.71,27.54-21.22,40.17-.75,1.11-.61,2.89-.64,4.36a2.33,2.33,0,0,0,1,1.85c2.89,1.16-.68,3.15,1.59,1,3.95-3.72,7.43-8,11.64-11.4,4.68-3.78,7-10.34,18.08-8.9a16.2,16.2,0,0,0-2.26-2.67,2,2,0,0,0-2,0,2,2,0,0,0,0,2,9.59,9.59,0,0,0,2.76,2.13c.18.09.94-.9-2.81-4.16-.75-2.95,1.74-4.1,3.31-5.58,5.39-5.08,13.39-6.52,18-13,.79-1.1,4.43-.15,6.76-.15v6.76c0-.7.27-1.66-.08-2a2,2,0,0,0-2,0c-1.54,1.08-3.46,2.41-.65,4.06C436.31,331.1,437.7,329.57,438.63,326.76Zm495.75,234.7c-.08-1.24-.44-7.33-1-13.42,0-.46-1.15-1.28-1.55-1.17-.65.19-1.56,1-1.61,1.56-.3,3.8-.83,7.67-.46,11.44.5,5-6.71,6.74-4.77,12.06,3.24,8.88-7.88,14.88-4.69,23.72-4.66,2.32-3.41,8.37-6.68,11.14-4.46,3.77-.41,10.11-3.41,12.45-4.71,3.67-3.07,9.9-7.77,13.53-3.18,2.45.66,8.42-3.28,12.56-3.32,3.48-4.44,9-7,13.31-7.66,13.15-10.94,28.85-22.9,39.5-.31,6.09-5.44,10.19-6.58,15.94-6.46,3.54-7.88,10.79-11.26,16.37-4.49,7.44-8.27,15.24-12.93,22.69-4.93,7.85-10.77,14.37-17,20.82-5.41,5.59-11,11-16.42,16.57-.93,1-1.15,2.6-1.7,3.93,2.33,0,6,.95,6.78-.16,4.63-6.46,13.08-7.54,18-13.11,6.4-7.28,16.36-11.8,18.24-22.72,7.14-7.14,14.88-13.82,21.15-21.67,2.54-3.18,2.83-8.57,6.93-10.94,4.54-2.64,2.37-8.8,6.55-11.34,4.91-3,5.82-8.38,8.28-12.9,5.53-10.14,9.85-20.94,16.41-30.53-1.32-11.12,8.41-18.31,10.27-28.48.56-3.05,5.6-5.3,4.3-9.78-2.56-8.82,7.4-14.84,5.14-23.54,6.72-4.31,2.12-11.83,4.62-16.71,2.87-5.59,4.92-10.69,4.35-16.92-.28-3.09,0-6.22-131,221,0-3.12,2.69-.61,0-2.14a2.33,2.33,0,0,0-2.11,0c-2.17,1.91-4.22,4-6.24,6a2,2,0,0,0-.35,1.46c1.16.68,2.4,1.71,3.61,1.71C803,803.74,803.49,802.93,934.38,561.46ZM357.53,130.33c-21,0-42.09-.27-63.13.16-7.27.14-15.61-3.26-21.55,4.27-6.2.08-12.73,1.44-18.52-.06-7.88-2-12.26,5.21-19.19,5.13-6.6-.08-13.25-1.62-19.44,4.17-3.22,3-10.81-2.14-15.12,2.42-4,4.2-8.72,2.77-13,2.42-5.79-.48-8.11,7.3-14.48,5-4.91-1.78-6.86,6.38-12,4.52-7.51-2.69-12.53,3.87-19.06,5.05-3.16.56-5.23,5.54-9.79,4.42-2.84,4.69-7.32,4.7-12.12,4.8-1.85,0-3.75,2.14-5.48,3.49-2.91,2.25-5,5-9.25,6.09-3.86.94-7.64,3.81-11.63,5.61s-5.3,7.6-10.71,8-7.07,5.53-10.51,8.41-6.45,6.81-10,9.78-2.29,8.49-6.33,11.65c-1.62,1.27-1.31,5.79-.94,8.72,1.92,14.91-4.92,30.72,4.59,44.84,0,7.79.11,15.59,0,23.38-.09,4.72-.21,9.18,4.38,12.33.77.53.84,3.24.21,4.37-1.08,1.94-4.53,3.92-4.19,5,.79,2.63,4.22,3.77,4.58,7.51.25,2.59,3.49,4.78,4.28,7.48,1.46,5-2.07,10.64,2.34,15.44,4.75,5.18,1.56,11.77,2.45,17.66.45,3-.52,7.41,1.12,8.72,5.48,4.39,2.85,10,3.6,15.05,1.07,7.26-3.16,15.63,4.45,21.54.07,6.2.69,12.47.06,18.6-.66,6.47,5.36,10.11,5.26,16.79-.14,8.67-4.35,18.67,4.25,26.12q0,15.19,0,30.39c0,.74,0,1.79.38,2.15,7.28,6.08,3.94,14.35,4.14,21.64.45,17.14.53,34.31-.1,51.43-.18,4.93,3.06,7.72,4,11.72-6.53,4.56-3.59,11.34-3.64,17.15-.26,26.5-.12,53-.12,79.5,0,3.12,1.32,7.35-.22,9.17-8.1,9.6-4,20.69-4.25,31-.61,28-.25,56.11-.17,84.17,0,5.94-2,12.58,4.64,16.77,0,6.22,0,12.44.17,18.66,0,.57,1,1.2,1.59,1.64,2.94,2,3.55,5,2.85,8.14-1,4.68,4.65,6.5,4.47,9.76-.33,5.8,3.56,9.78,4.5,14.53s6.82,6.72,5.13,12c4.9,3,3.23,10.08,7.88,13.07,4.86,3.12,5.13,9,8.31,12.93,2.91,3.63,6.53,6.68,9.84,10,2.75,2.75,5.73,5.32,8.2,8.32,2.83,3.41,7.74,5.22,7.91,10.74.21,6.56,7.46,2.91,10.3,6.94,4,5.64,9.4,10.42,14.72,15,5,4.29,11.26,7.27,16,11.83,3.93,3.77,9.93,2.9,13.25,8,7.67,11.83,24.2,11.64,32.55,23,.55.75,3,0,4.54.12,2.22.11,4.26-.21,6.36,1.69,6,5.43,15.17,5.44,20.87,11.64a2.69,2.69,0,0,0,2,.63,12.73,12.73,0,0,0,4.23-1c1.69-.86.64-1.66-.46-3.35-2.81-4.29-7.64-4.36-11.43-6.51,1.28-5.9-6.42-8.24-5.5-14.12,1-6.44-5.18-10.34-6.08-16.16-7.07-5-8.8-11.74-8.06-20.13a157.4,157.4,0,0,0,0-25.69c-.35-4.43,3.44-6.1,4.22-9.5-5.87-3.66-3.53-9.55-4.05-14.7-1.29-12.63,3.45-25.84-4.39-38-1.78-2.75-1-7.79-.1-11.48,1.3-5.54-4.71-7.6-4.81-12.14-.13-6.23.07-12.47-.06-18.7-.13-6,1.91-12.57-4.65-16.77L237.4,806c-9.56-5.6.43-18.66-9.23-24.23,0-4.68.6-9.46-.18-14-.72-4.17-3.44-8-4.39-12.15-1.45-6.41,2.66-14.07-4.38-19.25-.14-5.4-1.49-11.13-.12-16.12,2-7.21-5.06-10.52-5.24-16.84-.23-8,4-17.21-4.4-23.79,0-6.23-1.3-12.83.31-18.62,2.23-8-5.31-12.16-5.19-19.2.13-8.07,2.81-17-4.48-23.78-.39-8.15,2.07-16.87-4.67-23.78,0-6.23-1.18-12.76.29-18.63,1.94-7.81-6-11.75-5.35-19.21.58-7.09,3.71-15.66-4.21-21.45,0-5.45.2-10.91-.16-16.33-.34-5.12-5.7-8.23-4.92-14.47.91-7.23,2.39-15.39-4.36-21.41,0-8.57,0-17.15,0-25.72,0-.72,0-1.72-.49-2.1-8-6.89-2.72-16-4.07-24-.77-4.48-.6-9.13-.85-13.7-6-3.68-3.27-9.64-3.95-14.74-1-7.28,3.06-15.58-4.32-21.59l-.33-41.95c6.63-5.13,4.35-12.46,4.64-19.11.2-4.66.84-9.53-.17-14-1.27-5.64,6.07-7.47,4.73-12.09-1.83-6.29,3.52-9.62,5.19-14.35,1.87-5.28,3.32-11.79,8.51-15s4-9.55,8.11-13.17c5.23-4.66,10-9.85,14.94-14.81,5.51-5.51,10.75-11.35,16.62-16.44a136,136,0,0,1,16.21-11.6c5.64-3.58,11.4-6.7,16.45-11.38,3.44-3.2,9.26-3.71,13.78-5.9s8.75-5.19,13.26-7.54,9-4.82,13.75-6.26c4.21-1.26,6.62-6.46,12.07-4.9,5.66,1.62,8.06-7,14.45-4.72,5.6,2,9.64-2.91,14.46-4.31,4.32-1.24,9.41-1,13.92-.09,6,1.15,9.6-3.58,14.49-4.74,7.11-1.69,15.72,3.43,21.42-4.78,7,0,14.17-.87,21,.22,8.14,1.3,13-7.21,21.58-5.25,7.41,1.69,15.51.47,23.3.31,4.43-.1,9.5,1.61,12.54-3.56,8.16-1.3,16.3-3.4,23.79,2.66,1.26,1,5.08,1,6-.08,2.94-3.28,6.26-3.79,10.29-3.72,10.13.19,20.33-.64,30.38.27,9.55.86,20.21-4.7,28.7,4.11a13.64,13.64,0,0,0,3.13-2.75,4.71,4.71,0,0,1,6.22-1.32c3,2.41,5.42,4.88,9.94,4.56,7-.5,14-.13,21-.13h39.75c6.23,0,12.83,1.31,18.61-.32,8-2.23,12.16,5.42,19.21,5.17,8.11-.28,16.58-2.16,24,4.28,2.43,2.11,5.26-1.89,7.42-4,5.36,5.62,12.37,3.62,18.9,4.3,7.38.78,14.77-2.24,22.3,2.69,7.23,4.74,16.67.37,24.76,2.3,3,.7,5,5.94,8.34.58,4.11.56,6.71,4.46,11.71,4,5.71-.56,12.6-2.77,16.92,4,5.4.15,10.91-.36,16.16.61,5.66,1.05,10,6.35,16.84,4.69,5.19-1.25,10.85-1,14.39,4.49,6.68-2.37,11.16,3.34,16.8,4.49,4.49.92,9.36-.2,14,.3,4.31.46,7,4.54,12.07,5,7.13.62,13.5,6.27,21.52,4.4.94-.22,2.62,1.4,3.5,2.52,2.39,3,5.73,2.3,8.53,1.87,4.68-.73,5.55,5.91,9.75,4.73,6.74-1.9,10.42,5,16.8,5,6.58,0,11.74,5.73,17.68,7.77,9.57,3.29,17.07,12.19,28.35,10.66,6.39,4.92,15.27,6.32,20.69,11.61,5.1,5,12.74,5.5,16.51,11.26,3.64,5.56,11.6,4,14.72,9.84,8.52-2,9.53,8.87,17.12,9.72,6.46.72,8.89,10.3,16.75,10.12,1,6.47,7.28,9.71,9.4,14.81,1.7,4.07,5,7.29,5.84,11.61,1,5-1.9,10.4,2.78,15.31s1.54,11.85,1.77,17.83c.49,12.45.15,24.93.15,37.4,0,2.34,1,5.74-.16,6.85-8.94,8.53-4.08,19.15-4.27,28.63-.65,31.95-.25,63.91-.24,95.87,0,3.87,0,7.75.24,11.61,0,.58.94,1.29,1.61,1.59.37.18,1.53-.3,1.55-.56.66-6.63,7.31-11.07,6.14-18.63-.95-6.09-.19-12.44-.19-18.68,7.51-7.64,3.84-17.28,4.7-26.12.14-1.44.17-3.46,1.07-4.16,6.23-4.82,3.67-11.53,3.34-17.27-.38-6.49,5.48-10.08,5.36-16.79-.16-8.66-4.58-18.71,4.23-26.12v-18.7c0-5.46-1.18-11.27.32-16.28,1.67-5.58,5.21-10.29,4.56-16.88-.83-8.49-.14-17.13-.22-25.7s-.3-17-.47-25.52c-8-6.84-2.49-16-4.18-24-.3-1.44,0-3.36-.86-4.28-5.09-5.57-6.28-13.09-10-19.22-1.63-2.67-3.79-4.7-3.15-8.09l-34.68-34.74c-5.46.7-8.59-3.13-11.15-6.71-3-4.15-9.19-1.72-11.43-6.52-9.61-3.32-18.52-8.25-27.11-13.46-5.19-3.15-13,1.3-16.29-6.3-.25-.59-2.93-.23-4.47-.12-5.46.38-10-.35-14.74-4.34-2.75-2.35-8.29.27-12.6-3.5-2.74-2.41-8.7-1.16-13.22-1.53-2.27-.19-5.59.56-6.63-.65-5.62-6.59-12.94-3.33-19.5-3.93-5.41-.49-11.61-1.71-16.18.3-5.81,2.56-10-9.63-15.14-.71-5.14-6.57-12.43-4.08-19-4.3-7.78-.28-15.58-.07-23.38-.07H831.53c-7,0-14,.22-21-.06-6.56-.27-13.91,2.43-19-4.36l-5,3.89c-3.61-5.86-9.45-4-14.65-4.11-10.13-.13-20.32.62-30.38-.22-9.59-.81-20.11,4.33-28.82-3.82-.22-.21-2.13,1.29-3.18,2.09-4.11,3.1-8.42,2.76-12.64.48-1.91-1-2.7-3.42-5.68-3.35-10.91.27-21.82.11-32.74.11H628c-9-9.59-20.6-4.19-30.81-4.37-41.29-.72-82.61-.27-123.92-.35-4.42,0-8.41.19-12.85-3.13s-11.44-2.73-17,.7c-1,.64-3,1.75-3.18,1.54-5.51-6.83-13.07-3.41-19.58-3.56C399.63,130,378.58,130.33,357.53,130.33Zm70.6,912c9.35,0,18.71.25,28.05-.06,9.65-.32,19.89,2.54,28.45-4.61,6.24,0,12.72-1.09,18.64.27,7.7,1.76,11.69-6.52,19.21-5.25,4.81.81,10.4,2.09,15.21-2.58,4.22-4.09,10.33-1,15.52-1.86.62-.11,1.23-1,1.64-1.61,3.22-5.06,9.85-.83,12.38-3.56,4.56-4.93,9.63-3.84,14.84-4.14,1.49-.08,3.88.15,4.3-.62,3.41-6.2,10.83-1.73,14.21-5.13,4-4,9.36-1.8,12.4-4,4.3-3.07,10-3.07,13.45-7.33.48-.6,1.09-1.53,1.66-1.56,3.89-.13,7.92.54,11.65-.25,3.42-.72,6.63-4.4,9.77-4.2,7.15.46,12.85-3.66,19.17-4.57,7.44-1.06,13.22-7.07,21-5.94,3-5.1,8.87-2.14,12.22-4.18,4.78-2.9,9.17-5.66,14.61-4.18,5.6,1.51,7.41-4.65,12.12-4.94,4.44-.26,9.78,2.44,13.19-1.68,3.78-4.56,10-.68,12.5-3.46,4.56-5,9.71-4.42,14.84-3.92,5.79.56,8.19-7.48,14.45-4.87,9.64,4,16.79-6.5,26.11-4.65,3.89-4.37,8.83-5.54,14.42-4.67,4.21-6.49,10.82-4.34,16.76-4.75a5.73,5.73,0,0,0,3.88-1.71c2.84-3.91,6.83-2.88,10.55-2.86,4.08,0,5.27-6.27,9.72-4.64,6.26,2.29,9.06-6.28,14.41-4.59,6.42,2,8.72-6.18,14.47-4.84,3.73-5,11.47-3.73,14.83-9.35,7.8,1.41,9-8.2,14.86-9.15,7-1.15,9.33-7.51,14.31-10.73,5.44-3.52,5.11-10.71,9.84-14.7,2.85-2.4,4.34-5.55,5.83-9.24,1.63-4,4.22-7.37,4.41-12.3.13-3.3,3.62-6.38,4.2-9.79.63-3.77,1-6.92,3.51-10.37,3.19-4.31,1.74-10.27.7-15.46-.44-2.25-2-2.18-3.21-.29-1.85,3-5.22,2.51-7.8,3.67-1.92.86-2.07,5.15-3.56,7.57-1.19,1.94-3.06,4.57-4.89,4.81-7.73,1-11.27,7.3-16.2,11.81-3.44,3.15-6.65,6.57-9.93,9.89-1.63,1.64-3.19,3.45-5.84,2.82-5.39-1.29-8.39,2.13-11.86,5.36-5,4.63-8.69,10.65-15.43,13.44s-13,6.14-19.53,9.29c-1.3.63-3.71,1.7-3.61,2.1,2.09,8.79-6.87,6.14-10,9.5-2.3,2.5-6.41,3.22-9.41,5.19-3.67,2.4-5.39,8-11.32,6.58-2.56,5.51-10.28,3.2-12.88,8.27-3.57,6.95-10.37,5.18-16,6.62-.65.17-1.13,1-1.67,1.6-3.7,3.87-6.93,7.9-13.53,7.09-5.09-.63-8.24,6.72-14.46,4.59-2.09-.71-6.15-1-6.72,0-3,5.32-9.63,3.72-13.4,7.93-3.36,3.74-11-1.42-14.1,5.14-11.1,3.27-20.24,12.95-33.2,10.15-5.57,9.54-18.6-.18-24.18,9.36-4.67,0-9.48.69-14-.18-5.47-1.06-7.06,5.39-12.13,5-6.19-.51-12.46.06-18.69-.19a12.49,12.49,0,0,0-10.23,3.81c-2.36,2.32-5.72,1.18-7.79-1.62-1.29-1.73-2.43-2.3-3.31-.95-2.54,3.92-6.38,3.39-10.25,3.59-4.89.24-9.21-.24-12.1-4.77-3.62.8-8-1.94-10.92,1.76-3.64,4.57-9.68,4.35-12.39,2.18-4.11-3.27-7.86-4-12.55-4-8.57.12-17.15-.16-25.71.13-3.6.12-5.3-2.7-7.87-3.65-1.66-.61-4.5,2.49-7,3.46-1.35.53-3.1-.09-4.63.13-3.79.54-5-3.13-7.57-4.38-3.33-1.62-8.06,1.63-10.83-1.87-3-3.76-6.7-3.45-10.45-3.06-4.42.47-5.16-6-9.76-4.77-5.31,1.36-8.65-1.67-11.88-5.25a19.12,19.12,0,0,0-5.31-4c-5.11-2.66-10.36-5.08-15.56-7.57-4.55-2.18-8.92-5.36-13.71-6.26-6.57-1.24-7.47-9.54-14.76-10-3-.18-5.83-4.44-8.68-6.91-3.36-2.92-8.68-2.08-11.41-6.53-2-3.25-5.54-4.26-9.38-5.48s-6.76-6.16-10.06-9.47c-2.76-2.75-5.46-7.77-8.28-7.84-8.8-.21-7.23-5.75-7.45-11-.11-2.53-1.6-3.75-4.45-4-5.14-.38-7.49-4.37-9.53-8.52-3.55-7.24-5.83-15.14-12.56-20.62-2-1.6-2-5.41-3.53-7.76-2.09-3.12-6.69-5.69-6.89-8.72-.37-5.79-1.67-10.22-6.19-14-5.4-4.48-10.28-9.47-8.31-17.56-5.9-3.3-4.29-9.2-5-14.31-5.93-3.52-4.63-9.42-4.17-14.56.53-5.76-6.38-8-5.18-14.5,1-5.51,2.82-12.55-3.86-16.89-.16-6.17-.95-12.41-.29-18.49.72-6.52-5.33-10.06-5.17-16.79.73-31.15.32-62.33.32-93.5,0-2.33-1-5.71.16-6.84,8.82-8.55,2.78-19.17,4.51-28.62s-4.3-20.19,4.68-28.45v-14c0-5.45-.28-10.93.09-16.35.31-4.38,5.45-6.66,4.82-12.12-.9-7.69.53-15.66-.44-23.33-1-8,2.83-14.4,4.69-21.51,1.32-5.07.78-10.62,1.07-15.95,6.58-4.53,2.95-11.33,3.84-17.12a2.89,2.89,0,0,1,1.14-1.83c5.16-3.13,4.36-8.57,3.22-12.52-1.91-6.58,7-8.07,5.25-14.59-1.06-3.94-1.6-8.78,2.89-12.76,3.68-3.26.71-8.82,1.56-13.26.26-1.36,1.41-2.53,1.89-3.87,2-5.46,7.5-10,7-15.61-.56-6.74,7.5-10,5.1-16.82-.89-2.54,1.34-4,2.72-5.86,2.22-3,7-4.23,6.52-8.94-.48-4.4,4-5.74,5.16-9.63,2.19-7.48,6.75-14.26,10-21.5,2.08-4.57,7.43-6.64,8.79-12.83,1-4.5,7.74-7.43,10.67-11.88,3.25-4.93,5.11-10.62,10-14.57,4.22-3.4,7.22-8.6,11.79-11.21,5.21-3,10.91-5.13,14.37-10.23,3.23-4.77,8.48-5.87,13.05-8.14,5.8-2.89,11.93-5.4,17.43-8.61,8.54-5,16.68-9.71,27.05-8.35.49.07,1.41-1.86,1.79-3,.1-.3-.95-1.37-1.59-1.49-2.16-.41-5.91.87-6-1.79-.19-4.43,4.08-2.89,6.6-2.89,24.94-.1,49.87-.07,74.8-.05,3.08,0,7.45-1.07,9,.52,7.28,7.46,16.13,2.92,24.14,4.06,4.53.65,9.18.48,13.77.67,4.42,6.57,11.19,3.35,17,4.1,13.36,1.72,27.6-4.15,40.14,4.67h18.7c7,0,14.09.59,21-.17,6.54-.73,10,6.54,16.83,5.07,5.21-1.12,10.86-.22,16.31-.22h16.37c6.23,0,12.62.86,18.65-.24,6.23-1.15,9.4,4.47,14.48,4.81,6.2.42,12.46.1,18.69.1,5.46,0,10.95.42,16.35-.11,6.38-.62,9.9,6.08,16.82,5.11,7.19-1,15.39-2.42,21.4,4.36,8.8-2.91,16,5.42,23.71,4.23s11.91,7,19.19,5.22c1.24-.31,3.46.19,4.07,1.09,3.2,4.73,10.52,2.64,13.07,8.16,3.89,0,7.8-.14,11.68.08,1.35.08,3.25.67,3.88,1.66,2.72,4.25,8.48,2.26,11.59,6.4,2.79,3.72,9-1.13,12.5,3.42,2.79,3.68,8.78,2.06,11.4,6.56.44.77,2.88.76,4.3.53,4.39-.73,7.24,1.42,9.88,4.49,2.51,2.89,5,6.06,9.61,5,3.14,5.85,11.55,4,14.58,9.92,2.38,4.66,8.21,3.1,11.35,6.56,3.66,4,7.69,7.7,11.56,11.53,8.44-.35,10.68,7.94,16.21,11.65-2,8.51,9.22,9.47,9.75,17.13.21,3,4,7.58,6.92,8.21,4.39,1,6.63,1.46,7,6.62.25,3.33,4.6,5.2,4.82,9.75.15,3,5.57,5.12,4.37,9.79-.1.38,1.23,1.65,1.52,1.53,1.11-.43,2.92-1.23,2.94-1.94.22-7,.42-14,0-21-.25-4.41,1.89-9.17-1.78-13.26-5.44-6.06-5.2-15.28-11.56-20.93-3.49-3.1-6.49-6.76-10-9.83-3.31-2.87-5.46-6.69-11-7.53-3.77-.58-6.84-5.75-10.22-8.87-8.79,1.18-10.37-11.34-19.2-10.09-3.95-4.8-10.16-5.63-15.22-8.46s-10-7.09-16.67-4.84c-2.39-4.57-8.32-3.45-11.18-6.66-3.23-3.62-8.44-2.3-11.65-6.31-2.76-3.44-9.15,1.28-12.44-3.47s-9.58.18-12.49-3.44c-3.71-4.62-8.44-4.11-12.64-3.27-5.61,1.12-7.47-4.85-12.13-4.94-6-.11-12.55,1.83-16.77-4.64-6.7-.18-13.2.7-19.39-4.31-2.87-2.32-10.26,1-13.2-1.29-4.18-3.27-8.28-4.82-12.56-3.54-6.46,1.94-8.74-5.21-14.49-5.15-6.49.06-14.13,3.15-19.23-4.11-5.41-.1-11-1.08-16.19-.09-6.19,1.2-9.43-4.33-14.48-4.79-5.41-.49-11-.89-16.31.09-6.75,1.26-11.25-3.59-16.85-4.59-6.8-1.21-14-.86-21-.13-7.88.82-14.42-3-21.54-4.38-9.79-1.82-20.18-.41-30.31-.48-3,0-7.44.92-8.9-.69-5.82-6.37-13-3.71-19.55-3.82-22.59-.36-45.22.52-67.78-.39-13.39-.54-27.65,4.7-40.15-4.43H507.34c-4.44,5.68-10.75,4.68-16.77,4.68-9.35,0-18.73-.49-28,.14-9.74.65-19.68-2.58-29.26,2.65-8.51,4.65-18.15,1.19-27.26,1.77-4.72.31-6.48,6.13-12.12,5-5.25-1-10.87-.34-16.32-.14-1.32.05-3.2.78-3.82,1.81-3.5,5.78-10.61.07-14.45,4.86-4.19,5.2-10.17,1.69-15.26,2.57-2.21.39-5.08-.27-6.6.9-8,6.17-16.75,9.43-26.93,8.54-.56,0-1.17.84-1.8,1.23-13.5,8.5-28.67,13.8-42.27,22.1-6.53-.07-8,8.25-12.57,8.86-6.43.85-9.05,5.32-12.82,8.78-4.54,4.17-9.6,8.28-12.61,13.48-3.23,5.55-4.76,12-8.71,17.45-2.83,3.94.92,10.92-5.18,14.15-.14,4.62-.35,9.24-.4,13.85-.06,7,0,14,0,21v21c0,7.79,1.15,15.81-.32,23.31-1.53,7.76,4.25,12.51,5.18,19.14,1.56,11-5.21,23.26,4.49,33.15,0,4.68-.19,9.36,0,14,.24,4.39-1.26,8.84,3.17,12.82,3.62,3.25,1.19,8.8,1.37,13.3.31,7.78-.22,15.59.21,23.36.23,4.32,5.75,6.68,4.73,12.13-.82,4.37.35,8.33,3.3,12.68,2.57,3.77,2.32,10.78.88,15.64-2.15,7.33,4.82,10.72,5.18,16.85.52,9-2.5,18.13,2.53,27,4.82,8.47.94,18.14,2,27.22.09.77-.3,2,.06,2.27,10.5,7.28-1.22,21.7,9.31,28.91-.13,10.86-.16,21.72-.52,32.57,0,1.14-2.6,2-3.06,3.35-1.11,3.18,1.32,3.11,3.53,3.36,1.38.16,3.89,1.18,3.84,1.53-1.2,8.6,6.51,14.78,5.86,23.53-.47,6.38-3.35,14.19,4.22,19.14,0,4.66,1.19,9.64-.09,13.89-2,6.55,6.46,8,5.31,14.57s-2.67,14.24,1.58,20.09c4.75,6.55,1.56,13.39,2.71,20,.13.72,0,1.84.43,2.12,6.71,4.37,4.44,11.21,4,17-.52,7.17,7.14,11.45,5.17,19.19-1.23,4.83-1.31,10.3,3.67,14.86,2,1.83,1,7.38.64,11.17-.43,5,5.2,6.69,5.14,12.11-.09,7.95-4.11,17.19,4.31,23.77v18.7c0,5.45-1.09,11.2.29,16.28,1.51,5.59,5.4,10.21,4.6,16.87-.92,7.68.95,15.79-.53,23.29-1.64,8.4,7.11,13.55,5,21.5,3,3.44,5.79,7,9,10.28a36.32,36.32,0,0,0,12.7,8.8c5.32,2.16,9,8.34,13.48,12.66.41.39,1.53.16,2.29,0,3.87-.62,4.78,4.68,7.39,4.44,4.7-.42,6.4,3.79,9.81,4.79,2.85.84,6.1.22,9.05.85,1.27.28,2.17,2.13,3.36,3.14a3.43,3.43,0,0,0,2,.79c3.11.08,6.23,0,9.35,0Zm208-598.64c-8.57,0-17.15-.16-25.72,0-8.92.21-18-1.68-26.33,4.35-2.56,1.85-7.75,1-11.45.12-5.53-1.29-7.62,4.62-12.13,4.81-3.89.16-8.91-1.48-11.44.38a20.81,20.81,0,0,1-12.34,4.54c-5,.22-8.34,6-14.5,4.78-2.09-.41-4.7,3.34-7.39,4.26-9,3.08-16.68,8.64-25.31,12.31-11.53,4.9-20.08,12.6-24.57,24.53-.5,1.33-2.72,2.27-2.79,3.47-.31,5.43-1.08,11.11.1,16.3,1.44,6.34-5.05,9.1-4.94,14.49.11,4.67,0,9.35,0,14v25.72c0,4.68,0,9.35,0,14,0,4.52-1.18,9.46,3.89,12.42-2,3.43-5.08,6.92.56,9.92,1.21,6.73-2.6,14.48,1.88,20.19,5.68,7.25,1.81,14.88,2.95,22.22.36,2.28-.14,4.69.14,7,.16,1.37.7,3.21,1.71,3.87,4.18,2.75,2.54,8.27,6.33,11.64s-1.34,11,5.18,14.06c-.69,5.08,4.75,7.52,5.27,11.81.63,5.23,7.13,8.26,4.94,14.46-.37,1,.48,3.12,1.43,3.94,4.68,4,7.52,9,10.07,14.58,1.5,3.26,4.69,5.5,9.43,5.21,9.32-.55,18.7-.11,28-.2,2.19,0,4.73,1,6.34-1.61,2.56-4.11,6.71-2.72,10.43-3.07,4.41-.42,6.89-4.65,12.07-5,8.61-.66,15.34-7.7,23.74-10.08,6.42-10,18.7-12.77,26.23-21.45,3.56-4.12,7.66-7.76,11.52-11.62,4.41-4.41,9.15-8.54,13.13-13.31,3.83-4.57,9.06-7.58,11.53-13.9,2.08-5.33,7.5-9.46,11.8-13.77,2-2,.83-5.19,2-6.1,5-4,3.85-11.5,9.2-15-2.68-6.77,2.14-11.85,5-16.58,3.25-5.36,4.48-10.76,5.23-16.6,7-5.37,2.75-12.95,3.67-19.49.4-2.85.43-7.33-1.24-8.57-4.15-3.11-2.48-8.47-6.27-11.73-7.07-6.08-13.37-13.06-20-19.7-1.65-1.65-3.26-3.39-5.87-2.75-5.18,1.28-8.12-3.28-12.18-4.42-4.33-1.22-9.28-.15-13.95-.3-9.4-.3-19.06-1.18-20.31,12.12-5,5-9.85,10-14.95,14.81a6,6,0,0,1-4.15,1.09c-7.3-.62-11.81,5.39-18,7.38s-12.64,4.77-17.32,8.56c-5.69,4.61-14.42-.15-18.1,7.51-7.11-1.88-10.93,3.07-16.05,6.62-5.77,4-12.12,8.58-20.24,7.48-3.06-.42-6.23,0-9.34-.08-5.91-.14-13.58-7.29-18.15-12.16-3.84-4.09-2.2-10.84-7.94-13.25-.1-10.87-.28-21.74-.16-32.61,0-.93,2-2.56,3.15-2.64,4.52-.34,9.41.88,12.37-4.1,8.75,1.12,10.43-11.13,19.23-10.22,1,.11,2.25-1.94,3.35-3,3.22-3.14,6.16-5.93,11.2-7,3.91-.86,6.67-6,10.51-8.36,4.27-2.59,10.22-3.06,13.56-6.36,4.19-4.14,10.08-1,12.52-3.49,4-4,10.11-3.25,13.45-7.74.68-.92,2.67-1.14,4.09-1.21,7.42-.39,15.4,1.91,21.44-4.72h39.75c5.22,6.25,12.41,4.51,19.11,4.66,3.9.09,7.87.49,11.67-.11,4.68-.74,5.9,4.07,9.74,5,16.47,3.83,25.89,8.91,34.73,17.7,8.28,8.25,16.43,16.65,24.85,24.75,4,3.85,7.65,7.39,6.61,13.78-.26,1.63,1.73,4.14,3.34,5.46,4.52,3.72,6.59,8.09,5.89,14-.45,3.84-.08,7.78-.08,11.68v21c-6.27,5.21-3,12.9-5.13,19-1.68,4.82-4.75,8.92-4.44,14.6.15,2.71-4.63,3.58-4.56,7.4.08,5.41-5.56,6.95-8.11,10.63-3,4.32,1.65,11.27-5,14.32-.44,4.8-3.21,8.11-6.56,11.35-5.91,5.74-11.94,11.22-15.24,19.38-1.83,4.51-8.11,6.9-8,13.06-5.37,5.23-10.73,10.07-17.71,13.63-5.94,3-10.6,9.14-14.95,14.59-4.91,6.14-14.28,5.79-18,13.13-3.43,6.76-12,6.16-16.28,11.57-5.42-2-7.21,5.24-12.07,4.73-4.2-.45-5.17,4.9-9.75,5-4.1,0-6.87,5.11-11.76,5.37-1.86.1-3.47,3.14-5.45,3.53-4.43.85-10.46-.78-13.22,1.62-4.29,3.73-8.47,2.71-12.85,3.33-.81.12-1.54,1.83-2,2.94-.12.29,1.26,1.64,1.51,1.53,7.66-3.39,12.1,5.39,19.16,4.89,7.75-.55,15.58-.1,23.37-.14,3.08,0,8.07,1,8.91-.47,4-6.74,11.35-2.69,16.43-6.23,9.49-6.6,21.17-9.43,30.55-16.55,1.51-1.14,4.27.42,6.29-1.76,5.29-5.71,11.12-10.92,16.41-16.65s13.1-6.85,18.14-13c6.38-7.81,14.14-14.49,21.31-21.65,1.8-11,12.26-15.14,18.19-22.87.45-.59,1.36-1.27,1.27-1.77-1.47-8.29,9-9.32,9.91-17.13.68-6,6.75-11.21,8.53-17.32,1.26-4.33,7-6.55,5.09-12,5.9-3.29,4.3-9.19,5-14.31,7.67-3.57.92-13.9,8.27-17.62,2.51-7.66,7-14.55,5.66-23.52-1.2-8.4-.26-17.11-.26-25.69,0-6.23-1.27-12.82.33-18.61,2-7.33-6.13-10.48-5-16.87,1.21-7-8-11.46-4.85-19.09.11-.27-.94-1.2-1.58-1.59-4.25-2.6-2.09-8.64-6.52-11.46-3.21-2-5.69-5.29-8.34-8.15-3-3.26-1.92-9-6.62-11.3-1.3-.65-2.52-2.38-3.67-2.29-4.77.38-6.66-3.41-9.23-6-4.94-5-9.55-10.22-17.7-8.3-.4.09-1.23-.93-1.61-1.58-2.55-4.34-7.88-3.58-11.64-6.11s-10.6-.21-15.55-1.75c-7.85-2.44-15.29-5.27-23.86-4.61C654.87,444.24,645.47,443.69,636.12,443.69ZM971.8,701.46c0-14.8,0-29.6,0-44.39,0-.61-.71-1.28-1.21-1.81-1.06-1.13-1.92-.47-3.35,1-2.65,2.81-5.75,5.14-4.78,9.76,1.34,6.33-6.79,9.56-5,16.84,1,4.36-5.24,7-8.36,10.25-3.32,3.43-6.45,6.52-5.36,11.9a5.05,5.05,0,0,1-1.23,4.06c-4.6,4-7.21,9.22-10.11,14.52s-9.67,8.63-11.47,13.94c-2,5.84-6,9-9.93,12.11-5.15,4.07-3.73,11.81-9.72,14.83-4.65,2.35-3.26,8.14-6.57,11.32-5.06,4.85-9.94,9.88-14.9,14.84s-10.72,9.35-14.65,15c-4.27,6.15-12.54,5.74-16.35,11.48-3.65,5.49-11.42,4.21-14.7,9.84-8.38-1.64-10.24,7.65-16.92,10-11.48,4-21.75,11.3-32.94,16.3C772.29,858.59,761.46,866,749,870c-3.62,7.56-14.06.55-17.61,8.25-3.84.15-7.68.21-11.5.47-4.52.3-10.46-.86-13.2,1.54-4.31,3.8-8.71,3.68-12.86,2.86-5.63-1.11-7.35,5.11-12.13,5-6.22-.18-12.46,0-18.69,0s-12.63.9-18.65-.24c-6.86-1.3-10.32,5.82-16.81,5.07-6.15-.71-12.45-.16-18.68-.16s-12.69-1-18.63.27c-7,1.54-11.36-5.27-16.77-4.6-10.3,1.29-18.18-8.26-28.53-5.17-.88.27-2.29-1.71-3.6-2.33-2.6-1.23-5.74-1.72-7.85-3.47-2.46-2-4.89-2.86-7.9-3.73-3.27-.94-6-3.55-9.65-4.88-5.2-1.9-7.64-9.41-14.76-9.5-.56,0-1.1-1-1.65-1.58l-9.92-9.91c-1.1-1.1-3-2.09-3.17-3.32-1.35-9.4-9.15-13.94-15.17-19.33-7.5-6.71-9.77-17.16-18-23-1.56-6.43-4.38-12.84-8.57-17.31-5.24-5.6-5.93-14-12.8-18.34-1.5-.94-2.74-4-2.45-5.79,1.09-6.73-3.3-11.62-7.81-12.46-7.22-1.36-10.48-6.68-14-11-3.08-3.82-3.95-9.59-8.61-12.64-5.36-3.51-6-10.78-10.2-14.23-5.18-4.27-6.73-10.08-9.22-15.15-2.77-5.65-8.09-11-6.45-18.33-4.42-4.6-5-10.5-5.49-16.42-6-3.68-3-9.71-3.94-14.74-1.08-5.69-6-9.82-4.91-16.82,1.33-8.35.31-17.08.31-25.65s-.5-17.17.15-25.69c.61-8-3.83-17.19,4.47-23.8-9.29-8.13-2.62-19-4.83-28.33-5.64-3-2.57-6.48-.56-9.91-3.64-2.45-4-6-4-10.07.19-13.23.13-26.48,0-39.72,0-1-1.67-1.92-2.56-2.89-.55.55-1.56,1.09-1.58,1.66-.24,5.4-.35,10.8-.41,16.21-.06,4.67-.79,9.51.17,14,1.33,6.14-4.26,9.46-4.72,14.47-.58,6.18-.14,12.45-.14,18.68s-.86,12.62.23,18.65c1.23,6.82-5.36,10.38-5.08,16.8.57,13.22.18,26.48.17,39.72,0,2.32.89,5.72-.29,6.78-7.81,7-4.05,16-4.22,24-.48,21.79-.18,43.61-.15,65.42,0,3.06-1,7.57.56,8.94,6.63,5.73,3.4,13,4,19.5.5,5.41.82,11-.07,16.32-1.24,7.34,2.71,12.93,5,19.08,1.31,3.59,6.82,6.73.09,10.27,4.93,2.91,3.58,9.54,7.8,13,2.31,1.89,5.89,4.66,5.72,6.77-.89,10.55,6.9,17.59,10.11,26.36,2.14,5.83,6.59,11.38,8.63,17.42,2.23,6.59,11.27,8.6,10.27,16.79l14.87,14.87c3.31,3.31,7.14,6.24,9.78,10,2.94,4.22,8.81,3.41,11.21,6.67,6.55,8.91,17.47,11.86,24.79,19.59,3,3.17,9,1.93,11.18,6.69,2.57,5.59,9.23,4.15,13.23,8,3.38,3.25,9.19,3.84,13.66,6.13,3.91,2,6.9,5.46,12.15,4.73s8.16,6.53,14.44,4.68c4.65-1.36,6.45,6.08,12.08,4.7,5.3-1.31,9.69,1.33,14.65,4,5.53,3,13.83-1.7,19.87,2.56,7.2,5.06,14.9,2,22.32,2.5,7.75.55,15.57.13,23.36.13s15.66-.72,23.34.19c8,1,14.42-2.63,21.52-4.64a26.5,26.5,0,0,1,13.89,0c6.47,1.86,8.71-5.77,14.5-5.06,3.65.45,9.31.87,10.89-1.16,4.84-6.22,14.6.13,18-8,8.23,3.36,13.32-6,21.45-5.1,4.59.52,8.37-5.89,14.43-4.54,1.46.32,3.4-2.89,5.41-3.46,8.42-2.36,15.9-7,23.55-10.79,8.35-4.12,17.41-7.48,24.79-13.58,7.59,1.09,8.86-7.58,14.76-9.52,5.43-1.78,10.38-5,15.58-7.47,2.6-1.24,5.76-1.69,7.88-3.44,4.18-3.47,7.18-9.45,11.81-11a27.57,27.57,0,0,0,14.22-10.51c3.46-4.91,10.17-3.48,13.09-8.15,3.09-4.91,9.2-4.84,12.92-8.3,7.41-6.89,14.89-13.82,21.42-21.51,7-8.27,18.32-10.67,24.76-19.62,3.14-4.37,7.63-7.76,11.43-11.67,4.3-4.42,10.77-8.32,12.18-13.56,1.65-6.14,6-8.68,9.42-12.48,3.19-3.54,5.58-6.56,5.38-11.93C971.44,729.51,971.8,715.48,971.8,701.46ZM650.71,392.24c12.47,0,24.93-.05,37.4.05,2.18,0,5.69,0,6.32,1.2,3.69,7,12,.46,16.39,6.32,3.59,4.75,12.77-1.39,15.88,6.46A15.48,15.48,0,0,1,741.12,411c6.77-.69,8.82,5.52,12.58,9,3.56,3.27,6.72,6.33,12,5.06,2.81-.67,4.14,1.51,5.72,3.09,9.94,9.89,19.67,20,29.83,29.65,5.58,5.3,8.65,11.91,11.47,18.67,5.57,13.29,15.87,24.88,14.89,40.57,6.6,4.49,1.28,12.6,4.31,16.78,4.64,6.39,4.1,12.71,4.24,19.4.09,4.68,0,9.35,0,14s-.78,9.52.19,14c1.22,5.6-4.9,7.48-4.87,12.13s.85,9.56-.23,14c-1.17,4.79-4.13,9.15-6.32,13.7-10-.11-5.27,4.13-3.05,8.7,1.14,2.33.85,7.5-.73,8.61-4.88,3.41-2.32,10.83-8.06,13.24,1.33,6.44-2.35,11.36-5,16.63-6.24,12.58-11.63,25.55-23,35-6.24,5.19-7.58,14.55-14.46,19.62.86,5.78-4.27,7.77-7.22,11s-1.46,11.38-9.56,9.7c-2.74,3.44-2,8.72-6.56,11.37-3.76,2.21-5.63,6.39-11.08,7.4-4.79.88-4.32,8.43-8.23,12.35-5.47,5.47-13.55,6.26-18.49,12.7-2.78,3.63-8.47,6.08-13.21,6.88s-6.5,6.37-12.1,5.4c-1.79-.31-4,4.5-6.65,6-6.22,3.63-13.29,6-19,10.23-5,3.69-12.82-.69-16.12,6.39l-18.54.36c-5.17,6.45-12.46,4.19-19.1,4.7s-14-2.54-19.23,4.55c-.51.69-3.75.6-4.34-.17-5.3-7-12.5-4-19.11-3.88-.56,0-1.35.95-1.56,1.61-.12.39.58,1.3,1.12,1.59,6.37,3.39,14.13,4.11,19.24,10,6.68.31,11.4,8,19,5,4.31,7.68,15,1.82,19.72,9.21.69,1.09,4.34.25,5.93-2s2.89-2.36,5-.28c1.43,1.37,4.92,2.87,5.79,2.18,4.39-3.49,8.95-5.47,14.59-4.47,3.71-4.92,9.77-3.33,14.17-5.25,4.07-1.79,7.47-4.16,12.33-4.26,5.16-.1,6.72-5.9,10.57-8.22,1.79-1.08,5.08-.51,6.1-1.87,2.6-3.49,6.95-2.79,9.7-5,4.25-3.35,7.2-8.85,11.83-11.1,5.55-2.7,10-6.26,14.56-10.09s6.59-11.11,14.34-10.37l26.15-26.31c-.88-6.82,5-9.48,8.86-12.53,5.12-4.07,4.2-11.28,9.67-14.91,8.43-5.59,10-16.88,18.23-22.77-1.17-8.76,11.23-10.44,10-19.23,7.81-10.58,12.23-23,18.52-34.42,6.6-12,11.42-25,18.89-36.55-1.63-5.26,6-7,4.66-12.08-2.13-8.14,4.07-13.94,5.73-21,7-3.9.18-14.23,8.26-17.61l.06-9.32c0-1.56-.6-4.1.09-4.53,9.4-5.79-.27-18.74,9.27-24.31l.48-18.5c6.66-4.35,3.82-11.12,4.11-17,.35-7-1.09-14.28.39-21,1.72-7.78-7.08-12.2-4.84-19.12,2.48-7.7-7-11.77-4.89-19.16,1-3.7-4.48-5.34-4.22-7.39,1.1-8.54-8.11-10.11-10.19-17-3.73-12.43-18.29-14.35-26.8-22.6-2.07-2-7.15.65-10.53-2.65-2.47-2.41-6.68-3-9.4-5.21-4.77-3.95-13.1,1.53-16.09-6.41-5.45,0-11.09-.88-16.31.22-6.86,1.44-10.32-5.68-16.82-5.07-7.72.72-15.64-.49-23.34.35-7.94.88-14.46-2.26-21.53-4.6-4.22-1.4-9.27-.26-13.94-.26H695c-5.46,0-10.91,0-16.36,0-4.52,0-9.46-1.17-12.41,3.89-3.43-2-6.92-5.09-9.91.56l-18.61.21c-4.21,6.48-10.93,5.31-16.73,4.47-8.09-1.19-13.13,7.73-21.4,5.48-1.12-.3-3.23,3-4.88,4.69L593,394.5c1.18.81,2.27,2.1,3.54,2.31,2.27.38,5.7,1.11,6.82-.06,5.6-5.86,12.57-4.42,19.27-4.49C632,392.17,641.37,392.24,650.71,392.24Zm29,692.19h105.1q12.84,0,25.67-.06c6.61-8.3,15.77-4,23.79-4.35,4.55-.19,6.33-4.09,9.76-4.78,4.45-.88,9.15-.55,13.74-.74,3.14-6.35,10.21-2.1,14.18-5.11,4.91-3.73,8.5-9.23,13.44-12.91,7-5.21,7.6-14.6,14.54-20,3-2.34,4.51-7.53,6-11.33,3.77-9.53,9-18.11,13.85-27,1.33-2.44.55-5.89,3.43-7.93,3.24-2.29,1.18-7,4.84-9.76,8.52-6.49,9.42-18,15.54-26.19.56-.76-.13-3.12-1-4.07a5.39,5.39,0,0,0-4-1.34c-1.33.09-2.59,1.16-3.88,1.82-5.26,2.7-10.3,5.38-14.8,9.67-5.4,5.15-13.25,1.3-19.86,2.58-1.94.38-3.53,4.06-5.21,4-6.28-.18-9.92,5.79-16.65,5.69-5.29-.07-10.13,6.11-16.76,4.24-1.39-.39-4-.41-4.38.26-3.5,7.11-12,1.8-16.06,6.57-4.31,5-12.63-.53-16.15,6.48-.38.74-2.86.8-4.28.59-10-1.46-18.16,8-28.46,4.81-.41-.13-1.31.7-1.74,1.27-4,5.43-9.9,2.62-15,3.34s-8.21,6.06-14.46,4.92c-5.76-1-12.33-1.47-16.7,4.43-6.81-2.85-11.11,5.06-16.71,4.4-9.48-1.12-17.37,3.89-26.14,4.79-5.33.55-8.16,5.9-14.44,5.31-4.36-.4-9.22,3.51-13.69,5.82-1.92,1-2.88,3.69-5.75,3.08-5-1.07-8.21,2.46-12.25,4.28-3.88,1.75-9.19.64-13.83.29-3.55-.26-5.33,2.11-7.9,3.67-6.8,4.14-14.94,5.15-22.17,8.42-.66.3-1,1.4-1.68,1.55-1.45.35-3,.28-4.49.49-4.34.61-8.9-1.46-13,2.73-4.21,4.35-10.3,1-15.45,2a3.14,3.14,0,0,0-1.7,1.46c-3.26,5.11-8.63,3.75-12.67,2.89-6.3-1.35-8,6.7-14.54,5.33-4.73-1-11-2.89-15.37,1.71-5.18,5.48-13.33-.62-17,3.55-4.5,5.08-8.13-1.66-10,.43-4.61,5-10,2.87-15.14,3.2-5.42.36-10.9,0-16.33.22-.67,0-1.42,1.88-1.79,3-.1.31,1,1.48,1.58,1.48q30.38.12,60.73.07c3.11,0,7.67-1.32,9.1.23,7.86,8.56,17.66,4,26.33,4.19C606.54,1084.78,643.14,1084.43,679.73,1084.43ZM981.15,427.68c0-10.91-.71-21.88.26-32.71.61-6.71-2.92-11.29-4.79-16.83-1.62-4.78-6.86-8.32-5-14.42.31-1-.83-3.18-1.87-3.72-6.7-3.52-6.11-12-11.51-16.36-.31-7.94-7.44-11-11.57-16.24-7.85-.44-11.14-7.29-16.25-11.58-.45-.38-14.73-7.67-15.49-7.74-2.93-.31-5.59-.33-8.6-1.88-5.09-2.6-9.68-7.57-15.56-7.25-6.49.36-11.37-2.31-16.88-4.69-4.58-2-10.56,1.9-15.12-3.14-3.6-4-8.79-1.31-13.24-1.67-5.42-.43-10.9-.1-16.36-.1-10.91,0-21.82-.14-32.72.08-3.37.07-6-.51-8-3.32a4.47,4.47,0,0,0-6.15-1c-3,2.62-5.7,4.18-10,4.44-16.54,1-33.37-3.26-49.67,4.14-5.17,2.35-12.3.37-18.54.37-6.85,7-15.64,4.24-23.78,4.64-3.88.19-8.24,1.15-11.59-.2-7.35-2.94-10.52,5.78-16.87,5-2.07-.25-5.52.09-6.23,1.35-2.34,4.16-7.68,1.67-9.69,4.93-.92,1.5-.43,4.24.15,6.19s1.83,1.39,3.25-.4c2.82-3.55,6.13-4.24,9.58-.65.54.56,1.22,1.64,1.63,1.55,1.13-.26,3.1-1.09,3.06-1.54-.41-4.78,1.12-7.18,6.36-6.93,6.22.29,12.47.07,18.7.07s12.54.58,18.68-.16c6.53-.8,11.3,2.86,16.89,4.47,5.76,1.65,12.37.24,18.6.4,5.94.16,12.59-2,16.77,4.62,1.66-1.46,4-4.48,4.84-4.1,2.58,1.13,3.87,4.47,7.65,4.2,4.65-.33,9.62-1,13.95.18,4.83,1.35,8.72,4.73,14.49,4.85,3.77.07,6.9,5.49,12.11,4.29,5-1.15,6.84,6.74,12.05,4.56,6.39-2.67,8.26,7.46,14.45,4.76,7,6.82,16.9,8.37,24.7,13.86,4,2.83,10.79,2.76,13.54,6.21,7.81,9.82,20.59,13.1,28.11,22.91,5.21,6.81,12.85,9.94,20.37,12.92,2.38,1,4.49,1.57,4.35,4-.21,3.76,2.41,5.43,4.49,7.54,7.68,7.75,15.42,15.44,23.13,23.16l9.92,9.91c-2.12,5.46,5.15,7.2,4.73,12.1-.32,3.67,3.13,5.14,5.27,7.08a11.41,11.41,0,0,1,4.12,10.09,29.14,29.14,0,0,0,.86,9c.52,2,1.8,1.58,3.26-.23,2.34-2.91,5.46-4.84,5.29-9.59C980.86,452.63,981.15,440.15,981.15,427.68ZM401.47,466.21c.65,2.29-2.05,6.44,1.5,9.66,1.72,1.57,3.21,4.48,5,4.64,2.23.2,3.14-2.8,2.55-5-1.81-6.82,6-10.1,5.86-16.38,0-1.65,1.85-1.35,3.19.5s4.29,3.68,4.64.56c.91-8.32-.83-17,8.4-22.48,2.77-1.65,2.06-6.53,4.8-9.67,3-3.42,7.46-1.63,9.91-4.72,1.84-2.33,4.42-4.5,5.17-7.17,1.63-5.78,4.61-9.25,10.75-9.95,1.23-.14,3.16-1.49,3.33-2.51,1.7-10.52,9.79-14.3,18.21-17.81,3.3-6.82,11.44-6.67,16.39-11.41,4.75-4.56,10.62-8,16.12-11.7,6-4.07,12.78-6.77,19.31-9.81,5.23-2.44,10.39-5.13,15.45-7.76,5.76-3,11.53-6.08,17.34-9,5.24-2.65,10.15-6.6,16.7-4.82,3.46-7.89,12.38-2.82,18-7.81,5-4.39,12.61-7.2,20.24-7.14.36,0,1.14-1.17,1-1.55-.23-.66-1-1.58-1.57-1.61-4.61-.26-10-1.88-13.64-.06-3.83,1.92-7.81,3.8-11.64,5.84-1.31.7-2.23,2.88-3.41,2.95-5.44.33-11-.37-16.34.3-5,.61-8.35,5.83-14.48,4.72-5.89-1.06-12.22-1-16.73,4.48-8.63-1.6-14.93,6.45-23.37,5.66-6.15,5.34-14.08,7.44-21,11.42a126.18,126.18,0,0,1-23.57,10.68c-3.55,1.16-6.76,2.62-10.09,3.9-4.41,1.71-8.17,3.55-11.08,7.09a8.46,8.46,0,0,1-8,3.43c-2.13-.2-4.39-.73-6.4,1.44-11.17,12.1-25.47,21.8-29.7,39.16-6.51,4.57-1.12,12.66-4.18,16.83a21.06,21.06,0,0,0-4,17C407.34,454.92,400,458.53,401.47,466.21ZM1023.24,617.5h.53c0,13.17,0,26.34.07,39.51,0,.56,1,1.39,1.61,1.55.41.11,1.15-.71,1.61-1.24,2.45-2.77,6.54-4.67,5.51-9.38-1.41-6.47,1.77-11.48,4.61-16.82,2.74-5.14,6.83-10.07,4.83-16.73-.42-1.43-.69-4,0-4.51,7.3-5,3.57-12.7,4.84-19.13,7.39-5,3.35-12.72,4.41-19.21.24-1.47-.19-3.74.63-4.33,6.44-4.61,3.13-11.32,4.1-17.1,1.87-11.06-4.6-23.12,3.94-33.46.25-.3-1.26-2.15-2.06-3.2-3.12-4.1-3.31-8.88-.36-12.5,2.46-3,3.2-4.4-.11-6.88-1-.71-1.37-2.62-1.39-4-.14-7-.67-14.09.09-21,.86-7.89-2.11-14.45-4.55-21.55-1.67-4.86-.64-10.66-.82-16-5.63-2.48-3-9.93-8-13.25-1.53-1-.37-5.8-.89-8.79-.18-1-1.68-1.87-2.69-2.66a17.3,17.3,0,0,0-1.59,1.57c-5.76,5.69-7.4,9.85-3,15.74,3.34,4.48,4.14,9.87,2,12.56-3.22,4.1-3.83,7.84-4.09,12.51-.5,8.85,2.6,18.13-4.29,26.36-1.91,2.3-.73,7.62-.1,11.42.32,1.94,3.13,3.38,3.77,5.38s.61,5.22-.52,6.1c-5.5,4.25-2.92,10-3.38,15.06-.54,5.92,1.75,12.4-4.58,17-.85.62-1,4.43,1.46,6.17,1.22.84,2.91,2.22,2.93,3.37.13,10.87,0,21.74-.14,32.61-7.49,5.95-3.76,14.25-4.28,21.55C1022.82,601.89,1023.24,609.71,1023.24,617.5ZM1056,722a8.09,8.09,0,0,0-1.83-1.74c-.37-.18-1.12.23-1.6.52-8.22,4.88-9.39,15.39-16.5,21-6.72,5.27-9.48,11.53-8.22,20,.56,3.79.09,7.74.09,11.61-5.91,3.56-3.74,6.68.4,9.93,2.45,1.92-1.4,2,1.65,1.48,1-.17,2.31-1.8,2.52-2.93.54-3-.61-7,1-8.81,4-4.54,5.8-10.15,8.27-15.3s7.49-9.83,4.89-16.55c5.36-3.49,3.9-11.23,9.26-14.87C1056.6,725.77,1056,723.34,1056,722ZM658.48,368.89l3.89-1.62a20.29,20.29,0,0,0-1.71-3.15,31.69,31.69,0,0,0-3.15-3.2,19.17,19.17,0,0,0-1.58-1.24c-.72,1.2-1.93,2.34-2.07,3.6C653.5,366.54,654.46,369.12,658.48,368.89ZM414.57,730.65,412.9,729a15.36,15.36,0,0,0-1.46,3.14c-.08.38.95,1,1.46,1.54Zm556.55-82.84-1.66-3c-.52.52-1.55,1.15-1.46,1.53a14.37,14.37,0,0,0,1.46,3.14ZM378.5,370.52l1.67,3c.52-.52,1.54-1.15,1.46-1.53a14.85,14.85,0,0,0-1.46-3.14ZM825.15,135.69l-3,1.66c.52.52,1.15,1.55,1.53,1.46a14.37,14.37,0,0,0,3.14-1.46Zm-172.06-7-1.66-3c-.52.52-1.55,1.15-1.46,1.53a14.37,14.37,0,0,0,1.46,3.14Z"/><path d="M430,216.18l1.66-1.66a14.37,14.37,0,0,1,1.46,3.14c.09.38-.94,1-1.46,1.54Z"/><path d="M441.64,213.84l-3-1.66c.52-.52,1.15-1.55,1.54-1.46a14.37,14.37,0,0,1,3.14,1.46Z"/><path d="M539.92,283.93c-1.4.25-2.88.9-4.18.63s-2.39-1.45-3.57-2.23c1.18-.78,2.28-2,3.57-2.22a8.84,8.84,0,0,1,4.17.68c.63.21,1.08,1,1.61,1.54C541,282.87,540.46,283.4,539.92,283.93Z"/><path d="M512.72,291c0,.53.12,1.21-.15,1.57-1.74,2.34-6.39,2.27-7.69-.11a1.76,1.76,0,0,1,.11-1.55C506.73,288.51,511.35,288.6,512.72,291Z"/><path d="M490,300.8c-1.77,3-4.5,3-7.36,2.13-.61-.19-1.55-1.31-1.47-1.44.67-1,1.42-2.48,2.37-2.66a28.24,28.24,0,0,1,6.5,0A4.13,4.13,0,0,1,490,300.8Z"/><path d="M476,308.06h-9.35c-.34-4.39,2.67-4.94,5.81-4.59C474.83,303.73,476.57,305.21,476,308.06Z"/><path d="M466.69,312.73h-9.35c-.52-2.54,1.05-4.06,3.05-4.56s4.19-.11,6.3-.11Z"/><path d="M457.34,317.41H448c-.51-2.54,1-4.06,3-4.57s4.2-.11,6.31-.11Z"/><path d="M448,322.09h-9.35c-.52-2.54,1.05-4.07,3.05-4.57s4.19-.11,6.3-.11Z"/><path d="M492.79,294.41c.55.54,1.54,1.3,1.45,1.48a9.41,9.41,0,0,1-2.13,2.75c-.41.35-1.34.06-2,.06,0-.69-.28-1.61.06-2A17,17,0,0,1,492.79,294.41Z"/><path d="M518.81,286.34l1.66-1.67a14.89,14.89,0,0,1,1.47,3.14c.08.39-1,1-1.47,1.54Z"/></svg>