<svg id="Layer_1" data-name="Layer 1" xmlns="http://www.w3.org/2000/svg" viewBox="0 0 1200 1200"><title>BB_Artboard 99</title><path d="M530.71,895.43c0,3.63,1.53,9.16-.24,10.57-13.16,10.52-16.25,28.84-30.49,38.35-13.14,8.77-18.28,24.08-28.35,35.3-9.67,10.78-20.85,20.2-30.46,31-6,6.75-7.12,16.8-15.38,22.71-6.79,4.85-12.13,11.73-18.11,17.71.95,11.67-9.5,15.66-15.48,22.55-5.53,6.37-11.92,12-17.83,18-5.16,5.3-4.45,11.24,1.68,14,3.05,1.37,6.41,2.07,9.41,3.52,10.77,5.2,11.54,5.4,22.2-.14,11.18-5.8,21.91-11.15,35.48-11.27,8.34-.07,15.84-10,26-6.52,9.65,3.32,12.74-11.12,22.19-7.8,4.46-7.45,11.67-7,19-6.83,4.58.1,9.81,1.5,13-3.44,5.46-8.39,17,1,22.22-7.67,6.65-10.93,17.23-11,28.25-10.72,4.5.12,11.48.22,13.14-2.36,6.36-9.88,18.58-.23,25.73-9.55,4.16-5.42,13.74-8.86,21-9.1,8-.27,12.5-6.6,18.78-7.4,8.26-1.06,12.69-11.14,22.37-7.87,5.57,1.89,8.78-3.36,11.4-6.93,4.91-6.68,11.22-7.31,18.76-7.81,5.18-.34,9.91-5.23,15.22-6.61,4.52-1.17,9.74.45,14.38-.48,3.1-.63,6.16-3.15,8.48-5.55,9.19-9.48,20.44-14.19,33.29-16.12a16.48,16.48,0,0,0,8.91-4.44c5.93-6.24,11.55-12.35,21.36-9.91,12.29-7.94,27.61-10.7,38.3-21,5.36-5.15,12.45-6.26,17.46-10.36,7.21-5.89,18.57-4.85,23-15C890.07,903.64,903,904,910.7,896.67c6.52-6.16,10.37-17,22.36-15.86.78.08,2.54-1.59,2.47-2.33-1-11.13,9.77-10.24,14.91-15.12,16.65-15.79,33.68-31.41,48.42-48.9,7.69-9.11,12.3-21.49,17-32.65,3.4-8,.28-18.85.06-28.43-10.6-8.26-5.72-23.91-17.53-33-13.72-10.55-24.71-24.56-43-28-7.09-11.69-21.43-13.47-30.68-22.5a61.29,61.29,0,0,0-20-12.67c-5.23-2.07-11.75-1-17.68-1-2.17,0-4.33,1.12-6.5,1.73.51,1.71.5,3.91,1.6,5,9.25,9.53,18.42,19.19,28.21,28.16,7,6.45,11.54,14.08,15.64,22.57,2.14,4.42,5.51,8.42,2,12.36-3.68,4.15-6.55,10.26-13.92,9.87-9.33-.51-18.47,1.25-25.84-8.16-8.14-10.38-21-17.63-27.22-28.8-6.47-11.68-15.15-20.52-23.69-30-3.79-4.2-2-10.93-7.56-15.15-5.89-4.49-17.56-7.12-22.35-2.5-7.83,7.56-15.15,15.64-23.2,22.94-5.88,5.33-14.38,6.11-20.27,12.65-8.6,9.57-11.31,23.57-22.85,30.46-9.6,5.73-21.94,8.37-29.27,16-8.85,9.21-18.11,10-28.92,9.73,5.14-12.74,17.34-19.28,25.69-29.21,4.56-5.42,4.62-9.24-1-15q-11.45-11.62-23.07-23.07c-7.29-7.18-12.16-7.07-24.77-.3-6,3.2-13.57,3.48-17.51,10.28-3.28,5.66-10.65,4.79-14.63,8-9.91,8.13-23.94,8.94-32.41,17.91C587,720.59,573.34,721,567.17,732a5.23,5.23,0,0,1-2.54,2.51c-8.71,2.37-18.37.14-25.14,10.06-5.7,8.37-19.16,8.35-24.8,18.21-9.11,1.33-15.26,9.84-24.75,10.26-9.23,10.94-21,17.71-34.86,20.86-8.49,11.73-24,14.2-33.21,25.13-1.91,2.26-6.2,2.37-9.13,3.94-6.94,3.71-15.06,6.45-20.24,11.92-6,6.31-14.37,7.71-20.12,12.81a109.73,109.73,0,0,1-22.77,15.37c-6.93,3.61-16.07,4.43-20.18,12.53-3.71,7.32-12.36,4.85-18,9.73s-13.34,8.47-20,12.67c-8.9,5.59-16.59,12.48-25.15,18-6.07,4-16.13-.53-22,8.09-4,5.87-9.77,10.71-15.23,15.45-11.22,9.77-25.87,13.47-38.51,20.84-5.91,3.44-17.59-2.83-21.2-9.45-2.65-4.87-1.62-15.79,2.92-19.5,6.2-5.07,9.32-13.47,19.33-14.84,4.89-.67,9.22-6.86,13.4-11,12.94-12.7,25.65-25.63,38.52-38.39,7.67-7.62,15.5-15.08,23.25-22.61,12,1.1,15.39-10.18,22.22-16.11,7.74-6.73,16.93-12.91,18.49-24.91.36-2.84,4.6-5.41,7.39-7.69,17.57-14.28,17.55-14.27,27.82-35,1-2.05,3.76-3.21,4.95-5.23,2.37-4,1.09-5.31-5-5.32-5.84,0-11.56-1-16.28,4.71-5.48,6.65-15.89-1.14-22.58,7.39-3.44,4.4-11.56,6.69-17.6,9.11s-12.67,1.67-19.41,6c-9.1,5.9-19.89,11.17-32.42,9.25-8-1.22-12.62,9.81-22.42,7.33-6.81-1.73-14.41-.29-21.67-.35-5.42,0-10.69-11-7.43-16.25,2.44-3.94,5.31-8,9-10.7,9-6.49,12.87-16.44,17.5-25.52,3.7-7.27,6.48-14.53,13-20s12.06-11.84,18.05-17.82c-1.45-10.34,7.69-14,12.89-20s-2.56-17,5.23-19,15.32-5.48,16.72-11.11c3.54-14.2,14.67-21.42,24-29.86,10.08-9.17,7.34-19.69,5.81-29.7-1.44-9.4-16.44-13.1-26.94-7.76-14,7.11-28.45,13.41-42,21.05-10.79,6.09-22.57,10.22-32.82,17.3-5.53,3.81-13.43,3.54-17.65,9.85-9.6-.16-19.24,0-28.76-.91-1.35-.14-4-7.74-2.88-8.87,7.14-7.37,13.1-15.19,23.63-20.05,13-6,27.06-11.45,38.5-20.93,13.38,1.21,16-17.64,29.65-15.94.73-4.53,1.87-9,2.1-13.59.36-7.08-5-7.27-9.78-6.6-6.89,1-12.5-1.76-15-7.24-4.6-10.14-13.13-18.87-11.55-31.55.88-7.14,1.71-14.92-.21-21.63-2.86-10,10.27-13.28,7.66-22.48-2.54-8.95,5.28-12.46,9.76-17.68,1.54-1.79,4.63-3.69,4.48-5.29-2.38-24.12,21.3-29.88,31.6-45,.18-.27,3.4,1.12,4.78,2.25.6.49.1,2.3.1,3.51l-12.87,23.67c-4.27,4.27-10.41,7.82-12.41,13-3.64,9.36-12.46,16.54-11.16,28.12.94,8.35.18,16.89.18,25.35,0,.61,9.5,24.39,9.94,24.89,9.41,10.68,24.29,12,35.05,20.46,6.3,5,13.86,1.66,20.81,2.06,5,.29,13.57-8.77,13.89-14,.36-6,0-12.08.19-18.12,0-.91,1.4-1.81,2.2-2.67s2.23-1.58,2.48-2.59c2.17-8.79,8.23-15.74,10.82-24.59,2.14-7.32,16.11-10,12.79-19.55C339,451.2,331,445.89,325.27,439.83c-3.31-3.52-7.06-6.65-10.12-10.36-1.31-1.6-2.61-5.27-1.8-6.22,7.75-9.15,6.22-25.67,22.26-28.22,6.82-1.09,10.31-8.62,18.36-8.74,3.36,0,7.72-5.84,9.66-10,2.26-4.77-1.59-8.55-4.94-12.3-2-2.24-1-7.25-3-9.38s-8.45-3.75-9.07-2.88c-5.77,8.24-18.23,5.6-23.2,14.77-1.1,2-3.18,3.65-5.07,5.14-5.75,4.56-14.06-1.76-19.76,5-3.67,4.37-8.7,7.74-13.57,10.86-1.24.8-4.18-1-6.34-1.66a36.31,36.31,0,0,1,1.7-5.1c.5-1,1.64-1.74,2.49-2.59,8.55-8.55,16.05-18.69,26-25.14A127.59,127.59,0,0,1,335.86,340c8.5-3,16.39-7.57,24.31-11.27,10.21-4.77,17.69-15.38,25.23-22.44-8.58-12-15.74-22.53-23.37-32.66-6.92-9.19-17.46-14.9-21.15-27.6-2.07-7.12-11.87-11.69-17.09-18.27-6.38-8.06-18.83-11.9-18.1-25.08-6-6.92-15.18-11.74-15.38-22.63-7.11-2.84-13.26-5.25-15.62-14.77-1.49-6-9.29-10.75-14.77-15.47-7.23-6.25-11.67-14-15.51-22.63-5.62-12.68-5.86-16.16,2.51-24.83,2.51-2.61,5.45-4.89,7.61-7.75,4.49-6,12.76-6.24,16.11-3.65,11.69,9,24.58,6.22,37.24,6.79,8.07.36,17.1-2.58,22.77,6.46.08.12,2.12-.47,2.37-1.08.85-2.07,2.5-5.09,1.69-6.35-4.91-7.59-5.49-18.21-13.54-23.26s-5.75-15.4-12.72-20.23c-3.09-2.15-3.54-4.12,0-5.1,14.62-4,29-18.33,44.35-1.43,9.64-3.91,12.55,11.61,22.2,7.69,9.12,12.78,26.26,15.46,35.47,28.18,4.53,6.25,10.37,9.76,18.48,7.9,1.15-.26,3.33-.39,3.49,0,4.8,12.24,17.33,4.36,25.15,9.76,8.18,5.65,17.58,9.68,27,13.31,3.09,1.18,5,5.16,7.81,7.43,11.55,9.32,25.69,13.83,38.91,19.85,6.06,2.77,10,10.5,18.26,8.39,4.52,7.58,11.91,6.63,19.07,6.53a4.61,4.61,0,0,1,3.08,1.2c6.4,6.86,14,11.45,22.37,15.92,7.8,4.17,16.31,7.29,23.55,14.15A76.63,76.63,0,0,0,653,205.73c13.55,2.84,28.37-.38,42.64-.95,3.78-6.12,9.78-6.11,15.83-5.49,7.57.77,10.29-10.58,18.75-7.3s11.22-8.55,18.74-7.17c7.93,1.44,12.75-3.82,18.9-7,11.28-5.93,23.55-9.94,36.71-7.42,3.14.6,8,2,8.59,4,1.25,4.42,2.18,11.1-.22,14-7.65,9.18-16.87,17-25.49,25.41-11.79-5.42-18.75,9-29.63,7.24-14.35-2.28-25.44,12.75-40.62,7.64-1.79-.6-5.51,3.78-8,6.19-5.86,5.6-6.25,10-1,14.85,9.32,8.69,21.87,12.58,30.71,22.75,7.34,8.45,13,20.78,27.23,21.31,1.8.07,3.36,3.23,5.25,4.67,8.84,6.68,6.13,23.88,22,24.13,7.89,7.2,15.94,14.24,23.64,21.64,8.72,8.37,16.44,17.92,25.87,25.35,9.66,7.63,13.71,18.77,19.71,28.38,3.53,5.65,5.61,12.27,10.76,17.23,2.37,2.29,5.7,6.13,5.15,8.46-2.67,11.48,10.85,18.36,7.79,29.76-.45,1.67,1.09,4.65,2.62,6,10,8.59,13.12,21.11,19.41,31.82,5.71,9.71,8.55,21.5,18.8,28.7,5.64,4,3.63,12,1.68,16.61s-8.1,9.1-13.25,10.45c-6.79,1.78-14.39.44-21.64.44-8.46,0-17.84-2.29-25.12.64s-12.29,11.1-18.38,16.89-9.33,6.32-14.82.64c-11.46-11.85-29-16-38.13-30.66-5.68-.49-11.43-1.66-17-1.21-3.19.26-3.64,3.62-1,4.77,6.83,3,2.82,11.55,7.72,14.94,12.08,8.35,13.21,25,25.6,32.94,2.81,1.8,6,4.31,9,4.35,15.51.18,22.92,10.21,27.9,22.66,1.47,3.69,3,5.1,6.49,6.75,18.22,8.63,35.74,19.58,54.28,26.44,18.11,6.69,35.58,13.6,51.74,24,9-2.07,11.94,6.31,17.58,10.13,4.6,3.12,10.58,4.44,14.7,8a105.36,105.36,0,0,0,19.91,13.23c12.86,6.85,19.33,21.37,24.18,40.28,2.23,8.71,8.6,15.48,7.92,26.08-.53,8.2-9.1,11.36-7.88,18.67,1.36,8.2-1.93,13.78-8,18.53-8.44,6.62-8.07,19-17.74,25.5-7.89,5.27-14.65,12.76-20.53,20.34-7.5,9.67-18.61,13.64-27.85,20.5-8.29,6.16-13.61,15.46-25.14,18.43-6,1.56-11.26,9-15.31,14.91-4.56,6.61-13.59,3.08-17.94,10-3.75,5.93-10,8.68-17.15,10.88S879.24,938.4,869,939.68c-5.76.73-10.59,8.93-15.83,13.77-9.41-3.61-12.63,11.52-22.44,7.39a8.23,8.23,0,0,0-6.83.63c-7.38,5.31-11.25,14.36-23.35,14.46-8.08.08-15.82,7.88-24.21,10.82s-14.87,10.81-24.68,10.47c-4.9,11.52-17,4.78-25,9.81-7.36,4.62-15,11.83-24,11.24-10.18-.66-15.43,10.31-26.13,8.24-4.41-.85-9.8,5.72-15.06,6.36-7.21.89-10.15,10.48-18.74,7.7-9.09-3-12.8,10.4-22,7.91-3.59,7.25-12.76,4.9-17.52,10.23-5.78,6.47-13.68,1.8-20.24,3.69-5.29,1.53-10,6.33-15.2,6.68-7.49.5-10.2,10.63-18.75,7.73-7-2.39-10.13,5-15.23,6.76-5.43,1.83-12.79-1.45-17.81.82-9.16,4.13-19.68,6.53-26.33,15.32-2.91,3.85-6.47,7.24-12,6-10-2.27-18.07,2.24-26,7.28-10.38-3.71-16.2,8.9-26,7.26-4.39,7.23-11.35,7-18.71,7.62-5.22.47-9.94,5.84-15.21,6.51-6.08.78-11.8.67-15.59,6.37-9.85-1.24-14.6,11.24-25.55,8.82-7.92-1.76-12.7,10.27-22.41,7.27-2.27-.7-5.8,2.91-8.82,4.39-2,1-4.1,2.29-6.21,2.41-7.25.41-11-6.06-13.26-10.5s-1.15-11.89,1.3-16.55,7.3-7.91,13.85-9.69c8.38-2.28,16.22-8.12,23-13.9,3.94-3.33,4.27-11.72,8.33-13.88,3.7-2,8.19-2.59,12.14-5.69,8.66-6.78,11.46-17.3,17.95-25.27,6.08-7.45,13.51-13.8,20.35-20.64q11.53-11.54,23.06-23.08c.8-.82,1.86-1.74,2.06-2.75,4.64-23.78,24.6-36.13,38.63-53,6.49-7.81,10.12-17.92,18.18-25s15.3-15.46,23.24-22.88c4.5-4.2,5.73-9.59,8.16-14.76C513.57,898.57,520.73,892.85,530.71,895.43ZM479.35,428.27a25.76,25.76,0,0,0-3.49-4.12,2.17,2.17,0,0,0-3.07,3.06,14.73,14.73,0,0,0,4.27,3.3c.27.14,1.45-1.4-4.36-6.46.18-5-2.24-7.43-10.51-7.31.77.46,3.11.11,3.11.06.16-3.37.57-6.83-.05-10.09-.28-1.47-2.57-2.64-4.13-3.67a5,5,0,0,0-2.23,2.29c-1.39,4.43-1.31,8.66,6.55,11.47C465.26,421.82,467.68,424.24,479.35,428.27ZM411.45,250c1.07,0,2.57.42,3.11-.12a3.16,3.16,0,0,0,0-3.06c-1.68-2.38-3.75-5.36-6.3-1-.34.58,2,2.75,28.14,21.26,1.37-8.9-6.34-12.24-11.21-16.79-1.93-1.8-7-.52-10.54-.16-1.15.12,1,12.85,2.52,13.18,5.7,1.21,11.4,2.24,14.86,7.71C433.53,269.72,435,268.41,411.45,250ZM258.22,757.64c6,0,12.22.94,18-.27,5.28-1.12,10-6.29,15.11-6.57,7.53-.4,12.68-3.91,19-6.92,6.86-3.27,16.52-.29,24.88-1,3-.25,5.61-3.69,8.69-5,11.35-4.72,22.8-9.2,32.82-16.55,14.31,2.63,25.65-1.92,33.88-14,8.44,2.88,11.18-8.11,18.43-7.66,4.45.28,7.08-1.88,7.3-5.59a238.77,238.77,0,0,0,0-25.24c-.09-1.89-2.23-5.12-3.67-5.27-5.95-.6-12-.32-18-.23-7.22.1-10-9.08-18.7-7.64-9.3,1.53-19.58,2-28.52-.49-8.33-2.26-15.23-9.38-23.2-13.51-6.87-3.56-14.67-5.38-21.46-9.06-3.69-2-5.41-7.06-10.46-1.3-7.11,8.12-15.22,15.37-22.8,23.09-6.68,6.81-16.57,12.76-19,20.89C267,687,256.93,691.39,251.29,700c-1.77,2.71-1.49,7-3.55,9.25-7.73,8.56-9,21.3-19.32,28.29-4,2.69-3.15,8.12.66,12.09,4,4.18,7.38,9.31,14.73,8.13C248.5,757,253.41,757.64,258.22,757.64Zm207,3.85a11.46,11.46,0,0,0-2.14-2.52c-5.93-3.9-14.16,2-19.71-5.05-4.31-5.45-12-6-17.85-9.54S408.59,740,402,745.55c-7.14,6-15.1,10.34-22.54,15.53-10.71,7.49-20.13,17.51-28.22,27.9-8.33,10.69-22,12.69-30.85,22.59-16.12,17.92-33.85,34.41-51,51.44-4.19,4.16-10.24,8.57-6.07,14.75,4.4,6.52,10.43,3.77,14.55-1.6,2.87-3.73,6.52-2,9.9-2.48s7,1.23,9.87-2.51c8.06-10.49,20.67-13.62,31.67-19.52,9.91-5.31,20.18-9.74,30.08-14.78s20.14-10.56,28.65-19c5.84-5.82,16.86-6.07,24.05-11,7.82-5.39,13.88-13.33,20.71-20.16,8.45,3.29,11.15-7.68,18.73-7.38,10.61.42,3.79-12.68,11.1-15.28C463.66,763.62,464.37,762.35,465.22,761.49Zm196.09-109.6c-.31-2.81.29-5.9-1-7.28-6.48-7.08-13.83-13.39-20.12-20.62-5.18-6-7.17,1.24-10.34,1.43-12.56.77-22.33,5.43-29.9,15.49-.93,1.24-5.24-.38-6.67.84-12.13,10.42-27.76,14.6-40.88,23.88-13.49,9.54-25,20.7-37.44,31.12-6,5-4.53,12.92-9.88,17.75-6.24,5.62-12,11.82-17.91,17.76,3,11.15-6.32,9.9-12.19,12.51-1.4.62-2,3.93-2.23,6.08-.56,4.34,2.06,6.69,6.05,6.69,5.69,0,12.77,2.34,16.1-4.24,5.41-10.68,18.73-8.83,25.57-17.23,1.75-2.14,6.69-1.37,9.34-3.15,8.58-5.77,13.19-15.67,24.5-19.35,10.31-3.36,15.75-18.12,30.29-14.19,1.24.33,4.25-2.56,5-4.53,4.22-10.24,17.38-7.19,22.53-15.28,4.85-7.62,13.3-9.09,20.28-12.21,8.1-3.62,14.73-10.45,24.15-11.43C658.4,655.75,659.92,653.15,661.31,651.89ZM424.89,641.61h7.21c9.61,0,20.54,2.88,28.49-.75,9.21-4.2,15.82-14.13,23.54-21.57.87-.83,1.76-1.65,2.55-2.55,2.95-3.44.16-11.57-4.39-11.11-8.9.91-15.07-4.06-22.47-7-6.21-2.48-14.37.43-21.37-.78-6.44-1.12-12.5-6.6-18.67-6.52-9.84.14-17.56-3.12-26-7.47-19.84-10.27-20.07-9.71-38.68,4.78-1.66,1.29-4.3,1.24-6.23,2.28-6.55,3.52-9.2,14.44-5,19.86,10.32,13.17,24.73,19.93,39.93,25.43,6,8.79,15.14,4.64,23,5.32C412.83,642,418.88,641.61,424.89,641.61ZM812.7,467.47c9.44,3.07,14.77-6.34,22.6-7,7.26-.59,10.48-6.3,13.5-10.66,4.22-6.1-3.18-9.94-5.57-14.9-1.88-3.9-1.69-8.56-5.48-12.25-17.3-16.83-34.74-33.59-51-51.37-5.29-5.77-14-3.06-17.76-10-1.8-3.34-3.34-3.32-5.15,0-3.75,6.9-13,3.53-17.75,10-4.42,6.07-7.86,18.42-2.54,22.16,14,9.87,18.39,27.1,30.57,38.19,3.39,13.36,14.62,20.72,22.9,30.41C801.57,467.52,806.83,468.14,812.7,467.47ZM508.88,257.26c2.6,0,5,.06,7.41,0,5.79-.17,6.38-2.23,7.37-9.36,1.47-10.49-5.72-14.77-12.32-19.51-2.6-1.87-9-2.58-8.93-3.44.82-10.35-8.29-13.77-13.17-20-8.53-10.9-23-17.17-25.49-32.76-11.91-11.91-23.95-23.7-35.67-35.8-4.18-4.33-9-1.88-13.5-2.28-4.94-.43-9.6,5.72-7,9.17,4.17,5.52,6.13,12,9.3,17.82,2.75,5.06,7.64,9.53,12.58,12.72,6.77,4.36,5.46,12.61,10.11,17.6,5.73,6.16,12.4,11.52,17.67,18,5.68,7,16.7,10.59,15.46,22.42,5.94,6,12.31,11.56,17.72,18C495.53,255.88,501.41,258.4,508.88,257.26ZM352.53,525.58c7.52.2,18.31,1.21,25.35-10,1.51-2.4,6.39-4.93,8.7-4.2,9.71,3.06,14-7.65,22.4-7.77,6.74-.1,5.11-6.1,5.87-10.65,1.23-7.35-3.1-11.54-7.92-14.78-9.27-6.23-20.16-9.59-29.68-15.48-1-.61-1.9-2.39-2.6-2.27-3.3.58-7.39.68-9.61,2.7-8,7.26-17.37,14.12-22.29,23.26-4.69,8.71-7.79,18.39-13.46,26.9-4.23,6.35-1.15,12.17,5.58,12.26C339.69,525.64,344.51,525.58,352.53,525.58ZM305.86,130.31c5.56,5.56,10.21,13.6,16.89,16,8.18,3,13.61,8.07,19.85,13.17,7.19,5.9,10.87,16,21.29,18S377,191.34,385.47,195c9.93,4.25,17.72,10.52,25,18a4.16,4.16,0,0,0,3.24.67,30.43,30.43,0,0,0,6.42-1.85,2.71,2.71,0,0,0,1-2.41c-4.11-6.72-8.47-13.29-12.59-20-4.76-7.76-14.81-10.6-16.34-22.25-1.05-8.07-13.77-11.26-14.81-22.67-.57-6.34-24.41-17.68-31.64-17.74q-18-.15-36,.08C308.83,126.84,308,128.34,305.86,130.31Zm322.75,134.2c12.13,12.13,20.34,20.82,29.07,28.94,9.38,8.71,17.21,18.37,22.86,29.94,1.35,2.77,5.14,6,8,6.1,13.1.65,26.25.43,39.37.14,1.94-.05,3.83-2.15,6.41-3.7-10.33-10.09-21.68-19.13-30.39-30.24-9-11.48-23.47-14.67-32.84-25-3.14-3.46-6.16-6.68-11.76-6.32C651.12,264.9,642.9,264.51,628.61,264.51ZM443,540.09c-6.38,0-11.21-.38-15.92.18-1.86.23-4.91,2.6-4.89,4,0,3.21,1.09,8.82,2.65,9.15,5.89,1.27,11,2.94,14.73,8,4.53,6.17,10.29,9.62,18.3,7.79,1.13-.26,3.13-.5,3.46,0,6.95,11.23,21.76,4.42,30.53,13.92,4.75,5.13,19.67-2.12,23.56-10,1.19-2.41.22-7-1.4-9.49-5.87-9.18-17.42-10-25.42-16.25C471.84,551.8,458.39,534.57,443,540.09Zm229.63-14.51c-7.22,0-14.46-.29-21.64.23-1.53.11-4.37,3.61-4,4.78,1.89,6.37,4.91,12.4,6.91,18.75,1.94,6.16,8.83,3.43,10.91,5.84,9,10.52,16.17,7.62,22.79-1.74,3.84-5.43,10.13-5,14.77-7.9,1.91-1.2,3.07-7.76,1.73-9.15-4.64-4.83-7.86-12.44-17-10.94C682.39,526.21,677.48,525.58,672.66,525.58Zm92.46,108.78c-12,.1-21.28,3.63-33.84,13.57-1.94,1.54-6.79,3.39-1.89,7.58,4.54,3.87,8.37,8.57,12.81,12.57,5.22,4.72,16.76,2.74,22.09-2.37,6.86-6.59,7.3-16.35,12.86-23.52,1.85-2.38-1.72-7.61-4.85-7.8C769.92,634.24,767.52,634.36,765.12,634.36ZM733.64,482.07a53.53,53.53,0,0,1,7.3.06c4.45.61,7-2,7.07-5.54,0-3-2.2-8.54-3.53-8.57-5.13-.13-8.81-1.51-12.23-5.42-4.66-5.35-10.71-9.61-14.83-15.31-5.77-8-16.65-7.42-22.5-14.82a2.62,2.62,0,0,0-2.35.29c-1,2-2.75,4.55-2.13,6.08a97.39,97.39,0,0,0,24.88,36.1C721,480.17,726.33,483.1,733.64,482.07ZM878.8,500.9c.06-11.31,0-11.41-9.1-11.56-5.9-.1-11.84.43-17.68-.12-8.77-.83-11.8,6.6-16.42,11.28-1.22,1.23.26,7.31,2.3,9.05,3.15,2.68,8.56,2.68,11.74,5.34,5.49,4.59,9.67,4.59,14.92-.16,2.26-2.05,5.91-2.7,9-3.61C879.68,509.35,879.05,504.64,878.8,500.9Zm-133.55,90c1.21,0,2.42,0,3.62,0,5.73-.13,5.88-1.28,2.24-8.15-2.09-3.92-2.54-9.15-5.46-12.06s-8-3.72-12.11-5.37a37.84,37.84,0,0,0-4.91-1.63c-3,7.6-14.79,2.1-16.35,10.65-.51,2.81,2.15,8.88,3.37,8.88,8.5,0,16.5-.12,22.56,7.51C739.14,591.86,742.83,590.85,745.25,590.85Zm-105.39-279c-10.2-10.15-20-20.07-30.07-29.81a10.46,10.46,0,0,0-5.85-2.87c-2-.17-4.81.55-6.13,1.95s-2.47,5.12-1.64,6.13c6.65,8.09,13.77,15.79,20.78,23.58C623.78,318.45,631.22,317,639.86,311.88Zm93.9,304.35c-4.84-4.84-10-9.45-14.46-14.61-4.83-5.55-11-3.14-16.59-3.3-1.7-.05-4.26,2.2-5,4-.82,2-1,5.47.26,6.84a147.69,147.69,0,0,0,17.9,17.65c1.59,1.26,6.64-.73,9.41-2.37C728.29,622.64,730.49,619.51,733.76,616.23ZM625,375.4c-.35-2.27.07-5.22-1.21-6.68a118.7,118.7,0,0,0-15.4-15.26c-2.16-1.69-6.55-1.58-9.58-.87-3.82.9-4.22,8.77-.41,12.09,6.17,5.37,10.09,13.6,18.79,15.69,1.84.45,4.3-1.05,6.27-2.06C624.25,377.9,624.49,376.4,625,375.4ZM523.44,344.28l7.06-3.42c-2.34-2.48-4.57-5.1-7.08-7.41-1.61-1.46-3.52-3.09-5.53-3.49a8.62,8.62,0,0,0-6.36,1.19c-1.47,1.17-2,3.77-2.52,5.86-1,4.31,1.78,6.35,5.35,7.18C516.59,344.7,519,344.28,523.44,344.28Zm-54.15,377.1c2.34,0,5.81,1,6.8-.2a14.66,14.66,0,0,0,3.6-8.84c0-3.51-2.54-5.7-7-5.59-7.11.18-8.81,7-13.5,10,1,1.56,1.71,3.95,3.1,4.47C464.39,722,467,721.38,469.29,721.38ZM598,213.74c-7.46,0-10.28,3.27-9.22,8.93.68,3.63,2.58,6,7.1,5.68,5.47-.43,8.63-3.46,7.1-9C602.29,216.83,599.16,215,598,213.74Zm-14.79,116c-1.17,0-2.52-.38-3.47.08a49.46,49.46,0,0,0-5.54,3.55c1.84,1.2,3.8,3.56,5.48,3.37,3.09-.34,6-2.17,9-3.37C586.9,332.19,585.06,331,583.23,329.78Zm-24.56-96.86-2.58-4.67c-.8.81-2.4,1.79-2.26,2.39a22.94,22.94,0,0,0,2.26,4.86Z"/><path d="M677.91,751.87c-6.9,5.47-9.49,12.22-9.94,21.35-.32,6.61-7,10.51-14,13.74-24.83,11.56-24.56,12.06-44.24,40.11a8.13,8.13,0,0,1-5.86,2.93c-6.33-.06-8.14,3.26-8,8.81a4.9,4.9,0,0,1-1,3.16c-4.85,5.48-11.26,2.1-16.92,2.49-4.13.29-3.37-3.83,2.65-9.86,19.56-19.6,39.29-39,58.64-58.83,5.8-5.93,11.74-10.59,19.93-13.17,2.72-.86,3.09-8,5.39-11.74,1.84-3,4.56-6.17,7.64-7.44s7.11-.28,10.72-.28c-.85,2.06-1.56,4.18-2.6,6.14A12.65,12.65,0,0,1,677.91,751.87Z"/><path d="M563.54,853c.73.82,3.31,2.41,3.21,3.82-.38,5.51,2.39,11.52-2.87,16.41-7.73,7.18-14.76,15.14-22.81,21.91-2.06,1.74-8.21,1.64-10-.13s-1.9-8.09-.14-9.95C541.41,874,552.62,863.62,563.54,853Z"/></svg>