<svg id="Layer_1" data-name="Layer 1" xmlns="http://www.w3.org/2000/svg" viewBox="0 0 1200 1200"><title>BB_Artboard 57</title><path d="M661.74,549.54c-1.28-6.41,4.75-9.78,2.54-15.82,3.73-4.58,3.79-11.2,8.55-15.22,3.62-3,6.84-6.33,5.54-11.77a5,5,0,0,1,2.79-5.78c7.07-3.36,5.5-12.41,11.26-16.5-.93-8.71,11.37-10.38,10.23-19.2,5.28-4.42,4.87-12.86,11.58-16.32,2.7-1.39.56-5,1.81-6.16,5.08-4.69,4.75-12.9,11.36-16.61,1.47-.83,2.67-4,2.37-5.81-.93-5.64,3-8.24,5.92-11.75s7.84-5.18,8.37-10.57c.58-6,8.72-7.46,9-12.54s5-7.1,5.55-12c.42-3.74,3-9.09,5.67-11.34,6.17-5.13,7-13.54,13-18.26,6.74-5.3,9.53-13.16,13.69-20.14,3.74-6.25,4.85-14,11.11-18.83a5.06,5.06,0,0,0,1.63-1.66c2.27-5.31,3.71-11.15,6.86-15.86,3.28-4.89,7.41-8.91,10.12-14.58,3.41-7.12,5.64-15.47,11.41-20.94s7.27-12.87,12.63-18.55c5.7-6,7.86-15.3,12-22.92,3.13-5.76,4.57-12.49,9.93-17,7-6,6.25-16.58,13.27-22.6-1.7-5.36,5-7.26,4.9-12s4.4-6,6.75-8.89c5.15-6.32,5.07-15.46,11.54-21-1.74-6,6.92-8.26,5.13-14.28,5.2-2.8,3.73-9.67,8.08-13.08,3.61-2.84,5.17-6.88,7.07-11.1,2.09-4.66,8.95-7.25,10.85-11.91,4-9.75,12-15.51,18.53-22.78,7.84,0,15.82,1,23.41-.3,6.48-1.09,8.25,7.59,14.41,5.25,0,0,6.78,15.9,6.78,15.93,0,3.91-.16,7.82,0,11.72.58,11.94.35,14.11-2.06,18.71-5,9.62-9.36,19.69-15.17,28.81-3,4.72.7,10.4-4.46,14.81-3.47,3-4.43,8.9-6.48,13.52s-6.39,8.58-4.7,14.46c-5.39,10.24-10.75,20.51-16,30.85-2.22,4.4-4.46,9.23-7,13.61-3.17,5.45-4.76,10.44-12.18,11.12-2.81.26-1.73,3.25.25,4.69,2.24,1.62,3,4.62,1.9,6.07-5.38,7.06-8.88,15.27-12.22,23.12-3.08,7.22-4.52,15.23-8.69,22.18-1.86,3.1-3,6.7-5.11,9.56-2.31,3.1-5.48,5.55-8.17,8.38s-7.83,15.81-7.79,20.16c0,4-.44,7.25-3.71,10.28-5.49,5.09-12.79,9.37-10.69,19.1.29,1.32-2.77,3.39-4.32,5.07s-4.88,3.88-4.54,5c2.36,7.72-3.85,12.71-5.68,19-1.59,5.42-5.9,10-8.61,15.15-3.36,6.4-6.11,13.11-9.5,19.49-3.06,5.76-5.5,11.83-9,17.45-1.39,2.25-1.76,5.44-4.05,7.64-3,2.85-8.2,5.62-1.36,9.91-1.7,3.09-5.69,5.15-4.31,9.61-5.63,3.38-4.29,11.15-9.38,14.86.54,6.19-7.81,9.74-4.94,16.91.43,1.07-2.35,3.55-3.81,5.24-2.45,2.81-6.57,4.85-5.25,9.5,1.06,3.7,5.63,1.81,7.43,3.61,5.49,5.5,13.8,5.46,19.29,10,8.92,7.39,16.84,16,24.69,23.62-.65,3.33-6.29,3.5-2.49,7.72,7.3,8.1,11,16.25,11.81,27.83.35,4.85,6.31,6.52,5.07,12.15-1,4.47-.2,9.33-.2,14,6.6,4.2,4.47,10.84,4.68,16.81.13,3.88-1.11,8.44.54,11.45,1.75,3.22,4.58,5.77,4.7,9.84,0,.57,1,1.11,1.59,1.66.85-1.06,2.28-2,2.46-3.2.93-5.8-2.41-12.6,4.15-17.05.22-6.16-.4-12.51.94-18.41.86-3.75,6.31-6.82-.21-10.28,9.2-9.13,3.11-20.57,4.33-30.86.57-4.86,2.48-8.27,4.59-12.28,1.31-2.49,2.56-5.18,3.79-7.78.68-1.44-3.23-4.55-3.21-6.89.06-5.84-2.58-12.51,4-17.17.8-.57,0-4.2-.84-6.1-2-4.6-2.09-4.49-.12-6.67s4.3-4.19,5.45-6.73c.43-.94-2.06-3.2-3.22-4.86,5.06-2.95,4.89-8.17,3.71-12.36-1.82-6.46,6.06-8.6,5.07-14.55-.75-4.56-.15-9.35-.15-14,7.79-6.72,4.46-15.78,4.46-23.84,0-6.36,6.46-10,5.14-16.84-1-5.24-.11-10.85,0-16.3,7.47-3.15,2.86-11.09,6.4-16.15,3.37-4.82,5.16-10.62,10.09-14.56,4.65-3.71,7.77-9.57,14.7-9.86,3.15-5,5.24-1.82,8.46.36,2.15,1.46,6.34,1.32,9,.32,6.5-2.4,8.28,7.58,14.58,5.08.24-.1,2.43,2.75,2.1,3.49-3.3,7.14,5.56,10.59,5,16.88-.06.67,1.82,1.52,2.8,2.29.58-1.32,1.14-2.65,1.76-4,1.55-3.26,3.64-6.38,4.53-9.81.76-2.93-.39-6.34.32-9.3.63-2.6,3.47-4.77,3.78-7.32.2-1.56-3.5-3.35-3.75-5.26-.6-4.61-.25-9.35-.16-14,0-1.47,0-3.84.76-4.25,6.38-3.36,1.55-10.78,5.11-14.27,3.07-3,2.72-6.85,4.74-9.88,3.57-5.37,7-5.73,13-3.41s10.79,7.65,18.19,7.19c5.18-.33,8.34,4.06,9.52,8.34,1.54,5.61-2.28,12.61,4.51,16.91-.85,1.1-1.5,2.48-2.58,3.25-2.44,1.73-2.5,5.44-1.56,6.15,5.2,4,4.61,9.25,4.57,14.67-.12,14.06.08,28.12-.13,42.18-.06,3.45,1.21,5.63,3.38,8.09,1.17,1.32,1.66,5.39.83,6-6.45,4.7-3.89,11.33-4,17.19-.06,4.38,3.83,3.82,6.89,3.72.78,0,1.56,0-7,32.8-9.39,36.7-9.61,40.61-9.22,44.46.09.93,2.13,2.13,3.44,2.39,5.82,1.16,10.39-1,14-5.68,1-1.35,1.14-2.79-.92-3.21-3-.61-6.23.13-9.17-.55-2.36-.54-3.22-3-2.78-5.46s1.68-4.32,4.57-3.74a22.67,22.67,0,0,1,4,1.55c1.59.66,2,4.36,5,1.33,5.57-5.52,6.81-9.39,3.71-16-4.11-8.79-4.08-8.66-.1-16,2-3.68,2.58-8.1,5.72-11.23-6.68-4.34-3.54-11.11-4.2-16.94-.32-2.81-.11-2.32-6.41.13-4.26,1.65-9.1,1.43-7.78,8.25a24.63,24.63,0,0,1-.23,9.21c-.39,2-1.9,2-3.2,1.06-3.63-2.62-5.18-8-10.57-8.18-1.31,0-2.65,1-4,1.58,3,4.24,5,8.73,4.08,14.13a2.28,2.28,0,0,0,1.17,1.77,15.86,15.86,0,0,0,4.17,1.16c2.25.3,4.89-.31,6.73.66,3.42,1.81,1.55,5.53,1.9,8.43.19,1.54,0,3.12,0,4.67.29,4.19-2.2,4.95-5.68,5.15-1.28.08-3.45,1.35-3.54,2.25-.4,3.85-.17,7.76,9.21-21.15,10.13-35.78,7.27-36.63,6.12-38.49a10.2,10.2,0,0,1-1.39-4.09c-.47-4.15,5.44-5.09,4.79-9.78-.53-3.73,0-7.67.56-11.44.12-.78,2.4-1.6,3.76-1.78,5.14-.68,8.35-7.12,14.44-4.75l15.27,8.37c2.33,1.9,4.41,4.72,7.07,5.46,3.19.89,5.73,1,5.71,5.25-.11,19.51,0,39,0,58.54,0,6.77-7.23,11.58-5.28,19,.07.29-2.41,1.25-3.72,1.88a104.17,104.17,0,0,1-10.85,4.69c1.09.73,1.88,0,1-2.17a2.83,2.83,0,0,0-1.41-1.55,8.56,8.56,0,0,0-4-.86c-1.26.16-2.39,1.19-3.58,1.84.81.91,1.46,2.27,2.47,2.63,1.29.46,2.87.11,5.42.11,1.79,3.34-.77,7.23,4.7,9.57,10.35,4.42,12.84,10.75,10,21.42-5.87,3.6-4,9.43-4.16,14.64-.13,4.67,0,9.36,0,14-.06,5.25-.42,5.51-7,6s-6.93.73-7,6.07c-.06,4.67-.17,9.36.11,14,.06,1.09,1.61,2.08,2.48,3.11a38,38,0,0,0,2-3.83c.27-.67-.26-1.77.12-2.27a9.94,9.94,0,0,1,2.85-2.42c.15-.1,1.52,1,1.52,1.56.15,13.23.12,26.47.29,39.7.06,4.21-2.23,5.06-5.73,5.08a40,40,0,0,0-6.72.72c-.63.12-1.54,1-1.54,1.59a2.31,2.31,0,0,0,1.55,1.59c4.65.8,8.22,1.39,7.93,8.16-.69,16.35-.2,32.75-.23,49.12,0,4.18-.52,4.33-5.12,1.66-5.78-3.36-6.27-3.28-8.9,3.79-.87,2.33-1.77,4.22-5.78,3.69-.35,0,.62.27,1-.08a2,2,0,0,0,0-2c-1.09-1.54-2.43-3.47-4.08-.64-.22.37,1.31,1.77,3.08,2.7,1.6,1.33,2,3.71,2.73,3.83,5.19.88,10.46,1.24,15.69,1.89a1.92,1.92,0,0,1,1,1.56c-.23.67-1.06,1.66-1.56,1.61-6-.52-7.57,2.92-8.15,8.07-.26,2.22-1.77,1.93-3.28.37-1.09-1.12-2.5-5.15-4.7-1.34-.86,1.5-.33,4.41.57,6.17a14.49,14.49,0,0,0,4.87,5c4,2.69,3.08,6.63,3.3,10.43.17,3-1.34,4.28-3.83,4.58-2.31.29-4.73-.21-7,.19-1.11.19-2,1.65-3,2.53.55.56,1.07,1.53,1.66,1.59,3.06.28,6.22,0,9.21.52,6.54,1.26,7.71-2.69,8.24-7.69a2.38,2.38,0,0,1,1.61-1.56c.45-.08,1.57.87,1.57,1.36,0,9.59,4.66,19.67-3.07,28.64-.6.7,3.68,4.57,3.73,7,.37,15.62.09,31.26.28,46.89,0,2.83-2,3.89-3.1,5.79-2.85,5.07-3.26,10,1.61,14.39.93.85,1.77,3.24,1.27,4a32.76,32.76,0,0,0-5.4,16.63c-.2,2.69-3.9,1.42-6.08,1.82-.63.11-1.7,1.17-1.6,1.48.37,1.12,1.21,3,1.77,3,5.6-.33,10.66,0,14.41,5.23,1.22,1.71,2,2.15.29,3.44-4.87,3.76-4.3,7.34,0,11.43,1.31,1.24,1.33,4.18,1.37,6.36.15,7.81.27,15.63,0,23.44-.14,3.53,1.6,5.53,3.67,7.94,2.28,2.67.84,5.18-1.05,8-4.06,6.09-3.86,12.56,0,19,4.67,7.74,8.59,15.74,6.87,25.3-1.26,7,7.07,11.24,5,19.24-1.7,6.6-.08,14-.44,21-.23,4.39,5.65,5.12,4.93,9.81-.44,2.8-1.19,6.16,1.85,8.56,1.13.89,2.51,2.31,2.57,3.55.28,5.45-.54,11,.34,16.37.68,4.14,5.46,6.79,4.65,12.18s-1.16,11.16.11,16.32c1.17,4.76,4.78,8.91,7.27,13.36a14.67,14.67,0,0,1,1.78,3.94c.91,4.42-2.12,9.76,1.68,13.28,3.5,3.23,2,7.18,3.29,10.46a118.54,118.54,0,0,0,9,17.42c5,8.34,4.49,8.67-1.06,14.24-2.76,2.77-5.67,5.4-8.24,8.33-1.77,2-3.85,2.07-6.18,2.18-5.32.27-10.63.72-16,1.09-5,6.58-9,3.45-13-1.15-5.57-6.43-14.06-7.65-21.12-11.34-5.65-2.95-11-6.64-17.94-7.84-6.35-1.09-12.14-5.38-19.24-4.29-4.82.75-6.5-6-12.16-4.91-4.13.8-9.38,2.07-12.73-3-.62-.94-2.64-1.27-4-1.33-3.9-.17-7.88.41-11.71-.15-11.07-1.6-23,4.19-33.42-4.38-1.86-1.54-6.07-.22-9.2-.22-29.7,0-59.41.56-89.08-.26-12.64-.36-26.15,4.71-38-4.28-1.5-1.12-4.61.1-6.92-.19-13.4-1.67-27.69,4.21-40.26-4.65H756.48c-8.35,8.63-19,3.19-28.54,4.68-3.26.51-5.75-.5-8.19-3-3.68-3.75-5.42,4-6.28,2.51-5-8.34-8.44,1.84-13,.72s-9.32-.24-14-.24c-7.65,7.65-17.4,3.44-26.17,4.83-5.7.91-9.93,6.23-16.89,4.81-6-1.23-12.46-.26-18.71-.26s-12.54.43-18.75-.11c-7.08-.62-11.27,7.36-19.25,5.12-5.8-1.63-12.42-.32-18.67-.32h-61c-1.56,0-3.73-.64-4.58.15-14.19,13.08-25-1.12-36.31-5.32-7.29-2.7-14.13-9-13.25-19.38.2-2.33-3.25-4.79-4.31-7.46-.91-2.29.57-5.46,2.72-5.31,7.74.56,6.58-4.57,6.52-9.12-.06-3.74-2.61-5.83-5.59-5.21-3.7.77-5.11,5.87-9.77,4.79-4.2-1-7,1.4-10.12,4-2.49,2.07-5.3-.08-7.95-2.08-4.74-3.57-10.25-4-14.14,1.25-3.41,4.64-9,5.1-13,8.3s-7.05,7.81-13,8.36c-1.93.18-4.24,3.78-5.41,3.33-7.13-2.73-10.52,6.09-16.92,5-1.51-.27-3.94-.69-4.54.07-3.26,4.11-7.75,6.23-12.17,4.35-6-2.54-12.46-4.52-17.1-9.79-2.56-2.91-.61-7.54-4.8-9.9-2.48-1.39-3.88-4.6-6.81-.67a5.72,5.72,0,0,1-3.88,1.75c-3.89.23-7.81.08-11.71.08-5.48,0-11.12.84-16.36-.27-4.14-.88-6.25,9.3-10.74,1.47-5.3-.4-10.66-1.47-15.9-1.06-9.6.75-20.06-3.52-28.65,4.43-.67.62-3.46.17-4.18-.7-4.7-5.63-8.48-4.65-13.28.26-2.13,2.18-5.88.47-7.77-2.42-1.32-2-2-2-3.42-.19s-2.83,3.29-5.68,3.26c-18-.18-36-.41-53.92.08-6.42.18-9.72-8.1-16.92-5.1-1.11.46-3.64-2.17-5.35-3.57-5.6-4.58-9.66-9.84-8-17.8a18.17,18.17,0,0,0,0-7c-1.08-5.38,2-8.5,5.3-12,3.91-4,7.51-7.49,13.86-6.45,3.77.61,8.44,1.23,11.43-.44,3.21-1.78,5.86-4.2,9.83-4.77,2.2-.31,2-1.85.45-3.23s-3.43-2.72-3.37-5.65c.24-11.71.1-23.44.09-35.16,0-9.86-.28-9.59-11.27-20.79-4.64-4.73-10.36-8.31-12.69-15.83-1.63-5.3-8-9.17-12.32-13.59-4.92-5-9.93-10-14.91-14.94.68-5.46-3.47-8.11-6.63-11.31-5.51-5.55-11.07-11-16.54-16.62a2.47,2.47,0,0,1-.63-2c1.64-5.91-2.86-9.76-4.72-14.49-2.15-5.43-6.93-10.1-4.74-16.81s-2.2-11.46-4.67-16.81c-4.65-10.1-4.67-10.1-4.68-16.81,0-8.6.68-17.27-.17-25.78-1.2-11.88,4.52-24.57-4.31-35.75-1.52-1.93-.22-6.09-.22-9.21,0-18.76-.17-37.52.1-56.27.09-5.85-2.11-12.06,3.66-17.4,2-1.87.9-7.32.9-11.14q.09-37.51,0-75c0-4.68,0-8.82,4.13-12.51,2.23-2,.52-5.84-2.36-7.74-2-1.31-2-2-.24-3.42s3.43-2.79,3.29-5.68a122.11,122.11,0,0,1,0-18.74c1.1-10.34-4-21.66,4.57-30.89,0-10.16-.5-20.35.18-30.47.44-6.55-3.37-14,3.36-19.81.44-.38-3.29-4.41-3.37-6.8-.37-11.71-.72-23.48.17-35.14.27-3.55,6.29-6.78-.25-10.24,9.42-5.65-.2-18.56,9.2-24.36.56-.35.35-3.5-.48-4.23-3.13-2.78-4.89-5.86-4.11-10.09.94-5.12-2.26-10.73,2.35-15.47,4.43-4.56-5.09-6.53-2.46-11.19.67-1.18-.25-3.17.18-4.61.84-2.85,4.81-3.6,4.7-7.46-.26-8.58,0-17.19-.23-25.78,0-1.15-1.91-2.39-3.13-3.31-1.67-1.26-1.47-2.05.42-3.41a6,6,0,0,0,2.9-5.82c-.4-3.89-6.28-5.26-4.63-9.73,1-2.69,3.48-4.83,4.44-7.53.74-2.08,1.15-5.65,0-6.81-6.45-6.38-4.2-14.26-4.48-21.68-.21-5.46,1.46-11.57-.5-16.21-1.72-4.06-4.49-7.31-4.36-12.32.36-14.06,0-28.14.21-42.2,0-2.9-1.76-6.57,1.57-8.65,4.33-2.71,1.81-9.07,6.57-11.42,2-1,4.17-3.66,5.53-3.23,9.25,2.89,9.13-5.14,12.26-9.64,1.12-1.6,2.26-2.52,1-3.35C85.1,175,88.1,169,87.32,164s1.87-10.5-2.86-15.32c-4.14-4.23-1.36-10.33-1.74-15.57-.38-5.45.24-11-.18-16.4-.39-5,2.47-8.29,4.28-12.36,1.71-3.86,2-6.13,6.88-6.8,2.87-.39,6.24-3.47,6.88-7.51-4.92-3.1-2.77-5.73.55-8.28-.8-9.88,9-8.09,13.64-11.67,2.46-1.88,7.59,0,11.46-.41,4.31-.44,7.29,1.19,10,4.33a62.89,62.89,0,0,0,8.3,8.26c3.48,2.76,4.23,6.17,3.79,10.21a13.06,13.06,0,0,0,0,2.34c.37,5.31-1.06,11.95,1.59,15.6,3.26,4.48,1.12,9.84,3.45,12.64,3.93,4.72,5.58,9.5,4.14,14.71-1.78,6.41,7.11,8,5.15,14.6-1.27,4.24,0,9.22.05,13.86,7.27,5.12,4.17,12.78,4.12,19.29,0,5.75,2.42,9.84,4.78,14.56,2.94,5.87,6.42,11.84,4.91,19.08-1.36,6.57,2.66,14-2.94,19.85-1.54,1.61-2.23,2.53-.34,3.35,4.43,1.91,2.55,6.72,4.81,9.81,5.31,7.29,8.93,15.35,7.87,24.87-.43,3.86.2,7.83-.15,11.7-.32,3.64,2.31,5.31,3.88,7.85,2.45,4,1.18,5.79-4.09,7.72-1.36.5-2.62,1.23-3.92,1.85.85.94,1.61,2.54,2.59,2.69,2.26.35,5.54-.12,5.9,2.32.52,3.56,2.19,7.91-1.12,10.93-4.53,4.14-4.71,8.17.31,11.28,7.65,4.74,5.92,12,5.82,18.74-.06,3.74-6.15,5.26-4.49,9.74,1,2.69,3.72,4.82,4.41,7.52.9,3.54-.71,7.48,3,10.58,4,3.39,2.1,6.86-1.3,9.52-1.75,1.38-1.74,2.09.25,3.41,2.89,1.9,3.7,4.71,2.53,8-2.27,6.27-2.41,6.37-.26,8.28,3.5,3.1,7.33,6.09.8,10,.51,3.67-2.06,8.09,1.49,10.93a8.86,8.86,0,0,1,2.84,10.44c-2.05,5.54-5.59,10.27-4.64,16.92.87,6.13.18,12.48.18,18.73a7,7,0,0,1,0,2.33c-2.42,6.16,4.9,9,4.8,14.49a102.85,102.85,0,0,0,.8,16.09c.27,1.94,2.95,3.44,3.69,5.46a4.11,4.11,0,0,1-2.69,5.46c-2.08.64-5.26-.5-6,2.13-.84,2.87-1.76,7.33-.29,8.94,4.08,4.44,4.05,9.31,4.82,14.65.48,3.38,8.6,7-2,7.36-.89,0-1.74,1.75-2.61,2.68,3.57,2.24,3,7.8,5.2,9.34,9.33,6.5,8.83,15.47,8.49,24.89-.14,4-2.06,4.86-5.61,5.35-2.9.39-5.36,5.32-3.73,6.62,4.16,3.34,4.66,7.39,4.72,12.27.06,5.1-2.33,11,3.38,15,1.52,8.18,3.23,16.2-2.45,23.88-1.54,2.08-2,6.56-.84,8.74,3.79,6.84,8.64,13.11.09,19.82.89,1.11,1.58,2.51,2.71,3.25,2,1.34,2,2,.09,3.44-3.46,2.66-5.14,6.18-1.16,9.53,3.68,3.09,3,7,2.54,10.62-.33,2.5-3.2,4.69-3.43,7.15-.15,1.68,2.41,3.54,3.56,5.43a2.49,2.49,0,0,1,0,2.27c-2.74,3.47-6.16,6.58-.1,10.47,1.06.68.39,4.47.11,6.79-.87,7.3,3.11,15.62-4.54,21.63-.69.54-.27,3,.22,4.43,4.61,13.06,4.69,13.06.47,27.06-1,3.14,5,3.6,2.66,6.54-2,2.48-3.72,4.5-3.58,8,.13,3.23.6,5.76,3.09,8.2,3.83,3.72-4,4.92-2.49,6.36,7.58,7.2,3.15,16.11,4.11,24.17.72,6.11.45,12.33.75,18.5,0,.58,1,1.42,1.61,1.55.44.09,1.53-.81,1.57-1.33.54-6.68,7.77-11.08,5.72-18.87-1.64-6.27,4-10.8,6.35-16,1.43-3.22,2-4-.29-7-3.39-4.5-1.29-10.3-1.21-15.57,7.24-5.12,4.58-12.87,4.07-19.27-.76-9.7,2.71-17.63,7.69-25.06,2.73-4.07,2.67-6.9-.88-9.71-1.82-1.43-2-2-.42-3.43s3.54-2.68,3.39-5.64c-.33-6.23,0-12.5-.16-18.75-.08-2.93,1.37-4.38,3.88-4.53,6.37-.37,5.9-2.29,2-6.22-1.12-1.15-1-4.27-.38-6.15s3.58-3.54,3.72-5.42c.61-8.19.05-16,4.42-24.08,3.76-6.95-2.21-16.32,3.1-24.49,4.85-7.48,2.48-16.74,1.59-24.85-.72-6.53,7.34-8.05,5.39-14.59-1.29-4.31-.25-9.31-.25-14,0-5.47-.44-11,.13-16.4.53-5,6.09-8.35,4.75-14.52-1-4.48-.33-9.35-.09-14,.06-1.32,1.36-2.53,1.91-3.87,3.22-7.89,3.55-11.68,2.76-23.14-.43-6.22.08-12.5-.12-18.75-.16-4.78,0-9.05,4.41-12.4,1.06-.81,1.14-4.35-1.14-6.17a31.31,31.31,0,0,1-3.11-3.29c7.86-5.84,3.84-14.26,4.45-21.56.58-7-.13-14.07.2-21.09.31-6.62,6.3-11.59,4.88-19.21-1.26-6.8-.58-14-.09-21,.17-2.42,3.11-4.65,3.3-7.08.14-1.71-2.53-3.5-3.37-5.5-.56-1.33-.12-3.08-.1-4.65.07-5.3,6.37-8.17,4.93-14.52-1.18-5.2-.24-10.89-.24-16.36V342c0-1.56-.13-3.14,0-4.69.48-5.16,6.41-8.23,4.88-14.52-1.08-4.43-.21-9.33-.21-14V292.37c0-4.69.49-9.44-.11-14.05-1.22-9.49,4-20-4.19-28.39,8.69-4.5-1.65-8.13-.7-12.75,1.24-6,.31-12.45.31-18.7V202.07c0-5.47.39-11-.11-16.4-.59-6.58,2.87-14.14-4.15-19.35,1-9.53-4.74-19.91,4-28.58,1.18-1.18.47-4.51.25-6.81-.28-2.85,1.14-4.62,3.56-4.81,4.66-.36,9.41.26,14.05-.19,5.9-.57,10.4,1.15,14.11,5.8a9.46,9.46,0,0,0,5.48,3.48c2.64.29,5.12,1.26,4.91,3.49-.86,9.27,6.76,16.3,5.28,26.27-1.8,12.24-.76,25-.29,37.45.25,6.56-2.6,13.79,3.91,19.58,1.61,1.42.61,5.89.62,9,.06,10.16-1.18,20.52.46,30.41,1.05,6.33,5,12.15,4.37,19.24-.56,6.2-.12,12.49-.12,18.74,0,7,.43,14.11-.15,21.09-.38,4.64,2.42,6.88,4.76,9.87,1.41,1.8-.92,5.63-3.82,6.76-1.35.52-3.67.37-4.05,1.2-.84,1.86-1.65,4.62-.84,6.17,1.91,3.66,3.67.22,4.69-1.07,1.5-1.91,3.1-2.2,3.27.09.61,7.69.28,15.45.93,23.14.56,6.57-2.71,13.94,4,19.52,1.21,1,.53,4.39.55,6.68q.06,12.9,0,25.79c0,5.3.86,10.56-4.31,14.81-1.56,1.27-.33,5.93-.38,9,8.74,3.14,1.06,13.76,8.08,17.84.91.53,1.19,2.66,1.25,4.06.16,3.91-.41,7.89.14,11.71,1.61,11.07-4.29,23.11,4.45,33.38,1.15,1.36.16,4.55.16,6.9q0,62.13,0,124.26c0,4.56,1,9.45-4,12.42,1.19,1.66,3.36,3.29,3.41,5,.41,14,.43,28,.58,42-9,10-3.09,22.16-4.46,33.25-.25,2,3.23,3,5.58,2.45,1.31-.33,3.16-1.41,3.41-2.47.52-2.22.21-4.65.15-7-.11-3.87,1.46-7,3-10.5,2.5-5.87,8.13-11,6.42-18.44,4.54-4.78,3.88-10.89,5.08-16.74,1.46-7.16,6-13.69,4.3-21.58,7.49-3.8,1.69-13.45,7.86-17.86a3.42,3.42,0,0,0,1.47-1.71c.94-5.17-2.38-11.28,2-15.52,4.92-4.78,3.22-10.51,2.43-15.3-1.16-6.94,6-10.23,5.3-16.89-.56-5.71-2.82-12.58,3.71-17.11.48-.33.58-1.32.69-2,1.09-7.29-1.93-14.74,3.93-22,3.8-4.68-2.21-13.91,5.31-18.8.38-.24.09-1.47.16-2.23.72-7.59-2.68-16.15,1.84-22.6,4.73-6.74,1.43-13.47,2.9-20,1.11-5,6.08-8.4,4.82-14.52-.93-4.5-2-10.56.16-13.8,6.18-9.25,3.72-19.1,4.35-28.77,7-6.88,4.23-15.68,4.69-23.85,6.34-3.83,3.42-11.08,6-16.25,1-1.93,3.58-2.7,3.43-5.66-.28-5.45-1.81-11.83.42-16.15,2.13-4.12,4.48-7.47,4.29-12.38-.17-4.51,5.92-6.61,4.78-12.16-.93-4.5-.26-9.34-.17-14,.12-6.73-1.58-13.92,4.67-19.16q.38-9.22.74-18.45c7.59-4.8.63-14.05,5.2-18.82,6.07-6.34,2.7-13.26,3.22-19.82.39-4.84,6.34-6.53,5.11-12.15-1-4.48-.2-9.34-.2-14s.42-9.42-.1-14c-.72-6.41,6.32-10.05,5-16.87-1-5.24-.09-10.85,0-16.29,7.67-5.91,4.8-14.46,4.09-21.55-.7-6.94,6.57-10.11,5.29-16.89-1-5.28-2-11.84.25-16.14,2.95-5.66,4.74-10.84,4.27-17-.4-5.41,5.21-8.36,5.26-14.46.05-5,3.72-10.87,7.4-15.43,2.41-3,0-10.47,7.75-8.52,4.39-5.92,10.82-4.63,16.82-4.62a7.13,7.13,0,0,1,4,1.45c4.09,3.15,6.46,9,13,8.25.16,0,6.72,15.53,6.64,16a7.63,7.63,0,0,0,3.29,8c2.3,1.67,2.17,5.25,1,6.12-4.41,3.37-4.38,7.69-4.34,12.43,0,7-.29,13.93-.47,20.89-6.63,4.39-3.47,11.18-4.17,17-7.1,6.86-4.91,15.74-4.44,23.83.37,6.55-6.64,10-5.16,16.88,1.12,5.23.22,10.89.22,16.36-8.82,7.43-3.37,17.44-4.54,26.21-.61,4.63-6.21,6.51-5.08,12.16.84,4.18,1.66,9.2-3.2,12.73-1.28.93-1.1,4.18-1.21,6.38-.3,6.17-.4,12.35-.58,18.53-6.62,4.4-1.85,12.12-4.56,16.8-3.27,5.65-5.21,11-4.18,17,2.21,12.85-4,23.1-9.48,33.64-9.58.33-9.62.33-9.35,8.39a10.88,10.88,0,0,0,1,4.26c.87,1.79,2,1.39,3.31-.46s3-3.59,4.87-.58a4.64,4.64,0,0,1,.18,2.26c0,3.91.07,7.81,0,11.72-.09,4.76-7.41,18.19-11.43,21-8,5.63-9.91,8.21-6.36,12.46,4.54,5.42,4.69,8.57-.35,13.4-2.21,2.12.08,5.29,2.14,7.92,3,3.79,2.66,5.24.43,7.89-3.33,4-8.89,6.49-8.27,13-6.23,3-.12,6.85-.89,9.86-.61,2.38-4.44,3.75-.54,6.77s1.08,7.28,1.83,10.92c-5.46,3.55-5.76,9.2-4.5,14.41,1.52,6.27-7,8-5.14,14.58,1.17,4.05,1.48,9.14-3.31,12.64-1.27.92-1.29,4.28-1,6.42,1.11,9.26-8.22,16.47-5,26.26.38,1.17-2.37,3.7-4.06,5.14-3.78,3.2-5.66,6.68-5.28,12,.37,5.09-6.52,8.25-4.6,14.48,1.5,4.85-1,8.71-4.47,12.19-.78.8,0,3-.14,4.57-.71,6.75,2.25,14.11-2.11,20.18-4.63,6.44-1.52,13.42-2.55,20.06-.57,3.74-5.67,5.1-4.8,9.79.56,3-.12,6.26.23,9.34.12,1.14,1.59,2.13,2.45,3.19.7-1.27,2.33-3,2-3.74-3.23-7.12,4.45-10.72,5.33-16.8.77-5.29,10.21-7.11,8.92-14.93-1-6.27,8.26-9.76,4.66-16.8,6.7-10.4,11.34-21.88,16.94-32.84,3.23-6.31,8.79-12.38,6.6-20.73-.55-2.12.78-4.13,1.71-6.27,4.33-9.91,12.7-18.15,12.49-30.06,0-1.7,2.51-3.83,4.33-5.09,4.41-3,5.27-7.14,4.91-12.11-.33-4.62,6.25-6.58,4.73-12.14-1.58-5.73,3.86-8,7-11,4.61-4.55-.13-12.15,6.29-16.45,2.08-1.4,0-8.45,2.17-10.36,3.79-3.39,2-8.92,6.27-11.74,3.19-2.09,2.09-6.56,4.7-9.82,4.42-5.52,4.92-13.66,10.27-19.05-.38-8.34,3.39-14.54,9.94-19.31-2.49-6.2,7.5-8.07,4.92-14.39-2.21-5.38,5.58-7.22,4.6-12.1-1.08-5.38,2.06-8.41,5.26-12,3.42-3.8,10.19-5.93,8.72-12.64-1.2-5.54,4.88-7.65,4.73-12.14-.16-4.9.31-9.21,4.8-12.12-1.16-6.36,7.52-10,4.74-16.82a2.45,2.45,0,0,1,.34-2.14c4.54-5,11.43-8.77,9-17.39,3.13-5.73,6.2-11.5,9.4-17.19s5.89-11.65,9.09-17.37,5.18-11.83,8.63-17.52c3.3-5.46,5.26-11.92,8.73-17.38,1.41-2.22,1.4-4.17,1.71-6.37s.23-5.38,1.55-6.23c4.37-2.84,1.93-8.87,6.44-11.62,6.07-3.7,7-11.11,10.5-16.71,1.74-2.82-.66-7.25,2.65-10.65,2.42-2.48,3.48-6.29,5.11-9.52.66-1.28,2-2.75,1.74-3.89-1.26-6.34,2.24-10.17,6.52-13.79,1.15-1,3-2.39,2.82-3.42-.67-5.69,3-9.87,4.28-14.63,1.34-5,7.36-7.9,5.47-14.36-1.53-5.21,6.71-8.17,4.59-14.44-1.22-3.59,2.44-5.25,4.4-7.46,1.55-1.74,5-3.93,4.61-4.93-3.82-11.29,10.49-14.59,10.28-24.06,3.52-2.46,4.33-5.87,4.21-10a9.43,9.43,0,0,1,2.49-5.89c4.19-4.62,8-10.72,13.37-12.81s8.87-5.34,12.82-8.75a7.06,7.06,0,0,1,3.94-1.67c4.68-.2,9.54.72,14-.26,6.86-1.52,10.44,6,16.76,5.09,2.65,3.51,8.1,5.33,6.82,11.23,5.17,2.81,3.85,9.52,8,13.16,2.67,2.34,2,5.39-.6,7.92-1.05,1-2.54,2.34-2.58,3.56-.24,7.8-1.3,15.85.2,23.36,1.57,7.8-5.55,12.12-5.24,19.22.22,5,2.85,11.1-2.36,15.28-4.82,3.88.91,11-4.86,14.5a5.35,5.35,0,0,0-1.85,3.82c-.22,4.67.2,9.39-.17,14-.35,4.5,2.36,10.09-1.53,13.24-3.58,2.9-1.74,7.36-4.74,9.93-1.15,1-2.82,2.22-2.89,3.42-.39,6.19-.34,12.41-.44,18.61-5.93,3.52-5.33,9.67-4.1,14.52,1.82,7.13-4.48,11-5,16.87-.41,5.2,1.32,10.61-4,14.95-1.6,1.32.14,6.13-1,8.8a16.08,16.08,0,0,1-6,6.78c-2.36,1.55-3.09-2.26-4.91-2.76-.76-.21-2.55,1.06-2.84,2-.43,1.36-.52,3.88.25,4.39,5.75,3.77,3.64,9.55,4.42,14.7.72,4.71-4.21,6.19-4.72,9.8-.64,4.52.8,10-1.34,13.44-2,3.24-2.47,7.05-4.68,9.81-2,2.49-3.94,4.5-3.5,8,.53,4.14.08,7.27-5.6,7.69-2.47.18-4.88,3.31-7,5.42-3.16,3.13-2,6.7,2.73,8.29,2.51.84,6.2-.37,3.15,4.71-4.45,7.44-8.15,15.34-11.94,23.15-2.57,5.28-6.77,10.14-4.8,16.8.43,1.44.54,4.27,0,4.5-7.82,3.22-2.52,11.43-6.41,16.28-3.14,3.91-6.42,8.54-7.23,13.27-.92,5.33-4.05,4.63-7.35,6.29-5.15,2.57-7.78,9.21-14.8,9.73-2.26.17-2,1.75,0,3.23,5,3.84,3.33,7.22-.36,11.4-3,3.44-1.63,6.87,3.29,7.75,4.21.76,6,3.35,4.59,6-2.49,4.69-3.55,9.51-5,14.4s-4.53,9-4.32,14.65c.1,2.68-3.63,4.08-4.8,7.3-2.19,6-4.56,12.33-9,17.32,2.91,6.85-3.28,11.17-4.93,16.74a31.87,31.87,0,0,1-7.53,12.82c-7.73,7.87-8,7.56-1.66,16.59.37.53,0,1.54,0,2.32-3.25-.12-4.81,1.44-4.69,5.78.72-1.09,0-1.88-2.17-1a2.85,2.85,0,0,0-1.56,1.41,8.82,8.82,0,0,0-.86,4c.17,1.26,1.19,2.39,1.84,3.58.92-.81,2.28-1.46,2.63-2.47.46-1.29.12-2.87.12-5.42,3.24-1,4.81-2.54,4.69-5.78a3.63,3.63,0,0,0,4.6-3.49c.57-6,4.06-9.08,11.62-9.22,1.42.46.79-.59-.11-1.3a1.4,1.4,0,0,0-2,2,9.32,9.32,0,0,0,2.76,2.13C662.59,552.45,663.35,551.45,661.74,549.54Zm391.48,24.82a16.7,16.7,0,0,0-2.26-2.67,1.4,1.4,0,0,0-2,2,9.5,9.5,0,0,0,2.77,2.13c.17.1.94-.9-4.92-4.17h2.09c0-.7.28-1.59-.05-2.06-1.08-1.54-2.42-3.47-4.07-.64C1044.57,569.3,1046.1,570.7,1053.22,574.36Zm0-14.07a16.7,16.7,0,0,0-2.26-2.67,2,2,0,0,0-2,0,2,2,0,0,0,0,2,9.5,9.5,0,0,0,2.77,2.13c.17.1.94-.9-2.83-4.17v-9.38c4.46.34,5-2.74,4.6-5.88-.28-2.36-1.85-3.93-4.69-3.54a63.27,63.27,0,0,1-6.69,0c.7,0,1.67.27,2-.08a2,2,0,0,0,0-2c-1.09-1.54-2.42-3.47-4.07-.65-.22.38,1.31,1.78,4.12,2.71v4.69c-1.29.51-3.54.81-3.72,1.58-.63,2.81,1.44,3.27,3.72,3.11,0,2.11-.39,4.33.11,6.32S1046.36,558.07,1053.22,560.29Zm-4.69-168.87a17.15,17.15,0,0,0-2.26-2.67,1.41,1.41,0,0,0-2,2,9.5,9.5,0,0,0,2.77,2.13c.17.09.94-.9-9.51-4.18a20.53,20.53,0,0,1,4.44.06c2.28.52,3-.08,2.21-2.27-.25-.63-.93-1.51-1.46-1.55-3.53-.29-7.08-.45-10.62-.47-.52,0-1.56,1.35-1.49,1.45.72,1,1.47,2.32,2.51,2.67C1034.45,389,1036.06,388.69,1048.53,391.42ZM795.61,385c.79,1.24,1.55,2.49,2.36,3.71,3.58,5.38,3.07,9.06-1.38,9.35-3.12.2-6.26.09-9.38,0-3.55-.08-5.9.94-5.69,5.11.15,3.12-.51,6.38.19,9.34.6,2.58,4.21,5.4,3.62,7.12-1.22,3.58-5.42,1.31-8.3,1.91-3.82.79-9.45,5.54-9.46,8.63,0,4.53-1,10.6,1.41,13.27,4.37,4.8,1.15,6.65-1.63,8.5a59.82,59.82,0,0,1-13.51,6.9c-2.25.78-5.05,1.15-5,3.42.25,5.8-4.57,7.73-7.49,11-3.33,3.75-2.11,6.33.63,9.82,3.14,4,2.82,5.56.51,7.89-6,6.12-12.2,12.12-18.18,18.29-1.52,1.57-3.88,3.9-3.57,5.4,1.59,7.65-3.9,11.19-8.09,15.54-2.71,2.82-5.23,5.93-8.34,8.22-5.25,3.85,3.36,5.75,1,8.29-4.55,5-5.15,12.55-11.45,16.48-4.84,3-6.76,7.64-6.48,13.78.19,4.14-5.51,6.71-4.59,12.14,1.11,6.58-5.16,9.41-9.09,12.38-4.79,3.61-3.64,9.92-8,13.3-3,2.28-.81,5.84-1.52,8.72-.34,1.38-1.4,3.81-1.8,3.75-8-1.3-6.26,6.87-9.74,9.78-3.69,3.09-1.14,7.57-2.72,10.61-2.05,4-6,6.88-8.74,10.51-.77,1-.16,3-.43,4.49-.67,3.58-8.9,23.63-11.37,25.7-4.79,4-6.58,10-10.16,14.51-3.94,5-7.81,9-6.95,16.19.24,2-3.89,4.45-6,6.69-1.56,1.64-2.95,3.06-3.14,5.78A30.82,30.82,0,0,1,593,753c-3.3,3-4,6.2-3.8,10.24.08,1.37-.26,3.55-1.16,4.09-7,4.19-7.31,13.19-13.22,18-3.19,2.62-4.79,5.62-4.47,10a8.8,8.8,0,0,1-2.24,6c-3.14,3.34-1.85,9.09-6.53,11.42,1.52,5.37-5.15,7.34-5.07,11.94.08,4.83-6.74,6.68-4.88,12.08-6.44,5.57-6.06,15.15-11.74,20.85-6.53,6.55-9.33,14.85-13.24,22.73-2,3.94-8.27,5.39-7.6,10.86.64,5.22-2.81,8.24-4.59,12.25-1.08,2.44-.17,6.06.61,8.93.63,2.31.7,1.63,6.63-3.21,6.12-5,7.19-13,13-18.27,5.48-4.94,12.25-9.19,13.76-17.73.27-1.53,6.1-1.56,7.37-3.56,1.43-2.25,2.06-5.26,3.31-8,2.6-5.58,7.33-9.7,9.77-14.73a53.79,53.79,0,0,1,10.44-14.4c3.27-3.36,8.92-6.34,9.42-10,.86-6.47,5.67-8.83,8.83-12.9.93-1.2.51-2.05-1.12-3.4-.86-.71-1.87-2.61-1.53-3.17,2.4-3.82,7.21-5.57,8.53-10.58.9-3.44,4.12-6.49,4.32-9.83.37-6.34,6.93-2.92,8.08-5.72a43.25,43.25,0,0,1,8.32-13.07c3.3-3.64,5.05-8.74,7.26-13.31s4.14-9.22,6.2-13.84c9.08-.25,8.41-6.66,7.85-12.74-.32-3.45.9-5.79,3.42-8,3.51-3.11,7.1-6.27,9.85-10,1.75-2.38-5.26-3.43-2.44-6.37,1.83-1.91,5.18-2.36,7.85-3.47-1.23-5.78,3.36-8.44,6.74-11.19,4.59-3.73,1.65-8.72,3.25-12.81.26-.67,1.12-1.65,1.61-1.6,9.23,1,7.36-5.69,7.21-10.72-.13-4.15.66-7.46,4.1-10.09,5.57-4.27,7.33-11,9.82-17,1.91-4.59,6-8.15,5.27-14.41-.79-6.87,9.55-2.93,11.24-8.84.39-1.34,2-2.33,2.4-3.67s0-3.11.11-4.67c.35-4.88-2.43-11.8,7.1-10.89.64.06,2.34-2.49,2.13-3.55-1.41-7.44,5.24-12.09,6.15-18.64,4.49-1.77,1.89-7.34,5-9.6,3.92-2.84,2.58-6.82,3.19-10.49a9.94,9.94,0,0,1,3.47-5.51c4.59-3.72,6.44-8.17,5.91-14.09-.2-2.31,1.81-3.83,4.7-3.67,1.28.07,3.82-1.15,3.78-1.64-.76-10.43,7.94-17.29,9.88-26.43,1.4-6.59,10.9-7.71,9.43-14.78s6.63-10.1,5.74-16.51c7.21-7.58,7.41-19.63,16.58-26,1.58-1.1,1.14-1.94-.59-3.37-5.08-4.2-2.57-7.62,1-11.39,1.73-1.8,5.67-2.53,4.43-6.52-.54-1.73-5.12-2.13-2-4.91,5.39-4.85,9.64-10,7.89-17.88-.77-3.5,1.91-5.37,3.53-8,5-8,5.4-18,10.38-26.18,1-1.71.59-4.71,0-6.91a4.08,4.08,0,0,0-5.29-2.94c-1.36.34-3.48,1.23-3.63,2.14a41.09,41.09,0,0,0-.29,9.28c.26,4.35-.63,6.34-5.78,7.66-5.77,1.49-9.51,7.28-13,12.34C795.3,383.2,795.62,384.19,795.61,385ZM1016,1033.74c4.67-5.1,4.48-4.93,1.19-8.46-2.29-2.47-6.07-5.18-7.75-3.11-4.25,5.25-7.07,3.11-10.47-.24-7.25,2-11-3.13-16-6.85s-3.62-9.7-7.8-13.56c-2.06-1.91-1.21-7.21-1.27-11-.14-9.38.38-18.78-.16-28.13-.57-9.62,3.31-20-4.38-28.72-.61-.69,1.12-4.16,2.48-5.72,2.33-2.68,2.85-5.12.82-8.09-1.24-1.81-3.3-3.7-3.34-5.59-.3-12.5,0-25-.25-37.52-.05-2.87,1.6-4.27,3.29-5.67,2.27-1.9,2.22-5.43,1.22-6.2-4.36-3.34-4.59-7.58-4.47-12.38.2-8.6.25-17.21,0-25.8-.12-3.54,2.59-5.39,3.47-8,1-2.85-5.35-6.86.9-9.83-.28-.55-.42-1.28-.86-1.63-4.57-3.72-5.09-7.54-.2-11.32,1.72-1.33.72-1.71-.17-3.44-4.47-8.75-4.21-10,.71-20.61,2.12-4.57,1.38-6.43-3.84-7.88-2.07-.58-4.69-.21-3.51-3.41.74-2,3.28-3.64,3.42-5.56a169.93,169.93,0,0,0,.12-18.75c-.22-5.92,2.1-12.63-4.55-16.85,1.15-7.34-3.37-15.46,3.12-22.1,3.17-3.25,1.33-7.42,1.33-11.1s2.1-8.12-1.76-10.88c-5.38-3.85,2.88-6.58,1-8.14-4.5-3.67-4.38-8.28-3.55-12.64,1-5.49-4.43-7.78-4.79-12.17-.3-3.7-.85-7.47,2.81-10.58,4.09-3.46,1.8-6.85-1.51-9.53-1.58-1.28-1.39-2,.47-3.41,1.67-1.22,3.62-2.83.66-4.93-2.23-1.57-2.45-3.29,0-5,2.2-1.53,3.29-4.77,2.06-5.95-5.88-5.62-4.41-12.61-4.51-19.34-.09-6.25-.81-12.63.19-18.72,1.11-6.76-2.82-11.37-4.73-16.91-1-2.8-.17-6.2-.17-9.32-4.65.35-4.42-2.92-4.81-6.07-.13-1.09-1.64-2-2.52-3-3.75,3.87-7.78,7.51-11.15,11.69-1.9,2.36-.16-.81,1.69,1.46a15.77,15.77,0,0,1,1.7,17.21c-2.27,4.29-3.75,8-3.69,12.61.08,7-.83,14.2.24,21.07,1.27,8.14-3,14.43-4.81,21.57-.91,3.63.5,8.49-1.44,11a16.19,16.19,0,0,0-3.44,10.44c-.11,4.83.1,9.16,4.61,12.3.74.52.8,3.52,0,4.42-2.49,2.93-4.74,5.34-4.78,9.88-.07,8.11,2.81,17-4.37,24-.67.64-.33,3.69.47,4.24,4.72,3.19,4.14,7.83,4.13,12.46-.05,19.55-.88,39.14.4,58.6.51,7.7-6.79,12-5.13,19.2.59,2.58-.85,4.44-2.72,5.88-3.26,2.5-.21,3.86,1.12,4.9,1.9,1.48,1.9,2,.07,3.52-1.25,1-3.41,1.63-1.47,5,5,8.61,4.17,14.75-.84,20.56-2,2.3-1.95,2.25-6.65-.23a14.77,14.77,0,0,0-4.17-1.23,3.72,3.72,0,0,0-2.15.4c-2.06,1-2.21,2.17-.55,3.29,2.87,1.94,3.33,4.65,3.43,8,.2,6.41.5,6.39,6,7,7.67.91,8.37,2.7,8.29,9.79,0,3.63-7,3.93-2.89,9,4.72,5.78-3.31,6.49-5.06,9.75s-2.76,6.06-.23,8c6.88,5.25,8.64,11.85,8.06,20.27-.75,10.89-.16,21.88-.2,32.82,0,2.3.73,5.64-.48,6.72-7.07,6.38-3.52,14.5-4.08,21.83-.54,7-.15,14.07-.09,21.1a8.35,8.35,0,0,1-2.23,6.16c-5.3,5.89-10.53,10.89-19.64,9.55-6.12-.9-12.5-.5-18.72-.07-5.82.4-8.64-3.91-10.66-7.48-1.31-2.31-1.41-5.43-3.7-7.84-3.68-3.89,1.59-11.2-5-14.33a2.53,2.53,0,0,1-1-1.88c-.52-8.17,2.26-17-4.73-23.85,0-8.6.49-17.23-.15-25.79-.6-8.05-6.78-15-4.72-23.9,1-4.45.18-9.34.18-14V858.37c0-4.69-.75-9.53.18-14,1.27-6.13-4-9.54-4.74-14.53-.65-4.6-1-9.57.07-14,1.52-6.28-4.66-9.37-4.82-14.52-.28-9.38.32-18.78-.19-28.14-.49-9.13,3-18.83-1.83-27.32-5-8.87-2.06-18-2.61-27-.61-10.13-.14-20.32-.14-30.48-7.63-9.37-3.73-20.5-4.68-30.89-.07-.77.32-1.81-.06-2.31-8.35-11-3.22-23.73-4.63-35.61-.36-3,.47-7.33-1.19-8.72-4.53-3.77-4-8.43-3.35-12.77,1.19-8-2.39-13.28-8.06-17.84A4.7,4.7,0,0,1,810,574c2.4-3,5.87-5.37.55-8.38s-4.3-9.56-8.31-13c-3-2.6-.32-3.81,1-5,3-2.57,1.34-5.82,1.57-8.74.11-1.29-.59-3.49-1.53-3.9-8.11-3.53-18.27-.9-21.4,7-1.49,3.79-3.65,6.34-5.83,9.33-4.82,6.61-9.69,13.28-8.65,22.2.38,3.23,0,6.27-3,8.11-5,3-5.8,8.51-8.27,13-2.85,5.21-5.17,10.5-9.73,14.88-3.45,3.31-4.86,8.78-7.12,13.32-1.61,3.23-3.14,6.52-4.7,9.78s-3.91,6.39-4.48,9.81c-.63,3.79-.09,7.49-3.78,10.25-6.93,5.19-11.51,11.88-11.65,20.94-6.1,7.41-7,18.07-14.94,24.28-3.78,2.93-2,8.78-6.58,11.41-5.36,3.13-6,8.39-5.62,14.11.07,1.1-1.54,2.68-2.75,3.43-4.9,3-5.25,9-8.45,12.88-3.39,4.1-2.55,10.6-8.09,13.15s-2.74,10.22-8.25,13.07c-6.47,3.35-5.71,11.77-11.31,16.6-4.53,3.91-5.36,11.94-9,17-3.86,5.44-4.55,13-11.2,16.65-3.44,1.9-1,7.16-4.89,9.77a16.17,16.17,0,0,0-6.68,8.85c-1.47,4.7-7.36,8.06-8.65,12.74-2,7.19-6.29,9.69-12.68,11-.8.16-1.35,2.45-1.7,3.83-.74,2.86,1.31,6.11-1.61,8.75-3.48,3.14-6.55,6.73-10,9.87s-2.16,8.64-6.5,11.5c-3.05,2-6.41,4.67-5.35,9.41L561.09,907c2.12,5.47-4.86,7.23-4.84,12.13,0,4.45-6.3,6.63-5.11,11.89-2.67,1.11-6,1.57-7.87,3.45-3.73,3.71-8.66,6.49-10.36,12-2,6.69,5.55,10.48,4.93,16.83-.1,1,2.12,2.13,3.13,3.31,3.53,4.12-1.65,11.27,5,14.39.33.16.54,1.5.43,1.55-6.38,3.21-2.12,10.23-5.14,14.26-1.49,2-5.47,1.91-7.74,3.56-6.54,4.77-10,14.53-20.84,12.27-.95-.2-2.88,1.41-3.44,2.61-3.33,7.05-12.35,5.61-16.49,11.31-8.75-1-10.38,11.26-19.25,10.37-1-.1-2.19,2-3.3,3.15l-7.88,7.89c2.32,1,3.64,1.93,5,2,5.46.18,10.94.08,16.41.08h14.07c5.47,0,11.16-.94,16.36.24,6.36,1.44,9.3-4.76,14.53-4.89,6.25-.17,12.51,0,18.76,0h18.76c7,0,14.11-.46,21.1.13,6.42.54,9.74-8.56,16.83-4.82q41,0,82.08,0c3,0,7.54-.86,8.88.76,5.07,6.06,11.45,3.46,17.32,3.83,5.45.35,10.94-.07,16.41.12,6.52.22,9.53,6,11.56,15.65,1,4.67,4.16,8.85,3.87,14.29-.14,2.73,5,3.61,4.5,7.43-.11.77-.35,1.89,0,2.28,1,1,2.32,2.4,3.54,2.42,11.72.18,23.45.1,35.17.1,7.65-7.65,17.33-4.4,26.2-4.57,19.54-.37,39.09-.12,58.63-.12,3.13,0,7.5,1.33,9.16-.23,7.31-6.83,16-4,24.08-4.36,9.36-.41,18.75-.1,28.13-.1h14.07c3.62-5.3,9-4.89,14.48-4.74,7.81.21,15.63,0,23.45,0h23.45c7.82,0,15.94,1.34,23.37-.35,8.61-2,13.5,6.89,21.61,5.16,7.19-1.53,12.05,2.41,13.33,9.23.69,3.69,3.5,4.86,5.16,7.29.44.63,1.48,1.66,1.59,1.58,1-.73,2.81-1.75,2.73-2.51-1.06-9.59,3.6-20.13-4.56-28.56q-.4-9.21-.8-18.43c-6.62-4.51-3-11.34-4-17.13a4.92,4.92,0,0,0-2.84-3,6.36,6.36,0,0,0-4.43.36c-1.33.64-2.09,2.39-3.39,3.16-6.32,3.76-7.05,11.38-11.57,16.36-3.34,3.67-11.24,4.86-14.34,1.89-5.08-4.85-10-9.85-73.17-514a16.7,16.7,0,0,0-2.67,2.26,1.4,1.4,0,0,0,2,2,9.5,9.5,0,0,0,2.13-2.77C959.37,535.8,958.37,535,1016,1033.74Zm-669.87-30.57c.71-.06,4.27.58,6.66-.8,3.27-1.88,5.3-5.85,8.51-7.92,3.66-2.35,8.95,1.15,12.73-3.33,2.78-3.29,8.85-2,11.19-6.71,5.51.56,10.78.37,14.46-4.69,10.47,1.44,17.55-6.7,26.5-9.63,4.91-1.6,9.29-5.44,8.3-12.12-.22-1.44-.32-3.45.47-4.42,8.92-10.85,10.26-26.21,21.39-35.75.95-.81,1.79-2.9,1.42-3.95-2.2-6.21,3.66-9.53,5.15-14.4,1.23-4,5.8-6.86,8.3-10.61s-1.39-9.22,3.36-12.68c3.85-2.81.19-8.49,2.34-10.54,4.09-3.91,3.69-9.62,7.47-13.57,4.05-4.23-.94-12.63,6.33-16-1.19-5.87,6.44-8.19,5.65-14.19-.21-1.6,3.4-3.49,3.54-5.38.36-4.63-.34-9.36,4.51-12.25-2-6.07,7.23-8.24,5-14.3-2-5.5,5.25-7.3,4.7-12.12-.49-4.3,6.17-5.25,4.66-9.76-2.28-6.8,5.52-10.19,5.07-16.84-.39-5.71,4.23-10.78,7.28-15.51,3.31-5.15-1.26-13.06,6.32-16.26.3-.13,0-1.47.16-2.21,2.39-10.63,2.81-11.29,12.84-20.05,1.3-1.13.94-2.09-.86-3.35-2.06-1.43-2.77-3.08-.25-5,3.85-2.86,1.48-7.18,2.42-10.71s6.06-5.22,4.55-9.78c-1.81-5.48,5-7.55,4.65-12.13-.35-5,.5-9.13,4.78-12.12-.08-6.78,7.47-11.59,4.77-19.18-1.19-3.35,1-6,3.7-7.73,5.53-3.48,4.76-11.05,9.9-14.69-1-7.67,2.68-13,8.22-17.73,1-.81,1.4-2.62,1.48-4,.25-3.87-1-8.36.56-11.48,1.65-3.28,4.88-5.55,4.26-10-.85-6.16,7.79-9.71,4.88-16.89-.44-1.07,3.63-3.53,3.55-5.25-.25-5.18,5.32-7.54,5.39-11.86.07-4.93,6.92-6.7,4.87-12.11s4.17-7.45,4.9-12.09c1.86-11.84,2.51-12.25,13.53-13.75,2.63-.36,5.24-1.36,4.81-3.42-.92-4.42,4.53-5.6,3.86-9.4a2.21,2.21,0,0,0-1.7-1.31c-5,.52-5.76-1.88-7-6.46-2.21-8.52,7-13.64,5-21.57-.71-2.89,2.08-3.83,3.11-5.75,2.07-3.83,3.57-7.88,5.92-11.67,1.75-2.81.59-7.61.3-11.49-.55-7.27.32-13.81,7.08-18.2,3.17-2.06,2.74-5.49,2.23-8.36-.82-4.69,5-5.79,4.77-9.8-.26-4.79-.14-9.32,4.6-12.17-1-6.33,5-10.19,5.41-16.71.36-5.89,4.43-12.18,8.79-17.24-3-6.88,5.53-11,4.43-16.76-1.47-7.6,3.09-13,5.35-19.05,1.52-4,5.06-7.21,4.36-12.28-.66-4.76,4.93-6.78,5.3-12,.28-3.94,6.64-1.62,10.26-2.27,2.74-.49,4.7-4.9,2.58-7.28-2.71-3.05-4.5-5.79-4.23-10.09.39-6.22,1.23-12.76-.18-18.67-1.86-7.77,5.9-12.08,5.12-19.23-.49-4.47.47-9.1.78-13.65,6.65-3.06,1.15-10.88,5.15-14.13s1.86-9.14,6.43-11.57c.6-.32,1-1.07,1.45-1.62-8.7-4.27.86-8.26.32-12.59-.61-4.9.08-9.56-7.23-8.58-.95.13-2.33-1.92-3.27-3.14-1.24-1.6-2.92-1.6-3.21.55a56.35,56.35,0,0,0-.44,13.84c.76,6.32-2.35,7.81-7.67,8.35-2.19.22-1.52,1.61-.48,3.25,3.9,6.18,3.75,6.36-2.91,10.12-2.16,1.22-3.32,2.61-3.27,5.27a4.93,4.93,0,0,1-2,3.71c-1.16.69-3,.29-4.47.44-6.84.72-8.77,3.4-7.48,10.3,1,5.38.8,15.18-1.29,16.58-7.28,4.93-8,14.57-14.73,19.84-1.51,1.18-2.92,4.06-2.56,5.78,1.69,8.18-2.55,15-6.26,20.85-3,4.69-1.43,5.8,1.12,8.67,1.55,1.76-.53,6.74-3.23,6.89-5.57.32-8.49,4.14-10.35,7.91-2.87,5.85-5.6,11.78-8.42,17.62-2.4,4.95-3.89,11-5.29,16.43S634.38,337.32,630,341c-2.39,2-4.4,4.43-6.68,6.57-1.3,1.22-1,2.07.8,3.37,2.82,2,3.79,5.05,1.86,7.88-1.69,2.48-3.54,4.35-4.13,7.75-1,5.9-10.24,7.07-9.4,14.93.16,1.49-2.73,3.67-4.62,4.93-4.59,3.07-5.26,7.52-4.42,12.23,1,5.43-1.68,8.89-5.49,11.81-3.45,2.63-4.79,6-3.92,10.08,1,4.67-4.91,5.79-4.71,9.79.24,4.79.15,9.32-4.59,12.17,2.54,6.24-7.51,8.11-5,14.35-5.75,2.42-3,10.25-8.29,13,.49,6.29-6.95,9.52-5.84,16.43,1,6.46-6.17,8.22-9,12.58a3,3,0,0,0-.14,2.24c2.13,6.7-5.08,10.45-5.2,16.76-.05,3-3.12,1-4.63-.55l-1.66-1.65c-.87,1-2.22,1.92-2.49,3.08-.31,1.34-.2,3.45.65,4.28,6.31,6.16,5.35,11.43,0,18a28.68,28.68,0,0,0-4.84,9.5c-1,4-4.44,6.59-4.93,9.66-1,6.61-7.9,11.52-5.17,19.12a5.63,5.63,0,0,1-1.91,6.19c-3.5,3.11-6.56,6.71-10,9.83-1.63,1.45-2.25,2.41-.74,3.35,6.23,3.84-1.15,5.84-1,8.35.4,6.43-8.24,9.87-5,16.82-3.36,4.79-3.94,11.17-8.71,15.14-3.71,3.08-6.14,6.42-5.52,11.86.59,5.2-6.18,8.13-4.74,14.49,1.85,8.15-3,12.15-10.7,14.38-5.73,1.67-.51,3.9.52,5.93.64,1.27,1.45,3.4.87,4.17-2.7,3.66-6.42,6.66-8.7,10.53-2.18,3.7,1.23,9-3.36,12.73-3.35,2.74-8.33,5.44-6.5,11.22,1.94,6.15-5.84,8.06-5.22,14.53.72,7.5-2.48,8.2-9.62,3.31a14,14,0,0,1-1.67-1.6,34.18,34.18,0,0,0-2.27,3.74,2.63,2.63,0,0,0,0,2.28c3.73,4.16,4.92,8.83,4.84,14.5-.08,6.49-5.35,10.4-6.43,16.17-6.61,3.47-6.59,11.67-11.59,16.29A23.88,23.88,0,0,1,420.9,813c-1.19.92-.63,4.4-.49,6.67.29,4.8.11,9.32-4.62,12.17,1.85,5.39-5,7.24-4.87,12.07.09,4.61-6.63,6.55-5.06,11.93-4.68,2.33-4.23,7.67-6.39,11.45-3.18,5.6-6,11.53-8.81,17.39s-5.23,12.51-11.23,16.53a4.5,4.5,0,0,0-1.17,4c2.25,6.8-4.89,10.4-5.31,16.81-.41,6-4,12.18-8.12,17.67a29.46,29.46,0,0,0-4.85,9.49c-1,4.08-5,7-4.85,9.6.34,7-1.74,12.09-7.26,15.91-3,2.06-1.5,6-3.42,7.9-3.08,3-4.45,6.13-3.81,10.21.59,3.74-2.35,5.36-4.2,7.7a7.1,7.1,0,0,0,2.7,2.51C340.56,1003.52,342.23,1003.17,346.14,1003.17Zm-57.26,11.58c-.55-.55-1.11-1.09-1.65-1.65-9.56-10-9.91-12.69-3.65-25.67.62-1.28,0-3.28.84-4.3,2.79-3.51,3.52-8.34,6.11-11.43,3.44-4.12,2.59-10.52,7.88-13.24l.09-14c5.75-3.49,4.1-9.23,4.75-14.47.58-4.71-3.64-6.39-4.78-9.8-1.74-5.14,5.9-6.9,4.68-12.09-.35-1.48.45-3.36-.17-4.62-1-2-4-3.73-3.78-5.31.3-2.53,3.51-4.76,3.71-7.26.55-7,1-14.15,0-21s3.59-11.27,4.62-16.88c1.25-6.79.3-14,.3-21V810.92c0-14-.07-28.1,0-42.14.05-6-1.74-12.39,4.5-17,.95-.7-.07-3.94-1.48-6.17-4.21-6.71-4.38-7.57-.84-14.16s4.27-13.17,0-19c-3.89-5.2-1.2-10.44-2.17-15.55,7.63-7.63,4.1-17.29,4.61-26.16.4-7-.35-14.07.2-21,.52-6.55-3.15-14.22,4.33-19.24-.39-.55-.67-1.28-1.2-1.63-3.53-2.3-3.26-4.46.09-6.65,1.61-1.06,1.19-2-.58-3.35-4.45-3.48-3.05-8.28-2.05-12.61.51-2.2,5.56-3.1,1.51-6.7-4.84-4.31,3.67-5,2.68-8.86-.63-2.46-1.19-4.71-3.57-4.82-2-.09-5.74,1.39-5.74,2.19,0,5.38.15,10.59-4.69,14.33l3.86,5c-4.14,2.76-3.33,4.85-.28,8.51,2.07,2.49,2.14,7.52-.39,10.7-2,2.48-3.31,4.57-3.64,7.95-.78,8,3.87,17.23-4.48,23.85,8.76,5-2.1,9.71-.22,14.89,1,2.75.36,6.19.14,9.29-.58,8.12,2.61,17-4.65,23.82,2.2,8-3.32,14.31-4.51,21.5-1.69,10.24,1.66,20.79-4.45,31-3.49,5.86,2.79,15.42-4.95,21.28-.06,6.22-.57,12.48-.05,18.66.6,7.07-7.62,11.29-5.11,19.23,1.22,3.82,1.89,9-3,12.68-4,3,1.12,9.23-3.39,12.55-4.2,3.08-.33,4.52,1.12,6.68.75,1.13,1.3,3.25.74,4.24-2.19,3.84-6,7-4.54,12.16,1.75,6-3.19,9.63-4.68,14.47-.85,2.74,1.3,4.36,3.07,5.67,1.93,1.43,1.92,2,0,3.46-1.79,1.3-3.89,3-3,5.69,2.32,7.38-7.43,11.58-5,19.21.41,1.27-3.21,3.43-3.46,5.37-.84,6.63-7.86,11.05-5.83,18.8,1.8,6.85-6.69,11.19-5,19.19,1.3,6.06,3.32,14.11-4.19,19,3.1,7.58-3.36,12.8-5.38,18.88-3.47,10.49-4.07,11.64,5.38,16.38,5.28,2.65,10.21,6.34,16.67,5,5.09,7.28,12.74,3.33,19.26,4.36.76.12,1.59-.13,2.33,0C282.27,1023.43,285.4,1018.79,288.88,1014.75ZM106.09,815.54c0,7-.23,14.08.07,21.1.27,6.64-2.52,14.13,4.62,19.16,0,7-1.22,14.35.34,21,1.6,6.87,6.7,12.88,8.73,19.73,1.08,3.66,1.13,7.26,4.42,10,5.36,4.39,7.38,11,9.65,17.06,1.22,3.28,3.74,4.69,5.28,7.21,1.17,1.9,2.25,2.22,3.32.77a4.22,4.22,0,0,0,1-1.89c.12-2.34.75-5-.09-7-2.16-5.12-8.73-9.82-.39-15.15-3.75-4-4.6-8.81-4.27-14.25.43-7,.1-14.06.1-21.1V787.79c0-7-1.25-14.37.33-21,1.87-7.89-5.16-12.31-5.1-19.23.21-25.79.16-51.58,0-77.36,0-3,1.86-4.12,3.45-5.62,1.44-1.36,1.35-2.1-.55-3.41-2.85-2-4.31-5.52-2.07-7.78,3.43-3.46,4-5.69-.13-8.53a2.17,2.17,0,0,1,.54-1.57c4.8-4,3.65-5.62-2.12-6-2.45-.17-4.15-1.66-3.74-4.63a15.62,15.62,0,0,0,0-4.68c-.63-3.8,4.66-4.79,4.13-7.25s-4-3.92-4.22-7.62c-1.11-17.36,3.34-35-4.2-52.14-2.31-5.24-.36-12.35-.36-18.6s-1.69-13.17.46-18.57c2.33-5.87-9.92-10-.72-15.16-4-3.3-4.83-6.61,0-9.95-5.93-3.52-4.15-9.36-4.38-14.59-.07-1.56,0-3.13,0-4.69-.36-7.55-2.66-8.58-12.38-6.3-2.94.69-6.19,0-9.14.66-2.19.48-2.16,2-.52,3.23,1.23.93,2.12,2.32,3.36,3.26,9.27,7,9.29,7,9.31,14.51q0,10.55,0,21.1v21.1c0,7-.55,14.12.15,21.08.72,7.18-3.28,12.86-4.5,19.24-1.45,7.53-.34,15.56-.34,23.38,0,7-.74,14.16.19,21.07,1.09,8-2.74,14.45-4.66,21.58-1.18,4.38-.22,9.32-.22,14v37.51c0,4.69.1,9.38,0,14.07-.12,3.8-.52,7.58-.8,11.38-7.68,4.13,1.18,6.88,1,10.53-.44,7-.13,14.06-.13,21.09,0,6.25,1.22,12.82-.3,18.68-2,7.88,5.32,12.3,5.07,19.23C105.85,798.34,106.09,806.94,106.09,815.54Zm914.68,86.06c0,8.59,0,17.18.05,25.76,0,1.41.3,3.2,1.18,4.12a5.5,5.5,0,0,0,4,1.21c1.33-.14,3.66-1.24,3.67-2,.32-13.23.32-26.47.45-39.7,0-3.74.34-7,2.66-10.67,3.89-6.24,2.92-11.32-1.39-18.74-1.34-2.3-2-5.37-.91-6.22,4.39-3.36,4.56-7.66,4.35-12.41-.18-3.9,0-7.8,0-11.71,0-4.68-.58-9.46.17-14s-3.69-6-4.12-9.49c7.59-4-1.12-6.91-.78-10.48s-.26-7.14,2.77-10.66c3.77-4.38,3.79-9.9-1.27-14.14-2.22-1.87-1.93-4.42-1.19-6.33,5.88-15.15,5.7-15.07.75-27.09-1.75-4.25-2.3-8.73,1.29-12.69.75-.84,1.54-3,1.32-3.15-3.7-2.62-3.67-6.32-3.71-10.29-.06-4.79.4-8.77,4.38-12.44,1.57-1.45,1.66-7.53.16-8.76-5.94-4.9-4.68-11.13-4.25-17.06.18-2.51,4.09-5.1,3.72-7.21-.43-2.48-4-3.94-4.08-7.65-.08-4.39,2.12-9.44-2.17-13.08-7-5.91,1.84-9,2.24-13.49a6.13,6.13,0,0,0-1.18-4.13c-5.86-6.89-5.63-13.93-.21-20.65,2.4-3,1-5.89,1.45-8.8s-1.29-4.38-3.79-4.53c-6.3-.37-5.46-1.91-2.2-6.27,1.92-2.59.94-7.31,1.33-11.07.54-5.28-2.25-6.12-6.9-6.44-2.69-.18-1.58-2.69-.06-4.69,1.85-2.45,2.87,1.26,1.61-1.51a17.78,17.78,0,0,0-5.64-6.47c-.57-.42-3.14,1.88-4.8,2.92-5.7,3.57,2.38,6.78.89,8-4.35,3.65-4,8-3.85,12.61.21,6.91.55,13.82.84,20.73,7.4,6.2,2.37,14.59,3.92,21.81.28,1.32,1.77,2.36,2.68,3.56,3.12,4.09,2.76,8.41.47,12.64-.7,1.32-3.08,2.23-3.1,3.35-.22,14-.14,28.11-.14,42.16,9.24,8.23,4.28,19,4.44,28.5.62,35.9.25,71.82.25,107.73,0,3.9.63,7.94-.17,11.67-.85,3.89,9,6.32,1.18,10.62-.34,3.77-.8,7.52-1,11.3-.21,4.52,1.09,9.46-4,12.41.63,1,1.34,3,1.89,3,4.86-.4,7,1.34,6.82,6.5C1020.55,886,1020.77,893.8,1020.77,901.6ZM94.51,623.23a8.11,8.11,0,0,0,2.26,0c1.33-.41,2.6-1,3.89-1.57a15.33,15.33,0,0,0-1.78-3.18,21.88,21.88,0,0,0-5-4.47c-1.1-.62-3.65-.59-4.25.17A11.15,11.15,0,0,0,87.49,620c-.08,1,1.38,2.66,2.52,3.15S93,623.23,94.51,623.23Zm916.88-77.35c0,1.51-.45,3.24.13,4.48a5.31,5.31,0,0,0,3.38,2.39,7.71,7.71,0,0,0,4.21-.64c2.2-.88,2.09-2,.1-3.19-2.87-1.78-3.56-4.53-3.28-7.79,0-.4-2-1.15-3.09-1.37-.36-.07-1.3,1-1.38,1.58A32.7,32.7,0,0,0,1011.39,545.88ZM830.94,337.1c1.52,0,3.26.46,4.48-.14a5.37,5.37,0,0,0,2.3-3.46,7.76,7.76,0,0,0-.71-4.19c-.88-2.15-2-2-3.19,0-1.77,2.9-4.61,3.39-7.78,3.28-.41,0-1.07,2-1.24,3.08-.06.38,1,1.25,1.6,1.33A34.32,34.32,0,0,0,830.94,337.1ZM340.62,374.52c0,2.83-.3,4.44.09,5.85s1.48,2.43,2.26,3.63c.78-1.2,2-2.32,2.24-3.62a21.15,21.15,0,0,0,0-6.83c-.22-1.29-1.46-2.42-2.24-3.62ZM340,350.8l-4.09,2.71,1.6,1.6a31.68,31.68,0,0,0,3.21,3.14,14.72,14.72,0,0,0,3.16,1.37c.45-2.05,1.8-4.5,1.11-6S341.58,351.59,340,350.8ZM776.86,144.88c0-2.83.3-4.44-.09-5.85s-1.48-2.43-2.26-3.63c-.78,1.2-2,2.32-2.24,3.62a21.15,21.15,0,0,0,0,6.83c.21,1.29,1.46,2.42,2.24,3.62C775.47,147.6,776.42,145.72,776.86,144.88Zm-265,947.43c2.12-.31,4.66.93,6.19-1.57a1.68,1.68,0,0,0,0-1.56c-2.52-2.22-9.86-2.22-12.38,0a1.68,1.68,0,0,0,0,1.56C507.17,1093.24,509.7,1092,511.84,1092.31Zm588.21-42.6-4.14,2.63c.47.53.92,1.08,1.42,1.58a31.89,31.89,0,0,0,3.21,3.16,17.46,17.46,0,0,0,3.16,1.54c.5-2,1.89-4.46,1.24-6S1101.58,1050.53,1100.05,1049.71ZM531.34,215.88c-.53,0-1.22-.12-1.58.15-2.35,1.75-2.28,6.41.11,7.71a1.75,1.75,0,0,0,1.56-.11C533.78,221.88,533.69,217.26,531.34,215.88Zm-444,379.33c.2-2.33-.4-4.63-3-3.92s-2.48,5.85-.13,7.59c.36.27,1.41.31,1.52.12C86.32,597.77,86.8,596.45,87.32,595.21ZM347.4,423.87c-3.92-1.16-5.9-2.13-7.91-2.19-1.17,0-2.37,1.41-3.56,2.19,1.19.79,2.39,2.23,3.56,2.2C341.5,426,343.48,425,347.4,423.87ZM283.59,732.71c-1.37-2.35-6-2.44-7.75-.09a1.79,1.79,0,0,0-.11,1.56c1.31,2.39,6,2.46,7.71.11C283.71,733.93,283.55,733.25,283.59,732.71ZM352.1,452c-3.93-1.16-5.91-2.14-7.92-2.2-1.16,0-2.37,1.42-3.56,2.2,1.19.78,2.39,2.23,3.56,2.2C346.19,454.16,348.17,453.18,352.1,452Zm3,20.53-2.72-4.12c-.78,1.19-2.3,2.46-2.18,3.55.21,2,1.4,3.9,2.18,5.84Zm-39.5,71.68c-.54,0-1.22-.12-1.58.15-2.35,1.74-2.28,6.41.11,7.71a1.78,1.78,0,0,0,1.56-.11C318,550.23,317.92,545.6,315.57,544.23Zm461.07-4a5.59,5.59,0,0,0-2.13-6.16c-.78,1.95-2,3.84-2.18,5.85-.12,1.08,1.4,2.35,2.18,3.54C775.29,542.3,776.08,541.12,776.64,540.26ZM96,532.43c-.54-1-1.1-2-1.67-3-.52.53-1.55,1.16-1.46,1.55a14.37,14.37,0,0,0,1.46,3.14Zm918.38-13.07,1.67-1.67a15,15,0,0,0-3.15-1.47c-.38-.08-1,.95-1.54,1.47Zm-.68-32.16c-.52.52-1.55,1.15-1.46,1.54a14.44,14.44,0,0,0,1.46,3.15c.53-.52,1.56-1.16,1.47-1.54A13.83,13.83,0,0,0,1013.73,487.2ZM998,471.46l1.67,1.67a15.2,15.2,0,0,0,1.47-3.15c.09-.39-1-1-1.47-1.54Zm-810.49-68-1.67,1.67a15,15,0,0,0,3.15,1.47c.39.08,1-.95,1.54-1.47Zm-4.69-32.83-1.67,1.67a14.44,14.44,0,0,0,3.15,1.46c.39.09,1-.94,1.54-1.46Zm855.05-6.05,1.67-1.66a13.83,13.83,0,0,0-3.15-1.47c-.38-.09-1,.94-1.54,1.47ZM187.5,345.8l3-1.67c-.52-.52-1.15-1.55-1.54-1.46a14.44,14.44,0,0,0-3.15,1.46Zm321.31-10.37c-.54-1-1.11-2-1.67-3-.52.52-1.55,1.15-1.46,1.54a14.66,14.66,0,0,0,1.46,3.15Zm333-14.07c-.54-1-1.11-2-1.67-3-.52.52-1.55,1.16-1.47,1.55a15.2,15.2,0,0,0,1.47,3.15ZM536,178.29l-3,1.67c.52.52,1.16,1.55,1.54,1.47a14.74,14.74,0,0,0,3.15-1.47Zm193.31-36.53-1.67-1.67a14.23,14.23,0,0,0-1.46,3.15c-.09.38.94,1,1.46,1.54C728.17,143.76,728.73,142.74,729.27,141.76ZM96,635.63c-.54-1-1.1-2-1.67-3-.52.52-1.55,1.16-1.46,1.54a14.44,14.44,0,0,0,1.46,3.15ZM1076.38,1108l-1.67-1.66a14.37,14.37,0,0,0-1.46,3.14c-.09.39.94,1,1.46,1.55C1075.28,1110,1075.84,1109,1076.38,1108ZM249.16,871.83c-.53.52-1.56,1.16-1.47,1.54a13.83,13.83,0,0,0,1.47,3.15c.52-.52,1.55-1.15,1.46-1.54A14.44,14.44,0,0,0,249.16,871.83Zm660.7-14.75,3-1.66c-.53-.53-1.16-1.56-1.55-1.47a14.23,14.23,0,0,0-3.15,1.47Zm-2.34-105.54-1.67-1.66a14.89,14.89,0,0,0-1.47,3.14c-.08.39,1,1,1.47,1.55Z"/><path d="M1102.18,511.33l3,1.67c-.52.52-1.15,1.55-1.54,1.46a14.44,14.44,0,0,1-3.15-1.46C1101,512.48,1101.55,512,1102.18,511.33Z"/><path d="M513.8,358.59c-.55.54-1.31,1.54-1.49,1.44a9.32,9.32,0,0,1-2.76-2.13,2,2,0,0,1,0-2,2,2,0,0,1,2,0A16.76,16.76,0,0,1,513.8,358.59Z"/><path d="M701.79,210.32c.21,2.33-.39,4.63-3,3.92s-2.48-5.84-.13-7.59c.36-.27,1.41-.31,1.51-.12A40.27,40.27,0,0,1,701.79,210.32Z"/><path d="M803,384.39c.54.54,1.54,1.31,1.44,1.48a9.5,9.5,0,0,1-2.13,2.77,1.4,1.4,0,0,1-2-2A16.2,16.2,0,0,1,803,384.39Z"/><path d="M1044.22,548.18v-4.69q4.88-.18,4.69,4.69Z"/></svg>