<svg id="Layer_1" data-name="Layer 1" xmlns="http://www.w3.org/2000/svg" viewBox="0 0 1200 1200"><title>BB_Artboard 30</title><path d="M333.89,1034.85v-20.08c6.3-3.56,4.85-9.8,5.32-15.38,6.38-3.52,2.72-11,5.66-15.13,3.73-5.23,5.76-11.13,9-16.48,2.78-4.6,4.35-9.9,6.72-14.77.69-1.42,3.32-2.44,3.28-3.59-.2-5.91-.27-11.56,5.2-15.5-1.07-8.1,9.08-9.61,9.8-15.95.79-7,6.15-9.78,10.23-13.28,5.79-5,4.81-13.89,12.16-17.82,5.9-3.15,7.57-10,11-15.38,3-4.83,8-8.45,12.13-12.6-1.54-6.36,4.08-8.54,7.22-12,3.91-4.36,8.23-8.34,12.38-12.48,6.51-6.51,12.83-13.22,19.6-19.46,4-3.71,6.59-9.94,13.95-8.75,4.68.76,9.55-1.15,13.73,3.65,2.29,2.63,2.68-1.37,3.56-3.29,4.84-10.56,9.67-21.15,15.12-31.39,2.6-4.88,8.15-8.6,9.46-13.6,1.25-4.76,7.61-7.07,5.49-12.87,4.09-4.16,9.63-7.64,12-12.63,6.57-13.9,18.93-22.39,28.67-33.3,3.4-3.81,7.81-1.36,11.72-2,3.47-.58,6.18.48,8.76,3.18,5,5.22,5.88,12.48,1.33,17.2s-8.91,10.27-14.31,14c-7.81,5.46-7.82,16.09-15.79,21.29-7.67,5-8.33,15.56-15.83,21.18-1.8,1.34-1.07,6.07-1.46,9.25-.35,2.8-1.7,4.61-4.71,4.26s-5,1.13-5.23,3.7c-.38,4.88,0,9.29-4.14,13.58-2.28,2.35-2,7.47-5.64,10.05-4.37,3.13-6.35,7.17-5.63,12.83.23,1.86-2.27,4-3.22,6.08-1.92,4.28-2.8,9.08-6.61,12.33,1.22,6.11-1.57,10.81-4.8,15.65-.72,1.09,1.31,4.25,2.4,6.29,4.13,7.73,2.94,9.91-5.68,10-3.35,0-6.72-.24-10,0-5.37.48-7.69-1.72-7-7.07-6.9-7.62-8.25-15.64-1.52-24.08,3-3.75,1.44-7.94,1-11.8-.12-1-4.95-2.86-6.1-2.08-3.24,2.19-5.68,5.55-8.44,8.46,2.36,7.95-3.12,12.21-7.91,16.81-2.41,2.32-4.74,4.73-7.11,7.09-4.73,4.74-11.45,8.7-13.68,14.41-2.56,6.55-7.95,10.22-10.76,15.69-1.77,3.45-2.61,7.28-5.7,10.18-4.88,4.57-10.19,8.94-14,14.31-3.05,4.28-2.94,11.1-6.39,14.73-7.9,8.29-11.86,18.53-16.89,28.3-1.06,2.06-3.06,4.36-2.77,6.27.91,5.9-2.29,9.31-6.12,12.64-2.53,2.21-5.16,4.6-4.06,8.31,1.73,5.83-4.64,8.25-5,13-.34,4,.35,7.73-3.13,11.38-4.36,4.57-1.57,11.06-1.79,16.68a12.08,12.08,0,0,1-3.55,8.72c-1.31,1.38-2,4.88-1.14,6.54,2.42,4.9,5.83,9.31,8.55,14.07.34.59-1,3-1.76,3.16a43.68,43.68,0,0,1-7.51.16l-16.35-9c-1.45-1.86-3.84-2.86-3.63-6.08C334.16,1046.59,333.89,1040.71,333.89,1034.85Z"/><path d="M178.1,997.18c.84,0,2,.36,2.46,0,4.22-4,7.73-9.25,12.62-12.08,5.5-3.18,2.54-11.95,9.21-12.79,5.86-.74,8-5.41,11.53-8.52,4.4-3.84,8.14-8.43,12.52-12.29,9.21-8.12,16-18.8,27.34-24.71,10.45-5.44,16.31-16.42,25.72-22.88,5.2-3.56,10.8-6.36,15.57-10.81,4.6-4.3,8.1-9.55,15.06-12,5.7-2,9.1-10.36,14.81-12.57,9.81-3.81,15.7-11.44,22.46-18.26,4.65-4.7,12-4.36,16-10.36,3-4.44,6.77-9.59,13.65-9,2.73-4.77,3.58-10.64,8.81-14,2.06-1.31,3.53-3.54,5.4-5.19.51-.45,1.51-.41,2.29-.48,5.09-.51,7,4,9.59,6.8,1.14,1.23,1,4.81.06,6.53-2.36,4.19-8.53,5.89-8.84,11.34a8.63,8.63,0,0,1-5.26,7.72c-11.3,4.23-17.88,13.86-26.21,21.49-6,5.53-11.35,13.3-18.48,15.81s-9,12.64-18.18,10.95c-.93-.17-2.17,3-3.54,3.24-6.41,1.37-.6,12.88-9.83,11.59-4.29,3.76-8.69,7.41-12.85,11.31s-8,8.56-12.51,12.29c-4.88,4.08-8.07,9.75-15.09,12-5,1.6-9.15,6.85-12.77,11.23-4,4.85-11.58,7.3-11.19,15.36-5,4.07-5.44,9.5-5.29,15.48.05,1.75-3,3.58-4.62,5.37,7,3.74,1.24,7,.14,11-1.26,4.53.37,9.52-4.33,13.45-1.92,1.6,6.92,4.7,1,8.66-3.57,2.38-.86,7.95-5.26,10.42-3.58,2-1.46,6.09-1.67,9.22-.44,6.39,1.08,12.92-4.84,18.25-1.58,1.42-.11,6.31.17,9.59.05.64,1,1.42,1.73,1.7.4.15,1.23-.49,1.72-.93,1.23-1.13,2.74-2.16,3.49-3.57,1.44-2.72,1.78-6.32,3.8-8.34s7.68-2.1,8-3.79c2.21-10.86,12.26-15,18.13-22.64.36-.46,1.58-.16,2.26-.49,1.8-.88,5.74,1.24,5.57,3.39-.31,3.91.54,7.63-2,11.74-3.6,5.83-6.08,12.67-9.59,18.44-2.71,4.46-2.35,13.61-11.64,12.38-7.91,6.5-16.8,16.94-21.64,28.65-2.42,5.84-4.77,10-11.27,10.89-2.68.37-4.48,1.75-4.09,4.88,1.11,9-3.37,13.41-11.74,15.35-2.11.49-3.5,3.57-5.63,4.51-7.16,3.16-13-.69-12.72-8.25.17-3.92-1.36-8.09,2.39-11.56,5.4-5-.35-15.42,8.88-18.92,1.43-.55,3.63-2.7,3.4-3.4-3.84-11.15,7.43-15.41,10.75-23.26,3.63-8.59,7.26-17.36,9.17-26.19,1.5-6.94,9-12.27,5.55-20.36,8.33-4,2.38-13.7,8.09-19.35,5.12-5.07.73-12.73,3.44-23.92.92-4.55,0-4.39-.12-4-.57,2.12-.81,4.34-1.38,6.46-.65,2.38,0,3.19,2.35,2.31a3.39,3.39,0,0,0,1.68-1.51c1.71-3.45,1.12-7.52-2.53-3.26-12.4,10.43-24.41,14.4-28.25,28.62a9.74,9.74,0,0,1-11.79,6.37c-3.68-.89-5.63,2-8.24,3.83-3.07,2.16-12.66-2.71-13.38-6.42-.09-.45,1-1.2,1.65-1.71,5.56-4.37,2.47-10.5,3.26-15.83Q178.3,1002.41,178.1,997.18Z"/><path d="M383.48,580.05c1.34,10,.16,14.55-4.37,17.77,2.19,5.81-4.71,7.83-5.41,12.91-.47,3.42-4.63,6.32-7.07,9.5-.95,1.25-2.77,3.07-2.43,3.87,3.23,7.56-6.25,11.59-5,18,1.15,5.93-4.89,8.21-5.16,13-.24,4.16.93,8.68-.34,12.44-1.18,3.52-6.11,5.59-4.76,10.54-5.69,4.86-6.38,12.44-10,18.41,2.79,7.24-5.34,11-5.63,18A26.83,26.83,0,0,1,324.16,733c-6.67,5.72-7.7,11.86-1.9,19,2.93,3.57-1,3.74-2.76,3.89-5.75.47-10.45,5-10.25,8.79.46,8.56-7.71,14.48-5.57,23,.39,1.58.72,4.35-.05,4.85-6.67,4.34-2.59,12.89-6.55,17.34-5.4,6.07-2.49,12.53-3.24,18.79,0,.46,2.21,1.82,3.25,1.67,6.68-1,7.06-.82,6.64,4.16-.59,7.06-5.69,10.89-12.51,12.12-11.42,2-16-6.68-22.38-12.7-.85-.81-.34-3.19-.26-4.83.27-5.81.79-11.57-4.94-15.63-.76-.54-.57-4.36.06-4.64,8.13-3.55,2.31-12.52,7-17.33,5.38-5.54,2.29-12.55,2.72-18.86.26-3.77,3.59-5.79,4-8.34.83-5.1,5.47-8.07,6-12.59.58-5-.16-10,5-13.05-.92-6.21,3.37-13.36-3-18.53-2-1.62-2.19-2.25,0-3.68,1.32-.86,3.12-2.35,3.15-3.61.27-9.18.37-18.39,0-27.57-.09-2-2.75-3.83-3.52-6s-1.62-5.51-.6-6.56c3.1-3.18,5.25-6.4,4.24-10.86-1.14-5,5.05-6.43,4.95-10.46-.12-5.11,3.82-7.14,6.71-9.7,1.34-1.19,5-1.45,6.5-.44,3.38,2.34,5.75,6.14,9.14,8.46,1.43,1,5.94.43,6.4-.61,3.49-7.79,7.18-15.43,11.4-22.88,1.46-2.57-.2-7.05,1.43-9.36,5.91-8.37,9.16-18,13.73-27,4.26-8.37,11.91-13.39,18.21-19.73.76-.77,3.89-.58,4.64.28,2.86,3.28,6.55,4.13,10.32,5.59C383.81,576.71,383.94,581.65,383.48,580.05Z"/><path d="M97.7,1042.41c3.08-.67,7.13,1.86,9.19-1.8,4-7,12.52-6.94,17.52-12.27,5.71-6.07,11.75-11.83,17.65-17.73,5.3-5.3,10.19-11.15,16.06-15.73,4.32-3.38,3.47-10.93,7-11.8,8.95-2.19,13.06-9.4,19-14.67,5.6-5,10.66-10.56,16-15.8a1.89,1.89,0,0,1,1.66.54c.61,1.41,1.67,3.19,1.25,4.36-.77,2.15-2,4.58-3.85,5.82-9.75,6.68-11.91,19.27-20.95,26.56-1.22,1-.17,4.79-.17,7.29q-5.22-.2-5,5c-5.08-.18-6.17,5.08-9.63,7.06s-7.11,3.25-10.27,5.45c-3.38,2.36-5.67,5.44-5.81,10.24,0,1.26-5.94,1.72-8,3.74s-1.87,7.21-3.87,8c-3.66,1.48-8,.58-7.91,6.73,0,1.91-2.22,4.68-4.13,5.62-17.48,8.69-28.41,24.67-42.16,37.48-10.4,9.69-20.58,19.68-30.07,30.25-4.56,5.09-10.9,6.46-16.07,10.16-6.24,4.46-12.89,0-12.86-7.33,0-5-1.56-11.28.87-14.56,3.81-5.14,4.33-12.24,10.14-16.1,1.82-1.21,3.89-3.85,3.82-5.76-.18-5.32,7.41-7.18,5.25-13,2.92-3,6.58-5.52,8.55-9,2.31-4.1,3.23-8.72,7.2-12.13,6.1-5.23,7.18-14.32,14.24-19.18,6.12-4.21,5.49-13.27,12.3-17.64,2.82-1.81,3.73-6.6,5.51-10,11.14,3,5.94-9.49,11.84-12.64,5.08-2.71,11.47-7.1,11.09-15.2,0-.71,2.58-2.28,3.86-2.18a7.9,7.9,0,0,0,7.89-5c6.54-14.9,19.88-23.76,30.44-35,10.86-11.6,22-23,33.85-33.56,3.73-3.33,8.8-4.09,10.58-10.46,1.17-4.21,6.65-7.22,10.2-10.77,4.14-4.14,8.14-8.44,12.46-12.38,4.09-3.72,6.82-9.68,13.86-9,.53,0,1.78-1.23,1.68-1.67-1.94-9,6.89-7.13,10.58-10.19,4-3.32,4.83-2.55,4.93,2.63,0,1.67-.07,3.35,0,5,.2,4.18-.18,7.69-3.69,11.1-16.81,16.3-33,33.24-50,49.42-4.35,4.15-6,9.26-8.72,14.05-9.33.78-13.33,8.86-19.1,14.32-3.95,3.74-8.62,6.77-9.55,13.69-.53,4-6.54,7.18-10.09,10.73-4.14,4.14-8.43,8.14-12.37,12.47-3.18,3.48-2.08,9.61-7.15,12.07s-4.22,8.37-7.07,12.14-7.53,5.79-8.39,11.68c-.5,3.4-5.24,6-7.5,9.37-1.69,2.51-2.39,5.68-3.71,8.47a2.51,2.51,0,0,1-2,1c-8.6-.72-6.14,5.57-6.48,10.1-3.48-.13-5.15,1.55-5,6.15,0,.37.3-.67-.08-1a2.18,2.18,0,0,0-2.12,0c-1.65,1.16-3.72,2.6-.69,4.37.4.23,1.9-1.41,2.89-3.3C96.15,1047.56,97.83,1045.89,97.7,1042.41Z"/><path d="M685.7,978.27c4.91-1.18,6.57-5.72,9.47-8.38,2.69-2.48,5.24-3.7,8.65-2.26,2.59,1.11,3.17,4.83.17,8.41-2.3,2.74-2.14,6.41-3.69,8.48-4.46,6-10.57,10.66-15.58,16.25-4.11,4.58-8.44,7.59-15,6.6-1.21-.18-3.71,1.24-3.88,2.22-2,11.86-13.46,16.08-19.63,24.52-2.21,3-5.82,2.47-8.4,3.87-2.11,1.14-2.23,5.56-3.83,8.16-1.28,2.07-3.33,5-5.24,5.13-6.51.57-10.75,4.67-13.64,9.25-3.92,6.24-11.32,6-15.88,10.5-2.93,2.89-11.06,0-9.26,8.37.17.82-1.89,2.94-3.08,3.09-6.5.83-10.75,6.35-16.91,7.72-3.55,7.31-12.45,6.94-17.51,12.34-8.58,9.14-17.81,17.66-26.41,26.78-2,2.11-2,5.91-3.76,8.38-2.37,3.39-5.39,6.35-10.31,5.24-3.67-.83-5.83,1.66-8.63,3.48-3.77,2.46-4.34-3.14-6.94-4.29-2.38-1.06-2.17-2.13,0-3.57,5.27-3.49,2.89-8.82,3-13.54-6.37-3.53-3.39-10.34-5.49-15.28s-6.46-9-8.43-14.06c-1.48-3.75-2.76-7.13-5.27-10.46-1.63-2.15-1.13-6.55-.32-9.62.37-1.42,4.93-3.39,5.56-2.83,6.67,5.93,14.69,11.37,18.73,18.88,3.28,6.11,8.08,10,12.23,14.85,1,1.2,5.2,1.43,6.46.37,5.09-4.3,9.57-9.32,14.35-14,3.54-3.47,6.72-8.69,10.92-9.76,4.5-1.14,7.75-3.07,9.89-6.31,3.08-4.64,9-3.22,12.33-6.93,3.22-3.52,9.22-2.3,12.18-7.06,2.14-3.44,5.26-6.37,10.24-5.59.59.09,1.65-2.45,2.4-3.82,1.06-2,1.61-5.27,3.1-5.75,8.44-2.71,15.15-8.05,22.55-12.45,7.87-4.68,14.1-10.58,20.77-16.37,1.58-1.37,4.52-1.07,6.67-1.94s2.27-2.19.85-3.52c-2.61-2.44-9,.83-8.73-6,.18-4.17-1.66-9.84.41-12.21,3.39-3.87,3.36-9.22,6.7-12.37a42,42,0,0,0,10.58-15.76,72,72,0,0,1,5.28-10.35c2-3.44,6.89-4.66,7.26-9.56.49-6.48,9.1-8.17,9.57-13.43.56-6.1,7.65-8.8,6.17-15.14,4.14-4.14,9.42-7.65,12.11-12.58,3.11-5.7,7.08-10.51,10.56-15.75,3-4.55,6-9.23,8.84-13.88,3.11-5.09,5.63-11.11,8.44-16.44,3.59-6.82,6.3-14.59,13.1-19.82,6.21-4.78,8.53-5,14.1,1.14,2.15,2.37,1.54,3.39-.13,5.5a10.29,10.29,0,0,0-2.27,6.47c.77,10.26-1.54,17.86-13.48,19.26-2.36.27-2,1.94,0,3.51,1.45,1.13,4.7,2.68,1.15,5.22-4.18,3-3.33,8.52-6.75,12.42-3.85,4.4-4.07,11.87-7.69,16.63-3.87,5.09-7.26,10.32-10.76,15.6s-8.12,9.7-10.27,15.91-5,12-10.65,15.6c-7.71,4.85-7.27,12.23-7,20.89a1.29,1.29,0,0,0-.13-1.1,2.18,2.18,0,0,0-2.12,0c-1.65,1.16-3.71,2.59-.69,4.36C683.16,981.74,684.66,980.1,685.7,978.27Z"/><path d="M1107.77,664c.77,6.13-1,11.12-6,15.14S1095.5,690,1093,695.55c-2.13,4.83-7.75,8.77-5.49,15.4.36,1.07-1.07,2.8-1.76,4.18-1.74,3.47-2.87,7.57-5.47,10.2-3.59,3.61-1.68,7.81-2.9,11.47-1,2.86-3.61,5.29-5.87,7.56s-4.17,4.63-4.11,8.43-7.7,18.31-10,20.91c-2.09,2.37-6,4-4.85,8,3.41,11.27-5.07,16.49-11.07,23.13-1.25,1.38-4.61,1.9-2.84,5.29,1,2,7.89,6.82,10,6.1,1.41-.47,3.69-1.8,3.64-2.62-.77-12.78,13-10.51,17.83-17.35a2.43,2.43,0,0,1,2.35,0c.42.42.09,1.58.09,2.42,0,1.68.7,4.28-.1,4.89-12,9.07-16.15,24.93-28.45,33.33-6.13,4.19-6.21,11.08-10.17,16.16-3.49,4.48-2.75,10.56,2.52,15.3,2,1.82,8.76,3.4,3.09,8.73-6.6,6.2-7.18,6.32-13.93.17a26.9,26.9,0,0,1-3.52-3.56c-2.58-3.42-3.6.14-5.38,1-7.78,3.57-15.73,6.8-22.66,12-5-1.38-6.74,4.68-10.48,4.83a230.12,230.12,0,0,1-24.76-.78c-.67,0-1.58-2.66-1.66-4.13-.29-5,6.87-7.06,5-13-1.53-4.94,2.94-7.17,5.56-10.2,2.38-2.76,9.06-17.16,9.31-21.2s1.71-5.86,5.85-5.89c1.37,0,4-1.62,3.89-2.13-1.69-9.64,6-14.33,10.14-21.09,3.59-5.79,4.61-13.22,9.57-18.56-1.29-9.46,12-11.21,10.87-20.6,5.85-6,11.41-12.21,17.6-17.77,8.22-7.4,11.38-10.62,12.41-17,.52-3.25.68-6,3-8.88,4.07-5,12.71-7.55,11.82-14.93s6.91-11,5.58-18.09c-.37-1.94.82-5.22,2.39-6.31,5.73-4,6.45-11.25,10.78-15.6s5.81-9.41,8.74-14.07c2.75-4.38,6.85-6.76,12.63-5.88,2.76.41,4.7,1.11,5.4,3.68C1108.13,660.55,1107.78,662.32,1107.77,664ZM1005.48,860.77l1.79-1.78a15.34,15.34,0,0,0-3.37-1.57c-.41-.1-1.09,1-1.65,1.57Z"/><path d="M580.21,418l-5.11,12.8c-1,2.49-3.42,2.63-5.33,3.78A143.22,143.22,0,0,1,553.1,443c-6.39,2.74-10.62,7-15.46,11.18-3.83,3.29-2.1,9.52-7,12.21-4.66,2.54-4.52,8.41-7.37,11.86-4.11,5-4.23,11.8-10.06,16.3-4.39,3.39-6.64,10.48-8.13,16.36-1,4-.78,8-4.6,10.69.57,6.71-7.49,10.24-6,17.73,1.09,5.44-6.88,8.73-5,15.48,1.39,4.91-7.08,7.07-4.85,12.93s-6,7.71-5,13c1.09,5.52-2.48,8.91-4.93,13.06-2.33,3.94-5.5,9-4.73,12.81,1.38,7-6.92,9.39-5.47,15.56-3.88,3.21-3.71,9.15-6.85,12-4,3.65-2.49,9.1-6.51,12.75-2.24,2-1.1,7.66-1.77,11.61a16.79,16.79,0,0,1-2.18,6.58c-2.29,3.33-5.7,5.95-7.67,9.42-2.27,4-3.3,8.65-5.23,12.86-1.6,3.52-5.63,5.47-5.26,10.52.2,2.69-5.51,3.86-8,2-5.68-4.14-9.84-12.64-6-16.79,4.79-5.21,4.66-10.44,4.14-16-.59-6.2,3.41-10.48,4.72-15.61,1.39-5.4,7.42-8.59,5.74-15.42-1.34-5.45,7.09-8.77,5-15.5-.48-1.57,2.28-3.94,3-6.12,2.35-7.4,9.29-13.36,6.92-22.28-.4-1.5-.43-4.35.3-4.71,7.62-3.75,2.43-12.36,6.87-17.42,2.48-2.82,3.11-7.27,5.58-10.12,3.9-4.49,1.07-9.6,2.38-14.13,1.06-3.67,4.39-6.94,4.63-10.52.34-5.19,6.79-7,5.49-13-1.57-7.27,8.19-12.3,5.07-20.36,6-3.57,4.53-12.06,10.58-15.75,2.79-1.7,3.35-5.08,4.65-8,1.84-4.17,3.52-9,6.3-12.35A100,100,0,0,0,507,450.11c2.7-4.93,7.85-8.58,12.18-12.51,1.67-1.5,4.34-1.87,6.1-3.3,9.2-7.49,19.64-12.87,30.21-18,7.68-3.73,15.69-2.85,23.58-.47C579.61,416,579.79,417.17,580.21,418Z"/><path d="M429.37,156.25c2.19,9.26-8.14,16.06-5,25.51-3.06,8.18-6.71,15.79-13,22.32-3.55,3.69-4.74,9.62-7.1,14.49s-3.85,10.73-7.51,14.32c-7,6.88-9.42,17-17.43,23.09-3.88,3-9,6.75-9.71,10.82-1,5.89-5.29,8-8.1,11.82s-8.23,5.65-7.76,12c.13,1.7-2.76,4-4.69,5.41-8.73,6.46-10.63,18.27-19.46,24.59-.12,7.55-6.48,10.86-10.64,15.66,2.75,6.68-8,8.69-5.31,15.36-3.29,5.32-6.63,10.62-9.84,16-.36.62.22,1.76-.09,2.46-3,6.7-7.77,10.24-15.44,9.07-2.43-.37-5.05.2-7.37-.45s-2.17-2.05-1-3.47c1.48-1.8,3.43-3.87,3.6-5.95.49-5.81-1.59-12.54.69-17.29,2.11-4.39,5-7.91,4.6-13.23-.39-4.92,6.68-7,5.05-13-1.68-6.13,4.74-8,7.29-12,2.08-3.24,3.38-7,5.43-10.26,2.92-4.65,3.89-10.24,8.65-14.11,4.18-3.41,8.51-6.81,9.49-13.63.71-4.93,9.66-6.46,9.23-13.61,6.58-6,9.65-14.55,15.21-21.25,4.26-5.12,11.27-8.77,13.55-14.48s5.87-9.38,9.3-13.75a11.34,11.34,0,0,0,2-6.6c0-3.48.58-6.21,3.33-8.76,4.21-3.91,10-7.81,11.33-12.73,1.49-5.56,5.74-7.73,8.17-11.76,2.79-4.64,5.94-9.38,7.22-14.51,1.83-7.29,8.28-10.07,12.62-14.74,1.6-1.71,6.45-1.17,9.51-.42,1.44.35,2.64,3.51,3.1,5.59C429.77,151.14,429.37,153.74,429.37,156.25Z"/><path d="M1148,267.1c-.21,4.82,1.36,10.21-4.3,13.26.64,6.72-8,10.31-5.83,17.7,1.15,3.94-2.41,6.06-4.87,7.87-4.62,3.41-5.7,7.72-5.15,13,.25,2.46.94,6.44-.23,7.22-4.65,3.07-3.73,8.84-6.93,12.34-3.78,4.13-8.86,7.37-8.83,13.9-5.48,3.2-2.19,9.57-4.37,13.17-6.48,10.68-11.1,22.21-16.85,33.19-1.07,2.05-2.76,4.19-2.78,6.3,0,4.33-.47,8-4.28,10.85-8,5.93-12.91,14.34-15.71,23.52-1.4,4.59-5.32,6.09-7.31,9.55s-2.78,7.79-5.51,10.11c-5.17,4.4-7,10.57-10.63,15.73-3.3,4.72-8.1,8.4-12.23,12.53-4,4-4,3.93-15,2.31-1.64-.24-3.36.12-5-.06-4.18-.46-5.34-2-4.91-6.53.22-2.37-.13-6,1.2-6.85,4.75-3,2.71-9.13,6.82-12.47,4.46-3.62,10.42-7.78,11.41-12.6,1-5.08,5.27-7.67,6.17-12.74.73-4.12,5.9-7.46,9.1-11.15-2-6.44,7.48-8.82,5.48-15.28,4.72-2.68,4.42-8.22,6.87-12.2,2.86-4.63,5.72-9.3,8.13-14.18,2-4.14,3.21-8.7,5.18-12.88a18.06,18.06,0,0,1,4.47-5.64c4-3.43,5.27-7.35,5.93-12.75.72-5.95,6.7-10.92,4.81-18.06-.11-.44,2.44-2.24,3.81-2.3,3.8-.18,6.27-1.17,6.06-5.6-.12-2.45-.6-5.32.42-7.31,2.48-4.87,6-9.2,8.63-14s-1.43-11.94,5.37-15.32c-1.51-6.33,7-8.93,5.64-15.21,5.87-3.36,3.64-14.51,13.54-14.1.48,0,1.52-1.2,1.47-1.77-1-10.66,7.15-7.19,11.85-6.94C1144,254,1148,261.7,1148,267.1Z"/><path d="M137.9,708.88c0-3.35-1.28-8.75.22-9.68,7.65-4.78,2-14.24,8-19.61,4.76-4.24-1.38-13.68,6.86-17.11.33-4.76-1.14-9.6,3.7-13.66,2.68-2.25,3-6.84,5.2-10.3,7-11.12,6.61-25.73,16.22-35.83-1.62-6.37,4.45-8.22,7-12.15a55.7,55.7,0,0,0,5.33-10.32c5-12.94,12.85-23.7,22.93-33.21,3.87-3.66,5.72-9.36,9.11-13.65,3.08-3.91,9.38-6.8,10-10.79,1-6.79,6.37-9.23,9.26-13.88a61.67,61.67,0,0,0,6.19-12.41c1.57-4.75,2.54-6.72,7.68-7.06,1.38-.09,1.92-5.61,3.85-7.74a7.44,7.44,0,0,1,6.52-1.62c2.13.69,3.59,3.34,5.41,5.06,2.8,2.64,3.44,5.77.75,8.48-2.51,2.52-4.26,4.91-3.6,8.59s-.48,6.29-3.35,8.67c-8.21,6.78-14,15.18-16.78,25.61-.67,2.58-2.4,3.85-5.36,3.74-1.37-.06-4,1.36-4,1.88,1.19,11.28-8.38,18.48-10.52,28.29-1,4.82-7.41,6.87-5.77,12.83.22.79-2.05,2.46-3.37,3.46-11.35,8.62-15.21,22-21,34-2.29,4.75-6.75,8.75-5.52,15.42.83,4.49-5,7.26-5.8,12.59-.73,5-7.58,9.17-7.92,14-.65,9.29-5.77,16.12-9.25,23.9a16.35,16.35,0,0,0-1.76,6.74c.14,5.86.33,11.35-5,15.63-1.76,1.4.87,6.44,4.18,6.88,4,.52,6.91,2.11,5.49,5.82s-4.37,8.35-7.44,9a47.65,47.65,0,0,1-19.86,0c-3.05-.68-6.14-5.51-7.34-9.09C136.92,717.56,137.9,713.06,137.9,708.88Z"/><path d="M841.14,329.29c-4.39-7.26,7.35-10.82,5.15-17.41-2.32-7,7.73-9,5.2-15.54,4.81-2.63,3.75-8.88,7.1-12,3.72-3.49,2.34-7.51,3.11-11.38a11,11,0,0,1,3.9-5.82c8.63-6.73,8-19,15.88-26.08,0-5.72-.77-11.7,5.19-15.42-1.27-6.81,8.29-10.6,5-18,2.5-4.82,5.6-9.43,7.34-14.51,2-5.94,5.4-11.33,8.28-16.58,2.58-4.7,3.32-10.59,7.76-14.46s-.66-10.93,5.08-15.65c3.71-3.06,5.09-9.42,6.62-14.57,4.31-14.47,7.69-20.91,16.82-28.06,1.44-1.12,5-1.18,6.59-.18,7.37,4.53,8.49,10.61,4.8,18.78-3.52,7.78-10,14.54-8.19,24.31.36,1.9-1.39,4.36-2.54,6.36-4.82,8.4-9.35,16.86-7.31,27.06,1,4.86-4.3,7.52-4.53,10.51-.51,6.65-8,10.78-5.58,18a2.94,2.94,0,0,1-.27,2.35c-3.82,5-10,7.75-10.22,16-.15,5.66-3.93,11.91-7.7,16.59-3.94,4.88.89,11.42-4.89,15.8-3.48,2.65-2.54,9-6.93,12.12-.82.58.41,3.74-.44,4.67-4.5,4.95-11.53,8.8-13.52,14.49-2.38,6.8-6.61,11.17-11.34,15.31-4.31,3.77-5.42,7.85-5.07,13.1.09,1.35-1.41,4.07-1.84,4-8.49-1.3-7,7-10.37,10.52-1.75,1.78-3.3,4.35-5.42,5-1.88.59-5.27-.29-6.47-1.76S841.52,332.24,841.14,329.29Z"/><path d="M756,115.12c2,7-3.06,12.08-4.71,18.07-1.5,5.44,0,11.63-.7,17.38-.24,2-4.6,3.94-4.37,5.51,1.44,10.06-9.3,17.76-5.25,28,2.64,6.7-6.42,9.48-5,15.48,1.68,7.06-6.21,10.67-5.57,18,.48,5.71-7.14,10.76-4.54,17.95-5.57,3-4,10.34-8.65,14-3.86,3-5.73,7.19-7.6,11.88-1.42,3.58-3,7-4.2,10.83-2.09,6.53-3.6,14-9.57,18.52-4.56,3.46-4.78,7.82-5.44,12.94-.85,6.68,5.11,16.47-4,19.45-6.52,2.13-10.22-7-14.91-11.29-7.89-7.21-7.62-7.51-1.17-20.57-2.6-6.61,8-8.65,5.29-15.39-2.35-5.79,4.69-7.83,5.29-12.92.61-5.24,5.14-9.21,5.23-15.51.07-4.83,4.66-9.58,7.2-14.38,1.81-3.43,2.87-7.58,5.48-10.18,4.2-4.18-.88-10.32,3.47-13.64,4.1-3.13,2.84-7.24,3.65-11.14.77-3.68,3.49-6.9,4.72-10.54,1-2.93-1.29-6.78,2.18-9.13,5.23-3.54.91-9.84,3.74-13.44a19,19,0,0,0,4.52-10.84c.33-3.61,3.63-6.85,4.59-10.53s-1.12-8.27,3-11.32c3.52-2.57.6-4.19-1.38-4.46-4.87-.66-9.88-.25-14.73-1-2.45-.36-2.32-2.12-.16-3.43,3.2-2,2.54-5.75,3.91-8.36,1.11-2.1,5.79-2,8.12-3.85,3.9-3.1,7.15-7,10.75-10.51,2.64-2.57,11.27-4.76,13.44-2.68,3.36,3.23,8.76,5.57,7.36,12A24.51,24.51,0,0,0,756,115.12Z"/><path d="M550,186c1.87,7.5-1.67,12.72-7.34,17-6,16.5-17.61,28.72-30.2,40.25-2.49,9.4-11.06,15-14.66,24.08-2.18,5.48-3.58,12.42-10.13,16-5.88,3.21-7.84,9.8-10.87,15.47-3.36,6.28-12.89,8.34-12.31,17.53-4.17,4.81-8.83,8.71-11.19,15.5-1.91,5.47-9,8.9-10.26,15.84-.24,1.35-3.4,2.6-3.24,3.55,1.54,8.62-3.43,13.86-9,19-1,.92-1.09,2.88-1.38,4.4a4,4,0,0,0,.42,2.31c1.1,2.21,2.41,2.43,3.51.61,3.4-5.64,8.92-3,13.62-3.52,5-.54,2.46,3.55,2.32,5-.51,5.43-4.49,8.57-9.3,9.9-3.11.87-6.71-.25-10,.24-10.17,1.54-14.13-6.93-20.16-12.08-.15-6.33-1.69-12.37,2.2-18.76,6.43-10.59,10.33-22.61,17.34-33-.71-7.26,8.61-8.88,9-13.68.48-6.23,7.86-8.83,6.08-15.25,4.08-4.17,8.14-8.35,12.23-12.52,2.35-2.39,6.73-4.73,6.75-7.11,0-8.7,10.16-10.67,11.08-18.14.71-5.79,6.15-7.45,8.81-11.45,2.15-3.25,1.44-7.6,5.23-10.49,7.12-5.44,8.26-15.77,16.09-20.88-.2-10.06,10.74-12.2,13.88-19.38,2.34-5.36,4.23-12.1,9.45-12.9,7-1.07,9.08-6.68,13.73-9.66a6.78,6.78,0,0,1,4.62-.78c2.6.54,4,2.27,3.71,5.27C549.77,180.89,550,183.43,550,186Z"/><path d="M841.5,611c-.09-4.6-.94-8.77,3.29-11.73,3.36-2.37,1.42-6.18,1.58-9.31.22-4.11,1.62-7.42,3.28-11.23,3-7,8.84-13.23,7.12-22.27-1.19-6.18,8-10.57,4.77-17.94,2.8-3.89,5.52-7.43,5.36-13-.11-3.44,4.14-6.88,4.42-10.48.4-5.14.46-9.85,5.3-12.94-2.39-7.13,2.72-12.17,5-18,2-5.06,4.74-9.5,5.67-15.38.86-5.43,5.55-11.07,8.34-16.5s4.94-11.66,8.11-16.53c2.42-3.71,9.41-4.79,14.59-6.21,2.89-.79,3.31-6,7.32-3.78a13,13,0,0,1,3.55,3.5c3.7,4.8,3.71,10.78,0,15.32-1.59,1.93-4.53,3.29-5.11,5.4-1.85,6.77-9.43,11.59-7.19,19.56,2.05,7.26-5.91,11.08-5.29,18,.63,7.12-6.77,12.29-5.2,20.55,1.16,6.13-5.75,10.73-7.32,16.82-.57,2.24-1.86,4.31-2.31,6.55-.93,4.63,1.78,9.81-2.89,13.92-4.39,3.87-1.17,9.43-2.29,14.07-.53,2.2-2.27,4.07-3,6.25-2.54,7.33-9.3,13.32-7,22.23.95,3.63-1.71,5.8-3.49,8.6-2.87,4.5-4.22,9.93-6.56,14.8-8.08,16.82-8.5,16.57-26,9.2C839.57,618,842.25,614,841.5,611Z"/><path d="M117.8,233.18c.71-4.66-2.07-10.24,1.92-14.08,4.2-4,3.48-10.38,8.51-14.3,4.08-3.18,6.09-9,9.1-13.59,3.46-5.27,11.49-7.45,10.62-15.66l12.41-12.41c4.14-4.14,8.58-8,12.34-12.47,5.67-6.71,14.72-10.77,16.3-20.88.16-1,5-.63,6.3-2.11,4.69-5.35,12.84-8.18,12.95-17l10-5.45c-1-7.16,5.48-9.53,8.86-13.88,9.16-11.78,24.55-16.22,33.39-28.37,5.71,1.53,7.89-5.51,12.75-5.41,4.14.08,5.3-3.47,8-5.09.61-.37,1.64-.06,2.48-.06,5.84,0,11.7-.15,17.52.21.91.06,2.13,2.41,2.36,3.83s-.22,4.16-1,4.39c-14.34,4.49-21.41,17.53-31.27,27.06-4.39,4.24-10.28,4-14.4,8.34-3.88,4.13-2.49,13.64-11.88,12.32l-14.18,14.19L216.7,137c-4.73,4.73-9.24,9.7-14.24,14.12s-5.07,11.58-10.46,15.87c-5.84,4.66-10.76,10.49-16.08,15.81-4.72,4.73-9.62,9.3-14.13,14.23-4.83,5.28-5.77,13.39-12.45,17.39-.91,7-8.2,12-6.46,19.92a3.12,3.12,0,0,1-.65,2.2c-2.58,3.37-7.76,1-10.5,5.21-2.36,3.65-3.22-1.81-5.13-2a4.79,4.79,0,0,0-3.47,1c-1.9,1.91-4,3.08-5.17,0C117.12,238.55,117.8,235.78,117.8,233.18Z"/><path d="M675.22,680.6c-1.39-.68-3.29-1-4-2.14s-1.17-4.07-.51-4.57c7.42-5.5,9.62-14.62,15.19-21.4,3.92-4.78,7.81-10.22,9.49-16,1.78-6.13-.84-13.82,1.7-19.35s8.65-9.16,10.23-15.84c.51-2.17,3.66-4.39,3.25-6-1.88-7.26,7-11.25,5.18-18-2.61-9.54,8-16,5.54-25.31,3.2-5.35,6.49-10.65,9.55-16.08.74-1.31.2-3.58,1.14-4.48,4.67-4.51,8.78-9.17,10.7-15.67.62-2.11,3.12-4.71,5.18-5.15,5.11-1.1,9.41-2,8.68-8.78-.06-.58,2.51-1.51,3.92-2.16,4.91-2.24,9.94-4.25,14.75-6.69,7.86-4,14.29-4.85,15.2-1.45,1.24,4.58,2.26,9.39-2,13.6-3.45,3.42-2.26,11.49-10.39,10.24L766.06,528c1.12,8.13-9.16,9.42-9.83,15.9-.59,5.74-7.59,8.77-5.47,15.49.5,1.61-1.58,4.25-2.87,6.15-2.63,3.88-3,8.68-6.58,12.51-2.08,2.24,0,8-.47,12.15-.63,5.41-7,8.93-5,15.49,1.6,5.3-3.27,8.8-4.44,13.05-1.23,4.46-3.81,6.93-6.34,10-1.52,1.83-4.26,4.1-4,5.72,1.64,9.17-4.78,13.79-10.35,18.27-4.26,3.42-3.47,10.63-7.08,11.77-5,1.59-9.17,3.7-11.77,7.69-3.07,4.71-9.69,1.91-12.39,6.89C678.94,680,676.69,680.1,675.22,680.6Z"/><path d="M806.26,381.58c0,1.68.63,4.44-.09,4.86-8.32,4.78-1.7,16.48-10,21.1.74,3.82-1.68,6-4.11,8.35-3.63,3.46-7.12,7.08-10.67,10.63,3.68,10.93-7.35,15.31-10.57,23.22-4.08,10-9.91,19.31-14.82,29-3.92,7.73-6.17,16.35-13.57,22a19.58,19.58,0,0,0-7.56,12c-.75,3.44-7.43,5.64-8.08,9-1.57,8.26-8.13,12-12.88,17.3a20.14,20.14,0,0,1-7.63,5.66c-3.83,1.39-5.32-3-8-4.6-1.95-1.13-4.7-.89-6.63-2-.9-.54-1.15-3-.86-4.45s1.6-2.67,2.54-3.94c2.81-3.79,8.65-5.71,7.38-12,4.31-3.31,6-7.67,5-13-.63-3.22,1.82-4.63,3.64-6,8-6,12.64-14.68,16.11-23.48,1.66-4.22,4.21-6.88,7-9.61,2.6-2.55,3.87-5,3.54-8.68-.2-2.29-.76-4.68,1.62-6.85,12-11,15.26-27.16,23.33-40.5,2.79-4.61,3.4-11.2,7.13-14.41,7.64-6.58,9.06-17.37,17.44-23.14,3-2.09,11.17-4.58,13.53-2.45C802.53,372.74,807.53,375.42,806.26,381.58Z"/><path d="M859,881.6c-4.17,0-8.35-.21-12.5.07-3.17.22-5-1.46-4.92-4,.32-6.26-2.78-13.5,4.35-18.16.44-6.48,0-13.2,7-17.21,1.88-1.09,4.68-2.84,3.55-5.91-2.42-6.6,4.18-10,5.22-15.42s6.59-9,5.14-15.52c-.35-1.56,2.47-3.81,3.77-5.78,3.47-5.3,10.21-7.6,11.44-15.38.92-5.91,10.72-7.81,9.76-15.87,4-4.07,7.4-8.81,14.46-7.57,4,.7,7.35,3.49,5.37,5.91-4.33,5.32-3.32,12.43-6.21,17.43-3.06,5.31-4.17,12.34-10.12,15.91l-8.62,16.44c.06.81-.17,2.07.24,2.33,1,.65,3,1.49,3.38,1.1,4.85-5.24,11.16-9.1,12.85-17.21.69-3.28,10.72-.13,8.65-8.41l20.1-21.7c1.22-10.33,11.63-13.29,16.59-20.64a2.71,2.71,0,0,1,2-1c1.58,0,4-.12,4.54.75,1.17,1.9,2.47,5.94,1.81,6.41-7,4.91-8,14.15-14.06,19.25-6.41,5.42-6.24,15.14-13.93,19.45-1.09.61-1.33,2.7-2,4.09-1.67,3.48-4,6.8-4.86,10.47-1.23,5.51-6.62,7.16-9,11.31-1.94,3.33-1.35,7.84-5.34,10.33-7.17,4.47-6.53,14.71-14.12,19.2-7.25,4.29-6.87,14.37-14,19.32-2.8,1.93-3,7.57-5.73,9.69-2.1,1.61-6.43.32-9.76.32Z"/><path d="M137.9,492.91c0-3.34-1.29-8.74.21-9.67,9.81-6.14.29-18.07,8-24.53,1.05-.88,1.58-2.71,1.83-4.19.89-5.42-1.83-11.28,3.37-16.21,4-3.8.31-9.67,1.86-14.17,1.74-5.08,4.88-9.65,7-14.61,3.36-7.83,9.39-14.49,8.2-24.28-.73-6.05,7.84-10.59,4.75-17.9,4.86-5.29,8.82-12.16,9.44-18.42.76-7.76,5.91-12.79,7.67-19.55.58-2.2,3-4.27,2.82-6.24-.92-10.25,8-13.56,13.25-19.33.7-.76,3.6-.55,4.68.27,2.64,2,6.56,4.41,6.83,7,.76,7.18,2.79,15.28-1.33,21.55-2.57,3.89-3.48,7.24-3.09,11.28.52,5.36-.64,9.65-5.31,12.91-1.93,1.35-4.74,3.77-4.57,5.43,1.17,11.27-7.66,18.64-10.58,28.31-1.74,5.77-7.45,10.34-9.27,16.11-1.63,5.19.49,11.58-5.52,15.27,1.05,9.44-6.38,16-8.3,24C167.62,455,161,463,162.88,473.26c.9,4.74.64,9.53-4,13.43-2,1.67,5.76,3.43,2.64,6.71-2.75,2.88-4,4.74-.07,7.19,2,1.23,1.69,2.12-.3,3.63-1.61,1.22-4.23,2.82-.92,5.25,2.11,1.55,3.32,3.85.22,5.12-2.14.87-4.94.17-7.44.17-.83,0-1.67,0-2.5,0-6.88-.18-12.42-5.35-12.59-11.83C137.83,499.59,137.9,496.25,137.9,492.91Z"/><path d="M1039.13,173c8.25,0,8.28,0,8.34,8.61,0,.83,0,1.67,0,2.51.36,5.41.2,10.37-7.54,9-2.52,3.14-7.09,6.26-7.11,9.42,0,6.53-2.24,11-7.07,14.8l-8.44,16.57c1.86,8.24-7.18,10.83-8.73,16.37-1.7,6.09-7.39,10.07-6.8,17.55.45,5.77-7.2,10.73-4.65,18,.14.39-1,1.77-1.47,1.75-7.28-.27-8,5.81-10.38,10.39-2.54,4.82-6.63,9.15-7.95,14.23-4.17,16.1-17,25.25-27.45,36.32-4.5-.26-7.73,1.93-10.34,5.31A30.16,30.16,0,0,1,937,350.1a3,3,0,0,1,0-2.45c2.58-4.79,4.6-10.12,8.13-14.11,4.16-4.7-.56-11.1,4.85-15.83,3.72-3.25,5.34-9.35,6.91-14.48,1.38-4.5,7-7.13,5.22-12.92-1.54-4.9,4.61-6.66,4.79-10.46a9.88,9.88,0,0,1,4.66-8.12c5.58-3.89,6.28-9.28,5.59-15.3-.4-3.45.64-6,3.09-8.8,6.69-7.54,14-22.69,17.07-33a123.46,123.46,0,0,1,5-13,8.72,8.72,0,0,1,2.86-3.79c5.12-3.34,6.62-8.81,8.87-13.93,2.59-5.91,10.1-4.53,13.83-8.88C1031.21,171.16,1035.7,173.93,1039.13,173Z"/><path d="M580.12,866.52c0,9.45,0,9.45-5,20.49,1.9,4-7.82,4.8-2.66,9.44,5.44,4.89-3.61,5.85-2.32,9.37.76,2.07,1.53,4.89,3.14,5.72,2.74,1.42,9.61-1.37,3.84,6.06a41.35,41.35,0,0,0-6.81,14.64c-1.18,4.45,1.38,10.49-7,9.93-1-.06-2.21,3.53-3.23,5.47-5,9.61-10.57,19-14.91,28.94-3.12,7.13-8,12.61-14.59,15.2-4.27,1.67-9.62.17-13.17,4.94-.62.83-4.79.07-6.47-1.14-6.51-4.69-6.88-7.06-3.35-13.76,1.8-3.43,3-7.38,5.47-10.21,2.76-3.16.86-7.9,5-10.65s.81-7.77,1.93-11.61c.21-.7,1.32-1.09,1.69-1.8q10.68-20.64,21.27-41.34c5.62-11.05,11.1-22.2,16.63-33.27,2.58-5.16,8.69-10.31,5.64-17.82-.32-.8,1.46-2.7,2.56-3.8,1.62-1.62,4.51-4.55,5.1-4.17,2.75,1.76,6.09,4.1,7,6.92C581,857.89,580.12,862.34,580.12,866.52Z"/><path d="M404.24,280.65c-.15.7.22,5.46-1.66,6.64-7,4.36.5,13.82-6.92,17.44-6.18,15.11-15,29-21.28,43.95-1.57,3.74-2.71,5.16-6.42,5.39-1.35.09-3.86,1.88-3.74,2.42,2.56,11.41-6.71,16.08-12.73,22.45-3.39,3.57-2.39,9.17-6.94,12.35-4,2.82-7.14,7-10.66,10.54,1.5,6.36-4.49,8.24-7.15,12.13a20.72,20.72,0,0,0-2.85,6.34c-2.39,9.1-2.32,9.12-12.58,9-6.84-.07-6.58-.76-7.77-6.42-1.9-9,3.07-16.24,7.11-22.15s7.49-12.19,11.83-17.88,7.94-11.95,12.58-17.34,5.33-13.77,12.33-17.56c1.47-6.64,7.08-10.57,10.3-15.9,3.53-5.84,6.31-12.39,9.27-18.71,1.64-3.51,3.37-7,5.35-10.34s6.35-4.76,7-9.72c.73-5.29,5.26-9.18,5.32-15.53,0-4.89,5.39-9.19,4.78-15.53-.42-4.4,5.32-5.51,9.15-1.85,2.9,2.77,6.63,5.1,5.73,10.21C403.89,273.05,404.24,275.62,404.24,280.65Z"/><path d="M574.9,481.22c12.37-6.22,11.85-20.71,20.3-29.28-2.28-5.86,4.91-7.8,5.3-13,.26-3.59,3.21-6.94,4.72-10.5,1.82-4.28,4.94-7.7,6.29-12.5a30.16,30.16,0,0,1,8.74-13.75c4-3.59,3.92-8.82,7-12.24,2.45-2.69,2.27-6,3.73-8.5,1.26-2.13,5.87-2,8.14-3.87,4.49-3.72,8.32-8.22,12.55-12.28,3.06-2.94,7.8-1.7,8.53,3.31s7.21,7,5.5,13c-.85,3,.57,6.86-4.14,7.46-6.54.83-9,4.92-11.4,10.79-3.21,7.81-7.54,15.24-11.17,23-1.32,2.81-4.54,4.88-3.57,8.54,2.39,8.92-4,15.13-7.13,22.17-1.31,2.94-3.42,5.34-3,8.82.69,5.26-1.48,7.06-6.87,7.38-4,.24-2.25,5.41-3.87,7.79-3.55,5.22-13.05,12-20.86,16.08-3.36,1.75-6.08,1.34-8.61-1.47-1.67-1.86-3.57-3.53-5.29-5.35C578.31,485.19,576.87,483.46,574.9,481.22Z"/><path d="M1051.36,1137.88c-7.55-.05-11-.4-14.92-2.88a91.68,91.68,0,0,0-16.68-7.89c-5.53-2-8.34-9.8-15.78-10.3-.67,0-1.37-2.63-1.69-4.12-.66-3.11,1.34-4.46,4-4.9,1.63-.27,3.38.22,5-.1,5.45-1.08,7.16,6.3,13,5.25,4.85-.87,10-.38,15,0,1.31.09,2.36,2.24,3.79,2.81,11,4.39,16.49,3.54,23.74-4.78,4.65-5.33,8-11.78,12.56-17.22,4.26-5.09,9.33-9.51,14-14.22,3.53-3.54,7.15-7,10.58-10.64s7.71-5.26,11.8-7.58c3.66-2.07,3.38-9.44,10.58-10.06,3.57-.3-.75-8.81,5.81-8.76,4,0,4.5-2.35,6.2-5.48,3-5.52,7.8-10.39,12.76-14.39,2-1.59,6.41-.28,9.68.09.49.05,1.2,3.15,1,3.24-4.48,2.17-2.51,7.57-5.25,10.42-5.78,6-13.86,10.87-17.06,18a45.86,45.86,0,0,1-13.14,16.89c-3.75,3.1-1.91,8-5.18,10.43-2.43,1.76-6.42,1.72-8.31,3.77-5.93,6.43-14.44,10.76-16.28,20.74-.67,3.64-8.89-.73-8.82,5.84,0,4-2.24,4.6-5.54,6.16-5,2.33-8.73,7.08-13.11,10.69C1062.89,1133.92,1055.8,1137,1051.36,1137.88Z"/><path d="M181.36,826.32c-2.5,0-5,0-7.5,0-4.47-.08-5.2-1.38-5.91-5.65-1.28-7.69,2.29-13.94,5.16-20.44.62-1.42,1.29-3.16,2.48-3.92,5.82-3.76,7.54-10.15,10.51-15.72,2.62-4.92,8.86-3.37,12.1-7.05-3-9.9,7.61-5.95,10.49-10.19,2.76-4.06,6.9-7.19,10.45-10.72.58-.58,1.39-1.72,1.77-1.6,7.16,2.26,12.16-2.82,18-5.06a3.27,3.27,0,0,1,2.33.31c2.13,1.08,2.13,2.11.92,3.55-1.48,1.78-3.25,3.83-3.57,6-.6,4,.23,7.73-3.34,11.28-3.17,3.16-2.6,9-7.21,12-12.8,8.26-16.33,23.27-24.78,34.72-.75,10.73-7.63,13.22-16.87,12.59C184.71,826.23,183,826.32,181.36,826.32Z"/><path d="M1127.84,761c-7.53,0-15.06-.2-22.57.12-2.54.11-3.17-.07-2.58-2.64.36-1.59-.64-4,.19-4.87,2.8-2.86,5.81-6.33,9.37-7.37,3.8-1.1,4.88-2.36,5.82-6.09,1.18-4.7,4.47-8.87,10-9.19,4.91-.29,4.4-3.47,5-6.74.38-2.12,2-4.51,4.57-1.24,1.57,2,4.36,3.5,5,.31s1.07-6.11,3.72-8.62c1.87-1.78,9.09-8.56,11-9,1.51-.33,3-.86,4.49-1.25,1.87-.49,2.06-5.3,5.3-2.17,3.62,3.47,7.28,6.93,10.55,10.72.85,1,1.07,4,.35,4.63-5.11,4.24-3.45,10.65-5.53,15.35-1.94,4.38-4.16,8.1-4.64,13.22-.58,6.15-7.14,8.62-10.62,13.08-2.59,3.31-6.21,1.49-9.33,1.63C1141.22,761.19,1134.53,761,1127.84,761Zm1.33-15.07a25.5,25.5,0,0,0,4.87-.06c2.51-.49,4.37-1.77,3.91-4.84-.12-.8.28-1.8-.07-2.41-1.46-2.47-2.79-2.19-5.09-.38s-5.49,2.32-8.23,3.53c-.67.3-1.59,1.14-1.55,1.67a2.58,2.58,0,0,0,1.62,1.67A32.69,32.69,0,0,0,1129.17,745.92Z"/><path d="M790.21,977.08a8.55,8.55,0,0,1-2.48,0,31.88,31.88,0,0,1-6.44-2.47c-1-.61.22-10.79,1.5-11.62,10.6-6.92,13.62-19.91,22.78-28.1,8.68-7.74,16.68-16.25,24.73-24.66,2.51-2.62,5-3.87,8.6-3.55,3.21.29,7.28-.63,7.4,4,.09,3.91,3,5.53,4.43,8.24.9,1.65.64,5.61-.57,6.46-8.29,5.83-9.14,17.13-17.43,22.91-4,2.8-5.07,7.83-7.47,11.75C818.85,970.45,802.07,979.62,790.21,977.08Z"/><path d="M647.69,796.17c-2.59,0-5.09,0-7.59,0-3.31,0-6.46-4.2-4.56-6.69,3.05-4,5.77-7.59,5-13-.74-5,4-7,6.83-9.57,5.85-5.27,9.13-10.86,8.4-19.24-.58-6.58,4.63-11.59,12.41-11.46,6.37.1,8.33-4.57,12.07-7.43-2.06-6.46,7.55-8.78,5.44-15.27,3.35-3.61,6.86-7.1,9.94-10.93.84-1,.21-3.18.58-4.74a3,3,0,0,1,1.73-1.7,2,2,0,0,1,1.66,1c.89,7,3.41,13.94-2.87,20.47-7.12,7.39-13.53,21.39-15.84,33.35-.75,3.88-5.41,5.35-5,7.83,1.11,5.94-6.14,7.66-5.37,13,.62,4.24.08,8.23-4,10.85C665,793.73,658.2,797.62,647.69,796.17Z"/><path d="M1092.7,766c.81,7.8-2.11,13.11-10,15.08C1081.84,773.3,1084.77,768,1092.7,766Z"/><path d="M1102.75,761c-1.08,1.68-1.81,4.15-3.34,4.83-1.89.84-4.44.2-6.71.2,1.09-1.68,1.82-4.15,3.34-4.82C1097.93,760.35,1100.49,761,1102.75,761Z"/><path d="M1082.61,783.35c-1.91,3.2-4.84,3.25-7.91,2.29-.66-.2-1.67-1.41-1.58-1.54.71-1.09,1.52-2.68,2.54-2.87,2.26-.43,4.65-.13,7-.13C1082.65,781.88,1082.92,782.82,1082.61,783.35Z"/><path d="M1075.52,791.56c.59.58,1.66,1.4,1.55,1.59a10.19,10.19,0,0,1-2.28,3,2.14,2.14,0,0,1-2.11,0,2.17,2.17,0,0,1,0-2.11A17.6,17.6,0,0,1,1075.52,791.56Z"/><path d="M211.49,951.23l-3.24-1.79c.56-.56,1.24-1.66,1.66-1.57a15.55,15.55,0,0,1,3.37,1.57Z"/><path d="M718.73,957.39c.58.58,1.65,1.4,1.55,1.59a10.19,10.19,0,0,1-2.28,3,2.12,2.12,0,0,1-2.11,0,2.15,2.15,0,0,1,0-2.1A18.17,18.17,0,0,1,718.73,957.39Z"/><path d="M715.81,964.25c-1,.77-2.5,2.41-2.9,2.18-3-1.77-1-3.2.69-4.37a2.2,2.2,0,0,1,2.13,0C716.1,962.46,715.81,963.5,715.81,964.25Z"/><path d="M452.39,369.43c.58.59,1.65,1.41,1.55,1.59a10.06,10.06,0,0,1-2.28,3,2.14,2.14,0,0,1-2.11,0,2.17,2.17,0,0,1,0-2.11A18.17,18.17,0,0,1,452.39,369.43Z"/></svg>