<svg id="Layer_1" data-name="Layer 1" xmlns="http://www.w3.org/2000/svg" viewBox="0 0 1200 1200"><title>BB_Artboard 54</title><path d="M816.93,1123.25c-5.41-.81-9.55.79-13.18,5.25-2.45,3-1,4.25,1.25,4.81s5.87-.1,6.28,2.54c.23,1.5-2.81,3.75-4.67,5.3-4.3,3.56-11.12,3.38-14,9-2.62,5.13-9.19,2.53-12.48,7-3.46,4.73-8.93,8-12.26,12.81-6.16,8.86-14.6,9.08-24.16,9.84-7,.56-9.22-7.82-15.72-5.59-2.67-4.75-6.83-9.27-7.66-14.32-1.17-7.12-2.25-15.13,6-20.28,5.68-3.54,4-12.08,10.66-16,5.64-3.39,9.46-9.66,14.63-14,7.11-6,10.5-14.11,14.29-22.1,3.53.13,5.23-1.57,6.58-7.45.5-1.54-.63-.85-1.42.12-.37.46-.06,1.47-.06,2.23.76,0,1.77.31,2.22-.07a10.32,10.32,0,0,0,2.32-3c.1-.19-1-1-3.06.72-5,2.22-6.71,3.92-6.58,7.45-3.13.68-6.65-1.5-9.47,1.73s-6.15,5.85-8.88,9.06c-2.94,3.47-6.25,5-10.87,4.61a92.49,92.49,0,0,0-12.68-.06c-7.7.34-12.93-2.82-14.11-10.6-.6-4-3.76-5.31-5.8-7.77-2.36-2.83-5.51-3.46-8.43-.35-3.52,3.75-7.29,3.42-11.42,3.38a18.3,18.3,0,0,1,1.48-7.45c.5-1.54-.63-.85-1.42.12-.37.46-.06,1.47-.06,2.23.76,0,1.77.31,2.22-.07a10.32,10.32,0,0,0,2.32-3c.1-.19-1-1-3.06.72-2.89,2.91-5.34,3.23-5.53,4.07-.69,3.06,1.57,3.56,4,3.38-4.66,11.61-15.41,15.62-26.66,20.42-.38,0,.68.29,1.06-.09a2.24,2.24,0,0,0,0-2.15c-1.19-1.68-2.64-3.78-4.44-.71-.24.41,1.43,1.94,3.35,3,1.76,4.29-2.18,5.58-4.34,7.87-3.31,3.51-9.16,2.52-12.4,7.15-2.82,4-6.79,9.3-10.9,10-6,1-8.71,4.83-11.92,8.28-5.7,6.15-13,9.27-20.3,12.65-1.42.66-4.24,1.14-4.22,1.63.23,7.53-6.89,7.28-10.46,10.74-3.77,3.65-9.27,2.42-12.81,6.74-2.53,3.1-8.7,2.73-11.51.38-6.38-5.34-11.66-12-17.38-18.11,1.37-5-4.32-6.57-5.17-10.61-1.07-5.07,5.23-6.19,5.21-10.64,0-4.06-.5-7.85,3-11.58,4.42-4.71,10.8-7.69,12.48-15.15,1.54-6.87,9.73-9.28,12.69-15.11s7.88-10.59,10.51-16a56.22,56.22,0,0,1,13.2-17.37c5-4.52,4.93-12,10.66-16.08,5.4-3.84,4.08-12.2,10.72-16.07,5-2.89,9.06-7.76,12.65-12.43,7-9.08,19.57-13.64,21.72-26.63,7.8-7.81,15.93-15.33,23.26-23.55,3.06-3.44,2.63-9.27,7.3-12.25,4-2.56,6.54-6.31,12.19-7.77,6.17-1.6,9.94-8.76,7.77-16.56-.21-.73-.76-1.76-1.35-1.92-3.28-.88.83-2.83-1.76-.62a38.74,38.74,0,0,0-5.39,5.4c-5.75,7.32-14,10.63-23.23,14.37h1.14c0-.76.3-1.73-.06-2.23-1.18-1.68-2.64-3.78-4.43-.71-.24.41,1.43,1.94,3.35,2.94,1.76,4.3-2,5.87-4.4,7.81-3,2.44-7.19,3.35-10.3,5.68-3.37,2.51-6.1,5.9-9.11,8.9-2.4,2.41-4.64,6.65-7.24,6.88-8.42.74-11.31,9.24-18.28,11.56-1.5.49-3.54.47-4.43,1.48-4.42,5-9.94,8.05-15.88,11-4.32,2.17-7.38,6.9-10.95,10.55s-9.77,2.14-12.33,7.2-9.09,4-12.09,7.41c-3.59,4.07-9.36,2.35-12.79,6.83-2.39,3.13-10.77.65-8.73,8.84.11.47-.87,1.52-1.55,1.82-5.78,2.48-12.09,4.09-17.26,7.47-4.88,3.19-7.88,9.63-12.94,12-6.1,2.91-11.56,6.1-15.68,11.25-3.3,4.13-8.32,4.83-12.23,7.41-6,4-13.52,5.72-18,12.27a38.67,38.67,0,0,1-10.83,10.69c-3.25,2-8.13,1.62-10.33,5.67-3.49,6.42-11.94,4.8-16.15,10.66-3.92,5.45-9.43,9.76-14.24,14.57-4.21,4.21-8.38,8.45-12.64,12.61-3,2.93-5.94,7.88-9.22,8.15-6,.5-10.64,3.52-15.86,5-6.71,2-14.46,1.86-20.46-5.44-8.35-10.15-12.58-19.75-11.44-33.56a11.31,11.31,0,0,1,2.68-6.46c9.45-9.79,18.66-19.91,29-28.64,4-3.34,9-4.39,10.57-10.74,1.12-4.46,8.61-5.77,8.53-11.66,0-3.23,2.27-4.28,3.79-6.14,6.88-8.4,17.09-13.87,21.81-24.13s14.34-16.17,21.56-24.19c6.82-7.57,14.35-14.51,21.56-21.72l23.45-23.45,23.45-23.45c4.81-4.81,9.78-9.48,14.34-14.51a10.45,10.45,0,0,0,2.71-6.42c-.09-5.7.31-10.21,7.91-9.31.65.08,2.25-2.49,2.34-3.89.36-5.63-1.61-12.62,8.15-11.53,2.91-3.81,8.85-5.83,7.29-12.3,0-.18,13.74-13.79,14-14.15,2.52-3.12,7.27-5,6.27-10.1-.27-1.37-1.69-2.52-2.58-3.77-2.49,5.16-8.77,3.93-12.29,7.24-4.16,3.93-8,7.63-14,9.38-5,1.46-6.89,9.66-14.19,8.86-.55-.06-1.8,1-1.77,1.57.57,11.3-12.42,8.28-16.41,15.71-3.47,6.45-10.21,11.27-15.91,16.37-3.52,3.15-9.46,2.33-12.32,7.25-2.2,3.78-7.63,3.67-10.06,5.87-3.92,3.56-9.12,3.31-12.77,6.72-3.48,3.25-5.7,8.86-12.08,7.67-3,4.35-8.65,4.13-12.38,7-4,3.06-7.26,7.14-10.94,10.67-1.15,1.1-2.83,2.86-3.91,2.63-10.55-2.25-14.44,6.75-20.75,11.77-5.67,4.51-13.33,6.21-17.8,12.6-.69,1-3,1.32-4.47,1.22-4.42-.29-8.22.33-11.08,4.23a30.66,30.66,0,0,1-5.38,5.42c-6.38,5.22-10.4,13.08-18.86,16-7.44,2.6-11.15,9.88-16.88,14.67-9.63-1.48-11.3,12.4-21.06,11-.63-.08-2.28,2.5-2.34,3.89-.11,2.7-.93,6.12-3.16,5.85-9.08-1.11-10,11.68-18.76,10.44-4.93,4.53-10.44,8.59-14.61,13.74-3.92,4.83-9.4,6.2-14.32,8.81-9.86,5.25-16.91,3.7-24.42-3-5.75-5.14-9.11-12.12-11-18.42-2.29-7.6,0-16.58.26-25,5.14-2.5,3.14-9,7.15-12.39s7.19-7.23,10.92-10.7c1.58-1.46,1.6-2.5-.64-3.62a9.91,9.91,0,0,0-2.35-.49c-2.95-.62-4.84,1.21-6.28,3.21s-2.7,2.45-3.61.21-.59-5.16-2-6.77c-4.47-5.11-9.48-9.73-14.28-14.55,0-11.05.18-22.11-.11-33.16-.08-3.25,2.11-4.41,3.77-6.12,5.94-6.09,11.55-12.62,18.16-17.87,4.4-3.5,3.14-8.94,6.78-12.78s9.51-2.76,12.62-6.94c1.47-2,4.85-4.4,4.43-5.61-2.67-7.66,3.55-12.48,5.79-18.23,2-5.08,7.43-8.84,11.41-13.11,5.63-6,4.82-12.86-1.94-19.32-1.71-1.64-2.45-2.3-3.7-.61-.5.68-1.11,1.64-1.8,1.75-6.87,1.17-.74,12.38-9.87,12.3-5.55-.06-7.94,5.75-11.32,9.23-3.6,3.71-8.31,4.85-12.27,7.38-6.06,3.87-13.39,5.8-18.09,12.2-3.39,4.6-8,10-13,11.32-6.69,1.73-8.93,7.27-13.61,10.46-6.72-2.59-8.83,8.16-15.61,5.41-2.7,3.37-6,5-10.44,5.83-1.69.31-1.86,5.91-3.81,8.18a202.05,202.05,0,0,1-14.35,14.48c-1.08,1-2.84,2.07-4.21,2-5.34-.39-9.21,1.35-13.51,4.84-2.56,2.08-8.38-.4-12.4.55-7.46,1.78-11.4-6.24-18.18-5.66-2.19-3.41-7-4.66-7.36-9.73-.41-5.56-6.88-9-5.23-15.81,1-3.95,0-8.07,4-11.2s9.35-6.6,10.42-10.84c1.59-6.34,5.6-9.89,9.52-14,3.53-3.68,9.57-6.81,10.3-10.93,1.49-8.28,10.64-11.12,11.56-18.18,1-7.68,10.7-8.67,10.45-16.13-.11-3.26,1.92-4.79,3.8-6.07,10-6.77,12.13-19.68,21.46-27,1.49-1.17.64-5.05,2-6.65,7.75-8.81,17.35-16.37,23.44-26.15,6.4-10.28,16-16.94,23.35-25.95s17-15.69,23.38-25.94c6.13-9.76,15.59-17.42,23.45-26.12a5.9,5.9,0,0,0,1.56-4.35c-1.54-7.55,3.13-9.1,8.87-11.55,4.35-1.86,7.43-6.81,10.84-10.6.26-.3-1.17-2.47-2.13-3.46-3.88-4-2.78-7.66,1.12-10.48,7-5,7.17-14.57,14.24-19.78,6.09-4.49,11-10.64,16.37-16,6-6,12-12.07,18.06-18,2.43-2.38,4.63-4.56,4.26-8.49-.75-8.07,3.76-12,11.2-13.65,6.66-1.44,2.72-4,.4-6.09-1.6-1.41-1.31-2.16.6-3.71a52.12,52.12,0,0,0,7.14-7.26c.3-.36-1-2.34-1.87-3.24-.42-.43-1.63-.1-2.48-.07s-2-.22-2.42.22c-8.92,9.75-18.73,18-31.86,21.77-2.14.6-3.94,3.23-5.4,5.28-2.87,4-4.4,1.5-7.42-.24-5.26-3-10.7-2.63-15.62,2.47-3.17,3.28-3.18,5,.31,7.37,1.67,1.13,1.37,3.41-.78,3.42-9.17,0-12.25,8.13-17.56,13-4,3.66-4.94.27-7.45-1.2-4.34-2.53-5.88-1.95-8.29,4.33a7.68,7.68,0,0,1-4.39,5c-7.1,3.52-15.35,5.1-20.63,11.86-1,1.29-2.63,3.34-3.67,3.17-13.13-2.16-21,12.29-34.08,10.54-2.44-.33-4.25,2.07-3.83,5.17s-1.46,4.82-4.24,4.79c-5.15-.07-10.18-.32-13.31,4.9-6.85-.87-10.83,7.67-18.21,5.52-1.17-.34-3.46.67-4.21,1.76-5.51,8-13.21,8.91-22.15,8.62-4.37-.14-7.36,5.91-13.21,5-4.89-.78-9.82.31-13.51-4.65-3-4-7.32-7.12-10.6-11A11.53,11.53,0,0,1,77,667.45c-.32-6.78.21-13.62-.23-20.39-.31-4.72,1-8.6,4.89-10.69,5.91-3.16,4.65-10.16,8.74-14.45,3.13-3.28,2.64-9.34,7.4-12.16a12.91,12.91,0,0,0,3.6-3.58c2.93-4.11-1.17-9.79,3.51-13.93,3.52-3.11,8.92-5.65,7.7-12,5.56-3.13,3.57-11,8.7-14.21,5.36-3.36,4.86-10.86,9.18-13.89,6.68-4.7,6.3-13.64,12.49-17.93,6.48-4.49,5.63-13.26,12.24-18.25,4.65-3.51,5.09-12,11.18-15.43,6.38-3.6,6-12.15,11-15.67,6.13-4.29,5.66-11.67,10.4-16.44,2.9-2.91.81-10.76,8.86-8.61,1.82-3.47,3.48-7,5.5-10.39s7.37-4.78,7.34-9.69c0-5.18,4.8-6.52,7-9.87,8.22,1.22,8.53-6.16,10.28-10.6,3.81-9.71,11.6-15.83,18.21-23.1,2.14-2.34,6.25-3.75,5.3-7.95-1.61-7.09,3.11-10.72,7.35-14.86,8.52-8.32,16.57-17.13,25.38-25.11,6.06-5.48,9.67-11.34,8.15-19.66-.73-3.95,1.77-6.32,4.41-8.35,8.08-6.21,12.61-14.87,15.81-24.07,1.85-5.29,7-7.19,9.28-11.49,1.86-3.47,1.64-7.85,5.49-10.51,7-4.81,6.7-15.15,14.47-19.47,1.93-6.91,5.43-13.23,9.27-19.06,2.67-4.05,2.14-9.52,6.86-12.64,3.31-2.18,7-5.06,5.86-10.21,12.69-11.85,16.54-28.94,25.41-43.07,2.89-4.61,3.38-11.14,7-14.77,4.57-4.59,1.63-9.86,3.62-14,2.1-4.32,7.27-7.09,9.66-11.35,1.84-3.27-1.52-8.52,2.69-11.58,5.12-3.71.12-10.51,3.77-13.64,4.8-4.11,2.52-9.46,4.36-13.62,1.94-4.4,5.75-7.8,4.8-13.36-.91-5.27,6.81-7.1,5.24-13.24-1-4,.6-8.64-.37-12.66-1.8-7.46,5.45-11.45,5.95-18.17.3-4.06,9-.22,9.33-5.71.3-5.68,2.74-6.21,7.66-7,9.18-1.48,15.39,4.24,22.56,7.48s18.15,11.53,19.48,14.37a16.66,16.66,0,0,1,1.46,7c0,7.31.49,14.21-4.56,21.18-3.32,4.57,2.07,13-4.51,18.57-1.78,1.51-.74,6.31-1.07,9.59-.25,2.42.21,6.17-1.11,7-4.82,3.07-2.63,9.54-7,12.6-5,3.46.93,10.47-3.74,13.63s-1.88,10-7.11,12.46c-2.12,17.08-12.91,30.37-19.86,45.34s-14,30-22.38,44.3c1,8.63-12.27,9.51-10.21,18.73-6.23,3.55-4.08,12.8-10.7,15.94-6.1,2.89-3.06,11.19-9,14.24-4.8,2.47-5,8-7.4,12.16-2.76,4.82-8.53,7.1-9.38,14.15-.49,4.06-8.26,7.12-9,11.31-1.26,7-8.84,8.69-9.85,13.78a18.77,18.77,0,0,1-7.79,12.08c-4.44,3.28-2.25,9.48-6.94,12.71-2.17,1.49-1.75,6.91-3.92,8.22-7,4.27-7,12.85-12.35,18.11-4.54,4.46-10.33,7.75-11.41,15.73-.68,5-9.49,6.58-9.68,13.8-.05,2-2.81,3.84-4.28,5.8-3.44,4.59-9.88,6.92-10.74,13.38-.78,5.82-5.62,8.44-9.29,11.33-5,3.91-5.1,10.07-8.79,14.39-3.1,3.64-7.26,6-8.07,12.1-.54,4-6.06,8-10.12,10.84-4.58,3.24-4,8.71-7,12.56-4.49,5.7-13.1,8.45-12.94,17.56-4.74,4.84-9.13,10.09-14.3,14.42-7.78,6.51-12.39,14.92-16.28,23.93-.31.72.17,1.76-.1,2.51a4.75,4.75,0,0,1-1.59,1.88c-5.24,4.21-7.89,10-11.1,15.78-2.8,5-10.45,8-11.75,12.94-1.69,6.45-5.95,9.67-9.6,14-.49.59-1,1.2-1.45,1.81,1.38.79,2.75,2.24,4.12,2.24,3.23,0,7.11.31,9.58-1.28,10-6.47,21.22-10.5,31.67-16,5.73-3,12.12-5,15.92-10.85,1.61-2.49,4.16-2.48,6.68-2.33,3.43.22,6.64.12,8.95-3.07,5.46-7.54,16.32-8,21.32-16.25,9.61,1.15,11.47-11.83,20.82-11.46,1.23.05,2.6-1.86,3.8-3Q301,529.71,310.17,521c8.86,1.39,9.8-11.74,18.73-10.2,4.27-4.06,8.87-7.83,12.73-12.25a36.85,36.85,0,0,1,16-10.76c-2.16-8,4.8-6.66,8.68-8.79,4.28-2.36,5.82-8.82,11.58-8.9a8.41,8.41,0,0,0,7.74-5.53c3.6-9.86,12.32-15.36,18-23.25,4.15-5.75,12.95-5.13,14.86-11.14,2.27-7.14,8.07-10.39,12.27-15.32,4.4-5.17,10.16-9.23,14.17-14.64,4.68-6.3,10.59-7.5,17.59-7.17.57,0,1.78-1.56,1.71-1.65-.83-1.11-1.68-2.47-2.87-3-1.43-.62-3.24-.33-4.79-.76a2.79,2.79,0,0,1-1.71-1.76c-.11-.45.82-1.64,1.37-1.7,6.23-.68,11.84-3.88,13.25-9.38,1.28-5,2.87-5.86,7.49-7.38,5.07-1.66,4-9.92,9.17-13.54,4.81-3.35,8.55-8.23,12.75-12.45,3.47-3.47,6.38-6.77,7.64-12.21,1.19-5.12,10-6.58,9.29-13.93,7.17-5.79,11.56-14,14.84-21.92s8-15.35,10.92-23.55c1.29-3.64,5.44-6.16,7.71-9.57,1.71-2.56,1.9-6.28,3.87-8.5,2.4-2.71,3.94-5.11,3.59-8.84-.22-2.34-.78-4.79,1.58-7,4.13-3.86,7.59-7.81,9.65-13.84,1.9-5.59,9.64-8.78,10.27-16.12,5.46-3.14,2.88-11.41,9-14.12-2.71-6.76,7.9-8.92,5.41-15.61,8.42-3.87,1.9-14.17,8.73-19.58,3.86-3.06-.1-10.66,5.3-15.69,3.35-3.12-.28-11.09,5.56-15.51,1.68-1.27,1.41-6.77.33-9.69-2.62-7.08,8.27-9,5.32-15.81,3.33-2.38,4.86-7.35,9.59-7.53,4.34-.16,5.68-2.1,5.78-6.1.07-2.76,1.74-4.08,4.85-4.32,5.4-.41,9.37,1.22,13.46,4.93,1.88,1.71,6.5.32,9.86.56.64,0,1.42,1,1.78,1.74,3.66,7.41,13,6.71,17.77,12.6,1,1.29,3.18,2.63,3.06,3.75-.66,5.65,2.89,12.13-2.1,16.87-3.74,3.56-2,9.92-7.11,12.42,1.42,6.44-7.54,9.11-5.83,15.38,1.63,6-4.08,8.52-5.4,13.16-1.49,5.22-4.43,10-6.81,15-2.73,5.67-7.93,11.41-7.7,16.94.3,6.83-5,10-6.18,15.67-1.2,5.86-8.74,10.83-9,16.38-.35,8.6-3.88,14-9.53,19.28-1,.93-1.19,2.91-1.41,4.46-1.29,9-4.09,17.55-11.43,23.21-4.45,3.44-2.66,9.39-7,12.6-3.38,2.5-6.8,5.47-8.94,9-4.91,8.09-10.19,16.27-13,25.15-1.49,4.66-5.7,7.4-6.18,13-.34,3.93-6.61,7.16-9.73,11.1-3.51,4.43-9.13,6.71-10.53,13.57-.86,4.23-5.51,8.5-9.53,11.1-5.57,3.59-4.11,10.64-8.81,14.42-3.83,3.07-5.82,7.23-7.79,12-2.3,5.61-8,9.53-10.77,15.93-3.13,7.15-6.82,14.66-13.81,19.94-5.78,4.37-12.36,9.23-10.34,18.7.33,1.54-2.35,4.63-4.32,5.58-6.49,3.13-3.57,15.3-14.05,14.36-.54-.05-1.78,1.23-1.7,1.71,1.34,7.43-2,12.35-7,17.69-4.26,4.5-5.62,11.4-10.92,15.86-2.78,2.35-3.37,7.12-5.7,10.23a41.83,41.83,0,0,1-9,9c-4.44,3.18-2.15,9.59-7.07,12.54-4.36,2.61-5.84,7.33-7.55,12.11-1.59,4.46-8.55,5.93-8.84,11.59-.26,5.14-4.24,7.35-7.28,9.63-3.94,2.95-1.4,8.49-5.29,10.67-7.84,4.39-8,14-14.16,19.83-5.74,5.43-7.58,14.31-14.22,19.48.75,9.38-12.44,11.23-11.26,20.84-8.73,5.59-9.26,17.67-18.07,23.08-5.44,3.34-5.24,10-9,14.15A127,127,0,0,1,328.82,690c-2.45,2.1-1.56,4.55-1.83,6.94s.75,4.86-1.65,7c-4.41,4-8.26,8.6-12.75,12.49-3.91,3.4-4.91,8.28-7.46,12.18-3.94,6-5.42,13.82-12.27,18-7.36,4.48-6.86,14.77-14.3,19.73-2.86,1.92-3.65,6.82-5.61,10.24s-7.36,4.63-7.2,10.93c0,.38.3-.67-.08-1a2.21,2.21,0,0,0-2.15,0c-1.68,1.18-3.78,2.64-.71,4.44.41.23,1.94-1.43,2.94-3.36,3.14-1.82,6.71.42,9.5-2.9,2.18-2.59,4.76-4.84,7.17-7.24,4.8-4.81,8.94-10.74,14.61-14.11s10.52-8,16-10.61a53.22,53.22,0,0,0,17.36-13.23c5-5.72,12-8.31,17.67-12.72,6.67-5.16,12.17-11.82,18.18-17.83,5.41-5.41,11-10.61,16.15-16.29,4-4.41,10.86-3.25,14.38-8.83,2.65-4.2,6.66-7.81,10.71-10.82,6.89-5.14,7.23-14.41,14.07-20,5.37-4.37,12.61-8.16,13.32-17.35.25-3.22,5.57-6,8.57-9s6.2-5.84,9-9.05c3.12-3.62,8.9-5.79,7.3-12.25,3.49-1.81,7.16-3.34,10.42-5.5,3.67-2.43,5.67-5.89,4.94-10.68-.87-5.6,2.36-6.27,7.23-7.3,3.16-.67,7.27-5.56,7.6-8.89.52-5.32,5.35-7.65,6.17-13,.73-4.83,6.28-9.66,13.58-8.32,3.7.68,6.4-.78,6.24-5.39-.14-4.2.12-8.42.21-12.63,6.52-3.57,4-10.26,5.56-15.57.3-1,2.72-2,4.11-1.92,3.07.15,4.94-1.26,5.26-3.9s.67-6.39,2.79-6.15c6.54.76,8.62-4.53,12.26-7.64,3.15-2.68,4.57-6.12,6.05-10.24,1.83-5.06,8-8.47,11.92-12.92a10.36,10.36,0,0,0,2.67-6.43c-.15-5.77.48-10.22,7.93-9.09,3.6-7,6.73-14.31,11-20.93,3.87-6.09,12.11-9.17,12.47-17.81,5.2-4.3,6.21-11.07,9.38-16.55,1.1-1.91,1.15-4.82,3.27-6.22,11.59-7.69,14-21.53,21.37-32,2.56-3.66,1.4-10.16,9-8.74.53.1,2.27-2.54,2.26-3.9,0-5.14.3-9.5,4.74-13.51,4.69-4.24,11.66-7.51,11-15.72,4.21-4.21,8.3-8.54,12.67-12.57,2.13-1.95,1.37-4.93,2.53-6.58,7.33-10.47,10-23.88,20.24-32.46-1.45-6.27,6.65-8.73,5.63-15.81-.68-4.67,2.55-11.15,6.08-14.88,4.13-4.37,2.62-11.65,8.7-14.4-3.81-8.29,6.24-13.16,5.15-20.83-.23-1.61-.4-4.43.34-4.8,7.71-3.83,3.29-12.13,6.78-17.79,3.19-5.19,5.75-11.19,8.48-16.79,5.46-11.2,20.13-18.57,32.21-18.95,7-.23,13,.19,17.77,6.71,4,5.43,9.28,9.93,14.32,14.47,2.42,2.19,2.23,6.41,1.57,6.71-8.79,4-1.3,15.23-8.88,19.49-1.68,7-6.42,12.61-9,19.21a105.35,105.35,0,0,1-9.48,18.9c-2.7,4.1-2.42,9.19-6.41,13a23.82,23.82,0,0,0-6.29,12.33c-.69,5.4-5.7,7.62-6.16,13.06-.36,4.22-6,7.57-4.75,13.25a5.49,5.49,0,0,1-1.2,4.47,39.23,39.23,0,0,0-10.87,16c-2.16,5.88-5.67,11.24-8.18,17-2.9,6.69-11,9.68-11.9,18.14-.25,2.43-4.13,4.85-3.49,8.64a9.12,9.12,0,0,1-3.24,8.9c-3.6,3.25-7,6.31-7.75,12.17-.42,3.33-6,5.73-8.4,9.18-1.92,2.79,5.42,3.74,2.72,7-2.24,2.69-3.7,5-4,8.7-.21,3-5.39,3.85-5,8.11a5.69,5.69,0,0,1-1.81,4.24c-5.2,4.3-8.18,9.89-11.13,15.81-.66,1.33-7.15-.46-7.19,4.19-.06,6-7.57,8.92-5.44,15.78,1.2,3.86-1.44,5.91-5.65,5.94-1.39,0-4,1.63-4,2.16,1.49,9.19-9.83,10.58-10.89,18.61-.94,7-9.18,9.47-12.62,15.12-4.09,6.68-5.55,15.68-16,15.92-.56,0-1.11,1.13-1.66,1.73,7,4.11,3.21,7.36-.72,10.86a87,87,0,0,0-9,9c-4.11,4.93-11.5,7.69-10.87,15.87-4.8,4.81-10.59,9-14.09,14.63-2.47,4-1.87,9.31-9.05,8.78-2.36-.18-2.34,3.9-2.28,6.41.1,4.24.47,7.82-5.83,8.74-3.45.5-8.76,4.59-9,7.46-.85,9.09-9.7,11.31-13,17.73-3,5.84-5.86,11.41-10.91,15.91-6.33,5.65-11.87,12.18-18.17,17.87-5.59,5.05-5.25,13.94-12.49,17.9-3.78,2.06-1,7.9-5.36,10.57-3.52,2.16-5.67,6.61-9.23,8.65-4.48,2.57.08,11.19-9,10.7-.38,0,.67.3,1.05-.08a2.21,2.21,0,0,0,0-2.15c-1.18-1.68-2.64-3.78-4.44-.71-.23.41,1.43,1.94,3.36,3,.75,5.8-5.47,7.19-7.61,11.47S463.5,705,459.14,708a15.51,15.51,0,0,0-4.49,5.62c-2.82,5.52-4.65,11.66-8.11,16.7-3.26,4.76-7.78,8.84-12.34,12.48-5.93,4.74-5.56,13.09-12.05,17.94-5.54,4.14-10.93,9.06-14,16.6-2.62,6.44-9.61,11.11-14.66,16.56,1.93,5.8-5.49,7.79-5.25,12.91q-5.31-.2-5.11,5.1h-6.24c-.38,0,.68.3,1.06-.08a2.22,2.22,0,0,0,0-2.15c-1.18-1.68-2.64-3.78-4.43-.71-.24.41,1.43,1.93,3.35,2.94A8.4,8.4,0,0,1,378,817c-3.53-.13-5.23,1.57-5.1,6.24,0,.38.29-.68-.09-1.06a2.24,2.24,0,0,0-2.15,0c-1.68,1.19-3.78,2.64-.7,4.44.4.24,1.93-1.43,2.94-3.35,3.53-1,5.23-2.71,5.1-6.24,3.53.13,5.23-1.58,5.1-5.11,3.53.13,5.24-1.57,5.11-5.1,3.12-.68,6.8,1.64,9.44-1.77a12.69,12.69,0,0,1,1.79-1.8c10.13-8.67,17.37-20.57,29.48-27s19.65-18,29.34-27.07c4.19-3.93,13.67-2.68,12.44-12.08l14.37-14.38c4.79-4.79,9.53-9.64,14.41-14.34,1.71-1.65,2.88-4.44,8.45-2.14,1.54.5.85-.63-.12-1.42a1.53,1.53,0,0,0-2.16,2.16,10.24,10.24,0,0,0,3,2.32c.19.1,1-1-.73-3.06-1.74-2.93-.89-5.7-.58-5.64,6.5,1.24,9.08-7.35,15.46-6.05,2.46-3.95,4.58-8.19,7.49-11.78,3.19-3.94,7.47-7,10.65-10.95,8.79-10.9,22.83-17.35,27.27-32,.25-.83,2.93-.8,4.37-1.4,4.69-2,8.57-4.73,9.56-10.22a12,12,0,0,1,9.64-10c5.64-1.16,9.53-4.76,10.38-9.24.92-4.86,3.68-8.67,6.84-9.67,6-1.9,7.79-5.95,10.68-10.71,5.48-9,17.52-13.14,19.53-25.1,7.82-7.82,15.2-16.13,23.58-23.28,6.5-5.55,7.13-14.49,14-20,5.43-4.35,13.2-8.26,12.87-17.4,9.61-7,14.32-17.9,21.66-26.71,1.62-1.95,3.56-5.15,5.38-5.17,8.63-.11,9.3-5.51,8.2-11.65-1.29-7.2,3.09-11.36,7.79-14.59,17.77-12.24,17.38-12.21,23.22-30.86,2.06-6.58,4.65-13.77,10.63-18.5,7.27-5.75,10.89-13.9,14.59-22,.65-1.42,1-3,1.64-4.42,2.67-5.84,11.28-4.07,13.36-9.31,1.74-4.41.35-10,.88-15,.14-1.31,2.71-2.21,3.36-3.66,2.14-4.79,8.57-1.81,10.38-5.47s2-7.67,5.55-10.49c3.19-2.52,4.74-6,6.23-10.14,1.81-5.07,7.53-8.88,11.93-12.82,3-2.65,2.88-5.72,2.87-9.08,0-1.6-.17-3.86.76-4.7,7.41-6.75,10.67-15.69,15-24.4,3.82-7.7,6.9-16.11,12.14-23,3-4,1.86-10,7-12.48-1.49-6.45,7.52-9.12,5.78-15.38-1.66-6,5.24-8.28,5.08-13.2-.09-3.13,2.49-4.17,3.44-6.28,2.32-5.2,4-10.6,9.07-14.13s3-9.35,2.72-14c-.42-6.26,8-8.9,5.4-15.78-1.82-4.84,4.87-6.28,5-10.6.15-4-1.31-8.58,3.1-11.44,2.69-1.74,2-4.43,2-6.84-.2-5.9-.89-11.89,5.14-15.73-.71-6-.2-11.65,5.1-15.73-1.16-6.37,4.47-8.55,7.69-12.08,3.53-3.87,3.12-6.83-.15-10.69-2.11-2.49-3.86,1-1.81-1.59,4.94-6.17,8.92-14.1,18.89-13.36,5.11.38,9.86.24,13.53-4.59,1-1.32,4.83-1.43,6.66,1,2.25,3,5.14,3.42,8.68,3.91,2.82.39,4.21,4.22,8.06,5.09,7.19,1.63,11,6.79,10,14.77a33.34,33.34,0,0,0,0,10.17c1.32,6.93-2.37,11.15-7.13,14.94-2.94,2.34-4.81,5.91-2.57,8.54,3.06,3.58,5.24,6,.18,9.2,1.48,6.45-7.53,9.12-5.8,15.38,1.65,6-4.32,8.41-5.38,13.17-.83,3.74-4.36,7-4.64,10.69-.35,4.67-6.74,5.6-5.39,10.61-5.22,8.09-5.53,18.19-10.37,26.27-4.49,7.5-7.65,15.6-11.87,23.12-4.64,8.28-8.94,16.83-13,25.26-4.69,9.64-9.12,18.87-17.34,26-1.8,1.55-4.27,3-3.55,6.16.19.8-.16,1.8.19,2.47,1.06,2,2.38,2.46,3.55,1.29,3.62-3.59,7-7.44,10.88-10.74,3.67-3.12,5.75-8,11.73-8.65,10.19-1.07,19.48,1.56,28,6.33,4.28,2.4,7.66,6.75,10.77,10.74,1.16,1.49,1,4.67.35,6.72s-3.76,3.81-4,5.91c-.84,6.59-.86,13.29-1.2,19.95-6.58,4.07-2.9,10.72-4.2,16.13-1.47,6.14-7.66,11-5,18.3-7.12,4.59-5.32,11.82-5,18.28.32,5.49-1.18,9.71-5.25,13.19,1,7.4-7.25,9-9.12,14.05s.16,12.27-2.5,16.75c-3.27,5.49-5.32,11.49-8.69,16.89-6.27,10.08-8.91,22.12-17.73,31-3.72,3.74-5.16,9.67-7.93,14.44-4,6.86-5.85,14.71-11.91,20.67-6.23,6.13-6.89,15.79-12.52,22.85-3.76,4.72-4.05,12.18-7.74,17-4,5.17-8.73,9.59-10.54,16.12-7.43,3.61-7.35,12.45-12.33,18-2.33,2.59-2.13,7.45-5.61,10.34-3.89,3.23-7.2,7.16-10.76,10.78,2.19,5.9-5.52,7.79-5.33,13.19.07,1.94-2.08,4.45-3.87,5.89-7.92,6.32-12.41,14.88-16.31,23.89-.62,1.44-.66,3.58-1.72,4.32-11.26,7.81-14.41,22.26-25.15,30.44a5.79,5.79,0,0,0-1.78,1.81c-3.06,6.38-5.4,13.21-9.22,19.08-3.59,5.51-10.69,9.36-12.64,15.16-2.15,6.38-9.45,8.53-10.12,13.56-.94,7-5.45,10.38-9.66,13.85-5.39,4.45-5.25,12.09-10.67,16.08-6.86,5.05-7.34,14.33-14.15,19.86-5.43,4.4-7.81,12.48-13.12,17.12-4.78,4.18-3.22,10.81-8.54,14.7-4.38,3.21-9.74,6.53-10.92,13.14-1.12,6.25-6.95,9.21-11,13.18-4.81,4.66-5,11.94-10.6,16.17-4.7,3.54-11,7.68-12.16,12.62-1.93,8.06-10.76,11.1-11.65,18.1-1,7.76-10.43,8.69-10.59,16.12,0,.85.36,2-.06,2.5-5,5.61-12,10.34-14.74,16.86-2.83,6.75-7.52,11.18-12.38,15.1-7.41,6-8.61,15.77-15.87,21.75-6.23,5.13-12.54,10.57-14.82,19.28-.75,2.84-4.67,4.77-6.93,7.3-4.85,5.44-10.46,9.75-13.14,17.53-2.26,6.59-11.38,9.56-13.93,17.15-3.53-.13-5.23,1.57-5.1,6.24,0,.38.3-.68-.08-1.06a2.26,2.26,0,0,0-2.16,0c-1.67,1.18-3.77,2.64-.7,4.43.41.24,1.93-1.43,2.94-3.35,3.53-1,5.23-2.71,5.1-6.24,3.12-.67,6.78,1.61,9.4-1.74a31.32,31.32,0,0,1,15.8-10.71c7.21-2.24,12.74-6.92,17.56-12.5,3.43-4,7.09-7.06,12.84-5.68,2.95.7,4.53-1.44,6.27-3.17,4.18-4.17,8.3-8.39,12.54-12.5,1.75-1.7,4.14-4.82,5.55-4.47,9.44,2.33,13.3-5.06,18.95-9.7s12.07-8,17.36-12.74c3.29-3,5-3.25,7.31.29,1.16,1.76,1.91,1,3.66-.55,6-5.27,10.34-12.11,19.15-14.84,7.32-2.26,9.39-13.59,19.5-14.14,2.51-.14,5.05-4.23,7.13-6.85,9.34-11.79,24.64-16.41,34-28.33,1-1.23,4.84-.17,9.71,1.32,1.55.5.86-.64-.11-1.42a1.53,1.53,0,0,0-2.16,2.16,10.16,10.16,0,0,0,3,2.31c.19.11,1-1-.73-3-1.57-5.12-4.84-10.87,1.72-11.49,3.94-.38,5.93-2.58,8.24-4.87,7.84-7.79,14.47-17.71,23.75-22.9,11.32-6.33,18.43-16.65,28.46-23.67,6.86-4.8,5.92-13.49,12.29-18.19a80.61,80.61,0,0,0,14.36-14.41c1.71-2.14-6.18-3.13-2.73-7,2.14-2.39,4.91-5.56,7.64-5.82,5.08-.47,9-4,9.59-7,1.76-8.25,8.23-12.16,13.05-17.63,1.12-1.27,3.61-2.73,3.4-3.57-1.51-5.93,5.86-8,5.46-13.16-.25-3.16,1.48-4.79,4.23-4.85,4-.09,5.2-1.74,6.27-5.71,1.42-5.2,3.69-11.21,7.6-14.47,7.26-6.07,8.2-16,15.81-21.86,5.65-4.33,12.27-9,12.8-17.49,5.89-4.71,9.33-11.11,12.72-17.67,2.18-4.2,2-9.87,7.11-12.36s3.56-9.21,7.31-12.2c5.38-4.31,7.75-10.26,10.79-16,2.61-4.92,3.42-11.11,8.95-14.14,4.92-2.7,3.85-8.58,6.7-12.68,3.13-4.5,5.1-9.87,9.4-13.89,1.55-1.45,1.93-4.25,2.57-6.51,1.11-3.86,7.72-18.94,10.22-21.23,5.6-5.14,8.14-12.3,9.86-18.86a88.8,88.8,0,0,1,17.25-33.66c2.23-2.78,4.5-5.15,3.48-8.77-2.06-7.25,2.26-12.61,5.23-18.27s6.32-11.18,5.21-18.35c-.74-4.74-.61-9.37,3.63-13.87,3-3.2,2.55-9.11-1.29-13.55-5.54-6.4-3.54-12.29,2.25-17.34,6.27-5.47,6.67-15.19,14.4-19.56,2.07-1.18,4-3.43,6.1-3.61,5.91-.5,12.12-1.15,17.75.19,3.48.83,5.86,4.76,10.64,5.25,3.6.37,2.92,5.69,2.33,8.76-.9,4.66,9.68,9.1.18,13.67-.82,7.38,2.85,15.94-2.09,22-5.31,6.46-2.92,13-2.66,19.24.26,5.93-7,7.93-5.36,13.17,2.34,7.51-7.22,11-5.36,18.36,1.49,5.91-5.82,8.94-5.58,15.73.19,5.54-4.27,11.78-8,16.76s.84,11.31-4.91,16.11c-3.78,3.16-4.57,9.79-7,14.73s-5.18,9.76-7.74,14.65-4.88,9.9-7.56,14.72c-5.78,10.37-8.46,22.51-17.65,31a13,13,0,0,0-2.7,4c-5.16,10.61-10.56,21.12-15.1,32-1.07,2.55-1.63,4.74-4.31,4.89-3.85.22-5,1.74-6.48,5.51-2.61,6.53-4.64,13.77-10.76,18.52-5.34,4.15-7.22,11-8.83,16.65-2.14,7.54-12.71,9.3-11,18.45-4.81,4.81-9.64,9.6-14.42,14.43-2.88,2.91-6.85,5.27-5.66,10.41-6.16,4.52-5.89,13-12,18.27-4.85,4.23-6.61,12.28-9.69,18.63-2.11,4.34-6.48,8.05-10.66,10.77s-1.86,8.05-5.29,10.69c-11.36,8.76-15.67,23.42-27,32.16-2.32,10.59-11.46,15.87-18.09,23.08-2.33,2.54-2.81,6.18-4.38,8.29-4.25,5.71-8,12.89-16.63,13.82-1.23.13-3.43,2.31-3.24,3,2.5,9.36-6.64,12.91-9.07,19.29-2.91,7.63-8.46,12-13.19,17.51-4.21,4.9-4.12,12.71-10.81,15.93-7.45,3.58-6.93,12.79-12.57,17.78-5.08,4.5-11.95,8.76-14,14.54-3.63,10.32-12.51,15.25-18.49,23s-16.1,12-19.16,22.67c-2.52,8.75-15.47,10.7-15.17,21.75-5.56,7-15,11-16.19,21.34-6,6-12,12.08-18.07,18-1.53,1.47-1.64,2.66.68,3.56a12.22,12.22,0,0,0,4.88.46c.68,0,1.42-.75,2-1.31,7.23-7.19,14.16-14.72,21.74-21.53,6.76-6.07,11.5-14.33,20.54-18,9.66-3.95,14.6-13.61,22.36-19.91s10-16.82,17.89-23.31c7.18-5.92,13.35-13.08,20-19.69,7.21-7.21,14.15-14.73,21.73-21.53,5.06-4.54,5-11.89,10.6-16.19,5.33-4.09,12.07-8.79,13.74-14.52,1.89-6.46,8-8.94,9.43-14,1.74-6.11,5.38-10,9.41-14l12.62-12.62c1.21-1.2,3.11-2.22,3.49-3.64,1.87-7,6.11-12.81,9.3-19.1,3-5.86,11.29-7.91,12.37-15.25.44-3,1.44-4.65,4.1-5.16,8.17-1.57,13.44-7.78,15.94-14.18,2-5.19,5.82-7.83,8.57-11.77,4.16-6,13.11-8.48,12.63-17.72,4.81-4.81,9.18-10.19,14.54-14.28,6.24-4.75,6.12-13.19,12.32-18.11,4.88-3.88,5.26-11.43,10.75-16,3.94-3.27,5.43-9.46,8.09-14.3,3.82-6.95,6.2-14.45,11.7-20.79,5-5.78,7.94-13.57,11-20.8,4.61-10.84,13.83-19.89,13-32.87,4.6-2.87,4.57-8.32,6.9-12.45,3.1-5.48,7.45-11,8-16.95.51-5.74,2.45-9.58,6.51-12.7,3.84-3,4.67-6.7,4.11-11.09-.36-2.81.91-5.87,3.24-5.67,6.24.52,10.69-3.41,15.9-4.83,6.78-1.84,14.82-2.17,20.41,5.56,3.94,5.45,9.42,9.77,14.27,14.54,3.88,3.83,2.88,7.16-.67,10.58-1.06,1-2.27,3-2,4.16,2.15,8-7.42,12.86-5.31,20.89,1.89,7.17-1.91,10.3-8.67,11.36-1.83.28-1.33,2.08.64,3.54,1.07.79,2.42,3.2,2.21,3.4-5.43,5.29-5.72,13.32-9.75,18.9-4.26,5.89-5,13.88-11.71,18.25-5,3.24-3.05,11.22-9.06,14.06-5.16,2.43-3.39,8.92-7.16,12.36-3.57,3.28-2.34,9.38-7.19,12.38-3.51,2.17-6.54,5.41-5.49,10.38-4.81,4.81-11.73,8.84-13.87,14.63-2.51,6.78-7.08,10.88-11.38,15.71-1.68,1.89-5.22,3.93-5,5.43,1.51,9.32-10,10.3-10.93,18.72-.72,6.91-11.17,9.67-11.12,18.21-5.41,5.41-12.15,10-15.86,16.45S961,814.8,955,819s-4.71,12-10.52,16.34c-5.1,3.76-10.72,8.09-11.05,15.69,0,.63-1.13,1.21-1.73,1.81-4.21,4.21-8.47,8.37-12.61,12.64-3.5,3.61-9.24,7-9.78,11.09-.95,7.2-6.73,9.32-10.11,13.8-5,6.57-13.48,10.32-15.86,18.94-2,7.25-11,9.69-11.46,18.33-.18,3.73-9.44-.72-8.84,5.89.46,5.1-5.68,6.16-5.23,10.65a15.13,15.13,0,0,0,1.49,4.46c.15.32,1.28.54,1.71.32a8.62,8.62,0,0,0,1.83-1.75c21.64-21.63,43.08-43.48,65.09-64.74,4.41-4.27,5.21-10.05,8.91-14.24,3.93-4.45,8.35-8.47,12.56-12.67s9.91-7.71,12.31-12.77c5.17-10.91,14.92-17.62,21.57-26.87,3.71-5.15,8.3-10.41,10.63-15.89,2.76-6.49,6.33-11.82,11.55-15.44,5.43-3.76,3.75-11.1,8.88-14.31,5.35-3.34,5.42-10,9.13-14,3.41-3.74,2-9.77,7-12.5,4.73-2.58,4.58-8.59,7.49-12.06,4.89-5.85,9-10.78,9.35-19.4.21-5.53,7.21-10.48,9.21-16.35a58.85,58.85,0,0,1,17.22-26.06,90.15,90.15,0,0,0,9-9c3-3.53,4.23.13,5.36,1.44,2.11,2.48,4.65,1.43,7,1.64,1.69.14,4.36-.61,4.91.19a89.2,89.2,0,0,1,5.57,10.4c2.56,5.06,10.77,3.18,11.81,7.34,1.1,4.39,4.47,7,5.33,10.56,1.09,4.42,2.09,10.08-3.41,13.69s-8.09,8.88-6.29,15.11c2.59,9-4.39,15.36-5.77,23.33-1.29,7.4-4.65,15.37-11.37,20.7-1.88,1.49-3.4,3.15-3.54,6.2-.48,10.2-4.93,19.13-12.9,25-6.53,4.84-6.54,13.27-12.44,18,2.76,6.78-8,8.88-5.41,15.61L1049,842.67c-1.8,1.81-3.34,4-5.46,5.34-7.88,4.83-7.42,12.44-7.18,21.25,0-2.21,2.93.53,0-1.14a2.51,2.51,0,0,0-2.3,0c-2.37,2.08-4.61,4.33-6.81,6.59a2.16,2.16,0,0,0-.38,1.59c1.26.75,2.61,1.87,3.94,1.87,5.12,0,5.65-.87,5.58-8.92,6.4-2.39,9.06-8.26,13.28-12.1,3.53-3.22,7-6.19,7.87-12.13.62-4.06,6.73-7.21,10.22-10.93,2.9-3.11,8.46-.55,10.69-5.31.45-1,3.42-1.94,4.24-1.4,5.56,3.61,11.66,4.64,18,6,5.85,1.23,6.51,8.74,9.1,13.71,5.79-.47,9.49,3.27,12.09,7.35a12.36,12.36,0,0,1,1,9.55c-1.83,5.14-4.21,10.66-8,14.39-4.29,4.25-6,9.46-9,14.23-3.34,5.43-4.7,11.86-10.36,16.36-4,3.17-5.57,9.37-8.12,14.28-.34.67.32,2-.1,2.47-5,5.61-11.49,10.42-14.87,16.86-3.26,6.21-4.36,14.09-9.82,18.68-4.84,4.07-4.3,10.83-8.89,14.25-5,3.7-6.15,9.37-9.11,14.11s-7.94,7.6-9.25,14.15c-1,5.08-9.63,6.54-9.49,13.93,0,1.86-2.84,3.86-4.53,5.66-3.46,3.7-9.41,6.95-10,11-1,7-7.37,9-9.6,14-3.54,7.92-7.6,15.55-11.33,23.35-2.38,5-3.4,11.37-7.18,14.67-5.52,4.8-.73,11.31-4.94,16.09-3.58,4.06-6.94,9.23-8,14.39-1.15,5.8-5,10.63-8.66,10.89-6.18.42-8.76,8-15.76,5.88-4.65-1.4-10.89.95-14.74-1.28-8.72-5-13.47-14.3-17-23.3-2-5.17-.74-11.8-.16-17.69.21-2.06,2.39-4.63,4.36-5.67,5.89-3.12,4-10.94,9-14.19,5.28-3.43,6-9.46,9.06-14.12,1.36-2.07,3.58-3.62,2.9-6.46-1.4-5.92,2.61-9,5.92-12.9,6.76-7.92,9.5-18.15,14.42-27.15.71-1.31.1-3.35,1.58-7.39.5-1.54-.64-.85-1.42.12-.37.46-.06,1.47-.06,2.23.76,0,1.77.3,2.22-.07a10.24,10.24,0,0,0,2.32-3c.1-.19-1-1-3.06.73-9,4.9-12,14-18.62,16.26-7.77,2.68-12,8.36-17.55,13.09-1.82,1.56-2.9,4.44-6.14,3.62.3-4.32-2.41-5.22-5.89-5.09a4,4,0,0,0-4.3,4.29c-.13,3.49.77,6.2,5.09,5.9-16.06,20.07-16.06,20.07-36.2,30.62-1.38.72-2.75,1.46-4.18,2.08-6.09,2.68-4.84,9.8-8.61,14.19-3.53,4.11-11.41,2.6-11.75,7-.5,6.21-4.89,8.31-7.75,12.08-8-.58-10.73,6.73-15.79,10.56-.54.4-1.64.05-2.48.05-.56-1.41-.89-3.85-1.73-4-3-.7-3.56,1.56-3.38,4Q816.74,1117.95,816.93,1123.25ZM270.86,737.66c0-.76.29-1.82-.09-2.2a2.24,2.24,0,0,0-2.15,0c-1.68,1.19-3.78,2.64-.7,4.44.4.24,1.93-1.43,5.9-9.18a18.66,18.66,0,0,0-2.9,2.46,1.53,1.53,0,0,0,2.16,2.17,10.24,10.24,0,0,0,2.32-3C275.5,732.12,274.42,731.28,270.86,737.66Zm102.07,48.75c-3.54-.13-5.24,1.58-5.11,7.38,0-.75.3-1.81-.08-2.19a2.24,2.24,0,0,0-2.15,0c-1.68,1.19-3.78,2.64-.71,4.44.41.24,1.94-1.43,2.94-4.49,3.53.13,5.24-1.57,8.07-9.79a18.66,18.66,0,0,0-2.9,2.46,1.53,1.53,0,0,0,2.16,2.16,10.24,10.24,0,0,0,2.32-3C377.57,783.15,376.49,782.32,372.93,786.41Zm336.83,135c0-.76.29-1.81-.09-2.19a2.21,2.21,0,0,0-2.15,0c-1.68,1.18-3.77,2.64-.7,4.44.4.24,1.93-1.43,5.91-9.18a18.28,18.28,0,0,0-2.91,2.46A1.53,1.53,0,0,0,712,919a10.24,10.24,0,0,0,2.32-3C714.4,915.84,713.32,915,709.76,921.38ZM391.2,562.28a18.66,18.66,0,0,0-2.9,2.46,1.53,1.53,0,0,0,2.16,2.16,10.24,10.24,0,0,0,2.32-3c.1-.19-1-1-4.54,3.07h-7.38c.76,0,1.81.3,2.19-.08a2.24,2.24,0,0,0,0-2.15c-1.19-1.68-2.64-3.78-4.44-.71-.24.41,1.43,1.94,4.49,2.94.56,1.41.89,3.86,1.73,4C387.91,571.7,388.42,569.44,391.2,562.28Zm-30.62-20.42a18.18,18.18,0,0,0-2.9,2.47,1.53,1.53,0,0,0,2.16,2.16,10.24,10.24,0,0,0,2.32-3c.1-.19-1-1-4.54,5.35,0-.76.29-1.82-.09-2.2a2.21,2.21,0,0,0-2.15,0c-1.68,1.18-3.78,2.63-.71,4.43C355.08,551.28,356.61,549.61,360.58,541.86Zm68.48-36.14h-7.37c.75,0,1.81.3,2.19-.08a2.24,2.24,0,0,0,0-2.15c-1.19-1.68-2.64-3.78-4.44-.71-.24.41,1.43,1.93,4.49,2.94,0,2.51-.11,5,.08,7.51,0,.64,1.18,1.8,1.56,1.71,1.22-.32,3.17-1,3.31-1.74A37.53,37.53,0,0,1,432,501a18.72,18.72,0,0,0-2.9,2.47,1.53,1.53,0,0,0,2.16,2.16,10.41,10.41,0,0,0,2.32-3C433.71,502.46,432.62,501.63,429.06,505.72ZM261.44,424.07c-.79,0-1.74-.28-2.34.05-1.28.72-3.24,1.63-3.41,2.7-.74,4.72,3,1.74,4.64,2.25a3.5,3.5,0,0,0,4.79-2.92c.08-.49-2.38-1.38-9.57,5.3,0-.76.29-1.82-.09-2.2a2.24,2.24,0,0,0-2.15,0c-1.68,1.19-3.78,2.64-.7,4.44C253,433.9,254.54,432.23,261.44,424.07Zm55.35,369.69c0-.81.29-1.79-.06-2.41-.9-1.61,2.49-4.79-2.38-5.09-5.09-.31-7.62,1.07-7.74,6.14a22.54,22.54,0,0,0,.55,7.13c.33,1,2.43,1.77,3.86,2.13a4.6,4.6,0,0,0,5.67-3c.55-1.43.1-3.23,3.07-16.9a18.28,18.28,0,0,0-2.91,2.46,1.53,1.53,0,0,0,2.16,2.16,10.24,10.24,0,0,0,2.32-3C321.43,783.15,320.35,782.32,316.79,793.76Zm586.9-502.39c-5.48,1-8.09,4.94-10.24,9.58-4,8.57-6.55,18.45-12.63,25.15-5.15,5.69-6,13.91-12.24,18-6.05,4-4.38,12.62-10.74,16.06,2,9.23-10.77,10.32-10.29,18.7-7.58,7.48-10,18.94-18.68,25.34-6.23,4.58-5.5,15.76-15.82,16.14-.23,0-.73,1.57-.59,1.67,4.43,3.07,4,5.51.11,9.23-4.07,3.94-10,6.77-10.88,13.24-.78,5.82-5.62,8.44-9.29,11.33-5,3.91-4.4,11-9,14.18-7.25,5-7,15.24-14.37,19.62-7.71,4.59-7.29,14.73-14.34,19.68-5.53,3.88-4.58,12.32-10.85,15.91-7.68,4.39-8.21,13.81-13.61,19.89-1.47,1.65-1.25,4.81-2.73,6.43-5.73,6.26-11.82,12.17-17.78,18.2-.13,10-9.68,13-14.69,19.4-3.14,4-9.61,6.92-10.21,11-1.17,7.93-7,11.26-11.49,15.71-4.81,4.71-5.57,11.46-10.49,16.28-10,9.79-20.93,18.63-27.67,31.75-3.71,7.2-11.17,12.8-17.75,18.1-7.34,5.91-9.7,15.06-16,21.59-9.74,10.07-21.2,18.55-27.46,31.93-2.38,5.07-8.12,8.56-12.33,12.77-3.61,3.61-6.74,8-10.95,10.64-5.56,3.53-3.9,10.31-8.64,14.59-9.09,8.22-18.36,16.33-24.17,28-3.57,7.22-11.12,12.82-17.71,18.12-7.34,5.9-9.5,15.22-16.06,21.54-11,10.63-22,21.32-32.38,32.56-4.08,4.44-8.45,4.5-13.52,4.63-2.66.08-4.4,1.75-4.12,5s.07,6.8.07,12.47c0-.75.29-1.81-.09-2.19a2.24,2.24,0,0,0-2.15,0c-1.68,1.19-3.77,2.64-.7,4.44.41.24,1.93-1.43,2.94-4.49,6.65,2.65,10-4.84,15.69-5.07,5-.2,4.13-3.75,4.93-6.94a9,9,0,0,1,4.75-5.5c12.22-4.64,19-15.69,28.56-23.36,6.84-5.48,14.64-9.79,21.74-15.08,4.27-3.19,10.53-3.69,14.84-6.85,5.41-4,9.44-9.76,14.62-14.09,6.22-5.2,9.84-13,19.08-15.46,5-1.31,8.93-7.33,12.84-11.68s11.45-2.86,14.16-8.92c1.27-2.86,1.74-6.45,3.78-8.5s5.74-2.34,8.48-3.82c6.84-3.68,15.87-5.21,16.09-15.83,0-.63,2.66-1.46,4.17-1.75,5.45-1.08,8.67-4.8,10-9.64.69-2.53,1-5,3.57-5.65,9.76-2.45,14.58-9,17.79-18.18,1.06-3,4.28-7.51,9.34-7.38s8.87-4.55,9.29-7.21c1.07-6.64,5.59-9.91,9.5-14,4.1-4.29,8.37-8.42,12.57-12.62s8-8.89,12.7-12.45c4.93-3.77,5.94-9.53,9.06-14.1,3.73-5.45,10.71-9.26,12.86-15.06,2.58-6.92,7.86-10.56,12.28-15.21,4.56-4.81,7.71-10.15,10.91-15.87,3.89-7,13.33-10.18,14.11-19.64,5-4.32,7.74-10.14,11.19-15.63s7.46-10.27,10.67-16c2.79-5,8.1-8.56,12.3-12.76-1.9-6.52,5.84-9,6.11-15.47.21-5,8.19-7.09,10.06-13.5,1.49-5.08,7.27-8.76,9.66-13.77,5.81-12.24,10.33-25.14,20.58-34.72,1.73-7,5.22-13.06,9.08-19.17,4.17-6.6,4.64-15.27,11-20.86.23-7.3,8.74-12.41,5.47-20.63,5.43-5.12,6.38-12.68,10.2-18.68-2.44-7.94,8.54-12.59,5.11-20.78,7.68-9.81,10.53-21.28,11.47-33.41,7.82-3.55,1-12.49,6.9-17.69,5.41-4.75.8-12.83,5-29.09-.56.27-1.51.44-1.62.83-.57,2.16-.82,4.41-1.4,6.56-.66,2.41.05,3.24,2.39,2.34a3.36,3.36,0,0,0,1.71-1.53C909.5,286.3,908.89,282.16,903.69,291.37ZM714.86,896.14c0,6.82,2.92,9.29,8.33,6.94,2.31-1,2.29-2.23.27-3.47-3.71-2.27-3.71-4.67,0-6.94,2-1.24,2-2.47-.27-3.47C717.78,886.84,714.86,889.32,714.86,896.14ZM269.59,587.38a29.06,29.06,0,0,0-4.94,0c-2.58.46-4.43,1.78-4,4.87.11.81-.29,1.83.07,2.44,1.43,2.47,2.75,2.4,5.14.48s5.56-2.35,8.35-3.58c.71-.31,1.19-1.13,1.77-1.71-.58-.58-1.07-1.46-1.77-1.69A33.33,33.33,0,0,0,269.59,587.38Zm72-37.49c-.11-.64,0-1.39-.34-1.78-2-2.37-11.54-2.49-13.27.3-1,1.62-.28,4.4-.07,6.63.06.61,1.09,1.12,1.67,1.68C332.05,551.75,337.74,552.41,341.59,549.89Zm143.61,345,2.55,3.82c2.71-3.72,8.46-5.52,7.56-11.47-.2-1.37-1.6-2.56-2.45-3.84C490.36,887.24,484.25,888.7,485.2,894.87ZM520.92,872c-.74-2.52-1.86-4.25-5-4-3.85.3-5.86,2.37-5.11,6.35.48,2.55,1.82,4.25,5,4C519.62,878,521.49,876,520.92,872ZM250,756.45l3,4.45,1.74-1.74a33.1,33.1,0,0,0,3.41-3.5,15.36,15.36,0,0,0,1.5-3.43c-2.23-.5-4.9-2-6.57-1.21S250.9,754.76,250,756.45Zm112.27-158.2,3,4.44L367,601a33.27,33.27,0,0,0,3.42-3.51,15.83,15.83,0,0,0,1.5-3.43c-2.23-.49-4.9-2-6.57-1.21S363.18,596.55,362.31,598.25Zm.55,12.23c-.77-.76-1.31-1.78-1.93-1.84-2.21-.19-4.67-.63-6.63.11-3,1.11-1.78,4.23-1.62,6.48.05.74,2.69,2.15,3.05,1.87C358.27,615.1,360.52,612.73,362.86,610.48ZM250.44,850.08a32.78,32.78,0,0,0-.08-5c-.1-.66-1.28-1.78-1.64-1.67-1.21.39-3.14,1.14-3.23,1.92a62.22,62.22,0,0,0-.07,9.94c0,.61,1.28,1.77,1.64,1.65,1.21-.38,2.88-1,3.24-2C250.84,853.55,250.44,851.74,250.44,850.08Zm-22.67,18.28c1.6-1.8,3.3-3.52,4.77-5.42a18,18,0,0,0,1.68-3.44c-2.23-.54-4.64-1.9-6.63-1.44-2.79.64-3.6,5.26-1.92,8.17A14,14,0,0,0,227.77,868.36ZM416.6,878.57c1.6-1.8,3.3-3.53,4.77-5.43a18.51,18.51,0,0,0,1.68-3.43c-2.23-.55-4.64-1.9-6.63-1.44-2.79.63-3.6,5.25-1.92,8.16A13.94,13.94,0,0,0,416.6,878.57Zm165.71-36a43.6,43.6,0,0,0,4.12-1.8c.21-.11.17-1.25-.13-1.65-1.9-2.55-7.52-2.61-8.26.15S579.77,842.77,582.31,842.54Zm-313.2-5.9c2.56-1.5,2.66-6.53.1-8.43a1.93,1.93,0,0,0-1.69-.12c-2.6,1.42-2.68,6.49-.12,8.39C267.79,836.77,268.53,836.6,269.11,836.64Zm-79.5-4.92-3-4.48c-.85,1.29-2.51,2.67-2.38,3.86.24,2.17,1.53,4.24,2.38,6.35ZM475,812.07c.23-2.53-.43-5-3.3-4.27s-2.7,6.37-.14,8.27c.39.29,1.54.33,1.65.12C473.9,814.86,474.42,813.42,475,812.07Zm-256-7c0-.58.14-1.33-.16-1.72-1.9-2.56-7-2.48-8.39.12a1.93,1.93,0,0,0,.12,1.69C212.48,807.74,217.52,807.64,219,805.09Zm60.82-85L276,722.62c1.29.85,2.67,2.51,3.85,2.38,2.18-.24,4.24-1.53,6.36-2.38ZM406.75,521a5.27,5.27,0,0,0-3.1,6.38c.29,1.4,1.6,2.6,2.45,3.89.85-1.29,2.43-2.6,2.39-3.87C408.43,525.18,407.36,523,406.75,521Zm384-102.41-4.47,2.95c1.29.85,2.67,2.51,3.85,2.38,2.18-.24,4.24-1.53,6.36-2.38ZM442.56,491.15,439.27,493c.57.57,1.26,1.69,1.68,1.6a15.82,15.82,0,0,0,3.42-1.6ZM219.82,493c-.57-.56-1.26-1.69-1.68-1.59a15.78,15.78,0,0,0-3.42,1.59c.56.57,1.25,1.69,1.67,1.6A15.68,15.68,0,0,0,219.82,493ZM382.4,509l-1.82-3.29c-.57.57-1.69,1.26-1.59,1.68a15.6,15.6,0,0,0,1.59,3.43ZM280.33,412l-1.82-3.28c-.57.56-1.69,1.25-1.59,1.67a15.6,15.6,0,0,0,1.59,3.43ZM184.1,528.69c-.57-.57-1.26-1.69-1.68-1.6a16.12,16.12,0,0,0-3.43,1.6c.57.56,1.26,1.69,1.68,1.59A15.6,15.6,0,0,0,184.1,528.69Zm234.76,0c-.57-.57-1.26-1.69-1.68-1.6a16.12,16.12,0,0,0-3.43,1.6c.57.56,1.26,1.69,1.68,1.59A15.6,15.6,0,0,0,418.86,528.69ZM316.05,558.57l-1.81-1.81a15.82,15.82,0,0,0-1.6,3.42c-.09.42,1,1.11,1.6,1.68ZM372.19,579l-1.82-1.82a16.57,16.57,0,0,0-1.59,3.43c-.09.42,1,1.11,1.59,1.67C371,581.17,371.6,580.06,372.19,579ZM230.76,611.08l1.82,1.82a16.12,16.12,0,0,0,1.6-3.43c.09-.42-1-1.11-1.6-1.68C232,608.9,231.36,610,230.76,611.08Zm0,10.21,1.82,1.81a15.82,15.82,0,0,0,1.6-3.42c.09-.42-1-1.11-1.6-1.68ZM512.54,1046l3.28-1.82c-.56-.57-1.25-1.69-1.67-1.59a15.39,15.39,0,0,0-3.43,1.59ZM349.23,623.84l-1.82,1.81a15.82,15.82,0,0,0,3.42,1.6c.42.09,1.11-1,1.68-1.6ZM668.19,999l-1.81-3.29c-.57.57-1.69,1.26-1.6,1.68a15.82,15.82,0,0,0,1.6,3.42ZM951.44,637.68l3.29-1.82c-.57-.57-1.26-1.69-1.68-1.59a15.6,15.6,0,0,0-3.43,1.59ZM760.06,900.51l-1.82-1.82a16.12,16.12,0,0,0-1.6,3.43c-.09.42,1,1.11,1.6,1.68C758.85,902.69,759.46,901.58,760.06,900.51Zm-11.29-1.08-3.29,1.81c.57.57,1.26,1.69,1.68,1.6a15.82,15.82,0,0,0,3.42-1.6Zm-171-2.55,1.82,1.81a15.78,15.78,0,0,0,1.59-3.42c.1-.42-1-1.11-1.59-1.68C579,894.7,578.39,895.81,577.8,896.88Zm-98.44,0-1.81-3.29c-.57.57-1.69,1.26-1.6,1.68a15.82,15.82,0,0,0,1.6,3.42Zm537.34-5.11,1.82,1.82a15.6,15.6,0,0,0,1.59-3.43c.1-.42-1-1.11-1.59-1.68Zm-717-33.17-3.29,1.82c.57.56,1.26,1.68,1.68,1.59a16.57,16.57,0,0,0,3.43-1.59Zm118.46-2.55-1.81-3.29c-.57.57-1.69,1.26-1.6,1.68a15.82,15.82,0,0,0,1.6,3.42ZM607.69,845.1c-.57-.56-1.26-1.68-1.68-1.59a16.57,16.57,0,0,0-3.43,1.59c.57.57,1.26,1.69,1.68,1.6A16.12,16.12,0,0,0,607.69,845.1ZM331.36,650.44l-1.81-1.82a15.68,15.68,0,0,0-1.6,3.43c-.09.42,1,1.11,1.6,1.67Zm-134.5,171.7c-.57.57-1.69,1.26-1.6,1.68a15.82,15.82,0,0,0,1.6,3.42c.56-.56,1.68-1.25,1.59-1.68A16.26,16.26,0,0,0,196.86,822.14Zm641.22-1.82,1.82,1.82a16.57,16.57,0,0,0,1.59-3.43c.1-.42-1-1.11-1.59-1.67C839.28,818.14,838.67,819.25,838.08,820.32ZM614.61,792.25l-1.82,1.82a15.89,15.89,0,0,0,3.43,1.6c.42.09,1.11-1,1.67-1.6Zm63.79-17.86c-.59-1.07-1.2-2.18-1.82-3.29-.56.57-1.69,1.26-1.59,1.68a16.12,16.12,0,0,0,1.6,3.43Zm-358.32-101,1.81-1.81a15.68,15.68,0,0,0-3.43-1.6c-.42-.09-1.11,1-1.67,1.6ZM389,764.19l1.82,1.81a15.19,15.19,0,0,0,1.59-3.43c.1-.42-1-1.11-1.59-1.67ZM270.12,747.4l-1.82-1.81a16.26,16.26,0,0,0-1.59,3.42c-.1.42,1,1.11,1.59,1.68C268.92,749.58,269.53,748.47,270.12,747.4Zm-13.84-3.63,1.82,1.82a16.57,16.57,0,0,0,1.59-3.43c.1-.42-1-1.11-1.59-1.68C257.48,741.59,256.87,742.7,256.28,743.77Z"/><path d="M822,1123.25c.19,2.48-.32,4.74-3.38,4-.83-.19-1.16-2.63-1.72-4Z"/><path d="M827.14,1118.14c.13,3.53-1.57,5.24-5.11,5.11v-5.11Z"/><path d="M919,1036.49q.19,5.29-5.1,5.1Q913.71,1036.3,919,1036.49Z"/></svg>