<svg id="Layer_1" data-name="Layer 1" xmlns="http://www.w3.org/2000/svg" viewBox="0 0 1200 1200"><title>BB_Artboard 33</title><path d="M712.83,1072.16c-70.41,111.21-73.75,111.32-77.08,111.19-6.5-.25-7.14-5.75-6.77-11.94.56-9.33,12.78-11.05,11.14-20.6,4.72-4.71,11.45-8.66,13.63-14.35A32.78,32.78,0,0,1,665,1121.24c5.68-4.19,4.45-12,10.34-16,4.74-3.23,8.58-7.89,12.41-12.29,1.41-1.62,1-5,2.51-6.33,5.07-4.35,4.43-11.73,9.76-16.22,4-3.37,5.3-9.92,9.26-13.38,5.16-4.49,5.51-11.4,10.27-16,4-3.85,9.49-6.63,10.71-13,1.36-7.15,9.91-9.06,12.16-15,3.37-8.85,10.65-14,16-21,3.21-4.15,4.92-9.59,6.7-14.66,1-2.9-1.28-7.15,2.38-8.94,4.61-2.24,0-10.91,7.76-10.43v-2.51c0-2.5.07-5,0-7.5-.18-5,6.49-7,5.28-13-.9-4.47-1.75-9.82,3.42-13.58,1.37-1,1.25-4.47,1.28-6.82.12-10.84.53-21.71-.14-32.52-.37-5.85,2.37-9.14,6-12.64,1.68-1.61,4.26-4.11,3.93-5.69-1.36-6.45,3.27-10.46,5.31-15.47s3.91-10.21,6.89-14.62c3.07-4.56,7.29-7.82,9.2-13.8,1.59-4.94,7.37-8.91,12-12.41,4.87-3.7,6.37-9,8.76-14,3.12-6.5,8.64-11.74,11.75-17.72s6.34-11.42,11.39-15.08,4.22-10.27,8.59-14.18,9.71-7.89,11-12.81c1.74-6.53,8.47-8.37,9.91-13.44a21.54,21.54,0,0,1,5.66-10.24c3.49-3.45,8.66-6.83,9.48-11,1.14-5.76,5.45-7.91,8.26-11.69s8.48-5.67,7.42-12c-.16-1,2-2.41,3.2-3.58,4.11-4.14,8.6-8,12.27-12.48,3.44-4.22,5.1-10.29,9.17-13.48,5.55-4.37,4.65-11.82,10.19-16.17,4.16-3.27,8.5-6.72,10.59-13,1.89-5.69,8.41-9.75,12.55-14.8,3-3.6,2.11-9.58,7.14-12s4.62-8.12,6.94-12.17c8.26-14.44,8-14.56,22.83-22.62,5.34-2.9,11.3-1.32,13.85,3.68,2.73,5.34,1.25,16-2.8,20.33-5.47,5.85-13.73,10.21-11,20.48-8.06,4.9-8.92,15.13-15.57,21.06-5.46,4.87-8.23,12-12.86,16.95s-5.8,11.35-10,16.18c-1.91,2.21-2.07,5.87-3.76,8.37-2.25,3.35-6.5,5.85-7.5,9.38s-2.21,6.21-4.84,8c-4.45,3-4.56,8.27-7.18,12.06-2.8,4.05-8.24,6.58-10.19,10.85-4.93,10.76-13.65,18-21.44,26.17-1,1-1.23,2.8-1.78,4.24C917.08,741.7,910,748.6,906,756.83c-4.21,8.8-12,13.25-17.49,20.21-3.59,4.55-8.64,8-12.12,12.59a29.92,29.92,0,0,0-5.69,12.53c-.64,3.83-3.11,5.51-5.08,8-3.92,4.94-11.2,7.61-10.62,15.62-4.13,4.12-8.33,8.18-12.36,12.4-3.29,3.44-2,9.61-7.1,12.07s-4.13,8.46-7.15,12a97.42,97.42,0,0,1-10.6,10.61c-3,2.62-2,5.9-2.55,9-.38,2.22-1.2,5-2.8,6.25-5.59,4.53-9.36,10-6.94,17.09,2.35,7-7.8,8.62-5.33,15.56,2.16,6.05-3.83,8.65-7.19,11.85-4.09,3.9.24,4.94,1.53,7.24.73,1.29,1.35,3.74.67,4.55-3.81,4.59-6,9.5-4.87,15.55-5.13,4-5.74,9.52-5,15.44-5.64,2.92-4.93,9.66-8.42,14.14-3.64,4.68-1,12.14-6.32,17.46-3.52,3.49-3,11.27-6.64,14.38-7.07,6-8.29,15.84-15.64,21.26-5.36,4-7.71,9.9-10.86,15.48-2.28,4.05-1.86,9.71-6.83,12.23s-4.37,8.31-7.17,12c-3.34,4.41-7.47,7.66-9.29,13.76-1.48,4.92-7.85,8.29-11.81,12.58-3.19,3.47-2.19,9.39-7,12.31-.59.36.3,4.88,1.69,6.37,2.47,2.64,4.93,6.32,2.63,8.43-4.3,4-3.82,8.48-4.86,13.23-.77,3.47-4.78,6.22-7.34,9.3-6.32-1.47-8.41,4.21-12,7.24-3.1,2.63-4.82,5.71-5.94,10.12-.9,3.55-5,8.49-11.31,7.76-4.12-.48-8.33-.09,54.57-111.3C779.12,960,778.44,958.88,777.49,958.11a2.15,2.15,0,0,0-2.1,0,2.12,2.12,0,0,0,0,2.1,10,10,0,0,0,3,2.27C778.5,962.6,779.32,961.54,712.83,1072.16Z"/><path d="M985.61,411.77c1.95,6.28-5.05,10.2-4.7,15.38.48,6.91-3.47,10.27-7.13,14.79-3.91,4.84-6.21,10.77-10.39,15.8-3.89,4.69-7.16,10.33-10.63,15.55s-8.17,10.21-10.52,15.57c-4.47,10.2-10.36,19.21-16.67,28.14-.85,1.2-.68,3.15-1.55,4.32-4.31,5.81-11.46,9.1-13.64,16.91-2.28,8.16-13.29,10.38-14.66,18.87-1.26,7.78-12.23,9.24-10.57,18.21-3.54,3.54-6.66,7.7-10.73,10.45-4.62,3.13-3.33,8.7-6.77,12.42-4.79,5.17-12.95,8.21-12.58,17.22-4.71,4.72-9.27,9.61-14.2,14.1-3.89,3.52-6.47,7.09-5.69,12.81.25,1.86-1.67,4.35-3.16,6.05-5.42,6.17-12.79,11.3-16.18,18.38s-9.7,10.87-13.77,16.8c-2.63,3.84-2.25,9.52-7.15,12s-3.74,8.55-7,12.16-8.67,5.6-7.61,11.82c-4,3.13-3.69,9.1-6.86,12-3.94,3.62-1.69,10-6.83,12.35-.47,8-4.68,14.74-7.22,22-.34,1-2.7,1.23-4.12,1.82a6.84,6.84,0,0,1,0-2.48c2.83-6.66-7.47-8.52-5.32-15.54,1.41-4.58-.07-10,.35-14.93.54-6.25-1.88-12.53,3.39-18.74,3.67-4.34,2.12-11.68,6-17.49,3.12-4.6,8.58-10.28,5.58-17.64-.18-.44.54-1.56,1.12-2,6.36-4.23,8.25-11.62,12.37-17.42,3.68-5.19,10.31-7.83,11.65-15.24,1.14-6.28,10.91-7.83,9.83-15.9,6.91-4.78,8.29-13.79,14.06-19.08,7.32-6.72,11.88-14.85,16-23.52,1-2.09,1.86-4.39,3.35-6.09,5.43-6.16,11.09-12.12,16.66-18.15-1-8.49,11.94-9.38,10-18.37,4.06-4.16,8.08-8.36,12.2-12.46s3.86-10.14,8.62-14.12c4-3.35,5.24-10,9.28-13.32,4.89-3.94,3.89-10.57,8.59-14.17,3.89-3,5.87-7,7.44-11.93s9.89-6.48,9-13.78c6.51-5.07,8.11-14.13,14-19.05,9-7.56,11.59-19.66,21-26.53-.21-10,9.5-12.73,14.23-19.1,2.06-2.78,11.47-5.21,13.34-3.34,3.28,3.3,8.73,5.54,7.6,11.8A14.32,14.32,0,0,0,985.61,411.77Z"/><path d="M302.25,1144.43c-17.43,19.47-21.76,18.42-25.38,14.07-1.1-1.33-5.45,1-6.42-2s-2.11-7.83-.61-9.4c5.23-5.45,4.75-11.72,4.81-18.18,0-1.49.43-4,1.32-4.31,10.48-4.13,7-15.63,12.11-22.68,4.5-6.17,6-14.06,10.45-20.7,3.72-5.59,4.79-14,9.56-18.19,5.92-5.19,5.43-13.65,12-17.87,5.62-3.63,5.15-11.4,10.48-15.76,4.14-3.38,8.33-6.8,9.68-13.47,1.14-5.59,9.76-8,10.28-15.76.16-2.5,4.59-4.56,6.69-7.13,5.65-6.92,14.06-11.31,17.62-20.19,3.5-8.72,13.53-12.5,17.48-20.3,8.06-16,22.85-25.46,33.87-38.48,3.54-4.19,9.86-6.69,8.87-13.82,3.3-2.24,4.67-7.36,9.47-7.2a8,8,0,0,0,7.68-5.26c5.34-13.67,17.67-21.14,26.79-31.41,4.77-5.37,10.2-9.86,12.69-17.3,1.43-4.27,6.16-7.24,12.14-6.36,5.61.82,8-4,10.62-7.89-7.4-4.77-1.65-8.42,1.8-10.32,3.16-1.73,7.72-1.44,11.6-1.13,2.19.18,2.28,2.08.75,3.37-5.81,4.92-10.52,10.39-8.85,18.84a12.22,12.22,0,0,0-5.3,10.3c-8.82,6.3-10.4,18.52-19.53,24.32-5.44,3.46-3.54,10.91-8.78,13.94-5.44,3.15-5.06,9.83-8.84,13.86-4,4.26-8.23,8.28-12.35,12.41,1,7.13-5.28,9.68-8.9,13.79-3.86,4.37-7.8,8.84-12.43,12.29-4.94,3.68-3.23,10.55-8.58,14.21s-9.58,9.21-14.3,13.93c-4.12,4.12-8.6,8-12.29,12.45-4.5,5.48-6.05,13.14-12.46,17.31-.89,8.09-7,12.69-12.51,17.22-4.7,3.87-3.14,10.66-8.57,14.21-4.77,3.13-8.46,8-12.49,12.19-3.84,4-3.33,10.8-8.84,13.85s-2.86,11.16-8.86,13.82-3.51,10.75-8.84,13.85c.19,8.41-8.52,11.22-11.22,17.86a164,164,0,0,1-8.19,16.61,14.61,14.61,0,0,0-1.72,4.28c-.3,1.61-.27,4.73,0,4.77,2.45.35,5.87,1.26,7.32,0a179.35,179.35,0,0,0,16-15.78c4.95-5.43,13.85-5.09,17.44-12.32,1.16-2.34,2.51-2.39,3.47,0,.57,1.44,1.32,3.73.65,4.57-3,3.76-3.77,8.8-6.44,12.31-5.45,7.18-14.45,12.38-17.88,20.2-4,9.07-11.61,13.6-17.42,20.2-7.33,8.33-16.25,11.12-15.58-7.89,12.39-19.66,12.68-20.69,12.31-21.06a2.16,2.16,0,0,0-2.11,0c-1.65,1.16-3.71,2.59-.69,4.35C312.16,1127.93,313.65,1126.29,302.25,1144.43Z"/><path d="M604.9,669.49c1.19-6.22-2.73-12.6,3-17.1,5.14-4.07-.3-11,5-15.63,3.86-3.39,3.8-10.38,9-13.62,1.31-.8,3.23-2.64,3-3.59-1.72-7.69,2.81-12,7.41-17.13,3.52-3.88,5.32-9.36,7.76-14.18,2.79-5.51,5.34-11.13,8.27-16.58,2.54-4.74,4.34-9.88,6.85-14.64,1.46-2.78,3.67-5.16,5.57-7.7,1.44-1.91,4.08-3.77,4.12-5.7.1-3.91,2.16-6.29,4.78-8,4.47-3,4.37-8.44,7.16-12,3.9-5,3.75-12.47,10.36-15.89,2.82-1.46,6.7-4.48,6.8-6.93.33-8.49,10.18-10.72,11-18,.92-7.85,12.16-9.23,10.5-18.2,5.68-4.88,5.65-13,9.93-18.29,5.52-6.83,9.58-14.52,14.84-21.42s13.31-11.27,16.3-20.8c2.27-7.23,13.89-9.28,13.7-19.28,4.71-4.71,9.49-9.36,14.11-14.17,2.73-2.84,5.1-5.48,6.39-9.89,1.47-5,5.82-9.66,13.08-8.63a70.66,70.66,0,0,0,15,0,11.2,11.2,0,0,0,6.38-2.47c2.28-2.09,4.56-2.23,4.95.47.72,4.89-.06,10,.29,15,.27,3.72-1.2,6.14-3.81,8.49-3.7,3.35-9.12,6.52-10.17,10.68-1.57,6.19-5.59,9.59-9.29,13.73-3.17,3.53-8.24,6-7.08,12.06-9.26,7-14.36,17.29-21.2,26.21-4.32,5.65-6.59,12.48-12.16,17.6-5.11,4.71-8.09,11.66-12.67,17.06s-5.33,13.67-12.27,17.45a88.53,88.53,0,0,1-16.52,28.19c-1.43,1.69-1.54,4.51-3,6.19-3.26,3.77-7,7.11-10.51,10.68-2.81,2.88-.92,7.87-5.24,10.4-7.28,4.27-6.32,15.08-14.22,19-7.33,3.64-6.07,13.33-12.41,17.31-4.73,3-3.72,8.74-7,12.15-3.91,4-7.66,7.72-9.13,13.79-1.06,4.36-7.9,5.77-8.7,11.35a8.27,8.27,0,0,1-1.64,4.28,129.17,129.17,0,0,1-10.59,10.6c-3.8,3.3-3,8.63-6.79,12.35-7.39,7.26-11.13,17.51-19.4,24.52-3.11,2.64-2.83,9-7.3,11.79-.69.44-1.19,1.61-1.79,1.62a2.37,2.37,0,0,1-1.69-1.63C605.42,676.84,605.16,672.78,604.9,669.49Zm19.47-30.12-1.78-1.79A15.55,15.55,0,0,0,621,641c-.09.41,1,1.09,1.57,1.64Z"/><path d="M1055.84,805.45l-19.14,18.89c-1.19,10.09-10.37,14.1-15.89,20.89,1.6,7.28-4.48,6.51-8.32,8.87-2.59,1.59-10.51,4.52-3,10.38.28.21-.58,2.47-1.37,3.37-6.31,7.23-9.3,13.15-12.51,24.82A15.32,15.32,0,0,1,994,897c-2.61,4-8,5.69-8.51,11.51-.4,4.69-6.63,7.11-5.56,12.65-4,2.3-3.48,7-5.47,10.19-2.13,3.44-5.71,6-8.65,8.95-1.76,1.76-5.06,3.62-5,5.3.35,7.18-5.94,9.38-9.08,13.87a7.42,7.42,0,0,0-1.12,4.48c.32,4.35-.93,7.58-4.1,10.9-5.57,5.85-13,10.17-16,18.28s-10.43,12.44-16,18.26c-3.2,3.33-4.11,6.6-4.15,10.92a8.61,8.61,0,0,1-2.85,6.15c-12.82,9.36-17.91,25.19-29.83,35.29-1.49,1.26-1.59,4.26-2.17,6.5s-.19,5.75-1.59,6.7c-6.41,4.39-7,12.83-12.37,17.38-5.23,4.41-5.25,11.7-10.43,15.8-4.05,3.2-6.78,6.88-5.77,12.64.87,5-3.63,7.89-6.72,9.45-9.88,5-18.17-2.14-26.91-5.2-1.64-.58-1.14-2.25.89-3.45,6.08-3.6-.26-11.33,5.23-15.37,3.91-2.89,3.28-8.5,6.7-12.36,2.13-2.41,2.08-7.7,5.76-9.85,4.81-2.81,4.5-8.21,7-12.18,2-3.27,3.11-7.21,5.46-10.18,3.46-4.35,6.81-8.29,9.25-13.68s7.73-9.6,10.33-15.72c2.07-4.87,7.62-7.33,9.14-13.81,1.13-4.82,7.7-8.34,11.76-12.52,3.33-3.42,2.18-9.31,7-12.13,6.61-3.83,4.83-13.87,12.39-17.32,7.36-3.37,6.24-13.28,12.47-17.17,5.52-3.44,4.2-10.26,8.65-14.08,3.58-3.08,6.57-6.29,7.6-11.89.91-5,8.4-6.7,9.7-13.47.79-4.12,5.73-7.72,9.34-11,4-3.59,6.37-7.32,5.35-12.9a5.37,5.37,0,0,1,1.68-4.18c7.42-6.52,10.29-15.57,14.18-24.15,2.24-4.93,4.85-10.46,8.93-13.59,5.07-3.89,4.08-10.36,8.44-14.3,2.07-1.86,2-6,3.8-8.27,3.1-3.87,7-7.12,10.51-10.63,9.81,2.89,5.9-7.64,10.15-10.52a40.36,40.36,0,0,0,10.55-10.54c3.12-4.62,8.62-3.47,12.42-6.72,4.79-4.08,5.49-3.38,10.09,1C1049.45,799,1052.34,802,1055.84,805.45Z"/><path d="M602.5,91.85a10.22,10.22,0,0,0,1.79,1.64c1.62.9,4.47,5.14,4.86,1.25.66-6.61,5-12.13,5.28-17.73.33-6.35,5.29-9.93,5.56-15.42.24-4.91,3.37-5,6.72-4.79a36.5,36.5,0,0,1,7,1.17A2.43,2.43,0,0,1,635,59.83c0,5-.21,9.9-.34,14.85-8.2,3.83-1,14.83-8.84,18.88-6.32,3.25-4.52,12.15-10.63,15.61,2.7,6.65-8,8.66-5.3,15.32-7.28,4.49-8.27,13.67-14.19,19.12-3.78,3.48-6.76,6.91-5.91,12.71a7.32,7.32,0,0,1-3,6c-7.19,3.87-5.88,13.18-12.21,17.69-6.09,4.34-6.91,12-9.57,18.47-2.22,5.38-9.32,6.93-10.07,13.35s-7.74,8.16-10,13.39c-2.12,5-3.14,10.58-6.07,14.95-3.2,4.75-8.33,8.16-12.09,12.6-3,3.54-2.29,9.31-7.13,12.09-3.75,2.15-4.06,6.46-5.65,10.11-1.86,4.26-7.19,7.09-8.77,11.37-1.22,3.3-3.09,5.46-5.06,7.94-3.93,4.93-11.3,7.55-10.64,15.6-4.13,4.13-9.32,7.66-12.11,12.55-3.18,5.58-5.3,12.08-11,15.29-6.51,3.67-5.4,11.54-10.44,15.88A105,105,0,0,0,442,367.82c-3.35,4.25-4.12,10.07-8.84,13.93-3.54,2.89-7.05,5.95-8.79,11.29-1.62,5-7.53,8.39-10.72,13.07-4.18,6.13-8.1,4.4-13.09,1.32-1.81-1.12-5,.24-7.37-.29-2.56-.56-3.79-2.63-3.45-5.48.2-1.65-.65-3.84.15-4.92,6.48-8.86,7.95-20.47,16.13-28.45,3.9-3.8,8.5-6.82,9.42-13.7.66-4.92,8.73-6.58,9.76-13.44.5-3.4,5-6.1,7.42-9.35,3.81-5.21,11.41-7.54,12.15-14.95.71-7.17,10.17-7.93,10.51-15.85.14-3.19,5-6,7.42-9.3,3.81-5.21,11.19-7.55,12.18-15,.85-6.39,9.66-7.67,9.72-13.37.08-8.12,10.14-8.76,10.24-15.87.07-5.07,4.12-7,6.94-9.61a38.41,38.41,0,0,0,10.55-15.72c2.14-6.1,4.81-12.31,10.66-15.49,6.57-3.57,5.49-11.82,10.63-15.65,5.53-4.13,5.93-11.12,10.27-16,2.33-2.61,2.26-7.15,5.41-10.24,4-3.91,10-6.62,10.6-13,.44-5,7.53-6.92,5.47-12.79,5-2.5,3.39-9,7.12-12,7.66-6.27,9.42-16.87,17.56-22.89C594.67,100.68,598.37,96,602.5,91.85Z"/><path d="M659.93,430c-2.44,7.45-9.69,14.36-16.51,21.67-3.2,3.43-8.19,5.57-8.4,11.51-.25,6.87-7.82,3.36-11.18,7.24s-2.86,9-6.57,12.53c-2.8,2.64-7.24,4.37-7.29,9.43,0,1.43-.68,3.44-1.74,4.17-8.34,5.74-9.82,16.43-17.43,23-10,8.58-9.42,9.21-15.82,28.33-.48,1.45-1,3.15-2.08,4.1-6.8,6-9.41,14.24-13.11,22.09-5,10.59-12.76,19.65-18.58,29.83-1.52,2.65-2.46,8.13-3.58,8.1-7.09-.14-8.11,3.48-7.84,9.3a9,9,0,0,1-2.56,6.3c-6.16,5.48-9.67,12.68-12,20.07-1.36,4.33-3.32,4.6-6.71,5.08-2.58.35-3.81,2.28-3.7,5.24.16,4.72,1.61,10.71-6.72,9.67-2.79,5.37-6.48,10.28-8.22,16.18-.76,2.55-2.31,3.35-5.06,4.08-4.9,1.3-4.74,1.89,1,8.41-3.67,3-7.68,5.8-11.14,9.17-4.54,4.43-8.67,8.79-11.2,15.34-2.08,5.41-7.38,9.85-10.52,15.57-2.55,4.66-2.52,11.32-8.37,14.1-5.09,2.4-3.41,9.09-7.16,11.95-6.76,5.16-8.77,13-12.61,19.86-1.89,3.35-4.31,6.8-4.82,10.44-.69,4.93-5.31,6.11-7.16,9.6-2.89,5.45-5.25,11.17-8.14,16.62-2.26,4.27-4.84,8.28-10.46,9-9.47,1.13-18.65-9.09-14.08-17.18,2.29-4,3-9.72,6.69-12.12,6.71-4.41,6.41-13,12.2-17.63-.06-5.44,3.05-9.39,7.17-11.91,4.29-2.63,2.63-7.34,5.12-10.53,5.27-6.76,6.05-16.44,12.6-22.13,6.32-5.5,6.32-15,13.86-19.53,1.45-.87.66-5.35,2.13-6.33,5.84-3.91,4.21-12.2,10.27-16,3.44-2.16,6.9-5.29,8.66-8.83s3.41-7,5.13-10.39,2.85-7.05,5.61-10.2c3.65-4.17,8.86-6.67,10.65-13.09,1.39-5,7.85-8.58,9.2-13.57,1.5-5.51,6.12-7.49,8.46-11.57,2.67-4.67,5.43-9.52,6.76-14.65,1.2-4.62,5.4-6,7.42-9.47s2.74-7.93,5.51-10.06c5.52-4.22,7-10.58,10.45-15.82,2.59-3.9,2-9.64,7-12.09s3.32-9.45,7.19-11.87c6.84-4.27,7.34-12.27,11.86-17.89,2.09-2.61,2.79-7,5.56-10.11,3.66-4.16,9-6.61,10.66-13.08,1.09-4.24,5.21-8.43,9.05-11,5.3-3.6,4.42-10.18,8.61-14.14,3.42-3.22,7-6,7.67-11.93.48-4,11.57-1.7,9.78-10.36,4.12-4.13,8-8.56,12.45-12.29,4.23-3.54,6.64-8.69,13.31-10.19,7.9-1.78,11-11.11,18.66-15,7.13-3.67,6.38-5.14,12.27,0,.63.54,1.18,1.17-2.26,3.15-6-.76-6.67-1.88-7.62-2.65a2.15,2.15,0,0,0-2.1,0,2.1,2.1,0,0,0,0,2.1,10,10,0,0,0,2.95,2.28C653.32,431.84,654.14,430.77,659.93,430Z"/><path d="M580,1118.28c-3.52,7-5.57,15.3-12.5,19.73-6.78,4.33-6.89,12.54-12.15,17.69-4.47,4.37-11.39,7.45-10.75,15.5-4.85,2.39-9.49,5.63-14.62,6.92-4.71,1.17-10,.15-15,.27s-7.66-4.16-9.23-7.22-1.48-9.35.61-11.3c11.32-10.59,12.72-28,26.19-37,1.52-1,1-4.86,2.46-6.3,3.61-3.52,3.44-9.61,6.71-12.12,7.47-5.72,7.71-16.35,15.73-21.19,6-3.63,6.41-11.18,10.82-15.43s6-9.28,8.66-14.07c3.09-5.5,4.47-12.33,10.62-15.59,7.17-3.79,6.28-13.28,12.45-17.32,5.95-3.9,4.78-11.68,10.33-16,4.14-3.24,8.43-6.65,10.28-13.16,1.61-5.64,10.3-9.06,12.52-14.76,3.81-9.79,11.4-15.7,18.24-22.42,4.72-4.63,3.8-12.21,10.33-16,4.6-2.68,9.27-6.91,9-13.58,5.35-3.57,7.58-11.09,15.11-11.89,2.8-.3,4.59-1.67,4.25-4.67s1.19-5.25,3.68-5.18c5.88.14,6.56-3,6.75-7.73,0-.9,4.14-2.52,6.18-2.28,5.49.66,1.87,7.25,5.56,9.55,2.07,1.28,2.88,2.74.62,5.38-2.45,2.85-3.2,7.15-5.58,10.09-3.65,4.5-8.07,8.39-12.16,12.53.93,7.15-5,10.29-9.15,13.58-4.89,3.86-5,9.83-8.57,14.17-4.07,5-11.29,7.51-12.28,14.89-.87,6.44-9.32,7.65-9.79,13.39-.59,7.07-9.16,8.87-9.3,13.53-.2,6.41-8.25,8.74-6,15.27-3.34,3.62-8.82,6.88-9.5,11-1,5.87-4.64,8.91-8.26,11.57-5.67,4.16-6.14,11.45-10.67,15.62s-6,9.26-8.63,14.09c-1.85,3.39-3.15,7.17-5.43,10.23-2.47,3.3-6.34,5.61-8.63,9-4.35,6.43-9.53,12.71-9,21.28-3-.56-4.63,1.3-4.91,3.8C574.74,1115.42,575.32,1118.64,580,1118.28Z"/><path d="M130.28,942.94c-4.9.17-8.7.59-12-3.27-4.77-5.58-6.39-12.86-.71-16.84,6.7-4.69,5.62-13.47,11.8-17.81,2-13.06,13.64-20.75,17.95-32.51,6.84-3,6.3-10.86,10.45-15.7,1.91-2.22,1.67-6.85,3.8-8.19,7.41-4.69,7.34-14.2,13.81-19.53,4.12-3.4,8.25-6.84,9.62-13.49,1.15-5.55,9.09-8.15,10.36-15.67.84-4.95,8.45-6.64,9.6-13.52.68-4.07,8.39-7.06,8.87-11,.84-6.9,6.49-9.13,9.18-13.85,2.31-4.06,3.31-8.57,7-12.16,3.87-3.73,9.24-6.24,9.88-13.4.47-5.3,8.81-7,9.63-13.36s9-7.83,9.69-13.37c.63-4.86,3.81-6.9,6.22-10,3.36-4.34,8.74-6.67,9.54-13.64.59-5.16,8-7.09,10-13.26,1.55-5,7.87-8.56,9.28-13.55,2-7.11,8.09-10,11.95-15,.21-.27,2.49.56,3.36,1.35,6,5.52,6.75,9.69,3.09,17-1.73,3.45-2.87,7.5-5.44,10.14-3.53,3.62-1.42,7.9-2.77,11.43-1.63,4.26-4.46,8-6.11,12.46s-8.43,5.74-8.6,11.36c-.16,5.1-7.19,7.1-5.26,12.85-3.15,2.45-6,6.13-9.52,7-4,1.05-5.1,2.57-5.48,6.32-.45,4.51-7.19,18.76-9.4,21C256,758.9,252,763.18,247.65,767c-2.82,2.5-2.67,5.48-3.28,8.72-1.31,6.91-4,13.45-9,18.68-4.59,4.83-9.23,9.62-14.17,14.07a6,6,0,0,0-1.54,6.79c2.31,6.77-7.93,8.77-5.42,15.34-3.25,3.65-8.53,6.92-9.29,11-1.26,6.79-8.69,8.49-9.67,13.48A18.23,18.23,0,0,1,187.66,867c-4.38,3.2-2.19,9.27-6.82,12.4-3.09,2.09-6.66,4.62-6.63,9.69,0,1.9-2.49,4-4.11,5.68-3.43,3.63-8.39,6.52-10.18,10.78s-.68,9.8-.43,14.77c.18,3.54-.46,6.36-3.41,8.64a27.51,27.51,0,0,0-5.28,5.28C145.41,941.45,138.67,945.17,130.28,942.94Z"/><path d="M299.62,797.82c-4.25,12-12.71,21.45-19.71,31.7-2.72,4-4.38,8.32-7,12.13a24.31,24.31,0,0,0-3.81,8.54c-.43,1.76-5.41,2.16-8,3.75-2.07,1.28-4.64,3.16-5.19,5.25-2.93,11.15-12.42,16.89-19.78,24.17-4.24,4.19-6.28,9.07-8.58,14-3,6.59-6.37,13.13-12.48,17.21-5.87,3.92-4.75,11.78-10.39,15.87-4.65,3.38-8.35,8.09-12.47,12.21-4.7,4.7-9,10-14.26,13.94-4.46,3.3-2.05,9.69-6.91,12.24-4.31,12.27-11.06,22.88-21.18,31.17-4.05,3.32-6.54,7-5.75,12.73.25,1.86-1.45,4.84-3.14,6-6.49,4.32-7.31,10.35-6.8,17.33.16,2.15-1,4.52-2,6.61-2.53,5.62-4.78,11.44-8,16.63-5.31,8.44-11.5,15.9-23.38,14-4.06-.66-8.31,0-12.47-.13-3.18-.06-4.53-2.35-4-7.32.23-2.31.34-5.23,1.75-6.67a11,11,0,0,0,3.33-8.75c0-2.21.45-5.24,1.91-6.56,6.73-6.08,9.17-14.45,13.24-22s6.5-16.39,11.8-22.38c5.45-6.14,7-14.58,13.63-19.56,5.28-4,5.16-11.41,10.44-15.77,4.12-3.4,10-6.5,9-13.63,4.71-4.71,9.77-9.12,14-14.21,4.55-5.43,8.24-11.56,12.47-17.26s10.56-9.57,13.93-16.69c3-6.36,9.39-11.11,14.29-16.57-.34-9,7.83-11.92,12.46-17.27,5.43-6.28,11.66-11.86,17.55-17.75.86-10.33,10.38-14.12,16-20.79,5.35-6.34,12.15-11.47,17.37-17.9,3.37-4.16,3.8-10.38,9-13.74,4.7-3.07,6.86-9.36,13.14-10.53A12.26,12.26,0,0,0,299.62,797.82ZM270.3,819.63l1.78,3.22c.56-.56,1.66-1.23,1.57-1.64a16,16,0,0,0-1.57-3.37Z"/><path d="M193.35,375.55c44.25-72.39,34.06-65,35.35-55.11-5.39,3.15-2.87,8.9-4.54,13.09s-3.42,9.25-6.32,12.14c-3.78,3.75-2.52,9-6.52,12.59-4.7,4.17,1.29,13.53-6.84,17-1.94,13.06-13.7,20.69-18,32.46-6.63,5.06-8.44,13.09-11.92,20-2.29,4.55-4.77,8.76-9.87,9.4-4.42.55-5.27,2.62-5.33,6.3-.11,6.66-.48,6.56-8.41,20a65.61,65.61,0,0,0-6.48,14.74c-4.1,14-5.39,16.91-12.95,24.57-2.33,2.37-4.91,4.53-7,7.1-3.23,4-7.57,2.71-11.42,2.45-4.52-.3-3.06-4.59-4.09-7.4-1.23-3.36-3.66-1.46-5,.46s-3.23,2.41-3.43.65c-.74-6.46-1-13-1.12-19.48a5.85,5.85,0,0,1,2.31-3.94c8.65-6.62,9.23-18.36,16-25.69s8.32-16.85,14-24.18c3-3.84,1.95-9.55,6.84-12.24,4.61-2.53,4.26-8.92,7.32-11.71,8-7.3,10.67-17.3,15.54-26.16,3-5.55,5.06-11.61,10.49-15.7,1.54-1.16,1.92-4.14,2.39-6.38.77-3.64,7.4-19.48,10.1-20.61,8.45-3.56,2.25-12.51,7-17.22s10.43-8.62,8-16.62c3.12-4.65,4.48-9.63,5.6-15.26,1-4.8,7-8.64,11-12.76,4.51-4.68,4.4-4,13-1.22,3.77,1.24,5.61,2.25,5.49,6.16-.11,3.32,0,6.65-41.2,92.59-40.43,81.77-39.39,82.07-39,81.69a2.19,2.19,0,0,0,0-2.11c-1.17-1.65-2.59-3.7-4.36-.69C149.77,454.84,151.41,456.34,193.35,375.55Z"/><path d="M305.49,622.76c2.35,4.73-1.32,5.23-4,3.82-2.27-1.21-2.71-5.36-6.94-4.16-1.17.33-2.84-1-4.2-1.69-.17-.09,0-1.51.28-1.64,7.83-3.49.37-13.25,7-17.14,5.33-3.11,6.5-8.88,8.8-13.87,3-6.61,6.51-12.94,12.47-17.3,4.26-3.12,4.39-8.58,7.28-11.92,3.76-4.35,3.47-10.41,8.36-14.36,4-3.26,5.71-9.28,9.15-13.5,6.58-8.08,10.25-18.47,19.37-24.53,1.2-7.88,7.4-12.2,12.38-17.39s7-12,9.36-18.64a12.34,12.34,0,0,1,4.83-5.44c7.93-5.14,10.24-14.17,14.7-21.55,1.53-2.53,2.32-5.77,4.71-8,8.88-8.24,9.67-21.55,19.21-29.74,4.65-4,9.6-4.58,13.52-3s8,5,8.13,11.15c.21,14.77-.71,19.48-12.09,32.48-3.37,3.85-2,9.45-6.77,12.4-4.19,2.57-5.87,7-7.49,11.84-1.2,3.54-5.56,6-8.5,9,2.05,5.87-5.41,7.7-5.44,12.79a8,8,0,0,1-1.68,4.26c-4.22,5.83-11.72,8.88-13.38,17-1.28,6.32-11,7.82-9.89,15.89-4.61,4.76-10.92,8.79-13.37,14.48a44.57,44.57,0,0,1-11.12,15.36c-3.8,3.56-6.79,7.06-5.66,12.78a5.86,5.86,0,0,1-1.42,4.31c-4.37,4.93-10.77,9-13,14.66s-8.41,10.2-5.9,17.86c.54,1.63-3.73,4.85-5.82,7.32-9.59,11.37-9.59,11.37-23,6.52-3.92-4-5-3.33-5.81-2.38a2.15,2.15,0,0,0,0,2.1,2.12,2.12,0,0,0,2.1,0,10,10,0,0,0,2.28-3C304.18,619.36,303.11,618.54,305.49,622.76Z"/><path d="M575.34,421.81c-.83,1.56-1.53,3.94-3.05,5.55-3.93,4.16-8.89,7.55-7.4,14.55a5,5,0,0,1-1.43,4.26C552.39,453.81,549.23,468,538.77,476c-5.28,4.07-4,12-10.42,15.9-5.52,3.41-9.94,8.87-14.2,14-3.48,4.17-5.82,9.27-9,13.72-3.66,5.13-10,7.76-11,15.58-.66,4.91-8.08,6.84-9.76,13.42-1.25,4.9-7.1,8.68-11,12.85-7.71,8.24-16.48,15.32-21.63,26-2,4.19-8.74,6.2-13.48,8.92-.67.38-2.42-.71-3.39-1.47-.4-.32-.18-1.6-.05-2.41.93-5.38,6.58-8.83,5.23-15.48-1.14-5.61-.42-11.63-.14-17.45A12,12,0,0,1,442,553c3.43-4.35,7.62-7.63,9.13-13.82,1.21-4.95,7.9-7,9.32-13.69,1-4.81,8.89-7.8,11.2-12.77,5.37-11.52,14.44-19.64,23.47-27.62,5.19-4.59,4.43-12,10.28-16,4.72-3.26,8.37-8.08,12.49-12.2,4.72-4.72,11-8.65,13.81-14.31,5.6-11.4,14.87-19.17,23.4-27.74,3.27-3.3,6.13-9.82,11.61-7.18,3.48,1.68,5,7.34,7.43,11.24A26.12,26.12,0,0,1,575.34,421.81Z"/><path d="M231,542.47c-3.34-.13-6.39-.06-6.58-5-.21-5.46,2.4-11.74-3.4-16-1.74-1.3-.68-1.82.39-3.65,6.38-10.89,10.54-23.19,21.23-31.27,1.46-1.11.62-5.08,2.06-6.46,5.29-5.06,6.26-12.59,11.77-17.94,4.55-4.41,7.07-11.73,9.46-18.34,1-2.83,4.19-5.24,6.91-7,5.11-3.42,6.18-9.09,8.75-13.94,1.81-3.41,3.22-7.09,5.41-10.23,1.87-2.69,5.6-4.39,6.72-7.23,1.45-3.72,1.79-7.87,5.56-10.18,6.61-4.07,5.38-13.16,12.17-17.66,6.12-4.06,10.78-10.34,16.08-15.64s11-10.25,15.77-16c3.83-4.66,11.12-2.86,14-8.7,3.15-6.38,11.45-4.94,15.83-10.4,3.24-4.05,8.86-6.27,13.6-9,4.2-2.43,8.1.06,8,5-.07,3.13,1.1,6.58-2.13,9.12a63,63,0,0,0-5.33,5.26c-10.2-11.26-9.9,5.78-15.91,6-.6,0-1.27,1-1.75,1.7-2.37,3.31-5.9,2-9,2.38-4.7.57-4.69.66-1.9,6.43,2.17,4.48,1.8,6.34-4,8.38a15.84,15.84,0,0,0-10,9.53c-.6,1.42-.8,4.23-1.33,4.27-10,.65-10.17,10.85-15.22,16.13-4.73,4.94-6.9,12.45-12.73,17,1.31,9.43-11.5,11.14-11.16,20.53.09,2.3-4,5-6.55,7.08-2.93,2.41-3.65,5.35-3.08,8.75,1.07,6.27-4.65,8.16-7.45,11.92-7.4-1.17-8.31,3.34-7.56,8.91.86,6.3-1.79,10.6-6.1,15.08-5.45,5.65-7.2,14.24-14,19.11,1.68,8.86-10.34,9.8-10.43,18.34,0,3.1-5.15,6-7.45,9.27-1.25,1.82-1.73,4.32-2.1,6.59C238.23,542.78,238.29,542.78,231,542.47Z"/><path d="M344.44,297.48c-14.61,16.26-14.83,12.71-11.95,8.82,4-5.47,6.16-12.36,9.11-18.64,7.62-2.46,5.06-13.48,13.1-15.6-.08-5,6.88-7.16,5.29-12.81,5.12-3.07,4.86-8,4.77-13.05-.11-6.56,8.28-2.14,8.78-5.83.88-6.44,6-9.31,9-13.9,4.23-6.43,6.17-14.25,10.83-20.45,4.28-5.69,10.13-9.67,12.84-17.24,1.93-5.38,8.7-9.1,10.13-15.79.1-.48,1.33-1.08,2-1,5.76.54,6.92-2.54,6.64-7.52-.13-2.22.93-4.55,1.66-6.76a4.12,4.12,0,0,1,1.72-1.77c9.88-6.48,11.87-19.3,21.1-26.36.85-.65-.31-3.65.54-4.64,4.79-5.61,11.31-10.24,14.49-16.59,2.72-5.42,6.28-10.63,8.22-16.57.61-1.88,4.37-4.67,5-4.3,2.74,1.75,6.64,4.28,6.88,6.83.5,5.47,2.79,12-1.48,16.57-4,4.22-2.59,11.44-8.67,14a23.67,23.67,0,0,1-6.67,1.93c-3.3.33-6.68-.12-10,.24-.78.08-1.52,2-1.92,3.2-.11.32,1,1.31,1.7,1.62,8.57,3.68,9.41,4.45,6.15,8.51-4.49,5.6-5.29,13.71-12.22,17.51-1.45,6.61-5.74,11.3-10.59,15.61-3.75,3.33-7.11,6.64-6.18,12.55.3,1.91-1.46,4.34-2.7,6.26-3.52,5.41-10.77,7.66-12.2,15-1.19,6.12-6.78,9.13-10.89,12.87-3.35,3.06-3.35,7.07-5.22,10.44-2.65,4.77-5,10.15-9,13.63s-3.44,9.36-7,12.11c-4.05,3.12-.43,13.24-10,10.77-2.39,3.94-4.28,8.32-7.3,11.7-3.39,3.79-6.84,7-5.68,12.77a6.45,6.45,0,0,1-1.31,4.38c-3.19,4.47-9.76,6.76-8.77,13.88-4.13,4.13-8.28,8.23-12.37,12.39-2.85,2.91-5.79,7.06-10.13,4.36-2-1.27-2.14-5.62,12.41-29,14.07-23.48,13.4-24.59,12.44-25.36a1.5,1.5,0,0,0-2.12,2.12,10.25,10.25,0,0,0,2.95,2.27C357.9,276.61,358.72,275.55,344.44,297.48Z"/><path d="M840.4,157c.92,5.17-1,9.38-5,12.75,2,5.74-4.44,7.89-5.47,12.79-.87,4.17-7.57,7.14-8.39,11.29-1,5.1-5.6,7.89-6,12.51-.54,5.83-6.47,7.3-8.35,11.55-3.46,7.79-6.92,15.5-11.75,22.57-1.25,1.85-1.28,4.53-2.53,6.39-3.61,5.39-11,7.86-12.43,14.79-1.48,7.36-8.34,9.79-12.25,14.87s-10.47,9.12-12.4,14.79c-2.13,6.22-7.49,8.48-10.32,13.24-1.14,1.91-.58,5.06-2,6.59-5.59,6.13-11.63,11.86-17.51,17.73,1.12,7.56-4.27,13.23-5.89,20-.76,3.18-5.52,4.91-7.71,2.65-3-3.13-6.57-4.05-10.39-5.26-3-1-2.57-5.64-1.63-6.37,4.52-3.55,4.65-8,5.09-13.09.3-3.58,4-6.82,4.5-10.45.6-4.11.84-7.57,4.12-10.9,5.66-5.77,13.1-10.18,16.09-18.19s10.29-12.52,15.89-18.27c4.56-4.68,4.83-11.71,10.33-15.84,4.6-3.45,8.44-8,12.4-12.24,2.67-2.87,1.07-7.79,5.23-10.37s5.83-7,7.46-11.8c1.2-3.53,5.73-5.83,8.36-9,.84-1,.55-3.15.44-4.74a11.44,11.44,0,0,1,3-8.8c4.05-4.92,9.86-7.91,12.47-14.73,2.17-5.68,7.84-10.18,12.43-14.73,2.87-2.85,1.59-6.06,2.21-9.12,1.45-7.09,6.15-10.68,13.56-10.74,4.95,0,6.3,1,6.41,5C840.44,153.56,840.4,155.22,840.4,157Z"/><path d="M1115.8,55.37c-.2,4.8.13,9.08-4,13.51-3.92,4.24-4,11.84-7.66,16.55-3.89,5.06-7.66,9.86-10.59,15.67-2.4,4.78-7.54,7.6-9,13.88-1.13,5-8.5,6.61-9.4,13.67-.51,4-6.19,7.31-9.64,10.84-4.66,4.76-11.49,8.66-13.58,14.34-2.45,6.65-9.37,10.11-10.55,15.53-1.64,7.55-7,10.77-11.26,15.39-4.88,5.32-10.22,10.14-12.33,17.43-.85,2.94-1.8,6.07-3.59,8.46-2.47,3.3-5.69,6.06-8.76,8.87a6,6,0,0,1-3.49,1.29c-1.44.08-6.67-7.76-6.29-9.74a9.06,9.06,0,0,1,2.39-3.95c.37-.42,1.57-.17,2.39-.14,2.43.09,5.81-1.14,4-3.26-6.13-7-5.74-13,.9-19-1.66-5.68,5.27-7.77,5.35-12.81a8.73,8.73,0,0,1,1.75-4.23c1.53-2.32,13.12,1.68,4.44-7.19-.39-.4.38-2.55,1.15-3.38,3.41-3.65,7.26-6.91,10.43-10.74a11,11,0,0,0,2-6.55c0-3.45.61-6.14,3.27-8.74,5.86-5.74,11.28-11.93,16.88-17.94-1.13-8.56,11.68-9.49,10-18.34,4.7-7.37,14.67-10.84,15.56-21C1081,69,1088.07,65,1089.77,59.41c1.89-6.22,6-9.36,9.47-13.63,2.13-2.63,5-5.63,8.19-3.84,4,2.25,8.57,5,8.37,10.93C1115.77,53.7,1115.8,54.53,1115.8,55.37Z"/><path d="M742,36.72c1.76,0,3.58-.42,5,.12,1.29.49,3.16,2.15,3.07,3.13-.57,6.22,2.39,12.69-3.57,18.56-3.51,3.45-4.21,9.72-6.33,14.65-.61,1.41-1.51,3.12-2.76,3.76-7.17,3.71-6.16,13.38-12.37,17.24-5.52,3.44-3.68,10.43-8.58,14.11a71.93,71.93,0,0,0-12.33,12.27c-3.41,4.2-5.18,10-9.1,13.46s-3.84,8.7-6.88,12.23C685,150,680.86,153.07,677.8,157a37,37,0,0,0-5.29,10.21c-2.24,6.14-6,11-10.51,15.64-6.3,6.43-13.38,4-20.36,3-2.81-.41-3.67-6.17-2.58-10.47,1-3.81-.21-9.6,2.05-11.42,11.66-9.37,11.8-26.42,24.32-35a38.87,38.87,0,0,0,8.75-8.8c1.78-2.38,2.6-5.53,3.59-8.43,2.1-6.18,4.94-12.31,10.69-15.34,6.76-3.55,5.44-11.48,10.38-15.83a135.52,135.52,0,0,0,14-14.12c2.41-2.86,3.58-6.77,5.39-10.17,2.57-4.82,4.27-9.88,8.56-14C731.45,37.71,736.11,36.05,742,36.72Z"/><path d="M740.67,631.82c-33.86,52.94-38.08,56.78-42.53,60.32-3,2.4-2.87,5.48-3.07,8.8-.14,2.22-.82,5-2.29,6.45-6.89,7-11.73,14.8-12.73,24.82a12.37,12.37,0,0,1-3.12,6.13c-3.75,4.37-7.83,8.46-11.78,12.65,2.87,16.49-9.36,11.35-17.2,11.52-2.52.06-2.44-2.66-.39-4.92,1.44-1.59,2.12-4.16,2.48-6.39.48-3.05-6.65-4.28-3.32-7.07,4.2-3.52,2.09-9.47,6.77-12.45,5.14-3.27,8-8.16,6.68-14.67-.09-.48,19.43-36.48,19.89-36.71,5-2.51,4.31-8.3,7.05-12.1s8.1-5.64,8.29-11.65c.07-1.95,2.78-3.74,4.05-5.74,3.38-5.33,11.72-7.23,10.76-15.54,4.08-4.14,8.15-8.3,12.24-12.42,4.7-4.73,9-10,14.29-14,4-2.93,1.79-9,5.26-10.18,4.76-1.63,8.69-3.63,12-7.35a75.71,75.71,0,0,1,8.9-8.74c1-.81,3.3-.42,4.88-.06,2.56.59,3.05,0,2.58-2.58-.87-4.87.59-8,6.39-7.54,3.15.26,7.63-.9,8.28,3,.61,3.65,2.09,8.27-1.74,11.62-.62.54-1.18,1.17-1.77,1.76-5.3,5.3-10.83,10.4-15.84,16-4.19,4.68-11.33,7.49-10.67,15.54-5.3,5.31-10.16,11.18-16,15.72-4.38,3.37-2,10.07-7,12.15-6.65,2.79-4.48,12.72-11.14,14.15s-8.72,7.15-13.21,10.45c-2.4,1.75-2.19,2,33-41,30.18-47.93,30.5-45.53,31.32-45.34,3,.68,3.49-1.54,4.77-6.27.49-1.52-.62-.84-1.39.11a2.15,2.15,0,0,0,0,2.1,2.1,2.1,0,0,0,2.1,0,10,10,0,0,0,2.27-3c.1-.19-1-1-3,.72C773.64,582.51,772,582.51,740.67,631.82Z"/><path d="M827.37,16.68c7.38.07,7.84.49,8,6.47.22,6.65-.14,12.32-6.06,17.68-6.86,6.2-8.7,16.28-13.69,24.22-3.63,5.76-5.6,12.6-9.12,18.74-2.34,4.06-4.1,8.31-7.42,11.91-3.71,4-8.48,6.83-9.4,13.7-.66,4.93-9,6.5-9.68,13.45-.26,2.67-3.79,5-5.74,7.54-3.35,4.36-8.14,7-9.59,13.65-1.05,4.81-7.6,8.39-11.62,12.59a13.78,13.78,0,0,0-2.76,3.84c-2.14,4.95-3.59,10.26-6.23,14.91s-9.21,6.72-9.12,13.87c0,2.7-2.78,1.79-5,.16-2.41-1.77-6.24-1.84-8.26-3.85s-2.13-5.79-3.84-8.27c-1.43-2.09-2.91-3.4-.16-5.41,4.73-3.44,6.27-9,9.24-13.58,3.4-5.24,3.19-12.85,10.13-16.06,1.64-.75,3.3-4.16,3-6-2.05-11.53,6-8.9,12.27-9.59,2.63-.29,2.94-2.8.48-4.89-.86-.74-1.76-3-1.39-3.36,3.34-3.72,6.57-7.73,10.6-10.57,4.47-3.16,2.08-9.41,6.9-12.33,5.33-3.24,7.18-8.43,6.53-14.8-.25-2.48,1.71-4.25,4.88-4,1.38.09,4.12-1.2,4.07-1.65-1.06-10.49,6-16.48,12.66-22.29,3.86-3.34,3.07-7.2,3.36-11.22.1-1.43,1.37-4.08,1.81-4,9.62,1.29,6.82-9.49,12.1-12.26C814.83,16,821.09,15.92,827.37,16.68Z"/><path d="M493.78,1018.13c1.33,4.92-3.67,6.05-5.68,9.34-1.17,1.92-3.17,4-3,5.94.6,8.72-3.66,13-11.67,14.83-2.45.55-4.07,2.29-3.52,5.18,1.28,6.75-1.37,10.28-8.34,10.8-.65,0-1.12,2.6-1.68,5.1,0,.37.29-.66-.08-1a2.16,2.16,0,0,0-2.11,0c-1.65,1.16-3.71,2.59-.69,4.35.4.24,1.89-1.4,2.88-3.29,3.17-1.68,5.58.75,4.79,2.76-3.37,8.6-5.9,18.38-11.86,24.86-6.13,6.67-7.57,16.29-15.41,21.41a5.7,5.7,0,0,0-2.43,3.89c-.09,5-.56,9.12-4.28,13.47-2.12,2.48-2.28,7.37-5.71,10,1.91,5.75-3.73,8.5-5.49,12.73-5.15,12.33-17.63,14.16-27.19,5a71.42,71.42,0,0,0-5.34-5.25c-3.25-2.53-.06-3.58.84-5.38,3.43-6.93,6.15-14.22,10.66-20.59,4.11-5.8,8-11.78,12.44-17.33,4.95-6.21,6.89-14.59,13.93-19.26-2-9,10.16-9.93,10.42-18.34.1-3.17,4.6-6.4,7.45-9.24,4.1-4.09,8.92-7.64,7.19-14.57-.19-.78-.38-2,0-2.45,7.85-9.09,18.28-16,22.9-27.8,8.12,1.22,7.13-4.44,7.09-9.38,0-.84-.31-1.86.06-2.46a16.22,16.22,0,0,1,3.05-3.74c8.28-7.29,9.34-21.06,21.93-24.48q-.19,5.2,5,5c-2.3,5.41-6.61,9.84-5.22,16.83s-3,11.41-10.92,13.21c-.37,0,.67.29,1-.08a2.19,2.19,0,0,0,0-2.11c-1.16-1.65-2.59-3.7-4.36-.69C490.26,1015.65,491.9,1017.15,493.78,1018.13Zm4.35-14.3-3.23,1.79c.56.55,1.24,1.65,1.65,1.56a15.69,15.69,0,0,0,3.36-1.56Z"/><path d="M413.67,101.81c-2.87,8.41-6.61,16.86-14.18,23.06-3.1,2.54-3.63-.12-5.32-1.05-2.62-1.44-8,2.1-9.27,6.86-.82,3.18.15,6.54,4.85,6.18-3.86,6.66-5.89,14.33-12.05,19.73-4.09,3.59-8.92,7-8.93,13.58,0,.59-2.58,1.31-4,1.72-7.16,2-11.25,6.66-9.89,14.08,1.55,8.5-8.05,14.07-5.16,22.61-3.28,3.58-6.69,7-9.8,10.75-3.64,4.36-4.78-.47-7.08-1.48-.72-.32-2.21,1.33-3.43,1.87s-3.24,1.14-3.34.94c-1.35-2.71-2.25-5.65-3.6-8.36-5.26-10.5-4.91-11.59,9.52-18.9,1.52.49.84-.63-.11-1.4a2.17,2.17,0,0,0-2.11,0,2.12,2.12,0,0,0,0,2.1,10,10,0,0,0,2.95,2.28c.18.1,1-1-.72-3-1.63-4.53-3.88-8.11-.57-10.74,1.29-1,2.32-2.38,3.55-3.49,9.62-8.65,17.42-18.39,21.44-31.07.87-2.74,4-4.93,3.33-8.57,10.47-9,17.48-20.37,22.92-32.91.87-2,3.82-4.82,5.34-4.56,13.49,2.3,12.41-6.4,11.79-14.91-.33-4.5,2.77-4.43,6-5.66,3.38-1.3,5.88-4.91,8.76-7.51-9.28-6.55,1-8.5,3-12.33,3.55-7,7.05-2.12,10.88,0,4.56,2.54,8.17,8.48,6.39,12.45-1.26,2.81-5,3.84-5.08,7.94-.15,5.54-6,7.37-8.88,11.21-2.1,2.79.82,9.09-7.1,8.54-.37,0,.66.29,1-.08a2.16,2.16,0,0,0,0-2.11c-1.16-1.65-2.59-3.7-4.35-.69C410.15,99.33,411.78,100.82,413.67,101.81ZM399,113.61l-1.78-1.78a15.22,15.22,0,0,0-1.56,3.36c-.1.41,1,1.09,1.56,1.64Z"/><path d="M299.62,91.8c0,2.5,1,5.68-.18,7.38-3.58,5.19-8.82,8.61-11,15.58-1.69,5.46-9.34,8.68-10.07,15.8-9.62,6.86-10.81,19.07-17.57,27.81-2.56,3.32-.74,10.65-8.64,8.54-3.73,4.09-3.4,10.74-8.87,13.8-5.64,3.15-2.45,9-4,13.33-1.3,3.51-5.82,5.57-4.8,10.56s-.89,7.55-6.53,7.61c-1.87,0-3.56,3.13-5.62,4.36-2.89,1.73-7.73-.31-7.79-3.07-.09-4.17.13-8.35-.06-12.52-.33-7.58,2.95-11.9,10.36-14.23,5.37-1.68,6.33-4.6,3.23-8.48-2.31-2.9-3.08-3.83-.47-7.43,3.17-4.38,3.8-10.82,9.21-13.53,4.57-2.3,0-10.91,10.05-9,1.51.49.84-.62-.12-1.39a1.5,1.5,0,0,0-2.12,2.12,10.25,10.25,0,0,0,3,2.27c.19.1,1-1-.71-3-1.53-9,8-10.72,8.67-19.37.39-5.48,5.95-10.55,9-15.9,1.12-2,1.19-4.88,2.73-6.22,8-7,9.86-17.57,15.71-25.7,3.34-4.63,8.22-8.11,12.06-12.41,2.74-3.07,6.06-1.48,9.13-2,2.85-.46,5.24,1,5.33,3.43.31,8.72,2.21,18.46-9.87,21.62-.55-1.39-.87-3.79-1.69-4-3-.68-3.5,1.53-3.32,5.08,0,.38.29-.66-.08-1a2.19,2.19,0,0,0-2.11,0c-1.65,1.16-3.71,2.59-.69,4.35.4.24,1.89-1.4,2.88-3.29A8.29,8.29,0,0,1,299.62,91.8Z"/><path d="M229.37,585.16a9.63,9.63,0,0,1-1.77,1.73c-9.64,5.35-6.28,17.63-13.1,24.46,1.59,6.18-3.55,10.3-4.68,15.42-1.23,5.62-6,7.5-8.42,11.52-1.58,2.59-1.68,6.45-3.73,8.29-4.37,3.92-3.31,10.39-8.4,14.26-4.07,3.09-6.45,8.7-8.9,13.53s-3.91,10-6,15c-2.4,5.83-11.1,7.7-10,15.77-4,2.35-7.76,5.5-12.06,6.65-1.7.45-4.6-3.54-6.93-5.54a24.35,24.35,0,0,1-1.77-1.75c-6-6.31-6.56-12.21.42-18.54,5.62-5.1,6.09-12.7,11.76-17.9,4.95-4.55,6.64-12.52,12.63-16.94.25-7.39,6.41-10.75,10.49-15.59s10-7.67,11-15.44c.67-4.92,8.7-6.57,9.82-13.32.57-3.42,4.42-6.62,7.38-9.25,5.18-4.6,9.19-9.36,7.45-17-.12-.53,1.94-1.56,3-2.36,2.32,3.91,6.48,4.19,10.25,5.31C228.5,583.63,228.88,584.57,229.37,585.16Z"/><path d="M870.44,430.91c-.14.58-.17,3.21-1.38,5.07-2,3-8.86-.71-8.65,6,.1,3.32.41,6.71-.12,10-.36,2.16-2.1,4.08-3.09,6.16-2.31,4.86-5.13,9.58-6.61,14.69-1.32,4.57-5.45,7.19-6.21,12.55-.69,4.89-9.54,6.4-9.08,13.59.05.92-14.62,8.77-15.72,8.42-1.44-.46-3.91-1.61-3.85-2.23.52-4.78-3.42-7-5.17-10.44-3.93-7.74,4.69-13,5.36-20.1.19-1.91,3.13-3.75,5.08-5.27,7.17-5.6,11-13.57,14.07-21.6a16.86,16.86,0,0,1,5.35-7.68c3-2.31,6.63-3.7,10-5.48-1.2-5,2.84-7.17,5.42-10.24,2.87-3.42,4.15,0,5.23,1.32,1.59,2,1.9,1.6,3.74.06,4-3.31,5.4-2.78,5.63.95C870.49,427.44,870.44,428.27,870.44,430.91Z"/><path d="M509.92,978.08c0-2.5.05-5,0-7.5-.07-3.25-.56-6.29,3.91-7.65,5.12-1.56,10-4,14.85-6.31a15.34,15.34,0,0,0-1-3.38c-.84-2.15-3.15-5.26-2.45-6.22,4.18-5.72,5-13.57,11.21-17.9a2.13,2.13,0,0,1,1.72-.38c.7.35,1.68,1.08,1.72,1.7.19,3.31,1.52,8.25-.11,9.66-5.25,4.55-5.41,10-4.64,15.7.68,5.1-2.65,7.49-5.63,10.19-3.3,3-9,11.71-10.4,15.27-.38,1-2.69,1.24-4.11,1.82Q515.13,977.89,509.92,978.08Z"/><path d="M560,900.87c-1-7,4-9.86,8.58-12.8,1-.64,3.09,0,4.48.53,2.23.89,2.12,2,.48,3.38-4.81,4-8.85,8.63-10.2,15a2.1,2.1,0,0,1-1.61.12c-.67-.38-1.55-1-1.65-1.66A30,30,0,0,1,560,900.87Z"/><path d="M234.53,554.81c0,1.62.39,3.39-.14,4.81-.36,1-2,1.44-3.08,2.14-2.09-3.24-6.77-4.41-6.89-9.32-.08-3.05,1.44-4.78,3.86-4.81a10.17,10.17,0,0,1,6.11,2.49C235.19,550.8,234.53,553.2,234.53,554.81Z"/><path d="M885.57,410.06c-.21,1.15-.51,3.41-1.08,5.6a2.94,2.94,0,0,1-1.67,1.57c-2.34.9-2.77.09-2.46-2.35.4-3.12-.13-6.36.23-9.48.12-1,1.77-1.89,2.84-2.66a3.57,3.57,0,0,1,1.56,1.61A46.73,46.73,0,0,1,885.57,410.06Z"/><path d="M310.11,782.79c1.3.62,2.62,1.2,3.86,1.93.15.09,0,1.22-.38,1.57-2.16,2.22-4.35,4.42-6.67,6.46a2.23,2.23,0,0,1-2.21,0c-.39-.39-.08-1.47-.08-2.25C304.56,783.74,305.08,783,310.11,782.79Z"/><path d="M657.36,770.27c-4.18,1.24-6.3,2.29-8.45,2.35-1.24,0-2.53-1.51-3.79-2.34,1.26-.84,2.55-2.38,3.79-2.35C651.05,768,653.16,769,657.36,770.27Z"/><path d="M580,1108.26c4.7-.36,5.29,2.86,4.91,6.22-.28,2.5-1.85,4.36-4.91,3.8Z"/><path d="M392.66,132.26c.58.58,1.65,1.4,1.55,1.59a10.15,10.15,0,0,1-2.28,3,2.12,2.12,0,0,1-2.1,0,2.15,2.15,0,0,1,0-2.1A18.58,18.58,0,0,1,392.66,132.26Z"/><path d="M817.87,342.16a15.69,15.69,0,0,1,1.56,3.36c.09.41-1,1.09-1.56,1.65a15.55,15.55,0,0,1-1.57-3.37C816.21,343.39,817.31,342.72,817.87,342.16Z"/><path d="M869.72,415.49c-.67.66-1.22,1.22-1.78,1.78a16.2,16.2,0,0,1-1.57-3.36c-.09-.42,1-1.09,1.57-1.65Z"/><path d="M880.46,419.5c-1,.77-2.49,2.41-2.89,2.17-3-1.76-1-3.19.69-4.35a2.21,2.21,0,0,1,2.12,0C880.75,417.72,880.46,418.76,880.46,419.5Z"/><path d="M223.79,569.26,222,572.49c-.56-.56-1.66-1.23-1.57-1.65a15.7,15.7,0,0,1,1.57-3.36Z"/><path d="M318.93,771l-1.78,1.78a15.26,15.26,0,0,1-1.57-3.36c-.09-.41,1-1.09,1.57-1.65Z"/><path d="M755.28,770c-1,.77-2.49,2.4-2.89,2.17-3-1.76-.95-3.19.69-4.35a2.21,2.21,0,0,1,2.12,0C755.57,768.23,755.28,769.26,755.28,770Z"/><path d="M302.53,773.19c.58.58,1.65,1.4,1.55,1.58a10,10,0,0,1-2.28,3,2.12,2.12,0,0,1-2.1,0,2.17,2.17,0,0,1,0-2.11A18.44,18.44,0,0,1,302.53,773.19Z"/><path d="M294.61,782.79c-.12-3.46,1.54-5.13,5-5Q299.82,783,294.61,782.79Z"/><path d="M642.62,777.79a15.69,15.69,0,0,1,1.56,3.36c.09.41-1,1.09-1.57,1.64a15.69,15.69,0,0,1-1.56-3.36C641,779,642.06,778.34,642.62,777.79Z"/><path d="M294.61,782.79q.19,5.21-5,5Q289.42,782.61,294.61,782.79Z"/><path d="M299.62,797.82q-.19-5.21,5-5C304.75,796.27,303.09,797.94,299.62,797.82Z"/><path d="M504.92,983.08q-.19-5.19,5-5v5Z"/><path d="M514.93,983.08q.2,5.2-5,5v-5Z"/></svg>