<svg id="Layer_1" data-name="Layer 1" xmlns="http://www.w3.org/2000/svg" viewBox="0 0 1200 1200"><title>BB_Artboard 97</title><path d="M415.57,711.91c-1.31,1.46-2.51,3-3.9,4.32-2.49,2.4-4.2,6.57-8.72,1.63-6.14-6.7-16.33,1.46-22.33-4.58-7-7.1-15.23-2.75-22.79-4.06-.58-.1-2.16,1.6-2,2,.55,1.44,1.47,3.7,2.52,3.85,5.71.82,11.17-.56,16.78,4.33,3.59,3.13,11.39,1.27,17.25,2a7.74,7.74,0,0,1,4.83,2.83c5.87,8.47,14.1,9.86,23.68,9.4a335.6,335.6,0,0,1,36.58.06c7.91.49,12.58-3.34,18.3-7.83,8.9-7,6.84-15.9,7.12-24.69-9.9-10-6.28-22.61-5.67-34.05.42-7.92-4.92-12.42-6.55-18.83-1.89-7.4-6.51-10.68-14.15-12.91-6.1-1.78-11.48-7.29-10.46-16.14.74-6.39-3.55-6.21-10.51-16.52-7.52-11.14-21-5.82-27.94-14.66-13.32.61-22.93-8.44-34.17-13.21-7.06-3-13.27-8.59-21.91-6.14-1.86.52-5.13.81-5.85-.18-4.94-6.77-13.26-8.22-19.87-11.31s-15.73-1.21-23.74-1.49c-6.73-11.6-22.48,1.14-29.08-10.78l-30.27-.56L213.4,534.19c-1-.52-12-11.63-12.58-12.56-1.52-2.43-3.58-4.66-4.46-7.29-.48-1.42.84-5,1.64-5.06,8.41-1,12-5.15,10.45-13.71-.52-3-.14-6.09-.07-9.14.19-8.43,6.34-15,14.52-15.18,6.9-.16,14.33-1.6,18.88,5.92,6.08,0,12.17.24,18.23-.05.77,0,1.43-2.59,2.14-4-6.22-2.95-3.36-11.11-8.59-14.77-5.94-4.17,1.06-12.54-4.47-16.28s-2.24-12-8.5-14.91c-1.28-8.5-4.92-16.23-7.56-24.3-4.38-13.34-25.22-56.15-33.41-65.47-.67-.76-2.09-1.51-2-2.14a11.77,11.77,0,0,1,1.63-4.3c.47-.86,1.51-1.38,2.09-2.2,5.69-8,17.83-.14,23-9.36,18.26.55,18.66,1.12,27.16-4.51,5.53-3.66,9.17-2.8,12.62,1.73,1.9,2.49,3.15,2.84,4.32-.13.7-1.75,1.62-4.6.79-5.58-5.15-6.13-10.77-11.86-16.21-17.75-2.78-3-3.05-7.36.55-10.29,7.63-6.21,10.93-13.54,9.89-23.51-.84-8.05.14-16.27-.29-24.38-.25-4.77,4-6.85,4.92-10.16.7-2.39-3.33-6-4.74-9.21-3.82-8.81,6.24-13.63,6.62-21.82.17-3.76,6.74-7.08,10.06-10.89,2.84-3.26,5.85-5.07,10.38-4.57,10.87,1.2,22.37-2.74,32.64,2.2,8.46,4.07,17.06,8,25.22,12.74.85.49,1.39,1.92,2.19,2,2.72.38,6.22,1.51,8.1.3,5.09-3.25-.75-5.23-2.07-6.05-8.38-5.18-7.94-13.08-8-21.31,0-4.65,2-7.57,5.2-10.1,7.42-5.89,11-11.93,1.46-19.14-.54-.4-.48-1.88-.37-2.82.84-6.81,13.59-18.25,20.61-18.83,8.39-.7,15.42.38,21.29,8,4.62,6,16.67,4.82,18.24,13.23,1.29,6.9,5.21,10.4,9.21,14.58,3.36,3.51,6.18,8.3,12.34,7,11,7.4,17.57,18.32,21.61,30.3,1.83,5.43,5.84,7.84,8.92,11.51.92,1.1,3.86,1.23,5.59.76,3.12-.83,4.62-3.21,4.2-6.68-.35-3,.68-7.88-.7-8.63-9.67-5.24-1.21-18-10.52-23.45-5.32-3.1-8.71-8.21-7.16-15.24,1.08-4.9-3-7.4-6-9.6-5.63-4.15-6.82-9.41-6.31-15.84a7.07,7.07,0,0,0-2.29-5c-3.36-3-5.56-7.06-2.88-10.3,3.56-4.32,6.67-9.8,14.52-9.09,7,.65,14-.21,18.8,6.39,6.44-.83,9.62,1.93,8.52,8.44-1,5.84,1.77,9.9,6.11,12.67,5.54,3.55,11.78,9.15,17.39,8.79,11.25-.71,15.78,7.14,22.4,12.72,5.84-5.06,9.86-12.79,19-12.94,5.79-8.55,14.76-5.73,22.17-4.92,8.72,1,12.92-8.47,22-6.81,8.85,1.62,18.23.35,27.38.35,8.13,0,16.32-.57,24.39.14,10.5.94,22.36-4.75,31.13,5.72,9.11.08,18.43,1.35,27.29-.11,8.17-1.34,12.23,5.57,18.88,6.46s13.59-2.08,19.71,4.23c5.88,6.06,15.41-1.49,22.55,4.33a53.88,53.88,0,0,0,17.34,9.45c5.5,1.75,13.59-1.05,17.24,2,4.79,4.05,11.15,3.17,15.39,7.91,3.7,4.14,11.37,2.82,14.59,8.63,6.14-1.49,9.17,3,12.46,6.68,6.1,6.81,14.66,9.22,22.76,11.2,5,1.23,10.07,1.42,12.72,6.08,4.34,7.63,15,5.18,19.19,12.85,4.07,7.47,14.14,5.9,19.21,12.8,4.75,6.49,11.28,11.66,17,17.41,12.29-4.93,5.29,13.41,15.77,12.75,7.17-.46,10.66,8.23,15.77,12.83,6,5.44,13.7,10.49,16.85,17.43,4.73,10.41,14.63,16.39,19.32,25.58s11.24,15.87,17.72,23.15a14.34,14.34,0,0,1,3,7.82c.37,4-.37,8.12,3.63,10.74,8.64,5.66,8.86,17.49,17.2,23.42,1.53,1.09,3.71,3.16,3.53,4.49-2.14,15.55,14.8,25.2,12.46,40.73a3,3,0,0,0,1.33,2.4c5.42,2.61,3,9.54,6.58,12.46,4.83,3.91,4.28,8.63,4.23,13.62s1.27,10.6-.27,15.16c-3.73,11,8.22,17.5,6.67,28.1-1.45,10-.28,20.29-.33,30.45,0,5-.19,10.08-.3,15.12-9.46,4.21-2.25,15.71-8.74,20.68-6.71,5.14.51,13.92-6.25,19-4.84,3.61-8.81,8.41-13,12.83-4,4.2-9.86,7.4-8.65,14.7-6.25,8-16,10.22-24.36,14.83-.79.44-2.4-.19-2.85.34-1.2,1.42-3,3.41-2.7,4.8.51,2.52,2.52,6.86,3.62,6.77,7.62-.59,9.92,6.07,14.46,9.57-1.47,8.27,8.22,12.78,6.48,21.94-1.69,8.92-.33,9-11.89,11.63-2.67.6-5.07,2.45-7.58,3.75-5.42,2.8-5.42,2.83-10.41.2-2.51-1.32-4.95-3.77-7.48-3.86-11.17-.43-22.38-.59-33.54,0-7.33.35-13.51-.75-19.07-6-.94-.89-6.31.88-7.4,2.73s-.12,6,1.46,7.9c3,3.65,6.12,9.26,12,7.24,8.33-2.87,11.19,7.05,18.9,6.8,4.79-.15,5.3,14.44.64,17.72-8.09-3.53-10.28,8.63-18.89,6.54-8.31-2-17.88,1.5-25-6.35-.91-1-3.92-.06-5.94-.15-6.15-.27-8.6,1.1-8.07,5.79.89,7.86-4.11,17.67,2.18,23.19,7.2,6.31-1,16.93,8.25,21.25.55,6.88,1.79,13.81,1.44,20.65-.32,6.22,4.17,8.59,7.1,12.44,1.91,2.51,3,2.82,4.38-.06a11.08,11.08,0,0,0,.91-2.67c1.78-8.93,6.62-13.58,16.29-13.62s18.14,1.49,20.18,12.66c1.08,5.86,8.85,8.5,6.81,15.5,6.35,3.79,4.63,10.19,5.81,16,1.7,8.34,19.61,31.16,26.65,34.46,3.34,1.56,8,1.41,11.79.7,7.56-1.41,13.19,3.52,14.48,8.3,2.29,8.51,8.35,13.08,13.35,19,1,1.22,1,4.06.38,5.75a6.44,6.44,0,0,1-4.09,3.55c-2.94.57-6.08,0-9.11.2-11.54,1-23.78-3.34-34.33,5.77-2.33,2-7.88.36-11.94.28-4.53-.08-7.54,1-7.52,6.55.13,30.49.72,61-.37,91.47-.29,8.07,7.82,12.17,6.23,18.76-2,8.3,6.74,11.7,6.54,18.9-.19,6.74-2.44,14.39,5.21,19.13.25,8,.85,16.07.62,24.08-.13,4.78-11,10.08-16.33,10.5-6.1.49-8-5.25-12.73-6.41-10.14-2.5-18.86-8.59-28.19-12.84-8.66-3.94-14.08-14.47-22.16-20.42-6.32-4.64-4.17-13.15-10.51-17.26-5.1-3.31-6.39-9.28-9.09-14.42a243.83,243.83,0,0,1-11-23c-2.78-7-13.23-9.53-12.35-19.28-12.76-10-16.71-25.55-23.5-39.1-2.41-4.79-5.55-10.26-9-11.06-13.1-3.05-19-14.21-27.32-22.28-7.6-7.36-17.5-13.05-20.15-25.16-.73-3.34-5-8.9-11.18-8.71s-8.5-7.64-15.83-6.39c-7.9,1.35-16.22.62-24.34.21-6.48-.34-9.32,2-8.65,8.57.07.72-1,2.23-1.6,2.25-8.84.34-17.88,1.6-26.45.14-3.26-.56-7.55-5.31-8.78-11.15-1.83-8.67-8-13-17.61-12a92.18,92.18,0,0,1-18.27-.07c-2.6-.25-4.94-2.64-7.51-3.83-11.8-5.44-16.82-2.94-17.21,9-.19,6.1.3,11.89-5.55,16.23-1,.77.25,5.37,1.19,7.94s3.9,4.85,4.07,7.38c.54,8.1,1,16.37,0,24.36-1.12,8.46,3.17,13.35,8.83,17.77,5.22,4.07,1.31,6.28-1.4,8.66-9.87,8.66-10.8,18.83-3.44,29,4.72,6.51-1.83,17.09,8.42,21,0,4.07.42,8.18-.09,12.18-.61,4.79,2.73,10.52-2.14,14.24-2.88,2.2-7.24,2.46-10.17,4.63-2.13,1.58-2.92,2.62-4.46.92-6.54-7.2-16.77-12.31-13.64-24.87,2.1-8.39-8.29-13-6.37-21.92,1.45-6.81,2.86-15.81-.36-20.88-4.09-6.44-5.84-12.08-5.52-19.23s.07-14.23.07-21.35c0-5.07,1.54-10.91-.47-15s-6.59-7.19-6-12.78c-6.27-3.75-5.78-9.81-5.77-15.94q0-13.56-.92-27.11c-.06-.88-3.2-2.1-4.93-2.15s-5,1.06-5,1.89c-.72,8-.91,16-1.25,24,11,12,6.14,26.82,5.51,40.14-.47,9.8,8.73,15.22,7,25-1.31,7.47-2.81,16.35,5.78,21.81,0,16.26,0,32.51-.16,48.77,0,.72-1.42,2.12-2.06,2-12.73-1.33-8.8,13.86-16.9,16.94-2.64,1-5.5,2.27-8.2,2.14-5.7-.27-12.41,2.71-16.55-4.07-12.64-2.8-19-13.74-27.58-21.66-1.2-1.1-1.33-3.48-1.73-5.32-1.87-8.43,3.37-17.49-4.52-25.75-5.92-6.19,2.93-18-6.59-24.72-1.59-1.13-1-5.59-1.07-8.51-.14-6.1,0-12.2,0-18.3,0-8.13-.23-16.27.07-24.4.26-7.13-8.55-10.62-6.39-18.87,2.79-10.6-2.08-18.46-9.69-26.5-13.17-13.92-15.86-18-29.19-16.57-13.74,1.52-20.66-7-27-15.45-2.85-3.79-2.2-10.79,2.55-16.42,5.11-6.06,3.85-8.67-2.05-11.18-5.19-2.2-10.41-5.38-15.79-5.78-5.56-.42-9.53-2-12.82-6.15-11.79,2.32-18-5.9-25.24-12.83-5.5-5.27-9.18-13-19.44-12.2-7.42.59-12.83-9.16-21.91-5.94a8.73,8.73,0,0,1-10.6-3.53c-5-7.69-12.34-10.69-20.83-8.31-8.21,2.3-10.44-9.12-19-6.65-5.25,1.53-12.24,2.25-16.27-4.41a4,4,0,0,0-2.46-1.3c-6.64-1.34-14.23,3.18-20.07-3.06-4.09-4.37-11.72-2.52-14.75-8.61l-6.47,5.33c-8.64-10.7-20.66-5.81-30.91-5.36-8,.35-10.43-9.44-18.94-7-5.51,1.6-12,0-18-.2-5.63-8.75-14.83-6.5-22-5.11-9.24,1.78-12.84-9.22-22-6.89-6.68,1.7-14.14.33-21.26.33-11-10.54-24.68-5.65-37.12-5.63-7,0-9.81-6.66-15.76-6.47-3.74.12-6-1.56-6.2-4.72a178.58,178.58,0,0,1,0-21.33c.2-3.14,2.56-4.91,6.26-4.61,9.62.78,19.9-2.46,28.19,5.94,1.5,1.53,5.92-.1,8.92.29,5.74.75,12.28-2.61,17.13,2.7,5.9,6.45,13.32,2.52,20,3.2,6,.62,12.18.13,18.28.13,11,10.36,24.65,4.68,37.12,6.12,2.88.33,7.47-.1,8.32,1.44,4.58,8.33,13.54,1.89,18.94,6.34,1.56,1.28,2.77,3.91,4.35,4.09,5,.57,10.28-.51,15.13.54,4.47,1,8.36,5,12.81,5.62,6.94,1,15.54-2,20.82,1.16,5.47,3.24,10.94,3.58,16.05,5.7,7.29,3,13.77,6.89,22.09,5.66,7.4-1.1,9.51,6.4,14.37,9.44,2.33,1.45,7,3.31,7.75,2.47,8.09-9.25,18.7-4.87,28.24-5.83,6.16-.62,8.48,7.83,15.83,6.37,5.43-1.09,11.7-2,16.65,4,1.81,2.19,7.42,1.13,11.25,1.8C404.11,710.13,410.57,706.53,415.57,711.91Zm140-438.46a22.46,22.46,0,0,0-2.94-3.47,1.83,1.83,0,0,0-2.59,2.58,12.25,12.25,0,0,0,3.6,2.77c.22.12,1.22-1.17-6.39-5.43.9,0,2.17.36,2.62-.09a2.68,2.68,0,0,0,0-2.58c-1.41-2-3.15-4.51-5.3-.84C544.32,266.88,546.32,268.7,555.58,273.45Zm274.5,176.9a22.38,22.38,0,0,0-2.94-3.47,1.82,1.82,0,0,0-2.58,2.58,12,12,0,0,0,3.59,2.77c.23.13,1.23-1.17-3.67-14.53a31.35,31.35,0,0,0-2.26-8.15c-1.28-2.58-4.08-4.43-6.33-6.45-.25-.22-1.52.37-2,.87a6.17,6.17,0,0,0-1.53,2.37c-2.21,6.85,6.29,9.11,6.49,15.66.15,5.06,5,7.32,5.59,4.78C824.86,444.88,824.48,442.76,830.08,450.35ZM293.27,365a22.38,22.38,0,0,0-2.94-3.47,1.82,1.82,0,0,0-2.58,2.58,12.24,12.24,0,0,0,3.59,2.78c.23.12,1.23-1.18-3.67-5.43,0-3.83-.25-7.68.05-11.49.76-9.54-2.26-16.47-15-19,.91,0,2.17.35,2.62-.1a2.68,2.68,0,0,0,0-2.58c-1.42-2-3.16-4.51-5.31-.84-.28.49,1.71,2.31,5.37,3.52,0,1.91-.71,4.24.12,5.67a56.11,56.11,0,0,1,7.34,22.9C283,360.28,286,360.77,293.27,365ZM794,441.23c0-3.11.36-6.07-.16-8.87-.24-1.28-2.16-2.31-3.46-3.25-.13-.09-1.82,1.21-1.89,1.95a64.58,64.58,0,0,0-.43,11.36c.12,1.54,1.8,4,3.08,4.2,5.82,1,1.43-3.91,2.86,8.34-8.54,8.28,10.75,10.45,6.38,19.58a18.79,18.79,0,0,0,4.3,1.11c.48,0,1.33-1.42,1.47-2.28,1.75-10.48-5.68-17.84-9.22-26.52-.15-.35-2.79-.11-2.8,0C794,448.83,794,450.86,794,441.23ZM714.71,224.12c-3.13-3-6.2-6.14-9.44-9.05a2.72,2.72,0,0,0-2.69,0c-.47.47-.09,1.79-.1,2.74-.08,8,3.46,11.46,9.39,9,.81-.32,1.36-1.29-22.28-41.8-3.53,11.27,6,18.53,7.79,27.78a3.67,3.67,0,0,0,2.1,2.08c3,1.15,3.48.12,3.11-3-.86-7-.85-13.87,5.86-18.81.91-.67.81-4.47-.19-5.67-3.74-4.47-11.46-2.61-14.47-8.63C692.39,180.94,691,183,714.71,224.12Zm152.53,61c15.37,12.77,18.25,33.25,29.81,48.42,1,1.32.6,3.83.61,5.79,0,14.22.22,28.44-.29,42.63,0,1.37-4.31,3.4-6.77,3.66-3.26.35-5.58-1.89-5.05-5.57a15.31,15.31,0,0,1,1.91-5.28c3-5.26,3.14-5.88-.35-8.6-2.25-1.76-4.72-4.45-7.16-4.53-13.19-.45-26.39-.33-39.58,0-1.26,0-3.36,2.51-3.53,4-.65,5.94-.61,11.95-1,17.92a3,3,0,0,1-2.09,2c-.59.09-1.34-1.26-2.14-1.78-5.33-3.48-6.08-9.58-8.81-14.61-3.63-6.66-10.27-9.18-17.92-7.72-3.18.61-5.07,2.31-4.85,6.14.28,5-.67,9.83,4.36,13.53,4.75,3.5,7.45,8.26,9.11,14.48s9.24,11.15,9.72,17c.61,7.5,9.3,10.76,7.4,18.45,7.12,4.47,5.16,14.72,12.47,19.34,2.17,1.36,2.88,2.59,4.44.87,2-2.24,4.53-4.15,6.26-6.6.44-.61-1-3.14-2.08-4.12-4.72-4.05-2.31-9.37-2.6-14.12-.07-1.09,2.17-2.39,3.49-3.39.11-.08,2,1.39,2,2-.51,5.66,2.61,9.3,6.55,12.57-2.75,8.61,5.72,14.95,5.44,21.81-.37,8.82,8.18,13.37,6.94,21.89-1.15,7.82,9.77,12.68,6.25,21.93-.54,1.42,4.66,4.44,4.75,6.81.33,8,10.15,12.82,7,21.49-3.2,8.95,6.54,13.59,6.43,21.86-.16,12.22,7.25,24.62,14.46,33.6,5.35,6.66,15.34,4.83,19.32,12.68.43.86,1.4,1.45,2.11,2.17-1.24,1.17-2.35,3.1-3.76,3.35-3.88.7-8,.33-11.78,1.17-1.08.24-2.11,3.2-2.15,4.93s1,4.92,1.91,5c7.72.87,15.2,1.89,21.52,7.19,1.19,1,4-.24,5.95.21,5.47,1.31,10.81-11.3,16.26-.12,4.31-7.65,13.25-3.63,18.41-6.82,19.53-12.08,42.69-18.6,57.61-38.11,3.69-4.82,5.36-10.1,8.34-14.92s9.45-7,10.41-14c.61-4.43,5.72-8.65,5.41-12.7-.52-6.95,4.87-10.48,6.27-15.85.93-3.54.83-9-1.3-11.31-3.87-4.18-4.73-8.31-4.61-13.5.23-10.15-.11-20.31.13-30.45.15-6.21.26-12.13-5.92-15.85,3.94-9.81-6.59-15.7-6.54-24.78.06-12.69-14.17-20.77-12.16-34.56.21-1.45-1.42-4-2.86-4.73-8.75-4.56-8-15.67-15-21.29,3.15-8-9.77-10.54-6.45-18.65-5-5.87-10.73-10.49-13.6-18.77-2.38-6.9-10.79-11.72-16.54-17.47.82-9.81-7.92-13.2-13-18.94-5.38-6.07-10.94-12.14-17.28-17.13-6-4.7-13.78-6.44-19.09-12.91-6.14-7.47-12.55-15.43-23.11-17.39-4.49-8.63-15.78-8.09-21-15.19-5-6.8-14.47-6.09-19.17-12.79-10.89,1.88-13.06-10.64-22-13.13-9.77-2.71-15.64-15.15-28.19-12.69-5.62-3.58-11-9.62-16.91-10.12-6.81-.58-9.71-8.31-15.41-7-8.18,1.92-12.31-5.1-18.81-6.61-3.5-.81-6.28-5-9.75-5.62-5.85-1.1-13.72,1.65-17.6-1.32-5.41-4.15-10.62-6.42-16.3-4.78-8.32,2.4-11.49-7-18.88-6.54-6.88.44-13.87-.55-20.8-1.1-.77-.06-1.33-1.59-2.19-2a26.43,26.43,0,0,0-4.28-1.27c-.28,2.75-1.86,6.69-.62,8,3.85,4.16,6.77,10.36,14.55,8.91,2.51-.46,6.42.44,8,2.21,7.38,8.27,18,10.71,26.8,16.25,13.71,8.66,30.88,12.12,41,26.53,1.39,2,5,3.43,7.52,3.42,5.3,0,9.49.93,13.23,5.2,5.33,6.1,10.58,12.92,17.35,16.93,6.26,3.71,12.61,8.44,20.55,9.18,1.56.14,3,2.59,4.31,4.13,5.72,6.8,11.54,12.09,19,2,5.77-.51,11.28-2.22,16.6,2.85C883.88,264.26,884,267.78,867.24,285.1ZM626.79,269.9c9.11,0,18.42-1.17,27.28.32,9.75,1.64,15.07-7.9,24.91-6.89,13,1.35,13.4-1.1,7.49-12.7-4.27-8.36-7.83-17-12.77-25.11-1.85-3-.18-8.14-1.94-11.27-3.69-6.58-4.94-14.59-11.12-19.73-4.79-4-8.24-8.32-7.11-15.36.78-4.94.43-10.13,0-15.15-.13-1.41-2.65-3.86-3.76-3.71-7.44,1.06-13.38-1.64-18.76-6.3l-42.18.83L563,180.6c.33,8.1-6.43,11.63-10.64,16.88s-4.6,12.07-.16,16.05,1.93,9.87,6.15,12.83c5.13,3.61,2.29,9.4,4.14,13.49,2.33,5.16,8,8.76,10.56,13.89S574.8,266,583.69,264c3.69,6.12,9.53,6.2,15.77,6C608.56,269.69,617.68,269.9,626.79,269.9ZM315.17,318.75a13.47,13.47,0,0,0-2.11,2.09,4.28,4.28,0,0,0-.93,2.61c1.06,7.54,9.6,12.9,6.25,21.91-.34.94,2.59,2.8,3.43,4.51,9,18.57,17.75,37.29,27,55.77,3.37,6.77,10.81,12.92,11,19.5.22,7.91,10.47,10.53,7.2,18.62,7.42,4.31,5.81,14.33,12.2,19.29-4.11,11.59,15.73,4.58,12.2,15.72,4.65,5.18,9.27,10.37,14,15.49a2.26,2.26,0,0,0,2.08.43c.86-.44,2.17-1.46,2.08-2.06-.72-4.77,1.21-9.4-1.7-14.47-11.22-19.56-21.05-39.87-30.34-60.44-1.16-2.57-3.82-4.75-4.2-7.34-.71-4.81.2-9.36-4.09-13.72-3.81-3.86-3.07-11.15-8.82-14.49-4.68-2.72-4.89-7.95-6.76-12.38-1.46-3.47-5.92-5.54-8.2-8.81a47.85,47.85,0,0,1-6.45-12.5C334.76,335.46,323.73,328.13,315.17,318.75ZM919,1002.88c3.83-19.82,5.74-23,1.07-29.47-4.2-5.82-5.32-11.51-3.76-16.64,3.39-11.1-9.23-17.61-6.52-28.07,1.29-5-5.3-6-5.88-9.67-1.66-10.7-7.75-14.94-18.19-14.92-2.48,0-5.16-2.29-7.38-4a54,54,0,0,1-6.5-6.42c-1.55-1.67-2.42-.89-4.44,1-3,2.83-5.33,6.5-4.17,8.74,1.31,2.5,3.56,4.94,3.75,7.52a135.37,135.37,0,0,1,.07,21.31c-.84,9.87,10,11.82,12.28,19.34.56,1.82.12,4.32,1.22,5.55,6.49,7.26,8.87,17.18,16.95,23.65C905.3,987,911.6,995.13,919,1002.88Zm-78.12-672c7.06,0,14.35,1.09,21.07-.4,4.22-.94,9.42-5.13,10.79-9.05s2.79-9.8-1.6-14.06c-5.06-4.91-10-10-15-14.94-5.21-5.12-10.72-5.77-18.52-2.14-2.54,1.18-4.86,3.56-7.43,3.8-6,.57-12.08.12-18.13.21-4.74.06-6.34,2.31-5.91,7.94.38,5,8.63,21.68,11.85,25.36,4.9,5.59,11.18,2.46,16.83,3.23A45.05,45.05,0,0,0,840.9,330.91ZM460.35,288.2c1.78,0,2.8,0,3.81,0,4.56-.21,8.13-4.12,6.47-7.39-6.81-13.38-13.95-26.58-20.68-40-3.25-6.49-9.92-11.59-12.38-19.21-2.77-8.57-10.43-14.15-14.34-21.48-3.37-6.33-8.17-12.74-9.2-20.41-5.82-2.29-2.53-9.37-6.51-12.41a7.4,7.4,0,0,0-5.55-.94c-1.66.39-4.22,2-4.29,3.25a119.14,119.14,0,0,0,.21,18.12c.09,1.08,3,2.11,4.69,2.82s5.07.69,5.25,1.52c2.83,13,15.88,22,14.11,36.76a13.76,13.76,0,0,0,3,10.95c5.3,6.78,16.23,9.63,15.23,21,6.84,5.91,8.57,14.72,11.89,22.42C454.24,288.21,457.11,288.32,460.35,288.2ZM857.76,751.81a109.75,109.75,0,0,0,12-.18c1-.11,2.54-3.56,2.45-3.63-4.44-3.35-4.74-7.9-5.37-13-.66-5.36-2.7-11.27-6-15.41-5.43-6.73-5.65-17.84-14-21-7-2.66-15.57-1.35-23.46-1.58-4-.12-5.2,2.85-5.1,8.83a14.82,14.82,0,0,0,4,10.54c3.64,4.17,2.62,11.46,8.66,14.41s4.57,10.38,8.49,14.57c3.34,3.56,6.28,7.91,12.38,6.57C853.66,751.46,855.75,751.81,857.76,751.81Zm-40.09-264c-2.27,2.92-4.77,4.75-5.18,7a31.23,31.23,0,0,0-.06,12.07c1.56,7.35,9.27,13,6,21.78,5.21,4,6.9,9.2,6.19,15.7-.66,6.11,8.4,8.64,6.28,15.57,6.89,5.9,8.38,14.74,11.77,22.44,3.19,7.24,12.66,3.88,15.73,10.52.91-1.64,2.26-3.19,2.65-5,1.08-4.85-5.61-7-5.34-9.66,1-10.34-4.3-16.68-10.93-23.11-1.71-1.64-1.26-5.43-2-8.19a49.25,49.25,0,0,0-2.51-8.06c-3.08-6.82-8.66-13.38-9.11-20.32-.59-9-10.35-15-7-24.86C824.5,492.8,820.59,490.41,817.67,487.84Zm-72.49-1.38c0-2,.67-4.37-.14-6-1.69-3.34-4.89-5.3-6.38-9.48-2.52-7.12-5.53-13.67-6.74-21.52C730.86,442.6,723.26,437,721.1,430c-3.6-11.63-14.36-20.56-12.71-34.16.17-1.34-2.07-3.19-3.51-4.46-2-1.72-4-3.65-6.41-4.48-2.7-.95-2.89,4.79,0,10.18,1.33,2.48,4.07,5.14,3.76,7.38-1.59,11.42,4.61,20.15,8.8,29.74,5.21,11.95,14.13,22.16,16,35.73,1.26,9.34,9.06,13.86,16.11,18.59C743.27,488.6,744.47,487.17,745.18,486.46Zm-4.41,253.15c2,0,4.13.38,6-.08,3.12-.75,4.75-2.71,4.57-6.35s-2-6-5.19-5.62c-7.84,1-12.62-3-18.23-7.7s-5.75-12.21-10.47-17.05c-4.93-5.07-10.27-9.78-14.83-15.15-1.65-1.94-.75-6.33-2.51-7.79-1.59-1.32-6.16-1.21-7.72.18s-2.71,6.9-1.72,7.67c11.07,8.72,13.57,24.1,25.39,32.19a12.66,12.66,0,0,1,4.54,7.09C723.23,738.09,731,740.35,740.77,739.61ZM287.67,436.2c-.33-1.88,0-4.85-1.09-5.45-5.88-3.35-3.9-10.7-8.26-14.93-3.4-3.28-9.07-5.49-8.83-11.3.26-6.32-9-8.53-6.22-15.6-6.31-4.66-9.55-12.83-17.77-15.37-2.23-.69-6.8,1.93-6.61,4.29.16,1.91-.2,4.76.89,5.57,10.48,7.83,12.68,22.1,23.34,29.69,1.67,13.37,14.41,18.13,21.31,27.42a12.17,12.17,0,0,0,2.1-1.79A12.35,12.35,0,0,0,287.67,436.2Zm512.41-189c-.3-1.88,0-4.17-1-5.57-9.28-13.2-25.34-16.51-37.65-25.36-.57-.41-2.84,1.06-3.95,2.06-.5.46-.16,1.92-.08,2.92.58,6.87,7.68,8.7,10.6,13.68,1.86,3.17,2,8.32,4.53,9.86,3,1.78,7.32,1,10.14,4.54,3.81,4.75,9.35,1.58,14.07,2.08C797.69,251.48,799,248.65,800.08,247.17ZM299.47,269.93c6.52,1.35,8.12-10,15.65-6.13.6-1.43,2.13-3.64,1.67-4.17-6.86-8.09-8.68-18.91-14.94-27.22a16.87,16.87,0,0,0-7-5c-1.43-.59-4.09.14-5.33,1.25s-2.23,3.74-1.73,5.13c1.57,4.38,4.92,8.31,5.68,12.75,1,5.89.23,12.09.28,18.16,0,.93.07,2.29.64,2.7A34.36,34.36,0,0,0,299.47,269.93ZM778.73,300.4c-1,0-2,0-3,0-4.27,0-7.81,4.47-6.07,7.77,3.07,5.82,5.54,12.35,10,17s10.88,7.49,16.64,10.77c.62.36,3.26-1.29,3.75-2.49,3.49-8.65-3.23-14.74-6.21-21.6-1.87-4.3-5.65-7.91-9.11-11.28C783.61,299.55,780.75,300.4,778.73,300.4ZM596.3,673.08c-1.2,1.07-3.44,2.12-3.47,3.22-.24,12.94-.45,25.91,0,38.85.22,6.58,5.59,10,11,12,1.75.65,6.82-2.1,6.79-3.19-.12-4.66,2.41-9.76-1.79-14.12a13.92,13.92,0,0,1-3.77-7.3c-.63-4.89,1.24-10.63-.71-14.68s-6.56-7-5.94-12.56C598.47,674.66,597.09,673.88,596.3,673.08ZM851.57,459.37c-.71.71-2.05,1.44-2,2.13.11,4.74-1.14,10.59,1.15,14,4.29,6.32,6.36,13.54,10.23,20s8.56,12.84,6.61,21.52c-.35,1.59,3.74,4.36,6,6.26,1.07.89,2.77,1,4.19,1.47.54-1.78,2-3.85,1.47-5.3-2-6.17-6.48-11-6.52-18.58,0-5.91-4.72-11.69-6.3-18.35-1.79-7.56-5.25-16.38-12.72-21.68C853,460.28,852.28,459.84,851.57,459.37ZM391.84,244.14c-.68-2.62-.81-6.8-2.76-9.79-3.59-5.5-9.67-8.61-11-16.63-.78-4.8-8.08-8.38-12-12.91-2-2.29-3.11-2.75-4.27.16-.68,1.72-1.62,4.67-.83,5.45,10.26,10.22,15.21,23.63,22.06,35.89a6.15,6.15,0,0,0,2.11,2.1,45.94,45.94,0,0,0,4.21,2.11ZM629.65,867.61c-.45-4.57-.18-10.75-1.95-16.28-1-3-5.12-5.72-8.43-6.89-1.24-.43-4,4.13-6.37,6s-1,2.24.18,4.5c4.83,9.14,11.82,17.6,11.09,29,0,.67,1.34,1.43,2.06,2.15.72-.72,2-1.38,2.06-2.17C628.85,878.92,629.15,874,629.65,867.61Zm72.47-138.48c1.41-8.35-.57-13.58-6-17.06-3.63-2.35-5.6-10.1-10.11-7.16-5.1,3.32-.53,7.88,2.38,12,1.94,2.71,1.35,7.24,1.83,11,.53,4.1,4.53,7.2,7.88,5.5C700.25,732.29,701.59,729.72,702.12,729.13ZM873,788.41c-1.67.73-4.53,1.18-4.79,2.25-1.33,5.48-3,11.24,2,16.06,3.52,3.44,7.09,6.84,10.39,10.48,1.69,1.86,2.89,1.89,4.2-.72.4-.8.9-2,.6-2.64-3.47-7.55-6.95-15-7.47-23.57C877.91,789.55,874.75,789,873,788.41ZM643.19,355.31a29.41,29.41,0,0,0-3,0c-3.38.34-6.9,6.49-4.76,8.76,3.27,3.45,6.79,6.94,10.87,9.23,1.45.81,6.51-1.29,7.07-3C656.66,360.43,652.69,355,643.19,355.31Zm191,322.5c-1.39.49-.42.32.33-.17a14,14,0,0,0,2.14-2.08c-.7-.7-1.36-1.95-2.12-2-4.85-.48-9.82-1.45-14.57-.83-6,.79-7.72-5.62-12.48-6.19a7.78,7.78,0,0,0-5.39,1.19,7,7,0,0,0-1.89,5c.06,1.71,1.3,4.82,2.11,4.85C812.2,677.93,822.08,677.81,834.21,677.81ZM676.39,642c-1.47,1.08-3.8,1.89-4.26,3.31-1.9,5.79,2.79,8.62,6.06,12.13,3,3.27,6.49,4,10.06,1.61a5.84,5.84,0,0,0,1.89-4.92C688.74,647.43,682.2,641.93,676.39,642Zm62.7,164.59c-.7-1.67-1-4.17-2.18-4.83-2.34-1.26-5.9-.68-7.78-2.26-3.74-3.12-6.7-6.76-12.34-4.15-3.34,1.55,1,8.39,8.81,11a28,28,0,0,1,9.62,5.38c.4.33,2.72-1.22,3.78-2.27C739.49,809,739.08,807.58,739.09,806.6ZM608.32,776.39c2.91-.49,5.8-.18,6.43-1.24,1.39-2.29,3-6.06,2.06-7.82-2.88-5.16-14.71-5.24-17.77-.11-1,1.71.27,6.21,2,7.72S606.48,776.1,608.32,776.39Zm-27.84-58.13c0-4,.75-8.16-.34-11.8-.5-1.7-4.54-3.14-7-3.24-3.07-.13-5.59,2-4.78,5.66,1.44,6.36,6.64,11.06,8.13,17.46a2.78,2.78,0,0,0,2,0c.8-.49,1.83-1.3,1.95-2.1A42,42,0,0,0,580.48,718.26Zm130-178.8c-.63.71-1.89,1.53-1.79,2.12.44,2.69.48,6.26,2.19,7.67s5.12.47,7.76.24c.75-.06,2-1.33,2-2C720.46,545.75,711.91,539.21,710.48,539.46ZM495.49,710c-1.1-2.65-1.72-4.37-2.58-6-.13-.25-1.5-.2-2,.15-3.06,2.27-3.09,8.75.21,9.79C492.14,714.28,494.19,711.23,495.49,710Zm20.94-503.79c-1.51,5.09-2.79,7.67-2.86,10.29-.05,1.51,1.84,3.08,2.86,4.62,1-1.54,2.9-3.11,2.85-4.62C519.21,213.87,517.94,211.28,516.43,206.19Zm-27,461.09c-1.1-2.65-1.72-4.37-2.58-6-.13-.25-1.5-.2-2,.15-3.06,2.27-3.09,8.75.21,9.79C486,671.58,488.09,668.53,489.39,667.28ZM683.3,731.34l-2.17-3.93c-.68.68-2,1.51-1.91,2a18.93,18.93,0,0,0,1.91,4.09Z"/><path d="M438.1,715.21c5.5-.06,12.7-1.4,17.1,5.9.83,1.37,1.56,2.8,2.33,4.2-1.69.7-3.36,1.91-5.09,2-4.94.27-10.27,1.22-14.76-.23-4.19-1.36-6.51-7.3-12.5-6-.48.11-1.77-2.4-2.23-3.84-.14-.44,1.24-1.94,2-2C428.89,715.11,432.86,715.21,438.1,715.21Z"/><path d="M1117.8,904.32c-2.92,0-5.91.36-8.73-.16-1.34-.25-2.37-2.17-3.54-3.34.69-.69,1.27-1.78,2.08-2,6.11-1.67,13.86,1.77,18-5.9,1.29.88,3.1,1.47,3.75,2.69,1.44,2.7-.75,8.69-2.81,8.7C1123.65,904.33,1120.72,904.32,1117.8,904.32Z"/><path d="M1135.59,911.37c-.84,1.54-1.69,3.08-2.53,4.63-1.19-2-3.24-4-3.31-6,0-1.71-3.09-6.39,2.55-5.5,1.28.21,2.36,2.54,3.22,4.07C1135.92,909.28,1135.59,910.42,1135.59,911.37Z"/><path d="M894.86,392.13a10.87,10.87,0,0,1,2,2.09c1.92,3.5.77,8.52-2.55,9.77a7.92,7.92,0,0,1-5.75,0c-3.29-1.68-2.54-4,0-6.1,1.49-1.24,2.76-2.76,4.17-4.11C893.43,393.16,894.17,392.67,894.86,392.13Z"/><path d="M840.7,392.87c3.06,1.79,3.17,7.81.12,10.08a2.3,2.3,0,0,1-2,.14c-3.11-1.69-3.2-7.76-.14-10C839.12,392.71,840,392.92,840.7,392.87Z"/></svg>