<svg id="Layer_1" data-name="Layer 1" xmlns="http://www.w3.org/2000/svg" viewBox="0 0 1200 1200"><title>BB_Artboard 41</title><path d="M757.46,915.21c-7.3,0-12.74-.09-18.17,0-5.19.11-10.95-1.65-14.6,4.07l-16.27.07c-5.77,7.24-13.94,4.37-20.7,3.65-7.85-.85-12.84,6.42-20.81,4.75-6.51-1.36-13.53-.28-20.32-.27-2,0-4-.24-5.42,1.73-1.17,1.59-2.14,1.43-4.38.64-7.42-2.62-11.68-10.2-19.56-11.9-.53-.11-1.25-2.68-.8-3.52,8.15-15.2,12.76-23.51,32.15-27.68,4-.86,5.72-5.1,10.51-4.72,2.31.19,4.43-4.82,8.45-3.71,3.66-6.9,13.28-1.4,17-8.18,5.63-1,10.19-5.61,16.4-4.87.34,0,.94-2.17,3.29-3.33,4,0,5.95.25,7.83-.1.86-.16,1.55-1.45,2.18-2.33.06-.08-.82-1.22-1.31-1.27a43.37,43.37,0,0,0-7.63-.29c-1,.09-2.68,1.22-2.82,2.07-.64,3.91,2.63,1,1.75,1.92-5.29,0-8.84.63-12.08-.13-5.9-1.38-10.22,1.82-14.66,4.33-4.6,2.61-9.1,4.88-14.54,4.49-3.86,5.76-9.79,2.91-14.88,3.62-7.8,1.09-7.8,1.15-10.43-1.26-4.21-3.83-5.94-3.84-9.88.08q-11.62,11.56-23.17,23.17c-2.3,2.32-5.13,4.16-4.85,8.33.09,1.39-2.21,3.72-3.89,4.32-10,3.58-15,13.15-23.06,18.67-5.34,3.64-3.95,12.72-12.57,13.41-2.18.18-1,6-4.3,8.19-4.85,3.19-10.45,5.1-14.45,9.91-3.69,4.45-7.28,9.77-14.08,10.26-4,6-12.43,8.46-13.54,16.94-.27,2.07-2.89,2-4.52,2.82-6.27,3.28-13.07,5.9-17.69,11.81a11.59,11.59,0,0,1-8.33,4.79c-2.67.33-4.52,5.77-7.37,6.54-5.6,1.52-9.32,5-12.59,9.07-2.75,3.37-6.69,3.81-10,5.77-5,3-10.75,4.92-14.32,10-1.16,1.65-2.86,4.17-4.3,4.16-7,0-9.16,7-14.67,9.29-7.49,3.11-7.25,4.07-16.81,3.73a12.11,12.11,0,0,0-10.52,4.52c-3.15,3.58-6.65,6.86-10.1,10.17-2.81,2.7-7.88,1.65-9.87,5.8-2.28,4.77-8.33,3.45-11.4,7.19-2.58,3.15-5.31,7.48-8.72,8.35-5.07,1.3-7.43,5.44-11.35,7.41-4.77,2.39-8.5,6.21-12.88,8.51-4.78,2.51-8.27,7.09-12.72,8.64-5.53,1.93-8.28,7.55-12.76,8.62s-6.82,3.81-9.75,6.32c-4,3.48-7.46,8.62-12.12,10.23-5.09,1.76-6.86,7.81-10.85,8.19-7.46.71-9.35,7.27-14.16,10.56-2.71,1.85-5.12,4.14-7.67,6.24-6.53-2.54-10.18,5.59-16.77,4.32-4-.77-7.72-.53-10.64-4.26A60.88,60.88,0,0,0,210.88,1155c-3.68-2.91-4-6.41-4.29-10.64a11.14,11.14,0,0,1,4.67-10.44c3-2.37,4.75-7,9.89-5.78,5.89-4,11.62-8.4,17.66-11.89,5.85-3.38,11.93-7,18.87-8.77,4.28-1.08,5.44-7.65,11-8,5.72-.36,6.32-9.13,13-8.15,3.47-3.17,7.43-6,10.25-9.62s7.68-1.73,10.17-5.59c1.52-2.35,1.95-2.61.38-5.92-1.86-3.91-2.8-8.41-8.5-8.56-.42,0-1.5-2.72-1.07-3.38a27.74,27.74,0,0,0,4.71-14.53c.06-1.51,2.47-3.78,4.17-4.21,7.83-2,12.79-8.39,19.52-12.12,6.31-3.49,10-11.62,16.34-15.19,8.34-4.74,14.61-11.31,21.27-17.72.49-.47,1-1.43,1.44-1.38,6.68.88,8.08-7.3,13-8s6.51-4.34,9.65-6.58c2.66-1.9,3.82-5.82,7.74-6,4.8-.2,6.18-4.8,9.37-7.06,2.61-1.86,6.32-1,8.59-4.23,1.77-2.54,3.91-5.11,8-5.39,2.13-.15,4.15-3,6.06-4.87s1.31-5.62-.82-7c-14-8.86-13.27-9.39-20.36-19.79-3.48-5.1.21-12.19-6-15.66a9.85,9.85,0,0,0,1.43-1.46c.58-.91,1.67-2.26,1.38-2.82a3.71,3.71,0,0,0-5.28-1.14c-4.31,4.31-10.11,5.47-15.29,7.8-2.9,1.31-4.8,6-8.38,4-3.35-1.84-7.11-3.09-10.1-5.2-4.39-3.11-7.73-7.67-11.76-11.34-2.52-2.29-1.28-5-1.59-7.56-.53-4.24,5.84-5.81,4.35-10.64a16.16,16.16,0,0,1,5.09-1.84c2.67-.24,5.74.38,7.15-2.47,2.69-5.43,9.12-5,12.84-8.66,3.89-3.83,7.73-7.71,11.59-11.57,3.38-3.38,6.85-6.67,10.1-10.17,2.23-2.4,6.13-5.36,5.83-7.6-.9-6.53,5.72-10.29,4.71-16.82-.66-4.26-1.95-9.34,2.47-13.21,3.65-3.2-.86-9.18,4.18-12.78,1.84-1.32.27-6.73,1.9-9.18a20.25,20.25,0,0,0,3.72-8.81c.86-5.57,4.88-10.41,4.73-16.41,6.43-2.8.34-10.72,5.74-14.07.89-.55,1.34-2.18,1.54-3.38.75-4.44-1.49-9.23,2.75-13.27,3.27-3.12,1-7.73,1.32-11.65a91.28,91.28,0,0,0,0-14.32c-.61-7,2.66-12.64,6.19-17.91,2.51-3.74,5.15-7.32,7.53-11.16s1.09-8.41,3.06-11c3.13-4.15,4.31-8,3.78-12.87,5-3,4.08-8,4.28-12.56,5.24-2.87,3.25-8.23,4.44-12.51.32-1.14,2.15-1.82,2.67-3,.27-.61-.9-2.67-1.26-2.63-9.83,1.1-16.67-6.11-25-9.13-6.14-2.24-7.44-8.42-3.77-15.08,1.36-2.48,2.38-4.57,2.22-7.3a6.82,6.82,0,0,1,1.84-5.42c2.56-2.85,7.09-4.55,6.34-9.62,4-2.81,3.43-8.19,6.64-11.65,2.52-2.72,2.05-7.52,5.65-9.88-1.12-5.12,5.82-7.26,4.61-12.42,4.32-2.57,2.77-7,3.81-10.74a30,30,0,0,1,6.48-11.54c3.21-3.55-.55-8.09,2.72-11.25,2.42-2.34,5.67-4.54,6.65-7.45.87-2.57,3.2-5,3.19-6.76,0-10.82,10.5-18,9.4-29,6.6-3.31,1.4-11.81,6.86-15.57,1.63-1.12,1.57-1.82-.19-2.95-4.35-2.76-6.08-9.37-12.8-8.67-2.31-3.08-7-4.62-6.17-9.73,1.1-7-3.12-15,4-20.87,0-7.49-.07-15,.2-22.47.1-2.54-1.41-3.75-2.9-4.95-3.07-2.47-4.67-7.13-9.16-7.39-4.12-.25-5.34-3.76-7.9-5.72a11.27,11.27,0,0,1-4.85-10.33c.48-11.58.49-23.21,0-34.79-.21-5.1,2.24-10.62-2.31-15.42-3.64-3.82-.91-9.06-1.63-13.61-6.36-4.35-3.7-10.94-4.05-16.73s.57-11.56-3.82-17c-2-2.51,1-9.07-1.07-11.58-3.72-4.61-10.14-1.28-15.37-1.81-4.73-.48-9.55,0-14.32-.16-1.89-.07-4.74-.16-5.47-1.3-3.81-6-11.86-6-15.82-11.49-4.24-5.9-12.24-8.68-13.87-16.79a7.19,7.19,0,0,0-2.1-3.2c-4.29-4.4-10.09-8-12.62-13.24-2.71-5.61-6.41-9.83-10.53-14-3.82-3.9-7.2-8.54-11.72-11.36s-9.26-4.67-12.7-8.86c-.71-.87-2.48-1.77-3.36-1.46-5.41,1.85-8.15-4.05-12.68-4.16-8.18-.19-16.38-.22-24.56.09-1.66.06-3.17,2.09-4.9,2.88-4,1.83-8.37,5.27-12.13,4.74-5.66-.78-7.65,5.07-12.71,4.66-6.78-.55-13.68.27-20.44-.37-2.19-.21-4.11-3.18-6.24-4.95,1-4.18,4.72-6,7.16-8.72,2.7-3.07,5.74-5.83,8.64-8.73s5.56-6.08,8.75-8.6c3-2.34,7.6-2,9.93-5.63,7.71,2.56,12.87-5.87,20.89-4.47,5.3.92,10.17-5.18,16.7-3.89,4.6.9,9.93-1,14.19.5s7.76,4.8,12.75,3.77c3.11,6.06,10.29,2.11,14,5.49,3.52,3.2,9,2.41,11.73,6.71.43.67,2.95-.24,3.78.45,4.63,3.83,8.45,9.28,13.69,11.54,5.42,2.35,7.78,7.25,12.21,10.07,5.32,3.41,4.94,10.56,10,14.4,4.85,3.67,8.8,8.54,13.14,12.88,2.79,2.8,1.79,7.73,5.77,9.93,2.65,1.47,3.59,5.29,7.23,5.68,2.38-4.64,1.58-9.53,1-14-.67-5.28,6-7,4.54-12.72-1.15-4.48-.23-9.5-.23-14.27,7.23-9.58,2.9-20.69,4.1-31.07.59-5.11-2.16-11,3.64-14.87.15-6.08.4-12.16.41-18.24,0-3.31,2.35-3.49,4.49-5,6.67-4.76,14.23-5.09,20.9-3.34,5.1,1.33,10.87,4,14.77,8.79,3,3.69,6.77,6.74,10,10.24a12.24,12.24,0,0,1,3,4.86c1,3.81-1.87,8.65,1.5,11.57,4,3.45,2.54,7.46,2.57,11.28a8.65,8.65,0,0,0,3,7c2.24,2.06,2.56,2.38,5.83.48s7.7-1.85,10-5.56c6.8.08,13.6,0,20.38.35,1,.05,2,1.74,2.89,2.78,3.73,4.49,4.74,10.91,10.13,14.25.5.31,1.13,1.11,1,1.56-1.17,6.36,3.3,13.66-3.11,19.23-.25.21.51,2.41,1.19,2.66,1.19.45,3.78.43,3.88.07,2.11-7.51,8.2-11.87,13.23-17,1.33-1.36,3.09-3.15,4.73-3.23,7.49-.34,15-.15,22.51-.15,3.3,4.36,10.17,3.17,12.93,8.26.9,1.65,1.92,3.51,1.95,5.3.19,9.55-.25,19.12.21,28.66.31,6.17-6.45,9.84-4.49,16.81,1.42,5.06.28,10.84.28,16.3-6.86,5.87-4.45,13.93-3.72,20.79.61,5.66-6.44,7-4.7,12.75,1.13,3.71.29,8.09-.09,12.13-.1,1-1.85,1.89-2.76,2.91-2.82,3.2,1,8.09-2.88,11.11s-2.9,7.88-2,11.26c1.74,6.3-4.3,9.48-4.4,14.76-.09,4.57,1.39,9.68-3.79,12.75,2.45,7.14-5.68,11.6-4.65,18.71.37,2.6-2.73,5.56-3.73,8.53-.82,2.39,1,5.4-1.74,7.5-1.6,1.25-3,2.83-2.42,5.1,1.66,6.35-7,10.16-4.11,16.73,2.38,5.48-4.92,7.57-4.22,12.66.55,4,.11,8.18.11,12.27-6.82,6.65-3.48,15.16-4,22.89a19.41,19.41,0,0,1-3.85,10.84c-1.92,2.75-.42,7.93-.31,12,0,.49,1.1,1.46,1.35,1.36,1-.39,2.62-1.26,2.55-1.7-.71-4.17,2.53-5.93,4.7-8.37,1.31-1.46,3.27-3,3.45-4.66.42-4-.48-8.2,3.81-10.76-1.15-4.63,4.49-6.46,4.45-10.4,0-4.25,6-5.82,4.24-10.57,4.1-2.48,4.41-6.38,4.08-10.61-.28-3.57,5.07-4.49,4.09-8.54-1.66-6.84,5.1-8.82,7.61-13.24s-1.17-10.2,2.81-15.28c3.82-4.87,6.27-11.05,8.63-16.81s7.64-11,5.57-18.23c-.32-1.13-.09-3.38.57-3.7,6.22-3.06,1.11-10.41,5.67-14.19,4.21-3.49-.66-11.08,5.78-14.05.55-.25.54-2.68.14-3.88-2.66-7.81,6.85-13.06,4.27-20.8,4.14-2.49,5-6.63,3.83-10.59-1.57-5.52,4.39-7.91,4.31-12.68s.34-9.39.54-14.08c7.7-4.55-.73-15.07,7.21-19.58.36-.21.36-1.22.36-1.85,0-6.15,0-12.29,0-18.43,5.63-4.53,4.89-11.12,3.78-16.67-1.14-5.75,6.36-7,4.63-12.77-1.13-3.72-.12-8.08-.07-12.15,6.74-5.15,3-12.49,3.93-18.85.68-4.43-2-9.7,3.3-13q.74-6.86,1.45-13.73c4.8-2.25,2.23-9.22,7.24-11.33-.5-6.58,5.44-8.78,8.74-12.74A5.25,5.25,0,0,1,681.29,88c3.39-.24,6.92.42,10.19-.26,2.35-.49,4.22-3.27,6.57-3.75,3.15-.65,6.05.16,9.26,2.26,4.64,3,10.22,4.86,15.24,7.53.09,5.42-.15,10.88.36,16.26.59,6.18-6.41,9.85-4.46,16.82,1.42,5.06.28,10.84.28,16.3-6.41,4.34-4.63,11.14-3.79,16.69.92,6.1-2.7,10-4.51,14.68-1.61,4.17-5.68,7.73-3.89,12.65,2,5.59-4.81,7.59-4.37,12.69.32,3.73,1.81,8.14-2.22,11.29s.94,9.66-4.34,12.54c-.57.31-1.31.88-1.4,1.43-.76,4.55,2,10-1.66,13.57s-2,7.53-2.46,11.35c-.23,1.95.33,4-1.72,5.45-5.5,3.84-6.38,9.24-6.86,15.7-.41,5.42-3.84,10.59-5,16.28-.45,2.12-3.59,4-2.76,7,1.62,5.81-2.33,9.9-4,14.74-1.46,4.17-5.4,7.21-4.46,12.63.62,3.58-5.32,5.85-3.93,10.57.34,1.14.15,3.36-.52,3.73-5.49,3-1.54,9.33-4.49,12.46-2.52,2.69-2.2,6.2-4.24,8.55-1.85,2.14-3.27,4-3.06,7,.13,1.83-.11,4.55-1.28,5.46-6,4.65-8.09,10.47-6.84,17.76.11.6,0,1.7-.32,1.84-5,2.22-2.4,9.16-7.21,11.4,1.19,5.18-6,7.33-4.65,12.36,1.35,4.82-3.32,6.8-4.34,10.56-1.14,4.2-3.68,8-5.47,12.05-2.84,6.37-8.44,11.83-6.67,19.77a2.93,2.93,0,0,1,0,2c-2.66,3.71-6.47,7-7.87,11.07-1.63,4.74,1.56,10.95-4.28,14.63,2.22,5.45-6.52,7.1-4.34,12.53-3.17,4.05-9.3,6.24-8.06,13.06.89,4.89-6.1,7.16-4.26,12.69.44,1.32-1.15,3.55-2.21,5.08-2.17,3.17-7.06,4.71-5.8,9.9-4,2.53-3.14,6.87-4.47,10.45-1.69,4.58-3,9.9-7,13.45-3.12,2.69-6,5.5-4.88,10.27a4.62,4.62,0,0,1-2.39,5.1c-6.35,3.85-6,10-5.78,17v-.91c-.61,0-1.39-.24-1.8,0-1.35.95-3,2.12-.56,3.56.32.2,1.55-1.14,2.36-2.69,4.06-.59,3.11-3.94,4.3-6.09,1.91-3.42,5.11-6.14,7.9-9,3.79-3.93,9.33-7.1,11.13-11.76,2.08-5.36,6.47-8.33,8.8-12.79,1.46-2.79,2.09-6,4.63-8.31,4-3.71,8.31-7.29,11.44-11.67,2.49-3.48,3.41-8.09,5-12.19,1.93-4.84,9.23-6.29,8.19-13,5.14-2.74,4.11-9.33,8.49-13s10.74-18.43,11.79-25.64c.59-4.1,6.13-5.79,4.32-10.55,4.91-2.95,5.57-8.81,7.71-13.22s7.26-8.43,4.55-14.46c2.67-4.36,6.19-8.43,7.75-13.15,1.4-4.21-.44-9.5,4.54-12.48-1-5.56,6.57-8.72,4.1-14.69,2-3.93,3.5-8.33,6.24-11.68,3.1-3.78,1.64-7.71,1.86-11.55.24-4,.36-7.48,3.46-11,1.76-2,2.86-5.51,4.38-8.32,1.42-2.65.24-6.63.47-10,.32-4.52,5.84-7.23,4.16-12.67-1.32-4.25.8-7.74,4-10.56-2.87-9,5.52-16.18,4.07-24.92-.82-5,5.94-7.09,4.3-12.7-1.11-3.8-.69-8.15,3.56-10.68l-3.63-4.35c8.3-4.36-.1-14.72,7-19.55a2.43,2.43,0,0,0,1-1.58c.2-5.41.3-10.82.43-16.22,5.87-3.79,3.82-9.79,3.53-14.84-.36-6.23,6.14-10,4.52-16.8-1.24-5.17-.25-10.87-.25-16.33,6.65-6.68,3.45-15.13,4.06-22.88.37-4.58,5.73-7.14,4.32-12.68-1-3.85,0-8.16-.27-12.23-.19-2.59,1.74-3.44,2.9-5,1.93-2.57,4.71-4.11,5.64-7.94,1.37-5.64,5.85-8.38,12.14-7.73,4.05.42,8.18,0,12.28.1,5.23.13,10.48-1.18,14.71,4.27,4.61,5.92,9.73,14.81,9.75,20.59,0,10.92-.45,21.87.17,32.76.4,6.89-6.16,11.45-4.52,18.85,1.3,5.85.26,12.23.26,18.37-5.94,6.8-4.16,15.09-3.92,22.87.14,4.52-5.19,5.93-4.43,10.62a17.26,17.26,0,0,1-1.05,9.7c-1.09,2.3-2.65,4.08-3,7-1.14,8.33,4.19,17.73-3.76,25.11,0,0,2.39,2.72,3.66,4.17-6,3.72-1.95,10.37-4.18,14.61a40.51,40.51,0,0,0-4.5,14.56c-6.47,2.78-.52,10.71-5.8,14-2.15,1.34-1.66,3.51-1.62,5.46.12,4.72,0,8.86-3.82,12.93-2.13,2.24,1.1,7.71-3.16,10.88-3.5,2.61,1,8.12-3,11-5.49,3.93-8.17,9.46-6.23,15.71s-3,10-4.76,14.58a100.8,100.8,0,0,1-7.73,15.21c1.93,6.38-6,10.35-4.1,16.73-5,6-2.61,15.71-10.43,20.31a4.36,4.36,0,0,0-1.76,3.27c.14,4.19.07,8.14-4.07,10.64.81,3.93-1.91,6.11-4.22,8.49,2,5.3-6.38,7.1-4.15,12.67,1.79,4.5-3.62,6.4-4.43,10.48s-4.86,7.69-3.7,12.72c-4,3.51-3.37,10-8.12,13,2.23,5.45-6.49,7.11-4.34,12.53-4.17,2.51-4.11,6.5-4,10.67a3.11,3.11,0,0,1-3.78,3.46c-2.45-.28-4.62,1.21-4.18,3,1.68,6.71-4.83,10.54-5.19,16.39-6.43,8.78-8.86,19.73-15.46,28.41.79,4.15-2.57,5.91-4.84,8.22-1.91,1.94-4.08,3.72-3.33,6.81,1.21,5-2.24,9.09-5.4,9.72-7.44,1.5-7.34,6-7,11.47.12,1.88,1,4.25-1.41,5.52-6.35,3.41-6.21,11.39-11.44,15.85-4.4,3.75-5.56,9.81-7.82,15.09-1.5,3.49-5.44,5.92-8.23,8.88-4,4.3-10,7.62-7.9,15.15-5.48,4.84-8,11.83-12.41,17.38-2.52,3.12-7,5.65-7.68,9-.95,4.71-4.47,6.47-6.78,9.56s-7.05,4.67-6,9.86c.08.39-.84,1.44-1.25,1.42-8.18-.52-6.52,8.44-11.21,11.6-4.21,2.84-8.48,6.57-8.88,12.58,0,.51-1,.92-1.38,1.46-4.75,6.25-13.24,9.59-14.49,18.57-5.79,5.79-11.42,11.76-17.43,17.31a36.61,36.61,0,0,0-8.73,12.8c-3.39,7.82-7.5,15.11-17,17.3-3.31.76.59,7.53-4.72,7.37-4.18-.12-5.66,3.2-8.06,5.32a100.92,100.92,0,0,0-7.24,7.24,6.22,6.22,0,0,0-1.84,3.28c-.25,3.4.42,6.93-.26,10.2-.49,2.35-3.65,4.32-3.74,6.54-.42,10.22-.23,20.47-.07,30.7,0,.58,1.68,1.13,2.58,1.7,2.25-4.8,8.24-3,11.54-7.07,6-7.37,13.29-13.71,20.07-20.44,2.33-2.3,4.16-5.12,8.34-4.84,1.38.09,3.62-2.21,4.33-3.9,4.87-11.59,15.46-18.21,23.22-27.26,2.91-3.41,7-5.48,8.1-11.06.79-3.92,6.09-6.91,9.32-10.38s7.28-5.89,7.38-11.32c0-1,1.8-1.93,2.76-2.9,3.38-3.38,6.46-7.16,10.23-10,3.52-2.67,2.28-7.2,5.51-10.21,4.17-3.89,6.56-9.64,10.44-13.92,3.57-3.93,6.05-8.35,8.9-12.68s6.56-7.94,8.43-13a52.08,52.08,0,0,1,4.32-8.44c1.67-2.8,5.67-3.85,6-7.78.39-5.38,7.43-6.71,7.83-11,.46-5,6.18-7.22,5-12.38,3.38-3.38,6.92-6.61,10.09-10.18,2.53-2.87,1.72-7.84,5.84-9.84s3.81-6.64,5.66-10c2.75-4.94,4.82-10.42,7.67-15.18,2.6-4.35,6.38-7.93,8.58-12.88,2.56-5.74,4.92-11.76,8.61-16.88,2.65-3.68,2.48-9.11,7.13-11.41,4.15-2,2.09-7.57,5.73-10,.89-.59,1-2.28,1.6-3.37,4-7.2,6.28-15.3,11.49-21.87,0-8.8,5.43-15.48,9-22.9,3.26-6.84,5.55-14.46,10.16-20.24,3.64-4.56-1-11.45,5.47-14.24-.78-5.6,5.35-8.31,5.27-14.38-.1-6.77,7.2-11.82,7.77-19.13,6.9-3.69,1.48-13.29,8.18-17.08,1.71-6.19,5.57-11.72,4.33-18.82-.49-2.82,5.3-4.59,3.79-8.48-2.15-5.56,6-7.47,4.15-12.66-1.72-4.8,3.38-6.69,4.36-10.53,1.26-4.9,5.53-9,3.86-14.75-1.17-4,4-5.71,3.83-8.53-.21-5.06,2.41-8.56,4.11-12.75,1.44-3.51.77-7.87,1-11.86,5.29-3.25,1.84-8.88,3.51-12.88,2.57-6.15,5.12-12,3.9-18.87,7-2.64,1.92-10.1,5.63-14A8.47,8.47,0,0,0,768,325c.68-5.21-2.58-11.13,1.74-15.58,4.09-4.21,1.06-9.1,2.32-13.43,1-3.6,5-5.94,4.12-10.64-.75-4,.42-7.35,3.24-11,2-2.6-1-9.1,1.06-11.59,4.44-5.43,4.65-11.36,3.47-16.93-1.22-5.77,6.27-7,4.65-12.78-1-3.45-1.8-8.24,2.74-11a2.31,2.31,0,0,0,1-1.57c.08-5.46.54-11-.09-16.37-.59-5.13,5.57-7,4.55-12.71-.86-4.82-2.4-10.78,3.07-15,1.08-.84.5-3.78.72-5.74,1.19-11.06-3.15-22.7,3.91-33.24,1.26-1.88.18-5.34.18-8.07,0-19.79-.56-39.61.29-59.37.31-7.33-3.84-12.2-5.87-18.19-1.29-3.79-1.63-3.75.39-5.88s3.92-3.52,7-3.07c4.57.67,9.82-1.78,13.68,1.43,3.49,2.91,8.06,5.58,9,10.49.84,4.47,5.54,7.1,4.48,12.66-1,5-1.83,10.94,3.84,14.64,0,3.41.45,6.9-.15,10.21-.41,2.25-3,4.15-3.24,6.37-.16,1.38,3.09,3,3.23,4.61a120.84,120.84,0,0,1,.1,16.37c-.29,5.12,2.08,10.84-3.4,15.06-1.06.82-.58,3.79-.61,5.77-.07,4.78.33,9.59-.11,14.33-.6,6.5,2.22,13.26-2.2,19.56-3.73,5.31,0,12.2-2.19,17.5-1.48,3.65-4.38,5.89.14,8.95-6.72,4.17-1.13,12.33-4.66,16.35-4.43,5-2.06,10.24-3.5,15.11-1,3.55-4.78,6.07-4,10.66.71,4.06.18,7.88-3.65,10.85-1,.8-.34,3.85-.35,5.87,0,4.78,0,9.56,0,14.33-7.12,3-1.22,11.79-6.91,15.69-1.15.78-1.15,3.6-1.23,5.5-.23,5.41-.24,10.84-.33,16.26-6,3.72-1.66,10.7-4.16,14.58-4.45,6.89-3.94,13.91-3.62,21,.28,6.17-7.06,10.14-4.23,16.74-6.69,3.28-1.42,11.72-6.76,15.69a5,5,0,0,0-1.37,3.45c-.17,4.76-.11,9.53-.13,14.3-7,3-1.2,11.93-7.17,15.54-.77.46-1.14,2.49-.88,3.61,2,8.36-5.64,14.54-5,22.55-4.48,2.63-1.74,7.91-3.6,10.72-2.76,4.17-4.49,8-3.78,12.85C760,465,759,468.73,759.7,473c.41,2.55-2.5,3.22-2.9,4.92-1.44,6.21-7.44,11.08-5.32,18.31,1.18,4-3.63,5.29-4.05,8.54s.72,6.46-2.2,9.41c-2.12,2.15-3.08,5.47-4.46,8.32-1.93,4-4.88,7.87-5.35,12s-1.35,7.67-4.4,10.55c1.19,5-6.25,7.13-4.19,12.67,1.11,3-1.44,4.93-3.47,6.67-3.21,2.76-5.66,5.69-4.72,10.4a4.42,4.42,0,0,1-1.11,3.54c-4.61,4.19-8.54,8.58-7.18,15.5-2.88,2.07-2.88,6.22-4.67,8.14-2.91,3.13-2.92,7.15-5.32,10.29-2.65,3.46-5.18,7.6-5.92,11.77s-6.22,5.77-4.38,10.54c-2.62,2.21-3.31,5.35-4.69,8.28-1.89,4-6.31,6.84-9.65,10.17a20.73,20.73,0,0,0-1.58-1.56c-.94-.75-1.92-1.44-2.89-2.16-.55,1.82-1.8,3.76-1.51,5.43.44,2.46,5,3.28,3.83,6.48a53.52,53.52,0,0,1-5.86,11.87c-1.33,2-2.82,4.83-6.21,4.53-3.92-.36-4.11,2.3-4.23,5.17-.14,3.31.78,8.08-1,9.62-3.83,3.31-2.54,8.72-6.8,11.87-4,3-9.36,6-8.86,12.55-3.38,3.38-6.81,6.71-10.1,10.17-.85.89-1.81,2.2-1.78,3.3.11,4.17.1,8.15-4.05,10.65,1.27,5.93-3.21,6-6.95,7.13-.74.22-1.35,2.23-1.32,3.4.21,7-2.76,11.08-9.93,12.27-2.17.36-2.45,2.3-.42,4,.71.61,1.45,2.42,1.15,2.76a98.76,98.76,0,0,1-8.63,8.73c-4.08,3.52-6.28,8.12-8.89,12.68-2.2,3.84-5.26,7.07-7.39,11.28-2.53,5-4.57,10.69-9.6,14.62-4.53,3.53-8.51,7.68-10.72,13.89-1.65,4.64-7.53,7.67-11,11.86-1,1.23-.17,4-.17,7v-.91c-.61,0-1.39-.25-1.8,0-1.35.95-3,2.12-.56,3.56.32.19,1.55-1.15,2.36-2.69,1.36-.91,2.75-.74,4.08-.94,4.42-.68,7.36-6,12.64-4.07,4.17,1.5,7.68,3.92,12.58,4.52,7.06.88,8.39,7.49,7.75,14,0,.43.83,1.11,1.41,1.38.33.15,1.3-.19,1.37-.46,2.16-9.2,10.3-13.64,16-19.94,5.5-6.06,11.82-11.38,17.2-17.52,3.35-3.84,8.57-6,9.23-12.62.4-4.06,7.1-5.44,8.09-10.93.51-2.83,3.75-5.26,6-7.68,2.77-3,6.28-5.46,8.52-8.8,2.48-3.71,3.25-8.38,7.3-11.34,3.26-2.39,6.71-5.24,8.55-8.69,2.47-4.67,4.28-10,9-12.51,5.44-3,4.68-9.23,8.46-13.07,3.58-3.65,8.47-6.2,9.54-12.41.85-5,8.8-6.34,8.11-13-.09-.86,1.72-2,2.76-2.87,6.67-5.62,10.14-13.1,13.86-20.85,2.37-5,3.87-11.26,9.27-14.62a3.6,3.6,0,0,0,1.43-1.44c2-4.64,3.24-9.74,6-13.85,2.87-4.27,7.81-7.14,8.51-12.89,4.2-2,2-7.52,5.73-10,2.77-1.82.79-6.33,4.32-8.48,3.37-2,4.31-6.24,6.24-9.53,2.95-5,4.3-10.83,7.53-15.27,3.45-4.73,3.83-11.35,9.42-14.66,1.66-1,2.48-2.7,2.7-5,.7-7.25,4-13.26,8.75-18.93,4-4.8,7.93-10.23,7.59-17.28-.05-1.16.49-3,1.31-3.43,3.74-1.83,1.45-6.52,4.3-8.53,3.46-2.43,2-6,2.65-9.18a8.81,8.81,0,0,1,3.17-4.75c7.05-5.49,6.46-15.55,13-21.29-.1-4.69-.56-9.51,4.2-12.58-1.72-4.73,4.26-6.26,4.33-10.58,0-2.19,4.08-4.84,3.59-6.41-2-6.23,4.87-9.61,4.2-14.75-.76-5.78,5.09-8.74,4.68-14.72-.32-4.64,5.6-8.78,3.83-14.7-.19-.64,2-1.76,2.6-2.91,1.94-4,5.4-8.21,5-12-.54-5.52,4.53-7.89,4.62-12.67.12-7.12,6.68-13.09,4-20.82,5.59-3.33,2.35-10.21,5.45-14,2.48-3.05,2.81-5.83,2.76-9.19s-1.44-8.29.27-9.94c4-3.91,2.89-8.56,4.31-12.74,1-2.82,3.94-4.85,3.71-8.73-.32-5.37.16-10.8.29-16.2,5.85-3.8,1.45-10.92,4.07-14.57,4-5.61,2.81-11.29,4-16.94.68-3.27,5.48-6-.21-9,6.94-5,2.78-12.47,4.1-18.72.92-4.32,5.26-7.35,4.18-12.68-.79-3.94-.15-8.16-.15-12.25,0-4.78-.07-9.56,0-14.33.08-3.92-.83-7.86,3.09-11.14,1.44-1.21.94-5,1-7.63.06-26.61-.29-53.23.25-79.82.14-6.94-5.51-11.8-4.48-18.8.66-4.43.63-8.78-3.24-13.07-2.51-2.78.5-9.33-4.68-12.21a7.7,7.7,0,0,0-2.84-7c-4-3.65-7.64-7.81-11.68-11.47-3.09-2.81-1.73-6.26-1.84-9.46a3.69,3.69,0,0,1,2.34-2.71,36.58,36.58,0,0,1,8.17-.08c4.35.38,5.77-1.37,6-5.73.1-2.4,4.84-3.54,6.44-2,5.83,5.75,11.59,11.56,17.38,17.35-.11,4.49,2.7,7.36,5.82,9.84,3.78,3,2.5,9,7,11.46-1.66,4.7,4.32,6.22,4.33,10.58,0,2.17,4,4.73,3.6,6.43-2.36,9.14,6.24,16,4.48,25-.9,4.58,5.57,7.12,4.16,12.65a26.43,26.43,0,0,0,0,12.19c1.15,4.92,5.15,8.8,4.19,14.77-.51,3.17-3.06,8.58,2.93,10.16,4,1.06,5.76-2.85,8-5.12,2-2,4-3.36,7-3a31.92,31.92,0,0,0,8.17,0c10.94-1.7,14.24-.23,18.71,8.2,2.67,5,5.6,10.12,7.73,15.22,1.94,4.65.41,10.75.41,16.21,0,17.05,0,34.11,0,51.17,0,2.57.66,5.23-1.81,7.46-3.29,3-1.43,3.9,2,4.23,8.46.8,11.68,2.81,11.92,9.83.22,6.1,6.58,9.83,4.62,16.79-1.42,5.06-.28,10.84-.28,16.3,0,6.14-.77,12.41.22,18.39s-5,9.06-4.45,14.73c.56,5.36,0,10.84-.06,16.27-6.38,2.82-1.59,10.43-5.85,13.9-3.93,3.21-.12,8.49-3,11-3.79,3.31-3.49,7.12-3.17,11,.47,5.69-4.78,9-5.35,14.2-4.2,2-2.06,7.31-5.66,10s1.31,9.69-4.46,12.37c-.79,3.85-3.71,6.8-4.81,10.26-1.16,3.63-.29,7.46-3.59,11-1.82,1.94-1.68,6.12-4.62,8.16.62,5.48-6.18,8.68-4.46,14.61a3.94,3.94,0,0,1-1.38,3.39c-8,5.3-7.23,14.83-10.5,22.32-1.25,2.85-1,6.29-3.89,8.64-4.68,3.83-5.78,9.87-8.66,14.82-.29.51-.31,1.69,0,2,.79.61,2.44,1.46,2.75,1.16,4.47-4.21,10.6-7.89,12.61-13.13,2.09-5.45,7.72-8.19,8.68-12.7,1.16-5.43,6.27-7.27,7.44-11.3,1.62-5.59,7.06-8.36,8.53-12.84,1.62-4.9,4.48-8,7.75-11.12,1.85-1.77.41-4.72,1.5-5.43,4.84-3.16,3.77-9.72,8.46-13.1,4.88-3.51,5.59-9.81,7.8-15.09,2-4.75,9-6.37,8.22-13,5.37-5.76,12-10.48,14.62-18.52.53-1.61,3-3.85,4.36-3.69,4.12.5,5.59-4.42,8.55-4.11,5.16.54,8.54-2.58,12.72-4.11,2.19-.8,5.21.14,7.69.86,1.77.52,3.13,2.5,4.89,3,12.52,3.24,11.38,3.34,12.92,13.51,1.76,11.61-6.1,19.53-8.74,29.34-.77,2.86-4.79,4.71-6.78,7.42-1.45,2-1.4,5.34-3.11,6.77-4.24,3.55-6.19,8.28-8.63,12.9-2.09,3.94-2.72,8.93-7.18,11.34-6.33,3.44-6.14,11.46-11.47,15.81s-9.74,9.53-14.57,14.36c-2.37,2.37.06,8.36-6.84,7.69-4-.39-1.74,5.51-4.36,7.86-2.81,2.52-5.94,4.72-6.84,9.46-.65,3.36-4.95,6.1-7.77,9-8.16,8.25-16.4,16.41-24.55,24.67-.34.34-.05,1.32-.05,2.92,0,.31.24-.54-.06-.85a1.82,1.82,0,0,0-1.73,0c-1.35.95-3,2.12-.57,3.56.33.19,1.55-1.14,2.36-2.69a75.74,75.74,0,0,1,14.32-.91c3-5.47,5.92-2.62,8.88,0,7.53-2.3,10.91,3.62,15.21,7.7a7.22,7.22,0,0,1,2.65,5.07c.71,9.55-1.49,18-7.61,25.55-3.66,4.51-6.53,9.66-10.25,14.11-3.49,4.16-7.64,7.78-11.49,11.63-4.34,4.34-8.74,8.62-13,13-3.6,3.74-3.72,9.54-8.56,12.94s-8.6,8.72-13.22,12.74c-3.38,2.94-5.4,7.08-11,8.26-3.94.84-7,5.92-10.41,9.19s-6.25,7.75-10.29,9.8c-3.5,1.77-7.17,2.91-9.71,6.1-.33.41-.81,1.08-.67,1.41.24.58.94,1.45,1.37,1.4,5.09-.55,10.73,2.64,15.23-2.28.77-.84,2.44-1.66,3.4-1.4,6.44,1.73,10.28-5,16.77-4.53a45,45,0,0,1,16.7,4.39c5.31,2.54,8.22,6.17,7.62,12.45-.44,4.72-.08,9.52-.08,14.21-3,3-6.27,5.56-8.65,8.82-2.95,4.06-7.91,4.49-11.31,7.29-3.56,2.94-9.15,2.35-11.44,7.09-2,4.13-6.91,3-10,5.6a29.29,29.29,0,0,1-11.81,5.79c-3.91.88-5.79,5.91-10.45,4.5-6.7,8.56-17.22,11-26.08,16.08-8.2,4.67-17,8.32-25.53,12.39-.56.27-1.31.17-1.84.47A8.48,8.48,0,0,0,850,786c.94.75,1.85,2.08,2.81,2.12,2.62.11,6.78.64,7.64-.71,3.35-5.3,9.66-1.14,12.6-4.34,3.45-3.76,7.25-2.77,11.13-3,3.91-6.43,13.15-1.76,17.06-8.19l12.21-.15c3.69-5.88,9.6-3.42,14.73-4,6.28-.64,9.5,2.51,11.88,8.16,3.57,8.47,4,8.31,4,14.72,0,3.41,0,6.82,0,10.23,0,2.43-1.54,3-3.54,3.85C919.7,814,900,825.32,879.2,834.6c-3.79,5.44-12.27.3-15.55,6.89-6.24,1.58-11.77,4.64-17.06,8.19-6.94-1.81-11.68,6.5-18.76,4.09-2.6,3.19-7.72,2.94-9.78,5.58-3.7,4.75-9.68.18-12.71,4.19s-8.49.67-10.9,3.07c-3.06,3.06-7.63,2.47-10.07,5.59-3.1,4-7.8.53-11.12,2.85-.47.33-1.11,1.06-1,1.4.17.58.87,1.4,1.36,1.41,5.79.16,11.61,2.24,16.86-3.18,2.25-2.33,7.61,1,11-3,3-3.53,7.88-1.88,11.52-1.27,6.52,1.08,10.26-5.55,16.78-4.55,5.95.91,12.17,0,18.27,0,4.42-8,14.71.1,19.68-7.11.74-1.07,3.72-.6,5.67-.83,5.1-.61,11,2.15,14.87-3.61l16.16-.49c4.56-5.47,10.84-4,16.71-4.07,6.13-.09,12.27-.07,18.4,0,2.77,0,8.24,4.75,8.61,7.24.94,6.37-2.63,13.61,3.67,18.93-2.76,2.74-3.11,6.76-5.09,9.78-1.7,2.59-3.88,5.54-8.06,5.07-1.86-.21-4.88-.15-5.56.93-2.46,3.88-7.67,2-10.12,5.62-2.71,4-8.33-.9-10.94,3-2.49,3.72-8,1.53-10,5.73-5.81.48-10.9,4-16.33,4.73-4.35.56-7,3.38-10.56,4.38-3,.85-6.84-1-9.22,2.44-1.38,2-3.43,1.91-5.41,1.75-5.62-.48-10.76-.1-14.19,5.42-1,1.57-2.44,3.5-4.91,2.78-6.4-1.89-10.33,6.08-16.72,4.11-4.17,3.49-9.11,4.56-14.4,4.85-.55,0-1,2.18-3.33,3.34-4,0-6-.24-7.83.11-.86.16-1.55,1.45-2.18,2.33-.06.08.82,1.22,1.31,1.26a43.37,43.37,0,0,0,7.63.29c1-.08,2.68-1.21,2.82-2.06.64-3.92-2.63-1-1.75-1.93,7.33,0,12.92-.74,18.22.19,6.52,1.14,10.27-5.5,16.8-4.49,5.95.91,12.19.18,18.28-.16,1-.06,1.83-2,2.93-2.74,2.54-1.8,4.95-1.41,7,.95s4.81,3.39,6.91,1.33c9.35-9.17,17.05-.39,25.07,2.3a7.31,7.31,0,0,1,5,8c-.94,5.7,2.44,12.36-3.78,16.87-.71,8.52-5.89,11-13.7,10.69-2-.1-3.3,1.74-3,4.21.42,3.93,5.4,5.78,4.27,10.62-.75,3.23-.34,6.8-.1,10.2.45,6.28-2.46,9.67-8.27,11.83s-11.4,5.39-17.13,8.05c-3.95,1.84-4.76,3.51-1.81,7.48,4.17,5.59,3.34,11.13.87,16.67-2.1,4.7-4,9.56-8.51,12.94-2.72,2-4.74,4.41-8.68,4s-8.52.92-12.2-.31c-6.92-2.31-10.63,4.88-16.81,4.43-5.34-.38-10.75.27-16.13.46-4.52,7.79-14.94-.68-19.72,7.12-.6,1-3.82.23-5.79.52-6.35.94-13.71-2.84-18.84,3.93-6.8,0-13.62-.14-20.4.32-1.55.11-3,2.48-4.41,3.81-2.19-2.51-3.74-4.76-7.5-1-1.79,1.79-6.34.74-9.63,1.13-5.1.59-10.84-2.13-15.09,3.35-.84,1.07-3.77.67-5.74.69-6.82.07-13.65-.06-20.47.06-7.17.12-14.57-1.34-20.94,3.92-1.22,1-4,.15-6,.15H600c0-5.73.21-10.38-.05-15s1.84-5.85,6-5.61c.93.05,2-1.72,2.94-2.63,2-1.82,4.63-5.53,5.84-5.11,6.88,2.4,10.67-4.81,16.84-4.58,5.07.19,11,2.41,14.92-3.34,4.58-.48,10.31.56,13.45-1.82,4.1-3.12,5.19-1.13,7.61,1,.77.69,3.41.72,3.84.11,3.32-4.69,8.1-3.63,12.75-4.15,8.35-.93,17.55,3.61,25.07-3.81,1-1,4,0,6-.17,7.75-.67,16,2.34,23-3.87,1.54-1.36,5.31,0,8-.25,5.12-.49,10.85,2.12,15.09-3.36.83-1.07,3.8-.36,5.74-.71,7.13-1.31,15,3,21.51-2.37,5.37-4.47,14,2.07,18.12-5.73,4.55-.77,9.93,1.91,13.6-1.59,4.22-4,8.89-1.92,13.34-2.57a6.85,6.85,0,0,0,2-.22c.58-.28,1.47-1.24,1.39-1.35-.6-.92-1.39-2.41-2.14-2.42-10.92-.16-21.84,0-32.75-.16-5.39-.09-8.37,6.15-14.76,4.42-5.09-1.37-10.85-.27-16.31-.27-6,6.17-13.69,3.68-20.82,4.09-7.36,7.17-16.55,3.22-24.93,4-5.41.51-10.91.1-16.37.1-3.78,5.35-9.48,3.66-14.68,4.16-6.38.62-13.73-2.86-18.78,4H657c-6.82,0-13.85-1-20.4.33-4.88,1-9,4.77-14.78,3.91-4.67-.7-9.53-.15-14.31-.15-9.58,7.24-20.66,3.13-31.07,4-3.12.25-4.82,1.8-6.74,3.65a1.49,1.49,0,0,1-1.36-.36c-2.73-5.78-9-1.24-12.56-4.34-.94-.82-.42-1.86,1.09-2.89,2.13-1.46,1.94-3.1-.27-4.06s-8.12,1.53-3.4-4.67c2.48-3.25,2.35-8.85,8.53-8.54.38,0,1.27-2.2,1.25-3.38,0-2.53,1.25-3.74,3.48-3.91,5.32-.43,10.65-.67,16-1,4.1-5.49,10.9-1,14.83-3.53,4.29-2.78,8.06-4,12.88-3.76,4.08.23,8.19.1,12.28,0,.5,0,1.47-1.09,1.37-1.34-.37-1-1.08-2.57-1.69-2.58-7.5-.18-15-.12-22.51-.12-9.59,7.21-20.67,3.16-31.08,4-3,.24-4.6,2.26-6.87,3.31-3.54,1.65-7.72,2.19-11-1.26-3.4-3.61-3.84,1.37-7,2.13-3.64-3.91-7.77-8.32-11.86-12.76-2.08-2.25-2.24-8.92-.17-11.06,3.8-3.92,7.65-7.8,11.61-11.55.85-.81,2.54-1.65,3.43-1.34,5.43,1.93,8.27-4.89,12.63-4,6,1.25,9-5.67,14.74-4.33,5,1.17,7.2-6.47,12.63-4.07,6-2.58,11.87-5.67,18.77-4.1,4.89-8.35,16.3.16,21.18-8.19,3.41,0,6.82,0,10.24,0,4,0,5.74-5.42,10.62-4.23a21.94,21.94,0,0,0,10.16,0c4.26-1.07,7.53-5.45,12.68-3.93,4.58,1.35,7.11-2.57,10.6-4.06,5.33-2.27,10.47-5.62,16.71-4.11,4,1,4.78-4.46,8.55-4.17a58.14,58.14,0,0,0,10.22-.08c1.07-.1,1.84-2.22,3-2.54,6.11-1.7,10.93-7.58,18.21-5.58,1.2.32,3.48.27,3.8-.36,3.13-6.07,10.16-1.77,14.22-5.61,1.88-1.78-1.68.06,1.77-2.16,4,0,5.95.24,7.83-.11.86-.16,1.55-1.45,2.18-2.33.06-.08-.81-1.21-1.31-1.26a43.22,43.22,0,0,0-7.62-.29c-1,.08-2.69,1.21-2.83,2.06C755.07,917.2,758.34,914.25,757.46,915.21Zm-17,77.5V993c4,0,8,.14,12-.1a4.36,4.36,0,0,0,3-2c1-1.83.1-2.1-1.91-2-8,.22-16,0-24,.19-.81,0-1.59,1.48-2.38,2.27.47.47.93,1.33,1.41,1.35,4,.11,7.9.06,31.67-7.82-.63,0-1.4-.22-1.88,0-1,.58-2.6,1.31-2.73,2.16-.6,3.79,2.41,1.4,3.72,1.81a2.8,2.8,0,0,0,3.84-2.34C763.34,986.12,761.36,985.4,740.51,992.71Zm-61.1,8.51c5.34,0,10.7.22,16-.11,2-.13,3-1.93,2.88-4.29s-1.27-3.49-3.47-3.78a11.12,11.12,0,0,0-2,0c-4.46.21-9.45-1.44-12.52,3.6-5.28.16-10.55.22-15.81.58a4.44,4.44,0,0,0-3,2c-1,1.84-.11,2.15,1.92,2,5.32-.27,10.67-.09-19.15,3.69v.31c4.68,0,9.36.13,14-.09a4.34,4.34,0,0,0,3-2.05c1-1.83.1-2.09-1.92-2-9.34.2-18.69,0-28,.19-.81,0-1.6,1.47-2.4,2.26.47.47.94,1.34,1.42,1.36C635,1005,639.62,1005,679.41,1001.22ZM915.32,632.61c-.17-4,3.32-5.65,5.67-7.43,3.46-2.63,1.35-7.71,5.35-9.79,6.61-3.43,5.24-9.79,7.75-19.31a13.93,13.93,0,0,0-2.33,2,1.22,1.22,0,0,0,1.73,1.73,8.28,8.28,0,0,0,1.86-2.41c.08-.16-.79-.83-3.65,2.46-2.51.55-6.78-1.57-7.31,1.5-1,6-5.35,9-9,12.7q-36.82,37-73.81,73.84a9.86,9.86,0,0,0,1.5,1.47c4.84,3,6.56-3.47,10.34-3.43,2.33,0,4.43-.84,4.41-2.85,0-4.61,2-5.79,6.19-5.56.92.06,2-1.71,2.92-2.67,2.9-2.89,5.78-5.79,8.69-8.68,2.61-2.6,5-7,8.68-1.08,6.15-3.55,8.8-11.91,17.13-12.45,5.37-4.79,9.37-11.18,17.08-13.22C920.85,638.8,919.16,634.74,915.32,632.61ZM600,575.27c-4.7.33-6,5-9.26,7.23a6.41,6.41,0,0,0-3,6.92c-6.56,4-7.47,12.22-12.84,17.19-5,4.63-9.75,9.52-14.47,14.43s-9.11,9.84-13.65,14.78c-.11,9-9.83,7.42-13.6,12.4-.81,1.07-2.66,2-2.65,2.94,0,7.38-6.87,9.5-10.48,14.05-.88,1.1-4.88-.79-5.22,1.58-1.07,7.54-7.73,10.52-11.7,15.65-2,2.54-4.65,4.15-5.77,7.85-1.8,6-7.4,11.07-7.49,17.14-.09,5.76-6.75,8.74-4.53,14.65,2.43,6.48-6,10.24-4.16,16.72.93,3.25-3.31,4.2-3.84,6.5-.74,3.23-.19,6.77-.19,12v-1.82c-.61,0-1.39-.25-1.79,0-1.35,1-3,2.12-.57,3.56.33.19,1.56-1.15,2.36-3.6,1.16-.48,2.61-.67,3.44-1.49,4.16-4.11,8-8.21,10.46-14s9.3-8.59,11.61-15.61c1.52-4.61,7.25-7.83,11.09-11.67-.55-6.57,5.39-8.75,8.65-12.71s7.06-7.15,9-12.58c1.7-4.63,7.35-7.76,11-11.78.68-.75-.35-3,.32-3.86,6.6-8.71,8.64-20.49,18.37-27.15,1.27-.87,1.18-3.53,2.06-5.17,2.11-3.9,3.53-9,6.85-11.21,5.13-3.37,5-9.06,8.2-13.2,3.76-4.91,3.78-12.4,8.93-16.53,5.35-4.29,5.15-12.22,11.39-15.79,3-1.7.91-5,3.84-11.26a14.94,14.94,0,0,0-2.33,2,1.75,1.75,0,0,0,0,1.72,1.78,1.78,0,0,0,1.72,0,8.33,8.33,0,0,0,1.86-2.42C603.68,572.65,602.81,572,600,575.27ZM921.62,296.92c-3.56,3-7.37,5.65-6.4,11.42a35.57,35.57,0,0,1,0,10.2c-.26,2.08-2.34,2.4-4.4,3-4.09,1.11-5.19,4-2.36,7,3.53,3.82,3.87,6.47,0,10.08-3.49,3.25,1.13,9.4-4.24,12.73-1.4.86-1,4.91-1.1,7.52-.16,4.08.77,8.4-.26,12.22-1.16,4.23-5.23,7.6-3.88,12.69-4.32,4.07-3.23,9.59-4.44,14.59-1.31,5.43-2.52,11.57-5.37,16-2.56,4-.73,8.54-2.78,11.1-2.81,3.48-4.19,6.58-3.83,10.83.16,2,.71,4.74-.32,5.94-7.34,8.57-7.24,20.43-13.21,29.3-2.21,3.29-2,7.45-5.35,10.23-3.59,3-.74,7.7-1.6,11.54a6.56,6.56,0,0,1-1.46,3.45c-3.56,3.14-3.74,8-6.35,11.83-1.88,2.72.72,8-3.73,10.64,1,5.13-5.22,7.23-5,12.35.07,2.11-3.81,4.44-3.61,6.45.54,5.53-2.45,8.54-5.68,12.18a40.8,40.8,0,0,0-6.72,11.47c-1.19,2.88,1.16,6.73-2.08,9.38s-1.71,7.85-5.8,9.87c.17,5.36-5.27,8.56-4.94,14.52.22,3.89-2.87,8.3-5.32,11.9a38.41,38.41,0,0,1-8.62,8.69c-4.5,3.38,0,9-4.07,12.83-3,2.86-4.93,7.51-5.94,11.7-.83,3.47-2.28,4.13-5.26,4.38-2.13.17-3.24,1.57-3.27,4.1s1.37,5.47-1.4,7.57c-3.79,2.88-2.4,9.05-7.23,11.34-5.65,2.67-2.09,8.66-4.41,12.47-1,1.7-2.92,2.86-4.26,4.4-3.82,4.42-4.92,10.64-10,14.38-1.74,1.27-2,4.51-3,6.81-2.13,4.77-5.18,8.85-8.35,13-3.06,4-4.6,9.44-9.05,12.46-4.18,2.84-5,7.5-7.11,11.45a99.11,99.11,0,0,1-8.44,13c-3,4.06-4.61,9.44-9.06,12.46-4.18,2.84-4.53,7.8-7.25,11.35-1.29,1.69-2.51,3,0,4.27,1.08.55,3.31.66,3.93,0,5.45-5.94,13.86-6.4,20.12-11.15,2.83-2.15,6.93-3.1,9.67-6.08,1.66-1.8,1.72-1.66,1-10.55-.26-3.39.37-6.88-.13-10.21-.9-5.94,3-9,7.12-10.73,2.48-1,4.76-1.8,6.66-3.73,5.75-5.82,11.56-11.59,17.35-17.38l18.82-18.81L806.44,678c6.27-6.27,11.68-14,19.06-18.41,7-4.21,12.68-9.37,18.3-14.9,8.76-8.61,17.39-17.35,26.47-26.43-3.73-3.72-7.57-7.34-11.14-11.22-2.12-2.31-1.63-4.77.63-7,3.29-3.2,7.17-6.05,7.25-11.32,6-6.77,6.63-17,14.36-22.81,1.14-.86,1-3.64,1.14-5.55s0-3.88,1.83-5.42c5.69-4.75,7.79-11.56,10.82-18,1.57-3.34,3.24-6.88,5.18-10.14s5.4-5.22,7.07-9.36C911.65,507,919,497.8,920.72,486.11c.29-1.92,5-4-.37-4.85a9.84,9.84,0,0,1-6.6-3.9c-2.43-3-7-4.57-6.62-9.52.33-4.52-.74-8.86,3.29-13.1,3.24-3.42,3.66-9.35,6.23-13.62,1.41-2.33,3.55-4.16,2.72-7.06-1.64-5.82,1.82-10.12,4.2-14.67s5.39-9,4.07-14.71c-1.14-4.94,2.54-8.56,3.64-12.74,1.16-4.39,5.6-7,4.88-12.56-.61-4.74,6.22-8.76,3.7-14.62-2.39-5.56,5.83-7.12,4.3-12.69-1.24-4.55.15-8.74,3.62-12.85,2-2.43-.23-7.26,3.07-11,2.1-2.41,1.46-7.65,1.23-11.57-.4-6.74,5.91-11.51,4.49-18.83-.93-4.81-2.46-11,3.28-14.84.18-4,1-8.17.35-12-.85-4.79,3.89-6.78,4.2-10.62.32-4.07.77-8.33-.1-12.24-1.2-5.4,3.94-8.27,4.14-12.67.41-8.85.15-17.73.07-26.6,0-.5-1-1.48-1.31-1.38-1,.33-2.58,1-2.61,1.58-.23,4.08-.79,8.33,0,12.24,1.15,5.38-6.49,7.14-4.33,12.7,1.51,3.89-3.59,5.42-3.9,8.52-.47,4.73-1,9.77.11,14.26,1.46,5.68-4.92,7.63-4.46,12.7.56,6.09-.48,12.35.28,18.39,1.07,8.4-5.28,11.84-9.84,16.42-2.13,2.14-12.35.76-15-1.54C925.37,300.91,923.55,298.85,921.62,296.92ZM714.73,993c-3.36,0-6.73-.14-10.07.12-.63,0-1.27,1.61-1.6,2.58-.1.28.85,1.32,1.34,1.33,5.37.1,10.75.15,16.12-.06.59,0,1.26-1.61,1.59-2.58.1-.28-.83-1.29-1.34-1.33C718.77,992.93,716.75,993,714.73,993Zm-43-171.93c-1.37,1.31-2.68,2.69-4.13,3.91-1.71,1.44-2.22,3,0,4.1a5.3,5.3,0,0,0,3.86,0c2.23-.84,3-4.21,1.71-6.56A8.16,8.16,0,0,0,671.72,821.1Zm169.95-32.86c-2.5,0-4.28,1.39-3.52,2.7,1.2,2,5.24,2.13,6.77.08.23-.32.27-1.24.1-1.33A35.62,35.62,0,0,0,841.67,788.24ZM693.56,324l-1.45-2.64c-.46.46-1.36,1-1.28,1.35a12.42,12.42,0,0,0,1.28,2.75Zm21.07-41.55c-.45-.45-1-1.35-1.34-1.28a13.16,13.16,0,0,0-2.75,1.28c.45.46,1,1.36,1.34,1.29A12.71,12.71,0,0,0,714.63,282.42Zm7.6-15.79L720.78,264c-.46.46-1.36,1-1.28,1.35a12.42,12.42,0,0,0,1.28,2.75Zm2.64-14.92c-.45.45-1.35,1-1.28,1.34a13.16,13.16,0,0,0,1.28,2.75c.46-.45,1.36-1,1.28-1.34A12.22,12.22,0,0,0,724.87,251.71Z"/><path d="M137.14,913.73c0-16.37.3-32.75-.14-49.11-.18-7,3-14.75-3.57-21.1-1.39-1.34-.37-5.2-.38-7.91,0-17.73-.06-35.47,0-53.2,0-2.85-.12-5.43-2.75-7.06-1.79-1.1-1.74-1.8.05-3a5.4,5.4,0,0,0,2.34-6.94c-4.68-11.65-4.71-11.62-.4-23.63,1.15-3.19,2-7.37-.24-9.42-3.75-3.38-3.13-7.17-3.13-11.1,0-31.38.19-62.76-.18-94.14-.09-7,3.27-15-3.57-21a34,34,0,0,0,2.23-2.8,9.94,9.94,0,0,0,1.45-3.47c.63-4.14-6.77-5.89-3.66-10.37,1.93-2.8,4.31-4.91,3.75-8.75-1.22-8.33,2.76-17.34-3.94-25.07-1.35-1.56-.2-5.29-.2-8q0-54.22.05-108.46c0-4.52-1.33-9.28,3.3-13.09,1.42-1.16.72-5.07.73-7.72,0-17.74-.19-35.48.14-53.21.11-5.72-2.29-12,3.44-17.08,1.39-1.23.51-5.15.52-7.83,0-11.6.11-23.2,0-34.79-.06-4.18.38-7.61,3.82-10.85,1.83-1.72.06-5.1-2.46-6.75-1.62-1.07-1.67-2.57.27-2.79,4.56-.54,7-1.72,6.77-7.27-.48-14.31.06-28.65-.26-43-.14-6.34,2.6-9.53,8.21-11.93,8.44-3.6,8.29-3.95,14.73-4,2.73,0,5.46,0,8.18,0,1.34,0,3.15-.4,3.93.3,3.52,3.18,6.76,6.69,10.1,10.08-1.75,4.74,4.89,6.29,4.07,10.58-1.1,5.69,2.67,12.07-3,17.27-1.45,1.33-1,5-1,7.64-.09,11.6,0,23.2,0,34.79,0,5.46-.4,11,.12,16.36.48,5-5.06,7.08-4.54,12.67,1.07,11.5.32,23.17.32,34.76,0,3.41.82,7.09-.17,10.18-2,6.18-4.85,11.86-4.1,18.84.79,7.42.18,15,.18,22.5,0,6.82-.11,13.64,0,20.46.09,4.14.24,8.16-3.93,10.67,6.55,5.13,3.75,12.36,3.77,18.68q.32,76.74.07,153.49c0,4.78-.36,9.36,4,12.75.6.46.5,3.11-.21,3.79-2.54,2.46-4.83,4.57-.45,7.33C174.52,654.57,179,668,178.28,681c-.8,14.28-.18,28.64-.18,43,0,13.64-.15,27.29.1,40.93.07,3.76-1,6.48-3.88,8.67,3.93,3.12,3.61,5.89-.45,8.73-2,1.42-1.59,1.68-.72,7.2a76.71,76.71,0,0,1,.82,11.94q.08,83.91.09,167.81c0,4.5-1.77,9.68,3.41,12.89l1.44,13.73c6.16,4.71,2.14,11.38,3.26,17.06.85,4.32-5.78,5.86-4.07,10.58-3.86,2.12-7.5,5.26-11.62,6.1-5.24,1.06-10.86.2-16.32.28-3.21,0-3.89-1.57-5.07-4.48-2.66-6.53-5.93-12.9-11.59-17.76A189.82,189.82,0,0,1,119,993.21a7.93,7.93,0,0,1-2.22-5.11c.18-3.84-2.22-9.93,2-11,4.52-1.1,10.84-2.88,15,2.41,1.09,1.37,2.27,1.39,2.82-.5a22.28,22.28,0,0,0,.45-6Q137.16,943.41,137.14,913.73Z"/><path d="M915.32,634.43c-.81.63-2,2-2.36,1.78-2.46-1.44-.78-2.61.57-3.56a1.8,1.8,0,0,1,1.73,0C915.56,633,915.32,633.82,915.32,634.43Z"/></svg>