<svg id="Layer_1" data-name="Layer 1" xmlns="http://www.w3.org/2000/svg" viewBox="0 0 1200 1200"><title>BB_Artboard 96</title><path d="M227.35,108.1c-4.83,5.23-9.18,10.34-17.9,9.1-8-1.14-16.37-.09-24.57-.29-6.3-.15-8.75,8.59-15.88,6.65-.47-.13-2.66,3.07-2.68,4.74-.2,18.45-1.43,37,.49,55.31a66.59,66.59,0,0,0,7.95,24.12c3.21,5.73,3.14,13.7,10.2,17.56,2.2,1.2,3,2.66,4.49.76a8.73,8.73,0,0,1,2.17-2.16c4.84-2.9,4.29-8.59,6.74-12.57,2.62-4.24,9.76-7.16,10.08-11.06.67-8.14,9.57-13,7.08-21.93-2.9-10.35,9.48-17.19,6.92-28.09-.6-2.55,14.72-13.23,23.21-17.21,9.48-4.44,17.84-10.52,29.72-10.61,9.11-.08,17.71-7.14,28.26-5.72a101.78,101.78,0,0,0,27.62,0c11.72-1.65,20.81,4.42,30.43,8.55,3.51,1.51,6.18,4.22,10.65,4.16,7.19-.08,14.13.7,18.91-6.61,6.76-10.34,20.3-12.23,27.92-21.72,1.08-1.34,3.24-2.15,5-2.52,8.61-1.74,17.59,2.67,26.24-3.77,7.58-5.66,17.64-1.92,26.58-2.35,9.2-.44,18.69-1.37,27.61.3,7.36,1.37,13.41,8.16,22.15,5.82,7.62-2,10.9,8.68,18.65,6.85,4.64,10.22,18.55.66,23.18,10.88,5,.22,10.08.37,15.11.68,6.23.39,11.56-.23,16.39-5.54,1.89-2.08,7.9-1.21,11.78-.43,3.68.75,4.68,6.22,9.8,6.08,13.31-.38,26.68.37,39.94-.52,3.79-.26,1.39-3.85-.38-6.25-4.75-6.42-4.9-12.83,1.14-18.78,5.84-5.76,10.67-13.81,17.67-16.77s16.08-.85,24.24-.87c14.36,0,28.72-.28,43.07.11,6.91.18,14.29-2.33,20.71,1.84,11.31,7.33,25.68,9.89,34.06,21.73,1.63,2.31,3.73,5,3.89,7.54.5,8.17.32,16.4.07,24.59-.05,1.73-1.09,4.19-2.45,5-10,6-9.75,19.46-19.33,26.1-4.52,3.14-10.86,6.79-8.88,14.6,8.24,2.35,14.38,10.4,23.84,9.1,2.67-.36,5.34-2.09,7.63-3.73,7.12-5.08,10.84-14.23,21.37-15.57,4.47-.58,2-7.05,2.53-10.87.83-6.39-8.09-8.54-6.4-16,1.32-5.85-.14-12.28.39-18.38.42-4.83-3-11.26,2.27-14.15,4.13-2.25,8.73-3.25,12.78-6.5,2.53-2,9.6-2.46,11.5-.53,7.58,7.72,16.75,4.94,25.42,6.09,2.42.32,5.73,5.74,6.4,5.31,3.37-2.15,6.11-5.38,8.72-8.51.2-.24-2.1-3.08-3.64-4.12-2.53-1.73-2.15-2.48.09-4.57a12.22,12.22,0,0,0,3.82-7.48c.26-5.17.31-9.71,4.93-13.5,6.26-5.12,11-13.58,18-16,8.28-2.81,18.24-.66,27.47-.66,7.35,8.74,21.07,3.26,28.43,13.52,5.9,8.23,14.25,14.7,21.49,22,1.89,1.9,11.26,19.94,10.41,23.19-2.13,8.15,9,10.56,6.77,19.15-1.78,6.71.18,14.31-.47,21.43-1.21,13.29,2.2,25.13,9.32,36.21a19.61,19.61,0,0,1,3,7.94c.5,4,1,8.46-.05,12.24-2.88,9.87,5.54,16.5,6.34,25.19,7.92,5.71,5.93,14.2,6.15,22.06l-10.76,20.16c-5,8-14.48,9.83-21.35,15.26-5.59,4.42-7.14,8.56-2.78,12.29,4.55,3.89,2.18,10,6.29,12.95,5.15,3.72,2.81,9.19,4.24,13.7,2,6.26,4.41,13.44,9,17.59,10,9,12.21,21.9,19.32,32.17.58.83,1.89,1.36,2.09,2.21,1.69,7.55-2.67,15.68,4.15,23,5,5.42,1.68,13.61,2,20.54.35,8.14-.12,16.31-.24,24.47-7.81,4.32-4.19,12.67-6.75,18.73s-7,11.5-10.68,17.11c-2.14,3.25-7,6.84-6.41,9.39,1.94,9-7.9,13.82-6.61,22.15,1,6.07-.86,9.76-8,9.38-1.37-.07-4,2.13-4.11,3.47-.49,5.08-1.08,10.43,0,15.32,1.43,6.43,7.5,11.13,6.18,19.07-1.17,7,.05,14.33-.33,21.49-.37,6.92,2.88,9,9.11,8.16,14.52,14.45,29.41,28.57,43.36,43.56,4.34,4.67,6.8,11.47,9,17.69,2.49,7.08-4.18,18.5-11.05,18.48-6.67,0-14.35,3.6-20.06-3.29-4-4.82-9.62-1.42-14.28-2.69-3.74-1-4.69-6.8-9.79-6.1-2,.27-4.14-.23-6.13.12a28.56,28.56,0,0,0-5.28,2.06c.87,1.34,2,3.93,2.57,3.82a10.9,10.9,0,0,1,12.24,7.17c4.21,12.09,14.13,19,22.06,27.82,4,4.41,9.46,8.62,10.93,13.85,1.59,5.68,2.65,10.72,5.83,16.22s.9,13.93.72,21.08a8.43,8.43,0,0,1-2,5.24c-6.37,6.66-13,13.12-19.59,19.52-.53.51-2.07-.19-3,.11-12.17,3.86-12.36,3.88-12.17,14.16.16,9.05.83,18.09,1.27,27.13,11,7-1.69,22.87,10.88,29.34q0,21.51.1,43c-12.55,13.05-3.34,29.18-6.16,43.6-1.63,8.39,8.25,12.5,6.9,22.17-1.25,8.94-6.13,16.84-6.32,25-.24,10.2-7.34,13.91-12.52,19.62-8.25,9.08-9.26,14.52-2,29.3,2.49,5.1,3.2,11.74.92,14.16-4.83,5.14-5,10.35-5.76,16.41-.44,3.36-3.85,7.93-7,9-8,2.87-14.39,10-24.21,8.7-7-1-14.34-.43-21.5-.06-2.75.14-6.58.83-7.93,2.7-6.94,9.61-16.4,10.53-27,9.58a78.34,78.34,0,0,0-18.43,0c-14.57,2.18-22-6.82-29-17.07.91-7.29-8.86-10.74-6.37-19,1.78-5.93-4.81-8.21-7.93-11.89-.29-.34-3.94,1.05-4,1.76-.75,11.9-9.46,17.58-18.57,21.18-11.43,4.52-20.56,14-34.81,13.18-9.15-.53-17,8-25.78,11.37-8,3.14-18.35-3.15-26,4-3.65,3.43-7.5,2.4-11.34,2.44-16.4.15-32.84-.5-49.21.31-8.16.4-13.28-2.83-18.25-8.38-1.79-2-5.31-4.41-7.35-3.9-9.78,2.44-15.36-9.19-25.31-6.87-2.42.57-6.24-4.2-9.21-6.76-5.13-4.44-5.83-5.15-10.67.83-4.2,5.18-10.54,5.08-15,8.63-4.78,3.81-8.8,8.58-13.15,12.93l-20.7,9.43c-8.5-2-13.07,8.28-22.13,6.49-6.5-1.28-10.68,8.27-19,6.08-5.86-1.55-7.74,5.6-11.66,8.51s-7.6,6.44-11.39,9.69c-9.92-4.26-15.46,8-25.18,6.42-8-1.29-16.37-.07-24.56-.32-8-.24-16-.94-24-1.43-6.39-9.59-17.55-.93-25-6.53-6.17-4.65-13.78-6.46-20.3-10.43a27,27,0,0,0-5.08-2.58c-8.64-3-15.4-8.55-21.43-15.2-.18-.2-2,.46-2,.85-1.15,8.64-8.13,13.18-13,19.31-4.05,5.11-11.28,2.87-15.38,8.3-1.64,2.16-7.86,2.44-11.3,1.36-9.16-2.88-13,8.71-22.21,6.75-7.85-1.68-16.34-.22-24.54-.4a46.59,46.59,0,0,1-11.76-1.33c-2.65-.76-4.63-3.78-7.28-4.61-3.68-1.16-8.46-.09-11.4-2-3.43-2.27-6.14-4.32-10.59-4.61-2.35-.15-4.37-5.32-6.72-5.48a15.22,15.22,0,0,1-10.52-4.74c-6.3-6.11-11.13-14-21.22-15.71-3.07-.52-7.71-5.69-7.61-8.6.34-10-12.82-11.42-12.3-19.5.51-7.92-4.25-12.79-6.65-19-1.7-4.41-5.58-8.53-5.72-12.87-.22-6.51-3.19-10.84-6-16.18-2.53-4.82-.43-12-.55-18.17-.18-8.82,2-18.17-6-25.31-.82-.73-.12-4,.75-5.6,1.36-2.57,4.85-4.64,5-7.08.62-9.19,1.36-18.62-.06-27.62s9-13,6.8-22.19c-1.31-5.52-1.32-13.32,1.72-17.35,3.23-4.26,2.13-10.39,6.11-12.88,7.81-4.88,1.42-13.44,6.21-19.19,4.22-5.07,7.09-11.33,10.09-17.29.72-1.44.25-4.3-.8-5.64a43.18,43.18,0,0,0-8.63-8.71c-9.26-6.62-10.62-18.68-19.14-26.25-5.2-4.62.07-15.89-8.2-20.94,2.07-11.54-4.84-24.42,5.22-34.76,1.38-11.8,2.84-23.49-5.11-34.06-2.79-3.73-5.64-8.38-5.93-12.77-.41-6.36-2.59-10.87-5.93-16.24-2.76-4.43-.42-12-.6-18.11-.25-8.79,2.25-18.3-6.12-25.13l.54-30.55c12-6.66-.6-22.29,10.7-29.6,1.56-1,1-5.63,1-8.59.11-10.25-.1-20.51.1-30.76.12-6-1.17-13.34,1.79-17.53,2.72-3.85,10.19-4.26,14.7-8.23,2-1.76,5.51-1.65,7.85-3.14,5.39-3.43,9.87-14.15,5.76-18.34-6-6.15-6-12.6-5.38-19.46.71-7.52-2.85-12.91-5.89-19.2-2.42-5-.08-12.13-1.74-17.76-1-3.33-4.75-5.58-5.06-10.24-.52-7.75,3-16.09-3.22-23.22s-.87-15.76-2.81-23.44c-.68-2.7-1.85-6.51-3.87-7.41-8.66-3.87-8.26-13.35-12.38-19.81-3.3-5.19-.89-13.71-2.29-20.5-2-9.64,3.05-15.39,9.51-20.77,3-2.47,4.72-6.66,9.78-6.17,3.54.34,6.27-2.09,5.33-5.39-2.28-8,5.89-12.46,6.06-19s2.78-10.88,5.84-16.23c2.37-4.14,1.75-11.11-3.83-16.45-8.26-7.92-18.37-29.14-19.91-40.74-.82-6.21-8.57-8.54-6.68-15.93,1.22-4.82.64-10.24.13-15.31-.68-6.69-8-10.87-6.35-19.06,1.42-6.89.29-14.3.29-21.47s1-14.55-.25-21.49c-1.69-9,6.52-13.87,7.53-21.77.4-3.16,5.52-8.2,8.34-8.11,8.41.29,12.65-9.51,22.19-7,7.68,2,16.47,1.46,24.46.18C207.36,89.59,218.79,95.24,227.35,108.1ZM508.08,861.59c.91,0,2.18.36,2.64-.1a2.69,2.69,0,0,0,0-2.6c-1.42-2-3.18-4.55-5.34-.85-.29.5,1.72,2.34,45.47,59,5.06-4.84,2.17-10.2,3-14.92-9.71-6-11-18.33-19-25.43-2.65-2.34-7.25-2.37-10.15-4.54-4-3-7.22-7-10.93-10.49a2.89,2.89,0,0,0-2.86,0c-.5.51-.11,1.91-.11,2.93l8.45,20.8C529.79,896,540.31,906.47,508.08,861.59ZM214.9,649.8c-.32-.67-.52-1.82-1-1.94-2.61-.69-5.31-1-7.91-1.7-2.91-.79-3.91.07-2.83,2.89a4.17,4.17,0,0,0,1.85,2.06c4.22,2.09,9.21,1.37-34.62-36.35-5.75,4.14-3.15,8.73-4.34,12.32-1.48,4.45-4.89,8.38-5.83,12.87-2.37,11.28,2.44,15,14.9,12.81a38.47,38.47,0,0,1,12.11-.27c6,.89,9.13-2.74,12.9-6.19,3.44-3.16,4.09-4.29.78-5.2-4.78-1.32-9.24-2.36-12.7-6.56C182.51,627.61,176.22,621.17,214.9,649.8ZM387.75,806.2a35.8,35.8,0,0,1,6.13,0c11.41,2.06,24.55-5.47,34.26,6.11,7.15,0,14.31.08,21.46,0,6-.09,7.58-6.15,11.65-8.87-3.55-11.54,9.53-19.19,6.82-31.12-1.87-8.2-5-14.65-14.83-15-9.15-.32-15.06-11.12-25-6.53-5.49-6.77-15.42-10.14-15.84-20.77-6.46-3.93-4.5-12.83-10.26-17.25-2.75-2.11-4.42-6.71-8.88-1.64-1.61,1.83-5.6,3.14-7.89,2.5-7.29-2-10.13,5.21-15.85,6.65-10.3,2.6-15,12.88-22.68,19.17-3.95,3.23-.61,10.28-6.48,12.69a3.2,3.2,0,0,0-1.73,2.26c-.14,7.16-.81,14.42.18,21.43.64,4.47,3.87,8.55,5.89,12.83,2.41,5.13,3.85,11.06,7.38,15.24,4.45,5.25,11.47,1.63,17.32,2.15C375.45,806.63,381.62,806.2,387.75,806.2ZM761.74,654c7.71,7.71,14.15,13.94,20.34,20.41,4.12,4.31,8.54,8.56,11.64,13.57,2.92,4.74,3,11.62,6.64,15.44,4.95,5.25,4.81,12.55,9.67,17.69,3.82,4,5.48,10.12,7.84,15.08,2.77,5.83.65,14,.65,21.13v18.39c0,4.08.55,8.27-.19,12.21-.49,2.64-2.7,5-4.34,7.35-2.7,3.86-1.74,6.81.89,10.59,4.92,7.07,13,9.13,18.5,5.82,5-3,11-4.13,15.13-8,6.71-6.19,15-12,18.6-19.84,3.11-6.73.64-16,.64-24.21,0-7.15-1.07-14.51.26-21.4,1.89-9.75-8.29-15.37-7-25.14.46-3.37-5.44-7.7-8.62-11.43-2-2.33-4.3-4.36-6.47-6.53l-13-13c-3.61-3.61-7.22-10.19-10.84-10.2-7.07,0-9.56-7.39-15.61-7.22-6.33.18-8.7-8.88-15.79-6.35C782.75,649.05,773.17,652.21,761.74,654ZM178.51,366.73c-4,12.27,2.76,22.67,13.59,31.63a100.11,100.11,0,0,1,10.81,10.79c4.05,4.53,11.88,2.4,14.79,8.58,3.41,7.22,12.27,5.45,17.05,10.69,5.45,6,17-2,20.85,8.55,7.13,0,14.26-.06,21.39,0,6.17.06,8.94-6.42,15.59-7.15,5.21-.57,2.16-8.7,2.83-13.46,1.2-8.46-4.69-14.94-8.43-20.82-5.89-9.23-14.44-17.45-23.53-23.69-6.33-4.33-12.84-8.32-19-13-5.79-4.4-16-4.19-20.11-9.33-6.67-8.42-18.92-.22-23.67-10.29-.26-.53-1.77-.49-2.7-.7-8.69-2-19,5.17-19.39,13.5C178.37,356.07,178.51,360.15,178.51,366.73Zm123,500c.73-5-.29-9.37-4.68-13.24-6.92-6.08-13.07-13-19.7-19.42-4.73-4.59-13.74-5.06-18.65.12a52.75,52.75,0,0,1-24.72,14.56c-5.88,1.58-11.72,1.34-15.65,7-3.29,4.75-9.28,7.06-9.41,14.8-.06,3.65-7.39,6.91-5.5,12.81,2.31,7.19-7.28,9.41-6.22,15.91a10.31,10.31,0,0,0,.58,2.83c1.36,2.71,2.95,3,4.3.72,3.28-5.46,8.61-4.7,13.58-4.25,6.72.61,13.64-2,20,4,3.85,3.62,10.73,3.86,14.86,8.27,10.68-1.7,11.87,14,22.58,12.39.73-.11,1.75.77,2.43,1.41s1.6,1.58,1.58,2.36c-.25,9.84,8.87,12.9,13.83,18.82,3.63,4.34,9.51,2,14.28,1.37,2.68-.33,3-2.75,1.08-4.13a10.55,10.55,0,0,1-4.59-10.45c.42-4.05,1.84-10.09-.21-12-11.23-10.36-4.46-23.19-5.46-34.69C295.29,879.69,303.89,874.73,301.5,866.76ZM473.9,486.81c0-4.64.36-7.76-.11-10.75a24.45,24.45,0,0,0-2.8-8c-.77-1.38-12.81.05-14.29,1.49-4.37,4.28-7.93,10.23-13.14,12.65-12.79,5.94-23.59,17.45-39.13,16.13-8.39-.71-14.79,3.12-22.12,5.81-8.41,3.09-11.79,10.6-18.3,15-.91,11.39-10.92,16.12-17.37,23.37-6.08,6.85-13.16,12.82-19.18,19.72-1.37,1.57-1.34,6.62,0,7.88,4.21,3.86,4.6,8.22,5.06,13.42.74,8.41,3.26,8.84,11.67,4.77,9.88-4.77,21.11-9.76,24.41-20,3.52-10.83,12.86-15,18.38-23.06,3.66-5.34,11.12-2.9,15.21-8.31,1.62-2.14,7.43-1.43,11.34-1.49,10.2-.18,20.4,0,30.6-.08,9.6-.07,22.29-8.88,23.1-19.11C468.14,505.45,479.2,497.05,473.9,486.81ZM652.74,683.12c1-.08,2.57.19,2.87-.31,4.42-7.32,14.85-5.43,19.31-12.89,4-6.69,1.6-13.77,1.87-20.63.18-4.38,1-7.6,4.42-10.55a94.9,94.9,0,0,0,12.95-13c3.86-5,8.75-4.34,13.7-4.06,3.86.23,5.86-1.79,5.92-5,.07-4.81,1.43-9.83-3.26-14-6.86-6.11-13.09-12.91-19.6-19.41s-12.43-13.75-19.67-19.31c-7.52-5.77-6.09-17-14.93-21.64-2.59-1.35-4.36-4.25-6.64-6.3-.19-.17-1.52.61-2.06,1.2s-1.53,1.83-1.32,2.43c1.9,5.33,5.43,10.5,5.78,15.89.86,13.23.48,26.56.21,39.84-.17,7.74-9.34,12.81-6.55,22.12.61,2-4.66,5.95-7.38,8.86s-6.22,5.48-8.48,8.8c-1.47,2.17-2.82,6.42-1.72,8,8.07,11.9,13.86,24.85,19.4,38C648.06,682.33,651,682.5,652.74,683.12ZM757,359.68c0,11.28-.49,17.43.16,23.46.5,4.68,5.29,7.25,6.57,12.57,1.69,7,7.39,13.12,11.55,19.49s12.31.41,16.3,4.45c6.54,6.62,11.6,6.82,17.1-.52,10.52-1.84,18.68-8.81,28.1-13.09,14.07-6.38,14.77-11.65,9.33-25-5.15-12.63-15.34-20.34-24-29.65-.52-.57-1.83-.4-2.77-.59-7.44-1.5-14.88-13.37-22.33,0-10.16,0-20.32.17-30.47-.18-1.51-.06-3.23-2.36-4.34-4-1.69-2.49-3.73-2.67-4.21.28A99.52,99.52,0,0,0,757,359.68ZM522.52,443.13c-20.23-.07-16.59-.83-18.33,14.73-.75,6.68,8.51,10.19,4.28,14.64-5.27,5.54-3.35,11.2-3.71,16.9-.4,6.07.46,12.24-.22,18.26-1,8.78,1.63,15.09,8.46,21.07,11.28,9.86,17.43,9.49,29.4-3,2.37-2.48,8-2,10-4.59,7.12-8.83,17.26-12.34,27-16.15,5.18-2,5.1-4.91,5.31-8.93.21-4.18-.5-7.52-3.82-10.69C570.62,475.53,561,465,550.52,455.4a60.93,60.93,0,0,0-16.86-10.63C529.33,442.9,524,443.32,522.52,443.13ZM492.36,649.27c0-8.18.17-16.36-.1-24.52-.09-2.8-.44-6.34-2.14-8.19-6-6.47-11.5-13.83-21.15-15.29-4.13-6.87-10.88-4-16.62-4.2-8.66-.36-9.64.29-9.07,7.78.67,8.59-3.73,18.46,5.35,25.31.22,7.07,1.54,14.32.33,21.13-1.13,6.33-3.68,13.35-7.92,17.94-5.92,6.41-3.32,13.24-4,19.93-.87,8.26,7.18,4.61,10.28,7.48,6,5.55,11.61,11.49,17.41,17.24.95.94,8.38-1,8.16-2.13-1.61-7.82,8.76-10.88,7.19-18.55C492.35,668.31,492.35,668.31,492.36,649.27ZM261.79,621.38c4.89-4.89,10.66-9.42,14.65-15.19,1.92-2.77.08-7.94.71-11.9.26-1.65,3-2.77,3.77-4.51,1.12-2.57,2.8-7.35,2-7.94-7.14-5-6.83-12.29-5.71-19.13,1.3-7.94-9.17-10.81-6.94-18.64-6.48-6.48-12.57-13.45-19.66-19.19-2.58-2.09-8.66-3-11.18-1.42-6.83,4.37-14,5.56-21.69,7-5.21,1-11.86,4.35-14.09,8.62-3.52,6.75,4.67,10.06,8.46,14.35,4.52,5.13,8.45,10,11.33,16.73,3,6.95,10.93,11.76,16.58,17.63.51.53-.23,2.09.11,3C244.65,602.89,251.55,613.33,261.79,621.38ZM904.68,360.93c0,4.06-.08,8.12,0,12.18.18,7.8,5.52,12.86,15.14,14.64,2.8.52,6,.62,8.27,2.05,12.17,7.55,27,11,36.09,23.43,1.63,2.24,4.5,4.93,6.89,5a163,163,0,0,0,23.89-1c2.68-.3,2.43-2.64-.3-4.14-7.78-4.27-.78-13.33-6.2-18.86-3.14-3.2-4.1-8.44-6.7-12.32-2.72-4.07-8.19-7.26-8.93-11.45-1-5.86-5-8.35-8.21-11.92-3.37-3.79-7.39-7-10.65-10.88s-7.15-2.52-11-3.14c-2.7-.44-5.2-2.08-7.8-3.17C914.07,332.49,901.77,342.69,904.68,360.93ZM740.42,189.64c-4.51,5.29-9,10.56-13.47,15.93-.24.3.28,1.81.78,2.05,8.57,4.12,1.48,13.71,6.52,18.71,3.12,3.1,4.82,6.07,4.51,10.54-.07.95,3.45,3.38,4.42,3,9.2-3.85,14.11,5.91,22,6.73,3.23.34,6.94,4.39,8.78,7.67,3.07,5.45,8.9,3.37,13,6.17,7.17,4.95,15.38,8.17,21.27,15.2,5.21,6.24,11.52,11.54,17.15,17.44,4.29,4.5,9.59,1.92,14.35,2,1.12,0,2.44-4.58,3.39-7.15a3.2,3.2,0,0,0-.89-2.61c-6.43-6.55-13-13-19.42-19.52-5.46-5.58-6.26-13.74-12.51-19.59-5.75-5.38-8.75-14.37-11.3-22.56-.25-.83-1.56-2.06-2.13-1.94-6.19,1.36-9.38-3-12.5-6.78-3.39-4.16-8.17-4.75-12.54-6.75s-6.93-7.53-11.1-10.29c-4.77-3.17-12.21,2-16.49-4.44C743.61,192.59,742.75,192,740.42,189.64ZM442.83,169.56c3.92,3,7.41,6.8,11.74,8.78,11.28,5.14,18.57,14.24,25.44,23.85,4,5.65,11.7,9.75,15.73,6.41,12.21-10.1,27.78-11.69,41.56-17.69,4.94-2.16,4.88-5.95,4.19-9.75-1.75-9.64-6.39-17.93-13.08-25.07-.69-.74-1.64-2.18-2.12-2.05-8.64,2.42-14.64-4.56-21.94-5.92-8.84-1.65-18.23-.39-27.38-.39-3.68,6.05-9.41,6.4-15.75,6.4-2.42,0-5.1,2.5-7.21,4.37C450.22,161.87,446.77,165.63,442.83,169.56Zm584.91,576.65c1.64-7.53-5-12.84-5.63-19-1-10.06-15.27-11.24-13-22.48.23-1.13-2.59-2.88-4-4.32s-2.9-4.15-4.33-4.13c-8.28.08-11.22-8.58-17.12-10.57-11.83-4-18.75-18.29-33.43-15.57-7.49-10-13.43-5.07-19.13,2-2.65,3.28-6.31,3.94-10.09,5.3-4.09,1.47-7.07,6.52-10,10.44-.77,1.05.23,3.79,1,5.52,1.16,2.66,2.53,2.26,4.31-.28,4.37-6.24,12.55-5.73,16.14-2.85,5.38,4.33,10.66,4.12,16.36,5.52a44.49,44.49,0,0,1,17.47,9.27c8.53,7.25,15.83,15.94,24.06,23.58,7.32,6.79,8.24,18,17.1,23.77,1.77,1.16,1.2,5.49,2.4,8,1.55,3.27,7.4,3.79,10.34.95C1024.43,757.27,1030,753.6,1027.74,746.21ZM590.82,257.74q-4.59-8.84-9.13-17.6c-7.08,2.53-9.43-6.78-15.71-6.26-1,.08-2.59-.28-2.9.2-4.66,7.41-12,5.77-18.93,6.07-2.74.12-6.52.69-7.94,2.52-7.47,9.63-20.4,11.63-28.11,21.17-4,4.9.51,5.91,1.17,8.91,1.48,6.7,1.22,13.81,1.53,20.76.33,7.31,3.62,10.21,12,7.83,7.28-2.08,13.29-8.54,21.94-6,.47.14,1.27-1.62,2.14-2,7.76-3.39,15.26-7.51,22.71-11.3,7.75-4,13.32-12.28,19.6-18.93C590.32,261.84,590.3,259.51,590.82,257.74ZM486.2,390.31c0,5.26-1.11,9,.25,11.22a35.36,35.36,0,0,0,10,10.52c1.41,1,5.2-1.38,7.82-2.44.87-.35,1.38-1.88,2.2-2,11.68-2.07,23-3.7,33.72,4.52,5,3.87,12.52,4.41,18,7.92,5,3.23,8.79,8.4,13.11,12.72,5,5,9.8,10.41,15.27,14.93,1.75,1.45,6.23,1.8,7.89.56,1.81-1.36,3.37-6.31,2.34-7.7-9.74-13.16-13.19-30.28-27.35-40.83-8.89-6.61-16.55-15.13-23.79-23.63-8-9.41-17.36-7.42-27.15-5.2-4,6.81-12.08,2.09-16.08,5-4.87,3.57-10.8,4.39-15,8.07C485.66,385.43,486.31,389.56,486.2,390.31Zm98.6,459.78c-1.67-5.42-7.85-13.63-7.52-23.58-6.72-3.94-6.1-10.94-4.58-16.28,2.43-8.54-8.52-11-6.74-19.08,1.28-5.85.43-12.22.16-18.35-.12-2.83-1.14-5.63-1.76-8.44-2.89,2.07-7.51,3.6-8.35,6.31-2.48,8-7.61,13.56-13.27,19.12-2.77,2.73-6.39,5.85-7,9.27-1.78,9.67-8.19,12.51-16.49,14.33-3.14.69-3.09,9.88-.13,10.05,8.1.46,12.08,6.36,16.94,11.12,11,10.74,21.65,21.74,32.68,32.4,1.13,1.08,3.94,1.13,5.72.67C578.54,866.58,584.53,858.24,584.8,850.09Zm166.75,208.43c21.29,0,21.29,0,31.9-11.09,5.91-6.18,6-20.83.14-26.9-4.24-4.36-8.67-8.54-12.87-12.93-9.73-10.13-18.85-21.31-35.59-17.25-1,.25-2.88-2.59-4.23-4.1-1.51-1.69-3.6-1.53-4.14,1.16-.79,3.86-2.17,9.85-.24,11.63,7,6.49,5.74,14.34,5.82,22.12.1,10.14,0,20.27,0,30.41,0,5.31,1.63,6.85,7,6.93C743.44,1058.57,747.49,1058.52,751.55,1058.52Zm-13.4-910c5.29-.4,10-.12,13.93-4.89,4.53-5.49,10.06-10.15,15-15.3,3.13-3.24,3.23-13.39,0-16.55-7-6.86-15.4-12.16-25.16-13a164.72,164.72,0,0,0-33.67.13c-6.25.74-12.17,5-18,8.15-1,.57-1.66,4.38-.85,5.44,3.65,4.75,7.08,11.12,12.09,13.09,10.78,4.25,17.36,12.84,25.65,19.74C729.88,147.52,734.45,147.5,738.15,148.51Zm265,711.42c0-2,0-4.07,0-6.1-.11-10.62-.11-10.64-9.39-10.7-6.1,0-12.22.34-18.29-.08-10.9-.76-22.49,3.1-32.59-2.13-9.2-4.77-19.16-8.23-27.52-14.67a8.06,8.06,0,0,0-5.39-1.43c-1.74.21-4.61,1.51-4.76,2.64-.92,6.73,1,14.31-6.6,18.66,5.79,3.78,6.77,9.36,6.13,15.72a33.5,33.5,0,0,0,.25,9.06c.14.77,3.19,2,4,1.51,5.78-3.31,10.94-8.7,17.07-10.17,7.68-1.84,16.1-.59,24.2-.64,5.08,0,10.25.58,15.22-.15,8-1.17,13.69,2.19,17.94,8.27,3.61,5.16,8.64,3.93,13.56,4.26,3.89.27,5.59-1.74,6-4.92C1003.47,866.07,1003.14,863,1003.14,859.93ZM301.46,227.72c-1.73.75-4.93,1.44-5,2.26-.58,14.15-.8,28.31-1,42.48A5.66,5.66,0,0,0,296.6,275c3.2,5.32,24.62,23,32.14,25.76,2.34.86,6.73.6,8-.94,3.84-4.68,8.55-4.26,13.61-4.55,5.74-.33,9.2-6.53,5.62-9.88A59.77,59.77,0,0,1,341,264c-1.42-3.49-2.26-7.43-4.45-10.35a54,54,0,0,0-10.78-10.78c-2.92-2.19-7.3-2.42-10.24-4.59-4.05-3-7.29-7.07-11-10.51C303.91,227.29,302.49,227.73,301.46,227.72ZM209.28,946.79c0,3.18-1.32,7.69.21,9.08,9.24,8.42,13.73,23.58,29.86,22.55,6.5-.42,8.57,8.07,15.91,6.5,6.05-1.28,23.81-9.39,27.23-15.38,1.08-1.89-.53-7.77-1.15-7.81-8.42-.49-9.63-7.24-12.94-12.79-1.55-2.6-7.64-2.18-9.95-4.7-5.83-6.37-11.76-10.94-21-8.86-4.17.93-7.71-.33-10.68-3.86-3.13-3.73-6.83-3.4-10.42-.1C211.77,935.61,207.51,939.86,209.28,946.79ZM597,772.36c0,8.18.36,16.38-.1,24.54-.51,9.13,10.32,15.08,6.74,25-.1.3,3.08,2.55,4.76,2.58,4.84.11,10,1.54,13.9-3.47a35,35,0,0,1,8.74-8.49c2.21-1.4,6.31,1.12,8.11-2.43,2.06-4,.85-7.42-2.49-10.51-6-5.58,1-16.54-8.53-21.24-1.26-.62-.34-5.75-.35-8.8,0-6.13,0-12.27,0-18.41-.05-5.07-1.6-6.42-7.55-6.49-6.14-.07-12.29-.3-18.4.1-3.19.21-5.07,2.24-4.9,6.1C597.21,758,597,765.2,597,772.36ZM262.4,1027.75c-4.6,0-8.74.5-12.7-.12-5.94-.93-9.38,2.35-12.67,6.24-3.16,3.73-6.2,7.56-9.29,11.35,4.71,9.17-6.67,13.57-6.36,21.79.3,7.93,5.54,15,13.81,16.12,7.95,1,10-.67,11-9,1.08-9.15,6.65-15.46,14.16-15.54,12.16-.15,24.33.07,36.49-.18a6.29,6.29,0,0,0,4.55-3.1c.8-1.64,1-4.59.05-5.89-5.79-7.78-16.72-14.7-25.15-19.7C271.2,1026.66,266.54,1029,262.4,1027.75Zm246.87,18.46c-8.14,0-16.29-.17-24.42.14-1.64.06-4.37,1.77-4.56,3-.4,2.73-1.42,6,1.89,8.27s6.05,6.33,9.36,6.67c6.07.62,10.44,4.91,11.42,8.51,2.18,8,5.34,11.72,14,10.45,5-.74,12.3,2,14.82-.56,5.88-5.94,12.31-5.24,19.16-6.19,3.3-.45,5.13-5,9.67-6.12,4.31-1,8.31-5.18,11.34-8.86,1.12-1.35-.56-7.54-1.56-7.7-6.87-1.06-13.89-1.14-20.86-1.47-7.78-.36-12.67-9.26-22-6.47C521.9,1047.58,515.38,1046.21,509.27,1046.21Zm75-15a9.51,9.51,0,0,0-1.38-2.13c-7.14-6.58-12.26-16.85-24.78-13.65-5.73-3.31-12.13-5.85-17-10.11-5.71-5-14.45,1.64-19-6.09-.76-1.3-3.31-2.13-5.05-2.16-10.15-.2-20.31-.35-30.44,0-6.83.22-10.21,5.6-12.42,11-.71,1.73,1.72,6.81,3.2,7,5.95.86,13.72-1.86,17.76,1,5.33,3.81,10,5,16.15,5.71,11.41,1.24,24.33-5.27,34,5.92,6.09,0,12.37,1,18.22-.25,7.23-1.49,9.29,7.5,15.76,6.4a9.29,9.29,0,0,0,2.8-.58A11.35,11.35,0,0,0,584.27,1031.22ZM412.32,292.38c1.31-11.82-4.24-21.16-11-29.19-8.5-10.05-18.48-18.86-27.83-28.2l-10.33-20.12c2.35-12.83-9.78-16.39-15.62-23.93-.76-1-4.71-1-5.78,0-3.68,3.5-7,6.92-12.74,6.51-.82-.06-2.85,3.26-2.57,4.66.51,2.52,1.89,6.35,3.71,6.88,12.52,3.65,23.9,9.58,31,20.39C364.72,235,366.3,242,372.24,246c6.91,4.67,8.2,13.27,13.19,18.8,5.77,6.38,10,12,8.63,21.07a65.18,65.18,0,0,0,.07,18.24c.44,3.15,3.37,3.71,5.95.63,1.17-1.4,3.17-3.07,4.73-3C412.12,302,413,297.74,412.32,292.38ZM387.74,460.73c0,2,0,4.09,0,6.13.12,5.81,6.16,10,9.52,6.14,4.34-5,11-4.06,15.16-8.34,12.18-12.39,24.61-24.53,36.68-37,1-1.06.78-4.25,0-5.89a6.54,6.54,0,0,0-4.61-3.1c-5.08-.4-10.24.22-15.31-.24-5.55-.51-9.7,1.19-13.09,5.55-6.19,7.94-17.83,8.34-23.62,17.23-2.18,3.33-5.42,5.69-4.8,10.35C388.06,454.56,387.74,457.66,387.74,460.73Zm147.7,261.83c-7.84,7.21-19.45,7.64-26.06,14.61-5.29,5.57-10.72,8.39-18.47,7.67-3.53-.32-7.06,6.79-4.44,8.91,5.53,4.47,5.75,9.83,6.09,16.09.43,7.83-2.71,16.12,2.44,24.49,6.75-6.75,12.57-13.7,19.52-19.22,8.09-6.42,8.88-17.61,17.08-23.81,2-1.52,3.48-4.89,3.67-7.51C535.77,736.74,535.44,729.64,535.44,722.56ZM769.28,587.73C779,596.86,779,596.88,787,597c5.12,0,11.75,2,15-.43,6.14-4.58,12-6.44,19.31-6.07,1,0,3.89-5.8,3-7.16-5-8.18-9.86-16.34-12-25.82-9.26-6.07-3.24-19.32-12.17-25.84-1.84-1.35-1.83-5.25-2.68-8-5.1,1.79-3.47,6.15-3.58,9.72-.33,10.14-.51,20.3-.74,30.45Zm94.9-101.21c-6.64-1.2-8.31,3.45-11.59,5.4-2.37,1.4-7.12.8-7.88,2.44-1.56,3.39-2.62,8.3-1.28,11.47,3,7,10.6,13.19,10.71,19.8.15,9.56,6.75,16,7.71,24.76.36,3.3,3.23,2.81,6.11.53s7.3-2.45,10.23-4.64c4-3,7.17-7.26,11-10.63,2.83-2.49,2.64-4.24-.05-6.61a116.13,116.13,0,0,1-8.65-8.68c-.54-.59,0-2.06-.48-2.83-4.34-7.37-6.36-16-12.19-22.58-.51-.57.29-2.18-.14-3C866.47,489.74,864.93,487.67,864.18,486.52ZM387.74,649.28c0-2-.17-4.06,0-6.06,1.1-11-1.58-19-14-22-4.24-1-7.61-6-11.14-9.45-3.37-3.26-7-3.95-10.31-.74S342,618,345,622.72c7.17,11.14,9.13,25.35,19.77,34.24,5.89,4.91,10,15.78,18.25,13.21C392.49,667.24,385.67,656.34,387.74,649.28ZM402.5,824.67c-11.16,0-16.24-.12-21.32,0-4,.13-11.11,7-11.82,11.76-.77,5.28,2.8,5.89,7.15,7,3.44.86,6.16,4.56,9.26,6.93,2.3,1.75,4.66,4.77,7,4.83,11.74.28,24.26,2.87,32.6-9.53,2.78-4.13,7.14-7.19,10.49-11,.28-.33-1.41-3.53-2.47-3.7-5.66-.93-11,.27-16.8-4.13C411.9,823.29,403.35,824.76,402.5,824.67ZM959.43,923c.14,0,4,0,5.36-1.85,3.8-5,8.68-4.44,13.6-4.06,3.77.3,5.62-1.59,6.17-4.73.31-1.76,0-4.25-1-5.52-3.26-3.84-7.69-6.81-10.47-10.92-4.87-7.23-13.94.1-18.84-6.18-1-1.23-2.8-1.78-4.23-2.65-3.8,6.4-10.14,4.76-16,5.51-4.85.62-11.15,8.94-10.85,12.59.32,4,6.79,11.36,11.8,11.6,6.2.31,11.85.25,15.91,6.08C951.51,923.77,954.66,923,959.43,923Zm-338.69-.27c-2.19,1.5-4.46,2.21-5.19,3.68-4.83,9.77,7.25,15.48,6.2,24.63a12.19,12.19,0,0,0,2.17,8c3.05,4,7.22,7,10.48,10.86s7.7,3.14,11.05,2.2a73.65,73.65,0,0,0,17.77-8c1.33-.8,1.75-6.32.46-7.75-7.42-8.22-14.95-16.52-23.51-23.48C634.51,928.29,627.06,925.91,620.74,922.69ZM455.59,1095.44c7.11,0,14.38.89,21.25-.39,3.3-.61,6.25-5,8.38-8.39.48-.75-2.84-4.39-4.86-6.2-7.92-7.08-19.29-7.48-27.61-14.63-3.65-3.13-11.1-2.92-16.28,2.21-4,4-6.79,10.42-14.56,9.29-.77-.11-2.8,4.56-3.18,7.17-.2,1.43,2,4.66,2.83,4.56,8.29-1,13.08,8.92,21.89,6.55C447.24,1094.59,451.53,1095.44,455.59,1095.44Zm510.5-276.93c2,0,4,0,6.07,0,5,0,6.42-1.82,6.37-7.58-.07-9.3-8.95-21.67-19.27-22.76-9.19-1-15.42-7.08-23.54-9.45-2.67-.78-5.09-2.71-7.77-3.07-1.44-.2-4.61,1.94-4.54,2.81.41,4.78-2.47,10.09,1.73,14.35,5.69,5.76,10.55,13.21,17.41,16.69C949.85,813.21,956.33,820.78,966.09,818.51ZM621.59,575.59c0-3,.49-6.15-.1-9.05a39.76,39.76,0,0,0-8.58-17.39c-5.31-6.1-9.43,4.46-14.72,4.53-6.13.08-8.48,4.67-11.86,8-3,2.91-5.73,5.21-10.28,4.75-.85-.08-2.09,2.29-2.82,3.7-.14.28,1.32,2,2,2,4.15-.1,7.44.93,10.45,4.22,6.11,6.7,12.64,13,19.24,19.24,1.2,1.12,4.22,2,5.29,1.27,4-2.65,8.69-5.37,11-9.31C623,584.49,621.59,579.62,621.59,575.59ZM494.27,117c-12.26,0-24.52.11-36.78,0-8-.1-12.72,9.78-22.13,6.65-2-.66-6.09,4.4-8.95,7.1q-6.71,6.3-12.9,13.1c-.31.35,1.27,2.8,2.36,3.87.52.51,2.05.35,3,0a15.71,15.71,0,0,0,5.11-2.4c5.17-4.42,8.86-11.08,17-10.76,4.08-8.48,14.22-2,18.46-6.75,6.11-6.8,13.05-4.19,19.74-4.53,9.17-.47,18.38-.23,27.57,0,2.88,0,7.28-.11,8.35,1.54,5.67,8.77,19-.12,23.37,10.63,4.07,0,8.16.15,12.22,0,.77,0,1.66-1.18,2.15-2a2.27,2.27,0,0,0-.12-2.09C548.21,125.9,531.07,117,524.92,117,514.7,116.89,504.49,117,494.27,117ZM223.65,769.66c4.88-.57,10.2-.1,14.53-1.95,6-2.58,11.42-6.81,17-10.51,2.77-1.85,3.13-3.75.4-6.57-1.81-1.86-2.08-5.15-3.21-7.73-1.62-3.72-6.73-6.29-9.33-4-3.85,3.44-7.14,6.4-12.94,5.88-7.06-.62-14.24.25-21.29-.36-2.52-.22-4.7-3.19-7.29-4.3-1.06-.45-3,.51-4.18,1.28-.5.32-.19,1.86-.34,2.83-.78,5,5.48,6.36,5.88,9.67C204.41,766.89,212.3,770.11,223.65,769.66Zm779.49,193c0-3,.15-6.09,0-9.13-.34-5.43-8.52-11.83-14.7-12a15.3,15.3,0,0,0-10.77,3.65c-6,4.69-13,5-18.41-1.51-2-2.4-3-2.81-4.38.08-.41.84-1.1,1.93-.86,2.63a33.39,33.39,0,0,0,3.32,7.72c2.9,4.34,8.15,4.74,12.24,6.93,6,3.21,10.5,9.39,15.25,14.65,4.17,4.61,9.46,3.07,14.06,2.59,5.24-.55,4.35-5.58,4.29-9.48C1003.11,966.76,1003.14,964.73,1003.14,962.7ZM289.28,692.9c0-10.19,0-20.39-.07-30.59,0-.79-1.09-2.28-1.57-2.24a7.91,7.91,0,0,0-4.28,1.4c-3.84,3.26-7,6.52-6.59,12.62a325,325,0,0,1,0,33.62c-.1,2.52-3,4.81-4,7.44s-2.41,7.32-1.47,8c7,4.83,5.13,15.25,12.73,19.43.86.47,1.36,1.82,2.2,2,2.19.51,10.79-12.86,9.06-14.28-7.43-6.11-5.86-14.27-6-22.09C289.2,703.1,289.28,698,289.28,692.9Zm684.19-176c5,.72,9.31-.3,13.16-4.7,3.59-4.12,4.15-5.43-.17-8.79-2.28-1.78-4.74-4.57-7.19-4.65-6.25-.2-12.21,0-16-6.23-7.06,2.37-9.53-6.27-15.81-6.48-6.89-.23-8.92-7.66-14-10.75-.78-.48-4.11,1.28-4,1.65.78,4.82-2.5,10.17,2,14.52,5.87,5.72,10.72,13.27,17.65,16.9C956.42,512.21,963.43,519.08,973.47,516.9ZM804.31,858c6.41,5.89,11.35,10.83,16.71,15.25,6.21,5.12,9.11,12.17,13,18.86,6.6,11.35,21.79,12.94,29.56,23.55.22.29,4-1.17,3.94-1.67-.39-5.68,2.07-11.53-3.74-16.65a303.53,303.53,0,0,1-27.84-27.84c-6.05-6.92-15.31-7.88-21.79-13.78C813,854.64,809,856.79,804.31,858Zm-113-524.53c-1.62,1.61-3.34,4.47-4.42,4.25-9.5-2-16,5.85-24.48,7.15-2.77.43-4.69,3-1.08,5.74,1.58,1.23,2.63,3.42,4.35,4.15,8.63,3.69,17.14,7.59,25,12.82.8.53,1.51,1.58,2.32,1.65,1.95.15,4.2.43,5.86-.35,9.45-4.41,12.06-17.42,5.12-24.9-2.74-3-5.6-5.83-8.59-8.53C694.23,334.43,692.59,334.05,691.28,333.43ZM190.81,303.1c0,2-.41,4.19.13,6.07.49,1.72,1.9,4.38,3.12,4.5,5,.51,10.32-.58,15.19.45,4.47.95,8.5,3.94,12.79,5.86.78.34,2.49.21,2.8-.3.76-1.23,1.59-3.9,1.28-4.08-9-5.29.24-18.83-10.54-23.42-.74-.32-.5-3.91-.08-5.84,1.33-6.08-3.05-9-6.33-12.73-3-3.47-4.79-1.36-6.53.82C195.65,283.15,190.91,294.85,190.81,303.1ZM720.06,541.89c0-3,1.27-7.59-.23-8.86-6.29-5.3-7.06-11.95-5.8-19,1.4-7.76-4.3-11.22-8.75-14.53-5.06-3.75-8.94.94-12.43,4.53-.55.57-1.83.62-2.76.57-5-.27-7.34,2.09-6.94,7,.32,3.8-.25,7.33,2.44,11.21,7.67,11.06,22.51,12.47,30,23.41a3,3,0,0,0,2,.67C718.54,545.33,719.28,543.6,720.06,541.89ZM307.47,175.74c-1.91-2.11-3.84-4.18-5.7-6.3-5.49-6.26-11.09-11.95-20.74-9.52-2.89.73-6.12,0-9.19.14-7.48.38-13.25,7.66-13.33,16.65-.06,6.15,1.25,7.9,6.16,7.93,9.22.05,18.5-.57,27.66.19C299.93,185.47,302.73,179.7,307.47,175.74Zm640.84,850.79-1.28.91c1.51,2.39,2.59,5.27,4.62,7.08,3.85,3.43,2.11,7.64,2.13,11.43,0,5.77,3.41,6.46,7.82,6.42,6.48,0,15.75-5.51,16.92-10,2.3-8.78-1.24-21.37-7.07-24.72-1.63-.93-3.47-2-5.24-2.1q-10.76-.36-21.51.09c-.67,0-2.13,3.18-1.67,4.06C944.36,1022.2,946.49,1024.28,948.31,1026.53ZM604.84,689.28c2.12,0,4.17.11,6.2,0,3.6-.24,6.15-5.88,4.06-9.47-3.85-6.6-8.24-12.89-11.89-19.59-3.33-6.09-7.18-8.87-12.38-7.87-8.58,1.66-16.82,14.56-12.1,20.5C585.33,681.11,591.1,692,604.84,689.28Zm69.84,171.78c-9.6,8.59-16.3,18.82-28.4,22.31-.54.15-.87,5,.07,5.6,3.8,2.62,8.11,4.5,12.28,6.56,9.7,4.8,13.67,4.31,20.7-2.45,1.45-1.4,2.86-2.84,4.27-4.27,7.8-7.94,7.81-9.29.77-16.79C681,868.43,677.83,864.63,674.68,861.06Zm39.49,86.69c-7.09,0-14.22-.41-21.23.33-1.45.15-4,5.09-3.37,6.86,2,5.54,5.49,10.89,12.2,11.15,11.12.43,22.28.25,33.41-.08,1.15,0,2.7-2.69,3.21-4.39s.15-4,.12-6c0-4.15-.12-8.12-6.11-7.9S720.25,947.75,714.17,947.75ZM370.33,326.19H348.61c-1,0-2.17-.31-3,.05-6.08,2.58-12.21,5.08-18,8.14-1.09.57-1.78,3.94-1.16,5.35,1.53,3.46,5,6.32,5.72,9.83.94,4.33,1.34,7.57,6.86,7.48,5.08-.08,10.1.48,13.45-4.64,1.09-1.68,4.18-3,4.06-4.35C355.54,338.19,365.4,335.64,370.33,326.19ZM726.64,910.83c1.68-.8,4.7-1.43,4.83-2.45.68-5.08,4.13-8.56,6.06-12.72,2-4.32,2.84-9,6.84-12.3,2.32-1.92,6.52-5.18,6.07-6.22-1.86-4.39-6.59-3-10.45-3.29-4.74-.38-10.18,1.92-13.82-3.11-2.47-3.4-4.25-1.78-6.49.36-3.23,3.1-3.3,3.31-.92,10.77,1.8,5.65,2.58,11-1.4,16.57C714.06,903.1,720.31,910.77,726.64,910.83ZM371.56,1026.78c.56-.07,1.52.11,2-.28,10.34-9,17.86-21.48,32-26,.76-.24,1.08-3.85.54-5.56s-2.23-3.59-3.73-3.91c-2.92-.61-6.34-1-9,0-3.51,1.25-6.29,5-9.78,5.7-4.87,1-10.12.09-15.2.31-4.39.18-3.95,2.92-5.54,8.69-2.38,8.61,10.11,10.78,6.65,19C369.25,1025,370.75,1026,371.56,1026.78ZM720.84,713.41c-2.76,1.26-5.92,2-6,2.85-.27,4.8-1.1,10.26.79,14.31,2.79,6,20,13.61,27.73,14.1,5.29.33,7.65-1.47,7.37-6.66-.21-3.84.38-7.42-2.17-11.45-4.3-6.77-12.59-5.21-17.57-10.43C728.78,713.78,723.73,714.1,720.84,713.41ZM886.41,264.6c11.14.3,12.28-1.93,12.42-10,.13-7.69-7.25-11-8.05-18.44-.53-4.94-9-1.13-13.69-2.34-.85-.21-1.53-1.28-2.2-2-3.74-4.27-8.54-7-12.4-1.47-3.63,5.18,1.59,8.76,4.84,12.53,5,5.85,13.64,9.17,13.4,19.06C880.7,263,885.53,264.2,886.41,264.6Zm-248.6.88c-5.81,5.33-11.35,9.81-16,15.11-1,1.16.78,7.2,2.15,7.55,4.72,1.21,10,.19,14.74,1.31,5.41,1.27,10.34,4.78,15.76,5.71,4.66.81,9.81-.19,14.54-1.27,2.28-.52,1.49-2.18-7.19-10.57-3.57-3.45-7-5.8-12.42-7C644.65,275.27,641.08,268.76,637.81,265.48ZM627,393.38c12.51,1.95,18.4-10.25,28.4-5.65,1-2.65,2.58-5.24,2.85-8,.13-1.32-2-4-3.39-4.16-10.58-1.38-22.3,3.3-31.32-6.26-.48-.51-2-.17-3,0-3.9.47-11,8.34-11.28,12.55-.07,1-.25,2.63.22,2.9,4.13,2.34,8.36,4.52,12.63,6.59C624.71,392.56,627.39,393.52,627,393.38ZM925.69,610.11c7.23,4.77,14.79-5.61,24.3-7.28,1.66-.3,3.47-4.4,3.71-6.89.32-3.27-2-4.87-5.65-5.33-2.63-.33-5-2.65-7.54-3.92-1.69-.83-4-2.39-5.24-1.86-8.94,3.72-18,7.44-24.43,15.22-1,1.23.82,8.12,2.16,8.31C915.93,608.79,918.87,609.17,925.69,610.11ZM541.84,960.05c-5.13,0-10.28-.29-15.36.21-1.25.13-3.3,3-3.12,4.38.33,2.66,2.11,7.41,3.09,7.36,7.35-.36,14,.42,19,6.52,7.44-1.4,13.33,1.58,19.18,5.87,1.24.9,5.5-1.29,7.57-3,1-.84,1-4.57,0-5.81-3.2-4-7.3-7.2-10.65-11.06-2.88-3.32-6-5.11-10.5-4.53C548,960.37,544.91,960.05,541.84,960.05ZM529.28,595.47c0-8.48,1.32-14.09-.38-18.54-1.6-4.21-5.82-9.06-9.88-10.28-5.5-1.64-12-.49-18,.3-2.8.37-2.69,2.46-.74,4.2,5.88,5.26,5.06,14.61,12.81,19.39,5.56,3.42,11.24,8.5,11.09,16.64a2.84,2.84,0,0,0,2,1.88,3,3,0,0,0,2.1-2C528.89,602.08,529.16,597.09,529.28,595.47ZM705.5,824.67c.81-.08,6.8-.45,12.69-1.48.89-.16,2.11-3.58,1.72-5.13-2.14-8.47-10.42-11.89-15.65-17.87-.85-1-4.62-.86-5.78.17a176,176,0,0,0-15.2,15.21c-1,1.15-.78,4.28,0,5.92a6.78,6.78,0,0,0,4.7,3C692.07,825,696.2,824.67,705.5,824.67ZM523.14,926.22l-21.35-21.35c-5,4.58-11.17,8.22-9.65,16.85.4,2.32-1.29,5.73-3.1,7.57-5.06,5.12,1.23,6.13,2.86,8.58,1.39,2.09,2.73,3.68,6.46,1.23C506.11,934,514.82,930.43,523.14,926.22Zm309,46.14v-.6c6.94,0,13.87.06,20.81-.1.72,0,1.72-1.22,2-2.07.17-.49-.73-1.49-1.33-2.07-12.13-11.79-27.65-16.29-45.15-12.69-2.92.6-2.74,2.55-.34,4.2,1.61,1.11,4.06,2.86,4,4.23-.27,5.91,1,9.67,8,9.15C824.11,972.12,828.14,972.36,832.16,972.36ZM701.63,458.74c.33-6.23.22-6.06-6.92-9.53-3.44-1.67-6.38-4.39-9.86-5.93-1.49-.66-4.67-.26-5.54.86-3.45,4.43-2.78,11.22-8.12,14.73,6.1,3.07,4.31,10.87,8.81,14.7,1.21,1,4.2.9,5.9.19,3.51-1.49,4.69-6.57,9.81-6.11C701.74,468.2,701.53,463.63,701.63,458.74Zm-.49,581.32c1,0,2.5.43,3-.07,3.37-3.54,7.46-6.82,9.51-11.06s-4-6.57-4.94-9.9c-1.32-4.95-2.72-9.17-6.73-12.6-2.45-2.1-4.2-3.54-6.57-.2-2.22,3.12-5.9,4.75-6.33,9.68-.85,9.71,7.19,15.51,9.26,23.81C698.41,1040.05,700.17,1040,701.14,1040.06ZM197,1027.75c8.95-2.06,15.59-13.26,12.28-20.76-.38-.87-1-2.25-1.62-2.32-8.79-.94-13.48-7.75-19.31-13-.18-.16-3.22,1.75-3.53,3-2.77,11.36,8.84,19.56,7.16,30.89C191.89,1026.07,195.22,1027,197,1027.75ZM878.52,160a43.81,43.81,0,0,0,7.62-3.24c1.88-1.12-2.85-9.29-6.09-12.34-4.26-4-10.41-3.44-14.92-7.91-4.67-4.63-10,.11-9.69,8.27.23,6.14,6.21,14.52,11.15,15.15C869.53,160.34,872.56,160,878.52,160Zm15.09,874.36c-.44,3.09-.77,5.9-1.26,8.69-1.54,8.79,1,15.79,8.54,21,2.47,1.71,4,5.17,6.63,6.14,2.27.84,5.67-.21,8.08-1.42,1.08-.55,1.95-4.15,1.23-5.26C910.2,1053.36,907,1040.47,893.61,1034.4ZM535.44,668v-9c0-1,.39-2.61-.07-2.9-2.23-1.46-4.58-3.1-7.1-3.57-1.4-.27-4.47,1.46-4.6,2.57-.61,4.89.33,10.06-.76,14.8-1,4.39-4.34,8.2-5.77,12.56-.89,2.71-.53,6,0,8.92.24,1.33,2.24,2.33,3.44,3.48C527.53,687.05,538.75,681.57,535.44,668Zm160-443.39c7,7,13.85,14.32,21.31,20.88,1.34,1.19,5.53-.1,7.94-1.23,1.09-.51,2-4.09,1.36-5.16-4.66-7.17-6-16.34-13.32-21.93-3.09-2.34-6.62-2.56-10.42.64C700,219.8,698,222.11,695.44,224.65ZM972.37,468.37c0-1,.44-2.43-.07-2.95-9-9.4-17.92-18.87-27.38-27.79-1.25-1.18-6.2-.37-7.73,1.2s-2.16,6.25-.94,7.75c4.41,5.42,9.13,13.07,14.91,14.27,8,1.68,11.34,7.33,16.48,11.5,1.73,1.4,3,1.4,4.28-1.15A9.53,9.53,0,0,0,972.37,468.37ZM424.67,980.73a46.1,46.1,0,0,0,0,6.11c.48,3.49,7.25,5.89,9.73,3.37,7.09-7.2,14.13-14.46,20.85-22,.87-1,.11-3.92-.58-5.68-1.11-2.83-2.74-2.88-4.25-.6-2.49,3.77-6.25,3.94-10.38,4.65-3.37.58-4.69,6.21-9.76,5.88C424.39,972.07,424.67,976.66,424.67,980.73ZM943.13,738.51c.9-.11,4.85-.5,8.76-1.16.71-.12,1.24-1.36,1.85-2.09-6.62-4.44-9.37-13.64-18.3-15.13-3-.5-6.73-1.14-9.07.17-3.44,1.92-5.94,5.54-8.84,8.43,3.41,3.26,6.33,7.56,10.38,9.46C931.27,739.76,936,738.51,943.13,738.51ZM664.8,249.4c7.14,7.14,13.77,14.92,21.72,21,2.36,1.81,7.6.86,10,4.62,1.55,2.39,3.1,2.4,4.23-.44.68-1.74,1.47-4.38.67-5.63-7.62-11.86-18.87-18.88-32.23-22.59C668.11,246.07,666.29,248.33,664.8,249.4ZM311,997.18A10.22,10.22,0,0,0,308.9,999c-2.59,3.69-6.1,4.77-10.45,4.42-.47,0-2,3.57-1.62,4,7.15,6.94,14.44,13.76,22,20.25.88.76,3.65-.47,5.44-1.09.71-.25,1.13-1.36,1.69-2.07-7.68-4.33-4.69-12.26-6.66-18.55C318.22,1002.45,313.88,1000,311,997.18Zm335.25-831c-7,0-14.1-.15-21.12.18-1,0-2,2.37-2.57,3.81-.15.36,1.29,2,2,2,6.91.05,14.17-1.13,18.54,6.33,4.72-1,10.26,2.37,14.19-2.05,2.95-3.31,6.09-4.73,10.45-4.31.48.05,1.46-2.6,1.73-4.09.09-.47-1.35-1.76-2.11-1.78C660.35,166.13,653.31,166.19,646.27,166.19Zm-29.9-28.63c.09.72,0,1.59.33,2.11.55.76,1.44,1.8,2.2,1.82,6.06.15,12.12.08,18.17.08s12.36,1.05,18.12-.26c7.34-1.66,9.51,7,15.67,6.34,1.78-.19,3.5-1.28,5.14-2.15a2.39,2.39,0,0,0-.27-2c-3.81-2.85-5.62-8.26-11.78-8.16-15.14.24-30.29,0-45.43.17C617.8,135.52,617.09,136.85,616.37,137.56ZM785.53,738.75c-5.84,3.45-9.55,9-14.29,13.22-.72.64-1.75,1.37-1.86,2.17-.27,2-.91,4.75.09,5.79A45.91,45.91,0,0,0,780.56,769c1.44.76,5.18-1.5,7-3.27,1-1,.33-3.81.15-5.78C787.1,753.23,789.48,746.26,785.53,738.75ZM188,572.13c-3.85,3.29-5,7.34-2,10.54,8.15,8.85,16.87,17.18,25.55,25.52.29.28,2.74-1.31,3.8-2.4.51-.52.34-2,0-2.91-.58-1.75-1.07-3.78-2.28-5C204.83,589.17,196.37,580.67,188,572.13ZM583,338.5c-2,0-4.09-.4-5.94.12s-4.64,2.21-4.51,2.92c1.11,5.94-2.87,9-6.32,12.41.7.7,1.28,1.7,2.13,2.07a16.37,16.37,0,0,0,22.28-11.57c.32-1.47-.88-3.93-2.15-4.89S584.91,338.8,583,338.5Zm438.5,113.85c0-2.29.6-4.55-.18-6.13a6.24,6.24,0,0,0-4.51-3c-5.82-.19-13.51,7-13.71,12.28-.07,1.84,6.71,11.41,8.36,11.2,1.48-.18,3-1.33,4.18-2.38C1019.43,461.15,1023.15,457.83,1021.54,452.35ZM681.4,757c-1.48,1.1-4.1,2.08-4.23,3.33-.74,6.82-1.36,13.89,5.94,18.16,1.33.78,2.84,2,4.17,1.9,2.2-.2,8.26-9.14,8.16-11.29C695.19,763.83,686.83,756.62,681.4,757ZM961.27,553.58c-5.55.36-11.49.67-17.4,1.21a3.05,3.05,0,0,0-2,2.08c-.11.57,1,1.91,1.75,2,7.48,1.25,15,1.32,21.47,7,2,1.78,7.57,0,11.32-.91,1-.26,2-3.24,2-5s-1-4.75-2-4.94C971.54,554.15,966.59,554,961.27,553.58ZM867.75,836.8c0-3,.48-6.1-.21-8.92-.32-1.35-2.8-2.94-4.42-3.07-5.73-.48-13.14,6.22-13.7,12.35-.15,1.61,1,4.54,2.1,4.86,4.6,1.33,9.46,1.83,12.32,6.42,1.3-.89,3.53-1.61,3.73-2.71C868.1,842.84,867.75,839.79,867.75,836.8ZM756.91,806.24l6.06-3c-1.3-1.4-2.57-2.83-3.89-4.21-2.68-2.8-5.15-5.25-9.76-5.39-5.41-.17-4.61-5-4.84-8.86-.05-.81-2.48-1.7-3.94-2.09-.47-.12-1.83,1.22-1.95,2C736.67,798,742.93,806,756.91,806.24ZM841.83,451c-.74-.59-1.41-1.54-2.24-1.71-8.58-1.77-15.6.9-20,8.43-1.16,2-.65,5.5.2,7.92,1,3,7.06,2.86,10,0,4.26-4.12,8.42-8.34,12.53-12.61C842.56,452.81,842,451.74,841.83,451ZM412.93,941.59c5.73-1.3,9.1-5.84,11.66-11,1.11-2.26-7.52-14.22-9.29-13.21a6.47,6.47,0,0,0-2.81,4.59c-.24,5.81.89,11.9-5.23,15.78a15.54,15.54,0,0,0,2.33,3.78C410.08,942,411.48,941.59,412.93,941.59ZM295.43,619.86c0,5-.37,7.1.11,9s1.8,3.24,2.76,4.85a42.28,42.28,0,0,1,4.26-3.79c7.2-4.88,5.81-11.75,4-18.44-.29-1.08-3.22-2-4.93-2s-4.64.85-5,1.92A45.9,45.9,0,0,0,295.43,619.86ZM381.59,398c0-1.72,0-2.73,0-3.73-.22-6-.78-6.24-6.06-3.61-3.3,1.65-7.39,2.16-10.08,4.42-1.74,1.48-3,5.91-2.05,7.76,2.83,5.51,8.69,3.38,13.31,3.21C382.26,405.85,381.81,401.25,381.59,398ZM735.44,670.82c-1.45,1.45-2.92,2.87-4.34,4.35-5.44,5.63-5.46,7.53-.78,7.54,6.06,0,8.13,5.5,12.83,6.45a10.14,10.14,0,0,0,5.65-1c2.66-1.16,2.06-2.36-.24-4.36C743.94,679.73,739.79,675.16,735.44,670.82ZM455.23,347.93c-1.44-.8-3.56-2.83-5.89-3.11-4.61-.55-7,2.6-6.15,7.4.58,3.09,2.19,5.13,6,4.83C453.85,356.68,456.11,354.23,455.23,347.93ZM264.67,472.16c-1-1-2.62-3.63-4.79-4.23-4.67-1.3-7.24,1.39-7.61,6-.3,3.83,1.74,5.44,4.82,6C261.89,480.88,264.64,478.48,264.67,472.16Zm556.8,143.27c-2,0-4.26-.6-5.88.18a7,7,0,0,0-3.07,4.48,10.18,10.18,0,0,0,.88,5.51c1.17,2.91,2.57,2.73,4.2,0,2.31-3.79,6-4.56,10.21-4.31.52,0,1.44-2.57,1.7-4,.09-.49-1.28-1.67-2.08-1.78A43.82,43.82,0,0,0,821.47,615.43ZM253.1,680.05c-1-2.88-1.82-5.54-2.84-8.14a2.34,2.34,0,0,0-2,0c-2.92,3.31-2.92,12.94,0,16.25a2.3,2.3,0,0,0,2,0C251.28,685.59,252.13,682.92,253.1,680.05ZM579,707.13l-3.45-5.43c-.69.62-1.41,1.22-2.08,1.87a41.11,41.11,0,0,0-4.14,4.21,23,23,0,0,0-2,4.14c2.68.66,5.84,2.48,7.91,1.64S577.92,709.14,579,707.13Zm273.72,308.66c1.93-2.17,4-4.25,5.75-6.54a21.5,21.5,0,0,0,2-4.14c-2.69-.66-5.59-2.29-8-1.74-3.35.76-4.34,6.34-2.31,9.85A17.27,17.27,0,0,0,852.72,1015.79ZM357,886.25l5.12-2.13a26.66,26.66,0,0,0-2.25-4.15,41.11,41.11,0,0,0-4.15-4.2,23.81,23.81,0,0,0-2.08-1.64c-.94,1.57-2.53,3.08-2.72,4.74C350.46,883.16,351.73,886.55,357,886.25Zm80.44,6.52c-1.13-1.94-2.06-4.72-4-6.39-1.12-1-4.13-.84-5.69,0-3.32,1.7-2.57,4,0,6.16,1.52,1.25,2.79,2.78,4.22,4.14a23.81,23.81,0,0,0,2.08,1.64Zm24.62-567.33-3.57-5.4c-1,1.56-3,3.22-2.86,4.64.28,2.63,1.84,5.12,2.86,7.67C459.76,329.92,461,327.49,462.08,325.44ZM293.33,794.87c-.7,0-1.59-.16-2.07.19-3.08,2.3-3,8.41.14,10.12a2.35,2.35,0,0,0,2.05-.14C296.53,802.74,296.41,796.67,293.33,794.87ZM922.26,935c-1.26,1.31-4.33,3.38-4,4.38,1.06,3.32,7.59,3.29,9.88.21.36-.48.41-1.86.15-2C926.67,936.76,924.94,936.13,922.26,935ZM219.39,702.47l-4,2.19c.68.69,1.52,2,2,1.93a19.08,19.08,0,0,0,4.13-1.93Zm776.71-78.7-2.19-2.19a19.38,19.38,0,0,0-1.93,4.14c-.11.5,1.24,1.33,1.93,2Z"/></svg>