<svg id="Layer_1" data-name="Layer 1" xmlns="http://www.w3.org/2000/svg" viewBox="0 0 1200 1200"><title>BB_Artboard 60</title><path d="M771.38,873.55c-.27,7.25-7.66,9.51-11.28,14.9-7.13-1-9.77,5.22-13.79,8.95-3.6,3.34-8,5-11.88,7.46-5.27,3.36-12.24,4.3-16,10.14-3.42,5.35-9.17,8.33-11.73,15.22a22.5,22.5,0,0,1-15.92,13.87c-3.3.77-6.2,5-8.31,8.27-.75,1.17,1,5.75,2.25,6.09,7.67,2,15.76-2.15,23.76,3.46,6.82,4.79,16,1.26,24.18,1.85,4.13.31,8.94-1.1,12.26.59,3.51,1.79,6,4.87,10.72,4.6,8.32-.47,16.7-.13,25.05-.13,5.85,0,11.71-.31,17.53.07,7.79.51,14.68-.48,19.47-7.6,3.28-4.88,8.09-7.67,13.83-8.89,5.52-8.53,16.81-9.46,22.85-17.62,5.32-7.18,15-8.83,21.06-15.84,5.67-6.57,14.75-9.12,21-15.86,5.62-6,7.32-14,13.62-19.73C927.36,867.58,943.43,850.54,960,834c5.31-5.31,11-10.33,15.83-16,3.52-4.14,4.23-10,8.82-13.94,7.38-6.4,14.29-7.78,24-2.67,4.86,2.55,10.21,3.95,14.07,8.68,2.9,3.54,5.64,7.6,11.38,8.68,4.74.88,5.78,6.11,2.4,8.81-11,8.79-15.78,22.57-26.38,31.81-10,8.76-19,18.74-28.47,28.21-4.43,4.45-4.62,4.63.08,12,1.54,2.43,2,5,.91,6.76-1.69,2.77-4.6,4.78-6.9,7.2-5.51,5.81-12.6,10.46-14.18,19.18-6.84,3.88-7.77,11.93-12.31,17.48-4,4.9-9.35,8.2-11.85,15.14-2.27,6.33-9.29,11-14.25,16.36,5.17,4.5,11.2,1.79,16.76,2.08,8.33.43,17-1.28,25,.48,9.15,2,14.47-6.81,23.09-5.6,7.37,1,15,.65,22.5,0,2.81-.25,3.92-5.82,7.94-4.72,7.89,2.13,12.55-6.89,20.53-5.26s14.18-7.21,22.63-5.6c4-7.94,15.06-.65,18.89-8.86,9.44,1,16.16-5.22,23.93-8.77,7.17-3.27,17-1.85,25.38,1.92,4.28,1.92,8.51,5.55,12.42,6,12,1.4,10.27,13.27,16.23,19,1.34,1.29.1,4.71-2.21,6.36a19.67,19.67,0,0,0-1.79,1.75c-1.19,1.13-2.61,3.35-3.59,3.18-9-1.63-10.38,9.07-18.3,10.77-8.74,1.89-16.52,8.24-24.74,12.61-1.36.72-3.06,2.07-4.19,1.73-7.21-2.15-11.14,6.45-18,5.19-6-1.09-10.45,1.86-15.67,4.56-6.75,3.51-14.18,7.68-22.77,5.46-12.48-3.23-23.11,7.22-35.5,5-5.35,4.78-12.34,6.56-18.41,10-8.75,5-18.69,7.74-26.73,14.1-10.77,0-19,6.63-28,11-10.45,5-21,9.91-31.31,15.13-2.81,1.41-5.1,3.84-7.65,5.76-1.9,1.43-4.15,4.25-5.73,3.93-6.44-1.3-10.31,4.14-15.55,5-5.75,1-7.48,6.12-11.5,8.69-1.27.81-3,1.64-4.34,1.46-7.91-1-12.76,5.66-19.51,7.48-2.22.6-4.45,2.77-6.39,2.46-6-1-9.2,2.67-12.48,6.38-2.3,2.61-4.7,4.24-8.46,4-2.26-.18-5.72,0-6.72,1.45-5.91,8.27-17.53,9-22.87,17.62-3.7,6-11.61,5.12-15.81,10.51-3.56,4.57-7.46,9.74-12.42,12.21-11,5.49-20.84,14.62-34.59,13.31a53.41,53.41,0,0,0-12.51,0,11.06,11.06,0,0,1-12.83-8.82c-.89-4-6.32-6.61-4.27-9.75,6.89-10.54,9.59-24,21-31.43,8.08.67,11-6.39,15.57-10.71,9.11-8.59,17.79-17.64,26.68-26.52-1-4.66-4.68-2.91-7.43-3.08-3.33-.22-6.81-.63-10,.06-7.71,1.67-12.36-2.39-17-7.52-6.54-7.15-6.66-8-1.3-19,2.7-5.53,3.94-12,7.37-16.92a63.25,63.25,0,0,1,14.07-14.17c5.61-4.23,5-11.64,9.8-16.2,2.1-2-1.32-6.38-4.62-6.62-8.13-.58-17.32,2.93-24.16-1.87-7.23-5.09-14.37-1.72-21.37-3.09l-16.33-9c-3.21-2.88-6-8.91-10.64-1.53-5.73-6.1-13.22-4.33-20.27-4.62-.64,0-1.83-1.16-1.74-1.51.31-1.21.8-2.9,1.72-3.34,8.85-4.2,8.86-4.16,18.78-17.44.49-1.52-.63-.84-1.39.11a2.14,2.14,0,0,0,0,2.11,2.17,2.17,0,0,0,2.11,0,10.37,10.37,0,0,0,2.28-3c.1-.19-1-1-3,.72-4,2.3-7.8,1.25-8.76,2.47-6.72,8.51-18.11,10.73-24.84,19.23-4.12,5.21-9.26,9.63-14.13,14.2-1,1-3.19.65-4.31,1.56-10.43,8.44-22.46,14.1-34.35,20-3.47,1.72-6.89,4.49-10.48,4.74-4.61.31-5.63,5.26-10.4,5.67-5.17.44-9.24,5-15.49,5.13-4.84.13-10.32,3.89-14.14,7.49-4.71,4.44-12-1.21-15.56,5.1-1.55,2.74-4.31,1.94-6.69,1.94-45.12,0-90.24-.14-135.35.18-7.55.06-12.31-8.85-20.45-5.26-3.73-6.17-9.82-4.69-15.5-5-7.1-.37-12.43-6.17-20.53-5.45-6.51.58-12.62-5.91-20-5.51-2.61-4-6.58-4.31-10.87-4.1a8.14,8.14,0,0,1-4.44-1.27c-4.07-2.54-5.62-8.46-11.45-8.66-5-.17-7-7.25-12.79-5.46-4.68-4.32-9.08-8.39-15.4-11.19-6.13-2.71-13.87-4.85-17.68-11.84-3-5.45-9.15-6.07-13.9-8.8s-3.74-9.31-7.28-11.84c-3-2.11-7.35-2.19-10.18-5.58-3.2-3.83-7.08-7.09-10.51-10.74-1-1.1-2.18-2.65-2.24-4-.22-5.7-6.58-8.72-5.46-15.52,1-6.29-8.63-8.11-9.28-13.38-.71-5.83-1.22-11.09-5.42-15.42,2.29-7.86-2.82-12.29-7.75-16.85a55.57,55.57,0,0,1-7-7.17c-.82-1.08-.9-4.25-.21-4.68,5.36-3.3,3.75-10.68,8.58-14.1,1.92-1.36,3.87-3.55,5.92-3.7,6.65-.47,13.36,0,20-.25a5,5,0,0,1,5.47,3.59,242.47,242.47,0,0,0,18.59,37.39c2.46,4.09.11,8.23,1.76,11.83,1.28,2.78,4.62,4,4.88,8.06a34.7,34.7,0,0,0,10.89,23c6.32,6.18,12.86,12,16.31,20.8,1.68,4.27,6.3,9.14,10.47,10.17,4.45,1.1,7.22,3.12,10.2,5.89,3.58,3.32,7.1,8.81,11.06,9.19,7.83.75,8.78,9.44,15.8,10.78,5.15,1,11.16,3.18,14.43,6.9,5,5.75,14-1,17.43,6.82,4.86.36,9.87.12,14.55,1.24,4.44,1.06,7.36,6.54,13,4.86,1.5-.45,3.19-.42,4.56-1.08,2-.94,1.38-2-.44-3.56-3.76-3.3-6.66-7.82-10.81-10.38-6.88-4.22-7.09-12.45-11.95-17.9-1.49-1.69-1.16-5.84-3.8-8.35-2.84-2.69-1.15-7.78-5.3-10.4-2.6-1.63-5.54-4.62-6-7.35-.56-3.74-2.56-5.79-4.77-8.14-9.3-9.93-11.43-23.87-19.32-34.67-1.64-2.25-1.33-6.25-1.2-9.42.17-4.38-.86-7.69-4.2-10.9-6.41-6.18-10.62-13.88-10.82-23-.12-5.17-6.58-7-5.41-13,.85-4.42,1.63-9.44-3.16-13.71-3.92-3.49-.83-9.45-1.59-14.24-1.28-8-10.58-11.86-19.22-7.68-2.07,1-3.15,3.59-6.21,3.29-4.11-.41-8.28-.25-12.42-.33-3.51-6.42-10.39-3.34-15.22-5.57-3.56-1.65-5.82-5.91-9-8.55-4.8-3.94-2.81-8.9-2.65-13.63,6.35-3.8,4.89-10.11,4.44-15.63-.5-6.14,7.32-8.66,5.42-15.55a27.88,27.88,0,0,1,0-14.89c2.33-7.61,6.59-14.63,4.83-23.09-.12-.53.65-1.56,1.26-1.9,11.15-6.16,8.47-16.81,8.69-26.51.06-2.49-.74-6.68.28-7.19,7.81-3.84,2.3-12.55,6.87-17.47a13.52,13.52,0,0,0,2.81-6.29c1.29-6.27-2.48-13.47,2.68-18.91,4.7-5-.57-13.65,7-17.2-2.68-8.68,5.87-14.34,5.94-22.81.05-5.73,6.38-10.86,4.59-18-1.69-6.73,7.59-10.23,5.33-18.07-1.11-3.86,6.33-7.15,4.65-12.86-1.63-5.5,6.58-7.38,5-12.95a5.33,5.33,0,0,0-1.09-2c-.44-.5-1.3-1.17-1.71-1-.71.26-1.11,1.32-1.82,1.64-6,2.71-3.82,10.74-8.88,13.86-6,3.69-6,11-10.39,15.89-3.53,3.93,1.27,11.68-5.44,15.31-.83.45-.5,3-.74,4.59-.71,4.66,2,10-2.86,13.87-4,3.18-.24,8.74-2.43,11.39-3.22,3.86-3.52,9.07-6.64,12.3-3.35,3.47-2.22,5.06.67,7.3,1.36,1,.82,2.21-1.07,3.54-4.21,3-2.07,7.52-2.77,11.39s-6.69,5.66-4.86,10.43c2.59,6.78-6.49,9.07-5.28,15.53.9,4.85-1,10.35.44,14.93,2.15,7-7.29,8.72-5.59,15.63,1,4.25,2.4,10.1-3.2,13.53-.64.39-1.43,1.22-1.44,1.86-.11,5.85.16,11.71-.14,17.54-.24,4.76-6.64,7.15-5,13,2.86,10.25-5.68,14.59-11.23,20.33a5.77,5.77,0,0,1-4.38,1.31c-9.17-1.45-16,2-21.22,9.4-7.66-1.37-13.15,5.09-20.19,5.64-5.81.45-11.7-.11-17.53.17-2.94.15-4.24-1.93-6.29-3.11-5.13-3-5.86-2.88-8.49-.32-4.19,4.08-7.81,9-12.56,12.19-4.36,3-10.43,3.43-14.79,6.39-5.81,4-10.34,8.09-16.37.12-1.22-1.62-6.36-.18-9.68-.33-7.21-.32-11.23-4.12-12.65-11.79-.44-2.32-.08-5.36-1.43-6.84-2.48-2.72-4.27-4.47-.33-7.34,1.05-.77,1.39-2.74,1.72-4.23,1-4.69-2.42-10.45,2-14.12,4.89-4,.78-10.39,3.71-13.43,4-4.19,3.34-8.77,4.68-13.3,1.53-5.17,4.78-9.48,5.17-15.54.26-4,5.88-7.49,4.55-13-.19-.79-.36-2.17,0-2.42,5.12-3.38,3.82-10.35,8.26-14.23s-1-11.16,5.2-15.53c4.49-3.17-1.62-11.82,5.5-15.08,1.25-6.12.66-12.87,6.06-17.54-1.78-6.28,3.64-10.32,4.78-15.53,1.19-5.42,6.88-8.67,5.58-15.47-1-5.19,5.07-9,5.32-15.39.23-5.6,5.86-11,4.84-17.81,6.56-3.45,2.59-10.87,5.59-15.15,2.51-3.57,4.11-6.56,4.06-11q-.28-27.57,0-55.14c.07-6.19-3.62-6-8-6.13-7.12-.24-12.48-7.29-20.23-5.54-3-2.95-5.9-5.92-8.87-8.86-1.75-1.73-3.11-3.38-3.16-6.25-.12-7.94,2.3-16.54-4.91-23,0-5,.37-10.06-.07-15-1.08-11.92,3.2-24.38-4.65-35.73-2-2.83.09-8.2-.38-12.32-.79-7,3-15-4.43-20.79-.86-.67-.37-3.1-.5-4.72-.71-9,3.14-19.21-1.79-26.72-5.91-9-1.52-17.72-3.16-26.36-1-5.4-6.75-8.79-5.32-15.51,1.19-5.59.24-11.64.24-17.49V264c0-5.85-.07-11.7,0-17.54.07-4.16-.41-7.58-3.43-11.26-2.13-2.61-1.51-7.73-1.55-11.73-.15-14.21-.39-28.42,0-42.61.3-9.49-2.95-19.56,4.66-28.22,1.66-1.88,0-6.49.29-9.81.9-10.28-3-21.19,4.73-30.7,1.64-2,.61-6.55.16-9.82-.89-6.42,1.56-11,6.41-15,1.78-1.45,4.1-2.79,3.81-6-.12-1.38,1.09-4.15,1.55-4.12C82,78,89.54,69,99.86,71a12.08,12.08,0,0,1,7.9,5.08c3.38,4.61,7.68,5.18,13,5.38s8.91,6.46,15.52,5c4.78-1,10-.37,15-.16,7.93.33,16.36-2.11,23.14,4.83,1.55,1.6,10.65-4.85,11.21-7.61.68-3.28.25.77-1.89-1.66-2.4-2.73-4.37-5.75-2.22-8.57,6.29-8.23,6.24-15.88.14-24.13-1-1.38-.67-5.7.48-6.43,4.13-2.63,2.48-7.73,5.22-10.5,6.28-6.35,11.56-13.13,23-11.68,8.56,1.08,15.9,1.53,21.66,8.8,2.35,3,4.54,7.08,9.64,6.82,2.84-.14,4.4,1.56,4.4,4.54,0,10.86,0,21.72,0,32.59,0,8.45,1.38,9.18,10,5.41,1.41-.62,2.62-2.3,4-2.38,8.76-.49,17.18.28,25.76-4.64,6.38-3.66,16.52,3,22.77-5.35,7.5-.05,15.2.92,22.44-.46,6-1.14,10.87-6.2,18.08-4.9a59.59,59.59,0,0,0,17.49.05c5.33-.66,9-6.42,15.52-5.05,4.81,1,10,.21,15,.17.78,0,1.84,0,2.28-.47,10.92-11.66,16.85-1.17,24.35,5,8.51,7,12.67,12.14,12.83,19.39.1,5,0,10,0,15,0,5.93,0,5.91-9.45,13.21a42.44,42.44,0,0,0-3.57,3.53l-1.77,1.77c1.13.92,2.32,2.7,3.37,2.61,6.26-.51,12.93,2.34,18.55-3.93,2.21-2.46,8.36-2.53,11.33.34a12.55,12.55,0,0,0,11.09,3.7c2.88-.32,5,.91,5.47,3.48,1.23,6.31,5,11.54,8.15,16.63,3.45,5.55-1.11,13.9,6.77,17.32-.25,4.7,2,9.8-3.05,13.66-3.3,2.5-5.79,6-9,8.71-3,2.5-2.82,5.6-2.83,8.91,0,6.42-7.75,10.46-5.37,18.09.52,1.66-3.49,5.26-6,7.19-3.29,2.52-10.77.58-8.65,8.59-4.58,3.19-5.77,7.69-5,13,.12.8.2,2.22-.14,2.37-8.43,3.81-1.36,14.79-8.82,19,.49,6.71-7.66,10.2-6.2,17.57,1.13,5.7-5.86,8.76-5.38,15.47.41,5.72-7.05,10.77-4.51,17.94-5.6,3-4.09,10.24-8.56,14.11-1.28,1.11-1.69,4.87-.81,6.51,2.11,3.95,4.06.17,5-1.19,4.89-6.92,14.66-6.63,19.48-14,3.14-4.79,8.09-8.39,12.22-12.53,7.15,1,9.24-6,14-8.73s10.73-3.38,14.66-6.73c14.57-12.4,32.7-18.05,49-27.05,2-1.11,4.38-3,6.3-2.65,5.94.94,8.72-3.2,12.69-6.07,6.28-4.55,12.6-9.21,21.21-9.43,3.52-.09,6.83-3.86,10.5-4.55a53.72,53.72,0,0,0,11.18-3.39A117.31,117.31,0,0,1,608.16,222c8.45-1.8,15.83-8.29,25.51-5.65,2.05.55,5.55-4.79,7.8-4.36,6.59,1.26,10.19-4.52,15.55-5.21,4.93-.64,10,.12,15-.21,5.5-.36,8.81-6.69,15.53-5.19,4.55,1,7-6.34,12.94-4.94,4,.93,8.34.46,12.49.1,5.46-.47,11.89,2.52,15.88-3.95,4.31.95,7.28,4.47,12.56,4.29,19.2-.67,38.44-.55,57.64-.11,7,.16,15.13-3.16,20.65,4.46,5,.13,9.93.15,14.87.43,5.67.32,12.76-1.05,16.63,1.82,4.83,3.58,10.76.95,13.54,3.53a16.6,16.6,0,0,0,15.77,4.46c6-1.24,7.77,6.44,13,5.12,7.87-2,12.43,8.48,20.5,5.1,6.46,4.39,14.27,6.5,20.61,10.5,5.92,3.75,13.77,4.53,18.15,11.38,1.8,2.82,6.8,3.44,10,5.57,3.35,2.23,6,5.44,9.43,7.58,13.62,8.63,25.49,20.19,32.71,34.65,5.92,11.88,16.57,21,19.64,34.46,6.91,3.34.88,11.34,5.38,15.27s4.49,9.87,7.9,14.46c3,4-2.26,11.5,2.72,16.25,5.19,4.95,1.74,11,2.69,16.46,1.22,7-3,15.06,4.34,20.76-.84,3.65-4.86,5.44-4.53,10.19.69,10,.21,20,.21,30.06,0,5.69,1.24,11.78-4.92,15.51,0,5,.16,10-.25,15-.11,1.28-2.85,2.23-3.17,3.62-1.61,6.84-8.44,11.89-6.71,19.81-3.61,5.1-4.3,11.89-9.25,16.3-.17.16,1.18,2.42,2.14,3.38,2.73,2.73,3,5.5.7,8.6-5.19,6.89-7,15.68-12.44,22.4-1.09,1.34-.77,2.23,1.09,3.61,3,2.22,4.39,6.36,1.69,8.26-5.21,3.67-2.52,11.55-8.68,14.13,1.07,6.78-3.41,7.86-8.52,8.74-.82.15-1.23,2.69-1.83,4.12-1.38.55-3.79.87-4,1.69-.68,3,1.54,3.5,4,3.33,2.39,7.15-6.19,11.06-5.26,17.79-9.55,8.7-17.83,18.2-21.41,31.11-.31,1.13-4.53.78-6.45,1.93-3.6,2.14-1.67,6-1.91,9.1-.32,4,.28,7.68-3.22,11.27-4.4,4.5-9.69,8-12.32,14.78-2.23,5.69-8.23,9.9-12.57,14.76-.55.62-1.79,1.4-1.67,1.73,2.34,6.61-8,8.7-5.39,15.32-4.11,4.12-8.16,8.31-12.34,12.35s-7.26,8-9.21,13.71c-1.44,4.24-6.14,8.09-10.33,10.47-3.95,2.25-10,1.47-8.37,8.78-2.94,2.94-7.53,5.44-8.46,8.92-1.58,6-5.18,9.77-9.16,13.75q-44.19,44.1-88.35,88.21c-1,1-2.79,1.22-5.33,1.81-.37,0,.67.29,1-.09a2.19,2.19,0,0,0,0-2.11c-1.17-1.65-2.6-3.71-4.36-.69C767.85,871.06,769.49,872.56,771.38,873.55ZM902.87,670.29c.78-2.33,0-3.17-2.31-2.29a3,3,0,0,0-1.66,1.51,9.36,9.36,0,0,0-.93,4.22c.18,1.34,1.28,2.56,2,3.83,1-.87,2.43-1.56,2.82-2.64.49-1.38.11-3.07,3-11.57a18,18,0,0,0-2.85,2.42,1.5,1.5,0,0,0,2.12,2.12,10,10,0,0,0,2.28-2.95C907.44,664.75,906.37,663.93,902.87,670.29Zm20.06-32.42c5.38-.93,9.23-4.68,9.7-9.38.52-5.16,7.4-7.11,5.35-12.86,6.94-4.48,4.75-11.52,5-17.87,8.09-2,10.78-7.58,10-15.4-.14-1.54,0-3.11,0-4.66,1.42-.59,3.64-.8,4.13-1.82,2.63-5.56,3.36-13,7.51-16.61,6.38-5.56-.89-15.92,8.42-19.23,0-4.16,0-8.33,2.93-22.09-.55.27-1.48.43-1.59.81-.56,2.13-.8,4.33-1.37,6.45-.65,2.37.05,3.18,2.35,2.3a3.41,3.41,0,0,0,1.68-1.5c1.7-3.44,1.11-7.51-4,1.54-3.16-.57-5.16,1.49-4.85,3.93.69,5.49-7.27,7.4-5.11,12.89,2.68,6.78-7.3,9-5.09,15.43-6.93,4.49-4.75,11.54-5,17.9-8.09,2-10.78,7.57-10,15.39.14,1.54,0,3.11,0,4.67-.83,0-2.19-.33-2.42,0-6.43,10.56-9.89,22.69-17.47,32.71-1.2,1.59-.17,4.87-.17,9.6,0-.75.29-1.78-.08-2.16a2.21,2.21,0,0,0-2.12,0c-1.64,1.17-3.7,2.6-.69,4.36C920.44,642.52,921.94,640.88,922.93,637.87ZM875.46,1029c-1.25,1.18-2.26,3-3.63,3.3-8.45,2.11-13.71,7-15.71,15.67-.48,2.08-5.12,4.06-3.09,5.7,1.55,1.23,5.74.9,9.1-1.17a183.75,183.75,0,0,1,29-14.41c2.92-1.14,1.9-4.43,1.46-6.64-.2-1-2.4-1.8-3.81-2.45-4.44-2.08-8.83,10.08-36,27.28,0-.75.29-1.78-.08-2.15a2.18,2.18,0,0,0-2.12,0c-1.64,1.16-3.71,2.59-.69,4.36C850.24,1058.71,851.74,1057.07,875.46,1029ZM319,738.16c.75,0,1.78.29,2.15-.08a2.18,2.18,0,0,0,0-2.12c-1.16-1.65-2.59-3.71-4.36-.69-.23.4,1.41,1.9,36.86-32.27L345,711.88c-2.91,3-8.16,5.88-8.24,8.92-.16,6.3-5.1,8.14-7.64,12.09-2.09,3.25-6.46,3.9-8,7.75-.57,1.43-2.89,2.21-3.33,3.62-1.72,5.5-4.2,10.29-8.94,13.88C303.77,762,301,769,293.14,768.73c-2.91,3.72-8.29,5.72-7.17,12.15a45.11,45.11,0,0,1,0,12.5c-.52,4.77,5.29,5.57,5.4,10.46.13,6.35-3,13.31,1.86,19.16,5.44,6.59,1.63,14.3,2.94,21.37a6.65,6.65,0,0,0,2.4,3.94c5.72,3.88-.64,11.62,5.23,15.48,5.05,3.31-.3,10.11,3.68,13.39,5.69,4.69,3.28,10.65,3.51,16.12.12,3,2.67,4.1,3.33,6.18,2,6.4,7.23,10.51,10.39,15.84A169.47,169.47,0,0,1,334,934a98.53,98.53,0,0,0,5.31,10.32c2,3.43,5.83,5,7.22,9.59,2.79,9.2,8.25,17,15.68,23.62,8.12,7.18,16.11,14.72,22.94,23.09,5.43,6.67,13.51,8.35,19.93,13a51.85,51.85,0,0,0,8.14,4.31c3.46,1.61,8.14.62,11.56,2.27,2.78,1.34,4.64,4.24,8.47,3.9,4.15-.37,8.36.08,12.53-.12,4.85-.24,11.22,1,14.17-1.61a14.13,14.13,0,0,1,13.76-3.1c9.75,2.62,16.05-8.64,25.54-5.35,4.86-5.69,12.15-8.67,18.5-9.37,7.37-.82,12.38-8.86,20.41-5.6,10.35-7,23.4-9.71,32.75-17.35,12.41-10.15,29.58-13.43,38.94-27.69.52-.79,3.88.49,4.68-.36,2.91-3.13,6.47-4.14,10.33-5.55,3.56-1.3,6-5.56,9-8.51l14.18-14.18,14.18-14.18,14.18-14.18,16-15.95c4.73-4.73,9-10.11,14.31-14,5.7-4.15,5-11.64,10.35-16,7.1-5.76,13.15-12.82,19.65-19.31,1.49-11,11.66-15.3,17.87-22.62,2.34-2.76,1.73-6.82,3.58-8.47,9.23-8.21,12.2-21.32,22.82-28.33,2-1.35,4.75-3.26,5.14-5.29,1.33-7,8.57-10.32,10.3-15.78,2.2-6.95,7.08-10.64,11.18-15.48-1.18-8.16,9-9.9,9.67-15.93.8-7.11,8.13-8.65,9.44-13.69a21.17,21.17,0,0,1,7.53-11.94c4.61-3.7,2.79-11.31,8.81-13.92s3.1-11,8.84-13.93c6.28-3.25,4.72-12,10.65-15.61-1.72-9,8.15-11.08,10.81-18.11,3.49-9.22,8.7-18.14,13.65-27a219.85,219.85,0,0,0,14-29.2c3.57-9.46,6.46-19,11.76-27.76a47.3,47.3,0,0,0,6.45-19.87c7.64-4.13-.61-15.58,8.72-18.94.32-7.16-1.82-14.92,5-20.49.21-7.18-1.68-14.88,5-20.48,0-7.52.85-15.16-.24-22.52-1.17-7.93,4.06-13.63,5.08-20.54.84-5.73.17-11.68.17-17.52,0-5-.17-10,0-15,.25-5.85-6.87-8.73-5.31-15.53,1.27-5.56.44-11.65.11-17.48-.07-1.3-2.19-2.36-2.9-3.76-2.44-4.83-5.41-9.57-6.77-14.71-1.23-4.68-5.59-7.16-6.22-12.65-.57-4.88-9.65-6.44-9-13.65-7.54-8.59-14.65-17.67-24.76-23.54-8.71-5.07-18.33-8.27-27-13.65-3.67-2.28-9.59-.68-14.35-1.58-2.12-.41-3.74-3.52-5.84-3.88-4.81-.82-10.41.63-14.52-1.31-5.12-2.42-9.5-5.37-15.64-4.81-6.63.6-13.35.14-20,.14s-13.46.7-20-.2c-7.08-1-12.13,2.91-18.1,4.91-4.51,1.51-9.93.1-14.93.35-5.55.28-8.78,6.35-15.53,5.35-5-.74-8.91,6.52-15.48,4.88-1.54-.38-3.7,2.77-5.85,3.63-18.71,7.48-35.79,18.35-54.29,26.26a28,28,0,0,0-5.87,3.95,40.87,40.87,0,0,0-3.57,3.52c1.33.83,2.64,2.36,4,2.38,5,.08,9.41,0,13.29,4.58,5.94,7,12.71,13.27,19.41,19.55,2.67,2.5,2.32,6.8,3.82,8.29,4,4,5.87,8.36,4.46,13.27-1.94,6.75,5.8,9.79,5.11,15.51-1.73,14.34,4.44,29.48-4.72,43.2-1.54,2.31-.7,6.62-.11,9.86.93,5-5,6.29-5.06,10.47a9.36,9.36,0,0,0,1.25,4.46c.88,1.53,1.81.27,3.57-.82,4.74-2.92,4-8.65,7.08-12.18,3.78-4.44,8.18-8.35,12.32-12.48,3.54-3.55,9.43-6.71,10.08-10.73.94-5.79,4.52-8.44,7.66-12,3.68-4.17,9.09-7.22,8.84-13.88,3.95-2.52,8.66-3,12.29-6.93,10.72-11.69,22.5-22.39,33.41-33.92,7.33-7.74,15.42-13.67,25.94-16.2,3-.72,3.88-4.79,8-5.06,16.06-1.06,16-1.28,28.16,10.85,2.36,2.37,4.34,5.47,7.17,6.94,5.9,3.08,3.91,10.21,8.5,14.34,3.77,3.38-1.22,11.66,5.56,15.1a2.49,2.49,0,0,1-.52,1.66c-5.51,3.32-4.49,8.94-3.59,13.43,1.21,6-6,8.08-5.14,13,1.39,8.13-5.76,12.77-7.19,19.65-9.67,5.42-8.73,16.59-12.47,24.93-5,11.19-3.47,11.89-13.81,21.41-.61.56-1.58,1.12-1.69,1.78-.73,4.66,1.23,9.4-3.35,13.85-3,2.92-3.22,8.66-6.74,12.07,1.38,8.71-11.42,9.67-10.1,18.41.09.59-.65,1.42-1.18,2s-1.34,1.3-1.95,1.24c-5.48-.54-5.45,3.06-7.4,6.95-2,4.06-3.48,8.78-6.35,12.43-3.43,4.37-9,7.26-8.78,13.94-7.32,8.57-18.08,14.37-21.27,26.28-5.44.26-9.37,2-8.56,8.56-3.36,2.15-4.55,7.1-9.58,7.2-1.44,0-4.07,1-4.11,1.67-.45,7.5-6.18,11.38-10.94,15.5-5.38,4.66-8.32,12.55-17.17,13-2.43.13-3.17,3.23-3,5.88.44,5.41.22,10.37-7.51,9-5.54,5.79-12.54,10.51-14.18,19.19-13.15,15.64-31.69,26.43-41.08,45.62-.69,1.43-7.13-.37-7.23,4-.13,5.9-3,6.81-7.83,6.38-3.26-.28-7.29-.67-7.26,4.07,0,5.09-3.64,7.54-6.7,9.69-6.38,4.49-9.29,11.5-11.9,17.75-5.08,12.16-13.24,22.83-16.7,35.71-.81,3-5.66,3.8-5,8,.92,5.39-.75,9.6-5.26,12.92-1.9,1.4-3.95,3.41-4.59,5.54-.91,3,.24,6.84-1,9.62s-4.88,4.38-4.19,8.3c.79,4.49-1.5,7.47-4.17,10.9-1.65,2.13-.55,6.33-.87,9.58-.23,2.36.06,5.53-1.32,6.88-5.65,5.55-9.74,13.35-20.26,11.73-8.16-1.26-16.69-.54-25-.14a12.14,12.14,0,0,1-10.67-4.69c-3.66-4.22-8.37-7.41-9.08-13.88-.29-2.66-5.42-2.38-6.31-1.23-3.59,4.69-8.22,4.43-13.25,4.83-4.56.37-7.28,6.52-13,4.86-5.5-1.6-7.29,5.68-13,5.19-9.12-.78-18.39.27-27.54-.37-6.15-.44-10.7-7.74-18-4.93-.4.15-1.75-.79-1.82-1.33-1.32-10.09-12-13.45-15.51-21.19-2.5-5.55-5.93-10.88-7.69-16.86-.42-1.42-2.78-2.43-2.9-3.75-.4-4.14-.1-8.34-.16-12.52-.1-7.47-.26-14.93-.39-22.39-7.62-5.53-4.24-13.65-4.46-20.66-.49-15-.18-30.07-.13-45.11C356.34,707.06,356.17,704.7,319,738.16Zm82.47-.91c0,12.53,1.29,25.23-.42,37.52-1.36,9.77,8.34,16.14,5.43,25.53,3.33,3.34,5.35,8.47,11.38,8.09a50.88,50.88,0,0,1,7.51,0c5.9.5,8.85-7.57,15.49-5.11,2.69,1,4.37-1.34,6.28-2.9,3.63-3,9.6-2.08,12.06-7.13s9.46-3.41,11.87-7.22c4.33-6.81,12.64-6.82,17.71-12.18,9.76-10.3,20-20.16,30-30.18,1.77-1.76,3.73-3.49,3-6.27-2.15-7.81,8.54-12.39,5-20.48,5.75-4.53,3.11-12.6,6.57-17.17,3-4,2.22-9.39,6.57-12.53,4.09-3-.17-8.93,2.17-11.4,3.85-4.05,3.33-8.9,5.14-13,4.72-10.8,10.9-20.9,10.46-33.26,5.15-4.22,5.3-11.29,9.2-16.22-2.93-7.28,5.17-11.22,5.5-17.94.15-3,6-5.72,4.46-10.45-2.43-7.3,2.72-12.29,5.23-17.92,3.76-8.48,9.23-16.25,12.52-24.87,2.47-6.48,9.22-11.38,7.43-19.5-.91-4.11,4-5,4.88-8,1.16-3.76-1.94-8.59,2.15-11.59,5.09-3.74.66-10.33,3.74-13.38,4.21-4.15,5-8.59,4.08-13.4-1.11-5.77,4.28-8.56,5-13,.87-5.72,1.32-11.94-.07-17.43-1.75-6.94,5.8-9.22,5.53-15.54-.7-16.67-.08-33.4-.42-50.09,0-2.34-2-2.44-4.85-.93-5.66,3.05-10.6,6.84-15.78,10.48s-11,6.13-15.43,10.95q-9.36,10.1-19.5,19.46c-2.88,2.66-4.47,7.32-9.54,7.1-7.68-.34-3.22,8.05-7.68,10.58-3.5,2-5.62,6.35-9.07,8.5-4.24,2.64-1.83,7.82-5.18,10.53-1.93,1.56-3.36,4.67-5.38,5-4.24.75-7.36.69-8,6.6-.64,6.38-10.82,7.82-9.83,15.92.07.58-.82,1.33-1.36,1.91-6.2,6.62-14.51,12.27-18.1,20.08-4.46,9.71-12.49,15.17-19.32,21.89a74.43,74.43,0,0,0-16,23.59c-1.36,3.11-2.51,6.3-5.11,7.79-8.42,4.83-8.74,15.67-15.94,21-8.16,6-9.54,16.79-17.45,23.06-3.42,2.7-2.49,9.15-7,12,2.81,7.24-2.43,12.49-5.29,17.81-3.16,5.89-5.27,11.33-4.87,18.12.54,9.16.19,18.36.09,27.55,0,2.39.35,6-1,6.95-6.08,4.42-3.78,10.54-3.92,16C401.24,713.87,401.44,725.56,401.44,737.25ZM293.2,688.44c4.81-4.81,8.95-9.62,13.79-13.57,3.55-2.89,3-7.54,5.4-10.28,4.25-4.86,7.46-10.12,10.84-15.55,3.29-5.27,7.35-10.1,10.5-15.72,2.75-4.91,10.24-7.82,11.55-12.71a23.31,23.31,0,0,1,9.56-13.5c5.8-4.13,4.94-12.21,10.54-15.74,5.36-3.39,5-9.86,8.72-14,3.14-3.48,9.07-5.76,7.18-12-1.81-6,5.93-7.89,5-13-1.5-8.51,8.13-14.15,5.53-22.8,8.22-3.82.85-15,8.84-18.87.5-7.13,8.79-12,5.76-20.16,4.81-5.33,6.59-12.3,10-18.4,6.91-12.37,11-26.59,23.2-35.45,2.55-1.85.91-4.91,2.07-6.63a54.52,54.52,0,0,0,5.47-10.3c2.27-5.56,10-8.31,10.21-15.83,0-.61,1.11-1.18,1.69-1.78,5.55-5.78,10.83-11.37,14.66-18.92,3.59-7.08,11.31-12.06,17.22-18l14.16-14.17c4.73-4.72,10.12-9,14-14.3,4.14-5.72,12-4.45,16-10.38,2.7-4.1,6.69-7.47,10.53-10.66,3.68-3.05,5.52-8.73,11.31-8.83,5.1-.08,6.92-7.45,12.84-5.5.36.12,1.09-1.17,1.75-1.66,3.81-2.8,5.72-7.65,11.71-8.2,5.79-.53,7-9.46,13.4-9.62,5.19-.13,7-7,13-5.51,1.25.31,3.46-3.24,5.24-5l1.77-1.77c-1-1-1.93-2.65-3-2.77-3.29-.37-6.68.08-10-.18-5.63-.45-7.23,2.32-6.79,7.42,0,.48-3,1.84-3.14,1.64-5.1-6.35-9.82-5-13.93.8-3.31,4.65-7.6,5.3-12.9,5.43s-8.93,6.86-15.5,4.94c-2.72-.79-4.61,1.43-4.45,4.29s-1.26,5.83-3.4,5.38c-7.93-1.67-12.42,2.86-16.89,7.92l-17,7.36c-4.11.94-17,6.8-19,8.56q-6.37,5.76-12.77,11.49c-8.08-1.08-8.78,9-15.85,10.22-7.79,1.32-11.46,8.83-16.74,13.78-8.53,8-16.6,16.45-24.87,24.72-12.12,1.39-15.6,16.23-27.71,17.83-1.5.2-1,2.11.95,3.44,2.24,1.56,1.39,2.86.48,5.38-3.49,9.74-11,16-18.08,22.5-6.4,5.85-11.61,11.68-9.72,21.1.78,3.88-3.32,5.58-4.09,8.29-3,10.45-12.57,18.53-10.95,30.56-6,3.67-3.15,10.93-5.75,15s-2.87,9.52-6.64,12.3c-5.64,4.18.57,11.74-5.2,15.48s.74,11.53-5.26,15.4c-5,3.25.43,10-3.66,13.4-5.61,4.64-2.76,10.68-3.62,16.11a15.83,15.83,0,0,1-1.62,4.32c-3.79,7.66-9.86,14.46-8.82,23.9-5.2,3.1-3.92,8.32-4.81,13.09-.82,4.41-6,7.29-4.9,13s-7,8.73-5.06,15.48c1.39,4.85.35,9.87-4.64,13-.4.26-.18,1.56-.18,2.37,0,6.68-.1,13.36.06,20C291.23,684.23,292.18,685.67,293.2,688.44ZM281.09,398c0,1.83-.32,3.58.09,5.14s1.54,2.68,2.35,4c1.18-1.13,2.32-2.32,3.55-3.39,2.56-2.22,4.75-4.55,4.07-8.35-.1-.55,7.91-18.83,8.3-19,5.35-3.1,6.23-9.06,8.78-13.9,6.12-11.62,12.57-23.13,17.71-35.19,2.07-4.85,7.78-8.73,5.43-15.37-.38-1.08.65-3.24,1.69-4.15,7.45-6.52,10.23-15.64,14.26-24.15,1.31-2.77,4.74-4.56,3.94-8.37a4.56,4.56,0,0,0-1.14-2,6.85,6.85,0,0,0-1.74-1c-2.49,5-8.56,3.74-12.17,7-1.62,1.45-4.38,2.75-6.32,2.4s-4-4.14-5.64-3.94c-2.72.33-5.05,3.05-7.79,4.13-7.14,2.82-11.64,8.22-15.31,14.59,3.08,7.31-6.58,11.23-4.93,17.92,1.77,7.15-3.52,12-4.83,18-1.67,7.64,2.06,16.47-5.28,22.88q0,12.51,0,25c0,2.43.31,4.93-2.16,6.62C279.68,389.74,281.44,394.22,281.09,398ZM675,577.4c.59-.59,1.59-1.11,1.7-1.79.56-3.15.81-6.09,3.54-8.63,7.32-6.84,14.26-14.09,21.35-21.18,1.49-11,11.66-15.3,17.87-22.62,2.34-2.76,1.88-6.27,3.58-8.54,3.81-5.08,8.17-9.31,11-15.55,2.44-5.38,8.44-9.39,10.1-15.89,7.82-4.11,7.56-14,14.05-19.35,6.15-5.07,7-14.53,14.31-19-1.43-5,3.06-7.1,4.83-10.56,1-1.87.88-5.46-2-6.38-2-.64-5.38-.39-6.52.9-1.93,2.2-2,6-3.87,8.28-3.72,4.48-7.66,9.11-12.42,12.31-5.33,3.59-4.51,10.06-8.57,14.23-4.4,4.51-9.81,8-12.06,15-1.58,5-7.23,8.69-11.15,12.88-4.37,4.67-4.25,12-10.44,15.94-2.83,1.79-3.46,6.78-5.57,10s-6.67,6.11-7.1,9.5c-.63,5.12-7.51,7.13-5.41,12.91-3.34,3.63-8.88,6.92-9.51,11-.92,5.93-4.84,8.45-8.14,11.74-3.62,3.59-2.12,7.69-2.26,11.6C672.32,575.2,674.08,576.32,675,577.4ZM120.63,269.31c0-4.18-.35-8.39.09-12.52.55-5.23-.78-9.47-4.81-12.85,8-6.39,4.08-15.29,4.58-23.11.59-9.16.14-18.37.14-27.56,0-5-.51-10.09.12-15,1-7.83-3.9-16.73,4-23.42a1.87,1.87,0,0,0,0-1.66c-7-3.37-2.16-10.77-5.32-15.38-.33-.48-1.3-1-1.7-.83-.72.29-1.71,1.08-1.73,1.69-.22,6.64-.35,13.28-.35,19.92,0,5.74,1,11.54-4.87,15.7-.9.65-1,4.63,1.56,6.61,3.72,2.86,5.15,6.37,1.2,10.26-1.78,1.76-3,3.5-3,6.31.13,20.05-.07,40.1.25,60.14,0,2.55,4,7.1,3.75,7.29-6.17,4.34-3.28,10.66-3.92,16.13-.6,5.09,4.11,6.7,6.53,9.81a1.79,1.79,0,0,0,1.7.25c.7-.37,1.7-1.11,1.71-1.71C120.68,282.68,120.63,276,120.63,269.31Zm255.52-70.48c-4.23-3.85-8.93-2.62-13.45-1-2.13.78-3.78,3.21-5.9,3.62-4.68.9-11.09-.76-14,1.81-5.31,4.72-10.73,2.76-16.14,3.31-5.61.57-8.58,4.55-10.34,8.87-3.05,7.51,1.63,12.12,9.86,11.41,4-.35,4.9-4.2,7.84-5.13C362.66,212.69,362.67,212.73,376.15,198.83Zm622,227h.34c-.4-9-.78-18-1.28-27,0-.53-1.21-1.5-1.67-1.4a2.82,2.82,0,0,0-1.74,1.66c-3.82,11.42,4.78,24.65-5,35.32-.2.22,1.31,2.53,2.42,3.34,2.48,1.82,2.85,5.68,1.79,6.48-6.57,4.92-4.65,11.71-4.83,18.06-.11,4.14,1.09,8.74-.34,12.32s-4.33,6-5.3,10.34c-.74,3.28-5.09,5.74-4.52,10.54s.24,9.87.47,14.8c0,.61,1,1.38,1.72,1.69.39.16,1.63-.44,1.65-.76.51-7.12,8.44-11.79,6.42-19.85-.55-2.19-.56-5.93.75-6.94,6.66-5.16,4.15-12.17,3.94-18.33-.26-7.49,7.48-12.15,5.52-20.41C997,439.4,998.15,432.48,998.15,425.84ZM701.58,990.66l-1.79-1.78a16.23,16.23,0,0,0-1.57,3.36c-.09.42,1,1.09,1.57,1.65ZM815.12,778.27c-.55.56-1.66,1.24-1.56,1.65a16,16,0,0,0,1.56,3.37c.56-.56,1.66-1.24,1.57-1.65A15.55,15.55,0,0,0,815.12,778.27ZM323,707.35l3.23-1.79c-.56-.55-1.24-1.66-1.65-1.56a15.69,15.69,0,0,0-3.36,1.56Zm-33.65-10,1.78-1.78a15.34,15.34,0,0,0-3.37-1.57c-.41-.09-1.09,1-1.64,1.57Zm620.33-43.68-1.78,1.78a15.48,15.48,0,0,0,3.36,1.57c.42.09,1.1-1,1.65-1.57ZM275.35,519.31l-1.78-1.79a15.55,15.55,0,0,0-1.57,3.37c-.09.41,1,1.09,1.57,1.65ZM154,471.67l1.78-1.78a15.26,15.26,0,0,0-3.36-1.57c-.42-.09-1.1,1-1.65,1.57Z"/><path d="M993.13,592.74c2.44-.18,4.66.32,4,3.32-.19.82-2.59,1.14-4,1.7Z"/></svg>