<svg id="Layer_1" data-name="Layer 1" xmlns="http://www.w3.org/2000/svg" viewBox="0 0 1200 1200"><title>BB_Artboard 103</title><path d="M350,759.69c0-4.39.11-8.78,0-13.17-.25-8.74.06-8.47,3-12.4,3.29-4.35,7.59-4,11.65-2.91a24.89,24.89,0,0,1,5.41,2.67c2.2,1.31,4.86,3.32,5.43,5.52.94,3.59,2.22,7,3.47,10.45-3.5,2.94-2.57,7-2.62,10.76-.05,3.94.23,7.91-.08,11.84-.33,4.11,1.83,8.8-2.44,12.13,0,3.06-.1,6.11-.12,9.17,0,2.19.86,5.07-.21,6.42-1.63,2.07-1.73,4.9-3.48,6.47-2.06,1.85-1.36,4.71-3.51,6.6s.47,5.76-2.79,8.1c-1.72,1.23-2.34,4.18-3.12,6.48a10.73,10.73,0,0,0,0,3.92,1.91,1.91,0,0,0,.64,1c.23.22.77.48.89.38.68-.55,1.22-1.27,1.9-1.82,2.31-1.89,3.67-5.29,6.83-5.64,2.69-.3,3.73-4,6.79-2.78,3.8-6.5,7.34.07,10.83.58,2.09.3,3.77,3.43,5.62,5.3,3.91,4,4.49,7.53,2,12.55-3.57,7.36-5.07,9.24-14.15,13-2.77,1.14-3.31,2.32-2.92,4.49.58,3.29-3.86,4.55-2.8,8.17.9,3.07-3.06,4-3.91,6.2-1.87,5-5.28,9.12-6.77,14.33-.87,3-3.46,5.56-5,8.46-1.3,2.51-1.69,5.63-3.38,7.77a51.29,51.29,0,0,0-5.6,8.24c-2.07,4-3.14,8.57-6.41,11.83-3.06,3.05-4.55,6.81-5.78,10.8a3.37,3.37,0,0,1-1.65,1.9c-3.76,1.53-2.85,6.06-5.54,8.31-2,1.67-3.57,3.92-5.66,5.48-2.27,1.71-4.77,3.51-7.44,4.18a23.87,23.87,0,0,1-9.15,0c-1.45-.23-2.73-1.9-4-3-7.28-6.69-9.6-9.33.07-17.28,3.14-2.58,4.27-6.21,6.29-9.33,1.31-2,1.69-4.68,3.87-6.27,3.19-2.31,4.83-5.78,6.48-9.16,1.29-2.63,2-5.54,4.68-7.29,2.26-1.46,1.09-5,3.74-6.34-.12-3.49,2.77-5.06,4.63-7.31,1.57-1.9,1.14-5,3.7-6.36-.71-4.51,2-7.92,3.78-11.6s3.71-7.24,5.58-10.85a7.65,7.65,0,0,0,1.11-2.16,6.74,6.74,0,0,0-.62-2.34c-.62.2-1.48.2-1.82.62-3.83,4.72-8.28,5.79-13.52,2.46-2.87-1.81-5.64-2.11-8.05.64-2.09,2.38-4.23,4.17-7.77,3.67-.93-.13-2.18,1.1-3.08,1.92-1.94,1.78-3.75,3.69-5.61,5.56-2.42,2.44-4.81,4.5-4.53,8.79.16,2.4-2.93,4.85-3.73,7.52-1.06,3.53-4.83,6-3.95,10.27a2.6,2.6,0,0,1-.85,2.2c-4.25,2.62-4.21,8.37-8.29,11.15a4.24,4.24,0,0,0-1.25,3.33,5.92,5.92,0,0,1-2.53,5.58,6.53,6.53,0,0,0-2.88,6.74c.42,2.63-3.56,3.67-2.64,6.81s-2.38,4.27-3.75,6.32c-.67,1-1.54,2.31-1.36,3.32.65,3.8-2.29,6.29-3.65,9.05s-1.74,6.62-5.23,8.46c-2.72,1.43-1.61,5.65-4.66,7.27-2.09,1.1-2.69,3.19-2.41,5.56a3.89,3.89,0,0,1-.45,2.41c-1.39,2.13-4.59,3.08-4.68,5.94s-3.92,3.73-2.73,6.81c-2.65,1.29-2,4.64-3.78,6.29-2,1.81-1.06,5-3.62,6.5-.47.26-.1,1.75-.55,2.33-1.59,2-4,3.63-4.9,5.88s-.28,5.16-.32,7.77c-4.57,1.95-.79,7.58-4.44,10.09-.74.5-.84,2.33-.79,3.53.22,4.81-1,8.17-6.51,9.17-1.74.31-3,2.39-5.51,2.61-3.44.3-4.67-4-8-3.06-1.23-2.56-3.24-5-3.53-7.71a110.77,110.77,0,0,1-.07-15.78c0-1.07,1.33-2,1.76-3.18.88-2.31,1.62-4.67,3.42-6.49-1.66-3.85,2.35-6.12,2.64-9.44.11-1.25-.15-3,.57-3.66,5.73-5.25,7.55-12.7,11.05-19.18,1.73-3.21,3-6.72,4.89-9.78,1.67-2.8,4.1-5.09,5.52-8.28,1.65-3.69,3.57-7.31,5.41-10.93,1.65-3.26,3.06-6.72,4.9-9.79a81.81,81.81,0,0,1,5.62-8.15c2.49-3.22,0-8.06,4.18-10.21.79-5.31,6-9,5.4-14.94-.1-.89,1.44-2,2.3-2.93s2.75-2,2.63-2.78c-.76-4.58,2.6-6.84,4.58-10.08a56.59,56.59,0,0,0,4.88-9.79c1.27-3.44,3.46-6.42,4.81-9.86.59-1.48,1.93-2.61,1.81-4.54-.07-1.17.12-2.88.89-3.5,6.06-4.95,8.73-12.64,14.7-17.76,2.63-2.27,5.6-3.59,8.32-5.47s5.92-.43,8.82-1c2.59-.53,4.18,1,5.42,2.75,1.78,2.53,4.19,2.86,6.88,2.49.75-.1,2.07-.74,2.06-1.1-.07-2.43,1.17-4,2.89-5.43-1.79-5,4.41-8.36,2.68-13.4-.63-1.87,1.49-3.1,1.78-4.46.78-3.65,4.76-6.22,3.45-10.46,2.83-2.61,3-6,2.59-9.44-.33-2.84,3.39-3.74,2.78-6.84-.5-2.53-.1-5.24-.1-7.88,3.62-2.38,2.55-6.08,2.62-9.44S350,763.2,350,759.69Z"/><path d="M286.77,629.29c0,6.12-.08,12.26.05,18.4,0,1.9-.9,3.06-1.75,4.58a9,9,0,0,0,.32,9.58c1.34,2.25-.37,2.6-.64,3.87a25.65,25.65,0,0,0-.51,9c.93,5.81-3.07,10.34-3.55,15.78-.11,1.24-2.47,2.6-1.77,4.43,1.66,4.31-2.5,7-2.94,10.76-.18,1.62-2.72,3-2.45,5.53a64,64,0,0,1-.09,7.83c-4.35,2-.6,7.79-4.66,9.92.73,4.42-2.7,7.67-3.33,11.86-.54,3.56-2.83,6.79-2.48,10.81.25,2.87-2.86,4.68-2.86,8.12,0,2.94-3.24,5.74-2.5,9.36-1.93,1.3-2.07,3.5-3,5.36s-2.92,3.22-4.51,4.72c-2.22,2.08-8.11,2.4-10.64.32-1.22-1-2.87-1.87-2.84-4.07.12-7.9-.12-15.81.17-23.71.06-1.86,2.61-3.83,2.32-5.46-.74-4.22,4.3-6.47,2.91-10.83-1.23-3.87,4.24-6.51,2.55-10.73,1.22-1.9,3.81-3.78.08-5.75.26-.31.45-.74.78-.92,2.59-1.35,1.45-4.64,3.55-6.56,1.17-1.07,1.1-4.1.75-6.1-.54-3.05,3.05-3.94,2.84-6.83s-.85-5.88,2-8.41c1.78-1.54-.77-5.17,2-7,.36-.24.89-.6.9-.92.13-3.92-.23-7.91.38-11.75.51-3.17,2.83-5.67,2.68-9.47-.47-12.72-.2-25.46-.15-38.19,0-2.52,3.36-5.38,6.17-5.31,1.23,0,3.11,0,3.57.69,2.42,3.79,7.85,0,10.18,4.51C281.72,625.27,284.57,627.09,286.77,629.29Z"/><path d="M478.8,878.23a32.18,32.18,0,0,0-3.93,0c-2,.26-3.25-.67-4.43-2-.85-1-1.87-1.84-2.76-2.8-1.42-1.53-2.78-3.09-4.17-4.64,1.55-2.42,3-4.92,4.68-7.24a15.66,15.66,0,0,1,3.7-3.7c3.7-2.52,4.37-7.09,7.19-10.18-.57-2.66,1.59-3.77,3-5.34.82-.94,2.39-2.32,2.16-2.93-1.54-4,2.94-6,2.77-9.46,2.6-1.79,2-5.43,4.32-7.41,2-1.73.26-4.22,1-6.14.59-1.48,3.18-2.11,2.5-4.17-1.15-3.5,2.71-5.12,2.7-8.12s.13-6.13,0-9.18c-.19-3.49,4-5.34,2.85-9.47-.9-3.25-.18-6.95-.18-10.45,3.75-3.88,2.42-8.77,2.63-13.35,3.69-3.4,2.41-7.87,2.7-12a5.65,5.65,0,0,1,1.52-3.26c2.66-2.71,4.8-6.17,9.71-5.25,1.75.33,3.43-3.89,5.32-2.32,3.13,2.6,8.19,2.53,9.77,7.21a49,49,0,0,0,2.6,5.49c.87,1.82,2.68,3.8,2.42,5.44-.43,2.68-2,5.26-3.48,7.68-.88,1.46-3.22,2.36-3.49,3.78-.68,3.67-4.26,6.14-3.5,10.49.68,3.82,0,7.86.19,11.79.16,3.12-3.66,4.55-2.82,8.13.68,2.9.14,6.09.14,9.16-3.21,2.48-2.19,6.1-2.76,9.39s-3.82,5.68-2.51,9.43c-1.5,1.52-3.23,2.92-2.7,5.44-2.65,1.6-2.76,4.13-2.59,6.82.08,1.28.34,2.87-.27,3.8-1.8,2.74-5.16,4.09-5.23,8.45-.05,3-2.37,6-4,8.74-1.24,2.11-1.24,4.76-3.59,6.46a29.2,29.2,0,0,0-6.47,6.47c-1.7,2.35-4.72,2-6.36,3.71C484.76,879.45,481.65,877.74,478.8,878.23Z"/><path d="M442,1017.42c-.32-4.16,1.19-7.17,4.05-10.36,2.1-2.34,3.4-5.55,5.65-8.11,1.79-2.05,2.26-5.2,3.77-7.56,1.78-2.76,2.34-6.08,4.56-8.68.9-1.06.41-3.26.66-4.92.31-2.08,3.18-2.86,2.67-5.49-.32-1.66-.25-3.4,1.39-4.65,2.13-1.63,1-4,1.16-6.06.16-1.74,0-3.5,0-5.25,0-10.5,0-21,0-31.5,0-3.58,5.62-13.52,8.94-14.5,2.68-.79,6.28-.9,8.66.3,4.37,2.17,9.58,4.17,11.16,9.4.59,2,5.06,4.61.2,7-.42,2.92,1.3,6.37-1,8.72-3.06,3.11-1.15,6.61-1.55,9.88-.38,3,.23,6.16-.16,9.17-.48,3.68,2,7.91-1.86,11-.3,3.81-.06,7.79-1.12,11.37-.53,1.79-2.76,3.23-2.19,5.62.62,2.61-2.27,3.45-2.63,5.48s.75,4.39-1.43,6c-2.57,1.86.14,5.38-1.92,7s-1.15,4.32-2.77,5.42c-2.43,1.65-1.16,4.89-3.58,6.52s-.27,4.65-1.72,7.13c-3,5.17-6,9.92-12.05,11.87-1,.33-1.67,1.93-2.81.26s-3-1.7-4.66-1.35c-5.43,1.16-8-3-10.46-6.2C441.64,1023.16,442.23,1020,442,1017.42Z"/><path d="M124,896.67c-1.9,0-2.78,0-3.65,0-4,.31-6.41-1.5-7.5-5.37-.32-1.13-1.56-2-1.8-3.16a46.85,46.85,0,0,1-.57-6.17c4-2.69,4.65-8.09,8.38-10.93s5.44-7.7,10.8-8.84c2.17-.46,4.17-3.11,5.62-5.19,1.67-2.39,4.61-1.95,6.42-3.66,2.22-2.1,4-5.54,6.58-6.19,3.8-1,5.64-3.66,8.1-5.88a51,51,0,0,0,6.46-6.52c2.18-2.86,5.8-3.45,8.12-5.65a26.11,26.11,0,0,1,7.39-4.53c.74-.35,1.34-1.65,1.92-1.59,5.48.52,9.11-3.49,13.65-5.17,2.69-1,6.07-.38,9.11-.08a4.45,4.45,0,0,1,2.94,2.18c2,4,5.16,7.48,4.55,12.63-.31,2.56-1.55,4.39-3.27,5.13-3.2,1.35-5.57,3.57-8.24,5.57-2.51,1.87-6.19,2.16-8.76,4-1.9,1.33-3.81,1.48-5.71,2.19-3.36,1.28-7.11,2.14-9.72,5.05a68.08,68.08,0,0,1-5.58,5.56c-1.69,1.49-.64,4-2.68,5.54-3.65,2.78-6.05,7.23-11.05,8.25-2.52,4.28-8.07,4.41-11.07,8.27-2.67,3.43-6.29,6.1-9.14,9.4C132,895.34,128.43,898.14,124,896.67Z"/><path d="M484.34,688.26c0,4.39-.49,8.84.14,13.13.67,4.58-4.72,7.45-2.77,12.08-1.61,1.36-3,3.39-4.87,3.9-2.44.68-5.22,0-7.84.2s-3.52-2.19-5.18-3.43c.45-4.35-3.31-7.54-3.21-11.83.11-4.82.15-9.65,0-14.46-.09-2.46,1.17-5.32-1.39-7.29s.26-5.51-1.91-7c-3.66-2.56.15-8.18-4.55-10,1.23-3.73-1.06-6.58-2.72-9.38s-2.51-6-4.59-8.68c-1.91-2.48-2-6.47-4-8.75-3.58-4-1-8.37-1.86-12.45,1.81-1.88,3.71-3.68,5.4-5.67,1.4-1.65,3.16-1,4.81-1.12a48.39,48.39,0,0,1,5.25,0,3.58,3.58,0,0,1,2.3.69,17.21,17.21,0,0,0,8.26,5.54c-.14,3.46,4,5.46,3,9.31-.68,2.68,3.75,3.72,2.57,6.78s2.74,4.07,2.7,6.81c0,2.53,3.62,3.69,2.85,6.68,3.5,1.79,1.11,6,2.95,7.89s1.37,5,3.55,6.51c1.78,1.27,1.07,3.16,1.1,4.8C484.39,677.74,484.34,683,484.34,688.26Z"/><path d="M304.42,882.58c.84,0,2,.36,2.45-.06,4.23-4,7.73-9.25,12.63-12.07,5.49-3.18,2.54-12,9.2-12.8,5.86-.74,8-5.41,11.54-8.52,4.4-3.83,8.14-8.43,12.52-12.29,9.2-8.12,16-18.8,27.34-24.7,10.45-5.44,16.3-16.43,25.72-22.88,5.2-3.56,10.8-6.37,15.56-10.82s8.11-9.55,15.07-12c5.7-2,9.1-10.36,14.8-12.57,9.82-3.8,15.71-11.43,22.47-18.26,4.64-4.69,11.95-4.36,16-10.35,3-4.45,6.78-9.59,13.66-9,2.72-4.77,3.58-10.65,8.8-14,2.07-1.31,3.54-3.54,5.41-5.2.51-.45,1.5-.4,2.29-.48,5.08-.5,7,4,9.59,6.81,1.13,1.22,1,4.81.06,6.52-2.36,4.2-8.53,5.9-8.85,11.34a8.6,8.6,0,0,1-5.25,7.72c-11.3,4.24-17.88,13.87-26.22,21.49-6,5.53-11.34,13.3-18.47,15.81s-9.05,12.64-18.18,11c-.93-.17-2.17,2.94-3.54,3.23-6.41,1.37-.6,12.89-9.83,11.59-4.3,3.76-8.69,7.41-12.85,11.31s-8,8.56-12.51,12.3c-4.88,4.07-8.08,9.74-15.09,12-5,1.61-9.15,6.86-12.77,11.23-4,4.86-11.58,7.3-11.2,15.37-5,4.07-5.43,9.49-5.28,15.47,0,1.76-3,3.59-4.63,5.38,7.06,3.74,1.25,7,.14,11-1.25,4.53.38,9.52-4.33,13.45-1.91,1.59,6.92,4.69,1,8.65-3.57,2.38-.86,8-5.27,10.43-3.57,2-1.45,6.08-1.66,9.21-.44,6.39,1.08,12.92-4.85,18.26-1.57,1.41-.11,6.31.18,9.59.05.64,1,1.41,1.73,1.69.4.16,1.23-.48,1.72-.93,1.23-1.12,2.73-2.15,3.48-3.57,1.44-2.71,1.79-6.32,3.8-8.33s7.69-2.11,8-3.8c2.21-10.86,12.26-15,18.13-22.63.36-.47,1.58-.16,2.26-.5,1.79-.88,5.73,1.24,5.56,3.39-.3,3.92.54,7.64-2,11.74-3.6,5.83-6.08,12.68-9.59,18.45-2.72,4.45-2.35,13.61-11.65,12.38-7.91,6.49-16.79,16.93-21.63,28.64-2.42,5.84-4.78,10-11.27,10.89-2.69.38-4.48,1.75-4.09,4.88,1.1,9-3.37,13.42-11.75,15.36-2.1.49-3.49,3.56-5.63,4.5-7.16,3.16-13-.68-12.71-8.24.16-3.92-1.36-8.09,2.39-11.57,5.39-5-.35-15.42,8.88-18.92,1.42-.54,3.63-2.7,3.39-3.39-3.83-11.16,7.44-15.42,10.75-23.27,3.63-8.58,7.26-17.36,9.17-26.18,1.51-7,9-12.28,5.56-20.37,8.33-4,2.38-13.69,8.09-19.35,5.12-5.07.73-12.72,3.43-23.92.92-4.54,0-4.38-.12-4-.56,2.13-.8,4.34-1.38,6.46-.64,2.38.06,3.19,2.36,2.31a3.38,3.38,0,0,0,1.68-1.51c1.71-3.44,1.12-7.52-2.54-3.26-12.4,10.43-24.4,14.4-28.24,28.62a9.73,9.73,0,0,1-11.79,6.37c-3.68-.89-5.63,2-8.25,3.83-3.06,2.17-12.65-2.71-13.37-6.42-.09-.44,1-1.2,1.65-1.7,5.55-4.37,2.47-10.5,3.25-15.84C302.87,887.73,304.55,886.05,304.42,882.58Z"/><path d="M509.79,465.45c1.35,10,.17,14.54-4.36,17.76,2.18,5.82-4.71,7.84-5.41,12.91-.47,3.43-4.63,6.33-7.07,9.51-1,1.24-2.78,3.06-2.43,3.86,3.22,7.56-6.25,11.6-5,18,1.15,5.92-4.9,8.2-5.17,13-.23,4.17.93,8.69-.33,12.44-1.19,3.53-6.11,5.6-4.76,10.54-5.69,4.86-6.39,12.44-10,18.42,2.79,7.24-5.34,10.94-5.64,18a26.82,26.82,0,0,1-9.12,18.57c-6.67,5.71-7.69,11.85-1.89,18.94,2.92,3.58-1,3.75-2.77,3.89-5.74.48-10.44,5-10.24,8.79.45,8.56-7.71,14.48-5.57,23,.39,1.57.71,4.34-.05,4.84-6.68,4.34-2.6,12.89-6.55,17.34-5.4,6.07-2.5,12.54-3.24,18.8-.06.45,2.21,1.81,3.24,1.66,6.68-1,7.07-.81,6.65,4.17-.59,7.06-5.69,10.89-12.52,12.11-11.41,2-16-6.68-22.37-12.7-.86-.81-.34-3.18-.27-4.83.27-5.8.8-11.57-4.93-15.62-.76-.54-.57-4.37.06-4.64,8.13-3.56,2.3-12.52,7-17.34,5.38-5.53,2.28-12.54,2.72-18.86.26-3.77,3.59-5.79,4-8.34.83-5.09,5.48-8.07,6-12.58.59-5-.15-10,5-13.05-.91-6.22,3.38-13.36-3-18.54-2-1.62-2.19-2.25,0-3.68,1.32-.85,3.11-2.35,3.15-3.6.27-9.19.37-18.4,0-27.57-.08-2-2.74-3.84-3.51-6s-1.62-5.52-.6-6.56c3.1-3.19,5.25-6.4,4.24-10.86-1.14-5,5-6.44,4.95-10.47-.12-5.1,3.82-7.13,6.7-9.7,1.34-1.19,5.05-1.45,6.5-.44,3.38,2.34,5.76,6.14,9.14,8.47,1.43,1,5.94.43,6.41-.61,3.49-7.8,7.18-15.44,11.4-22.88,1.45-2.58-.2-7.06,1.42-9.36,5.91-8.37,9.17-18,13.74-27,4.26-8.37,11.91-13.39,18.2-19.73.77-.77,3.9-.59,4.65.27,2.85,3.28,6.55,4.13,10.32,5.6C510.13,462.11,510.25,467,509.79,465.45Z"/><path d="M224,927.8c3.07-.66,7.13,1.86,9.19-1.79,3.94-7,12.51-7,17.52-12.28,5.71-6.07,11.75-11.83,17.65-17.72,5.3-5.31,10.18-11.16,16.05-15.74,4.33-3.38,3.48-10.93,7-11.8,8.95-2.18,13-9.4,19-14.67,5.6-5,10.66-10.55,16-15.8.21-.2,1.49.17,1.65.54.61,1.41,1.68,3.19,1.26,4.36-.77,2.15-2.05,4.59-3.86,5.83-9.74,6.67-11.9,19.27-20.94,26.55-1.22,1-.17,4.79-.17,7.3-3.48-.13-5.15,1.54-5,5-5.08-.17-6.16,5.08-9.62,7.07s-7.12,3.24-10.27,5.44c-3.38,2.36-5.67,5.44-5.81,10.24,0,1.27-5.94,1.73-8,3.74s-1.87,7.21-3.88,8c-3.65,1.48-8,.57-7.91,6.73,0,1.9-2.21,4.67-4.12,5.62-17.48,8.68-28.42,24.66-42.16,37.47-10.4,9.69-20.58,19.69-30.07,30.25-4.57,5.09-10.9,6.47-16.08,10.16-6.24,4.46-12.89,0-12.85-7.33,0-4.95-1.56-11.28.87-14.55,3.81-5.14,4.33-12.24,10.14-16.1,1.82-1.21,3.88-3.85,3.82-5.77-.18-5.31,7.41-7.17,5.25-13,2.91-3,6.58-5.53,8.55-9,2.3-4.1,3.23-8.72,7.2-12.12,6.1-5.24,7.18-14.33,14.23-19.19,6.12-4.21,5.49-13.27,12.31-17.63,2.82-1.81,3.73-6.6,5.51-10,11.14,3,5.93-9.48,11.84-12.63,5.08-2.72,11.47-7.1,11.08-15.21,0-.7,2.59-2.28,3.87-2.17a7.9,7.9,0,0,0,7.89-5c6.54-14.91,19.88-23.77,30.43-35,10.86-11.59,22-23,33.86-33.55,3.73-3.34,8.8-4.1,10.57-10.46,1.18-4.22,6.65-7.23,10.2-10.78,4.14-4.14,8.14-8.44,12.47-12.38,4.08-3.72,6.82-9.67,13.86-9,.53.05,1.77-1.23,1.68-1.67-1.94-9,6.89-7.12,10.58-10.18,4-3.33,4.83-2.55,4.92,2.62,0,1.67-.06,3.35,0,5,.21,4.18-.17,7.69-3.68,11.1-16.82,16.31-33,33.25-50,49.42-4.36,4.16-6,9.26-8.72,14.06-9.33.77-13.33,8.86-19.1,14.32-4,3.74-8.62,6.77-9.55,13.69-.53,4-6.54,7.17-10.09,10.72-4.14,4.15-8.43,8.15-12.37,12.47-3.18,3.49-2.09,9.62-7.15,12.08s-4.22,8.37-7.07,12.13-7.54,5.79-8.4,11.69c-.49,3.39-5.24,6-7.49,9.36-1.69,2.52-2.39,5.68-3.71,8.48a2.5,2.5,0,0,1-2,1c-8.6-.72-6.15,5.58-6.48,10.1-3.48-.12-5.16,1.55-5,6.15,0,.37.29-.67-.08-1a2.21,2.21,0,0,0-2.12,0c-1.65,1.17-3.72,2.6-.7,4.37.41.24,1.91-1.41,2.9-3.3C222.47,933,224.14,931.28,224,927.8Z"/><path d="M264.22,594.27c0-3.34-1.29-8.74.21-9.68,7.66-4.78,2-14.24,8-19.61,4.75-4.24-1.38-13.68,6.85-17.11.34-4.76-1.14-9.59,3.71-13.66,2.68-2.24,3-6.83,5.19-10.3,7-11.11,6.61-25.72,16.23-35.83-1.62-6.37,4.45-8.22,7-12.15a55,55,0,0,0,5.32-10.31c5-12.94,12.86-23.7,22.94-33.22,3.87-3.65,5.72-9.36,9.1-13.64,3.09-3.91,9.39-6.8,10-10.8,1-6.78,6.36-9.22,9.26-13.88a62.15,62.15,0,0,0,6.18-12.41c1.58-4.74,2.54-6.72,7.68-7.05,1.39-.09,1.93-5.61,3.85-7.74a7.46,7.46,0,0,1,6.53-1.63c2.12.7,3.58,3.34,5.41,5.06,2.8,2.64,3.43,5.77.74,8.48-2.5,2.52-4.25,4.92-3.6,8.6s-.47,6.29-3.34,8.66c-8.22,6.78-14,15.18-16.78,25.62-.68,2.57-2.41,3.85-5.37,3.73-1.36,0-4,1.36-4,1.89,1.19,11.28-8.38,18.47-10.52,28.29-1.05,4.82-7.41,6.86-5.77,12.82.22.8-2.06,2.47-3.37,3.47-11.35,8.62-15.22,22-21,33.95-2.29,4.76-6.75,8.76-5.52,15.42.83,4.49-5,7.27-5.8,12.6-.73,4.95-7.58,9.17-7.92,14-.65,9.29-5.77,16.12-9.25,23.91a16.31,16.31,0,0,0-1.76,6.74c.14,5.86.33,11.34-5,15.62-1.76,1.41.87,6.45,4.17,6.88,4,.53,6.92,2.12,5.5,5.82s-4.37,8.36-7.44,9a47.48,47.48,0,0,1-19.86,0c-3.06-.67-6.14-5.51-7.34-9.09C263.24,603,264.22,598.45,264.22,594.27Z"/><path d="M307.68,711.72c-2.5,0-5,0-7.5,0-4.47-.08-5.21-1.37-5.92-5.65-1.27-7.69,2.3-13.93,5.16-20.44.63-1.41,1.3-3.15,2.48-3.92,5.83-3.75,7.55-10.15,10.52-15.72,2.62-4.92,8.85-3.37,12.1-7.05-3-9.9,7.61-5.94,10.49-10.18,2.76-4.07,6.9-7.19,10.45-10.73.58-.58,1.38-1.72,1.77-1.59,7.15,2.25,12.15-2.82,18-5.07a3.27,3.27,0,0,1,2.33.31c2.13,1.08,2.13,2.12.92,3.56-1.49,1.77-3.25,3.82-3.58,5.95-.6,4,.24,7.73-3.33,11.29-3.18,3.16-2.61,9-7.21,12-12.8,8.25-16.33,23.27-24.79,34.72-.74,10.73-7.62,13.22-16.87,12.58C311,711.62,309.35,711.72,307.68,711.72Z"/><path d="M841.68,498.16c42.1,52.83,34.16,53.31,26.23,52.55-2.38-.23-5.11,5.7-7.09-7.56a14.09,14.09,0,0,0-1.13,4c-.62,4.44-1.89,5.63-2.2,3.51-1.72-11.64-4-8.88-6.17-8.89q-45.06-.1-90.12,0c-1.7,0-3.55,2.29-5.06-.59-1.84-3.5-4.22-5.82-5.1-16.82-1-12.39-3.74-25.17-.61-39.63.82-3.78.42-8.4.55-12.7.43-14.53,1.87-22.56,4.1-22.77,1.42-.14,2.84,0,4.25,0H778c2,0,4.08-2.21,5.92.55,2.39,3.59,3-15.05,5.28-9.86.82,1.89,1.35-1.05.8-4.38-2.68-16.37-2.36-32,0-48.21.27-1.89,0-6,0-9.09,0-6.21,0-12.49,1.64-12.34,2,.18,4,1.24,5.95-.22,3.46-2.6,7.27,8.66,10.43-8.55.57-3.09,2.19-.44,3.32-.44,2.84,0,5.67.14,8.5,0,2.44-.16,5.05,3.08,7-9.22,2.81-.29,5.62-.52,8.43-1,.21,0,.5-1.89.57-3.19a10.67,10.67,0,0,0-.4-3.09,11.53,11.53,0,0,0-2.41-1.94c-2.11-1.49-4.49,4.67-6.26-7.71-.34-2.42-1.56-1.45-2.38-1.5-2.84-.15-5.67.21-8.5-.13a73.47,73.47,0,0,1-8.35-1.93c-2.27-14.76-5.32-4.33-8-7.25-2.71-17-6.39-5-9.48-9.64-2-3.07-3.7-11.8-6.1-9.82-.5.41-1.18-6-1.79-9.27a46.31,46.31,0,0,1-.14-15.82c.52-3.33,1.32-5.41,1.2-11.25a112.83,112.83,0,0,1,1.13-20.68c2-12.8,4.24-18.23,7.34-16.39,2.13,1.26,4.55,3.83,6.09-8.92,2.27,0,4.53.06,6.8,0s4.62,1.83,6.72-1.34c1.16-1.76,1.67-8.64,3.16-.9.67,3.49,1.71-9.05,3.32-7.3,1.36,1.48,2.82.3,4.24.3s2.85-.72,4.25.16c2.56,1.61,4.09-14.44,7-10,2.1,3.2,4.5.63,6.77.63h44.21c2.55,0,5.13-1.41,7.64.35,3.18,2.24,6.73-8.5,9.59,8.47.52,3.07,2.18.43,3.32.43h37.4c3.22,6.27,5.34-13.49,8.67-9.93,3,3.21,6.21.68,9.33.68H1007c3.12,0,6.23-.18,9.35.08,1.43.12,2.65-.38,3.77-6.9.73-4.24,1.09,4.6,1.75,5.1,3.59,2.74,7.19,2.77,10.79,0,1.16-10,2.09-4.94,3,1.29,1.84-13.65,4.53-8.06,6.91-8.7s4.54-.13,6.8-.13h23c2,0,4-.47,6,.14s3.6-1.95,5.35-8.57c1.15-4.34,3.31-.06,5-1,2.07-1.17,3.57,4.8,5.33,8.42,1.31,2.7,2.15,8.94,3.47,10.22s3.35-3.6,3.64,5.46c.3,9.63.62,20.39-.47,30.94-1.21,11.72-2.46,22.71-4.25,32.12-.92,4.81-1.87,6.91-3,5.44-2.62-3.44-4.27,4.09-5.74,14-.67,4.51-1.5,7.59-1.81,14.52-.56,13-2.29,19.81-4.94,17.94-1.73-1.23-2.36,11.85-4.41,9.66-1.51-1.61-3.11-1.91-4.69,5.62-1,4.78-3.17,1.8-4.79,3.3s-2.44,11.42-4.41,9.42c-1.61-1.63-3.07.18-4.6,6.86-1.06,4.59-3.22,1.64-4.89,2.07-1.91,15.77-5.54,3-7.52,12.33-2.37,11.21-4.92,2.32-7.21,6.45-2,3.65-3.68,11.76-6.12,9.36-1.92-1.89-4-.68-5.94-.28-1.63.32-2.41,12-4.41,9.48-1.35-1.7-3.22-3.41-4.17.22-3.57,13.68-7.5,6.71-11.26,8.75-2.13,1.16-4.57-4.92-6.21,8-.12.91-.49,1.14-.74,1.2-3.35.76-6.7,1.44-10,2.14-2.6,14.75-5.9,3.71-8.81,7.08-1.83,2.11-3.78-3.44-5.56,5.67-1.81,9.28-4.31,2.12-6.49,3.42-2,1.16-4,.24-6,.24-2.68,17.88-6.33,6.4-9.5,9-2.66,2.16-5.44-2.83-7.89,8.92-.8,3.82-2.76-.24-4.15.76-4.3,3.07-9-8.95-12.9,9.09-3.12,0-6.24-.2-9.35.07a39.22,39.22,0,0,0-7.53,1.69,9.82,9.82,0,0,0-.47,3.09c.06,1.28.36,3.17.57,3.18,6.49.53,13,1.52,19.47.91,2.64-.25,5.56,5.86,7.92-8,.54-3.14,2.15-.93,3.27-.94,4.82-.06,9.64,0,14.46,0h9.35c3.4,0,6.81.94,10.2-.28,2.92-1.05,6.25,7.56,8.64-8.94.62,3.08,1.25,8.85,1.85,8.74,2.12-.4,4.56,5.77,6.27-6.6.11-.73.49-1.33.58-.93,3.73,17.08,8.11,6.57,12.15,7.47,8.21,1.82,16.44,1,24.65.26,2.38-.2,5,5.06,7.11-7.55.54-3.18,2.13-1.37,3.24-1.38,9.07-.07,18.14,0,27.2,0H1078c3.11,0,6.26,1.41,9.34-.39s6.81,8.76,9.54-8.42c1.34,9.94,3.26,9,5.21,9.05,1.24,0,2.05-2.14,2.93-6.72,1.12-5.87,3.15-5.18,3.86-1.47,1.42,7.43,2.85,8.18,4.56,8a42.49,42.49,0,0,1,7.65,0c2.23.18,4.47.78,6.7,1.19,1.89,11.29,4.8,12,7,20,1.08,4,3,9,.77,19.92-.73,3.5-.28,14.47-.3,22,0,10.79.63,23.39-.17,32-1.1,11.72-3.29,20.48-5.06,30.27-.35,1.95-1,4.58-1.35,3.89-2.55-5.72-3.81,11.9-6.12,9.53-1,10.37-3.4,8-4.77,15.85-1.32,7.51-3.89-2.52-5.27,9.7-.35,3.09-2.12,3.07-3.14,2-3.71-4-6.6,16.76-10.36,9.52-1,5.19-2.69,10.25-2.72,15.6-.07,11.24-.94,19.43-1.78,28.74-.55,6.13.39,15.15-1,20.88-.85,3.52-1.38,8.59-2.73,9.21-1.54.7-2.46,11.52-4.41,9.09-1.08-1.34-2.26-.25-3.39-.22-.18,0-5.54,14.19-5.54,14.9,0,3,0,6.22.15,8.89.3,4.17.67,3.58,1.2,1.56.49-1.81.65-10.47,1.78-3.68.37,2.23.78,5.25,1.25,5.81.81,1,1.69.27,2.54.27,2,0,4-.07,6,0,1.69.07,3.37.31,5.06.47,1.59,17.1,3-4.14,4.59-.66.49,1.07,1.37-1.17,1.65.38,2.28,12.58,5.14,8.15,7.84,9.16,4,1.5,8.35-6.38,12,9.13,2.26,0,4.59,1.76,6.78-.46,2.49-2.52,4,8.11,6.06,10.83,1.87,2.43,2.78,17.72,5.35,19,.91.47,1.09,15.54,0,24.28a116.11,116.11,0,0,0-1.09,16.22c0,12,0,12.55-3,24.7-1.87,7.68-2.32,19.88-3.41,29.65-.81,7.29-1.19,19.23-2.61,20.95-2.12,2.59-3.44,14.81-5.91,12.35-1.65-1.63-3.4-1.53-4.46,8.11-2.39,1.39-4.14,15.72-6.88,10.15-1.24,10.93-4,8.71-5.46,18.17-.37,2.29-1.64.81-2.48.16a6.63,6.63,0,0,1-1.33-3.93c-.2-5.93-.14-12.12-.17-18.21-.07-15.93-.63-18.48-3.34-9.56-1.39,4.56-2.64,3-3.95,4.16-2.14,1.84-4.61-5-6.38,5.32-1.5,8.73-4-2-5.27,9.51-.22,2-.91,3.36-1.4,3.48-1.7.41-3.48,1.87-5.08-.25-2.28-3-3.39,9-5.27,9.55-1.69.53-3.4.11-5.1.11s-3.43,1.22-5.09-.27c-2.9-2.61-4.74,14.06-7.83,10.14-2.42-3.07-5.08-.62-7.63-.62h-8.5c-4.84,18.18-10.3,5.8-15.45,9.19-1.86,1.22-3.85-2.87-5.44,7.62-.48,3.19-2.1,1.61-3.2,1.64-4.25.15-8.51-.37-12.75.25-2.13.31-4.49-4.61-6.24,8-.43,3.07-1-12.08-2.29-4.9-.88,4.85-1.77,6.19-3,6.1-4.25-.34-8.51-1.29-12.74.21-3.76,1.34-7.86-8-11.21,8.91-3.68,0-7.37-1-11,.34-2.38.84-5.12-6.63-7.13,7-.07.45-.88-1.29-1.14-3-1.12-7.22-3.09-6.85-3.85-3.78-4.39,17.71-9.27,4.42-13.83,8.68-1.55-12.41-4-10.93-6.07-8.67s-3.69,11.25-6.14,9.08c-2.2-2-4.52-.58-6.78-.37-2.44.23-4.18,12.87-7,9.78-2.45-2.72-5.08-.57-7.63-.57h-15.3c-2.56,0-5.11-.11-7.66,0-1.63.09-3.44-2.51-4.52,7.56-3,2.77-6.07,2.7-9.1,0-1.66-11.81-3.13-9-4.77.76-.4,2.36-1.61.82-2.45.83-4.53.05-9.08-1.24-13.59.43-3.49,1.29-4.72-13.75-6.79-22.89a18.61,18.61,0,0,1,.31-3.07c2.33-6.29.26-21.21,1.83-28.2,1.34-6,1.12-13.34,1.09-20.78,0-5.64.54-7.58,1.45-8.85,2-2.86,3.59-11.38,6.11-9.8,3.92,2.44,7.94,2,11.88.23,3.47-1.58,7.23,8.68,10.46-8.27.73-3.86,2.73-.57,4.15-.57,2,0,4-.47,5.95.13s3.73-.57,5.33-8.89c.6-3.08,2.21.28,3.31-.63,4-3.31,8.35,8.23,12.12-8.69.68-3,2.22.29,3.33-.55,4.58-3.47,9.46,8.63,13.81-8.72.74-2.94,2.21-.41,3.34-.41,4.82,0,9.64.64,14.46-.28,2.37-.45,5,5.08,7.1-7.64.53-3.17,2.13-1.26,3.24-1.3,3.69-.11,7.41-1.74,11,.5,3,1.81,4.71-14.08,7.83-10.53s6.21.74,9.33.74c2.83,0,5.66.36,8.5-.13,1.87-.33,3-12.07,5.26-9.63s4.52.5,6.78.5a49.39,49.39,0,0,1,6,0c2.47.31,4.13-13.34,7-9.91,2.43,2.94,5.07.61,7.62.61,4.28-16.78,9.15-6.91,13.75-9.12,3-1.43,5.35-13.47,8.67-10,3,3.1,6.21.65,9.33.65,5.76-17.14,12-6.59,18-9a11.13,11.13,0,0,1,8.5,0c2.56,1,4.18-16.38,7-9.67.11.26.61-2.16.57-2.79-.11-2.23-.33-5.76-.6-6-.83-.79-1.69-.29-2.54-.29-2.84,0-5.67.32-8.5-.09-2.66-.39-5.46,3.66-7.81-7.88-.23-1.16-1.06,11.84-2.32,3.22-.74-5.12-1.13-1.39-1.84.5-2.29,6.11-4.71,8.47-6.85-1.77-.61-2.94-.78-4-1.25-.2-.31,2.43-.79,5.88-1.21,5.94-2.83.4-5.69,1.52-8.45-.87-1.08-.93-2.22-12.94-3.44-6.63-1.44,7.46-2.88,7.83-4.56,7.82-9.35-.08-18.7-.55-28,.35-2.11.2-3.65-8.92-5.24-8.69-3.18.47-6.8-9.43-9.63,7.3,0,.09-1.13-5.33-1.73-8.18-2.4,16.43-5.72,7.85-8.64,8.9-3.39,1.21-6.8.28-10.2.28-3.12,0-6.24.41-9.35-.32-.69-.16-1.3-5.31-2-6.48-1-1.65-2.54-4.53-3.15-2-3,12.35-6.33,8.3-9.57,8.67-4,.45-7.94.92-11.9-.18-2.65-.73-5.66,6.45-7.88-7.86-1.95,11-4.5,8.86-6.86,7.87-2.92-1.24-6.25,7.56-8.65-9-2.07,16.21-5.16,7.85-7.8,8.94-3.1,1.28-6.23.3-9.35.3-2.83,0-5.69,1.35-8.49-.32-4-2.4-8.35,8.41-12.12-8.5-.68-3-2.21-.43-3.34-.43-9.63,0-19.27,0-28.9,0-1.64,0-3.26,1.58-4.59-7.33-.73-4.89-2.06-2.39-2.82,3.12-.59,4.25-1.76,6.3-2.18,3.92-2-11.57-4.57-8.71-7-8.89-2.27-.17-4.54,0-6.81,0-1.79,12.93-3.55,11.57-5.43.21-.25-1.53-1.09-.21-1.66-.21h-22.1c-2,0-4,.58-5.95-.18-1.61-.62-3.45,4.16-4.79-3.85-1.65-9.94-3.71-3.5-5.56-5.16-1.6-1.44-1-9.77-1.47-13.37-1.33-9-2.56-15.27-.43-26.61.75-4,.39-14.24.52-21.65.21-12.75,1.94-21.66,4.3-21.69,7.09-.08,14.18,1.12,21.25-.7,2.26-.58,3.35,10.37,5.25,9.76,3.22-1,6.73,5.92,9.5-9.09,2,0,4,.28,6-.21.46-.11.9-2.85,1.35-4.38-.4-2.19-.82-4.24-1.18-6.57-.76-4.81-1.87-5.41-2.79-7.94-3.4-9.33-3.83-25-1.29-39.82,1.2-7,2.31-13.18,1.87-23.67-.22-5.37.41-10.19,1.21-9.58,2.12,1.65,3.53-6.34,5.28-9s3.94-.62,5.92-.62c3.4,0,6.86-2,10.19.67,2.34,1.87,3.12-11.77,5.27-10.27s4.53.34,6.79.34c2,0,4,.14,6,0s3-12.81,5.27-9.64c1.6,2.21,3.38.43,5.08.43h6c1.7,0,3.51-2,5.08.48,2.37,3.83,2.91-14.2,5.3-10.23,1.55,2.6,3.37.49,5.07.49,2,0,4-1.67,5.94.4,2.71,3,4.23-13.08,7-10.12,2.18,2.34,4.51.47,6.78.47H913.6c2.55,0,5.1,0,7.65,0,.26,0,.55-.3.77-1a13.53,13.53,0,0,0,.58-3.25,10.76,10.76,0,0,0-.42-3.08c-1.08-.85-2.18-1.8-3.26-1.82-9.07-.13-18.14-.08-77.24-52.91-50.3-54.62-50.53-56.68-50.86-58.1-.15-.67-.58-.65-.71,0a20.08,20.08,0,0,0,0,3.88,25,25,0,0,0,1,4.2C791.17,448.37,791.45,446.4,841.68,498.16ZM947.42,282.63c-4.51,0-9-.1-13.53.25-.25,0-.54,3.63-.69,5.82a9.2,9.2,0,0,0,.56,3c8.46.16,16.91.19,25.37-.11.25,0,.54-3.64.7-5.82a9,9,0,0,0-.57-3.05C955.32,282.58,951.37,282.63,947.42,282.63ZM938.88,551c3.94,0,7.89,0,11.83-.13a7.79,7.79,0,0,0,.58-2.87c-.12-2.21-.39-6-.61-6-7.32-.31-14.65-.28-22-.13a7.79,7.79,0,0,0-.58,2.87c.12,2.22.39,6,.61,6A90.35,90.35,0,0,0,938.88,551ZM1084,816.07c-.19-1.94-.4-4-.6-6a17.55,17.55,0,0,0-.53,3c.08,2.18.34,4.16.53,6.21C1083.58,818.34,1083.77,817.31,1084,816.07Zm-5.7-6a18.69,18.69,0,0,0-.54,3c.09,2.18.35,4.16.54,6.21a18.38,18.38,0,0,0,.53-3C1078.73,814.14,1078.48,812.16,1078.29,810.11ZM905.1,466.37c.23-1.23.42-2.26.6-3.29a13.84,13.84,0,0,0-1.14-2.89c-.14-.17-.37,1.86-.56,2.89Z"/><path d="M446.16,336.1c-2.82,2.82-6.06,5.07-8,8.14-5.88,9.53-15.13,7.28-23.71,7.35a6,6,0,0,1-3.61-1.88c-3.18-3.07-6.18-6.32-9.25-9.5,2.47-6.42-3.2-10.59-4.35-16-.44-2-.52-5.63.54-6.22,5.07-2.87,2.39-10.19,7.74-12.55.17-5.13-.78-10.63.79-15.28,2.29-6.75,5.18-13,4.34-20.52-.73-6.6.09-13.35-.24-20-.21-4.27,2.1-9.34-1.37-12.65-3.25-3.1-3.33-6.4-2.92-10,.53-4.77-.72-8.58-4.53-11.52,1.1-7.62-3.53-13.34-6.66-19.5-.92-1.8-4-4.5-4.46-4.21a35.39,35.39,0,0,0-6.41,6.08c-.39.43-.16,1.39-.29,2.09-1.19,6.87,3.33,15-4.44,20.42,0,6.68.34,13.38-.12,20-.33,4.8-5.72,7.89-4.54,13.78,1,5,.2,10.35.2,15.55v15.58c0,5.19.12,10.39,0,15.58-.13,4.22,1.13,8.58-3.21,12.18-1.59,1.32-.82,5.42-1.22,8.24-1.56,11.24,3.54,23.09-4.12,34-2.1,3-.07,8.7-.39,13.13-.39,5.57,2.25,11.8-3.76,16.36-1.14.86-.3,4.16-.66,6.28-.82,4.84,2.16,10.09-2.53,14.59-4.24,4.07-.79,9.89-2,14.72-.66,2.66-4.8,3.37-4.4,7.09.47,4.38-3.2,3.42-5.67,4.59-3.15,1.5-5.64,4.51-8.2,7.08-3.27,3.26-3.09-.46-3.85-1.86-1-1.8-1.16-4.36-2.57-5.54-4.86-4.06-7.87-8.58-6.41-15.24a7.11,7.11,0,0,0-2.92-7.7c-3-2.21-2.12-6-1.27-8.17,2-5.2,5.19-9.79,4.83-15.92-.13-2.19,3.56-1.54,5.62-2,.84-.18,1.38-1.78,2-2.73-5.6-3.48-3.66-9.08-3.78-14-.18-8.15-.41-16.34.07-24.47.38-6.24-2.44-13.09,3.71-18.6,1.53-1.37.6-5.6.61-8.51,0-24.48-.2-49,.16-73.46.1-6.29-2.09-12.82,2.41-19,4.07-5.62-.51-13.76,2.41-18.9,2.72-4.77,5-9,3.76-14-1.5-6,7.16-7.74,4.7-13.81-2-4.91,5.43-6.67,4.39-11.48,4.93-5.38,9.49-11.19,15-15.93,2.39-2,6.91-1.46,9-4.92,8-.51,16.59-2.75,23.61,1,4.73,2.52,10.8,3.2,14.38,8.85s10.52,8.94,13.34,14.6c3.05,6.12,6.09,12.3,9.1,18.48,2.7,5.53,6.51,11.22,4.65,18.09-2.06,7.58,7.48,12.63,4.45,20.42,4.72,3.53,4.58,8.48,4.54,13.74-.2,20.77-.08,41.55-.08,62.33,3.33,7.24-5.15,11.47-4.56,18.2C446.57,324.45,446.16,330.39,446.16,336.1Z"/><path d="M832.45,396.15c3.59-1.66,7.75.7,10.28-4.36,6.14-12.27,13.95-23.93,19.67-36.32,2.51-5.43,10.07-6.72,10.93-13.59.61-4.85,8.11-9,8.85-13.92,1-6.78,8.19-8.69,10.6-13.67,1.18-2.43-.17-5.86,4.7-6,2.52-.07,5.23-.53,7.51.09,5.34,1.45,10.63,10,8,14-6.17,9.34-11.44,19-16.9,28.66-1.39,2.46-5.5,3.81-6.74,6.28-1.55,3-.72,7-2.22,10-1.17,2.4-4.15,3.83-4.53,7.14-.27,2.4-4,4.44-4.55,6.93-.84,3.46-.41,7.2-.08,10.78.08.94,1.81,1.76,2.78,2.63l1.78-1.53c1.78-1.53,5.31-3.34,5.06-4.55-1.63-7.61,4.42-11.46,8.91-16.55,3.63-4.11,3.87-10.5,7.65-14.43,4.64-4.84,6.52-10.84,11.7-15.64,5.53-5.11,7.48-13.08,12.26-19.29,1.13-1.47-.24-4.8,2.48-5.45,3.1-.75,6.9-1.1,9.84-.24,8.14,2.38,11.18,12.15,5.07,17.33-5.09,4.33-8.76,8.44-7.16,14.89.75,3-1.44,5-3.11,7.57-4.64,7-6.92,15.19-14.36,20.91-1.55,1.19-2.34,3.58-2.57,5.5-.58,4.79.59,9.34-4.24,13.85-3.19,3,.7,9.89-5.67,13-.41.2-.42,1.36-.24,2,.36,1.3.58,2.93,1.6,3.69s3.57,1.38,4.41.84c3.93-2.51,7.15-7.19,11.28-7.8,6.19-.92,6.6-3.83,8.93-7.61,3-4.88,9.07-8.37,13.82-12.45-.68-7,6.77-9.23,10.68-13.53,1.51-1.65,4.85-3.65,4.46-4.75-3.15-9,8-11.77,10.23-18.17,2.6-7.43,10.17-10.95,15.65-16.05,5.21-4.86,18.23-1,19.72,5.53a4.66,4.66,0,0,1-.85,4c-4.87,4.71-11.18,8.32-9.59,16.33.47,2.36-6,4.68-4.62,9-8.65,4.34-9.79,12.22-12.38,19.43-2.29,6.38-9.37,11.31-7.8,18.89-4.13,3.77-6.27,8.15-4.93,13.34.23.88,2.61,2.27,2.93,2.08,7.88-4.63,18.8-7.15,21.71-15.59,1.92-5.58,6.74-7.81,10.19-11.56,2.58-2.81,5.85-5.16,8.82-7.71s1-6.72,5.19-9.11c3.12-1.79,6.06-4.15,6.93-8.32.63-3,5.12-5.26,7.37-8.14a65.81,65.81,0,0,0,5.38-8.9c1.33-2.41,1.9-5.24,3.7-7.32,2.49-2.86,6-5,8.73-7.78s6.12-1.39,9.24-1.8c2.9-.37,5.18.82,5.42,3,.47,4.3-.14,8.67.23,13,.28,3.35-1.64,5.46-4.34,7.13-4.27,2.63-4.42,7.61-7.39,10.25-4.36,3.86-3.38,7.81-3.4,11.91,0,3-.63,5.31-3.29,7.57-4.12,3.49-.93,8.21-1.86,13.26,0,.33.3-.57-.08-.89a2.51,2.51,0,0,0-2.13,0c-1.65,1-3.73,2.25-.69,3.78.4.2,1.91-1.22,2.91-2.86,8.6-2.83,11.06-12,19-13.66,5.51-1.16,6.61-3,6.35-7,6.18-2.23,3.24-9.49,8.9-12s4.38-9.27,9-11.83c6.14-3.4,5.83-10.12,10.7-13.56s5.6-8.27,8.79-12.13a13.14,13.14,0,0,1,18.95-1.6c5.14,4.28,5.15,4.29.92,10.46-.41.6-1.72,1.09-1.66,1.54a53.52,53.52,0,0,0,1.33,5.88c1.18-.49,2.42-.92,3.55-1.49,6.8-3.4,6.63-3.22,10,2.76,4.28,7.54,10.46,14.89.75,22.72-1.07,11.18-8,20.35-14.45,29.51-3,4.33,1,9.7-4.82,13.7-3.08,2.1-4,7-6.51,10.52-1.53,2.11-.59,5.51-1,8.31-.07.56-1,1.21-1.72,1.51-7.32,3.11-6.79,10.93-12.37,15.17-2.77,2.1-5.37,3.13-8.65,1.58-2.08-1-3.78-3.27-5.84-3.45-6.58-.6-6.86-2.26-2.12-5.72,1.22-.89.46-1.81-1.22-3.09-3.13-2.39-5.85-5.19-9-7.58-2.65-2-4-4.13-3.87-7.36.33-6.34.1-12.7.1-18.79-2.1-.25-2.94-.57-3.25-.35-1.29.92-2.41,2-3.6,3-11.88,10.22-24.34,20-35.4,30.83-6.33,6.2-13.53,4-20.65,4.37-.82,0-2.5-2-2.56-3.14-.29-5,0-10.12-.25-15.16a4.55,4.55,0,0,0-2.68-3.13c-1.37-.53-3.77-.62-4.82.09-5,3.39-8.9,7.45-15.62,9.57-5.72,1.81-10.26,7.34-14.27,11.91-3.34,3.8-8.8,3.37-12.27,6.08-5.81,4.52-13.43,3.83-18.49,1.77-5.59-2.3-1.36-9.17-2.36-13.95,7.7-4.24,2.54-13.68,9.93-18.28,1.06-.66,1-4.61-1.93-5.43-2-.57-5.21-.42-6.64.65-6.9,5.15-12.41,12.53-20.27,15.64-8.16,3.23-13.08,8.56-18.5,13.56-4.78,4.41-9.86,4.26-15.69,4.41-5.09.13-6.82-1.13-7.85-5.74-.77-3.47-6.25-5.92.11-9.79,1.6-1,.37-5.48.22-8.36,0-.54-1.26-1.56-1.59-1.47-1.21.35-3.14,1-3.24,1.67-1.15,7.65-6.25,10.88-14.95,10.59-4.19-.14-8.42.19-12.57-.17-1.07-.09-2.67-1.91-2.75-3-.33-4.23-.14-8.48-.14-13.14-12.49,6.55-13.41,6.61-19.93,16.64-3,4.56-7.48,7.43-11.18,11.14-2.3,2.31-5.13,2.81-8.29-.23s-9.22-1.05-10.33-4.47-2.2-6.65-5.67-8.84c-1-.66-3.1-1.68-3.43-1.4-7.27,6-14.36,12.16-21.48,18.3.32,5.41-2.46,7.2-8.86,7.05-6.14-.14-11.36-.69-15.21-5.29-2.17-2.59-3.05-3.58.56-7.3,4.56-4.71,4.28-8.79.74-13.49-5.49,4.33-10.16,10.36-16.54,12.38-6.92,2.2-10.36,6.73-15.18,10.29-5.72,4.22-10.72,9.15-16.14,13.69-4,3.36-10.94,3.52-15.4.51s-8.09-10.64-4.75-12.95c5-3.48,3.35-9.33,8.44-12.52,2.83-1.77,1.57-5.09-1.34-7.25-3,2.56-5.91,5.13-8.87,7.68-4.74,4.09-9.15,8.55-14.35,12.15-4.25,2.95-10.57,3.23-13.89,7.75s-9.58,3.81-13.39,2.24-8.85-4.56-7.54-10.05c.33-1.39.57-3.09-.06-4.29-1.3-2.46-3.33-2.2-5-.14a6.16,6.16,0,0,1-6.53,1.95c-3.66-1.06-5.51-4.95-10.58-4.46-2.21.21-3.27-2.67-3-5,.28-2.08-.46-5,.87-6.12,6.4-5.54,6.59-13.86,12.4-19.47,1.58-1.53,2.4-2.5.26-3s-5-.88-6.7,0c-4.21,2-6,7.53-11.37,7.65-6.54.16-4.86,4.42-6.26,7.26-.31.61-1.36,1.57-1.71,1.46-5.89-1.73-7.8,4.82-13,4.51-6.77-.39-3,5.7-6,7.51-3.18,1.92-8.19.93-10.34,4.65-2.52-1.17-5-2.4-7.61-3.47-.68-.28-1.9.26-2.45-.09-3.71-2.28-7.3-6-11,0-4.74-.38-7.95.46-7.8,5.57.07,2.16-2.17,3.3-5.18,3.25-4.88-.08-7.06,3.75-9.4,6.34-7.09,7.86-7.08,8.07-15.59,4.43-2.08-.88-4.36-1.41-6.51-2.17-6.1-2.14-1.08-3.72.37-5.52,2.29-2.84-6.89-4.26-1.21-7.71,4.19-2.55,1.82-6.59,2.3-10,.07-.53-.69-1.19-1.17-1.72-1.15-1.24-1.87-.26-3.65.69-4.76,2.54-4.26,7.34-7.07,10.58-4.63,5.33-6.46,6-13.76,2.08-4.18-2.22-8.09-.59-11.91-1.56-.86-.22-1.82-2.68-1.74-2.72,5.39-2.89,4-7.49,4-11.66,0-2.89-.31-5.87,3-7.58,7.87-4,7.3-10.55,8.57-19,.49-1.32-.64-.73-1.41.1a1.65,1.65,0,0,0,0,1.82,2.49,2.49,0,0,0,2.12,0,9.29,9.29,0,0,0,2.29-2.56c.1-.17-1-.87-3,.62-4.57,2.57-8,.77-10.87,3.47a130.81,130.81,0,0,1-14.28,12.22c-6.19,4.32-9.12,12.52-19.2,12.36-5.93,5.11-11.21,11-18,15.05-5.23,3.08-11,5.35-15.65,9.35s-17.57.95-18.6-4.5c-1-5.29-3.17-11.35,2.45-16,1.78-1.46,2.38-2.26.25-3.08-1.4-.54-3.68-1.27-4.52-.72-3.92,2.53-7.2,7.39-11.24,7.84-6.53.73-7.32,3.49-8.7,7.8-2.06,6.41-11.55,4.6-15.56,9.23L312.8,458c.87-4.82-1.31-9.67,1.73-14.58,6.56-10.62,13.59-21.05,18.66-32.36,1.39-3.09,5.18-5.49,8.24-7.85,1.84-1.41,2.18-2.26-.24-3.09-1.45-.49-3.61-1.07-4.64-.5-2.73,1.48-6.29,3.18-7.27,5.49-3.52,8.35-8.72,14.75-19.51,16.53-2.69,3.64-2.78,8.53-10.3,9.39-4,.46-7.32,5.58-10.73,8.77-3.88,3.61-9.34,7-10.82,11.26-2.08,6-3.31,4.44-7.11,1.48s-9.81,1.12-13.63-3.09c-2.34-2.58-6.93-4.49-1-7.72.12-6.28,3.79-11.62,6.12-17.32.19-.47-.43-1.28-.88-1.8a4.78,4.78,0,0,0-1.69-1.19c-4.87,3.56-8.86,7.48-15.61,9.57-6.51,2-9.49,9.7-16.91,11.91s-10.86,8.54-16.9,12.05c-4.66,2.71-2.08,8.19-6.93,10.73-2.64,1.38-3.8,4-7.37.71-3.16-2.89-9.08-2.15-12.17-6.16-2-2.65-3.73-5.43-.85-7.34,5.09-3.37,2.48-7.93,4-11.71,1.19-3.06,6.18-4.82,4.82-9.13-.22-.67,0-1.44,1.43-4.15.5-1.31-.63-.73-1.4.1a1.61,1.61,0,0,0,0,1.82,2.47,2.47,0,0,0,2.11,0,9.17,9.17,0,0,0,2.3-2.56c.1-.16-1-.87-3,.62-6.54,1.93-8.68,6.95-14.38,6.94-3.88,0-.26,7.7-5.6,7.87-5.06.16-7.2,3-10.11,5.34-3.06,2.47-6.36,4.84-8.84,7.72-3.41,3.95-7.66,4.6-13,4.69s-7.91,4.07-10.12,8c-3.41,6-3.56,6-9.93,2.85a46.91,46.91,0,0,0-6.45-2.3c-2.53-.79-4-1.94-3.81-4.57.27-3.6.89-7.41-.1-10.81-2.43-8.3,8.14-13.84,5.67-21.94a23.7,23.7,0,0,0,9.17-16.14c.83-6.31,9.26-10.61,5.58-17.71-.17-.33.7-1.46,1.29-1.61,7.24-1.79,14.6-1.17,21.93-.49.65.07,1.74,1,1.7,1.48-.31,4.86,2.55,10.44-1.6,14.4-3.91,3.74-4.14,8.72-7.84,12.62-2.47,2.6.62,8-4.24,11.49-2.69,1.92-1.12,6.85,1.32,7.1,2.28.24,4.73.71,6.89-1.36,4.48-4.3,9.48-8.2,14.15-12.36,2.35-2.09,5.13-2.86,8.26-3.86,4.21-1.36,8.43-4.21,8.62-9.3.08-2.25,1.8-3.84,5-3.42a7.29,7.29,0,0,0,7.57-4.7c3.06-7.8,10.09-12.62,16.37-18,3.52-3,6.17-6.06,7.4-10.45.64-2.32,4.46-5.54,7-5.63,9.91-.34,10.74-7.1,13.85-12.56,3.56-6.24,7.5-12.26,14.13-16.72,3.92-2.63,8.05-1.34,11.92-1.14,3.07.16,7.28,7.26,7.58,10.14.63,6-5.53,9.65-6.81,15-7.86,3.56-7.57,12.13-14.13,16.75-5.61,3.95-5.68,11.45-9.82,15.78-5.68,5.95-9.33,12.82-14.65,18.81a2.24,2.24,0,0,0,0,2.12,32.07,32.07,0,0,0,2.28,3.53c2.38-4.89,11.32-2.1,12.64-7.77a11.79,11.79,0,0,1,3-5.48c2.71-3,6.77-3.36,10.29-4.85,2.1-.88,2.33-6.67,3.77-6.78,7.88-.61,8.36-4.44,8.59-10,.17-4.33,4.42-7.27,9.55-8.37,7.52-1.61,11-5.66,10.33-12.28-.47-4.41,4.22-5.76,6.5-8.54,2.79-3.38,9.2-4.9,8.52-9.92-1.45-10.74,9.42-11.47,16.14-15.63.63-.39,1.47-1.35,1.74-1.24,6.44,2.78,6.63,9.34,10.85,13.4,3.34,3.21-1.23,3.18-1.92,4.66a238.29,238.29,0,0,1-19.87,34.1c-2.85,4.11,1,8.94-3.32,11.82-4.12,2.71-3.54,6.13-3.48,10.64v-1c-.75,0-1.71-.26-2.21.05-1.66,1-3.73,2.24-.7,3.77.41.2,1.91-1.22,2.91-2.85,5.37-.27,9.63-1.53,13-5.52,2.8-3.33,2.17-8.09,7-10.63,3.5-1.85,4.71-5,5.88-8.73s11.72-1.54,9.92-9l14.25-12.28,12.48-10.73c8.86.56,8.37-4.57,8.25-9.74,0-1.17,1.13-2.57,2.18-3.5a37.85,37.85,0,0,0,9.27-11.9c3.52-7.13,9.23-7.29,15.32-2.16,2.4,2,5.18,3.85,7,6.22,1.12,1.49,1.78,4.43.83,5.69-6.86,9.06-11.59,19.05-17.61,28.47-2.67,4.19-3.59,9.28-8.93,12-4.59,2.34-2.61,7.67-7,10.62-7.19,4.83-9.25,12.25-11.53,19.68a38.13,38.13,0,0,1-8.31,14.32c-1.34,1.47-1.85,2.28.5,3.08,1.46.49,3.94,1.05,4.67.43,6.9-5.78,16.15-9.87,18.67-18.93.33-1.21,2.68-2,2.95-3.25,1.3-5.85,12.47-.67,12.17-8.35-.17-4.23,5.28-6.27,6-11,.62-4.24,9.38-5.57,9.3-11.82,0-1.61,2.78-3.31,4.44-4.84,3.43-3.14,7-6.2,10.46-9.29-2.08-5,4-7.13,5.47-11.1,2.59-7.12,11.46-10.35,17.29-8.14,7.62,2.89,9.05,9.69,4.4,17.91-6.83,12.06-13.29,24.25-21.21,35.85-1.93,2.83-1.77,6.84-5.58,8.81-8.94,4.59-10,14.37-17.7,19.81a7.11,7.11,0,0,0-2.68,5.42c.13,3.85-.76,7-4.54,9.29a15.14,15.14,0,0,0,2.43,2.68,3.05,3.05,0,0,0,2.43,0,28.19,28.19,0,0,0,5.92-3.37c13.74-11.7,27.1-23.74,41.14-35.15,7.8-6.34,10.61-15.62,19.33-21.49,7.88-5.3,16.13-11.23,21.05-18.48,4.65-6.85,10.62-12.2,16.4-18,1.36-1.36,1.66-3.93,1.5-5.88-.28-3.25,1.38-5.27,3.91-7.37s2.86-2.29,7.2-.23c4.11,2,9.18,2.18,12.29,6.08,2.16,2.71,3.21,5.12.38,7.4s-3.24,4.47-3.77,7.45c-.43,2.37-5.2,3.33-4.82,6.92.36,3.41-3.57,4.53-5.62,6.63a57.48,57.48,0,0,1-7.12,6.12c-2.19,1.6-2.47,3.55-2.32,5.71.2,2.89.36,5.87-3,7.59-7.87,4-7.3,10.55-7.1,18,.78-1,0-1.74-2.33-1a3,3,0,0,0-1.67,1.3,7.06,7.06,0,0,0-.93,3.67c.18,1.16,1.28,2.21,2,3.31,1-.75,2.44-1.36,2.83-2.29.49-1.2.12-2.66.12-5,7.26-2.18,9.5-8.55,14.89-11.65-.89-7,8.85-8.7,9.85-13.62,1.19-5.84,5.62-8.62,9.69-11.62,7.58-5.59,13.09-12.52,15.62-20.32,2.06-6.38,12.17-7.85,10.89-15.64-.26-1.53,2.52-2.17,3.26-.92,2.58,4.35,9.49,2,12.19,6a6.7,6.7,0,0,0,1.75,1.53c2.87,2.08,4.21,5.53,1.49,7.16-5.22,3.13-2.85,9.39-8.51,12.32-4.13,2.15-7.09,5.95-10.58,9,2.15,5-5.82,6.57-5.08,11.12a2.37,2.37,0,0,1-.37,2c-4.65,4.12-9.39,8.16-14.11,12.22,1.6,6.63-3,12.23-6.2,17.1-3,4.58-3.61,10.62-9.38,14.1-1.18.71-.17,4.1-.17,7.22,0,.32.29-.58-.09-.9a2.51,2.51,0,0,0-2.13,0c-1.65,1-3.73,2.24-.69,3.77.4.2,1.91-1.22,2.91-2.85,5.36-.28,10.48-1.14,12.73-5.62,2.62-5.21,6.36-9.38,10.6-13.64,3.39-3.41,4.72-8.34,6.91-12.62.31-.61,0-1.66.47-2,18.51-12.42,22.3-32.69,34.79-48.32.82-1,.09-2.89.82-4,2.92-4.5,12.48-7.63,17.12-5.81,6.53,2.57,10.25,10.85,5.47,16.08-2.77,3-1.58,7-5,9.16-3,2-3.51,4.55-3.26,7.55.17,2.07.51,4.28-2,5.77-9.9,5.8-10.3,16.78-17.57,24.15-1.67,1.7-.65,5.55-.38,8.38.07.72,2.91,1.92,3,1.86,4.82-5.2,16.43-3.83,17.07-13,6.12-5.76,12-11.73,18.43-17.22,4.27-3.65,8.36-7,6.83-12.8-.17-.64-.19-1.75.24-2,12.39-7.57,12.6-22.48,24.66-30.42,1.56-1-.41-6.29,4.15-6.17,5.5.15,11.69-2.42,16.53,2.14,2.26,2.14,4.42,4.54,7.21,6a6.6,6.6,0,0,0,6.81-.81c1.25-.92,1.91-4.84,5.27-1.62,2.8,2.68,5.91,5.12,8.86,7.69,2.61,2.28,2.6,3.84.25,7.4-8.47,12.81-15.78,26.16-23.23,39.41-2.25,4-7.89,7.53-5.44,13.25,1.09,2.53-1.54,3.93-3.35,5.24-4.69,3.38-7.52,7.08-7,12.83.2,2.16-3.72,4.41-4.49,6.91-.49,1.57.81,4.52,2.37,5.34s5.59,1.33,6.5-1.23c1.45-4,1.58-8.5,8.78-7.52.54.08,1.51-2.18,2.29-3.34,3.91-5.84,5.2-13,11.88-17.46,1.27-.85,3.24-2.24,3.08-3.13-1-5.47,7.35-7.7,5.84-13.17,6-2.31,2.82-9.7,8.89-12s4.16-8.93,8.87-12c3.36-2.21.88-6.75,5.22-9.1,3.19-1.71,2-6.08,5.17-9,3.69-3.44,9.9-1.63,12.47-5.88,1.12-1.85,3.27-1.79,3.38.22.37,6.62,6.74,9.34,10.94,13.63-3,2.51-6.32,4.8-8.82,7.64-1.81,2.06-2.38,4.9-3.69,7.31-4.6,8.48-9.75,16.74-14.46,25.18s-9.73,16.72-14.29,25.24c-1.64,3.09-5.2,5.46-4.17,9.34,1.15,4.31-4.51,5.58-5.08,9-.38,2.3.47,4.47,3,5.07,2.24.54,6.06.67,6.45-1.71,1.31-8,9.28-11.31,14.48-16.53,3.27-3.28,7.92-5.75,10.36-9.37,1.91-2.84,1.85-6.69,5.6-8.8-1.44-7.7,8.74-9.34,10.92-15.65,1.94-5.59,4.48-11.73,10.42-15.76a4.78,4.78,0,0,0,1.74-1.53c2.47-5.65,5.49-11.55,9.43-16,4.41-5,7.57-10.51,12-15.39.49-.54,1.3-1.1,1.32-1.68.12-2.86-.27-6,4.61-6,4,0,8.18-.87,11.35,2.66,2.55,2.84,5.85,5.17,9.33,8.17q-6,5.13-11.94,10.28c-1.72,1.49-3.86,2.82-3.19,5.36,1.25,4.72-3,7.59-4.71,11.32s.92,8.65-4.54,11.39c.38,4.57-5.42,7.07-5.6,10.91-.22,4.59-7.35,6.23-5.33,11.2-7,3.91-4.79,10-5,16.5,0,.32.3-.57-.08-.9a2.55,2.55,0,0,0-2.13,0c-1.66,1-3.73,2.25-.69,3.77.4.21,1.91-1.21,2.9-2.85,3.21-.26,4.43-2.62,6-4.09s3.65-3.26,3.84-5.05c.26-2.45,1.61-3.88,3.35-5.38,1.19-1,2.43-2,3.56-3.08,1.61-1.53,3.51-2.66,3.63-5.29.07-1.76,2.59-3.35,3.42-5.21a25.57,25.57,0,0,0,1.38-6c.25-1.38-.27-3.55.59-4.06,12-7,11.59-21.41,23-28.83,3.16-2.05.76-7.16,5.42-8.87.84-6.11,6.1-9.67,10.72-13.53,6-5,16.53-3.15,20.67,3.77.69,1.14.8,3.26,0,4.2a57.27,57.27,0,0,1-7,6.23c-1.8,1.51-3.64,3-3,5.45,1.39,5-2.19,7.93-5.89,11-1.7,1.4-4.46,3.94-4,4.88,3.54,6.75-6.57,9.77-5.31,15.67-6.92,3.93-4.78,10-5,16.58.78-1,0-1.74-2.34-1a3,3,0,0,0-1.66,1.31,7,7,0,0,0-.93,3.66c.18,1.16,1.28,2.21,2,3.31,1-.75,2.44-1.35,2.83-2.28C832.82,400,832.45,398.51,832.45,396.15ZM645.78,390.8c5.32-.43,9.34-4.19,9.62-7.33.49-5.44,9.33-8.16,15.6-24.64a34.58,34.58,0,0,0,0-4.32c-.08-.6-.72-1.19-1.22-1.7-1.14-1.19-3.76-.5-3.29.81,2.06,5.85-8.3,7.53-5.57,13.32.3.61-.28,1.71.14,2.06a2.71,2.71,0,0,0,2.34,0c2.92-3.19,8.62-4.88-2.44,0-5.32.43-9.34,4.19-9.62,7.33-.49,5.44-9.32,8.16-5.51,16.41.78-2,0-2.75-2.34-2a3,3,0,0,0-1.67,1.31,7.11,7.11,0,0,0-.92,3.66c.18,1.16,1.28,2.21,2,3.31,1-.75,2.45-1.35,2.84-2.28C646.15,395.63,645.78,394.17,645.78,390.8Z"/><path d="M295.9,606.92c25.54,80.25,23.82,76.62,21.25,75.84-8.87-2.67-16.49-6.85-22.89-13.61-1-1-5.42-.71-6,.3-2.56,4.37-5.78,9.15-6.05,13.93-.78,14.15-.46,28.39-.1,42.58.06,2.41,3.2,4.7,3.41,7.17.15,1.71-3.17,3.54-3.4,5.5a16.34,16.34,0,0,0,2.32,10.83c4,6.82,4.77,15-2.67,20.55-5.34,4-4.41,11.17-9.8,15.11-5.1,3.74-13.62,10.16-21.54,10.69-5.7.39-8.11,7.23-14.65,5.3-4.29-1.26-9.42-1.06-12.48,3.87-.29.46-1.36.6-2.06.61-4.74,0-9.51.42-14.19-.08-5.14-.55-6.78,6.4-12.27,4.92-6.41-1.73-10.06,6.2-17,4.9-6.1-1.15-12.59-.05-18.89-.33-2.93-.13-6.35,1.61-8.79-1.55-3.26-4.23-10.34-6.73-9.82-12.3.7-7.53-7.08-11.94-5.33-19.43.36-1.53-2-3.79-3.28-5.6-2.08-3-1.77-5.57.81-8.13.88-.88,2.14-2.91,1.87-3.21-8-8.88-2.34-19.53-3.9-29.2-1.18-7.35,2.84-15.57-4.19-22-1.22-1.13-.53-4.45-.54-6.76,0-10.26-1.32-20.73.37-30.7,1.46-8.63-6.42-13.69-5.32-21.8.94-7,.59-14.21,0-21.26-.23-2.66-5.66-3.77-4.43-7.49,2.09-6.31-4.5-9.3-4.91-14.63-.4-5.16,1.76-10.53-3.49-15.25-3.64-3.28,1.15-10.85-5.1-14.48-1.16-.67-.67-4.31-.78-6.59s0-4.74-.07-7.1a2.54,2.54,0,0,0-1-1.9c-7.39-3.31-.35-12.45-6.61-16.31a4.93,4.93,0,0,1-1.73-3.89c.43-5-.52-9.15-5-12.22-7.33-5-4.2-12.48-4-19.18,0-1.56,7.34-6.65,9-6.64q18.93,0,37.87,0l21.28-.05c3.41-8.2,13.88-1.33,17.83-8.37,6-1.46,12.34-2.85,17.43,1.39,4.34,3.63,8.9,2.14,13.31,2.16,6.66,0,13.62-8.93,10.19-14.54-4.88-8-4.23-16-4.35-24.3-.07-4.74,0-9.47,0-14.2-.07-8-.09-8-9.58-8.37-10.16-.37-14.49-3.68-13.76-13.72.55-7.5-6.6-11.86-5.28-19.4,1.07-6.12.22-12.59.22-18.9,0-7.1-.42-14.23.12-21.29.5-6.44-6.44-10.13-5.07-17,1.06-5.31.24-11,.2-16.53,0-6.28-.1-12.56-.29-18.83,0-.58-1.43-1.67-1.54-1.59-1.05.73-2.77,1.66-2.77,2.55-.16,22.08-.1,44.17-.14,66.26,0,6-.41,6.33-6.82,6.38-5.52,0-11,0-16.57,0-4.59,0-7.31,4.26-4,7.67,6.73,6.94,2.42,14.9,3.74,22.24-4.4,4.23-8.76,8.49-13.23,12.64a2.37,2.37,0,0,1-2.28,0c-6.37-5.34-14-9.53-13.06-20.08.78-8.6.42-17.35.07-26-.24-5.92,2.26-12.37-3.86-17.47-1.63-1.36-.74-5.9-.76-9-.07-9.46-1.31-19.16.33-28.33s-7.1-15.05-5.38-24.19c1.43-7.63.29-15.73.29-23.62-9.71-5.06-.52-16.54-7.82-23-2.12-1.88-1.08-7.24-1.67-11-.83-5.23,2.63-11.44-2.06-15.62-4.41-3.93-.43-9.84-3.44-12.72-4.07-3.9-4.66-8.17-3.82-12.68,1.79-9.68-6.27-16.84-6-26-6.68-3.09-1-10.72-5.11-14.39s-2.79-10.44-8-13.33c1.29-5.92-6.72-8.39-5.33-14.36-6.62-6-6.42-11.92.09-17.83,0-5.5,2-8.64,8.29-7.68,5.44.82,10.76,4.33,10.92,9.64.16,5,2.93,8.31,4.54,12.4,2.38,6,7.25,11.64,5.8,18.91,6.9,5.37,3.56,13,3.92,19.61.26,4.76,3.8,6.46,6.15,9.34a1.89,1.89,0,0,0,1.61.61c.67-.31,1.67-1.1,1.63-1.6-.77-8.13,3.89-17.29-4.43-24.06-.38-.32,0-1.53-.06-2.31-.81-7.63,2.66-16.09-2-22.78s-1.36-13.61-2.86-20.2c-.46-2-2.73-3.59-3.54-5.61C90,99.36,95.42,90.91,104.74,90.74c3.11-.06,6.85-.86,9.17.54,2,1.22,1.86,5.57,3.67,7.66,2.49,2.87,4.13,7.54,10.27,2.24,4.74-4.09,13.64-.63,15.46,5.24,1.94,6.29,8.63,11.22,6,18.83-2.82,8.24,5.37,13.9,4.85,21.72-.47,7.07-.1,14.19-.1,21.29,8.52,7.57,3.61,17.58,4.58,26.46.51,4.75,6.32,6.57,5.16,12.28-.69,3.37-2.23,8.11,1.62,10.94,4.83,3.55.55,10.18,3.53,12.6,7,5.72,2.14,13.36,4.82,19.5.28.65,1.12,1.54,1.63,1.49A2.29,2.29,0,0,0,177,250c.3-18.06,1.42-36.17.27-54.14-.45-7.05-5.46-13.69-4.46-21.75.87-7,.18-14.18.18-21.28,0-7.89-.87-15.91.25-23.63,1.09-7.55-6.42-11.87-5.22-19.42,1.11-6.92.24-14.16.24-21.26-7.36-5-4.36-12.65-4.66-19.34-.33-7.09-.18-14.2,0-21.3.08-4.07,6.56-9.11,11.47-9.22,5.15-.11,11.65,4.42,12.14,8.56.18,1.56-.19,3.19.07,4.73.87,5.15-2.35,10.81,2.59,15.53,4.63,4.42.6,10.62,2.29,15.59,1.14,3.36,5.75,5.21,4.72,10-.11.54,2.16,2,3.5,2.34s3.13,0,4.71.11c4.61.26,10.56-1.07,13.48,1.31,3.52,2.88,5,8.76,6.4,13.62,1.59,5.41,3.23,3.29,5.72.91,1-.93,2.85-1.84,4-1.54,7.44,2,11.9-5.66,19.39-5.15,14.92,1,30,.37,44.95.26,4.5,0,8.44-.43,13-3.12,4.72-2.79,12-1.57,18.18-1.44,3.63.07,12.53,10.68,13.29,14.81,1.07,5.82-3.44,13.48-9.61,13.07-6.9-.46-10.57,5.9-16.83,5.61-.53,0-1.11,1-1.67,1.59,1,.89,2.41,2.74,3,2.51,7-2.8,11,4.61,17,4.89,5.27.25,11.18-1.67,14.78,4.31,5.46.14,10.93.17,16.39.47,3,.16,7.4-.28,8.66,1.41,3.14,4.22,9.36,1.79,11.71,6.49.85,1.71,5,2.9,2.61,4.83-4.43,3.63-2.45,11.08-8.24,13.2-6.18,2.25-11,7.48-18.34,7.26-11.83-.36-23.67-.15-35.5,0-.79,0-1.66,1.79-2.23,2.88-.11.22,1.1,1.61,1.57,1.55,6.4-.86,10.27,5.27,16.92,5.49,5.35.17,10.36,4.78,17,4.47,6.47-.31,11.84,6.14,19,5.35.39,0,1.13,2.51,1.59,3.89,2.23,6.78-5.54,10.53-5.25,16.84,0,.61-2.67,2.18-3.67,1.88-6.16-1.87-9.58,4.24-14.66,4.74-5.47.55-11.05-.13-16.56.19-6.88.41-14.86-2.73-20.39,1.84-6,4.91-12.1,1.17-17.78,3.09a3.24,3.24,0,0,0-1.62,1.66c-.16.38.26,1.25.67,1.61,2.29,2,4.56,5.49,7,5.65,6.69.44,8.09,7.43,12.86,9.18s11-.67,14.39,5.28c5.5-2.07,8.09,3.48,12.06,5.16,8.1,3.42,16.79,5.1,24.66,9.05,4.4,2.21,4.73,3.57,1.77,8.94-1.77,3.2-2.72,8.49-5.19,9.29-3.81,1.23-6.8,4.68-9.66,5-6.81.8-11.47,7.83-19.36,5.43-4.27-1.3-9.33-.23-14,.21-.81.08-1.52,2.37-2.05,3.72a2.82,2.82,0,0,0,0,2.3,8.86,8.86,0,0,0,3.14,2.93c4.68,2,10.53,2.68,13.95,5.94,4.16,4,9.52,1.77,12.58,4,4.34,3.14,10.05,3.21,13.65,7.4,3.09,3.59,7.54,1.83,11.1,1.47,7-.72,11.94,1.44,16.26,6.86,3.2,4,2.09,3.42.75,10.29-1.08,5.5-4.7,7.7-7.38,11.25-6.38-.93-10,6.65-16.93,5.13-4.51-1-9.62.66-14.11-.39-6.93-1.61-10.45,5.81-17,5.1-6.18-.66-12.5.08-18.76.2-3.58,6-9.5,4-14.76,4.4-6.23.48-9.89,4.76-11,12.13-.32,2.15-1,5.91-1.9,6-3.62.46-8,.93-11-.69-6.26-3.42-6.91-11.22-10.62-16.75-.55-.82.16-3.58,1-4.06,4.11-2.22,2.37-7.24,5-9.83,3.83-3.74,8.09-7,12.17-10.52,6,2.05,9.82-4.95,14.57-4.38,6.91.83,10.55-6.18,17-5.39.22,0,.7-2.08,1.06-3.2-4.32-1.17-7.89-3.9-11.82-5.76-7.43-3.51-15.16-6.14-20.92-12.53-1.24-1.38-4.56-.73-6.16-2-6.52-5.12-15.29-7.26-19.88-14.89A26.15,26.15,0,0,1,263,294.2c-.05-.12,8.24-15.17,8.43-15.44,2-2.83,4.6-3.63,8.07-3.49,7.08.3,14.2.32,21.28-.06,2-.11,4-1.82,5.71-3.18,4.12-3.31,4.32-5,.73-6-8.57-2.36-16-7.2-23.83-11-5.83-2.85-12.73-5-16.74-11.28-1.6-2.5-4.27-5.55-6.85-6-12.06-2-11.22-10.81-11-19.38.1-3.34,5.86-9.13,9.05-9.22,5.52-.15,12.32,2,16.25-.54,5-3.17,9.38-4.67,14.92-4.34.52,0,1.68-1.27,1.57-1.55-.47-1.11-1.68-3.05-2-2.94-7.76,2.82-12.46-4.7-19.12-5.64-1.95-.27-4.15-4.13-5.32-3.73-10.58,3.65-9.73-7-14.14-11a4.67,4.67,0,0,1-1.15-4.1,84.23,84.23,0,0,1,5.48-11.9c.55-1,2.58-1.56,3.95-1.61,5.51-.2,11-.11,16.54-.13,3.34-6,9.3-4.36,14.48-5.09.62-.08,1.34-1,1.6-1.64.14-.38-.56-1.56-.89-1.57-6.89-.09-12.68-5.43-18.9-5.38-6.71.05-10.07-6.1-17-5.77-5.09.25-10.57-4.37-15.69-7.24a16.83,16.83,0,0,0-6.41-1.6c-3.07-.32-5.68-.4-7.13,3.76-2.22,6.36-4.94,12.19-4.76,19.41.54,22.07.88,44.2-.1,66.25-.46,10.38,5.25,22-4.33,31.27,0,0,1,1.08,1.53,1.6,4.86,4.47,4.35,9.33,1.21,14.51-1.13,1.86-2.82,4-2.69,5.9.53,7.6-2.34,15.53,2,22.78a15.73,15.73,0,0,1,1.65,3.21c-6.59,4.7-2.92,11.57-3.87,17.43-.71,4.41,1.21,7.46,4.47,10-2,3-4.67,5.19-4.62,9.76q.5,52.05,0,104.13c-.06,6.41,6.41,10.08,5.11,17-1.14,6.1-1.7,13.06.19,18.75,1.76,5.29,5.49,10.59,7.65,15.73,2.54,6,4.69,8.21,11.06,7.91,5.1-.25,11-2.3,15.19,3.23.75,1,9.86,10.28,11.45,11.33s1.1,7.9,5.64,2.53a44.81,44.81,0,0,1,5-5,11.32,11.32,0,0,1,14.47-.55c4.16,3.27,6.41,10.11,4.66,14.47-.28.67-1.25,1-1.61,1.7-4.17,7.74-9.86,15.11-11.95,23.38s-.05,17.27-.57,25.91c-.4,6.63,2.9,14.2-4.14,19.63-.82.63-.45,2.93-.45,4.45,0,15,.11,30-.11,45,0,3.87,2.91,5.2,4.72,7.55s4.24,2.48,4.67-.2c1.32-8.32,5.88-11.64,14.06-11.6,26,.15,52.07.07,78.1,0,6.7,0,8.72-2,7.35-8.13-1.45-6.47-5.92-11.94-4.86-19.39,1-7-.68-14.33.5-21.22.89-5.18-5.82-8.27-3.4-11.51,3.49-4.67,4.59-7.7-.1-11.74a6,6,0,0,1-1.46-4.06c-.15-6.3.47-12.67-.19-18.92-1.09-10.44,4-21.87-4.61-31.18,0-4.73.06-9.47,0-14.2-.1-6.25-.31-12.49-.47-18.73-6.29-3.23-2.22-10.4-5.22-14.34-4.59-6.05-6.37-13.23-10-19.57-1.24-2.17-4.3-3.31-6.53-4.91-.48,2.17-1.33,4.33-1.37,6.51-.15,9.46.12,18.93-.16,28.39-.1,3.52,1.36,5.67,3.59,8.07,2.42,2.63,1.49,5.39-.86,8.08-1.37,1.56-3.08,5.06-2.44,5.8,8.26,9.58,3.22,20.91,4.53,31.34.74,5.9-2.44,12.8,4.45,17.1.1,8.63.38,17.28.15,25.9,0,2-1.61,4.12-3,5.79a54.2,54.2,0,0,1-6.66,6.72c-3.12,2.68-4.91,5.59-4.55,10a95.28,95.28,0,0,1-.07,16.55c-.18,1.93-2.32,3.75-3.74,5.48-2.69,3.29-3.76,3.17-6.69-.26-1-1.2-3.32-2.45-3.15-3.33,1.21-6.63-3.14-11.36-5-16.95-1.94-5.77,3-13.42-2.1-17.9-5.46-4.82.87-13.07-6.39-16.58-.85-.41-.86-2.7-1.13-4.14-1.11-6,2.47-12.74-2.36-17.92-4.56-4.89.16-11.73-2.74-15.34-5-6.3-5.38-13.07-4.06-19.56s-6.53-8.51-5.24-14.71c.94-4.53.23-9.43.12-14.16,0-.6-.8-1.32-1.39-1.75-4.57-3.29-2.87-10.35-8-13.26,0-7.89-.05-15.78,0-23.67.05-5.13,4.57-10.52,9.35-11.36,5.92-1,12.75,3,14.24,8.8.75,2.9.13,6.36,1.47,8.84,1.21,2.26,4.25,3.54,6.48,5.25.53-2.15,1.5-4.29,1.51-6.44.12-18.94.06-37.87.09-56.81,0-5,4.44-10.95,9-11.66,4.83-.76,9.37-.11,12.25,4.63.77,1.26,2.08,2.41,2.3,3.75.38,2.3.06,4.72.11,7.08.11,5,2.39,11.78,4.65,17,3.19,7.33,7.69,12.41,15.73,15.12,4.78,1.61,8.64,5.67,8.34,12.52-.17,4,4.72,8.51,4,12.14-1.29,6.55,6.17,8.77,5.28,14.71-.69,4.63.91,9.76-.38,14.11-2,6.59,6.44,8.37,5.23,14.72-1.16,6.09-.25,12.58-.25,18.89,0,5.52-1,11.28.26,16.5,1.37,5.67,5.79,10.26,4.68,17.07-1,6.15-.21,12.59-.21,18.9v18.94c0,6.31.31,12.64-.09,18.92-.36,5.67,1.71,9.92,4.35,14.87,2.29,4.3.36,10.79.52,16.31.09,3.08,6.32,8.81,9.44,8.85,6.31.08,12.62,0,18.94,0,1.49,0,8.9,5.29,9,6.7a128.66,128.66,0,0,1,.31,14c0,1-2.38,3-3,2.78-7-2.7-11.09,4.7-17,4.82-12.62.25-25.24.07-37.87.07-5.29-6.3-12.56-4.83-19.33-4.58-2.34.09-3.72,2.61-3.06,5.2a10.68,10.68,0,0,0,2.12,3.82c.34.42,1.45.28,2.2.29,3.95,0,8-.46,11.81.17,2.83.46,3.58,5,7.54,4.64,4.7-.39,6.69,6.59,12.25,4.72,4.6-1.55,6.41,3.92,9.88,4.49,4.61.77,9.46,0,14.17.3,2.09.14,5.47,1,5.88,2.26.92,2.86,1.67,7.45.11,9.1-4.15,4.39-7,10.78-13.67,12.09-5.12,1-8.24,6.25-14.63,5.13-6.88-1.21-14.14-.27-21.22-.14-.57,0-1.28,1-1.62,1.63a1.79,1.79,0,0,0,.4,1.62c2.26,2.08,4.33,5.21,7,5.87,9.31,2.29,16.26,9.71,26.77,10.18,7.55.34,10.36,12.9,5.3,18.55-8.68,9.69-17.74,14-29.66,14.08-4.74,0-9.49-.26-14.19.13-2,.17-5.13,1.37-5.49,2.7-.77,2.89-1.37,7.57.24,9,6.18,5.67,10.54,13.15,18.91,16.87,5.3,2.36,9.32,7.74,13.62,12.07.71.72.51,3.52-.3,4.39-4.82,5.21-9.15,11.77-15.19,14.68-5.67,2.74-11,8-18.66,6.65-3.41-.6-5.13,5.65-9.84,4.53-4.3-1-7.06,1.51-10.1,4.26-5.23,4.72,2.77,5.61,2.14,8.85a14.29,14.29,0,0,0,0,2.36c0,3,.91,6.86-2.75,8-2.83.86-6.24.35-9.29-.19-1.27-.22-2.25-2.08-3.37-3.2-3.35-3.35-6.48-7-10.09-10-4.5-3.77-4.36-9.79-2.12-12.56,3.37-4.16,3.18-8.26,4.28-12.64.82-3.26,4.66-5.76,7.15-8.6,8.33,3.42,13.54-6.4,21.75-5,4,.68,5.94-5.64,2.25-8.18-6.17-4.24-6.62-11.9-11.57-16.66-4.54-4.38-9.19-8.7-13.32-13.44-2.87-3.31-2.28-8.72-6.49-11.59-.68-.46-.6-3.49.19-4.41a79.7,79.7,0,0,1,10-10c1.56-1.27,4.18-1.55,6.34-1.66,4.72-.25,9.46.07,14.16-.3.87-.07,2-2.29,2.2-3.63s-.19-3.8-1-4.13a77.09,77.09,0,0,1-11.77-6c-2.31-1.43-7.47.57-8.82-1.06-6.51-7.88-17.26-10-23.46-18.16-2.87-3.78-3.12-6,.57-9.79,5.36-5.44,10.79-10.81-12.45-98.9C267.71,523,268,522,267.63,521.63a2.11,2.11,0,0,0-2.08,0c-2.2,1.94-4.27,4-6.32,6.12a2,2,0,0,0-.35,1.48c1.17.69,2.42,1.73,3.65,1.73C267.28,531,267.78,530.13,295.9,606.92ZM263,739.17c0-4.73.07-9.46,0-14.18-.07-3.2-5.57-9-9-9.26-3.92-.28-9.49,1.56-11.47-.41-4-4-10-3.38-13.66-7.58s-11.24,1.51-14.51-5c-.09-.19-3.06.59-3.06.89.05,3.73-2,7.87,1.12,11.1,7.13,7.35,14,15.09,21.85,21.55,5.12,4.2,4,11.68,9.71,15.14.69.41.57,3.2,0,4.51-3.16,7-11.32,7-16.57,11.45-3.45,2.9-6.76-1.86-9.58-4.35-6.1,2.25-8.11-7.11-14.63-4.89-5.67,1.93-8.25-6.68-14.24-5.28-2.48-3.61-6-4.41-10.15-4.1a73.79,73.79,0,0,1-11.8-.06c-1.19-.1-3.2-1.67-3.23-2.62-.22-6.25-.13-12.54.25-18.79,0-.78,2.37-1.46,3.68-2.13a56.11,56.11,0,0,1,5.9-2.85c6.56-2.43,13.24-4.24,19.11,1.33,1.63,1.54,2.47,2,3.36-.26.54-1.36,1.1-3.26.55-4.38a21.82,21.82,0,0,0-4.27-5.32c-11.66-11.73-23.4-23.38-35.06-35.12-3.85-3.88-4.7-18.51-1.26-18.67,5.92-.28,8.35-7.29,14.35-5.76,2.15.54,5.46.25,6.29,1.56,2.83,4.48,8.84,2,11.8,6.43,2,2.92,7,1.4,9.84,4.9,1.37,1.69,5.86.52,8.68,1.43,3.44,1.11,6.59,3.1,9.92,4.56.47.2,1.4-.39,2-.81a9,9,0,0,0,1.4-1.64c-5.09-3.41-7.18-10.6-14.07-11.63C199,657.84,197.38,648,189,648.58c-1.54.11-3.51-2.94-5-4.79-4.34-5.55-10.48-8.44-16.43-11.71-3.86-2.12-8.18-2.8-11.68-6.39-4-4.1-9.67-6.68-15-9.23-1.27-.62-5.43,1.26-5.57,2.34-.61,4.63-.21,9.39-.18,14.1,7.62,5,3.87,12.74,4.57,19.36.49,4.64.29,9.35.41,14,7.47,6.06,3.55,14.44,4.31,21.82.47,4.68-1.76,10.68.43,13.94,6.76,10.07,3.32,20.89,4.48,31.34a10.88,10.88,0,0,0,2.49,6c3.86,4.1,2.13,9,2,13.33-.19,5.1,6.66,6.8,5,12.23-2.07,6.61,2.58,11.42,4.48,17,.84,2.47,1.47,4.61,3.9,4.62,6.17,0,13.45,1.42,18.21-1.33,4.5-2.59,8.53-3.92,12.87-3.09,5.58,1.07,7.75-4.65,12.26-4.88a121.79,121.79,0,0,1,14.17,0c4.94.32,6.71-5.2,12.22-5.21,8.43,0,19.91-8.16,24.45-14.66a8.17,8.17,0,0,0,1.51-4.07C263.09,748.63,263,743.9,263,739.17ZM144.29,526.29c-3.15,0-6.31-.15-9.45,0-4.59.26-6.65,5.5-12,5.6-3.25.06-1.16,5.4-2,8.23-.6,2.06-2.19,3.81-3,5.84s-2.13,5.69-1.48,6.15c5.52,3.9,3.93,9.53,4.71,14.79,1,6.58,4.2,12.42,8.38,17.77,3,3.84,6.81,2.73,10.54,3.29,2,.3,3.68,2.44,5.7,3.26,7.45,3,14.85,6.18,21.51,10.79,7.57-2.26,11.2,3.45,15.82,7.53,2.77,2.45,4.26,7.17,9,6.6A12.8,12.8,0,0,1,204.29,621c5.91-1.12,8.11,4,11.17,7.11,4.57,4.71,12.78-.52,16.38,6.5.38.74,2.86.55,4.36.53a3.29,3.29,0,0,0,1.86-1.12c.4-.41.89-1.44.74-1.59q-28.32-28.47-56.78-56.8c-1-1-2.56-1.36-3.88-2-4.62-2.15-9.76-3.59-13.75-6.58-5-3.74-9-8.74-13.5-13.18-2.72-2.72-1.3-7-4.77-10-3.07-2.61,3.56-3.77,3.18-6.69-.48-3.66,1.83-5.62,3.94-7.9.21-.23-1.07-2.7-1.89-2.85A40.49,40.49,0,0,0,144.29,526.29ZM201.43,213.8c0-7,.23-14-.26-21-.07-1-3.53-2.19-5.54-2.47-1.1-.16-3.49,1.38-3.51,2.2-.25,10.13,0,20.26-.25,30.38-.09,3.86,2.88,5.18,4.81,7.37a6.25,6.25,0,0,0,3.27,1.52c.36.08,1.4-1,1.41-1.62C201.47,224.71,201.43,219.26,201.43,213.8Zm54.63,417.58c3.69-7.55,1.85-14.65,2-21.46.05-2.28-2.48-3.49-5.16-3.17-4,.47-7.75.09-10.39-3.65a7.15,7.15,0,0,0-3.06,1.28c.59,3.71-1.88,7.79,1.49,11.19C245.89,620.56,250.67,625.72,256.06,631.38Zm-12.28-69.24c3.79,3.59,7.59,7.27,11.56,10.74.23.2,2.61-1.12,2.76-2,.41-2.21-.06-4.57.19-6.82.34-2.92-1.36-4.52-3.64-4.53C251.09,559.54,247,558,243.78,562.14Zm-68.53-26.38a9.12,9.12,0,0,0,2.28,0c1.37-.36,2.68-.91,4-1.38a11.65,11.65,0,0,0-1.4-3.21,21.55,21.55,0,0,0-4.92-4.72c-1.12-.68-3.7-.75-4.37,0a11,11,0,0,0-2.4,5.74c-.13,1.1,1.16,2.91,2.27,3.46S173.72,535.76,175.25,535.76Zm26.41-266.12c-.33-4-.58-7.8-1-11.56a2.25,2.25,0,0,0-1.58-1.54,2.22,2.22,0,0,0-1.58,1.53q-.16,10.19,0,20.38a2.24,2.24,0,0,0,1.58,1.53,2.28,2.28,0,0,0,1.58-1.54C201.11,275.46,201.35,272.45,201.66,269.64Zm-61.78,69.52a32.19,32.19,0,0,0-.07-4.61c-.1-.61-1.19-1.65-1.53-1.54-1.12.35-2.91,1.05-3,1.78a56.74,56.74,0,0,0-.07,9.22c0,.57,1.19,1.64,1.53,1.53,1.12-.35,2.67-.93,3-1.81C140.25,342.38,139.88,340.7,139.88,339.16Zm59.18-99.05c-1.18,4-2.16,6-2.22,8,0,1.18,1.43,2.39,2.22,3.59.79-1.2,2.25-2.41,2.22-3.59C201.22,246.07,200.23,244.07,199.06,240.11Z"/></svg>