<svg id="Layer_1" data-name="Layer 1" xmlns="http://www.w3.org/2000/svg" viewBox="0 0 1200 1200"><title>BB_Artboard 16</title><path d="M1164.32,897c0,11,.93,22.43-.33,33.37-.83,7.27-6.2,13.38-4.51,21.92-3.86,5-7.65,10.13-11.76,14.75-.24.27-3.12-3.48-4.78-5.36-5.11,9.44-12.72,5.19-19.25,5.52-15.5.8-31,.68-46.53,1.06-.56,0-1.44,1.28-1.54,2.1-.07.6,1,2.1,1.38,2,7.08-1.1,12.38,7,18.8,6.84s10.06,9.44,16.82,6.65c1.09-.45,3.33.59,3.93,1.84,4.7,9.8,14.17,10.7,19.91,19.1,5.25,7.67,10.43,14.34,9.76,25.51,0,.66,1.1,1.37,1.56,2.17.89,1.54,2.11,3,2.39,4.79s.06,4.83-.78,5.48c-8.52,6.57.54,20.08-6.49,27.26a52.61,52.61,0,0,0-8.23,10.81c-3.72,6.59-8.66,6.67-14.23,7.23-5.84.58-10.1-3.91-11-8.6-1.72-8.6-6.17-13.44-10.44-18.84-1.45-1.84-3.94-3.44-5.86-3.27-6.29.57-11.31-2.64-17-5.79-6.53-3.66-15.41,3.43-21.42-6.2-7-.15-14-.68-20.91-.32-4.93.26-6.52-8-12.14-6.53-5.26,1.33-10.87.28-16.33.28-4.68,0-9.38.38-14-.1-5.11-.52-8.23-7.86-14.49-6.33-6,1.47-12.43.32-18.67.32-5.45,0-11.06-1-16.33.26-6.15,1.52-8-9-14.54-6.73-5.12,1.74-10.85.35-16.31.35s-10.92-.18-16.37,0c-6.13.25-9.57-8.9-16.86-6.6-6.63,2.08-14,.44-21,.44H838.06c-6.24,0-12.48,0-18.72,0-4.58,0-8.89.5-12.6-5.06-1.42-2.11-5.81-1-8.85-1-95.9,0-191.81.09-287.71-.33-5.9,0-9.58,5-14.48,6.14-5.29,1.21-10.88.28-16.33.28H463c-10.91,0-21.92-1.11-32.72.32-10.3,1.36-21.78-6.73-30.85,5.74q-15.21,0-30.4,0c-10.91,0-21.84-.3-32.74.14-5.09.21-8.26,8.15-14.49,6.25-4.43-1.35-9.31-.26-14-.26H291.43c-4.68,0-9.41-.62-14,.12-9.54,1.55-19.8-4.74-28.74,5.62-2.18,2.53-7.55.1-11.44.43-7.16.61-11.83-3.37-13.17-12.54-.52-3.57-1.47-5.7-4-5.77-3.69-.11-5.55-1.76-5.52-7,.1-19.37,0-38.75,0-58.12,0-10,0-10,11.28-14.57,3.66-6.67,8.93-6.48,14.44-6.21,7,.36,14,.21,21,.05,6-.13,12.54,2.33,16.77-6.08,7,0,14.11.81,21-.28,4.9-.77,8.45-7.58,14.49-6.06,4.52,1.13,9.33.22,14,.22,5.45,0,10.91.07,16.37,0,4.5-.08,9,1.06,12.7-4.74,1.38-2.15,5.77-.83,8.75-1.39,6.53-1.24,13.56,2.93,19.63-5,2-2.62,7.36-1,11.18-1.05,35.87,0,71.74.21,107.6-.22,7.28-.09,15.31,3.86,21.8-5.3,1.47-2.07,5.93-.61,9-.61q56.15,0,112.28,0c5.37,0,10.85-1.21,14.59,6,.48.94,3.89.93,4.37,0,3.73-7.28,9.25-6,14.59-6q80.7,0,161.4-.09c1.3,0,2.59-1.6,3.88-2.44-.29-.72-.49-2-.89-2.08a24.57,24.57,0,0,0-6.56-1.43c-10.13-.15-20.27-.07-30.4-.07-13.31-12.28-28.35-5.24-42.52-5.76-31.16-1.15-62.37-.3-93.55-.41-5.2,0-11,2.28-14.66-5.39-1.65,1.71-3.3,3.43-5,5.14-5.08-9-12.46-5.36-19-5.73-7-.39-14-.08-21.05-.08H528c-5.45,0-10.92.29-16.37-.09s-10.28.29-14.68,5.88c-1.61,2-6,.32-9.11.32-14,0-28.1.65-42.1-.3-5.94-.41-8,8.92-14.51,6.77-5.13-1.71-10.85-.35-16.31-.35s-11.24-1.51-16.3.35c-7.88,2.91-15.3,6.92-23.88,6s-17.24.86-25.68-.54c-6.79-1.13-9.89,8.7-16.86,6.79-6-1.64-12.42-.34-18.66-.34H294.79c-5.32,0-8.15,8.31-14.49,6.43-5.19-1.53-10.86-.37-16.31-.23-.59,0-1.33,1-1.72,1.84-2.34,4.71-4.34,3.84-6.74-.12a4.56,4.56,0,0,0-4-1.7c-9.33,1-9.49,1.32-13.76-3.49-3.37-3.81-8.4-3-11.45-8.5-4.78-8.58-5.32-19.83-11.25-27.76-2.12-2.83.31-7,2.44-10.34,3.16-5,2.83-10.94.1-16.41-.78-1.56-2.81-3.64-2.56-4.23,2.5-5.83,5.28-11.47,8.16-17a14.78,14.78,0,0,1,3.37-4.07c.53-.47,1.52-.07,2.3-.08,5.43-.07,11.95,2.25,16-.88a25.06,25.06,0,0,1,12.44-5.54c3.38-.49,6.39-4.45,9.82-5.61,2.92-1,6.25-.69,9.3-.11,7.1,1.35,11.44-9,19.2-6.58,5.9,1.85,12.41.37,18.64.37,5.58-12.58,18.62.33,24.23-12.15,7,0,14.19,1.19,21-.48,5.6-1.38,10.13-7.31,16.87-6s14.27,1.82,20.93-.18c5.59-1.68,10.29-7,16.89-5.88a53.41,53.41,0,0,0,18.66,0c7.21-1.31,13.39-7.86,21.51-6.18a55.71,55.71,0,0,0,21,0c6.43-1.17,11.83-7.54,19.17-6.09,6.1,1.21,12.81,1.93,18.6-.18,7.14-2.6,13.62-7.12,21.56-5.91,6.92,1.06,14,.22,21,.22,7.8,0,15.78-1.35,23.34.4,7,1.61,10.45-7.36,16.84-6.69,7,.74,14,.17,21,.17,6.24,0,12.48-.13,18.72,0,4.74.14,6.5-7.9,12.14-6.45,5.25,1.36,10.87.29,16.33.29,4.67,0,9.77,1.55,13.93-.38,5.56-2.57,10.33-7.07,16.9-6,6.13,1,12.45.22,18.69.22s12.57-.91,18.69.23c8,1.5,14.39-4.45,21.53-5.9,9.14-1.85,18.66-.38,28-.49a28.94,28.94,0,0,0,6.67-1.09,2.72,2.72,0,0,0,1.32-2c-.14-.84-1-2.06-1.55-2.1-5.38-.4-10.79-.18-16.13-.93-7.3-1-15.43,3.91-21.75-5.45-1.06-1.56-4.43-.56-6.73-.56-33.53,0-67.06.14-100.58-.2-4.51,0-7.19,2.4-9.76,6.3l-5-5.75c-6,9.78-14.28,5.1-21.58,5.57-10.89.71-21.88-.69-32.73.42-11.87,1.22-24.65-5.93-35.5,5.88-10.13,0-20.29-.48-30.4.18-6.56.43-13.74-3.33-19.58,5-1.48,2.11-5.85.93-8.9.94-16.37.07-32.76-.4-49.12.23-7.28.28-15.3-3.88-21.8,5.3-1.46,2.07-5.93.6-9,.61-13.25,0-26.58,1.05-39.74-.37-8.11-.87-13,9.35-21.56,7-8.21-2.25-17.07-.49-25.65-.49-7.8,0-15.75-1.24-23.34.41-5.58,1.22-10.14,7.53-16.86,6-5.29-1.24-10.88-.25-16.34-.25-6.24,0-12.62-1.07-18.68.29-6.9,1.54-10.41-7.51-16.56-7.18-1.65-7.84-5.61-13.49-9.72-19.35-1.65-2.35-1-7.47-1.38-11.34s.85-8-2.1-11.14c-5.15-5.58-1.69-13.31-2.57-20-.72-5.41.53-9.88,4-13.1-.38-10.27,4.81-9.52,10.44-10.36,4.85-.72,8.68-8.38,14.44-5.65,6.27,3,9-8.23,14.41-6,6.42,2.66,8.8-8.43,14.47-6.24,5.47,2.11,8-4.44,12-6.48,10.36-5.26,10.21-5.49,16.86-5.94s14.32,3.08,20.18-2.48c6.56-6.22,13.41-2,20-3.58,4.3-1.07,6.69-7.66,12.14-6.31,4.38,1.08,8.74.74,12.56-4.74,2.87-4.11,9.12,1.71,12.53-4.51a6.22,6.22,0,0,1,3.76-2.69c6.56-1.68,13.43,2.59,20-3.62,5.87-5.57,13.44-2.66,20.16-2.31,6.41.34,10-8.17,16.83-6.76,4.86,1,10.72,2.93,15.06-4,1.08-1.71,4.17-1.65,6.35-1.69,8.58-.18,17.15-.08,25.73-.08,7-8.28,15.6-5.82,23.79-6.12,8.45-10.39,18.92-4.57,28.47-6.16,6.54-1.1,14,3.63,19.39-5.46.63-1.06,2.9-.58,4.41-.59,5.46-.06,10.91,0,16.37,0,4.68,0,9.52-1,14,.24,6.15,1.74,9.51-5,14.48-6.3,1.5-.4,3.11-.06,4.67-.06h21c5-9.5,12.51-5.64,19.12-6,7-.41,14,.07,21.05-.15,4.51-.14,6.61-8,12.13-6.28,3.7,1.13,7.76.22,11.66.22,4.68,0,9.38-.4,14,.09,7.7.8,13.16-8.82,21.52-6.58,6.73,1.81,14,.37,21,.37,10.1-10.86,22.1-4.12,33.15-6.15,6.53-1.2,14.11,3.74,19.31-5.59.31-.56,1.41-.47,2.15-.48,4.67,0,9.53-1.06,14,.23,6.17,1.78,9.45-5.49,14.49-6.23,4.62-.67,9.34-.14,14-.14s9.52-1,14,.23c7.43,2,11.73-8.17,19.19-6.66,6.81,1.38,13.93.12,20.92,0,5.92-9.92,14.28-5.4,21.55-5.48,5.14-.05,8.12-4.4,12.17-6.14,4.21-1.8,9.07-1,13.62-1.45.53-.06,1.43-1.47,1.34-2-.12-.84-1-2-1.55-2.1a102.15,102.15,0,0,0-11.45-.82q-45.6-.09-91.22,0c-3.11,0-6.14.31-8.24-3.58-2.38-4.41-3.83-.27-4.86,1.45-1.88,3.1-5.57,3-6.2,1.89-3.9-7-9.31-5.62-14.65-6-8.1-.62-17,3.59-23.8-6l-13.8.71c-3.63,7.67-9.48,5.34-14.67,5.35-34.3.11-68.62-.63-102.91.39-14.17.42-29.06-6-42.64,5.52-2.2,1.87-6.11.27-9.23.27-18.71,0-37.44-.4-56.14.19-7.28.23-15.14-3.62-21.86,5.19-2,2.59-7.43.68-11.29.72-6.24.06-12.65,1.21-18.67-.3-6.88-1.73-10.46,7.37-16.83,6.57-5.41-.67-10.9-.14-16.36-.14H439.12c-6.23,0-12.68-1.27-18.65.37-5.61,1.54-10.13,7.34-16.87,6s-14-.29-21-.29H363.87c-6.24,0-12.55-.78-18.7.18-10.3,1.59-21.67-5.7-30.82,5.94-7.8,0-15.6-.2-23.39.14-2,.08-4.89,1-6,2.91-4.68,8.36-10.91,9.7-18.24,9.33-10.9-.55-21.85.39-32.74-.33-7.3-.47-15.63,4.27-21.56-5.62-7.76-.1-15.58-1-23.27-.06-5.93.72-9.59-4-11.11-8.76a302.07,302.07,0,0,0-13.65-35.4c-1-2.09-1.19-2.5.47-4.51,5.4-6.51,2-15.2,2.8-22.88.59-5.79-1.22-12.38,3.88-16.28L187,447.2c3.12,0,6.32-.57,9.35.12,7.17,1.63,13.48-1.84,19-6.5a24.43,24.43,0,0,1,16.91-6.1c5.09,0,11,3.64,15.26-3.19,3.83-6.22,11,1.3,14.38-6.43.37-.85,1-1.93,1.64-2.1,5.17-1.43,11.35,2.67,15.52-2.47,4.83-6,10.11-3.22,15.23-3.84,3.85-.47,7.75-.2,11.63-.26,3.12-9.83,11.56-2.82,16-8.62,1-1.35,2.27-3,3.59-3.33,8.16-2,16.89,3.5,24.74-3.18s16.56-1.31,24.77-3c6.51-1.38,14.08,3.62,19.32-5.57.33-.56,1.4-.53,2.13-.54,5.46,0,10.93.3,16.37-.12,4.37-.34,8.9,2,13-3.52,4.2-5.64,10.32-1.3,15.49-2.52,9.47-2.25,20.23,5.88,28.47-6.1,6.24,0,12.56.82,18.7-.17,11.07-1.79,23.12,5.75,33.26-5.81.88-1,3,.08,4.58-.17,9.55-1.57,20.06,4.52,28.48-6.08,4.67,0,9.36.17,14,0,8.17-.37,16.8,2.54,23.89-5.95.85-1,3.13.34,4.56-.22,4.24-1.67,8.33,11.55,12.55.18,5.45,0,11.07-1.2,16.3.19,6.83,1.8,10.37-7.47,16.83-6.6,6.14.82,12.42.23,18.61-.27,1.16-.1,2.16-2.77,3.32-4.12,3.65-4.21,9.24,1.54,12.69-4.31s9-4.3,12.87-2.95c7.78,2.71,11.95-7.92,19.22-6.75,6.91,1.11,14,.24,21,.24,5.22-8.18,12.41-5.85,19.12-6.12,5-9.18,12.5-5.33,19.1-6.2a3,3,0,0,0,1.58-2c-.41-1.45-1.22-3.87-1.89-3.87-37.42-.19-74.85.06-112.27-.39-6.39-.07-9.43,10-16.89,6.75-4.9-2.16-10.81-.41-16.27-.41-6.23,0-12.53.68-18.69-.2-5.83-.82-8,8.87-14.52,6.67-5.12-1.74-10.85-.35-16.31-.35s-11.06-1-16.34.26c-6.41,1.56-11.86,7.49-19.17,6.1-6.11-1.17-12.45-.17-18.69-.26-5.37-.09-8.15,8.33-14.49,6.45-5.19-1.54-12.09-2.87-16,.33-4.94,4-9.25,5.89-14.75,5.55s-10.91-.19-16.37,0c-6,.17-12.54-2.3-16.78,6.09-6.19.12-12.68-1.14-18.48.92-3.15,1.12-5.72,5.08-10,5.46-8.27.76-17.56-4.67-24.64,2.94-6.44,6.91-16-2.9-20.9,8.31-.25.57-1.35.65-2.06.7-7.64.53-15.28,1-22.92,1.51-6.33,9.48-14.71,4.44-21.91,4.13-6.65-.28-11.48,3.31-16.79,6.63s-10.37,9.22-16.73,6c-7.79-4-12.11,7.14-19.17,6.42s-14-.16-21-.16c-10.16,10.33-22,5.33-33.16,5.84-5.82.27-12.35,3.12-17.65-3.06-10.83-12.62-17.38-23.17-18.08-35.89-.38-6.87-5.19-9.66-5.12-15.78.05-5.1.14-10.21-.14-15.28,0-.74-2.33-2.15-3.06-1.73-1.33.78-2.21,3.83-3.38,3.95-6.16.6-12.35.57-18.53.76-4.37,7.74-11,7.18-16.72,5.78-6.29-1.54-9.35,6-14.49,6.38-5.42.42-11.94-2.2-16,.91s-7.72,5.06-12.43,5.6c-2.59.29-4.8,4.82-7.48,5.55-3.73,1-7.76.37-11.65.23-5.37-.19-11,.76-16-1.24-5.39-2.17-5.62-10.92-8.41-16.53-1.91-3.84-4.32-7.26-6.5-10.86,7.23-7.18-3.87-12.57-1.11-20,1.49-4-.56-9.75,3.27-13.57,4.7-4.69,7.69-14,15.16-11,7,2.84,10.43-7.23,16.83-6.45,6.18.74,12.46.16,18.7.16,4.89-12.66,16.84,0,22.44-10.64.63-1.2,2.68-1.21,4.1-1.58,5.88-1.55,12.62,3.36,17.73-3,4.82-6,11.53.09,15.15-3.61,7-7.09,14.29-6,21.71-5.5,5.06.31,6.66-7.93,12.14-6.58a13.87,13.87,0,0,0,10.94-1.86c2.69-1.93,5-5.53,8.09-3.85,7.74,4.15,12.11-7.14,19.17-6.41s14,.15,21,.15c11.75-11.15,25.19-5.52,37.83-5.65,7.22-.07,11.35-9.59,19.19-7,5.86,1.95,12.4.38,18.64.38,4.15-7.27,10.84-5.19,16.28-7.68,1.33-.61,2.2-2.82,3.35-4.2,3.44-4.11,3.73-8.21.29-12.68-.78-1-1.65-3.51-1.28-4.16,9.29-16.47,25.71-24.09,39.83-18.73,3.25,9.42,12.23.23,16.16,8.5.83,1.75,4.11,2.35,6.16,2.1,8.06-1,17.11,4.31,23.8-6h53.8c9.36-9.93,20.53-4.21,30.78-6.35,7.19-1.51,13.4-7.83,21.52-6.18,6.85,1.4,14,.73,21,.16,5.82-.48,9.75-8.52,16.85-6.36,5.92,1.8,12.41.37,18.65.37,9.2-11.21,20.54-4.07,30.8-6.13,7.25-1.46,15.53,4.14,21.66-5.9.91-1.49,4.52.17,6.81-.27,10.28-1.95,21.41,4.88,31-5.77,1.82-2,6.06-.29,9.17-.29,14,0,28.08-.32,42.11.15,6.27.21,9.49-9.76,16.87-6.66,5,2.08,10.82.4,16.28.4h18.71c5.46,0,11-.73,16.36.17,7.18,1.21,11.42-8.75,19.19-6.72,7.5,2,15.53.43,23.33.43,7,0,14-.22,21.05.07,5.47.22,8.14-8.42,14.49-6.51,5.19,1.56,10.86.32,16.32.32,6-8.92,14.07-5.84,21.46-6,4.79-.1,6.49-8,12.14-6.53,5.25,1.36,10.87.29,16.33.29,4.68,0,9.42.64,14-.18,5-.88,8.36-7.71,14.5-6.21,5.27,1.29,10.87.27,16.33.27s11,.68,16.36-.19,8.45,2.81,11.9,7.11c4.08,5.07,7.19,9.91,6.39,18.12-.69,7-1,14.48,0,21.35,1.91,12.67-5.23,18-10.46,25-.91,1.22-2.63,1.48-4,2-.73.26-1.56,0-2.33.06-8.08,1.1-17-3.63-23.8,6.11-6.71,1.05-13.8-2.49-20.18,2.76-.07,9.13-.37,18.28-.13,27.4.13,5.07-4.16,6.37-4.51,9.76-.44,4.26-2,7-3.36,10.54-2.34,6.21-3.16,12.32-10.48,11.15-3-.48-6.33,4.52-9.76,5.47-3.73,1-7.77.05-11.65.42-.58.05-1.67,3.65-1.44,3.89,2.82,3.07,4.3,8.56,9.06,8.25,2.93-.18,8.15-1.28,8.05,2.71-.19,7.05,5.5,9.5,5.3,15.74-.1,3,0,6.11,0,9.17,0,2-.59,5,.2,5.93,10.38,12.86,2.59,21.11-4.17,29.68-2.1,14.32-10.77,20.07-19.58,25.56-1.94,1.21-4,2.53-6.1,2.79-5.2.65-10.27-.88-14.84,5.53-2.53,3.55-9.17-2-12.38,4.67-.41.84-1.08,2-1.65,2.06-4.67.17-9.53,1.14-14-.17-5.64-1.66-7.24,6.81-12.15,6.5-6-.38-11.41.18-17.08,5.43-4.25,3.94-12.09-2.76-17,5.48-1,1.63-4.28,1-6.52,1.18-6.11.46-12.23.79-18.35,1.17-4.53,8.61-11.32,3.9-17.13,5-5.09,12.54-15.6,2.2-22.83,9.63-6.68,6.86-16.42,2.39-24.76,2.32-6.35-.05-9.76,8.83-16.84,6.84-4.7-1.32-10.89-3.33-14.9,4.25-.62,1.17-2.71,1.22-4.15,1.4-8.84,1.14-18.47-3.66-26.18,6.09-.4.51-1.51,0-2.29.07-8.92.46-18.34-2.64-26.13,6.12-8.58,0-17.15-.11-25.73.16-.85,0-1.73,2.25-2.4,3.63-.09.2,1,2,1.57,2,10.89.2,21.78.25,32.67.33,6.58-11.06,15.87-4,23.78-6.22,4.55-1.26,6.53,3.52,9.61,5.71,5.23-11.12,9.38,4.18,15.16,1,4.65-2.54,10.76-.51,16.21-.51,6.24,0,12.52-.56,18.71.14,7.06.8,11.25-9.59,19.21-6.68,5.79,2.12,12.39.42,18.63.42h81.87c7,0,14.07-.6,21,.15,8.05.87,17-4.63,24,5.57,1.07,1.54,4.47.38,6.79.39,13.25,0,26.52.52,39.76-.22,6.41-.35,10,8.24,16.82,6.64,6-1.42,12.43-.3,18.67-.3s12.48-.09,18.71,0c4.57.09,6.58,7.87,12.14,6.34,4.48-1.23,9.32-.25,14-.25s9.37.33,14-.08c6.23-.54,9.51,9.35,16.87,6.63,5.78-2.13,12.4-.1,18.61-.56,3.27-.25,4.12,9.64,8.74,2.88,4.23-6.17,5.28,3.38,8.78,4,5.57,1,10.25,8.07,16.84,5.51,4.62-1.79,6.45,4.72,9.81,5.83,3.67,1.22,8.28-1.28,11.53.62,6.16,3.6,10.74,9.9,13.65,18.57,3.65,10.87,9.43,21.08.6,32.13.67,19.21-12.38,26.25-20,38.06-1.18,1.83-4,2.46-6.08,2.57-6.23.33-12.79,1.7-18.64-.27-7.84-2.64-12.29,7-19.19,6.58-6.23-.36-12.47-.07-18.71-.07-8.22,12.13-19.17,6.27-28.43,5.34-7.83-.79-12.1,7.75-19.17,7.07-6.11-.59-12.31.3-18.47.54-4.4,8.63-11.33,6-17,5-6.82-1.22-9.89,8.78-16.87,6.86-6-1.65-12.42-.35-18.66-.35s-12.51.48-18.71-.14c-5-.51-6.63,7.7-12.14,6.59-4.16-.84-9.32-2.78-12.82,3.57-.72,1.3-2.56,2-3.92,2.13-3.1.3-6.24.09-9.35.09-5.46,0-10.93.29-16.38-.08s-9.92,1.08-14.74,5.66c-3.06,2.91-9.12-.15-13.71.68-11.06,2-23.16-5.78-33.21,5.92-.44.5-1.52,0-2.3.07-8.84,1.09-18.25-3.48-26.33,5.81-1.76,2-6.06,0-9.15.36-12.65,1.64-25.93-4.7-38,5.79-2.16,1.88-6.1.15-9.22.3-3.7.17-7.45-1.14-10.64,3.51-3.69,5.4-5.32-4.58-6.31-3.22-8.58,11.76-19.26,3.3-28.7,5.8-2.11.56-4.21,1.17-6.66,1.85,3.75,6.06,6.49,12.13,13.13,10.49,5.76-1.42,12.39,2.91,17.15-5.43.89-1.55,4.35-.76,6.63-.77,17.93,0,35.87.37,53.79-.22,7-.23,11.22,9.24,19.21,6.8,7.39-2.26,15.51-.48,23.3-.48,7,0,14,.23,21-.08,4.84-.22,6.5,8,12.15,6.49,5.25-1.37,10.87-.29,16.33-.29,4.67,0,9.41-.6,14,.16,5,.82,8.34,7.93,14.49,6.2,4.47-1.26,9.35-.71,14-.11,4.34.55,6.7,7.7,12.14,6.18a21.15,21.15,0,0,1,11.62,0c4.14,1.27,6.8,7.4,12.17,6.06,4.52-1.12,9.21-.85,12.38,5.27.54,1,2.86.61,4.37.65,5.28.16,10.21-.59,14.8,5.56,2.54,3.39,8.93-1.79,12.53,4.55,1,1.76,4.22,2.44,6.19,2,7-1.62,11.68,2.23,16.1,8.83,1.7,2.54,5.66,2.32,7.72,4.67,3.31,3.78,7.85,7.16,6.45,14.78-.83,4.51,1.44,7.22,3.42,10.45,1.09,1.78,1.39,7,.49,7.83-4.6,4.43-3.57,10.48-4.08,16.39-.4,4.65-4,7.42-5.07,12.59A65.43,65.43,0,0,1,999,788.55c-2,3.86-4.44,8.22-9.22,7.56-3.85-.54-7.79-.11-11.69-.11-4.67,0-9.45-.77-14,.25-3.42.77-6.47,5.33-9.8,5.59-10.1.77-20.26.28-30.4.28-8.27,11.75-19,3.8-28.46,6.15-5.79,1.45-12-2.93-17.56,4-4.11,5.07-10.34,1.62-15.6,2-6.19.48-12.41.23-18.61.47-.57,0-1.65,1.85-1.58,2,.73,1.36,1.62,3.54,2.52,3.58,6.23.31,12.51-.37,18.7.31,6.54.72,11.66,8.11,19.17,6.27,6-1.48,12.43-.3,18.67-.3,7,0,14-.38,21,.1,8.1.56,14.8,8.65,23.85,6.4,7.53-1.86,15.54-.38,23.34-.38,10.81,12.16,23.73,3.46,35.47,6.2,8.72,2,18.77-5.75,26.15,6l28.07,0c6.59,10.94,15.78,5.61,23.79,5.77,6.35.13,9.38,9.94,16.88,6.92,5.7-2.29,12.37-.47,18.61-.42.7,0,1.84.17,2,.72,3.39,9.25,11.76,2.09,16.16,8.47,1.28,1.86,4.2,1.59,5.93,3.13a57.63,57.63,0,0,1,6.88,7.85C1154.33,883.8,1159.25,890.33,1164.32,897ZM639.94,652.7a22,22,0,0,0-2.26-3.49,1.59,1.59,0,0,0-2,0,3.29,3.29,0,0,0,0,2.56,10.15,10.15,0,0,0,2.76,2.78c.17.13.94-1.17-19,.4,6.62.95,10.7-.3,14.09-5.57.58-.91,3.13-.46,2-3.24-.61-1.47-2.73-3.37-3.51-3-6,3.2-12,6.73-18.6,7.54-.28,0-.79,1.54-.62,2,.29.87,1,2,1.58,2.1C616.66,655.12,619,655,639.94,652.7Zm13.74.38L652,649.14c-.52.68-1.55,1.51-1.47,2a22.64,22.64,0,0,0,1.47,4.11Zm9.36-7.89L661.37,643a22.6,22.6,0,0,0-1.46,4.11c-.09.5.94,1.33,1.46,2C661.93,647.81,662.5,646.48,663,645.19Z"/></svg>