<svg id="Layer_1" data-name="Layer 1" xmlns="http://www.w3.org/2000/svg" viewBox="0 0 1200 1200"><title>BB_Artboard 46</title><path d="M623.49,513.06c.54,1.34.24,3.63-.6,3.85-4.36,1.13-8.9,2.33-12.7-1.72-4.32-4.6-12.83.79-16-6.64-3.08,4-7.18,4.64-12,4.61q-47-.3-93.94,0c-4.91,0-8.93-.59-12.34-4.63-.81-.95-4.44-.93-6.18,1.53a9.09,9.09,0,0,1-3.14,2.53c-9.42-9-20.87-2.47-31.21-4.12-8.79-1.4-18.57,2.86-26.21-4.83-11,0-21.92.12-32.88-.1-2,0-4-1.48-6.06-2.26-2.94-1.12,1.66.32,1.37-4.51.46-1.43-.59-.79-1.31.11-.35.42-.06,1.35-.06,2.05.7,0,1.64.29,2.05-.06a9.23,9.23,0,0,0,2.14-2.77c.1-.18-.91-.95-2.82.67-4.51,2.16-7.66,2.08-10.79,2.18-6,.18-11.94-1.11-17.19,4.42-2.67,2.8-8.46-1.1-11.15-6.19a7.17,7.17,0,0,0-2.75-2.28c-7.94,7.87-17.95,2-26.64,4.15-6.83,1.66-9.94-6.58-17-5.09-6,1.27-12.51.26-18.79.26H227.18c-6.28,0-12.57.1-18.85,0-2.2-.05-5,0-6.48-1.22-6.28-5.41-11.14-12.64-19.82-14.86.31-4.25-2.24-6.9-4.8-9.88a4.58,4.58,0,0,1,1.32-6.21c2.95-2,3.58-4.83,3.13-8.13-.67-4.88,1.3-6.58,6.36-7.05,3.3-.31,5.18-5.68,9.89-4.58.35.08,1.35-1.89,1.71-3,.1-.31-1-1.46-1.61-1.47-5.49-.12-11.2-1-16.43.17-6.39,1.45-9.3-4.8-14.6-5s-11,.36-16.28-.65c-2.51-.47-4-3.83-7.66-4.24-8.84-1-16.91-6.65-26.34-4.54-5.11,1.15-6.75-5.87-12.21-4.88-4.56.83-9.39.17-14.11.17-4.4-6-10.87-4.8-16.89-4.6-2.91.09-4.13-1.76-5.73-3.31-3.39-3.28-6.21-7.4-10.11-9.83-10.07-6.29-8.06-16-7.78-25.09.16-5.1,5.85-6.86,8.48-10.58,2-2.88,4.81-3.34,8.14-3.2,5.48.25,11,.07,16.48.07,6.29,0,12.58.27,18.85-.09,5.14-.29,10.2,1.25,15.29-3.13,4.77-4.13,13.11,1.1,17.88-1.85,11.69-7.23,24-3,36-4.36,5.87-.68,12.3,2.2,17.41-3.87,1.37-1.63,5.85-.8,8.91-.81,21.2-.05,42.41.36,63.6-.27,6-.18,9.68,4.2,14.57,4.71,8.54.89,17.25.32,25.89.12.75,0,1.59-1.81,2.1-2.91.11-.25-.95-1.45-1.58-1.56-5.22-.95-11.49,2.24-15.6-1.92s-8.64-2.58-13-2.83c-5.48-.31-12.16,1.94-16.27-.45-14-8.14-28.76-3.64-43-3.87-6.76-.11-10.07-6.42-16.93-5.48-5.67.77-12.26,2.47-17.35-3.62-1.36-1.62-5.87-.76-8.93-.77-17.27-.05-34.57-.49-51.82.19-7.83.31-13.51-2-18-8-1.82-2.47-4.63-.72-6.32-1.8-2.58-1.64-4.59-4.24-6.72-6.54a2.58,2.58,0,0,1-.41-2.13c2-6.05-3.76-9.56-4.65-14.57-.54-3.05,0-6.28-.13-9.41-.24-4.46,2.62-4.63,5.93-5,2.44-.27,3.73-2,3.6-4.84s-1.77-3.49-4-4.6c-6.54-3.29-15.65-4.13-18.54-11.21-2.16-5.29-5.37-8.89-8.77-12.87-2.5-2.93-2.58-9.84-.15-12.7,3.38-4,8.71-6.69,8.29-13.07,4.59-2.19,9-5.53,13.82-6.26s10.29-1.67,15.25,2.86c4,3.7,10.32,1.65,15.56,1,2.11-.25,2.24-2.09.65-3.19-2.84-2-3.16-4.73-3.63-8-.37-2.6-3.23-4.76-4.78-7.31-5.18-8.49-5-17.21-3.68-26.27.12-.79,2.47-1.28,3.81-1.83s3.86-.95,3.9-1.54c.46-7,4.29-8.52,10.64-8,7,.55,14.13.12,21.2.12H163c7.07,0,14.15.26,21.2-.07,6.83-.32,14.4,2.37,20.32-1.92,6.59-4.77,13.46-2,20.15-2.59,7-.58,14.12-.13,21.19-.13.78,0,1.87.34,2.31,0,7.1-6.33,15.76-4.51,24-4.63,8.63-.13,17.28-.31,25.91.07,5.88.25,12.69-2.68,17.18,3.94,8.42.94,16.86,1.61,25.18-.48.76-.19,1-2.58,1.36-4a3.51,3.51,0,0,0-.29-2.21c-1-2-2.17-2.22-3.3-.8-3.7,4.66-7.55,5.09-11.34.19-1.31-1.7-2.08-1.6-3.43.34-.73,1.06-2.15,1.64-3.26,2.44-3.61-5.92-9.49-4.14-14.73-4.21-8.64-.12-17.35.66-25.9-.19-13.5-1.34-27.74,4.46-40.61-4.35-2.14-1.46-6.14-.2-9.29-.2H213.19c-5.49,0-11.1-.69-16.46.18-6,1-9.72-4.23-14.59-4.64-10.14-.85-20.55-1.32-30.55.12-6.59,1-8.41-7.64-14.59-5.09-2.1-5.73-5.11-10.79-10-14.68-3.74-3-1.3-7.31-1.82-11-.32-2.31.14-4.72-.1-7-.49-5,.84-8.65,4.69-12.33s8.31-6.07,13.08-8.42c2.7-1.33,4.75-3.2,8.17-3.16,14.92.21,29.84.09,44.76.09,6.29,0,12.61.46,18.84-.13,6.05-.57,13,3,18-1.7S242.88,75.29,248,75c6.26-.41,12.58.18,18.83-.27,1.93-.13,3.65-2.38,5.61-3.38a27.43,27.43,0,0,1,4.23-1.17c3.4-1.08,4.4,7.47,8.78,2.2,3.07-3.71,7.2-1.86,10.88-2.13,3.91-.28,7.85-.06,11.77-.06h40.05c8.64,0,17.31-.43,25.91.13,7.36.48,15.42-3,22,4.1,1.47,1.6,6,.46,9.08.47,14.13,0,28.31-.65,42.39.24,9.6.61,20.4-4.81,28.69,4.48,8.64,0,17.29-.34,25.91.11,7.3.37,15.46-2.77,21.48,4.29,9.3-9.16,20.78-3.13,31.18-4.16,10.89-1.08,22-.41,33-.16,5.16.12,11.15-2.16,14.86,3.85a77.12,77.12,0,0,0,25.23-.1c3.73-6.08,9.77-3.25,14.91-3.8,4.76-.51,9.06-.07,12.48,4.31.91,1.17,4.44.36,6.77.36,14.92,0,29.84-.07,44.76.08,3.3,0,6.22-.21,8.1-3.21,1.25-2,2-1.85,3.4.14a9,9,0,0,0,12.41,2.27c5.24-4.26,8.69-5.71,13.61-.24.41.46,4.6-3.67,6.89-3.51,7.34.53,15.78-3.46,21.69,4.32,3-4.17,7.22-4.76,12.12-4.65,12.55.3,25.16.71,37.68-.09,10.39-.66,21.56,3.89,31.23-4.3,1.82-1.55,6.09-.22,9.23-.22,14.14,0,28.29-.42,42.4.2,5.88.26,8.1-6.81,14.61-5.17,5.17,1.29,10.93.26,16.43.26s11.77,1.74,16.35-.31c18.69-8.37,38.1-3,57.1-4.09,4.11-.24,5.88-6.32,9.11-3.55,4.42,3.79,7.44,4.65,11.69.15,1.26-1.34,4.14-1.45,6.31-1.57,6.75-.34,14,1.49,19.25-4.77,7.65,2.82,12.24-5,18.94-5.45,4.52-6.61,11.35-3.17,17.21-4,6.84,7.37,15.81,4.1,24,4.64a141.75,141.75,0,0,0,16.49,0c2.78-.14,4.34,1.34,5.81,3.08,3.65,4.31,7.52,6.82,13.85,6.75,5.65-.06,8.08,6.58,12.25,9.89,3.06,2.43,1.42,5.85,1.48,8.77.14,6,1.05,12.1-4.38,17.15-1.55,1.44,0,6.47-4.51,6.19-5-.31-6.61,5.43-12.2,5.08-14.09-.88-28.26-.5-42.39-.2-6.84.15-14.51-2.52-20.37,1.77-7.35,5.36-15,2.08-22.45,2.72-7,.61-14.48-1.2-21.09.55-5.54,1.46-10.49,5-16.77,5-2.12,0-2.07,1.84-.32,3.2,2.93,2.29,4.72,6.26,9.52,5.53,6.5-1,10.68,4.5,16.2,6.41a8.72,8.72,0,0,1,5.85,9.12,44,44,0,0,0,0,11.75c1.65,9.65-6.2,13.41-11.14,19a2.87,2.87,0,0,1-2,.78c-5.5.06-11.49-1.33-16.36.42s-8.9,5-14.69,4.46c-6.22-.58-12.84,1-18.76-.41-8.51-2.1-13.72,6.06-21.7,5.16-7-.8-14.11-.17-21.18-.17-8.31,9.19-19.31,4.87-28.63,4.12-7.89-.64-12.19,6-19.31,5.43-6.18-.49-12.45.11-18.68.23-5.18,7.21-12.82,3.55-19.41,4.27-4.52.5-9.38-.94-12.61,4-.56.85-2.81.78-4.28.79-6.28.08-12.56,0-18.85,0s-12.67.74-18.81-.2c-6.74-1-10.05,5.7-17,5.25-16.42-1.06-33-.37-49.45-.32-5.3,0-11.09-1.32-14.61,4.52-4.43-.24-9.14,1.79-12.86-2.91-2.83-3.59-7.29-1-11-1.51-3.52,5.8-9.26,4.59-14.59,4.59-38.48,0-77-.07-115.44.1-4.42,0-9.35-1.95-13.28,2,4.11,5.51,9.89,2.27,14.82,2.48,11.76.5,23.55.08,35.33.19,9.33.09,18.66.35,28,.83.62,0,1.12,2.51,1.66,4.91.28.56,0-1,0-1a28.76,28.76,0,0,0-6.56,0c-.95.18-1.71,1.67-2.38,2.69a3.3,3.3,0,0,0,1.49,1.45c2.88.9,5.62.85,7.43-3.21a86,86,0,0,1,18.86-.95c3,.16,4-2.07,5.69-3.44,3.47-2.74,7.37-1,11.1-1.09,3.53,5.95,9.4,4.39,14.65,4.39q81.29.09,162.56,0c3.14,0,6.39.49,9.39-.16,2.53-.54,4.78-2.42,7.15-3.7,4.91,8.83,7.72-3.66,13.12-1.28,4.6,2,10.81.42,16.31.42h30.63c5.49,0,11,.16,16.49,0,13-.44,14.16-.68,18.76,2.13,2,1.18,3.39,3.06,6,2.63.77-.12,1.6.12,2.35,0,5.78-1.24,10.21,1.58,14.54,4.74,8.71-1.39,4.12,8.38,9.15,11,3.21,1.64,2.42,7.73.57,10.53-2.18,3.32-3.64,6.11-4.14,10.2C991,264.71,986.62,268,979.8,268q-30.63.06-61.25,0c-5.5,0-11,0-16.5,0-2.72,0-4,1.5-4.23,4.24s.95,4.82,3.35,5c4.68.43,9.42,0,14.12.16,6,.2,10.73,5.61,10.85,12.11.18,9.74.18,9.74-8.58,27.07-2.2,4.34-.44,7.8,4.06,7.89,3.14.07,6.28,0,9.43,0a24.44,24.44,0,0,1,4.69.06c1.39.28,3.15.78,3.91,1.79,5.23,7,12.12,8.65,20.5,7.84,2.32-.22,4.79,3.69,7.49,4.23,3.41.7,5.77,1.19,5.66,5.35-.16,6.28.22,12.58-.13,18.84-.25,4.48-6.29,6.67-5.29,12,.08.44-1,1.47-1.6,1.58a27.67,27.67,0,0,1-4.65.17c-6.29,0-12.57.15-18.85,0-5.42-.17-10.8-.63-14.46,4.58-4.35-8.73-8.28,1.25-12.71.38s-9.38-.2-14.09-.2c-5.5,0-11-.28-16.49.07-5.89.39-12.3-2.27-17.41,3.8-1.37,1.62-5.86.79-8.91.81-11,.07-22-.34-33,.17-6.59.3-14-2.84-19.68,4-.63.77-4-6.54-8.19-1-2.64,3.56-7.32,1-11,1.5-6.78.86-14.37-2.32-20.28,2.12s-11.91,2-17.83,2.5c-7,.56-14.12.13-21.19.13-13.43,9.23-28.54,3.09-42.82,4.64-8.9,1-18.27-1.91-26.48,4.56-1.94,1.53-6.11.23-9.25.23-20.42,0-40.84-.15-61.25.09-5.89.07-12.74-2.54-17,4.32-5.86-.69-12.27,2.86-17.51-2.69-3.73-3.94-6.94-1.69-9.64,1.62-1.27,1.55-2.06,1.33-3.41-.53s-2.93-3.55-4.95-.59-5.52,1.85-8.35,2.63c-4.41,1.23-5.79-5.52-9.27-3.5-2.64,1.52-4.56,3.95-8.07,3.38-4.37-.71-8.61.77-13.11-2.78-4.73-3.72-11.27-3.49-17,.07-3.71,2.3-4.53,1.12-7-.8-1.54-1.21-4.29-1.16-6.51-1.18-14.13-.09-28.32.71-42.39-.27-12.72-.88-26.2,4.59-38.26-4.27-2-1.5-6.13-.22-9.27-.22-16.49,0-33,.29-49.47-.14-6.59-.17-14.09,2.82-19.57-4-.67-.84-2.89-.57-4.4-.57-29.84,0-59.68,0-89.52.1-.86,0-1.78,1.73-2.48,2.78-.09.12,1,1.5,1.58,1.53,3.89.21,7.79.24,11.69.28s9.37-1.62,11.47.34c4.59,4.29,10.43,2.76,14.52,5s7.67,4.6,12.51,4.08c8.48-.91,16.07,2.06,24.08,4.29,7.29,2,15.59.43,23.44.43,8.55,7.71,19,3.79,28.67,4.71,5.27,6.28,12.5,4.52,19.26,4.71,6.05,6.84,14.15,4.39,21.6,4.67,5.49.22,11,.05,16.49.05,4.24,6.58,10.9,4.53,16.9,4.69,5.48.14,11,.1,16.44.14,5,9.57,16.92-.06,22.65,8.2.87,1.26,4.25,1,6.48,1.06,7.06.12,14.13,0,21.2,0,5.5,0,11-.09,16.49,0,4.62.1,9.23.43,13.85.66,4.78,8.8,8.27-4.17,12.95-.8,1,.75,3.84-.56,4.51.22,5.44,6.28,12.7,4.85,19.37,4.43,6.45-.4,10.09,6.43,16.94,5.1,5.27-1,10.91-.1,16.38,0,3.53,5.84,9.39,3.89,14.59,4.71,4.47.71,7-5.25,9.3-3.77,3.4,2.23,6.25,3.92,10.38,3.67a109.22,109.22,0,0,1,14.13,0c5.89.42,12.42-2.31,17.28,4.11,1.17,1.56,2.69-6.18,6.34-2.49,2.45,2.48,4.93,3.09,8.22,3.09q119-.12,237.94,0c8.47,0,14.77-7.17,24-5.15,7.5,1.62,15.64.33,23.49.33,8.64,0,17.49,1.18,25.86-.3,10.63-1.89,18.54,6.08,28.41,5.79,3,5.1,8,3.64,12.49,4.06,1.15.1,3.06,1.78,3.07,2.76.14,7.8-.1,15.6-.23,23.4-3.48,2.3-3.78,6.17-5.2,9.63s-5.61,1.64-8.52,1.69c-12.56.2-25.13,0-37.69.16-1.35,0-3.77.89-3.85,1.58-.33,2.87,2,2.63,4.14,3.17,4.92,1.28,8.52,5.43,14.6,4.95,4.47-.36,8.57,6.53,8.62,11.62,0,5.5-.07,11,0,16.49.06,3.18,5.6,8.78,9,9.2a13.73,13.73,0,0,0,4.7,0c7.57-1.78,10.91,4.21,15.59,8,3.52,2.88,3.94,6.32,3.68,10.32a52.13,52.13,0,0,0,0,7.07c.22,3.22-.13,6-2.93,8.26-2.43,2-4.22,4.77-6.77,6.52-4.58,3.17-4.69,7.55-4.53,12.35.09,2.63-1.5,4-4.33,4.12-1.39,0-3.89.78-3.94,1.39-.65,6.69-4.13,8.19-10.61,8.13-35.33-.36-70.67-.24-106-.11-6.7,0-13.71-1.61-19.5,4.41-1.42,1.49-7.52,1.25-8.75-.33-4.93-6.32-7.27-1.46-10.26,1.5a13.48,13.48,0,0,0-1.21,1.63c1.49,2.36,3.86,2.16,6.18,2.16,17.27,0,34.55-.2,51.82.12a11.43,11.43,0,0,0,9.9-4.66c3.24,4.4,6.57,4.51,10,.21,5.81,6.4,11.68,6.77,17.94.49.23-.23,3.05,3.07,4.83,3.26,5.39.58,10.9.06,16.29.67,6.68.75,13.55-2.15,20.14,2.63,5.92,4.28,14.62-.59,20,2.54,5.07,2.94,9.48,4.92,14.84,4,7.07-1.15,11.87,1.63,16.16,6.84,1.23,1.5,3.83,2,5.88,2.66,2.38.82,3.93,1.84,3.73,4.81-.39,6,1.45,12.47-4.66,17-.76.56.12,3-.14,4.56-1.31,7.46-5,11.23-11.63,11.25-5.49,0-10.67-.36-14.74,4.63-.83,1-4.42.71-6.15-1.66-.76-1-2.16-1.61-3.27-2.4-4.39,6.71-11.24,3.45-17.1,4.24-13.46,1.8-27.84-4.35-40.45,4.7h-33c-5.49,0-11.11.71-16.45-.2-5.52-.93-7.81,4.47-12.23,4.82-3.72.3-8,1.22-10.49-2.94-1.28-2.1-2.13-2.12-3.4-.07-1.87,3-4.83,3.17-8.11,3.16-29.84-.1-59.68-.06-89.52-.06-13.35,0-26.74-.59-40,.19-10.4.6-21.78-4.13-31,4.52-14.92,0-29.85.17-44.76-.17-2.41-.06-5.39-4-7-3.36-2.6,1-4.36,3.65-8,3.62-22-.18-44-.23-66,0-4.37.05-6.8-2.76-10.11-4.17-3.72-1.59-9.28-2.55-12.55,2.42-1.35,2.05-2.09,2.07-3.43,0-.81-1.24-2.23-2.93-3.4-2.95-11-.13-21.9,0-32.85.23-.57,0-1.12,1-1.67,1.6.92.91,1.82,2.59,2.78,2.63,6.27.24,12.61-.38,18.83.26,6.55.66,11.78,6.14,19.3,4.79,6.09-1.08,12.53-.22,18.81-.22h21.2c12.51,0,12.57-.09,27.43,7.69,1.72.9,2.33,2.08,3.4.3,2.52-4.18,6.61-3.28,10.43-3.28h68.32c8.31-3.48,13.45,6.15,21.64,5,7.69-1.13,15.67-.24,23.53-.24h73c2.28,0,4.48-.21,6.28,2,4.24,5.1,7.88,2.75,11.45-1.1.21-.22,2.44.84,3.15,1.76,2.31,3,3.81.76,5-.82,1.4-1.88,2.11-2,3.44-.36,2.69,3.37,6.13,5.5,9.57,1.42,3.12-3.68,7-3.12,10.65-2.75,4.36.43,6.75,5.92,12.23,4.75,3.75-.8,7.83.07,11.74-.21,4.15-.31,7.16,1,10.3,3.87,2.08,1.93,3-4.8,6.49-2.58,1.87,1.18,4.07,3.63,5.57,3.26,6.84-1.69,10.53,6,16.89,5.08,2.66,3.54,8,5.32,7,11.27-.88,5.25,2.11,11.44-1.67,15.72-3.6,4.08-2.76,10.31-7.65,13.59-.51.34,1.16,3.93,1.82,6,6.91-7.08,15.75-3.82,23.81-4.23,8.61-.44,17.28.13,25.9-.19,5.16-.19,8.29-6.19,14.6-4.85,5.26,1.11,10.94.23,16.44.23h33c5.5,0,11,0,16.49,0s12-1.72,16.11.69a26.74,26.74,0,0,0,12.55,4.19c3.85.28,8.7,6.16,8.74,9.35.09,6.28-.17,12.57.12,18.84.13,3-2.38,3.78-3.45,5.69-2.67,4.78-1.47,8.1,2.89,8.32a64.25,64.25,0,0,0,9.41,0c5-.49,6.72,6.85,12.19,4.77,3.89,3.87,9.93,7.18,11.12,11.76,1.34,5.16,3.15,11.82-2.21,17.52-3.29,3.51-4.69,9-6.36,13.73-.86,2.46-1.64,4.12-4.43,4.11-2.35,0-4.71,0-7.07,0h-30.62c-5.5,0-11.16.82-16.45-.22-5.67-1.11-7.48,5-12.23,5-11.78-.08-23.75,1.29-35.27-.45-8.63-1.31-13.51,6.64-21.71,5.37-6.85-1.05-14,0-21,0-6,7.53-14.39,3.41-21.72,4.41-10.37,1.41-21.69-3.73-31.12,4.63-.88.78-3.07,0-4.62.12-12.73,1.34-26.26-3.82-38.1,4.69-8.64,0-17.28,0-25.91,0-2.87,0-3.4,6.4-6.75,3.16-4.38-4.23-7.52-4.28-11.65.09-1.25,1.32-4.2,1.38-6.38,1.41-9.42.15-18.91-.65-28.25.25-11.16,1.08-23.33-4.54-33.4,4.53-13.35,0-26.7-.15-40.05.07-5.16.09-10.5-1.54-15.18,3.58-1.87,2-7.32,1-11.14,1q-68.31.07-136.64.07a36.8,36.8,0,0,0-9,1c-.78.2-1.45,2.58-1.38,3.92s.85,3.46,1.8,3.78a22,22,0,0,0,6.81.63c18.06,0,36.13.33,54.18-.15,6.22-.16,7.95,2.22,8.4,7.72.18,2.16,1.85,2,3.24.47s2.69-3.73,5.67-3.38c3.84.44,7.14-.05,10.57-3.1s8.55-2.9,12.51.54c1.77,1.54,2.6,2.3,5.14.46,6.81-4.93,14.59-2.53,22.07-1.6,6.27,7.49,14.66,2.65,22,3.53,1.52.18,3.42-2.79,5.15-4.31,4.3,6.34,10.87,4.51,16.83,4.52,23.56.08,47.13.5,70.67-.18,10.38-.3,21.55,3.91,31.22-4.28,1.83-1.54,6.1-.22,9.24-.22,28.27,0,56.55.52,84.8-.25,11.13-.31,23.32,4.61,33.39-4.46,12.57,0,25.14.24,37.69-.1,5.88-.16,12.31,2.37,17.44-3.71,1.38-1.64,5.84-.86,8.89-.87,22.77-.06,45.56.52,68.3-.32,8.08-.3,13.32,7.56,21.72,5.36,1.61-.42,6,3.53,6.45,6,1.39,7.33,3.64,15.26-1.57,22-2.07,2.69-1.17,4.38,1,4.48,8.62.39,17.27.11,25.91.18,5.43,0,11.86-1.48,16.06.87,5.94,3.31,10.25,9.55,15.23,14.57,1,1.05.53,2.16-1.23,3.34-3.14,2.1-2.74,5.43-2.37,8.4,1.3,10.39-6.56,14.64-13,19.92-7.57-3.12-12,6.26-19.27,4.8-3.61-.72-5.86,1.15-5.52,5.17s-.07,7.51-3.65,10.34a24.7,24.7,0,0,0-5.64,7c-.55.94.17,3,.88,4.2,1.84,3.16,8.43-.69,8.4,5.55,0,4.71-.49,9.49.14,14.11s-4.53,5.63-5.07,9.82c-.92,7.11-5.94,10-13.15,9.72-9.41-.3-18.85-.15-28.27,0-4.63.06-9.75,5.33-10.15,10.41-.24,3.12.21,6.31-.12,9.41-.26,2.47-1.71,3.83-4.67,3.79-6-.07-12.2-1.37-17.17,4.39-1.27,1.48-6.13.7-9-.18-16.61-5.15-16.57-5.22-36.64-.42a41.12,41.12,0,0,1-9.09.8c-9.42.1-18.87-.34-28.26.17-6.6.36-14-2.71-19.64,3.93-1,1.23-4.4.61-6.69.63-8.63.06-17.3-.43-25.9.15-8.12.56-17.27-3.66-24.06,4.37-4.68.07-9.37.18-14,.2-6.28,0-12.57.11-18.85,0-5.44-.11-10.3-.18-14.87,4.42-2,2-7.58-.11-11.43.41-10.37,1.4-21.66-3.91-31.19,4.47-1.32,1.16-4.61-.13-6.91.21-10.36,1.5-21.8-4.15-31,4.66-4.71,0-9.45-.31-14.13.08-5.88.48-12.48-2.55-17.39,3.75-1,1.24-4.33.64-6.58.88-12.72,1.37-26.17-3.68-38.2,4.56-1.6,1.1-4.64-.1-7,.2-8.09,1.06-17.26-3.6-24.09,4.45-.35.41-1.47.21-2.23.21-8.64,0-17.32-.49-25.91.15-7.44.56-14.86-2.29-22.47,2.69-7.27,4.76-16.64,1.6-25.06,1.76-18.06.37-36.15.75-54.17-.19-7.44-.38-11.79,6.35-19.3,5.26-7.69-1.11-15.67-.24-23.52-.24H461.46c-7.06,0-14.13,0-21.2,0-2.7,0-4,1.51-4.2,4.27s1.34,5.43,3.32,4.92c7.74-2,12.19,5.42,18.9,6,.41,0,1.15,1.18,1,1.57-.23.66-1,1.62-1.57,1.62-14.08.23-28.16.35-42.24.49-3.33-3.63-6.69-5.7-10.16-.16-8.37-9.18-19.15-3.46-28.76-4.35a163.56,163.56,0,0,0-30.58.09c-4.81.47-8.63,5.84-14.59,4.51-2.89-.64-6,.38-8.47-2.43a134.94,134.94,0,0,0-11.65-11.66c-3.62-3.19-2.18-7.15-2.25-10.83,0-1.14,1.59-3.26,2.52-3.29,7.05-.28,14.13-.16,21.19-.16,12.64-8.87,26.95-3.4,40.47-4.55,6.1-.52,9.63-7.15,17-5.19,5.86,1.57,12.48.32,18.76.32,6.1-6.6,14.11-4.58,21.61-4.69,7.85-.11,15.73.4,23.55-.14,7.36-.52,15.4,2.89,22-4,1.52-1.6,6-.52,9.06-.53,12.56,0,25.15-.47,37.68.18,6.52.34,10-6.44,16.95-5.14,6.07,1.14,12.52.24,18.8.24s12.57,0,18.85,0c4.76,0,6.73-6.48,12.1-5.06.38.1,1.63-1.43,1.56-1.52-.76-1-1.69-2.73-2.59-2.74-16.49-.16-33-.12-49.47-.12-22,0-44,.6-66-.24-11.93-.46-24.57,4.39-36-4.19-2.5-1.89-7.64-.28-11.57-.28q-58.89,0-117.79,0c-8.54,0-17.66-2.86-24.32-9.3-3.73-3.62-7.19-5.36-12.24-4.9-3.89.36-7.91-.38-11.75.17-6.9,1-11.16-2.36-16.4-6.38s-11.22-7.2-16.19-11.93c-3.59-3.43-.9-4.64.94-6.85a6,6,0,0,0,.94-4.25c-1-7.54,1.15-13.64,7.47-18.17,3.25-2.33.72-3.75-1.24-4.26-6.39-1.66-11.77-6.1-19.26-5-7.7,1.09-15.69-.12-23.52.33-11.28.65-21.78.16-28.51-11-2.9-4.78-10.09-2.9-13.16-8.27-1.74-3-3-5.56-.36-8.05,2.47-2.35,3.67-4.68,3.35-8.13-.19-2.15-.66-4.37,1.49-6.45,6.14-6,11.37-11.25,21.82-10.47,19.53,1.45,39.23.34,58.87.49,3.33,0,6.17-.33,8.08-3.28,1.2-1.87,2-1.66,3.41.26s3.81,4.37,5.68,2.8c9.39-7.88,20.76-2.64,30.84-5.34.64-.17,1.54-1.09,1.51-1.61a2.27,2.27,0,0,0-1.55-1.6c-6.15,0-11.24-2.86-16.77-5.05-4.76-1.89-11.14-1.51-16.28-.15-9.17,2.44-14.92-7-24.08-5.28-8.36,1.53-17.22.21-25.86.37-4.8.09-6.55-6.21-12.23-5-4.45,1-9.34.27-14-.15-.83-.07-1.59-2.32-2.14-3.66s-.63-3.94-1.24-4c-8.39-1.42-12.55-8.35-17.93-13.58a6.13,6.13,0,0,0-6.28-1.8c-5.57,1.73-7.52-4.88-12.22-4.84s-9.43-.1-14.13,0-6.56-6.21-12.23-4.94c-4.49,1-9.38.2-14.09.2s-9.57-.73-14.1.19c-5.56,1.12-7.16-5.5-12.23-5A65.89,65.89,0,0,1,53.73,904c-1.94-.23-3.6-2.5-5.5-3.66-5.1-3.09-6.73-11.08-14.58-10.36a2.21,2.21,0,0,1-1.71-1.33c-.88-8.93-4.58-18.4,4.63-25.52,1.23-1,3.17-2.19,3.19-3.31.09-5.82,2.43-7.66,8.44-7.62,41.62.28,83.24.21,124.86.07,5.14,0,11.14,2.21,15-3.74a8.56,8.56,0,0,1,3.16,1.67c2.5,2.56,5.68,3.52,8,.9,5.14-5.88,11.62-2.63,17.49-3.46,3.64,5.27,9,5,14.54,4.76a164.7,164.7,0,0,1,16.48,0c3,.18,3.77-2.41,5.71-3.41,4.26-2.21,8.62-2.63,12.72.6,1.18.93,2.39,2.6,3.59,2.6,21.9,0,43.8-.28,65.71-.57.56,0,1.45-1,1.55-1.61s-.88-1.56-1.41-1.58c-9.31-.35-18.66-.26-27.94-.94-6.61-.48-13.67,2.35-19.76-3.84-2-2-7.49-.18-11.27-.85-8.79-1.55-18.85,4.3-26.41-4.43l-28.19-.2c-5.81-8-14.32-3.48-21.6-4.76-5-.88-8.37-5.95-14.58-4.89s-12.53.23-18.81.23H150.52c-5.5,0-11.05.5-16.48-.11-10.39-1.17-21.78,4.1-31-4.6-5.5,0-11,.17-16.49-.08-2.49-.12-3.68-1.67-3.91-4.58a10.16,10.16,0,0,0-8.73-9.22c-3.6-.64-5.48-2.7-7.39-4.91-1.35-1.56-2.93-5.3-2.42-5.73,5.31-4.52,2.69-12,5.94-16.43,4.91-6.65,10.73-13.48,21.23-11,7.18,1.7,15.64-2.88,21.78,4.4.37.44,1.42.4,2.15.41,2.36.05,4.73.17,7.07,0,5.32-.4,10.81,1.28,16.1-1.24.61-3.75-3.1-4.51-4.72-6.61-1.9-2.47-4.41-4.47-6.58-6.74-2.44-2.55-2.61-4.23-.4-8,1.11-1.9,3.93-2.79,3.22-5.74-1.26-5.25,1-9.1,5.08-12,3-2.17,4.31-7.21,9-6.65,6.06.73,12.69-2.59,18.08,1.66a12,12,0,0,0,8.25,3c11.78-.17,23.56-.13,35.34,0,3.93,0,6.95-1.08,10.52-3.24,5.1-3.09,11.6-2.71,17.26.66,1.07.65,3,1.84,3.2,1.64,5.55-6.83,13.12-3,19.72-3.68,6.22-.61,12.55-.24,18.83-.09,4.75.11,8.83-.16,12.54-4.24,2-2.19,5.76-.27,7.82,2.52a16.35,16.35,0,0,0,1.66,1.67c.79-1.24,1.94-2.38,2.28-3.73.6-2.42-.32-5-2.7-5.53-3-.64-6.31.24-9.38-.22-11.12-1.69-23.13,4.19-33.58-4.42-1.87-1.55-6.1-.22-9.24-.22-4.71,0-9.43.05-14.14,0-4.53-.06-8.58.11-12.85-3.48-2.83-2.38-10.23.78-13.19-1.56-7-5.51-14.51-5.12-21.85-4.11-8.19,1.13-13.09-7.25-21.72-5.32-7.47,1.68-15.64.67-23.47.18-2.76-.17-3.55-4.86-7.48-4.63-5.47.33-11.8,1.77-16.26-.39-5.34-2.58-9.31-8.26-13.47-13-3-3.32-7.68-5.26-8-10.82-.41-7.32,4.8-12.24,7.52-18.11,1.86-4,6.72-6.53,9.62-10.2,3.29-4.17,5.2-2.91,8.64,0,1.85,1.58,5.94.66,9,.67,12.56,0,25.15.44,37.69-.13,8.11-.38,17.28,3.73,24-4.41,5.48,0,10.95-.13,16.43-.15,7.06,0,14.13,0,21.2,0,4.25-6.54,10.89-4.49,16.89-4.72,3.89-.15,7.83-.59,10.38,3.45.94,1.5,2.11,1.07,3.32-.8,2-3.11,5.23-2.66,8.32-2.66,25.91,0,51.82.09,77.74-.06,4.15,0,7.6.54,10.24,4a7.7,7.7,0,0,0,3.14-1.92c1.71-2.21,5.12-3,6.08-1.85,4.81,5.66,11.08,4.18,17.09,4.6,7.63.53,16.22-2.74,22.7,1.8,6.78,4.75,13.46,2.17,20.12,2.71,7.8.63,15.74-.35,23.53.33,5,.44,8.45,6,14.59,4.71,4.53-.92,9.39-.18,14.1-.18H491c4.71,0,9.43-.08,14.14,0,4.5.11,9.25-1.17,12.76,3.63.92,1.26,4.26,1,6.49,1q74.2.07,148.42-.06c1.2,0,2.4-1.5,3.6-2.31-1.25-.76-2.47-2.12-3.76-2.19-4.7-.27-9.46.28-14.12-.2-7.36-.75-15.4,2.84-22-4.05-1.54-1.61-6-.54-9-.55-11,0-22-.52-33,.17-6.54.41-10-6.45-17-5.14-6.07,1.15-12.52.24-18.8.24s-12.57-.12-18.85,0c-4.79.11-6.56-6.23-12.23-5-4.49,1-9.38.21-14.09.21s-9.48-.47-14.12.11c-6.48.81-9.52-7.39-17-5.17-5.77,1.72-12.46.34-18.75.34-8.63-7.18-19-4.7-28.67-4.5-7.11.14-11.49-7.11-19.32-5.21-5.93,1.45-12.5.29-18.78.29-6.84-7.39-15.83-4.6-24-4.5-7.08.09-11.32-7.49-19.34-5.24-5.83,1.63-12.48.32-18.76.32-7.42-9.11-17.54-3.25-26.34-4.57-5.92-.89-12.45,1-16.87-4.86-5.5,0-11,.3-16.49-.07-8.92-.6-18.64,3-26.32-4.64H222.9c-10.09-8.88-22.24-3.22-33.39-4.64-5.21-.66-11.11,1.41-14.64-4.52-6.25-.09-12.62-1-18.7,0-6.79,1.07-11.66-2.25-16.91-5-8.09-4.2-8.06-4.36-14.16-16.29-1.34-2.61-5.49-3.64-4.64-7.48,1.53-7-2.46-9.33-8.27-10.33-5-9.51-13.92-8.63-22.49-8.18A9.27,9.27,0,0,1,81.62,538C78,533.9,73.89,530.17,70,526.26c-7.9-8-7.42-11.64-2.66-24.26,2.32-6.14,4.43-8.49,10.82-7.91,6.23.56,12.6-.35,18.82.27,5,.5,8.41,5.94,14.6,4.77,5.3-1,11-.21,16.45-.21h14.13c5.5,0,11,0,16.49,0,6.1,0,12.38-.85,16.9,4.72,6.28,0,12.58-.3,18.84.09,5.89.37,12.67-2.66,17.24,3.9a2.88,2.88,0,0,0,2,.7c7.71.37,15.43.67,23.15,1,5.45,7.06,13.26,3.89,19.62,3.35,8.17-.68,13.07,7.29,21.72,5.47,8.28-1.73,17.2-.37,25.84-.37,7.85,0,15.71-.22,23.55.08,5.18.2,8.27,6.22,14.59,4.86,5.26-1.12,11-.23,16.45-.23h33c5.49,0,11.05-.51,16.48.11,10.38,1.18,21.65-3.9,31.18,4.44,1.33,1.17,4.57.16,6.93.16,43.19,0,86.38-.11,129.57.15,5.43,0,9.73-1.67,14.38-3.82,1-.47,3.1,5,6.6,1.06,3.75-4.22,4.34,2.68,6.56,2.39,5.86-.75,12.59,3.11,17.49-3,9-2.06,18-2.69,26.88.44,10.39,3.66,14.59,3.87,23.85.66,3.06-5.08,9.31,6.48,11.66-2.24a16.54,16.54,0,0,1,1.66,1c1.77,1.33,2.71,3.49,5.68,3.49,4,0,4.91-3.46,7.36-5.12a6.11,6.11,0,0,0,1.59-1.58c-.76-1-1.65-2.68-2.6-2.73-4.69-.28-9.41-.09-14.13-.15-1.49,0-3.3.11-4.39-.65s-1.35-2.49-1.9-3.83-.74-3.64-1.58-3.89c-2-.59-5.06-1.11-6.17-.05-3.83,3.65-7.22,5.92-11.53.95-3.14-3.62-7.33-1.24-11-1.93-5.82,7.84-14.26,3.72-22.68,4.71,1.1.73,1.89,0,1.06-2.18a2.87,2.87,0,0,0-1.42-1.56,8.79,8.79,0,0,0-4-.87c-1.26.17-2.4,1.2-3.6,1.85.82.92,1.47,2.29,2.48,2.65C619.34,513.41,620.93,513.06,623.49,513.06ZM297.37,663.84c.7,0,1.67.27,2-.08a2.06,2.06,0,0,0,0-2c-1.09-1.55-2.44-3.48-4.1-.65-.22.38,1.32,1.79,8.48,5.46a16.89,16.89,0,0,0-2.28-2.68,2,2,0,0,0-2,0,2,2,0,0,0,0,2,9.61,9.61,0,0,0,2.78,2.14C302.48,668.12,303.25,667.12,297.37,663.84ZM528.25,960.68c.7,0,1.67.27,2-.08a2,2,0,0,0,0-2c-1.09-1.55-2.44-3.49-4.1-.65-.22.37,1.32,1.78,13.17,5.47-.25-.52-.4-1.4-.76-1.49-2-.53-4.07-.76-6.06-1.3-2.23-.6-3,.05-2.16,2.21a3.2,3.2,0,0,0,1.41,1.58C535,966,538.85,965.49,528.25,960.68Zm-320.4-518.3H210c0-.7.28-1.6,0-2.06-1.1-1.55-2.44-3.49-4.1-.65-.22.37,1.32,1.78,13.17,5.47-.25-.52-.4-1.4-.76-1.49-2-.53-4.07-.76-6.06-1.3-2.23-.6-3,0-2.17,2.21a3.17,3.17,0,0,0,1.42,1.58C214.63,447.74,218.45,447.19,207.85,442.38ZM337.17,685.17c0,6.07,0,6.11,5,4.27,1.34-.5,2.62-2.07,3.79-1.93,7.26.85,15.54-3.16,21.63,4.13a11.85,11.85,0,0,0,3.1-2.51c1.32-2,2.23-2.14,3.36-.22,1.47,2.49-.13,6.72,3.33,7.74,2.85.84,7.71,1.46,9-.07,4.19-5.06,9.27-4.6,14.64-4.49q7,.13,14-.08c.56,0,1.66-1.24,1.55-1.53-.43-1.11-1.16-2.86-1.94-3a87.3,87.3,0,0,0-9.3-.13h-21c.36-4.56-2.78-4.69-6-4.71s-6.21,0-9.31,0c-6.21,0-12.43-.19-18.63.07-4.07.17-7.56-.37-10.15-3.88-.1-.13-2.59.84-2.91,1.69C336.79,681.92,337.17,683.62,337.17,685.17ZM782.44,334c6.28,0,12.56,0,18.84-.07.56,0,1.68-1.27,1.56-1.56-.44-1.11-1.09-2.72-2-3-3.58-1-7.85,1.61-10.93-2.07-4.85-5.78-6.46,3.24-11.11,2.31-6.79-1.37-14.21.56-21.08-.59-7.77-1.3-12.08,5.65-18.82,6.13-.31,0-.89,1.19-.74,1.57.29.67,1,1.6,1.59,1.62,4.67.22,9.35.25,14,.34,5.83-7.85,14.26-3.79,21.6-4.67A59.36,59.36,0,0,1,782.44,334ZM389.29,159.67c10.09,0,20.19,0,30.28-.07.56,0,1.66-1.18,1.56-1.5-.36-1.12-1-2.86-1.8-3a40.34,40.34,0,0,0-7-.14c-13.2,0-26.4-.09-39.6.06-3.25,0-6.18-.16-8-3.15-1.27-2.08-2-2-3.39,0s-4.27,3.15-4.61,5c-.42,2.34,2.28,2.84,4.58,2.82C370.66,159.63,380,159.67,389.29,159.67Zm321.28,367.5c6.36.16,12.68.94,16.54-5.81,1.62-2.84,4.36-4.11,7.86-3.74.55.06,1.48-1.83,1.9-2.94.11-.3-1-1.53-1.56-1.55-3.9-.14-7.83.21-11.7-.16-3-.29-3.94,2-5.69,3.34-3.79,2.88-4.6-4.16-6.44-2.58-2.71,2.32-7.08,4-6.72,8.76a5.8,5.8,0,0,0,1.68,3.88C707.48,527.16,709.27,527,710.57,527.17ZM495,908.85c10.05,0,20.83.15,31.6-.07,4.08-.09,7.55.42,10.14,3.91a9,9,0,0,0,3-1.77c.38-.38.25-1.54,0-2.24-.45-1.36-1.12-3.77-1.72-3.78-14.57-.17-29.14-.11-43.71,0a2.21,2.21,0,0,0-1.52,1.58C492.77,907,493.75,907.59,495,908.85ZM273.56,1021.93c-7.79,0-15.58-.07-23.37.14-.6,0-1.32,1.93-1.64,3.06-.09.33,1,1.45,1.6,1.45,14,.08,28,.1,42.06-.07.59,0,1.32-1.93,1.63-3.06.1-.33-1-1.44-1.59-1.45C286,1021.89,279.79,1021.93,273.56,1021.93ZM497,953.82c-.85-.8-1.77-2.43-2.72-2.45-10.75-.18-21.5-.19-32.25,0-.81,0-2,2.19-2.24,3.5a7.8,7.8,0,0,0,.76,4.22c.89,2,1.58,1,3.3,0,7.53-4.64,14.64-4.36,25,.11C490.07,959.75,496.77,955.46,497,953.82Zm9.67-789.44c3.85,0,7.72.16,11.56-.13.74-.06,1.49-1.83,1.92-2.94.11-.3-1-1.53-1.54-1.52-5.33.05-10.37.4-14.51-4.6-1.26-1.51-6-.77-8.93-.06-2.29.56-3,3.34-2.43,5.66.32,1.31,1.45,3.34,2.37,3.43A114.16,114.16,0,0,0,506.67,164.38ZM358.27,857c6.22,0,12.44.09,18.66-.14.67,0,1.43-1.87,1.8-3,.11-.32-1-1.51-1.56-1.51-10.88-.1-21.77-.12-32.65.06-.65,0-1.43,1.88-1.8,3-.11.32,1,1.49,1.56,1.51C348.94,857.08,353.61,857,358.27,857ZM829.67,329.3c4.65,0,9.31.05,14-.07.57,0,1.67-1.17,1.56-1.5-.35-1.12-1.1-3-1.75-3-7.74-.21-15.49-.17-23.24-.07-.56,0-1.67,1.18-1.56,1.5.35,1.12,1,2.93,1.76,3A86.92,86.92,0,0,0,829.67,329.3ZM579.87,164.39c3.2-5.83,8.71-4.77,13.91-4.78.56,0,1.63-1,1.56-1.4-.21-1.12-.93-3.1-1.35-3.07-3.2.19-5.5-.86-7.92-3.11-2.22-2.06,1.61-2.27-1.48-1.73-1.69.29-7.21,8.09-7,10.55C577.69,162.07,579.05,163.19,579.87,164.39Zm-143.79-4.72c3.86,0,7.74.15,11.58-.14.68-.05,1.38-1.89,1.72-3,.1-.33-1-1.48-1.56-1.49-6.18-.11-12.37-.16-18.55.07-.64,0-1.37,1.89-1.71,3-.1.34,1,1.44,1.56,1.49C431.43,159.78,433.76,159.67,436.08,159.67ZM603.24,348.14a9.13,9.13,0,0,0,2.28,0c1.35-.36,2.66-.91,4-1.38a12,12,0,0,0-1.39-3.19,21.63,21.63,0,0,0-4.91-4.7c-1.11-.67-3.68-.74-4.34,0a11,11,0,0,0-2.39,5.72c-.13,1.09,1.15,2.89,2.26,3.44S601.72,348.14,603.24,348.14Zm-218.88,4.72c-2.27,0-4.55-.1-6.82.06-.59,0-1.66.93-1.61,1.3a6.47,6.47,0,0,0,1.21,3.2c3,3.46,3,3.32,9.7.23,1.25-.58,3,.07,4.5-.16.6-.09,1.62-1.15,1.52-1.5-.32-1.11-.94-2.85-1.7-3A38.47,38.47,0,0,0,384.36,352.86ZM707.13,960.68a86,86,0,0,0-9.23.14c-.73.08-1.44,1.86-1.81,3-.11.33,1,1.51,1.53,1.53,4.62.13,9.25.2,13.86-.06.69,0,1.44-1.86,1.81-3,.11-.33-.93-1.43-1.55-1.52A30.76,30.76,0,0,0,707.13,960.68ZM417.27,854.52a30.12,30.12,0,0,0-.08-4.56c-.09-.6-.93-1.22-1.57-1.57-.39-.22-1.38-.16-1.53.11-2.12,3.63-1.9,8.53-6.08,11,1.22.73,2.4,2,3.67,2.1C416.36,862,417.21,860.74,417.27,854.52Zm318-134.14a85.8,85.8,0,0,0-9.22.14c-.69.08-1.35,1.91-1.67,3-.1.34,1,1.46,1.56,1.47,4.62.12,9.25.19,13.86-.07.64,0,1.34-1.91,1.66-3,.09-.34-1-1.38-1.57-1.47A32.33,32.33,0,0,0,735.31,720.38ZM570.4,960.68a86,86,0,0,0-9.23.14c-.69.08-1.35,1.91-1.66,3-.1.34,1,1.46,1.56,1.47,4.62.13,9.25.19,13.85-.07.65,0,1.35-1.9,1.66-3,.1-.34-1-1.38-1.57-1.47A32.19,32.19,0,0,0,570.4,960.68Zm172.12,4.71c2.31,0,4.63.11,6.92-.07.59-.05,1.65-1.2,1.54-1.53-.37-1.11-1.12-2.93-1.81-3-4.6-.27-9.24-.19-13.85-.07-.56,0-1.65,1.21-1.54,1.53.37,1.12,1,2.83,1.83,3A38.78,38.78,0,0,0,742.52,965.39ZM403.26,854.8c-.71-.71-1.2-1.66-1.78-1.7-2-.18-4.32-.59-6.13.09-2.73,1-1.64,3.91-1.49,6,.05.68,2.49,2,2.82,1.72C399,859.05,401.1,856.87,403.26,854.8Zm498.11-68.27c1.06-.36,3.1-1,5.09-1.79a1.79,1.79,0,0,0,0-1.52c-2.54-2.24-9.91-2.24-12.44,0-.27.23-.24,1.16,0,1.56C895.54,787.3,898.09,786.05,901.37,786.53ZM315.85,352.86c1.53,0,3.2.37,4.54-.14.88-.33,1.46-1.87,1.81-3,.11-.34-1-1.49-1.53-1.52a56.12,56.12,0,0,0-9.17.07c-.73.08-1.42,1.86-1.77,3-.11.34.92,1.43,1.53,1.52A30.5,30.5,0,0,0,315.85,352.86Zm565.41-28.27c1.54,0,3.21.37,4.55-.14.88-.33,1.45-1.87,1.81-3,.1-.34-1-1.49-1.53-1.52a57.4,57.4,0,0,0-9.18.06c-.72.08-1.41,1.87-1.77,3-.1.34.93,1.43,1.54,1.52A30.39,30.39,0,0,0,881.26,324.59ZM462.14,155c-1.53,0-3.2-.37-4.54.13-.88.33-1.45,1.88-1.81,3-.1.33,1,1.49,1.53,1.52a58.45,58.45,0,0,0,9.17-.07c.73-.08,1.42-1.86,1.78-3,.1-.33-.93-1.42-1.54-1.52A31.88,31.88,0,0,0,462.14,155Zm16.65,110.46c-1.66-1.48-3.26-3.05-5-4.41a17.59,17.59,0,0,0-3.17-1.55c-.51,2.06-1.76,4.28-1.33,6.12.59,2.57,4.85,3.33,7.54,1.77A12.64,12.64,0,0,0,478.79,265.42Zm82.3-105.75c-1.53,0-3.2-.37-4.54.13-.89.33-1.46,1.88-1.81,3-.11.34,1,1.49,1.53,1.52a56.14,56.14,0,0,0,9.17-.07c.73-.08,1.42-1.86,1.77-3,.11-.33-.92-1.42-1.53-1.51A30.52,30.52,0,0,0,561.09,159.67Zm106.28-5.29c-1.16-1.75-2-2.94-2.73-4.13-.79,1.19-2.32,2.46-2.2,3.55.22,2,1.41,3.92,2.2,5.87ZM338.31,357.57l3.57-2.36c-1.19-.78-2.47-2.31-3.56-2.19-2,.22-3.92,1.41-5.87,2.19Zm21.67-3.1c-1.38-2.37-6-2.46-7.79-.1a1.81,1.81,0,0,0-.11,1.57c1.31,2.4,6,2.47,7.75.11C360.1,355.69,359.94,355,360,354.47ZM832,626.13c1.25-.52,2.58-1,3.81-1.66.19-.1.15-1.16-.12-1.52-1.75-2.36-7-2.42-7.63.13S829.69,626.34,832,626.13ZM561.72,714.92l1.61-1.61c-.53-.54-1-1.34-1.62-1.55a8.86,8.86,0,0,0-4.2-.69c-1.3.26-2.41,1.46-3.6,2.24,1.19.79,2.3,2,3.6,2.24S560.31,715.17,561.72,714.92Zm34.72,5.45c1.25-.52,2.58-1,3.81-1.66.19-.1.15-1.16-.12-1.53-1.75-2.36-7-2.41-7.63.14S594.1,720.58,596.44,720.37Zm151.79,70.69,3.58-2.36c-1.2-.79-2.47-2.31-3.56-2.2-2,.22-3.92,1.41-5.87,2.2ZM368.54,805.94c-.54,0-1.22-.13-1.59.14-2.36,1.76-2.29,6.44.11,7.75a1.77,1.77,0,0,0,1.57-.11C371,812,370.9,807.32,368.54,805.94ZM524,861l1.61-1.61c-.54-.54-1-1.35-1.63-1.56a9.07,9.07,0,0,0-4.2-.69c-1.3.27-2.4,1.46-3.6,2.25,1.2.78,2.3,2,3.6,2.24S522.62,861.24,524,861Zm63,104.39c1.25-.52,2.57-1,3.8-1.66.2-.1.16-1.16-.11-1.52-1.76-2.36-7-2.42-7.63.13S584.68,965.59,587,965.38Zm-118.6,48.81-1.68-1.68a14.77,14.77,0,0,0-1.47,3.16c-.09.39,1,1,1.47,1.55C467.31,1016.2,467.87,1015.17,468.42,1014.19Zm-66-14.14-1.68-1.67a14.81,14.81,0,0,0-1.47,3.16c-.08.39.95,1,1.47,1.55C401.34,1002.06,401.91,1001,402.45,1000.05Zm413-39.37c-.52.52-1.55,1.16-1.47,1.55a14.81,14.81,0,0,0,1.47,3.16c.53-.52,1.56-1.16,1.48-1.55A14.6,14.6,0,0,0,815.41,960.68ZM269.52,895.39l-3,1.68c.52.52,1.16,1.56,1.55,1.47a14.55,14.55,0,0,0,3.16-1.47Zm647.88-21.2,1.67,1.68a14.82,14.82,0,0,0,1.48-3.16c.08-.39-.95-1-1.48-1.55C918.51,872.18,917.94,873.2,917.4,874.19ZM438.47,852.31c-.52.52-1.56,1.16-1.47,1.55a14.55,14.55,0,0,0,1.47,3.16c.52-.52,1.56-1.16,1.47-1.55A14.55,14.55,0,0,0,438.47,852.31ZM840.65,788,839,786.34a15.11,15.11,0,0,0-1.47,3.17c-.09.38,1,1,1.47,1.55Zm-80.1,0-1.68-1.68a15.11,15.11,0,0,0-1.47,3.17c-.09.38,1,1,1.47,1.55Zm107.38-5.71-3,1.68c.52.52,1.16,1.56,1.55,1.47A15,15,0,0,0,869.6,784ZM469.1,732.16c-.53-.53-1.16-1.56-1.55-1.48a14.67,14.67,0,0,0-3.17,1.48c.53.52,1.17,1.56,1.55,1.47A15.11,15.11,0,0,0,469.1,732.16Zm285.74-11.1-3,1.67c.52.53,1.16,1.56,1.54,1.48a14.67,14.67,0,0,0,3.17-1.48Zm-409.93-4.71-3,1.67c.52.53,1.16,1.56,1.55,1.48a14.82,14.82,0,0,0,3.16-1.48Zm163.56-4.72-1.68,1.68a14.55,14.55,0,0,0,3.16,1.47c.39.09,1-.95,1.55-1.47ZM344.91,697.5l-3,1.67c.52.53,1.16,1.56,1.55,1.48a14.82,14.82,0,0,0,3.16-1.48Zm112.41-5.39c-.53.52-1.56,1.16-1.48,1.55a14.82,14.82,0,0,0,1.48,3.16c.52-.52,1.56-1.16,1.47-1.55A14.81,14.81,0,0,0,457.32,692.11Zm263.86-61.26c-.53.53-1.56,1.16-1.47,1.55a14.17,14.17,0,0,0,1.47,3.17c.52-.53,1.56-1.17,1.47-1.55A14.62,14.62,0,0,0,721.18,630.85Zm70.68-14.13c-.53.52-1.56,1.16-1.48,1.55a14.6,14.6,0,0,0,1.48,3.16c.52-.52,1.56-1.16,1.47-1.55A14.81,14.81,0,0,0,791.86,616.72Zm-89.53,0c-.52.52-1.56,1.16-1.47,1.55a14.55,14.55,0,0,0,1.47,3.16c.52-.52,1.56-1.16,1.47-1.55A13.9,13.9,0,0,0,702.33,616.72ZM389.68,497.25l1.67,1.67a14.34,14.34,0,0,0,1.47-3.16c.09-.39-.95-1-1.47-1.55ZM458,361.6l1.67-1.68a14.81,14.81,0,0,0-3.16-1.47c-.39-.09-1,.95-1.55,1.47Zm-96.6-19.84,1.68,1.67a14.34,14.34,0,0,0,1.47-3.16c.09-.39-.95-1-1.47-1.55Zm503.49-14.82c-.52-.52-1.16-1.56-1.55-1.47a14.81,14.81,0,0,0-3.16,1.47c.52.52,1.16,1.56,1.55,1.47A14.3,14.3,0,0,0,864.89,326.94ZM744.74,225.64c-.53.52-1.56,1.16-1.48,1.55a14.82,14.82,0,0,0,1.48,3.16c.52-.52,1.56-1.16,1.47-1.55A14.81,14.81,0,0,0,744.74,225.64Zm-120.83,1.67-1.68-1.67a14.34,14.34,0,0,0-1.47,3.16c-.09.39,1,1,1.47,1.55C622.8,229.33,623.36,228.3,623.91,227.31ZM609.77,158c-.54-1-1.11-2-1.68-3-.52.52-1.55,1.16-1.47,1.55a14.6,14.6,0,0,0,1.48,3.16Zm-70.68-1.36L537.42,155a14.6,14.6,0,0,0-1.48,3.16c-.08.39.95,1,1.48,1.55Zm-64.6,0,1.67,3c.53-.52,1.56-1.16,1.48-1.55a14.6,14.6,0,0,0-1.48-3.16Zm171.3-15.82c-.52.53-1.56,1.17-1.47,1.55a14.62,14.62,0,0,0,1.47,3.17c.52-.53,1.56-1.16,1.47-1.55A14.62,14.62,0,0,0,645.79,140.82Zm-110,1.68,1.68,3c.52-.53,1.56-1.16,1.47-1.55a15.11,15.11,0,0,0-1.47-3.17Z"/></svg>