<svg id="Layer_1" data-name="Layer 1" xmlns="http://www.w3.org/2000/svg" viewBox="0 0 1200 1200"><title>BB_Artboard 91</title><path d="M462.85,157.15c0-10.36-.24-16.17.07-22,.27-5.19-.27-9.79-4.95-13a2.15,2.15,0,0,1,0-2c7.64-4.82,4.34-12.45,4.83-19,.37-5-.73-10.16.31-14.93,1-4.37,7.43-6.63,5.76-12.55,5.37-3.4,4.65-10.37,8.27-14.5,5.88-6.73,12.09-13.47,19.32-18.55a34,34,0,0,1,10-4.45c8.19-2,15.8-6.07,23.82-7.54,8.52-1.57,17.65.2,26.51.52,4.71,7.61,12.33,4.34,18.89,5.08A13.71,13.71,0,0,1,581,35.62c5.64,3.35,10.71,8.6,16.75,10.08,6.46,1.59,13.77-.28,18.35,6.53,6.89-2.45,9.38,5.5,15.43,6.45S642.84,65,648.88,67.2c15.56,5.7,23.65,20,35.76,29.62,5.14,4.07,5.06,10.1,8.35,14.65,1.13,1.56,3.37,2.89,3.52,4.49.59,5.88-1.07,12.54,1.19,17.52,1.92,4.26,5.7,7.47,5.06,13-.46,3.94.5,8.09-.22,11.95-1.12,6,5.42,7.77,6.1,12.54.55,3.8-.2,8.26,1.57,11.29,1.94,3.32,4.35,5.79,4.75,10.17.35,3.76,6.5,5.73,9.26,2.82,6.1-6.39,16.77-5.93,21-14.66,8.16-1.88,13.8-9.62,23.52-8.66,10.88,1.08,22,.24,33,.25q6,0,12,.07c4.32,10.38,15.78,3.82,23.1,10s18,9.1,27,13.85c5.71,3,13.53,3.82,17.32,8.26,7.83,9.16,20.77,10.79,27.65,20.82,2.22,3.24,5.56,5.71,8.38,8.54l19.08,19.07c-.79,9.66,7.52,13.33,12.86,18.57,6.3,6.17,8.19,14.74,14.17,21.44,9.09,10.2,11.79,25,19.6,36.6.53.78,1.59,1.53,1.6,2.3.12,8,.55,16-.06,24-.63,8.11,8.78,12.07,6.76,21.64-1.62,7.68-4.25,17.75,4.12,25.09.55.49-4.25,5.64-4.52,8.8-.7,7.93-.23,16-.23,24,0,5,.06,10-.07,15a3.16,3.16,0,0,1-1.48,2.31c-9.13,4.29.06,16.06-8.45,20.53-1.73,7.28-6.93,12.95-8.92,20.35-1.11,4.18-6.63,7.18-10.16,10.72-7.77,7.77-16.1,15.07-23.16,23.44S921,538.85,912,543.94c-3.29,1.85-6.06,4.59-9.26,6.63-2.59,1.66-2.89,3.13-.18,4.22s6.06.69,8,2.33c8,6.85,19.64,7.66,26.66,15s17.74,7.72,23.54,16.49c2.21,3.35,7.74,4.51,11.76,6.67-4.5,11.74,13.38,5.1,12.39,15.54-.73,7.85,13,9.24,11.59,19,6.19,5,4.74,14.72,12,19-.8,8.86,8.82,14.49,6.43,24.59-2,8.51.37,18-.69,26.85-.76,6.28-7.16,10.81-6,18.57s.26,16,.26,23.94c0,7-.6,14,.17,21,.82,7.4-3.12,12.56-5.79,18.68-2.19,5-.64,11.61-1.64,17.35-.44,2.52-4.86,5.07-4.45,6.92,3.2,14.11-5.33,22.43-14.54,30-5.78,4.77-8.61,14.11-18.54,13-5,4.91-10.14,9.62-14.82,14.78-4,4.44-11.59,2.4-14.54,8.42-11.85-1.61-21,10-33.17,6.82-3.37-.87-6.15,1.09-6.36,4.12-.17,2.51,2,7.49,2.65,7.4,6-.78,8.92,3.26,12.44,6.69,2.7,2.63,4.8,6.76,9.58,5.69,7-1.56,10.88,2.69,15.13,7,13.3,13.54,26.57,27.14,40.35,40.18,5.42,5.14,8.85,13.76,18.59,12.85,5.65,5.65,11.11,11.51,17,16.87,3.31,3,4.12,6.21,4,10.42-.27,9,.09,18-.14,27-.15,5.76-7.79,8.47-6.15,15.55,1.1,4.74.74,10,0,14.9-.39,2.52-4.46,4.74-4.38,7,.28,8.16-9.9,12.17-7.65,21.09.53,2.1-1.48,5.53-3.3,7.41-10.4,10.79-21.09,21.3-31.71,31.87-1.37,1.36-3.08,3.68-4.42,3.55-9.74-1-11.56,9.78-19,12.3-8,2.73-15.36,7.75-24.55,5.92-6.28-1.25-8.38,7.57-15.54,6.22-6.75-1.27-13.94-.27-20.93-.27-6,0-12,.4-18-.11-5.73-.5-12.49,2.91-17-2-4.12-4.49-8.74-4.33-13.49-3.74-6.5.8-10.64-4-15.71-5.44s-7.91-6.3-12.32-6.41c-7.3-.18-9.36-6.58-14.14-9.57a16.38,16.38,0,0,0-7.86-2.54c-4.08-.11-7.51-.45-10.51-3.84-4.63-5.23-10-9.81-14.7-15-3.81-4.15-9.37-6.88-9-14.44.17-3-13.91-4.35-15.72-1.48a15.31,15.31,0,0,0-1.69,5.27c-1.07,5.6,2.12,11.72-2.57,16.95-7,7.75-6.88,19.39-14.81,26.86-10.18,9.58-20.26,19.35-29.56,29.76-4.23,4.72-11,2.73-15,8-1.6,2.12-7.24,1.28-11.06,1.64s-7.87-1-10.89,2.81a8.36,8.36,0,0,1-4,2c-4-6.4-10.36-4.66-16.12-4.78-5-.1-10.15.76-14.94-.24-4.39-.93-8.2-4.55-12.6-5.56-4.58-1.06-9.76.93-13.38-4.09-2.9-4-9.56-.92-12.55-6.26-1-1.69-5.74-.81-7.73-2.41-6.86-5.5-12.39-13.56-20.05-16.88-7.93-3.43-11.73-10.15-17.76-14.89-4.68-3.67-8.57-8.36-12.81-12.6,2.62-7-5.92-9.32-6.38-15.46-.25-3.22-3.91-6.35-6.39-9.2a6.91,6.91,0,0,0-10.16-.42c-3.6,3.47-7.05,7.08-10.63,10.57-2.74,2.67-6.48,4-9.45,5.88-13.39,8.58-27.18,13.1-43.27,11.78-11.91-1-24,.26-35.95-.35-8.39-.43-18.21,4-24.56-5.69-8.39,2.31-14.78-2.64-21.4-6.2-14.94-8-31.55-13.33-42.62-27.61-4.19-5.39-9.3-12.21-15.13-13.6-6.57-1.58-13-2.24-18.33-6.7-9.51,2.82-14.52-3.81-20.08-9.46-7.7-7.84-14.86-16.41-23.48-23.09-8.9-6.92-12.13-17.13-17.56-26-1.83-3-2.9-6.73-5.51-9.64s-7.14-6.84-6.47-9c2.83-9.12-7.38-13.43-6.6-21.65.75-7.92.1-16,.18-24,.09-9.68,6.5-15.54,17-15,2.37.12,6.31,2.07,6.61,3.72.89,4.83,0,10,.4,14.92.56,6.54-3,14.22,4.74,19,4.11,13,10.44,24.49,21.24,33.14a2.23,2.23,0,0,0,2-.21c.76-.53,1.88-1.53,1.78-2.16-.73-4.68,2.47-10.24-2.36-13.94s-2.58-9-3.73-13.52-5-8.26-5.49-12.58c-.51-5.2-1.55-9.18-5.34-13-1.57-1.59-.59-5.59-1-8.46-1.32-9.33,3.94-20-5.57-27.66-.13-9.94.09-19.9-.66-29.79-.18-2.32-3.71-4.37-5.7-6.55,9.35-6.36,5.44-16,5.86-24.48.45-9,.09-18,.12-27,0-1-.1-2.56.35-2.77,9.21-4.28,2.62-15,8.4-20.6,1.32-1.3,3-3,3.09-4.65.61-8.61-2-17.7,7.43-24.07,7-4.77,11-13.84,20.92-14.84,1.54-.15,2.83-2.67,4.27-4.06,2-2,4.19-3.66.66-6.41-4.67-3.64-2.85-11-8.4-14.6-3.92-2.57-8.16-6-6.76-12.06-6.6-3.62-5.58-11.72-10-17-3.34-4-6.79-10-7.35-14.61-.86-7.05-4-12.41-6.31-18.55-2.6-6.85-10-12.63-6.34-21.37-6.47-4.77-4.79-14.69-12-19,.84-4.38-1-7.52-4.34-10.21-10.11-8.06-10.83-18.34-4.38-28.36,3.13-4.86,2.13-9.26,2.73-13.93-8-6.7-5.85-15.9-6-24.49-.12-9-.3-18,.14-27,.12-2.54,2.32-5,3.51-7.48,2.79-5.84,6.45-11.46,8.05-17.61,1.45-5.61,6.71-8.54,7.44-15.13.64-5.82,11.53-7.7,10.81-16.31,8.4-9.19,15.39-19.78,28.34-24,3.29-1.08,5.86-4.14,10.21-4.46,3.49-.26,4.53-6.31,9.53-5.78,5.9.63,5.9-3.75,5.86-7.79,0-4.73,1.26-10.43-6.6-10.15-.93,0-2.55,0-2.71-.45-6.93-18.43-24.35-27.79-36-42.09-1.64-2-1.89-5.18-2.59-7.87s-.31-7.08-1.92-8c-5.39-3-2.17-9.69-6.27-12.6-5-3.58-3.2-8.73-4-13.41-.45-2.55-2.56-5.05-4.47-7.06-4.08-4.27-8.89-7.85-7.4-15,1.26-6-3.88-8.92-7.5-11.72-5.73-4.45-3.87-12.79-10.12-17.19-1.89-1.33,0-7.62-.38-11.57-.46-4.39,1.27-7.27,4.18-10.4,1.64-1.77,1.2-5.38,1.93-8.1,2-7.6-13.82-14.38-1-22.42.33-7.86.28-15.76,1.08-23.57.86-8.4-3.6-18.05,5.28-24.76-1-8.06,3.59-14.33,6.26-21.37,2.28-6,6.62-10.74,7.1-18.32.52-8.33,8.95-14.19,17.17-17.88,1.68-.75,4.94-1.48,4.91-2.06C233,84.52,250,89.34,253.08,79.5c.52-1.69,5.14-3.58,7.33-3.07,13.29,3.1,19.63-6.61,27.33-14,6.18-5.91,13.59-6.09,20.4.07,4.31,3.9,8.48,7,14.34,9,4.19,1.45,7.65,5.53,13,4.71,1-.15,2.22-.4,3,0,6.44,3.79,12.39,8.93,19.3,11.27,6.14,2.08,13.93-.71,18.25,6.66,4.36-.84,7.3,1.11,10.32,4.18,3.26,3.31,9.28,1.43,12.43,6.35,2,3.09,5.55,6.59,8.82,7.07,4.5.66,7.14,2.91,9.67,5.8,6.43,7.36,17,8.55,23.2,16.76C445.77,141.48,452.93,147.24,462.85,157.15ZM754,412c.89,0,2.13.35,2.58-.1a2.63,2.63,0,0,0,0-2.53c-1.39-2-3.1-4.44-5.21-.83-.28.48,1.68,2.27,5.27,3.46-.15,4.15,1.85,6.15,11.51,9.48a21.23,21.23,0,0,0-2.9-3.41,2.52,2.52,0,0,0-2.51,0,2.55,2.55,0,0,0,0,2.51,12.16,12.16,0,0,0,3.54,2.73c.22.12,1.2-1.16-3.61-5.34C762.78,413.81,760.78,411.82,754,412ZM304.28,561.86c.9,0,2.13.35,2.58-.1a2.61,2.61,0,0,0,0-2.53c-1.39-2-3.1-4.43-5.21-.83-.28.48,1.68,2.28,10.78,7a21.78,21.78,0,0,0-2.89-3.42,1.8,1.8,0,0,0-2.54,2.54,12,12,0,0,0,3.54,2.72C310.79,567.32,311.77,566,304.28,561.86Zm386.4,185.87c.15-4.15-1.84-6.15-17.17-14.18l4.12,4.12a9.62,9.62,0,0,0,2.08,2c1.59.83,3.31,1.38,5,2.05,0-2.91,1.22-6.85-.22-8.56-5.59-6.65-12-12.65-18.21-18.73-.9-.87-2.68-.82-4.06-1.19-.35,2.65-2,6.24-.82,7.76,3.47,4.61,8,8.42,23.31,20.72-.16,4.15,1.84,6.15,12,12.92,0-.93.33-2-.07-2.75-.85-1.5-1.91-3.8-3.16-4-5.55-.88-2.56,3.72-2.51,5.4.07,2,2.08,3.94,3.25,5.9C695,757.69,695.85,756.17,690.68,747.73ZM915.84,370c.9,0,2.13.35,2.58-.1a2.61,2.61,0,0,0,0-2.53c-1.39-2-3.1-4.44-5.21-.83-.28.48,1.68,2.27,17.27,17.59,1.14-7.36-5.64-9.67-9.1-14.07a2.82,2.82,0,0,0-2.78.05c-.5.49.09,1.92-.14,2.86-1.87,7.56,5,10,8.41,14.41C928.11,386.29,929.31,385.21,915.84,370ZM558.78,903.61c.15-4.15-1.85-6.14-17.18-14.17q2.07,2.05,4.12,4.12a10.16,10.16,0,0,0,2.09,2c1.58.82,3.3,1.38,5,2,0-2.92,1.22-6.86-.21-8.56-5.6-6.65-12-12.65-18.22-18.73-.89-.87-2.68-.82-4.05-1.19-.36,2.64-2,6.24-.82,7.76,3.47,4.61,8,8.42,23.3,20.72-.15,4.15,1.85,6.15,25.09,20.73-1.55-3.43-2.23-6.29-3.9-8.36-3-3.79-6.18-7.39-12.24-6.61-2.81.36-3.87.21-3,3.22.79,2.67.67,6,2.27,7.94a22.86,22.86,0,0,0,9,6.77C571.8,922,574.73,919.64,558.78,903.61Zm345.07,95.93c.89,0,2.13.35,2.58-.09a2.64,2.64,0,0,0,0-2.53c-1.39-2-3.1-4.44-5.21-.83-.28.48,1.68,2.27,48.53,61.68-3-10.6-9.45-22.12-15.76-32.86-5.79-9.86-16.15-17-24.6-25.3-.51-.49-2.76-.14-2.77-.06a23.71,23.71,0,0,0,0,5.89c.31,1.76.77,4.23,2,5,8,4.76,8.38,14.79,14.53,20.65,7,6.68,9.81,15.51,13.48,24,1.09,2.51,3.3,4.59,5.2,6.69A33.48,33.48,0,0,0,946,1065C946.8,1063.43,947.65,1061.81,903.85,999.54ZM588.27,763.21a21.31,21.31,0,0,0-2.9-3.42,1.8,1.8,0,0,0-2.54,2.54,12.13,12.13,0,0,0,3.54,2.72c.22.12,1.2-1.15-14.87-13.6l4.07,4.07a10.09,10.09,0,0,0,2.13,2.06c1.61.85,3.36,1.44,5.06,2.14,0-3,1.25-7.51-.2-8.68-10-8-12.67-21.52-22.76-29.51A124.2,124.2,0,0,1,543,704.7c-2.27-2.64-2.16-7.43-4.55-9.83s-6.54-3-10-4.37c-1.35-.53-2.8-.83-4.2-1.23-.5,1.77-2,4.15-1.35,5.24,8.17,13.57,12.68,29.21,25.4,40.25C556.32,741.68,563.75,749,588.27,763.21Zm6-599.57a21.78,21.78,0,0,0-2.89-3.42,1.8,1.8,0,0,0-2.54,2.54,11.92,11.92,0,0,0,3.53,2.72c.23.13,1.21-1.15-3.6-14.29-.22-.83,0-6.29-2.29-7.79-8.81-5.7-8.08-17.92-16.74-23.11-5.72-3.43-3.87-10.5-8.25-14.66-4-3.83-8.65-6.86-9.36-14.18-.46-4.67-7.53-8.55-11.2-13.13-1-1.25,0-4-.78-5.6-1.47-3.12-9.51-3.6-9.86-.72-.91,7.54-6.22,11.6-10.66,16.63-1.69,1.91-2.49,5.07-2.7,7.74-.54,6.68,1.13,13.48-5.55,18.9-2,1.61-2.15,9.5-.25,11.12,6.22,5.3,4.57,15.08,12,19.18.84.45,2,2,2.05,2,1.29-1,3.36-2.17,3.43-3.4a148.81,148.81,0,0,0,.08-17.92c-.42-6.62,2.6-8.86,8.73-8,4.32-6.48,7.65-3.27,13.27-.65,4.91,2.3,7,3.13,8.61,8.83,1.42,5,8,8.44,11.56,13.1,4,5.17,6.91,11.11,10.75,16.39,1.59,2.18,3.45,5.55,7,4.05C589.36,159.61,588.76,156.16,594.26,163.64ZM354.92,915.91c0-2.84.41-5.77-.16-8.49-.3-1.45-2.3-3.61-3.5-3.59a14.46,14.46,0,0,0-7.47,2.25c-1,.65-1.34,3.73-.7,5.11a19.82,19.82,0,0,0,5,6.41c2,1.7,4.53,2.7,6.83,4,0-1.89,0-3.79,94.68,154.14-5-12.38-10.32-23.5-21.4-27.7-5.95-2.27-7.69-4-7.4-9.7.31-5.94,2.31-13.68-.57-17.44-3.65-4.76-4.94-10.13-7.7-15-4.11-7.17-6.55-15.66-11.16-22.09-5-6.91-9.87-13.79-14.53-21-2.62-4-.9-9.38-6-12.66-8.4-5.43-9.73-15.68-14-23.93-.85-1.65-1.66-3.82-3.1-4.53-1.6-.79-4,.17-5.86-.26-3.06-.7-2.72.32-3.23,3-2,10.61,4.22,18.46,8.94,26.24,3.94,6.48,10.53,10.46,9.9,20.16-.36,5.45,5.66,11.28,8.72,17,2.18,4.07,4,8.36,6.4,12.27,2.95,4.73,2.46,11.42,8.23,14.52-4.48,9.72,7.51,15.45,6,24.39-1.83,10.58,11.18,12,12.67,21.82,1.35,9,3.66,8.49-2.34,15.37a33.2,33.2,0,0,0-4.24,7.18c-.4.79-.47,2.45,0,2.85,1.14.93,3.58,2.21,4,1.82,2.85-2.86,5.55-5.11,10.11-4.77,5.94.43,12.22,1.19,17.81-.27C444.67,1082.11,447.56,1077.57,354.92,915.91ZM684.17,445.46c-.31-.66-.51-1.78-1-1.9-2.53-.67-5.17-1-7.7-1.65-2.84-.77-3.81.06-2.76,2.81a4.1,4.1,0,0,0,1.8,2c4.11,2,9,1.33-169.72-32.37,0,8-.19,16,.18,23.93.06,1.28,2.82,3.7,3.87,3.47,15.09-3.29,24.79,5.36,32.19,16,5.05,7.25,13.69,6.84,19,12.44,6.2,6.5,12.44,13,19.21,18.87,1.4,1.22,5.21-.33,7.92-.61-.4-1.41-.35-3.25-1.25-4.16-11.89-12.1-23.83-24.15-36-36-2.65-2.58-4.63-5.58-9.24-6.64-14-3.22-16.82-17.31-23.7-27.21-3.41-4.91,3.23-19.82,8.44-19.85,7.39-.05,15.16-3.59,22.44,3,5.21,4.76,9.22,3.53,10.5-2.53,1.41-6.68,5.58-11.74,10.46-12.57,6.16-1,14-3.75,19.64,2.33,4.68,5,10.23,8,16.38,11,6.77,3.37,10.82,13.41,17.54,15.32,7.69,2.19,11.49,7.23,16.07,11.84,7.53,7.58,19.33,9.19,25.37,18.78.57.9,3.81.12,5.8.12,1,0,2.39.39,2.88-.11s.47-2.57.06-2.78c-5.95-3.09-4.9-10.14-8.4-14.57-9.47.54-13.34-7.44-18.55-12.83-6.13-6.34-16.51-6.05-21-14.64-3.88-7.41-12-9.17-18.67-12.64-13.13-6.83-26.71-12.71-39.55-20.21-10.91-6.37-18.2-7.24-30.33-6a14.43,14.43,0,0,0-7.54,3.28c-4.52,3.9-9.07,8-12.68,12.68-6.34,8.27-12.3,16.89-11.16,28.3C505.15,406.34,504.82,410.36,684.17,445.46Zm-92.11,464.1a5.31,5.31,0,0,0,2.58,0c.12-2.78.46-5.64,0-8.34-.23-1.21-2.13-2.17-3.42-3a4.17,4.17,0,0,0-1.84,1.89c-1.15,3.67-1.08,7.16,101.35,144.55,0-5-.32-10,.08-15,.52-6.33-1.15-11-6.12-15.56-8.47-7.77-17.82-15.15-21.32-27-2.24-7.57-6.67-13.59-12.63-18.75-4.51-3.91-11-7.79-12.23-12.76C635.86,945,627.3,940,620.93,933c-7.37-8.11-15.23-15.81-23.32-23.21-2.12-1.94-2.21.69-3.21,2.67-1.91,3.79-7,5.08-1.45,11.11,4.68,5.12,4.71,14.35,9.17,19.82,5.47,6.7,5.84,16.69,14.39,21.22,1.26.66,2.38,3.42,2.08,4.92-1.9,9.66,6.28,15.44,8.69,23.43,2.54,8.39,8,15.14,14.65,20.87,2.26,2,6.27,4.47,6,6.28-1.48,11.57,15.13,13.23,13,24.72,6.62,8.13,17.42,13,19.19,25,.31,2.11,2.58,1.62,4.1-.84,2-3.21,6.75-4.33,6.47-9.32S690.68,1049.66,592.06,909.56Zm-257.8-347.7c.89,0,2.13.35,2.58-.1a2.63,2.63,0,0,0,0-2.53c-1.39-2-3.1-4.43-5.21-.83-.28.48,1.68,2.28,113.2,150.36-3.91-3.91-6.94-6.56-9.51-9.61-3.63-4.3-2.52-11.44-8.48-14.45,2.62-10.94-10.71-12.44-12.7-21.86-1.58-7.49-5.13-16.63-12.86-21.4-5.73-3.54-3-11-8.27-14.77-4.81-3.45-11.11-7.7-12.32-12.68-2.62-10.72-13.21-14.63-17-23-4.65-10.21-12.08-17.34-19.55-24.83-2-2-4.76-6.36-6.74-3.91-1.48,1.83-2.15,7.4,1.55,10.86,1.92,1.79,3.94,4.89,3.77,7.25-.65,9.38,4.9,16.69,9.52,23,6.26,8.53,12.22,16.67,14.68,27,10.21,3.9,3.53,14.3,8,20.73,4.16,6,6.63,13.2,10.06,19.75,1.73,3.31,4.56,6.14,5.82,9.57,2.89,7.84-4.43,19-12.74,19.24-7.71.26-14.76.54-21.45-6.53-8.1-8.54-15-17.68-19.16-28.21-2-5-5.1-8-8.07-11.64a2.34,2.34,0,0,0-2-.73c-.86.4-2.08,1.34-2.07,2,.14,8.53-1.27,16.38,5.06,24.87,5.85,7.85-3.76,20.15-13.84,20.28s-21.07,2.74-29.66-.73-14.54-13.12-21.66-20.06c-.71-.7-1.59-2.12-2.08-2a9.32,9.32,0,0,0-4,2.19c-.5.49-.11,1.92-.08,2.91.17,5.86,6.47,7.19,8.57,11.45,3.39,6.88,7.92,12.79,12.39,19,6.25,8.64,17.6,1.37,23.32,10.09,2.11,3.23,7,1.3,10-2,.86-.93,3.6-1.67,4-1.21,2.8,3.17,5.82,5.1,10.27,4.41,8.42-1.3,14.45,1.73,21,7.77,6.05,5.61,14.35,8.88,20.68,15,3.76,3.63,9.66,5.59,14.94,6.91,3.44.86,9.34.63,11-1.52,7.34-9.66,20.29-11.19,27.71-20.8C428.89,723.31,436.76,716.86,334.26,561.86ZM735.2,663.34c-1.22,3.15-2.43,4.86-2.46,6.58-.18,10,.17,19.92-.22,29.86-.15,3.82,3.55,4.75,4.19,7.25,2,7.89,8.64,12.5,12.4,18.85,4.14,7,7.47,14.75,11,22.26,2.73,5.84,5.72,11.56,8.54,17.36,3.28,6.75,8.45,13,6.15,21.34,6,3.63,6.23,9.37,6,15.5-.06,1.6,1.27,3.55,2.48,4.85,4.08,4.36,8.31,8.59,12.64,12.7s8.21,8.63,13.14,11.59c7.08,4.27,15.27,6.09,22.34,11.19,4.77,3.44,13.77-.86,18,6.74,4.94.08,9.91.48,14.82.16,6.23-.4,11.81.2,15.44,6.08,4.64-1,10.14,2.47,14-2.16,2.87-3.45,6.27-3.82,10.4-4,9.2-.29,33.55-10.81,40.68-17,4.76-4.15,5.65-13.89,1.36-18.26q-14.62-14.94-29.66-29.46c-.28-.27-3.27,1.21-3.65,2.33a8.15,8.15,0,0,0,.2,5.74c1.2,2.37,5,4.72,4.64,6.3-.62,2.48-3.67,4.52-6,6.36a9.29,9.29,0,0,1-5,2.06c-7,.23-14.25-1.19-20.82.42-8.3,2-10.5-9.73-18.39-6.59l-10.55-10.56c-8.45-8.45-17.28-16.55-25.22-25.44-7.09-7.93-16.74-13.44-21.07-24.07C805.85,730.07,794.8,724,787,715.26c-5.3-5.93-12-10.75-16.56-17.14-3.16-4.42-3.37-10.88-8.7-14.24-4.71-3-10.9-2.83-14.6-8.3C744.12,671.1,739.54,667.67,735.2,663.34ZM491.09,707c-.71-.13-1.75-.63-2.07-.34-7.83,7.05-14.31,15.17-24.88,19.53C457.33,729,452.63,737,447,742.6s-12.13,10.69-16.71,17.1c-4.93,6.91-14.64,5.09-19.08,12.44-2.24,3.68-3.31,7.52-.54,10.32,7,7.08,13.91,14.33,21.22,21.12,7.86,7.28,9.25,19.29,19,25.13,8.79,5.26,10.49,15.83,16.89,22.95,4.2,4.66,8.34,5.66,12.34,1.62,10.66-10.76,22.92-17.13,38.48-15.63,1,.09,2,0,3,0,11.72-.19,10.76-11.82,16.09-17.78,6-6.68-2.44-7.52-4.51-10.45-2.3-3.26-5.11-5.78-4.37-10.25.68-4.12-.58-7.34-3.71-10.5s-7-5.93-8.66-11.35c-2.4-7.82-7.59-14.78-11.58-22.11,4-8.83-6.65-13.74-5.88-21.46.89-9-10.55-14.72-6.21-24.52C492.91,708.83,491.66,707.77,491.09,707ZM268.26,280.33c4.08-7.28,6-14.56-1.33-18.86-7.8-4.56-7.37-13.23-12-19.31-3-3.87-1.51-11.2-1.87-17-.41-6.7-.1-6.52,10.8-13,9.2-5.42,9.13-5.47,14.48.17,3.43,3.61,9.74,6.87,10,10.62.57,8.4,6.78,11.6,11.19,16.44a212.87,212.87,0,0,0,17.11,16.47c1,.92,4.76.65,5.49-.36,1.57-2.12,3.32-6.95,2.65-7.44C315,241,313,228.44,304.48,220.38c-15.92-15-31.15-30.85-46.61-46.39-4.87-4.9-7-18.33-3.26-24.17,2-3.12,5.44-6.73,8.72-7.31,5.64-1,12.23-1.14,17.32,1,3.65,1.52,8.56,5,8.45,11.13,0,1.64,1.51,4.75,2.3,4.74,9.38-.07,13.06,7.87,18.61,13,6.6,6.06,13.76,11.92,18.75,19.19,3.66,5.34,4.54,14.49,11,15.73,6.73,1.3,10.21,5.13,14.29,9.07,7.17,6.92,14,14.17,21.28,21,1.12,1,3.69.73,5.59.71a4,4,0,0,0,2.36-1.38c.53-.52,1.19-1.82,1-2-4.85-5-10.45-9.45-14.54-15-3.78-5.12-6-11.4-8.82-17.22-.8-1.65-.78-4-2-5.08-6-5.12-9-12-13-18.53s-11.68-10.75-9.22-20.3c.3-1.18-1.79-3.21-3.09-4.55-4.85-5-10.21-9.58-14.65-14.92-4.24-5.09-10.39-8.05-12.6-15.73-1.71-5.92-8.21-10.58-12.91-15.49-6.93-7.23-7.11-7.23-18.23-1.56a129.76,129.76,0,0,0-16.88,9.7c-11.33,8.13-14,22.05-21.32,32.92-3.82,5.71-1.48,11.45-1.93,17.13-.55,6.93-.13,13.94-.13,20.92,0,8,1.63,16.39-.4,23.8-2.78,10.14,7.74,15.63,6.35,24.52-1.26,8.15,9.5,12.68,6.22,21.51-.44,1.17,1.18,3.54,2.4,4.81C255.62,267.82,261.84,273.92,268.26,280.33Zm63.17,99.15c-14.42,2.73-14.54,2.86-19.51-1.6-4.29-3.85-8.06-7.39-14.34-9.07-4.34-1.16-10.51-6.26-8.64-13.83-7.86-8.44-16.56-15.82-21.66-27-3.11-6.81-10.58-11.82-16.66-16.95-1.49-1.27-6.15-.86-7.67.57s-1.25,5.12-1.4,7.84c0,.67,1.55,1.29,2,2.14,3.37,6.83,5.7,14.59,12.81,18.58,7.56,4.25,7.47,13.31,12.72,18.75,11.79,12.21,23.89,24.13,36,36.06,6.82,6.73,17.54,8.25,22.93,17,8.46.76,17.95-3.07,24.65,5.86.72,1,3.83.13,5.82.13,13,0,26-.75,38.94.27,8.44.67,12.6-4.11,17.88-9.68-7.81-7.55-15.81-15-23.45-22.75-8.07-8.23-16.39-15.87-21.68-26.92-4.87-10.19-18.76-14.38-21.18-27.22l-28.31-26.29c-2.32,2.32-6.23,5.55-9.29,9.45-4.75,6-10.59,7.86-18.06,7.41-4-.24-6.79,6.06-3.81,8.93,6.36,6.11,6.89,15.5,14.41,21.31C313.8,360.16,322,370.06,331.43,379.48ZM795.24,454.3c-3.36-3.6-6.21-8-10.22-10.62-4.94-3.22-2.72-9.43-6.39-12.33-1.7-1.35-5.39-1-7.9-.31-2.89.75-2.68,2.59.06,4.1,5.65,3.13,3.29,10.47,8.2,14.75s-1.76,14.05,6.58,18.1c.61.3,1,1.64,1,2.51.08,6,0,12,0,18,0,8,.31,16-.11,24-.25,4.72,3.13,6.74,5.33,9.85,3.65,5.18,10.92,2.84,14.92,8.12,1.59,2.1,7.28,1.17,11.11,1.47,4.86.38,11.34-1.27,14.3,1.26,8.52,7.26,15.45,7.4,23.12-.47.15-.15,4.25,5,6.05,4.7,3.44-.52,4.71-6.72,9.46-5.39,8.67,2.43,13.4-6.57,21.27-6.86,3-.11,3.66-9,.67-9.83-12-3.5-19.93-10.66-23-23-.41-1.66-2.68-2.85-4.09-4.27-16.24-16.23-32.53-32.41-48.67-48.73-5-5-10.65-3.7-16.22-2.25-2.93.76-2.48,2.35-.06,4.24,1.7,1.33,5.59,3,1.47,6.28A90.52,90.52,0,0,0,795.24,454.3ZM626.63,1143.44c4,0,8.07-.54,11.94.11,8.27,1.4,14.56-2.68,21.64-5.71,4.19-1.79,6.74-2.76,6.49-7.45-.25-4.88,1-10.57-1-14.5-6.44-12.29-12.8-24.61-19.21-36.89-3.34-6.39-8.34-12.48-12.64-18.6s-7.82-13.33-12.68-18.57c-5.47-5.89-7.87-13-12.26-19.08a24.09,24.09,0,0,0-4.24-4.2,2.2,2.2,0,0,0-2,.19c-.76.53-1.78,1.41-1.8,2.17-.1,3.95-1.56,9.46.45,11.59,8.66,9.13,8.39,23.33,18.65,31.37,2.11,1.65,4.48,4.54,4.55,6.92.18,6.1,0,11.89,6.08,15.53-1.18,8.52,8.25,10.8,10.13,16.69,2.26,7.11,9.07,12.19,8.2,20.66-.55,5.32-1,7.36-6.11,7.7-4.83.33-9.65-.76-13.45,4.07-1.28,1.63-6.59,2.61-7.66,1.52-14.24-14.43-31.06-26.79-38.93-46.55-1-2.57-1.7-5.92-3.67-7.35-12.13-8.84-15.21-24.91-27.34-33.67-3.23-2.34-5.82-5.33-4.94-9.89-8.75-6.52-11.43-17.43-18.27-25.36-1.81-2.1-2.87-2.75-4.29-1-2.47,3-6.75,5.75-7.07,8.93-.76,7.73-2,16.83,1.28,23.14s5,14.65,12,19c3.68,2.31,4.74,5.76,4.44,10.15a151.23,151.23,0,0,0,0,17.94c.14,2.74.41,6.15,2,8,5.24,6,11.24,11.31,16.73,17.09,3.44,3.61,8.5,2.89,12.71,5.8,8.95,6.19,20,9.18,29.76,14.41,6,3.21,11.2,7.12,18.57,5.93C618.57,1142.93,622.64,1143.44,626.63,1143.44ZM456.85,1008.08V982.57c0-7-1.35-14.33.34-20.89,2.13-8.32-7.13-10.93-6.78-18.6S437.28,910.82,432.08,906a62.67,62.67,0,0,1-14.88-20.85c-2.64-6-5.11-11.87-10.3-16.83-20.93-20-41.14-40.81-61.68-61.24a44.19,44.19,0,0,0-6.8-5.28,3.43,3.43,0,0,0-2.92,0,35.28,35.28,0,0,0-4.4,3.09c10.29,5.12,1.68,19.34,12.59,24.94S355,849.9,364.86,857c1.71,1.23,2.09,5.3,1.91,8-.3,4.45,1.36,7.39,4.54,10.22,4.37,3.88,7.21,8,8.17,14.71,1.13,7.88,3.82,16.89,11.07,22.13,5.3,3.83,5.62,9.76,8.36,14.63,4.21,7.47,7.56,15.56,14.84,20.83,5,3.58,5.85,9.63,8.84,14.24,4.61,7.09,6.24,16.46,14.47,21.06C439.1,993,447.1,998.79,456.85,1008.08ZM517.5,594c-1.07-2.56-1.74-5.38-3.28-7.62-6.89-10-8.35-23.29-18.86-31.3-1.8-1.36-2.41-5.15-2.38-7.81,0-4.2-2.39-7-3.77-10.49-5.49-13.73-16.63-25.57-14.64-42,.25-2.07-4.25-4.42-4.58-6.9-1.13-8.46-10.74-14.34-7.14-24.08-8.69-7.7-5.47-18-6-27.49-.16-3,.92-6.51-.33-8.83-1-1.89-4.76-3.44-7.13-3.23-4.63.41-6.67,7.56-12.51,5.72-6.91-2.17-10.11,4.53-15.46,6.22-7.13,2.25-13,8.19-21.6,6-3.75-1-8-.53-11.92.05-1.21.18-2.58,2.86-2.87,4.57s.33,5,1.14,5.23c8,1.93,13.28,7.36,18.69,12.9,9.77,10,19.75,19.82,29.64,29.72,5,4.94,9.75,10,14.89,14.79,4.36,4,6.76,8.71,8.81,14.38,2.15,6,11.69,7.92,10.61,16.57,6.56,3.66,5.41,11.77,9.91,17,4,4.7,5.28,11.69,8.14,17.48s5.59,11.42,6.63,18.42c.89,5.94,6.79,11.29,5.38,18.62-.13.69.79,1.65,1.36,2.39,1.37,1.77,2.47,1.08,4.3-1,3.27-3.76,7.35-6.85,10.38-10.78C516.53,600.38,516.61,597.14,517.5,594ZM656,615.82c.9-.09,4.77-.37,8.59-1a3.07,3.07,0,0,0,2-2c.3-1.94.84-4.41,0-5.85-1.51-2.48-4-4.36-6.14-6.44q-10.64-10.37-21.29-20.69c-10.51-.13-14-9.81-20.47-15.34-7.53-6.45-14.19-13.94-21.23-21s-14-14.13-21.17-21.06a8.7,8.7,0,0,0-4.88-2.43c-1.71-.14-3.59.8-5.23,1.61a3,3,0,0,0-1.28,2.36c0,1.88-.27,4.55.81,5.53,8.76,7.89,8.23,20.86,16.54,29.18,3.63,3.63-.67,9.19-6.64,9.11-3.8-.05-7.6.72-10.81-2.84-5.33-5.9-12.64-10.53-16.31-17.24-2.59-4.71-6.36-9.5-7.31-14.74-.8-4.45-3.2-6.86-5.84-9.6-3.34-3.48-6.39-6.42-7-12.19-.44-3.81-6.78-6.67-5.69-12.47.1-.55-1.67-2.11-1.94-2-1.39.71-3.62,1.8-3.64,2.8-.17,7.9.1,15.81.24,23.72,8.69,5.42,4.59,14.14,5.68,21.56a9.05,9.05,0,0,0,2.76,4.77c9.94,9.25,14.31,22.6,24.93,31.78,8,6.88,15,12.77,25.69,10.29,9.46-2.19,15,8.63,24.49,6.4,2-.46,4.67,2.69,7.18,3.88,3.32,1.57,7.48,2.09,10,4.43,3.29,3.06,6.7,4.16,10.61,3.32,6-1.27,8,5.06,12.49,5.94C644.9,616.41,649,615.82,656,615.82ZM869.7,997.39c-.14-.7,0-1.62-.45-2.08-8.22-9.2-9.43-22.38-18.77-31.26-7.4-7-18.92-12.46-16-26.2a3.53,3.53,0,0,0-1.17-2.45c-7-7.09-13.57-14.74-21.27-21s-8.08-17.28-16.58-23.35c-7.68-5.48-11.52-6.5-20.69-2.84-12.28,4.91-19,16.77-29.51,22.86s-2.49,17.41-10.09,23.3c-1.79,1.39-2,5.09-2.49,7.8-.79,4.13.62,7.3,3.78,10.41,21.31,21,42.4,42.22,63.52,63.4,1.57,1.57,2.92,1.39,4.2-1.13a3.76,3.76,0,0,0,.33-2.8c-2.59-5.91-3.89-13.38-8.32-17.3-12.56-11.12-18.34-27.48-31.33-38.16-6-5,2.07-16.33-8-20.3,6.08-2.91,4-12.89,8.57-13.87,8-1.7,16.74-3,24.4,5.05,22,23.13,44.87,45.36,67.54,67.82,1.91,1.9,4.71,3,7.2,4.19a3.94,3.94,0,0,0,2.92-.05C868.41,999.07,869,998.1,869.7,997.39Zm96.56-585c0-13.72.14-23.65-.21-33.56,0-1-2.93-2.41-4.63-2.63s-3.64.63-5.33,1.35c-.72.31-1.67,1.64-1.51,2.24,2.37,9.2-3,14.64-9,20.31-4.84,4.62-4.46,6.93.18,12.19,2,2.23,4.4,4.08,6.27,6.39,4.16,5.11,3.33,13.3-1.51,18.27-2.74,2.83-5.3,5-9.86,5.22-12.21.49-23.64-.15-31-11.95-7.31,1.48-12.73-4.11-13.84-8.57-1.83-7.43-6.56-11.59-11.15-16.37-4.82-5-10.42-9.44-14.6-14.93-4.42-5.81-11.22-6.93-16.54-10.65-5.63-3.92-10-9.65-15-14.51a2.19,2.19,0,0,0-2-.06c-.81.49-2,1.5-1.92,2.09.81,4.66-2.71,10.43,2.18,13.94,13,9.34,16.42,26.59,29.55,35.53,7.72,5.25,10.41,13.78,14.23,21.12,3.13,6,6.1,11.54,10.9,16.4,3.9,3.95,8.59,6.92,9.62,14,.69,4.79,7.37,8.72,11.36,13-3.13,11.57,8.67,7.82,12.85,11.87,5.15,5,7.72,3.39,12.07-1,6.91-7,7.66-16.94,12.73-24.59,5.68-8.58,9.64-18,14.27-27C969.5,430.68,965.39,419.23,966.26,412.34ZM759.63,346c15,15,29.64,29.79,44.56,44.38a14.46,14.46,0,0,0,7.44,3.38c1.4.24,3.17-1.66,4.77-2.59C810.74,388,812,381,808.3,376.83c-7-7.86-16.12-14-18.88-25-8.7-4.21-8.29-14.75-14.64-20.83-14.35-13.74-28.17-28-42.27-42-4.38-4.35-7.31-3.39-12.43.34-5.29,3.86-3.81,13.47-8.34,14-8.33.94-9.33,4.37-9.17,11.22.34,14.9.77,29.85-.15,44.7-.54,8.51,3.91,14.34,9.8,16.18a27.55,27.55,0,0,1,12,7.19c5.65,5.6,11.24,11.25,16.94,16.79.2.19,1.49-.44,2-1s1.56-1.69,1.4-2.32c-.69-2.66-1.29-5.51-2.73-7.78-6.81-10.72-10.7-22.05-9.25-35,.63-5.64,1.49-7.21,6.47-7.27C746,346,752.9,346,759.63,346ZM627.73,801.69c-4.34,4.33-7.36,9.92-11.48,10.91-7.48,1.8-16.59,3.16-23.19.37-5.58-2.35-12.51-4-17.16-9.05s-9.73-9.95-14.74-14.78c-2.06-2-4.23-4.08-6.76-5.27-1.41-.66-3.77.11-5.48.79-2.91,1.15-2.14,2.12-.17,4.28,3.78,4.16,8.1,7.4,10.46,13.5,5.2,13.44,22.17,18.78,25.49,34.16,8.82.36,12.67,8,18.82,12.35,2.71,1.91,7.25,1,10.07,4.42,4.65,5.69,14.08-1.56,18.24,6.32.43.8,1.41,1.87,2.14,1.87,15.91.11,31.82.23,47.71-.25,1.07,0,3.46-5.4,2.69-7.24-1.41-3.39-4.25-7.85-7.29-8.59-8.17-2-13.13-7.62-18.53-13C648.67,822.68,638.86,812.81,627.73,801.69ZM468.84,271c0-9.95.14-19.89-.2-29.83,0-1.06-2.82-2.58-4.51-2.88a9.74,9.74,0,0,0-5.43,1.07c-15.14,7.09-18.76,6.36-25.83-5.51,1.57-10.35-13.59-11.42-12.18-21.91.17-1.3-2.13-3.06-3.47-4.41C406,196.21,394.79,184.91,383.4,173.8c-1.17-1.14-3.43-1.26-5.24-1.6a4.55,4.55,0,0,0-2.74.49c-2.61,1.3-2.75,2.66-.81,4.21,1.55,1.24,4.26,3.09,4,4.14-2.25,10.43,4,16.68,10.77,22.5,8.16,7,9.68,18.84,18.81,25.17,1,.7.4,3.67.69,5.57.42,2.78.16,6.12,1.63,8.22,5.43,7.75,16.07,11.66,16.71,22.95,9.19,6.14,10.76,18.17,19,24.87,4.52,3.65,5.08,8.07,4.53,13.08-.38,3.43,1.12,6.15,4.13,6.4,2.49.21,5.54-1.14,7.66-2.72,3.93-2.94,7-6.33,6.41-12.27C468.3,286.92,468.84,278.91,468.84,271Zm353.25-45.39c-2.38,1.54-4.62,2.22-5.32,3.65-.78,1.6-.9,4.34,0,5.77,1.52,2.47,4,4.34,6.17,6.42q10.61,10.35,21.24,20.67c11.53.53,15.17,11.43,22.58,17.34,4.63,3.7,8.15,11.3,12.81,11.86,7.14.87,10.1,5.39,14.27,9.15,4.42,4,8,9,12.81,12.43a76.26,76.26,0,0,0,17.12,8.89c1.57.6,5.57-1.75,6.48-3.68,1.15-2.44,1.49-6.69.08-8.67-7.61-10.63-9.24-24.58-19.22-33.85-5.82-5.4-11.25-11.22-16.9-16.81-8.13-8-13-10.3-29.67-14.75-2.59-.69-5-2.54-7.18-4.19-3.77-2.8-9.11-1.49-12.68-6-1.7-2.14-7.43-.61-10.91-1.9C829.51,230.37,825.7,227.6,822.09,225.57ZM771.63,837.66c-7.16,7.15-13.37,13.6-19.88,19.74-2,1.85-4.82,4.14-7.14,4-6.38-.39-11.51,1.09-15.42,6.24-7.57-2-10.55,8.65-18.14,6.61C703.81,886.59,691.89,886,680,885.66c-7-.2-13.92-.1-20.87,0-3.54.05-6.87,6.82-4,8.92,5.36,3.87,4.28,10.6,8.25,14.65,9.74,9.94,19.35,20,29.72,29.3,2.29,2,7.62,1.51,11.34.9,5.19-.86,4.59-5.54,4.18-9.31-1.37-12.43,6.8-21,12-30.85a73.93,73.93,0,0,1,31.93-31.6c4.1-2.08,6.59-7.87,12.4-6,7,2.3,9.57-5.88,15.43-6.06,4.75-.15,7.66-1.37,3.05-6.14C780,845.92,776.42,842.46,771.63,837.66ZM850.1,1114c-29.81-29.8-56-55.88-82-82-5.38-5.4-11.61-10-13.11-18.6-.51-3-5.12-6-8.52-7.49-1.83-.8-7.24,1.48-7.29,2.55-.23,4.65-2.84,10.09,1.5,14,3.3,3,3.73,6.25,4.15,10.37.88,8.56,5.13,16,10.66,22.43,5.21,6,11.2,11.37,16.84,17s12.11,10.71,16.72,17.1c5,6.85,14,5.73,19.23,12.28,3.89,4.84,10.33,8.55,16.37,10.49S837.88,1113.24,850.1,1114ZM301,992.55c-.92-6.5,2.94-14.24-4.93-18.93,1.43-10.89-9.17-19-7-30,1.07-5.56-3.56-8.68-5.11-12.85-1.72-4.66-3-9-6.89-12.14,1.93-7.61-4.63-10.41-8.59-14.34-3.24-3.23-3.27-6.69-3.55-10.64-.18-2.66-1-5.91-2.81-7.69-4.82-4.85-9.69-9.41-10.54-16.71-.05-.42-1.51-1.15-2-1-.85.35-2.06,1.3-2.07,2-.12,8.72-3.48,18.74,1.73,25.79,7,9.5,2.09,19.15,3.91,28.48.16.81,1.23,1.58,2.05,2.11,5.21,3.36,3,8.77,4.08,13.34,1,4.4,5.43,8.37,5.46,12.55.08,9.86,9,17,7.37,27,6.61,6.94,8.24,17.53,16.88,23,.45.29,0,1.91.06,2.91.13,5.64,1.67,6.31,6.46,2.79C301.23,1004.07,301.17,998.51,301,992.55Zm545-396.61c2.76,2.2,5.66,4.74,8.79,7,10.94,7.85,16.07,22.86,31.32,25.37L917.73,660c10.57,10.56,21,21.27,31.83,31.56,1.76,1.67,5.32,2.18,8,2,2.93-.22,4.65-7.21,1.51-9.76-4.39-3.55-3.55-8.72-6.12-12.58-3.18-4.77-10.15-6.68-10.38-13.63-.19-5.89-5.49-7.9-8.72-11.29-10.31-10.82-21-21.23-31.61-31.8-3.52-3.52-6.49-8.32-10.74-10.15-3.35-1.45-6.92-1.73-10.18-4.46-5.76-4.83-16.13,1.23-20.61-8-.19-.39-1.9-.13-2.89,0C854,592.22,849.76,590.46,845.91,595.94ZM745.06,536.61c-1.43-1.33-3-4.08-5.15-4.56-15.14-3.43-22.47-6.57-30-13.95-5.68-5.56-11.25-11.23-16.87-16.85s-12.12-10.62-16.63-17c-4.89-7-14.38-5.21-19-12.36-7-10.85-21.52-12.74-29.1-23.2-.12-.16-1.48.3-2,.76a4,4,0,0,0-1.52,2.3c-.08,1.9-.47,4.49.57,5.62,5.35,5.87,13.92,10.47,16,17.19,3,9.35,9.91,14.07,15.49,20.44,5.23,6,11.76,10.84,16.6,17.07,4.49,5.76,11.52,6.48,16.58,10.51,5.4,4.31,9.94,9.7,14.86,14.62,5.62,5.62,11.2,11.27,16.88,16.84a6.79,6.79,0,0,0,10.1-.56C736.31,548.39,743.16,545.3,745.06,536.61ZM672.72,256.09c1.69-.71,3.82-1,5-2.18a48.07,48.07,0,0,0,12.8-42.25c-.25-1.38-2.54-3.2-4.06-3.38-3.92-.49-8,.06-11.9-.21-8-.57-13.44-7-14-15.19-.44-7.08.08-13.4,5.84-18.64.85-.77-1.34-5.05-2.4-7.59-.2-.46-1.75-.48-2.68-.48-5,0-10.15-.92-14.85.18-7.06,1.66-9.69-6-15.45-6.1a7.08,7.08,0,0,0-5,1.87c-1.07,1.24-1.88,4.24-1.15,5.23,3.45,4.65,8.16,8.47,11.1,13.37,2.83,4.7-1.09,11.06,4.1,16.3,4.41,4.47,4.95,11.89,10.56,16.5,3.26,2.68,3.74,8.53,6.7,11.87s2.68,6.86,3.57,10.56c1.5,6.19,4.19,12.14,6.86,18C668.34,255.14,671,255.39,672.72,256.09Zm-413,551.59c-1.77.53-4.85.7-5.11,1.64-1.53,5.53-4.51,10.14-7.52,14.89-1.94,3.06,1.46,7.27,6.08,7.39,4.91.13,9.47-.38,13.29,4.3,5,6.13,10.95,11.47,16.5,17.15-2.07,7.62,8.69,10.58,6.6,18.2,6.92,5.51,6.07,16.56,14.79,20.79,2.27,7.55,8.14,12.7,12.24,19a109.38,109.38,0,0,1,10.83,22.31c3.46,9.5,10.05,16.26,17.19,22.72.54.49,2.85-.58,4-1.37.49-.33.57-2,.2-2.78-7.27-15-13.45-30.59-23.17-44.18-3.44-4.81-8-8.26-7-15.24.34-2.26-1.88-5.15-3.43-7.4-3.19-4.62-2.36-11.56-8.39-14.49s-5.4-9.75-8.31-14.52c-3.94-6.46-6.71-13.32-12.63-18.8-9.13-8.45-19.62-16.15-23.54-29C262.29,807.82,260.67,807.86,259.74,807.68ZM437.17,560.55c.43-.7,1.36-1.86,1.2-2-9.33-10.7-11.11-25.87-22.91-35.56-13-10.7-24.18-23.66-36.16-35.63-4.93-4.93-9.14-12.63-15-14.14-8.59-2.24-12.5-8.73-18.62-13.1-1.3-.93-4.05-.56-5.78.11-.95.38-1.95,3.61-1.59,3.9,6.18,5,6.23,13.39,12.26,19.1,25.32,23.95,49.57,49,74.28,73.62a22.11,22.11,0,0,0,6.92,4.88C433.21,562.25,435.36,561,437.17,560.55ZM752.63,227.11c-.87.87-1.56,1.6-2.29,2.28-4.18,3.87-10.86,2.82-14.62,8.31-3.51,5.12-2.11,5.8,3,6.57,2.56.38,5,2.44,7.19,4.15,11.35,8.9,18.84,21.71,33.21,28,9.33,4.11,14.91,16.7,24.24,20.93,10.7,4.86,15.5,14.73,24.3,20.66A49.52,49.52,0,0,0,835,322c.77.34,2.43.22,2.74-.27.75-1.2,1.74-3.5,1.23-4-6.15-6.52-11.84-13.83-19.09-18.86-7.86-5.45-8.16-15-14.49-21.15-16.48-15.9-32.47-32.32-48.74-48.45C755.6,228.16,753.94,227.77,752.63,227.11ZM561.8,657.79c-1,1.57-3.2,3.54-2.83,4.64,2.09,6.07,3.19,14,7.62,17.47,12.55,10,16.84,26.15,29.17,36,3.87,3.08,9.78,6.77,10,10.53.58,7.91,4.51,9.53,10.73,10.22a3,3,0,0,1,2,2c0,9.57,6.28,12.46,14.1,15.4,5,1.87,10,5.9,10.19,12.92a6.27,6.27,0,0,0,2.94,4.55,8,8,0,0,0,5.81,0c1-.38,2.15-3.51,1.76-3.88-6.25-6-6.32-16.23-14.56-21-4.29-2.48.22-13.19-9.94-11.1-1.1.23-4.09-2.41-3.93-3.32,1.35-7.56-8.77-10.61-6.9-18.16-5.21-3-13.14-3.26-12.29-12.3l-16.89-16.88c-1.71-13.18-14.13-18-21.25-27C566.83,657,563.79,657.79,561.8,657.79Zm275.68,66.05c3.56-3.09,4.63-6.92,1.74-10.24-5.19-6-11.05-11.32-16.63-16.94,1.19-8.5-8-10.72-10.19-16.58-2.48-6.54-6.92-11.09-10.47-16.57-4.08-6.3-6.43-13.86-13-18.25-6.08-4.07-7.15-10.93-10.63-16.42-2.44-3.83-5.78-7.36-11.81-7.28-5.52.07-9.35,1.85-12.5,5.92-1,1.28-1.75,2.74-2.6,4.09,7.11,7.11,13.63,14.71,21.25,20.95S781.54,669,789,675.75C805.92,691,821.42,707.72,837.48,723.84ZM248.85,557c-.62.75-1.85,1.59-1.75,2.21.75,4.67-1.38,9.32,2,14.15,4.19,6,9.43,13.2,9.26,19.74-.31,11.34,3.67,19.09,12.14,25.07,6.77,4.79,6.87,11.22,6.58,18.32-.11,2.7.28,6.22,1.92,8,6,6.68,12.4,13,19,19,1.09,1,4.78,1,5.62,0,1.71-2,3.86-5.64,3.07-7.3-4.81-10-13.24-18.59-11.73-31-11.64-15.8-16-35.95-30-50.35.08-8.35-8.16-10.5-11.94-16a6.83,6.83,0,0,0-2.12-2.06C250.41,556.61,249.55,557,248.85,557ZM960.58,996.8c-.26-2.92.32-5.65-.74-6.64C953.29,984,953,974.68,948.24,968c-5.68-7.95-13-14.86-20.12-21.62-4.86-4.59-8.08-11.39-15.59-12.81-8.68-1.64-11.24-10.7-17.86-14.75a111.77,111.77,0,0,0-17.23-9c-1.6-.62-5,1.8-6.7,3.63-.88,1-.42,4.05.5,5.49a6.42,6.42,0,0,0,4.79,2.46c6.08-.13,9.51,4.75,11.19,8.43,2.43,5.29,2.41,11.45,10.65,10,13.4,13.41,26.46,27.21,40.44,40,4.21,3.85,2.58,9.27,6.17,12.53,2.82,2.57,5.71,5.47,9.12,6.81C955.4,1000,958.39,997.65,960.58,996.8Zm-603,56.71c.9-1.61,3.61-4.22,3.13-5.93-3.25-11.56-13.53-20.4-12.76-33.77.11-2-3.6-4.81-6.11-6.21-5.9-3.28-3.66-10.63-8.26-14.75-4.13-3.69-10.48-6.7-8.72-14.33.12-.51-1.6-2.11-2-2-1.42.57-3.73,1.61-3.75,2.53-.27,10,.23,20-.3,29.94-.4,7.48,3.18,15.66-4.27,22.27-2.91,2.57,1.73,4.72,3.44,6,8.9,6.8,20.32,9.09,29.35,16C349.24,1054.74,353.18,1053.51,357.55,1053.51Zm105.84-674c-8.5-8.51-16.25-16.25-24-24,.56-9.47-7.14-13.78-12.88-18.4-6.48-5.21-5.69-14-12.26-19.17-8.53-6.75-15.68-15.26-23.44-23-2.55-2.55-6-2.14-5.89.67.06,1.94-.51,4.87.51,5.65,11,8.45,13.47,23.67,25.15,31.6,2.21,1.5,3.63,3.83,4.63,7,2.24,7.09,8,13.09,6,21.41,5.63,5.63,11.85,10.82,16.62,17.12,2,2.58.56,7.57,1.13,11.4s6.45,6.25,9.31,3.71C453.37,389,458.35,384.22,463.39,379.54Zm209,299.64c-9.13-14.42-27.72-17.69-37.2-31.72-.81-1.19-3.43-1.58-5.21-1.58a156.81,156.81,0,0,0-20.7.8c-1.15.15-3.24,6.17-2.26,7.41,5.46,6.92,13.85,12.32,17,20,2.47,5.92,5.54,11.33,10.16,13.16s11.62,2.56,16.16-3.7c1.21-1.67,5.31-1.28,8.1-1.75C663.11,681,668.42,683.73,672.37,679.18ZM534.79,302.35c0,6.94-.07,13.87,0,20.8.06,4.25,5.56,7.66,8.51,4.65,4.6-4.67,9.3-6.34,15.59-5.86a110.32,110.32,0,0,0,17.81,0c5.67-.51,11.76,2.37,17-1.88-3-6.15-11.31-4.23-14.83-9.88-.59-1-4.32.34-5.46-.68-5.16-4.61-9.21-10.9-15-14.25-6.58-3.81-13.58-6.65-18.39-12.89a24.46,24.46,0,0,0-2.09-2.11c-1.05,1.43-2.93,2.81-3,4.3C534.59,290.45,534.79,296.41,534.79,302.35Zm115.42-4.3c.87-.06,7.73-.38,14.51-1.27.87-.12,1.88-3.26,1.82-5s-1.2-3.48-2.21-5a3.2,3.2,0,0,0-2.61-.72c-10.49,1.49-19.66-.41-25.86-9.93-2.14-3.29-5.34-1.74-8.13-2.1,0,0-20.46,8.45-20.46,8.47.35,2.7.43,7.68,1.11,7.76,8.51,1,14.11,10.45,23.89,7.91C636,297.24,640.22,298.05,650.21,298.05Zm-167,47.54c15.91-11.56,22.69-26.67,22-46.46-.3-9.31-7.07-15.24-8.08-23.63,0-.33-1.5-.89-2-.66-.85.4-2,1.29-2.06,2-.24,4.93-.21,9.87-.3,14.8-.09,4.77,1.19,9.8-3.84,13.34-4.09,2.88-.59,10-6.31,12.28a3.25,3.25,0,0,0-1.75,2.18,23.61,23.61,0,0,0-.05,5.94C481.69,332,478.48,339.11,483.2,345.59Zm435.32,758.88c-9.17-6.85-14-19-27-21.51-2-.38-2.3-6.82-4.43-9.67-3-3.94-6.81-7.23-10.46-10.61-1.09-1-2.77-1.41-4.17-2.09-.57,2.7-2.55,6.33-1.49,7.93,5.78,8.7,9.52,19,18.75,25.13,4.78,3.15,5.28,7.81,4.84,12.93-.42,4.85,2,6.32,6.76,7.08C909.8,1115,913.66,1109.12,918.52,1104.47ZM678.75,391c-2.83-2.81-5.92-5.38-8.42-8.42-13.13-16-34.2-18.84-50.06-30.34-1.95-1.41-5.87-.53-8.77-.06-1.69.28-3.17,1.86-4.74,2.85.69.71,1.26,1.77,2.09,2.06,11.69,4.05,22.74,9.1,30.87,18.94,3.18,3.85,7.13,5.48,12.15,6.79,4.15,1.08,6.59,7.69,10.81,9.73C667.62,394.9,673.82,396.28,678.75,391ZM546.66,983.53c1.08-4.84-4.26-7.15-4.47-10-.76-10.23-4.45-18.14-12.57-24.48-1.71-1.34-.8-5.65-2.31-7.69a33.09,33.09,0,0,0-8.54-7.61c-1.24-.81-4-.34-5.44.58a6.82,6.82,0,0,0-2.37,4.73,8.14,8.14,0,0,0,1.59,5.13C517.72,950.79,520,959,526.7,965c6.07,5.43,10,13.3,14.71,20.21,1.65,2.43,2.83,2.76,4.19.48C546.06,985,546.39,984.09,546.66,983.53ZM966.42,754.15c.41-11.23.25-12.44-8.78-12.09-7.52.3-11.25-4.31-14-8.79-2.31-3.77-2.2-9.19-6.65-11.95a22.1,22.1,0,0,0-7.43-3.37c-1.4-.25-3.17,1.6-4.77,2.51,5.31,3.3,4.57,9.93,7.82,14.27,5.63,7.53,15.64,11.73,16.79,22.74.19,1.77,11.28,3.8,13.61,2.07C965,758.09,965.85,755.13,966.42,754.15ZM244.73,477.43c-2.73.66-7,.47-7.92,2.14-2.59,4.62,3,6.52,5.29,8,5.24,3.27,12.17,4.08,12.28,12.54,0,1.42,2.69,2.74,4,4.23,3.15,3.57,6,4,6.32.85.2-1.94,1-5.16.17-5.65-6.41-3.91-4.56-12.46-10-16.92C251.8,480.1,249.4,476.93,244.73,477.43ZM523.1,657.87c-.07-.2.07,3.29,1.86,4.71,3.27,2.59,6.5.83,9.95-1.63,6.76-4.8,6.59-11.39,5.55-18-.21-1.38-5.32-3.63-7-2.87C527.48,642.89,522,646.82,523.1,657.87ZM301,543.77c-1.65-6.38-7.4-11.59-13.65-11.73-1.37,0-2.79,1.94-4.19,3,5.89,2.85,4.45,10.05,8.26,13.83,1.28,1.26,5.21.51,7.61-.3C300.06,548.19,300.33,545.44,301,543.77ZM702.75,651.46c-.74-1.22-1.69-4.84-3.52-5.36-3.59-1-7.69-.52-11.53-.12-.76.09-2.16,3.33-1.76,3.8a54.46,54.46,0,0,0,8.28,7.93C697,659.79,702.48,656.66,702.75,651.46ZM729.51,430.1c-.69.68-1.71,1.24-2,2.06-2.8,8.12-.21,14.48,6.14,20,2,1.72,2.86,2.24,4.17-.41.4-.8,1-1.88.76-2.53q-3.37-8.73-7.07-17.33C731.19,431.14,730.19,430.69,729.51,430.1Zm-71.5-102V328a12.19,12.19,0,0,0-2.9,0c-1.74.43-3.41,1.1-5.11,1.67.51,1.37.72,3,1.6,4.06,1.85,2.23,3.79,4.58,6.2,6.06,1.41.87,4.65.95,5.53,0a13.65,13.65,0,0,0,3.16-7.16c.19-1.38-1.4-3.7-2.79-4.4C662.16,327.52,659.93,328.11,658,328.11Zm-87.2-71c-.64-7.4-5.21-11.33-12.18-13-.9-.22-2.36-.42-2.76,0-.94,1.1-2.28,3.42-1.9,3.84,3.82,4.25,8.1,8.1,11.94,12.33,1.73,1.9,2.8,2.05,4.09-.53A16.35,16.35,0,0,0,570.81,257.11ZM221.64,567.85l-4.53,2.91c4.23,3.31,6.34,9.91,13.26,9,1.61-.22,3-1.83,4.55-2.8C230.54,573.85,228.84,566.84,221.64,567.85ZM552.79,233.46c1-7.19-6-8.88-9.09-13.26-1,1.51-2.58,2.93-2.8,4.55-.93,6.92,5.66,9,9,13.25C550.84,236.49,551.82,235,552.79,233.46ZM841.05,640.2c-1.1-1.89-2-4.59-3.86-6.22-1.09-1-4-.82-5.54,0-3.24,1.66-2.5,3.92,0,6,1.48,1.22,2.71,2.71,4.1,4a24.08,24.08,0,0,0,2,1.59C838.73,644,839.65,642.5,841.05,640.2ZM279.93,525.93c1.69-1.69,3-2.46,2.93-3-.37-2.65-.33-6.15-2-7.61s-5-.68-7.62-.56c-.71,0-2,1.82-1.95,1.86C274.1,519.75,277,522.82,279.93,525.93ZM457.26,646.65c-1.09-2.6-1.7-4.29-2.53-5.86-.13-.24-1.48-.19-1.94.15-3,2.23-3,8.6.2,9.63C454,650.88,456,647.88,457.26,646.65Zm406.43,27-2.13-3.86c-.67.67-2,1.48-1.88,2a19.07,19.07,0,0,0,1.88,4Zm45,98.93-2.13,2.14a18.73,18.73,0,0,0,4,1.87c.49.11,1.31-1.21,2-1.87ZM336.94,265.07c-.67-.66-1.48-2-2-1.87a18.8,18.8,0,0,0-4,1.87c.67.67,1.48,2,2,1.88A19.07,19.07,0,0,0,336.94,265.07Z"/></svg>