<svg id="Layer_1" data-name="Layer 1" xmlns="http://www.w3.org/2000/svg" viewBox="0 0 1200 1200"><title>BB_Artboard 64</title><path d="M1037.27,690.08c0,12.43.17,24.87-.16,37.29-.06,2.14-1.89,1.9-3.46.84s-2.31-5.91-5.09-1.92c-2.27,3.27-1.2,7.67,2,7.91,5.12.38,7.25,1.64,7.21,7.09-.2,25.79-.68,51.61.24,77.37.3,8.59-7.78,13.83-5.7,23,1.8,7.91.51,16.56.23,24.87,0,1.25-2.39,2.25-3.13,3.65-2.88,5.46-3.23,10.55,1.83,15.34,2.76,2.61,2,5.77-.68,8.48-.94.94-2.27,3.16-2,3.37,6.78,6.5,6.27,12.55-.19,19.09-1.29,1.31-.31,4.73-.66,7.13-.78,5.3,6.35,7,5.25,13-1,5.63-.23,11.61-.23,17.43,0,5-1,10.26.26,14.91,1.62,6,6.24,10.82,4.94,18-1,5.64-.19,11.61-.21,17.43,0,2.48,1,6-.29,7.26-5.23,5.28-6.26,12.51-9.69,18.56,3.33,6.11,7.68,11.92,9.62,18.44,1.26,4.21,2.53,10.39-1.13,14.14-4.07,4.16-2.84,11.21-8.64,14-1.39.67-2.93,2.45-4,2.17-6.4-1.69-10.27,4.6-15.46,4.91-12.44.74-24.95.33-37.43.09-1.23,0-2.5-2-3.63-3.12-3.51-3.61-7.89-.88-11.77-1.71-4.47,7.06-11.57,4.91-17.91,4.93-40.77.09-81.54-.1-122.31.16-8.63.06-18-2.78-25.56,4.71-1.33,1.3-4.64.09-6.37-2.17-2.27-3-5.84-4.14-8.34-1.61-3.27,3.31-6.63,4-10.94,4-25.8-.14-51.6-.41-77.38.16-6.93.15-10.61-6.9-18-5.48-6.42,1.23-13.26.25-19.92.25H631.06c-6.65,0-13.35-.45-20,.12-7.53.66-12-7.5-20.5-5.5-7.89,1.84-16.55.39-24.87.39H428.44a89.74,89.74,0,0,1-10-.07c-5.42-.61-8.81-6.54-15.46-5.16-5.59,1.15-11.6.24-17.43.24h-15c-5.83,0-11.88-1-17.42.25-6.77,1.54-9.78-5-15.46-5.33-5.45-.3-11.72,2.35-15.91-3.91-.62-.93-2.95-.74-4.49-1-4.65-.78-10,2.05-13.88-2.64-3.24-3.94-8.28-.74-11.35-2.63a89.33,89.33,0,0,0-12.43-6.27c-1.42-.59-2.32-3.18-3.58-3.28a105.2,105.2,0,0,0-15-.1c-4.67.29-10.17-2.17-13.53,3.44-12.36,4.37-23.6,1.11-33.69-6-6.81-4.79-12.37-11-10.26-20.64,1.19-5.45-2.51-11.63,2.26-16.53,3.92-4,8.61-7.48,8.81-13.84,7.06-7.06,13.81-14.49,21.39-20.93,1.92-1.62,6.35-.61,8.29-3.8,1.3-2.15,2.19-2,3.59.11,2,3.09,5.6,4.76,8.38,2.69,12.56-9.36,29.31-11.86,39.84-24.46,7.84,1.33,7.61-3.85,7.36-9.09-.08-1.66,0-3.33,0-5-.15-5.09-2.11-6.45-8.05-5.92-2.41.22-4.75-.13-6.63,2.16-7.83,9.56-20.25,11.49-30.07,17.79-3.21,2.06-6.76,4.22-10.41,4.83-3.93.65-5,4-7.71,5.64-5.3,3.24-10.66,6.38-16,9.56-8-2.39-11.76,3.82-16.72,8-2.24,1.89-6.4,1.74-8.25,3.81-3.93,4.36-11.37,2.62-14,8.67s-11.12,2.89-13.82,8.82c-6.29-1.44-8.85,6.56-15.15,5.95-1.64-.15-4.22,2.68-5.31,4.7-3.07,5.69-9.94,4.51-14.22,8.45-2.37,2.18-7.68,1.24-11.68,1.53-2.48.18-5-.12-7.48.07-4.29.34-8-.23-10.88-4a42.3,42.3,0,0,0-7-7.06c-4.84-3.89-7.45-8.51-6.38-14.89a17.31,17.31,0,0,0,0-5c-1-7.9,1-14.45,7.73-19.32,3.08-2.22,3.18-5.31,1-8.48-1.32-1.93-3.38-3.88-3.56-5.95a169.43,169.43,0,0,1-.1-17.46c0-.63.88-1.4,1.53-1.82,7.36-4.78,10-15.74,20.86-15.92,6-6.77,16.48-6.37,22.05-12.61,6.16-6.89,16.42-7.41,21.18-15.62,1.63-2.8,5.36-.58,6.59-1.91,5-5.42,13.61-5.14,17.61-12.15,4.2-7.36,11.44-8.58,19.22-7.64,2.77.34,5.3-.72,5.63-3.23,1.35-10.34,11.35-13.52,16.69-20.51,1.05-1.37,4.55-.7,6.84-1.29s5-1,6.37-2.5c3.94-4.21,9-6.24,13.66-9.16,4.45-2.81,13.48-2.42,12.33-11.6,7.54-7.23,13.93-15.9,24.41-19.42,3.22-5.11,9.42-5.83,13.58-9.13,4.44-3.52,10.51-3.16,14.35-8.3,3.13-4.18,6.06-10.36,13.23-9.76,15.31-10.22,16.89-16.56,8.51-34.18-2.65-5.57-4.53-11.75-8.5-16.36-2.54-2.95,1-9-5.52-9.46-4-.3-5.41,3.21-8.16,4.54-4.15,2-9.48-1.22-13.62,3.52-2.95,3.36-9.22,2.39-12,7-5-1.18-7.32,2.73-10.2,5.52-2.3,2.23-4.2,5.14-8.14,4.48-4.42-.75-7.79.83-10.74,4.28-3.23,3.79-7,7.12-10.52,10.65-6.3-1.54-8.68,3.84-11.95,7.16-2.68,2.71-5.52,3.08-8.86,2.88a7.74,7.74,0,0,0-6.6,2.24,42.8,42.8,0,0,1-9.3,7.62c-6.73,3.71-14,6.51-20.72,10.18-6.13,3.32-13.37,4.82-18.12,10.51-4.23,5.08-10.87,6-16.13,9.31-6.55,4.15-14.94,5.2-20,11.86a5.34,5.34,0,0,1-1.77,1.74c-5.66,2.42-11.88,4-16.89,7.31-5.21,3.49-8.7,9.55-15.73,10.38-2,4.61-8,2.18-10.13,5.39-3.07,4.61-9.26,2.21-12.4,6.83-2.1,3.07-4.58,7.14-9.65,6.51C66.19,862,52.49,866,41.19,874.31c-4.94-1.41-7,4.26-10.45,4.71-7.37.94-15,.56-22.42.1-2-.12-4-2.34-5.84-3.79-3.1-2.43-5.42-5.16-9.89-6.42-6.32-1.79-4.41-3.59-4.2-13.35.17-8,6.26-12.75,6.79-19.89.05-.63,1.11-1.18,1.7-1.77,1.17-1.18,2.34-3.35,3.53-3.37,8.32-.14,11-9.5,18-10.9,3.79-.75,5.4-3.27,8-5.09a3.5,3.5,0,0,1,2.41-.13c8,1.69,13.54-4.06,19.35-7.4,4-2.31,9.52-1.77,12.53-6.49.82-1.3,4.54-.58,6.84-1.18s5-1.05,6.32-2.6c7-8.13,17.62-10.07,26-15.74a8.35,8.35,0,0,1,4.33-1.49c4.16,0,8.11.26,11-3.82,5.73-8.19,14.4-12.81,23.31-15.92,6.12-2.13,8.48-7.45,13.12-10.56,2-1.31,2.36-2.4.89-3.54-.61-.47-1.35-1.18-2-1.14-8.68.54-18.11-2.71-25.4,4.93-6.19-1.6-10.58,2.36-15.43,4.95-.65.34-2,.4-2.41,0-5.67-6.57-13.59-3.61-20.34-5.38-3.84-1-8.57-4.95-8-11,.28-3.27.45-6.59-2.77-8.83-3.44-2.38,0-3.52.85-5.31,4-8.8,7.84-17.4,19-19.6,2.73-.54,4.81-4.3,7.22-6.54,1.19-1.11,2.37-2.92,3.68-3.05,4.92-.47,10.44.93,14.65-.89,3.52-1.52,6.12-5,10.74-4.27,6.11,1,11-.86,15.11-5.83s9.36-9.45,14-14.24a15.38,15.38,0,0,0,2.43-4c5-10.4,9.81-20.92,15.07-31.19,2.93-5.72,7.09-11.19,4.8-17.9-2.55-7.47,4.51-11.71,5.07-18,.5-5.69-1.35-12.76,1.41-16.76,3.22-4.67,3.15-8.85,3.71-13.61.82-7-2.89-14.74,4.37-20.81,1.67-1.41.53-6.3.53-9.58,0-30.79-.51-61.59.39-92.35.22-7.29-6.17-11.11-5.49-17.93.58-5.76.12-11.63.12-17.46,0-6.66,1-13.53-.3-19.91-1.26-6-6.2-10.81-4.9-18,1-5.64,0-11.62.26-17.43.17-4.49-5.61-5.45-5.22-10.43.63-8.27-1.72-17.25.75-24.76,2.09-6.38,9.2-11.12,14.09-16.58-2.26-10.3,10-6,12-12.05,4.89-.25,10.51-2.13,14.49-.34,5.14,2.3,9.62,4.63,15.56,5.06,2.9.2,6.32,5,7.9,8.39s-.76,7.78,2.75,11.42c2.56,2.66,3.14,7.16,5.57,10,4.28,5.07-1.53,14,6.91,17.15-3.73,8.12,6.22,12.92,5,20.4-1.12,6.77,8,10.06,5.46,18.05-1.1,3.47,6.11,7.13,4.58,12.77-1.47,5.41,6.68,7.29,5,12.9,4.61,4.18,6.7,9.68,4.8,15.34-2.34,7,7.35,8.6,5.5,15.56-1.12,4.21-1.86,9.5,3.13,13.58,4.38,3.59-1.65,11.86,5.43,15.11.1,8.07,2.73,16.41,7.53,21.6,5.54,6,0,15.51,8.36,19.25-3.28,8.74,7.12,14.18,5.37,22.84-1,4.83,7.11,6.9,5.21,12.71,5.16,3.08,4.76,8.08,4.66,13.07-.05,2.4-.37,5.31.79,7.11,2.6,4,6.89,7.12,8.87,11.35,1.56,3.33-.93,8.18,3.32,11.11,3.45,2.39,1.5,6.07,1.93,9.16.76,5.5,4.74,8.07,9.16,10.21,1.87.91,5.84-1.2,5.82-3.07-.09-8.26-.26-16.52-.4-24.79-3.93-2.8-4.44-5-.68-9.15,1.55-1.71-4.95-5.06-4.05-9.81.76-4,.2-8.29.15-12.45-.07-5.64-6.78-8.7-5.24-15.46,1.25-5.54.25-11.59.25-17.42-9-7-4-16.84-4.85-25.4-.68-7.17-7.91-12.35-5.58-20.2-3.56-2.66-5.91-6.24-4.44-10.56,3.52-10.4-6.49-18.09-5.1-27.93-4.06-4.36-6.11-9.37-5-15.4-5.31-3.16-3.68-10.42-8.33-14.09-1-.81-1.92-3.08-1.52-4.2,2.34-6.61-5.8-9.9-5-15.42a27.92,27.92,0,0,0-6.46-22.16c-4.6-5.32-1.08-12-5-15.46s-2.91-8.89-6.64-12.5c-4.58-4.43-.94-11-2.1-16.51-1.34-6.36,4-8.51,7.07-12.08,3.6-4.21,9-7.22,8.8-13.84,4.11-2.15,8.46-4.77,12.41-6.08a20.76,20.76,0,0,1,16.54,1.26,75.94,75.94,0,0,1,17.28,12.56c2.71,2.67,3.05,5.5,2.93,8.84-.06,1.58-.23,4.13.6,4.61,4.81,2.79,3.07,9.19,7,12.17,4.86,3.68-.33,10.37,3.65,13.35,4.44,3.31,2.54,9.16,6.82,12.38,4.83,3.64-1.38,11.8,5.38,15.16,1,6.23,6.64,10.56,7.06,17.05,6,2.65,2.82,11.17,8.82,13.81-.57,6.66,2.3,12.13,5.46,17.73,3.06,5.43,7.32,10.78,5.13,17.83,3.28,2.65,5.76,5.71,5.3,10.29,4.95,2.49,3.28,9.11,7.13,11.95,5.54,4.09-.44,11.35,5.13,15.5,4.71,3.52,2.13,9.23,2.23,13.91.09,4,2.58,6,5,7.93,4.21,3.42,6.14,7.44,5.19,12.81-.14.81-.27,2.29,0,2.4,8.39,3.28,2.08,12.67,7.1,17.05,2.83,2.47,2,6.09,3.59,8.51,3.32,4.9,7.67,8.31,14.5,7.12,4.51-.79,5-.74,1.62-5.48-1.28-1.81-2.12-2.35-.41-3.67a37.2,37.2,0,0,0,3.49-3.5c-9.58-7.89-3.05-18.64-4.93-27.91-.93-4.62-6.33-7.09-5.22-12.94.87-4.63-.25-8.9-3.45-13.57-2.76-4-1.92-11.18-1.17-16.75,1.46-10.9-5.91-19.58-6.56-29.89-.13-2-3.21-3.87-3.44-5.95-.53-4.94.46-10.08-.37-14.93-.63-3.65-3.82-6.83-4.6-10.49-.85-4-.23-8.26-.25-12.41-8.26-3.24-2.1-12.6-7.14-17-2.85-2.47-2-6-3.59-8.52-1.72-2.66-5.2-4.48-4.14-8.27,2.87-10.18-7.9-17.7-5.13-27.92,1.4-5.18-7-7.15-4.91-12.89-5.87-3.68-4.39-12-10-15.83,1.09-6-.86-11.07-5-15.41,2.63-8-5.2-12.92-6.15-20-.28-2.09-4.07-4.53-3.58-5.75,3-7.62-6.52-11.21-5.27-18,.64-3.5-1.15-5.87-3.13-8.74-3-4.35-5.78-9.51-6.49-14.63-.6-4.32,5.43-7.14,5.75-12.53.14-2.37,3-5,4.25-8.1,2-5.11,5.79-10,13-8.74,1.5.26,3.68.25,4.65-.62,12.27-11.07,22.05-.84,32.35,3.79,1.95.88,4.74,4.19,4.32,5.37-2.69,7.52,5.87,11.72,5.06,18-.92,7.06,7,10.62,5.45,18-1.13,5.33,6.34,8.64,5.07,15.41-1,5.13,5.57,8.79,5.19,15.37-.28,4.67,3.58,10.23,6.94,14.26,3.19,3.83,1.62,7.77,2.69,11.48.83,2.88,4.82,5.54,4.52,7.93-1,8,4.79,13.21,7.11,19.71,1.13,3.14,3.57,4.78-.28,7.21-1.88,1.18-1.39,2,.41,3.6,4.85,4.39,10.43,8.62,8.05,16.59,2.68,3.83,5.08,7.73,6.26,12.41.54,2.15,3.25,3.84,3.55,5.94.59,4.08-1.43,9.48.56,12.18,2.9,4,3.24,9.39,6.57,12.21,3.65,3.1,2.89,7.28,4.8,10.7,4.12,7.37,10.24,14.32,8.4,24-.36,1.9,1.26,4.45,2.53,6.32,2.63,3.87,10.8,6.5,2.3,12.4,1.88,2.5,5.08,3.82,5.13,7.92.05,4.69,6.68,7.17,4.88,12.92-1.53,4.87,5,6.68,4.72,10.38-.41,5.53,6.47,7.24,5.48,13-.38,2.17,2.63,3.59,5.43,3.26,8.92-1.05,16.62-4.5,22.91-11.05,1.38-1.44,1.35-2.35-.72-3.6-.7-.42-1.65-1.1-1.71-1.74-.51-4.83-1.69-9.81-1-14.48.84-5.35-3.15-8.3-4.27-12.55,5.42-3.41,1.82-5.62-.52-9-2.18-3.12,1.28-8.05-2-11.61-1.58-1.74-3.8-2.9-3.56-6.06.38-5,.11-10,.1-15s-6.93-7.06-5.05-12.92c2-6.15-7.13-8.58-5.19-15.46,1.26-4.46,1.2-9.7-3.8-13.38-1.31-1-.55-4.58-1-6.95-1-5.44,2.49-11.46-2.67-16.39-5-4.73-.89-11.12-2.45-16.45-.84-2.88-4.37-5.22-4.59-8-.4-5.07-7.39-7-5.28-12.9,2.31-6.44-7.44-8.77-5.38-15.22-5.17-3.08-4.39-8.13-4.78-13.06-.17-2-4-4-3.79-5.72.84-6.39-7.27-8.88-6-15.13-4.92-4.07-5.83-9.45-5-15.4-5.57-3-5.41-9.49-8.29-14.12-3.85-6.2-1.61-14.23-1.25-21.5,8.44-5.72,11.85-18.92,25.4-17.07a2.67,2.67,0,0,0,2.18-.62c4.8-7,12.76-5.7,18-3.79,6.3,2.29,11.56,7.86,14.17,15.45,1.76,5.14,4.56,9.56,5.25,15.44.44,3.83,3.34,8.83,6.11,12.17,3.64,4.4,2.82,11.14,8.33,14.14-1.26,10.38,5.77,17.53,9.92,25.85s6.18,18,11.92,24.83c5.15,6.09-.59,15.63,8.12,19.29-1.07,8.05,9.31,9.64,9.72,15.85.92,14.06,10.65,24,15.34,36.18,4.41,11.5,11,22,16.15,33.23,1.67,3.66,3.23,6.82,4,10.91,1.38,7.93,10.73,21.43,17,25.23,1.5.91,4.83.21,6.57-.9,8.52-5.44,17.92-9,26.92-13.45,6.44-3.16,9.92-7.46,9.37-15.15-.58-8.28-1.09-16.78.16-24.91,1.13-7.33-6.2-11-5.46-18,.7-6.52-.07-13.2-.19-19.8-7.86-6.42-3.57-15.27-4.6-23.05-.72-5.45,1.76-11.35-4-16-1.74-1.4-.61-6.17-1.06-9.36-1-7,2.41-14.49-4.15-20.93-2.13-2.09-.2-7.95-.9-11.94-1.65-9.32,4.55-20-4.7-28-.07-5.8-.18-11.59-.2-17.39,0-10,0-20-.08-29.95,0-1.46-.53-3.49-1.55-4.25-3.69-2.72-2.52-4.31,0-7.37,1.72-2.09,1.84-6.15,1.5-9.2-1.18-10.46-1.43-10.49,1.12-12.93,7.54-7.21,14.23-15.21,24.26-19.73,4.71-2.12,7.44-2.16,10.4,1.48,2.67,3.29,6.2,1.56,9.28,1.61s4.44,1.48,5,4.09c1.1,5.41-2.44,11.43,2.75,16.38,4.93,4.7.12,11.59,2.59,16.32,2.27,4.34,5.76,7.27-.17,11,8.64,7.15,4.48,16.9,4.54,25.46,0,6.15,7.31,8.57,5.57,15.47-1.38,5.48-.28,11.58-.28,17.4,8.84,9.87,4.24,21.85,4.75,32.89.25,5.34,6.5,7.13,5.42,12.94-.89,4.82-1.65,10.61.22,14.76,2,4.34,5.83,7.25-.22,10.94,8.6,7.17,4.51,16.92,4.48,25.47,0,5.64,6.14,7.43,5.47,12.93-.48,4-.43,8.38.91,12,1,2.63,4.76,6.3,6.71,6,2.67-.44,5-4,7-6.67.8-1.08.21-3.22.21-4.87,0-16.64-.3-33.29.18-49.92.15-4.94-3.62-7-4.88-10.52-1.32-3.69-.29-8.22-.29-12.38,0-5.82.57-11.72-.13-17.46-1.25-10.17,4.51-21.54-4.87-30.4,0-12.48-.11-25,.06-37.44.06-4.27-1.79-7.35-3.62-11-2-4.12-5.61-7.95-6.17-12.32-.94-7.36-.39-14.94-.12-22.42,0-1.19,2-3.4,2.84-3.29,6.29.87,8.16-4.8,11.94-7.58,1.26-.92,2.75-2.62,3.9-2.44,8.74,1.38,18.18-3.51,26.33,2.61s3.63,15.21,4.78,23c.8,5.41-2,11.38,3.84,16.07,1.75,1.4,1.08,6.12,1.12,9.32.13,9.15-.13,18.31.11,27.46.16,6.3,7.24,10.37,5.21,18-1.45,5.44-.18,11.58-.31,17.4s6.82,8.7,5.28,15.47c-1.26,5.54-.26,11.59-.26,17.41,7.84,6.29,4.41,15.08,4.88,22.9.31,5,6.82,7,5.3,12.95-1,3.91-.6,8.34,0,12.41.3,2.12,2.1,4.21,3.65,5.91a148.88,148.88,0,0,0,10.58,10.59c3.86,3.46,6.28,7,5.79,12.72-.44,5.07-.35,9.65-5.13,13-3.42,2.37-5.58,5.46-5.21,10.34.55,7.45.14,15,.14,22.46,9.69,14.23,4.25,30.24,4.5,45.37.11,7.16,7.19,10.65,5.71,17.94-1.13,5.59-.22,11.6-.22,17.42,9,9.84,2.26,22.28,5.41,32.76,2.55,8.5,5.11,16.54,4.66,25.52-.41,8.3-.21,16.64,0,25,.11,5.57,6.74,8.69,5.21,15.46-1.26,5.54-.26,11.59-.26,17.42s.1,11.65,0,17.47c-.11,5,6.44,6.94,5.26,13-1.1,5.6-.24,11.6-.24,17.42,0,5-.67,10.11.19,15,.93,5.25,6,9,5,15.47s-.22,13.28-.22,19.94c0,5.82-.07,11.65,0,17.47.07,4.8-.91,9.57,3.84,13.56,1.75,1.48,1.08,6.13,1.09,9.34q.11,36.19,0,72.39c0,4.9-.67,9.78,4.23,13.38,1,.71.67,5-.53,6.41a152.23,152.23,0,0,1-15.87,15.85c-2,1.73-7.18-.2-7.59,4-.38,3.78-1.81,8.26,2.14,11.5,4.7,3.86,2,9.2,2.62,13.87.72,5.49,5.8,11,10.66,11.21a67.82,67.82,0,0,0,10,0c4.71-.53,10.81,2.56,13.74-2.34,1.84-3.08.81-8.07.53-12.17-.35-5.22,6.65-6.93,5.29-13-1.08-4.75-.22-9.93-.22-14.93s-.58-10.07.12-15c1.45-10.15-4.54-21.33,4.64-30.63,1.66-1.69.23-6.43.23-9.75,0-18.31,0-36.62,0-54.92,0-7.16-1.68-14.82,5-20.4V678.71c-8.37-10.84-4.66-23.49-4.73-35.37,0-8-1.84-14.13-8.11-19.29-3.62-3-3.28-6,1.17-10.11s8-8.1,6.76-14.77c-.52-2.84,1.82-3.57,4.26-4.68,5.6-2.54,11.94-4.17,16.41-8.4s8.36-7.38,14.91-6.54a75.53,75.53,0,0,0,15,.05c7.77-.57,14.39.69,19.54,7.47,1.6,2.12,7.32,1.87,8,3.8,1.92,5.58,5.22,8.12,10.42,10.62,3,1.42.84,10.25,8.71,8.14,3.81,3.14,2.38,9.12,7,12.12,3.41,2.22,5.81,5.93,9,8.62,2.4,2.06,2.12,4.78,1.48,6.82-3,9.53,7.41,15.71,5.49,25.5-1.72,8.82-.36,18.24-.36,27.39ZM398,892.2a17.47,17.47,0,0,0-2.41-2.84,1.49,1.49,0,0,0-2.11,2.11,10.08,10.08,0,0,0,2.94,2.27c.19.1,1-1,69.45-74.36a68.33,68.33,0,0,0-7.44.07c-1.47.16-4.13,1.19-4.09,1.59,1,9.27-8.84,7.27-12.21,12-5.27,7.32-15.41,8.23-21,15.63-1.4,1.88-5.8.88-8.35,3.56-3.19,3.36-9.5,2.08-11.87,7.12-2.75,5.86-10.71,3.56-13.72,8.77-3.12,5.39-10.22,4.72-13.5,9-1.52,2,.38,7.29-4.19,7.07-6.3-.31-11.08,1.41-14.83,6.4-1,1.31-2.58,3.53-3.44,3.34-5.73-1.3-7.77,5.72-12.76,5.37-3.16-.23-4.63,1.38-4.93,4-.43,3.64.72,6.37,5.23,6.13.83-.05,11-.4,13.22,0,11.25,2.33,18.95-3.26,25-11.45,2.88-3.9,7.58-2.4,10.35-5.19a91.4,91.4,0,0,1,8.06-7.35c2.77-2.18,7.7-1.77,9.93-5.61,1.93-3.31,3.48-6.83,5.36-10.17.23-.4,1.52-.33,2.3-.27,4.45.31,5.46-2.33,5.4-6.06a5.22,5.22,0,0,1,.7-2.17c1.14-2.35,2-2.09,3.61-.13,1.07,1.31,3.71,5.31,4.87,1.25,1.91-6.7,4.05-11.21,11.75-13.26,6-1.59,4.23-11.79,11.05-14.05,2.23-.73,4.81-.59,7.22-.52,4.06.12,5.72-1.65,5.78-5.73.06-4.75,3.77-4.14,7-4.45.81-.07,1.61-1.94,2.07-3.12.12-.31-1-1.53-1.66-1.63C469.22,819.22,467.54,819.39,398,892.2ZM797.94,768.37c0,10,0,19.94,0,29.9,0,3.68-1.25,5.09-5.23,6.43-7.34,2.47-14.84,5.58-19.8,12.26-1.33,1.79-2.53,2.47-3.52,1.31-6.7-7.91-15.55-2.92-23.35-3.71-7.13-.71-11.42,3.54-13,11.09-.49,2.33.27,5.75-1.08,6.93-5.58,4.88-7.48,12.72-12.49,17.14-8.13,7.18-10.74,18.08-19.06,24.72-4,3.19-3.19,8.14-2,11.36,1.55,4.21,4.83,8.72,10.63,8.43,5.48-.27,11.79,2.17,15.71-4.15,10.43.31,18.86-8.43,30-6,6.35,1.37,13.24.25,19.89.25,9.79-9.16,21.86-3.47,32.82-4.93,3.27-.43,6.64,0,10-.08,4.21,0,5.4-1.32,5.43-6,.05-8.31,0-16.61,0-24.92,0-9.14-.79-18.36.23-27.39,1-8.54-3.25-15.32-4.94-22.94-1.4-6.33-.19-13.23-.31-19.87-.13-7.27-3.43-12.15-12.89-19.11-2-1.43-2.25-2.3-.64-3.58,6.42-5.11,2.41-12.28,3.57-18.44-7.74-5.3-4.95-13.35-4.79-20.36.12-5-2.91-7.31-5.7-10.19-.58-.59-1.09-1.44-1.79-1.66-.42-.12-1.56.68-1.67,1.21-1.84,8.87-1.39,17.78-.27,26.68,6.3,3.91,4,10.21,4.17,15.7C798.13,755.07,797.94,761.72,797.94,768.37ZM232,664.38c2.69-.69,7.86,2.45,10.42-1.45,4.08-6.23,11.44-.55,15.36-5.15,5.42-6.36,12.42-2.37,18.61-3,5-.48,7.6-1.46,7.31-6.95-.06-1,2-3.19,3-3.11,7.28.64,9.14-6.19,13.55-9.43,2.33-1.72,1.52-1.73-.35-7-3.08-8.73-10.29-16.08-10.88-25.15-.44-6.79-6.33-10.57-6-17.8.22-5.38-4.17-11.41-7.79-16.36-3.82-5.22,1.86-13.91-6.61-17.16-.18-7.13-7.83-12.31-5.08-20.32,1.23-3.59-1.36-6.07-3.9-8.27-1.25-1.07-2.36-2.3-3.53-3.46-.82,1.32-2.32,2.61-2.36,4-.24,7.45,2.06,15.89-.73,22.08a49.92,49.92,0,0,0-4.53,18.08c-.47,7.07,2.36,14.42-2.6,21.27-4.62,6.39-1.41,14.24-2.29,21.38a3,3,0,0,1-1.3,1.91c-5.51,3.34-4.24,9-3.38,13.37,1.17,6-5.12,7.86-5.4,12.88-.27,4.72,2.61,10.42-1.77,14-4.1,3.37-1.83,9.67-6.84,12.23-1.46.74-1,2.57,1.11,3.35C227.42,664.81,229.21,664.38,232,664.38Zm437.32,99.56a103.16,103.16,0,0,0,21.73,0c4.62-7.12,11.84-3.88,18.07-4.44,3.29-.29,6.66.21,10-.13,2.61-.28,4.54-1.8,3.92-4.93s1.84-7-1.79-9.17c-6.78-4,.72-13.63-7-17.08-.4-4-1.57-8.08-1-11.94,1.27-9.25-6.52-15.92-6.39-25,0-3-6.95-1.38-10.12-5s-5.83-2.2-8.57,2.8c-.73,1.32-.49,3.64-1.48,4.28-10,6.42-12.76,18.52-21,26.28a9.85,9.85,0,0,0-1.2,13.23,18,18,0,0,1,3.78,11C668.46,750.28,666.81,756.89,669.35,763.94Zm-201,224.83c.77-2.14-1.4-4.38-4.33-4.6-5.07-.39-8.9,1.13-13.28,4.35-3.25,2.38-9.92,1.75-14.43.38-7-2.13-8.64,6.37-15.48,5.74-8.33-.76-18.23-4.29-25.26,4.52l-19.82.21c-5.3,8-13.48,3.72-20.41,4.77-1.58.24-3.5-.17-4.7.6a5.69,5.69,0,0,0-2,4c-.1,1.41.55,4,1.37,4.19,6,1.61,11.86,2.23,17.66,5.7,4.28,2.56,11.61,1.63,17.05.22,6.92-1.79,9.25,5.89,15.43,5.46,9.91-.68,19.9-.25,29.85-.13,2.34,0,5.48-.14,6.86,1.21,4.19,4.1,6.57,4.57,6.45-2.17-.08-4.33.73-7.7,4.15-10.82,6.73-6.15,13-12.75,19.37-19.33C467.77,992.07,467.86,990.23,468.34,988.77Zm80.56-79.5v-.37c9.06,0,18.33,1.15,27.11-.41,5.69-1,10.42-6.58,16.07-9,3-1.27,6.27-.78,6.16-5.44-.11-4.86,6.84-7,5-12.87-.67-2.21.06-4.68-2.18-6.6a88.74,88.74,0,0,1-8.79-8.77c-1.48-1.68-1.83-.76-3.66.26-10,5.61-20.17,11.23-30.74,15.73-6.29,2.69-11.53,7.31-19.24,7.88-7.42.54-11.61,7.71-15.38,13.91-1,1.66,1.24,5.61,3.24,5.63C534,909.3,541.44,909.27,548.9,909.27Zm67.71,65.41v-.49c-7.43,0-14.93.64-22.27-.17-8.82-1-14.48,5.25-21.38,8.34-4.22,1.9-6.92,7-10.74,10.09-1.63,1.32-4.41,1.17-6.59,1.9-.7.23-1.79,1.42-1.67,1.64.59,1.15,1.48,3,2.33,3,6.59.25,13.2.22,19.8.12,7.1-.12,14.71,1.68,20.22-5,5,0,10-.72,14.82.18,6.4,1.21,8.67-5.88,15.31-5.76,7.35.13,14.77-4.34,20.18-10.41.48-.53,1.28-1.3,1.15-1.71-.23-.7-1.07-1.7-1.66-1.71C636.28,974.65,626.44,974.68,616.61,974.68ZM428.39,668.29c0,10.65-.14,16.39.06,22.12.1,2.67,1.65,4.28,4.66,4.15,3.28-.14,6.56,0,9.83,0,4.19-.1,5.62-1.66,5.42-5.86-.12-2.39.54-6.09-.69-6.92-4.53-3-3-9.12-6.78-12.07-4.79-3.72-.69-9.41-3.43-13.34-.72-1-2.71-1.64-4.11-1.63s-3.93.9-4,1.64C428.65,661.92,428.44,667.56,428.39,668.29ZM907.92,979.18c2.46,0,5,.4,7.33-.17,1.09-.27,2.11-2.32,2.46-3.73.61-2.5-.28-5.57-2.67-5.89a70.9,70.9,0,0,0-14.71,0c-.93.07-2.08,2.32-2.42,3.73-.61,2.5.24,5.15,2.69,5.93C902.83,979.74,905.47,979.18,907.92,979.18ZM323.53,914.29c-.54-1.37-1.08-2.75-1.61-4.13a18.72,18.72,0,0,0-3.36,1.65,33.76,33.76,0,0,0-3.42,3.35c-.53.54-1,1.13-1.51,1.69,1.26.8,2.47,2.16,3.81,2.3C321.74,919.61,323.27,918.2,323.53,914.29Zm467.64-25.72L793,886.8a15.73,15.73,0,0,0-3.36-1.57c-.41-.09-1.08,1-1.64,1.57ZM1022,726.27l-1.78-1.78a15.69,15.69,0,0,0-1.56,3.36c-.09.41,1,1.08,1.56,1.64ZM575.71,564.69c-.55.55-1.65,1.23-1.56,1.64a15.62,15.62,0,0,0,1.56,3.35c.56-.55,1.65-1.23,1.56-1.64A15.36,15.36,0,0,0,575.71,564.69ZM800.44,444.83c-.56.56-1.66,1.23-1.56,1.65a15.36,15.36,0,0,0,1.56,3.35c.55-.56,1.65-1.23,1.56-1.64A15.69,15.69,0,0,0,800.44,444.83Z"/></svg>