<svg id="Layer_1" data-name="Layer 1" xmlns="http://www.w3.org/2000/svg" viewBox="0 0 1200 1200"><title>BB_Artboard 94</title><path d="M556.13,1107.13c-3.93,3.93-7.74,8-11.9,11.6-.54.46-4.26-1.17-4.3-1.94a153.49,153.49,0,0,1,.08-19.89c.1-1.22,3.24-2.29,5.06-3.27,2.61-1.4,7.1-2.18,7.59-4.06a23.12,23.12,0,0,0-.45-12.88c-.63-1.78-5.4-2.55-8.39-2.94-10.56-1.38-10.69-1.24-10.72-7.9-.07-16.6-1.87-33.48.54-49.74,2.07-14-7.46-24.23-7.76-37.17-.08-4-6.65-7.78-10.25-11.66-11.55,4.15-19.34-10.15-30.41-6.49-9,3-12.6-8.6-20.55-6.73-9.34,2.19-14.15-8.17-23.89-7.38-7.55.6-14.26-9.39-23.77-6-11.62-8.81-25.2-13.84-38.17-20.08-3.74-1.8-6.78-5.13-10-7.9-8-6.87-19.29-9.25-25.53-18.56-12,2.65-13.13-14.2-24.4-13.59-2.43.13-5.11-3.44-7.58-5.41-8.42-6.69-13.41-17.77-24.61-20.74-9.58-2.53-12.41-15.18-23.93-14.82-2.28.07-6.11-4-6.8-6.76-3.45-13.73-14.63-21.25-24-29.81-7.4-6.78-10.19-16.09-16.31-23.25-5.74-6.72-13.1-12.1-18.46-19.06-4.3-5.58-6.73-12.63-9.87-19.08-.89-1.83-.91-5.06-2.17-5.57-5.59-2.26-13.75-1.5-11.25-11.55-6.72-3.25-4.92-11.71-9.51-15.91-5-4.54-2.73-12.64-9.23-16.25-6.08-3.37-6-11.25-9.83-15.61-5.07-5.79-3.62-15-11.23-18.78,1.63-9-8.9-13.85-7.33-23.93,1-6.1-7.7-11.9-6.26-20.44.86-5.07-7.74-7.18-6.51-13.83.79-4.28,2-11.1-.17-12.87-10.35-8.48-1.92-22.08-8.41-29.81-7.84-9.34-1.92-19.17-4.77-28.12C98.19,521.06,92.35,514.61,94,505c1.43-8.62.3-17.66.3-26.52V451.93l0-26.56c9.39-5.95,6.35-15.4,6.57-23.83.23-8.86-.27-17.73.16-26.57.3-6.28,8.3-9.42,6.81-17.23-1.16-6.14-1.41-12.68,4.9-18,2.33-2,1-8.17,1.49-12.43.33-3.17-.36-8.05,1.36-9.17,6.19-4.05,3.62-12.38,9.17-16.38,6.42-4.64-1.07-13.72,4.85-17.74,6.16-4.17,3.62-11.79,8.86-16.67,4.06-3.78,5.09-10.9,8.74-16.13,3.41-4.89,4.86-11.21,6.86-17,2.79-8.11,14.75-10.34,13.34-21,9.08-6.41,11.38-17.82,18.52-25.48,12.08-12.95,24.93-25.17,37.46-37.7,11.82.32,17-9.68,22.69-16.75,7.84-9.72,21.43-10.19,28.3-20.74,6.61-10.14,20.55-11,27.93-21,2.8-3.79,9.12-4.29,13.7-6.71,13.58-7.21,28.26-12.37,40.79-21.65,12.57,4.36,21-10.84,33.8-6.92,8.77,2.68,13.4-10,23.9-7,8.18,2.36,17.58.47,26.44.47,16.69-12,35.73-5.5,53.72-6.43,18.77-1,37.65.21,56.45-.42,8.07-.27,11.45,9.46,20.59,7.21,7.31-1.79,15.41-.36,23.16-.36,10.83,10.8,24.56,5.41,37.1,6.7,2,.21,5.09.52,5.75,1.78,4.74,9,15.09,1.25,20.42,7,3.32,3.6,6.82,5.33,11.51,4.4,13.55-2.67,25.66,2.28,35.61,10,8.37,6.47,18-.62,24.68,4.62s14.91,7.3,21.7,12c16.21-3.43,27.7,8,40.86,13.62a209.62,209.62,0,0,1,22,11.1c6.81,3.93,15.48,3.53,23.23,8.07,17.62,10.32,36.68,18.18,55.15,27.06,1.85.89,4.24,1.48,5.34,3,5.3,7.23,13.35,10.06,20.75,14.17,8.24,4.57,11.1,17,23.18,16.28l21.13,21.14,23.49,23.48,21.14,21.14c7,7.05,16.44,12.95,20.58,21.41,5.93,12.16,15.5,20.35,24,29.92,9,10.21,12.87,23.5,18.6,35.48,2.54,5.3,10,9.09,7.28,16.94-2.23,6.46,3.55,9.6,6.58,13.83-5,10.8,5.72,17.58,7.29,27,1.86,11.24,8,21.79,6,33.89,11.42,21.42,5.7,44.58,6.47,67,.81,23.23-.89,46.57.72,69.71.63,9-9.08,12-7.43,20.58,1.23,6.41.24,13.24.24,19.89-11.25,4.37-3,16.61-9.09,22.73a13.24,13.24,0,0,0-4.26,11.62c.21,2.14.56,5.76-.42,6.27-14.36,7.54-12.57,23.84-18.86,35.62-3.22,6-7.48,10.32-11.68,14.95-3.71,4.1-2.81,9.56-6.37,14.22-5.52,7.22-5.91,18.7-18.84,18.18-5.32,6.74-14.23,10.35-16.92,19.39-.59,2-.88,4.19-2,5.79-7.47,10.48-19.32,16.54-25.26,29.38-4.8,10.36-16.21,17.5-23.85,26.75-6.38,7.71-15.69,10.68-23.09,16.5-6.91,5.43-12.3,12.77-19,18.51-8.7,7.42-21.73,7.43-29.64,16.53-7.67-2.72-10.25,7.07-17.12,6.88-6.43-.18-8.07,6.82-12.64,9.5-6.2,3.65-12.84,10.06-18.91,9.65-10.86-.72-16.13,5.35-22.06,11.6-3.87,4.06-10.73.92-14.07,6.8-1,1.82-5.74,2-8.81,2.15-9.53.49-16.47,10.23-26.85,7.4-4.71,10-16.64,2.46-22.72,9.37s-18-.66-22.65,9.41c-7.27.94-15-.84-20.76,6.71-1.65,2.16-8.62,1.28-12.77.26-9.5-2.32-16,4.11-23.94,6.59-6.86,2.15-14.43-1.54-21.57,4.68-3.93,3.42-12.4,2.33-18.77,2.05-10.22-.44-16.58,3.79-19,13.55-1.73,7-6.82,12.21-7.58,20.4-.7,7.6-8,14.78-5.75,23.89,1.63,6.59-7.07,9.08-6.27,13.79,1.07,6.3-13,11.76-.75,18-5.79,4.65-6.72,9.34-.12,14.09-8.42,5-6.18,13.3-6.06,20.69.08,5.17-2,10.75,3,15.37,7,6.5-6.07,9-3.47,15.8,1.85,4.83.36,10.93.36,16.47,0,3.32,1.36,7.76-.27,9.74-4.12,5-6.13,10.79-8.38,16.57-7.43.1-14.87.38-22.28,0-.85,0-2-3.49-2.21-5.44-.37-3.28.18-6.66-.16-10-.68-6.6,1-10.22,8.69-10.25,2.48,0,5.06-3.63,7.41-5.8,5.35-4.93,5.46-7.89.73-13.66a24.82,24.82,0,0,0-2.35-2.35C559.26,1109.94,557.69,1108.54,556.13,1107.13ZM1045,674.73c10.73-2.7,14.29-10.05,13.33-20.41-.19-2.05,0-4.13,33.21-139.68,0-13.27.17-26.53-.07-39.79-.11-6.38-8.44-9.35-6.84-17.2,1.3-6.36.27-13.21.27-19.84s.29-13.28-.14-19.89c-.19-3-1-6.73-3-8.57-4.89-4.55-4-11.52-8.77-16.59-4.51-4.84,1.29-15.34-7.44-19.91,2.09-7.58-5.85-10.67-7.56-16.8-1.89-6.79-4.55-14.18-9.17-19.2s-2.28-13-9-16.37c-7.49-3.73-6.58-13-11.75-18.3-7.72-7.9-15-16.38-23.58-23.28-9.53-7.67-12.19-19.93-20.88-28-7.29-6.76-14.38-13.77-21.08-21.11-7.29-8-18.93-9.31-25.71-18.49-5.85-7.92-13.57-14.55-21.07-21.05-1.54-1.33-6.26-.41-8.65,1-3.37,1.94-2.35,10.55,1.27,10.76,6.16.37,10,3.18,13.65,7.38,11.17,13,26.11,22.44,33.25,39.28,2.8,6.61,9.85,12.09,16.14,16.35,7.84,5.32,5.79,16.05,13.8,21.09,10.32,6.51,14,18.37,19.38,28.41,2,3.66,3.6,7.4,6.47,10.53,10,10.91,13.85,25.19,20.5,37.93s16.34,24.77,13.58,40.9c-.25,1.48,1.93,3.65,3.4,5.09,6.39,6.26-.91,18.08,9.31,22.69.13,8.79.93,17.63.23,26.35-.81,10,11.79,16.31,6.82,27.1,0,36.48.39,73-.25,109.42-.18,10.25,5.21,22.33-6.4,30.41,0,7.74,0,15.47.14,23.21,0,0,2.84.38,3-.06,1.78-3.67,2.87-7.7,4.89-11.21,3.61-6.29,9.26-11.84,11.2-18.53,2-7-.67-15.38,7.32-20.24,0-8.84.26-17.69-.08-26.52-.37-9.76,9.76-16.07,7.18-27.2-2.2-9.43-.46-19.79-33.7,103.76-1,0-2.91-.22-3,0-2.47,9.24-12.56,15.54-10.33,26.57-2.21,1.43-5.48,2.39-6.38,4.41-1.11,2.51-.27,5.88-10.64,15.93-3.91,3.91-7.29,8.71-11.88,11.52-5.68,3.49-2.54,10.29-6.86,14-4,3.44-6.88,8.88-13.58,7.36-2.4,4.44-4.18,9.4-7.34,13.2-4.94,5.93-10.82,11.08-16.3,16.56-6.27,6.27-12.94,12.19-18.67,18.9-5.09,5.95-13.51,4.9-18.94,11.27a40.72,40.72,0,0,1-21,12.66c-8.88,1.94-11.55,9.58-17.84,13.4-1.63,1-4.29.14-6.42.49-3.07.5-7.2.29-8.94,2.17-6.93,7.51-14.35,11.56-25.19,12.2-6.34.38-12.14,7.47-18.48,11-5.34,3-11.29,7.68-16.64,7.26-8.6-.67-13.83,4.7-20.5,7.31-7.76,3-14.44,9.28-23.88,6.62-4.72-1.34-7.78,3.09-11.43,4.25-8.81,2.79-17.52,6.48-26.35,8.42-8.21,1.81-16,2.23-24,6.63-6.77,3.74-17.61-2.93-23.8,6.53-7.65.23-15.31.57-23,.66s-11.65,9.56-20.59,7c-3.64-1.06-10.27-.37-12,2-3.81,5.45-10.63,2.34-14.09,6.76-2.6,3.33-6.82,6.59-7.18,10.19-.67,6.69-1.07,12.28-6.59,17.54-2.92,2.78.31,8,4.08,11.06,3.07,2.52,5,6.89,9.66,1.49,1.69-2,5.66-2.23,8.67-2.76,6.15-1.07,12.49,1.77,18.38-4.18s14.64-1.35,22-2.69c.89-.17,1.75-1.37,2.33-2.28,4.59-7.15,14-1.1,17.6-5.06,6.47-7.08,13.85-4.68,21.07-6,5.93-1.1,11.86-6.7,17.15-5.92,11.87,1.75,19.79-6.5,29.82-8.94,2.87-.7,5.83-5.09,7.84-4.53,8.8,2.44,13.35-6.32,20.6-6.86,6.57-.49,9.32-9.18,17.2-6.9,8.13,2.34,11.74-9.32,20.11-7.38,16.53-12.66,38.85-15.85,53-32.38,6.71,1.45,10.45-3.38,13.29-7.67,4.07-6.15,11.13-5.75,16.49-8.84,7.38-4.26,14.53-8.15,20.64-14.37,6.61-6.73,11.8-15.94,22.94-16.58,4.78-7,14.6-10.13,15.72-20.07.41-3.67,2.28-5.41,6.28-5.72,8.71-.67,14.38-8.13,17-14,6.43-14.66,18.44-23.8,28.9-34.45,8.3-8.45,10.23-21.42,20.86-28.13,1-.63.13-4.22.13-6.43,0-1.11.44-2.65-.12-3.2a3.15,3.15,0,0,0-3.13,0c-2.52,2.15-4.77,4.61,3.25-.09,2.22-1.43,5.49-2.39,6.39-4.41C1045.89,681.1,1045,677.73,1045,674.73ZM479.34,186.58a24,24,0,0,0-3.2-3.79,2,2,0,0,0-2.82,2.81,13.56,13.56,0,0,0,3.92,3c.25.13,1.33-1.28-30.8-5.92,8.08,0,15.81-.33,23.49.15,3.35.21,4.51-.19,3.25-3.43-.37-.94-1.44-2.21-2.27-2.27-9.42-.7-15.72-11.41-26.59-7.87-5.92,1.93-9.52-3.81-14.11-5.53-5.11-1.92-9.09-4.88-13.64-7.1s-10.76-.53-16.26-.54c-7.7,0-15.42-.23-23.11.21-1.31.08-3,2.87-3.55,4.7-.62,2-.16,4.36-.14,6.56,0,4.55.23,8.89,6.69,8.5a71.11,71.11,0,0,1,9.9,0c9.6.81,20.53-3.57,28.55,2.52C428,185.69,437.57,180.88,479.34,186.58ZM669.72,309a5.85,5.85,0,0,0,2.86,0c.14-3.09.51-6.26-.05-9.25-.26-1.34-2.36-2.41-3.79-3.36a4.58,4.58,0,0,0-2,2.1c-1.27,4.06-1.2,7.94,119,163.2,3-15.13-3-30.48-13.3-44.6,1.76-6.5-6.89-8.49-6.43-13.74.62-7.21-7-9.76-7.65-17-.43-5.09-8.08-9.67-12.69-14.3Q722.39,348.64,699,325.34c-5.45-5.44-10.55-11.33-16.57-16-2-1.6-6.43-.43-9.66,0-.32,0-.34,4.17,0,6.3.36,2,.91,4.48,2.3,5.55,6.17,4.78,3.92,14.29,11.45,18.6s6.83,15,13.86,20.72c5.44,4.47,11.6,8.69,12.87,17.8.74,5.28,11.46,9.36,11.88,14.46.67,8.14,10.33,11.61,8.08,20,6.61,3.28,4.82,11.32,9.21,16.06,4.19,4.53,12,7.51,9.9,15.56-2,7.78,7.22,10.88,6.6,17.08-1.5,15,9.6,20.48,19.4,26.78,1.14.74,6.82-2.29,7-4C786.26,477.74,785.74,471.07,669.72,309ZM579.22,701v.28h6.65c14-.09,20.15-5.7,20.34-18.72.06-4.43.86-9.09-.22-13.24-1.26-4.87-5.45-9.12-6.14-14-1.07-7.6.06-15.48-.39-23.21-.37-6.21,2.06-12.6-3.89-18.43s-1.44-14.65-2.69-22c-.52-3-.48-7.38-2.4-8.79-6.76-4.94-9.39-14.83-20.44-15.17-4.06-.12-7.85-5.62-13.67-6.91-4.26-.94-7.9-6.71-13.85-6.36-7.88-9.17-21.76-8.17-29.55-16.62-10.42-11.3-26-13.17-37.45-22.46-1.28-1-6,1.15-8.37,2.88-1.11.82-1.32,4.65-.39,6.15,2.74,4.43,8.33,7.37,6.52,14-.28,1,.39,2.63-.16,3.19a3.19,3.19,0,0,1-3.14,0c-7.32-6.54-14.37-13.37-21.85-19.71-1-.84-4.11.28-6,1.11-2.83,1.26-2.51,2.94.4,4.64,8.83,5.16-.9,17.83,9.24,23,1.62.82,1.88,6.1,1.33,9.06-1.51,8.28,3,14.17,6.74,20.58,2.58,4.41,5.23,9,6.5,13.88,1.07,4.15-.64,9,.44,13.18,1.27,4.86,5.75,9.19,6.06,13.94.46,6.92.93,12.83,7.22,17.13,4.71,3.22,6.32,7.75,6.75,13.87.85,12.12,9.77,19.28,20.41,22,11.42,3,22,6.34,30.49,14.86,2.18,2.19,5,5,7.69,5.16,6.71.29,12.13,1.1,17.73,6.16C566.19,703.29,573.72,701,579.22,701ZM626.3,810.81h-.14c0,22.15,0,44.3.19,66.45,0,.81,4.07,2.4,4.16,2.27,5.44-8.43,13.92-4.85,21.18-5.22,7.58-.38,11.58-9,20.59-7.19,5.87,1.22,14.09,3.58,18.76-1.8,5.61-6.46,14.24-1.4,17.79-4.92,6.56-6.51,13.56-7.21,20.95-5.91,8.56,1.5,11.46-9.84,20.64-7.24,5.89,1.67,12.17.84,17.92-4.8,4.82-4.71,15.47,1.5,20-7.41,11.38-2.21,19.85-13,30.76-13.29,8.57-.26,13.8-5.2,20.29-7.86,7.79-3.19,14.9-7.43,23.68-7.14.75,0,1.63-1.4,2.33-2.25,11.73-14.36,32.94-14.79,44.06-30,11.72,2.15,12.94-15,24.39-13.3,7.2-6.69,14.21-13.6,21.63-20,11.3-9.78,18.89-24,34.74-28.47,2.79-.78,6.59-4.33,6.78-6.85.67-8.69,6.22-14.32,12.28-18,8.41-5.16,9.15-14.27,13.54-21.3A134.32,134.32,0,0,0,1038,633c3.14-10.91,11.08-21.18,7-33.68,11.21-10.77,6-24.61,6.43-37.13.8-21,.8-42.11-.07-63.12-.34-8.22,3.3-16.7-3.62-25.13-6.44-7.84-1.72-19-2.83-28.61-.1-.87-1.35-1.82-2.28-2.33-8.56-4.68-.45-15.06-7-20.37-7.54-6.1-3.84-14.51-3.53-21.63.33-7.43-4.82-11.52-6.77-17.29-3.64-10.76-9.72-20.35-14.17-30.69-4-9.22-8.33-19.73-17.8-25.86-.54-12.65-13.54-17.85-17.18-29.51-2.93-9.4-17.1-13.28-18.06-25.68-7.83-7.83-15.16-16.27-23.66-23.29-6.23-5.14-8.4-12-11.58-18.6-8.85.34-13.07-6.63-18.37-11.77-7.16-6.94-14.81-13.52-21-21.27-7-8.74-19.87-8.46-25.76-18.57-2.78-4.76-10.2-1.26-13.86-6.93-2.65-4.1-6.34-7.91-12.67-9.19-9.21-1.86-13.41-12.21-23.58-15.29-8.23-2.49-18.14-6.65-23.34-15.65-15.4-5.88-29.52-14.34-44.11-21.86-10,5.17-14.71-8-23.85-6.79-7.56,1-15.52,1.49-20.48-6.51-10.81,5-17.17-7.07-27.16-6.94-11.46.14-24.14,4.07-33.79-6.35-7.76,0-15.57.54-23.24-.25-3.49-.36-9.15-5.46-9.68-4.84-8.16,9.47-18.77,3.58-28,4.94-5.43.8-13.15-2.2-16.23.56-12.7,11.33-27.28,4.4-40.83,6-4.49.55-8.07,1-11.59,4.43-6.18,6-18.25-2-22.88,9-.16.4-2.09,0-3.2.06-5.48.14-11.9-1.43-16.17.92-4.68,2.57-8.21,5.87-14.3,6-5.83.15-33.51,15.43-38.39,19.35-3.49,2.81-3.1,7.25-.24,6.58,8-1.87,10.53,8.84,17.21,6.82,8.92-2.69,12.88,7.11,20.57,6.91,3.19-.09,7.6-.71,9.39,1,7.85,7.63,20.34,7.28,27.15,14.32,8.46,8.75,20.86,11.05,28.3,20.66,8.1,10.45,20.59,13.82,32,18.94a11.9,11.9,0,0,1,4.68,4.63c6.6,10.73,18.3,15.25,28.53,19.46,11.3,4.65,20.49,15,34.1,14.07a10.58,10.58,0,0,1,5.86,1.74c5.39,3.37,7.74,10,15.13,11.79,6.8,1.63,13.14,5.73,19.3,9.39,5.35,3.18,7.72,9.83,15.65,10.78,4.41.52,8,6.89,12.25,10.19,4.91,3.79,12,3.28,16.21,9.32,3.61,5.2,2.17,16,13.48,13.83,18,18,36.07,36,54,54.13,1.29,1.3.83,4.2,2,5.75a236.86,236.86,0,0,1,22.23,37.29c4.1,8.34,13.72,13.95,11.12,25.35,11.23,4.92,1.85,19.5,11.74,25.05.46,10.88,1,21.76,1.34,32.65.21,7.75.37,15.53,0,23.26s3.45,9.51,10,8.63c7.84,7.82,15.39,16,23.6,23.38,7.28,6.57,6.86,18.16,16.22,23.43,2.06,1.17,2.93,5.41,3.3,8.37.54,4.36-.34,8.91.23,13.26,1.59,12.11.37,20.88-4.68,25.8-2.23,2.16-5,5.08-7.67,5.22-6.68.35-11.89,1.61-17.76,6-4.31,3.2-12.75.88-19.35.93-7.75.06-15.53-.36-23.24.21-2.82.21-5.95,2.19-8.1,4.24-7,6.68-12.81,16.27-11.63,24.62,1.85,13-11.74,21.34-7.39,33.9-6.28,4.16-7.14,10.22-6.78,17.19.34,6.43-5.72,9.49-9.8,12.19-3.05,2-7.49,2.17-11.26,4.84-5.76,4.06-12.87,6.18-19.36,9.22-14,6.55-14,6.61-23.83,6.63-17.73,0-35.45-.16-53.17.11-5.17.08-14.36-2.46-14.72,3.12C625.47,766.49,626.3,788.67,626.3,810.81ZM240.53,269.49c0-3.32,1.05-7.2-.33-9.79-1.12-2.09-5.12-2.77-7.94-3.76-.73-.26-2.13.4-2.79,1.07q-21.12,21.11-42.13,42.33c-3.55,15.35-14.09,27.4-19.69,41.68-3,7.57-10.86,14.07-6.91,23.73-8.47,6.2-5.12,15.64-7,23.74s-7.76,14.4-6.62,24c1.43,12-.22,24.36.5,36.5.76,12.94-4.6,27,2.73,38.61s1.14,23.64,3.93,35c1.2,4.87,5.05,9.08,6.27,13.95,1.28,5.17.77,10.76,1.28,16.15.09.85,1.38,1.7,2.27,2.33,4.37,3.11,2.38,7.92,3.51,11.88,1.38,4.86,7,10.1,5.92,13.77-3,10.25,8.88,14.94,7.18,24,11.3,4.26,4.05,15.76,8.95,22.94,5.14,7.53,7.72,16.9,12.41,24.61,4.92,8.08,15.11,12.92,12.24,25.15-.42,1.82,3.88,4.86,6.16,7.18,6.21,6.32,15.15,11.53,18.08,19.08,3.37,8.7,9.34,14,14.7,20.55,4.73,5.74,12.41,8.82,14,17.44,1.77,9.34,11,13.14,16.72,19.56,8.08,9.09,18.21,16.52,25.4,26.19,7.52,10.12,19.89,12.48,28.11,20.91,3.86,4,7.22,9,11.91,11.42s10.31,2.4,13.52,7.38c7.73-.92,11.86,4.62,15.95,9.48,5.05,6,14.47,4.09,18.74,11.06,9.68-4,16.55,3.47,23.64,7,13.19,6.62,25.28,14,41.22,13.34,10.75-.48,10.82,1.33,10.75-5.46,0-3.33,1.4-8.28-.24-9.69-7.51-6.47-3.71-17.09-8.54-23-4.28-5.26-3.37-12.06-8.6-16.78-4.35-3.92-5.17-10.92-8.69-16.28-3-4.61.75-12.17-5.28-17.87-3-2.85-1-10.42-3-15.1-1.59-3.66-6.45-5.83-5.52-11,1.06-6-2.61-9.72-5.46-14.44-2.47-4.09-1.55-10.66-1-16,.68-7.14-8-9.45-7.36-17.25.4-4.55-6.74-3.27-10.87-3.87-3-.43-6.38-1.44-8.47-3.38Q388,686.52,376.58,674.39c-12.28-13-26.27-21.72-45.07-19.63-1.09.13-2.21,0-3.32,0-5.17.25-6.85-2-8.24-7.27-1.8-6.79-6.22-12.88-9.54-19.26S301,615.51,301,609.17c.07-8.48-4.89-13.77-7.4-20.48-6.47-17.25-19.56-31.81-20.8-51.2-6.67-3.27-4-12-9.4-16-6.42-4.79.69-13.77-4.87-17.76-6-4.31-2.81-12.73-9.12-16.46-1.38-.81-1.9-3.61-2.21-5.59-1.15-7.2,1.17-14.26-4.31-21.69-3.8-5.14-2.3-14.56-2.23-22.06.05-5-3.74-7.62-5-11.27-2-5.91-.55-12.95-2-19.15-1.43-5.88-8.13-9.66-6.57-17.27,1.66-8.15-3.35-17.88,6.13-24.13.61-.41.55-2,.65-3s0-2.22,0-3.32V329.87c0-11.07,1.3-22.35-.37-33.17S243.72,279.87,240.53,269.49ZM612.87,782.34c0-12.14.14-24.28-.18-36.4,0-1.61-3.06-4.72-3.58-4.5-10.9,4.66-17.14-7.9-27.14-7a194.69,194.69,0,0,1-26.46.05c-7.16-.36-9.61,2.5-9.51,9.47,0,1.28-4.87,3.55-7.58,3.7-3.43.19-5.65-2.13-5.48-6.29.07-1.86-.84-4.88-2.18-5.51-10-4.74-23.95,2.7-24.21,12.87-.29,11-.05,22.06-.08,33.09,0,3.86-2.08,5.63-5.89,6s-6.94-1.23-7.2-4.55c-.61-7.68-1.1-15.57,0-23.12,1.53-10.29-3.69-18.29-6.84-27.08-1.18-3.31-2.59-5.58-6.76-5.23a76.8,76.8,0,0,1-13.22,0c-4.22-.36-6.45,1.91-6.5,5.33-.09,6.43-.61,13.35,1.49,19.19,2.38,6.65,10.33,12.21,10.64,18.49.44,9.08,4.74,15.84,7.34,23.66,1.17,3.53,2.09,6.08,5.55,6.44,4.36.47,8.82-.07,13.23.15,9,.44,11.08,4.43,5.33,12.39-3.63,5-6.45,9.45-.77,13.66C512,833.87,516.55,844,519,853.53c2,7.62,3.51,13.91,9.29,19.53,5.18,5,12.91,8.75,12.22,18.2-.06.76,7.11,3.57,8.06,2.61,5.94-6,12.77-7.14,20.69-6.49,6.58.54,13.23.17,19.85.1,9-.11,16.9-7,17-15.23.16-9.93,0-19.86,0-29.79,0-3.31-1.4-7.75.22-9.75C619.12,817.09,610.27,799,612.87,782.34ZM491.25,64c0-.32,0-.64,0-1-13.29,0-26.59.34-39.87-.15-6.07-.22-9.67,3-14.38,5.74-4.17,2.41-10.64.94-16.1,1s-11.31,1-16.56-.22c-7.88-1.87-10.76,6.66-17.24,6.86-5.35.17-10.78-1.07-14.85,4.44-4.47,6.06-12.56-.92-18.1,4.57-3.47,3.45-8.9,5-13.5,7.23-2.75,1.35-5.83,3.88-8.38,3.48-7.89-1.27-12,3.55-16.72,8.21a29.53,29.53,0,0,1-7.75,5.28c-6.43,3.14-13.5,5.23-19.44,9.09-6.11,4-10.39,9.56-18.25,12.32-7.54,2.66-12.81,11.75-19.07,18-11.68-2.54-8.54,9.78-13.74,13.64-5.95,4.41-8.58,12.59-17.63,13.68s-5,12.72-12.26,16.89c-6.49,3.71-11.06,10.71-16.69,16-4.75,4.49-2.65,12.95-9.38,16-8,3.67-6.37,13-11.4,18.72-4.51,5.17-5.66,13.12-9.34,19.21-4.27,7.09-5.34,16-12.13,21.59.1,10.23-3.07,18.85-11.66,25.15-1.45,1.06-2.41,3.57-2.55,5.48-.61,8.44,2.56,17.86-6.75,23.82,0,6.65-1.09,13.53.27,19.88,1.71,7.94-7.37,10.2-7.06,17.25.64,14.3.47,28.64.79,43,0,.8,1.46,1.57,2.25,2.35,1.25-1.41,3.49-2.77,3.58-4.25.39-6.62-.7-13.43.42-19.88,1-5.94,5.08-11.34,6.17-17.27,1.32-7.23-2.13-15.65,6.26-20.72-1.32-9,3.27-16.12,7.18-23.62,8.14-15.6,14.26-32.32,26.58-45.52,1.22-1.31.36-4.57,1.58-5.88,6-6.49,12.15-12.94,18.74-18.84,15.24-13.65,27.13-30.76,46.35-40.38,12.71-6.37,14.32-23.75,26-32.12,19.23-28,19.42-27.74,44.08-44.47,4.91-3.33,11.23-7.28,9.77-15.83-.93-5.38,0-11.05-.23-16.58-.29-6.52,4-6.67,8.59-6.7,3.32,0,6.64.06,10,0,5-.13,8.19,1.17,8.19,7.16,0,6.35,6.12,11.35,9.75,11.95,9.13,1.52,19.8,4.33,26.92-5.94,3.24-4.67,9.38-4.9,13.35-7.54,11.29-7.53,24.2-11.6,35.58-18.77,6-3.78,14.29-4.63,19.22-9.27,8-7.5,16.87-2.06,24.94-4.38,6.79-10.77,19.89-2.14,26.56-7.56,10.22-8.31,20.81-4,31.14-5.56a7.43,7.43,0,0,0,2.89-1c.9-.59,2.2-1.54,2.18-2.31a3.17,3.17,0,0,0-2.18-2.25C522,64,506.62,64,491.25,64Zm8.9,867.56c9.41-8.86-12.31-11-7.51-21.21.06-.13-3.7-3.1-5.11-2.71-8.55,2.37-13.89-7-20.48-6.31-9.64,1-14.88-8.64-23.82-7.27-4.31-11-15.52-4.57-22.89-9-12.19-7.39-25.62-12.9-38.28-19.5-13.7-7.15-29.15-12.08-39.67-24.56-10.79,1.53-12.1-12.08-21.06-13.25-9.91-1.3-13.47-10.42-19.92-15.9a187,187,0,0,1-21.15-21.07c-14-16.37-34.29-27.31-42.35-48.81-14.38-12.94-26.85-27.24-32.85-46.15-15.19-11.1-14.27-33.38-30.38-44-1.11-.73-.74-4.12-.59-6.24.33-4.54-1.17-7.89-3.94-11.75-4.1-5.73-6.79-12.62-9.29-19.31s-7.61-11.93-7.41-20.45c.15-6.47-7.52-12-6.32-20.51.71-5-7.23-7.17-6.58-13.83.71-7.29,2.57-15.66-5.83-20.7-.77-7.42.95-16.75-2.92-21.82-5.62-7.38-3.72-14.42-4.19-21.67-.5-7.71.12-15.5-.33-23.22-.08-1.31-3.2-3.61-4.67-3.43-2.9.34-7.83,1.81-8,3.33-.86,6.5-.3,13.19-.26,19.82,10.7,7,5.3,17.9,6.46,27.18.54,4.31-1.38,10.79.86,12.71,9.49,8.12,6.46,18.69,5.4,27.63-1.86,15.64,10.18,28.39,7.18,43.79-.16.83.6,1.95,1.16,2.79,6.37,9.62,13.54,18.91,12.06,31.53,8.36,9.47,11,22.14,18.23,32.34,5.92,8.32,5.84,20,14.24,27.25,7.44,6.4,9.5,16,14,24.08,3.47,6.26,6.32,12.86,9.45,19.31,8.25-.69,11.43,3.68,11.33,11.34,12.71,10.29,16.84,27.37,30.33,37.4,8.78,6.53,15.83,15.4,23.65,23.23,7.05,7,14.82,13.5,20.94,21.28,6.93,8.82,17.09,12.43,25.54,18.72,6,4.51,10.72,12.43,17.27,14.24,6.28,1.73,9.56,7.61,16.94,8,6.89.36,9.84,10.12,17.58,13.12,7.46,2.89,15.19,6.07,22,11.16,5.55,4.14,13.31,5.17,19.63,8.45,7.33,3.82,13.91,11.58,21.27,12.2,9,.76,16.19,3.88,23.63,7.65s14.42,8.51,23.87,6.93c4.86-.82,10.89-2.51,15.4,2.53S499.45,940.1,500.15,931.55ZM412,196c-3.32,0-6.69.35-10-.08-6.77-.89-9.76,4.35-13.08,8.29-1.69,2-2.69,6.8-1.46,8.62,3,4.5,7.83,7.78,11.37,12,3.18,3.78,6.81,4.88,11.52,4.49,4.4-.37,8.85-.1,13.28-.07,6.62,0,13.23.12,19.85.18,4.92,11.2,18.9,2.25,25.31,11.53,2.59,3.74,7.1.28,11.21-1.35,7.67-3,13.56-9.88,22.28-10.29.84,0,1.87,1,2.55,1.71.51.57,1.05,1.9.77,2.24A64.67,64.67,0,0,1,501,238c-2.35,2.35-7.06,5.52-6.59,6.89,1.25,3.6,4.14,7.85,7.48,9.28,10.39,4.46,20.41,9.58,30.33,14.94,7.23,3.9,16.56,5.34,21.57,11.45,5.93,7.22,14.44,9.29,21.51,13A108.49,108.49,0,0,1,593.42,306c5.59,4.58,13.73,5.07,18.45,11.75,3.08,4.36,7.64,10.42,11.85,10.68,9.58.6,13.48,7.7,17.74,13.2,5.16,6.64,13.83,5.55,18.8,11.41,2.77,3.27,5.47,5.92,6.23,10.84.55,3.63,4.45,8.14,8,9.57,4.6,1.88,10.33,1.74,15.47,1.27,3-.28,2.89-2.61.82-4.51-6.29-5.78-5.68-15.71-13.92-21-7.28-4.68-12.74-12.19-19-18.45s-12.68-12.38-18.75-18.82c-6.68-7.1-13-14.5-19.55-21.77.53-12.5-13.22-7.55-18.17-15-6.56-9.9-15.44-20.19-25.79-25.13-10.93-5.23-22.4-10.33-33.23-15.74-9.14-4.57-18.84-8.34-27.52-13.72-3.76-2.33-6.57-5.16-11.46-4.63-7.7.83-14.27-.25-20.92-6.08-3.84-3.36-11.55-.1-17.93-4.78-5.15-3.79-14.54-1.84-22.06-2.35-4.33-.29-10.76,1.3-12.63-1C424.64,195.47,418.49,196,412,196ZM266.38,402.66l1.16.1c0,5.47-1.77,11.86.47,16.15,2.45,4.66,6.22,8,5.94,14.24-.43,9.47-2.37,19.66,6.47,27.06-.07,6.48-1.23,13.33,5.76,17.49-.35,8.83,7,12.71,11.62,18.41,3.91,4.79,3.26,12,9.3,16.14,5.54,3.83,11,4.31,13.11-1.29,3.28-8.7,5.4-18,12.42-24.64,4.9-4.66,9-9.06,7.8-16.78-.87-5.39,1.93-12.43-.63-16.23-4.48-6.66-7.44-12.81-6.19-20.75-7.34-5.15-7.62-12.71-6.58-20.43,1.21-9-9.7-14.24-6.8-23.79,2.23-7.34-1.72-12.59-7.26-16.8-9.63-7.35-13.7-18.42-19.2-28.51-1-1.77-.7-4.47-2-5.7s-4.25-2.16-5.77-1.52c-6,2.51-11.6,6.07-12.14,13.39-.48,6.59-.16,13.24-.08,19.87.07,5.44-.73,9.88-4.3,14.94C266.21,388.64,267.24,396.32,266.38,402.66ZM619.51,651.39c0,11-.16,22,.22,32.92,0,1.29,2.95,3.43,4.62,3.53,4.22.24,9.45,1,12.61-1,20.89-13.43,46.15-20,62.13-41.35,8-10.64,9-17.57-2.43-22.77-8.33-3.78-16.25-8.39-24.68-11.93-.94-.39-1.48-2-2.37-2.19-5.14-.92-12.43.25-15-2.74-4.23-4.83-11.19-1.94-13.89-6.63-3.31-5.73-10.48-2.23-13.74-6.86-4-5.68-6.31-1.63-9.4,1.13-6.89,6.14-6.07,13-2.49,20.25,1.36,2.74,4.11,5.29,4.26,8C619.83,631.61,619.51,641.51,619.51,651.39Zm-159.64-7.33c.05-7.58,1.26-13-4.25-17-4.43-3.19-1.32-10.15-6.75-13.95-2.37-1.66-1-8-2.37-11.94-1.63-4.78-5.09-9-6.32-13.85-1.77-7,1.29-14.11-4.88-21.37-4.71-5.54-2.1-15.73-8.27-22.88-4.42-5.11-5.56-13-8.7-19.35-.62-1.25-3.77-1.89-5.65-1.72s-5,1.47-5.2,2.72c-.8,4.21-.27,8.67-.91,12.93-.2,1.28-2.49,2.37-4,3.2-.28.15-2-1.31-2.19-2.22-1.4-6,1.95-12.66-4.5-18.1-5.66-4.77-1.15-12.44-2.47-18.66-.42-1.95-1-4.27-2.38-5.54-3-2.87-6.28-6.4-10-7.4s-9.66-.67-12,1.69-3.15,8.61-1.76,12c3.46,8.46,8.37,16.37,13,24.31,5.24,9,4.79,19.89,10.36,28.76,1.57,2.51,1.22,6.38,3,8.56a133.08,133.08,0,0,0,15.81,16.55c8,6.83,12.69,14.57,10.65,25.38-1,5,2.59,7.7,5.39,11,3.16,3.73,7.59,3.29,11.21,5,6,2.73,1.45,10.25,3.66,14.64s6.83,8,10.89,11.29C454,650.35,459.81,646,459.87,644.06ZM640.24,550.9c10.88,19.48,33.89,25.29,47.25,42,1.07,1.34,3.81,2.09,5.68,1.93,11.89-1,20.64,9.33,33.68,7.34,16.23-2.46,16.11-1,28-12.66,7.86-7.69,4.57-16.8,3.42-24.57-.85-5.79-9.41-2.61-14.56-3.21s-12.63,1-15.51-1.86c-6.07-6.08-8.57-2.41-12.1,1.61-3.93-3.46-7.2-7.29-13.69-6.65-8.73.87-17.79-.92-26.36.52-9.56,1.61-16-4.2-23.82-6.65C648.74,547.6,643.5,546.53,640.24,550.9Zm52.9-127.75c-1.07-2.18-1.89-5.4-3.86-7.58-5.18-5.76-10.86-11.06-16.35-16.54-4.7-4.7-10-8.93-13.93-14.22-4.81-6.57-12.61-7.6-18.41-11.85-13.81-10.12-22.35-25.89-39.41-33.34-10.1-4.41-15.8-17.4-28.08-20.49-6.53-10.64-21.2-10.41-28.05-21-1.24-1.9-5.78-1.63-8.79-2.42s-6.33-1-8.88-2.56c-5.37-3.25-7.56-10.75-15.52-10.86-5.33-.07-7.35-8.43-13.85-6.49-7.55,2.26-11.18-5.35-17.22-6.56-3.2-.64-6.63-.23-9.94,0-.91.06-2.52,1.1-2.49,1.61.09,1.59,1,4.54,1.27,4.51,9-1.1,14.17,9.83,23.83,7.42,2.12-.53,5.08,3.28,7.92,4.44,5.83,2.39,11.45,4.36,16.27,9.23,5,5,13.31,7,17.83,12.26,6.59,7.71,18.57,6.58,23.44,16.17,5.31,10.44,19.56,9.24,25.3,18.88,3.82,6.43,11.53,4.24,16.36,9.13,12,12.2,24,24.2,38.9,33.79,14.58,9.36,25.51,24.37,38,36.91a56.05,56.05,0,0,0,4.75,4.63,4.22,4.22,0,0,0,3.07.46,24.64,24.64,0,0,0,5.83-1.93C691.92,426.36,692.18,425,693.14,423.15ZM802.75,608.24c7.64,0,15.29-.09,22.93,0,6.63.1,9.92-5.56,12-9.55s2.06-12.6-.61-14.76c-10.29-8.31-11.84-22.57-22.61-30.36-5.68-4.1-7.48-4.45-11.77,1-7.06,8.92-7.93,20.85-15.68,29.71-4.36,5-5.41,12.89-7.95,19.48C785.65,612.22,795,606.25,802.75,608.24ZM532.11,419.71c-.13-.78,0-2-.44-2.26-7.08-3.59-3-18.25-15.89-16-6.14-5.74-11-12.94-20.55-14.48-2.09-.34-3.17-7-4.72-10.79-14.22,2.5-21.06-8.34-29.66-16.2-2.19-2-5.61-4.54-8-4.12-9.28,1.63-13.77-4.59-19.29-9.79a15.74,15.74,0,0,0-8.31-3.55c-1.56-.22-3.46,2-5.2,3.08,6.63,3.26,5.3,11.21,9.35,15.9,3.59,4.15,7.85,7.73,11.58,11.76s10.27,1.15,13.86,6.82c7,11.16,19.48,15.71,30.38,22,2.63,1.52,5.81,2.14,8.29,3.83,5.13,3.49,7.71,11.81,15.86,9.38,7.89-2.36,10.41,7.33,17.09,6.69C528.41,421.79,530.24,420.51,532.11,419.71ZM386.8,587.27c0-2.21.86-4.95-.13-6.52-7.24-11.43-7.81-25.47-14.58-36.94-5.81-9.86-13.23-18.89-12.1-31.47.1-1.14-3-3.72-4.46-3.59-2.93.27-8.08,1.8-8.16,3.06-.27,4.66-1.34,8.17-5,11.37-3.94,3.48-2.18,9.67-6.62,14-2.79,2.72-3.53,11.74-1.16,14.79,7.39,9.48,15.66,19.09,25.61,25.53,8,5.17,16.07,9.86,22.72,16.77a3,3,0,0,0,2.18-1.08A51.23,51.23,0,0,0,386.8,587.27ZM662.49,714.62c6.56,0,13.37-1.1,19.64.28,7.89,1.73,10.45-7,17-6.94,5.48,0,12.75,2.2,16-.49,5.13-4.24,13.89-4.16,15.74-8.73,2.57-6.31,1.93-14.81.18-21.74-2.2-8.76-17.81-12.14-24.44-6.25-6.41,5.71-11.85,13.52-19.3,16.85-14.79,6.6-28.1,16.41-44.05,20.52-1.21.31-2.11,2.66-2.66,4.23-.16.44,1.38,2.14,2.18,2.17C649.35,714.7,655.92,714.62,662.49,714.62ZM592.92,924.87c0-5.31.07-8.6,0-11.89-.11-3.85-7.08-8.12-9.32-5.36-5.78,7.14-22.78,5.5-17.34,21.57.24.71-.59,1.94-1.19,2.72s-1.68,1.89-2.25,1.74a3.82,3.82,0,0,1-2.29-2.21c-1-2.91-.72-6.86-2.61-8.63s-6.38-2.45-8.53-1.32c-3.83,2-4.62,16.44-1.2,17.23,9.05,2.07,14.18,8.73,20.67,14,1.74,1.42,6.94,1.27,8.54-.26C585.78,944.46,597.61,937.84,592.92,924.87Zm-12.73-389.2c-1.29-2.15-3.3-7-4.27-6.85-8.58,1.75-11.89-7.82-20.15-8.38-6.28-.42-8.71-11.09-17.84-12.54-5.28-.84-12-4.44-16.09-8.13-5.75-5.14-14.91-3.49-19.05-11-.36-.67-6.7.47-8.28,2.39-1.42,1.74-1.18,6.36.17,8.58,5.24,8.59,15.48,10.44,23.48,14.95,7,3.91,14,8.38,21.9,10.8a43.22,43.22,0,0,1,20.71,13.93c4.28,5.07,10.34,1.49,15.54,2.09C577.21,541.59,578.51,538.28,580.19,535.67Zm41.19-40.46c-1.75.1-7.16.31-12.55.81-.84.08-1.94,1.35-2.2,2.28-.16.56.93,1.66,1.67,2.27,3.26,2.69,7,7.87,9.84,7.47,10.64-1.46,17,8,26.33,8.8,5.36,10.2,19.87-.44,25.37,11.4,1.5,3.24,9.08-.47,9.52-5,.86-8.79-4.58-20.54-10.87-21.22-9.39-1-18.86,1.21-27.34-6.4C638.1,492.91,630.54,495.21,621.38,495.21ZM380.19,439.34c-.24-1.11-1.13-5.2-2-9.29-13.37-1.55-18.68-13.73-27.68-21-1.19,1.56-3.38,3.1-3.4,4.66-.06,6.47.53,12.95.88,19.42,8.38,5.2,5,13.58,5.58,20.85s2.24,8.54,10.49,8C374.54,461.3,380,454.71,380.19,439.34Zm342.1,35.77c-2.91,3.06-6.36,5.86-8.72,9.39-2,3-8.49,3.65-5.73,9a18.21,18.21,0,0,0,6.82,6.87c8.68,5.08,19.21,6.19,27.13,13.45,2.46,2.24,8.16,1.33,12.34,1.12A6.81,6.81,0,0,0,759,511.6c.84-1.77,1-4.74,0-6.31-1.66-2.7-4.05-6-6.79-6.81C739.19,494.56,731.85,483.82,722.29,475.11ZM345.19,235.89c6.57,1.24,9-4.77,13.09-8,2.21-1.73,2.1-4.37-.83-4.5-8.13-.35-11.75-3.35-10.75-11.92.31-2.73-1.08-7.29-3.08-8.32-4.21-2.17-7.63,1-11.35,3.77-6.63,5-6,11.62-5,17.84C328.14,230.84,338.12,236.28,345.19,235.89ZM381.64,630c-.5.88-1.4,1.76-1.4,2.65,0,2.07-.37,4.9.78,6.1,7.52,7.74,15.3,15.27,23.32,22.49,1.1,1,4.27.32,6.16-.42,2.87-1.12,2.94-2.79,1.17-4.53-9.3-9.17-18.48-18.45-27.8-27.59C383.71,628.57,382.41,629.57,381.64,630Zm-54.9-460.62c-9-.2-14.25,2-18.5,9.07-1.28,2.14-.82,5.91,0,8.56,1,3.32,7.56,3.33,10.82.21,3.85-3.69,7.66-7.43,11.27-11.35,1-1.14,1.34-3,2-4.47Zm405.8,277.42c0-2.14.17-4.3,0-6.42-.42-4.36-6.2-7.45-9.66-5-2.56,1.84-4.48,4.56-7,6.53-3.24,2.55-2.58,4.56.18,6.88,2.42,2,4.46,4.56,7,6.39,2.86,2.06,9.08-1.51,9.45-5.2A31.24,31.24,0,0,0,732.54,446.83Zm-465.42-201a12.56,12.56,0,0,0,.05,3.19c.53,1.89,1.35,3.7,2,5.55l4.53-2.05c7.69-3.44,4.86-13.53,11.17-17.74,2.69-1.8,2.88-3.27-.2-4.5-1.84-.74-4.5-1.68-5.87-.91C272.47,233,266.24,237,267.12,245.87Zm149.54,29.92a12.27,12.27,0,0,0,3.21-.05c1.9-.52,3.73-1.34,5.59-2-.69-1.52-1.1-3.29-2.15-4.5-2.1-2.4-4.28-4.95-7-6.53-1.58-.94-5.21-1-6.11.06a15.71,15.71,0,0,0-3.26,8.15c-.15,1.51,1.74,4,3.32,4.72C412.06,276.43,414.51,275.79,416.66,275.79ZM284.52,290.37c1.64-6.86,10.66-8,9.09-16.08-.35-1.81-2-3.37-3.11-5-3.68,4.69-11,7-10,14.7C280.78,285.73,282.57,287.32,284.52,290.37Zm176.38,400,2.37,4.28c.73-.74,2.2-1.63,2.07-2.18a20.3,20.3,0,0,0-2.08-4.47Z"/><path d="M493.19,584.23a58.09,58.09,0,0,1-.09,6.8c-.11.89-1.25,2.39-1.78,2.33a8.46,8.46,0,0,1-4.52-1.61c-3.93-3.5-8.21-6.7-7.05-13.27.74-4.17,0-8.59.22-12.89,0-.84,1.25-2.37,1.78-2.31a12.68,12.68,0,0,1,4.57,1.57C494.52,569.34,493.55,577.08,493.19,584.23Z"/><path d="M519.59,655.18c-.51,1.34-1.21,3.18-1.92,5-1.51-.7-3.09-1.29-4.53-2.12-7.91-4.63-7.19-12.27-6.47-19.69.09-1,3.58-2.74,4.06-2.35C516.64,640.76,522.29,645.8,519.59,655.18Z"/><path d="M479.89,549.43l-2.76,5.05c-1.3-2.18-3.53-4.33-3.6-6.55-.06-1.86-3.37-7,2.77-6,1.4.22,2.57,2.77,3.51,4.44C480.25,547.16,479.89,548.4,479.89,549.43Z"/><path d="M525.47,770.17c-.77,1.4-1.57,2.84-2.36,4.29-.74-.74-2.21-1.64-2.08-2.19a20.44,20.44,0,0,1,2.08-4.46Z"/></svg>