<svg id="Layer_1" data-name="Layer 1" xmlns="http://www.w3.org/2000/svg" viewBox="0 0 1200 1200"><title>BB_Artboard 75</title><path d="M295.34,880.83c0,4.86-1.11,9.83.28,14.55,1.72,5.81-8.43,9.15-6.71,15,1.39,4.72.28,9.69.28,14.55v16.4c0,4.86.85,9.79-.22,14.57-1.26,5.62-7.42,10.5-6.22,16.75,1.27,6.6.29,13.35.29,20v36.45c0,3.55.35,6.8-4.83,9.89-2.35,1.41-1.4,5.74.18,8.28,5.46,8.81,5.81,8.73.87,16.15-1.05,1.57-2.18,3.25-2.26,4.89-.29,5.46.6,11-.36,16.39-.65,3.71,5.39,9.51-4.51,10.78-8.06,1-19.7-7.74-19.82-13.26-.09-3.65.36-7.31-.11-10.93-.59-4.56,3.43-9.83-5.21-13.29l.48-15.87c6.77-2.35,4.76-6.28,4.77-9.75.1-24.9-.45-49.82.38-74.72.22-6.78-5.58-14.39,5.42-20.57,2.06-1.16.39-4.66.4-7.08,0-15.8-.72-31.61.32-47.38.48-7.41-6.18-15.76,5.83-22.19V844c0-5.47-.09-10.94,0-16.4.11-5.23-1.79-10.66,5.9-15,1.53-.88.22-3.51.22-5.33,0-10.94-.24-21.88.13-32.81.13-4-2.65-8.31,4.56-11.74,2.16-1,1.38-4.46,1.41-6.8.12-10.93-.93-21.91.33-32.79,1.21-10.45-5.87-21.45,5.6-31.42,1.91-1.65.27-4.75.27-7.18q0-90.21-.05-180.43c0-4.06,2.06-8.52-5.52-11.47-1-.39-.49-2.24-.56-3.42s0-2.43,0-3.65V461.86c0-4.25-1-8.62.28-12.72,1.4-4.37-6.43-5.85-6.43-9.46,0-10.33.87-20.69-.29-31-.84-7.43,6.14-15.77-5.86-22.2V375.58c0-4.86-1.27-9.88.33-14.54,1.87-5.41-5.2-8.7-6.23-13.13-1.1-4.77-.25-9.7-.25-14.56V318.77c-11.63-9.77-4.07-20.87-6-31.31-.67-3.52.72-7.09-5.27-9.77-1.59-.71-.94-3.35-1-5.11-.09-6.68-1.57-13.53.39-20s-7.61-10.7-6.74-16.77c.77-5.43.16-10.93.16-16.4-11.83-6.44-5.48-14.79-5.61-22.18-.09-5.13-4.61-8.74-6.37-13.11-1.61-4-.52-8.41-.63-12.64-9.81-3.91-4.42-9.91-5.82-15-.32-1.15.17-3.07-.8-3.36-9.15-2.77-2.13-9.2-8.46-12.65a6.36,6.36,0,0,1-2.94-4.67c-.68-4,1-8-5.53-11.56-3.6-2,2-7.18-4.71-9.63-3.43-1.26-2.25-3.26-2.09-4.94.42-4.28.52-8.4-6.23-11.25,1.22-4.38-2.66-7.63-5.5-11.42-2.13-2.82-5.13-4.82-7.83-7.19-5.34-4.71-11.82-9.17-11.37-15.45.08-1-.8-2.91-1.81-3.06-7.68-1.15-15.59-2-22.7,1a30.51,30.51,0,0,0-6.49,3.86c-1.78,1.38-3,1.7-4.41.53-.55-.46-1.31-1-1.33-1.48-.12-3,.21-6.08-.13-9.11s.87-5.65,5.11-7.92A203.86,203.86,0,0,0,156,35.35c5.3-3.76,11.42-4.33,18.83-4.11,4.19.12,7.76.26,10.74,2.37,3.28,2.32,9.91,4.2,10.22,6.51.67,4.85,4.11,8.71,7,13,1.76,2.62.32,6,.32,9,11.47,2.45,1.31,10.76,10.64,13.82.76.24,1.55.9,1.59,1.39.31,3.6-1.2,7.63,1.11,10.67,2,2.58,4.5,4.73,5.47,7.82,1.77,5.59,8.45,10.54,6,16.79-.29.73,1.83,2,3.31,2.73,6.24,2.94-.83,8.21,6.3,11.33,5.65,2.46,3.05,7,2.11,10.19-1.54,5.32,7.56,8.09,6.72,13.12-.8,4.79,0,9.67,0,14.51,6.24,2.23,5.67,5.82,6.24,9.47.32,2,5,3.75,5.57,5.82,1,3.55.27,7.26.27,10.91,0,3,.79,6.17-.19,9.09-1.4,4.19,4.86,6.24,6.14,9.47,1.34,3.42-1.1,8.17,2,10.33,4.85,3.33,3.85,6.55,4.34,10,.35,2.5-.54,4.47-3.79,6.4-5.12,3,3.71,3.1,3.75,5.16,0,2.43.68,4.94-.15,7.27-1.25,3.51,5.45,5,5.16,7.44-.21,1.79-5.85,3.09-5,6,1,3.39-2.4,7.23,3.15,10.19a6.39,6.39,0,0,1,2.93,2.89c2.62,6.75-5.57,14.56,5.82,20.45.14,6.65-.28,13.32.59,19.94.67,5.16-2.87,10.45,3.47,15.57,5.59,4.52,1.61,10.46,2.58,15.73.09.47,1.61,1.31,2,1.22,1.46-.31,3.89-.93,3.9-1.46.22-10.93,0-21.87.29-32.8.07-2.71-2.33-4.23-4.5-6.25-1.9-1.78-3.11-5.22-1.48-6.71,11-10,5.12-21,5.22-31.41.05-5.36-7.07-10.49-5.78-16.73,1.24-6,.27-12.13.27-18.21v-16.4c0-6.07.56-12.17-.16-18.22-.69-5.69,4.11-12.1-5.49-16.9-1.06-.53-.47-2.28-.48-3.47-.05-4.25,0-8.5,0-12.75,0-3.65-1.08-7.44.26-10.9,1.86-4.84-5.67-7.34-6.29-11.29-.57-3.62-.12-7.29-.12-10.93V76.89c0-5.47-.5-11,.14-16.4.67-5.69-4.21-12.21,6-16.73,0-5.46-.15-10.93.06-16.4.11-3.1,8.69-6.94,15.09-7S313.63,24,313.71,27.1c.22,7.89.08,15.79.08,23.69-11.28,7.17-5.51,16-5.88,24-.86,18.82-.92,37.67,0,56.49.38,7.4-6,15.58,5.54,22.36,2.05,1.2.29,4.68.29,7.11V210c0,4.26.29,8.52-.08,12.76s-.07,8.16,6,11.4c1.53.81.23,3.49.23,5.32,0,10.93.08,21.87-.06,32.8,0,3.07.59,5.55,4.52,8.1,3.12,2-5.07,2.94-4.35,5.27.51,1.62,2.17,3.1,3.19,4.67s3.45,4.15,2.61,4.62c-7.77,4.33-5.77,9.81-5.89,15-.11,4.86,0,9.72,0,14.58,12,6.43,5.61,14.8,5.83,22.19.8,27.33.32,54.67.32,82,0,4.25.31,8.51-.09,12.75s.78,7.85,5.8,11.47c2.51,1.81.44,5.86.44,8.9,0,60.75-.1,121.5.13,182.25,0,6.79-3.61,14.1,5.21,20.16-2.88,1.65-5.89,3.12-5.46,6,.35,2.3,7,2.52,4.67,5.38-1.26,1.53-3.66,2.81-4.38,4.38s-1.44,4.62,0,5.28c8.11,3.63,5.89,8.59,5.89,13.23q.09,154,.05,308c0,7.9,0,15.79,0,23.69s.05,15.78.08,23.68c11.67,5.78,4.74,13.56,5.79,20.39,1.2,7.83.26,15.78.29,23.68a10.1,10.1,0,0,0,.52,3.52c.19.5,1.72.8,2,1.31,2.08,3.44-2.87,7.49-9.13,7.54-1,0-2.6.09-2.86-.19-3.12-3.48-6.85-6.87-8.8-10.58s2.4-8.32-4.26-11.76c-5.53-2.85,1.85-8.66-6.57-11.14-.76-.22-1.78-1-1.6-1.36,4.2-8-8.09-14.39-6.43-22.21.31-1.48-1.18-3.51-3-4.64-6-3.7-1.69-8.09-3-12.06,10-6,5.95-13.47,6-20.36.3-40.71.15-81.41.15-122.11,0-6.08-.56-12.18.16-18.22.66-5.5-10.88-9-6.42-14.93.17-.23-1.41-1.3-1.83-1.23-1.49.24-4,.79-4,1.24C295.26,867.46,295.34,874.15,295.34,880.83Zm.42-517.27a39.61,39.61,0,0,0-2.6-3.56,3.84,3.84,0,0,0-2,.09c-3.08,1.36-3.11,5.23.21,5.85C292.38,366.13,294.45,364.31,295.76,363.56Z"/><path d="M861.1,1105.34c0-5.46-1.14-11,.29-16.37,1.7-6.33-9.29-10.1-6.93-16.8,2.26-6.4.49-13.3.49-20,0-6.07-.22-12.15.08-18.22.18-3.75-8.16-5.06-6.5-9.46,1.3-3.45.17-7.22.12-10.86-10.73-5.19-4.61-12.31-5.93-18.57-.74-3.44,1.3-7-4.64-9.94-2.18-1.07-1-4.46-1.62-6.76-1.38-5.08,3.8-11-5.18-15.12.71-2.72,7.53-4.1,5.1-7.34-1.92-2.56-7-4-6.23-7.65.87-4.18.2-8.48.2-12.74,0-4.85-1.19-9.85.33-14.53,1.57-4.9-5.9-7.29-6.41-11.29a72.7,72.7,0,0,1-.07-9.1c0-29.76.44-59.53-.29-89.28-.2-8,5.28-16.74-5.65-24.11-1.52-1-.21-3.53-.21-5.36,0-11.53.09-23.07-.06-34.61,0-3.46,1.5-7-4.46-10-2.19-1.08-1.56-4.43-1.57-6.75q-.15-31.89,0-63.77c0-3.52-1-7,4.82-9.88,2.15-1.07,1.25-4.49,1.26-6.83.1-13.36-1-26.76.37-40.07,1.23-11.66-6.64-23.94,5.77-35,.47-.42.06-1.19.06-1.8,0-5.46-.33-10.94.1-16.39.36-4.57-3.19-9.85,5.73-13.15-1.37-2.11-6.29-2.73-5.95-5.7a63.91,63.91,0,0,0,0-12.75c-.37-4.21-.36-8.2,5.82-11.15-11.32-3.44,2.1-6.36.71-9.87s-.3-7.25-.3-10.89c0-34.62.57-69.24-.34-103.85-.28-11,6.29-22.73-5.81-33.11V310.81c3.78-2.64,8.31-5.28,0-7.91,1.52-4.5-3.1-9.48,4.09-13.67,2.23-1.3,1.9-4.41,2-6.69.13-4.53,1.56-9.34-5.33-12.89,8.66-3.43,4.83-8.69,5.32-13.25.46-4.23.1-8.5.1-12.75,0-4.86-.73-9.76.15-14.56,2-11-5.9-22.64,5.74-33.22,1.87-1.71.26-4.76.26-7.19,0-12.75.57-25.52-.28-38.25-.35-5.08,8.5-7.74,6.75-13.11-1.53-4.69-.32-9.68-.32-14.54s-.31-9.73.18-14.57c.16-1.54,2.31-3.06,3.8-4.49,3-2.9,3-6.58,8.48-9,3.87-1.69,7.6-1.67,11.32-1.38,7.7.61,19.62,8,19.08,12.05-.66,5.1,4.08,11-5.61,15-.12,3,.43,6.08-.48,9-2.5,8,6.59,17-6,24v27.33c0,8.5.33,17-.15,25.5-.23,3.95-8.15,6.44-6.27,11.28,1.35,3.46.27,7.25.27,10.9,0,4.25.1,8.5,0,12.75-.17,5.22-8.56,8.94-6.5,14.94,1.8,5.24.38,10.88.38,16.35V400c0,5.46-.1,10.93,0,16.39.08,3.49-1.67,7.29,4.83,9.81,1.14.45,1.22,2.14,1.23,3.26.09,10.33-.13,20.65.18,31,.09,2.84-3.14,4.11-5.29,6.05-2.47,2.22-1.15,4.57,2.57,6.13,2.41,1,2.91,1.79.87,2.59-4.26,1.7-4.16,3-.45,5.33,2.2,1.4,2.59,4.5,1.95,6.64-1.17,3.84-7.6,6.55-6.18,11.29,1.23,4.12.26,8.48.26,12.73,0,10.32-.13,20.65.07,31,.07,3.13-.47,5.74-4.83,8-1.41.74-1.51,4-.21,4.65,8.25,3.78,3.9,8.93,5,13.45-9.63,5.3-5.74,12.23-6,18.54-.5,11.53.68,23.1-.45,34.6-.68,6.82,5.56,14.4-5.45,20.57-2.06,1.16-.39,4.66-.39,7.08,0,27.94-.48,55.88.32,83.81.21,7.39-5.9,15.58,5.54,22.35,2,1.22.29,4.69.29,7.12,0,14-.71,28,.27,41.9.56,8-5.23,16.74,5.67,24.11,1.52,1,.21,3.54.21,5.36,0,11.54-.92,23.11.3,34.6.91,8.64-5.68,17.9,5.56,26,2,1.44.29,4.71.29,7.14,0,12.15-.93,24.33.29,36.43,1,9.85-6.08,20.38,5.86,29.48,0,4.86-.36,9.73.1,14.57.43,4.56-3.36,9.84,5.47,13.21-5.25,2.68-5.65,5.26.41,7.73-12.4,3.93,3.9,7.28.69,11.73-2.59,3.59-.52,8.37-.52,12.62,0,4.86-.23,9.72.07,14.57.25,4-2.6,8.62,5.16,11.48,0,6.28,5.46,13-4.56,18.52-1.08.59-1.42,2.84-.53,3.34,10.73,6,4.81,13.6,5.8,20.45,1,6.63.2,13.35.2,20-12.62,7.73-3.41,17.24-6,25.78,10.27,4.55,4.48,11.11,5.94,16.76.14.53,0,1.5-.52,1.62-2.63.64-6.6,2-7.91,1.41-4.53-2.06-9.84-3.79-10.16-8.18-.6-8.09,4-16.72-6-24Z"/><path d="M977.94,999.92q0-63.75-.05-127.51c0-4,2.15-8.5-5.34-11.5-1.06-.42-1.49-2.78-.62-3.29,11.24-6.61,5-14.83,5.76-22.27,1-9.68.37-19.42.17-29.13-.06-2.54.53-4.58,4-6.35,4.68-2.35,1.19-5.69,2.14-8.53-8.42-2.65-3-5.11-.18-8,1.33-1.37.23-3.57.23-5.39,0-6.07-.81-12.19.18-18.21,1.53-9.24-5.52-19.06,5.69-27.77,2-1.53.28-4.73.28-7.16,0-13.36-1-26.75.3-40.06,1.06-11-5.85-22.53,5.44-33.26,2.75-2.63.41-7.14.41-10.78,0-61.33-.1-122.65.17-184,0-5.07-3.43-10.71,5.17-15.2,2.09-1.1.78-4.58.78-7,0-69.82-.23-139.65.49-209.47.06-5.8-8.63-9.07-6.94-14.92,1.53-5.31.33-10.9.33-16.36s.64-11-.28-16.38c-.45-2.63-4.69-5-5.64-7.64-1-2.91-.23-6.05-.23-9.08a104.83,104.83,0,0,1,.08-10.93c.36-3.41-1.94-6.93,4-10,4.94-2.55,1.14-6.85,2-10.33s8.25-5.13,7.09-9.26c-.23-.81,12.71-2.22,14.14-1.34,7.45,4.58,19.11,7.76,15.68,16.08,4.33,6.92-8.46,11.45-6.64,18.57,2.12,8.31.49,17,.49,25.46,0,1.82-.33,3.67.07,5.45.9,3.95,8,6.44,6.37,11.29-1.41,4.08-.29,8.46-.29,12.71v38.25c0,41.29.26,82.58-.25,123.87-.08,6.81,4.88,14.45-5.75,20.44-.89.49-.5,2.89.55,3.31,7.53,3,5.23,7.42,5.42,11.48.17,3.55.34,6.79-4.82,9.88-2.34,1.41-1.36,5.77.38,8.24,1.42,2,4.64,3.45,4.6,6.19-.26,15.17-.1,30.35-.14,45.53,0,4.12-8.34,6.35-6.45,11.29,1.55,4,.31,8.46.31,12.71s-.13,8.5,0,12.75c.18,4.64-2.4,9.71,6,13.17.92.38.82,3-.15,3.38-7.35,2.92-6.39,7.3-5.74,11.39,1.2,7.45-4.57,15.61,6,22.21.51.32.2,1.19,0,1.78-.75,2.9-8.16,4.09-6,7.57,1.3,2.09,4.28,3.8,5.88,5.85a2.91,2.91,0,0,1,0,3.56c-4.14,4.71-7,9.42-6.19,14.93s.31,10.93.12,16.39c-.15,4.22-.89,8.36,6,11.41.82.37-1.11,3.15-2.19,4.71-.66,1-3.27,2.37-3.07,2.5,11.61,7.33,3.55,16.18,5.18,24.23,1.15,5.68,2.78,12-5.86,16.69v20c0,6.07-.05,12.15,0,18.22,0,2.31-7,2.5-4.56,5.38,1.27,1.52,3.65,2.8,4.36,4.38s1.44,4.61,0,5.27c-8.12,3.62-5.87,8.59-5.89,13.23-.1,21.85,0,43.71,0,65.57,0,4.25-.3,8.51.09,12.75s0,8.15-6,11.39c-1.52.83-.22,3.5-.22,5.32,0,26.11-.06,52.22.06,78.32,0,3.45-2.17,7.41,4.64,9.78.84,7.48,5.84,15.13-3.43,22.17-1.34,1-1.37,4,0,4.71,7.43,3.85,5.82,6.87-.69,10.36-1.11.6.34,3.24,1.37,4.75.71,1,2.74,1.76,4.19,2.61-10.78,4.45-5.22,11.06-6,16.72-.85,6.64-.19,13.35-.19,20,0,6.07.11,12.14,0,18.21-.13,5.22-8.54,9-6.49,14.93,1.8,5.25.38,10.89.38,16.35-10.32,7.92-5.37,17.14-6,25.82a207.4,207.4,0,0,0,.07,27.31c.15,2.45,3,4.85,4.55,7.27-10.08,7.52-2.22,16.28-4.76,24.33,10.4,5.2,5.34,12.25,6,18.53.69,6.66,0,13.36.25,20,.09,2.27-1.65,3.36-4.86,3.65a11.91,11.91,0,0,1-5.53-.7c-3-1.55-8.1-3.71-7.7-5.2,1.81-6.84-9-11.55-7.05-18.61,1.7-6.15,2.1-12.75-5.32-18.65-2.45-1.95-.38-5.9-.38-8.94Z"/><path d="M1060.12,107.87c2.05,0,4.88-.52,6,.08,7.56,4,14.79,8.26,21.93,12.54a28.69,28.69,0,0,1-3.39,2.48c-4.67,3.17-1.66,6.93-2,10.39-.39,3.66-7.91,5-6.62,9.44,1.38,4.72,1,9.73.14,14.53-1.38,7.43,5.42,15.7-6,22.17,1.81,5.65-4.44,12,4.81,17.1,2.88,1.6-8.44,3.53-1.28,6.35,4.25,1.67,2.53,4.36,2.55,6.63.14,14-.26,27.92.25,41.88.18,5.09-3.86,10.91,5.65,15.07,1.48.65-.91,4,.53,5.19,5.32,4.49-11.27,7.58-1.78,12,.52,4.73,1.26,9.45,1.51,14.19s.06,9.71.06,14.56v60.1c0,4.86-.52,9.74.15,14.56.63,4.44-1.24,8.08-6.3,11.25v27.31c11.39,9.14,5,19.62,5.66,29.46.24,3.73,7.35,6.51,4.64,8.84-4.12,3.54-6.16,5.75-.24,9.09,1.75,1,2.13,3.2,2.15,4.85.16,14.57-.28,29.14.29,43.7.2,5-8.5,7.65-6.72,13.11,1.72,5.27.37,10.88.37,16.35v45.52c0,4.86-.12,9.72,0,14.57.1,3,.15,5.81-4.51,8.1-1.52.75-1.94,4.13-.79,4.63,6,2.62,5.28,6.16,5.28,9.75q0,50.09,0,100.16c0,3.55.93,7.1-5.09,9.79-1.6.71-.75,3.34-1.06,5.09-1.79,9.84,4.54,20.13-5.8,29.58-2.34,2.14-.35,5.94-.35,9,0,6.67-.37,13.36.14,20,.3,3.88-7.93,5.11-6.56,9.46,1.28,4.1.27,8.46.27,12.71,0,3.64-.24,7.29.07,10.93s-8.14,5.06-6.49,9.45a16.33,16.33,0,0,1-.17,10.82c-.66,2-8.1,3.55-5.42,5.72,8.63,7,5.38,14.78,5.77,22.29.41,7.89.09,15.79.09,23.68,0,12.14,0,24.28,0,36.42,0,3.51-.3,6.69,4.68,9.9,3.48,2.25,3.12,6.57-1.73,9.7-1.76,1.15-3.61,4-2.73,4.56,11,6.69,6.37,15,5.22,22.26s9.73,11.5,7.25,18.61c-2,5.82-.4,12.09-.4,18.16,8.7,3.26,5.78,8.44,6.12,13.06.22,3-1.4,6.58.83,8.87,2.43,2.49,3.72,5.89,6.46,7.4,7.51,4.16,4.49,8.94,4.84,13.5.14,1.82-2.61,2.56-6.18,2.85-7,.57-13.12-.7-15.35-4.16-3-4.71-11.81-8.41-8.88-14.16,2.49-4.88-5.65-7.22-6.35-11.26s3-8.58-4.61-11.62c-.72-.29-1.41-1-1.42-1.44-.12-3.64.73-7.37-.3-10.9-.95-3.25-4.58-6.22-5.7-9.47-1-2.91.12-6.06-.29-9.08-.62-4.55,2.62-9.36-4.94-13.49-2.63-1.44-1.06-5.7-1.1-8.67-.1-7.89,0-15.79,0-23.68-11.83-7.78-5.65-17.22-5.81-25.81-.76-38.84-.54-77.7-.13-116.55.07-6.24-4.52-13.13,5.44-18.75,2.07-1.17.49-4.64.49-7.05,0-10.32-.16-20.64.1-31,.1-4,8.2-6.37,6.37-11.28-1.51-4.05-.31-8.46-.31-12.71s-.59-8.54.26-12.73c.4-2,4.59-3.71,5-5.71.27-1.18-3.52-2.63-5.23-4.07a1.22,1.22,0,0,1,0-1.75c9.37-6.71,5.53-14.69,6-22.2.44-7.28.09-14.57.09-21.85-12.1-8.43-5.45-18.43-5.82-27.64-1-24.26-.28-48.56-.38-72.84,0-3.66.18-6.82,5.52-9.69,2.86-1.54.49-4.53-3.28-6-3.32-1.31-3.12-4.28-2-4.77,7-3.05,6-7.22,6-11.41-.07-18.82.56-37.65-.3-56.45-.37-8,5.06-16.66-5.59-24.13-2-1.42-.29-4.72-.29-7.14,0-20.64-.69-41.3.34-61.92.43-8.6-5.72-17.88,5.53-26,2-1.44.28-4.72.28-7.14,0-27.32.09-54.64-.1-81.95,0-4,2.36-8.29-4.75-11.7-2.14-1-1.23-4.48-1.25-6.83-.1-12.75,0-25.49-.07-38.24,0-3.59-.85-7.21,5.35-9.69,1.07-.43,1.54-2.76.68-3.29-10.93-6.62-4.83-14.81-5.8-22.25a92.23,92.23,0,0,1,0-21.84c.75-7-3-14.06,3.52-21,6.15-6.56,1.29-14.13,2.42-21.23C1046.08,111.87,1053.57,108,1060.12,107.87Z"/><path d="M492.12,146.23c0,6.08.19,12.16-.05,18.23-.21,5.33,8.94,8.85,6.61,14.95a21.39,21.39,0,0,0,.13,16.26c2,4.35,6.16,8.14,6,13.16-.13,4.17-2.8,7.43-5.33,10.94,7.93,2.9,4.38,7.58,4.83,11.55.47,4.23.1,8.5.1,12.75v36.45c0,3-.41,6.11.17,9.1a7.55,7.55,0,0,0,3.72,4.48c2.13,1.23,2.25,1.52.41,2.71-6.29,4.07-6.52,8.21.13,12.43,3.21,2,2.42,4.24-.92,6.21a8.76,8.76,0,0,0-2.5,2.45c8.5,3.59,4.66,8.84,5,13.4.3,4.13-.69,8.29-1.1,12.44-10.18,3.31,2.16,5.28,1.49,8.24-.94,4.18-.41,8.49-.19,12.74s.93,8.39-6,11.2c12,6.47,4.59,14.81,5.67,22.24,1.22,8.45.28,17,.28,25.5v72.9c0,7.9-.21,15.8.07,23.69.21,5.77-2.67,11.94,5.84,16.87.79.46-1.16,3.38-3,4.47-3,1.76-1.74,2.68.53,4,4.84,2.73,2.93,5-1,7.58-1.71,1.13-3.08,4.28-2.25,4.64,6.89,3.05,6,7.21,6,11.42q-.16,31,0,62c0,5.23-1.59,10.55,5.8,15.08,1.92,1.17,1.47,5.38-.6,6.79-3.93,2.67-5.56,4.28,0,6.71,1.1.49,1.61,2.82.81,3.25-8,4.23-5.85,9.76-6,15-.13,5.46,0,10.93,0,16.4s-1.58,11.14.41,16.34c2.33,6.1-6.86,9.62-6.61,14.95.24,4.86.05,9.72.05,14.58v16.4c0,5.47-.45,11,.13,16.4s-9.11,8.77-6.75,15c2.21,5.78.47,12.09.47,18.16v16.4c0,5.47-.63,11,.19,16.4.76,5-9.58,7.39-6.77,13.15,2.18,4.49.43,9.65.43,14.51v29.16c0,4.86-.43,9.73.11,14.57.68,6-8.72,10.25-6.65,16.76a32.21,32.21,0,0,1,0,18.15c-1.54,5.58-7.5,10.48-6.08,16.77,1.36,6,.29,12.13.29,18.2v36.45c0,1.83.62,3.74-.13,5.45-1.44,3.33,11.65,6.49.22,9.78,0,4.24-.07,8.49-.08,12.73,0,4.86,0,9.72,0,14.58V1072c0,4.25.38,8.52-.1,12.75-.45,4-8,6.42-6.35,11.29,1.4,4,.12,8.42,0,12.65-11.4,5.86-3.73,13.64-5.8,20.44-2.56,8.37,1.26,15.33,13.54,20.4a9.93,9.93,0,0,1,4.65,4.26c.49.85-.86,3-1.59,3-6.84.33-14.46,1.42-20.36,0-4.26-1-3.44-6.19-8.37-8.68-1.52-.76-.1-3.48-.26-5.3-.51-5.76,2.54-11.89-5.9-16.85-1.54-.9-1.48-4,0-5.25,10.52-8.68,4.07-18.5,6-27.73.6-2.87-3.66-4-5.18-6s-2.58-5.68-.7-6.85c8.18-5.1,5.26-11.13,5.83-16.9.06-.6,0-1.21,0-1.82v-31c0-4.86-1.23-9.86.32-14.54,1.78-5.38-6.77-8.17-6.67-13.11q.68-32.81,0-65.61c-.1-4.93,8.44-7.73,6.67-13.1-1.54-4.69-.32-9.69-.32-14.55V865.8c0-4.86,1.2-9.85-.32-14.54-1.75-5.37,7.76-8,6.68-13.12-1-4.79-.21-9.71-.21-14.57s-1.54-9.94.37-14.52c2.58-6.16,7-11.9,6-18.6s-.21-13.36-.21-20,0-13.36,0-20c0-3.58-.41-6.91,5.14-9.8,2.12-1.11,1-4.54,1-6.91.06-18.83-.29-37.67.23-56.49.16-5.68-3.87-11.93,5.31-17,2.08-1.15.63-4.62.63-7,0-26.12-.54-52.25.42-78.36.23-6.26-9.41-10.09-7-16.78,2.26-6.4.48-13.31.48-20V312c0-6.08.13-12.15,0-18.23-.13-4.64,2.36-9.77-6.11-13.07V222.42c0-4.86-1-9.81.28-14.55s-8.8-6.25-6.82-11.33c1.81-4.61.39-9.66.39-14.52V169.26c0-4.25-.14-8.51,0-12.76.19-4.75-9.09-7.48-6.59-13.13,2-4.55.41-9.66.41-14.52-10.65-6.55-5.71-14.74-5.72-22.18,0-4.16-6-6-6.5-9.43-.4-3-.08-6.07-.08-9.11-9.38-3.9-5.32-9.74-6.24-14.88-.08-.47-1.26-1-2.1-1.28-6.66-2.51-1.2-7.51-4.72-9.66-4.5-2.75-4.35-6.42-8.19-9.08a7.85,7.85,0,0,1-3.21-4.63c-.48-2.27-1.36-5.29,3.32-6.2,3.66-.7,9.82-1.06,11.79.17,5.41,3.37,12.78,5.59,15.82,10.6,2.85,4.7,6.1,9.56,12,13.45-4,5.84,7.54,9.38,6.21,14.89-1,4.26,9.65,6.55,6,11.23-4.32,5.54,7.34,8.08,6.39,13.1-.8,4.2-1.42,8.67.17,12.7,1.74,4.37,7.55,7.88,6.09,13.14C491.09,136.41,492.12,141.37,492.12,146.23Z"/><path d="M756.55,908.78c0-16.4.64-32.8-.3-49.17-.39-6.83,5.48-14.52-5.26-20.5,7.46-4.17,5.53-9.61,5.53-14.74q.09-54.63,0-109.27c0-5.47,1.14-11-.29-16.37-1.7-6.33,9.67-10.11,6.87-16.79-2.15-5.15-.43-10.87-.43-16.33,0-4.86.36-9.73-.11-14.57-.38-4,1.82-8-3.9-11.85s-1.81-9.27-2-14c-.48-14.57-.18-29.14-.18-43.71V381.18c0-4.25.32-8.51-.08-12.75s.81-7.84,5.8-11.45c2.51-1.82.43-5.86.43-8.89,0-32.18-.34-64.36.26-96.53.14-7.41-5.17-15.62,5.75-22.25.86-.52.39-2.86-.68-3.28-6.21-2.49-5.35-6.11-5.35-9.7.05-17,.89-34-.3-51-.73-10.44,6.09-21.54-5.83-31.29,2.44-6.76-5.59-14.55,5.7-20.45-2.38-2.37-6.48-4-6-7.5.59-4.13-.53-8.31,6.14-11.16-11.38-5.85-4.48-13.59-5.61-20.43-1.19-7.21-.31-14.55-.25-21.84,0-6.41.3-6.92,5.69-6.7,6.72.27,14.4-1.84,19.84,2.31,1.79,1.37,4.19,2.66,5,4.22s.19,3.61.19,5.43c0,9.11.66,18.24-.34,27.31-.37,3.35,8.23,4.59,4.52,7-4,2.64-4.3,5.17-4.2,8.17s-.49,5.67,4,8.21-4,3-4,5.16c.05,3,.21,6.08,0,9.11-.51,6.49,9.57,11.34,6.66,18.59-2.31,5.74-.47,12.08-.47,18.15V276.23c0,6.68-.27,13.36.08,20,.33,6.34-3,13.07,5.85,18.65,1.54,1,1.54,4.27,0,5.22-9,5.56-5.68,12.32-5.82,18.64-.33,15.18.27,30.36-.31,45.53-.21,5.68,4,12-5.37,16.94-1.57.82-.55,3.44-.56,5.23,0,9.11,0,18.21,0,27.32,0,4.16-1.31,8.46,6,11.36,1,.38,1,2.83,0,3.44-7.43,4.46-8.18,8.44-1.75,14,4.31,3.72,3.47,9-.94,13.34-.84.83-2.43,2.33-2.14,2.48,9.51,4.92,4.44,11.38,4.74,17.05.72,13.95.63,27.93,0,41.89-.24,5.68,4.16,12.13-5.5,16.81q-.22,14.52-.46,29c11.32,7.16,5.77,16,5.87,24,.58,46.74,0,93.49.6,140.24.1,7.36-6.31,15.76,5.83,22.16l-.06,29.13c-11.76,5.76-3.89,13.59-6,20.37-2.5,7.95,5.47,16.85-6.21,24,0,4.25.63,8.54-.16,12.73-1,5.1,4.13,11-4.8,15.25-.26.13,1,1.89,2.16,2.44,3.93,1.83,2.09,4.38,2.9,6.61,1.18,3.29-11.46,6.5-.1,9.74v65.57c0,4.25-.41,8.52.12,12.74.5,4,8.19,6.44,6.29,11.28-1.35,3.46-.26,7.25-.26,10.89,0,4.25.63,8.55-.16,12.74-.95,5,9.7,7.35,6.76,13.15-2.25,4.46-.45,9.64-.45,14.49,8.23,5.46,5.93,12.14,6.15,18.53,11,7.18,6,16,5.63,24-.28,5.9,4.82,8.84,10.65,12,2.24,1.24,2.88,1.9.06,2.59-1.75.44-4.56,1-5.58.54-6.89-3.21-13.84-6.12-17.25-11.6-3.92-6.29-9.84-12.24-16.07-17.87-4.38-4,2.29-10.24-8.19-12.6-.93-5.25,3.09-11.13-2.69-15.67s-2.31-9.22-3.35-13.79c-.79-3.44,1.35-7.14-4.89-9.85-1.64-.71-1-3.29-1.35-5-1.58-8.64,4-17.77-5.89-25.93-1.94-1.6-.28-4.73-.28-7.16Z"/><path d="M559.77,156c0,7.29.22,14.58-.1,21.87-.15,3.2,1.27,5.54,5.11,7.95,3,1.86.26,4-2.07,6.18-5,4.62-4.15,5.54.77,11.1,1.3,1.46,3,4.34,2.23,4.69-8.21,3.56-5.76,8.59-5.91,13.24-.15,4.85-.75,9.76.13,14.56,1.48,8-5.29,16.83,5.92,24,.51.33.07,1.18.07,1.78,0,14,.23,27.94-.12,41.91-.14,5.14-8.08,9-6.4,14.93s.37,12.11.37,18.18v102c0,5.46-.73,11,.18,16.39,1.16,6.84,7.72,13,6.27,20.38-1.4,7.19-.3,14.56-.3,21.85v43.73c0,7.29.06,14.57,0,21.86,0,3.61-.85,7.29,5.49,9.63.57.21.56,1.06.66,1.62a10,10,0,0,1,0,1.82c0,6.07-.2,12.15,0,18.22.27,6.56,1,13.11,1.47,19.67,9.47,4.94,3.51,11.38,4.41,17.1,1,6,.22,12.13.22,18.2v12.76c0,.61-.25,1.26.07,1.81a5.84,5.84,0,0,0,1.81,1.37c.68.45,1.44.86,2.16,1.29a7.21,7.21,0,0,1,2,1.33c.35.52.08,1.19.08,1.8v184c0,1.82.08,3.65,0,5.47-.27,4.64,1.88,9.46-5.83,13.28-1.92.95-1.7,5.66.38,6.77,5.33,2.87,5.5,6.06,5.58,9.72.08,3.16-.34,6-5.19,7.87.06,7.46-6.11,15.32,4.11,22.22.33.23-3.14,2.44-4.84,3.73,8.89,4,5.38,9.7,5.72,14.81.38,5.46.09,10.93.09,16.4v58.3c0,4.26.26,8.52-.08,12.76s-.4,8.3,6.09,11.35c1,.47.14,2.33.14,3.54,0,13.36-.3,26.73.19,40.08.14,3.7-3.91,5.2-7,7.47-1.92,1.42-2.82,1.61-4.48.2-2.24-1.91-6.11-3.51-6.92-5.57-1.75-4.43,1.62-9.09-5.6-13.39-4.16-2.48,2.13-8.63-2.9-11.8-6-3.78-3.15-7.87-4.07-11.84s1.67-8-4-11.85-1.29-9.26-2-14c-.61-4.22-.13-8.49-.13-12.74s1.65-8.82-.44-12.68c-2.37-4.35-7-8.06-5.92-13.16,1-4.79.21-9.7.21-14.56V951.16c0-101.43.19-202.86-.32-304.29,0-9.19,6-19.08-5.55-27.77-2-1.5-.28-4.73-.28-7.16,0-10.93.28-21.87-.13-32.8-.18-4.54,3.47-9.81-5.17-13.27-.28-3.58,0-7.2-1-10.72-1.63-6.24,4.54-13.14-5.27-18.83-2.09-1.22-.75-4.61-.75-7,0-71.06.19-142.12-.41-213.18,0-5.7,8.3-9.11,6.87-14.92s-.33-12.12-.33-18.19V248.41c0-5.47.6-11-.17-16.39-.8-5.67,4.51-12.24-6-16.72,1.22-4.53-2.71-9.35,4.12-13.68,2.59-1.64,3.34-6.71,1.11-8.15-6-3.92-7.6-6.83,0-10.31-9.59-5.69-1.59-13.63-7.11-19.64-2-2.22-4.7-3.14-.29-5.38,1.73-.87,2.74-4.21,1.81-4.63-5.78-2.56-6-5.91-5.84-9.64.28-5.46.94-11-.13-16.38-1.69-8.63,5.72-18-5.74-25.94-1.52-1.06.09-3.56-.26-5.36-1.8-9.23,5-19.14-6.1-27.65,0-4.86-.05-9.71,0-14.57.06-3.85,1.34-4.4,9.69-4.42,3.07,0,6.15,0,9.22,0,3.67,0,5.91,1.14,5.56,3.17-.68,3.88,8.64,5.18,6.33,9.44-1.89,3.5,4.34,5.14,5.65,7.67a13.13,13.13,0,0,1,.17,10.82c-2.13,5.34,4.95,8.72,6.12,13.13,1.27,4.74.29,9.69.29,14.55s-.47,9.74.16,14.57c.43,3.36,7.4,5.21,6.24,9.45s-.25,8.48-.25,12.73Z"/><path d="M944.36,118.8c15.74,0,21,3.24,21.37,10.61.17,3.78-.08,7.23-6.22,9.43-.94,5.28,3.44,11.41-2.54,15.7-6.44,4.62-1.77,9.29-3.56,13.78-.46,1.15-.07,2.42-.07,3.63,0,4.26-.45,8.53.16,12.75.4,2.85-11.31,5-1.25,8.19.37,4.16,1.24,8.34,1,12.49-.31,4.56,2.68,9.37-4.91,13.49-2.63,1.43-1.06,5.71-1.07,8.69q-.08,45.56,0,91.12c0,3.67.25,7.1-5.62,9.68-1,.45.33,3.22,1.36,4.73.71,1,4,1.74,4,2.62.3,9.71.19,19.44.19,29.16-8.32,2.63-1.92,5-.46,8,1.89,3.93.46,8.42.46,12.68,0,3.64-.49,7.32.23,10.91.3,1.51,3.86,2.7,4.71,4.27,1.82,3.36,3.29,7-2.14,9.79-3.58,1.83-.73,2.6.79,3.94,4.4,3.87,5,7.78-1.54,11.08-2.34,1.18-2.24,1.47,0,2.71,2,1.08,3.81,2.9,3.89,4.42.4,7.28.3,14.58.12,21.86-.07,3.07.93,5.48,4.4,8.14,2.4,1.85,2.93,6.68.62,8.16-6.29,4.05-6.45,6.67.31,10.46,3,1.66.37,4.22-2.65,6.17-1.74,1.12-3.18,4.26-2.41,4.6,8.2,3.56,5.81,8.6,5.9,13.24.15,8.5,0,17,0,25.51,0,4.26.32,8.52-.09,12.76s.09,8.13,6,11.39c1.53.85.23,3.5.23,5.32v36.45c0,7.29-.4,14.59.12,21.87.48,6.8-3.59,14.09,5.22,20.16-9.82,3.06.86,5.39.82,8.11,0,3,0,6.08,0,9.11,0,3.65-1.33,7.51.27,10.89,3.36,7.07-8.87,11.58-6.82,18.62,1.89,6.49.4,13.33.4,20v38.27c0,6.68-.26,13.37.12,20,.16,3-4.14,3.85-6.17,5.76,10.87,5.17,5,12.3,5.86,18.57.85,6.64.06,13.35.25,20,.09,3.09-.32,5.69-4.7,8.05-3.31,1.78-2,4.32,1.5,6.1s4.66,4.05,1.8,6.16c-2.56,1.89-5,3.38-4.93,6.15.34,8.5.69,17-.07,25.5-.57,6.28,4.64,13.24-5.52,18.73-1.56.85-.43,3.48-.43,5.28,0,9.11-.13,18.22,0,27.33.08,4.22.9,8.37-6,11.42-.83.37,1,3.18,2.17,4.71,1,1.3,5.24,2,1.15,3.93-1.25.58-1.8,1.68-2.67,2.54,6.52,2.29,5.28,6.08,5.28,9.63,0,15.8-.32,31.6.18,47.38.17,5.09-3.8,11,5.4,15,.19,5.42.14,10.85.64,16.26.43,4.57-2.82,9.72,5.67,13.29.92.38-.37,3.3-1.65,4.73-10.12,11.32-10.23,11.3-10.23,19.36,0,17.62-.06,35.23,0,52.85,0,3.47-1.06,6.85,4.45,10,2.84,1.61-3.52,3.38-5.89,4.86-3.57,2.23-4.63-.88-6.26-1.74-2.06-1.07-4.32-2.78-4.44-4.27-.5-6.06-.1-12.14-.25-18.22-.11-4.64,2-9.47-5.81-13.28-2-1-1.58-5.12.24-6.9,2.49-2.44,7.54-4,.69-6.57-.32-7.47-5.94-15.21,3.86-22.19,1.3-.93.92-3.65-.47-4.73-2.5-1.93-4.9-3.46-4.74-6.21.38-6.67.3-13.36.05-20-.14-3.51,1.09-8.14-2.09-10.27-5.05-3.37-3.61-6.67-3.91-10.09-.33-3.63-.08-7.29-.08-10.93-11-5.14-5.06-12.28-6-18.55-.77-5.22-9-8.9-6.7-14.93,1.73-4.55,0-9.57-.22-14.38-8.32-2.3.9-6.42-1.11-7.49-5.73-3-4.2-6.53-4.39-10-.2-3.64-.05-7.28-.05-10.93V895.65c0-3.64-.1-7.29,0-10.93.15-4.09,8.33-6.35,6.44-11.29-1.55-4-.32-8.46-.32-12.71s-.36-8.52.11-12.75c.43-4,8.07-6.42,6.34-11.29-1.45-4.07-.3-8.47-.3-12.72V798.45c0-4.26-.61-8.55.14-12.75,1.22-6.85-4.58-14.45,5.87-20.46.87-.5.45-2.58-.6-3.35-8-5.86-7.29-11.37-.4-17.56,2.38-2.14,1.1-5.81,1.11-8.78,0-29.77,0-59.53.08-89.3,0-4-1.68-8.26,5.35-11.57,2.06-1,2.38-5.66.44-6.77-7.81-4.48-5.74-9.9-5.77-15.08q-.22-41.93,0-83.83c0-4.25.6-8.31-6-11.42-.84-.39,1.21-3.12,2.28-4.68.65-.95,3.06-2.38,2.86-2.5-10.47-6.11-4.76-13.78-5.06-20.61-.87-19.43.53-38.89-.64-58.31-.63-10.43,6.2-21.55-5.82-31.29V372.85c0-2.3,10.12-3.37,2.27-6.66-4.26-1.78-2.16-4.48-2.17-6.72-.12-54.67,0-109.34-.23-164,0-3.84,1-6.91,6-9.59.91-.49-1-3.21-2.3-4.67s-4.18-1.88-1-4c6-3.94,5.9-9.81,1.92-13.19-5.29-4.5-6-7.11,1.14-10.33l-5.64-3.87c10.6-4.47,3.18-11.36,6.46-16.61,2.92-4.68,5.22-10.14,13.08-13.11C939.15,118.94,943.48,118.93,944.36,118.8Z"/><path d="M744.26,796.84c0,10.33.85,20.68-.29,31-.83,7.43,6.08,15.76-5.86,22.18,0,3.65.69,7.35-.14,10.92-2,8.61,5.51,17.89-5.73,26-2,1.45-.28,4.72-.28,7.15,0,10.32.24,20.65-.13,31-.14,4,2.62,8.31-4.59,11.73-2.16,1-1.37,4.47-1.38,6.8-.09,22.46-.05,44.93-.06,67.39,0,3.56-1.09,7.23,5.19,9.73,1.09.44.92,2.19.93,3.34.06,12.75,1.24,25.55-.52,38.22-.76,5.46-6.91,10.55-5.85,16.75,1.13,6.61.26,13.34.26,20v18.21c0,1.82.36,3.68-.18,5.45-.22.73-2.27,1.34-3.67,1.82-.23.08-1.36-.8-2.11-1.21-3.73-2-6.62-4-6.55-7.55.43-19.43.21-38.86.21-58.29,4.59-5.93-7-9.39-6.32-14.89.64-4.78-.15-9.63-.3-14.45-9.4-4-3.84-10-5.81-15-2.19-5.55-7.85-10.42-6.33-16.75,1.44-5.95.31-12.12.31-18.19v-71c9.94-10.52,5.17-22,6.07-33.1.33-4.16,8.43-6.35,6.54-11.28-1.54-4.05-.31-8.46-.31-12.71s.3-8.51-.1-12.75c-.29-3,4.75-3.8,5.85-5.85.45-.84-3.46-2.5-5.39-3.79,9-2.82.38-5.31,0-8-.3-2.32,2.74-4.8,4.3-7.22-5.2-1.9-4.75-4.91-4.73-8,.1-14.57.8-29.16-.29-43.7-.5-6.79,5.73-14.41-5.5-20.55-2-1.11-.31-4.67-.31-7.09,0-24.29.53-48.58-.32-72.86-.26-7.39,6-15.64-5.62-22.3-1.54-.88-.21-3.51-.21-5.33,0-10.93.24-21.87-.13-32.79-.13-4,3-8.57-4.45-11.63-.52-4.73-1.23-9.45-1.52-14.18-.25-4.25-.05-8.5-.05-12.75V548.48c-11.12-9.16-5.3-19.6-5.78-29.46-.27-5.49-9.32-8.89-6.89-14.93,1.85-4.6.37-9.67.37-14.52-10.64-6.56-4.43-14.75-6.17-22.17-1.46-6.25,4.35-13.14-5.64-18.76-2.07-1.16-.48-4.64-.48-7.05q0-72.87,0-145.72c-4.56-6.42,8-10.39,6.46-16.73-1.46-5.95-.31-12.12-.31-18.19s-.43-12.16.15-18.21c.38-3.94,7.79-6.43,6.31-11.28s-.31-9.68-.31-14.54V204.17c0-4.25.42-8.51-.1-12.74-.8-6.57,9.57-11.36,6.71-18.6-2.28-5.75-1.33-12.13-.26-18.13,1.64-9.23-5.85-19.09,5.67-27.78,2-1.5.18-4.73.3-7.15.28-6,.66-12,1-18,9.56-2.93.76-11,10.86-13.73-.25-4.92.24-9.7,8.72-12.4,3.06-1,3.47-4.54,8.63-3.27,2.62.64,4.77,2.34,7.38,2.56C738,76,736.32,84.14,743.86,87.58a19.77,19.77,0,0,0-3.5,2.6c-3.74,4.54-7.22,9.15-11,13.69-.85,1-3.32,1.81-3.43,2.77-.58,4.79-.62,9.6-.85,14.4-8.7,3.41-4.77,8.68-5.41,13.23-1,6.91,2.06,13.95-5.74,20.54-2.88,2.44,0,7.12-.58,10.73-1,5.69,4.12,12.15-5.62,16.81-.13,4.22-.58,8.44-.32,12.65.22,3.76-.24,7.06-6,9.61-.89.4,1,3.15,1.88,4.74.73,1.28,4.59,1.35,1.8,4-6,5.62-5.21,6.15-1.11,11s4.27,5-2.07,8.8c-3.42,2.09-10.31,4.92-6.53,7.16,8.88,5.27,4.38,11.29,5.79,16.94.74,3-4.49,3.6-5.87,5.71,8.94,2.79.84,5.23,0,8-1.12,3.52-.27,7.26-.27,10.9,0,12.75.11,25.5-.07,38.25,0,4,2.42,8.6-5.29,11.44l-.79,10.73c9.63,5.29,5.9,12.23,6,18.53.37,23.07-.18,46.14.36,69.21.15,6.25-4.94,13.37,5.79,18.56.05,5.46.11,10.91.14,16.36,0,4.25,0,8.5,0,12.75,8.59,3.27,5.91,8.42,6.12,13.06.19,4.24.15,8.47.21,12.71,10.66,5.21,4.49,12.32,6,18.57,1.73,7.42-4.46,15.61,6.17,22.17,0,4.86-.4,9.73.11,14.57.49,4.54-3.5,9.79,5.06,13.33.63.26.8,1,.94,1.56a6.85,6.85,0,0,1,0,1.81c0,5.47-.16,10.94,0,16.4.22,6,.77,11.94,1.17,17.91,9.24,4.2,3.87,10.1,4.73,15.2.91,5.41.21,10.91.21,16.38,0,3.64.52,7.32-.12,10.92-1,5.5,9.2,8.74,6.75,15-2.27,5.75-.48,12.07-.48,18.14V720c0,5.47.56,11-.16,16.39s9.66,8.76,6.72,15c-2.13,4.5-.41,9.64-.41,14.5v31Z"/><path d="M449.08,774.52c0,7.29-.22,14.59.17,21.87.08,1.53,1.84,3.35,3.78,4.45,2.18,1.23,2.68,1.73.2,2.67-6.62,2.52-3.6,6.43-3.94,9.86,7.61,2.72,5.91,7.19,5.92,11.3,0,26.12-.77,52.26.49,78.36.38,8-9.17,14.07-7.05,22.23,2,7.71.42,15.75.43,23.65,0,3.56.64,6.94-5,9.84-2.14,1.1.4,5-1.42,6.79-4.16,4.16,12.63,7.77.37,11.68,0,4.24-.09,8.48-.11,12.73,0,4.86,0,9.72,0,14.58v27.33c0,4.86-1.67,10,.39,14.52,3,6.67-8.51,10.47-6.85,16.81,1.4,5.31.14,10.86.06,16.31-12.37,3.87.05,13-10.62,17.59-2.13.91-1.36,4.46-1.38,6.79-.11,12.76-.27,25.52.09,38.27.1,3.71-4.19,5.33-7.82,7.16-1.82.91-5.45.92-8.12.71a3.74,3.74,0,0,1-2.54-2.86c-.17-12.75-.11-25.51-.11-38.27,0-.61,0-1.21,0-1.82.29-4.08,8.35-6.35,6.46-11.29-1.55-4-.32-8.46-.32-12.72v-12.75c0-4.26.19-8.51-.1-12.76-.11-1.66-.38-4.06-2.16-4.82-7.2-3.1,2.9-5.2,1.25-6.42-3.34-2.47-7.27-5-4.94-7.87,10.66-13.11,4.88-27,5.74-40.47.92-14.56-.18-29.16.41-43.73.22-5.68-3.6-11.79,5.17-17,2.6-1.56.76-5.79.76-8.79q0-70.17,0-140.34c4.33-6.92-9-11.48-6.56-18.58,2-5.84.41-12.1.41-18.18v-20c0-6.07-.12-12.15,0-18.22.1-3.7-7.94-5.07-6.48-9.46,1.36-4.1.29-8.47.29-12.73,0-3.64,1.56-7.61-.38-10.85-2.6-4.34-7-8-6-13.17,1.06-5.39.24-10.92.24-16.38V635.87c0-28,.58-55.9-.33-83.84-.3-9.21,5.78-19-5.46-27.81-2.46-1.93-.36-5.92-.36-9,0-26.13.76-52.26-.36-78.37-.47-11,6.56-22.75-5.79-33.12,0-10.33-.09-20.66.16-31,0-.93,2.23-1.85,3.43-2.77,4.16-3.18,4.37-6.91.51-9.74-3.21-2.34-3.9-3.23.1-5.37,4.24-2.28,1.42-5.61,1.6-8.49-7.75-2.73-5.71-7.27-5.75-11.33-.13-11.55.83-23.12-.33-34.62-.92-9.25,5.89-19.14-5.66-27.76-1.5-1.12-.21-3.55-.21-5.37V212.67c0-6.68-1.14-13.45.33-20,1.41-6.33-5.73-11.18-6.14-16.75-1-13.94-.28-27.94-.38-41.91,0-2.87,0-5.46-3.19-8.37-4.7-4.29-5.09-9.52-.67-13.19,3.37-2.81,3.95-5.26,3.91-8.22a18.53,18.53,0,0,0-.05-3.65c-.51-2.31,1.72-3.46,4.95-3.58,28.94-1.08,32,.55,31.95,17,0,6-.47,12-.72,18-9,4.12-4.3,10-5.29,15.08-.69,3.57-.93,7.21,5.26,9.69,1.06.43,1.5,2.81.65,3.29-8.66,4.83-5.25,11-6.08,16.8-.44,3,5.8,3.92,5.66,5.75s-6.18,2.81-5.64,5.82c1.25,6.87-3.79,14.41,6.2,20.35-1.29,4,2.68,8.22-2.85,12.09s-5,9.26-1.61,13.3c2.3,2.7,4.61,4.92,4.54,8-.22,9.11-.93,18.27.31,27.32.55,4-11.76,7.73-.39,11.58v40.1c0,4.86.29,9.73-.11,14.57-.23,2.68,2,4.26,4.34,6.3,3.45,3,3.54,6.6-.72,9.78-1.05.78-2.82,2.27-2.49,2.48,10.42,6.83,3.79,15,4.9,22.49,1.07,7.24.23,14.57.23,21.86v16.4c10.64,6.56,4.84,14.73,6,22.19.64,4.07,1.29,8.21-5.51,11.51-2,1-2.16,5.85-.2,6.81,7.81,3.81,5.78,8.64,5.81,13.29.1,17-.6,34,.32,51,.43,8-4.92,16.59,5.5,24.19,2.5,1.83.37,5.9.37,8.93,0,31-.52,62,.33,93,.24,8.6-6,18,5.82,25.83,0,5.47-.87,11,.18,16.39,2,10.44-6.29,21.58,5.91,31.34.49.39,0,1.19.07,1.79,1.73,9.25-4.5,19,5.94,27.74,1.45,1.21.2,3.56.2,5.38Z"/><path d="M633.56,105.45c0,5.47-1.89,11.25.5,16.31,2.76,5.86-7.56,8.16-6.83,13.16.8,5.43.18,10.93.18,16.39v14.58c0,4.86,1.18,9.85-.34,14.53-1.43,4.38-7.63,7.85-6.09,13.14,1.37,4.72.28,9.69.28,14.55v12.75c0,4.86.13,9.72,0,14.58-.16,4.64,2.36,9.77-6.12,13.06.92,2.83-2.14,6,2.47,8.52,1.26.68,3.13,2.25,2.81,2.47-11.24,8.05-3.62,17.42-5,26.09-1.32,8.43,0,17-.41,25.49-.23,4.56,2.67,9.37-4.9,13.5-2.63,1.44-1.09,5.7-1.09,8.68-.06,27.33,0,54.66-.08,82,0,4.06,2.11,8.61-5.68,11.35,0,3.43-2.51,7,3.33,10,1.8.9,3,4.27,2.19,4.63-9.57,4.12-5.37,7.49-.2,11.9,2.4,2-.17,5.95.51,8.93,2.11,9.21-5.58,19,5.68,27.81,2.47,1.93.36,5.91.36,9,0,24.29-.72,48.6.34,72.88.46,10.43-6.14,21.54,5.81,31.29,0,6.07-.55,12.17.16,18.21.67,5.7-3.92,12,5.34,17,1.58.85.62,3.44.63,5.22.05,7.9,1.71,16-.47,23.64-2,7.15,9.42,11.54,7,18.63-2,5.84-.4,12.1-.4,18.17,11.89,5.74,4.26,13.56,6,20.37,1.43,5.69-2.56,12,6.32,16.7,0,5.46-.84,11,.19,16.38,1.76,9.23-6,19.15,5.76,27.75,1.5,1.1-.08,3.57.25,5.37,1.68,9.24-4.06,18.86,5.67,27.81,2.8,2.57-.07,7.15.55,10.76,1,5.69-4,12.08,5.42,16.92,1.08.55.26,2.29.64,3.44,2.41,7.36-6.15,15.77,6,22.21q.06,12.74.12,25.47c0,7.9,0,15.79,0,23.69v23.69c0,4.25-.36,8.52.19,12.74.2,1.54,2.91,2.9,3.91,4.47s2.58,4.32,1.63,4.74c-5.79,2.57-5.89,5.93-5.85,9.64,0,3.11.08,6,5,7.94.4.16.58,1.06.28,1.22-10.27,5.46-4.27,12.54-4.87,18.81-1,10.9-.13,21.85-.34,32.78-.14,7.19-.8,14.37-1.23,21.55-11.09,4.15,1.5,13.41-10.69,17.56-1.36.46-1.52,4-.11,5.15,5.35,4.52-11.17,7.6-1.81,12,.53,4.12.76,8.27,1.68,12.36.84,3.72-4.15,5.12-7.1,7.41-1.89,1.47-2.76,1.53-4.49-.07-2.1-1.94-6.41-3.66-6.63-5.6-.8-7.26-1.25-14.62,0-21.83.77-4.37,7.8-7.78,6.11-13.12-1.48-4.7-.31-9.68-.31-14.54s.85-9.79-.19-14.56c-1.62-7.42,5.58-15.49-5.58-22.41-2.56-1.58-.38-5.86-.38-8.9,0-34.61,0-69.23-.05-103.85,0-5.2,1.83-10.58-5.78-15.08-1.93-1.13-1.56-5.76.51-6.75,7-3.33,5.11-7.53,5.29-11.59.15-3.54,1.29-7.32-5.17-9.69a1.74,1.74,0,0,1-.91-1.55c-.4-6.38,2.18-13.1-6.19-18.54v-20c0-3.64,2.24-8.12-.53-10.73-4-3.76-6.32-7.09-5.72-11.45.5-3.62.1-7.28.1-10.93-11.82-5.74-5.65-13.61-5.56-20.35.07-5.69-8.6-9.11-7-14.92,1.43-5.33.31-10.9.31-16.37V723.5c-11.15-9.16-4.61-19.62-6.07-29.47-.93-6.34-9-11.46-6.67-18.58,2.07-6.45.9-13.33.28-20-.43-4.51-8.5-7.6-6.36-13.12,1.79-4.61.37-9.67.37-14.52-11.29-7.17-5.73-16-5.88-24-.63-35.83.12-71.67-.59-107.5-.15-7.38,6-15.58-5.54-22.35-2-1.2-.29-4.69-.29-7.12,0-13.36-.14-26.72.11-40.08,0-2.66-1.38-4.41-4.33-6.31-1.58-1-2.33-4.19-1.27-4.66,5.89-2.59,5.55-6.05,5.53-9.7-.09-21.25-.82-42.52.3-63.76.52-9.82-6.27-20.36,5.68-29.53,1-.76-.06-2.38.16-3.58,1.74-9.85-4.69-20.2,5.85-29.57,1.89-1.69.27-4.76.27-7.19,0-13.36-.43-26.73.2-40.08.26-5.67-3.91-11.92,5.33-17,2.08-1.13.6-4.62.6-7,0-20.65-.61-41.31.35-61.94.34-7.39-6.16-15.6,5.53-22.36,2-1.18.29-4.68.29-7.11,0-12.76.14-25.51-.11-38.27-.06-3.07,4.13-4,6.7-5.64,5-3.24,5.6,1.44,8.62,1.87,1,.14,2,0,3,.14,9.14,1.31,13,4.75,12.64,10.33C633.26,92.08,633.56,98.77,633.56,105.45Z"/><path d="M126.31,143.85c2.91.62,6,.89,8.18,1.86,3.26,1.43,5.7,3.49,8.84,5,3.4,1.68,4.84,3.55,4.53,6.23-.43,3.63,1.26,7.53-.43,10.87-2.57,5.09,9.43,6.25,6.79,11.36-1.72,3.33-.32,7.22-.32,10.87,0,4.25-1.49,8.75.4,12.68,2.09,4.36,7.22,8,6,13.15-1.13,4.77.07,9.71-.33,14.55s9.35,7.42,6.66,13.14c-2.12,4.51-.59,9.65-.28,14.5.06,1,1.67,2.08,3,2.86,4.54,2.67,3.77,5-.31,7.61-1.75,1.14-3.47,4.09-2.6,4.58,9.75,5.47,5.28,12.4,5.56,18.69.08,2-9.35,3.56-1.23,6.47.53,3.51,1.44,7,1.47,10.54,0,3.11,2.75,5.4,4.42,8,2.7,4.24.06,9.62,2.27,14.06,1.86,3.74,7.05,6.8,5.87,11.33a17,17,0,0,0,0,9.08c2.38,8-6.28,16.89,5.32,24.23.21.13-2.39,1.54-3.06,2.5-1.07,1.56-3,4.33-2.19,4.7,6.86,3.06,6.15,7.2,6,11.42a97.07,97.07,0,0,0,.08,14.57c.47,4.36-.57,8.07-6.11,11.34-2.17,1.28,1,4.17,5.54,4.82,4.05.57,8.16.38,3.6,3.79-1.68,1.26-3.69,4.08-2.91,4.51,7.81,4.32,5.25,9.84,6,15s-4,11.07,5.89,14.92c.05,5.46.11,10.91.14,16.36s0,10.93,0,16.4v16.39c0,.61-.39,1.38.08,1.79a16.3,16.3,0,0,0,4.13,2.62c2.35,1,2.25,1.65-.39,2.63-5.38,2-5.66,6.16-3.44,8,7.83,6.48,5.6,13.56,5.71,20.51.22,13.36-.19,26.72.2,40.08.14,4.54-2.84,9.37,4.72,13.53,2.65,1.46,1.24,5.68,1.25,8.64q.14,25.5,0,51c0,3.61.16,6.75,5.15,9.81,2.26,1.39,1.17,5.92-.94,8.2s-4.92,3.29-.15,5.36a3.67,3.67,0,0,1,2,3.07c.21,4.85-.64,9.76.26,14.56,1.51,8-5.15,16.75,5.77,24.11,1.53,1,.21,3.54.21,5.36,0,12.14-.78,24.31.28,36.43.71,8-5.6,16.79,5.63,24.13.87.57-1.13,3.34-2.87,4.54-4.6,3.16-4.77,7-1.48,9.76s4.87,4.92,4.66,8c-.28,4.25-.07,8.5-.07,12.75,0,3.65-2.15,8,.52,10.75,3.7,3.76,6.4,7.05,5.74,11.43-.54,3.62-.11,7.28-.11,10.93,10.35,4.49,5.3,11,6,16.71.67,5.43.16,10.91,0,16.37,0,.44-1.25,1-2.12,1.24a3.37,3.37,0,0,1-2.08-.27c-3-2.25-8.17-3.45-8.06-7.15.16-5.79,2.59-12-6-16.71V854.2c-11.68-7.8-4.92-17.19-5.78-25.83-.54-5.4-9.86-8.74-6.93-14.94,2.13-4.51.62-9.66.23-14.5-.07-.92-2.29-2-3.9-2.62-2.59-1-2.23-1.47,0-2.71,2-1.07,4.52-3.72,3.78-4.29-9-6.86-5-14.79-5.92-22.29-.51-4,2.53-8.43-4.9-11.65-1.62-.7-.88-3.32-1.2-5.06-1.8-9.84,4.3-20.07-5.73-29.61-2.76-2.63-.42-7.14-.42-10.78,0-5.46.54-10.95-.17-16.39-.61-4.57,2.44-9.28-3.26-13.78s-2.11-10.42-2.62-15.69c-.47-4.84-.1-9.71-.1-14.57V633.1c0-4.86.17-9.72-.06-14.58-.19-4.06-8.13-6.34-6.44-11.28,1.6-4.67.35-9.68.35-14.53V565.38c0-4.25.12-8.5,0-12.75-.17-4.64,2.24-9.67-5.9-13.24-.76-.33,1.29-3.1,2.35-4.66a27.78,27.78,0,0,1,2.75-2.49c-8.88-4.21-4.52-10.06-5.16-15.17-.68-5.43.38-10.94-.31-16.38-.65-5.11,3.34-10.69-5-15.26-2.13-1.17-1-4.55-1-6.92-.08-9.11.47-18.23-.22-27.32-.43-5.69,4-12-5.34-16.95-1.58-.83-.59-3.44-.6-5.22-.05-7.29.91-14.63-.29-21.85-1.14-6.82,5.56-14.4-5.51-20.57-2.06-1.14-.36-4.66-.37-7.08,0-4.86,0-9.72,0-14.58,0-4.25,1.28-8.68-.35-12.7-1.77-4.36-7.65-7.9-6-13.14a24.78,24.78,0,0,0,0-12.71c-.88-3.85-7.78-6.54-6.16-11.28,1.19-3.5.23-7.26.23-10.91,0-4.25.82-8.57-.2-12.73-1.39-5.62-7.94-10.42-6.24-16.75,1.42-5.33-.19-10.92.44-16.36.51-4.42-8.67-6.3-6.63-11.3,1.64-4,.33-8.45.33-12.7-9.61-5.3-6.15-12.26-5.82-18.53.27-5-8.67-7.75-6.77-13.1,1.45-4.07.29-8.47.29-12.72-11.85-5.74-3.43-13.65-6.3-20.33-1.14-2.67-4.82-5-5.76-7.65-1-2.91.25-6.08-.36-9.07-.76-3.72,3.65-5.43,7.33-7.29C120.1,144.65,123.34,144.46,126.31,143.85Z"/></svg>