<svg id="Layer_1" data-name="Layer 1" xmlns="http://www.w3.org/2000/svg" viewBox="0 0 1200 1200"><title>BB_Artboard 50</title><path d="M810.74,238.82c-2.29-6,2.56-7,4.4-10.25s3.35-6.34,5-9.55c2.31-4.65,8.37-3.44,11.08-6.67,8.19-9.77,20.83-15.78,24.8-29.14.17-.59,1.19-1.46,1.66-1.37,8.32,1.62,9.15-9.85,17.06-9.66,2.26.06,6-3.12,6.66-5.46,2.08-7.94,7.9-12.8,13.51-17.56,6.49-5.5,7.63-14.44,14.52-19.72,6.08-4.67,11.07-10.77,16.54-16.24,6-6,12-12.07,18.06-18a13,13,0,0,0,4.19-7.63,10.1,10.1,0,0,1,5.71-6.66C967.14,76.56,973,63.91,983,56c1-.81,1.37-2.48,2-3.78,2.11-4.54,4.19-9.1,6.29-13.65,6.17.23,9-4.73,12.84-8.2,4-3.64,8.81-1,13.2-1.74,7.06-1.16,12.2,2.17,13.87,8.58,1.75,6.68,7.55,9.28,11.27,13.9,4.13,5.14,4.1,15.62-.73,20.54-5.42,5.52-10.75,11.14-16.45,16.36a35.85,35.85,0,0,0-9.85,14.53c-4.33,11.89-14.88,18.74-22.88,27.67-3.23,3.59-6.51,6.1-11.83,5.27-3.77-.59-7.73,0-11.58-.16a9.58,9.58,0,0,0-8.1,3Q910.3,189.3,859.29,240c-2.85,2.83-3.68,6.11-5.06,9.56-2.1,5.26-8.84,5.11-12.51,8.43-9.16,8.3-17.44,17.57-26.46,26-5.92,5.56-10,13.58-19.32,15-1.24.19-2.75,1.88-3.22,3.19-3.43,9.69-11.36,15.71-18.15,22.65-7,7.18-14,14.41-21.37,21.29-5.52,5.17-6.51,13.22-12.93,18-6.14,4.58-11.09,10.75-16.56,16.22s-10.79,11.09-16.45,16.37c-6.62,6.17-8.73,15.49-16.21,21.29-7.28,5.64-15.17,11.91-19.39,19.74-5.61,10.43-14.16,17.53-21.85,25.68-8,8.43-16.34,16.47-24.61,24.61-.39.39-1.5.05-2.27.05-1.61-2.64,2.74-.85,0-2.29-6.48-3.39-10.07-2.85-14.15,0s-3.53,7.94-6.37,11.21c-1.37,1.58-3.61,3.29-.47,4.74a5.22,5.22,0,0,0,6.21-1.06c1.45-1.56,2.6-4,5.5-3.27-.6,2.82,1.24,5.92-1.52,8.57-6.62,6.35-13.27,12.69-19.44,19.47-8,8.74-18.05,15.47-23.1,27.07-1.78,4.1-5.86,8.84-11.65,9.87v-9.28c3.22.12,4.76-1.43,6-6.77.46-1.41-.58-.78-1.29.11-.33.41-.06,1.33-.06,2,.7,0,1.62.28,2-.06a9.47,9.47,0,0,0,2.11-2.74c.09-.17-.9-.93-2.79.67-4.56,2-6.1,3.56-6,6.77-4.54-.19-5.62,4.34-8.52,6.4,0,0,1,2.6,1.82,2.75a38.33,38.33,0,0,0,6.7.13c-3.31,6.45-5.7,13.37-11.38,18.48s-11,10.85-16.44,16.31c.2,9.27-8.27,12.28-13.26,17.56s-8.17,9-1.18,14.8c1.18,1,.6,4.38.43,6.62-.2,2.66,1,5,3.22,5,5.21,0,7,2.35,6.06,7-1.13,5.73,2.81,12.2-3,17.3-4.13,3.61,1.43,11-4.93,14.15a2.85,2.85,0,0,0-1.23,1.77c-1,5.07,1.85,10.44-1.93,15.45-3,4-6.73,8.63-6.94,13.13-.28,5.69-3.75,9.53-4.83,14.32-1.12,5-7.2,8.13-5,14.27a4.56,4.56,0,0,1-1.34,3.93c-11.94,9.66-16.52,23.72-23.23,36.69-2.54,4.92-2.93,12-9.38,14.75-1.26.54-3.15,2.56-2.9,3.23,3.69,10.31-7.27,13.95-9.91,21.52-2.51,7.21-6.77,14.13-10.34,21.14-1.34,2.64-3,4.66-3.29,8-.48,6.24-.88,6.2-8,7.12a15,15,0,0,0-4.26.88c-2,.87-1.65,1.92.23,3.28s4.19,3.53,2.76,5.6c-3.5,5-4.79,10.45-5.4,16.4-.18,1.78-3,3.38-4.7,4.91-2.36,2.09-3.81,4.26-3.85,7.75s-6.8,17.34-9.29,19.16c-4.36,3.21-4.83,7.35-4.52,12.12.18,2.68-1.41,4.23-4.1,4.12-4-.16-5.5,1.92-5.1,5.51.81,7.29-.68,13.56-7.16,17.9-2.21,1.47-1.27,4.51-2.35,5.89-2.79,3.54-3.39,8.31-6.05,11.35-3.5,4-2.77,10-7.84,13.2-3.82,2.41-6.36,6.76-10,9.55-4.48,3.44-2.77,5.74.52,8.35a4,4,0,0,1-1,1.55c-9.43,6.91-11.34,18.54-16.84,27.84-3.88,6.55-6.91,14-10,21.23a63.55,63.55,0,0,1-13.32,20.1c-1.53,1.51,0,6.33-4.5,6-4.85-.31-6.47,6.46-12,4.85-2.85-.82-6.19-.52-9.21-.07-6.72,1-11.09-1.88-16.05-6.35-7.93-7.14-3.82-15.68-4.72-23.61-.11-1,1.85-2.27,2.91-3.34,5.45-5.47,10.71-11.15,16.45-16.29a10.52,10.52,0,0,0,3.67-10.1,5.51,5.51,0,0,1,2.82-5.74c7.21-4.35,6.66-11.31,6.49-18.2q4.82.18,4.64-4.64c1.32-.55,3.09-.75,3.84-1.73s.16-3.06.87-4.23a121.26,121.26,0,0,0,9.6-19.25c1.79-4.62,7.35-7.71,10.91-11.76,1.34-1.53,1.54-4,2.67-5.81,8.83-14,13.94-30,23.17-43.79.53-7.93,7.38-11,12.24-15.43,5.15-4.66,10.84-12,10.95-16.33a73.65,73.65,0,0,0,0-9.28,8.55,8.55,0,0,1,3.27-8c3.49-3,7.83-6,9.56-9.93,1.82-4.18,3.13-8.41,6.94-11,4.7-3.19,2.64-10.4,8.14-12.92-2.08-5.41,5.48-7.18,4.6-12-.94-5.08,1.63-8.59,4.69-12-2.6-7.51,5.06-12,5.51-18.6,5.62-4.1,7.43-11,11.68-16,6-7,13.29-12.71,10.88-23.58-.32-1.42,2.59-3.39,3.64-5.31,1.67-3,1-5.84-1.8-7.87-1.76-1.28-2.28-3-.85-3.19,7.45-1.14,11.47-6.84,16-11.73,1.17-1.28,1.09-4.13.78-6.13-.12-.82-2.32-1.72-3.66-1.88-4.08-.48-6.37.4-17.91,6.58a33.33,33.33,0,0,0,3.55-2.09,2.19,2.19,0,0,0,0-2c-1.7-1-3.51-2.33-5.35-2.42-3.08-.16-4.52,2.22-3.79,6,.21,1.12,1.55,2,5.59.55,3.6-1.26,3.5-.49,3.61.25,1.07,6.83-7.85,11-4.92,18.59.5,1.31-3.09,2.32-5.43,2.48-1.24.08-2.51,1.29-3.52,2.25-.38.36-.15,1.46-.06,2.2.59,4.75-.42,8.65-4.57,11.8-2.16,1.64-5.08,3.25-4.77,7,.5,6.08-5.51,3.18-7.75,5.42a6.44,6.44,0,0,0-1.42,3.89c-.21,3-.07,6-.07,9.06-4.68-.16-8,4.16-8.41,6.63-1,5.42-3.88,6.16-8.06,8.34-3.71,1.94-3.57,9.33-8.44,12.31-4.08,2.49-.76,4.11.46,6.63,1.64,3.39-4.43,4.79-3.59,9.15.68,3.55-.18,7.48-.84,11.15-.12.7-2.5,1-3.84,1.49-4.52,1.64-4.52,1.64.86,7.72-3.35,2.9-6.48,6.31-10.27,8.69-4.38,2.76-3.21,8.26-6.51,11.24-2.13,1.93-3.72,4.15-7.14,5.11-7.61,2.15-11.83,9.27-16.89,14.74-3.8,4.13-1,10.25-1.56,15.45-.23,2.29.62,4.88-.17,6.89-1.82,4.63-4.34,9-6.58,13.47-6.19-.62-8.1,2.58-7.2,8.17.75,4.7-3.09,6.62-5.64,9.22-2.2,2.23-4.05,4.25-3.73,7.77.34,3.83-.39,7.78.19,11.55.73,4.62-5.78,5.62-4.63,9.63,1.75,6.12-4.37,9.27-4.68,14.31-.38,6.15-.09,12.34-.09,18.51q-4.81-.18-4.64,4.64c-12.39,6.41-17.19,5.82-31.09.36-4.28-1.69-6.49-2.39-6.11-7.13.31-3.85,0-7.73.08-11.6.16-5.91-1.84-12.46,4.62-16.63q.08-9.25.13-18.51c7.48-3.09,2.34-11.29,6.5-15.89,4.58-5.08,2.79-11.32,1.86-17.13-.37-2.3-2.15-2.24-3.14,0-1.9,4.24-6.8,2.13-9.71,4.77-2.57,2.33-7.13,2.73-9.14,5.29-1.51,1.92-.2,5.94-.48,9-.19,2.14-.29,4.81-1.56,6.24-4.63,5.18-10.61,9.36-14.38,15-3.23,4.89-5.15,10.67-10.14,14.26-1.92,1.38-2,2-.21,3.37,4.88,3.76,3.86,7.25-.2,11.28-2.47,2.45-3,6.5-4.57,9.67-2.33,4.78-4.09,11.06-8.87,11.82-5.95.94-9.4,8.33-16.64,5.28-3.61-1.52-7.22.32-10,3.63-1.86,2.21-4.42,4.88-7,5.25-6.93,1-5,3.19-1.64,6.41.27.27-.71,2.74-1.48,3-2,.63-6.12-.61-5.94,1.83.62,8.79-11.52,10.34-10.16,19.12-7.63,6.35-11.06,15.21-14.86,24-1.48,3.4-10.26-.07-8.35,7.75-2.54,2.81-5,5.69-7.63,8.43-3.21,3.34-6.44,6.68-9.87,9.8-1.58,1.44-3.53,3-5.52,3.36-5,.93-8.16,6.77-14.33,4.91-2.84-.85-6.17.1-9.23-.2-5.06-.49-11.11,2.31-14.78-3.38-3.9-6-8.74-11.8-8.29-19.75.34-5.91-1.73-12.44,4.66-16.64.82-5.77-2.55-12.34,3.47-17.18.9-.73,1.17-2.71,1.11-4.09a29.19,29.19,0,0,1,4.3-16.88c2.71-4.59-1.72-11.87,4.28-16.88,1.59-1.33,1-5.82.67-8.78-.48-4.34,1.23-7.36,4.47-9.79,4-3,6.47-6.87,4.82-11.86-2-6.19,4.51-9.18,4.7-14.35.17-4.63-.3-9.31.2-13.9.21-1.94,2-3.87,3.42-5.47,4.44-5,10.51-8.65,11.57-16.14.17-1.23,2.73-2.05,3-3.33,1.52-6.31-2.24-13.82,5-18.88,5.6-3.93,4.84-12.61,11.49-16.12,3.25-1.72,2.36-5.22,2.49-8.2.23-4.92-2.14-11.68,7.1-10.57,3.09-3.21,2.11-8.54,6.47-11.34,3.18-2,5.51-5.39,8.3-8,3.28-3.12,5.09-6.8,6.93-11.06,2.85-6.62,12.72-8.77,13-17.83,11.31-8.15,11.42-24.19,22.74-32.33,1.31-8,6.9-14.12,9.95-21.4,2.48-5.91,4.49-12.31,9.65-16.93,2.56-2.29,7.9-15.68,8.74-19.53a20,20,0,0,1,1.24-4.12,2.23,2.23,0,0,1,1.78-1.1c7.55,1,8.56-8.64,14.73-9.16,3.64-.31,5-3.1,7.53-4.4,3-1.52,5.8-.16,7.9,2.53.52.67,8.43,9.35,8.58,10,.31,1.42.15,3.63,1,4.13,8.83,5.22,8.83,13.55,8.34,22.19,0,.53,1.07,1.68,1.39,1.59,1.12-.29,3-.89,3.06-1.59,1.3-8.8,7.48-15.44,10.47-23.55,1.22-3.29,4.21-6,3.56-10.09-.59-3.69,2.05-5.58,4.3-7.48a13.69,13.69,0,0,0,5.3-11.89c-.08-3.18,3.31-6.31,4.19-9.7.75-2.9-.26-6.23.3-9.22.37-2,2.53-3.58,3.21-5.58,3.95-11.58,11.95-21.28,15.21-33.15,5.47-4.22,5.41-11.73,10.88-16.52,11.13-9.77,10.62-10.25,26.32-9.63,2.89.11,4.3,1.35,4.53,3.82,1,10.77,12,9.55,17.64,14.71.63.58,3.37,0,4.07-.84,4.41-5.53,15.08-3.81,15.73-14,.16-2.42,3.39-4.76,5.43-6.92,5.61-6,11.39-11.44,15.09-19.27,3.05-6.44,11.95-9.38,12.77-17.92,10.44-6.89,13.25-20.13,23-27.6,5.49-4.21,7.82-10.63,11.65-16,3.54-5,8.86-8.64,12.83-13.35,2.26-2.66,2.93-6.65,5.15-9.37,2.83-3.46,1.46-11.19,9.47-9.83.4.07,1.15-2.44,1.88-3.67,3.69-6.21,5.08-13.8,11.21-18.56,7.23-5.62,8.75-15.72,16.4-21-.86-7.49,8.33-9.31,9.1-14.68,1-7.37,6.72-10.1,10.82-14,3.59-3.44,2.43-8.54,6.25-11.54,3.62-2.85,6.72-6.4,9.89-9.78,2.19-2.34,2.14-10-.8-12.41-5.95-4.79-8.11-10.57-7.25-18,.53-4.56.71-9.3-4.13-12.18,7.64-5.24.76-15.25,6-20.17,4.83-4.59.24-10.83,4.66-14.47,5.25-4.32,2.8-10.08,2.64-15.07s2.92-8.13,4.59-12.12c1.38-3.29-.45-7.8.48-11.43,1-4.07,4.49-7.15,5.68-11.58.67-2.48,4-4.31,3.44-7.83-.1-.61,7.44-17.35,7.73-17.65a8.15,8.15,0,0,1,1.65-1.62c5.85-3.31,3.25-9.57,5.17-14.11,1.67-4,6-6.7,8.45-10.46,1-1.65.48-4.59.06-6.83-.23-1.22-1.85-3.28-2.55-3.16-7.24,1.18-15.36-3.73-21.9,3.23-1.08,1.15-5.29,1.44-5.93.56-3.34-4.54-7.86-4-12.42-4-11.6,0-23.21-.21-34.8.11-5.8.15-12.49-2.55-16.87,4-4.56.19-9.13.25-13.68.6-10.29.81-21.28-2.89-30.56,4.62H451.63a40.1,40.1,0,0,0-6.94.13c-.86.16-1.58,1.78-2.06,2.87-.11.26.93,1.43,1.56,1.54,5.14.91,11.32-2.22,15.34,1.9,3.4,3.48,8.37,2.27,11.64,6.16s9.52,0,14.31,4.76c6.52,6.51,8.95,15.42,15.77,21.7,4.31,4,.62,17.65-5,19.87-5.08,2-9.35,4.4-12.69,8.53a6,6,0,0,1-6.07,2.12c-9.42-1.67-20,4.45-28.4-4.27-.4-.42-1.43-.26-2.16-.32-9.08-.75-19.25,3.14-27-1.76-8.36-5.26-16.4-1.4-24.42-2.78-3.76-.64-7.72-.11-11.58-.11-3.32-5.75-10.16-2.85-13.91-5.34-4.16-2.76-7.72-4-12.4-4-28.61.09-57.22.22-85.83-.11a25.63,25.63,0,0,0-14,4c-4.78-8.69-7.67,3.3-12.87,1.17-4.64-1.9-10.66-.4-16.08-.4s-10.83.11-16.23-.13c-.76,0-1.44-1.84-2.16-2.82,3.72-2.12,3.57-6.21,5.06-9.5.41-.9,2.53-1.22,3.92-1.44,8-1.26,8.18-1.2,8.85-8.68.23-2.52.8-4.58,3.16-5.18a5.63,5.63,0,0,1,6.09,2c1.44,1.8,3.39,3.19,4.83,5,1.31,1.63,2.27,2.19,3.32,1.12.5-.51,1.21-1.17,1.22-1.78.1-4.64,0-9.28.07-13.92.1-5.78.14-5.79,6.5-6.43a9.48,9.48,0,0,1,2.32,0c2.68.42,4.64-.88,5-3.27.43-3.06-.17-5.2-4.4-6.29-6.72-1.75-11.6-7-13.83-13.51-1.63-4.72-6.22-8-5.13-14.29,1.18-6.74.27-13.84.27-20.68,3.93-3.93,8.1-7.48,11.51-11.65,5.73-7,12.24-9.59,21.74-9.53,81.19.5,162.38.3,243.57.27,6.65,0,13.77,1.57,18.95-4.62l18.27-.71c3.07-6.45,10.69-1.52,13.95-5.14s8.16-2.92,11.66-6.1,9.48-3.69,12.71-8.38c3-4.37,10.18-2.85,12.77-8.25,2.25-4.69,7.91-3.31,11.33-6.41,3.71-3.36,9.92-3.34,12.69-8.36,2.46-4.46,8.88-1.85,11.25-6.54,2.62-5.2,9.12-4.66,12.76-8.26,4.47-4.43,12.63.54,15.89-6.51,4.59-.11,9.19-.32,13.78-.3,6.66,0,11.7,3.52,11.75,10.53,0,6.65,3.48,10.84,8.12,12.23s6.78,2.34,6.13,7.12c-.59,4.32.69,8.43-2.77,12.89-4.3,5.52-1.44,13.21-1.62,19.95,0,.72,2.22,1.75,3.56,2.2,9.45,3.17,16.68-6.3,25.9-4.6,4.81-5.45,13.17-8.51,12.07-17.93,4.64-9.68,9-19.47,14-29,3-5.76,4.89-12.08,10-16.84,4.13-3.83,7.86-6.61,13.89-6.12,2.22.18,4.66-2.32,7-3.6,2.27,4.69,8.43,2.67,11.23,6.54.89,1.24,3,2.14,3.11,3.31.56,6.85,6.72,9.69,9.69,14.65,1.71,2.86.32,7.47.75,11.25.55,4.93-6.68,6.64-4.7,12-2.69,2.75-5.51,5.4-8,8.29a35.61,35.61,0,0,0-6.23,9c-7.15,15.6-7.51,15.34-6.06,18.32,2.8,5.79,5.38,11.7,8.28,17.44.86,1.7,3.9,3.08.63,4.89-4.18,2.31-.47,12.28-9.54,9.71-.37-.11-1.17.94-1.61,1.56-5.34,7.54-11.23,11.67-17.74,12.2-2.31.19-4.9-.63-6.91.17-4.2,1.66-8.62,4.33-8.28,9.41.35,5.27-1.26,9.15-5.38,11.72-4.37,2.71-3.3,8.06-6.42,11.36-2.53,2.68-7,4.35-6.85,8.67.14,4.88-6.82,6.61-4.77,12-2.86,2.56-4.27,5.54-5.25,9.49-.8,3.21-4.72,6.1-7.88,8.19-8.56,5.68-10.16,16.61-17.85,22.94-1.32,1.08-1.19,4.09-1.47,6.24s0,4.2-1.83,6.26c-5.27,6-14.44,9.74-12.37,20.49.27,1.38-2.57,3.49-4.14,5.08-6,6.06-12,12.05-18,18.07,1.16,8.73-11.08,10.37-10.09,19-3.74,3.87-7.4,7.82-11.25,11.57s-2.86,10.23-8.18,12.86-2.72,10.05-8.11,13c-3.24,1.76-4.77,5-5.45,9.34-.48,3.08-5,5.51-7.75,8.27-1,1-.6,2.26,1.24,3.23a3.42,3.42,0,0,0,2.26.08c3.13-.82,10.81-6.9,14.05-10.89a11.91,11.91,0,0,1,3-3c10.63-6,10.49-6,16-16.61,1.85-3.55,3.71-.3,4.75,1,1.45,1.88,3.21,2.11,3.2,0,0-8.28,3.56-14.38,10-19.12-1.15-5.69,4-7.67,6.48-11.26,2-2.91,2.92-6.68,5.14-9.39,1.76-2.15,3.2-5.59,9.25-3.7,1.4.46.77-.58-.11-1.29a1.39,1.39,0,0,0-2,2,9.14,9.14,0,0,0,2.74,2.11c.17.1.93-.89-.66-2.78-2.88-4.27-.38-5.37,1.14-6.9,15.73-15.8,31.57-31.49,47.25-47.34,12.4-12.53,12.42-12.33,24.88-16.93,3.05-1.13,5.19-4.72,7.74-7.18-8.54-4.44.85-8.3,1-12.44.13-3.47,5.43-6.76,8.46-10.11a11.42,11.42,0,0,1,1.63-1.63c3.73-2.72,11.17,1.71,12-3.31.87-5.45,4.17-7.8,7.06-11,3.07-3.43,6.45-6.59,9.8-9.76.41-.38,1.49-.05,4.39,1.3,1.4.45.77-.58-.11-1.29a2,2,0,0,0-2,0,2,2,0,0,0,0,1.94,9.47,9.47,0,0,0,2.74,2.11C811.57,241.7,812.33,240.71,810.74,238.82Zm-225,218.89c0-.69.27-1.65-.07-2a2,2,0,0,0-2,0c-1.53,1.08-3.43,2.4-.64,4,.37.21,1.76-1.3,5.37-8.35a16.8,16.8,0,0,0-2.64,2.24,1.39,1.39,0,0,0,2,2,9.36,9.36,0,0,0,2.1-2.73C590,452.67,589,451.92,585.79,457.71Zm5.37,53.63c-.72,0-1.59-.25-2.14.06-1.16.65-2.94,1.47-3.09,2.45-.68,4.29,2.74,1.58,4.22,2a3.17,3.17,0,0,0,4.35-2.65c.07-.44-2.17-1.26-8.71,4.81,0-.69.27-1.65-.07-2a2,2,0,0,0-2,0c-1.53,1.07-3.43,2.4-.64,4C583.49,520.29,584.88,518.77,591.16,511.34Zm-218.89,265a36.91,36.91,0,0,0-.13-6.66c-.18-1-1.64-1.8-2.63-2.54-.08-.06-1.41.95-1.44,1.5-.25,4.4-.49,8.81-.33,13.21a4.8,4.8,0,0,0,2.35,3.31c2.05,1.08,2.65.14,2.26-2.15s-.08-4.44,9.1,1a7.74,7.74,0,0,0-.45-1.65c-1-2.06-2.48-2.28-3.13-.33-1,2.92-5.71,1.67-5.6,5.46-7.78,5-8.95,15.17-16,20.78a10.24,10.24,0,0,0-2.51,3.5c-2.79,5.71-3.5,12.46-8.61,17.05a10.25,10.25,0,0,0,2.1,2.74,2.75,2.75,0,0,0,2.22,0c1.31-.47,3.71-1.47,3.63-1.78-1.36-5.89,5.09-8.34,5.72-13.86.6-5.31,9.73-7.09,8.84-14.47,3.76-3.77,7.49-7.56,11.29-11.29C380.56,788.58,382,787,372.27,776.3Zm9.28-74.63a16.55,16.55,0,0,0,3.87-1.63c5.72-4.43,9.11-11.6,17.46-13.07,3.38-.59,1.55-5.25,1.85-8.09.41-3.9-1.82-5.07-5.37-5.13-2.51,0-3.29-1.74-4.05-4.21-1.45-4.73-2.37-3.95-6.16-1.34-6,4.15.39,12.25-6.08,16-1.26.73-1.33,4-1.46,6.07-.22,3.78-.06,7.59-.06,13.46,0-.69.27-1.65-.08-2a2,2,0,0,0-2,0c-1.53,1.08-3.44,2.4-.64,4C379.25,706,380.63,704.45,381.55,701.67ZM219.08,836.8a40.43,40.43,0,0,0-.13-7c-.16-.88-1.76-1.61-2.84-2.12-.23-.11-1.41.93-1.52,1.55-.25,1.49.53,3.8-.25,4.46-12,10.31-13.57,28.38-27.55,37.19,1.08,5.62-3.42,8.1-6.6,11.08a9,9,0,0,0-2.92,8.1c.13,1.48.45,3.69-.35,4.38a12.85,12.85,0,0,0-4.78,9.65c-7,4.43-8,11.68-10.13,19-1.95,6.69-8.38,11.84-8,19.79.06,1.31-.53,3.34-1.48,3.89-7,4.07-6.7,13.34-13,17.81-3.46,2.44-4,5.81-4.16,9.89-.16,5.76-7.34,9.81-4.49,16.56-4.51,3.19-3.55,9.53-7.56,13.09a5.8,5.8,0,0,0-1.61,3.87c0,1.31.59,3.42,1.52,3.83,5.18,2.3,10.93,1,14-3.32,2.05-2.88,2.81-6.76,5.08-9.38,4.53-5.23,9.09-10.81,14.76-14.56,6.29-4.15,5.33-12.3,11.18-16.43,3.72-2.62,6.23-7,10-9.53,4.27-2.89,2.39-8.65,6.41-11.33,5.68-3.77,7.86-9,6.56-15.76-.64-3.31,1-5.49,3.07-8,3.69-4.48-.92-12.46,6.17-16,.3-.15,0-1.46,0-2.23-.06-6,.05-11.44,4.27-16.85,2.2-2.82.16-8.21,4-12.22,3.23-3.36-.42-10,4.91-14.19,3-2.38-1.07-8.66,3.39-12.34C221.18,846.29,218.32,841.07,219.08,836.8ZM692.59,224c-.49-1.42-.55-3.47-1.47-4-5.73-3.22-17.2-1.23-20,4.55-2.65,5.43-5.56,10.23-9.93,14.32-.88.82-.91,2.68-1.09,4.09-1.66,13.18-11.66,22.76-15.1,35.16-8.76,6.36-9.94,17.55-16.25,25.46-1,1.31-1.1,2.42.91,3.2,1.33.52,3.38.92,4.38.26,10.94-7.13,13.92-21.11,24.51-28.69,3-2.13.81-7.26,4.78-9.62,1.24-.74,1.35-4.05,1.31-6.16-.11-6.43,3.94-9.2,9.13-11.13,1.33-.5,3.77-.85,3.83-1.47.92-8.54,8.34-12.13,13.26-17.51C693.4,229.61,692,226.71,692.59,224Zm-264.68,8.88a38.13,38.13,0,0,0,6.77-.14c.77-.14,1.85-2.72,1.76-2.78-2.87-2.12-4.08-6.18-8.63-6.48-5.32-.37-8.6.54-9.12,3.68-.67,4,1.41,5.67,7,5.72Zm-18.5,496.6c-.53-1.27-.72-3-1.66-3.74-2.33-1.85-7.06-1-7.41,1.53-.42,3-.45,5.9-3.3,7.64-2,1.23-2.1,2.16,0,3.19a4.13,4.13,0,0,0,1.93.7A12.34,12.34,0,0,0,409.41,729.43Zm282-324.85c1.39-.24,3.41,0,4.07-.82,2.58-3.27,1.79-8.57,6.33-10.79-1.17-.77-2.26-1.94-3.54-2.2s-3.39-.12-4,.71c-2.59,3.27-1.79,8.57-6.33,10.78Zm-63.86,67.31c-1.17-.78-2.25-2.05-3.5-2.24-5.41-.81-7.05,4.42-10.43,6.88,1.16.77,2.23,2,3.49,2.24C622.72,479.82,624.05,474.15,627.58,471.89ZM390,754.22c-1.28-.5-2.53-1.33-3.83-1.44-4.49-.36-5.59,4.22-8.5,6.2-.23.16-.16,1.12.08,1.5.38.6,1,1.34,1.57,1.47C383.14,762.78,390.09,757.68,390,754.22Zm-87.29,63.49c3.58-.21,4.92-1.71,4.45-5.72-.14-1.24-1.42-2.35-2.18-3.52-.52.5-1.06,1-1.57,1.49a32.25,32.25,0,0,0-3.12,3.18,16.15,16.15,0,0,0-1.44,3.12Zm13.83-30.29a30.78,30.78,0,0,0-.07-4.51c-.09-.6-1.16-1.62-1.5-1.52-1.09.35-2.85,1-2.93,1.75a56.69,56.69,0,0,0-.07,9c0,.56,1.17,1.62,1.5,1.51,1.1-.35,2.62-.91,2.94-1.78C316.93,790.58,316.56,788.93,316.56,787.42ZM574.93,529.17c2.32-1.36,2.41-5.93.08-7.66a1.71,1.71,0,0,0-1.54-.11c-2.36,1.29-2.43,5.9-.11,7.63C573.72,529.3,574.4,529.14,574.93,529.17ZM427.23,709.36c0-.53.13-1.2-.14-1.56-1.73-2.33-6.34-2.26-7.63.11a1.71,1.71,0,0,0,.11,1.54C421.29,711.78,425.87,711.69,427.23,709.36ZM124.6,1021.28l1.65-1.65a14.88,14.88,0,0,0-3.12-1.45c-.38-.08-1,.94-1.53,1.45Zm266.9-99.8,1.66,3c.51-.51,1.53-1.14,1.45-1.52a15.16,15.16,0,0,0-1.45-3.12Zm34.82-191.3-3,1.65c.51.52,1.14,1.54,1.52,1.46a14.47,14.47,0,0,0,3.12-1.46C427.45,731.32,426.94,730.8,426.32,730.18ZM497.6,615.79c-.52-.52-1.15-1.54-1.53-1.46a14.63,14.63,0,0,0-3.11,1.46c.51.51,1.14,1.53,1.52,1.45A15.16,15.16,0,0,0,497.6,615.79Zm18.56-18.57c-.51-.52-1.14-1.54-1.52-1.45a14.4,14.4,0,0,0-3.12,1.45c.52.51,1.15,1.54,1.53,1.45A13.9,13.9,0,0,0,516.16,597.22ZM668.68,421.49l-1.65-3c-.52.51-1.54,1.14-1.45,1.52a14.18,14.18,0,0,0,1.45,3.12Zm8.3-8.3,1.65-1.65a14.58,14.58,0,0,0-3.11-1.45c-.39-.08-1,.94-1.53,1.45Zm-65.66-8.61c-.51.51-1.53,1.14-1.45,1.53a15.08,15.08,0,0,0,1.45,3.11c.52-.51,1.54-1.14,1.46-1.52A14.47,14.47,0,0,0,611.32,404.58Zm10-.67,1.65-1.65a14,14,0,0,0-3.12-1.45c-.38-.09-1,.93-1.52,1.45ZM234.66,269.29l3-1.65c-.52-.51-1.14-1.53-1.52-1.45a14.43,14.43,0,0,0-3.12,1.45Zm175.41-39.45c.54,1,1.1,2,1.65,3,.52-.52,1.54-1.15,1.45-1.53a14.11,14.11,0,0,0-1.45-3.11Z"/><path d="M950.18,1012.67c6.23-6.23,9.88-9.23,12.72-12.85,5.73-7.31,13.53-11.71,21.8-14.69,4-1.46,6.25-4.16,8.71-6.75,1-1.06.41-4.14-.19-6.08s-1.65-1-3.24.42c-5.93,5.49-15.21,5.14-20.7,11.57-7.92-2-13.32,6.28-21.06,5.19-4.81-.68-6.59,6.69-12,4.65-2.46,3-5.31,5.34-9.56,4.92-3.53,7.64-13.75,1-17.49,8.2-6.61.44-11.11,8.14-18.64,5.42-3.69,7.63-13.28,1.59-17.78,7.64-.72,1-2.53,1.38-3.9,1.6-5,.8-10.39-1.59-15,3.23-3.41,3.55-8.85.51-13.19,1.58-2,.49-3.52,2.84-5.52,3.4-6.94,1.92-12.7,7.62-20.86,5.88-5.3-1.14-8.21,7-14.3,4.54-1.33-.53-2.91-.55-4.11-1.26-1.36-.81.16-1.7.79-3.28a83.52,83.52,0,0,1,23.1-32.24c4.07-3.55,7.43-7.93,11.58-11.36,6.89-5.69,11.26-13.93,20.72-17.19,7.51-2.6,10.21-13.28,19.68-14.06,6.14-5.36,10.48-13.07,19.4-14.83.23-.05.54-1.17.35-1.55-.33-.66-1.07-1.63-1.58-1.59-4.34.32-8.65-1.32-12.74,2.91-6.17,6.38-21.24,13.9-30.64,15.21-4.31.59-5.54,5.07-9.64,5-3.7-.07-7.16-.46-10.52,2.78-4.23,4.07-10.22,1.2-15.42,1.65-.67.06-2-2.18-2.24-3.49-.61-3.59,1.25-7.8-2.69-10.5-1.81-1.23-2.08-2.12-.85-3.32,3.33-3.23,6.58-6.54,9.87-9.83l16.4-16.4c-1.57-8.88,11.21-10.21,10.1-19.16-.17-1.42,2.75-4.1,4.72-4.75,9.9-3.25,15.61-11.53,22.61-18.23,7.26-6.95,14.29-14.15,21.32-21.34a10.81,10.81,0,0,0,1.94-3.81,2.71,2.71,0,0,0,0-2.24,12.67,12.67,0,0,0-2.79-2c-6,8.08-17.37,9.54-22.66,18-3.22,5.18-10.06,3-13.08,8.06-2.41,4-7.26,4.68-10.95,6.89-6.24,3.74-13.6,6.23-18,12.66-10.84,1.34-18.69,12.69-31,9.29-6.8,6.94-15.52,4.29-23.6,4.51a4.18,4.18,0,0,1-3.07-2.69c-1.28-11.47-.05-22.76,8.62-31,4.59-4.38,4-11.62,9.66-14.66,5.29-2.81,4-9.41,8.11-13,4.67-4,10.49-7.92,12.87-13.2,6.25-13.85,19.06-21.42,28.19-32.4,2.79-3.35,8.07-5.28,6.69-11.15,2.86-2.37,5.39-5.78,8.67-6.81s4.14-2.37,5.53-5.46c3.27-7.29,7.06-14.35,13.2-20.14,13.49-12.74,26.43-26.07,39.46-39.3,4.23-4.3,8-9,12-13.55-.45-8.8,10-4.62,12.56-10.64,1.65-3.84,7.18-5.78,6.31-11.31,3.37-2.3,3.68-6.12,5.2-9.44s5.22-5.57,7.92-8.33c4.37-4.45,4.73-4.69,3.62-6.5s-3.18-3.34-5.13-5.29c-1.52,1.32-3.15,2.58-4.6,4-5,4.88-10.08,9.63-14.72,14.81s-12.9,4.66-16.19,11.43c-5.88,1.72-9.82,6.47-14.73,9.44-4.66,2.82-9.62,6.28-15.58,7.13-1.91.28-4.11,4.09-5.19,3.68-7-2.66-10.77,5.6-16.72,4.75-6.49-.93-9.88,6.46-16.71,5-5.17-1.11-10.78-.22-16.19-.22a68,68,0,0,1-9.26-.14c-1.25-.17-2.12-2.39-3.44-2.8-5.51-1.7-9.79-6-15.79-6.84-2.49-.34-2.17-3.68-2-5.93.22-3.17,0-6.15-2.94-8.07-2.49-1.6-2.22-5.75-1.62-6,8.42-3.49,1.18-13.57,7.81-18.05,1.63-1.1,1.72-5.72,1.22-8.5-1.41-8,2.15-14.82,5.75-20.87,11.42-19.17,18.83-40.39,30.88-59.2,1.46-2.28.06-7.5,3.47-7.18,5.38.52,7.11-4.86,12-5.25C862.27,570.88,871,577,869,586c-.95,4.35-6.49,6.53-5.24,11.76-5.45,6.08-13,10.54-14.77,19.41-3.86,1.43-9.68.68-8,8,.46,2,.71,4.33-1.47,6.34-3.78,3.49-8.52,6.57-8.28,12.76-4.88,2.91-4.14,7.68-4.07,12.24-7.57,7.56-3.83,17.15-4.62,25.92-.34,3.75,1.4,5.49,5.26,5.41s5.07,5.66,9.69,4.65c4-.88,7.32.6,10,3.86.7.84,3.63,1.22,4.14.62,4.63-5.43,10.93-3.74,16.73-4.78,4.77-.86,9.47-3.4,13.63-6.09,4.89-3.16,11.6-3.69,14.57-9.71,9.72-3.3,15.41-11.65,22.77-18,6.79-5.81,11.52-13.48,20.51-17.57,7.24-3.3,12.31-11.26,18.54-16.94,4.49-4.09,3.7-11.13,9.66-14.78,5.12-3.15,8.9-8.5,13.28-12.87l13.13-13.13c4.37-4.38,8.73-8.77,13.13-13.12,6.27-6.21,22.18-14.82,32.5-16.64,3.55-.62,4.9-3.34,7.47-4.53a5,5,0,0,1,6.23,1.16c2.29,2.86,6.2,4.64,5.49,9.37-.46,3,.58,5.51,2.49,8.27,3.51,5.08,3,5.42.72,7.79-1.06,1.12-2.22,2.15-3.27,3.29q-7,7.55-13.92,15.11c1,7.91-11,8.76-9.28,17-2.66,2.77-5.64,5.3-7.87,8.38-1.64,2.25-1.71,5.75-3.53,7.71-2.41,2.59-2.7,5.24-2.52,8.31.13,2.35-.2,4.43-2.24,6-6.38,5.05-10.07,13.56-19.4,14.91-.7.1-1.47,2.49-1.5,3.84-.09,3.81.09,7.2-3.32,10.34-4.86,4.46-11.1,8.25-11.61,16-4.59,2-9.09,4.22-13.78,5.94-2.36.87-4.26,1.7-3.83,4.52.95,6.18-.84,10.16-7.8,10.3-1.52,8-8.33,12.13-13,17.86-4.17,5.08-11.72,7.64-11.92,16,0,1.69-3.21,3.15-4.54,5-3.24,4.49-7.8,6.7-12.89,8.18,0,6-4.21,9.62-8.29,12.72-6.24,4.75-6.94,13.09-13,18-5.36,4.38-10.91,9.11-14.59,14.83-4,6.12-5.79,13.62-14.75,14.31q-9.86,9.84-19.69,19.69c.54,10.73-13.07,12.15-14.42,21.94-.35,2.54-3.28,4.85-5.31,7-4.24,4.49-8.8,8.69-12.92,13.28-.76.85-.69,3.74.07,4.36,1.58,1.28,5.08,2.86,5.71,2.23,4.3-4.27,11.51-3.56,14.93-9,4.4.43,7.31-.53,7.18-6-.06-2.31,2.45-2.75,4.72-3.58,7.38-2.67,14.06-7,21.36-10,3.41-1.41-.06-10.24,7.75-8.33,3.18-3.23,7.67-4,11.35-6.15,3.24-1.9,5.59-5.31,8.33-8.06,3.28-3.28,6.87-6.32,9.73-9.93,1.71-2.15,1.64-6,3.58-7.61s5.24-2.19,7.86-3.19c8.93-3.43,14.63-10.4,20.85-16.8,2.92-3,5.89-4.57,10-4,2.42.35,5.57-.47,5.5-2.58-.23-6.65,5.32-8.9,8.69-12.71,4.09-4.63,9-8.53,13-13.27,3.79-4.54,9-7.5,11.46-13.78,2.06-5.29,7.31-9.53,11.68-13.67,5.9-5.6,10.34-13.09,19.3-15,1.9-.42,3.55-2.94,4.9-4.79,1.66-2.28.34-7.83,3.35-7.35,6.18,1,8.11-7.62,14.43-5.13a5.34,5.34,0,0,0,6.09-1.93c3-3.56,6.08-3.54,9.61-.32,1.47,1.34,3.9,1.68,5.93,2.36,3.91,1.29,3.27,4.47,3.22,7.43L1057,724.79c-5.52,3.31-6.49,9.74-10,14.39-3.21,4.29-7.47,7.81-11.37,11.57a55.06,55.06,0,0,0-11.76,16c-2,4.24-2.4,6.91,1.1,9.65,2.28,1.8,1.71,4.07,1.73,6.27.07,6.19,0,12.38,0,18.57,0,2.55,6.42,2.43,2.87,6.63-1.22,1.44-4.12,2.86-.8,4.82,1.16.69,3.48.95,4.38.26a92.47,92.47,0,0,0,8.4-7.82c4.41-4.34,8.17-9.7,13.31-12.84s10.62-5.23,14.28-10.14c1.79-2.4,4.21-1.69,6.33-1.49,3.4.32,5.37-1.82,8-3.19,8.63-4.44,17.27.81,17.45,9.95.06,3.1-.19,6.21,0,9.28.35,4.45-.51,7-5.91,7.38-2.42.18-4.57,3.62-6.9,5.5-5.24,4.21-8.62,10.35-15.53,12.95-6.43,2.41-6.15,10.92-11.91,14.92-4.81,3.33-9.06,7.17-14.5,9.9-4.59,2.31-7.66,7.52-11.7,11.11-2.53,2.26-3.34,4.63-3.31,8,.18,19.34.07,38.68.1,58,0,4.61.12,4.72,4.89,2,6.25-3.52,12.87-6.32,19.21-9.67,4.57-2.42,9.64-3.7,12.82-8.32,2.64-3.84,8.88-1.93,11.16-6.59,5.11.91,7.64-5.61,11.69-5,6.11.93,9.4-4.21,14.38-4.82,4.57-.56,9.27,0,13.9-.14s8,4,8.51,6.58c1.38,6.3,2.41,12.73-3.2,19-4.82,5.4-12.62,5.54-16.32,11.29-3.6,5.58-10.82,4.46-14.85,9.57-3,3.85-6.24,7.85-12.09,9.75-5.27,1.7-9.16,7.67-13.64,11.77-.57.52-1.17,1.62-1.64,1.56-7.57-1-9.21,7.39-14.75,9.29-6.86,2.34-12.88,6.35-19.44,9.1-3.09,1.3-5.42,1.63-5.32,5.52.14,5.41.61,10.9-.08,16.22-1.44,11,4.35,22.93-4.42,33-.77.88,0,3-.12,4.55-.38,8.1,1.62,16.36-4.33,23.84-1.89,2.37-.62,7.54-.16,11.35.22,1.81,1.57,4.52,4.13,1.34.48-.59,1-1.51,1.64-1.58,4.48-.47,9-.73,13.48-1.14,3.78-.34,5.06-5.65,9.69-4.68,6.23,1.3,11.74-.67,16.63-4.59,5.88,1.89,9.64-2.86,14.29-4.71,5.41-2.14,10.12-6.57,16.65-4.63,4.17-6.56,10.84-3.86,16.64-4.75,2.51-.38,4.76-2.52,7.13-3.86,2.17,4.67,9.85,2.47,10.59,6.72.84,4.82,2.61,10.8-1.5,15.36s-8.7,8.8-13.09,13.16a4.64,4.64,0,0,1-1.8,1.23,3.81,3.81,0,0,1-2.29,0c-6.09-2.38-9,4.64-14.33,4.81-3.41.11-6.54,7.36-10.26.3-5.36-.14-10.83-1.06-16-.22-5.62.9-10,6.83-16.68,4.43-4.18,6.44-10.72,4.43-16.64,4.64-4.53.17-6.51,6-12,4.86-4.21-.83-8.23.33-12.67,2.93-4.65,2.73-12.09.17-17.76,1.81-4.78,1.38-8.66,4.81-14.42,4.51-11.57-.61-23.2-.4-34.8-.09-5.8.15-12.53-2.51-16.81,4.15-1.64-1.37-4.68-4-4.72-3.94-7.57,8.55-17.43,3.29-26.09,4.14-9.2.9-18.6-.4-27.82.36-10.24.85-21.32-3.9-30.71,4.32-1.32,1.15-4.51.16-6.83.16-12.37,0-24.78-.54-37.11.21-7.16.44-12.77-2.7-19-4.76-5.87-1.93-1.82-3.43-.4-5.76,5-8.21,4.83-8.15,10.16-8.32,5.85-.19,12.52,2.15,16.69-4.47,5.4,0,10.8-.09,16.2-.1,6.19,0,12.39.24,18.56-.08,5.09-.26,8.16-6.26,14.37-4.77,4.39,1,9.24.2,13.88.2,5.41,0,10.84-.23,16.23.09,3.44.2,5.56-1.27,8-3.38,1.42-1.24,4.27-.68,6.31-1.4,5.69-2,8.68,8.93,13.81,3.74,5.46-5.51,11.38-3.19,17.18-3.61,5.39-.39,10.82-.08,16.24-.08s10.86-.41,16.23.1c7,.67,11.42-8.22,19-4.74,5.62-5.79,14-9.56,12.32-20.24-.8-5.07.57-10.48,1-15.73,5.65-3.88,3.07-9.74,3.4-14.8.36-5.4-.1-10.84.22-16.23.07-1.18,1.75-2.49,3-3.33,1.91-1.3,2.06-2.87-.2-3.2-4.49-.65-9.88-2.13-13.45-.35-4.78,2.37-8.89,4.88-14.53,4.35C964,1012.29,958.68,1012.67,950.18,1012.67Zm-78.76-88.35c9.08.37,16,.87,20.35-6.37,1.83-3.08,5-3,8.1-2.77,2.3.14,5.13.24,5.9-2.2.85-2.67-.24-5.85,3.72-7.15,4.73-1.56,10-2.85,13.71-5.83a168.86,168.86,0,0,1,14.41-10c4.86-3.13,9.24-6.95,14.61-9.65,5.85-3,8.1-10.48,16-12,5.42-1,7.18-10,14.67-9.14,6.3-5.12,10-13.61,19.38-14.73,2.92-9,.9-18.18,1.1-27.27,0-2.34-2.51-4.73-3.87-7.1,6.92-4.56,1-7.2-1.82-9.68-1.29-1.15-4.34-1.42-6.06-.74-2,.8-3.35,3.08-5,4.72l-13.1,13.11c-4.37,4.37-8.71,8.77-13.12,13.09s-3.91,11-9.67,14.71c-5.07,3.26-8.88,8.51-13.25,12.87-21.3,21.3-42.59,42.6-63.89,68.28,0-.69.27-1.65-.07-2a2,2,0,0,0-2,0c-1.53,1.08-3.43,2.4-.64,4C871.29,928.78,872.68,927.26,871.42,924.32Zm-5.26,78.59c.54-.23,1.33-.3,1.59-.71,2.48-3.9,6.43-3,10.12-3.66,3.38-.6,6.42-4,9.69-4.17a16.9,16.9,0,0,0,12-5c4.13-3.85,9.4-8,14.65-8.73a40.76,40.76,0,0,0,14.21-5.08,148.61,148.61,0,0,1,15.39-7.49c6.62-2.67,12.23-8.64,20.44-6.52,3.32.86,5.33-1.75,8-3.1,7-3.57,14.51-6.08,20.94-10.79,8.59,1.44,3.61-9,9.14-10.47,1.55-.42.94-1.84-.74-3.22-3.54-2.9-3.91-6.24-.34-9.46,2.57-2.33,3.63-5.36,1.34-7.83-5.88-6.33-5-11.59.6-17.68,2.71-2.95-.61-7.08-5.23-7-3,0-5.9-.52-8.35,2.25-3.57,4-8.1,7.3-11.23,11.61-3,4.12-8,3.69-11.26,6.49-4.08,3.5-7.09,9.38-11.66,10.89-5.47,1.81-8.7,5.37-12.69,8.58-3.55,2.85-10.37,2.3-9.56,9.59,0,.48-1,1.56-1.56,1.55-9.26-.1-11.85,8.74-17.64,13.23-3.62,2.81-6.6,6.45-9.87,9.72-8.14-1.79-5.86,8.65-9.57,9-5.54.58-7.85,4.12-11.09,7-2.87,2.57-5.24,5.73-8.27,8.06-3.37,2.57-7.36,4.32-10.77,6.85-.68.5-.12,2.9.17,4.37C864.71,1001.89,865.61,1002.37,866.16,1002.91Zm94-347-3,1.65c.51.52,1.14,1.54,1.52,1.46a14.47,14.47,0,0,0,3.12-1.46ZM975,643l-1.65-1.65a15.08,15.08,0,0,0-1.45,3.11c-.08.38.94,1,1.45,1.53Z"/><path d="M628.46,1025.05c14.81,15.31,10,20.19,5.55,25.38-2.74,3.2-5.84,4.66-10,4a4.12,4.12,0,0,0-2.29,0c-5.72,3-11.13,8-17.12,8.83-10.63,1.46-21.61.41-32.44.41-.77,0-1.83.32-2.27-.06-1-.93-2.46-2.13-2.56-3.32-.33-3.84.45-7.84-.32-11.55-.55-2.66-3.56-4.76-4.32-7.44-2-7.21,4.92-11.9,5.82-18.39,7.66-7.66,15-15.74,23.16-22.76,3-2.6,7.83-3.31,11.38-6,2.21-1.68,5.92,1.34,5.93,4.52s-.33,6.24.14,9.27c.24,1.55-2.49,5,2.19,4.69,1.54-.12,4.08.56,4.48-.11,3.36-5.69,10.86-4.42,14.83-9.61,4.67-6.09,10.57-11.29,16.3-16.48a11.11,11.11,0,0,0,3.88-10.06c-.45-5.36,6.55-8.12,4.79-14.38-1-3.51-1.53-4.87-5.69-5.14s-7.34.52-10,3.91c-6.2,7.78-17.31,7.7-24,14.71-6.83-1.48-11.94,1.15-15.8,6.67-2.09,3-5.18,2.43-8.19,2.73a12.71,12.71,0,0,0-6,2.25c-14.24,10.34-29,17.47-52.08,25.61-4,1.4-7.11,5-11.64,5.51-5,9-13.5,8.68-22.09,8.34-5.41-.22-10.84-.18-16.25,0-4.45.15-4.79-2.65-4.77-5.92a16.27,16.27,0,0,0-2.27-8.37c-4.17-7.68-3.45-10.15,2.07-15.71,13.64-13.71,27.35-27.36,41-41.07a1.7,1.7,0,0,0,.25-1.58c-.35-.65-1-1.56-1.59-1.59-3.09-.16-7.74-1.36-9,.16-4.18,5.08-9.29,4.49-14.61,4.42-1.5,0-3.64-.44-4.42.36-10.05,10.21-19.39,2.19-28.39-1.51-3.71-1.53-7.71-5.41-6.26-11.11a5.62,5.62,0,0,0,0-2.31c-2.68-14.45,6.43-25.06,12-36.84,6.3-2.78,5.95-10,9.73-14.58,1.75-2.1,1.59-6,3.52-7.68,7-5.94,9.31-15.13,16.13-21.37,13.12-12,25.36-25,37.88-37.61,3.18-3.21,7.82-6.41,8.59-10.26,1.25-6.26,6.33-8.36,9.56-12.34a84.66,84.66,0,0,1,9.82-9.86c3.26-2.88,5.26-8.11,11.14-6.65,1.1-2.63,1.73-5.62,3.42-7.8,2.29-3,10.18-.15,8.24-7.83,2.59-2.8,5.08-5.7,7.81-8.35,1.57-1.51,3.56-3.7,5.33-3.67,5.83.07,4.79-4.19,6-7.53,1.33-3.73,8.3,0,8.58-5.26.19-3.54,1.9-5.56,4.14-7.63,1.11-1,2.16-2.68,3.42-2.88,6.76-1.06,10.36-4.46,11.46-11.52.38-2.48,3.73-4.89,6.25-6.52,2.24-1.46,6.73.15,7.22-3.63a53.28,53.28,0,0,0-.42-13.69c-.29-2.15-2.2-2.28-3.12-.46-2.35,4.65-8.19,2.48-11.47,6.35-3.14,3.7-8.78.56-13.12,1.62-2,.5-3.71,2.24-5.48,3.52-1.17.85-2.35.6-3.25-1.27s.22-10.66,1.48-10.8c8.61-.93,12-8.59,17.74-13.26,1.79-1.47,3-4.09,5-4.75,7.53-2.56,14.31-5.57,12.73-15.3-1-6.52,3.25-13.78-3.12-19.62-3.24-3-1.73-7.44-1.26-10.94,1.28-9.53-2.45-17.33-7-25-.75-1.25-2.06-2.33-2.33-3.66a5.57,5.57,0,0,1,.83-4.17c.79-1,2.53-1.31,3.91-1.55,4.25-.73,5.06,5.45,9.7,4.72,3.77-.59,7.73.11,11.58-.18,5.06-.37,7,1.82,6.36,6.67,5.1,2.81,4,9.25,7.81,13.1,3.51,3.54.12,9.05,1.68,13.15a18.81,18.81,0,0,0,6.9,8.49c1,.67,3.29-4.48,7.1-4.31,4.47.19,5.73-4.59,8.8-6.66-2.18-12.38,8.52-16.94,14.9-23.94,2.83-3.09,8.57-2.16,11.14-6.64,2-3.49,7-3.27,9.19-5.31,4-3.66,8-3.48,12.51-4,1.88-.2,3.34-3.1,5.32-3.79,7.93-2.76,15.82.88,16.62,9.62.46,5,0,9.44,7.15,8.57.53-.06,2.55,5.22,2.13,5.52-6,4.15-2.13,12.53-6,16-6.41,5.73-7.8,14.42-14.35,19.89a52.51,52.51,0,0,0-13.73,17.38c-3.25,6.57-10.47,11.18-15.94,16.65s-10.57,11.4-16.56,16.23c-3.48,2.81-1.83,7.06-4.72,9.81-7.28,6.92-14.26,14.17-21.36,21.29V766.7c0,6.19-.18,12.39.09,18.56.12,2.88-1.43,6.08,1.53,8.66,1.49,1.31,6.05.51,9.47-3.82,4-5.07,8.86-5.32,14.33-4.88,4.16-6.54,10.73-4.58,16.64-4.57,3.25,0,8.48,5.62,9,8.93.71,4.42-2.08,9.59,1.54,13.21,4.28,4.28,4,7.28-.21,11.39-16.57,16.25-32.9,32.75-49.29,49.18-1.55,1.56-3.75,2.82-3.12,5.66,1.42,6.44-3.24,14,3.46,19.46,1.3,1.07.92,2.11-.9,3.3-3.07,2-2.57,5.19-2.57,8.21,0,4.54,1,5.89,4.74,5.9,7.74,0,15.7,1.18,23.16-.27,10.32-2,15.52,4.18,21.53,10.14,3.24,3.2-.68,3.75-1.69,4.88-1.86,2.08-2.06,5.29-.94,6.2,7,5.72,4.82,10.55-1.23,14.56-4.3,2.85-2.78,8.34-6.43,11.38a64,64,0,0,0-9.81,9.86c-3.54,4.59-14.91,3.12-10.75,13.68-3.46,4-6.58,8.36-10.51,11.81-3.42,3-3.81,6.41-3.37,10.27s-4.35,5-4.27,7.33,4.36,3.58,4.31,7.39c-.2,15.47-.38,31,.14,46.41.12,3.63-7.51,4.46-2.58,8.72,3.6,3.1,2.1,7,2.31,10.66.22,3.85,0,7.73,0,11.6s-1.61,9.11.3,11.35c5.73,6.71,4.17,14.16,4.31,21.54.13,7,.1,13.93,0,20.89-.08,5.88-7.2,13.47-12,18-4.07,3.82-9.45,3.55-13.53,7.5s-14.75-1.34-16-7.62c-.86-4.41-.05-8.74-4.18-12.41-1.58-1.41-1.74-7.7-.46-8.52,6.93-4.46,1.47-13.65,7.58-18,2.39-1.69,1.46-4.17,1.47-6.35q.09-23.2,0-46.41c0-6.17-.09-12.34-.13-18.52-7.62-3-2-11.52-26.83-27-19.46-11-19.19-11.95-19.53-12.29a2,2,0,0,0-2,0c-1.53,1.08-3.43,2.4-.64,4C606.7,1017,608.09,1015.45,628.46,1025.05ZM660,917.65c1.19-3.9-3.73-1.7-3.88-4.1-.28-4.55-.22-9.13-.8-13.63-.31-2.39-2.23-3.74-4.93-3.31-2.88.46-5.9-.9-8.55,1.87-7.48,7.83-16,14.78-22.7,23.2s-17.5,11.63-24.57,19.5c-2.58,2.87-5.53,5.41-8.15,8.25-2.09,2.27-.14-1.43.49,1.6a2.16,2.16,0,0,0,1.71,1.23c3.61-.51,7.13.76,10.93-1.71,5.32-3.48,11.5-5.78,17.21-8.68s11.22-6.24,17.46-8.37c3.22-1.11,5.31-4.58,9.69-4.86,2.33-.16,4.15-4.38,6.66-6.11,2.92-2,6.33-3.32,12.19-11.6a16.72,16.72,0,0,0-2.64,2.24,2,2,0,0,0,0,1.94,2,2,0,0,0,2,0,9.57,9.57,0,0,0,2.11-2.73C664.29,912.22,663.3,911.46,660,917.65ZM650.78,801c0-7.72,0-15.44,0-23.16,0-2.24.56-4.94-2-6.06-3.1-1.36-5.57,0-7.93,2.42-8.61,8.86-17.42,17.52-26.15,26.25-.7,7.59-6.78,11.41-11.52,16s-8.35,10.73-16,11.73c-1.82.23-4.43,2.87-4.75,4.73-1.58,9.24-9.43,13.4-15,19.27-10.1,10.64-20.68,20.81-31,31.2-2.16,2.16-5.46,4.17-6,6.72-.66,3.15-1.43,5.58-3.79,7.79a52.75,52.75,0,0,0-5.78,6.85c-1,1.31.93,5.92,2.42,5.73,3.63-.49,8.19,2.15,10.74-1.73s7.35-1.5,9.69-4.81c2.73-3.86,8.48-2.17,11.33-6.45,2-3,5.06-4.71,9-6,3.74-1.19,8.62-2.93,11.27-5.81,3.38-3.66,8.75-1.87,11.68-6.14,1.35-2,5.06-2.33,7.69-3.42-1.84-9.3,9-5.9,11.18-11.18A14.12,14.12,0,0,0,617,858.34c3.18-4.71,9.45-3.36,13.11-8,6.17-7.77,13.71-14.47,20.67-21.62Zm-4.64,88.71c-.52-.52-1.14-1.54-1.53-1.45a14.11,14.11,0,0,0-3.11,1.45c.51.51,1.14,1.54,1.52,1.45A14,14,0,0,0,646.14,889.66Z"/><path d="M618.29,492.78q.18,4.82-4.64,4.64C613.53,494.2,615.08,492.66,618.29,492.78Z"/><path d="M622.93,488.13c.12,3.22-1.43,4.76-4.64,4.65C618.17,489.56,619.72,488,622.93,488.13Z"/><path d="M418.31,778.63c-.54.54-1.3,1.53-1.47,1.43A9.14,9.14,0,0,1,414.1,778a1.39,1.39,0,0,1,2-2A17.35,17.35,0,0,1,418.31,778.63Z"/></svg>