<svg id="Layer_1" data-name="Layer 1" xmlns="http://www.w3.org/2000/svg" viewBox="0 0 1200 1200"><title>BB_Artboard 52</title><path d="M1050.36,943.69c1.89,4.46-5.18,5.47-3.48,10.78.44,1.36-2.39,2.76-4.73,2.59-2.77-.2-5.58,0-9.36,0-.33,0,.59.26.92-.07a1.93,1.93,0,0,0,0-1.87c-1-1.46-2.3-3.29-3.87-.62-.21.36,1.25,1.69,2.92,2.56.63,5.12-4.8,6.37-6.76,10.13-1.56,3,1.15,2.92,3.14,3.26,1.32.22,3.64.86,3.67,1.42.18,3.4-4.45,4.77-3.73,9,.33,1.93-2.38,2.76-4.81,3-5.18.49-2.91,2.45-1.09,5.14,1.58,2.33,3.61-.49,1.53,1.33-5.7,5-10,10.35-9.32,18.45l-16,15c-7.63-1-8.45,10.35-16.33,9a2.09,2.09,0,0,0-1.63,1.22c-1.55,6.72-4.81,10.68-12.22,12.76-4.84,1.36-7.44,8.48-14,9.09-1.91.18-1.59,1.73.19,3.08,1.42,1.07,3.9,2.61.82,4.62-2.36,1.53-3.62,7.39-8,1.66-2.17-2.85-3,1.39-4.57,2.07-3.16,1.36-6.42,1.89-9.36,4.48-4.71,4.15.55,5.49,1.18,7.32-7.8,12.61-22.56,16.43-31.11,27.47-2.28,2.95-5.45,1.73-8.17,1.62-4.67-.2-8.61.39-11.51,4.61-2.14,3.11-5,5.25-9.26,4.4-5.36-1.07-9.3,1.9-13.85,4.15-5.46,2.69-11.12,6.69-18,4.72-15.05,8.23-31.39,2.73-47,4.56-6.2.72-9.46-6-16-4.8-5.44,1-11.67,1.81-16.09-4.05-.81-1.07-4.44-.73-6.43,0-5.91,2-8.72-4.57-13.75-4.53-5.76,0-11.65.7-15.94-4.47-5.47,1.31-9.23-2.92-13.8-4.1a14,14,0,0,1-8.49-6.13c-2.45-3.72-7.27-1.66-9.24-4.66-2.68-4-7.79-2.56-11.13-5.93-2.64-2.66-7.64-2.87-10.52-6.5-2.75-3.46-6.45-6.14-9.28-9.55-3.33-4-9.35-3-12.54-7.69-2.84-4.22-7.16-7.45-10.82-11.11l-11-11c-5.93,0-12.08-1-17.72.27-6.15,1.38-7.73-7.32-13.8-4.78-4.95,2.07-6.68-4.72-11.47-4.55s-10.52,2.19-14-3.51c-4.66.29-7.29-3.82-11.18-5.19-1.29-.46-3-.33-3.93-1.16-5.8-5.26-11.28-10.52-18.41-14.49-6.85-3.82-11.76-11.11-17.52-16.87S512,984.11,506.2,978.34c-.5-.5-1.35-1.19-1.27-1.65,1.48-7.93-9.26-8.74-9.18-16.33.06-5.53-8.09-1.84-9.76-6.6-.14-.39-1.32-.89-1.48-.74-4.19,3.8-7.37,9-13.91,9.44-.46,0-1.34,1.19-1.22,1.6,2.27,8.06-4,11.74-8.13,16.71s-6.87,10.75-11.19,15.28c-11.74,12.34-24,24.2-36,36.24-1.57,1.57-3.42,4.69-4.67,4.47-8.2-1.46-9,9.3-16.35,9.41-2.27,0-4.46,3.26-6.73,5-1.68,1.26-3.42,3.42-5.15,3.45-3.57.06-5.44,2.27-7.06,4.48-3,4.08-6.77,4.68-11.48,4.79s-7.93,6.1-13.73,4.34c-4.73-1.44-8.19,1.47-11.48,4.38-6.94-2-10.85,2.48-15,6.82-2.92,3.07-8.53,1.8-10.69,6.31-4.2-.65-6.76,1.89-9.16,4.72s-5.06,5.29-9.3,4.38c-3.32-.7-5.33,2.86-7.49,3.13-5.79.7-9,7.09-15.52,5.85-5.09-1-7.81,6.51-13.71,4.41-4.25-1.51-5.17,4.73-9.25,4.44-3.56-.25-7.43-1-9.89,2.92-1.5,2.37-4,1.42-6.05,1.43-14.81.06-29.66-.59-44.42.34-5.9.37-7.6-6.8-13.81-5-3.84,1.11-8.94,1.61-11.8-3.27-6.5-.65-12.84-1.64-16.75-7.85-1.4-2.23-3.69-1.82-5.84-2s-4.54-.15-6.11-1.25c-5.25-3.69-8.15-10.16-15-12.12-6-1.7-8.53-7.74-13-11.39-1.63-1.33-4.22-3.56-3.94-4.85,1.52-7.06-3.67-10.34-6.81-15.18s-5.18-10-9.65-13.75a4.88,4.88,0,0,1-1.46-3.74c.67-4.79-2.27-7.85-4.16-11.69-1.76-3.58-1.3-9-.17-13.09,1.83-6.67-3.87-10.54-4.56-16-.64-5-.5-10.19-.71-15.29-6.24-4.22-3.64-10.65-3.73-16.19-.27-16.29-.36-32.6,0-48.88.15-6.22-2.59-13.2,3.74-18.51,1.15-1,.52-4.16.55-6.32.06-5.19,0-10.37,0-15.56V848.72c9.06-5.3-.18-17.68,8.89-23,0-3.7-.06-7.4,0-11.11.08-4.35,5.86-6.25,4.59-11.53-.84-3.5-1.64-8.42.11-10.88,5.63-7.92,3.11-16.65,4.4-25,1.06-6.81,6.25-12.85,4.22-20.41,7.17-4.19,1.27-14.56,8.77-18.59-.85-4.3,2.09-6.6,4.7-9.18,7.91-7.8,15.73-15.69,23.59-23.55,1.57-1.57,3.25-4.59,4.69-4.47,7.87.61,9.3-9,16.15-9.59L169.79,677c4.76.59,6.66-1.53,6.3-6.26,0-.6,1.76-1.34,2.71-2,2.73,4.23,4.72,2.61,8.06.06,2.45-1.88,7.74-.17,10-2.11,3.24-2.77,6.31-3.12,10-3s8.92,1.55,10.81-.3c4.29-4.2,9.92-2.55,13.68-4.74,4-2.32,7.29-3.94,11.83-3.89,14.07.15,28.15.06,42.22,0,2.17,0,4.33-.18,5.88,2,3,4.08,4.36.12,6.27-1.3,2.63-1.94,4.44-5.49,2.38-7.37-3.86-3.5-4.06-7.35-4-11.83.13-10.36-.13-20.74.12-31.1.12-4.87-2.09-10.53,3.61-14,.25-4.34.1-8.76.85-13,1.34-7.6-3.79-16.31,3.86-22.82q.24-15.45.49-30.91c-4.42-3-3.49-9.06-7.31-12.56-5.25-4.81-12.88-6.19-17.27-12.37-.62-.87-3.78-.46-5.91,1.16-4.37,3.3-9.74,7.14-14.6,7-5.89-.18-8.66,6.11-13.69,4.81-6.53-1.68-9.55,7.13-16,4.6-15,8.44-31.37,2.85-47,4.44-4.18-7-14.07-2-18.56-9-3.52-5.51-12.18-4.6-15.33-11.07-8.81-2.55-14.88-9.12-19.9-15.91-4.81-6.5-7.29-14.69-11.15-21.95-2.67-5-5.61-9.79-4.82-15.79-5.59-3.41-4.2-9-3.89-13.89.35-5.36-6.26-7.69-4.8-13.78,1.18-4.9.24-10.31.24-15.5-8.55-9.49-2.93-21-4.34-31.5-.66-5-1.11-10.31,4.19-13.86.69-.47.54-3,.09-4.26-5-14.35-5.12-14.32-1.08-25.7a31.24,31.24,0,0,0,1.13-6.2c1.22-9.06-3.21-19,4.36-27.14.73-.79,0-2.87.1-4.35.23-5.82.49-11.65.74-17.47,6.27-4.26,2.59-10.8,3.83-16.21.75-3.27,5.39-4.87,4.37-9.32-.68-3-.06-5.9,2.81-7.66,2-1.21,2.13-2.27,0-3.12-1.27-.51-3.16-1.16-4.06-.6a30.88,30.88,0,0,0-6.59,5.53c-2.12,2.35-4.35,4-7.58,3.21-4.37-1-6.37,3.51-9.35,4.1-4.25.83-7,1.35-6.41,6.3-6.11,6.35-12,12.95-18.43,19a8.41,8.41,0,0,1-11.76.11c-3.21-3.1-6.48-2.68-10.06-2.81-2.7-.1-4.06,1.32-4.14,3.79-.07,2.17-.46,4.85-2.68,4.45-2.53-.46-1.26-3.73-1.91-5.67-1.74-5.26,5.15-7.06,4.45-11.51-.8-5,1-8.59,4.87-11.35,4.89-3.48,4.34-10.37,9.32-14a57,57,0,0,0,11-11c2.54-3.25,6.65-2.6,9.15-4.77s1.59-6.42,4.69-9.18c4.3-3.85,8.46-7.4,14-9.33a45.22,45.22,0,0,0,9.16-4.68c5.33-3.43,7.53-11.71,15.36-11,6.15.53,9.51-6.3,16-4.76,4.32,1,6.11-6.41,11.33-4.58,2.21-4.42,7.9-3,10.68-6.33,2.94-3.47,7.49-.74,10-2.49,5.19-3.55,11.95-4.55,16-10,1.21-1.63,2.53-3.51,5.34-3.19,3.62.42,6.73,0,10-2.9,3-2.59,8-2.53,10.55-6.51,2.21-3.44,5.59-3.88,9.49-4,5.56-.14,12,2.48,16.12-3.89l22-.42c5,5.91,11.79,4.33,18.16,4.42,5.93.09,11.85,0,17.78,0,4.44,0,8.9-.22,13.33.07,4.15.27,8.53-1.5,12.25,2.79,3.23,3.73,8.34,1.19,12.59,1.46,2.72.16,3.51,2.91,5.33,3.23,6.19,1.11,10.64,7.41,17.64,5.79,4.53,4.3,10,4.88,15.94,4.58,1.84-.09,3.93,1.27,5.6,2.4,3.44,2.35,5.1,7.65,10.71,6.35,2.8,4.16,6.84,4.73,11.5,4.63,1.74,0,4.12,1.61,5.19,3.18,3.47,5.08,10.82,4.45,13.85,9.43s8.82,4.19,12.57,7.63c3.18,2.91,3.82,2.44,7.43.28,5.91-3.55,12.49-5.75,18.32-9.42.61-.39,1-1.42,1.59-1.5,5-.63,9.93-1.1,14.9-1.63,2.47-5.18,10-2.42,12.37-7.82.15-.34,1.33-.28,2-.33,5.63-.34,12,1.86,15.95-4.42,5.18.39,10.26.48,13.7-4.47,5.33.85,9.35-1.53,13.92-4.08,3.39-1.88,8.69-.24,13.12-.4,7.57-.27,15.58,1.92,22.29-3.64,5.19,6.87,9-3.12,14.54-1.11,4.58,1.66,10.24.34,15.43.34,5.92,0,11.87.3,17.77-.09,6.22-.4,11.64.22,15.35,6.07,1.17,1.83,3.11,3.15,4.64,4.76s3.19,3.29,5.59,2.55c8.39-2.58,14.45,6.23,22.62,4.49,4.36,4.88,10.12,4.77,15.93,4.44,3.6-.21,4.7,1.5,5.38,5,.48,2.5,3.11,4.62,4.92,6.79,2.36,2.83,7,.77,9.3,4.64,1.84,3.08,5.06,5.35,7.71,7.94,2.09,2.06,3.85,1.55,6.28-1.69.85-1.14,2.42-2.16,2.55-3.36.47-4.23-1.12-9,3.73-11.82-.1-4.6,4.77-7.31,5-11.17.26-4.7,6.45-6.4,4.73-11.47,3-3.18,5.74-6.82,9.21-9.46,7.1-5.39,8.76-14.78,15.62-20.27s11-13.85,19.5-17.31c7.84-3.2,11.73-10.74,18-15.65,1.08-.85,2.34-2,3.54-2.07,6.21-.14,7.72-6.31,11.95-8.85,1.09-.65,2.9,0,4.36-.17,2.08-.17,4.44.88,6.06-1.48,4.67-6.83,11.26-8.49,19.17-7.5,3.6.45,4.89-5.57,9.25-4.32,5,1.45,7.53-3.65,11.52-4.29,4.33-.71,9.41,1.15,13.19-.44A51.32,51.32,0,0,1,891.16,68c8.87.39,17.78.09,26.66.09,8.15,0,16.3-.08,24.45.06,2.05,0,5.22.13,5.94,1.35,3.42,5.78,10.07.69,13.79,4.59.52.54,1.06,1,1.57,1.58,3.37,3.52,8.67-1,12.09,3.09,2.87,3.38,5.68,7.65,9.47,9.24,12.74,5.32,19.57,17.06,29.51,25.35,4.18,3.49,6.67,7.37,6,13.19-.18,1.57,2.69,3.27,3.29,5.18,2.07,6.59,7,12.28,5.52,20-.92,5,5.91,7.71,4.54,13.74a33,33,0,0,0,0,15.43c1.7,6.25-6.54,7.78-4.92,13.84,1.1,4.15.21,8.83.21,13.28-7.52,2.83-2.37,10.74-6.16,15.26-4.25,5.05-4.53,10.4.91,15.1,3.72,3.21,6.15,8.07,12.29,8.22,1.1,0,1.52,5.28,3.31,7.07s6.63,1.8,7,3.4c.74,2.86,1,5.48,3.48,7.54a84.38,84.38,0,0,1,6.32,6.23c8.09,8.21,13.54,18.64,17.27,32.85a16.29,16.29,0,0,0,1.61,3.77c2.37,4.21,5.69,8.13,7,12.63,1.2,4.1.81,8.9.11,13.24-.82,5.06,5.44,6.55,4.72,11.53-.63,4.35-.13,8.87-.13,13.31v15.56c0,6.67.09,13.33,0,20-.07,3.59-.52,7.17-.8,10.76-7,3-.56,11.56-6.23,15.26a4.71,4.71,0,0,0-1.72,3.62c.32,4.66-.42,8.53-4.56,11.56a55.82,55.82,0,0,0-7.89,7.79c-2,2.2-.69,9.16,1.1,12.07,2.59,4.23,7.79,3.39,10.78,6.27,8.53,8.24,17,16.56,25.09,25.19,2.26,2.41,3,6.21,4.9,9a21.64,21.64,0,0,0,6.26,6.24c6.17,3.66,1.43,6.49-.14,9.86-1.24,2.7.59,3.76,5.28,2.29,1.37-.43,2.61-1.2,3.09.82.66,2.77.73,5.43,3.18,7.64,3.78,3.43,8.08,6.89,10.28,11.28,1.74,3.47-.92,8.84,3.93,11.67-.42,10.34,8,17.5,9.72,27.09,6,4.06,4.23,10.29,4.44,16a20.53,20.53,0,0,1-3.67-1.52,23.51,23.51,0,0,1-3.09-2.83c-.71,1.14-2,2.27-2,3.44a30.28,30.28,0,0,0,.79,8.28c.19.75,2.31,1,5.77,8.55,2.22,2,2.44-.88,2.12-3.71a4.87,4.87,0,0,0-2.25-3.22c-2-1.05-2.3-.12-2.19,2.06.29,5.71,0,11.46.21,17.18,0,.88,1.57,1.73,2.52,2.46.07.06,1.34-.9,1.39-1.45.3-2.8.38-5.62-1.8-13.32-1.74-8.26-1.43-9.6-.72-10.69,1.11-1.68,3.61-2.54,2.94-5.23,1.26.52,3.53.91,3.62,1.58.54,4.3.36,8.68.88,13,.75,6.19-2.63,13.32,3.9,18.29.16,7.31.41,14.61.46,21.92,0,6.37-.05,6.31-9.3,7.52-1.28.17-3.56,1.45-3.48,1.77.54,2.37,2.51,2.68,4.71,2.66a22,22,0,0,1,6.39.58c2.12.64,2,1.87.3,3.08-1.17.83-2.63,1.95-2.9,3.17-.48,2.11-.13,4.4-.14,6.61,0,5.16,0,10.31-.06,15.47-5.37,2.32-3.49,9-7.6,12.5-2.2,1.86,1.06,3,3.06,2.95,4.18-.2,3.81,2.72,4.78,5.53,2.08,6.09-6.06,8.33-4.56,13.7,1.42,5.12-3.94,7.33-4.45,11.46-.43,3.48,1,7.4-2.82,9.92-.6.4-1.4,1-1.52,1.56-1,4.9,2,10.75-1.75,14.69-4.32,4.58-2.91,9.62-2.65,14.39.26,5-1.17,8.46-5,11.33-3.08,2.34-3.65,5.53-4.44,9.28-1.27,5.93-3.37,11.85-7.93,16.63-3.14,3.29-4.48,1.36-6.41-.79a2,2,0,0,0-1.47-.34c-.64,1.19-1.87,2.73-1.54,3.67,1.13,3.2,3,6.12,4.17,9.32.33.92-1,2.44-1.66,3.62a3.72,3.72,0,0,1-1.49-.58c-.58-.43-1-1.16-1.59-1.52-5.76-3.38-7.72-2.58-8.42,3.55-.31,2.8.88,6.3-2.3,7.79-1.82.85-4.35.17-6.56.17a6.13,6.13,0,0,0-2.19.06c-.63.25-1.61,1.13-1.52,1.43.36,1.06,1,2.63,1.75,2.83,2,.51,5-.63,5.74,1.92,1,3.35,1.62,7.07-.49,10.38-2.28,3.58-7.44,5-7.8,10.05-4.22-.33-4.59,2.57-4.39,5.57.2,3.22-1.55,7.73,4.39,7.76-.51,1.26-.76,3.36-1.57,3.61-3.36,1-6.5,1.81-9.17,4.61-1.62,1.69-6.09-.08-6.89,3.38-.64,2.72-.07,5.75.16,8.63,0,.56.89,1.22,1.51,1.49a1.61,1.61,0,0,0,1.47-.63c1.12-2.46,1.43-6,3.29-7.2,2.12-1.32,5.61-.52,7.31-3.36,1.15-1.93,2.23-2.11,3.07-.16a7.33,7.33,0,0,1,.71,4,6.38,6.38,0,0,1-2.21,3.41c-5.72,4.54-8.76,11-10.67,17.51-1.2,4.06-6.69,6.09-4.86,11.25.11.32-.79,1.2-1.39,1.54-6,3.4-6.42,10.75-10.81,15.28-2.54,2.62-5.12,5.21-7.8,7.69-.39.36-1.42,0-3.35.06,3.22.29.87-2.82,1.1-4.25.57-3.62-1.73-4.79-5-4.64-2.41.11-3.65,1.4-3.83,3.81C1042.37,942.54,1044.27,944,1050.36,943.69ZM1142.92,717c.66,0,1.58.26,1.91-.07a2,2,0,0,0,0-1.88c-1-1.46-2.3-3.29-3.86-.61-.21.35,1.24,1.68,8,5.15a15.4,15.4,0,0,0-2.14-2.53,1.33,1.33,0,0,0-1.88,1.88,9,9,0,0,0,2.62,2C1147.74,721.05,1148.47,720.1,1142.92,717Zm-64.69,111.12h-4.44c.27-8,.27-8.06,5.72-8.88.72-.11,1.55.19,2.2,0a52.14,52.14,0,0,0,5.64-2.44c5.45-2.8.43-6.54,1-9.29.67-3.11,5.45-5.42-1.75-6.09-1.26-.11-2.43-1.21-3.64-1.85.93-.84,1.74-2,2.84-2.44,1.25-.54,2.9-.16,4.12-.74,6.46-3.07,5.08-11.8,11-15.41a9,9,0,0,0,3.09-3.14,8.85,8.85,0,0,0,.87-4c.1-5.18.56-10.42-.1-15.51-.72-5.55,2.31-9.34,4.51-13.74,4.92-9.83,5.11-13.53,4.65-27.71-.16-4.8-2.13-10.38,3.13-14.18,4.49-3.25,6-7.54,5.76-13.19-.47-10.33,0-20.7-.2-31a12.25,12.25,0,0,1,3.65-9.69c2.18-2.25,1.09-5.44-1.57-7.41-2.82-2.09-.67-3.34.67-4.72,3.45-3.55,2.05-6.58-1.21-9.1-1.75-1.35-1.8-2,.12-3.23,2.75-1.77,4.42-5.44,2.35-7.31-3.87-3.5-4.06-7.36-4-11.82.06-3.61,1.13-8.78-.78-10.56-4.69-4.37-3.7-9.31-3.51-14.21.2-5.27-4.81-8-5.15-13.65s-2.62-12.27-5.42-17.47c-6.52-12.12-10.88-25.58-20.65-35.84.24-5.31-5.09-6.72-7.19-10.34-2.28-3.95-2.78-9.06-9.19-9.45-1.19-.07-1.84-6.69-3.2-6.87-5.12-.68-6.4-3-7.94-7.79-1.46-4.57-6.4-7.67-12.54-6.46-3.92.77-9.56-1.73-8.83,5.85-5.89,3.68-2.43,11.29-5.88,15.18-4.2,4.73-1.73,9.78-3.17,14.35-1.67,5.28-5.21,9.6-4.53,16,.94,8.77.21,17.71.19,26.57-8.45,7-3,16.53-4.27,24.82-.69,4.33,0,8.86-.21,13.28a5.82,5.82,0,0,1-1.8,3.63c-4.56,4.18-1.93,6.95.92,10.89,4.91,6.77,13.7,7.47,19,13.77,2.85,3.41,8,5.65,12.57,6.61,4.22.89,7.7,3.7,8.23,6.22,1.53,7.18,6.61,11.27,11.47,15.17,8.19,6.59,8.81,17.5,15.54,24.72-.22,9.28,6.66,16.76,5.6,26.69-1.32,12.42-.26,25.1-.36,37.67,0,2.83.51,6.94-1.06,8.25-4.26,3.56-3.92,8-3.14,12,1,5.26-4.19,7.24-4.69,11.5s2.17,9.42-1.48,12.57c-4.32,3.71-1,9.19-3.3,11.91-3.18,3.76-3.66,7.33-4.3,11.73-.68,4.63-4.54,8.15-4.65,13.71-.08,4.27-3.9,8.6-6.45,12.67-2.2,3.52-7.93,5.17-6.35,10.62,1.54,5.29-5.07,7.06-4.46,11.48.68,4.92-1,8.39-4.75,11.42-5.17,4.15-6.64,10.62-8.36,16.43-1,3.47-1.16,6.78-4.14,9.45-4.41,3.94-8.46,8.27-12.59,12.5-2.24,2.29-2.17,2.77.46,7.55.61,1.1,1.43,2.1,2.14,3.14-4.43,2.2-3.65,7.37-6.09,10.84-3.63,5.16-3.17,5.53,1.86,10.56a16.57,16.57,0,0,0,3.11,2c.54-1.26,1.41-2.48,1.56-3.78,1.15-10.2,2.43-11.76,12.75-13.29,2.34-.35,4.91-.82,4.92-3,0-5.85,6.31-9,5-16-1.46-7.72,0-16,.44-24,0-.59,2.36-1,12.16,1-.77-.86-1.43-2.29-2.33-2.46-2-.37-4.94-.92-6,.11s-.49,4-.11,6c.17.89,2.28,2.28,2.41,2.17,2.09-1.79,4-3.8-2.53-8.38.69-4.5,5.37-7.17,5.52-12,0-.47,2.2-.87,7.45,1.28a15.4,15.4,0,0,0-2.14-2.53,1.33,1.33,0,0,0-1.88,1.88,9,9,0,0,0,2.62,2c.16.09.89-.86-2.68-4,0-3.6-.62-7.15,3-9.87,2.33-1.75,4.19-3.33,7.42-3.7,2.83-.33,4-4.35,2.37-6.81s-4.64-3.76-3.9-7.24c.48-2.3,1.62-4,4.42-3.49.48,1.23.77,3.36,1.5,3.52,2.66.61,3.1-1.36,5.53-7.6a15.4,15.4,0,0,0-2.53,2.14c-.33.4-.06,1.28-.06,1.94.66,0,1.55.27,1.94-.06a9,9,0,0,0,2-2.62C1082.28,825.28,1081.33,824.55,1078.23,828.12ZM740.43,994.55c0-.66.26-1.58-.07-1.91a2,2,0,0,0-1.88,0c-1.46,1-3.28,2.3-.61,3.86.36.21,1.69-1.24,5.15-8a16.44,16.44,0,0,0-2.53,2.14,1.33,1.33,0,0,0,1.88,1.89,9.28,9.28,0,0,0,2-2.62C744.48,989.73,743.53,989,740.43,994.55ZM689.56,250.31c.66,0,1.58.25,1.91-.08a1.94,1.94,0,0,0,0-1.87c-1-1.46-2.3-3.29-3.86-.62-.21.36,1.24,1.69,8,5.15a15.4,15.4,0,0,0-2.14-2.53,1.91,1.91,0,0,0-1.87,0,1.87,1.87,0,0,0,0,1.86,8.68,8.68,0,0,0,2.62,2C694.38,254.35,695.11,253.41,689.56,250.31Zm193.06,10.88a4,4,0,0,0,0-1.91,27.15,27.15,0,0,0-6.18,0c-.9.17-1.62,1.58-2.25,2.54-.08.11.82,1.18,1.4,1.37,2.72.84,5.31.8,9.62-8.11a16,16,0,0,0-2.53,2.15,1.33,1.33,0,0,0,1.88,1.88,9.1,9.1,0,0,0,2-2.62C886.71,256.35,885.76,255.63,882.62,261.19Zm247.1,509.53c-.48.23-1.31.38-1.4.72-.5,1.88-.72,3.83-1.23,5.71-.57,2.1.05,2.82,2.09,2a3,3,0,0,0,1.49-1.34c1.51-3,1-6.65-3.59,3.37a4,4,0,0,0,0-1.91,27.74,27.74,0,0,0-6.18,0c-.9.17-1.62,1.58-2.25,2.54-.08.11.82,1.18,1.4,1.37C1122.81,784.09,1125.4,784.05,1129.72,770.72ZM731.16,890.34a37.38,37.38,0,0,0,6.47-.11c.93-.18,1.68-1.58,2.36-2.53.07-.09-.88-1.32-1.42-1.37a47.77,47.77,0,0,0-8.27-.32c-1.12.1-2.92,1.32-3.07,2.25-.69,4.24,2.85,1-.13,4.07,0-.67.26-1.58-.07-1.91a2,2,0,0,0-1.88,0c-1.46,1-3.29,2.3-.61,3.86C724.89,894.46,726.22,893,731.16,890.34ZM531.53,317c-2,0-4.18-.4-6.07.13-1.45.4-3.79,1.42-1.19,3.86,1.31,1.23,1.9,3.24,2.82,6.88,0-.66.25-1.58-.08-1.91a1.93,1.93,0,0,0-1.87,0c-1.46,1-3.29,2.3-.61,3.87.35.21,1.68-1.25,2.56-3.91a3.55,3.55,0,0,0,4.34-2.9c.47-1.89.1-4,.1-6,2,0,4.11.37,6-.11s3.39-1.92,16.7-12.92c-7.32-1.88-10.22,2.92-13.75,6.42a2.09,2.09,0,0,0,0,2.08c.37.37,1.4.15,2.13.07,2.07-.23,4.32.79,6.06-1.48,1.26-1.65,2.68-3.31,5.38-3.05,1.83.18,4.61-.05,2.89-3.16-.47-.85-2.51-.82-16.54,7.7-2,0-4.1-.37-6,.11A3.53,3.53,0,0,0,531.53,317ZM379.3,411.43c-.52-.22-1.41-.74-1.51-.62-2.61,3.23-7.68,5-6.29,10.64.17.69-.26,1.75.1,2.12a2.1,2.1,0,0,0,2.07,0,71.82,71.82,0,0,0,6.61-8.3c.49-.77-.6-2.56-8.76,8.35-3.07-.11-4.56,1.37-14.14,12.17l-.12-.13c-4.08,4.08-8.38,8-12.06,12.37-.81,1-.07,4.46,1.1,5.55s5.37,1,5.47.6c2.41-8.72,10-13.3,15.26-19.67.36-.43.05-1.4.05-2.12,0-1.44,0-2.89-.09-4.32,0-.06-1.65-.32-2,0-2.6,2.49-5.07,5.11,2.12-.05C370.15,428.21,371.64,426.73,379.3,411.43ZM695.6,983.68c2.26,0,4.48.4,6.45-.11s3-2.31,2.89-4.72c-.14-2.93-1.42-4.46-3.17-3-2.14,1.75-3.81,3.81-7.06,3.54a3.87,3.87,0,0,0-3,2.23c-.69,4.24,2.85,1-.13,2.08-3.08-.11-4.56,1.37-46.86,22,2.12,0,6.9,1.49,9.15-.26,9.49-7.42,21.53-8.24,31.69-13.61.91-.48,1.07-2.39,1.58-3.64-.73,0-1.47,0-2.19,0-5.09-.29-10.22-.74-13.5,4.45H645.13c-3.91-6.15-10.11-4.09-15.68-4.49-2.7-.2-4.07,1.11-4.49,3.36-.24,1.28-.1,3.24.71,4,5.09,4.67,8.66,12.07,61.43-7.3C690.17,988.24,691.65,986.76,695.6,983.68Zm462.64-346c0-.69.24-1.52-.06-2.05-.62-1.11-1.41-2.81-2.34-3-4.11-.65-1.52,2.62-2,4a3,3,0,0,0,2.54,4.17c.42.07,1.2-2.08-2.63-8.34-1.08-4.84-4-7.81-10.87-8.89.66,0,1.58.26,1.91-.07a2,2,0,0,0,0-1.88c-1-1.46-2.3-3.28-3.86-.61-.21.36,1.24,1.68,3.91,2.56-.94,1.69-1.62,3.61-2.89,5-2.2,2.42-2.47,5-.35,7.14s4.71,1.84,7.13-.36C1150.18,634.17,1152.11,633.49,1158.24,637.69ZM949.57,654.77c-1.62,0-3.26-.44-4.5.08-5.05,2.14-9.4,5.78-15.73,4.72-1.68-.28-4.14,3.69-6,5.88-.14.17,1.23,2.39,2.08,2.53,2,.34,4.22.44,5.82-1.67,1.16-1.52,2.12-2.71,4.72-.8,3.64,2.68,4,2.12,9-3.88a10.54,10.54,0,0,1,3.28-2.36c.57-.3,1.54.18,2.13-.1,1.22-.59,3.14-1.32,3.3-2.23.72-4.4-2.95-1.08,5.27-6.61-.69,0-1.51-.24-2,0-1.11.63-2.82,1.41-3,2.34-.65,4.11,2.62,1.52,4,2a3.06,3.06,0,0,0,4.18-2.55C962.19,651.72,960,650.94,949.57,654.77ZM553.39,235.11a15.4,15.4,0,0,0-2.14-2.53,1.91,1.91,0,0,0-1.87,0,1.87,1.87,0,0,0,0,1.86,8.68,8.68,0,0,0,2.62,2c.16.09.89-.85-54.14,4.77,1.58-1.4,3-3.7,4.59-3.88,5.1-.56,10.3-.06,15.42-.48,4.85-.39,9.91,1.76,14.48-2.66,4-3.87,9.79-1.3,14.76-1.56,2.17-.11,2.8-.11,2.26-2.37-.49-2,.8-5.87-1.6-5.74-6.8.37-11.68-4.67-17.88-5.28-4.39-.44-8.87.06-13.3-.13-3.55-.16-8.86.61-10.31-1.33-5.07-6.8-6.59,2.23-10.46,1.64-6.51-1-13.31.14-19.92-.41-4.52-.38-6.46,2.52-9.18,4.86-1.6,1.37-2.17,2.42-.58,3.14,4.36,2,8.69,4.32,13.3,5.29,4.25.89,8.86-.06,13.27.29,2.28.18,3.51,1.92,3.38,4.59C496,238.43,497.13,239.7,553.39,235.11ZM917.86,737.36a16.9,16.9,0,0,0-2.15-2.53,1.33,1.33,0,0,0-1.88,1.88,9.13,9.13,0,0,0,2.62,2c.17.08.89-.86-8.93-30.44-.67,0-3.95-.92-4.85.15-4.43,5.28-12.88,8-11.21,17.44.62,3.48.71,7.1-2.93,9.84-3.92,2.94,1,8.7-3.15,11.9-5.16,4-1,9.91-2.94,14.24s-5.85,7.86-8.56,12c-.68,1,.19,2.95-.18,4.33-.51,2-1,4.4-2.4,5.55-4,3.32-5.61,7.85-7.9,12.25-2.87,5.51-5.15,11.63-10.65,15.57-2.26,1.61-5.18,4.15-5.36,6.46-.38,5-2.58,6-6.93,6-.73,0-2.57,4-2,5.32,1,2.52,3.27,4.68,5.37,6.59,3.06,2.78,7.12,1.12,7.74-3,1.3-8.43,4.68-14.4,10.09-18.12,1.12-.76,3.19-1.87,3.07-2.45-.93-4.44,3.36-6.13,4.45-9.3.91-2.62-.51-6.32.83-8.45,1.17-1.87,6.84-2.1,6.93-3.31.49-7.38,8.38-9.73,10.07-15.82,1.92-6.89,8.56-9.61,12-15,2.54-4,5.55-8.66,5.52-13,0-6.22,3.07-10.17,7.26-12.29,2.41-1.22,1.68-3.28,3.47-4.34a21.21,21.21,0,0,0,6.23-6.18c1.1-1.58.86-4,1.73-5.88,1.16-2.47,3.79-1.41,5.8-1.92.8-.2,1.4-1.76,1.77-2.81.1-.29-.93-1.41-1.48-1.44-2.94-.14-7.1,1.16-8.59-.31C917.2,708.86,913.61,707.61,917.86,737.36Zm-355-269.26c2.46-.66,5.64,1.41,8-1.51,4.3-5.41,9.43-7.73,16.82-7.7,8.94.05,15.09-10,25.06-8.7,1,.14,2.53-1.25,3.37-2.28,3.91-4.82,8.35-8.18,15-6.48,6.36-5.47,14.92-7.07,21.47-12.18,3.87-3,4.56-5.43,2.07-9.06-4.68-6.83-7.9-14.48-11.65-21.74-3.85-7.47-6.73-15.17-13-21.17-1.59-1.51,5.54-3.11,2.31-5.89-2.43-2.1-6.7-1.45-9-4.8-1.66-2.38-4.09-4.23-6.17-6.31-1-1-2-2.14-3.13-3.11-1.67-1.47-6.62.59-6.77,3-.25,4.29.82,8.9-3.86,11.68.6,5.95-7.27,9.11-5.1,15.57-3.32,5.2-4,11.82-8.78,16.31-.74.69,0,2.85-.13,4.31-.17,2.07.69,4.21-1.45,6.06a89,89,0,0,0-9.35,9.38c-1.27,1.47-2.53,3.75-2.37,5.54.65,7-1.93,12-6.75,17.3-4.43,4.87-6.52,11.89-9.6,18-.62,1.21-1,2.51-1.57,3.77,1.47,0,2.95,0,0,2,0-.66.26-1.58-.07-1.91a2,2,0,0,0-1.88,0c-1.46,1-3.29,2.3-.61,3.87C556,472.22,557.32,470.76,562.87,468.1ZM836.11,903.49c2.22-1.38,3.07-4.81,6.55-4.26,0-.69.26-1.82,0-2-1.63-.94-3.37-2.22-5.12-2.31-3-.16-4.33,2.12-3.64,5.72.21,1.07,1.49,1.93,168.81-103.53,0-5.92-.83-12,.22-17.73,1.18-6.49-5.78-9.88-4.74-16,.35-2,.68-4.47-1.68-5.92-2.88-1.77-1.85-5.39-3.32-7.47-2.52-3.58-6-6.49-9.27-9.52-3.7-3.47-7.06-8.36-11.47-9.75-5.75-1.82-7.71,5.6-11.84,8.3a3.82,3.82,0,0,1-2.13.18c-4.13-.31-4.39,2.37-4.73,5.53-.75,6.87-.91,6.85-6.76,7.82L931.83,759c-.09,1.45-.66,3.09-.17,4.29,1,2.34,2.52,2.7,4.36.45,3.36-4.09,4.41.67,6.22,1.88s3.44,3,.52,4.6c-6.85,3.8-6.2,13.06-12.57,17-6.54,4.07-6.94,12.25-12,17.28.67,5.45-3.68,8.84-7.07,9.87-4,1.23-7.13,1.63-6.18,6.43,1.08,5.51-3,7.8-5.91,10.94-8.71-.4-7,9.12-11.8,12.64-1,.78,0,5.71-2,5.42-8-1.21-6.15,6.38-9.06,9.54-2.25,2.42-2.92,6.24-4.94,9a29.92,29.92,0,0,1-7.86,7.77c-3.82,2.33-1.6,7-4.63,9.3-2.25,1.68-3.3,5.14-6.81,5-3.95-.19-4.71,2.05-4.91,5.39-.14,2.33-1.55,4-4.36,3.53,0,2.22,1,5.28-.15,6.53-7,7.93-6.21,15.46.15,23.12,3.13,14.41,14.81,22.43,24.1,32.23,5.17-1.69,6.88,4.81,11.35,4.8q12.23,0,24.44,0c3.19-5.35,10.54-4.11,14.1-8.89,4.49.9,6.45-2.71,8.94-5.19,10.53-10.42,20.41-21.57,31.6-31.22,11.78-10.16,14-25.75,23.26-37.15-1.08-9.22,5.67-15.42,8.59-23.09,1.92-5,7.56-9.31,4.74-15.82,5.93-5,4.26-11.79,4.45-18.16,5.75-4.12,4.33-10.25,4.42-15.93C1002.73,806,1002.67,801.56,836.11,903.49ZM984.89,168.1c0-5.92-.19-11.84.08-17.75.15-3.21-1.16-5.23-3-7.72-2.42-3.27-3.08-7.47-6.23-10.8-3.66-3.86-8.24-5.26-12.46-7.71-3.62-2.09-5.3-6.31-10.28-7.49-4.56-1.07-8.24-4.9-13.79-4.27-4.86.54-10.46,1.74-13.86-3.84l-13.13-.44c-4.16,5.6-10.24,4.26-15.92,4.45s-11.94-1.83-15.91,4.43c-3.7,0-7.4.05-11.1,0-4.44-.06-6.2,5.34-11.5,4.74-6.16-.69-11,6.25-17.88,4.7-4.39,5-10.81,6-16.51,8.37-5.18,2.17-6.84,9.8-14.09,9-.93-.1-2,2-3.13,3-4.77,4.19-8.16,9.82-15.35,11.32-3,.64-5.3,4.91-7.92,7.52-3.52,3.52-3.12,9.28-7.76,12.41a22.71,22.71,0,0,0-9.49,13.73c-8.83,6.76-10.07,18.18-16.27,26.57-1.06,1.43.94,5.24,2.55,5.29,3,.1,6-.46,8.85.14,4.26.92,5.94-3,9.06-4,2.77,4.66,7.32,4,11.69,3.94,6.66-.05,13.35-.44,20,.11,6.94.57,14.78-3.13,20.59,3.76,6.58.18,13.16.33,19.74.6,1.36.06,3.46.2,3.91,1,2.41,4.4,8.24,2.23,10.9,6.17,2.93,4.32,8.26-.25,12.09,3,4.13,3.53,9.78,7.31,14.54,7.05,8.34-.45,10.22,8.36,16.35,9.06,4.18.48,5.53,5.51,9.19,4.62,5.81-1.42,9.17,3.12,13.69,4.7a101,101,0,0,1,13,6.1c6.35,3.3,8.13,3.15,12.25-2.49,2.42-3.33,1.92-8.46,6.32-10.68s3.27-7.66,6.23-10.75c.77-.8,1.65-2.85,1.47-3-4.5-3.43-6.83-9.43-13.39-10.52-5.82-1-1.84-3.16-.39-5.33,2.7-4.05,1.51-7.29-2.59-7.86-1.45-.21-3,.12-4.43-.08s-3.1-.34-3.87-1.22c-4.61-5.26-5.13-2.12-5.63,2.39-.26,2.3-1.92,3.9-4.56,3.27-1.3-.31-3.58-1.12-3.57-1.66.1-5-2.91-8.53-6.55-10.52C912.31,209,907,210,902,210.93c-2.24.41-1.51,5.94-3.51,3.59-4-4.79-9-3.84-13.84-4.59-1.94-.3-2.09-2-.82-3a6.79,6.79,0,0,0,1.55-1.57c3.38-5.66,2.19-8.28-3.81-8.35-6.66-.06-13.41-.71-20,.17-7.61,1-12.81-6.68-20.39-4.69-.48.13-1.27-.51-1.76-1s-1-1.16-.83-1.51c.25-.63.92-1.47,1.5-1.54,5-.63,10.35-.1,14.73-2,2.85-1.23,3.63-2.41,6.58.06,4.17,3.49,10.62,2.77,14.63,1.09,5.16-2.17,7.56,9.52,12.59,1.43.71-1.15,4-.88,6.11-.93,5.18-.12,10.6.94,15.47-.29,6.14-1.54,8.31,5.39,13.77,4.81,5.12-.55,10.35,0,15.53-.15s7.82,6.63,13.71,4.54c4.25-1.5,5.11,4.81,9.24,4.45,3.56-.3,7.47-1,9.84,3,1.08,1.8,1.73,1.39,3.21-.21,4.6-5,9.3-14.8,9.34-20.58C984.91,178.46,984.89,173.28,984.89,168.1ZM171.51,836.69c0,6.65-.29,13.32.09,20,.35,6.24-2.68,13.45,4.35,18.13,0,4.44,1,9.15-.22,13.25-1.77,6.14,6.76,7.58,4.94,13.83-1.09,3.75-1.31,8.33,2.92,12,3.66,3.19-1.4,10.5,4.86,13.4-.06,4.58,4.77,7.32,5,11.14.26,4.71,6.43,6.41,4.74,11.46,4.8,2.74,3.37,9.15,7.45,12.48,3.3,2.7,6.84,5.55,6.32,10.65,8.54,6.85,11.11,18.48,20.31,25a51.86,51.86,0,0,1,11,10.92c7.24,9.42,18.75,12.19,27.9,18.6,1.25.88,5.06.47,5.7-.56,2.3-3.73,6.62-2.35,9.36-4.57,5.47-4.43,8.74-11.85,17-12.55,5.23-5.23,10.87-10.11,15.55-15.8,3.43-4.17,8.22-5.27,12.42-7.72.69-8.24,8.5-11.25,12.42-17.08,2.77-4.11,8.06-2.31,11-6.09,3.12-4.07,7.22-7.39,10.85-11.08,2.24-2.28,2.27-4.17.28-7.57-3.84-6.56-3.71-8.41,1.85-12.23,4-2.74,9-3.51,12.39-7.77,2.75-3.5,6.2-6.22,5-11.32-.61-2.53,1.66-3.73,2.62-5.57,4.76-9.11,8.71-18.62,14-27.48,2.18-3.64,2.15-8-1-12-3.9-5-11.38-7.36-11.25-15.28-4.64-4.73-9.33-9.42-13.9-14.22-1.45-1.53-3.77-3.42-3.68-5,.42-7.15-10.12-7.92-8.79-14,1.91-8.75-4.62-9-9.19-11.52,2.45-5.84-7-7.66-4.56-13.74a4.82,4.82,0,0,0-1.73-5.85c-8-5.63-8.88-15.65-14.14-23-2.44-3.38-1.79-8.54-6.23-10.73,2-5.18-4.19-6.94-4.69-11.45s-5.07-8-4.52-13.74c.36-3.73-4.12-6.57-4.49-11.41-.55-7.42-9.53-14.41-16.09-14.48s-13.52,1-19.91-.28c-7.92-1.61-13.09,5.38-20.41,4.78-4.4-.37-8.88.15-13.3-.13-5.24-.32-7.7,6.17-13.74,4.72-5-1.2-7,4.42-10.15,7.21-4,3.57-10.32-1.2-13.76,4.56-2.79,4.68-7.31,6.42-13.06,5.93s-1.82,7.22-5.15,7.75c-6.45,1-10.63,5.18-13.55,9.8s-10.49,2.38-11.46,8.08a52.43,52.43,0,0,0,0,15.47c.33,2.5,3.47,4.54,4.12,7.09,2.06,8.15-3.84,17.71,4.38,24.83q.1,14.37.19,28.76C171.52,833.73,171.51,835.21,171.51,836.69ZM136,367.66v44.39c6.71,5.65,3.73,13.4,4.47,20.35.51,4.86,6.48,7.91,4.55,13.74-.32.95,1,2.46,1.61,3.68,1.55,3.06,3.15,6.09,4.69,9.16,2.22,4.42,7.85,3.45,10.59,6.39,4.78,5.12,9.71,8,17.11,7.34,8.07-.73,16.26-.12,24.4-.19,3.62,0,7.25-.32,10.88-.49,3.34-7.38,13.06-.65,17-7.72,1-1.73,6.08.11,6.83-3.44.58-2.76,1.06-7.09-.46-8.45-3.91-3.5-4.53-7.54-3.72-11.86.95-5.06-4.15-7.74-4.32-11.51-.63-14-.59-28.11-.11-42.15.26-7.64,6.91-14.24,4.37-22.6-.13-.44.52-1.41,1-1.71,6.57-3.78-.14-13.68,7.78-16.79-3.3-7.82,6.58-12.78,4.44-20.35a23.53,23.53,0,0,0,5-15.69c5.14-4.09,4.55-12.22,11-15.46,2.43-1.23.9-4.94,2-5.67,4.56-3.17,3.95-8.89,7.24-12.78,3-3.5,5.95-8.8,5.5-12.93-.65-6,4.55-8.61,5.25-13.7.51-3.75,4.08-6.71,4.4-11.5.48-6.94,6.72-10.72,12.25-13.85,2-1.14,5.87-.31,8.27.88s4,4.33,6.44,6c2.2,1.52,5.56,1.62,7.35,3.4s2.12,5,3.32,7.41c3.38,6.87,3.47,9.81-2.21,15.07-3.56,3.3-4.23,6.84-5,11.41-.87,5.26-5.46,9.66-4.56,15.9.2,1.41-3.86,3.35-3.74,4.87.54,7.26-9.14,8.27-8.83,14.08.38,7.07-3.76,12.08-6.4,17.43-2.38,4.79-3.76,10.37-8.73,14.41-3.84,3.12-6.46,9.38-7,14.5-.46,4.79-4.17,7.49-4.67,11.46-.56,4.35-1.16,7.88-3.93,11.86-2.46,3.53.47,10.16-5.11,13.3,0,3.7,0,7.39,0,11.09,0,7.39,0,14.79,0,22.19,0,5.5,4.91,16.19,9.33,20.55,2.25,2.22,5.48,2.44,7.57.39,4.22-4.14,8.38-8.36,12.56-12.54.15-.14,6.09-15,6.09-15.24,0-6.66.43-13.35-.12-20s2.36-12.21,4.26-18.24a29.39,29.39,0,0,0,.06-15.38c-1.7-6.7,5.24-10.78,4.35-15.91-1.49-8.57,6.5-14.48,4.78-22.64,6.19-9.15,9.11-20.18,15.36-29.05,4.49-6.36,8.56-12.6,11.35-19.81,2.86-7.39,13.1-9.23,13.78-18.84.2-2.78,5-5.18,7.38-8,.33-.38-.53-2.68-1.24-2.92-1.94-.65-4.15.51-6-1.63-3.42-3.88-6.8-8.09-11-10.86-4.49-2.94-10.88-3.34-14.78-6.75s-10.18-2.22-12.54-7.55c-4.39,1.23-6.2-3.14-9.32-4.25-4.62-1.65-10.55,2.15-14.62-2.11-4.48-4.68-9.71-2.16-14.55-2.42-8.12-.44-16.27-.12-24.41-.12s-16.3.39-24.41-.11S213.47,207.51,206,210c-6.63,2.23-14.83-2.42-21.07,2.65-5.71,4.64-11.43,9.75-15.52,15.76-3.14,4.61-5.08,10-9.68,13.68a4.59,4.59,0,0,0-1.49,1.59,4,4,0,0,0,0,2.2c1.65,7.17-3.53,12.4-6.78,17-3.52,5,1.14,12.41-5.79,15.53-.45.2-.74,1.21-.76,1.85-.19,7.79,1.48,15.93-4.47,22.57v15.54c-5.54,4.17-4.38,10.23-4.44,15.92-.05,5.18,0,10.35,0,15.53Zm680,218v-22.2c0-4.44-.72-9,.19-13.28,1.12-5.3-5.55-6.86-4.59-11.51,1.06-5.12-1.56-8.4-5.16-11.19-2.77-2.13-4.11-5.9-8.57-6.18-4.85-.29-7.07-4.95-9.83-8.09-3.81-4.34-8.08-5.76-13.52-5.15a36,36,0,0,1-6.65,0c-7.41-.55-12.52,1.54-14.27,9.79-.93,4.41-3.79,4.69-8,2a31.25,31.25,0,0,1-3.15-2.62c-3.25,4.72-9.52,6.81-10.93,13.24-2.16,9.89-14.56,8.34-18.74,16.25-.46.88-2.46,1-3.79,1.34-.69.17-1.48-.06-2.21,0-5.72.8-5.72.82-6.31,6.08-.68,6.07-.65,6.66-7.39,7-4.43.25-7.76,2.65-8.64,5.51-2.3,7.43-7.35,12.58-13,16.69s-6,11.24-10.68,15.79c-2.27,2.2-.18,6.14,3,6.63,2.83.44,6.2-.3,8.44,1,3.09,1.8,5.21,7,8,7.23,5.9.41,6.44,3.61,7.87,7.88.57,1.7,5.94,1.53,7,3.4,1.64,3,1.57,7,5,9,4.19,2.43,3.46,8.24,6.42,10.54,10,7.77,13.29,19.84,20.23,29.5-.28,5.84,6.9,9.39,4.85,15.74s4.78,9.87,4.61,15.93c-.45,16.26-.13,32.55-.18,48.83,0,2.08.83,4.45-1.58,6-2.85,1.83-3.45,4.71-2.78,7.68,1,4.44-4.34,6.21-4.22,9.27.2,5.47-2.06,9.43-4.63,13.76-2.79,4.69-3.91,10.67-7.46,14.52s-4.95,8.49-7.74,12.42c-3,4.16-7,7.58-10.87,11.06-4.15,3.77-10.77,3.79-14,9.36-.82,1.42-3.66,1.61-5.48,2.54-6.11,3.11-9.55,11.76-18.53,8.87-4.9,6.14-11.82,4.07-18.14,4.45-4.71,6.9-11.86,4-18.14,4.39-4.42.27-8.89-.19-13.31.13-3.29.23-5.15-2.09-7.64-3.07-3.83-1.52-8.48-.83-12.71-1.52-4.07-.66-6.45-6-11.5-4.41-.67.21-1.5-.11-2.2.06-2.31.53-3.87,1.6-3.56,4.43.24,2.19-.86,5.67.2,6.44,5.1,3.75,4.84,8.89,4.16,13.89-.61,4.48,3.72,6.08,4.4,9.32.88,4.22-.77,9.37,1.07,12.87,1.59,3,2.77,6.37,4.57,9.19,1.2,1.89,4.85,2.15,7.31,3.32,3.1,1.46,6.7,2.52,9,4.82,3.2,3.17,6.87,1.55,10.17,2.49,3.91,1.11,6.45,5.45,11.54,4.45,3.57-.7,7.38-.13,11.08-.13a79.47,79.47,0,0,1,8.87.06,9.84,9.84,0,0,0,9.48-4c1.38-1.73,3.3-4.67,4.64-4.49,8,1.06,9.41-8.1,16.17-9.68,7.15-1.66,10.86-9.32,16.26-14.14,3.3-3,6.31-6.25,9.45-9.39l9.42-9.41c-2-5.17,4.26-6.92,4.68-11.45s3.89-7.63,8.47-8.51c4.83-.93,8.35-4.17,8.77-8.22.47-4.61,4.49-6.75,5.36-11.33.8-4.23,6.52-7.54,10.11-11.21,3.11-3.17,6.27-6.29,9.41-9.42l6.56-15.05c0-3.7-.58-7.52.17-11.06.68-3.26,3.41-6.08,4.1-9.33.73-3.45-.14-6.86,3.13-9.94,3.51-3.3.7-8.39,1.54-12.59a13.47,13.47,0,0,1,1.74-3.71c5.2-9.08,8.12-19.8,17.33-26,4.11-2.79,1.9-8.33,6.13-11,3-1.82,1.24-5.43,1.33-8.2.12-3.69,0-7,3.34-9.83s-1-8.66,3.21-11.93,1.84-8.15,2.4-12.3c.38-2.84-.49-7.5.91-8.27,6.66-3.69.61-11.79,6.09-15.49,3.17-2.13.28-3.45-.94-4.65-3.2-3.15-.85-7-1.59-10.46,6.25-4,4.34-10.26,4.41-15.92C816.08,604.9,816,595.27,816,585.66ZM786.75,254.75c-7.4,0-15,1.05-22.13-.29-7.41-1.39-11.77,4.36-18,5.32-2.08.32-1.92,1.77-.44,3.08s3.38,2.53,3.2,5.33c-.32,5.16.13,10.36-.15,15.52s1.24,9.3,4,14c2.29,3.81,0,10.14.67,15.23.32,2.49,3.2,4.55,4.14,7.09,1.57,4.24-4.36,5.91-4.15,9.2.44,6.94-3.14,14.78,3.72,20.58.18,5.84,1,11.76.35,17.51-.72,6.23,6.25,9.44,4.84,16-1.07,4.95,1.58,11.36-.68,15.21-2.73,4.67-4.56,8.73-4,14-5.64,3.21-2.83,6.16-.17,9.76,1,1.39.28,4,2.13,5.75,5.37,5.08,10.4,10.52,15.81,15.55a10.77,10.77,0,0,0,5.64,2.29,54.57,54.57,0,0,0,8.86.07c5.07-.19,11.23,1.15,14.89-1.25s7.67-3.22,11.22-5.5c5.67-3.65,11.61-8.35,19.41-6.64.39.09,1.57-1.17,1.46-1.45-.4-1.05-1.34-2.86-1.8-2.78-7.46,1.26-13.77-1.82-20.47-4.3-3.22-1.19-6.83-.67-9.57-3.84a134.92,134.92,0,0,0-12.53-12.55c-3-2.69-4.34-5.66-3.77-9.58,1-6.9-2.63-14.54,3.86-20.67,1.65-1.57-.14-6.4,3.48-6.78,3.34-.36,6.72-.63,10.36,1.6,8.75,5.36,18.18,9.59,27.3,14.33,4,2.09,4.59,2.77,7.44,0,3.72-3.58,9.73-2.65,12.6-7.27,8.09,2.41,11.62-4.09,16.61-8.17,10.21-8.36,14.31-21.77,25-29.62-1.24-6.86,3.17-6.81,8-6.72a31.41,31.41,0,0,0,8.48-.95c1.75-.46,1.34-1.82-.42-3.09a8.47,8.47,0,0,1-2.07-2.95c8.14-6.39,10.36-16.49,15.72-24.59,1.11-1.68,2-2.35-.11-3.18-1.91-.75-4.92-.45-5.81-1.74-2.4-3.49-6.43-2.73-9.31-4.59-3.57-2.31-5.4-6.32-10-8.05-5-1.89-9.89-5.38-14.76-7.12-5.72-2.05-12-3.25-17.44-6.1-4.48-2.37-8.4-5.32-13.79-4.25-4.16-5.6-10.24-4.55-15.91-4.36-4.62.16-7.83-2.16-11.73-4-4.07-1.91-9.15-1.27-13.72-4.59-2.89-2.12-8.58-.4-13-.4Zm135.11,787.88c-7.5-.4-14.75-1.29-22-1s-12.59-7.18-20.36-4.66c-3.28,1.06-5.34-1.51-7.29-3.69-2.88-3.21-5.68-7.11-9.41-.86a18.19,18.19,0,0,1-3.09-2.82c-1.24-1.79-1.9-1.64-3.27.14-1,1.33-4.38,4-4.26,1,.36-9.38-3.91-12.43-12.36-12.08-.5,0-1.58-1.11-1.49-1.48,2.48-9.74-8.08-5.76-11.15-10.49-4.32-6.67-10.79-12.15-17-17.37s-8.51-12.7-12-19.48c-.63-1.22-1.28-3.44-2-3.46-6.45-.25-13.07-1.66-19.26,1-1.9.81-3.37,2.89-4.63,4.68-.29.41.84,2.3,1.73,3,1.64,1.27,2.16,2.82.74,3.09-9.52,1.77-14.16,9.83-19.88,16-4.59,5-10.53,7.1-15.77,10.56-3.4,2.24-8.27,2.47-10.52,6.5-2.43,4.34-8.27,2.45-10.73,6.26-2.94,4.55-7.89,5.66-12.27,7.9-4.88,2.49-9.88,6.9-14.72,6.77-5.86-.15-8.49,5.32-13.7,5-2.81-.16-6.45-1-7.77,2.28-1.7,4.22,2,6.53,4.59,9.08,4.72,4.69,8.93,10.07,14.25,13.92,5.49,4,12.74,4.84,18.34,9.34,2.44,2,6.11,2.94,9.16,4.57s6.65,2,8.94,5.07c5.88-2.45,7.49,6.66,13.68,4.77a12,12,0,0,1,13.62,4.27c6.44-2.59,10.49,4.17,15.91,4.28,19.95.4,39.91.1,59.87.2,5.79,0,9.3-7.42,16-4.63.71.3,2.3-1.35,3.42-2.17,3.35-2.47,5.13-8,10.55-6.47s7.2-4,11.48-4.68c8.77-1.48,16.37-5.22,20.54-9.21,2.67-2.55,4.82-6.06,8-7.59s6.33-2.29,9.21-4.71c1.81-1.51,5.52-.57,7.41-3.34C916.58,1048.77,921,1047.18,921.86,1042.63ZM567.09,338.31c0-4.65.27-6.92-.11-9.07-.21-1.22-1.42-3.16-2.29-3.22-4.4-.3-9.43-1.38-13.08.32-3.33,1.55-7.39,4.63-7,10.23.15,2-2.44,2.87-4.18.45s-3.74-2.12-4.32.31c-.66,2.75.27,6.24-4,6.22-2.54,0-4.59,1-5.43,2.84-2.76,6.17-10,5.15-14,9.29-2.36,2.44-5.2,1.92-7.5-.61-1.47-1.61-4.3-3.1-4.46-.36-.5,8.85-8.75,11.21-12.82,17-1.64,2.32-4.65,4.3-5,6.74-.65,4.3.22,8.83-4.36,11.57,1.71,5.17-3.62,7.3-5,11.24a105.37,105.37,0,0,1-10.83,22.07c-3.84,5.84-9.32,10.26-12.82,16.87-3.64,6.87-11,11.76-16.79,17.51s-11.32,11.7-17.31,17.19c-4.51,4.15-6.37,7.7-.8,12.5,1.2,1,.92,4,1,6.14a96.75,96.75,0,0,1-.06,13.3c-.59,5.41,5.88,7.65,4.91,13.75-.82,5.18,6.74,9.39,4.08,15.85,2.84,3.08,4.69,7.22,10,7.34,5,.12,8.59-.33,8.27-6.86,0-.92,6.19-1.45,6.93-3.24,1.94-4.71,3.79-9.28,8.16-12.11,5.17-3.35,6.14-9.38,9.49-13.81,3.1-4.09,7.26-7.36,10.85-11.09,3.91-4.07,7.87-7.69,9.85-13.69,1.46-4.39,6.4-8.24,10.68-10.93,5.5-3.47,4.88-10.15,9.2-14.14,5.19-4.8,12.21-8.88,10.09-18-.2-.86,1.45-2.46,2.56-3.25,6.07-4.32,6.37-12.75,12.43-17.16A6.9,6.9,0,0,0,535.8,414c-.82-5.23,2.09-8.22,5.45-11.15,2.25-2,4.24-4,3.65-7.39-.09-.51,7-16.68,7.32-16.91,4.17-3.36,7.18-7.16,6.1-13.08a4.51,4.51,0,0,1,1.78-3.57c5.44-3.78-.75-12.2,6.21-15.23C566.65,343.06,567,339.48,567.09,338.31ZM674.2,692.81c-8.08-3.07-3.9-10.48-5-16.62-.34-1.87-2-3.84-3.64-5.05-3.68-2.77-4.14-7.27-6.39-10.64-4-6-5-15.46-15.18-15.59-.45,0-.85-1.06-1.32-1.59-7.12-7.92-8.87-8.45-13.78-3.62-8.94,8.8-17.65,17.84-26.68,26.55-4.77,4.6-8,10.91-7.89,16.45.07,7-4.12,11.92-5,18.1-7.82,4.86-2.14,13.66-5.79,19.73-.37.62-1.15,1-1.52,1.6-2.13,3.52-2,8.28-6,10.78.84,5.31-1.49,9.32-4.07,13.87-1.9,3.35-.32,8.65-.39,13.08s-.26,8.74-.4,13.11c-6.5,4.11-1.39,6.71,1.37,9.35,2.52,2.41,6.3,2.07,9.37,4.34s5.26-3.2,7.42-5.43c4.27-4.41,8.39-8.22,15.12-6.45,2.74-4.8,9-3.46,12.51-7.39,2.24-2.54,4.39-5.15,8.43-6.3,3.77-1.07,6.34-6.7,10.06-7.54,7.15-1.6,10.73-6.94,15.26-11.34,5.08-4.93,12.13-9,9.92-18.09-.2-.82,1.52-2.44,2.67-3.19,5.67-3.68,7.07-9,6-15.23-.53-3.26.84-5.49,3.2-7.6C673.37,697.32,673.37,695.56,674.2,692.81ZM136,821.45c0-7.41,0-14.81-.06-22.22,0-.53-.91-1.19-1.53-1.52a1.65,1.65,0,0,0-1.52.24c-2,2.11-5.84,4.79-5.45,6.4,2.07,8.54-4.34,15-4.68,22.69-.39,8.87-.32,17.78,0,26.66.31,9.17-1.81,18.5,4.06,27.26,2,3.07,1,8.8.16,13.08-1.12,5.76,3.52,9.1,4.46,13.78a25.53,25.53,0,0,1,0,11c-1.35,5.33,5.39,7.14,4.5,11.51-1.58,7.67,7.52,12.53,4.86,20.28,4.57,2.73,4.17,7.15,4.22,11.61,0,3.6,5.64,4.92,4.35,9.27-1.49,5,3.35,7.53,4.45,11.49,4.69,16.79,8.39,24.11,16.83,33,1.53,1.61,3.28,3,4.69,4.74a68.26,68.26,0,0,0,21.48,17c3.6,6.85,13.37.53,16.74,7.86,6.28-.25,13.36,2.86,18-4.19a8.35,8.35,0,0,0,1.23-3.14c.06-.33-1.13-1.32-1.57-1.22-6.73,1.61-10.69-2.32-15.26-6.42-3.56-3.19-3.45-7.74-6.16-10.88-2.89-3.36-6.23-6.34-9.37-9.48-2.09-2.09-5.9-4.13-6-6.29-.23-7.07-8.18-9-9.14-14-1.45-7.63-7.83-10.2-11.7-15.21a8.25,8.25,0,0,1-2-5.86,11.91,11.91,0,0,0-2.4-7.94c-4.25-6.23-5.86-14-10.93-19.87,1-8.44-4-14.57-8-21.16-1-1.65-.69-4.15-.9-6.26-.3-2.86.56-7-1-8.32-4.22-3.55-4.07-7.92-3.29-12,1-5.22-4.37-7.33-4.55-11.53-.28-6.65-1.26-13.61.24-19.92,1.77-7.48-5.09-11.66-4.83-18.23C136.18,836.27,136,828.86,136,821.45ZM904.88,541.53c-.27,4.83,0,9.26,4.13,13.66,2.29,2.46-.64,7.91,3.27,11.89,3.66,3.72,1.22,9.75,1.43,14.75.28,6.63.07,13.28.07,19.92,0,1.48-.07,3,0,4.43.21,4.26,3.94,6.16,6.61,8.18,2.39,1.81,5.18-.19,7.49-2.41,2.48-2.39,4.09-5.74,8.49-6.23,6.21-.7,13.35,3.3,18.55-3.21,7.23-.36,14.46-.71,21.69-1.09.68,0,1.81-.09,2-.44a17.84,17.84,0,0,0,1.69-5.88c0-.83-1.84-2.25-3-2.45-3.74-.65-8.37-.38-2.59-5.48,2.63-2.32,1.54-5.62,1.18-8.26-.69-5.07,1.38-8.45,5.07-11.26,5.35-4.07,5.41-8,.22-12.37-.8-.68-1.1-3.6-.6-3.94,5.8-3.86,2.33-11.39,5.77-15.31,4.71-5.38,2.33-11,2.89-16.58,0-.48-1.83-1.15-2.82-1.73-2.17,4.46-8.08,2.56-10.68,6.25-2.24,3.18-6.94.94-9.24,4.62-2.76,4.42-8.83-.81-11.84,3.21-4.31,5.73-13.35.24-16.89,7.41l-13.15-.31c-3.33-5.61-8.85-4-13.79-4.09C905.27,534.74,904.94,535.24,904.88,541.53Zm-200-165.14c-.87-7.3,2.67-15.81-4.45-22.22,0-6.65-.12-13.31.05-20,.09-3.77.07-7.32-3.56-9.63-.48-7.41-6-11.89-11.21-15-4.19-2.55-8.11-5.38-12.22-7.95-4.78-3-10.08-5-13.68-9.67-.45-.58-1-1.5-1.56-1.51-6.65-.12-13.48-1-19.89.18-5.28,1-9.65,5.59-15.93,4.58-1.28-.2-3.14,2.84-4.65,4.46-2.29,2.48-2.5,5.49-.45,7.55,10.43,10.48,20.69,21.15,31.43,31.3,6.84,6.46,10,15.32,15.9,22.38,3.39,4.05,3.86,10.92,7.78,14.26,5.23,4.46,4.89,12.05,10.7,15.73,3.39,2.15,3.26,5.84,4.26,9.34,1.67,5.83,3.23,12.19,8.31,16.47a22.82,22.82,0,0,0,3.12,1.91,17.21,17.21,0,0,0,1.55-3.78c1.09-6.87-3-14.86,4.5-20.33Zm191.9,41.37c.55.49,1.09,1.38,1.64,1.38,8.14.09,16.28-.06,24.42.14,2.75.06,5.36-.52,8.28,1.46,14.89,10.13,34,13.41,46,28.38.41.52,1.19,1.21,1.7,1.13,3.36-.52,5.07,2.15,7.54,3.36,3,1.49,4.2-2.64,6.09-4.3,2.24-2,4.17-3.54,7.49-3.63,2.15-.06,3.16-2.57,2.78-5s-1.54-4-4.26-3.7c-4.67.58-8.64-.3-11.46-4.56-2.11-3.16-5.22-4.51-9.1-4.88-2-.19-2-1.79-.57-3,2.05-1.8,5.41-4-.37-5.3-4.79-1-10.46,2.43-14.47-2.53-3.63-4.5-10.19.75-13.73-4.61-2.46-3.72-7.78,0-10.08-2-3.62-3.18-7-4.84-11.69-4.21-2.73.36-3.88-1.27-4.27-3.68s.54-4.48,2.79-5.09c2-.54,4.24,0,5.85-2,6.79-8.79,8.41-9.11,15.12-3.18a21.17,21.17,0,0,1,3.12,3.16c2.18,2.93,3.2.19,4.76-.75,3.85-2.31,4-2.36,7.53-.27,1.79,1.05,2.67,3.3,5.45,3,7.62-.71,13.05,4.25,18.85,8,2.93,1.86,4.6,6.61,8.88,5.17,5.92-2,2.39-7.45,3.16-11.33a14,14,0,0,0-4.4-13.69c2.5-9.77-3.42-16.28-8.89-23,1.18-4.37-4.09-5.42-4.56-9.25-1.2-9.85-11.57-8.89-17.18-13.63-.58-.49-2.89.27-3.8,1.1-3.81,3.51-7.47,7.18-11,11-1.41,1.51-3.53,3.69-3.26,5.17,1.34,7.2-3.89,10.48-7.76,14.68-4.93,5.33-9.78,10.74-14.66,16.12.91,4.75-6.2,6.4-4.45,11.48-3.48,2.13-7.27,3.9-10.38,6.48-4,3.29-7.42,7.22-11,10.93C896.55,416.51,896.78,417.25,896.78,417.76ZM322.63,620.85c0,8.89-.07,17.77.05,26.65,0,2.07.1,4.55,1.2,6.11,3.66,5.25,9.6,7,15.32,9,1.89-2.4,3.43-4,6.4-.7,2.27,2.54,4,6,8.47,6.28,4.87.28,6.24,6,10.06,7.78,3.08,1.41,7.85.07,10.17,2,4.46,3.72,10.17,4.49,14.69,7.76.65.47,3.46-.47,3.67-1.2,1.53-5.54,2.28-11.11-1.06-16.45a25.89,25.89,0,0,1-2.28-5.71c-1.81-5.44-9.91-6.68-9.15-14.1.15-1.42-3.05-3-4.26-4.78-4.31-6.39-8.4-12.89-13.11-19-3.26-4.26-4.33-10.18-7.51-14.54-3.45-4.73-8.77-8.08-12.24-12.79-3.71-5-10.54-4.11-14.29-8.92-1.45-1.86-6.1,1.09-6.12,3.76C322.61,601.61,322.63,611.23,322.63,620.85Zm724.49,84.82c0-5.16-.84-10.5.2-15.44,1.38-6.5-5.89-9.79-4.72-15.91.39-2,.29-4.18-1.74-5.9-2.8-2.39-4.91-5.71-7.95-7.63-4-2.52-8.64-4-13-6-10.61-5-11.43-5.3-20-3.78-2.13.37-1.95,1.78-.28,3.07,2.45,1.9,4.67,4.35-.68,5.06-2.32.3-5.38,1.08-5,2.79,2.09,8.42-7.23,14-4.86,22.6,1.14,4.12.26,4.31,8.25,11.72,4.32,4,9.38,7.72,12.25,12.64s5,10.14,9.68,13.61c7.11,5.31,11.1,12.94,14.13,20.71,1.46,3.74,4.08,5.72,6.18,8.49a1.57,1.57,0,0,0,1.5.13c.61-.34,1.46-1,1.48-1.53.11-4.42.83-9-.13-13.23-1.21-5.34,4.9-6.85,4.71-11.47C1046.91,719,1047.12,712.3,1047.12,705.67ZM980.64,305.3c4.21,7.13,13,10.05,14.16,19.15.23,1.73,2.84,3.26,4.52,4.69,6.92,5.9,9.81,9.29,12.27,14.45,3.52,7.39,7.1,14.76,10.88,22,3.89,7.47,8.49,14.63,7,23.72-.14.85,1.49,2,2.29,3,.52-.52,1-1.3,1.58-1.52,7.73-2.76,2.69-10.85,6.33-15.06,2.06-2.38,3.15-4.44,3.09-7.65-.23-10.32,0-20.64-.15-31,0-2-.23-4.87-1.5-5.89-3.55-2.83-2.85-6.4-2.89-10,0-4.36-4.83-6.3-4.83-11.43,0-6-3.31-11.93-7.75-16.51-6.66-6.89-13.52-13.59-20.32-20.39-7.56,2.72-6.74,11.74-12.35,16.24C987.53,293.55,987.67,302.52,980.64,305.3Zm-294.41-70c-7-12.21-18.72-17.49-30.33-22.88-3.1-1.43-6.59-2.56-9-4.8-2.77-2.58-6.82-1-9.42-4.4-3.1-4-8.35-.67-12.39-1.9-3.22-1-6.14-4.05-9.25-4.14-15.47-.44-31-.22-46.44-.14-.54,0-1.19.87-1.55,1.47A1.68,1.68,0,0,0,568,200a13,13,0,0,0,3.12,3.11c9.92,5.58,18.61,11.56,23.63,23,3.4,7.75,11.18,13.16,21.7,11,6.58-1.36,13-.13,17.32,6.26,1,1.42,3.61,2.31,5.51,2.36,8.84.25,18.11,1.73,26.41-.39,6.92-1.77,13.28-6.79,20.3-9.55C686.33,235.67,686.42,234.82,686.23,235.29ZM411.09,835.22a25,25,0,0,1-2.18-3.09c-2.15-4.27-5.07-8.4-6-12.94-1-4.94.26-10.34-.37-15.42-.68-5.51,2.36-11.36-2.72-16.63-3.75-3.89-1.66-9.83-1.38-14.73.25-4.44-3.53-6.14-4.43-9.29-1-3.41.15-7.37-.38-11-.27-1.87-2.11-3.52-3.28-5.24-3.17-4.63-9.73-6.71-10-13.6,0-1-1.54-2.49-2.67-2.88-5.87-2-11.2-5.11-16.7-7.85-4.66-2.32-10.76-1.74-15.49-5.41-1.38-1.07-4.35-.42-6.49,0-1,.17-1.73,1.62-2.59,2.49,6.69,3.14,2.83,10.38,6,15.28,5.53,8.57,9.5,18.14,14.32,27.19,1.94,3.64,1.76,8.55,6.2,10.71S367,780,369,783.57c5.51,9.76,9.36,20.54,18.83,27.63.92.69,1.12,2.45,1.48,3.76,2.37,8.52,13.77,10.81,14.27,20.67,0,.48,1,1.25,1.58,1.31a15,15,0,0,0,4.33-.17C410.06,836.65,410.52,835.79,411.09,835.22Zm138.22-120.4c0-2.54-.07-4.76,0-7,.1-2.7-1.34-4.18-3.79-4.12-4.3.12-8.58.65-12.86,1-3.71,6.61-13.63-.09-16.72,7.82-5.18,0-10.36.16-15.52-.07-2.82-.13-4.24,1.25-4.4,3.56-1,13.65,1.23,20.59,10.3,31.14,2.07,2.41,3.31,4.5,3,7.69-.17,2-.61,4.18,1.5,6,3.87,3.42,7.37,7.25,11,10.91-.62,9,9.21,6.89,12.67,11.69.35.48,5.3-1.06,5.36-1.86.5-7.33.4-14.7.48-22.06,7.38-5.49,3.68-13.42,4.38-20.34.37-3.66-1.47-9,.37-10.77C549.56,724.21,549.52,719.61,549.31,714.82ZM884.74,494.76c6.26,0,10.71,0,15.15,0,5-.05,7.77-6.3,13.75-4.61,3.43,1,8.63,1.67,10.76-.16,3.44-3,7.74-3.34,11-5.85,1.72-1.29,3-3.44,5.55-2.66,6.5,2,9.73-5.32,15.66-5.3,2.09,0,1.18-1.39.18-3.08-2.92-4.93-9.31-3.7-12.46-7.76-2.29-3-5.45-1.18-8.19-1.68-4.21-.76-9.08,2-12.66-1.51-5.74-5.53-12.6-1.73-18.81-2.94-4.77-.92-7.82,2.21-11.65,4.13-4.07,2-6.45-1.29-6.09-6,0-.57-1.72-1.43-2.77-1.84-.28-.11-1.51,1-1.46,1.47.45,4.38-.71,7.44-5.8,6.62-6.1-1-10.76,2.28-16.08,4.08-4,1.35-6.2,6.71-11.39,5-.19-.07-1.19,1.82-1.49,2.89-.08.31,1.09,1.43,1.52,1.34,5.63-1.17,7.91,3.49,10.58,6.58C867.16,491.7,874.78,497.9,884.74,494.76ZM456,314.36c0-5.15,0-10.29,0-15.44,0-4-4.31-6.19-7.48-2.89-3.67,3.82-10.12,2.21-12.44,7.55-13.88,7.29-14.25,7.26-15.4,21.81-.33,4.21-5.08,5.06-4.73,9.17a96.28,96.28,0,0,1,0,11c0,.56-.74,1.27-1.31,1.62-4.91,3-2.28,7.92-3.14,12-1.18,5.63,3.51,7.58,6.29,10.64,3.91,4.3,4.63,4.82,6.06,3.51,2.33-2.13,5.19-2.15,7.49-3.32,3.74-1.88,6.64-5.68,9.47-9,2.23-2.66,6.64-3.94,6.25-8.37-.32-3.69,3.61-4.39,4.43-7,1-3.31-1.72-7.52,1.83-10.23s2.59-6.45,2.67-9.95C456,321.71,456,318,456,314.36ZM105.32,974l-.89,0,1.34,21.7c4.86,2.84,4.36,7.9,3.27,11.74-1.75,6.16,6.61,8,4.72,13.71-2.05,6.2,1.82,10.94,4.48,15.81,3,5.41,4.37,11.75,9.28,16.07,1.65,1.46,3.14,3.11,4.7,4.67.52.52,1.19,1.53,1.57,1.43,4.42-1.12,6.38,4,9.25,4.16,4.31.2,6.08,3.44,9.23,4.73,1.26.51,2.95-.13,4.38.12,6.1,1.08,11.08,6,17.79,5.18.45-.06.94,1.16,1.56,1.45,5.67,2.61,8.21,1.85,12.26-3.37.9-1.17.79-2.35-1.08-3.06a9.22,9.22,0,0,0-4.32-.2c-6.23.8-11.47-.4-15.26-6-1.61-2.4-4.09-4.22-6.18-6.31-5.21-5.21-11.67-9.7-15.2-15.87-2.46-4.32-5.58-8-8-12.15-2.83-4.91-4.95-10.16-9.65-13.62-2.33-1.71-1.27-4-1.54-6s1-4.58-1.54-6c-4.23-2.35-2.11-8-6.1-10.87-3.67-2.66,1-8.65-3.22-11.82-3.59-2.66-2.22-8-6-11-1.53-1.2-.63-5.44-.91-8.29a62.62,62.62,0,0,0-.88-6.27c-.1-.49-1.1-1.24-1.48-1.13-.62.17-1.51.94-1.52,1.47C105.29,960.87,105.32,967.44,105.32,974ZM373.68,565.88c8.37,3.26,13.88-7.26,22.47-4.8,2.08.6,2.05-5.88,2.42-10.7.49-6.36-2.74-10.76-4.76-15.93-1.74-4.45-5-8-4.94-13.65.05-4.33-5.23-8.07-4.18-13.7.39-2.09-1.51-3.7-4.31-3.51-3.68.25-8.88-1.45-10.75.4-3.34,3.28-7.71,3.4-11.05,5.91-5.12,3.85-6.39,8.83-3.37,15.12.88,1.84,3.54,2.64,3,5.43-1.61,8.3,2.44,15.15,6.5,21.63a17.9,17.9,0,0,1,2.46,7.91C368,565.87,368.19,565.84,373.68,565.88ZM502.82,321.24c1-1,2-2.14,3.13-3.11,5.28-4.59,8.76-12.13,18-10.26,1.34.26,3.35-2.36,4.92-3.79,2.62-2.39,4.55-5.35,9-5.13,2.13.1,2.61-2.54.31-4.21s-3.36-4.58-7-4.55c-4.2,0-6.26-5.81-11.44-4.41-5.43,1.49-7.71-6.37-13.32-5-2.74-4.25-5.32-3.31-7.82.24-9.59-.15-4.34,3.78-3,8.19,1.47,4.7-.71,10.5.64,15.27,1.28,4.55,5.32,8.24,4.27,13.74C500.39,319,502,320.22,502.82,321.24Zm66.55,662.44c-3.68,0-7.37-.2-11,.07-2.76.21-7.23-1.63-7.77,1.45-.36,2,3.3,6,6,7.14,5.66,2.46,11.38,4.46,16.51,8.2,3.81,2.78,10.42-1.22,13.48,4.75.22.42,1.25.57,1.91.59,2.21.07,4.5.4,6.59-.09,1.73-.41,4.43-1.57,1.29-3.91-2.74-2-2.29-4.9-2.7-7.76-1-6.9-4.9-10.36-11-10.43C578.2,983.65,573.79,983.68,569.37,983.68ZM878.22,576.6h-.15V563.51c-5.51-3.13-4.07-8.62-4.56-13.45-5.56-1.48-1.88-9.56-8.21-11-5.26-1.2-9.5-6.51-15.69-4.19-.84.31-1.92,2.48-1.69,2.74,2.4,2.73,6.7,4.95,7.26,7.91.9,4.75,3.38,7.71,6.57,10.48,2.39,2.08,3.7,4.3,3.15,7.5s.64,5.32,2.78,7.68c1.71,1.87,1.62,5.39,3.34,7.24a10.31,10.31,0,0,1,3,7.63c0,.52,1.25,1.56,1.43,1.46,1-.56,2.56-1.31,2.65-2.15A77.28,77.28,0,0,0,878.22,576.6Zm-389.1-2v.13a62.26,62.26,0,0,0,8.86-.15c.95-.14,2.49-2.25,2.3-3.15-1.15-5.57,2.66-9.29,4.37-13.82.77-2,1.13-4.06,2.84-5.48,3.06-2.55.27-3.91-1.34-3.93-7.49-.06-17.43-2.85-14.62,11-2.78,2.22-5.48,4.56-8.38,6.61-1.06.76-3,.48-3.8,1.34a5.18,5.18,0,0,0-1,3.89c.17,1.27,1.15,3.3,2,3.43A60.12,60.12,0,0,0,489.12,574.64ZM447.08,917c0-.73.31-1.73-.05-2.13-1.95-2.16-3.81-5.28-6.21-5.83-1.58-.36-4.2,2.9-6,4.86a5.07,5.07,0,0,0-1,3.86c1.05,5-1.67,8.23-5.16,11-3.13,2.44-4.47,5.46-3.8,9.34.59,3.4-1.79,5.14-3.67,7.27-.21.25.9,2.38,1.74,2.68,1.26.44,3.29.62,4.18-.1,3.29-2.66,2.25-7.73,6.1-10.58,6.26-4.64,6.53-14.12,13.82-18.24C447.35,918.91,447.08,917.7,447.08,917ZM536,850.35c1.26-.52,3.28-.73,3.64-1.62,2.09-5.05.8-10.69-3.24-13.42a72.36,72.36,0,0,0-12.54-7c-1.37-.57-4,.92-5.51,2.15-.72.6-.77,3.38,0,4.16,5,5.39,10.26,10.53,15.53,15.66C534.21,850.66,535.25,850.34,536,850.35ZM403.56,605.88c-1.14.08-4.65.26-8.15.63-.55,0-1.28.88-1.43,1.48-.09.38.74,1,1.15,1.5,2.7,3.34,6.12,5,10.37,6.19s6.95,1.66,9.09-1.91a10.11,10.11,0,0,0,1.06-5.79c-.07-.79-2-1.81-3.28-2C410.27,605.64,408.09,605.88,403.56,605.88ZM51.63,259.58c0,3.49-.46,5.19.14,6.34A5,5,0,0,0,55.22,268a6.85,6.85,0,0,0,4-1c1.45-.79,1-1.91-.72-3.11-1.89-1.33-2.68-4.55-.31-4.36,5.72.46,7.44-4,10.7-6.65a3.14,3.14,0,0,0-.78-1.49c-.48-.46-1.32-1.15-1.74-1-4.49,1.64-9.12,3.09-13.29,5.36C51.72,256.45,51.66,259.48,51.63,259.58ZM456,611.4c-.23-1.33-.05-3-.78-3.94-2.6-3.46-3.29.67-4.4,1.56a65.13,65.13,0,0,0-7.55,7.58,8.1,8.1,0,0,0,2.13,2.56c.44.34,1.38,0,2.09.06C455.56,619.53,456.16,619,456,611.4ZM748.18,499.21a22.82,22.82,0,0,0-4.3.05c-2.23.43-3.88,1.57-3.46,4.28.1.71-.25,1.6.06,2.13,1.29,2.19,2.47,1.94,4.5.34s4.85-2.05,7.28-3.12c.59-.27,1.4-1,1.37-1.48a2.3,2.3,0,0,0-1.44-1.48A29.5,29.5,0,0,0,748.18,499.21Zm103.37-40.14c.53-2.68-1.21-3.84-3.42-4.26-3.47-.66-5.26,1.09-5.53,4.45-.22,2.76,1.26,3.93,3.48,4.35C849.55,464.26,851.54,462.53,851.55,459.07Zm302.24,210.07c.49-3.5-1.14-5.27-4.49-5.54-2.77-.21-3.94,1.26-4.36,3.49-.65,3.46,1.1,5.26,4.46,5.52C1152.16,672.83,1153.14,671.33,1153.79,669.14Zm-280-58.94c0-3.63.06-7.27-.06-10.9,0-.54-1.07-1.56-1.39-1.47a7.11,7.11,0,0,0-2.93,1.62c-.36.35-.06,1.39-.06,2.11,0,2.91-.15,5.83.07,8.72a10,10,0,0,0,1.44,3.74C871.64,615.52,873.7,612.92,873.77,610.2ZM469.31,637c-.48-1.22-.95-2.45-1.43-3.67a15.64,15.64,0,0,0-3,1.46,29.57,29.57,0,0,0-3,3c-.47.48-.9,1-1.35,1.5,1.13.71,2.2,1.92,3.39,2.05C467.72,641.75,469.08,640.5,469.31,637ZM760.53,939.33c-1.48,1.42-2.9,2.92-4.48,4.25-1.85,1.56-2.41,3.22,0,4.45a5.82,5.82,0,0,0,4.19,0c2.41-.91,3.26-4.57,1.85-7.12A8.86,8.86,0,0,0,760.53,939.33ZM522.2,916.66l-3.92,2.49c.45.5.88,1,1.35,1.51a29.47,29.47,0,0,0,3,3,15.94,15.94,0,0,0,3,1.46c.48-1.93,1.79-4.22,1.18-5.71S523.65,917.44,522.2,916.66Zm43.24-159.72a4.61,4.61,0,0,0-2.71,5.56c.25,1.23,1.4,2.27,2.14,3.39.74-1.12,2.11-2.26,2.08-3.37C566.89,760.62,566,758.74,565.44,756.94ZM316.67,569.62l1.52-1.52c-.51-.5-.93-1.27-1.54-1.46a8.34,8.34,0,0,0-4-.65c-1.22.25-2.27,1.37-3.39,2.11,1.12.74,2.17,1.87,3.39,2.12S315.34,569.86,316.67,569.62Zm530.43,165c-.5-1.18-1-2.43-1.57-3.59-.1-.18-1.09-.15-1.44.11-2.22,1.65-2.28,6.55.13,7.2S847.29,736.87,847.1,734.66ZM984.88,579.33c.2-2.2-.38-4.38-2.88-3.71s-2.35,5.54-.12,7.2c.34.25,1.34.29,1.44.1C983.94,581.76,984.39,580.51,984.88,579.33ZM549.37,542a4.6,4.6,0,0,0-5.56-2.7c-1.22.25-2.27,1.39-3.39,2.13,1.12.74,2.27,2.12,3.37,2.09C545.7,543.46,547.58,542.54,549.37,542Zm159.24-8.75c0-.51.12-1.15-.13-1.5-1.66-2.22-6.08-2.16-7.31.11a1.66,1.66,0,0,0,.1,1.47C702.93,535.56,707.31,535.48,708.61,533.25Zm400-22.22c0-.51.12-1.16-.14-1.5-1.66-2.23-6.07-2.16-7.31.1a1.68,1.68,0,0,0,.11,1.48C1103,513.34,1107.34,513.25,1108.64,511ZM824.88,675.92a5.38,5.38,0,0,0,0,2.13,30.39,30.39,0,0,0,2.17,3.39c.75-1.12,2.19-2.32,2.07-3.35-.2-1.9-1.32-3.7-2.07-5.54Zm-8.9-3.25c.2-2.2-.38-4.38-2.88-3.71s-2.35,5.54-.12,7.19c.34.26,1.34.29,1.44.11C815,675.1,815.49,673.85,816,672.67Zm22.36-26.8c1.18-.49,2.43-.94,3.59-1.56.18-.1.14-1.09-.11-1.44-1.66-2.23-6.56-2.28-7.2.13S836.13,646.07,838.34,645.87Zm56.95-28.17c0-.51.12-1.15-.14-1.5-1.65-2.22-6.07-2.16-7.3.11a1.66,1.66,0,0,0,.1,1.47C889.61,620,894,619.93,895.29,617.7Zm49-183.58-1.58-1.58a13.6,13.6,0,0,0-1.39,3c-.08.37.89,1,1.39,1.46C943.2,436,943.73,435.05,944.25,434.12ZM516,343.65c-.5.49-1.48,1.09-1.39,1.46a13.6,13.6,0,0,0,1.39,3c.49-.49,1.47-1.1,1.38-1.46A13.6,13.6,0,0,0,516,343.65Zm-7.31-11.76c-.6-.59-1.09-1.09-1.58-1.58a13.6,13.6,0,0,0-1.39,3c-.09.37.89,1,1.39,1.47C507.62,333.79,508.15,332.82,508.67,331.89Zm57.78,142.23-1.58-1.58a13.6,13.6,0,0,0-1.39,3c-.08.37.89,1,1.39,1.47C565.4,476,565.93,475.05,566.45,474.12ZM741.07,287.44l1.59,2.87c.49-.5,1.47-1.1,1.38-1.46a13.46,13.46,0,0,0-1.39-3Zm332.07,192.41c-.51-.93-1-1.9-1.58-2.86-.49.49-1.47,1.09-1.39,1.46a14.59,14.59,0,0,0,1.39,3ZM621.07,511c.59.6,1.08,1.09,1.58,1.58a14.12,14.12,0,0,0,1.39-3c.08-.37-.9-1-1.39-1.46C622.11,509.06,621.58,510,621.07,511Zm-13.34,8.89,1.58,1.58a13.19,13.19,0,0,0,1.39-3c.09-.37-.89-1-1.39-1.46C608.78,518,608.25,518.92,607.73,519.85Zm100,5.39,1.58-1.58a13.6,13.6,0,0,0-3-1.39c-.37-.09-1,.89-1.46,1.39Zm413.36,1.28-2.87,1.58c.5.49,1.1,1.47,1.46,1.39a13.93,13.93,0,0,0,3-1.39Zm-192.41,7.61,2.86-1.59c-.49-.49-1.09-1.47-1.46-1.38a14,14,0,0,0-3,1.38ZM922,1083.05l-1.58-1.58a14.12,14.12,0,0,0-1.39,3c-.08.37.9,1,1.39,1.46ZM713.12,973.21c-.51-.93-1-1.9-1.58-2.86-.49.49-1.47,1.09-1.39,1.46a14.12,14.12,0,0,0,1.39,3Zm62.23-14.61L773.77,957a13.46,13.46,0,0,0-1.39,3c-.08.36.89,1,1.39,1.46C774.3,960.49,774.83,959.53,775.35,958.6Zm-388.91-.94-1.58,1.58a14.12,14.12,0,0,0,3,1.39c.37.08,1-.9,1.46-1.39ZM509.31,897c-.5-.49-1.1-1.47-1.46-1.39a13.93,13.93,0,0,0-3,1.39c.5.49,1.1,1.47,1.46,1.39A13.46,13.46,0,0,0,509.31,897Zm236.21-17.14,1.58,1.58a13.64,13.64,0,0,0,1.39-3c.08-.37-.9-1-1.39-1.46C746.57,878,746,878.94,745.52,879.87ZM455.33,871c-.51-.93-1.05-1.89-1.58-2.86-.49.49-1.47,1.1-1.39,1.46a13.64,13.64,0,0,0,1.39,3C454.24,872.07,454.74,871.58,455.33,871Zm309.55-11.75c-.5.49-1.47,1.1-1.39,1.46a13.46,13.46,0,0,0,1.39,3c.49-.5,1.47-1.1,1.39-1.47A14.08,14.08,0,0,0,764.88,859.23Zm136.2-50.47,1.58,1.58a13.6,13.6,0,0,0,1.39-3c.09-.37-.89-1-1.39-1.47C902.13,806.86,901.6,807.83,901.08,808.76Zm232.71-56.2c-.49.49-1.47,1.09-1.39,1.46a14.08,14.08,0,0,0,1.39,3c.49-.49,1.47-1.09,1.39-1.46A13.86,13.86,0,0,0,1133.79,752.56Zm4.44-13.34c-.49.5-1.47,1.1-1.39,1.46a14.43,14.43,0,0,0,1.39,3c.5-.5,1.48-1.1,1.39-1.46A13.46,13.46,0,0,0,1138.23,739.22ZM1122,736.36l-1.59-1.58a14,14,0,0,0-1.38,3c-.09.37.89,1,1.39,1.46C1121,738.26,1121.52,737.29,1122,736.36ZM423.28,707.47l1.58-1.58a13.6,13.6,0,0,0-3-1.39c-.37-.08-1,.89-1.47,1.39Zm588.28-117.14c-.49-.5-1.1-1.48-1.46-1.39a13.19,13.19,0,0,0-3,1.39c.49.49,1.09,1.47,1.46,1.39A14.59,14.59,0,0,0,1011.56,590.33Zm-27.31,83.8-1.58-1.58a13.93,13.93,0,0,0-1.39,3c-.08.36.9,1,1.39,1.46C983.2,676,983.74,675.07,984.25,674.13ZM850,655.42,847.11,657c.49.49,1.09,1.47,1.46,1.39a14.59,14.59,0,0,0,3-1.39Zm-385.11-7.31c-.49-.5-1.09-1.47-1.46-1.39a13.19,13.19,0,0,0-3,1.39c.49.49,1.09,1.47,1.46,1.39A14.59,14.59,0,0,0,464.86,648.11Zm86.67-15.56c-.49.49-1.47,1.1-1.39,1.46a14.12,14.12,0,0,0,1.39,3c.5-.49,1.47-1.09,1.39-1.46A13.6,13.6,0,0,0,551.53,632.55Zm-114-28.25L436,601.44c-.49.49-1.47,1.09-1.39,1.46a14.08,14.08,0,0,0,1.39,3ZM558.84,631l1.58,1.58a13.6,13.6,0,0,0,1.39-3c.08-.37-.89-1-1.39-1.46C559.89,629.07,559.36,630,558.84,631ZM433.75,617c-.5-.49-1.1-1.47-1.46-1.39a14.43,14.43,0,0,0-3,1.39c.5.5,1.1,1.47,1.46,1.39A13.46,13.46,0,0,0,433.75,617Z"/><path d="M1091.56,859.23a34.57,34.57,0,0,1,4.32,0c4,.52,6.37,4.63,3.86,7.13s-3.8,6.35-8.18,6.17Z"/><path d="M51.5,296.64c0,1.41.33,2.92-.1,4.18-.34,1-1.59,1.7-2.54,2.38-.09.07-1.37-.92-1.37-1.41,0-3.36.17-6.72.44-10.06,0-.51.88-1.15,1.48-1.39,2.07-.79,2.64-.07,2.15,2.09A19.06,19.06,0,0,0,51.5,296.64Z"/><path d="M58.15,281.39c1.07,1.08,1.78,1.48,2,2.07,1.76,4.33-.76,6.91-6.59,6.85-3,0-.58,2.55-2,0a2.2,2.2,0,0,1,0-2C53.67,285.91,55.93,283.68,58.15,281.39Z"/><path d="M1109.35,840.38q-1.12,2.76-2.23,5.52c-.74-1.84-1.86-3.64-2.07-5.54-.11-1,1.33-2.23,2.07-3.35C1107.86,838.13,1108.61,839.25,1109.35,840.38Z"/><path d="M906.84,219.29c-1-.19-3-.46-5-1a2.59,2.59,0,0,1-1.39-1.49c-.8-2.07-.08-2.45,2.08-2.18,2.77.36,5.64-.12,8.42.21.89.1,1.67,1.57,2.36,2.52a3.17,3.17,0,0,1-1.44,1.38A42.59,42.59,0,0,1,906.84,219.29Z"/></svg>