<svg id="Layer_1" data-name="Layer 1" xmlns="http://www.w3.org/2000/svg" viewBox="0 0 1200 1200"><title>BB_Artboard 27</title><path d="M1120.19,1155.75c-6.07.8-10.4-.44-9.26-8-7.92-10.41-12-22.86-18.43-34.11s-10.2-23.79-17.93-34.31c.62-9.53-12.76-11.45-11.59-21.28-10.78-7.59-11.27-22-20.27-30.75-9.32-9.12-18.47-18.43-27.69-27.65-4.92-4.92-9.71-10-14.8-14.71-3-2.77-5-7.36-10.26-6.65-9.39-9.57-22.61-13.06-33.09-20.88-9.84,3.31-16.57-8.65-26.6-5.42-1.85.59-4.6-1.16-6.79-2.16-17-7.82-17-7.93-30.56-8-5.21,0-10.45.57-13.67-4.83l-36.35-.43c-6.67,7.72-15.92,3.67-23.86,5.5-6.23,1.44-11.41,7-18.7,5.11-9.26,8.25-23,9.36-30.9,20.16a67.06,67.06,0,0,1-16.62,16.44c-6.48,4.26-5.48,12.54-11,16.44-5.27,3.74-6.29,9.67-9,14.65-6.53,12-12.89,24.2-18.19,36.8-1.85,4.39-7.59,7.27-5.56,13.38,1.69,5.08-5.47,7.54-4.81,10.79,1.75,8.65-5.83,13.57-6.78,21-.28,2.17-4.26,4.75-3.75,6,3.25,8-5.56,11.76-5.82,18.8-.32,8.54-7.68,21.12-12.48,23.23-2.92,1.29-6.09,1.32-9,3.73-3.92,3.28-6.49,3.12-8.7.17-11-14.7-29.1-18.17-43.27-27.79-3.47-2.36-6.58-1.54-9.79-1.57-21.74-.18-43.5.53-65.21-.35-10.61-.43-22.56,5.18-31.76-5-8.66.09-17.45-.67-25.9.7-3.33.54-6.64,7.15-10.6,3.68-5.1-4.47-12.34-5-16.65-10.71-3.62-4.82-8.71-8.51-12.71-13.08-3.76-4.3-8.53-7.28-10-14.18-1.1-5-8.08-8.63-12.07-13.19-1.51-1.73-1.64-4.62-3.05-6.5-4.92-6.58-7.08-14.63-13.29-20.81-4.82-4.8-5.94-13.1-9.74-19.2-3-4.84-9.28-7.62-9.05-14.55-12.49-8.34-12.51-25.08-23.67-34.77-4.34-3.77-4.17-12.31-7.9-17.3-7.39-9.89-8.92-23.45-19.8-31,1.12-8.42-9.79-10.12-10-16.56s-3.42-10.83-5.45-16.15c-2.3-6-8.36-11.1-5.4-18.64-4.93-5.6-7.58-12.55-10.23-19.24-3-7.56-14.69-10.82-10.65-21.68-4.74-6.65-6.85-14.82-11-21.42-3.44-5.49-3.85-13-10.17-16.84-3.86-2.36-5.6-6.07-5.06-10.94.37-3.33.6-7.19-.72-10.07a58.23,58.23,0,0,0-9.17-14.4c-3.57-4-6.76-7.43-5.76-13.4.86-5.21-4.69-6.68-7-10.09-8.82,1.77-15-6.41-23.63-6.09-6.73.24-13.51-.8-20.28-1.27-5.36-6.69-12.81-2.81-19.29-3.81-3.34-8.87-13.57-1.93-17.68-7.39-4.5-6-12,0-16.21-5.35a7.73,7.73,0,0,0-4-2.84C116,701.54,110.22,699,86.67,682.05c-11.11-1.34-14.79-13.46-24.3-16.89-10.38-3.75-15.66-13.1-22.8-20.23-5.13-5.12-6.63-13.43-13.14-17.9.85-8.62-6.73-15-6.34-23.47.25-5.17.61-10.3-4.61-13.84-.89-.61-1.22-4-.48-4.73,7.37-6.92,4.51-15.82,5.13-24.06.43-5.75,7.79-9.3,5.23-16.11-.27-.74-.23-2.3.12-2.46,8.81-4,3.39-13.77,8.68-20.16,6.42-7.77,8.36-19.07,13.63-28,4.93-8.39,7.78-17.89,14-25.59.88-1.09.24-3.31.64-4.93a3.45,3.45,0,0,1,1.78-1.83c7.58-3.75,6.49-13.95,13-18,5.79-3.59,5-10.27,8.83-14.85,4-4.77,3.87-11.44-2-15.64S77.5,402,73.32,396.73c-3.86-4.84,0-14.07,5.63-17.59,4.37-2.72,11.53-1,16,3.08,2.84,2.59,3.08,5.59,3.83,8.94.66,3,6.4,3.51,8.65,1.15s5-4.83,6.46-7.76c2.57-5,3.59-10.88,6.69-15.42,3.39-4.93,8.4-8.75,12.71-13.05,3-3,0-11.61,8.68-9.44,2.53-4,5-8.07,7.61-12.06,5.73-8.9,17.29-10.05,23.84-18.31,5.9-7.44,12.31-15.63,20.4-19.87,7.82-4.1,13.36-9.92,19.78-15.2,2.37-1.95,6.36-2,8.67-4,2.76-2.37,6.46-2.47,8.77-4,12.21-8.13,26-13,38.7-20.25,5.34-3,10.94-8.62,18.53-5.52,3.3-5.56,11-3.77,14.64-8.77.49-.67,1.25-1.59,1.91-1.6,6.93-.18,13.86-.19,20.79-.25,3.9-6.46,10.3-5,16.17-5,23.48,0,47-.28,70.44.11,9.87.17,20.64-3.38,29.14,5.1,6.09,0,12.19-.2,18.26,0,5.75.24,12.33-2.19,16.42,4.4l17.5,1.83c3.4,7.41,12.38,1.1,15.72,5.72,5.26,7.27,16.49-.86,20,8.88,15.41-2.91,26.26,7.8,38.94,13.05,2.23.92,4.61,2.69,6.73,2.44,7.39-.9,11.44,6.39,18.15,6.79,7.73,10.67,21.32,11.94,31.31,19.12,2.31,1.66,6.35,2.11,8.25,4.9,5.46,8,13.78,6.4,21,5.45,3.15-.41,6.17-5.4,8.21-8.91.73-1.26-1.1-4.76-2.65-6.42-4.09-4.37-9-7.9-7.74-15.23.33-1.88-1.82-4.43-3.28-6.32-2.1-2.69-6.63-5.08-6.61-7.58.13-15.81-13.22-26-16-40.47-10.33-14.62-15.08-32.24-25.29-46.92,1.51-6.6-8.5-9.79-5.69-15.59,2.5-5.17,7.49-9.51,12.25-13,2.29-1.69,7.77-2.18,9.76-.62,6.41,5,14.82,9,14.34,19.5a8.76,8.76,0,0,0,2.86,6.47c5,3.78,6.66,9.3,9.23,14.53,3.68,7.45,7.38,15.1,14.63,20,4,2.73,4.7,6.62,4.62,11.21,0,2.19,1.19,5.52,2.86,6.42,7.52,4,6.57,13.61,12.79,18.35s5.43,14.22,12.89,18.18c3.7,2,2.24,6,2.66,9.28.67,5.31,4.92,8.49,8,5.73,3.3-3,7.87-3.41,10.64-5.69,5.82-4.78,11.45-9.44,18.32-12.75a8.53,8.53,0,0,0,4.88-8.32c-.32-9.55.69-19.21-.3-28.67-1.22-11.75,7.16-16.63,14.42-22.07,2.06-1.55,7.71-1.13,9.74.65a137.41,137.41,0,0,1,17.68,18.65c5.93,7.56,7.74,8.62,15.08,4.56,14.83-8.22,30.64-14.61,44.88-23.94,10,1.82,11.52-12.84,21.5-11.06,6.19-7.21,16.49-7,23.37-12.94,3.75-3.24,10-2.1,12.61-7.37s9-4.11,12.46-7.51c2.73-2.71,6.93-1.89,8.83-3.77,6.72-6.66,17.43-6.11,23.34-12.89,5.76-6.61,14.14-8.6,20.53-14.18,5.43-4.74,12.91-7.36,17.79-13.29,9.16,1.14,11-10.22,18.87-11.11s9.71-12,19-11.31c1.69.13,3.49-3.64,5.56-5.18s2-2.34-.21-3.8c-3.22-2.1-4.93-5.91-2.67-8.68,2.49-3.06,4.52-7.36,9.73-7.7,5.7-.38,12,2.31,16.81-3.5,3.65-4.45,10.66,1.43,14-3.79,4-6.32,12,.12,16.12-5.43.93-1.25,3.09-3,3.92-2.68,7.81,3.17,12.06-5.8,18.77-5.28,4.86.38,7.89-1.77,11.23-4.77,1.11-1,5.34-.22,6.63,1.16s1.25,4.83.4,6.76a12.79,12.79,0,0,1-5.39,5.51c-4.27,2.36-9,3.34-12.75,7.28s-9.14,8.15-14.3,8.94c-5.53.84-8.32,5.18-13.12,6.47-3.82,1-7.29,3.34-10.92,5.08s-7.09,4.17-10.92,5.06c-5.44,1.26-3.76,2.44-1.71,6.12,6.3,11.24,10.92,23.34,17.73,34.39,3.78,6.15,4.21,14.15,10.13,19.26-1.24,7.13,2.47,12.73,5.62,18.55,1.91,3.53,4.08,7.09,5.08,10.91.84,3.26.05,6.91.2,10.39.21,5,6.83,7.36,5.38,13.53-1,4.12-1.88,9.75.1,12.81,8.76,13.55,3.6,28.27,4.84,42.38a84.25,84.25,0,0,1,0,18.24c-1.43,10.74,4.26,18.92,8.08,28,4,9.67,11.3,17.83,13.13,28.47,6.64,3.66,3.7,10.68,5.76,15.88s6,9.65,8.91,14.58c.78,1.33.55,3.23.81,4.87.75,4.86-1.94,10.23,2.9,14.49,4.57,4,1.25,9.81,2.41,14.63.54,2.29,2.33,4.25,3.13,6.51,2.68,7.61,9.94,13.93,7.15,23.08-2.08,6.81,7.5,8.92,5.58,16.2-1.5,5.69-.32,12.1-.27,18.18,0,.8.07,2.11.52,2.33,7.82,3.8,1.91,13.14,7.29,17.94,1.16,1,2.44,2.7,2.49,4.11.24,7.82.11,15.65.11,23.47,7,5.83,6.35,14.13,4.85,21.24-1.55,7.33,7.46,9.17,5.86,16.24-1.31,5.79-.27,12.11-.27,18.2s-.41,12.22.23,18.24c.22,2,3.12,3.74,4.8,5.6-7.47,3.94-.85,7.42-.09,11.47,1.11,5.88.28,12.12.28,18.21,0,5.21-.63,10.53.14,15.63,1.36,9-4.48,19.12,4.24,27,.2.19-1.14,2.6-2.16,3.51-4,3.54-1.51,8.12-2.22,12.16,7.2,5.77,5.13,13.89,5.16,21.32.15,29.56.2,59.13,0,88.69-.06,7.32,2.93,15.65-5,21.25,7.41,3.91,2,7.52,0,11.47-.61,1.18.24,3.24.72,4.8.23.73,1.15,1.26,1.79,1.86,4,3.73,3.4,7.23-.36,10.78-4.13,3.9-2.46,7.19.84,10.85,1.46,1.61,2.61,6.12,1.91,6.65-5.86,4.36-5.26,10.31-5.06,16.34.14,4.35,0,8.7,0,13.05q-.08,16.92-.18,33.83c-9.7,8.36-.94,20.7-5.53,29-6.88,12.38-4.84,24.89-4.25,37.22.34,7-6.35,9.75-5.87,16.13.44,5.88-.56,11.86-.92,17.8-8.19,3.56-.39,13.74-7.36,17.84-.72.43-1.76,1.19-1.78,1.82-.18,6.07.08,12.15-.28,18.2-.35,5.73-7.28,9.21-5.26,16.14,2.51,8.66-7.67,14.49-5.46,24,1.74,7.42.64,15.59.16,23.39-.13,2.11-3.06,3.91-3.83,6.16s-1.35,5.92-.25,6.82c8.74,7.1,2.32,11.36-2.27,16.56C1131.56,1154.31,1126.65,1156.66,1120.19,1155.75ZM181.93,487.58c.13-3.61-1.61-5.35-7.05-9.71-5.68-3.17-7.34-12.18-16-11.17-5.59-5.22-10.71-11.17-17-15.28-2.39-1.56-6.05-1.86-8.51-4.38-.36-.36-3.31.75-3.37,1.35-.36,3.41-.87,7.06.07,10.22.43,1.44,4.37,1.53,6.14,2.95,6.39,5.1,15.13,6.3,20.47,13.42,2.78,3.71,9.33,2.53,12.58,7.2.84,1.21,4.91.18,7.5.18h0c-.14,3.62,1.6,5.36,10,8.26a18.57,18.57,0,0,0-2.52-3,1.56,1.56,0,0,0-2.21,2.21,10.7,10.7,0,0,0,3.08,2.37C185.26,492.33,186.12,491.22,181.93,487.58Zm841.25-381.07c-.81,0-1.78-.28-2.4.06-1.31.74-3.31,1.66-3.48,2.76-.76,4.82,3.24,2.22,4.7,2.18,1.74-.06,3.43-1.81,5.14-2.83-1.32-.73-2.64-1.45-10,5.38,0-.78.3-1.85-.09-2.24a2.26,2.26,0,0,0-2.2,0c-1.71,1.21-3.86,2.7-.72,4.54C1014.56,116.57,1016.12,114.86,1023.18,106.51Zm-332,255.79h2.33c0-.78.31-1.77-.06-2.29-1.21-1.71-2.7-3.86-4.53-.72-.25.42,1.46,2,4.59,8.17,0,2.58-1,6.6.18,7.5,6.93,5.08,4.79,12.14,5,18.71.1,2.58-.1,5.17.1,7.73.05.66,1.3,1.85,1.68,1.73a8.64,8.64,0,0,0,3.64-1.95,68.19,68.19,0,0,0,4.56-5.43c-9.37-5.41-1-16.32-7.07-22.9-1.53-1.65-1.94-4.32-2.89-6.5-1.81-4.12-4.62-6.16-5.14-4C693.18,363.94,693.5,365.74,691.17,362.3Zm49.91,96.76c.27-2.8-.56-3.47-3.21-2.87-1.64.38-3.94-.63-5.08.19-5.29,3.82-9,8.88-16,11.47-6.63,2.45-11.3,10.29-16.63,15.94-.44.47.43,2.47,1.09,3.51.27.43,1.72.53,2.38.23,3.65-1.63,7.19-3.52,10.83-5.15,9.08-4.06,18.19-8.12,24.2-16.55,1.34-1.88,1.67-4.49,4.91-14.36a18.57,18.57,0,0,0-3,2.52c-.38.47-.07,1.5-.07,2.27.78,0,1.82.32,2.27-.06a10.56,10.56,0,0,0,2.38-3.08C745.23,452.93,744.12,452.07,741.08,459.06ZM599.51,367.52c2.6,0,6.66,1.05,7.54-.18,4.31-6,10.32-5.06,16.18-5.25,3.67-6.59,10.31-4.52,15.92-5.47,3.61-6.73,10.74-3.39,15.79-5.73,1.41-.65,2.65-5.12,1.81-6.62-4.18-7.42-13.29-11.16-19-6.48-4.64,3.8-11,3.16-14.88,8.66-6.35,9.1-16.52,13.11-26.67,16.78-1,.37-1.27,2.81-1.88,4.29h2.59c.87,0,1.74,0-2.59,2.33,0-.78.3-1.86-.09-2.25a2.29,2.29,0,0,0-2.2,0c-1.72,1.21-3.86,2.7-.72,4.53C591.73,372.36,593.29,370.65,599.51,367.52Zm-276.64-78.3c4.29,0,10.12,1.74,12.52-.39,4-3.52,9.11-3.75,12.79-6.8a65.92,65.92,0,0,0,10.79-11c1.25-1.67.45-4.94.42-7.48,0-4.06-3.43-7.38-6-5.52-5.69,4.07-11.57,6.07-18.54,5.1-5.87-.81-7.4,2.52-6.73,7.63-7.33,4.57-4.93,11.88-5.22,20.77v-2.33c-.78,0-1.77-.31-2.29,0-1.71,1.22-3.86,2.7-.72,4.54C320.28,294.06,321.84,292.35,322.87,289.22ZM612,817c4.61.92,8.08-2.6,11.64-6.33,6.59-6.9,13.45-13.54,20.2-20.29,11.29-.21,14.13-11.53,21.74-16.59,1.42-.94,2.36-3.31,3.73-3.5,10.5-1.47,15.5-10.23,21.51-16.91,6.4-7.1,15.4-9.86,22.13-16.22,10.38-9.8,18.77-21.66,32.51-28.12,6.64-3.13,10.95-11,16.84-16,5-4.32,8.67-9.77,15.48-12.76,6.65-2.93,11.72-9.65,17.22-15,8.71-8.45,17.27-17.07,25.76-25.76,2.77-2.84,5.11-6.1,7.65-9.17-4.25-2.34-3-8.6-5.72-10.4-6.72-4.4-1.17-12.11-5.43-16.12-4.46-4.19-3.07-11.55-8.89-14.69-.36-.2-.21-1.69,0-2.51,1.33-5.82-1.32-9.82-5.59-13.36-1.91-1.58-5-4.42-4.59-5.65,2.71-7.82-3.85-12.56-5.82-18.66s-6.92-11-9.69-16.79c-2-4.31.4-9.37-3.4-14.34-3.63-4.76-5.94-11.22-8.25-17.27-2.19-5.74-9.91-8.76-10.73-16.42-.28-2.55-7.66-2.43-8.65.18-6,15.81-15.09,30.15-21.63,45.69-2.2,5.22-5.91,9.5-5.61,16.09.2,4.29-5.86,7.48-5,13.46,1,7.22-6.94,9.09-9.93,14-.78,1.28-.09,3.37-.36,5-.38,2.4-.23,5.63-1.71,7-5.86,5.44-8.84,11.3-9.59,19.73-.51,5.8-6.4,11-9.48,16.72s-5.54,11.58-8.35,17.35c-3.16,6.5-5,14.43-9.6,19.22-5.48,5.68,1.09,14.56-6.91,18.19-.52,7.43-7.5,12.32-7.06,20.75.25,4.79-4,10.76-7.84,14.6-5.24,5.24-8.77,10.2-7.43,18a11.08,11.08,0,0,1-1.63,7c-3.37,5.53-5.53,11.63-8.65,17.26-3.52,6.34-7,12.73-10.45,19.09,3.61,7.72-4.92,11.9-5.51,18.64-.32,3.67-6.6,5.8-4.88,10.85,2.09,6.15-5.52,8.21-5.28,13.48.07,1.73,0,3.47,0,5.2,1.48-.61,3-1.13,4.42-1.87.73-.39,1.25-1.19-4.42,4.2v-2.33c-.78,0-1.77-.31-2.29.06-1.72,1.21-3.86,2.7-.72,4.54C602.17,826.51,603.73,824.8,612,817ZM296.77,278.78c-6.66.24-14-1.95-18.72,5.22-9,2.24-16.87,6.24-23.34,13.12-1.47,1.56-4.39,2.26-6.71,2.41-3.46.22-6.46.29-9.25,3.13-3.42,3.47-5.92,9.08-12.49,7.48-7.17,9.8-19.86,12.46-27.69,21.87-3.89,4.66-4.7,10.84-9,14.58s-9.69,6-14.23,9.48c-1.8,1.36-3.6,4.05-3.62,6.16-.06,4.38-3.43,6-5.83,8s-6.58,1.9-8.59,4c-2.67,2.83-1.92,7.58-5.59,10.74-7.22,6.22-13.68,13.35-20.41,20.15-1.31,1.31-2.35,11.1-1.22,12.24,7.33,7.43,14.67,14.86,22.15,22.13,2.94,2.87,5.29,6,10.37,6.62,6.52.86,7.87,11.56,16.62,10.31,1.05-.16,2.48,2.19,3.7,3.41q10.17,10.13,20.3,20.29c7.38,7.38,15,14.59,22.09,22.19,6.38,6.8,16.47,8.32,22,16.44,2.84,4.13,6.9,9,11.28,10.11,6.32,1.61,10.68,8.45,18.71,6,3.28-1,5.6,6.17,10.78,4.91,4.81-1.17,8.19,1.34,11,4.9,9.81-3,16.5,8.84,26.44,5.58,1.57-.52,4.54-.73,5,.05,6.5,10.46,20.93-.33,27.17,10.32,9.07.58,18.9-2.66,26.54,5.22,6.09,0,12.48,1.17,18.19-.3,7.25-1.87,9.7,6.38,16.19,5.68,6.88-.74,13.9-.16,20.86-.16h60c6.09,0,12.27-.68,18.24.17,7.32,1.05,12.62-3.09,18.85-5,5.55-1.73,12.06-.32,18.15-.38,5.73,0,14-4.83,13-9.29-1.92-8.73,8.08-13.2,5.76-21.45-1.17-4.12,3.6-5.45,4.88-8.36,1.66-3.76-1.88-8.82,2.05-12.15,4.68-4,3.3-11.29,8.65-14.73-1.31-6.53,5.91-9.33,6.57-15.7.52-5.08,7.84-9.55,8.14-14.53.35-6,5.29-8.25,6.44-13.24,1.23-5.36,3.45-11.51,7.32-15,5.46-4.91.32-11.6,5-16.5,3.78-3.92,5.75-9.66,8.22-14.74,4.58-9.42,8.55-19.15,14.15-28.06a21.71,21.71,0,0,0,1.52-2c1.45-3-1.28-6.76-4.48-7.53-9-2.16-14.77,9.2-24,5.34-3.31,4.81-8.06,5.17-13.47,5.51-3.72.23-7.31,4.67-10.9,4.59-5.74-.13-9.11,3.69-13.61,5.22s-10.4-.74-13.7,4.8c-6.94-.25-9.93,5.62-14.53,9.11-2.48,1.88-6,2.33-8.8,3.85-10.21,5.5-15.91,4.65-21.34-4.22-.92-1.52-.06-5.3,1.33-6.75s5-.77,6.75-2.17c4-3.28,8.15-6.81,11-11.06,3.26-4.85,9.25-2.86,13-7.08,7.2-8.15,14.63-16.17,25.19-20.77,4.45-1.94,7.11-7.65,11.31-10.61,3.93-2.77,9.67-2.67,12.5-7.54,2.38-4.09,7-3.9,10.65-5.71,4.45-2.24,6.43-7.58,11.71-9.58,5.56-2.1,5.06-2.65,3.18-5C620.84,311,609.45,306.9,600.13,300c-8.27-6.15-18.36-10.4-28-14-9.85-3.7-20.08-6.16-28.81-12.4C535,276,530,267.55,522.55,267c-2.73-4.45-7.08-4.12-11.42-3.94-2.61.1-6.62,1.1-7.6-.16-6-7.72-14.2-4.25-21.52-5.12-6.44-8.91-17.14-1.7-23.69-5.6-11.42-6.82-23.06-4.2-34.65-4.64-13.89-.53-27.83-.17-41.74-.09a90.8,90.8,0,0,0-10.15.73,2.62,2.62,0,0,0-1.72,1.79c-.08.52.89,1.54,1.58,1.76,1.55.49,3.57.13,4.79,1,9.42,6.58,13.41,9.69,3.07,19.14-9,8.2-18.66,16.18-25.51,26-6.37,9.16-18.3,3.84-23.94,12.18-7.83,0-15.66.09-23.48,0-3.32-.06-9.72-6.95-9.77-10.41a85.56,85.56,0,0,1,3-25.67,19.65,19.65,0,0,0-3,2.52,2.27,2.27,0,0,0,0,2.19,2.22,2.22,0,0,0,2.19,0,10.6,10.6,0,0,0,2.38-3.08C301.52,275.44,300.41,274.59,296.77,278.78Zm-28,459.37c6.68,8.24,14.68,12.07,12.52,21.67-.26,1.18,1.14,3.15,2.3,4.14,3.95,3.41,2.09,10.09,7.32,12.67-1.17,5.8,5.7,8.32,5.72,13.21,0,5.47,7.72,7.43,5.4,13.5,5.18,2.62,3.87,9.27,7.47,12.47,4,3.59,2.6,9.4,7,13,3.79,3.08-1.23,10,3.83,14,3.92,3.1,2.27,9.91,7.45,12.51-.56,4.82,2.14,8,5.53,10.76-2.36,6.09,5.24,8.07,5.41,13.49.19,5.67,7,7.35,9.18,11.8,1.81,3.62,1.68,8.21,5.71,10.67-1,9.58,3.89,16.27,11.13,21.44,5,3.54,5.24,8.22,5.33,13.59,0,2.07,2.22,4.36,3.9,6.09,3.6,3.71,7.78,6.91,6.36,13.08-.94,4.07,2.55,5.91,4.61,8.53,3.62,4.6,10.3,7,10.92,13.69.48,5.19,5.77,7.44,6.31,13.26.47,5,10,6.71,9.44,14.18,11.11,15.19,13.94,35.73,30.55,47.41a2.88,2.88,0,0,1,.73,2.25c-.88,8.8,12.63,9.69,10.57,19.18-.1.49,1.05,1.27,1.65,1.87,6.15,6.16,12.47,12.15,18.38,18.53,2.67,2.88,5.57,3.31,9.15,3.29q27.39-.2,54.8,0c3.25,0,7.1-1.42,9.49,2.19,4,6.07,6.65-3.56,9.08-1.06,3.42,3.53,7,4.14,11.48,4.09,15.66-.16,31.39.83,47-.42,8.35-.66,13.13,7.82,21.41,5.81,1.75-.42,4.08,2.54,6.35,3.18,6.74,1.9,11.61,6.22,16.44,11,1.25,1.23,4.65.84,6.85.3.92-.22,1.75-2.73,1.82-4.24a27,27,0,0,1,3.28-11.77c3.2-6.25,6.09-13.85,6.53-20.49s7-9.92,5.87-16c-1.42-7.51,6.27-11.39,6.72-18.21.14-2.13,3.57-4.13,3.58-6.19,0-5.42.3-10.31,5.43-13.5-1.65-6.62,4.08-9,7.52-12.48,2.83-2.82,2.77-5.86,3-9.28a12.11,12.11,0,0,1,2.49-6.71c5.53-6.25,12.93-11.05,14.66-20.07,13.49-11.63,23.13-27.66,40.29-35.07,3.44-6.61,11.15-7,16.25-11.12,5.31-4.31,14.58,1.84,18-7,6.49-.93,14,3,19.21-4,6.8-.4,13.59-.91,20.39-1.16,5.21-.19,10.45-.25,15.65,0,4.55.25,8.18-.63,11.46-4.21,1.07-1.16,5.6-1.12,6.66.07,3.29,3.66,7,4.23,11.49,4.14,11.31-.21,22.62-.14,33.93,0,2.44,0,6.3,0,7.06,1.35,3.94,7.06,12.08.93,16.11,5.49,5,5.62,11.24,2.5,16.84,3.67,2.26.48,4.15,2.51,6.32,3.6,7.22,3.6,14.94,5.9,21.68,10.85,5,3.7,12.49,4.14,17.43,7.91,5.29,4,10.64,7.62,16.29,11.14,6.47,4,11.29,10.72,16.82,16.26,4.92,4.92,12.2,9.05,14.19,15,2.71,8,9.37,11.81,13.34,18s6.8,13.45,13.1,18c4.43,3.19,4.69,8.9,7.65,12.4,4.38,5.15,4,12.63,10.51,16.94,4.24,2.79,5.94,9.43,8.78,14.34-2.35,11.59,7,15.88,14.43,23.25,2.09-8.69.87-16.41,1.23-24,8.11-5.55,4.49-14,5.23-21.33.5-4.89-.49-9.45,3.32-14.45,3-4-.11-12.57,2.82-16.79,3.28-4.71,5.1-8.93,4.15-14-1.14-6,4.52-9,5.1-13.56,1.17-9-1.62-18.72,5.48-26.52,0-7,.94-14.08-.24-20.83-1.45-8.31,7.16-13.1,5.7-21.41-1.18-6.75-.24-13.88-.24-20.84v-26.1c0-2.61-1.12-6.39.18-7.64,10-9.53,3.43-21.35,4.89-32,.83-6,.15-12.16.15-18.25v-78.3c0-7,0-13.92,0-20.88,0-6.06-.1-12.13-.16-18.2-10.59-5.64,4.47-10.72.39-16.77-1.64-2.44.55-8.1-1.27-9.67-4.81-4.16-4.16-9-4.17-14.12,0-7,0-13.91,0-20.87V603.48c0-7-1.48-14.35.37-20.77,2.4-8.26-6-11.84-5.69-18.83.44-8.68.2-17.4,0-26.09,0-2.43,0-6-1.5-7-5.47-4-4.55-9.8-3.33-14.2,2-7.31-7.52-8.92-5.92-16.28,1.54-7.11,2.09-15.41-4.85-21.24,0-7.83.12-15.67-.1-23.49a6.38,6.38,0,0,0-2.31-4.17c-4.21-3.32-2.22-7.88-2.86-11.93s-6.44-5.72-5.21-10.91c1.13-4.74-2.77-7.53-4.37-11.22-1.92-4.38-1.92-10.51-.52-15.23,2.16-7.31-8.12-9.27-5.56-16.21,3.64-9.83-8.5-16.59-5.41-26.42l-10.2-16.66c3.46-7.69-3.17-13-5.8-18.43-2.73-5.62-3.56-13.09-9.84-16.85.72-7.71-8.89-12.88-5.24-21.32V215.73c4-5.89-9-10.84-.92-16.94l-7.38-9.23-7.36-17.83c2.41-7.39-2.78-12.66-5.2-18.72-2.09-5.25-6.11-9.44-5.65-16.13.3-4.29-5.67-7.68-6.09-13-.06-.66-5-2.1-6.65-1.26-5.81,2.88-11.2,6.62-16.74,10-7.68-3.41-12,5.16-18.72,5.22-4.19,7.24-12.65,3.29-18,6.81-8.18,5.34-17.12,9.36-25.73,13.64-9.34,4.64-18.56,9.69-28.11,13.95a58.52,58.52,0,0,0-10.7,5.61c-4,2.9-6.42,8.34-12.68,7.28-8,7.22-18.63,9.73-27.67,15.18-8.23,4.95-17.4,8.32-26.1,12.52-9.43,4.54-18.52,9.72-28.16,13.92-8.85,3.86-17.22,8.92-25.56,13.86-2.38,1.41-5.66,3.38-1.59,7.43,2.72,2.7,3.69,7.1,5.74,10.56,2.49,4.19,2.26,9.81,7.3,12.7,3.92,2.25,4.9,6.33,5.77,10.64.55,2.74,6.34,2.78,8.72.4,1.85-1.84,5.44-3.92,5.23-5.5-.86-6.67,5.55-9.76,6.8-15.75,1-5,7.49-9.14,12-13.09,4-3.5,2-10.13,7.3-12.69.31-10.55,9.6-11.89,16.1-16.56,4.64-3.35,5.22.55,7.61,1.84,2.73,1.48,8.12-.08,8.21,3.92.12,5.71,3,12.31-2,17.25-2.86,2.81-2.89,5.84-3,9.28-.11,5.37,1.06,6.81,5.15,7,3.25.12,5-1.41,5.23-4.13.31-3.8.88-6.69,5.66-6.44,4.31.23,8.63.19,13,.27,7.39,9.47,14.64,5.16,21.87-.23,8.82,2.12,15-7.64,23.94-5.22,4.13-7.37,13.37-2.66,17.82-7,4.72-4.61,11.2-1.09,14-3.82,5.16-5,10.47-5,16.47-4.86,1.7,0,4.09.52,5-.37,9.59-9.55,21.11-3.5,31.76-4,.59,0,1.44,2.69,2,4.2.27.78.35,2.33,0,2.5-2.83,1.43-6.3,2-8.59,4-5.25,4.53-9.95,9.71-14.87,14.63-8.56-.9-11.11,7.09-16.21,11.19s-9.67,8.58-16.17,11.43c-5.93,2.6-10.15,9.12-15.12,13.92-8.54-.64-11.06,7.34-16,11.62-5.71,4.94-13.43,6.18-18.59,12.5-4.53,5.55-6.5,12.19-2.44,15.78,5.84,5.16.76,12.3,5.25,16.3,5.62,5,4.23,11.44,3.25,16.79-1.3,7.08,5.26,10.36,5.53,16.17.14,3.1,1.65,4.92,4.59,4.73,6.56-.41,14.09,2.48,18.79-5,5,1,7.32-3.62,11-5s8.71.35,12.88-.53c3.82-.8,7.16-4.28,11-4.81,8.16-1.15,17.19,2.11,23.9-5.43,13,0,26.14-.55,39.12.38,3.29.23,6.71,4.82,9.1,8.12.84,1.16-1,4.53-2,6.72-2.63,5.87-4.67,12.23-8.36,17.37-9.55,13.28-11.91,30.75-24.81,42-1.27,10.52-10.84,14.73-16.61,21.82.16,11.28-13.06,13.38-15.61,22.22-3.17,11-13.47,15.15-19.49,23.27a19.43,19.43,0,0,1-3.68,3.68c-5,4-3,9.22-2.68,14.16,6.58,4,4.55,10.49,4.7,16.31.12,5.09-.31,9.77,4.3,14,3.44,3.19-1.1,9.76,3.79,14,5.31,4.63,1.74,11.42,2.26,17.2s-1.17,12.25,5.25,16.14c0,6.94.56,13.93,0,20.83-.63,7.12,5.83,11.32,5.81,18.73,0,11.46-4.78,24.1,4.77,34.37,0,7,.18,13.93,0,20.88s8,10.71,5.63,18.82c-1.26,4.26-1.93,9.84,2.21,14.55,5.91,6.73,6.22,16.71,13,23.34a51,51,0,0,0,23.35,13.13c.9.23,1.51,2.16,1.88,3.42.1.35-1.15,1.58-1.8,1.59-5.19.09-10.4,0-15.6-.06-8.21-8.38-21.94-8.12-28.87-18.46-1.38-2.07-2.51-2.47-3.7-.87-.48.65-1.23,1.44-1.16,2.09,1.59,14.77-5.09,25.89-15.47,35.38-7.19,6.59-19.06,2.24-20.95-8.12-.76-4.19.09-8.61-4.24-11.33,0-7.59-6-14-5.93-20.84.07-11.17-9.34-20.29-5.67-31.77-8.49-4.19-2.27-14.46-8.54-20.07-4.92-4.4,1.25-14-7-18.1-1.05-.52-.09-4.93-.16-7.54s.74-6.41-.58-7.43c-5-3.8-3.55-9.09-5-13.79-1.63-5.37-5-9.88-5.39-16.18-.29-4.19-6.33-7.87-4.65-13.51,2-6.73-5.23-10.76-4.92-16.11.42-7.18-2.75-11.34-8.26-15.84L904.9,592c-2.46,2.46-6.78,4.74-7,7.42-.91,9.24-2.25,18.68.64,27.91,5.35,2.5,2.51,9.51,7.28,12.74s-.23,9.51,3.54,14.19c3.93,4.89,4.88,12.21,8.9,17,4.77,5.68,2.81,13.65,6.53,18.1,5.47,6.54,2.69,13.06,3.71,19.54a3.25,3.25,0,0,0,1.43,2c5.82,3.54,4.59,9.65,3.41,14-1.95,7.28,6.87,9,6,16.25-1.56,12.86-.87,26.07-.27,39.09.37,8.2-2.94,13.5-10.37,15.06-5,1.05-7.19,4.6-9.87,7.57-3.61,4-4.87.18-7.62-.71-7.66-2.5-12.69-5.74-14.87-14.6-1.27-5.16-7.39-9.44-14.65-7.72a16.19,16.19,0,0,1-5.2,0c-3.74-.35-10.5-6.26-10.61-9.56-.19-6.08,1.77-13-.55-18-2.52-5.43-5-10.07-4.93-16.34.06-7.33,3.17-15.8-5-21.33,0-4.34.68-8.84-.19-13-.81-3.83-5.27-7.71-4.62-10.85,1.45-7.08-6.83-10.43-5.38-16.12,1.82-7.12-5.38-10-5.78-16.15-.31-4.72-5.91-5.37-9.55-1.81-5,4.87-9.86,9.83-14.78,14.75-4.31,4.31-9.19,8.19-12.77,13-4.3,5.82-12.28,5.46-16.4,11a45.7,45.7,0,0,0-3.59,6.33c-.74,1.43-1.14,4.06-2,4.21a19.67,19.67,0,0,0-10.82,5.62c-11.06,10.43-20.21,22.81-34.5,29.93-8.8,4.39-12.36,16.58-23.82,18.15l-24,24c-1.85,1.84-3.48,5-5.58,5.32-10.45,1.73-13.87,13.34-22,16.25-10.68,3.83-15.53,12.94-23.43,19.08-2.73,2.12-4.76,6.7-7.46,7-10.84,1.24-13.51,13.64-22.12,16-10.38,2.85-13.89,12.33-21.48,17.57-1.41,1-2.48,3.46-3.71,3.46a12.07,12.07,0,0,0-9.07,3.72c-1.7,1.61-2.61,1.07-7.14-4.09-2.71-3.08-8.16-4.79-7.15-9.93.59-3,4-5.35,4.88-8.36A84.18,84.18,0,0,1,573.44,828c-2.34-8.87,8.42-14.88,5.22-23.94,5.48-3.34,4.36-10.42,8.59-14.79,4.57-4.72-1.14-14.12,7.07-17.87-1.33-6.53,6.8-9.13,6.43-15.8-.12-2.17,4.77-4.56,4-8.58a10,10,0,0,1,4.85-11c4.89-3,4.25-9.1,7.51-12.52,4.18-4.38,4.19-10.51,8.21-15.1,3.49-4,2.91-12,6.7-15.08,6.07-4.94,2.13-11.49,5.21-16.38s6.19-9.61,9.17-14.48a4.29,4.29,0,0,0,.09-2.55c-.76-5.55.54-10.1,5.46-13.45,3.73-2.54,6-6.07,5-10.94-.8-4,1.48-6.54,4.28-8.64,6.33-4.77,7.8-12.43,11.21-18.89,1.46-2.76,0-8,1.91-9.41,4.67-3.44,2.17-9.85,7-13.1,3.26-2.19,1.31-7.9,5.55-10.73s7-6.63,6.91-12.84c-.1-4.45,3-9,4.92-13.46.64-1.48,2-2.64,3-4,3-3.87,9.43-6.15,7.23-12.58-2.4-7,8.31-9,5.45-16.19-1.45-3.62,1.18-6.38,3.82-8.84.37-.35-.6-2.47-1.33-3.5-.31-.43-1.64,0-2.48-.17-4.33-.71-5.21,4.35-8.31,5.12-10,2.5-18.39,7.29-25.08,15.1-13.52,1.75-14.57,13.72-19,23-1.06,2.21-2.69,4.61-4.72,5.8-9.39,5.5-10.42,17.2-18.23,24-2.83,2.45-3.25,7.51-5.82,10.47-5.11,5.9-11.31,10.87-16.38,16.81-4.8,5.62-8.36,12.3-13.13,17.95-3.85,4.54-8.12,10.34-13.25,11.76-5.75,1.59-8.42,5.48-12.1,8.7-4.57,4-8.67,8.51-13.08,12.68-.46.43-1.91-.29-2.52.11-13.46,8.71-14.74,10.5-21,29-8,3.63-3.47,12.24-7,18-3.26,5.31-5.73,11.7-8.84,17.06-3.22,5.56-3.61,13.12-9.93,16.84,0,4.35.67,8.85-.2,13-.81,3.83-4.92,7.41-4.69,10.91.52,8-4.1,14.34-5.11,21.41-1.19,8.3-7.87,14.76-6.64,23.47-8.24,3.54-1.39,12.81-7.16,18.06s-1.08,13.16-2.28,19.78c-.16.84.33,2.06-.1,2.54-1,1.18-2.37,2.73-3.74,2.9-13.63,1.7-14.79.15-22.88-13.21-7.22-11.93-11.56-26-23.73-34.63-3.43-2.44-1.17-8-5.43-10.92-3.1-2.15-2.09-7.37-5.46-10.75-4.57-4.58-10.88-7.7-12.17-15.8-1-6.15-11.23-8.12-10.22-16.55-4.38-5-10.61-8.5-11.23-16.28-.19-2.45-1.88-2-3.65,0-1.55,1.68-4.15,3.24-6.33,3.3-11.3.32-22.62.11-33.93.17-5.17,0-10.34.22-15.51.34-6.69,8.25-15.94,4.33-24.09,4.7C298.54,738.58,285.56,738.15,268.73,738.15ZM41,591.23c0,4.34,1,9-.2,12.95-2.83,9.28,6.36,15.17,5.64,23.93C45.86,635,53.37,637.26,57,641.8c2.69,3.37,6.65,5.8,9,9.35,3.16,4.83,9.45,2.47,12.87,7.13,6.55,8.93,15.81,14.42,26.57,17.23,3.52,5.18,10.24,4.63,14.84,8.38,4.21,3.44,9.86,6.35,15.14,6.89,5.45.55,9.27,4.33,13.5,5,5.95,1,10.78,3.08,16.12,5.41,4.26,1.85,10.31-.62,13.58,4.88,10.27-1.36,18.15,8.69,28.78,6a5.37,5.37,0,0,1,4.52,1.33c5.5,6.54,12.81,3.12,19.32,3.48.86,0,3.11-4.29,2.65-6-.79-3-4.77-5.64-4.66-8.3.28-6.66-1.73-11.63-6.94-15.47-3-2.23-4.54-5-3.8-8.84-6.24-3.75-6.7-11.29-9.86-16.82-3-5.32-7-10.81-8.38-17.25s-7.25-10.8-7.86-17.55c-7.8-3.92-3.17-12.58-6.84-18-5.48-8.05-9.22-17.09-13.61-25.64-3.95-7.72-7.27-16.17-11.3-23.84-4.48-8.53-8.81-17.25-13.27-25.8-3.15-6-7.7-10.78-10.94-16.32a119.55,119.55,0,0,1-9.5-19.41A42.37,42.37,0,0,0,116,481.35c-2.12-2-1.85-7.37-4-8.38-3.69-1.73-7.29-3-10.75-5.61-3.77-2.86-10,.58-13.32,5.42s-7.35,9-10.26,14-3.29,11.8-7.15,15c-5.91,4.9-.73,11.9-5.19,16.3-.61.61-1.63,1.15-1.77,1.85-2.08,10.52-15.26,16-12.91,28.49-8.11,3.59-2.06,12.53-7.07,18-5.55,6.06-1.7,14.74-2.56,22.21A22.55,22.55,0,0,0,41,591.23Zm506.9,7.42c-.94-2.07-1.56-4.55-3-6.38-2.65-3.34-5.49-6-10.71-5.73-6,.27-11.66,0-15.92,5.06-4.76-7.59-12.36-4.67-18.87-4.73-27.81-.25-55.63-.08-83.45-.13-4.26,0-10.11,1.26-12.43-1-4.44-4.27-9-4.16-14.09-4.27-7.7-.17-15.39-.58-23.09-.89-6.9-8.23-16.23-2.69-24.28-4.4-1.46-.31-2.83-1.78-3.93-3-3.55-3.93-8.45-.67-12.09-2.31s-5.71-5.95-11-5.18c-5.11.73-10.41.16-15.62.16-2.81-6.22-11.14-3.73-14.58-9.12-.17-.27-3.08.42-3.39,1.19a10.81,10.81,0,0,0-.24,5.08,2.71,2.71,0,0,0,1.62,1.85c4.74,1.28,10.61,1.31,8.88,9,5.53,5.53,11.26,10.89,16.55,16.64,5.6,6.11,7.86,14.41,14.55,20.21,6.17,5.33,12.44,10.68,16.34,19.1,3.76,8.14,12.43,14,18.94,20.87.32,12.34,16.47,14.65,17,26.86C386,688.66,396.9,699.8,408,710.79c.39.39,2.79-.46,3.51-1.34,3.38-4.14,8-1.82,12-2.71s5.8-6.73,10.88-5.09c6.05,2,8.74-6,13.44-5,7,1.48,10.59-4.26,16.11-5.64,3.83-1,7.15-4.22,11-4.83,4.23-.68,7.68-1.38,11.57-3.92s8.65-4.08,12.49-7.6c4.14-3.8,10.39-5.5,14-9.61s8.94-4.24,12.81-7.19c3.37-2.58,10.73-17.45,11.18-21.42.55-4.87-1.79-10.09,3.47-14.31,4.73-3.79-1.51-12.1,5.52-16C547.37,605.29,547.19,601.54,547.88,598.65ZM304.78,722.49c6.08,0,12.21.47,18.23-.13,6.69-.66,14.37,3.26,19.9-2s11.43-2,17.06-3.11c6.59-1.28,13.76,2.71,19.94-2.21,1.83-10-8.4-11.87-12.17-18.1-.85-1.42-2.85-2.55-3-4-1.15-12-16.66-14.58-17.26-26.78-9.45-6.36-13.19-17.26-20.3-25.48-7.67-8.88-17.63-15.58-22.46-27.21-2.16-5.19-8.65-8.43-12.43-13.14-4.09-5.1-12.1-7.62-11.2-16.18q-6.44-6.47-12.88-12.92Q258.11,561.14,248,551c-5.53-5.5-10.29-12.5-16.89-16-6.31-3.35-12.95-6.4-19.46-9.58-10.89-5.3-22-10.08-32.3-16.54-2.45-1.53-6.34-.93-8.8-3.9-2.69-3.24-8.29-.91-10.93-5.44-.73-1.25-5-1.77-6.71-.87-4.07,2.14-.21,4,1.19,5.25,4.72,4.14,8.59,8.48,7,15.41,6.91,10,8.87,23,18.67,31.41a6.14,6.14,0,0,1,2.09,4.25c-.31,5.42.14,10.34,5.33,13.49-2.36,6.09,4.81,8.22,5.61,13.43.55,3.59,5,6.47,7.22,10a118,118,0,0,1,5.6,10.7c8,15.8,15.32,31.93,23.46,47.63,10.75,20.73,21.33,41.54,31.18,62.71,3.18,6.84,7.91,10.22,15.89,9.71C285.63,722,295.22,722.49,304.78,722.49ZM683.06,414c0-9.55-.39-19.13.15-28.65.31-5.3-3.37-7.4-5.94-10.66-1.62-2.06-3.39-2.47-3.6-.18-.68,7.7-6.29,11.86-11.32,16.11-4.48,3.79-6.06,7.92-5.5,13.5a6.59,6.59,0,0,1-1.79,4.38c-4.51,5-10.69,8.86-8.8,17.39.36,1.61-2.55,4-4,6-2,2.66-5,5-5.93,7.95-1.22,3.81.66,8.14-3.09,11.87-2.71,2.7-3.87,7-5.67,10.57-.72,1.44-1.92,3-1.79,4.41.52,5.55-.64,10.07-5.52,13.46-2,1.41-4.73,3.7-4.81,5.68-.6,13.88-9.6,23.88-15.21,35.48-2.38,4.91.8,12.14-5.78,15.82,1.29.91,2.47,2.32,3.88,2.59s3.69,0,4.71-.91c7-6.47,13.68-13.19,20.48-19.84,11-.76,14.16-11.6,21.61-17,8.8-6.34,13.21-18.18,25.49-20.37.89-.15,1.59-2.69,2-4.22.8-3.19-1.67-7.15,1.76-9.67,6.8-5,.61-15.25,8.5-20.22,1.57-1,.23-6.58.23-10.06ZM477.71,805.17c.58-.62,1.58-1.17,1.7-1.87.95-5.76-2.79-13.07,2.14-17.1,6.26-5.13-.91-14.39,7.05-18,.65-7.37,6-14.11,5.86-20.63-.17-7.61,7-11,6.5-18.65-.34-5.58,4.16-12.06,7.88-17.14,4-5.53-1.58-14.54,7.09-17.88-1.3-.9-2.72-2.67-3.87-2.52-2.3.31-4.43,1.74-6.66,2.59-6.75,2.58-12.41,7.47-19.57,9.14-4.38,7.73-16-.41-19.64,9-8.45-3.9-13.44,5.24-21.17,5.57-7.14.3-13.84,4.18-19.46,9.12a1.91,1.91,0,0,1-1.77,0c-.73-.42-1.16-1.36-1.89-1.74a27.8,27.8,0,0,0-3.65-1.33c-.34,2.34-1.83,5.58-.82,6.88,4,5.19,8.69,9.37,11.32,16.15,2.3,5.9,9.25,10,14.14,14.89-.8,9.62,7.7,13.21,13.11,17.69,6.9,5.7,7.11,15.3,14.33,20.28,2.1,1.45,3.67,3.66,5.58,5.41C476.26,805.31,477.09,805.12,477.71,805.17ZM959.46,406.05c.32,4.79-.77,9.68,1,11.28,4.64,4.11,5.62,9.07,4.22,13.89-2.07,7.13,6.26,9.77,5.56,16.12-.56,5.14-1.64,11.06.28,15.42,2.34,5.34,5.66,9.85,5,16.23-.3,3,5.63,4.89,8.12,2.83a24.21,24.21,0,0,0,5.44-5.54c1.66-2.7,2-6.24,3.9-8.73,2.57-3.43,6.08-6.15,9-9.31a29.77,29.77,0,0,0,4.58-5.9c3.44-6.37,3.88-14.62,10.23-19.07,6.64-4.65,4.76-14.66,12.67-18.41,1.7-.81,3.18-4.17,3.09-6.29-.36-8.06,5.38-13.47,8.18-20.09,3.57-8.49,2.93-10.82-5.77-10.39-5.79.29-12.5-2.87-17.23,2.06-5.27,5.49-11.4,2-17,3a7.47,7.47,0,0,0-2.38.52c-4.84,3-9.4,6.53-14.48,9s-12.28-1.2-15.87,5.62C961.67,398.06,958.32,400.57,959.46,406.05ZM949.29,506.66c0-4.32.67-8.79-.2-12.94-.81-3.8-3.93-7.1-4.85-10.9s.64-8.2-3.36-11.7c-4.5-3.95-1.11-9.77-2-14.66-.16-.84.33-2.25-.08-2.52-6-4-5.86-10.1-5.08-16.08.93-7.1-8.15-10.95-5.45-18.67,1-2.74-1.46-4.54-4.43-4.67-1.73-.08-3.53.28-5.19-.07-8.23-1.71-13.39,5.54-20.55,6.88-.68,7.33-2.92,14.35,3.15,21.36,4,4.58,3.64,13.34,8,17.09,6.65,5.77-.9,16.56,8.78,20-3.87,9.17,5.42,15.06,5.88,23.77.44,8.23,7.9,15.47,10.57,23.95.38,1.19,6.2,2.75,7,1.82,3.06-3.8,8.77-5.8,8-12.27C949,513.63,949.29,510.13,949.29,506.66Zm-93.88,89.85c-.12-2.32.73-5.74-.6-7.27-2.93-3.37-5.82-6.38-4.67-11.17,1.26-5.19-5.4-7.08-5-10.86.72-6.58-4.84-11.05-4.95-16.13-.14-6.55-3.69-10.84-5.81-16.06s-3.43-11.64-7.3-15c-5.62-4.91-1-11.43-5-16.49-3.9-4.91-7.56-11.27-8.09-17.27-.68-7.66-8.93-12.88-5.84-21.33.24-.68-1.79-2.79-3.12-3.33-4.68-1.89-12.23,1.23-15.77,5.86-3.73,4.86,4.06,4.65,3.28,7.5-1.66,6.07,4.4,8.54,5.86,13.36,1.77,5.86,4,12.54,9.31,16.94-1.61,6.59,7.37,9.28,5.83,15.84,8.9,3.4,3.17,12.39,6.9,18,4.41,6.69,7.78,14.11,11.16,21.42,3.75,8.11,3.47,18.33,12.87,23.47.8.44.65,3.3.33,4.92-1,5.06,1.93,8.08,5.33,10.84a14.25,14.25,0,0,0,3.65,1.56C854.31,599.81,854.82,598.29,855.41,596.51Zm125.2,55.09c0-4.33.19-8.68-.05-13-.28-5-5.83-7.39-5.51-13.46.47-8.92,3.26-18.87-4.88-26.42,2.48-12.06-8-22.29-5.1-34.22,2-8.3-4-14.07-5.46-21.25-.22-1.14-2.81-2.9-2.85-2.86-4.32,4.19-10.44,7.9-12.13,13.05-1.61,4.88-2.63,11.64,1.44,17.22,2.34,3.2,3.81,7.05,5.57,10.66,1.06,2.16,3.16,4.75,2.66,6.56-2.76,9.9,6.86,16.88,5.72,26.53-.42,3.55,6.65,5.77,4.86,10.78-3,8.39,5.24,13.77,5.29,21.27,5.87,4,5.63,10,5.33,16,0,.58,1.4,1.85,1.71,1.72,1.23-.5,3.15-1.34,3.24-2.23A94.43,94.43,0,0,0,980.61,651.6ZM860.54,479.75c0-13.83.14-27.66-.27-41.47,0-1-3.94-2.41-6.17-2.71-1.22-.17-3,1.34-4,2.52-4.66,5.43-9.6,9.78-17.62,7.91-.79-.19-2.84,2-3.11,3.27-.51,2.49-1.22,6,0,7.6,6.08,7.79,3.2,19.94,13,25.93,1.58,1,2.89,4.79,2.25,6.54-2.57,7.09,7.92,9.6,5.34,16-2.85,7.12,8.16,9.19,5.47,16.09a12.29,12.29,0,0,0,3.45,1.58c.38.09,1.54-1.16,1.55-1.8C860.57,507.41,860.54,493.58,860.54,479.75Zm-88.45-99.62c-1.47-3.76-5.73-9.25-5-14,1.13-7.2-7.71-9.79-5.61-15.92,2.42-7-6.3-9.47-5.65-16,.29-2.89-5.14-4.63-7.94-2.75s-4.28,5.15-8.42,4.81c-1.29-.11-4,1.7-3.91,2.32.92,6.41-3.58,13.76,3.09,19.2,3.17,11.53,13.39,20.42,12.58,33.46,5.25,2.5,3.71,9,7.35,12.34,1,.88,4.24,1,4.77.27,2.25-3.16,3.24-7.39,5.87-10.06C772.91,390.15,771.3,386,772.09,380.13Zm145.83,4.36c0-3.35.66-7.77-1.14-9.82-3.14-3.57-4.67-7-4-11.48.62-4.2-3.6-5.59-4.72-8.49-1.46-3.76-1.17-8.17-2.18-12.16-.37-1.45-2.21-2.65-3.59-3.67-1-.77-3.23-1.82-3.53-1.49-5.56,6.09-14.27,10.23-12.23,21,1.07,5.65-1.81,12.29,4.73,16.33a42,42,0,0,0-2.43,3.7c-2.65,5-3.42,5.9-.44,8.68,3.85,3.6,3.47,7.47,3.5,11.72,0,4.89,1.6,5.78,5.61,2.43,1.72-1.44,4.43-1.92,6.78-2.37C914.51,396.9,918,393.39,917.92,384.49ZM737.8,273.63a14.13,14.13,0,0,1-1.83,1.8c-7.27,5-16.25,6.8-23.05,12.63-4,3.44-5.12,11.67-2.19,15.8s7.09,6.39,9.22,11.61c4.09,10,5,9.58,17.75,5.33,1.53-.52,3.37-.05,5-.29,7.36-1.06,10.15-4.65,8.06-11.27-.94-3-4.25-5.27-4.87-8.21-.87-4.11.51-8.69-.41-12.77-1-4.57-6.15-7.55-6-13C739.55,274.76,738.41,274.19,737.8,273.63Zm99.43,109.73a7.87,7.87,0,0,0-1.81,1.5c-5.77,8.83-17.76,9.57-23.69,18.3-1.74,2.55-2,2.18.45,7.42,2.67,5.82,4.79,11.89,7.44,17.72,1.4,3.08,4.88,2.42,6.9,1.66,2.94-1.11,4.12-6.07,8.29-4.94,7.54,2.05,11.61-5.89,18.42-6.14.78,0,2.74-5.39,1.88-6.45-6.21-7.7-8-17.82-14.22-25.38C839.79,385.72,838.46,384.58,837.23,383.36ZM620.29,568.62a10.79,10.79,0,0,0-1.61-1.81,3.78,3.78,0,0,0-2.2-.86c-1.32.1-27.34,13-28.11,13.72-1.25,1.21-3.48,2.42-3.52,3.68-.23,8.17-5,9.52-11.74,8.67-3.13-.39-4.63,1.51-4.87,4.41-.35,4.1,1.28,8.66-3.12,11.73-3.57,2.48-1.2,6.44-2.23,9.48-1.29,3.77-3.43,7.24-5.07,10.9-.32.72-.4,2.16,0,2.49,1,.8,3.12,1.9,3.48,1.55,13-12.74,25.58-26,38.92-38.33,4.08-3.79,3.42-9.27,7.14-12.78C611.8,577.3,616,572.91,620.29,568.62ZM985.83,250.07c-1.18-1.18-1.71-2.19-2.42-2.32-1.64-.32-3.84-.93-5-.16-3.4,2.28-5.82,6.75-10.85,5-6.14-2.11-8.05,6.11-13.39,5.23-9.73-1.61-17.41,3.37-25.4,7.49-3.55,1.83-8.48,2.76-10.36,5.67-2.8,4.32,2.37,7.19,4.55,10.65,1.17,1.85,0,5.06.25,7.63.43,5,.62,5.12,5.46,2.18s11-3.61,14.43-9c3.26-5.19,10.66-3.56,14.54-9a29.09,29.09,0,0,1,15.77-11.64C978.3,260.37,981.75,254.15,985.83,250.07Zm-178,133.11c.85,0,2,.37,2.5-.06,6.16-5.8,12.32-11.63,18.21-17.71a5.15,5.15,0,0,0,.57-4.71,150.79,150.79,0,0,0-8.22-14.49c-3.14-4.88-5.68-5-9-.47-5.11,7.1-7.23,15.92-12.63,22.86-1.24,1.59-1.4,2.41.74,3.69,3.34,2,2.72,5.66,3.72,8.69C804.11,382.05,806.4,382.47,807.82,383.18Zm99.71,168.3c-.12-1.47-.47-5.68-.82-9.9-8.17-3.56-1.28-13.09-7.17-18-2.18-1.8-2.54-5.76-3.88-8.67a1.85,1.85,0,0,0-1.74-.61c-.74.35-1.78,1.14-1.79,1.76-.19,7.78-.79,15.6-.1,23.31.71,8.08-4.1,17.53,5.06,23.85-1.23,1.23-2.48,2.43-3.67,3.7a14.69,14.69,0,0,0-1.26,1.82c1.41.77,3,2.41,4.21,2.17C904.39,569.39,907.5,564.51,907.53,551.48ZM783.65,304.88c1.73,0,3.47.06,5.2,0,2.58-.1,3.07-1.92,1.85-4.64-3.11-6.9-8.22-12.32-12.41-18.37-2.63-3.79-3.89-8.9-7.82-12.2-.48-.4-1.37-.88-1.78-.69-.74.33-1.75,1.11-1.79,1.76-.26,3.42.18,6.93-.41,10.27-1.25,7.17,7.84,11.21,5.35,18.64-.26.78-.4,2.1,0,2.51,1.15,1.1,2.55,2.38,4,2.62A47.9,47.9,0,0,0,783.65,304.88ZM777,440c0,1.74,0,3.48,0,5.21.1,5,4.72,8.21,8.23,5s7-4,10.89-5.47c1-.37,2.11-3.38,1.6-4.26-3.64-6.33-5.07-13.87-11-19-1.91-1.68-2.37-2.21-3.84.09-1.79,2.79-4.77,5.07-5.71,8.06C776.24,432.75,777,436.47,777,440Zm5.22-112.23c0,10.86.07,10.8,5,16.18,2,2.2,5.3,2.6,5.09-.07-.52-6.66,4.56-9,7.93-12.47,4.28-4.45,3.13-9.31,1.88-14.16-.23-.93-2.76-1.72-4.27-1.8-5.24-.29-7.46,7.08-13.36,5.45C783.52,323.92,782.49,327,782.24,327.72Zm99.19-35.88c-3.91,9.69,8.83,16,5.42,26-.7,2,6.53,3.86,8.43,1.94.6-.61,1.79-1.3,1.71-1.8-.65-4,2.16-8.78-1.63-12.06-6.43-5.55-1.76-12.89-3.74-19-.48-1.48-4-2.42-6.18-2.71-1.21-.16-3.25,1.27-3.86,2.5S881.43,290,881.43,291.84Zm-31.33,24.9c0-4.26.21-8.53-.05-12.77-.3-4.81-4-4.32-7.38-4.33-8.6,0-9.91,2.35-5.89,10.24,2.86,5.61,5.38,11.39,8.13,17.06a38.31,38.31,0,0,0,2.58,4c.87-1.34,2.34-2.62,2.5-4A93.73,93.73,0,0,0,850.1,316.74ZM723.38,440.6a13.46,13.46,0,0,0,11.76-10.37c.27-1.29-.67-3.83-1.6-4.14-2.08-.7-5.51-1.36-6.62-.26-3.32,3.29-2.07,9.56-7.19,12Q721.55,439.24,723.38,440.6ZM673,330.27c-.47-3.13-.44-5.71-1.37-7.87-.44-1-2.71-1.72-4.15-1.73s-3.46.57-4.26,1.63c-2.3,3,3.15,14.05,6.82,13.52C671.35,335.63,672.16,332,673,330.27Zm176.28-48c0-.6.13-1.36-.17-1.76-1.94-2.62-7.13-2.54-8.58.12a2,2,0,0,0,.12,1.74C842.6,284.93,847.75,284.83,849.28,282.22ZM701.33,409.28c-.58.58-1.73,1.29-1.63,1.72a16.05,16.05,0,0,0,1.63,3.5c.58-.58,1.73-1.29,1.63-1.71A16.13,16.13,0,0,0,701.33,409.28Z"/></svg>