<svg id="Layer_1" data-name="Layer 1" xmlns="http://www.w3.org/2000/svg" viewBox="0 0 1200 1200"><title>BB_Artboard 65</title><path d="M126.86,560c-1.94,1.8-4.19,3.93-6.51,6-.37.33-1.47.52-1.56.37-.73-1.23-1.83-2.55-1.83-3.85,0-5,.85-5.53,7.56-5.46,3.33,0,.65-2.87,2.29,0C127.14,557.61,126.86,558.55,126.86,560Z"/><path d="M176.8,527c.54,2.72-1.13,4.34-3.26,4.88s-4.48.12-6.73.12c-.55-2.72,1.12-4.34,3.25-4.88S174.54,527,176.8,527Z"/><path d="M141.84,547c-.55-2.72,1.12-4.34,3.26-4.88s4.47-.11,6.73-.11c.54,2.71-1.13,4.34-3.26,4.87S144.09,547,141.84,547Z"/><path d="M141.84,547c.55,2.71-1.13,4.34-3.26,4.88s-4.48.11-6.73.11c-.55-2.71,1.12-4.34,3.26-4.87S139.58,547,141.84,547Z"/><path d="M69.2,618.68c.13,3.45-1.54,5.12-5,5Q64,618.48,69.2,618.68Z"/><path d="M154.73,537.43c.58.58,1.64,1.39,1.54,1.58A10.08,10.08,0,0,1,154,542a2.08,2.08,0,0,1-2.09,0,2.13,2.13,0,0,1,0-2.09A17.9,17.9,0,0,1,154.73,537.43Z"/><path d="M166.81,534.25c-1,.77-2.48,2.41-2.88,2.17-3-1.76-1-3.18.69-4.34.49-.35,1.44-.05,2.19-.05Z"/><path d="M338.28,605.44c.87,0,2.41-.25,2.52,0,4.33,11.28,14.21,20.34,13.53,33.62,7.61,8.74,8.24,21.76,17.64,29.28,4.12,3.29,3.67,7.29,3.81,11.59.16,5,5.43,8,8.49,4.9,2.86-2.88,7.71-4.6,7.5-9.9,3.7.14,5.48-1.65,5.34-5.35,7.65,2.54,11.85-6.51,19-5.73.55.06,1.86-1.63,1.78-1.73-.86-1.17-1.81-2.9-3-3.1-3.41-.58-8.09.78-10.15-1-3.46-3-7.73-3.45-11.11-5.6-4.34-2.77-1.52-8.17-1.81-12.38-.43-6.19-.1-12.44-.12-18.67,0-5.31,7.48-7.55,5.41-13.82-2.19-6.62,7.94-9.21,5.44-16.5-2.17-6.31,6.81-9.1,5.75-16.5-.7-4.9,2.62-11.77,6.36-15.59,6.45-6.59,3.41-10.24-1.36-15.25-1.33-1.39-.2-5.14-.2-7.81,3.38-.86,4.35,2.39,6.46,3.73,5,3.17,9.82,1.68,9.48-3-.51-6.92,2.34-14.32-1.45-20.65-1.79-3-3.72-5.28-4.07-9.11-.26-2.9-11.66-4.52-13.85-2.15a7.55,7.55,0,0,0-1.83,4.5c-.22,5.32-.09,10.66-.09,16h-5.35c0-2.62.12-5.25-.08-7.86-.05-.67-1.24-1.89-1.63-1.79-1.28.33-3.33,1-3.47,1.81a45.49,45.49,0,0,0-.17,7.84c-8.29-.86-13.94,2.26-16,10.7a17.61,17.61,0,0,1-8.34-5c-8.09,12.9-14.55-2.88-22-1.34-.39.07-1.56-1.29-1.45-1.78.17-.73,1.27-1.91,1.75-1.82,6,1.22,8.47-5.75,13.57-6,4.7-.19,6-2.51,5.79-6.56-.33-5.72-.31-11,8-9.81.7.1,2.9-3.18,2.52-3.9-4.47-8.46-4.54-20.33-17.15-22.69-2.78-.52-4.43-2.17-4.13-5.47.38-4.37-.22-8-3.54-12-3.55-4.21-7-10.49-6.61-15.59.57-7.94-7.66-11.53-6.88-18.76-6.09-3.05-2.86-12-9.43-14.78-.19-6-1.09-11.1-5.06-16.75-4.69-6.67.62-12.82,9.16-12.89,2.67,0,5.41-.36,8,.14,1.39.27,3.75,2.43,3.55,3-2.79,7.84,5.84,13,5.07,19.16-.91,7.26,6.53,10.15,5.91,16.54-.24,2.48-.15,5.47,1,7.52,2.54,4.45,9.22,6.23,9.4,12.08.17,5.53,7.92,7.58,5.55,13.79,3.5,2.84,6.19,6.1,5.66,11,5.31,2.67,4.28,9,7.43,13,2.5,3.19,3.76,7.32,5.81,10.9,3.14,5.47,8.42,5.81,13.84,5.1,1.53-.2,4.27-1.79,4.17-2.23-1.39-6.1,5.94-8.35,7.41-16.18.53-1.62-.66-.89-1.49.13a2.29,2.29,0,0,0,0,2.24,2.26,2.26,0,0,0,2.24,0,10.89,10.89,0,0,0,2.43-3.15c.1-.2-1-1.07-3.21.76-3.07,1.83-5.95,1.07-5.91.6.9-9.06-5.2-15.77-8-23.47-1.09-3-4.09-5.19-3.72-9.15.58-6.13.85-12.14-5.09-16.69-1.28-1,0-5.11-.23-7.76-.3-3.35,1.54-5.1,4.36-5.14,4.19-.07,8.63-1.33,12.16,2.86,5,5.87,13,10,10.27,19.78a67.57,67.57,0,0,1,10.82,22.21c.34,1.29,2.45,3.1,3.63,3,9.13-.6,6.49,6,7,10.79.17,1.57.88,4.11,1.83,4.36,2.23.6,5.34.94,7-.19,2.8-1.88,6.5-4.84,6.75-7.62.5-5.76,2.54-7.36,8-7.44,2.5,0,3.28-3.5,3-6.31-.53-5.86,0-10.89,8.06-9.53,3.77-3.77,7.43-7.66,11.35-11.28s7.87-6.72,11.82-10.07c9.1,2.55,14.84-8.41,24.54-5.64,5.76,1.64,12.38.52,18.59.2,3.18-.17,5.07,1.48,6.53,3.55,5.17,7.35,15.94,7,20.45,15.06.38.68.14,1.7.28,2.54.83,5.09-2.44,11.16,1.77,15.18,5.53,5.28,3.05,11.46,3.49,17.3.39,5.3.08,10.66.08,16-3.34.61-4.89-1.41-5.29-4.18-1-6.59,2.73-14.29-4.78-19.26,1.66-6.72-4.93-10.21-6.66-15.88-1.82-6-9-10.41-13.93-15.36-5.57-5.54-18.07-6-23.42-.84-4.46,4.28-9.24,8.36-13,13.2-4.45,5.7-12.7,4.84-16.79,11.06-3.85,5.84-12.1,5.46-16.63,11.16-4.93,6.19-11.12,11.36-16.72,17-7.36,7.42-8.36,14.77-2,25.19,2.17,3.57.92,6.72,1.62,10-3.71-.14-5.49,1.64-2.71,20.13,2.66,14.78,2.68,14.78,2.71,14.78,0-3.53,1.46-8.88-.26-10.27-6.83-5.51-4.81-12.55-5.09-19.3-7.2.56-3.92-6.3-6.45-9-1-1.06-2.95-1.45-4.54-1.69-3.21-.47-5.14,1.54-4.95,4.38.44,6.63-2.91,14.33,4.78,19.17.56,7.52,8.75,12.75,6.1,21.52-.56,1.87,3.36,3.6,6.1,2.92,1.52-.37,3.44-1.34,4.07-2.59s.17-3.43-2.47-20c1.06-14.65,2.84-16.43,2.71-20.13.88,0,2.49-.21,2.55,0,2.06,7.13,9,12.38,8.1,20.6-.35,3.08,1.55,4.69,3.23,6.69,3.23,3.84,9.52,6.22,7.43,12.84-2,6.32,6.19,8.21,5.43,13.79a8.1,8.1,0,0,1-.37,2.51c-1.15,2.26-2.83,2.7-3.66.92-2.26-4.9-8.09-2.49-11-5.64-3.32-3.56-6.71-5.86-11-1.59-3,3-7.05,5.39-6.13,10.81a28,28,0,0,1,0,8c-.67,5.64,5.86,7.65,6,13.76.11,4.68,7.36,2.14,11.4,3,1.43.3,2.61,1.78,3.9,2.72-1.26,1.25-2.6,2.43-3.75,3.78-2.08,2.45-6,5.47-5.58,7.41.64,2.77,4.54,4.79,7.06,7.12l5.65-5.65c1.25-1.25,2.53-2.48,3.76-3.77,5-5.2,5-7.3-.13-12.86-6.72-7.37-6.3-7-.67-13.29,6-6.66,14.2-8.63,21.68-12.18,2.18-1,6.25.37,7.41-1,4.34-5.23,12-7.9,12.85-15.9.32-3,2.3-3.59,4.89-4.78,10.2-4.68,10.06-5,21.85-5.14.34,5.35-7.63,7.34-5.43,13.44-3.42,3.82-10.07,2.06-12.66,7.32-8-.14-10.82,9.35-16.48,10.42-9,1.7-12,9.24-18,13.6-.08.06,1.26,3.13,2.06,3.19,4.34.34,8.71.16,15.53,1.72,1.61.52.89-.67-.13-1.49a1.6,1.6,0,0,0-2.26,2.26,10.59,10.59,0,0,0,3.15,2.43c.2.11,1.07-1-.76-3.2-2.65-7,2.4-8.56,5.25-11.61,1.43-1.54,5.23-.72,6.94-2.16C534.82,583.34,539,575.72,545,574c8.65-2.55,11.56-10.6,18.3-14,6.17-3.11,12.08-6.08,16.57-11.5,3.32-4,3.65,1.56,5.62,2a7.75,7.75,0,0,1,1.89,1.1c.77-1.46,2-2.88,2.16-4.4a7.93,7.93,0,0,0-1.39-4.67c-2.73-4.23-5.81-3.14-11.32-2.22-6.91,1.16-10.56,5.57-14.63,9.86-3.09,3.27-6.68,1.09-10,1.81.68-3.25-.79-6.45,1.61-9.92,6.62-9.57,18.66-11.73,26-20.23,6.1-7,6.13-10.46-2.22-16.44-1.86-1.33-4.79-1.07-7-2s-2.16-2.15-1-3.71c3-4,8.95-5.83,9.35-11.91,2.67,0,6.91,1.05,7.74-.18,3.3-4.93,9.83-3.73,13.06-7.47,6.89-8,18-10.19,24.49-18.69,3.2-4.15,4.34-7.48.12-11.07s-2.15-8.13-2.6-12.3.87-10.42-1.47-12.52c-4.87-4.37-2.67-12.17-9-15.3-2.23-1.1-5.43-3.86-5.27-5.59.79-8.58-4.66-8-10.11-7.78-4.28.18-6.7-1.58-6.17-6.05.45-3.83-2.32-9.68,4.86-9.91,4.76-.16,5.94-2.55,5.79-6.58-.13-3.4.9-7.18-2.72-9.51-.63-.41-1.75-.06-2.64-.06h-5.34C595,354.54,595,354.54,595,348.31s.56-12.51-.14-18.65c-.78-6.79,4.6-9.09,8-12.69,2.41-2.53,7.53-.11,8.11,3.53a35.08,35.08,0,0,1,0,5.33c0,3.67.17,7.09,5.4,6.89s10.66-.05,16-.05c-.44,6.16-6.49,7.93-9.49,12.1-2,2.79-4.42,5.29-6.54,8-1.12,1.43,1,6.38,2.92,6.59a45.27,45.27,0,0,0,5.34,0c7.72-.05,13.24-8.26,21.64-5.85,2.57-4,7.15-4.1,10.9-5.9s.7-8.66,5.76-10.85c2-.86,1.32-2.14-.64-3.78-4-3.34-3.11-5.42,2-5.7.89-.05,1.78,0,2.67,0,7.55-.16,7.78.14,8.15,6.77a33.42,33.42,0,0,1-.06,8c-1.13,5.89,6.68,7.72,5.62,13.87-.9,5.2-1.62,11.24.21,15.85s6.43,7.77-.29,11.95c-.78.48-.77,4.38.08,5,5.13,3.58,5.42,8.52,5.24,14a138,138,0,0,0,.47,18.53c.24,2.36,2.17,2.34,3.67.86,1.77-1.76,3.2-3.56,6.34-4.1,11.46-1.95,10.67-14,16.12-20.94a2.7,2.7,0,0,0,0-2.55c-6.06-4.17-4.33-10.71-5.83-16.42-1.14-4.34-6.13-7.67-9.41-11.46,5.66-3.36,4.26-8.95,4.69-14.12.41-4.89-1.14-8.5-4.94-11.38-4.51-3.42-6.65-7.55-6-13.62.72-7.06-.07-14.26.26-21.37.21-4.47-3.45-5.86-5.63-8.38-4.19-4.85-5.87.83-7.34,2.59-3.8,4.54-8,6.7-13.86,5.53,1.25-6.71,7.39-9.49,11.42-13.9,3.38-3.68,6.16-8.95,12.82-7.84.59.1,1.7-2.63,2.49-4.09,3.05-5.62,3-5.52,5-4,4,3,6,9,12.54,8.54,1.21-.07,3.79,2.14,3.64,2.87-1.41,6.83,6.11,9.65,6.69,16.22.45,5.13,7.84,7.73,10.24,14.28s5.12,14.47,11.78,19.14a14.46,14.46,0,0,1,3.5,3.88c.41.61.11,1.73.07,2.62-.49,10.05,6.66,16.81,10.6,25,.7,1.45.1,3.51.1,5.29a99.87,99.87,0,0,1-.08,10.67c-.45,4.17,2,6.51,4.7,8.74,1.55,1.28,2.85,5.08,5.62,1.26,4.19-5.8,10.87-7.87,16.49-11.58,5.82-3.84,10.27-9.78,15.27-14.84,7.48-7.57,8.27-14.78,2.85-25.45-3-5.88-3.09-6.2-.34-9.1,3.68-3.86,7.53-7.57,11.3-11.34,4.56,3.82,10.77,7.21,8.24,14.48-3.9,11.21,6.85,19.15,5.83,29.89-.43,4.55,7,6.08,12.37,4.31a36.46,36.46,0,0,0,11.13-5.57c4.07-3.07,11.7,0,16.19,4.53,3.83,3.88,4,7.52-.17,11-1.86,1.57-2.63,2.83-1.09,3.75,1.37.82,3.45,1.8,4.66,1.32,5.4-2.16,10.16-5,16.43-5.88,5-.74,8.95-7.75,13.82-11.37,6.79-5.06,15.13-7.81,20.48-15.1,4.72-6.43,13-7.09,19.66-10.34a16.76,16.76,0,0,0,4.1-2.95c6.4-6.1,12.73-12.26,19.08-18.41,10.23-.64,14.39-9.61,20-15.8,5-5.51,12.93-4.64,17.23-10.79,1.65-2.35,7.46,1,7.65,4.22.32,5.35.54,10.67-5,14,1.63,10.11-4.42,16.37-11.35,22-7.4,6-11.95,15-21.6,18.68-8.46,3.2-12.95,11.55-19.54,17.24-2,1.74-4.4,3.45-5.5,5.72-.95,2-1.39,5.92-.24,6.95,6.2,5.51,5.71,10.13-.53,15-3.41,2.66-6.3,7.49-9.92,8-6.16.91-6.89,3.71-6.65,8.68.26,5.32.93,10.86-.16,16-1.37,6.38,7.06,8.4,5.41,13.8-2.19,7.17,5.51,10.33,5.61,16.51.09,5.86-1.49,11.71,4.08,17.14,3.78,3.68-1,12.24,5.86,16.19.88.5.56,3.24.64,4.94.26,6-.75,11.7,4.77,16.92,3.06,2.9-1.65,10.36,4,14.22,1.13.77,1.8,2.93,1.85,4.47.19,7.11.08,14.23.08,21.34-2.92-2-.44,2.55-2.79.16-3.76-3.81-1.52-8.23-2.73-12.1-.94-3-5.41-6.12-4.84-8.27,3.07-11.78-8.47-20.62-5.72-32.08,1-4.08-3.89-5.87-4.36-8.62-1.28-7.36-9.21-12.48-6.57-21.22.61-2-2.73-4.11-5.65-3.38a22.13,22.13,0,0,0-4.35,2.18c.95,1.24,1.68,2.81,2.91,3.65,2.17,1.5,2.19,2.29.41,3.87s-4.59,3-3.75,6.28c-2.91-2.06-.46,2.55-2.8.15-5.11-5.23.71-14.51-7.31-18.28.86-1.25,1.47-2.83,2.63-3.68a5.89,5.89,0,0,0,1.93-7c-.86-2.26-4.57-3.78-4.81-5.88-.43-3.65-1.15-6.44-3.84-9.19-1.51-1.53-1.11-4.77-2.08-7-1.27-2.89-6.57-3.59-9-1.3-3.21,3-6.08,6.46-9.46,9.3-4.16,3.5-3.81,8.73-2.36,12a100,100,0,0,1,5.63,16.36,157.83,157.83,0,0,0,5.38,16.26c2.08,5.51,6,10.37,4.57,16.59-1.77,7.57,2.52,13,5.44,19.05s6.75,11.39,5.62,19-.26,15.88-.26,25c0,.4.31-.71-.08-1.1a2.32,2.32,0,0,0-2.26,0c-1.76,1.24-4,2.77-.74,4.65.43.25,2-1.5,3.08-3.52,3.88,2.4,10.56,13.49,10.67,16.87.13,3.56.18,7.14,0,10.69s.35,6.63,3.26,9.42c4.52,4.33-4,6.59-2.88,7.15,8.24,4.18,3.46,12.83,7.09,18.76,4.71,7.67,10.87,15.49,8.64,25.78-.91,4.22,4.1,5.88,4.6,8.71,1.31,7.46,9.21,12.9,6.23,21.66a7.72,7.72,0,0,0,1.47,7.35c4,5.22,8.56,11.74,8.43,17.56-.15,7.06,7.39,10.47,5.78,16.46-2.12,7.93,7.21,11.26,6.1,19.3-.68,4.88,2.65,12.17,6.61,15.42,6.11,5,.28,13,5.48,16.56,6.45,4.47,1.68,11.38,5.23,16.76,4.94,7.48,10.31,15.4,9.84,25.29,0,.54,1.26,1.66,1.78,1.58.72-.12,1.8-1.11,1.83-1.77.37-6.14.64-12.28.71-18.42,0-1.62-.25-4.24-1.2-4.7-8.22-3.94-.69-13.62-7.33-18.62-5.52-4.17,1.66-14.69-7.45-18.16.09-5.31.11-10.62.34-15.92,0-.66,1.09-1.48,1.85-1.81.42-.19,1.73.4,1.78.77.89,6.42,4.85,10.78,9.47,14.84a7.22,7.22,0,0,1,2.49,4.24c.33,4.43-.57,9,.32,13.32.82,3.92,6.54,5.88,5.17,11.2-1.31,5.1,3.19,7.6,4.93,11.32s.23,8.74.48,13.18c.08,1.56.71,3.66,1.84,4.49,8.07,5.86,10.07,13.69,8.91,23.18-.52,4.31,6.31,5.81,5.33,11.16a35.6,35.6,0,0,0,0,10.66c.5,4,7.85,9.83,11.27,9.39s9.87-7,10-10.7c.17-5.34,0-10.69,0-16,1.52.62,3.65.82,4.42,2,1.79,2.62,0,7.31,4,8.6,2.41.78,5.33.5,7.91.07,5.43-.91,10.52-7,10.3-12.82-.16-4.21,2.31-9.49-1.52-12.49-5.4-4.23-3.19-9.54-3.7-14.52-.76-7.49,2.92-16.06-5.36-21.69V781.94c3.28.6,4.44-1.48,5.37-4.08,4.14-11.65-7.92-20.47-5.56-31.93.41-2-.94-5.24-2.57-6.6-5-4.13-.66-10.12-3.56-14.33-.76-1.11-2.88-1.29-4.38-4.34,0-5.17.32-7.77-.14-10.22-.21-1.13-1.89-2-3-2.85-.11-.08-1.59,1.06-1.65,1.71a56.35,56.35,0,0,0-.38,10c.11,1.35,1.58,3.5,2.7,3.68,5.11.84,1.25-3.43,2.51-2.28v29.19c-2.91-2.07-1.15,3.22-2.71,0-.37-.76-1.76-1.27-1.77-1.92-.15-6.94-3-12.76-5.84-19s2.63-14.87-2.12-20.37c-5-5.74-3.27-11.53-3.47-17.36-.18-5.45-7.14-7.44-5.72-13.88,1.12-5.06,2.12-12.05-.44-15.56-3.44-4.7-6-9-4.48-14.2,2.06-7.22-6.59-10.41-5.4-16.53s-4.47-9.16-5.24-13.9c-.83-5.17.34-10.66-5.18-14,3-9.28-6.34-15.26-6.33-24.35,0-6-6.54-11.58-5.28-19.13.27-1.59-2.78-3.73-4.3-5.62,3.56-2.31,4.86-7.71,10.28-7.48a5.52,5.52,0,0,0,2.61-.14c2.13-1.12,2.57-2.49,1.39-3.72s-3.27-2.34-3.64-3.82c-1.93-7.61,2.86-16.68-2.33-23-5.48-6.66-2.34-13.44-3.47-20.07-.29-1.73-.75-4.07.1-5.24,2.07-2.84,4.58-6.59,7.48-7.18,2-.41,5.17,3.67,7.35,6.15,1,1.09,1.2,3.26,1,4.85-1,7.22,1.34,13.21,5.26,19.29,4.13,6.41,7,13.64,5.54,21.75-.16.86-.29,2.45,0,2.57,9,3.61,2.29,13.49,7.3,18.39,2.84,2.79,4,5.7,3.32,9.36-2,10.92,2.31,20.2,8.13,28.68,2.26,3.28,2.34,6.25,2.65,9.67.62,6.68-2.86,14.42,4.71,19.43q.28,10.57.59,21.14c7.74,6.88,5.2,16.07,5.22,24.53,0,5.55,7.16,7.43,5.71,13.88-1.14,5.08-.2,10.63-.18,16,6.73,3.78,5,10.49,5.74,16.36.1.7,1.19,1.27,1.82,1.9,1-1.09,3.14-2.5,2.92-3.2-2.7-8.73,6-13.86,6.53-21.48,4.53-2.15,9.66-2.82,13.09-7.43,1.85-2.49,2.89-6.11,1.75-7-5.68-4.61-5-10.54-5.32-16.72-.52-9.23,3.71-19.54-5.19-27.21V604.85c-8.18-9.8-4.63-21.53-5.35-32.55-8.37-8.78-2.09-20.77-5.86-29.65-7.24-17.09-4.12-34.33-4.58-51.49-.22-8-8.51-12.85-6-22,1.85-6.61.36-14.16.36-21.29-9.08-6.58-4.29-16.21-5.27-24.53-.61-5.18-7-7.5-5.65-13.87,1.08-5.11.22-10.65.22-16s.08-10.7,0-16c-.15-7.66,1.58-15.64-5.14-22.05-1.33-1.27-.49-5.2-.07-7.8.25-1.52,1.34-3.56,2.61-4.14,6.1-2.8,17.75,3.79,18.74,9.91,1.52,9.31-3.09,18.86,3,28.22,5.5,8.47,2,18.9,2,28.4,0,8,8.47,12.86,6,22-1.82,6.59-.25,14.11-.19,21.22,8.84,6.7,4.19,16.28,5.08,24.61s-2.27,17.63,5.44,24.51c0,7.13-.33,14.28.1,21.39.4,6.68-3,14.38,4.46,19.54.54.37.62,1.51.77,2.32,1.82,9.29-3.1,19,2.9,28.25,5.66,8.68,1.13,18.92,2.48,28.35,1.31,9.16-4.13,19.61,5.18,27.31.45.37.15,1.69.15,2.57,0,8,1.54,16.43-.39,24-2.34,9.13,6.52,13.88,5.88,22s.88,16.2-.41,24c-1.41,8.56,7.69,13.34,5.85,21.95-1.43,6.71.13,13.15,4.71,19.43,2.58,3.55-.53,11,1.71,15.15,2.09,3.9,4.39,7.07,4.12,11.75-.31,5.33.69,10.83-.26,16-1.26,6.87,4.3,11,5.29,16.58,1.08,6,.25,12.44.25,18.68,0,4.45.28,8.93-.08,13.36s3.22,5.93,5.38,8.5c3.39,4,10.24,2.24,12.89,7.57,6.5-.41,9.34,2.84,9.13,9.13,6.1,5.24,7.18,13,10.12,19.88l-16.36,28c-2.52,2.52-5.32,4.83-7.47,7.63-1.45,1.9-3,4.59-2.74,6.77.72,7.49-3.1,15.87,4.39,22.31,1.4,1.21,1.27,5.16.65,7.54-1.77,6.87,4.41,10.94,5.27,16.57.93,6.1,0,12.46.37,18.68.08,1.36,2.55,2.42,3.27,3.94,3.34,7,2.63,11.5-1.86,16.37-2.49,2.69-5.51,5.86-8.85,3.92-3.52-2-7.08-5.61-8.44-9.32-1.44-3.92-.22-8.79-.35-13.24-.29-10.44-5.35-14.85-16.79-14.59-3.36.07-6.8-.86-9.76,2.33-6.06,6.53-12.53,12.67-18.84,19-5.24-1.36-7.49,4.18-11.2,5.11-9.85,2.46-17.44,9.61-27.2,11.91-3.39,5.8-9.07,4.17-14.21,4.46-4.3.25-8.57.8-12.86,1.21-3.49,7.57-12.14,1.17-16.25,5.78-5.12,5.76-11.45,2.88-17.27,3.68,0-.89-.36-2,.05-2.63,3.65-5.19,3.89-9.59-.73-11.14-9.58-3.21-15.19-10.94-22.33-17-4.1-3.49-3.83-7.49-3.74-11.86.05-2.66-.84-7.26.14-7.69,8.9-3.9,3.14-12.92,7.11-18.67,9-13,11.63-29.81,24.61-40.39-.64-7.37.54-13.89,7.47-18.29,2.19-1.39,3.63-3.92,5.73-5.53,4.68-3.57-1-5.33-1.06-7.59-.2-13.31-10.1-22.61-13.53-34.49-.44-1.5-3.72-3.09-3.46-3.72,3.6-8.79-5.79-13.83-5.91-21.83-.12-8.4-5.3-12.67-12.64-13.05-3.54-.18-7.15.28-10.63-.2-1.2-.17-3.17-2.49-3-3.56,1.38-9.35-5.75-15.48-8.51-23.22-1.37-3.85-3-8.08-5.72-10.86-4.44-4.44,1-11-3.66-14.49-4.37-3.32-3.71-7.54-3.67-11.88a47.16,47.16,0,0,0,5.32,0c3.91-.44,6.68-3.95,5.33-6.77-.71-1.49-2-2.68-2.84-4.15-4.41-8.12-9.45-16-7.91-26,.23-1.44-.46-4-1.52-4.52-7.07-3.86-1.44-11.57-5.4-16.54-4.09-5.13-8.55-11.74-8.39-17.48.22-7.7-8-11.69-6-19.08,1.63-6-4.77-8.35-6-13.61s-6-10-4.79-16.55c1.41-8-9.31-13.05-5.32-21.71-5.51-4.26-5.86-10.09-5.42-16.41.37-5.3-.83-10.84.3-15.91,1.45-6.41-5.83-8.38-5.6-13.79a88.49,88.49,0,0,1,1.59-15.76c1-4.84,0-4.67-.12-4.26-.6,2.27-.86,4.62-1.47,6.88-.69,2.53,0,3.39,2.5,2.46a3.65,3.65,0,0,0,1.79-1.61c1.82-3.67,1.19-8-2.7-3.47-3.33,5.12-5.14,5.35-6.86,5s-4.09-.87-4.35-1.82c-.6-2.22-1-5.48.14-7,3.11-4,6.46-8,12.65-7.83,2.24.06,2.39-2.17.69-3.57-3.47-2.84-6.24-9.52-11.35-1.72-.08.11-1.56-.29-1.74-.72-.63-1.5-1.87-3.69-1.28-4.61a56,56,0,0,1,7.91-10c2.46-2.41,2.18-4.26-.34-5.62-2.3-1.23-2.94-7.32-7.48-2.84-1.18,1.17-2.77,2.9-4,2.79A12.74,12.74,0,0,1,873.3,501c-.87-.72-.79-3.71,0-5,1.26-2.22,4.15-3.64,5-5.91s1.13-6.41-1.89-6.79c-6-.75-9.23-2.59-9.3-9.27,0-1.9-3.47-3.76-5.34-5.63l-1.88-1.88c-.92,1.32-2.3,2.52-2.7,4-3.13,11.62,6.53,20.69,6.59,31.8,0,2.08,3.29,4,3.9,6.25,1.51,5.63-2.59,12.15,3.25,17.29,4.67,4.11,2,10,2,15,0,5.58,7.16,7.38,5.77,13.76-1.11,5.06-.23,10.56-.23,15.87,7.44,4.75,5.07,12.25,5.35,19-6.3-1.94-10.76-5.37-10.71-12.71,0-6,.08-11.42-4.74-16.95-3.41-3.91,2.06-12.72-2.57-17.31-4.8-4.75-3.57-9.88-3.17-14.77.6-7.34-8.72-11-5.81-19.28,1.42-4-6.08-5.73-5.23-11.08.69-4.35.23-8.9.12-13.35-.16-6.68-1.35-7.38-10.73-6.87-3.76.2-7.16,4.28-5.15,6.86,3.91,5,7.1,10.4,5,16.55-2.52,7.41,7.6,9.4,5.78,16.62-1.27,5-.25,10.64-.25,16,8.31,5.69,5.85,14.45,5,21.81-.82,7.06,8.11,9.18,6,16.62-1.37,4.84.06,10.47.24,15.74,8.73,5.45,1.26,16,6,21.41,6.46,7.34,2,15.37,4.38,22.43,2.77,8.08,7.08,15.61,5.12,24.6,7.47,5.89,5.54,14.28,5.16,21.84-.36,7.28,7.07,11.44,5.87,19.23-.87,5.55-2.74,12.42,3.61,17.11,1,.78,1.28,3.07,1.36,4.69.41,8.49-1.53,17.08,5,24.81,2.2,2.59.64,8.65.24,13.07-.24,2.78-2.2,3.86-5.36,4.28-6,.81-10.17-1.44-13.69-5.93-3.12-4-2.15-10.31-7.54-12.93,2.3-7.53-2.86-13-5.33-19.18-2.14-5.36-5.25-10-6.09-16.38-.77-5.8-4.54-12.26-9.17-17.5-3.21-3.64,1.29-10.15-3.86-14.45-3.79-3.16-3.33-9.12-7.28-13.15-2.23-2.27-.4-8.52-.4-13,5.72.93,8.18,5.28,10.75,9.8,3.64,6.4,4.43,14.35,10.48,19.4a21,21,0,0,0,3.71,2c.6-1.51,1.72-3,1.71-4.53-.07-6.73,2.19-14.2-5.26-18.9-.76-7.65,3-16.55-2.16-22.73-5.55-6.69-3.21-13.57-2.76-19.89.55-7.6-4.18-12.67-5.47-19-1.37-6.76-.31-14-.31-21,1.48-.59,4-.93,4.24-1.81.73-3.2-1.64-3.73-4.24-3.54,0-5.3-.21-10.61.08-15.9.18-3.27-1.38-5.09-4.12-5.38-3.72-.4-6.8-.6-6.71-5.62.19-9.71.12-19.44,0-29.16,0-2.47,1.08-5.32-1.72-7.22-5.21-3.55-3.06-11.59-9.24-14.87-1.9-1-2.72-2.38-3.83-.58-5.24,8.48-16.51,8.93-22.27,16.79-1.61,2.2-1.71,1.94-.43,11.36a60.42,60.42,0,0,1,0,13.24c-.29,3.38,2.18,4.6,4,6.32,1.57,1.53,1.68,3.12-.75,3.64a12.27,12.27,0,0,1-7.07-.93c-.95-.42-1.58-3.1-1.28-4.54,1.26-6.14-2.39-9.62-6.14-13.49-2.34-2.43-5.68-2.67-7.12-1.6-7.42,5.57-16.84,8.31-22.54,16.46a10.21,10.21,0,0,0-1.68,7.28c.53,7.49-3,16,5.28,21.64v14.45c0,.4.31-.71-.09-1.1a2.32,2.32,0,0,0-2.26,0c-1.76,1.24-4,2.76-.74,4.64.43.26,2-1.49,3.09-3.51,1.51-.57,4-.3,4.38.75,1.55,4.05,2.13,8.59-.23,12.39-1.65,2.68-5.47,4.19-1,7.68,5,3.84,8.41,8.15,7.81,15.52-.45,5.57,6.66,9.38,5.34,16.46-.9,4.79,7.1,7.44,5.64,13.46,3.89,2.82,5.6,6.56,4.75,11.34-.74,4.15,2,6.45,4.66,8.71,4.15,3.59,7.59,7.43,6,13.49-1.34,5.25,5.86,6.15,5.44,11.11-.37,4.4-1.85,10.35.33,13,3.47,4.14,3.67,9.62,7,13.17,5.82,6.18,2.3,13.23,2.83,19.88,0,.58-1.17,1.8-1.79,1.79-6.69-.11-13.93,3.11-19.74-2.75C787.55,731,781.54,727,781,719.25c-5.9-3.15-2.94-11.87-9.38-14.78-5.43-2.46-4.33-9-7.6-12.77-4.57-5.19-10.26-9.11-9.08-17.85.39-2.87-4.71-6.86-7.85-9.73s-.88-4.32.93-5.67c2.11-1.57,2.59-3,.4-3.73-2.36-.82-5-.82-7.53-1.14-6.5-.83-6.5-.83,19.9,13.21,26.74,22.13,27.4,20,26.63,18.63-3.43-5.94-6.67-11.81-5.78-19-8.08-3.78-1.69-13.73-7.61-18.18s.86-12.38-5.57-16.51c-5.37-3.45.49-10.61-3.9-14.32-4.81-4.06-3.23-11.76-9.12-15,4-8.69-7.45-14.07-5.13-21.78,2.68-8.89-5.94-13.88-5.82-21.91.1-7-1.3-7.21-7.92-6.76-6.12.41-17.3,10-18.55,16-.17.86-.35,2.37,0,2.58,8.88,5,1.86,17.46,10.65,22.39-2.37,8.31,2.6,13.37,8.2,18,3.36,2.75,2.27,6.32,2.49,9.69.27,4.25-1.48,6.47-6,6.3a44.43,44.43,0,0,0-7.81.5c-.71.1-1.54,1.09-1.8,1.84-.15.44.68,1.74,1.16,1.78,7.34.71,10.68,4.38,9.12,11.88,4.31-.88,5.16,4,8.37,4.92.42.12,1.24-1.15,1.86-1.79,1.73-1.78,3.39-3.92,5.68-.6,1.89,2.76,5.75,4,5.59,8.43-.2,5.24,7.51,7.47,5.74,13.61,4.66,5,10.76,8.86,11.5,16.67.13,1.37,2.36,2.54,3.62,3.8,1.89,1.89,3.68,3.9,5.71,5.62a16,16,0,0,0,3.74,1.81c.56-1.55,1.12-3.1-25.07-28.56-29.77-24.51-31.66-22.64-32-20.24-.49,4.07-.13,8.24-.13,12.37-2.91-2.06-1.13,3.22-2.7,0-.37-.75-1.83-1.35-1.76-1.88,1.13-8.1-5.38-14-6.11-21.43-.62-6.15-.19-12.41-.11-18.62s-7.26-9.28-5.78-16.51c.66-3.2-3.52-7.19-4.83-11-1.25-3.66,2.37-9.22-4.2-10.73-4.13-1-6,2.64-8.72,4.64-5.41,4-7.87,11.49-16.55,11.75-3.63.12-2.75,5.73-2.69,9.13.06,2.67-.28,5.33-3,6.07-.85.23-2.24-2.74-3.75-3.44-3.22-1.49.88-3.21-1.83-.9-.67.58-1.9,1.4-1.79,1.86,1.69,7.44-2.77,13-5.7,26.95,0,4.43-.43.83.09-2.64,1-6.85-5.73-7.14-8.69-10.49-2.05-2.32-6.81,1.17-7.57,4.33-2.19,9.14,9.18,15,5.66,24.42-.3.78,2,2.55,3.17,3.84a9.45,9.45,0,0,0,1.89,1.85,13.12,13.12,0,0,0,3.76,1.75c.4.09,1.59-1.17,1.61-1.83.15-4.42.08-8.84.08-21.23,1.77-8,3.59-8.2,5.3-7.89s4.16.91,4.37,1.83a42.85,42.85,0,0,1,1,10.25c-.08,8.66,1.35,17.36,3.48,20.76a10.57,10.57,0,0,1,1.85,4.52c.46,6.76-2,14.28,5.42,19.06-.91,6.34.82,11.48,5.1,16.61,2.6,3.12-4.71,11.44-10.38,12.48-5,.92-9.17-.65-10.76-4.11-4.1-8.94-7.52-18.26-12.43-26.73a266.73,266.73,0,0,1-12.48-24.14c-3.35-7.45-8.28-12.8-13.62-18.27-1.33-1.36-11-2.34-12.5-1.37a7.55,7.55,0,0,0-1.88,1.86c-4.27,5.64-10.73,7.94-16.47,11.51-7.57,4.73-12.82,11.67-11,21.94.59,3.39-6.78,14.44-10.54,17.91.86-3.37-2.43-4.32-3.72-6.45-7.22-11.9-7.19-11.92-16.64-2.59-3.16,3.11-6.09,6.49-9.47,9.34s.07,3.86,1,5.74c2.6,5.12,5.91,10.15,7.14,15.62,1.11,4.93,3.89,4.47,7.31,5.25,3.65.83,5.47,5.48,3.09,8.09-3.25,3.59-3.78,5-.78,9.86,4.17,6.82,8.82,14.61,6.74,23.76-1,4.22,4.89,6.39,4.55,8.51-1,6.42,6.19,8.29,6.12,13.67-.05,4.44.25,8.9-.19,13.29-.11,1.08-2.39,2.41-3.87,2.78a5.65,5.65,0,0,1-6.59-2.82,4.38,4.38,0,0,1,0-2.62c1.71-9.63-1.71-16.88-9.44-22.8-4.45-3.4-4-3.86-6.68,3-.55,1.41-1.78,3.54-2.81,3.6-2.6.16-9.39-10.79-7.71-12.4,10.09-9.65,3.26-21.76,5.23-32.52-8-7.75-8.34-20.09-16.69-27.76-2.44-2.25-5.64-2.67-7.12-1.59a57.32,57.32,0,0,1-10.95,5.84c-5.29,2.38-9.36,8-13.17,12.85-1.29,1.64-.21,5.16-.21,7.82-4.81.37-10.7-2.21-11.08,6.87-.17,3.95-7.35,7.68.21,11.68,0,6.08-.82,12.45,5.53,16.4-.77,6.32-.17,12.19,5.34,16.47-3.75,11.75,6.08,21,5.74,32.51-.21,7.13,6,13.47,6.34,21.36.11,2.27,4.55,5.86,7.21,6.06s1-5.39,2.29-6.46c4.41-3.56,4-9.39,7.23-13.13s5.42-7.24,1-11c-3.08-2.61-2.44-6.18-3.75-9.18-2.21-5.07-1.82-8.82,2.08-11.3a11.07,11.07,0,0,1,4.73-1.39c5.12-.49,4.45-4.17,4.78-7.65.09-.85,2.11-1.69,3.37-2.16.35-.13,1.73,1.14,1.74,1.78.12,9.79.37,19.59,0,29.37-.24,5.71.7,10.31,5.72,13.73,3.83,2.61,4.54,6.56,5.45,11.13,1.43,7.18,3.63,14.72,9.69,19.92,4.21,3.61,7.32,7.46,6.11,13.58-.28,1.41.42,3.88,1.49,4.56,7,4.44,7.5,13.64,13.29,18.49,5.6,4.69,5.72,12.35,11.1,16.93,3.22,2.74,6.09,5.48,6.51,10.74.28,3.57,6.39,5.86,5.1,11.21-.06.27,2.26,1.31,3.56,1.59.39.08,1.6-1.26,1.54-1.87-.83-9.22,3.18-19.42-5.27-27.15-1-6.64,2.54-13.7-4.05-19.84-4.06-3.78,1.15-12-5.66-16.44-1.75-1.14-1.2-6.61-.87-10a11.77,11.77,0,0,0-5-11.34c-4.51-3.42-7.13-7.6-5.85-13.61.93-4.37-3.79-5.49-5.26-8.48-1.12-2.27,5.57-13.22,7.64-12.76a2.76,2.76,0,0,1,1.84,1.22c1.58,3.83,1.36,8.58,5.71,11-1.72,9,5.28,15.65,6.72,24,1.17,6.79,4.44,14.32,10.13,19.69-3.52,10.1,8.59,16.86,5.53,27.21-2.05,6.91,9.1,10.95,5.24,19.12-3.26,6.87,4.33,10.55,5.82,16.3,1.42,5.44,6.05,10.1,4.85,16.62-.31,1.72-.79,4.5.08,5.17,5,4,4.41,10.79,8.53,15.35,3.46,3.84,2.85,6.23.13,9-3.77,3.78-7.26,7.94-11.5,11.1-1.29,1-6.27-.19-6.78-1.49a159.65,159.65,0,0,0-9.82-19.94c-2.48-4.31-2-10.35-7.42-13s-4-9.48-7.67-12.76c-4.13-3.65-4-9.07-6.94-13.37-4-5.85-5.2-15-10.32-19.3-6.5-5.49-6.59-13.84-12.61-19.24-8.19-7.35-9.83-19-15.8-28.07-3.13-4.73-4.22-10.78-7.23-15.61-1.45-2.34-3.38-6.56-7.23-5.29-1.22.41-2.14,4.83-1.56,7,1.89,7-7.93,9.18-5.82,16.6,1.33,4.67,1.61,10.45-3.86,14.38-1.18.85-1.32,5.7-.15,6.79,3.59,3.37,4.62,7,4.38,11.7-.31,6.21-1.31,12.8.32,18.57,1.3,4.59,6.18,8.05,5,13.92-1.12,5.59,7.58,7.62,5.3,13.8,6.26,4,5.58,10.28,5.39,16.47-.16,5.32-1.95,12.09.59,15.61,3.39,4.69,5.09,8.74,4.76,14.21-.28,4.6,6.4,5.82,5.43,11.16-.63,3.44.11,7.11-.18,10.65-.39,4.68,2.27,7.78,4.2,11.67,4.76,9.58-2.29,19.24-12.94,19.37-3.56,0-6.33,0-7.5-4.93-1.31-5.49-4.43-10.6-7.09-15.7s-7.6-9.84-8.27-15.14c-.94-7.51-8.62-9.17-10.19-14.55-1.9-6.51-5.15-12.44-8.37-17.85-3-5-2.61-12.11-8.94-15.09-5.38-2.52-4.93-8.67-7.32-13-3.55-6.44-6-14.11-10.16-19.61-5.43-7.14-3.53-10.62,1.7-15.23.44-.39.06-1.71.06-2.6,1.52.63,3.9.86,4.42,2,2.82,5.94,4.48,12.53,7.88,18.07,4,6.44,6.21,14.1,12.9,18.9,1.48,1.07,1.13,4.75,1.52,7.24.27,1.7-.31,4.32.62,5,10.27,7.56,11.65,22.82,24.39,28.29,3.23-5.06.45-10.68,1.91-15.53,2.18-7.17-5.18-10.5-5.59-16.54-.4-5.83,1.93-11.86-4-17.21-4.07-3.7,1.42-12.52-5.92-16.09.27-7.11-5.26-10.6-9.51-14.73-3.23-3.14-.78-8.56-5.52-11.25-3.64-2.07-1.46-6.5-1.66-9.85a95.21,95.21,0,0,1,0-16c.66-5.83-4.23-9.65-4.85-13.93-.91-6.21-9.12-9.31-6-16.4,3.5-7.87-5.35-12.29-5.35-19.17,0-9.81,1.85-20.09-.53-29.27s-5.75-17.71-4.91-27.34c.13-1.52-.44-4-1.5-4.56-3.59-2-7.5-3.13-11.19-5.4-4.94-3-12-2.64-17.56,0-3,1.42-5,4.86-9,4.08-5.54,6.77-13.69,9.87-20.68,14.6-.72.49-1.17,1.4-1.92,1.84-2.23,1.34-2.61,2.78-.66,3.77,7.21,3.69,1.61,11.43,5.5,16.51,6.59,8.6,7.81,20.63,17.16,27.59,2.45,1.82,2.62,4.31,2.53,7-.06,1.78-.76,4.48.11,5.19,4.94,4,3.83,11.35,8.7,15.2,3.57,2.82,1.16,6.64,1.88,9.93-4.49.64-6.14-3.31-8.16-5.78-2.55-3.12-3.57-7.43-5.9-10.78a30.79,30.79,0,0,0-7.5-7.52c-5.12-3.56-4-9-5.54-13.78-3.45-10.56-10.17-19.44-18.77-26.88-7.07-6.12-12.56-6.58-20.14-.26-3.24,2.7-5.38,7.24-10.77,6.16-6.13,5.91-15.76,6.73-20.71,14.46-1.4,2.2-3.79,5.52-5.56,5.42-10.08-.57-12.06,12.52-21.71,12.37-1.19,0-3.53,2.15-3.43,3.12.91,8.78-5.17,7.22-10.32,7.47-5.41.25-6.92-4.79-10.36-7.19,1.92-2.51,3.34-6.32,5.86-7.28,6.5-2.48,12.74-4.62,23.75-20.34,7.39-7.92,5.07-8.5,4.06-7.6-4.59,4.1-8.85,8.58-13.11,13a2.51,2.51,0,0,0,0,2.49c.44.44,1.67.1,2.55.1.09,0,18.08-7.31,18.08-7.36.23-1.67.94-3.48.53-5s-2-2.48-12.15,4.31c-16.75,5.49-21.16,13.15-28,14.19-4.32.66-7.47,8.57-11.87,9.4-7.25,1.36-9.07,9.31-14.39,10.34-5.93,1.14-8.71,5.06-12.87,7.92-8.18,5.61-18.07,8.18-26.13,14.22-2.56,1.91-6.79-1.5-6.69-5.34.14-4.87-2.16-11.52,6.93-10.61,6.1-6,16.08-6.34,20.73-14.35,3.32-5.71,9.91-6.2,14.79-9.42-1.25-7.31,3.79-8,9.06-9.28,3.24-.81,2.71-6.14,1.76-6.79-6.8-4.64-4.21-9,.89-11.34C297.21,792,302,787,307.68,783.88c6.1-3.38,10.82-9.08,16.61-11.22,7.08-2.63,10.77-8.76,16.66-11.4,3.88-1.75,7.3-4.15,11-5.65,3.07-1.26,6-2.54,9.06-3.94a63.68,63.68,0,0,0,14.82-9.52c7.64-6.45,5.21-14.35,4.82-21.89-.13-2.63-4.75-1.54-6.58-2.72-4.29-2.75-7.57-6.73-12,0-.8,1.22-5.07.18-7.74.18.37-4.79-2.28-11.25,6.86-10.87,2.61.11,4.25-2.38,3.88-5.55-.3-2.6.84-6.69-.46-7.64-6.23-4.54-4.74-10.79-4.94-16.78-.12-3.48,1-8.84-.72-10.12-6.31-4.55-2.5-12-5.71-16.41-2.63-3.63-3.75-7.39-5.47-11.15-.47-1-2.9-1.47-4.49-1.65-5.44-.63-5.35-2.71-1.79-6,.66-.6,1.26-1.25,1.89-1.88C334.79,623.1,339.42,613.66,338.28,605.44ZM648.49,468.77c0-.8.31-1.91-.09-2.3a2.3,2.3,0,0,0-2.25,0c-1.76,1.24-4,2.77-.74,4.65.43.25,2-1.5,6.19-9.62a19.45,19.45,0,0,0-3,2.58,1.6,1.6,0,0,0,2.26,2.26,10.76,10.76,0,0,0,2.43-3.15C653.36,463,652.22,462.09,648.49,468.77Zm-230,288.81V755.2c-.8,0-1.81-.32-2.35,0-1.75,1.24-4,2.77-.73,4.65.42.25,2-1.49,6.19-9.61a18,18,0,0,0-3,2.58,1.6,1.6,0,0,0,2.26,2.26,10.89,10.89,0,0,0,2.43-3.15C423.37,751.78,422.24,750.9,418.51,757.58Zm-58.83,35c2.41,0,4.93.45,7.2-.12s4.08-2.32,3.49-5.22c8.54-1,22.22-7.47,25.82-12.59.85-1.21.77-3.16.87-4.78a5,5,0,0,0-.83-2.22c-1.19-2.4-2.31-2.3-3.68,0-2.71,4.62-7.31,3.46-11.48,3.5-.86-3.37,2-4.67,3.81-6.35s1.79-2.77-.63-3.79c-6.67-2.79-9.43,3-12.69,6.54-2.62,2.86-1.63,6.45,1.55,8.89.56.43,1.72.06,2.61.06.81,3.24-2.2,4.27-3.54,6.29a24.88,24.88,0,0,0-1.81,4.41c-2.41,0-4.94-.45-7.21.12s-4.07,2.32-3.48,7.61c0-.8.31-1.9-.09-2.3a2.35,2.35,0,0,0-2.26,0c-1.76,1.24-3.95,2.77-.74,4.65C357,797.59,358.62,795.84,359.68,792.63Zm144.4-112.31c-2.41,0-4.93-.45-7.2.12s-4.08,2.32-3.49,7.72c.83-2.49,0-3.39-2.48-2.45a3.26,3.26,0,0,0-1.77,1.61,10,10,0,0,0-1,4.51c.19,1.43,1.36,2.72,2.09,4.08,1.05-.93,2.6-1.67,3-2.82.52-1.47.13-3.27.13-7.42,2.41,0,4.93.44,7.2-.13s4.08-2.31,6.6-10.13a19.45,19.45,0,0,0-3,2.58c-.39.48-.07,1.53-.07,2.33.8,0,1.86.32,2.33-.07a10.72,10.72,0,0,0,2.43-3.15C509,676.9,507.81,676,504.08,680.32ZM688.57,557.27c-2.66,2.75-5.38,5.44-7.93,8.29a2.68,2.68,0,0,0,0,2.41c1.75,3.1-1.12,0,2.45,0,7,.07,10-3,7.93-8.23-.29-.71-1.14-1.2-10.48,10.63a4.83,4.83,0,0,0,.05-2.3,33,33,0,0,0-7.44,0c-1.09.21-1.95,1.9-2.71,3.05a3.71,3.71,0,0,0,1.69,1.65C675.39,573.86,678.51,573.8,688.57,557.27Zm129.91-94.72c-3.47-.85.79-3.51-1.82-1.11-4.51,4.16-8.76,8.61-13,13.06a2.49,2.49,0,0,0,0,2.48c.44.44,1.66.12,2.54.09,7.23-.25,13.13-5.67,13.35-12.37,0-.71-.71-1.44-24.61,23.07,1.69,0,3.51.4,5-.09,2.48-.78,4-2.54,3.62-5.54a37.09,37.09,0,0,1,0-5.06c-2.53,0-5.51-.85-7.5.2-2.85,1.5-5,4.36-7.39,6.69-1.15,1.13-.77,2.66,1.33,3.48C791.5,488,793.31,487.71,818.48,462.55ZM412.59,744.13c8.82,2.26,12.31-3.52,16.56-7.73a2.53,2.53,0,0,0,0-2.5c-.44-.44-1.69-.18-2.56-.08-2.49.27-5.2-1-7.29,1.78-1.52,2-3.23,4-6.48,3.66-2.2-.21-5.55.07-3.48,3.82.56,1,3,1,19.91-9.28H439.9a23.1,23.1,0,0,1-1.81,4.4c-1.33,2-4.35,3.06-3.54,8.68V744.5c-.79,0-1.81-.32-2.34.06-1.76,1.24-4,2.76-.74,4.65.43.25,2-1.5,3.08-4.71,3.52,0,7.06-.23,10.55.07,3.26.27,4.8-1.37,5.46-4.07.89-3.68-1.15-6.15-5.38-6.66a44.26,44.26,0,0,0-5.28,0,110,110,0,0,0,5.2-10.64c.42-1.11-.86-2.94-1.56-4.34a1.92,1.92,0,0,0-1.69-.24C438,724,430.54,726.36,412.59,744.13ZM723.5,466.38c-2.61,0-6.26-1.11-7.65.19-6.82,6.38-14.71,11.9-19.09,20.49-.55,1.08.19,3.64,1.2,4.53,3,2.67,8.44.91,10.76,5.51.84,1.65,1.88.31,3.72-.84,8.41-5.26,10.35-15.09,16.09-22.2,1.28-1.58.33-5.09,0-7.65,0-.24-3.25,0,35.79-26.77a15.34,15.34,0,0,0-3.35,0c-8.77,2.51-15.44,9.53-24.65,11.38-2.17.44-3.68,3.72-5.73,5.4-3.49,2.87-1.12,6.65-1.83,9.93,3.38-.86,4.66,2,6.37,3.82,1.55,1.64,2.09,1.11,3.94-.54,3.74-3.33,6.31-7.55,12.25-9.06,6.6-1.68,11.05-8.18,14.65-14.1C766.81,445.05,764.88,441.9,723.5,466.38ZM447.24,654.24c-3.69,2.86-1.58,6.71-1.91,10-.35,3.53-.07,7.12-.19,10.69,0,0-2.26.33-2.48-.05-5.76-10.27-11.24,3.1-17.12.2-2.21-1.08-5.13-.1-6.9,2.38-5.23,7.33-13.43,10.39-21.26,13.17-3.7,1.31-5.84,3.53-8.28,5.8-3,2.8-3.93,11.67-1.48,14.37A90.27,90.27,0,0,0,399.06,722c1.49,1.15,5.33,1,6.95-.15a30.21,30.21,0,0,1,8.91-4.53c3.79-1.22,6.34-5.89,9.89-8.39,2.63-1.85,6.47-2.06,8.92-4.05s5.66-3.92,6.27-8c1.22-8.31,6.67-11.87,14.77-11.16,4.26.37,6.24-2.53,8.68-4.92,1.72-1.68,2.8-2.58,1-5.82C459.85,667,455.77,658.87,447.24,654.24Zm217.3-250.09V390.89c0-4.42-.48-8.9.11-13.24.9-6.71-4.36-9.44-8.13-12.44-2.76-2.19-6,.77-9,2.86-4.64,3.19-10.16,5.2-15.46,7.34-7.15,2.89-11.07,7.3-10.47,15.66a25.4,25.4,0,0,0,5,14c3.63,5.15-2.16,13.22,3.87,19.61,5.2,5.52,1.11,13.46,1.83,20.28.34,3.23,1.56,4.94,4.32,5.29,9,1.16,17.14.1,23.19-8.25,2.63-3.62,5.12-6.45,4.87-11.36C664.22,421.84,664.54,413,664.54,404.15Zm42.78-71.77c-2.81,7.9,3.52,15,5.08,23.11,1.31,6.81.27,14.07.27,21.13,7.2,5.86,4.87,14.05,5.46,21.6.21,2.72,2.19,4.32,5.43,4,4.32-.37,8.5-.61,11.85,3.6,1.19,1.5,4.65,1.43,7.11,1.64,5.5.46,7.51-.79,7.57-4.52.08-6.17,0-12.35,0-18.53-8.77-4.88-1.47-17.36-10.47-22.13.77-5-2.19-8.06-5.57-10.93,1.71-6.71-4.66-8.69-7.39-12.84-3.15-4.8-6.36-9.71-8.44-15-1.22-3.11-.21-6.77-5.37-7-4.25-.21-5.46,1.4-5.55,9.38C707.31,327.65,707.32,329.42,707.32,332.38Zm379.74,413v2.66c0,6.2,0,12.4,0,18.59,0,4.49,7.1,6,5.24,11-2.63,7.15,6.63,10,5.42,16.41-2.19,11.45,9.33,20.59,5.37,32.32,3.54,3.71,5.37,8.3,6.85,13.1.11.36,1.34.75,1.77.55.76-.36,1.88-1.24,1.83-1.8-.93-9.12,4.37-19.46-5.11-26.94,0-8,.31-16-.08-23.9-.42-8.63,3.16-18.4-2-25.61-5.45-7.67-2.12-15.18-3.19-22.66-.62-4.34,1.14-9.37-.47-13.11s-5.65-6.07-5.4-11.15c.1-2-2.72-2.71-3.45-1.18-2.46,5.17-5.39,10.32-6.6,15.81C1086.18,734.59,1087.06,740.09,1087.06,745.4ZM600.05,587c1-3.42.77,1-1.34-1.84a25,25,0,0,0-5.7-5.54c-.5-.35-2.38,1.35-3.66,2-3.65,1.91-7.55,3.44-10.93,5.74-4.15,2.82-6.31,8.94-12.94,7.44-2.61,5.4-9.08,4.21-12.86,7.55-4.46,3.93-7.57,10.22-15.2,8.39-5.82-1.4-7.73,7-13.82,5.53-1-.25-2.55,2.08-4,3-5.5,3.37-5.25,8.74-4.75,14,.26,2.79,1.86,4.53,5.27,4.31,4.31-.28,7.9-.7,12-3.4,4.81-3.14,10.11-4.68,10.7-11.41,13.67-.61,16.71-20.9,32.88-17.74,2,.4,5-4.4,7.65-6.72,4.42-3.92,7.43-10,14.76-9.52C598.75,588.86,599.42,587.66,600.05,587ZM446.2,613.64c1.29-5.22-9-11.52-6.37-20.69a2.52,2.52,0,0,0-1.22-2.06,16,16,0,0,0-4.72-1.45c-4-.53-7.36,9.35-11.92.74-1.16.78-3.26,1.5-3.31,2.35-.46,7.65,1.39,15.61-5.31,22-1.4,1.34.08,4.77,2.26,6.85,4.3,4.1,1.49,4.78-2.64,5.58s-6.2,4.3-5.14,7,3,3.65,6,3.68c4.54,0,8.42-.31,11.76-4.21,1.88-2.21,4.82-7.63,7.09-5.2,6.91,7.37,8.48-.94,11.46-3.35C445.61,623.66,445.14,620,446.2,613.64Zm584.46,387.53v.05h15.79c3.91-6.1,13-4.17,16.63-10.69,5.28,1.37,7.86-2.5,10.84-5.59,3.76-3.89,3.59-9.3-.87-10.16a18.28,18.28,0,0,1-8.88-4.25,10.82,10.82,0,0,0-12.13-.63c-5.69,3.91-9.82,10-15.18,14.48-5.72,4.78-12.14,8.73-18.2,13.12a1.89,1.89,0,0,0-.3,1.78c.39.74,1.15,1.78,1.8,1.81C1023.65,1001.27,1027.16,1001.17,1030.66,1001.17ZM483.39,664.27c6.56-.06,6.57-.06,11.45-4.13,2.61-2.18,5-4.68,7.84-6.51,8.53-5.49,8.75-6,3.08-11.73a127.26,127.26,0,0,0-9.39-9.2c-1.08-.88-4.3-1.13-4.85-.4-5.82,7.73-15.6,9.86-22.34,16.15-3.89,3.62-3.11,6.28.36,10.92C473.3,664.4,478.13,664.5,483.39,664.27Zm519.54,315.39c11,2.07,18.23-4.55,26.09-8.86,3-1.62,5.09-4.78,7.51-7.32,3.6-3.78,3.37-6.66-.74-10.86s-13.46-6.86-16.1-4.23c-8,8-15.87,16.12-23.34,24.6-.77.87,1,4.7,2.47,6.52C999.48,980.36,1002.1,979.66,1002.93,979.66ZM691.26,506.16c-.2-4.15-3.88-10.85-7.63-12.55-5-2.25-7.83,1.53-10.86,4.61a139.67,139.67,0,0,1-11.29,10.89c-9.3,7.52-10.09,9.78-4.66,16.38a17.39,17.39,0,0,0,3.74,3.68c3.28,2.13,4.12-1.55,5.46-2.94,6-6.2,13.74-9,21.53-11.68C691.94,513,691.42,509.57,691.26,506.16ZM1031.65,921c6.43.73,12.29-.24,16-6.16,2.63-4.16,7.28-3.86,11-5.72,2.83-1.43,2.34-5.09,1.21-7-1.78-2.95-4.46-6.58-7.42-7.32-5-1.26-11.65-2.42-15.51-.11-5.62,3.37-11.47,7.93-14.07,14.87-1.88,5,1.44,11.27,6.13,11.41C1029.88,921,1030.77,921,1031.65,921Zm-442-420.56c0,7.74,3.16,11,9.49,8.52,6.87-2.66,14.31-4.51,19.87-10.22,2.91-3,2.72-6.16,2.73-9.62,0-5.34-4.78-9.38-8-6.35-5.79,5.43-13.11,7.31-19.94,10.16C589.28,494.8,589.47,497.63,589.66,500.43Zm550.89,379.4c0,5.24-.28,10.51.11,15.73.19,2.68,2,4.75,5.27,4,1.56-.36,4-.84,4.34-1.87,3-8.5,8.91-16.37,6.34-26.25-.82-3.17-7.13-8.55-11.18-9.28-3.53-.63-4.81,1.92-4.88,9.8C1140.52,874.58,1140.55,877.2,1140.55,879.83ZM560.34,583.94a10.6,10.6,0,0,0,1.85-1.88c2.86-4.95,9.63-2.49,13.15-7.2,1.4-1.88,6.79-.28,9.65-1.71,3.71-1.86,6.93-4.93,9.88-8,.88-.9.86-4.23,0-5-1.75-1.51-4.55-3-6.58-2.64-2.21.39-3.83,3.38-6.08,4.36-3,1.29-6.72.49-9.08,3.78a20.47,20.47,0,0,1-5.61,5.56c-2.75,1.68-6.17,2.27-8.89,4-1,.6-1.21,3.21-.91,4.72S559.41,582.63,560.34,583.94Zm521.25,291.48c-2.6,8.15,4.64,14.56,6.7,22.37.29,1.13,5,2.32,6.64,1.5s3.33-4.94,2.58-6.24c-2.92-5.09-5.82-9.68-5.47-16.15.13-2.46-3.86-5.17-6-7.72-.5-.59-1.34-1.48-1.79-1.36a2.9,2.9,0,0,0-1.8,1.74A47.51,47.51,0,0,0,1081.59,875.42ZM578.89,626.87c-3.38-.52-5.22,1.51-5.15,4.17.15,6.21-3.37,7-8.21,6.5a13.29,13.29,0,0,0-2.6,0c-4.13.43-6.14,2.79-5.32,6.59.57,2.65,1.92,4.53,5.24,4.16,2.57-.29,6.17,1,7.62-.26a134.23,134.23,0,0,0,13.7-14.88c.65-.78-.09-3.46-1-4.55S580.28,627.38,578.89,626.87ZM1082,949.16c.51-6.35-1.22-11.49-6.31-15.75-1.91-1.59-2.66-2.35-3.75.1-1.3,2.91-2.17,6-3.61,8.86-3.6,7.06-3.69,7,1.9,12.57,1.21,1.2,2.45,3.25,3.73,3.29,2.31.09,5.49-.35,6.76-1.86S1081.62,951.62,1082,949.16ZM425.72,578.26c2.59-1.69,5-3.46,7.55-4.86,2.09-1.14,5.89-1.38,6.33-2.82,1-3.15,1.22-7.17,0-10.16s-4.35-5.17-6.93-7.39c-.4-.34-3.41,1.38-3.34,1.62,2.06,7.39-2.77,12.63-5.37,18.61C423.54,574.32,425,576.19,425.72,578.26Zm177.36-47.7c1.69,0,4.15.76,5.11-.12,5.86-5.37,11.24-11.27,17.11-16.63,2-1.82,2.49-2.76-.11-3.78-1.52-.61-3.46-1.19-4.92-.76-6.57,1.92-8.12,11.89-16.85,10.67-.58-.08-1.35,1-2,1.52C599.23,523.46,600.3,529.61,603.08,530.56ZM771.5,503.08a8.48,8.48,0,0,0-.56-2.42,9.64,9.64,0,0,0-1.83-1.9c-5.17,8.47-16,9.28-22.22,16.29-.59.66-1.25,1.26-1.87,1.88,1.19,1,2.32,2.69,3.59,2.82C758.74,520.73,767.64,514.12,771.5,503.08ZM621.82,535.91c-.86,0-2.33-.3-2.5.05-2.85,5.7-5.7,11.42-8.1,17.33-.34.86,1.33,3.24,2.58,3.86,1.4.68,4.54.78,4.94.05,3.06-5.58,5.75-11.38,8.28-17.23C627.82,538.13,624.3,535.53,621.82,535.91ZM1092.41,920.8c0,2.61-.56,5.38.15,7.78.77,2.6,3.44,3.69,6.15,3,1.51-.37,3.68-1.29,4.07-2.45,2.06-6.14-1-14-6.76-17.72-.63-.39-3.31.82-3.44,1.56A46,46,0,0,0,1092.41,920.8Zm-16.05-40a15.26,15.26,0,0,1,0-2.62c.55-3.33-1.47-4.71-4.17-5.26-4-.8-6.36,1.27-6.53,5.46-.11,2.62-.45,5.35.17,7.83.28,1.16,2.46,2.25,4,2.62,2.66.65,5.27-.27,6.42-2.83C1076.9,884.52,1076.36,882.53,1076.36,880.78Zm-21.29,51c-.7-1.68-1.27-4.38-1.91-4.39-4.56-.11-10,7.55-8.75,12.27.23.84,3.17,1.89,3.35,1.66C1050.25,938.16,1055.12,936.67,1055.07,931.8Zm-46.66.21c-3.37-.92-5.65.27-6.8,2.63a6.39,6.39,0,0,0,0,5c1.47,2.88,3.49,2.23,5.35,0,1.08-1.32,2.42-2.43,3.6-3.66.52-.56,1-1.21,1.42-1.81ZM466.66,709.73c-.35-2.43,1.07-5.32-1.79-7.06a2,2,0,0,0-1.78,0c-2.53,2.88-2.53,11.25,0,14.12a1.92,1.92,0,0,0,1.78,0C467.73,715.05,466.31,712.16,466.66,709.73ZM643.18,597.46c-1.5-1.51-2.19-2.69-2.7-2.62-2.37.33-5.49.3-6.79,1.78s-.6,4.47-.5,6.8c0,.63,1.62,1.77,1.66,1.74C637.67,602.66,640.41,600.07,643.18,597.46Zm83.06-66.7c-.6.47-1.25.9-1.81,1.43-1.23,1.18-2.34,2.51-3.65,3.6-2.26,1.86-2.91,3.87,0,5.35a7,7,0,0,0,5,0c2.91-1.1,3.93-5.5,2.24-8.56A9.71,9.71,0,0,0,726.24,530.76ZM777,434.28c1.42-.59,2.92-1.14,4.32-1.89.21-.11.17-1.31-.13-1.72-2-2.68-7.89-2.75-8.67.14S774.34,434.51,777,434.28ZM673.94,471.72l-4.06,2.68c1.36.89,2.8,2.63,4,2.49,2.28-.24,4.45-1.59,6.66-2.49ZM363.2,781.09c2.68-1.57,2.78-6.84.1-8.83a2,2,0,0,0-1.78-.13c-2.72,1.48-2.8,6.8-.12,8.79C361.81,781.23,362.59,781.05,363.2,781.09Zm112.24-37.36,1.9-1.91a16.88,16.88,0,0,0-3.59-1.67c-.44-.1-1.16,1.08-1.76,1.67Zm-6.12-20.63c-.6.6-1.77,1.32-1.67,1.76a16.4,16.4,0,0,0,1.67,3.59c.59-.59,1.77-1.32,1.67-1.75A17,17,0,0,0,469.32,723.1ZM733.29,618l-1.9-1.9a16.88,16.88,0,0,0-1.67,3.59c-.1.44,1.08,1.16,1.67,1.76ZM545,588.62l1.9-1.9a16.88,16.88,0,0,0-3.59-1.67c-.44-.1-1.16,1.08-1.76,1.67ZM439.13,500.38l-1.9-1.91a16.92,16.92,0,0,0-1.68,3.59c-.09.44,1.08,1.17,1.68,1.76ZM668,483.2l-3.44,1.9c.59.59,1.31,1.77,1.75,1.67a16.19,16.19,0,0,0,3.59-1.67Zm178.4-78.32c-.59-.6-1.32-1.78-1.76-1.68a17.11,17.11,0,0,0-3.59,1.67c.6.6,1.32,1.78,1.76,1.68A16.88,16.88,0,0,0,846.38,404.88Z"/><path d="M322.24,739.15c.65,4.51-3.33,6.15-5.81,8.18-3.12,2.57-7.45,3.6-10.81,5.94-2.88,2-5,5-7.66,7.43a28.23,28.23,0,0,1-8.39,5.54c-9.33,3.93-18.72,8.47-25,17.18-3.67,5.12-11,3.79-15,9.28s-8.81,10-16.36,11.92c-5.31,1.31-7,10-14.76,9.68-1.87-.07-3.72,3.47-5.84,5-4.84,3.48-7,9.7-14.17,11.12-5.51,1.1-9.84,6.05-16.6,5.29-3.89-.44-6.26,4.61-11,5.63-4.43.95-7.4,8.68-11.84,9.67-7.64,1.69-15.94.47-24,.47-.58-1.48-.93-4-1.8-4.24-3.21-.73-3.74,1.64-3.55,4.24-8.57-2-13.56,6-20.89,7.52-5,8.82-17.23,8.18-22.33,17-1.62,2.79-4.48,2.4-7,2.22-3.67-.25-6.9.14-9.29,3.42-7.87,10.81-20.47,14.53-31.42,20.71-5.35,3-9.93,2.67-10.64-.5-1.26-5.68.74-10.88,4.67-12.91,5.86-3,13-4.45,17.4-9.15s11.42-5.05,14.73-9.41c6.08-8,17.56-7.93,22.62-16.74,1.66-2.89,4.6-1.79,7.11-2.15,3-.43,18.75-7.48,20.18-9.17a54.06,54.06,0,0,1,27.41-17.6c2.71-.75,3.72-3,3.69-6,0-1.44,1.89-4.24,2.16-4.15,9.41,3.11,15.21-8.09,24.43-6,3.65.84,6.49,3.46,5.28,7a9.15,9.15,0,0,1-2.92,4.07c-2,1.53-2.59,2.83-.94,3.77,1.39.8,3.79,1.84,4.64,1.23a87.6,87.6,0,0,0,11.89-9.92c3.84-3.94,7.48-7.31,13.6-6.08a5.73,5.73,0,0,0,4.61-1.45,40.44,40.44,0,0,1,16.7-11.35c6.14-2.3,11.69-6.22,17.88-8.32,6.49-2.2,3.35-7.06,4.15-10.86,3.7.14,5.48-1.65,5.35-5.35,7.79.06,15.87,1.09,20.78-7.3.82-1.4,2.68-3.37,3.8-3.21,5.38.78,8-3,10.67-6.19s7.73-4.7,7.53-10q5.56.19,5.35-5.35c3.21-.62,7.08,1.66,9.6-1.67s4.69-4,7.47-.17C318.7,738.4,320.76,738.56,322.24,739.15ZM148.7,835.42c.8,0,1.9.31,2.3-.09a2.33,2.33,0,0,0,0-2.25c-1.24-1.76-2.77-4-4.65-.74-.25.43,1.5,2,4.71,3.08a45,45,0,0,0-1.71,4.43c-.51,1.85-6,2.49-1.69,5.26,1.65,1.07,5.55,1.15,6.71,0,2.81-2.83,7.61-4.47,10.5-14.58a19.08,19.08,0,0,0-3.05,2.58,2.26,2.26,0,0,0,0,2.24,2.24,2.24,0,0,0,2.24,0,10.59,10.59,0,0,0,2.43-3.15c.11-.2-1-1.07-4.76,3.22Z"/><path d="M257.65,418.46c-12.42-37.65-10.56-38-8.88-37.58,2.76.66,4.3,2.4,4,5.6a15,15,0,0,0,3.67,11.94c3.5,4.28,6.45,10.38,6.52,15.72.08,6,5.44,9.22,5.46,13.82,0,6.83,2,11.75,7.15,15.94,1.9,1.56,4.66,3,3.89,6.37-1.94,8.57,4.63,14.31,8,20.72A23.82,23.82,0,0,1,290,483.27c0,1.45-1.53,2.88-2.36,4.32-.63-.51-1.61-.9-1.83-1.54-.79-2.36-1-4.95-2.06-7.17-.71-1.52-2.41-2.57-3.67-3.83l-5.68-5.67c-1.26-1.26-2.31-3.16-3.82-3.64-2.58-.82-.2-5.27-4.54-5-1.78.1-3.75-3.46-5.66-5.34-4.13-4.07-3-7.83,1-10.95,2.12-1.65,2.6-3.06.19-3.75-4.91-1.41-10.66-1.47-9.3-9.26.1-.57-3.19-2.7-4-2.29-8.2,3.93-11.93-6.29-19.28-5.82-3.09.19-4.73-5.35-2-8.41,3.86-4.4,5.44-7.1,1.64-13.26-6.79-11-.61-20.5,12.17-20.81.89,0,1.78,0,16.88,37.65,13.18,38.5,12,39.22,11.17,40.24a1.6,1.6,0,0,0,2.26,2.27,10.77,10.77,0,0,0,2.43-3.16C273.62,457.61,272.48,456.74,257.65,418.46Z"/><path d="M223.11,616.33c-6.27,6.26-10.58,9.65-13.7,13.92-3.86,5.29-9.79,6.49-14.9,9.39-5.85,3.32-11.66,6.5-17.11,10.78-4.72,3.72-11.37,6.4-17.45,9s-10.42,9.28-15.52,14.17c-10.21.36-14.15,11.16-23.76,13.8-7.67,2.1-10.27,13.43-20.54,15.05-4.27.68-7.41,7.32-11.47,10.77-8.78,7.48-19,11.07-30.61,9.83a3.73,3.73,0,0,1-2-1.48c-.37-.45-.65-1.66-.46-1.79,5.63-3.91,8.64-10.37,15.95-13.11,8.52-3.19,17.7-7.13,22.88-15.4,3.69-5.88,11.55-4,14.9-9.38,3.52-5.62,10.82-5.34,14.64-9.6,3.53-3.92,14.05-.58,11.43-10.87-.12-.45,2.58-2.17,4.11-2.39,4.16-.61,8.81,1.23,12.07-3.21,7.92-10.76,20.26-15,31.52-20.68,6.13-3.1,12.75-5.45,16.55-11.5C204.78,615.44,212.64,615.87,223.11,616.33Z"/><path d="M809,169.46c-15,15-30.08,29.7-44.7,44.88-5.87,6.09-14.25,10.46-15.37,20.37-.16,1.38-2.53,2.41-3.6,3.82-4.31,5.64-10.15,8.95-16.64,11.35,1,8.84-7.52,11.19-11.52,16.6-3.21,4.33-8.31,1.17-12.49,1.91-.52.09-1.42-1-1.84-1.77a2,2,0,0,1,.2-1.82c3.08-3.22,6.26-6.34,9.41-9.49,6.94-6.94,13.29-14.62,21-20.59,7.9-6.15,10.28-15.9,17-22.47,5.26-5.16,7.45-9.14.92-15.1-2.89-2.65-1.24-8.79,1.51-8.57,5.38.44,7.73-5.16,11.19-5.25,6.65-.16,8.87-5.16,12.69-8.41a55.82,55.82,0,0,0,9.4-9.48c4.54-6.32,6.39-.17,9.69,1.23C799.61,168.3,804.59,165.05,809,169.46Z"/><path d="M755.84,733.26c-1.07,2.3-1.49,4.85-2.5,5.1-4.13,1-8.73,2.25-12.46-.6-3.51-2.68-6.33-6.25-9.54-9.34-3.75-3.6-2.23-10.26-7.55-12.92,1.56-10.1-4.46-16.34-11.38-22-3.57-2.93-5.61-6.43-5.64-11.06-7.1-3.65-3-11.25-5.8-16.3-2.45-4.5-8.56-6.31-9.67-12a5.65,5.65,0,0,1,0-2.65,4.55,4.55,0,0,1,1.5-2c.46-.37,1.56-.66,1.81-.42,5.11,5,11.3,9.34,14.83,15.28,3.29,5.53,7.44,11,8.66,17.77.49,2.74,2.87,4,5.9,3.63,3.32-.46,7.36,1.34,9.6-2.44.8-1.33,1.09-4.38.31-5-5.63-4.46-5.49-10.37-5.38-16.65.05-2.66.11-3.38,2.84-2.73,2.43.58,6-1.26,7.06,2s.54,6.88,1,10.31c.65,5-2.28,10.79,3,14.79s-.12,10.36,3.77,14.49c1.23,1.29,3.46,2.41,3.63,3.8C751,714.33,747.13,725.32,755.84,733.26Z"/><path d="M247.36,776.59c-3.28.72-7.09-1.68-9.93,1.85-1.08,1.33-3,3.58-3.8,3.31-7.81-2.63-12.74,4.17-19.23,5.37-3.16.59-7.15,1.43-10.13-3.3,3.63-3.28,7-8.28,11.55-10,6.93-2.58,12.09-9.86,20.74-8,7.25,1.57,10.51-1.51,12.25-8.88a10.38,10.38,0,0,1,10-7.22c5.11.09,4-4.19,4.8-7.49.7-2.92,3.07-3,5.27-.46.78.91,3.18,1.83,3.59,1.45,8.68-8.4,17.19-17,26.32-26.11,3.9,8,1.1,15.18,2.06,22-3.7-.14-5.48,1.65-5.35,5.35a44.1,44.1,0,0,0-5.27,0c-5.76.69-9.35,7.79-16.31,5.46-1.15-.38-3.41.76-4.35,1.87-5.54,6.53-13.7,10.79-16.85,19.38C249,771.11,247.22,772.89,247.36,776.59Z"/><path d="M220.62,616.14c3.92-7.58,9-13,17.58-16.56,6.66-2.74,11.86-9.71,16.89-15.51,3.84-4.42,8-5.34,13.46-5.67,3.69-.22,7.21-3.27,10.81-5L290.15,568a12.27,12.27,0,0,1-7.44,14.89c-4.84,2-9.52,3.55-12.42,7.78-6,8.77-18.09,9.42-23.87,18.34-.45.7-1.49,1.82-1.82,1.69C235.29,606.85,229.57,618.71,220.62,616.14Z"/><path d="M303.33,568c-3.51,0-7.07-.33-10.53.11-2.71.34-3.61-.14-2.6-2.73a3.18,3.18,0,0,1,1.8-1.83c5-1.08,10.3-1.3,9.26-9.08-.21-1.59,3.84-3.43,5.22-5.6,5-7.9,12.66-8.15,20.64-7.56a10,10,0,0,1,4.6,1.54c1.32.88.47,2.18-1.32,3.7-5.4,4.6-10.42,9.41-8.33,17.73.23.94-1.81,3.47-2.92,3.55C313.9,568.21,308.61,568,303.33,568Z"/><path d="M942.65,597.4c0-1.78.32-3.63-.07-5.32-.62-2.73.11-3.66,2.72-2.63.76.29,1.88,1.27,1.82,1.82-1.15,10.53,9,18.6,6.3,29.52-1.35,5.56,6.82,7.48,5.48,13.83-1.27,6-.17,11.48,4.76,16.79,2.76,3-1.29,10,4.1,14.25,3.72,3,1.39,8.15,1.16,12.37,0,.66-1.08,1.51-1.84,1.8-.43.16-1.78-.65-1.77-1,.17-7.09-7.55-10.94-6.9-18.68.54-6.52-8.2-11.27-5.11-19.14,2.38-6-4.93-8.7-5.24-13.79-.27-4.43.46-9-.23-13.32-.51-3.21-5.79-4-5.24-8.49A64.82,64.82,0,0,0,942.65,597.4Z"/><path d="M482.69,905c-5.66.84-10.44-.45-13.63-5.61l-6.15-14.73c4.75-2.8,3.78-7.42,3.73-11.75,1.45.56,3.8.74,4.21,1.73,3,7.22,5.81,14.41,10.21,21C482.66,898,482.2,901.79,482.69,905Z"/><path d="M741.63,199c1,1.23,2.6,2.3,3,3.7s-.1,3.32-.53,4.91c-.2.73-1.26,1.86-1.76,1.78-9.43-1.6-10.93,10.68-19,10.87-4.33.1-5.31,4-8.24,5.44-.69.35-1.71,0-2.58,0h-2.61c-.87,0-2.08.34-2.51-.09a2.55,2.55,0,0,1,0-2.47c1-1.39,2.78-2.31,3.5-3.79,3-6.11,11.22-3,14.77-9,2.6-4.34,7-7.68,11-11.07C737.63,198.43,739.92,199,741.63,199Z"/><path d="M314.11,717.89a45.81,45.81,0,0,1-5.89-.87,2.94,2.94,0,0,1-1.75-1.8c-.11-.46.81-1.29,1.41-1.79,2.55-2.16,5.27-6.14,7.73-6,6.48.37,11-2.62,16.15-5.47,1.3-.73,5.34,1,6.24,2.61s1.55,5.95-1.52,6.75C328.67,713.37,322.2,720.45,314.11,717.89Z"/><path d="M698.78,236.91c-3.94,5.66-11.28,9.46-18.57,13.64-3.74,2.14-4.17.17-4.84-1.8-.49-1.42.09-3.3.52-4.9.19-.72,1.18-1.79,1.77-1.77,12.14.44,13.83-14.69,24.47-16.34a34.54,34.54,0,0,1,5.19,0,7.38,7.38,0,0,1-.06,2.58c-.3.74-1.12,1.27-1.73,1.88C703.7,232,701.86,233.84,698.78,236.91Z"/><path d="M632.45,332.67c5.65-11.1,16.07-17.89,24.38-26.56,1.26-1.31,5.07-.18,7.71-.18-5.66,11.1-16.08,17.88-24.39,26.56C638.89,333.8,635.08,332.67,632.45,332.67Z"/><path d="M354.33,717.76c.19,5.38-5.24,6.61-7.51,10.18-7.24-.55-10.54,5.23-14.64,9.44-3.11,3.19-6.67,1.07-9.94,1.77,1.22-6.69,8-8.92,11.18-14C338.53,716.91,346.44,717.61,354.33,717.76Z"/><path d="M980.09,712.49c0,2.66-.34,5.37.1,8s-.26,3.85-2.68,2.54a5.74,5.74,0,0,1-2.64-4.06c-.15-5.23-.13-9.85-4.57-14.26-2.39-2.38-1.1-8.15-2.29-12.15-.73-2.43-6.77-4.59-.23-6.66,3.24-1,7.39-.21,6.9,5-.42,4.42,4.59,5.37,5.2,8.45C980.72,703.52,980.09,708.07,980.09,712.49Z"/><path d="M1065.67,781.94c-1.46-.57-3.73-.73-4.25-1.76-6.51-12.89-6.45-12.92-6.45-30.33,3.13-.6,4.81,1.31,5.25,3.85.56,3.25-.93,8.32.77,9.66C1067.71,768.66,1065,775.58,1065.67,781.94Z"/><path d="M509.43,762.74c0-3.44.33-6.92-.1-10.3-.34-2.65.13-3.53,2.66-2.55a3.15,3.15,0,0,1,1.81,1.73c1.46,6.24.12,13.33,6.14,18.25.61.5-1,4.56-2.43,6.35-.68.87-3.39.78-4.83.23s-2.94-2.12-3.1-3.41A80.35,80.35,0,0,1,509.43,762.74Z"/><path d="M509.43,749.85c-3.16-.79-4.65,1.71-6.08,3.56-1.59,2.05-3.33,2.4-3.53,0-.7-8.3-.77-16.65-1.09-25,3-.59,5.65,1.73,5.12,3.63C501.79,739.47,507.16,744.09,509.43,749.85Z"/><path d="M1022.88,789.83a36.18,36.18,0,0,1,.08-5.21c.11-.69,1.35-1.86,1.73-1.74,1.26.4,3.11,1.06,3.41,2,1.22,4-1.74,8.49,1.89,12.31,1.22,1.29,5.55,2.61,1.49,5.36a6.71,6.71,0,0,1-4.86.64c-2.63-.66-4.12-2.49-3.79-5.58A75.5,75.5,0,0,0,1022.88,789.83Z"/><path d="M680.58,632.16c0-3.25-.31-5,.07-6.69.61-2.63,2.11-4.68,5.3-3.94,1.53.35,3.45.77,4.32,1.86a6.37,6.37,0,0,1,.88,4.69,9.59,9.59,0,0,1-2.58,4.07c-1.7,1.85-3.63,3.5-5.47,5.23Z"/><path d="M969.4,587.06a23.54,23.54,0,0,0,.06,5.11c.6,2.62-.21,3.71-2.57,2.46a6,6,0,0,1-2.73-3.81c-.54-3.28-.2-6.71-.75-10-.42-2.46-6.92-3.26-2.17-7.15,1-.85,3.46-.79,4.89-.24,4,1.52,3.32,5.19,3.27,8.49C969.37,583.64,969.4,585.35,969.4,587.06Z"/><path d="M926.61,524.35c0-.81.14-4.2.5-7.57.07-.67,1.6-1.82,1.68-1.75,1.14.88,3,1.91,3,3,.27,6.88-.1,13.8.26,20.68.13,2.62-.28,3.74-2.65,2.47a5.85,5.85,0,0,1-2.7-3.87C926.35,533.86,926.61,530.39,926.61,524.35Z"/><path d="M921.26,498.05c0-2.57.33-5.2-.09-7.69s.24-3.72,2.6-2.47a5.56,5.56,0,0,1,2.71,3.81c.18,5.06-.1,10.15-.38,15.22,0,.64-1.57,1.8-1.67,1.73-1.14-.86-2.82-1.78-3-2.93C920.94,503.24,921.26,500.61,921.26,498.05Z"/><path d="M242.08,455.68c-4.06,0-6.15-2.4-5.37-6.57.51-2.68,1.91-4.46,5.24-4.19,4,.31,6,2.44,5.41,6.65C247,454.31,245.2,455.7,242.08,455.68Z"/><path d="M937.31,567.57c0-2.56.33-5.19-.1-7.68s.24-3.72,2.6-2.47a5.53,5.53,0,0,1,2.71,3.81c.19,5.06-.09,10.15-.37,15.22,0,.64-1.58,1.8-1.67,1.73-1.14-.86-2.82-1.78-3-2.93C937,572.77,937.31,570.14,937.31,567.57Z"/><path d="M974.74,616.14a4.08,4.08,0,0,1-5.21-3.78c-.42-5.85-.13-11.74-.13-17.62a4.08,4.08,0,0,1,5.21,3.78C975,604.37,974.74,610.26,974.74,616.14Z"/><path d="M980.09,642.45c0-2.57.34-5.19-.09-7.68s.24-3.72,2.6-2.47a5.56,5.56,0,0,1,2.71,3.81c.18,5.06-.09,10.15-.38,15.22,0,.63-1.57,1.8-1.67,1.73-1.13-.86-2.82-1.78-3-2.93C979.78,647.65,980.09,645,980.09,642.45Z"/><path d="M573.61,691c.86,8.3-2.25,14-10.69,16C562.06,698.76,565.17,693.11,573.61,691Z"/><path d="M937.31,730.9c-1.16.71-3,2.26-3.35,2-2.62-2.16-5.57-4.35-7.1-7.23-.85-1.59.85-4.53,1.4-6.87,1.2.53,2.66.77,3.57,1.62C936.59,724.79,937.9,727.49,937.31,730.9Z"/><path d="M466.64,872.86c-8.44-2.09-11.55-7.75-10.69-16C464.39,858.91,467.5,864.56,466.64,872.86Z"/><path d="M119,870c.07,7.19-.49,8.12-5.85,8.1-1.4,0-2.81-1.18-4.13-2-.16-.1,0-1.3.4-1.67,2.31-2.37,4.65-4.72,7.13-6.91a2.7,2.7,0,0,1,2.42,0C122.07,869.32,119,866.44,119,870Z"/><path d="M1012.18,749.85a4.11,4.11,0,0,1,5.21,3.67c.5,4.07.14,8.24.14,12.37a4.11,4.11,0,0,1-5.21-3.67C1011.82,758.15,1012.18,754,1012.18,749.85Z"/><path d="M1012.18,745c-1.25,1.3,2.6,5.56-2.51,4.73-1.12-.18-2.59-2.34-2.7-3.69a57.32,57.32,0,0,1,.38-10c.06-.65,1.54-1.79,1.65-1.71,1.15.82,2.83,1.72,3,2.85C1012.5,739.63,1012.18,742.23,1012.18,745Z"/><path d="M980.09,728c1.26-1.29-2.59-5.56,2.52-4.72,1.11.18,2.58,2.34,2.69,3.68a55.41,55.41,0,0,1-.38,10c-.06.65-1.54,1.79-1.65,1.71-1.14-.82-2.83-1.72-3-2.84C979.78,733.32,980.09,730.72,980.09,728Z"/><path d="M990.79,688.21a36.16,36.16,0,0,1,.08-5.21c.11-.69,1.35-1.86,1.73-1.74,1.26.4,3.29,1.19,3.38,2a64.6,64.6,0,0,1,.07,10.41c0,.65-1.34,1.86-1.72,1.74-1.26-.4-3-1-3.39-2C990.37,691.85,990.79,690,990.79,688.21Z"/><path d="M915.91,676.22l-2.62,4c-.61-.57-1.23-1.13-1.82-1.72a48.62,48.62,0,0,1-5.3-5.55c-.31-.43,1-2.92,2-3.26C913.16,668,916.2,670.66,915.91,676.22Z"/><path d="M391.77,675c-4.53.31-5.47-2.53-5.33-6.18.1-2.82,1.67-4.4,4.5-4.5,3.65-.13,6.49.81,6.17,5.33Q391.56,669.43,391.77,675Z"/><path d="M974.74,616.14a4.12,4.12,0,0,1,5.22,3.67c.49,4.07.13,8.24.13,12.37a4.11,4.11,0,0,1-5.21-3.67C974.38,624.44,974.74,620.27,974.74,616.14Z"/><path d="M889.17,605.44a4.12,4.12,0,0,1-5.21-3.67c-.5-4.07-.14-8.24-.14-12.38a4.12,4.12,0,0,1,5.21,3.67C889.53,597.13,889.17,601.31,889.17,605.44Z"/><path d="M814.29,584.51c-1.26,1.29,2.6,5.56-2.51,4.72-1.12-.18-2.59-2.34-2.7-3.68a57.32,57.32,0,0,1,.38-10c.06-.65,1.54-1.79,1.65-1.71,1.15.82,2.83,1.72,3,2.84C814.61,579.18,814.29,581.78,814.29,584.51Z"/><path d="M937.31,557.3a4.12,4.12,0,0,1-5.22-3.67c-.49-4.07-.13-8.24-.13-12.37a4.11,4.11,0,0,1,5.21,3.67C937.67,549,937.31,553.17,937.31,557.3Z"/><path d="M648.44,270.89c-2,3.4-5.14,3.46-8.41,2.44a3.71,3.71,0,0,1-1.69-1.65c.76-1.15,1.63-2.84,2.71-3.05a33,33,0,0,1,7.44,0A4.83,4.83,0,0,1,648.44,270.89Z"/><path d="M616.35,297.63c-2,3.4-5.14,3.46-8.41,2.44a3.71,3.71,0,0,1-1.69-1.65c.76-1.15,1.62-2.84,2.71-3.05a32.46,32.46,0,0,1,7.44,0A4.79,4.79,0,0,1,616.35,297.63Z"/><path d="M252.71,502.53,250,509.17c-.89-2.21-2.24-4.38-2.49-6.66-.13-1.24,1.6-2.69,2.49-4Q251.38,500.5,252.71,502.53Z"/><path d="M413.16,535.91c-2.91.59-4.65-1.2-5.22-3.49s-.13-4.79-.13-7.21c2.91-.58,4.65,1.21,5.22,3.49S413.16,533.5,413.16,535.91Z"/><path d="M964.05,563.48c-.74,1.36-1.68,3.94-2.19,3.86a3.66,3.66,0,0,1-3.05-5c.53-1.71-2.59-5.64,2.35-4.86,1.12.18,2.07,2.23,2.83,3.57C964.34,561.66,964.05,562.65,964.05,563.48Z"/><path d="M819.64,595.58c-.73,1.35-1.67,3.93-2.18,3.85a3.66,3.66,0,0,1-3.06-5c.53-1.71-2.59-5.64,2.36-4.86,1.12.18,2.07,2.23,2.82,3.57C819.93,593.75,819.64,594.74,819.64,595.58Z"/><path d="M894.52,611.62c-.74,1.35-1.68,3.94-2.19,3.85a3.66,3.66,0,0,1-3.05-5c.53-1.7-2.59-5.64,2.35-4.85,1.12.17,2.07,2.22,2.83,3.56C894.81,609.79,894.52,610.79,894.52,611.62Z"/><path d="M370.32,623.88c-2,3.41-5.14,3.46-8.41,2.44-.7-.22-1.78-1.5-1.68-1.64.76-1.15,1.62-2.85,2.7-3,2.4-.46,4.95-.14,7.44-.14C370.37,622.32,370.66,623.32,370.32,623.88Z"/><path d="M924.62,701.64c.64,2.16,1.75,4.42,1.82,6.72,0,1.32-1.61,2.7-2.51,4-.89-1.35-2.26-2.61-2.56-4.08A5.53,5.53,0,0,1,924.62,701.64Z"/><path d="M999.5,701.64c.64,2.16,1.75,4.42,1.82,6.72,0,1.32-1.62,2.7-2.51,4-.89-1.35-2.26-2.61-2.56-4.08A5.53,5.53,0,0,1,999.5,701.64Z"/><path d="M1006.82,723.25c-.59,1.42-1.13,2.92-1.88,4.32-.12.22-1.32.18-1.73-.13-2.68-2-2.74-7.89.15-8.66S1007.06,720.59,1006.82,723.25Z"/><path d="M940.25,749.8c-3.4-2-3.45-5.15-2.44-8.42a3.68,3.68,0,0,1,1.65-1.68c1.15.76,2.85,1.62,3,2.7a32.46,32.46,0,0,1,0,7.44A4.67,4.67,0,0,1,940.25,749.8Z"/><path d="M1022.88,772.07c-.74,1.36-1.67,3.94-2.18,3.86a3.66,3.66,0,0,1-3.06-5c.53-1.71-2.59-5.65,2.36-4.86,1.12.17,2.06,2.22,2.82,3.57C1023.17,770.25,1022.88,771.24,1022.88,772.07Z"/><path d="M1039.35,814.69l-3.1,4.69c-.89-1.36-2.62-2.8-2.49-4,.25-2.28,1.6-4.45,2.49-6.66Z"/><path d="M215.27,875.25c-1.06.82-2.66,2.57-3.08,2.32-3.22-1.89-1-3.41.73-4.65a2.32,2.32,0,0,1,2.26,0C215.58,873.35,215.27,874.45,215.27,875.25Z"/><path d="M218.38,868c.62.62,1.76,1.49,1.65,1.69a10.76,10.76,0,0,1-2.43,3.15,1.6,1.6,0,0,1-2.26-2.26A19,19,0,0,1,218.38,868Z"/><path d="M122.11,862.6c.62.62,1.75,1.49,1.65,1.69a10.94,10.94,0,0,1-2.43,3.16,2.31,2.31,0,0,1-2.25,0,2.33,2.33,0,0,1,0-2.25A19.53,19.53,0,0,1,122.11,862.6Z"/><path d="M135,851.47c.19,2.6-.34,5-3.54,4.24-.88-.2-1.22-2.76-1.81-4.24Z"/><path d="M1047.24,846.12c-.83-1.06-2.58-2.65-2.32-3.08,1.88-3.22,3.4-1,4.64.74a2.33,2.33,0,0,1,0,2.25C1049.14,846.43,1048,846.12,1047.24,846.12Z"/><path d="M202.67,802.56l-3.45-1.9c.6-.6,1.32-1.77,1.76-1.68a16.45,16.45,0,0,1,3.59,1.68Z"/><path d="M562.92,709.45c-1.06.82-2.66,2.57-3.09,2.32-3.21-1.89-1-3.41.74-4.65.53-.38,1.55-.06,2.35-.06Z"/><path d="M346.3,691A16.67,16.67,0,0,1,348,694.6c.1.45-1.08,1.17-1.68,1.76a16.88,16.88,0,0,1-1.67-3.59C344.53,692.33,345.71,691.61,346.3,691Z"/><path d="M920.49,689.11l-1.9,1.9a16.23,16.23,0,0,1-1.68-3.59c-.1-.44,1.08-1.16,1.68-1.75Z"/><path d="M990,667.72c-.72.71-1.31,1.31-1.9,1.9a16.45,16.45,0,0,1-1.68-3.59c-.1-.44,1.08-1.16,1.68-1.76Z"/><path d="M900.64,650.13l1.9-1.9a16.88,16.88,0,0,1,1.67,3.59c.1.44-1.07,1.16-1.67,1.76Z"/><path d="M833.3,648.23c-.82-1.06-2.57-2.66-2.32-3.08,1.88-3.22,3.41-1,4.65.73.37.53.06,1.55.06,2.35Z"/><path d="M900.64,639.43l1.9-1.9a16.88,16.88,0,0,1,1.67,3.59c.1.44-1.07,1.17-1.67,1.76Z"/><path d="M373.48,616.57c.62.62,1.76,1.5,1.65,1.7a10.72,10.72,0,0,1-2.43,3.15,1.6,1.6,0,0,1-2.26-2.27A19.45,19.45,0,0,1,373.48,616.57Z"/><path d="M335.9,605.44c-.83-1.06-2.58-2.65-2.32-3.08,1.88-3.22,3.4-1,4.64.74.38.53.06,1.55.06,2.34Z"/><path d="M940.27,589.4c-.83-1.06-2.57-2.66-2.32-3.09,1.88-3.22,3.4-1,4.65.74a2.38,2.38,0,0,1,0,2.26C942.17,589.7,941.06,589.39,940.27,589.4Z"/><path d="M332.16,587.49l-1.9,1.9a16.66,16.66,0,0,1-1.67-3.59c-.1-.44,1.07-1.16,1.67-1.75Z"/><path d="M325.69,577.93,322.24,576c.59-.59,1.32-1.77,1.75-1.67a17,17,0,0,1,3.6,1.67Z"/><path d="M846.38,573.35c-2.6.19-5-.34-4.24-3.54.2-.88,2.76-1.22,4.24-1.81Z"/><path d="M386,539c-.62.62-1.49,1.76-1.69,1.65a10.76,10.76,0,0,1-3.15-2.43A1.6,1.6,0,0,1,383.4,536,19.45,19.45,0,0,1,386,539Z"/><path d="M402.46,525.21c.19,2.6-.34,5-3.54,4.24-.88-.19-1.22-2.76-1.81-4.24Z"/><path d="M456,463.71a16.88,16.88,0,0,1-3.59,1.67c-.44.1-1.17-1.08-1.76-1.67a16.45,16.45,0,0,1,3.59-1.68C454.63,461.94,455.35,463.11,456,463.71Z"/><path d="M551.45,393.41c-.62,1.12-1.26,2.28-1.91,3.44-.59-.59-1.77-1.32-1.67-1.76a16.88,16.88,0,0,1,1.67-3.59Z"/><path d="M589.66,367.15c-1.06.82-2.66,2.57-3.08,2.32-3.22-1.88-1-3.41.73-4.65a2.32,2.32,0,0,1,2.26,0C590,365.24,589.66,366.35,589.66,367.15Z"/><path d="M616.4,295.23c-.14-3.7,1.65-5.48,5.35-5.35C621.88,293.58,620.1,295.37,616.4,295.23Z"/><path d="M624.86,285c.62.62,1.75,1.5,1.65,1.69a10.94,10.94,0,0,1-2.43,3.16,1.6,1.6,0,0,1-2.26-2.27A19.45,19.45,0,0,1,624.86,285Z"/><path d="M648.49,268.49c-.14-3.7,1.65-5.48,5.35-5.35C654,266.84,652.19,268.63,648.49,268.49Z"/><path d="M657,258.23c.62.62,1.76,1.49,1.65,1.69a10.76,10.76,0,0,1-2.43,3.15c-.47.39-1.54.07-2.33.07,0-.79-.32-1.85.07-2.33A19.45,19.45,0,0,1,657,258.23Z"/><path d="M552.36,514.51c-2.65.23-5.28-.46-4.47-3.47s6.67-2.83,8.66-.15c.31.42.35,1.61.13,1.73C555.29,513.37,553.78,513.91,552.36,514.51Z"/><path d="M504.85,539.36c.62-1.12,1.26-2.29,1.91-3.45.59.6,1.77,1.32,1.67,1.76a16.88,16.88,0,0,1-1.67,3.59Z"/><path d="M520.13,533c-1.06.82-2.66,2.57-3.08,2.32-3.22-1.88-1-3.41.73-4.65a2.32,2.32,0,0,1,2.26,0C520.44,531.05,520.13,532.15,520.13,533Z"/><path d="M523.24,525.65c.62.62,1.76,1.49,1.65,1.69a10.94,10.94,0,0,1-2.43,3.16,2.26,2.26,0,0,1-2.24,0,2.29,2.29,0,0,1,0-2.24A19.53,19.53,0,0,1,523.24,525.65Z"/><path d="M472,765.75c.24,2.65-.45,5.28-3.46,4.47s-2.83-6.67-.15-8.66c.41-.31,1.61-.35,1.73-.13C470.84,762.83,471.39,764.33,472,765.75Z"/><path d="M450.16,678.08c-.62.62-1.49,1.76-1.69,1.65a10.89,10.89,0,0,1-3.15-2.43,1.6,1.6,0,0,1,2.26-2.26A19.45,19.45,0,0,1,450.16,678.08Z"/><path d="M375.72,776.59q-.2-5.55,5.35-5.35C381.21,774.94,379.42,776.73,375.72,776.59Z"/></svg>