<svg id="Layer_1" data-name="Layer 1" xmlns="http://www.w3.org/2000/svg" viewBox="0 0 1200 1200"><title>BB_Artboard 23</title><path d="M795.13,453.35c4.88,7.58,12.42,11.93,20.77,15.58,13.93,6.1,27.68,12.57,41.51,18.88,3.82,5.86,11.91-.28,16.2,5.1,3,3.77,9.8,2.21,12.77,6.86.49.78,3.23.41,4.93.43,3.5.06,9.2-1.21,10.15.23,4.93,7.52,15.54,1.41,20.36,8,.46.62,1.28,1.42,1.94,1.43,6.14.11,12.37-.56,18.38.25,5.55.76,9.55,6.55,16.27,4.72,5.74-1.56,9.12,3.21,13.68,4.58,4.73,1.43,11.78-1,14.94,1.5,4.76,3.7,9.27,3.56,14.34,3.61,6.14.07,12.32-.41,18.4.13,7.48.66,15.24-2.26,22.51,2.6,6.75,4.5,15.24.77,22.58,2.42,3.69.83,5.81,5.87,11.1,4.8.54-.11,2.35,2.34,2.46,3.68.34,4,.7,8.2-.05,12.14-.68,3.63-5.52,5.36-5.42,10.19.08,3.75-6.62,1.82-7.94,3.76-4.22,6.21-12.44,1.65-16.06,5.27-5.29,5.3-11.77,4.78-16.79,3.34-8.39-2.4-11.76,6.07-19,5.4-6.94-.64-14-.14-21-.14-9.27,9.48-21.31,3.9-32,4.57-7,.43-11,7.08-18.9,5.45-6.68-1.37-14.4-1.66-20.84.12s-11.69,5.49-19,4.62c-6-.72-12.25-.15-18.38-.15h-21c-5.26,0-10.53-.16-15.77.11a5.75,5.75,0,0,0-4,2.33c-.72,1.28-.9,4.15-.13,4.61,8.33,5,9.32,15,16.6,20.49,3.82,2.89,5.06,6.35,4.29,10.55-1,5.25,6.83,6.93,5.43,12.63-1.77,7.19,8,11.67,5.48,20-1.82,6-1.55,13.15,0,19.32,1.67,6.76-8.1,8.34-5.87,15.18,1.44,4.4.34,9.6-.17,14.4-.14,1.25-3,2.13-3.42,3.49a34.17,34.17,0,0,1-6.64,12.08c3.56,7.19-5.36,11.13-5.33,17.47,0,2.27.08,5.78-1.33,6.6-5,2.91-2.57,9-7.2,12.1-4.26,2.82.28,8.74-2.23,11.08-4.21,3.91-5.09,7.84-5.16,12.86,0,1.93-2.09,4.31-3.93,5.66-5.24,3.85-7.45,8.6-6.36,14.66,1.42,7.89-1.72,13.84-8.31,18.83-1.56,1.19-2.11,4.19-2.1,6.36,0,4.43-.21,8-6.59,7.65-3.36-.2-7-.75-9.39,2.47-2.17,2.94-3.73,1.16-5.61-.42-5.25-4.44-11.82-2.28-17.39-1.63-3.15.36-6.52,5-8.2,8.32-1.34,2.68-.35,6.38-.26,9.63.14,4.83-.53,8.82-4.34,13.11-2.56,2.88-2.78,9.12,2.26,12.88,4,3-.08,3.39-1.87,4.26-2.11,1-6.24,1.69-6.29,2.67-.55,9.59-9.55,13.21-15.59,18.29-5.4,4.54-12.55,7.26-18.23,12.1-4,3.38-12.29-1.11-15.85,5.41-5.88.57-13.23-.65-17.27,2.18-5,3.5-9.92,4.1-14.42,3-10.23-2.59-16.61,7.19-26.9,5.5s-21-.37-31.48-.37c-9.64,0-19.45-1-28.87.35-6.26.89-11.42,5.93-18.95,4.72-6-1-12.23-.2-18.37-.2-7,0-14.07.48-21-.14-5.8-.52-9.19,3.25-13.72,4.74a66.47,66.47,0,0,0-27,16.33c-6.27,6.28-12.84,12-21.66,16-6,2.7-14-.65-18.54,6.24-1,1.52-6.53.6-10,.61-14.9,0-29.83-.52-44.69.22-9.4.47-15.65-2.66-23-8-11.19-8.1-9.14-18.18-9.1-28.37,0-1.19,2.05-2.46,3.3-3.54,2.85-2.45,26.68-14,30.58-13.67,5.25.45,7.45-3.2,11.09-4.88s9.15,1.89,12.06-2.2c4.18-5.85,12,0,16.25-5.07,3.91-4.74,9.65-2,14.57-2.64,3.36-.42,8.48.65,9.86-1,6.06-7.41,15.78-.59,21.39-5.23,3.53-2.92,8.26-2.21,11-5,5.77-5.83,14.19-9.9,16.7-17.86,1.12-3.57,3.56-5.31,5.77-7.54,4.13-4.19,8.82-7.91,12.89-12.16,3.27-3.41,7.09-5.92,8.55-11.39,1.26-4.74,7.42-8.68,12.07-12.25,4.23-3.25,3.49-8.37,6.87-12.22,2.84-3.24,3.61-8.56,7.93-11.36s3.63-6.66,4.31-10.61c.62-3.56,4-6.67,4.82-10.24.87-3.77-.8-8.12,3.84-10.76a3.29,3.29,0,0,0,1.57-1.8c1.1-5.36-2.72-11.66,2.28-16.11,5.54-4.93,2.39-10.64,2.91-16a77.48,77.48,0,0,0,0-17c-.85-6.75-6.33-12.25-6.4-19.57,0-2.18-4.69-6.13-7.23-6.13-6.36,0-11-2.77-16.41-4.8-5.28-2-12.09-.42-18.23-.42-9.5,8.19-21.24,4.59-32,4.55-6,0-9.06,5.55-13.55,4.88-8.38-1.24-13.34,7.47-21.54,5.18a145.24,145.24,0,0,1-19.48,9.34c-12.89,4.74-24.36,12-37.28,16.62-2.95,1.06-5.21,3.86-9.06,3.34-.54-.07-1.34,1-1.87,1.57-4.32,5-10.26,7.65-16.29,10.57-4.45,2.15-7.29,7-11.39,10-3.14,2.28-7.65,3-10.64,5.39-5.94,4.77-11.26,10.22-16.84,15.38L329.1,811.91c-9.75-.73-12.36,7.87-18.15,12.2-6.1,4.57-11.27,10.2-16.85,15.37s-10.84,10.67-16.83,15.39c-5.67,4.48-12.42,7.78-18.09,12.25-6,4.73-11.1,10.38-16.92,15.31a11.39,11.39,0,0,1-6.7,2.4c-6,0-13.43,1.36-17.58-1.37-5-3.26-9.45-2.91-14.41-3.51a4.7,4.7,0,0,1-3.15-3.14c-.55-4.75-.5-9.57-.85-14.35,0-.61-1.09-1.47-1.81-1.61-.48-.1-1.54.75-1.79,1.37a145.68,145.68,0,0,1-15.14,28.24c-3.32,4.83.67,10.62-5,15.41-4.33,3.67-5,10.88-7.91,16.21-2.6,4.72-6.67,8.79-9,13.61-1.64,3.39,0,9.06-2.38,11-4.25,3.51-2.24,9.26-7,12.2-3.54,2.16-2.07,6.89-5.3,10.21-4.16,4.27,0,12.63-7.05,16.62-1.62,8.47,5.57,14,8.3,20.94,6.6-1.24,9,4.1,12.49,7.25,3.73,3.34,10.07,2,12.82,6.78,2.65,4.64,8.21,4.94,12.62,7,1.49.68,2.68,3.31,3.75,3.18,11.87-1.45,19.77,7,29.83,9.95,4.63,1.35,7.7,5.18,13.61,5.24A25.42,25.42,0,0,1,246,1052c4.68,4.25,9.48,3,14.43,3.39,4.74,6.76,12.16,4.68,18.86,4.84,5.21.13,7.36,6.29,13.65,5.13,4.74-.87,10.59-1.76,14.07,3.55a3.07,3.07,0,0,0,2.11,1c9.16.53,19-2.35,26.74,4.91h55.22c4.46-6.25,12.6-3.39,18.16-6.35,3-1.58,5.39-4.6,9-3.29,8.67,3.14,14-4.33,21.39-5.55,6-1,10.93-7.78,16.9-8.66s11-4.46,16.19-4.84c6.4-.47,10.79-4.4,16.23-5.08s7.48-7.31,13.55-5.19,8.27-4.63,13.57-5.12c3.8-.35,7.33-3,11-4.62,4.41-1.91,10-2.81,13-5.88,3.78-3.91,9.54-2.88,13.06-6.59,4.63-4.89,14.46,1.08,17.88-7,7.08,1,11.51-5.11,18.78-5.54,6.64-.39,12.68-6.42,19.41-9,9.79-3.78,18.8-8.92,28.41-12.91,8.89-3.69,17.94-7.21,26.26-11.76,9.15-5,19.82-7.39,27.89-14.15,6.33,1,8.73-4.11,12.76-6.8,3.26-2.17,7.14-3.56,10.77-5.25,24.66-11.49,49.58-22.54,73.8-34.79,5.07-2.57,11.08.38,14.19-3.27,3.59-4.22,9.47-2.79,13.12-6.57,3.19-3.31,9.81-2.24,12.58-6.9,12.59,1.47,21-8.06,32.13-10.46,3.32-5.18,9.14-3.12,13.84-4.42,5.33-1.47,10.07-4.9,14.93-7.67,4.18-2.37,10-2.11,12.8-6.67,10,1,16.78-6.11,25.16-8.25,8.84-2.26,17.45-4.78,24.69-9.44,4.9-3.16,11.15,1,14.25-3.29,2.94-4,8.57-1.77,10.94-5.1,3.14-4.43,9.57-2.31,13.05-6.64,2.21-2.74,7.55-1.83,10.8-5.16s9.22-.37,14.29-3.22c7.6-4.28,18.16-3.86,23.27-12.46,6.15.51,12.12.49,16.22-4.88,6,1.92,7.94-5.69,13.62-5a5.28,5.28,0,0,0,4.1-2.22c3.94-7,13.94-6.11,18.27-12.06,5-6.85,12.15-5,18.86-5,3.65,0,10.3,6,10.41,9.14a109.39,109.39,0,0,1-.11,14.6,11,11,0,0,1-3.23,6c-4.11,4.21-8.21,8.59-13.06,12-4.55,3.19-10.65,3.94-14.6,8.63-3.54,4.2-7.4,9-14.39,8.73-2.59,4.89-8.85,3.72-12.87,6.69a46,46,0,0,1-15.15,7c-5.49,1.48-9.32,7.48-16.18,5.11a3.51,3.51,0,0,0-2.52.14c-4.89,3-6.83,10.33-14.11,9.38-6-.79-9.28,4.87-13.61,4.66-6.68-.3-11.06,3.06-16.24,5.28-8.82,3.8-18.67,6.5-26,12-5.88,4.43-14.73-1.2-18.31,6.49-7.12-.73-10.62,7.34-18.49,6.16-3.29-.49-7.24,2.93-10.92,4.51-5.14,2.21-11,3.55-15.28,6.77-4.64,3.52-11.44,3-15,7.85-6.4-1.22-11.18,1.79-16.32,4.74-5.47,3.15-12.19,4.57-17.34,8-5.61,3.78-14.77-1.51-18.11,6.7-5.27-1.26-7.79,2.37-10.86,5.14-1.82,1.65-3.9,4.42-5.81,4.39-13.39-.24-22.91,8-33.58,13.23-5,2.44-10.42-.8-14.48,3-3,2.87-5.87,7.19-9.51,7.94-6.71,1.38-12.49,4.79-17.35,8-5.46,3.65-12.26-.88-16.59,4.62-3.06,3.89-7.21,7.07-11.09,10.36-1.11.94-3.11,1.83-4.44,1.57-8.55-1.61-13.44,5.37-20.51,7.28-6.38,1.72-11.29,6.45-16.81,9.66-5.81,3.38-11.68,9-20.2,7.61-5.3-.84-7.48,6.79-13.52,4.93-2.71,3.34-6.94,3.89-10.63,5.56s-6.6,4.85-11.37,4c-4.07-.7-6.63,1.64-8.57,4.24-3.18,4.23-9,4.28-12.52,7.1-3.86,3.09-7.49,3.41-11.82,3.28-.87,0-2.31-.32-2.55,0-6.89,10.68-21.11,8.52-30.14,14.83-5.92,4.12-12.54,3.61-18.51,5.87-5.24,2-9.53,6.1-14.74,8.22-2.94,1.19-6.9.16-10.39.33-.65,0-1.89,1.25-1.77,1.56.45,1.16,1.19,3,2.1,3.11,6.49,1.09,14.05-2.61,19.36,3.82,6.83.39,13.73,1.48,20.49,1,7.36-.53,15.86,3.45,21.9-3.8,3.52,1.33,7,3.63,10.58,3.8,10.49.52,21.08-.4,31.53.39,7.34.55,12.71-3.23,19-4.67,7.43-1.71,15.67-.4,23.56-.4,7,0,14.65,1.58,20.83-.52,4.67-1.58,7.56-5.09,11.49.22,8.48-9.06,19.72-2.79,29.53-4.51,5.66-1,12,1.78,16.88-3.88,1.47-1.7,6.46-.88,9.85-1,7.75-.36,15.51-.61,23.27-.91,5.08-6.87,14.18-1.26,18.91-4.42a27.74,27.74,0,0,1,21.75-4.08c7.42,1.49,9.09-7.43,16.39-5.47,4.83,1.3,10.55.84,15.62,0,2.89-.51,4.09-4.9,8.42-4.68,3.24.16,6.75,1.07,9.71-1.86,1.53-1.52,4.21-2.39,6.53-2.8,3.25-.57,6.24-.63,9.59-2.2,9.37-4.4,17.84-10.74,28.56-12.51,4-5.61,10.45-4,16.09-5.32,5.29-1.26,9.5-7.14,14.71-7.89,9.93-1.44,13.36-12.2,23.47-12.43,5-4.59,10.12-9,14.76-13.87,1.47-1.54,1.62-4.21,2.24-6.39s.39-4.92,1.72-6.62c4.91-6.24,13.92-9.69,14.75-18.72,5.93-4.59,8.45-12,13.49-16.47,5.31-4.76,5.63-11.39,10.65-15.69a169.06,169.06,0,0,0,13-12.08c3.79-4,10.34-6.39,9.73-13.37-.07-.78,2.29-2.09,3.75-2.6,9.92-3.46,19.07-8.37,28.36-13,4.93-2.46,9.56-2.77,14.25.1,1.41.87,2.43,2.35,3.9,3.07,20.57,10.08,22.59,17.16,13,37.4-2,4.23-2.44,7-7.93,6.65-.91-.06-2.94,2.27-2.82,3.33.68,6.08-1.11,11-6.55,14.64-1.4.94-3.44,2.17-3.58,3.42-.69,6.33-4.37,11.83-8,16.37-6.13,7.77-14.83,13.76-21.84,21-4.68,4.84-12.16,4.88-16.74,10.08-3.54,4-6.77,9.79-14.28,8.9-4.45,5.56-13.32,8.07-13.42,16.68a2.56,2.56,0,0,1-1.54,1.78c-4.41,1.52-11,.89-8.95,8.37-3.47,2.57-6,5.59-5.58,10-5.23,2.43-3.55,8.74-7.48,11.71-8,6.09-10.26,16-18.39,22.32-9.38,7.25-17.51,15.89-26.19,23.93,1,6.94-3.29,7.84-9.37,7.61a11,11,0,0,0-6.64,2.51c-4.59,3.75-8.77,7.94-13.11,11.95-6.13-2.2-8.57,4-13.49,5.25-6.88,1.75-12.64,7.38-19.52,9-5.68,1.31-9,7.11-16.19,5.51-5.68-1.26-9.1,6.26-16.23,4.92-5.5-1-9.14,6.43-16.22,4.8a33.87,33.87,0,0,0-15.64,0c-6.28,1.68-11.44,5.9-19,4.82-6.85-1-14-.21-21-.21s-14.06-.39-21,.11-10.64-7.84-19-5.3c-5.54,1.69-12.16.32-18.29.32-7,0-14.08-.49-21,.14-6.49.59-9-7-16.32-5.28-5.77,1.35-12.2.27-18.33.27-7.66-7.56-17.65-4.14-26.75-4.87-6.76-7-15.8-4.78-24.12-4.74-5.5,0-9.58-1.15-13.86-4.73-2.67-2.24-8.3,1.38-12.15-2a12.25,12.25,0,0,0-6.46-3c-8.28-.77-17.13,1.87-24.29-4.82-1.3-1.22-5.1.06-7.69-.21-13.33-1.41-27.62,3.93-39.9-4.83-11.4,0-22.81.38-34.18-.14-7.36-.34-15.86,3-21.68-4.31l-73.44-.42c-6.27,9.93-20.92-.19-27.2,9.74-5.26,0-10.53-.18-15.77.05-4.95.22-9.68-.8-14.54,3.17-3.08,2.51-9.77,1.57-14.84,1.59-28.93.12-57.85-.23-86.77.22-10.08.15-18.77-.57-25.08-9.1-1.5-2-7.87,0-8.17-3.73-.65-8,0-16.13.17-24.19,0-1.17,8.34-6.88,10-6.95,6.7-.3,14.12,1.87,18.86-4.89,7-.07,14-.1,20.93-.29.64,0,1.45-1,1.79-1.68.18-.39-.28-1.29-.73-1.66-2.55-2.09-5.92-6.25-7.65-5.74-8,2.37-12.29-5.9-19-5.07-7.38.91-11.24-7.16-18.92-5.17-5.3,1.37-7.38-6.76-13.58-4.8-5.1,1.62-7.66-4.34-11-4.4-6.57-.14-8.24-5.65-12.66-7.36-6-2.33-11.05-6.24-17.55-7.85s-8.17-10.72-16.73-9.57c-5.07-4-8.65-9.24-16.29-10.82-3.83-.79-9-5.24-7.38-11.36.92-3.55-1.07-6-3.8-8.32-1-.87-1.79-3.13-1.29-4.21,2.23-4.9,7-9,5.1-15.08-1.74-5.52,4.45-8.31,5-12.63.75-5.5,8.26-8.63,5.51-15,3.39-5.15,5.4-10.93,8.79-16.13,2.91-4.45,4.55-9.6,7-14.32s4.67-9.8,8.14-13.86c3.85-4.51,1.09-9.34,2.46-13.75,1.11-3.55,4.58-6.72,4.85-10.21.39-5,7.75-6.83,5.6-12.59-1.77-4.74,3.62-6.77,5-10.21,2.58-6.44,6.25-12.27,9.38-18.35,2.68-5.23,2.62-11.59,6.2-17.15,1.66-2.6,4.85-5.12,5.09-7.62.69-7,9.33-11.88,5.89-19.76,6.24-3.55,5.19-11.33,10.41-15.52.43-.35,0-1.57.06-2.38.17-3.08-.76-8.58,2.5-8.31,6.23.5,8.16-5.87,13.61-5.42,1.74.15,3.51,0,5.26,0,4.38.19,8.38.19,11.71-3.52,1.21-1.36,5-1.82,7.09-1.21,7,2,15,3.21,19.46,9.09a51.65,51.65,0,0,1,8.46,16.15c1.36,4.52-.77,9.95.61,14.45,1,3.38,5.14,6,8,8.8.42.41,1.69.09,2.56,0s2,.12,2.46-.31c5-4.52,10.78-8.62,14.7-13.88s10.83-4.07,14.87-8.39c4.58-4.89,9.83-9.25,14.79-13.84,4.34-4,8.72-8,13-12.07,4.07-3.87,4.11-6.18.15-10-3-2.93-5.74-6.43-9.39-8.45-4.59-2.54-2.65-7.19-5.39-10.27-8.89-10-8.77-10.11-8.78-20.95,0-12.17,1.36-24.52-.41-36.47-1.63-11,7-19.14,6.57-29.34,7.39-3.2,1.55-11.2,5.77-14.71,5.78-4.8,2.37-10.59,4-15.65,1.88-5.8,7.47-10.62,5.09-17.51,6.46-3.6,5.35-9.46,5.28-15,0-1.58-.38-4.22.39-4.58,7.92-3.67,3-11.71,7.12-16.94,4.71-6,7.67-13.23,11.38-19.92.74-1.34,2.31-3,2-4-2.2-7,6.09-10.88,5.58-17.51-.34-4.49-2-9.5,3.5-13.28,4.5-3.11-1.18-9.52,3.78-13.11,1.27-.92,2.67-2.31,3-3.68,1.95-9.1-4-19.3,4.52-27.51.28-10.44.66-20.88.81-31.33.14-9.74,1.12-19.62-.35-29.17-1-6.5-5.6-12.51-6.29-19.43,0-.28-1.32-.79-1.75-.61-.74.32-1.9,1.21-1.8,1.63,1.73,6.82-2.59,11.93-5.57,17.4s-7.42,10.68-5.22,17.46c1.81,5.56-6.47,7.33-5.29,12.6,1.65,7.39-8.31,12-5.35,19.93,2.49,6.65-7.1,10.3-5.56,17.51.64,2.94-3.41,6.6-4.77,10.11-1.11,2.86,1.8,7-1.87,8.95-7.3,4-.43,12.12-7,17.15-4.41,3.38-.2,12.42-7,16.52-.84,6.06,2,12.31-4.19,18.05-3.56,3.31.81,11.09-5.81,14.75-.85.47-.49,3-.5,4.56,0,5.53.39,10.6-4.82,15.4-2.86,2.63,1.56,9.3-3.93,13-1.5,1-2.06,4.42-1.64,6.47,1.51,7.34-2,12.24-7.7,16.69-1.66,1.29-2,4-3,6.09-3.16,6.58-8.42,9.8-16.35,8.6-4.94-.74-10.73,2.15-14.75-2.16-3.52-3.77-7.89-2.2-12-2.79-1.49-.22-4.13-1.9-4-2.24,2-5.74-6.18-7.58-5.49-12.64.42-3-1.66-6.93,2.17-8.84,7.5-3.73,8.88-11.48,12.39-17.3,3.32-5.51,9.75-11.46,6.46-19.36,9-3.18,1.88-12.78,7.3-16.54,6.56-4.57-.85-13.37,7.2-17,.94-.42,1.5-2.92,1.18-4.24-2-8.41,3.93-14.75,6.44-21.95.72-2.1,3.58-3.66,4-5.72,1-4.61-.82-10.88,1.88-13.74a12.8,12.8,0,0,0,3.23-13.35c-2.15-6.85,7.86-8.41,5.9-15.19-1.18-4.11-1.94-9.27,3.31-13.26,4.6-3.49-1.74-11.56,5.73-14.73-.78-8.77,8.18-15.33,6.41-24.32,7.51-6.28,4.82-14.62,5.31-22.33.1-1.47.34-3.53,1.38-4.26,5-3.5,3.15-10.8,9.09-13.63-.76-5.76-.13-11.11,5.26-15-2-5.52,5-7.52,5.7-12.53s4.5-9.69,7.9-13.86,1.59-6.46-.85-10.26c-5-7.72-8.3-16.29-12.83-24.26-4.24-7.46-7.27-16.05-15.39-20.77-5.81-3.37-4.75-9.74-9-13.83-3.24-3.13-3.43-8.25-7.49-11.73-6.75-5.78-13.55-11.38-17.35-20C258.42,217,247.86,214,247,205c-8.06-7.46-16.25-14.81-24.13-22.43-5.18-5-11.9-8.85-13.32-16.84-.63-3.56-9.5.7-9.18-5.7.2-4-2.6-6-5.2-7.72-4.83-3.28-5.37-7.49-5.71-12.58-.23-3.47-3.79-6.65-4.79-10.22-.85-3,.07-6.47-.23-9.69-.69-7.55,4.31-13.37,8.25-18.69,5.35-7.24,13.58-12.6,20-19.25,5.76-6,15.34-6.58,20.4-13.59,2.2-3,8.55-.86,10.67-5.27,13.86.65,23.22-11.87,37.2-10.87,4.18-8.05,15.09-1.63,20.09-8.05,2.58-3.33,6.47-1.23,9.75-1.66,8.17-1.07,17.52,2.9,24.11-4.91h28.92c8.77,0,17.54.27,26.29-.1,4.91-.2,7.5-6.17,13.64-4.93,4.19.85,8.75.38,13.11.11a14.4,14.4,0,0,1,11.5,4c2.67,2.41,6.34,1.12,8.81-1.7,3.38-3.86,8.07-1.61,12.15-2.22,6.76,7,15.8,4.55,24.12,4.83,6.12.21,12.27,0,18.4,0,4.74,6.79,12.16,4.7,18.86,4.85,6.12.14,12.24.09,18.36.12,6.53,8.23,16.16,5,24.13,4.36,7.7-.61,11.5,6.15,18.92,5.56,6.41-.51,13.49-2.43,19.5,3.56,2.12,2.1,8.44.07,12.42,1.19,7.1,2,13.5,5.17,21.55,5.11,6.17,0,11.33,7,18.85,4.48,3.93,5.71,10.49,3.92,16.07,5.34,5.3,1.35,9.6,5.78,14.7,8.18,5.76,2.72,12.43,4,17.76,7.2,5,3,8.75,7.9,13.18,11.82s8.43,9.83,13.47,10.69a48.51,48.51,0,0,1,16.11,5.47c9.53-2.06,13.67,5,19.37,9.64,4.06,3.27,4,8.52,2.27,11-4,5.76-6,12.56-11.62,17.66s-12.89,6.77-19.12,10.43c-8.2-2.3-13.25,7-21.52,5-1.24-.31-3.27.71-4.4,1.66-5,4.22-9,10.14-17.54,8.1-1.12-.27-2.88,1.28-4.17,2.2-3.33,2.4-6.26,5.45-9.9,7.3-9.26,4.68-19.2,8.11-28.26,13.26-5.54,3.14-14-.45-18.19,6.32-6.76.05-11.12,8.06-18.86,4.87a38.06,38.06,0,0,1-13,6.2c-2.27.67-4.09,3.09-6.32,3.38-4.3.55-8.84-.37-13.09.34-3.09.51-4.17,4.37-8.34,4.89-10.34,1.28-10.31,1.68-10.39,8.68,0,4.06-1.25,8.58.28,12.07,2.44,5.55-10.53,10.39-.31,15.56-10.36,8.57-4,19.73-4.89,29.65-.42,4.42-3.74,6.47-5,9.9,4.67,2.87,3.57,5,.36,8.87-2.15,2.6-.49,7.73-1,11.67-1,7.59,3.54,16.27-4.91,22.45-.1,4.84.33,9.74-.42,14.49-1,6.07,3,12.56-3.13,18.34-4.6,4.34-1.13,10.75-2,16.17-8.4,5.14-4.36,13.09-5.2,19.91-1,8.4,3,17.7-5.29,24.77q.34,7.17.67,14.35c6.6,3.79,4.47,9.9,4.54,15.29.16,13.8,1,27.67-.29,41.37-.83,8.68,4.08,14.91,7.25,21.72,3.08,6.64,12.24,7.34,18.54,10.92,2.61,1.47,8.19-.23,9.59,1.49,3.5,4.31,9.53,2.68,13.23,6.49,3.14,3.24,9.66,2.38,12.6,6.81,6.3-.94,11.18,1.31,16.46,4.53,3.06,1.87,8.55.56,12.91.28,4.7-.31,7.39-8.15,13.12-3.85,6.52,4.88,15.19,6.79,20.4,13.55,2,2.58,1.43,3.53-.44,5.33a7.38,7.38,0,0,0-2.28,3.94c-1,7.33-9,9.39-12.65,14.65-8.19-1.93-13.78,5.74-21.24,5.21-6.54-.47-13.91,3.2-19.67-3-4.14-4.43-12.52,1.44-16-5.21-13.38-1.43-24.48-8.16-35.76-14-4.35-2.27-8.22-1.42-12.32-1.93s-9.74.55-12.29-1.56c-4.54-3.77-11.65-2.77-15-8.25-2.17-3.59-7.49-3.65-10.39-5.65-4.25-2.94-4.09-9.92-9.61-13.09-5.72-3.28-4.42-9.22-3.09-13.16,2.77-8.25-6.35-12.66-5.76-20,.51-6.37-.22-12.82-.55-19.23,0-.6-1.09-1.46-1.81-1.61-.47-.1-1.55.75-1.76,1.35a26.55,26.55,0,0,0-1,4.5c-1.18,6.79,2.7,14.29-4.43,20.37-1.81,1.55-.61,6.1-.84,9.27-.4,5.52,1.2,12.41-1.78,16.21-3.65,4.65-3.05,8.83-3.48,13.43-7.26,4.4-5.11,11.26-5.22,17.46-.08,4.87-7.06,6.82-5.49,12.64,1,3.82.64,8.13,0,12.11-.32,2-3.46,3.75-3.72,5.78-.9,6.91-9.32,11.57-6.61,19.43-5.91,4.75-5.46,11.11-5.29,17.46.15,5.54-7.43,8.52-5.42,15.08,1.47,4.78-7.33,6.88-5.16,12.51-5.29,2.95-5.68,7.62-5.17,12.62A12.09,12.09,0,0,1,412,696.64c-1.85,1.82-1.31,6-1.25,9.08,0,1.31,1.59,2.59,2.45,3.88.62-.55,1.23-1.11,1.86-1.65,3.18-2.69,6-6.14,9.66-7.83,3.54-1.61,8.73,1.43,12-2.51s7.94-1.94,12-2.65,5.76-6,11-4.84c4.83,1.08,8.21-1.26,11.15-4.51.39-.43,1.62-.17,2.44-.33,11.44-2.26,24.46,5.12,34.64-4.87,11.39,0,22.83-.56,34.16.2,7.39.5,15.12-3,22.37,3,5.4,4.49,13.43.6,20.16,1.72a7.54,7.54,0,0,1,4.28,2c4.28,5.19,10.81,7.11,16.33,10.51,5.72,3.53,10.12,8.92,15,13.55,4.7,4.43,9.17,13.82,11.33,22.45.53,2.12,2.63,3.86,3.47,6s2.19,5.33,1.21,6.38c-2.93,3.13-4.89,5.91-5,10.43-.14,7,2.66,14.53-2.29,20.94-5.11,6.62-1,14.12-3,20.82-1.27,4.24-6.44,7.23-5.06,12.66,1.31,5.18-7.27,7-5.22,12.58-6.57,7-9.2,16-14.27,23.8s-9.3,15.92-14.57,23.7c-5.55,8.19-12.18,15-19.18,21.74-3,2.93-6.38,5.6-9.17,8.71-.9,1-1,3.17-.51,4.53s2.12,3,3.27,3c20.15.18,40.31.13,60.47.13,10.52-7.91,23-3.86,34.64-4.89,1.64-.14,4.14,0,4.76-.87,6.19-8.71,19.5,1,25.21-8.52,12-1,15.65-11.78,23.74-17.36.87-.59.47-3.1.24-4.66-1.1-7.33,9.08-12,5.45-19.85,6.5-3.64,5.09-9.59,5.1-15.09,0-21.91,0-43.83,0-65.74,0-8.87.29-17.74.45-26.61,8.14-6.31,3.59-14.93,4.78-22.51,7.82-7.15,4.76-16.29,5.26-24.77,8.53-7.94,4.38-18,5.24-27.2.43-4.7,6.52-10.2,11.93-10.28q11.82-.16,23.66,0c3.37,0,8.39-.61,9.79,1.09,3.52,4.27,9.87,2.47,13.09,6.61,2,2.51,5.69,4.2,4.6,8-1.61,5.54,4,8.32,5.18,12.64,1,3.66-1.27,8.1,3.16,11,3.73,2.43.06,3.6-1.12,5.14a16.06,16.06,0,0,1-1.84,1.74c1.34.83,2.6,2.11,4.06,2.36s3.25-.37,4.78-.89a2.61,2.61,0,0,0,1.55-1.76c.13-4.87.88-9.9-.14-14.57-1.25-5.75,6.47-7.44,5.47-12.64-.87-4.55,1.89-9.52-2.34-13.76-1.55-1.55-2.34-4-2.85-6.15-1-4.49,1.69-9.38-2.72-13.63-4-3.83-3.61-10.58-9.43-13.35-5.3-2.52-2.42-8.91-7.27-12-3.22-2-7.37-4.41-7.08-9.38.07-1.26-1.3-2.8-2.4-3.87-4.24-4.1-8.88-7.87-12.91-12.14-4.36-4.61-11.89-7.32-11.22-15.15-4.34-4-8.9-7.85-12.94-12.11-2.75-2.9-6.37-4.83-8-9.09-2.16-5.63-6-15.41-4.87-17.51,2-3.78,17.86-12,23.52-12.06,7.89-.08,15.78-.05,23.67,0,8.77,0,10.08.8,21.08,11.53,1.1,1.08,2.18,2.72,3.51,3,10.49,1.89,18,11.46,29.8,9.85,4.94,6.1,12.12,4.82,18.86,4.85,11.39.07,23.06-1.38,34.1.44,9.66,1.59,15.1-6.87,24.24-5.52,7.69,1.13,15.73.25,23.61.13.63,0,1.88-1.32,1.75-1.6-.52-1.15-1.3-2.84-2.29-3.05-5.73-1.22-12.49,2.47-17.37-2.25-5.27-5.1-12.25-.55-17.06-3-6.18-3.19-12-5.44-19-4.61-6.17.73-9.23-7.14-16.3-5.06-1.69.5-4.48-1.5-6.47-2.76-4.08-2.56-9.22-2.75-13.08-6.48-2.38-2.31-8.81,1.82-11.92-2.15-3.3-4.2-9.62-2.29-13.12-6.59-1.4-1.72-6.37-1-9.73-1.26s-6.75.61-9.5-2.37c-6.16-6.66-14.34-10.24-23.41-12.26-3.69-5.9-12.17-4.56-16.78-10-3.37-3.95-9.08-6.78-14.36-8.58-4.94-1.68-10-1.93-9-8.57.07-.48-1.18-1.66-1.77-1.63-8.31.41-10.68-8.79-16.58-9.81-13.38-2.32-13.1-10.52-12.8-19.56.05-1.62-.42-3.38.11-4.84.76-2.12,2.26-4,3.34-6,2.62-4.88,9.58-2.85,12.71-6.88,2.55-3.27,6.31-2,9.59-2,7.88-.16,15.8.33,23.66-.16,7.37-.47,16,3.13,21.52-4.7l21-.06c5.5-10.08,18.48-.35,25.45-8.28,1.89-2.15,8.25-2,12.22-1.28,10,1.77,18.31-2.26,26.23-6.2,3.85-1.91,7-3.52,11.51-3.91,5.44-.49,11.88,3.29,16.29-2.65-4.42-4-9.9-1.48-14.87-2-6.64-.64-14.15,2-18.86-4.93H818.25c-7,0-14.18.84-21-.23-7.61-1.2-12.65,3.49-19,4.85-5.8,1.25-12.13.43-18.22.52-4.76,7.08-12.43,4.54-19,4.44-8.67-.12-14.92,7.16-23.73,5.89-2.75,3.86-6.93,4.93-11.33,3.91-6.76-1.57-10.77,4.14-16.29,4.72-5.31.56-10,.58-13.77,5-1.1,1.28-4.74-.47-7,1.84-5.25,5.41-11,10.43-16.37,15.7-.44.43-.23,1.61,0,2.38,1.37,5.49-1.63,9.06-5.78,12.44-3.94,3.21-7.24,7.13-11.33,10.14-1.62,1.2-6.08,1.79-6.75.94-3.75-4.68-8.77-4.28-14-4.42-4.21-.11-5.79-6.09-11-4.77-9.55-6.22-11.18-8.07-6.75-19.37,2.5-6.38,8.83-11.18,8.4-18.78-.11-2,1.43-4.47,3-6,5.36-5.35,11.36-10.17,16.56-15.64,4.09-4.3,11.58-3,14.73-8.35,8.94,1.07,15.78-3.7,23.14-7.06,2.18-1,4.68-2.86,6.65-2.51,11.46,2.05,20.42-8.82,32-5,5.9-8.33,17.12-1.56,23.26-6.5,7.34-5.9,15-2.21,22.37-3.06,5.22-.6,7.29-6.43,13.62-5.28,5.91,1.08,12.23.23,18.36.23,5.26,0,10.63.63,15.75-.16,5.55-.86,9.46-6,16.3-4.91,6,1,12.23.2,18.36.2s12.54,1,18.35-.25c7.85-1.72,11.27,6.69,19,5.37,6.78-1.17,14-.25,21-.25s14,.32,21-.09c6.29-.37,9.2,7.24,16.28,5.09,5.42-1.65,7.43,6.05,13.6,4.93,5.06-.91,10.47-.19,15.73-.19,6.14,0,12.28-.12,18.41,0,5.87.16,9.19,5.82,16.26,5.17,13-1.18,26.26-.34,39.41-.34,5.26,0,10.64-.61,15.73.24,2.92.49,4.2,4.32,8.35,4.86,6.38.82,9.18,6.81,13.64,10.45,2.92,2.38,2.67,2.82-.29,8.25-1.09,2-2.62,4-3.15,6.09-3,12.19-6.52,15.12-21.6,18.9-5.46,1.37-9.59,6.52-16.27,4.85-2.42-.61-6.51.38-7.35-.83-6.23-9-19.57,1-25.31-8.47-10.28,10.79-27.45-2.44-37.56,9.19-.34.39-1.7,0-2.56.06-5.72.69-11.48-1.27-17.16,3.15-3.2,2.49-10.33.14-14.71,2-6.2,2.59-11.73,5.46-19,4.76-6.64-.63-11.12,7.86-18.84,4.71-5.08,5.64-12,4.8-18.86,4.93s-13.64.78-20.47,1.21c-4.44,5.83-11.07,2.93-16.79,3.58s-9.22,6.49-16.29,5.18C805.43,451,799.74,449.86,795.13,453.35ZM360.68,281.06c4.8-4.44,9-8.63,13.52-12.41,3.66-3,6.38-6.5,12.43-7.68,5-1,9.06-7.14,13.13-11.34,3.52-3.65,10.16-1.93,12.75-6.82,7,.24,10.05-5.15,14.59-8.54,3.8-2.85,9.91-2.16,12.7-6.78,5.28,1.19,7.55-2.76,10.79-5.26,5.57-4.29,25.1-12.23,33-14.32,3.84-1,7.26-4.27,11-4.5,5.43-.33,10.25-.61,13.56-5.14,7.14,1.24,10.88-7.57,18.88-5,9.57,3.06,12.23-7.34,19.24-9.57a5.75,5.75,0,0,1,2.61,0c7.16,1.23,13.24-1,18.83-4.89,7.83,3.53,11.68-6.15,18.83-4.87,3.73-8.68,14.33-2.15,20.26-8.08,4-4,12.34-4,17.36-7.43,6.14-4.24,12.82-8.21,19.79-8.41,8.75-.26,11.23-6.7,16.67-10.12a3.48,3.48,0,0,1,2.58,0c6.88,2.48,10.49-4,16.17-5.12,5.16-1.05,6.37-5.45,3.27-8.44-3.64-3.51-8.12-6.46-11-10.42-6.49-9-19-10.36-26-18.7-3.18-3.78-10.17,1.18-14.1-3.52-4.47-5.34-13.71.19-18.24-6.71-1-1.53-6.7-1.28-9.88-.54-6.18,1.42-8.6-4.79-13.63-5-6.11-.23-12.25,0-18.38-.12-.66,0-1.45-.82-1.94-1.42-4.61-5.57-11.19-2.55-16.88-3.41s-9.29-6.34-16.26-5.08c-5.84,1-12.12,0-18.2-.06-7.61-8.25-17.82-3.54-26.86-4.47-6.86-.71-13.83-.47-20.75-.65C465.61,59.35,458,62.29,451.45,62c-7.86-.36-15.75-.08-23.63-.08H404.18c-8.75,0-17.63.85-26.22-.25-8.33-1.07-14.26,4-21.52,5-5.13.72-10.79,1.16-15.66-.11-7.23-1.87-9.8,6.77-16.27,5.09-9.33-2.43-15.51,4.58-23.36,6.55-2.29.58-4.45,3.24-6.4,3-6-.73-10.05,1.4-13.41,5.51-2.82,3.44-6.34,4.9-11.16,4.6a9.92,9.92,0,0,0-6.68,2.36c-8.24,8-20.73,10.88-27.79,20.44-3.39,4.61-6.12,15.83-2.18,19.71,4.69,4.61,7.86,9.79,11.3,15.14s9.81,9.16,14.46,14c5.06,5.27,12.36,8.82,14.63,16.26,2,6.66,9,9.41,13.37,14.29,3.31,3.74,8.06,6.51,10.86,10.5,3,4.21,3.61,10,11,10.09.53,0,1.13,2.63,1.53,4.08,1.91,6.92,11.36,9.29,11.82,17.48.13,2.41,4.87,4.4,7,7,2.54,3,7.26,4.36,7.6,9.25.52,7.43,12.14,9.06,11.22,17.64-.11,1,2.29,2.28,3.53,3.42ZM345.83,715.6c2.93-1.62,6.51-2.54,6.71-3.89,1.5-9.93,12.65-16.57,10.77-27.52,6.09-9.21,12.55-18.27,10.68-30-.16-1,2.31-2.25,3.05-3.61,2.56-4.68,5.35-9.31,7.17-14.24,1.61-4.37-2.33-10,2.21-13.69,5.75-4.73,2.15-10.58,3.18-15.84.15-.76,0-2,.46-2.2,8.56-3.8,2.23-13.24,8.82-18.8,5-4.23-2.59-14.36,5.95-19.33.18-4.79-1.34-10.5,1-14.14,3.14-5,6.36-9.52,4.7-15.18-1.7-5.82,5.57-7.69,5.43-12.6-.13-4,.83-8.3-.23-12.1-1.62-5.85,5.34-7.59,5.66-12.59.4-6.21-3-13,2-18.6,5.78-6.44,1.84-13.84,3.09-20.7.14-.75.08-1.89.56-2.17,6.54-3.81,5.8-10.18,4.37-15.18-2.13-7.44,5.43-11.29,5.57-17.5.09-4-.66-8.23.22-12.11.81-3.56,3.92-6.65,4.88-10.21s-.75-7.71,3.3-11c4.59-3.7,1.21-9.12,2.11-13.69.16-.78-.34-2.07.08-2.36,4.64-3.22,6.66-7.68,5.05-12.59-2.14-6.52,5.24-9.58,5.39-15,.17-6.24-1.2-12.84,5.28-17.42.22-7-1.75-14.43,5.26-19.85-3.56-7.82,6.9-12.27,5.43-19.88-1.05-5.44,7.74-8.58,5.12-15-2.55-6.21,4.14-9.79,5.21-15,.16-.78.38-2-.05-2.34a13.5,13.5,0,0,0-3.44-1.57c-2.69,4.89-9.61,2.65-12.9,6.75-3.69,4.59-8.07,8.39-15.28,7-1.28-.25-3.11.85-4.39,1.7-6.12,4.07-10,10.07-17.66,13.29-7.44,3.15-13.07,10.23-19.06,16-2.7,2.57-5.94,2.44-9,3.5-7.22,2.49-6,11.27-11.33,14.83-8.82,6-7,13.77-6.33,21.64,6.82,3.37,2.32,11.21,5.88,14.58,5.3,5,4.12,10.23,4.06,15.58-.06,5.7,7.73,8.51,5.51,15-1.68,5,6.61,6.8,5.33,12.56-1,4.66-.21,9.67-.21,14.53,0,15.39.12,30.78-.07,46.17-.05,4.67.88,10.83-1.84,13.66-4.35,4.52-3,8.93-3.28,13.48-.3,4.85,0,9.72-.14,14.58,0,.59-1,1.31-1.71,1.73-4.59,2.69-2.75,7.06-3.67,10.79-.87,3.56-5.22,7.08-4.69,10.12,1.34,7.74-9.18,12.08-5.63,19.9-7.07,5.41-4.67,12.93-5.47,19.83-.23,2-4.6,4-4.29,5.43,1.34,6.35-8.06,8.61-6,14.86-6.07,3.66-5.58,9.35-5.36,14.95-8.63,3.17-2.62,11.85-7.35,16.64-6,6.12-.73,14.2-3.38,20.56-2.87,6.91-8.05,13-10.14,20.39-.44,1.51-.07,3.22-.07,4.84,0,5.67-.13,11.34,0,17,.15,4.89.23,9.47-4.78,12.92-.88.6-.24,5.15,1.15,6.16,4.23,3.07,3.34,7,3.74,10.89C342.61,711.43,344.39,713.17,345.83,715.6Zm418.46,417.74c4.54,0,8.92-.23,13.26.05,6.19.41,9.09-6.71,16.22-5.18,5.8,1.25,13,1.91,18.06-.19,5.43-2.24,10-5.24,16.39-4.59,1.15.12,2.4-2.16,3.87-2.85,2.88-1.34,6.83-1.62,8.73-3.63,3.51-3.73,7.68-2.65,11.81-3.25,2.23-.32,4.31-2.09,6.25-3.47,2.69-1.91,4.88-4.6,7.82-6,5-2.38,11-3.19,15.5-6.15,5.6-3.72,10.09-8.9,14.92-13.56.84-.82,1-2.24,1.47-3.39-1.54-.46-3.1-1.35-4.62-1.29-3.27.14-6.74-1.08-9.69,1.84-1.53,1.52-4.18,2.41-6.49,2.85-3.21.62-7-.89-9.43,2.38-3.68,5-10.77.19-14,3.58-4.24,4.49-9.21,4.52-14.09,3.69-6.11-1-8.73,4.51-13.58,5-5.19.47-10.64.87-15.67-.08-6.83-1.29-10.68,3.89-16.21,5-8,1.59-17.62-3.57-24,4.94-7,0-14,.43-21-.12-7.13-.57-11.18,6.51-18.83,5.23-6.76-1.14-14-.69-20.89-.12-6.71.56-14.45-3.06-20,1.87-6.18,5.51-13.34,1.1-19.59,3.27-.74.25-1.25,1.1-1.87,1.67,1.06.93,2.06,2.62,3.18,2.69,6.88.43,13.79.49,20.69.68,4.91,6.86,12.48,3.95,19,4.22,8.72.36,17.46,0,26.19.12,2.51,0,6.26-.44,7.33.83C750.6,1135.82,758,1132.53,764.29,1133.34Zm-103.08-13.91-3.39,1.73c.58.54,1.29,1.61,1.73,1.53a17.62,17.62,0,0,0,3.53-1.53Z"/><path d="M746.46,508.23,744.59,510a14.51,14.51,0,0,1-1.64-3.27c-.1-.4,1.06-1.06,1.64-1.6Z"/></svg>