<svg id="Layer_1" data-name="Layer 1" xmlns="http://www.w3.org/2000/svg" viewBox="0 0 1200 1200"><title>BB_Artboard 18</title><path d="M210.67,795.79c0,8.42.86,17.11-.29,25.51-.85,6.2,5.75,8.06,5.49,13.36-.21,4.26-1.58,9.62.4,12.61,7.11,10.75,10.78,23.34,18.23,33.62,3.4,4.69,5.93,9.63,9,14.34,3.22,4.92,7.92,9.09,12.6,12.79,5.73,4.52,13.21,6.54,18,12.7.95,1.22,5,1.44,6.66.44,4.25-2.61-1-3.46-1.57-5.26a8.71,8.71,0,0,0-1.28-1.76c8.74-7.49,3.81-17.5,4.81-26.36S280,869.09,288,861.59c0-5.15.56-10.37-.12-15.43-1.41-10.56,3.11-19.16,8.37-27.47,1.17-1.85,2.22-2.44.64-3.76-1.32-1.09-2.45-2.4-3.91-3.86,4.89-4.78,9.75-9.58,14.68-14.31,4.73-4.54,12.83-4.06,16.16-10.89.64-1.3,2.93-3.1,3.79-2.79,8.34,3,13.34-5.49,21.09-5.66,9.1-.19,16.69.87,22.37,8.61a25.79,25.79,0,0,0,5.45,5.44c3.91,2.88,4.69,6.7,4.25,11.17-.5,5,.91,11.27-1.63,14.64A38.31,38.31,0,0,1,364,829.84c-7.07,3.15-15.16,6-20.51,13.06-2.78,3.68-4.67,6.88-4,11.29.89,5.53-6.6,7.3-5.39,13.37,1,5,.2,10.26.2,15.41,0,15.45-.1,30.9.07,46.35.05,4.08-.54,9.8,1.77,11.89,4.14,3.74,1.8,10.07,6.92,12.85,6.28,3.4,5.7,11.7,10.86,16.12,1,.83,1.49,3.59.85,4.58-2.62,4.08-3.81,9.39-6.66,12.52s-8.2,4.63-12.49,6.55c-3.58,1.59-8.46.06-12.72.39a12.27,12.27,0,0,1-11.13-4.42c-4.54-5.13-9.83-9.6-14.44-14.68a35.32,35.32,0,0,1-9.21-19.28c-.58-4.53-.22-8.31-6.49-8.13-9.44.27-19.12-1.22-28.26.46-7.91,1.46-11.95-5.25-18.53-5.67-1.36-.09-3-1.56-3.87-2.85-3.43-5.25-10-5.74-14.12-9.29-10.34-9-19.63-19.19-29.34-28.9-.6-.6-1.53-1.11-1.75-1.84a16.67,16.67,0,0,1-.83-4.79c-.06-3.36.43-6.77-2.87-9.15-6-4.31-9.6-9.92-7.38-17.46,1.81-6.14-5.47-8.08-5.31-13.34.15-5.06-7.21-7.34-5.12-13.33,2-5.8-5.07-7.84-5.52-13.27-.36-4.34-5.4-7.82-5.8-12.92-7.75-5.93-2.57-14.35-4.11-21.47l8.62-17c2-1.42,3.89-3.9,6-4.06a156.87,156.87,0,0,1,20.57-.06,11.1,11.1,0,0,1,6.41,3C197.28,782.18,203.85,789,210.67,795.79Z"/><path d="M102.47,268c0,6.17-.13,10.46,0,14.74.24,6.54-2.16,13.85,5.12,18.45q0,10.29,0,20.57V360.3c0,6.86-.58,13.79.23,20.55.44,3.73,3.93,7,4.72,10.79.87,4.11-.16,8.57.28,12.81.9,8.77-3.53,15.7-7.63,22.59-3.7,6.23-11.13,8.19-17.2,3.37-4-3.21-9.3-2.43-12.89-6.77-4.9-5.92-11.3-10.83-8.65-19.6,3-9.83-7.58-16.17-5.61-26.26,1.78-9.08.7-18.8.17-28.2-.15-2.7-3.65-5.17-3.95-7.92-.19-1.77,3.89-3.83,4-5.84.4-12,.2-24,.2-36-9.23-17.44-3.57-36.28-5.18-54.44-.21-2.43,0-6.26-1.29-7-7-3.87-1.54-11.38-5.27-16-1.49-1.85-3.33-4-3.55-6.17a113.17,113.17,0,0,1-.13-15.41c.16-5.24-7.41-7.28-5.22-13.31,2.4-6.56-7.45-8.79-5.41-15.94,1.29-4.49,1.76-10.35-3.87-13.64-.07-10.89-.17-21.79-.14-32.69,0-.6,1.37-1.83,1.72-1.7,6,2.18,8.05-5,13.31-5.47,9.74-1,17.45,3.36,25.1,7.92,3.57,2.13,6.9,5.55,5.32,10.52-2.35,7.42,3.48,12.32,5.09,18.49,1.42,5.42-2.38,12.12,4.15,16.33A2.91,2.91,0,0,1,87,173.37c.09,6-1.13,12.32.39,17.91,1.43,5.3,6.85,9.78,4.68,15.92-2.47,7,6.31,9.53,5.42,15.93-.69,5.05-.14,10.27-.14,15.41C106.85,247.69,100.48,259.45,102.47,268Z"/><path d="M102.65,679.57V666.79c6.54-3.62,4.47-10.2,5.44-15.74,7.76-3.65,2-12.9,7.26-17.56s-.45-13.8,7.17-17.73c.79-.41,1-3.34.46-4.74-3-8.29,5.3-13.61,5.25-21,5.91-3.9,5.49-9.89,5.24-15.83,6.31-3.82,4.88-10.06,5.12-15.89.29-7.31,6.49-12.7,5.58-21.06-.73-6.72,6.3-12.89,5.6-20.57,4.07-2.69,4.41-6.66,4.29-11.11-.24-8.56.87-17.27-.33-25.67-1.27-8.92,9-14.59,5.41-23.61,3.52-3.68,6.82-7.61,10.65-10.94,1.66-1.45,5.46-3,6.48-2.24,9.58,7.49,22.59,9.18,30.84,19.1,4.09,4.91,5.33,8.41,0,12.53-1.85,1.43-1.68,2.21.4,3.72,5.12,3.71,4.76,10.49,2.26,13.53-3.72,4.52-5.13,8.87-4.09,13.81,1.69,8.09-1.71,15.47-5.79,20.66-4.66,5.92-2.53,13.22-6.31,18-3.63,4.59-2.85,11.53-8.67,14.52,3.39,9.72-8.63,16.34-5.2,26.17,1.73,5-5.5,7.6-4.72,10.6,2.24,8.52-7.67,13.62-5.31,21,2.53,7.93-5.55,11.79-5.45,18.51,0,2.39.07,6.18-1.29,7-10,5.9-9.44,15.33-8.86,24.73.22,3.74-2.36,6-3.34,8.91-2.32,6.75-8.56,12.09-7.29,20.29.27,1.73-2.16,4.52-4,5.82-4.49,3.11-9.41,5.63-14.15,8.39-3.59-6.62-11.12-2.81-15.53-5.76-3.65-2.45-3.59-8.48-6.86-12.51-2.1-2.57-.39-8.25-.39-12.53Z"/><path d="M174.6,989c0-4.73.34-7.35-.06-9.85-1.7-10.45,7.33-14.28,12.4-20.55,6.47-.08,12.67-1.73,19.22,2.19,5.62,3.38,11.21,6.31,16,11,3.44,3.4,3,7.37,4.31,11.15,2.37,6.93,6.09,13.3,4.94,21.08a6.2,6.2,0,0,0,1.49,4.42c4.37,4.93,9.72,8.65,9.1,17-.39,5.12,5.9,9.17,5.1,15.84-.53,4.38,6.05,7.3,5,13.25-.65,3.79-1.71,8.4,2.33,11.75,4.76,4,1.11,9.77,2.75,14.24,3.92,10.7,8.52,21.07,19.39,27,5.29,2.9,11.07,13,11.35,18.76.17,3.42.18,6.66-4.8,7.09a10.53,10.53,0,0,0-6.2,3.32c-4.14,4.61-8.46,7-15.18,7.16-9.34.29-16.07-2.37-21.92-9.59-4.81-6-11.66-10.37-15.91-16.62-3.63-5.33-5.71-11.68-11.09-15.91-1.12-.88-2.35-3-2-4.13,2.11-6.71-5-10.36-5.09-15.87s-.95-9.77-5.24-13.4c-.84-.71-.31-3.3-.09-5,.81-6.14-.18-11.62-5.18-15.83,1.59-6.35-7.84-8.92-5.27-15.86,1.38-3.72-1.69-6.19-4.24-8.41-3.94-3.43-5.23-7.54-6.46-12.81C177.4,1002.66,172.41,995.56,174.6,989Z"/><path d="M221,171.93c0-4.28.53-8.64-.12-12.81-1.11-7.19,3.7-15.45-3.72-21.52-.43-6.66-.76-13.33-1.4-20a7.46,7.46,0,0,0-2.21-4.16c-4.86-4.77-10.4-9.13-8-17.24-5.79-5-5.62-11.71-5.08-18.38.34-4.16-3.43-5.52-4.71-8.36a7.53,7.53,0,0,1,1.16-6.69,12.21,12.21,0,0,0,3.65-8.9c.11-4-2.54-9.28,1.73-11.87,3.31-2,7.13-3.24,10.66-5.26a11.07,11.07,0,0,1,13.78,2C230,42.19,232.41,47,239,46.53c2.22-.18,7,4.57,6.82,6.8-.44,6,6.09,8.08,5.94,13.08-.13,4.23,4.21,5.26,4.88,8.18.32,1.38-2.83,3.56-4.41,5.37,6.59,3.59,2.35,12.15,5.79,15.3,5.49,5,2,11.68,5.28,15.94,2.81,3.62,4.13,6.79,4.11,11.25-.14,32.49-.05,65-.11,97.49,0,5.27-5.83,11.45-10.79,11.63-4.27.16-8.58-.26-12.82.12a8.84,8.84,0,0,1-8.61-4c-2.84-4-9.8-5.93-8.69-11.62,1.46-7.55-6.3-11.32-5.62-18.47C221.58,189.09,221,180.48,221,171.93Z"/><path d="M491.47,1164.18c-3.75-3.75-7.41-7.32-11-11-4.11-4.24-10.55-8.08-11.55-13-1.05-5.22-5.35-7.84-6.27-13s-4.89-9.61-5.16-15.85c-.19-4.15-5.24-7.56-5-13.27.13-3.48-4-7-4.6-10.68-.89-5.88-6.17-7.7-8.85-11.77a11.5,11.5,0,0,1-1.62-4.42c-.88-5.55,1.29-11.17-3.4-16.7-2.63-3.1-1.68-9.52-1.74-14.45-.17-13.88.44-13.14,14.18-22.06,5.82-3.78,11.1-2.44,16.67-3.22,4.31-.61,5.57,3.36,7.94,5.49,4.43,4,8.09,8.94,12.84,12.46,5.74,4.27,4.78,12.2,10.14,16.38-3.15,7.49,2.31,13.38,5.59,18,5.35,7.59,3.21,17.63,9.86,24.21-1.81,8.09,5.24,13.23,6.84,20.24.49,2.13,4.3,3,3.47,6.21-1.8,7,3,10.66,7.1,15,5.22,5.55,4.36,16.86-.84,22.57s-10.57,10.53-19.45,8.95C501.68,1163.46,496.45,1164.18,491.47,1164.18Z"/><path d="M881.13,994.57c-1.33,7.07,1.1,11.71-3.11,14.88-2.56,1.93-3.74,5.64-8,5.4-5-.29-7.2,5.8-13.24,5.47-6.32-.36-9-7.76-15.51-6.15-7.47-5.32-15.24-16.95-17.2-28.65-1.08-6.45-8.83-10.7-5.41-18.31,3-6.75-6.38-9.55-5.13-15.78,1.45-7.24-5-11.51-6.83-17.69-1.46-5-9.2-6.93-8.8-14.3.32-5.94-.37-11.71,5.2-15.93.83-.62-.13-3.31.18-5a26.58,26.58,0,0,1,2-6.83c3.21-6.58,12.53-4.41,15.93-10.86,6.82,0,14.57-2.07,20.18.52a28.3,28.3,0,0,1,13.51,14.29c2.47,5.78,4.85,11.72,8.51,17,.47.68,1.56,1.25,1.57,1.88.13,5.12.94,10.43-.14,15.31-1.37,6.16,5.29,8,5.58,13.26.34,6.53-3.29,14,2,19.48s1.33,11.43,3.09,16.74C877.48,985.35,883.45,990.25,881.13,994.57Z"/><path d="M437.37,375.4c0-9.42,1.08-19-.33-28.2-1.18-7.66,3-12.71,5.68-18.38,3.21-6.69,8.2-12.23,15.75-14.86,2.81-1,5.18-3.79,7.93-4.09,1.77-.2,3.68,3.54,5.85,4,10.13,2.23,13.6,12.21,21.06,17.45q-.15,8.61-.31,17.24c-7.66,4.29-.48,15.51-9.06,19.37-.07,6,.72,12.1-.4,17.86-1.72,8.91,7.9,14.24,5.74,23.68-1.86,8.14-.39,17-.39,25.6,6.83,3.72,2.32,7,.33,11.3-1.61,3.54-.08,8.43-.4,12.69-.27,3.52-6.9,9.43-10.34,9.5-5.13.12-10.28.12-15.41,0-3.5-.08-10.52-5.7-9.91-9.62,1-6.75-3.82-10.6-5.58-15.86-1.24-3.73-3.91-7-4.88-10.79-.84-3.21-.15-6.81-.18-10.23-.06-5.06-6.54-7.18-5.38-13.32,1.09-5.79.23-11.95.23-17.94Z"/><path d="M349.78,351.29a94.85,94.85,0,0,1-.09,10.26c-.29,2.68-1.88,4.24-5.11,4.09-6-.27-13.08,1.91-17.66-.64s-8.24-5-13.59-4.7a6.55,6.55,0,0,1-4.22-2c-9.76-9.6-19.5-19.22-29-29.09-1.5-1.56-2.66-4.56-2.29-6.59,1.15-6.34-3.28-9.29-6.93-12.59-2.78-2.51-4.26-5.13-3.56-8.84a8.1,8.1,0,0,0-3.6-8.78c-10.55-7.37-8-18.56-5.72-27.7,2.82-11.2,18.31-15.61,29.47-10.38,13.3,6.24,13.41,6.5,21.51,21.44,2.68,4.92,5.36,10.12,9.19,14.06,3.65,3.75,4.77,8.41,7.26,12.46,6.77,11,10.09,24.3,21.47,32.32,1.64,1.17,2.44,4.17,2.74,6.43C350.12,344.4,349.78,347.86,349.78,351.29Z"/><path d="M656.43,46.12c4.27,0,8.55-.16,12.81.08A7.36,7.36,0,0,1,673.56,48c5,4.7,9.77,9.55,14.53,14.46,2.57,2.65,2.44,11.12-.13,13.85-2.34,2.49-4.78,4.88-7.24,7.26-4.87,4.71-9,11.24-14.87,13.56s-13.52-.06-20.27.69c-6.53.72-9.08-7.46-15.62-6.1-.35.07-1.75-2.64-1.86-4.12-.32-4.1-.26-7.66-3.2-11.62-4.2-5.67-2.75-11,1.61-15.47,1.19-1.22,2.41-2.42,3.62-3.63,3.64-3.58,6.71-8.57,11.08-10.36S651.3,46.12,656.43,46.12Z"/></svg>