<svg id="Layer_1" data-name="Layer 1" xmlns="http://www.w3.org/2000/svg" viewBox="0 0 1200 1200"><title>BB_Artboard 90</title><path d="M347.1,236c3.14-8.87.87-16.62,1.66-24.17.4-3.74,7.94-10.78,11.8-10.79,21.38-.06,42.76-.16,64.14.16,2.35,0,4.52,3,7,4,6.92,2.67,14.28,3.3,21.36-1.2,4.68-3,8.85-2.89,13.44-2.9,36.93-.09,73.86.35,110.78-.27,12.88-.21,26.89,4.78,38.41-5.61,15.55,0,31.1-.22,46.65.11,5.93.13,7.95-4.6,11.5-7.49a2.28,2.28,0,0,0,.71-2c-.39-.83-1.28-2-2-2-9.69-.2-19.48.6-29.05-.5-11.88-1.36-25.25,5.88-35.51-5.62-13.61,0-27.21.14-40.82-.06-8.31-.12-17.36,2.21-23.82-5.77-4.52.77-9.86-2.12-13.48,2.59s-10.41,4.94-12.95,2.86c-9.36-7.65-19.8-5.31-30-5.38-29.15-.21-58.31-.35-87.46.1-8.14.13-17.33-3.43-24.26,5-1.24,1.49-5.47.66-8.31.66-20.41,0-40.82.1-61.23,0-11.55-.06-19.63-11.58-13.81-21.19,2.44-4,3.22-8.61,5.9-12.16,2.21-3,5.9-7.35,8.44-7,10.83,1.33,18.63-9.5,29.76-6.45a17.1,17.1,0,0,0,11-1.26c5.71-2.73,10.93-6.56,16.16-10.2,1.07-.74,1.33-2.65,2-4-1.69-.6-3.54-2-5.06-1.67-6.63,1.29-11.31-1.59-14.73-6.65-1.45-2.14-3-6.88-2.21-7.43,5-3.72,4.66-10,7.84-14.44,4.4-6.1,12.62-10.29,17.25-6.15,6.86,6.13,13.86,5.28,21.3,5.35,12.64.13,25.28.24,37.9,0,6.84-.16,13.25-.38,18.26,5.69.66.8,5-1.21,7.48-2.22,1.5-.61,3.85-2.75,4-2.59,8.71,9.91,20.1,3.64,30.11,4.79,9.6,1.1,19.42,0,29.13.35,4.59.18,6.44-3.55,9.65-5s9.1-2.44,11-.66c8.15,7.75,18,6.26,27,5.13,7-.88,12.56-7,21-5.71s17.44.29,26.19.29c7.78,0,15.76-1.12,23.27.29,8.55,1.6,12.9-7.13,21-6.32,8.66.87,17.48.19,26.22.19H705C719.63,68,736.36,73.71,752.15,73c9.52-.42,16.36-8.64,26.8-6.47,8.38,1.74,17.42.35,26.17.35,7.55-8.18,17.46-5.65,26.74-5.8,9.71-.15,19.44.15,29.15-.09,7.59-.18,15.16-.89,22.73-1.37,5.9-7.66,14.25-3.38,21.51-4.4,5.25-8.08,13.49-5.39,20.9-5.88,4.87-.32,6.61,3.77,8.93,6.43,3.56,4.09,4.56,18.42.82,21.26-9.39,7.14-11.08,19.54-20.22,27-5.16,4.19-12.47,3.51-16.61,9.88-3.62,5.58-9.16,10-14.29,14.47a11.08,11.08,0,0,1-7.55,2.51c-5.58-.61-9.14,2-12.21,5.89a11.08,11.08,0,0,0-1.94,4.12c-.11.43,1.29,1.75,2,1.76,11.66.11,23.35.53,35-.11,5.93-.33,8.68,3.18,11.92,6.59s4,6.12.41,9.69c-4.18,4.11-4.31,8.44-3.76,13.12,1.07,9-3.1,15-11.16,17.24-8.81,2.48-13.06,7.49-12.15,16.33.76,7.38-1.81,12.67-7.27,17.53-4.28,3.79-8.83,6.2-13.95,8.63-4.25,2-7.76,5.18-12.8,4.32-6.29-1.09-8.37,7.91-15.1,5.94-5.49-1.61-8.41,4.3-12.28,5.22-7.36,1.74-15.42.48-23.19.63-.7,0-2.09,1.51-2,1.88.5,1.39,1.36,3.56,2.35,3.7,5.45.81,11.5-1.65,15.87,4.42,1,1.41,6.22,1.91,7.46.72,10-9.62,22.12-3,33.06-4.81,1.32-.21,3.11,1.77,4.51,2.94s2.76,2.73,4.15,4.09c5.54,5.38,10.28,13.52,16.84,15.45,8.87,2.61,19.19,1,28.79.17,12.51-1.11,19.39,0,24.1,7.94,2.09,3.52,1,9,1.12,13.55,0,.67-1.4,2.06-1.94,2-10.48-1.87-12,12.64-21.3,11.86-6.43-.53-10.22,4.08-15.23,5.57-6.24,1.86-13.47.45-20.27.45-15.55,0-31.1-.19-46.65.09-6.39.11-13.25-2.17-18.7,4.54-1.65,2-7.19,1.14-11,1.16-21.38.08-42.77,0-64.15.18-1.33,0-2.64,2-4,3.05.69.68,1.56,2.08,2,1.95,10.06-2.64,16.67,7.66,26.55,6.72,9.63-.91,19.61,1,29.07-.58,7-1.14,12.62-7.22,21-5.69,6.58,1.2,13.57.1,20.36.34,1.67.06,4.55,1.14,4.72,2.12.83,4.8,2.18,9.09,6.39,12a29.31,29.31,0,0,1-3.4,4.08c-2.85,2.45-5.89,4.68-8.85,7,3.36,3.36,5.71,5.22,7.4,7.54s2.23,1.57,4.31.47c12.59-6.71,21.65-5.75,27.7,2.24,2.95,3.91,3.3,12.54.63,15.79-9,10.94-22.15,19.14-36,18.12-8-.59-10,9.19-18.13,6.68-5.33-1.63-11.56-.3-17.39-.3-6.81,0-14-1.46-20.3.38-7,2.05-12.82,6.79-21,5.67-7.63-1-15.53,0-23.29-.28s-12,9-21,6.25c-6.25-1.86-13.5-.36-20.3-.36-7.78,0-16-1.66-23.21.4-9.86,2.83-19.16,6.43-29.79,5.59a182.65,182.65,0,0,0-29.12,0c-7.16.58-12.23,7.9-21,6-7.42-1.64-15.48-.46-23.25-.17-.94,0-2,2.23-2.58,3.6-.14.31,1.22,1.87,1.94,1.91,3.87.22,8,1,11.58,0,7-2,9.08,6.71,15.13,6,5.55-.63,8.36-6.28,15.09-6.15,35.94.67,71.91.56,107.86.09,6.45-.09,10.4,5.38,15.1,5.55,9,.32,19.25,4.27,27.34-4.32.55-.58,5.6,4.49,8.64,4.59,15.53.5,31.09.29,46.64.16,1.71,0,4.11-.53,5-1.71,6.62-8.66,10.74-.77,16.59,1.24,5.24,1.8,8,2.31,8.25,8.57.32,9.35.86,9.41,6.64,9.45,10.69.06,21.5,1,32-.29,9.27-1.15,14.45,3.35,19.65,9.26,1.88,2.13,4.76,4,5.34,6.48.53,2.22-1,7-2.39,7.24-4.78,1-9.56.67-9.13,7.78.08,1.45-2.32,4.47-2.77,4.32-6.88-2.28-9,6.59-15.15,6.14-5.8-.43-11.66-.11-17.49-.09-3.41,0-5,1.83-5.3,5.19s1.07,5.83,4.06,6.33c3.83.63,7.7.08,7.7,5.84,0,10.61,1.14,21.51-13.76,23.67-2.36.34-4.27,3.57-6.47,5.36-2.56,2.07-1.85,3.39-.36,6.32,5.25,10.34,3.62,12.05-2.14,20-6,8.23-17.16,8.08-22.56,16.31-.39.59-.88,1.54-.66,2,.39.83,1.26,2,2,2,3.85.26,9.21,1.89,11.34,0,12.86-11.41,27.76-3.4,41.52-5.14,4.4-.56,11.65,16.13,8.4,19.37-6.44,6.42-10.54,16.43-22.51,15.34-6.49-.58-10.17,8-18.05,6-5.48-1.39-11.59-.26-17.42-.26q-62.69,0-125.37.08c-.71,0-2.11,1.42-2,1.81a9.39,9.39,0,0,0,2.21,3.85c.48.49,1.86,0,2.83.09,9.22.53,19.24-2.6,26.74,5.83h26.24c8.72,7.83,19.43,5.59,29.65,5.83,8.56,8.72,19.5,5.26,29.66,5.83,9.51,9.48,21.54,5.26,32.58,5.64,6.08.2,8.26,8.5,15.14,6.24.46-.15,2.76,2.77,2.81,4.31.28,8.74.16,17.49.13,26.23,0,3.8.14,7.1,3,10.47,6.22,7.21,3.51,13.71-2.74,19.86-5.6,5.5-10.49,11.09-19.72,9-8.62-1.94-14,8.67-23.91,6.14-8.21-2.1-17.38-.43-26.13-.43s-17.49-.11-26.23.16c-.91,0-1.92,2.27-2.48,3.64-.15.35,1.24,1.92,1.93,1.93,10.69.13,21.4.46,32.06,0,6.23-.29,10.62,1.71,15.36,5.64,2.24,1.87,7.85-.19,7.94,5.43.07,4.63,1.38,9.63-3.5,13.15a21.27,21.27,0,0,0-6.08,6.21,14.29,14.29,0,0,0-1.59,7.79c.07,1,2.86,2.56,4.46,2.62,7.76.27,15.55.05,23.32.15,4.1,0,12.06,5.83,12.39,10,.37,4.47,1.89,9.56-2.7,13.38-4.41,3.66-8.5,7.7-12.72,11.58-9.34-3.78-15,6.2-23.83,6q-43.73-.81-87.46,0c-9.09.16-19.38-3.92-27.15,4.9-.12.14-2.52-1.94-4-2.74-5.4-2.93-6-3.58-9.82-.39-7.8,6.48-15.69,4.39-23.77,1.64-1.56-.52-2.78-2.07-4.15-3.14-6.48,10.34-12.27,2.82-18.8-.19-3.21-1.49-7.67-.06-11.54-.31-6.83-.42-10.15,8-18.07,6.18-6.46-1.48-13.54-.45-20.33-.14-1.07,0-2.14,2.16-2.94,3.48-.12.2,1.26,1.9,1.95,1.91,23.3.17,46.61-.19,69.88.52,7.2.22,15-3.33,21.93,3.46,5.12,5,12.86,1.66,19.41,2,7.75.44,15.54.1,23.31.1h20.41c7.78,0,15.61-.59,23.31.19,6.22.62,10.41,7.49,18.06,5.88,5.58-1.19,11.61-.24,17.44-.24h20.41c5.83,0,11.67-.09,17.5,0,6.69.13,18.3,10.63,19.54,18,.25,1.43-1.39,3.23-2.28,4.79s-1.79,2.76-2.69,4.13a51.31,51.31,0,0,0,4.94,2.16c.87.29,1.93,0,2.89.06,8.85,1,14.38,6.08,14.77,13.66.14,2.9-.09,5.83,0,8.74.22,4.72-1.85,6.54-6.62,7-2.4.22-4.87,2.59-6.77,4.51-4.1,4.15-7.8,8.2-14.69,7.07-4.73-.78-9.71-.38-14.54,0-1.29.1-2.43,2.07-3.64,3.18.69.69,1.45,2,2.05,2,6.89-.81,11.54,3.84,13.67,8.54s1.44,11.22,1.2,16.9c-.12,3-3.19,3.41-5.93,4.54-7.47,3.07-14,9.13-21.63,10.94-8.28,2-17.39.28-26.13.49-6.46.16-13.22-1.82-18.63,4.77-1.65,2-7.24,1-11,1-14.58.08-29.16-.17-43.73.16-4.16.09-9.47-2.61-12.24,3.26,3.32,1.37,7.27,2,9.79,4.3,3.1,2.76,5.86,4.24,10.11,4.08,9.71-.35,19.43-.11,29.15-.11,7.11,10.21,17.74,4.35,26.75,5.8,5.48.88,8.25,7.42,15.12,6.11,5.37-1,11.13-1.26,15.78,4.28,1.72,2,7.16,1.23,10.91,1.26,14.58.12,29.16-.08,43.73.09,8.14.1,15.19,10.11,13.12,18.19-1.35,5.3-7.53,8.35-6.93,14.74.05.52-3,1.79-4.76,1.94-14.68,1.32-25.52,5.75-34.82,14.54-2.12,2-3.79,5.21-6.25,6-7.77,2.41-13.42,9.12-22.66,8.93-29.14-.57-58.31-.15-87.46-.29-3.46,0-5.48,1.33-6.1,4.34-.34,1.68-.08,4.62.94,5.21,2.24,1.31,6.79,2.82,7.52,1.91,10.72-13.23,20.21-.85,30.1,1.14.79.16,2.07,1.43,2,2-1.29,7.21,2.77,14.78-3.65,21.85-7.08,7.81-14.42,11.6-25,10.49-8.65-.89-17.47-.18-26.22-.18s-17.71-1.19-26.17.37c-7,1.29-12.72,6-21,5.81-35-.81-70-.35-105-.35-4.86,0-9.8-.56-14.56.14-6.22.92-10.39,7.41-18.06,6-6.56-1.25-13.56-.26-20.36-.26H479.27c-6.8,0-13.63-.36-20.41.09-11,.73-23.06-3.71-32.57,5.75-8.75,0-17.5-.11-26.24,0-6.69.11-14.88-1.75-19.66,1.41-5.41,3.57-10.18,4-15.81,4.53-3,.27-3.66,3-4.46,6.09-.88,3.32-4.2,6-6.18,9.06-1.6,2.5-2.42,2.38-4.25.38-3.22-3.53-6.49-7.52-10.6-9.54-3.12-1.53-8.1,0-7.75-5.69.38-6.08-7.66-8.1-6.2-15.14,1.16-5.54,6.29-13.87,11.3-14.49,12.1-1.48,24.46,2.91,36.51-3.41,11.53-6,24.56-1.3,36.89-2.26,8.69-.68,17.65-1.2,26.18.16,9.3,1.48,14.63-7.89,23.92-6.41,8.53,1.36,17.45.29,26.19.29s17.83,1.44,26.14-.45c7-1.58,12.82-6.83,21-5.59,6.65,1,13.59.37,20.38.08,1.61-.06,3.16-1.65,4.73-2.53-1.33-1.06-2.63-3-4-3a192.63,192.63,0,0,0-20.39,0c-5.21.31-9.21-1-12.63-5.05-.89-1-4.3-1.54-5.26-.74-13.64,11.38-29.58,4.21-44.37,5.45-13.51,1.14-27.19.24-40.79.24-7.78,0-15.75,1.06-23.27-.3-7-1.28-12.53-6.8-21-5.88-12.48,1.36-25.23.4-37.86.32-3.87,0-11.41-6.88-11.67-10.85-.31-4.84-1.39-10.25.31-14.41,1.6-3.91,5.91-7.83,9.92-9.33,4.26-1.6,9.59-.36,14.45-.36q109.32,0,218.66,0c5.7,0,11.39-.56,17.07-1,.65-.05,1.76-1.41,1.65-2-.17-.79-1.2-2-1.94-2-5.72-.39-11.46-.76-17.19-.76q-80.18-.09-160.35,0c-5.87,0-11.36.25-15.5-5.32-.72-1-6.28-.23-7.4,1.31-4.45,6.17-10.57,3.25-16,4-4.31-7.14-11.31-5.87-18-5.85-17.49.06-35-.7-52.46.32-8.91.53-14.65-2.51-19.84-8.85-2.41-2.94-2.6-2.72-.16-12.65.44-1.84.06-3.87.06-5.82,0-3.87-.3-8,5.4-8,17.5,0,35.05-.83,52.45.41,6.86.48,12.56,7.1,21,5.68,7.56-1.27,15.5-.26,23.28-.26h23.32c7.77,0,15.59-.5,23.31.12,10.05.81,20.81-3.65,30,5.34,2.49,2.43,9.36.37,14.22.37,63.17,0,126.34-.13,189.51.13,10.07,0,21.18-3.45,29.65,5.7,5.73-.25,12.74,1.45,16.86-1.25,4.91-3.22,6.59-3.56,10.92.33,2.2,2,7.32.8,11.13.85.76,0,2.2-.93,2.18-1.38a7,7,0,0,0-1.14-4.07c-3.11-3.64-6.19-7.51-12-6.17-4.21,1-7.08-1.12-10-4.09-3.12-3.18-6.56-2.22-9.94.69-2,1.69-6.35,3.88-7.05,3.19-7.93-7.77-17.74-5-27-5.66-7.3-.54-15.72,3.13-21.22-5.17-.35-.54-1.71-.54-2.62-.58-11.45-.53-22.9-1-34.35-1.53-10.18-8.29-22.12-3.25-33.22-4.13-10.62-.85-21.36-.19-32-.19-11.67,0-23.33.19-35-.07-6-.14-8.1,7.58-15.13,6.18-6.55-1.3-13.55-.28-20.36-.28-5.83,0-11.66,0-17.49,0-2.89,0-7.55,1-8.39-.33-4.94-7.85-8.68-2.24-13.09.2-1.49.83-3.82.13-5.76.13q-61.23,0-122.45,0c-4,0-8.77-.26-7.31-5.76,1.34-5-11.07-7.45-1.75-13.54,2.49-1.62,2.3-6.88,4.47-9.56s4.15-6.38,9-6.21c9.7.34,19.52.88,29.11-.23,4.91-.56,5.72,9.41,11,3.47,4.43-5,5.61.74,8.39,1.7,2.3.8,5.88.82,7.67-.49,3-2.23,4.72-5.39,8.59-.83,1.45,1.71,5,2.14,7.67,2.21,9.71.25,19.45.4,29.15,0,4.57-.21,10.19,2.67,13.64-1.94,5.54-7.39,7.11,1.85,10.69,2a120,120,0,0,0,14.57,0c11-.86,22.76,3.38,32.82-5.49,2.19-1.93,7.53-.28,11.42-.28h102c7.78,0,15.86-1.34,23.24.36,8.11,1.87,10.89-6.71,18.09-6.41,16.49.69,33,.22,49.55.22,6.81,0,13.62.16,20.4-.16,1.22,0,2.34-2.1,3.51-3.23-.69-.68-1.35-1.93-2.07-2-5.77-.29-12-1.73-17.23-.16C694,944.37,692,933.68,684,935.43c-7.42,1.62-15.47.34-23.24.34-6.81,0-13.63-.31-20.41.13-3.72.24-4.92-2.49-7-4.22-4.28-3.48-10.88-3.21-13.39-1-6.15,5.36-10.76,7.79-16.48.32H560.57c-5.71,7.44-10.51,5.37-16.43-.4-2-2-7.39-.61-11.23-.61-41.79,0-83.59.51-125.36-.4-10-.22-16.14,9.09-26.85,6.65-9.24-2.11-19.35-.67-29.05-.33-4.25.15-7.53-.72-9.95-4.25-1.38-2-2.3-1.29-4.26.61s-6.27,4-7,3.29c-8-7.64-17.74-5.09-27-5.61s-17.16-12.34-12-20.64c3.35-5.34,4.9-9.86,4.76-15.64-.09-3.89-1.1-8.21.24-11.56,2-5,5.24-9.36,7.32-14.46.72-1.75,6.85-1.7,10.52-1.75,14.58-.18,29.16.12,43.73-.19,4.38-.09,6.89,2,9.89,4.55,3.3,2.85,6.86,1.78,9.91-1.38,1-1,3.72-2.06,3.91-1.81,5.86,8,14.26,4,21.54,4.46,6.51.44,13.13,1.29,18.42-5.2,1.58-1.93,7.37-.49,11.22-.49q56.86,0,113.71-.09c1.69,0,3.38-1.15,5.07-1.76-1.34-2.06-2.33-4.54-4.13-6.07-2-1.7-4.69-3.51-7.14-3.59-11.65-.37-23.33.05-35-.23-9.23-.22-18.88,2.29-27-5.47-1.84-1.75-8.79-1.23-10.76.8-8.29,8.49-18.3,3.21-27.36,4.73-10.49-10.08-23.57-4.5-35.49-5.72-5.77-.6-11.66-.14-17.49-.1-6.58.05-13.7-1.54-18.06,5.66-4.57-.6-10.06,2.56-13.59-1.84-3.75-4.67-8.5-4.45-13-3.6-3.22.6-6.41,5.1-9,4.6-3.1-.6-4.92-5.33-9.57-4.92-4.82.42-9.71.09-14.57.09-13.61,0-27.21.05-40.82,0-6.69,0-7.44-1-7.48-8.77q0-8.76,0-17.5c0-7.77.74-8.66,7.58-8.67q45.19-.08,90.38,0c4.86,0,9.74.23,14.57-.16,1.31-.1,2.47-2,3.7-3.15-.68-.68-1.35-1.94-2.06-2-7.71-.3-15.56-1.37-23.09-.29-8.33,1.18-14.16-3.32-21.05-5.81-3-1.07-5.72-1.76-5.76-4.75-.08-8.4-2.32-17.4,7.06-23.35,6-3.81,6.46-8.83.66-14C328.06,755.17,335,746,327.07,742a3,3,0,0,1-1.13-1.94c4.77-4.8,8.92-11,14.71-13.73,4.69-2.22,11.36-.28,17.15-.18,8.43,9.89,19.82,5.48,29.76,5.13,8.91-.32,16.67-7.18,26.8-5.72,9.52,1.38,19.39.3,29.11.3h55.4c4.85,0,11.32,2,14.29-.36,12.17-9.7,25.86-3.71,38.67-5.59,2.23-.33,4.24-2.16,6.35-3.3-1.61-.8-3.22-2.31-4.83-2.31-51.51-.13-103,0-154.52-.28-5.62,0-8.74,2.53-12.31,5.85-1,1-4.35.94-5.57,0-3.43-2.62-6-8.15-10.43-1.2-9.25,1.63-18.53,3.65-27.45-1.4-1.33-.75-3.81-2.12-4-1.91-5.82,8.1-14.28,3.51-21.5,4.71-5.46.9-9.22-1.56-12.27-5.59-3.32-4.37-11.86-7.62-8.59-13.46,4-7,5.8-15.87,13.17-20.84a3.83,3.83,0,0,1,2.49-.91c7.29,1.88,12.11-4.9,18-5.51,12.5-1.27,25.23-.5,37.86-.23,1.48,0,3,2.11,4.36,3.39,6.48,6.07,10,.08,14.09-3.43,11.34,11.79,25.64,4.12,38.47,5.41,13.47,1.36,27.19.31,40.79.31H626.39c44.7,0,89.41-.14,134.11.16,5.9,0,8.41-3.65,11.82-6.81.72-.66,1.86-1.33,1.92-2.07s-1-1.73-1.84-2a38,38,0,0,0-5.44-1c-8.12-1.28-17.56,3.42-24.05-5.29l-23.1-.55c-4.75-9.27-16.79-2.05-22.16-9.78-1.59-2.28-2.48-2.07-4.25.27-1.4,1.83-3,4.77-6.23,1.24a11.69,11.69,0,0,0-7.27-3.24c-6.77-.44-13.68-.81-20.38,0-7.27.91-12.16-3.45-18.13-5.7-5.09-1.92-12.22.58-16.58-2s-8-4.25-13-4.2c-15.55.18-31.1-.08-46.65.14-6,.09-11.58.11-15.13-5.77-10.31,11.27-23.82,2.89-35.39,5.87-11.19,2.88-18.35-8.5-29.78-6.45s-23.24.45-34.9.45H350.87c-10.69,0-21.55-1.17-32,.38-7.91,1.17-11.21-6.5-18.05-6.37-3,.06-4.64-2.13-4.64-5.77,0-8.73-.16-16.83,8.23-23,4.8-3.57,8.59-6.25,15.09-6.21,67,.32,134.11.2,201.17.2H544c4.38-7,11.27-6,18-5.88,12.63.15,25.27.11,37.9,0,7.27,0,15,1.47,20.65-5.19,6.58,9.86,11.73-3.58,18.93-1.13,7,2.37,15.37.56,23.15.5,5.44,0,7.22-1.91,6.9-6.48-.39-5.63-4.4-5.44-8.22-5.12-6.57.57-13.95-2.48-19.53,1.88-3.74,2.92-5.46,4.08-8.56-.09-.89-1.19-3.28-1.76-5-1.76-24.29-.11-48.59,0-72.89-.19a12.14,12.14,0,0,0-10,4.43c-.39.44-2.7-.6-4-1.25-9-4.63-17.63-6.35-26,1.88-1.21,1.2-5.24.22-7.65-.63s-4.6-4-7-4.12c-10.67-.46-21.37-.2-32.06-.2-8.25,10.26-19.63,5-29.66,5.67-10.65.73-21.38-.07-32.06.29-3.72.12-4.66-3.06-7.09-4.14s-6.84-2.22-7.57-1.24c-4.14,5.57-9.64,5.55-15.5,5.27-6.7-.32-14.88,1.78-19.71-1.35a26.52,26.52,0,0,0-15.78-4.51c-12.63,0-25.27-.21-37.9.13-4.6.12-6.88-2.64-9.49-5.34-1.73-1.78-4.75-3.46-.93-6.17,4.89-3.47,2.15-8.86,3.4-13.2,1-3.36,4.45-6,5.33-9.38.49-1.87-1.61-5-3.39-6.67-1-1-3.72-.19-5.67-.17-3.85,0-8,.42-8.11-5.24-.1-5.83-.17-11.67,0-17.49s7.2-12.15,13.23-12.23c8.75-.13,17.49,0,26.24,0,9.32,0,8.88-.34,15.57-10.92,2.14-3.37,2.19-7.14,4.07-10,3.21-4.9,8.91-2.28,13.43-2.29,54.42-.18,108.85-.1,163.27-.28.75,0,1.69-2.38,2.12-3.78.12-.39-1.23-1.73-2-1.82-9.94-1.16-20.88,3.26-29.45-5.42-4.41,7.39-11.7,5.27-18.19,5.28-7.44,0-12.08-8.52-21-6.1-6.33,1.73-13.51.34-20.32.34-7.77,0-15.66-.81-23.29.23-7.45,1-12-4.54-18.09-5.76-6.53-1.33-13.54-.3-20.34-.3-1,0-1.95,0-2.92,0-4-.21-11.87-6-12.2-10.23-.36-4.49-1.79-9.57,2.86-13.33a83.22,83.22,0,0,0,8.27-8.21c4.69-5.05,10.49-4,15.77-2.2,15.08,5,21.75,7.7,29.19,3,5.58-3.53,10.4-3.86,15.95-4,8.75-.17,17.55.54,26.23-.2,9.08-.78,19.57,4.31,26.8-5.56q16-.06,32-.11c9.72,0,19.44-.11,29.16,0,5.94.09,8.31-8.14,15-6.22.45.13,2-1.72,1.92-1.89-.85-1.3-2-3.4-3.05-3.44a206,206,0,0,0-23.31,0c-8.16.63-14.5,7.79-23.88,6-7.5-1.44-15.5-.29-23.27-.29H458.21c-7.78,0-15.57.29-23.32-.11-5.2-.26-9.21,1-12.63,5.06-.88,1.05-3.53.73-5.37.85-3.6.24-3.7-6.91-8.56-4.14-2.36,1.35-4.65,3.93-7,4-15.54.36-31.1.23-46.65.16-3.88,0-11.22-6.8-11.68-10.86a50.9,50.9,0,0,1,0-8.73c.23-3.95.15-7.75-3.61-10.18-7.42-4.78-9-11.63-8.24-20,.65-7.7.05-15.5,0-23.25-8.21-4.34-.91-8.27-.27-12.79.92-6.51,3.42-7.6,9.17-7.57q64.14.27,128.28,0c8.24-.05,17.59,3.16,23.83-5.73h102c8.75,0,17.54-.57,26.23.16,8,.68,11.7-9.31,21.05-6.43,7.1,2.19,15.42.43,23.2.43h43.73c7.77,0,15.58-.42,23.31.14,6,.43,8.27-4,11.72-7,.66-.57,1.68-1.5,1.55-2a3.07,3.07,0,0,0-1.94-2,108.46,108.46,0,0,0-11.38-.71c-41.79,0-83.58.21-125.37-.22C597.2,294.05,587,298,579.17,289c-1.29-1.48-5.52-.48-8.4-.49-30.13,0-60.26.29-90.38-.2-8.77-.14-14,9.2-23.94,6.42-7.2-2-15.43-.4-23.21-.4h-75.8c-7.78,0-15.57-.29-23.32.1-5.81.29-8.95-1-9-7.7,0-2.18-4.74-4.29-4.83-6.53-.29-7.32-3.18-10.35-10.54-9.26a34.94,34.94,0,0,1-8.73,0c-3.14-.33-5-2-4.84-5.62.24-4.85,0-9.72.07-14.57.11-8,6.19-14.63,13.71-14.7C322.44,235.93,334.9,236,347.1,236ZM478.44,807.73c4.76-.36,9.38-.62,14-1.12a2.85,2.85,0,0,0,1.88-2c.1-.54-.91-1.6-1.65-1.93-3.19-1.41-6.58-2.4-9.68-4-8.1-4.15-8.28-4.18-15.74,4-.58.63-1.65,1.46-1.53,2a3,3,0,0,0,1.89,1.95C471.21,807.18,474.89,807.41,478.44,807.73Zm-22.3-682.5c4.9,0,7.8.33,10.57-.1,2.93-.44,4.66-2.06,4.64-5.67s-1.58-5.31-4.49-5.83c-7-1.24-12.87.73-17.08,6.76-.51.73-1.75,1.44-1.66,2a3,3,0,0,0,1.89,2C452.69,124.9,455.44,125.13,456.14,125.23Zm-17.59-.62,3.5-2.3c-1.48-1-2.87-2.51-4.47-2.8-3.6-.65-9.07.74-10.65-1.22-6.33-7.85-8.71-.54-12.3,2.34-.62.49-1.48,1.47-1.33,1.94.26.8,1.22,1.94,1.9,2C422.66,124.66,430.13,124.61,438.55,124.61Zm-46.17.72,3-3c-.67-.67-1.22-1.63-2-2-5.67-2.33-11.26-5.09-17.16-6.51-2.41-.58-4.89,2.38-4.08,5.77.4,1.67,1.21,4.52,2.08,4.61C380.55,124.92,387,125.06,392.38,125.33Zm420,792.95c-5.76,0-11.52-.15-17.25.17-.79,0-1.66,2.38-2,3.77-.12.42,1.25,1.8,2,1.81,9.59.12,19.18.17,28.77-.09.75,0,1.64-2.38,2-3.77.12-.42-1.23-1.77-2-1.8C820,918.18,816.18,918.28,812.34,918.28ZM456.49,760.83c-3.79,0-7.64-.34-11.35.2-1.2.18-2.59,2.58-2.94,4.17a9.65,9.65,0,0,0,.82,5.26c1.11,2.77,2.44,2.6,4,0,3.83-6.27,10.16-3,15.43-3.92.76-.13,2-1.48,1.9-1.9-.44-1.37-1.14-3.28-2.23-3.69C460.45,760.38,458.38,760.83,456.49,760.83Zm-93,11.67c3.83,0,7.66.1,11.48-.09.71,0,2-1.5,1.91-1.9-.48-1.38-1.43-3.65-2.28-3.68-7.64-.28-15.3-.22-22.95-.08-.69,0-2,1.51-1.91,1.9.48,1.38,1.37,3.57,2.29,3.67A104.19,104.19,0,0,0,363.51,772.5Zm209.86,93.3a17.8,17.8,0,0,1,2.83,0c3.55.61,5.57-1.59,5.6-4.41,0-2.42-1.14-6.09-2.88-6.94s-5.27.4-7.46,1.68a21.31,21.31,0,0,0-5.92,6c-.33.46,1.14,3.1,2.24,3.52C569.43,866.26,571.49,865.8,573.37,865.8ZM691.58,568.12c-4.94.41-9.6.71-14.24,1.25a2.78,2.78,0,0,0-1.89,2,2.74,2.74,0,0,0,1.89,1.94q12.54.19,25.09,0c.69,0,1.35-1.27,2-1.94-.68-.68-1.28-1.83-2-2C698.75,568.79,695,568.49,691.58,568.12Zm-74.36,472.62c4.78,0,9.57.08,14.35-.09.7,0,2-1.5,1.9-1.9-.47-1.38-1.43-3.65-2.27-3.68-7.64-.28-15.3-.22-23-.08-.69,0-2,1.51-1.91,1.9.47,1.38,1.31,3.49,2.3,3.67C611.42,1041.06,614.35,1040.74,617.22,1040.74Zm-75.07-571c3.44-.57,6.31-.58,8.7-1.65,1.13-.51,1.86-3.05,1.86-4.67s-.71-3.88-1.91-4.72c-3.47-2.45-15.68,3.79-14.94,7.77C536.13,468,540.2,468.79,542.15,469.73Zm31.11-6.29a106,106,0,0,0,11.42-.18c.85-.09,1.67-2.35,2.06-3.74.12-.42-1.23-1.81-1.93-1.83-5.72-.15-11.45-.23-17.15.09-.79.05-1.66,2.36-2,3.75-.12.42,1.18,1.71,1.94,1.82A40.22,40.22,0,0,0,573.26,463.44Zm26.62,390.24c-1.83,1.06-4.47,1.94-6,3.75-.93,1.06-.8,3.91,0,5.39,1.61,3.14,3.81,2.43,5.83,0,1.18-1.43,2.64-2.64,3.93-4a24.87,24.87,0,0,0,1.55-2ZM722,329.36q-.93-2.42-1.88-4.83a22.28,22.28,0,0,0-3.92,1.92,37.83,37.83,0,0,0-4,3.92c-.62.63-1.18,1.31-1.77,2,1.48.94,2.89,2.53,4.45,2.69C719.87,335.56,721.66,333.92,722,329.36Zm45.72,680.23c0-.67.15-1.51-.18-2-2.17-2.93-8-2.84-9.59.13a2.18,2.18,0,0,0,.14,1.94C760.22,1012.62,766,1012.51,767.68,1009.59ZM646.54,859.14c-1.24-1.2-3.2-4.11-4.15-3.81-3.15,1-3.12,7.19-.19,9.36.45.34,1.75.38,1.88.14C644.9,863.31,645.49,861.67,646.54,859.14Zm-25.71,5.73c2.92-1.71,3-7.46.11-9.63a2.22,2.22,0,0,0-1.93-.14c-3,1.62-3.06,7.42-.14,9.59C619.32,865,620.17,864.83,620.83,864.87ZM406.24,760.44c-1.2,1.24-4.11,3.2-3.81,4.15,1,3.15,7.19,3.12,9.36.2.33-.45.38-1.76.14-1.89C410.41,762.09,408.77,761.49,406.24,760.44Zm20.4,1.24-2.08,2.07a17.94,17.94,0,0,0,3.91,1.82c.48.11,1.27-1.17,1.92-1.82Zm-15.82,40.81-3.75,2.08c.64.65,1.43,1.93,1.91,1.82a18,18,0,0,0,3.92-1.82ZM569.5,1083.63l-2.07-2.08a18.53,18.53,0,0,0-1.83,3.92c-.1.48,1.18,1.27,1.83,1.92C568.13,1086.12,568.82,1084.85,569.5,1083.63ZM773.59,298.09l-2.07-3.76c-.65.65-1.93,1.44-1.82,1.92a17.72,17.72,0,0,0,1.82,3.91C772.17,299.52,772.82,298.87,773.59,298.09Z"/></svg>