<svg id="Layer_1" data-name="Layer 1" xmlns="http://www.w3.org/2000/svg" viewBox="0 0 1200 1200"><title>BB_Artboard 17</title><path d="M831.11,825.38c-.85,7.06,1.67,12.87,7.08,19.08a33.16,33.16,0,0,1,8.27,19c.45,6,7.1,10.8,4.86,18-.14.46,2.28,2.39,3.61,2.51,5.43.49,8.26,1.53,2.6,6.44-.4.35.2,2.53.91,3.38,5.59,6.69,5.42,16.52,12.33,22.44-2.79,8.68,7.38,14.29,5.42,22.79-.18.79-.35,2.19,0,2.42,5.95,3.71,4.57,11.95,10,15.94-1.21,6.08,3.13,10.48,4.47,15.58,1.42,5.37,7.56,8.53,5.77,15.36-1.44,5.48,6.55,8.67,5.16,15.46-.62,3,2.95,6.88,4.62,10.36,3.33,7,6.29,14.13,10.11,20.81s5.62,15.06,12.8,19.75c.68.44,1.73,1.19,1.7,1.74-.21,3.94.3,8.28-1.22,11.69-2.82,6.32-11.46,5.33-15.42,10.71a38.56,38.56,0,0,0-3.55-2.57c-1.33-.78-2.77-1.83-4.19-1.88-5.83-.21-12.52,1.71-17.29-.55-5.67-2.69-9.77-8.79-14.42-13.54s-9.7-9.14-13.37-14.52c-3-4.34-3.77-10.1-6.21-14.88s-5-10.16-9-13.65-4.55-8.28-6.81-12.36c-3.73-6.76-7.17-13.7-10.64-20.6-1-2.06-2.68-4.38-2.46-6.4.75-6.82-3.38-12.23-4.49-18.09S818,949.56,816,944.54c-2.3-5.84-6.88-10.85-5.11-18,.49-2-.68-4.65-1.73-6.67-2.5-4.83-6.27-9.18-7.84-14.25-1.38-4.44,0-9.11-4.17-13.47-3.48-3.63,1-11.61-5.6-15-.17-4.93,1.57-11.42-.91-14.48-5.37-6.63-4.42-13.59-4.61-20.76-7-4.51-4.74-11.57-5-18,0-.82.19-2.25-.12-2.38-8.18-3.37-3.49-11.76-6.75-17.33a272.06,272.06,0,0,1-13.61-26.83c-2.32-5.23-5.44-9.67-4.55-15.64-4.54-3.2-5.19-7.68-5.27-12.94,0-2.6-3.65-5.06-4-7.81-.22-1.63,2.83-3.62,4.21-5.6a3.76,3.76,0,0,0,0-2.45,51.42,51.42,0,0,1-.18-18.42c.54-2.6,1.1-5.49,3.52-5.44,8.69.19,18.14-2.83,25.45,4.83,6-.37,10.46,4.52,10.73,8.17.45,6,8.07,8.65,5.73,15.46-1,3,0,6.63-.22,10-.46,6.08,4.33,8.65,8.1,11.3,3.48,2.44,11.76-1.43,15.19-5.33,1.57-1.79,2.08-2.25.18-3.68-5.27-4-7.8-9.78-10.91-15.43s-9.92-9.33-12.09-15c-2.61-6.87-8.28-10.07-12.61-14.7-3.48-3.72-1.95-9.53-6.82-12.36-4.38-2.55-5.51-7.39-7.34-11.9-2-5-4.9-10.21-8.85-13.69s-4.42-8.35-6.77-12.38c-3.88-6.68-7.22-13.67-10.67-20.59-1-2.06-2.58-4.48-2.26-6.47,1.14-7-1.75-12.42-5.12-18a40.86,40.86,0,0,1-4.89-10.44c-.81-3.13-.27-6.64-.15-10,.19-5.07-6.59-7-5.24-13,1.07-4.77.21-10,.21-15s.67-10.12-.15-15c-1.28-7.62,2.46-12.14,7.3-17.18,4.15-4.34,7-5,10.8-.43,6-8.27,10.68,1,15.49,2.05,5.54,1.18,13.25,13.48,15.9,20.38.73,1.9.54,5.13-.65,6.57-2.17,2.64-4.21,4.85-3.67,8.58.8,5.6-2.36,12.29,1.74,16.7,5.56,6,.21,14.13,3.81,18.33,3.86,4.5,3,11.2,8.35,14.26-.25,11.6,7.31,20.44,11.68,30.18,2.72,6.07,4.75,13.73,11.31,17.85,3.19,2,2.16,6.23,3.82,8.32,2.61,3.29,3.65,6.84,5.31,10.4s5.21,6.68,8.65,8.83c6.06,3.79,4.73,11.73,10.36,16,4.94,3.74,8.44,8.91,11.35,15.13,3.55,7.61,13.39,11.67,15.35,21.2,10.89,6.27,8.23,16.88,8.32,26.53a6,6,0,0,1-2.15,4c-2.45,2-3.54,5.51-7.74,5.55-3.18,0-4.08-2.42-6.07-3.64-4.77-2.92-9.22-1.66-8.73,2.83.87,8-4.16,13.55-7.1,19.68C831.56,814.07,831.09,813.85,831.11,825.38Z"/><path d="M806.08,363.49c0-4.16-.3-8.35.08-12.49.51-5.59-2-11.57,1.71-16.75,5-7,6.1-16.16,12.37-22.36s12.12-12.49,20.71-16.3c6.6-2.93,12.79-1.32,19.12-2.07,4.79-.57,6.2-1.28,6-5.45-.31-7.91,1.92-16.16-4.71-23.16-1.67-1.75-.25-6.42-.25-9.76,0-5,.08-10,0-15-.1-4.79.28-9.13-3.59-13.68-2.54-3,.74-10.79-1.74-14-6.4-8.16-3.94-17-4.73-25.69-.57-6.15,1.32-9.22,7.9-9,1.14,0,2.52-2.06,3.5-3.39,3.77-5.1,8.7-7,15-6.21,3.28.4,6.69-.24,10,.17,2.6.32,4.05,2.06,3.89,5.11a6.48,6.48,0,0,0,1.84,4.15c4,4.25,10,7.63,11.86,12.6,2.22,5.81.94,13,1.2,19.51.37,9.54-2.16,19.6,5,27.92,0,5.83-.45,11.71.11,17.48.83,8.61-3.86,18.32,4.67,25.53l-4.71,5.3c9.5,7.93,4.08,18.62,4.63,28,.52,8.9,8.18,15.5,5.7,25.5-1.94,7.85-.39,16.56-.39,24.9,6.87,7.44,4.81,16.65,5,25.41,7.6,7.31,4.41,16.74,5,25.42,7.25,6.42,4.91,15,4.87,22.92,0,5.25,7.35,7.11,5.14,12.92,4.84,3.08,6.17,7.85,4.88,12.89-2,7.94,7.16,12.42,5.33,20.5-1.71,7.53,5.53,12.58,7.42,19.3.41,1.44,2,2.58,2.32,4,1.21,5.38-2.48,11.5,2.87,16.35,4.34,3.93,1.7,9.33,2.13,14,.5,5.6,5.68,8.87,5.63,15.42-.06,7.11-6.51,11.08-5.91,17.87.14,1.52-9.66,3.51-11.31,2.3-10.54-7.76-18.59-17.51-23.37-29.8,2.49-6.49-4.1-10-5.09-15.41S920,519.6,920.89,513c.62-4.34-4.81-7.39-5.82-12.5s-5.46-9.31-8.41-13.92c2.26-7.84-5.86-13.05-5.3-20.21.38-4.94-3-7.13-5-10.56s1.63-8.16-2.07-11.62c-1.17-1.1-3.24-2.78-3-3.63,3.26-11.07-6.22-19.73-5.49-30.49.28-4.17-3.73-8.47-4.5-12.93-.84-4.85-.19-10-.19-15-7-6.47-5-15-4.91-22.92,0-5.08-3.92-7-6.77-9.62-1.28-1.16-4.67-1.06-6.52-.23-2.13,1-3.34,3.85-5.44,5-8.41,4.74-6.16,12.68-6.39,19.91,7.64,9.15,4.34,20.11,5,30.42.35,5.54-1.2,11.09,4.08,16,2.15,2,2,8.34.66,11.8-3.12,7.88,5.83,11.22,5.46,18-.3,5.58-2.24,11.93,1.44,16.74,2.43,3.17,3.71,4.79-.08,7.26-.57.37-.88,1.15-1.31,1.74,8,5.35,3.27,13.66,4.88,20.49,1.06,4.45,3.69,8.53,4.75,13,.94,3.9-.89,9.65,1.27,11.8,4.28,4.28,3.6,8.77,4,13.58.11,1.34,1.52,2.94,2.77,3.76,5.09,3.33,6.43,8.86,8.86,13.86,3.5,7.2,7.2,14.4,14.06,19.17,3.83,2.67,4.25,6.4,4.35,10.76.13,6.17-4,5.75-8,6.46-1.35.25-2.18,2.83-3.59,3.29-12.41,4.11-24,.85-33.58-6.72-6.71-5.31-14.94-10.53-16.13-20.62-6.19-4.32-8.25-11.59-12.49-17.28-3.51-4.73,1.69-12-5.1-15.53-1-.5-1.62-3-1.28-4.29,2.08-7.83-8.34-12.45-5.11-20.44,2.95-7.29-7-10.46-5.3-18,1.42-6.35-.19-13.31.44-19.92.52-5.5-6.36-7.19-5.33-13,.86-4.85.18-10,.18-15-9.38-8.87-5.37-20.48-4.41-30.36.88-9.08-7.13-14.32-5.86-23C807,380.29,806.08,371.82,806.08,363.49Z"/><path d="M60.24,663.72v-25c0-5.84.26-11.69-.07-17.51s-.19-11.46,5.08-15.44c0-9.17-.57-18.39.18-27.5.58-7-3.75-15.09,3.71-20.91.37-6.52.65-13,1.15-19.55.3-4,6.11-5.47,5.13-10.46-.21-1.08,1.39-2.92,2.6-3.79,4.85-3.48,6.85-8.58,8.94-13.85.85-2.13,3.25-4.91,5.18-5.11,5.41-.59,9.08-3.48,12-7.38,5.51-7.36,12.54-10.09,21.52-8.58,7.8,1.32,12.21-2.79,14.68-9.69.52-1.46.62-3.4,1.64-4.28,5-4.29,7.34-10.25,10.86-15.48,4.57-6.79,11.47-12,17.36-17.9.59-.59,1.1-1.56,1.79-1.7,2.33-.48,5-1.46,7.06-.82A73.45,73.45,0,0,1,194,444.93c2.65,1.53,6.13,4.78,6.09,7.2-.09,6.09,6.22,8.73,5.86,15.47-.45,8.71-2.58,15-8.11,22-4.8,6.1-7,13.39-16,15.64-2.75.69-1,7.82-5.4,9.91.26,7.36-6,13.49-5.5,20,.49,6.8-6.54,9.21-5.7,15.5.76,5.73.4,11.66.09,17.48-.32,6.29,2.31,13.4-4.68,18.16-.8.54-.25,3.14-.25,4.79,0,6.67,0,13.34,0,20s-.83,13.47.23,20c1.16,7.2-4.58,12.18-4.86,18-1,20-.38,40-.36,60,0,4.93,6.63,7,5.18,13-1,3.94-.37,8.31-.09,12.46.1,1.41,1.16,2.89,2.09,4.09,6,7.74,18.71,15.16,28.62,15.13,5.52,0,8.93,2.74,13,5.21,1.92,1.18,5.16,1.28,6,2.85,1.06,1.92.11,4.88.29,7.37.22,3.11-1.46,4.7-4.16,4.77-3.92.1-6,1.38-6,5.66,0,1.36-1.16,3.78-2.09,3.93-5.46.92-11.75-.81-15.29,5.47-8.33,0-16.7.46-25-.21-2.7-.21-3.94-4.54-7.92-5-3.63-.43-6.87-4.07-10.5-4.51-5.65-.69-11.49.13-17.25.31-6.53,7.7-15.39,3.29-23.17,4.47-4.45.67-7.77-.9-10.76-4.32-3.84-4.38-8.29-8.21-12.27-12.48-2.16-2.31-5.83-5.37-5.46-7.51,1.14-6.55-4.11-10.24-5.32-15.51-2-8.58,2.73-17.47-3.07-26.33-5-7.72-1.45-17.67-1.88-26.62C59.9,682.08,60.24,672.89,60.24,663.72Z"/><path d="M1006.31,338.52c0-8.59-.62-15.32.17-21.89.83-7-6.84-10.63-5.43-18,1.23-6.43.26-13.28.26-19.94V236.24c0-6.66-.46-13.37.12-20,.65-7.54-7.86-12-5.47-20.52,1.74-6.17.34-13.22.34-19.89,0-7.49.91-15.13-.24-22.45-1.35-8.69,8.74-14.1,5.45-22.86,3.76-2.82,5.64-8.09,12-7.5,3.82.36,8.09,1.66,11.92-1.21,1.35-1,1.92-5.48,5.26-1.81,6.46,7.12,14,13.09,18.06,22.5,1.81,4.13-.38,4.8-1.11,7.34-1.32,4.58-1,9.64-1.26,14.5-.18,3.18-.39,6-2.28,9.1-3.73,6.22-3.32,9.36,1.92,11.7,11.63,5.17,19.06,14.9,27.87,23.17,3.79,3.55,3.33,6.89-.23,10.36a6.74,6.74,0,0,0-2.17,4c-.16,13.33-1.2,26.78.36,39.92.8,6.69,5.42,12.89,4.68,20.48-.63,6.6.11,13.32-.21,20-.24,5.21,6.53,6.93,5.32,13-1.12,5.6-.23,11.61-.23,17.44,0,5,.1,10,0,15s6.49,6.94,5.29,13c-.89,4.45-2,10.07,3.51,13.41a3.06,3.06,0,0,1,1.2,2c1,6.19-2.93,13.45,4.1,18.29.32,6.54.59,13.07,1,19.6.14,2.39-.36,5.52.93,7,4.72,5.55,11.35,9.66,9.18,18.83-1.75,7.36,8.63,12.25,4.89,20.38,8.52,3.19,1.83,13,7.07,16.94,5.74,4.31-.12,11.66,5.17,15.45,5.95,4.28-.72,13.55,7,17.25.81.39,1.15,3.15.73,4.5-2.45,7.92,3,13.94,5.52,20.27,1.8,4.48,5.32,7.22-.25,11.25-.65.48.83,4.35,1.77,6.45.79,1.78,4.12,2.59,1,5.45-1.56,1.44-2.38,4-2.87,6.22-1,4.61,2.4,10.82-2.7,13.64-3.19,1.76-8.14.17-12.28.46-3.1.22-4.11-1.47-5.18-3.88-2.5-5.63-5.68-11-7.83-16.74a37.71,37.71,0,0,0-10.63-15.65,5.09,5.09,0,0,1-1.39-4.28c2-7.27-4.72-11.44-6.24-17.57-.84-3.35-4.59-6.33-3.89-10.8.79-5.06-3.41-7.22-6.28-9.82s-7.6-1.39-10.37-5.28c-2.21-3.1-5.44-5.13-9.65-6.64-5-1.79-10.87-6.56-12.35-11.29-2.41-7.76-7.82-12.2-13-17.09-4.25-4-2.93-11.05-8.44-14.07,3.74-8.12-5.37-12.9-5.31-20.41,0-4.29-3.61-8.49-4.53-12.95-.82-4,.48-8.42-.34-12.42-.92-4.46-3.87-8.52-4.64-13-.84-4.85-.19-10-.19-14.95C1001.44,361.36,1008.71,348.29,1006.31,338.52Z"/><path d="M305.52,613.28c.8-5.42-2.08-11.39,3.68-16.16,1.78-1.48,1.55-6.17,1.21-9.27-1-9.1,1.3-17.4,5.12-25.45-3.15-9.43,6.88-16.11,5.31-25.49-.38-2.3,3.1-5.2,4.69-7.89,3.53-6,5.29-13,10-18.35-2.9-7.26,3.13-12.06,5.17-17.88,1.78-5.05,3.92-10.91,7.81-14.07,6.62-5.4,6.7-15.12,14-19.33,7-4.06,7-12.4,12.18-17.63,5.66-5.74,13.05-10.11,15.95-18.33,2.59-7.35,9.61-11,14.24-16.61-1.07-9.12,8.79-7.27,12.12-12,3.15-4.5,9.78-6.76,8.8-13.88,4.42-3.26,10.32-3.77,14-8.73,3.44-4.64,8.11-8.36,12.24-12.49,7.07-7.07,15.85-13.15,20.73-21.51,4.61-7.91,10.43-14.16,16.34-20.69,1-1.06.88-3,1.68-4.27,3.71-5.95,4.79-13.44,10.75-18.07s5.09-13.83,12.39-17.37c1.75-6.42,7-10.58,10.18-15.87,2.86-4.74,5-9.75,9.15-13.71a8.87,8.87,0,0,0,2.37-6.37,11.2,11.2,0,0,1,4.82-10.59c4.27-3.23,6.35-7.17,5.46-12.8-.79-5,7.05-7.06,4.93-12.93-2.3-6.36,7.24-8.55,5.25-15.5-1.25-4.38-1.58-9.92,3.7-13.38.93-.61.91-2.93,1-4.48.36-5.72.53-11.45.92-17.16,0-.63,1-1.4,1.71-1.75,7.27-3.59,6.71-12.64,12.32-17.47a105,105,0,0,0,10.58-10.62c1.62-1.85,2.43-2.29,3.61-.32,2.68,4.44,7.18,2.78,11.05,3.62,3.66.8,6.94,3.27,10.48,4.79,6.64,2.85,10.47,7.25,9.5,15a44.5,44.5,0,0,0,0,10c.54,5.33-.58,9.66-5.3,12.86-13.62,9.26-16,29.91-19.46,44.39-1,4.28-1.91,7.9-5.36,10.29-4.77,3.3-5.5,7.79-5,13,.39,4.17.36,8.18-3.75,11-5.23,3.56-7.15,8.61-6.27,14.9.78,5.65-.31,10-7.59,8.91-2.47,3.15-7.29,6.61-6.92,9.39.87,6.63-4.91,10.1-5.35,15.5-.41,5-4.65,6.58-7.27,9.5-4.38,4.88-10.13,8.79-8,16.83.26,1-1.44,2.72-2.52,3.84-3.45,3.61-7.35,6.84-10.49,10.71-2.91,3.6-2.38,9.17-7.11,12.08-11,6.73-12,20.19-19.26,29.57-2.12,2.73-.21,8.52-2.26,11.4-3.81,5.36-9.31,9.5-13.84,14.38-2.88,3.11-7.79.95-10.55,5.13-2.61,4-7.94.35-11.52,2-2.76,1.3-4.13,4.49-8,5-2.74.36-6.39,3.05-7.39,5.58-2.44,6.18-6.36,10.85-10.72,15.65-4.22,4.64-9.59,8-11.84,15.09-1.79,5.66-9.54,9.16-12.76,14.72-2.78,4.81-3.94,11.39-9.28,13.29-4.06,1.44-8.08.94-7.44,6.81-7.6,9.07-8.42,22.37-18.64,29.8-2.7,11.31-13.71,19.66-11.56,32.82.31,1.92-1.5,4.31-2.61,6.32-4.18,7.67-8.68,15.16-7.28,24.53.77,5.13-6.54,6.94-5.18,13,1.08,4.76.08,10,.25,15,.25,7.32-7.26,12.16-5.37,20.51,1.62,7.14,1.25,15.09,0,22.39-.85,5.08-4.65,9.67-7.13,14.47-4.88-1.21-7.23,2.69-10.49,5a5.14,5.14,0,0,1-4.74-.2c-6.65-4.95-10-12.57-12-19.92-1.85-7-.45-14.88-.47-22.38C303.36,626.75,306,619.59,305.52,613.28Z"/><path d="M610.86,429.57c-1,4.57,2,9.72-2.34,14-3.95,3.87-3.6,10.47-8.82,13.92a40,40,0,0,0-8.85,8.77c-3.43,4.37-9,6.57-10.39,13.26-1.07,5.12-6.16,9.33-4.64,15.51-6.31,4.29-2.52,13.54-6.64,17-6.24,5.2.26,13.57-6.64,17.63-3.55,2.08-1.93,6.23-1.55,9.19.7,5.65-1.42,9.45-5.53,12.86-1.83,1.51-4.63,3.85-4.43,5.5,1.57,12.78-12,20.66-10.49,33.44.19,1.61-4.67,4.15-4.29,5.39,2.07,6.82-8.31,8.74-5.59,15.4-5.8,3.22-3.45,6.9-.6,10.61-5,2.46-2.77,9.54-7.14,12-7.11,3.95-6.42,12.92-12.17,17.57,2.54,7.15-3.18,12-4.91,18-.87,3-.45,6-2,9.22-3.25,6.91-9.71,12.86-8.12,21.63-3.29,3.52-4.49,8.1-6.48,12.31s-7.17,6-8.81,11.4c-2.22,7.3-6.39,14-9.74,20.95-2,4.18-5.26,7.38-5.42,12.93a23.52,23.52,0,0,1-6.23,14.61c-4.42,4.47-2.37,9.21-3.53,13.73-.74,2.9-4.51,4-5.06,8-1,7.09-8.73,9.44-12.31,14.86-3.22,4.89-7.91,4.68-13,5.13-5.77.51-9.53-1.75-12.65-5.88-2.38-3.15-7.52-4.61-6.82-9.63.87-6.39-1.92-12.85,1.74-19.3,4.17-7.36,9.58-14.5,9-23.76,5.21-4.07,4.72-12,10.59-15.65,3.08-1.92,4.2-4.83,3.69-8.49-.18-1.24,7.83-17.76,8.71-18.87,4.46-5.69,9.63-15,11-22.9.65-3.76,2.55-6,4.95-8,4.12-3.44,6.58-7.3,5.32-12.87-.18-.79-.35-2.18,0-2.41,6-3.68,4.67-11.89,10-16-3.08-7.3,3.17-12.11,5.33-17.81,2-5.14,4.44-9.66,5.22-15.49.54-4,4.82-7.57,4.79-13,0-3.47,3.57-6.81,4.52-10.48.81-3.12.48-6.66.08-10s2.11-4.24,3.61-6c6.95-8.44,18.58-32.18,21.58-43.61.57-2.19,2.41-4,3.11-6.2,2.35-7.37,9.31-13.33,6.83-22.19-2.63-9.39,7.69-15.92,5.59-25.2,7.62-3.52,3.17-11.67,6.73-17.3,7-11,11.86-23.37,17.73-35.11,4.94-9.87,14.52-15.57,21.62-23.52,2.32-2.59,15.11-1.24,18.41,1.53,2.55,2.13,4.56,6.39,7.16,6.68,6.19.7,8.84,2.85,7.91,9.16A53,53,0,0,0,610.86,429.57Z"/><path d="M971.24,741.11c-3.77-8.54,6.26-14,5.46-22.66-.52-5.72,6.93-8.54,10.49-12.92,2.58-3.18,6.2-1.46,9.31-1.54,9.66-.28,9.48.33,20.5,4.68,4.26,1.68,4.52,4,4.29,7.28a10.28,10.28,0,0,0,3.09,8.81,7.78,7.78,0,0,1,1.73,6.53c-.91,2.85-5,3.86-4.87,8,.35,9.12.22,18.26.29,27.39,7.91,3.39,2.1,12.55,7.1,17,3.75,3.33,2.74,8.81,6.78,12.38,3.35,2.95-1.18,9.45,3.67,13.37,4.54,3.68,1.26,9.35,2.36,14a12.91,12.91,0,0,0,3.1,6.14c3,2.93.91,7.83,5.07,10.58,4,2.64,0,8.29,2.11,11.42,2.27,3.4,5.35,5.85,4.81,10.65-.24,2.09,1.29,4.37,2,6.57,1.93,5.9,8,10.67,7.46,16.71-.62,7.19,5.75,10.84,6,17.91s6.75,13.68,9.07,21c1.44,4.5,7.3,7,5.33,12.85-1.63,4.86,3.44,6.86,4.93,10.41,1.78,4.26,2.89,8.87,5.16,12.83s3.87,8.71,6.43,12.24a16.94,16.94,0,0,1,3.5,11.17c-.09,4,.1,7.47,2.9,11.36,4.13,5.73,2.79,10.69-1.47,15.08-2.32,2.38-4.65,4.77-7.07,7.05-4.24,4-9.48,1.1-14.19,1.92-4.14.73-5.82-2.88-7.72-5.22s-1.76-6.38-3.82-8.26c-4.89-4.46-3.6-12.66-10.4-15.85-3.37-1.58-3.47-5-3.45-8.54a12.09,12.09,0,0,0-2-6.59c-2.29-3.31-6.17-5.78-7.72-9.32-4.36-10-9.77-19.32-14.68-28.94-2.28-4.47.21-11.36-5.52-15.15,2.07-5.76-5.91-7.62-5-12.92-6.45-6.44-3.31-17-10-23.33,1.8-6.27-4-10.29-4.67-15.46s-7.28-7-5.4-12.89c1.55-4.79-4.47-7.45-4.51-10.4-.14-9.42-6.88-16-8.76-23.92-2-8.35-8.38-15.59-6.7-24.82.83-4.51-1.84-7.33-4.2-10.82-2-3-1.21-7.71-2.18-11.54-.35-1.38-2.9-2.2-3.27-3.6-1.45-5.44,2-12.14-2.09-16.52S971.71,746.1,971.24,741.11Z"/><path d="M673,845c-5.53-2.68-11.86-4.42-16.42-8.25-8.27-6.93-15.45-15.16-23.18-22.74-3.48-3.42-2.05-9.61-7-12.1,2.48-9.34-8.36-15.79-5.45-25.24,2.16-7-3.28-12-4.72-18-1.33-5.52-.27-11.6-.28-17.43,0-6.66.1-13.32-.17-20-.1-2.5-7.1-3-2.61-7,4.17-3.7-.17-4.81-1.3-7.21-1.34-2.84,7-4.91,1.06-8.81-3.5-2.31-1.88-6.06-1.91-9.15-.17-13.33.72-26.73-.39-40-.61-7.25,6-11.15,5.44-18a147.89,147.89,0,0,1,.06-20c.06-1.23,3-2.21,3.24-3.56,1.36-6.91,6.84-12,7-19.79.18-7,14.94-25.73,21.49-28.1,4.91-1.77,11.88-1.89,16.45.32,8.39,4,17.39,8.31,21.69,17.77,1.59,3.51,4,6.81,4.82,10.47,1.07,4.92-3.79,7.14-6.74,9.48-4.2,3.32-2.09,9.39-6.83,12.4-3.43,2.17-7.13,5.24-8.68,8.79-2.75,6.32-7.83,11.54-7.75,19.34.34,31.66.6,63.33-.18,95-.2,7.85,6.84,12.5,5.57,20.47-1.16,7.31-.24,15-.24,22.46,8.51,3.19,2.74,12,6.81,17.21,3.86,4.93,5,11.56,10.61,15.67,4.65,3.4,8.36,8.09,12.47,12.22,4.33,4.34,4.44,4.4,3.19,7.06-1.65,3.49-3.51,6.88-5.27,10.31C686.49,838.7,681.53,847.4,673,845Z"/><path d="M490.73,1119.79c1.12,5.4-2.06,8.78-5.31,12.73-3.86,4.68-9.08,6.17-14,8.7-9.84,5.09-16.85,4.52-23.82-2.38-3.54-3.51-7.35-6.82-10.44-10.69-1.23-1.55-1.92-5.58-1-6.46,8.14-7.61,3.56-16.86,3.85-25.45-8.6-7.31-2.86-17.09-4.25-25.64-.77-4.75.58-9.75-4.33-13.36-1-.72-.77-5.38.42-6.35,6.51-5.32,2.88-12.32,3.77-18.52-8-4-1.88-14.22-8.31-19.07a4.92,4.92,0,0,1-1.58-4.18c2.12-7.85-6-12.52-5.45-20.43a299.75,299.75,0,0,0,0-44.85c-.51-6.68,5.33-9.73,5.39-15.41s-.43-11.66.75-17.2c.59-2.72,4.27-6.55,6.78-6.73,5.48-.4,12-2.77,16.55,1.55,4.19,4,10.94,2.84,14.11,8.56,2.25,4,8.37,5.88,6.91,12.12,7.92,5.3,4.28,13.24,4.61,20.27-6.3,3.74-4.75,10-4.57,15.51.13,3.82-2.89,5.66-3.91,8.4-1.29,3.45-.82,7.8-.19,11.61.34,2.09,3.27,3.68,3.85,5.82,1.44,5.3-2.41,11.46,2.93,16.29,4.34,3.93,2.08,9.35,2,14-.06,5.28,6.47,7,5.46,12.94-.75,4.41-2.15,9.79,2.93,13.71,1.44,1.12,1.7,4.35,1.73,6.62.15,12.47-.32,25,.21,37.4.34,7.78-3.37,16.53,4.7,23.09C491.78,1113.4,490.73,1117.19,490.73,1119.79Z"/><path d="M497.34,929.16c6.14,0,12.81-.92,19.07.28,5.17,1,9.16,6.09,15.49,4.91,2.36-.44,3.87,1.77,4.08,4.85.14,2.07,2,4.16,3.4,6,2,2.57,6.51,5.57,6,7.23-2.22,7.56,4.93,11.76,5.33,18,.32,5-.33,10,.17,15,.63,6.31-2.16,13,2.44,19,5.73,7.4,5.9,18.39,14.25,23.93,6.61,4.39,7.86,11.94,11.89,17.76,2.55,3.69,3.67,8.49,7.36,11.87,4.89,4.47,9.36,9.4,14,14.13-2,9,10.07,9.91,10.3,18.32.18,6.4,10.84,7.74,9.72,15.84,5.49,3.91,4,12.23,10,15.83-1.48,6.31,4.28,8.31,7.18,12,3.7,4.68,4,11.36.36,15.28a86.48,86.48,0,0,1-8.86,8.79c-4.35,3.54-12-1.71-15.23,5.34a70.83,70.83,0,0,1-7-5.16c-4.27-4-8.05-8.48-12.48-12.23-3.61-3-3.43-6.81-4.26-10.83-1.08-5.16-2.87-11.2-6.48-14.58-7.81-7.3-10.15-18.33-19-25-4.1-3.06-5.78-9.18-9.11-13.49-3-3.9-6.79-7.21-10.23-10.77,1.59-6.32-4.87-9.41-6.22-15-1.29-5.36-9.4-8.52-9.92-15.75-9.9-8.59-12.69-21.37-19-32.06-6.6-11.17-12.32-22.45-9.81-35.85,1.33-7.08-6.85-10.58-5.37-18,1.28-6.4.19-13.26.32-19.92C495.82,933.36,496.57,931.88,497.34,929.16Z"/><path d="M300.51,91.36c0,3.32-.35,6.7.08,10,.73,5.52-2.74,11.82,2.15,16.51,5.78,5.54-.57,14.16,3.78,18.2,5.32,4.94,1.78,11.38,5.13,15.47a15.3,15.3,0,0,1,4,11c-.23,9.14-.07,18.29-.07,27.43,8.75,9,5.27,20.32,4.49,30.31-.64,8.18,5.62,13.19,5.52,20.42,9,7,3.68,16.82,4.77,25.36.08.64-2.4,2.17-3.8,2.32a97.24,97.24,0,0,1-10,.11c-19,.06-18.87-.07-32-13.25-3.24-3.25-5.51-6.85-3.9-10.76,3.18-7.75-5.75-11.25-5.29-18s.1-13.3.1-19.95c-9.41-8.84-4.49-20.24-4.57-30.35-.06-7-3.73-12-5.16-17.95-1.31-5.5-.28-11.57-.28-17.39-10.37-5.2.06-18-8.73-23.84a2.9,2.9,0,0,1-1.22-1.94c-.09-6.65-.66-13.38.11-19.94.74-6.26-6.54-8.57-5.54-15.45,1.43-9.77.25-19.91.4-29.88.12-8,10.19-14.7,17.58-11.31,4.92,2.25,9.36,5.6,13.83,8.73,2,1.41,3.37,3.74,5.37,5.19,10.07,7.32,13.15,12.16,13.23,21.54C300.55,79.72,300.51,85.54,300.51,91.36Z"/><path d="M125,178.31c4.16,0,8.35-.26,12.47.15,1.31.13,2.26,2.65,3.67,3.06,6,1.74,10.49,6.87,17,7.15,2.39,4.84,7,9.82,6.66,14.49-.45,7.25,6.72,11.12,5.68,17.87,9.84,7.53,13.26,20,22.73,28.23,14.42,12.53,27.07,27.07,41,40.23,5.46,5.17,6.77,12.41,11.21,17.92-2.39,8,3.67,11.85,8,16.69,3.1,3.45,2,9.44,6.86,12-1.48,1.77-3,3.53-4.46,5.3,3.9,2.79,4.07,4.78.72,9.12-2.68,3.47-1.7,9.34-9,8.13-4.87-.8-10-.42-15-.06-3.72.27-6.16-1.16-8.48-3.81-2.73-3.12-5.8-6-8.71-8.9,2.12-9.1-9.54-10.1-10.41-18.29-.73-6.84-11-9.48-10.85-17.87-4.71-4.71-9.16-9.73-14.23-14-2.87-2.43-7-3.33-10.13-5.51-2.68-1.88-4.43-5.17-7.2-6.86-7.43-4.54-7.41-14.11-13.95-19.37-5.8-4.67-12-9.71-15.73-15.93-6.75-11.17-11.84-23.36-17.62-35.12,2.57-7.84-6.09-12.28-5.41-20.44C111.33,175.36,108.59,178.68,125,178.31Z"/></svg>