<svg id="Layer_1" data-name="Layer 1" xmlns="http://www.w3.org/2000/svg" viewBox="0 0 1200 1200"><title>BB_Artboard 12</title><path d="M826.69,606.18c-17.67-91.36-15.11-90.75-15.13-90.24-.26,6.37,8,9.87,5.65,16.8-2,6.1,4,9.65,4.62,14.73.66,5.48.15,11.11.15,16.67,8.12,3.06,2.36,11.65,6.52,16.4a14.4,14.4,0,0,1,3,5.88c1.48,6-2.75,12.91,2.27,18.09,4.75,4.91,0,11.72,2.91,15.41,5.53,7.08,3,14.82,4.74,22.05s6.25,13.91,4.46,21.93c6.35,5.33,5.83,12.91,4.43,19.4-1.45,6.73,7.36,8.2,5.37,14.86-1.3,4.35-.19,9.43-.15,14.18,7.69,5,4.06,12.86,4.5,19.53.23,3.51,1.8,5.59,3.74,8.11,1.09,1.4.87,4.27.4,6.29-.42,1.83-2,3.4-3,5.08,6.76,3.11,1.69,10.37,5.15,14.52a4.53,4.53,0,0,0,4.13,1.09c2.7-1.17,5-3.31,7.65-4.57,4.65-2.17,10.54-2.87,14-6.2,4.22-4.1,10-1.39,12.7-3.78,4.21-3.78,9.94-3.57,13.88-7.52,1.72-1.73,5.85-1.89,8.71-1.48,5.46.77,8.91-1.66,12.18-5.42,1.47-1.69,3.43-3.86,5.36-4.08,4.61-.54,9.56.63,12.55-4.39,5.33,1.17,7.58-5.21,12.08-5.2,5,0,6.77-7.07,12.33-4.92,3-8.08,11.45-2.64,16.39-6.59,4-3.18,8.75-7,13.46-7.4,14.81-1.37,25.21-12.28,38.64-16.31,3.61-6.63,12-.07,16.66-6.45,2.59-3.55,9-5.1,13.9-5.91,4-.67,7.62-1,10.13-4.48,5.35,1.21,7.57-5.22,12.09-5.2,5,0,6.77-7.07,12.33-4.91s8.12-3.5,12.17-5.13a217,217,0,0,0,33.4-17c4.49-2.81,9.83,1,13-3.16,3-3.89,6.75-3.34,10.63-3.28.58,4-3.32,5-5.09,7.42-3.65,5-10.75-.65-14.74,5-2.54,3.56-5.49,8.06-11.35,6.87-2.32,4.83-8.45,3.42-11.43,6.82-3.23,3.66-7.56,1.32-10.84,2.74a61,61,0,0,0-15.22,9.16c-3.78,3.24-7,5.87-12.35,5.07-4.76-.71-6.8,6.53-12.23,4.88-9.17,6.33-19.45,10.51-29.31,15.53a34.55,34.55,0,0,1-10.54,3.55c-3.49.57-6.67,3-10,4.56-4.64,2.23-10.14,3.57-13.69,6.95-4.23,4-9.16,1.05-13.09,3.21-4.57,2.51-8.7,7.6-13.28,7.93-8.84.62-15.3,5.56-22.74,8.8s-14.93,6.46-21.57,11.27c-5.85-1.31-8.17,6.54-14.81,5.19-3.63-.75-8.79,1.93-12.09,4.55-4.61,3.67-9.17,5.46-14.88,4.57-6.2,5.61-14.13,8.15-21.52,11.4-6.68,2.94-12.27,9.14-20.69,7.83-1-.15-3.34,1.81-3.25,2.56,1.17,9-3.45,18.84,3.35,27.23.41.5-.54,2.19-1,3.29-.81,2-3,5.28-2.35,5.92,6.93,7.26,4.35,16.15,4.5,24.44.27,14.31-.35,28.64.29,42.93.26,5.85-3,8.74-6.51,11.6-1.35,1.09-4.8,1.27-6.22.3-7.82-5.36-12-13.73-15.92-21.94-1.53-3.18.76-7.45-2.59-10.92-2.45-2.54-3.65-6.35-5.16-9.71-.91-2-2.41-4.62-1.79-6.26,3-7.88-5.66-12.48-5.09-19.55.05-.51-1.3-1.7-1.56-1.58-1.12.51-2.92,1.35-3,2.12-.22,7.15-.13,14.31-.13,21.46,7.3,8.74,4.37,19.19,4.7,29,.32,9.53.18,19.08,0,28.62-.05,2.54-1.63,3.93-4.59,4s-4-1.42-4.92-3.77c-2.27-5.73-2.35-5.7-5.93-2.29a19.09,19.09,0,0,1-1.7,1.67c-1.65,1.21-4.3,3.67-4.89,3.26a26.42,26.42,0,0,1-6.4-6.76c-.74-1.09.05-3.12-.15-4.69-1.22-9.73,3.5-20.45-4.74-29v-31c0-6.36.16-12.73-.08-19.08-.1-2.51-1.66-4.37-4.66-3.8s-5.76-.52-9,1.44c-8.79,5.35-18.27,9.51-27.52,14-3.5,1.71-6.48,3.18-10.44,3.79-7.46,1.14-11.75,7.26-14.84,13.3-1.61,3.16-2,9.27,0,11.52,6.66,7.63,4,16.27,4.38,24.53.36,7.46-1.78,8.88-10.29,7.62-1.36-.2-3.59-1.36-3.66-2.22-.4-4.73,1.47-10.62-.71-14-2.7-4.16-4.44-7.64-4.45-12.62,0-9.35-.32-9.2-8.71-9.32-4.83-.07-9.51-.25-12.42,4.61-6.31-2.47-8.26,7.64-14.6,5.06-4.41,2.81-8.52,6.36-13.29,8.21-4.22,1.64-7.92,3.94-11.86,6-4.57,2.33-10.5,3-13.91,6.35-4.26,4.18-9,1.95-13,3.54-3.33,1.31-5.41,5.62-10,4.62-4.64,5.41-11.78,6.16-17.57,9.42-6.94-2.85-10.07,7.38-17.14,4.87-3.57-1.27-5.7,2-7.65,4.31-3.26,3.87-6.83,6.09-12.23,5.23-4.8-.77-6.79,6.6-12.25,4.84-2.45,3.3-7.16,3.4-9.5,5.44-4.14,3.61-8.4,3.07-12.78,4.21-4.85,1.28-9.33,4.43-13.61,7.3-3.73,2.5-9.24,1.84-11.57,6.66-5.53-.28-11.05-.57-14.7,4.85-5.48-1.95-8.14,3.58-12.12,5.27-5.6,2.38-10.91,4.64-17,5.13-.54.05-1.47,1.14-1.39,1.6.12.64,1,1.66,1.57,1.63,9.73-.5,20.05,4.72,29.12-3.56,1.76-1.61,6.07-.52,9.21-.51,5.45,0,10.36.24,15.07-4.43,2.55-2.53,8.2-.16,12.89-3.23,5.18-3.38,12.53-3.69,18.68-6.46,2.42-1.09,7.28-1.39,8.08,2.13.39,1.67-3.74,6.15-6,6.31-6.29.44-11.36,3.37-17,5.26-4.27,1.44-8.42,1.55-12.49,4.81-3,2.4-9.4-1.6-12.65,3.74a2.79,2.79,0,0,1-1.78,1.33c-4.77.11-9.54-.07-14.31.1-4.52.16-8.75-.54-13.12,3.25-2.82,2.45-8.9,1.25-13.53,1.45-7.07.31-14.14.43-21.22.63-4.51,6.7-11.64,2.69-17.27,4.42-4.14,1.27-7.1,5.37-12.44,4.66-5.57-.74-7,6.26-11.07,7.58-10.54,3.37-18.78,13.09-31.09,11.34-3.69-.53-5.61,1.88-7.91,4-6.19,5.76-13.25,9.77-21.94,10.37-1.41.1-3.55.58-4,1.53-2.12,4.37-7.6,1.7-9.93,5-2.84,4-7,2.37-10.71,3.09-2,.4-4,2.12-5.56,3.68-3.37,3.35-6.37,7-12,5.8-1.32-.28-3.53.07-4.24,1-5.39,6.94-13.44,9.55-20.83,13.22-6.59,3.28-13.27,6.36-19.89,9.57-2.41,1.18-5.63,4.1-6.95,3.39-2.66-1.43-4.67-3.35-8.16-3.63-2.79-.23-4.1-5.61-2.27-7.53,3.29-3.45,6.17-8.36,10.23-9.77,6.25-2.17,9.72-8.1,14.94-10,5.54-2,9.19-5.28,13-9,4.58-4.42,8.95-9,13.54-13.46,3.81-3.67,9.45-4,13.41-8.23,5.09-5.45,13.51-6.91,18.12-13.65,4-5.81,12.67-5.19,16.66-11.77,2.33-3.85,11.19-1.84,9.66-9.93,4.64-2.22,9.13-5,14-6.46,2.61-.79,4.45-1.55,4.5-4.1.06-3,.26-6.58-1.17-9a30.63,30.63,0,0,0-8.3-8.46c-4.45-3.26-4.64-7.5-5-12.39-.2-2.57-3-5.15-5.08-7.31-3.21-3.34-7.68-2.68-8.79,1.68-.81,3.17-1.15,4.85-5,6.29-6.13,2.31-12.92,4.29-17.36,9.9a4.86,4.86,0,0,1-1.7,1.65,120.19,120.19,0,0,0-17.72,8.88c-5.06,3-9.7,6.88-15,10-7,4.17-16,4.93-21.44,11.59-5,6.12-14.21,6.22-18.45,13.37-.57,1-2.81.81-4,1.57-5.2,3.27-11.1,4.06-16.75,5.8-5.21,1.59-8.32,8.38-15,9.89-2.5.57-4.56,3.37-8.09,3.49-7.73.28-12-.67-12.41-3.47-.67-4.87,3.23-6.81,5.81-9.53,4.39-4.6,8.67-9.39,13.55-13.42s7.19-10.56,14.12-11.89,9-8.46,14.21-11.77c1.83-1.16,4.35-1.32,6-2.6,6.61-5,15.72-6.6,20.29-14.35,3.42-5.81,11.19-4.48,15.1-10a29.11,29.11,0,0,1,14.61-10.55c4.7-1.64,6.95-7.23,13.18-8.69,5.2-1.22,7.86-9.28,15-9.7,1.19-.07,2.81-1.91,3.29-3.26,2.27-6.42,15.2-2.42,12.8-13.43-1.28-5.83,2.38-12.46-3.83-17.68-1.67-1.4-.54-5.92-1.13-8.93-.24-1.24-1.6-2.26-2.46-3.38a17.74,17.74,0,0,0-1.67,1.69c-3.82,5.07-9.8,7-14.68,10.43a107.76,107.76,0,0,1-13.3,8.36c-6,3-11.87,6.33-17,11.26-3.95,3.79-11.7,3.62-15.64,7.41-3.31,3.18-3.77,9.33-10.18,9.47-2.91,5.14-10.67,2.69-13.21,8.43s-10.21,3.4-13.2,8.44c-3.39,5.68-11.44,4.85-14.78,10.18-3.61,5.77-11.14,4.57-15.21,9.89-3.59,4.69-7.41,10.31-14.68,10.29-6.21,5.64-10.86,13.32-19.95,15.18-8.17,10.64-21.81,14.73-30.13,25.25-2.15,2.71-4.73,3-8,.22a15,15,0,0,0-8.22-3.53c-1-.16-2.81-4.78-2.09-5.76,3.25-4.38,6.62-10.27,11.18-11.7,6.56-2.07,10.17-6.66,14.73-10.62,8.6,1.8,9.69-9.55,17.47-9.8,6.5-.2,7.37-10.2,15.15-9.63,1.66.12,3.61-2.63,5.29-4.2,5.17-4.84,10.28-9.76,15.41-14.65,8.31,1.36,9.21-10.74,17.53-9.68,1.08.13,2.37-1.76,3.61-2.63,5.55-3.9,8-12.2,16.57-11.82,5.06-5.06,10.54-9.78,15.05-15.28,3.66-4.46,10-3.16,13.54-8.19s8.79-9.13,13.29-13.63c3.93-3.94,7.53-8.32,11.89-11.7,5.35-4.14,12-6.27,16.59-11.83,5.48-6.65,11.72-12.68,17.62-19,0-8-.58-16,.19-23.84.58-6-2.58-10-4.91-14.76-3.1-6.28-5.27-7.43-9.24-3.36-7.57,7.75-18.72,10.83-25.33,20-1.25,1.74-5.68,1.46-8.67,1.61s-3.88,1.56-4.6,4.09c-.57,2-1.94,5.24-3,5.25a9.33,9.33,0,0,0-7.92,4.14c-6.27,8.31-18.39,7.27-24.66,15.23s-17.32,10.14-23.53,18.4c-.63.85-3.24,0-4.35.75-6.75,4.66-15.62,6.45-21.22,11.6-5.83,5.36-14,6.47-18.76,13-3.71,5.11-10.25,6.29-15.58,8.31-4.14,1.57-6.68,5.57-12.14,5.78-4.49.16-9.07,4.76-13.15,8a81,81,0,0,0-10.14,10.07c-3.31,3.76-6.79,6.41-12.19,5.26-3.89-.84-5.39,4.83-7.49,4.41-6.4-1.28-8.48,5.9-14.62,6-4.45.07-8.7,5.3-13.25,7.84-3.84,2.14-8,3.74-12,5.56-4.69,2.12-9.49,4-14.06,6.35-9.78,5-10.59,4.94-20.53-4.49,5.18-4.8,9.73-10.62,15.66-14.07,5.25-3,1.17-14.31,11.34-11.82l15.18-15.18c5-5.06,9.49-11.08,15.35-14.91s11.88-6.73,16.4-12.08c7.3.07,10.67-5.86,14.79-10.21,4.84-5.11,13.3-4.76,16.83-12l-7.78-6.92c-.81-1.74-1.43-2.66-1.28-2.81,4.43-4.57,8.94-9.05,13.81-13.92,0-20.25-.18-40.87.14-61.49.07-4.56-1.73-7.38-4.83-10l4.48-5.06c-8.84-7.66-3-17.82-4.48-26.74-1.7-10.46,3.52-21.79-4.63-31.59-1.56-1.88-.22-6.18-.22-9.36,0-22.26.14-44.53-.1-66.79-.07-5.95,2.62-12.83-4-17.49a11.87,11.87,0,0,1,2.09-3.2c3.61-3.25,1.93-7.46,1.77-11.12-.12-2.85-4.78-3.63-4.65-7.58.28-8.74.09-17.49.09-26.24,9.4-8.39,4-19.33,4.53-29,.88-15.85.24-31.79.24-47.69,0-4.77.73-9.69-.19-14.28-1.13-5.62,5.32-7.25,5.08-12.38-.44-9.52-.2-19.07-.1-28.61.08-7.6-1.94-15.7,4.75-21.88,0-5.57-.13-11.14,0-16.7.16-5.29-1.81-11.25,4.17-14.95l-3.93-5.06c6.91-5.21,4.12-12.7,4.43-19.38.3-6.35.3-12.73,0-19.08-.31-6.75,2.53-14.38-4.7-19.49-.85-5.94,2.73-12.79-3.68-17.56-.17-8.52-.83-17.07-.18-25.52.18-2.35,3.93-5,6.62-6.35,1.45-.72,4.33.66,6.23,1.69,6.89,3.77,7.55,3.93,11.51-1,3.72-4.67,5-10.69,8.15-15.68a75.67,75.67,0,0,1,5.41-7.3c1-1.16,10.44-2.7,11.08-1.71a14.53,14.53,0,0,1,2.46,6c.56,5.28-1.59,11.25,4.41,14.91.15,5.5.55,11,.39,16.5-.14,4.85,3.74,6.75,6.47,9.19s5.66,1.19,8-1.46c3.81-4.24,8.88-2,13.36-2.18,4.77-.21,9-.09,12.69-4.38,1.42-1.67,6.51.24,7.09-3.88.43-3,.87-7.53-.79-9-4.38-3.8-2.75-8.62-4.16-12.78s-5.6-7.2-4.56-12.47a5,5,0,0,0-1.24-4.12c-4.42-3.5-2.9-10.53-8.2-13.37,0-6.36-.26-12.74.1-19.08.21-3.73-2.35-9.08,1.88-10.84a22.28,22.28,0,0,1,13.85-.51c3.16.92,7.1,4.82,7.62,7.91.76,4.58,3.84,6.53,6.18,9.47,1.21,1.52,2.72,1.48,3.29-.69.94-3.65-.14-9.14,2-10.9,7.48-6.06,9.08-16,16.38-22.22,3.73-3.18,9.44-1.59,11.8-6.45a2.58,2.58,0,0,1,1.8-1.26c1.53-.09,4-.38,4.47.39,5.2,8.51,15.34.76,21.21,6.65q14.29,14.38,28.65,28.69c-1.52,6.06,3.64,8.38,6.87,11.4,3.54,3.3,2.1,8.88,6.55,11.76,3.27,2.12,5.44,5.86,8.6,8.2s-.18,9,5.3,9c5.21-.06,11.05,2.65,15.69-2.24s10.52-1.33,15.73-2.33c4.52,5.81,11,4.91,17.1,4.72s12.85,2.09,17.13-4.66c4.77,0,10.7,1.71,14-.5,4.16-2.79,7.67-4.41,12.62-4.48,5.19-.07,10.57,1.74,15.41-3.27,4.47-4.64,12.82,2.15,17.36-3.66,4.08-5.21,11,.46,14.88-4.85,1.08-1.48,3.94-2.08,6.07-2.29,5.29-.54,11.25,1.47,14.83-4.56l14.19-.3c5.69-9.73,19,.18,24.67-9.55,5.26-.93,11.39,2.54,15.79-2.06,4.8-5,10.59-2.95,15.6-2.42,7.47.79,11.85-8.28,19.52-5.06a24.17,24.17,0,0,1,14.7-5.22c2.77-.13,5.75-4.73,7.7-7.89.7-1.13-1.37-4-2.18-6-.44-1.12-1.57-2.87-1.21-3.27a132.11,132.11,0,0,1,10.12-10.1c.32-.29,2.38.86,3.21,1.74,2.08,2.16,5.26,3.74,4.63,7.6a14.66,14.66,0,0,0,0,2.39c0,3.18-.15,6.91,4.47,6.36,7.41-.88,16,3.51,21.89-4.68,6.69-.38,13.94,1.72,19.33-4.39l6.75,6.74c-3,2.61-5.43,5.4-5.18,9.84,0,.64-2.38,2-3.71,2-4.75.24-9.69.86-14.27-.08-8.26-1.69-13.49,8.45-22,5.2a37.6,37.6,0,0,0-2.48,5.7c-1.73,5.33,3.74,8.07,4.62,12.35.91,4.51-.55,10.1,1.63,13.58s3.41,6.66,3.29,10.66c-.14,4.77.21,9.56-.11,14.31-.26,4,3,5.27,4.93,7.5a5.53,5.53,0,0,0,3.18,1.35c4-6,10.07-3.23,15.27-3.58,3-.19,7.05-.26,8.7,1.46s1,5.78,1.41,8.81a6.82,6.82,0,0,0,.59,2.13c1.08,2.2,2.14,2.2,3.37.23,3.27-5.21,8.52-2.76,13-3.15,6.78-.6,11.81-5.16,11.58-11.65-.24-6.74,2.71-14.42-4.68-19.49.53-4.46-1.79-9.51,3.39-13,4.92-3.28,6.34-8,6.55-14.1.1-2.88,4.52-5.61,7-8.42,2.32,4.85,9.77,3,11.13,6.89,1.71,4.83-.36,11,5.34,14.51q.06,9.51.11,19c6.81,4.29,4,11.17,4.74,17.15.16,1.36,1.2,3.62,2,3.71,2.08.24,5.42.23,6.24-1,4.13-6.21,11.69-7.1,16.79-11.66,2.8-2.49,4.73-7,9.42-5.76,2.76.76,5,3.26,7.63,4.57,6.9,3.4,7.39,6.14,1.69,11-1.71,1.45-3.1,2.88-5.69,3.6a46.11,46.11,0,0,0-13.86,6.67c-4.31,3-7.09,8.08-13.3,8.45-1.89.11-.77,1.55.24,3.31,4.28,7.44,4.7,8.13.59,14.33-2.53,3.82-3.69,8.76-2,10.77,6.39,7.64,4.08,16.22,4.42,24.52.3,7.18,4,11,9.91,7.67,7.76-4.39,18.52-2.66,23.87-11.78a5.08,5.08,0,0,1,3.8-2.07c4.87.14,9.49.1,12.4-4.73,4.56.9,7.14-2.18,9.89-4.92,6.18,2.35,8.26-7.45,14.75-4.85,5.25,2.11,7.45-4.21,12.21-5.15s9.41-3.68,14.68-4.9c4.8-1.11,9.09-5.25,14.85-4.18,3-5.09,9.5-4,13.53-7.88,4.31-4.1,12.43.67,16.66-6.23.87-1.42,6.06.1,9.2-.27,5.93-.71,8,4.25,11.06,7.5.8.87-.46,5.61-1.63,6-7.78,2.56-14.39,7.44-21.91,10.48-4.77,1.92-10.69,3.25-13.69,6.85-8.18,9.81-19.54,14.1-30,20-3.86,2.19-8.48,2.48-11.67,6.61-7.62,9.84-17.75,16.48-29.64,20.34-3.25,4.62-10.58,2.75-13.23,8.42-2.25,4.8-8.39,3.34-11.47,6.78-4.32,4.86-8.7,9.19-16.15,7.38-.73-.18-3,2.05-2.88,2.9,1.14,7.44-3.84,15.95,3.72,22.28.29,4.64.55,9.29.91,13.93.26,3.24,4.58,5.65,7.14,3.48,8.66-7.34,21.53-8.16,28.18-18.46a125.67,125.67,0,0,0,29.67-14.75c6,1.21,8.35-6.62,14.45-5.67,1.5.23,3.35-1.85,5-2.87,2,4.21,7,2.73,9.76,5.14,2.41,2.09,1.16,12.76-1.09,12.5-8.69-1-10.11,8.72-17.37,10.52-5.35,1.34-9.33,7.82-14.21,11.65-1.63,1.28-4.56.92-6.16,2.22-5.88,4.77-14.25,6.13-18.43,13.08-3.08,5.14-9.39,4.8-13.23,8.43-4,3.82-7.94,7.8-11.8,11.81a8.19,8.19,0,0,0-2.3,3.77,5.63,5.63,0,0,0,1,4.24c.85.95,3.15,1.86,4,1.38,5.79-3.35,12.53-4.82,17.38-10.14,3.47-3.79,6.12-9.65,13-8.81,3.11-4.17,7.27-5.55,12.34-4.79,4,.59,5.13-3.19,7.37-5.14,5.19-4.52,8.93-11.62,17.7-9.16,6.58-4.95,14.26-7.7,21.61-11.15,4.05-1.9,5.47-7.53,11-8,4.45-.41,7.09-4.8,12-5.74s9.63-4.51,13.07-8.22,8.18-4,11.6-6.71c2.65-2.13,4.94-3.28,8.33-3.19,2.12,0,5.42-.44,6.2-1.82,3.81-6.71,11.36-8,17.07-11.16,5.41-3,11.17-8.88,18.91-6,3.83-7.7,13.76-1.65,18.13-8.06,1.22-1.8,2.94-1.83,3.24.41a81.6,81.6,0,0,1,.51,14.07c0,1.07-2,3-2.9,2.95-3.64-.29-5.75,1.68-8,4-5.53,5.71-10.66,12-17,16.68-6.1,4.48-13.37,7.33-18.12,13.69-3.77,5.05-11.53,4.43-14.86,10.15-3.76,6.46-11.64,7.07-16.57,11.81-4.58,4.41-8.85,9.16-13.61,13.37-1.5,1.33-5,.74-6.1,2.16-3.11,4-9.13,3.21-11.55,6.55-5.29,7.28-15.72,7.23-20.11,15-3.38,6-11.28,5.52-14.71,10.26-4,5.56-10.77,5.45-15.3,9.77-4.3,4.1-7.12,9.87-14.49,11.08-5.64.93-7.43,9.7-15.13,9.67-2.24,0-4.24,4.51-6.8,6.33-4.42,3.14-5.57,7.21-5,12.31.32,3.13.06,6.33,19.08,101.42,17.46,90.24,14.83,88.74,14.58,86.91-.63-4.67-1-9.67,0-14.2,1.31-5.75-5.75-7.4-4.94-12.34,1.16-7.2-2.94-13-4.45-19.52-1.59-6.76-.33-14.19-.38-21.33,0-1.52.28-3.87-.53-4.43-4.76-3.23-4.94-8-4.08-12.6,1-5.45-3.75-8.16-4.74-12.36-1.37-5.77,1.08-11.69-4.08-17.56-4-4.57,2.31-14.1-5.43-19q-.1-9.48-.2-18.95c-6.6-4.28-4.56-11-4.75-17.06-.1-3.16,0-6.34,0-9.51-4.7.37-4.19-3-4.92-6.11s-5.25-5-7.14-3.06c-2.87,2.9-6.29,3.76-9.8,5.22s-5.5,5.6-8.6,8c-3.87,3-.16,4.42.49,6.89a47.69,47.69,0,0,1,1.17,16.12c-.54,5.91,6.58,8.14,5.31,14.77-1.07,5.59-2.87,12.75,3.85,17.21.18,5.48-.08,11,.68,16.41.82,5.82,6.5,10,4.94,17.13-1.09,5-1.29,12.09,1.45,15.73,4.55,6.06,2,12,3.08,17.91.12.65.92,1.25,1.52,1.72,5.39,4.23,2.24,10.21,3.26,15.33s5,8.65,5.11,14.68c.25,10.46-4.64,22,4.37,31.34,0,5.55,1,11.33-.25,16.59-1.53,6.5,5.38,9.07,5.11,14.74-.37,7.91-.37,15.87,0,23.78.36,8.26,7.59,15.17,4.81,24.23-.58,1.89,3.36,4.35,5.07,3.2,8-5.36,17.74-7.48,25.29-13.68,2.71-2.22,4.56-5.89,2.29-7.91-4.22-3.75-4.17-8-4.19-12.71,0-7-.38-14.09-.6-21.14-6.67-4.51-5.45-12.16-3.6-17.12C848.6,707.59,836.09,703.39,826.69,606.18ZM526.2,492.53c0-.71.28-1.69-.08-2a2.08,2.08,0,0,0-2,0c-1.57,1.1-3.53,2.46-.66,4.14.38.23,1.81-1.33,2.75-4.19,3.3.12,4.89-1.47,104.38-60.22-.61-.6-1.15-1.18-1.73-1.72l-10.1-9.15c-2.36,4.76-7.8,4.29-11.64,6.47-5.32,3-10.57,5.63-14.84,10.24-2.48,2.69-4.25,6.57-9.06,6.77-6.15.25-7.29,8.73-12.74,9.19-6.72.55-8.84,6-12.78,9.48a166.41,166.41,0,0,0-15.14,15.14c-2.78,3.14-6.12,4.16-9.86,5.13-.85.22-1.16,2.54-1.72,3.9.79,0,1.59-.05,2.38,0,5.57.35,11,.68,14.64-5,2.23-3.46,5.52-5.11,10-4.7,2,.18,4.93-.7,6.08-2.16,6.44-8.19,16.84-9.57,24.81-15,3.68-2.51,9.16-2,11.49-6.74s7.72-4.46,11.6-6.54c7.3-3.93,14.36-7.8-81,40.16C527.67,485.51,526.08,487.1,526.2,492.53ZM602.53,545c0-.71.28-1.7-.08-2a2.08,2.08,0,0,0-2,0c-1.57,1.1-3.53,2.46-.66,4.14.38.23,1.81-1.33,5.53-8.58a16.87,16.87,0,0,0-2.72,2.3c-.35.43-.06,1.37-.06,2.08.71,0,1.66.29,2.08-.06a9.53,9.53,0,0,0,2.17-2.81C606.87,539.83,605.86,539.05,602.53,545Zm-243.3,83.74q-5-.18-4.77,4.78c-2.15,0-4.58-.61-6.37.19-1.45.64-2.15,3-3.17,4.58-3.3-.13-4.9,1.46-4.77,4.77-2.2,0-5.16-.92-6.47.16-4.89,4-10.45,7.64-15.89,19.8a8.23,8.23,0,0,0,1.62-1.67c.66-1.27,1.11-2.65,1.65-4-2.33,0-5.34-.93-6.87.18-3.73,2.71-6.85,6.29-10,9.69-.69.73-.67,2.15-1,3.25,2.12.26,4.9,1.51,6.23.6,3.16-2.15,5.64-5.31,11.66-13.72,2.2,0,5.16.91,6.47-.17,4.89-4,10.45-7.64,12.62-14.14q5,.18,4.77-4.77c2.15,0,4.57.6,6.37-.2,1.45-.64,2.14-3,3.17-4.57,3.3.12,4.89-1.47,7.54-9.16a17.3,17.3,0,0,0-2.71,2.31c-.35.43-.06,1.37-.06,2.07.71,0,1.66.29,2.08-.06a9.5,9.5,0,0,0,2.16-2.81C363.57,625.71,362.56,624.93,359.23,628.75Zm-81.1,92.77c0-.71.27-1.69-.08-2a2.08,2.08,0,0,0-2,0c-1.57,1.1-3.53,2.47-.66,4.15.38.22,1.81-1.34,2.75-4.2,3.3.12,4.89-1.47,21-19.09-1.53.1-3.6-.42-4.5.39-4.1,3.65-7.9,7.64-11.69,11.62-.39.41-.05,1.52-.05,2.31h2.36c.08,0,16.12-6.52,16.13-6.56.2-1.49.84-3.1.46-4.44s-1.76-2.22-19,11C279.6,714.5,278,716.09,278.13,721.52Zm26.49-374.23c.71,0,1.7.27,2.05-.08a2.07,2.07,0,0,0,0-2c-1.11-1.57-2.47-3.53-4.15-.66-.22.38,1.34,1.81,9,8.26,0-.74.26-1.63,0-2.19-.67-1.2-1.52-3-2.52-3.19-4.41-.69-2,3-2,4.3.05,1.59,1.65,3.14,2.58,4.7C310.21,355.21,310.87,354,304.62,347.29Zm68.92,529.54c-2.15,0-4.58-.61-6.37.19-1.45.64-2.14,3-3.17,6.71,0-.71.28-1.7-.08-2.05a2.07,2.07,0,0,0-2,0c-1.57,1.11-3.53,2.47-.66,4.15.38.22,1.81-1.34,2.75-4.2,2.15,0,4.57.61,6.37-.19,1.45-.65,2.14-3,5.94-9a16.72,16.72,0,0,0-2.71,2.3,2,2,0,0,0,0,2,2,2,0,0,0,2,0,10,10,0,0,0,2.17-2.81C377.88,873.78,376.87,873,373.54,876.83Zm-52.48,33.39c-2.15,0-4.57-.61-6.37.19-1.45.65-2.14,3-3.17,4.58q-4.95-.18-4.77,4.77c-2.15,0-4.57-.6-6.37.19-1.45.65-2.14,3-3.21,6.72a4.25,4.25,0,0,0,0-2,28.34,28.34,0,0,0-6.64,0c-1,.18-1.73,1.69-2.41,2.72-.08.13.88,1.27,1.5,1.47,2.92.91,5.7.86,7.55-4.32,2.15,0,4.58.61,6.37-.19,1.45-.64,2.14-3,3.17-4.58q5,.18,4.77-4.77c2.15,0,4.58.61,6.37-.19,1.45-.64,2.15-3,3.17-4.58,3.3.12,4.9-1.47,15.89-14.45-5.67-.68-7.62,4.53-11.06,7.37a2.25,2.25,0,0,0,0,2.22c.4.4,1.53-.07,2.28.12,6,1.48,7.94-4,11.46-6.7-.86-1-1.72-1.91-13.83,6.67Q320.88,905.27,321.06,910.22Zm386.43-415c-2.16,0-4.58-.61-6.38.19-1.45.64-2.14,3-3.17,4.58-2.15,0-4.57-.61-6.37.19-1.45.64-2.14,3-3.17,6.95,0-.79.31-1.89-.08-2.29s-1.54.08-2.28-.11c-6-1.48-7.94,4-11.47,6.7.87,1,1.6,2.57,2.61,2.76,5.81,1.13,7.63-4.43,11.22-9.43,2.16,0,4.58.61,6.37-.19,1.45-.65,2.15-3,3.17-4.58,2.16,0,4.58.61,6.38-.19,1.44-.65,2.14-3,3.17-4.58q4.95.18,4.77-4.77c2.15,0,4.57.6,6.37-.2,1.45-.64,2.14-3,26.47-22.74-1.63.45-2.74.65-3.78,1a41.25,41.25,0,0,0-17.86,13.16c-.86,1.08-1.12,2.63-1.66,4,2.33,0,5.1.79,6.9-.19,2.62-1.43,4.29-4.5,6.81-6.22,3-2,6.71-2.94,9.42-5.18,1-.85.17-4-23.13,11.59-2.16,0-4.58-.61-6.38.19-1.44.64-2.14,3-3.16,4.58Q707.3,490.21,707.49,495.18ZM234.8,216.49a16.87,16.87,0,0,0-2.3-2.72,1.43,1.43,0,0,0-2,2,10,10,0,0,0,2.81,2.17c.18.09,1-.92-5-4.29a4.13,4.13,0,0,0,2.05,0,28.8,28.8,0,0,0,0-6.63c-.18-1-1.69-1.73-2.72-2.41a3.24,3.24,0,0,0-1.46,1.5C225.2,209.08,225.25,211.86,234.8,216.49ZM798.13,412.14c0-1.35.29-2.38-.08-2.75s-1.41-.08-2.15-.09c-6.41-.06-7.24.44-7.23,5.22,0,1.24,1.06,2.51,1.76,3.69.08.14,1.13,0,1.49-.36,2.21-2,4.36-4,9-12.92a16.72,16.72,0,0,0-2.71,2.3,2,2,0,0,0,0,2,2.08,2.08,0,0,0,2,0,9.68,9.68,0,0,0,2.16-2.82C802.47,406.26,801.45,405.48,798.13,412.14ZM321.06,833.89c-7.4-.76-12.44,2-14.35,11.68a4.25,4.25,0,0,0,0-2,28.34,28.34,0,0,0-6.64,0c-1,.18-1.73,1.69-2.41,2.72a3.35,3.35,0,0,0,1.5,1.47c2.92.91,5.7.86,7.55-4.32,7.4.77,12.44-2,17.09-13.92a17.32,17.32,0,0,0-2.72,2.3,2.06,2.06,0,0,0,0,2,2,2,0,0,0,2,0,9.5,9.5,0,0,0,2.17-2.81C325.4,830.84,324.39,830.06,321.06,833.89Zm458-384c0-.79.31-1.89-.08-2.28s-1.53.07-2.28-.11c-6-1.49-7.94,4-11.46,6.69.86,1,1.59,2.57,2.6,2.76,5.81,1.14,7.63-4.43,18.36-19-2.38,2.45-4.81,4.85-7.08,7.39a2.1,2.1,0,0,0,0,2.1c.37.37,1.4.07,2.14.08,6.27.06,9-2.71,7.07-7.35C788.09,439.49,787.33,439.06,779,449.84ZM263.82,776.64c-7.41-.76-12.45,2-14.32,9.55-6.84-3.61-9.83,4.74-15.8,5.21-3.45.26-7.58,4.07-10.43,9.1-4.47.41-8.69-.46-13.14,3-4,3.09-9.39,4.31-13,8.65-3.38,4.06-10.08,3.26-13.2,8.39-1.05,1.74-3.56,3.57-5.46,3.63-4.84.13-9.44,0-12.33,4.83-5.47-1.84-7.4,4.67-12.22,5-7.13.55-8.84,11.06-17.18,10.05-4,4.83-10.15,7.44-15.42,8.41-7.49,1.38-8.66,12.08-17.34,10-4.54,7.78-14.12,8.86-19.94,15.06-6.5,6.93-13.4,13.49-20.06,20.27-.17.16.29,1.19.68,1.6a9.88,9.88,0,0,0,1.85,1.22l16-7.19c3.36-6.93,12.14-6.25,16.52-11.75,8.55,1.71,9.79-9.13,17.34-10,3.22-.38,5.85-4.64,9-6.7s6.78-3,9.68-5.2c3.62-2.71,9.22-1.79,11.57-6.61s8.42-3.68,11.32-6.84c5.88-6.39,14.19-8.26,20.86-12.79s13.37-9.79,20.6-13.66c2.42-1.29,5.64-1.06,8.07-3.52,2.59-2.62,4.44-6.15,9.16-6.65,2.58-.27,5-3.21,7.2-5.28,1-.91,1.18-2.63,1.74-4h0c6.85,3.6,9.83-4.75,15.81-5.21,3.45-.27,7.58-4.07,8-9.1,7.41.76,12.45-2,19.83-14.32-.74,0-1.63-.26-2.19.06-1.2.67-3,1.52-3.19,2.52-.69,4.41,3,2,4.3,2,1.59-.05,3.14-1.66,4.7-2.59C271.74,773.19,270.54,772.53,263.82,776.64ZM437.06,653.49a7.92,7.92,0,0,0,1.61-1.67c.67-1.27,1.12-2.65,1.66-4-2.34,0-5.35-.93-6.88.18-3.73,2.71-6.84,6.29-10,9.68-.7.74-.67,2.15-1,3.26,2.12.26,4.9,1.5,6.22.6,3.17-2.15,5.64-5.31,17.18-18.49-.74,0-1.63-.27-2.19,0-1.2.67-3,1.52-3.18,2.52-.7,4.41,3,2,4.3,2,1.59,0,3.13-1.65,4.69-2.59C448.26,644.38,447.05,643.72,437.06,653.49Zm212.5-153.55c-1.28.72-3.71,1.51-3.67,2.14.27,4.46-2.5,6.94-5.06,9.92-1.51,1.75-.17,2.88,2.25,2.32,1.51-.34,3.8.61,4.62-.18a51.27,51.27,0,0,0,7.17-8.84c.53-.82-.26-3.14-1.17-4.05s-2.72-.91-13,15.14c0-.71.27-1.7-.08-2a2.08,2.08,0,0,0-2,0c-1.57,1.11-3.53,2.47-.66,4.15C638.33,518.68,639.76,517.12,649.56,499.94Zm-39.84-243.3c-2.38,0-4.76.07-7.13,0-4.81-.15-6,4.64-9.07,6.75a3.11,3.11,0,0,0,.69,1.58c.5.52,1.29,1.25,1.84,1.16,6.59-1,11.9-6.52,19.13-5.5.47.07,1.35-.94,1.62-1.62.91-2.33.08-3-2.35-2.42-1.5.34-3.15.06,5.17-4.32a17.37,17.37,0,0,0-2.72,2.31,2.06,2.06,0,0,0,0,2,2,2,0,0,0,2,0,9.37,9.37,0,0,0,2.17-2.81C621.18,253.6,620.17,252.82,609.72,256.64Zm-440.52,520c-5.51,0-10.24.31-14.91-.14a10,10,0,0,1-5.66-3.13c-1.56-1.65-3.06-2-3.29.25-.63,6.15-.62,12.36-.76,18.55-.06,2.35,1.78,3,4.15,1.81,8.19-4,15.79-8.52,19.67-17.34,3.3.13,4.89-1.46,127.47-103.9-.56-.14-1.53-.53-1.63-.38-5.34,8.57-13.46,10.15-22.58,8.82-4.51-.66-7.19,1.68-10.08,4.57-6.5,6.48-13,12.6-21.3,17.37-8,4.59-13.06,14-20.77,19.36-4.28,3-8.55,4.67-9.55,10.22-9.62,1.15-15.46,8.72-19.42,15.47-4.83,8.24-11.13,14.59-17.32,21.37-.39.43-.05,1.54-.05,2.33a27,27,0,0,0,4.76-.06,8.4,8.4,0,0,0,4-1.67c6.21-5.66,11.74-11.73,19.77-15.57,4.43-2.12,8.76-5.51,13.25-8.23,5.26-3.18,8.69-10.53,14.06-12.05,6.2-1.76,9.44-5.85,12.53-9.79,4.14-5.28,11.75-4,15.22-9.86a9.85,9.85,0,0,1,9.74-5.11c10.11-10.11,20.27-20.18,30.24-30.43.83-.85.47-3,.37-4.53,0-.63-.82-1.22-124,97.3C169.87,771.75,168.28,773.34,169.2,776.64ZM433.27,223.25c-3.14,0-7.89-1.31-9.14.23-5.59,6.87-12.84,3.9-19.47,4.54-5.75,8.09-14.25,4-21.57,4.64-4.73.45-6.63,6.79-12.15,5.31a13.63,13.63,0,0,0-2,5.86c.07,2.85,4.51,4.57,7.25,3,5.06-3,9.66-7.48,15.09-8.89,6.37-1.66,13.89,1.23,19.11-5.12,9.67,3.45,17.05-5.56,26.27-4.89,1.17.08,3-1.22,3.57-2.36,1.16-2.15.15-2.9-2.26-2.35-1.49.34-3.12.06,6.73.06a38.81,38.81,0,0,0,6.94-.13c1-.18,1.8-1.68,2.54-2.71.07-.09-.95-1.41-1.53-1.47a50.79,50.79,0,0,0-8.88-.34c-1.2.1-3.13,1.41-3.29,2.41C439.73,225.57,443.53,222.13,433.27,223.25ZM707.1,717.4a17.3,17.3,0,0,0-2.31-2.71,2,2,0,0,0-2,0,2.06,2.06,0,0,0,0,2,9.54,9.54,0,0,0,2.82,2.17c.17.1.95-.92-2.88-23.21,0-4.74-.86-9.69.21-14.18,1.52-6.35-4.29-9.5-5-14.67s1.47-10.47-3.17-15.39c-3.87-4.12-.69-10.49-1.88-15.72a3.3,3.3,0,0,0-1.56-1.6c-1.06.7-2.77,1.61-2.8,2.5-.23,7.1-.63,14.27.09,21.31.34,3.42,3.76,6.47,4.36,9.94.79,4.6-1.66,10.72.55,13.94,5.89,8.59,3.92,17.7,4.41,26.73,0,.78-.25,1.69.06,2.34.62,1.33,1.26,3,2.4,3.65,2.17,1.18,2.57.15,2.42-2.26C702.48,706.74,702.71,701.19,707.1,717.4Zm-402.48-394c.71,0,1.7.28,2.05-.07a2.09,2.09,0,0,0,0-2c-1.11-1.56-2.47-3.53-4.15-.65-.22.38,1.34,1.8,4.15,2.64a24.75,24.75,0,0,0,1.72,4.1c4.71,7.37,13.21,9.79,19.61,15,7.65,6.18,8.57,5.78,17.86,1.85,5.94-2.5,11-8,18.46-6.56,2.76.54,4-1.36,4.43-3.95.54-3.54-1.24-5.49-5.28-5.51-8.61-.05-17.23,0-25.84,0-3.13,0-7.87,1.32-9.12-.22C322.24,320.28,314,324.72,304.62,323.43Zm24.86,677.43c5.08,0,10.54,1.62,12.64-.35,3.61-3.4,8.11-3.84,11.85-6.23,4.33-2.78,8.66-6,13.46-7.47,4.22-1.29,9.51.86,12.5-4.26,10.22-1.8,17.5-11.8,28.93-10.45.62.07,1.6-1.81,2.11-2.92.12-.25-1.06-1.59-1.57-1.55a8.87,8.87,0,0,1-8.17-3.36c-2.47-2.91-7.53-.83-9.94-4.94-.68-1.15-5.38-1.7-6-.86-5.23,7-14.77,8.28-20,15-4.41,5.69-10.56,8.95-16.68,11.38-8.27,3.28-13.76,8.75-18,18.16,0-.71.28-1.69-.07-2a2.09,2.09,0,0,0-2,0c-1.56,1.1-3.52,2.46-.65,4.14C328.24,1005.29,329.66,1003.73,329.48,1000.86ZM697.94,442.7c1.58,0,3.48.57,4.7-.09,8.37-4.56,17.6-7.42,25.4-13.18,3.92-2.9,4-6.81,3.12-10.5-.77-3.47-2.83-6.72-4.65-9.88a50.57,50.57,0,0,0-5.2-7.32c-2.22-2.64-6-3.07-8-.5-5.36,7-13.51,9.2-20.84,12.82-4.22,2.08-8,4.45-8.9,11.71a4.29,4.29,0,0,0,0-2.05,29.47,29.47,0,0,0-6.64,0c-1,.19-1.73,1.7-2.41,2.72-.08.13.88,1.28,1.5,1.47,2.92.91,5.7.86,7.55-4.31a12.07,12.07,0,0,0,2.25,0c7.4-1.41,13.13,1.43,16.72,7.66,3,5.19-5.4,6.64-4.66,13.57,0-.71.28-1.7-.07-2.05a2.09,2.09,0,0,0-2,0c-1.57,1.11-3.52,2.47-.65,4.15C695.58,447.12,697,445.56,697.94,442.7Zm100.19,22.68a16.87,16.87,0,0,1,0,3c-1,4.54,1.88,7.12,4.65,10,4.72,5,5.4-3.12,9-2.57,1.8.27,4.26-1.33,5.86-2.73,3.59-3.13,6.41-7.27,10.3-9.86,3.66-2.43,8.12-3.21,11.58-6.73s9.74-4.93,12.72-8.83c3.71-4.85,9.49-4.51,13.7-7.93,3.94-3.2,9.61-4,13.1-8.6,2.28-3,5.5-6.69,8.75-7.22,5.54-.91,7.26-5.66,11.1-8,4.48-2.7,10.2-3.41,13.17-8.49,2.56-4.39,8.6-2.3,11.67-6.62s7.6-8.09,11.68-11.86c1.6-1.49,3.65-3.19,5.66-3.43,5.5-.66,7.92-5.19,10.65-8.59,3.67-4.57,9.37-4.89,13.35-8.32.39-.34.05-1.53.05-2.32-4.5.88-9.87-2.29-13.51,1.77-5.8,6.47-13.73,8.85-21,12.72-6.53,3.48-13.27,6.42-19.79,9.72s-14,6.15-18.66,12.77c-.64.93-2.79,1.21-4.2,1.11a11.82,11.82,0,0,0-10.38,3.93c-5.23,5.54-9.69,13-19.49,10.62-.86-.2-2.43,1.79-3.41,3-3.66,4.45-7.69,7.51-14.08,6.63-1.67-.23-3.8,2.13-5.57,3.48-3,2.27-4.67,6.6-9.51,5.84-6.55,7.69-16.9,10.17-23.79,17.6-3,3.28-4.06,6.43,166.15-93.54a17.24,17.24,0,0,0-2.71,2.3,1.43,1.43,0,0,0,2,2,9.77,9.77,0,0,0,2.16-2.81C969.44,363.32,968.43,362.54,798.13,465.38ZM464.73,674.26c.24-2.57-1-3.91-2.85-2.47-6.62,5-14.83,7.76-20.07,14.91-4.43,6.06-10.56,6.22-16,1.25-2.9-2.64-3.87-.32-5.09,1.07-2.66,3.05-7.41.89-10,4.86-2.44,3.72-5.73,7.43-11.31,7-.56,0-1.58,2.37-1.92,3.76-.67,2.69.94,4.17,3.24,5.22,4.62,2.12,8.72,9.14,6,11.48-4.45,3.83-3.49,10.13-8,13.52-6.88,5.17-7.65,15.07-15.12,19.84,1.71,6.07-6.93,8.4-5.24,14.46-3.28,3.39-6.55,6.81-9.86,10.17-3.89,3.94-7.83,7.84-11.75,11.76-7.84,7.84-15.7,15.66-23.48,23.55-.86.87-2,2.63-1.7,3.26a129.56,129.56,0,0,0,6.78,11.16c.25.37,1.52.09,2.31,0s1.84.08,2.19-.35c6.46-7.93,16.14-10.5,24.53-15.31,8.9-5.09,8-17.58,15.27-24.34,5.16-4.76,7.13-11.32,9.86-17.32,3.08-6.73,9.22-10.38,13.6-15.74-1.14-8.95,11.07-10.66,10.67-19.45,0-.88,3.41-2.2,5.39-2.82,2.46-.77,3.07-2.26,4.12-4.58,3-6.72,5.45-13.86,11.29-19.16,3.24-2.95,6.87-5.51,8-10.95.82-3.94,8.05-6.82,8.37-10.53.55-6.49,4-7,8.53-8.31,1.24-.38,1.55-3.91,7.24-13.33-.74,0-1.62-.26-2.19.05-1.19.68-3,1.52-3.18,2.52-.7,4.41,3,2,4.3,2,1.59-.05,3.13-1.65,4.7-2.58C472.11,668.24,470.9,667.57,464.73,674.26Zm-12.05-98c3.24-1,6.89.87,10.89-1.47,11.39-6.69,23.78-11.67,35.3-18s24.44-10.61,35.13-18.71c7,.89,8.44-6.32,13-8.75,5.16-2.72,10.79-4.56,16.18-6.86.68-.29,1.06-1.19,1.71-1.63,3.12-2.1,4.42-6.2,9.12-6.83,3.46-.46,6.65-3,10-4.55s6.48-3.63,10-4.67c6-1.81,7.31-10.59,15.06-9.79,1.08.11,2.44-1.7,3.54-2.76,2.84-2.76,6.68-5.15,8.11-8.53a14.5,14.5,0,0,0-.42-10.92c-1.5-3-5.53-2.33-7.77.56-3,3.87-7.2,1.9-10.77,2.85-4.22,1.13-7.71,4.15-11.78,6-3.47,1.55-6.89,2.5-10.37,3.76-6.26,2.26-12.73,3.8-18.87,6.12-4.68,1.78-6.63,7.8-13.23,8.56-4.65.54-9.81,4.36-13,8.18-3.78,4.56-9.62,4.41-13.48,8.15-3.22,3.12-8.3,2.66-11.67,6.57s-5.91,9.38-12.44,9.9-7.38,10.52-15.09,9.45c-5,4.62-11.06,8-13.12,15.47-1.14,4.18-4.55,7.6-9.86,8.62-2.67.51-5,3.26-7.22,5.32-1,.91-1.19,2.63-1.75,4,.79,0,1.59,0,0,2.12,0-.7.28-1.69-.08-2a2.07,2.07,0,0,0-2,0c-1.57,1.11-3.53,2.47-.66,4.15C447.5,580.7,448.93,579.14,452.68,576.28Zm41,28.69c4.72,2.42,9.41,5.24,8.55,11.86-.31,2.43,1,3.9,2.29,2.26,6.34-8.08,17.41-10,23.39-18.32,11.25-1.73,15.8-12,23.1-18.58,8.1-7.36,15.28-15.75,22.86-23.69-1.87-8.07,8-4.23,8.53-7.83.92-6.14,6.15-8.69,8.45-13.22,2.79-5.51,5.44-10.8,10.32-14.69,1.49-1.19,1.39-2.47-.74-3.29-1.37-.54-3.48-1-4.48-.31-2.55,1.72-5.33,3.72-6.8,6.3-2.39,4.16-7,2.29-10.06,4.79-4.59,3.76-11,4.66-14.92,10-1.44,2-5.55,1.91-7.82,3.6-3.14,2.35-5.68,5.48-8.48,8.28-9-1.75-14.26,4.25-19.69,9.79-6.06-2-8.22,7.35-14.68,4.87-3.36-1.29-5.63,1.45-7.91,3.68-2.67,2.61-5,5.09-9.35,6.2a31.53,31.53,0,0,0-11.63,5.85c-4.15,3.56-10.71,2.59-13.42,8-5.52-2.1-7.46,6-12.23,4.63-6.38-1.91-9.76,3.56-14.56,5.24-8.23,2.88-15.8,7.71-23.47,12-1.69,1-2.61,3.25-3.89,4.93,7.24,3.34,1.56,11.9,6.62,16.29,2.85,2.48,5.06,6.21,8.46.82,8.55-2.33,15.71-7.77,24-10.86,4.08-1.53,7.2-4.93,12.39-4.64,6.3.35,8-6.75,12.66-9.37,5.8,2.82,7-6.27,21.14,11.67,0-.71.27-1.7-.08-2.05a2.08,2.08,0,0,0-2,0c-1.57,1.1-3.53,2.46-.66,4.14C500,623.64,501.41,622.08,493.72,605Zm-74.66-119.3c5.93-7.54,14.9-12.29,18-22.63a9.21,9.21,0,0,1,9.13-6.17c2.4.11,3.48-1.9,3.79-4.74a10.3,10.3,0,0,1,8.94-9.19c3.72-.55,5.43-2.87,7.48-5,3.65-3.79,2.95-11,8.54-12.91,5.33-1.8,9.3-4.71,13.25-8.48,2.54-2.44,6.69-3.12,9.59-5.29,3.15-2.34,5.69-5.5,8.5-8.31l11.78-11.78c9,1.11,10.69-11.22,19.46-10.49,6.07-8.29,17.44-9.71,23.45-18.1,1.31-1.82,5-3.83,3.07-5.39-1.47-1.18-5.48-.93-8.68,1.09a120.43,120.43,0,0,1-17.65,9c-3.38,1.42-6,4.31-10.31,4-4.63-.4-8.87-.29-12.78,3.86-2.91,3.09-9-1.13-12.77,3.48-4,4.92-13.05-1-16.15,6.81l-19,.08c-4.26,6.69-11,4.61-17.07,4.74-6.34.14-12.73-.4-19,.16-6.1.54-12.55-2.4-18.32,1.65-.2,5.47-.5,10.94-.58,16.41-.1,7.14,0,14.28,0,21.42,6.36,5.31,4.59,12.63,4.75,19.45a79.55,79.55,0,0,1,0,9.52c-.28,2.88-7.8,4.34-1.52,8.65,3.21,2.2,1,5.87,1.58,8.82s-1.4,6.39,153.41-124.21c-.74,0-1.63-.26-2.19.05-1.2.67-3,1.52-3.19,2.52-.69,4.41,3,2,4.3,2,1.59-.05,3.14-1.65,4.7-2.58C572.29,353.37,571.09,352.71,419.06,485.67ZM397.62,950.55c3.68,2.24,7.12,5.63,11.09,6.45,6.05,1.24,12.45.77,18.71.91,4.76.1,9.8,1,14.2-.25,4.83-1.39,9-5,13.57-7.38,10.49-5.33,21.52-9.61,31.35-16.2,12.61.82,21.1-11.32,33.65-10.69,3-5,10.62-2.72,13.18-8.4,6.31,2.77,8-7,14.75-5,6.51,1.91,8.7-5.46,13-8.37a6.29,6.29,0,0,1,4.33-.86c6.84,1.45,10.35-6.12,16.64-5.92,3.27-7.42,12.59-.24,16.25-6.71a366.84,366.84,0,0,0,37.42-18.72c3.9-2.28,7.87-.69,10.93-2.36,3.9-2.13,8-3.8,11.81-6,6.42-3.66,13-6.87,19.72-9.91,7.37-3.33,13.81-9.18,22.7-8.38,2.19-3.78,6.34-3.73,9.75-5.19.92-.39,1.5-2.62,1.46-4-.12-4.59-5.7-6.69-4.89-12.33,1.47-10.23-7.11-4.9-11.29-6.61a12.14,12.14,0,0,1-5.11-4.72c-1.54-2.44-1.77-5.83-3.57-8-4.08-4.82-11.06-8.44-12.61-13.79-1.76-6-5.37-9.53-9.3-12.75-5.06-4.15-5.24-10.83-9.84-15.15-9.83-9.22-19.12-19-28.71-28.49-4.44-4.38-11.27-3.93-16.23,1-8.45,8.37-16.83,16.81-25.25,25.22-2.8,2.81-5.17,6.5-8.53,8.16S570,768.6,567,771.23c-1.93,1.65-5.92.61-8,3.58-2.41,3.52-7.14,5.24-8.19,10.63,2.55.27,4.77.67,7,.71,5.55.1,11.1,0,16.65.05,3.61,0,4,1.34,4.33,6.67.45,6.67-3.82,9.61-8.58,12.37-1.84,1.07-5.61,1.92-5.57,2.69.49,8-7,10.05-10.7,14.68-4.46,5.52-10,10.21-15,15.25-5.61,5.61-12,10.64-16.6,17-4.44,6.16-11.84,6.68-16.89,11.48-7.28,6.91-13,15.62-22.54,20.1s-14.84,13.75-22.39,20.5c-2.53,2.25-4.75,4-8.21,3.29-6,8.32-17.4,10-23.23,18.5-2.87,4.17-8.47,4-11.24,7-3.11,3.31-7.4,1.93-10.13,4.75C404.4,943.86,401,947.18,397.62,950.55ZM717,751.27c0,12.69,0,25.38,0,38.08,0,4.57.15,8.56,3.43,13,2.74,3.71.22,11,2.54,15.41,1.74,3.28,3,6.74,4.66,10,.84,1.67,2.07,1.23,3.34-.67,2.72-4.08,7-2.38,10.74-2.77s6-3.89,9.78-5.19c8.28-2.81,14.86-10.3,24.76-9.1,2.66-4.31,8.07-3.84,11.52-6.57,2.93-2.32,6.16-4.69,5.65-9.55-.51-4.71-.11-9.51-.11-14.27V763c0-4.76-.74-9.67.18-14.25,1.23-6.19-4-9.71-4.79-14.74-.76-4.64-.16-9.5-.16-14.26,0-5.55-.83-11.27.22-16.61,1.13-5.74-5.09-7.55-5-12.35.1-7.14,0-14.28,0-21.42s-.88-14.42.23-21.39c1.21-7.59-5.49-12-5.43-19.48.09-10.44,4.41-22-4.35-31.34,0-5.56-1-11.33.25-16.61,1.47-6.46-5.22-9.21-5-14.74s0-11.11,0-16.66c0-6.12-7.54-9.93-5-17.14.77-2.17-5.2-4.84-7.1-3.22-3.55,3-6.59,6.82-10.52,9.19-5.64,3.41-13.24,3.62-17.45,9.35-4.77,6.51-12.51,8.63-18.21,13.52-7.2,6.18-13.53,13.38-20.33,20-3.44,3.38-3.54,6.54,0,9.84,4.71,4.39-.55,12.89,6.69,16.33.37.18.29,1.42.34,2.17.39,6-2,12.82,4.72,17.09.78,6.68-2.57,14.39,4.83,19.42.69,6.88-2.29,14.48,2,20.54,5.24,7.38,1.8,15.18,2.68,22.72.54,4.66.34,9.4.47,14.11,7.23,5.25,3.88,12.95,4.25,19.61C717.41,732.2,717,741.74,717,751.27ZM411.71,538.32v4.9c0,3.16,4.23,6.21,6.35,4.3,3.5-3.16,8.81-3.39,11.53-6.35,3.46-3.78,8.92-2,11.92-6.35,2.88-4.2,9.18,1,12.77-3.42,3.41-4.19,9.79-3.44,13.34-8.27,2.6-3.53,5.32-8.74,10.44-8.67,7.58.09,3.44-7.72,7.51-9.77,1.34-.67,2.1-2.85,3.42-3.18,10.62-2.69,15.77-12.08,23.19-18.65,4.73-4.2,9-8.91,13.5-13.4,5-5,9.45-11.07,15.32-14.83,5.08-3.25,10.26-6,14.8-10.23,4.9-4.57,11.59-7.32,16.16-12.13,3.5-3.68,8.61-2.87,11.76-6.45a133.28,133.28,0,0,1,10.1-10.07,6.77,6.77,0,0,1,4-1.6c4.75-.15,6.41-4.32,8.95-7,3.33-3.49,8.55-2.4,11.84-6.41,2.75-3.35,2.08-4.45-.4-7.06-1.3-1.37-1-4.26-1.39-6.47-.65-3.69.59-7.27-1.87-11.17-4.28-6.79-8.71-13.9-8.68-22.54,0-.41-1.18-1.26-1.58-1.14-.66.2-1.6,1-1.63,1.59-.29,4.68-.25,9.38-.68,14-.09,1-1.74,1.83-2.79,2.57-.11.08-1-1-1.62-1.59-2.81-2.69-6.16-5.07-5.12-9.83.09-.42-1.27-1.68-1.55-1.56-1.13.46-2.89,1.24-3,2-.3,3.1.08,5.75-4.27,6.9-4.89,1.3-10.86,2.82-13.78,6.36-5.64,6.87-15.15,7.57-20.28,14.81-5.42,7.68-16.13,8.86-21.54,16.84-2.25,3.31-6.3,3.77-9.56,5.45-5.17,2.68-8.66,7.76-14.85,10.18-5.42,2.12-9.17,8.48-13.65,13l-30.27,30.27c-4.48,4.48-8.53,9.55-13.56,13.3-5.91,4.4-5.32,13-11.68,16.62-4.61,2.64-3.22,8.33-6.61,11.62-2.7,2.62-6.21,5.69-6.71,9-.73,4.76-7.28,6.69-5.12,12.24C411.93,529.12,411.18,533.54,411.71,538.32Zm-18.67,36c-2.26-2.26-4-3.93-5.63-5.64-2.13-2.18-1.94-2.15-.32-8.45.52-2,.71-5.28-.42-6.25-3.5-3-3.2-6.64-3.81-10.52-.54-3.48-4.07-6.6-4.29-10-.32-5-.69-9.21-5.2-12.29-3.38-2.31-5.22-5.47-4.68-10,.74-6.22-7.92-10-4.85-17.16.33-.76-1.23-2.77-2.35-3.62-4.49-3.4-5.89-8.67-8.7-13.06-3.22-5-3.81-11.4-9.56-15.44-3.82-2.69-6.2-8.44-7.55-13.28a18.82,18.82,0,0,0-4.46-7.75c-2-2.28-4.78-4.71-5.11-7.33-.46-3.79-3.18-5.19-5.07-7.51s-4.43-2.2-4.54.4c-.15,3.51-2,5.51-3.64,8.16-1.46,2.34-1.73,6.07-1.12,8.89s4.39,5.19,4.21,7.58c-.25,3.42-3.36,6.52-4.27,10-.77,3,.06,6.33-.2,9.49-.5,6,2.44,12.9-4.48,17.21-.08,7.12-.2,14.24-.24,21.36s0,14.31,0,21.47c-8.94,7.56-3.08,17.78-4.78,26.64s4.17,19.08-4.76,26.65c1.51,7.39-3.83,15.89,3.6,22.42.33.29-.69,2.16-1.13,3.27-.8,2-2.86,5.39-2.28,5.93,6,5.65,4.14,12.87,4.73,19.67.19,2.11,1.61,2.91,4.54,1.17,5.2-3.11,10.26-6,15-10.08,4.88-4.21,12.29-5.3,17.52-9,4.93-3.48,9.71-7,14.94-10.09,4.44-2.66,8.26-6.11,13.17-8.55,5.4-2.69,9.15-8.64,13.71-13.07C384.94,581.73,389,578.05,393,574.31Zm276.28-11.93c0-4,.28-8-.08-11.91s-10.35-9.22-12.56-6.43c-3.26,4.11-9.44,2.07-11.68,6.58-3.49,7-12.55,5.59-16.73,11.69-4,5.8-12.86,5-16.65,11.74-.81,1.43-4,1.64-6.09,2.19s-5.08.13-6.51,1.41c-5.9,5.31-11.22,11.24-17,16.65-2.53,2.37-4,4.75-3.31,8.2-8,5.38-9.16,16.2-16.92,21.49-5.6,3.81-6.53,10.12-10,15-2.55,3.63-2.6,8.39-6.62,11.66-5.27,4.3-11.54,8.63-9.65,17.48.31,1.43-2.22,4.07-4,5.26-6.16,4.06-6.2,11.92-11.38,17-4.39,4.31-5.7,12-9.1,17.39C503,720.39,499.86,735.85,488,746c.68,3.54-1.09,5.9-3.55,8.13-.35.33.47,2.26,1.11,3.2.26.4,1.47.09,2.23.21,3.95.64,4.83-3.72,7.6-4.67,3.54-1.22,7.39,1,11.25-1.74,4.75-3.34,10.43-7.39,15.74-7.43,8-.07,10.49-6,15.34-9.5,1.08-.77,3.06-.72,4.51-.46,4.53.81,6.93-2.25,10.16-4.46,3-2,7.5,1,11.13-1.82,4.66-3.66,10.54-5.22,15.68-8.09,7.46,2.34,11.68-7.54,19.58-5.12,1.65.5,4.62-3.53,7.07-5.36,1.65-1.23,1.57-2.31-.54-3.36a12.58,12.58,0,0,0-2.18-.48c-13.54-3.71-14.52-19.14-24.42-26.28-.38-.27-.07-1.51-.07-2.31,0-4-1.63-9.49.36-11.57,3.45-3.61,3.61-8.3,6.34-11.86,5.57-7.28,13.19-12.33,17.74-21.18s13.75-15,21-22.31c3.31-3.29,6.57-8.33,10.45-9,6.56-1.1,8.68-6.35,12.76-9.65,3.68-3,6.7-6.73,10.32-9.78,1-.79,3.77.45,4.49-.36,3-3.31,8.22-5.28,7.21-11.29C669,567.2,669.32,564.76,669.32,562.38ZM225.65,496.43c0,8.71-.07,17.42,0,26.13,0,3.06-.7,7.52,1,8.93,6.13,5.19,1.2,12.89,4.21,17.31,3.9,5.74,4.15,11.2,4.47,17.32.1,2,1.83,3.94,2.78,5.92,2.22,4.63,4.83,9.11,6.5,13.93,1.47,4.27-2.12,9.74,1.93,13.41,5.11,4.62,2.11,10.3,3,15.46.12.75-.07,1.67.31,2.23a147.92,147.92,0,0,1,15.09,29.4c.19.48,1.22,1.09,1.6.95.67-.25,1.65-1,1.63-1.59-.12-4.27,1.9-7.32,5.11-9.8-3.3-7.7,6.81-12.52,4.65-19.28-2.57-8,5.76-12.32,5.14-19.49-.38-4.44-1.71-9.64,3.54-12.73-1.23-3.14-3.41-6.26-3.51-9.45-.39-13.45-.12-26.92-.19-40.38,0-3.07.77-7.57-.88-9-6.14-5.16-3.57-11.64-3.76-17.57-.36-11.08-.1-22.17-.1-33.26-9.19-11-3.05-24-4.76-36-.43-3,.46-7.42-1.22-8.82-4.58-3.82-3.31-8.42-3.56-12.95-.38-6.77-3.84-9.61-10.2-7.67-2.74.84-5.56,4.87-7.48,4.34-9.2-2.55-16,4.08-24.22,5.25s-13.79,8.58-10.19,14.61c4.81,8.05,4.2,16.06,4.38,24.39,8.13,10.29,3.5,22.39,4.75,33.66A44.26,44.26,0,0,1,225.65,496.43ZM702.77,789.75c1.93-5.25-3.95-7.87-4.62-12.08-.85-5.41-1.29-11.33.06-16.52,1.72-6.62-5.09-8.93-5.31-14.72-.45-12.07,3.88-24.93-4.5-36,0-5.54-.67-11.19.17-16.6,1-6.72-3-11.47-4.62-17.15-1.49-5.11-1.1-11.14-.12-16.5,1.26-6.85-3.2-11.45-4.73-17.13-1.19-4.43,0-9.46-.31-14.18-.39-5.2,1.85-10.72-3.08-15.41-3.8-3.6-.76-9-1.67-13.49-.28-1.4-1-3.64-1.81-3.82-2-.41-4.86-.61-6.28.51a65.86,65.86,0,0,0-10.12,10c-3.56,4.33-9.54,3.62-13.47,8.12-9.34,10.72-19.92,20.36-30,30.44L597.76,670c0,2.37-.86,5.24.16,7,3.29,5.79,4.14,13.66,10.5,16.86,4.76,2.4,7.14,5.39,10.07,9.75,5.21,7.74,14.63,12.77,19.3,20.7,5.23,8.86,11.94,15.88,18.91,23,4.44,4.52,9.2,8.74,13.35,13.51,3.41,3.93,7.7,6.62,9.41,12.78,1.48,5.33,8.37,9,12.38,13.84,1.78,2.15,1.86,5.73,3.69,7.82.74.85,4.25-.17,6.11-1.11C702.49,793.73,702.39,791.43,702.77,789.75Zm-306-504.48c4,0,8,.49,11.85-.21,2-.35,3.78-4.37,5.22-4.13,6.74,1.13,11.41-3.52,17.09-4.93a39.73,39.73,0,0,1,16.54-.07c6.9,1.34,11.46-3.15,17.13-4.82,4.95-1.46,11.17,2.1,15.1-3.77,6.18-.39,12.4-.49,18.53-1.31,2-.27,3.56-3.1,5.59-3.55,3.72-.83,7.76-.28,11.45-1.19,4.23-1.05,8.11-3.91,12.34-4.44a69.26,69.26,0,0,1,19,0c6.8,1,10.08-6.63,17.14-5.28,4.76.91,7.41-3.8,4.72-7.19-2.56-3.21-5-6-4.07-10.25,1.75-8-6.7-13.77-4.86-21.83.12-.55-.56-1.32-.93-2-3.35-5.7-10.94-5.16-15-10-.19-.24-2.09,1.07-3.25,1.51-6.19,2.35-11.61,6.23-17.81,8.69-2.68,1.07-4.72,3.57-8.21,3.19-5.51-.59-11-.75-14.66,4.72-6.82-2.45-11.33,3.67-17.08,4.55-6,.93-12.48-.7-17,5-7.69-2.6-12.38,4.65-19,6-2.47.5-4.4,4.35-8,3.52-6.61-1.54-11.83,1.58-17.06,4.79-6.81-2.45-10.61,5.87-17.05,4.77-2.88,4.71-7.35,5.26-12.29,4.81-2.36-.21-4.81.31-7.12-.1-6-1.07-8.49,3.8-11.18,7.19-2,2.49.67,5.36,2.53,8.07A56.5,56.5,0,0,1,382.93,281c.85,2.52,1.62,4.2,4.36,4.26C390.45,285.33,393.63,285.27,396.8,285.27Zm5.36,178.64c0-16.67-.57-33.37.25-50,.4-8.13-8-13.44-5.4-21.69-3.2-2-4.41-7.41-9.08-6.64-7.71,1.26-12.48-4.61-18.61-7-7.57-2.95-8.2-4.66-14.42-.15-5.27,3.82-13.18-.92-16.51,6.39-3.88.21-7.76.47-11.64.62-2.38.09-4.84-.36-7.12.11-2.45.51-3.77,2.38-3.35,5.13.46,2.95-1.4,6.76,2.06,8.62,6.79,3.64,6.24,12.23,11.73,16.63,6.1,4.89,6.56,13.78,13.33,18.44,2,1.39,2,5.48,3.6,7.87,2.13,3.18,5.63,5.56,7.34,8.9,6.66,13.09,12.59,26.55,19.32,39.6,2.81,5.43,5.73,10.56,5.2,16.91,5.42,4.67,6.12,11.74,9.11,17.65,1.35,2.67,3.87,4.82,6.14,6.92.37.35,3.14-.86,3.11-1.23-.48-7.06,6.17-11.54,5.4-19.5C401.09,495.77,402.16,479.78,402.16,463.91ZM554.82,612.84c-1-.76-2.42-2.43-4.2-3.06a3.85,3.85,0,0,0-5.21,3.08c-.54,3.11,0,6.13-4.68,6.44-6.22.42-10.06,5.86-12.11,10.09-2.8,5.8-15,.6-12,11.27l-9.54,5.17c1.22,6-4.05,8.06-7.06,11.34-4.83,5.26-10.28,10-15,15.32-1.83,2.09-2.07,7.47-3.53,7.67-7.05.93-10.24,6.54-14.84,10.45-3.6,3.07-2.77,8.28-6.5,11.76-4.27,4-11.15,6.83-10.33,14.64-5.05,5-10.16,10-15.14,15.18-5.31,5.46-6.63,13.84-13.38,18.37-.74.5.57,3.69-.23,4.5a21.36,21.36,0,0,0-5.31,9.83c-.95,3.34-5,6-8.09,8.47-5.68,4.49-6.8,11.54-10.19,17.29-.49.83.42,3.14,1.38,4s3.14,1.48,4.19,1c4-1.93,8.68-3.55,11.63-6,3.74-3.16,9-2.12,11.9-6.29,3.19-4.64,9.47.81,12.81-3.43,3.5-4.42,10.37-2.93,13.41-8,6.54.11,9.32-4,11.42-9.5,1.84-4.78,4.37-9.3,6.67-13.91.34-.67,1.41-1,1.6-1.71,1.26-4.44,2.52-9,6.83-11.43,4.65-2.61,3.94-7.94,6.43-11.74,5.72-8.71,9.44-18.35,16.69-26.57a117.27,117.27,0,0,0,19.11-30c5.46-12.3,10.36-25.17,21.59-34,2-1.59,1.93-5.59,3.6-7.9,2.28-3.16,5.37-5.73,8-8.67C555.16,615.94,554.82,614.84,554.82,612.84ZM384.25,937.9c-1.4.62,1.45-.25,3.86-1.81,3.73-2.43,5.46-8.15,11.45-6.79,4.39-6.75,12.31-8.64,18.29-13.21,4.78-3.64,7.29-9.72,14.52-10.93,5.74-1,7.49-9.06,15.05-9.72,4.62-.4,6.7-7.44,12.55-9.53,5.41-1.93,9.44-7.71,14.08-11.79,9.21-8.09,15.85-19.26,28.26-23.49q21-21,41.94-42a1.78,1.78,0,0,0,.3-1.62c-.35-.67-1.15-1.7-1.61-1.63-3.72.59-7.38-1-11.31,1.32-6.93,4.14-13.55,10-22.73,8.11-3.57-.72-5.43,2.72-8,3.52-12,3.73-21.54,12.81-33.95,15.56-2.68,4.27-8,3.87-11.51,6.52-4.18,3.18-7,7.47-13.14,8.69-4.73,1-6.11,9.27-13,8.65-6.21,5.52-13.81,9.64-13.29,20.26.17,3.5-3.55,7.91-5.67,11.66-3.35,5.91-10.63,8.93-13,16S388.1,916,383.83,921.46c-3.44,4.41-10.36,2.8-13.36,8.25-1,1.75-2,2.19-.24,3.49C373.19,935.48,374.92,939.78,384.25,937.9Zm22.69-569.78c-.16,6.54,0,6.88,5.5,7.75,3,.47,5.7.06,8.74,2,7.61,4.92,15.9,4.28,24,.38,1.08-.53,3-1.52,3.24-1.25,5,6.3,8.45,2.89,13.57-.58,3.26-2.22,9.21-.49,14-.53,3.6-5.55,9.17-5.24,14.67-4.74,5.65.52,10.13-.89,15-4.43,3.07-2.27,8.67.49,12.68-3.89,3.42-3.74,11.21,1.41,14.35-5.23,5,.39,7.94-5.6,11.94-5.22,6.16.59,9.75-4.33,14.74-4.86s6.59-6.56,12.34-5.37c1.94.4,3.55-5,7.48-4.45.72.1,1.9.13,2.2-.29,2.22-3.08,6.38-4.41,7.05-9,1-7.22-4.18-13.28-11.11-14.79-7.76-1.69-12.76,4.38-19.49,5-4.44.44-9-1.47-13.2,2.8s-10.49,1.06-15.75,2a3.22,3.22,0,0,0-1.72,1.52c-3.26,5.22-10,1-12.59,3.64-4.68,4.76-9.67,4.25-15.05,4.34-1.54,0-4.08-.27-4.45.45-3.62,7.07-12.12,1.78-16.39,6.65s-12.79-.44-16.42,6.62c-.39.75-3,.82-4.39.51-6.62-1.48-11.65,3.84-17.11,4.3-7.35.61-12.61,4.59-18.57,7.28-2.79,1.27-5.13,2.61-8.36,2.93C407,362.39,407.06,362.69,406.94,368.12ZM249.5,201.78c0,3.95.83,8.11-.18,11.78-1.73,6.35,4.09,9.5,5,14.63,1.24,6.74,8.25,9,11.75,14a8.41,8.41,0,0,0,1.65-1.48c3.31-5.16,8.69-3.67,12.85-2.92,5.7,1,7.28-5.41,12.27-5.13,5.47.32,11,0,16.47-.12,4.27-6.8,11.14-3.78,17-4.6,7.1-1,12.52-13.41,7.24-17.93-5.55-4.76-6.67-11.87-11.47-16.71-5-5-10.6-9.6-14.92-15.16-7.81-10-19.3-14-29.6-20.08-1.77-1-2-1.72-3.51-.16-4.23,4.27-13.36,3.54-14.22,10.15-.68,5.18-4.27,7.78-5.87,11.91-4,10.31-4.49,10.11-4.53,17.05ZM185.05,729c2.34-.28,4.37.1,5.27-.73,5.21-4.84,10.69-9.55,15-15.11,4.48-5.75,11.51-7.21,16.6-11.65,3.56-3.12,7.4-6.24,9.93-10.12,3.31-5.08,9.68-4.23,13.33-8.24,2.65-2.92,5.95-5.34,8.18-8.53,1-1.4.86-5.34-.2-6.11-5.83-4.18-3.76-10.11-3.48-15.2.34-6.15-1.69-10.56-6.38-14-2.79-2.07-3.4-4.68-3.5-8.1-.2-6.7,2.78-14.35-4.64-19.37,2.37-6.78-4.86-11.67-4.31-17,1-9.8-7-16.87-6-26.32.22-2-1.86-2.08-3.21-.37s-5,4.5-4.72,4.9c2.51,3.8,4.67,7.15-.78,10.23,0,7.1-1,14.34.13,21.26,1.31,8.26-8,13.23-5.22,21.85,1.65,5.17.8,10.9-4.55,14.55,2.49,6.81-4.6,11.46-4.4,17,.33,9-3.89,15.82-7.42,23.18a27.93,27.93,0,0,0-2.43,6.1c-.93,4.37,1.89,9.51-2.57,13.16-3.76,3.08-2.66,7.41-2.05,10.9,1,5.53-4.4,7.91-4.82,12.3C182.71,725.4,184.33,727.37,185.05,729ZM297.21,350.92c-.88-2.43-7.12-7.75-4.77-15.18q-4.9-5.1-9.81-10.18c-3.56-3.67-6.92-2.75-9.73.82-1.46,1.85-2.27,2.18-3.42.34-2.31-3.71-4.24-2.88-6.79.08-3.33,3.88-9.39-1.14-12.79,3.4-3.56,4.73-8.66,2.48-13.1,2.69-7.11.33-14.4,1-21.33-.17-7.12-1.19-10.38,6.28-16.77,5.91-.49,0-1.51,2.5-1.6,3.88-.25,3.85,1.05,7,2.8,10.7,3.08,6.47,9,12.49,6.84,21-.46,1.79.64,4.79,2.06,6.08,4,3.61-.17,4.72-1.38,6.92-.28.5,1.33,2.91,1.89,2.85a18.27,18.27,0,0,0,6.31-1.83c4.59-2.35,8.81-6.51,13.56-7.16,5.47-.74,8.14-7.14,14.64-5.37,5.25,1.43,8.25-6.67,14.64-4.71,3.68,1.12,5.53-1.49,5.38-5.34a71.54,71.54,0,0,1,.07-9.49c.13-1.34,1.46-3.75,2-3.69,5.91.62,12.5-3.21,17.67,2.63a39.87,39.87,0,0,0,6.88,6.37c1,.7,3.28.44,4.48-.25s1.63-2.38,2.18-3.73C297.44,356.81,297.21,355.92,297.21,350.92ZM144.55,473.1c0-10.3.07-20.6-.09-30.9,0-1.31-1.12-3.6-2-3.72-2.07-.28-4.79-.25-6.31.9-3.73,2.8-6.28,6.06-6.15,11.7.5,20.59.2,41.19.19,61.79,0,4.62.3,8.87-3.71,12.91-1.83,1.84-1.11,7.45,0,10.82,4.29,12.68,4.5,12.59-.78,27.51-.49,1.4-.9,4-.21,4.49,7.11,5.29,4.49,12.83,4.58,19.55.25,18.22.09,36.44.09,54.66,0,5.55.78,11.23-.2,16.6-1.25,6.85,3.35,11.44,4.7,17.14,1.25,5.25.27,11,.27,16.57,0,6.34,0,12.68.07,19,0,.58,1.18,1.71,1.5,1.61,1.14-.36,3-1.12,3.06-1.78.22-7.12-.47-14.32.28-21.37,1.12-10.48-4.16-22,4.63-31.31V535.69c0-4.75,1.14-9.89-.29-14.16-1.75-5.21,6.77-7.43,3-11.42-4.77-5-2-10.44-2.57-15.63-.48-4.71-.1-9.5-.1-14.25ZM392.63,306.42c-.06,13.85,0,13.87,9.59,9.81,2-.85,4.09-2.13,6.18-2.23,6.33-.3,12.68-.11,19-.11,5.31-6.36,12.62-4.47,19.44-4.8,5.39-.26,10.76-.78,16.15-1.19,4.85-6.16,11.64-2.69,17.56-3.6a3.07,3.07,0,0,0,1.74-1.44c2.59-4.2,6.71-3.31,10.56-3.27,4.75,0,6.73-6.71,12.32-4.83,4.63,1.55,6.47-3.55,9.94-4.6s8,1.53,10.9-2.4c3.46-4.77,9.8-.13,12.72-3.5,3.84-4.45,8.75-2.45,12.71-4.09s7.22-5,12.45-4.62,8-4.19,9.76-8.39c.56-1.33-1.21-5.11-2.54-5.48-2.9-.8-7.84-1.41-9.08.16-5,6.32-11.55,4.65-17.4,4.11-7.36-.67-13.75,1.65-19.31,5.24s-10.89,4.63-17.21,4.68c-9.82.09-19.69-1.77-29.2,4.24C474.4,283,466.32,278.16,462,285c-6.32.08-12.67.58-18.94.09-4.65-.37-7.3,1.92-9.93,4.91-9-3.27-15.08,7.9-24.22,4.85-5.89-2-8.4,6.78-14.45,5.2C393.66,303,392.82,305.8,392.63,306.42ZM177.94,609.12c0,13.5-.05,27,.13,40.5,0,.82,1.78,1.72,2.87,2.33.19.11,1.44-1,1.57-1.6,1.09-5.26-2.08-11.56,1.92-15.8,4.64-4.93,2.63-10.3,3-15.51.37-5.54.08-11.11.09-16.67,0-1.58-.6-3.91.2-4.61,8.81-7.77,4-17.89,4.31-26.78.76-23,.24-46.06.27-69.09,0-3.13.19-6.27.29-9.4l-.3-31.91c1.07-7.14-7.87-11.83-4.77-19.47-2.89-3.48-5-8.19-10.53-7.85-1.31.08-2.53,1.49-3.79,2.28a11.07,11.07,0,0,1,1.66,1.7c1,1.53,4.51,2.44,1.18,5.09-1.15.92-2.68,2.34-2.71,3.56-.23,9.52-.13,19.06-.13,28.59,0,8.73-.33,17.49.1,26.2.44,9-3.05,18.8,4.56,26.73.61.64.09,3.26-.75,4.27-7.49,9.06-3.34,19.17-2.86,29,5.25,3.08,3.64,8.22,3.68,12.75C178,585.29,177.94,597.21,177.94,609.12ZM619.79,180.31c-3.16,0-6.48-.61-9.41.19-2.73.74-5.4,4.71-7.46,4.27-6.3-1.35-9.79,5.53-14.59,4.75-6.39-1.05-9.59,3.95-14.58,5.28-5.17,1.39-6.66,4.78-3.32,7.78,3.82,3.42,2.32,8.79,6.36,11.78,4.73,3.5-.7,10.5,4.87,14.61,4.25,3.13,1.32,8.81,1.65,13.31.21,2.88,1.35,4.51,3.8,4.73,3.91.35,9.26,1.73,11.56-.21,7.58-6.37,16.06-4,24.29-4.45,1.57-.1,3.63.62,4.63-.14a35.39,35.39,0,0,0,8.11-7.8c.74-1.1-.58-4.6-2-5.95-2.62-2.53-2.6-5.35-2.59-8.47q.09-17.73,0-35.46c0-2.73-1.5-4.18-4.26-4.21C624.51,180.3,622.15,180.31,619.79,180.31Zm-36.48,556a9.54,9.54,0,0,0-1.4-1.69c-.57-.43-1.48-1-2-.84-6.26,2.25-13.14,3.6-18.82,6.31-7.9,3.77-16.57,6.74-23.39,12.71-10.65-1.45-18,6.61-27,9.85-4.91,1.76-9,5.66-14.83,4.46-3.86,5-11.72,3.77-15.13,9.54-10.33.25-13.16,10.32-19.74,15.47-1.75,1.38-1,5.74-1.71,8.68-.32,1.4-.87,3.1-1.91,3.92-5,3.94-7.94,9.15-10.06,15-.41,1.12-.8,2.24-1.21,3.37,2.16.3,4.52,1.31,6.4.73,2-.63,4-4.29,5.33-3.95,7.84,2,13.13-3.81,19-6.43,6.64-3,14.17-6,18.52-13,2.15-3.46,7.12-3.46,9.42-5.5,3.69-3.26,8.92-2.73,11.83-6.38,3.5-4.36,8.33-6.19,13.11-8.67,6-3.12,9.42-9.69,16-13.12s11.71-10.13,17.6-15.23a14.08,14.08,0,0,1,5.72-3.36C576,746.63,578.1,739.65,583.31,736.3ZM683.87,304.35c-1.37.5-3.54.62-4,1.56-2.09,4.4-7.08,2.16-10,4.85-3.28,3-5.53,6.92-10.82,8.2-6.48,1.57-9.53,6.81-9,14.1.55,7.07.93,14.33-.11,21.29s2.52,11.59,5,17c2.14,4.72,5,5.88,8.27,3.48,3.69-2.68,5.32-8.25,10.7-8.39,4.84-.12,6.73-6.83,12.18-5,2.32-4.8,7.92-3.92,11.49-6.64,5.31-4,6.68-9.46,3.46-16.21-.64-1.34-3.12-2.42-3-3.41,1.39-11.44-8.11-18.91-10.4-29C687.5,305.35,685.2,305,683.87,304.35ZM449.26,792.72a22.22,22.22,0,0,0-4-1.72c-7.49-1.65-12.46,4.15-18.53,6.6-6.74,2.72-12.86,7-19.62,9.69s-12.22,8.79-20.56,7.69c-2.22-.29-3.81,2-3.5,4.85.43,3.83-3.33,4.94-5.17,7.28s-5.14,3.95-4.3,7.67c1.26,5.52-2.5,8.36-5.52,12-3.29,3.94-5.73,8.61-8.31,13.09-.16.28,1.81,2.58,2.7,2.53,3.69-.22,7.14.37,11.05-1.82,14-7.83,28.38-15.11,43.05-21.59,3.94-1.74,5.79-4.9,8.95-6.93-1.53-6,5.2-8.57,5.82-14.3.4-3.71,8-6.59,8.53-10.36.89-6.51,5.87-8.81,9-13A5,5,0,0,0,449.26,792.72ZM755.19,502.36c0-2.36,0-4.73,0-7.09-.06-3.81-1.45-4.91-6-4.87-3,0-6-.32-8.51,2.41s-5.64,6.36-8.85,6.77c-4.82.61-6.76,5.42-12.13,5.65-4.69.21-6.31,8.55-12.61,9.06-4.56.36-6.62,6.64-12,5.21a51.16,51.16,0,0,1-16.33,11.92c-5.39,2.46-5.89,5.65-2.36,11,1.87,2.87,2.8,5.4,2.41,8.48-.47,3.65,1.52,5.92,4.05,7.75,1.34,1,1.81,4.68,5.06,1.59s5.26-7.54,10.86-8c6.33-.52,7.27-10.32,15-9.54,1.1.11,2.5-1.55,3.57-2.59,3.4-3.28,6.42-7,10.13-9.89,3.45-2.67,9-2.1,11.32-6.77s8.17-3.51,11.44-6.65c2.8-2.67,6.09-5,5-9.77A22.42,22.42,0,0,1,755.19,502.36ZM397.48,666.55c-2,1.06-3.53,1.5-4.51,2.5-4.42,4.52-8.45,9.5-16,7.56-.94-.24-2.33,1.75-3.65,2.44q-6.84,3.57-13.78,6.94c-4.62,2.23-9.65,3.83-13.85,6.67s-7.1,7.55-13.2,8.65c-3.2.57-5.22,6.28-8.6,7.72s-7,2.21-9.77,5.25c-2.35,2.58-3.71,5.26-1.75,8.12,1.73,2.52,3.89,4.3,4.19,7.9.24,3,5,4.89,7.06,3a16.76,16.76,0,0,1,10.11-4.68c4.93-.58,9.84-3,14.32-5.38s6.31-8.34,13.05-9c5-.5,6.62-8.17,12.72-9.27,6.72-1.21,9.12-8.18,14.07-11.87,4.2-3.14,10.27-3.2,13.25-8.34.77-1.33,2.22-2.25,3.31-3.4,4-4.23,3.74-6.41-1.73-11.45A34.35,34.35,0,0,0,397.48,666.55Zm-88.37-362.2h14.28c3.54-5.75,9.25-5.37,14.67-4.67,6.54.85,9.93-8.47,17.07-4.87,4.81-4.21,10.64-5.2,16.74-5.68.65-.05,1.89-2.81,1.53-3.84-1.22-3.44-3.21-6.6-4.59-10-2.62-6.39-6.73-10.23-14.14-9.12-5.17.78-10.58-1.63-15.49,3-4.27,4-10.53.9-15.8,1.89-.64.12-1.25,1-1.67,1.63-2.71,4.11-7,2.28-10.64,3.16s-7,4.79-9.89,4.26c-7.2-1.31-10.26,6.77-16.79,6.27-.28,0-2,4.74-1.12,6,2.16,3.23,5.59,5.59,8.14,8.6a8.64,8.64,0,0,0,8.19,3.38A94.21,94.21,0,0,1,309.11,304.35ZM306.76,738c-.68-1.3-1.4-2.59-2-3.91-1-2-2.18-3.91-2.68-6-1.42-5.91-3.49-2.85-5.73-.64-3.29,3.25-7.92,0-11.07,1.86-3.3,2-5.38,5.9-8.61,8.07-3,2-7.18,1.58-9.82,5.08-2.23,3-4.72,5.65-9.46,5.92-3.28.18-5.21,5.77-9.92,4.45-2.63,4.36-8.82,3.36-11.36,6.64-5,6.47-12.71,8-18.86,12.29-5.38,3.73-12.84,3.94-17.46,9.35-5,5.9-13.7,6.51-18.33,13.34-4.8,7.06-14.94,7.77-19.75,15.19-5.46-1.58-7.44,4.85-12.09,5.27-1.41.12-3.68.64-4,1.49a11.87,11.87,0,0,0-.19,6.34c.6,2.25,1.54,1.24,3.34.06,8.68-5.72,19.51-8.09,26.21-16.93,8-1.77,14.18-8.18,22-9.8,4.69-1,8.76-1.08,12.27-5.15,4.46-5.15,8.65-11.19,17.43-9.79,2,.32,4.66-3.55,7.09-5.4,1.78-1.35,4-3.91,5.49-3.59C247,773.75,250,767,255.2,764.22c7.75-4,15.4-9.11,23.84-11,4.71-1.05,8.25-3.1,12.23-5.12,4.55-2.32,9.51-3.82,14.1-6.07C306.28,741.6,306.32,739.38,306.76,738ZM278.13,422.42V439c8.51,10.24,3.27,22.42,4.74,33.65.2,1.56-.65,3.73.13,4.66,9.28,11.1,2.92,24.12,4.58,36.12.54,3.88-.1,7.92.21,11.85.09,1,1.71,1.93,2.63,2.88.56-.56,1.63-1.14,1.6-1.67-.21-4.31,3.12-6.7,4.77-10s-.15-7.82.53-11.65c1.57-8.84-4.56-19.07,4.66-26.54v-38c6.17-3.43,1.12-6.49.45-10.38-1.46-8.45-.41-17.33-.47-26,0-2.72-1.51-4.19-4.3-4.2h-4.75c-10.15,0-14.63,4-14.77,13.16C278.09,416.09,278.13,419.26,278.13,422.42Zm124,226.22c0-.79.34-2-.05-2.31-6.3-5.36-4.38-12.64-4.86-19.42-.07-1-1.87-2.43-3.12-2.8s-3.46-.29-4.38.54c-4.11,3.7-8.76,7.21-11.62,11.78-3.7,5.91-10.7,5.67-15,9.92-3.94,3.89-8.06,7.62-11.68,11.79-4.12,4.72-11.08,4.67-15,9.9-3.29,4.38-7.58,8.05-11.65,11.79-2.74,2.51-6.83,1.86-10,4.77-3.78,3.47-1.77,9.33-6.43,11.75-2.07,1.08-2.06,2.4.21,3.29,1.36.54,3.34,1.15,4.4.56,5.16-2.88,11.13-5.27,14.86-9.54,3.88-4.44,10.56-3.32,13.33-8.18,3.83-6.71,10.27-5.91,16.3-6.62,6.08-7.12,16.92-6.18,22.89-13.4,3.23-3.9,6.82-5.69,12.16-5.3C396.25,657.44,401.77,651.61,402.16,648.64ZM163.63,606.2h-.69c0-15.77,0-31.54-.07-47.31a2.28,2.28,0,0,0-1.62-1.56c-.55,0-1.41.89-1.62,1.56a17.63,17.63,0,0,0-.74,4.45c-.1,3.17,0,6.34,0,9.52v19c0,7.14.29,14.29-.09,21.41-.32,6-6.53,9.89-5,17.14,1.45,6.83.31,14.21.31,21.35v40.47c0,6.34-1,12.9.25,19,1.59,7.72-4.7,12.77-4.94,19.5-.33,9.5-.15,19,0,28.55,0,.85,1.76,1.75,2.84,2.4.17.1,1.56-1,1.55-1.59-.06-3.27.64-6,3.39-8.19,3-2.43,1-7.34,5-10,2.89-1.9,2-5.37-.57-8a12,12,0,0,1-2-3.2c6.57-4.66,3.55-11.51,4-17.47.65-9.05-1.61-18.33,4.53-26.79,1.69-2.34,1.28-7.46-2.45-10.6-4-3.38-2.3-6.8,1.05-9.74.6-.52,1.13-1.11,1.69-1.68-5.28-3.08-4-6.53-.55-10.09-6-3.69-4.11-9.63-4.18-14.92C163.54,628.42,163.63,617.31,163.63,606.2Zm212,122.74c-5.22-.25-10.44-.67-14.36,4.9-4.06,5.76-11.63,6.11-17.33,9.42-7.81,4.54-16.43,8-21.86,15.77-.78,1.12-1.35,3.12-.88,4.23.84,2,2.91,3.52,3.8,5.53,1.28,2.88-5.43,3.8-2.59,6.5,3.36,3.19,3.33,6.6,3.51,10.53.17,3.48-2.18,8.32,3.26,9.82,4.69,1.28,6.71-3.08,9.45-5.61,2.9-2.68,6-5.3,8.3-8.43,2.15-2.89,2.95-6.83,5.21-9.6,3.48-4.26,7.71-7.91,11.62-11.82-.85-7.66,8.39-9.56,9.32-15,1.1-6.46,6.06-8.69,8.94-13,.36-.54-.63-2.79-1.43-3.1C379.22,728.56,377.49,728.94,375.64,728.94ZM862.53,872.06c1.13-1.13,2.17-1.68,2.18-2.25.14-9.5.66-19,.06-28.49-.53-8.17,3.91-17.5-4.62-24.2,0-9.52.09-19-.17-28.54,0-.83-2.33-2.24-3.61-2.27-3-.07-7.33-.64-8.88,1.05-4.8,5.24-11,8-16.69,11.68-1.4.91-5,3.06-2.8,4.69,4.28,3.1,2.34,8.84,6.48,11.82,3.89,2.8-.18,8.63,2.08,10.79,3.65,3.49,4.09,8,6.29,11.86,2.91,5.09,6.06,10.31,7.46,15.88,1,3.8.92,7.43,4.33,10.19A105.38,105.38,0,0,1,862.53,872.06ZM736.09,320.68c3.6-7.73-6.48-12.44-4.59-19.37,2.15-7.91-5-12.41-5.94-19.12-.12-.83-4.36-2.07-6.09-1.45-2.68,1-4.47,3.48-7.48,4.84-9.77,4.41-16.24,11.82-13.94,23.66.4,2.05,2.86,3.7,3.23,5.75,1.18,6.61,7.07,11.29,6.56,18.88-.27,3.9,5.09,7,5.45,11.89.14,2,1.7,1.44,3.31-.21,1.45-1.49,3.95-1.89,5.79-3.06C730.37,337.39,738.32,332.22,736.09,320.68ZM199.64,304.35c3.28-.9,7,1,11-1.38,6.9-4.25,13.65-9.57,22.63-8.57,3.3-6.21,9.79-3.23,14.54-5.19,1-.4,1.83-2.68,1.64-3.92-1.09-6.94-8.25-9.06-11.69-14.2-6.92.34-14.84-2.59-20.49,1.75-4.59,3.53-9.83,4.19-13,2.47-5.57-3-8.3,10.28-13.37,1.4-4.35.11-10.38,8.35-7.64,11,4,3.85,4.39,7.87,4.34,12.68,0,2.59,1.56,4.18,4.5,4C194.44,304.24,196.83,304.35,199.64,304.35ZM655,405.28c0,1.58-.06,3.16,0,4.73.13,2.85,4.17,5.24,6.79,4.06s4.11-3.89,7.38-5.07c8.2-3,16.93-6.18,23.37-11.71,5.91-5.07,12.5-8.28,19.08-11.55,2.94-1.46,5.73-1.64,5.37-5.62-.27-3,.74-5.94-1.91-8.73-3.59-3.75-11.11-7.58-14.3-4.73-3.63,3.24-8.35,3.47-11.69,6.31-4.2,3.56-7.43,8.4-11.92,11.44-4.12,2.79-9.5,3.65-14.07,5.88C657,393.27,653.94,398.24,655,405.28ZM645.47,364c0-4.72-1.13-9.8.24-14.08,2.53-7.93-5.73-12.34-5.16-19.36,0-.39-2.88-1.59-3.07-1.35-4.36,5.54-10.65,8.21-16.47,11.66-2.58,1.53-4.68,4-4.22,7.65s-.9,9.26,1.15,11.14c5.11,4.69,3.57,10,3.56,15.2,0,5.55,6.5,8.17,5.2,14.61-.87,4.33.2,3.34,5.85,2,11.7-2.71,14.29-10,13-20.42A55.71,55.71,0,0,1,645.47,364ZM668.05,495c5.5.5,9.17.53,12-3.26,5.15-6.86,15-7.74,19.83-15.18,4.19.13,7.35-1.77,9.8-5,9.13,1.69,10.5-11.74,19.62-10.07,3.36-3.36,7-6.51,9.95-10.19,1.22-1.52,1.54-4.26,1.27-6.32-.31-2.43-4.84-3.24-7.92-1-6.61,4.89-14.58,7.12-21.43,11.56-3.69,2.39-9,2.33-11.38,6.85-2.49,4.69-8.39,3.18-11.54,6.67s-8.76,2.23-11.66,6.61c-.9,1.38-4.4.76-6.19,1.9-5.12,3.25-7,8.29-5.7,14.1C665.1,493.27,667.49,494.44,668.05,495ZM206.61,323.43c6-.24,12.7,1.87,16.92-4.77,6.3,0,12.61-.23,18.89.07,7,.33,11.55-7.86,19.34-5,2.76,1,6.31.65,6.84-3.81.68-5.79-.56-8.31-5.23-10.35-2.46-1.07-8.85.56-12.5-.34-7.84-1.92-12.39,4.83-19.31,5.62-6.07.69-12.9,3.33-17.5,8.7-6.15-2.09-8.26,7.16-14.46,5.25-.26-.08-1.34,1.92-1.68,3.06-.1.33,1,1.45,1.61,1.49C201.88,323.54,204.25,323.43,206.61,323.43Zm642.23-28c-1.08.67-2.13,1.45-3.29,2-7.89,3.92-15.5,10.05-23.77,11.13-11.52,1.49-19.36,12.13-31.4,10.68-4.39,4.2-8.09,9.27-14.84,10.21-1.25.18-2.35,2-3.35,3.26-.8,1-1.94,2.26-1.86,3.33.2,2.83,9.52,8,11.24,6.08,4.75-5.17,12-5.95,17-11.29,4.77-5,13-6.61,19.11-10.61,3.21-2.1,7.48-.73,10.08-4.76,4.33-6.69,12.49-7.73,19.05-11.15,1.31-.68,3.06-1.31,3.62-2.45s.3-3.12.07-4.67C850.43,296.58,849.48,296.07,848.84,295.43ZM766.39,409.36a32.73,32.73,0,0,1,3.62-2.89c2.45-1.47,4.46-6.56,4.31-10.39a115,115,0,0,1,0-14.14c.39-4.82-3.21-6.89-6-9.27-1.42-1.21-4.21-1.37-6.26-1.11-1.23.16-2.23,2.07-3.36,3.16-4,3.86-3.93,3.85-3.6,15.81.19,7.07,0,14.14.22,21.21,0,.48,2.75,1.56,3.09,1.22C760.74,410.74,762.85,408.52,766.39,409.36ZM354.46,247.1c0-.8.32-2-.07-2.3-.92-.72-2.87-1.7-3.18-1.38-2.27,2.3-4.54,4.62-8,3.64-8.47-2.38-14.23,4.09-21.09,6.62-2.69,1-4.9,2.94-8.26,3.08-9.21.38-26.8,8.41-34.15,15.06a15,15,0,0,0-1.39,1.67c1.27.75,2.54,2.1,3.83,2.12,3.74.06,7.56,1,10.89-2.52,1.83-1.94,6.35-1.62,7.76-3.64,4.62-6.6,14.79.37,18.22-8,3.17,0,6.37.22,9.51-.08a20.38,20.38,0,0,0,6.35-1.84c6-2.73,11.62-6.26,17.9-8.48C353.66,250.69,353.91,248.45,354.46,247.1Zm52.09,100.19c8.13,2.29,13.45-8.3,21.86-4.78,2.88-4.75,7.5-4.41,12.29-5,5-.63,8.62-5.45,14.77-4.87,4,.38,7-4.73,12.29-4.82,4.78-.09,9.51-3.51,14.22-5.55a1.83,1.83,0,0,0,.78-1.61c-.28-.67-1.11-1.69-1.6-1.63-5.92.7-12.35-3-17.76,2.66-4.31,4.5-13.12-1.56-16.49,6.45-.24.57-3.1.41-4.58,0-9-2.39-15.18,7.39-24,5.38-4.4,2.81-8.85,5.54-13.15,8.48-1.1.75-1.72,2.2-2.56,3.32ZM790.66,462.1c-.56.55-1,1.35-1.68,1.62a42.59,42.59,0,0,0-16.35,11.57c-4.31,4.87-4.39,15.67.21,20.8,1.85,2.07,2.86,3.9,6.84,1.39,5-3.18,10.15-5.87,14.61-10.09,3.9-3.69,1.77-5.08-.08-8.65-1.92-3.72-.54-9.08-1-13.68C793.14,464,791.56,463.08,790.66,462.1Zm-641.34-101c2.59,5.48-2.63,13.07,2.88,20.76,5,7,1,16.6,2,25,.12,1,2.36,2.47,3.44,2.33,2-.25,5.6-1.37,5.69-2.38a137,137,0,0,0,.19-18.79c-.35-6.65,2.73-14.26-4.7-19.21,0-3.92-.17-7.85,0-11.76.27-4.86-6.87-6.62-4.93-12.16.11-.32-1.25-1.64-1.54-1.53-1.12.44-2.93,1.23-3,2C149.19,350,149.32,354.68,149.32,361.07Zm0-76.48c0,2.5-1,5.83.18,7.06,4.17,4.31,4.44,9.2,5,14.72.29,3.1,5.66,5.19,4.54,9.93,0,.21,2.49,1.66,3.12,1.29,4.5-2.56,8.86-5.36,13.16-8.25,2.07-1.39,2.61-2.86.38-5.1-1.41-1.43-2.08-3.9-2.41-6-.59-3.78.67-8.64-1.28-11.23-3.06-4.07-8.79-.87-13.25-1.78a8,8,0,0,1-4-1.77C152.06,280.7,150.05,279.56,149.32,284.59Zm591.56,9c0,5.56-1.31,11.56.37,16.56s5.52,9,4.55,14.86c-.13.75,1.69,1.86,2.72,2.67a6.73,6.73,0,0,0,1.6-1.62c1.67-2.5,5-3.43,5.18-7.43.46-14.63.08-16.58-9.59-36.6-.63-1.3-.29-3-.69-4.49-.18-.67-1.06-1.14-1.62-1.71-.84,1.15-2.33,2.26-2.41,3.46C740.71,284.07,740.88,288.85,740.88,293.62ZM612.3,323.43c.76,0,1.69.18,2.27-.17,4.4-2.69,8.5-6,13.14-8.1,4.08-1.87,8.34-2.88,11.45-6.65,1.45-1.75,1.58-1.84,0-3.53-5.3-5.56-5.82-6.42-13-2.35-3.92,2.21-7.49,1.73-11.09,1.55-4.47-.23-7.21,1.71-9.95,4.67-1.69,1.83-2.3,2.84-.32,5.17,1.79,2.09,2.08,5.4,3.56,7.85C608.91,322.84,610.93,322.94,612.3,323.43Zm-248.41-4.77c5.46,0,11,.31,16.36-.25,1.12-.12,3-3.8,2.63-5.31-1.4-5.13-6.66-8.58-11.69-8.77-5.43-.2-11-.86-14.42,4.79-6.24,0-12.49,0-18.73.07-.59,0-1.7,1-1.64,1.37.21,1.16,1.1,3.24,1.33,3.18,4.67-1,6.6,3.41,9.87,4.64s7.7.28,11.6.28ZM358.4,906.21c1.06,3,1.49,7.71,3.1,8.16,3.34.94,8.15.87,10.83-1,5.07-3.54,9.35-8.37,13.38-13.16,2.29-2.7,3-6.68,5.21-9.51,1.32-1.71,2.2-2.73.18-3.33s-5.25-1.17-6.19-.14c-6.28,6.87-13.92,11-22.73,13.62C360.64,901.32,359.8,904.12,358.4,906.21ZM750.18,408.62c3.76-7.35-8.56-12.25-4.53-20.73-2-.82-4.42-2.75-6-2.23-5.5,1.77-5.74,3.41-4.56,10.8a79.87,79.87,0,0,1,.91,16.2c-.23,4.84,3.5,6.59,5.81,9.53,1.28,1.65,1.84,1.14,3.47-.39C748.88,418.41,751.52,414.9,750.18,408.62Zm-388.51-47c2.34,0,4.86.56,7-.13,3.4-1.11,6.38-3.72,9.8-4.46,3.72-.8,7.77.05,11.63-.34.95-.1,2.45-2.22,2.42-3.37-.11-3.65,1.71-8-2.27-10.62-1.08-.72-3.23-.61-4.54-.07-2.69,1.12-3.6,5.6-7.4,4.62-8-2.09-13.14,8.36-21.42,4.83-.8,2-2,4-2.23,6-.12,1.08,1.28,2.85,2.43,3.38S360.11,361.6,361.67,361.6ZM340.15,857.73c0,5.57,0,11.13.07,16.69,0,.57,1,1.28,1.63,1.64a2.07,2.07,0,0,0,1.58-.21c.85-6,7.29-9.93,6.21-16.49-1-5.86,1.54-10.31,4.75-14.77,1.25-1.74,1.77-4,2.58-6.06.43-1.11.76-2.25,1.14-3.37-2.15-.28-4.52-1.25-6.4-.67s-3.61,3.94-5.4,4c-5.51,0-6.59,2.66-6.23,7.38C340.39,849.77,340.15,853.76,340.15,857.73ZM135,400.14h.05c0,5.46-.16,10.92.16,16.36.05.85,2.43,2.34,3.53,2.18,2-.29,5.61-1.81,5.54-2.45-1-8,4-17.18-4.34-24-.69-.56.31-4.82,1.68-5.95,4.58-3.75,2.53-8.49,2.69-12.89,0-.53-.94-1.26-1.6-1.58-.39-.19-1.54.21-1.56.43-.64,5.95-6.86,9.69-6.22,16.22C135.32,392.3,135,396.24,135,400.14ZM635.93,418a72.09,72.09,0,0,0,1,8.75c.14.76,2.6,1.7,3.82,1.49,3.78-.63,9.38-5.78,9.46-8.59.16-5.44.71-11-.13-16.31-.95-6-3.33-1.72-5.63-.31-8.38,5.16-8.46,5.05-8.5,10.08C635.92,413.92,635.93,414.7,635.93,418Zm85.87-51.82c0,1.61,0,3.17,0,4.73.11,4.61.55,5.22,4.62,2.38,2.88-2,5.53-1.89,8.49-2.23,6.07-.69,6.09-.82,6-7-.06-3.12.58-6.4-.27-9.26-.4-1.34-3.71-2.73-5.47-2.48-1.93.27-3.52,3.38-5.4,3.54C722.9,356.42,720.86,360.06,721.8,366.21ZM609.13,532.78a20.46,20.46,0,0,0,3.2-2.13c3.9-3.79,8.52-7.16,11.35-11.65,3.15-5,4.93-10.79,10-14.53.77-.57.8-2.13,1.18-3.23-2.12-.34-5.15-1.74-6.2-.83-5.28,4.55-10.92,9.14-14.7,14.86-2.65,4-5.39,8.54-6.61,13.51a3.74,3.74,0,0,0,.13,2.25C607.76,531.7,608.5,532.16,609.13,532.78ZM319.05,375.91v-.07c3.08,0,6.81,1.09,9.09-.27,3.16-1.88,5.32-5.13,9.77-4.84.62,0,2.16-3.77,2.06-5.74-.13-2.3-2-3.74-4.8-3.44-2.29.25-6.08-.84-6.71.2-3.49,5.69-11.87,3.45-14.74,9.6a9.8,9.8,0,0,0-1,3.28c0,.39,1.06,1.15,1.7,1.22A39.66,39.66,0,0,0,319.05,375.91ZM181.61,361.67c-.71.66-3,1.78-3.53,3.45-2.66,8.84,3,15.94,5.65,23.64.66,1.92,1.77,1.24,3.36-.37,3.3-3.32,2.93-3.49.67-10.25-1-2.89-1.09-5.7-3.57-8.07-2.88-2.77,1.48-3.24,2.19-4.93C187.47,362.56,186.44,361.43,181.61,361.67Zm564-12c1.58,1.58,2.65,2.75,3.82,3.8,5.51,5,6.53,5,11.42,0a29.22,29.22,0,0,0,3.31-3.37c1.7-2.4-2.56-11.06-5.64-11.32a4.92,4.92,0,0,0-3.3,1.33C752,343.23,748.84,346.48,745.65,349.67Zm-52.53-83.48c2.32,0,6,.94,6.76-.16,4.55-6.28,10.92-4.55,16.85-4.53,2.74,0,4.38-1.07,5-3.42a6,6,0,0,0-.56-4.34c-2.46-3.62-3.26.63-4.85,1.26-1.33.53-2.63,1.49-4,1.57-3.87.21-8-.8-11.55.33-3.27,1.06-5.09,5.7-9.77,4.66-.38-.08-1.22,1.94-1.85,3Zm-18.3,176.46c-4.42,1.86-9.18,3.44-13.42,5.91-1.28.75-2.07,4.44-1.35,5.93s4.62,3,5.47,2.32c4.67-3.61,8.83-7.87,13.17-11.9a10.3,10.3,0,0,0-1.65-1.59A9,9,0,0,0,674.82,442.65Zm108.3-22.13c-1.36-.56-3.18-2-4-1.54-5.85,3.18-12.57,4.79-17.42,9.88-1.59,1.67-2.17,2.35-.19,3.44.64.36,1.53,1,2,.8,6.86-2.88,14.2-5,19.29-10.91C783.12,421.82,783,421.09,783.12,420.52ZM163.63,254.23a87.86,87.86,0,0,0-.14-9.33c-.08-.69-1.94-1.35-3.07-1.66-.35-.1-1.43,1-1.5,1.58-.74,6.57,2.57,14.12-4.78,19,1.23.78,2.57,2.32,3.68,2.17,2-.28,5.15-1.2,5.55-2.53C164.22,260.63,163.63,257.34,163.63,254.23Zm486.84-24.9c-.3-3.11-.32-6.19-1.06-9.08-.22-.85-2.41-1.4-3.78-1.73-2.76-.66-5.19,1.37-4.71,3.34,1.16,4.83,3.42,9.4,5.32,14,.28.66,1.06,1.11,1.61,1.66.55-.55,1.44-1,1.59-1.66C649.93,233.73,650.15,231.49,650.47,229.33ZM619.35,290a67.66,67.66,0,0,1-7-.05,4.17,4.17,0,0,0-5,3.39,6,6,0,0,0,.56,4.33c2.46,3.62,3.63-.24,4.78-1.33,3.42-3.23,7.46-.59,11-1.69.87-.26,1.46-1.91,1.81-3,.11-.34-.93-1.44-1.55-1.54A31.19,31.19,0,0,0,619.35,290ZM755.2,439.27c0-4.9-2.15-6.76-5.88-6.06-2.39.44-4,1.7-3.73,4.67.28,3.59,2.27,5.68,5.89,4.67C753.16,442.08,754.4,440,755.2,439.27ZM292.53,643.16c-.62-1.5-1.14-3.9-1.71-3.92-4.06-.09-8.92,6.74-7.8,11,.2.75,2.83,1.69,3,1.48C288.23,648.84,292.57,647.5,292.53,643.16Zm524.68,195.6c0-2.87.31-4.51-.09-6s-1.5-2.47-2.29-3.69c-.8,1.22-2.07,2.37-2.29,3.68a21.61,21.61,0,0,0,0,7c.22,1.32,1.49,2.46,2.28,3.68C815.8,841.53,816.77,839.62,817.21,838.76Zm-211.13-563c-1.55,0-3.19-.31-4.63.09s-2.47,1.5-3.69,2.29c1.22.8,2.37,2.06,3.68,2.28a21.33,21.33,0,0,0,6.95,0c1.32-.22,2.46-1.48,3.68-2.28a33.14,33.14,0,0,0-3.69-2.33A5.86,5.86,0,0,0,606.08,275.73Zm-213.3,90.63-4,1.45a15.41,15.41,0,0,0,1.39,3.21,31.82,31.82,0,0,0,3.2,3.27l1.62,1.62c.79-1.2,2.12-2.33,2.29-3.61C397.82,368.18,396.45,366.61,392.78,366.36ZM296,242.33c-1.55,0-3.19-.31-4.63.09s-2.47,1.5-3.69,2.3c1.22.79,2.36,2.06,3.68,2.28a21.33,21.33,0,0,0,6.95,0c1.32-.22,2.46-1.49,3.68-2.28a34.17,34.17,0,0,0-3.69-2.34A5.87,5.87,0,0,0,296,242.33ZM655.59,459.4c-.76-2.23-1.41-4.3-2.21-6.31a1.8,1.8,0,0,0-1.54,0c-2.26,2.57-2.26,10,0,12.59a1.8,1.8,0,0,0,1.54,0C654.18,463.69,654.83,461.62,655.59,459.4ZM247.88,233.55c-.55,0-1.24-.13-1.61.15-2.39,1.77-2.32,6.52.11,7.84a1.82,1.82,0,0,0,1.59-.11C250.36,239.65,250.27,235,247.88,233.55Zm488.55-6.21c-1-1-2.62-3.36-3.39-3.11-2.58.81-2.56,5.88-.16,7.66.36.27,1.43.31,1.54.11C735.08,230.76,735.57,229.42,736.43,227.34ZM320.31,239.19c-1.4-2.39-6.11-2.48-7.88-.09a1.76,1.76,0,0,0-.11,1.58c1.32,2.43,6.06,2.51,7.84.12C320.43,240.43,320.27,239.73,320.31,239.19Zm439.27,247c1.17,1.78,2,3,2.77,4.19.79-1.21,2-2.33,2.27-3.65a9.05,9.05,0,0,0-.7-4.25c-.21-.65-1-1.1-1.57-1.65C761.38,482.75,760.4,484.63,759.58,486.22ZM162,543.64c-.54,0-1.23-.13-1.6.15-2.39,1.78-2.32,6.52.11,7.84a1.82,1.82,0,0,0,1.59-.11C164.49,549.74,164.39,545,162,543.64Zm91.6-148.32c2.07-.86,3.41-1.35,4.66-2,.19-.1.15-1.17-.12-1.54-1.78-2.39-6.84-2.41-7.66.16C250.23,392.7,252.62,394.3,253.6,395.32Zm33.31-13c-1.4-2.39-6.1-2.48-7.88-.09a1.8,1.8,0,0,0-.11,1.58c1.33,2.43,6.07,2.51,7.84.11C287,383.55,286.87,382.85,286.91,382.31ZM806,766.35c2.39-1.4,2.48-6.11.09-7.88a1.8,1.8,0,0,0-1.58-.12c-2.43,1.33-2.51,6.07-.11,7.85C804.8,766.47,805.5,766.31,806,766.35Zm6.78,20.42c-.82-1.59-1.79-3.47-2.77-5.35-.79,2-2,3.9-2.22,5.94-.12,1.1,1.43,2.39,2.22,3.6C810.85,789.75,811.65,788.55,812.82,786.77Zm-149-503.13c0-.54.13-1.24-.15-1.6-1.77-2.4-6.51-2.32-7.84.11a1.8,1.8,0,0,0,.11,1.58C657.69,286.12,662.39,286,663.79,283.64Zm-9.37,10.79-4.18,2.77c1.2.79,2.49,2.34,3.6,2.22,2-.23,4-1.43,5.94-2.22Zm-517.71,534,3.07-1.69c-.53-.53-1.18-1.58-1.57-1.5a15,15,0,0,0-3.2,1.5ZM816.52,849.9l-1.7-1.7a14.78,14.78,0,0,0-1.49,3.21c-.08.39,1,1,1.49,1.56C815.4,851.94,816,850.9,816.52,849.9Zm1.38,20.46c.63.64,1.16,1.17,1.7,1.7a14.78,14.78,0,0,0,1.49-3.21c.08-.39-1-1-1.49-1.56C819,868.32,818.45,869.36,817.9,870.36ZM800.51,738.48c-.53.53-1.58,1.17-1.49,1.57a14.93,14.93,0,0,0,1.49,3.2c.53-.53,1.58-1.18,1.49-1.57A14.93,14.93,0,0,0,800.51,738.48Zm-.69-19.77,3.08-1.7c-.53-.53-1.18-1.58-1.57-1.49a14.93,14.93,0,0,0-3.2,1.49ZM484,630.45c.56,1,1.13,2,1.7,3.08.53-.53,1.58-1.18,1.49-1.57a14.78,14.78,0,0,0-1.49-3.21Zm201.38-5.78-1.7,1.7a14.93,14.93,0,0,0,3.2,1.49c.4.09,1-1,1.57-1.49ZM371.84,619.9l-3.07,1.7c.53.53,1.18,1.58,1.57,1.49a14.93,14.93,0,0,0,3.2-1.49Zm312.48-18.07,1.7,3.07c.53-.53,1.58-1.17,1.49-1.57a14.93,14.93,0,0,0-1.49-3.2Zm-4.77-12.94,1.7,1.7a14.93,14.93,0,0,0,1.49-3.2c.09-.39-1-1-1.49-1.57ZM163.63,535.73c-.53-.53-1.17-1.58-1.57-1.49a14.93,14.93,0,0,0-3.2,1.49c.53.53,1.18,1.58,1.57,1.49A14.93,14.93,0,0,0,163.63,535.73Zm-4.08-15,1.7,3.07c.53-.53,1.58-1.17,1.49-1.57a14.93,14.93,0,0,0-1.49-3.2Zm599.72-62-1.69-1.7a14.46,14.46,0,0,0-1.49,3.2c-.09.4,1,1,1.49,1.57ZM241.66,399.08l3.07-1.7c-.53-.53-1.17-1.58-1.56-1.49a14.78,14.78,0,0,0-3.21,1.49ZM817.9,393.3l1.7,1.69a14.93,14.93,0,0,0,1.49-3.2c.08-.39-1-1-1.49-1.57C819,391.26,818.45,392.3,817.9,393.3Zm-550-115.87-1.7-1.7a14.93,14.93,0,0,0-1.49,3.2c-.09.39,1,1,1.49,1.57C266.77,279.46,267.35,278.42,267.9,277.43Zm286.92,15c-.53-.53-1.17-1.57-1.56-1.49a14.78,14.78,0,0,0-3.21,1.49c.53.53,1.18,1.58,1.57,1.5A14.3,14.3,0,0,0,554.82,292.42Zm7.85,1.7,1.7-1.7a14.78,14.78,0,0,0-3.21-1.49c-.39-.08-1,1-1.56,1.49Z"/><path d="M570.83,933.39l-1.69-1.7a14.93,14.93,0,0,1,3.2-1.49c.39-.09,1,1,1.57,1.49Z"/></svg>