<svg id="Layer_1" data-name="Layer 1" xmlns="http://www.w3.org/2000/svg" viewBox="0 0 1200 1200"><title>BB_Artboard 42</title><path d="M626.5,597.61c3,6.08-3.69,9.45-3.83,15.11,0,2.06-3.8,3.44-3.83,6.84-.05,4.63,2,10.05-3.39,13.39-.43,5.38-1,10.72-5,14.92,1.7,5.37-2.62,8.81-4.3,13.07s-3.83,8.31-5.73,12.48c-3,6.59-7.85,12.16-7.27,20.48.41,5.7-4.56,10.67-4.38,17.32.12,4.66-3.58,9.78-6.53,14-1.92,2.76-1,5.29-1.5,7.91a3.55,3.55,0,0,0,3.12,4.45c5.25,1,9.88-.55,12.59-5.21,2.28-3.92,3.7-8.35,5.51-12.55,1.55-3.6,4.24-6.31,4.58-10.94.54-7.14,7.25-12.42,8.15-19.85,5-3.1,3.81-10.14,8.49-13.46-1-5.14.85-9.37,4.24-13.09-1.64-7.16,5.91-12.3,4.24-19.46,4-4.57,6.46-10.15,8.19-15.67,1.21-3.85,6.28-5.88,4.59-10.9-1.8-5.37,6.16-7.48,4.61-12.9,4.42-2.64,3.06-7.19,4.08-11.08,1.13-4.32,4.2-8.12,6.42-12.16.63-1.15,2-2.55,1.7-3.45-1.67-5.52,4.43-8.69,4.14-13.11-.58-8.78,4.31-15.14,7.31-22.54,2.53-6.26,3.26-12.77,9.19-17.54,4-3.2,8.24-3.41,11.47-1.77,2.91,1.49,6.27,2.62,8.71,4.43,2.94,2.19,2.25,7.54,5.88,10.2.61.44.47,3.4-.22,3.88-4.17,2.86-4.39,6.94-3.89,11.2a34.82,34.82,0,0,1-6.63,24.82c-1.32,1.85-2.28,3.55-1.84,5.6,1.26,5.89-3.41,10.43-3.75,15.26-.38,5.31-4,8.49-4.8,13.06s-5.26,7.5-4.49,13.13c.8,5.88-8.88,6.5-8.35,13.43.36,4.67,1.64,10-3.67,13.27,1.24,4.82-3.66,6.88-4.86,10.73-1.56,5.05-5.83,9.25-4.13,15.28.85,3-1.55,4.89-2.81,7.31-3.66,7.07-5.7,15.05-12.22,20.36a5.13,5.13,0,0,0-1.82,5.58c2,7.56-4.19,12.5-5.67,18.92-.35,1.52-4.45,1.88-1.32,4.53,1.62,1.36,2.85,3.24,4.59,4.37,1,.66,2.69.36,4.07.36q38.18,0,76.37,0c6.33,0,13.83-6.89,15.12-14.31.48-2.75.78-5,2.57-7.51,2.63-3.65,4.39-8,6-12.32s5.34-7.55,4.61-13.1c-.48-3.65,5.28-6,4.6-10.67,5-2.33,2.32-9.55,7.5-11.75-1-5.8,2.6-10.15,4.39-15.14,1.55-4.29,5.21-7.45,4.88-13.05-.23-4,2.9-8.9,5.92-12.09,4.12-4.35-.7-11.71,5.81-14.66,1.27-4.42-.94-10,4.5-13-.32-3.85,2.69-6,4.24-8.89,1.77-3.31-1.27-8.2,3.18-11.45,2.66-2,.71-6.92,4.56-8.68.5-.23,1.13-1.23,1-1.63-3-8.72,5.34-15.48,4.21-23.71a9.81,9.81,0,0,1,7.1-11.27c3.58-1,5.63-3.6,8.73-4.67,4.31-1.48,13.29,2.27,13.68,6.72a32.38,32.38,0,0,0,4.19,13.26c1.77,3.28.11,8.31.43,12.53.24,3.27-1.45,5.18-3.59,7,2.19,4.6-8.85,8.23-1,13.25-.85,1-2.12,1.87-2.48,3-1.93,6.27-7.1,11.21-6,18.86.79,5.81-5.91,10.54-4.52,17.08-5.07,2.27-2.37,9.51-7.5,11.74,1.28,4.83-5.28,6.87-4.46,10.74,1.19,5.68-4.07,8.51-4.4,13.15-.3,4.25-6.26,5.89-4.64,10.83-4.38,2.62-4.26,6.88-3.88,11.1.33,3.73-.82,6.45-3.53,9.22-8.53,8.68-10.25,21.41-17.72,30.8,1.14,7.31-3.76,12.56-6.42,18.55-1.76,4-1.79,4.23,2.54,4.25,7.07,0,14.14,0,21.21,0,14.86,0,29.74-.62,44.55.21,10,.56,20.83-3.92,30.24,3.83,1.68,1.39,5.49.2,8.32.2,30.41,0,60.83-.4,91.22.22,10.74.21,22.36-4.19,32.2,4h23.33c9.83-8.28,21.47-3.8,32.2-4,31.1-.63,62.23-.05,93.34-.36,6.6-.06,13.74,2.52,19.82-3.6,1.78-1.8,6.78-.15,10.24-.57,6.45-.77,11.39,1.76,12.8,7.77.92,4,3.4,5.91,5.75,8.23,2.15,2.12,3.63,4.18,3,7.28-.67,3.31,1.73,7.25-1.48,9.94-1.95,1.64-4.85,1.18-7.3,2.9-6.69,4.69-14.06,7.47-22.78,6.55-7.69-.81-15.54,0-23.32-.25-2.57-.08-3.93,1.35-5.14,2.93s-1.85,1.65-3.13-.12a5.88,5.88,0,0,0-5.19-2.83c-3.57.08-6.8.08-9.45,3.23-.42.5-5-2.7-5.59-2.1-3.53,3.35-6,4.24-10.61.87s-10.66-3-15.44-.34c-2.46,1.38-4.37,3-7.4,2.74-3.52-.25-7.07-.06-10.61-.06h-12.73c-4.24,0-8.58-.54-12.7.17-3.49.61-5.73-8.1-9.61-1.06-4.83.3-9.65.7-14.48.86-4.24.15-8.49,0-12.73,0H985.18c-15.56,0-31.12.13-46.68-.05-7.39-.09-15.28,2.06-21.67-4.09-.73-.71-2.86.27-4.13-.17-3.87-1.32-7.52,8.07-11.41.2-4.93,0-9.86-.1-14.8-.12-4.24,0-8.48,0-12.73,0H801.63c-5.66,0-11.32.09-17,0-5.37-.11-11.31,1.67-15.17-4.1-1.5,1.25-3,3.61-4.49,3.57-11-.33-15.94.84-18.51,7.74-3.19,8.58-9.67,15.91-9.88,25.67,0,1-2.86,2.26-2.68,3,.56,2.19,2.68,2.43,4.81,2.4,5.65-.08,11.31,0,17,0H950.9c5,0,9.91-.26,14.84.07,5.3.37,11.35-2.31,15.57,3.51.55.77,2.56.55,3.9.65s2.82,0,4.24,0h14.85c4.24,0,8.59.59,12.7-.15,5.44-1,8.77,3.73,13.14,4.15a140.26,140.26,0,0,0,25.43.07c6.77-.58,11.23,3.89,16.66,6.08,2.79,1.13,5.78,4,5.08,8.33-.45,2.81.61,5,2.34,7.54,3.08,4.48,2.67,4.83.53,7.11-1.93,2.06-4.09,3.92-6,6a8.55,8.55,0,0,1-7.16,3.35c-9.89-.23-19.82-.53-29.69.08-5.88.37-9-5.8-15.26-4.63-5.47,1-11.28.22-16.94.22s-11.32-.21-17,.09c-2.7.14-3.75-1.65-5.11-3.09-1.77-1.87-4.88-1.9-5.6-.9-3.58,5-8.62,3.83-13.36,3.86-4.08,0-8.14.81-11.53-3.23-1.25-1.49-5.21-.94-7.93-.94q-49.86-.07-99.72,0c-4.16,0-8.53-.74-11.18,3.73-3-1-4.65-4-8.64-3.9-21.21.37-42.46.74-63.63-.19-5.8-.26-7.34,6.43-13.17,4.82-3.94-1.09-8.43-.21-12.67-.21-4.95,0-9.9.13-14.85,0-4.19-.14-4.27,2.61-4.25,5.5s.35,5.58-2.37,7.53-.79,3.83.94,3.85c19.09.21,38.21-.41,57.27.34,10.75.43,22.21-4,32.35,3.84,1.77,1.37,5.51.2,8.34.2,15.55,0,31.15-.65,46.66.2,12.87.7,26.3-4,38.71,3.81,2.52,1.6,6.93.23,10.46.23q75.31,0,150.63-.08c5.3,0,11.48,2.26,15.33-3.91,10.22-2.48,17.36.94,23.39,12.08.91,1.68,1.78,3.46,2.76,5.2,2.86,5,2.32,9.3-1.22,12.94-2,2-3.66,5-6.06,5.81-5.58,1.92-9.76,7.67-16.57,6.17a6.23,6.23,0,0,0-2.11,0c-4.72.68-10.94-2.47-13.92,1.74-3.7,5.22-8.66-6-10.8,1.8-5.56.23-11.12.62-16.68.64-4.73,0-9.61,1.23-13.52-3.56-1.18-1.45-5.3-.6-8.07-.62-8.48,0-17-.28-25.45.1-4,.17-6.22-2-9.13-3.88-1.15-.77-3,3.89-6.45,3.85-18.39-.18-36.78-.15-55.16,0-2.66,0-3.51-1.94-5.1-3.15-2.61-2-5.07-1.77-7.23.67-3.36,3.79-8.84,3.83-11.2,1.51-4.36-4.27-9-3.29-13.63-3.3-37.49-.09-75,0-112.45-.08-4.72,0-9.78,1.37-13.45-3.67-.78-1.07-4.08-.94-6-.44-5.09,1.33-9,5.72-15.29,4.34-4.72-1-9.85-.2-14.8-.2h-17c-.7,0-1.68-.29-2.06.06a9.62,9.62,0,0,0-2.35,3.11c-1.85,4.18-2.4,9.87-5.53,12.34-5.05,4-1,9.62-4.26,13.3-1.73,1.93-5.19,4.44.39,5,7,.67,14.5,1.55,21.1-.22,7.21-1.93,14-4.4,21.69-4,8.46.47,17,.1,25.45.1,7.78,0,15.59.42,23.33-.12,7.31-.51,15.31,3.13,21.85-3.8,1.34-1.42,5.41-.31,8.22-.31,21.22,0,42.45.45,63.65-.23,8.61-.28,18.14,4.11,26-3.82,1.4-1.42,5.45-.2,8.28-.2,19.8,0,39.61,0,59.41,0,6.07,0,12.6,1.48,17.33-4.22,3.29.56,7-1.4,9.87,1.85.72.82,2.7,1.83,2.85,1.66,5.71-6.53,13.23-3.2,19.84-3.35,19.79-.43,39.6,0,59.4-.28,5.92-.11,12.8,2.66,17.48-3.77,4.2-.12,8.53.39,12.56-.47,9.55-2.06,14.16,4.74,18.94,10.45,1.85,2.21,0,7.7,2,9.57,5.33,5.19,2.51,8.13-1.24,12.06-4.06,4.25-7.89,7.17-14.47,6.43-7.68-.86-15.53-.2-23.31-.2h-17c-6.37,0-12.83.68-19.07-.19-6.08-.85-10.34,3.82-15.26,4.11-15.51.89-31.12-.16-46.65.54-7.35.33-14.78-2.55-22.34,2.41-6.46,4.25-15,1.21-22.59,1.54-7.76.35-15.59-.39-23.32.26-4.46.37-7.64,5.5-13.13,4.16-4.49-1.09-10,1.93-13.4-3.54-4,1.92-7.82,4.17-12.78,3.57s-9.88-.13-14.83-.13H851c-12.73,0-25.45,0-38.18,0-2.82,0-5.58-.23-7.48,2.47-2.14,3-3.46.23-4.42-1-1.69-2.15-4.95-2.14-5.61-1.31-3,3.8-6.76,4.21-11.17,4.16-14.85-.19-29.7-.14-44.55,0-4,0-8.57-1.49-11.43,3.16-.74,1.2-1.82.63-3-.92-3.63-4.77-11.48.45-14.46-6-2.91,2.71-7.21,2.92-10.14,5.13-5.22,4-9.83,4.41-14.56-.19-1.25-1.22-1.92-1.19-3.06.54-2.39,3.66-6.21,2.26-9.56,2.5-2.68.19-7.44-.69-7.26,2,.34,5-5.2,6.6-4.67,11,.15,1.24.9,3.31,1.61,3.42,5.94.88,10.17,7,17.17,5,3.26-.94,7-.16,10.56-.16h17c5.65,0,11.33-.27,17,.08,4.64.3,9.4-1.54,13.85,2.54s10.78,1,16.24,1.51,11.3.11,17,.11c4.24,0,8.5.23,12.72-.08,2.71-.19,3.54,1.9,5.11,3.12,2.6,2,5,1.75,7.28-.56a9.21,9.21,0,0,1,2.85-1.83c4.94,6.08,11.77,3.45,17.68,3.47q85.94.32,171.85,0c5.92,0,12.3,2.14,17.79-3.41,1.79-1.81,6.68-.66,10.16-.69,9.19-.06,18.38,0,27.58,0,9.07-8.16,20-3,30.08-4.09,6-.69,15,8.35,15.09,14.27.09,4.95-.09,9.91.06,14.85.1,3.7-1.88,5.18-5.08,4.61-6.52-1.18-10.35,6.15-17.41,4.59-6.07-1.34-12.68-.52-19-.2-5.31.26-11.46-2.32-15.39,3.75-2.19-1.28-4.31-3.5-6.57-3.65a211.3,211.3,0,0,0-21.21-.12c-4.68.15-7.42,5.65-13.14,4.4-4.72-1-9.85-.22-14.8-.22H962.56c-4.95,0-9.92.22-14.85-.07-3.12-.19-5,1.4-7.32,3a9.16,9.16,0,0,1-11.39-.52c-.9-.72-2.72-1.87-2.88-1.7-6.41,7.06-14.65,2.65-22,3.37-7.71.76-15.55.17-23.33.17H857.51c-.71,0-1.72.31-2.08-.05-7-6.83-15.73-3.45-23.75-4.19-4.32-.41-8.3-.09-11.15,4-.47.68-3.49.76-3.93.13-4-5.76-9.94-4.1-15.35-4.13-15.55-.08-31.13.47-46.66-.21-9.36-.41-19.61,3.73-28-4.06-10.6,0-21.21-.09-31.82,0-3.61,0-6.58-.36-9.34-3.3-2.1-2.24-5-1.21-7.16,1.1-.68.71-2.46,1.49-2.88,1.16-8.82-7-19-1.52-28.41-3.11-.69-.12-2,1.63-2.54,2.75-2.46,5.37-3.25,11.59-8.08,15.74.6,5.69-2,10.31-4.63,15.07s-6.07,9.16-4.37,15.19c.86,3-1,5-2.87,7.31-2.49,3.1,3,3.5,2.92,6.13a6.17,6.17,0,0,1,0,2.11c-1.58,3.59-5,6.29-5,10.64-4.64,2.72-2,7.93-3.72,11.15-2.53,4.69-6.25,9.62-11.75,11.12-3,.81-4.53,3.48-6.82,4-3.81.83-7.82,1.6-11.55-2.12-9.63-9.61-9.49-11.29-4-25,2-4.88,5.29-9.11,6.46-14.32.27-1.19,2.21-2,2.43-3.2,1-5.23-2.41-11.4,3.48-15.55-.52-5.72,5.53-8.7,5.55-14.86,0-4.72,3.65-9.76,6.63-14,1.95-2.78.91-5.33,1.4-8s-1-4-3.25-4.29-4.3.26-6.34-.13c-7.24-1.41-15.58,3.56-21.78-3.74-5.58,5.55-12.67,3.59-19.27,3.75-7.78.19-15.56,0-23.34.08a22.38,22.38,0,0,1-13.37-3.85c-6-3.82-13.22,1.72-14.37,9.77-.4,2.8-.13,5.55-2.82,7.35-5.93,4-5.6,12.56-12,16.31-1,.62-2.29,2.2-2.2,3.23,1,12.51-8.75,15.83-17.11,20.14-10,5.15-22.83.6-25.14-9.57-1.11-4.9-2.46-11.26,3.43-15.39,3.63-2.54,5.91-5.93,4.76-10.73-.61-2.54,1.36-3.76,2.78-5.21,3.29-3.34,6.63-6.65,10-10l-6.63-6.1c-2.16,3-5.17,4-8.71,4.68-2.43.48-1.47,3.49-1.75,5.49s-.18,4.73-1.39,5.68c-6.18,4.81-8.25,10.81-7.14,18.4.53,3.61-3.82,5-4.56,8.76-.84,4.33-5,7.92-3.9,13.18.3,1.35.53,3.06,0,4.19-2.06,4.12-3.92,8.55-6.93,11.9-2.29,2.53.39,8.06-4.63,8s-7.41,6.35-13.13,4.5c-4.42-1.44-9.71,2-13.83-2.56-5.05-5.66-8.9-15.27-8-22.13.25-1.86,1-4.25,2.39-5.27,4.13-3,5.37-7.6,7.52-11.81,2.38-4.67,4.62-9.41,7-14.1,2.07-4.13,5.42-7.73,4.48-13.12-.24-1.36,2.71-3,3.3-4.85a8,8,0,0,0-.34-5.63c-1.12-2.17-4.45-2-5.46-.84-4.11,4.61-7.35,5.12-12.08.45-2.21-2.18-7.12-2.13-9.63.11a12.48,12.48,0,0,1-9.35,3.3c-17-.12-33.95-.31-50.92.09-6,.14-12.23-2-18.14,2.28-5.38,3.89-12.16,1.19-18.29,1.82-6.72,8-15.79,3.82-23.71,4-21.9.6-43.85-.23-65.75.49-6.11.2-10.22-2.87-15.26-4.42-2.27-.7-3.72-1.45-3.74-3.93a30,30,0,0,1,0-4.24c.54-4.07-1.49-8.45,1.22-12.2,1.23-1.7,2.95-4.31,4.46-4.31,5.69,0,8.62-6.36,15-5.4,5.12.78,11.23,2.14,15.42-3.69.67-.94,3.87-1,5.61,1,1.3,1.49,2.46,3.27,5.12,3,6.67-.7,14,2,19.46-4.3,5,0,10,.5,14.83-.11,10.74-1.34,22.31,4.18,32.32-4,1.27-1,4.15.07,6.25-.17,10.75-1.22,22.28,3.41,32.19-4.21,12,0,24.05.29,36.06-.13,5.94-.2,12.48,2.37,17.72-3.55,1.28-1.44,5.33-.54,8.11-.55,12.73,0,25.46.12,38.18-.15,2.05-.05,3.17-2.55,2.6-4.8-.32-1.23-1.25-3.26-1.95-3.29-8.46-.26-16.94-.32-25.4-.13-1,0-2.21,1.66-3,2.78-1.17,1.61-1.85,1.47-3.1-.27s-3.31-3.87-5.14-2.52c-9.41,6.87-20.06,3.34-30.17,4-2.1.15-3.78-1.48-2.08-6.08.42-1.28-.53-.71-1.18.1a1.27,1.27,0,0,0,1.79,1.79,8.46,8.46,0,0,0,1.93-2.5c.09-.15-.81-.85-2.54.61-8.54,5.59-15.79,10.37-23.61,3-.34-.33-1.35-.58-1.42-.46-3.36,5.28-8.67,3.28-13.36,3.72-5.3.5-11.24-2.11-15.59,3.61-.83,1.09-3.94.54-6,.58-3.53.08-7.07,0-10.6,0-2.58,0-3.14-5.83-6-2.82s-6.1,2.79-9.54,2.82-6.68.31-9.48-2.94c-2.52-2.92-7.82-2.41-9.58-.73-3.55,3.39-7.12,3.73-11.38,3.69-10.6-.1-21.23.35-31.81-.23-3.95-.22-6.61,5.14-8.25,3.37-4.89-5.24-10.54-2.73-15.83-3.09-5.64-.38-11.62-1.18-16.87.29-3.58,1-6.17,5-9.28-.29-4.55,8.46-8.52-2.2-13.62-.46s-11.32-.37-16.82.56c-6.8,1.16-10.57-2.49-14.22-6.82-2.24-2.65-3.08-.18-4.57.72-2.42,1.45.82,3.18-1.48,1.54-1.24-.89-7-13-6.45-14,.64-1.18,1.87-2,2.41-3.25,2.31-5.12,9.48-2.46,11.79-7.49,4.16-.2,8.67.53,12.38-.86s6.41-4.28,11.08-4.14c14.13.43,28.31.71,42.41-.06,7.94-.43,17,4,23.81-3.89.31-.36,1.34-.13,2-.13,1.41,0,2.83,0,4.24,0h31.83c4.95,0,10.08-.82,14.8.21,5.72,1.26,8.47-4.36,13.15-4.39,21.21-.14,42.44.35,63.64-.25,9.35-.27,19.41,3.49,28.12-3.85,1.65-1.4,5.49-.2,8.32-.2,14.14,0,28.29.2,42.43-.09,7.36-.15,15,2,21.82-3.89,2-1.75,6.86-.05,10.37-.35,2.21-.19,2.81-1.88,3.5-4.17,1.31-4.33,3.18-8.84,6-12.25,2.71-3.23,2.22-6.42,2.16-9.76,0-2.25-1.7-2.94-4-3.65-3.69-1.12-5.69,8.3-9.71,1.25-4.1-.35-8.19-.92-12.3-1-8.48-.15-17,.4-25.44-.19-5.94-.42-12.7,2.94-17.91-3.11-.34-.39-4,3-6.18,3.1-9.89.36-19.79.19-29.69.11-1.29,0-3.35-.22-3.72-1-3.14-6.5-11.36-.11-14.63-5.94-1.35-2.41-4.2-2.11-5.62-1.33A17.59,17.59,0,0,0,331,930.5c-.32.5,2.78,2.68,3.36,4.4s1.17,4.32-1.14,5.63c-1.1.63-3.05,1.24-3.82.7-4-2.79-9.1-6.67-12.92-3.79-5.73,4.33-11.5,3.73-17.59,3.91-4.87.13-9.74.76-13.29-4.11-.58-.78-4-.86-5.59,1.34a6.32,6.32,0,0,1-5.18,2.87c-6.52.23-12.59-.12-16.52-6.38a6.06,6.06,0,0,0-1.49-1.5,4.85,4.85,0,0,0-7,1.69c-.53,1.18.32,3.08-.34,4.08-4.57,7-8.52,7.84-17.32,3.29-1.56-.81-1.87-1.52-3.14.24a6,6,0,0,1-5.2,2.79c-19.8-.13-39.6,0-59.41-.09-4.11,0-3.62-3.14-3.91-5.91-.08-.74-2.32-2-2.48-1.88-10.19,9.4-22.77,7.82-35,7.81-24.05,0-48.09-.06-72.14,0-4.32,0-8.19,0-11.22-4-.74-1-4.09-1.14-5.54,1.06-2.19,3.32-4.09,2.59-6-.21-.93-1.33-1.84-.93-3.05.67a6.84,6.84,0,0,1-2.83,1.72c-5.47-7.38-15.36-9-20.91-16.37-3.2-4.21-2.79-11.93,2.2-14.34,5.84-2.82,11-7.1,18.4-7,24.74.48,49.5.39,74.25,0,6.61-.09,13.72,2.44,19.85-3.52,1.86-1.8,6.73-.57,10.22-.57,35.37,0,70.73.27,106.09-.24,7.88-.12,16.75,3.85,23.94-3.75,1.35-1.42,5.43-.27,8.25-.27,15.56,0,31.14.54,46.67-.22,8.63-.42,18.35,4.26,25.83-4h19.1c6.36,0,12.73.07,19.09,0,6.09-.08,12.27,1.08,17.55-4,1.46-1.42,5.45-.22,8.27-.22,12.74,0,25.47-.2,38.19.08,7.87.17,13.63-1.7,14.37-10.75.05-.54,1.08-.93,1.42-1.52,2.28-3.9,2.08-4.76-1.13-4.77-8.49,0-17-.14-25.46.06a5.83,5.83,0,0,1-5.18-2.83c-1.28-1.77-1.76-1.69-3.13-.07-3.83,4.5-8.39,4.09-12.9,1.06-1.55-1-2.41-3-4.59-.56-3.13,3.46-4.07,1.36-4.39-2.07-.12-1.23-1-2.39-1.55-3.58-.87.71-2.42,1.35-2.51,2.15-.3,2.78.13,5.8-4,5.82-5.65,0-11.32-.18-17,.07-4.4.19-8.26-.18-11.1-4.21-.47-.67-3.61-.63-4,0-3.32,5.61-5.92,1.41-9.46.21-3.8-1.3-8.47-.83-12.61-.19-8.76,1.35-15.84-2.44-22.7-6.75-1.89-1.2-3.53-2-5.63-1.8a3.78,3.78,0,0,0-1.69,1c-1.2,1-.83,1.88.8,3,1.86,1.3,2.6,4.09.15,4.21-10.58.5-21.21.06-31.81.3-3.39.08-4.3-4.29-6.54-3.75s-3.52,4.14-6.93,3.7c-2.66-.34-5.05-.34-7.75-1.88-6.35-3.63-6.76-3.44-12.78.07-1.91,1.11-4.44,2.7-5.51,1.63-7.1-7.11-15.87-3.2-23.85-4-5.61-.56-11.31-.11-17-.11-6.36,0-12.83-.71-19.06.2s-10.28-3.69-15.27-4.13c-11.23-1-22.61-.14-33.92-.4-4.63-.11-9.72,1.82-13.66-2.93-2.87-3.47-8.35,1-11.42-3.06-1.3-1.71-2.55-2.54-4.55-.37-3.28,3.56-8.48,3.65-11.17,1.08-3.74-3.58-7.54-3.22-11.58-3.05-5.81.24-11.22.15-14.68-5.67-2.8-4.72-7.56-2.81-11.51-2.76-4.33,0-6.35-1.07-6.39-5.79,0-1.58-2.92-3-3.67-4.76a5,5,0,0,1,.86-5.73,30.14,30.14,0,0,1,19.51-9.22c4.9-.47,9.92.26,14.83-.2,4.08-.37,6.59,1.49,8.9,4.26,2.46-2.4,4.71-4.37,8.82-4.29,17.67.33,35.38.67,53-.17,5.64-.26,8.29,4.55,13.11,4.55h17c5,0,10-.57,14.84.14,6.54,1,12.13,5.39,19.51,4.32,6.92-1,14.11-.21,21.18-.21h19.1c7.07,0,14.14,0,21.21,0,4.15,0,8.07-.39,11.4,3.52,1.83,2.15,5.07.74,7.07-1.69,2.74-3.34,6.56-1.23,9.84-1.82,4.67,6,11.31,4.15,17.34,4.19,23.34.13,46.68.06,70,0,4,0,5.44-3,3.49-7.18-4.88-10.56-4.8-13.31.67-24.47-1.54-4.85,4.62-6.58,4.41-10.91-.17-3.49-.59-7.06,3.07-9.35a1.48,1.48,0,0,0-.7-2.84c-7-.42-14.06-.43-21.09-.35-2.93,0-5.65-.06-7.33-2.81-1.16-1.89-1.95-1.93-3,0-4,7-13,7.11-17.94,13.35-3.09,3.91-13.43,2.94-17-.39-2.07-1.92-4.34-3.76-5.92-6-1.45-2.1-1.57-5.24-3.22-7.07-2.66-2.93-6.63-1.19-10-1.24q-19.09-.3-38.19,0c-3.18.06-5-1.37-7.21-3.28-2.39-2.1-5-1.35-7.21,1a6.56,6.56,0,0,1-2.84,1.37c-2.84-4.55-7.35-3.3-11.42-3.35-7.07-.08-14.14,0-21.21,0-5,0-10.14-.92-14.78.28-4,1-5-7.51-10.09-1.89-3.45,3.85-9.33.9-14,1.63-3.11.48-5.13-.93-7.35-3-1.18-1.08-4.48-1.66-5.49-.84-6.88,5.63-13.26,4.95-20.49.41-2.57-1.62-6.76-.56-10.2-.91-5.3-.54-11.45,2.27-15.38-3.82l-4.5,3.7c-3.24-4.79-8.18-4.16-13-4.37-.72,0-1.89-2.1-1.92-3.25-.09-3.37-1.28-5.06-4.87-5.07-1.15,0-2.31-1.14-3.47-1.77.34-.5.57-1.32,1-1.45,5.75-1.62,10.74-4.91,15.88-7.72,2-1.06,3.8-2.23,5.66-1.6,8.13,2.76,13.42-6.11,21.66-4.62,7.54,1.36,15.62-.51,23.26.52,7.38,1,11.77-6.57,19.56-4.79,6.72,1.53,14.07.31,21.15.31h40.31c7.07,0,14.14,0,21.22,0,2.59,0,3.78-1.26,4-3.6.41-4.1-.79-9.51,1.39-12,3.41-3.91,2.55-7.7,2.86-11.71.1-1.4.41-3-.11-4.19s-2.14-2.53-2.9-2.34c-6.77,1.75-10.25-2.85-14.3-6.74-2.68-2.57-4.22-5.1-4-9,.36-6.34,1.05-12.91-.17-19-1.27-6.38,6-9,4.74-15.31-1.11-5.43-.23-11.27-.23-16.93s-.3-11.33.08-17c.36-5.28,5.92-8.83,4.42-15.28-1.25-5.36-.26-11.25-.26-16.91,6.13-5.46,4.11-12.75,4.15-19.46,0-4.38,5.56-5.89,4.57-11-.72-3.74-1.89-8.57,2.83-11.44a2.43,2.43,0,0,0,1.13-1.61c.21-4.19-.84-8.88.73-12.44,1.33-3,3.87-5.23,3.67-9.14-.27-5.41,6.56-8.87,4.23-15.25-2.1-5.77,6.09-9,4.26-15.21-1.28-4.33,5.77-6,4.18-11-1.3-4.07,1.81-6.35,4.2-8.83-2.73-8,7.14-13.5,4.27-21.59-1.69-4.75,5.62-6.5,4.12-10.93-2.12-6.29,6.3-8.92,4.53-15.3-1.29-4.66,4.59-7.5,4.58-13.05,0-4.56,3.63-9.65,6.62-14s-.95-11.55,5.58-14.66c.19-4.06-.71-8,3.23-11.54,2.13-1.9,1.31-6.57,4.7-8.52-.3-5.6,6.66-8.81,4.9-15a4.36,4.36,0,0,1,1.16-3.64c4.2-3.67,6.22-8.75,9.27-13.09s6.08-8.72,8.84-13.38c3.53-6,10.77-6,15.79-.86,1.39,1.42,3.21,2.38,3.13,5.09-.25,8.49-.09,17-.09,25.47-6.69,4.5-6.56,4.45-4.33,11.14.58,1.76.08,3.88.08,10.07,0,2.11-.27,0,.08-2.1s-.1-2.9-2.17-2.09a2.47,2.47,0,0,0-1.46,1.46c-.66,4.23-1.39,8-7.29,7.38-1.6-.17-2,1.84-.8,2.81,4.07,3.28,4.76,6.74.32,10.19-2.14,1.65-1.78,4-1.29,5.75,1.69,6.09-1.93,10.54-4.45,15.14-5.23,9.52-10.37,18.89-8.47,30.39.31,1.92.36,5-.75,5.86-4.25,3.11-2.06,8-3.74,11.23a53.68,53.68,0,0,0-4.42,13.1c-.8,3.49-3.53,6.64-4.06,11s-3.4,8.39-5.61,12.37c-1,1.74-2.74,2.82-2.64,5.3.22,5.43,1,11.16-4.17,15.16-.18,6.06,1.42,12.56-4.24,17.27,2,7.21-3.59,12.95-3.88,19.41-.22,4.74-4.25,7-4.5,10.92-.17,2.62.12,7.33,1.17,7.62,4.81,1.32,1.67-3.71,3.07-4.84,3.71-3,4-6.69,4.33-11s5.68-7.61,4.15-13.08c-.52-1.89-.58-5.44.37-6,6.72-3.64.68-12.8,7.34-16.16-.87-6.39,4.66-11.17,4.69-17,0-6.35,7.64-10.4,4.48-17.28,4.64-3.3,4.72-8.08,4.24-13,6-3.78,3.91-9.79,4.31-15.16a4.88,4.88,0,0,1,1.67-3.45c5.21-3.18-.12-9.83,4.42-13,4.32-3,.24-8.79,3.13-11.28,4.7-4.05,3.38-8.85,3.33-13.5,0-3.35,3.46-4.77,3.68-6.9.55-5.48,6.8-8.89,4.93-15-2-6.59,6.24-10.67,4.23-21.5,2.46-3.76,4-5.28,4.14-7.23.33-4.64.11-9.31.11-14,1.2-.5,3.45-1,3.46-1.5.1-6.56,2.23-11.92,7.6-16,2.79-2.13,4.81-5.3,7.67-7.27,1.21-.83,4.3-.5,5.5.52,2.26,1.93,3.9,3.89,6.1.29,1.13-1.86,1.87-1.81,3.06.05,1.45,2.26,4.15,4.17,4.57,6.54.61,3.48,1.91,4.68,5.23,4.79,1.15,0,3.27,1.29,3.24,1.92-.17,4.75,1.75,9.76-1.2,14.21-1.11,1.67-3.29,2.61-2.82,5.22,1.14,6.37-2.49,11.65-3.81,17.42-.95,4.17-3.25,7.29-4.38,11-1.2,3.87-.22,8.4-.3,12.64,0,1.32,0,3.05-.71,3.9-4.13,4.59-7.14,10.14-7.45,15.93-.34,6.29-7.72,10.41-4.54,17.31-5,3.19-4.82,8.23-4.17,13.08.79,5.82-7.17,8.73-4.42,15.26,2.55,6-5.43,9.17-4.83,14.89-3.29,2.22-3.95,5.42-3.6,9.13.21,2.1.89,5.47-.1,6.15-5.57,3.84-2.55,10.49-5.45,14.81-1.61,2.39-3.29,4.22-2.94,7.34.56,4.92-.24,9.09-3.88,13.35-2.13,2.5.71,7.78-3.36,11.31-3.51,3,.71,9.2-4.42,13.11-3.31,2.52.24,8.9-4.41,13-2.89,2.55.56,9.56-4.73,12.77-.68.41-.75,2.8-.3,4,2.71,6.89-4.73,11.14-4.32,17.36-7,3.88-1.52,13.78-8.48,17.7.51,3.29-.36,6.44,1.72,9.93,3.67,6.17,9.13,12.56,6.56,20.42-1.84,5.6-2.78,12-5.71,16.61-2.64,4.17-2.07,7.79-2.57,11.75l-6,14.5c-5.11-.12-7.58,1.91-6.85,7.45a32.18,32.18,0,0,1-.09,10.55c-.51,2.43-3.2,4.36-3.93,6.8-.94,3.15.81,6.73-2.24,9.77-1.7,1.71-2,4.77-3.16,7.1-.89,1.77-2.47,3.24-3.09,5.07a4.2,4.2,0,0,0,1.19,3.58,4.51,4.51,0,0,0,3.74.89c2.25-.76,4.18-2.59,6.45-3.1,1.37-.31,1.91,4.08,4.39,2a19.06,19.06,0,0,0,5.15-6.31c.81-1.74.4-4.2.12-6.28-.79-5.74,1.67-10.29,4-15.36,2.09-4.61-1.85-11.32,4.31-15.16-2.41-8,7.42-13.5,4.44-21.45-2.15-5.73,6.29-7.23,4.55-13.19-1.06-3.61-1.68-8.52,3-11.34.49-.3,1.08-1.23.95-1.65-2.56-8,2.94-14.41,4.5-21.55,1.24-5.71,4.8-10.85,5.06-16.95,6.56-2.94.67-10.55,5.82-14.71,4.55-3.68-.38-10.64,3.1-15.55,2.66-3.75,4.72-7.93,7-11.91-2.67-8,3.71-14.23,4.18-21.58.26-4.16,0-7.88,3.59-11.41,1.91-1.9.49-6.8,2-9.61,1.26-2.38,3.8-4.19,2.94-7.26-1.68-6,2-10.4,4.29-15.22s6-9.23,4.25-15.21c-2.27-7.95,2-14.66,5.06-21.21,1.43-3.05,3.4-5.46,3.57-9.2.22-4.65-2.53-10.08,2.17-13.85,4.39-3.52-.85-10,4.45-13.05,2.28-1.31,2.11-3.75,1.62-5.62-1.57-6,2-10.42,4.35-15.23s5.9-9.23,4.27-15.22c-.84-3.11,1.4-4.95,3.15-7.19,2.89-3.69-.49-9.12,4.34-13.21,4-3.41-2-10.82,3.2-15.48,4.35-3.9,1.42-9.3,1.91-14a63.51,63.51,0,0,0,0-12.71c-.4-4,1.95-6.19,3.9-9.1,1.31-2-.44-5.81.64-8.14,1.36-3,5.14-4.77,4.09-8.92,4.43-5.4,10.78-7.78,16.89-10.44.84-.37,2.87.49,3.51,1.38,2.52,3.58,6.12,2.75,9.53,2.72,2.56,0,3.77,1.28,3.95,3.66.26,3.35.38,6.31,2.28,9.71,3.76,6.75,2.61,16.66-.83,25.54a24.36,24.36,0,0,0-1.4,3.66c-.86,4,2,8.74-1.69,12-3.25,2.87-2.56,6.22-2.56,9.6,0,3.69-5.05,4.62-4.38,8.87.54,3.44-.31,7.11.21,10.57.79,5.25-2.07,8.92-4.21,13.17-2.68,5.32-4.87,10.74-4.71,17.27.12,5-6.16,9.11-3.91,15.2-7.22,2.74-1.54,11.06-5.94,14.4-5.23,3.95.72,11.64-5.82,14.76-.75.36-.8,2.44-.95,3.74-.51,4.65,1.78,10-3.6,13.36-.22,4.86-.73,9.73-.57,14.57.11,3.37-3.09,4.67-3.68,7-.89,3.47-2.87,5.94-4.44,8.85-1.48,2.74-.23,6.87-.52,10.37-.22,2.65,1.58,6.14-1.35,7.81-3.74,2.12-1.77,6.45-4.37,8.92a49.53,49.53,0,0,0-6.2,7.55c-.14.19,2.71,1.91,2.69,2.89-.08,3.16-3.91,4.6-3.64,8.59.4,6.16-.54,12.41-.91,18.62-6.47,3.5.51,13.19-7.38,16,.64,5-.86,9-3.91,13.32-2,2.8.33,7.71-3.51,11.31-3.25,3.05.94,9.56-4.51,13.05-1.39.89-.71,5.2-.77,7.95s-.11,5.2-2.27,7.62-2.56,6.27-4.76,8.49c-3.5,3.53.95,8.7-2.91,11.55-3.52,2.6-1.85,6.44-3,9.4-2,5-5.3,9.37-4.42,15.13-8.87,10.46-2.59,20.29,1.27,30.21,4.81,3,1.78,5.24-.78,7.5,2.4,5.63-6.23,7.15-4.61,13.12,1.05,3.86.95,6,3.83,6.06,5.66.06,11.32.1,17,0,4.17-.08,8.71-4.78,9.15-9.38.32-3.44.45-6.89.67-10.34,6.67-2.89.87-10.85,6-14.53,3.49-2.53.8-6.7,2-9.74s5-4.64,4.18-8.91c-1.17-6.28,6.79-10.26,4.33-17.37-1.91-5.51,7.17-8.83,4.08-15.16,3.74-4.28,4.73-9.47,4.91-14.93,5.91-2.8,1.54-9.47,4.66-12.83a11.13,11.13,0,0,0,3.16-9.38c-.4-4.36-.09-8.42,4.17-11-.67-6.29,7.24-10.36,4.37-17.32-2-4.78,4.42-6.43,4.35-11S456,562,461,558c3.14-2.55-1.12-8.27,3.09-11.38a5.58,5.58,0,0,0,2-3.33c.8-5.27-2.17-11.46,4-15.33.58-4.65-.85-10,4.5-13-2.78-8,5.88-13.3,4.72-21.6-1-7.11,7.53-12.68,7.73-19.76.22-7.68,1-15,4.8-21.44,2.51-4.3,3.34-8.52,4.54-13.08.93-3.53,4.55-6.58,3.75-11.11-.12-.68-.23-1.93,0-2,7.51-3.07,1.12-12.52,7.42-16.08.05-5.53,6.46-8.72,5.33-14.78-.94-5,6.32-7.44,4.26-13.11-1.47-4,4.28-5.08,4.22-8.82-.06-3.38-1-7.1,2.66-9.5.58-.37,1.44-1,1.45-1.48.11-5.65.08-11.3.09-16.95,5.13-3.16,4.23-8.22,4.31-13.09.06-4-1.56-8.62,3.15-11.39,1.31-7.4,2.59-14.46-2.19-21.63-2.62-3.93-2.17-9.2,2.61-12.93,2-1.58,4.59-3.09,4.91-6.4.67-7.09,8-5.82,12-8.47,2.75-1.81,9.07-1.28,11.86.8,4.12,3.07,9.12,6.26,10.16,12.56.53,3.21,6.3,6,.12,9.39-.34.19-.23,1.29-.27,2s-.3,1.81,0,2.06c4.61,3.4,4.29,8.18,4.3,13.15s-.58,9.07-4,13.35c-2.09,2.59.15,7.52-3.24,11.42-2.17,2.5-1,7.91-1.33,12-.17,2.05.37,5.4-.62,5.94-6.24,3.4-1.23,10.93-5.84,14.75a6.52,6.52,0,0,0-2,3.38c-1,4.56,2.12,9.74-2.52,13.85-3.71,3.3-.62,8.11-1.89,11.91-1.45,4.32-3.75,8.34-5.65,12.5-3,6.58-6.71,12.43-7.53,20.39-.89,8.77-5,17.5-9,25.79-.85,1.78-2.62,3.24-3.08,5.07-1,3.95,1.83,8.86-1.52,12-3.12,2.94-3.15,6.11-2.75,9.52.48,4.05-5.08,4.63-4.45,8.87.37,2.53,1.19,5.64-1.65,7.73-6.15,4.52-.13,11.74-4.15,17.47a44.58,44.58,0,0,0-7.23,16.07c-1.42,6.49-5.14,12.47-3.81,19.55-6.53,4.52-4.81,11.51-3.93,17.28s-6.56,7.26-4.79,13.2c1.14,3.84.62,8.47-.3,12.49-.53,2.29-4.08,3.49-3.79,6.9.22,2.66.61,5.4-1.87,7.74-1.3,1.22-2,3.48-2.2,5.36-.34,2.71-.49,5-2.23,7.63-4.1,6.12-7.69,12.72-6.37,20.65,0,.3-8.31,15.05-8.8,15.43-2.95,2.29-4.47,5.07-4,9a30,30,0,0,1,0,8.46c-.88,5.25,2.43,8.84,4.08,13.19,1.84,4.85,7,8.92,4.62,15.17-.14.38,1.54,1.53,2.49,2.15.13.08,1.35-.9,1.39-1.43.19-2.79.75-5.74.12-8.38-1.45-6.06,2-10.47,4.39-15.22s5.61-9.28,4.54-15.09c5.38-3.2,3.74-8.5,3.9-13.22.18-5.44,7-9,4.26-15.21,2.4-3.28,5.44-6.32,4.23-11-1.08-4.17,4.77-5,4.25-8.85-.59-4.43,2.2-7.5,3.73-11.18,1.68-4.07,1.31-8.8,4.43-13.11,2-2.76-.38-7.71,3.49-11.3,3.28-3.05-1.08-9.75,4.57-13,1-.59.63-3.85.74-5.89s-.86-5.38.17-6.17c5.16-4,2-11.5,5.49-14.62,5.35-4.75-.73-13.36,7-16.59.76-.32.15-4,.09-6.12-.1-3.5,1.29-6.28,2.71-9.5,2.59-5.88,8-11.3,5.83-18.82-.9-3.19,2.45-4.7,3.39-7,2.44-6.11,5.71-11.84,5.42-19.13-.2-4.92,6-9.13,3.88-15.2,7.21-2.72,1.56-11,6-14.38,4.87-3.67-.08-9.88,4.39-13.12,5-3.63-.6-11.57,6-14.5,1.46-4.34-.87-9.81,4.36-13.19,1-.66.42-3.93.48-6s-.73-5.68.14-6.13c6.55-3.42,1.73-11.11,5.65-14.71,5-4.6.21-12.85,7-16.3.75-5.27-2.51-11.41,3.39-15.56.28-5.54.84-11.08.76-16.62-.06-3.74.51-6.87,3.73-9.09.1-6.38,5.49-9.17,9-13.25,2.73-3.18,8.15-1.75,10.25-6,2.17,1.26,4.33,3.55,6.53,3.59,8.24.17,13.6,2.89,13,12.1-.24,3.4,3.18,4.61,3.74,6.92.93,3.79,2.27,8.48-2.14,11.38-5.44,3.58-7.07,8.73-5.67,14.57,1.35,5.58-6.26,7.29-4.59,13.19,1.09,3.83-.06,8.29-.2,12.48-6.41,3-1.65,10.53-5.9,14.58a7.15,7.15,0,0,0-2,5.39c.91,5.88-3.31,10.41-3.83,15.29-.56,5.18-3.36,8.69-4.93,13-1.82,5-5.76,9.27-4.31,15.17-5.3,3.18-4.43,8.48-3.91,13.16.59,5.28-6.31,7.3-4.59,13.16,1.13,3.84,0,7.64-3.19,11.39-2.69,3.18.63,9.76-4.8,12.73.67,6.81-7.06,8.53-8.46,13.42-1.49,5.22-.31,11.17-.66,16.78-.07,1.06-1.93,1.95-2.86,3-2.88,3.31,1.07,8.37-3,11.5s-2.49,7.88-2.11,11.73c.54,5.33-2.74,8.83-4.24,13.18-1.29,3.77.41,8.92-1.51,12s-3.26,5.9-2.92,9.46c.41,4.38-.54,7.82-4.09,11.13-4.7,4.37-8.14,13.78-8.65,19.65-.18,2.06.39,5.41-.6,6-6.2,3.41-1.36,10.83-5.85,14.73-4.32,3.76.37,11.28-5.9,14.66-.94.51-.5,4-.34,6,.33,4.4-.28,8.11-4.12,11.18-1,.83-.17,4-.17,7.17.66-1,0-1.7-2-1a2.61,2.61,0,0,0-1.41,1.28,8,8,0,0,0-.78,3.58c.15,1.13,1.08,2.16,1.67,3.23.82-.73,2.06-1.32,2.38-2.23.42-1.17.1-2.6.1-4.9,4.29-.84,5.26-5.18,8.11-7-1.45-4.88,4.66-6.61,4.56-10.79-.1-4.36,6.09-6,4.41-10.91,4.26-2.57,4-6.69,4.36-11,.19-2.34,4-4.63,3.75-6.7-.48-4.81,6.1-6.42,4.43-10.95-2.13-5.75,5.54-7.88,4.33-13.09,3.23-2.74,3.14-7.74,5.77-10.17,3.35-3.08,2.35-7.51,5.51-10.72,3.52-3.59-.29-11.08,5.69-14.43-2.4-6.87,3.23-11.52,5.4-16.83s6.94-10.16,7-16,6.16-9,4.7-15.22c-1-4.07,5.69-6,4.31-10.82,4.32-2.59,4.18-6.75,4.07-11-.07-2.65-.79-5.48,1.86-7.7,4.37-3.65,8.49-7.57,6.57-14.19a14.43,14.43,0,0,0,4.27-13.07c-.46-2.88.71-5,2.47-7.49,2.62-3.65,5.19-8,5.68-12.32s3.37-7.54,4.07-11a55.69,55.69,0,0,1,4.41-13.12c1.59-3.38.13-7.71,3.66-11.33,1.82-1.87,0-6.87,1.06-10,2.24-6.36,5.67-12.35,4.09-19.47,5.63-4.74,4.08-11.23,4.24-17.31,4.82-3.24,5.32-8.31,4.07-13-1.55-5.77,6.41-7.25,4.65-13.19-1.14-3.83-1.62-9.51.43-12.23,2.82-3.75,4.21-7.15,3.5-11.34-1.33-7.91,3.17-12.5,7.81-18.1,6.58-7.95,14.67-6.54,22.83-6.54,1.12,0,2.24,1.31,3.37,2,6.19,3.78,7.52,11.13,11.83,16.33,1,1.14,1,4.59.06,5.46-2.89,2.66-3.37,5.62-3.5,9.28-.17,5.3,2.35,11.46-3.81,15.32-.11,3.48-.15,7-.33,10.46s1.76,4.41,5,4.8c8.85,1,11.06,2.88,11.83,10.74.3,3,1,5.22,3.21,7.24.83.75,1,2.41,1.13,3.7.1,1.05-6.79,10.65-9.38,12.17-.32,0,.56.25.88-.07a1.86,1.86,0,0,0,0-1.79c-1-1.39-2.2-3.14-3.69-.58-.2.34,1.19,1.61,2.79,2.44-2.42,6.51-3.2,8.92-3.3,13.1-.08,3.5,1,7.66-.56,10.32-1.69,2.91-2.61,6.63-4.49,8.64-3.41,3.64-2.6,7.55-3.68,11.4-1.2,4.31-4.08,8.22-6.58,12.08-2.16,3.33-1.7,8.16-5.91,10.29.53,5,.3,9.74-4.24,13.09.94,5.73-7.58,8.82-4.24,15.22-2.42,4-4.34,7.92-4.69,13.06-.22,3.27-3,7.18-5.08,10.43-2.81,4.52-8.35,7-7.49,14.06.52,4.31-5.13,7.5-4.22,13.1.6,3.69-4.39,6.1-4.35,10.94a19.25,19.25,0,0,1-5,12.47c-3.14,3.22-2,8.05-5.71,10.55-3,2-.89,6.53-4.42,8.86s0,7-1.79,9.7c-1.94,2.88-4.92,5-3.92,9,1.06,4.22-3.38,5.72-4.18,8.88s.9,6.73-2.08,9.82c-1.85,1.93,0-1.76-3.2-.12-.31,0,.56.25.88-.07a1.83,1.83,0,0,0,0-1.79c-1-1.39-2.19-3.14-3.69-.58C623.52,595.51,624.9,596.78,626.5,597.61ZM468.68,721c-.47.22-1.26.36-1.35.69-.47,1.79-.68,3.66-1.16,5.45-.55,2,0,2.7,2,2a2.88,2.88,0,0,0,1.42-1.27c1.44-2.91.94-6.35-3.39,3.2,0-.63.25-1.51-.07-1.83a1.86,1.86,0,0,0-1.79,0c-1.39,1-3.13,2.19-.58,3.69C464.09,733.1,465.36,731.71,468.68,721Zm243.64,63.84c.09-3.52-1.12-4.78-4.92-4.78-25.42,0-50.84.13-76.25-.11-6.52-.06-10.87,2.37-12,8.62-.76,4.11-6,6-4.65,10.82-5.21,2.17-3.09,8.69-7.31,11.94-3.11,2.39,1.17,8.28-3.15,11.27-2.49,1.72-1.36,3.93.61,4,12.7.29,25.41,0,38.12.23a8.43,8.43,0,0,0,7.13-3.36c.85-1,1.85-.44,3,1.06,1.93,2.53,4.66,3.26,7.13,1.32,2.2-1.72,3.9-3.52,7.12-3.43,9.18.24,18.36,0,27.54.11,3.39,0,4.26-1.52,5.16-4.75a32.74,32.74,0,0,1,6.29-12.12c3.73-4.38-.52-11.5,5.76-14.74.65-.33.35-2.58.44-3.94C712.36,786.3,712.32,785.59,712.32,784.88ZM601.15,958.32c14.1,0,28.2,0,42.3,0,4.28,0,9.14-3.95,9.24-9,.14-7,5.91-12,5.44-19.15-.15-2.17,6-4.85-1.3-5.81-2.1-.27-13.32-.9-18.48-.21a31.43,31.43,0,0,1-4.11.29c-14.81,0-29.62-.1-44.42.09-3.44,0-4.56-3.55-6.81-3.86s-3.15,4.35-6.6,3.79c-6.54-1-11.25,2.2-12.28,8.08-.67,3.84-5.22,4.8-4.59,8.76.71,4.44-.66,7.91-4.1,11.07-1.75,1.61.95,6,3.41,6Q580,958.35,601.15,958.32ZM443.93,831c6.33,0,12.67-.19,19,.07,3.75.16,6.33-1.08,9.15-3.59,4.94-4.41,7.89-9.31,7.32-16,3.06-2.23,4.59-5.22,3.74-9-1-4.2,3.88-5.43,4.21-8.81a6.23,6.23,0,0,0-.87-3.81c-1.4-2.11-4.53-2-5.51-.91-4,4.36-6.67,4.34-12.12.89-5.22-3.32-11-4.63-11.53-12.11-.05-.7-2.12-1.72-3.3-1.8a45.21,45.21,0,0,0-10.53,0c-4.37.74-1.52,6.16-4.62,8.21-3.54,2.34-2.35,7.36-5.8,10.36-2.88,2.5,1,8-3.07,11.3-3.88,3.11-1.76,7.82-1.85,11.78-.08,3.38-2.35,4.8-4.15,6.77-1.42,1.56-4.5,3.63-4.19,4.38,1.27,3.08,4.57,2.22,7.25,2.24C432.68,831,438.3,831,443.93,831Zm183.56,50.92h40.17c1.41,0,3.13.51,4.16-.11,1.76-1.05,3-3,4.62-4.26,2.73-2.12,1.86-5,1.9-7.68.07-4.19-1-4.9-6.86-4.91-14.8,0-29.61-.17-44.41,0-14.63.2-14.64.4-22.47-3.7a9,9,0,0,0-4-.53c-.57,0-1.18.54-1.71.92-1.34,1-1,1.84.64,3s3.05,3.77.33,4.23c-4.79.81-9.82.39-14.74.23-4-.12-4.31,2.4-4.39,5.38-.16,6.61.44,7.37,6.56,7.39Q607.4,882,627.49,881.93Zm-46.72,131.55c13.44,0,26.87,0,40.3,0,6.76,0,10.76-4.68,10.62-12.19-.06-3.65-1.46-4.37-4.93-4.9-4.77-.73-7.69,4.14-11,4-8-.34-16.89,3.86-23.92-3.38-6.18-.55-12.84-2.09-18.29.85-3.21,1.74-5.9,3-9.45,2.94-7.77-.11-15.55-.06-23.33,0-6.27,0-6.9.76-6.72,7.25.09,2.89.08,5.56,4.27,5.52C552.49,1013.41,566.63,1013.48,580.77,1013.48ZM551,831c1.41,0,3.06.48,4.19-.08,6.2-3,12.55-6.5,12.67-14.47.06-4.08,2.48-6.05,4.23-8.94,1.65-2.72-1.75-7.39,1.78-9.7s1.48-6.63,4.35-8.89a6.93,6.93,0,0,0,2.47-3.17c.86-3.15-1.31-5.06-3.35-7s-1.92-2-6,.15c-2.3,1.2-5.19,1.55-7.09,3.15s-5.12,2.94-4.65,6.43c.6,4.47-.41,8.24-4.26,10.94.71,5-.06,9.6-4.25,13,.94,5.12-1.06,9.15-4.12,13.14C545.36,827.64,548.05,830.89,551,831ZM506.51,962.56c3.72-.14,6.89-1.59,8.64-4.47s2.55-6.16,4.6-8.58c3.63-4.28-1.32-11.79,5.78-14.56.25-.1.18-1.34.05-2-.48-2.61,1.56-6.05-1.44-7.73a10.57,10.57,0,0,0-9.81,0,11.75,11.75,0,0,0-4.43,4.42c-1,1.62-.68,4-1.66,5.59-1.38,2.24-4.27,3.46-3.92,6.86.21,2,.37,4.43-.56,6-1.31,2.27-3.55,3.68-3.77,6.94C499.61,960.78,500.94,962.78,506.51,962.56Zm25.93-80.63c4.56.24,9.32.74,12.49-4.3.89-1.41,1.87-2,1-3-.46-.47-1-1.14-1.56-1.16-2.74-.12-5.56.33-8.22-.14-4.2-.74-6.07,2.17-8.55,4.41-1.36,1.23-1.93,2-1,3,.45.47,1,1.09,1.56,1.16A36.29,36.29,0,0,0,532.44,881.93Zm-40.88,125.29c-1.35-1.41-2.62-2.91-4.07-4.2a8.69,8.69,0,0,0-2.72-1.55c-1.87,2.62-6,3.58-5.85,7.68,0,.67-.28,1.62.06,2a10.16,10.16,0,0,0,2.56,1.68c2.1-3,5.23-3.64,8.51-4.14C490.59,1008.58,491,1007.76,491.56,1007.22Zm85-509.25a76.65,76.65,0,0,0-.13-8.31c-.07-.67-1.67-1.3-2.68-1.64-.29-.1-1.36.88-1.37,1.38-.12,4.16-.18,8.33.06,12.48,0,.63,1.67,1.3,2.68,1.63.29.1,1.29-.84,1.37-1.39A28.66,28.66,0,0,0,576.53,498ZM199.87,941.35l3.22-2.13c-1.76-.71-3.47-1.78-5.28-2-1-.11-2.13,1.26-3.21,2a31.18,31.18,0,0,0,3.24,2.08A5.27,5.27,0,0,0,199.87,941.35Zm163.8-19.78c-1.24-2.12-5.42-2.2-7-.08a1.63,1.63,0,0,0-.1,1.41c1.18,2.17,5.4,2.23,7,.1C363.79,922.67,363.64,922.06,363.67,921.57Zm254.62-62.3c0-.49.11-1.1-.13-1.43-1.58-2.13-5.8-2.06-7,.1a1.63,1.63,0,0,0,.1,1.41C612.86,861.48,617.05,861.39,618.29,859.27Zm-319,5c2.13-1.25,2.21-5.43.09-7a1.56,1.56,0,0,0-1.41-.1c-2.17,1.18-2.23,5.39-.1,7C298.14,864.4,298.76,864.25,299.24,864.29Zm56,138-1.51-1.51a13.36,13.36,0,0,0-1.33,2.85c-.08.35.86.93,1.33,1.4ZM271,935c-.47-.47-1.05-1.41-1.4-1.33a13.36,13.36,0,0,0-2.85,1.33c.48.47,1.05,1.4,1.4,1.33A13.62,13.62,0,0,0,271,935Zm12.73-4.24c-.47-.48-1.05-1.41-1.4-1.33a12.82,12.82,0,0,0-2.84,1.33c.47.47,1,1.4,1.39,1.32A13.09,13.09,0,0,0,283.72,930.74Zm249.76-20.61L532,907.4c-.47.47-1.41,1-1.33,1.39a13.13,13.13,0,0,0,1.33,2.85Zm-97.6-42.44L434.37,865c-.48.47-1.41,1-1.33,1.39a12.68,12.68,0,0,0,1.33,2.85Zm-46.68-5.46-1.51-1.51a13.28,13.28,0,0,0-1.33,2.84c-.08.35.86.93,1.33,1.4Zm-59.41,0-1.51-1.51a12.82,12.82,0,0,0-1.33,2.84c-.08.35.86.93,1.33,1.4C328.79,864,329.29,863.11,329.79,862.23Zm130-5.76c-.47.47-1.41,1-1.33,1.4a13.36,13.36,0,0,0,1.33,2.85c.47-.48,1.4-1.05,1.32-1.4A13.09,13.09,0,0,0,459.83,856.47Zm328.26-86.38-1.51-2.73c-.47.47-1.4,1-1.32,1.39a13.09,13.09,0,0,0,1.32,2.85Z"/><path d="M856.6,194.94c0-7.07.69-14.23-.23-21.18-.67-5.1-5.39-9-4.22-15.27,1-5.47.21-11.27.21-16.93V73.7c0-5.66,0-11.32,0-17A10.58,10.58,0,0,1,862.27,46a61.32,61.32,0,0,1,6.36,0c3.1.18,9.66,4.87,9,7.18-2.37,8.19,2.84,14.59,4.8,21.54,2,7.2,4.76,14,3.9,21.67-.48,4.32.3,7.93,3.89,11.25,1.43,1.32,1.49,6.74.12,7.94-4.28,3.76-1.75,5.79-.17,9.63,1.73,4.23.14,9.75.47,14.67.31,4.63-2.14,10,3.23,13.57a5.14,5.14,0,0,1-1.25,2.83c-3.34,2.78-3.22,7.83-1.78,9.55,6.23,7.46,3.14,15.92,4,23.92.27,2.5-1.11,3.95-2.71,5.24-2.79,2.24-1.24,5.22-1.54,7.86-.49,4.32,5.42,5.88,4.41,11-1,4.76-.2,9.86-.2,14.81v12.72c0,1.42-.39,3,.09,4.21a25.11,25.11,0,0,0,3.06,5.09c1.85,2.68,1.54,5-.77,7.28-.79.78-1.88,2.6-1.63,2.87,7.09,8,2.08,17.51,3.47,26.18,1.06,6.58-2.43,13.84,3.71,19.8,1.45,1.4.53,5.35.54,8.13,0,11.31.35,22.64-.12,33.93-.26,6.39,6.4,10.17,4.71,17.41-1.57,6.7-.33,14.06-.33,21.13,0,6.36-.88,12.89.27,19,.94,5.07,5.15,9.18,4.16,15.29-.9,5.51-.19,11.28-.19,16.93s.42,11.35-.12,17c-.55,5.81,6.44,8.76,4.61,15.28-1.28,4.59.41,9.94-.41,14.75-1.12,6.61,2,10.64,6.51,14.37s7.78,7.73,6.53,14.35c-.78,4.09-1.5,9.14.21,12.51,1.95,3.85,4.49,6.32-.36,9.39,0,5-.48,10,.12,14.84.95,7.71-1.53,13.43-7.63,18.19-2.35,1.83-4.25,3.25-7.34,2.93a42.91,42.91,0,0,0-8.48,0c-3.09.32-5-1-7.34-2.94-4.93-4-7.25-9.7-10.41-14.85a17.25,17.25,0,0,0-1.21-1.5c8.63-4.6-3.2-8.49-.47-13.68,1.75-3.33.59-8.34.26-12.55-.41-5.3,2.38-11.43-3.57-15.47-.2-4.15-1.4-8.58-.37-12.41,1.56-5.85-5.84-7.89-4.48-13.15s-2.56-7.9-5.74-10.25c-3.72-2.74-1.93-7.82-5.71-10.63-1.51-1.13-1.81-5.36-1.1-7.72,1.7-5.72-4.6-8.18-4.49-13.15s-.37-9.71-.58-14.57c-5.38-3.33-3-8.73-3.65-13.35-.78-5.21-6.69-9.05-4.19-15.22-4.38-3.4-5.26-8.16-4.14-13.06,1.39-6.07-2.88-10.21-4.12-15.29-1.13-4.66-.33-9.8-.38-14.72-6.87-4.51-3.93-11.52-3.84-17.39.07-5.25-6.3-7.3-4.73-13.16,1-3.82-.2-8.24-.42-12.39-6.87-4.34-.59-12.71-4.71-17-5.48-5.74-2-12-3.08-17.91-1-5.44,2.66-12.52-1.49-16.14-5.13-4.46.31-11.5-5.59-15-1.18-.7-1.34-3.68-1.39-5.63-.15-7.06-.09-14.13-.05-21.2,0-6.14-6-10.36-4.52-17.39,1.31-6.08.27-12.67.27-19-6.9-8.48-2.45-18.75-4.54-27.87-1.65-7.19-4.67-13.9-4.08-21.64s.13-15.55.13-23.32-.06-15.56,0-23.33c0-4.22.5-8.5-3.9-11.12,5.21-4.84,3.57-11.21,4-17.17.06-.84,2.32-2.42,3-2.16,4,1.52,7.51-8.21,11.49-.38,6,.12,5.57.41,7.61,3.17,1.68,2.25,3.77,4,3.27,7.19-.22,1.38.37,3-.11,4.21-2.62,6.85,4.54,11.17,4.32,17.35,5,5,6.63,10.3,1.07,16-1.07,1.11-.72,1.8.79,3.06,3.27,2.71,3.24,5.54.28,8.75-2.28,2.49-6,4-6.31,7.93a6.5,6.5,0,0,0,1.16,3.71c.71,1.1,1.86.54,3-1,1.46-2.13,3.83-2.14,4.12.19.6,4.88-.33,9.95.33,14.81.61,4.49,5.37,7.61,4.25,13.14-.82,4.07-1.79,9.5.14,12.5,6.72,10.42,3.8,21.64,3.56,32.36-.15,6.89,5.15,10.89,5.61,16.95a1.72,1.72,0,0,0,1.41.83c.6-.23,1.46-.92,1.46-1.42.1-7.73.07-15.47.07-23.2Zm-4.47,41.39c.27,3.64.52,7.74.93,11.82.06.54.93,1,1.42,1.49.5-.49,1.41-1,1.42-1.48q.14-11.25,0-22.5c0-.5-.92-1-1.42-1.48-.49.49-1.36.94-1.42,1.49C852.67,229.05,852.45,232.45,852.13,236.33Z"/><path d="M928.64,58.76c2.33,0,5.69-.84,6.34.14,3.32,5,10.61,3.52,13.47,8.84.32.6,1.21.93,1.44,1.53,1,2.63-.22-1.09-1.39,1.48-3.43,7.5-4.62,14.62-.82,21.33s1.74,13.39,1.82,20.11c-6,4-3.55,10.1-3.7,15.4q-.42,15.9,0,31.81c.15,5.3-2,11.07,3.43,15.66,1.46,1.23.7,5.28.71,8q.07,22.28,0,44.54c0,4.25.07,8,3.78,11.3,2,1.8.4,5.3-2.22,7-1.84,1.19-1.8,1.81-.13,3.1s3,2.56,2.93,5.14c-.22,8.48-.07,17-.09,25.45,0,4.15,3,3.76,5.75,4.09.85.09,1.53,1.59,2.3,2.44-5.13,2.24-2.43,9.47-7.5,11.75,3.06,3.76,4.65,8,3.67,12.85-1.17,5.84,5.66,9,4.49,15.26-1,5.46-.22,11.27-.22,16.92s.24,11.33-.08,17c-.2,3.46,4.63,5.23,3.82,6.45-1.93,2.91-4.18,4.19-.56,8,1.84,1.91.36,6.7,1.16,10,1.41,5.78,5.24,10.73,4.33,17.38-.85,6.25.39,12.77-.34,19-.7,6,5.76,9,4.66,15.27-.91,5.15-1.9,11.17,3.8,15.38,1,.75.18,4,.19,6.15v14.85c7.78,2.86,1.62,11.73,7.24,16.25,4.37,3.53-.68,10.35,2.91,15.67,2.81,4.15,6,8.67,6.83,14.06.29,2,0,5.06,1.07,5.77,4,2.54,2.7,7.45,5.65,10.65a22.75,22.75,0,0,1,5.68,12.28,19.06,19.06,0,0,0,4.46,11c.59.72.23,2.91-.44,3.9-2.89,4.24-12.07,11-17.66,13.56-3.31,1.49-7.87,2.16-9.71,0-3-3.45-9.35-1.84-9.9-5.91s-4.4-5.9-4.34-8.78c.11-5.2-3.41-9-4-13.17-.74-4.95-3.38-8.7-4.47-13.08-1-4,.08-8.4-4.27-11,2.66-7.42-6.15-12-4.61-19.38.87-4.12-5.87-6-4.15-11,1.82-5.31-6.1-7.27-4.43-13.14,1.06-3.75,1.24-8.4-3.21-11.32-.78-.51-.59-2.51-.81-3.83-.9-5.32,2-11.28-2.3-16-4-4.34.37-10.58-2.25-13.81-5.1-6.3-3.65-13-3.91-19.7-.18-4.94,0-9.9,0-14.84-5.83-3.84-4.1-9.81-4.22-15.21-.11-4.95,0-9.9,0-14.85-8.19-6.68-2.92-15.79-4.11-23.71-.8-5.33.93-11.2-4.37-15.19,0-4.95.22-9.91-.07-14.84-.27-4.64,1.72-9.67-3.23-13.64-1.49-1.19-.87-5.21-.91-7.94-.1-7.06-.75-14.22.14-21.18,1.17-9.24-6.56-16.28-4.74-25.9,1.55-8.18.32-16.9.32-25.38V195.23c-8.06-14.34-2.62-30-4.29-44.9-.72-6.39,6.32-10.17,4.62-17.41-1.56-6.7-.33-14.06-.33-21.13V92.7c0-.7-.28-1.84,0-2,6.67-4.49,2.31-11.94,4.72-17.17,2.15-4.66,8.35-7.1,8.83-13.37C925.4,59.54,927.64,59.15,928.64,58.76Z"/><path d="M699.59,127.28c0-4.24.51-8.56-.11-12.7-1.28-8.65,5.67-12,10.2-17,.17-.18,2.17.85,2.84,1.69,2.17,2.74,5.11,1.8,7.76,1.76,2.39,0,3.91.81,4.74,2.92.24.61-.16,1.46.06,2.09,2.36,6.79,11.33,8.77,12.5,16,1,6.2.2,12.69.2,19,6.48,4.53,3.71,11.33,4.25,17.32,7.51,3,1.3,12.24,7.37,16.16,1.13.74,1,3.78,1.07,5.77a124.35,124.35,0,0,1,0,14.83c-.71,7.7,2.14,14.46,4,21.66,1.68,6.64.36,14,.36,21.11,6.91,6.91,2.55,15.91,4.53,23.61,1.66,6.48,5.46,12.4,4,19.52,5.62,3.89,4.15,9.78,4.23,15.2.09,6.36,0,12.72,0,19.08,7.81,2.85,1,12.5,7.41,16a2.33,2.33,0,0,1,1,1.64c.21,7,.33,14,.47,21,6.53,5.51,3,13,3.78,19.62.56,4.66-1.55,9.9,3.63,13.43.75.51.52,2.55.64,3.89.88,9.39-2.64,19.45,4.26,27.92,0,5.65-.31,11.33.08,17S786,448.39,790.15,452c5.13,4.47-.41,11.68,5.67,14.86a2.67,2.67,0,0,1,1.33,1.54c1.35,6.58-3.23,14.1,3.17,19.89.38,6.91.61,13.84,1.16,20.74.51,6.53-2.31,10.94-8.57,12-3.32.56-4.18,4.13-6.69,4.27-3.11.16-5,1.46-7.25,3.28-1.23,1-4.48,1.37-5.49.49-4.79-4.16-9.12-8.84-13.62-13.34.5-5.7-6.68-8.64-5.21-14.87.63-2.68.19-5.63.09-8.45-.24-6.95-.56-13.9-.85-20.84-6.75-5.65-2.08-13.24-3.38-19.81-7.54-6.79-3-15.75-4.2-23.69-.69-4.63-5.86-7.43-4.47-13.12,1-4,.61-8.49.07-12.66-.58-4.53-5.34-7.55-4.33-13.13.86-4.73,0-9.77-.14-14.67-6.62-5.46-3-13-3.87-19.58-.6-4.63,1.77-10-3.61-13.36-.22-4.15-.22-8.32-.72-12.43-.72-5.94,2.52-12.75-3.73-17.55-.4-.31-.34-1.25-.45-1.9-1-6,1.85-12.23-2.42-18.13-3.9-5.38-1.91-12.19-1.63-18.27.27-5.84-5.9-9.05-4.64-15.25,1-4.74.17-9.84.15-14.78-7.54-6-3.65-14.32-4-21.59-.24-5-2.14-8.85-4.07-13.25-1.82-4.14-.39-9.72-.39-14.66-6.89-8.48-3.33-18.54-4.26-27.93-.53-5.29,2.25-11.42-3.74-15.4V127.28Z"/></svg>