<svg id="Layer_1" data-name="Layer 1" xmlns="http://www.w3.org/2000/svg" viewBox="0 0 1200 1200"><title>BB_Artboard 100</title><path d="M221.1,309.48c1-4.75-2.71-10.67,2.77-14.26,8.15-5.33,11.09-18.12,24-16.8a3.69,3.69,0,0,0,2.7-2.38c.79-19.36,18.66-21.66,30.51-27.73,11.44-5.85,17.44-11,18-24.48.33-7.59,6.15-15.46,10.91-22.21,4.91-7,4.85-16.92,13.42-21.56s5.31-15.92,13.36-21.77c7-5.07,12.6-11.7,21.66-13.33,1.05-.19,1.71-1.93,2.77-2.6,5.91-3.72,5.56-10.71,8.62-15.68,2-3.28,11.41-3.09,12.15-5.88,2.11-7.91,3.66-14.16,13.79-13.32.91.08,2.87-3.89,3.05-6.09s-1.16-6.48-2-6.52c-13.77-.63-27.56-.74-41.35-1-4.85,8.14-12.83,6.6-20.38,6.79-8.83.22-19.75-2.14-25.9,2.15-7.26,5-13.69,5.25-21.11,5.53-5.89,11.38-19.4,4-26.44,10.35-6.66,6-17.18,4.36-21.87,12.85-14.35-1.53-17.1,18.74-31.64,16.85-7.29,7.28-14.83,14.33-21.7,22-2.23,2.47-1.93,7.22-4.14,9.73-8.15,9.22-9.42,22.8-20.42,30.37A26.65,26.65,0,0,0,150,228.81c-.69,4.06-6.2,11.32-14,11.05-.86-13.24,7.37-22.75,13.77-32.92,2-3.19,7.76-5.59,7.71-8.26-.48-22.56,18.82-31.39,30.27-45.67,2-2.56.85-8.24,3.1-10.07,6.53-5.29,15.53-6.36,21.49-13.68,4.46-5.48,8.7-11.8,17.45-13.59,8-1.63,14.28-10,23.93-7.3,7.8-7.74,17.46-8.36,27.73-8,3.2.12,8.14-1.8,9.48-4.29,5.38-10,16.89-9.94,24.55-16.08,5-4,6.05-4,12.95.62,10.61,7.11,21.36,6.78,31.28.67a24.65,24.65,0,0,1,13.93-3.89c20.61,0,41.24.4,61.84-.15,9.64-.26,20.66,4.26,28.36-6.34,1-1.39,4.65-1.07,7.09-1.2,11.37-.61,22.74-1.11,34.11-1.65,10.3-12.32,24.05-4.6,36.14-5.86,11.47-1.19,23.18.09,34.75-.48,3.28-.15,7.11-2.31,9.44-4.74,2.62-2.74,3.76-3.43,5.66-.26,4.13,6.85,11.09,6.05,17.1,4.93,4.27-.81,8.49-6.78,11.9-6.12,4.1.79,6.54,7.49,12.67,6.45a13.86,13.86,0,0,1,3.86,0c18.33,2,37.93-5.35,54.9,7.55,1.63,1.25,5,0,7.6.2,18.39,1.6,37.13-3.88,55.14,7.11,8.78,5.35,21.57-2.13,32.8,4.78,7.73,4.76,15.48,12.12,26,11.51,4.71,7.8,12.19,8.3,20.07,7.49,11.91-1.21,19,4.31,22.25,15.49-3.82,0-9.55,1.6-11.14-.29-5.58-6.64-12.07-8.16-20.1-7.55-6.33.49-13.65,2-18.85-.5s-9.69-6.17-15.81-8.22c-5.27-1.76-9.11-7.21-16.34-6.87-10.93.52-21.3.89-31.74-6.82-6.8-5-19.75,3.58-27.83-6.63-1.65-2.08-6.93-1.31-10.55-1.79-15.59-2.09-32.83,5.68-46.54-7.74-26.79,0-53.59-.36-80.36.39-4,.11-7.84,5.35-11.71,8.29a27.5,27.5,0,0,0-2.72,2.68c1.82,1.37,3.49,3.57,5.5,4,4.85.9,9.95.51,14.72,1.63,1.33.32,1.85,4.08,2.74,6.27H561.54c-6.42,0-13.16-1.26-19.18.29-9.28,2.37-12-8.54-20-8.12-7.69.41-15.41,0-23.11.12s-11.06,11.1-19.9,7.67c-11.23-4.36-18.55,8.21-27.55,7.16-11.65-1.38-16.58,11.2-27.11,9.73-13.49,8.3-12.94,20.8,1.38,29.44.94.56,2.78-.37,3.75.19,16.65,9.56,36,14.23,49.76,29.37,3.24,3.57,11.28,3.15,15.55,8.46,3.87,4.81,8.12,8.39,15.58,9.21,4.94.54,8.56,8.53,16.11,7.48,1.54-.22,3.44,3.52,5.43,5.12,14.27,11.45,46.06,27,67.15,33.2,3.36,1,7.55,2.4,9.32,5,6.69,9.82,15.83,11.53,26.69,10.58,3.32-.29,8.48.74,10,3,6.14,9.27,17.65.05,24,7.89,6.94,8.63,16.89,4.57,25.09,3.93,11.88-.92,19,12.77,31.63,8.57,1.92-.64,6.25,3.73,8.47,6.56,9.64,12.35,22.59,11.45,33.79,5.59a39.36,39.36,0,0,1,17.33-4.9c10.46-.56,5.78,9.16,9.44,13,1.45,1.54,4.3,2.12,6.6,2.42,4.64.61,6.9-2.19,7.2-6.46.28-3.84,1.67-9.1-.23-11.3-6.2-7.17-7.42-14.87-8-24-.34-5.05-9.31-8.45-7.14-16.1-9.06-9.08-18.19-18.1-27.15-27.28-8.61-8.81-18.66-16.31-22.31-29.34-.79-2.83-11.64-3.57-11.79-5.71-.54-7.71-2.26-12.19-10.87-11.24-7.66-8.12-20.38-8.49-27.23-18-8.3-11.56-21.56-15.37-33.83-20.55-3.74-1.58-6.93-3-6.05-7.82,9.85.4,19.83-2.08,28.19,7.33,3.2,3.61,15.48-3,16.91,3.75,2.79,13.22,10,19,22.06,21.27,5.26,12.19,20.17,1.05,26.41,10.93,4.52,7.16,8.39,14.89,13.84,21.27,7.51,8.79,16.35,16.44,24.41,24.79,7.74,8,18.16,14.23,15.69,28.61-.55,3.2,5.47,7.93,9,11.35,3.86,3.69,6.75,7.29,5.94,13.09-1.48,10.72,6.47,18.19,10.86,26.36,5.71,10.64,20,15.51,21.67,29.84.12,1.07,4.51,1.25,6.37,2.6,7.84,5.69,17.61,7.42,25.55,13.42,4.3,3.25,13,.48,17.63,3.55,7.37,4.87,13,12.36,19.4,18.74,8.21,8.21,15.55,17.59,24.81,24.35,15.81,11.56,20.48,31.61,35.36,43.55-.83,10.58,8.62,14.56,13.48,21.54,4.07,5.83,4.16,14.06,10.46,18.82-2,9.67,11.13,13.62,8.87,23.4,12.32,6.08,1,23.24,13.68,29.14.76,11,13.2,18.85,8.39,31.33,7.27,4.86,7.61,12,8.16,20,.38,5.52,4.14,11.18,7.44,16.07,5.77,8.54,9.52,17.29,7.63,27.83-1.41,7.82,5.58,10.68,9.38,15.44,1.94,2.44,5.8,1.6,5.12-1-3.22-12.47,9-20.15,8.92-31.46,0-.83,3.28-2,5.16-2.36.56-.12,2.22,1.75,2.23,2.72.15,14.18.34,28.37,0,42.54-.17,7.4-9.74,10.93-8,20.07,1.37,7.09,2.32,15.38-5.83,20.73-1.43.94-1.75,4.64-1.46,6.92,1.28,10.43-2.9,18.79-7.26,28-3.92,8.33,3.17,20.27-7.58,28-1.91,1.38-1,7.28-.67,11,.61,8-1.76,13.92-7.21,20.49-3.94,4.76,2.66,15.28-6,20.46a109,109,0,0,1-15.84,40c-3.83,5.92-5.86,13.1-11.43,18.39-10.29,9.76-20.14,20-30.15,30-11.92,12-12.58,11.91-14.16,32.7-.61,8.07-10.46,10.9-8.34,20a40.3,40.3,0,0,1,0,19.19c-2.2,7.93-5.33,16.42-10.57,22.52-10.88,12.68-22.42,25.26-35.65,35.28-7.13,5.39-16.36,9.45-25.44,12.89-7.8,3-14.77,9.25-13.33,20.48,1.14,8.88.12,18,.28,27.05.07,3.71-.62,9.6,1.31,10.78,14,8.57-.32,25.12,10.58,34.66,7.9,6.91,2.2,17,3.26,25.53.17,1.36-3.19,4.52-4.94,4.54-11.14.09-22.86,2.85-31.19-8.82-5.79-8.11-14.9-12.16-23.69-17-13.29-7.38-19.85-21.67-24.82-35.72-3.91-11-10.42-16.37-22.31-15.66-9,.54-18,.19-27.06.08-8.7-.11-18.21,2.2-24-7.41l-8.21,7.27c-7.67-10.26-28.1-7.4-27.27-26.89.11-2.68-5.48-5.21-7.24-8.45-6.08-11.18-11.27-14.11-21.32-8.51-4.38,2.44-7.62,5.56-13.3,5.49-28.36-.32-56.74-.69-85.08.13-10.58.3-16.85-11.9-27.72-7.94-10.22,3.71-16.46-4.94-23.61-8.39-14.13-6.81-30.52-7.93-43.27-16.83-12-8.36-26.84-11.2-37.68-21.26-12.57,1.81-15.17-12.11-24.51-15.53-7.82-2.87-16.37-5-22.94-9.73-8.25-6-15.56-13.68-21.94-21.69-11.21-14.06-29.6-18.3-41-32.43-11.29-14-25.55-25.46-37.86-38.64-10.12-10.83-21.13-20.28-28.36-34.52-6.66-13.12-21.33-22-31.72-33.45-3.89-4.27-5.16-10.81-8.55-15.67-2.9-4.16-7.55-7.09-10.58-11.19-1.23-1.67-1.31-6.08,0-7.38,4.31-4.39,8.94-9.91,14.42-11.39,9.52-2.57,7.13,7.09,9.68,12,3.89,7.48,10.92,13.84,13,21.64,2.19,8.37,4.23,13.69,13.75,13.19.86,0,2.7,1.81,2.6,2.59-1.59,12.45,11.84,15.29,15.08,24.3.64,1.76-5.9,6-5.32,7.92.94,3.25,4.91,5.69,7.73,8.33,4.52,4.21,11.4,2.35,16.22,8,10.9,12.67,23.4,24,35.25,35.81-1.39,12,10.22,11,15.73,16.17,4.15,3.9,9.82,2.81,13.11,5.6s2.92,9.41,6,12.67c10.51,11.23,20.14,25.13,33.26,31.63,16,7.91,31.61,16.82,48,24a6.3,6.3,0,0,0,3.82,0,7,7,0,0,0,3.05-1.88c.65-.67,1.42-2.32,1.16-2.6-4.44-4.68-8.63-9.72-13.68-13.64-7.68-5.95-17.89-7.6-24.32-16.33-6.05-8.21-14.32-14.78-21.61-22.08s-14.36-14.83-22-21.78c-4.84-4.43-1.62-9.68-2.66-14.44,7.86-.31,10.85,11.12,19.79,8.2C400,888.12,408.81,891.11,407,901c-.18,1,3.71,4,5.53,3.88,7.89-.65,11.3,5.45,15.16,10,2.93,3.47,2.71,10.64,6,12.49,3.9,2.21,8.72,2.68,13.14,5.63,7,4.69,15.74,6.29,21.35,13.89,4.54,6.15,11.18,10.7,16.1,16.63,5.95,7.17,16.27-.78,20.75,5.58,7.56,10.72,24-.4,29.46,13.36,9.11-1,17.73-.49,23.86,7.74,27.26-2.78,55.58,6.71,82-7.49,3.92-2.1,11.12,1.58,13.56-4.07,3.16-7.3-3.31-11.3-7.63-15.87-6.75-7.13-13.38-13.61-17.25-23.78-3.35-8.79-14-14.71-20.87-22.34-1.29-1.43.84-6.07-.46-7.35-8.09-8-8.91-19.93-15.47-28.42-7.7-10-16.77-18.89-25.25-28.27-14.57,1.76-17.39-18.15-31.57-17.12-10.12-9.78-20.13-19.68-30.48-29.22-1.53-1.42-4.59-1.21-7-1.71-9.83-2.09-5-10-6.13-15.48,4.74,1,10-2.15,14.36,2.6,6.95,7.53,14.7,14.32,21.59,21.9s17.08,8.65,25.08,14c1.28.85,5.09-.49,6.54-2s2.13-4.52,1.85-6.72a11.33,11.33,0,0,0-3.41-6.17c-7.47-7.09-15.38-13.83-11.86-25.9-5.05-5.42-5.6-14.84-10.2-18.44-9.12-7.13-.83-18.36-7.81-23.93-7.79-6.21-1.69-16.43-5.75-20.53-7.5-7.58-7.18-15.44-7.25-24.26-.08-11,2.67-22.85-7.67-31.41,1-6-2.6-12.73,3.32-17.86,5.73-5,6.07-9.9.79-15.93-8.56-9.77-17.48-18.11-31.83-16.16-5.81-9.75-15.41-6.89-24-7-9.93-.16-15.87-11.83-27.64-8.07-15.27,4.89-27.18-10.09-42.18-9.09-5.28-12.07-19.87-.88-26.42-10.73-4-6.06-6.44,0-6.49,2.55-.1,6-2.53,12.7,3.63,17.63,8.26,6.61,14.54,14.08,11.69,26-1.2,5-.51,10.37,4.58,13.37,12.1,7.13,11,18.77,10.77,30.19-17.78-7-24.14-23.33-30.7-39-3.19-7.59-11.46-13.77-8-23.67-5.16-6.85-12.95-13.08-14.76-20.73-2-8.39-12.14-13.33-8.79-23.71.8-2.49-2-7-4.29-9.47-6.92-7.58-14.41-14.65-22.44-22.68-5.19,5.19-10.5,10.28-15.5,15.65-1.23,1.32-2.54,4.63-2,5.2,3.56,3.59,5.32,5.22,1.53,11.39-6.7,10.92-6.35,24.67-.45,35.75,5.33,10,7.49,17.65-.61,26.76-2,2.2-2.83,8.91-1.49,9.9,7.39,5.48,7.07,12.78,7,20.51-.09,6.29.54,12.58.86,18.88,10.42,5.21,3.28,17.17,8.54,23.24,4.45,5.12,5,10.95,7.82,16.21,1.39,2.63,3.28,1.82,5.48-1.11,1.2-1.58,3.53-2.31,5.34-3.42.94,2.18,2.42,4.29,2.69,6.55.45,3.8,1.67,9.92-.14,11.17-9.2,6.39-5.36,11.52.27,17.09-2.3,9.51,11.21,13.26,8,23.86-2.51,8.44,3.63,10.77,11.27,10.14.63-.06,2.59,4.66,2.19,5-10,8-6.75,14.58,1.29,21.63,5.72,5,14.14,10.43,15,16.61,1.36,9.16,7.61,12.74,12.36,18.18,5.05,5.79,10.94,10.85,16.22,16.46,6.34,6.74-3.82,6.91-4.51,10.87a22.48,22.48,0,0,0,0,3.85c-12.52-4.66-19.41-16-28.13-24.83-4.77-4.86-7.37-12.74-9.67-18.95s-5.64-10.7-9.66-15.34c-2.41-2.78-6.08-5.7-6.37-8.82-.71-7.56.76-15.45-7.28-20.24,2.39-8.81-8.48-12.13-8.35-19.62.14-8-11.28-11-8-19.92-13-6.95-2.74-25.06-15.38-32.21,5.78-17-10.16-30.2-8.12-47,1.14-9.42-10.89-16-7.79-27.73,2.23-8.42.83-17.92.23-26.89a15.63,15.63,0,0,0-4.4-9.57c-4.63-4.33-4-9.82-2.83-14.17,2.41-9.25,9.93-16.5,7.82-27.81-1.85-9.95-.38-20.51-.39-30.8,0-23.91,0-23.91-15.47-55.32,2.63-9.63-11.5-13.35-7.94-23.88,3.06-9.09-11.62-13.33-7.71-23.8,2-5.38-2.61-12.62,4.35-16.91,3.48,5.09,11.22,7.22,11.19,14.61,0,7.83,6.89,10.17,10.81,14.78,1.2,1.4,4.85,1.62,7,1s5.15-2.73,5.25-4.35c.51-9,1.59-18.28-.25-26.89-1.16-5.42-6.26-11-11.1-14.35-4.36-3-9.63,0-13,4.56-.69.95-2,2.43-2.67,2.26-7-1.68-13.49-16.8-9.22-21.21,6.26-6.46,12.05-13.66,19.24-18.88,7.78-5.64,7.48-15.54,13.59-21.47,4-3.86,1.93-5.79-.83-8.33-4.38-4-5.39-9.14-1-13,9.49-8.42,4.15-19.11,5-28.75.09-1.07-7.65-4.78-9-3.72-9.68,7.43-23.27,8.85-30.43,20.11C231.83,312.23,225.85,308.44,221.1,309.48Zm587.24,290.7a28,28,0,0,0-3.73-4.41,2.32,2.32,0,0,0-3.28,3.27,15.49,15.49,0,0,0,4.57,3.52c.28.16,1.55-1.49-8.11-6.88,1.15,0,2.75.45,3.32-.13a3.36,3.36,0,0,0,0-3.26c-1.79-2.55-4-5.72-6.72-1.07C794.07,591.84,796.6,594.15,808.34,600.18Zm-2.82-283c1.15,0,2.75.45,3.32-.12a3.38,3.38,0,0,0,0-3.27c-1.8-2.54-4-5.72-6.72-1.06-.37.62,2.16,2.93,6.8,12.32-1.21,7.93,1.36,14.29,7.89,19.61,3.65,3,9.29,6.07,7.44,12.05-3.45,11.15,9.8,16.75,8.1,27.53-1.57,9.87,12.42,15.91,7.92,27.58-.7,1.81,3.63,6.06,6.27,8.5,2,1.86,3.42,7.3,8.14,2.18,3.8-4.14,7.74-9.53,5.93-10.77-6.52-4.5-5-10.89-5.41-17.1-.34-4.77,2.75-10.58-2.5-14.19-6.52-4.49-4.06-11.14-5.39-17-1.26-5.62-6.15-10.49-7.11-16.08-1-6.16.19-12.59-6.19-16.7-6.17-4-8.6-12.64-17.41-13.6-2.91-.32-7.61,1.27-7.67,4C809,322.32,809,323.6,805.52,317.21Zm-402.19-30c-11.31,0-19.42-4.46-25.06,1.29-5,5.12-12.06,3.54-16.2,7.94-3.85,4.09-7.85,5.17-13.31,5.66-6.22.55-6.68,9.18-12.11,11.71-4.32,2-9.33,2.94-13.06,5.68-5.12,3.75-8.93,9.26-14,13.12a58.9,58.9,0,0,0-19.22,26.5c-4.22,12.91,9.15,20.24,8.38,31.7,0,.58,4.76,2.36,5,2,7.9-11.14,20.46-17.29,26.51-31.49,7.1-16.68,28.1-24.8,33.84-44,9.74,2.36,13.11-6.25,18.62-11,5.79-5,11.22-10.38,48.73-81.9-7.7,0-15.46-.61-23.08.17-8.45.86-17.78-4.06-25.29,4-5,5.37-14.72,3.13-18.66,10.87-.3.59-2.33.41-3.56.42-5.14,0-10.53-1-15.34.28-5.64,1.47-10.64,6.79-16.13,7.14-19.82,1.26-29.71,11.35-31,30.73-.09,1.27.47,3.4-.09,3.72-8.43,4.81-7.06,15.16-12.75,21.92-6.56,7.78-2.62,13.66,7.89,13.48,6.16-.1,14.52,1.05,17.94-2.34,5.07-5,12.19-3.24,16.27-7.73,3.78-4.17,7.84-5.12,13.26-5.62,6.2-.56,7.13-8.41,11.92-11.86,5.91-4.26,14.66-3.06,18.79-10.67,5.22-9.63,14.59-8.53,23.51-8.15,5.44-13.6,22.6-2.09,29-13.57,11.29-.61,22.59-1.2,33.89-1.85,2.46-.15,6.12.45,7.19-.9,8.91-11.23,21.19-5.44,32-6.72,7.49-.88,15.13-.52,22.62-1.44,1.18-.14,2.62-4,2.66-6.25s-1.38-6.24-2.43-6.33c-10-.9-20.22-2-30.24-1.33-11.61.77-18.85-11.65-31.57-8.37C449.91,226.15,440.48,224.39,403.33,287.18ZM540.86,656.84c-1,4.35-2.4,7.8-2.51,11.28-.3,10.29-.16,20.6,0,30.89a4.3,4.3,0,0,0,1.91,3c8.54,5.18,5.34,13.56,5.67,20.85.53,11.7,0,11.87,7.93,27.62,4.83,9.6,7.93,20.19,15.34,28.41-3.55,13.15,10.88,22.36,7.74,35.41,6.88,9.91,11.43,20.86,16.13,31.93,2.26,5.32,11.78,7.3,17.51,11.48,4.93,3.6,8,9,15.72,9.28,3.84.13,8.54,5.67,11,9.85,3.89,6.73,11.49,3.55,16.36,7.82,4.36,3.81,11.19,4.8,15.5,8.65s8.85,3.92,13.89,4.11c7,.27,9.59-1.54,10-7.82.46-8.12.41-11.18-9.66-20.55-6.09-5.66-4-14.2-10.45-19.18-6.07-4.67-11.06-10.75-16.52-16.21l-30-30c-5.46-5.46-13.31-10-15.82-16.6-3.75-9.84-12.48-15.83-16.1-24.25-2.85-6.66-8.93-12-9.4-19.16-.41-6.18-4.15-9.36-7.93-12.15-7.13-5.25-8.44-11.89-8-20.05.51-8.95,2.48-19-.73-26.66s-12-13-18.44-19.39c-2.61-2.58-5.34-5.05,185.29,247.47,5.37,0,8,.15,10.51,0,7.88-.59,17.38-9.35,16.66-16.87-1-10-9.82-4.5-15-6.47-7.76-3-15.11-7-22.61-10.59-8.58-4.13-17-8.53-25.81-12.2-1.27-.54-4.16,2.11-5.89,3.73-.64.6-.1,2.46-.1,3.75,12-.75,5.56,11.81,11.78,16.24C713,896.26,719.18,905,727,911.61,729.37,913.62,734.22,912.71,540.86,656.84Zm515.9,7.16c-2-11,3.13-23.85-7.5-34.88-3.22-3.34,0-12.45-.64-18.81-.78-7.18-10.11-11.09-7.71-20,2.5-9.29-11.07-13.25-8-23.9,2.51-8.58-8.6-13.54-8.31-23.76.23-8.44-7.31-17.19-11.84-25.61-3.95-7.31-6.26-15.56-10.6-22.6C989,472.92,984,446.5,963.67,429.24,967,415.16,947,413.82,948.2,400.89c-12.4-12.42-24.18-25.56-37.47-36.95-6-5.17-15.78-5.81-22.47-10.48-7.27-5.08-12.61-12.86-19.51-18.59-2.26-1.87-6.89-1.68-10.21-1.1-1.37.23-3,4-3,6.12.08,9.83-3.32,20.79,7.58,27.7,0,7.71-2.88,17.49.76,22.64,4.78,6.76,5.35,13.32,7.58,20.3,3,9.23,8.88,17.15,7.42,27.93-.77,5.78-2.79,12.8,3.35,17.78,5.95,4.83,4.29,13.52,10.69,18.92,11.76,9.93,22.48,21.2,32.85,32.63,5.66,6.25,16,9.64,14.7,20.87,5.61,5.15,5.59,14.7,10.44,18.49,9,7.06.66,18,7.83,24.1,8.53,7.23,4.56,16.64,4.75,25,.53,23.16-.28,46.36.43,69.51a25.17,25.17,0,0,1-8,20c1.57,12.91-7.75,10.56-15,10.32-4.62-.15-7.82,1.83-8,5.78-.55,10.27-.19,20.59-.19,30.89s-1.91,21.07.49,30.77c2.94,11.86-8.12,17.94-8.13,27.82,0,3.64-.16,8.16,1.8,10.71,3.13,4.08,6.39,7.28,6,13.13-1.17,15.7,11.89,21.07,22.1,27.58,3.21,2,11,.92,14.16-1.75A279.8,279.8,0,0,0,996.58,814c7.37-8.13,10.21-19.26,18.75-27.24,4.55-4.25,5.53-12.91,10.09-18.74,2.1-2.7,1.82-8.44,4.17-9.56,15-7.2,6.25-26.86,19-34.89,2.67-9.38-3.56-19.64,5.11-28.95C1061.12,686.54,1054.69,674.89,1056.76,664ZM352.6,470.32c0,2.57.34,5.2-.06,7.7-1.58,9.8,2.16,17.09,9.78,23,8,6.22,11.22,16,16.93,23.65,9.88,13.26,22.27,25.09,35.25,35.46,7.44,5.93,17.16,8.85,24,16.56,4.42,5,23.61,6,28.13,1.1,7.52-8.12-3.53-12.65-5.84-18.93-2-5.56-7-10.72-7.16-16.15-.23-8.19-9.59-11-8.91-20,.33-4.48-9.53-8.5-6.94-16,3.15-9.13-6.35-12.66-8.44-19.79-2.7-9.22-9.5-17.13-7.24-27.87.78-3.7.22-7.7.1-11.55-.14-4.56-7.88-9.48-10.87-6.33-5.8,6.11-12,8.17-20.19,7.66-10.25-.65-20.58.09-30.86-.27-4.88-.17-7.16,2.22-7.55,6.3C352.23,460,352.6,465.17,352.6,470.32ZM338.24,224.39c1.18-.08,8.66,1.56,10.81-1.1,8.22-10.2,20.05-3.07,28.07-7.27,9.25-4.83,17.78-8.6,28-7,8.47,1.34,11.08-9.73,20-8.12,7.47,1.35,15.4.59,23.08.06,2-.14,3.83-2.94,5.8-4.45,6.91-5.3,7.07-8.62.19-13.6-7.85-5.7-18.37-7.07-24.22-16.28-4.05-6.38-14.8-3.21-18.42-11-4.27-9.2-15.24-7.1-21.66-13.33-5.23-5.08-9.06-4.12-12.92-.26-15.44,15.46-30.2,31.71-46.61,46.08-10.59,9.28-8.46,20.23-8.44,31.3,0,1.66,2.83,4.05,4.84,4.79C329,225,331.8,224.39,338.24,224.39Zm283,293.94c14.09,0,28.18.19,42.26-.13,4.07-.09,7-2.65,6.21-7.42s2.43-10.33-2.52-14.32c-6.76-5.45-11.08-16.85-19.86-16.14-12.21,1-19.28-11.29-31.49-8.69a54.49,54.49,0,0,1-22.92,0c-10.24-2.39-15.77,8.8-23.69,7.57-11.3-1.76-17.06,9.36-27.48,8.95-3.86-.15-5.32,11.44-1.59,12.59,19.32,6,35.14,22.82,58.09,17.87C605.59,517,613.56,518.33,621.24,518.33ZM725,938.37c-3.71-2.87-8-5.53-11.52-9-9.92-10-18.81-21.53-35.74-16.72-1.84.53-4.66-1.1-6.59-2.38-6.13-4-8.84-13.72-17.82-12.68-8.58,1-13.62-4.44-20.2-7.55-3.94-1.86-9.94-.26-14.75.9-3.69.9-3.41,1.58,5.34,10.77,5.21,5.46,11,10.73,14.73,17.12,2.29,3.88-.63,11.35,2,14.4,10.1,11.64,21.4,22.26,32.59,32.92,1.42,1.34,5.81,1.78,7.15.65C693.29,955.73,712.23,954.32,725,938.37ZM382.78,569.66c-7.78-14.41-23.21-21.51-30.91-36.72-7.49-14.78-18.65-27.75-25-43.63-1.73-4.34-5.85-7.58-5.29-13.26.89-8.9,1.21-17.66-7.36-24.11-1-.79.57-7.85,2.83-9.74,6.06-5.08,4.48-11.38,4.59-17.51.08-4.48-2.41-6.55-6.86-7-14-1.32-16.23.29-16.29,13-.07,15.41,1.75,31.08-.54,46.14-2.08,13.71,11.67,22.31,8.26,35.39,4.92,5.67,9.58,11.59,14.81,16.95,12.55,12.86,25.61,25.24,38,38.26C366.64,575.47,374.33,574.1,382.78,569.66ZM778,842.46c3.92-9.92-7.2-14.78-8-23.49-.7-7.88-11.22-28.63-13.78-32.49-5.5-8.26-13.85-3.78-20.81-5.44-2.11-.5-3.34-4.11-5.51-5.07-6.55-2.88-13-8-18.94-9.24-8.56-1.75-16.58-2.5-23.56-8.43-1.47-1.26-5-.64-7.47-.08-3.42.79-6.67,2.31-10,3.52,1.64,1.8,3,4,5,5.33,5.87,3.87,12,7.38,18,11-.08,13.58,13.15,17.42,19.33,26.42,7.42-.93,9.23,2.31,12.37,9.46,4.74,10.77,13.44,20.76,27.27,22.45,3.79,7.68,12.91,5.85,18.7,10.51S778.2,850.1,778,842.46ZM620.88,648.13c-4.74,5.19-10.87,9.13-12.46,14.43s-2.95,12.42,2.78,17.8c8.43,7.94,16.45,16.32,24.64,24.52,1.82,1.82,3.53,5.06,5.48,5.22,11.4.94,15.94,13.23,24.37,15.72,9.18,2.72,16.18,12.78,27.23,9.07a47.37,47.37,0,0,0,6.56-2.8,3.21,3.21,0,0,0-.43-2.57c-7.53-6.67-12-15.11-16.88-23.88S667.7,691.16,661,683.37c-5.51-6.42-15.93-9.71-14.48-21Zm-206.4-273c0-6.37-.32-12.76.11-19.09.32-4.77-2.06-7-6-7.71-2.22-.37-5.48-.06-6.93,1.33C388.84,362,375.74,374.19,364,387.54c-5.28,6-7.94,14.41-11.18,22-.69,1.62.84,6,2.1,6.35,9.53,2.6,18.78,3.15,28.47-1.4,8.51-4,16-10.17,25.47-12.26,3.91-.87,6-3.43,5.74-8C414.17,387.85,414.48,381.46,414.48,375.1Zm410,597c0-4.2-.25-8,.06-11.81.62-7.76-6-10.69-10.3-14.65-2-1.82-7.66-2.15-9.89-.6-5.14,3.56-8.53,9.78-13.82,13-10.5,6.28-10.6,19-18.46,26.93-3.87,3.89-2.32,9.07,2,12.88,2.84,2.5,5.21,7,8.26,7.47,7.46,1.09,15.19.36,22.81.36C813.51,995.45,829.05,989.33,824.44,972.11ZM588.63,581.63c4-2,8.59-3.57,12.27-6.32,3.88-2.89,7-6.33,7.25-12.27.32-6.58,13.11-11.28,5.6-18.7-5.5-5.42-14.46-7.6-22.19-10.34-3.38-1.21-7.61-.6-11.36-.11-5.68.73-8.89-2.71-13.13-5.48-3.67-2.4-9.37-2-14.2-2.25-4.62-.22-8.89,6.92-6.94,10.56,4.08,7.62,14,10.71,15.54,20.27s10.66,13.45,16.31,19.86C579.88,579.23,584.09,579.73,588.63,581.63Zm344.1,344.21c0-4,.09-5.31,0-6.58-.36-4.67-7.81-9.4-10.88-6.21-5.77,6-11.85,8.47-20,7.6-7.73-.81-11.07,8.08-19.57,8.78-6.47.53-3.14,10.82-3.54,16.79-.34,5,.27,9.88-4.43,13.57s-5.4,8.89-1.2,12.77c2.23,2.07,6.9,1.51,10.47,2.14l25.87-11.5c-.42-15.39,15-19.14,21.44-29.44C932.67,930.87,932.54,926.76,932.73,925.84Zm-257-307c-2,1.31-4.89,2.2-5.8,4-1,2.07-1.34,6.08-.06,7.41,13.31,13.85,27,27.33,40.58,40.91C723.4,671,727.65,684.6,738,688.32c1.89.68,5.21-.27,6.75-1.69s2.74-4.7,2.13-6.5c-1.13-3.31-4.06-6-5.61-9.19-4.12-8.52,1.85-21.63-10.92-26.07-9-3.12-16.46-9.11-26.07-11.48-7.74-1.9-14.23-8.65-21.47-12.92C680.81,619.31,678.13,619.38,675.77,618.87Zm-169.42-116c-1.94.12-14.83,10.28-14.15,11.29,2,3,7.41,6.15,6.94,8.17-2.57,11,5,18.43,8,27.44,3.47,10.4,13.41,14.58,19.53,22.34,1,1.26,5.14,1,7.23.15,1.88-.82,3.15-3.41,4.27-5.45.54-1-.28-2.64.15-3.74,4.4-11.13-11.6-16.15-8.11-27.4.81-2.6-1.74-6.85-3.76-9.61-4.95-6.77-4.82-16.76-13.31-21.15C511.06,503.83,508.62,503.51,506.35,502.86Zm426.38,88.95V568.69c-12.1-10.91-11.52-29.57-24.41-40-1-.79-1.83-1.7-2.74-2.56-1.26,2-3.39,4-3.61,6.16-.54,5.08-1.17,10.51.08,15.32,1.47,5.65,5.69,10.56,7.29,16.19,2.32,8.13-3.42,17.35,4.7,25.17,7.26,7,1.22,17.16,3.6,25.41.63,2.19,5.82,3.73,9.11,4.21,1.78.26,5.6-2.23,5.71-3.69C933,607.25,932.73,599.52,932.73,591.81ZM774.62,456.44c-9.74-.74-22.18-1.44-25.18,10.23-2.08,8.11,9.67,12.71,15.37,18.62,3,3.12,9.37,2.88,12.72,5.85,6.75,6,14,4.82,21,2.56,5.12-1.65,3.78-11.61-2.73-23.35-.59-1.06-2.25-2-2.15-2.9.85-8-2.24-11.93-10.63-11.05C780.45,456.67,777.86,456.44,774.62,456.44Zm88.82,627.76c-4.82-9.24-7.22-19.61-10.3-29.8-3.38-11.16-14.31-12.32-23.16-3.74-5.45,5.3-10.91,9.37-18.56,10.78-3.24.6-2.07,2.67.4,5.33,9.28,10,24.36,11.73,32.65,23.61,1.67,2.39,9.76.81,14.74.07C860.77,1090.21,861.83,1086.7,863.44,1084.2ZM677.56,803.81c-2.62,10.52,2.48,19.68,10.58,22,9.31,2.72,14.79,8.49,21,14.29,3.74,3.48,7.19,10.14,10.91,10.24,11.24.31,18.82,13.91,31.18,7.91a6,6,0,0,0,2.62-2.72c.28-.61-.51-1.8-1-2.66-4.56-8.47-15-7.89-21.19-13.61-7.53-6.93-14.6-14.36-21.78-21.67-6.91-7-19.38-5.68-24.14-16.17-.78-1.73-3.48-2.59-5.29-3.85ZM832.18,568.86c0-9.18.87-15.73-.26-21.9-1-5.7-8.53-8.34-7.88-16,.36-4.28-8.91-6.92-11.93-4.06-5.56,5.27-10.73,11-16.36,16.14-2.43,2.24-.92,2.84.58,5.63,6.75,12.63,15.08,24.77,25,31.24,1.93,1.26,7.93-.67,9.67-3C832.89,574.41,832.08,569.79,832.18,568.86Zm6.46-104.69c-2.06,1.2-5.86,2.37-5.88,3.59-.09,6-3.48,13,1.85,17.95,7.41,6.81,12.29,14.78,16.46,23.89,2.37,5.18,7.56,10.69,15.21,8.65,4.62-1.24,7.86-14.28,3.23-19.92-4.17-5.07-4.94-11.05-8-15.9-4-6.3-10.33-11.24-16-16.34C843.88,464.68,841,464.77,838.64,464.17ZM762.16,630.89c12.75,12.49,25.39,25.1,38.36,37.34a19.74,19.74,0,0,0,9.55,4.53c1.81.34,4.13-2,6.21-3.18-6.76-4.35-5.47-13.3-10.15-18.44C796,640,784.92,629.52,774.25,618.8Zm-54.9-50.68v.39c-8.77,0-17.55-.07-26.31.12-.91,0-2.08,1.54-2.57,2.61-.27.61.38,2,1,2.58,3.61,3.33,6.87,7.7,11.18,9.47,5.36,2.2,12.66-2.4,17.33,3.74s14.64,2.88,18.58,10.43c0,.11,4.79-1.33,4.89-2.3a133.28,133.28,0,0,0,.23-15.1c-.1-10.24-1.28-11.79-9.22-11.93C717.34,580.14,712.3,580.21,707.26,580.21ZM909.54,827.68c-2.22.92-4.78,1.32-6.44,2.76-9.05,7.83-12.24,21.83-7.77,33.28a6,6,0,0,0,2.62,2.64c5.58,3.11,17.75-1,23.12-7.63s5.74-16.73,0-23C918,832.32,915.73,826.84,909.54,827.68ZM894.06,713.31c0-6.35.32-12.72-.19-19-.17-2-2.34-5.28-4-5.52-5-.73-10.42-1.25-15,.18-2.1.65-3,6-4,9.39-3.78,13.2,6.51,22.71,9.46,34.16.33,1.27,4.12,2,6.4,2.34,4.62.68,6.93-2.16,7.21-6.3C894.33,723.48,894.06,718.38,894.06,713.31ZM716.15,466c0-5.83,1.25-10.32-.38-13.15-1.37-2.37-6.27-2.49-9.29-4.17-4.13-2.27-7.78-5.46-12-7.55s-9,2.33-9.28,7.91c-.71,16.14,9.46,25.54,25.33,22.66C713.08,471.19,715,467.21,716.15,466ZM778,944.4c0-1.29.49-3.38-.08-3.73a45.78,45.78,0,0,0-9.29-4.57c-5.54-1.85-10.52-12.24-17.21-.86-2.52,4.3-7.86,6.93-10.46,11.21-1.55,2.54-.92,7,0,10.19.41,1.38,4.1,2,6.4,2.54,12.41,2.82,19.41-9.22,30.11-11.25C777.92,947.86,777.88,945.62,778,944.4Zm-66.22,38c6.51,0,10.37.49,14-.13,3.86-.66,5.95-3,6-7.7s-2.27-6.87-6.15-7.57c-9.33-1.67-17,1.25-22.59,9.13-.66.93-2.13,2-2,2.63a4.07,4.07,0,0,0,2.53,2.6C707.22,982.08,710.88,982.33,711.81,982.43Zm89.44-66.13c0-5.38-9.56-19.79-11.48-18.72-3.11,1.73-5.53,4.85-7.9,7.66-1.18,1.4-2.59,4.7-2.24,5,4.64,3.52,6.68,11.17,14.09,10.15C796.61,920,799.2,917.46,801.25,916.3Zm-65.61,97.07a23.82,23.82,0,0,1,3.78,0c4.82.81,6.81-2.12,7.61-6,1.16-5.71-1.83-9.19-7.9-9.44-3.78-.16-7.74-.64-11.31.24-1.68.42-3.9,3.89-3.66,5.68a17.62,17.62,0,0,0,4.13,9.3C729.46,1014.41,733.11,1013.37,735.64,1013.37ZM762.75,510.3c-1-1.7-2.26-6.38-4.63-7.06-4.63-1.31-9.93-.67-14.87-.15-1,.11-2.8,4.3-2.27,4.91a71.26,71.26,0,0,0,10.68,10.23C755.1,520.82,762.06,516.62,762.75,510.3ZM565.07,270.55c1-1.82,3.55-4.48,3.9-7.41.69-5.79-3.26-8.86-9.3-7.73-3.87.73-6.44,2.75-6.06,7.57C554.07,268.82,557.15,271.65,565.07,270.55Zm263,572.9c-7.92-1.1-11,1.74-11.46,7.57-.37,4.82,2.19,6.85,6.06,7.57,6,1.14,10-1.94,9.31-7.72C831.62,847.94,829.07,845.27,828.06,843.45ZM666,1005.64a13.67,13.67,0,0,0,3.68-.06c2.18-.63,4.27-1.61,6.39-2.44-.84-1.75-1.35-3.77-2.57-5.18-2.39-2.74-6.84-7.69-7.51-7.26-4,2.65-7.39,6.45-10.55,10.22-.34.4,1.72,4,3.23,4.51C660.88,1006.24,663.57,1005.64,666,1005.64ZM869.85,757.5,863.12,762l2.62,2.63a50.85,50.85,0,0,0,5.31,5.18c1.48,1.09,3.45,1.53,5.2,2.26.76-3.38,3-7.42,1.84-9.95S872.43,758.81,869.85,757.5ZM815.32,833c.23-1.87-8.13-12.54-10.37-12.69-.81-.06-2.43,1.55-2.49,2.48-.25,3.36-1.26,7.84.44,9.85s6.35,2.17,9.76,2.71C813.4,835.44,814.43,833.81,815.32,833ZM379.67,321.5c-1.91,6.47-3.52,9.74-3.62,13.06-.05,1.92,2.33,3.9,3.62,5.86,1.29-2,3.68-3.94,3.63-5.86C383.2,331.24,381.59,328,379.67,321.5ZM636.93,456.44l-5.87,3.87c2,1.29,4.05,3.8,5.84,3.61,3.31-.37,6.43-2.32,9.63-3.61Zm-37.9,163c3.36-1.4,5.53-2.19,7.55-3.27.32-.17.26-1.9-.19-2.5-2.88-3.88-11.09-3.92-12.42.26C593.58,615.16,597.44,617.76,599,619.41Zm262.86,20c-.06-.88.2-2-.24-2.61-2.88-3.87-10.57-3.76-12.72.18a2.91,2.91,0,0,0,.19,2.57C852,643.47,859.62,643.32,861.89,639.45Zm-41.32-28.31c-.86.86-2.56,1.91-2.42,2.55.41,1.82,1.56,3.47,2.43,5.19.85-.86,2.56-1.9,2.41-2.54C822.59,614.52,821.43,612.86,820.57,611.14Z"/><path d="M1033.29,286.27c-2.19-.9-5.39-1.19-6.37-2.82-2.42-4-2.66-10-5.85-12.76-6.86-6-9.24-14.21-13.77-21.3-5.19-8.11-5.95-18.7-15.65-24.66-7.43-4.57-16.29-11.38-18.45-18.92C970.1,195,962.62,189.24,956,182.07c-6.06-6.61-12.64-12.75-19-19.1-11,1.54-14.54-8.52-21.37-13.49-1.84-1.34-4.61-2.65-6.63-2.27-8.72,1.69-14.81-2.11-19.55-8.68-3.57-4.95-11.2-6.91-10.92-14.69,11.48-.29,23.11-1.23,30.32,10.81a12.6,12.6,0,0,0,5.75,4.56c7.65,3.25,16.54,4.67,23,9.46,9.19,6.83,16.62,16,24.81,24.21,9.09,9.09,17.25,19.47,27.53,26.93,10.9,7.9,11.42,21.82,21.36,30.13,11.36,9.51,11.49,26.23,21.46,37.49C1036,271,1033.29,279.84,1033.29,286.27Z"/><path d="M128.28,295.28c-.05,1.17,2.51,12-1.68,18.43-4.61,7.1-5.1,13.48-6.48,20.79-.82,4.29-5.89,7.8-9.16,11.56-.62.71-1.78,1-2.69,1.42-1.06-2.14-2.71-4.17-3.09-6.43-1.32-8,10.09-10.71,8-20-1.67-7.35-.34-15.39-.34-23.12,12.34-8,6-20.79,8.27-31.38a6,6,0,0,1,2.54-2.62c1.68,1.28,4.33,2.75,4.46,4.34C128.58,274.63,128.28,281.1,128.28,295.28Z"/><path d="M220.71,309.64l.39-.16c0,3.85.18,7.73-.12,11.56-.08,1-1.7,1.81-2.57,2.75-5.82,6.3-14.22,11-13.63,21.35-8.06,4.8-6,12.88-7.31,20.21-.78,4.27-5.92,7.71-9,11.6-1.91,2.42-4.92,2.2-5.19-1.18-.48-6-1.27-13.39,1.64-17.9C194.77,342.64,197.53,322.73,220.71,309.64Z"/><path d="M120.55,526.06c4.71-.87,7.13,2,7.59,5.87.61,5.19.62,10.16,7.88,9.6,0,1.25-.51,3.27.07,3.65,15.45,10.25,17,13.16,15.32,30.53-.1,1-1.27,2.07-2.19,2.79-.65.51-2.34.9-2.52.63-6-8.85-19.61-12.32-18.55-26.13C117.43,546.33,121,535.63,120.55,526.06Z"/><path d="M208,727.17c-5.29,1.28-8.4-2.67-12.38-5.83-7.1-5.65-4.38-17-13.16-21.43-.52-.26-.12-3.52-.06-3.52,3.8-.18,7.65.17,11.41-.24,5.44-.58,9,1.89,13.32,5,6.9,4.89,5,13.42,10.24,19,4.35,4.62,2.29,7.07-5.06,7.09Z"/><path d="M600.12,100.63c6.16,0,12.53,1,18.44-.2,14.49-3,23.9,7.8,35.66,12.11.4.15,0,2.33,0,3.56-4.93,0-10.13,1-14.71-.26-5.39-1.47-10-6-15.4-7.2-6.95-1.58-14.38-.93-21.51-1.93C601.55,106.56,601,102.75,600.12,100.63Z"/><path d="M1088.13,442.26c-1.07,6.72-1.23,9.15-1.93,11.42a4,4,0,0,1-2.59,2.52c-.81.07-2.57-1.55-2.54-2.37.56-16.81-15.44-30.92-7.91-48.77.45-1.08,1.67-2.43,2.63-2.51.81-.07,2.63,1.64,2.53,2.35C1076.15,420,1093,430.87,1088.13,442.26Z"/><path d="M1033.29,286.27c12.66,3.22,16.49,12,15.53,24.11-.38,4.83-.06,9.71-.06,14.57-2.09-.81-5.91-1.44-6-2.45a71.09,71.09,0,0,0-9.3-29C1032.39,291.65,1033.29,288.7,1033.29,286.27Z"/><path d="M174.69,421.64c0-5.08-.3-10.19.24-15.21.12-1.09,3.17-2.14,5-2.62.56-.14,2.35,1.67,2.37,2.6.18,10.15.25,20.31-.12,30.45,0,1-3.18,2.12-5,2.6-.56.15-2.32-1.64-2.36-2.6C174.56,431.8,174.69,426.71,174.69,421.64Z"/><path d="M112.81,436.87c0,5.07.33,10.18-.23,15.2-.13,1.23-3,2.4-4.87,3-.52.18-2.5-1.61-2.51-2.52-.19-10.15-.28-20.31.1-30.45,0-1.12,3-2.39,4.88-3,.52-.18,2.46,1.59,2.51,2.53C113,426.71,112.81,431.79,112.81,436.87Z"/><path d="M1095.17,517.93c0,3.73.45,7.55-.21,11.16-.28,1.51-2.85,2.74-4.59,3.71-.3.16-1.65-1.65-2.56-2.49-5.65-5.19-5.5-5.11-.51-15.91,1-2.06-.48-5.16.35-7.33.54-1.41,3.1-2.3,4.93-2.82.58-.17,2.39,1.54,2.47,2.48C1095.34,510.44,1095.17,514.19,1095.17,517.93Z"/><path d="M155.26,642a24.71,24.71,0,0,1-2.59-2.63c-3.3-4.44-.37-10.26,7.77-18,5.28-5,6,1.37,7.77,3,7.11,6.57,6.84,6.66-1.4,10.1a64.84,64.84,0,0,0-8.92,5.18A19.06,19.06,0,0,0,155.26,642Z"/><path d="M182.33,661.52c-3.49,3.48-6.42,8.23-10.62,10.05-3.52,1.53-4.32-2.93-5-6.48a17.6,17.6,0,0,0-5.17-8.79c-2.56-2.4-3-3.66.44-5.35a7.05,7.05,0,0,1,3.22-1.06C169.2,650.15,182.16,659.11,182.33,661.52Z"/><path d="M120.55,511.21c0,3.71-.48,7.51.13,11.11.65,3.82-.35,5.38-3.76,3.58-1.83-1-3.84-3.58-3.92-5.52-.27-7.32.14-14.68.55-22,0-.92,2.28-2.6,2.41-2.5,1.65,1.24,4.08,2.57,4.38,4.23C121,503.7,120.55,507.49,120.55,511.21Z"/><path d="M878.59,123.84c-6,0-12,.52-17.9-.2-3.46-.43-6.17-3.17-5.31-7.54,6,0,12-.52,17.9.2C876.74,116.72,879.45,119.47,878.59,123.84Z"/><path d="M105.08,375a51,51,0,0,1,.12-7.53c.15-1,1.94-2.7,2.49-2.52,1.83.58,4.76,1.72,4.89,2.91a93.45,93.45,0,0,1,.11,15.06c0,.93-1.94,2.68-2.49,2.5-1.83-.57-4.36-1.51-4.9-3C104.47,380.29,105.08,377.55,105.08,375Z"/><path d="M136,243.46c0,2.4.57,5-.19,7.14-.58,1.66-2.83,2.74-4.34,4.07-1.07-2-2.75-3.83-3-5.9s.63-4.43,1.42-6.52a4.81,4.81,0,0,1,2.56-2.33C136,238.57,137.22,239.86,136,243.46Z"/><path d="M1056.5,333.89l-3.21,5.87c-1.51-2.54-4.11-5-4.19-7.62-.07-2.17-3.93-8.1,3.23-7,1.62.26,3,3.22,4.08,5.16C1056.92,331.24,1056.49,332.68,1056.5,333.89Z"/><path d="M1063.62,387.78l4.48-8.69c1.29,3.2,3.24,6.33,3.6,9.64.2,1.79-2.31,3.88-3.6,5.83Z"/><path d="M190.69,463.08c-1.4,3.36-2.18,5.54-3.27,7.56-.17.31-1.9.25-2.5-.19-3.88-2.88-3.91-11.1.26-12.42C186.44,457.63,189,461.5,190.69,463.08Z"/><path d="M584.65,92.9c3.49,0,7.42-1,10.34.31,2.34,1,3.47,4.84,5.13,7.42-3.49,0-7.41,1-10.33-.31C587.44,99.27,586.32,95.47,584.65,92.9Z"/><path d="M140.55,526.72c3.36.85,4.27,7.12,1.64,12.43a5.28,5.28,0,0,1-2.59,2.32c-3.54,1.36-4.62.1-3.63-3.55.89-3.27,1.26-6.67,2.13-9.95C138.25,527.38,139.7,527.13,140.55,526.72Z"/><path d="M179,696.16c-4.92-2.93-5-7.44-3.53-12.17a5.35,5.35,0,0,1,2.38-2.43c1.67,1.1,4.12,2.34,4.41,3.91.66,3.47.23,7.16.06,10.76C182.28,696.28,179.78,696.65,179,696.16Z"/><path d="M1063.12,358.64l-2.76,5c-.86-.86-2.56-1.9-2.42-2.54.41-1.82,1.56-3.47,2.42-5.19Z"/><path d="M124.42,448.71c.86,1.72,2,3.37,2.41,5.19.14.64-1.56,1.68-2.41,2.54-.86-1.71-2-3.37-2.42-5.19C121.85,450.62,123.56,449.57,124.42,448.71Z"/><path d="M1084,471.91c-1.2-1.52-3.72-3.83-3.36-4.45,2.72-4.66,4.93-1.48,6.72,1.06a3.41,3.41,0,0,1,0,3.27C1086.73,472.36,1085.14,471.91,1084,471.91Z"/><path d="M1094.54,476.41c-.9.9-2.16,2.55-2.45,2.39a15.44,15.44,0,0,1-4.56-3.52,2.32,2.32,0,0,1,3.28-3.27A28.34,28.34,0,0,1,1094.54,476.41Z"/><path d="M204.52,507.84l-2.75,2.75c-.86-1.72-2-3.37-2.42-5.19-.14-.64,1.56-1.69,2.42-2.54Z"/><path d="M148.74,617.77l-5-2.76c.86-.85,1.91-2.55,2.55-2.41,1.82.4,3.47,1.55,5.19,2.41Z"/><path d="M391.28,680.76c7.49,3.63,15.23,6.84,22.43,11,12.59,7.24,18.06,20.86,23.23,32.73s10.41,18.69,23.76,18.44c3.08,0,6.82,2.69,9.26,5.14,8.67,8.73,10.92,22.14,21.62,29.8,1.82,1.3.25,7.35.25,11.2-9.08-5.75-20.75-7.37-27.67-16.35-2.78-3.62-2.75-9.64-5.83-12.72s-9.83-2.7-12.61-5.88c-11.35-13-27.05-21.92-33.39-39.86-2.69-7.62-11.86-13.11-18.47-19.14C389.09,690.74,392.29,685.49,391.28,680.76Z"/><path d="M383.54,673c5.36-.2,7.93,2.38,7.74,7.73C385.92,681,383.35,678.38,383.54,673Z"/></svg>