<svg id="Layer_1" data-name="Layer 1" xmlns="http://www.w3.org/2000/svg" viewBox="0 0 1200 1200"><title>BB_Artboard 55</title><path d="M523.81,708c3.34-.49,5.18-2.25,5.09-4.53-.07-1.91-1.74-3.8-2.78-5.67-3.33-6-3.6-6.07,1.15-13.58,1.05-1.66,2.23-2.11.11-3.26-5.7-3.08-4.46-8.28-3-12,1.22-3,5.88-4.45.71-8.26-1.87-1.38-1.24-5.47-1.26-8.32-.08-21.59.63-43.19-.31-64.75-.52-12.06,5.09-25-5-36.12V535.94c0-12.65.06-25.31,0-38,0-2.85.56-6.66-1.28-8.35-3.35-3.07-4.4-6.09-4-9.9.66-5.59-2.47-12.05,5.1-16.07-7.1-4.08-5-10.3-5.08-16-.12-5.21,0-10.42,0-15.63,0-6,.25-11.92-.1-17.86-.2-3.29,1.5-5.28,3.79-7.7,2.76-2.92-1.13-3.28-3.22-3.23-3.08.08-5.38-1-5.62-3.25-.46-4.43.2-8.94-.22-13.38-.53-5.57,2.65-11.67-4.16-16.54-1.83-1.31-1-5.52-1-8.41-.09-11.91.34-23.83-.19-35.72-.28-6.25,3.24-13.44-4.58-18.48-.5-.32-.43-1.31-.54-2-1.4-9.27,2.79-18.84-3.1-27.95-5.28-8.19-1.17-17.34-2.13-26-.62-5.66,2.11-12-5.34-16q0-8.91-.1-17.83c-9.25-6.36-4-15.09-5.12-22.75-.63-4.21,1.51-8.94-4.11-12.06-1-.55-1-2.58-1.2-3.95-1.12-7.12,3.27-15.16-2.81-21.28s2.15-14.92-7-20.14c-1.72-1-.62-5.55-.72-8.47-.19-5,1.46-10.51-5.09-13.85.3-4.19-2-8.63,3.23-12.19,4.78-3.23,8.77-7.3,13.16-11,7.55-6.28,7.57-6.25,24.32-6.11,1.62,0,4.05,0,4.76-.82,5.32-6.17,12.87-3,19.45-3.47,1.07-.08,3.53,2,3.34,2.61-2.54,8.39,7.75,14.12,5.83,22.81-1.57,7.06.14,14.65.39,22,8.25,5.87,3.13,13.81,4.52,20.75,9.13,8,5.39,18.15,4.75,27.15-.43,6.1,7.4,7.88,6.08,13.85-1.27,5.75-.27,11.86-.27,17.82,0,5.21-.24,10.43.07,15.63.29,4.92,7,7.82,5.47,13.83-1.26,5-.17,10.34-.13,15.53,9.2,6.38,4.8,15.12,4.82,22.76,0,5.54,7.73,7.67,5.9,13.85-1.46,4.9-.29,10.35-.29,15.56,9.94,11.18,3.42,24.09,5.25,36.12.22,1.46.76,3.47-.09,4.38-4.71,5,11,9.47.29,14.3,9.81,3,.92,13,8.84,17,1.29.65,1.91,4.85.89,5.68-3.67,3-3.19,4.32-.58,8.29,4.32,6.56,8.72,13.71,6.72,22.26-1.49,6.36,1.12,14.06-2.21,19.29-3.58,5.62-2.07,5,3.3,5.95,6.84,1.19,2.07,3.6.06,5.35-1.36,1.19-.73,1.8.87,3.29a10.08,10.08,0,0,1,3,5.58c1.54,9.84-3.79,20.55,5.38,29.4,0,6.7-.45,13.43.13,20.09.54,6.26-3.08,13.28,4.52,18.59,1.36.94.41,4.19.64,6.36.58,5.61-2.43,12,5.13,16.06l.14,17.82c9.51,6.28,4,15.07,5.22,22.72,1,6.42-2.52,13.64,2.29,19.25,5.35,6.24-.2,13.8,3.46,18.87,7.5,10.4,3.66,21.24,4.93,31.85.28,2.34,1.88,4.06,7.86,6.13,2.64,1.89,2.93,1,2.58.53-.74-1.12-1.68-2.84-2.79-3-4.88-.66-1.8,2.63-2.32,4.06-.76,2,.44,3.84,3,4.19.51.07,1.44-2.09-.48-5.8-2.64-23.42-2.13-44.26-2.89-65.07-.31-8.34,4.89-17.87-5-25,1.63-6.93-4.15-14.87,4-20.93,1.39-1,.94-2-1.1-3.16-3.5-2-2.88-5-2.88-7.92q0-24.55,0-49.1c0-4.36.56-8.53-4.35-12-2.14-1.51,6.22-3.26,2.72-5.94-3.92-3-3.74-6.32-3.66-10,.06-3,.89-6.21-.2-8.87-1.59-3.89,9.83-5.46,1.83-10.54-2.31-1.47-2-6.89-1.44-10.35.85-5.57-7.61-7.68-5.76-13.86,1.47-4.89.3-10.35.3-15.56s0-10.42,0-15.62c0-4.36.8-8.71-4.37-12-1.37-.87-.85-4.1-.88-6.24-.08-8.19-1.39-16.58.33-24.5,1.89-8.69-7.54-14.3-5.92-22.8,1.37-7.25.28-14.84.28-22.28-9.39-7.15-4-16.57-5.1-24.95-.36-2.62-2.46-3.66-3.66-5.47-2.4-3.61-4-7.52-6.69-11.11-2-2.63-.39-7.23-.39-11,0-5.95.37-11.93-.13-17.85-.35-4.13-6.63-6.39-5.32-11.58a22.63,22.63,0,0,0,0-11.09c-1.07-4-6.39-6.48-5.24-11.61,1-4.3-.5-8-4.14-12-2.59-2.82,1.21-9.89-1.4-12.62-5.66-5.92-5.23-12.15-4.71-18.51.56-6.75-9.31-11-5.52-18.22-9.06-3.25-2.83-12-8.9-17.18-4.84-4.15-1.68-11.66,4.86-14.69,5.15-2.39,10.67-3.86,14.55-8,4.39-4.71,9.3-8.32,17.72-7.24,3.35.43,6.61-6.41,10.7-3.88s9.17,3.35,13,5.83c3.28,2.1,6.28,4.42,6.46,8.9.23,5.58-3.14,11.94,3,16.71,4.86,3.78-1.36,10.61,5.54,13.73.72.32,1.59,1,1.72,1.59,1,4.94-2.63,10.8,2.19,14.78s3.48,8.34,2.9,12.35c-.83,5.68,7.85,7.71,5.8,13.87-1.33,4-1.33,8.72,4,12,1.09.66.87,4.25-.2,5.75-1.59,2.24-5.39,3.53-.91,6.45,4.93,3.22,8.74,6.86,7.56,13-.83,4.35.79,9.1-.38,13.33-1.8,6.54,6.2,9.87,5.78,16.06-.38,5.49-3.14,11.78,3.68,16.56,1.45,1,1,4,1.31,6.13,1.31,9.12-3.78,19.13,5.29,27.17,0,4.46.54,9-.14,13.38-.76,4.94,6.65,6.44,5.6,11.58-.88,4.33-.18,8.9-.18,13.37,7.64,5.73,3.91,13.56,5.56,20.42,1.3,5.35,6.65,9.64,5.22,16.09-1.11,5-.63,10.41-.1,15.58.49,4.83,6.58,7.9,5.5,13.82-.85,4.63-2.66,10.27,3.56,14.33,1.45.95,1.26,4,1.33,6.1.17,5.21,0,10.42.07,15.62.15,7.11-.4,13.78,4.71,20.76,4,5.5-2.94,14.56,5.16,20.45.51.37.54,1.29.66,2,1.25,6.93-3.45,14.89,5,20.58,1.56,6.11-2.85,13.54,5.59,18.13.82,6.47-2.94,14,2.16,19.23,5.48,5.65,2.08,11.31,3,16.88a34.41,34.41,0,0,1-.06,13.34c-1.27,5.27,5.84,6.8,5.69,11.58-.13,4.15-2.36,8.93,2.25,12.51,2.21,1.7,1.6,2.62.31,4.85-4.12,7.14-3.59,7.27.27,13.58,7.52,12.32,7.25,12.34,7.62,24.15.19,6.31-2.92,13.46,5.13,18.3.42.25-.24,1.54.1,2.15,2,3.59-8.33,4.39-2.81,8.39,3.06,2.22,1.48,6,3.78,7.56,4.91,3.38,3.07,5.42-.54,8.15-.91.7-1.12,3.57-.35,4.1,5.41,3.77,6.71,8.88,4.93,13.85-2.22,6.18,8,7.63,5.79,13.9-1.45,4-.12,8.8,0,13.23,8.58,5.65,3.81,13.63,5,20.56.85,4.84-2.44,10.48,4.2,14.24,1,.56,1,2.63,1,4,.1,7.44,0,14.88,0,22.32,7.08,5,4.92,11.85,5.41,18.23.08,1,1.88,1.86,2.89,2.79.62-.53,1.77-1,1.78-1.58.25-8.14.2-16.28.57-24.41.12-2.62-1.53-4.05-3.41-5.53-3.91-3.08-1.08-7-1.95-10.48,6.2-3.23,4.11-6.42,0-9.74-.43-.36,0-1.44,0-2.18v-96c0-.74-.3-1.61,0-2.21,1.38-2.32,3.86-4.48,4.14-6.86.19-1.56-3-3.24-4.07-5.13-.67-1.23,0-2.94-.15-4.42-1.49-12.06,4.29-24.88-5.26-36.09v-29c4.14-3.23,5.75-6,.28-10-1.74-1.26-.28-5.68-.28-8.66V479.08c0-5.21-.25-10.43.08-15.62s0-10-5.16-14c-1.31-1-.2-4.28-.2-6.51,0-10.42.75-20.89-.21-31.24-.92-9.84,5-20.68-5.07-29.41.21-5.88.28-11.77.81-17.63.06-.66,2.73-1.53,4.26-1.64,2.53-.19,5.1-.24,4.36-3.07-.18-.73-2.86-1-4.36-1.49s-3.85-.82-4.3-1.75c-2.78-5.8,2.93-13.53-5.73-18.08a28.46,28.46,0,0,0,3.05-3.18c.83-1.16,1.29-2.52,3.46-8.07,1-4,0-3.89-.13-3.55-.59,1.89-.84,3.86-1.45,5.74-.68,2.12.06,2.84,2.48,2.06a3.47,3.47,0,0,0,1.77-1.35c1.79-3.06,1.17-6.68-2.67-2.9-4.56,2.74-1.95,6.41-4.32,4.4-3.78-3.22-2.67-6.94-2.32-10.35.39-3.86,5-2.77,8-3.54,2.35-.58,2.65-2.2.9-3-1.39-.65-3.18-.65-4.72-1.12-5.08-1.54-5.66-3.83-2.7-8.17,1-1.4,5.57-2.24,1.52-4.69-4.44-2.67-3-6.52-3.2-10.06-.21-3.34,9.18-6.19.72-10-.24-4.38,1.52-10.16-1.12-12.87-6.43-6.59-3.64-13.82-5.12-20.73-1.16-5.38-6.86-9.57-5.29-16.1,1.21-5,.1-10.38.29-15.59.16-4.55-7.13-6.23-5.52-11.59,1.05-3.5.19-7.41.19-11.13,0-4.47.17-8.94-.05-13.4-.21-4.29-6.65-6.31-5.46-11.59,1-4.22,1.81-10.05-.78-12.87-3.68-4-4.43-7.63-4.27-12-9.53-9.62-3.62-21.09-5.12-31.67-.12-.9,1.9-2.81,3.08-2.91,11.07-1,14.37-10.07,21.79-14.81,2.88-1.84,5.15-3.46,9.05-3.27,6.14.31,12.32.18,18.48,0,5.35-.11,6.69,4.26,10.18,6.2-1.9,6.92,5.57,11.68,5.85,18,.26,5.95-.29,11.93.15,17.86.46,6.29-3.15,13.54,5.19,18.26v17.87c9.26,5.44,5,13.61,4.95,20.48-.08,7.45,8,12.51,5.94,20.55-1.65,6.4-.47,13.35-.28,20.05.11,3.65,6.1,4.86,5.4,9.34a27.1,27.1,0,0,0,1,10.78c.49,1.9,3.5,3.34,4,5.24,1.63,6.24-2.56,13.1,3.23,19,5,5.14,1.18,11.39,2.12,17.09.81,4.91,7.22,7.79,5.63,13.83-1.31,5-.63,10.39,0,15.54.21,1.71,3,3.18,4.64,4.76-3.94,2.47-5.84,5-.58,8,0,0-1.07,2.36-2.09,2.72-1.49.53-3.55-.1-5.08.4-2.28.74-2.67,2.23-1.07,3,1.37.68,3.22.62,4.67,1.21,5.6,2.26,10.21,5,9.87,11.26-.32,5.93,0,11.89,0,17.83,10.28,7.93,3.49,18,4.76,27.08-7.71,4.07-1.68,6.57,1.46,9.49,5.71,5.29,6.21,7.89.8,15.14-1.59,2.13-2.74,5.18-1.66,5.89,5.79,3.76,5.32,8.82,5.25,13.93,6.69,3.14,4.31,8.92,5.76,13.64.59,1.89,4,3.2,4.48,5.08,1.94,7.76-3,16.11,2.82,23.61s1.34,15.79,2.54,23.66c.76,4.93-1.76,10.55,4.93,13.93.62,5-.49,10.89,2.31,14.75,3.28,4.51,5.27,7.39-.23,11-1.91,1.25-1.77,1.94.37,3.24s4.26,3.08,3.2,5.5c-2.59,5.92,5.73,8.57,5.41,13.81a65.72,65.72,0,0,0,.12,13.38c.34,2.34,4,6.26,3.73,6.44-5.52,3.25-3.26,8-4,12.21s1.93,6.86,5.24,9.41c.44.34,0,1.43.15,2.15.9,4.23-2.52,9.27,1.91,12.65,4,3,3.12,6.49,3.39,10.07.32,4.28,6.85,6.32,5.42,11.59-1,3.53-.47,7.43-.11,11.13.47,4.87-2.59,10.59,4.23,14.13.32,4.35.63,8.71,1,13.06.68,8.48-1.86,17.11,4.88,25.19,2.49,3,.49,8.7.38,13.17-.13,5.14,7.2,7.78,5.57,13.84-1.33,5-.67,10.4-.08,15.56.25,2.22,3.39,3.17,6.12,2.6,1.52-.32,4.12-1.57,4-2.11-1-5.55,3.12-11.77-3.33-16.72-1.49-1.15-1.64-4-1.65-6-.12-18.61,0-37.23-.11-55.84,0-3.74-.39-7.41,4-9.8.44-.24.78-1.41.64-1.49-7.4-4.25-4.31-10.7-4.53-16.29-.37-9.67-.13-19.35-.09-29,0-4.4.47-8.56-4.42-12-1.51-1.07,7.38-4.15,1-7.69-3.73-2.08-1.77-5.5-1.79-8.25-.16-24.57.14-49.14-.27-73.71-.09-5.53,2.35-11.3-3.3-16.75-4.82-4.65-1.11-11.37-1.69-17.15-.52-5.17-.11-10.42-.11-15.63V449.72c0-6-.8-12,.23-17.84S891,424.17,893.21,418c1.91-5.29-2.86-12,4.42-16.47.06,0-2.78-2.84-3.55-4.57-2.59-5.87,3-13.57-5.67-18.12l5-4.74c-9.1-5.49-3.83-13.61-5.23-20.51,8.85-9.7,4.51-21,5.13-31.66.28-4.85,2.06-10.15-4-14.33-1.84-1.26-1-5.5-1.06-8.38-.11-8.94.38-17.89-.19-26.8-.4-6.26,3-13.26-4.42-18.62-1.37-1-.67-4.17-.69-6.34-.06-8.94,0-17.87,0-26.81,0-5.21,1.93-11.23-.52-15.42-2.73-4.65-5.05-8.64-4.89-14,.4-13.4,0-26.8.17-40.21,0-5.16.76-10.21-5.14-14-1-.66-1-4.13,1.71-5.88,1.58-1,3.7-1.83,1.33-4.79-5.66-7-11-14.8-8.28-23.73,1.91-6.17-6.6-8.27-5.65-13.85a41,41,0,0,0-.09-13.36c-.29-1.8-3.51-3.14-4.74-5-.75-1.14-1-3.51-.18-4.25,7.87-6.94,16-13.66,24.16-20.37a3.26,3.26,0,0,1,2.55,0c5.94,2.91,9.8-5.91,15.17-2.26,5.92,4,7.3-3.54,12.71-2.62,6.35,1.08,9.18.65,8.27,5.4-1.28,6.62,7,9.71,5.88,16.1-1.05,5.82-.22,11.88-.22,17.84s-.33,11.93.1,17.86c.39,5.59-2.6,11.68,4.22,16.52,1.83,1.3.91,5.55.93,8.44.07,12.66-.37,25.33.19,38,.31,7-3.56,14.89,4.72,20.64.13,5.9-.42,11.9.56,17.7,1.54,9.09-5.29,19.23,4.86,27.4,1.33,1.07.26,4.29.26,6.51q0,19,0,38c0,6.7-1.09,13.57.34,20,1.18,5.35,5.57,9.72,5.25,16.08-.89,17.84-.52,35.73-.18,53.6.11,5.57-3,12,3.83,16.48.44,6.55,1,13.09,1.28,19.65.21,6,0,11.91,0,17.87s.59,12-.17,17.85c-.71,5.56,7.45,7.66,5.78,13.86-1.53,5.67-.33,11.85-.33,17.81,0,5.21-.39,10.46.21,15.62.21,1.81,3.54,3.24,4.21,5.15.89,2.53-7.41,4.37-1.08,7.89,3.74,2.08,1.51,5.46,1.9,8.24,1,7.2-2.95,15.31,2.17,21.51,5.28,6.4,2.4,12.76,3,19.08.69,7.4-.09,14.89.34,22.32.11,1.82,2.9,3.42,3.7,5.34s1.68,5,.62,5.83c-4.11,3.06-2.65,4.58-.38,8.31,2.5,4.14,1.15,10,1.1,15.18,0,4.5.54,8.2,4.64,12,2.22,2,1.32,7.2.49,10.73-.77,3.28-3.31,6.25-5.07,10.4,0-1.93,3,.47,0-1a3.06,3.06,0,0,0-2.38,0c-2.45,1.83-4.76,3.79-7,5.77-.36.31-.55,1.31-.4,1.39,1.3.66,2.7,1.64,4.08,1.64,5.29,0,5.85-.76,5.77-7.81,1.5-.51,4.18-.15,4.32.56,1,5-.51,11.18,2.54,14.64,3.7,4.19,3.55,8,3.67,12.24.14,5.21-.22,10.43.1,15.63.35,5.61-2.5,12,5,16.13.43.24.2,1.39.21,2.11,0,7.44-.5,14.92.15,22.32.6,6.93-3.77,14.9,5,20.44l-1.87,1.58c-1.82,1.54-4.84,3.54-3.12,5.45,8.24,9.14,4.47,19.6,4.93,29.51.21,4.49,3.85,6.25,6.56,8.91.48.47,1.38,1.13,1.81,1,.75-.21,1.82-1,1.83-1.49.25-14.83.46-29.66.41-44.49,0-1.11-1.83-2.4-3.12-3.3-3.84-2.67.36-3.66,1.64-4.67,2.39-1.92,2.44-5.2,1.31-5.94-4.9-3.18-5.12-7.22-5-11.79.2-11.16-.11-22.33.17-33.49.08-3.36-2.81-5.13-3.9-7.59-1.17-2.68,6.08-6.53-1-9.36-.16-4.41-.44-8.81-.46-13.22,0-5-1.37-10.39,5-14,.84-.48.94-3.67.17-4.13-7.19-4.24-5.07-10.46-5.13-16.15-.12-11.9,0-23.81-.07-35.72,0-4.4,3.49-4.09,7-4.45,1.15-.12,2.12-1.61,3.17-2.48-1.46-.62-2.93-1.79-4.36-1.76-3.06.08-5.36-1-5.64-3.24-.53-4.29,1.08-9-4.51-12a10.36,10.36,0,0,1,2.06-3c2.87-2.4,3.68-5.2.84-7.57s-3.89-3.6-.44-6.56c3.24-2.79,2.64-3.43-.13-7.45-1.07-1.55-4-2.19-1-4.85,5.33-4.79,2.94-10.82,2.31-16.46-7.3-5.7-6.89-11.31.29-16.83-4.63-3.27-4.79-6.43.31-9.47-8.55-4.73-4.66-12.08-4.91-18.31-.23-5.9-8-9.05-5.89-16.09,1.9-6.29.4-13.31.4-20V409c0-6,0-11.91,0-17.86,0-4.34.67-8.53-4.27-12-2.27-1.6,5.38-2.76,2.89-6.11-1.32-1.77-3.69-3.54-3.73-5.33-.29-16.37,0-32.75-.27-49.12,0-3.65,3.64-4.64,5.25-7-6.68-3.14-3-9.9-6-13.38a15.77,15.77,0,0,1-4.41-12c.12-3.71.5-7.49-.06-11.15-1.88-12,5.1-25-5.2-36.11,0-5.21-.32-10.44.11-15.63.33-4.07-1.75-6.66-4.67-9.64-2.33-2.37-.7-5.61,2.54-7.44,2.2-1.25,2.24-1.93.41-3.25s-3.4-2.75-3.87-5.35c-1.4-7.73,4.52-16.34-3.67-23.22-1.44-1.2-.67-1.7.77-3.25,4.67-5,12.84-7.56,13.85-15.26.6-4.5,7-2.76,10.41-4.64,7.71-4.21,18.09-3.59,26.51-.31,5.93,2.31,12.1,3.1,10.84,11.65-1.71,11.73.17,23.8-.65,35.66-.48,6.87,2.51,12.44,5.54,18.25A28.67,28.67,0,0,0,1028,220c.89-1.16,2.31-2.24,2.56-3.5.69-3.45-1.4-7.46,3-10.12,3.53-2.11.61-3.39-.9-4.72-4.87-4.28,1.74-12.38-7.17-15.26l1.87-1.58c1.83-1.54,4.84-3.55,3.12-5.45-8.25-9.15-4.46-19.6-5-29.51-.54-9.66.06-19.35-.19-29-.12-4.91,2.28-10.56-4.4-14.06-.27-4.38-.07-8.81-.91-13.1-1.49-7.64,4.33-16.37-4.47-23.09-.09-.07,2.86-3,4.39-4.55-7.14-4.07-5.41-10.34-4.93-15.94s-3.37-12.33,2-17c4.53-3.93,7.58-10.34,16.26-9.83.79,0,2.45-2.14,2.54-3.35.22-3.33,1.07-5.58,5.81-5.46,6.16.16,12.33.28,18.47,0,5.53-.28,6.43,1.81,8,6,1.47,3.81,5.88,6.89,4.78,11.7a4.9,4.9,0,0,0,0,2.22c2.47,10.45-5.59,22.12,5.14,31.6-3.16,2.38-6.24,4-1.33,8.18,2.31,1.94,1.37,6.9,1.4,10.49.11,16.37-.11,32.75.12,49.12.11,7.78-2.16,15.8,4.86,23,1.87,1.9,1.88,7.26-2.56,9.89-2.52,1.5-3.52,4.61-2.19,5.72,7.25,6.07,3.69,13.74,5.39,20.58,1.33,5.36,6.36,9.66,5.24,16.1s-.25,13.36-.25,20.06c0,5.95.9,12-.23,17.83-1.5,7.72,7.92,12.39,5.92,20.58-1.92,7.85-.41,16.3-.41,24.49,0,7.44-.36,14.9.21,22.31.18,2.36,3.89,4.52,4,6.87.12,1.83-6.11,3.06-1.45,6.35a5.92,5.92,0,0,1,2.38,3.58c1.71,12-4.11,24.8,5.2,36.19,1.23,1.51.17,4.37.17,6.6,0,6.7,1,13.53-.28,20.06s6.25,10,5.7,16.05c-.61,6.66-.14,13.39-.14,20.09,0,5.95-.42,11.93.13,17.85.45,4.82,6.66,7.9,5.41,13.83-1.21,5.77-.26,11.87-.26,17.82,0,5.21.79,10.53-.21,15.6-1.13,5.76,7.83,7.7,5.75,13.87-1.39,4.13-.26,8.87-.26,13.33V538c9.34,10.45,4.51,22.54,5,33.88.21,5.49,4.8,9.36,5.14,13.8.53,6.83,4,14.87-4.5,20.56,2.32,2.81,5.66,4.83,5.16,9.22-.74,6.64-.19,13.38-.19,21.07,0,.34.31-.59-.09-.92a2.66,2.66,0,0,0-2.23,0c-1.73,1-3.9,2.31-.72,3.88.42.21,2-1.25,3-2.94,3.34-1.5,5.15.23,5.18,2.55.2,12.65-.27,25.31.25,37.95.26,6.25-2.92,13.13,4.4,18.65,1.81,1.36.7,5.61.71,8.53,0,16.37-.39,32.75.2,49.11.27,7.68-4,16.22,4.72,23,1.34,1,.36,4.26.37,6.46q0,13.41,0,26.8c0,6-.44,11.94.13,17.85s-3.22,12.46,1.75,17.11c5.78,5.42,1.47,11.41,3.65,16.69,1.22,3,3.89,1.38,5.38-.38s2.56-2.09,3.77-.6c.45.57,1.25,1.32,1.09,1.8-2.26,6.74-7.7,12.89-5.21,20.5-8.6,4.19-1.49,14.49-10.2,18.91-1.11.56-1.43,4.32,1.31,5.8,4.6,2.5,4.68,6.62,3.37,9.85-2.16,5.3-6.41,9.74-5.26,16.11,1,5.82.22,11.88.22,17.84,0,1.49-.35,3,.06,4.45,1.67,5.61-7.31,7.67-5.66,13.85,1.51,5.67.32,11.85.32,17.8v15.63c0,5.21-.28,10.44.1,15.63.25,3.45-2.55,5.07-4.34,7.48s7.17,4.2,1.11,7.87c-4.34,2.63-2,6.89-2,10.36-.18,36.46,0,72.93-.22,109.4,0,4.26,1.85,8.79-1.46,12.85-4.26,5.23-6.9,11.24-12.91,15.67-4.95,3.65-8.46,4.52-13,.09a7.31,7.31,0,0,0-4.5-1.4c-4.38,0-8.42.18-11.68-3.33a77.68,77.68,0,0,0-11.14-9.48c-3-2.21-3.37-4.75-3.38-7.82,0-4.23,1.79-9-4-12-.39-.2-.7-1.27-.46-1.49,9.66-9,2.33-19.88,4.44-29.71.62-2.88-.26-6,.17-8.91.91-6.24-2.8-13.11,4.4-18.67,1.81-1.4.77-5.6.78-8.51.06-15.63-.35-31.27.2-46.88.24-7-3.66-14.89,4.78-20.63.47-.32.31-1.37.32-2.08,0-18.61.17-37.22-.2-55.82,0-2.25-2.75-2.39-5.2-.46-1.66,1.3-5.87,2.72-6.49,2.15-6.26-5.67-14.23-4-21.77-4.41-1.38-.08-2.94-1.55-3.86-2.7-1.51-1.87-3-2.17-3.72-.16-1.29,3.37-2.2,6.57-5.45,9.37-1.93,1.66,6.43,3,2.73,6-3.35,2.72-3.45,4.21.13,6.53,1.06.69,1.31,2.5,1.54,3.85a8.52,8.52,0,0,1,0,4.43c-1.81,4.58-6.65,8.08-5.38,13.84,1,4.31.27,8.9.17,13.36-.17,7.11,2.13,14.69-5.26,20.48,0,5.95,0,11.91,0,17.86,0,4.4.63,8.74-4.53,12-1,.62-.63,4.82.66,5.68,6.16,4.08,2.95,9.56,3.89,14.39.53,2.71-1.72,4-3.5,5.48-4.94,4.24-9.94,8.43-15,12.73-8.68,0-17.46-.06-26.24,0-2.83,0-3.25,6.54-7.39,2.58-4.36-4.18-12.84-6.66-11.07-13.83,1.61-6.5-3.85-10.71-5.22-16.09-1.27-5-.49-10.29-.61-15.45-7.69-4.06-4.16-10.57-4.91-16.14-.66-4.88,2.33-10.57-4.41-14.09-.29-5.11-.74-10.21-.84-15.32-.14-7.44-.91-15,.2-22.3,1.18-7.68-8.26-12.82-5.68-20.54.18-.54-1.89-1.68-3.05-2.39-.12-.07-1.08,1.13-1.82,1.48-5,2.35-9.78,5.86-15.12,6.66-7.68,1.14-16.52,2-23.45-.24-5.68-1.81-13.06-3.15-17-8.32-.9-1.17-2.55-2.31-2.62-3.51-.29-5.19,1-10.63-.46-15.55-1.11-3.86-6.6-6.73-4.9-11.61,2-5.7-3.69-9.16-5.25-13.8-.46-1.38.13-3-.11-4.45-.78-4.86,2-10-3.25-14.56-4.56-4-1.12-9.87-2-14.83-7.45-4-5.39-10.39-5.1-16,.42-8-.63-15.65-5.41-22.72,1.6-5-3.81-7.72-5-11.61-1.28-4.19,0-8.88-.37-13.32-.5-5.58-7.58-9.31-5.49-16.09,1.5-4.87.25-10.35.3-15.56s-7.18-7.78-5.56-13.83c1.33-5,2.1-11.09-.26-15.37-2.23-4-5.37-6.44.18-9.78-8.2-4.86-4.72-12.17-4.64-18.36.07-5.49-7.77-7.65-5.87-13.85,1.49-4.88.3-10.35.3-15.56-9.56-8.8-3.89-19.56-5.2-29.42-.29-2.14-.35-4.19-3.25-4.56-.49-.06-1.42,2.28-2.11,3.53-2.4,4.37-3.91,9.37-7.44,12.93-3.31,3.34-1.33,4.24.84,6.58,3.6,3.88-1.68,10.65,5.72,13.59a35.94,35.94,0,0,0-2,3.16c-3.3,6.69-3.58,6.81.79,13.63,3.21,5,4.14,9.61-1.49,13.64-2,1.42-2.07,1.94.13,3.28,2,1.25,3.65,2.82,3.51,5.46-.2,3.89-7.11,5-5.26,9.28,1.11,2.56,3.7,4.64,5,7.17.54,1,0,3-1,4-2,2.09-4.85,3.05-1.19,6.54,4.39,4.19,4.39,9.43-1.26,13.45-2,1.4-1.56,1.69.12,3.3,5.85,5.61,5.13,12.36.85,17.88-2.76,3.57-1.19,7.28-3,10.17-3.22,5.3,7.89,7.91,2.61,12.85-4.87,4.56-1.63,9.89-2.24,14.83-.54,4.41-.11,8.92-.11,13.38,0,5.21-.17,10.43,0,15.63.18,4.54-.37,8.33-4.86,11.86-2.39,1.88-.17,5.52,3,7.38,2.78,1.61,2.58,5.15,1.49,5.85-4.87,3.18-5.46,7.19-5,11.78a25,25,0,0,1,0,6.69c-2,10.53,4.94,22.11-5.22,31.65,0,8.93-.32,17.87.13,26.79.22,4.55-3.2,7-6.55,8.8A52.36,52.36,0,0,1,787,988.26c-4.23.76-7.93.91-11.57,3.65-3.12,2.36-9.14,2.38-12,.12-5.63-4.48-14.18-4.7-18.84-10.7-2.47-3.18-3.47-6.12-4.62-9.63-2.24-6.8-7-13-5-20.56-7.62-5.74-4.71-13.42-5.3-20.47-.41-4.94-7.08-7.81-5.52-13.83,1.28-5,.2-10.35.17-15.55-8.49-4.71-5.2-12.09-4.87-18.26.31-5.63-7.73-7.68-5.89-13.85,1.46-4.9.5-10.37.22-15.57-.2-3.6-6.27-4.86-5.34-9.33.56-2.73,6.08-3.06,4-6.58-1.09-1.87-2.79-3.48-3.87-5.35-2.9-5-7-9.6-5.52-16,1-4.27.14-8.87.11-13.33-6.49-3.32-5.14-8.74-5.2-13.81-.06-4.42-.25-8.83-.39-13.25-8.69-4.54-2.85-12.29-5.63-18.12a2.87,2.87,0,0,0-1.84-1.49,2.34,2.34,0,0,0-1.77,1.38,57,57,0,0,0-.88,8.62c-.07,17.87,0,35.73-.08,53.59,0,5,1.94,10.54-4.69,14,4.19,3.31,5,6.51-.47,9.47l4.8,4.74c-7.67,4.08-4,10.6-4.91,16.15-.67,4.19,2,8.77-2.5,12.53-5.34,4.45,5.69,6.3,2.59,10.59-.4.54.26,1.6-.11,2.18-3.57,5.73-6.06,11.51-5.37,18.28s0,13.39.18,20.08c.11,5.16.87,10.32-5.2,13.92-.81.48-.76,3.67.08,4.16,5.07,3,5.43,7.12,5.14,11.72-.27,4.33,1.21,9.47-7.45,8.52-.6-.07-1.4.72-2,1.2-5.07,4-9.38,9.94-15.37,11.66-7.1,2-15.69,0-23.54.63-5.9.48-9.17-3.32-13.74-4.39-9.07-2.13-13.18-6.48-11.79-14.12,1.25-6.85-3.45-12.23-5.05-18.31-1.5-5.68-.32-11.85-.32-17.81-9.78-11.19-3.4-24.08-5.31-36.1-1-6.24,2.76-13.12-4.47-18.66-1.81-1.39-.73-5.6-.76-8.52-.06-8.93.06-17.86-.16-26.79,0-.83-1.93-1.69-3.11-2.36-.14-.08-1.7,1-1.71,1.5,0,3-.47,5.86-3.83,7.6-2.25,1.16-2,1.84.12,3.24,5.66,3.73,4.08,7.33-.71,10.75-1.24.88-.58,2,1.39,3.14,2.9,1.62,2,3.09-.16,4.75-4.16,3.26-2.47,6,.65,9.28,3.32,3.52,2.92,3.91.5,7.49-.84,1.25-3.59,2.41-3.37,3.19,2.52,9.08-5.83,13.07-11.42,18.46a7,7,0,0,1-7.14,1.41c-7.17-2.29-9,6.75-16.43,4.85-4.78-1.22-10.4-.14-15.63.06-.65,0-1.24,1-1.87,1.51-1.69,1.39-3,3.21-5.67.63a135.09,135.09,0,0,0-13.05-11c-4.5-3.31,1.8-5.32,1.26-6.23-2.6-4.38-5.36-8.51-4.16-13.65-8.37-3.18-2.12-11.81-7.23-15.16-6.61-4.34.77-12.33-7.2-15.54-.64-.26-1.49-1.26-1.34-1.68,3.6-9.85-6.66-17.61-5.53-27.21.66-5.61-7.6-9.25-5.47-16.08,1.08-3.47,2.91-8.61-2.59-11.75-2.64,3.2-6.42,4.46-10.87,4.8-.67,0-1.25,1-1.87,1.51,1.28.79,2.5,2.16,3.84,2.25,3.76.26,6.7.6,6.63,4.78-.17,9.67-.54,19.37.12,29,.42,6.12-7.77,9.16-5.83,16.09,1.77,6.34.37,13.32.37,20,0,6-.26,11.92.11,17.86.2,3.38-1.68,5.38-4.18,7.55-1,.85-1.71,3.26-1.07,3.9,9,9,3.82,19.65,5.13,29.51a4.62,4.62,0,0,1,0,2.22c-.87,2.26-2.55,3.36-5.65,3.26-5-.16-10.95-1.37-10.37,6.07.17,2-3,2.93-5.91,2.87a21.63,21.63,0,0,0-9.68,1.78c-9.28,4-22.58,4-31.72.07-3-1.28-4.39-1.31-5.12.89s-.15,4.43-.15,6.66c0,3,.07,6,0,8.93-.08,2.57-1.69,4.12-4.78,3.91-5.47-.37-10.46,0-13.66,4.48s-8.16,5-13.64,4.5c-4.7-.4-5.75,5.27-11,4.57a43.59,43.59,0,0,0-13.15,0c-10.93,2-15.41-5.22-21.45-10.17a4.36,4.36,0,0,1-1.37-3.89c2.68-9.74-8.66-17.44-5.39-27.19-7.11-5-5-11.86-5.28-18.25-7.05-5-5.06-11.84-5.28-18.24-9.51-4.82-1.7-14.28-7.14-19.77-6.65-6.71-1.84-14.19-3.63-21.12-.15-.61-1.53-1.6-1.74-1.5-1.21.56-3.18,1.39-3.19,2.16-.22,9.67.12,19.35-.25,29-.2,4.86,2.62,10.49-3.84,14.43-.34.2,3.48,4.12,3.76,6.45.6,5.15-.14,10.42.29,15.6.35,4.09-2.38,6.55-4.4,9.72-1.09,1.72,5.3,4.6,4.43,8.93-1.25,6.23,2.46,13.14-5.16,18.49-1.73,1.21-.25,5.69-.25,8.67q0,34.61,0,69.21c0,6.67,0,6.89-9.64,8.67-2.69.49-4.78,1.1-6.63,2.72-3.05,2.67-6.43,5.11-9.24,8-2.55,2.57-5.52,3-9.19,3-5,0-9.89-1-14.49,3-2.83,2.47-5.25-4.27-10.2-3.28-5.81,1.16-10.52-.16-9.37-6.66-6-4.34-6.8-11-10.44-16.44,3.14-6.49-8.06-9.45-5.5-16.07.56-1.47-1.56-3.8-2.74-5.6-4.91-7.52-10.38-15.2-7.37-24.07,2.13-6.27-8-7.66-5.79-13.91,1.45-4.07.19-8.83.15-13.28-8.54-4.72-4.49-12-5-18.3S171,941,161,939.34c-3,0-1.94.26-1.3,0,1.66-.79,5,2.18,5.26-2.09.32-4.45-1.11-6.67-6.35-6.77a27.22,27.22,0,0,0-7.37.48c-1.07.28-1.84,2.13-2.21,3.37-.69,2.32.68,4.16,3.14,5,1.47.48,3.34.08,8.83.08,3.18,1.27,2.72,2.63,1.89,3.79s-3,3-2.91,3.06c10.17,8.92,3.39,19.79,4.55,29.64,1.21,10.31.27,20.81.27,31.22-8.58,8.92-4.32,19.5-5.22,29.39-.39,4.35-.53,8.49,4.27,12,1.83,1.35,2.08,6.2.65,8.29-2.47,3.63-5,7.15-6.45,11.17-8.48,2.56-16.31,6.24-24.22,9.8-1.05.48-3.64-.2-4.56-1.07-2.59-2.46-4.56-3.87-7.63-.37-2.58,2.94-7.51,1.76-11.12,4.47-4.84,3.64-10.92,1.91-15.85-1.9-5.93-4.57-10.18-9.17-9.34-16.93,1.11-10.33.09-20.81.37-31.22.09-3.3-1.35-5.38-3.92-7.64-2.78-2.43-2-5.18.86-7.57a8.36,8.36,0,0,0,2-3c-7.28-4.4-4-10.84-4.25-16.41-.42-8.91.31-17.87-.22-26.77-.59-9.91,3.41-20.48-5.17-29.4V924.3c0-20.08-.07-40.16.06-60.24,0-4.53-.34-8.33-4.84-11.86-2.41-1.88-.23-5.53,3-7.38,2.81-1.61,2.33-4.2,1.6-6-6.4-16-6.25-15.87-1.17-30.29,1.43-4.06,1-8.61,1.36-12.93-8.58-8.92-4.31-19.5-5.23-29.39-.34-3.7.25-7.46-.13-11.15-.42-4,1.21-6.89,4.43-9.78.61-.56-3.13-4.22-4.19-6.66-.44-1,.4-3.09,1.48-3.77,3.71-2.36,3.83-4.29-.09-6.42-1.88-1-1.51-1.93.58-3.21,1.13-.69,2.68-2.64,2.37-3-7.44-8.7-7.49-17.26.16-25.84-9.77-5.17-.12-15.49-8-21.35-4.55-3.38-1.9-6.55,1.8-9.1,1.74-1.2,1.5-1.95-.58-3.24s-4-2.71-.69-4.69c4.4-2.67,4.31-8.07,2.47-9.92-7.82-7.84-4-16.74-4.93-25.17-.47-4.32,1.1-10.15-1.63-12.65-5.2-4.75-2.75-9.68-3.69-14.5-.53-2.67,1.44-4.2,3.45-5.46,2.74-1.72,2.67-5.26,1.68-5.88-6-3.74-5.15-8.84-5.13-14,.07-20.08.58-40.18-.21-60.24-.38-9.84,4.64-20.62-5-29.4.15-13.33.25-26.67.51-40,0-2.37-.2-21.82-1.71-22.71-5.47-3.24-3.5-7.84-4.17-12.06s1.89-6.78,5.06-9.48c.9-.76,1-3.7.2-4.16-7.19-4.24-5.1-10.45-5.13-16.14-.11-17.85,0-35.7-.11-53.55,0-2.79,1.54-4.14,4.35-4.31,2.59-.15,5-.31,5.69-2.67.09-.3-2.61-1.56-4.14-1.82-8.15-1.36-11.29-5.62-11.18-12.42.12-7.82,1.63-15.86-5-22.82-1.29-1.35-.49-4.38,0-6.55.2-1,1.92-1.73,3.08-2.42a6,6,0,0,1,1.78,1.5c3.91,5,10.37,6.83,16,9.72.84.44.17,2.79.53,4.19a3,3,0,0,0,1.83,1.51,2.13,2.13,0,0,0,1.76-.81c1.8-5.31.53-11.46,6.41-15.69.62-.44,0-2.94-.94-3.93-1.89-2.08-3.55-2.75-1.5-6.55,5.1-9.42,3.41-19.76.93-29.76-.15-.61-1.42-1-1.77-1.6-3.59-6.58-2.62-11.18,3.81-15.14,2.56-1.58,6.62-1.61,8.74-3.4s2-5.38,4.05-7.37a104.27,104.27,0,0,1,14.91-12.59c4.47-3,12.31,1.21,16.28-4.73.53-.79,5.86-.69,6.64.31,2.82,3.58,8,2.36,11,4.68,3.18,2.48,9.63,4.9,2.08,9.58-1,.61-.62,4.86.66,5.67,5.15,3.24,2.89,10.11,9.14,12.54,0,4.46.87,9.08-.2,13.35-1.62,6.46,3.43,10.76,5.31,16.08,1.64,4.64-2.26,10.39,4.12,14.26,1,.63,1.26,2.58,1.28,3.93.1,10.41-.26,20.84.24,31.23.16,3.29-8.42,4.08-2.72,8.37,4.7,3.53,2,8.29,2.45,12.49.4,3.69-1.76,8.8.42,10.9,6.71,6.43,4.47,13.66,4.93,20.72.33,5,7.19,7.77,5.56,13.82-1.33,5-.27,10.36-.27,15.57v29c0,4.47.29,9-.1,13.39-.25,2.8,2.4,3.67,3.65,5.46,2.31,3.32,2.23,3.43-.36,7.57-.78,1.25-3,2.23-3.05,3.36-.23,11.15-.14,22.31-.14,33.47,8.59,8.91,4.17,19.5,5.3,29.38.58,5.15-2.68,6.34-7.91,5.88-.56-.05-1.88,1.16-1.76,1.44a7.51,7.51,0,0,0,2.21,2.88c.48.37,1.71,0,2.57.09,2.19.32,6.32.95,3.28,3.16-5.1,3.72-3.18,8-3.69,12.23,7.38,4,5.2,10.32,5.24,16,.12,14.13,0,28.26,0,42.39,0,6.7-.42,13.42.12,20.08.56,7-3.47,14.92,5.16,20.47,0,6.69-.27,13.4.1,20.08.23,4.2,6.57,6.34,5.4,11.57-.93,4.13-1.56,9,4.06,11.95a6.43,6.43,0,0,1-1.87,3c-3.22,2.11-1.11,3.57.78,4.74,2.08,1.3,2.22,2,.57,3.27s-4.56,2.52-3.78,5.35c.19.7-.22,2,.09,2.13,8.8,2.95,2.39,11.14,7.42,15.32,1.76,1.47,3.74,2.76.59,4.76s-4.49,5.49-1.66,7.41c5.12,3.49,4,7.77,4.14,12.06,9.61,8,3.73,18.08,5.11,27.18.1.72-2.2,2.25-3.6,2.47-3.33.55-6.86.29-10.15.93-.92.18-1.29,2.38-1.92,3.65-1.46.49-4,.77-4.18,1.51-.72,2.67,1.62,3.12,6.61,4.26,1.59.43.88-.56-.12-1.25a2.64,2.64,0,0,0-2.22,0,1.64,1.64,0,0,0,0,1.87,10.59,10.59,0,0,0,3.11,2c.2.09,1.06-.86-.75-2.67-2.43-2.79-2.43-4.28-2.43-5.77,3.52,0,7.06-.21,10.55,0,4,.3,10.34,5.44,10.53,8.33a64.91,64.91,0,0,1,0,8.93c-.32,4.56.08,8.61,5,11.8,1.15.75,1.08,4-1.27,5.94-1.24,1-4.73,1.46-1.83,4.75,6.06,6.89,10.13,14.67,8.71,23.69-.62,3.93.84,6.93,4.32,9.75,1.14.92.92,4.91-.29,5.69-5.6,3.59-2.14,5.75,1.15,8.05a10.19,10.19,0,0,0,3.73,1.47c.39.08,1.58-1,1.58-1.54.09-15.63.27-31.27-.14-46.89-.06-2.33-3.89-4.51-4.26-6.95-.22-1.47,4-3.22,4.22-5,.33-3.42,1.76-7.3-2.36-10.26s-3.59-6.19.3-9.17c.65-.49,1.25-1,1.87-1.57-6.19-4.29-4.74-10.25-4.82-15.85-.08-6,0-11.91,0-17.86,0-4.47.29-9-.1-13.39-.24-2.79,2.37-3.69,3.62-5.49,2.52-3.62,2.87-4-.41-7.49-3.12-3.28-4.79-5.88-.8-9.33a9.34,9.34,0,0,0,2.08-3c-7.29-4.4-4-10.85-4.27-16.42-.44-8.17-.12-16.37-.12-24.55,0-5.21-1.89-11.17.47-15.45,3.1-5.61-9.08-7.41-2.61-12.92,4.83-4.1,1.52-9.85,2.05-14.82.46-4.43.09-8.93.09-13.39V582.12c0-5.21-1.35-10.75.31-15.55,2.81-8.15-7.2-12.82-5.85-20.59,1.25-7.28.26-14.85.26-22.29V432.15c0-7.44.06-14.88,0-22.32,0-2.1,1-4.45-1.87-6.05-5.61-3.13-2.32-8.11-3.47-12.18-1.19-4.25,5.63-6.9,4.24-8.86-2.28-3.2-4.51-5.8-4.23-9.79.36-5.19.2-10.41.05-15.62-.14-5,1.94-10.54-4.68-14-.14-6.33-3.36-13.14,4.35-18.26.89-.59,1-3.64.25-4.12-7.93-5-4.71-12.07-5.09-18.38-.36-5.93-.11-11.89-.12-17.84-7.46-4-5-10.37-5.19-16-.2-6,.72-12-.29-17.83-.81-4.67-6.27-8.07-5.26-13.84s.22-11.87.22-17.83c0-5.21.06-10.42,0-15.63-.06-4.3.89-8.55-4.11-12.11-1.85-1.32-.52-5.55-1.23-8.35-1.34-5.34,2.3-9.44,6.76-10.79,6.81-2.08,11.56-5.73,16.34-9.79,3.72-3.17,6.85-7.53,11.36-9.13s10.42-.87,15.59-.3,7.58-2.64,11.18-4.39c1.47-.71,4.56.95,6.91,1.53-.86,1.06-1.68,2.14-2.6,3.15a17.94,17.94,0,0,1-1.85,1.59c5.66,3.5,5.47,8.56,5.08,13.67,6.64,3.15,4.89,8.76,5.66,13.66.1.58,1.08,1.26,1.83,1.51a2.18,2.18,0,0,0,1.77-.84c.58-1.28.66-2.74,1.28-4a110.08,110.08,0,0,1,6.74-11c2.58-4,9.62-1.36,14.66-1.49,4.77-.12,5.75-5.51,11-4.7,3.4.53,7,0,10.53.13,3.32.13,8.51-1.22,9.19,2,.83,4,3.54,6.26,5.61,9.31,1.52,2.24,1,6,.15,8.75-2,6.45,3.48,10.75,5.28,16.08,1.56,4.67-1.41,9.73,3.83,14.48,2.74,2.49-.62,9.46,1.95,12.44,6.91,8,4.39,16.68,4.86,25.16.24,4.4-.72,8.93,4.74,11.8.49.26.55,1.3.59,2,.46,8.78.87,17.56,1.3,26.34,8.35,6.85,2,15.52,4,23.16,2.16,8.25-4.76,17.76,5.11,25.11,1.31,1,.18,4.29.18,6.53,0,11.9-.08,23.81,0,35.72.05,5.69-2,12,5.24,16v33.49c0,5.95-.71,12,.22,17.83.75,4.69,6.57,8.06,5.25,13.84-1,4.3-.19,8.9-.19,13.36,0,5.21-.48,10.46.11,15.62,1,9.14-4,19.16,5.17,27.18,0,6-.61,12,.12,17.85,1.67,13.53-5.21,27.85,5.11,40.61.41.51,0,1.46,0,2.2,0,6-.15,11.91.05,17.86.16,5.08.73,10.15,1.12,15.22,7.17,4.44,4.21,10.92,3.84,16.41-.42,6.19,7.42,9.52,5.8,16.07-1.24,5-.25,10.37-.25,15.58,9.44,6.29,4.85,15.07,5,22.71.1,6.07,8.42,9,6,16.11-1.47,4.3-2.58,10.08,3.61,14.28,1.85,1.26,1,5.47,1.24,8.33.34,3.62.34,7.28,1,10.84.14.7,2.79,1.13,4.34,1.51a4.43,4.43,0,0,0,2.58-.06c2.09-.92,2.72-2.31,1.41-3.06-4.26-2.46-4.15-6-4.14-9.76.09-33.49.27-67-.13-100.47-.08-7,2.79-14.3-2.87-21.31-5.13-6.37-1.67-14.29-2.12-21.5-.47-7.42-.11-14.88-.11-22.32V533c0-7.44.22-14.89-.07-22.32-.2-4.92-6.88-7.81-5.49-13.83,1.32-5.73.28-11.86.28-17.81V463.38c0-5.21-.92-10.57.22-15.59,1.62-7.1-7.1-11.2-5.76-18.31,1.23-6.54.26-13.36.26-20.06v-20.1c-9.27-10.45-4.44-22.52-5-33.88-.27-5.4-7.74-7.64-5.87-13.83,1.48-4.89.3-10.35.3-15.56-8.13-6.51-3.5-15.19-5.72-22.62-1.13-3.77-6.36-6.55.44-9.78-1.16-5.53,2-11.23-3.51-16.74-5.21-5.21,1.72-14.27-6.36-19.51,5.58-2.8,6.14-8,4.21-11.64-2.4-4.58-6.27-8.51-4.88-13.92,1.6-6.17-7.2-9.49-5.55-16.06,1.26-5,.25-10.37.25-15.58,0-1.49.67-3.94-.1-4.32-9.75-4.87-1.27-14.46-7.24-19.84-4.87-4.39-2.11-6.75.4-11.09,2.9-5,4.49-8.36,12.12-7.66,6,.56,8.42-4.75,11.83-7.77,4.54-4,9.22-6.19,15.9-5.54,4.34.42,8.8-.1,13.18.13,4.1.22,11.29-1.53,11.38,2.29.14,5.14,6.31,6.82,6,11.54-.39,5.72-1.25,11.77,5.18,16,0,6,.66,12-.2,17.84-.74,5.08,6.49,6.58,5.66,11.59-.58,3.49.08,7.26,1,10.76.5,1.91,3.44,3.34,4,5.25,2.35,8.23-4.61,17.83,5.17,25,.08,8.91-.59,17.87.45,26.69,1.08,9.1-5.19,19.21,4.89,27.35,1.32,1.07.18,4.31.18,6.54,0,5.21.25,10.43-.07,15.63s-.33,10.26,5.35,13.78c-1.6,8.42,3.76,17.65-4.08,25.35-1.11,1.1-.26,1.79,1.2,3.26a10.34,10.34,0,0,1,2.79,5.65c1.29,9.87-2.91,20.28,5.13,29.55,1.68,1.93-.12,5.84.32,8.77,1,6.95-3.58,14.91,4.92,20.58.1,4.43-.18,8.9.36,13.29,1.07,8.54-2.53,17.25,3.14,25.7,4.9,7.3,1.08,15.86,2.07,23.8,9.26,5.45,4.15,13.56,5.16,20.49.63,4.4.26,8.93.07,13.39-.17,4,6.72,4.92,5.33,9.31-1.57,4.93,3.72,7.74,5,11.61,1.34,4.16.61,8.88.23,13.33-.47,5.31,7.32,7.74,5.63,13.83-1.37,4.94-.28,10.37-.28,15.58,10.06,8.73,3.34,19.62,5.29,29.4.55,2.79-1.86,6.57,1.62,8.26,7.52,3.65-.37,12.11,7.35,15.41,2,.86,1.56,1.9-.53,3.18-1.92,1.19-3.91,2.64-.71,4.71,5.91,3.82-.55,12.08,7.48,15.22.21,3.65,1.26,7.44.44,10.91-1.38,5.77,3.9,9.19,5.36,13.84,1.3,4.15-1.67,8.8,1.67,12.82,1.42,1.72,4.56,2.57,3.72,6.4,0,.33.3-.59-.09-.92a2.66,2.66,0,0,0-2.23,0c-1.73,1-3.9,2.31-.73,3.89C521.19,711.15,522.76,709.69,523.81,708ZM695.7,675.74c.78,0,1.87.26,2.27-.07a1.72,1.72,0,0,0,0-1.89c-1.23-1.47-2.74-3.3-4.59-.62-.25.36,1.47,1.7,9.49,5.18a17.08,17.08,0,0,0-2.55-2.55,2.62,2.62,0,0,0-2.21,0,1.64,1.64,0,0,0,0,1.87,10.82,10.82,0,0,0,3.11,2C701.43,679.81,702.29,678.85,695.7,675.74Zm327.37,357.43c.79,0,1.88.26,2.27-.07a1.7,1.7,0,0,0,0-1.89c-1.23-1.47-2.73-3.3-4.59-.61-.25.35,1.48,1.69,9.49,5.17a16.94,16.94,0,0,0-2.54-2.54,2.61,2.61,0,0,0-2.22,0,1.65,1.65,0,0,0,0,1.88,10.79,10.79,0,0,0,3.11,2C1028.8,1037.24,1029.66,1036.29,1023.07,1033.17ZM85.12,580a17.49,17.49,0,0,0-2.55-2.54,2.62,2.62,0,0,0-2.21,0,1.62,1.62,0,0,0,0,1.87,10.33,10.33,0,0,0,3.11,2c.19.09,1.06-.86-3.18-4V573c11.23-6.56,12.22-8.09,9.52-16.35-.26-.78-2.77-1-4.24-7.94,0-1.43,0-2.86,0-4.28.06-2.75.71-5.82-3.22-7.09-1.42-.46-3.81-.51-4.83.2-4.69,3.25,1.72,3.92,2.14,6,.55,2.74.2,5.6.74,8.34a5.17,5.17,0,0,0,2.7,3.18c2.32,1,3.13.13,2.54-2.06-.37-1.35-.07-2.84-.07,2.16-.5,3.81,2.35,8.84-6.36,9.14-4.42.15-4.3,1.09-.73,5,.92,1,1.22,2.45,1.81,3.69-1.46.49-4,.77-4.19,1.51C75.37,577.16,77.7,577.6,85.12,580Zm69.07-161.45v-2c-.78,0-1.79-.26-2.31,0-1.74,1-3.91,2.31-.73,3.88.42.21,2-1.25,6.11-8a18.63,18.63,0,0,0-3,2.15,1.65,1.65,0,0,0,0,1.88,2.62,2.62,0,0,0,2.21,0,9.54,9.54,0,0,0,2.4-2.64C159,413.75,157.87,413,154.19,418.59ZM845.47,535.37a17.08,17.08,0,0,0-2.55-2.55,2.65,2.65,0,0,0-2.22,0,1.66,1.66,0,0,0,0,1.87,10.51,10.51,0,0,0,3.12,2c.19.09,1.06-.86-5.54-4,.79,0,1.88.26,2.27-.08a1.69,1.69,0,0,0,0-1.88c-1.22-1.47-2.73-3.31-4.59-.62C835.72,530.55,837.45,531.88,845.47,535.37Zm-369.62,13.4a16.94,16.94,0,0,0-2.54-2.54,2.61,2.61,0,0,0-2.22,0,1.65,1.65,0,0,0,0,1.88,11,11,0,0,0,3.11,2c.2.09,1.06-.86-5.54-4a6.53,6.53,0,0,0,2.36,0c0-2.08.31-4.21-.14-6.22-.2-.9-1.87-1.62-3-2.26a3.44,3.44,0,0,0-1.62,1.41C465.22,541.83,465.28,544.44,475.85,548.77ZM159,405.8a17.08,17.08,0,0,0-2.55-2.55,2.62,2.62,0,0,0-2.21,0,1.64,1.64,0,0,0,0,1.87,10.46,10.46,0,0,0,3.11,2c.2.09,1.06-.86-5.64-4,2.46.69,3.35,0,2.42-2.07a3,3,0,0,0-1.59-1.48,11.49,11.49,0,0,0-4.45-.82c-1.41.16-2.69,1.13-4,1.75.91.87,1.65,2.17,2.78,2.51C148.32,403.53,150.1,403.2,159,405.8Zm88,239.05c-.58.23-1.57.38-1.67.72-.6,1.89-.85,3.86-1.46,5.74-.67,2.11.06,2.84,2.48,2.05a3.36,3.36,0,0,0,1.77-1.34c1.79-3.06,1.17-6.68-4.21,3.37,0-.66.3-1.59-.09-1.92a2.66,2.66,0,0,0-2.23,0c-1.73,1-3.9,2.31-.73,3.88C241.34,657.54,242.91,656.08,247.05,644.85ZM616.66,810.16c-.58.23-1.56.38-1.67.72-.59,1.89-.85,3.86-1.45,5.74-.68,2.12.05,2.84,2.47,2.06a3.43,3.43,0,0,0,1.77-1.35c1.8-3.06,1.17-6.68-4.21,3.37v-2c-.79,0-1.79-.26-2.31,0-1.74,1-3.91,2.31-.73,3.88C611,822.85,612.53,821.39,616.66,810.16ZM295.06,626.59c-1.13.79-3.37,2.1-3.24,2.31,1.48,2.28,5.56,3.15,4.94,6.63.82,0,2.17.26,2.37,0,1.13-1.63,2.65-3.38,2.76-5.14.18-3-2.5-4.21-5.13,7.18v-2c-.79,0-1.79-.27-2.32.05-1.73,1-3.9,2.31-.73,3.88C294.14,639.67,295.72,638.21,295.06,626.59ZM1097,613.19c.79,0,1.88.26,2.27-.07a1.71,1.71,0,0,0,0-1.89c-1.22-1.47-2.73-3.3-4.59-.62-.25.36,1.48,1.7,10,6.8a44,44,0,0,0-3-4.17c-.28-.33-1.56,0-2.38,0,.62,3.48-3.46,4.34-4.94,6.63-.13.21,2,2,3.27,2.21C1102,622.73,1104.25,621.36,1097,613.19Zm-268.63-76c-1.13.8-3.37,2.1-3.24,2.31,1.48,2.28,5.56,3.15,4.94,6.63.82,0,2.17.26,2.37,0,1.13-1.64,2.65-3.39,2.76-5.15.18-3-2.5-4.21-5.13,5.19-3.66-.11-5.42,1.38-3.28,13.4,1.67,0,3.46.32,5-.09,1.28-.35,2.23-1.54,3.33-2.36a7,7,0,0,0-1.79-1.46c-3.21-1.24-8.89.59-8.51-5-1.44.47-3.59.59-4.2,1.47-3.09,4.52-.58,7.41,4.2-1.47C828.43,550.75,830.19,549.26,828.36,537.23Zm263.48-111.34c-1,.77-2.71,1.44-2.91,2.35-.45,2-1.1,5,.13,6s4.72.49,7.09.11a5.31,5.31,0,0,0,2.59-2.42c-2.14-2.1-4.52-4-10,4.53,0-.66.3-1.58-.09-1.91a2.66,2.66,0,0,0-2.23,0c-1.73,1-3.9,2.31-.73,3.89C1086.17,438.61,1087.75,437.15,1091.84,425.89ZM840.33,483.52a54.72,54.72,0,0,0-4.94,2.55c-.39.24,0,1.32,0,2,4.11-.53,5.13,2.93,7.83,4.17a5.79,5.79,0,0,0,2.62-2.76c.83-3.61-.79-5.56-10.45.58,0-.66.3-1.59-.09-1.92a2.66,2.66,0,0,0-2.23,0c-1.73,1-3.9,2.31-.72,3.88C832.72,492.23,834.3,490.77,840.33,483.52Zm-665,215.25c0-.69.29-1.52-.06-2-.74-1.12-1.68-2.83-2.78-3-4.88-.65-1.81,2.63-2.33,4.06-.76,2.05.44,3.84,3,4.19.5.07,1.43-2.09-3.13-12.46,0-2.28.31-4.45-.14-6.5-.2-.94-1.87-1.69-3-2.38-.11-.07-1.57.89-1.63,1.43a40,40,0,0,0-.37,8.32c.11,1.12,1.56,2.92,2.66,3.08C172.6,694.17,168.79,690.61,175.31,698.77ZM244,735.26c0,2.23,0,2.94,0,3.65.12,2.43,1.66,3.82,4.5,3.79,1.52,0,3.88-.2,4.37-1,1-1.67,2-4,1.41-5.66-.94-2.43-5.63-3.16-5-6.71-1.44.48-3.68.63-4.15,1.49-1,1.77-1,3.91,7.22-5.59a18.17,18.17,0,0,0-3,2.16c-.38.4-.06,1.28-.06,1.94.78,0,1.83.27,2.3-.05a9.36,9.36,0,0,0,2.39-2.64C254,726.5,252.92,725.77,244,735.26Zm242.88-18.62c0-.69.3-1.52,0-2-.75-1.12-1.69-2.83-2.79-3-4.88-.65-1.8,2.64-2.33,4.06-.76,2.05.45,3.84,3,4.19.5.07,1.43-2.08-11.26-4.09a94.59,94.59,0,0,0,8.12-6.49c-.28-2.06,1.24-4.83-1.81-5.86a13.68,13.68,0,0,0-7,0c-1.45.34-2.54,1.9-3.71,3s-3,2.79-2.84,3C468.43,711.68,471,713.69,486.84,716.64ZM286.2,735.8c0,8.25-1.6,13.34.4,17,2.5,4.59,6,8.52,5,14-.11.62,1.95,1.59,3.15,2.18.2.09,1.74-1,1.72-1.49-.14-3.09,1.21-5.31,3.66-7.74,3.82-3.78-5.13-4.44-3.56-8.64,3.34-9-7.14-15.82-6-24.63.06-.47-1.16-1.46-1.78-1.46a2.38,2.38,0,0,0-1.79,1.47C286.55,730.83,286.25,735.2,286.2,735.8Zm301-205.35c0,5.84-.12,11.69.14,17.52,0,.74,2,1.52,3.22,2,.25.11,1.67-.92,1.7-1.46.25-5-1-10.3,5.43-13.46-.65-3.44,2-7.43-1.63-10.29-2.76-2.17-4.16-4.37-3.75-7.57.05-.39-2.18-1.16-3.45-1.41-.39-.07-1.57,1-1.59,1.51C587.11,521.68,587.17,526.06,587.17,530.45ZM293.84,608.72a12.64,12.64,0,0,0,2.54,0,16,16,0,0,0,4.43-1.27c1.37-.74.54-1.73-1.14-3-3.76-2.89-7.08-6.19-10.94-9-1-.71-3.52-.54-4.92,0-2.45.94-3.87,3.25-2.76,5.21C283.55,605.07,286.68,609.32,293.84,608.72ZM601.18,622.6c.71,1.57,1.77,2.81,1.74,4-.13,4.14,3.07,4.67,6.57,4.35,4.67-.41,3.61-3.66,4.21-6.38,1.19-5.4-3.81-7.44-7-10.49a2.08,2.08,0,0,0-1.72-.27c-1.88,1.44-3.54,3.09-5.45,4.5C595.58,621.23,601.16,621.29,601.18,622.6ZM101.39,608.54c0-.73.17-1.57-.2-2.16-1.1-1.81-2.56-2.21-3.65-1.06-2.34,2.44-4.17,3.95-7.64.63-2.21-2.11,1.07-3.48-1.66-1.64-4,2.71-2.25,8.5-7.5,10.72a5.46,5.46,0,0,0,1,1.55,10.82,10.82,0,0,0,2.09,1.08l17.6-6.89ZM827.3,479.22c1.51-1.26,2.74-1.86,2.66-2.3-.54-3.25,1.4-5.27,3.64-7.75,3.23-3.59-5.75-4.63-3.61-8.66.27-.49-.19-1.4-.6-2a3.47,3.47,0,0,0-1.85-1.5c-.47-.09-1.47.67-1.79,1.24-2.49,4.36,1.49,10.63-5.63,13.64ZM196.43,821c0-4.4.14-8.82-.15-13.22,0-.63-2.11-1.32-3.37-1.66-.36-.1-1.67,1-1.68,1.48-.11,7.35-.16,14.7.07,22,0,.61,2.12,1.33,3.38,1.66.36.1,1.64-.93,1.67-1.48C196.53,826.89,196.43,823.94,196.43,821ZM312.6,682.5a66.83,66.83,0,0,0-.16-8.73c-.09-.7-2.08-1.37-3.33-1.72-.37-.1-1.65.89-1.72,1.46-.83,6.16,2.83,13.24-5.33,17.84,1.34.76,2.57,1.88,4,2.18,2.62.54,5.69-.15,6.31-2.32C313.2,688.46,312.6,685.42,312.6,682.5Zm797.22,13.35c-1.65-2.29-5.79-3.14-5.22-6.73.35-2.16-.71-4.56-3.36-3.52-2.82,1.12-5,3.65-7,5.92-.73.86,9.16,6.68,11.71,6.45C1107.36,697.84,1108.59,696.57,1109.82,695.85Zm-249-23.1c-.7-.53-1.26-1.33-1.94-1.41-1.67-.2-3.87-.64-5,0-4.13,2.48-2,8.23-7.16,10.36.66,1,1.07,2.51,2,2.82,1.48.48,4.41.67,4.86,0C856.35,680.78,858.52,676.71,860.85,672.75ZM1004.3,800.67c0-3.67.08-7.34-.08-11,0-.53-1.36-1.56-1.72-1.46-1.24.36-3.3,1.1-3.33,1.74-.25,5.86-.19,11.73-.07,17.59,0,.53,1.36,1.57,1.72,1.46,1.25-.36,3.16-1,3.33-1.76C1004.6,805.11,1004.3,802.86,1004.3,800.67Zm-45-200.89c1.68,0,3.52.35,5-.11,1-.33,2.44-2.38,2.21-2.61a32.93,32.93,0,0,0-7.21-5.9c-.45-.25-3.49,2.61-5.12,4.19a11.74,11.74,0,0,0-1.75,3c1.44.48,2.86,1,4.35,1.41A11.13,11.13,0,0,0,959.31,599.78ZM93.48,215.53c-.89,1.13-2.34,2.18-2.55,3.38-.93,5.2,5,6.78,7.82,10,.88-1.12,2.28-2.15,2.55-3.37C102.5,220.22,96,218.94,93.48,215.53ZM608.29,605.29c.58-3.52-1.36-5.3-5.34-5.57-3.29-.21-4.67,1.27-5.17,3.51-.77,3.48,1.3,5.29,5.29,5.55C606.35,609,607.52,607.49,608.29,605.29ZM85.55,503.68c0-1.44.51-3.09-.15-4.27a6.07,6.07,0,0,0-3.8-2.28,10.24,10.24,0,0,0-4.74.61c-2.47.84-2.35,1.88-.12,3.05,3.24,1.69,4,4.31,3.7,7.42,0,.37,2.21,1.08,3.47,1.29.42.07,1.47-.91,1.56-1.5A25.92,25.92,0,0,0,85.55,503.68Zm15.84,335.09c0-1.44.51-3.09-.15-4.27a6,6,0,0,0-3.8-2.27,10,10,0,0,0-4.74.61c-2.47.83-2.35,1.87-.12,3,3.24,1.69,4,4.31,3.7,7.42,0,.37,2.21,1.09,3.47,1.3.42.06,1.47-.92,1.56-1.5A26,26,0,0,0,101.39,838.77Zm998-43.71c.2,1.36.1,2.81.68,4,.93,2,2,1.7,3.57.49,6.83-5.11,6.92-5.31.18-10.64-.62-.49-1.2-1-1.79-1.51-.88,1.11-2.13,2.14-2.54,3.37S1099.35,793.64,1099.35,795.06ZM803.66,543.94a26,26,0,0,0-.08-4.33c-.1-.58-1-1.17-1.65-1.54-.44-.24-1.56-.29-1.72-.07-2.59,3.37-2.09,8.21-7,10.47,1.35.72,2.65,2,4.07,2.07C802.51,551,803.63,549.67,803.66,543.94Zm10.56,172.15c0-3.48-2.38-5.22-6.5-4.56-2.64.42-4.39,1.59-4.13,4.37.31,3.37,2.44,5.13,6.56,4.47C812.78,720,814.85,718.78,814.22,716.09ZM80.28,483.65l-1.7-3.7A21.42,21.42,0,0,0,75,481.42a33.59,33.59,0,0,0-3.61,3c-.56.49-1.07,1-1.6,1.52,1.34.71,2.61,1.93,4,2.06C78.38,488.4,80,487.14,80.28,483.65Zm15.63,199a18.14,18.14,0,0,0-1.4-1.51c-1.17-1-2.49-2-3.56-3.06-1.83-1.88-3.82-2.43-5.28,0a5,5,0,0,0,0,4.21c1.08,2.43,5.43,3.28,8.45,1.87A9.14,9.14,0,0,0,95.91,682.61ZM291.48,439c0-2.69.34-4.22-.1-5.57s-1.66-2.31-2.54-3.46c-.88,1.15-2.28,2.22-2.53,3.45a17,17,0,0,0,0,6.51c.25,1.23,1.65,2.3,2.53,3.45C289.91,441.62,291,439.84,291.48,439Zm-217-9.38-4.66,2.51c.53.5,1,1,1.6,1.51a33.59,33.59,0,0,0,3.61,3,21.42,21.42,0,0,0,3.56,1.47c.56-1.95,2.12-4.24,1.4-5.74S76.19,430.44,74.47,429.65ZM91,707l-4.41,1.35a13,13,0,0,0,1.55,3,33,33,0,0,0,3.54,3.06L93.47,716c.88-1.12,2.35-2.18,2.53-3.38C96.58,708.71,95.07,707.24,91,707Zm506.73,11.06a25.12,25.12,0,0,0-.08-4.34c-.11-.58-1.33-1.56-1.71-1.46-1.24.33-3.24,1-3.33,1.68a46,46,0,0,0-.08,8.7c0,.54,1.33,1.55,1.7,1.45,1.25-.34,3-.88,3.35-1.71C598.15,721.11,597.73,719.53,597.73,718.07ZM972.62,680.3c0-2.69.34-4.22-.1-5.57s-1.66-2.31-2.54-3.46c-.88,1.15-2.28,2.22-2.52,3.45a17,17,0,0,0,0,6.51c.24,1.23,1.64,2.3,2.52,3.44ZM99,742.92c-.6.4-1.24.75-1.79,1.2-1.22,1-2.31,2.1-3.61,3-2.22,1.55-2.87,3.24,0,4.47a8,8,0,0,0,5,0c2.88-.92,3.88-4.59,2.21-7.15A8.84,8.84,0,0,0,99,742.92Zm733.17-161c2.72,0,3.71.24,4.41,0a38.07,38.07,0,0,0,4.09-2.18c-1.35-.75-2.68-2.07-4.07-2.12a66.37,66.37,0,0,0-9.94.64c-.68.08-1.7,1-1.7,1.48s1,1.35,1.7,1.48C829,581.62,831.5,581.83,832.12,581.91Zm-2.48,9.52,3.06,3.89,1.79-1.52a32,32,0,0,0,3.54-3.07,12.88,12.88,0,0,0,1.54-3c-2.3-.43-5.06-1.72-6.79-1.06S830.53,589.94,829.64,591.43ZM270.38,798.6c-.35-2,1-4.44-1.78-5.89a2.17,2.17,0,0,0-1.75,0c-2.5,2.4-2.5,9.39,0,11.79a2.2,2.2,0,0,0,1.75,0C271.42,803.05,270,800.64,270.38,798.6Zm292.09,1.47c3.79.25,4.55-3.13,7-4.44a10.71,10.71,0,0,0,1.81-1.49c-1.33-.75-2.59-2-4-2.14-5.47-.52-8,2-6.53,6.36C561,799,561.83,799.43,562.47,800.07ZM971.63,645.86c-.62-.47-1.26-1.35-1.85-1.32-2.38.08-5.57-1.11-6.73,1.49-.76,1.71-.3,3.87-.11,5.8a2.32,2.32,0,0,0,1.71,1.44C966.18,653.17,971.84,646.9,971.63,645.86ZM270.38,932.64c-.35-2,1-4.44-1.78-5.9a2.16,2.16,0,0,0-1.75,0c-2.5,2.4-2.5,9.39,0,11.79a2.21,2.21,0,0,0,1.75,0C271.42,937.09,270,934.67,270.38,932.64ZM94.32,643.75c2.39-1,2.29-1.89,0-3.09-1.39-.74-2.31-2.1-3.66-2.94a18.35,18.35,0,0,0-3.54-1.31c-.52,2-1.86,4.08-1.35,5.82C86.51,644.67,91.23,645.24,94.32,643.75Zm603.73,3.44c0-2.31.28-3.15,0-3.74a31.06,31.06,0,0,0-2.59-3.45c-.88,1.14-2.44,2.26-2.5,3.43a40.59,40.59,0,0,0,.76,8.42c.09.57,1.14,1,1.74,1.55.61-.51,1.59-1,1.75-1.55A42.24,42.24,0,0,0,698.05,647.19ZM801.69,832.06c-3.22,1.34-3.72,3.46-3.21,5.58.3,1.23,1.66,2.28,2.54,3.41.88-1.13,2.51-2.28,2.47-3.38C803.42,835.75,802.32,833.86,801.69,832.06Zm-10.4-183.84c2.65-1.31,2.75-5.71.1-7.38a2.3,2.3,0,0,0-1.75-.1c-2.69,1.24-2.77,5.68-.12,7.34C789.92,648.34,790.69,648.19,791.29,648.22Zm336.81,204c-4.41-1.11-6.65-2-8.91-2.09-1.31,0-2.67,1.35-4,2.09,1.33.75,2.69,2.13,4,2.09C1121.45,854.26,1123.69,853.33,1128.1,852.22ZM90.41,877.34l3.06,3.92c.88-1.13,2.59-2.33,2.46-3.37-.25-1.91-1.58-3.71-2.46-5.56Zm179.77-62c-.25-1.91-1.58-3.72-2.46-5.56-.88,1.84-2.22,3.65-2.46,5.56-.14,1,1.58,2.24,2.46,3.37C268.6,817.58,270.31,816.38,270.18,815.34Zm507.49-167-3-3.92c-.88,1.13-2.6,2.34-2.46,3.38.24,1.9,1.58,3.71,2.46,5.56ZM497.39,796.25a37.47,37.47,0,0,0-1.86-3.61,2.39,2.39,0,0,0-1.7.11c-2.65,1.67-2.71,6.59.14,7.24S497.63,798.47,497.39,796.25ZM95.27,659.39c-1.54-2.24-6.75-2.32-8.72-.08a1.44,1.44,0,0,0-.12,1.48c1.46,2.28,6.71,2.34,8.68.11C95.41,660.55,95.23,659.9,95.27,659.39Zm887.92,118L980.54,774c-.88,1.13-2.59,2.34-2.46,3.38.25,1.9,1.58,3.71,2.46,5.56Q981.86,780.2,983.19,777.42ZM453.2,774c-3.22,1.35-3.72,3.46-3.21,5.59.3,1.23,1.65,2.28,2.53,3.41.88-1.13,2.51-2.28,2.48-3.39C454.93,777.67,453.83,775.78,453.2,774ZM717.37,608c2.65-1.31,2.75-5.71.1-7.38a2.31,2.31,0,0,0-1.75-.1c-2.69,1.24-2.77,5.68-.13,7.34C716,608.13,716.77,608,717.37,608Zm132-25.39c-.61,0-1.37-.12-1.78.14-2.65,1.66-2.57,6.11.12,7.35a2.33,2.33,0,0,0,1.76-.11C852.12,588.34,852,583.93,849.38,582.62ZM786,590.14c2.65-1.31,2.75-5.71.1-7.38a2.26,2.26,0,0,0-1.75-.1c-2.69,1.24-2.77,5.68-.12,7.34C784.64,590.26,785.41,590.1,786,590.14ZM603,586.5c.23-2.22-.45-4.41-3.42-3.74s-2.8,5.58-.15,7.24a2.36,2.36,0,0,0,1.71.11A38.6,38.6,0,0,0,603,586.5Zm-311.38-.13c1.4-.49,2.89-1,4.26-1.57.22-.1.18-1.1-.12-1.45-2-2.24-7.79-2.29-8.56.13S289,586.57,291.62,586.37Zm812.83,166.42c-.25-1.91-1.58-3.72-2.46-5.56-.88,1.84-2.22,3.65-2.46,5.56-.14,1,1.58,2.24,2.46,3.37C1102.87,755,1104.58,753.83,1104.45,752.79Zm-802.27-86c1.4-.49,2.89-.95,4.26-1.57.22-.1.18-1.1-.12-1.45-2-2.23-7.79-2.29-8.56.13S299.56,667,302.18,666.79Zm177.58-97.57c-.6,0-1.37-.12-1.77.14-2.65,1.66-2.57,6.1.12,7.34a2.31,2.31,0,0,0,1.75-.1C482.51,574.93,482.41,570.53,479.76,569.22ZM617.05,676.45c-.6,0-1.37-.12-1.78.14-2.65,1.66-2.57,6.1.12,7.34a2.33,2.33,0,0,0,1.76-.1C619.79,682.16,619.69,677.76,617.05,676.45ZM834.5,565.57c-1.55-2.24-6.75-2.33-8.72-.09a1.46,1.46,0,0,0-.12,1.49c1.46,2.27,6.71,2.34,8.68.1C834.64,566.72,834.46,566.08,834.5,565.57Zm248.17-253.26c0-.5.14-1.15-.16-1.5-2-2.24-7.22-2.17-8.69.11a1.46,1.46,0,0,0,.13,1.48C1075.91,314.64,1081.12,314.55,1082.67,312.31Zm-273.59,359c-2.62-.2-5.21.38-4.42,2.9s6.59,2.36,8.56.12c.3-.35.34-1.35.12-1.45C812,672.23,810.48,671.77,809.08,671.28Zm68.49,4.34a38.6,38.6,0,0,0-1.86-3.61,2.36,2.36,0,0,0-1.71.11c-2.65,1.66-2.71,6.59.15,7.24S877.8,677.84,877.57,675.62ZM178.63,720.36c-3.22,1.34-3.72,3.46-3.21,5.59.3,1.23,1.65,2.27,2.53,3.4.88-1.13,2.51-2.27,2.48-3.38C180.36,724.05,179.26,722.16,178.63,720.36Zm509.1-171.12c-.73,2.64.3,4.43,2.4,5.87.88-1.85,2.22-3.66,2.46-5.57.14-1-1.58-2.24-2.46-3.37Zm390.74,156.38c-.74,2.63.29,4.43,2.4,5.86.88-1.85,2.21-3.65,2.46-5.56.13-1-1.58-2.24-2.46-3.37C1080,703.68,1079.1,704.8,1078.47,705.62ZM284.39,545.46c2.65-1.31,2.75-5.71.11-7.38a2.33,2.33,0,0,0-1.76-.1c-2.69,1.24-2.77,5.68-.12,7.34C283,545.58,283.79,545.43,284.39,545.46ZM866.84,703.64c-.25-1.91-1.58-3.71-2.46-5.56-.88,1.85-2.21,3.65-2.46,5.56-.13,1,1.58,2.24,2.46,3.37C865.26,705.89,867,704.68,866.84,703.64ZM154.18,430.12c.23-2.21-.45-4.4-3.42-3.73s-2.79,5.57-.15,7.23c.41.26,1.6.3,1.71.11A35.27,35.27,0,0,0,154.18,430.12Zm622.66,8.27c.9,1.49,2,3.25,3.06,5,.88-1.85,2.21-3.66,2.45-5.56.14-1-1.57-2.25-2.45-3.38C779,435.6,778.13,436.73,776.84,438.39Zm338.77,94.93-3.06-5c-.88,1.85-2.21,3.65-2.46,5.56-.13,1,1.58,2.24,2.46,3.37ZM780.73,453.05c-.6,0-1.37-.11-1.77.14-2.65,1.67-2.57,6.11.12,7.35a2.3,2.3,0,0,0,1.75-.11C783.48,458.77,783.38,454.36,780.73,453.05ZM423.9,465.2l-3.06-3.92c-.88,1.13-2.59,2.34-2.46,3.37.25,1.91,1.58,3.72,2.46,5.57Zm362,5c-3.22,1.34-3.72,3.46-3.21,5.58.3,1.23,1.66,2.28,2.54,3.41.88-1.13,2.51-2.28,2.47-3.38C787.58,473.85,786.48,472,785.85,470.16Zm318.92,4.53c-2.62-.19-5.21.38-4.42,2.9s6.59,2.36,8.56.12c.3-.34.34-1.35.12-1.44C1107.66,475.64,1106.17,475.19,1104.77,474.69ZM502.67,689.26c.24-2.22-.45-4.41-3.42-3.73s-2.79,5.57-.14,7.23a2.34,2.34,0,0,0,1.7.11A35.27,35.27,0,0,0,502.67,689.26ZM788.24,509.88,785.18,506c-.88,1.13-2.6,2.34-2.46,3.37.24,1.91,1.58,3.72,2.46,5.56Zm55,.55c-.59.49-1.75,1.1-1.65,1.47a12.63,12.63,0,0,0,1.65,3c.59-.49,1.75-1.1,1.65-1.46A12.85,12.85,0,0,0,843.26,510.43Zm-705.67,2.88c-.61-.94-1.24-1.91-1.88-2.88-.58.49-1.75,1.1-1.65,1.47a13.38,13.38,0,0,0,1.65,3Zm961.76-5.12c-.59-.49-1.3-1.48-1.74-1.39a18.07,18.07,0,0,0-3.54,1.39c.58.5,1.3,1.48,1.73,1.4A17.58,17.58,0,0,0,1099.35,508.19Zm-507.66-.64L589.81,506a12.68,12.68,0,0,0-1.65,3c-.1.37,1.06,1,1.65,1.47Zm247-6.7,1.88-1.59a17.58,17.58,0,0,0-3.55-1.4c-.43-.08-1.15.9-1.73,1.4Zm-679.27-1.59c-.59-.5-1.3-1.48-1.73-1.4a17.58,17.58,0,0,0-3.55,1.4c.59.49,1.3,1.48,1.74,1.39A18.07,18.07,0,0,0,159.47,499.26Zm-75.8,23.93,1.88-1.59A17.36,17.36,0,0,0,82,520.2c-.43-.08-1.14.9-1.73,1.4Zm1022.84-35.75,3.4-1.59c-.59-.49-1.3-1.48-1.74-1.39a18.07,18.07,0,0,0-3.54,1.39C1105.21,486.35,1105.8,486.85,1106.51,487.44ZM288.08,479.8c-.71.59-1.3,1.09-1.88,1.59a18.07,18.07,0,0,0,3.54,1.39c.44.08,1.15-.9,1.74-1.39ZM71.59,527.65l3.4-1.59c-.59-.49-1.3-1.47-1.74-1.39a18.07,18.07,0,0,0-3.54,1.39Zm577.06,0c.71-.59,1.29-1.09,1.88-1.59a18.07,18.07,0,0,0-3.54-1.39c-.44-.08-1.15.9-1.74,1.39Zm38.08-50.09c-.61-.93-1.24-1.91-1.88-2.88-.58.5-1.75,1.1-1.65,1.47a13.44,13.44,0,0,0,1.65,3ZM470.24,531.18c-.61-.94-1.24-1.91-1.88-2.88-.58.49-1.74,1.1-1.65,1.47a13.66,13.66,0,0,0,1.65,3ZM158.71,449.47l-1.88-1.59a13.23,13.23,0,0,0-1.65,3c-.1.36,1.07,1,1.65,1.46Zm-79.2,0-1.88-1.59a12.85,12.85,0,0,0-1.65,3c-.1.36,1.06,1,1.65,1.46Zm922.15-6.06c-.58.49-1.74,1.1-1.65,1.47a13.66,13.66,0,0,0,1.65,3c.59-.5,1.75-1.1,1.66-1.47A13.1,13.1,0,0,0,1001.66,443.41Zm-353.77,0c-.59.49-1.75,1.1-1.65,1.47a13.26,13.26,0,0,0,1.65,3c.59-.5,1.75-1.1,1.65-1.47A13.05,13.05,0,0,0,647.89,443.41Zm-68.64,0c-.59.49-1.75,1.1-1.65,1.47a12.88,12.88,0,0,0,1.65,3c.58-.5,1.75-1.1,1.65-1.47A13.05,13.05,0,0,0,579.25,443.41Zm468.06-10.53,1.88,1.59a13.44,13.44,0,0,0,1.65-3c.09-.36-1.07-1-1.65-1.47ZM929.62,535.64l-1.88-2.87c-.59.49-1.75,1.1-1.65,1.46a12.85,12.85,0,0,0,1.65,3Zm-26.4-116.16-1.88-2.88c-.59.5-1.75,1.1-1.65,1.47a13.05,13.05,0,0,0,1.65,3Zm-125.2,0,1.88,1.59a13.44,13.44,0,0,0,1.65-3c.09-.37-1.07-1-1.65-1.47C779.26,417.57,778.63,418.54,778,419.48ZM74.23,413.72c-.71-.59-1.29-1.09-1.88-1.59a13.26,13.26,0,0,0-1.65,3c-.1.37,1.06,1,1.65,1.47ZM1088,404.79l-1.88-1.59a12.68,12.68,0,0,0-1.65,3c-.1.36,1.06,1,1.65,1.47C1086.78,406.69,1087.41,405.72,1088,404.79Zm-36.21.64c-.58-.5-1.3-1.48-1.73-1.4a18.11,18.11,0,0,0-3.54,1.4c.58.5,1.3,1.48,1.73,1.4A18.11,18.11,0,0,0,1051.82,405.43Zm-229.68-6.7c-.59.5-1.75,1.1-1.65,1.47a12.88,12.88,0,0,0,1.65,3c.58-.5,1.75-1.1,1.65-1.47A13.44,13.44,0,0,0,822.14,398.73Zm-540.46,2.88,1.88,1.59a13.66,13.66,0,0,0,1.65-3c.09-.37-1.07-1-1.65-1.47C282.92,399.7,282.29,400.67,281.68,401.61ZM706,537.23c-.58.5-1.74,1.11-1.65,1.47a13.44,13.44,0,0,0,1.65,3c.59-.49,1.75-1.1,1.65-1.47A12.88,12.88,0,0,0,706,537.23ZM147,386l-3.4,1.59c.59.5,1.3,1.48,1.74,1.4a18.11,18.11,0,0,0,3.54-1.4Zm-53.56-.64c-.59.49-1.75,1.1-1.65,1.46a12.85,12.85,0,0,0,1.65,3c.59-.49,1.75-1.1,1.65-1.46A12.85,12.85,0,0,0,93.47,385.33ZM69,369c-.71-.59-1.29-1.09-1.88-1.59a12.88,12.88,0,0,0-1.65,3c-.1.37,1.06,1,1.65,1.47Zm1018-5.41-3.4,1.59c.58.5,1.3,1.48,1.73,1.4a18.44,18.44,0,0,0,3.55-1.4Zm-37,0-3.4,1.59c.58.5,1.3,1.48,1.73,1.4a18.44,18.44,0,0,0,3.55-1.4ZM70.47,351.17l1.88,2.88c.59-.5,1.75-1.1,1.65-1.47a13.26,13.26,0,0,0-1.65-3Zm73.92-7.64,1.88,1.58a12.63,12.63,0,0,0,1.65-3c.1-.37-1.06-1-1.65-1.47Zm-70.16-5.76-1.88-1.59a13.05,13.05,0,0,0-1.65,3c-.1.37,1.06,1,1.65,1.47Zm559.7-3.18-1.88-2.88c-.59.5-1.75,1.1-1.65,1.47a13.05,13.05,0,0,0,1.65,3ZM285.44,553.52l-1.88-2.88c-.59.49-1.75,1.1-1.65,1.47a12.88,12.88,0,0,0,1.65,3ZM74.23,319.9l-1.88-1.59a13.05,13.05,0,0,0-1.65,3c-.1.36,1.06,1,1.65,1.47C73,321.8,73.62,320.83,74.23,319.9ZM802.89,558,801,555.11c-.59.49-1.75,1.1-1.66,1.46a12.89,12.89,0,0,0,1.66,3ZM279,314.48l-3.4,1.59c.58.5,1.3,1.48,1.73,1.4a17.82,17.82,0,0,0,3.55-1.4Zm757.71-16.92,1.88,2.88c.58-.5,1.74-1.11,1.65-1.47a13.44,13.44,0,0,0-1.65-3ZM142.87,279.68,141,278.1a13.23,13.23,0,0,0-1.65,3c-.1.36,1.07,1,1.65,1.46ZM602.25,571.39l-1.88-2.88c-.59.5-1.75,1.1-1.65,1.47a12.88,12.88,0,0,0,1.65,3C601,572.48,601.54,572,602.25,571.39Zm204-2.88c-.59.5-1.75,1.1-1.65,1.47a12.88,12.88,0,0,0,1.65,3c.58-.5,1.74-1.1,1.65-1.47A13.44,13.44,0,0,0,806.3,568.51Zm194.6,9.58L999,579.68a18.44,18.44,0,0,0,3.55,1.4c.43.08,1.15-.9,1.73-1.4Zm95.81-.65c-.59.5-1.75,1.1-1.65,1.47a12.49,12.49,0,0,0,1.65,3c.58-.49,1.74-1.1,1.65-1.47A13.26,13.26,0,0,0,1096.71,577.44Zm-65.24-351.37,1.87,2.88c.59-.5,1.75-1.1,1.66-1.47a13.1,13.1,0,0,0-1.66-3ZM82.15,587l-1.88,1.58a17.5,17.5,0,0,0,3.54,1.4c.44.08,1.15-.9,1.74-1.4ZM855.7,602.66c-.61-.93-1.25-1.9-1.88-2.88-.59.5-1.75,1.11-1.65,1.47a12.68,12.68,0,0,0,1.65,3Zm-153.13,4.47c-.61-.94-1.24-1.91-1.88-2.88-.58.5-1.74,1.1-1.65,1.47a13.44,13.44,0,0,0,1.65,3Zm-419,6.06c-.59.49-1.75,1.1-1.65,1.47a12.88,12.88,0,0,0,1.65,3c.58-.5,1.74-1.1,1.65-1.47A13.44,13.44,0,0,0,283.56,613.19Zm560.46.64-3.4,1.59c.58.5,1.3,1.48,1.73,1.4a17.58,17.58,0,0,0,3.55-1.4Zm-546.5,6.7,1.88,1.59a13.23,13.23,0,0,0,1.65-3c.1-.36-1.07-1-1.65-1.46Zm732.42,388.71c-.61-.94-1.24-1.91-1.88-2.88-.58.5-1.74,1.1-1.65,1.47a13.1,13.1,0,0,0,1.66,3ZM89,630.41l1.88-1.58a17.5,17.5,0,0,0-3.54-1.4c-.44-.08-1.15.9-1.74,1.4Zm66,352,1.88,1.59a12.49,12.49,0,0,0,1.65-3c.1-.36-1.06-1-1.65-1.46C156.2,980.53,155.57,981.5,155,982.43Zm264-353,1.88,1.59a12.68,12.68,0,0,0,1.65-3c.1-.37-1.06-1-1.65-1.47Zm703.39-2.23c-.71.59-1.3,1.09-1.88,1.59a18.07,18.07,0,0,0,3.54,1.39c.44.08,1.15-.9,1.74-1.39Zm-689.07,6.7c-.61-.94-1.24-1.91-1.88-2.88-.58.5-1.75,1.1-1.65,1.47a13.66,13.66,0,0,0,1.65,3Zm290.41,0c-.61-.94-1.24-1.91-1.88-2.88-.58.5-1.74,1.1-1.65,1.47a13.66,13.66,0,0,0,1.65,3Zm116.17,0L838,631.06c-.59.5-1.75,1.1-1.65,1.47a12.88,12.88,0,0,0,1.65,3C838.56,635,839.15,634.53,839.86,633.94Zm-565,272.54L273,903.6c-.59.5-1.75,1.1-1.65,1.47a12.68,12.68,0,0,0,1.65,3ZM246.6,894.67c-.59.49-1.75,1.1-1.65,1.46a12.49,12.49,0,0,0,1.65,3c.58-.49,1.74-1.1,1.65-1.47A13.38,13.38,0,0,0,246.6,894.67Zm-95,0c-.59.49-1.75,1.1-1.65,1.46a13.23,13.23,0,0,0,1.65,3c.59-.49,1.75-1.1,1.65-1.47A12.63,12.63,0,0,0,151.55,894.67Zm512.18-17.88c-.59.5-1.75,1.11-1.65,1.47a13.05,13.05,0,0,0,1.65,3c.59-.49,1.75-1.1,1.65-1.47A12.88,12.88,0,0,0,663.73,876.79ZM610.17,639.35l3.4-1.59c-.59-.49-1.3-1.48-1.74-1.4a18.75,18.75,0,0,0-3.54,1.4Zm493.7-1c-.62-.93-1.25-1.9-1.88-2.87-.59.49-1.75,1.1-1.65,1.47a12.63,12.63,0,0,0,1.65,3Zm-792,218.93c-.62-.93-1.25-1.9-1.88-2.88-.59.5-1.75,1.11-1.65,1.47a12.68,12.68,0,0,0,1.65,3Zm359.81-5.11c-.58-.5-1.3-1.48-1.73-1.4a18,18,0,0,0-3.55,1.4c.59.5,1.3,1.48,1.74,1.4A18.11,18.11,0,0,0,671.65,852.22Zm-387.33,1.59,1.88-1.59a18.19,18.19,0,0,0-3.55-1.4c-.43-.08-1.15.9-1.73,1.4ZM826.65,640.64l-1.87,1.59a18.11,18.11,0,0,0,3.54,1.4c.44.08,1.15-.9,1.74-1.4Zm47.53,187.65-1.88,1.59a18.11,18.11,0,0,0,3.54,1.4c.44.08,1.15-.9,1.74-1.4Zm-601.95-4.47-1.87,1.59a17.5,17.5,0,0,0,3.54,1.4c.44.08,1.15-.9,1.74-1.4Zm847.48-3.52-1.88-1.59a12.68,12.68,0,0,0-1.65,3c-.1.37,1.06,1,1.65,1.47Zm-116.17,0-1.88-1.59a13.44,13.44,0,0,0-1.65,3c-.09.37,1.07,1,1.65,1.47C1002.3,822.21,1002.93,821.24,1003.54,820.3Zm-22.23-5.41-3.41,1.59c.59.49,1.3,1.48,1.74,1.39a18.07,18.07,0,0,0,3.54-1.39ZM603,807.54c-.59-.49-1.3-1.48-1.74-1.4a18.75,18.75,0,0,0-3.54,1.4c.59.5,1.3,1.48,1.73,1.4A18,18,0,0,0,603,807.54Zm495.58-160.2c-.62-.93-1.25-1.91-1.88-2.88-.59.5-1.75,1.1-1.65,1.47a12.68,12.68,0,0,0,1.65,3ZM292.24,802.43c.61.94,1.24,1.91,1.88,2.88.58-.5,1.75-1.1,1.65-1.47a13.44,13.44,0,0,0-1.65-3Zm-51.69-.95-1.87,1.59a17.5,17.5,0,0,0,3.54,1.4c.43.08,1.15-.9,1.74-1.4Zm-147.84,0-1.88,1.59a17.5,17.5,0,0,0,3.54,1.4c.44.08,1.15-.9,1.74-1.4Zm713.59-5.11c-.59.5-1.75,1.1-1.65,1.47a12.68,12.68,0,0,0,1.65,3c.58-.5,1.74-1.1,1.65-1.47A13.44,13.44,0,0,0,806.3,796.37ZM669.77,797l-3.4,1.59c.59.49,1.3,1.47,1.74,1.39a18.07,18.07,0,0,0,3.54-1.39Zm-242.89,0-3.4,1.59c.59.49,1.3,1.47,1.74,1.39a18.07,18.07,0,0,0,3.54-1.39C428.18,798.11,427.59,797.61,426.88,797Zm-238.37-.65c-.58.5-1.74,1.1-1.65,1.47a13.44,13.44,0,0,0,1.65,3c.59-.5,1.75-1.1,1.65-1.47A12.68,12.68,0,0,0,188.51,796.37Zm359.06-143c-.59.5-1.75,1.1-1.65,1.47a12.88,12.88,0,0,0,1.65,3c.58-.5,1.74-1.1,1.65-1.47A13.44,13.44,0,0,0,547.57,653.4ZM1088,784.56l-1.88-1.59a12.68,12.68,0,0,0-1.65,3c-.1.37,1.06,1,1.65,1.47C1086.78,786.47,1087.41,785.49,1088,784.56Zm-992.68,0L93.47,783a13.05,13.05,0,0,0-1.65,3c-.1.37,1.06,1,1.65,1.47Zm558.58-126-3.4,1.59c.59.5,1.3,1.48,1.74,1.4a18.11,18.11,0,0,0,3.54-1.4ZM418.2,776.27c-.58-.5-1.3-1.48-1.73-1.4a17.58,17.58,0,0,0-3.55,1.4c.59.49,1.3,1.48,1.74,1.39A18.07,18.07,0,0,0,418.2,776.27ZM824.78,660.1c-.59-.5-1.3-1.48-1.74-1.4a18.11,18.11,0,0,0-3.54,1.4c.58.5,1.3,1.48,1.73,1.4A18.44,18.44,0,0,0,824.78,660.1ZM462.32,773.39l3.4-1.59c-.58-.5-1.3-1.48-1.73-1.4a18.44,18.44,0,0,0-3.55,1.4ZM395.2,756.81l-3.4,1.58c.59.5,1.3,1.48,1.74,1.4a17.5,17.5,0,0,0,3.54-1.4ZM317.12,759l-1.88-2.88c-.59.5-1.75,1.1-1.65,1.47a12.68,12.68,0,0,0,1.65,3ZM179.83,750.1,178,747.23c-.58.49-1.74,1.1-1.65,1.46a13.23,13.23,0,0,0,1.65,3Zm-15.84,0-1.88-2.87c-.58.49-1.75,1.1-1.65,1.46a13.23,13.23,0,0,0,1.65,3Zm517.46-8.93c-.61-.94-1.24-1.91-1.88-2.88-.59.5-1.75,1.1-1.65,1.47a13.66,13.66,0,0,0,1.65,3Zm-271.17-2.88c-.59.5-1.75,1.1-1.65,1.47a13.66,13.66,0,0,0,1.65,3c.59-.5,1.75-1.1,1.65-1.47A12.68,12.68,0,0,0,410.28,738.29ZM597,665.21l-1.88-2.87c-.59.49-1.75,1.1-1.65,1.46a12.49,12.49,0,0,0,1.65,3Zm89.76,67c-.61-.93-1.24-1.91-1.88-2.88-.58.5-1.75,1.1-1.65,1.47a13.44,13.44,0,0,0,1.65,3Zm-10.56,0c-.61-.93-1.24-1.91-1.88-2.88-.59.5-1.75,1.1-1.65,1.47a13.44,13.44,0,0,0,1.65,3Zm-107.48-2.88c-.59.5-1.75,1.1-1.65,1.47a12.68,12.68,0,0,0,1.65,3c.58-.49,1.75-1.1,1.65-1.47A13.26,13.26,0,0,0,568.69,729.35ZM153.43,723.3c-.61-.94-1.24-1.91-1.88-2.88-.58.49-1.75,1.1-1.65,1.47a13.66,13.66,0,0,0,1.65,3Zm15.84-8.94c-.61-.94-1.24-1.91-1.88-2.88-.58.5-1.74,1.1-1.65,1.47a13.44,13.44,0,0,0,1.65,3Zm681.15-8.94-1.88-2.87c-.59.49-1.75,1.1-1.65,1.46a12.49,12.49,0,0,0,1.65,3Zm27.92-5.75,1.88,2.88c.59-.5,1.75-1.1,1.65-1.47a13.05,13.05,0,0,0-1.65-3ZM602.25,701l-1.88-2.88c-.59.49-1.75,1.1-1.65,1.47a13.26,13.26,0,0,0,1.65,3Zm-15.84-4.47-1.88-2.88c-.59.5-1.75,1.1-1.65,1.47a12.68,12.68,0,0,0,1.65,3ZM1088,692l-1.88-2.88c-.59.5-1.75,1.1-1.65,1.47a12.68,12.68,0,0,0,1.65,3Zm-117.28-2.23-3.41,1.59c.59.49,1.3,1.48,1.74,1.39a18.07,18.07,0,0,0,3.54-1.39ZM499.28,679.56l3.41-1.59c-.59-.49-1.31-1.48-1.74-1.39A18.4,18.4,0,0,0,497.4,678Zm-251.92,5.76-3.4,1.59c.58.5,1.3,1.48,1.73,1.4a19.11,19.11,0,0,0,3.55-1.4ZM105.91,681.8,104,680.21a12.85,12.85,0,0,0-1.65,3c-.1.36,1.06,1,1.65,1.46Z"/></svg>