<svg id="Layer_1" data-name="Layer 1" xmlns="http://www.w3.org/2000/svg" viewBox="0 0 1200 1200"><title>BB_Artboard 73</title><path d="M1007.31,153.94c.65,5.74,4.58,12-3.34,17.1-5.1,3.26-1.7,8.18-1.87,12.37,9.31,4,8.43,10.94,6.49,16.43-2.86,8.08,7,12.46,7.77,19.12.66,6,.93,12.12,1.38,18.18,10.32,6.23,2.48,19.62,18.16,23.9,1.44.4,2.39,2.86,2.51,4.41.57,6.76-2.34,14.16,7.48,19,0,7.08,1,14.26-.3,21.2s10.68,9.14,8.09,16.49c-2.06,5.82-.42,12.31-.42,18.5,10.14,7.91,7.69,17.75,7.13,27-.49,8,11.29,12.87,8.09,21.78-2.39,6.64-.47,14.07-.47,21.15,13.48,10.45,6.91,23.31,6.72,35-.13,8.31,10.25,13.28,8.39,21.74-1.7,7.75-.29,15.86-.25,23.81,13,7.53,5.53,17.94,7.17,27s-4,19.19,7.29,27.11c1.23.86-.09,3.44.21,5.18,2.12,12.57-5.46,26.08,7.17,37.71,1.19,1.09-.06,3.46.19,5.21,2.08,14.34-5.44,29.33,6.93,43.12,2.8,3.12-.16,8.7.53,13.07,1.45,9.13-5.6,19.38,6.82,27.21,1.25.79.23,3.37.45,5.1,1.19,9.48-4.57,20.12,2.84,28.25,8.58,9.43,1.6,18.85,4.67,27.92.77,2.29,3.72,4.17,5.16,6.4,3.15,4.88,3.66,9.57-1.08,14.39-9.09,9.26-12.3,19.51-11.89,31,.91,25.64-.15,51.32.59,77,.18,6.38-3.69,11-9.82,12.79-8.53,2.45-13.42,4.22-12.94,12,1.07,17.66,1.42,35.43-.14,53-.74,8.4,10.06,13.29,8.22,21.76-1.68,7.74-.23,15.84-.16,23.78,12.79,7.59,6.7,17.95,6.9,27.06.68,30.07.3,60.16.23,90.24,0,5.81-7.2,11.57-14.72,12.65-8.23,1.19-14.42-1-18.76-5.74a11.61,11.61,0,0,1-3.2-7c-.35-9.72-.1-19.46-.17-29.19,0-4.6-3-6.58-8.63-5.93-4,.46-6.59,1.83-6.11,5.12a10.68,10.68,0,0,1,0,2.65c-.84,7.34-.83,7.47-9.27,8.1-4.64.34-12.66-.59-12.2,2.93.83,6.27-8.64,8.11-8.17,13.77.66,7.94.29,15.92.13,23.88-.13,6.92-8.4,12.67-18.49,12.46-6.91-.14-14.59,2-20.22-3.56-1.5-1.49-6.5-1.56-9.91-1.59-17.19-.15-34.39-.13-51.59,0-9.82,0-17.47,5.8-17.68,13.13-.13,4.42-.15,8.85,0,13.27.2,5.37-6.31,7.39-10.59,10-3.92,2.36-8.47.18-12.51-2.3-3.3-2-8.86-2.08-12.24-4.05-4.45-2.6-9.71-5.1-9.08-10.52.69-6,.15-12,.15-17.23-2.61-1.33-3.55-2.24-4.51-2.24-12.28-.1-24.57,0-36.85-.08-9.46-.06-9.6-.11-19.68,9.51-9.89,9.45-25.26,9.27-32.52-.45-4.18-5.61-5.83-9.51-16.68-9.3-34.37.68-68.79.14-103.18.34-8.11,0-12.9,6.9-22.83,5.51-9.47-1.33-19.58-.29-29.4-.29H548c-8.6,0-17.29.59-25.78-.12-16.24-1.37-33.56,4.13-48.93-4.86-3.69-2.17-11.92-.33-18.06-.33-47.91,0-95.83-.18-143.74.16-9.2.07-12.22-4.93-17.36-8.25-1.22-.79-1.22-4,0-5a116.74,116.74,0,0,1,15.58-11.25c2.43-1.43,7.05-2.63,9.65-1.94,10.15,2.69,12.95-8.57,22.85-5.88.35.09,3.2-2.68,3.17-4.09-.14-5.14,1.19-11.26-2.19-15.12s-5.59-7.45-4.95-11.87c.46-3.14-1.59-5.43-5.35-5.59-9.79-.4-19.65-.05-29.47-.17a141,141,0,0,1-14.27-.82c-9.89-1.12-9.93-1.23-9.93,4q0,41.14,0,82.28c0,3.54,1.39,7.49-.35,10.51-2.18,3.78-6.07,8.5-10.76,9.71-6.53,1.68-14.52.7-21.83.34-1.42-.07-3.71-2.5-3.75-3.87-.3-11.49.41-23-.38-34.49-.51-7.44,4-15.59-6-22.2-2.54-1.67-1.07-6.65-1.1-10.11-.09-12.39-1-24.83.29-37.14.92-8.92-3.75-14.86-12.36-20.42-2.1-1.35-3.55-6-2.35-6.81,12.29-7.94,5.76-17.93,6.36-27.08,0-.6-1.49-1.49-2.54-1.78-.59-.16-2.41.6-2.45,1-.91,9.67-9.87,10-20,9.15a18.1,18.1,0,0,0-3.68,0c-4.59.54-7.33-1.4-7.37-4.13-.28-17.69-.2-35.39-.11-53.08,0-5.26.87-10.49-6.52-14.1-1.27-.61-1.76-4.08-.71-4.8,11.37-7.91,5-18.1,7.49-27.09,1.77-6.4-8-8.35-7.73-13.77.25-4.4,2.45-10.6-.63-12.83-5.52-4-5.86-9.13-9.74-13.28-4.45-4.75-9.31-9.74-11.25-15.14-1.75-4.9-1.41-9.48-6.48-14.21-3.6-3.37-2.3-10.29-.93-15.31,1-3.78,7.64-5.82,7.26-11.14-.89-12.35-.28-24.76-.28-37.14-14.18-8.38-6.68-19.83-6.64-29.65,0-6.94-8-10.39-8.09-16.38-.08-6.2,0-12.39,0-18.58V700c-12.37-11.53-5.27-25-7.54-37.6-1.79-9.94-9.19-19-7.55-29.69,1.6-10.49,2.22-21.44-.25-31.75-1.93-8.1-8.57-15.41-7-24.44,1.32-7.85.28-15.9.28-23.86,0-8.85-1.38-17.84.37-26.5,1.87-9.24-11.17-14.72-8.33-24.47,2.71-9.33.58-19.38.58-29.11,0-8.85.35-17.71-.12-26.54-.31-5.83-9.53-9.31-7.64-16.44,1.82-6.82.39-14.1.39-21.18V389.88c0-6.19.8-12.45-.17-18.56-1.85-11.7,5.71-24.17-6.75-35.23-3-2.67-.45-8.59-.45-13q0-73,0-146c0-6.94-.38-7.13-10.46-7.27-4.91-.06-9.83,0-14.74,0-4.72,0-10.46.85-11.43-3.82-.69-3.31-1.1-7.68,1.28-10.07,4-4,8.48-7.7,17.62-7.7,11.48,0,17.66-5.58,17.73-12.77.09-9.73.43-19.47-.13-29.19-.33-5.61.86-10.33,7.52-13.73-1.92-8.51,6.21-8.07,13.62-7.59,8,.51,15.62,6.39,15.83,11.74.18,4.42,1.57,9.21-.28,13.19-3.74,8.07,7.37,12.3,7.89,19.11.1,1.27,3,3.62,4.22,3.48,11.49-1.38,24.41,4.33,34.74-3.81,1.84-1.45,6.7-.89,10.15-1.33,8.93-1.13,8.93-1.15,9.67-7.86.84-7.59,1.22-8,9.4-8,9.82-.07,19.7.44,29.47-.14,10.33-.61,21.66,2.88,30.81-4.41,2.28-1.82,9.24-.73,14.06-.75,17.2-.06,34.43.47,51.58-.19,12.7-.49,26.91,4.1,37.8-4.82,1.1-.9,4.66-.28,7.08-.31s4.91,0,7.37,0c13.51,0,27.08.52,40.52-.16,11.47-.58,24.76,3.92,33.82-5.15,13.51,0,27.28,1.12,40.46-.4,8.76-1,16-6.18,26.56-5.15,10.85,1.07,22.07.24,33.12.24,9.83,0,19.67-.22,29.49,0,13.14.36,23.07-8.07,37.6-5.74,11.71,1.88,24.62-.5,36.7.63,11.62,1.1,20.26-3.43,30.13-5.63,4.09-.91,7.7-11.2,4.84-13.42a11.46,11.46,0,0,0-5.92-2.33c-8.58-.25-18.64,1.9-25.41-.63-7.7-2.89-14.3-5.35-23.14-4.88a168.76,168.76,0,0,1-25.74-.13c-5.37-.55-10.09-3.89-15.49-4.9-4.6-.86-9.77-.32-14.67-.14-4.56.16-6.89-1.56-7-4.45-.29-6.91-.09-13.82-.09-20.11,8.54-3.27,15.92-1.51,23-2,6.26-.45,11.61.21,16.28,4,1.77,1.45,6.67.93,10.15,1.27,10.52,1,21.77-2.42,31.64,2.66s22.77-.39,31.2,3.2A57.53,57.53,0,0,0,728,42.31c7.83-.41,10.34,7,19.13,5.63,7-1.09,14.68-.22,22-.22s15.19,1.15,22-.24c14.29-2.89,23.25,8,37.69,5.93,13-1.82,27-.91,40.41-.18,7.81.42,13.2,6.75,22.83,5.31,7.07-1,14.68-.2,22-.2,8.6,0,17.22.25,25.8-.07,9.77-.37,15,8.25,26.57,5.71,7.87-1.74,17.06-.33,25.66-.33,9.83,0,19.66-.11,29.49,0,9.07.12,16,5.25,16.57,13.75.39,5.57,2.56,7.93,10.5,7.56,3.35-.16,8.62,0,9.88,1.49,4.39,5.07,13.73,2.42,18.37,7.24,3.52,3.66,8.45,10.91,5.53,14.16-3.74,4.18-7.52,9.16-16.22,8.83-8.16-.31-17.4,2.07-23.15-4.59-12.15-.23-24.3-.58-36.46-.66-10.76-.07-12.27.77-12.42,5.84-.23,7.69,6.41,14.5,14.63,15.4,7,.77,15.65-2.71,20.75,2,4.43,4.05,11.81,1.72,15.49,5.46,3.3,3.35,8.19,2.69,12.91,3.3,13.35,1.71,17.9,6.44,17.42,16-.17,3.26-2.21,4.93-6.21,5.06-7.36.23-14.78.37-22.09-.08-3.19-.19-7.51-1.32-9.07-3.06-7.21-8.08-18.06-7.7-30.81-7.37,1.72.78,3-.07,1.66-2.5a3.94,3.94,0,0,0-2.22-1.76,18.11,18.11,0,0,0-6.21-1c-2,.19-3.76,1.34-5.62,2.08,1.27,1,2.29,2.57,3.88,3C1000.83,154.29,1003.31,153.9,1007.31,153.94ZM710.87,175.13c1.09,0,2.62.31,3.16-.09a1.76,1.76,0,0,0,0-2.24c-1.71-1.74-3.81-3.92-6.4-.73-.35.43,2.06,2,13.25,6.15a22,22,0,0,0-3.55-3,4.2,4.2,0,0,0-3.1,0,1.72,1.72,0,0,0,0,2.22,15.26,15.26,0,0,0,4.34,2.42C718.86,180,720.07,178.83,710.87,175.13Zm69.63,5.31q.29-5.5-7.37-5.31c-1.59-1.77-2.66-4.38-4.9-5.09-2.77-.89-6.52-.22-13.13-.22h3.29c0-.79.43-1.8-.08-2.32-1.71-1.75-3.82-3.93-6.41-.74-.35.43,2.06,2,6.49,3.06,1.58,1.77,2.65,4.38,4.89,5.1,2.78.89,6.52.21,9.85.21-.19,3.67,2.27,5.44,14.14,8.4a21.68,21.68,0,0,0-3.56-3,4.17,4.17,0,0,0-3.09,0,1.71,1.71,0,0,0,0,2.22,15.2,15.2,0,0,0,4.35,2.41C785.21,185.27,786.42,184.14,780.5,180.44ZM249.55,207c2,6.58,10.81,9.09,15.65,13.89,2.14,2.13,3.55,2.47,5.24.37a5.11,5.11,0,0,0,1.33-2.22,33.23,33.23,0,0,0,.05-5.28c-.25-6.05-1.11-6.58-11.1-6.75-3.66-.06-7.33,0-62.57,31.85,8.54,0,17.08,0,25.62,0,9.79,0,11.1-.78,11.18-6.65.1-7-.42-14.08.18-21.08.41-4.89,6.16-4.24,10.93-4.12,1.22,0,2.44,0,3.66,0-.86-1.5-1.12-3.73-2.67-4.38-8.32-3.51-19.23,2.78-27.14-3.73-6.5-5.34-19.82.64-24.95-7.43-10,1.32-17.51-3.25-26.13-5.44-9.61-2.45-14.87.43-14.92,6.26-.09,11.42-.14,22.84,0,34.26.1,6.66,8.68,12.24,18.61,12.3C181.07,238.88,189.61,238.84,249.55,207ZM916.41,610.45c7.33,0,11.59.82,14.48-.26,2.33-.86,4.69-4.35,4.05-6.1-1.12-3-5.57-5.45-6.72-8.49-1.24-3.29.67-7.17-.53-10.47-1.4-3.87-6.13-7.26-6.77-11.09-.87-5.23-1.87-9.43-6.67-14.1-3.53-3.43,1.84-11.62-1.69-15-5.59-5.42-7.55-10.42-6.77-16.64.22-1.75,1-4.64-.11-5.12-14.82-6.52.43-21.2-14.6-27.48,0-4.4.5-8.84-.13-13.2-.72-4.92-9.88-7.61-7.29-13.67,2.21-5.17-6.68-6.93-7.14-11-.7-6.12,1.79-12.78-.74-18.35s-8.58-9.94-7-16.46c.21-.89-2.58-2.16-4-3.25-1.06,1.45-3.22,3-3,4.32,1.46,8.22-5.25,17.71,6.94,24.32l.25,21.07C880.28,475,877,483.68,875.88,491c-1.22,7.64,3.89,13,7.87,19,4.91,7.39,14,14.54,1.49,22.53-.5.31-.72,1.56-.36,1.77,11.4,7,5.24,16.37,5.88,24.62.48,6.16,2,8.44,11.48,9.95,7.06,1.13,12.69,7.27,11.27,14.72-.79,4.17-5.49,5.48-7.48,8.41-1.63,2.4-10.85,3-4.45,7.3,4,2.7,2.73,6.79,5.4,8.88S915.39,610.23,916.41,610.45ZM678.14,1114.79H733c12.17,0,24.36.09,36.52-.24,1.27,0,3.63-2.75,3.36-4-.5-2.24-2.56-6.13-4-6.14q-54.84-.51-109.69-.12c-1.76,0-3.83,2.07-5.18,3.46-2,2.09-3.33,2-5.29-.27-4-4.63-10.72-3.92-16.27-3.12-5.35.77-10,4.07-15.35,4.89-5.83.89-12.16-.06-18.21.31-3.27.19-6.42,1.46-9.62,2.25,2.63,4,7.7,2.92,12.11,2.93Q639.75,1114.83,678.14,1114.79ZM235,397.68c0,3.48-.15,7,0,10.43.26,5,8.77,10.86,16.19,11.2,3.6.16,7.28-.25,10.84.08,9,.82,12.77-4.48,16.78-8.21,2.86-2.66-.32-6.41-4.58-8.76-4.73-2.6-2-6.43-2.3-9.68-.85-10.46-.69-10.49-12.92-10.56-6,0-12.08-.21-18.08.07-3.88.18-6.27,1.78-6,5C235.18,390.73,235,394.21,235,397.68Zm545.83-171.9c.86.63,1.78,1.82,2.59,1.79,8.38-.4,12.68,4,17.79,7.52,2.47,1.72,4.34,4.88,8.81,3.69,9.7-2.59,15.11,3.76,22.53,5.68,8.73,2.26,16.3,6.73,26.49,5,5.52-.92,8.88,1.64,12.39,4.14.45.33,4.23-.76,4.7-1.67a5.21,5.21,0,0,0-.07-5.12c-.9-1.26-3.6-1.93-5.65-2.66-8.11-2.92-18-4.51-24-8.89-11.1-8.09-26.54-9.9-38.7-16.31-7.81-4.12-18.35-1.16-24.86,4.94ZM788,371.56c-19.46,0-38.92.16-58.37-.1-6-.08-8.16,3.12-11.54,5.33a7,7,0,0,0-2.52,3.68c-.14.4,1.6,1.62,2.49,1.63,10.95.11,21.95.59,32.82-.07,11.35-.69,24.53,3.89,33.44-5.16,17.07,2.53,36-5.48,52,5.06,2.64,1.74,9.7.9,14.12-.09,2-.46,3.2-4.18,3.51-6.51.15-1.16-2.5-3.59-3.92-3.61C829.36,371.48,808.69,371.56,788,371.56ZM212.86,318.42c-4.66,5.18,3.65,9.19,7,14.54,1.91,3,.45,7.32,7.7,6.68,4.58-.4,10.1,1.9,13.62-1.84,4.28-4.53,10.62-3.11,16.49-3.45,7.89-.44,6.74-2.76,2.28-6a7.92,7.92,0,0,1-2.82-4.41c-2.66-10.33-2.68-11.18-13-10.57-9.28.54-15.45-3.1-22.9-5.31-1.91-.56-6.18,1.58-8.23,3.22C211.86,312.3,212.86,314.71,212.86,318.42Zm431.26,759.21c-12.16,0-24.33-.23-36.45.28-1.53.07-3.4,4-3.83,6.25-.24,1.22,2.2,3.89,3.48,3.91,20.66.25,41.33,0,62,.27,6,.07,8.08-3.23,11.5-5.4a6.29,6.29,0,0,0,2.32-3.68c.11-.4-1.63-1.55-2.54-1.56C668.44,1077.59,656.28,1077.63,644.12,1077.63Zm-224.69,21.23c3.63,0,7.27,0,10.9,0,10.36,0,11.39-1,11.09-9.29-.14-3.68-.58-6.73-7.52-6.71-9.26,0-19.07,1.9-26.31-5.08-2.32-2.25-10.29,1.09-10.39,4.16a86.37,86.37,0,0,0,.15,13.07c.16,1.35,2.4,3.57,3.93,3.68C407.28,1099.12,413.37,1098.86,419.43,1098.86Zm115-16.25c-9.87.36-20.69.64-31.46,1.34-1,.07-2.38,2.82-2.38,4.32s1.51,4.29,2.41,4.3q30.6.36,61.21,0c.88,0,2.36-2.82,2.36-4.32s-1.37-4.22-2.43-4.3C554.56,1083.23,545,1083,534.39,1082.61ZM318.11,318.47c-3.62,0-7.28-.23-10.85.06-3.86.32-6.4,1.81-6,5.05.23,1.72,0,3.47.06,5.21.21,5,.24,5,7.32,3,3.1-.9,6.14-2.39,9.32-2.56,7.2-.39,14.85.92,21.61-.37,9.9-1.88,13.8,6.45,22.36,5.5,3.74-.42,6.69-1.93,5.66-5.2-.48-1.54-1.33-4.17-2.44-4.29-8.06-.9-16.22-1.28-24.35-1.83C335.19,316.48,326.12,318.85,318.11,318.47ZM731.55,100.81c-6.11,0-8.66-.31-11,.09-2.14.36-4,1.48-6,2.27a38.6,38.6,0,0,0,4.4,3.7c2.64,1.64,5.94,4.58,8.3,4.28,9.33-1.17,15.18,3.92,22.78,5.36,8.82,1.67,19.75-2.4,26.38,5.25,1.36-1.17,4-2.45,3.81-3.48-.41-2.35-2.13-6.49-3.44-6.52a21.35,21.35,0,0,1-12.74-3.89c-2.13-1.46-6.57-1.8-9.86-1.62-5.47.28-8.57-1.91-12.62-3.88C738,100.65,732.6,100.94,731.55,100.81ZM839,501.94c.25-2.29-14.09-9.74-16.25-8.14-9.92,7.36-22.33,4.75-34,5.13-6.13.2-12.3-.16-18.4.19-1.37.07-2.67,2-3.64,3.18-.16.2,1.57,1.72,2.47,1.74,8.55.19,17.43,1.22,25.61,0,9.89-1.51,14.73,4.95,22.81,5.55a64.54,64.54,0,0,0,7.36,0C827.1,509.47,838.93,502.93,839,501.94ZM664,377.43l0-.9c-9.51.42-19,.71-28.49,1.45-1,.08-2.29,2.83-2.24,4.33s1.5,4.21,2.49,4.25c14.38.52,28.81,1.12,43.16.62,3.76-.13,7.31-3.91,10.88-6.07.79-.48,2-1.36,1.77-1.8a3.47,3.47,0,0,0-2.42-1.8C680.76,377.37,672.38,377.43,664,377.43Zm-143.58,164c-4.82,0-9.69-.26-14.46.12-2,.16-5.12,1.56-5.35,2.65-.7,3.41-1.18,7.13.16,10.31.62,1.46,5.68,2.62,8.8,2.72,9.4.3,19.73,1.58,25.22-6.21a11,11,0,0,0,2-7c-.08-.94-3.44-2.21-5.5-2.45A97.79,97.79,0,0,0,520.43,541.44ZM344.21,844c3.6,0,7.27.33,10.75-.13a8.41,8.41,0,0,0,5.21-2.83c3.81-5.71-4.61-17.21-13.29-18.19a12.57,12.57,0,0,0-6.46,1.09c-7.08,3.71-11.29,8.41-9.75,15.22.68,3,2.35,4.57,6.35,4.81C339.4,844.16,341.81,844,344.21,844Zm403.12-605.2-2.59,1.86-13,9.34-2.6,1.86c1.71,1,3.33,2.64,5.13,2.74,12.75.71,26.34-2.27,37.53,5.22.89.6,7.38-1.35,8.21-2.95,1-1.82-.91-6.33-2.58-6.63-10.23-1.81-18.25-6.61-27.53-9.62A10,10,0,0,1,747.33,238.84ZM131.38,215.45c.48,7.65.71,14.54,1.6,21.4.1.78,3.8,1.8,5.88,1.85s5.46-.61,6-1.62c1.28-2.23,1.48-4.88,1.54-7.37.13-5.07-.48-9.39-5.37-14.24-4.15-4.11-2.19-11.39-3.15-17.24-.11-.68-1.61-1.25-2.47-1.86-.85.61-2.38,1.19-2.46,1.85C132.29,204.2,131.84,210.2,131.38,215.45Zm184.69,176c0,6.08-.31,9.58.1,13,.33,2.78,2.48,4.56,7,4.32,3.6-.2,7.36.36,10.8-.21,1.7-.28,4.28-2.56,4-3.57-2-7.11-9.52-13.11-8.39-21,.08-.55-1.44-1.46-2.47-1.77a7.82,7.82,0,0,0-3.57,0c-2.13.45-5.61.85-6,1.78A29.21,29.21,0,0,0,316.07,391.41Zm88.48,610.35c-1,6.22.93,11.46,8.17,15.64,2.6,1.51,2.84,1.69,5.31.26,13.59-7.92,11.73-17.26-2.56-24.95-3.58-1.93-10.63.66-10.91,3.92C404.41,998.33,404.53,1000.05,404.55,1001.76ZM965,1109.48c6.07,0,12.18.26,18.19-.19,1.41-.1,3.7-2.7,3.45-3.93-.44-2.25-2.32-6.15-3.87-6.21-12.1-.52-24.27-.41-36.4-.11-1.3,0-3.68,2.71-3.43,3.94.44,2.26,2,5.94,3.92,6.2C952.73,1110,958.94,1109.48,965,1109.48Zm-284.64-584v.11c-7.22,0-14.46-.2-21.64.19-1.32.07-3.56,2.72-3.29,3.94.49,2.22,2.3,6,4,6.09,8.36.63,16.87,0,25.3.37,6.13.23,7.49-3.81,11.28-5.63,1-.48,2.6-1.57,2.44-1.77-1-1.19-2.22-3-3.62-3.15C690.06,525.27,685.2,525.51,680.37,525.51ZM854.5,950.22c-3.61,0-7.8-.81-10.65.25-2.3.86-4.92,4.73-4,5.94,2.72,3.59,6.37,7.46,11.09,9.43,3.59,1.51,9.81,1.17,14.09.08,5.35-1.36,4.34-5.69,3.78-8.95-.39-2.31-2.13-4.54-3.62-6.68-.24-.35-2.26-.07-3.46-.07Zm-542.9-260c-7.69-1.36-10.45,3.41-15.12,5.9-3.07,1.64-2.59,2-.06,3.92,10.78,8.12,19.56,8.45,30.55.89,3.19-2.19,3.16-3.52,0-5.74C322.57,692,318.55,688.78,311.6,690.2ZM131.77,270.88c0,4.32-.35,8.66.25,12.93.15,1.05,3.26,2.35,5.27,2.67s6.07,0,6.42-.75c2.52-5.37,8.18-9.65,10-15.14.41-1.26-1.07-3.9-2.43-4.21-5.45-1.25-11.39-1.57-14.8-5.58-1.57.77-4.25,1.4-4.49,2.34C131.35,265.65,131.77,268.3,131.77,270.88Zm712,843.91c6.91,1.61,10.07-2.81,14.61-5.56,2.63-1.6,3.63-3.23,1.17-3.69-6.85-1.28-12.54-3.91-18.4-6.53-1.45-.65-5.07,0-6.57.9-3.44,2.16-9.08,5.3-8.54,7.29.78,2.88,6,5.38,9.87,7.45C837.54,1115.49,840.72,1114.79,843.81,1114.79ZM375.05,950.29c-.79-1.48-1.05-3.85-2.48-4.3-11.24-3.59-24.19,1-26.85,9.49-.4,1.28.88,3.82,2.3,4.28C359.27,963.34,372.07,958.72,375.05,950.29ZM824.29,610.45c10.87,0,21.74.11,32.6-.14,1.37,0,2.76-1.92,3.85-3.1a4.31,4.31,0,0,0-2.43-1.7c-9.6-.22-19.21-.28-28.82-.36-4.37,0-5.75-7.23-10.23-3.58-6.13,5-13.15,2.85-19.85,3.72-1.25.16-2.29,2.1-2.88,3.36-.17.36,1.53,1.71,2.4,1.72C807.38,610.51,815.84,610.45,824.29,610.45Zm-29,347.73c0-7.4-.42-7.76-9.25-8-11.79-.28-12.87.39-12.87,8,0,7.4.41,7.76,9.24,8C794.16,966.41,795.25,965.74,795.25,958.18ZM352.67,907.72c7.47.59,14.08-.21,18.44-5.12,1-1.16,3.08-3.11,2.64-3.49-3-2.61-6-5.68-10-7.08-4.46-1.55-9,.24-12.08,3.29-1.38,1.36-4.22,2.26-4.75,3.68a9.6,9.6,0,0,0,.1,6.88C347.4,906.83,350.77,907.15,352.67,907.72Zm615.7,138c10.58,0,11.53-.8,11.17-9.18-.27-6.51-.68-6.76-10.94-6.74-10.58,0-11.53.8-11.17,9.19C957.71,1045.54,958.11,1045.79,968.37,1045.77ZM305.12,642.31c-10.57,0-11.53.8-11.17,9.18.28,6.51.69,6.76,10.94,6.74,10.58,0,11.54-.8,11.18-9.18C315.79,642.54,315.38,642.29,305.12,642.31ZM772.79,923.67c7.62-1.35,13.63-5.61,21.34-7.26.1,0,.06-1.43-.46-1.75-3.37-2.16-6.89-4.2-10.36-6.28-5,7.16-15.32,3.14-22.51,5.65a3.87,3.87,0,0,0-2.11,1.86C758.29,916.78,770.72,923.66,772.79,923.67ZM483.73,201.35c-8.33.37-16.68.69-25,1.2-.92.06-2.4,1.16-2.4,1.78s1.53,1.77,2.39,1.78q23.22.15,46.45,0c.87,0,1.72-1.16,2.58-1.78-.86-.62-1.65-1.71-2.59-1.78C498.05,202,490.91,201.73,483.73,201.35ZM364.17,992.69a30.66,30.66,0,0,1-3.59,0c-4.35-.53-7.22,1.26-7.38,3.84-.13,2.2,2,4.51,3.42,6.66.24.36,2.4-.15,3.38.18,3,1,6.55,1.85,8.64,3.54,2.44,2,3.68,2.37,5.24-.11C378.83,998.87,374.51,992.66,364.17,992.69Zm549-847.2c0-2,.2-2.89,0-3.7-1.83-6.38-12.92-2-16.39-7.32-.9-1.36-6.07-1.37-9.34-1.71-.71-.08-2.53,1.45-2.38,1.63,5.05,6.28,11.1,12,21.32,14C908.35,148.75,911.37,146.31,913.2,145.49ZM327.27,753.79c-1.21,0-2.42,0-3.62,0-5.78.23-8.63,2.57-7.52,6.49.75,2.68,2.64,4.62,7.25,4.16,2.36-.24,4.82,0,7.22-.06,5.78-.2,8.63-2.56,7.53-6.48-.76-2.68-2.66-4.7-7.25-4.14A31,31,0,0,1,327.27,753.79Zm205.9-143.34v.08c-2.37,0-5.9-.69-6.86.14-2,1.74-3.66,4.32-3.56,6.51.11,2.56,2.82,4.08,7.22,4,7.22-.16,8.87-5.18,13.68-7.37-1.11-1.11-1.93-2.81-3.4-3.2C538.14,610,535.55,610.45,533.17,610.45ZM348,563.55c-.88.69-2.29,1.28-2.36,1.94-.26,2.56.21,5.17-.18,7.71-.49,3.19,1.92,5.13,5.48,5.21,3,.07,7.67-1,8.81-2.55s-.34-4.8-1.92-6.78c-1.72-2.15-4.81-3.76-7.45-5.49C349.94,563.29,348.77,563.55,348,563.55Zm181.83,437a11.61,11.61,0,0,1,0-2.57c.77-3.23-2-5.07-5.58-5.1-3,0-7.69,1-8.76,2.62s.5,4.8,2.12,6.79c1.74,2.15,4.7,3.89,7.55,5.39.57.3,3.92-1,4.44-2C530.43,1004.13,529.85,1002.26,529.85,1000.54ZM548.1,658.23c-4.79,0-9.65-.31-14.34.18-1.53.16-3.28,2.35-3.72,3.8s.22,3.3,1,4.79c1.4,2.52,3.08,2.36,5,0,4.85-5.71,12.85-2.77,19.51-3.57,1-.11,2.57-1.35,2.4-1.72-.55-1.26-1.44-3-2.82-3.37C553.12,657.81,550.5,658.23,548.1,658.23Zm402,307.86,3.42,5.17c1.68-1.09,3.38-2.16,5-3.26.87-.58,1.63-1.27,2.54-1.81,4.18-2.46,5.09-5.58,2.4-8.77-.93-1.09-3.84-1.65-5.94-1.83-6.67-.55-7.52,2.71-7.48,6.4C950.07,962.84,950.06,963.7,950.06,966.09ZM883.71,374.32a11,11,0,0,1,0,2.57c-.77,3.23,2,5.07,5.58,5.1,3,0,7.69-1,8.76-2.62s-.5-4.8-2.11-6.79c-1.75-2.15-4.71-3.89-7.56-5.39-.57-.3-3.92,1-4.44,2C883.13,370.73,883.71,372.6,883.71,374.32Zm-451.23-50.8c-6.24.37-12.14.64-18,1.14-.94.08-1.72,1.16-2.58,1.77.86.62,1.7,1.76,2.57,1.77q15.86.18,31.73,0c.86,0,1.71-1.15,2.56-1.77-.85-.61-1.61-1.66-2.58-1.77C441.55,324.13,436.86,323.86,432.48,323.52Zm473.34,95.66a72.47,72.47,0,0,0-.11-7.8c-.07-.66-1.88-1.86-2.39-1.74-1.74.42-4.59,1.27-4.65,2.05a131.1,131.1,0,0,0-.1,15.61c0,.63,1.88,1.85,2.39,1.73,1.74-.42,4.42-1.17,4.64-2.06C906.24,424.45,905.82,421.79,905.82,419.18Zm-317,512.34c0,1.7-.57,3.54.2,5,.53,1,3.91,2.45,4.3,2.22,3.59-2.17,7.21-4.47,9.73-7.24.42-.46-4.3-3.52-6.91-5.16-1.34-.84-3.27-1.19-4.94-1.76a45,45,0,0,0-2.32,4.38A6.7,6.7,0,0,0,588.83,931.52Zm246.82-18.47c4.82,0,9.68.22,14.44-.15,1.15-.1,2.26-2.1,2.84-3.35.17-.37-1.52-1.71-2.4-1.72-7.22-.15-14.47-.23-21.68.07-1.08.05-2.25,2.1-2.83,3.35-.17.37,1.46,1.62,2.42,1.72A66.53,66.53,0,0,0,835.65,913.05Zm47.82,114.31c-1.73-.69-4.28-2.44-7.07-2.68-5.51-.47-8.44,2.25-7.36,6.39.69,2.66,2.62,4.42,7.21,4.16C881.82,1034.91,884.51,1032.8,883.47,1027.36ZM821.32,456.7c-.83.46-1.73.89-2.49,1.41-1.71,1.17-3.23,2.5-5,3.57-3.11,1.85-4,3.85,0,5.32a13.07,13.07,0,0,0,6.94,0,5.35,5.35,0,0,0,3.08-8.5A11.39,11.39,0,0,0,821.32,456.7ZM814.48,791c-3.8,0-5.18-.28-6.16.06a55.5,55.5,0,0,0-5.7,2.6c1.89.88,3.73,2.45,5.67,2.51a109.6,109.6,0,0,0,13.89-.76c.94-.09,1.71-1.14,2.55-1.75-.84-.61-1.57-1.6-2.56-1.77C818.81,791.3,815.35,791.05,814.48,791ZM750.85,799c-2.35-1.77-4.84-3.47-7-5.35-2.59-2.21-5.34-2.88-7.38,0a5.14,5.14,0,0,0,0,5c1.51,2.89,7.58,3.89,11.8,2.22A13.83,13.83,0,0,0,750.85,799ZM448.76,561.31c0-1.72.48-3.54-.14-5.15s-2.31-2.74-3.54-4.1c-1.23,1.36-3.19,2.63-3.53,4.09a17.39,17.39,0,0,0,0,7.73c.34,1.47,2.3,2.74,3.53,4.1a37.88,37.88,0,0,0,3.6-4.1C449.15,563.17,448.76,562.18,448.76,561.31ZM411.9,948.14c0-2.74.39-3.73-.08-4.43a37,37,0,0,0-3.6-4.11c-1.23,1.36-3.41,2.69-3.5,4.08a41.44,41.44,0,0,0,1.06,10c.12.68,1.59,1.23,2.44,1.85.84-.62,2.22-1.14,2.44-1.85A45.07,45.07,0,0,0,411.9,948.14Zm582.39-424.7c0-2.74.38-3.74-.08-4.44a38.08,38.08,0,0,0-3.61-4.11c-1.23,1.36-3.41,2.69-3.49,4.09a41.48,41.48,0,0,0,1,10,3.23,3.23,0,0,0,2.44,1.71,3.32,3.32,0,0,0,2.45-1.72A45.05,45.05,0,0,0,994.29,523.44Zm-722.45,14c0-.85.38-1.84-.08-2.53a37.77,37.77,0,0,0-3.61-4.06c-1.23,1.34-3.62,2.78-3.43,4,.34,2.26,2.2,4.41,3.43,6.61Zm234.85-33.5c-1.51,1.14-5.19,2.92-4.81,3.79,1.26,2.86,9.09,2.84,11.83.17.42-.41.48-1.6.18-1.71C512,505.42,509.89,504.88,506.69,503.91ZM888.56,1099.7a7.7,7.7,0,0,0-2.48.17c-3.69,2-3.58,7.25.18,8.73a3.71,3.71,0,0,0,2.44-.13A4.85,4.85,0,0,0,888.56,1099.7ZM303.11,297.24l5.59-2.66c-3.05-.89-6-2.23-9.18-2.47-1.71-.14-3.7,1.58-5.57,2.47a60,60,0,0,0,5.63,2.6C300.54,297.51,301.92,297.23,303.11,297.24ZM518.8,931.92c-1.84,4.46-3.37,6.7-3.46,9-.05,1.32,2.23,2.69,3.46,4,1.23-1.34,3.5-2.71,3.45-4C522.16,938.61,520.62,936.36,518.8,931.92ZM350.41,530c.84-.61,2.33-1.21,2.33-1.81s-1.35-1.52-2.36-1.75c-2.12-.49-4.52-1.08-6.57-.78s-3.76,1.64-5.63,2.53c1.87.88,3.6,2.22,5.63,2.52S348.2,530.26,350.41,530ZM999,547.51l-4.75,1.89c.82.59,1.81,1.76,2.42,1.66a28,28,0,0,0,4.95-1.66ZM873.71,827.35l2.63-1.89a28.23,28.23,0,0,0-5-1.66c-.61-.1-1.61,1.07-2.43,1.66Zm51.61-557.43,2.62-1.89a28,28,0,0,0-5-1.66c-.6-.09-1.6,1.07-2.42,1.66ZM595.14,996.11c-.85-1.12-1.74-2.27-2.62-3.42-.82.59-2.44,1.31-2.31,1.74a15.16,15.16,0,0,0,2.31,3.57Z"/></svg>