<svg id="Layer_1" data-name="Layer 1" xmlns="http://www.w3.org/2000/svg" viewBox="0 0 1200 1200"><title>BB_Artboard 39</title><path d="M1129,1055.6c.35,5,2.85,10.45-2.08,14.76-1.29,1.13-1.34,4-1.4,6.14-.18,6.07-1,12.36.19,18.17,1.46,6.82-3.47,10.91-4.79,16.41-.58,2.43-1.59,4-4.41,3.81-1.51-.12-3.06.17-4.55-.06-4.33-.67-9,1.65-13.08-1.43-5.54-4.15-6.65-10.93-9.78-16.49-1.33-2.34,1.19-4.19,2.91-5.47s2.11-2.52-.13-3.2c-2.07-.63-4.47-.15-6.53-.8-5.31-1.67-8.85,3.09-13.57,3.39-4.69-5.85-11.17-2.74-16.87-3.22-5.28-.45-10.62-.1-15.94-.1H1004.8c-5.32,0-10.64-.09-16,0-5.8.13-12.24-1.82-16.34,4.54-3.53-.72-7.44,1.54-10.69-1.74-4.94-5-11.14-2.43-16.86-2.21-.66,0-1.79,2.38-1.74,3.62.11,2.7-1.12,4-3.39,4.89A34.14,34.14,0,0,0,934,1099c-3.1,1.91-4.57,7.25-8.57,6.51-7.25-1.35-11.44,6.18-18.71,5-4.74-.73-10-1.72-14.78,2.69-4.06,3.78-10.07,1.22-15.2,1.53-5.29.32-11-1.06-15.85.38-5.45,1.6-10,5.39-16.46,4.41-5.2-.79-10.61-.16-15.93-.16-10.67,8-23.13,2.68-34.54,4.77-7,1.27-13.1,5.71-21,4.55-6.69-1-14.12-1.74-20.36.19-7.74,2.39-15.08,4.74-23.3,4.26-7.58-.43-15.3-.85-22.75.16-5.48.75-9.76,5.76-16.42,4.54-5.88-1.08-12.12-.23-18.19-.23s-12.42,1.08-18.17-.29c-6.38-1.52-7.77,6.73-14.2,5.15-5.73-1.42-12.08-.3-18.16-.3H605.46c-5.32,0-10.69.47-15.94-.12-6.27-.7-9.24,6.9-16.45,5-6.41-1.67-13.58-.35-20.42-.35H534.42c-6.08,0-12.17.18-18.23,0s-9.33,7-16.43,4.89c-4.88-1.47-10.55-.28-15.87-.28-6.08,0-12.18.35-18.23-.11-5.51-.41-7.9,6.56-14.13,4.89-4.25-1.15-9.06-.32-13.61-.2s-9,.38-12.07-4.14c-.52-.77-3.56-1-4.16-.34-6.71,7.45-15.44,4-23.3,4.33-11.38.48-22.83-.48-34.17.33-8.54.61-18.25-4.25-25.47,4.36-7.08-1.4-15,3.41-21.51-3.29-1.21-1.25-4.1-1.18-6.23-1.22-6.83-.14-14.06,1.33-20.39-.47-5.62-1.59-9.62,8.28-14.83,1l-18-.61c-4.5-.15-19.58-6.82-20.29-10.73-1.24-6.88-4.63-7.51-10.49-7.72-6.92-.26-12.52,3.22-18.71,4.4-8.06,1.54-16.68-.1-25,.58-4.29.35-6-4.67-9.11-3.7-2.48.77-4.13,3.73-7.64,3.59-7.59-.3-15.2-.27-22.79,0-7.18.22-10.93-3.25-12.29-10-.27-1.31-1.43-2.43-2.18-3.64-.77,1.17-2.07,2.28-2.23,3.53-.83,6.79-6.39,10.55-10.94,13.4-3.86,2.42-10.14.81-15.33,1.32-4.65.46-6.51-3.19-9-5.74s-7.1-4.51-5.7-8.89c2.17-6.81-7.71-9.89-4.63-16.35a46.16,46.16,0,0,0,4.59-23.22c-.49-8.33-.11-16.71-.11-25.07v-29.62a8.57,8.57,0,0,1,0-2.27,5.44,5.44,0,0,1,1.17-1.78,22.22,22.22,0,0,1,1.6-1.62c.53-.54,1.26-1,1.56-1.64a5.89,5.89,0,0,0,.18-2.2c0-.76,0-1.52,0-2.28v-13.67c0-112.43.13-224.86-.22-337.29,0-9.21,4.3-19.37-4.06-28-1.89-2-.28-7.33-.28-11.12,0-5.32-.23-10.65.07-15.95s.17-10.44-4.63-14.07c0-6.84-1.4-14.09.44-20.39,1.56-5.35,4-10.41,5.15-16.13.5-2.5,3.81-6.11,8.39-6.41,11-.74,16.37,1.93,22.22,14,1.35,2.79,4.45,4.31,4.7,7.11.47,5.27,1.06,10.83-.1,15.88-1.41,6.19,4.66,8.86,4.9,14.12.4,8.63-2.87,18,4.46,25.46,0,6.84-.39,13.7.11,20.5.47,6.39-2.63,13.55,3.87,19,1.18,1,.55,4.26.56,6.48q0,42.16,0,84.32c0,3.08.14,6.08-2.83,7.94-2,1.22-2.2,2.34-.3,3.2a7.45,7.45,0,0,0,4.17.77c1.26-.26,3.42-1.7,3.31-2.28-1.06-5.81,3.64-9.8,6.83-10.5,5.6-1.24,7.38-2.95,7.14-8.55-.42-9.86.47-19.79-.3-29.61-.67-8.55-5.64-16.26-4.6-25.49,1-9,.22-18.21.22-27.33s-.18-18.23.09-27.34c.11-3.62-2.77-5-4.06-7.49-1.21-2.32,5.48-2.64,2.5-6.36-1.34-1.68-3.21-2.74-3.18-5.56q.27-27.34,0-54.69c0-2.84,2.27-3.66,3.37-5.48,2.92-4.81,10.23-2.56,12.66-8,4.24.56,8.77-1.5,12.47,3.11,4.18,5.2,10.32,9.13,8,17.23,2.62,2.62,3.71,5.88,5.16,9.25,1.94,4.53,6.84,8,10.9,11.37,5.12,4.28,11.85,10.76,11.07,13.16-2.24,6.88,5.91,10.23,4.78,16.42s6.08,9.76,4.77,16.39c-.83,4.22,5.85,6.29,5.05,11.59-.23,1.47,3.83,3.55,3.64,5.07-1.12,9,1.33,16.2,8.92,21.58.77.55.21,2.84.44,4.29.33,2.12.21,5.49,1.38,6.05,2.49,1.2,6.13,2,8.48,1,5.18-2.17,11.26-4.49,14.43-8.68,5.68-7.5,15.48-8.7,21-15.84.85-1.1,2.53-2.69,3.41-2.46,8.46,2.21,12.6-4,16.79-9,3.12-3.75,7.49-4.17,11.13-6.36,9.85-5.89,21.54-9.11,28.47-19.3,1.53-2.25,3.81-2.1,6-1.95,3.11.21,6.11.08,7.91-2.9,2.91-4.8,8.18-5.77,12.65-8,5.65-2.83,11.67-5.18,17-8.37,4.85-2.9,8.89-7,14.24-9.69,7.52-3.82,15.15-7.63,22.56-11.75,6-3.36,12.89-6.84,20.74-5,3.36.78,16.46,6,19,9a14.88,14.88,0,0,1,2.61,5.72c2.15,7.83-1.87,15-5.87,20.15-4.72,6.06-9,14.2-18.37,15.51-1.13.16-3,1.92-2.9,2.72.63,4.65-2.87,6.65-5.41,9.23-6.94,7-16,12.91-20.39,21.25-4.76,9-13,14.22-18,22.18-3.1,4.89-5.56,10-9.88,14.12-3.74,3.56-8.4,7.22-10,11.76-2.16,6.3-7.7,8.91-11.08,13.66-.86,1.2-2.63,2.11-2.85,3.36-1.37,7.86-5.81,14.58-9.64,21-4,6.68-8.69,13.2-13.26,19.65,1.47,5.79-4.05,7.47-6.39,11.05-1.92,2.93-3,6.42-5,9.31-5.22,7.65-6.23,17.83-14.39,23.74a4.73,4.73,0,0,0-1.53,3.81c1.33,8.26-1.33,14.68-8.17,19.49-1.15.81-.71,2.7,1.18,3.05,2.93.54,7.5,1.46,8.79,0,4.15-4.78,9.06-4.42,14.33-4.36,10.63.12,21.34-.67,31.88.31,6,.56,7.79-6.62,14.16-5.12,5.76,1.35,12.09.29,18.16.29h16c5.31,0,10.64-.19,16,0,6,.26,9.32-7,16.43-4.89,4.87,1.46,10.55.28,15.86.28,6.08,0,12.26.68,18.21-.19,6.27-.91,11.51-5.68,18.68-4.56,5.93.92,12.35,1.21,18.14-.09,6.21-1.39,11.69-5.25,18.7-4.43,6,.71,12.15-.12,18.21.24,4.82.28,6.39-6.17,11.83-4.82,3.58.89,7.56.17,11.36.17,4.55,0,9.37.93,13.61-.23,5.45-1.5,9.88-5.7,16.44-4.51,5.15.92,10.93,1.31,15.83-.12,5.44-1.6,10-5.4,16.45-4.42a66.24,66.24,0,0,0,15.92,0c1.86-.17,3.4-2.89,5.35-3.4,6.53-1.68,14-2.77,19.61.15s10.76,8.69,14.38,14.31c2.09,3.27.64,8.72,1.1,13.15.57,5.43-1.1,7.41-7,8.51-5.22,1-9.44,6.64-14.71,8.18-5.57,1.62-11.85.77-17.82,1.13-.51,0-1.4,1.09-1.32,1.53.11.61.95,1.54,1.5,1.56,9,.29,18.07.45,27.11.64,5.09-6.09,12.09-4.43,18.62-4.53,6.08-.1,13-1.85,18,.45,5.83,2.68,10,8.93,14.83,13.74,2.42,2.42,2.59,9.82.31,12.29a64.3,64.3,0,0,1-8.11,8c-2.18,1.63-6.78,1.69-7.37,3.44-1.37,4.07-1.22,8.74-1.17,13.17,0,2.36,1.73,3.26,4.42,3.77,9,1.74,11.23,13.83,21.36,14.48,1.9.12.75,1.5-.12,3.18-3,5.89-6.28,11.47-11.44,15.77-1.69,1.4-2.93,3.29-5.66,2.93-7.51-1-12.92,6.79-20.65,5.1-3.44,7.55-13.74.49-17.17,8.06-4.5.16-10.4-1.43-13.19.83-6,4.9-12.38,3.95-18.9,4.33-.67,0-1.39,1.83-1.75,2.92-.1.3,1,1.41,1.55,1.44,3,.15,6.24.71,9.07-.06,6.6-1.79,11.2,2.38,16.34,4.78,3.69,1.71,16.59,4.5,24,4.43,3.08,0,5.73.15,8,2.76,3.52,4,7.64,7.41,11.17,11.38,3.33,3.76,3.56,9.08.37,12s-1.42,8.82-4.63,9.3c-4.75.72-7.48,5.84-11.4,5.32-6-.8-9.41,3.37-14.08,4.94-3.31,1.11-6.23,3.58-9.57,4.31-3.62.79-7.53.2-11.3.38-.56,0-1.62,1.31-1.52,1.49.59,1,1.34,2.58,2.25,2.75,5.63,1,12.24-2.58,16.71,3.74,6.71.31,13.42.73,20.13.9,6.07.15,12.15,0,18.23,0h18.23q37.61,0,75.21,0c8.14,0,8.15-.09,8.18-9.09,0-7.6-.08-15.2,0-22.79.07-4.61-6.14-6.36-4.76-11.83.91-3.57.17-7.56.17-11.35,0-4.56.63-9.23-.17-13.65-.86-4.79-5.69-8.23-4.55-14.12.84-4.4.16-9.09.16-13.65,0-5.31-.84-10.8.2-15.91,1.61-8-6-13.13-5-21,1-7.47.2-15.16.2-22.76-6.38-5.91-4.44-13.64-4.53-20.9-.1-7.6.39-15.22-.14-22.78-.51-7.12,3.09-15.19-4.12-21.08-.41-.33-.29-1.39-.31-2.11,0-1.52,0-3,0-4.56V791.57c0-6.84-.76-13.79.21-20.48s-4-11-4.44-16.41c-1.06-12.06-.33-24.28-.33-36.43,0-5.32-.19-10.64,0-16s.21-10.26-4.44-14.26c-1.13-1,.1-4.4-.22-6.64-1.4-10,3.87-21-4.46-30.07-.38-.41,0-1.47,0-2.23,0-6.84-1.1-13.91.3-20.45,1.48-6.94-4.08-10.74-4.89-16.4s2.27-12.19-2.43-17.19c-4.21-4.48.61-12.44-6.38-15.62-.44-5.05.88-10.72-4.83-14,7.7-2.89,2-11.4,6.48-15.5,2.1-1.92,3.28-5.33,7-5a19.26,19.26,0,0,0,2.28,0c16.26-.38,16.1-.3,23.57,14,1.12,2.15,2,4,1.6,6.15-1.12,6.28,6.09,9.73,4.92,16.41-.71,4-2.5,9.42,1.45,12.83,4.38,3.76,2.42,8.32,2.76,12.58.36,4.5.26,9,.36,13.55,7.09,5,3.52,12.38,4.19,18.75.82,7.89-1.77,16.1,4.34,23.42,1.87,2.23-.05,7.39.37,11.14.72,6.38-2.66,13.63,3.89,19,.81.65.49,2.78.57,4.24s0,3,0,4.56v16c0,6.08.72,12.27-.2,18.2s4.25,9.35,4.55,14.11c.67,10.59-.49,21.32.43,31.87.74,8.53-4.24,18,4.12,25.72,1.52,1.39.52,5.88.14,8.87-.45,3.57,2,7.89-1.62,10.65-5.7,4.31,1.65,5.51,1.69,8.37,0,3,0,6.08,0,9.12,0,3.79-.07,7.59,0,11.39.12,5.24.36,10.48.55,15.72,6.22,3.05,2.59,9.52,4.87,13.93.28.55,1.16,1.28,1.55,1.17.64-.18,1.53-1,1.57-1.52.29-4.48.53-9,.54-13.47,0-49.37-.11-98.75.16-148.13,0-7.08-2.71-14.75,3.89-21.29,1.92-1.9.51-7.24.52-11,0-33.42.36-66.85-.22-100.27-.16-9.31,6.8-12.62,11.24-18.23,7.2.38,15-3.3,21.38,2.54,1.61,1.48,3,2.13,3.16.12.62-6.69.71-13.44.9-20.17.16-5.6,4.7-16.56,8.89-21.4,2.21-2.57,5.87-4,7.55-1.63,3.33,4.78,10,2.59,13.08,7.76,1.27,2.14,5.48.29,7-2.62,6.48-12.44,10.84-13.37,24-7.36,5,2.27,9.68,3.46,7.84,10.17-2,7.16,6,11.4,4.83,18.67-1,6.66-.18,13.62-.16,20.44,8.07,6.47,3.43,15.41,4.44,23.22s-2.45,16.48,4.51,23.28c.76.74-.06,2.95.13,4.45,1.37,10.78-3.53,22.46,4.53,32.3,0,5.32-.38,10.67.1,15.94.58,6.39-2.69,13.64,3.91,18.93.81.65.51,2.8.53,4.26.06,4.56-1.63,10.12.39,13.45,3.48,5.71-8.55,7.53-2,13.16,3.86,3.32,1.16,8.57,1.54,12.92a58.68,58.68,0,0,1-.09,13.64c-.38,2.51-3.4,4.65-3.73,7.15-.2,1.48,2.85,3.19,3.78,5.12.52,1.08.25,3.4-.58,4.14-7,6.14-2.67,14.17-3.85,21.25,8.76,9.75,2.84,21.56,4.53,32.31.48,3-1.18,5.35-2.5,8.08-3.55,7.36-2.87,14.57,1.19,22.86.8,1.63,1.54,2-.33,3.37a6.33,6.33,0,0,0-3,5.6c.2,9.87.35,19.76,0,29.62-.22,6.1,7.19,9.25,5,16.44-1.46,4.72.07,10.36.4,15.59a1.55,1.55,0,0,0,3.09,0c.31-12.06.23-24.14.87-36.17.33-6.39-2.8-13.74,4-18.81.14-4.5-.19-9.07.52-13.48,1.47-9.27-4.44-19.59,4.15-28,1.16-1.13.3-4.36.3-6.62,0-12.16.8-24.38-.27-36.44-.71-7.91,7.23-12.65,5.16-21-1.6-6.44-.32-13.59-.32-20.43,0-7.59-1-15.38.33-22.73,1-5.43,5.48-9.94,4.4-16.43-.86-5.18-.17-10.61-.17-15.92,0-6.08.86-12.32-.22-18.2-1.34-7.3,6.76-11.1,5.11-18.73-1.39-6.4.09-13.43.31-20.17,4.34-2.81,2.86-5,0-8.27-1.53-1.8-1.85-7.05-.43-8.5,5.51-5.66,4.28-12.32,4.3-18.86.06-28.1.32-56.22-.18-84.31-.13-7.25,3.75-12.35,6.72-17.79,3.65-6.69,15.92-7.44,21.5-2.31,8.41,7.75,8.42,7.75,8.45,19.29,0,10.63.17,21.27-.08,31.9-.08,3.72,2.39,5.49,4.6,7.16s5.73,1.65,7.56,3.48c3.6,3.6,1.23,8.58,1.51,12.94.38,6-.38,12.2.25,18.21.5,4.85,5.72,8.14,4.6,14.12-1,5.13-.2,10.59-.2,15.91v13.68c0,5.31,0,10.63,0,16,0,5.9-.81,12,4.56,16.34,0,6.84-.63,13.75.14,20.5,1.49,13-4.34,26.77,4.17,39.32,1.76,2.6.25,7.42.25,11.22v43.3c8,14.68,3.25,30.63,4.61,46,.52,5.91-2.93,13.51,1.48,17.35,5.53,4.82-.28,12.34,6,16,3.19,1.86,1.46,5.58,1.47,8.4q.15,61.55.07,123.07c0,6.08-.42,12.19.12,18.22.52,5.84-2.88,12.58,1.75,17.38,5.17,5.38,1,11.62,3.1,17,.26.65,1,1.09,1.57,1.62.86-1,2.4-1.89,2.46-2.91.27-4.54-.63-9.26.29-13.63,1.48-7,5.83-13.06,4.6-21-1-6.67-.21-13.64-.21-20.47V960.85c0-10.64.75-21.35-.36-31.87-.46-4.31,7.92-5.78,2.2-10.75-4-3.47-1.36-8.55-1.75-12.87-.41-4.52-.09-9.11-.09-13.66s-.18-9.13,0-13.68-5.92-6.33-4.83-11.83c1-5.11.22-10.59.22-15.91,0-4.56.45-9.17-.12-13.66-.63-4.87-5.9-8.13-4.62-14.11.93-4.36.18-9.08.18-13.64,0-5.32-.24-10.65.09-16,.21-3.45-1.62-5.36-3.59-7.71-2.16-2.59,6.16-4.38,1-8-3.78-2.68-1.39-7-2.08-10.5-1.1-5.66,1.77-11.53-2.57-17.23s-1.55-13-1.9-19.63c-.32-6.06-.07-12.15-.07-18.23-9-8-4.13-18.53-4.11-27.74,0-6.51-4-10.87-4.78-16.37-.95-6.71-.23-13.64-.23-20.48V628.77c0-2.28-.65-4.84.16-6.77,1.1-2.59,3.46-4.62,5-7,1.29-2,2.3-2.17,3.25,0,2.21,5.16,4.29,10.37,6.51,15.53a1.64,1.64,0,0,0,1.53.48c.65-.31,1.57-1,1.58-1.55.12-15.93.06-31.87.24-47.81.06-4.67-6-6.33-4.81-11.83,1-4.33-.08-9.09.29-13.62.29-3.57-2-8,1.76-10.53,2.21-1.5,5.86-.39,7.68-3.37,1.47-2.38,5.1-2.7,5.86-1.71,3.8,5,11.14,3.77,14.69,9.16,1.36,2.07,2.77,5,1.68,5.92-5.49,4.65-4.34,10.71-4.38,16.53-.08,9.88,1,19.9-.39,29.58-.9,6.37,7.12,7.8,5.16,14.19-1.27,4.17-.24,9-.24,13.6,0,5.32-.1,10.64,0,16,.11,4.42,5.83,6.42,4.71,11.83-.91,4.36-.19,9.07-.19,13.63s-.3,9.14.08,13.67c.52,6.4,6,11.3,4.75,18.67s-.27,15.15-.27,22.75v41c0,4.44-.48,8.68,3.69,12.31,1.59,1.37.83,5.64.84,8.59.07,13.67-.27,27.36.17,41,.2,6.37-2.56,13.41,3.83,19,1.55,1.37.56,5.73.57,8.72,0,10.64,1.26,21.47-.37,31.84-1.31,8.32,6.22,13.17,5.14,21-.92,6.71-.19,13.65-.19,20.49,8.78,7.18,2.93,17,4.52,25.47s-3.41,18.07,4.5,25.55c.76.72.1,2.94.1,4.45,0,19.76,0,39.51,0,59.26,0,6-5.16,10.74-11.39,10.8-5.31.06-10.63,0-17,0-.34,0,.6.26.94-.08a2,2,0,0,0,0-1.92c-1-1.5-2.35-3.37-4-.63C1125.8,1053.33,1127.29,1054.7,1129,1055.6ZM532.78,996.33c5,0,10,.24,15-.12a3.47,3.47,0,0,0,3.22-4.44c5,0,10,.24,15-.12a3.47,3.47,0,0,0,3.22-4.44c5,0,10,.24,15-.12,2.09-.14,3.73-1.81,12-4.44a36.64,36.64,0,0,0,6.55-.12c1-.18,1.76-1.61,2.49-2.58.06-.08-.93-1.4-1.47-1.43-4.32-.24-8.66-.48-13-.32a4.77,4.77,0,0,0-3.25,2.31c-1.06,2-.14,2.6,2.11,2.22s4.36-.08-2.2-.08c-5,0-10-.24-15,.11a3.48,3.48,0,0,0-3.22,4.45c-5,0-10-.24-15,.11a3.48,3.48,0,0,0-3.23,4.45c-5,0-10-.24-15,.11-2.09.15-3.73,1.81-3.22,6.48,0-.68.26-1.62-.08-2a2,2,0,0,0-1.92,0c-1.5,1-3.37,2.35-.63,4C530.52,1000.55,531.88,999.06,532.78,996.33Zm87-22.8a36.64,36.64,0,0,0-6.55.12c-1,.18-1.76,1.61-2.49,2.58-.07.09.93,1.4,1.47,1.43,4.32.24,8.66.48,13,.32a4.7,4.7,0,0,0,3.25-2.31c1.07-2,.15-2.6-2.1-2.22s-4.37.08,6.37.08a37.24,37.24,0,0,0,6.63-.12c1-.18,1.72-1.61,2.43-2.59.06-.09-.91-1.35-1.46-1.41a49.31,49.31,0,0,0-8.49-.32c-1.15.09-3,1.35-3.14,2.3C628,975.74,631.58,972.46,619.77,973.53ZM245.55,757.6c.06.6-1.07,6.36,1.29,9.09,3.57,4.13,3.86,8.25,3.07,12.4-1,5.38,4.57,7.42,4.71,11.77.2,6-.3,12.14.15,18.16s-2.69,12.73,1.43,17.44c4.85,5.54,2.42,11.36,2.92,17,.58,6.52,1,7.15,8.11,7,3.25-.08,6-.5,5.7-4.76-.23-3.74-.47-7.34,3.24-10.06s4.72-7,6.89-10.63c3.37-5.54,4.8-12,8.36-17,3.73-5.27,4.65-12.3,10.43-16.21,6.11-4.14,0-13.54,7.4-17.54.9-.49.2-4,2.18-5.76,3.87-3.35,7.79-6.8,8.05-12.53,4.65-2.19,2.23-8.52,6.41-11,4.84-2.83,5.87-8.08,8-12.59,2.8-6,6.11-11.46,11.21-15.83,3.44-3,6.1-6.9,9.78-9.44,4.12-2.86,3.73-7.77,6.37-11.06,3.16-3.93,6.69-7.05,8.43-12.48,1.43-4.48,6.86-7.81,10.81-11.33,3-2.66,0-3.63-1.14-4.81s-4.28-3.21-4.58-2.91c-4.16,4.17-8.33,8.16-14.35,9.45-.27,8.68-6.49,7.15-12.22,8.16-2.86.51-5.8,3.45-9.27,4.81-3.08,1.2-5.66,4.23-9.53,4.38-10.91,13.23-30.11,13.75-41.11,26.84-6.85,2.12-13.36,4.67-18.62,10-5.09,5.13-13.22,6.29-17.36,12.84-4.54-.63-7.22.77-6.78,5.94C245.71,749.21,245.55,751.5,245.55,757.6Zm779.61,177.12c0-18.13,0-36.26-.12-54.38,0-.61-1.84-1.36-2.92-1.72-.31-.1-1.44,1-1.45,1.53-.1,6.8-.9,13.73.16,20.36,1.16,7.23-6.37,11.36-5,18.58,1,5.09.49,10.55.11,15.81-.36,5.07,2.34,11-1.69,15.05-4.58,4.65-1.62,10-2.93,14.76-.71,2.61-3.24,4.67-4.33,7.24-1.73,4.07,3.31,5.72,3.78,9.12-5.73,3.55-3.41,9.28-3.87,14.26-.26,2.91.54,7-1.06,8.51-6.71,6.48-2.41,14.27-3.31,21.35-.2,1.6,1.69,4,4.1,1.12.9-1.08,2.2-2.39,3.43-2.52,4.43-.47,10,1.13,13.09-1,4.61-3.26,1.43-9.72,1.92-14.77s1-10.59-4.46-14c6.42-4,4.44-10.49,4.49-16.25C1025.25,963.42,1025.16,949.07,1025.16,934.72Zm-848,91.37V998.92c-5.09-3.49-4.84-8.66-4.61-14s.05-10.57.05-15.85c0-2.26.1-4.54-.07-6.79,0-.58-1-1.64-1.38-1.56-1.09.29-3,1.21-3,1.5,1.06,4.54-3.58,6.31-4.5,9.52-1.54,5.43,2.38,12.08-3.67,16.62-.36,5.89-.88,11.77-1.05,17.66s.85,11.92-4.6,16.23c2.84,6.63-4.59,10.55-4.41,16.21.2,6.1-.65,11.48-4.59,16.33-.54.67.14,3,1,3.92a5.26,5.26,0,0,0,3.87,1.29c1.29-.1,2.54-1.09,3.76-1.77,4.29-2.4,8.44-5.12,12.91-7.09,1.9-.84,4.51.11,6.72-.21,2.37-.34,3.73-1.65,3.64-4.51C177,1039.67,177.17,1032.88,177.17,1026.09ZM131.58,927.8c0,14.3-.05,28.6.11,42.9,0,.78,1.7,1.63,2.74,2.22.17.1,1.56-1.11,1.47-1.49-1.57-6.35,3.35-10.8,4.51-16.19,1.24-5.76.28-12,.28-18,0-.75-.3-2,.05-2.19,10.42-6.92-1.39-21,9.07-27.9,0-6.77-.1-13.55,0-20.32.08-4.45-2.87-4.44-5.94-4.47-2.25,0-4.51-.05-6.77,0-4.4.11-5.54,1.06-5.55,4.79C131.56,900.7,131.58,914.25,131.58,927.8Zm82.2-89.68c-.61-11.18,1.94-20.4-4.7-28,0-5.31-.32-10.65.08-15.94.48-6.33-5.15-10.08-6.16-15.76-.09-.54-2.68-1.07-4-.84a5.23,5.23,0,0,0-3.48,2.24c-.6,1.22-.14,3-.14,4.49v15.95c0,6.08.93,12.34-.25,18.18-1.25,6.18,4.6,9,4.78,14.11.16,4.56-.55,9.22.19,13.65a10.47,10.47,0,0,0,8.8,8.66c1.18.22,3.69-.77,3.76-1.4C213.32,847.56,213.57,841.59,213.78,838.12ZM156.62,814c-3.69,3.69-7,8-11.23,11-5.25,3.7-4,11-9.16,14.57-.63.43-.53,3.37.25,4.2,2.94,3.16,8.06,2.35,11.15,6.27,1.18,1.49,5.74.63,8.68.27,1-.12,2.48-2,2.51-3.12.21-8.32.15-16.64.09-25C158.88,819.32,159.78,816.13,156.62,814ZM299.5,955.29c-4.55,0-9.37-.93-13.59.26-4.71,1.32-8.42,5.15-14.16,4.64-2.08-.19-4.52,3.39-6.73,5.32-.42.37-.9,1.19-.75,1.56.27.64,1,1.54,1.54,1.57,4.51.21,9.87,1.79,13.33-.08,4-2.14,7.14-4.74,12-4.23,3.76.4,8.14,1.24,11.23-.24s5.33-4.94,9.56-4.58c.48,0,1.58-1.4,1.52-1.47-.76-1-1.63-2.55-2.57-2.62C307.11,955.12,303.3,955.29,299.5,955.29Zm648.16,65c0-9.74.13-15-.1-20.23-.06-1.23-1.35-2.4-2.08-3.6-.79,1.1-2.19,2.15-2.28,3.31-.65,7.81,1.94,16-4.43,23-1.33,1.46,0,5.64.67,8.44.19.77,2.41,1.47,3.69,1.47s3.59-.82,3.67-1.5C947.43,1026.08,947.62,1020.92,947.66,1020.26ZM934,827.55c0-3.75.06-7.5-.07-11.25,0-.55-1.13-1.61-1.45-1.51-1.08.34-2.89,1.07-2.91,1.7-.2,7.49-.16,15-.06,22.49,0,.54,1.13,1.61,1.45,1.51,1.08-.34,2.86-1,2.91-1.7C934.13,835.06,934,831.3,934,827.55ZM626.12,864.11c4.5,0,9,.13,13.49-.13.68,0,1.42-1.79,1.8-2.87.11-.31-1-1.48-1.49-1.49-7.5-.1-15-.14-22.49.06-.66,0-1.42,1.8-1.8,2.88-.11.3.94,1.45,1.5,1.48C620.12,864.19,623.12,864.11,626.12,864.11ZM213.64,892.52c.5-3.59-1.17-5.4-4.61-5.67-2.84-.23-4,1.29-4.46,3.57-.67,3.56,1.12,5.4,4.56,5.67C212,896.31,213,894.77,213.64,892.52Zm679.31,133c0,3.85-.26,6.13.1,8.3.21,1.27,1.42,2.37,2.18,3.55.76-1.18,2.15-2.35,2.17-3.53.05-4.37-.3-8.75-.66-13.12,0-.57-1-1.06-1.51-1.59-.53.53-1.39,1-1.52,1.6C893.24,1022.81,893,1025,893,1025.51ZM609.56,865.67c-1.34-2.29-5.83-2.37-7.53-.09a1.73,1.73,0,0,0-.11,1.52c1.27,2.32,5.8,2.39,7.5.1C609.68,866.85,609.52,866.19,609.56,865.67Zm323.76-62.45-1.62-2.94c-.5.51-1.51,1.13-1.42,1.5a14.35,14.35,0,0,0,1.42,3.06ZM931,782.71l-1.62,1.62a14.81,14.81,0,0,0,3.06,1.42c.38.09,1-.92,1.5-1.42Z"/><path d="M292.71,195.25c112.88,26,91.6,26.26,70.34,25.88-6.37-.11-13.69,2.81-19-3.72a7.58,7.58,0,0,0-3.05,2c-1.66,2.19-5.06,2.78-5.9,1.73-4.59-5.73-10.72-4.38-16.54-4.38q-120.83-.06-241.63,0c-4.56,0-9.51,1.13-13.58-.29-4.94-1.73-11.3-2.87-13.66-8.29-2.66-6.11-10-12.4-1.64-19.53,2.18-1.86,1.13-4.13,1.47-6.25,1.16-7.16,5-11.12,11-11.22,3.8-.07,7.6,0,11.4,0h50.15c5.32,0,10.94-1.09,15.88.27,6.42,1.77,8.09-7.42,14.16-4.86,2.2.93,3.63-.52,2.16-2.16-7.21-8.06-6.35-15.75,0-23.75.74-.93.09-3,.1-4.48,0-3.06-.1-6.15,4.4-6.08,5.32.09,10.72.61,15.94-.11,9.27-1.28,19.5,4.27,28-4.21,1.52-1.52,5.86-.22,8.9-.22,7.6,0,15.2.07,22.79,0,6.54-.07,13.53,1.53,18.63-4.53,7.54-.15,15.08-.26,22.61-.51.56,0,1.32-.93,1.52-1.57.12-.38-.59-1.42-1.07-1.52-2.12-.45-4.29-.68-6.45-1-5.67-.73-12.07,2.3-16.79-3.8-.92-1.19-4.2-.71-6.4-.73-7.59-.08-15.2.1-22.79-.07s-14.93-.62-22.39-.95c-6.08-7.27-14.25-2.13-21.31-3.57-7.27-8.38-17.14-2.45-25.42-4.75-5.42-1.51-9.92-5.81-16.35-4.84-1.34.2-3.17-3-4.8-4.57-2.55-2.49-2.69-5.06-.37-7.79,1.39-1.64,3.54-2.67,3.21-5.54a12.13,12.13,0,0,1,3-10.19c5.42-6.31,11.35-9,19.66-8.08,5.72.62,12.21,1.89,16.33-4.39,6.08,0,12.16,0,18.24,0s12.38.9,18-.66c3.12-.87,4.49-4.26,8.47-.45,1.79,1.73,4.59-4.46,8.91-3.59,3.65.73,7.57.15,11.36.15s7.64-.36,11.39.08c6.88.79,11-7.12,18.73-5,5.63,1.58,12.07.31,18.15.31H407c6.84,0,13.77-.7,20.49.17,8.53,1.11,18.05-4.19,25.73,4.17,1.39,1.52,5.84.22,8.88.22h100.3c8.64,3.09,14.31-6.65,23.25-4.89,8,1.58,16.65.33,25,.33H736.08c8.35,0,16.71-.09,25.07,0,3.83.06,7.09-.19,10.11-3.4,2-2.09,2.93,2.27,4.68,2.51a103.6,103.6,0,0,0,28.95,0c3.09-4.9,5.6-2.43,8.06.64,4.95-6.73,12.15-4,18.55-4.29,6.06-.29,12.15-.06,18.23-.06h61.55c5.31,0,10.65-.24,16,.07a21.27,21.27,0,0,0,14.35-4.23c3.07-2.13,8.88,0,13.39-.49,5.54-.58,9.55,2.36,14.27,4.14,3.52,1.33,5.76,4.41,9.32,5s9-1.77,9.75,2.69c.81,4.75,1.67,10-1.26,15.24-3.25,5.78-6.58,11.19-11.39,15.83-2.46,2.36-5,3.4-8,2.68-7-1.7-11.46,2-15.4,6.91-1.8,2.22-4,3.74-4.83,7.15-1.51,6.4-6.16,9.76-13.26,8.84-4.64-.6-6.34,5.84-11.84,4.76-4-.8-8.33-.94-12.55,2.77-2.67,2.35-8.51.89-12.85,1.62-4.17.71-6.55,5.63-11.83,4.64-4.31-.8-8.24.1-12.34,3.38-2.82,2.27-8.63.82-13.1,1-5.13,7.78-14.85,1.48-20.16,6.08-6.37,5.52-13.2,1.14-19.33,3.18-5.4,1.8-9.87,5.79-16.42,4.61-5.16-.93-10.61-.34-15.93-.14-4.37.16-6.45,5.91-11.82,4.67-3.61-.83-8.63-1.68-11.17.11-9.59,6.74-20.13,3.3-30.22,4.31-5.69.57-12.25-2.42-16.64,3.93-.3.44-1.3.56-2,.59q-13.46.56-26.92,1c-7,7.27-15.82,1.83-23.63,3.49-4.89,1-10.11-1.7-14.89,2.8s-11.56,1-17.41,1.68c-5.26.57-10.63.12-16,.12-7.18,8.81-17,3.15-25.48,4.43-7.11,1.06-14.58-1.4-21.15,4.39-2.14,1.88-7.39-.12-11.13.37-11.53,1.52-24-4.41-34.59,4.48-8.36,0-16.72-.1-25.08,0-6.73.1-13.45.47-20.18.83-.47,0-1.34,1.11-1.25,1.52.15.63,1,1.56,1.51,1.57,17.4.26,34.81.75,52.21.45,7.09-.13,14.91,2.88,21.24-3.93,1.44-1.55,5.78-.46,8.78-.46q19.38,0,38.76,0h25.07c9.12,0,18.27.46,27.35-.13,7.83-.52,16.76,3.72,23.19-4.41,1.65,1.52,3.35,4.36,4.94,4.31,5.69-.2,12.22,2.84,16.83-3.25.27-.36,1.3-.66,1.54-.46,10,8.41,21.76,3.23,32.59,3.68,22,.89,44.06.48,66.09.13,6.37-.11,13.38,2.49,19.06-3.72,1.44-1.57,5.71-.68,8.69-.68q36.47-.06,72.94,0h27.36c8.35,0,16.79.69,25-.2,8.55-.91,18.25,4.32,25.58-4.15,3.58,4.9,8.73,4.45,14,4.46a10.27,10.27,0,0,0,7.85-3.3c3-2.9,8.44-2.56,10.35-.73,3.81,3.66,7.65,4,12.22,3.95,6.84-.13,13.68-.11,20.52,0,6,.09,12,.38,18,.59,5.06,5.56,12.85,5.93,18.67,9.84,2.92,1.95,8.13,4.46,2.07,9.81-2,1.73-.75,7.13-.81,10.86-.1,5.31,1.71,11.52-.45,15.74-3,5.77-8.82,10.09-13.56,14.91-1,1-2.81,2.26-3.63,1.92-6.83-2.82-10.21,5.86-16.4,4.69-2.68,5.11-9.12,3.93-12.81,7.81-3.51,3.7-10.42-1.24-14.12,4.78-.93,1.52-5.67,1.51-8.42,1-9.94-2-17.68,8.26-27.77,4.69-2.57,2.56-7.21,5.05-7.3,7.69-.18,5.53-2.52,9.57-4.77,14.15-1.49,3,1.06,7.47-2.68,10.29-2.29,1.73-3.71,4.24-7.31,4.54-4.13.34-6.59,5.68-11.83,4.48-2.89-.66-6.05-.13-9.09-.11-.49,0-14.85,7-14.85,7.34a12.46,12.46,0,0,0,.39,4.38c.79,2.05,1.79,1.76,3.23.77s1.74-5.16,4.77-1.82c1,1.1,2.07,2.59,3.34,2.87,2.17.47,4.53.13,6.81.13,5.32,0,10.63,0,15.95,0,4.53,0,9.05.15,13.58.23,4.26,8.43,8.09-2,12.31-.32,1.31.53,3.68-.58,4.42.18,6.1,6.2,13.78,4,21,4.51,10.86.74,22.41-3.13,32.31,4.51,6.08,0,12.32.86,18.19-.23,6.69-1.24,10.67,4,16.26,5.33,5,1.2,7.43,8.74,14.34,9.39,2.42.23,2.92,7.65,0,12-1.77,2.63-3,4.78-2.93,8,.1,5.92,0,6.18-8,12.17-5,3.78-6.21,9.79-9.15,14.61-2.18,3.59-3.2,9.47-7,10.32-5.7,1.28-9.24,7.3-15.86,6.08-4.41-.8-9.12-.75-12,4-6.42.68-11.1,7.74-18.45,5-3.34,5.38-10.64,4.29-14.65,8.95-1,1.13-4.4.4-6.63.08-1.31-.19-3.42-1.07-3.58-1.94a58.1,58.1,0,0,1-.45-9c-.18-7.85-1.68-9.1-9-4.71-3.72,2.25-7.07,1.49-10.6,2.05-5.72.91-12.34-2.44-17.09,2.62-4,4.3-10.74-1-14.14,4.69-.6,1-2.45,1.65-3.75,1.71-4.55.21-9.32.93-13.63-.12C919,411.07,916,417,911,417.26c-4.54.26-9.11.06-13.67.06s-9.22.6-13.66-.13c-7.76-1.29-12.71,6.92-21,5-6.49-1.51-13.61-.3-20.45-.3h-22.8c-13,8.95-27.63,2.85-41.42,4.52-5,.61-10.34-1.41-14.58,3.75-1.3,1.58-5.65.8-8.6.82-11.4.07-22.81-.19-34.19.12-5.7.15-12-2.27-16.73,3.94-1.14,1.51-2.62-5.95-6.13-2.41-2.37,2.39-4.76,3.05-8,3-11.39-.17-22.83-.64-34.18.11-10.06.66-21.06-4-30,4.38-9.88,0-19.79-.47-29.63.17-6.37.41-13.72-3.27-19.1,3.44-.18.22-2.36-.64-3.06-1.46-3-3.55-8.29-3.37-10.33-1.86-11.76,8.72-24.86,2.18-37.08,4.27-4.16-6.11-10.73-5.38-16.28-4.27s-9.88,5.55-16.44,4.48c-5.93-1-12.13-.29-18.21-.18-6.53.11-11.19,6.34-18.68,4.81-6.57-1.34-13.62-.28-20.46-.28h-41c-6.84,0-13.68-.05-20.52,0-4.38.05-9.23-1.23-12.12,3.73a74.61,74.61,0,0,1-24.41,0c-4.46-5.81-8.38-4.41-12.79.38-1.08,1.16-4.32.4-6.56.41-12.16,0-24.36-.61-36.46.21-9.36.64-12.63-6.77-18.2-11.28a2.53,2.53,0,0,1,.83-1.51c6.25-3.1.71-10.45,4.9-13.89,3.62-3,3-6.57,2.94-10.24-.06-2.78,1.43-3.73,3.88-4.36,5.47-1.41,9.64-5.6,16.4-4.83A162.16,162.16,0,0,0,325,408c9.3-.78,19.39,4.27,28-4.08,2-1.9,7.33-.28,11.12-.28,5.32,0,10.66-.23,16,.07s10-.29,14.3-4.38c1.6-1.52,5.91.13,8.88-.32,10.75-1.63,22.38,4.06,32.49-4.28,1.81-1.49,5.95.15,8.93-.27,12.27-1.71,25.35,4.26,37-4.29,2-1.45,5.93-.21,9-.21,12.92,0,25.85.32,38.75-.13,6.38-.22,13.4,2.5,19-3.77,1.41-1.56,5.72-.62,8.7-.63,9.88-.06,19.85-.86,29.6.24,7.93.89,12.64-6.93,21-5.19,8,1.68,16.64.37,25,.37,7.59,0,15.2.17,22.79-.07,5-.16,8-5.94,14.12-4.74,5.85,1.14,12.11.25,18.19.25,5.31,0,10.63-.1,15.95,0,6.65.15,11.1-6.57,18.7-4.88,6.51,1.45,13.61.3,20.44.3,11.46-8.27,24.54-3.41,36.87-4.5,7.93-.7,14.34-6.63,23.25-4.94,8.06,1.53,16.65.32,25,.32,15.43-8.45,32.16-3.25,48.27-4.46a157.46,157.46,0,0,1,22.78,0c6.88.49,11.21-8.06,18.67-4.76.28.13,1.62-1.06,1.53-1.38-.31-1.09-.9-2.83-1.62-3a39.59,39.59,0,0,0-6.81-.14c-7.6,0-15.21.16-22.8,0-7.11-.2-14.62,1.8-20.92-3.88-.63-.58-2.86,5.83-6.22,1.58-2-2.52-3-.68-4.94.25-6.15,3-12.63,4.17-18.36-.87-1.64-1.45-2.09-2-3.36-.1-.83,1.2-2.13,2.9-3.26,2.93-7.56.19-15.26.74-22.65-.43-2.9-.46-5.94-6.38-9.21-3.27-3.87,3.67-7.72,3.86-12.23,3.85-25.07,0-50.15-.27-75.22.17-5.66.1-9.79-4.39-14.06-4.28-8.5.23-18.23-4.64-25.8,3.6,0,0-3-2.63-4.64-4-6.44,8.1-15.35,3.87-23.18,4.38-9.08.6-18.23.14-27.35.14-8.36,0-16.72.2-25.07-.16-1.84-.08-3.47-2.61-5.44-3.19-2.76-.81-6.8-2.23-8.45-1-8,6.08-17,4.09-25.65,4.27-10.63.22-21.29.45-31.9-.09-7.13-.36-15.18,3.17-21.14-3.87-5.24,5.43-12.06,4.36-18.39,3.87-7.84-.61-16.77,3.73-23.2-4.41-5.56,8-13.84,3.87-20.92,4.4-8.31.63-16.7.15-25.06.15-7.6,0-15.27.67-22.78-.16-10.8-1.18-22.39,4.15-32.5-4.19-1.81-1.49-5.9-.21-8.94-.21q-38.74,0-77.5,0c-4.4,0-8.74.78-12.31-3.61-2-2.42-5.51-1.18-7.56,1.53-1.59,2.1-4.7,3.11-5.83,1.93-5.46-5.7-12.25-4.29-18.79-4.38-6.08-.08-12.16,0-18.23,0-4.82,6.37-9.55,5.71-14.58.11-.68-.76-2.92-.11-4.44-.11H128.83c-5.32,0-10.66.29-16-.09-4.31-.3-9.25,2-12.83-1.89-4.43-4.9-10-1.73-14.93-2.55-4.28-.7-2.53-4.81-3.94-6.58-3.57-4.46-6.85-7.52-1.14-13.11,2-2,1-7,1.38-10.67A11.28,11.28,0,0,1,93,294.24c19,0,38,.55,57-.35,6.05-.28,9,5.11,14.08,4.81,8.63-.51,18,2.92,25.47-4.48,5.32,0,10.64.14,15.95-.1,1.24-.06,2.42-1.41,3.62-2.16-1.06-1.08-2.19-2.09-3.17-3.24-2-2.36-5-2.66-7.48-3.91-9.1-4.59-10.28-12.31-3.44-19.62,3.22-3.44,6.19-6.49,5-11.66-.61-2.64,1.09-5,3.21-4.71,5.7.81,9.49-3.13,14.18-4.44,4.94-1.38,10.56-.31,15.87-.31,9.12,0,18.38-1,27.31.33,6.29.92,8.36-5.79,14.14-5.06,6,.76,12.13.17,18.21.17,5.32,0,10.64.07,16,0,5.13-.08,8-6.31,14.12-4.75,4.28,1.09,9.07.21,13.63.21h15.95c4.56,0,9.42-1,13.61.24,6.35,1.89,7.82-7,14.21-5,4.17,1.28,9.05.24,13.6.24,5.32,0,10.81-.82,15.92.2,7.28,1.46,11.35-6.44,18.71-5,5.85,1.16,12.12.24,18.19.24h38.76c6.84,0,13.67,0,20.51,0a4.29,4.29,0,0,0,2.07-.48,3.31,3.31,0,0,0,1.54-1.6c.11-.39-.66-1.45-1.13-1.52a63,63,0,0,0-8.75-.9c-24.31-.06-48.63,0-207.1-26.06-134.87-26.91-135.48-27.93-136.35-28.63a1.94,1.94,0,0,0-1.91,0,1.91,1.91,0,0,0,0,1.91,9,9,0,0,0,2.69,2.07C157.28,170.72,158,169.75,292.71,195.25ZM576.26,89.06c-12.1,0-24.19,0-36.29.13-.66,0-1.45,1.79-1.86,2.86-.11.29,1,1.5,1.51,1.5q34,.12,68,0c.66,0,1.45-1.79,1.86-2.87.11-.29-1-1.5-1.51-1.5C597.42,89,586.84,89.06,576.26,89.06ZM553.35,221.28c10.57,0,21.15,0,31.72-.07.55,0,1.64-1.1,1.55-1.41-.32-1.09-1-3-1.63-3q-29.46-.22-58.92-.06c-.54,0-1.63,1.1-1.54,1.42.32,1.09,1,2.93,1.63,2.94C535.22,221.33,544.28,221.28,553.35,221.28ZM942.44,351.87l-1.62-2.94c-.51.51-1.51,1.13-1.43,1.5a14.13,14.13,0,0,0,1.43,3.06Zm-15.3-2.94c-.5.51-1.51,1.13-1.42,1.5a14.58,14.58,0,0,0,1.42,3.06c.51-.51,1.51-1.12,1.43-1.5A14.13,14.13,0,0,0,927.14,348.93ZM462.77,179.59l1.62-1.63a14.58,14.58,0,0,0-3.06-1.42c-.37-.09-1,.92-1.5,1.42Z"/></svg>