<svg id="Layer_1" data-name="Layer 1" xmlns="http://www.w3.org/2000/svg" viewBox="0 0 1200 1200"><title>BB_Artboard 32</title><path d="M663.2,882c-5.89,3.36-1.93,5.89.9,8.53-2.22,2.32-4.79,4.4-6.57,7-2.12,3.12-3.55,6.7-5.31,10.07-4.69,9-9.22,17.6-20.44,20.94-5.13,1.53-8.8,7.4-6.89,14,2.05,7.12-4.55,11.26-5.88,17.38-.78,3.56-9,2.09-11.37,7.06-7.1-.33-9.37,1.44-3,6.94-3.43,3.24-4.11,7.85-6,11.88-1.16-.54-2.3-1.11-3.48-1.6s-2.31-.87-3.47-1.3c-.46,1.45-1.37,2.94-1.24,4.34s1.24,2.73,2,4.05,2.29,3,2,3.37c-2.06,2.53-4.52,4.73-6.81,7.07q-8.53,8.76-17,17.54c-.14,8.63-8.33,11.32-12.6,16.89-2.85,3.71-1.89,9.53-6.88,11.92,2.55,6.5-7.89,8.51-5.21,15.06-3.26,3.56-8.71,6.8-9.31,10.76-1,6.86-6.21,9.32-9.93,13.16-6.08,6.29-7.21,16.05-15.19,20.83.93,9.12-11.94,10.87-10.75,20.13-4.17,2.13-2.93,7.22-5.32,10-4.22,5-9.11,9.42-13.81,14-2.7,2.62-10.3,3.25-13.25.8-3.72-3.08-8-6.51-6-12.13s3.73-12.74,8-16.06c6.27-4.88,5.55-13.31,11.57-17.62-1.74-8.76,10.91-9.66,9.85-18,6.23-6.06,9.72-14,14.8-20.9,3.69-5,9.41-8,10.78-15.31.91-4.89,8.71-6.39,9.32-13.4.28-3.19,5.28-5.78,7.55-9.06,1.68-2.43,1.63-6.78,3.72-8.1,7.3-4.62,7.22-14,13.64-19.2,6.07-4.94,7-14,13.9-18.86,1.43-1,.54-5.18,2-6.34,10.75-8.68,15-22.72,26-31.14,1.72-6.31,7.5-10.32,9.91-15.59a45.48,45.48,0,0,1,12.81-16.7c4.42-3.62,2.44-13.34,11.76-12.21.44.06,1.18-2.6,1.83-4,1.62-3.43,4.4-6.76,4.67-10.28.51-6.57,6.42-3.22,8.8-5.85.51-.57,1.29-1.32,1.23-1.91-.53-5.34,2-6.5,7-7,6.21-.6,8.48,3.86,12,6.95C663.71,880.38,663.33,881.28,663.2,882Z"/><path d="M812,872.3c-.08,4.78.8,9.62-4.3,13.05-3.33,2.25-7.27,5.19-8.46,8.67-2.13,6.22-12.3.6-12,9.43.15,4.64-6.63,6.93-5.36,12.45-3.82,2.31-3.53,6.77-5.41,10-2,3.43-5.39,6.14-8.53,8.75-4,3.38-6.09,7.13-5.4,12.66.22,1.81-1.6,4.67-3.31,5.79-5.74,3.77-5,11.8-10.38,15.39-5.71,3.8-4.87,11.68-10.36,15.42.32,4.43-2.14,7.32-5.15,10.18-6.53,6.21-12.79,12.69-19.16,19.06,1.22,9.21-11.82,11-10.54,20.21-4,4.07-7.83,8.36-12.09,12.15-3.7,3.29-2.56,8.75-6.7,12.15s-9.76,6.55-10.64,12.61c-.83,5.65-5.31,8.17-8.81,11-4.7,3.79-5,9.69-8.55,13.78a90,90,0,0,1-8.68,8.68c-3.28,2.86-10.91,1.34-15-2.71s-5.25-11.37-1.53-14.93c4.68-4.47,7.31-10,10.59-15.28s8.73-9.73,13.69-14c4.38-3.77,3.15-10.43,8.47-13.9,3.88-2.53,8.48-6.6,9.25-10.66,1.26-6.66,8.61-8.35,9.53-13.25,1-5.48,4-8.62,7.46-11.71A34.72,34.72,0,0,0,701,991.9c1-2.86,1.66-6.16,3.56-8.29a65.64,65.64,0,0,0,10.67-15.27c2.71-5.56,8.56-9.58,13-14.28-1.42-8.58,10.1-9.51,10.22-18,.09-6,9.65-7.44,10-15.56.18-4.81,8-6.76,9.75-13,1.37-4.9,7.75-8.43,9-13.33,1.44-5.44,5.38-7.81,8.42-11.29,3.77-4.3,8.71-7.7,11.94-12.33,5.05-7.24,12-7,19.37-7,3,0,4.45,1.34,5,3.89A25,25,0,0,1,812,872.3Z"/><path d="M26.51,696.11c-1.64,0-3.5.51-4.86-.11-2.77-1.25-2.52-3.25-.17-4.91,3-2.1,1.21-3.63-.5-5.22-2.78-2.58-3.21-5.55-.67-8.34,6-6.58,14.37-12,17.72-19.67,3.9-8.9,11.74-13,17.06-19.85,2.12-2.72,3.75-5,3.31-8.49,5-2.4,4.05-8.21,6.89-11.87s7-5.8,8.25-11.38c.89-4.09,5.45-7.91,9.23-10.69,4.34-3.18,4.07-8.39,6.9-11.94,3-3.81,7.18-6.74,10.19-10.57,2.3-2.92,3-7.23,5.45-9.88,3.25-3.45,1.1-12.32,10-10.33.43.1,1.6-1,1.64-1.65.41-6.41,5.77-10.72,7-16.75,10.48-6.72,13.4-19.55,22.39-27.62,3.76-3.37,4.63-.46,7.18.87,3,1.54,2.95-1.43,3.47-3.69,1.22-5.4,1.84-5.53,5.08-2.24,5.33,5.41,5.38,5.43,2.38,11.83-.65,1.38-2.37,2.48-2.52,3.83-.55,4.77-.56,9.6-.94,14.39-.05.62-1,1.34-1.68,1.71-7.62,4.07-6.93,14.23-13.84,18.81-8.95,5.94-11.64,17.09-19.27,23.76-7.42,6.48-9.25,16.48-16.88,22.77-3.07,2.53-4.11,8-6.23,12-1.37,2.62-1.8,5.91-4.4,7.93-7.71,6-12,14.22-15.69,23-.58,1.39-.7,3.18-1.67,4.18-7.41,7.62-15,15.08-22.48,22.6-1.48,10.77-11.35,15-17.43,22.17C36.43,696.48,36,696.14,26.51,696.11Z"/><path d="M565.72,739.46c-.34,1.49-.29,3.26-1.11,4.43-3.07,4.44-7.55,7.2-9.37,13.42-1.61,5.53-10.2,8.76-12.66,14.36a42.14,42.14,0,0,1-9.16,13.4c-2.91,2.88-5.53,6.14-8.78,8.57-2.35,1.75-5.79,2-8.24,3.68-3.23,2.21-6.54,5-1.07,8.72.22.15-.89,3.21-1.3,3.19-6.82-.33-9.77,4.18-12.37,9.35-3.8,7.58-5.84,16.35-13.43,21.44-5.65,3.78-5.9,10.83-10.21,15.56-4.11,4.52-10.14,7.12-11.28,15-1.12,7.7-11.92,6.67-16.54,12.21a15.6,15.6,0,0,1-3.3-2.62c-2.59-3.25-6.07-1.31-9.11-1.79-4.35-.67-4.65-2-5.25-6.19-1-7.1,4.57-11.38,6.72-17,2.45-6.33,11.16-9.11,13.13-16.67,1.82-7,11.18-9.32,10.8-17.68,0-.55,1.08-1.16,1.66-1.74l20.86-20.85c1.75-10.58,10.66-15.86,17.6-22,7.36-6.56,9.29-16.49,17-22.74s14.12-13.59,20.72-20.82c4.89-5.36,11.3-11.23,14.51-11.92a4,4,0,0,1,2.43,0C560.28,722,566,736,565.72,739.46Z"/><path d="M62.05,425.16c-1.64,0-3.63.6-4.83-.12a31.66,31.66,0,0,1-7.32-6c-2.62-2.95,1.69-3.34,2.41-5.13,2.25-5.61,3.85-11.66,7.1-16.63,3.06-4.69,8.16-8,11.83-12.35,2.93-3.47,2.45-8.84,6.91-11.92,4-2.75,7-6.79,10.51-10.25,5.57-5.56,6.73-14.37,13.85-18.79-1-7,6.57-8.86,8.36-13.69,2.32-6.25,8.07-10.09,10.15-15.41,2.18-5.57,5.63-9.25,9.16-13.4,3-3.51,2-9.41,6.95-11.82s4.14-8.17,6.91-11.86,8.34-5.51,7.87-11.45c8.94-9.37,17.54-19.12,27.09-27.82,1.91-1.75,7.79-.4,11.15,1.09,2.63,1.16,1.57,10.18-1.28,12.95-2.18,2.12-3.6,5.62-7.68,5.1-3-.38-4.88,1.5-4.53,4.1.86,6.36-2.47,10.21-6.28,14.71-5,5.86-7.4,13.69-13.54,18.83,1.45,8.59-11.16,9.48-9.86,18-12.06,10.44-13.3,28.54-26.91,38-1.56,1.08-1.62,4.16-2.68,6.15-2.5,4.7-4.25,10.33-8,13.71-6.09,5.47-6.61,14.77-13.71,18.9-6.86,4-7,12.09-11.88,17.33-4.13,4.44-11.54,6.93-10.88,15.1.06.79-2.19,2.3-3.54,2.54A43.64,43.64,0,0,1,62.05,425.16Z"/><path d="M969.68,980.81c-.28-3.31-.47-7.22,3.58-10,8.1-5.59,12.67-14.18,15.72-22.85,2.14-6.05,9.48-8.29,9.67-13,.23-5.63,5.24-7.62,5.73-12.62.7-7.16,11.08-9.26,10.43-17.68,5.68-4.51,5-13.58,12.11-17,1.76-6.26,6.12-10.64,10.15-15.5,3.24-3.9,4.37-9.53,6.53-14.36.61-1.38,1.24-3.09,2.39-3.85,5.62-3.73,6.62-10.6,10.57-15.18,3.35-3.9,8.75-6.09,13.41-8.73.6-.34,2.25,1.12,3.39,1.8a10,10,0,0,1,4.44,12.65c-3.82,9.07-10.25,17-10.75,27.48,0,.57-2.66,1.38-4.1,1.43-3,.1-4.34,1.54-4.59,4.27-.43,4.74.09,9.81-1.51,14.1-1,2.72-2.53,5.48-3.8,8.2-2,4.17-6.33,7.22-9.73,10.69-4,4.08-8.27,7.93-12,12.23-1.4,1.59-2.61,4.28-2.34,6.25,1.1,8.06-2.12,13.73-8,18.92-3.36,3-2.1,9.31-7,11.71s-3.82,8.4-6.95,11.81c-3.3,3.61-7.11,6.78-10.26,10.52-1.37,1.63-1.37,4.33-2.45,6.29-3.24,5.82-3.33,5.76-13.64,3.34-.77-.18-1.65.1-2.44,0C969.57,990.15,969.58,990.14,969.68,980.81Zm68.25-74.62-1.75-3.18c-.55.55-1.63,1.22-1.54,1.62a15.24,15.24,0,0,0,1.54,3.31Zm-26.38,41.16c-.55.55-1.63,1.22-1.54,1.62a15.46,15.46,0,0,0,1.54,3.31c.55-.55,1.63-1.22,1.54-1.62A15.24,15.24,0,0,0,1011.55,947.35Z"/><path d="M208.36,600.72c-61.27,78.37-61.48,74.92-60.15,72.22,2.36-4.8,4.76-10.25,8.74-13.44,6.53-5.25,8-13.71,13.81-19,5.5-5,7.11-11.89,10.68-17.79,1.18-1.94,1.71-4.39,3.19-6,3.84-4.25,8.39-7.89,12-12.32,3.38-4.15,5.25-9.63,8.95-13.38,5.14-5.2,8.07-11.68,10-18,2.18-7.12,11.92-9,10.87-17.77-.06-.49,2.53-1.83,3.91-1.88,5.73-.22,11.48,0,17.21-.23.75,0,1.58-1.93,2-3.1.12-.31-1-1.56-1.65-1.61-2.44-.19-4.93.12-7.36-.16-1.45-.16-2.81-1.08-4.21-1.66a17,17,0,0,1,2.06-3.44c5.73-5.86,12-11.29,17.22-17.54,3.63-4.32,11.91-5.83,9.56-14.22a111.26,111.26,0,0,1,9.31-7.25c.84-.54,2.87.62,4.27,1.21a2.2,2.2,0,0,1,.58,1.61c-4.26,3-3.13,5-.35,9a10,10,0,0,1-1.87,13.11c-4.25,3.84-7.82,8.51-12.31,12s-4.6,8-4.65,12.95c-.05,4.69-4.79,2.93-6.81,4.46-2.72,2-2.93,7.58-5.69,9.4-7.19,4.76-6.62,14.81-13.79,19-6.82,4-6.4,12.81-12.18,17.1-6.67,4.93-7.78,13.37-13.39,19.34-5.38,5.74-7.15,14.93-12,21.87-.79,1.13.15,3.55-.69,4.56-5.52,6.64-11.93,12.11-16.09,20.38-3.86,7.65-12.32,12.93-18.55,19.44-2.83,2.95-6.15,1.06-9.2,1.59s-4.39-1.35-4.77-4c-.24-1.6-.05-3.27,61.33-86.45,60.61-80,59.94-81.14,59-81.9a2.12,2.12,0,0,0-2.06,0,2.09,2.09,0,0,0,0,2.07,10,10,0,0,0,2.9,2.24C268.36,523.25,269.17,522.2,208.36,600.72Z"/><path d="M1001.67,370.51c-41.61,36-41.46,32.2-39.47,30.43,7.25-6.44,8.94-17.15,17.31-22.4,5.94-3.73,4.48-11.68,10.26-15.64,4.65-3.19,8.24-7.94,12.3-12,4.64-4.64,9.81-8.88,13.77-14,3.73-4.89,5.21-11.18,10.48-15.4,5.72-4.58,10.55-10.29,15.77-15.52,4.64-4.64,8.94-9.7,14-13.79a99.4,99.4,0,0,1,15.61-9.75c3.08-1.65,11.2.39,11.07,2.34-.26,3.86,2.28,8.47-1.6,11.53-5.49,4.33-12,7.55-16.87,12.43s-8,11.51-12.53,16.78c-1.77,2-6,1.88-8.06,3.81-1.67,1.54.39,1.79,2.17,2.56a4.76,4.76,0,0,1,1.44,8c-6.91,5.84-10.35,13.72-13.36,21.63-1.3,3.41-3.57,5.27-5.7,7.46-10.32,10.57-20.55,21.24-31.37,31.27-7.11,6.59-9.49,16.42-17.16,22.61-3.81,3.07-7.6,2.51-11.38,2.21-3.51-.28-8.28-6.79-8.54-10.38-.11-1.63,0-3.28,41.83-44.1,42.17-37.26,41.9-38.18,41.9-38.95a38.23,38.23,0,0,0-6.86.13c-1,.19-1.79,1.75-2.49,2.81a3.4,3.4,0,0,0,1.56,1.52C1038.79,337,1041.66,336.91,1001.67,370.51Z"/><path d="M947,834c6.27,0,10.35,6.2,7.87,11.22-.34.68-.46,1.63-1,2-5,3.71-7.74,10-14.87,11.67-4.38,1-7.15,5-9.07,10-2.73,7.09-5.33,14.75-12.17,19.58-1.13.8-2.54,3-2.16,3.83,3.6,7.54-6.39,11-5.08,17.7-4,4.09-8,8.14-11.88,12.29a11.6,11.6,0,0,0-2.19,3.5c-.12.29,1,1.16,1.64,1.68,2.82,2.36,4.18,6.19,1.52,8.17-4.37,3.25-2.89,8.85-6.63,12.26-2.79,2.54-7.13,4.28-7.18,9.26,0,1.4-.67,3.5-1.71,4.08-7.54,4.25-7,14.27-13.79,19-2,1.38-3.39,3.58-5.28,5.13-2.93,2.39-5.77,2-8.38-.77a78.31,78.31,0,0,0-7-6.83c-.37-.31-2.16,1.28-3.38,1.79a28.06,28.06,0,0,1-3.46,1c-.4-1.47-1.62-3.48-1.06-4.33,3.34-5.14,5.54-10.9,8.68-16.17a106.64,106.64,0,0,0,9-18.33c2.19-6.13,7.33-10.29,10-15.56,3-5.79,8.81-10,10.25-15.27s5.9-8.79,6.71-14.64,10.52-7.64,9.56-15.58c8.8-12.71,29.93-36.18,39.9-45C939.59,832.43,943.68,835.06,947,834Z"/><path d="M812,361.12c-.66,3,1.11,6.16-1.62,9.2-6.84,7.61-14.82,13.82-19.78,23.66-4.19,8.34-15.2,13.14-19.81,21.4-6.07,10.86-15,18.53-23.06,27.23-3.59,3.86-6.88,2.76-10.18-.65a6.11,6.11,0,0,0-4-1.9c-2.92.13-4.88-1.17-5.12-3.69-.3-3.12-.77-7.23.86-9.33,3.84-4.93,7.55-9.64,10.64-15.27,2.88-5.24,7.22-9.85,10.26-15.43,2.63-4.83,8.27-7.92,11.74-12.42,3.77-4.88,11.65-7,10.7-15.18q7.74-7.86,15.49-15.7c4.61-4.66,9.26-9.28,13.89-13.91-.14-10.63,12.44-12.59,14.67-20.91,2.37-8.8,10-12.26,14.91-18.43,2-2.55,4.2-5.67,7-6.74,3.68-1.41,7.62-1.85,10-5.45,1.73,3.13,3,6.61,5.33,9.28,2,2.3,1.81,3.43-.19,5.35-5.31,5.11-10.49,10.37-15.67,15.61a101,101,0,0,0-14.4,18.51c-4,6.52-8.13,13-11.65,19.84-1.36.55-3.72.86-3.9,1.67C807.46,360.81,809.64,361.3,812,361.12Z"/><path d="M947.77,291.45c7.28,13.05-3.76,21.53-3,31.76.14,1.7-2.68,3.74-4.3,5.46-3.36,3.57-8.5,6.5-9.79,10.66-1.36,4.39-2,6.12-6.88,7.55-3.22.95-4.42,7.5-7.45,10.66a39.13,39.13,0,0,0-10.79,22.63c-.2,1.49-.34,3.6-1.32,4.29-8.73,6.21-12.53,16.23-19,24.14-3,3.67-7.77,6.89-8.78,11-1.56,6.42-9.47,8.3-9.68,13.06-.24,5.6-4.86,7.79-5.82,12.61-1.36,6.85-6.69,10.49-14.32,9.46-2.42-.32-4.93.16-7.36-.11-2.27-.26-6.21-.68-6.4-1.63-.73-3.71-1.77-8.74.07-11.29,3.64-5,7.48-9.68,10.48-15.37,2.8-5.3,4.23-11.47,9.73-15.93,4.44-3.61,5-11.39,10.73-15,2.27-9.08,11.4-13.39,15.16-20.8s8.31-13.77,14.55-18.34c6.91-5.07,7.15-14,13.61-19.2,5.73-4.57,12.48-9.41,15.34-15.69C928.17,309.09,939.17,302.12,947.77,291.45Z"/><path d="M450.31,420.24c-3.28,0-6.6.29-9.81-.16-1.09-.16-2.73-2.18-2.73-3.36,0-7.09-1.58-14.26,5.61-19.92,4-3.14,5.79-9,8.93-13.32,3.63-5,10.9-7.55,10.37-15.38,4.06-4.06,8.4-7.87,12.05-12.27,1.84-2.22,1.79-6.14,3.77-8.11s5.72-2.06,8.14-3.76c3.28-2.31,4.94-5.47,5.73-9.95.59-3.3,6.54-5.38,8-8.88,2.6-6.36,5-13.45,9.33-18,4.61-4.83,6.89-10.48,9.82-15.84,3.25-5.94,5.41-12.57,9.06-18.3,1.52-2.39,3.39-5.67,7.46-5.48,3.06.14,9.5,5.33,9.86,9.14.28,3.05.45,7.16-1.26,9.15-4.74,5.54-10.63,10.08-8.64,18.75.19.85-2.71,2.07-3.21,3.47-5.68,15.76-16.24,29.19-21.43,45.22-.9,2.79-3.83,5.45-6.51,7-7.45,4.39-6.65,14.79-13.9,18.8-4.59,2.53-9,3.77-10.38,10.2-.9,4.28-7.92,5.61-8.42,11.19-.69,7.57-11.53,9.16-10.53,17.86,0,.5-2.5,1.68-3.93,1.87A56.41,56.41,0,0,1,450.31,420.24Z"/><path d="M339.11,279.56C340.78,287,336,292,331.5,298c-3.83,5.12-8.85,11.22-7.15,19,1.21,5.51-1.4,9.15-5.31,12.57a46.25,46.25,0,0,0-12.45,16.91c-1.75,4.06-1.7,9.56-6.67,12s-4.14,8.24-7,11.8c-3.41,4.24-7.63,7.38-9,13.56-1.09,4.92-9.63,6.3-8.91,13.46.06.61-.61,1.42-1.13,2-3.43,3.5-6.57,7.44-10.49,10.3-4.27,3.13-2.29,9-6.7,12.19-4.16,3-11.17,4.79-15.18,1.92-5.51-3.95-7.95-12.2-4.75-16.76s8.36-6.73,9.25-13.51c.52-3.91,8.36-6.88,8.85-10.78.87-6.94,6-9.48,9.79-13.17,3.63-3.53,4.23-8.5,7-11.81,4.11-4.85,3.39-12.26,10-15.76,5.68-3,7.48-9.68,10.83-14.93,2.89-4.53,5.9-9,8.8-13.51,3.33-5.15,3-12.71,9.88-15.81,1.63-.74,3.3-4,3-5.84-.79-5.64,1.79-9.19,5.67-12.52,2.4-2.05,4.66-4.12,4.55-8-.07-2.47,1.9-4.11,4.93-3.77,2.41.27,5-.28,7.27.32,1.07.28,2.1,2.37,2.32,3.77C339.38,274,339.11,276.46,339.11,279.56Z"/><path d="M447.49,274.11c-.12.71.19,4.33-1.37,6.74-1.75,2.7-4.17,4.72-3.59,8.38.54,3.35-.48,6-2.94,8.65-1.92,2.09-1.69,6.47-3.76,8-4.27,3.2-2,9.26-6.67,12.19-4,2.53-7,6.4-7,11.71-9.9,8.18-16.59,18.55-20.76,30.61-7.66,4-7.34,13.72-13.73,18.92-6.06,4.93-6.85,14.22-14,18.63,1,7-5.11,9.54-8.72,13.5-3.23,3.54-6.63,6.61-7.14,11.89-.08.8-5.08,2.44-6.15,1.6A99.9,99.9,0,0,1,339.47,413c-.83-.92-.72-3.24-.27-4.66.94-2.94,5.37-3.7,4.88-7.8-.57-4.79,3-4.56,6.25-5,2.52-.37,3-2.56,3.74-5.09,3.26-11.24,12.22-19.26,17.74-29.34,2.5-4.56,5.69-9,8.5-13.64,2.9-4.75,7.69-8.4,11.92-12.24,3.61-3.29,5-7.66,7.32-11.63,1.95-3.39,2.59-7.34,4.85-10.28a51.16,51.16,0,0,1,10.38-10.35c4.33-3.11,2.8-8.61,6.49-12.31,2.83-2.85,3.89-8,6.36-11.91,2.36-3.77,3.36-8.38,5.11-12.56,1.12-2.68,10.12-5.13,12.43-3.28a7.56,7.56,0,0,1,2.23,3.91C447.78,268.32,447.49,270,447.49,274.11Z"/><path d="M900.72,85.2c-.57,1.4-.83,3.06-1.76,4.16-3.52,4.16-7.84,7.21-9.05,13.55-.78,4.07-7.6,6.93-8.49,11-1.43,6.54-9.21,8.37-9.6,13.1-.44,5.47-6,7.55-5.61,12.6.06.79.24,1.91-.18,2.34-4.55,4.71-11.24,8.56-13.3,14.13-2.42,6.53-6.77,10.51-11,15.12-3.27,3.6-8.93,6.73-9.51,10.66-.87,5.84-5.07,7.92-7.82,11.63S816,199.08,817,205.16c-5.6,5.86-11,12-16.89,17.49-3.77,3.52-17.14-2.79-17.54-8-.11-1.49,0-3.93.84-4.42,4.78-2.71,3.14-8.7,6.74-12.12,3.3-3.13,7.51-5.5,7.63-11.69,0-3,5.48-5.62,8-8.79,2.36-2.95,1.28-7.56,5.18-10.19,3.32-2.25,5.87-5.65,8.76-8.55,4-4.05,8.23-8,12.12-12.18,4.22-4.56,8.86-8.35,10.94-15.14,1.47-4.84,9.22-7.55,11.35-12.44,6.76-15.55,21.36-23.76,31.55-36,3.73-4.49,8.67-3,13.24-1.9C899.78,81.4,900.12,83.8,900.72,85.2Z"/><path d="M1167,282.32c-.38,3.26.24,6.72-1.09,7.82-7.26,6-11.35,16-22.14,17.86-.88.15-2.28,5-1.41,6.24,2.12,3.1,6.21,4.94.85,9-3.9,2.93-7.2,6.72-10.42,10.43-.85,1-.95,3.24-.47,4.59.82,2.31,2.17,3.64,4.69,1,3.75-4,10.58-3.32,13.59-8.75s8.51-3.51,13.18-3.74c.6,0,1.82,1,1.76,1.33-.18,1.21-.52,3-1.36,3.38-2,1-5.14.56-6.48,2-8.14,8.66-18.43,15.44-22.9,27.39-2.44,6.51-10.93,5.18-15.44,10.31-9.74,11.06-20.63,21.13-31.15,31.5-4.55,4.5-11.78,3.83-16.79-1.27-4-4.13-5.1-11.21-1.2-15,8.09-7.78,10.91-19.68,20.79-25.92a26.68,26.68,0,0,1,10.51-15.28c5.57-3.92,5.4-11.27,10.33-15.53,4.33-3.75,8.18-8.06,12.24-12.12,4.64-4.65,9.63-9,13.82-14,3.43-4.1,5.59-9.26,8.91-13.47a71.35,71.35,0,0,1,10.44-10.41c1.63-1.36,4.5-2.46,6.34-1.95C1165.22,278.09,1166.13,281,1167,282.32Z"/><path d="M634.68,728.41c3,7.94-3.7,13.29-5.72,19.83-1.53,5-8.75,6.43-9.37,13.43-.47,5.45-8.67,6.92-9.57,13.18s-7.19,8.41-10.33,13-5.16,9.77-8.94,13.41-4.51,8.1-6.88,12c-3.61,6-5.8,13-12.08,17.18-.61,7.08-6.51,10.52-10.36,15.44-6.26,8-12,12.27-19,12.8-4.46.33-6.21-1-6.31-5-.27-10,0-11.25,4.91-20.14.35-.65,0-1.82.42-2.26,5.07-5,9.5-10.22,12.39-17.06,2.43-5.74,10.49-7.64,11.88-14.79,1.19-6.1,6.82-8.78,10.6-12.81,5.41-5.77,6.68-14.51,13.85-18.93-1.79-8.85,8.1-10.77,10.55-17.84,3.16-9.14,12.56-15.59,14.27-26.08.11-.67,15.2-8.24,16-7.87,1.34.61,3.34,1.62,3.49,2.68C635,721.8,634.69,725.13,634.68,728.41Z"/><path d="M311.79,595.49c-41.47,48-42.75,42.93-37.42,39.64,7.05-4.36,9-12.87,14.18-18.55,5.47-6,7.55-13.35,11.23-20.05,1.5-2.72,3.44-6.09,6-7.16,5.19-2.16,12.31-3.91,12.92-9,.64-5.36,5-7.75,5.89-12.55,1.36-7,6.43-10.82,14.13-9.64,2.89.45,4.59-1,5.23-3.54.4-1.54,0-3.27.09-4.9.19-3.18-.72-7.55,1-9.26,2.57-2.55,4.75-5.48,7.36-8,5.33-5.11,10.59-10.29,15.63-15.67,2.47-2.63,5.68-4.51,8.28-2.35,2.86,2.37,7.37,4.23,7.11,9.19-.23,4.43,2.12,10.16-6.31,10.07-4.21,0-2.42,5.2-4,7.3a74.13,74.13,0,0,1-12,12.24c-4.46,3.72-6.32,8.66-8.85,13.58-3.15,6.15-6.3,12.38-11.73,17.43-5,4.66-7.95,11.48-12.47,16.79-4.77,5.59-10.35,10.49-15.53,15.75-1.1,1.11-3,2.61-2.81,3.66,2.17,13.44-9.86,17.74-16.6,25-3.49,3.79-2.4,8.88-6.5,12.33-5.66,4.77-12.61,4.24-15.45-2.72-.87-2.13-.9-4.59,40.64-59.65,40.92-55.11,40.26-56.21,39.32-57a1.47,1.47,0,0,0-2.09,2.08,10,10,0,0,0,2.91,2.24C352.11,543,352.92,541.9,311.79,595.49Z"/><path d="M672.05,218.26c-6.43,0-10.08-5.28-7.81-11,.28-.7.35-1.62.85-2.09,4.59-4.37,9.18-8.72,10.39-15.38,11.53-9,15.76-24.23,27.86-32.63,4.41-3.06,4.61-8,6.89-12,3.48-6.09,6.06-12.89,12.16-17.06,7.52-5.15,10.36-13.77,15.64-20.57S752.48,96.93,753.64,87c5.21-5.21,10-11.08,15.86-15.33,2.54-1.84,7.51-.54,11.33-.16.68.06,1.52,2.62,1.57,4,.18,4.92-5.48,6.92-5.79,12.51-.22,3.78-7.65,6.86-8.48,11-1.34,6.61-8.82,8.32-9.59,13.19-.9,5.66-3.94,8.82-7.54,11.65-4.1,3.25-2.16,9.11-6.72,12.18-4,2.7-7.06,6.78-10.53,10.26s-6.93,7-10.39,10.45c2.2,5.72-5.46,7.54-5,12.71a5,5,0,0,1-2,4c-7.56,4.23-7.39,13.77-13.7,19.09-6.59,5.54-12.76,11.61-16,20.31C684.27,219.17,677.72,218.83,672.05,218.26Z"/><path d="M627.32,287.21c9.08,9.69,8.39,10.46,4,20.93-4.74,11.39-15.26,19.41-17.74,32-.13.68-2.73,1-4.22,1.27-5.63,1-4,3.4-1,5.63,2,1.5,2.34,2.94-.1,3.42-4.94,1-8.52,1.8-8.72,8.48-.12,4-9.55,0-9.61,7.89,0,3.08-4.41,6.3-7.13,9.14-3.56,3.73-3.19,7.08.55,10.11,1.82,1.48,2.43,2.94.65,3.43-5.78,1.6-.55,12.58-9.76,11.19-1-.16-3.58,1.95-3.44,2.53,2.41,10-4.91,15-10.91,20-4.11,3.43-3.48,8.51-6.61,12.2-3.73,4.41-8,5-13,4.42-1.4-.16-3.78-1.37-3.81-2.18-.35-8.15-.3-16.31-.37-24.47,4.48-2.73,4.1-8.2,6.73-11.94,4.06-5.77,11.5-8.69,13.11-16.71,1.24-6.19,10.77-7.65,9.72-15.59,3.94-4.09,7.58-8.56,11.92-12.17,3.93-3.28,1.86-9.56,6.84-12,5.63-2.74,5.12-9.4,8.56-13.68,4.36-5.42,12.8-8,12.26-17,4.09-4.69,8.91-8.35,10.89-15.2C617.52,294.36,623.44,291.09,627.32,287.21Z"/><path d="M674.1,776.26c.13-4.83-.37-9.21,4.11-13.29s11.51-7.07,10.67-15.13c4.06-4.07,8.3-8,12.09-12.27,1.43-1.62,1.42-4.45,2.76-6.18,5.23-6.79,7-16,14.72-21,1.35-.88,3.07-2.1,3.4-3.47,3.31-13.48,14.49-21.91,20.84-33.3,2-3.68,4.92-6.11,7.14-9.3,2.66-3.83,7.37-5.72,8.37-11.4.6-3.39,4.64-6.26,7.32-9.18s5.5-6.22,8.8-8.56c1.49-1,4.45-.61,6.49,0,.88.26,1.49,2.62,1.61,4.07.69,8.47-4.12,15-9,20.75-4,4.67-5.3,9.07-6,15-.79,6.22-3.76,1-6-.13-.75-.39-3.21.57-3.27,1.08a52.42,52.42,0,0,0-.21,9.78,9.25,9.25,0,0,1-3.36,8.53c-3.57,3.1-7.44,6.14-7.32,11.83,0,.62-4.2,1.08-6.24,2-2.62,1.25-2.75,3-.41,5,.84.72,1.7,2.69,1.3,3.34-2.44,4-8.58,5.64-8.54,11.21,0,6.66-5.91,3.72-8.4,6-2.87,2.67-2.62,6.94-4.82,10.38-3.09,4.84-13.3.42-11.43,9.45,1.17,5.67-4.7,8.52-4.72,12.76,0,6.29-1.86,10.82-6.6,14.66a97.31,97.31,0,0,0-7,6.92c-2.32,2.31-2.08.63-8.77-.34C674.72,784.42,673.37,781.91,674.1,776.26Z"/><path d="M743.07,297.51c1.27,5.25-3,8.45-4.66,12.67-3.48,8.8-6.91,17.46-14.66,23.27-4.22,3.16-4.81,7.83-6.85,11.94-1,2-2.7,3.84-3.31,6-2.37,8.28-11.59,10.94-14.83,18.38-3,7-5.8,14-11.08,20-5.09,5.79-7,14.17-14,18.6-5,3.14-4.47,8-4.57,12.86-.06,2.59-1.68,4.46-4.74,3.95s-5.28,1.48-4.85,3.76c1.88,10.13-6.19,14.2-11.62,19.72-1.3,1.33-4.46,1-6.78,1.12-4.91.23-5.94-.93-6.46-4.79-1.38-10.1,3.21-18.23,8.75-25.77,2.78-3.8,5.34-7.26,7.26-11.74a74.37,74.37,0,0,1,4.87-10.21c2.1-3.37,5.71-5.78,8.46-8.79,5.79-6.34,7.86-15.39,15-20.72-1-5,3.23-6.91,5.72-9.89,4.6-5.48,11.88-8.94,13.85-16.3,1.87-7,8.92-9.17,12-14.65s5.18-11.25,10.4-15.36c3.65-2.86,2.27-8.95,6.92-11.87,3.31-2.08,6.35-5,5.55-10-.07-.47,4-2.32,6-2.23,2.48.12,3.94,2.2,3.56,5.1A39.55,39.55,0,0,0,743.07,297.51Z"/><path d="M624.83,64.8c1.12,6.2-1.7,10.72-6.33,14.5-1.26,1-3.5,2.57-3.3,3.41,2.26,9.7-5.14,14.45-10.07,20.47,1.41,8.57-11.18,9.47-9.85,18-3.23,3.57-5.95,7.88-9.8,10.55-7,4.82-9.47,12.52-13.47,19.11-2.35,3.89-3.56,8.32-7.12,11.76-11.76,11.35-23.49,22.78-34.63,34.73-5,5.4-12.11,6.74-17.64,11-2.27,1.74-6.16-1.54-5.94-5.05.19-3-1.45-6.49,1.77-9.07a38.71,38.71,0,0,0,5.21-5.19c5.69-6.71,14.08-11.19,17.48-19.72,3.48-8.75,13.14-12.31,16.89-20,5.09-10.48,15.27-16.53,20.58-25.87,4.48-7.88,10.34-13.82,16.13-20.22-1.23-9.2,11.79-11,10.54-20.16,4.57-4.64,11-8.56,13.2-14.14,2.3-5.82,5.78-7.79,10.56-10,4.61-2.14,5.66-2.34,5.78,1C624.88,61.47,624.83,63.11,624.83,64.8Z"/><path d="M888.23,213.36c-4.26,1.27-7-1.86-9.62-5-.78-.92-1.8-2.92-1.45-3.33,5.61-6.49,6.67-15.56,12.1-21.93a142,142,0,0,1,19.07-19c7.11-5.67,8-15.25,15.28-20.86,7.06-5.44,12.25-13.33,19.39-18.61,6.28-4.65,6.5-12.5,11.86-17.35,6-5.47,11.61-11.48,17.39-17.25,5.19-5.2,10.32-10.46,15.62-15.55,1.66-1.59,3.66-3.56,5.68-3.79,1.77-.21,5.37,1.76,5.4,2.83.07,3.78,1.83,8-1.81,11.4-4.77,4.45-8.9,9.67-14,13.69-5.85,4.62-8.75,11.09-11.76,17.28-2.4,4.93-4.12,9.45-10.33,10,.09,8.22-9,10.85-10.8,17.53-.91,3.46-2.3,6-4.81,7.79-6.8,4.76-9.22,12.55-13.86,18.79-4.17,5.59-11.52,8.9-12,17.09-8.66,8.66-17.26,17.39-26.08,25.88C892.61,213.81,890.38,213.25,888.23,213.36Z"/><path d="M509.48,56.11c3.08,3.67,10.36,6.54,2.15,12.37-.77.54-.08,3.12-.11,4.75s.42,3.52-.28,4.77c-3,5.32-8.15,10.16-9.06,15.74a42.38,42.38,0,0,1-5.34,15.08c-3,5.21-4.31,11.78-8.22,16s-5.63,9.22-8.53,13.73-7.24,7.53-9,13.52c-1.42,4.82-9.21,7.55-11.25,12.43-4.23,10.1-12.65,16.14-19.28,23.92-1.86,2.18-1.77,6.13-3.74,8.1s-6,1.85-8,3.81-2.06,7.27-3.77,7.67c-4.63,1.07-9.71.51-14.57.11-.89-.07-2.25-2.43-2.26-3.74,0-3.85-1.3-8,2.61-11.17,3.16-2.56,5.47-6.24,8.79-8.49,10.28-7,13-20,22.44-27.54-.41-6.61,4.58-10,8.72-13.47,8.15-6.82,8.26-18.36,15.53-25.45S480,103.34,482,92.89c4.61-2.64,3.58-8.82,6.87-11.77,7.77-7,9.74-18.37,18.91-24.11C508.3,56.67,508.91,56.41,509.48,56.11Z"/><path d="M590.36,208.51c-4.69,0-6.47-4.34-9.08-7.1-1-1.08-.67-5,.52-6.34,5.47-6.1,11-12.29,17.39-17.35,4.74-3.75,4.76-9.76,8.61-13.65,13.2.54,11.66-13.34,18.48-19.31,7-6.11,15.87-11.28,18.48-21.69.69-2.76,4.15-4.77,6.14-7.27,4.42-5.56,11.83-8.75,13.33-16.61,1.25-6.51,11-7.6,9.87-15.59,3.29-3.56,6.71-7,9.82-10.71s7.51-2.37,11.32-2.26c2.48.08,3.36,2.37,3.61,5.17.68,7.71-4.48,13.13-7.7,19-2.55,4.62-6.72,8.16-8.68,13.69-1.71,4.86-9.39,6.69-8.37,13.73l-12.17,12.18c-4.06,4.06-7.65,8.8-12.29,12-7,4.85-8.71,13.07-13.84,19-4.63,5.32-10.77,9.26-12.43,17.07-.52,2.48-4.42,5.78-7,6-5.61.42-4.92,3.93-6.76,7.49C606,202.92,597.56,205.09,590.36,208.51Z"/><path d="M1043.57,154.22c.18,5-4.09,7.25-7.06,9.18-11.6,7.53-12.25,7-17.34,17.07-2.41,4.73-7,2.2-9.79,5.24-7.73,8.41-16,16.33-24.16,24.36-4.89,4.81-15.92,4.54-21.65-.38-2.76-2.37-2.25-2.67-.67-7a79.52,79.52,0,0,1,22.5-32.45c3.94-3.51,8.07-6.77,9.49-13.26,1-4.71,7.43-8.24,11.4-12.32,3.82-3.93,7.72-7.4,9-13.49.73-3.36,4.89-7.1,8.38-8.52,10-4.1,16.94-11.78,23.69-19.45,3.5-4,9.6-1.76,12.08-6.73.87-1.74,3.07-1.44,3.25.71.31,3.8.32,8-1,11.44-1.1,2.79-4.59,4.54-6.65,7.06-7.49,9.17-19,14.89-22.77,27.35-1,3.15-8.07-.65-8.65,5.84-.32,3.53-3,6.84-4.69,11.34,0,.37.28-.65-.08-1a2.16,2.16,0,0,0-2.08,0c-1.62,1.14-3.65,2.54-.68,4.28.39.23,1.87-1.38,2.84-3.24,6.17-1.37,12.82.71,17.58-5.86C1037.36,153.23,1041.15,154.22,1043.57,154.22Z"/><path d="M129.81,223.36a98.27,98.27,0,0,1-7.33-8.35c-.69-1-.31-3.35.43-4.55,2.83-4.61,8.91-6.39,9.58-13.3.59-6.15,10.94-7.41,9.57-15.54,4-4.07,8.52-7.74,11.75-12.33,3.54-5,4.74-11.76,10.56-15.15,6-3.49,6.49-10.57,10.44-15.26,4.2-5,9.18-9.29,13.74-14,1.08-1.1,2.38-2.38,2.68-3.76,1.3-6.11,4.91-11.23,8-16.25,3.33-5.41,9.65-8.92,13.37-14.18,4-5.68,6.7-12.23,12.24-17,5.35-4.59,8-4.37,13.68,1.95,2.52,2.79,3,5.43.72,8.4-4.36,5.59-10.38,9.45-13.77,16.33s-11.75,11.75-13.83,18.72C209.47,126.45,199,128,201.17,137c-4.61,4.62-11.18,8.49-13.32,14.06-2.48,6.42-6,11.4-11.06,14.87-5.22,3.63-3.9,10.23-8.41,13.89A92.49,92.49,0,0,0,158,190.15c-.9,1-.54,3-1.21,4.36-2.39,4.74-4.41,9.82-7.64,13.93-4,5.1-9,9.46-13.8,13.89C134.4,223.21,132.38,222.93,129.81,223.36Z"/><path d="M432.51,63.71c.79,6.61-.12,11.13-4.73,14.2,2.56,6.49-7.61,8.57-5.21,15-5,2.38-4.11,8.13-6.8,11.93-3,4.31-6.07,9-7.38,14-.91,3.49-2.4,6.08-4.93,7.73-4.49,2.94-4.17,8.36-7,11.81-1.7,2-5.31,2.5-8.06,3.67,2.76,11.12-6.09,16-12.41,21.72-5,4.45-7.24,10.08-10.22,15.51-8.18,14.88-9.59,16.3-25.71,25.7-4.42,2.58-4.42,2.58-6.94-.17-4.4-4.81-4.92-7-2.49-10.12,3.31-4.25,9.66-6.58,8.67-13.58,4-4,8.42-7.82,12-12.23,2.35-2.87,3.42-6.74,5.35-10s6.57-4.62,7.23-9.31c.3-2.11,1.88-4.13,3.15-6,3.49-5.21,9.33-8.08,11.92-14.7,2.19-5.59,8.85-9.25,12.13-14.63,4.7-7.72,8.31-16.13,12-24.41C408.17,78.58,416,69,422.46,58.65c.78-1.25,2.44-2.83,3.62-2.77,2.17.1,5.26.73,6.18,2.23C433.34,59.88,432.51,62.81,432.51,63.71Z"/><path d="M169,404.88a55.9,55.9,0,0,0-5.81-4.29c-1.95-1.1-5.6-1.27-6-2.62-.92-3-1.46-7.19,0-9.57,2-3.33,5.49-5.75,4.91-10.31,8.67-6.18,10.23-18.17,19.18-23.91,5.92-3.8,4.74-11.44,10.15-15.72,4.08-3.22,9.31-6.1,10-12.94.67-6.26,9.53-7.73,10-15.57.33-5.08,8.9-6.75,9.42-13.15.4-4.81,7-6.88,5.42-12.51,4.63-4.63,9.22-9.31,13.91-13.89,4.49-4.38,6.17-4.28,11.78,1.27,1.16,1.16,5.28,2.43,1.47,5.11-9.55,6.72-9.77,19.31-17.34,27.24-.33,6.42-4.29,11.62-7.34,16.53-2.84,4.58-2.6,10.95-7.88,14,1.06,5-3.23,6.88-5.52,10-2.66,3.65-4.76,7.71-7.11,11.59-6.19-1.33-8.09,4.39-11.78,7.17,2.24,10.8-7.16,15.08-11.84,22.2-3.87,5.9-7,12.16-12.47,16.87C171.08,403.37,169.88,404.18,169,404.88Z"/><path d="M1102.38,178.83c-5.35,1.09-9.11-1.39-12.5-5.29-2.48-2.85-3.25-5.82-.48-8.34a36.73,36.73,0,0,0,10.38-15.35,41.86,41.86,0,0,1,5.18-10.06c1.84-2.64,5.38-4.31,6.61-7.09,1.56-3.52,1.63-7.75,5.41-10,4.57-2.7,4.29-8.24,7.06-11.73,3.88-4.89,4.18-11.52,10-15.68,8.34-5.93,11.82-16.2,17.7-24.39,8-11.21,9.79-14.07,21.91-20,2.32-1.13,3.53-7.34,6.66-3.21,1.85,2.45.91,7.57.09,11.24-.45,2-3.41,3.37-4.93,5.27-3.36,4.2-9.71,6.51-8.76,13.5-4.66,3-5.22,7.53-5.13,12.66,0,1.93-1.75,4.6-3.49,5.72-5.13,3.31-4.9,9.78-8.64,13.61-3.92,4-7.13,8-8.87,13.55-.83,2.67-3.83,4.68-3.55,8.35.17,2.21,0,5.55-1.41,6.59-9.26,7-10,19.15-17.08,27.36-.88,1-.53,3-1.13,4.39C1114.58,176.49,1109.88,180.05,1102.38,178.83Z"/><path d="M260.86,189.1c-1.61-.9-4.81-1.63-5.23-3.14-.85-3-.26-6.46,0-9.71,0-.61,1-1.22,1.67-1.73,9.47-7.63,14.36-18.1,19.55-28.78,2.22-4.58,2.53-11.1,8.26-13.84,5-2.38,3.47-8.85,7.05-11.76,5.14-4.19,7.34-10,10.49-15.39,2.32-4,2-9.21,6.73-12.09,3.42-2.09,4.22-6.1,5.76-9.82,2.27-5.46,9.69-8.17,10.12-15.55.07-1.22,2.16-2.33,3.32-3.49,3.48-3.48,7-6.93,10.44-10.44,4-4.08,8.73-3,13.27-1.56.9.29,1.57,2.69,1.52,4.09s-.75,3.44-1.81,4c-7.56,4.24-7.52,13.69-13.67,19.16-5.1,4.53-5.91,12.57-9.56,17.9-3.52,5.13-3.5,12.48-9.72,15.85-1.38.75-3.15,2.12-3.37,3.44-.8,4.78-5.15,8.13-5.76,12.32-1,6.75-9.05,8.45-9.48,13.21-.49,5.44-5.84,7.56-5.72,12.61a5.24,5.24,0,0,1-1.84,4c-8,4.82-7.7,15.72-15.51,20.8-3.37,2.19-5.61,6.05-8.89,8.43C266.73,188.93,263.89,188.6,260.86,189.1Z"/><path d="M856.27,671.48c-1.39-.6-3.23-.83-4.08-1.87-2.34-2.89-5.27-2.92-8.6-3.18-6-.46-8.19-3.53-6.84-9.11.51-2.15,2-4.08,3-6.13,2.29-4.77,5.24-9.37,6.63-14.41,1.46-5.29,6.68-6.93,8.87-11.09,2.45-4.66,3.56-10.07,6.26-14.54,2.44-4,8.49-7,8.94-10.91.78-6.8,6.26-9,9-13.6,2.37-3.91,2.41-9.28,7.07-11.76,4.84-2.57,3.31-8.63,6.88-11.92s6.69-7.26,10.52-10.28a110,110,0,0,1,13.6-8.62c.37-.21,2.6,1.48,2.79,2.5,1.55,8.44-3.9,14.75-7.5,21.34-2.26,4.14-7,6.86-10.07,10.64-1.34,1.61-1.44,4.27-2,6.48s-.28,5.39-1.68,6.57c-8.06,6.76-9.74,18.41-18.95,24.17-4,2.48-4.11,6.38-4.18,10.59,0,2.07-1.39,4.45-2.82,6.1-3.22,3.69-6.92,6.95-10.32,10.5-2.49,2.6-2.41,2.73.53,8.36,4.71,9,4.23,12.48-2.85,18.46C859.35,670.69,857.68,670.93,856.27,671.48Z"/><path d="M1046,572.5c6.86,10.21-1.17,17.07-4.49,24.13-2.57,5.44-10,8.49-8,16.47.27,1.08-1,3.08-2.15,3.88-5.45,3.86-7.08,10.18-10.55,15.29a55.93,55.93,0,0,1-12.07,12.17c-4.55,3.55-4.87,7.89-4.73,12.9.09,3.06.39,6-1.9,9.07-3.22,4.33-9.17,3.61-11.76,7-2.13,2.8-1.77,7.61-5.53,9.86-1.94,1.17-4,2.7-6.15,2.82-6.53.37-13.1.26-19.65,0-1.35,0-2.65-1.39-4-2.14a22.12,22.12,0,0,1,3.4-2.63c2-1,6-2.12,6-2.55-1.74-9,10.18-9.88,10.36-18.08.14-6.5,10.22-7.58,10-15.6-.07-2.32,3.84-4.85,6.08-7.15,4.57-4.69,9.59-9,13.77-14,3.42-4.1,5.26-9.61,8.94-13.38,6.12-6.27,7.68-15.47,15.31-20.93C1035.3,585.1,1040.23,578.46,1046,572.5Zm-54.9,93.34,3.18-1.75c-.55-.55-1.22-1.63-1.62-1.54a15.46,15.46,0,0,0-3.31,1.54C989.93,664.64,990.48,665.18,991.13,665.84Z"/><path d="M483.85,566.09c8.69,5.71,5.93,7.18.89,7.15-.91,0-1.76,3.78-2.78,5.74-3.38,6.46-4.18,6.6-13.2,3.91a6,6,0,0,0-4.57.61c-3.87,2.71.79,3.44,1.48,5.1.29.7,1.4,1.08,1.63,1.78.81,2.34,6.95,2.9,2.58,6.86-2.27,2-3.45,5.64-7.61,5.33a114.33,114.33,0,0,0-12.28,0c-.6,0-1.76,1.27-1.64,1.59.42,1.17,1.06,2.77,2,3.12,1.45.52,3.27-.11,4.85.19,2.23.43,6.13,1,6.26,2,.49,3.75,1.17,8.59-.71,11.32-3.65,5.31-8.82,9.63-13.66,14-3.4,3.09-6.39,9.9-11.48,6.68-3.9-2.48-5.9-8.67-7.61-13.61-.92-2.66-.62-7.44,1.14-9,4.21-3.77,2.5-12.56,11.62-12.51,3.34,0,1.17-5.66,1.79-8.68s-1.68-8.49,1.68-8.74c7.37-.56,7.21-6.56,10.2-10.43a53.06,53.06,0,0,1,10.45-10.29c1.6-1.17,4.77-.19,7.23-.19-.56-3.11,1.4-4.13,3.87-5,2.14-.72,4.54-1.36,6.17-2.78,2.81-2.46,5.77-3.38,8.32-.7,1.38,1.46,1.21,4.38-6.63,6.51-8,3.85-8.64,2.75-9.58,2a1.47,1.47,0,0,0-2.09,2.08,9.85,9.85,0,0,0,2.91,2.24C475.27,572.51,476.07,571.46,483.85,566.09Z"/><path d="M477.05,553.25c.36-4.38-2.09-9.92,6.25-10.16,3.57-.1,7-7.06,10.71,0,2.31-2.12,5.07-3.93,6.8-6.45,2-2.94.93-5.89-1.76-8.35-.76-.69-1.4-2.81-1-3.29,2.67-3.07,5.6-5.92,8.55-8.73,3.76-3.56,6-3.46,10.07.25,6.3,5.79,6.45,7.62.7,13.51-1.59,1.63-2.77,4.27-7,3.48h1.1c0-.73.29-1.67,0-2.16-1.15-1.62-2.55-3.64-4.29-.68-.23.4,1.38,1.87,3.24,2.84,1.67,4.88,1.27,9.86-3.7,12-7.31,3.14-13.45,9.88-22.66,7.78C481.84,552.81,479.39,553.25,477.05,553.25Z"/><path d="M609.33,614.82c-2.73,4.62-5.22,9.43-8.34,13.78-1.21,1.68-3.8,2.43-5.86,3.42-.65.3-2,.3-2.31-.1-.7-1-1.66-2.83-1.26-3.31a76.86,76.86,0,0,1,6.84-7c3.66-3.47-.45-3.38-2-4.25-1.87-1.06-3.91-1.81-5.87-2.69a34.4,34.4,0,0,1,3.5-3.44,43.78,43.78,0,0,1,5.81-3.73,101.19,101.19,0,0,1,10.26-4.87c1.42-.55,3.24-.09,4.87-.09-.57,1.4-1.07,2.84-1.75,4.18-1.34,2.69-2.79,5.33-4.2,8Z"/><path d="M637.26,563.25a73,73,0,0,1,5.94,6.09c.43.55-.21,2.43-.89,3.26-1.5,1.86-3.22,4.6-5.07,4.79-1.52.16-3.21-3.87-5.12-4.17-2.22-.35-3.64-.6-2.24-2.59C631.69,568.06,634.35,566.09,637.26,563.25Z"/><path d="M619.91,596a15.71,15.71,0,0,1-1.06,4.88c-.44.94-2.53,1.11-3.87,1.63.59-3.91-3.79-4.71-4.67-7.39-.58-1.8.34-4.4,1.32-6.25.46-.86,2.66-1.06,4.07-1.08,2.66,0,4.09,1.51,4.2,4.19C619.94,592.75,619.91,593.53,619.91,596Z"/><path d="M651.77,553.41c.65,1.15,2.27,2.85,2.49,4.72.44,3.68-2.08,5.64-5.93,4.92-2.46-.46-4.1-1.75-3.86-4.82C644.77,554.51,646.73,552.71,651.77,553.41Z"/><path d="M968,695.33c-1.47.26-3,.94-4.41.66s-2.51-1.52-3.76-2.34c1.25-.83,2.41-2.07,3.76-2.35A9.37,9.37,0,0,1,968,692c.68.22,1.58,1.07,1.58,1.63S968.55,694.77,968,695.33Z"/><path d="M1051.36,144.77c.57.57,1.62,1.37,1.52,1.56a9.94,9.94,0,0,1-2.24,2.9,1.47,1.47,0,0,1-2.08-2.09A17.37,17.37,0,0,1,1051.36,144.77Z"/><path d="M1048.5,149.29q.18,5.11-4.93,4.93C1043.44,150.81,1045.09,149.17,1048.5,149.29Z"/><path d="M812,356.19c2.4-.17,4.58.32,3.91,3.27-.18.81-2.54,1.12-3.91,1.66Z"/><path d="M652.64,544.1l1.75,1.76a15.89,15.89,0,0,1-3.3,1.54c-.41.09-1.08-1-1.62-1.54Z"/><path d="M477.05,555.44c-1,.76-2.45,2.37-2.84,2.14-3-1.73-.94-3.14.68-4.28a2.13,2.13,0,0,1,2.08,0C477.33,553.69,477.05,554.71,477.05,555.44Z"/><path d="M629.76,575.15c-1,.76-2.44,2.37-2.84,2.14-3-1.74-.94-3.14.68-4.28.49-.35,1.43-.06,2.16-.06Z"/><path d="M626.59,592l-1.76-1.76a16,16,0,0,1,3.31-1.54c.41-.09,1.07,1,1.62,1.54Z"/><path d="M876.08,649.31a15.46,15.46,0,0,1-3.31,1.54c-.41.09-1.07-1-1.62-1.54a15.24,15.24,0,0,1,3.31-1.54C874.86,647.68,875.53,648.76,876.08,649.31Z"/></svg>