<svg id="Layer_1" data-name="Layer 1" xmlns="http://www.w3.org/2000/svg" viewBox="0 0 1200 1200"><title>BB_Artboard 45</title><path d="M568.77,439.1c2.69-.38,5.77-2.32,8.13.54,1.33,1.6,2.71,3.14,5.35,2.92,6.88-.6,14.22,1.72,20.16-4.28,1.08-1.09,4.91-1.06,6.28,0,8.22,6.38,17.68,3.64,26.67,4.21,4.84.31,10.3-1.62,13.69,3.85l12.87.52c6.34-6.85,14.68-3.46,22.19-4.41s16,3.46,22.27-4.26c.29-.36,1.39-.06,2.12-.06h39.28c5.09,0,10.32-.73,15.24.18,6.3,1.17,10.52-3.53,15.73-4.26,7.84-1.11,16-.46,24-.2,3.24.1,5.23-1.22,7.45-3.29,2.41-2.26,5.21-1.68,7.35.86,1.6,1.88,2.87,2.19,4.69.11,3.89-4.45,11.8.45,14.86-6.21,3.6-.1,7.21,0,10.79-.35,4.19-.41,9.35,2.1,12.39-1.35,3.71-4.2,7.9-2.67,12-2.9,4.35-.26,8.73-.06,13.09-.06,6.88-8.44,16.32-4,24.38-3.94,6.85.08,10.8-6.48,17.88-5,5.59,1.14,11.59.23,17.41.23,9.48-7.35,20.57-3.21,30.91-4.49,3.26-.4,6.2-6.71,9.63-.2a6.17,6.17,0,0,1,1.55-.88c1.61-.39,2-5,4.56-1.64,4.84,6.52,11.14,8.41,18.89,7.26,3.59-.53,4.75-5.32,9.11-4.52a22.43,22.43,0,0,0,8.68,0c3.28-.71,6.22-6.65,9.63-.17.83-.91,2.36-1.81,2.38-2.74.17-10.18.28-20.37.06-30.55-.25-11.83-.4-11.83,2.7-14.92a44.81,44.81,0,0,0,4.58-4.67c2.45-3.29,5.66-4,9.46-3.62,4.22.42,9.79-.86,12.37,1.37,3.85,3.35,9.36,2.59,12.61,7.2,3,4.19,1.71,8.24,1.91,12.34.33,6.53-.28,13.11.2,19.62.45,6.12-2.51,13,3.68,18.19,1.13.95.55,4.08.56,6.2,0,9.46-.4,18.94.15,28.36.43,7.52-3.16,15.74,3.84,22.5,1.47,1.42.38,5.55.38,8.44q0,32.73,0,65.47c0,5-.81,10.1,4.3,13.6.66.46.68,3.43,0,4.1-4.24,3.93-6.56,7.35-1,12.4,1.56,1.43,1.11,5.34,1.13,8.11.08,19.65,0,39.29.06,58.93,0,4.2-.78,8.38,3.43,11.8,1.9,1.54-6,4.15-.87,7.53,3,2,1.72,5.27,1.73,8,.1,21.1-.11,42.2.16,63.29.08,6.12-2.66,13.23,4.26,17.83-1.09,5.39,2.51,11.66-3.07,16.19-2,1.66-2,4.89-.9,5.72,4.12,3.14,4.06,7.17,4,11.57-.13,11.64-.15,23.28,0,34.92.06,3.77-.44,6.85-3.48,9.6-1,.89-1,4.73,0,5.58,5.24,4.59,4,8-.44,12.42-2,2-.32,5.5,2.39,7.23,1.92,1.23,1.93,1.94,0,3.19-1.15.75-2.87,2.22-2.72,3.11,1.09,6.81-3.63,14.57,3.17,20.47,1.1,1,.67,2-1,3.09-2.9,1.92-2.32,4.94-2.32,7.76,0,17.46.15,34.92-.09,52.37-.08,5.45,2.38,11.73-3.71,15.92-.43.3-.42,1.26-.57,1.92-1.75,8.1,4,17.45-4.08,24.49,4.4,3.52,4.28,8.32,4.2,13.35-.06,3.13-.65,5.48-3.14,7.51-2.69,2.19-2,5.93-1.11,8,2.22,5.11,5.16,9.64,4.28,15.77-.72,5-.31,10.17-.1,15.25.16,3.77-.58,6.72-3.46,9.6-2,2,6,4.2.88,7.58-3,2-1.62,5.23-1.81,7.95-.7,10.35-3.9,13.42-14.37,13.5-5.09,0-10.19-.09-15.27,0-2.8.07-6.19-.32-8.2,1.08-1.86,1.3-2.12,4.77-3.31,7.18-.6,1.22-2.26,2.12-2.45,3.32-1,6.23,1.93,13-2.18,18.75-4.24,5.94-1.47,12.49-2.24,18.72-.34,2.74.69,7.23-2.37,7.34-4.28.15-6.08,3.94-9.14,4.47-5.62,1-11.55,0-17.26.69-9.51,1.1-16.45-.67-18.9-7.83-1.2-3.49-4.54-5.68-4.62-9-.12-5.17-2.74-5.74-6.86-5.54-6.34.3-10.8-6.82-17.68-4.68-2.5-3.26-8-5.15-6.09-10.49,2.83-7.84-5.8-12.5-4.7-20.09,1-7.12,1.33-14.74-.13-21.71-1.1-5.19-4.91-9.62-4.18-15.75.66-5.65-.11-11.49-.37-17.23,0-.54-.9-1.29-1.5-1.46-.38-.1-1.11.64-1.49,1.15a3.54,3.54,0,0,0-.8,1.83c-.3,5.71-.52,11.43-.77,17.15-6.16,4.19-1.7,11.11-4,15.79-2.19,4.5-4.92,8.38-4,13.63-5.84,4-4,10.09-4.43,15.64-.2,2.72,1.68,7.28-1.49,7.78-4.52.7-7,4.73-11,5.26a51,51,0,0,1-13.06,0c-7.78-1-14.19.73-18.82,7.38-5.94,1.37-10.31,7.13-17.25,5.9-2.82-.5-5.8,0-8.71-.09-3.59-.07-8.44,1.2-10.51-.63-4.07-3.63-10-6.3-10.82-12.78-.55-4.14-5.48-6.17-4.58-11.32.88-4.94.44-10.16.12-15.24-.29-4.76,1.83-10-3.29-14-1.53-1.22-.95-5.35-1-8.15-.08-12.36.16-24.73-.13-37.09-.12-5.46,2.12-11.4-3.5-16.13-1.51-1.27-.74-5.42-.75-8.25q-.06-29.47,0-58.93c0-4.36-.6-7.88-3.69-11.72a8.3,8.3,0,0,1,2.06-11.48c1.84-1.27,1.85-1.88.19-3.19s-3.14-2.61-3-5.28c.22-6.52,0-13-.15-19.57,0-.52-1.28-1.55-1.42-1.46-1,.62-2.5,1.39-2.59,2.25-.45,4.15,1.13,8.81-3.56,11.75a5.76,5.76,0,0,0,1.36,2.91c3.41,2.87,1.61,6.69,2.08,10.08-6.32,5.61-4.84,13.22-4.09,20,.63,5.74-3.75,8.85-4.6,13.5s1.93,10.19-3,14c-.55.43-1.31,1.06-1.32,1.61-.1,5.09.46,10.25-.21,15.25-.61,4.63-5.78,7.86-4.28,13.5,2,7.38-1.86,13.91-5.35,19.49-2.47,4-2.49,5.36.62,8,.76.67.94,3.52.33,4-5.49,4.26-3.92,10.22-4.33,15.77-.35,4.78-5.88,7.69-4.5,13.52,1,4.13.32,8.69.11,13.05a5.16,5.16,0,0,1-1.69,3.58c-6.55,4.84-8.16,11.3-7,19,.4,2.73.78,5.89-2.17,7.78-6.36,4.08-7.18,10.26-6.45,17a6.56,6.56,0,0,1-4.41,6.74c-5.67,2.15-10.06,7.53-16.82,6.83-5.46-.56-11.58,2-15.93-4-.77-1.07-4.13-.48-6.26-.29-2.61.24-4.3-1-4.57-3.24-.66-5.48-6.34-9-4.72-15.7,1.32-5.5.59-11.6.15-17.39-.29-3.85,2.3-8.47-2.37-11.46-2.67,3.16-1.76,8.41-6.17,10.54,1.76,6.13-4.09,10.71-4,15.61.18,6.29-5.82,9.59-5,15.68.67,5-.75,10.37.36,15.2,1.37,5.94-3.89,8.66-4.92,13.45a10.18,10.18,0,0,1-10.9,8.14c-5.83,6.55-12.73,5.54-19.14,1.73a13.83,13.83,0,0,0-7.92-2c-5.17.13-7-4.12-9.75-7.21,2.06-8.09-5.11-13.88-4.75-22.21,1.07-24.69.51-49.45.29-74.18,0-5.44,2.31-11.55-3.52-16.08-1.15-.89-.72-4-.73-6.12q-.06-37.1,0-74.2c0-1.33.15-3,.94-3.92,1.81-2.06,4.39-3.51.73-6.29-4.13-3.13-6.67-6.77-6.26-12.74.7-10.14.14-20.36.21-30.54,0-5.58-.86-11.21,4.12-15.89,1.36-1.28.05-5.48-.21-8.33-.06-.56-.89-1.25-1.51-1.47-.35-.12-1.1.51-1.5.95-2.06,2.26.68,7.93-6.26,7.44-.33,0,.58.25.9-.07a1.88,1.88,0,0,0,0-1.84c-1-1.44-2.25-3.23-3.79-.61-.21.35,1.22,1.66,2.87,2.52,1,10.19.18,20.46,1.27,30.54.64,5.88-4.44,8.64-4.64,13.51-.2,5.05-.2,10.11-.29,15.17-6.35,4-3.88,10.32-3.9,15.77,0,2.19,2.92,4.33,3.12,6.62.13,1.57-2.88,3.24-3.16,5.07-.55,3.55-.16,7.25-.16,10.89,0,4.37,1.5,9.58-.37,12.9-2.52,4.49-4.57,8.42-4.08,13.69.4,4.33.08,8.72.08,13.09-6,3.94-4.19,10.1-4.35,15.66-.1,3.63,0,7.27-.06,10.9-5.49,3.09-2.58,9.63-5,13.09a17.94,17.94,0,0,0-3.69,11.7c.13,5.09-.52,10.26.18,15.26s-5.35,6.44-4.65,11.33c.62,4.28.16,8.72.09,13.08a3.33,3.33,0,0,1-.81,1.83c-3.89,4.86-7.07,10.23-7.75,16.41-.63,5.75,0,11.63-.2,17.45a12.58,12.58,0,0,1-1.38,5.94c-4.21,7-12,9.38-18.28,13.79-1.46,1-4.26.17-6.44.18-.72,0-2,.22-2.1,0-2.87-7.35-10.65-2.27-15.09-6-2.51-2.12-6.13-2.89-8.85-4.82a10,10,0,0,1-4.71-9c.25-36.39.13-72.78.17-109.18,0-2.06-.69-4.36,1.63-5.87,3.86-2.52.13-4-.52-6.23-1.33-4.65-1.13-9.72-1.94-14.55-.12-.7-2.34-1.45-3.58-1.45s-3.25.64-3.57,1.5c-.71,1.91-.49,4.15-.8,6.23-.92,6.2,1.95,12.71-2.35,18.7-4.06,5.68.21,13.27-2.45,18.57-2.31,4.6-4.55,8.53-3.92,13.7-5.16,3.29-4.56,8.43-4.39,13.48.1,2.88,1,7.65-.31,8.35-6.54,3.64-1.93,11-5.92,15.3a10,10,0,0,0-2.38,5.49c-.52,5-.56,10-.79,15-5.55,3.44-3.13,9-3.7,13.76-.42,3.56-8.93,14-12.08,13.77-6.83-.46-14.53,3-20.21-3.76-5.9.76-10.54-2.29-15.59-4.58-2-.91-4.5-1.29-4.37-3.44.51-8.56-5.55-15.3-4.93-24.43,1.38-20.29.44-40.73.42-61.11,0-2.35-4-3.9-6.88-2.58-1.94.9-2,2-.6,3.09a42.74,42.74,0,0,1,3.11,3.06c-7.38,2.78-2,10.82-6.15,14.91-1.56,1.52-2.76,3-2.63,5.49.22,4.36.56,8.81-.09,13.08-.6,3.93-5.62,6.38-4.25,11.32,1.32,4.75-5.33,6.3-4.48,11.31.71,4.24.21,8.71.13,13.07-.13,7.7-8.64,16.13-16.58,15.91-5.46-.16-11.81,2.41-15.81-3.92-4.76-.68-10.29.89-13.36-4.63-5.45,1.23-8.62-3-10.2-6.34-1.69-3.58-.66-8.45-.81-12.75,6.31-5.62,4.56-13.15,4.2-20s3.21-14.51-4.05-20.22c-1.06-.83-.15-4.18-.15-6.36,0-12.38-.12-24.75.05-37.12.09-6.22-1.44-12.7,4.1-18.07,1.37-1.34,1.07-7.21-.3-8.07-4.86-3-2.41-10-7.53-12.39-.52-4.88-1-9.77-1.61-14.64,0-.42-1.09-1.14-1.45-1-.62.19-1.55,1-1.5,1.44.7,5.92-3.13,10.42-4.53,15.58-1.47,5.43-.33,11.56-.33,17.38,0,3.64,1.51,8.74-.31,10.62-4.08,4.24-3.23,9-4.54,13.62-.85,3-4,5.13-4.06,9.26-.05,6.29,2.24,13.12-1.83,18.8-4.3,6-.12,13.13-2.73,18.52s-4.44,10-4.14,15.85c.09,1.8-1.14,4-2.38,5.47-2.31,2.79-4.7,5.84-7.75,7.59-2.88,1.67-6.28,2.07-9.11,4.58-1.67,1.48-7.23,1.73-8,.54-4-6-11.5-1.92-15.15-5.73-2.89-3-8.45-1.31-8.92-4.45-.84-5.6-6-8.94-5.58-15.38a265.2,265.2,0,0,0,0-39.26c-.74-9.61,4.79-20.31-3.85-29-.1-.09,2.55-2.91,3.92-4.45-6.31-3.94-3.81-10.27-4.12-15.74-.29-5.08.15-10.2-.11-15.28-.4-7.59,2.3-15.75-4.14-22.39-.57-.58.86-4.06,2.19-5.33,2.28-2.19,1.13-3.48-.56-4.7s-2-2-.57-3.14c4.42-3.46,4.48-6.94.09-10.56-1.67-1.38-3.56-2.82-4.51-4.67-.84-1.64-1.41-4.91-.54-5.67,5-4.37,4.91-7.91,0-12.43-1.68-1.56-.51-5.39-3.21-7.33-3.19-2.28-.39-3.51,1.29-3.83,3.73-.69,8.17-.42,2.57-5.46-.87-.78-1.08-2.46-1.29-3.78-.77-4.72.6-9.24-3-14.18s-2.79-12.89-.42-18.52c1.53-3.63,3.13-5.23-.43-8-.77-.61-1.07-3.33-.45-3.95,3.82-3.87,4.42-8.36,4.52-13.58.05-2.71,8.73-6.39-1.62-7-2.19-.12-3.1-2.2-3.07-4.71.13-11.64.07-23.29,0-34.93a22.14,22.14,0,0,0-.46-6.38c-.28-.9-2.2-1.69-3.44-1.8a8,8,0,0,0-3.83,1.17c-.49.24-1.08,1.29-.93,1.7,2.72,7-4.95,11.25-4.64,17.88.22,4.7,2.65,10.33-2.21,14.24-4.47,3.6.91,10.31-4.58,13.43-.61.35-1.38.94-1.51,1.54-1.06,4.81,2,10.72-1.79,14.43-3.93,3.89-2.75,8-2.67,12.06.1,5.18-1.46,9.15-4,13.73-2.18,3.87-.33,9.94-.54,15a5.07,5.07,0,0,1-1.87,3.51c-6.94,4.76-7.48,11.57-6.86,19.08.42,5.06-.33,10.23.2,15.27.5,4.79-5.56,6.27-4.64,11.33.77,4.23.15,8.71.15,13.07-8.9,5.21,0,17.11-8.54,22.87-1.35.91-.19,5.54-.19,8.45,0,5.1.48,10.25-.14,15.27-.57,4.65-5.57,7.83-4.52,13.55.37,2-3.37,4.4-3.89,6.91-.73,3.49.15,7.28-.26,10.87-.64,5.52,2.51,12-2.27,16.41-4.34,4,.83,10.3-4.44,13.6a5,5,0,0,0-1.86,3.5,100.31,100.31,0,0,0,0,13.09c.37,4.63-5.78,6.11-4.59,11.33,1.46,6.38-6.53,10.49-4.51,17.89,1.48,5.42.34,11.57.27,17.39a10.44,10.44,0,0,1-10.62,10.6c-5,.11-10-.62-13.68,4.29-.63.84-4.07.83-5.73-1.42-1.25-1.69-2.78-3.19-5.36-2.84a10.35,10.35,0,0,1-9.62-3.27c-4.6-4.78-9-9.15-7.47-16.67.57-2.8.07-5.81.09-8.72q.1-13,.22-26.11c8.12-7,.87-17.2,4.57-24.26,3.95-7.53,3.41-14.8,4-22.43.91-11.09-3.44-22.91,4.27-33.13V982.6c8.95-10.84,2.38-23.6,4.24-35.33.08-.48-1.7-1.4-2.73-1.81-.26-.11-1.51,1.07-1.42,1.43,1.1,4.35-3.22,6.12-4.22,9.2-1.06,3.3.36,7.33-.38,10.81-1,4.58-5.46,7.9-4.38,13.54.8,4.21-.71,8.93.36,13,1.69,6.5-5.78,9.36-4.86,15.75.76,5.24,2.59,11.73-3.59,15.82-.16,4.3.8,9.09-.8,12.76s-4.66,6.66-4.17,11.44c.51,5-.64,10.33.32,15.23,1,5.27-4.57,6.92-4.66,11.33-.06,2.7,1.65,7.38-1.53,7.73-4.67.51-6.93,5-11,5.21-7.26.41-14.55,0-21.83.19-2.57.08-3.92-1.31-5.41-2.83a49,49,0,0,1-9.69-13.42c-2.11-4.37-4.38-7,0-10.81a5.71,5.71,0,0,0,1.46-3.7c.22-3.62.12-7.25.15-10.88,7.47-3.19,1.75-12.14,7.52-16.7,3.53-2.8-.48-9.31,4.55-13.46,3.15-2.6-.52-9.59,4.71-13.31,1.44-1,.2-5.47.67-8.27.9-5.45-2.19-11.37,2.54-16.44,3.89-4.17,1-9.68,1.76-14.52,7.43-2.81,1.61-11.37,6.16-14.8,5-3.78,0-10.06,4.47-13.58,1-.82,2.31-2.16,2.37-3.31.25-5.09-.55-10.3.32-15.25.67-3.84,5.22-6.35,4.28-11.35A12.09,12.09,0,0,1,114,894.61c2-2,.35-7.2,2.06-9.85s1.84-3.39.27-6.51a22.85,22.85,0,0,1,.1-20.34c.87-1.82,2.73-3,2.63-5.5-.22-5.82-1.45-12.11.32-17.34s4.55-9.81,4.14-15.8c-.38-5.47,7-9.25,4.2-15.65,4.16-4.6,7.37-9.13.15-14-.68-.46-.72-3.61,0-4.08,5.05-3.51,5.27-8.77,4.08-13.56-1.6-6.48,3.32-10.44,4.48-15.73,1-4.66-2-10.33,3.63-13.79.27-4.25-1.05-9.78,1.13-12.52,5.66-7.13,4.28-14.9,3.83-22.44-.37-6.1,6-9.28,4.85-15.72-.95-5.31-2.07-11.68,4.05-15.68.33-.22.06-1.39.06-2.12,0-5.09-.28-10.2.07-15.28.34-4.88-2.21-10.57,1.6-14.51,4.35-4.5,2.1-9.49,2.63-14.26.29-2.56,1.42-3.65,3.87-4,4.74-.76,9.84,2,14.29-2.54,4-4.05,9.68-.81,14.46-1.84,5.54-1.19,9.12,2.93,10.23,6.23,1.92,5.71,7.38,10.27,5.44,17.55-1.57,5.9,2.28,13.14-4.51,17.86-.34.23,0,1.39,0,2.12q0,73.14.08,146.29c0,.51,1.19,1.55,1.44,1.45,1-.43,2.68-1.18,2.72-1.88.31-5.77.31-11.56.41-17.34,6.35-4,3.44-10.33,4.09-15.78.08-.66.16-1.71.57-1.9,6.63-3.14,1.18-11.23,6.15-15,4.23-3.16-.22-8.8,3.18-11.73s3.5-6,3.17-9.66c-.41-4.53,6.4-6.22,4.38-11.29-2.3-5.75,6.88-7.55,4.44-13.51-2-4.83,4.84-6.52,4.45-11.28-.27-3.43,5.48-4.82,4.2-9.09-1.49-5,3.71-7.32,4.28-11.31.51-3.57.95-7.52-.07-10.85-2.17-7.15,4.57-11.58,4.55-17.9,0-6.55-.05-13.1,0-19.65,0-3,4.75-9.22,7.91-8.7,7.57,1.25,12.26-5.75,20.11-5.2,7.54.54,14.92.37,18.31,5.48a9,9,0,0,1,1.61,3.67,52.79,52.79,0,0,1,.08,6.54v67.69c0,6.55.73,13.21-.21,19.62s3.71,10.56,4.26,15.72c1.07,10.08-.25,20.39.48,30.53.69,9.64-3.58,20,4,28.94,1.44,1.7.21,5.65.21,8.56,0,13.11-.23,26.21.1,39.31.16,6.13,5.68,10.82,4.52,17.88s-.25,14.52-.25,21.8c0,6.55-.19,13.1.05,19.65.27,7.6,6.29,13.77,4.6,22.26-1.4,7-.48,14.51-.17,21.78.1,2.2,2.13,3.33,4.67,3.1s3.93-1.4,3.93-3.92c0-16,.11-32,0-48,0-4.48.14-8.41,4.19-11.53.91-.69,1-4.08-1.19-5.75a20.17,20.17,0,0,1-2.76-3c6.3-3.94,3.82-10.25,4.13-15.73.28-5.08-.28-10.22.14-15.28.52-6.12,5.85-10.86,4.5-17.89-1.08-5.61-.22-11.6-.22-17.43,0-6.55.91-13.26-.25-19.6s6.15-9.19,4.94-15.76c-.95-5.16-2.33-11.39,3.54-16,1.45-1.14.48-5.48.49-8.35,0-10.19,1-20.5-.34-30.52-.8-6.1,6.25-7.6,5-13.58-1.19-5.57-.26-11.59-.26-17.41,0-5.1.11-10.19,0-15.29-.11-4.43,5.89-6.09,4.57-11.33-.87-3.42-.17-7.24-.17-10.88,0-4.36-.17-8.74,0-13.1.21-4.16,5.64-6.19,4.47-11.32a29.59,29.59,0,0,1,0-10.86c.28-1.83,2.06-3.56,3.45-5.06,1.71-1.85,14.5-7.37,16.57-7.38,5.82,0,11.67.34,17.45-.12,4.46-.36,6.41,2.65,8.83,5.14,4,4.11-1.56,11.95,5.69,14.88-7,5.57-3.51,13.32-4,20.14a201.22,201.22,0,0,0,0,21.83c.18,4.78-1.74,9.95,3.34,14,1.53,1.22.91,5.36.92,8.17.07,16.74-.61,33.51.24,50.21.68,13.25-4.12,27.07,3.93,39.84,1.64,2.6.23,7.13.23,10.77,0,36.39.17,72.78-.18,109.17-.06,5.34,3,7.7,5.89,10.72a1.58,1.58,0,0,0,1.49.19c.6-.34,1.46-1,1.47-1.51.1-6.55.07-13.1.07-19.65,0-5.82-.54-11.71.15-17.45.73-6.14-2.66-12.55,2.75-18.58,4-4.46-1-12.15,1.79-16.54,6-9.42,3.42-19.28,3.91-29,.17-3.3,2-5,3.67-7.29,1.9-2.6,1.06-5.42-1.56-7.35-1.63-1.2-2.09-2.16-.88-3.1a8,8,0,0,0,3.35-7.4c-.29-5.8-.08-11.64-.08-17.46,0-5.1-.09-10.19,0-15.28.13-5.57-1.8-11.75,4.35-15.66v-83c0-2.18,0-4.37,0-6.55l.06-15.26c8.65-4.66-2.3-8.82-.41-14,1.65-4.49.85-10.13.21-15.14-.66-5.17,2.18-8,5.35-11a36.79,36.79,0,0,1,24.23-10c2.91,0,5.83-.1,8.74,0,4.76.19,14.16,9.26,14.18,14,.1,20.38.13,40.76-.12,61.14,0,1.68-3.28,3.3-3.35,5-.14,3.19,5.17,4.91,3.42,8.79-1.38,3.06-5.41,4.8-4.33,9.16a18.63,18.63,0,0,1,.06,4.36V846.3c-3.24,7.7,5.7,12.46,4.59,20.06-1,7.12-.23,14.52-.23,21.8v43.67c0,7.28-.31,14.58.19,21.82.16,2.33,2.45,4.52,3.77,6.77-7.64,7.17-2.47,16.4-3.83,24.58-.17,1,1.35,2.24,2.09,3.37a34.51,34.51,0,0,0,3.06-3.11c1.25-1.62,3.17-3.34,3.3-5.12.42-5.79-.46-11.72.31-17.44,1.1-8.17-4.11-17.5,4.14-24.44,0-8.73.27-17.46-.12-26.16-.08-1.65-3.87-3.11-4-4.77-.35-6.23-.3-12.05,3.73-18.11,3.08-4.64,5.86-10.57,5.09-17.59-1.12-10.07-.51-20.36-.2-30.54.17-5.45-1.92-11.22,3.44-16.18,1.88-1.74.81-6.83.81-10.4.06-21.83-.2-43.67.17-65.5.11-6.8-3-14.55,3.92-20.15.1-10.15.29-20.3.18-30.45,0-1.08-1.65-2.23-2.67-3.2-3.21-3-.83-6.89-1.57-10.27,5.26-3.26,4.42-8.45,4.39-13.48q-.12-18.56,0-37.12c0-3.64.32-7.2-3.32-9.58-1.23-.81-.41-1.7.84-3.14s2.83-4.74,2.27-5.33c-6.34-6.65-3.78-14.78-4.15-22.38-.22-4.35.25-8.75-.1-13.09-.72-8.88,1.21-15.6,11.6-16.83.65-.08,1.05-2.34,1.56-3.58,5,0,10.09,0,15.13-.06.54,0,1.57-1,1.48-1.33-.28-1-.92-2.82-1.48-2.85-5-.22-10.08-.13-16.1-.13h1c0-.64.26-1.48-.05-1.91-1-1.44-2.25-3.23-3.79-.6-.21.35,1.22,1.65,2.87,2.51a7.24,7.24,0,0,1,1,4.37H511c-.33,0,.57.25.9-.07a1.9,1.9,0,0,0,0-1.84c-1-1.44-2.26-3.23-3.79-.61-.21.35,1.22,1.66,2.87,2.52.46,1.24,0,3.54-.58,3.57-10.08.43-20.17.58-30.26.8-7.85-7.56-17.64-3.37-26.56-4.26-2.57-.26-3.83,7-8,1.41-2.55-3.42-6.77-1.1-10.21-1.44-3.6-.36-7.27-.07-10.9-.08s-7.25,0-10.88-.07c-3.94-8.11-7.69.88-11.71.23-4.25-.69-8.71-.35-13.05-.1-3.82.22-6.82-.61-9.57-3.56-.89-1-4.16-.75-5.64.13-2.19,1.3-3.55,4.57-6.29.76a24.28,24.28,0,0,0-3.06-3.11c-2.08-2-2.06-1.94-6.18.12a10.63,10.63,0,0,1-3.85,1.18c-3.79.27-4.9-5.74-9.06-4.21-2.5.91-4.5,3.23-7,4.13-1.94.69-5.24,1.07-6.34,0-6-5.87-13.57-5.35-20.07-3.83-6.95,1.64-9.74-5.54-15.74-4.87-5,.57-10.18-.08-15.26.2-2.65.15-3.81-1.55-5.36-2.95-2.05-1.85-3.9-4.13-6.29-5.32-.77-.38-3,2.09-4.5,3.26-2.74-4.6-7.24-3.82-11.52-3.81-8,0-16,.07-24,0-2.8,0-7.32.47-8.1-.92-3.64-6.5-11.59-.5-15.23-6-2.18-3.29-3.54,0-4.5,1.13-1.39,1.7-2,1.81-3.21-.11-1.74-2.7-4.94-4.2-7.26-2.35-3,2.4-5,4.77-7.87.27-8.55.8-15.12-6-24.08-5.56-7.13.35-13.32-5.92-20.12-8.83-6.17-2.65-10.4-9.79-15.49-15,1.82-5-4.87-6.63-4.45-11.28.46-5,.34-10.06.48-15.1,5.35-4.27,8.56-12,17.46-10.58a23.94,23.94,0,0,0,6.42-.27c.57-.07,1.22-.89,1.48-1.51A1.7,1.7,0,0,0,144,461c-4.31-1.86-8.53-4.27-13.06-5.25-4.81-1-9.92-.69-14.91-.94-3.44-5.61-9-3.26-13.78-3.5a7.73,7.73,0,0,1-5.49-2.65c-5.11-5.17-10.32-10.25-15.37-15.48a5.43,5.43,0,0,1-1.61-3.62c.42-4.6-1.26-7.89-4.11-11.57-1.37-1.77-1.9-6.89,1.29-10,4.2-4,8.3-8.15,12.34-12.34,1.82-1.88,4.91-1.95,5.74-.85,3.14,4.12,7.18,4.09,11.58,4,7.26-.14,14.54,0,21.81,0,10.2,7.74,22,4.05,33.09,4,7.38,0,12.47,6,20,4.93,7.12-1,14.51-.22,21.78-.22,4.89,7.47,13.71,1.88,19.36,5.78,2.78,1.92,4.11,3.26,6.33,0,1.5-2.22,4.91-2.05,5.69-1,3.13,4.09,7.12,4.18,11.55,4.08,7.27-.17,14.54,0,21.81,0,13.18,8.78,27.93,2.46,41.82,4.36,5.42.75,11.75-2.38,15.9,3.75,1.55-1.13,3-3,4.65-3.22a108.86,108.86,0,0,1,12.92-.51c4.36-.06,9.73,1.58,12.84-.39,4.5-2.84,8.49-4.48,13.71-4.06,4.33.35,8.72.07,13.08.07,6.88-8.39,16.3-4,24.36-4,6.82.05,10.91-6.07,17.87-5,6.33,1,13,0,19.45-.11,4.8-6.67,11.86-3.37,18-3.94s12-.2,18.11-4c5.38-3.3,14.22,2.33,19.9-4.38,7.21-.16,14.42-.23,21.62-.58.85,0,1.68-1.59,2.36-2.55.07-.1-1-1.42-1.47-1.42q-21.76-.22-43.53-.28c-6.55,0-13.23.82-19.59-.26-5.24-.89-9.39-5.31-15.72-4.33s-13.05.22-19.6.22c-5.81,0-11.82.91-17.39-.26-5.23-1.1-9.45-5.32-15.73-4.3-5.67.92-11.6.19-17.42.19s-11.68-.45-17.44.13c-6,.6-8.83-6.64-15.74-4.83-6.12,1.6-13,.34-19.54.34-5.82,0-11.65-.22-17.45.06s-8.88-6.64-15.73-4.73c-5.4,1.5-11.55.3-17.37.3-5.64-6.13-13.08-4.3-20-4.29-5.08,0-7.62-6.28-13.5-4.6-4.22,1.2-8.64.34-11.3-4.07-11.51,0-11.08-11-15.13-17.41-2.35-3.74,1.65-9.76-3-14-3.7-3.37-1.08-8.22-1.56-12.37-.41-3.5-.9-7.31,3-9.64,1.63-1,1.37-1.92-.42-3.12a17.24,17.24,0,0,1-3.11-3.05c-6-6.76-5.82-7.79,2.76-14.89.56-.46,1.5-1,1.48-1.53-.35-7.48,4.54-7.17,9.84-7.16q73.08.15,146.15.06c11.63,0,23.27.17,34.9-.08,4.54-.1,6.66,1.24,6.39,6-.05.87,1.74,2.65,2.7,2.66,7.21.08,14.42-.14,21.63-.39.53,0,1.54-1.32,1.46-1.42a11.54,11.54,0,0,0-2.66-3.09c-1.79-1.22-1.89-2.26.2-3.08,1.25-.5,3.14-1.08,4-.51,3.33,2.15,6.14,5.8,9.78.07.64-1,4.13-.19,6.31-.19,16,0,32-.55,48,.23,8.15.39,17.5-4.25,24.38,4.14,5.09,0,10.18-.05,15.27,0,4.29.06,3.79-3,4.28-5.83.39-2.22,2.35-3.24,4.82-2.94s3.94,1.45,3.79,4c-.24,3.9,2,5,5.29,4.69s7.77,1.69,7.83-4.33a30,30,0,0,0,4.35,0c4.71-.7,7.71-5.27,13.48-4.71,4.29.41,7.78-5.1,13.44-4.19,4.87.79,10,.17,15-.39,2-.22,1.93-1.75.43-3-2.17-1.8-5-4.09.51-5.1,2.11-.38,4.39.2,6.5-.17,1-.18,1.83-1.55,2.73-2.38-.51-.51-1-1.46-1.54-1.47-7.21-.21-14.43-.37-21.65-.29-.73,0-1.45,1.69-2.17,2.6,1.22.55,2.43,1.13,3.67,1.64s2.54.9,3.74,1.49c.2.1.23,1.17,0,1.45-1,1.1-9.11,2.07-10.23,1.32-2.06-1.39-2.11-3.5-2.07-5.68a66.55,66.55,0,0,0-.11-8.71c-.1-.94-1.57-1.74-2.42-2.6-.61,1.2-1.58,2.35-1.75,3.61-.29,2.14.17,4.39-.2,6.5-.15.81-1.68,1.49-2.7,1.94-.24.11-1.39-.9-1.44-1.45-.69-7.72-4.85-11.26-12.57-11-5.08.17-10.17-.09-15.25.15-.84,0-1.62,1.62-2.43,2.49,1.21.58,2.4,1.23,3.64,1.74s2.81.58,3.74,1.41c1.38,1.22-.53,2.93-3.48,3-1.45,0-2.9,0-4.35,0H538.2a30.4,30.4,0,0,1,0-4.27,3.52,3.52,0,0,0-3.3-4.37c-2.93-.34-5.79.13-5.47,4.28h-5.39c1,.68,1.75,0,1-2a2.69,2.69,0,0,0-1.32-1.45,8.17,8.17,0,0,0-3.68-.8c-1.17.15-2.22,1.11-3.33,1.71.75.85,1.36,2.12,2.3,2.45,1.2.43,2.67.11,5,.11,1.69,2.66-.48,3.82-2,5.07s-1.74,2.14.24,3c3.87,1.77,6.55.32,7.11-3.88a33.3,33.3,0,0,0,0-4.24c2.64-.66,3.48,1.8,5.14,2.89a19.59,19.59,0,0,0,3.59,1.47c1.61,2.43-2.64,1,0,2.17a26,26,0,0,0,5.65,2.13c2.57.47,6.41-.94,6.88,2.56.26,1.95-3.32,1.88-5.45,1.88H484.15c-2.91,0-6.72,1.16-8.55-.24-3.78-2.92-6.48-4.62-9.73.2-.23.33-1.4.06-2.12,0s-1.92.13-2.05-.17c-3-6.91-10.73-2.13-15-6.1-5.25-4.84-10.23-3.67-14.95,1.23-.76.79-2.66.6-4,.63a3.75,3.75,0,0,1-1.79-.9c-1.47-1-.7-1.62.49-3.16,3.07-4,2.86-4.28-1.64-4.57-3.52-.24-7.33.81-9.67-3.07-1-1.68-2.23-1.61-3,.41a7.07,7.07,0,0,0-.43,4.14c1,3.53,4.45,2.49,6.92,3.34a2.6,2.6,0,0,1,1.46,1.52c.11.37-.66,1.43-1.09,1.46-5.7.37-11.41.82-17.12.82-4.83,0-9.9,1.39-14-3.54-1.23-1.5-5.42-.72-8.25-.74-8.74-.07-17.65-1.12-26.15.29-7.85,1.31-12.8-5.44-20.09-4.8-6.5.56-13.09.12-19.64.12-6.93-8.16-16.31-4.1-24.39-4-6.84.11-10.92-6.07-17.88-5-6.36,1-13,.07-19.52,0-5.55-7-13.49-4.45-20.08-3.75s-9.36-5.94-15.74-5c-5.25.75-11.18,2.09-16.13-3.29-1.72-1.87-7.3-1.76-10.32-.56-6.89,2.75-10.07-4.17-15.66-5.1-4.18-.69-8.23-5.49-7.08-11.72.59-3.23-.8-5.39-4.68-5.29-4.24.11-5.11-3.9-3.73-5.81,2.58-3.61,5-6.78,4.13-11.47-1.09-5.89,1-9.36,7.33-9.84.55,0,1.3-2.36,1.32-3.63,0-2.66,1.36-4.08,3.77-4.1,15.28-.09,30.56,0,45.85-.09,4.95,0,11.13,1,14.53-1.45,4.17-3,9.17-1,11.77-3.2,4.39-3.69,8.64-4.21,13.75-4.09,8.73.2,17.47,0,26.2.08,2.05,0,4.35-.81,5.91,1.55,3.07,4.64,7.94,1.92,11.92,2.86,5.53,1.3,7.52-6.31,13.55-4.68,4,1.07,8.52-.09,12.8-.4a2.14,2.14,0,0,0,1.44-1.49c.07-.44-.8-1.06-1.31-1.52-2.57-2.32-4.38-5.9-8.82-5.12-1.41.25-3.05-.37-4.33.11-7,2.57-12.49-2.52-17.61-5s-10.23-6.91-11.84-14.25c-.93-4.27-7.45-7.4-.95-12.38.89-.68,1.07-2.44,1.34-3.75,1.1-5.51-2.15-11.5,1.81-16.72,5-.13,10.23-1.09,15.08-.21,7.58,1.38,12.12-6.71,20.14-4.88,6.92,1.57,14.48.32,21.76.32,6.17-7.76,14.66-3.49,22.16-4.12,2.06-.17,2.84,6.21,6.07,2.11,4.49-5.69,10-6.93,16.93-6.94s14.52,3,20.22-3.75c.34-.41,1.31-.38,2-.38,5.83,0,11.91-1.09,17.4.26,6.7,1.64,9.76-5.28,15.74-4.77,6.5.55,13.09.13,19.64.13h34.94c5.82,0,11.66.23,17.46-.09,3.57-.19,4.43,3.12,6.86,4.29,4.46-7.11,13-1.42,17.43-5,4.7-3.83,9.09-3.51,14-3.53,16.74-.08,33.48,0,50.22-.08,4.82,0,9.9,1.41,14-3.53,1.24-1.5,5.89.27,8.15-1,5-2.71,9.31,8.86,14,.24l15.26-.06c5.83,0,11.65,0,17.47,0,5.1,0,10.27.56,15.27-.12C702,70,712,75.42,719.73,66.91c8.74,0,17.47,0,26.2,0,6.28,0,10.7-6.12,17.9-4.63,6.28,1.31,13,.28,19.6.28s13.14-.48,19.63.14c5.44.53,7.49-6.17,13.56-4.78,5.53,1.27,11.58.27,17.4.27,5.1,0,10.21.25,15.28-.06,7.57-.46,13.81-6.2,22.27-4.58,7,1.34,14.5.24,21.78.29,2.69,0,3.2-5.76,6.27-3,2.7,2.45,4.2,3.18,6.34-.09a2.85,2.85,0,0,1,1.62-1.27c7.72-1.05,16.15,2.56,23.17-2,7.58-4.92,15.43-1.34,23.07-2.27,3.66-.44,6.66-.78,9.57-3.58,2-2,2.91,4.17,6,2.38,1.77-1,3.37-3,5.2-3.18,5.5-.65,11.73,1.66,15.64-4.51h34.91c1.56,1.56,3.12,3.1,4.65,4.65,3.55,3.62,8.94,6.71,10.19,11,1.76,6,.53,13,.37,19.52a5.49,5.49,0,0,1-1.69,3.6c-4.68,4-7.5,10.94-15.81,9.4-4.19-.79-6.08,5.55-11.31,4.41-4.17-.9-8.7-.25-13.06-.16-6.26.12-12.77-1.3-18,4.19-1,1.09-4.23-.07-6.38.2-11.05,1.37-22.87-3.67-33.24,4.18-1.39,1-4.29-.08-6.44.18-12.48,1.55-25.6-3.63-37.65,4.09-2.58,1.65-7.16-.1-10.75.31-7.52.86-15.75-3.12-22.51,3.93-1.41,1.47-5.56.36-8.45.36-13.1,0-26.2.08-39.3,0-5,0-10-.61-13.67,4.25-.66.87-4.12.82-5.73-1.45a9.18,9.18,0,0,0-2.92-2.29c-7.24,7.76-16.5,2.4-24.67,3.82-4.73.83-9.9-1.4-14,3.59-1.24,1.51-5.39.8-8.22.82-8.73.09-17.48-.32-26.19.15-6.12.34-12.84-2.41-18.24,3.65-1.33,1.5-5.49.58-8.34.58-18.93,0-37.86-.28-56.77.17-7.5.18-15.87-3.34-22.43,3.94-1,1.1-4.17.27-6.33.27q-12,0-24,0H566.78c-5.82,0-11.66-.23-17.47.06-6.17.32-13.2-2.49-17.84,4.3H514c-5.82,0-11.64,0-17.47,0-7.26,0-14.52.05-21.78.19-.52,0-1.19.89-1.48,1.51a1.58,1.58,0,0,0,.48,1.47c2.81,1.9,6.83,1.07,9.18,4.54.65,1,4.64,1.15,5.54.2,2.75-2.91,5.71-3.77,9.55-3.62a186.46,186.46,0,0,0,19.64,0c5.38-.36,8.09,1.21,7.88,6.94,0,.59,2.16,1.52,3.43,1.84,2.43.61,3.87-.79,4.88-2.89,3.11-6.5,6.1-8,12.18-4.08,3.22,2.09,3.88,1.27,6.47-.41,4.34-2.81,9.61-1.28,14.52-.86,3.35,5.48,8.79,3.88,13.66,3.9,18.19.08,36.39,0,54.59,0,2.63,0,2.69,1.3.24,5.32-.31.51-.61,1-.91,1.54,1.2.62,2.36,1.64,3.61,1.75a5.5,5.5,0,0,0,3.79-1.17,90.85,90.85,0,0,0,9.25-9.26c3-3.64,4.12-.24,6.32.86,3,1.52,6.33,2,9.15,4.54,1.63,1.49,6.7,1.88,8.07.55,5.41-5.29,11.82-4.36,18.05-4,4.24.24,6.72-1.71,9.12-4.5l4.63,4.11c4.72-6.88,11.85-3.48,18-4,5.78-.5,11.64-.06,17.46-.12,4.2,0,8.36.76,11.81-3.42,1.68-2,2.85,4.19,6,2.37,1.76-1,3.34-2.54,5.22-3.17,1-.34,2.64.53,3.75,1.23a21.28,21.28,0,0,1,3.12,3c4.61-7,11.73-3.83,17.86-4.23,4.1-.26,8.8-1.51,11.74,3.25.71,1.14,1.62-.24,3.11-.95,7.09-3.33,7.43-3.44,13.21.1,4.15,2.54,9.27,3.48,11.61.53,4.62-5.82,13.83.63,16.78-7.4a17.18,17.18,0,0,0,13.73-4.06c2.2-1.78,7.1.14,10.65-.41,6.11-.94,13.18,3.2,18.25-3.32l17.08-1c8.72-7.14,19.09-3.4,28.76-4.38,5.45-.55,11.79,2.33,15.83-3.93,5-.14,10.18.31,15.08-.58,5.29-1,9.29-5.84,15.74-4.42,4.86,1.07,10.14.3,15.23.15a5.62,5.62,0,0,0,3.73-1.39c3.76-4.35,7.19-4,10.61.28,1,1.31,1.9.94,3.15-.7a6.86,6.86,0,0,1,2.91-1.77c2.44,3.23,5.81,3.24,9.46,3.84,7.22,1.19,14,9.59,14,16.21.06,7.28-.08,14.56,0,21.83.09,5.2-4.13,7-7.18,9.8-8.11-2.17-13.78,6.18-22.26,4.66a70.51,70.51,0,0,0-23.9.08c-4.4.76-8.13,4.7-13.55,4.15-4.79-.49-9.89-1.32-13.86,3.67-1.17,1.46-5.47.52-8.34.53-14.56,0-29.12-.24-43.67.14-6.1.15-13.26-2.87-17.87,4.17l-17.44.07c-6.15,7.81-15,5-22.14,3.9-8-1.19-12.53,6.16-20.13,5.06-7.12-1-14.52-.23-21.8-.23-8.73,7.1-19.21,4.82-28.72,3.94-7.21-.67-11.13,5.85-17.9,5-5.72-.76-11.63-.16-17.45-.16-6.55,0-13.1,0-19.65,0-2.7,0-3.22,5.73-6.27,3-2.69-2.41-4.07-3.14-6.41,0-.66.89-2.45,1.3-3.73,1.33-6.55.13-13.17-.56-19.63.2-10.34,1.2-21.62-4.17-31,4.18-.4.36-1.41,0-2.14,0-8,0-16-.14-24,.05-7.43.17-15.3-1.91-21.89,3.57-4.53-8.19-7.18,3-12.14,1.17-5.13-1.88-11.49-.42-17.31-.42H564.78c-5.1,0-10.26.49-15.27-.13-6-.74-9.33,6-15.72,4.7-4.89-1-10.15-.2-15.24-.2H501.08c-5.1,0-10.22-.32-15.28.09-4.73.39-7.72,5.66-13.52,4.48-4.89-1-10.15-.2-15.24-.2H424.28c-5.09,0-10.19-.13-15.28,0-4.14.14-8.81-1.48-11.76,3.29-.73,1.19-1.62.13-3.11-.93-6.41-4.58-13.56-2.37-20.47-1.45-.62.09-1.35,2.39-1.3,3.63s.76,3.21,1.64,3.51a19.87,19.87,0,0,0,6.29.63c17.47,0,34.94-.26,52.4.16,6.8.17,14.29-2.78,20.35,3.79,1.36,1.48,5.53.42,8.41.43h76.43c8,0,16-.45,24,.13,7.5.53,16-3.56,22.2,4.2.52-.51,1-1,1.54-1.54,4.17-4.38,9.1-4.55,13.23-.8,3.25,2.94,6.58,2.38,10,2.29,3.22-.08,6.12-7.21,9.67-.37,8.67-7.57,19-3,28.59-3.75,9.4-.75,19,.49,28.35-.35,8.9-.8,18.69,4.22,26.81-4,1.44-1.46,5.65-.51,8.51-.15,5.44.7,11.67-2.51,16.17,3.1,4.53-.21,7.82-4.21,13-3.37,5.67.92,11.62.39,17.43.15,4.8-.19,10.33,1.91,13.76-3.63,5.73-.22,11.51-1,17.16-.41,2.32.23,4.37,3.36,6.48,5.24,2.56,2.28,2.77,2.63,6.11.19,2.83-2.06,6.79-.84,9.27-4.39,1.81-2.57,2.77,1.82,4.45,2.06a3.88,3.88,0,0,0,3-1.24c1.88-2.35,3.37-1.5,4.67.35,1.19,1.69,2.15,2.08,3.11.71,2-2.88,4-3.65,6.21-.22a6.48,6.48,0,0,0,1.52,1.24c2.8-5.19,6.05-2.62,9.26-.53,2.75-4.71,7.36-3.46,11.57-3.79,1-.07,1.82-1.55,2.72-2.38a27.84,27.84,0,0,0-3.6-1.85c-5.28-1.82-4.84-1.47-2.8-4.4,3.56-5.11,8.53-4.24,13.54-4.45,4.55-.19,6.48,1.23,6.45,6,0,1.89,1.91,3.35,4.05.82,3.79-4.49,7.9-8.94,14.63-6.69,8.36,2.78,13.86-6.23,22.28-4.69,7,1.29,14.5.26,21.78.26h24c7.28,0,14.58-.33,21.83.11,5.65.34,12.2-2.58,16.76,1.38s9.45,2.13,14.18,2.91c4.89.8,13.09,10.26,13.13,15.06q.09,10.92,0,21.84c0,6.21-3.2,10.66-10.18,10.76-5,.07-7.15,4.37-11.29,4.66-3.62.26-7.28.06-10.92.06-3.24,7.52-12.73,1.19-16.58,7.45a2.63,2.63,0,0,1-1.64,1.23c-4.32.19-9.13-.89-12.83.68-3.07,1.31-5.73,3.09-9.29,4-7.37,2-14.36,5.54-22.28,4-4.82-.91-6.31,5.43-11.33,4.59a18,18,0,0,0-10.32,1.15c-2.46,1.21-4.39,4-7.47,3-8.36-2.83-14,7.37-22.21,4.5a11.24,11.24,0,0,1-9.13,4.49c-7.55.11-15.87-2.65-22.21,4.18-7.2.2-14.4.36-21.59.65a2.12,2.12,0,0,0-1.44,1.5c-.06.44.83,1.45,1.32,1.46,11.55.32,23.1.69,34.65.58,1.65,0,3.14-2.71,4.95-3.7,3-1.61,5.19,0,7,4.54a28.78,28.78,0,0,0,2,3.54c.78-1,2.14-2,2.24-3.07.29-3.05.45-5.61,4.62-5.55,5.58.07,11.59,1.27,15.65-4.31h17.47c5.82,0,11.66.23,17.47-.07,6.17-.32,10.8-5.87,17.89-4.55,6.33,1.18,13,.25,19.6.25,7.9-7.33,17.63-3.56,26.58-4.32,6.41-.54,12.86-.64,19.28-.94,4.28-6,11.91-1,15.74-3.86,6.64-5,13.43-3.84,20.32-3.92,17.46-.2,34.93-.06,52.4-.07,3.52,0,7.35.92,9.69-2.95,1.06-1.77,1.69-1.34,3.17.19,3.35,3.49,6.49,6.85,11.9,8.22a8.73,8.73,0,0,1,6.08,10.25c-.44,2-.5,4.37,1.75,5.78l-.09,13.9c-2.31,1.42-1.46,3.77-1.77,5.82-1.09,7.12-4.39,11.4-10.06,11-6.07-.43-10.57,2.47-15.79,4.25-4.56,1.55-10.08.32-15.17.32-4.78,6.24-11.65,3.94-17.84,4.37-3.07,7.76-12.82,1.19-16.48,7.67-6.4.35-12.8.76-19.21,1-2.16.09-4.31-.05-5.71,2-4.08,6.12-10.31,6-16.79,7.15-6.66,1.22-12.79,5.42-20.11,3.92-3.36,7.3-12.67,1.34-16.59,7.44-.36.55-1.07,1.23-1.63,1.24-5.09.1-10.2-.16-15.28.13-4.13.23-6.37,6.19-11.28,4.25-6.45-2.54-10.19,3.94-15.67,4.39-4.84.39-9.69-1-14,3.62-1.75,1.87-6.88,1-10.41.67-4.7-.46-6.19,5.79-11.33,4.62-3.46-.79-7.25-.29-10.88-.12-4.85.23-7.62,5.88-13.53,4.56-4.84-1.09-10.13-.2-15.22-.19-5.36,7.56-13.3,3.17-20,4.33-4.06.69-6.21,5.51-11.32,4.54-4.06-.77-8.33-.85-11.81,3.27-1.29,1.53-5.37.77-8.19.91-6.43.33-12.87.57-19.31.84-4.23,6.14-11.78,1.09-15.72,3.93-6,4.31-11.89,4.29-18.11,3.85-6.6-.46-10.5,6.88-17.94,4.8-5.38-1.51-11.54-.25-17.35-.23-5.41,7.42-13.31,3.13-20,4.31-4,.71-6.25,5.59-11.33,4.5-3.48-.75-8.25-1.6-10.71.11-9.89,6.83-20.75,3.07-31.12,4.07-4.84.47-9.25-.2-14,3.61-4.4,3.58-13-2.08-17.42,5l-4.63-4.1c-4.61,8.87-15.85-.17-20.82,7.72-6.34.52-12.69.93-19,1.7-.65.08-1,2.33-1.56,4.54,0,.33.26-.58-.07-.9a1.9,1.9,0,0,0-1.84,0c-1.44,1-3.23,2.25-.6,3.79C566.61,442.18,567.91,440.75,568.77,439.1ZM909.42,294c-.48-1.21-.76-3.3-1.48-3.46-2.61-.6-3,1.34-16.69,7.83,4.92,0,7.76.21,10.54-.11a4.74,4.74,0,0,0,3.17-2.2c1-1.94.12-2.27-2-2.16-5.61.29-11.26,0-16.88.21-.86,0-1.7,1.55-2.42,2.48,0,.06.89,1.31,1.43,1.37,2.75.29,5.52.37,20-4,1.46,0,2.91,0,8.38,2.54a16.42,16.42,0,0,0-2.11-2.49,1.89,1.89,0,0,0-1.83,0,1.84,1.84,0,0,0,0,1.83,9,9,0,0,0,2.58,2C912.21,298,912.92,297.06,909.42,294ZM593,970.93c.65,0,1.55.25,1.88-.07a1.9,1.9,0,0,0,0-1.84c-1-1.44-2.26-3.23-3.8-.6-.2.34,1.23,1.65,8.21,7.56,0-.68.24-1.49-.05-2-.61-1.09-1.39-2.77-2.3-2.91-4-.64-1.49,2.57-1.93,4a3,3,0,0,0,2.5,4.09C598,979.19,598.74,977.08,593,970.93ZM494.17,257.25a15.37,15.37,0,0,0-2.1-2.49,1.31,1.31,0,0,0-1.85,1.85,8.63,8.63,0,0,0,2.57,2c.16.09.88-.84-19.31-12.62-1.14.07-6.79.28-12.39.86-.62.07-1.09,2.28-1.46,3.55-.2.66-.33,1.78,0,2.06.83.67,2.64,1.58,2.88,1.32,4.7-5.12,9.9-4.92,14.72-.82,2.66,2.26,3.57.37,4.6-1,1.31-1.69,1.73-1.48,3.19-.4,3.17,2.38,4.55,2,6.63-.55.85-1.05,1.79-2,2.69-3.05-1.16-.67-2.29-1.85-3.48-1.92C486.6,245.83,482.29,246,494.17,257.25ZM804.6,298.38A19.62,19.62,0,0,1,801,296.9c-1.65-1.09-2.5-3.55-5.14-2.89,0-2.14.1-4.29-.07-6.42,0-.55-1-1.55-1.33-1.46-1.05.26-2.71.81-2.83,1.48a36.84,36.84,0,0,0-.14,6.4c-7.42-2.06-12.19,7.44-19.81,4.52-2.11,4.4-7.38,3.39-10.48,6.12,3,4.6,7.59,2.07,11.44,2.35,5.75.42,11.55.16,17.34.09,2.73,0,11.57-5.42,19.66-13.08-.68,0-1.49-.24-2,.05-1.09.61-2.76,1.39-2.91,2.3-.64,4,2.58,1.49,4,1.93a3,3,0,0,0,4.1-2.5C812.86,295.38,810.76,294.61,804.6,298.38Zm-85.07-56.69c-4.53,4.05-4.53,4.05-7.7,1a11.79,11.79,0,0,1-1.53-1.55c-2.5-3.54-4.6-3.9-7.92-.38-1.43,1.52-4.07-6-7.55-.87-1.19,1.77-3.18,3-4.52,4.69s-1.94,1.53-3.16-.3c-1.78-2.68-4.63-3.79-7.33-2.18a20.72,20.72,0,0,0-6.13,6.1c-1.25,1.82-.09,2.21,2.07,2.24,4.07.07,8.65-1.8,11.9,2.87,1.75,2.5,2.21,1.83,11,1.45,9.42-.39,18.88,0,28.31-.18,1.13,0,2.23-1.39,3.34-2.14-3.59-3.59-7.18-7.18-56.73-.09.94-3.32-2.73-1.64-3.69-3.28-.55-.93-1.74-4.62-4-1.73-1,1.24-1.26,4.14-.45,5.36s3.33,1.73,5.15,1.83C671.53,254.61,672.58,253.15,719.53,241.69Zm19.36,303.64c7.07,4.82,9.94,11.07,9.2,20-1,12.27-.28,24.7-.24,37.06,0,2.86-.94,6.92.55,8.36,6.32,6.13,3.39,13.56,3.67,20.37.47,11.61.13,23.26.13,34.89,8.54,11.66,3.3,25,4.16,37.47.9,13,.16,26.16.24,39.25,0,2.8-.58,6.93.94,8.15,5.1,4.09,3.16,9.27,3.31,14,.28,8.72.17,17.45,0,26.17a16.78,16.78,0,0,0,3.75,11.7,8.29,8.29,0,0,1-2.17,11.47c-1.88,1.26-1.83,1.83-.06,3.18,3.23,2.47,4.49,5.46,1.14,8.95a11.35,11.35,0,0,0-2,3c7.39,6.52,3.44,15.08,3.55,22.51.49,35.62.2,71.25.25,106.87,0,3.55.34,7.1.68,10.63a1.48,1.48,0,0,0,3,0c.32-5.72,1.24-11.55.51-17.15-.82-6.21,6.65-9.34,4.65-15.69-1.07-3.39,3.59-4.66,3.9-7a75.12,75.12,0,0,0,.25-17.35c-.61-6,6-9.33,4.69-15.69-1.08-5.39,1-11.53-4.51-15.66-.35-.26,0-1.4-.05-2.12-.1-3.78,5.09-4.75,4.49-9.12s.52-8.82-.26-13c-1.41-7.61,2.3-14,5.75-19.43,2.7-4.27,1-5.1-.84-8.1-2.29-3.78,1.45-6.42,4-8.85s5.93-4.53.89-7.72c-1.65-9.22-1.14-18.47-.39-27.72,6.12-4.13,3.51-10.43,3.71-15.88.32-8.71.09-17.45.09-26.17,6.1-5.66,4.32-13.06,4.31-20,0-4.41-.07-8.43,4-11.57,1.08-.82,1-3.93-.87-5.76-1.45-1.42-3.42-2.44-3.2-5.24.34-4.33.93-8.93-.11-13-1.5-5.89,4.39-8.65,4.53-13.51.16-5.81,0-11.63,0-17.44V638.71c0-6.55.46-13.13-.13-19.62-.54-6,6.43-8.78,4.89-15.74-1.69-7.62-.32-15.91-.41-23.91-.05-4.17,1.27-8.84-3.49-11.63-1.58-7.13-2.31-14,4.42-19.3,2.27-1.79,4-4.28,6.25-6.06,1.74-1.36,2-2.14.11-3.14a9.51,9.51,0,0,0-1.88-.73c-5.43-1.47-9,2.89-13.5,4.2-7.93,2.3-17.4-3.82-24.41,4.3-3.46-4.61-8.35-4.6-13.37-4.13s-9.8.15-13.64-4.22c-.88-1-4.05-.48-5.66,1.63A55,55,0,0,1,738.89,545.33Zm150.67,15.28c2.57,1.17,3.51,4.11,7.11,4.35,5.57.36,11.68-2.55,16.66,1.68,3.09,2.62,4.59,2.68,4.8-1.67.16-3.51-.52-6.89,2.88-9.78,5-4.23,9.32-9.17,14-13.77,1.49-1.47,2.73-3,5.36-2.93,5.81.27,11.64-.1,17.44.15,4.2.17,6.19,5,11.07,5.17,3,.12,1.62,4.94,1.65,7.64.14,13.08,0,26.17.07,39.25,0,3.62,1.14,4.58,5.35,4.64,3.63,0,7.33.44,10.89-.08,7.7-1.14,12.58,4.86,18.93,7.09a7,7,0,0,1,4,4.72c.64,6.2-1.29,12.93,4.54,17.8.15,7.65-1.47,15.65,4.37,22.18.92,10.38-3,21.43,4.37,30.9v32.72c5.83,4,4.25,10.07,4.34,15.63.1,5.82-.07,11.64,0,17.45.11,5.5-1.68,11.57,4.15,15.56-1.24,1.54-2.49,3.08-3.73,4.63,5.48,3.34,3.75,8.78,3.91,13.64.27,8.63.44,17.26.75,25.89a2,2,0,0,0,1.47,1.36,2.13,2.13,0,0,0,1.49-1.43c.29-7.18,1.59-14.57.37-21.5-1.37-7.8,5.74-12.92,4.61-20-1.22-7.6,2.52-15.39-2.43-23-4.5-6.93-.94-15.43-1.93-23.16-.08-.58-.9-1.06-1.33-1.62-4.94-6.46-4.13-12.29-.18-19.45,2.81-5.09,3.76-11.8-1.64-17.71a23,23,0,0,1-5.28-12.89c-.64-7.81.29-15.75.57-23.63,6.52-5,2.2-12.14,3.57-18.15,1-4.33-4.56-5.17-4.45-9.11.19-6.53,0-13.08,0-19.62-6-3.94-4.24-10.08-4.34-15.64-.11-6.54,0-13.09,0-19.63V505.89c-5.07-2.44-3.4-9-7.53-12.26-1.08-.85-1.22-4-.62-5.69,1.93-5.46,13.91-20.3,18.44-22.8,1.69-.94,4.1-.59,6.19-.81,2.79-.29,5.59-.5,8.37-.9.44-.07,1.17-1.09,1.06-1.45-.18-.62-.91-1.48-1.45-1.51-7.8-.4-15.63-1.58-23.36.57-2.86,6.13-9.89.88-13.27,4.7-4.15,4.69-9.34,2.32-14.09,2.95-3.07.41-8.59,5.47-8.65,8.25-.11,5.81.71,11.76-.27,17.41-.77,4.48-3.63,8.61-5.56,12.9-5.47-1.09-7.72,5.28-13.14,5.34-6.07.06-13.22-3-17.93,3.89-4.32.09-8.82.95-12.94.06-5.24-1.13-7,4.3-11.31,4.66-6.81.57-14.61-3-20,4.27-5.09,0-10.36.84-15.22-.2-6.42-1.37-9.61,5.54-15.71,4.71-5-.68-10.23.42-15.22-.28-6.17-.87-9,3.19-12.42,6.76,1.54,1.54,3.13,3,4.62,4.63,1.89,2,4.31,3.54,4.13,7-.3,5.81.6,11.73-.25,17.42-1,6.84,3.63,11.89,4.32,17.87.9,7.89.22,16,.22,24,0,7.26,1.22,14.8-.31,21.74-1.9,8.59,4.7,14.56,4.68,22.24,0,5.09,0,10.18,0,15.27v17.45c0,5.08,1.22,10.58-.29,15.17-2.29,6.93,5.21,9.83,4.75,15.74s-.1,11.62-.1,17.44V747.7c0,5.82,1.12,11.92-.28,17.38-1.73,6.73,5.14,9.74,4.79,15.71-.54,9.42-.14,18.9-.14,28.35,0,12.36-.06,24.71.14,37.07,0,.83,1.9,2,3.09,2.32a7.07,7.07,0,0,0,4-.65c2-.83,1.8-1.88-.11-3.06-2.83-1.75-2.89-4.57-2.82-7.56.15-6.54.05-13.08.05-19.62V756.57c0-6.54-1.25-13.4.32-19.54,1.9-7.44-5.36-11.33-4.79-17.91.5-5.78.1-11.62.1-17.44V669c0-5.82-.89-11.81.23-17.4,1.31-6.47-5.92-9.5-4.75-15.72.79-4.21.46-8.72.09-13.05-.76-8.94,3.06-18.67-4.3-26.54.2-6.3-1.22-12.55,5.35-17.56C878,573.47,883.59,566.57,889.56,560.61ZM670,556c-3.63,0-7.27-.12-10.9,0s-7,.62-10.5.95c-1.06,4.52,4,4.8,5.31,7.72.8,1.85,2.05,3.72,2.13,5.62.26,6.53.1,13.08.1,19.63s.87,13.24-.23,19.59c-1.22,7,3.78,11.78,4.57,17.86,1.63,12.47-3.87,25.76,4.39,37.45v15.27c0,4.36,1,9-.23,13-1.88,6.12,5.9,7.54,4.91,13.58-1.27,7.79-.67,16-.2,23.94.41,6.81-3,14.61,4.26,20,0,8-.2,16,.15,24,.07,1.77,1.93,3.55,3.18,5.16.92,1.18.56,1.85-.94,3.16-3.84,3.36-2.8,7.7-1.56,11.73.58,1.87,3.24,3.32,3.38,5.08.67,8.56.8,17.17,1.12,25.76,6.54,7.52,2.56,16.5,3.26,24.78.66,7.94.14,16,.14,24,0,2.18-.92,5.44.16,6.36,5.23,4.47,4.12,10.25,4.19,15.83.08,5.81,0,11.63,0,17.44v19.64c8.59,7.67,3.07,17.68,4.23,26.56.75,5.71.16,11.59.29,17.39,0,.53,1.24,1.56,1.43,1.46,1-.52,2.66-1.33,2.67-2,.15-17.44.58-34.91-.13-52.33-.27-6.69,2.11-10.83,6.66-14.84,2.89-2.55,2.64-2.83-2.3-4.39-4.57-1.44-4.74-1.61-1.45-4.76,3.71-3.55,7.19-6.76,6.2-12.8-.69-4.25-.13-8.7-.13-13.07,0-3.63-.71-7.45.16-10.86,1.33-5.24-4.68-6.75-4.62-11.32.22-16.72.19-33.45,0-50.17,0-3.24,1.41-5.14,3.31-7.42,3.1-3.74-1.42-10.42,4.72-13.28,0-3.4-4.36-4.66-3.71-8.79,2-12.41-3.59-25.59,4.31-37.55,1.83-2.76-3.63-4.5-3.92-6.84-.71-5.73,0-11.61-.32-17.41-.31-6.11,2.34-13-4.11-17.74a10.57,10.57,0,0,0,4.28-9.18c-.24-22.53-.1-45.08-.13-67.61,0-2.13.6-5.28-.52-6.21-6.25-5.2-3.27-12-3.72-18.17-.48-6.51.18-13.09-.18-19.62-.46-8.09-.42-13,1.26-15.51a21.24,21.24,0,0,1,3-3.11c-1-.78-2-2-3.14-2.24-5.15-.87-7.54,5.79-13.5,4.53C681.81,555.12,675.8,556,670,556Zm-53.31,2c-.52-.51-1-1.45-1.55-1.48-11.24-.63-23.11-3.72-31.23,8.09-.46.67-3.49.69-4.11,0-6.4-7.46-14.69-3.64-22.21-3.81a1.5,1.5,0,0,0-.69,2.89c4.42,2.21,2.64,7.56,5.93,10.81,3.75,3.7,1.48,9.59,1.51,14.48.18,26.92.1,53.84.07,80.76,0,3.61-.51,7.24,3.22,9.6,1.37.87.65,1.7-.68,3.16s-2.89,4.69-2.34,5.28c6.22,6.67,3.4,14.81,4.26,22.36,1.6,13.94-4.41,28.66,4.29,41.85v50.21c5.54,4.07,4.32,10.06,4.35,15.65.06,14.55-.14,29.1.12,43.65.07,4.15-2.11,9.07,1.4,12.41,4.54,4.3,2.43,9.39,2.8,14.16.33,4.34.07,8.73.07,13.09,0,13.83,0,27.65,0,41.48,0,2-.65,4.26,1.58,5.91,1.73,1.29,3,4.15,4.69,4.3,2.09.2,2.51-2.52,2.47-4.69-.09-5.09-.11-10.18,0-15.27.09-4.29.39-8.57.59-12.85,8.15-4.4-3.66-7.62-.72-12,1.06-1.56.2-4.62,1.39-5.86,2.31-2.41,3.64-4,.15-6.33-2.3-1.5-2.11-5-1.16-5.7,4.06-3.11,4.07-7.08,4.22-11.52.16-4.75-2.27-10.35,3.34-13.85-.52-3.13-5.28-6.5.53-9.26-.27-.52-.39-1.26-.81-1.51-4.85-2.94-2.74-7.71-3.18-11.81,6.11-3.92,4.22-10.09,4.34-15.65.12-5.82,0-11.64,0-17.46.07-5.58-.05-10.71,4-15.94,2.92-3.81-2.13-8.83-3.57-13.32-1.59-4.95,6.77-9.13,3.9-15.5a11.54,11.54,0,0,0-2.44-3.34c-2.39-2.34-3.13-5.28-.61-7.35,3.4-2.79,3.11-6.12,3.11-9.72q-.06-34.92,0-69.84c0-5.57-1.73-11.73,4.34-15.66-.7-3.38,1.51-7.15-1.65-10.24-4.84-4.73-2.16-10.68-2.33-16.16,6.29-4,3.75-10.36,3.88-15.82.18-7.9-.33-15.82-.54-23.74-6.37-5-3.61-12-3.49-18.09.15-7.12,7.66-9.8,11.47-14.8C615.82,559.1,616.25,558.6,616.67,558.08ZM761,246c5.05,0,10.09,0,15.13-.07.53,0,1.55-1.1,1.45-1.4-.35-1-1.07-2.76-1.67-2.77-10.08-.18-20.17-.15-30.26-.06-.52,0-1.55,1.1-1.45,1.4.35,1,1,2.75,1.68,2.77C751,246.07,756,246,761,246ZM992.4,289.63c-.49-1.21-.64-3-1.53-3.51-2.21-1.31-4.86-1.87-7.17-3-5.53-2.82-5.5-2.91-10.26,1.52-1,.92-1.84,2-2.76,3,1.12.69,2.18,1.79,3.38,2,5.23.86,11.36-2.23,15.52,3.61a7.83,7.83,0,0,0,2.76-1.5C992.69,291.36,992.4,290.33,992.4,289.63Zm-109,588.88c-.22-2.66-.53-6.82-1-11,0-.51-1-1.33-1.43-1.26a2.13,2.13,0,0,0-1.46,1.41c-.53,4.78-.91,9.58-1.34,14.37-6.39,4.29-.36,6.31,1.68,9,.33.43,1.11,1,1.46.84.6-.23,1.42-.89,1.47-1.43C883.06,887,883.16,883.52,883.39,878.51Zm39.13-272.36c0,4.31-.12,8.63.13,12.92,0,.66,1.71,1.37,2.75,1.73.29.1,1.41-.92,1.42-1.43.1-7.18.14-14.37-.06-21.55,0-.62-1.72-1.35-2.75-1.72-.29-.1-1.39.9-1.42,1.44C922.44,600.4,922.52,603.28,922.52,606.15Zm-240-338.34c3.59,0,7.18.06,10.77-.07.52,0,1.53-1.13,1.43-1.42-.36-1-1.09-2.74-1.72-2.76-7.18-.19-14.36-.15-21.55-.06-.51,0-1.53,1.14-1.43,1.43.37,1,1.06,2.7,1.73,2.75C675.27,268,678.87,267.81,682.47,267.81ZM839.26,861.75c1.08,0,2.11.29,2.4-.06.68-.8,1.66-2.49,1.38-2.8-2.78-3.09-5.89-5.89-8.7-9-1.25-1.38-2.16-1.53-2.93.4-.48,1.2-1,3-.5,3.86C832.94,857.6,835.08,861.14,839.26,861.75ZM552.43,398.82a22.11,22.11,0,0,0,4.23-.05c2.18-.42,3.8-1.54,3.4-4.21-.11-.69.24-1.56-.07-2.08-1.26-2.16-2.42-1.91-4.42-.33s-4.77,2-7.15,3.06c-.59.26-1.38,1-1.34,1.45a2.21,2.21,0,0,0,1.4,1.45A27.45,27.45,0,0,0,552.43,398.82Zm488,465.2a78.76,78.76,0,0,0-.13-8.56c-.08-.68-1.73-1.34-2.76-1.68-.3-.1-1.4.9-1.42,1.42-.11,4.28-.18,8.57.07,12.84,0,.65,1.72,1.34,2.75,1.68.3.1,1.33-.86,1.42-1.43A28.9,28.9,0,0,0,1040.44,864ZM937.81,289.64a78.71,78.71,0,0,0-8.56.14c-.64.06-1.25,1.76-1.54,2.8-.09.32.92,1.35,1.45,1.37,4.28.11,8.57.17,12.84-.07.59,0,1.24-1.77,1.54-2.81.08-.31-.89-1.28-1.46-1.36A30.39,30.39,0,0,0,937.81,289.64ZM446.49,1038.52a28.65,28.65,0,0,0-.07-4.25c-.08-.57-1.09-1.53-1.41-1.43-1,.33-2.68,1-2.76,1.64a53.71,53.71,0,0,0-.06,8.51c0,.52,1.1,1.51,1.41,1.41,1-.32,2.46-.85,2.77-1.67C446.84,1041.49,446.49,1039.94,446.49,1038.52ZM852.64,237.15c-.19-3.37-1.6-4.63-5.37-4.19-1.17.13-2.22,1.34-3.32,2,.47.5.93,1,1.4,1.48a28.57,28.57,0,0,0,3,2.93,14.27,14.27,0,0,0,2.93,1.36C851.74,239.57,852.19,238.36,852.64,237.15Zm-61.11,2.3c-1.22-1.23-1.78-2.19-2.2-2.13-1.93.27-4.48.24-5.55,1.45s-.49,3.65-.4,5.55c0,.52,1.32,1.45,1.35,1.42C787,243.7,789.27,241.58,791.53,239.45Zm-337,3.64c-1.28-2.18-5.58-2.27-7.21-.08a1.65,1.65,0,0,0-.1,1.45c1.21,2.23,5.55,2.29,7.18.1C454.65,244.23,454.5,243.59,454.53,243.09Zm-56,2.88c-2.67,0-4.57,1.48-3.75,2.88,1.28,2.19,5.58,2.27,7.21.08.25-.34.29-1.32.11-1.41A37.71,37.71,0,0,0,398.53,246ZM586.36,307.1c1.16-.48,2.39-.93,3.53-1.54.18-.09.14-1.07-.11-1.41-1.63-2.19-6.44-2.24-7.07.12S584.19,307.29,586.36,307.1Zm44.09,244.23-4.9,2.53c1.81.73,3.57,1.83,5.44,2,1,.12,2.19-1.3,3.29-2ZM846.79,810c-.5,0-1.14-.12-1.47.13-2.19,1.63-2.13,6,.1,7.18a1.65,1.65,0,0,0,1.45-.1C849.06,815.62,849,811.32,846.79,810ZM1038.94,848c2.19-1.28,2.28-5.59.09-7.22a1.65,1.65,0,0,0-1.45-.1c-2.23,1.21-2.29,5.55-.1,7.18C1037.81,848.07,1038.45,847.92,1038.94,848ZM586.23,962.31c.2-2.16-.37-4.31-2.83-3.65s-2.31,5.45-.12,7.08c.34.25,1.32.28,1.42.1C585.31,964.7,585.75,963.47,586.23,962.31Zm384.32,12.87c-.48-1.16-.93-2.39-1.54-3.53-.09-.17-1.07-.14-1.41.11-2.19,1.63-2.24,6.44.12,7.07S970.74,977.35,970.55,975.18ZM515.74,890.77,514.18,888c-.48.49-1.44,1.08-1.36,1.44a13.85,13.85,0,0,0,1.36,2.93Zm340.64-23.1-1.55-1.55a13.41,13.41,0,0,0-1.37,2.93c-.08.36.88,1,1.37,1.44C855.35,869.54,855.88,868.59,856.38,867.67ZM378.17,848l2.81-1.55c-.48-.49-1.07-1.45-1.43-1.37a13.41,13.41,0,0,0-2.93,1.37ZM268.06,825.26l1.56,1.55a13.85,13.85,0,0,0,1.36-2.93c.08-.36-.88-1-1.36-1.43C269.09,823.39,268.57,824.34,268.06,825.26Zm571.48-9.37c-.48-.48-1.07-1.44-1.43-1.36a13.85,13.85,0,0,0-2.93,1.36c.48.49,1.07,1.45,1.43,1.37A13.41,13.41,0,0,0,839.54,815.89Zm3.74-31.2-1.55-1.55a13.41,13.41,0,0,0-1.37,2.93c-.08.36.88.95,1.37,1.44Zm-195.9-21.2c-.48-.49-1.07-1.45-1.43-1.37a13.41,13.41,0,0,0-2.93,1.37c.48.48,1.07,1.44,1.43,1.36A13.85,13.85,0,0,0,647.38,763.49Zm-5-358.75-1.56-1.55a13.85,13.85,0,0,0-1.36,2.93c-.08.36.88.95,1.36,1.44ZM624.92,323l-1.56-2.82c-.48.49-1.44,1.08-1.36,1.44a13.85,13.85,0,0,0,1.36,2.93ZM757.2,291.2c.5.91,1,1.86,1.55,2.81.48-.49,1.44-1.08,1.36-1.44a13.59,13.59,0,0,0-1.36-2.93Zm-170.33-3.11,1.56,1.55a13.85,13.85,0,0,0,1.36-2.93c.08-.36-.88-.95-1.36-1.43C587.9,286.22,587.38,287.17,586.87,288.09Zm7.48-13.1-1.56-2.82c-.48.49-1.44,1.08-1.36,1.44a13.85,13.85,0,0,0,1.36,2.93Zm30.57-26.21L623.36,246c-.48.49-1.44,1.08-1.36,1.44a14.08,14.08,0,0,0,1.36,2.93Zm-9.66.93,1.55-1.56a13.85,13.85,0,0,0-2.93-1.36c-.36-.08-1,.88-1.43,1.36ZM507,247.52,505.45,246a13.41,13.41,0,0,0-1.37,2.93c-.08.36.88.95,1.37,1.44C506,249.39,506.5,248.44,507,247.52Zm-73.61-3.73c-.49-.49-1.08-1.45-1.44-1.37a13.63,13.63,0,0,0-2.93,1.37c.49.48,1.08,1.44,1.44,1.36A13.85,13.85,0,0,0,433.39,243.79Zm376.21-3.74,1.56,1.55a13.85,13.85,0,0,0,1.36-2.93c.08-.36-.88-.95-1.36-1.43C810.63,238.18,810.11,239.13,809.6,240.05Zm-56.77-14.36,1.55,2.81c.49-.48,1.45-1.07,1.37-1.43a13.48,13.48,0,0,0-1.37-2.94Zm-202.16,0-1.55-1.56a13.44,13.44,0,0,0-1.36,2.94c-.08.35.88,1,1.36,1.43C549.65,227.55,550.17,226.6,550.67,225.69Zm215.26-4.37c.5.92,1,1.87,1.55,2.81.49-.48,1.45-1.07,1.37-1.43a13.41,13.41,0,0,0-1.37-2.93ZM341.05,161.44c-.51-.92-1-1.87-1.56-2.81-.48.48-1.44,1.07-1.36,1.43a13.85,13.85,0,0,0,1.36,2.93Zm304.78-54.59L643,108.4c.48.49,1.07,1.45,1.43,1.37a13.41,13.41,0,0,0,2.93-1.37Z"/><path d="M461.88,569.15c-1.42,0-3,.34-4.21-.13-.82-.3-1.35-1.73-1.67-2.76-.1-.32.89-1.39,1.41-1.41a52.54,52.54,0,0,1,8.51.06c.67.07,1.31,1.73,1.64,2.76.1.31-.86,1.32-1.43,1.41A28.63,28.63,0,0,1,461.88,569.15Z"/><path d="M418.1,564.78a13.41,13.41,0,0,1,1.37,2.93c.08.36-.88.95-1.37,1.44a13.92,13.92,0,0,1-1.36-2.94C416.66,565.85,417.62,565.26,418.1,564.78Z"/><path d="M415.92,278.73a13.85,13.85,0,0,1-2.93,1.36c-.36.08-.95-.88-1.44-1.37a14.08,14.08,0,0,1,2.93-1.36C414.84,277.28,415.44,278.24,415.92,278.73Z"/><path d="M562.46,276.54c-.67-.86-2.1-2.17-1.9-2.52,1.54-2.62,2.79-.83,3.8.61a1.93,1.93,0,0,1,0,1.84C564,276.79,563.11,276.54,562.46,276.54Z"/><path d="M572.78,257.25c-.5.5-1.22,1.43-1.38,1.34a8.63,8.63,0,0,1-2.57-2,1.31,1.31,0,0,1,1.85-1.85A15.37,15.37,0,0,1,572.78,257.25Z"/><path d="M566.83,254.71c-.68-.87-2.1-2.17-1.9-2.52,1.54-2.63,2.78-.83,3.8.6.3.43,0,1.27,0,1.91Z"/><path d="M603.08,563.23l-1.55,1.55a13.63,13.63,0,0,1-1.37-2.93c-.08-.36.88-1,1.37-1.44Z"/><path d="M791.5,294h4.37c.16,2.12-.28,4.06-2.89,3.46C792.26,297.31,792,295.22,791.5,294Z"/></svg>