<svg id="Layer_1" data-name="Layer 1" xmlns="http://www.w3.org/2000/svg" viewBox="0 0 1200 1200"><title>BB_Artboard 78</title><path d="M291.34,238.31c0,18.64,0,37.28,0,55.92,0,4.59,1.92,5.94,7.94,5.48a28.82,28.82,0,0,0,8.18-1.53c2.53-1,4.54-3.57,7.08-4.18,10.07-2.42,20.56,3.14,31-3.66,9.12-5.95,20.81-1.33,31.31-2.33,1.93-.19,5.15.63,5.64-.24,3.27-5.72,9.89-5,14.49-8.1,5.28-3.54,10.8-7.43,16.79-9,5.41-1.42,10.52-1.08,15.77-5.15,3.72-2.88,11.21-.9,17-1.08,5.51-7.44,13.6-6.12,21.1-5.75,5.62.27,11.81-2.47,16.84,1.79,5.72,4.82,14.35,4.82,18.57,12.34,3.24,5.77,6,.61,8.08-1.72,1.75-2,3.92-4.89,3.66-7.13-.73-6.46,3.58-10.35,5.72-15.42,2.06-4.87-.44-11,5.06-15.73,4.16-3.59-1.66-11.57,4.37-15.7.8-.54,1.92-1.3,2-2.07.84-6.56-.7-14.79,2.72-19.31,4.22-5.59,3.66-10.67,3.86-16.23a188.53,188.53,0,0,0-.12-20.59c-.19-2.49-2.31-4.88-3.69-7.23-2.78-4.74-2.22-12.2-8.38-14-7.92-2.31-13.34-10.43-23-8.84-5.73.95-11.76-.09-17.62.27-3.67.23-8.29-2.18-10.86,1.94-3.42,5.47-10.25,3.36-14.55,8.05-13.24,14.46-27.41,28.07-41.47,41.75-3.08,3-2.67,8.26-4.43,9.71-5,4.09-3.81,11-8.09,14.5-6.15,5-8.22,12.46-12.64,18.31-5.85,7.75-13.78,13.91-20.46,21.08-3.34,3.58-7.23,1.71-10.87,2.31-3.48.58-5.91-1.24-6.19-4.26-1.31-14.4,0-21.83,7.26-35.17,1.78-3.28,5.14-5.56,4.44-10-.64-4,.09-7.53,3.64-10.27,5.59-4.3,7.56-9.75,8.83-17.09a36.18,36.18,0,0,1,9.88-19.31c12-11.61,23.55-23.62,35.47-35.28,5.34-5.22,14.57-4.78,18.45-12.47a6.43,6.43,0,0,1,4.42-3.19c6.85-.35,13.89.74,20.55-.44,5.17-.91,8.57-7,15.3-5.76,5.72,1.08,11.09.26,15.73-4.93,1.79-2,9.82-2.15,10.83-.54,5.57,9,16,3.5,23.2,9.12,5.67,4.44,13.07,7.15,17.9,13.07,3.79,4.63,9.52,5.71,14,8.66,7,4.55,14.85,7.35,21,13.88,9,9.53,22.45,14.24,30.53,25.28,8.49.1,15.85,11.93,23.47,5.74,7.24-5.87,14.05-5,21.53-5.36,12.79-9.87,27.69-4.86,41.72-5.81,9.34-.64,19,1.85,27.25-5.67,2.15-2,7.58-.29,11.51-.29,21.58,0,43.17-.22,64.74.12,7.35.11,15.74-3.13,21.55,5,.75,1,3.58.68,5.45.79,8.64.5,17.27.94,25.91,1.4,4.92,8.76,18,0,22.19,10.39,5.49.71,12-2.45,15.93,4.18,14.81,4.55,26.6,13.46,36.8,24.92,5.21,5.85,10.5,11.87,16.73,16.51,7.32,5.45,9.62,13.84,14.16,20.82,3,4.54,3.61,10.46,8.51,14.15,2.13,1.6,4.45,4.27,4.77,6.71,1,7.59,1.11,15.3,1.56,23,7.37,4.82,4,12.32,4.42,18.73.47,7.82-.2,15.71.22,23.54.33,6.18-7.84,8.19-6.25,15.28,1.27,5.6.53,11.74.07,17.59-.12,1.49-3.06,2.56-3.85,4.23-2.26,4.77-3.22,10.17-7.05,14.16,6.19,4.75,5.07,15.34,12.61,18,6.74,2.41,9.47,6.33,12.36,12.3,2.43,5,8.18,8.32,12,12.75,1.71,2,2.27,4.91,3.53,7.32,3,5.65,5.56,11.56,9.19,16.76,3.19,4.57,2.21,11.44,8.18,14.31-3,7.77,8.79,10,6.67,18.12-.57,2.18,6.11,4.44,5.39,9.26-1.45,9.73,9,16.59,6.14,27.06-1.42,5.29-1.56,11.66,4.58,15.7,1.06.7,1.67,4.34.9,5.21-10.42,11.8-4.36,25.9-5.64,38.91-.65,6.61-8.52,10.3-6.17,18.2,1.74,5.88-.16,11.49-5.71,15.17,1.91,8.67-1.57,15-8.41,20.11-1.43,1.06-3.32,3-3.19,4.43.69,7.3-1.69,12.66-7,17.9-4.49,4.38-6.75,11-10.74,16-3,3.76-5.55,6.92-6.64,12.12-.85,4-8.4,6.54-9.46,10.63-2.07,8-8.7,13.81-7.9,23.48,1.44,17.54.54,35.29.35,53-.09,8.66-.77,17.31-1.19,26-8.08,5.8-3.59,14.31-4.64,21.62-9.5,4.71-2.43,16.49-9.69,22.66-2.16,1.84-3,7.67-1.78,10.6,2.81,6.92,7,13,5.81,21.26-1.06,7.71-.23,15.67-.23,23.52,0,2-.43,4,.08,5.86,1.89,6.7-7.5,8.85-5.95,15.24,1.69,6.94-3.07,10.57-7.13,14.75-1.9,2-4.46,4.59-4.4,6.86.15,6.19-8.74,8.39-6.14,15.23-4.14,4.17-8.13,8.51-12.46,12.47-4.1,3.74-6.92,8.62-14.14,8.94-3.62.16-7.05,6.28-10.42,9.85-7.36,7.8-16.52,12.29-27,12.76-6.17.27-8.41,8.62-15.21,6.12-3.72,5.47-9.11,5.8-15.21,6.15s-9.87,5.22-11.48,11.07c-5.09,18.55-8.78,27.24-20.75,41.35-3.62,4.26-.94,15.2-11.91,12.32a40,40,0,0,1-12.42,18.44c-5.16,4.51-9.78,9.64-14.64,14.5s-10.08,9.4-14.44,14.66c-3.37,4.06-8.21,4.16-12.11,6.4-4.11,2.35-7.09,9.56-10.55,9.54-6.76,0-9.23,6.35-15.06,7-7.45.82-10.35,8.14-15.38,12.43-4.47,3.8-8.12,8.57-12.63,12.31-4.32,3.59-6.7,11.27-13.24,10.15-9.38-1.61-14.77,8.1-24.15,6.46-7.61-1.34-15.66-.58-23.49-.2-9.05.44-16.61-.86-23.2-8.53-3.87-4.5-10.66-7.55-16.66-8.85-6.63-1.44-9.3-6.55-13.42-10.27-3.59-3.26-13.32.3-10.9-9.62l-26.3-27.37c-8.56,1.86-7.23-5.9-10.41-9.76-5.41-6.56-5.72-16.46-14.19-20.78-3.42-1.75-1.74-5.19-2.09-7.94s.77-5.51-2-8.07c-4.8-4.42-8.85-9-11.12-16-1.87-5.82-9.31-9.73-13.89-14.83-3.68-4.1-2.68-10.89-8.33-14.24-7.2-4.27-10.12-13.3-20.39-15.08-9.09-1.58-8.15-14.15-14.62-19.93s-12.56-12.41-18.8-18.65c-16.66-16.66-33.37-33.26-49.93-50-3.92-4-9.5-7-8.58-14.2.15-1.19-2.72-2.62-3.92-4.16-4.81-6.14-14.3-4.47-18.71-12.29-3.26-5.76-9.36-9.94-14.39-14.6-.27-.25-2.63,1.34-3.63,2.43-.48.54-.22,1.91-.06,2.87,1.06,6.41,8,8.31,10.52,13.31,2.07,4.05,1.8,9.33,6.43,12,5.48,3.18,5.06,10.12,8.59,14,4.59,5,4,12.28,9.87,16.88,4.79,3.74,7.64,10.3,10.55,16,3.29,6.44,4.38,14.41,8.81,19.74s3.14,13.32,10,16.62c-2.81,7.72,8.53,10.24,6.64,18.07-.4,1.65,5.29,5,4.81,6.37-3.08,8.84,5.41,13.82,6.27,21.22,1.19,10.11,9.25,18.9,5.82,29.94,7.44,5.51,5.86,13.58,5.83,21.11,0,4.09-7.07,12-10.67,12-9.81.16-19.63.28-29.43-.1-2.51-.1-5.36-1.65-7.33-3.36-4.43-3.86-7.95-8.89-12.7-12.2-4.45-3.11-10.79-3.11-14.12-8.49-4-6.44-11.18-9.7-14.53-17.53-3.23-7.53-13.7-12.32-15.91-19.82-2.48-8.4-11.45-11.8-12.36-18.34-1.32-9.5-8.87-12.36-13.58-18-3.4-4.06-4.93-7.73-4.91-12.86,0-2.47-1.39-5.88-3.31-7.25-5.84-4.18-7.44-10.59-10.38-16.42-3.28-6.49-6.45-13-9.69-19.54-2.87-5.78-6.31-10.87-6.39-18.17,0-4.75-6.06-8.66-5.75-15.24.19-4-3.63-8.12-5.46-12.27-3-6.74-7.83-12.61-6.14-21.14s-9.43-14.46-6-23.87c-6-3.61-5.47-9.44-5.67-15.36-.21-6.43,2.09-13.14-4.37-19-2.55-2.32-.81-9.16-1.44-13.88-1.22-9.18,3.55-19.22-4.89-27.55-2-2-.9-7.39-.91-11.22-.07-16.68,0-33.36-.06-50,0-7.34-3.71-8.84-11.34-4.09-2.5,1.56-6,3.42-5.91.15.23-8-9.15-12.51-6.46-21.17,1.12-3.58.73-7.89.08-11.7-1.42-8.21,4.31-17.76-4.44-24.62-.45-7.67.13-15.58-1.66-22.92-1.45-6-5.24-11.64-8.88-16.83-3.8-5.41-4.29-11.34-.89-15.85,6.83-9.09,6.48-17.26.43-26.24-1.44-2.14-2-5.24-2-7.92-.23-9.81-1.31-19.83.28-29.37,1.35-8-9.06-10.09-6.57-18.32,1.63-5.39.31-11.68.31-17.57,0-6.86.93-13.9-.27-20.55-1.11-6.15-7.07-10.68-5.84-18.25,1.08-6.69.22-13.7.22-20.56s.26-13.75-.07-20.6c-.32-6.47,2.17-13.39-4.6-18.89-2-1.66-1.14-7.26-1.17-11.05-.11-13.74.4-27.49-.21-41.2-.37-8.24,3.22-17.29-4.86-24.6-2-1.83-.82-7.39-.83-11.23-.06-20.6.62-41.23-.37-61.79-.36-7.58,5.17-12,6-18.21.91-6.74-.43-13.78.37-20.55,1-8.13-7.91-12.58-6.34-21.18,1.38-7.6.29-15.65.29-23.49s0-15.7,0-23.55c0-5.81-7.63-8.24-6.12-15.27,1.21-5.63.57-11.75.14-17.6-.33-4.45,2.69-6.73,4.46-10,2.7-5,3.57-11.18-1.44-15.71-4.46-4-4.52-10.8-2.5-13.21,5.6-6.69,5.49-13.82,5.52-21.46,0-6.75,5.16-10.53,10.34-12.19,4-1.29,9.56-2,13.37,2.69,2.47,3,5.56,5.54,8.24,8.4,1.27,1.35,3.47,3.4,3.13,4.43-3.69,11.25,6.82,19.87,5.73,30s9.86,16.76,6.44,27.09c-.23.71,2.25,2.9,3.8,3.45,1.75.61,3.88.05,5.84.15,15.17.76,15.08,1.5,19.91,17.85,2.05,7,7.23,13,6.13,21,6.13,3.65,5.57,9.61,5.32,15.45-.42,9.59,8,16.75,7.39,26.48,0,.45,3.28,1.64,5,1.5s4.44-1.28,4.65-2.38c.71-3.75.18-7.74.84-11.51.25-1.39,2.32-3,3.89-3.53,9.45-3.42,15.17,6.23,23.53,7.14.78.09,1.75,3.2,1.76,4.92C291.39,201,291.34,219.67,291.34,238.31ZM356.1,723.62q-.23,6.12,5.88,5.89c0,2.94-1.22,6.88.23,8.63,5,6,13.16,10.36,15.77,17a40.79,40.79,0,0,0,13.22,17.89c5,3.95,5.43,9.64,8.11,14.41,4.11,7.34,7.67,14.94,14.48,20.49,4.53,3.69,11.19,7.79,11.91,12.47,1.22,7.95,7.09,11,11,16.19,4.48,6,11.37,9.54,14.11,17.68,2,5.84,7.82,11,13.06,15,7.23,5.48,10.23,13.57,14,20.82,3.06,5.92,6.85,10.91,10.4,16.31,4.07,6.2,6.9,13.06,12.75,18.18s12.31,10.26,16.35,16.74c3.74,6,6.53,13,9.86,19.3,5.47,10.41,13.61,18.23,27.59,16.37,7.52-1,15.37.41,23.06.74,5.64,8.29,14.19,3.76,21.44,5,1.64.29,2.89,2.36,4.53,3.21,5.63,2.91,11.37,5.63,17.05,8.45,13.94,6.92,28.56,12.64,40.26,23.45,1.17,1.08,4.08.32,5.2,1.41,14,13.71,27.78,27.6,41.62,41.45-.1,7.72,8.65,12,7.46,20.51-.94,6.72-.46,13.7-.06,20.53.17,3,2.31,5.18,5.92,4.49s7.3,1.15,11-2c5.58-4.78,12.54-7.61,18.61-12,8.29-6,20.14-10,22.56-19.79,3-12.22,18.55-14.3,18.73-27.76,0-2.82,5.48-5.28,7.67-8.45,2.55-3.7,3.29-9.21,6.53-11.77,6.46-5.11,1.12-12.51,5.57-18.57,6.34-8.61,4.19-11.62-5.91-11.28-7.07.25-12.36-2.17-18.4-5.56-4.47-2.51-11.56-1.13-17.32-.33-7.32,1-10.35-9.51-18.15-6.05-8.63,3.83-13.52-5.77-21.06-5.89-7.79-9.84-20.6-12.83-29.34-21.74-4.37-4.45-2.7-11-7.94-14.57-8.12-5.6-8.46-16.38-14.15-23.34-7-8.52-5.56-17.82-5.49-27.14,0-4.59-4.72-6.8-4.91-9.64-.68-10-5.45-21,4.13-29.93,1.11-1,0-5.35-1.12-7.69-3.11-6.73-11-6.49-16.26-10.27-6.62-4.75-5-14.51-12.33-18.52-.82-.45-1.67-2-2.07-1.89-6.9,2.48-9.26-5.57-15.16-6.43-4-.59-7.64-5.15-11.11-8.3C611,793.36,607.05,789,602.75,785c-1.27-1.18-3.52-2.69-4.77-2.29-7.69,2.44-11.85-5-20.8-6,.87,0,2.09.34,2.53-.1a2.59,2.59,0,0,0,0-2.48c-1.37-1.94-3-4.36-5.12-.82-.27.47,1.65,2.23,5.18,3.4,0,2.93-1.23,7.39.2,8.54,10.59,8.54,13.43,22.9,24.44,31.23,4.94,3.74,11.76,7.56,10.68,15.93,9.48,5.7,10.27,18.08,18.55,24.49,10,7.77,12.41,21.33,22.66,28.77-1.65,5.81,3.33,8.39,5.74,12.3.82,1.34.46,4-.27,5.6-3.49,7.78-12.79,7.41-18.13,12.54-3.5,3.35-7.91,2.64-10.88,1.58-6.89-2.47-12.87-6.47-21-6.51-3.47,0-6.35-7.88-10.51-9.41-5.49-2-10.82-3.79-13.88-8.73s-8.75-3.16-12.17-6.18c-5.79-5.12-10.43-13.3-17-15.32-9.42-2.88-14.38-9.78-19.59-16s-13.24-7.08-18.61-12.18c-8.49-8.07-16.84-16.32-24.85-24.86-7.17-7.64-18.5-9.08-25.1-18-2-2.75-8.57.44-13.46-2.34C446.43,792.33,435.2,788,425.34,782c-10.51-6.37-18.54-16.84-27.61-25.56-3.51-3.39-7.25-6.62-10.3-10.41-6.71-8.35-16.25-12.1-25.45-16.49.15-4.07-1.81-6-8.51-5.89.88,0,2.09.34,2.53-.09a2.56,2.56,0,0,0,0-2.49c-1.36-1.93-3-4.35-5.11-.81C350.64,720.7,352.56,722.46,356.1,723.62Zm135.4-23.55c1.45-10.67-1.1-13.22-11.78-11.77,0-2.94,1.2-6.82-.22-8.63-4.21-5.35-9.53-9.81-14.28-14.74-4.53-4.71-4.92-11.64-10.14-16.52-7.85-7.33-6.57-20.09,1-27.74,2.76-2.78,5.1-6.4,8.42-8.08,3.81-1.92,8.53-.39,9.84-7.46.9-4.87,6.87-8.75,10.29-13.29.27-.35-1.82-3.53-2.56-3.44-7.11.91-12.62-1.66-18.31-5.84-4.22-3.1-9.94-5.71-15-5.75-7.91-.08-14.24-2.63-21.25-5.81-6.4-2.9-15.69,2.59-21-6-5.83-.12-11.76-1-17.44-.17-7.17,1.07-11.26,12.93-6.06,17.58s7.18,10.71,10.54,16.24c3.46,5.69,11.59,9.08,13.68,14.92,2.78,7.75,8.17,12.46,12.78,18.31,1.19,1.51-.33,5.13-.6,7.78-1.38-.38-3.21-.33-4.08-1.22-8.9-9-17.64-18.07-27.47-28.22-1,4.16-3,8.42-2.12,9.15,8.32,6.78,10.89,17.47,17.8,25.11,3.86,4.25,10.48,8.37,10.83,12.93.7,9.35,11.69,10.18,12.44,18.56.78,8.84,9.74,11.45,14.19,17.57,2.28,3.13,7.33,5.29,7.86,8.43,1.42,8.51,10.46,12.11,12.1,18.46,1.94,7.55,8.39,10.47,10.76,16.22,3,7.26,8.64,12.23,12.26,18.5,2.6,4.51,7.51,9.68,7.08,14.38-1.11,12.07,8.09,16.7,14.18,23.72,11.87,1.38,16.82,11.92,24.5,18.75,10.61,9.45,18.91,21.67,32.94,26.92,3.39,8.16,13.37,6.74,18.29,12.49,8.16,9.52,18.67,14.8,29.95,19.9,5.52,2.49,12.63,3.74,16.73,9.16,1.83,2.41,3,2.79,4.16,0,.68-1.68,1.61-4.44.83-5.35-6.07-7.09-7-17.47-15.45-23.13-4-2.68-6.78-7.07-10.54-10.18-4.61-3.8-4.29-10-7.65-14.67-3-4.23-4.6-9.84-8.84-13.81-5.71-5.36-10.95-11.22-16.7-16.52-6.47-6-7.67-14.46-11.31-21.78-.4-.81-.52-1.86-1.12-2.46Q545.52,757,529.91,741.43c-7.27,1.59-10.35-4.35-14.07-8.4-4.44-4.85-11.19-7.91-12.57-15.29,1.92,0,3.86.15,5.76,0,5.88-.55,5.9-.62,3-5.94-.86-1.58-2.75-3.1-2.69-4.58.26-7-3.9-7.53-9.17-7.15C497.27,700.24,494.38,700.07,491.5,700.07Zm199.68-37.78a21,21,0,0,0-2.85-3.35,2.5,2.5,0,0,0-2.47,0,2.52,2.52,0,0,0,0,2.47,12,12,0,0,0,3.47,2.68c.22.11,1.18-1.14-5.34-4.07,2.19-2.57,2.9-6.55,5.93-8.29,2.18-1.25,1.91-2.76-.65-4.11-9.15-4.83-9.08-16.16-16.38-22.71-8.23-7.39-19.48-13.85-16.77-28.11-3.87-2.65-5.49-8.52-11.11-8.51-5.27,0-6.42-2.84-6.33-7.23.08-3.91.11-7.82,0-11.73-.23-7.63-10.59-2.36-10.46-6.71.35-11.09-14.37-13.09-13.27-24.12.1-.95-2.71-3.19-4.07-3.12-10.07.53-7.38-6.76-7.38-12,0-3.69-1.8-5.81-4.82-5.68-7.22.32-6.9-4.51-7.63-9.29-.17-1.08-2.9-2.12-4.6-2.55-3.23-.81-6.68,1.11-6.39,3.79,1.42,13.21-7.47,22.79-12.66,32.95a48,48,0,0,1-27.14,23.8c-5.78,2-7.94,11.06-16.38,10.37-.77-.06-2.81,4.76-2.69,7.23.15,3,2.81,3.9,6.08,4.38,8.22,1.22,16.81-3.29,24.92,3.88,5.07,4.47,15.11.24,20.11,7.72,7.44.4,12.42,9.62,21,5.88,13.18,10,29.89,13.53,43.05,23.55,7.34-1.38,9.12,6.75,14.08,8.45,10.54,3.62,16.8,12,24.55,18.82C676.89,658.37,680,658.64,691.18,662.29ZM244.24,738.34l23.15,23.14L281.94,776c4.85,4.85,10,9.43,14.47,14.62a40.87,40.87,0,0,0,18.44,12.4c-1.19,8.39,6.2,11.38,10.46,16.21,4.53,5.14,9.63,9.77,14.48,14.62l22.87,22.87c.69.69,1.3,1.75,2.11,2,.53.12,1.49-.91,2-1.61a4.16,4.16,0,0,0,1-2.47c-.12-1.83,0-4.22-1.06-5.36-6-6.44-12.67-12.31-18.52-18.88-6.2-7-13.71-12.3-17.39-22.19-2.8-7.52-11.79-12.73-18-19-19.41-19.4-38.65-39-58.34-58.08-4.11-4-4.86-8.11-4.28-13,1-8.74,9.92-11.37,14.2-17.63a27.46,27.46,0,0,0,4.18,3.18c5.77,2.95,12.15,4.51,16.4,10.33,3.43,4.69,8.17,8.42,12.33,12.58,4.85,4.85,9.58,9.82,14.59,14.51,4.23,4,3.12,10.42,8.1,14.45,7.58,6.13,14,13.65,21,20.58,6.24,6.24,12,13,18.83,18.57,7.62,6.22,9.44,16,16.23,22.93,12.62,12.91,28.95,22.83,35.62,41C429,876,446.18,893.36,463.75,910.44c1.49,1.44,5.25,1.15,7.76.66,1-.2,2.13-3,2.22-4.7.25-4.72.95-9.39-3.74-13.19a107.26,107.26,0,0,1-14.55-14.51c-4.14-4.94-10.13-7.78-11.73-15.83-1.11-5.63-8.81-9.84-13.24-15-1.72-2-2.24-5-3.78-7.2-3.76-5.35-9.73-10-11.28-15.86-2.39-9.1-7.64-12.34-15.8-13.78-1-.18-2-3-2.23-4.75a13.87,13.87,0,0,0-10.91-11.78c-8.56-1.91-11.55-9.8-17.61-14.26a11.88,11.88,0,0,1,2.34-4c3.2-3.16,3.89-6.62.95-10-3.2-3.7-6.42-7.69-10.45-10.28-5.51-3.55-4.87-9.92-8.08-14.45-2.61-3.68-6.95-5-9.5-9-4-6.21-10.78-9.8-12.85-18.35-1.47-6.09-8.64-10.09-16.66-8.43-1.43.3-3.29-1.31-4.87-2.18a3.13,3.13,0,0,1,.68-2c6-4.95,4.65-7.06-2.64-7.58-3.07-.22-5.27-2.05-4.68-5.79.78-4.94-3.81-6.45-6.31-9.09-3.83-4-10.61-2.87-14.3-8.27-3.25-4.77-8.33-8.26-12.22-12.65-3.66-4.13-8.43-6.83-9-14.1-.4-5-8.3-2.93-12.85-2.79-3,.09-4.27,2.75-4.26,6.18C244.3,677.92,244.24,708.27,244.24,738.34Zm461.58-55.93h3.5c0-.91,0-1.83,0-2.74.08-7.92-.54-8.94-6.44-8.92-1.53,0-3.09,1.3-4.55,2.16-.17.1,0,1.4.44,1.84,2.42,2.73,4.93,5.38,200.22,196-10.77,0-15.7.37-20.54-.09-6.83-.65-2-9.58-6.69-10.81s-9.06-2.35-12-6.48c-8,.88-9.79-3.34-9.3-10.4.17-2.44-2.29-7.3-2.72-7.21-9.25,2-7.45-6.1-10.37-10.17-1.78-2.49-8.66-2.32-9.27-4.48-1.36-4.74-2.41-9.34-6.74-11.87-5.66-3.3-4.8-10-8.32-14.21-3.77-4.47-8.22-8.37-12.37-12.53l-8.9-19.8c2.38-6.74-5.56-9.56-5.82-15.18-.27-5.86.31-11.78-.24-17.6-.23-2.5-2.38-4.82-3.65-7.23-2.61-5-2.61-5,0-10,1.26-2.42,3.42-4.75,3.63-7.25.63-7.48-1.22-15.4,5.92-21.2,1-.77.06-3.75.15-5.7.27-5.94-1-7.35-5.56-8-9.1-1.29-19.61,4.29-27.19-5.6-.64-.83-7.07.75-7.35,2-3.11,13.64-14.13,18.64-24.71,24.74-3.51,2-4.5.89-6.38-1-2.77-2.76-5.47-5.61-8.37-8.23a2.82,2.82,0,0,0-2.77,0c-.48.49-.19,1.86-.09,2.83.31,2.74-.2,5.23,1.86,8.09,6.57,9.15,11.53,19.14,9.94,31.08a17.15,17.15,0,0,0,0,5.85c2.19,10-3.87,17.92-6.95,26.52-3,8.32-12.76,7.15-18.52,12.17-4.51,3.94-11.32,5.47-17.32,7.44-5.1,1.68-4.39,5.39-4.39,9.17s-.62,7.69,4.87,8.72c2.45.46,6.69,2.5,6.6,3.48-.72,7.38,5,11.55,9.35,13.45s11.64,3,15.7-3.45c.47-.76,1.42-1.75,2.15-1.75,12.72-.11,25.45-.3,38.16.12,2.38.07,4.55,3,7,4.09,6.61,2.93,14,4.59,19.85,8.6,6.34,4.37,11.25,10.81,16.79,16.35,3.46,3.46,6.34,8.29,10.52,10.05,6.21,2.63,11.75,5.39,16.27,10.57,1.58,1.81,4.85,2.23,7.42,3.1,7.16,2.44,9,13.1,18.63,12,1.25-.15,2.86,2.34,4.22,3.7,7.63,7.59,15.3,15.15,22.83,22.85,5.2,5.32,11.5,20.58,11.55,27.49,0,7.83,0,15.66,0,23.49,0,3.61,1.49,3.52,7.08.62,4.88-2.53,10.63-3.13,14.28-8.26a46.15,46.15,0,0,1,10.34-10.35c5.06-3.68,2.57-10.89,8.09-14.48,4.8-3.13,7.83-7.54,7.69-14.48-.11-5,4.47-10,5.24-15.2,1-6.71.29-13.67.22-20.52,0-5.56-4.8-8.86-9.3-6.26-5.56,3.22-10.48,8.12-16.4,10C907,871.52,899.86,870.74,705.82,682.41ZM966,664.19q12.4-12.42,24.88-24.88c.36-8.68,7.94-12.45,12.15-18.53,1.85-2.67.84-7.28,4.4-9.88,4-2.92,1.15-9.06,6-12.42,2.12-1.48,1-7.13,2.17-10.59,1.46-4.25,4.64-8,5.54-12.33,1-4.68.23-9.74.23-14.63v-5.87c0-9.78-1.27-19.78.33-29.3,1.88-11.22-9.92-18.71-6.45-30,.64-2.06-1.46-5.12-2.66-7.54-4-8.12-8.36-16.1-12.36-24.24-3.6-7.3-5.27-16.55-10.82-21.65-6.69-6.16-7.64-15.13-14-20.94S962.87,409,956.56,402.85a9.9,9.9,0,0,0-4.63-2.86c-1.67-.3-5,.3-5.15,1.06-2.56,11.14-14.5,15.81-18.19,24.79-4,9.66-11.15,15.2-17.37,22.12-6.53,7.27-12.83,15.46-21,20.32-5.82,3.48-11.87,8.84-20,8.2a112.51,112.51,0,0,0-20.52.11c-3.1.33-8.34,4.72-8.56,4.41-5.08-7.18-13-2.64-18.76-4.92-9.13-3.59-19.66-5.63-24.82-16-3-6-9.29-8.79-14.79-6.94-.82.28-1.7,3.48-1.26,3.87,5.74,5.11,8.44,12.32,12.8,18.11,5.74,7.63,3.19,15.13,2.9,22.24-.37,8.89,2.85,14.45,8.84,20.13,3.11,3,4,8.07,6.48,11.87,3,4.63,9.13,6.69,9,14,0,3.66,5.05,4.76,9.18,2.77a60,60,0,0,0,6.25-4c3.85,8.27,12.67,2.33,17.95,6.23,9.63,7.12,21.14,10.5,31.48,16.18.76.42,2.19-.1,2.72.42,6.31,6.14,12.51,12.39,18.74,18.62l6.22,6.23,14.53,14.53c4.85,4.84,10.62,9.08,14.28,14.69,3.89,6,5.38,13.41,8.65,19.83,2.9,5.7,6.92,10.82,10.2,16.35C963.42,658.11,961,662.88,966,664.19ZM745.23,170.25H712.86c-7.41,9.2-17.81,4.68-27,5.94-5.6.76-12.39-2.95-16.64,2.11-4.83,5.74-11,2.14-16,4.29-1.69.73-3,5.11-2.49,7.36.57,2.47,3.39,4.46,5.37,6.54,2.7,2.84,5.14,6.92,8.44,7.88,2.31.67,5.74-4,8.93-4.46,5.77-.81,12,.79,17.57-.47,7.79-1.76,12.2,6.68,18.14,5.7,8-1.33,11.9,7.07,18.18,6,8.66-1.44,13.26,6.34,20.83,7.24,3,.35,5,5.64,9.66,4.84,5.25-.91,8.89,1.47,12.77,4.95,2.43,2.17,7.21.77,9.92,4.33,3.61,4.77,9.14,1.37,13.6,2.61,1.66.47,3.14,2.24,4.3,3.72,6.08,7.8,15.68,9.47,23.75,13.78,4,2.14,8,4.74,12.3,5.74,6.77,1.57,2.34,8.68,6.55,11.4,2.42,1.56,4.35,5.94,6.29,5.81,7.17-.45,10.13,4.86,14.2,8.69,4.29,4,8.35,8.29,12.51,12.46-2.45,6.81,6.41,9.08,6.11,15.18-.08,1.6,1.44,4.7,2.21,4.7,9.16,0,12.55,8.07,18.42,12.58,9.83-1.78,11.63,11.57,18.64,11.23,9.36-.47,14.27,4.09,19.85,9.62,4.34,4.3,7.67,3.84,12-.94,1.9-2.07,5.07-4.48,5-6.63-.5-11.52,9.66-20.63,6.44-33-1.68-6.43-.37-13.66-.27-20.52s-9-10.48-5.91-18.16c-5.77-10.33-8.65-22.26-16.4-31.42-5.68-6.72-11.48-14.13-18.87-18.39s-14.33-8.81-20.21-15c-2-2.13-3.94-5.59-6.28-5.93-4-.59-7.14-1.31-10.17-4.31-1.7-1.67-5.38-1.11-7.73-2.37s-4.13-4.55-6.63-5.29c-3.58-1.07-7.78,0-11.4-1-2.51-.69-4.36-4.63-6.72-4.84-10.23-.94-21.14,2-29.91-6.12-8.83,0-18-1.43-26.41.36-10.56,2.25-17.27-7.28-27.08-6.39C761,170.81,753.08,170.25,745.23,170.25ZM532.72,311.66c-2.4,10,9.65,16.59,6.3,26.79,5.69,2.8,11.36,5.64,17.07,8.38,1.63.79,4.54,1,4.86,2,1.59,5.38,1.69,11.8,10.21,9.95l12.45,12.46,16.6,16.6,18.68,18.67,16.6,16.61c6.22,6.22,11.64,13.73,18.9,18.32,7.5,4.74,6.34,13.61,12.13,18.77,6.57,5.84,12,13,18.9,18.41,7.8,6.13,10.85,15.23,16.58,22.55,4.19,5.35,9.55,9.78,14.4,14.63,5.53,5.53,11.47,10.72,16.47,16.71,4.08,4.89,6.72,11,10.6,16.06,2.93,3.86,7,6.8,10.21,10.51,3.58,4.18,9,6.64,9.13,14,.07,3.61,6.67,6.41,5.65,12.26-.19,1.11,2.63,2.66,3.91,4.12,5.71,6.51,10.33,5.59,16.45-1,5.6-6-.77-15.95,8-20.4.94-.48.66-3.53.78-5.39a38.34,38.34,0,0,0,0-5.87,5.17,5.17,0,0,0-1.3-2.37C788.92,545,785.73,533.4,780,523.08c-.43-.76.16-2.22-.35-2.75-5.45-5.62-11.43-10.78-16.44-16.75-5.34-6.38-9.35-13.88-14.74-20.21-5.7-6.68-12.33-12.55-18.56-18.77-5.53-5.54-10.46-11.92-16.76-16.39-7.52-5.34-8.59-14.42-14.28-20.68-9.53-10.49-20.8-19.07-27.61-32.5-4.63-9.12-14.15-16.11-22.4-22.94-7.94-6.57-11.9-18.27-24.2-19.35-7.68-7.44-15.27-15-23.12-22.22-1.17-1.08-3.86-.41-5.21-1.41-8.32-6.16-18.23-11.23-16.65-24.36.38-3.17-1.86-5.2-5.41-5-1,.06-2-.06-2.94,0-5.31.45-9.79-.08-9.25-7.21.06-.82-.39-2.32-.89-2.46-7.58-2.06-13.3-6.72-18.44-12.41-.38-.43-3.8.77-3.83,1.32-.35,5.83,1.66,12.78-.85,17.25C535.22,301.35,531.79,305.54,532.72,311.66ZM265.29,470.92c-.7.4-2,.76-2,1.21-.63,8.4-9,13.81-7.62,23.55,1.53,10.56,1.17,21.6.12,32.28-1.08,11.09,5.1,23.42-4.89,33.3-.2.2,1.94,2.54,2.74,4,3,5.53,3.83,6.47.35,9.8-4.3,4.11-3.85,8.48-3.86,13.25,0,5.88,5.13,8.27,8.64,10.91,2.57,1.93,6.82,1.37,9.92,4.37,10.91,10.56,20.83,21.9,34.6,29.75,10.64,6.07,17.43,18.89,28.08,24.94,11.39,6.48,18.35,16.77,28,24.48a10.2,10.2,0,0,1,2.07,2.08c2.61,3.76,6.46,3.87,10.36,3.41,7.21-.86,12.71,1.23,17.91,6.8,5.79,6.21,10.76,13.67,19.4,16.81,9.55,3.47,15,12,21.39,19,4.27,4.7,10.68,3.27,14.6,8a119.91,119.91,0,0,0,14.74,14.1c1,.88,3.84.29,5.54-.37,2.63-1,2.71-2.56.94-4.09-5.8-5-4.56-14.36-12.39-18.56-6.45-3.46-9-12.93-18.49-12.44-.43,0-1.69-3.63-1.4-3.83,6.76-4.56,2.1-7.72-1.46-10.45-2.07-1.59-4.91-2.35-7.52-3s-7.15.06-8-1.42c-1.71-3.05-1.79-7.15-2-10.85-.23-3.5-1.86-5.44-5.17-5.39-4.88.08-7.15-2.12-6.65-6.86.95-9.2-.41-17.71-9.07-22.65-8.26-4.72-7.69-15.14-14.49-20.57,1.57-9-4.14-8.85-10.53-9-6-.13-8.76-4.39-6.84-9,3.29-7.91,3.39-8,.72-10.38-4.87-4.32-8.15-10.61-16.26-10.72-3,0-3.05-5.35-.8-9.8,1-1.89,6.48-2.14,2.23-6.25-4.7-4.54-8.82-9-11.07-16-1.87-5.81-9.44-9.62-13.81-14.88-2.21-2.66-2-7.91-4.49-9.65-5.37-3.74-2.36-11.21-8.05-14.61-5.52-3.3-7.93-10.73-16.31-10.82-2.82,0-7.71-4.84-8-7.81-.83-9-7.86-12.86-13-18.23-3.41-3.59-6.5-6.88-6.24-12.23C267.3,472.34,266,471.61,265.29,470.92ZM253.06,800.14c-1.05,5.91-5.41,11-1.18,16.56a22,22,0,0,1,4,7.12c1.47,5.43-2.66,12.06,2.34,16.6,6.31,5.72,2.62,12.75,3.66,19.12.15.93-.07,2.44.41,2.7,5.77,3.07,5.2,9.71,8,14.43,3.17,5.34,3.9,12.07,6.57,17.79,6.51,14,13.51,27.71,20.34,41.53,2.82,5.69,5,11.93,8.83,16.83,3.53,4.49,2.14,11.55,8.09,14.34,7,3.26,5.18,11.83,10.28,16.39,4.12,3.7,7.37,7.6,9.09,13.9,1.56,5.74,9.22,9.68,13.77,14.8,3.66,4.11,9.72,6.56,9.12,14-.16,2,3.19,5.46,5.55,6.18,10.9,3.31,17,14.53,28.32,16.82,2.13.43,2.49,6.35,6.26,2,1.91-2.22,5.6-4,5.93-6.3.94-6.68,1.61-13.73.44-20.29-1.26-7.09-8.43-12.7-5.82-21.18.17-.54-2.68-2.81-4.24-2.95-6.28-.59-9.77-1.66-3.06-7.53,1.15-1,2.13-4.13,1.47-5-7.62-10.39-9-24.37-19.09-33.24-3.14-2.77-5.08-5.69-4.31-10,.72-4.13-.76-7.19-3.82-10.24-3.23-3.21-6.88-5.82-8.41-11.19-1.43-5-7.62-8.45-10.15-13.39-2.07-4-2-9.3-6.5-11.94-5.54-3.22-5.25-9.75-8.45-14.11a67.1,67.1,0,0,0-12.38-12.48c-6.18-4.93-9.74-11.39-12.3-18.48a43.21,43.21,0,0,0-12.46-18.4c-2.85-2.48-11.2-10.16-12.71-10.75-2.52-1-5.46-1.68-7.34-3.43C266.39,813.75,259.79,806.87,253.06,800.14Zm432.71-70.21c3.18-8.8-.93-18.56-6.33-25.3-11.47-14.33-25.39-26.7-38.31-39.88-8.1-2-15.64-5.17-22-10.73C608,655.47,606,640,595,641.2c-4.44-6.72-14.2-5-18.64-11.77-8.49,3.27-14.66-2.85-20.91-6.2a51.19,51.19,0,0,0-21.22-6c-8-.64-14.92-7.37-24.09-5.66-4.43.83-7,1.74-7,6.76,0,1.6-1.24,3.55-2.48,4.75-4.18,4.06-5.07,8.26-.33,12.13,9.56,7.78,15.78,18.92,28.26,24,12.17,5,16.38,21.59,31.28,23.85,6.93,6.93,14.45,13.38,20.62,20.93s17.3,7.73,22.87,16.37c3.11,4.83,8.7,8,12.14,12.7,4.25,5.81,10.92,7,16.28,10.49,4.81,3.17,8.34,8.24,12.65,12.23,4.91,4.55,18,4.42,23.85,0,4.41-3.32,6.65-10,14.08-8.87.92.14,3.07-2.47,3.25-4C686.08,739.12,685.77,735.16,685.77,729.93ZM844.85,582.34c-7.51-2.69-11.6,5.16-18.05,6-1.71.22-4.72,1.42-4.72,2.18,0,7.71-7.51,12.26-7.38,20.75.11,7.49,5.12,11.85,6.48,18.08,3.94,18.14,13.92,36.85,24.83,45.36,2.74,2.15,7.67,2,9.76,4.4,11.92,13.95,30.31,20.06,41.45,35,3.88,5.21,12.84,5.32,17.75,1s9.24-8.66,16.15-10.79a12.1,12.1,0,0,0,7.94-14c-1-5.49,1.47-11.85-4.92-15.59-4.16-12.06-9.08-24.49-17-33.84C902.06,623,884.4,607.3,867.81,590.71,859.64,589.37,854.36,580.1,844.85,582.34Zm48.2,259c3.92,0,7.87-.27,11.76.07,5.19.46,9.34-.75,12.69-5,3-3.78,7.37-6.7,9.39-10.85,2.6-5.31-4.7-7.65-5.56-12.16s2-10.36-3.26-13.27c-8.32-4.63-7.35-15.65-14.58-20.41-7-4.59-5.34-14-12.25-18.69-7.09-4.8-10.82-12.6-15-20.08a27.11,27.11,0,0,0-12.79-11.11c-9.3-3.67-17-11.23-27.36-11.93-4.09-.27-7.47-.64-10.15-4.1-1.78-2.31-4.16-4.15-6.16-6.3-1.49-1.61-2.73-1.29-4.19,1.08-2,3.14-6.64,4.22-6.27,9.2.55,7.47-2.11,15.75,5.95,21.08-1.85,13,3.61,23.48,10.54,33.9,3.44,5.16,4.73,11.72,7.14,17.58,2.84,6.89,13.15,9.08,11.76,18.65l14.55,14.56c4.16,4.16,8.54,8.12,12.41,12.53,3.44,3.92,7.19,6.09,12.56,5.36C887.13,841,890.11,841.36,893.05,841.36ZM732.5,847.25c-3,0-5.92-.06-8.85,0-9.16.22-16.31,8.1-14.09,17.16,1.73,7,8.28,12.78,5.64,21.08,8.56,5.25,10.1,15.69,16.59,22.44,5.41,5.64,11,11.08,16.56,16.61,6.22,6.22,12.48,12.41,18.65,18.67,5.3,5.37,14.77,4.39,18.44,12.37.69,1.51,2.82,3.32,4.32,3.35,7.73.14,15.47-.18,23.2-.51,1.6-.07,8.22-9.22,8.17-11.21-.17-7.48,2.09-15.69-5.85-21-.57-8.34-7-14.61-7.19-23.67-.1-5.42-10.91-7.44-10.75-15.94,0-2.14-3.46-4.27-5.16-6.54C781.6,866,765.5,860.3,750.43,853.38,744.8,850.79,739.91,844.81,732.5,847.25ZM853.83,458.71c14.06,2.12,27.37-3.55,38.45-15.18.67-.71,1.4-2,2.07-2,10.55.31,13.75-9.56,20.32-14.67,6.83-5.31,9.35-13.76,12-21.32,1.78-5,4.15-5.06,8-5.89,3.56-.79,6-7.09,3.9-8.92-11.32-10-19.87-23-34.65-29.51-5.58-2.46-7,.49-8.31,2.71-5.56,9.35-11.46,18.72-15.22,28.83-2.6,7-6.18,10.25-12.76,13.38s-14,8.78-16.33,15.08c-2.59,7.09-5.61,11.37-12.19,14a30.53,30.53,0,0,0-7.13,4c-3.1,2.35-6.73,5.67-4.66,9.5s5.83,8.1,9.83,9.66C841.39,460,846.77,458.71,853.83,458.71ZM567.61,232.47c14.25,5.42,26.77,12.77,37.14,24.2,13.59,15,28.45,28.79,43.82,44.16.81-4.07,1.77-6.71,1.8-9.37.16-13.65.11-27.3.07-41-.05-14.5-8.15-29.28-21.67-40.3-1.19-1-1.73-3.29-1.78-5-.09-3.53-1.85-5.5-5.08-5.42-5.67.14-13.12-1.24-16.57,1.77-5.16,4.49-12.42,3.57-16.9,9.62C582.7,218.92,574.92,225.16,567.61,232.47Zm62.23,891.47c10.46,0,21.19.19,31.91-.06,8.89-.21,16-14.32,11-21.7-3.62-5.33-11.39-7.8-10.74-16.21.1-1.3-2.38-2.85-3.74-4.22-8.28-8.31-16.15-17.14-25.06-24.72-5.54-4.72-13.87-5.72-18.26-12.57-.89-1.39-3-2.1-4.6-2.92-4-2-8.11-4-12.24-5.88-2.31-1-6.49,1.45-6.49,3.94,0,3.82-1,8.73,1,11.21,3.15,4,5.71,7.52,4.87,12.77-2.41,15,14.31,24.11,12,39.19-.19,1.21,2.22,2.93,3.55,4.28C618.48,1112.62,624,1118.13,629.84,1123.94ZM335.49,323.31c-4.88,0-9.76-.09-14.64,0-3.85.09-11.71,7-11.75,10.87-.07,8.49-2.5,18,7.53,23.17,5.91,3,2.67,10.75,8.12,14.38,4.62,3.07,8.91,7.24,8.61,14,0,.71,3.06,2.26,4.65,2.2,3.68-.13,7.86-.07,10.91-1.77C360,380,371.16,374,383.16,369.75c2.71-1,2.88-2.9.56-4-3.23-1.57-8.93-2.22-9.46-4.3-1-3.79-1.16-7.33-4.62-9.9-5.79-4.29-8.87-9.72-7.79-17.34.44-3.14-2.24-4.08-5.28-5.21C349.67,326.4,343.73,320.86,335.49,323.31ZM418.34,429c-5.16.37-9.06.29-12.76,1.12-1.09.25-2.15,3-2.23,4.7s.88,3.49,1.72,5.07a3.49,3.49,0,0,0,2.39,1.15c4.57.65,9.63-1.63,13.49,3,3.66,4.39,10.7,2.83,14.33,8.2,1.92,2.84,4.23,6,8.85,6.79,4.29.7,8.41,3.32,12.25,5.68,10.09,6.19,22.79,8.28,31,17,5.51,5.86,14.28,5.24,18.9,12,.61.87,5.28-.39,7.56-1.61,1-.55,1.8-4,1.09-5.1-7.4-11.34-11-26.33-27.42-29.26-8-8.08-20.78-7.85-28.36-16.58-7.94,1.34-12.65-8.85-21.05-5.89C431.66,431,425.12,427.36,418.34,429ZM791.73,302.7c-9.56-9.56-19.07-19.18-28.7-28.67-5.58-5.49-13.79-5.1-19.88.74-2.1,2-3.94,4.33-6.22,6.1a10,10,0,0,0-4.13,10,33.34,33.34,0,0,1,0,8.7c-1.24,8.91,2.76,15.6,10.76,17.45,6.54,1.52,9.05,6.52,13.42,9.86,3.7,2.81,7.26,3.25,10,.58C775.21,319.28,783.41,311,791.73,302.7ZM214.81,278.25c0,14.63.22,29.27-.11,43.9-.13,6,4.74,7.93,7.6,11.52a2.25,2.25,0,0,0,2,.64c.83-.4,2-1.3,2-2,.17-23.39.2-46.78.28-70.18,0-6.62-1.36-13.53,5.5-18.4.88-.62-.07-5.83-1.67-7.48-3-3.06-3.65-6.13-4-10.2-.91-10.07,4.65-21.52-5.7-29.78q-.13-8.73-.26-17.46c-7.44-4.13-5-11.64-6.23-17.92a3.35,3.35,0,0,0-2-2c-.48-.16-1.92.78-1.94,1.27-.52,12.51-.72,25-1.41,37.54-.24,4.5,2.55,6.75,4.73,9.86,1.42,2,.31,5.68,1.38,8.14,2.39,5.53-11.41,10.27-.58,15.86.15,6.77.37,13.53.44,20.3s0,13.66,0,20.49ZM511,323.3c-1.84.26-4.28-.14-5.42.89-5.07,4.56-9.36,10.05-14.7,14.22-5,3.91-12.28,4.32-16.15,10.42-3.7,5.85-12.69,3.47-16.36,10.24-1.15,2.13-2.42,2.73-.44,4.28,3.63,2.84,5.76,7.51,11.73,7.2,6.47-.34,12.75-1.17,18.72,4.66,3.08,3,10.78,3,15.48-2.32a156.13,156.13,0,0,1,12.4-12.41c5-4.49,7-8.55,1.3-14.28-5.48-5.53-1.15-13-2.64-19.35C514.57,325.44,512.34,324.47,511,323.3Zm-66.4,217.83c10.72,5.37,19.53-8.24,31.29-6.06.88.16,2.27-2.1,3.23-3.38a19.31,19.31,0,0,0-2-2c-3.34-3.43-6.3-8.05-12.07-6.16-11.21,3.66-18.69-9.72-29.75-6.22-3.46-3.46-6.42-7.77-10.51-10.15-4.48-2.61-12.15-1.29-9.87-10.24-3.68-4.75-8.9-2.57-13.48-2.71-1.35,0-3.39,1.88-4,3.34-.63,1.62-.7,4.73.29,5.51,10.75,8.37,16.51,20.64,24.82,30.88,3.66,4.51,7.68,8.83,14.61,7.25C439.06,540.77,441.1,541.13,444.57,541.13ZM785.81,349.76c6.94,6.94,15,13.06,20.37,21,4.45,6.5,8.7,13.73,10.78,21.78.41,1.62,2.73,2.69,4,4.19,2.11,2.55,4,3.12,6.24.11s6.25-4.5,5.86-9.32-.94-9.93.12-14.56c1.58-6.9-7.38-8.95-6.06-15.15,2.08-9.7-6.44-13-10.9-18.91-9-11.81-14.08,5.18-22.21,3.15C792,341.53,788.57,347,785.81,349.76ZM332.56,462.54c-4.19,9.52,7.28,15.17,5.9,24-.15,1-.43,2.28,0,2.88,2.94,3.72,5.59,7.92,9.27,10.75,5.62,4.32,7.26,10.63,10.46,16.27,2.87,5.06,7.74,8.74,14.53,7,1.77-.44,3.7-.59,5.26-1.43,2-1.06,1.4-2.54-.92-4.1-6.56-4.43-8.64-11.94-12.72-18.12-3.73-5.66-3-11.44-2.08-16.62,1.73-10.19-10-16.47-6.66-27.09.57-1.79-4.47-6.09-7.65-8.07-1.86-1.15-6-1.06-7.63.3C336.14,451.93,330.39,455.26,332.56,462.54Zm306,78.58c-1.65.7-3.87,1-4.79,2.23s-1.63,4.31-.85,5.25c4.92,5.86,9.54,12.4,15.67,16.71,7.58,5.34,6.61,15.6,14.11,20.69,3.95,2.67,8,6.21,10.12,10.32s2,9.08,6.43,11.88c.34,9.93,9,14,14.6,20.09,1.2,1.29,5.95,1.11,7.47-.21s2.72-5.9,1.68-7.46c-2.64-4-9-6.7-9.59-10.55-1.59-11-14.54-14.88-14.81-26.07-8.25-8.25-16.57-16.42-24.72-24.77-4.52-4.63-10.44-8.4-10.52-16.13C643.36,542.43,640.25,541.78,638.57,541.12ZM415.74,341.33l15-1.39c4-9.23,14.88-1.28,20.32-8.14,2-2.48,6.68-2.61,9.71-4.51,1.09-.69,1.46-3.5,1.17-5.18s-1.71-4.4-2.81-4.48c-5.85-.45-11.75-.21-17.63-.21-6.22,9.29-15.77,5.22-24.05,5.79-6.83.47-13.72.12-20.59.09-3.5,0-5,1.81-5.44,5.14s1.09,6.48,3.94,6.42C403.13,334.72,407.49,345.83,415.74,341.33Zm534.94,404c0-5.84.22-11.7-.15-17.51-.1-1.45-1.87-3.41-3.32-4-1.61-.64-4.34-.71-5.55.26-5.79,4.6-9.58,11.94-18.34,12.37-1.47.07-3.52,12.54-2,13.48,9.43,5.82,10.67,17.57,18.3,24.7,2.1,1.95,2.54,2.4,4.32,0,2.78-3.68,7.46-5.87,6.87-11.84C950.23,757,950.68,751.14,950.68,745.3ZM309,458.48c0-5.76.08-11.54,0-17.3-.07-3.71-6.41-10.71-10.55-11.91-7.89-2.28-13.27,1.22-12.84,8.94.26,4.54-1.88,9.27,1.73,13.7,4.54,5.57,6.17,12.84,9.87,19,.43.71-.1,2.46.31,2.66,2.41,1.12,5,2.79,7.46,2.6,2.88-.22,4.39-2.74,4.12-6.12C308.77,466.2,309,462.33,309,458.48ZM597.16,179.19c-6.8-6.92-13.48-13.94-20.5-20.58-1-1-4.67-1-5.53,0-3.62,4.07-9.65,6.4-9.12,13.65.57,7.7.1,15.48.15,23.23,0,2.79,3.12,4.2,5.09,1.72,3.8-4.8,11.28-2.14,14.26-8C584.76,182.79,592.88,183.65,597.16,179.19Zm-93.35,380c2.81-.62,8.08-.17,9.76-2.41,7.11-9.46,20.36-10.45,26.8-20.41l10-19.22c-.09-.94.16-2.41-.33-2.71-1.17-.74-3.41-1.72-3.95-1.22-5,4.61-9.75,9.52-14.57,14.34s-9.3,10.06-14.56,14.33c-4.93,4-10.75,6.88-16,10.49-1.29.88-2,2.68-2.91,4.06Zm-236-256.29c0-7.74.13-15.49-.16-23.22,0-1-2.24-2-3.6-2.62-.3-.14-1.89,1.23-1.91,1.93-.19,6.76-1.55,13.88.12,20.18,2.35,8.88-7.29,12.94-6.35,20.9.67,5.72-.82,11.8.37,17.35,1.49,7-5.82,9.33-6.2,15-.24,3.52,1.45,5.83,4.38,5.92,2.45.08,6.94-1.48,7.12-2.79.8-5.69,1.34-11.79.1-17.31-1.59-7,6.36-9.11,6.18-15C267.64,316.5,267.79,309.72,267.79,302.94Zm444.06-56.16c-2.93,0-6.18-.81-8.7.2a27.86,27.86,0,0,0-9,6.32c-5,5,2.87,5.19,3.4,8.2a9.85,9.85,0,0,1,0,2.92c-.67,4.92,4,6.19,6.3,9.06.73.91,2.66.86,4,1.25,1-8.23,7.27-12.82,12.27-18.37,1-1.16,1.22-3.69.84-5.38-.68-3-2.76-4.78-6.2-4.23A17.77,17.77,0,0,1,711.85,246.78ZM279.57,365.24c0,8.7-.43,17.08.23,25.37.22,2.79,3.32,3.59,5.56.52a6.42,6.42,0,0,1,2-2c12.43-6.27,12.77-7.08,3.93-15.64C288.32,370.59,286.42,366,279.57,365.24ZM403,891.21c.84-6-1.32-8.37-5.76-8.72-3.67-.29-5.21,1.67-5.76,4.62-.87,4.59,1.48,7.6,5.88,7.08C399.59,893.92,401.62,892,403,891.21Zm172.57,197.4c-6.05,0-8.35,2.65-7.48,7.25.55,3,2.09,4.9,5.76,4.61,4.44-.35,7-2.81,5.77-7.28C579,1091.12,576.49,1089.6,575.57,1088.61Zm-31.09-66.21c0,1-.31,2.05.07,2.83a40.88,40.88,0,0,0,2.87,4.52,42.67,42.67,0,0,0,2.91-4.51c1.15-2.37,1.47-5.4,3.16-7.18,2.47-2.62,2.33-4.27-.51-5.91-.71-.42-1.88,0-2.82-.08-3.57-.48-5.09,1.65-5.62,4.63A32.83,32.83,0,0,0,544.48,1022.4ZM562,744.34c-.59-.67-1.16-1.36-1.78-2a39.49,39.49,0,0,0-4-4,22,22,0,0,0-4-1.94c-.63,2.57-2.19,5.35-1.67,7.65.74,3.21,6.07,4.15,9.43,2.21A11.68,11.68,0,0,0,562,744.34ZM250.13,417.62c0-3.54.38-5.56-.11-7.34s-1.85-3-2.83-4.55c-1,1.5-2.54,2.91-2.82,4.54a26.78,26.78,0,0,0,0,8.57c.28,1.63,1.84,3,2.82,4.55ZM484.68,921.77c-.05-.67.15-1.53-.19-2-2.19-2.95-8-2.86-9.67.14a2.2,2.2,0,0,0,.13,2C477.15,924.83,483,924.72,484.68,921.77Zm90-186.84L568,738.34c2.43,1,4.82,2.47,7.33,2.74,1.36.15,2.95-1.76,4.44-2.74ZM380.11,864.19,376.7,859c-1,1.49-2.89,3.08-2.74,4.45.27,2.51,1.76,4.89,2.74,7.33ZM249.66,388.79l3.41,5.16c1-1.49,2.9-3.08,2.75-4.44-.28-2.52-1.76-4.9-2.75-7.33C251.88,384.5,250.68,386.82,249.66,388.79ZM232.47,573.5c-.65-.65-1.45-1.94-1.94-1.84a18.8,18.8,0,0,0-3.95,1.84c.66.66,1.45,2,1.94,1.85A18.36,18.36,0,0,0,232.47,573.5Zm204,351.13-3.79,2.09c.65.66,1.45,1.95,1.93,1.84a17.44,17.44,0,0,0,3.95-1.84Zm-47.09-53-3.8,2.09c.66.66,1.45,2,1.94,1.84a18.31,18.31,0,0,0,3.95-1.84Z"/><path d="M479.72,688.3q2.16,9.63,11.78,11.77c.64,1.63,1.17,3.32,2,4.87,1.21,2.36,2.61,4.61,3.92,6.91-2.87,0-7.08,1.24-8.42-.2C478,699.94,464,691.09,456.18,676.53c4.57.06,9-.72,12.82,3.64C471.86,683.43,474,688.55,479.72,688.3Z"/><path d="M452.68,676.53c-2.12-2.29-4.63-4.94-7.05-7.67a2.56,2.56,0,0,1-.44-1.84c1.46-.86,3-2.15,4.55-2.16,5.9,0,6.52,1,6.44,8.92,0,.91.35,2.19-.1,2.65S454.34,676.53,452.68,676.53Z"/><path d="M497.38,711.85q6.12-.23,5.89,5.89Q497.17,718,497.38,711.85Z"/><path d="M327.51,568.46l2.1-3.79c.65.66,1.94,1.45,1.84,1.94a18.8,18.8,0,0,1-1.84,3.95Z"/><path d="M344.32,738c-1.16.91-2.92,2.83-3.39,2.56-3.54-2.08-1.12-3.75.81-5.12a2.58,2.58,0,0,1,2.49,0C344.67,735.93,344.32,737.15,344.32,738Z"/></svg>