<svg id="Layer_1" data-name="Layer 1" xmlns="http://www.w3.org/2000/svg" viewBox="0 0 1200 1200"><title>BB_Artboard 8</title><path d="M121.46,106.85c-3.73,3.05-6.25,5.72-9.46,7.61-10.53,6.21-13.88,16.25-20.48,24.56-1.09,1.37-1.61,1.8.43,2.87,2.56,1.34,4.84,3.92,7.46,4.13,6.34.51,5,4,5.11,7,.1,2.71-.16,5.26-4.86,5.05-3.93-.18-7.71-.45-10.71,2.73a66.67,66.67,0,0,1-10.16,8.35c-2.71,1.93-3.15,4.1-3.23,6.84-.17,6-9,22.63-13.75,26.77-1.06.91-2.47,2.45-3.52,2.35-5.86-.59-10.49,1-15,4-1.74,1.13-7.9-2.51-9.66-4.55-1.11-1.29-.58-1.49.47-2.93,3-4.15,7.41-8.71,7.31-13-.14-5.63,7.79-8.37,5.44-14.14-1.23-3,3-4.21,4.23-6.38.75-1.35.1-3.88-1.09-5.15a25.1,25.1,0,0,0-7.11-4.77,79.12,79.12,0,0,0-10-4c-10.54-3.49-16.54-9.23-15.05-19.09.39-2.58-.1-5.24.1-7.85s-.33-6.39,1.32-7.22c6.3-3.2.67-9.33,5-12.18,6.14-4,.17-12,8-15-.7-10,8.23-16.88,12.28-25.34.54-1.12,1.59-2.08,2.14-3.21C50.92,55.56,57.87,50.66,70,51.78c5.64.52,5.64.06,12.59-7.53,1-1,2.49-1.74,3.32-2.82,1.34-1.74,2.62-1.91,3.41,0,2.38,5.81,7.39,11,5.69,17.79-.26,1.05.75,2.32,1.17,3.49,1.13-.31,2.59-.34,3.35-1,8.59-6.89,17.07-13.87,25.58-20.82a60.79,60.79,0,0,1,5.14-4.14c4.13-2.72,16.56,1.35,17.56,5.78.27,1.19.34,3.06-.51,3.67-5.38,3.8-4.91,10.81-11.78,13.82-3.49,1.52-1.66,4.66-2.1,7.1a3.36,3.36,0,0,0,3.35,4.18c2,.12,5.91-1,6-1.77.39-6.29,5.08-8.5,11.65-10,3.47-.79,5.33-4.9,10.09-3.79,3.68-4.52,9.41-3.45,14.81-4.14,6.43-.83,8.52,6.08,14.73,4.46,4.87,6.15,14.53,7.1,20.21,12.46,2.31,2.18,14.15,6,20.55,6.8,4.59.61,6.76,5.13,12.48,4.21,3.47-.56,8-1.56,11.09,1.56,3.73,3.77,8.89,1.47,13.33,2.23a20.5,20.5,0,0,1,6.19,2c8.65,4.66,18,6.3,28.35,5.94,13.62-.46,27.27-.11,40.91-.11,5.46,0,11.19-.92,15.05,3.77.51.62,4,.67,4.47.08,3.9-4.49,9.44-3.89,15-3.88,41.72.06,83.44,0,125.16.08,4.52,0,9.74-1.48,13.07,2.82a5,5,0,0,0,3.21-.76c4.25-4.46,13.16.53,16.51-5.52,5.53-.17,11.09-.1,16.57-.58,7.52-.66,16.05,2.6,22.24-3.58l5.1,3.59c3.51-4.74,9.35-3.87,14.73-4.07,3.31-6.14,12-1.68,16.42-5.58,4.65-4.12,10.75-.83,15.73-2.24,4.18-1.19,7.14-4.87,12.52-3.83,5.12,1,6.83-4.94,12.47-4,4.64.74,9.6.15,14.41.15s9.84.7,14.37-.22c3.39-.7,5.34-3.87,10.11-3.85q93.87.31,187.74,0c4.76,0,6.78,2.63,10.13,3.92s7.88-1.23,11.17,1.73a8.26,8.26,0,0,0,3.62,2.28c7.42,1.3,16-2.91,22.41,3.3,7.91.24,15.82.29,23.71.75,10.68.63,22-2.38,31.83,3.76,1.52,1,4.77.46,7.08.07,6.68-1.11,11.83,1.53,17.33,3.92,5.3,2.3,10.4,5.79,17.21,4,2.56,4.72,10.21,2.83,13.44,6.88.6.76,2.76.8,4.24,1,5.24.57,11.39-1.76,15.19,3.28,3.52-1.53,7-4.27,10.37.4.44.61,3,.13,4.55.29,9.18,1,18.54-1.74,27.7,2.38,8.65,3.9,18.85.18,28,1.76,5.76,1,10.45,4.86,17.35,3.87,5.45-.79,11.74-1.35,16.67.15,5.66,1.73,10.82,4.07,17.14,4.29,2.47.08,2.71,8.35.15,10.46-4.88,4-9.12,8.81-16.7,9.76-1.81,3.75-7.55,1.46-9.88,4.19-5.56,6.49-16.41,7.29-21.91,13.86-2.87,3.42-6.77,5.09-12.25,4.49-1.78-.19-4.36,1.26-5.76,2.55-3.88,3.58-8,5.87-14.31,5.26-5.54-.53-11.21-.07-16.83-.13-3.15,0-8.21.74-9.13-.48-4.16-5.57-11.61-2.4-17-5.09-4.87-2.44-10.72-4.41-15.73-6.66-4.5-2-9.56-3.57-14-5.84-4.82-2.44-9.92-5.58-16.19-5.88-3.65-6.49-14.43-.56-18.13-7-4.73-.18-9.45-.5-14.17-.52-17.65-.06-35.31.21-52.95-.14-6.73-.14-14.53,2.49-19.83-3.51-7.17-.1-14.34-.11-21.5-.35-3-.1-6.79.13-9-1.18-8.4-5.08-15.82-4.13-23.21,1.18a3.16,3.16,0,0,1-2.33,0c-2.54-1.08-4.85-2.83-7.51-3.28-1.4-.23-3.35,1.71-5,2.67-2.52-3.06-6.17-3.5-10.37-3.33-11.08.43-22.17.63-33.25.92-7.26,7.65-20.76-1.69-28,6.83-.79.93-4.59.1-7,.17-6.13.17-12.91-1.51-17.26,3.92-6,.69-12.53-1.94-18,2.81-1.62,1.41-5.88.8-8.93,1.12-5.24.55-10.75-1.36-15.54,3-1.9,1.71-7.46.92-11.35.92-32.89.06-65.79,0-98.68.07-5.33,0-10.95-1.24-15.33,3.26-1.49,1.53-3.13-4.61-6.47-2.06a12,12,0,0,1-8.33,2.77c-8.81-.22-17.78-.83-26.42.2-5.74.67-10.42,4.85-17.35,3.82a62.44,62.44,0,0,0-16.78,0c-5.06.66-8.69,4.8-14.92,3.93-5.45-.76-11.2-.16-16.81-.16s-11.47.82-16.79-.2c-7.18-1.38-10.35,5.47-17.37,4.31-5.39-.88-11.18-.17-16.8-.17-11.15,7.66-24.33,3.32-36.53,3.73-20.82.71-41.71.44-62.56.07-7.5-.13-16.07,2.73-22.19-3.58l-5.11,3.69c-6.79-7-16.28-2.79-24.49-3.92-6.53-.9-9.68,6.24-17.38,4.25-4.61-1.19-11-1.92-15.27,2.84-.93,1-4.39.56-6.69.78-6,.58-13-2.07-17.47,3.51l-21.45.42c-2.41,0-5-.51-7.17.12-3.45,1-5.41,3.92-10.06,4.17-3.07.17-5.34,4.6-10.05,3.63-2.39,3.78-5.36,7.4-7,11.39-1.15,2.86.85,6.44-3.21,8.78-3.32,1.92-1.23,5.87-4.92,8.29-3.13,2.05-2.23,4.4.25,6.49,2.8,2.34,5.5,4.8,8.55,6.91,2.87,2,4.62,6.18,9.28,5.16,7.06-1.56,10.53,4.7,17.33,4.24a246.85,246.85,0,0,1,31.25,0c7.39.43,11.81-6.08,19.77-4.36,2.95.63,5.16-4.58,10-3.72,3.18.57,6.16,0,8.47-2.31a7.87,7.87,0,0,1,4-1.52c6.14-1,13.31,2.24,18.42-1.48s10.42-2.17,15.69-2.42c6.39-.31,12.83-.06,19.25-.08q15.62,0,31.23-.11c7.69-7.35,19.08-.73,26.71-4.17,13-5.84,26.13-2.9,39.17-3.45,13.6-.58,27.42-1.14,40.85.25,8.1.83,15.76,4.27,24.55,3.67,8-.55,16.37-1.26,24,.2s11-5.21,17.33-4.16c6.82,1.14,11.83-1.76,17.3-4s10.4-5.42,17.27-4.06c3,.6,6.39.1,9.6.1,4,0,8.09.38,12-.09,5.1-.6,8.73,1.21,12.27,3.65,2.75-3.24,4.6-2.44,8.78-.56,4.33,2,10.82.51,16.3,1,7.52.66,15.57-2.2,22.52,3.33,2.1,1.66,7.64.52,11.6.53,30.49,0,61-.33,91.46.22,9,.16,19.12-3.66,27.11,3.52,1.09,1,4.66-.08,7,.25,9,1.28,19.28-3.54,26.9,3.88,8.31-.69,17.5,2.27,24.48-3.93,12,0,24.15-.66,36.08.24,7.65.58,11.63-5.94,19.77-4.47,7.65,1.39,16,.3,24,.3,7.22,0,14.81,1.15,21.57-.3,8.16-1.74,15.81-4.31,24.59-3.74,8,.51,16,.11,24.06.11h77c8.82,0,17.68.35,26.47-.11,7.26-.39,11.84,7,19.67,4,2.89,2.22,5.48,4.8,8.74,6.57,3.83,2.07,2.64,6,5.19,8.06,1.93,1.59,5.31,2,8,2.91-1.42,5.64,4,5.39,8.07,7,2,.77,1.79,4.73,3.73,6.32s6.65,1.38,7.79,3c3.51,5.1,10.38,5.37,15.46,8,4.46,2.3,9,4.22,13.32,7,8.51,5.52,10.18,12.28,9.85,20.49-.16,3.84-4.72,5.31-4.85,8.2-.21,4.54-2.78,5.38-7.48,5.22-.73,0-1.67,1.89-2.35,3-1,1.62-1.61,3.43-2.79,5-3.49,4.52-12.68,3.29-14.71,8.43-2.32,5.89-7.35,9.55-12.19,13.59-4.49,3.74-9.12,7.38-13.59,11.14-3.46,2.91-6.69,2.75-9.94-.16-.54-.49-1.1-1.31-1.7-1.34-4.75-.23-10.13.78-14.08-.74-4.15-1.59-7.4-4.25-12.63-3.71-4,.41-9.61,1.44-11.69-.2-4.67-3.67-9.93-2.91-15-4.09-3.25-.75-5.71-3.45-10.19-3.67-9.86-.48-20.65,3-29.31-3.76-11.23,0-22.47.22-33.69-.08-6-.17-12.58,2-17.82-3.08-1.42-1.37-6-.5-9.08-.78-12.2-1.1-25.25,3-36.51-3.92-5.62,0-12.21,1.5-16.59-.4-5-2.18-9.36-3.94-15.12-3.61a165.94,165.94,0,0,1-16.84,0c-5.3-.23-8.46-5.33-14.91-4.05-4.55.9-9.58.17-14.39.17H800c-1.59,0-4.18.4-4.6-.19-3.86-5.44-7-1.13-10.74,0-2.82.86-6.35.17-9.56.17-36.1,0-72.2.05-108.31-.05-5.3,0-10.92,1.34-15.41-3.13-1.37-1.36-6-.41-9.06-.78-6.05-.74-13,2.12-18.05-2.26-4.25-3.7-11.2.78-15-4-.92-1.15-4.1-1.21-6.29-1.56-9.72-1.55-20.81,3.75-29.29-3.95-10.43,0-21,.83-31.24-.33-5.66-.64-10.52-4.54-17.34-3.76-6.29.73-12.81.16-19.23.16s-12.91.51-19.24-.11c-11.39-1.12-23.63,3.53-34.31-3.64-1.91-1.29-6.23-.18-9.44-.18-16.85,0-33.7.18-50.54-.1-6.45-.1-11.69,1.37-17.46,3.72-5.09,2.07-12.82-1.78-17.22,3.93-8.36-2.19-13.7,5.61-21.94,4.33-4.8-.75-6.68,5-12.48,4.05-4.28-.69-8.8-.75-13.24,2.43-2.83,2-9.57,0-13.45,1.54-5.67,2.31-10.85,4.16-17.42,3.84-6-.3-10.21,6.26-17.25,3.78-4.53,2.15-9.09,4.26-13.58,6.46-3.84,1.88-8.16,2.78-12,5-3.19,1.86-8.56-.18-13,3-2.83,2-9.24,1.9-13.56,1.05-7.17-1.4-10.35,5.47-17.36,4.32-5.4-.88-11.19-.17-16.81-.17-6.42,0-12.87.34-19.25-.1-6.75-.46-14.47,2.39-19.92-3.36-6.38.36-11.73-1.7-17.07-4.33-4.43-2.17-10.18-2.88-13.91-5.57-5.85-4.22-12.06-1.49-18-2.14-2.41,2.82-7.37,2.71-9.58,4.46-3.64,2.88-9.37,2-11.87,5.32-4.41,5.83-13.13,6.3-18.81,10.83-4.23,3.37-3.89,8.23-8.19,11.16-3.75,2.54-1.64,6.14-1.71,9.2-.26,12.44.62,24.94-.41,37.33-.52,6.23,6.68,9.86,5.34,16.12-1.09,5.09-.17,10.45-.25,15.7,0,2.38,1.46,3.7,4.13,3.64,4.65-.12,10.22.58,13.69-1.24,3.65-1.92,6.8-2.89,10.79-2.62,5,.34,6.85-5.65,12.42-4,2.35-4,7.92-3.43,11.68-5.49,4.32-2.37,8.83-5,13.73-6,4.43-.94,9.58.31,12.57-3.78,8.29,1.93,13.72-5.16,21.9-4.48,5.19.44,8.42-5.21,14.89-3.95,4.51.88,6.62-5.36,12.27-4.24.81.17,2.06-1.89,3.38-2.59,5.45-2.88,12,.92,18.08-2.5,4.63-2.58,9.95-7,15.93-5.94,6.75,1.19,8.73-6.28,14.91-4.18,6.53,2.22,8.43-6.25,14.8-4.1,3.38-5,9.85-2.79,14.66-4.34s8.9-4.55,13.45-6.72c1.22-.58,3-.51,4.49-.58,5.36-.27,10.62.78,15.3-3.43,2.64-2.37,8.8.73,12.93-2.86s10.76-1.86,15.85-1.22c2.84.35,7,4.47,7,6.92.06,6.09,3.49,13-4,18.25-1.22.85-.14,3.75-.41,5.67a3.38,3.38,0,0,0,3.56,4.08c9.62.23,19.25.1,28.88.1,18-7.39,37.16-3.08,55.78-3.78,18.42-.7,36.92.21,55.34-.36,6.13-.19,9.89,3.46,14.9,3.94,7.91.76,16,0,24,.27,5.07.19,6.74-5.19,12.53-4.33,1.81.27,6.51-3.47,6.36-5.17-.4-4.57,5.64-6.18,5.6-10,0-3.65,2.59-3.95,6-4.22,2.5-.19,2.95-2,3.87-3.92,5.37-11.45,14.18-20.56,28.55-25.39,1.16-.4,3-1.52,3.29-1.26,2.33,1.71,6,3.62,6.18,5.63.68,8.48.37,17,.19,25.54,0,1.08-1.1,2.31-2.09,3.17-3.3,2.87-7.11,5.38-10.06,8.45-2.26,2.34-3.29,5.45-5.26,8-5.19,6.75-16.39,7.29-21.89,13.87-.69.83-2.62,1.12-4,1.34-4.61.72-14.66,6.57-19,9.44-4,2.7-4,6.71-6.74,9.6-3.26,3.44-8.77,5.64-8.42,10.93-4.82,1.95-3,7.15-6.84,9.46-5.19,3.14.66,9-5,12.18-3.89,2.22-7,5.36-10.27,8.26-2.55,2.28-1,6.16-5.07,8.17s-5.52,5.63-7.19,9.31c-1.26,2.79-6.18,4.37-8,7.14-1.68,2.61-.15,6.82-2.18,9-5.08,5.49-12.84,9.33-15.08,16.59-7.69,3.87-7.48,12.63-15.25,16.53-1,.51-1.09,2.19-1.68,3.3-3.32,6.33-6.94,12.47-13.67,17s-7.46,12.52-15.07,16.42a9.87,9.87,0,0,0,1.73,1.36,7.42,7.42,0,0,0,2.15.48c3.86.57,5.34-2.18,7.77-3.67s3.47-4.79,7.49-4.16c6.81,1.08,8.43-2,10.94-6.64,6.26-11.64,18.45-20.76,33.38-27.75,1.52-.72,2.54-1.08,3.37.68a7.64,7.64,0,0,1,.37,3.78c0,.52-.77,1.07-1.3,1.5q-6.78,5.6-13.6,11.14c-5.11,4.17-10.16,8.39-15.34,12.49-4.45,3.53-4,9.36-10,12.49-5.29,2.75-9.18,7.26-13.8,10.9-2.24,1.77-4.69,4.68-7.1,4.71-5.94.08-11.18.76-14.32,5.09-2.77,3.8-8.33,2.57-11.93,5.33-4,3.07-5.88,2.3-9.71-1.06-5.07-4.44-5.61-13.33-1-17.35,5.42-4.73,10.9-9.42,16.35-14.13-1.33-6.83,10.9-7.57,9.78-14.46-.14-.85,1.75-2,2.81-2.91q8.11-7.1,16.3-14.15c-1.3-6.82,10.83-7.51,9.87-14.46-.17-1.27,2.64-3.12,4.49-4.24,8.37-5.07,10.2-14.32,18.68-19.27-1.26-7.38,11.6-8.78,10.29-16.18,9.22-5.41,11.76-14.32,16.76-21.88,2.94-4.45,5.28-9.08,10.42-12.16,2.52-1.5,1.32-3.52,1.73-5.34s.38-4.46,1.76-5.18c7.68-4,7.94-12.25,15-16.77,5-3.19,3.18-7.41-3-7.4-7.91,0-13.55-5.77-22.14-4.35-6.93,1.15-14.39,0-21.6.31-6.43.28-11.64-1.6-17.47-3.6-5.45-1.88-12.64-.63-19-.34-6,.28-13-2.14-17.5,3.5-.28.36-1.43.25-2.17.37-8.34,1.34-17-2.34-25.38,2.28-6.86,3.81-15.43.93-23.18,1.66-5.26.49-8.45,5.24-14.9,4.11-5.37-.93-11.18-.14-16.8-.2-6.6-.07-11.7-4.18-11.77-9.54-.08-5.9-.25-11.81.13-17.69.1-1.65,1.57-3.56,3.11-4.75,1.73-1.31,2.09-2.63-.2-2.74-9.52-.47-19.08-.68-28.6-.49-1.83,0-3.47,3.12-5.41,3.3-6.82.66-11.65,6.74-19.52,4.47-3.25-.94-5.62.94-8.36,2.47-4.22,2.35-9.56,5.29-14,4.92-6.5-.54-9.23,4.7-14.91,4.39-2.27-.13-5.88-.31-6.68.7-5.66,7.12-13.92,7.75-23,7.23-1.1-.06-2.22,2.07-3.55,2.3-5.93,1-9.91,6.51-16.49,5.33-6.26-1.12-8.38,4.78-14.92,4.48-7.16-.34-13.84,5.37-22,3.5-6.67,4-14.53,6.14-21.78,9.22-2.77,1.18-4.87,3.11-8.34,2.58s-6.39.32-8.18,2.8c-3,4.22-9.48,4.05-13.26,7-4,3.11-7.62,6.29-13.43,6.87-3.15,5.53-10.75.9-14.65,4.23-2.42,2.06-5.15,3.73-8.2,2.47-2.72-1.12-5.81-3.25-6.65-5.47-1.55-4.08.71-9.19-5.36-12,0-3.27-.19-6.54,0-9.8a4.53,4.53,0,0,1,1.62-3.32c5.32-3.63,3.91-8.8,2.71-12.67-1.45-4.7-5.49-8.66-4.59-14.2.84-5.15.25-10.47.16-15.71-.07-3.77-.55-7-3.42-10.72-3.77-4.9-1.63-9.29,2.75-19.68.74-1.74,0-3.9.79-5.64,1.23-2.84,4.29-5.45,4.46-8.24.29-5.1,5.09-3.64,8.11-4.9,1.36-.57,2.11-2.19,3.48-2.65,4.9-1.66.55-10.25,9.7-8.54,3.47-2.66,6.91-5.33,10.4-8,2.87-2.17,14.39-6.39,20.12-7.8,7.25-1.79,13.8-4.95,22.13-4.14,5.76.55,15.13-.07,16.9,1.6,4.16,3.91,10.06,5.66,14.83,8.59,5.3,3.25,13.12-.69,16.95,5.15.6.93,4.39.61,6.71.61,13.64.05,27.36-.69,40.88.34,6.58.5,8.8-5.22,14.92-4.37,4.68.64,10.47,1.43,14.17-.23,3.93-1.76,8.08-3.18,12-4.92,7.87-3.47,15.52-7.34,23.65-10.33,6.12-2.25,12.11-5.38,19.62-4.16,4.71.77,9.6.47,12.56-3.57l5.1,3.65c5-6.24,12.93-3.08,19.55-4.13,3.6-6.58,13.39-1.42,18.48-6.73,2.86-3,10.06.1,14.79-4.09,2.94-2.6,10.68.37,14.57-4.34.78-.95,4.5-.34,6.87-.34,24.88,0,49.75.19,74.62-.14,7.24-.1,11.55,6.07,19.76,4.35,6.77-1.42,14.35-.29,21.57-.29H533c7.22,0,14.48.35,21.66-.1,6.56-.42,10.2,5.49,17.32,4.23,5.31-.93,11.1,0,16.67,0,5.22,6.16,13.18,2.54,19.77,3.79,4.29.81,8.22,2.88,12.5,3.73,3.74.75,7.84.27,11.61,1,2.05.37,3.6,2.6,5.65,3,8.29,1.55,17-2.06,25.39,2.27s18.6,1.19,28,1.67c8.79.45,17.64.09,26.46.09s17.66-.16,26.48.07c5,.13,6.69-5.25,12.5-4.17,4.57.85,9.57.19,14.37.2,6.81,7,16.25,3.1,24.52,3.79,4.48.37,9.74,1.4,12.92-2.91a2.06,2.06,0,0,1,1.62-.37c10.58,7.26,23,1.68,34.41,3.38a24,24,0,0,0,2.4,0l21.29.73c4.67,5.53,13.06.95,17.32,3.54,7.32,4.44,14.82,3,22.38,3.66s16.19-2.92,22.09,3.86h19.25c6.42,0,12.85.21,19.25-.06,5.7-.23,10.56.27,15.11,3.78,1.69,1.31,6.23-.11,9.37.27,11.35,1.41,23.82-3.68,34.16,3.84.45.32,1.57,0,2.37,0,9.1.67,19-2.39,26.88,3.93,7.5.9,16-2.51,22.28,3.55,8,.13,15.93,0,23.86.48,4.57.27,7.28-1.45,10.18-3.83,3.86-3.17,8-6.07,8.45-10.93,5.88-.61,8.11-3.8,10.17-8,1.74-3.55,6.92-4.38,11.28-5.84,5-1.67,8.13-7.94,6.15-11.38-1.57-2.75-4.3-6.36-7.34-7-11-2.36-19.15-7.71-26.5-14.3-13.33-3.82-20.31-13.82-30.36-20.83-2.32-1.62-5.27-4.51-7.29-4.18-6.37,1-9.78-3.41-14.92-4.21-8.94-1.4-19.26,3.44-26.89-3.94h-31.29c-9.63,0-19.3-.5-28.87.13-10.63.7-22-3.19-31.9,3.61-1.88,1.3-6.23.19-9.44.19-15.24,0-30.49-.14-45.73.08-5.25.07-11-1.65-15.49,2.95-1.35,1.38-5.91.84-9,.87-8.82.09-17.65.05-26.47,0-4.72,0-9.2-.36-12.93,3.29-1.56,1.53-3.14-4.59-6.47-2.06a12,12,0,0,1-8.32,2.78c-9.62-.22-19.27-.4-28.87,0-6.55.3-10.25-5.27-17.32-4.3-5,.69-10.88,1.83-15.52-2.58-1.49-1.41-5.86-1-8.91-1.06-12.84-.1-25.68.11-38.51-.11-5.26-.09-11.41,1.89-15.21-3.17h-35.4c-4.24,6.43-7.09-.89-10.81-.8-12,.29-24.12.69-36.08-.08-9.81-.63-20.86,4.07-29.31-3.75h-33.7c-5.87,6.89-14.73,2.59-22.05,4-5,1-8.7,4.85-14.91,4-5.47-.75-11.2-.16-16.82-.16s-11.24.19-16.84-.06c-5.28-.23-11.38,1.82-15.25-3.18a3.06,3.06,0,0,0-2-.66c-18.45,0-36.92-.38-55.34.25-3.9.13-7.1,4.51-12.48,3.73-4.78-.68-8.51,1.11-12.84,3.23-4.15,2-10.86.59-16.44.61-7.22,0-14.44,0-21.66,0-5.95,6.59-14.57,3.39-22.09,3.84-7.17.44-14.42.12-21.63.13-7.62,7.53-17.93,3.2-26.93,3.65-8.56.43-16.4,2.16-24.59,3.73-7.29,1.4-13.57,6.71-22,4.46-1.25-.33-3,.28-4.39.69-8.18,2.39-26.42,3.9-40.14,3.11a6.75,6.75,0,0,1-4-1.45c-5.3-5.55-13.24-.92-19.83-3.8-9.28-4.05-16.2-9.81-23.19-15.73-1.28-1.08-1.44-3.79-.85-5.45,1-2.87,3.59-5.39,4.51-8.27s-1-6.42,2.94-8.88.71-6.3,2.21-9c1.23-2.23,4-4,6.38-5.68a6.52,6.52,0,0,0,3.1-6.86c-.14-1.26-.48-3.17.35-3.74,8.9-6.1,14.72-15,26.7-18.48,3.42-1,6.27-3.2,10.49-3.07,7.22.22,14.45.17,21.66,0s14.16-.53,21.24-.81c4.76-5.38,11.7-2.39,17.69-3.09,6.12-5.95,14.51-3.44,22.08-3.89,3.87-.23,7.16-.33,10.88-2.49,4.91-2.85,11.59-2.42,17.48.28a18.8,18.8,0,0,0,8.56,2.2c10.43-.08,20.87-.22,31.29.05,5.24.13,11.3-1.91,15.36,3,.6.73,2.83.77,4.31.78,10.43.06,20.92.59,31.27-.17,6.6-.49,12.16-4.83,19.72-3.89,6.27.78,12.81.08,19.22.18,5.56.09,8.39-5.37,14.91-4.16,5.34,1,11.18.21,16.8.21,8.5-7.57,19.54-2.59,29.3-3.91,8.21-1.12,17.68,3,24.47-4,8.83,0,17.7.45,26.46-.17,5.06-.36,8.66-4.91,14.91-3.91,4.64.75,10.69,1.63,14.22-.11,15-7.37,31-2.93,46.34-3.44,25.63-.85,51.34-.13,77-.32,6,0,12.37,1.72,17.84-3.11,1.9-1.69,7.53-.66,11.46-.72,5.61-.08,12,1.32,16.65-.38,5-1.81,9.26-4.38,15.05-3.57,4.39-5.32,11.33-4.62,17.21-3.7,6.52,1,9.55-4,14.91-4.14,5.57-.19,11.16-.17,16.74-.24,4.35-5.71,11.34-3.4,17.37-3.66,6.4-.27,12.83-.06,19.25-.06,9.62,6.4,21.07,2.95,31.7,4,14.57,1.4,29.9-3.71,43.88,3.72,2.25,1.2,6.28.17,9.49.17,15.24,0,30.6.88,45.69-.34,8.63-.7,14.05,5,22.13,4.39a110.53,110.53,0,0,1,21.6.14c3.27.39,5.32,4.78,10.09,3.68,9,5.61,19.42,9,29.73,12.56,2.05.71,4.06,3.23,5.56,3,6.23-1.11,10.16,4.25,14.87,3.82,8.37-.76,13.62,7.12,22.1,4.29,5.12,6.61,9.57,2.75,15.47.26,5.2-2.2,11.78-3.71,15.59-6.72,4.72-3.72,10.7-4.87,15.46-8,1.11-.72,2.75-.87,4.11-1.36,5-1.79,5-1.92,1.9-4.25-1.19-.88-2.35-2.69-3.41-2.64-8,.4-13.81-5.16-21.66-4.93-4.81.14-9.65.25-14.43,0-6-.35-12.74,2-17.74-3.33-.77-.82-4.19,5.43-8.35.81-2.76-3.06-7.47-1-11.27-1.28-4-.32-8,.15-12-.13-5.26-.36-10.37.84-15.71-2.49-3.69-2.28-11.62.11-15.51-2.1-4.35-2.48-8.16-3.12-12.93-3.3-3.81-.15-5.3-4.92-10-3.85-4-5.25-12.22-2.15-16.49-5.21-5.86-4.19-12.46-3.36-17.94-2.32-8.83,1.67-13.83-5.53-22.2-4.46-7,.89-14.36.09-21.55,0-5.12-6.37-13.1-3.71-19.74-3.53-5.48.14-7.17-4.84-12.47-4.31-3.82.38-9.31.93-11.38-.76-4.12-3.37-8.42-3-13.08-3.05-15.25,0-30.5.28-45.73-.13-7.51-.2-15.72,2.41-22.47-3.33-1.57-1.34-6.08-.46-9.24-.47-23.27,0-46.56.48-69.79-.27-8.29-.27-13.34,6.25-22.17,4.47-6.8-1.38-14.36-.28-21.58-.28-8,0-16.21-.81-24,.27-5.72.8-10.53,5.2-17.23,3.83-4.36,6.71-15.66,1.26-20.17,7.7-3.74-.57-5.35,2.18-8,3.25-2.4,1-4.65-5.48-8.44-.76C592.67,96.45,589,94.91,586,95c-5.6.23-11.23.06-16.84.06-3.39,7-14.1,1.09-18.2,6.9a2.83,2.83,0,0,1-1.89.93c-6.9.22-14.28-1.26-19.66,4H510.19q-51.75,0-103.5-.09c-1.18,0-2.36-1.28-3.54-2,1.29-.62,2.53-1.7,3.87-1.79,4-.23,8.06.22,12-.19a3.51,3.51,0,0,0,3.3-4.29c-.31-2.25-1.58-3.47-4.42-3.47-4,0-8.08.34-12-.08-4.69-.51-6.94,2.92-10.18,3.65-4.23,1-7.95.91-7,5.43.69,3.41,4.52,2.64,7.41,3.08a2.72,2.72,0,0,1,1.64,1.37c.16.31-.45,1.28-.78,1.3-6.25.39-12.51.76-18.78,1-3.18.1-3.61-1.31-.63-4.53,1.26-1.36,1.84-2.48-.44-2.74a101.68,101.68,0,0,0-14.19-.44c-1.1,0-3.09,1.58-3,2.35.3,4.29-2,5.56-7,5.47-12-.23-24.14-.74-36.07.18-7,.54-10.75-4.74-17.3-4.29-6.37.44-12.82.09-19.24.08-4.94-6.3-13-3-19.54-4.17-3.66-6.47-14.27-.86-18.14-6.95-8.77,1-15.29-6-24.15-4.57-8,1.29-13.73-1.67-18.3-6.58-1.45-1.55-2.14-1.58-3.5.12a6.59,6.59,0,0,1-8.09,2.09c-2.68-1.26-6.55-3.61-6.52-5.43.1-4.86-3.33-10.53,2.94-14.56,1.67-1.07,1.72-2.44-.51-2.69-4.68-.51-9.52-.11-14.22-.57s-7.48,1.26-10.14,3.85c-1,1-2,2.25-3.42,2.72-5,1.71-11.31,2.68-13,7.1-1.58,4.18-.61,9-.58,13.58,0,2.69,5.46,8.09,8.58,8.13,4.67.06,9.35-.45,14-.72,4-5.85,14.46-.37,18.39-6.85.24-.39,4.54.18,6.17,1.17,4.28,2.58,6.82,7,13.42,7,2.09,0,1.82,1.42.59,2.68-4.52,4.68-11.26,7.2-17.45,8.17-5.85.91-10.61,1.85-14,5.71-2.74,3.09-4.75,2.06-6.86-.35l-11.62,3.58c-2.17,2.54-5.54,4-6.76,7.58-1.63,4.9-5.59,5-9.94,1-1.53-1.38-4.21-3.17-4-4.44C135.34,115.43,127.25,112.32,121.46,106.85Zm-18.6-24.12c.56-1.12,1.12-2.24,1.69-3.36-2.41,0-5.56-.78-7,.17a21.9,21.9,0,0,0-7.24,7.25c-2.46,4.4-7.47,8.38-5,14-6.71,3.52-4.3,9.09-5,14-.23,1.66-2,3.31-3.4,4.68-1.22,1.16-1.33,2.08.81,2.76,1.39.44,4,.79,4.47.27,2.88-3.46,5.31-7.17,7.89-10.79-3.29-5.81,5.11-8.94,4.82-14.06,7.06-3,3.19-9.36,6.26-13.58.39-.54,1.1-.93,6.16-8.36a17.17,17.17,0,0,0-2.73,1.9,1.43,1.43,0,0,0,0,1.65,2.45,2.45,0,0,0,2,0A8.28,8.28,0,0,0,108.83,77C108.93,76.86,107.9,76.22,102.86,82.73Zm-53.51,63.5c13.1,0,11.83,1.06,11.86-9.36,0-3.9-1.67-8.6.41-11.51,2.86-4,5-7.53,4.5-12.23-.46-4.41-1.23-9.15,4.63-12-.12-4.48-.77-9.1,4.91-12,0-3.9-.09-7.8,0-11.7.06-1.83-1-3.92,1.64-5.3,5.15-2.71,2.78-7,3-10.64.1-1.71-.85-3.58-1.82-5.18-.8-1.34-5.64-.22-8.09,1.8-5,4.16-10.13,8.28-15.19,12.42a35.1,35.1,0,0,0-3.33,2.79c-.4.43,0,1.32-.37,1.81-3,4.16-4.84,8.79-8,12.93-2.33,3.06-3.31,6.63-6.16,9.68-2,2.17,1.5,6.42-2.32,8.88-4.66,3-2.56,7.15-2.61,10.79,0,3-3,4.44-3.77,6.55-2.22,6.14-2.16,11.87,4.28,17.4C38.11,145.7,43.26,146.68,49.35,146.23Z"/><path d="M505.54,934.9a134.84,134.84,0,0,1-27.86,1.74c-4.49-.12-9.44,1.5-13.14-2.63-3.1-3.46-9.27.76-13-2.77a9.91,9.91,0,0,0-5.93-2.27c-4.14,0-7.59-.44-10.47-3.3-3.05-3-6.39-7.53-10.2-8-6.59-.76-9.25-4.55-13.19-7.42-3.47-2.54-6.57-4.83-11.58-5.82-3.32-.65-6.35-4-8.47-6.69-4.94-6.27-14.17-7.6-20.23-12.45-5.73-4.58-11.44-9.19-17-13.91-3.38-2.88-7.52-1-11.25-1.56-4.34,5.43-11.14,3.57-17.24,4-5.26.35-10.51-1.1-15.65,2.55s-12.23.82-18.45,1.25c-5.58.39-11.22.08-16.83.08H219.72c-5.62,0-11.26-.29-16.83.08-5.81.39-10.07-1.78-15.08-3.59-4.23-1.53-6.9-2.09-6.23-6.12-8.78-5-10.63-12.12-9.75-20.33.4-3.69,1.19-7.55-3.45-10.71-1.71-1.16-1.19-4.79-1.2-7.3-.08-20.3.6-40.62-.31-60.9-.48-10.6,4.89-22-4.45-31.85-.78-.82,0-2.56-.13-3.86-1.36-10.61,3.4-21.64-4.46-31.94-2.16-2.83.08-7.73-.42-11.61-.79-6.13,3.28-13.13-4.46-18.12-.09-6.52-.38-13.05,0-19.55.05-.84,3.59-1.61,5.59-2.24a2.77,2.77,0,0,1,2.05.56c3.15,2.72,6.82,4.81,7.17,9.44.25,3.12,7.53.29,9.06,4.37a39.12,39.12,0,0,0,10.6,16.1c5.14,4.57,7,11.07,13.63,15.06,7.63,4.6,7,13.42,13.38,19.11,2.11,1.88,2.48,5.51,5.31,8,4.15,3.57,9.72,6,10.75,12.13.64,3.85,8.71,5.09,9.15,10.64.17,2,3.58,4,5.74,5.82,5,4.24,10.29,8.27,15.25,12.55,4.29,3.72,10.54,7.21,11.87,11.61,1.8,6,12.1,7.19,10.35,14.3-.09.36,1.1.88,1.61,1.38,6.41,6.29,14.26,11.22,19.29,19,4.67,7.19,13.79,12.65,21.65,18.2,6.08,4.29,6.57,11.3,13.33,15.33,6.4,3.82,11.41,9.17,17.2,13.69,2.7,2.1,5.57,1.73,8.2-.43,1.08-.88,2.3-2.05,3.64-2.24,8.42-1.22,17.5,2.25,25.46-2,7.39-3.94,15.39-1.2,23-2,6-.63,12.73,1.92,17.68-3.35,1-1,4.46-.55,6.78-.57,8.82,0,17.67-.36,26.45.09,6.73.34,14.28-2.36,20,3.42,1.25,1.26,2.35-5,6.62-2.2a14.38,14.38,0,0,0,5.89,2.49c3.91.45,8.67-.8,11.71.61,3.3,1.53,7.26,2.47,9.85,4.15,5.56,3.6,12.63,4.25,18,7.35,6.2,3.58,14.64,4.55,18.82,10.44,3,4.23,9.25,4.22,13.28,7,3.66,2.53,6.68,5.68,10.3,8.24,4,2.82,9.3,2.95,12.77.32s6.91-2.63,10.83-2.59c-1.74,4.63-4.88,7.57-11.42,8-2.88.2-4.43,4.76-2.39,6.13,9.91,6.61,12.82,16.61,18.55,25.21s7.89,9.76,19.79,5.14c4.08-1.58,7.74-1.3,11.39-1.09,4.8.27,7.37-1.8,9.93-4.27.71-.69,1.31-2.51,1.06-2.64-5.24-2.71-3.47-7-3.53-10.66-.15-10.48,0-21-.07-31.44,0-4.5-1.06-9.22,4.83-12.13a38.58,38.58,0,0,1,1.4-11.63c.48-1.19-.6-.65-1.34.1a1.43,1.43,0,0,0,0,1.65,2.45,2.45,0,0,0,2,0,8.31,8.31,0,0,0,2.19-2.32c.1-.14-.93-.79-2.89.56-7.17,4.6-13.93,5.91-19.06,9.67-4.46-2.42-7.12,6.37-11,1.65-2.59-3.19,2.25-5.66,5-7.9,6.79-5.57,13.55-11.16,20.43-16.66,2.72-2.17,5-4.39,9.61-5,3-.37,6.67-3.84,7.66-6.51a15.7,15.7,0,0,1,4.48-6.39c2-1.86,4.9-3.85,5.23-6,.48-3.09,2.72-4.85,5.11-6.11,4.51-2.35,4-6.64,6.7-9.61s7.53-4.47,8-9.15c.22-2.08,3.56-4,5.61-5.88,1.59-1.47,3.47-4.06,5.06-4,9.1.46,10.85-9.41,19.65-8.93,8.54-7.36,19.53-2.57,29.28-3.93,3.42,4.71,11.79,3.2,15.19,8.13a16.36,16.36,0,0,0,5.05,4.17c9.06,5.45,13.3,12.33,11.48,21.76-.86,4.47-.26,9.15-.11,13.73.16,5.14-.14,9.83-4.51,14.31-1.59,1.63-1.92,6.28,2.15,8.62,6.82-5.56,14.26-10.7,20.24-16.8,5.6-5.72,15-6.61,20.43-12.31,1.19-1.26,4.29-2.51,5.91-2.12,8.47,2.05,14.21-4.38,22.13-4.32,3.32,0,6.55-3.13,10.06-3.54,5.5-.64,11.19-.17,16.81-.17,4.81,0,9.62-.13,14.43,0,3.85.14,7.67.64,11.51,1,3.38,6,12.43.17,16.59,5.47,2.5,3.18,7.72.22,11.1,1.57,4.7,1.89,9.82,3.89,13.19,7,6.19,5.66,14.82,9.32,18.34,17.32s4.57,7.62,4.54,12.2c0,7.21,0,14.41,0,21.62,0,3.27.6,6.65-.2,9.79-.57,2.25-3.76,4-4.42,6.3-.88,3,.53,6.21-3.13,8.88-2,1.46-2.37,4.36-3.58,6.57-.73,1.34-4.55,2-1.17,4.2,1.86,1.23,3.3,3.79,5.15,4,6.34.54,12.9.94,19.13.14,6.92-.9,11.62,2.48,17.34,4,5,1.29,10.09-.11,15.61,2.65,7.36,3.68,16.88,1.21,25.47,1,.72,0,1.43-2,2-3.12,2.34-4.52,6.77-8.45,5-14.11a16.53,16.53,0,0,1-.06-7.82c1.11-6.18-2.84-12.58,3-18.68,4.61-4.76-.21-11.57,2.27-16.85,1.29-2.75,5.46-4.41.31-7.06,1.19-3.31,5.17-5.68,4.08-9.89-.81-3.13-.16-6.52-.16-9.79s-.25-6.57.06-9.82c.48-4.92-2.58-10.64,4.43-14.21-.57-4.9,2.92-10.31-2.73-14.58-.59-.44-1.62-.91-1.63-1.38-.14-5.24-1.25-10.69.18-15.65,1.57-5.49-6.3-6.76-5.62-12.22.73-5.93,4.28-13.06-3.12-18.39l-1.2-19.24c-7.34-7.21-4.41-15.81-4.74-23.92-.32-7.85.28-15.74-.18-23.58-.38-6.48,7.48-11.12,5.1-18.06-1-3-1.85-7.73.14-9.56,5.51-5,5.12-10.74,4.27-16.26s2.9-9.51,4.84-14.17c1.66-4,6.68-6.85,5.26-12.12-1-3.56,6.48-5.57,4.59-10.12s6-5.88,4.8-10.16c5.73-8.51,11.74-16.9,16.09-26,.8-1.69,3.37-3.5,3-4.78-2.81-8.67,4.2-13.31,10.7-18,1.47-1.07,4.26-1.28,6.4-1.22.83,0,2.32,2,2.23,3-.43,4.92,2.51,10.45-4.17,14.4-1.19.71-.57,3.68-.47,5.6.17,3.39-2,4.35-5.74,4.45-1.3,0-3.77,1.41-3.67,1.77,1.68,5.57-4.57,9.63-4.56,14.1,0,5.63-4.85,9-6.29,13.83-.79,2.62-4.64,4.91-3.85,8.45.68,3.06-1.82,4.77-4.19,6.43-3.78,2.65-6.21,5.44-5.61,10,.56,4.34-6.75,6.88-4.78,12.15,1.48,4-2.21,6.89-4.19,10.31-2.17,3.76.71,9.27-.81,13.49-1.7,4.7-5.61,8.64-4.68,14.19.86,5.15.18,10.46.18,15.7v13.76c0,5.24,1,10.64-.26,15.68-1.43,5.82,6.23,8.55,5.3,14.15-.83,5,.26,10.29.51,15.45,6.08,3.09,3.53,8.06,4.1,12.37.64,4.91-2.26,10.3,4.17,14.46,1.62,1,.6,4.92.61,7.5,0,17.68-.57,35.39.33,53,.32,6.21-6.6,9.83-5.37,16.1,1.13,5.75.24,11.76.24,17.66-9.25,6.19-3.29,14.62-4.71,22-1.17,6.11,2.27,13-4.92,18,0,6.55-.39,13.12.13,19.64.38,4.78-1.66,8.35-4.76,12.23-3.66,4.6-9.36,6.78-13.83,3.64-4.7-3.3-8.22-8.29-16-6.47-4.86-2.9-11.41-3.39-15.55-7.34-.4-.39-1.38-.42-2.12-.51-7.47-.93-16,2.55-22.19-3.68-7.17-.09-14.34-.22-21.52-.26-8,0-16.13-.63-24,.22-4.92.53-10.48,2.47-14,5.26-4.19,3.37-11.55,5.42-10.72,12,.05.43-1.08.9-1.42,1.45-2.77,4.49-9.56,3.73-13.36,6.92s-7.44,7.18-12.16,9.28c-3.67,1.63-8.94-.64-13,3.1-3.46,3.2-10.42-.63-14.87,4.09-2.87,3-11-.9-14.53,4.32-.44.64-2.91.35-4.42.55-6.69.88-14.55-2.45-19.79,3.67-7.17.09-14.34.21-21.52.25s-14.69,1-21.57-.26-8.59,6.36-15,4.32c-.06,0-1.57,2.41-1.38,2.52,3.76,2.19,4,5.25,3.83,8.62-.19,4.45,5.82,6.89,5.26,12.16-.39,3.65,3,8.29,6.36,11.3s1.64,7.77,6.56,9.67c.22,5,6.23,7.24,8.17,11,4.85,9.35,14.72,14.78,22.44,21.88.54.49,1.21,1.38,1.69,1.32,7.85-.83,9.66,6,15.27,7.94,6.17,2.13,12.24,4.32,18.17,7,4.95,2.22,12.39.83,18.73.86,14.43.06,28.88.27,43.3-.1,6-.16,12.63,2,18.11-2.15,4.76-3.58,10.72-.76,16-1.75,1.34-.26,2.27-1.73,3.57-2.41,3.77-2,8.08-3.06,12-5,3.51-1.75,9.35-.44,14.16-.36,8.17.14,15,7.39,11.27,13.39-2.16,3.44-4.78,6.19-4.61,10.33.06,1.54-1.72,4-3.38,4.56-9.57,3-2.51,12.72-10.14,16.34,1.22,1.39,3.18,2.68,3.5,4.19a43.31,43.31,0,0,1,.55,9.66c-.06,3-6.39,8.79-7.89,7.58-2.65-2.14-7.07-3.58-6.48-7.56.63-4.27-2.21-9.11,3.65-12.62,1.29-.78,1-3.54,1.09-5.4a17.72,17.72,0,0,1,3.71-10.62c4.79-6.51.9-10.2-8.86-10.19-5.58,0-12.29-1.4-16.42.63-4.34,2.13-8,3.38-12.86,3.33-11.23-.12-22.46-.06-33.68,0a56.35,56.35,0,0,0-7,.48,2.37,2.37,0,0,0-1.61,1.35c-.11.34.78.92,1.25,1.36,6.21,5.75,16.6,7,21.88,13.87,3,3.91,9.94,2.68,13.47,6.86s8.86,7.53,13.4,11.23l11.9,9.73a52.36,52.36,0,0,1,5.06,4.19c2.34,2.48,5.52,2,8.62,2,3.47,0,6.12.47,6,4.13-.17,7.2-.09,14.41,0,21.62,0,4.09-1.36,5.63-4,5.8-3.89.25-5.87-1.91-7.62-3.86s-1.7-5-3.66-6.52c-4.58-3.57-4.46-9.46-10-12.43-4.76-2.53-3-8.55-8.36-10.89.66-4-1.13-6.17-6.47-5.76a2.38,2.38,0,0,1-1.85-.91c-1.7-5-4-9.55-11-10.81-6-1.08-8.74-5.36-12.44-8.51-3-2.52-6.69-2.77-10-4.14-4.68-1.93-9.78-3.92-13.14-7s-8.07-3.41-11.87-5.36c-1.88-1-4.3-2.71-5.87-2.35-7,1.61-10.62-5.35-17.33-4.17-2.3.4-5.65-.77-7.06.2-8.23,5.67-17.89,3.64-27,3.65-5.24,0-11.08,2.11-15.81-1.94-4.58-3.94-11.93.29-15.57-2.15-5.67-3.8-11.48-3.08-17.53-3.79-3.5-.41-6.72-2.46-10.06-3.77-6.69-2.62-13.39-5.23-20.06-7.88-1.34-.53-3.14-1-3.77-1.92-4.13-6-13.12-6.28-18.78-10.86-5.29-4.29-13.17-6.13-18.29-11.24s-11.23-9.33-16.86-14c-5.41-4.48-6.87-11.23-13.54-15.12-5.82-3.4-6-9.8-9.81-14.3a63.86,63.86,0,0,0-9-8.71c-3.6-2.82-6.65-5.56-5.36-10,.18-.63.36-1.69,0-1.91-10.57-6.14-10.87-17.83-20.06-24.69-4.46-3.34-8.2-9.27-15.19-2.19-1.05,1.07-4.36.85-6.64.88-8,.09-16.05-.21-24.05.11-6,.25-12.74-2.1-17.74,3.15-1,1-4.44.45-6.73.72-6.83.82-14-1.76-20.61,2.1-6.27,3.67-13.81,1-20.68,1.91-1.32.17-2.27,1.77-3.64,2.26-2,.74-4.83,2-6.29,1.38-2.71-1.11-6-3.13-6.71-5.29-1.23-3.63-.86-7.67-.72-11.53,0-.9,2-2.61,2.82-2.51,6.06.75,8.49-5.73,14.62-4.78.3.05,1.11-2.09,3.08-5,.47-1.19-.6-.66-1.34.09a1.41,1.41,0,0,0,0,1.65,2.45,2.45,0,0,0,2,0,8.24,8.24,0,0,0,2.18-2.31C508.52,934.19,507.5,933.55,505.54,934.9Zm-254.21-69h31.25c4.81,0,9.84-.73,14.37.18,6.47,1.31,9.57-3.84,14.89-4.07,4.79-.2,9.61,0,14.41,0s6.7-3.47,8.91-5.82c2-2.12,0-4.69-2.62-6.61a104,104,0,0,1-11.85-9.74c-3.3-3.32-5.34-7.47-8.68-10.75-7.43-7.29-16.69-13-22.49-21.83-4.35-6.62-13.11-11.32-19.91-16.87-2.3-9-11.86-13.27-18.89-19-4-3.31-5.7-7.27-8.4-11-3.08-4.24-4.2-9.49-10-12.4-2.66-1.33-6.22-3.43-6.57-5.5-1.12-6.58-8.42-9-12.06-13.68s-6.26-10.12-12-13.55c-4.06-2.4-4.68-6.28-7-9.42-3.88-5.32-6.47-11.49-13.32-15.24-1.71-.93-2.36-1.75-3.48-.53l-5,5.56c6.78,3.79,3.51,9.48,3.83,14.38.42,6.53.1,13.09.1,19.63,9.56,9.07,3.41,19.85,4.64,29.8.88,7.13.18,14.39.18,21.59,5.11,3.11,5.19,7.48,4.88,12.12s-.07,9.16-.07,13.74V824.5c0,3.93.82,8-.21,11.75-1.31,4.73,6,6.25,4.89,10.16-1.67,5.73,4.43,9.05,5.88,13.86.84,2.8,5,6.05,11.12,5.82C222.46,865.55,236.91,865.91,251.33,865.91ZM768.93,890a14.25,14.25,0,0,0,.08,3.92c.33,1.14,1.12,2.91,2.1,3.1,6.55,1.29,14.45-1.94,19.65,4.19.52.61,3.06.08,4.66.08,6.42,0,12.84-.19,19.24.05,6.74.26,14.3-2,19.54,3.65l5.11-3.24c3.72,4.93,9.74,3.4,15.07,3.44,16,.1,32.08,0,48.11.06,3.1,0,7.46-.57,9.07.81,7.63,6.53,13.66,1,20.71-.54,4.51-1,6.74-6,12.34-4.23,3.56-2.54,2-7.53,6.82-9.47-1.82-5,6.63-6.84,5.41-12-1-4.4-1-9.07,4.55-12.06-5.6-2.53-3.25-5.42-.66-8.39a5.84,5.84,0,0,0-1.63-1.33c-2.68-1.53-1.64-2.82.26-4.19,2.77-2,3.35-4.49.79-6.63a9.42,9.42,0,0,1-3.71-6.7c-.27-2.24-5-3-4.68-6.26.12-1-.8-2.91-1.77-3.19a189.54,189.54,0,0,1-28-11.19c-5.91-2.83-12.43-.65-18.65-1.09A25.71,25.71,0,0,1,892.59,816c-3.51-1.8-9.13-1.5-13.69-1.09-4.33.39-7,5-12.47,3.8-5.93-1.36-10.21,1.77-14.83,3.91-7.27-3.14-10.72,4.9-17.25,3.93-4.2,4.83-13.18,3.65-17,9.41-3,4.55-9,6.56-14.73,8.45-.08,7.75-11.08,9.43-13.29,15.11-2.65,6.81-10.37,9.61-13.73,15.06C772.68,879.36,767.28,883.82,768.93,890ZM650.46,938.79c-3.63-1.78-6.79,6.77-13.43,5.88-2.09-.28-5.75.08-6.35,1.09-1.27,2.13-2.21,5.3-1.15,7.28,3.57,6.64,6.45,14.37,12.58,19.08,11.51,8.87,14.82,21.82,25.72,30.69-.82,6.59,11.61,7.27,9.63,14.38,5,4.17,9.86,8.56,15.24,12.43,3.31,2.39,8.55,2,11.66,5.52,3.25,3.66,8,6.41,11.66,9.84,5.21,4.86,12.34,7,19.11,9.7,4.66,1.85,10.09,3,13.81,5.67s8.56,2,12.06,5.15,11.22-1.08,14.5,4.31c.23.38,1.34.57,2,.58,4.8,0,9.62-.19,14.39.12,2.09.14,4.06,1.38,6.12,2,1.09.35,3.09,1,3.26.74,3.32-4.27,8.54-2.41,13-3,.81-.1,2.09-2.22,1.89-2.39-10.06-8.42-20.32-16.67-30.39-25.07a56.89,56.89,0,0,1-7.22-7.35c-3.77-4.52-6.38-9.71-9.19-14.54-3.17-5.48-6.16-11-10.11-16.16,3-6.26-4.91-10.16-5.16-16-.17-4-3-8.13-5.77-11.63-2.47-3.12-5.9-6.12-11.7-5.11-9.82,1.72-17.85-2.29-25.63-6.14-3.84-1.9-9.34-1.44-11.67-5.42-5.45,1.3-7.49-3.93-12.3-4.21-6.08-.36-7.64-7-12.85-7.51-5.77-.51-7.53-4.29-11.37-6.19C660.35,941.35,657.32,940.84,650.46,938.79ZM463.88,858.05c-5.6,0-11.33.61-16.76-.16-6.23-.89-9.81,3.39-14.86,3.93-6.29.67-12.77.16-19.17.16H396.3c-4.42,5.15-11.07,3.94-17.2,3.87-3,0-4.44,1-4.86,3.07a4,4,0,0,0,.86,3.54c6.64,5.66,13.49,11.15,20.28,16.7,8.92.59,11.77,8.55,18.54,10.73,8.61,2.77,13.55,8.3,19.9,12.82,1.2.85,2.08,2.12,3.43,2.71,7.21,3.13,14.48,6.33,21.79,9.1,5.27,2,12.63.79,19,.27,6.61-.54,9.69,6.38,17.32,4.31,5-1.37,11.14-.65,16.68-.17,8.32.72,14.28-3.48,21-6.09,3.38-1.33,5.86-5.16,9.11-5.49,4.91-.49,6.82-5.87,12.35-4.24,4-3.18,8-6.33,12-9.55,7.53-6.17,7.35-13.86-1.69-17.2-4.35-1.61-8.76-2.83-11.25-6-2.94-3.68-9.23-1.52-11.79-5.43-3.16-4.81-10.43-4.83-15.19-8.08-2.42-1.65-7.5-.7-11.37-1-1.5-.11-3.77,0-4.36-.68-5.14-6.2-14.51-.47-19.38-4.26-6.5-5.06-13.59-1.86-20.26-2.86A50.67,50.67,0,0,0,463.88,858.05Zm444.67,65.36c-1.08-.81-2.1-2.26-3.24-2.33-4.78-.26-9.59-.11-14.4-.11-4,0-8.12-.49-12,.13-5.13.82-8.16-2.13-12.11-3.41-4.18,6.38-7.08-.87-10.75-.72-6.39.26-13.11-.91-19.13.32-7.39,1.52-10.74-4.46-17.29-4.32-18.4.39-36.81.12-55.22.15-4,0-4.52,1.09-5.25,4.77-1.33,6.73,3.88,14.19-3.83,20.34-2,1.58,5.32,2.72,2.56,5.32-2.2,2.07-3.72,3.84-3.53,6.74.28,4.15,4.51,9.46,8.88,10,6,.7,13-2,17.35,3.68,2.48-1.22,4.87-3.27,7.48-3.48,6.34-.52,12.8.06,19.18-.24,5.25-.25,10.58,1.27,15.65-2.43s12.25-.49,18.37-1.47c1.41-.23,3.15-.66,4-1.5a9,9,0,0,1,8.42-2.34c4.81.87,7.12-4.3,9.93-3.69,7.32,1.59,11.62-3,17.2-4.5,4.81-1.33,8.23-6,13-7.34,6.71-1.83,9.28-6.8,14.19-9.87C908.88,926.57,908.41,924.67,908.55,923.41ZM773.74,812.82c0-3.9.17-7.81-.07-11.71-.11-1.79-.3-4.09-1.64-5.22-5.3-4.49-9.6-10.56-19.48-8.74-3.79.69-8.06-.4-11.88.26-3.5.61-6.58,3.34-10,3.58-4.9.33-8.93.63-12.43,4.08-4.57,4.48-10.07,8.32-15.07,12.52-3.84,3.21-9.51,6.13-10.74,9.95-1.47,4.54,4.55,8.6,7.09,12.92a13.55,13.55,0,0,1,2,7.14c0,7.81,0,15.62,0,23.42a54.51,54.51,0,0,0,0,5.86c.33,3.17,5.71,5,10.93,3.87a24.83,24.83,0,0,1,6.71-.83c5.85.42,10.69-.53,14.49-4.61,2.39-2.56,5.35-6.37,8.41-6.61,7.51-.58,11.59-4.85,14.48-8.8s6.64-7.94,7.77-13c.62-2.76,5.9-4.3,4.57-8.17,4.32-2.49,5.49-6,4.86-10.09A39.35,39.35,0,0,1,773.74,812.82ZM663,895.58c0,5.87-.1,11.74,0,17.6.08,3.67,8.48,9.49,11.24,7.63,3.65-2.47,9.19-2.65,11.6-5.19,4.33-4.56,11.33-.19,14.87-4,3.7-4,9-1.26,13-2.79,4.71-1.8,8.83-4.59,13.35-6.75s11.44,1.25,14.64-4.14c8.8.15,14.77-2,12.93-10.57,8.13-3.53,1.66-12.64,9.34-16.48.51-.26-.08-2.42-.63-3.54-.91-1.89-2-1.73-3.36-.13-7.43,8.52-19.44,11.57-29.71,16.77-5.3,2.68-12.82-.64-16.84,5.15-.81,1.16-6,.34-9.13.35-14.45.09-17.19-2.26-17.26-14.76,0-3.91,0-7.82,0-11.73,0-5.86.11-11.73-.11-17.59,0-1-1.5-2.07-2.3-3.1-1.13.92-2.07,2.14-3.42,2.71-4.8,2-2.48,7.23-6.69,9.52-3.43,1.87-.82,6.23-5,8.13-3.5,1.58-.77,4.85-1.8,7.14-1.27,2.82-3.81,5.34-4.55,8.2-.81,3.12-.19,6.49-.19,9.74Zm81.85,42.25c0-5.85.11-11.7-.1-17.54,0-1.06-1.51-3-2.15-3-8.2.59-17.49-3.3-24.21,3.66-5.58-1.74-7.44,3.79-12.3,4.15-3.43.26-6.51,2.75-10,3.64-4.28,1.11-6.71,5.29-12.07,4.74-.33,0-2.06,3.48-1.53,5,.6,1.65,2.75,3.26,4.73,4.17,6.42,2.94,13.59,5,19.47,8.48,4.71,2.8,11.45-1.16,14.82,3.89.37.54,1.09,1.32,1.66,1.33,5.57.1,11.14.09,16.7.05,3.9,0,4.91-1,5-4.89C744.9,946.93,744.86,942.38,744.86,937.83Zm-145.37-6.19c.06-.54.38-1.23.12-1.43-7.17-5.75-6.93-15.16-15.18-20.39-1.88-1.19-4-4.14-5-3.86a16.79,16.79,0,0,0-6.83,4.43c-3.55,3.59-10,2.66-13.58,6.74s-8.7,6.51-14.48,8.9c-6.59,2.72-11.07,8.92-16.21,13.79-.6.57.37,2.36.85,3.51.2.46,1.07.72,1.64,1.07,3.09-4.68,6.65-2.3,10.18-.45,3-4.22,8.06-3.29,12.72-3.31,6.39,0,12.91-.62,19.16.16,6.86.86,10.22-5.84,17.28-4.22C594.84,937.66,596.39,933.3,599.49,931.64Zm166.34-73c-.65.52-1.18,1-1.71,1.4a17.06,17.06,0,0,0,3.23,1.23c.39.07,1-.8,1.58-1.23Z"/><path d="M691.9,438.13a38.13,38.13,0,0,0,14.54-12.48c6.23-8.42,9.65-10.91,19.22-15.91,1.23-.64,3.89-.94,3.9-1.43.2-8.21,8.76-9.37,15.21-12.23,2.59-1.15,6.08-1.37,8-3s2-4.62,3.69-6.49c2.31-2.48,4.85-5.37,9.69-4.43,4.66.89,7-1.88,10.2-3.76,1.15-.67,5.88.49,6.08,1.28,2.89,11.83-.5,20.58-10.24,29.39-3,2.75-7.29,4.52-8.42,9-.69,2.75-4.35,5.1-7,7.38-3.21,2.77-2.12,7.37-6.6,9.72-.76.4-.14,3.7,1,5,1.6,2,5.46,1.41,8-1,2-1.84,4.7-3,5.12-6.16.78-5.77,10.85-7.43,10.3-14.18,0-.41,1.13-1.3,1.65-1.26,8,.63,10.18-5.5,14.89-8.56,3.52-2.29,8-4.63,6.91-9.39,3.18-1.75,4.53-5.19,9.11-5.8,6-.79,9.26-3.81,10.07-9,.52-3.35,4.55-2.77,7.6-2.67,2.88.09,11.13,4.29,11.37,5.86.06.4-1.12.85-1.51,1.39-1.12,1.58-2.86,3.16-3,4.83-.52,5,1,10.3-4.84,14.19-.78.52-.38,2.56,0,3.81.48,1.76.86,4.24,2.32,4.92s4.76.05,6.25-1c4.27-2.94,8-6.38,12-9.62,6.24-5.1,12.41-10.24,18.73-15.27,7.2-5.74,13.55-12.22,23.43-15.45,4-1.32,6.12-7.51,11.44-5.2,3.37,1.47,5.12,5.83,6.89,9.14.76,1.43.57,4.42-.59,5.1-5,2.94-3.41,7-3.43,10.71,0,2.73-.18,5.18-3.23,6.79a3.51,3.51,0,0,0-1.44,5.24c1.5,2.2,4.28,3.84,6.63,5.61a4.21,4.21,0,0,0,2.2.35c6.42,0,13.14,1,19.17-.24,7.41-1.54,10.75,4.81,17.34,4.29,6.36-.49,12.9.43,19.21-.23,9.8-1,20.84,3.94,29.3-3.81,7.22,0,14.5.49,21.64-.11,10.61-.89,22.23,3.41,31.69-3.82,7.22,0,14.44-.09,21.65.08a8.33,8.33,0,0,1,3.92,1.66,18.61,18.61,0,0,0,17.55,1.22,29,29,0,0,1,13-3c3.89-.11,7.76-.49,11.64-.75,3.27-6.19,11.34-1.7,16.76-5.22,6.7-4.35,13.68-2.07,17.74,3.58a39.11,39.11,0,0,1,3.43,6.69c.78,1.7,2.58,4.19,1.8,5.07-2.21,2.48-5.17,5.5-8.45,6.12-5.33,1-11.18-.06-16.75.36-6.74.5-14.3-2.26-20,3.35-1,1-4.5.47-6.84.48-11.23,0-22.46-.08-33.68.06-4.89.06-9.35,0-12.74-3.69-.57-.62-4.21.38-6.26,1s-3.9,2.47-5.88,2.52c-9.61.27-19.24.12-28.86.12-5.62,0-11.25.21-16.84-.05s-10.55.26-15.09,3.78c-1.7,1.3-6.17.21-9.38.21H922.52c-8.49,0-8.22.51-25.33,7-8.12,3.08-15,6.15-17.54,13.54a3.61,3.61,0,0,1-.78,1.69c-3.92,3.28-8,6.47-11.87,9.76s-9.93,6.21-10.86,10c-1.33,5.37-6.62,7-9.55,10.62-2.75,3.38-7,2.49-10.78,2.38-1.34,0-3.78-1-3.78-1.61,0-5.54-2.89-11.3,4.12-16.09,7.68-5.25,9.44-13.79,14.29-20.67,4.54-6.43,7.25-13.79,14.81-18.48,4.43-2.74,4.67-6.18,5.06-10.2.21-2.11,2.83-4.56,5.17-5.95,4.72-2.82,4.33-6.58,4.15-10.46a3.84,3.84,0,0,0-.81-1.68c-1.1-1.67-2-1.41-3.44.16-6.3,6.63-17.11,8.43-23.67,15.18s-14.72,12-21.86,18.24-17.78,6.74-25.16,12.23c-.83.62-3.51.49-4.55-.15-2.54-1.55-5.24-3.33-6.73-5.53-1.65-2.47,0-4.8,2.7-6.68,3.65-2.57.42-6.31,1.88-9.16,1.13-2.2,5.28-3.07,4.64-6.29a5.58,5.58,0,0,0-.35-1.85c-1-1.68-2.07-1.72-3.4-.66-6.1,4.81-11.87,9.61-19.88,12.88-6,2.44-10,8.12-14.88,12.36,1.1,6.38-9,7.13-9.52,12.47-.33,3.19-2.4,3.54-5.48,4.77-4.74,1.88-8.69,5.36-12.42,8.58-1.32,1.14-1.52,3.55-1.37,5.33.34,4.22-1.85,5.23-6.8,5.75-3.29.35-5.28,4.67-10.11,3.81-.54-.09-2.37,1.91-2.32,2.9.23,4.79-3.32,5-7.68,4.85-3.14-.13-7.73.09-6.57-3.34,1.27-3.73-8.42-4.57-2.21-9.39,3.51-2.74,3.87-8,8.76-10.67,4.07-2.2,2-7.52,6.83-9.45-.23-5.22,4.72-7.81,8.56-10.83,3-2.31,1.25-5.91,4.86-8.33,4.72-3.16-1.29-10.27,6.83-13.49,4.77-1.89,8.09-6.23,12.06-9.48.56-.46,1.33-.85,1.62-1.41.16-.32-.36-1-.78-1.34s-1.45-1-1.88-.9c-6.24,2-12.94,3.1-18,7.31-12.9,10.77-25.83,21.52-39.23,31.86-3.16,2.43.19,8.38-7.49,8.05-7-.29-2.94,6.29-7.22,8.48-3.69,1.88-7.94,4.47-7.13,9.31.13.78-2.58,1.67-3.14,2.79-2,4.12-10.32,1.06-10.71,5.79s-4.9,6.38-7.85,9.18c-3.13,3-6.82,5.54-10.12,8.4-2.23,1.93-4.85,4.4-7.92,3-3.88-1.77-8.16-4-8.06-8.61.1-5.14-.69-10.09,5.74-13.92,4.09-2.43,9.67-5,8.73-10.67,4-3.25,7.94-6.46,11.82-9.76a11.07,11.07,0,0,0,2.58-3.05c2.07-3.88,3.27-8.22,6.14-11.63,3.13-3.72,9.56-6.05,11.32-10,3.24-7.19,11.51-11.52,14-18.85a23.5,23.5,0,0,1,10.17-12.27c3.25-2,1-4.88,3.1-9.1.47-1.19-.6-.66-1.34.09-.35.36-.06,1.13-.06,1.71.72,0,1.67.24,2.1,0a8.41,8.41,0,0,0,2.18-2.32c.1-.15-.92-.79-2.88.56-3.8,1.8-7,1-8.46,1.95-5.55,3.57-9.81,9.14-16,11.26-6.33,2.18-9.77,6.19-14.36,9.44-5.43,3.84-10.24,8.26-15.36,12.39-2.8,2.25-5.32,4.23-5.45,8.08-.07,1.9-3.88,5-6.46,5.34-11.83,1.67-14.91,9.86-20,16.61-2.75,3.66-3.27,8.55-8.5,10.82-6.8,3-6.8,9.69-11.72,13.76-1.93,1.59-1.62,5.24-3.66,6.42-5.49,3.17-6.3,8.56-10.13,12.34a126.2,126.2,0,0,1-13.57,11.07c-.89.67-3.18.6-4.55.22-2.07-.57-6-10.44-5-11.92,7.18-10.61,12.29-22.07,20.24-32.37,2.18-2.82.61-8.36,8.23-6.82.42.09,1.62-.77,1.65-1.22.36-5.82,6.08-8.59,10.24-12.24-2.33-5.14,7.59-6.81,5.1-12,3.21-2.83,8.64-5.42,9.14-8.55.9-5.53,6.54-7,9.44-10.65a1.23,1.23,0,0,0-.41-1.31c-1.35-.49-3.26-1.45-4.14-1-5.85,2.71-12.63,3.95-17.42,8.4-5.8,5.39-13.53,9.62-18.16,15.53-3.34,4.26-14.44.88-12.15,9.19-3.9,3.26-7.79,6.52-11.71,9.76-4.51,3.71-8.93,7.5-13.61,11.06-5,3.82-9.25,8-16.45,10.15-5.3,1.6-8.84,7.11-13.16,10.88-4-3.27-7.25-6.18-10.83-8.78-3-2.2-1-4.9,32.7-46.64,32.86-39.11,30.88-39.32,29.95-38.61-5.26,4-10.49,8.09-15.26,12.49-1.83,1.69-2.14,6-3.63,6.19-15.33,1.67-14.83,15.59-25,21-.39,5.62-8.37,9.33-5.91,15.66-4.81,4.26-10.35,8.14-14.13,12.94-1.82,2.32-1.88,7.59.11,9.32,2.19,1.91,5.06-2.13,6.93-3.93s1.95-4.65,3.65-6.54c2.34-2.59,5.47-4.72,8.26-7-2-7.11,9.2-7.9,10-14.37.68-5.34,8.85-7.84,11-13.9,1.78-5,10.21-7.41,12.85-13.27,2.82-6.21,10.4-9.51,15.51-14.36,1-1,2.3-1.83,3.31-2.83.11-.11-.7-1-1.25-1.32s-1.32-.52-36.34,38.56c-41.3,40.41-43.45,46.19-48.61,49,1.15,7.78-5.8,6-10.9,6-3.52,0-5.81-3.79-3.64-5.82,2.62-2.46,5.94-4.44,8.31-7,1.71-1.87,2.36-4.39,3.49-6.62,9.54.94,7.65-4.79,7.23-8.9-.64-6.28,1.3-11.27,7.65-15.11S500.91,442.59,504,437c2.06-3.73,4.62-6.85,9.36-7.49,4-.54,5.56-1.82,5.22-4.83-.39-3.42.78-6,4-8.51,13.76-10.91,27.5-21.85,40.6-33.28,4.44-3.88,10.76-4.47,15.29-8,4.27-3.37,7-9.11,14.81-8.43,4.52-3.69,8.87-7.54,13.64-11,2-1.44,3.18-5.17,6.58-3.66,2.67,1.19,4.59,3.07,8.16,3.1,1,0,3.28,3.46,2.7,4.31a126.5,126.5,0,0,0-10.53,18c-5.85.59-7.25,4.45-10.23,7.85-5.52,6.28-14.85,10.51-19.51,17.05-4.41,6.2-10,11.12-15.71,16.16-3.76,3.29-9.63,6.21-10.68,10-1.45,5.26-8.74,6.8-9.13,10.56-.51,4.83-6.86,6.85-6.09,11.9.31,2.1-5.25,2.92-4.56,7.05,0,.29.28-.52-.08-.81a2.47,2.47,0,0,0-2,0c-1.58.91-3.56,2-.66,3.41.38.19,1.82-1.1,2.77-2.58,2.95-1.41,6.17.19,9-2.21,6.62-5.69,13.17-11.51,20.48-16.56,4-2.75,2.8-8.56,6.75-9.22,4.3-.72,7.1-4.15,9.88-4,5.62.34,7.29-4.86,12.47-4.4,2.57.23,4.43-1.25,4-3.63-.92-5.18.85-8,8-9,3.41-.46-.14-7.53,8-7.33,4.44.11,9.32-3.57,13.46-6.12,3.81-2.34,6.89-5.46,10.29-8.23s6.79-5.56,10.2-8.33c4.72,2.26,7.87,4.72,8.24,10.05.31,4.48,4.11,8.8,6.44,13.35l15.88-13c4-3.24,7.58-6.85,12-9.6,3.51-2.17,8.26-2.47,11.69-5.52s6.1-7.13,12.77-8c3.89-.5,6.91-5,10.63-7.33,1-.63,3.32-.53,4.61,0a4.25,4.25,0,0,1,2.48,2.9c.32,3.26-.17,6.56.2,9.81.39,3.55-1.31,5.94-4.25,8.46-3.69,3.18-9.62,5.22-10.14,10.22-.42,4-5.56,5.48-5.79,10-.19,3.71-4.3,8.09-8.17,10.67-4.65,3.11-3.83,8.55-8.35,11-7.29,3.92-6.9,9.62-6.71,16.35,0,.29.28-.52-.08-.82a2.55,2.55,0,0,0-2,0c-1.58.91-3.56,2-.66,3.42C689.51,440.89,691,439.61,691.9,438.13Zm-38.52-28.41c-3.33-.1-4.93,1.21-4.81,5.69,0-.59.28-1.4-.08-1.69a2.51,2.51,0,0,0-2,0c-1.58.91-3.56,2-.66,3.41.38.19,1.82-1.1,2.77-3.46,3.33.1,4.94-1.21,7.61-7.54a17.73,17.73,0,0,0-2.74,1.9,1.43,1.43,0,0,0,0,1.65,2.45,2.45,0,0,0,2,0,8.31,8.31,0,0,0,2.19-2.32C657.77,407.21,656.74,406.56,653.38,409.72Zm86.76,47.19c3.71-.18,5.1-1.45,4.62-4.84-.15-1.05-1.48-2-2.26-3-.55.42-1.1.84-1.64,1.27a30.5,30.5,0,0,0-3.23,2.69,12.11,12.11,0,0,0-1.49,2.65Z"/><path d="M615.56,875.18l1.72-1.4a11.3,11.3,0,0,1,1.5,2.64c.09.32-1,.86-1.5,1.29Z"/><path d="M608,882c.56.45,1.58,1.1,1.48,1.24a8.41,8.41,0,0,1-2.18,2.32,2.41,2.41,0,0,1-2,0,1.41,1.41,0,0,1,0-1.65A16.59,16.59,0,0,1,608,882Z"/></svg>