<svg id="Layer_1" data-name="Layer 1" xmlns="http://www.w3.org/2000/svg" viewBox="0 0 1200 1200"><title>BB_Artboard 62</title><path d="M684.12,24.62c8.22,0,16.76,1.4,24.6-.35,10.7-2.37,17.48,8,28,6.15,8.86-1.57,18.22-.32,27.36-.32,5.86,11.27,19.63.18,26.39,9.29.83,1.11,3.16,1.72,4.71,1.59,12.76-1.06,24.33,1.64,34.24,10.11,14.15,1.15,25.22,9.71,37.49,15.43,11.54,5.39,22.78,11.27,34.05,17.17,4.64,2.43,9.21,4.31,13.15,8,4.36,4.11,7.48,9.31,15,10.32,5.41.73,7.08,10.35,14.75,10.48,1.47,0,3,1.57,4.36,2.58,8.45,6.26,12.8,17.78,24.89,19.37l25.2,25.21c7.76,7.75,15.3,15.74,23.35,23.18,4.69,4.33,3.57,11.57,9.47,15.49,5.22,3.46,9,9,13.77,13.28,3.49,3.14,1.16,8.5,5.59,11.61,3.32,2.32,7.57,4.87,7.63,10.43,0,5.1,5.71,6.61,8,10.36s3.3,8.07,6,11.12c3.7,4.12,1.13,8.74,2.47,12.78,1,3.16,3.72,5.73,5.28,8.77,2.69,5.27,4.92,10.77,7.65,16s7.87,10.19,8.34,15.57c.57,6.56,5.27,11.7,5.39,16.89.19,8.61,5.23,14.68,8.1,21.56,1.73,4.14,3.89,7.77,3.42,12.27-.6,5.77,1.31,10,5.24,14.45,2.49,2.83-1.71,8.83,2.4,12.58,2,1.81,3.45,3.66,3.51,6.81.16,8.68-2.35,17.89,5.17,25.35,1.37,1.36-.05,5.31.24,8,1.27,12.12-4.07,25.25,5.44,36.12,0,8.23.33,16.47-.12,24.67-.28,5,2,8.15,4.92,11.82,2.37,2.94.61,6.91-2.76,9.13-2.34,1.54-2.35,2.37-.28,4,4,3.11,6,6.93,1.55,11.21-3.79,3.64-4.87,7-.94,11.42,1.6,1.79,3.15,4.71,2.86,6.85-.4,2.88-3.52,5.44-3.73,8.26-.15,2,2.9,4.13,3.86,6.48.64,1.56-.07,3.63.16,5.43.76,5.77-7.35,7.68-5.72,14.23,1.07,4.3.2,9.09.2,13.66,0,5.48-.7,11.08.17,16.42,1.23,7.58-2.75,12-7.87,16-4.67,3.61,1.14,6.08.75,7.7-1.33,5.51-4.88,10.21-4.22,16.62.62,6,1.83,12.63-4.73,17.31-1.35,1-.69,5.14-.5,7.81.4,5.66-1.19,9.88-5.09,14.54-2.83,3.37,1.41,10.26-4.14,14.68-5,4,.87,11.89-5.62,17-4,3.22-5.15,10.41-7.08,16-2.38,6.9-4.5,2.15-6.84.15a9.27,9.27,0,0,0-1.92-1,27.75,27.75,0,0,0-2.23,4.55c-.92,3.21,2,4.62,3.42,6.79,2.83,4.28,2.7,4.41.06,9.3a9.55,9.55,0,0,1-1.91,2c-4.34,4.15,1.17,10.7-3.81,14.92a80.2,80.2,0,0,0-11.6,11.63c-5.77,7.41-6.28,17.86-13.63,24.48,1.55,5.44-4.87,7.9-5,11.46-.24,5.34-4.28,7.53-5.88,11.45-.64,1.56.1,4-.87,5.07-4.27,4.75-9.56,8.69-13.28,13.8a49.6,49.6,0,0,0-7.63,15.94c-1.6,6-8.41,7.63-9.66,12.43-1.7,6.55-5.61,10.75-10,15.13-3.69,3.69-2.22,10.54-7.79,13.2-6.38,3.05-4.63,11.16-9.62,15.27-4.21,3.46-7.82,7.67-11.7,11.54s-7.27,8.51-11.75,11.46c-6.52,4.29-4.92,13.1-11.38,17.49-5.2,3.54-9.18,8.85-13.71,13.38-5.17,5.17-10.16,10.53-15.55,15.47-9.77,8.94-18.28,18.86-30.3,25.84-10.7,6.21-17.62,18.62-27.8,26.13-6.24,4.6-12.82,8.78-19,13.69-3,2.35-10.17,0-12.32,2.54-5.48,6.33-13.59,8.07-19.33,13.35a44.93,44.93,0,0,1-13.1,8.17c-4,1.73-7.19,4.66-12,4.23-1.62-.14-3.93.14-4.89,1.18-4.86,5.24-11.33,8-16.94,11.94-8.83,6.22-14.68,17-23.86,22.33a100.08,100.08,0,0,0-24.43,20c-6.7,7.38-15,12.09-23.86,15.39-3.73,1.38-5.63,5-8.64,5.51-3.75.59-6.39,2.81-9.44,3.82-8,2.66-14.48,9.5-24.4,7.78-7.6-1.32-16.2-2.11-22.43,5.12-.38.45-1.89.36-2.65,0-4-1.85-7.84-8.24-12-.24-8.76-10-20.39-3.15-30.51-5.19-5.85-1.18-9.87-8-16.92-5.49-12.81-6.59-26.39-12.06-38.12-20.2-6.25-4.35-11.15-7.91-19.08-7.43-7.74.46-16.35,2.38-22.39-5.28l-21.77-.41c-5-8-13.78-2.65-19.62-5.51-6.56-3.2-12.52-6-19.88-5.13a7.29,7.29,0,0,1-5-1.07c-8.25-6.71-18.57-8.15-28-11.9-10.13-4-19.73-9.68-29.65-14.46-9.16-4.41-17.95-9.61-27-14.22-6.78-3.44-15.22-5-20.28-10.1-6.5-6.5-14.34-11.39-22-13.29-8.48-2.1-10-13.9-20-11.77-.51.11-1.28-1.14-2-1.71-8.81-7.27-14.41-18.58-26.81-21.33-8.4-8.4-17.4-16.31-25-25.4-4.37-5.23-11.48-4.7-15.34-9.55-5.43-6.85-15.31-10.28-16.08-20.73-6.3-6.54-12.54-13.12-18.9-19.59s-12.91-12.94-19.37-19.4c.55-10-10.21-12.14-13.31-19.17A52.69,52.69,0,0,0,125.89,889c-4.4-3.85-7.12-7.93-6-14.1a6.1,6.1,0,0,0-1.79-4.62C105.28,858,101.76,840.38,92.63,826c-3.64-5.74-5-12.72-9.38-18-4.07-5,1.9-13.1-5.69-17-1-.52-1.38-3.15-1.32-4.78a34.47,34.47,0,0,0-5.07-20c-3.22-5.42,2.4-14.48-5.31-19.65-.22-9.05-.39-18.1-.68-27.15-.2-6.11,1.37-12.41-4.87-17.39-1.83-1.46-2.05-8.72-.33-10.18,7.73-6.6,5.06-15,5.12-22.72.24-29.25.6-58.51-.24-87.73-.23-7.82,4-13.16,5.54-19.74,1.42-6-1.66-13.94,1.17-18.65,3-4.95,5.52-9.23,4.47-14.64-1.64-8.52,2.42-15.47,5.84-22.31,2.76-5.53,6.43-10.31,5.39-17.06a11.55,11.55,0,0,1,1.29-7.58c4.79-7.11,6.73-16.09,11.91-22.35,5.49-6.64-.7-17,8.61-21.28,5.59-16.08,15.69-30,21.65-45.86,1.8-4.79,5.87-6.62,8.05-10.39s3-8.62,6.05-11c5.87-4.72,8.06-11.32,11.42-17.37,2.94-5.25,3.86-11.78,9.71-15.17,5.08-2.94,2.4-10.18,7.7-13.33,8-4.74,7.65-15.54,15.39-21.15,7.3-5.3,13.07-12.71,19.58-19.13,6.27-6.19,8-15.49,15.36-21.18,6.46-5,11.77-11.46,17.59-17.27L261,226.53c5.82-5.82,11.38-11.93,17.52-17.38,8.53-7.58,14.4-18.58,26.75-21.4.35-7.17,7.38-7.82,10.92-11.64,10.44-11.26,25.55-16.52,35-28.73.56-.72,1.35-1.92,1.92-1.86,8.85.94,10.94-9.94,17.4-10.73,7.77-1,10.33-6.82,14.79-10.82,4.16-3.74,7.73-7.62,14-6.12,3.19.77,5.22-1.34,6.73-3.48,5.32-7.54,15-8.56,21.48-15,4.95-4.94,13.88-6.54,19.89-10.64,5.24-3.57,10.1-2.51,14.95-4,3.89-1.19,6.09-6.77,11.52-5.21,2.76-5.43,9.69-4.1,13.12-7.83,3.79-4.12,8.33-2.25,12.45-3.34,3.16-.83,5.65-4.46,8.79-5.08,6.74-1.34,11.6-9.11,19.62-5.69,3.82-5.29,11.31-4.21,15.54-9,1-1.14,3-1.7,4.6-2,6-1,12.46,2.08,17.7-3.82,4.22-4.75,13.06,1.81,16.73-5.9a3,3,0,0,1,2.15-1.26c9.52-.75,19.85,2.8,27.95-5.48.44-.46,1.77,0,2.68-.07,10.43-.56,21.52,2.52,30.63-5.47ZM825.2,331.79h2.45c0-.82.32-1.86-.06-2.4-1.28-1.81-2.84-4.06-4.77-.76-.26.44,1.53,2.08,10.31,9.5,0-.85.3-1.88-.06-2.52-.77-1.38-1.75-3.48-2.9-3.66-5.07-.8-1.87,3.23-2.42,5a3.76,3.76,0,0,0,3.14,5.15C831.41,342.16,832.38,339.52,825.2,331.79Zm-46.92-38.4c-2.15-8.66-7.95-11.85-22-11,1.93,0,3.84.34,5.55-.08,2.28-.57.25-4.89-4.3-5-5.89-.18-7.93-7.82-14.08-5.83a5.34,5.34,0,0,0-2.13,1.38c-.45.47-1,1.61-.79,1.84,4.2,4.76,8.24,10,21.32,7.72,2.15,8.66,7.95,11.86,16.46,11,2.15,8.66,7.94,11.86,21.49,14.16a20,20,0,0,0-2.65-3.12,1.64,1.64,0,0,0-2.32,2.32,11,11,0,0,0,3.24,2.49c.2.11,1.1-1.05-3.31-4.88C792.58,295.7,786.79,292.51,778.28,293.39ZM466.44,841.92a38.38,38.38,0,0,0,5.47,0c5.14-.76,10.83,2.15,15.41-2.44,4.33-4.32,11.08-4.24,15.35-9.51a160.63,160.63,0,0,1,21.21-21.32c7-5.9,8-15.54,15.18-21.33,3-2.44,4-7.3,6-11.07s3.07-8.35,6-11.1c5.56-5.31,9.92-10.52,7.87-18.75,6.06-4.26,6.06-10.48,5.49-16.9-.07-.9,0-1.82,0-2.73-1.55.64-3.83.86-4.53,2-1.71,2.86-.85,6.58-3.91,9.37-7.4,6.76-14.29,14.08-21.39,21.18-6.45,6.45-12.64,13.2-19.43,19.28-7.29,6.53-12.4,15.58-22,19.45s-14.6,13-22,19.43c-2.27,2-4.68,1.94-7.16,2.68-4,1.2-6,6.79-11.49,5.41-.53-.13-1.6.82-2,1.51-1.68,2.72-7,3.83-5.34,7.59a13.62,13.62,0,0,0,7.79,7c4.23,1.19,9.05.3,114.73-125.39-.6.29-1.62.46-1.73.88-.62,2.32-.88,4.74-1.51,7.06-.7,2.59.06,3.48,2.57,2.52a3.75,3.75,0,0,0,1.84-1.65C570.59,721.28,570,716.83,466.44,841.92Zm-96.52-98.74c.82,0,1.95.32,2.36-.08a2.41,2.41,0,0,0,0-2.32c-1.27-1.8-2.84-4.06-4.77-.76-.25.44,1.54,2.08,196.81-208.36,0-4.57,0-9.14,0-13.71-.05-6.37,2-14-.83-18.75a33.79,33.79,0,0,1-4.88-14.6c-.6-5.52-7.73-10.12-13.62-10.18q-6.85-.07-13.71,0c-3.64,0-7.21,4.59-5.22,7.11,3.28,4.15,3.9,10.26,7.2,13.32,7.33,6.8,10.42,14,9.28,23.86a106.87,106.87,0,0,0,.07,21.9c.27,2.94,3,5.64,4.65,8.46-8.45,7.16-3.61,16.87-4.87,25.4-.38,2.61.3,6.66-1.12,7.58-5.1,3.34-3.07,10.13-7.55,13.54-5.56,4.22-.9,11.3-5.35,17.13-6.62,8.69-8.6,20.73-17.95,28,1.38,10.33-13.1,12.25-11.92,22.48-4.85,7.38-12.78,11.78-16.94,20.37-3.75,7.75-11.6,13.52-17.69,20.12a47.57,47.57,0,0,1-5.84,5.78c-3.31,2.54-3.71,5.83-3.45,9.6.18,2.64.09,5.1-2.26,7.31-6.65,6.26-13.55,12.4-19.3,19.45s-12.73,9.17-21.36,8.36a55.9,55.9,0,0,0-13.68,0c-9.13,1.42-15.54-2.37-21.05-9.08-.94-1.15-3-1.36-4.59-2,0,2.75-1.16,6.52.2,8.05,6,6.81,12.78,13,19.27,19.38,6.32-2.3,8.56,7.08,14.12,5.31s10.09-7,17-5.48c1.17.27,3.22-1.39,4.23-2.67,6.72-8.53,17.88-10.79,25.2-19.1,13.27-15.06,28.25-28.61,42.35-42.94,4.24-4.32,8.16-8.34,10.39-14.91,2.12-6.21,9.82-10.45,14.74-15.84,1-1-.2-3.88.68-5.12,5.51-7.68,8.22-16.87,13.22-24.67,5.11-8,6-18.07,13.36-24.68-.87-10.24,5.75-17.7,9.73-26.13.37-.78,1.8-1.3,1.82-2,.17-6.38-.18-12.79.26-19.15.41-6,6.93-9.64,5.7-17C563.32,548.29,564.35,539.89,369.92,743.18ZM666.13,578.63h2.44c0-.82.33-1.86-.06-2.41-1.27-1.8-2.83-4.05-4.76-.75-.26.44,1.53,2.07,21.28,95.88V652.22c0-6.38-1.1-13,.28-19.08,1.68-7.41-5.48-10.71-5.86-16.92-.38-6,2.74-13-4.31-17.32-.63-6.11-1.21-12.24-2-18.34-.09-.71-1.11-1.58-1.88-1.88-2.68-1-2,1-3,2.47-2.51,3.66-5.56,6.29-5.34,11.61.53,12.74-.5,25.56.41,38.25.59,8.21-1.84,14-8.15,18.62-5,3.69-.12,5.37,1.58,7.75a5.53,5.53,0,0,1,.81,2.38,4.54,4.54,0,0,1,0,2.69c-2.41,4-7.9,7.87-.14,12-8.33,5.33-2.22,17.5-10.78,22.72,3.16,7.92-5.55,13.08-5.11,19.57.64,9.24-6.57,12.14-10.61,17.69a6.61,6.61,0,0,0-.63,5.1c1.9,6.32-5.39,9-5.44,14.16-.06,5.64-.11,10.84-5.58,14.15,2.35,6.35-5.76,8.44-5.65,14.11.11,5.32-7.64,7.66-5.91,13.91-5.46,2.71-5.24,8.92-7.34,13.38-2.86,6.06-6.18,12.08-9.1,18-3.41,7-10.78,12-16.37,17.87-4.78,5-10.66,9-11.95,17-.45,2.75-4.88,6.71-7.63,6.83-5.48.23-8.52,3.38-10.85,6.87-3.37,5-9.68,3.51-13.5,7.48-3.52,3.66-6.1,9.52-13.06,8.16-.4-.08-1.47,2.26-1.82,3.58-.1.38,1.21,1.64,1.89,1.65,7.28.13,14.76-1,21.81.35,8,1.48,13.32-5.38,19.65-5.29,10.31.15,18.7-3.64,26.57-8.79,4.34-2.84,10.66-2,13.36-7.48,9.61,1.27,11.74-9.75,19.73-11.86a22.54,22.54,0,0,0,16.18-16c2-8.2,13.52-10,11.74-19.81,6.21-5.33,6-14.39,10.89-20,5.21-6,2.66-14.79,6.89-18.88,6.48-6.27-.36-17.16,9.2-21.06-.35-6.34-.7-12.67,5.55-16.84,0-5.46-.21-10.94.07-16.4.25-5.14-1.42-10.33,3.74-15,4.2-3.8,1.42-10.29,1.58-15.56C685.26,693.23,685,682.29,666.13,578.63Zm203-263.3h2.45c0-.81.32-1.86-.06-2.4-1.27-1.8-2.84-4.06-4.77-.76-.26.44,1.54,2.08,98.08,220.54V510.79c-9.68-8.8-4-20.35-5.39-30.63-.59-4.49,1.8-10.94-.48-13.32-5.1-5.32-5.43-10.92-5.22-17.23-6.93-3.87-2.93-12.63-6.28-16.36-5.16-5.74-4-11.43-4.68-17.5a20.52,20.52,0,0,0-2.63-7.1c-6-11.21-11.09-22.86-17.38-33.91-2.53-4.45-2.4-10.47-7.77-13.22S911,352,907.23,348.26c-11-10.93-22-22-33-32.87a2.63,2.63,0,0,0-2.58,0c-.46.47-.19,1.75-.09,2.65.29,2.56-1,5.42,1.9,7.46,5.29,3.67,3.49,11.63,9.62,15.29s5.21,13,11.71,17c4.66,2.82,4.66,7.4,4.14,12s4.14,5.66,5.37,8.76c1.59,4-1.23,8.53,2,12.94,6.17,8.52,10.68,17.92,9.21,29.05-.1.78.13,2.06.66,2.39,6.81,4.35,6,11.6,4.42,17.15-2.33,8.48,6,12.62,5.88,19.75-.12,6.4,0,12.79,0,19.19s1.23,13.1-.31,19.1c-2,7.61,7.19,9.94,6,17-1,6.09,1,12.83-5.71,16.88,10.5,5.8-2.53,11.3-.29,17.48,1.47,4,.69,9.08.2,13.59-1.32,12.1,4.53,25.3-5.41,36.1L920,620.7c-7.74,5.27-4.75,13.31-4.25,20,.57,7.67-8.48,11.8-5.84,19.69,1,3.14-1.67,4.8-3.45,6.76-4.86,5.33,1.87,15.24-7.43,18.92-.31.13-.17,1.76,0,2.64,1.47,8.29-4.41,15.24-4.78,22.44-.37,7-7.34,10.49-6.1,16.85,1.55,8-7.08,11.9-6.84,19.15-7.77,3.58-.92,13.1-6,16.51-7.44,5-.36,14-7.25,19.39-4.09,3.23-6,10.23-7.16,15.89-.92,4.41-.63,8.64-4.7,11.87-3.56,2.82-6.34,6.6-9.81,9.54-3.68,3.13-.16,4.56,1.38,5.76,2.22,1.74,1.45,2,.14,4.11-4.17,6.64-7.33,13.86-13.7,19-3.93,3.17-9.22,6.76-1.35,11.57-4.77,3.12-4.13,9.19-7.16,13.19-5.25,6.94-13.23,11.23-16,20.87-1.54,5.38-8.57,9.14-13,13.74s-11.14,8.66-12.29,14c-1.61,7.41-7.27,10-11.08,14.68a98,98,0,0,1-11.58,11.65c-4.53,4-11,4.47-15.32,9.57-6.23,7.3-12.6,15.06-22.72,17.61-4.08,6.26-12.72,7.08-16.66,12-5.5,6.85-14.75,6.3-19.61,12.93-8.87-1.21-10.56,9.82-17.42,10.66-6.5.8-8.63,5.94-12.81,9l-18.7,7.79a8.84,8.84,0,0,0-9.4,3.81c-4,5.41-9.25,7.07-16.16,7.63-5.52.46-10.14,6.83-16.95,5-4.94,6.35-12.6,5-19.14,6.74-3.77,8.53-13.46,1.15-19,7.47-5.21,5.91-13.77,1.57-20.8,2.07-10.08.73-10.12.22-22.38,5.66-5.31,2.36-6.91,6.32-3.69,9.61q10.55,10.77,21.35,21.27a7.79,7.79,0,0,0,4.62,2c4.55.25,9.13.09,13.69.09,4,7.22,7.62,1,12,.49,11.7-1.45,23.69-.44,35.57-.52,4.49,0,10.8,1.44,13.12-.9,7.08-7.16,15.3-3.67,23-4.45,5.42-.55,11,.17,16.42-.24a11.91,11.91,0,0,0,7-2.81c5.33-5.18,15,.7,18.82-7.64,7.54,1.51,13.44-5.36,19.48-5.24,9.42.18,15.44-9.93,25-6.37,3.84-7,11.65-3.34,16.59-6.14,5.36-3,9.23-8.71,13.76-13.23,5.81-5.82,11.7-11.56,17.42-17.46a158.13,158.13,0,0,0,18.08-22.49c5.71-8.56,9.57-19.22,18.79-25.21,8.71-5.65,10.64-15.85,16.5-23.39,1.49-1.91,1.24-5.86,2.95-6.81,7.72-4.36,7.11-14.2,13.44-19.26-1.82-10.46,13.3-12.2,11.62-22.59,6.23-5.36,6.56-13.87,10.68-20.19,4.23-6.49,9.62-13.44,10.07-20.3.49-7.62,7.5-12.13,6.37-19.53,8.75-3.69,3.75-12.81,7.46-18.89a243.62,243.62,0,0,0,16.07-31.66c1.31-3.09,4.67-5.47,3.67-9.41-2.47-9.73,4.5-16.4,7.8-24.2,1-2.29,4.24-3.88,3.14-6.87-2.68-7.25,6.64-10.64,5.41-16.91-1.56-8,7.26-11.88,6.79-19.2,8.15-4.58.6-16.2,9.47-21,1.56-.85.31-6.88.34-10.51s-1.52-9.21.26-10.64c8.06-6.47,4.24-15,5.41-22.64,9.07-6.87,4-16.72,5.3-25.21.14-.85,0-2.14.54-2.47,7.83-5.15,5.77-13.4,4.54-19.85-1.58-8.29,6.63-11.69,6.44-19.74-.34-14.75-5-30.53,4.94-44.3C964.78,545.5,964.78,539.11,869.08,315.33Zm-5.63,669.26c8.31-8.37,16.47-17,25.13-25.08,2.31-2.16,6.52-2.18,9.14-4.14,3.62-2.71,8-5.77,9.53-9.67,5.51-14.12,18.37-21.65,27.33-32.59,4.49-5.49,12.15-8.38,13.71-16.22s9.49-10.51,13.52-16.35c1-1.42,2.85-2.85,2.82-4.25-.17-7.82,9.2-9.43,10.25-14.9,1.17-6.11,4.39-9.68,8.34-13,4.9-4.18,3.21-12,9.53-15.43a9.81,9.81,0,0,0,5.21-8.8c0-2.11,3-4.11,4.55-6.24,2-2.81,6.45-4.09,6.09-8.41-.48-5.74,8-7.8,5.56-14.18,3.59-2.92,4.75-6.82,6.25-11.15,1.63-4.69,8.11-7.67,9.78-12.35s-.44-10.87,5.3-14.29c-.54-6.24,4-9.46,7.72-13.27,1.8-1.84,4.67-3.17,3.85-6.62-2.11-8.85,6.1-13.92,7.94-21.41,1.62-6.58,7.4-11.57,8.39-18.41.87-6-.61-11.8,4.63-17.53,3.44-3.77-.74-12.54,6.25-16.39.13-6.21-.88-12.8,5.7-16.83,0-5.48.9-11.17-.23-16.4-1.42-6.56,5.73-8.49,5.9-14.23.32-10.38-3.6-21.69,5.3-30.64,0-9.14-1.53-18.62.41-27.33,2.08-9.3,5.82-18,5.27-28-.78-14.58-.2-29.24-.2-43.86,0-2.74,1.16-6.43-.18-8.08-10.56-12.94-3.36-27.9-5.19-41.77-.71-5.39,0-11-.18-16.44,0-1.64-.36-4-1.44-4.76-5.94-3.89-4.64-10-3.69-14.85,1.3-6.61-5.73-8.64-5.91-14.23-.2-6,2.18-12.37-3.74-17.7-4.58-4.12,1.82-13.05-6-16.62-1.46-10.37-.29-21.75-11.54-28.26-.88-.5-.63-3.37-.52-5.12.24-3.74-1.13-6.47-3.21-9.71-4.07-6.36-6.67-13.64-9.95-20.51s-5.86-14.44-10.1-20.37c-4.54-6.34-9.84-12.16-13.14-19.36-1.4-3.07-1.71-7.45-4-9.16-11.87-8.7-15.89-23.48-26.84-33-11.69-10.18-22.14-21.8-33.12-32.79-1.94-1.93-3.69-5.27-5.85-5.57-10.12-1.4-15-9.57-20.74-16-6.12-6.82-16.69-6.78-21.24-15.3-3.65-6.85-11.4-7.76-17.11-11.63-4.24-2.88-9.38-3.4-13.46-7.55C868.9,107.3,852.87,106,841.62,96.38c-1.09-.92-3.6-.82-5.23-.37-7.77,2.16-13.2-3.6-19.76-5.26-5.15-1.29-7.67-8.09-14.12-5.84-6.89,2.41-9.51-8.4-17-5.54-5.21,2-7.22-5-11.41-5.23-9.11-.5-18.37-1-27.39.06-10.19,1.2-17.44-8.22-28-6-7,1.48-14.56.28-21.87.28-6.4,0-12.9.7-19.18-.18-7.67-1.08-13.25,3.62-19.8,5.22a54,54,0,0,1-24.48.06c-9.24-2.2-14.38,6.23-22.5,6-5.09-.14-10.73-2.11-15,3.64-3.51,4.77-10.87-1.32-14.69,4-3.3,4.59-8.21,2.35-12.38,3.33-4.9,1.15-8,6.74-14.24,5.47s-9.54,6.68-16.95,5.92c-5.12-.53-11.21,3.56-16,6.83-3.12,2.12-5.61,4.28-9.55,3.58l-18.7,7.82c-3.88,8-14,7.23-19.05,13.57-7-2-9.69,8-16.7,6-4,6.45-13.15,4.84-17.39,11-5.55-1.18-8.61,2.84-10.95,6.37-3.37,5.07-9.77,3.51-13.5,7.57-3.5,3.82-10.49,2.27-13.15,7.83-3.06,6.38-10.93,4.85-15.32,9.57-5.32,5.7-10.37,11.36-18.75,14.2-7.9,2.68-10.48,14-21.09,15.54-4.36.66-8.61,6.73-11.52,11.23-3.82,5.9-12.44,2.9-15.41,9.55-1.73,3.87-3.84,7.55-5.78,11.32-6.89-1.64-9.46,4.27-13.18,7.82-5.9,5.64-11.39,11.7-17.05,17.58,1.94,9.69-14.38,6.43-11.77,16.6Q258.3,300.5,243.75,315c-3.86,3.83-7.85,7.52-11.78,11.27-11.8-1.06-6.23,8.05-7.8,13.07-.49,1.56-2.13,2.81-3.36,4.08-3.19,3.27-6.86,6.17-9.56,9.8-2.5,3.35-3.14,8.45-6.12,11-5.64,4.83-6.9,13-11.82,16.88-6.88,5.5-6.27,14.78-12.92,19.63,1.17,8.85-9.82,10.56-10.67,17.44-.8,6.49-7.12,8.22-8.74,12.9-2.5,7.2-10.19,12.58-7.92,21.35.49,1.88-2.86,6,2.66,5.5,2.57-.25,5.47,1.05,7.46-1.92s5.76-5.53,5.89-8.41c.26-5.73,8.19-7.82,5.83-14.17,3.84-3.89,7.66-7.8,11.51-11.68,3.22-3.25,6.94-6.12,9.58-9.78,3.42-4.76,9.77-2.84,13.57-7.5a179.27,179.27,0,0,1,21.21-21.39c7.92-6.89,12.77-17.81,24.78-19.5,6.95-6.74,13.38-13.64,22.74-17.9,6.23-2.83,11-9.52,15.59-15.17,5.22-6.41,13-8.8,19.07-13.61,5.69-4.51,9.77-11.31,15.82-15.06s13.35-5.74,16.7-12.07c3.92-7.4,12.69-5.9,17.45-11.42,2.77-3.2,5.66-6.05,10.65-7.4,4.63-1.25,7.65-8.1,12.33-9.7,4.35-1.5,8.23-2.68,11.15-6.26,6.39,2.48,9.1-4.31,14-6,6.46-2.18,13.27-3.82,19.27-6.35a146.1,146.1,0,0,0,18-9.5c5-3,12.52-3.49,15.76-7.59,5.44-6.89,13.67-.68,19.56-7,5.62-6,17.94,2,24.07-7.46,10.35,3.52,18.4-4.65,27.89-5.49,13.05-1.14,27,3.73,38.86-5.48,35.65,0,71.3-.18,107,.27,3.73.05,6,5.52,11.44,5.49,9.8-.07,20.84-3.67,29.2,1.82,9.76,6.42,19.44,1.33,28.85,3.44a24.84,24.84,0,0,1,4.66,2c8.46,3.92,15.91,10.58,26.15,9.69a10.69,10.69,0,0,0,11.73,4.69c5.46-1.2,6.83,5.47,11.45,5.53,6.23.09,9.71,8.23,16.95,5.56,3.21-1.18,4.62,2,6.7,3.58,3.46,2.59,6.46,5.5,10.41,7.79,10.31,6,19.45,14,31.24,17.45,4.41,7.25,13.24,8.36,19,13.64,6.73,6.17,13,12.81,19.44,19.34,5.51,5.63,12.48,10.25,13.59,19,8.35,4.65,8.66,15.25,15.52,21A75.7,75.7,0,0,1,961,374.68c6.09,3.69,1.3,11.32,4.27,14.47,4,4.19,3.4,10.42,7.49,13.45,6.21,4.59-.57,12.85,5.69,16.95s-.46,12.29,5.69,16.95c5.82,4.39-1,14.92,7.88,18.56,1.11,6.09-2.56,13.4,2.14,18.2,6.4,6.52,2.15,13.82,3.42,20.62,2.4,12.86-5,27.13,5.55,38.85-.17,5.41,1.12,11.49-.95,16-1.78,3.89-4.85,6.85-4.65,11.86.4,10-.51,20.15.29,30.14s-2.26,18.84-5.42,28c-1.41,4.09-.8,9.15-.09,13.61.86,5.49-5.9,6.73-5.59,11.46.37,5.63.1,10.89-5.42,14.23,1.72,1.94,4.88,4,4.77,5.79-.11,2.11-4.4,3.92-4.64,6.1-.68,6.32,1.3,13.3-.65,19-2.13,6.21-4.28,13.17-9.79,17.89-.22.19.07,1.56.48,1.83,6.35,4.12,1.89,6.83-1.19,9.74,2.35,6.37-6.41,8.51-5.48,14.15,1,6-3,9.65-5.16,14.37-2,4.45-.93,9.61-4.3,14.79s-1.71,13.54-7.06,18.88c3.5,8.78-6.61,13.69-6.08,22.45.38,6.12-7.4,11.86-4.89,19.63-6.65,3.91-5.26,12.89-11,17.39,1.42,6.7-2.11,11.65-5.35,17-3.5,5.76-5.61,12.34-9,18.17-2.57,4.43-2.15,10.59-7.6,13.33,2.71,7.22-8.37,9.62-5.86,16.77-5.64,3.37-5.24,8.83-5.24,14.34,0,1.46-1.4,3.14-2.55,4.35-14.47,15.29-18.21,36.63-30.07,53.43-1.37,1.94,0,5.25-707.76-517,.85-2.55,0-3.47-2.54-2.51a3.32,3.32,0,0,0-1.81,1.66,10.17,10.17,0,0,0-1,4.62c.19,1.47,1.39,2.79,2.15,4.18,1.07-.94,2.66-1.71,3.08-2.88C153.37,464.05,153,462.21,863.45,984.59ZM312,744c0-.86.3-1.88-.06-2.52-.77-1.38-1.75-3.48-2.89-3.66-5.08-.81-1.88,3.23-2.42,5a3.75,3.75,0,0,0,3.13,5.15c.53.08,1.49-2.56,545.28-191.62V534.43c0-8.22-1.13-16.65.32-24.62,1.47-8.13-4.39-13.11-5.61-19.76-1-5.31-1.26-11.21.06-16.35,1.92-7.44-6.94-10.69-5.6-17,2.06-9.64-4.26-16.61-7.14-24.57-1.09-3-3.47-5.5-4.33-9.23s-4.22-6.95-5.75-11.3c-1.91-5.44-8.43-9.24-12.87-13.83-4.24-4.4-4.41-11-9.52-15.38a261.14,261.14,0,0,1-27.16-27.09c-6-6.95-16.26-7.07-21.42-15.2-1.48-2.33-6.38-2.21-9-4.13-11.83-8.52-25.89-12.76-38.3-20.31-7.06-4.29-15.42-6.86-22.66-11.34-9.34,2.56-15.4-8.78-25.24-5.8-2.61.79-4.16-5-8.59-5.35-8.56-.58-18.39,3.89-25.17-5.3-5.48,0-11-.4-16.44.1-6.61.61-11.55-1.93-17.19-5.13-4.16-2.35-10.78-1-16.18-.35-13,1.63-27.13-5-38.88,5.38-9.61.26-19.16-1.19-28.15,5.12-3.76,2.63-12.05-.74-15.28,2.07-5,4.37-10.13,4.49-15,3.51-6.6-1.33-8.75,6.21-14.23,5.68-5.87-.56-10.6.68-14.11,5.84-2.68,3.94-6.44,5.38-11.52,5.41-7,0-11.81,6.49-18.46,8.2-3.92,7.95-13.93,7.31-19.07,13.54-10-2.41-11.15,10.38-20.07,11.51-5.26.67-9.38,8.76-14.81,10-11.21,2.58-13.21,17.45-25.83,17.55-2.81,0-1.18,5.29-2.51,6.84-5.9,6.89-14.21,12.27-18.34,20-4.33,8-9.36,15-16.1,20.61-10.63,8.76-12.23,22.7-20.22,32.84,2.6,8.75-3.8,13.1-8.69,18.38-3.47,3.76-2.55,10.09-7.51,13.49-.85.58,7.09,2.37,3,7.54-2.57,3.27-4.07,7.4-5.9,11.22-1.1,2.28-2.49,4.63-2.75,7-.69,6.22-.81,12.5-1.16,18.75-7.08,4.36-4,11.38-4.35,17.37a127.91,127.91,0,0,0,0,19.18c.44,5.18-2.14,8.2-5.17,11.72-1.3,1.51-1.28,5,1.21,7.3,1.89,1.73,4.16,3.15,3.94,6.61a127.91,127.91,0,0,0,0,19.18c.61,6.85-2.43,14,3.59,20.54,4.38,4.78,1.11,12.16,1.77,18.34.19,1.76-.35,4.61.53,5.13,5.25,3.09,3.46,10.17,7.72,13.32,6,4.46,1.15,11.5,5.18,17.28s10.35,12.21,8.5,21c-.71,3.38,1.93,4.79,3.72,6.69,3.6,3.83,8,6.86,8,13.25,0,1.94,3.44,4.06,5.57,5.75,1.27,1,3.07,1.36,4.63,2v-2.78l0-11c-9.61-3.89-1.53-16.09-9.69-20.66-.42-6.23-1.61-12.52-1.05-18.66.62-6.81-7.57-9.39-6.11-17,1.23-6.45,3.31-14.71-4.47-19.83-.2-7.24-1.17-14.55-.38-21.67.84-7.67-6.73-11.71-6.07-19.72,1.27-15.44.8-31.07.2-46.59-.32-8.27,8.46-13.16,6.06-22.51-2-7.72-.41-16.35-.4-24.58a7.25,7.25,0,0,1,.12-2.69c.34-.78,1.39-1.22,1.85-2,3-5.13,7-10,8.7-15.56,1.51-4.86-1-11,4.9-14.46-1.54-6.92,7.73-9.69,6.37-16.55,6-6.37,7.8-15.31,14.77-21.44,13.85-12.17,25.05-27.37,44-33.06,5.4-1.62,7.43-10.51,15.27-9.39,3.88-6.89,10.72-5.23,16.79-5.81,5-8,13.7-2.78,19.61-5.56,6.56-3.08,12.48-6.06,19.87-5.08,16.57,2.18,34.2-5.24,49.83,5.5H511.4c6.13,7.28,14.6,6,22.39,5.29,7.58-.67,11.83,8.2,19.72,5.83,1.24-.37,3.73.75,4.5,1.93,3.21,4.94,9.55,3.25,13.7,7.34,3.89,3.83,10.81,4.42,16,7.14,6,3.15,11.38,9.13,17.62,10.12,7.46,1.17,9.82,7.89,15.22,9.89,7,2.6,11.89,7.12,17.1,11.85,2.35,2.13,8.59,0,8.64,4.13.1,7.85,5.95,11.22,10.52,14.78,5.43,4.23,5.37,10.84,9.36,15.55,6.78,8,17.86,12.74,19.52,24.77,9.32,6.07,10.08,18.81,19.39,24.87,3,1.93,1.55,4.9,1.85,7.46s-1.12,5.79,2,7.35c4.87,2.4,1.85,8.61,5.79,11.35,4.64,3.23,1.29,9.13,3.41,12.22,7.59,11,11,23.16,12.1,36.2,9.6,6.39-1.66,20.25,9.41,26.48,1.18.66.16,5.21.16,7.95,0,27.42-.6,54.86.38,82.25.28,7.92-6.88,12.07-6.06,19.7.77,7.16.1,14.5-.42,21.72-.1,1.38-3.5,2.58-3.53,3.9-.18,8-6,14.56-6.41,21.95s-1.57,13.78-5.9,19.64c2.42,8.82-4.42,12.92-9.13,18.19-1,1.17-2,3.25-1.72,4.66,1.7,8.88-6.39,13.88-8.13,21.41-1.86,8.05-7.67,13.63-13.47,19.09-2,1.87-5.54,3.86-5.55,5.8-.05,10-8.88,13.14-14,18.89-4.54,5.07-8.12,12.49-16.93,11.81a64.87,64.87,0,0,1-18.87,14c-4.57,2.22-9.07.49-12.75,2.34-3.86,1.94-6.63,6-10.1,8.84a8.34,8.34,0,0,1-4.68,1.8c-6.37.24-12.76.16-19.14.2-4.93,7.82-12.81,5-19.72,5.3-6.38.29-12.79.06-19.19.06H528.06c-6.39,0-12.83.41-19.18-.13-5.08-.42-7.9-7.17-14.21-5.42-6.66,1.85-11.8-1.93-16.91-5.42-8.8,2.63-13.38-3.66-18.18-8.94-2.29-2.52-4.87-1.67-7.43-2.07s-6.32-.32-7.28-1.87c-4.58-7.4-13.85-7.61-19.28-13.43-9.14.18-12.43-9-19.61-12.22-8.62-3.84-18.09-6.61-24-14.93-10.44-.45-14.05-13.22-24.54-13.57-5.82-5.82-10.92-12.73-17.66-17.14s-13.48-7.9-18.91-13.84a193.88,193.88,0,0,0-15.53-15.48c-5.47-4.77-5.1-12.83-11.4-17.43a79.63,79.63,0,0,1-17.38-17.39c-4.91-6.78-7.8-15-11.94-22.4-2.49-4.45-2.18-10.59-7.69-13.27s-5-8.93-7.55-13.36c-3.46-6.08-6.61-12-11.58-17.25-3.88-4.11-7.92-10.59-7.53-15.68.73-9.52-9.79-15.48-6.29-25.07-8-5-3-13.6-5.61-19.61-2.9-6.55-6.06-12.4-5.2-19.86.39-3.44.84-8.51-1.09-10.27-4.91-4.48-3.06-7,.87-10-10-9.79-4.21-22.13-4.9-33.25-1-15.48-.19-31.07-.33-46.6,0-1.57-1.21-3.13-1.85-4.69a25.84,25.84,0,0,0-3.85,2.28c-6.28,5.3-9,13.16-10.13,20.33-1,6.09-3.13,10.26-7.43,13.44-5.34,4-3.14,12.25-9.53,15.29,7.52,4,.81,7.79.49,12-.51,6.56-3.61,11.38-5.67,17-2.31,6.29,2.55,14.67-5.26,19.78-.19,7.23-1.48,14.66-.24,21.64,1.09,6.08-10.53,11.65-.33,17.45,0,9.14,1.57,18.64-.41,27.33-2.3,10.07,7.81,15.77,6.2,25.3-.83,4.85-2.65,11.05,2.1,15.37,5.88,5.32,1.83,12,3.16,17.94.36,1.57,2.14,2.82,2.53,4.4,1.65,6.71,5.63,12.56,8.82,18.24C193,789.72,197.14,803,205.09,813.9c4.11,5.64,7.68,11.46,11.5,17.23a55.08,55.08,0,0,0,13.47,13.56c6.16,4.5,5.83,12.35,11.3,17.5,19.29,18.17,37.7,37.27,56.45,56,3.13,3.12,5.71,7.33,11.23,6,6.36,8.94,18.18,10.76,25,19.19,5.65,7,13.61,11,21.82,13.38,5.08,1.47,7.73,8,14,6,2.67,5.56,9.65,4,13.17,7.82,3.71,4,9.67,3,13.61,7.43,3.24,3.64,10.81-1.65,14.53,4.15,1.43,2.23,2.83,2.69,3.83.77.76-1.48,1.78-3.92,1.14-4.85-4.42-6.35-5.4-14.88-12.23-19.64-5.38-3.75-3.82-11.45-9.29-15.61-1.76-1.34-.32-7-.27-10.61s5.24-12.9,7.87-13.07c6.13-.41,12.95-2.69,18.24,1.29,5.79,4.35,9.77,11.31,15.83,15,8.47,5.22,5.31,14.64,9.66,20.85,5.43,7.76,6.15,18,13.43,24.64,1.26,13.11,9.84,15.6,20.95,14.51,2.75-.27,4.91.63,7.23,2.5,6.15,4.94,14.58,5,19.88,1.42s9.71-3.73,15-3.93c.91,0,1.82,0,2.74,0h46.62c5.14-6.91,12.65-5.19,19.66-5.53,6.09-.3,9.73-8.12,17-5.6,1.18.41,3.09-1.11,4.6-1.86,14.41-7.14,28.22-15.48,43.27-21.32,2.15-5.09,8.15-2.75,11.29-5.83,5.87-5.76,12.59-11,17.21-17.61,5-7.21,13.87-7.42,19.4-13.32,9.38-10,18.85-20,29.12-29,10.85-9.56,14.74-24.59,27-32.78a25.63,25.63,0,0,1,9.64-15.24c1.28-1,2.89-3,2.69-4.23-1-6,5.18-8.53,6.35-14.07,1.11-5.27,7.77-9.58,12.42-13.85,3.06-2.81,3.62-5.9,3.37-9.64-.18-2.67-.16-5.21,2.33-7.28,7.64-6.34,9.25-16.65,14.66-23.87,6.41-8.56,1.71-22.51,14.4-27.28,1-.35,1.42-3.09,1.42-4.72,0-7.12.77-13.36,5-20,3.37-5.22-1.21-13.31,4.82-20,4.85-5.4-2.81-16.34,6.22-21.91.14-5.43,1.25-11,.19-16.23-1.35-6.55,5.38-8.84,5.79-14.22.81-10.71-3.75-22.52,2.15-31.92,6.15-9.78,2.17-19.36,3-28.91C855.83,578.38,855.07,567.34,312,744ZM103.59,678.22c0,5.49-2.13,12.4.41,16.18,6.7,9.94,4.55,20.46,5.11,30.91.09,1.71,0,4.28,1,5,6.84,4.6,3.75,11.47,4.45,17.46.41,3.48-.45,8.52,1.52,10.14,5.34,4.44,1.7,11.3,4.39,14.67a22.06,22.06,0,0,1,5.06,17.26c6.84,3.9,5.33,10.69,5.81,16.79,6.74,2.82,3.35,12.11,9.69,15.18,2.38,10,9.68,17.81,12.22,27.89,1,3.82,6.69,6.1,5.23,11.5,3.12,1.29,6.35,2.37,9.34,3.92,6.05,3.16,5.77,10.62,9.79,15.07,5.52,6.09,11.56,11.7,17.38,17.52l17.45,17.45c6.46,6.46,12.89,13,19.4,19.38,5.82,5.75,11.71,11.43,17.57,17.13,9.7,0,12.47,9.48,18.94,13.89a16.48,16.48,0,0,0,4.43,2.52c15.09,4.29,25,18,40.27,21.93,7.09,1.82,8.47,12.3,17.38,11,4.38,9,15.7,1.89,20.93,9.1,2.68,3.7,6.83,1.89,10.16,1.7,5.17-.29,6.09,7.19,11.44,5.61a26.84,26.84,0,0,0,4.52-2.32,7.87,7.87,0,0,0-1.21-1.91c-2.68-2.28-5.13-5.39-8.26-6.46-4-1.37-8.58.8-12.55-3.08-2.89-2.84-7.52-3.8-11.09-6.06-4.33-2.74-10.73-2.12-13.24-7.71-3-6.65-10.82-4.84-15.63-9.23-3.37-3.07-9.92-3.52-12.72-8.27-3.13-5.31-9.67-3.29-13.5-7.56-7.92-8.83-17.32-16.38-24.87-25.49s-19.6-11.66-27.28-20.94c-9.85-11.93-21.7-22.21-32.69-33.19-5.81-5.82-12.32-11.12-17.21-17.63-3.43-4.57-4.29-11-7-16.21-1.58-3.08-4.59-5.4-6.81-8.17-4.88-6.1-7.66-13.42-13.24-19.37s-5.31-16.18-12-22.28c.37-8.58-2.69-15.48-9.63-20.76a6.73,6.73,0,0,1-2-4.56c-.27-4.55,1.73-10.63-.51-13.37-3.78-4.61-5.77-8.8-5.08-14.51.59-5-6.48-6-5.62-11.46.7-4.46,0-9.13.18-13.69.3-7.19-9.33-11.54-5.52-19.67q0-37,0-74c0-5.37-.09-10.16,4.41-14.83,2.35-2.44.7-8.6,1.12-13.06.52-5.58-4.47-7.37-7.13-10.76a2,2,0,0,0-1.86-.39c-.77.4-1.78,1.15-1.9,1.89-1.58,9.34,4.12,20.13-5.6,27.86q0,16.46,0,32.9c0,1.79.52,4.61-.37,5.21C100.93,663.52,104.34,671.37,103.59,678.22ZM474.75,518.75c-8.85,4.18-11.84,16-23.12,16.47-.88,0-2.53,2.9-2.32,4.22,1.12,7.12-2,12.08-7.29,16.16l-9.31,18c2.85,7.14-5.59,10.61-5.48,16.83.13,7.08-.22,13.48-5.06,19.88-2.67,3.53-.94,10.38-1.19,15.73-7.65,5.18-4.06,13.06-4.58,19.88-.09,1.21,1.81,2.57,2.78,3.86a11.33,11.33,0,0,1,1.95-1.91c5.05-3,4.46-9.93,7.95-12.89,6.38-5.42,7.47-14.15,13.37-19.09,7-5.89,7.92-15.3,14.9-21.5,6-5.33,7-15.24,12-22,3.89-5.22-1.79-13.12,5.57-16.88a3,3,0,0,0,1.55-2,101.62,101.62,0,0,0,0-13.63C475.78,532.86,478.77,525.51,474.75,518.75ZM350.43,646.3v16.45c10.18,10.77,3.63,24.08,5.47,36.11.13.9-.36,2.17.09,2.67a9.33,9.33,0,0,0,3.53,2.32c.35.13,1.8-1.18,1.8-1.83q.14-41.13.08-82.26c0-3.65-1.56-9,.26-10.68,9.07-8.4,4.18-18.6,4.81-28,0-.6-1.11-1.52-1.89-1.84-.43-.18-1.78.51-1.82.89-.54,5.3,0,10.93-1.61,15.83-1.88,5.64-6.49,10.13-5.42,17,.66,4.29,1.26,10.71-1.12,12.92C347.81,632.18,351.39,639.49,350.43,646.3ZM414,1066.81a100.13,100.13,0,0,0-11,.17c-.92.1-1.78,2.12-2.3,3.41-.13.33,1.4,1.91,1.77,1.78,6.39-2.26,8.47,6.41,14.06,5.56,5.88-.89,9.55,3,14.25,5.12,6,2.72,13.45-1.62,20.16,4.24,4.67,4.09,13.81.41,18.88,7,.43.57,4.79-1.2,6.61-2.73.9-.75.88-4,0-5.15-2.12-2.89-5.14-5.09-7.48-7.84-3.69-4.34-7.64-6.78-13.87-6.2-8.09.74-17,2.17-24.23-.46C425.23,1069.6,420.42,1065.69,414,1066.81Zm-22.29-43.88a36.51,36.51,0,0,0,5.34-.08c.71-.11,1.91-1.38,1.79-1.77-.41-1.3-1.22-3.38-2.06-3.47a66.79,66.79,0,0,0-10.68-.08c-.66,0-1.91,1.38-1.78,1.77.41,1.3,1.07,3.09,2.1,3.48C388,1023.36,389.92,1022.93,391.7,1022.93ZM729,271.49l4.57-1.9a24.22,24.22,0,0,0-2-3.69,36.28,36.28,0,0,0-3.69-3.75c-.57-.54-1.24-1-1.86-1.46-.84,1.4-2.26,2.74-2.42,4.23C723.11,268.74,724.24,271.76,729,271.49Zm-12.88-6.39,1.87-1.88c-.62-.62-1.15-1.56-1.89-1.8-1.58-.51-3.37-1.12-4.89-.81s-2.8,1.7-4.19,2.61c1.39.92,2.68,2.31,4.19,2.61S714.42,265.39,716.07,265.1ZM213.3,511.48q-1.37-2.09-2.75-4.16c-.91,1.39-2.69,2.87-2.55,4.14.26,2.34,1.64,4.56,2.55,6.83Zm-83.07,70.68c-.64-1.15-1.3-2.34-1.95-3.53-.61.61-1.82,1.35-1.72,1.8a17.27,17.27,0,0,0,1.72,3.68Z"/></svg>