<svg id="Layer_1" data-name="Layer 1" xmlns="http://www.w3.org/2000/svg" viewBox="0 0 1200 1200"><title>BB_Artboard 93</title><path d="M489.72,965c-4.15-.7-8.75,1.48-12.66-1.75a15.53,15.53,0,0,0-8.2-3.32c-7.84-.45-15.78.15-23.63-.24-9.76-.48-19.94,2.05-29.25-2.07-13.82-6.12-29.7-9.8-39.85-20.29a59.85,59.85,0,0,0-7.12-5.57c-6-4.49-19.28-2-20.84,4.39-1.24,5,2.07,11.58-1,15.29-3.77,4.56-6.67,8.34-6.26,13.83.44,6,2.08,12.83-.71,18s-10.42,8.86-15.92,13.19c-5.63-4.34-12-7.86-10.49-15.24,1-5.1-.22-10.46.39-15.64.26-2.25,2.41-4.45,4.09-6.48,3.95-4.74,4.91-10.33-.08-13.92-5.24-3.79-4.08-9.18-8.67-13.26-3.48-3.1-.07-10.3-2.66-14.62-4.43-7.35-7.37-15.76-17-20.72-4.83-2.49-.18-3.86,1.38-5.51a19.27,19.27,0,0,1,2.37-1.86c-4.15-2.64-8-5.71-12.64-7.66-1.37-.58-7.17,2-7.21,3.14-.49,15.67-.26,31.36-.36,47,0,6.9-.42,13.8-.65,20.69-9.64,4.86-4,12.7-6.48,18.87-1.43,3.61-6.58,6.5-10.6,9.23-1.15.79-5.16.55-6.23-.36-4.25-3.62-10.92-5.78-10.09-12.49.74-6,1.59-11,6.4-16.45,4.27-4.89-3.11-13.65,5.73-19,.55-5.92,1.09-11.84,1.68-17.76.91-9.06-3.43-18.78,6.51-26.76,1.69-1.36.24-5,.24-7.67q0-40.51,0-81c0-5.1,1-10.25-5.62-14-1.34-.76-.95-5.1.56-6.71,2.55-2.71,6.5-4.41.89-7.63-1.45-.83-2.1-2.8-2.54-4.34-2.59-9,3.67-18.2-4.22-27.5-6.77-8-1.89-18.48-2.4-27.84-.21-3.81-3.58-6.06-4.82-8.94-3.28-7.66-12.35-14.13-8.93-23.32.29-.81.49-2,0-2.57-6.57-7.4-11.11-15.56-15.41-23.83a2.94,2.94,0,0,0-2.27-.42c-1,.37-2.46,1.33-2.31,1.75,2.6,7.38-3.77,12.67-6.87,18.77-2.67,5.25-9.66,9.46-6.87,16.1-6.31,8.68-10.82,18.63-22.41,24-4,1.84-11.37,2-15.45.34-5.72-2.31-10.21-6.79-14.37-10.86-1.75-1.71-1.77-4.76-1.76-7.2,0-7.5-.56-14.54,6-21.7,4.32-4.69-2.95-13.73,6.54-18.67.28-6.88.7-13.76.78-20.64,0-3.06,1.62-7.92-3.86-7.92-3.18,0-6.59,4.34-9.52,7C129.6,646.78,121.84,649,103.53,643c-14-4.56-22.46-13.26-32.81-20.66-.56-.41-.33-1.74,0-2.55,3.2-8.93-11.54-14.68-6.93-24,1.79-3.64-1.88-6.16-4.8-8.91-1.6-1.51-2.17-5.64-.77-6.73,4.26-3.31,6-6.67,5.86-11.36-.23-6.83.63-13.68,1-20.52,9.55-5,4.39-12.64,5.57-19.13,9.8-4,4-12.78,9-18,2.8-2.92,5.83-5.37,4.45-9.05-2.8-7.45,2.9-13,7-18.68,3.65-5,11.82-9.12,12.58-14.11.95-6.21,5.57-10.74,7.09-16.14,1.66-5.9,7.39-8.35,11.75-11.92,3.85-3.15-.49-11.87,11-9.84a4.45,4.45,0,0,0,2.73-1.06c6.42-4.89,12.38-10.2,19.26-14.65,5.63-3.64,12.59-6,18.51-9.43s7.12-12.32,2.18-15.83c-5.58-4-9.21-11.1-17.56-11-17.81.18-22.75-12.42-33.93-18.7,0-4.36-.48-8.75.12-13.06.7-5-3.23-10.69,2.49-14.8s5.13-10.57,11.52-14.84c9-6,7.65-11.79-2.5-15.83-5.54-2.21-11.62-3.66-16.64-6.71-15.2,1.83-25.69-7.05-38-11-13.25-4.3-26.18-10-39.15-15.19-3.76-1.52-7-3.9-10.23-6.11s-3.1-6.1.38-8.86c3.78-3,6.86-6.79,13.75-6,4.4.52,9,0,13.49.11,7.74.1,14.66.22,21.33-4.87,3.6-2.75,13.11,1.73,18-4,.9-1.06,4.1-1.87,5.74-1.49,10.7,2.47,16.59-7.85,27.72-5.58,10.23,2.08,19.63-.49,26.14-7.73,1.09-1.21,4.19-2.74,5.24-2.34,10.37,3.88,15.08-6.4,24.35-5.52,6.66.63,14-1.07,20.14.4,9.48,2.25,11.67-7.48,21.05-5.83,8.56,1.51,17.92.32,26.93.32,7.88,0,15.8.39,23.63-.11,7.33-.46,12-6.92,20.93-5.34,6.42,1.14,13.44.22,20.2.22,7.88,0,15.76,0,23.65,0,2.2,0,5.88.38,6.36-.38,5.07-7.91,16.83-2.34,23.42-7.2,2.11-1.55,5.55-2.25,8.55-2.81,11.22-2.12,12.63-2.16,11.4-10.7-1.11-7.67,8.28-11.7,7.77-18.59,9.69-4.82,5-12.44,6.23-18.93.72-3.67-10.83-4.82-3.05-9.7,5.35-3.36,1.78-8.12,3.14-12.08.45-1.3,2.69-2.87,4.41-3.14a46.57,46.57,0,0,1,10.09-.1c5.87.4,10.48-.65,14.71-4.28a273.18,273.18,0,0,1,23.87-18.47c6.34-4.33,15.63-5.1,21.22-11,5.23-5.57,12-10.5,19-14.79,8.2-5,18.35-7.68,27.78-11.12,10.39-3.79,19.65-10.64,32.69-8.33,25.16-10.1,52.25-2.92,78.25-5.36,9.44-.88,14.59,8,24.25,5.36l20.84,5.23c1.11,0,2.61-.3,3.28.13,6.57,4.25,11,10.56,21.12,11.29,2.59.18,4.81,3.44,7.19,5.29l19.11,14.79c.8.62,2.4,1.36,2.27,1.83-2.12,8.1,8.35,13.83,7.32,21.07-1.06,7.51,4.8,12.59,6.78,18.85,1.82,5.76-.05,12.17.77,18.2.16,1.11,5.33,2.29,8.3,2.51,1.6.12,3.62-1.6,5.15-2.73,4.08-3,8.75-5.75,11.8-9.31,4.11-4.81,12.42-2.4,16.9-7.06,1.8-1.88,8.09-1.4,12.36-1.57a158.21,158.21,0,0,1,16.87,0c3,.19,6.65.82,8.8,2.3,6.72,4.62,15.47,8.94,18.54,14.89,3.39,6.59,5.81,13.78,8.94,20.66,1,2.31-.29,5.88,1.51,7.26,6.35,4.87,9,11.45,11.5,17.29,2.7,6.28.16,13.81.75,20.75.49,5.71-2.58,11.6,4,17.08s1.53,13.27,2.46,20c.82,6,.17,12.19.17,18.29v20.91c0,6.1-.47,12.22.14,18.29.57,5.67,9.92,9.42,6.59,16.13s5.5,10.42,7.21,16.06c1.63,5.4,8.72,9.76,6.29,16.2-3.09,8.21,3.82,14.53,7.24,21.24,2.3,4.5,7.75,7.95,6.47,13.66-.31,1.4.57,3.81,1.94,4.46,10,4.72,10.33,14.75,19,20.17,3.38,2.13,7.17,4.46,5.95,8.5-1.87,6.23,3.19,9.93,8.54,12.89,7,3.9,4.66,9.22,4.82,14.16,0,.71-3.72,2.32-4.06,2.09-3.28-2.3-8.65-4.84-8.74-7.42-.2-5.24-4.18-7.79-8.19-10.56-4.68-3.24-8.09-9.78-16.11-6.82-6.06,2.23-2.84,7.77-3.13,11.85-.24,3.48-1.53,6.16-3.81,9.31-4.65,6.44-4.19,13-.9,19.19.78,1.49,4.27,2.46,4.37,3.77.49,6.08-.35,12.23.38,18.27.69,5.64,7.88,9.31,7.13,16.18-.71,6.44-4.86,14.47,2.56,19.76s-1.32,14.49,9.31,18.06c1.79,6.39-.48,13.91,9.51,17.9,15.28,6.11,11.89,17.39,11.66,27.52,0,2.11-2.46,4.7-4.74,6.18-6.41,4.18-9.8,8.91-8.69,15.64.71,4.28.09,8.7.15,13.05.07,5.06.84,9.32,4.95,14.22s4.57,13.29-2,18.93c-4.58,3.91-2.1,8.13-2.93,12.19,8.52,4.89,5.42,12.22,7,18.7,1.91,7.6-8,11.67-7.23,18.8.78,6.91.11,13.91.08,20.87-8.51,3.69-4.71,10.8-7.62,15.84-2.57,4.46-9.14,7.52-13.86,11.26-6.07,4.83-5.94,4.83-1.42,12.63,1.27,2.2,3,4.82,2.49,6.94-1.68,6.68,5.63,8.85,10.12,13.6,6.31-4.89,11.88-10.11,18.61-14.2,12.49-7.6,14.91-19.85,23.69-29.1,1.17-1.23,1.51-3,1.84-4.61,1.17-5.65-3.28-12.38,5.4-16.57.79-5.85,1.36-11.72,2.62-17.51.18-.84,3.61-1.27,5.54-1.89,0,7-1.28,14.12.34,20.86,1.84,7.65-9.46,11.7-7,18.76,2.14,6.1-7.33,7.93-7.13,13.54s3.41,12.38-5.28,16.51c.25,5.43-7.42,8.59-7.6,13.12-.35,8.68-16.89,9.62-13.91,19.18-4.39,3.83-12.93,2.18-16.28,7.39-14,.93-18.39,7.44-17.63,17.46.32,4.2-.65,8.45-1,12.68-10.59,3.58-1.36,13.33-9.38,18-2,1.19-3,4.5-2.8,6.75.65,7.29-5.23,12.94-9.79,17.71a128.76,128.76,0,0,1-30.9,23.9c-8.07,4.41-17.33,8.5-29,9-12,.57-20-5.48-30.22-7.26-1-.17-1.15-3-1.67-4.53-2.26-6.86-14.09-3.4-17.07-9.48-1.07,1.4-2.66,2.71-3.11,4.22-1.24,4.14,2.89,6.57,6.35,8.27,9.85,4.87,13.35,13.18,18.71,20.27,6.69,8.85-2,19.1-15.28,19.41-4.42.1-7.92.26-10.15-4.26-4.13-8.39-7.61-17.53-18.08-22.88-7-3.58-7.5-9.92-11.87-14.55l-18.68-14.46c-11.31,0-15.28-8.78-24-11.88-9.47-3.34-18.4-8.11-28.3-10.1s-12.46-12.7-24.42-11.26c-2.88-3.5-9.78-4.72-9.54-10,0-.86.44-2.27-.08-2.52-9.73-4.81-11.53-14.07-19-20.08-3.71-3-7.55-5.86-11.6-9-4.61,6.35-6.45,12.18,1.44,16.6,6.72,3.77,8.16,9.61,11.79,14.6,2.56,3.51,4.37,7.4,7.33,10.68,2.54,2.81,7.82,4.61,9,7.56,1.7,4.09,3.17,7.7,7.44,10.76,5.32,3.8,10.54,16,14.35,24.1,2.92,6.23,6,11.86,7,18.79,1.21,8.68-6.46,13.92-9.2,20.87-1.61,4.1-7.6,8.21-16,7.19-6.59-.8-13.53.26-20.21-.28-6.9-.55-9.65,3.4-13.69,6.13-4.24,2.88-1.87,7.75-6.78,11.1-4.52,3.1-10,2.88-14.25,5.26a31.63,31.63,0,0,0-4.79,3.67c-3.8,3.18-7.37,5.74-14,5.52-15.73-.54-31.51-.19-47.26-.17-9.79,0-16.72-8.15-27.35-5.7-6-4-11.95-8.06-9.54-15.23,9.84,0,20-1.07,26.21,7.15,2.55,3.39,6.94,3.46,11.53,3.37,10-.19,20.25-1.11,29.93.25,9.08,1.28,13.3-4.69,20.59-5.65,8.18-1.09,11.77-7.2,17.22-11.17,1.93-1.42,2.34-4.46,2.56-6.81.39-4.27-.07-8.6.16-12.89.23-4.56-3-5.85-8.09-5.62-11.34.53-22.05.2-25.76-10.47,8.58.27,17.7-1.76,24.41,5.08,1.82,1.86,15.66-4.5,15.73-7.48.17-7.58,4.18-16.64-2.16-22.35-7-6.27.29-16.13-10.94-20.14,3.73-7.53-6.67-12.54-6.25-18.67.6-8.74-8-11.63-13-16.89-1.12-1.17-1.22-3.28-.91-4.85.92-4.81-2-8-6.2-11.15-3-2.23-6-4.28-7.82-7.87-3.81-7.5-6.83-16.09-16.22-20.75-10-4.94-10.39-14.43-18.7-20.29-16.58-11.69-32.31-24.15-47.69-36.8-6.95-5.71-16.25-7.58-24.43-11.22-1.24-.56-4.47.35-5.73,1.37a5.16,5.16,0,0,0-1.56,4.57,7.26,7.26,0,0,0,3.06,4.16c5,3.43,2.69,10.07,9.45,12.64-2,6.59,9.86,9.4,7.46,15.79-2.31,6.17,8.15,8.57,6.59,13.44-2.24,7,8,10.66,6.64,16.07-1.81,7.08,5.94,10.44,7.5,16.1,1.5,5.42,8.87,9.59,6.44,16.13,6.67,4.31,3.31,14.51,17.14,15.39,6.31.4,16.39,17.28,16.62,22.84.18,4.34,0,8.69,0,13-4.16.59-6.73-1.45-6.56-4,.34-5.24-5.22-7-8.41-10.23-1.68-1.68-2.48-.87-4.82.57-10.57,6.52-10.34,15.6-5,22.63,7.54,9.87,2.67,19.73,4.27,29.47.19,1.14-2.46,2.54-3.75,3.85-3.78,3.84-11.92,5.95-9.44,12.31,2.38,6.14-6.84,8.11-7,13.27C482.8,952.16,484.84,957.86,489.72,965ZM771.23,264.12c-1.22,0-2.35,0-3.47,0-5.92.12-6.74,1.49-7.84,6-2,8.12,2.68,14.93,7.25,21.26s10.67,12.86,21.36,14.56c1,.16,2.46.28,2.88.8a28.68,28.68,0,0,1,2.48,4.42h-3.38c-4.51,0-9-.26-13.5.1-2.74.22-5.67,8.9-3.2,11.79a37.57,37.57,0,0,0,11.31,8.77c1.56.8,5.89-1.08,8.56-2.27,16.51-7.37,31.12-1,45.67,4,3.85,1.31,6.14,5.13,9.78,7.08a18.64,18.64,0,0,0,9,1.74c3.25-.16,4.77-5.45,1.68-8.65-2.69-2.79-6-4.94-5.16-8.88.34-1.7,1-4.08-.1-5.13-6.08-5.8-8.68-13-13.31-19.32-.49-.67.18-2-.41-2.45-8.67-6.85-16.64-14.46-26.51-20.08-6.42-3.66-14.62-6.08-22.16-8.82C785.27,266.53,779.27,263,771.23,264.12Zm-.63,418.43h3c0-.78.4-1.77-.07-2.29-1.57-1.72-3.5-3.87-5.88-.72-.31.42,1.9,2,14.79,191.3,6.73,0,11.28,1.1,13.29-.18,8.57-5.48,16.39-11.66,24.48-17.58-1.06-7,4.54-12.45,7.08-18.62,4.53-11-6.41-24.14,7-34.31-11.49-6.47-6.42-16-6.22-24s-2.93-14.7-7.3-21.32c-3.42-5.18-8.67-9.74-6.64-16.19-7.78-5.06-6.66-12-7-18.74-.1-2.21-1.81-5.34-4.06-6.36-9.41-4.24-8.1-13.75-16-18.53,1.43-5.29-4.12-7.52-7.75-10.59a7.61,7.61,0,0,0-2.41-1.8c-3.32-1-4.11-.11-3.43,2.58,2.68,10.55-6.28,22.58,6.83,31.81,2.13,8.11-5.42,17.45,5.18,24.49.53,8.55,1.26,17.09,1.52,25.65.27,8.71.17,17.43,0,26.14-.14,8.33,2.74,17.21-6.73,24,0,6.1,1.71,12.6-.46,18.19-2.34,6-8.7,11.09-12.58,16.86-3.07,4.59.42,13,6.41,15.86C777.22,869.85,781.48,870.56,770.6,682.55ZM729,850.49c8.26-6.7,8-6.65,4.22-18.94-1-3.29.27-7-.29-10.39-.44-2.67.18-3.57,3.48-2.57a5.47,5.47,0,0,1,2.37,1.81,11.34,11.34,0,0,1,1.05,2.26c3.21,6.41,2.89,6,6.19,4.29,9.42-5,14.33-12.71,18.54-20.19,2.89-5.12,1.89-11.61,2.24-17.51.3-5.2.06-10.42.06-15.64s0-10.43,0-15.64-.22-10.36-.33-15.53c-9.76-4-1.66-7.5.17-11.47s-4-5.74-5.33-8.6c-1.76-3.85-1.69-8.47-1.08-12.64.83-5.69-9.55-7.59-6.91-13.48,2.72-6.06-6.2-8.42-6.88-13.48s3.33-11-2.27-14.77c-6.53-4.38-5.08-9.71-4-14.3,1.44-6.27-8-8-7.18-13.54.68-4.37.24-8.44-5.14-11.4s-7-8.09-10.18-12.26c-2.77-3.61-3.59-7.76-6.66-11a61.61,61.61,0,0,0-11.86-9.21c-3.77-2.32-5.41-7.09-12.69-6.93-.5,7.91-.81,15.51-1.7,23.07-.09.81-3.48,1.87-5.4,1.94s-4.53-.53-5.69-1.59-1.39-3.09-1.41-4.69c-.12-8.69.15-17.39-.18-26.07-.11-2.7-2.35-4.36-6.64-4.21-7.84.28-15.72.06-23.58.09-9,0-10.16.73-10.19,6.66-.08,13-.65,26.09.16,39.1.77,12.41-4.83,25.63,6.58,36.94,0,6.09,1,12.29-.25,18.23-1.48,7.37,9.89,11.11,7.22,18.76-1.76,5.08,1.38,9.27,5.7,13.85,3.22,3.42.47,10,1,15.21.15,1.35,3.61,2.35,4.15,3.82,2.3,6.24,9.27,11,9.64,17.78,9.67,5.85,6,13.78,5.36,21.18,0,.65-1.39,1.58-2.32,1.73-.61.11-1.56-.92-2.34-1.45-5.14-3.46-9.71-7-8.07-13.12a5,5,0,0,0-1.6-4.57c-1.25-1-3.89-1.54-5.81-1.39s-4.42,1.05-5.34,2.23-.58,3.29-.62,5c-.17,7.26,1.62,6.86,6.09,18.84,2.75,7.37,11.08,3.58,14.78,7.84,2.34,2.7,3.82,1.93,6.15-3.35,2.12-4.8,2.58-5,5.43-3,11.4,8,12.88,20.4,21.61,29.59-3.32,6.76,6.17,10.37,6.65,16.09.44,5.22,7.07,7.59,8.24,13.2C715.18,842.06,723.74,846.06,729,850.49Zm4.07-700.56c0-6.08-1.5-12.45.37-18.17,2.36-7.21-8.9-9.53-7.3-16.17,1.69-7.06-.19-13.19-8.64-18.14-8-4.66-14.59-10.77-21.56-16.43-3.89-3.17-7.68-6.1-13.94-5.48-4.72-6.67-15.52-2.58-20.15-5.9-7-5-14.06-4-21.56-4.28-11.74-.46-24.34,2.43-34.25-5.23-7.32,1.07-15.46-2.58-22.18,2.77-1.94,1.54-6.25,2.86-8.61,2.26-10.94-2.76-17.91,5.34-27.6,5.43-4.38,4.59-10.25,5.73-17.43,5.45-2.62-.1-5.22,2.84-8.14,3.38-9,1.65-14,8.35-21.29,10.59-8.73,2.7-14.55,7-20.72,11.62-5.65,4.23-14.3,8-15.95,13-2.46,7.55-9.67,11-14.95,16.15,3.77,6.87-9.66,8.81-7.14,16.15,2.43,7.05,10.42,12.88,7.9,21,4.26,3.85,10.61,7.25,12.19,11.67,1.7,4.76,5.28,7.74,9.41,9.93,6.23,3.29,3.26,9.51,9.16,13,7.78,4.57,13.31,12,25.41,9.29,5.23,5.78,14.29,3.57,20.38,5.87,5.93,2.23,10.92,4.36,17.78,4.84s11.73,4.59,12.83,9.93c.6,2.94,1.83,5.47,5.15,5.34,8.41-.31,18.15,3,24.55-4.32,12.61,1.29,15-12.39,27.71-11.37,1.44.12,3.12-2.26,4.84-3.33,15.87-9.94,23.35-12.17,40.63-12.19,3.36,0,6.82.38,10.08-.07,8.29-1.14,14.11,2.69,21,4.92a82.48,82.48,0,0,1,10.9,4.86A9.24,9.24,0,0,0,713.28,214c4.55-5.46,10-10.77,12.61-16.78,2.05-4.68-.47-10.44.66-15.5,1.05-4.65,5.35-8.89,6.23-13.53C733.91,162.19,733.06,156,733.06,149.93ZM77.4,571.93c0,5.22,1,10.6-.25,15.63-1.71,6.77,4.67,10.8,7,16.14,3.35,7.63,10.48,13.45,19.65,15.64,6.19,1.48,9.32,7.53,17.32,5.83,4.19-.89,9.93,1.11,13.22-.44,5.6-2.62,11.35-6.4,14.25-10.79,4-6,7.87-11.75,14.57-16.24,1.36-.91,2.39-3.17,1.93-4.46-2.7-7.58,7.13-11.74,8.13-18.47.39-2.63,6.93-4.56,5.47-8.55-3.9-10.65,10.75-18.51,7.11-29.23-.61-1.81,2.27-4.36,3.64-6.52,9.6-15.18,10.21-15.2,9.35-28.24-.42-6.48,3.06-13.12-4-19.66-6.64-6.16-1.06-15-2.8-22.49-.6-2.57-9.46-3.18-3.38-7.33,7.45-5.1-1.95-6.92-3.49-9.61-8.1-14.1-10.44-13.58-29.06-7.75-8.73,2.74-16.61,6.12-20.41,11.67-7.41,10.83-19.11,19.54-24.59,31.24-2.47,5.28-4.89,11.08-9.56,15.08s-4.65,9-8.52,13.22-2,11.34-3.22,17.12c-.3,1.4-4.09,2.35-4.39,3.75-1.24,5.78-1.76,11.65-2.55,17.49-8.71,4.15-4.65,10.84-5.37,16.54C77.05,564.94,77.4,568.45,77.4,571.93Zm304.17-10.5c.57,8.66-2.79,18.34,6.76,26,0,6.07,1,12.26-.25,18.18-1.53,7.39,9.28,11,7.46,18.73-1.18,5,5,7.64,10.28,5.22,3.6-1.66,5.69-5.16,11-4.61,14.79,1.55,30.11-3.15,44.61,4.86,7.44,4.11,20.89-3.69,21.49-10.68.7-8.21-3-17.14,6.7-23.9a2,2,0,0,0,0-2.48c-10.87-8.27-4.43-19.3-7.77-28.75-9.43-5-5.84-12.58-5.36-19,.64-8.51-2.78-14.64-11-20s-12.71-6.82-22.92-1.8c-9.76,4.79-22.26,5.51-30.26,12.64-9.06-1-14.27,7.84-24,5.54-4.08-1-6.4,1.33-6.62,4C381.26,550.6,381.57,555.82,381.57,561.43ZM811.16,238c9.17,7.19,20.72,13.63,27.37,22.31,5.07,6.61,10.37,12.6,17.48,17.66,2,1.42,6,1.67,9,1.56,1.17,0,3.24-2.61,3.12-3.93-1.18-12.4,4-25.2-6.12-37.14-3.08-3.65-1.5-10.33-.23-15.34,1.71-6.76-5.37-10.66-6.79-16.14-1.09-4.17,1.86-9.7-.71-12.73-3.76-4.43-5-8.72-6.8-13.59a47,47,0,0,0-20.73-24.58c-6.14-3.64-12.89-1-19.28-1.7-3.29-.38-6.74.13-10.08-.11-6.52-.49-9.12.95-10.82,6.58-1.32,4.36-7.44,8.58-12.76,11.3-7.23,3.68-6.31,10.35-11.28,14.9-2.91,2.65-2,8-2.32,12.12-.5,7.46-.18,14.31-6.17,21.59s4.67,17.16,16.24,17.22C783.69,238,797.15,238,811.16,238ZM875,565.34c0-3.94-.33-7.43.09-10.86.46-3.75-1.05-6.39-4.66-9-8.19-5.89-15.11-13-24.11-18-5.89-3.24-12.36-6.32-18.6-9.09-16.25-7.18-32.11-16.75-53-13.75a51.71,51.71,0,0,1-6.71.05c-6.07.1-8,1.35-7.82,5.81.41,8.22-3.1,17.16,6.69,23.82.27,7.45-2.24,15.43,6.76,21.22-3.47,10.73,8.31,14.86,15.25,21.09,13.39,1.4,19.14,10.61,28,16.56,4.22,2.82,7.76,6.26,12,9.1,5.74,3.87,12.79,1.32,19.19,1.55,2.61.1,5.93-1.85,8-3.55,8-6.64,9.68-16.14,16.8-23.12C877,573.12,873.64,568.88,875,565.34ZM834.23,907.46c1.72-.22,7.65.06,12.18-1.75,6.45-2.6,9.15-10,18.76-9,2.36-3.57,4.63-7.19,7.12-10.71,3.54-5,4.86-10.94,11.76-14.49,6.53-3.36,5.37-10.37,10.85-14.82,3-2.45-2-8.46,3.4-11.73s4.27-8.92,9-12.94c3.71-3.18,3.65-9.54-2.08-13.75-4.06-3-7.41-6.77-12-9-6.4-3.12-3.53-9.25-9.08-12.95-8-5.31-18.83-10.14-15.82-20.78-4.29-3.82-8.77-7.53-12.84-11.49-5.27-5.12-15.14-7.83-14.39-16.22.06-.56-1.83-1.85-2.2-1.72-1.58.54-4.25,1.59-4.16,2.26.84,6.5-2.85,13.16,4.41,19.52,3.46,3,1.2,9.75,2.26,14.71,1,4.76,8,7.44,6.93,13.48-1.23,6.8-1.89,14.13.13,20.69,2.44,7.93-8.23,12.49-6.73,18.64,2.44,10-9.76,16.95-7.2,26.49-4.41,3.67-5.87,8.54-8.9,12.7-1.59,2.19-9.14,1.85-10.61,4-1.83,2.71-1.53,6.14-5.06,8.8-4.43,3.34-13.34,6.79-8.32,12.15,3.79,4,12.29,5.66,19,7.71C823.49,908.19,827.22,907.46,834.23,907.46ZM260,401.32c-2.62,7.55,3.12,14,6.77,20.82,2.39,4.46,8.73,7.62,6.75,13.52-1.88,5.6,9.15,7.56,6.75,13.49-.19.45,10.85,19.6,11.26,19.84,9,5.34,11.5,13.68,15.46,21.14,2.36,4.44,6.19,3.41,10.23,4.3,8.08,1.77,10.49-5.83,17.5-5.45,9.05.49,4.77-6.28,7.91-9.15C350.13,473,353,464,359.17,456.44c4.63-5.67,2.9-11.18-3.08-15.88-7.1-5.57-14-11.37-21.55-16.51-5.55-3.76-8.16-7.88-7.05-13.46.87-4.39-4.65-5.5-7.17-8.12s-7.37-4.24-6.33-8.42c2.46-9.86-9.55-12.68-15.07-18.66-1.53-1.66-2.49-.6-4.89.67-6,3.19-12.3,6.77-19.16,8.1C262.81,386.52,258.82,392,260,401.32ZM428.89,812.76c1.9-5.63-4.28-9-6.3-13.48-2.09-4.65-1.38-10.42-.23-15.47,1.37-6-8.1-7.76-7.17-13.51.83-5.13.47-10.42.06-15.61-.22-2.72-2.34-4.47-6.62-4.26-1.86.09-5.33-.9-5.51-1.73-1.23-5.77-1.79-11.63-2.56-17.46-9.47-5-4.11-12.64-5.62-19.07-.27-1.14-2.36-2.62-3.88-2.84-2.2-.33-8.1,7.55-7.1,9.06,1.43,2.15,4,4.23,4.17,6.42.51,7.79-1.74,16,.7,23.34,2.95,8.89-8.9,13.56-7.23,21.37.83,3.94-4.42,6.18-4.88,8.76-1.28,7.12-9.54,7.38-13.85,11-4.57,3.87-14.8.26-15,7.53-.12,5-1.21,11.32,2.09,14.77,3.46,3.62,3,8,6.58,11,4.56,3.82,9.4,7.46,14.4,10.94.3.21,3.44-1.43,4.5-2.61,1.92-2.15,4.38-2.49,4.65-.32a165.83,165.83,0,0,1,1.32,23c-.11,6.32,6.06,8.83,11,11.77,3.6,2.13,13.76-1.49,18.06-3.65,6.34-3.18,3-9.83,9.28-12.85,4.72-2.26,1.93-6.36,2.23-9.61.62-6.63-1.95-13.66,6.62-18.9C430.29,819.45,428.89,815.47,428.89,812.76ZM483,882.82c-.65-9.19,3.23-18.93-6.77-26.55,0-6.06,1.91-12.64-.54-18s-7.7-9.8-6.3-16.17c.73-3.38-.2-6.35-3.58-9.29s-4.52-7.22-7.43-10.5c-2.48-2.79-8.62-5-8.66-7.47-.07-5.21-4.18-7.53-7.7-10.71-2.06-1.88-3.28-2.41-4.82-.72-.6.66-1.47,1.41-1.45,2.11.1,3.38-1.26,8.26,1.06,9.84,6,4.11,5.71,8.84,5.65,14-.09,6.93.06,13.86-.05,20.78-.18,11.18-.49,22.35-.74,33.52l-28.48,22c-.79.61-1.63,1.2-2.37,1.84-3.2,2.8-3.14,11.33.35,14.06,13.38,10.46,26.73,21,40.52,31.08,1.57,1.15,7,1,8.67-.17,3.79-2.71,7.36-5.45,9.69-9.76,3.31-6.09,7.29-11.71,7.06-18.51C486.9,898.29,481.41,889.91,483,882.82ZM935.84,663.06v-20.8c0-6.06,1.46-12.42-.43-18.11-1.77-5.36-6-9.94-7.1-16-1-5.14-7.59-9.73-6.2-16.14.2-.89-2.35-2.14-3.64-3.22-.79.61-2.28,1.24-2.26,1.84.14,4.65-4.32,7.34-6.73,10.91s-.64,8.43-.67,12.74,2.19,10-.53,12.69c-4.13,4.09-5.63,8.73-8.55,13-5.06,7.39-10.49,14.35-18.87,20-8.17,5.53-7.93,8.73-2.12,17.64,3.27,5,9,10,9.18,15.07.32,6.87,3.26,11.53,9.79,15.19,5.61,3.16,4.32,7.49,4.29,11.66,0,3.13,2,4.54,5.79,4.87,9.17.8,20.92-3.17,20.77-8.91-.27-10.31,11.34-18.05,7.73-29.12C933.9,679,935.84,670.85,935.84,663.06Zm-663.25-368c20.68.45,20.37-.14,34.45-4.58,9.48-3,14.92-7.09,13.58-15-1.14-6.77,2.18-11.65,8.89-15.48,4-2.28,3.62-5.87,5.28-8.76,2-3.39,7.93-5.41,12.15-8,10,3.52,15-6.51,24.25-5.4.57.07,1.83-2.15,2.27-3.41.13-.36-1.5-1.57-2.33-1.58-9-.07-17.95,0-26.93.08-6.13,8.82-21.89,1.86-28.25,10.31-9.17,1.82-17.38,5.21-27.52,5.89-9.66.65-22.57,3.84-26.68,11.69-3.55,6.76-9.38,11.08-14.82,16.22-1.81,1.71-1.82,4.6-2.52,7-.56,1.92-7.52,2.11-2.41,5.57,2.54,1.71,4.59,5,7.23,5.26C256.92,295.52,264.79,295.06,272.59,295.06Zm325.2,508c.19-4.42.3-8.15-4.25-11.92-4-3.35-3.86-9.27-9.19-12.54,1.41-9.89,0-18.91-12.42-24.63-.58-6.62-3.54-12.42-7.22-18.52-2.92-4.83-10.74-9-7.57-15.86.56-1.2-.52-3.44-1.81-4.48-9.34-7.48-18.82-14.87-28.58-22-1.18-.87-4.67-.65-6.48,0a6.15,6.15,0,0,0-3.34,4c-.35,1.48,0,4,1.26,4.61,10,4.53.57,15.74,11.61,19.93,1,.37.41,3.22.47,4.91.28,9.29-2.63,19.38,11.34,25.08,1.35.56,2,2.88,2.09,4.41a79.48,79.48,0,0,1,0,13c-.55,5.3,1.49,8.08,9,7.79,1.45-.06,4.45,2,4.35,3-.84,7.56,7.82,9.94,12.74,14.16A183.75,183.75,0,0,0,589.26,808c1.08.7,4.53.12,6-.75S597.07,804.4,597.79,803.1Zm297.49-61.8c0-3.49,1.41-7.37-.25-8.46-6.88-4.54-7.23-10.13-6.51-16.21-8.15-3.78-4.29-11.23-7.67-15.59-3.57-4.63-5.5-8.55-6.13-13.77-.65-5.38-8.76-9.82-16.29-9.88-7.72-.07-15.31.78-21-5.12-1.2-1.24-6.43,0-9.74-.24-4.24-.36-6.44,1.44-6.64,4.13-.24,3.29-.64,7.24,1.34,9.85,5.87,7.78,13.52,14.84,12,24.71,7.16,3.27,5.24,10.58,11.16,14.63,7.52,5.14,17.3,10,20.58,16.67s8.54,8,14.61,10.46c5.37,2.21,5.7,1.81,9.63-.59C895.67,748.69,895.68,744.73,895.28,741.3ZM273.7,311.19c-9.59,1.46-22-2.56-33.54,2.2-.18,8.62-.4,17.23-.52,25.85a150.29,150.29,0,0,0,.18,15.6c.11,1.21,2.56,3.16,4.12,3.27,5.56.4,12.2,1.63,16.57-.17,7.72-3.18,15.16-5.74,23.95-5.6,8.47-9.18,24-11.36,33.11-20.09,4.22-4,3.32-8.06,2.92-12.05-.36-3.69-9.59-8.94-14.25-9C296.15,311.13,286.07,311.19,273.7,311.19ZM516.76,638.13c0,6.06.64,12.18-.17,18.17-1,7.11,1.71,11.24,11.52,11.5,4.43,5.42,7.86,2.84,12-.53,4.52-3.72,4.36-6.47.73-10.92-5.75-7-5-7.42-.18-15.78,4.35-7.48,5.07-7.71-.89-15.84-3.64-5-4.3-9.73-.64-14,2.46-2.9,4.86-5.13,4.91-8.94,0-4.83-2.33-9.94,4-14.36,4.45-3.12,4-8.9,9.45-12.57,7.58-5.06,6.88-5.69,1.19-14.18-7.53-11.23-7-9.9-18.91-3.77s-4.45,18.58-16.2,23.68c0,6.92-.69,13.9.18,20.76.91,7.14-9.19,11.1-7.24,18.68C518,625.83,516.76,632.07,516.76,638.13ZM385.15,384.26c5.37-4.15,12.6-7.79,15.93-12.94,2.69-4.17.7-10.15.76-15.32,0-1.74-.93-4.41.15-5.06,11.06-6.65,5.45-15.88,6.5-24,.54-4.17-1.54-5.18-8.45-5.29-8.86-.15-18-1.1-23.51,6.41-1.06,1.46-3.57,3.75-4.6,3.52-8-1.82-10.46,6.12-17.26,5.69-5.66-.35-7.54,3.31-10.36,5.63-2,1.59-4,5.67-3,6.47,6.71,5.48,6.35,16,15.74,18.07C370,370.36,375.54,379,385.15,384.26Zm206,286.84v23.28c9.47,6.68,6.23,15.49,6.92,23.71.19,2.24,1.79,4.73,3.68,6.5a73.09,73.09,0,0,0,11.8,9.13c3.9,2.36,7.87,1.38,11.4-1.4,3.9-3.06,7.26-5.72,7-10.8-.27-6.09-1.62-10.95-6.44-16.27-3.14-3.47-1.66-10.2-.32-15.16,1.65-6.16-7.81-7.88-7.16-13.41.49-4.22,2-10.08-.8-12.44-5.18-4.36-5.33-8.73-6.21-13.81-.49-2.83-5-5.17-7.33-7.93-1.9-2.27-2.81-2.17-4.89,0-3.16,3.28-8.44,5.23-7.84,10.51C591.63,659,591.11,665.06,591.11,671.1Zm-101.77-5.16c-4.63,1.15-9,1.65-12.53,3.24-5.46,2.45-7.72,8-15.81,8.47-3.51.19-7.66,3.51-9.8,6.22-3.32,4.21,7.42,5.48,4.72,10.16,5.65,6.11,11.2,12,21.09,14.88,4.79,1.39,8.51,5,12.71,7.64-1.13,9.7,11.36,11.9,16.81,18,.76.85,5.2,1,6.2.17,2-1.6,4.44-5.54,3.77-6-8.68-6.11-6.33-14-6.47-21.46-.16-8.67.12-17.35-.2-26,0-1.33-2.38-3.77-3.49-3.71-6.86.34-10.23-1.3-10.2-7.11C496.15,669,492,667.58,489.34,665.94ZM327.5,588.83c0-.87.46-2.23-.08-2.54-7.32-4.18-7.09-10.06-6.8-16.2.2-4.16-9.94-18.69-14.2-21.53-3.92-2.62-14.57-3.22-18.15-.21-6,5-13,8.43-21.06,11.25-3.25,1.14-7.49,3.49-7.52,7.89,0,3.32,3.27,4.26,4.92,6.34a12.39,12.39,0,0,1,2,4.57c3.46,12.79,6.36,15,20,15.25,8.61.18,17.4-1.59,24.56,5C314.23,601.39,326.82,593.7,327.5,588.83ZM554.6,400.56c8.34-6.77,17-13.41,25-20.46,4.19-3.68,11.45-5.72,11.51-11.83,0-1.73.7-3.7-.13-5.15-2.94-5.11-5.85-10.33-9.85-15A46.25,46.25,0,0,0,569.35,339c-3.2-1.85-8.57-1.8-11.11-3.92-4.83-4-7-1.2-9.68,1.2-2.06,1.84-5,2.93-4.93,6.25.21,6.59,2.37,13.49-6.27,18.88-2.14,1.34-2.06,8.1.18,9.71,5.63,4.06,7.46,8.48,6.13,13.72C541.82,392.15,548.08,395.78,554.6,400.56ZM169,358.27v-.14c4.45,0,9.74,1.14,13.07-.35,2.83-1.26,3-5.74,5.14-8.43.82-1,3.78-1,5.73-1.55,6.47-1.74,12.08-4.83,12.62-10.21.65-6.53,2.35-13.3-6.3-18.76-7-4.4-12.42-9.72-22.84-7.73-3.16.6-6.68.17-10,.07-5.27-.15-7.3,1.51-8.27,5.76-.66,2.9-4.23,5.74-7.34,7.89-4.5,3.11-6.53,6.49-5.91,11.16.47,3.42,0,6.91.12,10.36.3,6.43,8.16,11.79,17.3,11.92C164.56,358.29,166.79,358.27,169,358.27Zm199,368.39h-.13V711.21c-8.31-1.93-3.2-11.79-12.46-12.89-6.66-.79-13.1-.37-17.48,4.76-1.79,2.11-5.54,3.39-6.79,5.59-2.9,5.08-4.81,10.5-7.15,15.77-.56,1.24-2.06,3.38-1.78,3.52,8.46,4.28,2.88,11.31,5.55,16.39,3.88,7.36,6.17,15.85,15.44,20.75,2.11,1.1,7.16,1.28,8.68.15,3.7-2.78,10.16-4.59,9.27-9.78-1-5.58,3.49-9.08,6.29-13.54C370.11,737.76,368.05,731.82,368.05,726.66Zm-209.54-473c6.75,0,13.83-1,20.18.24,9.13,1.79,13.4-5.2,20.92-5.44,8.65-.28,17.88,1.29,24.22-5.26,11.58,2.68,19.44-6.91,31-5.6,2.88.32,6.67-3.9,9.95-6.12a2.47,2.47,0,0,0,1.18-1.81c-.2-2.66-13.16-8.68-16.19-7.32-3.64,1.64-5.18,5.49-10.77,5.24-7.86-.34-16.09,1-23.56-.35-10.08-1.84-16.11,4.15-24.32,5.41-7.25,1.11-16-2.33-21.32,4.39a79.64,79.64,0,0,0-24,5.66c-5.11,2-8.7,4.79-12.89,7.31a1.53,1.53,0,0,0-.36,1.77c.51.73,1.5,1.78,2.32,1.8C142.74,253.71,150.63,253.66,158.51,253.66ZM370.8,881.9c-3.37.45-9.87,9.29-9.51,12.7L371,912.38c10.34,8,19.71,17,31.39,23.62,7.11,4,15.37,9.22,25.9,8,2-.23,5.25-.64,5.67-1.57,1-2.13,1.84-5.42.42-6.85-4.07-4.11-9.67-7.3-14-11.3-4.11-3.82-11.53-5.76-11.83-11.84-.25-5.18-8-7.3-8.05-13.32,0-3.09-6.89-6.54-11.35-9.12-4.12-2.38-9.2-3.76-13.79-5.67C373.75,883.66,372.27,882.69,370.8,881.9ZM557.31,643.31a20.65,20.65,0,0,0,0,2.61c1.07,8.43-3.86,17.9,2.69,25.14,7.43,8.23,1.85,16.71,4.54,24.75.36,1.09,3.67,2.49,5.21,2.24,2.77-.45,6.48-1.58,7.51-3.27,1.3-2.13.31-5.1.31-7.71,0-19.14.09-38.27-.07-57.4,0-4.42,2.37-7.71,4.7-11.59,2.92-4.86,2.07-11.58.81-17.22-.59-2.66-6.2-6.73-9-6.5-3.48.3-8,4-9.23,7-1.66,3.92-1,8.55-.61,12.84.47,5.45-9,7.24-7.15,13.55C558.48,632.67,557.31,638.09,557.31,643.31Zm-216.18.1c-11.87-9.18-23.08-17.56-33.8-26.29-4.68-3.82-10.23-2.69-15.35-2.4-6,.34-5.08,4.47-5.06,7.81.06,9.47.54,19-.12,28.4-.74,10.49,2.06,13.91,20.38,8.29,7.72-2.36,14.16-6.44,22.29-8.33C333.9,649.86,337.24,646,341.13,643.41ZM672.22,360.75v-2.58c0-4.31.87-8.76-.29-12.87-.83-2.93-6.77-3.92-6.62-8.21.18-5-2.57-5.43-7.18-2s-11.89,2.61-16.36,7.13c-3.94,4-3,9.47-8.78,13-2.3,1.41-2.7,7-1,9.57,6.26,9.41,11.92,19.5,25,24.77,1.49.6,5.62,0,5.91-.76,2.2-5.41,8-9.56,9.15-15.13C672.91,369.44,672.22,365.05,672.22,360.75ZM171.6,667.21c.53,3.86,1.13,8.86,2,13.84.1.57,1.55,1.37,2.44,1.43,2.15.13,4.73.39,6.4-.37s3.15-2.75,2.94-4c-.87-5.56,9.94-7.52,6.85-13.32-3.75-7,10.28-9.19,6.85-15.94,6.06-3.29,7.39-7.84,6.88-13.34-.55-6-.12-12-.12-18.07,7.53-3.86,6.18-7.28-.32-11.15-2.32-1.38-3.63-2.46-4.75-.75-1.86,2.83-2.18,6.78-4.95,8.62-6.8,4.52-9.11,11.16-14.31,16.07-5.46,5.14.77,11.57-6.31,16.33C167.59,651.63,173.94,659.54,171.6,667.21ZM324.12,923.15c2.24,0,5.31.73,6.57-.13a124.66,124.66,0,0,0,16.51-12.89c1.25-1.21-.51-4.64-1.58-6.84s-3.16-4.18-4.58-6.33c-2.35-3.58-5.28-7.06-6.63-10.86-2.63-7.41-15.67-9.72-14.84-18.7.05-.56-1.48-1.22-2.27-1.83-3.17-2.45-6.26-5-9.54-7.32a36.78,36.78,0,0,0-4.71-2.48c-.87,2.32-1.8,4.63-2.55,7a3.39,3.39,0,0,0,0,2.58c2.12,3.65,5.4,7.08,6.44,10.89,1.14,4.15.17,8.62.38,12.95,0,.63,1.41,1.29,2.28,1.83,10.43,6.53-2.27,18.89,10.45,24.83C311.63,921.5,314,923.62,324.12,923.15ZM512.7,285c-14.52,0-13.39.54-23.53,12.35-4.12,4.8-4.6,10.91-10.6,14.9-1.89,1.25-2.9,6.17-2,6.58,8.08,3.86,5.61,12.73,13.75,16.57,2.45,1.16,3.23,2.24,4.89.34a5.09,5.09,0,0,1,2.35-1.79c8.44-1.83,1.74-15.21,16.14-12.78.41.06,2.67-4.15,3-6.45.75-5.72-2-11.9,6-16.35,1.69-.94.75-4.79.88-7.3.23-4.39-1.7-5.93-7.46-6.07C514.92,285,513.81,285,512.7,285ZM706.18,857.75c-.43-2.57-.08-4.51-1.1-5.79-3.87-4.86-13.52-6.63-12.58-14.11-9.22-6-12-16-20.66-21.66-9.58-6.24-11.86-15.9-20.9-22-.84-.56-1.51-1.63-2.39-1.74-2.18-.25-4.77-.6-6.58.07-1.61.61-3.38,2.55-3.36,3.89,0,4.05-2.14,8.64,3.37,11.81a18,18,0,0,1,2.38,1.82c7.38,6.05,17.82,10.81,14.58,21.34-.19.62,3.12,2.74,4.7,2.69,7.83-.3,9.51,3,8.55,8-.72,3.75,1.23,6.26,4.58,9,6.15,5,15.21,5.31,22.05,9.13C700,860.81,703.87,858.56,706.18,857.75ZM226.09,545.52c.1-11.87.1-11.87-9.62-19.49-1.56-1.22-3.14-2.43-4.71-3.65l-2.36-1.82c-1.19,1.24-3.31,2.43-3.41,3.72-.38,5,.34,9.68-5.63,13.87-4.54,3.19,2,10.16-4.86,13.79-7.43,3.94.72,11.58-6.81,16-7.09,4.15,1,13.93-9.45,17.51,1.39,1,2.6,2.52,4.23,2.86,5,1,8.06-3.81,11-3.81,13.48,0,12.68-10,17.36-15.15,4.91-5.34-5.34-17.16,12.24-18.92C225.33,550.29,225.88,546.06,226.09,545.52Zm605-187.25c-10.42,0-21.46-.13-32.48.13-1.6,0-4.3,1.79-4.48,2.94a27.45,27.45,0,0,0,.3,10.18c.22,1,3.29,1.71,5.15,2.42,10.29,3.95,21.44,6.49,29.45,13.77,3.79,3.44,12.19,2.28,15.89,6.93,3.14-2.44,8-4.51,9-7.39,1.28-3.7,1.29-9.08-1.38-11.88C846.65,369.21,838.75,364.21,831.07,358.27ZM638.47,944.08c1.9-.61,4.67-.82,5.52-1.91,2.08-2.7,2.5-6.31,5-8.65,4.46-4.17,3.57-7.17-.78-10.87-1.89-1.62-3.29-4.62-2.8-6.69,1.7-7.23-3.6-12.52-6.52-18.64-1.67-3.5-4.63-5.46-7.08-8.08s-7.65-3.79-6.93-8.11-4.83-5.31-7.2-8a5.72,5.72,0,0,0-2.38-1.75c-.53-.17-1.68.41-2.27.87a5.05,5.05,0,0,0-1.61,2c-1.85,5.09,5.93,6.87,6.52,10.75,1,6.73.72,13.58,1,20.38,9.89,5.77,4.54,14.12,6,21.31l10.22,17.33ZM442.71,393.18c-.54-1.64-.5-5.48-2.92-7.78-3.05-2.91-5.53-5.71-4-9.11,3.82-8.51-6.58-13.68-7.64-21-.33-2.32-2.88-2.41-4.57-.75-3.26,3.21-8.29,5.1-8.43,10.35-.26,9.84,3.88,20.45-6.47,29-.56.46-.28,1.72,0,2.54,1.27,4.26,11.14,9.14,17.88,8.91C433.91,405.08,441.46,400.1,442.71,393.18Zm15.34-144.75c9.82,5.86,17.19-5.71,28.06-5.39.75,0,2.66-2.94,2.28-3.26-5.28-4.43-10.81-8.68-16.39-12.89-7.7-5.82-12.16-6.17-22.83-2-4.61,1.8-9.49,3.3-13.71,5.53-4.48,2.36-6.19,4.16-2,9.39s5.73,10.18,15.36,8.67C451,248.14,453.28,248.43,458.05,248.43Zm-90,319.1c0-6.95.08-13.89,0-20.84-.06-3.43-7.91-10.23-12.43-10.53s-9-.12-13.45,0c-6.44.1-10.88,4.76-7.07,8.09s4.23,8.16,7.3,10.59c5.59,4.43,3.78,9.45,5.82,14,2.7,6,8.24,11.25,12.84,16.69.89,1,3.07,1.45,4.66,2.16.79-1.49,2.17-3,2.25-4.46C368.22,578,368.05,572.74,368.05,567.53Zm352-256.67c-1,9,.33,17.49-.71,25.79-1.47,11.6,9.75,15.93,18.94,21.56.69.42,2.22.21,3.28,0,7.83-1.33,16.55-14.64,11-18.35C740.37,331.69,737.73,317.56,720.08,310.86Zm-346.23-52c-17.34,0-16.83.38-28.69,9.5-5,3.83-2.38,10.22-9.16,12.9-.26.1.73,3.32,1.39,3.38,4.4.38,8.93,0,13.31.43,10.14,1,16.52-9.18,27.54-5.39.37.13,1.49-1.18,2.34-1.73,5.25-3.45,9.87-7.22,7.64-13.12-.8-2.13-2.24-4.95-4.42-5.73C381,258.13,377.22,258.89,373.85,258.89Zm68.2,243.49c-4.93-4.33-8.87-9.69-18.42-8.23a59.75,59.75,0,0,1-13.37,0c-6.83-.55-10.46,3.35-13,6.63-3.16,4.06-4.74,8.81-8.76,12.75-2.56,2.51,1.85,6.18,6.21,7,11.57,2.1,18.87-9.16,30.84-5.56.85.25,3.08-2.23,4.66-3.45Zm65,28.49H500.3c-9.52,0-11.6,2.08-10.69,9,.87,6.59,11,11,7.09,18.72-.42.84,2.53,2.51,3.43,4,1.78,2.89,3.13,6,5,8.8.14.21,4.33-.58,4.35-1,.25-3.49.91-6.59,4.91-8.93,4.46-2.63,2.79-7.39,6.66-11,6-5.64,2.62-14-5.1-17.36C512.39,531.46,508,531.08,507,530.87Zm63.33-219c.66,5-.62,10.23,2.17,13.14,5.09,5.31,11.83,9.57,14,16.45.46,1.45,2.89,2.6,4.63,3.68s3.69,2.64,5.26,2.45c2.85-.35,6.77-1.32,7.87-3,1.37-2.06,1.18-5.32.12-7.62-1.39-3-5.47-5.37-6.27-8.36-1.12-4.15,1-9-.66-12.87-1.62-3.71-5.68-7.52-10-9.54-3.31-1.52-9-1-13.12,0C572.31,306.73,571.45,310.23,570.35,311.9Zm93.56-58.1a64.78,64.78,0,0,0,8.77-3.23c5.15-2.58,5.94-5,3.1-7.22-5.48-4.28-10.95-8.57-16.52-12.78-5.35-4-8.54-4.29-13.71-.66-5.53,3.88-9.88,9-18.53,9.24-.78,0-1.73,2.76-2,4.3-.64,3.15,1.88,4.56,5.49,5,4.23.46,10.5-.48,12.37,1.35C648.12,254.92,654.66,253.35,663.91,253.8Zm83.7,350.05c-3.47-7.14,1.8-13.33-3.4-20.16-4.94-6.49-9.14-13.22-16.92-18.06L704.89,557a18.28,18.28,0,0,0-3,.64c-3.09,1.17-2.67,2-.52,3.75,5.2,4.13,12.87,7.18,12,14.38,5,2.53,5.13,7,7.5,10.63s7.4,6.48,11.66,9.31C736.38,598.3,738.61,602.46,747.61,603.85Zm49.63,10.45c-1.09,2-3.81,4.47-3.1,6,5.91,12.86,17.43,22.53,31.12,30.74,1.38.83,4.39.37,6.52,0,3-.46,7.12-.73,8.48-2.28s.54-4.92-.92-6.72c-3.89-4.76-13-7-11.65-14.31C820.08,620.48,809.41,617.24,797.24,614.3Zm-469.74,188c0-1.73.87-3.89-.15-5.1-4.76-5.64-8.15-11.47-7.29-18.38-10.09-3.69-2.42-13.1-9.4-17.65-5.24-3.41-1.78-8.16-3.71-11.77-2.35-4.38-7.08-8-8-13-.09-.48-1.68-1.28-2.23-1.13-.94.25-2.27,1.1-2.31,1.73-.37,6.82-.51,13.66-.72,20.49,9,5.74,6.29,13.7,6.94,21.1.11,1.35,2.68,2.51,3.85,3.89,2.93,3.44,9.75,4.66,9.48,9.89s9.48,7.33,7.19,13.32a20.89,20.89,0,0,0,4.54,1.07c.53,0,1.44-1.17,1.73-1.91A7.35,7.35,0,0,0,327.5,802.27ZM437.06,646c-8.49-1.06-15.32,1.34-19.91,6.7-1.48,1.73-2,5.2-.77,6.87,5.63,7.56,15.31,9.78,25,5.1,3.9-1.88,7.89-2.33,11.55-3.73,1.93-.74,3.76-5.32,2.66-6.49C451.19,649.69,446.73,644.09,437.06,646ZM232.87,278.34c0-1.7.46-3.51-.14-5.07a6.73,6.73,0,0,0-3.5-3.77c-1.8-.65-4.92-.83-6.4,0-6.81,3.66-10.22,10.2-20.66,11.12-5.64.49-2.94,7.33-2.86,11.28,0,2.5,3,3.95,6.94,3.7,4.37-.27,8.79.08,13.18-.1s12.92-6.22,13.37-9.47A57.4,57.4,0,0,0,232.87,278.34Zm290.65,62c-1.62-1-3.08-2.49-4.9-2.84s-5.43-.14-6,.74c-3.48,4.92-7.28,9.92-9,15.28-1.29,4-.07,8.25-5.2,11.52-1.68,1.08-2.27,5.71-.94,6.63,4.43,3.08,5.82,6.83,6.95,11a3.08,3.08,0,0,0,2.28,1.65c.85-.05,2.4-1.23,2.27-1.69-1.87-6.63,9.16-9.21,8-15.78a30,30,0,0,1,.11-13c1-3.82,4.32-7.25,6.45-10.91C523.87,342.18,523.52,341.19,523.52,340.32ZM635,504.72c2.21,0,4.41,0,6.62,0,11.6-.27,18.81-7.31,17-16.92-.27-1.43-2.07-3.74-3.35-3.82-6.57-.38-13.71-1.33-19.66.21-4.34,1.12-7.24,5.74-10.59,8.93-.54.51,0,1.67-.09,2.51C623.87,502.93,625.79,504.68,635,504.72Zm-3.74-65.18c-1.94-1.68-3.9-3.5-6-5.19-4.7-3.71-9.49-7.36-14.24-11-.79-.62-1.47-1.59-2.39-1.77-2.09-.38-4.52-.87-6.39-.37-1.72.45-3.9,2.05-4.12,3.32a46.06,46.06,0,0,0-.16,10.37c.54,8.62,13.28,15.49,23.48,12.12C625.19,445.73,627.77,442.25,631.23,439.54ZM537,406.07c-.56-1.55-.51-3.61-1.82-4.55-3.44-2.49-6-5.06-4.92-8.88,1.43-5-2.47-8-6.83-10.79a12.28,12.28,0,0,0-4.73-1.49c-.51-.07-1.86,1.18-1.9,1.85-.39,7.46,1.47,15-6.53,21.47-3.37,2.74,7.19,12.12,13.19,12.12C527.73,415.8,536.54,409.47,537,406.07ZM889,614.35c-1.47-2-2.38-4.5-3.56-4.58-3-.21-8.68.65-8.69,1.15-.18,7.44-8.63,7.69-14.06,10.88-11.77,6.93-10.2,10-1.47,16.07,5.61,3.91,8.32,3.7,13.93.24C885.37,631.79,880.23,620.6,889,614.35ZM205.77,384.42c-2.19,0-4.38,0-6.57,0-5.34.12-6.15,1.62-7.07,6.34-1.18,6,3.37,9.15,7.9,12.84,3.82,3.12,8.2,1.28,12.29,1.67,5.93.57,7.11-2.44,7.07-6.2a4.47,4.47,0,0,1,.85-2.25c3.89-6.19.34-11.84-7.9-12.39C210.17,384.29,208,384.42,205.77,384.42ZM311.74,693a13,13,0,0,0,3.31,0c8.93-2.54,12.71-11.41,23.83-11.55,1.59,0,3.14-2.26,4.7-3.47a25.51,25.51,0,0,0,2.33-1.84c.56-.53,1.46-1.58,1.27-1.74-2.22-1.92-4.94-3.52-6.88-5.57s-2.57-1.46-4.91-.45c-10.51,4.55-22.15,10.89-27.6,16.56-1.08,1.12-1.06,3.44-.38,4.87S310.23,692,311.74,693Zm238.34-240.6a12.45,12.45,0,0,0-3.22.33,7.36,7.36,0,0,0-2.29,1.7c9.85,8.83,19.24,18.05,32.53,24.08a4.45,4.45,0,0,0,3.22,0,18.05,18.05,0,0,0,3.08-3.28c-7.06-3.25-5.62-8.61-6-13.65-.09-1.35-2.69-3.87-3.38-3.73C564.47,459.89,557.67,455.07,550.08,452.41Zm-84.9,21c1.62-.29,7.26,0,9.38-2,3.07-2.87,1.95-8,7.3-10.35a16.07,16.07,0,0,0-2.65-3.39c-.54-.43-2.11-.08-3.22-.08-4.41,0-8.83.14-13.24,0-6.32-.25-6.73,2.93-6.85,6.53C455.65,471.58,456.66,473.05,465.18,473.46Zm-97.13,21a26.8,26.8,0,0,0-.07-5.07,23.77,23.77,0,0,0-1.84-4.48c-1.55.44-3.48.57-4.58,1.38a155,155,0,0,0-13.62,10.89c-1.07,1-1,3.7.05,4.88,3.7,4.33,9.79,2.53,14.89,2.49,3.3,0,5.82-1.78,5.23-5A27.79,27.79,0,0,1,368.05,494.48ZM611.39,300.73a23.84,23.84,0,0,0,.08,5.07,21.81,21.81,0,0,0,2,4.41c1.55-.54,3.44-.82,4.59-1.68a159.36,159.36,0,0,0,13.41-11c1-1,.64-3.5-.3-4.8s-3.24-2.23-5.1-2.4C613,289.11,611.39,290.36,611.39,300.73ZM212.59,441.91c0-2.57.53-5.25-.24-7.68-.36-1.15-3.33-2.7-4.88-2.55-2.9.28-7.8,1.43-8,2.63a56.64,56.64,0,0,0-.15,15.39c.1,1,3.34,2.68,4.89,2.53,2.89-.28,6.91-1.12,8.06-2.74C213.66,447.51,212.59,444.49,212.59,441.91Zm371.76,97.82c.27,1.62-.08,3.57,1,4.75a7.64,7.64,0,0,0,5.33,1.95c7.25-.87,14-6.53,13.8-11.54a5.25,5.25,0,0,0-3.28-3.89C590.4,528.39,584.1,531.79,584.35,539.73ZM232.87,497.44c0-4.4.31-7-.09-9.49-.43-2.69-2.33-4.2-6.42-4.27s-6.32,1.3-6.91,3.89c-1.43,6.21.59,11.59,7.69,15.36a17.14,17.14,0,0,1,2.35,1.79c.77-.6,2-1.12,2.24-1.82A49.63,49.63,0,0,0,232.87,497.44ZM888.52,779c0,4.41-.43,7,.12,9.49s2.66,4,6.72,4,6-1.54,6.62-4.16c1.46-6.31-1.09-11.5-8-15.27-.81-.45-1.72-1.45-2.3-1.33a3.33,3.33,0,0,0-2.27,1.71A46.22,46.22,0,0,0,888.52,779ZM175.41,269.35a26.08,26.08,0,0,1-3.31,0c-4.12-.54-6,1.35-6.78,4-1.11,3.67,1.74,6.31,6.78,6.49,2.2.07,4.45-.18,6.62.05,4.14.45,6-1.37,6.78-4,1.11-3.67-1.74-6.29-6.77-6.5C177.62,269.31,176.52,269.35,175.41,269.35ZM798.24,437.23c-1.56.88-4.1,1.62-4.16,2.47a100.68,100.68,0,0,0,0,15.14c0,.72,4,2,4.08,1.88,3-3.23,9.32-4.51,9.31-9.63S800.78,440.92,798.24,437.23ZM483,502.37h.1c0,1.68-.88,4.18.18,4.86a16.09,16.09,0,0,0,8.28,2.53c3.27-.08,5.2-2,5.08-5.13-.21-5.12-6.6-6.29-9.39-9.7-1.42.79-3.58,1.37-4.07,2.41C482.44,498.84,483,500.67,483,502.37Zm-209.61,28.5,6.59-2.43c-1.38-1.2-2.76-2.4-4.16-3.58-.74-.62-1.61-1.16-2.3-1.81a9.5,9.5,0,0,0-11.16-1.7c-1.39.66-2.11,2.72-2.33,4.22-.7,4.73,3.45,5.33,8.14,5.3ZM578.79,417.49c-3.45-2.05-7.49-6.14-10.2-5.67-4,.69-7,4.65-10.48,7.21,3.18,2.36,6.58,6.74,9.48,6.55C571,425.36,574,421.18,578.79,417.49ZM331.24,384.42c-.94,1.11-2.94,3-2.66,3.22,5.11,4.27,10.49,8.35,15.91,12.39a13.13,13.13,0,0,0,2.15-1.71,3.56,3.56,0,0,0,1.08-2.12c-.3-6.67-5.7-10-13.26-11.75A15,15,0,0,0,331.24,384.42Zm209.11-120.3a25.61,25.61,0,0,1-3.28,0c-4.07-.54-6.49,1.37-6.55,3.9-.06,2.17,1.27,5.45,3.28,6.24s6.12-.3,8.64-1.43a22.39,22.39,0,0,0,6.87-5.36c.4-.43-1.23-2.82-2.48-3.19C544.92,263.71,542.53,264.12,540.35,264.12ZM303.62,849.75c.88-1.23,3.11-3,3.41-5,.61-3.91-2.85-6-8.12-5.23-3.39.5-5.63,1.87-5.3,5.12C294,848.58,296.7,850.5,303.62,849.75ZM569.74,503c-.34-4.47-9.76-9.69-15.79-8.63-.89.15-2.22,1.13-2.2,1.7.15,4.47,9.65,9.7,15.69,8.64C568.33,504.5,569,503.54,569.74,503Zm262.43-82.76c.76-1.43,2-2.82,2.19-4.28.59-5.06-6-6.38-9-9.55-.2-.2-3.94.81-4.23,1.63C819.52,412.61,826.39,419.92,832.17,420.19ZM755.44,871.83c-.7.61-2.1,1.31-2,1.82.5,2.3.54,5.37,2.43,6.58s5.67.4,8.61.2c.82,0,2.22-1.14,2.17-1.68C766.5,877.23,757,871.62,755.44,871.83ZM587.73,750.55c-.75.58-2.24,1.29-2.11,1.71a14.87,14.87,0,0,0,2.11,3.52c.75-.59,2.24-1.29,2.11-1.72A14.82,14.82,0,0,0,587.73,750.55Z"/><path d="M1003.4,572.07c-.68,1.47-.89,3.52-2.26,4.44a9.5,9.5,0,0,1-6,1c-1.89-.28-5-1.64-5-2.6-.39-8.95-.35-17.92,0-26.88,0-.86,2.58-1.82,4.14-2.39.36-.13,2.17,1.14,2.19,1.79.19,6.12-1,12.32,6.74,16.77C1004.74,565.09,1003.4,569.3,1003.4,572.07Z"/><path d="M983.15,486.26c0,5.75.4,8.54-.18,11.18-.26,1.15-2.47,2.09-4,2.9-.19.1-2.34-1.44-2.18-1.79,4-8.81-7.4-14.14-7.36-22.23,0-12.64.41-15.78,3.52-13.62,5,3.48,4.06,9.45,9.06,13.54C984.94,478.6,983.06,484.8,983.15,486.26Z"/><path d="M969.63,454.5c0,1.82-.39,3.71.09,5.43.79,2.79-.13,3.74-3.43,2.7-1-.31-2.38-1.32-2.29-1.86,1.44-8.3-6.36-14.39-7.8-21.95-.12-.63.91-1.54,1.65-2.11a5.06,5.06,0,0,1,2.24-.8c3,3.59,9.78,4.89,9.56,10.41C969.54,449.05,969.63,451.77,969.63,454.5Z"/><path d="M995.6,663.36l-2.31,1.87c-.77-.62-2.18-1.22-2.21-1.87q-.42-8.94-.32-17.89c0-.63,1.32-1.53,2.24-1.76.54-.14,1.55.73,2.26,1.24C1006.39,652.82,1006.42,654.81,995.6,663.36Z"/><path d="M990.73,520.16c-1.07,2.56-2,4.93-3.12,7.24a3.16,3.16,0,0,1-2.19,0c-3.2-2.95-3.2-11.51,0-14.46a3.16,3.16,0,0,1,2.19,0C988.73,515.23,989.66,517.6,990.73,520.16Z"/><path d="M989.09,629.65c1.07-2.56,2-4.93,3.12-7.24a3.16,3.16,0,0,1,2.19,0c3.2,3,3.2,11.51,0,14.45a3.11,3.11,0,0,1-2.19,0C991.09,634.58,990.16,632.21,989.09,629.65Z"/><path d="M993.84,682.1c.78.64,2.22,1.53,2.09,1.74a11.9,11.9,0,0,1-3.08,3.22,3.44,3.44,0,0,1-2.83,0,2,2,0,0,1,0-2.3A24.63,24.63,0,0,1,993.84,682.1Z"/><path d="M995.69,590.54l-2.4,3.53c-.75-.61-2.24-1.35-2.11-1.8a15.77,15.77,0,0,1,2.11-3.68Z"/><path d="M679,640.45c0-6.92-.21-12.12.18-17.3.08-1,2.46-2,4-2.74.19-.1,2.14,1.1,2.19,1.74.31,4.29.13,8.59.48,12.87.41,5-1.13,11.58,2.35,14.61,5.51,4.81,4,9.5,4.28,14.37.35,5.18.08,10.38.08,15.57,13.14,9.13,6.39,21.14,6,31.56-.26,7.06,10.72,8.82,7.87,16.1-1.86,4.75-.71,10.32-.2,15.48.26,2.65-.36,3.77-3.42,2.48-1.62-.67-3.74-3.05-3.28-3.89,4.27-7.82-7.28-11.87-7-18.67.23-6,.68-12.16-.12-18.15-.85-6.4-9.29-10.83-7-18.68,1.92-6.59.39-13.78.39-20.7C674.9,657.63,680.55,647.62,679,640.45Z"/><path d="M733.06,802.1l-13.52-14.92c-1.16-6.54,3.79-14.13-5.11-19.33l-1.65-20.5c4-.62,7.06,1.66,6.51,4C717,761.22,730,768,726.81,777.88,737.47,784.5,731.48,793.94,733.06,802.1Z"/><path d="M712.78,766.24c-3.91.58-6.37-1.3-6.59-3.7-.53-5.72-.17-11.48-.17-17.22,3.9-.59,6.37,1.29,6.59,3.69C713.13,754.73,712.78,760.49,712.78,766.24Z"/><path d="M564.07,911.59c-1.12,0-3.15.19-3.22,0-3.25-10-13.19-15.9-21.57-22.65-4-3.22-1.35-6.82-2.24-10.17,9.94.58,11.69,12.42,23.29,11.24.92-.1,3.34,3.86,3.57,6C564.44,901.18,564.07,906.39,564.07,911.59Z"/><path d="M537,878.74q-7,.21-6.76-5.48Q537.29,873.05,537,878.74Z"/><path d="M530.28,873.26q-7,.21-6.76-5.47Q530.53,867.58,530.28,873.26Z"/><path d="M800.1,274.26c-.78.63-1.89,1.79-2.14,1.68a13.55,13.55,0,0,1-4-2.49,2,2,0,0,1,0-2.29,3.47,3.47,0,0,1,2.84,0A21.41,21.41,0,0,1,800.1,274.26Z"/><path d="M526.66,249.66c4.19-.47,7.93-3.83,12.65-1.81a15.89,15.89,0,0,0,8.86.92c7.64-1.73,15.05-4.49,22.69-6.28,9.5-2.23,18.48-7.46,28.64-6.07,15.08,2.05,31.39,1.2,44.28,8.44a61,61,0,0,0,8.49,3.38c7.09,2.65,19.07-3.4,18.64-10-.34-5.16-5.48-10.52-3.65-14.92,2.24-5.41,3.86-9.82,1.82-15-2.25-5.67-5.86-11.7-4.76-17.45s7.3-11.36,11.26-17c6.7,2.61,13.86,4.22,14.65,11.7.54,5.17,3.36,10,4.34,15.09.43,2.22-1,4.92-2,7.33-2.35,5.63-1.58,11.24,4.27,13.31,6.17,2.18,6.69,7.66,12.31,10.31,4.26,2,3.17,9.84,7,13.26,6.46,5.82,11.82,13.06,22.53,15.16,5.38,1.05,1.34,3.64.34,5.65a20.22,20.22,0,0,1-1.7,2.44c4.77,1.38,9.38,3.26,14.41,3.85,1.49.17,6.27-3.85,5.95-5-4.25-15.15-9.21-30.1-13.85-45.15-2-6.61-3.75-13.32-5.62-20,7.77-7.31,0-13.27.51-19.85.28-3.85,4.34-8,7.36-11.76.87-1.07,4.78-1.95,6.08-1.37,5.16,2.29,12.2,2.52,13.43,9.18,1.11,6,1.79,10.92-1.16,17.52-2.61,5.86,7.09,12.2.23,19.71,1.25,5.83,2.53,11.64,3.75,17.47,1.86,8.93,9,17,1.84,27.43-1.21,1.76,1.3,4.9,2.09,7.4l24.45,77.59c1.53,4.89,2.09,10.11,9.62,11.9,1.51.36,2.45,4.62,1.48,6.58-1.62,3.29-4.89,6,1.45,7.55,1.64.4,2.85,2.1,3.74,3.45,5.2,7.88,2,18.45,12.34,25.18,8.9,5.78,7.39,17.17,10.7,26,1.36,3.59,5.27,4.82,7.31,7.23,5.46,6.43,16.09,10.14,15.6,19.87,0,.86.12,2,.8,2.45,8.53,5.28,15.33,11.85,21.95,18.58a3,3,0,0,0,2.3-.22c.8-.62,1.95-2,1.68-2.32-4.71-6.35-.21-13.17.92-19.86,1-5.76,6.39-11.72,1.72-17.31,3.42-10.05,4.74-20.82,14.21-29.14,3.27-2.86,10.29-5,14.7-4.58,6.17.64,11.83,3.69,17,6.45,2.18,1.15,3.12,4.06,3.85,6.4,2.25,7.18,4.93,13.77.76,22.45-2.73,5.68,7,12.33-.63,19.68,1.81,6.66,3.49,13.37,5.48,20,.89,2.94.84,8,6.09,6.51,3.05-.88,5-6,7-9.29,10.61-17.6,17.38-21.85,36.71-21.17,14.74.51,25.51,6.51,37.65,10.74.66.23.84,1.57.81,2.43-.36,9.43,15.48,10.88,13.89,21.09-.62,4,3.65,5.38,7.28,7.21,2,1,3.78,4.81,2.77,6.23-3.08,4.34-3.75,8-2.19,12.49,2.28,6.48,3.53,13.28,5.21,19.94-7.62,7.45-.39,13.31.44,19.85-8.16,6.57,0,13.33-3.18,19.68-1.8,3.57-4,6.75-1.53,9.89,4.93,6.37,1.15,13.26-1.08,19.83-2,5.81-8.57,12-7.79,17,1,6.21-2.1,11.82-1.92,17.41.19,6.1-4.56,10-7.65,14.65-2.74,4.08,4.05,11.23-7.58,12.45a4.33,4.33,0,0,0-2.29,1.78c-4.67,6.45-8.77,13.17-14,19.33-4.3,5-10.24,9.23-14.88,14.12s-3.1,13.76,2.7,15.76c6.53,2.26,12.16,8.09,20.13,5.71,17-5.08,25.52,5.62,38.13,8.55,1.32,4.18,3.1,8.25,3.83,12.54.83,4.95,6.32,9.35,2.08,14.86s-1.72,11.53-6.55,17.39c-6.76,8.19-3.77,13.39,7.16,14.46,6,.59,12.24.31,18,1.84,14-5.94,26.73-.32,39.72.1,14,.47,28.08,2.33,42.07,3.77,4.07.41,7.89,1.79,11.65,3s4.81,5,2.3,8.6c-2.71,3.9-4.51,8.39-11.36,9.5-4.37.71-8.62,2.43-13,3.61-7.44,2-14.1,3.82-19,10.54-2.62,3.62-13.08,2-16,8.77-.54,1.26-3.36,2.91-5,3-11,.59-13.52,12.09-24.86,13-10.43.82-18.65,5.87-22.7,14.6-.67,1.46-3.18,3.77-4.31,3.68-11.1-.86-12.5,10.28-21.65,12-6.56,1.23-13,4.87-19.4,5.17-9.76.45-8.92,10.38-18.4,11.38-8.66.91-17.26,4.63-25.88,7.11-7.55,2.17-15.25,4-22.6,6.62-6.87,2.46-9.36,9.92-18.42,10.87-6.5.69-13,3.5-19.42,5.36-7.54,2.17-15.1,4.32-22.63,6.53-2.11.61-5.75,1.25-6,2.11-2.46,9-15.4,6.88-20.25,13.35-1.55,2.07-4.63,3.68-7.33,5-10.1,5.12-11.45,5.54-7.69,13.38,3.38,7-4.4,13.49-1.83,19.94-7.82,7.29-1,13.28-.26,19.84.43,3.71,11.83,1.64,5.85,8.46-4.1,4.68.75,8.26.64,12.42,0,1.37-1.7,3.5-3.27,4.22a45.45,45.45,0,0,1-9.63,2.88c-5.74,1.23-9.84,3.51-12.79,8.15a260.88,260.88,0,0,1-17.29,24.26c-4.76,5.9-13.42,9.19-17,16.43-3.33,6.78-8.31,13.36-13.73,19.4-6.34,7.06-15.26,12.4-23.24,18.29-8.8,6.5-15.61,15.61-28.79,17-21,16.6-49.15,17.19-73.31,26.69-8.77,3.44-16.39-3.65-24.83,1.54l-21.54.74c-1.08.28-2.41,1-3.18.78-7.57-2.26-13.74-7.07-23.63-5-2.54.53-5.64-2-8.49-3.09l-22.76-8.89c-1-.37-2.7-.64-2.72-1.13-.41-8.34-12.17-10.94-13.37-18.16-1.25-7.48-8.4-10.74-12.18-16.19-3.48-5-3.62-11.65-6.23-17.2-.48-1-5.8-.73-8.71-.12-1.57.33-3,2.52-4.11,4-3,4-6.64,7.91-8.48,12.16-2.48,5.74-11.17,5.73-14.05,11.42-1.16,2.29-7.32,3.57-11.36,4.91a160,160,0,0,1-16.17,4.61c-3,.65-6.61,1-9.12.22-7.83-2.58-17.51-4.3-22.24-9.15-5.24-5.38-9.73-11.6-14.8-17.32-1.71-1.92-1.49-5.71-3.64-6.54-7.55-2.91-12.06-8.48-16.23-13.38-4.48-5.27-4.32-13.18-7-19.66-2.19-5.34-1-11.82-9-15.26s-5.47-12.28-8.38-18.46c-2.61-5.54-3.84-11.62-5.68-17.46l-6.31-20c-1.84-5.84-3.24-11.84-5.65-17.47-2.26-5.28-12.35-6.29-11.19-13.63,1.19-7.52-8.41-8.47-11.74-13.4-3.19-4.72-11.3-6.94-10.92-13.77.49-8.72-8-12.87-13.34-18.35-3.56-3.68-9.82-5.48-10.32-11.3-.12-1.43-1.7-3.49-3.2-3.73-11-1.76-14.35-11.28-24.25-14.1-3.87-1.1-8.2-2.29-8.26-6.5-.09-6.47-6.05-8.63-12.06-10-7.92-1.79-7.25-7.54-8.89-12.23-.24-.67,2.86-3.24,3.25-3.11,3.84,1.29,9.75,2.25,10.62,4.7,1.77,5,6.35,6.3,11,7.85,5.46,1.81,10.7,7.13,17.49,2.09,5.12-3.81.37-8.22-.59-12.21-.81-3.4-.38-6.32.85-10,2.5-7.45.09-13.57-4.94-18.63-1.2-1.21-4.83-1.17-5.32-2.4-2.3-5.69-3.35-11.81-5.88-17.39-2.35-5.21-10.35-6.75-11.7-13.53-1.27-6.36.29-15.2-8.42-18.22s-3.11-14.24-14.36-14.72c-3.64-5.63-3.74-13.46-14.51-14.53-16.48-1.63-16.64-13.36-19.47-23.13-.59-2,.94-5.18,2.67-7.23,4.87-5.76,6.69-11.23,3.6-17.36-2-3.91-2.71-8.31-4.08-12.46-1.6-4.82-3.62-8.69-9-12.25a13.3,13.3,0,0,1-3.76-18.69c3.2-5-.45-8.36-.87-12.47-9.64-2.34-8.88-10.22-12.4-16-4.12-6.75,4.17-13.39,1.25-20-2.83-6.4-4.31-13.29-6.38-20,7-5.88,1.26-11.65,2.52-17.27,1.11-5,6.49-9.72,9.87-14.6,4.36-6.3,4.23-6.26-2.45-12.49-1.88-1.75-4.35-3.78-4.48-6-.4-6.87-8.06-6.93-13.79-10.24-4.57,6.42-8.33,13-13.53,18.73-9.67,10.71-8.29,23.1-13.91,34.38-.75,1.5-.53,3.32-.37,4.92.59,5.74,6.88,11-.16,17.36,1,5.82,2.22,11.6,2.77,17.48.08.86-3.08,2.22-4.74,3.34-2.1-6.67-3-13.87-6.62-19.87-4.06-6.83,5.53-13.82,1-19.89-3.89-5.25,4.62-9.61,2.73-14.93s-7-10.91.08-17.26c-1.88-5.14,4.51-10.28,3.31-14.67-2.28-8.4,13.27-13.86,7.53-22.19,3-4.87,11.73-5.65,13.36-11.56,13.09-4.74,15.37-12.19,11.62-21.57-1.58-3.94-1.93-8.28-2.84-12.44,9.07-6.34-2.71-13.14,3.55-19.83,1.59-1.7,1.52-5.14.65-7.24-2.83-6.8,1.09-13.83,4-19.65a123.84,123.84,0,0,1,22.38-31.4c6.4-6.44,14-12.91,25-16.65,11.36-3.87,20.77-.26,31.12-1.37,1-.1,2,2.5,3,3.87,4.24,6,14.52-.63,19.22,4.37.6-1.63,1.72-3.32,1.7-4.89-.06-4.3-4.75-5.49-8.58-6.18-10.9-1.93-16.77-8.94-24-14.24-9.08-6.64-3.81-18.86,8.77-22.8,4.2-1.31,7.51-2.43,11,1.28,6.49,6.9,12.57,14.69,24.21,16.93,7.77,1.5,10.17,7.43,15.75,10.66l22.26,8.7c10.81-3.16,17.28,4.2,26.6,4.75,10.08.6,20.07,2.7,30.14,1.88s15.76,8.73,26.79,4.05c3.81,2.57,10.78,1.83,12.15,7,.22.84.27,2.3.83,2.4,10.77,1.91,15.29,10.29,24.3,14,4.45,1.82,9,3.53,13.82,5.41,2.49-7.35,2.5-13.45-6.39-15.5-7.57-1.75-10.72-7-15.7-10.73-3.51-2.66-6.41-5.88-10.24-8.21-3.28-2-8.87-2.26-10.93-4.75-2.86-3.45-5.35-6.5-10.37-8.25-6.23-2.18-14.91-12.39-21-19.13-4.67-5.15-9.37-9.68-12.38-16.06-3.78-8,2-15.1,2.5-22.52.31-4.37,4.81-9.95,13.17-11.29,6.56-1.06,12.88-4,19.44-5.31,6.78-1.36,8.22-5.91,11.26-9.64,3.19-3.92-.54-7.93,3.14-12.49,3.4-4.22,8.7-5.51,12.06-9a30.42,30.42,0,0,0,3.48-4.83c2.68-4.1,5.32-7.53,11.78-9.16,15.22-3.82,30.22-8.5,45.31-12.85,9.36-2.71,18.46,3.19,27.9-2.08,6.93,2.21,13.87,4.42,13.73,11.95-9.41,2.75-18.87,6.54-27.26.38-3.45-2.54-7.68-1.4-12-.06-9.52,2.94-19.06,6.65-28.74,8-9.08,1.28-11.32,8.15-18,11.09-7.51,3.29-9.1,10.13-13.12,15.44-1.42,1.88-.9,4.91-.4,7.22.92,4.2,2.66,8.21,3.74,12.38,1.15,4.44,4.66,4.78,9.44,3.16,10.7-3.64,21.05-6.27,27.82,2.93-8.3,2.1-16.41,6.56-24.9,1.86-2.3-1.28-13.64,8.62-12.8,11.49,2.12,7.31,1,17.09,8.81,20.81,8.55,4.08,4.59,15.52,16.55,16.27-1.3,8.24,10.18,10.17,11.62,16.15,2.07,8.54,11.15,8.95,17.56,12.6,1.43.81,2.16,2.8,2.35,4.39.56,4.85,4.28,7.09,9.29,9,3.53,1.32,7,2.45,9.87,5.38,5.91,6.13,11.39,13.53,21.78,15.4,11,2,14.31,11,24,14.28,19.4,6.63,38.23,14.22,56.77,22.1,8.38,3.55,17.84,2.78,26.78,4,1.36.18,4.17-1.58,5.07-2.9a5.1,5.1,0,0,0,.12-4.8,7.61,7.61,0,0,0-4.19-3.14c-5.84-1.91-5.62-8.9-12.86-9.51-.05-6.86-12.28-6.28-11.91-13.05.35-6.56-10.39-6-10.37-11.06,0-7.33-10.89-8-11.21-13.56-.4-7.28-8.83-8.36-12-13.35-3.06-4.77-11.39-6.74-11-13.67-7.69-2.29-7.55-13-21.06-10-6.16,1.36-20.9-12-22.81-17.29-1.48-4.1-2.65-8.31-4-12.47,3.8-1.71,6.87-.46,7.48,2,1.26,5.12,7.12,5.3,11.13,7.48,2.12,1.15,2.65.15,4.45-1.88,8.15-9.15,5.2-17.78-2.07-23-10.2-7.37-8.51-18.16-13-27-.52-1,1.6-3.12,2.43-4.72,2.47-4.72,9.62-9,5.33-14.39-4.13-5.22,4.11-9.66,2.67-14.63C537.16,260,533.48,255.14,526.66,249.66Zm-58,748.66c1.17-.34,2.25-.63,3.32-1,5.64-1.74,6-3.28,5.69-7.93-.58-8.32-7.07-13.56-13.36-18.36s-14.09-9.38-24.85-8.06c-1,.12-2.43.41-3,0a28.94,28.94,0,0,1-3.71-3.54l3.23-.93c4.32-1.25,8.74-2.25,12.9-3.82,2.56-1,2.74-10.08-.5-12.17a38.82,38.82,0,0,0-13.48-5.28c-1.73-.33-5.31,2.65-7.5,4.53-13.59,11.61-29.5,9.54-44.93,8.79-4.08-.2-7.43-3.23-11.51-4.1a18.74,18.74,0,0,0-9.15.82c-3.07,1-2.93,6.54,1,8.75,3.41,1.93,7.2,3.09,7.62,7.08.18,1.73.27,4.18,1.64,4.88,7.58,3.88,12.22,10,18.58,14.84.67.5.42,2,1.13,2.23,10.36,4.17,20.3,9.27,31.44,11.93,7.26,1.73,15.84,1.8,23.88,2.34C454.45,999.88,461.26,1001.58,468.63,998.32ZM343,597.48l-2.88.83c.23.75.15,1.81.76,2.18,2,1.21,4.51,2.74,5.84-.93.18-.49-2.41-1.37-71.89-179.11-6.45,1.86-11.13,2.06-12.67,3.84C255.55,431.9,249.93,440,244,447.87c3.14,6.44-.59,13.17-1.15,19.78-1,11.8,13.42,21.35,3.61,34.79,13,3,11,13.51,13.21,21.28s7.25,13.27,13.43,18.41c4.83,4,11.23,6.93,11.24,13.67,9,2.7,10,9.62,12.32,16,.76,2.09,3.35,4.61,5.81,5,10.29,1.48,11.9,10.94,20.93,13.34.23,5.45,6.22,6.06,10.62,8a7.84,7.84,0,0,0,2.85,1.06c3.48,0,4-1,2.5-3.41-5.75-9.36-.81-23.36-16.14-28.58-4.49-7.18-.07-18.21-12.35-22-3.09-8-6.37-16-9.2-24.14s-5.42-16.65-7.91-25c-2.38-8-7.82-15.72-.8-24.82-1.84-5.84-5.44-11.59-5.05-17.55.42-6.43,5-13,6.95-19.61,1.57-5.24-4.31-12.31-10.92-13.42C280.08,420,275.8,420.46,343,597.48ZM332.11,425.21c-5.89,8.69-5.68,8.59,1.68,19.3,2,2.87,1.84,6.75,3.41,9.87,1.23,2.44.91,3.47-2.56,3.42a5.55,5.55,0,0,1-2.81-1.08,10.81,10.81,0,0,1-1.69-1.88c-5-5.25-4.59-5-7.22-2.39-7.51,7.38-9.89,16.11-11.67,24.43-1.22,5.7,1.7,11.65,3.15,17.38,1.28,5.07,3.08,10,4.66,15s3.1,10,4.73,15,3.33,9.86,5,14.79c10.55,1.12,3.86,6.71,3.3,11s5.59,4.39,7.7,6.77c2.85,3.2,4.17,7.64,4.85,11.8.92,5.68,11.44,4.64,10.68,11-.77,6.55,8.48,6.35,10.66,11s.14,11.47,6.63,13.52c7.57,2.39,7.8,7.9,8.17,12.59.5,6.39,10.11,5.48,11,11,.67,4.37,2.32,8.15,8.37,9.5s9.12,5.83,13.44,8.94c3.75,2.69,5.79,6.44,9.69,8.64a63.87,63.87,0,0,0,14.14,5.56c4.31,1.18,7.32,5.3,14.23,3.13-1.9-7.71-3.9-15.07-5.33-22.55-.16-.8,2.77-2.75,4.59-3.35s4.49-.74,5.93,0,2.26,2.57,2.76,4.1c2.74,8.29,5.1,16.69,8.05,24.91.91,2.56,3.56,3.53,7.62,2.2,7.43-2.43,15-4.38,22.55-6.58,8.61-2.51,9.51-3.5,7.75-9.18-3.86-12.5-7.25-25.16-11.95-37.4-4.48-11.67-3.11-25.87-17.45-33.56-1.84-5.83-4.62-11.5-5.27-17.52-.8-7.47-12.81-7.91-12.58-16,.16-5.35-4.11-8.5-9.63-11.7-4.11-2.39-3.48-9.49-5.59-14.27-.55-1.25-4.17-1.26-5.13-2.52-4.09-5.34-12.19-7.92-14.6-14.37-11-2.93-9.88-11.54-11.53-18.8-.14-.64.86-1.89,1.7-2.3.56-.26,1.78.46,2.69.75,6,1.9,11.42,4.06,11.68,10.34a5.13,5.13,0,0,0,2.91,3.94,9.58,9.58,0,0,0,6-.27c1.8-.67,3.92-2.22,4.45-3.61s-.44-3.31-.91-4.94c-2-7-3.62-6.13-11.52-16.36-4.86-6.3-11.69-.38-16.51-3.44-3.06-1.94-4.25-.79-4.89,4.9-.58,5.18-1,5.5-4.3,4.36-13.34-4.57-18.48-16-29.62-22.38,1.14-7.39-9-8.24-11.22-13.58-2-4.88-9.06-5.32-11.88-10.37C347.88,429.48,338.48,428,332.11,425.21Zm207.53,671.93c1.84,5.82,5.19,11.51,5.13,17.5-.08,7.56,11.4,6.68,11.87,13.48.51,7.22,4.16,12.58,13.74,15,9.06,2.27,17.23,6.3,25.61,9.8,4.69,2,9.2,3.72,15,1.41,6.54,5.08,15.64-1.81,21.08.09,8.22,2.88,14.66-.06,21.93-1.84,11.38-2.79,22.58-9,34.37-4.43,6.69-3,15.59-1.79,20.41-8.76,1.39-2,5.12-4.46,7.57-4.54,11.3-.37,15.52-10,24.78-12.8,2.81-5.6,8.09-8.31,15-10,2.54-.62,4.14-4.16,6.78-5.48,8.09-4,10.89-11.85,17.18-16,7.56-5,11.83-10.72,16.34-16.83,4.13-5.61,11.29-11.57,11.34-16.87.08-7.92,5.93-13.2,9.44-19.59-5.68-5.54,6.59-11.1,2-17.44-4.45-6.08-13.87-9.46-13.89-17.9-5.24-2.51-12.35-4-15.2-7.81-3.06-4.09-7.39-6-12-6.92-7-1.43-6-8.21-12.68-9.9-8.83-2.23-16.37-7.85-27.14-1.9-6.75-4.09-14.75.52-21.28,0-6.35-.51-11.77-1.17-18.49.26s-12.62-1.16-15.28-6c-1.46-2.65-3.4-4.73-6.54-3.69-8,2.62-18.29,2.12-22.2,10.9-12.47,2.24-10.65,16-23.1,18.52-1.42.29-2.31,3-3.64,4.53-12.19,13.88-18.69,18.08-35.22,22.85-3.22.94-6.64,1.52-9.63,2.85-7.59,3.38-14.33,1.31-21.6,1.08A84.62,84.62,0,0,1,549.4,1025a9.06,9.06,0,0,0-10.15,5.36c-2.7,6.47-6.29,13-7,19.53-.55,5,3.59,9.87,4,15,.4,4.75-2.44,10-1.88,14.68C535.12,1085.63,537.81,1091.31,539.64,1097.14Zm500.45-584.7c-1.57-5-4.17-9.87-4.47-15-.41-6.95-7.74-9-11.6-13.52-5.51-6.38-14.09-10-23.54-9.56-6.36.29-11.19-4.65-18.34-.81-3.74,2-9.84,1.68-12.53,4.06-4.57,4.05-8.93,9.25-10.38,14.26-2,6.88-4,13.41-9.05,19.57-1,1.24-1.33,3.69-.51,4.8,4.88,6.51-3.28,13.2-2.2,19.92.42,2.63-5.27,6.28-2.66,9.69,7,9.13-4.71,20.69,2,30,1.13,1.56-.86,4.8-1.52,7.25-4.6,17.18-5.18,17.36-.43,29.62,2.37,6.08,1,13.4,9.76,17.72,8.21,4.07,5.53,14,9.47,20.76,1.35,2.3,10,.45,5.45,6.09-5.6,6.94,4,6.09,6.24,8.24,12,11.27,14.1,10.13,30.16-.58,7.53-5,14.07-10.44,16-16.8,3.83-12.41,12.41-24,14.12-36.69.77-5.73,1.34-12,4.6-17.07s1.73-9.93,4.17-15-1.53-11.4-2.08-17.28c-.13-1.42,3.21-3.37,3.07-4.79-.55-5.88-1.83-11.65-2.83-17.46,7.08-6.37,1.18-11.66.15-17.31C1042.54,519,1041.14,515.77,1040.09,512.44ZM752,606.28c-3.16-8.13-2.87-18.32-14.33-23.06-1.83-5.81-4.64-11.47-5.24-17.47-.76-7.5-12.22-8-12.8-15.88-.38-5.12-7.15-5.93-11.42-2.17-3,2.59-3.89,6.51-9.17,7.45-14.63,2.6-27.88,11.31-44.19,7.64-8.35-1.88-18.88,9.29-17.34,16.14,1.8,8.06,8,15.6.79,24.74a2.08,2.08,0,0,0,.75,2.37c12.9,4.93,10.06,17.27,16.12,25.39,10.53,2.17,9.39,10.44,10.85,16.69,2,8.32,7.08,13.25,16.63,16.15s14.23,3,22.49-4.58c7.9-7.28,19.65-11.41,25.15-20.45,9-1.53,11.3-11.43,21.29-11.9,4.2-.2,5.73-3,5.13-5.69C755.57,616.57,753.7,611.66,752,606.28ZM438.29,1034.36c-11-4.36-24-7.34-32.94-13.83-6.85-4.93-13.73-9.21-22.07-12.09-2.35-.81-6.2,0-9,1-1.11.36-2.32,3.39-1.8,4.62,4.87,11.55,3.8,25.22,17.06,33.88,4.06,2.65,4.55,9.48,4.85,14.63.41,6.94,8.36,8.72,11.38,13.58,2.3,3.69,1.14,9.8,4.52,12,4.94,3.2,7.43,7,10.62,11.13a48.81,48.81,0,0,0,27.27,17.83c7,1.79,12.62-2.62,19-3.68,3.26-.55,6.41-2,9.68-2.67,6.39-1.34,8.44-3.43,8.38-9.29-.05-4.54,4.53-10.27,8.8-14.33,5.82-5.52,2.92-11.65,6.31-17.38,2-3.34-.45-8.2-1.44-12.24-1.78-7.28-4.14-13.75-.61-22.38s-9.65-15.14-20.75-12C464.57,1026.74,451.7,1030.5,438.29,1034.36ZM278.36,738.48c1.19,3.77,2.56,7,3.19,10.42.69,3.72,2.94,5.83,7.17,7.32,9.62,3.38,18.41,8.32,28.52,10.58,6.61,1.48,13.74,2.65,20.55,3.58,17.73,2.4,35.8,7.2,54.93-1.45a54.49,54.49,0,0,1,6.4-1.89c5.79-1.76,7.3-3.51,5.74-7.72-2.87-7.76-2.21-17.29-13.59-21-2.51-7.06-2.51-15.4-12.88-18.46.08-11.23-12.44-11.94-21-16-13.25,2.35-21.53-4.88-31.86-8.12-4.9-1.53-9.32-3.85-14.2-5.42-6.67-2.13-12.65,2.26-18.84,3.8-2.53.63-5.12,3.41-6.57,5.6-5.65,8.55-4.39,18.12-9.1,26.76C274.1,731.58,278.59,734.71,278.36,738.48ZM214.14,399.66c-1.58.68-7.34,2-11.13,5-5.39,4.26-5.74,12.12-15.26,13.73-1.19,4.08-2.26,8.17-3.59,12.22-1.88,5.76-1.35,11.82-6.88,17.12-5.24,5-2,11.41-5.92,17.18-2.14,3.17,4.46,7.55.28,12.17S170.25,486.83,167,492c-2.59,4.06-.61,10.14,6.14,12.6,4.79,1.74,9.14,4.44,14.24,5.32,7.07,1.22,6.18,7.88,12.61,9.89,9.23,2.9,21.08,4.53,21.41,15.54,5.27,2.48,10.68,4.8,15.77,7.47,6.59,3.45,16.86,3.32,18.67,11.56.12.56,2.31,1.27,2.62,1,1.35-.95,3.6-2.69,3.31-3.32-2.77-6-1.25-13.38-10.11-17.47-4.23-2-4.1-9-6.61-13.46-2.41-4.28-9.93-4.91-10.7-11-.87-6.85-2.46-14.05-6.37-19.77-4.73-6.92,4.11-14.23.82-19.71-5.36-8.92,4.23-18.91-1.1-27.35,3.11-4.73,3-9.79,4.68-14.61.86-2.54,8.2-4.29,8.95-6.77.93-3.1-.39-6.3,2.19-9.82,3.23-4.42,10.73-10.18,4.3-13.93-4.85-2.82-13.47-2-20.54-2.14C224.21,396,220.86,397.73,214.14,399.66ZM916.78,726.09c.22-7.94-7.22-12.56-12.77-18.07-3.64-3.61-10.66-4.89-10.55-11.08.12-5.88-11-4.72-10.52-11.06,0-.48-16.31-15.78-16.77-15.9-10.24-2.63-15.14-9.93-21.19-16-3.6-3.6-7-1.56-11.09-1.3-8.28.53-8.29,8.48-15.11,10-8.82,2-2.68,7.33-4.82,10.94-5.14,8.66-5.19,18-8.81,27-2.72,6.71.59,11.51,7.73,14.36,8.48,3.38,16.8,7,25.63,9.88,6.44,2.07,10.18,5.29,10.81,10.94.49,4.45,6.11,4,9.32,5.81s8.33,2,8.59,6.31c.62,10.12,13,9.52,20.06,13.71,2,1.17,2.58-.1,4.49-2,4.78-4.71,9.73-9.87,15.9-13C918.52,741.05,920.67,734.68,916.78,726.09ZM630.85,378.67c-.12,5.91,6.81,7.43,10.1,11.17s4.47,9.6,4.89,14.75c.5,6.14,10.1,5.2,10.94,11,.75,5.14,2.7,10.11,4.66,15,1,2.55,3.58,3.64,7.62,2.26,1.76-.6,5.38-.6,5.8.14,2.92,5.19,5.22,10.64,7.72,16,10.59,2.23,7.75,11,11.14,16.71.6,1,3,1.86,4.57,1.65,2.2-.29,5.48-9.46,4.06-10.62-2-1.67-5.13-3-5.93-5-2.84-7.33-3.17-15.81-7.71-22.16-5.51-7.7,4.43-15.44.48-22.46-2-3.54,2.36-7.13,2-9.73-.92-7.17,6.91-9.69,9.94-14.38,3.2-5,14.09-4.32,12.05-11.33-1.4-4.85-2.25-11.17-6.46-13.57-4.4-2.51-5.27-6.87-9.63-8.76-5.52-2.41-11.26-4.55-17.09-6.51-.35-.12-2.86,2.31-3.52,3.74-1.19,2.59-3.45,3.59-4.36,1.59a169.11,169.11,0,0,1-8.21-21.69c-1.8-6.07-8.46-6.78-14.1-8.23-4.09-1.05-12.73,5.22-16.19,8.47-5.11,4.79.11,10.24-5,14.86-3.84,3.47.07,6.62.76,9.82,1.41,6.52,6,12.54-.63,19.92C627.49,372.65,630,376.07,630.85,378.67Zm-72.93-52.18c3.4,8.62,2.62,19,14.5,23.55,1.82,5.8,2,12.62,6,17.12s10.33,7.26,10.92,13.74c.32,3.44,2.11,6,6.23,7.91s6.5,5.67,10.28,8c3.22,2,9.76,2.39,10.55,4.77,1.64,5,6.28,6.05,10.61,8.13,2.54,1.23,3.87,1.4,4.83-.64.37-.79,1-1.76.75-2.42-1.11-3.21-1.29-8.26-4-9.13-7-2.27-8.14-6.9-9.62-11.81-2-6.66-4.25-13.25-6.24-19.91-3.2-10.75-6.27-21.53-9.4-32.3l20.62-28.95c.57-.81,1.2-1.59,1.71-2.42,2.22-3.56-.41-11.71-4.57-13.36-16-6.33-31.92-12.7-48.18-18.6-1.85-.67-7,.95-8.26,2.55-2.81,3.64-5.39,7.25-6.33,12-1.33,6.75-3.45,13.23-1.17,19.68C549.49,312.75,557.28,319.27,557.92,326.49ZM190.62,661.67l6.27,19.91c1.83,5.81,2.35,12.3,5.87,17.23,3.32,4.64,8.71,7.88,11.64,13.39,2.47,4.66,10.2,7.22,10.8,13.74.09.91,2.91,1.4,4.46,2.09.57-.81,1.81-1.82,1.62-2.38-1.54-4.42,1.92-8.23,3.14-12.31,1.17-3.9-1.92-8.25-3.19-12.38s-5.12-9-3.33-12.29c2.72-5.06,2.75-9.92,4.27-14.81,2.61-8.47,5.71-16.63,12-24.37,6.15-7.54,5-10.54-3.29-17.47-4.65-3.91-11.58-7.09-13.35-11.91-2.37-6.48-6.59-10.13-14-11.85-6.33-1.47-6.39-6-7.63-10-.92-3-3.33-3.79-7-3.07-9,1.75-19.07,8.79-17.2,14.25,3.37,9.8-5.41,20.4,1.39,30C187.65,645.84,188.26,654.21,190.62,661.67ZM936.76,831.32c-20,5.27-19.47,5.75-31.61,13.88-8.17,5.47-12.15,10.89-8.47,18.12,3.13,6.17,1.42,11.76-3.84,17.27-3.14,3.29-1.7,6.62-2.41,9.84-.85,3.79-6,7.37-9.22,11-10.61-.63-12.42,10.36-21.59,11.84-.56.09-1.1,2.57-1.14,3.89,0,.39,1.91,1.1,2.7.87,8.62-2.4,17.19-5,25.77-7.49,3.21-10.14,20.4-7.81,23.94-17.65,8.23-4.27,15.06-9.78,24.57-13.23,9.06-3.28,20.45-9.89,22-18.55,1.35-7.44,5.64-13.18,9.29-19.6,1.22-2.14.36-4.91.31-7.38,0-2,6.57-4.09.63-6-3-.94-5.91-3.54-8.51-3C951.62,826.57,944.22,829.18,936.76,831.32ZM472,434.45c1.15,4.28,2.17,7.88,7.67,10.24,4.87,2.09,6.49,7.82,12.58,9.48,1.63,9.85,5.75,18.09,19.33,20.16,2.55,6.18,7.13,10.92,12.5,15.74,4.25,3.83,13,5.62,12,13.1-.17,1.31,1.54,3.16,3.09,3.79,11.2,4.6,22.5,9.06,34,13.22,1.39.5,4.67-.67,6.19-1.82a6,6,0,0,0,2-4.72c-.12-1.51-1.26-3.87-2.6-4.07-11-1.58-5.3-14.91-17.13-15.88-1-.09-1.37-3-1.93-4.58-3.08-8.81-3.33-19.28-18.43-20.89-1.46-.15-2.78-2.2-3.33-3.64a79.07,79.07,0,0,1-3.93-12.44c-1.08-5.23-3.87-7.34-11-5-1.38.46-4.89-.74-5.08-1.68-1.48-7.47-10.48-7.37-16.47-10.05a189.73,189.73,0,0,0-22.8-8c-1.25-.38-4.39,1.13-5.57,2.37S472.34,433,472,434.45ZM205.84,575.58c1,3.34.87,7.44,2.78,8,8,2.45,10,7.71,11.13,13.73,8.95,1.37,7.5,9.57,12.05,12.82,4.82,3.44,7.85,6.66,10,11.49s11.35,7,18.58,5c7.41-2.07,14.42-5,21.63-.88,1.51.86,6.13-1.82,9.39-2.46,4.17-.82,5.73-3.15,5.11-5.78-.76-3.22-1.57-7.1-4.25-9.07-8-5.82-17.43-10.48-19-20.34-7.84-1.15-8.21-8.69-15.1-10.93-8.76-2.85-19.6-4.85-24.74-10.3s-10.58-5.27-17.15-6c-5.81-.64-6-.17-9,3.21C203.23,568.61,204.42,572.4,205.84,575.58Zm725,240.6c8.74-4,21.85-3.61,31.45-11.34-2.43-8.3-4.82-16.61-7.3-24.9a155.08,155.08,0,0,0-4.88-14.89c-.47-1.13-3.41-2.31-4.93-2-5.44,1.15-12.18,1.8-15.82,4.72-6.43,5.17-12.78,9.68-21.24,12-5.34,11.12-19.5,17.47-25.64,28.36-2.83,5-.75,8.63.84,12.34,1.46,3.43,11.88,5.91,16.35,4.67C909.34,822.42,919,819.59,930.82,816.18Zm-331.4-246.1c-1.83-5.8-4.29-11.48-5.33-17.44-1.23-7.07-5-10.29-14.49-7.83-5.88-4-8.39-.56-11.3,3.8-3.2,4.81-2.22,7.4,2.6,10.65,7.63,5.16,7.08,5.72,4.94,15.07-1.92,8.36-2.53,8.77,5.62,14.92,5,3.75,7.06,8.13,4.85,13.26-1.48,3.45-3.1,6.24-2,9.9,1.41,4.65,5.23,8.88.51,14.86-3.32,4.21-1.12,9.61-5.26,14.64-5.72,6.93-4.86,7.34,3.15,13.9,10.6,8.68,9.65,7.57,19.24-1.6s-1.34-19,8.37-27.13c-2.09-6.64-3.54-13.51-6.45-19.84-3-6.58,5.46-13.16,1.31-19.87C602,582.2,601.25,575.89,599.42,570.08ZM802.05,776.92c-3.89,5.46-9.71,10.93-11.35,16.78-1.32,4.73,2.4,9.91,3.9,14.88.5,1.67,2.22,4,1.38,4.88-8.58,9.42-.42,16.71,1,24.77.74,4.13,3,4.53,9.69,2.73,8.52-2.3,17.6-3.91,20.57-12.62.58-1.68,2.29-4.56,3.35-4.63,8.25-.47,8.16-8.75,14.8-10.21,5.53-1.21,6.22-5.24,8.23-8.24,1.39-2.06,2.11-6.53.94-7-8.08-3.41-10.91-13.55-20.52-13C820.72,786.07,812.85,779.34,802.05,776.92ZM518.27,559l-7-22.3c-11.08-3.78-10.64-13.11-13.78-20.79-.86-2.1-3.14-4-5.49-5.21a73.86,73.86,0,0,0-14.06-5.49c-4.44-1.19-7.95.84-10.49,4.47-2.81,4-5.22,7.48-3.47,12.29,2.1,5.75,4.86,10,11.08,13.79,4,2.46,4.66,9.31,4.88,14.43.27,6.35,9.85,5.4,10.9,10.87.8,4.18,1.11,10.21,4.52,11.7,6.27,2.74,7.74,6.88,10.11,11.5,1.33,2.58,6.37,3.57,9.42,5.58,2.51,1.65,3.35,1.3,4.69-1.33,2-4,6.5-7.33,4.33-12.22C521.43,570.75,520.1,564.79,518.27,559Zm99-23.11c4.08-2.37,8.1-4,11-6.55,4.49-3.85,5-9.82,12.58-12.46,3.3-1.15,6.28-5.48,7.51-8.66,1.9-4.94-8.77-3.2-7.59-8.42-7.25-4.31-14.35-8.44-24.68-8.45-5,0-9.67-2.46-14.48-3.81-1.84-9.6-14.47-8.26-21.53-12.58-1-.6-5.26.48-6,1.54-1.42,2.08-2.59,6.53-1.8,6.79,10.16,3.47,10.29,11.68,12.67,18.77,2.77,8.26,5.12,16.65,8,24.85.45,1.26,3.42,3,4.47,2.59,6.47-2.21,10.18-1.57,11.91,4C609.83,534.85,614.27,535.06,617.28,535.9Zm178.24,29.25c.26.84.22,2.27.83,2.41,8.28,2,9.84,7.68,11.41,13.64,1.07,4,15.16,15.16,20.09,16.71,4.55,1.43,14.93-.94,17.45-4.8,4.24-6.49,9.92-11.67,16.77-16.58,2.76-2,6.11-5.4,4.81-9.62-1-3.19-4.41-3.18-6.62-4.72a12.92,12.92,0,0,1-3.31-3.81c-7.17-11.3-10.61-12.59-23.79-9.09-8.3,2.2-16.19,6.32-25,2C804.43,549.48,794.7,560.3,795.52,565.15ZM634.88,808c-5.94,8.79-12.2,17.52-17.76,26.48-2.91,4.68-9.24,8.63-7.45,14.5.51,1.66.44,3.74,1.67,4.89,4.36,4.09,8.72,8.29,13.95,11.61a47.78,47.78,0,0,0,14,5.5c3.62.89,8.74-.64,11.82.7,5.84,2.53,7.05-.78,8.9-3.82,1.42-2.33,4-4.2,2.85-7.34-2.21-6.25-6.35-12.27.29-19.81,1.65-1.87-.46-8.32-3.1-9.25-6.61-2.33-9.7-6.06-10-11.44C649.65,812.52,642.57,810.77,634.88,808Zm382-65.72,0,.13c-4.26,1.23-9.67,1.59-12.41,3.94-2.33,2-1.16,6.32-2.38,9.48-.47,1.21-3.3,2-5,3.07-5.67,3.44-10.1,8-9,13.24,1.35,6.44,1.77,13.39,11.69,16.23,8,2.3,14.83,5.89,24.21,1.12,2.84-1.45,6.34-2,9.57-2.84,5.09-1.3,6.53-3.45,6.18-7.78-.24-3,2.32-6.67,4.65-9.58,3.37-4.22,4.3-8,2.29-12.32-1.48-3.14-2.05-6.62-3.24-9.88-2.23-6.07-11.37-9-20.17-6.65C1021.11,741,1019,741.65,1016.84,742.27ZM715.09,444.35l.13,0,4.66,14.78c8.54-.43,6.62,10.41,15.82,8.91,6.61-1.07,12.66-3.25,15.29-9.37,1.09-2.51,4.29-4.76,4.83-7.22,1.24-5.66,1.43-11.38,2.09-17.07.15-1.34.94-3.8.64-3.86-9.4-1.77-6.18-10-10.27-14.16-5.93-6-10.69-13.49-21-15.61-2.34-.49-7.24.73-8.35,2.24-2.7,3.67-8.35,7.19-5.92,11.91,2.6,5.09-.61,9.67-1.94,14.7C709.77,434.29,713.53,439.41,715.09,444.35Zm343.4,395.19c-6.47,1.86-13,4.77-19.4,5.33-9.29.8-11.27,8.67-18.4,11-8.19,2.65-17.5,3.69-21.6,11.71-11.89.62-16.53,12-28,13.91-2.87.49-5.21,5.58-7.69,8.6a2.42,2.42,0,0,0-.58,2.06c1,2.49,15.21,4.69,17.71,2.55,3-2.57,3.31-6.68,8.73-8,7.63-1.83,15.1-5.39,22.66-6.15,10.22-1,14.18-8.41,21.66-11.88,6.61-3.07,16-2.17,19.09-10.07A77.84,77.84,0,0,0,1074,846.53c4.28-3.35,6.89-7,10.13-10.55a1.51,1.51,0,0,0-.19-1.8c-.7-.56-2-1.29-2.75-1.08C1073.56,835.14,1066,837.37,1058.49,839.54ZM665.61,296.46c3.08-1.36,6.65-11.61,5.26-14.78l-14.68-14.34c-12.32-4.81-24-10.89-37.19-14-8-1.87-17.5-4.59-27.22-.55-1.87.77-4.84,2.05-5,3.06-.28,2.31-.12,5.7,1.67,6.68,5.14,2.82,11.46,4.32,16.78,7,5.1,2.53,12.78,2.34,14.9,8.08,1.81,4.89,9.89,4.77,11.74,10.53.94,2.95,8.56,4.37,13.61,5.61,4.67,1.14,10,1.06,14.92,1.63C662.25,295.59,664,296.11,665.61,296.46ZM559,576.3a21.24,21.24,0,0,0-.8-2.49c-3.57-7.78-1.71-18.21-10.16-23.34-9.6-5.83-6.82-15.49-11.82-22.44-.68-.94-4.27-1.38-5.67-.72-2.51,1.2-5.72,3.31-6.2,5.2-.6,2.41,1.24,5,2,7.48,5.77,18.32,11.46,36.66,17.39,54.94,1.36,4.22.06,8-1,12.39-1.32,5.46,1.52,11.65,4.43,16.71,1.37,2.39,8,4.74,10.59,3.74,3.25-1.24,6.44-6,6.74-9.21.4-4.21-1.64-8.45-3.29-12.46-2.09-5.09,6.43-9.41,2.76-14.94C561.12,586.81,560.6,581.3,559,576.3Zm207-59.65c14.14,5.52,27.4,10.45,40.3,15.86,5.64,2.37,10.61-.24,15.43-1.93,5.66-2,3.51-5.68,2.48-8.87-2.91-9.05-6.24-18-8.46-27.23-2.46-10.25-6.16-12.75-22-2.32-6.67,4.38-11.61,10.07-18.82,14.11C771,508.48,768.93,513.08,766,516.65ZM534.27,878.52l.78,2.47c1.3,4.12,1.81,8.62,4.16,12.23,1.68,2.59,7.67,1.9,8.82,6,1.33,4.82,4.1,4.49,7.48-.06s10.6-5.78,13.51-11.34c2.57-4.91.05-9.9,4.49-14.84,1.78-2,.47-7.49-1.91-9.45-8.84-7.28-17.29-15.38-31.43-16.82-1.61-.16-5.37,1.6-5.43,2.36-.47,5.78-4.79,11.36-4.2,17C531,870.38,533,874.39,534.27,878.52ZM921.14,447.15c-1.67-3.55-3.76-8.17-6.08-12.7-.27-.52-1.9-.89-2.77-.69-2.1.47-4.65.93-6,2.11s-2.18,3.5-1.6,4.68c2.52,5.08-7.25,9.94-2.54,14.64,5.73,5.71-7.06,11.63-1.74,17.15-4.81,4.82-4.71,9.55-2.57,14.67,2.34,5.59,3.76,11.5,5.58,17.27-6,5.77-3.73,8.68,3.66,10.59,2.64.68,4.22,1.35,4.79-.59.92-3.22,0-7.09,2.13-9.62,5.15-6.2,5.36-13.2,8.86-19.33,3.67-6.43-4.24-10.87,1.1-17.37C929.68,461,921.21,455.15,921.14,447.15Zm-223.28-203c-2.15.62-5.31.76-6.26,1.94a119.68,119.68,0,0,0-11.92,16.89c-.83,1.5,1.89,4.3,3.58,6.12s4.28,3.13,6.3,4.8c3.33,2.77,7.18,5.3,9.62,8.57,4.76,6.37,18,5,19.86,13.81.12.55,1.78.76,2.72,1.13,3.77,1.47,7.5,3,11.34,4.38a39.63,39.63,0,0,0,5.27,1.08c.12-2.46.33-4.93.33-7.38a3.42,3.42,0,0,0-.79-2.46c-3.14-2.92-7.31-5.3-9.46-8.66-2.34-3.65-2.77-8.21-4.27-12.29-.22-.6-1.74-.85-2.73-1.13-12-3.38-3.53-18.71-17.51-20.89C710.31,242.25,707.46,240.85,697.86,244.1Zm12,663c13.91-3.95,12.65-4.2,18.8-18.31,2.49-5.73,1.11-11.71,5.65-17.18,1.43-1.72.91-6.71,0-6.87-8.9-1.47-9.21-10.63-18.17-12.07-2.7-.44-3.77-1.25-4.78,1a4.82,4.82,0,0,1-1.71,2.36c-7.53,4.07,2.92,15-11.6,16.69-.41,0-1.31,4.7-.9,7,1,5.68,5.47,10.86-.8,17.3-1.34,1.37.73,4.79,1.36,7.23,1.1,4.27,3.42,5.21,9,3.76C707.74,907.7,708.8,907.37,709.87,907.06ZM351.76,412c1.19,2.35,1.43,4.31,2.8,5.25,5.17,3.59,14.95,2.62,16.3,10,10.64,3.18,16.27,12,26.32,15.05,11.06,3.34,16.16,12,26.65,15.29,1,.31,1.93,1.15,2.81,1,2.17-.36,4.76-.74,6.28-1.88,1.36-1,2.47-3.37,2.05-4.65-1.28-3.86-.56-8.86-6.8-10.38a19.71,19.71,0,0,1-2.83-1.09c-8.88-3.76-20.32-5.44-20.4-16.41,0-.65-3.81-1.77-5.31-1.28-7.4,2.44-10-.24-10.59-5.29-.45-3.79-3.07-5.66-7.1-7.32-7.37-3-16.16-.9-23.86-2.67C356.76,407.34,353.73,410.57,351.76,412ZM905.69,578.69c3.48,11.39,3.48,11.39,15.09,16,1.86.74,3.74,1.46,5.62,2.2l2.81,1.09c.76-1.51,2.43-3.24,2.13-4.5-1.14-4.91-3.24-9.18,1.21-14.84,3.38-4.3-4.94-9.18.5-14.53,5.92-5.83-4.19-10.9,1.69-17.19,5.54-5.93-5.13-13.08,3.76-19.38-1.63-.56-3.25-1.69-4.91-1.57-5.1.39-6.57,5.87-9.39,6.69-12.91,3.73-9.11,13.11-12.06,19.29-3.08,6.46,10.3,15-6,21.49C905,573.91,905.72,578.11,905.69,578.69Zm-522.77,346c10-2.87,20.58-5.79,31.06-9.07,1.52-.48,3.57-2.9,3.4-4.06a28,28,0,0,0-3.36-9.66c-.52-.9-3.67-.73-5.66-.9-11.05-.94-22.49-.31-32.36-5.07-4.66-2.25-12.35,1.17-17.3-2.25-2.27,3.19-6.3,6.52-6.39,9.55-.11,3.89,1.5,9,4.91,11C364.7,918.47,373.77,921.08,382.92,924.65Zm7.62-614c-1.64,1.11-4.23,2.07-4.71,3.36-1.18,3.15-.49,6.72-2.18,9.65-3,5.22-1.25,7.85,4,10.2,2.3,1,4.55,3.51,4.7,5.63.55,7.39,7.22,11,11.87,16.05,2.66,2.9,6.07,3.95,9.21,5.79s8.47,1.52,9.09,5.85,6.22,3.76,9.31,5.68a5.9,5.9,0,0,0,2.8,1c.56,0,1.49-.86,1.92-1.46a5,5,0,0,0,.92-2.4c.24-5.38-7.75-4.95-9.48-8.5-3-6.17-4.79-12.81-7.09-19.25-11.21-2.8-8.61-12.26-12.17-18.75l-15-13.78C392.67,310.06,391.61,310.37,390.54,310.66ZM744.25,784.24c1,1.41,2.13,5.11,5.14,6.64,3.79,1.94,7,4,6.58,7.62-1.09,9.2,10.43,11.29,13.66,18,1,2.13,3.49,1.52,4.61-.54,2.15-4,6.39-7.16,4.94-12.23-2.71-9.5-9.88-18.51-2.56-29.59.39-.6-.25-1.72-.73-2.44-2.51-3.73-13.43-5.69-19.81-3.61C749.08,770.41,743.35,777.27,744.25,784.24Zm29,142.83C762.07,924.16,758.5,937.27,748,940c-.73.19-1.66,3.55-1.2,3.75,6.39,2.79,13,5.33,19.58,7.83,9.13,3.45,13.51,2.56,22.47-4.38,3.87-3,8.09-5.76,11.46-9.06,3.58-3.5,4.67-5.69-.94-9.54s-8.56-8.18-17.32-4.07C780.11,925.39,777.81,925.75,773.24,927.07ZM763.11,596.72c2.1,6.65,4.12,13.33,6.33,19.95,1.09,3.27,10.66,7.61,15.07,6.65s8.63-2.35,12.9-3.65c6.13-1.87,9-7.56,4.32-9.7s-6.51-6.64-10.18-8.13c-6.69-2.7-6.47-8-9.79-11.78-4.4-5-11.29-8.5-17.33-12.44-1.17-.76-3.38-.54-5.12-.78-.3,1.64-1.19,3.42-.81,4.89C759.8,586.79,761.54,591.73,763.11,596.72ZM503.5,939.47c-1.78-8.9-5.6-16.65-7.1-24.89-2.1-11.51-14.14-12.57-24.65-15.43-.78-.21-2.18.41-3.14.88-7.1,3.43-11.44,18.58-5,20.6C477.79,925.11,484.58,937.92,503.5,939.47Zm347.21-45.62c16.6-4.76,16-5,24.61-17,3.62-5.05-.81-10.44,4.87-14.88.22-.17-1.7-3-2.35-2.85-4.33.85-8.54,2.47-12.88,3.25-10,1.81-13,13.35-24.74,12.75-.39,0-1.07,1.54-1.71,2.31-4,4.74-7.27,9.63-3.37,14.66,1.41,1.82,3.64,4.12,6,4.27C844.06,896.56,847.49,894.78,850.71,893.85ZM711.92,679.49c6,2.79,11.42,6.83,20.13,2.81a58.64,58.64,0,0,1,12.78-3.72c6.71-1.36,9-6.1,10.46-9.94,1.8-4.76,1.88-9.74,4.54-14.62,1.69-3.11-3.64-5.41-8.05-5-11.72,1.18-15.31,14-27.86,13.82-.89,0-2.28,3-3.42,4.58Zm-70.81-9.38,6.44-1.85c9.11-2.65,10.48-5.18,7.53-11.54-2.83-6.07-13.87-7.45-12.45-16,.16-.91-3.18-1.7-4.48-2.85-2.58-2.28-4.78-4.84-7.43-7.06-.19-.16-4,1.75-3.87,2.16.82,3.42,1.13,6.56-2,9.91-3.49,3.74-.45,7.84-3.07,12.37-4.07,7.06,1.72,14.1,10.13,15.22C635.8,671,640.15,670.17,641.11,670.11Zm5.44,227.11c-2.13-4.58-2.49-10-6-12-6.47-3.68-14.21-5.9-18.38-11.89-.88-1.26-3.56-1.69-5.55-2.25s-4.33-1.5-5.77-.89c-2.63,1.12-6.09,3.13-6.64,5-.69,2.35.47,5.42,2.19,7.33,2.22,2.48,6.85,3.64,8.51,6.27,2.33,3.68,1.72,8.89,4.52,12.14s7.71,5.65,12.48,6.38c3.62.55,8.92-1.54,12.56-3.6C646.24,902.72,646,899.13,646.55,897.22Zm-72,81.41a64.22,64.22,0,0,0-7.42,5.51c-4.15,3.89-4.17,6.43-.78,7.77,6.53,2.59,13.07,5.19,19.67,7.68,6.34,2.4,9.47,1.75,13.33-3.14,4.12-5.24,6.75-11.3,15-14,.74-.24.82-3.12.66-4.68-.33-3.2-3.17-3.85-6.74-3.24-4.2.73-9.92,3.36-12.26,2.12C589.29,973.21,583.5,976.51,574.5,978.63ZM388.72,666.51c5.47,5.88,2.3,13.26,9.33,18.37,6.7,4.85,12.75,10.14,21.66,12.62l24,2.08a18.31,18.31,0,0,0,2.71-1.44c2.6-2,1.94-2.69-.63-3.74-6.23-2.52-14.49-3.33-15.86-10.45-5.6-1-7-5.33-10.39-8.12s-9.05-4.17-14-5.7C401.15,668.73,397.75,665.36,388.72,666.51ZM338,670.18c.45-2.19,2.3-5.33,1.15-6.62-9.53-10.69-23.49-16.78-39.07-20.86-1.58-.41-4.32.85-6.26,1.75-2.74,1.28-6.59,2.66-7.43,4.52s1,4.87,2.91,6.18c5.16,3.49,14.5,3.09,15.47,10.49C314.31,670.55,325.5,670.72,338,670.18ZM731.1,360.78c.52,1.65.34,4,1.68,4.84,6.26,4.09,11.27,8.74,12.53,15.6,10.78.75,6.27,11.87,14.33,14.3,6.05,1.83,4.16,7.33,7.1,10.25,3.57,3.55,9.18,5.67,11.57,10.23a2.92,2.92,0,0,0,2.48.47c.83-.5,1.84-1.68,1.68-2.29-1.7-6.64-3.62-13.22-5.49-19.82-10.36-3-10.15-11.39-13-18.3-.52-1.26-3.32-1.66-4.87-2.66-3.84-2.48-10.73-1.77-12.05-6.86s-11.3-4.4-10.91-10.78a22.61,22.61,0,0,0-4.67.23c-.52.12-1,1.52-1.08,2.31A7.36,7.36,0,0,0,731.1,360.78ZM673.37,540.65c8.45-1.33,14.26-5.51,17-11.9.9-2.07.37-5.54-1.34-6.8-7.67-5.68-17.6-5.14-25.5,2-3.17,2.87-6.85,4.4-9.93,6.75-1.63,1.24-2,6.13-.59,6.95C658.71,541,664.67,545.09,673.37,540.65ZM979.84,836.39c.51,1.62.61,3.48,1.65,4.82a7,7,0,0,0,4.5,2.64c1.92.13,5-.56,6.13-1.73,5.42-5.38,6.71-12.58,16.43-16.33,5.26-2,.61-7.84-.66-11.6-.8-2.37-4.1-2.94-7.77-1.63-4.09,1.47-8.44,2.36-12.58,3.73S977,825.8,977.6,829A55.47,55.47,0,0,0,979.84,836.39Zm-297,20.72c1.85.51,3.7,1.54,5.55,1.37s5.24-1.36,5.57-2.38c1.85-5.66,4-11.5,4-17.1,0-4.22-2.41-7.93,1.51-12.47,1.28-1.5.44-6.09-1.11-6.61-5.17-1.73-7.63-4.94-10-8.57a3.2,3.2,0,0,0-2.68-1c-.8.28-1.93,1.84-1.67,2.24,3.79,5.84-6,11.35-2.88,17.31A30.18,30.18,0,0,1,685,842.39c.15,3.94-2,8.14-2.88,12.23C681.92,855.43,682.56,856.28,682.82,857.11ZM526.49,730.4c-2.11.61-4.24,1.18-6.33,1.83-11,3.45-15.81,12.19-11.17,20.89.69,1.29,3.12,3,4.36,2.72,6.41-1.44,13.53-2.49,18.76-5.61,3.82-2.27,5.2-7.49,7.45-11.46.36-.64-.53-1.59-.67-2.43C537.66,729.05,535.3,727.91,526.49,730.4Zm23.25,61.38c2.36,1.07,4.79,2.27,7.34,3.3,5.62,2.26,11.31,4.44,17,6.65,1,.37,1.89,1.12,2.83,1,2.12-.21,4.59-.41,6.23-1.4s3.12-3,2.94-4.31a46.13,46.13,0,0,0-3-10c-3.11-8.11-17.38-11.18-26.13-5.14C553.66,784.19,552.24,788.23,549.74,791.78ZM650,797.88c1,1.33,1.58,3.32,3.11,3.86,4.06,1.43,7.29,3.18,7.4,7.14.15,5.22,4.79,7,9.8,8.46a12.34,12.34,0,0,0,5,.11,2.76,2.76,0,0,0,1.26-2.29c-1.88-7.24-5.92-13.91-.22-22.35,2.4-3.56-10.55-9.64-16.29-8C656,786,649.49,794.49,650,797.88ZM250.19,695.39c2,1.51,3.64,3.66,4.8,3.41,2.89-.62,8.11-3,8-3.5-2.08-7.16,5.94-9.74,10.17-14.29,9.18-9.87,6.76-12.39-3.43-15.79-6.56-2.19-9.09-1.25-13.42,3.61C248.38,677.71,256.67,687,250.19,695.39Zm723.57,32c2.1-.6,4.21-1.17,6.3-1.82,5.08-1.58,5.39-3.25,4.85-8-.68-6.07-6-7.83-11.44-10.12-4.6-1.94-8.24,1-12.27,1.79-5.85,1.08-6.07,4.3-4.9,7.88a4.46,4.46,0,0,1-.13,2.39c-1.86,7,3.24,11.43,11.3,9.69C969.59,728.68,971.67,728,973.76,727.35ZM779.16,461.06A12.47,12.47,0,0,0,776,462c-7.79,4.89-8.73,14.42-19.33,17.62-1.52.46-2.33,3-3.46,4.63a26.54,26.54,0,0,0-1.68,2.39c-.37.67-.92,1.92-.68,2,2.7,1.22,5.79,2,8.27,3.44s2.89.69,4.83-.93c8.7-7.24,17.93-16.52,21.43-23.45.7-1.38,0-3.59-1.1-4.77S780.93,461.65,779.16,461.06Zm-155.6,296a12.52,12.52,0,0,0,3-1.2,7.32,7.32,0,0,0,1.69-2.26c-12.1-5.74-23.88-12-38.42-14.09a4.36,4.36,0,0,0-3.08.91,17.53,17.53,0,0,0-2,4c7.75,1.17,8,6.7,9.85,11.43.5,1.27,3.75,3,4.36,2.64C607.52,753.91,615.48,756.64,623.56,757.1Zm75-43.55c-1.47.73-7,2-8.39,4.5-2.07,3.59.56,8.21-3.86,11.92a16.5,16.5,0,0,0,3.56,2.52c.65.26,2-.51,3.1-.81,4.23-1.22,8.42-2.57,12.69-3.62,6.13-1.5,5.56-4.65,4.59-8.13C708.19,712.73,706.78,711.6,698.51,713.55Zm86.65-46.88a26.92,26.92,0,0,0,1.6,4.84,24.86,24.86,0,0,0,3.11,3.78c1.35-.85,3.17-1.51,4-2.58a149.87,149.87,0,0,0,9.76-14.19c.72-1.23-.2-3.8-1.53-4.65-4.85-3.13-10.13.27-15,1.71-3.15.93-5,3.31-3.48,6.25A28.53,28.53,0,0,1,785.16,666.67ZM610.63,919.23a24.75,24.75,0,0,0-1.6-4.84,22.45,22.45,0,0,0-3.29-3.66c-1.31.95-3,1.73-3.87,2.88a151.74,151.74,0,0,0-9.54,14.19c-.68,1.2.45,3.53,1.74,4.52s3.77,1.24,5.61.89C612.55,930.81,613.77,929.16,610.63,919.23ZM949.89,674.18c.77,2.46,1.07,5.17,2.54,7.29.69,1,4,1.67,5.45,1.1,2.68-1.07,7-3.52,6.88-4.73a57.21,57.21,0,0,0-4.5-14.78c-.39-.93-4-1.64-5.44-1.07-2.69,1.06-6.29,3-6.9,4.84C947.17,669.11,949.11,671.71,949.89,674.18Zm-385.5,8.75c-.74-1.47-1-3.44-2.38-4.27a7.73,7.73,0,0,0-5.69-.41c-6.68,2.84-11.44,10.12-9.73,14.85a5.41,5.41,0,0,0,4.31,2.83C562,695.46,567,690.46,564.39,682.93Zm349.32-56.34c1.33,4.21,1.8,6.77,2.95,9.07,1.23,2.46,3.5,3.38,7.44,2.31s5.65-3,5.44-5.62c-.51-6.34-4.07-10.93-12-12.59a18,18,0,0,1-2.79-1.06c-.56.78-1.61,1.63-1.6,2.35A49.25,49.25,0,0,0,913.71,626.59Zm-712.78-89c-1.33-4.22-1.7-6.84-3-9.06s-3.75-3.12-7.65-2-5.29,3.12-5.08,5.8c.51,6.44,4.51,10.71,12.25,12.43.91.2,2.08.91,2.6.64a3.19,3.19,0,0,0,1.66-2.26A45,45,0,0,0,200.93,537.63Zm836.63,291.54a24.73,24.73,0,0,1,3.18-.89c4.11-.63,5.32-2.95,5.29-5.68,0-3.82-3.57-5.56-8.45-4.35-2.13.53-4.21,1.4-6.35,1.77-4.1.72-5.32,3-5.29,5.7,0,3.83,3.56,5.55,8.45,4.36C1035.46,829.82,1036.51,829.47,1037.56,829.17ZM390.52,840c1.23-1.27,3.44-2.68,3.24-3.52A101.92,101.92,0,0,0,389.18,822c-.26-.67-4.4-.81-4.47-.67-1.94,3.93-7.57,6.88-6,11.78S387,837.16,390.52,840ZM672.75,690.78l-.09,0c-.51-1.61-.42-4.25-1.65-4.61a16.12,16.12,0,0,0-8.69-.13c-3.1,1-4.37,3.34-3.31,6.3,1.74,4.85,8.22,4.21,11.92,6.71,1.12-1.15,3-2.3,3.17-3.44C674.32,694,673.26,692.39,672.75,690.78Zm192.11-85-5.58,4.14c1.69.76,3.36,1.54,5.06,2.28.9.39,1.9.66,2.75,1.1a9.51,9.51,0,0,0,11.2-1.45c1.14-1,1.2-3.19,1-4.68-.75-4.72-4.91-4.15-9.39-2.83ZM606.61,798.44c3.92,1,9,3.82,11.48,2.62,3.61-1.76,5.33-6.38,7.86-9.79-3.76-1.38-8.33-4.64-11.06-3.66C611.68,788.77,610.07,793.59,606.61,798.44Zm247-36.52c.56-1.32,1.91-3.67,1.57-3.82-6.18-2.68-12.56-5.11-19-7.49a12.83,12.83,0,0,0-1.54,2.23,3.46,3.46,0,0,0-.4,2.34c2.3,6.3,8.47,8,16.25,7.59A15.36,15.36,0,0,0,853.63,761.92ZM689.71,934.71a25.31,25.31,0,0,1,3.14-.88c4.06-.61,5.8-3.1,5.1-5.55-.6-2.08-2.86-4.86-5-5.06s-5.77,2-7.84,3.75a21.28,21.28,0,0,0-5,7c-.26.53,2,2.36,3.34,2.37C685.45,936.37,687.62,935.31,689.71,934.71Zm49.92-626c-.47,1.42-2.06,3.76-1.75,5.74.6,3.91,4.54,4.95,9.36,2.76,3.09-1.4,4.83-3.33,3.53-6.36C749.19,307.21,746,306.12,739.63,308.74ZM589.48,714.13c1.67,4.18,12.27,6.59,17.73,3.91.8-.39,1.78-1.7,1.59-2.24-1.49-4.24-12.17-6.62-17.63-3.95C590.37,712.25,590,713.35,589.48,714.13ZM363.18,865.67c-.3,1.57-1.08,3.25-.8,4.7.95,5,7.63,4.46,11.52,6.65.25.14,3.53-1.86,3.55-2.72C377.58,869.44,368.79,864.33,363.18,865.67Zm-62.84-453.6c.49-.78,1.61-1.84,1.36-2.29-1.17-2.07-2.14-5-4.32-5.63-2-.6-5.55,1.18-8.3,2.17-.77.28-1.78,1.71-1.57,2.21C288.12,410,298.89,412.7,300.34,412.07ZM497.53,482c.54-.77,1.75-1.85,1.51-2.23A16,16,0,0,0,496,477c-.54.76-1.75,1.85-1.5,2.23A15.68,15.68,0,0,0,497.53,482Z"/><path d="M145.32,721.81c.23-1.6-.16-3.62.89-4.9a9.57,9.57,0,0,1,5.41-2.67c1.9-.27,5.27.14,5.58,1,3,8.46,5.5,17.06,7.8,25.73.22.83-1.95,2.48-3.29,3.48-.3.23-2.39-.47-2.6-1.08-2-5.81-2.62-12.08-11.3-14.11C146.05,728.88,146.12,724.46,145.32,721.81Z"/><path d="M189.45,798.14c-1.65-5.51-2.84-8.06-3-10.76-.09-1.17,1.76-2.71,3-3.92.15-.14,2.66.7,2.6,1.09-1.31,9.6,11.16,11.4,13.46,19.16,3.6,12.12,4.15,15.23.56,14.06-5.8-1.89-6.61-7.88-12.58-10.35C190,806,190,799.51,189.45,798.14Z"/><path d="M211.56,824.65c-.53-1.74-.69-3.66-1.66-5.17-1.55-2.45-1-3.62,2.51-3.57,1,0,2.67.57,2.73,1.12,1,8.36,10.24,11.94,13.8,18.77.29.57-.42,1.73-1,2.49a5,5,0,0,1-1.92,1.41c-3.9-2.57-10.77-1.86-12.15-7.21C213.22,829.85,212.34,827.26,211.56,824.65Z"/><path d="M126.47,632.15l1.67-2.46c.92.38,2.44.55,2.66,1.16q3,8.45,5.46,17c.18.6-.83,1.84-1.64,2.33-.48.29-1.69-.26-2.52-.53C119.18,645.35,118.57,643.46,126.47,632.15Z"/><path d="M172.42,767.87c.29-2.76.49-5.3.91-7.83a3.05,3.05,0,0,1,2.09-.62c3.92,1.89,6.38,10.09,4.17,13.84a3.19,3.19,0,0,1-2.09.64C175.76,772,174.18,770,172.42,767.87Z"/><path d="M142.42,662.55c-.28,2.76-.49,5.3-.9,7.84a3.1,3.1,0,0,1-2.1.61c-3.91-1.89-6.38-10.09-4.16-13.83a3.1,3.1,0,0,1,2.08-.65C139.09,658.41,140.66,660.42,142.42,662.55Z"/><path d="M122.75,613.7c-.93-.38-2.57-.83-2.5-1.06a11.73,11.73,0,0,1,2-4,3.43,3.43,0,0,1,2.72-.8,2,2,0,0,1,.69,2.19A23.9,23.9,0,0,1,122.75,613.7Z"/><path d="M147.38,701.91c.41-1.32.85-2.7,1.28-4.07.9.36,2.53.65,2.54,1.11a15.42,15.42,0,0,1-1,4.13Z"/><path d="M443.38,612.55c2.09,6.63,3.87,11.56,5.05,16.62.23,1-1.76,2.56-3,3.72-.14.14-2.37-.47-2.61-1.07-1.59-4-2.72-8.18-4.35-12.19-1.9-4.67-2.41-11.4-6.65-13.34-6.73-3.09-6.65-8-8.44-12.58-1.9-4.86-3.21-9.92-4.78-14.89-15.33-5.12-12.5-18.47-15.27-28.56-1.88-6.83-12.93-5.5-12.39-13.25.35-5.07-2.43-10.08-4.48-14.88-1.05-2.46-.79-3.71,2.52-3.32,1.75.2,4.5,1.9,4.32,2.83-1.73,8.66,10.55,9.36,12.35,15.94,1.61,5.86,3,11.83,5.6,17.35,2.75,5.89,12.16,7.81,12.32,16,.14,6.83,3.78,13.3,5.87,19.92C442.11,595,439.71,606.13,443.38,612.55Z"/><path d="M337.86,456.93l17.24,9.92c3,5.66.45,14,10.47,16.28l7.49,18.29c-3.68,1.68-7.24.43-7.38-1.85-.62-9.69-15.06-12.33-14.86-22.21C338.71,474.24,341.72,464,337.86,456.93Z"/><path d="M373.06,501.42c3.56-1.63,6.49-.51,7.43,1.73,2.22,5.33,3.62,10.94,5.36,16.44-3.57,1.64-6.49.52-7.43-1.72C376.19,512.54,374.79,506.92,373.06,501.42Z"/><path d="M468.09,310.21c1.08-.31,3-1,3.1-.86,6,8.28,17.21,10.91,27.18,14.77,4.75,1.85,3.27,5.87,5.08,8.69-9.69,2.21-14.77-8.14-25.54-3.86-.86.34-4.32-2.62-5.16-4.55C470.75,319.83,469.59,315,468.09,310.21Z"/><path d="M503.45,332.81q6.66-2.13,8.05,3.15Q504.84,338.08,503.45,332.81Z"/><path d="M511.5,336q6.66-2.13,8.06,3.14Q512.9,341.23,511.5,336Z"/><path d="M425.86,948.36c.57-.83,1.29-2.27,1.56-2.23a13.53,13.53,0,0,1,4.54,1.23,2,2,0,0,1,.64,2.21,3.5,3.5,0,0,1-2.72.83A21.39,21.39,0,0,1,425.86,948.36Z"/></svg>