<svg id="Layer_1" data-name="Layer 1" xmlns="http://www.w3.org/2000/svg" viewBox="0 0 1200 1200"><title>BB_Artboard 15</title><path d="M723.46,593.32C581.07,785.81,572.74,794.13,564.4,802.47H525.75c-7.47,7.52-15,15.11-22.56,22.68q-7.94,8-15.9,15.87c-8.49-3.28-11.25,9.87-19.65,6.84-3.19,4.63-8.45,5.09-13.06,7.18s-7.48,7.51-11.58,10.9c-5.56,4.58-8.65,12.15-16.8,13.65-8,1.49-11.3,9-16.73,13.75-5.63,4.92-10.67,10.51-16,15.81s-11,10.24-15.78,16c-5.48,6.62-15.06,6.24-20.34,13.4a83.2,83.2,0,0,1-15.85,15.85c-4.65,3.62-11.9,3.15-15.41,9.23-2.87,5-9.87,4.21-12.79,7.22-5.42,5.58-13.16,2.47-17,5.53-11.52,9.1-24.09,5.3-36.25,5.77-8.28.33-16.68-.66-24.93-1.76-2.72-.37-5-3.73-7.75-4.34-9.28-2-12.09-11.54-19.19-15.8-6.12-3.68-5.77-10.56-9-15.63-1.59-2.51-3.4-5.14-4-8-1.41-6.88,3-15.17-5.14-20.37-.47-7.3-1.13-14.59-1.35-21.9-.24-7.48-.37-15,0-22.46.44-8.52-1.87-15.6-5.9-23.35-3.07-5.89-.61-14.67-.61-22.16V778.25c0-3.21,1.38-7.68-.22-9.42-10-10.87-5.3-23.93-6.08-36.08-.34-5.25-2.5-8.5-7.46-7.15-9.59,2.62-13.93-8.57-22.65-7.92-.57.05-2-3.43-2-5.29-.13-5.27.5-10.32-4.58-14.36-1.67-1.32-2.26-7.5-1.24-8.14,7.95-5,2.85-14.82,7.07-19.56,4.42-5,3.54-11.9,8.61-15.92s2.48-9.85,2.74-14.86c.22-4.31,1-7.66,3.83-11.38,4-5.26,3.93-6.39.45-10.6-2.94-3.55-4.29-6.67-4.27-11.22,0-9.17,2.23-18.91-6.05-26.5-.89-.82.92-6,2.75-8,3.16-3.49,5.35-7.61,2.24-10.9a17.83,17.83,0,0,1-5.35-14c.36-11.76.69-23.58-.07-35.3-.62-9.7,10.11-15.43,7-26.37-2.23-7.93-.64-17-.26-25.55.08-1.65,2.8-3,3.76-4.81,3.12-5.79,3-5.85.37-10.93-1.4-2.64-4-5.18-4.11-7.86-.48-10.68-1.7-21.68.3-32,1.49-7.64,7.58-14.06,6.16-23.15-1.15-7.32-.23-14.95-.23-22.44V284.66c0-7.5-1.28-15.27.31-22.41,2.12-9.5-8.5-14-7-23.13,1.21-7.29,1.84-15.42-.19-22.31-2.19-7.42-8.26-13.61-11.78-20.76-3.84-7.81,2.16-21.92,10.74-22.38,7.86-.42,13.23-4.89,19.87-6.64,6-1.58,12.76-.2,19.18-.37,5.24-.15,6.34,2.5,7.72,7.28a52.81,52.81,0,0,0,9.63,18.35c4.05,5,2.17,10,2.87,15-9.3,8.25-6.24,19.29-6.34,29.44-.24,26.76-.12,53.51.09,80.27,0,1,2.46,2.18,4,2.87.34.16,2.11-1.37,2.12-2.13.15-17.11-.76-34.29.47-51.32.94-13.08-6.39-27.77,6.12-39.1-.09-12.8.32-25.64-.65-38.37-.25-3.28-8.25-6.32-5.47-10.12,9-12.34,5.12-26.07,6.23-39.28.28-3.34,2.53-5.22,6.5-5,6.42.34,8.93-9.24,16.39-6.84,5.88-9.31,15.23-5,23.24-5.91,11.62,10.65,25.9,5.24,39.08,6.35,5.31.45,11.11-1.21,15.95.36,8.5,2.76,18,4.4,25.23,8.53s16.83,10.13,14.86,22.23c-1.29,7.95,3.2,17.32-6.06,23.25-.55.36-.59,2-.37,3,.43,1.92.69,4.35,2,5.49s4.23,2,5.66,1.31c6.28-3,12.24-6.61,18.41-9.84,6.32-3.32,4.43-11.44,9.14-15.44,3.88-3.31,3.28-7.4,3.29-11.54,0-15-.17-30,.16-44.94.06-2.76,1.39-6.43,3.42-8,5.51-4.32,11.3-8.87,17.75-11.19,5.67-2,12.38-1.18,18.62-1.61,5.92,7.11,14.93,5.34,22.37,8.05,5.32,1.94,9.86,6,14.75,9.19-1.72,7.86,9.65,11.11,6.68,19.9-1.2,3.57.1,8.26,1.12,12.21.69,2.68,2.36,1.82,4.53-.37a13.26,13.26,0,0,1,7.89-3.84c8.53-.49,17.12-.06,25.67-.24,3.58-.08,5.93-2.11,5.45-6-1.82-14.52,8.89-20.25,18.78-25.9,6.9-4,13.63-8.49,23-7,7.21,1.18,14.47-.12,20,6.63,1.56,1.91,8,2.46,8,2.68-1.68,7.47,7.18,10.11,7.37,16.43.15,5.35.27,10.72,0,16-.34,6,.74,8.92,7.91,10.53,5.37,1.21,9.21,10.64,14.31,11.22,8.49,1,10.07,5.07,11,11.61.11.84,1.44,1.51,2.18,2.28l35.32,36.74c0,16-.09,32.11.14,48.16,0,1.66,2,3.3,3.13,5,1-1.7,2.76-3.3,3-5.13,1.22-8-3.29-17.34,6-23.21q.24-12.74.5-25.48c10.7-9.2,6-21.6,6.14-32.66.12-9.55,10.64-15.57,6.93-26.31-2.87-8.35,11-13.31,6.27-23-.35-.71.24-2,.6-2.89,3.57-9.09,14-7.9,20.26-13.36,2.58-2.25,8.06-2.56,11.81-1.77,4.71,1,8.8,4.71,13.51,5.93,4,1,8.54-.12,12.77.31s11.53,8.89,11.58,13.21c.11,8.56,1.34,17.38-.32,25.61C771,163,779,166.86,779.67,174.11c1.34,14.19-5.26,29.57,6.14,42.43,1.06,1.2.09,4.15.15,6.29.28,11.25-1.84,22.71,6.1,32.9,2.08,2.67-.12,8.38.48,12.58.35,2.46,2.33,4.69,3.58,7,.89-1.77,2.54-3.54,2.56-5.32.19-17.12.11-34.24.11-51.36s-.94-34.32.33-51.35c.89-12-6.28-25.76,6.07-35.9,0-11.77.28-23.55-.11-35.3-.14-4.09,2.9-5.31,4.62-7.79,6.71-9.62,15.73-13.54,27.35-11.58,2.08.35,4.31-.21,6.41.1,4,.6,9.11-2.31,11.86,2.1,3.75,6,12.45,2.46,15.68,9,1.34,2.69,3.34,5,4.79,7.67.45.82.07,2.1.07,3.17v25.68c0,7.49-1.25,15.26.34,22.4,1.72,7.71,8.12,13.86,6.36,23.15-1.38,7.23-.18,14.93-.31,22.42-.11,6.46,8.63,9,6.69,16.67-1.26,5-.24,10.64-.24,16,0,6.42-.92,13,.25,19.22,1.28,6.73,8.7,11.75,6.17,19.86-1.44,4.61,9.7,5.49,3.12,12.1-5.89,5.91,6.29,8.58,3.65,15.37-1.8,4.65-.34,10.57-.34,15.92,0,3.21.92,6.78-.17,9.56-4.12,10.55,6.27,16.92,7.27,26.21.42,3.92,7.67,7.52,5.62,13.44-3.26,9.46,5.52,15.21,6.34,23.09.89,8.47.2,17.1.2,25.66,8.84,9.57,6,21.44,6.43,32.66,10.47,10.46,5.51,23.72,6.32,35.87.49,7.28,8.82,11.19,6.85,19.89-1.62,7.12-.48,14.91-.14,22.39,0,.91,2.58,1.93,4.11,2.43.43.14,2-1.4,2-2.18.11-28.89.21-57.79-.11-86.68,0-2.59-3.67-5-4.26-7.75-1-4.91-3.34-12.12-1-14.68,6.23-6.88,8-12,.08-18.17,2.35-5.21,6.15-9.4,5.69-16.2-.93-13.85.58-27.88-.58-41.7-.76-9.06,4.09-15.49,6.31-23.17,2-6.91.17-14.87.61-22.34.1-1.62,3.28-2.86,4-4.69,4.06-10.21,10.94-19.3,14.48-29.29,4.32-12.21,15.59-16.82,21.94-26.26l34.38,0c2.78,5.44,9.65,3.69,13,7,5.16,5-2.1,15.26,6.91,19.64a12.45,12.45,0,0,1-1.92,4.3c-3.63,3.93-6.89,9-11.45,11.06-5.6,2.59-12.21,3.74-15.18,9.51-4.54,8.82-7.13,18.64-13.76,26.4a5,5,0,0,0-1.21,2.68c-.43,8.42-.74,16.84-1.08,25.26-9,6.15-4.21,15.48-5.41,23.44-1.34,8.95,3.93,19.4-5.94,26.43q-.23,12.75-.46,25.5c12.33,11.35,5.24,26,6.14,39.09,1.16,17.05-.64,34.3.58,51.33.93,13.09-6.39,27.78,6.12,39.1,0,6.42-.72,12.94.15,19.24,2.09,15.17-6.09,31.8,6.27,45.52,0,7.49-.13,15,0,22.48.22,10.2-2.52,21,6.13,29.7.82.83-2,5.23-3.07,8-.59,1.49-1.94,4-1.52,4.38,9.39,7.68,3.69,18,4.58,27,.65,6.48.36,12.5,6.5,16.79,1,.71,1,5.42.06,6-8.26,5-4,9.46.06,14.22.52.62,0,2.09.08,3.15,1.14,12.13-4.07,25.4,6.41,35.86,0,6.43-.36,12.87.09,19.26.58,8-3.45,17.27,5.51,23.42.63.43.78,1.86.79,2.82,0,11.77,0,23.55,0,35.32,9.31,8.25,7.18,19.46,6,29.39-1,8.52,6.13,12.92,6.7,19.88.61,7.44.14,15,.14,22.46,11.48,9.05,5.68,21.65,6.06,32.67.21,6.28,5.51,8.75,6.53,13.44,1.11,5.11-.16,10.68.34,16,1,10.09-1,18.64-9.87,24.92-3.44,2.44-5.88,6.27-9.23,8.87-2.28,1.76-5.32,3.38-8.09,3.5-9.61.42-19.25.29-28.88.12-7.91-.13-14.58-7.79-14.64-16.63-.08-10.7.41-21.43-.16-32.1-.43-8,3.83-17.23-4.83-23.63q-1.14-10.77-2.27-21.54c-9.82-4.49-1.88-16.27-9-22a8.69,8.69,0,0,1-2.91-5.13c-1.11-8,3.05-17.34-6.24-23.13-.09-7.46-.51-14.92-.19-22.35.28-6.67-8.46-8.93-6.89-16.68.93-4.58,3.14-11.06-2.08-14.89-6.58-4.85-1.53-12.53-4.77-17.28-3-4.44-5.77-7.93-5.87-13.81-.13-8,3.85-17.29-5.16-23.45l-1-25.26c-8.15-5.48-4.52-15.35-8.35-22.18-2-3.63-4.18-6.46-4.76-11-1-8,4.22-17-4-24-5.8-5,1.93-15.25-6.86-19.62a3.88,3.88,0,0,1-1.71-2.44c-1.42-7,3.38-15.19-2.94-21.22-6.68-6.38-4.24-14.46-3-21,1.62-8.83-7.62-12.12-7.11-19.92.48-7.25,1.84-16.38-1.75-21.46-4.28-6.07-5.72-11.93-4.12-17.5,2.57-9-8.86-11.4-7.14-20,1.12-5.59,3-12.93-4-17.42-.85-.55-2-1.53-2-2.32-.15-7.49.59-15.06-.29-22.45-.81-6.84-9.08-11.67-6.2-19.83,3.27-9.24-7.91-13.95-6.73-23.07,1.06-8.25-.29-16.82-.77-25.25,0-.79-1.29-1.84-2.2-2.19-3.13-1.23-3.39-.09-3.31,3.15.34,13.9,1.28,27.95-.23,41.69-1.13,10.22,8.71,16.09,7.13,26.33-1.44,9.34-1.48,19.44.66,28.54,1,4.34,6.69,7.08.41,11.88-.44.34,4.22,5.94,4.79,9.38.87,5.2-2,12.62.63,15.66,9.84,11.28,4.38,24.17,6,36.22.55,4-.12,10.21,2.15,11.66,8.82,5.6-.37,17.14,8.68,22.56,4,2.39,2.84,7.24-.66,10.75a15.11,15.11,0,0,0-2.81,4.32c9.21,7.48,6.44,18.26,4.86,26.64-2,10.84,8.8,16.2,7.41,26.4-1.06,7.77-3.51,17.26,5.69,23.18.54.35.17,2,.36,3,1.67,9-2.86,18.34,3.91,27.39,5.89,7.86,3.28,18.66,2,27.68-1.22,8.72,9.92,11,7.26,20-1.72,5.8,0,12.61.12,19,10.91,9.34,4,21.9,5.9,32.86,1.35,7.94-3.12,16.77,5.16,23.78,2.24,1.9.8,8,1.35,12.08.8,6-2.75,13,3.5,17.78s0,12.41,4.53,17.4c1.43,1.59,4.2,2.95,4.32,4.57.55,7.42.13,14.91.52,22.35.37,7.09,9.64,11.48,6.35,19.82s6.23,12.59,6.42,19.81c.2,7.42.36,14.84.53,22.26,10.57,6.52,3.42,17.67,6.81,26.08,10.35,5,.78,19.31,11.35,24.19.19,10.62,1.17,21.31.21,31.83-.4,4.43-7.86,7.07-6,13.42-6.06,3.31-11.88,7.29-18.29,9.67-3.76,1.4-8.48.44-12.75.21-6.22-.33-12.56-.36-18.57-1.75-2.65-.61-6.21-4-6.59-6.57-1.35-9-10.93-15.15-8.24-25.71,1.28-5,.36-10.65.19-16-.34-10.52-.86-21-1.31-31.55-10.23-8.56-3.09-20.05-5.08-30-13.1-7.66.11-25.33-12.65-33.52-1.46-.94-.2-6.11-.2-9.32,0-6.42.81-13-.26-19.22-.81-4.69-5.83-9-5.8-13.44.08-10.55-8.2-18.16-7.56-29.49.53-9.34-8.52-18.49-5.64-29.4-10.94-7.23-2.08-20.92-8.56-28.4-7.77-9-1.57-18.61-4.49-27.21-2.58-7.58-8.72-14-6.5-23-6.53-3.92-6.85-10.23-6.1-16.71,1.34-11.62-1.17-22.4-6.46-32.66,3.78-8.53-7.32-11.9-6.7-19.84.47-5.86,2.46-12.39-3.31-17.84C821,706,828,695.82,824,691.19c-6.63-7.56-5.86-15.28-5.84-23.48,0-6.51-8.37-8.93-6.82-16.67,1.14-5.72,2.57-12.95-4.5-17.23a4,4,0,0,1-1.54-2.52c-1.22-8,3.75-17.3-5.31-23.51-.38-7.33-.08-14.78-1.39-21.94-1.05-5.74-5-11-6-16.69-1.08-6.24-.25-12.8-.25-19.22-13.06-7.68.15-25.43-12.7-33.42-1-.59-.14-4.07-.14-6.21,0-7.49.13-15,0-22.47-.18-8.18,2.45-17.22-6.38-23,0-7.49.3-15-.1-22.47-.32-6.08-8-9.1-6.59-16.66,1.13-5.92,1.36-12.25-4.73-17.38-2.25-1.89-.87-7.91-1.47-12-1.29-9,3.55-19.05-5.43-26.79-1.68-1.45-.74-6-.94-9.09q-.79-12.53-1.54-25.05c-8.53-6.46-1.95-16.6-5.44-23.37-3-5.8-6.69-9.25.13-14.06-11.76-8.84-2.68-22.08-7-32.42-.55-1.33-3.43-2.27-5.26-2.31s-4.81.81-5.3,2.05c-1.1,2.77-1.24,6-1.26,9.1-.1,18.19.06,36.39-.1,54.58-.06,7.14,1.94,14.6-5.42,20.41-2.37,1.87,7.78,4,3.37,8.64-3.22,3.36-4.78,6.5-4.42,11.13.42,5.32.1,10.7.1,16.05q0,32.1,0,64.21,0,14.43.06,28.87c9.08,5.76,5.21,15,6.6,23,.82,4.69,4.77,8.78,6,13.48,1.54,5.87,8.1,3.66,9.24,5.46,6.31,10,12.64,20.44,16.13,31.61,2.3,7.36,2.91,16.84-5.76,23.09-1.89,1.37-1.3,5.78-2.64,8.38-3.2,6.19-8.73,11.8-9.92,18.27-1.73,9.31-.44,19.18-.44,28.81,10.57,11.64,6,25.91,6.11,39.08.06,9.63,10.15,15.46,7.16,26.35-2.19,8-.43,17-.43,25.57,12.07,11.39,5.35,26,6,39.1.43,8.65,8.73,13.69,7.23,23.06-1.07,6.66-3.06,14.7,4.12,20.69,1.8,1.5,1.47,5.71,1.88,8.7,1.78,13.09-4.65,27.52,6.45,39.07,0,8.57.57,17.18-.17,25.67-.69,7.85,8.67,11.07,7.07,19.92-1.38,7.59-3.83,17.25,5.38,23.17q.29,12.74.56,25.45c9.45,8.22,6.1,19.32,6.25,29.45.08,5.29,6,6.58,6.33,10.2.78,10.38,2.13,21.3-8.94,28.36-3.52,2.25-6.41,5.71-9.08,9-3,3.78-6.78,4.4-11.22,4.11-4.27-.27-8.75-.87-12.81.09-13.25,3.15-18.89-7.09-26.23-14.28a7.21,7.21,0,0,1-2-5.48c1.64-9-4.09-18.8,4.42-27.18,3.74-3.68-4.63-5.17-4.59-9.26.1-8.56.41-17.15-.08-25.68-.46-8,3.52-17.26-5.41-23.45-.64-.44-.86-1.84-.86-2.79-.06-11.77,0-23.54,0-35.32-9.3-8.25-7.28-19.48-6-29.39,1.4-11.17-10-17.82-7.29-29.61,2.31-10.17.48-21.29.48-32-11.14-7.86-4.39-19.61-6.54-29.42-1.49-6.76-8.2-11.55-6.55-19.89,1.23-6.18,2.75-14.47-.22-18.9-9.16-13.69-4.66-28.38-6-42.6-.74-8.08-10.12-13.52-6.73-23.13.63-1.79-2-5.16-5.87-1.66-2.78,2.48-7.75,2.47-10.66,4.88-5.74,4.77-10.19,11.17-16.17,15.52-5.72,4.16-4.23,11.43-8.88,15.77-7,6.5-1.63,11,2.92,15.51.57.57.41,2,.41,3,0,8.56,1.2,17.34-.31,25.62-1.56,8.56,6.13,12.92,6.61,19.89.58,8.52.14,17.11.14,25.67,0,7.49,1.64,15.47-.37,22.37-3.42,11.71,8.75,18.43,7.12,29.6-1.53,10.48-1.18,21.45,0,32,.73,6.71,7.91,11.61,6.34,19.9-1.17,6.19-2.73,14.47.24,18.9,9.17,13.69,3.55,28.6,6.33,42.53,2,9.82,8.59,18.68,6.05,29.52,9.29,8.25,5.1,19.4,6.6,29.42,1.8,12-5.84,25.41,5.94,36.22,2.13,2,.57,8.25.24,12.51-.7,9.31,2.16,18.93-2.26,27.94-3.49,7.11-7.18,14.14-10.48,21.34-3.92,8.55-9.93,13-19.7,11.75-4.22-.52-8.55-.08-12.83-.09-17.59-.05-17.27-.23-27.55-17.89-2.17-3.71-4.36-6.55-4.29-11.15.26-18.19.11-36.39.11-54.58,0-7.49-.34-15,.09-22.47s-2.44-13.4-5.77-20.19-.69-16.75-.76-25.31c-.1-10.64-.3-21.28-.46-31.91C602,925.42,607,914.05,606.3,904c-.74-10.65-.17-21.39-.17-32.09-13.39-20.47-5-43.2-5.79-64.79-.47-12-6.74-20,123.12-213.81,133.47-183.74,133.3-183.74,133.13-183.74,0,5.2-.26,10.42.16,15.59a6.91,6.91,0,0,0,3.22,4.7c2.86,1.52,3.3.16,3.19-3-.38-10.39,0-20.81-.31-31.2,0-1.27-2.27-2.52-3.63-3.6-.09-.07-2,1.34-2,2.11C857,399.31,857.1,404.45,723.46,593.32ZM343.34,802.49c6.42,0,12.86.29,19.25-.09,6.09-.36,9.7-5.92,16.51-6.95,14.34-2.16,27.51-9.92,33.92-23.41,4.22-8.91,14.75-19.47,1.21-30.25-1.64-1.3-.72-6-.74-9.14-.06-10.7-.81-21.47.19-32.07,1.08-11.48-1-21.15-11-27.56-8.59-5.51-8.83-13.44-8.62-22.24.11-5,2.3-10.59-2.63-14.9-7.42-6.49,6.6-9.15,2.81-15.08-1.45-2.27-1.65-5.66-6-2.06-8.07,6.68-17.15,5.34-25.93.88-6.19-3.14-12.27-6.52-18.4-9.8-2.5-1.33-6.79-2.27-7.2-4.08-3.33-14.6-17.46-25.85-13.32-42.8.25-1-2.21-2.72-3.41-4.11-.94,1.75-2.52,3.44-2.7,5.26-.4,4.24.7,8.76-.34,12.77-1.22,4.7-4.08,9-6.2,13.44-3.46,7.3-8.91,13.91-6.5,23,2.49,9.42-1.68,16.44-9.2,21.8-4.12,2.93-4.08,7.22-3.51,11.36,3,21.5-7.11,44.28,6.36,64.73,0,10.7-1,21.52.28,32.06,1.24,10.32-7.29,16.51-8.56,25.53-.24,1.7-3,3-4.33,4.59-4.69,5.57-4.64,5.57,1.87,9.84A24.2,24.2,0,0,1,292,787c5.05,5.57,9.83,10.23,18.78,9.39,6.74-.62,11.37,8.66,19.82,6.26C334.52,801.56,339.07,802.49,343.34,802.49Zm-85,141.29c12-.08,16.38-.7,21.45-3.76C291,933.29,304,929.82,313,919.31c2.74-3.19,11,.55,10.6-8-.46-9.58,11.05-3.54,13.46-9.89,3.45-9.12,14.35-7.51,20.05-13.6,5.85-6.24,12.42-11.84,18-18.28,7-8,16.66-11.36,25.81-15.36,3.17-1.39,5.9-2.13,6-5.62.1-5.08,2.05-6.92,7.24-7.86,3.6-.66,6.47-4.76,9.9-7,2.84-1.81,3-3.12-.05-4.59a5.84,5.84,0,0,0-2.8-.88c-2,.21-4.19.36-5.83,1.34-6,3.58-11.47,9-17.94,10.84-6.95,1.94-14.84.28-22.29.69-4,.23-8.64-2.1-12,2-6.77,8.4-15.92,2.55-23.82,4.08-3.92-6.51-10.26-7.26-16.68-6.08-9.91,1.81-17.71-3.52-26.3-6.44-4.79-1.62-7-8.09-13.37-6.58-5.83,1.38-10.09-1.42-13.61-5.85-1.33-1.67-2.73-3.69-4.56-4.47-13-5.55-25.71-11.54-36.1-21.58-.85-.82-3.89.38-5.8,1-.83.26-1.37,1.43-2,2.19,7.43,4.13,4.49,8.85.78,13.62,6.81,4.05,5.52,10.72,5.52,17q0,16.05,0,32.11c9.28,8.26,5.59,19.32,6.58,29.43a14.44,14.44,0,0,0,3.9,7.91c4.51,4.68.34,10.69,2.63,15s6.14,7.37,6.51,13.52C247.55,939.51,253.58,943.78,258.38,943.78ZM649.23,622.67c2-.31,4.59.06,5.93-1,20.77-17.26,21.64-19.21,21.61-45.4,0-6.41.61-12.89-.19-19.19-.61-4.77-9.91-9.07-.32-14.12-6-5.28-6.77-12.15-6-19.55.07-.7-1.51-2.31-2-2.19-1.55.43-4,1.26-4.19,2.27-1,5.94.93,11.74-4.49,17.59-5.11,5.52,0,16.5-8.4,22.08-1,.65-.48,4.14-.07,6.19,1.58,7.87-2.46,13.7-6.39,19.82a64.88,64.88,0,0,0-6.42,13.32C636,609,642.67,620.92,649.23,622.67ZM551,282.87c-.88,1.78-2.45,3.54-2.51,5.34-.27,8.55-.12,17.11-.12,25.67s-.51,17.16.15,25.67c.64,8.3-3.83,17.95,2,24.63,6.88,7.83,2.59,16.17,4.3,24.06.19.88,1.74,2.31,2.14,2.15,1.51-.6,3.9-1.62,4-2.69a119,119,0,0,0,.19-12.82V355.62c0-6.42-.47-12.88.12-19.25.69-7.45-.82-13.9-5.79-19.5,10.15-5.3-.4-9.51-.77-14.25-.47-6.21-1-12.43-1.6-18.62C553.09,283.55,551.72,283.25,551,282.87ZM625.4,394.46c0,10.63-.28,21.28.34,31.87.08,1.37,4.77,3,7.49,3.44,1.49.23,4.78-1.89,4.8-3,.29-21.25.35-42.52-.12-63.77,0-1.27-4.78-3-7.5-3.43-1.49-.22-4.75,1.86-4.79,3C625.25,373.2,625.4,383.83,625.4,394.46Zm-57.8,77.43c0-9.5-.19-19,.06-28.49.17-6.43-5.7-8.23-8.76-12.16-.16-.22-3.91,1.36-3.95,2.22-.36,6.31-.2,12.65-.2,19,11.08,7.68,5,19.18,6.31,29,.67,5.19,0,10.54.21,15.81,0,.79,1.52,2.28,2,2.16,1.53-.42,4.13-1.38,4.16-2.21C567.72,488.77,567.6,480.33,567.6,471.89Zm0,76.87c0,10.62-.1,21.24.18,31.85,0,.85,2.61,1.86,4.14,2.32.44.13,2-1.39,2-2.16.12-19.11.14-38.22-.09-57.33,0-.83-2.61-1.86-4.14-2.32-.45-.13-2,1.39-2,2.17C567.54,531.78,567.6,540.27,567.6,548.76ZM500.72,737.13c-3.36,1.54-9.79,3.38-9.68,4.63.57,6.3-4.42,8.8-6.64,13.08-1,1.89.46,6.16,2.21,8,2.56,2.76,10.12.92,10-2.32-.31-6.3,3.35-9.3,7-12.83.74-.73,1.51-1.43,2.19-2.21,1.27-1.44,2.48-2.92,3.71-4.39ZM571.9,597.19c-1.75,1.49-4.06,2.51-4.13,3.67a162.38,162.38,0,0,0,0,18.59c0,.75,3.81,2.2,4,1.92,3-3.87,10-5.85,8.32-11.79C578.87,605.1,574.82,601.4,571.9,597.19ZM326.77,545.6c-.71.72-2.13,1.59-2,2.11a20.33,20.33,0,0,0,2,4.32c.71-.72,2.12-1.59,2-2.12A20.49,20.49,0,0,0,326.77,545.6Zm306-207.79L635,340.1a20.49,20.49,0,0,0,2-4.31c.12-.53-1.3-1.4-2-2.12Z"/></svg>