<svg id="Layer_1" data-name="Layer 1" xmlns="http://www.w3.org/2000/svg" viewBox="0 0 1200 1200"><title>BB_Artboard 3</title><path d="M405.06,317.74c-5.06,12.15-5.06,12.15,0,27.55.5,1.54,1.23,3.17,1.16,4.72a33.1,33.1,0,0,0,4.84,19c3,5.24-2.11,13.59,4.94,19,1.34,1,.54,4.85.75,7.38.41,5.06-1,11.68,1.71,14.78,3.53,4.09,1.92,10.31,6.95,13,2.35,1.26,2.23,2.3-.08,3.73-4.55,2.82.22,5.06.32,7.38.39,10.13,8.49,18,7.1,28.75-.81,6.25,8.11,11.08,4.91,18.71,6.6,4.89,5.39,12.07,5.13,18.74-.21,5.48.35,10.27,5.33,13.53-1.3,7.1,7.7,10.87,5.44,18.81-2.75,9.63,3.66,17.35,7.58,25.47s8.73,15.52,8.33,25.5c-.25,6.07,7.5,11.25,4.8,18.74,6.07,4,6.43,10.26,5,16.08-1.69,7,7.8,9,5.68,16.26-1.91,6.61,8.62,10.78,5.05,18.7-3.37,7.47,7.93,11,5.29,18.77-1.85,5.44,7,7.55,5.11,13.48,5.36,4.2,6,9.94,5.23,16.13,6.18,3.94,5.74,10.11,5.16,16.13-.38,3.88,2.67,6.09,3.62,9,2.54,7.66,9.57,14.13,6.92,23.32-1.49,5.13,4.66,6.71,5.2,10.91.43,3.32-.45,8.12,1.41,9.67,3.8,3.17,2.55,8.12,5.39,11a12,12,0,0,1,3.82,9c.21,7.39-3,15.79,5.08,21.36-2.83,7.53,2.33,13.17,5.52,18.58a40.68,40.68,0,0,1,5.82,18.56c6.68,4.12,3.4,10.84,4.43,16.48,1.16,6.38,8.13,11.2,5.15,18.77,5.66,4.11,5.62,10,5.34,16.14a14.79,14.79,0,0,0,1.79,7c3,5.74,8.22,11.59,8,17.35-.31,7,7.17,10.11,5.68,16.13-1.87,7.57,8.27,11.24,5.37,18.79,4,7.5,7,15.22,5.23,24,7.21,4.73,4.86,12.1,5.31,18.75.1,1.52,1.34,2.93,1.77,4.46,1.22,4.38,13.1,5.27,4.25,12.94,2.87,4.86,5.49,9.72,4.41,15.78-1.41,7.81,9.08,12.85,5.18,21.35,8.9,3.39,2.15,13.26,7.24,17.86,6.42,5.8.43,13.77,3.91,19.29,2.44,3.88,4,5.07.45,9.68-5,6.53-12.93,7.57-18.75,12.38-2.67,2.2-8.19,1.16-12.41,1.22-5.76.08-6.61-.76-6.5-8,.1-6.18-.13-11.45-5.55-16.19-4.13-3.62-7.16-9.09-9.28-14.3-3.74-9.23-7.21-18.34-14.83-25.33-1.49-1.37-2.22-4.91-1.62-7,2-6.89-8-9-5.6-16.25,2-6.2-5-8.29-7.62-12.41-1.29-2-2.64-4.53-2.48-6.71a11.74,11.74,0,0,0-5-11.09c-4.46-3.37-6.82-7.49-5.7-13.36,1-5.48-1-9.56-5.19-13.63a35.5,35.5,0,0,1-9-14.39c-1-3.1,5.74-7.64-1-11,2.15-6.14-5.37-8.08-5.69-13.37-.41-6.66-8-8.48-10.33-14-1.87-4.45-5.62-9.44-4.79-13.41,1.51-7.29-5.5-10-6.27-16.16-.53-4.19-5.51-7.88-4.87-13.62.23-2-2.52-4.15-3.08-6.43-1.57-6.35-8.2-10.73-7.12-18s-9.1-10.72-5.49-18.86c1-2.17-1.6-4.32-4.84-4.29-3.67,0-7.56,4.78-5.21,6.39,8.14,5.58,1.08,17.46,10,22.19-6,3.89-3.72,7.35.13,11.37,1.5,1.57.89,5.36,2.47,6.65C479,883,468.9,894.61,478.65,900c.5,7.44,8.6,12.37,6.24,21.06-2.06,7.62,9,12.82,5.06,21.32,8.22,5,2.24,16.81,10.46,21.81-3.37,9.11,7.11,15,5.46,24-.71,3.9,4.15,6.47,5.56,10.68,1.81,5.38,6.09,10,4.61,16.31-1.75,7.35,2.23,12.85,5.24,18.78s7.22,11.3,5.36,18.75c-1.75,7,8.75,11,5.14,18.73,4.5,5.33,4.49,12.08,6.31,18.34,4.11,14.14,4.6,13.91-.53,30.28-1,3.16-1.92,8.36-.28,10,6.56,6.44,4.73,14.19,4.91,21.64.2,8.65-.67,8.37-4.94,18.85-3,7.32-8.67,9.38-14.9,11.73-2.25.84-4.13,2.78-6.41,3.39-1.22.33-4.25-1.34-4.19-1.72,1.38-8.08-6.49-13.86-5.77-21.07.62-6.23-5.61-8.36-5.58-13.56s-.07-10.46,0-15.69-6.84-7.4-5.8-13.46c.27-1.6-4-3.59-4.5-5.78-1.44-6.37,2.92-14-4.45-19.1-.76-6.56-3.34-12.38-5.74-18.53-5.66-14.52-4.77-14.78-17.63-21.69A110.1,110.1,0,0,1,438,1037.67c-4.69-4.46-4.78-10.46-8.7-15-3.71-4.28-9.3-3.32-13-7.06-3.18-3.21-4-7-5.71-10.76s-8-6-8.51-9.45c-1.1-7.95-8.17-10.7-11.27-16.4-2.47-4.55-15.83-5-6.25-14.69a1.86,1.86,0,0,0-.23-1.77c-6.11-6.21-13.62-11.55-18-18.78-3.66-6-5.63-13.9-10.07-19.08s-7.26-11.07-10.59-16.74c-1.19-2-1.13-4.76-2.17-6.91-.47-1-2.22-1.46-3.49-1.77-.37-.09-1.54,1.17-1.55,1.82-.11,8.71.86,17.56-.36,26.1-1,6.94,7.88,9,5.8,16.26-1.35,4.72.06,10.23.23,15.39,8.54,5.33,1.24,15.65,5.88,20.94,6.3,7.17,1.93,15,4.29,21.92,2.69,7.91,6.2,15.19,5.21,24.08-.95,8.61,0,17.42-.3,26.12-.19,4.88.41,9.4-2.81,14.57-6.07,9.73-9.12,21.37-18.92,28.65a8.64,8.64,0,0,1-4.48,1.7c-5.22.21-10.46-.06-15.68.14-3.25.12-5.08-1.57-5-4.35.23-5.33-4.34-7-6.88-10.26-1.07-1.36-3.67-2.74-3.48-3.68,1.94-9.6-11.06-10.55-10.89-19.24,0-2-3.7-3.92-3.92-6.07-1.42-13.46-9.22-24.12-15-35.69-.71-1.44-1.66-2.95-1.75-4.48-.24-4.34-.1-8.7-.11-13.05-6.31-2.76-3.59-11.29-9.24-14.48-1.07-7.5-1.9-15-9.19-19.78-4.44-2.92-2.39-7.94-2.33-12,.09-7.1.25-13.76-6.87-18.23-1.82-1.14-3-3.95-3.62-6.23-1.29-4.83,2.42-10.8-2.13-14.73-5-4.32-3-9.58-3-14.45,0-3.9-2.91-6-4-8.87-2.75-7.58-8.14-14.2-7-23.44.77-6.24-7.21-10.87-5.18-18.78,1.47-5.72-.08-12.16.39-18.22.44-5.58-6.65-7.36-5.62-13.58.77-4.62,2.46-10.53-3.2-14.21-.7-.45-1.65-1.22-1.67-1.88-.17-5.2,1.14-10.91-.61-15.47-1.39-3.63-4.59-6.25-5-11.1-.64-8.18,3.74-16.8-3.62-24.68-5-5.37,2.39-15.27-5.57-21.3-1.79-1.36-.57-6.48-1-9.83-1-7.3,3.13-15.76-4.73-21.56-.15-6-.23-12.08-.49-18.11-.19-4.42,2-5.91,6.13-6,1.42,0,3.1-1.26,4.15-2.4,2.66-2.86,6-4.14,8.85-1.62,3,2.67,7.93,4.82,7,10-1.49,8.06,3.72,14.3,5,21.44,1.37,7.6.16,15.63.35,23.47.16,6.64,7.58,10.85,5.51,18.84-1.4,5.38-1.93,12,4.32,16.46,1.3.93.42,4.88.59,7.43.46,6.78.95,13.55,1.43,20.32,7.86,3.72,0,13.77,7.26,18.08,1.45.85,1.6,4.54,1.69,7,.22,6.09-.08,12.2.12,18.29.17,5,5.53,7.55,5.62,13.52.13,8,7.29,15.07,4.79,24,7,5.83,5,13.87,5.23,21.36,6.41,5,4.92,12,5.38,18.74.15,2.22,2.36,4.22,3.12,6.49,2.58,7.67,9.91,14,7.14,23.16-1.84,6.08,5.78,7.92,5.4,13.54-.64,9.22,9,16.6,5.17,26.61-.21.56.36,1.63.86,2.2,5,5.66,7.67,12.42,9.53,19.59,8.76,4,1.58,15.19,8.93,19.84,6.44,15.71,15.54,30.14,22.14,45.73,1.44,3.42,3.51,5.62,5.66,8.08.77.88,3.09,1.77,3.51,1.37,2.47-2.3,5.27-4.7,6.56-7.67.69-1.6-.86-4.92-2.37-6.57-3.6-4-3.55-7.26.19-11a4.11,4.11,0,0,0,1-3.58c-.92-2.23-3.49-4.14-3.61-6.28-.46-7.82-.18-15.68-.18-23.52-7.28-4.71-5-12.09-5.21-18.75-.15-5.16-7.07-7.35-5.37-13.55s-2-11-4.71-16.31c-2.06-4.06.81-10.36-4.83-13.65.23-10.92-8.32-19.78-6.45-31.55,1.1-6.9,3.84-15.83-4.64-21.37l-.17-20.85c-9.43-7.35-4.89-17.7-4.81-26.59.06-6.06-6.22-8-5.75-13.53.36-4.25,1.17-9.37-.72-12.66-2.13-3.7-5.83-6.74-4.29-11.27,3.68-10.89-6.77-18.94-5.34-29.25-6.21-5-5.11-12-5.3-18.75-.14-5,.95-11.68-1.76-14.73-4.28-4.85-1.1-11.2-3.79-14.12-4.8-5.21-5.55-10.49-4.74-16.48,1-7.17-8-10.66-5.69-18.86,1.8-6.47.82-13.88.2-20.8-.42-4.77-6.34-7.52-5.29-13.57.67-3.87,1.88-8.78-2.47-11.91-5.19-3.75.19-10.76-3.82-14-6.1-4.92-3.31-11.1-3.9-16.79-.68-6.58.92-12.91-4.75-19.18-3.89-4.29,2.59-13.56-4.13-19-.64-.52-1.49-1.23-1.57-1.93-1-9,2.92-19-5.29-26.59,0-8.72.24-17.44-.1-26.14-.16-4,1.74-6.34,4.33-8.73s4.58-5.62,7.53-7.16c2.78-1.45,6.46-1.51,9.76-1.55,5.05-.08,4,4,4.85,7.21.57,2.2,5,5,4.68,5.56-2,3.18-6.86,5.08-1.07,9.63,2.2,1.74,2.52,5.8,3.89,8.71.69,1.47,2.39,2.64,2.64,4.11,1.29,7.41-2.76,15.73,3,22.28,4.62,5.29-.76,14.28,7.25,18,.4.18.29,1.57.33,2.41.33,6.64-2.15,14.07,5.24,18.74,0,6.1.06,12.21,0,18.31-.08,5.25,6.77,7.28,5.51,13.57-.95,4.68-1.92,10.43,3.68,14.09,1,.66,1,3,1.27,4.61,1.23,6.57-2.73,14.06,2.61,19.79,5,5.4-.19,13,3,16.92,4.85,5.86,2.62,13.63,6.49,18.23,4.1,4.87,1.56,10.48,4,14.11,3,4.49,5.41,8.24,4.92,13.8-.45,5.15,6.64,7.3,5.39,13.56-.93,4.71-.73,9.53,3.4,14.32,2.67,3.09,1.18,9.77,1.6,14.83.07.79.22,2,.71,2.26,8,3.74,2.47,12.52,7.07,18.16,5.68,7,9.41,15.6,8,25.39-.2,1.41.73,3.2,1.59,4.5,3.62,5.43,7.46,11.41,8.3,17.37,1.1,7.81,6.46,13.18,8.24,20.23,1.6,6.39,5.42,12,8.49,17.32,3.19,5.57,3.67,13.1,9.88,16.91-1.49,6.6,4.21,9,7.67,12.45,3.72,3.67,2,10.21,7.3,12.71,6.15,2.91,5.8,9.9,8.86,14.73,3.33,5.23,5.91,11.39,8.32,17.39s8.79,10.8,14.38,14.82c6,4.32,4.86,12.37,10.81,16.7,5.57,4.06,10.21,9.48,14.8,14.72,1.44,1.64,1,4.82,2.13,6.87.62,1.08,2.82,1.49,4.38,1.75,3.19.53,4.75-1.44,5-4.29.62-7.54-.3-10.69-5.16-21.37-2.72-6-7.9-11.45-5.18-18.71,2.65-7.06-7.92-8.92-5.51-16.23,2.24-6.79-8.87-10.63-5.12-18.73,3.39-7.34-6.6-11.09-5.48-18.75.91-6.27-8.11-11.07-4.88-18.7-3.88-3.44-4.93-8.37-6.86-12.85-1-2.22-3-4.11-3.48-6.38-1.15-5.61,1.87-11.82-3.75-16.85-4.46-4,1.74-12.44-5.64-15.93a2.53,2.53,0,0,1-1.13-2.06c2-10.74-3.2-19.35-8.14-28-.8-1.41-2.09-2.76-2.29-4.26-.89-6.51,2.44-14.11-5.1-18.82-.16-5.92.85-12.22-5.45-16,2.57-7.45-5.09-12.79-4.69-18.71.51-7.64-6.94-11.43-6-18.82.85-6.55-8.39-11-5-18.72-6.07-5-5.3-12-5.29-18.75,0-1.55-.38-4-1.37-4.52-7.12-3.73-.72-12.27-5.61-16-4.55-3.45-2.71-9.38-6.94-13.16-2.38-2.12-.12-9.28-2.48-11.63-4.34-4.33-3.79-9-4.71-14-.86-4.6-5.45-7.68-5.3-13.58.2-7.38,3.24-15.67-2.68-22.24-4.68-5.19,1.16-14.46-7.33-17.91,3.34-9.88-8.85-16.59-5.43-26.58a6.94,6.94,0,0,0-.22-5.06c-3.18-5.69-8-10.78-9.8-16.82-1.87-6.4-.91-13.61-1.19-20.47-8.28-3.54-.9-13.56-7.38-17.87-.71-.48-1.75-1.19-1.78-1.84-.27-5.17,1.26-11.18-.9-15.3-2.37-4.52-4.76-8.22-5.06-13.73-.39-7.36,3-15.08-3.15-22.22-4.79-5.58-.62-13.38-1.88-20.06-.28-1.53-.94-3.52-2.09-4.28-8.5-5.58-8.94-13.79-8.44-22.78.33-5.75,2.12-12.33-4.44-16.4-.61-5.84-.35-12-2-17.49-5.2-17.42-5.25-17.24,1.12-32.9,1.07-2.62,1.64-5,4.35-5.06,5.19-.16,10.48.56,13.72-4.87,6,1.79,8.15-5.74,13.32-5.64,5.37.11,7.45-7.44,13.46-5.45,11.8-5.92,12.27-6.14,17.92,5.53,2.39,4.94,5.19,8.39,10.1,10.28.75.29,2-.31,2.54.11,1.24,1,3.29,2.52,3.1,3.44-1.88,8.9,3.07,16.12,5.17,24.08,1.46,5.5-1,11.52,4.64,16.59,3.3,3-1.51,10.16,3.89,14,1.15.81,1.82,2.75,2.09,4.28,1,5.66-2.23,12,3.46,16.93,4.75,4.1-1,11.66,5.43,16.19,4.74,3.35-1.7,12.35,5.72,15.75-.34,12.13,9.14,20.67,11.71,31.77.25,1.11,2,1.86,3.08,2.78.68-1.46,1.88-2.9,1.95-4.39.24-5.21.75-10.56-.12-15.64-.66-3.82-5.26-7.71-4.62-10.86,1.45-7.09-5.21-10.35-5.7-16.21-.48-5.7,2.56-12.28-4-16.72-1-.68-1.42-3.21-1.08-4.63,3.13-13.1-7.64-24.15-5.33-37.07-7-5.84-5.73-13.94-5-21.35s-7.31-11.14-5.68-18.82c1.24-5.84.24-12.15.24-18.25-8.13-5.56-5.86-14.18-4.86-21.31,1.08-7.72-3.27-12.75-5.67-18.77-2.28-5.73-5.81-10.39-13-9.84-7.17-9.82-19.35-13.1-27.77-21.84-9-9.3-13.85-20.44-19.95-31.15a11.22,11.22,0,0,1-1.83-4.44,90.37,90.37,0,0,1,0-13.06c.52-5.85-2.72-12.83,1.95-17.33s1.21-10.34,3.73-14.22c3.26-5,8.37-8.79,12.69-13.11.61-.61,1.86-1.58,1.74-1.79-.66-1.2-1.8-3.24-2.5-3.13-5.34.8-7.61-3.3-10.59-6.19-2.57-2.49-1.8-6.09-.16-9,3.34-5.88,10.76-4.5,14.65-9.13,3.41-4.06,8.17-1.15,12.23-2s9.24,2.29,12.2-1.83c3.33-4.64,9.2-2.92,13-7,5-5.33,12.3-8.38,17.78-13.33,5-4.54,11.17-7.38,16.09-11.39,7.26-5.9,15.72-8.9,23.12-13.83,5.35-3.58,16.25-1.89,15.2-13.15,0-.55,1.09-1.69,1.77-1.77,5.76-.7,12.3.95,16-5.62,6.95,2.79,9.13-8.14,16-5.54a28.1,28.1,0,0,1,19.35-9.53c7.29-.33,11.06-8.41,18.76-6,5.38,1.69,7.4-6.78,13.54-5.41,1.44.32,3.7-4.63,5.62-4.66,6.13-.1,11.28-.71,16.45-5.12,2.52-2.16,8.39-.38,12.75-.38,13.07,0,26.24-.91,39.17.44,5.34.56,7.47-8,12.45-3.08,4.51,4.44,9.74,2.18,14.65,2.55,5.2.4,10.6.87,15.63-.13s6,5.74,10.38,4.06c1.49-.57,2.5-2.36,3.74-3.59,3.45,8.75,12.84,2.16,17.86,6.89,1.23,1.17,2.46,3,3.87,3.17,3.39.44,7.21-.23,7.24,4.85,0,4.16,1,8.49-3.22,11.78-3.42,2.65-5.93,8.25-9.37,8.72-7.91,1.09-10.62,9.62-16.43,10.84-7,1.45-9.41,7-14.39,9.79-5.59,3.1-12,4.76-17.72,7.63-4.91,2.46-9.06,11.75-6.67,15.3a61.85,61.85,0,0,0,11.76,13.32c2.2,1.8,6.4,1.43,9.7,1.53,7,.2,13.95.06,20.92.06,7.82,7.07,17.52,4.33,26.56,5.5,4.55.59,7.61,6.23,13.58,5.1,5.09-1,9.26,1.18,14,4.12,4.43,2.74,11.75,1.13,17.78.87,4.29-.19,5.75,3.21,8.33,5.23,2.65-3.2,6.82-6.07,7.58-9.67,1-5,1-9.48,5-13.88,2.19-2.41.39-8.32.67-12.63.1-1.55.55-3.74,1.62-4.46,11.05-7.34,14.06-21.12,23.89-29.45,3.83-3.26,6.7-4.24,11-.71,3,2.5,7,3.86,10.54,5.73q-.07,13-.14,26.09c-8.44,3.47-2.39,12.94-7.39,17.85-4.19,4.11-3.42,11.3-9.22,14.52-4.43,2.47-4.3,6.87-4.27,11.31,0,3,1.21,6,3.59,5.65,10.44-1.33,18.26,9.13,29.34,5.77,3.25-1,5.61,6.2,10.81,4.93,4.83-1.18,7.72,3.79,11.1,4.44,7.3,1.4,12.68,9.46,21.14,6,3.82,6.2,11.43,6.17,16.81,10.12,5.74,4.2,14.09,4.26,19.21,10.21,11.16-3.14,16.1,7.43,24.14,11.14,13.92,6.42,27.36,13.89,41.09,20.74,13.24,6.6,27.72,11.12,37.35,23.54,3.11,4,9.55,2.5,12.71,7.34,2.26,3.47,5.28,6.53,10.61,6.06,1.69-.15,3.82,3.21,5.54,5.15,3.73,4.2,3.34,11.59-.7,16s-12.4,6.86-15.9,3.74a82.64,82.64,0,0,0-16.19-11.4c-5.62-3-12.52-4.07-16.94-10.39-2.94-4.19-9.34-6.23-14.5-8.53-8.29-3.68-17-6.52-23-13.92-2.77-3.41-8.83-.48-10.77-5.55-12.13-4.6-22.88-12.19-34.86-16.78-4.53-1.73-7.3-7.58-13.37-5.73-5,1.51-8-2-10.89-5.17-7.42,2.45-12.81-5-18.72-4.68-7.6.4-11.59-6-18.77-6.19-8.84-.27-16-7.26-24.27-10.46-4.28-1.65-9.68-3.46-12.74-6.7-4.57-4.84-9.66-2.37-14.39-3.57-1.46-.37-2.34-2.59-3.78-3.49a8,8,0,0,0-4.58-1.38c-1.48.13-4.08,1.31-4.12,2.13-.41,8.65-2,17.67-.13,25.9,2.13,9.6-7.44,15-5.87,24.11,1.17,6.76.23,13.9.23,20.87v23.53c7.37,4.68,5.06,12.09,5.2,18.75.15,7-.65,14,.25,20.89.72,5.5,6.53,9.42,5.2,16.2-1,5-.21,10.42-.16,15.65,0,.79.12,2.07.59,2.3,7.89,3.79,2.92,12.4,7.09,18.12,7.59,10.43,10.55,23.64,18.44,34.11-.93,7.52,6.69,9.41,9.42,14.42s3.47,10.91,6.47,15.55c3.22,5,8.05,8.91,12.15,13.32,1.15,1.24,3.36,2.79,3.16,3.81-2.63,13.22,9.31,17.35,15.33,25.13-1.85,6.67,7.51,9.2,6.06,16-.11.49,3.94,2.33,6.19,2.66,1.14.17,2.57-1.62,3.86-2.53-6.61-3.69-4.73-10.31-5.54-16-7.91-3.7-2-13.12-7.4-17.85s.48-14.13-7.35-17.94c-.45-.21-.37-1.53-.52-2.34-1.06-5.66,2.61-12-3.13-17.06-4.54-4-1.74-9.82-1.94-14.77-.22-5.33-7-7.26-5.62-13.56,1.1-4.95,2.09-11.79-.4-15.22-3.34-4.6-4.29-8.68-4.86-13.91-.4-3.78-4-7.14-4.77-11-.87-4.17.11-8.7-.27-13-.57-6.53,2.74-13.84-4.25-19.27-1.37-1.07-.64-4.82-.91-7.33-1.52-14.12,4.24-29.13-5.17-42.32-.41-.57,0-1.7-.06-2.57q-.69-11.48-1.41-23c-7.59-6.22-2-14.74-3.91-21.92a17.65,17.65,0,0,0-3.55-6.34c-2-2.5-4.51-4.65-6.86-7,5-4.41,10.45-1.76,15.38-2.52,7.92-1.24,14.71,2.19,15.6,9.51,1,8.54,13.15,9.62,10.9,19.15,5.84,5,5.49,14.15,12.82,18.29,4.65,2.63,2.22,7.76,2.93,11.8s6.34,5.71,5.26,10.93c-.7,3.38.17,6.38,2.79,9.33s3.17,7.71,5.87,10.47c4.27,4.36-1.4,10.7,3.58,14.26,4.39,3.14,2,8.13,3.64,11.58,2.88,6,6.12,11.68,5.56,18.63,8,3.68,1.8,13.07,7.28,18,1.58,1.42,2.25,4.37,2.47,6.7.55,5.82-.73,11.47,4.73,16.58,3,2.83-1.48,10,3.87,14,1.52,1.14,1.86,4.54,1.87,6.9.13,24.4-.17,48.81.29,73.2.09,5.21-3.65,7.33-5.25,11s1.71,8.67-2.39,12.07c-5.85,4.85-3.14,11.5-2.58,17,.34,3.41,4.44,7.92,7.85,9.13s8.49,2.3,12.09-1.61c2.36-2.56,5.23-4.7,7.3-7.46,4.08-5.43,9.36-7,15.8-6.23,2.58.3,5.31-.36,7.81.17a13.82,13.82,0,0,1,6.14,3.15c1.61,1.46-1.11,5.62-4.63,7.16-1.47.65-4.4,1-4.41,1.51-.19,10.94-12.31,9.24-16.84,16.1-4.71,7.12-12,12.54-18.2,18.74-3.14-4.22-8.75-4.05-12.49-6.92-4.12-3.15-7.31-7.48-11.27-10.87-1.74-1.49-4.32-2.2-6.63-2.8-10.79-2.81-13.39-4.32-19.35-17-2.77-5.9-7-3.22-11.85-4-.62.31,1.07.06,1.07,0a31.54,31.54,0,0,0,0-7.27c-.2-1.06-1.85-1.9-3-2.65a3.75,3.75,0,0,0-1.61,1.65c-1,3.2-.94,6.25,3.56,8.25.21,5.58,4.21,9.21,5.94,13.71,4,10.38,8.8,19.66,17.4,26.76,2.82,2.32,5,5,3.92,8.79-2.08,7.42,3.07,12.61,5.12,18.81,1.78,5.35,7.51,9.23,5.66,16.13-.43,1.59,2.13,4.31,3.79,6.06,3.54,3.73,7.88,6.85,6.44,13.06-.94,4.05,2,6.35,4.62,8.48,6.63,5.46,7.7,14.59,14.45,20.38,4.64,4-.49,13.71,7,17.77-3,8.47,3.78,14.4,6.73,20.69a175.09,175.09,0,0,0,8.79,17.32c3.38,5.54,7.75,11.24,5.41,18.63,5.26,2.56,4.61,8.57,7.3,12.67,3.11,4.72,7.58,9.73,7.88,14.82.38,6.37,3,11,5.73,16.09-4.17,7.9,6.57,11.63,5.23,18.74,5.75,4.07,5.79,10,5.23,16.11,6.41,3.86,5.17,10.15,5.27,16.13.12,7.46,6.74,12.85,5.67,21.4-.85,6.83,5.84,13.09,6,20.9.07,2.36,4.27,4.66,4,8.67-.38,6.08.69,12.32-.31,18.25-1.13,6.75,4.42,10.72,5.21,16.19,1,6.82.45,13.9.16,20.86-.22,5.4.22,10.12,5.07,13.78.76.57-.83,4.52-1.63,6.8-.63,1.83-5.11,2.8-1.24,5.54,4.4,3.11,4.64,9,2.77,11.55-6.11,8.47-5.75,17.78-4.6,26.77,1.06,8.33-2.68,14.91-5.91,21.19-3.31,6.44-6.4,13.09-10,19.4-.37.66.3,2-.12,2.54a33.27,33.27,0,0,1-3.57,3.76c-5.54,5.55-11.48,10.75-16.49,16.74-3.53,4.22-9.58,2.42-13.07,7-1.39,1.84-6.33,1.23-9.67,1.3-7.83.16-15.73-.57-23.49.21-9.2.94-15.33-5.28-22.7-8.45-4.38-1.89-6.06-7.74-12.61-7.87-3.16-.07-5.79-6-10.86-4.86-4.82-6-13.81-5.73-18.41-12.76-2.52-3.85-5.92-7.57-12.06-8.59-4.24-.71-8.3-6-11.2-10.17-3.33-4.74-9.12-3.94-12.78-7.28-3.13-2.87-6.93-5.49-5.58-10.73-17.1-4.76-22.7-25-39.94-29.72-1-.26-1.23-2.84-1.91-4.29-1.71-3.65-4.62-7.17-5-10.93-.63-6.92-7-3.14-9.46-6.16-2.57-3.2-6.65-5.08-6.68-10.38,0-4-5.33-5.74-5.33-10.89,0-5.5-7.26-2.05-9.92-5.74-5.36-7.41-15.34-11.32-16.54-21.91-5.54-5.54-10.93-11.25-16.69-16.55-2.8-2.58-4.21-5.22-3.72-9,.07-.52-1.4-1.85-1.71-1.72-1.23.51-3.3,1.52-3.25,2.21.67,9-3.13,19,5.07,26.58-2.93,12.18,7.9,22.33,5.16,34.39-1.36,6,4.22,8.85,5.17,13.55,1,4.94.6,10.15,1.51,15.11.41,2.23,3.41,4,3.68,6.23.82,6.57-2,14,5.39,18.71,0,6.1.29,12.21-.1,18.28-.21,3.34,2.69,4.19,3.69,6.36,2,4.43,4.42,8.71,6.49,13,2,4.15.23,9.34,4.23,14.09,2.64,3.13,2.36,10.16,1.09,14.82-2,7.26,6.37,9.73,5.71,16.22-.58,5.74-1.91,12.32,4.7,16.25.6,5.76-1,12.3,5.53,16,0,4.35-.46,8.77.16,13,1.07,7.35-2.49,14.85,3.2,22.27,4.78,6.23,1.27,15,1.88,22.6.21,2.6,0,5.23,0,7.84.11,3.16-1.6,5-4.48,4.79-4.25-.32-6,2.85-8.35,5.15-3.06,3-5.63,6.17-10.82,5.77-1.71-.13-4.74,4.58-5.34,4.2-2.87-1.83-7.6-5.29-7.16-7,2.63-10.11-9-16.62-5.85-26.7,1.58-5.14-1.2-7.8-6.94-7.75-1.1,0-3.3-3.77-3.19-5.69.47-8.16-.78-15.18-8-20.4-1.63-1.18-2.65-4.43-2.48-6.62.37-4.84-2.37-7.63-4.72-11.26-2.06-3.16-.07-10-2.42-11.72-6.32-4.62-.41-12.47-5.37-16.22-4.52-3.41-2.39-9.62-7-13.09-1.86-1.39-1.51-6.29-1.45-9.58.09-4.49-.3-8.34-4.26-11.39-4.14-3.19-7.47-6.88-6.5-13,.32-2-1.5-4.57-2.84-6.53-2.78-4-7.84-6-7.94-12.61,0-3-5.73-5.88-4.93-10.81-5.31-3.19-5.5-8.31-5-13.6.84-8.63-7.63-14.81-6.17-23.63.08-.5-1.26-1.13-1.74-1.84-2.66-3.93-11.9-6.55-2.64-12.92-10-5.31-2-16-7-23.2-4.6-6.54-7.6-14.21-11.26-21.4-4.09-8.05-9.17-15.61-8-25.54.71-5.75-6.2-9.14-5.6-16.15.41-4.84-4.32-10.13-6.75-15.21-1.05-2.18-2.7-4.27-3-6.55-.63-4.21-.2-8.58-.82-12.8-.2-1.38-3.36-2.48-3.36-3.72-.07-10.13-7.74-18.17-7.55-28.29-7.41-3.4-1.11-12.15-5.71-15.76s-2.06-10.11-7.13-13c-1.06-.6-1.41-2.86-1.66-4.42-.91-5.66,1.88-11.74-3.79-16.84-4.3-3.87,1.64-12.29-5.61-16-.92-.46-1.42-3.24-1-4.61,3-9.88-6.73-16.94-5.65-26.63.39-3.51-6.15-5.66-5-10.88a8.6,8.6,0,0,0-3.12-9.17,6.42,6.42,0,0,1-1.95-4.33c-.21-6.08,1.83-13.16-.64-18a62.41,62.41,0,0,1-5.08-13.68c-1.58-6.25-6.72-11.55-4.84-18.84,1.65-6.43-7.09-9-5.56-16.19,1.33-6.29-8.21-11-4.88-18.66-7-4.32-2.53-14.07-7-17.72-6.53-5.37.42-14.3-7-18.4-1.07-.59-1.45-2.85-1.7-4.41-.9-5.66,1.89-11.77-3.76-16.84-4.35-3.91,1.43-12-5.47-16.18-1.75-1.07-2-6.68-1.06-9.59,2.3-7.12-6.76-9.9-5.42-16.19,1.63-7.58-4.49-10.65-8.57-14.7-3.52-3.49.53-4.28,1.74-5.51,1.68-1.69,1.86-2.49-.43-3.83-4.78-2.8-2.67-9.29-7.21-12.83-4-3.1,1.23-10-3.82-14s-1.43-9.77-2.79-14.49c-1.09-3.82-3.72-7.18-5-11-1-3.1.13-8.13-1.74-9.51-4.14-3.06-2.48-7.95-5.23-11.15-1.55-1.81-3.65-4.35-3.4-6.29,1.28-9.84-2.76-18.11-8-25.46-2.94-4.13-2.13-7.95-2.72-12-.39-2.75-1.86-4.75-6.39-4.16,1.22.81,2.1,0,1.18-2.42a3.24,3.24,0,0,0-1.58-1.73,9.78,9.78,0,0,0-4.41-1c-1.39.19-2.66,1.33-4,2.05.9,1,1.63,2.54,2.75,2.94C400.46,318.13,402.22,317.74,405.06,317.74Zm26.94,254a19.18,19.18,0,0,0-2.52-3,1.57,1.57,0,0,0-2.22,2.21,10.56,10.56,0,0,0,3.08,2.38c.2.11,1.05-1-5.58-4.65,2.44.81,3.31,0,2.4-2.42a3.2,3.2,0,0,0-1.58-1.73,9.79,9.79,0,0,0-4.41-1c-1.39.19-2.66,1.33-4,2.06.91,1,1.63,2.53,2.76,2.93C421.38,569.13,423.14,568.75,432,571.79ZM720,185.51c0-8.23.42-6.26-8.72-4.29-9,1.93-11.29,13.23-21.1,12.15-.54-.05-1.18,1.18-1.84,1.75-5.89,5.07-6.82,12.77-10,19.25-.37.75,1.6,3.83,2.46,3.82,5.22-.05,2.47,3.84,2.41,5.38-.18,4.34,5.5,5.48,5.14,8.2-1,7.85,1.87,13.28,7.83,17.7,4.23,3.13,2.08,10,7.33,12.55,6,2.91,4.87,10.3,9,14.52,1.5,1.52,1.33,4.58,2.29,6.77,1.29,3,6.23,4.5,8.37,2.17,1.46-1.58,2.6-6,1.84-6.63-4.63-3.68-5.23-8.24-5.13-13.67.28-14.72-.25-29.46.28-44.16.19-5.23-2.71-7.68-5.64-10.75-4.67-4.9-5-5.37-.71-9.06C718.85,196.88,720.84,191.87,720,185.51ZM597.43,260.22c.78,0,1.86.3,2.25-.09a2.28,2.28,0,0,0,0-2.2c-1.22-1.72-2.71-3.87-4.55-.72-.24.42,1.47,2,4.6,15.32-.25,5.94,0,12.86,7.07,19,4.46,3.88,6.3,11.12,8.5,17.15,2.55,7,7.56,18.61,12.25,23.62,2.57,2.74,4.24,5.27,3.58,9,6.31,2.76,4.08,10.68,9.09,14.65,4.1,3.24-1.27,10.14,3.81,14,4.78,3.63,8.24,8.17,9.41,14.39.42,2.24,3.85,4.37,3.58,6.2-1.06,7.07,2.66,11.24,7.27,15.47a11.57,11.57,0,0,1,3.31,6.38c1.37,9.26,4.85,17.34,11.52,24,1.71,1.72,4,4,4.06,6.05.24,5.27-.1,10.4,5.22,13.6-1.82,6,5.81,8.11,5.43,13.41-.32,4.35,3.91,5.34,5.63,8.14,1.33,2.16,2.51,2.47,3.71.73a4.73,4.73,0,0,0,1.1-2.14c0-5.06-.49-9.35-3.81-14.22-2.88-4.21-1.43-11.61-1.28-17.58.16-6.14-7.52-9.13-5.51-16.19,1.42-5-1-9.29-4.35-13.9-2.5-3.41-.56-10-.76-15.24,0-.66-.9-1.48-1.58-1.91-5.75-3.61-4.27-9.65-3.27-14.15,1.58-7.09-7.51-8.93-6-16.28,1.11-5.29,3.22-12.31-1.9-17.19-5.46-5.21-1.71-11.5-3-17.13-.34-1.5-2-2.69-2.41-4.2-2-7-7.06-12.45-8.47-20.14-1.29-7.08-5.75-13.55-4.93-21.47.21-2-2.37-4.14-3.24-6.39-3.23-8.34-7-16.38-12.24-23.67,2.76-10.81-6.36-15-11.94-21.14-.36-.4-2.53.44-3.54,1.15a31.19,31.19,0,0,0-3.74,3.63c-3,3-1.83,7.59-5.22,11.08-3.89,4-10.19,2.12-12.94,7.08l-4.46,4.46C599.76,265.45,599.76,268.06,597.43,260.22Zm49.4,203.94c1.48.62,3.94.89,4.3,1.9,2.41,6.9,5,14.24,9.71,19.3,5.19,5.61,7.71,10.73,7,18.21s8.11,12.88,5.62,21.17c-.12.4,1.2,1.79,1.74,1.73,10.11-1.06,8.09,6.18,8.19,11.9.09,4.35.26,8.72,0,13-.4,5.9,2.58,6.81,7.75,7.17,3,.21,2.06,3.22,0,5.22-.8.78-.81,2.39-1.18,3.62,1.56.44,3.17,1.36,4.66,1.18s3.89-1.25,4.07-2.26c.58-3.36,1.82-8.63.18-10-6.6-5.46-4.6-12.39-5.05-19-.1-1.52-.75-3.68-1.86-4.34-7.07-4.2.81-14.34-7.3-17.94-.25-7.53-6.11-14.14-5.82-20.79.32-7.08-7.58-9.79-5.79-16.12,1.72-6-4-8.81-5.45-13.46-1.68-5.33-4.36-10.38-6.92-15.39C655.91,440,650,431.08,647.14,421c-1.16-4.1-3-7.57-4.37-11.26-1.84-5-4-9.13-7.91-12.38a9.79,9.79,0,0,1-3.86-8.93,12.84,12.84,0,0,0-1.72-7,241.1,241.1,0,0,1-13.34-25.83c-4.25-9.38-11.6-17.68-11.41-29.39.08-5.22-10.67-7.39-9.63-13.87,1.13-7.08-5.16-10.29-5.78-16.14-.23-2.16-2.6-4.09-4-6.13-2.17-3.18-5.13-4.2-8.93-3.73a65.75,65.75,0,0,1-7.82.06c-.06-4.26-.1-8,3.45-11.75,4-4.24,1.93-9-2.79-9.15-3.48-.13-7-.05-10.44,0-5.91.05-9.28,7.92-16.13,5.26a3.17,3.17,0,0,0-2.55,0,18.07,18.07,0,0,0-3.79,3.46c-4,4.94-8.56,8.2-15.44,7-4.37-.77-7.7,1.29-11.6,3.62s-10.26.13-14.85,1.81c-5.35,1.95-9.71,6.05-16.24,5.1-5.11-.74-10.45.18-15.64-.24-4.75-.38-7.88,1.54-11.29,4.61-2.07,1.87-7.23-.16-8,4.13-.61,3.26-1.13,8.44.64,9.87,4.43,3.57,3,9.84,7.17,12.87,5.72,4.19-.57,11.77,5.36,16.22,5.55,4.15-1.09,14.26,7.5,17.67,0,3.47.2,6.95.06,10.41-.28,6.79-1.27,13.83,8.83,14.37.63,0,1.56,2.83,1.57,4.35,0,4.33.16,8.05,3.73,11.69,2.34,2.38-6.38,7.54.86,10.84.52,4.27,1.68,8.21,5.54,10.76-1.94,6.07,6.26,8.2,5.5,13.31-1.25,8.41,5.29,13.57,7.52,20.48,1.22,3.79,2.89,7.89,5.59,10.64,3.7,3.78,2.19,7.95,2.77,12s6.16,5.68,5.32,10.92c-.68,4.24,0,8.68-.16,13-.14,5.2-.62,10.46,4.8,13.69-1.12,7.11,3.5,12.46,5.34,18.64s-1.7,13.83,5.43,18.57c-10.41,6,4.18,10.67.9,16.3,2.5,2.34,5.63,4.68,4.39,8.57-3.17,9.94,8,16.86,5.31,26.59,5.09,4.28,6.13,9.88,5.23,16.11,7.3,4.69,4.54,12.12,5.36,18.71.68,5.59,7.26,9.4,5.25,16.17-.33,1.11,1.31,2.84,2.11,4.24,4.93,8.68,9.93,17.26,8.3,28-.36,2.37-.33,5.8,1.07,7.25,4.76,4.94,5.19,12,9.29,17.13-2.4,7.42,6.37,11.66,5.3,18.7,5.24,3.17,4.83,8.25,5.36,13.51.75,7.32-3.93,15.76,3.85,21.84.14,8.43,3.79,16,7.73,22.86,2.2,3.85,4,7,4,11.5,0,5.05-1.06,11.66,1.61,14.76,3.54,4.08,4,9.07,6.47,13.27,4,6.74,10.14,13.68,7.51,22.92l7.71,17.7c1.72.05,3.6.52,5.11,0,.93-.33,2-3.15,1.83-3.26-4-2.9-4-7-4.36-11.4-.61-7.44,2.47-15.13-2.75-22.36-4.83-6.69-1.34-15-2.44-22.48-.21-1.41-2.1-2.58-3.24-3.85-4.59-5.1,1.83-14.55-7.09-17.95-.92-6.5,2.94-14-4-19.25-.43-6.79-.88-13.58-1.26-20.37-.24-4.27,1.35-10.3-.89-12.5-6.83-6.75-3.28-14.6-4.31-21.9-.48-3.34.7-8.32-1.12-9.8-6-4.88-3.9-11-4.07-16.76-.28-9.56,0-19.15-.13-28.72,0-2.46.2-6.19-1.2-7.17-9.12-6.36,1.55-19.6-9.08-25.11,0-6.08-1-12.34.11-18.18,1.51-7.61-6.95-11.67-5.44-18.77,1.64-7.75-1.65-13.13-7.49-17.86-4-3.26-7.53-7.23-11.1-11a8.06,8.06,0,0,1-2.22-4.24c-.15-1.48.79-3.08,1.26-4.63,1.23.41,2.84.47,3.62,1.3,2,2.2,5.19,2.69,5.22-.15.34-36.55-.19-73.12.49-109.67.2-10.6-5.1-22.57,5-31.79,0-6.09-.14-12.19.1-18.28,0-1.46,1.4-4.15,2.07-4.12,8.3.32,10.84-7.64,16.5-10.91,2-1.13,5.46-1,7.66,0,7.13,3.07,14.25,8.15,15,15.63a20.53,20.53,0,0,0,8,15.14c5.83,4.89,2.41,11.34,2.89,17.05.46,5.31-.53,11,7.77,9.56,2.69,4.94,5.55,9.79,7.92,14.88.53,1.14-.17,3.66-1.18,4.55-5.18,4.58-4,6.33,2.4,6.8,2.73.19,4.74,1.84,4.15,7.47,0-.77.3-1.85-.09-2.24a2.28,2.28,0,0,0-2.21,0c-1.71,1.21-3.86,2.7-.72,4.54C644.23,469,645.79,467.3,646.83,464.16Zm272.28,559.53c4.36,0,8.71.06,13.06,0,5.79-.1,17.25-9.86,17.85-15.83.66-6.63-1.42-13.88,5.33-18.72v-20.9c0-19.16.23-38.33-.12-57.48-.13-6.51,3.13-14-3.93-19.22l-1.83-22.76c-4.75-3.12-4.39-6.2.09-9.23-1.4-3.62-5.4-5.66-4.91-10.69.46-4.75,1.69-9.81-3-14.44s-1.09-11.51-2.11-17.3c-.13-.71-1.08-1.38-1.8-1.84-4.52-2.95-2.55-7.68-3.5-11.66s-5.33-7.75-4.65-10.85c1.58-7.15-7.29-10.23-5.43-16.15,2.26-7.2-6.91-9.76-5.43-16.18-7.78-3.95-2.32-13.78-7.09-17.75-5.88-4.92-1.3-11.44-5-16.48S899,715,898.31,709c-.69-5.81-3.2-9.18-6.58-13.14-6.93-8.11-9.63-18.64-14.82-27.78,2-8.44-5.27-13.5-7.67-20.35-2.65-7.55-6.89-14.59-10.93-21.57-2.44-4.22-8.94-6-7.54-12.57-5.91-4-5.45-10-5.47-16.09,0-1.24-3.12-2.31-3.38-3.72-1.32-7.25-8.43-12.43-7-20.74.45-2.61-1.85-3.82-4.91-4.41-7.79-1.51-11.32-6.74-10.63-14.74.46-5.29.35-10.41-5-13.61,1.79-6-4.63-8.35-5.76-13.34a37.55,37.55,0,0,0-7.39-15.08c-3.29-4-3.06-9.14-6.83-13.12-3.58-3.79-3.56-10.76-6.66-15.29-2.83-4.16-4.64-8.55-6.63-13-1-2.21-3.6-4.4-3.35-6.33.75-5.89-1.52-9.85-5.79-13.44-2.52-2.12-6.15-4.39-4.79-8.34,2.65-7.71-7-11.07-5.72-18.84,1-6.17-8-11-4.85-18.67-4.92-4.34-5.09-10-5.66-16.08-.32-3.39-6.43-5.87-4.74-10.92,2.06-6.15-5.78-8-5.4-13.54.22-3.2,1.41-7-2.11-9.52-4.34-3.1-2.43-9.58-7.32-12.73-6.63-4.27-7.63-12.43-11.29-18.76-2.81-4.86-4.55-10.34-7.34-15.22-2.43-4.28-7.4-6.27-8.87-12.09-1.11-4.41-8.52-7.57-8.94-11.72-.59-5.75-6.3-8.14-6.22-13.24.09-5.4-5.67-7.54-6-13.44-.27-5-5.53-9.7-8.67-14.48-2.09-3.19-5.14-4.64-8.87-3.69-2.6.66-3.83,5.53-1.52,8.71,2,2.78,4.68,4.85,4.09,8.83a9.85,9.85,0,0,0,3.05,9.22c3.49,3.42,9.4,6.09,7.28,12.53-2.29,7,7.61,8.91,5.55,16.22C680.8,305,692.3,313.25,688.82,324c-.33,1,1.91,2.62,2.35,4.13,2,7,9.37,12.26,7.79,20.19-1.81,9.06,8.57,14.58,5.65,24.07-1.73,5.61-1.22,12.12,5,16.05-3.91,8.5,5.91,13.47,5.38,21.35-.5,7.44-1.9,15.51,5.08,21.34-2.32,8.87,3.09,16.05,5,24,1.19,4.94-.89,10.74.55,15.53,1.36,4.52,6.21,7.82,4.95,13.62-1.2,5.51,6.66,7.35,5.39,13.54-1,5-.67,10.46-.1,15.62,1,9-4.23,19.22,5.12,26.58q0,13,0,26.11c9,6.41,4.51,15.87,5,24,.69,11.28,0,22.63.27,34,.05,2.32.64,5.54,2.21,6.77,5.17,4,.4,11,3.8,14.05,5.67,5,3.77,10.89,4.46,16.64a12.51,12.51,0,0,0,2.77,6.61c4.85,5.38,2.87,11.95,1.84,17.26-.82,4.27-6.46,7.66.51,11.44,0,6.1-1.08,12.45.29,18.22,1.5,6.26,6.26,11.32,5.21,18.84-1,7.32-1.92,15.38,4.84,21.45.71.64.17,3.43-.57,4.79a13.45,13.45,0,0,1-21.46,3.41c-1.88-1.81-3.79-3.61-5.52-5.56s-4-2.95-3.82-6.29c.38-7-.83-14.1.35-20.85,1.46-8.33-6.81-13.11-5.79-21.43,1-8.08,1.84-16.53-4.51-24.25-2.6-3.17-.79-10-1-15.1-8.68-3.94-.56-15.75-9.23-19.69-1.59-7.26-6.65-12.94-9.13-19.73-2.78-7.57-9.53-13.84-7.29-23.17,1.27-5.34-1.62-6.87-7-7.84-3.56-.64-6.39-5.38-9.51-8.33-2.31-2.19-2.28-2.22.6-9.23,1.31-3.17,0-7.16-3.43-8s-7-.21-6.75-5.39-7-7.46-5.7-13.43c.09-.42-2.66-2.14-4.07-2.12-2.95,0-5.14-1-5.79-3.65-1-4,1.6-8.67-2.55-12s-2.61-9.43-7.19-12.88c-2-1.53-.68-6.31-3.84-8.71-4.23-3.21-1.17-8.14-2.29-12.09-.89-3.15-5.85-4-5.15-8.31.89-5.56-.61-10.06-5.47-13.46-2-1.41-5.06-4.21-4.7-5.65,2.41-9.77-5.31-13.7-10-19.62-2.29-2.9-.83-6.57,2.36-8.76,2.11-1.45,2.51-3.4.54-3.57-7.71-.68-12.23-6.13-16.1-11.38-6-8.09-14-4.95-21.37-5.35-.86,0-2.6,2.42-2.65,3.77-.13,3.34-.68,8.77,1,9.71,7.77,4.36,1.3,13.17,7,18.41s1.6,13.14,2.2,19.81a156.42,156.42,0,0,1,.07,20.88c-.23,5.43.32,10.06,5.11,13.76,1,.76,1.19,4.94-1.61,6.89-1.27.88-2.09,2.4-3.12,3.63,5.35,3.21,5,8.38,5,13.64,0,13.51.16,13.49,9.72,32.53.7,1.41-.09,3.7.78,4.86,3,4,5.76,6.45.32,11.85-3.61,3.58.35,12.72,5.17,15.47,7.08,4,14,8.6,23,7.72,5.18-.5,10.45-.15,15.67,0,.65,0,1.9,1.2,1.8,1.58a9.82,9.82,0,0,1-1.75,3.69c-2.76,3.52-6,5.58-10.94,5.26-6.87-.44-13.8.15-20.7.3-4.12,7.21-2,15.09-2,22.61.06,7.32-3.31,15.85,5,21.36,0,5.22,1.15,10.77-.24,15.59-2.08,7.24,8,8.94,5.81,16.29-1.28,4.43-1.73,10,3.51,14.11,4.17,3.28-1.28,10.26,3.82,14,2.43,1.77,2.68,3.52.11,5.57-3.09,2.46-4.17,6.53-1.17,8.66,4.75,3.37,3.11,9.25,7,13.05,4.72,4.6,2.09,11.53,1.83,17.29-.23,5.22,5.21,7.88,5,10.87-.45,6.11,5.32,8.19,6.13,13.48s4.42,10.41,7.7,14.95c2.92,4,2.61,9.45,7,13.05,1.76,1.45,1.1,6,3.86,8.69,6.16,6,14,11.55,17.12,19,4,9.53,12.86,13.59,18,21.28,1.35,2,2.25,4.29,3.41,6.42,3.71,6.74,8.47,12.4,15.93,15.25,1.5.57,4.1,1.17,4.22,2,1.45,10.56,11.18,14.6,16.8,21.83,15.31,5.47,23.07,19.83,34.8,29.52,4.43,3.66,7,10.35,14.41,9.35,6.17,6.13,11.76,13,18.67,18.17,6.4,4.75,15.69,6.17,21,11.69,5.56,5.82,14,5.84,18.7,12.45,4.53,6.37,13.12,6.29,19.14,10.21,6.2,4,12.87,6.9,19.37,10.15C908.85,1023.9,909,1023.68,919.11,1023.69ZM414.24,140H388.1c-6.41,9-15.92,3.8-24,5.28-1.53.29-2.92,1.33-4.38,2-5.81,2.8-11.72,5.41-17.41,8.44-4.44,2.38-8.56,5.09-9.44,11-.33,2.2-2.17,4.62-4,6.07-5.28,4.13-6.86,9.25-6.39,15.77a120.44,120.44,0,0,1,0,20.89c-.78,7.45,6.47,11.44,6.73,18.2,7.39,7.39,14.7,14.88,22.29,22.06.92.87,3.65.66,5,0a5.48,5.48,0,0,0,2.58-4c.23-8.7.17-17.42.09-26.13,0-3.95,1.71-5.09,5.54-6.69,6.11-2.55,11.7-5.62,18.64-5.71,2.28,0,3.45-6.19,7.45-1.64a111.53,111.53,0,0,0,11.09,11.08c5.86,5,5.27,14.51,12.87,18.26.74.36,1.9,1.45,1.77,1.78-2.72,7,8.38,9.11,5.64,16,5.3,2.54,4,9,7.4,12.61,2.41,2.52,5.15,4.75,7.32,7.45,2.5,3.1,5.64,3,9.14,3.38,6.36.65,10.94-2.63,16.34-4.89,5.2-2.17,12.28-1.58,18-.19,7.17,1.73,10.06-7,16.17-5.39,8.35,2.26,14.08-4.37,21.39-5.35,5.68-9.35,16.74-1.72,23.09-7.12,3.9-3.34,7.62-2.88,11.78-3.44,6.39-.87,5.74-4.21,5.59-13-.16-9.12-4.86-15.56-7.92-23.06-.91-2.24-3.17-4.57-2.85-6.54,1-5.87-3.94-9.09-5.13-13.63-1.26-4.79-.76-9.36-4.53-14-3.21-4-.38-10.92-5.59-16-3.66-3.61-.26-12.07,4.68-15.53,2.57-1.81,6.56-1.89,8.66-4s2.15-6.14,4-8.65c2.5-3.36,5.34-7,10.64-5.91.35.07,1.35-2.18,1.65-3.45.09-.37-1.16-1.52-1.82-1.54-5.2-.2-10.4-.21-15.6-.28-7.58-8.77-17.44-4.18-26.46-4.5-2.77,3.77-6.39,4.88-11.12,4.85-9.12-.07-18.29-1.6-26.85,4.73-3.46,2.56-9.88,1.12-15,1.5-6,9.37-19.11-1.25-25.28,9-.93,1.55-6.59.27-10.07.28C424.69,140,419.46,140,414.24,140Zm55.58-36.61c8.68,0,17.47.85,26-.31,5.37-.72,9.53-5.63,16.13-5.32,4.3.19,7.56-6.54,13.44-4.85,6.48,1.86,10.77-3.34,16.14-5,4-1.21,8.84.61,12.87-.52,2.94-.82,5.53-3.94,7.59-6.57,2.39-3.06,1.66-6.41-1.46-8.79-3.33-2.54-2.49-6-2.6-9.36-.17-4.63,1.37-6.41,5.58-6.36,2.57,0,6.57-.88,7.47.39,4.21,5.89,12.14,5.07,16.74,10.67,5,6.09,6,5.74,12.28,1.58,4.09-2.71,10.1-2,12.66-7.24s8.82-4.3,12.49-7.46c2.44-2.1,5.15-5,5.76-7.92,1.38-6.59-5.49-4.31-8.1-6.59-3.47-3-6.66-4.52-11.31-4.46-18.23.25-36.46.07-54.7.13-2.49,0-6.24-.45-7.27.91-3.84,5.11-9.64,2.75-13.82,4.68-5.34,2.46-10,6.41-16.22,4.74s-8.61,4.4-13.47,5.42c-10.1,2.13-19.18,6.42-24.21,10.67-2.51,2.12-4.17,5.55-8.38,5-4.46-.63-7.65,1.68-11.5,3.79a101.15,101.15,0,0,0-12.49,7.58c-6.43,4.83-13.09,10.23-22,9.47-3.19-.26-5.36,1.35-5.29,4,.18,6.19-3.34,6.61-8.09,7-1,.08-2.14,4.17-2.32,6.48-.09,1.1,2.05,3.49,3,3.38,10.63-1.28,22.4,4.28,31.72-5.06Zm88.11,62.08c-.79,4-.56,9.83,5.23,13.88-2.51,7.42,4.8,12.65,4.76,18.69-.06,8.53,5.93,11.74,9.89,17,1.3,1.73.7,4.86,1.05,7.34.23,1.62.17,3.53,1,4.75a24,24,0,0,0,5.48,5.54c3.21,2.34,3.49-2.33,5.5-2.66,5.2-.88,9.53-3.15,12.55-7.46,2.88-4.13,7-3.7,11.32-4.32,8.55-1.22,9.19-5.4,6.29-14.68-1.69-5.41-6.76-9-6.11-16,.44-4.87-3.08-11.2-6.75-15s-2.2-9.73-6.84-13.19c-1.87-1.38-.84-6.34-1.63-9.55-1.29-5.24-7.47-10-13-9.64-4.09.28-9.13-2.46-12.16,1.81-3.27,4.58-10.14,2-12.75,7.26-1.08,2.18-3.09,4-3.68,6.28C557.43,157.86,557.93,160.6,557.93,165.42Zm303.3,251.65V393.62c-7.37-4.65-6-12.23-5-18.63,1.41-8.33-7.87-13.06-5.59-21.35,2.15-7.84-1.94-14.61-5.25-21.2-2.59-5.18-5.26-9.78-5.62-16.1-.24-4.2-5.65-7.69-4.88-13.51s-5.9-9.17-5.66-16.07c.21-5.89-6.4-11.17-5.07-18.73.35-2-4.41-6.79-6.94-6.88-4.42-.15-3,4.71-3,7.7-.15,6.07-.05,12.16-.05,18.23,8,9.54,4.32,21,5.41,31.69.22,2.12,3,3.88,4.15,6.05.73,1.38,1.32,3.53.75,4.76-1,2.2-4.43,4.16-4.22,5.9.35,2.82,3.64,5.24,4.17,8.11a31.18,31.18,0,0,1,0,12.94c-1.59,6.26,5.27,8.27,5.53,13.51.29,5.69-1.57,11.41,3.3,16.95s.65,13.3,1.88,20c.28,1.52,1.34,2.9,2,4.37,3.59,8.08,9.92,15.16,9.17,24.85,5.53,3.29,4.14,8.74,4.59,13.78.24,2.66,2.44,4.43,5.46,3.7a24.2,24.2,0,0,0,4.35-2c-.88-1.22-1.53-2.79-2.7-3.61-2.13-1.48-2.07-2.2-.48-3.85s3.39-4.06,3.53-6.24C861.51,431,861.23,424,861.23,417.07ZM643.93,134.72c-4.2,0-5.93,0-7.66,0-4.46.09-4.19,0-2.26,5.56,2.94,8.51,3.72,18.12,12.82,23.2-1.68,6.56,4.11,8.84,7.34,12.48a114.94,114.94,0,0,0,11.05,10.91,5.14,5.14,0,0,0,5,0c3.94-3.33,7.16-7.54,11.2-10.71,4.44-3.49,10.1-5.55,14.1-9.41,3.79-3.66,8-5.49,12.58-7.39,1.12-.47,1.91-5.52.9-6.54-2.84-2.87-4.53-7.52-9.65-7.68-6.61-.19-14,2.16-18.57-5.2-7.77,0-15.54.09-23.31-.08-1.5,0-3.61-.63-4.37-1.72C650,133.79,645.66,134.68,643.93,134.72ZM442.89,623c-.31-5,1.49-10.33-4-14.18-1.39-1-1.7-4.94-1.08-7.13,2.42-8.54-5.94-13.49-6.53-20.94,0-.46-1.31-1.28-1.74-1.13-.74.25-1.81,1.14-1.79,1.74.17,5.85-1.54,13.21,1.36,17.15,3.7,5,1,11.2,3.71,14.11,4.77,5.17,5,10.45,5.08,16.42,0,.62,1.51,1.86,1.71,1.74,1.19-.68,2.76-1.48,3.15-2.6C443.28,626.62,442.88,624.74,442.89,623ZM411.51,515.11a26.68,26.68,0,0,0-.06-5.06c-.51-2.62-1.85-4.56-5-4.07-.83.12-1.87-.3-2.5.07-2.58,1.51-2.29,2.9-.4,5.3s2.41,5.7,3.67,8.56c.31.7,1.19,1.65,1.74,1.61a2.68,2.68,0,0,0,1.74-1.69A35,35,0,0,0,411.51,515.11ZM577.06,107.74c.59-.59,1.65-1.19,1.65-1.78s-1-1.5-1.67-1.73c-1.5-.48-3.21-1.06-4.66-.76s-2.67,1.61-4,2.49c1.32.87,2.55,2.19,4,2.48S575.49,108,577.06,107.74Zm126.54,377c-1.07,1.12-3.68,2.88-3.41,3.73.89,2.82,6.45,2.79,8.4.17.3-.4.34-1.57.12-1.69C707.35,486.2,705.88,485.67,703.6,484.72ZM461.19,681.46c-1.3,4.39-2.39,6.59-2.45,8.83,0,1.3,1.58,2.64,2.45,4,.87-1.32,2.48-2.67,2.45-4C463.57,688.05,462.48,685.83,461.19,681.46Zm12.24,37.15c0-.59.14-1.35-.16-1.76-1.95-2.62-7.15-2.54-8.6.12a2,2,0,0,0,.12,1.74C466.74,721.33,471.9,721.23,473.43,718.61ZM652.06,482.46c-.59-.58-1.29-1.73-1.72-1.63a16.13,16.13,0,0,0-3.51,1.63c.58.59,1.28,1.73,1.72,1.64A15.92,15.92,0,0,0,652.06,482.46Zm-47.82-74-1.86-1.86a16.65,16.65,0,0,0-1.64,3.51c-.09.43,1.06,1.14,1.64,1.72C603,410.73,603.63,409.6,604.24,408.5Zm68,136-1.86-1.86a16.65,16.65,0,0,0-1.64,3.51c-.09.43,1.06,1.14,1.64,1.72Zm-219.63,115-1.86-1.86a16.42,16.42,0,0,0-1.64,3.51c-.09.43,1.06,1.13,1.64,1.71C451.36,661.74,452,660.6,452.59,659.51Zm15.69,48.57c-.61-1.1-1.24-2.23-1.86-3.37-.58.58-1.73,1.29-1.64,1.72a16.17,16.17,0,0,0,1.64,3.51Z"/><path d="M542.24,360c-.09.83.13,2.14-.3,2.42-5.22,3.29-5.06,8.33-5,13.6,0,3.13-5,6.12-7.19,4.36a8.74,8.74,0,0,1-3-6.12c.08-3.82,8.44-7.27.35-11.49,3.46-3.5,4.66-8.12,6.31-12.53.11-.28,1.23-.43,1.76-.27C537.18,350.55,542.4,358.06,542.24,360Z"/><path d="M568.39,289.47c-2,1.89-4.38,4.12-6.81,6.26-.39.35-1.54.55-1.64.39-.76-1.29-1.91-2.67-1.91-4,0-5.25.89-5.8,7.92-5.73.81,0,1.94-.31,2.35.1S568.39,288,568.39,289.47Z"/><path d="M536.26,509.37c-.7.69-1.28,1.27-1.86,1.86a16.73,16.73,0,0,1-1.64-3.52c-.09-.43,1.06-1.13,1.64-1.71Z"/><path d="M532.54,518.31l1.86-1.86A16.35,16.35,0,0,1,536,520c.1.43-1,1.14-1.63,1.72C533.77,520.55,533.14,519.41,532.54,518.31Z"/><path d="M563.16,304.67a16.13,16.13,0,0,1-3.51,1.63c-.43.1-1.14-1.05-1.72-1.63a16.65,16.65,0,0,1,3.51-1.64C561.87,302.94,562.58,304.09,563.16,304.67Z"/><path d="M548.22,534l1.86-1.86a15.71,15.71,0,0,1,1.64,3.51c.1.43-1.05,1.14-1.64,1.72Z"/><path d="M686.47,213.58c.61.61,1.72,1.46,1.61,1.66a10.53,10.53,0,0,1-2.37,3.08,1.56,1.56,0,0,1-2.21-2.21A18.62,18.62,0,0,1,686.47,213.58Z"/></svg>