<svg id="Layer_1" data-name="Layer 1" xmlns="http://www.w3.org/2000/svg" viewBox="0 0 1200 1200"><title>BB_Artboard 63</title><path d="M1010.13,660.47c0-13.06-.76-26.17.22-39.15,1-13.31-5.23-27.84,5.81-39.7,0-9-.81-18.16.18-27.09,1.7-15.27-5.55-31.45,5.49-46,2.42-3.18.36-9.77.36-14.79,0-4-.06-8,0-12.05,0-.87.4-2.22,1-2.52,8.39-4.07,2.34-13.2,6.49-18.4a22.23,22.23,0,0,0,4.93-10.16c.67-3.32,4.77-8,7.79-8.38,7.86-.94,11.9-6.35,16.52-11.16,2-2.14,2.85-2.68,4.39-.23,4.12,6.61,10.76,3.88,16.38,3.94,10.56.12,10.56,0,14.77,14.23,7.57,5.65,6,13.89,6,21.6.07,16.07-.89,32.21.43,48.17.6,7.12,7.25,13,5.91,21.69s-.29,18-.29,27.07v75.31c0,8-.31,16.08.08,24.1.43,8.91-8.93,14.58-6.53,24.72,2,8.56.42,18,.42,27V827.14c0,4-.24,8.06.11,12a7.66,7.66,0,0,0,2.43,4.92c6.36,4.94,9.41,11.89,12.88,18.82,2.49,5,10.22,6.93,8.69,14.49,5.19,4,6.93,9.16,6.16,15.6-.19,1.6.9,3.78,2.08,5,4.8,5.13,9.9,10,14.84,15,8.53,8.66,9.48,16.71,3.45,28.73-8.14,16.25-9.29,16.35-8.07,29.6.88,9.57-8.37,15.1-6.69,24.7,1.37,7.8.3,16,.27,24,0,3.53-1.87,5.24-5.35,5.45-6.84.41-12,5.6-12.22,10.67-.43,10.17-14,11.23-12.95,22.14.4,4.15-6.88,2.07-9.53,4.43-6,5.34-11.46,11.26-17.14,16.94s-11.25,11.49-17.14,16.94c-1.18,1.09-4.25.19-5.38,1.29-11.77,11.52-26.91,17.23-41.43,23.78-5,2.25-8.54,8.49-15.49,6.3-5.87-1.85-8.23,6.33-12.5,5.67-10.35-1.58-17.36,9.46-27.68,6.34-5.08,5.47-11.67,8.11-18.52,5.8-8.41-2.84-10.42,9-18.75,6.56-5.57-1.59-12-.28-18-.27-7.37,10.5-18.49,6.17-27.6,5.47-8.81-.67-13.23,7.95-21.68,6.75-6.89-1-14-.2-21.06-.2h-24.1c-19.22,12.48-40.72,2.48-60.72,6.27-12.48,2.36-21.25-8.75-33.77-6.64-10.74,1.8-22,.37-33.07.37-7.2-12.26-23.87.15-31.35-11.94-.56-.89-3.83-.11-5.84-.11l-12,0c-3.87-10.08-14.26-3.72-20.75-8.28-7.54-5.3-18.13-7.1-24.18-13.47-6.4-6.75-16.35-7.17-21.27-14.56-4.72-7.07-14.11-5.7-19.19-12.51-5.35-7.16-12.55-13-18.94-19.34-2.13-2.13-6-4.17-6.11-6.41-.86-15.37-15.83-14.72-23.85-21.83-11.05,1.64-6.24-10-11.44-14.21-4.87-4-2.1-12.87-1.12-19.62.12-.8,1.23-1.68,2.08-2.07s2.12.13,2.88-.31c7.28-4.19,15.47-6.57,22.32-11.78,1.9-1.45,5.85-.22,8.86-.22,9,0,18.09-.29,27.11.12,4.57.2,7.8-1.52,10-5,7.21-11.2,21.35-13.44,29.7-23.24,1.48-1.73,5.37-2.1,8.06-1.92,4.47.3,7-3,10.35-4.24,6.61-2.45,12.44-5.38,16.48-11.08,4.74-6.69,13.29.33,18.79-6.09,4.09-4.78,12.48-4.57,16.49-10.84,1.49-2.33,3.71-5.19,7.26-4,8.66,2.89,13.24-7,21.64-6.36,7.72.62,12.95-7,20.28-8.94,1.74-.45,3.81-3.09,4.74-2.64,9.24,4.42,13.56-7.52,21.7-6.22,9,1.44,14.82-10.53,24.62-6,3-3.74,8.18-7.21,8.71-11.28,1.28-9.88.43-20,.41-30.08,0-6.83-8.18-10.5-6.33-18.66,1.51-6.68.31-14,.31-21s0-14.06,0-21.09c-.08-13.9-5-18.42-20-18.41-1,0-2,0-3,0-4.74-.25-7.57,1.58-7.08,6.72.88,9.32-5.3,16.14-9.38,23.18-5,8.73-13.23,14.76-24.78,12.35a18.93,18.93,0,0,0-6,0c-7.36.89-13.55-.69-18.24-7.05a57,57,0,0,0-8.49-8.53c-1.35-1.18-3.41-2.61-4.93-2.39-9.33,1.36-20.31-4.69-27.65,5.88-8.53-2.75-14.78,5.67-21.57,5.37-8.74-.38-13.35,8.83-21.63,6.64-6.8-1.8-9.52,5.36-15.44,6.73-6.11,1.41-11.36,6.64-18.75,5.43-8.29-1.35-14.38,4.84-20.53,8.34-5.63,3.21-13.47,3.1-17.16,9.68-7.26-1.25-12.68,3.61-18.8,5.27-6.46,1.75-10.32,10.19-18.44,6.92-1.46-.59-4.72,0-5.33,1.09-3.77,6.7-13.76,3.14-16.85,10.55-6.86-2.08-9.62,7.6-15.4,6.06-8.13-2.18-12.64,4.21-18.51,6.63-13.71,5.65-26.6,13.26-40,19.73a49,49,0,0,1-13.38,4.27c-4.41.81-8.67,3.38-12.57,5.85-11.89,7.52-26.58,10.1-36.47,21.26-3.42,3.86-6,7.18-5.73,12.81a204.31,204.31,0,0,1-.11,30.1c-.53,5.67,6.29,7.91,4.85,12-1.16,3.3-5.12,5.5-4.67,10.13.64,6.7-1.83,14.21,5.76,18.73l-5.66,6.39c8.52,5.39,5.74,14,6,21.62.2,7,0,14,0,21.08,0,20.09-.48,40.19.2,60.25.35,10.34-4.82,18.15-9.21,26.38-2.9,5.43-12.82,8.16-18.31,6.07-6.84-2.61-27.75-19.17-31.45-25.65-1.33-2.32-1.37-5.56-1.44-8.39-.18-8-.06-16.07-.06-24.1q0-45.2,0-90.38c0-5.81,1.05-11.57-4.75-16.29-2.58-2.09,8.28-5.72,1.19-10.4-4.2-2.78-1.84-7.29-2.45-11-.81-4.94,4.87-6.22,5.54-9.61.32-1.65-4.07-4-5.92-6.35-3.19-4.07-4.42,0-6.46,1.23-1.59.92-3.36,2.07-5.09,2.15a136,136,0,0,1-18.06,0c-5.75-.51-11.7,2.1-17.3-1.84-10-7-22.25-9.86-31.53-18.87-5.35-5.19-3.61-13.49-10.29-17,.73-11.74-9.47-20.75-7.56-33.15s-2.93-25.6,6.27-36.64c0-14-.11-28.12.07-42.17.05-3.81-.38-9.73,1.71-11,7.8-4.91.84-14.13,6.27-18.67,4.74-3.95,5.06-8.94,3.77-13.44-2.33-8.1,5.75-11.9,6.35-18.65.52-5.69-3-12.67,2.66-16.82,6.87-5.06-.56-14,6.23-18.67,5.08-3.5,1.89-9.24,3.26-13.69,1.07-3.48,6-6.85,5.45-9.54-1.89-9.6,9.22-15.28,6.44-24.7-1.07-3.65,1.93-5.48,4.09-7.29,5.64-4.7,8.61-9.91,8.16-17.85a333,333,0,0,1,0-42.15c.66-9.29-3.73-16.53-6.09-24.69s3.44-18-5.34-24.93c-.29-5.9-1.32-11.88-.71-17.69.9-8.55-7.36-13.21-7.89-20.95,0-.28-1.52-.85-2-.61-.85.41-2,1.31-2.07,2-.22,6,1.92,13.35-.8,17.66-3.32,5.25-6,9.59-5.6,15.93.36,5.86-6.11,7.34-8.55,11.47s-3.42,9.41-6.75,12c-2.53,1.94-7.83-.14-11.74.49-8.83,1.43-15.4-1.48-20.66-8.6-2.35-3.2-5.88-5.51-8.38-8.63-5.41-6.77-16.45-10.69-15.6-20.36.78-8.89-9.64-12.78-6.7-21.7,2.06-6.25-8.28-8.71-5.86-15.52,2.5-7-5.7-9.64-6.15-15.58-.5-6.58-7.29-10.65-6.44-18.66.63-5.93-5-11.45-6.34-18.38S80.52,444.65,82,436.5c.84-4.7-4.29-6.78-4.91-9.94-1.66-8.36-11-14.43-7.15-24.23-8.1-5.51-6-13.92-6-21.61,0-6.1-8.15-8.41-6.32-15.64,1.2-4.71.49-10,.16-15-.37-5.73-7.77-8.55-6.16-15.63,1.08-4.77,2.19-11.34-.15-14.78-9.26-13.66-3.4-28.78-6-42.86-1.58-8.39,6.78-11.3,7-18.65.09-3.44,6.12-9.31,9.75-9.55,7.18-.46,10.32-8.77,18.63-6.93,7.66,1.69,16,.09,24,.52a13.36,13.36,0,0,1,7.56,3.31,182.16,182.16,0,0,1,14.93,14.87c3.76,4.21,8.09,7.32,9.65,14.18,1.33,5.82,9,10.21,13.86,15.21,2.81,2.87,8,5.61,8.1,8.54.35,10.26,12.21,12.89,13.26,21.72.72,6,5.48,8,8.56,11.53,2.33,2.69,9.19.6,9.65-2.77.52-3.91-1.07-8.84.78-11.69,8.16-12.62,13.75-26.52,21-39.56,3.22-5.78,4.25-12.93,10.67-16.67,5.55-3.24,2.36-11.64,8.52-14.54.25-7.67,5.77-12,10.65-16.68.72-.7,2.15-1.62,2-2.1-1.89-7,6.45-9.42,6.69-15.38.28-7,6.88-9.25,10.55-13.66a84.19,84.19,0,0,1,12.79-12.74c5-3.88,6.13-9.46,8.53-14.62,2.63-5.66,3.25-5.82.1-8.5-5.61-4.77-9.3-10-8-17.9.24-1.45-1.33-3.57-2.62-4.82-4.31-4.21-4.25-7.85-.27-12.56,6.71-7.92,7.3-19.22,14.65-27.21,1.85-2,1.27-7.09,4.55-10,6-5.34,11.33-11.35,17.3-16.69,1.11-1,3.89-.13,5.9-.15s5.27.67,5.78-.22c6.09-10.59,17.5-11,27.11-14.91,6-2.46,11.31-7.26,17.46-8.59,5.75-1.26,10.57-2.33,16-5.57,5.06-3,12.75-.64,18.55-6.45,2.5-2.51,9.62-.42,14.64-.42h39.16c9,0,18.08.08,27.12,0,7.7-.09,16,1.69,21.6-6h27.12C544.82,19.63,563.2,27.38,580.4,25c4.68-.64,6.8,3.58,10.1,4.68,2.23.75,5.79-3.49,9.07-4.47,2.76-.83,7.29-1.46,8.77,0,8.18,8.36,18.37,4.86,27.83,5.91,7.77.87,17.43-4,22.9,2.2,6.23,7.1,16.71-1,21,8.13.35.74,1.68,1.7,2.26,1.54,13.31-3.75,23.75,7.22,36.33,7,7.83,8.86,21.35,8,29.09,17,8.27-.56,14.31,5.31,20.23,9.06,6.33,4,12.68,8.32,18.88,12.64,5.49,3.83,10.53,7.74,16.82,10.55,5.88,2.63,8.26,10.47,16.79,10.78,4.78.17.51,10.76,6.68,11.05s8.71,4,12.12,7.36c8.6,8.44,17.07,17,25.59,25.53,5,5,9.66,10.26,15,14.83,6.06,5.2,9.12,12.07,13,18.71,3.45,5.86,9.62,10.12,14.59,15.09-3.27,8,9.63,10.44,6.39,18.45,13.48,11.64,18.67,28.12,25.65,43.6,1.13,2.51,4.47,3.49,4.41,7.27-.11,7.66-2.49,16.18,5.9,21.6.9,8.7-3,18.44,2.63,25.94s1.94,15.29,3.4,22.78c.89,4.55-1.44,7.93-4.92,9.93-6.66,3.81-5.46,12.32-10.64,16.72-4,3.36-.06,4.53,1.32,6.44.58.8,1.83,1.32,2,2.16,1.88,7.35-2.52,15.26,4,22.57,5.64,6.28,2.6,15.58,1.68,23-1.19,9.66,8.59,14.94,6.84,24.74-1.55,8.64,0,17.84.26,26.79,11.64,6.58-.82,22.08,10.65,28.73.26,4.91.54,9.82.77,14.74.47,9.86.9,19.71,1.35,29.57,9.57,8.06,2.77,18.85,4.68,28.19,10.21,8.6,5.5,20.28,5.71,30.65.11,5.76,3.22,8.71,6.05,12.43-4.12,3.26-6.68,6-1.09,11,2.12,1.9,1.17,7.41,1.36,11.28.43,8.89.71,17.79,1,26.69,8.51,5.79,4,14.54,5,22,9.46,8.75,5.63,20.23,5.77,30.64.09,5.77,2.34,9.35,6.3,12.53a9.58,9.58,0,0,0,4.24,1.74c.45.08,1.7-1.38,1.7-2.14C1010.15,708.67,1010.13,684.57,1010.13,660.47ZM485.78,289.62c0-5.86,0-10.88,0-15.89-.12-15-.17-14.94-18.7-19.76-2.59-.67-4.62-3.28-7.13-4.54-6-3-10.26-1.07-10.3,4.55-.07,8,0,16,0,24.06V302.1c0,9-.64,18.1.18,27,.76,8.29-6.85,13-6.6,21.59,1,33.06.47,66.16.26,99.24,0,3,.32,4.36,3.06,2.87a7.15,7.15,0,0,0,3-4.64c.78-4.66-1.55-10,3.46-13.64,5.86-4.25-.56-12.3,4.38-16.1,6.13-4.72,1.74-12.5,4.78-16,5.26-6,6.05-11.95,5.6-19-.12-2-.7-5.28.18-5.77,11.3-6.4,1.67-19,8.31-26.82,7.33-8.59,2.17-19.06,3.54-28.58.27-1.9-.23-4.62.85-5.58,9.08-8.09,3.62-18.68-37,138.9,0-.9.35-2.15-.1-2.59a2.63,2.63,0,0,0-2.54,0c-2,1.4-4.46,3.12-.83,5.24C440.6,458.58,442.4,456.6,485.78,289.62ZM669.93,97.39c.9,0,2.14.35,2.59-.1a2.6,2.6,0,0,0,0-2.54c-1.39-2-3.11-4.46-5.23-.83C667,94.4,669,96.2,866.7,272.18a38.47,38.47,0,0,0,6-.06c3.19-.5,5.15-2.09,4.93-5.86-.28-4.84.78-9.63-4.09-13.41a24.12,24.12,0,0,1-9.22-14.2c-.89-3.77-3.93-8.19-6-12.36s-6.91-7.08-10.25-10.79c-9.7-10.76-22.62-18.79-27.75-33.47-.88-2.52-4.35-6.18-6.2-5.94-7.69,1-10.23-5.26-14.41-9-5.2-4.66-10.89-9.21-14.65-14.94-4.27-6.49-13.56-4.29-16.64-10.52-4.09-8.25-14.24-6.14-18.92-12.6-5.35-7.39-14.41-8.8-21.49-13.39-6.16-4-13.8-5.8-19.71-10.08-6.39-4.63-16.9,2.14-20.67-8.16h-15c.7,1.71,1.29,4.83,2.13,4.9,6.39.5,10.93,4,14.38,8.74,4.23,5.87,13.37,3.46,16.7,10.52,2.88,6.08,10.26,4.71,14.42,8.52,5.16,4.71,9.17,12.26,15.09,14.16,7.16,2.29,11.53,6.66,16.4,11.21,5.06,4.72,9.48,12.44,15.22,13.58,8.2,1.62,11.38,7.48,16.1,12,7.83,7.44,17.05,14.68,21.58,24,5.54,11.39,16.16,17,23,26.43,1,1.43,1.26,3.48,1.67,5.28,1.46,6.35,9,8.29,10.72,13.52a37.24,37.24,0,0,0,8.72,14.47C853.75,270.09,859.16,273.39,669.93,97.39ZM425.51,822.18c0-4-.58-8.14.14-12,1.11-6-6-7.66-6.11-12.6-.22-8,.65-16.15-.26-24.08-.85-7.37-9.17-12.91-6-21.7.14-.37-2.34-1.89-3.76-2.45-.37-.15-2,1.28-2,2-.15,8-1.16,16.26.22,24,1.28,7.29-6.86,9.33-6.41,15.64.56,8.05-7.1,4.79-10.71,6.9-12,7.07-19.37,6.28-28.59-1.62-1.52-1.3-2.63-3.25-4.33-4.15-3.26-1.73-8.43-2-9.82-4.58-1.69-3.08-1.06-7.38-4.63-10.12-4-3-.84-9.73-6.36-12.51-3.1-1.55-2.74-6.66-1.18-7.75,7.23-5.11,5.3-12.32,5.37-19,.16-14.06,0-28.12.09-42.19,0-3.91-1.06-9.65,1-11.4,7.76-6.53,4.66-14.73,4.84-22.26.41-16.06.13-32.14.13-48.21,10.47-10.84,5-24.35,5.76-36.7.35-5.54,2.48-9,5.81-12.85a5.73,5.73,0,0,0-1.42-7.93c-4.62-3.09-3.12-5.14.06-8.72,4.28-4.84,1.53-11.46,1.58-17.23,0-2.35-4.3-4.82-4.13-7,.23-3.11,3.92-6,4.18-9.07.65-8,.21-16,.21-24.09,0-9,.93-18.2-.26-27.08-1.16-8.59,8.74-12.82,6.55-21.71-1.4-5.68-.26-12-.26-18,0-7,1-14.24-.27-21-1.31-7.16,6.12-9.78,6.26-15.64.16-7,0-14.06,0-21.09,0-8,1.46-16.43-.39-24-2.08-8.49,8.74-10.32,6.89-18.8-1.35-6.14-3.58-14.43,2-19.85,5.4-5.24,3.11-11.09,3.45-16.72.42-7,.08-14.06.12-21.09,0-.93,0-2.26.56-2.74,9.27-7.88,4.39-18.5,5.36-27.92.93-9.09-3.65-13.87-12.38-17.11-10.4-3.86-20.34-9.35-29.77-15.26-3.85-2.41-7.28-2.12-11.06-2.56-3.33-.38-6.07.85-6.82,3.91-.68,2.78-.24,5.58-2.8,8-5.89,5.45-11.29,11.44-17.15,16.93-5.71,5.36-4.62,14.77-12.63,19.06-7,3.76-10.32,11.23-12.87,18.62s-6.51,13.91-12.81,18.8c-2.57,12.08-17.42,18.62-14.92,33-7.24,3.2-3.41,13.48-10.65,16.68,1.88,7.62-9.21,11-6.55,18.25,3,8.36-9.72,10.65-6.24,18.64-10.17,5.44-2.19,19.55-12,25.16.25,5.92-1.7,13.59,1.28,17.34,4.3,5.41,3.4,10.89,5.16,16.18,1.68,5.08,4.67,10.14,7.35,15,5.59,10.09,12.1,19.51,10.45,31.94-.21,1.57,1.35,3.39,2.09,5.09,5,11.43,4.93,11.39-.84,26.63-1.57,4.14,1.74,4,4.54,4.38,1.78.24,4.84,1.12,5,2,.75,5.84-.35,12.18,1.52,17.54s7.32,9.08,5.71,15.71a6.17,6.17,0,0,0,0,3,6.7,6.7,0,0,0,1.5,2.38c1.37,1.56,2.26.15,4.36-1.13,5.72-3.5,4.83-10.42,8.5-14.66,4.59-5.3,10.09-9.81,14.74-15.06,3-3.39,6.34-4.08,10.52-3.9,8,.35,16,.3,24,.42,3.88,7.42,7.94,14.74,10.71,22.69.3.85,1.39,1.41,2.07,2.15,3.95,4.31,1.19,9.45,1.73,14.18-7.46,4.51-5.8,11.89-5.81,18.69q-.06,39.17,0,78.34v21.1c-9.79,12-5.09,26.32-5.92,39.69-.55,9,0,18.08-.14,27.12,0,2.88.14,7.94-1,8.32-10.85,3.6,4.42,10.2-2.41,15.67-6.67,5.35-2.11,15.06-2.39,22.76-.61,17.06-.19,34.15-.19,51.22,0,8,.81,16.19-.36,24.06-.54,3.57-8.57,6.06-1.15,10.75,2.38,1.51,4.66,4,7.18,4.32,6,.65,12,0,18.06.26,5.52.21,6.17-3.07,6.53-7.45.26-3.14,2.35-5.46,6-4.63,9.76,2.22,15.17-7.24,23.56-8.64,9.56-11.44,24.37-14,36.46-21.22,2.4-1.42,5.63-1.67,6-4.8C425.89,830.27,425.51,826.2,425.51,822.18ZM886.8,392.72c-2,0-4.09.38-6-.07-7.59-1.78-12.6,4.05-14.07,8.57-2.58,7.91-8.85,14.1-7.77,24.16,1.81,16.84.5,34,.5,51.07,0,3,1.28,7.15-.21,8.84-10.71,12.16-4.7,26.53-5.57,39.8-1,16-.25,32.07-.25,48.11,0,3,1.3,7.36-.21,8.81-11.38,11-5.11,24.6-5.5,36.82-1,30-.41,60.14-.21,90.21,0,4.31-1.92,7-4,10.47-4.39,7.28-3,12.87,2.38,18.25s10.65,6.31,18.37,2.61c2.49-1.2,3.5-4.75,7.34-4.17,9.33,1.41,20.11-3.88,27.56,6.09,7,0,14.55-1.6,20.92.42,7.18,2.28,13.37,7.55,21.71,5.63,4.53-1,7.25,1.94,10.12,4.75.35.35,3.76-1.2,3.8-2,.29-6,.11-12,.07-18-8.52-5.41-4.76-14.12-6.06-21.58-1.81-10.36,5.08-22-4.51-31.18-.46-11.84-.9-23.68-1.4-35.52,0-.91-.13-2.2-.72-2.66-8.76-6.86-4.06-16.52-5.25-24.92-1.06-7.48,3.16-16.19-5.28-21.88-.26-7.91-1.18-15.88-.61-23.73.67-9.08-9.08-14.41-6.67-24.69,2.23-9.5.59-19.94.4-30,0-2.8,0-6.77-1.69-8.16-6.77-5.59-4.88-13.12-3.9-19.36,1.38-8.77-6.68-13.45-6.7-21.62,0-10.34,4.39-22-5.72-30.59,0-6-.83-12.18.21-18,1.38-7.71-9.28-10.45-6.45-18.66,1.24-3.6.32-8.11-5.6-7.92C892.82,392.8,889.81,392.72,886.8,392.72Zm-258-144.65h3.74c9.19.09,11.06-.43,9.52-9.76-1.5-9.1,3.52-15.14,6.87-21.44,5.53-10.41,13.3-19.45,27.74-17.17,5.87.93,12-.31,18,.28,6.15.61,8.42-4.2,12.19-7.1,2.31-1.78,1.22-2.19-.07-4.45-3.88-6.8-12.31-5.19-17-10.4s-9.38-12.31-15.21-13.63c-6.83-1.55-10.64-7.43-17.92-8.34-5.79-.72-7.82-11.56-16.54-10.45-4.59-6.8-14.65-5-19.07-12.06-8.66-.15-14.9-9.25-24.33-6.59-5.89-6.84-14.47-10-22.37-10.94-8.76-1-14.72-11.09-24.51-6.57-6.7-8.1-16-5.73-24.58-6-6.38-9.36-16.08-5.78-24.57-5.85-6.93-.06-13.44.06-18.37-5.75-4.2,7.73-14.06,2.75-17.95,6.81-5.13,5.36-13.95,2.89-17.12,10.18-9.32-.3-12.88,8-18.8,12.69-7.92-3-10.53,9.17-18.43,6.53-.42-.14-1.38,1.31-2.09,2-7.8,7.8-15.64,15.55-23.37,23.41-3.21,3.27-.94,7.25,4.78,10.31,7.39,4,15.73,6.18,22.12,12,10.45-1.75,17.94,5.29,26.09,9.54a21.85,21.85,0,0,0,11,2.47c6.93-.07,10.54,7.43,18.62,6.69,5.61-.51,11.75,4.77,17.64,7.47,2,.94,2.95,5.88,6.43,1.59,1.89-2.32,5.65-4.05,6.05-6.46,1-5.84.4-11.92.55-17.89.21-8.73,4.35-13.64,13.91-15.32,3.82-.67,7.09-1.16,10.77-3.25,7.46-4.23,18.8-4.41,22-1.2,6.8,6.75,15.43,11.9,13.89,24.46-1.59,12.83-.39,26-.34,39,0,7,5.67,12.62,10.19,12.55,11.93-.18,21,10.87,33.69,6.88,4.31-1.36,10.76-1.15,14.2,1.26C620.55,246.61,624.26,248.81,628.76,248.07Zm399.77,792.24c-2.8-1.22-4.46-2.46-6.21-2.6-4-.32-8.22-.87-12,.1-4.41,1.15-8.24,4.55-12.65,5.66-6.37,1.59-13-1.32-19.5,4.29-6.1,5.28-15.4.55-23.09,2.08-2.56.51-4.52,3.9-7.1,4.5-7.32,1.7-15.34,1.13-21.06,7.38-12.41.81-25.06-2.37-36.94,5.58-4.15,2.79-12,1.43-17.71.21-7.9-1.67-12.24,5.61-18.65,6-11,.77-22.06.22-33.1.22-10,0-20.41,1.6-30-.42-11.79-2.47-19,8.87-30.78,6.92-12.7-2.1-26-.48-39.06-.48H684.55c-13,0-26.16.82-39.12-.24-12.21-1-25.73,5.53-36.5-5.38-.71.71-1.84,1.31-2,2.15-.44,1.87-1,4.07-.4,5.73s2.76,3.76,3.88,3.57c7.45-1.29,10.45,7.51,18.66,7,6.46-.44,13.36,5.67,20.05,8.88,1.68.8,3.27,2,5,2.38,10.37,2.25,21.09-3.29,31.71,3.63,9.39,6.12,21.27,1.6,32,2.36,7,.5,14,.1,21.07.1h66.23c8,0,16.3-1.21,24,.33,8.14,1.62,12-6,18.65-6.3,9-.33,18-.24,27-.33,7.6-9.82,18.38-4.3,27.72-5.76.93-.15,2.33-.09,2.69-.65,4.73-7.5,12.23-5.64,18.89-5.21,7.27.46,10.43-8.65,18.66-6.47,6.61,1.75,10.65-6.47,18.5-6.51,6.46,0,13.5-5.48,20-9.28,5.56-3.27,11.57-6.38,17.78-7.72,4.81-1,9.37-.71,13.09-5.07C1017.05,1051.15,1022.82,1046,1028.53,1040.31ZM836,1001.45q21,0,42,0c3,0,7.31,1,8.64-.53,8.07-9.28,18.78-6,27.83-5,12.42,1.37,21.37-8.81,33.22-7.48.62.07,1.94-1.31,2-2s-1.12-1.68-2-2.07c-3.35-1.56-7.38-.7-10.35-4.18-4.52-5.3-9.81-9.93-14.78-14.85-7.6,1.84-10.21-4.89-14.4-8.64-5.2-4.67-10.59-9.36-14.77-14.9-6.68-8.84-15.84-6-24.38-6.6-5.48,8.06-13.86,6.1-21.51,5.89-3.77-.11-5.23,2.36-7.26,4.31-4.34,4.15-8.52,8.46-12.77,12.71-8.41-1.67-15.45,15.84-24.75,1.76-7.55.12-15.8-3.48-22.19,3.16-3.45,3.59-7.55,1.22-11.06,2.43-4.34,1.5-8.85,6.18-12.45,5.44-8.16-1.67-12.23,7.45-18.54,6.14-8.15-1.69-12,5.27-18.51,6.72-6.21,1.38-11.1,6.21-18.59,6.23-4.75,0-9.12,6.07-15,6.82a2.42,2.42,0,0,0-1.29,2c.3.85,1.5,2.19,2,2.06,7-1.92,9.4,6.57,15.33,6.62,13,.12,26,.16,39-.14,1.49,0,3.27-2.21,4.3-3.8,1.71-2.6,2.18-1.37,4.45-.14,9.9,5.33,20.26,6.14,30.12,1.37,3.61-1.75,6.64-3.36,10.67-3.33C806,1001.52,821,1001.45,836,1001.45ZM509.66,783.57c.27,4.85.21,10.83,1.11,16.66.45,2.88,2.57,2.8,4.12.38,2.43-3.78,6.07-4.68,10.34-4.1,10.23,1.41,18.37-4,26.43-8.81,7.28-4.33,9.1-12.34,4.05-20.28-2.9-4.58-5.85-7.89-1.11-12.55,2.16-2.12,3.71-4.21,3.59-7.6-.27-8-.08-16.06-.08-24.09,10.91-15.13,4.26-32.44,6-48.7.21-2-.83-4.75.16-5.91,11.15-13.09,5.39-28.6,5.27-42.79-.07-8,8.1-10.83,6.92-18.63s-.31-16-.19-24c0-.77,1-1.67,1.7-2.26,7.68-6.28,2.85-14.91,4.15-22.37.1-.57-1.58-2.13-2-2-1.43.54-3.65,1.46-3.79,2.49-.55,3.91,1.08,10.3-.78,11.45-6.73,4.19-4.63,12.44-10,17.51-4.27,4-7.7,12.07-6.88,17.65,1.22,8.34-9,11-6.63,18.67-5.16,4-7.12,9.17-6.05,15.58.16,1,.45,2.4,0,2.94-3.41,3.68-7.68,6.76-10.23,10.93-1,1.54,3.47,7.63,3,8-4.73,3.17-3.94,8.66-6.19,12.73-1.37,2.47-4.07,4.65-4.37,7.18-.89,7.59,2.29,16.18-6.22,21.57-1,6.7,3,14.59-2.33,20-7,7.12-2.09,15.22-3.58,22.69-.77,3.84,1.26,9.87-.76,11.53C506.4,764.68,511.34,774.13,509.66,783.57Zm379.93,36.2c-2.54,12.75,7.06,23.21,7.6,35.58,5.58,2.35,2.54,9.67,6.49,12.15s9,2.15,12.49,6.36c1,1.23,5.92.88,7.7-.49,3.17-2.44,5.68-4.87,10.21-4.63,8,.41,16.11.9,24-.2,4.24-.6,6.64-6,12.53-6.16,4.37-.12,2.93-6.18,3.48-9.92,1.74-11.8-2.64-20.12-11.13-28.69-6.48-6.54-14.88-8.49-21.49-14.18-14.55-12.54-21.69-14.25-39.5-13.06-4,.27-12.1,7.31-12.29,11C889.43,811.49,889.59,815.5,889.59,819.77ZM160.2,418.86c-.74-5.65,2.31-12.81-1.89-19.05-6.25-9.27-8.79-20.55-16.07-29.22.52-10.85-14.34-13.06-13.66-24.39.11-2-3.76-4.4-6.07-6.27-3.31-2.69-4.4-5.84-4.67-10.15-.18-2.86-4-3.6-7.11-3.39s-4.32,2.48-2.42,5.16c1.64,2.33,4.1,3.83,3.9,7.42-.37,7,.49,14-.26,20.9-.9,8.21,10.13,12.51,6.23,21.46-3.37,7.72,7.33,11.81,5.7,18.33-2.21,8.91,9.3,13.1,6.24,21.46-3.54,9.68,6.89,15.34,6.36,24.45-.43,7.38,9.37,12.62,5.94,21.47-.26.67,2.12,2.37,3.28,3.58.7-.7,2-1.43,2-2.11-.18-5.37,4.3-8.44,5.92-12.53,2.06-5.15-1.73-13.55,1.19-17.25C159.64,432.61,161,426.91,160.2,418.86Zm90.59,453.22h-.06v-30c-11.78-10.57-3.91-24.38-5.93-36.55-.65-3.9,0-8-.2-12,0-.74-1.22-1.6-2.06-2a2.13,2.13,0,0,0-2,.31c-2.88,3.73-8.15,5.62-7.95,11.74.22,6.9-.32,13.83-.52,20.75-7.55,4.6-6.67,12.51-5,18.68,2.42,9.19-6.29,14-6.36,21.62-.13,16-.13,32,.1,48,0,1.51,1.9,3.15,3.24,4.39.53.5,1.92.08,2.92.08,5,0,10,.07,15,0,10.54-.19,10.14-.19,9-15C250.2,892.12,250.79,882.08,250.79,872.08Zm719.66,51v.26c-5.94,0-12-.44-17.79.36-1.25.17-3.47,5.94-2.55,7.31,7.92,11.71,28,29.23,39,34.07,2.21,1,6.2,1.53,7.94-1.94.82-1.61,1.64-4.68.87-5.4-6.49-6.08-6.18-13.78-5.9-21.59.11-3,.43-6.06-.14-8.94-.3-1.55-2.19-3.85-3.5-4C982.44,922.86,976.44,923.1,970.45,923.1ZM811.28,320.4c1.69-.7,4.56-1.1,4.85-2.18.66-2.5,1.17-6.34-.21-7.84-5.21-5.65-9.08-11.83-12.93-18.51-3.66-6.33-9.77-11.38-12.2-18.89-.55-1.68-2.92-2.68-4-4.29-1.62-2.35-2.89-2.79-4.25-.89a5.64,5.64,0,0,0-1.33,2.4c-.2,2,.37,4.09-.14,5.94-1.88,6.78,7.09,8.84,6.26,15.43-.74,5.86-.36,11.91,0,17.85.1,1.64,2,4.67,2.7,4.56C798.14,312.83,802.73,323.32,811.28,320.4Zm-24.15,61.91c-2.65,9.52,5.48,9.54,10.85,12.33,5.58,2.89,5.44,3.15,8.3,0,.66-.72,1.43-1.33,2.05-2.08,5-6.05,4.28-8.65-3.21-11.93-1.65-.72-3.38-1.27-5-2.11-.82-.44-1.29-1.52-2.1-2C791.07,372.45,787.38,374.36,787.13,382.31ZM588.24,400.19c0,2-.38,4,.11,5.86s1.87,3.15,2.86,4.7c1-1.51,2.63-2.91,2.94-4.56.69-3.73-.74-9.06,1.31-11.12,7.48-7.51,4.47-16,3.87-24.32a2.91,2.91,0,0,0-2-1.95c-.63-.05-2,1.28-2,1.84C596.84,381.44,586.1,389.28,588.24,400.19Zm253.14,471.5a17.64,17.64,0,0,1,0,2.91c-.58,3.49,1.34,5.48,4.29,6.19a7.59,7.59,0,0,0,5.44-.72c4.53-3.07-.23-4.74-1.68-6-2.87-2.41-1.33-5.4-2.16-8-.35-1.09-2.41-1.81-3.83-2.24-.45-.13-1.82,1.18-1.94,2A39,39,0,0,0,841.38,871.69Z"/><path d="M2242.27,690.08c0,12.43.17,24.87-.16,37.29-.06,2.14-1.89,1.9-3.46.84s-2.31-5.91-5.09-1.92c-2.27,3.27-1.2,7.67,2,7.91,5.12.38,7.25,1.64,7.21,7.09-.2,25.79-.68,51.61.24,77.37.3,8.59-7.78,13.83-5.7,23,1.8,7.91.51,16.56.23,24.87-.05,1.25-2.39,2.25-3.13,3.65-2.88,5.46-3.23,10.55,1.83,15.34,2.76,2.61,2,5.77-.68,8.48-.94.94-2.27,3.16-2.05,3.37,6.78,6.5,6.27,12.55-.19,19.09-1.29,1.31-.31,4.73-.66,7.13-.78,5.3,6.35,7,5.25,13-1,5.63-.23,11.61-.23,17.43,0,5-1,10.26.26,14.91,1.62,6,6.24,10.82,4.94,18-1,5.64-.19,11.61-.21,17.43,0,2.48,1,6-.29,7.26-5.23,5.28-6.26,12.51-9.69,18.56,3.33,6.11,7.68,11.92,9.62,18.44,1.26,4.21,2.53,10.39-1.13,14.14-4.07,4.16-2.84,11.21-8.64,14-1.39.67-2.93,2.45-4,2.17-6.4-1.69-10.27,4.6-15.46,4.91-12.44.74-24.95.33-37.43.09-1.23,0-2.5-2-3.63-3.12-3.51-3.61-7.89-.88-11.77-1.71-4.47,7.06-11.57,4.91-17.91,4.93-40.77.09-81.54-.1-122.31.16-8.63.06-18-2.78-25.56,4.71-1.33,1.3-4.64.09-6.37-2.17-2.27-3-5.84-4.14-8.34-1.61-3.27,3.31-6.63,4-10.94,4-25.8-.14-51.6-.41-77.38.16-6.93.15-10.61-6.9-18-5.48-6.42,1.23-13.26.25-19.92.25h-17.48c-6.65,0-13.35-.45-20,.12-7.53.66-12-7.5-20.5-5.5-7.89,1.84-16.55.39-24.87.39H1633.44a89.74,89.74,0,0,1-10-.07c-5.42-.61-8.81-6.54-15.46-5.16-5.59,1.15-11.6.24-17.43.24h-15c-5.83,0-11.88-1-17.42.25-6.77,1.54-9.78-5-15.46-5.33-5.45-.3-11.72,2.35-15.91-3.91-.62-.93-3-.74-4.49-1-4.65-.78-10,2.05-13.88-2.64-3.24-3.94-8.28-.74-11.35-2.63a89.33,89.33,0,0,0-12.43-6.27c-1.42-.59-2.32-3.18-3.58-3.28a105.2,105.2,0,0,0-15-.1c-4.67.29-10.17-2.17-13.53,3.44-12.36,4.37-23.6,1.11-33.69-6-6.81-4.79-12.37-11-10.26-20.64,1.19-5.45-2.51-11.63,2.26-16.53,3.92-4,8.61-7.48,8.81-13.84,7.06-7.06,13.81-14.49,21.39-20.93,1.92-1.62,6.35-.61,8.29-3.8,1.3-2.15,2.19-2,3.59.11,2,3.09,5.6,4.76,8.38,2.69,12.56-9.36,29.31-11.86,39.84-24.46,7.84,1.33,7.61-3.85,7.36-9.09-.08-1.66,0-3.33,0-5-.15-5.09-2.11-6.45-8-5.92-2.41.22-4.75-.13-6.63,2.16-7.83,9.56-20.25,11.49-30.07,17.79-3.21,2.06-6.76,4.22-10.41,4.83-3.93.65-5,4-7.71,5.64-5.3,3.24-10.66,6.38-16,9.56-8-2.39-11.76,3.82-16.72,8-2.24,1.89-6.4,1.74-8.25,3.81-3.93,4.36-11.37,2.62-14,8.67s-11.12,2.89-13.82,8.82c-6.29-1.44-8.85,6.56-15.15,5.95-1.64-.15-4.22,2.68-5.31,4.7-3.07,5.69-9.94,4.51-14.22,8.45-2.37,2.18-7.68,1.24-11.68,1.53-2.48.18-5-.12-7.48.07-4.29.34-8-.23-10.88-4a42.3,42.3,0,0,0-7-7.06c-4.84-3.89-7.45-8.51-6.38-14.89a17.31,17.31,0,0,0,0-5c-1-7.9,1-14.45,7.73-19.32,3.08-2.22,3.18-5.31,1-8.48-1.32-1.93-3.38-3.88-3.56-5.95a169.43,169.43,0,0,1-.1-17.46c0-.63.88-1.4,1.53-1.82,7.36-4.78,10-15.74,20.86-15.92,6-6.77,16.48-6.37,22-12.61,6.16-6.89,16.42-7.41,21.18-15.62,1.63-2.8,5.36-.58,6.59-1.91,5-5.42,13.61-5.14,17.61-12.15,4.2-7.36,11.44-8.58,19.22-7.64,2.77.34,5.3-.72,5.63-3.23,1.35-10.34,11.35-13.52,16.69-20.51,1-1.37,4.55-.7,6.84-1.29s5-1,6.37-2.5c3.94-4.21,9-6.24,13.66-9.16,4.45-2.81,13.48-2.42,12.33-11.6,7.54-7.23,13.93-15.9,24.41-19.42,3.22-5.11,9.42-5.83,13.58-9.13,4.44-3.52,10.51-3.16,14.35-8.3,3.13-4.18,6.06-10.36,13.23-9.76,15.31-10.22,16.89-16.56,8.51-34.18-2.65-5.57-4.53-11.75-8.5-16.36-2.54-2.95,1-9-5.52-9.46-4-.3-5.41,3.21-8.16,4.54-4.15,2-9.48-1.22-13.62,3.52-3,3.36-9.22,2.39-12,7-5-1.18-7.32,2.73-10.2,5.52-2.3,2.23-4.2,5.14-8.14,4.48-4.42-.75-7.79.83-10.74,4.28-3.23,3.79-7,7.12-10.52,10.65-6.3-1.54-8.68,3.84-12,7.16-2.68,2.71-5.52,3.08-8.86,2.88a7.74,7.74,0,0,0-6.6,2.24,42.8,42.8,0,0,1-9.3,7.62c-6.73,3.71-14,6.51-20.72,10.18-6.13,3.32-13.37,4.82-18.12,10.51-4.23,5.08-10.87,6-16.13,9.31-6.55,4.15-14.94,5.2-20,11.86a5.34,5.34,0,0,1-1.77,1.74c-5.66,2.42-11.88,4-16.89,7.31-5.21,3.49-8.7,9.55-15.73,10.38-2,4.61-8,2.18-10.13,5.39-3.07,4.61-9.26,2.21-12.4,6.83-2.1,3.07-4.58,7.14-9.65,6.51-11.66,7.69-25.36,11.61-36.66,20-4.94-1.41-7,4.26-10.45,4.71-7.37.94-15,.56-22.42.1-2-.12-4-2.34-5.84-3.79-3.1-2.43-5.42-5.16-9.89-6.42-6.32-1.79-4.41-3.59-4.2-13.35.17-8,6.26-12.75,6.79-19.89,0-.63,1.11-1.18,1.7-1.77,1.17-1.18,2.34-3.35,3.53-3.37,8.32-.14,11-9.5,18-10.9,3.79-.75,5.4-3.27,8-5.09a3.5,3.5,0,0,1,2.41-.13c8,1.69,13.54-4.06,19.35-7.4,4-2.31,9.52-1.77,12.53-6.49.82-1.3,4.54-.58,6.84-1.18s5-1.05,6.32-2.6c7-8.13,17.62-10.07,26-15.74a8.35,8.35,0,0,1,4.33-1.49c4.16,0,8.11.26,11-3.82,5.73-8.19,14.4-12.81,23.31-15.92,6.12-2.13,8.48-7.45,13.12-10.56,2-1.31,2.36-2.4.89-3.54-.61-.47-1.35-1.18-2-1.14-8.68.54-18.11-2.71-25.4,4.93-6.19-1.6-10.58,2.36-15.43,4.95-.65.34-2,.4-2.41,0-5.67-6.57-13.59-3.61-20.34-5.38-3.84-1-8.57-4.95-8-11,.28-3.27.45-6.59-2.77-8.83-3.44-2.38,0-3.52.85-5.31,4-8.8,7.84-17.4,19-19.6,2.73-.54,4.81-4.3,7.22-6.54,1.19-1.11,2.37-2.92,3.68-3.05,4.92-.47,10.44.93,14.65-.89,3.52-1.52,6.12-5,10.74-4.27,6.11,1,11-.86,15.11-5.83s9.36-9.45,14-14.24a15.38,15.38,0,0,0,2.43-4c5-10.4,9.81-20.92,15.07-31.19,2.93-5.72,7.09-11.19,4.8-17.9-2.55-7.47,4.51-11.71,5.07-18,.5-5.69-1.35-12.76,1.41-16.76,3.22-4.67,3.15-8.85,3.71-13.61.82-7-2.89-14.74,4.37-20.81,1.67-1.41.53-6.3.53-9.58,0-30.79-.51-61.59.39-92.35.22-7.29-6.17-11.11-5.49-17.93.58-5.76.12-11.63.12-17.46,0-6.66,1-13.53-.3-19.91-1.26-6-6.2-10.81-4.9-18,1-5.64,0-11.62.26-17.43.17-4.49-5.61-5.45-5.22-10.43.63-8.27-1.72-17.25.75-24.76,2.09-6.38,9.2-11.12,14.09-16.58-2.26-10.3,10-6,12.05-12.05,4.89-.25,10.51-2.13,14.49-.34,5.14,2.3,9.62,4.63,15.56,5.06,2.9.2,6.32,5,7.9,8.39s-.76,7.78,2.75,11.42c2.56,2.66,3.14,7.16,5.57,10,4.28,5.07-1.53,14,6.91,17.15-3.73,8.12,6.22,12.92,5,20.4-1.12,6.77,8,10.06,5.46,18.05-1.1,3.47,6.11,7.13,4.58,12.77-1.47,5.41,6.68,7.29,5,12.9,4.61,4.18,6.7,9.68,4.8,15.34-2.34,7,7.35,8.6,5.5,15.56-1.12,4.21-1.86,9.5,3.13,13.58,4.38,3.59-1.65,11.86,5.43,15.11.1,8.07,2.73,16.41,7.53,21.6,5.54,6,0,15.51,8.36,19.25-3.28,8.74,7.12,14.18,5.37,22.84-1,4.83,7.11,6.9,5.21,12.71,5.16,3.08,4.76,8.08,4.66,13.07,0,2.4-.37,5.31.79,7.11,2.6,4,6.89,7.12,8.87,11.35,1.56,3.33-.93,8.18,3.32,11.11,3.45,2.39,1.5,6.07,1.93,9.16.76,5.5,4.74,8.07,9.16,10.21,1.87.91,5.84-1.2,5.82-3.07-.09-8.26-.26-16.52-.4-24.79-3.93-2.8-4.44-5-.68-9.15,1.55-1.71-4.95-5.06-4-9.81.76-4,.2-8.29.15-12.45-.07-5.64-6.78-8.7-5.24-15.46,1.25-5.54.25-11.59.25-17.42-9-7-4-16.84-4.85-25.4-.68-7.17-7.91-12.35-5.58-20.2-3.56-2.66-5.91-6.24-4.44-10.56,3.52-10.4-6.49-18.09-5.1-27.93-4.06-4.36-6.11-9.37-5-15.4-5.31-3.16-3.68-10.42-8.33-14.09-1-.81-1.92-3.08-1.52-4.2,2.34-6.61-5.8-9.9-5-15.42a27.92,27.92,0,0,0-6.46-22.16c-4.6-5.32-1.08-12-5-15.46s-2.91-8.89-6.64-12.5c-4.58-4.43-.94-11-2.1-16.51-1.34-6.36,4-8.51,7.07-12.08,3.6-4.21,9-7.22,8.8-13.84,4.11-2.15,8.46-4.77,12.41-6.08a20.76,20.76,0,0,1,16.54,1.26,75.94,75.94,0,0,1,17.28,12.56c2.71,2.67,3.05,5.5,2.93,8.84-.06,1.58-.23,4.13.6,4.61,4.81,2.79,3.07,9.19,7,12.17,4.86,3.68-.33,10.37,3.65,13.35,4.44,3.31,2.54,9.16,6.82,12.38,4.83,3.64-1.38,11.8,5.38,15.16,1,6.23,6.64,10.56,7.06,17.05,6,2.65,2.82,11.17,8.82,13.81-.57,6.66,2.3,12.13,5.46,17.73,3.06,5.43,7.32,10.78,5.13,17.83,3.28,2.65,5.76,5.71,5.3,10.29,5,2.49,3.28,9.11,7.13,11.95,5.54,4.09-.44,11.35,5.13,15.5,4.71,3.52,2.13,9.23,2.23,13.91.09,4,2.58,6,5,7.93,4.21,3.42,6.14,7.44,5.19,12.81-.14.81-.27,2.29,0,2.4,8.39,3.28,2.08,12.67,7.1,17.05,2.83,2.47,2,6.09,3.59,8.51,3.32,4.9,7.67,8.31,14.5,7.12,4.51-.79,5-.74,1.62-5.48-1.28-1.81-2.12-2.35-.41-3.67a37.2,37.2,0,0,0,3.49-3.5c-9.58-7.89-3-18.64-4.93-27.91-.93-4.62-6.33-7.09-5.22-12.94.87-4.63-.25-8.9-3.45-13.57-2.76-4-1.92-11.18-1.17-16.75,1.46-10.9-5.91-19.58-6.56-29.89-.13-2-3.21-3.87-3.44-5.95-.53-4.94.46-10.08-.37-14.93-.63-3.65-3.82-6.83-4.6-10.49-.85-4-.23-8.26-.25-12.41-8.26-3.24-2.1-12.6-7.14-17-2.85-2.47-2-6-3.59-8.52-1.72-2.66-5.2-4.48-4.14-8.27,2.87-10.18-7.9-17.7-5.13-27.92,1.4-5.18-7-7.15-4.91-12.89-5.87-3.68-4.39-12-10-15.83,1.09-6-.86-11.07-5-15.41,2.63-8-5.2-12.92-6.15-20-.28-2.09-4.07-4.53-3.58-5.75,3-7.62-6.52-11.21-5.27-18,.64-3.5-1.15-5.87-3.13-8.74-3-4.35-5.78-9.51-6.49-14.63-.6-4.32,5.43-7.14,5.75-12.53.14-2.37,3-5,4.25-8.1,2-5.11,5.79-10,13-8.74,1.5.26,3.68.25,4.65-.62,12.27-11.07,22-.84,32.35,3.79,2,.88,4.74,4.19,4.32,5.37-2.69,7.52,5.87,11.72,5.06,18-.92,7.06,7,10.62,5.45,18-1.13,5.33,6.34,8.64,5.07,15.41-1,5.13,5.57,8.79,5.19,15.37-.28,4.67,3.58,10.23,6.94,14.26,3.19,3.83,1.62,7.77,2.69,11.48.83,2.88,4.82,5.54,4.52,7.93-1,8,4.79,13.21,7.11,19.71,1.13,3.14,3.57,4.78-.28,7.21-1.88,1.18-1.39,2,.41,3.6,4.85,4.39,10.43,8.62,8,16.59,2.68,3.83,5.08,7.73,6.26,12.41.54,2.15,3.25,3.84,3.55,5.94.59,4.08-1.43,9.48.56,12.18,2.9,4,3.24,9.39,6.57,12.21,3.65,3.1,2.89,7.28,4.8,10.7,4.12,7.37,10.24,14.32,8.4,24-.36,1.9,1.26,4.45,2.53,6.32,2.63,3.87,10.8,6.5,2.3,12.4,1.88,2.5,5.08,3.82,5.13,7.92,0,4.69,6.68,7.17,4.88,12.92-1.53,4.87,5,6.68,4.72,10.38-.41,5.53,6.47,7.24,5.48,13-.38,2.17,2.63,3.59,5.43,3.26,8.92-1.05,16.62-4.5,22.91-11.05,1.38-1.44,1.35-2.35-.72-3.6-.7-.42-1.65-1.1-1.71-1.74-.51-4.83-1.69-9.81-1-14.48.84-5.35-3.15-8.3-4.27-12.55,5.42-3.41,1.82-5.62-.52-9-2.18-3.12,1.28-8.05-2-11.61-1.58-1.74-3.8-2.9-3.56-6.06.38-5,.11-10,.1-15s-6.93-7.06-5-12.92c2-6.15-7.13-8.58-5.19-15.46,1.26-4.46,1.2-9.7-3.8-13.38-1.31-1-.55-4.58-1-6.95-1-5.44,2.49-11.46-2.67-16.39-5-4.73-.89-11.12-2.45-16.45-.84-2.88-4.37-5.22-4.59-8-.4-5.07-7.39-7-5.28-12.9,2.31-6.44-7.44-8.77-5.38-15.22-5.17-3.08-4.39-8.13-4.78-13.06-.17-2-4-4-3.79-5.72.84-6.39-7.27-8.88-6-15.13-4.92-4.07-5.83-9.45-5-15.4-5.57-3-5.41-9.49-8.29-14.12-3.85-6.2-1.61-14.23-1.25-21.5,8.44-5.72,11.85-18.92,25.4-17.07a2.67,2.67,0,0,0,2.18-.62c4.8-7,12.76-5.7,18-3.79,6.3,2.29,11.56,7.86,14.17,15.45,1.76,5.14,4.56,9.56,5.25,15.44.44,3.83,3.34,8.83,6.11,12.17,3.64,4.4,2.82,11.14,8.33,14.14-1.26,10.38,5.77,17.53,9.92,25.85s6.18,18,11.92,24.83c5.15,6.09-.59,15.63,8.12,19.29-1.07,8.05,9.31,9.64,9.72,15.85.92,14.06,10.65,24,15.34,36.18,4.41,11.5,11,22,16.15,33.23,1.67,3.66,3.23,6.82,3.95,10.91,1.38,7.93,10.73,21.43,17,25.23,1.5.91,4.83.21,6.57-.9,8.52-5.44,17.92-9,26.92-13.45,6.44-3.16,9.92-7.46,9.37-15.15-.58-8.28-1.09-16.78.16-24.91,1.13-7.33-6.2-11-5.46-18,.7-6.52-.07-13.2-.19-19.8-7.86-6.42-3.57-15.27-4.6-23.05-.72-5.45,1.76-11.35-4-16-1.74-1.4-.61-6.17-1.06-9.36-1-7,2.41-14.49-4.15-20.93-2.13-2.09-.2-7.95-.9-11.94-1.65-9.32,4.55-20-4.7-28-.07-5.8-.18-11.59-.2-17.39,0-10,.05-20-.08-29.95,0-1.46-.53-3.49-1.55-4.25-3.69-2.72-2.52-4.31,0-7.37,1.72-2.09,1.84-6.15,1.5-9.2-1.18-10.46-1.43-10.49,1.12-12.93,7.54-7.21,14.23-15.21,24.26-19.73,4.71-2.12,7.44-2.16,10.4,1.48,2.67,3.29,6.2,1.56,9.28,1.61s4.44,1.48,5,4.09c1.1,5.41-2.44,11.43,2.75,16.38,4.93,4.7.12,11.59,2.59,16.32,2.27,4.34,5.76,7.27-.17,11,8.64,7.15,4.48,16.9,4.54,25.46,0,6.15,7.31,8.57,5.57,15.47-1.38,5.48-.28,11.58-.28,17.4,8.84,9.87,4.24,21.85,4.75,32.89.25,5.34,6.5,7.13,5.42,12.94-.89,4.82-1.65,10.61.22,14.76,2,4.34,5.83,7.25-.22,10.94,8.6,7.17,4.51,16.92,4.48,25.47,0,5.64,6.14,7.43,5.47,12.93-.48,4-.43,8.38.91,12,1,2.63,4.76,6.3,6.71,6,2.67-.44,5-4,7-6.67.8-1.08.21-3.22.21-4.87,0-16.64-.3-33.29.18-49.92.15-4.94-3.62-7-4.88-10.52-1.32-3.69-.29-8.22-.29-12.38,0-5.82.57-11.72-.13-17.46-1.25-10.17,4.51-21.54-4.87-30.4,0-12.48-.11-25,.06-37.44.06-4.27-1.79-7.35-3.62-11-2-4.12-5.61-7.95-6.17-12.32-.94-7.36-.39-14.94-.12-22.42,0-1.19,2-3.4,2.84-3.29,6.29.87,8.16-4.8,11.94-7.58,1.26-.92,2.75-2.62,3.9-2.44,8.74,1.38,18.18-3.51,26.33,2.61s3.63,15.21,4.78,23c.8,5.41-2,11.38,3.84,16.07,1.75,1.4,1.08,6.12,1.12,9.32.13,9.15-.13,18.31.11,27.46.16,6.3,7.24,10.37,5.21,18-1.45,5.44-.18,11.58-.31,17.4s6.82,8.7,5.28,15.47c-1.26,5.54-.26,11.59-.26,17.41,7.84,6.29,4.41,15.08,4.88,22.9.31,5,6.82,7,5.3,12.95-1,3.91-.6,8.34,0,12.41.3,2.12,2.1,4.21,3.65,5.91a148.88,148.88,0,0,0,10.58,10.59c3.86,3.46,6.28,7,5.79,12.72-.44,5.07-.35,9.65-5.13,13-3.42,2.37-5.58,5.46-5.21,10.34.55,7.45.14,15,.14,22.46,9.69,14.23,4.25,30.24,4.5,45.37.11,7.16,7.19,10.65,5.71,17.94-1.13,5.59-.22,11.6-.22,17.42,9,9.84,2.26,22.28,5.41,32.76,2.55,8.5,5.11,16.54,4.66,25.52-.41,8.3-.21,16.64,0,25,.11,5.57,6.74,8.69,5.21,15.46-1.26,5.54-.26,11.59-.26,17.42s.1,11.65,0,17.47c-.11,5,6.44,6.94,5.26,13-1.1,5.6-.24,11.6-.24,17.42,0,5-.67,10.11.19,15,.93,5.25,6,9,5,15.47s-.22,13.28-.22,19.94c0,5.82-.07,11.65,0,17.47.07,4.8-.91,9.57,3.84,13.56,1.75,1.48,1.08,6.13,1.09,9.34q.11,36.19,0,72.39c0,4.9-.67,9.78,4.23,13.38,1,.71.67,5-.53,6.41a152.23,152.23,0,0,1-15.87,15.85c-2,1.73-7.18-.2-7.59,4-.38,3.78-1.81,8.26,2.14,11.5,4.7,3.86,2,9.2,2.62,13.87.72,5.49,5.8,11,10.66,11.21a67.82,67.82,0,0,0,10,0c4.71-.53,10.81,2.56,13.74-2.34,1.84-3.08.81-8.07.53-12.17-.35-5.22,6.65-6.93,5.29-13-1.08-4.75-.22-9.93-.22-14.93s-.58-10.07.12-15c1.45-10.15-4.54-21.33,4.64-30.63,1.66-1.69.23-6.43.23-9.75,0-18.31-.05-36.62,0-54.92,0-7.16-1.68-14.82,5-20.4V678.71c-8.37-10.84-4.66-23.49-4.73-35.37,0-8-1.84-14.13-8.11-19.29-3.62-3-3.28-6,1.17-10.11s8-8.1,6.76-14.77c-.52-2.84,1.82-3.57,4.26-4.68,5.6-2.54,11.94-4.17,16.41-8.4s8.36-7.38,14.91-6.54a75.53,75.53,0,0,0,15,.05c7.77-.57,14.39.69,19.54,7.47,1.6,2.12,7.32,1.87,8,3.8,1.92,5.58,5.22,8.12,10.42,10.62,3,1.42.84,10.25,8.71,8.14,3.81,3.14,2.38,9.12,7,12.12,3.41,2.22,5.81,5.93,9,8.62,2.4,2.06,2.12,4.78,1.48,6.82-3,9.53,7.41,15.71,5.49,25.5-1.72,8.82-.36,18.24-.36,27.39ZM1603,892.2a17.47,17.47,0,0,0-2.41-2.84,1.49,1.49,0,0,0-2.11,2.11,10.08,10.08,0,0,0,2.94,2.27c.19.1,1-1,69.45-74.36a68.33,68.33,0,0,0-7.44.07c-1.47.16-4.13,1.19-4.09,1.59,1,9.27-8.84,7.27-12.21,12-5.27,7.32-15.41,8.23-21,15.63-1.4,1.88-5.8.88-8.35,3.56-3.19,3.36-9.5,2.08-11.87,7.12-2.75,5.86-10.71,3.56-13.72,8.77-3.12,5.39-10.22,4.72-13.5,9-1.52,2,.38,7.29-4.19,7.07-6.3-.31-11.08,1.41-14.83,6.4-1,1.31-2.58,3.53-3.44,3.34-5.73-1.3-7.77,5.72-12.76,5.37-3.16-.23-4.63,1.38-4.93,4-.43,3.64.72,6.37,5.23,6.13.83-.05,11-.4,13.22,0,11.25,2.33,19-3.26,25-11.45,2.88-3.9,7.58-2.4,10.35-5.19a91.4,91.4,0,0,1,8.06-7.35c2.77-2.18,7.7-1.77,9.93-5.61,1.93-3.31,3.48-6.83,5.36-10.17.23-.4,1.52-.33,2.3-.27,4.45.31,5.46-2.33,5.4-6.06a5.22,5.22,0,0,1,.7-2.17c1.14-2.35,2-2.09,3.61-.13,1.07,1.31,3.71,5.31,4.87,1.25,1.91-6.7,4.05-11.21,11.75-13.26,6-1.59,4.23-11.79,11.05-14.05,2.23-.73,4.81-.59,7.22-.52,4.06.12,5.72-1.65,5.78-5.73.06-4.75,3.77-4.14,7-4.45.81-.07,1.61-1.94,2.07-3.12.12-.31-1-1.53-1.66-1.63C1674.22,819.22,1672.54,819.39,1603,892.2Zm399.92-123.83c0,10,0,19.94,0,29.9,0,3.68-1.25,5.09-5.23,6.43-7.34,2.47-14.84,5.58-19.8,12.26-1.33,1.79-2.53,2.47-3.52,1.31-6.7-7.91-15.55-2.92-23.35-3.71-7.13-.71-11.42,3.54-13,11.09-.49,2.33.27,5.75-1.08,6.93-5.58,4.88-7.48,12.72-12.49,17.14-8.13,7.18-10.74,18.08-19.06,24.72-4,3.19-3.19,8.14-2,11.36,1.55,4.21,4.83,8.72,10.63,8.43,5.48-.27,11.79,2.17,15.71-4.15,10.43.31,18.86-8.43,30-6,6.35,1.37,13.24.25,19.89.25,9.79-9.16,21.86-3.47,32.82-4.93,3.27-.43,6.64,0,10-.08,4.21,0,5.4-1.32,5.43-6,0-8.31,0-16.61,0-24.92,0-9.14-.79-18.36.23-27.39,1-8.54-3.25-15.32-4.94-22.94-1.4-6.33-.19-13.23-.31-19.87-.13-7.27-3.43-12.15-12.89-19.11-2-1.43-2.25-2.3-.64-3.58,6.42-5.11,2.41-12.28,3.57-18.44-7.74-5.3-5-13.35-4.79-20.36.12-5-2.91-7.31-5.7-10.19-.58-.59-1.09-1.44-1.79-1.66-.42-.12-1.56.68-1.67,1.21-1.84,8.87-1.39,17.78-.27,26.68,6.3,3.91,4,10.21,4.17,15.7C2003.13,755.07,2002.94,761.72,2002.94,768.37ZM1437,664.38c2.69-.69,7.86,2.45,10.42-1.45,4.08-6.23,11.44-.55,15.36-5.15,5.42-6.36,12.42-2.37,18.61-3,5-.48,7.6-1.46,7.31-6.95-.06-1,2-3.19,3-3.11,7.28.64,9.14-6.19,13.55-9.43,2.33-1.72,1.52-1.73-.35-7-3.08-8.73-10.29-16.08-10.88-25.15-.44-6.79-6.33-10.57-6-17.8.22-5.38-4.17-11.41-7.79-16.36-3.82-5.22,1.86-13.91-6.61-17.16-.18-7.13-7.83-12.31-5.08-20.32,1.23-3.59-1.36-6.07-3.9-8.27-1.25-1.07-2.36-2.3-3.53-3.46-.82,1.32-2.32,2.61-2.36,4-.24,7.45,2.06,15.89-.73,22.08a49.92,49.92,0,0,0-4.53,18.08c-.47,7.07,2.36,14.42-2.6,21.27-4.62,6.39-1.41,14.24-2.29,21.38a3,3,0,0,1-1.3,1.91c-5.51,3.34-4.24,9-3.38,13.37,1.17,6-5.12,7.86-5.4,12.88-.27,4.72,2.61,10.42-1.77,14-4.1,3.37-1.83,9.67-6.84,12.23-1.46.74-1,2.57,1.11,3.35C1432.42,664.81,1434.21,664.38,1437,664.38Zm437.32,99.56a103.16,103.16,0,0,0,21.73,0c4.62-7.12,11.84-3.88,18.07-4.44,3.29-.29,6.66.21,9.95-.13,2.61-.28,4.54-1.8,3.92-4.93s1.84-7-1.79-9.17c-6.78-4,.72-13.63-7-17.08-.4-4-1.57-8.08-1-11.94,1.27-9.25-6.52-15.92-6.39-25,0-3-7-1.38-10.12-5s-5.83-2.2-8.57,2.8c-.73,1.32-.49,3.64-1.48,4.28-10,6.42-12.76,18.52-21,26.28a9.85,9.85,0,0,0-1.2,13.23,18,18,0,0,1,3.78,11C1873.46,750.28,1871.81,756.89,1874.35,763.94Zm-201,224.83c.77-2.14-1.4-4.38-4.33-4.6-5.07-.39-8.9,1.13-13.28,4.35-3.25,2.38-9.92,1.75-14.43.38-7-2.13-8.64,6.37-15.48,5.74-8.33-.76-18.23-4.29-25.26,4.52l-19.82.21c-5.3,8-13.48,3.72-20.41,4.77-1.58.24-3.5-.17-4.7.6a5.69,5.69,0,0,0-2,4c-.1,1.41.55,4,1.37,4.19,6,1.61,11.86,2.23,17.66,5.7,4.28,2.56,11.61,1.63,17,.22,6.92-1.79,9.25,5.89,15.43,5.46,9.91-.68,19.9-.25,29.85-.13,2.34,0,5.48-.14,6.86,1.21,4.19,4.1,6.57,4.57,6.45-2.17-.08-4.33.73-7.7,4.15-10.82,6.73-6.15,13-12.75,19.37-19.33C1672.77,992.07,1672.86,990.23,1673.34,988.77Zm80.56-79.5v-.37c9.06,0,18.33,1.15,27.11-.41,5.69-1,10.42-6.58,16.07-9,3-1.27,6.27-.78,6.16-5.44-.11-4.86,6.84-7,5-12.87-.67-2.21.06-4.68-2.18-6.6a88.74,88.74,0,0,1-8.79-8.77c-1.48-1.68-1.83-.76-3.66.26-10.05,5.61-20.17,11.23-30.74,15.73-6.29,2.69-11.53,7.31-19.24,7.88-7.42.54-11.61,7.71-15.38,13.91-1,1.66,1.24,5.61,3.24,5.63C1739,909.3,1746.44,909.27,1753.9,909.27Zm67.71,65.41v-.49c-7.43,0-14.93.64-22.27-.17-8.82-1-14.48,5.25-21.38,8.34-4.22,1.9-6.92,7-10.74,10.09-1.63,1.32-4.41,1.17-6.59,1.9-.7.23-1.79,1.42-1.67,1.64.59,1.15,1.48,3,2.33,3,6.59.25,13.2.22,19.8.12,7.1-.12,14.71,1.68,20.22-5,5,0,10-.72,14.82.18,6.4,1.21,8.67-5.88,15.31-5.76,7.35.13,14.77-4.34,20.18-10.41.48-.53,1.28-1.3,1.15-1.71-.23-.7-1.07-1.7-1.66-1.71C1841.28,974.65,1831.44,974.68,1821.61,974.68ZM1633.39,668.29c0,10.65-.14,16.39.06,22.12.1,2.67,1.65,4.28,4.66,4.15,3.28-.14,6.56,0,9.83,0,4.19-.1,5.62-1.66,5.42-5.86-.12-2.39.54-6.09-.69-6.92-4.53-3-3-9.12-6.78-12.07-4.79-3.72-.69-9.41-3.43-13.34-.72-1-2.71-1.64-4.11-1.63s-3.93.9-4,1.64C1633.65,661.92,1633.44,667.56,1633.39,668.29Zm479.53,310.89c2.46,0,5,.4,7.33-.17,1.09-.27,2.11-2.32,2.46-3.73.61-2.5-.28-5.57-2.67-5.89a70.9,70.9,0,0,0-14.71,0c-.93.07-2.08,2.32-2.42,3.73-.61,2.5.24,5.15,2.69,5.93C2107.83,979.74,2110.47,979.18,2112.92,979.18Zm-584.39-64.89c-.54-1.37-1.08-2.75-1.61-4.13a18.72,18.72,0,0,0-3.36,1.65,33.76,33.76,0,0,0-3.42,3.35c-.53.54-1,1.13-1.51,1.69,1.26.8,2.47,2.16,3.81,2.3C1526.74,919.61,1528.27,918.2,1528.53,914.29Zm467.64-25.72,1.78-1.77a15.73,15.73,0,0,0-3.36-1.57c-.41-.09-1.08,1-1.64,1.57ZM2227,726.27c-.67-.67-1.23-1.22-1.78-1.78a15.69,15.69,0,0,0-1.56,3.36c-.09.41,1,1.08,1.56,1.64ZM1780.71,564.69c-.55.55-1.65,1.23-1.56,1.64a15.62,15.62,0,0,0,1.56,3.35c.56-.55,1.65-1.23,1.56-1.64A15.36,15.36,0,0,0,1780.71,564.69Zm224.73-119.86c-.56.56-1.66,1.23-1.56,1.65a15.36,15.36,0,0,0,1.56,3.35c.55-.56,1.65-1.23,1.56-1.64A15.69,15.69,0,0,0,2005.44,444.83Z"/></svg>