<svg id="Layer_1" data-name="Layer 1" xmlns="http://www.w3.org/2000/svg" viewBox="0 0 1200 1200"><title>BB_Artboard 92</title><path d="M395.86,738.6c-4.72-10-15.52-12.77-15.67-24.27-.07-5.75-13.94,0-14-11.52,0-4.49-6.39-9.24-10.41-13.34q-21.33-21.75-43.08-43.08c-6.49-6.35-11.85-13.76-22.19-15.88-4-.82-10.15-6-9.82-13.31.44-9.55-9.81-3.89-12.57-8.51-2.25-3.74-3.49-8.09-5.18-12.17-10.63,1.69-11.49-4.78-10.94-12.8a122.34,122.34,0,0,0,0-14.33c-.21-4.6.58-10.17-1.72-13.49-2.11-3-8.43-2.84-11.67-5.53-6.41-5.32-11-14.53-18.13-16.82-8.53-2.77-13.89-7.86-19.56-13.45-8.72-8.6-9.25-18.56.47-26.72,9.23-7.76,15.43-17.55,19.55-27.9,3.62-9.11,7.42-18.88,8.89-28.39,1.16-7.48,6.36-12.18,7.53-18.49,1.26-6.84.62-13.14,6.5-19.11,4.28-4.35-1.69-13.47,5.3-19.22,6.38-5.25,2.57-13.43,2.63-20.18.07-7.51.81-14,7.43-18.53-.22-10.4,10.21-17.48,7.66-29.39-2.09-9.76-2.58-20.85,6.43-29.45,1.79-1.71.67-7,.1-10.46-.34-2-1.85-4.61-3.57-5.45-1.92-.95-4.67-.22-7.06-.22-9.56,0-19.18.68-28.65-.2-8.94-.82-18.15,3.14-26.9-4.53-7.46-6.55-18.57-.07-27.39-2.8-5.11-1.57-9.42-6.4-13.47-10.4-1.21-1.2-1.26-5.24-.16-6.77,2.73-3.82,6.8-6.67,9.69-10.4,9-11.53,20.54-10,31.53-5.33,4.1,1.74,7.29,5.51,12.45,4.58,14.5-2.62,30.95,6.65,43.62-7.17,9.49-.16,19-.26,28.47-.59.87,0,1.69-1.58,2.53-2.43-1.43-1.38-2.82-3.89-4.31-4-8.35-.39-16.74.15-25.08-.29-7.85-.41-16.59,3-22.91-5.66-1.38-1.88-6.54-1.29-10-1.36-8.36-.16-16.91-1.15-25,.19-13.81,2.28-22.48-4.59-30-14.32-2-2.53-4.65-7.11-3.66-8.83,2.78-4.85,7.3-8.7,11.13-12.94,11.11,2.27,23.52-5.41,33.84,5.29,2.46,2.55,8.8,1.79,13.37,1.81,33.45.13,66.9.23,100.34,0,7.85-.06,16.31,2.73,23-5.55,2-2.49,8.83-1.42,13.45-1.45,20.31-.12,40.62.27,60.92-.19,9-.21,19.33,3.91,26-6.27,9.45-.25,18.92-.33,28.35-.95,1.4-.09,2.74-2.61,3.83-4.2.13-.18-1.52-2.29-2.41-2.33-5.91-.33-11.84-.43-17.77-.44q-77.06,0-154.11,0c-9.56,0-19.12-.11-28.67,0-8.22.12-16.74,1.47-22.1-7.14l-7.6,6.62c-6.52-10.44-17.28-4.56-25.78-7.09-5-1.49-8.93-6.93-13.09-10.84-1.09-1,8.86-24.22,10.36-24.19,8,.14,16.38-2.7,24,1.87,2,1.19,3.22,4.27,5.2,4.71,8.79,2,17.83-2.16,27,4.72,5.48,4.12,15.69,2.44,23.78,2.54,22.69.26,45.39.09,68.09.09,9.56,0,19.84,2.21,28.47-.63,8.44-2.77,16.09-7.81,25.52-7.59.82,0,2.22-1.5,2.36-2.45.1-.71-1.26-2.24-2.16-2.41a58.28,58.28,0,0,0-10.25-1.21c-17.92-.11-36,1.16-53.74-.35-22.92-2-47.09,7.62-68.73-6.87h-43c-3.58,0-7.2.32-10.74-.08-5.25-.59-12.35-12.57-11.85-19.47.34-4.59,8.18-16.21,11.51-16.21,16.65,0,33.31.26,50,.43,10.42,12.19,24.4,4.83,36.69,6.47,6.8.9,13,.18,19.5-5.22,4.33-3.61,13.51-1.38,20.52-1.77,11.68,11.69,26.48,6.86,40,7,46.58.47,93.18.54,139.76-.06,12.32-.16,26.23,5.59,36.68-6.53.54-.63,2.21-.36,3.36-.38,2.39,0,4.78,0,7.17,0h53.76c8.36,0,17-1.33,25,.34,9.57,2,14.4-7.18,22.19-7.35,21.49-.46,43-.16,64.51-.16,8.36,0,16.74-.34,25.08.1s16,0,22.42-7c1.62-1.78,6.87-.27,10.45-.27,16.73,0,33.49.63,50.17-.25,9.12-.48,19.54,4.58,27.26-2.94,7.42-7.23,15.71-3.18,23.55-3.8,9.5-.75,19.44,1.35,28.55-.66,7.38-1.62,13.31-7.25,22.24-7,24.4.66,19.13-.41,19.56,22.21.13,7-7.16,8.86-10.34,13.61-13-.66-16.64,11.79-24.77,17.93-1.22.93-1.2,4.7-.47,6.68.66,1.81,3,4.11,4.73,4.22,7.13.48,14.33,0,21.49.25,9.2.31,16.34,8.36,16.59,18.33.11,4.7.69,10.5-6.12,10.1-7.67-.45-10.26,10.18-18.66,7.77-.46-.13-3,5.38-3.82,8.46-2.69,10.19,8.87,15.54,9,25,0,.68,4,2.06,6.06,1.85,7.8-.82,15.33,1.67,23.24-4.93,7.69-6.42,16.66-2.4,23.92,6.55,1.31,1.61,2.51,4.34,2.08,6.16-2,8.44-16,19.87-25.18,21a15.87,15.87,0,0,1-3.58,0c-4.43-.45-6.33,2.07-6.89,6-.66,4.53.52,11.6-2,13.24C978,240.19,983,258,984,273.72c.48,8.37,8.76,15.47,6.88,25.79-1.48,8.1-2.22,17.29.21,24.87,2.75,8.56,8.05,15.87,6.93,25.9-1.19,10.62-.27,21.47-.27,32.22,0,9.56-.27,19.13.1,28.67.23,6.21-.54,11.48-5.87,15.65-1.34,1.05-2.12,5.4-1.22,6.3,10.68,10.73,6.1,24.18,7,36.63,12,11.62,7.31,26.67,6.6,40-.61,11.33,9.92,18,8.1,29.37-1.68,10.49-.35,21.45-.35,32.2,13.83,11.3,4.78,26.7,6.93,40.08.93,5.79.78,10.88,5.4,15.91,3.73,4.05-4.93,5.75-5.31,10.36-.46,5.66,3,8.71,6.56,11.64,6,5,10.18,9.71.75,15.3l.06,43c10.12,6.43,6.76,16.64,7,25.73.27,8.35.41,16.74,0,25.08-.54,10.15-10.37,17.86-8,28.91-4.22,4.23-10.45,7.82-12,12.87-1.23,4,7.68,7.61,5.85,14.46-1.47,5.52,3.08,13-2.49,16.68-6.29,4.18-14,7.86-21.37,8.47-15.42,1.27-31,.39-46.56.39-9.56,0-19.14-.41-28.66.12-9,.5-19.39-3.91-25.93,6.51-1.69-1.33-3.2-3.11-5.11-3.89-3.07-1.26-8.6-3.45-9.29-2.5-8,11-19.57,5.48-29.47,7.34-1,.18-2,1.47-2.44,2.49-.25.58.38,1.93,1,2.44,4.35,3.57,6.88,9.24,14.17,9.14q39.42-.55,78.85,0c6.37.08,10.53-2.62,15.65-5.87,4.31-2.74,11.38-1.49,17.21-1.34,7.31.19,15.13,8.24,15.63,15.63.24,3.57-.21,7.19.09,10.75.7,8.15-5.15,7.33-10.31,10.1-7.57,4.07-12.56,11-20.4,1.14-1.11-1.41-5-2.5-6.18-1.68-19.39,13.27-41.11,5.4-61.68,6.69-21.42,1.34-43,0-64.49.44-8.95.19-18.72-3.45-26.47,5.79-2.07,2.47-8.92,1.16-13.57,1.19-15.53.12-31.1-.63-46.57.31-8.77.53-15,9.68-25.81,7.32-9.12-2-19-.47-28.58-.32-.93,0-2.67,1.38-2.59,1.92.24,1.75.69,3.93,1.9,5,3.38,2.94,5.37,7.36,11.24,7.58,6.77.24,14.7-3.56,20.18,2.77,4.8,5.55,12.42,1.63,16,4.56,10.31,8.57,21.83,6.51,33.21,6.71,14.33.24,28.68-.32,43,.2,9,.32,19.27-3.91,26.15,6.08.49.7,2.07.91,3.14.91q30.46.07,60.93,0c11.67-11.75,26.48-6.36,40-7,14.3-.69,28.68.19,43-.29,7.53-.26,10.17,10.43,18.66,7.7.22-.07,3.28,5.7,3.37,8.8.36,12.39-6.59,19.42-18.89,19.45-31.06.1-62.12,0-93.18,0-8.37,0-16.73-.17-25.09.07-4,.11-6.58,2.37-6,6.7.3,2.14,1.25,5.87,2.21,6,10.17,1.1,17,9.81,28.74,9.31,35.77-1.53,71.65-.55,107.49-.55,6,0,12,.33,17.91-.09,7.31-.52,10.2,5.38,13.94,9.46,3.6,3.92,2.27,8.55-1.81,12.09-.9.78-2.43,1.68-2.43,2.52,0,11.35-6.86,12.24-16.09,12-23.88-.52-47.82-1-71.66.12-15.82.76-33.12-6.24-47.22,6.87-8.36,0-16.75-.39-25.08.12-7.83.48-16.35-3-23.07,5.41-2,2.51-8.79,1.52-13.39,1.58-13.14.18-26.29-.22-39.42.16-9,.27-14.9,10.37-25.81,7.48-7.82-2.07-16.72-1.19-25-.19-8.78,1.06-15,9.72-25.82,7.37-9.12-2-19-.42-28.58-.42s-19.11,0-28.67.09c-.92,0-2.66,1.39-2.58,1.93.24,1.75.7,3.93,1.91,5,3.37,2.94,5.3,7.84,11.26,7.45,7.13-.48,14.41-.81,21.48,0,15.79,1.87,32.63-5.5,47.57,6.59,3.61,2.92,11.59.43,17.57.43,69.29,0,138.58.21,207.86-.27,8.27-.06,13.17,3.21,18.09,8.58s3.44,12.15,1.65,16.68-8.16,9.91-13,10.37c-14.2,1.37-28.62.64-42.95.43-6.26-.1-8.07,3.09-7.92,8.62a110.33,110.33,0,0,1-.07,14.32c-.49,4.83-9.92,12.89-14.74,12.93-12,.12-24,.89-35.81-.26-7.54-.74-12.88-8.8-22.2-7.16-8.11,1.42-16.67.29-25,.29s-16.73-.26-25.08.09c-6.17.25-11.37-.55-15.87-5.6-.81-.89-7.78,4.59-9.49,3.46-3.94-2.6-7-5.42-12.33-5.26-14.32.42-28.67.14-43,.14-9.56,0-19.12,0-28.67,0-8.18,0-16.83,1.67-22.14-7.13l-7.61,6.74c-10.37-12.14-24.26-5.69-36.62-6.61-11.88-.88-23.88-.08-35.83-.22-10.28-.12-20.47,1.5-29.7-6.66-3.35-3-11.53-.48-17.5-.48H386.59c-4.61,0-9.32.82-12.86-3.68-4.14-5.26-8.75-10.17-13-15.34a12.11,12.11,0,0,1,2.44-2.42c4.7-3.33,3.08-8.32,3.69-12.84,1.77-13.2-12.26-6.94-16.95-13.73-3.72-5.38-15.05-2.83-18.74,1.17-12.63,13.7-15.85,14.32-24.46,4.68-1.54-1.73-4.15-3.48-4.25-5.34-.47-8.33-1.07-16.84.16-25,.6-4,5.21-7.27,7.83-11,4.55-6.44,12.6-9.37,13.83-19.5,1.58-13-6.12-21.72-10.46-31.78-3-6.93-10.54-10.91-13-19.8-2-7-11.19-11.91-16.9-18-4.64-5-3.52-12.91-10.07-17.42-17.67-12.18-24-34.25-40.56-47.69-4.28-3.47-3.76-20.86-.25-26.44,5-7.87,16.51-12,24.14-6,6.41,5,15.14,4.64,20.43,12.06,7.52,10.55,22.57,9.74,31.68,18.08,7.22,6.61,19.54-.84,24.62,10,9.47.21,19,.89,28.4.47,6.1-.27,14.21-15,10.09-18.67-6.61-5.88-6.09-12.59-5.42-19.4,1.05-10.82-12.65-17.63-7.46-29.35.22-.5-1.22-1.83-2-2.64-6.73-6.78-13.19-13.89-20.35-20.19s-6.62-17.33-15.11-22.48c-11.52-7-12.85-21.55-22.63-30.18-8.5-7.5-18.66-14.42-20.45-27.23-12.67-12.67-24.57-26.28-38.32-37.65-7.82-6.47-9.74-15.36-14.68-22.88-6-9.21-3.38-15.25,7-20.17,2-1,3.48-3.09,5.48-4.1,9.27-4.7,15.91-4.18,21.89,1.66S272.11,655.9,278,661.81c6.76,6.76,13.15,13.94,20.39,20.15,6,5.19,9.39,13.3,18.84,15.08,9.88,1.87,13.59,12.54,21.18,18,6.38,4.57,15.14,5.15,19.89,12.66C366.46,740.53,378.89,741.74,395.86,738.6Zm32.23-6c1.07,0,2.55.42,3.08-.12a3.08,3.08,0,0,0,0-3c-1.66-2.36-3.71-5.31-6.23-1-.34.57,2,2.72,20.65,12-.3-7.19-1.35-7.94-11-7.84-1.12,0-2.67-.44-3.23.12a3.2,3.2,0,0,0,0,3.16c2.93,3.32,6.08,6.47,9.26,9.56a3.06,3.06,0,0,0,2.24.54C443.92,744.24,444.75,742.34,428.09,732.63ZM818.46,301.28c0,8.09-.35,12.75.17,17.32a7.83,7.83,0,0,0,3.62,5.19c3.18,1.7,3.72.2,3.54-3.32-.47-9.22,0-18.49-.34-27.72-.06-1.41-2.54-2.78-4.06-4-.11-.08-2.16,1.45-2.25,2.35-.49,4.51-.62,9.07,13.66,55.48,0-8.09.36-12.75-.17-17.31a7.8,7.8,0,0,0-3.61-5.2c-3.18-1.69-3.72-.19-3.54,3.32.47,9.22,0,18.49.34,27.72,0,1.41,2.54,2.79,4.06,4,.11.09,2.16-1.45,2.25-2.34C832.61,352.25,832.74,347.7,818.46,301.28ZM349.23,775.65c1.06,0,2.54.42,3.08-.12a3.13,3.13,0,0,0,0-3c-1.67-2.36-3.71-5.31-6.24-1-.33.57,2,2.71,105,73.88-5-17-23.09-18-33.31-29-3.54-3.82-9.48-5.65-14.59-7.72a67.19,67.19,0,0,1-24.93-17.77c-4.78-5.32-9.65-10.77-15.35-15-2.33-1.71-8.36-1.68-10.15.11s-1.86,8.81-.16,10c9.94,7.12,11.77,19.85,20.12,27.68,10.29,9.64,12.31,23.85,20.26,34.64,4.87,6.61,1,13.79,2.46,20.52a14.13,14.13,0,0,0,2.59,6.05c9,10.42,3.14,22.5,4.05,33.8l-17.86,17.46c-8.25-3-10.88,8.13-18.54,7.24-13.51-1.56-28.12,4.19-40.26-7-1.94-1.79-7-.66-10.5-.14-3.75.55-5.93,2.7-5.69,7.18.31,5.85-.73,11.57,5.16,15.93,4.75,3.51,8.42,8.44,12.81,12.49,5.18,4.78,2.94,13.78,10.1,17.34,2,12.42,11.52,21.43,15.1,33.17,3.1,10.16,9.54,14.77,20.79,14.36,20.29-.73,40.61-.09,60.92-.29,4.93,0,9.54,0,12.39,4.68,2,3.17,3.19,3.19,5.17.14,5-7.64,14.76-6.9,18.86-3.73,6.28,4.86,11.93,6.25,19.18,6.23q102.14-.16,204.27-.1c4.68,0,11.43,1.43,13.66-1,8.91-9.81,19.93-4.94,30-6,9.34-1,18.8-.72,28.15-1.55,1-.09,2.31-3.85,2.27-5.89s-1.38-4.18-2.56-6c-.45-.7-2-1-3.09-1-10.75-.07-21.5,0-32.25,0-9.56,0-19.44-1.53-28.59.39-11.67,2.45-19.2-7.15-29.37-7.46-13.13-.4-26.28-.1-39.42-.1H593.39c-14.09-13.2-31.41-5.88-47.22-6.86-20.23-1.25-40.61-.74-60.9-.13-10.73.33-17.61-12.26-29.22-7.76-.45.18-2.13-1.43-2.39-2.43a30.59,30.59,0,0,1-.83-6.82c-.52-20.65,4.22-25.9,23.09-26.22,10.6-.18,21.2-.67,31.78-1.2.83,0,2.29-1.67,2.2-2.41a3.52,3.52,0,0,0-2.37-2.45c-7-.52-16.3,2-20.64-1.61-10.58-8.73-22-5.84-33.31-6.68-6.91-.51-14.09,1.79-22.29-2.75,0-7.33-.08-15.47,0-23.61.11-8.66.95-9.38,10.56-9.43s19.11,0,28.67,0c8.36,0,16.79.65,25.07-.18,9.22-.92,20,4.5,27.41-2.51,8.61-8.11,18.2-2,26.83-4.83a4.87,4.87,0,0,0,2.45-2.52,2.9,2.9,0,0,0-.93-2.44c-3.45-3.09-6.62-7.67-10.65-8.7-8.66-2.19-19.21,3.5-26-6.54-9.42-.32-18.84-.91-28.27-.88-8,0-16.93-2.54-22.44,6.49a6,6,0,0,1-2.38-1.43c-3.84-6.25-10-5.45-15.82-5.11-6.93.41-7.3-4.15-7.34-9.14,0-4.67-.55-9.26,3.85-12.81C446,851.13,449.12,847.44,349.23,775.65ZM664.7,402.82c1.07,0,2.55.41,3.08-.12a3.15,3.15,0,0,0,0-3c-1.67-2.35-3.71-5.3-6.23-1-.34.58,2,2.72,80.09-60.51-.77,3.77-2,7-2,10.21-.15,28.64-.08,57.28-.08,85.92,0,9.54-1.1,19.25.29,28.59,1.51,10.2-3.61,17.5-7.25,25.81-1.32,3-1.69,9,0,10.31,7.66,5.94,5.6,10.69-.25,15.87,0,20.29-.81,40.62.42,60.83.45,7.3,7.38,13.07,7.1,22.13-.93,31-.33,62-.39,93.06,0,3.46.3,7.33-1.11,10.25s-4.77,5.24-7.36,7.7c-4.7,4.46-4.91-2.38-7.58-3.08-2.15-.55-4.24-1.41-6.41-1.79-13.25-2.32-13.32-2.28-13.34-13.83,0-23.87.3-47.74-.19-71.59-.16-7.79,3-16-4.19-23.38-6.36-6.47-1.44-15.84-2.84-23.77-2.57-14.49,6.85-31-7.13-43.57V506.36c0-8.35.17-16.71-.06-25.06-.19-6.92-8.74-10.07-7.47-18.56,1.37-9.22-.08-18.86-.3-28.31-11.75-7.3-3.66-19.76-7.63-29.06a5.05,5.05,0,0,0-2.51-2.46,7.07,7.07,0,0,0-3.4-.08c-1.34,11.55,3.88,24.46-3,34.5-8.56,12.47-3.73,25.3-4,37.7-.85,47.71-.38,95.46-.31,143.19,0,9.15-1.94,18.94,7.06,25.76.58.44.48,2.49,0,3.45-1.86,3.73-6.44,9.77-5.66,10.55,4.64,4.58,4.51,10.1,6.15,15.64,4.47,15.13-10.25,25.83-7.82,40.15.21,1.22-2.76,4.09-4.49,4.31-4.69.61-9.54-.05-14.29.26-9.81.65-16.58,8-16.82,18.06-.06,2.38,0,4.77,0,7.16.08,9.79.63,10.49,9.41,10.56,11.94.09,23.89-.33,35.8.16,6.69.27,14-2.79,19.89,3.84,5.55,6.29,13.38,3,20.1,3,43,.31,85.92.16,128.87.16,3.58,0,7.27.5,10.7-.21,1.78-.37,4.39-2.84,4.45-4.44.26-7,1.65-15-1.09-20.9-2.37-5.1-6.4-9-6-15.51.56-9.51.14-19.08.14-28.63s-1.76-19.52.46-28.52c2.7-11-7.44-16.65-7.59-25.78-.17-10.74-1.18-21.64.26-32.18,1.68-12.29-5.68-21.87-7.2-32.91a106.28,106.28,0,0,1,0-28.56c1.38-10.11-5-17.29-6.9-25.83a72,72,0,0,1,0-32c3-12.11-8.09-18.73-7.9-29.38.18-10.1,3.82-21.55-7-29.24,4.53-11.64-7.22-18.73-8.14-28.88-.08-.91-1.59-1.7-2.43-2.54-1.25,1.74-3.51,3.44-3.59,5.24-.39,8.34,2.33,17.83-.8,24.77-4,8.91,15,15.27,1,23.16,2.25,2.53,6.21,4.91,6.43,7.62.8,9.47-.41,19.13.52,28.59.88,8.91-3.29,18.16,4.47,26.88,6.64,7.47,1.62,18.21,2.33,27.46.81,10.64.37,21.38.48,32.07,11.54,7.64,5.54,19.4,6.76,29.39,1.51,12.34-3.14,25.34,6.81,36.8,3,3.4,1.12,11.64.18,17.45-.48,3-3.79,5.54-5.89,8.23-6.37,8.22-15.33,3.84-23.15,4.45-6.06.46-5.62-.89-6.71-13.28-1.91-21.72,6.57-44.61-7-65.06V561c0-9.55-1.29-19.32.35-28.58,1.85-10.42-8.55-16-7.7-25.74.83-9.48-1.11-19.31.53-28.56,1.84-10.42-5.41-17.19-7.21-25.8-2.76-13.23,4.43-28.3-7.48-39.92q-.4-14.14-.82-28.3c-10.11-6.72-6.71-17.2-6-26C755.16,347.87,748.89,343.78,664.7,402.82Zm282.82,23.52V387c-12.93-16.71-5-36.18-7.16-54.31-.55-4.57.76-11.3-1.76-13.33-8.39-6.75-4.46-15.29-5.38-23.08-.81-6.88,1.21-16-2.47-20.19-4.87-5.59-2.87-13.67-9.32-18.1-2.08-1.43-1.5-6.36-2.9-9.32-.55-1.16-3.19-1.33-4.88-1.95-1.94,6.47-6.32,11.94-8.61,17.9-2.4,6.23.39,14.27-.81,21.22-1.11,6.39-5.52,12.21-6.62,18.6-1.21,7-.28,14.28-.28,21.44v25.05c0,7.16,1.19,14.59-.33,21.41s14,12.65.73,19.36c1.51,4.18,7.22,5.36,6.93,11.19-.54,10.71-.16,21.47-.16,32.21V463.7c0,10.74-1.47,21.75.46,32.13,1.59,8.57,8.57,15.49,7,25.8-1.54,10.52-.34,21.43-.34,32.17,0,2.39-.95,5.4.15,7.07,13.45,20.58,4.55,43.47,7,65.14,1.51,13.51-4.26,28.16,6.92,40.26,1,1.07-1.38,6.53-3.44,8.85-3.54,4-5.2,8.12-1.83,12.24,3,3.69,6,6.65,5.7,12.08-.5,9.52,1.55,19.48-.59,28.53-2.36,10,11,13,7.64,22.2,0,.06,23.61,11.14,23.77,11.14,9.55,0,19.1.07,28.64,0,3.85,0,7.61-8.45,4.17-10.9-8.45-6-3.06-16.94-7.82-21.78-8.32-8.47-4.87-17.59-5.68-26.53-.43-4.74,1.94-11.3-.42-14-11.73-13.51-5-29.26-6.79-43.87-.29-2.35,1-5.73-.2-7-13.31-14.25-4.6-31.58-6.9-47.31-.69-4.67.1-9.54-.2-14.29-.14-2.14-.65-5-2.08-6.19-7-6-6.62-11-.2-17.62,4.91-5.09-4.85-5.89-4.82-10.25.07-8.35,0-16.7,0-25.06s.59-16.76-.17-25c-.71-7.92,4-16.86-3.15-23.66-7.41-7.05-2.8-15.67-3.71-23.52C947,438.33,947.52,432.3,947.52,426.34ZM305.78,288.06c-2.45,4.92-3.81,10.81-7.47,14.24-6.33,5.92.26,14.55-5,19.4-5,4.65-6.19,9.7-5.4,15.72,1,7.58-9.31,10-7.49,18.53,1.71,8,1.59,16.62-6.9,22,3.46,10.17-6.65,17.34-6.55,25.6.17,13.47-5,24.24-11.31,34.85-6.6,11.1-4.47,22.66-1.87,33.6,1,4.08,6.06,10.32,13.31,9.7,11-.92,20.91.23,28,10.44,1.58,2.28,6.13,4.09,8.9,3.64,8.58-1.42,13.1,3.9,17.77,9.15,3.29,3.71,6.72,6.36,12.07,5.49,4.88-.79,8.45,1.32,12.6,4.23,6.35,4.47,15,5.42,19.64,12.87,2.79,4.46,7.5,6,12.05,3.52,5.19-2.86,2.58-8.5,2.82-12.95a11.32,11.32,0,0,0-2.09-6.19c-1.26-2-4.48-3.27-4.73-5.15-1.35-10,3.58-21.53-7.38-29.15,2.18-11.92-2.17-22.24-6.83-32.9-2.19-5,1.53-13.75-1.5-17-5.69-6-7.62-12.48-5.7-19.12,2.82-9.77-9.5-13.64-7.36-22.09,3.21-12.65-6.06-21.43-9.49-31.91-1.29-3.92-6.72-7.19-4.83-12.14,4.9-12.77-10.73-20.6-7.32-32.81,1.25-4.48-2.75-6.15-5-8.6C314.62,296.7,310.31,292.59,305.78,288.06ZM589,673.39c-3.3-18.69,7.06-41.77-7.17-62.15,0-10.73-.66-21.52.18-32.19s-10.82-17.17-8-29.4c2.19-9.4,4.35-21.44-6.56-29.1-1.26-8.91,4-19.17-5.44-26.38-.58-9.3-1.54-18.61-1.6-27.92,0-6.14-.23-11.74-6-15.48.36-15-12.09-27.12-8.81-43.06,1.65-8,.39-16.64.22-25-.05-2.18-.33-4.92-1.64-6.37s-4.07-2.19-6.11-2-5.62,1.73-5.68,2.82c-.6,11.83-.64,23.69-.84,35.54,13.17,14.07,6.42,31.38,6.84,47.14,1,38.15.46,76.35.21,114.52-.05,7.43,2.29,12.72,6.62,19,3.35,4.84.34,13.88.9,21,.14,1.81,4.23,3.16,4.65,5.12,3,13.83,16.08,21.41,20.69,34.44,3.22,9.11,3.3,11.12-3.45,17.56-5.17,4.93-13.91,2.74-17.46,9.93-1.18,2.41-4.85,2.63-2.12,7.79,9.82,18.57,3.17,29.06-17.1,29.15-2.38,0-4.78-.19-7.15,0-4.46.43-6.83-2.08-6.85-5.91,0-8.25-10.85-12.66-7.47-22.15.59-1.66-.58-4.68-1.93-6.17-10.92-12.1-23.21-21.85-40.43-23.35-3-.27-5.87-3-8.8-4.55-6.59-3.52-11.41-3.54-12.07.2-.54,3.1-1,7.56.66,9.47,6.81,7.74,8.14,18.81,17.29,25.34,7.67,5.47,13.31,13.67,20.55,19.84,6,5.14,9.88,12.05,18.78,15.13C512.18,729,518.15,738,525.25,744a11.28,11.28,0,0,0,5.92,2.83c9.08.69,19.26-2.82,25.65,7.29,11.93,0,23.87.17,35.78-.25,1.26,0,3.11-3.42,3.44-5.45.57-3.49,1.69-8.74-.1-10.44-9-8.58-6.74-19.25-6.88-29.51C588.91,697.75,589,687,589,673.39ZM484.42,187.72c-13.78,1.72-30.82-4.63-45.11,7.17-8.35,0-16.75-.48-25,.38-1.76.18-3.67,5.07-4.25,8-.32,1.64,1.92,5.41,3.12,5.46,11.89.48,23.8.44,35.7.36.89,0,1.9-1.31,2.62-2.2,7.49-9.34,17.76-2.92,26.57-4.72,7.56,11.55,19.35,5.43,29.3,7,8.66,1.4,15.91-1.18,22.1-7.2,21.35.3,42.71.43,64,1.11,2.58.08,7.1,4.76,7.31,4.5,8.56-10.38,20.12-5,30.09-5.34,27.42-.79,54.88-.27,82.33-.27,4.77,0,11.2,2,14-.33,15.87-13.11,34.09-4.53,51-6.63,9.4-1.17,19.06-.2,28.61-.21,8.12,0,16.55,1.61,22.49-6.77.74-1,7.5.14,9.11,2.16,5.66,7.14,15,6.8,19.13,3.71,6.26-4.75,11.93-5.76,19.08-6.52,13.44-1.42,1.17-14.9,8.35-19.84a15.68,15.68,0,0,0,5-5.07c2.47-4.65-.75-10.49-5.57-10.67a45,45,0,0,0-7.16,0c-21.64,2.72-44.65-6.95-65,7.13-14.32,0-28.65.18-43-.07-7.26-.13-14.05-.23-18.86,6.76-.81,1.17-5.73,1.4-6.61.32-7.9-9.7-15.33-9-22.9.16-15.51,0-31,0-46.53,0-5.91,0-14.17-2.17-17.3.85-11.44,11-24.72,4.61-37,6.19-7,.89-14.08.65-21.13.91-6.71,10.14-17.07,5.34-26,6.36-18.15,2.08-37.55-5.42-54.31,7.18Zm235.8-50.19c4.77,0,11.32,2,14-.35,12.35-10.85,26.72-6.14,40.27-6.67,16.68-.64,33.4,0,50.09-.23,6.92-.1,16,1.42,20.23-2.27,6.59-5.77,13-4.46,19.74-4.75,7.14-.31,14.58-1.29,21.4.24,8.61,1.92,11.46-8.57,18.53-7.31,11.63,2.06,18.31-7.9,28-10.55,3-.82,5.14-4.79,7.67-7.32-2.9-1.27-6-3.94-8.68-3.59-22.81,3-47-7.74-68.62,7-9.54,0-19.68,2-28.48-.51-11.34-3.3-16.2,8.44-25.81,7.82s-19.07-.14-28.61-.14h-25c-9.54,0-19.67,2-28.48-.51-11.32-3.27-16,8.79-25.82,7.9-10.64-1-21.66,1.11-32.12-.56-12.45-2-19.86,11.27-33,8-10.11-2.51-21.35-.46-32.08-.53-2.28,0-14.06,8.35-13.58,10.1,1.69,6.09,7,4.2,11.12,4.22,27.43.1,54.88-.43,82.28.37,7.53.21,12.27-3.69,18-6.39C705.63,139.58,713.37,137.18,720.22,137.53ZM510.16,438.64V413.58c0-8.35-1.43-17,.36-25,2.18-9.69-7.21-14.21-7.46-22.17-.3-9.54-.7-19.14.12-28.61.68-7.81-4.84-12.64-6.66-18.74-2.09-6.95-3.58-9.91-11-9.61-11.91.48-23.86,0-35.78.36-1.42,0-3.92,3.24-3.88,4.92.13,5.59-2.28,11.78,3.36,16.47,3.65,3,10.14,7.37,9.61,9.94-2.62,12.65,9.67,20.48,8.77,32.73-.67,9-4.83,20.08,2.21,27.3,7.95,8.15.57,21.21,11.37,28.06,2.16,1.37.25,9.06.34,13.83,0,2.31-.42,6.12.68,6.68,10.62,5.46,3.44,17.53,9.8,24.84,7.74,8.89,1.17,20.74,4.29,30.4,1.94,6,6.65,11.36,8.76,17.82.38,1.17,4.11,1.94,6.14,1.69s5.33-1.75,5.57-3.13c.8-4.61,2.48-11.85.23-13.71-9.09-7.48-6.66-17-6.77-26.09C510,467.27,510.16,453,510.16,438.64ZM663.71,840.18h89.16c3.57,0,7.71,1.15,10.56-.28,4-2,7.26-5.76,10.38-9.18.52-.56-1.35-4.7-1.93-4.66-10.59.76-17.61-12.43-29.15-7.39-34.47,0-69,.08-103.43,0-9.08,0-19,2.76-25.78-7-.72-1-4.72-.62-6.77.19-20.45,8.1-20.41,8-41.25,1.32a34,34,0,0,0-10-1.59c-16.65-.16-33.29-.1-49.93,0a39.28,39.28,0,0,0-6.84.7c-2.25.41-9.7,11.27-10.15,13.61-.88,4.58,3,6,5.13,8.62,3.05,3.77,6.5,6,11.9,5.9,8.07-.12,16.15,1,24.23,1.57,7.19,9.44,17.41,4.16,26.29,5.42,8.83-11.82,21.58-6.67,32.7-7C613.77,839.72,638.75,840.18,663.71,840.18Zm-175.06-262c1-8.22-1.11-15-6.53-22.34-3.42-4.65-1.72-14.08-.36-21,1.66-8.43-9.19-11-7.4-18.57,3.69-15.61-12.16-27.82-7.44-43.68.4-1.37-2-4.11-3.65-5.44-4.58-3.61-2.21-8.73-3.49-13-1.58-5.23-7.2-10.47-6.44-14.91,1.62-9.54-8.34-14.78-7.24-22.13,1.56-10.54-9.14-16-8.19-25.6.08-.75-2.2-2.49-2.31-2.4-1.55,1.21-4.05,2.61-4.12,4.06-.39,8.34-.3,16.71-.16,25.07.19,11.41-2.15,22.93,6.66,33.26,2.5,2.93,2.66,11.63-3.32,15.92-4.43,3.17-1.48,5.29.85,7.62,5.59,5.62,3.56,10.61-1.77,14.67-2.94,2.23-2.76,2.9-.07,5.34,2.31,2.09,4.47,5.66,4.58,8.66.49,13.12-1,26.41.56,39.36,1.5,12.46,6.88,25.18,18.18,31.16,8.68,4.59,18.46,7.39,26.73,13.26.78.55,4.25-.88,4.71-2.06C489.22,583.45,488.65,580.84,488.65,578.22ZM402.61,367c0-7.17-1.37-14.68.33-21.42,2.45-9.68-6.35-14.32-7.63-22.17-2.17-13.26-2.53-13.58-13.29-13.65-7.31-.05-13.22-.83-19-6.75-4.25-4.37-11,1.29-10.67,8.4.19,4.62-.55,9.14,3.75,12.85,7.31,6.32-.75,19.24,10.08,24.62,1,.52.55,4.43.52,6.75-.12,8.21-1.59,16.82,7.19,22.12-.8,8.4,1.06,15.21,6.53,22.58,3.43,4.63.24,13.89.77,21,.41,5.6-2.89,12.2,2.88,16.63s3.11,10.74,4.33,16.21c1.43,6.43,8,10.4,7.38,18.59-.7,8.82,11.14,15.16,7,25.76-.28.71,2.55,2.72,4.11,3.9.13.1,2.31-1.55,2.33-2.41.29-11.89.42-23.78.5-35.67.06-10.75.78-21.57-.2-32.23-1-11.13,5.63-24.15-7-32.88ZM890.16,618.05V596.62c0-8.34-1.25-16.92.34-24.94,1.72-8.63-7.88-11.2-7.57-18.53.3-7.14.06-14.29.06-21.43,0-8.34-1.25-16.92.34-24.94,1.72-8.63-8.07-11-7.62-18.54.5-8.3.11-16.66.11-25,0-7.14-1.21-14.56.3-21.37,2.1-9.44-10.69-12.26-7.85-22.21,1.84-6.47.05-14-.35-21.05-.06-.89-1.46-2.05-2.47-2.4a2.9,2.9,0,0,0-2.37,1.54c-.67,6.93-1.14,13.87-1.59,20.81-.37,5.82-.64,11.65-1,17.47-11.39,6,.59,10.6,1,15.88.72,8.95-3.68,19.32,6.69,25.78-.2,5.65,2.9,12-1.81,16.7a15.67,15.67,0,0,0-5.14,12.31c0,8.34.39,15.5,6.85,22.5,3,3.22.5,11.45.5,17.4s-.45,11.95.13,17.85c.55,5.59-3.08,12.26,2.66,16.66,8.8,6.75-3.23,8.6-2.73,13.13,1.6,14.61-5.22,30.62,7.11,43.47,1,14.73-3.77,30.39,7.17,43.47v32.15c9.57,8,6.72,18.95,7.36,29.17.09,1.29,2.69,2.57,4.33,3.48.28.16,2.16-1.44,2.33-2.41a39.17,39.17,0,0,0,.31-7c0-8.34,0-16.67,0-25,0-9.52-1.32-19.29.37-28.51,1.75-9.53-7-14.36-7.37-22.11C889.74,646.65,890.16,632.34,890.16,618.05Zm-607-100.52c-3.58,0-7.22-.38-10.72.15-2.05.31-3.87,2.09-5.79,3.21,1.53,1.69,3.5,3.15,4.52,5.1,3.7,7.13,12.79,4.34,17.48,10a107.15,107.15,0,0,0,15.24,15.1c2.35,1.88,6.45,1.49,9.71,2.33s7.67.93,9.32,3.08c9.57,12.53,25.82,13.75,37.2,22.79,7.44,5.9,20-2.16,24.73,9.9.15.4,2.33.33,3.43,0,2.1-.64,5.77-1.49,5.85-2.48.45-5.58,2.26-13.2-.59-16.43-5.86-6.67-10.86-14.85-21.27-17.28-7.27-1.7-13.58-7.34-20.47-10.94s-14.16-10-20.79-9.41c-9.6.8-14.86-5.66-22-8.38C300.47,521,293,515.28,283.13,517.53ZM710.92,359.4V323.94c0-7.09-.21-14.19.06-21.27.25-6.68-3.89-7.29-9-7.43-21.49-.61-25.75,6-17.39,27.44,1.18,3.05,4.05,5.62,4.61,8.69,2,10.94-4.69,23.76,7.33,32.46,0,7.1,1.42,14.57-.34,21.19-2.59,9.7,11.55,12.26,7.79,22.05-.94,2.43,2.14,9,2.49,8.93,6.33-1.17,4.29-6.48,4.33-10.5C711,390.13,710.92,374.77,710.92,359.4ZM581.86,367c0-11.95,1.19-24.06-.44-35.78-1-7.29-5.77-14.35-10-20.71-1.19-1.76-6.65-.88-10.14-.81-6.34.11-8.36,2.28-8,8.32.23,4.52-1.29,9.41,3.33,13,8,6.16-.71,19.35,10.11,24.53.65.31.83,2.06.84,3.14.07,8.36-2.47,17.88.72,24.77,3.44,7.45,7.76,13.81,6.71,22.46-.1.83,2.8,2.26,4.49,2.91.45.17,2.34-1.53,2.35-2.39C581.9,393.23,581.86,380.09,581.86,367Zm-86,260.14c-.36-2.23,0-5.05-1.22-6.55-3-3.6-6.15-8.29-10.16-9.5-13.31-4-24.79-10.28-34.37-20.49-1.46-1.56-6.39-.64-9.31.33-1.28.42-1.61,3.84-2.29,5.92-3.33,10.21,8.44,15.8,7.84,25.26-.05.78,1.52,2.35,2.4,2.4,7,.36,15.06-1.6,20.86,1.17,6.13,2.93,11,8.12,18.64,6.64,1.14-.22,2.8.46,3.47-.13A35.82,35.82,0,0,0,495.82,627.1Zm17.92-382c16.72,0,33.47-.55,50.16.25,7.25.35,10.5-3.88,14.87-7.74,2.49-2.21,3.48-4.59,1.16-5-13.67-2.29-28-5.26-40.62,1.94-5.85,3.34-11,3.22-16.6,3.27-21.5.21-43,0-64.51.14a54.35,54.35,0,0,0-10.21,1.3c-.85.16-1.78,1.48-2.09,2.45-.5,1.58,11.06,9.36,12.56,8.37,2.8-1.86,4.12-5.28,8.7-5.16C482.67,245.34,498.21,245.08,513.74,245.08Zm498.56,406.7c-1.77-2.18-3.71-4.92-6-7.31-7.56-7.85-9.23-7.05-17.31-.32-6.78,5.64-5.35,12.3-5.6,19.11,9.57,7.87,6.89,18.77,7.16,28.94.06,2.36-.89,5.32.19,7,2.52,3.83,5.38,8.37,9.24,10.13,5,2.28,6.28-4.72,9.87-6.74,2.8-1.58,2.38-3.06-.55-5-7.41-5-4-12.8-4.23-19.42s-2.45-14.21,5.16-19.19C1011.59,658,1011.48,654.82,1012.3,651.78ZM642.8,876c-14.2,0-28.41-.26-42.58.38-1.46.07-3.33,5.36-3.77,8.4-.23,1.66,2.13,5.3,3.36,5.32,22.48.32,45,0,67.45.37,5.83.08,7.89-4.32,11.2-7.27,1.27-1.14,1.92-3.21,2.3-5,.12-.54-1.58-2.12-2.46-2.14C666.47,876,654.64,876,642.8,876ZM646,237.91c11.8,0,23.75,1.1,35.36-.4,7.25-.95,14-5.79,20.93-9,.42-.19.63-1.78.31-2.37-.54-1-1.51-2.29-2.45-2.44a47.43,47.43,0,0,0-7.06-.11c-9.44,0-19.32,1.74-28.22-.46-10-2.48-12.19,10.27-22,8.06-9-2-18.8-.58-28.23-.23-1.05,0-2.23,2.82-2.84,4.52-.17.48,1.51,2.33,2.35,2.34C624.74,238,635.37,237.91,646,237.91ZM605,918.43c-9.27.77-15,1.14-20.66,1.82a3.37,3.37,0,0,0-2.32,2.38c0,.83,1.52,2.42,2.3,2.37,7.49-.44,11.51,7.58,17.71,8,11.48.85,23.11-.34,34.68-.86.86,0,1.66-1.55,2.49-2.38-.83-.83-1.52-2.12-2.51-2.41C625.11,924,614.93,914.53,605,918.43ZM692.2,273.76c6.08,0,9.67.39,13.13-.11,3.65-.53,5.78-2.54,5.76-7s-2-6.93-5.64-7.05a129.12,129.12,0,0,0-20.69,1.18c-1.07.14-2.33,3.75-2.34,5.76s.92,5.2,2.34,5.82C687.76,273.66,691.35,273.63,692.2,273.76Zm-74.49,304.5c0,9.46-.15,18.93.2,28.38,0,1.06,2.82,2.26,4.51,2.87.47.17,2.34-1.51,2.35-2.35.14-16.56.19-33.13-.09-49.68,0-1-2.82-2.25-4.52-2.87-.47-.17-2.32,1.5-2.34,2.36C617.62,564.06,617.71,571.16,617.71,578.26Zm7.35,498.53c7.06.93,13.43-.63,17.71-7.2a14.05,14.05,0,0,0,2.1-4.95c.11-.56-1.55-2.08-2.42-2.1a209.26,209.26,0,0,0-21,.15c-1.38.1-3.07,3.14-3.67,5.12C616.38,1072.47,619.8,1076.6,625.06,1076.79Zm3.28-767.06c-.83.82-2.35,1.64-2.37,2.48-.14,7.86-.22,15.75.28,23.59.06.95,3.65,1.94,5.72,2.43,4.27,1,7.68-2.2,6.93-5.2-1.82-7.24-5.24-14.1-8.15-21C630.36,311.06,629.16,310.47,628.34,309.73Zm-53.75-32.49c-.82-.82-1.62-2.32-2.47-2.35a115.69,115.69,0,0,0-16.45.26c-1,.12-2.29,3.68-2.32,5.67s.79,4.76,2.24,5.85C559.76,289.82,574.12,282.46,574.59,277.24Zm54-10.65a13.84,13.84,0,0,0-3.47.05c-2.06.56-4,1.42-6,2.15.72,1.64,1.11,3.56,2.22,4.86,2.25,2.6,4.6,5.36,7.48,7.09,1.71,1,5.63,1.13,6.61,0A16.84,16.84,0,0,0,639,272c.18-1.65-1.82-4.35-3.51-5.16C633.58,265.89,630.92,266.59,628.61,266.59ZM549.77,962.07a46.37,46.37,0,0,0,7-.12c.92-.14,2.5-1.8,2.33-2.31-.53-1.69-1.59-4.41-2.69-4.53a86.73,86.73,0,0,0-14-.1c-.86,0-2.49,1.8-2.33,2.31.54,1.69,1.41,4,2.75,4.54C544.9,962.63,547.44,962.07,549.77,962.07ZM997.71,623.25c0-2.34.47-4.8-.14-7-.55-2-2.25-3.71-3.44-5.55-1.2,1.84-3.1,3.56-3.43,5.54a32.08,32.08,0,0,0,0,10.44c.33,2,2.23,3.69,3.43,5.53a49.54,49.54,0,0,0,3.5-5.54C998.09,625.76,997.71,624.41,997.71,623.25Zm-201.89,365c-.06-.82.19-1.86-.23-2.41-2.67-3.6-9.79-3.49-11.78.16a2.72,2.72,0,0,0,.16,2.39C786.65,992,793.71,991.89,795.82,988.3Zm-281-443.12,2.55-2.55a22,22,0,0,0-4.81-2.24c-.59-.13-1.56,1.44-2.36,2.24ZM695.54,880.65,693,876c-.8.79-2.37,1.76-2.24,2.35A22.08,22.08,0,0,0,693,883.2Z"/></svg>