<svg id="Layer_1" data-name="Layer 1" xmlns="http://www.w3.org/2000/svg" viewBox="0 0 1200 1200"><title>BB_Artboard 80</title><path d="M230.25,810.33c54.39,128.53,53.65,121.18,54.63,114.06.77-5.7-4.73-7.94-5-12.54-.25-4,.77-8.3-.33-12-.8-2.72-4.2-6.75-6.29-6.67-9,.37-7.42-8.48-11.47-12.27-2.29-2.15,1.18-3.18,3.42-3.25,4.16-.15,5.84-1.31,2.37-5.11-.72-.78-1.32-2.92-.95-3.25,2.57-2.25,5.07-5.24,3.3-8.15-1.92-3.13-5.31-6.55-8.65-7.34-4.54-1.07-8.79-.73-12.88-4.51-2.2-2-7.65-.5-11.64-.68-5.4-.23-8.42-6.56-15-5.07-5.37,1.22-11.23.25-16.87.25-8.54-9.48-19.52-3.24-29.33-4.49-.49-.06-1.33,1-1.62,1.66a1.79,1.79,0,0,0,.75,1.62c9.92,3.51,18.71,9.32,28.19,13.7,2,.93,4.49,2.3,6.37,1.86,8.64-2,14.62,3.93,21.37,7,2.84,1.3,5.21,3.41,8.51,2.78,4.91-.93,6.87,3,9.9,5.41,1.91,1.51,2.23,2.37.14,3.48-.65.35-1.55,1-2.05.76a121,121,0,0,0-19.21-6.32c-2.52-.55-4.65-3.56-8.25-3.38-6.43.33-12.89.09-19.33.09-4.36-6.71-11.21-4.32-17.33-5-2-.23-3.78-2.45-5.84-3.29-7.63-3.13-14.69-7.65-22.2-10.59-4.87-1.91-4.82-4.28-6.28-7.85s-6.4-5.37-7.94-8.81a15.93,15.93,0,0,1-.08-11.14c1.34-3.53,5.85-1.88,8.72-1.52,5.16.64,8.63,6.08,15,4.87,5.45-1,11.51.86,16.82-.47,7.29-1.84,11.45,4.3,17.42,5,5.49.65,11.07.55,16.62.79,5,7.8,14.5.75,19.39,5.38,6.57,6.22,13.75,2,20.4,3.66,2.12.52,4,2.08,6,2.88s4.89,2.39,6.36,1.64c2.72-1.39,6.26-4,6.69-6.52.87-5.23-.1-10.76-.31-16.17-7.46-3.35-1.28-11.67-6.42-16.91-3.65-3.73-5.83-10.14-7.7-16a34.76,34.76,0,0,0-5-9.87c-3.84-4.94-7.32-10.56-8.26-15.92-1.52-8.66-10.48-5-13.7-10.91-3-5.42-8.75-9.33-13.39-13.81-.42-.4-1.68.2-2.34-.12-5.49-2.61-10.65-5.1-17.21-5.58-4.62-.33-6.31-8.35-13-9.14-6.28-.73-1.53-3.52-.16-5.76,2.79-4.55,1.26-8.37-3.12-8.48-2.41-.06-4.83,0-7.25,0-15.73-.14-15.35-.72-31.58-11.45a141.62,141.62,0,0,0-26-13.08c-4-1.57-9.33-3.12-11.71-6.21C101.87,671,93,670.58,88.07,664.26c-2-2.55-2.3-5.69,0-8.31,5.35-6.17,6.07-6.9,13.24-2.41,5.33,3.32,13.6-1.72,16.7,6.49,5.36.86,11.66-2.48,16,2,4.94,5,10.57,2,15.82,2.85s11.46-2.36,15.34,3.85l16.21,1.71c1.49,4.63,5.11,4.42,9,4.18,4-.24,8.08.25,12.08-.15,3.11-.3,4.22,2,5.79,3.57,1.4,1.44,2.87,1.56,3.34-.67.66-3.05,1.79-7.55.28-9.23-4.15-4.59-5.29-9.43-4.57-15.16-5.69-3.65-6-9.54-4.64-14.87,2.37-9.29-7.35-15.25-5.36-24.71,1.62-7.72-.13-16.09.48-24.1.47-6.11-7.13-8.51-5.74-14.62C185.22,570,188.6,563,188.08,557c-.09-1,1.88-3.25,2.74-3.17,6,.55,12.78-2.78,18,3.46,1.11,1.32,4.36,1,6.65,1.18,4.66.35,6.65-.93,6.26-4.69-.79-7.54,3.39-16.22-4.75-22.19.08-8-.64-16.18.61-24,.5-3.08,6.75-6.31,3.45-9.77-3.92-4.1-4.11-8.2-4.08-13,.07-8.86.29-17.74-.07-26.59-.24-6,2.32-12.63-3.91-17.86-1.67-1.4-.8-6-.81-9.15q-.06-58,0-116.06c0-3.21-.25-6.35,2.83-8.52,3.47-2.46.23-3.95-1.14-5-2.45-1.93-2.39-5.75-1.5-6.4,5.55-4,4.73-9.6,4.7-15.15,0-6.41.15-12.82.24-19.23,7-4.38,4.17-11.4,4.49-17.45.34-6.43.08-12.89.08-19.34,6.47-7.24,4.39-16.13,5-24.59.25-3.7,6.39-5.46,4.62-10.06-2.52-6.55,7.23-9,4.84-14.92-2.66-6.64,7.74-8.54,5-14.95,5.84-2.55,5.2-9.25,8-13.71s6.74-8.63,8.72-13.21c4.61-10.67,13.54-17.14,20.88-25.19,1.08-1.19,2.38-3.36,3.39-3.26,7.89.79,9.57-8.63,15.39-9.49,4.48-.66,6.36-4.75,10-5.09a117.82,117.82,0,0,1,16.91,0c1.3.06,2.56,1.53,3.78,2.43,3.66,2.7,5.55,7.3,11.54,7.59,2.69.13,5.28,5.2,7.61,8.26.83,1.1.27,3.34,1.16,4.29,5,5.28,9.39,11.93,15.55,15,5.2,2.56,12.51.93,18.88,1,7.25.09,14.54.47,21.75-.1,7.55-.6,16,3.19,22.47-4.31,1.07-1.22,4.59-.37,7-.39,5.64,0,11.29,0,16.93,0,6.44,0,14,2.11,19-.58,5.17-2.79,9.58-4.55,15.24-4.31s11.29,0,16.93.06c4.81,0,6.77-6.45,12.54-5,3.8.94,8,.18,12,.18,4.84,0,9.7.31,14.5-.09,4.52-.37,6.89-6,12.55-4.94,4.49.85,9.24,1,13-3.67,1.59-2,4.58,6.66,8.35,1,2.23-3.39,5.85-1.7,8.85-1.86,4.83-.24,9.88-.94,14.46.15,6.46,1.53,9.68-4.61,15-5,4.82-.34,9.67-.07,14.51-.07s9.67.13,14.5-.08a6,6,0,0,0,4-1.79A32.31,32.31,0,0,1,661.81,87c-.78-7.88,6.91-10,10.24-15.11,4-6.15,9.7-7.25,16.6-6.81s14.36,1.78,19.75-4.7c7.26,0,14.55-.49,21.75.12,10.7.9,22.32-4,31.86,4.72h36.27c7.9-7.77,17.85-4.3,27-4.72,5.58-.26,8.42-6.7,15-5.2,5.36,1.22,11.22.25,16.87.25,7.71-8.8,18.16-2.66,27-5,5.79-1.56,10.52-6.39,17.42-4.74,5.67,1.36,10.07-2.19,15.11-4.21,6-2.42,14,1,19.75-5.17.55-.6,4.23,1.09,6,2.39,2.54,1.93,4.53,4.58,6.94,6.71,1.89,1.67,6.72,0,7.41-3s.35-5.58,4.86-6.56c5-1.07,9.51-4.18,14.16-6.53,8.43-4.27,11-4.17,16.51,1.11,2.91,2.78,5.5,5.95,8.65,8.42a10,10,0,0,0,6.33,2c6.75-.48,11.4,4.24,16.44,7,5.42,3,9.32,8.77,13.87,13.34.55.55,1.54,1.25,1.46,1.76-1.18,8,7.49,9.56,9.84,15.31,2.53,6.22,4.36,12.68,9,18.14,2.7,3.19-1.44,9.43,3.62,12.94,4.69,3.25-.91,9.56,3.47,13s4.34,9.5,7.61,13.91c2.29,3.08-.84,9.36,4.26,12.71.89.58.92,2.84.94,4.33.1,6.45-1.92,13.82.57,19.1,2.78,5.89,4.55,11.21,4.46,17.59a8.36,8.36,0,0,0,2.76,6c5.65,4.32,7.41,9.55,7,16.64-.41,6.77-2.75,14.57,4.62,19.74.85,6-2.68,12.87,3.61,17.91.94.76.92,2.8,1.21,4.27,1.33,6.7-3.16,14.56,4,20.11q.42,9.5.85,19c9.61,12,2.91,26.1,4.74,39.11.5,3.58-6.64,17.4-9.61,20.15-3.71,3.43-10.86,3.05-14.85-.29-3.25-2.71-4.29-6.13-5.36-9.95-.32-1.12-4.51-2.29-6.1-1.58s-3.07,5-2.48,5.63c5.07,5.06,4.78,11.22,4.68,17.53-.14,8.87,0,17.74,0,26.6,8.85,9.52,3,21.27,4.91,31.84,1.59,9-4.58,19.4,4.76,27,0,8,.09,16.1-.23,24.14,0,1.18-2.87,2.14-3.12,3.45-.73,3.72-2.5,9.2-.76,11,3.88,4.06,4.16,8.16,4.15,13-.07,28.21-.64,56.44.38,84.61.27,7.19-5.53,11.28-5.08,17.35.5,6.64-2,11.8-4.68,17.5-1.52,3.17-2.68,4.17-5.81,5.6-8.55,3.91-12.6,10.94-8.45,16.45,3.89,5.17,4.24,9.84,4.26,15.31,0,7.25-.33,14.53.08,21.76.53,9.15-3.09,19.13,4.76,27,0,4.84-.3,9.7.07,14.5.48,6-2.4,12.64,3.84,17.9,1.68,1.41.88,6,.89,9.12.07,16.12-.27,32.25.18,48.36.19,6.75-2.95,14.49,4.18,20,.84.65.49,3,.49,4.54,0,20.15-.14,40.3.13,60.45.07,5.11-6.26,6.76-5.17,12.55,1,5.44.22,11.24.22,16.88,0,4.83.26,9.69-.07,14.5-.35,5.31-6.45,8.5-5,15,1,4.39-6.1,6.77-4.76,12.49.9,3.82.23,8,.15,12.05s-.29,7.93-.45,11.9c-8,3.66-.66,14.51-8.55,18.22-.45,8.11-7.43,11.6-12,16.77-4.41,5-5.36,12.77.73,16.11,9,5,2,16.1,10,20.36a80.61,80.61,0,0,1-5.75,6.73c-.35.34-2.56-.5-3.23-1.33-2.06-2.56-3.71-1.75-5.17.34-1.31,1.87-2.24,2.19-3.47.86-1.64-1.78-5-3.56-4.85-5.13.67-9.15-11.71-10.82-10.94-19.86.07-.82-2.12-2.59-3.31-2.64-6.44-.27-12.89-.13-19.34-.13H980c-5.39-6.49-13.33-3.15-19.6-5.29-5-1.71-9.24-4.72-15.08-4.73-2.34,0-6.58-3.9-6.65-6.12-.21-7.33-6-7.83-10.35-9.86-6.42-3-12.24-6.58-16.76-12.06-3.19-3.87-6.7-6.15-12.27-5.66-4.9.43-9.35.31-12.58,4.94-2.29,3.31-5.37,6.24-10,4.88-6.21-1.82-8.3,7-15,5.15-4.37-1.22-9.45,0-14.2.36-.6,0-1.44,1-1.61,1.66-.11.43.89,1.65,1.27,1.6,6.63-.81,9.77,8,17,5.88,5-1.48,7,6.65,12.48,4.74,4.65,7.9,14,9.3,20.5,14.92,8.47,7.37,13.55,15.28,11.39,26.87-1,5.22,1.84,7.24,6.86,6.57,3.71,5.46,9.29,5.23,14.9,4.9,3.59,5.94,9.57,5.52,14.91,4.58,5.66-1,7.29,5.73,12.55,5.14,4.78-.53,9.81-.85,14.45.11,4.27.87,7.23,5.31,12.13,5.84.65.07,1.8,4.49,1.07,6.17-1.17,2.68-4.77,3.94-4.5,7.86.19,2.63-1.52,4.17-4.47,4.12-5.64-.1-11.42.75-16.89-.23-6.95-1.25-11.64,3.37-17.44,4.76-5.33,1.29-11.22.27-16.86.27H908.31a28.8,28.8,0,0,1-4.83,0c-5.2-.89-8.59,2.1-12.72,4.54-3,1.76-7.91-.07-11.86.51-2,.3-4.25,2-5.61,3.71-6,7.5-14.12,11.76-22.66,15.49a28.35,28.35,0,0,0-5.86,3.31c-1.9,1.47-3.31,3.57-5.23,5a6.86,6.86,0,0,1-4.25,1.26c-11.31-.81-18.24,11.63-29.85,9.75-7.25-1.17-11.89,8.45-19.76,4.83-3.86,5-9.32,6-14.89,4.71-6.93-1.58-11.67,3-17.42,4.79-5,1.56-11.09-1.88-15.55,3.66-1.08,1.34-4.32,1.25-6.58,1.29q-10.87.23-21.75,0c-6.31-.12-12.63-.56-17.35,4.87-7.51-1.21-16.1,3.29-22.43-4.22-5.55-.21-11.11-.52-16.67-.59-7.25-.11-14.5,0-21.76,0-5.4-6.46-12.83-4.62-19.75-4.84-4.74-7.36-15.44-2.3-20.18-9.67-6.58,1.28-10-8.66-17.34-4.83-5.54-4-13.17-4.74-17.22-10.85-3.43-5.17-8.73-2.5-12.95-3.91-3.41-1.14-5.39-5.94-10.17-4.6-2.93-4.83-7.5-5-12.51-4.89-8.86.25-17.73.07-26.59.07-4.84,0-9.72.43-14.5-.11-6.6-.75-9.71,7.69-17.46,5.3-5.89-1.81-12.85-.9-19.21-.14-3.5.41-6.61,3.55-10.15,4.47-3.73,1-8.12-.11-11.57,1.31-2.67,1.11-4.54,3.57-8.13,3.85-6.76.53-14.69-3.32-19.87,4.43-6.68,1.19-14.44-2.45-19.88,4.9-.86,1.16-4.83.79-7,0-6.42-2.2-9.54,4.77-15,4.94-5.59.18-11.18.25-16.78.37-5.26,9.39-17.41-.18-23.25,8.41-.85,1.25-4.42.86-6.74.87q-19.33.11-38.68,0c-5.21,0-6.3-1.51-5.93-7.57.33-5.27,5.21-11.55,9.42-11.71,4.83-.2,9.94.93,14.44-.29,5.79-1.57,10.48-6.06,17.44-4.79,5.46,1,11.3.68,16.88.05,5.16-.57,8.62-6.24,15-4.88,4.63,1,9.67.56,14.46.08,4.47-.45,6.93-6.07,12.55-4.88,3.85.81,9.28,1.8,11.83-.14,10.12-7.7,21.43-4.51,32.06-4.16,8.28.27,13.68-7.78,22.28-5.59,1.69.43,5.07-3.59,6.74-6.16a7.2,7.2,0,0,0,0-6.34c-3.48-5.65-11.57-9.22-16.09-5.66-4.29,3.38-8.17,4-13,4.09-5.34.13-11.42-2-15.2,4.1-6.11.5-12.63,2.76-17.83-2.18-2.85-2.7-5.9-1.54-8.9-2-4.43-.69-7.37-8.62-4.72-12.69.43-.66,1.35-1.75,1.65-1.63,8.55,3.3,13.82-6.75,22.21-5.21,5.42,1,11.19.06,16.8,0,3.39-6.17,9.7-3.85,14.78-5.22,2.28-.61,2-1.86.5-3.38-5.51-5.72-12.42-9.86-19.87-10.08-5.55-.17-7.66-5.38-12.49-5.29-3.93.06-7.8.66-10.87-3.24-1.08-1.38-4.47-1.94-6.43-1.44-6.25,1.59-8.34-7.15-15-5.25a12.55,12.55,0,0,1-13.11-3.39c-2.07-2.11-7.5-1.17-11.41-1.12-5.07.07-10.08,4.5-10.73,10.23-.45,4-.11,7.9-4,10.5-1.89,1.27-2.78,4-5.87,3.44-1.56-.31-9.12-5.44-9.2-6.91-.25-4.78-.18-9.57-.48-14.34-.25-3.86.32-8.49-1.61-11.32-1.82-2.66-6.51-3-9.85-5-5.63-3.41-12.45-5.28-17.87-9.1-5.19-3.66-13.58,1.6-16.67-6.59-5.7.64-11.07.26-14.92-4.84-5.83,1-10.35-1.31-15.05-4.65-3.52-2.52-8.59-5.33-12.29-4.6-6.7,1.33-9.06-6.66-15-5.25-3.16-5-9.91-3.74-13.72-7.94-1.26-1.39-4.23-1.3-6.45-1.72-8.89-1.66-12-5.47-12-14.1,0-2.8,1.18-5.32,3.46-5.08,7.56.8,15.84-3.33,22.71,3.73,1.65,1.68,6.06.53,9.15,1,6.76,1,14.23-2.58,20.2,4.16,1.46,1.65,6.07.62,9.24.62,14.51.05,29,.26,43.52-.11,4.59-.12,7.51,1.66,10.14,4.84,2.46-2.92,6.74-5.67,7-8.8.94-9.58.34-19.31-54.05-164.77C171,674.54,166.2,674.54,161.37,674.54c-3.46,6-9.41,4.59-14.77,5.25-.87.11-1.91,2.4-2.07,3.77s.57,4.06,1.13,4.12c6.87.72,11.34,7.78,19.25,6.46,5.14-.86,8.46-.49,9.07-7.53.35-4.13,6.85-1.88,10.6-2.4,4.59,5.84,11.09,4.76,17.3,4.9,1.44,0,3.53.36,4.18,1.32,4.27,6.32,6,.24,8.63-1.58.65-.45,1.72-1.47,1.63-1.63-.67-1.09-1.49-2.72-2.47-2.88a84.67,84.67,0,0,0-9.44-.58c-4-10.32-17.78,2.32-21.6-9.13C182.57,673.91,178.27,674.54,230.25,810.33ZM331.62,868c-1.6,0-3.71-.65-4.72.12a35.93,35.93,0,0,0-8.17,8c-.75,1.11,1.09,4.12,2,6.13.62,1.36,1.88,2.42,2.55,3.77,1,2,2.28,5.93,2.42,5.89,5.72-1.87,7.5,5.78,12.52,5.09,3-.41,6.37,1.23,8.87-1.92.93-1.18,2.54-2.93,3.55-2.76,9.64,1.67,16.91-8.91,27-5.13.85.31,3-1.19,3.64-2.35,1.19-2.19-1.15-1.76-2.07-2.59-3.29-3-8.26-5.17-7.76-11.2.07-.87-3.37-2.7-5.31-2.9-2.95-.32-6.22-1-8.75,2-3.64,4.36-9.9,4.29-12.66,1.61-4.23-4.12-8.46-3.54,39.47,6.31a17.73,17.73,0,0,0-2.75,2.33,1.45,1.45,0,0,0,2.05,2,9.91,9.91,0,0,0,2.19-2.85C385.76,879.39,384.73,878.6,331.62,868Zm344.72,33.85a21.17,21.17,0,0,1,4.08,1.72c6.12,4.23,6.89,4.24,11.62-.49,5.08-5.09,4.61-6.4.67-11.69-5.8-7.79-16.42-8.81-22.07-16.72-1-1.4-5.18-.56-6.14-2-3.8-5.58-11.63-4.23-15.36-9.54-6.42.83-9.94-8.37-17.26-5-.76.35-2.67-1.19-3.74-2.18-2.93-2.72-5.64-5.67-8.52-8.44-6-5.7-12.06-5.27-18.14.91-2,2-1.9,3-.12,5.25s1.76,6,3.68,7.91,5.34,2.32,8,3.56c5.37,2.49,10.51,5.58,16.07,7.51,5.77,2,3,6.37,3.69,9.81-5.12.87-8.92-1.05-12.62-4.69-2.09-2.06-6.8.94-6.7,4,.12,3.82.24,7.2,2.56,11.06a97.67,97.67,0,0,0,10.42,15c4.81,5.44,11.06,8.22,17,11.69,1.81,1.06,5.24,2.09,6.3,1.2,3.11-2.63,5.84-5.61,10.3-4.38,5.51,1.52,7.27-5,12.47-5.16C678.66,911.06,675.62,905.26,676.34,901.82ZM516.44,886.5c7.68,14.64,20.33,15.81,26.77,24.74.29.41,1.46.21,2.21.25s1.85.32,2.3-.06c.93-.79,2.35-2.63,2.15-2.88-5.71-7.08-6.89-20-21-16.57-.81.2-2.19-2-3.32-3.12-.55-.53-1.11-1.43-1.72-1.48-2.34-.17-4.71-.07-7.07-.07.54,1.35,1.08,2.7-9.66,0,2.42,0,4.88-.31,7.23.09s3.31-.11,2.39-2.48c-.27-.69-1.07-1.18-1.67-1.73-2.83-2.58-4.87-6.44-9.78-5.59-3.23.56-5.75-.66-8.55-2.75-4.2-3.13-10-3.75-13.31-8.67-3.12-4.61-10.38-3-13.41-8.52-1.49-2.69-4.1-4.3-7.83-4.35-4.5-.06-9.23,1.66-13.51-2.39-3.78-3.59-10.08-3.6-13.3-8.64-3.07-4.82-10.42-3-13.47-8.16-11.66,1.58-19.49-7.42-29.28-11-11.45-4.15-11.07-5.14-23.2,1-1.28.65-3.68-.44-4.62.37-4.23,3.67-8.16,7.69-12.11,11.67s-10.4,3.15-13.51,8.44c-.95,1.63-1.43,3.41.61,3.3,6.56-.36,11.53,3.3,17.23,5.22,7.08,2.38,16.13-3.18,22.05,5.11,4.83,0,9.91,1,14.43-.23,6.57-1.72,8.25,6.91,15,5.46,4.89-1,11.65-3.15,15.83,1.78,4.61,5.45,13.35-.92,16.64,6.69,10.12-.35,18.35,8.76,29.08,5.73,2.24-.63,4.86.24,7.21-.15,6.25-1,10.58,1.71,14.38,6.29,1.41,1.71,2.68,3.91,5.78,3.53S503.88,887.31,516.44,886.5Zm440.4-531c-8.1-1.89-10.14-11.53-17.91-13.81-3,5.22-.78,10.9-1.48,16.31-.74,5.78,1.39,10.2,4.44,15.18,2.16,3.51.33,9.41.45,14.25.11,4.62-.32,8.83,3.44,13.24,2.46,2.88,1.55,9.09,1.25,13.76-.51,8,6.94,13.61,5.29,22.24-1.08,5.68-2.9,13,4.12,17.43-4.72,3.63-2.78,6.21-.06,10.61,2.16,3.5.44,9.4.44,14.24,0,5.64-.14,11.28,0,16.92.16,4.65,6,6.81,5,12.54-1,5.46.77,11.47-.47,16.83-1.52,6.57,5,9.33,5.23,15,.49,10.73-3.13,22.17,4.7,31.85,0,6.44-.23,12.9.13,19.33.11,2,1.5,4.11,2.88,5.67s5.32-1.07,6.64-4.27c2.29-5.59,5.54-10.38,5.17-17.35-.95-17.68-.14-35.44-.41-53.17-.1-6.83,2.7-14.6-4.74-19.75-.85-6,2.69-12.94-3.65-17.83-.4-6.29-1-12.56-1.14-18.85q-.29-14.5,0-29c.09-4.16-.12-7.93-4-10.46.57-7.2-4.24-12.81-5.69-19.39-.88-4,.68-6,5.33-8.12,1.36-.62,3.76-1.33,3.8-2.09.38-8,1.82-16.34.12-23.95-2-8.89,6.59-13.89,5.47-22.29a104.69,104.69,0,0,1,0-26.53c.86-7-2.26-12-5.19-17.32-3.29-5.91-4.57-13-10.38-17.51a6,6,0,0,0-8.27.34c-2.76,2.7-5.79,4.91-5.59,9.83.48,11.26.08,22.55.22,33.83,0,2.23.12,5.32,1.49,6.52C958.76,344.29,956.11,350.11,956.84,355.53Zm-556,640.68c4,4,7.3,9.57,12.11,11.53,6.09,2.48,14.21-2,19.75,5.14.9,1.17,4.62.15,7,.17l21.66.18c2.35,4.9,8.25,3.72,11.66,6.83-2.59,4.48-6.92,2.5-10.49,2.57-12.07.23-24.15,0-36.22.19-2.1,0-5.73,1.18-6,2.37-1.11,5.29-2.94,1.83-4.37.62-3-2.54-5.61-5.73-8.94-7.69-1.23-.72-4.36.89-6,2.2-.81.63-.93,3.65-.16,4.5A208.79,208.79,0,0,0,416,1040.28c5.3,4.77,5.53,12.51,11.7,17.1,7.53,5.59,13.14,15.37,23.66,4.46,1.2-1.24,4.6-.41,7-.42,7.25,0,14.49.09,21.73-.08,2.24,0,5.29-.1,6.53-1.46,5.33-5.89,12.07-2.17,18-3.31,4.31-6.82,11.17-4.46,17.31-4.89,3-.21,6.38,1.3,8.9-1.86a64.9,64.9,0,0,1,5.08-5.15c-1.92-.87-3.78-2.2-5.79-2.51-3.86-.6-7.82-.63-11.73-.89-3.18-6.75-11.07-1.52-14.6-5.29-5.51-5.9-12-2.42-17.89-3.83-1.36-.32-2.45-3.5-2.81-5.52-.2-1.11,1.45-3.68,2.14-3.64,3.8.23,8-2,11.39,1.34,1.14,1.1,2.28,3,3.5,3.08,5.62.33,11.33-.41,16.88.3,5.12.67,8.64,5.81,15,5,5-.67,11.38-2.63,15.39,3.5a5.83,5.83,0,0,0,3.22-1.44c3.17-3.8,7.55-2.76,11.11-2.13,5.62,1,8.08-4.53,12.54-4.93,5.59-.49,11.55-1.23,16.82.16,6.74,1.79,8.57-6.83,15-5.31,5.37,1.27,11.2,1,14.85-4.64,5.72.71,11,.11,14.9-4.84,6.45.82,9.92-8,17.45-5.19,1.48.56,4.73-3.48,7.11-5.46.51-.43,1.24-1.26,1.11-1.66-.22-.68-1-1.59-1.62-1.67-5.38-.68-10.79-1.2-16.19-1.76-5.62-8.47-17.84,1.47-23.32-8.3-.58-1-4.58-.13-7-.13H598.87c-5.64,0-11.44.83-16.86-.23-5.81-1.13-7.46,5.25-12.54,5.16-15.28-.27-30.58,0-45.87-.19-2.15,0-5.3-.6-6.21-2-1.84-2.92-.42-5.89,2.34-8.15,1.85-1.53,3.86-3.14,5-5.16a11.93,11.93,0,0,0,1.33-6.45c-.05-.84-2.38-2.17-3.69-2.19-12.87-.16-25.75-.13-38.63,0-1.46,0-3.63.2-4.26,1.13-5.74,8.47-18.09-1.47-23.15,8.45-4.82,0-10,1.09-14.39-.2-6.72-2-8.27,7.34-15.06,5.37-4.09-1.18-8.62-.52-13.24,2.89C409.57,990.23,404.09,991.65,400.79,996.21Zm258.63-515.1H626.18c-9.5,8.88-21.16,3.62-31.82,4.7-7.17.72-14.48.13-21.72.13-8.51,9.46-19.61,3.2-29.42,4.74-3.92.61-8,.2-12.05.07-4.78-.15-4.77,3.12-4.71,6.38s.37,6.45-2.81,8.49c-2,1.25-2.28,2.31-.7,3.43,2.86,2,2.72,5.29,3.85,8.07,1.37,3.34,5.36,5.58,4.76,10.15-.06.49,1,1.46,1.64,1.63,1.49.38,3.09.3,4.6.61a4.2,4.2,0,0,1,1.91,1.18c3.45,3.38,6.78,6.88,10.28,10.21,3.89,3.7,7.25,7.49,13.24,9,4,1,7.09,6.25,10.31,9.83a10.9,10.9,0,0,0,8.2,3.74c6.84.43,12.67-.47,16.61-6.77,2.65-4.23,4.33-1,6.94.49s6,1.17,9.1,1.23c7.24.15,14.49.05,21.74.05s14.59.75,21.71-.21c7.57-1,13.19,4.22,19.78,4.71s14.49,3.14,20.07-3.85c.07-.08,2.09,1.56,3.29,2.2,4.59,2.44,5,2.93,8.11.38,2.64-2.18,4.9-3.39,8.39-3.32,11.27.24,22.54.09,33.81.09,8.47-9.66,19.58-4.06,29.41-4.58,16.86-.91,33.8-.25,50.7-.27a50.07,50.07,0,0,0,7.15-.26c2.77-.39,8.64-10,6.91-11.34-6.38-4.8-4.86-11.36-4.61-17.5.46-11.23.1-17.77-2.47-24-.57-1.37-2.19-2.48-2.35-3.83-.57-4.67,1-10.87-1.42-13.75-3.73-4.4-3.41-8.58-3.5-13.21-.1-4.83,0-9.66,0-14.5a75.52,75.52,0,0,0-.14-9.64,4.46,4.46,0,0,0-3-3c-4-.37-8.12.35-12-.32-2.61-.45-5.87-4.3-7.2-3.58-3.4,1.82-5.88,5.35-8.72,8.2-7.63-2.4-12.55,5.33-19.58,5.24-4.83-.07-9.66,0-14.49,0-6.84,0-6.91-.1-17.29,4.88-5.54,2.66-10.59,6.55-17.36,4.84a17.57,17.57,0,0,0-4.81-.05c-8,.35-15.16,10-11.25,16.77a281.55,281.55,0,0,1,14.39,27.89,19.5,19.5,0,0,0,5.92,7.14c3.77,2.9,3.53,6.62,3.79,10.63.13,2,1.87,4,3,5.95.39.67,1.65,1.23,1.58,1.71-.34,2.51-10,8.68-11.23,7.16-4.16-5-11.83-3.87-15.61-9.45-.52-.77-3.63.46-4.52-.35-4.77-4.32-8.47-11-14-13-6.44-2.36-10.45-6.56-14.84-10.81C675.67,497.56,667.8,489.49,659.42,481.11Zm69.13,280.47c-10.47,0-20.95.32-31.4-.1-8.22-.32-15.93-.37-21.13,7.55a5.81,5.81,0,0,1-3.86,2.13c-3.19.31-6.6-.53-9.61.26-3.54.92-6.63,4-10.15,4.46-5.52.79-11.24.21-16.88.21-3.67,5.53-9.29,5.1-14.87,5.07-.41,0-1.48,2.86-1.16,3.15,2.85,2.49,4.5,6.53,9.42,6.37,8.85-.29,17.72-.14,26.57,0,3.14,0,8-.8,9.11.8,5.94,8.77,18.06-1,23.33,8.33l26.36.51h2.42a6.14,6.14,0,0,1,2.39.05c1.93.89,4.49,1.55,5.44,3.13,1.52,2.54-.71,11.21-1.93,10.85-6.5-2-8.23,6.89-14.92,5.61-7-1.34-14.44-.3-21.69-.3s-14.5.26-21.73-.07-11.69,7.18-19.82,5.24c-6.86-1.63-14.42-.31-21.66-.34-2.89,0-4.15,1.48-4.49,4.21s.78,4.91,3.24,5.34c3.13.55,6.45,0,6.53,4.73,0,1.4.56,3.29,1.56,4.07,1.36,1.08,23,1.75,24.65,1.31,7.49-2,12.83.55,17.24,8.31,3.51,6.2,9.18,7.86,14,3.89,2.47-2,4.3-5,7-6.61,1.6-1,5.49-1.11,6.22-.09,3.53,4.9,8.87,2.55,12.91,4.19s7.75,3.94,12.53,5c5.51,1.19,10.92,4.53,16.08,7.64,6.51,3.92,14,.38,20.95,1.93,1.32.29,2.26,3.09,3.45,3.15,10.22.48,20.48,1,30.68.5,2.36-.12,5.11-3.94,6.52-6.67.76-1.47-.26-5-1.67-6.23-4.54-3.94-4.4-10.09-2.15-12.9,3.4-4.25,4.13-8.13,4.1-13q-.14-25.37,0-50.73c0-3.14-.87-7.75.8-9.15,6.23-5.22,3.72-11.79,3.92-17.83.38-12.17.32-12.1,9.44-30,5.5-10.79,5.25-10.86,16.62-17.25,2.69-1.52,7-4.89,6.6-6.2-1-3.12-3.82-7.07-6.72-7.9-6.47-1.88-11.89-6.93-19.69-5.4a51,51,0,0,1-19.23,0c-8-1.56-12.51,5.35-19.35,6.25-2.33.31-1.84,7.83.57,7.85,6.67.05,9.48,5.13,13.33,8.81,5.79,5.52,5.69,8.49-.63,13.24-2.3,1.73-5.45,2.32-8.16,3.55-.67.31-1.59,1.12-1.57,1.66a2.42,2.42,0,0,0,1.6,1.65c3.77.7,8.17.19,11.21,2,4,2.41,7.12,6.47,10.31,10.08.86,1,1.4,3.48.79,4.31-2.29,3.07-4.71,7.37-7.85,8.17-5.3,1.34-11.73-1.1-16.67.75-5.78,2.16-10.83,5-17.48,4.62C749.51,761.12,739,761.58,728.55,761.58Zm2,391.7c6.43,0,13-.61,19.29.16,7.44.91,11.83-7.52,19.79-5.16,7.8,2.31,10.48-5.69,15.41-9.2,1.09-.77,3.13-.48,4.67-.26,7.27,1,11.78-8.24,19.81-5.21,1,.38,3.5-4.36,5.14-4.25,6.56.45,9.75-7.91,17.47-5.55,3.26,1,7-5.27,12-5.45.56,0,1.28-2.58,1.48-4,.42-2.92-1.35-4.28-4-4.55-1.59-.16-3.22,0-4.82,0H728.07c-8.85,0-18-1.49-26.47.39-9.63,2.15-16-5.47-24.64-5.3-13.67.28-27.4-.59-41,.26-13.86.87-28.52-4.49-41.46,4.65-6.44,0-13,.87-19.27-.22-7.7-1.35-12.21,7.24-19.78,5.1-3-.84-4.73,1.31-4.64,3.78.07,2,1.34,5.28,2.69,5.63,11.1,2.87,19.93,10.2,30.13,14.76a143.61,143.61,0,0,1,16,8c6.1,3.69,12.5.43,18.65,1.63.77.15,2.09-.3,2.33.06,3.71,5.74,9.62,5.87,14.92,4.58,7.15-1.74,11.54,4.31,17.38,4.82a218.31,218.31,0,0,0,28.94.13c9.14-.41,19.1,3.12,27-4.74ZM333,573a35.21,35.21,0,0,1,4.82,0c3.06.41,4.75-1.36,4.75-3.84,0-6.31,1.42-13.74-1.4-18.59-2.68-4.61-3.14-8.59-3.31-13.2-.2-5.42,1.17-11.1-4.48-15.2-1.18-.86-.52-4.57-.32-6.93.4-4.9,5.57-9.42,11.12-10,5.88-.6,6.52.06,8.21,7.72a33.16,33.16,0,0,0,2,6.38c2.43,5.44,7.17,10.83,7.07,16.16-.14,6.9,7.78,10.26,5.57,17.38-.48,1.57,1.17,5,2.74,5.81,7.2,3.61,7.56,11.7,11,17.41s5.08,10.57,12.42,11.55c2.77.37,2.28,3.06.09,4.78-3.87,3-3.53,8.82-1.92,10.83,3.9,4.86,3.7,11.8,9.18,15.75,2.49,1.8,3.48,1.46,5.29-.34a12.72,12.72,0,0,1,3.88-2.19c5.13-2.31,7.35-5.55,4.75-7.58-4.16-3.25-3.07-8.72-6.62-11.91-3.78-3.4-3.16-6.91.51-9.87,1.81-1.46,2.35-2.56.59-3.43-4.9-2.44-2.41-8.67-6.66-11.89-4.44-3.36.42-10.19-4.88-15-3.89-3.54-.35-12.26-6.4-16.41,3.44-10.62-7.3-18.89-4.92-29.39a5.43,5.43,0,0,0-1-4.31c-4.35-4.51-5-10.95-8.56-15.81,2.27-6.88-6-10.72-5-17.24-3.19-2.62-5-5.55-4.84-10.14.22-5.26-5.35-19.11-8.87-22.75s-6.5-6.68-5.67-12.29c.27-1.82-1.81-4-2.76-6-3.53-7.43-6.53-15.14-11.55-21.77,3.62-7.85-4.66-12.57-5.2-19.69-.56-7.33-5.68-13.65-9.31-20.16-1-1.85-1.67-4.58-3.23-5.31a10.39,10.39,0,0,0-7.09-.09,47.07,47.07,0,0,0-12.11,5.61c-3.89,2.75-1.54,7.47-1.64,11.25-.31,12.18-.15,12.2,6.77,26.11.68,1.35,2.85,2.67,2.64,3.64-2.47,11.31,7.18,20.61,5,31.83-1.23,6.45,1.83,11.68,4.43,17.46,2.73,6.1-1.64,13.76,3,20.51,4.8,7,1.15,15.46,2.31,23.17a10.74,10.74,0,0,0,3.05,5.88c1.75,1.64,1.7,1.95.13,3.61-5.69,6-4.81,13.44-1.14,19.37,4.76,7.68,2,15.25,2.24,22.89-7.47,6.26-3.53,14.79-4.25,22.34-.23,2.4,1.62,4.27,4.7,3.85A35.21,35.21,0,0,1,333,573Zm686.69-316.14c0,7.24.61,14.54-.16,21.7-.81,7.43,2.94,13.25,4.76,19.8,1.25,4.48.07,9.6.35,14.41.07,1.32,1.41,3.62,2.24,3.66,2.16.09,5-.15,6.43-1.47,7.62-7,9.62-16.72,12.36-26.23.76-2.63,3.28-4.87,3.12-8.35-.29-6.43-.93-13,.14-19.27,1.21-7-2.33-12-5.15-17.29-2.91-5.51-6.26-10.67-4.82-17.37.31-1.43.29-3.86-.56-4.46-6.67-4.75-4.29-11.68-4-17.65.36-7.31-7.34-11.78-5.35-19.8,1.27-5.09-.4-10.9-.75-16.38-6.59-4.78-1-13.19-4.22-17.41-5-6.59-4-13.18-4.4-20.05-8.2-5.94-3.65-14.66-4.82-22.14-.12-.77.18-2.06-.19-2.28-6.06-3.5-2.63-10.84-5.43-14.58-4.72-6.27-6-13.8-9.94-20.12-5-7.95-15.27-10-21.37-.59-2.87,4.42-4.7,9.28-8.4,13.5-3.89,4.45-5.1,11.12-10.46,14.9a5.91,5.91,0,0,0-2.15,3.85c-.31,3.19.52,6.59-.26,9.6-.92,3.54-3.42,6.64-4.55,10.15-.7,2.19-.4,4.84,0,7.17.15.83,2.86,2,2.9,1.93,4.76-6.67,11.73-3.63,17.75-3.87,8-.31,13,4.91,13,12.8.07,7.24.73,14.57-.18,21.7-1,7.53,3,13.26,4.89,19.78.59,2,.45,5.47-.84,6.69-3.27,3.06-4.1,6.37-3.93,10.58.27,6.42.3,12.88,0,19.3-.23,4.92,3.88,6.56,6.37,9.41.28.32,3.16-.78,3.14-1.16-.16-4.53.66-7.87,6.35-7.37,2.4.21,4.84-.09,7.24.06,5.09.32,10.73,5.6,10.79,10.3C1019.77,239.15,1019.68,248,1019.68,256.85Zm-764-83.36c-.36,6.17-.33,12.07,6.06,16.58,5.59,4,9.18,10.52,16.83,11.94,2,.37,3.83,3,5.05,5,1.54,2.49,1.88,7.31,3.6,7.75,3.12.79,5.78,1.22,8.19,3.75,7.2,7.56,14.63,14.9,22.13,22.16,1.57,1.52,3.85,3.39,5.73,3.32,5.11-.21,9.37.69,12.46,5,6.07-1.34,8.37,3.86,11.45,7.1,3.76,3.94,4.84-.08,6.93-1.55,3-2.09,3.21-5,3.23-8.36,0-2.14.54-5,2-6.27,3.94-3.42.6-4.78-1.14-7-2.21-2.8-5.84-2.32-8.05-3.73-2.7-1.74-3.11-6.69-5.45-9.46-4.13-4.89-9-9.12-13.49-13.74-5.15-5.33-3.8-12.92,2.48-18.25,3.05-2.58,7.3-1.1,10.31-4.76,2.47-3,8.75-13.59,8.53-18.28-.2-4.3-.13-7.54-6-7.84-2.62-.13-5-4.2-7.66-4.34-5.86-.3-6-3.57-5.86-7.87a117.93,117.93,0,0,0,0-12c-.18-3,1.23-6.25-1.8-8.9-3.62-3.16-6.87-6.73-10.29-10.12-7.52,1.36-15.57-3-22.85,3.2-3.78,3.23-9.53,4-14,6.58-3.31,1.88-6,4.8-9,7.25,1.48,6.1-5,7.64-6.71,11.68C263.9,152.53,254.92,160.92,255.64,173.49Zm677,394.71v12c8.19,3,2.13,12,6.82,16.44,5.57,5.22,1,12.22,3.44,17.88.89,2,3,3.54,4.18,5.51s1.2,5,2.71,5.86c1.83,1,4.71.49,7.08.18,3.69-.47,9.48-6,9.57-9,.15-5.62,0-11.25,0-16.87-7.81-7-4.22-16.19-4.73-24.52-.33-5.53.72-11.09-4.77-15.09-.65-.48.37-4.7,1.72-6.15,2.38-2.55,4.68-6.66,2.43-8.05-6.85-4.24-2.23-12-6.5-16.86-5.29-6-1.8-13.68-2.6-20.56-.36-3.17,1.29-7.54-.28-9.45-8.18-9.91-3.33-21.3-4.57-31.93-.28-2.38,1-5.77-.21-7.08-7.52-8.15-3.77-18-4.71-27.07-.15-1.46-.3-3.51-1.25-4.22-5.71-4.23-4-10.44-3.24-15.42,1-6.44-4.6-9.69-5-14.93-.42-4.78-.1-9.63-.09-14.46,0-3.91.33-7.48-3.22-10.82-3.81-3.59-.4-9.24-1.78-13.63-.88-2.77-3.09-5.32-5.23-7.43-4.1-4-4.55,1.85-6.73,2.94-16.46,8.27-16.85,8.95-16.89,23.89,0,6.43-.1,12.86,0,19.28.12,6.14-2,13,4.8,17.28,0,4.82-.22,9.66.07,14.46.27,4.51-1.5,9.17,3.18,13.25,3.87,3.38,1.12,9.05,1.53,13.68.67,7.6-2.09,15.91,4.9,22.1-2.8,9,5.61,16.59,4.34,24.43-1.67,10.25,6.37,17.49,5.49,27-.21,2.3,2.78,2.67,4.92,3.67,8.56,4,13.09,10.91,9,16C932.26,556.47,932.88,562.06,932.65,568.2ZM405.54,811.39c3,5,7.39,8.05,10.89,11.83,4.46,4.82,8.8,9.95,15.25,2,.8-1,5.92-.31,6.08.32,1.48,6.13,12.44.53,11.43,9.45-.14,1.18,1.2,3.42,2.24,3.7,4.35,1.14,9-1,13.3,3.29,3.47,3.42,9.26,4.47,14,6.63,1.35.62,3.65,1.31,3.76,2.18.48,4,.44,8.22,6.3,7.45,7.7-1,13.93,1.1,18.65,7.55,2.9,4,8.26.34,11,2.36,11,8.09,25,10.55,35.39,19.74a53.6,53.6,0,0,0,13.36,8.44c2.68,1.22,6.24.66,9.4.57s6.47-.12,8.4,3c5.2,8.54,13.49,6.95,21.33,6.41.86-.06,2-2.35,2.2-3.73s-.16-3.72-1.06-4.21c-4.78-2.62-2.67-8.68-6.62-12-4.25-3.52-.76-9.12-2-13.59-.57-2.1-2.24-3.88-3.25-5.88-2.11-4.14-6.81-3.14-9.89-5.23-.29-.21.56-3.13,1-3.14,4.22-.18,7.8-.47,7.52-6.31-.31-6.3.54-12.29-5.79-17.12-4.58-3.5-8.32-6.56-14.53-6.06-8.73.7-17.53.5-26.3.8-.59,0-1.47,1-1.59,1.66-.09.46.78,1.42,1.4,1.62,1.43.47,3.05.4,4.45.92,2.77,1,5,5.72,3.31,7.25-1.54,1.38-5.43,2.83-6,2.2-6.42-7.23-19.39-2.19-23.89-12.86-.38-.91-2.68-1.35-4.11-1.4-6.18-.26-12.77,1.13-17.31-4.9-6.44,0-12.87,0-19.31,0-1.54,0-4,.21-4.47-.6-5.51-9.16-17.85.78-23.16-8.44-5.55-.2-11.1-.57-16.65-.55s-8.42-6.79-14.95-5.07C419.32,811.33,412.7,808.58,405.54,811.39Zm-4.71-659.12c-7.22,0-14.58-.84-21.58.41-2.93.51-5.53,5.2-7.31,8.52-.64,1.18,1.33,4.09,2.57,5.89a10.21,10.21,0,0,0,10.13,4.63c4.77-.44,9.61-.1,14.42-.1,5.62,0,11.28-.45,16.83.14,4.39.47,6.95,6.23,12.48,4.82,1.51-.39,24.05,14.62,24.56,15.91a11.12,11.12,0,0,1,.91,4.4c-.27,5.28,0,9.29,7.34,9,2.17-.1,5.95,3.86,6.53,6.5,1.83,8.29,8.38,14.24,10.19,22.26.63,2.77,1.51,4.46,4.07,4.63,4,.28,9.41,1.75,11.77-.22,8.47-7.09,18-3.86,27.12-4.47,5.59-.37,11.23,0,16.84-.08,8.63-.06,10.55-2.58,5.78-9.14-2.75-3.78-1.7-9.43-6.56-11.79-5.56-2.71-3.95-10.45-8.6-13.14-6.17-3.59-7.12-10.17-9.7-15.4-2.87-5.82-7.53-11.19-7-18.87.31-4.69-6.62-9-11.74-9-5.61,0-11.22,0-16.84,0H451.76c-5.62,0-11.41-.87-16.8.23-6.4,1.3-9.68-4.57-14.89-5C413.69,151.92,407.25,152.27,400.83,152.27Zm599.44,255.88c-2,1.17-4.42,1.93-4.41,2.67,0,3.8-1.83,7.81,1.12,11.41,1.4,1.71,3,3.81,3.21,5.84.44,5.6.15,11.25.15,16.88v72.39c6.82,4.31,4.22,11.2,4.92,17.29,1,9.06-3.62,19.19,4.75,27,0,4.83.67,9.77-.17,14.45-1,5.58,6,7.22,5,12.51-1.54,8.74,2.63,16.45,4.29,24.63,1,4.91,4.72,8,5.22,12.39.53,4.77,0,9.64.18,14.46,0,1.45.31,3.58,1.25,4.2,5.22,3.42,4.12,8.77,3.27,13-1.15,5.83,5,7.64,5.23,12.52.25,4.58-2.42,9.94,1.71,13.66,5.21,4.7,1.85,10.54,3.11,15.68.51,2.08,3.43,3.83,3.43,5.73,0,9.37,8.67,16.75,6.05,26.47-2.12,7.88,5.62,12.36,6.09,19.27,0,.33,1.22,1,1.6.81.69-.27,1.66-1,1.67-1.62.21-8,.41-16,.24-24,0-1.21-1.72-2.66-3-3.49-2.07-1.38-2.13-2.19-.09-3.51,5.18-3.33,2.77-8.51,3-13-6-3.61-4.56-9.56-4.61-15-.07-8.85,0-17.7,0-26.55,0-2.35.69-5.73-.56-6.89-7.91-7.37-2.85-16.64-4.16-24.9-.74-4.65-.54-9.45-.76-14.19-6-3.77-3.67-9.84-4.19-15.16-.6-6,2.56-13-4.3-17.51-.17-6.37-.86-12.77-.38-19.08.55-7.29-7.83-11.64-5.24-19.81,1.59-5.06,1.36-11.24-4.56-14.81.49-5.65-1.49-10-4.3-15.18-3.1-5.67,1.81-14.36-2.64-20.5-4.86-6.7-2.75-13.87-2.43-20.62.36-7.45-2.24-13.58-5.28-19.66-2.42-4.82-6.15-9.05-4.67-14.95,1.69-6.74-6.94-10.27-5-17.35,1-3.75.64-8.08-.06-12C1004.67,410.17,1001.72,409.18,1000.27,408.15ZM902.4,147.44c1.6,0,3.21.08,4.81,0,3.1-.2,6.84.5,9.14-1,3.95-2.55,2.21-7.62,1.51-11.05-1.19-5.83,5.45-7.45,5.19-12.48-.29-5.56,0-11.16.17-16.74,0-.59,1-1.25,1.64-1.68,4.12-2.77,2.48-7,3-10.8.63-4.45,6.41-6.91,4.83-12.44-1-3.6,1.73-5.66,3.91-8s4.41-4.58,5.44-7.32c.5-1.32-1.56-5.15-2.75-5.28-4.69-.53-9.49,0-14.25.07-4.37,7-11.35,4.07-17.37,4.43-7.13.44-14.29.37-21.43.52-3.66,6.08-10,5.37-14.93,4.09C864,67.89,860.08,74.6,854,74.84c-6.4.26-13,1.1-19.17-.21-7.19-1.54-10.21,7.69-17.35,5.31-1.47-.49-4.93,1.25-5.46,2.7-.62,1.67.39,4.73,1.76,6.2,6,6.46,12.35,12.56,18.58,18.79,9.67,1.18,13.59,9.94,20.11,15.27,7.69-.67,9.77,8.59,15.15,9.56,8.33,1.5,10.83,8.75,16.6,12.43a14.75,14.75,0,0,0,6.16,2.44C894.36,147.71,898.4,147.44,902.4,147.44ZM540.6,164c21.14,21.14,42,41.9,62.7,62.83,2.59,2.61,5.31,2.95,8.54,2.81,2.41-.11,5-.63,7.18.13,2.77,1,5,3.55,7.75,4.57,4.6,1.7,6.09-4.52,10-4.67a148.51,148.51,0,0,1,16.88.05c4.47.34,7.56-1.28,10.25-4.55,1.53-1.86,3.43-3.4,5.08-5.16,3.56-3.75,3.93-6.08-.23-9.81s-5.49-9.35-8.72-13.22c-5-6-2.23-12.18-2.92-18.19-.63-5.56-.28-11.25-.09-16.88.16-4.78-3-4.83-6.28-4.81s-6,.05-8.63-2.62c-3.78-3.84-8.84-3.37-12.85-.79-2.7,1.74-4.73,3.6-8.3,3.48-8.84-.28-17.69-.09-26.54-.09H567.9C561,166.89,549.66,158.52,540.6,164Zm522.61,199c0-11.24.08-22.49-.15-33.73,0-1-1.93-2.44-3.21-2.8s-3.69-.27-4.4.6c-2.84,3.47-2.49,8.6-6.81,11.71-3.74,2.7-8.5,6.52-9.12,10.43-.87,5.53-6.62,8.21-5.67,14.84,1.35,9.44.09,19.24.41,28.87.33,9.94-2.63,20.5,4.77,29.32,0,6.43,1.41,13.28-.36,19.18-2.29,7.68,5.9,10.87,5.28,17.39-.45,4.77-.09,9.63-.09,14.45s.77,9.8-.19,14.42c-1.19,5.72,4.87,7.83,5,12.5.15,5.62.83,11.39-.16,16.83-1.26,6.94,3.22,11.61,4.79,17.38a29.37,29.37,0,0,1,0,14.34c-1.64,6.51,4.75,9.56,5,14.92.21,4-.29,8.07.54,11.89.24,1.14,4.44,2.68,5.92,2,2.73-1.24,6.81-4,6.78-6.06-.14-8,6.37-13.82,6.2-21.71-.26-12,0-24.1-.11-36.15,0-2.29.28-5.71-1-6.65-4.88-3.58-3.69-8.41-3.76-13-.09-5.62,0-11.24,0-16.87,0-4.82-.68-9.76.16-14.43,1.13-6.19-4.06-9.91-4.75-14.93-1-7.09-.25-14.42-.25-21.65s1.31-14.79-.37-21.6c-1.62-6.56-5.23-12.48-4.6-19.79S1063.21,370.25,1063.21,363ZM627.85,604.57l12,11.71c6.36-2.5,8.33,7.74,14.75,5.08,2.65,3,5.35,5.36,10,5,6.37-.55,12.82-.14,19.24-.14h40.93c6.42,0,13,.92,19.21-.24,7.06-1.32,10.65,6.13,17.32,5.2a43.37,43.37,0,0,1,14.38.07c5.72,1.18,7.35-5.45,12.49-5.14,7.2.44,14.44,0,21.66.13,6.9.1,14.21-1.56,19.79,4.7.57.65,3.74.27,4.3-.58,3.29-4.87,8.1-4.09,12.83-4.18a77.18,77.18,0,0,0,11.67-.95c.75-.13,1.73-2.69,1.52-4a11,11,0,0,0-9.07-9.39c-6.11-1.14-12.45-1-18.69-1.46-4.94-6.17-11.8-2.67-17.79-3.56-8.23-1.23-17.71,3.82-24.48-4.83-7-.69-14.89,2.54-20.79-1.9-6.78-5.08-13.74-2.05-20.55-2.81-5.53-.63-11.19-.2-16.79-.24-6.85-8.43-16.25-3.9-24.53-4.59-7.18-.6-14.44-.13-21.66-.13-8,0-16.18.9-24-.25-7.69-1.13-12.13,7.26-19.72,5.13C635.24,595.35,631.91,600.53,627.85,604.57ZM298.09,344.35c.56-.57,1-1.41,1.72-1.65,2.12-.74,4.86-.61,6.38-1.94,4.84-4.22,9.05-9.14,13.83-13.4s7.71-9.32,10.34-15.05c3.72-8.11,3.36-9.86-4.45-10.11-3.22-.1-6.56.54-9.63-.14-5.84-1.29-8.59-10.65-4.6-14.8,3.35-3.48,7.09-6.61,10.09-10.36,1.21-1.51,2-5.2,1.1-6.26-4.72-5.47-10.1-10.35-15.15-15.53-4.84-5-5.81-12.42-11.82-16.93-5.73-4.31-10-10.46-15.6-15.05-4-3.3-8.83-5.69-13.59-7.84-2-.91-4.76-.22-7.17-.13-3.39.13-6.12,4.64-3.72,6.93,3.93,3.74,4.95,7.63,4.73,12.68-.32,7.23-.1,14.48-.08,21.71,0,4.81.09,9.61.14,14.42,8.16,4.37,2.69,14.57,9.19,20.55,4.56,4.19,4.06,12.81,9.55,17.53-2.36,8.31,5.9,13.79,5.58,21.94-.29,7.07,7.93,9.3,11.52,14.39C296.48,345.35,297.52,344.69,298.09,344.35ZM795,635.85H758.82c-5.62,0-11.39.8-16.83-.2-6.94-1.27-11.61,3.24-17.37,4.8-4.49,1.21-9.58.43-14.39.17-3-.17-4.77,1.37-4.76,3.84,0,5.82-4.9,7.84-8,11.16s.13,4.29,1.69,4.23c3.77-.14,5.84,2,7.89,4.38,3.25,3.76,6.68,6.71,12.21,5.5,8.93-2,19.27,4.28,27-4.68,9.76,1.48,20.75-4.76,29.25,4.65,4.82,0,9.93,1,14.38-.24,6.67-1.9,8.29,6.18,15,5.59a85.54,85.54,0,0,0,22.16-5c5-1.8,11-.61,16.57-.76,4.45-6.91,11.46-3.58,17.44-4.48a7.9,7.9,0,0,0,3.81-2.34c2.51-2.43,6.9-4.49,1.39-8.66-1.33-1-.91-4.31-1.33-6.55-1.39-7.49-5.43-11.35-12.14-11.36Q823.87,635.81,795,635.85ZM244,292.51c-6.55-.11-7.59-.08-7.39,5.79.18,5.45-4.12,8.3-4.9,12.54-1,5.45-.24,11.23-.24,16.86,0,8.05,0,16.1,0,24.15,0,3.15-.28,5.82-2.47,8.71-4,5.34-3.09,11.74-1.09,17.75.69,2.08,3.3,3.81,3.38,5.77.38,8.84.17,17.71.17,26.56,0,8.05,1.3,16.38-.33,24.08-2,9.47,6.45,15.32,5.73,24.68-.74,9.57-5.11,20.83,4.27,29.35,1.25,9.75-3.3,20.35,4.29,29.17-4.2,2.83-3.56,5-.33,8.79,2.11,2.48,1.21,7.39,2.17,11.07.19.76,2.72,1.37,4.1,1.23s3.49-1,3.79-2c.67-2.2.46-4.69.47-7.06,0-7.25-1.33-14.83.35-21.66,2.19-8.85-6.8-13.89-5.38-22.26,1.07-6.26.21-12.85.21-19.29V425.65c0-6.44.81-13-.21-19.28-1.14-7,3.39-11.63,4.78-17.42,1.27-5.33.21-11.21.28-16.84.09-6.54,4.36-10.8,11.66-11.92,2.24-.34,5.8-.28,6.39-1.52,1.25-2.65,2.15-6.57,1.06-9a235.36,235.36,0,0,0-12.52-23.78c-2.29-3.88-8.46-5.79-6.52-11.75,2.08-6.39-6.4-8.24-5.35-15C251.33,292.86,249.74,292.61,244,292.51ZM449.06,493.2c4.75,5.08,11.55,9,9.81,17.75-.22,1.11,1.2,2.73,2.17,3.84,3.53,4,3.08,10.65,8.52,13.37,4.88,2.45,3.19,8.28,6.53,11.94s3.42,9.79,10.23,9.89c.5,0,.8,2.72,1.45,4,3.74,7.53,7.28,15.05,13.83,20.91,7.78,7,14.89,14.7,22.29,22.1,4.15-3.61,8.18-6.81,7.57-13.61-.79-8.79-.28-17.7-.07-26.55,0-1,1.74-1.92,2.78-2.73.08-.06,1.61,1.1,1.57,1.62-.38,4.47,3.26,6.8,4.86,10.13s.34,7.88.34,11.91c0,4.83,0,9.66,0,14.49,0,3.84,1.71,5.1,6.2,4.88,1.61-.08,4,.68,4.71-.12,4.9-5.38,11.17-4.71,17.44-4.8,3.65,0,9.71-5.27,10.32-8.35.74-3.76-1.85-5.87-4.25-7.87-5.9-4.9-9.5-12.94-18.47-13.69-5.69-5.69-11.23-11.56-17.15-17-2.74-2.52-3.31,1.67-5,2.47-4.73,2.2-7.62.84-8.31-3.82-.45-3,1.58-6.46-1.65-9-10.49-8.13-16.7-21.07-30.34-25.91-4.11-1.46-7.56-6.12-10.2-10.05-3-4.49-9-2.24-11.94-6.64s-9.59,1.12-12.93-3.51c-3-4.13-4.81-1.43-6.88.85C451.39,491,450.2,492.06,449.06,493.2Zm37.58,147.49c-8.85,0-18,1.44-26.47-.37-10.28-2.19-17.49,6.29-27.05,5.37-3.06-.3-5.41,5-2.94,7.17,4.3,3.7,4.85,7.95,4.28,12.79-.16,1.36-1.42,3.72-2.17,3.72-6.86,0-14,2.5-19.75-4.49-5.59-6.81-12.22-12.81-18.79-18.72-1.07-1-4.76-.4-6.27.75-3.73,2.86-5.88,6.31-6.52,11.8-.93,8,4.82,12.73,6.72,19.2a9.56,9.56,0,0,0,11.52,6.33c3.66-.88,5.45,2.68,8.1,3.64,1.72.63,4.64-2.62,7.24-3.53,1.16-.41,2.95.44,4.26,1.11,2,1,3.81,3.37,5.76,3.42,11.25.34,22.52.22,33.78.1a7.77,7.77,0,0,0,4.2-1.41c8-5.68,18.43-7.32,25.1-15.26,2.58-3.07,6.24-5.35,8.35-8.66,2.9-4.58,8.78-2.54,12-6.57,1.62-2,5.66-2,8-3.68,3.19-2.39,5.78-5.58,8.62-8.42l1.71-1.71c-1.14-.86-2.28-2.45-3.43-2.47C510.77,640.62,498.71,640.69,486.64,640.69ZM603.81,425.5c-10.25-10.25-20.45-20.56-30.8-30.71-2.17-2.13-5.22-5.59-7.27-5.21-6.36,1.18-9.85-4.87-15-5-16.09-.46-32.21-.28-48.31,0-2,0-4.2,1.73-5.84,3.19a12,12,0,0,0-2.84,14.71c1,2,2.48,3.8,3.63,5.75a43.88,43.88,0,0,1,3.11,6c.81,2.09.51,5,1.89,6.38,3.22,3.15,5.3,8.13,11.37,7.49,4.78-.51,9.66-.11,14.49-.11s9.83.78,14.45-.19c5.75-1.21,7.87,5.36,12.53,4.91,7.52-.73,16.22,3.48,22.16-4.72,4.54.49,9.44-1.54,13.19,3.44,2.14,2.84,5.56,2,8.1-.72C600.35,428.87,602.1,427.21,603.81,425.5Zm-243,263.55c3.52,0,6.19.65,8.26-.19s3.36-3.36,5.25-4.81c3-2.32.81-3.72-.74-5.13-3.62-3.3-2-7.6-1.74-11.26.55-7.28-8.59-11.84-5.18-19.78.1-.22-2.28-2-3.65-2.25a16.88,16.88,0,0,0-7.18,0c-7.65,2.25-13.06-3.67-19.69-5.06-3.08-.65-4.41-4.88-2.59-7.54s4.35-4.1,4.43-7.89c.08-4.49,4.06-4.31,7.1-3.7,6.18,1.26,8.64-3.67,11.46-7.07,2.11-2.55.39-5.8-2.28-8.14a5.64,5.64,0,0,1-1.83-4c.37-5.06-.38-9.37-5-12.47a12.19,12.19,0,0,1-5.43-9.87c-.06-.83-5.48-2.45-5.84-1.92-3.4,4.93-10.42,3.3-13.73,8-1.33,1.86-3.36,3.58-3.79,5.63-.64,3.08.46,6.56-.33,9.56-.92,3.53-3.66,6.6-4.52,10.13-1.08,4.48.57,10.67-1.93,13.5-3.31,3.75-2,9.06-6.19,12.27-1.76,1.35-1.45,5.73-1.65,8.75-.3,4.71,3.22,4.48,6.44,4.61a3.47,3.47,0,0,1,1.91,1.13c4,4,7.72,8.24,12,11.84,4.69,3.92,7.77,9.37,14.48,11.57,4.79,1.57,8.76,6.6,12.3,10.76C354.34,689.42,358,689.22,360.83,689.05Zm136.75-7.42c1.25,1.39,1.78,2.5,2.32,2.51,12.06.09,24.13.07,36.2.07.81,0,2.1.32,2.34-.05A10.55,10.55,0,0,1,551,679.54c6.49,1.88,9.57-5.89,14.9-4.83,9.93,2,17.2-6.72,26.66-5.8,3.28-7.64,11.88-1.42,16.68-6.65s12.17-1,18.27-2.18a15.28,15.28,0,0,1,4.82,0c5.09.69,6.77-6.27,12.55-5.26,1.85.32,4.73-3.91,6.7-6.41a5.62,5.62,0,0,0,.5-4.48c-.39-1.26-1.87-3-2.94-3.08-8-.4-16-.43-24-.57-5.35-7.27-13.14-3.87-19.9-4.28-8.82-.53-17.72.27-26.54-.25-7.65-.44-13.44,1.52-18.88,7.37-3.33,3.58-8.87,6-13.79,6.94-4.76.88-9.47.44-12.4,5.21-4.33,7-12.57,8.74-18.65,13.43-2.77,2.13-7.24,1.82-9.86,5.27C502.92,676.85,500,679.21,497.58,681.63ZM425,607c-.63,9.52,2.13,11.33,9.48,6.88,4.64-2.81,9.4-3.55,13-.87,4.44,3.29,5.88,4.36,6.54-2.19.3-2.92,5.61-5.54,6.86-3.85,5.45,7.39,9.57,3.74,15.7.29,6.36-3.58,13.69-7.43,22-5.37.94.23,2.37-1.53,3.57-2.37-.57-.57-1-1.34-1.73-1.68-7-3.47-6.35-12.38-11.95-16.84.85-8.39-9.49-10.26-10.32-17.46-.86-7.48-11.5-9-10.28-17.57.07-.48-1.06-1.13-1.63-1.7-2.28-2.28-4.46-4.67-6.87-6.79-1.37-1.21-2.75-4.67-5-1.06-.73,1.18-1.07,3.88-.37,4.48,4.78,4.13,5.47,9.34,4.7,15-.47,3.46.39,6.25,3.33,8.32a4.63,4.63,0,0,1,1.27,1.63q-5.88,6-12,11.81a9.81,9.81,0,0,1-1.63-1.65c-2.75-4.17-7-2.72-10.83-3.13-1.38-.15-3.84-1.37-3.81-2,.48-7.77-8.85-9.83-9.65-15.28-.85-5.77-5.23-9-6.56-14.46-1.26-5.2-9-8.31-9.68-15.25,0-.34-1.22-1-1.61-.8-.68.28-1.64,1-1.67,1.63-.23,4.79-1.91,10.47.07,14.15,2.26,4.2,4.66,7.59,4.58,12.74s-2.06,11,3.15,15.61c4.17,3.71-1.62,11.54,5.22,14.69.52,5.95,4.3,9.88,8.59,13.34,2.91,2.35.54,3.45-.6,5.23A20,20,0,0,0,425,607ZM891.87,805.44c4.06-6.55,1.08-13.07,2.08-19.17.65-3.93-4.69-5.54-4.39-7.6,1-6.87-4.82-11.82-4.72-17.21.12-6.34-4.51-9.57-5.55-14.8C878,740,871,737.48,867.2,732.57c-5.58,2.1-7.34-5.29-12.42-4.91-5.54.41-11.13.25-16.7.33-4.44,6.08-13.4,8.92-12.07,19.16.66,5.05,1.76,10.6-2.93,15.58-4,4.21.65,11.69-2.24,15.66-3.07,4.23-4.85,7.9-4.21,12.77.58,4.54-1.91,9.54,2.46,14.11,6.09-6.18,11.61-13.08,18.47-18.16,3.28-2.44,7.76-5,11.83-5.76,2.92-.56,6.47,3.76,10,4.19,5.42.68,8.41,7.28,14.86,5.28,1.52-.47,4.21,1.46,5.81,2.9C884,797.33,887.72,801.29,891.87,805.44ZM265.3,473.84v33.84c0,4.84-.3,9.69.08,14.5.43,5.41-2.58,11.9,1.78,16,6.54,6.21-6.9,8.56-1.86,13.79-.25,10.7-.25,10.85,11.87,11.21,3.39.1,6.35.32,8.29,3.37,1.25,1.94,1.74,1,3.54-.11,5.87-3.63,4.06-12.05,10.15-15.26,0-4.83.46-9.73-.22-14.47-.28-1.94-4.22-3.42-4.39-5.3-.58-6.39-1.57-13.24.1-19.22,2.3-8.23-5.91-12.56-5.28-19.85.56-6.4-1-13.16.42-19.26,1.75-7.36-5.58-11.49-4.89-17.37,1.22-10.52-8.69-18.78-5.08-29.45-3.49-3.23-4.52-7.74-6.42-11.83-.39-.84-2.87-1.18-4.25-.94a5.55,5.55,0,0,0-3.69,2.38c-.64,1.3-.15,3.15-.15,4.76ZM691,384.7c-8.7-4.28-15.25,5.39-23.93,4.61-1.36-.12-2.82.84-4.23,1.31.44,1.13.57,2.64,1.39,3.34,4.24,3.61,6.68,8,8.73,13.28,1.86,4.74,9.21,6.57,8.22,13.45,3.63,2.7,5.42,8,11.46,7.33,4.76-.51,9.62-.11,14.44-.11,8.53-9.08,19.54-3.17,29.29-4.84,2.23-.39,5.14-.2,6.52-1.53,6.94-6.71,15.25-2,22.81-3.12.64-.1,1.78,2.23,2.44,3.56a3.86,3.86,0,0,1,0,2.38c-1.41,5.73,2.44,8.91,6.07,11.91,4.13,3.42,6.85.2,10-2.36,1.54-1.24,4.46-1.27,6.68-1.06,3.74.35,6-1.71,7.89-4.22,1.35-1.75,2.87-3.82,3.09-5.88.49-4.66-3.17-4.6-6.38-4.48s-5.88-.36-8.58-2.75-6.77-3.16-9.72-5.34c-4.46-3.29-9.29-.65-13.8-1.65-1.43-.31-3.32-.67-4-1.69-2.88-4.06-7.1-2.43-10.78-3.28s-6.77-4.43-10.07-4.35c-5.31.13-8.61-4.35-12.49-4.67-5.77-.48-10.06-2.8-14.89-5.17C705.11,386.4,699,382.53,691,384.7ZM400.2,186.13c-4.79,0-9.59-.13-14.38,0-4.11.15-9.13,6.84-9.35,11.69a11.47,11.47,0,0,0,3,8.44c2.91,3.59,2.41,4,.26,8.06-5.21,9.83-4.67,16.18,2,22.89q5.06,5.12,10.17,10.16c1.08,1.07,10.5,2.52,11.19,1.46,1.18-1.81,2.61-4.23,2.3-6.11-1-5.81,2.49-9.26,6.34-11.72a10.72,10.72,0,0,1,12.94.68,11.79,11.79,0,0,0,6,2.65c6.37.34,12.78.17,19.17.1,3.25,0,3.92-2.15,4.18-6.91.36-6.71-4.47-11.09-7-16.32-2.28-4.76-7.83-7.85-11.43-12.1s-10.43-2.88-13.47-8.32c-2-3.53-5.41-5.33-10-4.78C408.23,186.5,404.19,186.13,400.2,186.13Zm429,0H807.51c-4,0-8.22.73-12-.18-5.72-1.35-8,5.71-12.47,4.79-7-1.44-10.75,5.85-17.36,5.17-7-.72-11.84,7.28-19.61,5.32-1.66-.42-2.18,2-.64,3.19,2.44,1.92,4.55,5,7.27,5.66,5.84,1.44,13-2.32,17.46,4.55,6.37.17,12.75.73,19.09.38,4.53-.25,6.95,2.54,10.32,4.45,5.25,3,12.19-2.09,17.94,3.47,5,4.86,12.26.8,18.43,1.85,7.39,1.26,12.62-2.43,14.22-9.07,1.09-4.52,4.06-6.71,6.8-9.21,2.05-1.87,7.2-2,7.6-3.69a20.44,20.44,0,0,1,3.75-8.22c3.23-4.34,1.51-8.42-2.86-8.44C853.36,186.08,841.29,186.13,829.23,186.13ZM349.34,718.06c4.82,0,9.65.19,14.45-.14,1.08-.08,2.54-1.83,2.93-3.08s.34-3.51-.49-4.47c-3.16-3.62-6.3-7.54-10.24-10.14-4.27-2.81-9.5-4.12-14.17-6.4s-9.11-4.93-13.65-7.42c1.38-6.09-4-8.16-7-11.53A154,154,0,0,0,309.21,663a11.11,11.11,0,0,0-6-2.83c-4.79-.41-9.88-1-14.36.17-3.41.93-8.14,4.2-8.66,7.08-1.26,7-.92,14.43-.19,21.59.35,3.47,3.51,6.58,4.45,10.11.71,2.67,1.61,4.32,4.32,4.41,4,.14,8-.15,12,.17,1,.07,1.85,1.75,2.59,2.82.09.11-1.1,1.61-1.6,1.55-4.52-.48-7.41,2-9.9,5.22-.73.93-1.62,2.47-1.32,3.33,1.54,4.43,12.52,8.35,16.3,5.67s6.74-6.91,10.82-8.84c5.66-2.67,9.77,3.49,14.8,4.4C338,718.82,343.72,718.06,349.34,718.06ZM650,1056.57v-.12h28.92c6.88-8.44,16.33-3.53,24.6-4.71,9.83-1.4,20.72,3.62,29.38-4.85,5.64,0,11.51-1,16.84.26,6.6,1.57,9.18-5.56,15-5.19a185.45,185.45,0,0,0,19.3,0c1.18,0,2.3-1.6,3.45-2.46-.57-.57-1.13-1.15-1.71-1.7-2.8-2.67-4.92-6.08-9.86-5.51-4.76.55-10.64,1.8-14.2-.33-3.92-2.35-8.22-3.74-12-6.13-1.32-.82-2.36-2.93-3.56-3-10.45-.23-20.94-.45-31.37.09-2.63.13-5.19,4.45-7.65,4.32a20.58,20.58,0,0,0-14.91,5.13c-10.63-3.44-18.89,7.32-29.4,4.92-1.32-.3-3.62.13-4.26,1-4.13,6-10.35,2.45-15.41,3.83-5.78,1.56-10.44,7-17.37,4.77-1.46-.46-3.93-.72-4.65.08a11.28,11.28,0,0,0-2.55,6c-.13,1.07,1.57,3.38,2.49,3.4C630.63,1056.66,640.29,1056.57,650,1056.57ZM758.57,229.65c-7.25,0-14.5-.13-21.73.16-.87,0-2.13,2.28-2.36,3.65-.39,2.35-.86,5.14,0,7.16,2.13,4.77,4.4,9.75,7.79,13.62,6.34,7.26,14.28,13.21,20.11,20.81,4.66,6.07,12.19,6.6,17.17,11.63,2.42,2.45,5.61,1,8.17-1.5,2.94-2.88,5.15-5.58,4.76-10.2-.57-6.6,4-9.29,9.5-11.59a38.5,38.5,0,0,0,15.9-13.22c1.4-2.23,5.94-3.92-.11-6.08-3.49-1.25-6.62-4.1-10.13-4.54-4.75-.6-8.56-1.39-12.89-4.32-3.88-2.64-11,.47-14.48-5.58H758.57Zm72.52,607.59c0,5.61-.86,11.41.31,16.78.74,3.37,4.28,8.37,7,8.65,6.85.7,14.17,2.09,20.93-1.17,7.39-3.56,13.88-9.53,23-8.45,3.35-6.23,9.84-3.36,14.69-5.22,1-.37,1.23-2.58,1.82-3.94l-8.42-15.77c-6.24-6.24-12.63-12.33-18.65-18.78-2.94-3.15-6-4.61-10.33-4.32-5.59.37-11.23-.11-16.84.18-2.5.13-4.42,1.74-3.77,4.75s-1.78,4.34-3.48,5.75c-4.55,3.78-7.32,8.08-6.28,14.33C831.42,832.37,831.09,834.83,831.09,837.24ZM310.8,737.4c-4.2,0-8.23,0-12.25,0-2.91,0-6,4.73-4.09,6.69,3.64,3.68,5.26,7.48,4.78,12.65-.44,4.79.14,9.67-.16,14.48-.25,4.1,3.46,5.06,5.21,7.54,2.27,3.2,4.84.09,4.29-.95-2.57-4.82,9.78-8.5.8-13.27.83-1,1.73-2.88,2.47-2.82,3.78.3,8.22-1.93,11.17,2,4.21,5.63,13.17-.68,16.6,6.77.22.46,1.36.69,2.07.7,9.66,0,19.34.28,29,0,10-.34,20.51,2.56,29.52-4.64.66-.54,2.93.46,4.15,1.22a21.42,21.42,0,0,1,3.47,3.34c2.51-4.62,8.21-3.68,11.56-6.66.87-.77.94-3.09.53-4.45s-1.8-3-2.91-3.11c-4.74-.48-9.53-.43-14.31-.57-7.12-8.05-16.13-3.82-24.45-3.55-1.74.05-3.43,1.94-5.13,3-3.11-5.31-9.12-2.16-12.7-4.22-3.93-2.26-8.06-4-12-6.09-1.35-.72-2.2-2.79-3.53-3.08-5.29-1.17-11.47,2.26-16-2.07C323.19,735,316.6,738.75,310.8,737.4ZM821,135.75c-4.82-6-9.57-12.25-17.83-13.84-4.13-5.67-10.24-2.54-15.42-3.6a11.15,11.15,0,0,1-5.8-3.28c-3.88-4.44-8-7.06-14.36-6.42s-12.92-.41-19.28.29c-6.76.75-14.57-3.56-20.15,3.68-6.3.33-13.51-1.13-18.64,1.49-5.67,2.89-11.22,4.2-17.13,5.46-.75.17-1.68,2.8-1.39,4,1.15,4.88,4.34,8.59,9.28,9.22,5.54.7,11.24.16,16.87.16s11.3-.38,16.88.1c6.24.55,13.46-2.85,18.51,1.57s10.43,2.87,15.7,3.07c8.84.35,17.7.26,26.54,0,5.65-.14,11-.41,15.12,4.71.53.66,4.31-.71,6.15-1.85C818,139.33,821.13,136,821,135.75ZM353.54,1003.37c-1.49.28-3.63,0-4.34.94-2.8,3.53-6.29,4.11-10.47,4-7.19-.25-14.4-.2-21.59.05-1.19,0-3.38,1.8-3.31,2.6.53,6-1.76,12,3,18,3.18,4,3.38,9.7,10.81,8.4,4.66-.81,9.58-.15,14.38-.14,5.45,0,8.38,6.88,14.84,5,4.78-1.4,6.74,6.87,12.35,4.68,2.93,4.71,7.42,4.89,12.4,5,4.53.11,9.83-2.38,13.57,1.74,5.09,5.61,6.09-1.05,8.5-2.64,3.89-2.59-.62-3.55-1.55-5-3.78-5.67-7.56-11.4-11.86-16.67-3.87-4.73-8.84-8.36-10.37-15-.56-2.45-4.23-5.52-6.82-5.9C366.33,1007.49,358.88,1009.81,353.54,1003.37Zm355-294.7H693c-3.62,8.07-14.32,1.06-18.21,8.54l-10,10c-4.24,2.86-1.15,4.59.8,6.89,2.29,2.7,4.83,3.47,8.33,3.43,17.72-.19,35.44.08,53.16-.17,6.84-.09,14.48,2.54,19.89-4.65.52-.69,3.9-.52,4.43.27,4.62,6.86,11.54,3.93,17.6,4.34,1.24.09,3.62-1.32,3.68-2.16a14.51,14.51,0,0,0-1.31-6.48c-.6-1.38-2.17-2.34-3.32-3.46-3.32-3.26-8.12-3.64-12-6.35s-9.91-.81-14.84-5.18c-3.4-3-11.37,2-15.66-2.29C719.84,705.63,713.28,710,708.54,708.67ZM855.6,365.05c-4,0-8.06-.23-12.05.16-1,.1-2.43,2-2.67,3.33-.43,2.33-1.15,5.8.06,7,4.78,4.92,2.69,12.66,6.07,16.71,5.07,6.08,2.25,12.15,3.6,18,.46,2,4.5,3.89,4.22,5.29-1.14,5.67,5.44,7.53,5.3,12.46-.27,9.5-1.92,19.51,8.57,25.44a2.33,2.33,0,0,1,1,1.91c-3.46,9.94,5.81,17.51,5,27-.09,1,1.61,2.22,2.48,3.34a21.51,21.51,0,0,1,3.45-3.37c5.29-3.27,3.2-8.47,3.61-13-6.68-4.35-4.73-11.15-4.8-17.3-.12-10.46,0-20.91,0-31.37-9.57-8.48-3.33-19.57-4.7-29.39-.77-5.52-.06-11.25-.17-16.87-.07-3.28-6.05-9.23-9.32-9.35S858.82,365.05,855.6,365.05Zm52.86,330.61c6.71,9.52,17.92,14.32,20.56,26,5.17,4.5,8.73,10.91,16.64,12.12,2.28.34,3.67,4.7,6.9.73,2.47-3,6.53-5.88,3.34-9.8-2.69-3.3-4.31-6.2-4-10.45.3-4-.46-8.07.19-12,1-5.75-2.51-8.82-6.07-11.93-4.28-3.73-4.41-6.58-1-11.81,5.61-8.65.36-18.27-9-18.54-5.59-.16-11.19-.12-16.78,0-4.84.1-10.7,5.6-10.76,10.21C908.38,679,908.46,687.79,908.46,695.66Zm12.67,61.08c-1,1.09-2.58,2-2.9,3.28-1.48,5.84,2.45,10.06,4.4,15,1.64,4.18-.29,9.63.52,14.33.75,4.31,4.9,8.66,4.28,12.46-1.43,8.75,5,14.28,6.77,21.59.48,2,4,2.79,3.29,5.87-1.23,5.32,1,9.24,5.1,12.38,3.36,2.54,5.16,5.68,4.66,10.2-.35,3.08.19,6.28.54,9.41.07.62,1.4,1.06,1.58,1.73,1.58,5.84,6,10.22,7.64,16.2s10.49,7.49,9.66,15.39c-.11,1,2.11,2.26,3.25,3.39l1.7,1.71c.57.57,1.16,1.64,1.71,1.62,2.19-.08,5.13.24,6.33-1s1.51-4.75.57-6.22c-2.49-3.92-5.88-7.27-8.9-10.85,1.92-6.11-3.58-9.86-4.7-14.93-.82-3.71.81-7.9-3.25-10.8-4.6-3.28.64-9.15-3.3-13.18-2.5-2.55-3.5-6.53-5.3-9.79-.74-1.33-2.58-2.41-2.67-3.69a72.13,72.13,0,0,1,0-14.47c.83-6-7.87-8.51-5-14.92,3.24-7.15-3.18-11.79-5.31-17.14-2.71-6.81-11.84-10.81-9.21-20.34-3-2.41-6-4.88-9.12-7.19C923,756.42,921.94,756.75,921.13,756.74ZM588.35,391.12c13.19,13.05,25.92,25.09,37.94,37.82,4,4.27,8.28,3.67,12.9,3.81,5.32-6.45,12.69-4.64,19.56-4.83,1.6,0,3.61.61,4.72-.13a26.45,26.45,0,0,0,6.84-6.32c.45-.62-1.7-3.37-2.95-4.89-2.41-2.94-5.59-4.91-5.84-9.7-.17-3.32-3.85-5.84-5-9.84-1.39-4.7-6-8.31-12.86-8-16,.68-32,.16-47.93.29C593.55,389.32,591.42,390.33,588.35,391.12ZM472.59,466.6c7.87-.41,16.78,1.89,24.07-4.78,1.53-1.39,4.62-1.63,5.37-3.19.94-2,.58-4.79.15-7.12-.84-4.46-4.73-7.33-5.95-12.09-1.06-4.16-7.14-1-10.9-1.82-5.95-1.25-12.12,1.82-18.14-3.14-5.73-4.72-13.9-.5-20.79-2.1-1.33-.31-2.22-3-3.46-3.15a85,85,0,0,0-16.17-.5c-1.85.17-3.44,3.17-5.15,4.88-3.19,3.19,1.34,3.41,2,5.11,3.83,9.69,8.18,18.56,21,18.49,2.47,0,5.08,3.2,7.39,5.19s4.13,4.64,7.94,4.3C464,466.33,468,466.6,472.59,466.6ZM1039,812.38c-.66-6.78,2.65-14.54-4.84-19.64,0-7.22-.13-14.44,0-21.65.1-4-3.22-5.31-5.35-7.38-3-2.92-4.83-5.82-4.48-10.28s.18-8.75-3.48-13.11c-2.42-2.89-.18-9.28-1.47-13.67-1.24-4.19-5.35-7.08-4.79-12.52.73-7.14.18-14.41.18-21.63-6.45-5.36-4.16-12.81-5-19.62-.5-4-4.65-3.19-7.71-3.18s-6.56-.25-6.61,4.42c0,2.41-1,5.94.17,7,4.73,4.27,5.07,9.36,4.72,15-.29,4.79.76,9.81-.27,14.38-1.31,5.81,6.18,7.76,4.87,12.43-1.82,6.49,4.87,9.49,5,14.89.11,5.61.54,11.28-.13,16.82-.59,4.85,4,6.6,4.78,10.08,1,4.57-1.24,10.72,1.06,13.92,4.1,5.7,7.63,11.86,8.38,18.17.82,7,8.34,11.66,5.64,19.72-.49,1.47,3.79,4.58,6,6.86a1.75,1.75,0,0,0,1.63.21c.67-.37,1.61-1.06,1.64-1.66C1039.11,818.8,1039,815.59,1039,812.38ZM414.11,901.82c-10.42,0-20.85-.05-31.27,0a44.51,44.51,0,0,0-9.32.78c-.86.19-1.68,2.52-1.71,3.89a5.62,5.62,0,0,0,1.57,4c1,.83,2.87.81,4.38.92,5.32.4,10.44-.82,15.4,3.92,3.33,3.17,9.92.38,14.77,5,4.06,3.9,12.11-2,17.62,3.6,4.4,4.46,10.6,1.52,16,1.86s11.27-.91,14.83,5c3.74-.84,8.16,2,11.27-1.73,2.32-2.77,5.08-3,8.36-3.24,6.83-.56,6.84-.85,6.93-6.39.07-3.92.16-6.6-5.28-8.46-5.66-1.94-10.86-5.09-17.13-5-5.46-7-13.19-3.62-19.93-4C431.78,901.41,422.93,901.82,414.11,901.82ZM434.55,513a8.31,8.31,0,0,0-4.46-9.6c-5.59-3-3.94-9.94-8.36-13.52-3.7-3-2.09-7.76-1.43-11.22,1.33-7-2.47-11.87-5.15-17.26-3-6-7.62-11.47-9.23-17.76-1.3-5.11-3-6.69-7.64-6.09L385,424.28c-1.14-1.14-2.28-2.26-3.4-3.4-2.45-2.49-7-3.69-8.1-1.82s-1.32,4.26-1.77,6.46c-.73,3.46,2.2,5.64,3.08,8.3,4.42,13.45,15.86,23.91,16.36,39,.08,2.42,2.21,3.82,5.06,3.5s4.5,1.42,4.43,4.09c-.13,4.88.32,8.94,4.48,12.71,4.42,4,11,7.09,10.34,14.85,4,3.94,7.83,8,12,11.72.89.78,3.34.57,4.61-.08s1.78-2.35,2.39-3.71C434.8,515.23,434.55,514.31,434.55,513Zm652.83-242c0-4.82-.07-9.64,0-14.45.11-5.54,1-11.28-4.85-14.85V227.25c-5.88-3.56-5-9.32-4.85-14.85,0-1.58.46-4.11-.3-4.58-6-3.66-2.29-11.42-5.35-14.54-5.63-5.72-1.67-12.74-4.43-17.57-3.22-5.6-4.24-11.2-5.52-17.08-.16-.76-2.65-1.47-4-1.4s-3.85,1.14-3.86,1.79c-.07,7,.24,14,.45,21,5.33,3.13,4.31,8.55,3.46,12.86-1.13,5.78,4.5,7.8,5.21,12.48,1.27,8.36-2.81,16.83,2.81,25.36,4.86,7.41,2,17.09,1.55,25.61-.34,5.71,5.55,7.39,5.27,12.47-.31,5.56.09,11.15.17,16.74,6.16,3.38,3.79,9.68,5.2,14.72.38,1.34,2,2.63,3.34,3.35,1.52.81,2.33,5.49,5,1.58,1.47-2.19,6.66-2.9,4.07-6.61-1.87-2.68-3.58-4.77-3.41-8.31C1087.61,283.85,1087.38,277.42,1087.38,271ZM686,169.2c0,4.81-1.32,10.17.38,14.28s6.16,7.26,9.85,10.3c3.3,2.71,3.87,6.36,5.28,9.9.49,1.23,4.33,2.09,6.19,1.56,2-.59,3.65-4.48,5.26-4.37,10,.73,16.64-6.75,25-9.54,6.71-2.23,9.64-7.72,14.5-11.43.31-.24-.65-2.15-1-3.28-5.52,1.79-7.51-5.65-12.35-4.9-5.41.83-9.1-1.23-12.37-5.21-1.45-1.78-3.64-4.47-5.26-4.31-5.93.57-10.05-3-15-4.7s-11.1-.6-16.7-.3c-2.49.14-4.15,1.75-3.82,4.79A66.65,66.65,0,0,1,686,169.2Zm290.15,76.29h-.62V221.77c-6.74-4.51-3.8-11.43-4.13-17.43-.36-6.37-1-13,.13-19.14,1.82-9.91-6.93-17-6-26.49,0-.4-2.57-1.5-3.94-1.48s-3.53.7-3.94,1.68c-2,4.77.8,10.84-5.08,14.75-8.13,5.4-6.71,13.6-3.75,21,1.09,2.7,3.51,4.75,3.27,8.27-.34,4.77-1,9.85.22,14.29,1,3.33,6.05,5.42,4.47,10.05-1.94,5.69,4,7.82,5.27,12.3,1.59,5.72,6.11,10.6,4.49,17.28-.86,3.56,1.21,5.92,3.73,8,1.22,1,2.27,2.24,3.4,3.37.84-1.19,2.35-2.35,2.4-3.58C976.29,258.28,976.16,251.88,976.16,245.49ZM700.39,266a22.31,22.31,0,0,1-3.07-3.4c-2.29-3.83-2.33-8.75-6.71-11.65-3.75-2.5-9.09-1.9-11.89-6.48-.4-.66-4.56,0-6.15,1.23a40.34,40.34,0,0,0-8.46,8.4c-3.31,4.58-7.69,4.85-12.56,4.55a35.05,35.05,0,0,0-7.17.05c-2.16.32-5.25.66-6.13,2.09-1.78,2.9-.37,5.83,2.36,8.08,6.46,5.35,10.66,13.63,20,15.35.63.11,1,2.67,1.17,4.13.4,2.66,1.65,4.37,4.5,4.09,3-.31,6.92.14,8.83-1.55,4.62-4.11,11.12-4.24,15.56-9.57,3.6-4.33,3.6-10.2,8-13.63A17,17,0,0,0,700.39,266Zm58.36,319.67c6,3.79,12.87,2.56,18.49,1.35,7.52-1.61,10.79,5.44,17.31,5.54,8.24.14,17.69-4.08,24.45,4.57,11.22,0,22.44.05,33.65-.14.61,0,1.77-2.94,1.69-3-6.06-3.92-3.3-10-3.91-15.3s-5.63-10.27-10.5-10.54c-3.19-.18-7.42-1.35-9.43.2-7.63,5.88-16.19,4.44-24.62,4.6-7.06,7.11-16.06,4.43-24.44,4.81-3.2.14-6.51.52-9.6-.08C765,576.39,762.26,581.27,758.75,585.71ZM472.07,389c-5,.28-9.75-.78-11,.85-5.06,6.45-11.86,4.82-17.6,3.93-9.93-1.54-17.09,6.85-26.57,6.15-.39,0-2.27,5-1.43,6.05,2.36,2.94,5.54,6.61,8.83,7.11,7,1.07,14.36.33,21.56.33,5.34,6.46,12.75,5,19.6,4.69,4.58-.24,6.85,3,10.2,4.54,7.17,3.35,12.27-.43,12.1-7.87-.07-3.11.38-6.58-.85-9.23a59.23,59.23,0,0,0-8.44-13.25C476.69,390.24,473.3,389.58,472.07,389ZM611.45,263.5c-4.83,0-10-1.08-14.38.36-3.16,1-5.69,5.16-7.52,8.45-.66,1.17,1.28,4.13,2.52,5.95,2.55,3.74,8.31,5.54,6.9,11.65,3,2.48,5.6,5.71,9,7.2,2.71,1.18,6.5-.38,9.52.4,3.54.92,6.65,4.1,10.14,4.46a128.9,128.9,0,0,0,21.7-.05c1.07-.07,2.85-3.77,2.59-5.54-.28-2-2.36-3.86-3.9-5.55-6.25-6.88-14-12.36-17.32-21.85a8.59,8.59,0,0,0-9.59-5.57C618,263.89,614.67,263.5,611.45,263.5Zm173.84,91.88c7.18,0,14.37-.16,21.54.07,3,.1,4.75-1.34,4.74-3.76,0-2.05-1.34-4.2-2.45-6.09a8.46,8.46,0,0,0-3.36-3.35c-5.37-2.42-12.79-3.07-15.91-7.11-5.2-6.75-14.74-.23-18.64-8-.4-.79-2.85-.74-4.35-.75-6.38-.08-12.84-.6-19.12.23-2.59.34-5.06,3.42-7.1,5.68-2.63,2.91,1.45,3.38,2.33,5,9.76,18.05,9.78,18,27.95,18.07Zm16.36,647.94c-8.07-.59-13.86,7.08-22,5.74-.35-.06-1.58,2.54-1.6,3.91s.86,3.89,1.54,4c5.07.5,8.4,3.48,11.69,6.92,1.51,1.59,3.63,3.2,5.68,3.55,3.78.63,7.58-.47,10.85,3.2,3.65,4.09,9.07,1.4,13.65,1.61,3,.14,3.85,2.58,5.86,3.48s5.67,1.89,6.26,1.1c3.41-4.58,8-4,12.76-4.68,2.64-.35,4.83-3.6,7.37-5.32,2-1.33,1.9-2.15-.18-3.49-2.57-1.65-4.81-3.83-7.44-5.36-3.21-1.86-6.61-4.43-10-4.62-5-.29-9.36-.74-12.44-5.11C815.08,1011.78,809.7,1001.05,801.65,1003.32Zm-512.17,4.91c0-1.6,0-3.2,0-4.8-.07-10-4.2-14.3-13.69-14.59-6.26-.2-13,.66-18.59-1.49-3.5-1.34-6.53-3.38-10.61-3.4-4.88,0-9.23.06-12.71,4.52-.93,1.19-4.54.55-6.88.34-2.82-.25-4.77,1-5.1,3.47-.44,3.19-.09,6.71,4.62,6.21,4-.43,5,4.76,7.59,4.65,9.1-.4,15.36,6.44,23,8.27,9.44,2.27,18.17,8.81,28.6,6.4,1.37-.32,3.35-1.36,3.61-2.43C289.87,1013.12,289.48,1010.63,289.48,1008.23Zm554.95-567c-1.5,2.34-3.1,3.89-3.57,5.74-1,3.87,4,4.91,4.51,7.59.81,4.65,0,9.57.29,14.34.29,4.48-1.6,9.19,3.06,13.19,4,3.46,1.22,9,1.62,13.57.41,4.76,1,9.81-.12,14.32-1.6,6.46,4.73,9.54,5,14.83.27,5.57-.08,11.18.27,16.75,0,.86,2.28,2.08,3.65,2.31,11.65,2,17.92-7.38,15.06-17.27-5-3-4.57-7.75-4.46-12.55,0-2.31.55-5.8-.69-6.74-4.62-3.51-5.15-8.36-3.88-12.76,1.9-6.59-6.5-9.12-5-14.81,2-7.61-2.54-13.53-5.3-19.41-2.33-4.95-5.17-9.15-4.72-15C850.25,444.33,847,443,844.43,441.26Zm-23.3-38.52c2.15-7.69-1.89-12.7-4.4-18.27-.91-2,.55-5-.3-7.08-1.49-3.58-5.22-2.65-8.28-2.66-8,0-16-.08-24,0-5,.06-9.87,4.54-11,10-.62,2.94,1.2,6.31-1.92,8.85-3.34,2.73-3.38,5,1.57,5.24,7,.32,14.52-1.32,19,6.54,1.78,3.15,5,3.08,8.26,3.3,6,.41,12.85-2.74,17.76,3.45,1.12,1.41,2.87,1.22,3.26-.89C821.55,408.18,821.13,404.94,821.13,402.74Zm-295,530.77c4.13,2.36,5.23,7.07,10.13,7,20.76-.1,41.52,0,62.28,0,1.8,0,9.29-5,9.23-6.51-.18-4.89-4.42-2.22-6.57-3.43-4.55-2.58-8.56-6.73-13.39-8.06-5.89-1.63-12.4-1.19-18.64-1.31s-12.05.16-17.46-4.55c-1.85-1.62-7.48-1.69-10.77,1.93C536.69,923.31,532,927.68,526.18,933.51Zm-179-611.9c-5.15.12-3.15,4.88-4.72,6.59-6.62,7.19-5.52,12.67-.24,20.61,4,5.92,5.82,13.62,10.13,19.79-2.4,9.93,5.53,14.35,11.26,19.25,2.26,1.94,7.65,1.63,11,.51,3.68-1.22,2.51-6,1.68-8.54-1.88-5.71-6.54-10.55-4.81-17.33.11-.39-1.25-1-1.58-1.7-5.83-12-13.23-23.33-17.58-36.1-.23-.69-.62-1.61-1.19-1.86A26.91,26.91,0,0,0,347.17,321.61ZM860.1,277.43c0-2.39-.33-4.83.07-7.15.85-4.86-2.63-7.17-5.48-9.67-3.36-2.95-8.21-2.88-11.79-6.48-2.95-3-11.59.5-14.28,4.71-1.55,2.44-1.83,5.75-3.53,8-2.35,3.16-5.71,5.56-8.21,8.62a5,5,0,0,0-.17,4.53c1.14,2,3.07,3.55,4.71,5.23,2.23,2.28,4.19,5.64,6.85,6.38,1.91.52,4.71-3.55,7.25-3.75,7.12-.58,14.32-.08,21.47-.34,1.07,0,2.73-1.79,3-3C860.44,282.27,860.1,279.82,860.1,277.43Zm-312.29,165v.09c-12.79,0-25.6-.12-38.38.27-.84,0-2,3.86-2.16,6-.09,1.15,1.49,2.6,2.59,3.63,3.43,3.2,6.64,8.17,10.6,8.92,5.64,1.07,12.84,3,17.4-3.72,9.49,1.28,16.68-7.71,26.59-5.72,3.59.72,5.35,2.84,7.66,4.8,5.21-7,12.8-3.88,19.49-4.71.67-.09,1.75-2.89,1.52-3.07-2.92-2.38-4.4-6.61-9.28-6.53C571.83,442.56,559.82,442.42,547.81,442.42ZM541,1071.07h26.55c8.46-9.68,19.59-3.18,29.38-4.72,4.69-.74,9.58-.21,14.37-.42.59,0,1.33-1,1.63-1.66a1.91,1.91,0,0,0-.69-1.64c-4.39-3.21-11.34,1.53-15-5-.67-1.21-4.4-1.24-6.61-1-14.61,1.74-29.84-4.3-44.06,4.43-3.5,2.15-9.49-.06-14.27.42-5.29.54-11.16-2.57-15.83,2.55-3.83,4.2-9,1.59-13.56,2.14s-5.87,1.81-5.5,5.62c.45,4.6,3.81,4.15,7,4.1,1.61,0,4.15.65,4.68-.1,4.6-6.54,11.3-4.56,17.45-4.71C531.34,1071,536.17,1071.07,541,1071.07ZM981,731.78c0-7.2-.4-14.43.12-21.59.43-5.84-1.82-10.12-4.75-14.92-4.4-7.21-5.43-8.06-10.72-3-2.3,2.22-4.38,4.7-6.84,6.72-1.77,1.45-2.21,2.32-.64,3.46,5.66,4.09,4,10.32,3.19,15.3-1.11,7,7,11,4.95,17.18-2.59,8,5,12.58,5.54,19.53.21,2.44,4.29,6.49,6.44,6.39,3.71-.18,2.66-4.62,2.69-7.52C981,746.17,981,739,981,731.78ZM672.09,973.4c-6.13-2.13-13.23,7.94-22.89,6.56-1.42-.2-3.17,3.37-5.09,4.76s-1.91,2,.06,3.52c3,2.29,4.87,5.79,9.75,5.62,7-.25,14.07.57,21.1.94,6.41,7.63,15,3,22.44,3.28,2.54.09,6-4.71,7.69-8s-2.11-5.3-3.8-7.85c-2.88-4.35-8.31-3-12-6.28C686.46,973.44,680.45,974.44,672.09,973.4ZM1039,940.85c0-4.82,0-9.63,0-14.45,0-4.57-2.61-6.51-8.19-5.14-7.33,1.82-13.84,6.73-22.15,4.89-2.78-.62-5.09,4.46-3.25,7.26a141.52,141.52,0,0,1,14.33,27.81c1.72,4.54,3.52,4.69,9.12,1.48,1.33-.76,2.48-2.76,3.64-2.7,5.32.28,7-2.12,6.58-7.11C1038.77,948.9,1039,944.87,1039,940.85ZM987.68,1013c8.09,0,12.14-.31,16.12.08,4.92.49,7-3.21,9.55-6s1.81-12.94-.42-12.64c-6.31.83-8.44-6.73-14.75-5.82s-13.95-1.9-18.93.78c-5.14,2.75-9.54,4.49-15.18,4.54-.82,0-2.52,4-2.17,5.89s2.82,3.56,4.11,5.48c2.81,4.18,8.24,3.14,12,6.37C980.94,1014.22,987,1013,987.68,1013ZM417.28,307c-4,0-8-.15-11.93.08-1.37.08-3.64.9-3.84,1.77-.46,2-.75,5,.37,6.3,4.13,4.83,8.81,9.18,13.39,13.61a18,18,0,0,0,3.76,2.41c5.8,3.24,12.77,4.11,17.79,9.17.91.92,4.85.3,6.19-.93,8.87-8.12,9.05-9.61-1.14-17.91-.61-.5-1.58-1-1.64-1.64-1.32-13.2-10.57-13.6-20.56-12.87C418.88,307.07,418.08,307,417.28,307ZM903.62,576c1.31,7.66-3.73,17.17,4.84,24,0,7.25,0,14.5,0,21.75,0,2.88,1.48,4.28,4.23,4.44,1.61.08,3.22,0,4.83,0,11.54.09,13-2.47,8-14.34-.58-1.37-2.35-2.49-2.42-3.79-.27-5.63,1.82-12.36-.58-16.65-3.28-5.84-4.79-11.24-4.37-17.59.25-3.85-1.34-5.72-5.43-5.72-4.66,0-4.07-3.62-4.38-6.77-.08-.8-1.88-1.58-3-2-.3-.11-1.57,1-1.59,1.61C903.57,565.73,903.62,570.57,903.62,576ZM577.09,316.69c8,0,16,.08,24-.14.69,0,1.5-1.91,1.9-3.06.11-.32-1.18-1.65-1.58-1.55-4.79,1.21-6.71-3.5-10.09-4.69-5-1.77-11.46,2.26-15.8-2.21-4.87-5-10.46-2.14-15.69-2.78-3.91-.48-7.91-.25-11.87-.34-3.29-7.55-11.7-2.33-16.45-6.66-5.25-4.79-11.7-2.56-17.75-2.06a2.44,2.44,0,0,0-1.59,1.65c-.08.45.81,1.19,1.39,1.66,2.38,1.92,4.81,5.34,7.23,5.35,5.16,0,6.93,7,12.38,5.14s8,3.79,12.32,5.06c5.72,1.67,10.36,6.24,17.28,4.81C567.34,315.92,572.29,316.69,577.09,316.69ZM575.3,476.27c6.45-3.76,18,5.53,26.38-4.83,8,0,16.12-.52,24.1.16,6.16.54,8.14-4.23,11.49-7.26.83-.75.77-3.2.25-4.53s-2.16-2.78-3.27-2.75c-8.41.22-17.46-2.49-24.53,4.7-7.51,1.11-16.05-3.09-22.33,4.33l-23.91.51a19.38,19.38,0,0,1-2.41,0c-4.9-.53-6.44,4-9.43,6.31a1.73,1.73,0,0,0-.26,1.64c.36.68,1.07,1.65,1.65,1.66C559.46,476.32,565.89,476.27,575.3,476.27Zm251.2,599.64c-8.76,0-17.54.32-26.29-.1-6.65-.32-10.53,5.54-16.51,6.46a2.06,2.06,0,0,0-.19,1.59c.37.67,1.07,1.64,1.64,1.65,6.37.11,12.88.89,19.08-.15,6.92-1.15,11.57,4.26,17.19,4.71,13.46,1.07,27.06.47,40.6.1,1,0,3.17-4,2.69-5.35-1.51-4.4-4.28-8.61-9.53-8.81C845.63,1075.65,836.06,1075.91,826.5,1075.91Zm-279.72-324v.31c7.15-.34,14.31-.64,21.45-1.09.6,0,1.15-1.07,1.72-1.64-.57-.57-1.12-1.16-1.72-1.7-2.83-2.6-4.89-5.74-9.79-5.69-27.39.29-54.78.14-82.18.14-3.22,0-7.79,1.38-9.44-.24-7.49-7.3-16.49-3.69-24.82-4.52-.54-.05-1.75,1.11-1.66,1.46a7,7,0,0,0,1.65,3.39c2.22,2.07,3.74,5.34,7.68,4.78a35.36,35.36,0,0,1,4.83,0h24.18c8.86,0,17.79.69,26.57-.21,8.22-.84,14.89,2.86,22.27,4.73C533.58,753.13,540.34,751.91,546.78,751.91Zm288.78-69.79c9.2,5.42,12.62,19.43,26.83,16.68.46-.09,1.66,1,1.63,1.5-.39,7,5.8,7.18,9.74,10,2.71,1.93,5.5,4.43,8.16,2.59,4.64-3.24-2.45-4.6-1.95-6.51,2.18-8.37-6.1-13.66-5.66-21.74.3-5.35-5.73-9.56-10.53-10.12C853.49,673.28,844.45,676.36,835.56,682.12ZM420.69,384.39c4,0,8.29-.9,12,.19,8,2.34,12.64-5,19.45-5.83,2.35-.29,2.08-1.86.16-3.33-3-2.31-4.88-5.9-9.79-5.71-4.45.17-9.66,2.14-13.26-2.71-3.42-4.6-9.57.61-13-3.42-5.15-6.05-12-2.2-17.93-3.28-.45-.08-1.27.95-1.64,1.62a1.73,1.73,0,0,0,.2,1.63c6.18,3.9,3.41,10.07,3.74,15.32.25,3.92,1.68,5.66,5.63,5.55C411.05,384.29,415.87,384.39,420.69,384.39Zm328.5,686.68c6.44,0,13-.94,19.26.25,7.1,1.37,10.63-6.14,17.36-5.23,5.53.74,11.88,1.72,16.7-.26,5.66-2.33,10.9-5.09,17.18-5.19a1.64,1.64,0,0,0,0-3.27c-4.71-.37-9.44-.67-14.17-.77-5.62-.13-11.25,0-16.88,0-4.83,0-9.82.77-14.43-.22s-8.53,9.39-13,.47c-3.82,5.11-9.22,4.88-14.78,4.64s-11.26-.06-16.89-.06c-.8,0-2-.33-2.34.07-1,1.07-2.5,2.59-2.33,3.71.31,2,1.56,5.56,2.62,5.63C734.7,1071.31,742,1071.07,749.19,1071.07ZM325.55,989.43c8,2.65,12.84-5.51,19.8-6,.85-.06,1.86-3.94,2-6.09.05-1-1.91-2.82-3-2.88-5.62-.3-11.36.45-16.86-.4-2.67-.41-5.06-3.38-7.32-5.46-3.31-3,1.37-3.34,2-5.07,1-2.8,2.18-5.54,3.39-8.26.83-1.86-3.08-14.46-5-14.68-3.13-.36-6.57-.56-9.43.44-1.3.45-2.31,4-2.09,6.07.71,6.75-3.29,14.69,4.54,19.81-1,1.14-2.48,2.12-3,3.46-.84,2-2.2,5.17-1.32,6.34a62.84,62.84,0,0,0,10.12,10.31C320.9,988.41,323.43,988.68,325.55,989.43ZM976.1,964.69c4,0,8,.06,12-.07.6,0,1.16-1,1.75-1.53,1.95-1.76.87-12.33-1.78-12.59-4.71-.47-6.59-1.39-7.47-6.56-.52-3.1-4.64-7.32-7.72-7.89-6.11-1.13-12.65-.44-18.92.31-1.87.23-3.33,3.27-5.13,4.85-3.64,3.19,1.37,3.33,1.72,5.11,1.27,6.42,5.72,10.64,10.07,15.07,2.44,2.49,4.8,3.78,8.29,3.35A59.42,59.42,0,0,1,976.1,964.69ZM307.62,785.76c-1.21.85-3.32,1.58-3.47,2.59-.45,3.13,0,6.37-.2,9.55-.51,7.09,8,11.75,5.22,19.53-.09.25,2.34,2,3.69,2.1,9.17,1,26.29-9.35,29.62-18.38.95-2.59-.12-6.13-.89-9.07-.51-1.94-1.77-1.27-3.38.34s-4.15,3.18-5.81,2.78c-3.51-.84-6.58-3.92-10-4.36-4-.5-7.61-.66-10.4-4.16C311.24,785.79,309.11,786,307.62,785.76Zm424.63,314.33q22.83,0,45.66,0c3.27,0,5.79-3.24,4.8-6.19-.8-2.43-2.31-3.56-5.14-3.54-22.43.12-44.86.07-67.29.07-4,0-8.46-1.09-11.89.31s-5.46,5.54-10.1,4.74c-.46-.08-1.7,1.36-1.59,1.56.59,1.11,1.48,2.92,2.29,2.93C703.41,1100.14,717.83,1100.09,732.25,1100.09ZM398.68,297.35c4,0,8.06,0,12.09,0,4.39-.08,5.77-3.78,3.15-8.5-1.09-2-2.87-3.72-3.45-5.81-2-7.12-6.42-10.46-13.8-9.85-4.67.38-9.67-.11-13.91,1.45-2.68,1-4.94,2.91-8.18,3.68-4.14,1-4.19,11.62-.47,14.21,6.4-2.8,8.28,7.52,15,5C391.91,296.47,395.46,297.35,398.68,297.35ZM655.46,679.7l19.31-1.17c3.81-6.21,10-3.15,15.25-4.1a11.6,11.6,0,0,0,5.58-3c1.49-1.42-1-5.09-4.34-6.56-11-4.92-11-4.6-19.74-5-5.16-.22-8.55,2.19-12.74,4.54-3.68,2.08-9.81-.56-14,1.09-2.94,1.17-7.15,4.06-7.06,8.8,0,1.4.82,3.91,1.52,4C644.72,679.07,650.25,679.32,655.46,679.7Zm-378-68.1c4-4,9.12-7.31,11.5-12.06,1.91-3.84,0-9.44.74-14.11.29-1.93,3.37-3.28,4.53-5.28,1.76-3-.5-7.09-3.71-7.14-5.6-.08-11.41-.94-16.71.32-3.25.77-6.14,4.56-8.28,7.64-.76,1.1.88,4.2,1.88,6.15C271.47,595,271.45,604.54,277.46,611.6ZM594.74,232.67c-2.41-2.41-5-4.06-6.23-6.42-3.19-6.31-10.91-5.14-15.07-9.89-4.69-5.35-10-10.18-15.08-15.16a2.78,2.78,0,0,0-2.11-.52c-1.46.21-3.26.27-4.2,1.16s-1.82,3.29-1.31,4c6.15,8.42,6.24,21.17,15.43,26.6C574,237.06,584.07,235.15,594.74,232.67Zm6,568.24c-.78.78,0,.3.33-.38,2.81-5,2.79-5.07-2.12-5.08-12.89,0-25.78.09-38.67-.09-3,0-4.75,1.42-4.67,3.89.07,2,2.19,5.69,2.57,5.59,5.63-1.53,7.43,6.24,12.56,5.06,5.38-1.24,8.38,3.39,12.58,4.61,4.41,1.28,9.7,1.11,12.63-4C597.43,807.92,598.62,805.19,600.75,800.91ZM505.61,258.66c-3.21,0-6.69-.79-9.53.23s-4.92,3.71-7.06,6c-.4.42.73,3.17.94,3.15,4.57-.58,6.91,4.14,10,4.74,5.33,1,10.52.39,15,5,1.5,1.55,7.5,1.41,9-.21,3.77-4.11,7.9-4.38,12.76-4.57,1.92-.07,3.83-2.26,5.61-3.65a40.25,40.25,0,0,0,3.42-3.37c-1.24-.82-2.45-2.3-3.72-2.34-7.19-.23-14.69,1.11-21.51-.52C515.62,261.91,511.42,257.59,505.61,258.66ZM478,1114.6c6.34,0,12.69-.14,19,.06,2.74.09,4.77-1,5.16-3.35.5-3.11.21-6.67-4.39-6.32-3.95.3-4.91-4-7.58-4.64-3.75-.88-7.87-.12-11.81-.33-1.41-.07-3.32-.49-4.05-1.47-2.5-3.31-4-2.91-7-.17-1.87,1.7-5.72,1.56-8.69,1.61s-4.5,1.46-4.59,4a32.65,32.65,0,0,0,1,9.08c.21.81,2.57,1.45,4,1.49C465.27,1114.68,471.61,1114.6,478,1114.6ZM634.13,800.27c-6.38,0-12.76,0-19.14,0-6,.06-6.31.41-6.35,7,0,6.88.33,7.41,5.91,7.46,8,.07,16-.13,23.92.08,4.13.11,7.55-.4,10.45-3.89,2.09-2.51,8.25.7,8.2-5.82,0-4.15-.94-4.79-11-4.86C642.1,800.25,638.11,800.27,634.13,800.27ZM898,884.13c-1.37-1.37-3.45-2.48-3.46-3.62-.12-10-4.39-6.52-8.8-2.87-11.52-1.58-18.7,8.74-29,10.64-.53.09-1.36,1.18-1.25,1.59a2.6,2.6,0,0,0,1.59,1.66c7.26,1.56,13.37,7.51,21.6,5.55,1.27-.3,3.52.2,4.16,1.12,3.76,5.42,6.46,1.83,8.43-1.18C894,893,895.86,888.38,898,884.13Zm97.17-101.44c-4,7.21,5,13.32,6.64,21.36.43,2.07,3.43,4.07,3.14,5.74-1.74,10.16,7.47,13.11,11.93,19.13.93-1,2.46-1.83,2.66-2.93.41-2.33.84-5.07,0-7.11-2-4.82-6.29-8.85-4.69-14.82-5.12-4.5-4.77-10.87-5.74-16.78-6.72-3.18-2-10.32-5.12-14.62-.71-1-2.76-1.4-4.13-1.28s-3.46,1-3.79,2C995.34,775.49,995.55,778,995.19,782.69ZM589.6,147.44c10.36,0,20.72,0,31.07-.07.58,0,1.28-1,1.66-1.61a1.69,1.69,0,0,0-.14-1.62c-3-2.25-4.44-6.49-9.29-6.44q-23.91.26-47.81,0c-4-.05-4.94,3.5-7.45,5.17-.65.43-1.7,1.47-1.61,1.61.7,1.08,1.62,2.83,2.5,2.84C568.89,147.51,579.24,147.44,589.6,147.44ZM715.32,496.71c-1.31-4.85-8.13-16.54-10.32-18.39-3.46-2.93-9.22-1.85-11.55-6.7-2.69,1.23-3.75,4.29-7.42,4.92-4.88.82-6.47,5.14-3.91,7.87,3.26,3.49,6.21,8.62,10.21,9.74,6.45,1.8,11.26,8.92,18.89,6.19C713,499.72,714.21,497.73,715.32,496.71ZM894,331c0,.85,0,1.64,0,2.42.09,6.51,4.28,9.75,10.46,7.36,4.75-1.83,9.17-4.54,13.61-7.09,4.7-2.69,5.32-7.1,5.07-12.12-.14-2.9-1.44-4.85-3.76-4.71-5.9.36-12.74-2.8-17.27,3.84C895.22,320.89,892.94,324.68,894,331ZM539,1110c2.73.62,5.37-2.54,8.83-4.15,4-1.86,9.34-.6,14.07-1.07,1-.1,1.91-1.74,2.71-2.79a6.34,6.34,0,0,0-1.64-1.63c-2.52-1.69-3.46-5.27-7.54-5.21-13.68.22-27.38.06-41.07.16-.58,0-1.29,1-1.66,1.66a2.14,2.14,0,0,0,.26,1.67c2.88,5.27,9.49,5,13.23,8.67C529.68,1110.78,533.56,1109.29,539,1110Zm63.25-343.86c-3.73.39-9.08-.63-11.17,1.52-4.14,4.25-8.56,3.44-13.17,3.55-4.82.11-10.59-1.64-14.23.43-5,2.82-9.3,5-15.11,4.58-2.46-.2-3.76,5.21-2,7.8a12.39,12.39,0,0,0,1.68,1.72c9.32-9.91,21.27-2.54,31.74-4.88,1.41-.31,3.2-.87,4-1.93,3.51-5,10.34-.54,12.83-3.58,4.43-5.43,10.2-3,15.06-4.88.68-.26,1.59-1.11,1.57-1.66a2.36,2.36,0,0,0-1.59-1.64C608.67,766.72,605.54,766.49,602.24,766.16Zm64.4-435c-8.75,0-17.5,0-26.25.06-.59,0-1.74,1-1.67,1.38a5.81,5.81,0,0,0,1.41,3.33c2.26,1.94,3.53,5.06,7.49,5q19.08-.34,38.17,0c4,.08,5.19-3.11,7.46-5,.83-.69,1.15-2.15,1.33-3.32.06-.37-1.09-1.33-1.7-1.34C684.14,331.17,675.39,331.2,666.64,331.2ZM642.13,967.65c-1-1-1.84-2.83-2.73-2.84-11.85-.19-23.7,0-35.54-.2-3,0-4.37,1.3-4.8,3.73a6.46,6.46,0,0,0,.78,4.35c3.66,5.39,12.2,9.56,15.83,6,5.53-5.37,11.32-4.16,17.34-4.35C637.74,974.25,638.78,969.5,642.13,967.65ZM446.69,273.17a67.87,67.87,0,0,1-7.28-.05c-3.07-.34-4.43,1.34-4.76,3.88a6.16,6.16,0,0,0,1,4.34c3,3.56,6.38,6.17,11.49,7.31,3.2.71,5.5,5.65,10,3a77.51,77.51,0,0,0,11.06-7.21c.63-.53-1.1-5.8-2-5.86C459.3,278.09,454.47,270,446.69,273.17ZM541,816.83c-.08-1.57.29-3.34-.32-4.67-2.91-6.33-10.11-6.59-15-10.18s-11-2.21-16-1.24c-3.07.58-5.53,5.16-10,4.77-.21,0-.6,2.12-.91,3.25,6.89.43,11.33,7.11,19.2,6.38,6.54-.61,14.43-3.27,20,3.64A27.13,27.13,0,0,0,541,816.83Zm60.21,278.32v.1c3.17,0,7.84,1.35,9.25-.23,6.48-7.24,14.61-3.8,22-4.53,3.93-.39,7.94.1,11.87-.21.9-.07,1.75-1.78,2.4-2.86.1-.18-1-1.07-1.59-1.63-1.68-1.68-3.36-4.77-5-4.78-5.32,0-11.22-2.22-15.89,1.4-2.64,2-4.81,3.41-8.26,3.25a146.73,146.73,0,0,0-19,.18c-1.08.09-2.3,3.52-2.63,5.54-.18,1.11,1.1,3,2.22,3.62S599.59,1095.15,601.16,1095.15ZM584.77,369.88c7.15,0,14.3,0,21.45-.07.57,0,1.27-1,1.63-1.64.22-.4.09-1.47-.19-1.6-4.65-2.18-9.24-5.71-14.07-6.07-11.85-.88-23.81-.31-35.72-.22-.57,0-1.27,1-1.64,1.65a1.74,1.74,0,0,0,.2,1.61c3,2.25,4.43,6.58,9.28,6.4C572.06,369.71,578.42,369.88,584.77,369.88Zm315.77,561c9.3,1.94,15.89-4.16,23.08-8.09,4.52-2.46,3.68-4.59-.08-8.49-4.87-5.06-10.65-2.86-15.73-2.43a9.85,9.85,0,0,0-8.85,9.37c-.16,3-2,4.2-3.63,5.73s-1.58,2.53.62,3.39C897.33,930.85,899,930.69,900.54,930.83ZM221.78,652.78c0,3.21-1.33,8.08.23,9.33,6.25,5,4.23,11.42,4.68,17.53.1,1.38,1,3.67,1.84,3.84,2.06.4,4.82.51,6.37-.58a17.83,17.83,0,0,0,6-7c1.44-3.39-2.32-5.31-3.75-7.94-2.45-4.52-3.54-9.77-5.88-14.37-1.38-2.71-4-4.78-6.19-7.05a1.74,1.74,0,0,0-1.64-.22c-.67.37-1.54,1-1.63,1.67A32,32,0,0,0,221.78,652.78ZM771.85,157.11c-6.45,0-12.9-.13-19.33.12-1.2,0-2.34,1.58-3.5,2.44l3.41,3.41c1.14,1.14,2.16,3.09,3.44,3.28,5.32.77,11.22-.71,14.93,5.16.46.73,4.1.71,4.51,0,3.5-5.93,12.05-4,15.28-10.14a8.52,8.52,0,0,1,1.68-1.72c-1.17-.85-2.31-2.38-3.52-2.43C783.13,157,777.48,157.11,771.85,157.11Zm78.59,79.78c1.28,1.29,1.83,2.34,2.42,2.35,4.82.14,9.66.13,14.49.07a12.71,12.71,0,0,0,12-16.27c-.32-1.21-2.08-2.95-3.1-2.9-3.77.16-7.86-1.56-11.2,2.05C860.34,227.28,855.29,232,850.44,236.89Zm-326.16,133c.63,0,5.33-.12,10-.74.78-.11,1.89-2.57,1.74-3.81-.46-3.81-5.65-9.79-8.47-9.9a125.77,125.77,0,0,0-14.27.06c-2.1.15-5.47,1.08-5.87,2.39-.9,2.9-.57,6.3-.11,9.41.14,1,2.17,2.33,3.45,2.48C513.84,370.13,517.05,369.88,524.28,369.88Zm58.51-82.95c2.23-1.12,2-1.92.06-3.42a42.73,42.73,0,0,1-6.69-6.62c-4.17-5.11-9.49-4.89-14.44-2.42-2.62,1.3-4.44,3.77-8,3.81-1.06,0-2.64,3.2-3,5.12-.5,2.65,1.36,4.23,4,4.25,8.65.07,17.3,0,26,0A6.63,6.63,0,0,0,582.79,286.93ZM891.53,635.85c-1.59,0-3.18,0-4.78,0-6.4.06-7.17.67-7.29,6a72.4,72.4,0,0,0,.1,9.55c.15,1.32,1.46,3.5,2.37,3.57a95.07,95.07,0,0,0,14.32,0c.93-.07,2.28-2.21,2.42-3.52a70.57,70.57,0,0,0,.11-9.54C898.66,636.51,897.92,635.91,891.53,635.85ZM872.39,911.49c-3.15,1.39-9.42-2.75-11.77,2.33-3,6.37,4.44,8.84,7.5,12.9.93,1.24,2,2.84,3.34,3.2,2,.54,4.8,1,6.26,0,4.61-3.16,7.74-7.24,6.73-13.65-.45-2.82-1.47-4.3-3.88-4.67S875.88,911.49,872.39,911.49Zm26.4-232.29c0-3.15-.21-6.31.06-9.43.25-2.94-1.26-4.35-3.68-4.81a6.44,6.44,0,0,0-4.34.73c-5.3,3.54-9.55,12.09-6.19,15.78,4.33,4.77,4.62,9.38,4.62,14.83,0,.5,2.88,1.64,3.07,1.4,2.3-2.9,6.76-4.28,6.49-9.07C898.65,685.5,898.79,682.34,898.79,679.2Zm14.45,411.22c3.16,0,6.31,0,9.47,0,1.67,0,9.09-5.05,9.07-6.45-.06-4.94-5.14-1.84-6.28-3.41-4.66-6.4-11.12-4.47-17.14-4.59-4.12-.08-4.93,1.62-4.75,8.47.08,3.33.39,6.32,4.9,6C910.08,1090.33,911.67,1090.42,913.24,1090.42ZM713.34,457.35c6.4,2,12.3-4.48,19.45-6.29.81-.2,1.27-2.53,1.54-3.95.57-2.94-1.31-4.48-3.8-4.59-3-.13-7.45-.67-8.85,1-3.78,4.48-8.28,3.56-12.86,3.77a20,20,0,0,0-6.68,1c-.92.37-1.53,2.57-1.5,3.93s.8,3.63,1.67,3.85C705.25,456.83,708.39,456.86,713.34,457.35ZM627.65,618.66c-2.4-2.41-4.43-6.28-7-6.67-6.3-1-12.85-.49-19.27-.16-1.2.06-2.23,2.19-3.44,3.25-4.08,3.55-3.65,3.52-.94,6.93,4.29,5.42,10.55,6.15,14.59,2.92,4.43-3.54,8.53-3.28,13.15-3.7C625.8,621.13,626.71,619.53,627.65,618.66Zm280.81,259c0,3.95,0,7.9,0,11.86.06,6.94.78,7.58,8.21,7.44,4.88-.1,5.43-.37,2.92-5.57-2.59-5.37-1.41-10.74-1.25-16,.14-4.66-2.05-7.3-5.08-9.83a7.51,7.51,0,0,0-3.34-1.42c-.37-.06-1.37,1.06-1.39,1.66C908.4,869.78,908.46,873.74,908.46,877.69ZM698,307c1.57,0,3.14,0,4.7,0,9.05-.29,13.23-5.51,12.36-15.39-.24-2.72-4.74-5.23-6.89-4-5.09,3-7.16,10.42-14.81,10-.71,0-2.3,3.71-2.31,5.7,0,2.36,1.62,4.23,4.6,3.72A14.17,14.17,0,0,1,698,307ZM832.8,906.66c-1.54.16-3.89-.23-4.44.59-1.19,1.77-1.57,4.13-2,6.31-.1.48.85,1.21,1.35,1.79,5.66,6.45,15.2,7.81,20.1,15.27.88-1.09,2.31-2.09,2.52-3.3.41-2.33,1.1-5.55-.06-7.05a121.36,121.36,0,0,0-12.76-13.5C836.65,906,834.4,906.66,832.8,906.66Zm-136.94,9.67c-3.14,0-6.31.24-9.43-.06-3.88-.38-5.16,2.91-7.5,4.73-2,1.59-2.45,3-.24,5.07,3.19,3,4.57,4,6.74,2.92,2-1,3.84-2.71,5.84-2.85,5.48-.4,11,0,16.5-.31.87-.05,2.39-2.4,2.25-3.52-.25-2.06-1.23-5.48-2.42-5.71C703.82,915.86,699.79,916.33,695.86,916.33Zm-18.3-464.24c-4,0-8.42-1-12,.3-3.19,1.15-6,4.47-7.93,7.52-1,1.65,9.93,8.27,11.27,6.56,3.43-4.41,7.66-4.87,12.65-4.9,1.92,0,3.89-2.17,5.7-3.53a36.66,36.66,0,0,0,3.44-3.39c-1.16-.85-2.26-2.3-3.5-2.44A88.68,88.68,0,0,0,677.56,452.09Zm332.38,420.72c2.91,0,4.49.12,6,0,3.28-.31,5.92-4.92,3.53-6.89-3.92-3.22-3.83-8-6.33-11.6-3.41-4.88-9.19-7.1-11.35-4.74-3.1,3.38-2.17,8-1.1,11,1.11,3.23,5.29,5.24,4.77,9.9C1005.41,871.21,1009.08,872.37,1009.94,872.81ZM922.69,955c2.46,0,5.19.72,7.06-.23,1.5-.78,3.16-4,2.67-5.42-1.52-4.31-4.24-8.27-9.4-8.79a87.36,87.36,0,0,0-11.78,0c-2.27.08-3.93,5.73-2.16,7.76C912.68,952.41,916.17,957,922.69,955ZM882.07,626.18H893.9c.79,0,1.9.33,2.3-.06,1-1,2.48-2.38,2.45-3.56-.1-3.7,1.72-8.07-2.31-10.74-1.1-.73-3.92-.79-4.51,0-3.25,4.18-7.33,5.48-12.33,4.73-4-.59-5.06,3.16-7.36,5-.8.65-1.08,2.13-1.23,3.28,0,.38,1.08,1.28,1.7,1.31C875.76,626.25,878.92,626.18,882.07,626.18Zm37.42,24.18c1.57,0,3.14,0,4.72,0,3-.05,6.23.66,8.45-2.4,1-1.43-1.92-7.45-4.94-9.77-5.85-4.5-12.18-3.4-17.73,3.59-1.2,1.52-1.35,4.23-1.17,6.31.08.86,2.26,2,3.61,2.17A46.12,46.12,0,0,0,919.49,650.36Zm-215,227.28a20.54,20.54,0,0,0-4.79.09c-1.36.34-2.54,1.39-3.81,2.12,1,1.11,1.75,2.52,3,3.27A163,163,0,0,0,714,892c1.89.93,4.66.41,7,.08s4.33-1.71,3.72-4.64c-.29-1.4-.93-3.87-1.5-3.9C716.33,883.26,712,875,704.49,877.64Zm133.57-706c6.33,0,12.66.11,19-.13.9,0,1.8-1.76,2.5-2.83.09-.13-1-1.48-1.59-1.55-5.23-.6-10.45.35-14.92-4.65-1.77-2-7.51-.31-11.42-.55-4.83-.29-6.22,4.17-9.22,6.4a1.71,1.71,0,0,0-.17,1.6c.36.67,1,1.62,1.63,1.63C828.58,171.67,833.32,171.62,838.06,171.62Zm26.88,406.17a34.77,34.77,0,0,1,0,4.8c-.41,2.93,1.25,4.23,3.64,4.88a4.59,4.59,0,0,0,6-4.75c-.18-5,.47-9.08,4.77-12.38.7-.53-.24-4.8-1.6-6s-4.69-1.14-6.12-.14C867,567.41,863.19,571.43,864.94,577.79Zm-152.1,0c4.75,0,9.51.2,14.24-.16.9-.07,2.43-2.42,2.28-3.53-.26-2.06-1.38-5.6-2.44-5.71-5.48-.58-11.07,0-16.59-.34-4-.22-5.12,3.17-7.41,5.06-.81.67-1.12,2.14-1.28,3.3,0,.38,1.09,1.29,1.7,1.32C706.5,577.9,709.67,577.82,712.84,577.82ZM513.13,911.49a50.91,50.91,0,0,0-7.1.07c-2.46.35-4.2,1.69-3.81,4.69.2,1.55,0,3.16,0,4.73.17,3.53,3.17,6.16,5.84,5,4-1.77,6.94-5.68,11.88-5.8.57,0,1.25-2.49,1.57-3.9.67-3-1.27-4.23-3.71-4.72A24.76,24.76,0,0,0,513.13,911.49Zm66.53-304.71c-.11-1.06.07-2.27-.33-2.51a7.49,7.49,0,0,0-3.21-1c-2.07,4.34-7.72,2.09-9.92,5.1-3.69,5.06-8.69,2.56-13.11,3.42-.69.14-1.74,2.45-1.39,3.18,1.41,3.06,5.71,3.82,10.08,2.52a26.85,26.85,0,0,1,6.81-1C575.21,616.34,578.2,612.31,579.66,606.78ZM509.51,505.29c.78,0,1.56,0,2.35,0,5-.09,5-.11,2.42-4.87-.7-1.29-1.68-2.43-2.33-3.74-.95-1.91-1.33-5.22-2.66-5.62a16.65,16.65,0,0,0-9.23,0c-1.33.4-3,4.22-2.42,5.54C499.86,501.48,503,505.93,509.51,505.29ZM367.35,600.17c-2.17,8.15,1.48,12.21,6.06,15.38,1.45,1,4.84,1,6.1,0s2.42-4.71,1.63-6c-1.94-3.16-5.66-5.19-4.89-9.92.08-.49-3.8-2.4-5.68-2.2C369,597.58,367.65,599.88,367.35,600.17Zm238.82,84c4.75,0,9.55.38,14.21-.26,1.15-.16,2.51-3.58,2.6-5.56.12-2.45-1.7-4.68-4.47-3.74-3.45,1.16-6.47,3.8-10,4.54-3.79.81-7.89,0-11.83.33-.66.05-1.36,2-1.67,3.12-.1.35,1,1.47,1.61,1.5C599.83,684.29,603,684.21,606.17,684.21ZM741.69,897c-.83,1.21-2.43,2.51-2.31,3.61.22,2.08,1.72,5.86,2.2,5.79,4.71-.72,6.81,2.81,9.93,4.89,1.23.82,4.66-.24,6.11-1.53,2.21-2,1-7.76-1.47-7.64-4.69.23-6.91-2.57-9.86-5C745.36,896.34,743.26,897,741.69,897Zm50.48-4.83c-3.85,0-6.11-.64-6.8.13a11.26,11.26,0,0,0-2.48,5.8c-.13,1.11,1.55,3.57,2.16,3.48,4.52-.61,7.1,2.08,9.67,5,2.19-2.13,4.72-4,6.35-6.54.41-.63-1.73-3.53-3.23-4.69A32.11,32.11,0,0,0,792.17,892.15ZM497.46,771.26c2.38,0,4.85.38,7.1-.17a4.32,4.32,0,0,0,2.36-3.5c-.26-2.07-1.33-5.58-2.44-5.73a67,67,0,0,0-14.23-.11c-.92.07-2.47,2.39-2.33,3.5.26,2.07,1,4.94,2.53,5.77C492.28,772,495.08,771.26,497.46,771.26ZM845.74,321.53c-3.94,0-8-.46-11.79.26-1.25.24-2.35,3.47-2.69,5.47-.19,1.11,1.2,2.62,2.15,3.72.35.41,1.49.07,2.23.23,7.52,1.66,12.17-5.09,18.68-6.4a2,2,0,0,0,.15-1.58c-.37-.66-1-1.58-1.63-1.63C850.49,321.42,848.11,321.53,845.74,321.53Zm17.09,29.15c2.31-.38,4.6-.14,5.1-1,1.1-1.81,2.41-4.81,1.63-6.2-2.28-4.09-11.66-4.15-14.08-.09-.81,1.35.21,4.92,1.58,6.12S861.37,350.45,862.83,350.68ZM693.18,210.39c1.4-1.4,2.42-1.95,2.42-2.5,0-1.88-8.62-7.69-11-7.18s-4.09,2.13-3.42,4.92c.33,1.38.92,3.66,1.72,3.81A92,92,0,0,0,693.18,210.39Zm17,25.42c.88-4.86-3.43-6.44-5.5-9.4-1.38-2-2.09-2-3.36,0-1.4,2.28-3.13,4.36-4.6,6.61-.06.09,1.11,1.44,1.6,1.37,3.34-.46,6.08.44,7.87,3.34,1.25,2,2.23,2.08,3.29-.09A18.54,18.54,0,0,0,710.13,235.81Zm17.23,32.28a15.62,15.62,0,0,0-1.94,2,3.67,3.67,0,0,0-.68,2c.36,6.09,4.09,9.26,9.62,10.73.72.2,1.86.35,2.23,0,.82-.85,2-2.71,1.75-3C734.81,275.76,731.06,272,727.36,268.09ZM847.77,872.81v.07c-1.55,0-3.87-.64-4.5.13a9.75,9.75,0,0,0-2.34,5.92c.08,2.34,1.85,3.72,4.74,3.63,4.74-.14,5.82-4.72,9-6.71-.72-1-1.26-2.56-2.23-2.92C851,872.43,849.33,872.81,847.77,872.81ZM799.66,979.19a88,88,0,0,0-9.48.15c-.7.08-1.38,1.95-1.71,3.11-.09.35,1,1.49,1.61,1.51,4.74.13,9.49.19,14.22-.07.66,0,1.38-2,1.7-3.11.1-.35-1-1.42-1.61-1.51A32.41,32.41,0,0,0,799.66,979.19ZM714.06,336c5.06,0,9,.07,13-.07.59,0,1.71-1.16,1.61-1.51a7.68,7.68,0,0,0-1.77-3.18c-.38-.4-1.51-.07-2.3-.07-3.16,0-6.33-.16-9.48.07-1.39.1-2.72,1-4.08,1.54ZM386.22,326.4c0,4.23-.91,7.84,2.44,9.27.81.35,3.26-2.79,4.75-4.51.76-.88,1.8-2.76,1.48-3.13a87.59,87.59,0,0,0-6.42-6.36C387.53,323.59,386.23,325.5,386.22,326.4ZM730.9,307c.75-.8,2.85-2.06,3.32-3.76,1-3.67-1.09-5.69-4.74-6-3-.23-4.28,1.37-4.73,3.79C724,304.85,725.93,307,730.9,307Zm-98.24,65.13c.69-4.95-1.08-6.88-4.73-7.17-3-.23-4.28,1.37-4.73,3.79-.71,3.78,1.21,6.25,4.83,5.82C629.86,374.37,631.53,372.78,632.66,372.15ZM737,389.23a8,8,0,0,0,2.3,0,42,42,0,0,0,4-1.6,15.25,15.25,0,0,0-1.75-3.24c-1.49-1.66-4.25-4.68-4.7-4.39a32.4,32.4,0,0,0-6.59,6.39c-.17.21,1.21,2.4,2.19,2.75C733.78,389.6,735.45,389.23,737,389.23ZM206.89,723.52c1.18,1.79,2,3,2.8,4.21l1.64-1.64a30.73,30.73,0,0,0,3.24-3.32,14.87,14.87,0,0,0,1.42-3.25c-2.12-.47-4.64-1.86-6.23-1.15S207.71,721.91,206.89,723.52Zm283.39-24.8c-1.57,0-3.28-.38-4.66.13-.91.34-1.49,1.93-1.86,3.07-.11.34,1,1.53,1.57,1.56a59.23,59.23,0,0,0,9.42-.07c.74-.08,1.45-1.91,1.82-3.06.1-.34-1-1.46-1.58-1.56A32.12,32.12,0,0,0,490.28,698.72Zm238.49,301.47c-1.42-2.43-6.19-2.52-8-.09a1.8,1.8,0,0,0-.11,1.6c1.34,2.47,6.15,2.54,8,.11C728.9,1001.44,728.73,1000.74,728.77,1000.19ZM686.61,365.43l4.24-2.8c-1.22-.8-2.53-2.37-3.65-2.25-2.06.22-4,1.45-6,2.25Zm-460.76,214c-1.42-2.42-6.19-2.51-8-.09a1.8,1.8,0,0,0-.11,1.61c1.34,2.46,6.15,2.54,7.95.11C226,580.73,225.81,580,225.85,579.47Zm53.27,196.29c-1,1-3.41,2.66-3.16,3.45.83,2.61,6,2.58,7.77.16.27-.37.31-1.46.11-1.57C282.58,777.13,281.22,776.64,279.12,775.76ZM656.31,128.43c2.1-.88,3.46-1.37,4.72-2.05.2-.1.16-1.19-.11-1.56-1.8-2.43-6.94-2.45-7.77.16C652.9,125.77,655.32,127.4,656.31,128.43Zm-98.71,563c-4-1.19-6.09-2.2-8.16-2.26-1.2,0-2.44,1.46-3.66,2.26,1.22.81,2.46,2.3,3.66,2.27C551.51,693.67,553.56,692.66,557.6,691.46Zm-78.83-339.2,1.72,3.12c.54-.54,1.6-1.19,1.52-1.59a15.43,15.43,0,0,0-1.52-3.25C480,351.08,479.42,351.62,478.77,352.26Zm80.82,552.68-1.72-3.12c-.54.54-1.61,1.19-1.52,1.59a15.43,15.43,0,0,0,1.52,3.25ZM395.17,885.59l-1.72-3.11c-.54.54-1.6,1.19-1.51,1.59a14.62,14.62,0,0,0,1.51,3.24Zm603.45-124.7,1.72-1.72a15.2,15.2,0,0,0-3.25-1.52c-.39-.09-1.05,1-1.59,1.52Zm-410-10.7-1.72-3.11c-.54.53-1.6,1.19-1.51,1.59a14.83,14.83,0,0,0,1.51,3.24ZM881.86,495.62c-.53.53-1.6,1.19-1.51,1.59a15.31,15.31,0,0,0,1.51,3.24c.54-.54,1.6-1.19,1.52-1.59A15.13,15.13,0,0,0,881.86,495.62ZM530.57,692.16l-1.72-3.11c-.54.53-1.6,1.19-1.51,1.59a14.83,14.83,0,0,0,1.51,3.24Zm469.07-91.88-1.72-3.11c-.53.53-1.6,1.19-1.51,1.59a14.83,14.83,0,0,0,1.51,3.24Z"/><path d="M424.89,1033.14l-2,3.67c-.95-1.59-2.57-3.15-2.62-4.76-.05-1.36-2.46-5.07,2-4.36,1,.16,1.88,2,2.56,3.23C425.15,1031.49,424.88,1032.39,424.89,1033.14Z"/><path d="M440.09,1048.62l1.72-1.73a15.89,15.89,0,0,1,1.51,3.25c.09.4-1,1-1.51,1.59Z"/><path d="M956.82,359.8c1.13-1.18-2.35-5,2.27-4.28,1,.17,2.34,2.12,2.44,3.34a51.22,51.22,0,0,1-.34,9c-.06.58-1.4,1.62-1.5,1.55-1-.75-2.55-1.56-2.74-2.58C956.53,364.61,956.82,362.26,956.82,359.8Z"/><path d="M570,650.52c-.25,3.72-1.84,5.11-6,4.58-1.3-.17-2.44-1.52-3.66-2.32l1.65-1.64a30.64,30.64,0,0,1,3.31-3.24,15.31,15.31,0,0,1,3.25-1.42Z"/><path d="M441.81,602a14.9,14.9,0,0,1,1.51,3.25c.09.4-1,1-1.51,1.59a15.43,15.43,0,0,1-1.52-3.25C440.21,603.19,441.27,602.54,441.81,602Z"/><path d="M676.45,901.83c-6.14-.28-12.37,1.57-17.23-4.72-3.37-4.36.79-4.92,2.17-6.78,1.09-1.47,2.57-4.15,5-1C669.53,893.64,675.23,895.89,676.45,901.83Z"/><path d="M647.27,886.43c.2,4.51-1.85,6.36-3.24,4.57-2.61-3.38-6.34-3.32-9.66-4.61a3.09,3.09,0,0,1-1.51-1.63c-.87-2.26-.09-2.67,2.27-2.37,3,.38,6.23-.43,9.1.3C645.74,883.08,646.69,885.66,647.27,886.43Z"/></svg>