<svg id="Layer_1" data-name="Layer 1" xmlns="http://www.w3.org/2000/svg" viewBox="0 0 1200 1200"><title>BB_Artboard 77</title><path d="M873.18,108.51c19.09-6.72,24-7.69,27.13-2.6,3.29,5.37,7.92,10.25,9.8,16.06,1.7,5.2.42,11.36.51,17.09.09,6.84,2.58,9.88,7.21,8.85,5.16-1.15,3.87-5.28,4.4-8.89,1.16-7.89-8.9-11.8-6.22-20.77,1.85-6.16.36-13.32.36-20v-23c0-6.71.35-13.45-.09-20.14-.57-8.88,3.29-14.15,11.64-16.56,1.69-.49,3.77-.92,4.82-2.12,2.77-3.19,6.63-5.41,9.71-3,3.41,2.71,8.44,5,8.47,10.71,0,1-.08,1.93,0,2.88,1,10.27-3.54,21.73,2.28,30.63,6.65,10.19.59,20.66,3.74,30.22,2.25,6.86,6.83,12.63,5.7,20.77-1,7.53,0,15.33-.28,23s8.67,11.75,6.21,20.75c-2,7.15-.72,15.27-.26,22.92.26,4.5,6.57,6.26,5.83,12-.58,4.49-.43,9.7,1.39,13.69,1.46,3.22,4.59,5.47,4.27,9.81-.42,5.73-.1,11.51-.1,17.26s.95,11.72-.24,17.22c-1.49,6.88,6,9.24,6,14.94,0,1.92,0,3.84,0,5.76,0,7.67-.11,15.35,0,23,.14,7.27-2.22,15.27,5.47,20.54-3.82,3.1-6.19,5.4-1.21,10.54,2.5,2.58.52,9.08,1.62,13.54,1.26,5.13,4.49,9.83,5.38,15,1,5.59-1,11.87.6,17.11,1.49,4.72,7.38,8.13-.15,12.93-1.31.84-.12,5.46-.25,8.32-.27,5.84,7.75,8,6,14.94-1.14,4.51-.21,9.55-.21,14.34,0,5.76.52,11.58-.14,17.26-.73,6.29,4,10.15,5.38,15,2,7.12.24,15.22.59,22.88.45,10-3.08,20.81,5.55,29.42.72.73,0,3.79-1,5.14-1.86,2.67-6.48,4.5-1.32,8.23a5.39,5.39,0,0,1,2,2c2.58,6.87-2.74,14.7,3.91,21.54,5.83,6,1.78,14.6,2.06,22,.64,16.29.48,32.62.09,48.93-.2,8.53,8.6,13.91,6.27,23.62-2,8.16-.4,17.17-.4,25.8v23c0,8.64.59,17.33-.17,25.89-.7,7.91,9.18,11.57,6.36,20.79-2.15,7-.43,15.22-.43,22.9,9.66,12.5,4.34,27.12,5.83,40.78.79,7.28-3.2,15.75,3.12,21.61,5.61,5.2-1.18,13.56,5.9,17.85,4.09,2.48,2.33,6.9,2.35,10.47.14,24-.18,48,.21,72,.13,8.08-3.53,17.45,5.61,23.53-1.43,7.1,3.33,15.37-4,21.34-2,10.7-5.18,20.75-12,29.67-1.91,2.5-1.19,7.21-1.21,10.91-.1,18.23-.25,36.47.08,54.69.11,5.86-4,8.36-7.41,11.25-1.66,1.43-5.4,1.79-7.53.94-2.46-1-4-4-6.23-5.82-5.35-4.45-8.31-9.29-8-17,.75-17.24.16-34.53.29-51.8,0-4.84-.82-8.66-4.09-12.87-2.27-2.91-2.81-10.41-.67-12.94,9.26-10.95,4.54-20.27-.95-30.42-6.39-11.78-11.75-14.85-24.41-12.35-3.71.73-10.17,8.18-10.21,12.09-.1,8.64,0,17.27-.05,25.91-.06,6.24-5.54,12.88-11.37,13.8-6.07.95-11.45-.3-14.71-6a19.24,19.24,0,0,1-2.57-7.52,85.25,85.25,0,0,1,0-14.38c.39-4.68-3.34-6.4-5.59-9.24-4.12-5.2-5.82,1.83-8.13,1.63-11.43-1-20.17,9.88-31.88,6.8-.9-.24-2.63-.33-2.77,0-4,9.57-14.1,3-20,7.64-2.06,1.64-4.85,3.9-7,3.61-9.69-1.33-16.24,9.43-26.47,6.12-6.77-2.19-12,2.62-17.89,5.25-4.8,2.15-11.1.83-16.66,1.57-.84.12-1.82,3.12-1.77,4.76s1.29,4.64,2,4.65c9.92,0,20.73,5.19,29.13-4.49,8.59-.12,17.18-.13,25.76-.39,7.31-.23,15.47,2.41,20.73-5.66.29-.44,1.83,0,2.79-.07,5.8-.1,8.22,7.81,14.8,6.31.47-.1,2,2.83,2.43,4.5,3.4,14.65-5.35,22.77-16.31,29.44-3.78,2.29-7.79,4.62-12,5.65-7.25,1.78-16-3.12-22,2.17s-12.44,3.18-18.73,3.68c-7.32.58-15.39-1.95-20.64,5.83-7.16,1-15.33-3.22-21.3,4.35-.88,1.12-3.35,1.28-5.1,1.36-8.53.35-17.07.53-25.61.77-6.51,8.4-15.88,3.36-23.78,5.18-5.13,1.18-9.82,4.51-15,5.4-5.59,1-11.47.22-17.23.22-8.37,9-19.36,5.71-29.27,5.46-7.92-.2-12.29,8-20.71,6.32-6.43-1.31-13.36-.23-20.07-.21-7.07,9.92-18,2.92-26.27,6.09-6.76,2.6-12.9,6.46-20.48,6.12-5.46,8.07-13.85,5.14-20.93,4.63-4.3-.31-7.58-7.68-12.86,0-3.74,5.43-4.88,12.11-1.57,15.37,6.89,6.77,3.26,14.29,4.49,21.41,1.65,9.51-2.79,15.85-9.29,22.2-4.53,4.43-6.67,3.86-10.59-.24-1.43-1.49-5.39-.8-8.19-.7-4.8.16-6.76-2.08-6.55-6.73.13-2.87,0-5.75,0-8.63,0-12.47.86-25-.22-37.4-1.28-14.6,5.77-30.37-5.54-43.69,0-6.72.12-13.44,0-20.15-.11-4.67-.53-9.33-1-14-.07-.65-1.38-1.75-1.92-1.64-.79.16-2,1.28-2,1.89.93,10.56-4.72,17.53-12.25,23.8-5,4.19-11.78,4.86-15.3,1.32-6.8-6.82-14.3-3.4-21.49-4.05-1.07-.1-3.37,2.32-3.43,3.65-.33,7.66.7,15.47-.43,23-.91,6-4.2,11.62-6.56,17.36-.32.77-1.49,1.9-2,1.78-14.48-3.16-19.23,9.86-27.79,16.5a2,2,0,0,1-1.94-.38c-3.09-4.67-7.69-4.63-12.57-4.61-3.62,0-9,.34-10.5-1.72-3.35-4.62-9.16-2.28-12.17-5.89-2.7-3.25-6.65-5.71-9.67-3.31-4.1,3.25-9.35,6.22-8.82,13.53.76,10.5.25,21.1.16,31.65,0,3.85-6.83,11.73-10.39,11.85-6.71.21-13.44.25-20.14-.1-1.38-.07-3.8-2.14-3.81-3.31-.13-15.29.1-30.59.23-45.88,9.09-7.39,5.16-17.62,5.18-26.57Q335,892.55,334.52,717c-.06-14.54,5.58-30.32-5.47-43.67,2.58-12.61-5.64-26.65,5-38.32.26-.28-1.45-2.9-2.68-3.88-3.76-3-2.1-7-2.21-10.61-.25-7.66-.07-15.34-.07-23V571.56c0-7.67-1-15.51.25-23,1.36-8.29-3.44-14-5.81-20.76-1.19-3.42-.2-7.6-.2-11.44,0-8.64.25-17.28-.08-25.9-.31-8.07,2.79-17-5.3-23.37,8.52-4.48,1.08-8.41-.25-12.7-.47-1.51,0-4.34,1-5.14,7.92-5.82,3.57-14.07,4.59-21.22-8.32-7.4-5.57-17.3-5.62-26.4,0-4.71-4.7-5.9-5.46-9.18-.36-1.54,3.14-4,4.89-6-7.4-4-4.29-11.67-6.16-17.6a3.13,3.13,0,0,0-2-1.92c-.59-.07-1.8,1-1.94,1.77a45.86,45.86,0,0,0-1,8.24c-.07,24-.35,48,.14,72,.16,8-3.54,17.33,5,23.76-1.08,11.71,5.66,24.29-4.67,35.15-1.94,2-2,9.32-.22,10.81,7.32,6,5.42,13.66,5.43,21,.07,61.41-.08,122.82.17,184.22,0,9-3.12,19,5.41,26.65.81.72-.93,5.15-2.33,7.31-5.07,7.83-4.52,15.55-.41,23.44.68,1.32,2,3.74,1.73,3.92-7.92,5.79-4.22,14.09-4.39,21.26-.42,18.22-.91,36.5.15,54.67.63,10.78-5.44,23,5.23,32.27-1.8,2-3.6,4.07-5.41,6.1,10.85,9.17,4,21.46,5.46,32.23,1,7.29,1.35,15.13-5.57,20.62,0,6.72.17,13.44-.13,20.14a6.78,6.78,0,0,1-2.76,4.51c-8.19,5.5-9.13,13.45-8.73,22.4.46,10.53.1,21.1.1,31.66v40.29c0,6.72-.94,13.61.25,20.11,1.38,7.52-4.92,11.72-5.83,17.83a58.12,58.12,0,0,0,0,17.22c1.23,7.87-3.15,12.18-8,17-4.23,4.19-8.11,7.55-14.72,6.51-4.68-.73-9.6.13-14.35-.33-1.25-.12-3.22-2.5-3.25-3.87-.11-5.63.39-11.28.67-16.92,7.25-4.51,4.84-11.77,4.86-18.11q.18-74.84-.05-149.68c0-7.18,3-15.27-4.92-21.11-1.46-1.08-.86-5.39-.66-8.16.54-7.23-2.76-15.55,5.51-20.73-6.47-4.45-5.81-11.07-5.62-17.69.22-7.67.32-15.36-.06-23-.21-4.24,1.45-6.93,4.14-9.94,1.44-1.62,2-6.6,1-7.36-5.56-4.11-5.27-9.62-5.09-15.35.12-3.84-.45-7.75.11-11.5,1.76-11.78-5-24.75,4.82-35.4-8.71-10.56-4.46-23.07-4.72-34.69-.6-26.85.19-53.74-.39-80.59-.21-9.89,4.26-20.76-5.11-29.64-1.94-1.83-.44-7.34-.44-11.15,0-28.79.61-57.59-.31-86.35-.38-11.69,5.82-24.84-5.33-35.18-1-.89-.13-3.7-.13-5.62v-23c0-8.63.08-17.27,0-25.9-.08-7.37,1.59-15.27-5.73-20.65v-25.9c-7.86-8.6-5.55-19.21-5.73-29.28-.16-9.59,0-19.19-.07-28.79,0-2.76-.06-5.69-1-8.21-.42-1.13-3-1.68-4.72-2.07-3.59-.82-5.64,1.55-5.55,4.49a12.34,12.34,0,0,0,3.11,7.22c4.14,4.64,2.69,8-1,12.09-1.61,1.78-2.92,6.73-2.14,7.32,6.37,4.84,5.66,11.36,5.6,18-.15,18.23-.76,36.5.19,54.68.67,12.7-4.57,26.21,5.17,38.21,2.35,2.89.35,9.31.35,14.11,0,52.77-.46,105.55.31,158.31.2,13.58-5.35,28.25,5.18,41,1.88,2.28.27,7.45.27,11.29,0,36.46-.66,72.94.3,109.37.41,15.53-5.27,31.89,5.13,46.79,2.25,3.23.32,9.37.32,14.16,0,34.54-.23,69.09.18,103.63.09,8-3.18,16.91,4.77,24,2,1.77.78,7.23.79,11q.06,44.63,0,89.23c4.15,8.58-6.78,12.75-5.91,20.66.74,6.64.25,13.42.13,20.14s-6.42,9-10.05,13c-4.59,5.18-17.44,6.69-23.16,2.7-2.92-2-6.64-5.58-6.68-8.49-.09-6.23-3.25-13.21,2.69-18.94,1.7-1.65,2.52-4.91,2.56-7.45.23-15.35.18-30.7,0-46.05,0-1-2.21-2-3.39-2.95-7.78,13.34-20.81,10.74-32.93,10.79-.77,0-1.55-.85-2.32-1.31-.51-1.71-1.42-3.41-1.44-5.13-.14-10.55-.07-21.11-.07-31.66,0-1-.42-2.29.06-2.82,7.74-8.68,5.5-19.26,5.66-29.34.16-9.59,0-19.19,0-28.78,0-29.75.18-59.49-.13-89.23-.08-7.17,3.29-15.51-4.78-21,1-4.66,9.16-8.2,3.21-13.72-4.19-3.9-4.15-8.07-4.08-12.82.09-6.71,0-13.43,0-20.15,0-75.8-.3-151.6.37-227.39.08-9.85-9-15.93-6.56-26.5,2.08-9.12.43-19.1.43-28.69V383.81c0-9.59-1.16-19.38.36-28.73,1.26-7.8-6-11.34-6.1-17.82-.09-6.71,0-13.43,0-20.15s1-13.61-.28-20.09c-1.14-6-6.74-10.48-5.71-17.85,1.06-7.53.23-15.32.23-23,0-6.71.38-13.46-.1-20.14-.51-7.19,3.31-15.51-4.77-21-.29-9.47-2.23-19.3-.28-28.28,1.21-5.58,8-10.22,12.92-14.56,1.71-1.51,5.38-1.41,8-1.07,2.49.32,7,2.31,6.9,2.88-1.07,5.81,5.59,8.26,5.68,12.08.16,6.93,3,12.05,5.73,18,2.2,4.73.44,11.31.44,17.07,0,14.39-.12,28.78.11,43.17.05,3,2,5.22,8.73,10.09,2.58,1.95,2.64-1,1.61-3.42-.48-1.15-3.06-1.43-4.69-2.1.9,4.65-5.81,6.07-5,8.82.9,3.2,5,5.51,7.67,8.21,1.26-2.13,2.52-4.27.45-11.51-3.08-12.23-2.83-19-3.15-25.66s-.46-13,5.49-17.63c-7.27-4.31-5.25-11.48-5.38-17.9-.16-7.68-.13-15.36,0-23,.12-8.25-1.54-16.69,5.47-23.77,2-2-.41-8.34,1.57-10.59,4.2-4.76,10.74-1.23,16.23-2.06,3.5-.53,4.37,1.92,5.61,4.73,3.36,7.56,7.14,14.85,5.76,23.59-.25,1.55,1,3.35,1.6,5,1.35-.58,2.94-.9,4-1.81a42.82,42.82,0,0,0,6.11-6.08c2.94-3.73,6.92-2.12,10.52-2.45,4.92-.44,5.36,2.69,6.73,6.66,2,5.91,7.47,10.81,5.39,17.85-2.68,9.09,5,15.5,5.68,23.55.63,7.62.14,15.34.14,23,10.64,10.24,5.12,23.33,5.27,35,.09,6.66,6.48,9,6.28,14.88-.16,4.78-.08,9.58.11,14.36,0,.7,1.59,2.06,1.9,1.92,1.34-.62,3.49-1.61,3.55-2.57a110.39,110.39,0,0,0,0-17.25c-.64-6.39,3.18-13.67-2.41-19.06-6.51-6.28,5.74-8.23,2.65-13.67-.82-1.45.71-4.62-.25-5.55-7.92-7.68-5.52-17.39-5.58-26.54-.15-22.06-.09-44.13,0-66.2,0-6.19,6.63-16.72,12.8-21a60.3,60.3,0,0,0,6.54-5c3.51-3.27,6.88-6.69,10.19-10.16,4-4.22,9.72-2.88,13.37-1.58s8,6.39,8.5,10.28c1.22,9.44.65,19.15.29,28.73-.18,4.69,3.39,6.39,5.64,9.23,2.06,2.6,3.89,2.92,6.16.11,1.8-2.23,4.06-4.08,6.05-6.15,3.09-3.22,6.08-3.07,9.89-.8,11.2,6.66,13.07,5.87,12.5-6.13-.43-9,3.84-19.16-5.07-26.62-.17-8.56-.11-17.14-.61-25.68-.27-4.71,3.07-6.77,5.76-9.12,4.06-3.55,6.4-9.7,13.55-9,4.61.46,9.23-.8,9.86,6.55.35,4.14,4.81,7.91,5.23,12.06,1,10.36.82,20.84,1.1,31.28,9,7.57,3.24,17.84,5,26.73a6.19,6.19,0,0,0,3.34,3.91c1.58.61,4.64.63,5.34-.34,1.49-2.06,3.35-6.21,2.46-7.23-3.92-4.47-6-8.9-5.66-15.11.55-11.49.28-23,.11-34.53-.09-5.89,8-8.19,6.23-14.86-.12-.44,2.83-2.38,4.44-2.5,4.77-.34,10.1-1.41,14.23.25,3.88,1.56,7.47,5.77,9.39,9.69,1.52,3.09.07,7.54.37,11.36.34,4.46-1.92,9.57,2.87,13.08,2.71-2.71,5.46-5.39,8.13-8.15,1.92-2,3.23-3.45,6.27-.71,2.49,2.23,7.84,2,9.42,4.41,6.84,10.6,16.82,10.59,27.6,10.37,19.18-.4,38.52-1.55,57.5.45,10.49,1.11,16.5-8.18,26.51-6.6,8.4,1.33,17.2.22,25.82.2,7.11-9.84,17.55-4.15,26.43-5.69,5.34-.92,8.22-7.39,14.93-5.94,4.58,1,11.06,2.15,14.07-.17,9.3-7.15,19.69-4,29.49-5.8,4.88-.89,8.56-6.58,15-5.46,5.76,1,11.06.12,15.23-5.22,1.11-1.43,5.43-.4,8.28-.42,4.79,0,11.48,2,14-.42,5.6-5.31,11.47-5.71,18.1-5.46,4.29-7.09,11.39-6.38,17.79-5.45,7.28,1.06,9.93-8.47,17.87-6.24,5.33,1.5,11.43.35,17.19.25,1.81,0,4.25.16,5.32-.88a36.88,36.88,0,0,1,21.61-10.2c7.77-.84,13.53-5.21,19.63-8.4,7.51-3.93,12.64-4.58,20.12.31,5.39,3.53,12.08,4.25,10,13a12,12,0,0,0,0,2.87c0,9.49,0,9.49-20.16,27.3-14.39,12.34-14.76,15.25-14.25,18,.29,1.51,2.15,4,3.13,3.92,8.17-.65,10.64,6.81,15.71,10.49a2.3,2.3,0,0,0,2,.34c.8-.42,1.82-1.18,2-2,2.39-11.46-5.34-24.49,5.74-34.76,1.93-1.79.2-3.19-2.73-2.82-3.73.48-8.24-1.14-11.21.43-3.92,2.07-6.47,6.12-12,6.07C860.34,108.21,859.09,114.35,873.18,108.51ZM938.93,848a20.51,20.51,0,0,0-2.78-3.28,1.73,1.73,0,0,0-2.44,2.44,11.61,11.61,0,0,0,3.4,2.61c.21.12,1.15-1.1-6.16-5.12,2.69.9,3.47,0,2.73-2.7-.67-2.43-1-5-1.53-7.43-1.27.34-2.73.4-3.76,1.1a15.09,15.09,0,0,0-3.78,3.78c-.7,1-1.34,3.37-1,3.6a14.23,14.23,0,0,0,4.66,1.61C929.12,844.8,930.06,844.64,938.93,848ZM525.69,182.46c6.7,0,13.4.1,20.1,0,5.49-.11,10.34,0,15.72-4,4.45-3.31,12.45-1.82,18.86-2.62.74-.09,1.66-1.16,2-2,1.09-2.82.08-3.09-2.83-3-9.55.35-19.18-.43-28.69.29-9.83.75-20.79-4.41-29.38,5.14-.83.92-3.29-7.86-7.78-2.63-3.83,4.46-8.62,2.87-13.13,3-5.73.22-11.49-.2-17.22.16-3,.18-4.89,2-4.64,5.64.32,4.76.07,9.56.07,14.35,9,6.08,5,15.36,5.72,23.46.32,3.77.1,7.59.37,11.38.05.72,1.16,1.58,2,2,.46.2,1.43-.31,2-.74,8.49-6.77,10.13-10.54,4-21.42-3.82-6.71-1.78-12.82-2.28-19.14-.28-3.5,8.27-9.75,12.25-9.8,7.65-.1,15.31,0,98-16.85v-.45c-4.66,0-9.34-.24-14,.13a6.23,6.23,0,0,0-4.2,2.89c-1.37,2.57-.16,3,2.67,2.86,9.32-.34,18.66,0,28-.27,1.13,0,2.26-2,3.22-3.26.07-.08-1.2-1.79-1.88-1.81C609.92,165.56,605.32,165.64,525.69,182.46ZM931.43,815.25c.77-1.72,2.07-3.33,2.11-5,.23-7.66-1-15.53.38-23,1.52-8.39-6.95-12.77-6.21-20.7.78-8.56.17-17.25.17-25.88,0-7.68-.53-15.4.15-23,.77-8.71-3.21-15.82-5.47-23.65-2-7.09-.43-15.23-.43-22.9s-1.17-15.58.3-23c1.7-8.52-6.42-12.69-6.47-20.7-.08-13.65,4.46-28.3-5.35-40.78,0-6.72-1.27-13.75.32-20.07,2-7.95-7-10.64-6.29-17.86.89-8.54.39-17.25.15-25.87-.16-5.56,1.06-12.87-1.91-16.24-4.7-5.32-3.45-10.5-3.72-15.92-.29-5.74-.07-11.51-.07-17.26-13-8.88,1.39-26.62-11.51-35.52V420.72c0-6.71.44-13.46-.14-20.13-.47-5.31-6.4-8.27-5.94-14.91.68-9.95,3.11-20.8-5.44-29.25-.29-10.08,2.05-20.67-5.76-29.27v-25.9c-8.38-7.39-5.22-17.3-5.73-26.4-.29-5.19-3.45-7.51-10-5.89-5.12,1.25-9.81,4.51-14.95,5.4-5.59,1-12.82-1.88-16.89.74-5.37,3.44-12.47,3.68-16.5,9-2.25,3-5.18,2.07-7.84,1.92-6.76-.38-13.28-.52-17.76,5.84-8.31-3.21-13.82,5.68-20.62,5.32-8.94-.47-15.76,4-23.57,6-4.44,1.16-9.29.75-13.93,1.24-.63.07-1.7,1.4-1.58,1.92.18.8,1.22,2,1.9,2,14.66.12,29.58,4.26,43.59-4.67,3.21-2,9.48-1.64,12.63,3.41,2,3.2,6.69,2.9,7.53,1.82,4.08-5.27,9.46-4.84,15.08-5.93,5.87-1.13,11.18-5.23,16.69-8.12,1.59-.84,2.88-2.39,4.53-2.95,7.61-2.55,18.19,4.39,18.64,12.2.21,3.83.59,7.77-.09,11.49-1.21,6.67,2.27,10.71,6.74,14.56,2.86,2.47,5.44,5,5,9.48-.68,6.51-.72,13.1-1.5,19.61-.09.74-3.25,1-4.83,1.73-5.58,2.74-12,4.63-16.42,8.69-6.82,6.29-16.11-1.18-21.24,4.14-5.9,6.11-12.25,3.55-18.5,4.44-1.76.25-4.32.33-5.05,1.45-4,6.19-10.41,5-15.54,4-6.93-1.39-9.11,6.12-14.94,6.12-7.34,0-15.38-2-20.63,5.69-9.37-3.66-15,5.85-23.21,6.57-.73.06-1.37,1.27-2,1.95,1.42,1,2.75,2.6,4.29,2.86,2.8.47,7,1.37,8.4-.07,6.9-7.21,15.47-5.44,23.73-5.52,10.55-.11,21.11-.17,31.66,0,5.82.11,10.21-1.59,15.37-5,4.68-3.06,13.12.46,17.27-6.62,5.37.67,10.87-1.6,15.77,3.93,6,6.75,11.24,16.07,23.15,13.52,1.21-.26,3,1.8,4.41,3,6.57,5.57,7.5,14.16,11.3,21.22-3.71,4.22-7.18,8.68-11.21,12.55-1.81,1.74-4.84,2.14-7.15,3.44-3.13,1.76-5.89,4.43-9.2,5.55s-7.87-.09-10.84,1.57c-3.18,1.77-5.4,5.24-9.74,4.35-5.41-1.11-8.38,2.56-12.28,5.29-3.58,2.5-9.93-2-13.22,2.39-4.47,6-11.86,1.34-15.38,4.36a20.23,20.23,0,0,1-15.28,5.38c-1.54-.06-3.15,1.52-4.72,2.36,1.21,1.08,2.4,3.09,3.63,3.12,11.51.24,23.07-.54,34.52.33s20.29-10.47,32.16-5.95c7.41-8.25,17.28-5.2,26.39-5.79,5.86-.39,9,4.19,11,7.76,5,8.83.95,23.78-8.12,26.25-6.91,1.88-11.62,10.05-20.59,6.61-4.18-1.61-9.53.11-14.27-.38-5.88-.61-8,4.17-11.56,7-2,1.54-2,3.29.67,4,4.4,1.13,10.89-.15,13.14,2.47,5.72,6.67,7.28-1.2,10.64-1.53,8.55-.85,17.24-.36,25.87-.25,3.91.06,10.75,6.89,11.31,11,1.89,13.65,0,16.42-13.08,23.72-4.7,2.63-9.19,5.4-14.32,7.19-2.48.87-4.45,3.36-6.94,4-5.35,1.4-12.1-2.64-16.26,2.17-4.83,5.56-10.5,3.51-15.86,3.55-4.21,0-6.65,2.22-9.9,4.16-6,3.59-13,5.64-19.48,8.43-.81.35-1.36,1.31-2,2,1.52,1,2.93,2.28,4.59,2.8,7.17,2.23,11.81-4.37,17.79-5.39,7.46-1.26,15.3-.1,23-.36,7.47-.25,14.93-1,22.39-1.48,5.91-7.36,14.08-3.71,21.28-4.06,6.64-.32,13.17.61,18-5.71.6-.78,5.07.89,7.41,2.08,5.51,2.83,5.7,9,8.24,13.79,4.73,8.88,5.16,9.1-.21,13.83-4.13,3.64-6.45,9.53-12.91,10.44-5.48.78-12.1-2.82-16.29,2-4.81,5.56-10.5,3.48-15.86,3.52-4.23,0-6.79,3.28-9.84,4a132.79,132.79,0,0,0-22.8,7.65c-12.47-2.92-22.19,9.86-35.15,6.18-2-.56-5.67,4.34-8.21,7.05-.45.47,1,3.79,1.32,3.76,4.53-.47,9.89,2.66,13.46-1.73s5-1.62,8.44.2c3.65,1.93,10.78,2.94,13,.83,4.84-4.7,9.82-4.79,15.52-4.83,4.67,0,11.16,1.28,13.66-1.21,7.53-7.47,16.19-3.55,24.26-4.32,5.66-.54,12.17,6.52,12.56,12.42a75.29,75.29,0,0,1,0,8.63c-.31,6.25-5.25,12.29-11.88,13.16-4.68.61-8.69.63-12.88,4.14-3,2.5-9.61.41-13,2.72-4,2.74-7.26,5.29-12.48,4.93-6.69-.45-13.9-1.61-20,.32-5.91,1.88-10.79,6.43-17.92,5.57-2.66-.31-4.32,2.83-4,6.14a6.14,6.14,0,0,0,8.08,5.1,4.8,4.8,0,0,0,2.19-1.61c2.72-4,5.19-4.39,8.29-.2a5.56,5.56,0,0,0,4.85,1.67c2.49-.82,4.58-2.78,6.9-4.16,4.15-2.46,5.29,5.64,7.92,3.14a15.39,15.39,0,0,1,12.62-4.63c4.78.31,9.77-.75,14.34.26,6.74,1.49,9.53-5.32,14.94-5.88,4.56-.48,9,.63,13-3.59,4.86-5.1,5.7,5.87,11.06,3.72,3-1.21,5,1.54,5.22,4.8.29,4.56-1.46,9.73,3.57,12.89,2.46,1.55,2.39,2.41.42,4.18-4.27,3.84-7.79,10.78-12.37,11.47-6.09.91-8.85,6.81-14.64,6.78-6.72,0-13.62,1-20.1-.26-8.34-1.59-13.88,3.81-20.76,5.77a30.06,30.06,0,0,1-14.27,0c-6.76-1.52-8.73,6.72-14.94,6.09-4.64-.47-11.15-1.52-13.72.94-4.9,4.69-10,5.51-15.51,4.5-6.61-1.21-9.76,5.07-14.94,5.73-6.6.85-13.41.05-20.11.36-1.16.06-2.27,2.07-3.23,3.32-.07.1,1.21,1.8,1.95,1.88,6.39.63,13.52-1,17.61,6.17,4.47-1,8.82.83,13.68-1.8,18.58-10.05,18.77-9.7,33.35-9.72,13.43,0,26.89-.49,40.28.2,7.08.36,12-3.59,17.91-5.51,6.92-2.25,14.93-1.07,22.45-1.55.72,0,1.36-1.28,2-1.95,5.67-5.64,12.75-2.42,19-2.29,2.85.05,6.56,4.05,8.25,7.15,4.67,8.56.4,22.41-7.83,26.91-2.3,1.26-5.17,1.43-7.58,2.52-4.05,1.84-7.9,4.09-11.9,6-2.39,1.16-4.87,2.76-7.38,2.91-6.69.41-13.84,1.58-20-.21-8.89-2.56-13.24,6-20.73,6.24-5.37.15-11.06-2-16,3.15-5.27,5.52-12.7,1.31-19,2.53a4,4,0,0,0-2.14,1.69c-5.23,7.92-17.4.26-21.88,9.77-5.7.12-13-1.89-16.72.89a23.34,23.34,0,0,1-15.42,5c-1.54,0-3.08,1.69-4.62,2.61,1.41,1,2.82,2.87,4.25,2.88,24,.18,48,.16,71.94.08,2.74,0,6.84.36,8-1.17,4.26-5.82,10-4.44,15.56-4.52,6.71-.09,13.43.16,20.14-.07,7.49-.25,15-.86,22.46-1.32,4.75-7.13,12.09-3.43,18.31-4.43,1.73-.28,3.76-.66,5-1.73,9.74-8.47,16.91-3.36,23.82,4.13A22.38,22.38,0,0,0,931.43,815.25Zm-389.34,136c0,16.31-.89,32.7.43,48.9.55,6.76,7,12.45,5.56,20.73-1.16,6.51-.23,13.39-.23,20.11,0,7.68-.13,15.36.11,23,0,1.61,1.5,3.17,2.3,4.76,1.12-1.15,3-2.14,3.24-3.47,2.1-9.65,7.53-14.75,17.71-13.29,8.7,1.24,15.84-4.2,23.6-5.34C614,1043.81,633.7,1049,653,1041c9.59-4,22.44,2.47,31.94-6.31,6.71,0,13.44.16,20.14-.15,1.22-.06,2.35-2.06,3.52-3.17-.68-.68-1.33-1.92-2-1.95-6.65-.28-13.32-.59-20-.43-7.29.18-15.5-2.5-20.67,5.64-16.31,0-32.61.08-48.92,0-3.8,0-11.42-7-11.55-10.71-.19-5.75-.16-11.52,0-17.27,0-1.73.56-4.67,1.47-4.94,5.28-1.54,9.7-4.49,14.41-7.08,1.47-.8,4.76,1.76,7.23,2.73,1.34.53,3.74,1.59,3.92,1.31,3.94-6.24,10.22-3.48,15.58-4.41,11.67-2,25,5.89,35.06-5.67,8.34-.83,17.7,2.94,24.89-2.29,9-6.52,18.34-2.27,27.44-3.36,5.64-.68,11.41-.34,17.12-.46,4-7.33,11.57-4.59,17.62-6.11,4-8.78,14.1-2.25,19.81-8,6.08-6.11,14.53-1.41,21.77-2.84,1.75-.34,4.5-.4,5-1.46,4.29-8.74,14.28-1.05,20.18-7.75,5.36-6.09,14.47-1.37,21.87-2.13,5.76-.6,8-8.63,14.7-6.33.83-2.53,2.14-5,2.24-7.62,0-1.11-2.39-3.3-3.73-3.32-7.56-.08-15.14.35-22.71.6-3.62,6.08-9.57,5-15.2,5-7.68,0-15.36,0-23,0h-23c-8.64,0-17.66,1.57-25.81-.43-9-2.21-13.17,6.69-20.75,6.21-2.87-.18-5.75,0-8.63,0h-23c-8.63,0-17.37.82-25.88-.23-8.13-1-13.93,3.37-20.79,5.65-5.18,1.73-11.4.34-17.16.34-4.8,0-9.83.93-14.34-.21-6.91-1.76-9.06,6.12-14.94,6-12.47-.19-24.95,0-37.43-.06-14.2,0-14.2-.06-14.22-13.37,0-2.88-.11-5.76,0-8.64.27-5.72,6.92-12.47,12.65-12.5,20.15-.1,40.3,0,60.46-.07,8.24-.05,17.1,2,23.52-5.73,5.73.25,11.54.75,15.11-5.23,7.82,1.19,13.73-3.79,20.53-6,8.5-2.72,19.21,3.68,26.3-6.08h28.79c8.34,0,14.19-8.6,23.38-6.62,1.53.33,4-3.73,6-5.77.66-.67,1.31-1.36,2-2-1.53-.95-3-2.46-4.6-2.72-2.81-.45-7-1.35-8.4.08-6.9,7.24-15.49,5.4-23.74,5.53-7.68.12-15.39-.45-23,.15-8.07.64-17.5-3.77-23.59,5.52l-6.1-5.41c-7.26,9.42-17.57,4.19-26.51,5.49-2.77.4-6.91-.69-8.17.8-6.9,8.15-15.95,3.81-24,4.95-3.68.53-8.91-.79-10.87,1.23-8.21,8.45-18.06,3.69-27.07,4.37-9.38.71-15.43-5.81-15.4-15.31.06-23.4-2.43-18.49,17.16-19.05,7.33-.22,15.45,2.21,20.64-5.75,9.6,0,19.44-1.34,28.73.35,11.09,2,18.3-9.64,29.41-6.32,4.41,1.31,9.54.06,14.33.25,7.54.29,15,.5,20.65-5.79,11.25,1,20.35-9.89,32.19-5.84.56.19,1.63-.7,2.26-1.3a7.36,7.36,0,0,0,1.08-2c-1.59-.79-3.18-2.28-4.78-2.28q-87.81-.18-175.61-.1c-3.84,0-7.73.34-11.49-.19-1.29-.18-3.24-2.53-3.24-3.89,0-9.47.4-18.95.68-28.43,9.07-4.14,18.64-1.28,28-2,5.73-.42,11.51-.08,17.27-.08s11.55.42,17.26-.11c6.24-.59,10.19-7.63,17.83-5.89,5.48,1.25,11.51.67,17.2,0,2.4-.26,4.51-3.83,6.84-3.93,2.66-.12,7.18,3.55,7.84,2.82,3.62-4,7.77-4.68,12.74-4.52,8.63.27,17.29-.32,25.9.19,8,.48,12.77-6.42,19.86-8,.61-.13.78-5,.15-7.42-.72-2.77-2.36-2.46-4,0-1,1.5-2.68,3.43-4.18,3.54-5.72.42-11.5.17-17.26.17H668.19c-11.51,0-23.05.42-34.54-.13-10.38-.49-19.65,3.32-29.41,5.26-12.93,2.56-26.75.71-40.18.57-3.52,0-10.33-7.94-10.42-11.83-.12-5.76,0-11.52,0-17.28-.06-3.47,1.84-4.63,4.94-5.46,6.89-1.86,12.2-7.87,20.73-6,6.4,1.43,13.37.28,20.09.28,5.76,0,11.76-1,17.21.25,7.7,1.83,11.57-5,17.82-6,7.35-1.18,15.55,3.23,22-2.22,7.7-6.46,16.53-1.61,24.46-3.71,3.28-.88,5.81-4.34,8.88-6.31,2.53-1.61,2.7-2.79,0-4.11a5,5,0,0,0-2.5-.83c-7.1,1.12-12,8.05-20.74,6.05-7.29-1.67-15.27-.34-22.95-.34-1.92,0-4.59-.83-5.65.12-11.51,10.37-25.38,3.79-38,5.58-2.82.39-7-1.19-8.42.25-10.51,11-23.56,3.78-35.27,5.4-6.59.91-13.42.27-20.13.12-3.54-.09-5.34,1.7-5.45,4.86-.21,6.71-.06,13.43-.06,20.15,10.68,11.31,5,25.24,5.49,37.93.9,24.92,1,49.92-.12,74.83-.37,8.31,7,12.84,6.27,20.67-.63,6.66-.13,13.43-.13,20.14v25.92Zm218.46-397.7c-.68-.68-1.34-1.93-2-2-10.48-.29-21.06-1.34-31.43-.33-10.8,1.06-23.06-5.42-32.25,5.36q-3-2.72-6.11-5.41c-8.26,9.93-19.46,4.6-29.37,5.41-8.58.7-17.26.1-25.9.17-2.81,0-6.94-.78-8.19.71-6.88,8.2-15.93,4.71-24,4.85-25.91.47-51.82.1-77.73.28-3,0-5,2.1-4.56,5.73.32,2.84-1.07,7.32.31,8.34,6.62,4.87,5.53,11.49,5.52,18.05,0,18.24.07,36.47-.06,54.7,0,4.85.2,9,4.35,12.72,3.13,2.81,1.65,6.52-1.2,9.76-1.66,1.88-3.6,6.32-2.86,7.06,6,6,5.47,13.38,5.64,20.88.13,6,6.91,12.2,12.73,12.33s11.53-.27,17.26.13c5.14.35,9.29-.8,12.33-5.11,4.3,3.74,8.5,5.82,12.21-.7,5.75,0,11.5,0,17.25,0,6.72,0,13.44-.13,20.16,0,5.83.15,8-7.59,14.94-6,5.48,1.23,11.64-.64,17.17.47,6.79,1.37,8.83-7.3,14.93-5.94,9.89,2.21,18-3.2,25.78-7.21,4.23-2.17,7.64-4.78,12.64-4.4,3.82.28,7.69-.19,11.51.11,5.86.46,7.76-4.72,11.19-7.65.34-.29-.9-3.67-1.59-3.74-3.8-.38-9.59-1.77-11.15.11-5.18,6.3-11.53,5.52-18.12,5.48-11.51-.06-23.09.74-34.52-.25-9.75-.84-17.73,3.44-26.54,5.52-9.09,2.14-19.08.46-28.68.5a3.79,3.79,0,0,0-2.54.71c-7.59,8.85-17.76,4.55-26.74,4.83-18.44.57-21.63-3-21.55-20.74,0-2.88-.16-5.77,0-8.63.24-3.7,7.75-10.66,11.55-10.72,6.72-.1,13.43,0,20.15,0,7.68,0,15.62-1.24,23,.33,7.89,1.69,9.82-8.24,17.93-6.51,7.84,1.67,15.94.89,23.81-4.82,5.16-3.73,15.14,2.78,20.66-5.34q11.32-.46,22.64-.93a16.29,16.29,0,0,1,2.88,0c5.85.8,7.88-4.39,11.38-7.26a2.33,2.33,0,0,0,.78-2c-.37-.81-1.22-1.9-2-2a80.77,80.77,0,0,0-8.53-.32c-7.67,0-15.35,0-23,0-6.71,0-13.51.62-20.13-.17-8-.94-12.41,6.56-20.68,6.3-30.67-1-61.41-.76-92.1-.13-8.29.18-9.64-4-13.29-9.78-3.48-5.54-5.68-11.82-3.29-15.45,3-4.59,9.94-6.88,15.53-9.39,2.4-1.07,5.68-.18,8.56-.18,17.27,0,34.55.39,51.81-.17,8.05-.26,17.34,3.56,23.76-5,6.64-.18,13.28-.41,19.92-.53s10-7.58,17.84-6.16c5.9,1.07,12.73,2.36,18.68-3.27,5.14-4.87,14.48.93,18.68-2.73,6-5.19,11.76-5.44,18.25-5,7.69.48,11.79-9.46,20.73-6.06C752.61,565.23,756.41,558.43,760.55,553.51ZM529.7,528c11.88.1,11.89.1,12.38-12.25.08-1.91-.31-3.91.11-5.72s2.06-4.6,2.36-4.5c7.61,2.48,9.94-7.23,17.65-6.83,9.68.5,21.1,5.1,29.16-5.25,5.74,0,11.72-1,17.16.25,7.67,1.82,9.84-8.62,17.85-6.34,5,1.42,10.9,1.59,15.46-4,3.57-4.39,11.1,1.39,15.39-4.16,4.89-6.32,15.49.55,19.56-8.13,4.69-.21,9.4-.78,14.08-.55,5.85.29,7.67-4.82,11.23-7.58a2,2,0,0,0,.32-1.94c-.42-.81-1.41-2.07-1.94-2-7.09,1.35-14.54-2.59-21.54,3.63-6.71,6-18.61-2.2-25.12,7.21-6.46-10.22-12-1.76-18.53.2-5.17,1.56-10.09,1.73-15.32,5-4.84,3-12.86,1.06-19.49,1.1-13.39.08-26.78-.05-40.17.06-4.6,0-6.24-1.82-7-6.47-.51-3.25-5.05-6-5.18-9.15-.28-6.56-3.21-7.53-8.88-7.63-6.42-.11-13.15,2.13-19.31-1.72-1.78-1.12-2.73-5.74-6.1-1.62-1.81,2.22-5.27,3.9-5.64,6.19-.27,1.7,4.59,3.87,4.82,6.07.7,6.62.14,13.37.28,20.06.17,7.31-2.21,15.4,5.73,20.57,0,6.7.07,13.39,0,20.09,0,3.47,1.73,5.09,4.93,5.37C525.86,528.08,527.79,528,529.7,528ZM490.27,737.38c0-21.1-.25-42.2.13-63.29.14-7.69-9.13-11.68-6.26-20.75,1.94-6.09.37-13.3.37-20v-23a19.61,19.61,0,0,0,0-2.87c-.12-.87-.23-2.1-.8-2.5-8-5.54-4.47-13.83-4.81-21-.46-9.56,0-19.17-.17-28.76,0-2.73.31-6.8-1.23-7.93-5.85-4.27-4.36-10.06-4.44-15.57-.13-7.67.1-15.35-.19-23,0-1.09-2.1-2.18-3.38-3-.15-.11-1.79,1.19-1.87,1.94a80.39,80.39,0,0,0-.34,8.51c0,8.63,0,17.26,0,25.89,0,7.67,1.53,15.75-.37,22.91-2.58,9.7,6.77,15.06,6.21,23.61-.43,6.69-.08,13.42-.08,20.13v23c0,6.71,1,13.61-.25,20.09-1.6,8.33,5.26,14,5.52,20.69.42,10.74,4.29,22.71-5.14,32.25-.8.81-.35,4.51.65,5.18,5.81,3.93,5,9.65,5,15.32,0,17.26,0,34.52,0,51.78,0,3.83-1.57,8.83.26,11.31,10.86,14.72,4.09,31.19,5.24,46.73,1.19,16.21.22,32.58.32,48.88,0,1.75.28,3.95,1.34,5.11a6.76,6.76,0,0,0,4.93,1.6c1.64-.14,4.18-1.18,4.55-2.37.81-2.61.6-5.56.62-8.38.05-9.59.59-19.22-.15-28.76-.69-9,4.24-19.3-5.47-26.44a10.62,10.62,0,0,1,1.81-2c6.14-4.08,3.27-10.21,3.61-15.6-7.13-4.31-5.5-11.37-5.52-17.84C490.23,771.9,490.27,754.64,490.27,737.38Zm-97.89-71.25V634.47c0-11.52-1.53-23.3.43-34.47s-9.3-18.19-6.52-29.44c1.79-7.23.34-15.27.34-22.94v-23c0-7.68-1.25-15.62.32-23,1.84-8.61-5.37-13.72-5.85-20.73-.84-12.41-.18-24.93-.26-37.4,0-3.75,1.06-9.28-.91-10.92-7.46-6.2-4.22-14-4.74-21.24-.41-5.73-.08-11.51-.08-17.27-8.79-8.41-5.28-19.27-5.69-29.28-.34-8.62-1.12-17.43.2-25.86,1.58-10-10.15-16.31-6.2-26.51.12-.3-2.25-1.77-3.61-2.3-.36-.13-1.87,1.23-1.89,1.93-.15,5.75-.07,11.5-.07,17.26,9.15,6.08,5.39,15.45,5.61,23.53.45,17.26.11,34.54.15,51.81,0,3.79-1.35,9.25.61,11.08,8.55,8,4.48,17.85,5,26.84.67,12.44.12,24.94.2,37.41,0,3.75-1.05,9.26.93,10.91,7.44,6.22,4.52,14.06,4.68,21.25.37,16.31.06,32.62.17,48.93,0,3.7-.78,9.16,1.24,10.77,6.72,5.4,4.27,12.24,4.36,18.51.29,20.15.11,40.3.11,60.45,0,3.84-1.62,9,.27,11.29,10.52,12.77,4.08,27.4,5.24,41,1.13,13.33.18,26.84.41,40.27,0,.85,2.26,1.85,3.62,2.37.36.14,1.89-1.24,1.89-1.92C392.4,717.94,392.38,692,392.38,666.13ZM571.6,337.93q-34.46,0-68.92,0c-5.67,0-7.4,2.35-6.56,9.36a15.66,15.66,0,0,0,2.59,7.48c2.83,3.69,5.89,7,11.73,6.35,6.62-.76,13.39-.18,20.09-.18h20.1c6.7,0,13.65-1.11,20,.29,7.74,1.7,11.44-5.78,17.78-6,10.52-.3,21.07-.38,31.58,0,6.82.26,12-1.73,18-5.35,5.68-3.43,15.11,2.82,20.8-5A76.49,76.49,0,0,0,690,336.83c.7-.34,1.64-1.45,1.51-1.95-.21-.8-1.21-2-1.91-2-13.31-.33-26.62-.51-39.93-.73-11.24,10.93-25.18,4.53-37.84,5.53C598.47,338.74,585,337.93,571.6,337.93ZM202.37,920.73c0,13.41-.09,26.82,0,40.22.06,6.6.32,13.21,1,19.77.09.85,3,1.53,4.69,2.06.87.28,2.36.45,2.76,0,.92-1.08,2.08-3.6,1.85-3.76-7.93-5.76-5.25-14.41-3.95-21.09.93-4.75,6.87-8.43-.58-12.59,0-17.23-.1-34.47.17-51.71,0-1.37,2.63-2.63,3.86-4.08,2.88-3.42,2.56-6.67-.6-9.82-1.29-1.29-3.28-2.86-3.29-4.31-.2-23.94-.27-47.89.06-71.82,0-2.26,4.06-4.41,4.19-6.73.59-10.23.42-20.51.53-30.77-8.07-5.47-4.65-13.78-4.8-20.94-.38-18.19-.16-36.39-.1-54.59,0-5.66.3-10.86-4.9-15.38-2.83-2.46-.14-6.42,2.35-9.68,3.65-4.77,3.3-5.22.76-9.65-1.32-2.32-4.32-3.29-4.12-7,.42-7.64.13-15.31.13-23,0-2.88.13-5.76-.09-8.62-.06-.73-1.49-2.06-1.86-1.93-1.36.49-3.65,1.48-3.65,2.28q-.26,107.73-.08,215.47a8.94,8.94,0,0,0,2,4.88c5.11,6.79,5.4,12.79-.37,19.88-3,3.7,4.63,5.92,4.38,11.19C201.87,886.23,202.37,903.5,202.37,920.73Zm635.91-.86,24.37-1.36c4.51-7.32,11.8-4.52,18.07-4.68,12.41-.32,24.83-.06,37.24-.1,18.34-.07,21.48-3.12,21.42-20.85a60.74,60.74,0,0,0-.64-11.22c-.21-1.08-2.92-2.3-4.52-2.35-4.55-.16-9.1-1-13,3.37-5,5.7-15.78-1.8-19.72,7.94-.27.66-3.61.08-5.52.08-4.77,0-9.55,0-14.32,0s-9.14-.58-12.78,4c-2.74,3.44-9.29,1-11.72,6.16-.31.66-1.64,1.49-2.21,1.31-12.64-3.94-22.61,7.7-34.89,5.91a7.66,7.66,0,0,0-5.25.94,6.57,6.57,0,0,0-2,4.73c0,1.63,1,4.61,1.88,4.69C822.22,919.16,829.75,919.41,838.28,919.87ZM540.48,263.08c-8.6,0-17.33.93-25.76-.25-9.85-1.37-16.42,8.55-26.37,6.26-2.4-.54-4.22,2.86-3.88,6.14s1.94,5.53,5.18,5a16.4,16.4,0,0,0,7.07-3.53c5.21-4.22,6.74,4.76,7.87,3.25,5.8-7.75,13.74-5.12,20.93-5.22,21-.28,42-.08,63.06-.11,4.74,0,9.48-.16,14.23-.24,3.89-9.08,14.27-2.51,19.56-8.1,2.07-2.19,3.77-3.39,6.14-.31,2.63,3.43,6.36,4.3,9.66,1.61,3-2.41,5.31-4.89,9.67-4.57,5.7.42,12.95,2.26,16.83-.42,5.3-3.66,12.06-4,16.65-8.83,1.56-1.64,5-1.85,7.61-2.08,3.79-.33,7.69.27,11.43-.29,1.17-.17,2.51-2.69,2.81-4.31a9.34,9.34,0,0,0-1-5.21c-1.08-2.29-2.42-1.87-4.06.45-1,1.45-2.75,3.3-4.23,3.36-7.63.34-15.58,1.47-22.85-.18-8.67-2-13.56,5.31-20.63,6-9.07.84-18.86-2.17-26.27,5.9-10.51,0-21.25,1.36-31.47-.36-11.91-2-20.27,9.07-32.13,6.37C554.13,261.88,547.17,263.08,540.48,263.08Zm-2.14,132.43c-8.6,0-17.2-.13-25.8.12-1.58,0-4.42,1.52-4.46,2.45-.33,6.42-3.09,13.84,1.4,19,4,4.55,7.8-.63,11.71-3.08,2.79-1.75,7.21-1.07,10.91-1.17,5.73-.15,11.46,0,17.19,0,9.33-9.39,21.19-4.68,32-5.79,1.76-.18,4.34-.21,5.08-1.3,4.89-7.15,12.11-3.64,18.34-4.39,7.16-.87,15.47,2.68,20.63-5.56,5.7-.08,13.13,2.06,16.72-.73,5.87-4.56,11.35-5.78,18.07-5.35.63,0,2-1.52,1.9-1.89-.52-1.36-1.71-3.7-2.34-3.6-13.52,2-28.39-5.49-40.63,5.58H596.14c-6.69,0-13.91-1.59-19.92.42-6.84,2.3-12.72,6.68-20.71,5.5C549.9,394.84,544.07,395.51,538.34,395.51ZM735.18,274.69v-.1c-4.77,0-9.56-.24-14.32.06-6.32.4-10,7.53-17.73,6-7.36-1.44-15.22-.31-22.86-.31-.95,0-2.49-.38-2.78.06-5.21,8.06-13.56,6.62-20.56,5.37-8.44-1.52-12.7,6.43-20.58,6.48-8.89.07-19.15-5-26.79,4.11-9.37.42-19.32-.94-27.95,1.82-6.87,2.19-13,6.35-20.72,5.27a12.75,12.75,0,0,0-5.31.93c-.76.24-1.83,1.35-1.75,1.93a2.91,2.91,0,0,0,1.9,2c4.47.82,11.22-.22,13.08,2.35,6.3,8.71,8.88-1.65,13.31-1.84,8.89-.38,19.29,4.55,26.28-5.42,7.64,0,15.73-1.6,22.8.39,9.77,2.76,14.87-7,23.53-6.33,5.3.43,10.35.62,15.82-3.53,4.39-3.32,12.45-1.62,18.8-2.66,1.53-.26,2.56-2.79,4.12-3.84,3.58-2.41,6.82-1.7,9.81,1.42a8.63,8.63,0,0,0,3.84,1.86c4.71-7.26,12.09-3.48,18.25-4.66,7-1.34,12.23-8.89,20.61-5.86.41.15,1.89-2.17,2.53-3.51.14-.29-1.21-1.84-1.91-1.88C742.8,274.59,739,274.69,735.18,274.69ZM369.35,899.79c0-11.51.08-23-.16-34.54,0-.85-2.27-1.83-3.63-2.34-.36-.14-1.88,1.24-1.88,1.92q-.15,56.13-.09,112.26c0,22.06,0,44.13.09,66.2,0,.68,1.54,2,1.9,1.91,1.36-.53,3.33-1.34,3.63-2.43,1.18-4.37-2.17-9.9,2.58-13.29,6.57-4.68-3.71-7.5-1.19-10.05,3.76-3.81,4.8-7.67,4.58-12.65-.29-6.7-.07-13.43-.07-20.14V969.36c0-6.71-.89-13.58.23-20.1,1.29-7.47-5.18-11.81-5.72-17.83C368.67,921,369.35,910.34,369.35,899.79ZM833.63,240c8.55,4.44,13.76-6.36,22.16-6,3,.11,4.53-6.65,2-9.06-1.68-1.57-5.69-2.84-7.25-1.91-3.78,2.27-6.38,5.45-11.71,6-3.53.39-6.13,6.57-11.71,5.39-.31-.06-1.37,2.42-1.64,3.81-.09.45,1.19,1.59,1.94,1.69A50.06,50.06,0,0,0,833.63,240ZM265.71,430c0,6.64-.14,13.29.16,19.92,0,.82,2.3,1.73,3.67,2.17.39.13,1.83-1.22,1.84-1.9.12-11.39.16-22.77-.08-34.15,0-.79-2.3-1.73-3.67-2.18-.39-.13-1.81,1.21-1.84,1.91C265.63,420.47,265.71,425.22,265.71,430ZM991,852.32a131.34,131.34,0,0,0,1.44,13.4c.18.92,3,1.42,4.65,1.91.87.25,2.34.43,2.71,0,.89-1.1,2-3.58,1.76-3.77-4.3-3.15-4.83-7.43-4.64-12.32a59.21,59.21,0,0,0-1.06-10.82c-.09-.62-1.39-1.62-1.88-1.49a3,3,0,0,0-2,1.88C991.5,844.72,991.3,848.39,991,852.32ZM899.37,238.84c-.4-4.88-.7-9.48-1.23-14.06-.09-.73-1.26-1.34-1.93-2-.66.67-1.9,1.33-1.91,2q-.21,12.39,0,24.78c0,.68,1.25,1.34,1.91,2,.67-.67,1.81-1.26,1.93-2C898.71,245.92,899,242.26,899.37,238.84Zm-507,568.37a103.36,103.36,0,0,0,.18,11.28c.09.84,2.33,1.65,3.7,2,.41.12,1.78-1.21,1.8-1.9.15-5.65.23-11.31-.09-16.94,0-.78-2.33-1.64-3.7-2-.42-.12-1.69,1.16-1.8,1.92A39.1,39.1,0,0,0,392.38,807.21ZM265.71,378.07c0-2.82.13-5.66-.1-8.46-.05-.72-1.46-2-1.86-1.88-1.36.45-3.58,1.36-3.63,2.21-.33,5.63-.24,11.29-.08,16.93,0,.68,1.47,2,1.86,1.88,1.36-.46,3.46-1.27,3.63-2.24C266,383.78,265.71,380.9,265.71,378.07ZM363.59,836a103.36,103.36,0,0,0,.18,11.28c.09.84,2.33,1.65,3.7,2,.41.11,1.78-1.22,1.8-1.91.15-5.65.23-11.31-.09-16.94,0-.78-2.33-1.64-3.7-2-.42-.12-1.69,1.16-1.8,1.92A39.1,39.1,0,0,0,363.59,836ZM277.22,481.72c0-2.83.13-5.66-.09-8.47-.06-.71-1.46-2-1.86-1.88-1.36.45-3.59,1.37-3.64,2.21-.32,5.63-.23,11.29-.08,16.94,0,.68,1.47,2,1.87,1.87,1.36-.45,3.45-1.26,3.63-2.23C277.54,487.42,277.22,484.54,277.22,481.72ZM643,165.19a38.69,38.69,0,0,0,5.6-.09c.75-.12,2-1.45,1.88-1.86-.43-1.36-1.28-3.54-2.16-3.64a69.91,69.91,0,0,0-11.21-.08c-.7,0-2,1.45-1.87,1.86.43,1.36,1.13,3.24,2.2,3.65C639.09,165.64,641.13,165.19,643,165.19Zm267.61,2.74c0,1.87-.45,3.91.16,5.55.4,1.08,2.29,1.78,3.65,2.21.41.13,1.82-1.18,1.86-1.87a71.09,71.09,0,0,0-.08-11.21c-.1-.88-2.28-1.73-3.64-2.16-.41-.13-1.75,1.13-1.86,1.87A37.43,37.43,0,0,0,910.61,167.93ZM190.85,297.5c0,3.47-.37,5.45.11,7.18s1.81,3,2.77,4.46c1-1.48,2.49-2.86,2.75-4.45a25.62,25.62,0,0,0,0-8.38c-.26-1.59-1.79-3-2.75-4.44C192.56,294.17,191.38,296.47,190.85,297.5Zm696-106.4c.91,2.69,1.7,5.18,2.66,7.61a2.16,2.16,0,0,0,1.86,0c2.73-3.1,2.73-12.1,0-15.2a2.16,2.16,0,0,0-1.86,0C888.58,185.91,887.79,188.41,886.88,191.1ZM395.26,749.94c-1.43,4.84-2.63,7.26-2.69,9.72,0,1.43,1.73,2.91,2.69,4.37,1-1.46,2.74-2.94,2.7-4.37C397.89,757.19,396.69,754.76,395.26,749.94ZM800.5,913.28c-2.14,1.41-3.6,2.37-5,3.34,1.45,1,3,2.82,4.35,2.68,2.45-.27,4.78-1.72,7.16-2.68ZM267.75,402.1l-2,2a18,18,0,0,0,3.86,1.8c.48.1,1.25-1.16,1.89-1.8Zm194.56,89.25,2.05,2a17.82,17.82,0,0,0,1.8-3.87c.11-.47-1.16-1.25-1.8-1.89ZM209,1002.16l2,3.71c.64-.64,1.91-1.42,1.81-1.9a18.5,18.5,0,0,0-1.81-3.86Zm0-11.52,2,3.71c.64-.64,1.91-1.42,1.81-1.89a18.34,18.34,0,0,0-1.81-3.87Zm780.22-192.9,2-2a18,18,0,0,0-3.86-1.8c-.48-.11-1.26,1.16-1.9,1.8ZM367.3,805.16l-3.71,2.05c.64.64,1.42,1.91,1.9,1.8a18,18,0,0,0,3.86-1.8Zm620.21,5.76-2,2.05a18,18,0,0,0,3.87,1.8c.47.11,1.25-1.16,1.89-1.8Zm8.64,18.49-2-2a18,18,0,0,0-1.8,3.86c-.1.47,1.16,1.25,1.8,1.89Z"/></svg>