<svg id="Layer_1" data-name="Layer 1" xmlns="http://www.w3.org/2000/svg" viewBox="0 0 1200 1200"><title>BB_Artboard 43</title><path d="M248.22,677.14c.92,25.88.92,51.75.92,77.62,0,4.76.18,9.54,0,14.29s-.14,9.18,4,12.78c1,.88.15,3.91.15,5.95,0,12.94-.17,25.88.07,38.8.14,7.44-1.42,13-10.1,14.13-1.62.21-2.81,2.85-4.51,3.81-1,.56-3.15.57-3.88-.12-2.43-2.32-4.46-5.12-7.31-.59-5.12-2.75-9.76-6.13-10.92-12.2-.62-3.28-.11-6.78-.11-10.19,0-27.23,0-54.46-.06-81.69,0-3.17,1.73-7.78-2-9.12s-8.1-.73-12.1-.18c-2,.27-2.21,2.89-2.2,5q.06,33.71,0,67.4c0,2.62.42,6.85-.88,7.57-6.1,3.4-.3,11-5.64,14.2-3,1.8.08,7.81-4.58,7.58s-5.94,5-10.59,4.45c-5.94-.66-12-.16-17.52-.16-2.61-4.66-1.29-8.75-1.57-12.69-.19-2.71-1-6,.16-8,2.64-4.61,4.61-9.17,4.44-14.53,4.32-2.57,3.54-6.8,3.54-10.79q0-29.61,0-59.22c0-4,.36-7.93-3.56-10.91-1-.8-.51-3.79-.52-5.78q-.07-12.25,0-24.51c0-2-.22-3.85-2.52-4.05-.43,0-1.09,2.1-1.57,3.26s-.79,3.35-1.31,3.39c-5.93.48-7.79,3.66-6.92,9.22.31,2-.43,4.22.13,6.09,1.78,5.89-2,10.09-4.27,14.62-2.64,5.35-6.55,9.7-12.46,11.89-1.75.65-3.13,2.35-4.89,3s-4.43,1.28-5.37.44c-7.49-6.75-14.1-3-21.55.39-6.27,2.85-11.77,7.35-18.91,8.7-2.5.47-4.21,5.42-7.31.65a2.08,2.08,0,0,0-1.35-.41c-2.25,4.85-9.21,2.25-11.36,7.19l-12.08.44c-.34,0-21,0-21.09-.07a6.76,6.76,0,0,1-1.43-1.45c-3.75-7,.7-17.08,8.4-18.87,1.91-.44,5.11.29,5.7-.71,3.13-5.37,9.4-1.44,12.5-4.42,2.67-2.56,6.2-2.16,8.52-4.22,2.13-1.89,4-3.25,7-3,1.82.13,4.38-.14,5.46-1.3,3.67-3.92,8.69-5.74,12.66-8.82,7.47-5.8,13.69-13.21,20.43-20,.15-8.79.42-17.57.44-26.36.05-28.59-.15-57.18.15-85.77.07-6.35-2.7-13.48,3.6-19,1-.9.34-3.86.34-5.88q0-48,0-96c0-1.88-.13-4.45-1.29-5.48-2.69-2.39-2.71-3.87.1-6a3.88,3.88,0,0,0,1.12-3.46c-.81-2.23-2.78-4.12-3.24-6.35-.24-1.21,2.68-3.92,2.45-4.13-4.8-4.57-3.75-8.95-.85-14.18a19.82,19.82,0,0,0,.25-19c-3.59-6.64-3.61-11.64.09-18.33,3.53-6.39,1.65-15.93-1.7-24.63a10,10,0,0,1-.28-5.47c.26-1.12,2.67-2,2.62-2.91-.56-11.11,8.55-15.87,14.66-22.54.67-.73,2.51-.57,3.79-.54,2.72.06,5.11-.06,7.24-2.37,4.62-5,9.55-9.7,14.39-14.48,3.51-3.46,12.09-4.92,16.57-2.84.55.25,1.3,1,1.26,1.46-.7,6.82,5.57,8.87,9,12.53,3.21,3.38,2.65,5.11-.49,7.39-.11,12.21-.36,24.42-.14,36.62,0,1.51,3,2.78,3.67,4.53s1,3.95-1.11,5.51a18.49,18.49,0,0,0-2.57,2.85c5.9,3.68,3.57,9.59,3.86,14.72a81.06,81.06,0,0,1-.07,14.28c-.62,5.08,6,7,4.41,12.67-1.07,3.78.08,8.14-.28,12.19-.43,4.91,5.72,7.07,4.38,12.66-1.08,4.51-.22,9.48-.22,14.25,9,6.38-1.07,18.9,8.13,25.22,0,6.8,0,13.6.1,20.4,0,.5.81,1.1,1.37,1.42.34.19,1.29.07,1.37-.14,1.31-3.45,2.29-7,4.92-9.84-7-6.76-2.73-15.32-3.48-23-.72-7.42-.15-15-.15-22.45,0-8.17,0-16.34,0-24.51,0-4-.31-7.76,3.39-11,1.41-1.23.67-5.07.68-7.73,0-17-.23-34,.15-51.05.15-6.36-2.55-13.35,3.51-19,1.39-1.3.43-5.17.44-7.86,0-18.38-.46-36.78.23-55.13.29-7.61-3.9-16.25,3.71-23,1-.9.15-3.92.15-6,0-10.89-.19-21.79.1-32.67.11-3.88-1.47-7.92,1.27-11.71,4.86-6.71,6.58-15.12,12.85-21.33,5.4-5.36,11-3.34,16.79-3.32a2.06,2.06,0,0,1,1.39,1.39c.42,4.55-.7,9.58,4.36,12.51,0,24.5,0,49-.13,73.51,0,1-2,1.82-2.74,2.91-2.31,3.12,3.71,3.9,2.19,5.6-2.41,2.72-3.92,5.24-3.42,8.89.36,2.6-.48,6.27.95,7.67,6.05,5.84,2,12.89,3.15,19.22-7.57,7.27-2.84,16.56-4,24.87-.38,2.67.31,5.5-.13,8.15-1.38,8.28,3.84,17.47-3.82,25.06-1.36,1.35-.2,5.25-.2,8,0,17,0,34,0,51.06,0,4-2.65,3.78-5.37,4.12-.93.11-1.7,1.45-2.54,2.23,1.12.58,2.25,1.66,3.36,1.66,3.54,0,4.66,1.77,4.52,4.94-.05,1.36.57,3.19-.09,4-6.16,7.6-3.4,16.52-4,24.93,6.66,6.66,3.2,15.12,4.13,22.81.77,6.36-2.81,13.66,3.88,18.8q.08,8.14.16,16.27c-5.69,3.68-4,9.45-4.06,14.65a143.44,143.44,0,0,0,.1,16.33c.41,4.37,5.17,7.27,4.14,12.65-.88,4.59-.09,9.49-.21,14.26-.1,3.88,1.29,8.26-3.12,11a5.49,5.49,0,0,0,1.12,2.74c3.15,3.45,2.61,7.34,1.16,11.07-3.89,9.95-4.26,10-.51,18a12.62,12.62,0,0,1,1.36,5.57c0,10.21,0,20.42,0,30.63,0,3.94,4.13,6.4,6.54,3.33,4.33-5.52,12.62-.17,15.68-7,5.92,0,10-7,16.59-4.33,3-5,8-4.72,12.58-3.92,5.26.92,7.08-6.25,12.67-4.35,4.8,1.64,8.6-3,12.62-3.5,4.83-.63,8.38-3.34,12.6-4.32,4.52-1,9.5-.54,14.23-.14,3.85.33,6.28-1.34,8.66-3.94,1.5-1.62,2.22-2.73.15-4.43a5.22,5.22,0,0,1-2-3.21,64.05,64.05,0,0,1,0-12.23c.55-4.09-4.05-5-4.28-8.53-.26-3.93,1.88-8.58-1.22-11.63-2.89-2.86-2.32-5.91-3-9.11-.59-3-2.34-5.84-4-8.53-2.72-4.49-5.07-9-4.48-14.49-4.16-3.45-5-8.87-7.52-13.26-.89-1.51-1.28-3.46-2.54-5-2.93-3.7-5.15-4.6-9.81-1.55-3.84,2.51-7.93,3.1-11,.84s-5.57-3.31-9.05-3-4.76-1.48-4.62-4.75a35.73,35.73,0,0,0,0-6.12c-1-7.9.53-14.66,7.7-19.33,1.67-1.09,2.85-2.91,4.38-4.26,2.47-2.19,5.28-6.27,7.52-6,7.07.85,11.57-6.8,18.82-4.63,2.48.74,5,.43,7.12,2.67,5.6,5.94,11.09,12.11,17.44,17.18,3.24,2.58.2,9.12,6.08,8.82,6.53-.34,3.42,6,6.37,8.39s7.14,4.45,6.3,9.53c3.21,2.58,3.73,6.6,5.44,10,.58,1.15,2.5,1.91,2.6,3a53.37,53.37,0,0,1,.07,10.19c-.35,3.82,5.12,4.49,4.17,8.54-1.45,6.2,3.15,11.19,3.72,16.71.68,6.56,6.92,11.61,4.43,18.7,2.69,5.95,5.51,11.84,4.22,18.75-.12.66,1.62,2.32,2.6,2.41a72.33,72.33,0,0,0,10.2.07c2.23-.12,2.83-1.65,3.57-3.82,1.65-4.84,5-8.86,4.1-14.73-.84-5.29-.1-10.83-.05-16.26,5.86-3.68,3.54-9.57,3.91-14.7.25-3.45,4.41-4.48,4.3-8.52-.18-7.09,6.61-13,3.91-20.77,6.59-3.84,1.2-13.37,8.09-17.07-.64-6.06,6.91-10,4.24-16.68-1.55-3.89,4.21-6.19,3.67-8.41-1.52-6.2,5-9.89,4.1-14.67-1-5.67,5.5-7.67,4.41-12.66,4.13-3.43,3.27-10,8.13-13-1.6-6.25,3.5-5.77,7-7,.45-.16,1.06-1,1-1.37a3,3,0,0,0-1.39-1.44,4.73,4.73,0,0,0-1.86-.41c-3.93-.37-8.08-.09-11.73-1.31-2.13-.71-4.43-3.58-5-5.87-1.15-5-6-8.44-4.53-14.66,1.23-5.15.25-10.83.25-16.28-7.29-7.31-3.73-16.54-3.75-24.86,0-4.74-4.54-6.44-4.44-10.56a86.76,86.76,0,0,0,0-10.2c-.81-8.64,2-17.47-1.39-26-8.09-.2-16.35.57-24.21-.87s-13.19,6.44-20.86,4.49c-.58-.15-2.34,1.65-2.39,2.6-.26,4.75.3,9.57-.23,14.28-.64,5.72,2.76,12.29-3.18,17.1a5.05,5.05,0,0,0,1.43,2.73c2.61,2.06,1,5.17,2,7.36,1.77,3.81-7.25,5.07-1.66,9.65,3.56,2.92,1,7.66,1.44,11.55a96.35,96.35,0,0,1,.07,10.2c0,4.09.21,8.19-.07,12.25-.21,3,.85,4.95,2.91,7,2.64,2.69,2.1,7,.67,9.35-1.7,2.79-2.78,5.72-4.28,8.46-1.87,3.44-5.33,6.16-8.52,8.68-1.23,1-4.42,1.39-5.27.57-2.59-2.52-5.2-4.31-8.84-3.48-8.44,1.93-11.74-5.07-16.5-9.43a4.7,4.7,0,0,1-.88-3.64c1.69-10.46-3.74-18.63-8-27.39-1.19-2.46-3.81-4.31-4-6.42-.62-7.42-.17-14.93-.44-22.39-.09-2.51,1.39-3.72,2.87-4.94,2-1.65,1.24-3.71,1.26-5.62.08-7.49.28-15-.07-22.46-.17-3.87,2.23-8.82-1.62-11.35-2.4-1.58-6.51-.89-9.82-.68s-4.44-2.6-6.66-3.79c-1.56-.83-4.1-1.21-5.41.85-2.88,4.51-7.3,2.36-11.1,2.86-4.32-6.46-11-3.93-16.69-3.91-4.12,0-5.81-2.67-8.36-4.7-2-1.61-2.21-4.62-1.35-5.36,3.44-3,4.25-6.45,4-10.74-.23-4,3.49-6.53,5.95-7.43,4.13-1.49,9.46.4,12.4-4.63,4.08,0,9.25,1.52,12-.41,3.57-2.54,6.63-3.88,10.85-3.73,5.24.2,10.44.66,14.84-3.83,1.38-1.42,5.62.31,7.63-.91,3.48-2.11,1.4-6.21,1.54-9.4.3-6.8.09-13.61.09-20.42,0-4.08-1.49-9.14.38-12,2.33-3.56,4.24-6.54,3.73-10.81a3,3,0,0,1,.19-1.94c3.1-4.08,8.75-6.22,8.13-13.07-.46-5.06,6.48-8.65,3.91-14.63,4-6.74,7.47-13.83,13.91-18.74,2.41-1.83,3.65-4.66,1.81-6.84-2-2.36-3.56-5.88-7.7-5.83-8.17.1-16.36-.33-24.5.18-4.34.27-7.29,5.23-12.65,4.1-3.91-.83-8.14-.29-12.21-.08-1.14.06-2.24,1.11-3.34,1.72-3.89,2.12-7.57,5.07-11.72,6.12-3.78,1-7.49.4-10.91,3.71-1.75,1.7-6.62,2-9.25-.58-2.3-2.23-3.18-2.48-6-.31-3.91,3-8.58,2.7-12.38-1.48-2.11-2.31-1.75-2.23-.48-5.86,3.75-10.72,13.19-16.32,20.51-23.83,5.06.8,6.89-3.62,9.6-6.29,2.94-2.92,6.43-1,9.44-2,2.35-.75,4.19-3.21,6.54-3.86,11.95-3.3,14.71-4.54,20.42-9.92,2.41-2.27,5-4.35,7.5-6.52,6.58,2.77,10.3-5.07,16.71-4.27,6.71.83,13.67-.43,20.38.38,5.28.64,8.38-3.13,12.65-4.2s9.61,2,13.14-2.76c1.58-2.13,3.66-1.15,5.57-1.41,7-1,15,3,20.77-4.08,7.49,0,15,.52,22.44-.2,4.26-.42,7.38-4.93,12.65-4.05,4.64.78,9.51.17,14.27.17s9.54-.17,14.3,0c3.55.16,6.05-1.13,9-3.17,2.34-1.62,6.49-1.27,9.71-.84,4.09.55,5.14-4.11,8.54-4.19,5.65-.14,7.8-5.08,10.72-8.39,3.7-4.21,9.69-3.87,13.14-8,6.74.18,13.53-.09,20.17.8,2.08.28,5.25,3.59,5.32,5.6.15,4.86.92,8.88,4.28,12.68s-5.86,13.3,6,13.59c3.87,3.8,7.7,7.65,11.7,11.3.33.31,2-.46,2.77-1.11,1.5-1.33,4.21-3.34,3.92-4.32-3-9.73,8.34-12.77,9.47-20.83.56-3.93,6.73-5.55,7.5-11.21.45-3.27,6.93-5.74,7.32-9,.58-4.91,4.36-7.69,5.57-12.19s7.2-7.18,8.31-12.86c.32-1.66,2.72-2.91,4.15-4.37,8-8.22,18.09-10,29-8.84A3.65,3.65,0,0,1,682,67.26c-.39,5,3.77,7,6.54,9.55,6.82,6.33,9,13,3.14,21a7,7,0,0,0-1.32,3.51c-.2,2.71-.07,5.44-.07,8.16,0,5.45.24,10.91-.07,16.33-.25,4.47,1.11,8.89-2.67,13.27-3.63,4.2.92,11.35-1.64,15.49-6.26,10.13-2.38,20.85-3.92,31.15-.54,3.65-3.16,7-3.79,10.61a50.43,50.43,0,0,0-.09,12.22c.28,3.83-1.78,8.25,2.22,11.3s-.21,8.06,2.93,11a8.3,8.3,0,0,1,3,7c-.26,6.12-.31,12.26,0,18.37.22,4.31-1,7.44-3.94,10.77-1.85,2.11,1.27,6.57-1.79,9.37-1.48,1.35-3.25,2.8-2.47,5.06,2,5.91-5.42,8.89-4.25,14.68.79,3.88.48,8,.8,12a1.92,1.92,0,0,0,1.38,1.3c.51,0,1.41-.89,1.38-1.34-.53-7.62,3.84-13.51,7.46-19.37,2.79-4.5-1.51-11.48,5.43-14.12-.73-4.88,2.06-8.57,3.56-12.79s2.25-8.41,4.36-12.55c1.37-2.71-.25-6.78.42-10,.49-2.34,3.94-4.55,3.65-6.47-.77-5.26,3.3-8.41,4.2-12.67.92-4.43,5.87-7.11,4.41-12.62-1-3.9,5.48-5.79,4.12-10.43,5-2.1,2.52-9,7.22-11.31.82-10.55,6.77-19,11.73-27.79,1.94-3.43-.16-7,1.46-9.59,1.73-2.78,4.73-4.69,3.94-8.65-.25-1.26-.42-3.27.28-3.87,5.33-4.58,8.48-9.45,8.23-17.25-.17-5.37,5.17-10.38,3.78-16.7-.24-1.1.2-3.15,1-3.54,5.65-2.88.9-9.24,4.34-12.55,2.14-2.06,2-4.76,3.14-6.87a12.48,12.48,0,0,1,7.33-6.39c4.18-1.27,8.06-3.51,12.07-5.33,1.38-.62,1.69-3.71,4.45-1.21,2.26,2,5.62,2.81,8.25,4.52,1.67,1.08,4.33,3.21,4.07,4.23-1.5,6,3.8,9.88,4.08,14.72.72,12.9.4,25.86.17,38.79-.09,5.78-5.5,10.09-4.25,16.73,1.12,5.92.24,12.21.24,18.34v18.38c0,6.13.5,12.3-.13,18.37-.78,7.67-5.11,14.56-4.16,22.85.93,8.06.2,16.31.2,24.48v24.51c0,8.17,0,16.34,0,24.5,0,4.06-.52,7.34-3.41,11s.33,11.11,4.72,13.66c1,.61,3.24,1.18,3.63.7,3.85-4.61,10.08-2.65,14.19-5.23,3.07-1.93,5.83-3.65,9.06-2.72,6,1.73,9.15-5.11,14.7-4.33.26,0,1.36-2,1.07-2.71-.75-1.74-2.37-3.11-3.06-4.86-1.87-4.72-6.21-8.78-4.15-14.62-4.58-2.4-3.21-8.47-7-11.43a4.28,4.28,0,0,1-1-3.55c1.26-6.27-3.82-11.37-3.68-16.69s-5.21-7.6-4.68-12.63c.5-4.71.11-9.51.11-14.28V216.38c0-2-.06-4.09,0-6.13a2.16,2.16,0,0,1,.86-1.63c5.76-2.73,1.15-9.1,4.38-12.48,2-2.09,1.93-5.19,3.16-6.81,4.81-6.38,11.77-9.88,19.91-10.45,1.15-.08,3.42.86,3.39,1.19-.43,5.56,7,8.35,5,14.33,2.33,3.6-7,5.06-1.56,9.59,3.58,3,.9,7.67,1.54,11.54.72,4.43-1.6,9.29,2.8,13.19,3.56,3.16-1.35,9.75,4.4,12.42a45.5,45.5,0,0,0,8.49,21.05c1.32,1.81.87,5.22.58,7.82a8.55,8.55,0,0,0,4,8.6c3.84,2.6,4.82,6.12,4.34,10.5-.45,4.17,5.48,5.53,4.6,10.51-.32,1.79,8.21,2.71,10.69.57,2-1.69,4.44-3.79,4.87-6.06.72-3.87.85-7.26,3.47-11,2.31-3.28-.16-10,2.21-13.14,2.93-3.88,3.52-7.76,2.48-11.19-2.26-7.43,5.64-11.73,4.52-18.83-1-6-.18-12.21-.16-18.34,5.31-4.84,6.21-9.93.88-15.39-.91-.92-.42-1.8,1-2.91,2.43-1.86,2.62-4.16,1.39-7-4.35-9.86-4.54-17.65-.87-26.18.5-1.16,1.6-2.32,1.52-3.41-.3-4.28.34-7.9,4.2-10.61a22.18,22.18,0,0,0,5.76-5.75c4.33-6.62,11-4.51,16.6-3.93,2.3.23,4.74,4.45,6,7.34.77,1.78.93,4.39,2.91,4.37,4.54,0,5.62,1.91,5.55,6.1-.22,12.25,0,24.51-.12,36.76,0,4.73-.51,9.31,4,12.78.83.65.73,3.85-1.38,5.35a7.37,7.37,0,0,0-2.09,2.74c7.37,7.52,2.94,16.76,3.42,25.12.74,12.89.12,25.86.27,38.79,0,2.11,1.42,3.47,4,3.29,3.39-.24,6.8-.06,10.21-.06,4.31-6.48,10.95-3.59,16.69-4,5.55-.42,5.88-.32,5.69-5.7-.11-3.24,1.5-6.95-1.1-9.68a9.09,9.09,0,0,1-3-7c.2-11.57-.57-23.19.34-34.69.51-6.48-5.58-10.23-4.54-16.74.95-6,.2-12.22.2-18.35V158.19c0-6.13-.76-12.38.22-18.34.89-5.45-6-7-4.54-12.7,1.18-4.46.5-9.49.17-14.23-.46-6.76,6.06-11.59,4.78-18.48,4-1.83,7.88-4.09,12.06-5.35,3.23-1,6,.49,9,2.86,7.55,6,8.37,15.91,14.14,22.91,1.39,1.69.88,5.09.91,7.71.09,8.85-.18,17.71.11,26.55.17,5.1-2,10.66,3.29,15.09,1.41,1.18.68,5.08.69,7.73.06,11.57-.29,23.15.15,34.71.25,6.37-2.52,13.35,3.48,19,1.39,1.32.46,5.17.47,7.85,0,12.94.09,25.87,0,38.8,0,4.15,3.14,6.47,5.67,7.68a16.1,16.1,0,0,0,13.49-.07c2.22-1,4.73-3.6,5.15-5.84.74-3.86,1.45-9.18-.56-11.74-2.87-3.65-3.3-7-3.29-11q0-31.65,0-63.31c0-4-.32-7.76,3.39-11,1.41-1.23.67-5.08.68-7.73,0-17.7,0-35.4.06-53.1,0-3.27-.18-6.9,1.14-9.71,1.07-2.29,2.16-4.56,3.22-6.83,1.61-3.47,5.41-5.89,8-9,1.57-1.81,3.43-1.77,5.43-1.76,2.72,0,5.5.36,8.15-.08,5.55-.92,6.62,2.15,7.33,6.66.26,1.63,2.69,2.92,4.15,4.35.44.44,1.05,1.19,1.41,1.1.57-.14,1.39-.86,1.41-1.36.24-7.42,1.19-14.94.29-22.24-.87-7.09,7.29-11.57,4.32-18.75,2.83-2.59,4.42-6.92,9.41-6.48,2,.19,4.08-.08,6.12.06,2.61.18,5.77-.25,7.64,1.08s1.46,5.21,3.18,6.58c4.72,3.79-.57,11,5.5,14.38,1.29.73.79,5,.8,7.61.07,12.93-.31,25.88.25,38.79.16,3.75-5.33,5.49-3.07,7.9,3.27,3.49,2.23,9.23,6.93,11.54v22.47c0,6.12.39,12.28-.11,18.37-.46,5.58,5.86,8.52,4.44,14.71-1.18,5.17-.24,10.83-.24,16.28v14.3c0,5.44.32,10.91-.09,16.33s6.58,8.25,4.44,14.74c-1.41,4.3-.27,9.44-.27,14.2,0,5.45,0,10.9,0,16.34,0,6.84,0,6.86,8.1,9.41.62.2,1.67-.26,2,.07,5.78,6.26,13.65,10.85,16,19.88,3.53,2.3,2.34,5.91,2.56,9.15a11.42,11.42,0,0,1-3.09,9c-4.93,5.73-11.66,7.92-18,10.91-3.94,1.85-4.45,3.33-2,7.45,1,1.65,2.92,2.49,2.8,5a104.6,104.6,0,0,0,0,16.32c1,9-3.4,18.77,3.84,27,1,1.15-.06,4,.17,6,1.06,9-3.31,18.84,4,26.9,0,4.08-.25,8.19.07,12.25.39,5.1-1.83,10.5,3.19,15.16,1.76,1.63.74,6.37.8,9.7.1,4.76-1.28,10.06.39,14.15s4.63,7.81,3.72,12.75c4.22,3.27,4.69,7.77,4.08,12.6-.58,4.57,1.91,9.83-1.47,13.63a26.07,26.07,0,0,1-18.68,8.87c-2.4.11-3.84,1-4.27,3.07a5.06,5.06,0,0,0,.66,3.74,78.26,78.26,0,0,0,5.69,5.84c7.28,7.49,7.65,10.13,3,20.92-.49,1.15-1.44,2.55-1.15,3.53,1.86,6.46-5.62,10.1-4.44,16.77s.25,13.57.25,20.37c-5.46,6.12-3.95,13.61-4.08,20.78-7.8,9.47-2.6,20.67-4.09,31-.92,6.35,2.66,13.6-3.78,18.88-.37.3-.27,1.24-.29,1.89,0,1.36,0,2.72,0,4.09v16.33c0,6.13-.68,12.36.19,18.35s-3.35,9.86-4,14.72c-1,8-.29,16.3-.29,24.47,0,4.76-.16,9.53,0,14.29s.39,9.43-4.13,12.6l.23,20.33c6.56,5.2,3.25,12.46,3.75,18.83.48,6.09.18,12.25.08,18.38-.08,5.21-4.77,9.48-10.36,9.53-4.76,0-9.53.08-14.29,0-2.76,0-7.95-5.09-8-7.81-.08-9.53,0-19.07-.07-28.59-.06-5.2,1.44-10.65-3.85-14.9-1.32-1.07-1.28-6.73,0-7.64,5.09-3.63,2.1-6.1-.13-9.2-.67-.94-.29-2.57-.64-3.81a2.24,2.24,0,0,0-1.41-1.36c-.39-.08-1.26.68-1.37,1.18-.87,3.85-1.15,8.1-7,7.11-.44-.07-1.75,2-1.77,3.16,0,3.31-1.37,4.87-4.75,4.73-2.72-.12-5.45-.12-8.17,0-2.29.1-3.57,1.32-3.53,3.78.06,3.4-1.39,8.1.31,10,3.67,4,4.13,8.11,3.84,12.85,5.78,3.66,4.06,9.51,3.93,14.66-.12,4.44,2.07,9.62-3,13-1,.68-.14,1.59,1,2.93a8.92,8.92,0,0,1,2.11,5.17c.13,27.23-.22,54.47.34,81.69.12,5.8-5.95,8.62-4.54,14.7,1,4.52,1.43,10-.17,14.1-1.4,3.64-4.38,6,.29,9.14.61.42.56,3.34-.09,3.8-3.93,2.73-4.19,6.53-3.95,10.72a51.87,51.87,0,0,1,0,10.2c-1.4,9.64,3.86,20.22-4,28.95,0,10.21,0,20.42,0,30.63a2.61,2.61,0,0,0,.57,1.78c9.21,7.78-.86,14-1.78,20.93-.14,1.07-1.78,2-2.78,2.9-3.35,3.12-20.6,3.12-24.75,0-3.07-2.3-4.6-6.68-9.78-6.22-1.81.17-3.42-3.36-2.22-4.61,5.42-5.6,3.21-12.44,4.08-18.85,1-7.67-3.52-16.1,3.43-23.15,1.39-1.41.5-5.17.51-7.85,0-15-.3-30,.16-44.92.21-7-3.28-15,3.84-20.82,0-6.79.21-13.59,0-20.38-.08-2.91.44-5.18,2.83-7,2.62-2,1.49-5.16,1.13-7.57-.33-2.23-3.53-4.49-3.17-6.27.45-2.17,3.83-3.47,3.41-6.72a49.92,49.92,0,0,1,0-6.12c0-6.8.24-13.62-.08-20.41-.25-5.11,2.29-11-3.45-14.88-.72-6-2.41-12.71.73-17.53,2.54-3.91,2.68-7.3,2.76-11.19.13-6.12,0-12.25,0-18.37s-1.66-12.92.46-18.2,8-8.94,12.22-13.31c1.8-1.85.46-1.82.4-7.22-.09-8.07-7-14.26-5-22.62,1-4.18-5.33-5.67-4.16-10.58,1.11-4.61-.23-8.71-3.62-12.82-2-2.45,1.11-8-3.42-10.71.23-7.9-7-14.14-5-22.41,1.64-6.92-6.14-11.75-4.1-18.73-6.82-3.22-1.3-11.77-6.73-15.6-.54-.39-1.36-.94-1.37-1.44-.12-4.08-.77-8.33.11-12.21,1.11-4.93-4.35-6.34-4.4-10.6,0-4.44,1.32-8.93-2.69-13.29-2.11-2.3-.83-7.63-1.3-11.57-.33-2.76-5.62-7.42-8.34-7.44-9.53,0-19.06,0-28.59,0-2.72,0-5.4,3.53-3.75,5.4,3.35,3.79,4.23,7.8,4.1,12.71-.12,4.57-2.09,10,1.28,13.62,3.94,4.25,2.3,8.82,2.6,13.28.31,4.74.09,9.52.11,14.28,7.26,5.78,3,13.8,4,20.79.83,5.86-1.91,12.32,1.88,17.58,4,5.64.06,12.35,2.6,17.3,2.46,4.78,2.76,9.91,4.86,14.34,1.43,3,3.41,5.52,2.92,9a4.75,4.75,0,0,0,2.55,5c5.85,3.12,6.45,9.8,9.29,14.66,2.65,4.54,5.92,9.83,4.82,16.48-.8,4.83-2.1,10.45,2.93,15.12,1.76,1.64.84,6.37.84,9.68,0,34.72,0,69.44.06,104.16,0,4.55-1.41,9.54,3.59,12.88.69.46.95,3.15.37,3.71-7.07,6.71-3.46,15.25-3.83,22.92-.6,12.22-.29,24.5-.1,36.75.07,4.49,5.54,7.17,4.2,12.65-.94,3.85.75,8.41-.41,12.13-1.51,4.87-5,8.94-4,14.75.76,4.64.16,9.5.16,14.27v16.34c0,4.76-.51,9.59.1,14.28,1.27,9.65-3.88,20.22,4,29,0,6.13,1,12.48-.31,18.31-1.06,4.72-4.8,8.87-7.55,13.14a5.72,5.72,0,0,1-5.09,2.51c-5.37.13-9.86-1.4-14.85-3.73-5.23-2.45-8.39-6.43-12.05-10-1.44-1.43-1-5-1-7.64q-.09-44.93,0-89.86,0-102.11-.12-204.22c0-5.69,2.56-12.26-3.29-17a7.79,7.79,0,0,1,1.67-2.75c2.22-2.21,2.6-4.54.6-7-1.28-1.57-2.89-2.88-4.29-4.36-2.3-2.44-6.28-4.81-6.45-7.41-.31-4.87-1.34-8.94-4.46-12.57,2.91-9-6.33-16-4-24.85,1-3.72-7.69-7.27-.1-10.94-1.4-2.12-5-3.25-3.94-6.43,1.8-5.44-4-8-4.25-12.63-.25-4.46,2-9.66-3.24-13a2.61,2.61,0,0,1-.75-1.69c-.87-5.81,1.81-12-2.13-17.52s-1.67-11.69-1.82-17.55c-.1-3.75-1.74-6-3.7-8.82-.78-1.11,5.74-3.69.72-7.1-2.64-1.8-1.13-5-1.2-7.59-.19-6.81,0-13.62-.09-20.42,0-2.73-5.23-7.8-8-7.82-10.89-.06-21.84.68-32.65-.24-8.69-.74-11.37,6.16-16.21,10.32-2,1.67-.46-.38,1.09,1.14,4.16,4.11,2.28,8.84,2.61,13.3a113.76,113.76,0,0,1,0,12.25c-.14,4,2.66,4.45,5.33,4,5-.91,8.2,2,9.89,5.41,2.23,4.42.56,10.43,5.19,14.2a2,2,0,0,1,0,1.95c-6.6,6.71-2.47,15.34-4.31,22.79-1.37,5.56-4.53,10.56-3.92,16.76.53,5.4-.08,10.89.18,16.33.16,3.39-2.28,5.32-4.3,6.26-4.81,2.25-9.14,4.77-12.75,8.78-2.18,2.42-8.74,2.21-10.95.15-2.49-2.32-5.8-4.39-7-7.29-2.2-5.18-6.73-9.38-6-16,.7-6.73-.15-13.62.26-20.4.27-4.41-2.11-7.2-3.87-10.73-1.64-3.28.58-8.45-1-11.78-1.34-2.8-3.47-5.28-4-8.57a2,2,0,0,0-1.4-1.35,1.93,1.93,0,0,0-1.38,1.33c-.31,4-.09,8.06-.78,12-.54,3.06-4.54,4.45-4.11,8.56.57,5.38,1.89,11.75-.29,16.1-2.9,5.78-8.88,10-13.64,15a48.63,48.63,0,0,1-6,0c-3.91-.49-8.13,1.51-11.72-1.22-1.61-1.22-4.1-2.81-4.15-4.3-.2-5.4-7-8.56-4.81-14.38,2.29-6.07-5-9.1-4.2-14.68a15,15,0,0,0-3.72-12.86c-2.06-2.38.27-7.24-3-11-2.1-2.39-1.61-7.66-1.19-11.52.48-4.56-2.93-7.12-4-10.65-1.13-3.75-.19-8.1-.27-12.18-.09-4.68-.71-5.16-6.2-5.18-7.49,0-15-.26-22.47.07-6.41.28-13.55-2.22-18.73,4-6.33-1.29-13.54,3.22-19.31-3-.41-.45-3.76,2.48-5.92,2.89-5,.95-11-2.05-14.78,3.8-3-3.44-5.91-3.77-8.67.29-3.72-7.58-7.24,1.33-11,.17-1.84-.58-4-.14-5.81-.81-.8-.3-1-2.18-.31-5.22.4-1.23-.51-.68-1.14.1a1.73,1.73,0,0,0,0,1.71,1.76,1.76,0,0,0,1.71,0,8.46,8.46,0,0,0,1.86-2.41c.08-.15-.79-.82-2.45.58-2.55,1.88-3.93,2-5.27,1.84-2.6-.35-3.66,1.14-4,3.28-.23,1.32.28,2.81-.09,4.06-1.39,4.72,8.27,6.92,3,12.08-3.43,3.32-2.46,9-7,11.46.56,4.19-1,6.37-5.49,6a33.81,33.81,0,0,0-6.12,0c-4.28.39-8.78,4.94-8.79,9-.05,30,.11,59.91-.13,89.87-.06,6.71,5.71,11.48,4.46,18.77s-.27,14.93-.27,22.42c0,6.81,0,13.62,0,20.43a3.6,3.6,0,0,0,.85,1.67c.94,1.37,1.68,1,2.92-.54,4.71-5.69,11.15-8.66,18.09-10.45,2.3-.59,2.67-5.6,5.83-2.8a12.4,12.4,0,0,0,7,3c2.06.32,2.05,3.06,2,5.12-.06,2.59-.73,6.34,2.51,6.63,4.3.38,6.15,1.65,5.66,6-.15,1.34.14,2.74-.05,4.08-.47,3.23,1.77,7.38-1.26,9.56-3.7,2.66-2.45,7.12-5.46,10.22-6.38,6.54-9.68,15.92-17.62,21.09-4.32,2.81-9.2,4.54-12.75,8.72-3.81,4.47-7.87,8.47-10.28,14.16-1.42,3.38-1.21,9.79-8.18,8.68-.35-.06-1.48,2.1-1.53,3.26-.19,4.07-.77,8.32.08,12.21,1.3,5.93-4.83,9.13-4.35,14.7.47,5.39.07,10.86,0,16.3-7.23,5.79-3.73,13.82-3.75,20.8,0,5.1-6,7-4.59,12.66,1.13,4.48.23,9.47.23,14.24s-.22,9.54.08,14.29c.19,3.17-1.94,4.67-3.36,6.85-.83,1.27-.82,4.47.12,5.28,5.13,4.4,3.4,7.66-.7,11.53s-7.35,7.39-13.85,6.39c-5.87-.9-12-.19-17.41-.19-2.7,4-1.32,7.45-1.6,10.71-.22,2.7,0,5.44,0,8.16-.08,4-.23,8.07-.34,12.11-6.17,2.89-1.63,10.19-5.74,14a6.48,6.48,0,0,0-2,3.22c-1,5.76,2,12.07-2.35,17.42-3.92,4.8-1.06,10.41-1.67,15.61-.4,3.37-2,3.84-4.84,4.79-4.2,1.37-7.94,5.86-12.57,3.66-4.16-2-7.86-3.75-12.66-4.29-3.19-.36-6.87-3.85-6.84-8.66.06-8.85.24-17.71-.07-26.55-.18-5.1,2-10.67-3.25-15.1-1.41-1.19-.72-5.07-.72-7.72q-.06-60.24,0-120.49c0-4.09.29-7.51,3.51-11,1.72-1.85.57-6.45.58-9.81,0-9.53-.36-19.08.15-28.58.35-6.36-3-13.72,3.88-18.77-1-.71-2.39-2.24-3-2-4.65,1.94-10.38,3.15-13.43,6.64-7.17,8.2-17.51,11-25.75,17.11-5.43-.19-7.84,4.3-11.34,7.18-2.85,2.35-4.7,5.28-3.48,8.72,3,8.55-5.67,14.74-4.19,22.85-5.1,3.84-3.75,9.43-4.15,14.64-.36,4.46,1.62,9.13-2.45,13.33-3.57,3.69.41,9.93-1.94,13.32-2.48,3.58-4,6.59-3.77,10.82.19,3.36-.12,6.74-.2,10.1-6.25,2.86-1.77,10.14-5.75,14-.9.87-2,2.07-2.07,3.18-.43,6.69-.59,13.4-.85,20.1-6.09,4.69-2.19,11.34-3.32,17-.88,4.42,1.94,9.25-2.36,13.38-3.88,3.73-.37,9.23-1.93,13.45-1.07,2.86-4.83,4.56-4.1,8.6.08.45-2,1.83-3.1,1.87-5.44.2-11,.76-16.3-.12-4.22-.7-8.13-3.28-12.17-5-.42-7.46-5.4-7.5-11-7.09-4.74.34-9.53-.06-14.29.1-4,.14-3.87-2.45-4.21-5.24-.86-7-5.63-13-4.27-20.82,1.15-6.61.13-13.58.28-20.38.08-3.27-.22-7,1.25-9.64,1.37-2.46,3.15-3.53.12-6s-1-6.36-1.35-9.58a69.36,69.36,0,0,1-.06-8.16c0-3.4,0-6.81,0-10.21s1.16-6,2.63-9.15c2.8-6,3.31-12.79-3.12-18-1.52-1.23-3-1.71-2.8.06.9,7.55-6.78,13-4.78,20.52,1.29,4.83-4.07,6.6-4.15,10.59-.07,3.4,0,6.8,0,10.21-4.57,2.4-3.37,8.29-7,11.43-3.24,2.78,1.12,8.25-3,10.93-4.82,3.15-.24,8.87-4.15,12.71-5,4.9-4.67,13.26-10.26,18.12.8,5.81-4.82,7.54-7.13,11.36s-7.79,1.79-10,5.7c-1.28,2.28-3.62,1.32-5.54,1.36-4.76.1-9.53,0-14.29,0-12.71,0-13-.21-20.32-14.25-4.81-2.24-3.91-7.94-6.86-11.59-2.06-2.55.38-8.59-1.58-11.39-5.13-7.34-3.32-15.23-3.85-23-.35-5.13-5.91-8.5-4.28-14.71,1.17-4.46.31-9.47.2-14.24-.09-4-4.73-9.24-9-8.66-7.79,1.06-12.61-2.63-17.3-7.93a8.43,8.43,0,0,1-2.24-7.27c.42-3.15-1.42-4.94-3.43-6.77-2.86-2.61-6.65-5.06-1-8.79.66-.43.79-3.3.19-3.76-4.43-3.37-4.21-8-4-12.72a161.71,161.71,0,0,0,0-16.33c-.29-4.57,2.16-9.91-1.55-13.55s-2.16-7.5-2.38-11.32c-.28-4.75.36-9.59-.25-14.27-.3-2.3-3.2-4.18-3.78-6.53-1.59-6.47,2.54-16.87,7.54-23.38,5.34-6.94,11.94-7.63,19.58-5.77,3.22,5.23,8.42,3,12.89,3.38,3.21.3,5-1.06,4.82-4.55s5-4.47,4.19-8.54c-.18-.91,1-2.63,1.95-3.14,5.86-3.05,5.13-10.81,10.13-14.17,3.76-2.53,3.48-6.86,5.71-10s6.38-4.65,6.84-9.5c.2-2.18,3.06-4.1,4.71-6.14,3.74-4.61,9.61-7.47,11.36-13.68,1.59-5.64,7.36-7.66,10.26-12.1,1.71-2.63,2.72-5.72,4.43-8.35,2.1-3.2,7-4.7,5.76-9.88a30.21,30.21,0,0,0,12.8-8.6c2.2-2.48,8.76-2.37,10.95-.33,3,2.8,5.8,5.76,8.69,8.65-.72,6.58,6,8.34,8.27,12.92a8.2,8.2,0,0,1,0,6c-1.64,4.08-3.36,8.34-6,11.75-4,5.1-8.69,9.38-11.83,15.53-2.94,5.77-8.88,10.25-14.13,14.53s-5.31,12.05-11.37,15.89c-3.37,2.13-5.52,6.15-8.84,8.4-4.27,2.88-4,8.07-7.09,11.48-2.55,2.85-7.12,4.61-5.93,9.77-3.91,2.15-3,7.29-5.79,9.77-3.17,2.84-1.64,7.76-5.61,10.08-3.56,2.08-4.55,6-6.06,9.68-.92,2.27-3.5,3.87-3,6.94,1.17,7-3.19,15,4,20.8,0,4.76.26,9.53,0,14.27-.15,2.57,1.63,3.51,2.92,4.95,1.65,1.84,3.12,4.36,5.81.89,2.53-3.28,6.37-1.69,9.49-1.51,5.78.33,10.65-.46,14.08-5.71,1.06-1.63,2.85-2.22,5-2.76a74.25,74.25,0,0,0,28.64-14.61c9.79-7.86,10.94-9.71,11.77-19.27.12-1.36-.49-3.61.1-4,5.8-3.38,2.62-9.89,5.25-14.26.69-1.13,2.46-1.81,2.74-2.94,1.21-5-1.69-10.38,2.82-15.28,3.34-3.63-.38-10.79,5.45-14,0-3.4-.1-6.81,0-10.21.19-5.71,5.33-15.34,10.59-20.11a32.07,32.07,0,0,1,21.3-7.88c4.13.09,7.27,3.09,7.69,5.41,1,5.76,4.75,10.79,5.08,16.27.78,12.88.33,25.85.15,38.78a8.86,8.86,0,0,1-2.22,5.14c-2,2.33-3,5.1-.58,6.84,1.86,1.34,5.24,1.67,7.57,1,5.64-1.52,7.78-9.1,14.65-9,.36,0,1.12-1,1-1.51-.81-4.95,2.12-8.52,3.82-12.74,2.14-5.29-1.54-11.95,2.36-17.41s1.21-11.71,2.06-17.53-2.28-12.14,3.59-17c1.05-.87.47-3.83.47-5.82,0-13.61,0-27.23.07-40.84,0-2.31-.79-4.46-2.78-4.45-4.56,0-6-2-5.43-6.12a7.16,7.16,0,0,0-2.72-7.1c-.84-.69-1.66-2.69-1.26-3.39,2.83-5,3.84-11,8.68-14.81.16-.12,13.84-5.51,14.06-5.49,4.91.55,9.21-.1,12.51-4.53,1.13-1.51,1.72-1.88.06-3-1.08-.74-2.55-1.87-2.62-2.92-.31-4.06-.77-8.29,0-12.21,1-4.84-4.64-6.23-4.34-10.61.3-4.67-.18-9.4-.33-14.11-4.9-3.62-10.45-.94-15.67-1.53-4-.46-8.16-.12-12.25-.08-3.38,0-4.28,1.06-4.32,5-.05,4.77-.47,9.59.12,14.28s-5.1,6-4.35,10.6c.65,4,1.46,8.83-.2,12.06-2.15,4.2-4.34,7.83-3.83,12.79a100,100,0,0,1,0,12.24,2,2,0,0,1-1.13,1.51c-7.68,2.09,5.95,8.18-1.92,10.16a24.78,24.78,0,0,1-5.07,10.16c2,8.39-4.95,11.85-9.49,16.43-1.63,1.64-4.53,2-6.86,3-1,.4-2.63,1.32-2.79,1.11-4.15-5.53-10.05-2.31-15.08-3.26a3.79,3.79,0,0,1-2.43-2.66c-.17-5.27-6.9-8.62-4.2-14.64,2.43-5.42-4.89-7.54-4.19-12.62.55-4,.11-8.15.11-12.24-8.33-4.87.15-16.25-8.17-21.12,0-4.08,1-8.53-.37-12.12-1-2.82-3.88-4.76-3.89-8.66,0-5.88,1.74-12-1.57-17.66-7.8.43-16.08-2.71-23.22,2.42-2,1.41-3.68,1.32-5.6,1.34-6.12.08-12.26-.21-18.37.11-4.46.23-7.34,6-12.61,4-1.17-.45-2.27-1.08-3.41-1.62.69-1,1.2-2.2,2.12-2.83,1.68-1.17,2-2.56.26-2.83a65.19,65.19,0,0,0-11.92-.77c-2.1,0-3,1.65-3.22,4.1-.6,8.13-.78,7.77-7.34,8.17-6.38.39-13.63-2.79-18.9,3.66a4.09,4.09,0,0,1-1.37-.9,3.22,3.22,0,0,1-.85-1.67c-.26-4,1.11-9.33-.95-11.72-3.82-4.42-10.22-.71-16.34-1.76-.48.24.29,0,.92,0a30.71,30.71,0,0,0-.11-5.68c-.16-.83-1.45-1.48-2.33-2.07a2.84,2.84,0,0,0-1.25,1.29C244.67,673.19,244.71,675.57,248.22,677.14ZM339,954.92c-5.83-1.95-9,4.85-14.51,4.44-1.56-.12-1.93,1.77-.81,2.7a4,4,0,0,0,1.6,1c7,1.17,11.95-3.81,17.76-6.18.24-.1.08-1.87,0-1.88-1.34-.11-2.7-.08,2.38-3.83a15.19,15.19,0,0,0-2.32,2,1.22,1.22,0,0,0,1.73,1.73,8.12,8.12,0,0,0,1.85-2.41C346.81,952.31,345.94,951.64,339,954.92Zm98-714.84c0-3.23-.8-6.7,2.72-8.88a7.21,7.21,0,0,0,1.3-1.39c-1.06-.66-2.07-1.78-3.18-1.89-3.53-.36-4.77.79-4.9,4.17-.11,2.66,0,5.33,0,8-2.82-1.36-5.64-2.73-8.48-4.08-10.05-4.77-9.62-4.52-14.84,4.63-2.33,4.1,1.38,9.74-4,12.68-.8.44-1.1,2.27-1.19,3.48-.47,6.43,1.79,13.43-4.12,18.66q.18,14.16.38,28.33c9.09,3.45,18.55.82,27.8,1.65.67.06,1.53.28,2,0,2.66-1.75,4.51-4.23,8.5-4.37,2.85-.1,2.15-4.27,2.15-6.86,0-14.24.05-28.49,0-42.73a63,63,0,0,0-.74-9.9C440.26,240.89,438.2,240.56,437,240.08ZM641.28,607.71c4.75,0,8.77-.4,12.66.11,4.5.58,7.16-2.83,10.66-3.88,4.37-1.31,9.67.6,14.12-.57,4.21-1.11,7.59-5,12.69-4,.82.16,2.75-1.31,2.83-2.16a101.77,101.77,0,0,0,.14-10.19c0-4.08.79-8.36-.19-12.2-1.4-5.52,4.59-8,4.2-12.63-.71-8.32,6.38-11.07,10.79-15.69.58-.61,3.11-.44,3.76.27,2.57,2.83,7.47,4.66,5.88,9.71-2.47,7.83,6.76,13,4.46,20.76-.08.28,2,1.48,3.16,1.78,2.2.56,4.35-.52,4.57-2.56.44-4,.9-8.33,0-12.19-2.17-9.12,5-16.09,4.86-24.62,5.67-2.7,1.31-9.44,4.5-12.29,4.53-4.06,2.36-8.73,3.07-13.15.2-1.23.33-2.92,1.14-3.55,4.71-3.63,2.35-8.68,2.91-13.13s4.58-7.23,4.38-12.6c-.72-19-.28-38.08-.29-57.13,0-2,.8-5-.23-5.93-7.41-6.79-3.14-15.36-3.65-23-.77-11.51-.17-23.11-.21-34.68,0-5.41-.2-6.27-5.67-5.48-8.09,1.15-12.27-3.73-17-8.51-2.21-2.21-.81-3.88.85-3.77,4.16.26,5.9-2.71,8.21-5,1.93-1.89,3.63-3.72,6.79-3.46s7.08.88,6.87-4.45c-.14-3.54,5.33-4.55,4-8.49-.73-2.17-3.41-5.57-3-5.93,2.9-2.56,3.24-5.58,3.12-9.07-.17-5.44,0-10.89,0-16.33V261.12c0-5.44,1.2-11.25-.3-16.23-2-6.52,4.62-9.15,4.53-14.73-.36-23.12-.13-46.25-.26-69.38,0-.6-1.6-1.32-2.56-1.71-.26-.1-1.27.82-1.36,1.37-.61,3.78,1.18,7.76-2.78,11.21-3.29,2.86-.5,7.74-1.46,11.55-.44,1.76-2.32,3.12-3,4.88-1.69,4.74-.22,10.6-5.12,14.21,2.74,6-4.45,9.36-4,14.62.33,3.82-1.88,5.94-3.68,8.77-1.59,2.5-.06,7.47-1.91,9.21-3.81,3.57-.81,8.82-3,11-3.94,4-4.1,8.21-3.72,12.88.25,3.05-1.74,4.7-2.95,7-1.43,2.71-.25,6.93-1.9,9.33-2,2.86-3.77,5.19-3.45,8.87.35,4-.21,7.39-3.22,11-2.55,3.07.58,9.38-4.62,12.24.38,3.74-1.65,6.24-4.33,8.41,1.8,4.75-5.1,6.43-4,10.51,1.62,6-4.75,9-4.4,14.68.43,7-7,9.21-10.34,14a10.13,10.13,0,0,0-1.67,3.37c-1.14,5.1-4.15,7.46-9.33,8.76-4.14,1-8.08,3.76-11.52,6.48a9.43,9.43,0,0,1-9.52,1.18c-6.89-3-14.56-16.84-14.6-24.23,0-8.16,0-16.32,0-24.49,0-3.24-1.8-3.4-5.17-4.33-5.63-1.55-7.58,4.84-12.67,4.56-3.13-.18-1.58,5.15-3.16,6.11-4.55,2.77-2.19,9.34-7.08,11.52l-1.44,13.69c-5.11,3.34-3.53,8.71-2.89,12.94.83,5.41-3.53,8.26-4.33,12.63-.94,5.16-5.82,7.09-8.7,10.66a5,5,0,0,1-3.37,1.56c-4.07.19-8.15.08-12.24.08a9.16,9.16,0,0,1-2,0c-2.78-.61-12.07-15.73-10.2-17.76,4.6-5,5.34-8.85-.23-13.16-.07-4.05,1.38-9.24-.59-11.88a16.49,16.49,0,0,1-3.59-10.92,4.47,4.47,0,0,0-1.85-3.22c-4-2.51-14,2.47-14.33,7.23s-.07,9.52-.07,14.28c-5,3.85-3.64,9.43-4.18,14.62-.67,6.35,3.09,13.73-3.94,18.75q0,8.14,0,16.31c-5.75,3.65-4,9.43-4.06,14.63-.11,5.44-.85,11,.21,16.28,1.12,5.53-4.31,8-4.32,12.64,0,5.38-5.58,2.07-7.41,4.73-.76,1.09-2.06,2.83-2.85,2.7-4.15-.71-6.11,2.16-8.41,4.54-3.82,3.95,2.66,4.35,2.59,7.79-.5,21.75-.32,43.53-.17,65.29,0,2.53-1.48,3.67-2.91,4.93-1.9,1.67-1.89,4.68-1,5.39,3.81,2.91,3.9,6.63,3.85,10.79-.14,11.56,1,23.24-.36,34.65-1.06,9.18,5.13,16.11,5.06,24.63,0,.48.89,1.33,1.38,1.34s1.42-.91,1.37-1.32c-.58-4.48,4.35-6.56,4.64-10.32a122.18,122.18,0,0,0,0-18.35c-.49-6.16,6.64-9.85,4.4-16.75-1.42-4.35-.94-9.45,3.87-12.53-.6-4.83,1.27-8.54,3.67-12.82,2-3.63-.27-9.42.61-14,.81-4.25,5.2-7.46,4-12.65-.43-1.82-.48-4.87.59-5.7,5.46-4.23,3.67-10,3.15-15-.61-5.82,5.88-8.65,4.53-14.7-1-4.53-.12-9.48-.23-14.24-.07-2.75,1.08-4.79,2.3-7.24,4.81-9.71,11.09-17.43,21.56-21.39,3.55-1.34,3.44-1.2,5.9.36,3.43,2.18,1.82,6.36,4.29,8.5,1.88,1.64,6.1,0,6.6,3a12.54,12.54,0,0,0,3.06,7,5.88,5.88,0,0,1,.75,5.31c-1.11,2.24-3.83,3.43-3.66,6.7.28,5.43-.59,11,.25,16.3,1,6.42-2.77,11.17-4.21,16.71a6.34,6.34,0,0,0,.05,4c.85,1.72,3.49,3.25,3.33,4.61-.28,2.22-3.13,4.18-3.26,6.35-.44,7.45-.17,14.95-.17,22.44,0,6.8-.41,13.63.12,20.39.55,7-3.31,15,3.92,20.75q-1.87,2.16-3.74,4.33c6.28,4.46,3.14,11.09,3.71,16.8.53,5.33.39,10.73.66,16.1,0,.5.85,1.25,1.4,1.35.39.07,1.34-.75,1.36-1.2.31-7.38.47-14.77.76-22.16.11-2.62-.52-6.48.91-7.63,4.78-3.82,2.92-8.67,3.08-13.13.28-7.47,0-15,.12-22.44,0-1.91-.08-4.62,1-5.58,5.16-4.42,2.28-10.1,3-15.18,5.62-3.69,3.94-9.43,4.06-14.63.1-4.08-.08-8.17.09-12.25,0-1.18.57-2.89,1.43-3.4,5.17-3,.44-9.1,4.22-12.63,4.64-4.33,1.87-10.16,2.36-15.29.56-5.82-1.26-12.11,4.18-16.67,0-4.76-1.11-9.89.32-14.18s4.7-7.69,3.82-12.7c-.47-2.66-.28-5.36,2.32-7.18,2.91-2,1.14-6.11,4.18-8.59,2.8-2.3,2.07-7.3,5.85-9.78,2.78-1.82,4.85-4.73,7.3-7.09,4.13-4,13.76-3.88,18,.22,2.44,2.37,6.63,4.65,6.86,7.24.51,5.88,8.2,10.54,3.94,16.34-2.67,3.62-4.52,6.93-3.41,10.81,1.57,5.53-4.91,7.82-4.23,12.63.78,5.51-1.87,9.87-3.71,14.79-1.8,4.76-.34,10.73-.44,16.18,0,1.23-.18,3.07-1,3.59-4.37,2.86-3.61,7.34-2.88,11,1,4.9-4.33,6.5-4.3,10.59.06,7.48-1.07,15.18.31,22.39,1.53,8-6.46,12.89-4.65,20.88,1.26,5.53,1.62,12-3.81,16.61.5,3.17-1.31,6.73,1.85,9.45s3.14,5.49.15,8.42c-.88.86-1.89,2.13-1.91,3.24C641.19,593.23,641.28,599.92,641.28,607.71Zm322.69-65a34.68,34.68,0,0,0,0,4.08c.93,7.9-2.22,16.1,1.69,23.79,7.44.11,14.88.16,22.32.36,3.49.09,4.46-1.64,4.63-4.83.23-4.48-1.15-8.91,3.13-13.09,5.33-5.2,11.66-7.89,18.14-10.7,5.69,4.22,13.07,6,17.42,12.18.38.55,1.35,1,1.37,1.46.28,6.08,5.23,8.9,8.72,12.74L1053,588.46c.29,4,.6,7.93.86,11.89.22,3.32-.9,7.9.85,9.71,3.38,3.48,3.82,7.18,3.1,11-.88,4.73,3.61,6.86,4.13,10.6a28.65,28.65,0,0,1,0,10.16c-1.14,4.83,4.05,6.64,4.2,10.59.11,2.72-.5,5.58.16,8.13.78,3,2.6,5.71,4,8.56.53,1.14,1,2.29,1.54,3.44.85-.68,2.52-1.53,2.42-2-1.1-5.1,5.7-7,4.47-12.68-1.07-4.93,5.85-8.43,4.12-14.67-.68-2.45,5.16-4.49,3.73-8.41-2.42-6.61,4.29-10.78,4.14-16.71,6.56-3.84,1.62-13.19,8.17-17-1.52-6.87,3.36-12.71,3.53-18.74.17-5.85,7.07-8.69,4.64-14.63,2.21-4.53,4.84-8.91,6.52-13.62s4.78-8.78,6.29-13.78c1.22-4,5.72-6.55,11.42-6.38,5.37.15,6-2.44,4.75-9.64a32.92,32.92,0,0,1-.27-10c.6-4.08-4.53-4.68-4.29-8.54.35-5.42.09-10.88.09-16.33s-.76-11,.2-16.29c1.09-6-4.54-9.09-4.51-14.68,0-7.24,2.67-15.16-1.56-21.68-4.61-7.12-.93-14.47-2.3-21.55-.12-.62,0-1.53-.44-1.83-6-4.62-3-11.18-3.56-16.9-.43-4.73-.08-9.52-.08-14.29-8-10.18-2.51-22-4-33-.37-2.67.09-5.45-.1-8.16-.18-2.45-7-7.88-8.81-6.79-2.75,1.66-6.9,3.93-7.15,6.29-.83,8.05-.22,16.25-.16,24.39,7,5.89,3.56,13.82,3.77,20.85.45,15,.12,29.94.16,44.91,0,2.67-.83,6.45.57,7.81,6.58,6.39,2.34,14.14,3.35,21.15.45,3.06.79,6.3-1.8,9.44-3.58,4.35-9,4.9-13.34,7.65-2.91,1.85-8,.44-12,.33-5.11-.14-8.69-4.15-9.44-10.45-.15-1.33.18-2.79-.27-4-.67-1.76-1.89-2-2.8-.85-2,2.49-5.74,3.94-5.1,8.08,1,6.55-1,11.78-6.43,15.75a21.57,21.57,0,0,0-4.32,4.32c-2.28,3-5.18,3.93-8.8,3.53a21.13,21.13,0,0,0-6.1,0c-5.9,1.11-9.66-2.85-10.76-6.93-1.31-4.91-7-8.43-4.58-14.6.64-1.6.4-4.78-.69-5.62-5.5-4.27-1-11.16-3.63-14.83-4-5.58-3.6-11.09-3.7-16.95-.08-4.08,0-8.16,0-12.25-8.33-4.87.16-16.24-8.17-21.11l-.23-16.24c-6.46-4.41-3.19-11.08-3.77-16.79-.54-5.34-.39-10.75-.55-16.13-5.77-3.84-2.9-9.76-3.65-14.83-.52-3.5-4.29-5-9.34-3.92a24.7,24.7,0,0,1-3.74.8c-6,.27-12.08.43-18.12.63-2.93,6.43-1.08,13.22-1.36,19.83-.35,8.15-.09,16.33-.09,24.5,0,1.36,0,2.72,0,4.08,0,1.18,4.91,8,5.74,7.75,3.44-1,2.6-4.06,2.34-6.37-.48-4.17,2.88-5.71,4.86-8.26,1.17-1.5,2.81-1.52,2.77.29A18,18,0,0,0,987,391.91a4.89,4.89,0,0,1,1.41,3.43c.1,11.56.05,23.13.05,34.7-9.26,6.29.88,18.85-8.16,25.21,0,5.44-.18,10.89.05,16.33.28,6.55-1.34,11.05-8.33,13.81-8.62,3.41-12.77,10.05-12.53,20.27.16,6.31,5.63,10.19,4.69,16.7C963.22,529,964,535.94,964,542.75ZM882.28,434.1q0,69.45,0,138.88c0,5.45.53,6.18,5.26,6.1s10.43,1.08,13.65-1.21c3.86-2.73,7.31-2.56,11.2-2.85,4.62-.35,9.37,1.07,14.81-1.45V562.1c0-5.45.84-11.07-.26-16.28-.89-4.21-3.8-7.67-4.09-12.64-.69-11.72,3.88-24.14-3.82-35.09V483.8c0-5.45-1.44-11.46.41-16.18s6.57-8.51,10.76-11.79c6.49-5.08,5.6-11.47,4.66-18.15-4.3-2.56-4.15-6.86-3.44-10.75.87-4.7-3.71-6.9-4.08-10.59-.54-5.4-1-11.07.08-16.28,1.39-6.65-5.32-10.23-4.59-16.77s2.65-14.13-1.24-19.67c-4.59-6.53-1.28-13.08-2.73-19.4-.2-.86-2-1.73-3.15-1.91s-2.92.08-3.62.86c-2.12,2.37-1.08,6.23-4.31,8.49-2.54,1.77-4,4.72-5.45,7.83-3.52,7.38-9.35,11.95-19,11.65-8-.24-14.28-1.56-19.27-8.18-2.85-3.76-6.79-6.68-10-10.21-3.3-3.68-8.36-3.66-10.82-1.58-3.6,3.05-7,3-11,3.38-5.17.48-10.58-1.68-15.5,2-5.31,4-11.7,1.14-17.52,2.07-1.13.18-2,1.72-3.12,2.28-2.25,1.11-5.5,1.36-6.72,3.1s-1,5.05-1,7.66c-.09,12.25,0,24.5-.07,36.76,0,4.68-.38,9.36-.58,14-6.38,4.7,2.48,8.27,1,13.32-1.36,4.6-2.21,10.9,3.61,14.57,0,4.07.78,8.3-.09,12.17-1.09,4.93,4.13,6.43,4.39,10.6.49,7.94-2.62,16.37,1.6,23.77,4.4,7.72,1.29,15.75,2.36,23.55.17,1.3-.24,3.19.48,3.83,6.15,5.47,2.76,12.62,3.57,19,.42,3.29-.83,8,.94,9.66,4.4,4.06,3,8.67,3.11,13.15.09,4.72,6.17,7.22,4.22,12.63a3.23,3.23,0,0,0,2.75,4.38,23.93,23.93,0,0,0,7.9-.57c.72-.16,1.26-2.11,1.51-3.32,1.51-7.57-3.58-16.33,4.12-22.8l.18-16.27c5.9-3.68,3.38-9.61,3.89-14.72.2-2-.48-5,.57-5.77,5.53-4.18,3.36-9.9,3.44-15,.24-14.29,0-28.59.12-42.88,0-2.63-.5-6.9.79-7.62,6.09-3.4.54-10.88,5.62-14.22,2.59-8.8,10.11-13.7,15.91-19.94.78-.84,8.6.18,9.58,1.15C873.63,425.44,878,429.78,882.28,434.1ZM563.67,1022.7h.26c0,8.13,0,16.26.06,24.38,0,.49.83,1.14,1.41,1.38.32.13,1-.36,1.4-.71,5.5-4.8,6.71-12.86,13-17.06,1-5.64-2.18-12.35,4.25-16.66.32-.21,0-1.3,0-2V997.76c0-4.76-.4-9.57.11-14.27.57-5.24-2.58-11.25,1.5-15.6s1.58-8.95,2.51-13.33c1.49-7-3.4-14.93,3.11-21.17q.46-12,1-24.1a2.82,2.82,0,0,1,.5-1.8c7-6,2.27-14,3.49-21,.68-3.9.56-8,.8-11.93,5.25-3.23,3.16-8.44,3.29-12.9.25-8.84.11-17.69,0-26.54a13.27,13.27,0,0,1,2.24-7.28c3.53-6,3.67-13.43.27-18.85a14.9,14.9,0,0,1-2.25-11.27c.93-4.93-4.89-6.34-4.31-10.6.61-4.43-1.17-8.92,2.8-13.28,2.11-2.32.26-7.84,1.46-11.5,1.39-4.2,5.16-7.58,3.95-12.67-.31-1.29,0-2.72-.06-4.07-.15-2.56-4-4.62-6.13-2.83-2.64,2.18-4.78,4.48-8.67,3.92-2.67-.38-5.46.13-8.15-.13-3.19-.31-7.89,1.83-9.15-1.85-1.11-3.25-3-5.63-4.39-8.44-1.62-3.24,1-7.64-3-11.09-3.29-2.86-1-7.67-1.29-11.59-.36-4.71-.22-9.45-.3-14.18-5.14-3.07-3.8-8.14-3.81-12.7,0-5.3-6.79-8.57-4.25-14.69.25-.62-1.29-2.82-2.09-2.88-4-.26-8.29-.72-12.13.23-2.26.56-4.87,3.27-5.66,5.59-2.27,6.64,3,15-4.5,20.6,6.76,4.31,3.23,8.12.33,13.13-1.78,3.06-.77,8-.22,12.05.7,5.08-6.65,7.19-4.19,12.61,2.74,6-3.11,9.65-4.45,14.54-1.12,4.09-4.87,7.13-10.72,7.18-6.23.05-9.29,4.44-9.33,10.29-.05,6.81,0,13.61,0,20.42-.07,5.85,1.37,12.12-4.07,16.68,0,6.8,0,13.61,0,20.41,0,1.3.19,3.14-.54,3.79-6.17,5.49-2.63,12.65-3.47,19-.26,2,1.47,2.61,3.56,1.49,6.68-3.57,13.05-8.28,20.18-10.27,4.57-1.28,8.3-2.42,12.19-5.4,6.09-4.66,4.65-10.62,4.86-16.5-5.43-4.56-3.94-10.82-4.07-16.68a46.12,46.12,0,0,1,0-6.11c.26-2.33-.94-3.78-2.47-5.12-3-2.62-5.69-6.69-9.1-7.44-4.74-1-5.19-3.31-4.77-6.86.38-3.19-1.49-6.81,1.67-9.5,7.15,1.53,5.49-5.72,8.38-8.46,2.45-2.32,4.48-4.72,8.52-4.24a65,65,0,0,0,12.24,0c4.21-.29,5.39,1.23,6.19,5.5.93,4.93,8.11,6.38,8.31,13,.07,2.48,4.63,4.66,6.78,7.27s-5.38,3.78-1,7.27-.55,11,5.82,13.91c.29.14.2,1.25.2,1.9,0,6.81-.41,13.64.13,20.41.5,6.33-3.09,13.69,3.91,18.71-1.57,2-4.25,3.14-4.11,6.49.26,6.12.08,12.25.08,18.37v34.7c0,5.45-.82,11,.2,16.3,1.29,6.58-5.6,10-4.62,16.76,1.33,9.34.36,19,.31,28.53a18.42,18.42,0,0,1-.62,5.87c-.29.82-2.12,1.41-3.31,1.52-2,.18-4,.21-3.32,2.82.17.68,2.18,1.06,3.4,1.3,1.77.36,4.73.69,2.72,2.92-3.28,3.66-4.09,6.16-.38,10.12a7.91,7.91,0,0,1-.06,10.84,9.65,9.65,0,0,0-2.54,7.18C563.77,1009.09,563.67,1015.89,563.67,1022.7ZM486.06,241.28c0,6.76-.06,13.53,0,20.29,0,1.94-.26,4.84.82,5.63,4.93,3.58,3.52,8.65,3,13-.61,5.2,3.15,8.36,4.1,12.58.73,3.2,1.7,4.68,4.94,4.55,2-.09,4.08.16,6.08-.06,3.17-.36,7.89,1.77,9.06-1.9,1.06-3.29,2-6.09,4.62-8.27-1.8-5.74,3.79-10,3.64-14.53-.2-5.88,5.27-8.91,4.7-14.58-.53-5.28,4.06-9.08,6.19-13.57,1.56-3.31,1.36-7.94,5.43-9.95-.58-8.28,3.77-17-3.05-24.84-1.67-1.91-2-6.76.58-9.28,5.91-5.81,2.12-12.78,2.76-19.16.33-3.27-8.47-7.72-10.71-5.48-3.77,3.77-9.27,4.14-13,8.31-6.07,6.79-12.07,13.82-21,17.6-3.18,1.34-5.18,5.5-7.71,8.37,7.54,4-1.66,6.94-.84,11.09C487,227.56,486.06,234.51,486.06,241.28Zm104.56,47.18c1.52-4.23,7.17-2.11,9.68-5.35-2.26-5.41,6.65-7.05,4.21-12.52l5.85-13.89c3.23-4.22,9.11-6.49,10.34-12,1.33-6,6.39-8.44,10-12.1,3-3,1.8-7.54,5.41-10.26,1.43-1.08.94-4.93,1-7.53.27-6,.37-12.09.54-18.13,3.68-2.43,2.75-4.23.15-7.38s2.27-5.62,2.88-8.31c1.18-5.15.51-10.73.49-16.14,0-.51-.82-1.5-1.12-1.45a5,5,0,0,0-2.85,1.15c-1.68,1.91-3.36,3.55-4.4,6.31-2.66,7-7,13.39-9.94,20.34-3.17,7.54-8.88,13.9-10.23,22.26-5.86,5.38-6,14.09-11.47,19.7-.44,6.81-6.25,9.78-10.08,14.17-8.44,0-6.84,10.09-12.69,12.8-1.07.49-2.4,1.95-2.41,3-.08,8.1-.08,16.22.44,24.3.11,1.53,2.78,2.82,4.12,4.35,2.71,3.09,2.85-1.1,4.33-1.48C586.76,289.8,588.54,289.13,590.62,288.46Zm-288.38,724c.13,5.22-1.07,10.81,4.09,14.63,0,4.09.44,8.23-.11,12.23-.7,5.08,6.47,7.12,4.28,12.65a3.78,3.78,0,0,0,2.15,5c2.86,1,5.18-.52,6.89-2.9l7.21-13.34c-.75-4.34,1.59-7.24,3.78-10.75,1.82-2.92-1.09-8.1,3.43-10.76-.28-7.91,6.72-14.07,5.16-22.42-.74-3.94-.5-4.56-5.07-1.92-3.64,2.12-8.19-1.19-11.16,2.71s-7.47,1.81-11.29,2.26a10.49,10.49,0,0,0-9.36,10.59C302.23,1011.09,302.24,1011.77,302.24,1012.45ZM473.8,606.67c0-.6-.37-5.23-.7-9.87-5.2-3.2-3.14-8.38-3.32-12.83-.25-6.09,0-12.19-.16-18.29,0-.91-1.41-1.78-2.17-2.67-.48.47-1.32.91-1.38,1.44-.63,5.73-7,9.87-4.52,16.43-6.84,5-3.15,12.33-4.11,18.63-.39,2.53,1.32,5.45-1.37,7.55-4.61,3.61-2.16,8.68-2.6,13.12-.1,1.08.84,3.16,1.51,3.26,3.4.47,6.32,1.54,8.36,4.44,1.43-1.26,2.83-3.55,4.32-3.6,3.87-.15,6.55-.66,6.18-5.42C473.63,616.16,473.8,613.44,473.8,606.67Zm629.06-363.89V218.43c-7.87-8.66-2.47-19.2-4.09-28.74-.32-1.9-.57-3.81-1-5.68a1.52,1.52,0,0,0-1.35-.7c-.58.23-1.39.87-1.4,1.36-.19,5.37-.86,10.83-.17,16.1.76,5.75-2.11,9.88-4,14.65-.82,2-1.47,5.44,1,7.48,2.32,1.87,2.92,4,2.92,7,0,4.68.39,9.26-4,12.44,6.52,4.32,3.22,11,3.84,16.65.44,4,.26,8,.35,12.05,5.21,2.84,3.06,8.21,4.33,12.41.59,1.94,1.55,1.62,2.86.36,4.79-4.57,6.73-8.95,3.65-13.76-1.92-3-3.08-5.53-3-9C1103,255,1102.86,248.86,1102.86,242.78Zm-49,102.27c0-4.07.15-8.15-.11-12.21-.06-1-1.44-2.71-2.29-2.76a58,58,0,0,0-12.08.33c-.87.14-2.29,4.34-1.69,4.95,3.6,3.68,4.2,7.85,4,12.74-.33,8.81-.09,17.65-.09,26.47,0,3.4-.78,7,.22,10.12.93,2.87,5,4.51,3.93,8.58-.08.34,1.07,1.44,1.33,1.34,1-.37,2.53-1,2.57-1.68.23-4.06.11-8.14.11-12.21,0-3.4.4-6.85-.11-10.17s7.59-5.51,1-9.43c-.09-.05,2.66-3.74,3-5.9C1054.24,351.91,1053.84,348.45,1053.84,345.05ZM758.68,591.36c3.05.68,4.53-1.83,6.65-3.39,1.93-1.43,6.06.07,6.45-3.09s1.76-6.88-1.5-9.45c-2.48-2-2.43-4.48-2.41-7.2a70.58,70.58,0,0,0-.5-8,2.11,2.11,0,0,0-1.41-1.36c-.36-.09-1,.65-1.41,1.12-2.14,2.41-5.36,4-4.89,8.21.38,3.36-.34,6.86.18,10.18.64,4.08-4.28,4.9-4.27,8.53C755.57,588.72,757,591.53,758.68,591.36Zm-207.09,24c-.25-3.66-.42-6.93-.77-10.17a2,2,0,0,0-1.37-1.33c-.37-.08-1.19.63-1.35,1.14a28.28,28.28,0,0,1-3.93,8.47c-1.49,2.06-.44,6.11-.1,9.23.06.58,2.13,1.29,3.27,1.29s3.08-.61,3.28-1.33A46.29,46.29,0,0,0,551.59,615.32ZM448.75,183.11c3.49-.25,7.44-.49,11.37-.89a1.37,1.37,0,0,0,0-2.73q-10.83-.13-21.65,0a1.92,1.92,0,0,0-1.33,1.36,2,2,0,0,0,1.33,1.37C441.73,182.6,445,182.81,448.75,183.11ZM155.19,622c0-2.68.07-5.37-.06-8,0-.5-1-1.45-1.29-1.36-1,.29-2.6.93-2.62,1.49-.19,5.35-.15,10.72-.05,16.07,0,.49,1,1.45,1.29,1.36,1-.29,2.54-.88,2.61-1.5A73.86,73.86,0,0,0,155.19,622Zm943.58,143.13c0-1.33.32-2.78-.11-3.94-.29-.77-1.63-1.26-2.59-1.57-.29-.09-1.29.83-1.32,1.33a50.23,50.23,0,0,0,.06,8c.07.63,1.62,1.23,2.58,1.53.29.1,1.24-.8,1.32-1.33A27.63,27.63,0,0,0,1098.77,765.08ZM490.13,395.19c-.45-1.08-.87-2.23-1.44-3.29-.09-.17-1-.14-1.32.1-2.05,1.52-2.09,6,.12,6.61S490.31,397.22,490.13,395.19ZM1073.67,940l-1.45-1.45a13.32,13.32,0,0,0-1.28,2.74c-.07.34.83.89,1.28,1.34Zm-659.1-267c-.45.45-1.35,1-1.27,1.34a12.56,12.56,0,0,0,1.27,2.74c.46-.45,1.36-1,1.28-1.34A12.35,12.35,0,0,0,414.57,673.07Zm-100.66-1.45L312.45,669c-.45.46-1.35,1-1.27,1.35a12.77,12.77,0,0,0,1.27,2.74ZM238.34,489.84l-1.45,1.46a12.56,12.56,0,0,0,2.74,1.27c.33.08.89-.82,1.34-1.27Zm2-67.4-1.45-2.63c-.46.46-1.35,1-1.28,1.35a12.35,12.35,0,0,0,1.28,2.74Zm339-229.92L578,191.07a12.56,12.56,0,0,0-1.27,2.74c-.08.33.82.89,1.27,1.34Z"/><path d="M788.55,920.17l-8.82-4.12c6.43-4.36,9.74-11.46,17.08-14.35,7.07-2.79,11-9.66,16.36-14.61s10.63-10.53,16-15.91V842.74c-6.35-4.34-3.73-10.91-4-16.68-.27-5.42-.1-10.88,0-16.32,0-1.93-.16-3.7,1.41-5.58,2-2.36,2.32-6.45,4.6-8.11,5-3.67,7,6.25,12.35,3.65,2,2.55,4.45,4.9,6,7.71,2.16,3.81,2.82,8.83,5.72,11.77,3.59,3.66.75,8.53,2.93,11a14.44,14.44,0,0,1,3.76,10.84c-.08,3.93,3.08,3.26,5.7,3.66,4,.6,5.83-2.54,8.67-3.84,2.22-1,4.87-1,6.89-3.13s4.36-1.32,7,.28c6.66,4.1,7.67,12.19,12.91,17.18.49.47,1,1,1.45,1.44.76-.88,2.15-1.75,2.18-2.65.19-6.12.27-12.25,0-18.36-.14-3.6,1.33-6,3.21-9,1.24-1.92-3.88-4.18-3.29-8.07.69-4.51-.8-9.37,4-12.8.89-.65.82-3.65-1-5.43-.95-1-4.41-1.86-1.3-4.23,4-3.07,3.81-8.4,1.88-10.83-4.61-5.77-5.36-10.17-.11-15.74,1.67-1.77-4.31-2.68-2.21-5.61a18.56,18.56,0,0,1,4.31-4.31c3.14-2.23,2.41-4-.26-5.82l3.6-9.86a13.9,13.9,0,0,1,3.49-1.39c5.68-.58,11.42,2.63,12.06,7.64.53,4,.86,7.37,3.88,10.82,2.18,2.49-1.19,7.82,3,11,1.18.88,1.33,3.56,1.38,5.43.16,6.12,0,12.24.07,18.36.06,5.22-1,10.63,3.93,14.8,1,.83.34,3.82-1.62,5.24-1.69,1.23-2.51,2.52-.33,4.35,3.23,2.71,2.94,5.76-.21,8.33-2.59,2.11-.36,3.07.73,4.36.44.52,1,1,1.44,1.45-4.6,3.14-4.13,7.84-4,12.53s-.9,9.78.29,14.22c1.31,4.88,4.86,8.91,4,14.72-.79,5.33-.17,10.86-.17,16.3s.1,10.89,0,16.32c-.09,3.88,1.32,8.27-3.14,11-.29.17-.5,1.21-.33,1.36,6.31,5.39,2.93,12.61,3.38,19,.52,7.44.08,14.95.14,22.43,0,4,.6,8.19-3.67,10.74,3.36,3.5,4.14,7.68,3.72,12.41-.35,4.05-.07,8.16-.07,12.24s.37,8.2-.1,12.23,1.64,6.27,4.22,8.51,4.24,4.6,4.17,8.52q-.44,24.48,0,49c.08,4.13-2.11,6.46-4.77,8.19-3.66,2.38-7.71,4.79-11.9,5.59-9.11,1.74-15-1.78-20-12.15-1.88-3.84-4.68-7.2-4.53-12.51.62-22.43.06-44.89.41-67.33.08-5.15-3.65-6.84-6.21-9.68-.63-.69-3.4-.75-3.78-.18-4.22,6.4-12.46,7.23-17.28,12.72-1.75,2-3.51,4.12-6.69,3.54-3.68-.67-6.81.56-8.6,3.72-2.47,4.37-5.55,8.85-6.33,13.62-1.08,6.62-.27,13.56-.27,20.36,7.32,8,3.41,17.85,3.95,26.88.57,9.49.09,19,.15,28.56,0,3.12-.9,5.15-4.49,4.9s-4.44,4.77-8.52,4.2c-3.25-.45-8.16-1.12-9.7.63-4.79,5.42-7,.77-8.78-1.85-3.47-5.23-4.73-11.57-8.51-16.93-2.42-3.45-2.37-9.5.25-13.3a14.28,14.28,0,0,0,3-9c-.14-6.79.42-13.64-.19-20.39-.5-5.62,2.85-12-2.58-16.85-5.23.64-8.8,4.93-13.72,6.3-1.18.33-2.13,1.55-3.31,1.82-4.39,1-9.26-1.92-13.36,2.37-3.76,3.94-9.3,2.34-13.43,1.44-5.76-1.26-7.11,6.17-12.72,4.61-3.79-1-8.11-.2-12.19-.2-5,7.15-12.47,2.75-18.69,4.17-4.28,1-7.34,5.09-12.64,4.17-4.62-.8-9.55.28-14.24-.29-5.08-.62-7,5.9-12.66,4.44-4.47-1.15-9.47-.36-14.22-.14-1.1.06-2.21,1.24-3.2,2-8,6.36-14.73-.85-22-2.23a4,4,0,0,1-2.4-2.72c-1.84-10,1.72-21.28,9.12-28.81Q679,1013,691.37,1000.89c2.28-2.23,4-5.07,8-5.39,2.14-.17,5.08-2.69,5.9-4.82,1.68-4.4,3.29-10.13,7.48-10.76,4.85-.72,6.85-3.76,9.77-6.25,3.44-2.95,6.07-6.52,11.25-7.52,2.77-.53,4.87-4.48,7.28-6.88,4.33-4.33,8.85-8.48,12.93-13s11.35-4.1,14.24-10C777.12,933.67,781.83,926,788.55,920.17Zm40.63,33.93c0-4.07.14-8.16-.09-12.22a4.38,4.38,0,0,0-2-3.13c-1.08-.55-3.13-.74-3.92-.08-6,5-10.89,11-18.41,14.62-5.59,2.67-9.41,8.45-15.57,11.56-5.76,2.91-9.52,9.54-14.71,13.89-3.9,3.27-5.81,9.63-12.58,8.86-3.86,3.8-7.1,9.52-11.71,11-8.45,2.72-12.16,10-18.27,14.92a6.5,6.5,0,0,0,1.45,2.61c.32.34,1.3.08,2,.06,4-.11,5.73-5.48,10.56-4.18s7.17-3.24,9.54-6.11c3.55-4.28,8.65-.56,12.86-3.89,5.79-4.57,13.31-7,20-10.34a42.51,42.51,0,0,1,14.45-4.77c4.59-.55,8.63-5,13.1-7.43,11.74-6.27,13.18-8.21,13.24-19.26C829.19,958.18,829.18,956.14,829.18,954.1Zm76-84.52a27.55,27.55,0,0,0-2.81,1.95c-7.88,6.94-14.28,15.23-24,20.48-8.53,4.59-12.37,15.47-12.4,25.08,0,7.46-.13,14.92.07,22.37a3.1,3.1,0,0,0,4,3.19c2.51-.5,5.36,1.25,7.57-1.39,5.15-6.17,12.74-8.2,19.46-11.81,2.81-1.5,6.1-2.24,8.44-4.14,2.93-2.38,1.13-6.32,1.21-9.54.23-8.81.09-17.62.07-26.44,0-6.08,0-12.17-.16-18.26C906.61,870.58,905.72,870.11,905.19,869.58Zm-88.3,125.24-2-3.14c-1.46,1.36-2.71,3.49-4.41,4-5.58,1.48-10.11,5.49-15.24,7-6,1.79-11.86,4-17.74,6.05-.56.2-.93.92-1.38,1.39,1.07.67,2.07,1.74,3.22,1.93,2,.32,5,.93,5.87-.06,3.9-4.67,9.83-2.74,14.17-5,5-2.63,9.59-5.86,15.25-7.19C816.62,999.27,817.21,997,816.89,994.82Z"/><path d="M302.24,683.28a12.82,12.82,0,0,1-2.74,1.28c-.34.07-.89-.82-1.34-1.28A13.08,13.08,0,0,1,300.9,682C301.23,681.93,301.79,682.83,302.24,683.28Z"/><path d="M433,240.08H437c.14,2-.26,3.8-2.71,3.24C433.66,243.17,433.4,241.21,433,240.08Z"/></svg>