<svg id="Layer_1" data-name="Layer 1" xmlns="http://www.w3.org/2000/svg" viewBox="0 0 1200 1200"><title>BB_Artboard 6</title><path d="M948.26,145.19c-2.77-.61-5.92,1.37-8.39-1.56a61.59,61.59,0,0,0-6.35-6.37c-2.23-2-6.4-1.34-7.63,1.07-.31.6.13,1.59-.2,2.16-3.15,5.43-4.85,11.6-8.88,16.64-1.68,2.1,1.15,6.18,4.06,6a30.12,30.12,0,0,0,8.41-1.41c1.89-.67,2.63-3.23,5.49-3.15,5.74.17,11.68,1.4,16.42-4.17,1.2-1.41,5.87-.62,8.54.32,1.2.43,2.56,4.76,1.87,5.52-5.26,5.78-9.14,14.21-19.39,12-3.78,4.13-8.49,5.28-13.91,4.53-6.27-.88-10.13,4.47-15.37,6.39-3,1.1-6.37,4.35-5.2,8.85,1.65,6.35-2,11.06-4.52,16.17s-6.77,9.92-4.45,16.12c3,8.06-6.16,12.91-4.9,20.74.45,2.82-3.14,6.09-4.06,9.38-.75,2.7.44,5.85-2.39,8.08a6.74,6.74,0,0,0-2.19,3.55c-1.09,4.85,2.23,10.36-2.59,14.74-3.91,3.54-1.51,8.41-1.91,12.67-.48,5-5.57,7.89-5.05,13.94.36,4.17-3.63,8.78-5.84,13.11-5,9.73-3.77,13.29,6.4,18.51,4.18,2.14,6.22,9.06,3.38,12.23-3,3.35-6.38,6.36-9.5,9.61-3.71,3.85-4,7.9-1.18,13.77,3.21,6.68,3.34,6.82-1,10.84-3.64,3.37-6.14,8.6-12.45,8.18-.54,0-1.83,2.34-1.77,3.54.23,4.66-.43,8.5-4.49,11.78-4.65,3.76-8.59,8.38-12.84,12.63a32.81,32.81,0,0,0-9.8,20.71c-.45,5-6.29,7.86-4.74,14,1.08,4.23.21,9,.21,13.46,0,12,0,24,0,36,0,3.63,1.11,4.73,5.77,4.45,4.22-.25,8.2.45,12.68-2.08,7.67-4.33,23.78-3.4,31.57.53,4.32,2.19,8.88,3.21,12.09,0,5.31-5.27,11.29-2,16.89-2.64,2.29-.27,2.75,6.09,2.34,11-.43,5.2.26,10.38-4.72,13.88,1.15,5.66-4.07,7.4-6.64,10.77-.45.59-1.16,1-1.56,1.61-2.41,3.7,1.08,8.66-3.09,12.31-3.11,2.74-7.88,5-6.74,10.64-3.88,3-4.55,6.9-4.69,11.65-.22,7,3.15,15.08-4.33,20.66L871.9,612c5.69,3.38,3.81,9,4.29,14,.62,6.47-2.55,13.8,2.25,19.25,4.12,4.68-.66,12.36,6.19,15.53,1.11,4.77-.94,10.62,4.78,13.79.38,5-.78,10.48,4.67,13.95.68.43.47,3,0,4.33-2.78,8.59,7.38,14.36,4.85,22.82,2.91,4.8,7.2,9.29,8.38,14.49,1.47,6.42.12,13.44.44,20.19.2,4-.78,7.22-4.08,9.61-5.23,3.8-7.79,11.75-15.39,11.59-6.78-.14-10.85,7.39-18.48,4.91-6.43-2.08-10.74,6.6-18.42,4.63-6.34-1.62-13.43-.33-20.19-.33H790.67c-6.76,0-13.56-.46-20.26.13-6.2.56-9.65-6.13-16.21-4.84-5,1-10.44.11-15.68.07-4.77-7.3-12.17-3.76-18.47-4.22-3.32-.24-5.15-2.71-7.6-3.48-7.08-2.22-14.64-3-19.74,4.31-3.26,4.68-7.84,3.69-12.09,3.35-2.13-.18-3.24-2.21-.74-4.27.84-.69,1.81-2.65,1.5-3-1.89-2.31-4.42-4.13-6.15-6.54-1.15-1.61-2.34-5.3-1.78-5.71,6-4.41,4.22-10.63,4.32-16.37.12-6.75,0-13.51,0-20.27q0-6.75,0-13.51c5.53-3.34,4.53-8.76,4.52-13.91,0-4.47.11-8.94.32-13.4,0-.55,1-1.06,1.53-1.59.88.88,2.46,1.71,2.52,2.65.41,5.92.44,11.86.73,17.79,0,.55.93,1.35,1.54,1.49.42.09,1.49-.78,1.51-1.26.35-8.9.58-17.8.84-26.7-7.87-8.09-3.33-18.23-4.38-27.44-.08-.75,1.62-1.75,2.6-2.5.08-.06,1.44,1,1.46,1.52.2,6,.14,12,.45,17.91,0,.7,1.77,1.45,2.84,1.86.28.11,1.47-1,1.47-1.5.1-9.76.07-19.52,1.38-31.35.44-1.37-.56-.76-1.25.1a1.35,1.35,0,0,0,1.9,1.91,9.07,9.07,0,0,0,2.05-2.66c.09-.17-.86-.9-2.7.65-2.59,1.53-4.9,1.13-5,.45-.55-4.37-1.53-9-.6-13.18,1.27-5.71,3.62-1.13,5.5.2a3,3,0,0,0,1.52.49c.66-1.21,2-2.82,1.64-3.71-2.16-5.24-5.84-9.77-4.54-16.24a34.4,34.4,0,0,0,0-13.45c-1.13-5.36,5.94-7.06,4.58-11.66-2-6.6,5.77-9.8,4.8-16.23-.88-5.87,0-12-.24-18-.13-3.51,1.81-8.37-2.36-10-2.64-1-5.69-.81-7.57-3.52-1.05-1.52-1.87-1.12-3.23.57-2.78,3.44-6,3.89-9.25.48-2.61-2.69-5.63-5.08-7.81-8.07-1.05-1.44-1-4-.63-6,.14-.79,2.31-1.71,3.58-1.74,6.76-.17,13.52-.08,20.28-.08,4.06,6.26,10.42,4.35,16.16,4.48,5.26.12,10.53.17,15.78,0,6.41-.23,13.44,1.79,18.41-4.47,3.5.62,7.64-1.68,10.43,2s8,3.87,10,2.26c8-6.28,16.87-3.48,25.4-4.25,3.45-.31,9.39,1.64,9.55-2.56.19-5.09,5.74-6.81,5-11.64a47.47,47.47,0,0,1-.06-6.75c0-10.52,0-21,0-31.55,0-10-.06-10.36-11-10.4-4.4,0-6.74-2.12-9.39-4.75-2.42-2.4-3.47-5.47-1-7.61,5.72-4.9,2.56-11.11,3.36-16.71-7.44-5.59-3.89-13.63-4.36-20.68-.18-2.79-2.52-3.58-3.19-5.48a29.41,29.41,0,0,1-1.4-8.42c-.2-4.39,4.52-2.86,5.9-4.35,9.5-10.3,23.32-15.3,32-26.48,2.94-3.8,6.58-4.82,11.48-5.24,4.53-.38,9.07-3.41,13.12-6,3-1.93,6.13-4.53,5.07-9.07,5-2.72,4.21-8.8,7.51-12.77,2.51-3,3-7.78,6-10.92-2.85-6.6,3.89-10.49,4.56-16.16.9-7.74,7.07-14.47,4.45-22.93,7.28-3.63,1.62-12.88,7.46-17.25.94-.7,1.3-2.47,1.52-3.81.77-4.88-1.65-10.17,3.21-14.53,3.79-3.4-1.51-10.74,4.89-13.67a54.7,54.7,0,0,1,9.92-29.7c.35-.51,0-1.49.07-2.22.82-5-.77-7.33-5.27-7.33q-33.79,0-67.6,0a13,13,0,0,1-2.25,0c-3.44-.62-5.22,1.83-7.57,3.62-2.64,2-5.23.86-7.71-1.36-1.44-1.29-5-2.68-5.6-2.06-6.09,6.24-13.72,4.09-20.85,4.26-4,.09-5,2.13-4.88,5.52,0,.75,0,1.51,0,2.26-.05,3.07-.06,5.88-4.52,5.86-21.78-.1-43.57-.05-65.35-.05-7.51,0-15-.21-22.53.07-6.31.23-13.38-2.33-18.31,4.17-3.48-6.63-6.52-.48-9.93.09-4.38.73-9,.18-13.49.18q-56.34,0-112.67,0a63.42,63.42,0,0,0-8.68.83c-.5.07-1.31,1.1-1.22,1.5.15.62.94,1.52,1.5,1.55,5.18.29,10.4.11,15.55.66,7,.76,14.87-2.9,20.95,4,1,1.14,4.26.38,6.48.39,9,0,18.06-.43,27,.15,6.38.41,12.91-2.14,19.24,2.57,5.57,4.14,12.93,1.4,19.47,1.72,6.75.33,13.52.07,20.28.07h20.28c6.76,0,13.53-.08,20.28.08a5.7,5.7,0,0,1,3.78,1.58c4,4.56,7.53,3.61,10.95-.61,3,1.15,6,3.2,9,3.22,3.36,0,6-6.74,9.18-4,6.53,5.67,13.76,4.12,20.89,4.19,17.27.18,34.55,0,51.83.09,5.18,0,10.43.83,14.05-4.44.47-.69,3.54-.7,4.23.05,4.06,4.4,7.91,7,12.63.89.26-.35,1.31-.6,1.51-.41,8.11,8,15.63,3.43,23.71-.39,3.06-1.45,7.56-.91,11.1,0,3.26.8,4.93,5,9.48,4.54,2.21-.24,1.79,2.07.3,4.44-2.67,4.26-7.67,3.65-11,6.26-5.3,4.11-5.69,5.56-1.53,12.44.91,1.51,1.42,3-.59,3.11-9.69.46-19.4.52-29.11.51-2.52,0-5,.84-4.94,3,0,5-2.08,6.31-6.72,6.12a185.92,185.92,0,0,0-22.52.06c-7.11.58-14.3-2.37-21.48,2.62-6.22,4.32-14.43,1.33-21.74,1.67-7.49.36-15,.07-22.53.09-3.74,0-7.48,0-11.22.17-.55,0-1.61,1.28-1.5,1.47.55,1,1.34,2.67,2.15,2.73,3.73.29,7.5.13,11.26.13,9.76,0,19.54.3,29.29-.13,4.59-.2,6.35,3,9.18,5.23,2.31,1.78,1.69,4.1,1.39,6.12-.14.92-2.15,2.1-3.39,2.2-3.73.29-7.5.1-11.26.1-7.51,0-15-.06-22.53,0-2.13,0-5.54-.14-6.17,1-3.39,6.15-10,1.53-14,4.7a1.72,1.72,0,0,0-.51,1.53c.3.64,1,1.55,1.53,1.56,12.75.13,25.5.2,38.25.13,1.31,0,3.13-.51,3.83-1.45,5.19-7,15,1.13,20-6.3.94-1.4,2.33-1.14,3.09.83.51,1.31.86,3.78.23,4.21-2.2,1.51-5,2.09-7.28,3.54a24.35,24.35,0,0,0-4.81,4.71,9.9,9.9,0,0,1-7.55,3.79c-1.71.08-3.28,2.72-5,4.09-.1.08-1.12-.78-1.52-1.34-1.93-2.77-4.61-3.15-7.79-3.06-7.5.2-15,.44-22.52,0-8-.51-16.75,2.8-23.93-1.86s-14.39-1.9-21.54-2.42c-7.48-.55-15,.2-22.52-.22-6.33-.36-11.19-6-18.47-4.66-6.55,1.17-13.48.25-20.24.25H579.89c-6.76,0-13.52-.08-20.28,0-3.66.06-8.87-1-10.68.94-5.15,5.54-11.13,3-16.75,3.45-2.57.23-4.74-5-2.75-6.9,3.07-2.88,5.05-7.83,10.78-6.58a11.9,11.9,0,0,0,4.49,0c9.12-1.64,19.49,4.33,27.44-4.48,6,0,12.16.8,18-.22s7.88,5.26,14,5.1c30.78-.8,61.59-.34,92.39-.45,1.22,0,2.44-1.28,3.66-2-1-.82-2-2.29-3.07-2.35-4.49-.27-9,.15-13.51-.18-5.64-.41-11.77,2.17-16.66-3.64-1.31-1.55-5.6-.75-8.52-.78-9.77-.07-19.53,0-29.3,0-8.26,0-16.57.57-24.77-.17-7.74-.69-16.52,3.66-23.08-4-3.13,3.34-6.83,4.41-11.51,4.29-13.52-.35-27.05.06-40.56-.23-4.68-.1-8.61.57-11.57,4.41-4.82-7.25-12.22-3.73-18.51-4.17s-13.05-1.29-18.64,4.14c-1.36,1.33-6.19.65-8.29-.78-1.92-1.3-2.11-5-3.41-7.4-2.26-4.23-2.16-5.07,1.28-5.1,6,0,12,.22,18-.14a9,9,0,0,0,5.47-2.85c1.53-1.67,2.07-1.92,3.33,0a8.57,8.57,0,0,0,11.85,2.33c4-3.07,7.52-3.86,12.07-3.94,7-.12,7-.34,8.3-8.72.66-4.27,12.84-10.51,16.72-8,2.5,1.62,4.05,4.2,6.47.37,1.57-2.5,4-1.54,6.11-1.55,13.52-.07,27,.14,40.56-.12,6.38-.12,13.6,2.46,18.42-4.42h40.56c6.76,0,13.57.44,20.26-.24,2.45-.24,4.65-3.11,6.94-4.82.59-.45,1.36-1,1.5-1.6.09-.41-.72-1.41-1.25-1.51a35,35,0,0,0-6.43-.82c-13.52-.06-27,.16-40.56-.12-5.63-.12-11.77,2.15-16.63-3.69-1.28-1.55-5.61-.69-8.55-.7-11.26-.06-22.55.35-33.79-.17-7-.32-15,3.06-20.89-4-.65-.77-2.82-.33-4.29-.33-5.26,0-10.52,0-15.78,0-4.5,0-9.19-.79-13.47.2-6,1.37-9.08-4.47-14-4.59-12.76-.33-25.54.06-38.3-.19-6.31-.12-13.37,2.3-18.3-4.15-8.89,8.8-20,2.1-29.8,4.25-5.26,1.16-8.27-2-11.33-5.34-1.89-2.07-3.93-4-6-6,4.33-3.82,9-1.77,13.25-2.11,4.48-.35,9,0,13.51-.1,5.74-.15,12.13,1.87,16.16-4.48,4.21.52,8.83-1.58,12.32,3.13,2,2.7,5.2,2,7.56-.54,1.48-1.6,2.87-3.09,4.8-.42,2.71,3.74,8.23,3.6,10,2,7.19-6.25,15.37-3.5,23.17-4.32.89-.1,1.7-1.67,2.36-2.67.08-.13-1-1.46-1.51-1.47-6-.18-12-.25-17.95-.25-48.07,0-96.15-.16-144.22.18-5.64,0-7.86-3.46-10.91-6.42-1.9-1.85-.23-7.15,2.08-7.26,6.45-.29,13.3,1.4,18.53-4.44.53-.59,3.47-.21,4,.59,3.75,5.5,9.31,3.76,14.28,3.77,38.31.08,76.63-.22,114.93.27,7.68.09,16.53-3.9,23.11,3.83,2.32-1.35,4.73-4,7-3.82,7,.49,15.07-3.38,20.64,4.18,1.07-1.06,2-2.58,3.23-3.07,1.87-.72,5.14-1.67,5.88-.83,4.39,5,8.35,5.73,12.66.17,3.32,2.29,6.66,4.78,9.56-.54a7,7,0,0,1,1.57,1.32c3.17,4.84,8,2.62,12.22,2.91,5.4-5.92,11-6.7,17.14-1,.37.34,2.94-2,4.64-2.73,5.85-2.5,13.71,2.6,18.29-4.82,5.11,5.68,11.92,4,18.25,4.09,13.52.14,27-.06,40.56.29.85,0,1.71,3.5,2.35,5.45a2,2,0,0,1-.78,1.82c-7.07,2.29-14.89,3.76-21-.56-5.57-3.95-5.58,1.78-8.16,2.81-.62.24-1.46,1.07-1.41,1.54a2.21,2.21,0,0,0,1.48,1.54c10.43.29,20.86.53,31.3.66,5.31.06,5.31,0,3.12-7.57a4.66,4.66,0,0,1,4.41-5.93c6,0,12,0,18,0,17.27,0,34.55.06,51.83-.06,2,0,4.78-.28,6-1.57,4.13-4.33,7.48-3.78,11.11.42.3.35,2.06-.44,3.08-.87s2.85-1.82,3.09-1.58c6,6,11.27,5.2,17.29-.31,1.66-1.53,7.13-1.73,8.44-.31,5.49,6,12.26,4,18.66,4.23,7.5.23,15,.28,22.53,0,6.37-.25,13.6,2.48,18.42-4.43,6.76,0,13.53.24,20.27-.16,1.84-.11,3.69-2,5.32-3.29s3.15-3.24,4.83-4.73c4.75-4.21,4.24-8.91,1.33-13.79-.73-1.23-2.53-2.18-2.65-3.37-.44-4.43-.38-8.9-.5-13.36-5.72-1.67-10.2-5.07-14.13-9.5-2-2.27-3.86-4.17-3.6-7.59.33-4.48-.08-9,.12-13.52.16-3.6-.57-8.56,1.43-10.48,4.11-3.94,1.73-8.56,3.3-12.33,1.29-3.13,4-5.4,4.79-9.37.62-3.07,4.91-5.39,7.56-8,4.78-4.78,10.05-9.18,14.22-14.44,4.74-6,10.54-7.49,17.57-6.77,3.67.38,5-1.46,5.28-5.12.49-5.93,5.4-3.42,8.63-3.83,4.09-.52,4.71,2.19,4.83,5.49.19,5-1.43,10.22,3.67,14.41,1.55,1.28.75,5.59.77,8.52.07,9.76.1,19.53,0,29.29,0,2.87.44,7.13-1.15,8.33-4,3-2,8.72-6.16,11.18a6.12,6.12,0,0,0-1.59,1.58c-4.4,5.74-12.16,8.77-13.59,16.9,4.51,4.9,9,9.77,13.46,14.73C948.58,143.39,948.26,144.44,948.26,145.19Zm-4.5-61c.7-2.1,0-2.85-2.09-2.06a2.73,2.73,0,0,0-1.49,1.36,8.41,8.41,0,0,0-.83,3.8c.16,1.2,1.14,2.29,1.77,3.43.88-.77,2.19-1.4,2.53-2.37.44-1.24.11-2.76,2.73-10.4a16.44,16.44,0,0,0-2.57,2.18,2,2,0,0,0,0,1.89,1.93,1.93,0,0,0,1.89,0,9.07,9.07,0,0,0,2-2.66C947.86,79.2,946.9,78.47,943.76,84.18Zm-254.45,629c.67,0,1.61.27,1.94-.07a2,2,0,0,0,0-1.9c-1-1.48-2.34-3.34-3.92-.62-.21.36,1.26,1.7,118,61.19,9,0,18.19-1.14,26.94.33s14.67-7.47,22.9-4.74c8,2.67,13.09-6.2,20.67-4.63,3.68.76,5.09-4.59,7.07-4.2,10,1.94,4.65-10.16,10.88-11.21q.18-11.17.34-22.36c-3.72-2.73-4.1-7.28-6-11-.94-1.86-3-3.76-2.84-5.48.65-6.8-1.42-12.7-4.68-18.4,2.35-6.45-4.88-9.86-4.89-16.13,0-6-5.35-11.36-5-18-4.92-2.88-4.49-8-3.37-11.93,1.79-6.26-5.26-8.11-5-14,.74-19.47.28-39,.28-58.48,0-1.5-.36-3.11.07-4.47.86-2.71,4.26-3.52,4.67-7.13.38-3.26,3.07-6.18,4.18-9.44.89-2.63-1.14-6,1.92-8.21,8.08-5.74,8.78-16,14.42-23.23,2.34-3,.35-4.1-1.34-4.11-20.25-.21-40.49-.17-60.74-.05-1.21,0-3.55,1.65-3.45,2,1.48,5.24-5,7-4.85,11.62.17,5.25,0,10.5,0,15.75l-.06,31.47c-9.15,8.73-2.57,19.82-4.36,29.67-.94,5.18-10.77,11-15.65,8.5a4.91,4.91,0,0,1-2.36-3.32c-.3-3.72-1.67-8.8.18-11,6.09-7.22,3.46-15.33,4.29-23.12.67-6.29-2.83-13.6,4.12-18.51.1-12,.28-23.91.18-35.86,0-.94-1.77-2.4-2.93-2.68-3.43-.8-7.41,1.31-10.36-2.22-4.17-5-5.06,2.52-8.39,2.27-6.71-.5-13.49-.15-20.24-.15-5.78,6.53-13.64,3.4-20.58,4.73-5.42,1-9.77,6.33-16.22,4.45-.41-.11-2.35,2.35-2.14,3.3,1.25,5.67-3.2,9.31-4.45,14-1.45,5.4,2,12.11-4.49,16.17-.07,6,0,11.94-.28,17.9-.08,2.08-.13,4.94-1.41,6.06-4.88,4.25-2.3,9.69-3,14.57s-4.69,8.15-4.9,13.87c-.41,11.39,4.85,23.75-4.1,34.14,0,6-1.05,12.24.27,17.93,1.59,6.83-4.19,10.62-4.7,16.2-.4,4.47-.08,9-.08,13.49,0,3.75-.79,7.73.19,11.2,1.48,5.25-5.53,5.18-5,10.39,1,9.65.2,19.47.35,29.22,0,2,1,4.07,1.47,6.11,2.12-1.65,4.7-3,6.22-5,1.12-1.55.76-4.12,1.29-6.17a37.07,37.07,0,0,1,2.07-5.89c.58-1.27,1.75-2.26,2.37-3.52.92-1.86,1.39-3.95,2.42-5.74.72-1.25,2.18-2.06,3.08-3.24a39.77,39.77,0,0,0,3.51-5.29c.65-1.2.57-2.86,1.36-3.91a35.67,35.67,0,0,1,4.74-4.78,1.63,1.63,0,0,1,1.52.11c.58.39,1.41,1.09,1.37,1.62-.29,4.23.72,8.21-3.09,12.29-9.5,10.18-11.7,18.52-10.27,31.59.13,1.14,1.77,3.12,2.53,3,5.43-.59,9.4,2.28,14.08,4.22,5.12,2.13,11.67.78,17.6,1,5.06,6.63,12.39,2.71,18.56,4.12,4,.91,7.68,3.62,11.69,4.21,5.13.75,10.47.18,15.72.18S800.12,771.76,689.31,713.16ZM912.14,110.5c4.62-5.35-6.94-6-4.8-12.76,1.73-5.46.4-11.91.29-17.91,0-.54-.92-1.2-1.56-1.54-.37-.2-1.42,0-1.5.24-.64,2-.7,4.3-1.75,6-1.47,2.4-4.58,3.68-4.21,7.33.22,2.13.38,4.74-.62,6.43-1.45,2.42-3.78,4-4,7.45-.36,6.83,4.49,12.25,12,12.39C911.67,118.25,912.48,117.41,912.14,110.5ZM637.37,253.38c-15.72,0-31.43,0-47.14.12-.64,0-1.41,1.79-1.79,2.86-.11.29,1,1.46,1.5,1.46q44.89.1,89.79-.06c.63,0,1.41-1.79,1.79-2.86.11-.29-1-1.45-1.5-1.46C665.8,253.36,651.58,253.38,637.37,253.38ZM916.71,80.92a5.85,5.85,0,0,0,0,2.23,31.28,31.28,0,0,0,2.2,3.44c.52-.51,1.25-.93,1.51-1.55q2.71-6.5,5.2-13.08c.18-.47-.37-1.26-.67-1.86-1-2.06-1.69-1.75-3.14-.07C919.06,73.26,915.26,75.83,916.71,80.92ZM686.82,733.45a81.15,81.15,0,0,0-.14-8.83c-.07-.66-1.82-1.29-2.9-1.59-.32-.1-1.39,1-1.4,1.49-.12,4.42-.19,8.85.06,13.26,0,.61,1.83,1.28,2.9,1.58.33.09,1.32-.91,1.41-1.5A30.85,30.85,0,0,0,686.82,733.45Zm26.33-454.57c0-.51.12-1.16-.14-1.51-1.68-2.26-6.16-2.19-7.41.1a1.69,1.69,0,0,0,.1,1.5C707.38,281.23,711.83,281.14,713.15,278.88Zm-187-80.25,2.91-1.6c-.5-.5-1.12-1.49-1.49-1.41a14.24,14.24,0,0,0-3,1.41Zm-10-6.76,1.61,2.91c.5-.5,1.49-1.11,1.41-1.49a14.24,14.24,0,0,0-1.41-3Zm235.36-6.76,2.9-1.6c-.5-.5-1.11-1.5-1.48-1.41a14,14,0,0,0-3,1.41ZM710,182.86l1.6,2.9c.5-.5,1.49-1.11,1.41-1.48a14.31,14.31,0,0,0-1.41-3Zm-65.37-1-2.9,1.61c.5.5,1.11,1.49,1.48,1.41a14.31,14.31,0,0,0,3-1.41C645.75,183,645.25,182.5,644.64,181.9Z"/><path d="M529.05,794.3c-1.88-6.51-6-9.23-13-9.19-4.87,0-10.31,2.42-14.69-2.53-3.47-3.91-8.46-1.37-12.73-1.7-5.22-.41-10.5-.1-15.75-.1-5.54-7.65-13.65-3.63-20.66-4.43-4.38-.5-6.3-5.86-11.67-4.8-4.08.8-8.21.58-12.33-3-2.67-2.3-8.62-2-12.73-1.07s-6.71,4.41-8.4,9c-3,8-7.17,15.65-14.31,21.11-3.13,2.39-6.91,1.6-7.77-2.94-.66-3.46-3-4.86-4.73-7.11,4.45-2.26,3.62-7.62,6.34-10.84,1.93-2.28,4.39-4.13,6.25-6.47a5.77,5.77,0,0,0,.82-4.08c-.4-2.34-1.84-3.41-4.57-3.53-7.09-.32-14.73,2.16-20.82-4.25-1.07-1.12-4.36.05-6.58-.2-7-.76-11.61,2.47-12.8,9-.63,3.51-4.34,4.48-4.52,7.11-.23,3.28-2.71,5.28-3.29,7.66-1.36,5.6-4.71,7.9-9.61,9.21-1.6.43-1.9,4.68-4.81,1.43s-6.33-6.4-9.62-9.69c4.26-4.21,9-8.06,12.59-12.78,2-2.63,2.11-6.42,4.78-9.31s.09-6.89-4.31-7.12c-3.69-.2-8.22,1-10.89-.71-3.38-2.17-4.95-4.1-8.27-.08-3.81,4.61-8.46,8.52-12.61,12.86-1.46,1.53-3.84,3.74-3.53,5.13,1.65,7.36-3.56,10.83-7.66,15s-6.59,4.93-9.26,3c-4.43-3.28-7.71-9.63-5.68-13.26,2.73-4.87,3.75-10.76,8.3-14.6,1.14-1,2.08-2.17,3.21-3.16,3.44-3,1.41-7,1.68-10.51.07-.8-1.84-2.3-3-2.54C276.51,743.63,269.89,746,268,752a21.23,21.23,0,0,1-5.46,9,5.4,5.4,0,0,1-7.68.29c-5.68-4.91-6.73-8.7-4.26-15.38,1.68-4.54-.69-10-4.62-10.16-6.75-.2-13.52.2-20.26-.15-4.12-.22-6.88,1.25-9.62,4.13-6.73,7.07-13.72,13.88-20.67,20.72-1,1-2.34,2.14-3.55,2.17-2.86.06-6,.09-8.5-1.07-1.15-.54-1-3.87-1.45-5.94s-.8-4.08-1.42-7.22l-14.39,14.38c-3.1-3.7-7.8-5.79-6.75-11.31.4-2.08-.73-4.34,1.58-6.14,7.6-5.89,9.22-16.55,17.52-22,5-3.3,3.54-10.84,9.44-14.24,4.4-2.54,7.57-7.2,11.28-10.92,4.25-4.24,8.15-8.94,12.85-12.6,4.34-3.39,5.81-8.16,7.73-12.65,2.63-6.13,6.07-11.6,11.33-15.51,6.11-4.54,8.66-11.4,12.74-17.28,1-1.41,1.28-2.38-.74-3.16a6.85,6.85,0,0,0-4.3-.3c-1.28.41-2.32,1.7-3.35,2.73-21.24,21.22-42.54,42.38-63.64,63.74-4.5,4.55-5.62,11.48-11.09,15.73-5.29,4.12-9.82,9.27-14.38,14.25-2.33,2.55-5,2.72-8,2.63s-5.88-.14-6.09,4.27c-.29,6,.18,7.1,5.67,9.23,4,1.55,4,2.15.11,5.55-5.86,5.08-12.93,4.73-16.91-1.07a12.83,12.83,0,0,1-2.22-5.78,95.92,95.92,0,0,1-.09-11.25c.11-4.48-.13-8.35-3.78-12.13-1.65-1.71-.76-7.16.57-10.23,7.51-17.29,7.67-17.22,7.7-30.59,0-4.49-.53-9.1.31-13.43.48-2.47,5.21-3.67,4.1-7.19-1.47-4.63-5.35-8.17-4.63-14,.6-4.8,1.82-10.21-3.36-14.42-1.57-1.27-.86-5.55-.89-8.45-.07-7.64,4.38-12.26,11.9-12.28,21,0,42-.15,63,.08,5.47.06,10.45-.21,13.59-5.31,5.05-8.22,12.8-9.41,21.34-8.25,4.31.59,6.8-1.69,9.49-4.41,3.23-3.28,3.35-3.06,9.71-.22,1.25.56,3.62-.17,4.14.6,1.12,1.65,2.5,4.59,1.77,5.75-1.94,3.09-5.24,5.29-7.38,8.29-1.07,1.5-1.7,4.55-.87,5.85s4.68,2.63,5.54,1.93c7.1-5.9,14.07-7,21.85-1.35,1.57,1.15,4,1.44,6.09,1.47,12,.13,24.05-.45,36,.26,6.72.4,11.51-1.45,15.34-6.69,2.69-3.67,8.69-1.82,10.85-6.37,2.52-5.28,9.08-4,12.52-7.92,3-3.37,5.79-7.6,9.63-9.33,7-3.14,13.77-8.22,22.3-5.95,2.32.62,3.86,1.65,3.61,4.52s-.05,6-.05,10c0,.33.26-.6-.08-.93a2,2,0,0,0-1.9,0c-1.48,1-3.33,2.33-.62,3.92.36.21,1.71-1.26,2.6-3,5.16-1.36,6.59-6.51,10.16-8.92,2.83-1.91,5.19-1.41,7.69.9,5.9,5.42,6.53,11.28,1.52,16.93-1.94,2.19-4.48,4.1-5.62,6.64-.62,1.38.93,5.37,1.85,5.5,3.44.46,7.81,2.29,10.41-.95,6.06-7.53,16.48-9.07,22.24-17.15,2.2-3.09,7.43-3.85,10.23-6.69,8.25-8.38,9-8.68,15.7-2,1.69,1.7,2.14,2.67.31,4.89-2.15,2.61-2.82,6.44-5,9-3.42,4.13,1.48,4.44,2.52,6.38,1.16,2.19,2.78,2.33,4.71.21,3.42-3.75,6.55-8,12.89-6.92,1.65.28,3.95-1.35,5.48-2.65,2.84-2.41,5.28-5.28,8-7.84,5.06-4.78,11.86-3.9,16.85,2.22a6.32,6.32,0,0,1,1.65,3.73c-.14,2.71,1.14,4.43,3.44,4.63,5.86.5,11.76.43,17.62.93.63.06,1.06,2.39,1.8,3.67-3.95,0-7.71.22-11.42-.07-3.24-.25-5.31,1.1-7.81,3-3.27,2.5-7.57,3.05-10.92,6.28-3.87,3.72-5.43,8.24-7.79,12.59-2,3.71-6.92,5.16-7.56,10.39-.4,3.25-2.85,6.23-4.24,9.4-.2.46.3,1.35.67,1.9s1.07,1.47,1.55,1.42,1.07-.94,1.6-1.47c9-9,17.41-18.64,27.15-26.72,6.44-5.35,15.24-7.9,18.77-16.73,5.44-.8,7-8.16,11.79-8.68,5.4-.59,7.36-4.47,10.55-7.21,3.91-3.37,8.68-3.4,12-.93a15.45,15.45,0,0,0,9.94,3.37c4.57,0,9.14.26,11.61-4.43,2.71-5.14,9.13-3.81,12.58-7.8,2.22-2.58,5.17-2,7.57.5,1.55,1.62,3.19,3.15,4.75,4.77,3.63,3.76,8.27,3.28,12.05,1.39,3.17-1.58,6.63-5.81,5.78,1.42-.72,6.06,4,8.93,5.1,13.81,1.35,6.13-5.41,8.58-4.78,13.9a9.87,9.87,0,0,1,0,2.24c-.94,9.18,3,19.18-4.49,27.29q-.45,8.79-.88,17.58c-5.79,3.56-3.63,9.35-3.43,14.19.17,4-8.58,8-.2,12-7.9,5.45-3.08,13.69-4.58,20.54-1,4.73-5.59,8-4.64,13.88s.2,11.93.2,17.92c0,5.23-.4,10.5.1,15.69.73,7.7-3.66,13.45-6.79,19.65-1,1.89-3.49,4.75-4.63,4.47-6.52-1.6-10.82,3.17-16.19,4.59-3.5.92-7.43.15-11.17.18-6,.05-11.92,0-17.85.35-.76.05-2.08,2.35-1.95,3.46.59,4.82-6.43,6.46-4.63,11.61-3.08,3.21-6,6.56-9.3,9.58-4.55,4.24-14.76,2.09-16.73-3.91-1.78-5.44-2.42-11.33,1.32-16.54.25-.36,1.43-.05,2.18-.05,0,3.71-.06,7.42.06,11.12,0,.56,1,1.61,1.38,1.52,1.08-.28,2.88-.92,2.93-1.53.27-3.68.13-7.4,1.44-13.18.45-1.36-.56-.75-1.25.11a1.9,1.9,0,0,0,0,1.89,1.93,1.93,0,0,0,1.89,0,9.42,9.42,0,0,0,2.05-2.66c.09-.17-.87-.9-2.71.64C532.05,794.3,530.55,794.3,529.05,794.3ZM339.72,690.62c3.12.12,4.62-1.38,7.13-8.64a15.79,15.79,0,0,0-2.56,2.17,1.93,1.93,0,0,0,0,1.89,1.9,1.9,0,0,0,1.89,0,9.07,9.07,0,0,0,2.05-2.66c.09-.16-.87-.9-4,2.72-3.12-.12-4.62,1.39-4.51,4.5h-4.51c.61-2.76-1.19-5.76,1.53-8.41a95.36,95.36,0,0,0,11.84-13.12c2.32-3.31,3.08-7.69,4.69-11.53,2-4.75,8.35-6.33,9-12,.55-5.15,5.62-6.6,8-10.21,1.89-2.87,1.42-5.44-1.44-8-6.26,6.41-12.5,12.84-18.79,19.22-5.81,5.87-13.3,10.8-17.09,17.76-4.35,8-10.36,13.92-16.36,20.18-3.64,3.79-8.45,6.89-10.87,11.31-2.79,5.11-5.23,10.19-9.82,13.92,0,8.78-11.2,11.36-11.15,20.16-3.62,3.11-5,5.57,1.64,5.86,3.33.14,5.64,7.22,10.24.7,2.77-3.94,5.91-8.66,15.71-7.1a16.44,16.44,0,0,0-2.18-2.57,1.35,1.35,0,0,0-1.91,1.91,9.07,9.07,0,0,0,2.66,2.05c.17.09.91-.87-2.71-4,.56-2.73-1.19-5.72,1.42-8.27,4.17-4.07,9.9-7.76,11.68-12.78,2.68-7.56,7.55-11.64,13.94-15,.5,1.25.79,3.41,1.53,3.58C339.44,694.81,339.88,692.82,339.72,690.62Zm18-22.53c3.12.11,4.63-1.39,7.13-8.65a16.31,16.31,0,0,0-2.56,2.17,1.35,1.35,0,0,0,1.9,1.91,9,9,0,0,0,2-2.65c.09-.17-.87-.91-4,2.71-3.12-.12-4.62,1.39-4.51,6.52,0-.67.26-1.61-.07-1.94a1.94,1.94,0,0,0-1.9,0c-1.48,1-3.34,2.33-.62,3.91C355.52,672.26,356.86,670.79,357.75,668.09Zm-6.39-58.24a16.91,16.91,0,0,0-2.57,2.18,2,2,0,0,0,0,1.89,1.9,1.9,0,0,0,1.89,0,9.07,9.07,0,0,0,2.05-2.66c.09-.17-.87-.9-4,4.72,0-.67.26-1.6-.08-1.93a2,2,0,0,0-1.9,0c-1.48,1.05-3.33,2.33-.62,3.92C346.5,618.17,347.85,616.7,351.36,609.85ZM475,654.56c2.75.51,4.17-1.16,4.42-3.41.34-3-.19-5.93-4.42-5.6.61-2.77-1.43-6,1.57-8.35,4.14-3.22,3.12-9.42,7.28-12.85.55-.45-.86-4-2.06-5.55-.58-.75-3.08-.79-4.22-.2-4.49,2.28-6.36,7.49-11.93,9.29-4.48,1.45-7.73,6.41-11.81,9.43s-8.66,4.9-12.28,8.14c-3.09,2.75-6.66,5.11-7.5,10.39a9.86,9.86,0,0,1-9.39,7.82c-1.23.06-3.47,1.35-3.46,2,.23,8.19-6.78,11.46-11.52,15.32-5.5,4.48-5.82,11.62-10.82,16-3.95,3.44-7.29,7.57-11.23,11s-3.2,9.24-7.68,12.76c-3.65,2.87-4.68,9.1-8.35,11.92-4.56,3.5-3.36,9.71-7.76,12.67-1.9,1.29-2,3.13.08,3,5-.25,7.22,5,11.37,5.2,9.72.42,19.48.29,29.21-.09,1,0,2.35-3.13,2.79-5,.64-2.73-.64-5.74,2.1-8.18,3.91-3.47,7.47-7.36,11.18-11.06-.62-7.18,7.93-9.13,8.9-14.2,1.15-6,5.55-8.37,8.58-12.27,1.93-2.48-.73-8.19,9.54-5.06a16,16,0,0,0-2.18-2.57,1.9,1.9,0,0,0-1.89,0,1.93,1.93,0,0,0,0,1.89,9,9,0,0,0,2.65,2c.17.1.91-.86-2.71-4,.56-2.72-1.55-6.2,1.5-8.15,5.81-3.7,7.11-10.37,10.65-15.54,2.29-3.33,2.88-7.54,6.16-10.74s5.11-8.15,8-12c1.14-1.51,3.45-2.13,5.23-3.16v11c0-.67.27-1.6-.07-1.93a2,2,0,0,0-1.9,0c-1.48,1-3.33,2.33-.62,3.92C472.72,658.74,474.06,657.27,475,654.56Zm-9,15.63c.7-2.1,0-2.86-2.09-2.07a2.8,2.8,0,0,0-1.49,1.36,8.43,8.43,0,0,0-.83,3.8c.16,1.2,1.15,2.3,1.77,3.44.88-.78,2.19-1.41,2.53-2.38.44-1.24.11-2.76,2.73-10.39a16.3,16.3,0,0,0-2.57,2.17,2,2,0,0,0,0,1.89,1.9,1.9,0,0,0,1.89,0,9.07,9.07,0,0,0,2.05-2.66C470,665.21,469.08,664.47,465.94,670.19Zm-72.3-31.26h0c4.23-4.23,8.48-8.45,12.68-12.73a2.1,2.1,0,0,0,.35-1.5c-1.21-.65-2.55-1.69-3.77-1.59-2.8.23-7.47-1.79-8.08,1.45-1.54,8.2-8.57,11.54-12.94,17.18a9.11,9.11,0,0,0-1.55,3.82,17.69,17.69,0,0,0,0,4.48c0,.06,1.71.33,2.1,0,3.78-3.63,7.45-7.37-2.2,2.06,0-.67.26-1.61-.07-1.94a2,2,0,0,0-1.9,0c-1.49,1-3.34,2.34-.63,3.92C378.05,654.23,379.4,652.76,393.64,638.93ZM141.38,713.16c4-.35,8.45,1.8,9.46-5.59.58-4.27,7.25-7.6,8.17-12,1.36-6.42,9.18-7.52,17.69-20.26l.13.13c3.1-3.1,6.51-6,9.12-9.43.86-1.14-.35-3.84-.62-5.83-1,.28-2.36.24-3.05.89-4.22,4-8.38,8.15-12.38,12.4a7.43,7.43,0,0,0-1.42,3.75,17.68,17.68,0,0,0,0,4.36c0,.06,1.66.32,2,0,2.13-2,4.11-4.14-2.14.05-3.61,0-6.74,0-10.05,2.86-3.63,3.17-2.54,8.09-6,11a80.07,80.07,0,0,0-10.84,11.1c-1.08,1.38-.17,4.32-.17,8.55,0-.67.26-1.6-.07-1.93a2,2,0,0,0-1.9,0c-1.48,1-3.34,2.33-.62,3.92C139.15,717.34,140.49,715.87,141.38,713.16Zm106.27-35.73a9.15,9.15,0,0,0-1.58.94c-9.21,8.24-16.26,19-28.3,24-1.79.74-4.09,3.25-4,4.86.18,4.59-3.12,6.47-5.58,9-4.15,4.32-8.48,8.47-12.63,12.78-.38.39-.11,2.1-.05,2.11,1.49.12,3,.09,4.49.09.75,0,1.83.33,2.2,0q23.76-23.83,47.3-47.87c.67-.69,0-2.84-.3-4.24-.14-.62-1-1.08-53.7,54.25.7-2.1,0-2.85-2.08-2.06a2.73,2.73,0,0,0-1.49,1.36,8.28,8.28,0,0,0-.83,3.8c.16,1.2,1.14,2.29,1.77,3.44.88-.78,2.18-1.41,2.53-2.38C195.81,736.21,195.47,734.69,247.65,677.43Zm362.54,10.35c0-3.74.25-5.29-.08-6.71a16.46,16.46,0,0,0-1.89-3.68,14.05,14.05,0,0,0-2.5,2.88c-2.67,5.64-3.53,12.15-8.53,16.66-2.66,2.39-4.15,5.33-5.55,8.89-1.53,3.86-4.49,7-4.18,11.79.11,1.74-1.62,3.85-3,5.38-2.85,3.22-6.85,5.69-6.26,10.87-7.07,8-7.68,20.19-17.4,26.42.59,4.19-2.19,6.54-4.6,9.35-1.43,1.66-.18,2.57,2.13,2.21,2.86-.44,6.31-.74,6.69,3.44.46,5.16.88,5.85,6,2.53,3.72-2.43,9.91-1.71,14.94-1.39,5.63.35,7.29-4.35,10.67-6.86-1.86-6.31,2.92-10.74,4.39-16.09,2.23-8.15-3.63-17.86,4.68-25,0-9,.17-17.93-.09-26.89-.1-3.32,1.56-5.24,3.25-7.71,1.47-2.15,1.23-5.48-52.75,80,.7-2.1,0-2.85-2.08-2.06a2.73,2.73,0,0,0-1.49,1.36,8.28,8.28,0,0,0-.83,3.8c.16,1.2,1.14,2.29,1.76,3.43.88-.77,2.19-1.4,2.54-2.37C556.43,776.78,556.09,775.26,610.19,687.78ZM524.7,634.12c-2.65,2.65-5.85,4.94-7.81,8-2.7,4.26-8.15,2.4-11.09,6.17-3.2,4.1-6.77,8.37-11.13,11-5.75,3.44-5.2,10.22-9.37,14.26-5.38,5.2-10.65,10.52-15.89,15.87-4.51,4.6-5.44,11.51-11,15.77-5.88,4.52-10.65,10.48-16,15.67-2.22,2.13-4.15,4.19-3.5,7.56-7.67,5-8.44,15.13-15.52,20.5-3.68,2.79-2.41,6.67-2.45,10.2,0,3.15,4.61,5.72,6.38,3.43,4-5.19,6.23-1.71,10.12-.13,4.91,2,9.86-.12,13.54-4.8,2.27-2.89.7-7.06,4.51-9.54,2.77-1.8,5.37-4.27,6.22-8.56,1.24-6.23,9.67-8.57,10-16.1.07-1.65,2.74-3.52,4.58-4.71,6.49-4.19,7.41-12.13,12.13-17.52,1.26-1.45.94-4.27,2.19-5.75,4.6-5.48,9.72-10.13,13.07-17.05s11.71-10.73,13.81-19c7.4-4.26,7.13-14.14,14.15-19,3.31-2.28,2.18-8.12,6.3-10.9,1-.71.15-4.27.15-6.51-1.28.53-2.83.76-3.78,1.63-3.31,3-6.41,6.3,6.4-5.77a16.31,16.31,0,0,0-2.56,2.17A1.35,1.35,0,0,0,540,623a9,9,0,0,0,2.05-2.65C542.16,620.13,541.2,619.39,524.7,634.12Zm-4.6,142.15c3.23,0,6.24.18,9.23,0,2.81-.22,6.95,1.59,8-1.82s3-6.3,4.7-9.39c1.58-2.89.29-7.29.56-11,.21-2.83-.09-6.6,1.55-8.23,3.74-3.73,2.57-10,7.41-12.82-1.14-5.62,5-8.13,5.6-13.6.5-4.36,8.77-5.77,7.93-12.35,4.68-2.92,3.45-9.25,7.5-12.69,8.92-7.59,8.72-21.46,19.12-28.14.41-.27.37-1.34.41-2,.2-3.58-1-7.46,2.79-10.14,3.13-2.21.83-7,4.7-9.41,3-1.83.72-7.27,4.85-9.19,1.45-.68,1.11-2.3-.85-3-1.31-.5-3.23-.8-4.31-.19-1.88,1.06-4,2.61-4.82,4.47-2.53,5.73-5,12-8.54,16.57-4.07,5.13-7.06,10.78-10.51,16.14-2.26,3.49-2.77,8-6.51,10.84-3,2.26-7.42,5.08-7.62,7.91-.52,7.15-8.36,9.07-9.34,14.21-1.46,7.72-8.73,9.89-11.6,15.58-2.63,5.21-5.1,10.24-9.67,14-1,.79-1.08,2.51-1.67,3.77-1.48,3.14-2.89,6.32-4.52,9.39-3.32,6.24-6.13,12.56-11.11,18.07-4.71,5.21-6.82,1.53-10.16-.36-1.79-1-4.72-1.06-5.53-2.47-1-1.7-.42-4.4-.16-6.62a10.29,10.29,0,0,1,1.58-3.83c5.08-8.45,7.52-18.61,15.9-25,1.39-7.76,7-13.57,9.57-20.83,2.86-8.09,8.13-14.78,13.28-21.59,2.84-3.75,3.23-9.35,6-13.17,3.5-4.8,8.32-8.63,12.57-12.88,3.71-3.71,7.6-7.28,11.1-11.2,2.81-3.14,6-5.47,7.12-10.65.91-4.32,6.78-7.6,10.45-11.33l7-15.13a8.91,8.91,0,0,0-1-1.83,5.47,5.47,0,0,0-1.5-1c-3.44,5.07-10.51,4.39-14.28,9.4-3.57,4.76-8.35,8.61-12.6,12.86l-11.15,11.15c.61,7.27-6,9.69-9.62,14s-9,7.62-9.5,14.11c-5.72,3.79-7.49,10.41-11.16,15.66-3.29,4.7-8.67,7.33-10.73,13.62-1.47,4.47-6.41,7.88-10,11.58-4,4.15-3.49,11.14-9.48,14.2-4.07,2.09-1.87,8.57-6.42,10.77-5.23,2.52-5.21,8.44-7.67,12.65-2.92,5-5.49,9.92-9.78,14-3.12,3-1.44,7.73,2.7,7.82,4.62.09,8.94,0,11.67,4.57,6.52.81,13.93-2.4,19.46,1.81C507.43,778.32,514,775.05,520.1,776.27ZM256.33,731.19,275.55,712c1.12-11,14.7-14,15.88-24.9l23.85-23.84c5.3-5.3,10.63-10.56,15.87-15.92,1.5-1.54,3.85-3.35,3.85-5,0-5.26,2.75-5.92,7-6,.8,0,2.57-4.08,2-5.46a16.88,16.88,0,0,0-5.58-6.6c-2.43-1.75-3,1.9-4.69,2.58-4.49,1.82-9.52,2.82-13.42,5.48-4.83,3.3-8.81,7.88-13,12-5.89,5.77-11.67,11.65-17.5,17.47S278,673.28,272.29,679.21c-6.16,6.39-13.89,12.06-17.73,19.66-3.93,7.78-10.91,11.79-15.73,18.15-2.07,2.75-4.84,5-7.33,7.45,3.84,3.37,6,7.63,11.57,6.85C247.46,730.71,252,731.19,256.33,731.19Zm70.94,13.53c4,0,5.54-.34,6.93,0,7.19,2,10.85-3,14.95-7.25,2-2,3.89-3.8,4.28-7.24.67-5.86,9.73-6.91,9-14.22-.11-1,1.58-2.31,2.58-3.33,3.13-3.21,6.84-6,9.34-9.63,2.34-3.4,2.44-8.1,6.41-10.81,2.34-1.59,4.21-3.7,4.29-7.21,0-1.73,2.38-3.4,3.67-5.11,1.72-2.28,4.75-4.51,4.84-6.85.19-4.7,6.69-6.39,4.79-11.57,3.65-3.72,6.78-8.22,11.05-11,6.07-3.9,5.77-11.63,10.95-15.76a15.68,15.68,0,0,0-2.3-2.73,2.41,2.41,0,0,0-2.16,0,24.72,24.72,0,0,0-5.25,3.52c-17,16.84-34.07,33.54-50.61,50.78-5.9,6.15-14.69,10.31-15.95,20.21-6.86,6.87-14.11,13.4-20.43,20.74-3.05,3.54-4.5,8.52-6.31,13-.36.9.77,3.46,1.52,3.59A71.49,71.49,0,0,0,327.27,744.72ZM138.89,686.59l16-16.25c.12-9.75,9.48-12.5,14.36-18.62,4.62-5.79,10.41-10.66,15.68-15.94.52-.52,1.42-1,1.44-1.61a59.12,59.12,0,0,0-.11-8.93c-.05-.53-2.67-1.48-2.92-1.2-6.09,7-14.07,3.14-21,3.17-6.17,0-10.85,2.44-16.15,4.52-3.28,1.29-4.55,2.23-4.9,5.63-1,9.88,3.73,20.67-4.43,29.48C137.55,673.25,135.28,680,138.89,686.59Zm145.69-63.92c-1.91.5-5.19.46-7.15,2.05a118.93,118.93,0,0,0-12.54,12.36c-2.79,3-1.74,8.46-6.21,10.62,1.08.79,2.25,2.31,3.22,2.2a10.23,10.23,0,0,0,5.62-2.18c6.92-6.58,13.61-13.4,20.3-20.21.75-.77,1-2,1.48-3.08Zm321.77-10.42c.61.66,1.26,1.75,1.6,1.66,4.36-1.15,6.26,3.43,9.3,3.93,1.72.28,4.73-3.47,6.09-6,1.51-2.79.12-5.62-2.55-7.56-1.93-1.4-3.15-5.31-6.37-1.38-1.88,2.3-4.23,4.2-6.25,6.39A17.1,17.1,0,0,0,606.35,612.25ZM297,623.05c-.64,1.23-2,2.79-2.23,4.5-.51,4.32,4.08,5.38,5.92,8.25,2.46-2,5.22-3.85,7.23-6.27C308.66,628.61,300.15,622.91,297,623.05Zm152.38,3.69c3.23.25,3.88-3.15,6-4.48a9.48,9.48,0,0,0,1.54-1.5c-1.13-.76-2.2-2-3.4-2.17-4.67-.51-6.82,2.07-5.57,6.42C448.12,625.63,448.82,626.09,449.36,626.74Zm-91-9.84,1.61,1.6a14.24,14.24,0,0,0,1.41-3c.08-.38-.91-1-1.41-1.49C359.47,615,358.92,616,358.4,616.9ZM560,680l-1.6-2.9c-.5.5-1.5,1.11-1.41,1.48a13.83,13.83,0,0,0,1.41,3Zm-13.52,18c-.52-.95-1.07-1.93-1.61-2.91-.5.5-1.49,1.11-1.41,1.48a14.08,14.08,0,0,0,1.41,3Z"/><path d="M293.88,862.65c70.21-15.59,73.74-11.83,76.92-7.8.75.95,1,3.58.37,4.15-4.39,3.87-5.07,8.69-4.4,14-5.3,3.4-5.53,8.86-4.33,13.86,1.6,6.63-3.51,10.77-4.52,16.23-.93,5,.7,10.78-1,15.42-1.15,3.15-4.59,5.66-3.65,9.71,1,4.48-4.09,5.81-4.52,9.41s1.18,7.5-2.58,10.21c-4.38,3.17.44,9.09-3.27,12.08-3.54,2.86-2.7,6.43-3.38,10-.64,3.3-3.46,6.17-4.15,9.47-.76,3.6-.37,7.49-.1,11.22.15,2,.88,5.64,1.73,5.76a35.28,35.28,0,0,0,10.54-.47c1.21-.2,2.16-2,3.21-3,3.52-3.6,3.53-9.11,7.77-12.7,3.6-3,5.54-8.06,8.12-12.27.33-.55.1-1.45.11-2.19.09-6.61,8.47-7.52,9.33-14.25.59-4.61,5.71-8.33,4.19-14,5.14-4.09,3.1-11,5.86-15.53,2-3.39,3.5-6.23,3.15-10-.44-4.65.93-8.12,4.14-12,2.33-2.76-1.46-8.78,3.45-12a4.33,4.33,0,0,0,1.32-3.81c-2-7.12,6.92-11.22,4.7-18.47-2.07-6.79,2.33-12.39,4.41-18.39.79-2.26,1.89-3.78,4.67-3.47,2.22.25,4.57-.25,6.67.31,1,.25,2.21,2.33,2.08,3.43-.81,7,2.78,14.74-3.88,21-1.53,1.44-1.11,5.89-.36,8.62,1.48,5.37-4.73,7.18-4.67,11.69.06,3.76,0,7.51,0,11.27-5.57,3.23-4.44,8.77-4.75,13.8-7,3.12-1.81,11.39-6.41,15.34-4.83,4.15.49,12.17-6.26,15.58-.72.36-.83,2.79-.55,4.12,1.31,6.24-2.57,10.9-4.2,16.28-1.25,4.14-6.58,6.19-5,11.58.8,2.78-1,7.72.35,8.66,4.82,3.24,3,9.92,7.71,12.84,1.25.77,2.16,2.08,3.69,3.61,3.56-3.79,7.28-7.44,10.64-11.4,3.67-4.33,10.18-6.78,9.6-14,3.72-3.72,7.52-7.36,11.13-11.18,3.25-3.44,2.93-9.64-.62-13.75-1.47-1.7-3.55-3-4.65-4.86a11.42,11.42,0,0,1-1.4-6c0-.77,2.14-1.9,3.42-2.1,2.2-.35,4.5,0,6.74-.13,3.63-.23,8.7.72,10.53-1.26a22.28,22.28,0,0,0,5.79-13.09c.32-7.35,6.52-12.66,5.27-20.71-.64-4.09,2.72-9.31,5.48-13.17,1.14-1.59,5.4-1.19,8.26-1.25,2.5-.06,3.93,1.43,3.87,4.16-.09,3.75,0,7.51,0,11.26-8,3.24-1.42,12.84-7.59,17.31-1.62,1.18-.66,5.53-1.53,8.21-.81,2.46-2.5,4.63-3.79,6.93,1.27.55,2.6,1.66,3.81,1.54,4.91-.49,8.11-6.63,13.91-4.39s8.78-4.78,13.91-4.48c6.9.42,10.5-2.78,13-9.15,5-13,13.52-24.32,18-37.63,1.21-3.63,4.59-2.94,7.44-2.82s10.77,5.22,10.23,6.79c-.67,1.93-3.84,3.27-4,5-.52,6,0,12-.29,18a10.25,10.25,0,0,1-2,5.86c-2.88,3.46-2.15,4.77,2.09,4.85,2.25,0,5.76.93,6.54-.15,3.81-5.18,9-4.38,14.12-4.36,13.52,0,27.07.56,40.54-.22,6.87-.4,11.08,2.17,15.43,6.73,2.26,2.36,6,3.35,9,5-1.81,5.81,6.63,7.93,5.17,13.79a20.51,20.51,0,0,0,5.75,1.71,96,96,0,0,0,11.25,0c4-.17,4.55,2.18,5.06,5.47.29,1.88,2.62,3.35,3.63,5.21,2.17,4,.11,7.58-4.21,7.34-2.81-.15-5.94,1.14-8.26-1.81-4.06-5.16-9.75-1.88-14.68-2.52-1.09-.15-2.48,1.18-3.58,2-2.86,2.22-5.37,5-8.49,6.75-6.08,3.34-12.27,6.75-18.83,8.83-3.19,1-4.45,4.71-7,4.58-5.45-.26-9.46,2-14.1,4.35-3.56,1.83-8.82.37-13.33.37-6.76,0-13.52,0-20.27,0-2.86,0-5.9.76-8.15-2.11-2.75-3.5-8.62-1.89-10.85-6.4-.92-1.87-2.21-3.66-2.63-5.64a20.26,20.26,0,0,1-.06-6.73c.74-5.6-3.65-8.82-7.06-10.23a10.59,10.59,0,0,0-12.15,2.69c-13.43,14.16-27.91,27.35-41.07,41.74-5.74,6.28-12.08,4.27-18.45,4.58-.77,0-2.29-2-2.34-3.21-.26-5.25,0-10.52-.22-15.76-.06-1.13-1.48-2.2-2.27-3.29-.53.53-1.47,1-1.53,1.6a14,14,0,0,1-4.78,9.35c-6.57,6.15-13.58,12.09-19,19.21-5.11,6.77-11.47,5.83-18,5.71-3-.05-8.33-5.34-8.24-9,.13-4.82-2.2-8-4.31-11.86-1.89-3.49-.52-8.73-.75-13.18,0-.56-.91-1.27-1.55-1.52-.36-.14-1.5.51-1.49.79.11,7.58-8.27,9.93-10,16.15-2,7-8,10.33-12.44,15.09-5.53,6-15.22,5-18.14-2.59-2.21-5.73-8.24-10.65-5.65-18,.15-.41-.72-1.68-1.07-1.66a8.32,8.32,0,0,0-3.18.89c-5.77,2.9-4.18,10.53-9.44,14.23-4.85,3.4-8.58,8.36-12.89,12.55-3.6,3.5-10.22,3.74-13.76.55-1.68-1.5-3.12-3.26-4.81-4.74-2.91-2.53-4.7-5.18-4.5-9.48.35-7.43-.09-14.9-.32-22.36,0-.54-.92-1.29-1.56-1.5-.37-.13-1.1.54-1.55,1-1.63,1.56-4.33,3-4.57,4.79-.66,4.77-3.43,7.76-6.56,10.89-6.45,6.47-11.73,7.7-21.4,2.87a14.14,14.14,0,0,0-8.24-1.72c-1.83.21-5,1.71-5,2.72-.24,7.15-6.74,9.4-10.34,13.78-2.16,2.61-10.5,2.79-16.39-.82-3.93-2.4-4.56-.08-6.59,1.43-4.3,3.17-4,8.79-7.54,12.85-4.23,4.89-10.06,5.53-14.62,9s-9.47,1.77-13.66-2c-5.08-4.62-8.85-9.29-7.94-17.12a97.85,97.85,0,0,0-.07-24.72c-.93-6.63,5.65-9.92,5-16.21-.65-5.86.14-11.87.29-17.81,7.34-4.61,1-13.5,5.07-18,5.46-6.18,1.61-13,3.68-18.9s4.44-11.71,5.69-17.93c.39-1.94,2.78-3.56,3-5.45.46-4.46-.42-9.1.33-13.48.57-3.29,4.11-6.31,4.07-9.42-.09-8.11,7.55-14.19,5.1-23-.7-2.53,2.79-6.12,4.13-9.33.91-2.2,1.9-3.77,4.68-3.47a44.85,44.85,0,0,0,6.76,0c5.08-.22,11.29-4.1,10.79-8.53-.67-6,4.18-9.09,4.79-14,.64-5.17,5.22-7,8.08-10.15,4.54-5,10.36-3.74,13.92,2.85.64,1.18,1.11,3.58.5,4.12-5.82,5.24-4.05,12.08-4.46,18.53-.32,5.08,2.2,11.08-1.47,15-4.35,4.7-2.59,9.72-2.91,14.64-.33,5.24.15,10.53-.17,15.76-.15,2.31.13,3.1,2.33,2.24a3.91,3.91,0,0,0,1.58-1.57,13.37,13.37,0,0,0,.71-2c.81-1.91,1.17-4.39,2.6-5.61,5.7-4.87,7.87-11.77,10.79-18.14,2.74-6,6.25-9.81,13.3-8.74,6.83,1,12-1.83,13.65-8.18s7.19-9.1,10.91-13.46c.84-1,4.57-.91,5.79.1,3.3,2.72,7.17,5.33,6.17,10.93-.76,4.21,1,8.83-3.61,12.18-1.21.88-.94,4.07-1,6.21-.11,7.51-1.19,15.25.29,22.46,1.41,6.93-4.66,10.45-4.87,16.22-.19,5.13,1.13,11.5-1.4,15-3.05,4.27-2.12,8.29-3.29,12.31-.94,3.21-5.57,5-4.3,9.46-6.38,6-7.38,15.05-12.34,22-2.33,3.27-2.91,8.24-6.75,10.55-4.35,2.61-2.62,8-6.16,11.16-3,2.69-2.35,8.08-6.13,11-.59.46.47,4.6,1.82,5.55s4.29.38,5.84-.62c2.46-1.6,4.34-4.11,6.46-6.23,4.25-4.25,8.53-8.47,12.7-12.8.37-.39-.19-1.56.1-2.18,2-4.41,4-8.91,6.37-13.12,4.3-7.51,8.8-15.1,7-24.07-1.35-6.56,6.46-9.53,4.89-16.24-1.17-5-.59-10.5,0-15.7.19-1.8,3.74-3.28,3.86-5,.45-6.49,7.76-10.92,5.1-18.33-.64-1.78-1.09-4.59,1.47-6,4.24-2.41,2.44-7.91,6.17-11.12s-1.36-10.6,5-13.56c-.3-4.74,3.77-7.44,5.32-11.32a43.42,43.42,0,0,1,2.64-4.81l10.85,6.39v2.25c0,6,0,12,0,18,0,4.5-5.83,6.28-4.74,11.69.81,4.05,1.51,8.84-3.13,12.22-1.23.89-1.37,4.13-1.05,6.13.89,5.56-2.41,9.43-4.34,14-1.61,3.83.79,10-1.49,12.73-3.46,4.1-2.54,8.13-3.48,12.28-.74,3.26-5.58,5-4.32,9.44-4.13,2.49-4.1,7.32-6.11,11-3.34,6.11-6.39,12.37-9.62,18.54-.65,1.25-2.05,2.31-2.21,3.57-.53,4.35.95,10.13-1.33,12.82-3.48,4.11-3.16,8-3.25,12.33-.09,4.51-.2,9,.11,13.51.07,1,1.66,2.42,2.82,2.8s3.3.35,4.19-.43c3.39-3,6.46-6.28,9.64-9.47a42,42,0,0,0,4.7-4.83c.77-1.06.31-3,1.13-4,5.13-6,10.05-12.3,12.92-19.46,1.37-3.42,4.32-6.42,4.59-9.22.43-4.3,4-6.2,4.74-9.4,1.38-6.19,7.39-11.34,4.67-18.34-2.61-6.71,4.26-10.46,4.57-16.18.27-5.14.6-10.27.9-15.4,7.1-3.07.61-11.53,6.3-15.49,4.58-3.18-.63-10,4.69-13.9,3.93-2.92,1.89-8.55,1.39-12.67-.78-6.38,2.92-9.57-59.13,5.39C227.73,880,227,879.19,224.94,880a2.8,2.8,0,0,0-1.49,1.36,8.46,8.46,0,0,0-.83,3.8c.16,1.21,1.15,2.3,1.77,3.44.88-.78,2.19-1.4,2.53-2.37C227.36,885,227,883.45,293.88,862.65Zm-77.74,40.22c-.49.24-1.33.39-1.42.73-.51,1.91-.72,3.89-1.24,5.8-.58,2.13.05,2.86,2.11,2.07a3,3,0,0,0,1.51-1.36c1.53-3.09,1-6.74-3.59,1.39-1.51,1-3.72,1.63-4.33,3-.76,1.7-.18,4-49.77,95.94V1015c0,.75,0,1.49,0,2.24-.07,2.88-.69,6.33,3.32,6.85,2.81.37,6.72.75,8.47-.78,5.51-4.82,10.23-10.55,15.26-15.92-.43-6.39,7.09-7.66,8.3-12.18,1.48-5.55.6-11.73.71-17.64.05-3-1.2-7.64.22-8.66,5.86-4.22,1.91-12.14,5.8-15.49,5-4.32.52-10.47,4.49-14,5.58-4.93,1.7-11.21,3.05-16.69.56-2.28-.06-3-2.25-2.2a3.14,3.14,0,0,0-1.57,1.54c-2.16,5.08-3.49,10.68-6.51,15.16-3.54,5.25-4.81,12.12-10.79,15.79-.92.56-1.57,2.6-1.35,3.77,1,5.07-1.47,8.29-4.94,11.47-5,4.53-9.62,9.37-14.25,14.23-1.42,1.49-3,3.37-3.31,5.28-.61,3.49.45,7-2.9,10.1-3.64,3.35-1.1,8.38,47.84-77.38,1.5-1,3.72-1.63,4.32-3C214.08,915.83,213.51,913.54,216.14,902.87Zm-1.93-59c-.7,0-1.54-.25-2.07.05-1.14.63-2.86,1.43-3,2.38-.66,4.16,2.8,1.92,4.06,1.88,1.5-.05,3-1.56,4.44-2.44-1.14-.63-2.28-1.25-8.63,2.64-1.25.49-3.41.78-3.58,1.52-.61,2.7,1.39,3.14,3.58,3,.77,4.74-.55,8.67-4.51,11.56,1,6.37.08,11.43-7.8,12.09-.32,0-.56,1-.84,1.52,6.69,3.54.19,6.52-.22,9.86-.53,4.33-.09,8.3-3.85,12-2,2-.05,8.15-2.08,10-3.61,3.24-2.29,8.23-5.94,11.23-4.56,3.78,1.42,12.4-6.32,15.21v13.28c.7-2.09,0-2.85-2.08-2.06a2.73,2.73,0,0,0-1.49,1.36,8.28,8.28,0,0,0-.83,3.8c.16,1.2,1.14,2.29,1.77,3.44.87-.78,2.18-1.41,2.53-2.38.44-1.24.1-2.76.1-6.26,1.28-.52,2.87-.72,3.76-1.62,2.73-2.75,13.8-22.12,14.18-25.3.44-3.54-.68-7.26,3.05-10,3-2.14.49-7.45,4.76-9.14,1.22-6.84,8-11.93,5.94-19.94-.71-2.71-1-7.65.38-8.44,7-4.07,1.09-13.09,7.46-17.43,1.68-1.14-1.32-2.91-3.51-2.84-1.49.05-3,0-4.46,0C209,851.4,209,849.9,214.21,843.89ZM240.55,898a19.11,19.11,0,0,0-.07-4.48c-.46-1.9-2.7-.26-4.43,3.54-.86,1.89-1.61,3.84-2.53,5.7a103.65,103.65,0,0,1-4.79,9.25c-2.23,3.56-2.77,7.78-5.87,11.24-1.86,2.08.25,7.31-.51,10.9-.69,3.29-3.06,6.21-4.19,9.46-.31.9,1.14,2.42,1.78,3.65a5.73,5.73,0,0,0,1.56-.94c1.89-2.2,5.54-4.8,5.2-6.64-1.36-7.37,5.54-11.54,5.93-18,6.71-3.75,0-13.64,7.81-17.21.85-.38.11-4.24,2.73-15.13a16.36,16.36,0,0,0-2.56,2.18c-.33.4-.06,1.29-.06,2,.67,0,1.57.28,2-.05a9.07,9.07,0,0,0,2.05-2.66C244.65,890.59,243.7,889.86,240.55,898ZM553.4,974.61c3.72,0,7.57.59,11.13-.17,3.27-.69,6.5-4.48,9.28-4,7.78,1.26,12.56-8,20.61-5.08.9.33,3.08-2.86,4.66-4.42.54-.52,1.59-1.37,1.5-1.53-.6-1-1.44-2.67-2.23-2.69-8.93-.19-17.87-.29-26.79,0-3.31.09-5.18-1.66-7.67-3.25-3.44-2.2-4.55,4.52-8.73,3.27-4-1.21-8.81,1.63-12.51-2.22a8.9,8.9,0,0,0-3.47-2.34c-3.63-1.14-10.09.33-10,2.27.21,3.5-1.86,7.4,1.4,10.53,2.15,2.05,4.35,4.08,6.29,6.33s4.24,3.77,7.58,3.42A82.87,82.87,0,0,1,553.4,974.61Zm-276.56-98c-.29-5.56-.41-9.24-.73-12.91-.05-.57-.91-1.3-1.55-1.5-.37-.12-1.24.54-1.52,1-3.37,6.07-3.89,13.59-9.53,18.49,1,8.47-4.54,14.54-7.92,21.4-.31.64-1.43,1.07-1.45,1.62-.12,4.49-1,9.25.16,13.4,1.78,6.21-7,7.69-4.91,14,1.69,5.07-.1,10-4.28,13.83-.37.34-.11,1.45,0,2.19a5.87,5.87,0,0,0,.44,2c1,2,1.9,2,3.18.51,5.81-6.56,16.95-28.89,18.76-39.34.75-4.34,5.93-6.22,4.87-11.62-.79-4-.79-8.2,2.85-12.31C277.55,884.81,276.54,879.15,276.84,876.65Zm204.88,75.42c-10.93,0-18.27-.08-25.61,0-2.71,0-8.15,6.21-8.18,9.13-.07,6.71-.24,13.43.23,20.1.06.89,3.75,2.37,5.48,2s3.41-2.45,5.07-3.82c4-3.27,3.11-9.27,7.76-12.57S475,958.76,481.72,952.07ZM605.05,936.9c-4.95-9.23-12.26-13.66-23.06-12-4.92.78-10.62-1.57-14.11,4.07-5.93.18-11.87.24-17.79.64-.93.06-1.78,1.62-2.53,2.6a3.59,3.59,0,0,0,1.53,1.49c7.51,2,16.56-3.44,22.85,4.76.28.37,1.44,0,2.19,0,9.76,0,19.52,0,29.29-.07C604,938.48,604.47,937.48,605.05,936.9Zm-393.7,65c3.12-3.21,6.17-6.4,9.26-9.54,3.63-3.69,9-6.76,10.49-11.16,1.84-5.28.47-11.68.38-17.59,0-.55-.81-1.21-1.39-1.59a1.68,1.68,0,0,0-1.51-.1,6.92,6.92,0,0,0-1.59,1.52c-2,2.32-17.29,31.28-17.85,34.71C209,999.13,210.46,1000.43,211.35,1001.85Zm7.31-106.77c.53.94,1.07,1.92,1.61,2.9.5-.5,1.49-1.11,1.41-1.48a14.31,14.31,0,0,0-1.41-3Z"/><path d="M728.7,1121.3c-4.08,2.67-7.06.88-9.72,3.61-10.49,10.75-21.33,21.16-31.73,32-3.18,3.31-6.73,2.46-10.27,2.42-1.21,0-3.46-1.37-3.44-2.06.16-6.39-2.33-13.11,4.28-18.52,3.63-3,5.52-8.08,8.13-12.27,3-4.85,10.5-6.51,9.88-13.93,3.62-3.76,7.11-7.65,10.88-11.25s3.08-9.44,7.82-12.66,7.44-8.35,10-13.76c2.12-4.47,7.21-7.5,10.76-11.37.83-.91.87-2.64,1.08-4a3.42,3.42,0,0,0-.53-2,7.7,7.7,0,0,0-1.5-1.54c-3.78,3.57-7.5,7.2-11.21,10.85s-8.89,3.8-12.65,7.8c-13.9,14.75-28.4,29-42.92,43.11-4.23,4.13-3.39,11-9.35,14.37-4.41,2.51-7.57,7.2-11.29,10.92-4.25,4.25-8.44,8.56-12.78,12.71a16.76,16.76,0,0,1-5.25,3.59c-1.06.41-2.65-.59-4-1,.29-1.06.25-2.44.92-3.12,1.68-1.71,2.78-3.37.09-4.76-5.91-3.07-6-3-2.52-6.46,9-9,18.1-18,27.07-27.1,4.7-4.76,9.24-9.69,13.85-14.54-1-7.32,7.08-8.65,9.24-14.2,2.25-5.77,4-12,8.66-16.76,2.18-2.22-.37-6.61-3.44-6.61-22.54,0-45.08.21-67.6-.24-4.08-.08-8,8.7-12.1.34-4.49,0-9-.1-13.46-.12-5.26,0-10.71.86-15.73-.23-6.05-1.31-9,4.61-14,4.66-19.53.18-39.06-.13-58.58.26-3.57.07-6.08-8.57-10.18-1.11-3.62.31-7.25.76-10.88.89-4.5.15-9,0-13.52,0H438c-4.5,0-9-.19-13.51.08-2.36.15-4.09,1.58-3.58,5.44,0,.33.26-.6-.07-.94a2,2,0,0,0-1.9,0c-1.49,1.05-3.34,2.33-.63,3.92.36.21,1.71-1.26,2.6-3,50.33-1,100.67-.79,151-1.28,6.39-.06,10.82,3.16,16.22,4.58,4.12,1.08,4,3.42,4.09,6.4.11,6-.7,7.29-5.29,7.31-12,0-24.09.69-36-.23-7.83-.61-13.62,3.59-20.34,5.61-.54.16-1.31,1.12-1.2,1.52a2.35,2.35,0,0,0,1.5,1.55,83.47,83.47,0,0,0,8.79.56q37.18,0,74.38,0c7,0,7,.05,11.77,8.76.35.63,1.54,1.15,1.48,1.59-.17,1.1-.6,2.74-1.36,3-1.31.5-3,.14-4.45.14-4.51,0-9.09.52-13.5-.14s-6.41,2.5-9.3,4.34c-2.77-4.63-7.39-3.65-11.75-4.38-7.86-1.3-13.6,3.64-20.33,5.59-.52.15-1.25,1.13-1.14,1.51.18.64,1,1.54,1.5,1.56,8.2.25,16.4.36,24.6.54,5.2.12,7.58,4.08,9.46,7.9.61,1.23-.85,4.6-2.27,5.39-1.71,1-4.42-.05-6.62.28-9.9,1.46-20.83-3.85-29.69,4.46-15-.12-30-.22-44.94-.41-.53,0-1.06-1-1.59-1.53.94-.86,1.85-2.44,2.81-2.46,13.44-.37,26.87-.5,40.31-.79.54,0,1.42-1,1.48-1.54s-.84-1.44-1.4-1.52c-2.89-.37-5.82-.39-8.71-.8-6.29-.89-13.08,2.19-18.88-3.76-1.88-1.93-7.11-.69-10.81-.7q-40.56,0-81.13,0c-8.26,0-16.56.44-24.78-.12-7.77-.54-16.53,3.54-23-4.22-2.71,2.32-5,4.83-9.35,4.5-7.47-.57-15-.16-22.52-.16s-15-.11-22.54,0c-6.34.12-13.15-1.58-18.26,4.09-5-8.15-9,2.61-14.6.83-6.13-2-13.38-.45-20.14-.45-6,0-12.05-.38-18,.11-6.32.51-13.4-2.62-18.76,3.85-1,1.16-4.22.52-6.42.53-9.77,0-19.56-.42-29.29.16-7.76.45-16.54-3.59-23,4.24-4.49,0-9.08-.5-13.45.24-10.61,1.8-22.42-4.93-32,4.39-9,0-18,0-27-.29-.74,0-2.16-2.42-2-3.45.37-1.86,2.19-5.15,2.61-5,10,2.85,17.84-6.08,27.52-4.89,1.81.23,4.06-1.07,5.76-2.19,8.1-5.34,16.85-7.3,26.55-6.87,4.84.21,10,2,14.75-2.48s11.42-1.16,17.19-1.73c5.21-.52,10.51-.11,15.77-.11,7.93-8.9,18.28-3.11,27.45-4.38,5.16-.72,10.5-.13,15.76-.13,6,0,12.2-.92,18,.25,6.11,1.24,8.83-4.75,14-4.76H466.57c6,0,12,.12,18-.09,1.24,0,2.44-1.27,3.66-2-1-.82-2-2.29-3.06-2.35-4.49-.27-9,.15-13.51-.18-5.64-.41-12.12,2.46-16.47-3.81-.31-.45-1.27-.52-2-.61a16.87,16.87,0,0,0-2.25,0c-6.76,0-13.52.13-20.28,0-7.38-.17-14.75-.62-22.13-1-5.24-6.73-12.53-2.73-18.84-3.37-6.69-.68-13.51-.15-20.27-.15-4.51,0-9.05-.38-13.51.09-6.8.71-10.82-6.9-18.51-4.93-6.35,1.63-13.44.33-20.2.33H233.88c-6,0-12,.16-18,0-5.26-.18-10.43-.53-13.91,4.56h-18c-5.26,0-10.86-1.15-15.68.31-5.39,1.62-9.93,5.31-16.28,4.34-5.34-.81-6.72-2.63-6.19-8.91.38-4.52,4.35-5.73,6.32-8.69,7.66,1.7,13-5.68,20.44-5.18,6.73.46,13.52.1,20.28.1h29.3c5.26,0,10.67-.77,15.74.21,5.41,1,7.18-4.75,11.69-4.74,12,0,24,.09,36.06,0,5.74,0,11.71,1.42,16.43-4.25,1.18-1.42,5.68-.14,8.64.09.57,0,1.12,1,1.59,1.53,4.62,5.62,6.3-4.13,10.62-2,3.1,1.56,6,7.11,9.12,4.38,7.24-6.27,15.35-3.87,23.15-4.16,10.5-.39,21,0,31.54-.22.67,0,1.45-1.77,1.85-2.84.11-.28-1.19-1.57-1.46-1.46-8,3.23-12.9-6-20.74-4.82-7.36,1.07-15,.23-22.5.23H147.75c-7.51,0-15,0-22.54,0s-14.94.17-22.42.26c-5.75,7.2-13.76,3.36-20.79,4.19-9.74,1.16-9.85,1.13-13.15-2.66-1.27-1.47-3.55-4.06-3.17-4.61,1.65-2.38,3.82-5.22,6.36-6,3.46-1,7.44-.37,11.19-.21s6.66-1.52,10-3.11c4.18-2,11.08-2.6,14.59-.35a20.85,20.85,0,0,0,12.22,3.43q23.66,0,47.33,0c4.46,0,8.9.54,12-4,.52-.77,3.46-1.08,4.08-.44,7.43,7.66,16.84,4.13,25.29,4.23,36,.41,72.12-.16,108.17.42,8.35.13,18-4.4,25.15,4.18,6.41-7.91,15.22-4,23-4.22s16.37-2.75,22.92,4.3c4.92-.94,10.43,2.29,14.9-2.18.76-.76,2.88-1.55,3-1.34,4.55,6.17,11.05,3.4,16.65,3.42q90.15.24,180.3-.05c7.73,0,16.25,3.31,23.21-4,1.45-1.52,5.74-.36,8.73-.36,19.53,0,39.06.23,58.59-.14,6.4-.12,11.79.53,15.47,6.34,2.49,3.93,6.51,2.75,10.1,2.77,2.57,0,4.15-1.43,3.91-4.08s.94-4.57,3.25-4.78c4.34-.41,8.37.13,12.19-3.69,2.09-2.08,6.29-2.3,9.18-4.86,2.3-2,5.41-.34,7.57,2.18,1.88,2.22,4.73,3.93,3.84,7.39-.33,1.29-1.7,2.28-2.3,3.54-1.18,2.51-1.45,6-3.35,7.51-5.43,4.22-7.16,10.72-11,15.82-6.14,8.06-10.8,17.31-19,23.76-.76.6-.71,3.06-.18,4.27,1.1,2.5,2.59,2.1,4.59.33,1.46-1.28,3.88-1.41,5.74-2.32,1.27-.62,2.84-1.46,3.37-2.61,3.12-6.83,11.39-5.85,16-10.92,3.52-3.89,5.42-8.26,7.92-12.58,3.16-5.48,7.64-6.73,10.72-4.33,6.21,4.84,7.42,12,3.49,17s-11.63,7.43-11.32,15.56c-6,6.53-13.25,12.33-17.66,19.8-3.77,6.4-7.49,13.21-9.83,20.7-1.37,4.4-7.1,7.45-10.89,11.12-3.71-3.1-7.21-6.08-7-12.39.21-5.74,1.55-10.17,6.14-13.3,3.85-2.63,3.21-6.34,4.47-12.08.44-1.37-.57-.76-1.26.1a1.92,1.92,0,0,0,0,1.89,1.9,1.9,0,0,0,1.89,0,9.07,9.07,0,0,0,2-2.66C731.49,1120.49,730.53,1119.75,728.7,1121.3Zm-23.43-56.53c-4.52.19-5,.85-4.93,6.91,0,.7-.27,1.67.08,2a2,2,0,0,0,2,0c2.09-1.84,4.07-3.82,6-5.82a1.9,1.9,0,0,0,.34-1.41c-1.11-.66-2.31-1.18-8.41,9.29,0-.67.26-1.6-.07-1.94a2,2,0,0,0-1.91,0c-1.48,1.05-3.33,2.33-.62,3.92C698.1,1078,699.45,1076.49,705.27,1064.77Zm-296.57,8.12c1.54.36,1.82.16,6.12-4.34.5-.52,1-1,1.53-1.53-1.13-.75-2.2-2-3.4-2.16-4.67-.52-6.82,2.06-5.57,6.42C407.55,1071.89,408.25,1072.36,408.7,1072.89ZM704.2,1116l-1.61-1.6a14.31,14.31,0,0,0-1.41,3c-.08.37.91,1,1.41,1.48C703.13,1117.88,703.68,1116.9,704.2,1116Zm-175.8,5.81c-.53-.94-1.07-1.92-1.61-2.9-.5.5-1.49,1.11-1.41,1.48a14.54,14.54,0,0,0,1.41,3Zm9-1.3-1.6-1.6a13.76,13.76,0,0,0-1.41,3c-.08.38.91,1,1.41,1.49Zm199.64,5.81,1.61,1.6a13.72,13.72,0,0,0,1.4-3c.09-.37-.9-1-1.4-1.48C738.11,1124.35,737.57,1125.33,737.05,1126.27Z"/><path d="M309.49,384.29a28.25,28.25,0,0,0-8.19,9.2c-3.35,5.24-5.06,11.62-8.43,16.65-3.16,4.69-6.69,9.05-9.49,14.13-2.34,4.24-2.58,10.06-7.71,12.59-4.56,2.25-3.07,7.69-6.13,11.09s-5.12,8.4-6.26,13c-1.38,5.63-7.45,7-9.24,12-1.64,4.57-3.16,9.27-5.53,13.45s-8.78,6.06-8,12.49c-8.57,6.23-10.55,16.64-15.77,25-1.8,2.9-2.67,7.76-5.05,8.59-4,1.37-8.83.52-13.24,0-2-.24-1.92-1.8-.85-3.09,1.33-1.6,3-3.45,3.21-5.36.51-3.68.15-7.49.15-11.24,8.41-3,.95-13.29,7.8-17.06.55-.3,1.24-1.2,1.15-1.71-2.23-13.3,6.57-22.83,11.86-33.38,1.88-3.76,1.3-7.06,1.59-10.57,0-.69-1.71-1.53-2.64-2.3-4.23,6.36-10.91,4.47-16.32,3.7-7.2-1-12.59,2.73-18.31,5.1-3.73,1.55-7.42,3.75-11.19,5.59-7,3.38-7,3.73-12.45-1.7-2.79-2.79-4.24-4.4-8.26-.76-3.35,3-8.68,4.72-13.35,5.3a14.84,14.84,0,0,0-9.56,4.42c-1.95,2-3.15,5.42-6.94,4.87-4.79-.7-8.19,1-11.65,4.65-11.37,12-23.24,23.47-34.91,35.14-1.59,1.59-3,4.23-4.82,4.55-3.39.6-7.57.88-10.4-.62s-1.67-4.89.57-7.47a14.08,14.08,0,0,0,2.53-5.66c.53-2.08-.32-5.36.87-6.29C82.89,492,85.43,482,90.21,473.37c4.37-7.85,7-16.68,11.53-24.43,1.9-3.26,3.79-5.86,3.73-9.82,0-1.89,1-4.75,2.47-5.54,6.45-3.52,5.68-11.73,10.9-15.88-1.16-6.12,7.61-9.46,4.56-16.16a2.54,2.54,0,0,1,.39-2.05c2.74-4.14,9.56-5.83,8.45-12.19s6.31-9.56,4.86-16.21c-1-4.84,4.91-7.94,4.81-13.86-.09-5.06,5.8-9.79,4.11-16.08,4.55-2.74,5.18-7.18,4.29-11.68-1.54-7.76,3.18-13.7,5.35-20.36.63-1.94,3.93-4.07,3.52-5.1-2.83-6.9,5.86-10.38,4.59-16.21-1.16-5.34,4.52-7.3,4.63-11.67s-.27-9,.17-13.5c.18-1.91,1.92-3.66,2.87-5.52,1.9-3.73,3.29-7.62,5.67-11.24,1.72-2.62.34-7.29.33-11,0-5.81-.91-11.86,4.51-16.14V202.92c7-7.4,3.92-16.61,4.47-25.15.32-4.87,1.45-5.36,7.07-5.69,4.59-.28,6.69,2.54,9.19,5.15s2.39,4,.41,7.66c-1,1.85-2.6,3.54-3,5.49-1,4.84,1.61,10.18-3.25,14.52-3.83,3.42,1.51,10.7-4.85,13.71a2.61,2.61,0,0,0-1,1.8c-.82,5.59,1.91,11.45-3.55,16.7-3.23,3.1.83,10.21-4.88,13.75-1.1.67-.55,4.15-.6,6.34-.07,3.75.54,7.62-.21,11.21-.53,2.58-3.53,4.63-4.14,7.22-.8,3.45.46,7.12-3,10.16-1.87,1.65-1.58,5.82-3.47,7.34-3.74,3-2.09,8.25-6.08,11.25-3.57,2.68,1.06,8.68-3.29,12.05s-1.16,8.47-2.51,12.45c-2.28,6.76-6.17,13.08-4.38,20.69-7.42,4.14-1.46,14.7-9,18.78,3.37,7.32-5.6,11.64-4.49,18.39.55,3.36-2.59,5.28-3.16,7.65-1.49,6.24-6.75,9.33-9.6,14.14-2.37,4,.67,10.46-5,13.63-.14,5.95-3.83,10.64-6.67,15.19-2.62,4.2-4.35,8.87-6.68,13.11-2.6,4.74-5,10-7.64,14.75-2.08,3.72-1.33,7.05-1.75,10.56-.06.55.56,1.29,1,1.78s1.36.9,1.51.76c2.2-2.05,4.74-3.91,6.33-6.38,3.41-5.31,10.11-5.73,13.94-9.69s8.87-4.8,12.5-8c3.38-2.94,6.84-1.86,10.25-2.71s6.18-3.76,9.45-4.18c7.77-1,14.35-7.71,22.87-4.69,3.74-5.95,11.23-2.63,15.47-5.94,4.55-3.54,11.25-3.13,14.42-9.22,2.36-4.52,9.2-3.18,12.46-7.93s8.18-7.58,13.73-10c4.48-2,7.37-7.34,11.39-10.68,2-1.69,6.21-1.56,7.29-3.47,1.3-2.26,1.1-5.26,3.35-7.65,1.77-1.89,1.77-5.38,3.43-7.46a71,71,0,0,1,9.53-9.54c.88-.75,3.09-.63,4.31-.08A4.56,4.56,0,0,1,276.5,374c0,5.89-.42,11.78-.69,17.68-6.34,2.95-1.17,10.64-4.95,13.55-6,4.63.22,14-7.77,17.2v12.31c.7-1.05,0-1.8-2.08-1a2.79,2.79,0,0,0-1.5,1.36,8.54,8.54,0,0,0-.83,3.8c.17,1.2,1.15,2.29,1.77,3.44.88-.78,2.19-1.41,2.53-2.38.44-1.24.11-2.76.11-5.21,7-.6,2.91-8.24,6.9-10.38,4.67-2.51,5.47-8.14,8.27-12.06s2.92-9.36,7.37-12.87c3.63-2.87,4.89-8.56,8.22-12,5.53-5.73,7.52-13.81,14-19,5.79-4.63,10.66-10.41,15.93-15.69,7.41,4.95,8.54,14.75,15.59,20.2,1.47,1.14,1.58,7,.13,8.37-4.38,4.14-4.71,8.81-4.27,14-5.45,3.31-5,8.7-4.41,13.79.77,6.14-7.6,9.34-4.64,16.06,2.54,5.77-3,9.43-4.9,13.58-2.47,5.24-2.82,11.05-5.21,15.72-2.84,5.56-4.74,11.8-8.23,16.67-3.32,4.65-3.36,11-8.52,14.63-1.05.74-.15,4.26-.15,6.5-3.12-.12-4.62,1.38-6.28,5.23-12.27,8.56-15,20.85-20.63,31.37-.37.7,1.15,2.4,1.79,3.63.53-.31,1.07-.59,1.58-.92,6.35-4.18,5.81-13.32,12.6-17.38,1.33-.79,1-4,2-5.76s3.51-3.07,4.25-5,.16-4.43.16-6.68l-1.77.73c4.89-.61,6.4-2.11,6.28-5.23,3.79.54,5.52-2.7,6.85-4.88,3.23-5.29,4.69-12.23,8.51-16.46a54.22,54.22,0,0,0,10.25-16.18c3.52-9,11.85-16.26,10.59-27.16-.12-1,1.45-2.53,2.58-3.32,5.48-3.81,6.86-8.87,6.48-15.42-.42-7.28,4.85-11.39,12.75-11.25,3.9.07,5.29,1.45,5.08,5.21-.15,2.83-.28,5.38-1.77,8.28C358,416,354.78,420.59,353,426c-1.46,4.54-5.31,8.3-7,12.82-1.91,5.23-6.75,9.2-6.5,15.29-4.55,2.74-4.77,7.1-4.35,11.68.34,3.82-.69,6.75-3.36,9.94-2.95,3.54-.9,8.1-.18,13.45,9.79-9.83,18.17-18.38,26.71-26.78,3-3,5.34-7.44,10.82-6.38,2-3,6.63-4.2,6.49-8.51-.15-4.68,6.59-6.38,4.62-11.61,3.18-3.18,6.17-6.59,9.62-9.43,1.49-1.21,4.22-2.15,5.89-1.63,3.65,1.14,7.8,8,7,10.32a7.09,7.09,0,0,1-1,1.81c-4.19,5.66-6.85,12.09-9.54,18.53-2.41,5.75-6.81,10.58-7.9,17-6.79,3.19-1.54,11.39-6.36,15.33-2.35,1.92-1.76,3.47.54,4.38,1.23.49,3.41.48,4.25-.29,4.94-4.57,10.16-9,14.2-14.35,2.85-3.74,3.75-8.89,5.91-13.22,5.89-11.8,12-23.51,18-35.26.63-1.23.77-3.16,1.73-3.7,6.91-3.88,6.5-12.88,12.58-17.41,3.57-2.66,6.07-6.8,9.74-9.24,2.13-1.41,5.63-1.13,8.49-1,2.33.11,3.84,1.58,3.59,4.43s-.06,6-.06,10c0,.34.26-.6-.07-.93a1.94,1.94,0,0,0-1.9,0c-1.48,1-3.34,2.33-.62,3.91.36.21,1.7-1.26,2.59-3,.75-1,2-.74,2.18-1,3.85-7.41,8.24-14.64,11.06-22.43,1.32-3.64,2.81-4.13,5.91-4.69,5.41-1,8.12,2.53,11.25,5.67,1.17,1.18.76,1.88-.8,3.26-3.8,3.36-6.86,6.94-8.31,12.34a26.58,26.58,0,0,1-7.86,12.33c-3.64,3.21-3.33,8-6.28,11-2.36,2.35-1.65,6.57-3.24,7.53-6.4,3.86-1.19,12-6.28,15.54s-6,9.74-9.58,14.1c-2.87,3.49-.88,7.15-1.49,10.67-.08.44.85,1.2,1.46,1.56a1.62,1.62,0,0,0,1.53-.09c2.71-2.6,5.16-5.49,8-7.89,6.06-5.05,10.1-12.06,18.68-14.79,6.5-2.07,8.61-11.45,17.23-12.92,3.64-.62,6.2-6.24,9.78-8.86a85.57,85.57,0,0,1,14.42-8.63c4.42-2,12.91,2.6,14.35,7.39a6.13,6.13,0,0,1-.51,4.22c-1,1.88-2.92,3.3-3.78,5.21-.48,1.06.15,2.83.7,4.1.86,2,1.73,1.54,3.19-.16,6.19-7.19,15.67-10,22.47-16.37,4.57.42,6.61-3.4,8.62-6.11,2.93-3.94,8.88-1.62,11-6.24,6.38-.63,12-3.79,18-5.48,6.92-1.94,12.87.85,17.43,6.74,1.06,1.37,5.39,2.28,5.58,1.94,3.92-7.08,12.55-2.07,17.57-7.25,3.77-3.89,10.31-2.52,14.75-1,3.31,1.11,7.86,4.66,6.9,10.36-.08.45,2.61,1.88,2.69,1.77,4.14-5,14.5-4.12,14.72-11.31.27-8.44,8.89-4,10.38-9,.16-.52,1.08-1.25,1.54-1.18,3.8.6,7.89,10,5.13,12.31-7.43,6.17-9.51,16.19-17.29,22.32-7.61,6-14.17,13.41-20.78,20.58-3.58,3.89-9.93,2.69-12.65,7.65-6.78-1.69-11.45,1.53-15.28,6.61-2.78,3.7-6.76,2.37-10.27,2.28-2.31-.06-3.61-1.78-3.49-4.55.16-3.69-.05-7,3.25-10,4.71-4.34,9.34-8.52,11.74-15.36,1.8-5.11,8-8.6,12-13.06.72-.81.48-3.12-.16-4.28a4.75,4.75,0,0,0-3.49-2.08c-3.55-.06-8-1.52-10.06,2.6-3,6.06-10.63,4.94-14,9.59-3.29,4.49-8.34,5.49-12.67,7.73-5.15,2.66-10,5.27-14.08,9.61-9.27,9.84-19,19.19-28.57,28.77-2.61,2.62-4.8,5.43-9.34,4.82-3.94-.53-4-.07-11.16-6.88l28.36-28.35C568.27,450,573.17,440,581,433.5a6.11,6.11,0,0,0,2-3.59c.18-1.28-.49-2.73-1-4-.16-.41-1.44-.83-1.47-.78-2.86,4.63-7.8,3.07-11.76,4.41s-7.51,4.89-9.88,8.41c-3.6,5.34-10.78,4-14.4,9.32-2.93,4.26-7.13,7.72-11.07,11.17-1.47,1.29-4.14,1.16-5.69,2.39-3.39,2.69-8.54,3.28-10.82,6s-3.63,7.36-5.87,10.93c-1.09,1.74-1.13,4.75-2.57,5.56-6.35,3.57-6,11.47-11,15.87-4,3.56-6.48,3-9-2.83-.6-1.37-.56-10.76,0-12,1.9-4.46,2.59-10.37,5.91-13.11,5.94-4.92,6.92-12.76,12.44-17.6,1.62-1.42,3.59-3.16,4-5s-.89-4.14-2.14-5.67c-.61-.74-3-.57-4.29-.05s-2.17,2-3.25,3c-6.83,6.49-12.57,14.34-22,17.52-4.23,6.3-12.56,6.83-17.37,12.64s-10.49,10.72-15.9,16.13c-6.45-.27-13.23,1.68-19.45-1.31-2.37-1.14-3.3-4.92-5.68.46-4.33,9.8-8.72,13.65-19.45,18.91-2.35,1.15-3.86,7.37-8.28,1.81-1.51-1.89-5.67-1.6-7.37-3.46-3.06-3.35-4.13-.51-6.61.56-9,3.85-16.71-1.1-16.64-10.31,0-4.24-.94-8.38,3-12.39,2.8-2.82,2.83-8.1-.58-11.94-6.66,4.19-9.76,13.14-18.89,13.91-5.31,5.31-10.57,10.68-16,15.88a5.4,5.4,0,0,1-3.82,1.46c-4.27-.57-8.91,1.88-12.85-1.55-1.34-1.17-1.94-3.24-4.88-1.08-6.21,4.55-8.78,11.42-12.48,17.5-2.85,4.69-3.72,10.6-6.7,15.17-2.82,4.31-7.51,7.34-10.85,11.37-1.69,2-1.71,6.73-3.4,7.26-4.09,1.27-8.72,1-13.13.89-1.08,0-3-1.57-3.07-2.49-.25-4.46,0-8.94.1-13.41,7.38-4.59,1.27-13.58,5.13-18,4.87-5.54,3-11.06,3.64-16.68,7.39-5.22,1.34-15.08,5.92-19.87,5.08-5.31-.34-14.15,7.59-17.33-2-6.37,4.22-11.06,4-16.13-.26-6.52,5.7-9.9,5.23-16.19-.42-5.71,4.88-9.82,6.77-15.11,1.63-4.55,6.24-8.81,6.05-13-.26-5.89,4.19-9.07,4.94-13.93a55.15,55.15,0,0,1,1.36-8.82c.82-4.07,0-3.93-.11-3.58-.5,1.9-.72,3.89-1.24,5.79-.58,2.13.05,2.86,2.11,2.07a3,3,0,0,0,1.51-1.35C313.3,384.13,312.76,380.47,309.49,384.29Zm-75.31,99.36c-.5.24-1.34.39-1.43.73-.51,1.91-.72,3.9-1.24,5.8-.58,2.13.05,2.86,2.11,2.07a3,3,0,0,0,1.51-1.36c1.54-3.08,1-6.74-3.59,3.41,0-.67.26-1.61-.08-1.94a2,2,0,0,0-1.9,0c-1.48,1.05-3.33,2.33-.62,3.92C229.3,496.46,230.65,495,234.18,483.65Zm200.2-31.93c-1.5,1-3.71,1.62-4.32,3-.76,1.7-.18,4-.18,6-5.4.7-7.13,6-11,8.68-3.53,2.44-2.39,6-7.81,12.53l-.47-.38c-2.6,3.38-5.36,6.67-7.67,10.24-.49.75.53,2.59,1.05,3.84.16.38,1.39.77,1.45.68,3.31-4.66,9.82-6.69,10.86-13.15a18.53,18.53,0,0,0-.06-4.4,3.48,3.48,0,0,0-2.07.05c-1.15.88-2.08,2.06,2.16-.06,5.4-.7,7.13-6,11-8.68,3.53-2.44,2.39-6.05,2.56-9.35,1.5-1,3.71-1.62,4.32-3,.76-1.7.18-4,2.81-10.16a15.86,15.86,0,0,0-2.57,2.17,1.35,1.35,0,0,0,1.91,1.91,9.42,9.42,0,0,0,2-2.66C438.49,448.84,437.53,448.1,434.38,451.72Zm-191.6-36.09c-2.25,2.31-4.54,4.58-6.69,7a2,2,0,0,0,0,2c.35.35,1.33.07,2,.08,5.92.06,8.46-2.56,6.68-6.94-.24-.6-1-1-8.79,8.95,0-.67.27-1.6-.07-1.94a2,2,0,0,0-1.9,0c-1.48,1-3.33,2.33-.62,3.92C233.81,428.85,235.15,427.37,242.78,415.63Zm54.83,41.31c-.51,0-1.16-.12-1.51.14-2.26,1.68-2.19,6.16.1,7.41a1.69,1.69,0,0,0,1.5-.11C300,462.7,299.87,458.26,297.61,456.94Zm4.45-9.08-2.91,1.6c.5.5,1.11,1.49,1.48,1.41a13.83,13.83,0,0,0,3-1.41Zm-45.08,0-2.9,1.6c.5.5,1.11,1.49,1.48,1.41a13.76,13.76,0,0,0,3-1.41Zm183.51-5.81,2.91-1.6c-.5-.5-1.11-1.5-1.48-1.41a13.83,13.83,0,0,0-3,1.41Zm-134.58-3.86c-.5.5-1.49,1.11-1.41,1.48a14.08,14.08,0,0,0,1.41,3c.5-.5,1.5-1.11,1.41-1.48A13.39,13.39,0,0,0,305.91,438.19ZM446.3,433l1.61-1.61a14.31,14.31,0,0,0-3-1.41c-.37-.08-1,.91-1.48,1.41Zm-135.88-8.37c-.5.5-1.49,1.11-1.41,1.48a14.31,14.31,0,0,0,1.41,3c.5-.5,1.49-1.11,1.41-1.48A13.62,13.62,0,0,0,310.42,424.67Z"/><path d="M971.9,432.58C919.36,517.82,919.36,510,923,502.11c1.23-2.64,2.83-4.77,2.76-7.91-.19-7.51-.72-15.09.09-22.52,1.17-10.67-4.1-22.13,4.14-32.12,1.48-1.79.21-5.84.21-8.84,0-12.77.82-25.62-.33-38.28-.61-6.68,6.24-9.66,5.06-16.23-1.05-5.82-.22-12-.22-18s-.75-12.14.21-18c1-6.18,5.52-11.41,4.48-18.47-.87-5.88-1.45-12.35.14-17.91,2-6.88,5.22-13.14,4.35-20.78a73.21,73.21,0,0,1,.1-20.22c.9-5.41,5.6-9.69,4.46-16.24-1-5.83-.57-12,0-18,.17-1.73,3.14-3.07,4.51-4.84,2.28-2.94,3.43-.42,4.8.83,1.66,1.52,3.08,3.33,4.84,4.7a6.76,6.76,0,0,0,3.86,1.43c2.77,0,4.6,1.52,4.19,3.84-1.49,8.41,4.27,18-4.13,25.3-.09,4.47.15,9-.32,13.41-.91,8.61,2.15,17.41-2.68,25.93-4.19,7.37-.92,16-1.78,24-9.28,4.71-.07,16.14-7.84,21.66-1.23.87-1.08,4.05-1.11,6.16-.12,7.51.3,15.05-.22,22.52-.21,3.09-3.56,6.26-3.11,9,.37,2.28,3.51,4.11,3.37,7.56-.29,7.5-.09,15-.09,22.53-8.67,9.63-2.93,21.3-4.4,31.95-.61,4.42-.23,9,0,13.5,0,.67,1.79,1.4,2.86,1.78.29.1,1.35-.92,1.46-1.53.85-5-2.18-10.85,1.82-15,5.15-5.31,1.88-11.35,2.6-17,.66-5.17.14-10.5.14-15.76s-.08-10.51,0-15.77c.12-6.46-1.35-13.18,4.33-18.58,1.12-1.08-.09-4.37.2-6.59,1.48-11.4-3.7-23.47,4.2-34.38,1.79-2.47-.08-7.36.34-11.07.71-6.31-2.4-13.24,3.75-18.85,1.55-1.41.28-5.69.74-8.58.89-5.64-2.2-11.77,2.6-17,4-4.38,1-10,1.85-15,6.26-4.07,4.34-10.42,4.49-16.17.11-4.46,6.16-6.34,4.66-11.69-.77-2.76-.45-6,3.92-6.27,4.58-.27,6.58,3.53,8.52,6.25,1.45,2,.91,5.64.92,8.55,0,23.28,0,46.57.14,69.86,0,1.77,1.53,3.54,2.36,5.31a40.5,40.5,0,0,0,2-5.93c1.11-6.24-2.86-13.67,4.38-18.47l.17-18c6.29-4.05,3.92-10.46,4.62-16.15.59-4.82,5.49-8,4.82-14-.28-2.54,3.89-5.8,6.43-8.32.76-.75,2.89-.13,4.39-.14l5.61,12.45c-5,3-3.24,7.91-3.27,12.15-.13,21,.45,42.08-.29,63.09-.33,9.15,4.61,19.5-4.27,27.43,0,7.5,0,15,.18,22.49,0,.54.92,1.22,1.56,1.53.36.17,1.41-.16,1.51-.47,1.27-4.06,2.8-8,5.76-11.14-1.18-8.87,8.07-15.94,4.47-25.15-2.38-6.06,5.35-8.28,4.75-14-.43-4.08-2.07-9.06,2.59-12.36.6-.42,1.52-1,1.53-1.58.15-6,.61-12,.06-18-.59-6.19,5.65-9.67,5-16.21-.57-5.55-3-12.35,1.56-17.13s1.32-10,2.72-14.74a42.06,42.06,0,0,1,5.28-11.27c.87-1.29,4.94-2.23,5.73-1.46,3,2.92,7.18,4.9,7,10.55-.39,17.27-.29,34.55,0,51.82.07,4.76-5.85,6.3-4.82,11.7,1,5.07.21,10.48.21,15.73,0,4.51.25,9-.06,13.52-.35,4.93-5.83,7.92-4.68,14,1.1,5.8.24,12,.24,18,0,5.26-.8,10.68.2,15.73,1.19,6-6.63,7.73-5,14,1.29,4.92.13,10.45.35,15.7,0,1.25,1.27,2.45,2,3.67a18.23,18.23,0,0,1,3.21-2.72c4.48-2.32,3-7.89,6.25-11,3-2.88,7.92-5,6.53-10.75,4.43-2.29,3.33-8,6.43-10.77,3.48-3.11,1.66-8.84,6.26-11-.57-6.71,5-12,5-18.06,0-5.16,4.39-7.43,4.82-11.66.36-3.58-1-7.55,2.93-10.09.62-.4,1.44-1,1.55-1.58.86-5-2.18-11,1.82-14.93s2.19-8.28,2.75-12.48c.19-1.46-.31-3.94.34-4.25,7.42-3.61,1-13.29,7.78-17.32,1.29-.77.7-4.2,1.8-5.85,2-3.05,5.51-1.08,8.32-1.5s4,1.27,4.28,3.74a17.83,17.83,0,0,1,0,4.5c-1,7,3,15-4.22,20.78,2.64,7.2-5.3,11.65-4.78,18.3-4.5,2.73-4.69,7-4.56,11.66.18,6.72-.12,13.44-.22,20.16-6.56,4.09-2.14,11.41-4.6,16.08-2.76,5.26-2.48,11.68-5.39,15.71-4.11,5.69-3,8.15.66,13.07a8.76,8.76,0,0,1-2.35,11.93,10.79,10.79,0,0,0-1.51,1.58c9.9,5.55-.14,11.08.14,16.56.33,6.3-3,13.57,3.59,18.72.25,4.41.57,8.81.71,13.22.09,2.93-.54,6.11,2.49,8,7.82,4.79,6.66,12.48,6.49,19.84,0,.56-.8,1.23-1.38,1.63a1.68,1.68,0,0,1-1.53.1c-2.71-2.59-5.17-5.48-8-7.88-3.51-2.93-1.8-8.72-6.33-10.93,1-8.87-6.2-15.62-5.52-24.91,1.16-15.69.36-31.53.2-47.3,0-.79-1.67-1.65-2.7-2.26-.15-.09-1.09.91-1.52,1.52-1.64,2.3-5.15,3.3-4.7,7.07s-3.16,4.73-4.92,6.95-3.6,4-4.36,7.28c-.91,3.89-3.4,7.71-5.47,11.14-3,5-8,8.85-12.52,12.84-1.44,1.29-4.63,2.66-5.66,2-2.92-1.95-7.11-4.84-7.28-7.56-.76-12.73-.34-25.52-.34-38.29,7.84-9.75,4-21.25,4.2-31.94.11-6.23,6.48-9.56,5-16.21-1.1-5-.11-10.47-.35-15.72,0-.76-1.7-1.56-2.75-2.08-.22-.11-1.21.88-1.49,1.52a5.71,5.71,0,0,0-.13,2.2c0,2.25-.48,4.63.08,6.74,1.71,6.41-2.47,10.94-4.52,16.21-1.77,4.53-5.6,8.05-4.89,13.92.47,3.82-5.49,6.45-4.29,11.63s-6.2,7.79-4.64,13.95c1.3,5.12-4.35,7.25-7.26,10.31-2.59,2.73-.94,5.66-1.54,8.43-.79,3.64-5.44,8.66-8.4,9.08-2.75.39-9.4-4.67-9.52-7.86-.16-4.39-1.22-10.17,1-12.88,3.42-4.08,3.32-7.95,3.34-12.29,0-10.52,0-21,.06-31.55,0-2.12-.11-5.22,1.13-6.16,5-3.81.6-5.42-.9-8.28-.77-1.47-.31-2.94-2.51-2.08-.64.25-1.52,1-1.55,1.56-.33,5.91-.21,11.86-.8,17.74-.64,6.31,2.68,13.51-3.95,18.7-.79.61-.39,2.78-.48,4.23q-.61,9.88-1.2,19.78c-6.55,5.35-1.52,12.78-3.44,18.87a66.83,66.83,0,0,1-6.2,13.18c-2.06,3.57-7.54,6.39-9,5-3.08-2.88-7.66-4.8-7.21-10.31.24-3-1.24-7.19.26-8.8,6.54-7,3.71-15.33,4.22-23.13.35-5.24.07-10.52.07-15.77V373.34c0-5.26.77-10.66-.2-15.73-1.14-5.94,4.38-9.16,4.55-14,.45-12.75.17-25.53.09-38.3,0-.55-1.1-1.63-1.4-1.54a7.48,7.48,0,0,0-3,1.72c-.37.38,0,1.45-.08,2.19-1.27,8.43,3,17.54-4.21,25.43-1.87,2.05.15,7.31-.36,11-1.57,11.39,4.49,23.78-4.43,34.2,0,10.52.23,21-.09,31.55-.17,5.63,2.44,12-3.72,16.53-.81.58-.6,2.71-.68,4.14-.36,6.62-.67,13.25-1,19.87-6.74,5.23-1.86,12.67-3.63,18.79-1.55,5.38-6.59,9.78-4.41,16.19-3.31,2.64-5.09,6.83-10.61,7.09-7.31.33-7.28,1-7.42,7.21a16.83,16.83,0,0,0,0,4.49c1.85,7-2.24,11.2-6.89,15.21-1.58,1.37-3.09,2.82,39.49-86.84,43.86-93.43,43.87-94.84,43.55-96.17a3.13,3.13,0,0,0-1.4-1.45c-1,.69-2.45,1.48-2.56,2.39-.33,2.82.15,5.73-.2,8.54-.28,2.19.11,2.92,2.21,2.11a2.61,2.61,0,0,0,1.5-1.41C1015.51,344.62,1015.79,342.58,971.9,432.58ZM994,340.63c.52.94,1.06,1.92,1.61,2.9.5-.5,1.49-1.11,1.41-1.48a14.31,14.31,0,0,0-1.41-3Z"/><path d="M966.3,735.14c0-7.51.09-15-.09-22.53,0-1.24-1.24-2.46-1.9-3.69-.84,1-2.59,2.26-2.38,2.88,2.84,8.61-4.41,15.11-4.61,23-.19,7.51-.43,15.05.1,22.52.34,4.93-5.2,6.52-5,11.68.12,3.61-4.64,3.57-8.58.75-5.16-3.69-4.92-8.64-4.42-13.88,5.57-3.37,4.34-8.89,4.35-14,0-48.82.18-97.64-.2-146.46,0-6.89,2.35-12.47,4.67-18.43.87-2.22,1.68-3.86,4.56-3.61s6-.07,9,.09,8.6,5.52,9,8.42c1.07,7-3.15,15.1,4.37,20.72l.12,22.49c0,1.5-.55,4,.08,4.35,9.2,5,0,16.35,7.69,21.79.89.63,1.19,2.58,1.19,3.92,0,5.84.88,10.91,4.08,16.44,2.62,4.53.9,11.55,1.23,17.46a2.12,2.12,0,0,0,1.52,1.44c.56,0,1.34-.86,1.56-1.49,1.58-4.61-1-10.66,4.82-13.78q.18-6.69.37-13.37c6.72-5.75,3.76-13.6,4.56-20.66.49-4.3-2.23-9.48,1.56-12.76,4.36-3.77,2.53-8.21,2.83-12.42.33-4.47.17-9,.23-13.45,7.75-3.84,1.33-14.41,9.36-18.92,3.79-2.13,6-7.76,8-12.21,1.13-2.5.17-5.86.57-8.78,1-7.12-2.28-14.41,2.59-21.51,4.37-6.39,1.13-14.43,1.85-21.7.3-3,5.37-8.65,8.38-9.12,3.75-.59,9.56,5.44,9.67,10.05,0,1.5.65,3.67-.1,4.4-6.14,6-4.3,13.6-4.38,20.77-.11,10.52-.15,21,0,31.55.14,8.88.6,17.75,1,26.62,0,.34,1,.63,1.53.94,4.38-8.48.88-17.53,1.89-26.25.25-2.22-.88-5.72.2-6.53,3.61-2.71,7.93-4.47,12-6.59,2,4.44,5,8.73,5.65,13.37,1,6.61-.21,13.52.36,20.23.77,9.23-3.44,19.33,4.39,27.43,0,6-.19,12,.11,18,.1,2,.89,4.71,2.32,5.65,7.57,5,6.83,12.48,6.65,19.91,0,.56.87,1.67,1.21,1.62a6.87,6.87,0,0,0,3.17-1.18c3-2.32,4.18-5.35,5.18-9.15.83-3.14,5.28-5.15,7.5-8.13,2.79-3.72,6.45-3.14,10.08-2.93,1.3.08,3.46.87,3.62,1.67.4,1.92.65,5-.44,5.9-6.54,5.19-8.48,13-12.4,19.75-5.29,9-13.35,15.55-21.26,22.14-.44.37-1.48.14-2.21,0s-1.69-.25-1.91-.69c-2.12-4.38-4.68-8.66-5.94-13.28a21.27,21.27,0,0,1,0-11.17c2.3-7.51-4.69-11.83-5.42-18.21-.08-.69-2.33-1.34-3.65-1.65A3.43,3.43,0,0,0,1052,658c-.24,9,.14,18-.18,27-.21,5.63,2.39,12.05-3.86,16.48-.78.56-.34,2.76-.58,4.18-1,6.26,2.94,13.68-4.28,18.51-.07,6.73.07,13.47-.35,20.18-.11,1.9-2.21,3.59-2.76,5.56-1.71,6-6.88,10.59-6.5,17.77.14,2.71-3.9,5.83-6.43,8.36-.76.76-3,.55-4.32.07s-7.48-14.33-6.83-14.95c7.71-7.36,2.61-16.94,4.64-25.19,1.32-5.4,5.68-9.75,4.49-16.24-.93-5.09-.18-10.48-.18-15.74,0-6,.57-12.09-.21-18-.49-3.73,8.67-6.07,1.18-10.22-.32-5.12-.68-10.24-1-15.37-.24-4.42-.36-8.84-.68-13.26a2.23,2.23,0,0,0-1.54-1.48c-.47-.05-1.09.85-1.58,1.39-2.4,2.65-6,4.52-5.28,9.11a22.73,22.73,0,0,1,0,6.74c-.94,6.38,2,13-2.53,19.27-4.13,5.7-1.27,12.92-1.93,19.43-9.19,5.38.18,17.93-9,23.31,0,3.75-.25,7.53,0,11.26.6,7.44-6.27,12.74-5.47,20.43.25,2.34-4.27.62-5.71,1.73-3.52,2.75-6.49,6.22-9.68,9.4-2.06,2.05-3.83,4.65-7.36,4-2.84-.54-7.85-6.48-7.87-9.58C966.25,753.17,966.3,744.15,966.3,735.14Zm6.49-66.79c-.53.53-1.34,1-1.54,1.6-1.91,6,2.56,13.62-4.74,18.21.38.53.66,1.28,1.18,1.55,6,3.1.58,10.19,4.74,13.72,4.94,4.19,2.42,9.64,2.8,14.53.41,5.19.13,10.42.29,15.63,0,.54.91,1.22,1.55,1.52.36.17,1.12-.16,1.54-.48,5.26-4.07,8.25-10.55,4.78-15-3.13-4.05-3.5-7.7-3.6-12.09-.12-5.13-.48-10.25-.73-15.38-6.29-4.3-3-10.81-3.75-16.37-.3-2.12-.54-4.25-1-6.33C974.22,669,973.32,668.7,972.79,668.35Z"/><path d="M885.65,877.33c-37.86,1.89-28.95,1.95-20,1.72.54,0,1.43-2.42,1.41-3.71s-1-3.63-1.55-3.65c-13.42-.41-26.85-.56-40.28-.76-8.1,7.82-18.22,3.43-27.42,4.44-3.71.41-7.62-.51-11.22.24-3.3.7-6.2,3.09-9.45,4.26-2.65,1-6.45-1.56-8.25,1.63-2.23,4-6.52,2.41-9.52,4.54-5.78,4.11-6.54,4.15-10.66-.77-5.74-6.84-13.08-6.77-19.81-4a49.64,49.64,0,0,1-9.92,3.32c-9.45,1.82-15.65-2.58-21-9.37a8.35,8.35,0,0,1-2-3.63c-.17-1.28.21-3.49,1-3.91,4.32-2.17,8.84-5.33,13.35-5.42,5-.11,7.69-4,11.67-4.67,4.34-.73,8.25-.45,12-4.1,2.73-2.66,8.77,1.33,12-3.38a5.21,5.21,0,0,1,3.71-1.68c6.75-.16,13.52-.19,20.26.08.85,0,2.05,2,2.31,3.27s0,3.59-.76,4c-4.27,2.28-8.69,5.4-13.25,5.75-4.81.36-7.82,3.18-11.71,4.59s-8.73.66-13.13,1a1.53,1.53,0,0,0,0,3.05c7.77,0,16.15,4.11,22.84-3.35.38-.42,1.35-.41,2-.42q12.38,0,24.77,0c6.5-7.27,15.15-4.38,22.9-4.28,6.16.08,9.61-6.15,16.19-5,5.81,1,12,.22,18,.22s12,.42,18-.13c4.82-.44,8-5.73,13.94-4.58,5.07,1,10.47.2,15.73.2h49.54c5.25,0,10.51.11,15.76,0,3.79-.11,6.65,1.46,10,3.07,4.16,2,9.86.76,14.9.92,4.47-8.38,7.78,3.1,12.4.85,1.41-.69,4.19,9.63,2.35,11.34a6.2,6.2,0,0,1-3.7,1.8c-14.26.13-28.53.32-42.78-.06-4.36-.11-6.56,2.3-9.57,4.4-1.17.81-2.9.28-2,2.49a3.43,3.43,0,0,0,1.57,1.58c5.23,2.74,11.77-2.32,16.75,3.14,4.15,4.53,9.92,1.16,14.87,2,2.35.42,4.17,5.38,2.25,7.23-3.06,2.93-5.26,8-10.84,6.25-6.51-2-10.79,3.06-16.2,4.46-4.74,1.23-10.61-2.09-14.29,3.65a2.55,2.55,0,0,1-1.83.92c-4.5.08-9.1-.54-13.48.22-4,.69-7.68,3.56-11.7,4.15-5.14.75-10.49.42-15.73.1-3.58-.22-5.26,2.15-7.32,4.17-1.43,1.4-3.28,2.55-.66,4.83,2.79,2.43,4.93,5.69,9.39,4.61,5.69-1.36,8.89,3.26,10.42,6.65s3.29,6.18,4.84,9.27c1.18,2.36,1.14,5.31,3.38,7.66,1.25,1.3,1.54,4,1.38,6-.27,3.52,1.54,7.3-1.66,10.55-5.06,5.15-2.12,13.95-9.43,18.78-7.13,4.72-11.86,12.57-20.48,16a33.07,33.07,0,0,1-8.29,1.73c-2.54.33-4.86-.78-5-3-.26-5.91.19-11.86.36-17.8,6.23-5.33,5.53-14.75,11.27-20,6-5.52,7.17-14.26,14.09-19.13,3-2.16,1.58-6.51-3.16-7.43-4.4-.85-6.36-6.65-11.55-4.88-2.34-3.06-5.89-3.64-9.11-5.15s-5.6-3.95-9.72-3.86c-12.76.29-25.53.23-38.28,0-3.95-.06-6.66,2.37-9.84,3.45-5.36,1.82-11.8,1.74-17.51.79-2.93-.49-5.66-4.34-7.61-7.25-.69-1,.67-5,1.95-5.52,3.83-1.58,8.54,1.11,12.25-3.28,3.25-3.84,8.46-1.36,12.74-1.53,9-.35,18.11-.92,27,.15,7.18.87,11.29-6.09,18.47-5,6.54,1,13.39,0,20.1-.07,4.91-7,12.31-3,18.51-4.3,3.13-.67,6-2.35,9.06-3.57,3.05,4.84,5.05.57,8.07-.22,5.61-1.47,11.85-.45,17.81-.75.67,0,1.4-1.79,1.78-2.86.1-.29-1-1.44-1.51-1.45-7.51-.1-15-.25-22.52,0a10,10,0,0,1-7.82-3.15c-1.25-1.17-5.18-1.75-5.75-1-3.2,4.3-7.44,4.2-12,4.09-6-.14-12.07-.58-18,.08-11.41,1.28-23.65-4.23-34.3,4.24-1.38,1.1-4.39.08-6.63.17-5.15.21-11.52-1.26-15.12,1.23-4.22,2.92-9.39,1.43-12,3.62-5.25,4.4-10.69,3.82-16.44,4.28a9.11,9.11,0,0,0-5.45,2.87c-1.54,1.68-2.84,2.11-3.17-.09a78.78,78.78,0,0,1-.68-13.21c0-1.09,1.9-3.21,2.43-3.06,5.8,1.6,7.74-6.27,14-5,6.47,1.34,13.45.3,20.2.3,10.48-8.42,22.88-2.24,80.93-7.13,49.09-1.19,49.85-1.91,49.06-4a2.79,2.79,0,0,0-1.36-1.5,8.6,8.6,0,0,0-3.8-.83c-1.21.17-2.3,1.15-3.44,1.77.78.88,1.4,2.19,2.37,2.53C929.73,875.78,931.24,875.44,885.65,877.33Zm8.52,77.74c0-1.66.34-3.26-.11-4.59-.34-1-1.64-1.72-2.64-2.39-.12-.08-1.09.9-1.5,1.5-1.56,2.32-5.25,3.19-4.76,6.9.62,4.67-.39,8.57-4.41,11.59-.71.54-.1,2.83-.1,4.31v2.22c.74,0,1.85.32,2.16-.05,5-5.86,14.05-9.4-2.16,2.06,0-.67.26-1.6-.07-1.94a2,2,0,0,0-1.91,0c-1.48,1.05-3.33,2.33-.62,3.92C878.41,978.79,879.76,977.32,894.17,955.07Zm2.37-79.63c4.45,0,8.9,0,13.35-.07.54,0,1.59-1.12,1.49-1.43-.34-1.07-1.06-2.86-1.67-2.88-7.41-.2-14.83-.16-22.24-.06-.54,0-1.59,1.12-1.49,1.43.33,1.08,1,2.8,1.68,2.88A82.11,82.11,0,0,0,896.54,875.44Z"/><path d="M872.94,1076.22c-8.68,2.12-4.85,10.31-9.69,13.28-6.21,3.83-10.82,10.24-16.12,15.54-3.71,3.71-7.43,7.41-11.13,11.14-3.16,3.18-8.45,6.07-9,9.64-.89,6.17-5.71,8.29-8.47,12.38-2.58,3.81-6.27,3.3-10,3.19-3.18-.09-6-3.37-4.49-5.63,3-4.29,5.42-8.46,4.43-14-.46-2.55,1.09-5.79-2.71-7a49.5,49.5,0,0,0-1.79,6c-1.12,6.41-6.73,13.89-12.16,17.16-2.31,1.39-3.52,4.44-6.51.76-2.31-2.84-6.31-5.9-2.93-9.11,4-3.79,2.25-8.34,3.85-12s3-8.38,5.73-11c3.49-3.34,1.88-8.45,6-11.31,3.48-2.42.27-7.16,1.81-10.37,1.18-2.48,5.26-3.78,4.1-7.23-2-6,5.82-8.87,4.41-13.85-1.75-6.18,4-8.94,5.22-13.8,1.19-4.56,5-8.55,4-14-.25-1.46-.66-3.54.08-4.39,2.18-2.48,4.63-5,7.52-6.47,1.5-.75,3.25,6,2.41,9.34a32.22,32.22,0,0,0-.94,8.58c.07,2.38,2.06,2.86,4.24,3.84,9.66,4.37,11.71,10.44,8.08,21.19-6.7,3.76.13,13.82-7.91,17v16.74c0,.34.26-.59-.07-.93a2,2,0,0,0-1.9,0c-1.48,1-3.33,2.33-.62,3.91.36.22,1.7-1.26,2.59-3,2.77-1.6,5.56-.13,8.44-2.45,5.85-4.72,9.36-10.92,12.53-17.37,2.19-4.49,3.55-9.26,8-12.48,7.16-5.23,8.83-14.79,15.79-20.48,3.46-2.82,6.82-2.19,10.34-2.2,1.18,0,3.35,1.35,3.39,2.17.29,6,0,12,.2,18,.2,5.26.48,10.37-4.51,13.93-.35.26,0,1.44-.05,2.18-.14,5.75,1.19,11.92-4.5,16.11,1.05,5.45-1.25,9.72-4.3,14-.66.93.95,4,2.21,5.52.62.74,3.49.78,4.25,0,14.4-14.18,28.64-28.52,42.92-42.83-.87-6.42,4.82-8.66,8.07-12.36,3.45-3.94,7.3-7.52,11.08-11.16,2.71-2.62,5.9-1.33,7.91,3,.88,1.89,1.9,3.71,2.92,5.53,2.07,3.69,2.16,3.72-.06,7.66-.71,1.25-2.66,2.16-2.74,3.32-.33,4.47-.83,9.12,0,13.44,1.07,5.31-5.47,6.84-4.72,11.65.44,2.79-1.18,6.9,2.16,7.88s7.56,2.15,10.44-1c4-4.35,8.94-6.86,13.94-9.74,4.21-2.42,9.29-3.12,12.85-7.45,3-3.62,8.33-5.15,12.12-8.23a83.31,83.31,0,0,0,11.12-11.1c3-3.52,6.66-2.58,10.2-2.51,1.23,0,3.46,1.25,3.48,2,.09,5,2.39,10.84-1.23,14.89-2.95,3.31-2.35,6.6-3.09,10.09-.7,3.29-3,6.21-4.3,9.42-1.79,4.51-6,8.09-4.78,13.89.3,1.42-1.9,3.87-3.52,5.09-4.67,3.53-4.24,8.67-5.77,13.44-1.49,4.62-5,8.61-4,14-5.82,4.17-4.52,10.37-4.43,16.11,0,2.75-1.16,4.17-3.5,4.57a5.91,5.91,0,0,1-4.09-.78c-5.75-4-7.78-11.53-5.65-19.78,6.81-3.18,3.05-10.51,6-15.55,3.05-5.2,6.78-10.35,7.51-17.16.57-5.23,3.89-10.44,7.24-14.82,2.24-2.91.82-5.68,2.74-10.52.44-1.36-.57-.75-1.26.11a2,2,0,0,0,0,1.89,1.93,1.93,0,0,0,1.89,0,9.07,9.07,0,0,0,2-2.66c.09-.17-.87-.9-2.7.64-11.6,5.18-19.77,12.34-28,18.35-8.71,6.33-18.51,9.85-27.45,15.27-1.79,1.09-3.56,2.21-5.39,3.22-3.48,1.93-11.69-1.34-12.28-5.35-.63-4.38-.22-8.91-.27-13.38,7.6-5.51,3.5-13.59,5.82-22.62.44-1.36-.56-.75-1.25.11a1.93,1.93,0,0,0,0,1.89,1.9,1.9,0,0,0,1.89,0,9.07,9.07,0,0,0,2-2.66c.09-.17-.87-.9-2.7.64-2,2.07-3.12,1.75-3.5,2.12-7.44,7.31-15.46,14.15-22,22.21s-17.22,10.43-23.81,18.63-14.52,14.87-21.84,22.19c-8.08-5.53-8.63-13.26-5.45-21.27,1-2.5,3.47-4.29,3.23-7.63-.35-5.08-.37-9.72,4-14.11,2.43-2.42-.69-8,3.19-12,4.41-4.59.66-11.34,3-19.12.44-1.36-.56-.76-1.25.1a1.35,1.35,0,0,0,1.91,1.91,9.16,9.16,0,0,0,2-2.65C875.73,1075.41,874.78,1074.67,872.94,1076.22Z"/><path d="M952.41,147.81c-.53.53-1.26,1.48-1.43,1.39a9.07,9.07,0,0,1-2.66-2,1.9,1.9,0,0,1,0-1.89,1.93,1.93,0,0,1,1.89,0A16.36,16.36,0,0,1,952.41,147.81Z"/></svg>