<svg id="Layer_1" data-name="Layer 1" xmlns="http://www.w3.org/2000/svg" viewBox="0 0 1200 1200"><title>BB_Artboard 40</title><path d="M564.41,108.5c8.06-8.06,15.88-16.33,24.22-24,4.07-3.75,6.47-10,12.87-10.6,6.22-.61,6.84-9.49,13.73-8.79a2.36,2.36,0,0,0,1.85-.65c9.12-13.38,25.17-16.11,37.68-24.26,6.72-4.37,15.34-5.83,20.73-12.5,1.74-2.16,3.87-1.6,5.89-1.5,5.06.24,10,.51,13.37-4.39,6.23-.08,10.7-6.72,17.73-4.42,5.17,1.69,7.39-6,13.4-4.49,4.74,1.21,10,.24,15.1.24,7.8-7.43,17.48-3.72,26.37-4.22,9.35-.52,18.76,0,28.15-.15,5-.06,7.58,6.19,13.41,4.52,4.23-1.21,8.55-.23,11.18,4.12,6.09-1.77,10.72,1.85,15.47,4.47A48.47,48.47,0,0,0,850.88,27c5,.91,9.25,5.29,14,7.77,4.14,2.15,9.1,3.05,12.7,5.8,5.11,3.91,9.32,9,13.91,13.61-.84,7,7.73,8.66,8.43,13.73s6.62,7.58,5.35,13c3.3,2.28,4.1,5.47,3.76,9.3-.38,4.29.05,8,3.64,11.62,2,2,.38,7.09,2,9.78s3.39,3.95.08,6.37c-.9.66-1.39,2.41-1.41,3.66-.12,8.67.16,17.34-.15,26-.16,4.73.94,9.33-2.7,14.14-2.52,3.33.12,10.46-2.32,14a18.57,18.57,0,0,0-3.6,11.64c0,3.52-.38,7-.58,10.57-6.73,3-1.19,10.87-6.06,14.87-4.47,3.67.76,11.82-6.19,14.71-1.5,5.26,2,11.06-2.85,16.26-3,3.21-4,8.33-6,12.59s-5.88,7.94-4.33,13.37c-4.2,5.37-5,13-11.38,16.93-1.89,1.15-2.09,2.21-.18,3a12,12,0,0,0,4,.74,2.56,2.56,0,0,0,1.81-.76c3.79-4.14,8.34-6.87,13.38-9.48,4.69-2.44,10.26-3.58,14-8.65,2.53-3.44,7.86-4.89,12-7,4.76-2.44,9.64-4.63,14.43-7,.61-.3,1.15-1.51,1.53-1.43,6.05,1.38,10.61-4.19,15.46-4.11,6.22.12,9.54-5.73,15.56-5,5,.64,10.09.13,15.14.13,5.78,0,11.92-1.23,17.23.35s9.82,3.86,15.59,4.4,11.89,2.87,16.13,7.81c6.75-.23,9.5,5.5,13.45,9.26,2.65,2.51,5.57,3.6,8.85,4.9,2.61,1,6.06,3.58,6.41,7.89.38,4.72,3.91,7.63,8,8.53,3.38.74,4.49,1.81,5,5.19.65,3.9,5.22,6.35,4.9,10.92,4.7,2.74,2.35,7.84,3.92,11.36s3.76,7.06,5.35,10.79c.77,1.82,3.17,2.5,3.11,5.26-.13,5.51-1.75,11.62,4.22,15.53,0,5.78.71,11.67-.19,17.3s6.5,7.46,4.69,13.45c-2,6.5,3,14.3-3.5,20.37-.45.42,2.94,4,3.18,6.33.52,5,.16,10.09.16,15.14,6.28,5.57,4.24,13,4.22,19.87,0,4.53,5.81,6,4.63,11.24-.93,4.13-.18,8.63-.18,13s-1.07,9,.23,12.92c2.44,7.31-5.15,11.24-4.68,17.78.51,7.19.11,14.43.11,21.65,0,6.5-.13,13,.05,19.5.11,3.89-5.77,4.86-4.33,9,2.2,6.33-6.28,9.36-4.43,15.57,1.58,5.3-3.69,9.15-3.84,13.37-.19,5.4-3,9-4.82,13.34s-3,9.38-6.06,12.55c-3.75,3.88-.75,8.8-3,11.8-5.39,7.12-7.9,15.62-12.25,23.21-1.35,2.35-4.1,4.74-4.07,6.78.06,3.3,4.75,1.45,6.52,3.14,6.81,6.46,13.61,13,19.9,19.91,5.47,6.05,6.66,14.75,12,21-1.2,4.28,3.55,5.87,4.18,9.07.68,3.47-1.29,8.19.41,10.62,6.37,9.11,3,19.13,4.17,28.69.59,4.79-5.45,6.25-4.58,11.24.74,4.21.33,8.65,0,13-.08,1.14-1.83,2.07-2.45,3.28-4.57,8.94-8.6,18.13-13.6,26.89-2,3.52-2.91,7.59-6.31,10.37-4.36,3.56-7.16,8.11-9.47,13.38-1.84,4.21-7.32,6.11-7.69,12.08-.22,3.41-7.57,0-7.87,4.88-.21,3.28-1.92,5-3.8,7.16-4.09,4.61-4.12,9.09.78,10.38,6.05,1.59,9.42,5.72,13.44,9.5,7-.57,9.39,5.63,13.47,9.25,4.31,3.82,9.21,7.52,12.07,12.33,4.42,7.41,10,14.79,11.15,23.39.62,4.62,4.21,7.13,4.65,11.15a40.33,40.33,0,0,1,0,10.81c-1,6,6,9.23,4.64,15.59-1,4.84-.2,10.06-.2,15.12,8.56,7.62,3.74,17.57,4.11,26.37.75,18,.46,36.1.08,54.14-.11,5.52,3,12.21-1.72,16.42-4.87,4.38.89,12.06-5.93,15-.13,7.46-2.88,13.57-9.19,17.86,1.6,5-3.5,7.14-4.89,11a54.85,54.85,0,0,1-30.16,32.43c-7.59,3.34-12.78,9.88-20.72,12.76-6.16,2.23-12.14,5.58-17.95,8.92-1.18.68-2.13,2.14-3.34,2.35-5.34.94-11.65-2.33-15.8,3.75-5.68.22-11.58-.43-17,.91-6,1.49-8-5.45-13.44-4.69a43.57,43.57,0,0,1-13-.07c-2.46-.4-4.49-3-6.92-4.1-11.78-5.6-23.79-10.69-32.4-21.25-3.63-4.45-8.42-8-12.1-12.38-5.76-6.93-15.31-10.87-16.92-21.12-7.28-5.83-9.69-14.63-14.11-22.26-2.34-4-2.17-9.79-7.32-12.2-4.36-2-3.39-7.29-6.07-10.49-3.58-4.28-5.34-3.84-12.15-1.38-5.62,2-9,6.22-13.56,9.26-4.34,2.92-10.39,3.41-14.47,6.56-3.89,3-9.65,2.43-12.27,7.2-5.18-.81-9.75.31-13.36,4.34-7-2.55-11.23,4.65-17.41,5-2.73,4.69-7.8,2.39-11.36,3.93s-8.07,2.92-10.55,5.52c-3.21,3.37-8.33,1.65-10.92,5.74-.77,1.21-3.78,1.35-5.77,1.37-11.55.12-23.15-.57-34.64.26-8.89.65-16.41-1.95-23.27-6.7-2.64-1.83-5.18-1.57-7.77-2.31-4.47-1.27-9.34-2.59-12.84-5.39-4.33-3.47-8.08-7.53-13.68-9-.46-7.24-6.52-10.52-10.77-15-5.44-5.77-11.15-11.3-16.82-16.87-2.63-2.58-5.82-1.42-7.76,2.53-6.48,13.2-13.2,26.29-19.43,39.61-2.38,5.1-4.36,10.67-9.37,13.3-5.88,3.09-4.71,10-9,13.76-3.82,3.3-7.2,7.09-10.77,10.66-2.55,2.56-5,5.22-7.69,7.63s-5.13,5.69-8.15,6.27c-4.15.81-6.43,3.49-8.21,6.14-2.42,3.6-6.49,2-9.23,4.34-2.47,2.12-6.37,2.64-8.69,4.86-3.13,3-8.38,1.67-10.61,6-2.82,5.46-10.51,3.91-13.5,9.2-6.05-1.6-10.53,2.2-15.51,4.39-1.21.53-3.11-.42-4.26.16-5.37,2.75-10.7,5.88-16.11,8.19-4.89,2.09-11.21.82-16.9,1-4.13,6.08-11.45,1.41-15.53,4.1-5.24,3.45-10.3,3.31-15.77,4.14-5.24.79-9.22,5.48-15.61,4.37s-12.95-.24-19.45-.24H358.77c-5.77,0-11.74.9-17.27-.26-5.19-1.1-9.39-5.38-15.62-4.25-4.89.88-10.08.28-15.13.1a7.66,7.66,0,0,1-3.64-1.59c-7.24-5-16.92-6-22.45-13.76-1.49-2.09-3.61-1.77-5.71-2s-4.55-.07-5.94-1.21c-4.4-3.64-8.37-7.79-12.51-11.74-6.32.81-8.16-5-11.76-8.13-4.37-3.75-8.05-8.3-12.37-12.12s-4-10.39-9.11-13.63c-4.35-2.75-2.66-9.4-7.38-12.07.94-5.84-7.63-9-4.47-15.6.32-.67-1.31-2.21-1.95-3.4-4.1-7.67-4.34-15,3.27-20.52,3.44-2.48,1.91-6.82,4.56-9,3.08-2.5,1.08-3.64.14-6.34-2.2-6.29-8.07-11.54-5.94-19.26,1.43-5.2-6.24-7.45-4.47-13.41a10.67,10.67,0,0,0-3.49-11.57c-1.49-1.31-.62-5.41-.63-8.24,0-15.88-.08-31.77,0-47.65,0-3.46.67-6.92,1-10.38,6.65-3,0-11.49,6.11-14.82,2.43-1.33,1.33-3.84,1.45-5.87.19-2.82.6-6.13-3.51-6.3a7.63,7.63,0,0,1-5.47-2.58c-3.56-3.55-6.74-9.06-10.92-10-4.94-1.11-7.26-4.15-10.18-6.94-3.55-3.4-7.55-5.62-11.85-8-5.47-3-9.61-8.61-13.93-13.45-3.63-4.06-9.81-6.5-9.25-13.47-11.71-9.4-17.19-22.78-23-36-4.07-1.67-1.57-6.78-4.62-8.9-2.7-1.87-1.63-5.84-3.23-7.2-3.93-3.36-4-7.31-3.68-11.59.34-3.85-.6-6.89-3.76-9.32-3.5-2.69-6.68-5.64-.7-9.16-5.15-3.19-4.29-8.39-4.44-13.26-6.82-3-1.85-10.83-6.14-14.77-4.56-4.18,0-10.61-2.65-14-5-6.43-2.71-13.48-4.33-20s-5-12.6-4.2-20c.79-7.14.17-14.43.17-21.65V633.39c0-7.22-.7-14.53.23-21.63.68-5.22,5.63-9.26,4.3-15.61-1-4.84-.2-10.07-.2-15.12V563.7c0-5.05,1.09-10.42-.25-15.09-2.08-7.3,4.71-11.36,5-17.7.1-2.18,4.56-3.43,3.93-6.94-2.06-11.28,7.23-18.72,9.68-28.5.41-1.62,1.8-1.18,3,.51.67.91,2.32,2.15,2.94,1.88,2.52-1.11,1.58-3.65,1.61-5.69,0-.52-1-1-1.34-1.59-.71-1.43-4-1.74-1.35-4.69,2.17-2.4,2.43-7,4.87-8.59,6.31-4.22,6.57-12.14,11.95-17,6.25-5.6,15.12-7.57,19.83-15.13s14.6-8.13,19.78-15.21c1.37-1.86,5-.82,7.36-3.06,3.4-3.26,3.17-4,.58-7.88-4.18-6.31-12.22-6.51-16.85-12.06s-10.3-10.13-15.14-15.47c-3.18-3.51-7.57-5.78-8.39-11.78-.48-3.46-6.93-5.94-7.8-9.56-.94-3.92-3-6.13-5.3-8.72-1.37-1.55-3.44-3.18-3.62-4.94-.42-4.22.48-8.67-4-11.37,1.28-4.92-3.75-7-5-11-1.59-5.16-6.27-9.55-4.11-15.56,2.07-5.78-6.43-7.4-4.63-13.46,1.16-3.92,0-8.51-.07-12.8-6.84-5.56-3.38-13.23-3.89-20-.28-3.72-.52-6.9-3.68-9.43-.8-.64-1.23-3.33-.69-3.82,5.6-5,4.13-11.6,4.21-17.81.09-6.5-.11-13,.07-19.49.11-4.19-.74-9.44,1.41-12.27,2.28-3,1.64-7,4.28-9.13,3-2.49,2.24-3.72,0-6.39-1.51-1.8-2.25-6-1.18-7.85,2.73-4.91,4.87-9.74,4.67-15.43,6.65-3,2.7-10.12,5.73-15,3.82-6.21,3.63-14.8,11-19.25.32-.19,0-1.38,0-2.1.49-4.9,5.6-6.22,7.65-9.83,1.64-2.9,1.2-6.82,4.63-8.94,1.74-1.07,2.73-3.2,5.37-2.84s4.27-1.33,3.91-3.68c-.87-5.69,1.68-9.5,5.79-12.84,1.67-1.36,3.18-4.43,4.6-4.33,7.66.53,9.19-8.29,15.68-9.53,7.48-1.44,9.82-9.84,16.28-12.94,5.43-2.6,12-3.3,15.94-8.45,3-3.91,6.82-3.95,11.13-4.8,7.16-1.4,12.77-7.21,20.06-8.92,2.91-5.9,9.91-1.65,13-4.82a11.16,11.16,0,0,1,11.69-3.08c6,1.71,7.8-5.87,13.47-4.73,4.82,1,10.1,1.06,13.33-4.17,8.2,2.91,13.69-7,22.07-4.47,5.64,1.7,8.66-6.64,15.59-4.52,5.29,1.61,11.46.32,17.23.32,7.94-6.61,17.43-4,26.37-4.27,8.65-.29,17.42.71,26-.32,6.31-.76,9.14,6,15.62,4.89,5.14-.91,11.29-2.19,15.83,3.6,1.12,1.44,5.46.46,8.31.41,5-.08,9.38-.11,13.67,4,2.34,2.27,7.73-.66,11.64,3.17,3.69,3.62,11.38-.33,14.79,5.82,5.6-.06,9.15,7.2,15.54,4.33,11.37,8.58,26.66,10.63,36.35,22.17,4.63,5.51,10.13,10.28,15.24,15.39,2.55,2.55,6.38,4.71,7.32,7.76,1.08,3.51,4.23,6.32,4.48,8.87C558,102.78,561.37,104.94,564.41,108.5Zm47.94,251.35c.65,0,1.54.25,1.87-.07a1.91,1.91,0,0,0,0-1.83c-1-1.42-2.24-3.21-3.77-.6-.2.35,1.22,1.64,3.82,2.5-.11,3,1.33,4.44,136.52-273,8.44,8.44,14.59,14.52,20.65,20.69,1.41,1.45,3.87,2.51,3.16,5.15-2,7.4,5.88,12,4.77,19.9-1.59,11.31-.4,23-.41,34.55,0,2.87,0,5.75-.06,8.62-7.17,2.81-1.68,11.1-6.19,14.67-5,4,.78,11.9-6,14.93-.44.2-.71,1.18-.73,1.81-.07,2.88-.45,5.84.07,8.63.79,4.33-5.37,5.94-4.19,8.94,2.68,6.84-5.69,9.72-4.58,15.61-5.33,3.77-3.87,12.13-10.4,15.23a4.61,4.61,0,0,0-2.58,5.33c1.19,5-1.66,8.17-5.13,10.84-3.23,2.47-3.1,5.8-3.79,9.32a31.66,31.66,0,0,1-5.51,12.75c-3.9,5.11-8.27,10.76-13.78,13.51-6.31,3.16-3.36,12-11.2,13.86-6.13,1.46-5.63,10.15-11.14,13.73-4.73,3.08-8.31,7.92-12.39,12-7.86-.4-9.57,8-15.09,10.6-9.65,4.51-18,12.38-30,11.22-4.4-.43-8.24-.44-11.37-4.33-.85-1-4.13-.16-6.29-.16.51,1.24.73,2.73,1.58,3.65,2.92,3.18,5.67,8.05,9.21,8.8,6,1.26,13.61,2.95,18.48-1.14,5.2-4.36,13.27,0,16.72-7,7.56,2.9,12.37-5.62,19.86-4.56,6.26.9,13.55,1.58,19-.8s9.39-8.7,14-13.29,9-9.41,13.82-13.69,4.34-12,10.62-15.14c3-1.49,1.36-5.84,3.21-7.16,3.9-2.76,2.23-8.44,6-10.54,5.53-3.06,5.9-9.2,9-13.7,2.59-3.79,5.85-8.6,5.45-12.62-.63-6.36,6.38-9.54,4.76-15.55-1.15-4.27,3.68-5.64,4.33-9,.91-4.7-2.2-10,2.36-14.18,4.28-3.93-.68-11.8,6.13-14.75.19-4.87-.76-10.13,4.52-13.27V195.11c0-5.77-.31-11.56.1-17.29.33-4.69,5.4-7.63,4.47-13.39a74.68,74.68,0,0,1-.1-19.42c.75-7.28-3.17-13.43-3.9-19.91-.8-7.1-2.49-13.73-5.9-19.29-3.52-5.76-5.61-12.92-11.94-16.72a14.46,14.46,0,0,0-5.54-2.19c-3.47-.35-7-.1-146.22,277.28C618.73,361.18,617.29,359.74,612.35,359.85ZM566.61,439.8c0-.65.25-1.54-.07-1.87a1.91,1.91,0,0,0-1.83,0c-1.42,1-3.2,2.24-.6,3.77.35.2,1.65-1.22,5-7.8a16.06,16.06,0,0,0-2.46,2.09,1.84,1.84,0,0,0,0,1.82,1.82,1.82,0,0,0,1.82,0,8.81,8.81,0,0,0,2-2.55C570.56,435.09,569.63,434.39,566.61,439.8ZM597,481.2q-4.5-.17-4.33,4.34c-3-.11-4.45,1.33-4.34,6.27,0-.65.25-1.54-.07-1.87a1.91,1.91,0,0,0-1.83,0c-1.42,1-3.2,2.24-.6,3.77.35.2,1.65-1.22,2.5-3.82q4.5.17,4.34-4.33,4.5.16,4.33-4.34c3,.12,4.44-1.33,23.61-30.56-5.94,6.09-11.78,12.29-17.88,18.21-1.94,1.88-1.17,3.88-1.38,5.88-.08.71-.29,1.71.06,2.06s1.84.34,2,0c2.24-4.23,8.17-2.95,10.22-6.09,3.76-5.77,10.23-7.21,15.36-9.92,4.92-2.59,9.83-7.37,17-6,2,.39,5-3.86,7.52-6-1-1-1.47-1.9-2-1.91-6.37-.2-12.76-.09-19.13-.41-5.39-.27-4.61,3.66-5.43,6.87-.49,1.94-1.85,2-3,.67-.91-1.09-2-2-22.62,22.85C598.28,476.76,596.84,478.21,597,481.2Zm-390.07,26c-3-.11-4.44,1.33-4.37,6.28a3.86,3.86,0,0,0,0-1.86,25.77,25.77,0,0,0-6,0c-.88.17-1.58,1.54-2.2,2.47a3,3,0,0,0,1.37,1.33c2.65.83,5.18.79,6.86-3.92q4.5.16,4.33-4.33c3,.11,4.45-1.33,4.33-4.33,2,0,4,.36,5.85-.11a3.44,3.44,0,0,0,2.82-4.23c3,.11,4.45-1.33,17.79-12.7-7.14-1.83-10,2.85-13.4,6.26a2,2,0,0,0,0,2c.36.36,1.36.14,2.07.06,2-.22,4.21.78,5.91-1.44,1.23-1.61,2.61-3.22,5.24-3,1.79.17,4.5,0,2.82-3.09-.45-.82-2.44-.79-16.12,7.52q-4.5-.16-4.34,4.33c-1.95,0-4-.36-5.84.1a3.46,3.46,0,0,0-2.83,4.24C208.22,502.77,206.77,504.21,206.88,507.21Zm-26,21.67q-4.5-.17-4.34,4.33c-3-.11-4.44,1.34-4.33,6.27,0-.64.25-1.54-.07-1.86a1.88,1.88,0,0,0-1.83,0c-1.43,1-3.21,2.24-.6,3.76.35.21,1.64-1.21,2.5-3.81q4.5.16,4.33-4.34c3,.11,4.45-1.33,6.86-8.31a15.16,15.16,0,0,0-2.47,2.09,1.3,1.3,0,0,0,1.83,1.84,8.68,8.68,0,0,0,2-2.56C184.82,526.11,183.9,525.4,180.88,528.88Zm760.87,567.77c.64,0,1.54.25,1.86-.07a1.88,1.88,0,0,0,0-1.83c-1-1.43-2.24-3.21-3.77-.6-.2.35,1.22,1.64,3.82,2.5q-.16,4.5,4.33,4.33c1.7,6.85,6.28,9.37,13,8.67-.12,3,1.33,4.44,8.31,6.86a15.68,15.68,0,0,0-2.09-2.47,1.84,1.84,0,0,0-1.82,0,1.87,1.87,0,0,0,0,1.82,8.68,8.68,0,0,0,2.56,2c.16.09.87-.83-2.61-3.86.11-3-1.34-4.44-4.33-4.33-1.7-6.84-6.28-9.36-13-8.67C948.12,1098,946.68,1096.54,941.75,1096.65ZM553.61,459.53a3.44,3.44,0,0,0,4.23-2.82c.46-1.84.1-3.89,2.62-9.82A15.52,15.52,0,0,0,558,449a1.29,1.29,0,0,0,1.83,1.83,8.81,8.81,0,0,0,2-2.55c.09-.16-.83-.87-3.86,2.61a3.45,3.45,0,0,0-4.23,2.82c-.46,1.84-.1,3.89-.1,7.78,0-.65.25-1.54-.07-1.87a1.91,1.91,0,0,0-1.83,0c-1.42,1-3.21,2.24-.6,3.77C551.46,463.55,552.75,462.13,553.61,459.53ZM170.28,827.93c.64,0,1.54.25,1.86-.07a1.91,1.91,0,0,0,0-1.83c-1-1.42-2.24-3.2-3.77-.59-.2.34,1.22,1.64,3.82,2.49,0,2-.36,4,.1,5.84a3.44,3.44,0,0,0,4.23,2.83q-.16,4.5,4.34,4.34c.49,9.28,3.71,12.5,13,13-.11,3,1.33,4.44,51.79,28.39-.95-.8-1.79-2-2.88-2.32-7.1-1.91-13.39-5.85-19.79-9.08s-13.94-5.9-18.56-12.52c-.7-1-4.1-.26-6.22-.06-.66.06.61,7.75,1.46,7.83,8,.71,12.17,7.11,16.11,12.38,3.79,5.06,9.46,5.41,13.86,8.6,5.19,3.75,9.39,2.12,14.5-3.31,2-2.11,2.12,1.31-45.94-25.58q.16-4.5-4.33-4.33a23.47,23.47,0,0,0-13-13q.17-4.5-4.34-4.34c0-2,.36-4-.1-5.84S174.56,827.46,170.28,827.93ZM328.64,693.58c-4.35.18-4.8.81-4.74,6.64,0,2.89-2.49.56,0,2a2.16,2.16,0,0,0,1.95,0c2-1.78,3.91-3.68,5.78-5.6.3-.3.46-1.28.33-1.35-1.07-.64-2.22-1.14-8.09,7-3-.11-4.44,1.34-15.52,13.44-2.92,7.41-14.44,7.27-19.69,15.14a4.72,4.72,0,0,1-3.51,1.67c-3.89-.06-4.48,2.17-4.7,5.34-.16,2.24-1.49,3.76-4.23,3.47-2.13-.23-5.27-1-6.29.11-5,5.24-9.91,9.91-17.94,9-.47-.06-1.72,2.22-1.69,3.38.07,2.48-.9,4.39-3.08,4.65-3.53.43-7.17-.05-10.73.21a4.75,4.75,0,0,0-3.35,2c-.61,1.1-.13,2.77-.3,4.16a8.13,8.13,0,0,0,2.79,7.5c4,3.75,5.73,4.84,8.88,2.63,5-3.5,10.77-5.31,16-8.08,3.5-1.87,7.54-3.06,10.62-5.55,3.87-3.14,7.17-7,10.72-10.54l9.12-9.13c7.32,1.42,5.91-5.89,8.86-8.84,6.07-6.09,12.2-12.13,18.19-18.3a7.18,7.18,0,0,0,1.48-3.65,17,17,0,0,0,0-4.28c0-.06-1.63-.32-2,0-2.61,2.45-5.09,5,2.11,0C322.57,706.69,324,705.24,328.64,693.58ZM592.26,856.46a15.6,15.6,0,0,0-2.09-2.47,1.87,1.87,0,0,0-1.82,0,1.84,1.84,0,0,0,0,1.82,9,9,0,0,0,2.55,2c.16.08.87-.84-15.61-24.81a104.11,104.11,0,0,1-.07,10.75c-.57,5.37,4,7.13,6.73,10.09.66.72,2.81-.15,4.18.17,2.2.5,2.37,0,2.26-2.22a131.78,131.78,0,0,1,0-17.21c.52-6.49-7.36-10.5-4.72-17.63.42-1.13-2-2.07-2.82-1-2.11,2.64-6,4.07-5.6,8.46C575.47,827.23,575.28,830.11,592.26,856.46ZM981.49,281.84c-4.33,0-8.74-.5-13,.19-2.46.4-4.78,4.12-6.87,3.88-6.92-.81-12.48,3.1-16.85,6.38-5.34,4-13.33-.13-16.79,6.88-7-1-8.24,8.25-13.74,8.41-7.31.21-8.08,10.53-15.93,9.08-.83-.15-2.08,1.77-3.09,2.77-4.1,4.07-8.2,8.14-12.21,12.3a2.06,2.06,0,0,0,0,2c.36.36,1.37.08,2.09.08,1.44,0,3.69.6,4.21-.1,6.1-8.21,16.24-9.92,24-15.31,3.37-2.33,7.41-2.91,10.85-5.62,2.68-2.12,9.08.85,12.36-1,3.76-2.15,6.81-4.19,11.42-4.07,11.54.33,23.16.83,34.63-.17,6.31-.55,9.6,5.78,15.57,4.68,2-.36,3.85.73,5.83,1.51,6.21,2.42,11.08,8.44,18.75,7.22.92-.15,3.1,1.54,3.05,2.24-.6,7.25,6.7,8.77,9.47,13.48,1.12,1.91,2.2,2,3-.1.49-1.25,1.13-3.24.54-4-5.11-6.42-8-14.16-11.2-21.41a40.39,40.39,0,0,0-12.85-16.06c-1.71-1.3-4.9-1.37-7.22-3.34-9.6-8.13-14.87-9.95-124.69,44a3.77,3.77,0,0,0,0-1.86,26.41,26.41,0,0,0-6,0c-.88.17-1.58,1.54-2.19,2.47-.08.11.8,1.16,1.36,1.34C878.79,338.59,881.32,338.55,981.49,281.84Zm-791.95-117c1.24-.51,3.37-.82,3.54-1.57.62-2.71.42-5.59.83-8.36.73-4.88,7.43-1.39,8.07-4.89,1.88-10.34,12-13.65,17-21.18,4.49-6.81,13.43-7.26,18.35-13.6,1.86-2.39,5.77-3.21,8.75-4.73,4.17-2.12,8.15-4.91,12.57-6.17,4.61-1.31,7.05-4.22,8.84-8,.45-1-.12-2.92-.92-3.8a5,5,0,0,0-3.69-1.23c-1.24.09-2.36,1.2-3.6,1.68-9.35,3.56-16.83,11.78-27.84,11.21-3.63,4-8.64,3.5-13.22,4.82-4.26,1.22-7.36,6.49-11,10-2.06,2-3.83,5.44-6.17,5.88-8.63,1.64-12,9.54-18.12,13.94-6.57,4.69-7.25,13.33-13.49,18.47-3.22,2.66-5.87,8.44-5.47,12.48.58,5.84-5.35,8.34-4.75,13.4.68,5.81-1.17,10.61-4.06,15.7-1.88,3.31.61,9.56-1.6,12.13-3.41,4-2.87,7.77-3,11.89-.14,4.33-.48,8.72.08,13,.72,5.41-1.85,10.93,2.38,16.38,4.07,5.26,1.22,12.38,1.9,18.64.06.57,1,1.57,1.34,1.49,1-.31,2.81-1,2.81-1.56.16-15.88.58-31.78-.12-47.63-.25-5.66,6.16-7.56,5.24-13.25-.32-2,3.53-1.25,5.45-1.85,2.19-.7,3-2.86,2.53-5.12s-1.57-3.93-4.31-3.44c.79-6.84,5.11-14,9.51-17.42a88.87,88.87,0,0,0,12-11.1C190.43,169.8,189.54,166.91,189.54,164.82Zm478.53-56c5.61-5.61,11.26-11.18,16.81-16.86,1.41-1.44,4.59-3.45,2.82-4.87-1.33-1.07-5.05-1.1-7.88,1a44.47,44.47,0,0,1-14.28,7.15c-5.58,1.65-6.65,9.83-13.68,8.82-4.16,3.91-8.3,7.82-12.47,11.72-.5.47-1.07,1.2-1.63,1.23-8.4.4-10.35,10.11-16.6,12.14-7.46,2.42-11.19,8.22-16.4,12.69-3.28,2.82-5.83,6.55-9.31,9-3.88,2.74-2,7.91-5.94,10.72-6.4,4.59-11,10.68-10.8,19.24-6.8,3-1,10.62-5.91,15-4.67,4.18-1.34,10.87-1.73,16.41A205.52,205.52,0,0,0,571,234c.1,2.67-1.48,3.94-3,5.24-2.09,1.75-2.06,4.6-1.1,5.77,2.29,2.8,4.5,5.07,4.17,9.22-.45,5.73.86,11.75-.37,17.25-1.46,6.53,3.56,10.29,4.57,15.58.77,4-1.88,8.84,2.18,12.05s0,9,3.17,11.58c3.72,3,2.43,7.85,5.82,10.81,1.8,1.57,1.64,5.26,3.33,7.11a11.09,11.09,0,0,1,3.09,7.51,1.67,1.67,0,0,0,2.88,1.14c.48-.47,1.16-1.1,1.16-1.65,0-2.84.88-6.42-.49-8.36-2.11-3-4.12-5.32-3.88-9.33.37-6.48.1-13,.1-19.48V276.75c0-6.5.67-13.08-.18-19.46-1-7.41,3.65-13.39,4.07-19.9.5-7.78,3.09-14.73,4.32-22.07.76-4.53,5.25-7.25,4.54-11.07-1.06-5.75,2.88-9.13,4.74-13.33,5.28-11.88,10.16-24.31,21.31-32.23,5-3.54,3.81-10.54,8.87-13.71-.92-8.07,10.26-9.58,9.65-17.77-.11-1.4,2.83-3,4.36-4.57,4.59-4.59,9.18-9.18,36.19-39.82A16.14,16.14,0,0,0,688,84.91a1.87,1.87,0,0,0,0,1.82,1.85,1.85,0,0,0,1.81,0,8.68,8.68,0,0,0,2-2.56C691.91,84,691,83.32,668.07,108.86ZM394.29,446.53c-8.47,2.24-19.83-4.47-29.08,4.2-6.25,1-13.43-2.38-18.7,1.75-6.06,4.74-12.34,1.9-18.46,2.62-5.48.64-10.8-.3-15.81,4.1-2.45,2.15-7.5.44-11.59,3.34-3.43,2.43-9.56,1-14.49,1.32-.72,0-1.55-.22-2.14.06-1.22.56-2.79,1.13-3.36,2.17-1.07,2-.13,2.32,2.07,2.21,5.76-.29,11.55-.1,17.33-.1h17.33c5.77,0,11.68.76,17.29-.2,6.28-1.07,10.42,3.14,15.62,4.31,4.82,1.07,10.06.23,15.12.23,4.33,0,8.8.66,13-.17,5.64-1.12,7.43,6.2,13.46,4.71,8.15-2,15.49.28,20.51,7.87.5.75,3-.07,3.94.67,6.43,5.09,14,8.35,21.35,11.29,9.19,3.69,14.07,11.48,21,17.22.55.46,1.1,1.52,1.52,1.45,5.26-.82,7.46,3.4,10.46,6.22,3.15,3,6.14,6.11,9.21,9.17-1.79,5,4.78,6.69,4.42,11.18-.27,3.48,2.89,4.78,4.84,6.59,2.83,2.64,4.51,5.41,3.81,9.31-.61,3.38,3.25,5,3.48,7.14.59,5.62,5.82,9,5.62,15.28-.15,4.95,5.93,9.36,4,15.55-.1.33,1.1,1.53,1.38,1.43,1-.36,2.75-1.09,2.76-1.7.15-13.71,0-27.44.18-41.15,0-3.91-5.11-4.72-4.52-9.06s.12-8.65.12-13-.69-8.81.16-13c1.41-6.86-7.16-10.62-4.81-17.84.46-1.43-3-4.39-5-6.31-2.16-2.07-2.64-4.55-3.59-7.23-1.77-5-9.37-6.75-8.69-13.75.05-.46-1-1.47-1.45-1.46-6.76.2-9-8-13.64-8.57-5.33-.64-7.57-7-13.15-5.28-3-5.64-10-1.91-13-4.87-4.45-4.39-9.13-3.33-13.9-3.34-5.05,0-7.53-5.75-13.42-4.68-6.29,1.15-13,.26-134.89,23.88a3.77,3.77,0,0,0,0-1.86,25.86,25.86,0,0,0-6,0c-.88.16-1.58,1.54-2.19,2.47-.08.11.79,1.16,1.36,1.33C276.35,473,278.88,472.91,394.29,446.53ZM732.13,741.25c-4.32,0-8.65-.12-13,0s-9.49-.9-12.34,1.22c-4.43,3.28-10.87,3.27-13.81,8.8-1.51,2.83-4.35,2.9-7.37,3.08-4.83.29-9.76-1.54-14.53,1.4-4.52,2.8-9.46,6.53-14.33,6.71-6.54.25-10.63,7.3-17.71,5-1.74-.57-2.88,1.92-3.26,4.36a9.74,9.74,0,0,1-8.24,8.29c-2.39.43-4.46,1.09-4.51,3.27-.23,10.81-.11,21.62-.11,32.43,6.26,6.38,3.95,14.44,4.37,22a2.52,2.52,0,0,0,.83,1.78c4.67,2.83,4.31,7.71,3.24,11.49-1.71,6,6.16,7.82,4.64,13.43-1.59,5.84,6.38,9.32,4.26,15.48s5.48,9.55,4.41,15.51c-.36,2,.27,3.81,1.53,5.84a127.85,127.85,0,0,1,9.22,17.77c2.89,6.88,3.16,15,10.7,19.45.64.37,0,2.73.17,4.16.17,2-.58,4.06,1.36,5.95,3.43,3.34,6.53,6.52,8.18,11.75,1.5,4.74,8.37,7.29,8.69,13.65,5.9,7.09,13.48,11.32,22.1,14.52,3.73,1.38,6.63,4.12,11.27,4.32a13.72,13.72,0,0,0,12.68-6.11c3.25-4.43,7.69-2.43,11.75-2.6,2.11,4.39,7.45,3.26,10.44,6.12,1.55,1.49,3.65,2.82,4.38,4.66,1.15,2.93-.75,5.16-2.89,7.38-2.76,2.86-1.36,6.73-.87,10.08.28,1.92,1.93,2.08,2.92.7,1.82-2.54,5.3-2.15,7.15-3.43,6.78-4.69,11.11-12.67,19.85-14.9C795.56,982.55,807.84,970.37,820,958c1.3-1.32,1.16-4,2.45-5.38,5.3-5.5,7.85-13.11,13.15-18.22,3.82-3.7,4-8.61,7.08-12.48s.29-11.09,5.7-14.81c.37-7.54-1.91-15.61,4.33-22,0-5.76-.36-11.56.1-17.29.5-6.17-2.29-12.8,2.29-18.47,4.12-5.09,1.76-11.06,1.71-16.49,0-6.72,3.13-14.44-3.88-19.91q-.12-10.77-.22-21.53c-7.37-2.83-2.3-10.46-5.8-14.92-4.58-5.83-7-13-10.26-19.55a46.47,46.47,0,0,0-9.71-13.18,9.35,9.35,0,0,0-5.4-2.44c-5-.33-10.35-1.11-15.06.13-6.58,1.75-10.21-4.91-15.55-4.41-12.39,1.16-25.56-4.12-37.13,4.17ZM328.24,959.12c0,5,1.09,10.42-.27,15.08-2,6.7,5.6,10.08,4.43,15.55-1.66,7.81,4.32,12.79,5.93,19.32.44,1.8,3.75,2.58,2.88,5.25-2,6.2,4.55,9.62,4.67,15.52s4.84,10.92,7.27,16.36c3.25,7.28,8.38,13.8,9.76,21.91,5.32,3.78,3.86,12.17,10.43,15.18,6.38,2.92,6,10.68,10.66,15.08,9.4,9,18.34,18.38,27.72,27.36,1.14,1.09,5.21,1.36,5.52.76,2.64-5.08,9.08-3,12.4-7.39,4.31-5.69,10-10.34,15.11-15.44s9.68-10.93,15.44-15.11c6.12-4.43,5.87-13,12.15-16.68,3.66-2.19,1.92-7,4.64-8.85,4-2.69,1.9-8,5.89-10.78,2.65-1.82,5.16-4.15,6-8.26.92-4.41,4.15-8.32,6.32-12.47s6.12-8.41,5.94-12.48c-.24-5.66,3.43-8.9,4.92-13.33,1.72-5.13,6-9.44,4.26-15.58-.36-1.29-.46-3.6.25-4.09,4.24-2.91,4.68-7.09,3.93-11.39-.84-4.84,3.78-7.66,4.11-11.24a151.18,151.18,0,0,0,0-30.23c-.74-6.61-5.73-12.48-4.27-19.92.25-1.3-2.13-4-3.82-4.66-11.33-4.21-18.46-17.13-32.48-15.65-2.82-3.77-6.58-4.9-11.19-4.39-3.5.38-6.69.27-9.7-2.86-3.22-3.35-8.16-1.1-12.31-1.33-5.75-.33-11.86-1.24-17.22.25-5.17,1.43-9.58,5.24-15.62,4-7.46-1.47-12.74,4-18.84,6.66-3.12,1.36-4.15,6.31-8.22,6.18-4.54-.14-6.15,6.38-11.19,4.45-2.36,2.72-4.89,5.12-8.93,4.55-2.65,4.41-7.94,2.66-11.07,4.49-6.51,3.8-17,3.94-17.35,15.12,0,1.06-1.8,2.2-2.95,3-4.48,3.26-5.83,7.6-5.33,13C328.55,950.44,328.24,954.8,328.24,959.12Zm585-405.66a74.19,74.19,0,0,1,.63-9.82c.37-2,1.73-1.89,3-.48s2.5,3.09,5.18,3.18c7.67.26,7.77.6,15.42,8.81,1.87,2,3.47,4.38,7,4.18,2.29-.14,3.44,1.44,3.66,4.07.36,4.13-2.2,9.15,1.45,12.25,4.22,3.59,2.05,7.93,3,11.86A2.77,2.77,0,0,0,954,589a1.64,1.64,0,0,0,1.47-.48c3.06-3.86-1.4-10.17,4.49-13.43,1.1-.6.89-3.86,1-5.91.14-3.6-1.45-8.37.3-10.61,6.52-8.35,3.19-17.67,4.06-26.54.34-3.48-.76-8.27,1.12-10.2,3.77-3.88,1.93-5.59-.92-7.92,2.12-2.64,4.57-4.74,4.34-9-.27-5.05.07-9.91-4.53-13.33,0-7.22-1.19-14.69.31-21.57,1.73-7.9-6.63-12.52-4.66-19.91,1.76-6.64-2-12.09-4.41-17.63-4.35-9.76-9.66-16.33-17.51-23a7.17,7.17,0,0,0-3.52-1.87,85.81,85.81,0,0,0-8.64-.08c-4.91,0-7.66,6.48-13.37,4.38-2.53-.93-3.7,1.51-5.28,2.84-4.71,4-7.8,10-15,10.9-1.69.21-3.76,2.6-4.48,4.45-1.77,4.59-3.47,9.07-7.78,11.92-4.93,3.25-5.83,9.42-9.41,13.29-4.18,4.54-6.57,8.6-6.09,15,.66,8.6,0,17.3.21,25.95.1,5,.61,10.05-4.38,13.35.74,5.16-1.14,9.13-4,13.55-2.43,3.75,2.15,10.21-2.32,14-4.79,4.1.72,11.9-6,14.88-.56,5.48-2.47,11.3,1.86,16,2.35,2.54.25,3.24-.81,4.69-2.77,3.81-2.9,8.08-.17,11.59,1.88,2.42,3.24,4.46,2.83,7.55-.67,5.1.74,9.2,4,13.59,2.06,2.79-.6,8,3.55,11.54,2.29,1.93,1.8,6.16,4.59,8.89s-1.26,8.54,3.22,11.54c2.09,1.4,1.4,3.77,2.1,5.62,2,5.09,9.48,6.74,8.67,13.75,0,.45,1,1,1.46,1.52,2,2,4,4.11,6.12,6.12,5.07,4.93,12.09,4.19,16.36-1.31,2.53-3.26,3.25-7.32,5.61-10.8s-.18-9.6,4.85-13.16c1-.73-.15-4.17.2-6.28,1.35-8.07-3.81-17.31,4.28-24.17q-.09-19.44-.2-38.86C911.21,565.94,913.92,559.66,913.26,553.46ZM180.88,690.88c0,5.77.32,11.56-.11,17.3-.32,4.12,1.71,6.47,4.18,9.19,1.39,1.53-1.24,6.36,3.11,5.52,2.24-.43,4.13-3.72,5.71-6,.67-1,.3-2.84.07-4.24-.84-5.23,2.62-9,4-13.46,3.61-11.54,14.07-20.29,13.42-33.43,0-.52.74-1.18,1.27-1.6a30.38,30.38,0,0,0,9.24-13.49c1.88-5,4.56-9.64,6.73-14.51.94-2.09,1.94-3.5,4.57-3.26,3.56.33,6.72.12,9.7-2.93,1.52-1.56,5.79-2.12,7.86-1.13,5.43,2.6,11.6,4.14,15.69,9.25,1.6,2,1.94,4.75.87,5.77-5.68,5.44-5.27,14.19-10.66,19.4-6.15,5.95-8.25,13.9-12.22,20.94s-6.44,14.76-11.3,21.33c-1.13,1.53,0,4.33,2.14,5.33a5.2,5.2,0,0,0,4.2,0c4.13-2.47,6.13-7,11.49-8.91A43.78,43.78,0,0,0,271.08,688c5.16-6.5,12.24-11.1,15.6-19.52,2-4.92,7.59-8.52,11.9-12.33s3.89-10.64,9.15-13.51c4.29-2.34,2.14-7.87,6-10.62,3.41-2.44,1.57-6.78,1.33-10.08-.33-4.41,2.28-6.53,4.88-8.86,3-2.73,7.75-2.22,10.7-5.92,1.14-1.41,7-1.44,8.07-.06,3.66,4.82,10.51,3.68,13.95,8.79,2.79,4.15,1,8.28,1.54,12.36.3,2.12-.19,4.36.18,6.46.13.75,1.71,1.38,2.73,1.76.28.1,1.46-1,1.4-1.44-.46-3.16,1.32-5,3-7.49,3.88-5.66-1.73-14.33,5.66-19.34.67-.45,0-2.75.11-4.19.52-7.51-2.18-15.54,4.16-22.14,1.08-1.12,1.08-5.08,0-6.19-5.74-5.92-4-13.1-4.16-20-.1-5.05,1.62-10.94-.44-14.92-2.43-4.66-3.34-10.49-8-14.12-1.26-1-.61-5-1.72-5.5-7.43-3-15.15-9.28-23.1-3.93a17,17,0,0,1-11.83,2.83c-4.2-.33-6.18,3-9.16,4.11-3.82,1.39-8.54.16-12.83.5-1.1.09-1.9,2.21-3.12,2.81-4.19,2-8.59,3.66-12.75,5.76-9.54,4.8-18.86,10-28.66,14.32-4.23,1.86-6.06,7.11-12,7.94-3.41.47-6.81,5.24-9.08,8.8-3,4.69-9.19,2.72-12.31,7.42-3.77,5.69-11.16,8.81-12.05,16.68-5.51,3.63-7.95,9.63-10.48,15.13s-4.6,11.4-8.12,16,.77,11.93-5.8,15.05c-.4.19-.55,1.23-.56,1.87,0,6.49-1.06,13.2.24,19.41,1.62,7.75-5.33,12.72-4.68,19.89C181.24,680.76,180.88,685.84,180.88,690.88Zm234-105.34v10.83c0,4.34.14,8.68,0,13-.17,4.1.59,8-2.9,12-2.22,2.55-.74,8.13-1.54,12.24-.35,1.83-3.07,3.29-3.25,5.07-.68,6.46-1.91,12.45-7.82,16.31-2.22,1.44-1.9,3.69-1.74,5.76a9.63,9.63,0,0,1-2.72,7.62c-2.6,3-2.13,8-6,10.46,2.31,7.82-3.29,11.94-8,16.12-3.35,3-3.78,7.66-6.34,10.27-3.22,3.28-1.84,8.25-5.78,10.84-3,2-.8,6.71-4.56,9-3.55,2.16-4.74,6.36-6.62,10.12-2.45,4.9-8,8.2-11.8,12.5-3.63,4.07-9.76,6.54-9.25,13.48-4.09,4.09-7.95,8.44-12.35,12.15-2.49,2.11-6.18,2.77-8.76,4.8a69.84,69.84,0,0,0-9.21,9.15c-1.73,2-3.76,1.84-5.82,1.68-3-.23-5.67.15-7.51,2.86-3.71,5.47-10.51,6.21-15.43,10-3.56,2.73-8.58,3.54-12.87,5.37-1.82.78-.73,1.52.15,3.12,2.74,5,9.11,3.46,12.18,7.55s7.05,6.06,12.73,6.16c4.39.08,7.84,4.78,13.4,4.21a127.85,127.85,0,0,1,23.8-.06c7.62.65,12.66-4.5,18.86-7,3.14-1.25,4.38-5.07,8.21-6.37a51,51,0,0,0,20.61-13.25c4.7-4.87,7.81-12.48,16.35-12.56l24-24.62c-.81-4.39,2.5-6.74,5.24-8.55,4-2.68,2.15-8.25,6-10.6,4.58-2.75,4.89-8.28,7.85-11.85,3.13-3.79,2.35-9.75,7.46-12.17,6-2.83,1.77-9.56,4.75-13.12,3.61-4.32,4.33-9.93,7.66-14.23-2.14-5.62,4-8.62,4.29-13.37.37-5.53-1.14-11.5,4.38-15.54,0-4.33.62-8.78-.16-13-.92-5,4.92-6.51,4.63-11.24-.49-7.92-.13-15.89-.14-23.83,0-4.21-.16-7.86-3.31-11.77-2.16-2.68.12-8.53-1.28-12.34s-4.89-6.51-4.21-11.32c.38-2.62.14-5.91-1.16-8.08-3.47-5.79-5.16-12.73-9.27-17.77-6.82-8.35-15-15.59-22.79-23.14-4.95-4.81-12.51-6.1-16.72-12.12-.46-.65-2.88-.4-4.14.07-1.8.68-2.25,2.26-1.12,2.93,4.64,2.74,2.38,9.77,7.63,12.05,0,4.33-1.58,9.75.44,12.71,2.57,3.78,4.13,7,4,11.48C414.74,568.2,414.92,576.87,414.92,585.54ZM367.24,189.75c0-2.88,0-5.76,0-8.64-.06-11.54-.06-11.54-12.66-18.12-6.41-3.35-6.67-3.81-13.09-.24-2.69,1.49-5.1,2.48-7.8,2-4.81-.9-6.45,6.12-11.14,4.35-5.84-2.21-7.94,5.92-13.34,4.4-2.6,3.61-7.68,3.25-10.41,5.92-4.4,4.3-9.35,2.38-14.07,2.63-2.65.14-3.41,2.79-5.19,3.14-6.74,1.36-10.75,6.29-14.89,10.89-2.72,3-5.72,3.5-9.43,3.5-6.35,0-4.91,2.54-1.63,5.65.27.27-.73,2.77-1.23,2.81-2.8.18-6.53-.44-6.29,3.54.29,4.74-6.13,6.31-4.5,11.16,1.68,5-4,7-4.35,11.17-.4,4.78-6.46,7.64-4.36,13.32,2.25,6.11-5.25,9.49-4.42,15.48a38.78,38.78,0,0,1-.06,12.9c-1,5.11,5.47,6.63,4.47,11.18-1.34,6.1,3.61,8.6,6.45,12.5,3.62,5,8.48,4.31,13.42,4.25,3.6,0,7.25-.41,10.79.06,12,1.6,20.54-6.3,29.89-11.22,5.87-3.1,9.71-9.34,16.53-12.27,4.91-2.11,8.31-7.76,12.38-11.83L333,257.58c4.07-4.07,7.7-8.77,12.33-12,5-3.55,3.5-10.86,9-13.64,4.34-2.17,3-7.84,6.18-10.32,5-4-.66-11.58,5.83-15.16,1.36-.75.74-5.26.86-8S367.24,192.62,367.24,189.75ZM982.49,919c-5.78,0-11.56-.15-17.32.07-2.69.1-5.81-1.35-8,1.59-2.9,3.91-9.43,6-8.86,11.32.69,6.35-3.62,10.33-5.32,15.31-3.62,10.56-5.57,15.08-1.32,23.45,1.79,3.54,1.52,6.66,2,10,.89,6-2.54,13,3.8,17.91-1.36,7.46,4.62,12.56,6.24,19.09.45,1.81,3.27,2.48,3,5.27-.69,7.39,5.34,12.31,7.27,18.57,2.08,6.74,2.87,13.64,9.5,17.76,1.16,12.18,9.92,11.78,18.75,11.35,2.88-.13,5.78-.13,8.66,0,6.56.3,9.94-2.74,12.35-9,2-5.09,5-9.66,4.59-15.42,5.43-3.35,3.76-8.77,3.76-13.57,0-5.67-.44-11.34-.7-17-5.56-3.42-3.24-9-3.51-13.68-.28-5,.39-10.17-.26-15.13-.32-2.44-3.76-4.53-3.93-6.91-.51-6.87,10.11-8,8.87-15.81-.07-.44,2.21-1.8,3.38-1.78,2.73,0,6.16-.27,8.07,1.19,8,6.13,12,12.38,18.52,26.87.28.61,1.2,1.55,1.46,1.45,1-.41,2.68-1.15,2.71-1.83.23-5-.28-10.14.24-15.14.5-4.75-3.17-7.68-4-11.31-.86-3.81-4.78-5.7-4.61-8.92.38-7.43-10.26-8.19-9-15.93.15-.88-1.71-2.11-2.68-3.14s-2.12-3-3-2.91c-4.78.45-7.05-4-10.93-5.17-5.15-1.59-9.37-6.44-15.55-4.28-4.6-6.73-11.58-3.79-17.7-4.3C986.83,918.8,984.66,919,982.49,919ZM380.67,1146.13c-3.68-3.42-7.55-6.6-10.9-10.25-2.74-3-5.94-5.24-7.31-10-1.23-4.27-5.74-8.14-9.67-11-6.62-4.74-7.35-13.3-13.44-18.47-3.31-2.81-4.66-8-6.76-12.17-3.9-7.76-7.24-15.77-11.66-23.28-2.35-4-3.2-8.93-5.85-12.65-3.39-4.74-4.52-9.81-4.9-15.31-5.05-2.39-2.34-9.7-7.6-12-.34-.15-.23-1.29-.35-2-.83-4.68,2.07-9.87-2.64-14.08-4.25-3.8,1.37-12-6-14.75,2.2-6.18-3.47-10.31-4.11-15.52-.88-7.1.09-14.4-.31-21.58-.42-7.79.56-15.13,4.37-22,.23-.42-.22-1.31-.51-1.9-1-2-1.8-1.87-3.1-.25s-2.59,3.61-5.22,3c-6-1.52-9.68,2.23-12.32,6.4-1.3,2.06-.6,5.4-3.25,7.26-3,2.11-1.5,5.35-1.42,8,.1,3.61-4,4.29-4.32,6.88-.54,4.25,0,8.63-.19,12.94-.18,4.08.65,8-2.85,11.93-2.23,2.54-1.26,8-1.39,12.22-.19,5.75.5,11.59-.19,17.27-.82,6.66,2.82,11.84,4.24,17.73,1.15,4.76.68,10.08.11,15-.61,5.35,7,7.61,4.46,13.35,4.49,7.45,2.91,17.9,11.49,23.33,2.38,1.51,1.32,3.84,1.49,5.87.12,1.43-.54,3.77.11,4.18,6.94,4.35,7.88,13.07,13.63,18.25,3.2,2.89,6.67,5.72,9.06,9.23,3.06,4.49,8.51,4.31,12.14,7.49,3,2.67,4.88,7.52,10.32,6.34,5.56,7.76,13.31,9.84,22.35,8.71,1.37-.17,3.61-.38,4.07.33,3.48,5.3,8.78,4.14,13.57,3.85S375.82,1150.81,380.67,1146.13Zm320.85-698c.14.51.13,1.18.46,1.51,3.53,3.61,7.16,7.14,10.68,10.77,2,2,5.73,4.78,5.31,6.22-1.92,6.56,4.25,10.21,4.61,15.64a92.32,92.32,0,0,1,0,13,10.1,10.1,0,0,0,3.86,9.31c2.75,2.31,5.68,4.72,7.57,7.69,2.48,3.91,4.94,8.25,5.76,12.71,1.24,6.7-1.73,14.26,4.55,19.83,2.25,14-3.88,25.79-11.53,36.32-5.87,8.08-13.88,14.66-21.24,21.59s-19.38,7.58-25.6,16.82c-.48.71-2.71.15-4.1.37-2,.32-4.92.14-5.81,1.37-3.32,4.58-9.28,1-11.59,3.25-4.28,4.23-8.72,4.09-13.68,4s-10.12,0-15.17,0c-3.58,0-7.15-.16-10.73-.25-3-5.51-9.59-2.29-13-4.89-4.42-3.33-10.34-4-13.86-8.82a35.07,35.07,0,0,0-9.19-9.11c-4.72-3-3.58-9.05-7.54-12.18-1.13-.89-2-2.08-3.09-3-2.18-1.9,1.35-.11-1.52.19-.49,0-1.22,1-1.28,1.55-.13,1.4-.5,3.47.24,4.13,2.79,2.49,3.45,5.7,4.73,9,1.71,4.34,8.58,5.59,8,11.87-.05.55.53,1.61.95,1.69,5.9,1.08,9.64,5.25,13.52,9.25,3,3.11,6.12,6.14,9.19,9.2,5.76-2.34,7.5,6.94,13.26,4.6,2.36,2.87,5,4.63,9.11,4.31a82.09,82.09,0,0,1,17.31,0c12.83,1.78,21.73-6.89,32.25-11.25,2.63-5.83,9.06-6.14,13.66-9,4.06-2.5,8.84-3.67,11.92-7.84,1.7-2.29,3.8-5.55,6.11-5.91,7.17-1.12,10.45-6.84,15-11s9.74-8.17,10.78-15c7.06-4.16,7.56-13.07,13.6-18.34,5.55-4.85,5-14,10.91-19.18-.6-6.41,5.38-10.47,4.87-17.69-1.29-18-.48-36.09-.36-54.14,0-2.68-.86-5.41,1.53-8.06,5.45-6,3.16-11.22-2.15-16.37-2.77-2.68-4.29-6.65-6.38-10-5.41,1.13-7.68-6.16-13.14-4.9-4-5.27-7.54-4.61-12.19-.08-2.7,2.62-8.34-1.17-11.6,3.22s-10-.88-13.28,4.6C710.49,449.46,704.55,443.75,701.52,448.15ZM1013,506.61c0,10.82,0,21.63.12,32.45,0,.81,1.58,1.65,2.53,2.32a3.22,3.22,0,0,0,1.43-1.47c1.09-3.88-1.37-8.42,3-11.8,4.12-3.18-.44-9.31,4.4-13.44,3.84-3.27-.39-11.33,5.84-14.69-3.22-9.54,6.11-17,4.4-26.34-.23-1.25,0-3.32.75-3.9,6-4.35,3.69-10.61,3.28-15.9-.47-6.07,6-9.19,4.8-15.57-1.08-5.56-.23-11.49-.23-17.26V405.87c-4.81-3.35-3.52-10.57-8.67-13.71.78-6.18-6.59-7.77-7.47-12-2.89-13.89-17.79-14.72-24.62-24.07-.56-.76-2.64-.59-4-.56-2.88.07-5.09-.94-7.72-2.36-12.09-6.58-12.23-6.33-23.3-6.34-5.77,0-11.53,0-17.3,0-2.68,4.14-6.67,4.91-11.18,4.33-3.94-.5-4.93,4.2-9,4.68-4.44.53-8,4.4-13.39,4.39-3.42,0-6.64,4.11-10.74,5.1-.76.18-1.25,3.75-.9,5.58s1.62,1.56,2.95.84c14.05-7.64,14.08-7.59,25-7.59a12,12,0,0,1,2.16,0c4.07.75,8.35-1.45,12.35,1.54,7,5.26,17,6,22.3,13.87,4.18,6.24,8.32,12.46,12.73,18.55a60.09,60.09,0,0,1,7.1,14.31A33.09,33.09,0,0,0,998.86,426a4.41,4.41,0,0,1,1.06,3.77c-1.93,6.39,5.41,9.43,5.3,15.26,0,1.64,3.08,3.21,3.32,5,.72,5.59.75,11.27,1.06,16.91,6.48,5,2.73,12,3.27,18.06C1013.52,492.15,1013,499.41,1013,506.61Zm39,218c0-1.07.29-2.22,0-2.45-5.9-4-4.56-10.11-4.17-15.58.49-6.7-2.33-11.33-8.31-12.75-4.07-1-6.08-3.61-8.29-6.09-4.83-5.4-10.82-1.7-16.17-2.64-.4-.07-1.44.94-1.45,1.45-.06,9-9.41,9-13.26,13.77-9.13,11.35-24.48,13-33.75,23.58-7.37-1.74-4.21,5.8-7.09,8.08-4.59,3.61-1.92,6.37.08,10.63,2.22,4.74,1,11.07,1.47,16.69.18,2.37,1.45,3.73,4.12,3.65,4.33-.13,8.7.33,13-.13,5.81-.61,7.84,1.52,10.1,7.16,2.18,5.43,9.74,8.58,7.44,16.4,4.76,2.63,3.56,8.73,7.29,12.19,4.25,3.95,6.24,4,10.63.78,7.06-5.19,9.36-13.7,14.8-20.11,4.89-5.78,7.46-14,10.6-21.4,1.58-3.69,5.32-6.35,5.13-10.87,4.7-2.75,4.37-7.61,3.33-11.45C1046,730.07,1051.72,728.44,1052,724.62ZM488.6,145c0-2.88,0-5.76,0-8.65,0-5.74,1-11.78-.48-17.14-1.36-5-6.56-9-7.87-14a20.43,20.43,0,0,0-10.37-12.74c-7-3.68-13.81-8.38-21.76-10a31.66,31.66,0,0,0-10.77,0c-4.33.68-5.21-4.7-9-4.46-1.44.09-2.91-.15-4.32.06s-3.37.48-3.67,1.26c-1.08,2.91,1.4,2.44,3.19,3.14,5.06,2,9.46,6.09,15.56,4.22l14.68,6.32c1.53,1.53,2.82,3.48,4.64,4.5,4.22,2.38,3,8,6.16,10.4,5.88,4.48,7.29,11.5,11.06,17.14-3.25,8.26,5,14.21,4.39,22-.33,4.3.06,8.65-.09,13-.18,4.82-6.13,7.57-4.48,13.39.95,3.34,1.65,8.58-.15,10.45-3.15,3.28-3.85,7.26-5.65,10.83-3.88,7.75-7.89,15.46-11.74,23.21-2.32,4.66-3.28,10.51-8.18,14-6,4.26-10.1,9.8-9.21,17.77-5.9,1.06-.87,13-10.44,10.44-1.53,3-2.53,6.41-4.69,8.82-5.29,5.89-11.11,11.31-16.72,16.91l-15.29,15.3c-.24,9.33-9,12.26-14,17.92-3.54,4-7,8.26-12.71,10.75s-9.63,8.1-14.36,12.35c-5.67-2.12-7.43,6.66-13.28,4.72-1.74-.58-4.17-.89-5.85,1.35-4.1,5.45-9.28,8.58-16.48,7.23a5.32,5.32,0,0,0-5.66,1.95c-3.7,4.93-11.73-.51-14.76,6.11-5,.19-10,.21-14.9.61-5.41.44-11.7-2.34-15.66,3.95-4.86.19-10.39,2.17-14.32-1.06a12,12,0,0,0-9.69-2.89c-4.56.46-8.45-.38-11.18-4.38-4.29,1.21-6.11-2.67-9-4.29-2.41-1.33-6,1-5.93,3.91.05,3.45-.7,6.89,2.69,9.75a98.72,98.72,0,0,1,12.23,12.22c4.15,5,12,4.22,15.19,10.59.93,1.88,2.23,1.83,4.63.58,5.29-2.76,10.4-5.95,16.09-8.11,2.41-.91,4.26-3.77,7.4-2.95,7.68,2,12.84-3.83,19.16-6,1.23-.43,2.44-2.75,3.16-2.54,9.58,2.82,17.27-6.54,26.32-4.28,6.58,1.65,10.34-3.28,15.48-4.79,3.06-.9,5.64-4.1,8-6.69,2.5-2.77,6.7-1,9.17-4.38,1.88-2.6,3.81-6.09,8.2-6.08,4.12,0,5.61-4,8.12-6.35,5.29-4.89,10.25-10.13,15.35-15.23,6.18.88,8.54-4.41,11.88-7.74s8.59-5.71,7.74-11.87c4.58-4.59,9.08-9.28,13.79-13.74s4.78-11.48,10.57-15.21c3.38-2.18,6.94-5.19,6.21-10.29,6.68-4.44,7.94-13,13.74-18.12,4.85-4.3,9.44-8.75,7.81-16.31-.16-.77,2.47-1.85,2.8-3.06,1.63-5.9,5.59-10.65,7.73-16.27,7.76-3.53,4.26-13,9.25-17.75,3.7-3.53-.75-8.92,3-11.69,4.55-3.34,1-9.19,3.29-11.51,4.2-4.27,4.12-8.69,4-13.65C488.54,153.67,488.6,149.34,488.6,145Zm27,184.5c-1.33.28-2.91.19-3.93.91-9.39,6.64-11.93,19-21.36,25.72-.93.66-1.39,2.31-1.63,3.58-1.17,6.29-7.3,8.42-10.69,12.84-2.13,2.77-4.48,5.59-8.88,4.88-.42-.06-1.79,3.42-2,5.33a3.81,3.81,0,0,0,2.34,3c4.26.37,9.07-.9,12.72.66s6.25,5.78,9.31,8.83c1,1,1.9,2.72,3.07,3,10.88,2.13,15.54,11.91,22.43,18.63,7.41,7.23,16.61,13.06,20.33,23.88,1.26,3.67,5.81,6.22,8.89,9.25,1,.93,1.64-.17,3.12-1.05,4.14-2.47,3.41-7.47,6.07-10.51,2.84-3.24,6.06-6.15,9.12-9.21,4.07-4.07,8.17-8.11,12.21-12.22,4.53-4.61,4.65-4.88-2.91-9.31-4.24-2.48-6-7.94-11.47-8.78s-9.24-5.42-11-9.28c-3.62-8.08-10-13.35-15.61-19.45a25.87,25.87,0,0,1-3.76-4.92c-2.92-5.26-5.4-10.84-7.93-16.18-2.41-5.09-7.95-10.28-5.27-17.35C518.88,331.39,516.69,330.25,515.56,329.51ZM799.36,52.13c-5.77,0-11.55-.11-17.31.11-1,0-1.87,1.51-2.81,2.32.51.51,1,1.46,1.53,1.46a10.62,10.62,0,0,1,8.93,4.65c5-1.67,6.75,4.22,11.12,4.62s6.58,4.2,8.62,8.09c3.12,6,5,12.51,10.16,17.55,3.22,3.16,4.76,8,7.06,12.12-2.9,6.39,2.93,10.49,4.78,15.35,1.72,4.48,4.16,8.3,4,13.53-.37,12.25-.11,24.52-.11,36.78,0,2.17.91,5.33-.17,6.32-4.18,3.87-4.52,8.42-4.23,13.54s.06,10.09.06,15.14c0,4.33.11,8.66-.06,13,0,1.27-.54,3.13-1.44,3.64-5.57,3.18-.34,9.92-4.54,13.33-5,4-2.14,9.36-2.5,14.08a16.8,16.8,0,0,1-3.29,9.6c-1.77,2.4-.45,6.86-1.28,10.21-1,3.86-2.83,7.48-4.16,11.24-.16.44.48,1.21.84,1.77,1,1.54,2,1.31,3.07-.5,1.44-2.33,4.32-3.28,4.89-6.69.53-3.16,3.33-5.92,4-9.09.83-4.08,6.18-6.12,4.53-11.17-1.38-4.21,3.72-5.81,4.15-9,.73-5.45,7.26-9.15,4.48-15.5,5.65-3.63,2.39-11,5.75-14.8,3.56-4,1-9.14,3.24-11.62,3.84-4.33,4.33-8.61,4-13.64-.08-1.43-.52-3.7.16-4.16,5.17-3.47,5.49-9.15,3.8-13.38-1.91-4.78,9.13-7.56,1-12,6.72-8.69,2.09-18.88,3.79-28.19,1.38-7.52-7.67-12.25-4.47-19.88s-6.31-12.43-4.38-19.86c1-4-4.18-4.88-4.58-9-.61-6.17-9.33-8.31-9.32-15.59,0-1-1.94-2-2.92-3.06-7.15-7.74-15-11.24-25.62-11.3C806.57,52.11,803,52.13,799.36,52.13ZM531.27,823.6c3.63.13,5-1.13,5-4.92,0-9.38,0-18.77,0-28.15,0-5.72.24-11.44.37-17.16,4.49-2.68,3.28-7.23,4.2-11.29.84-3.74,3.86-6.88,5.24-10.79.84-2.38,3.7-4,3.21-7.33-.45-2.92.06-5.49,2.59-7.61a44.54,44.54,0,0,0,7.62-7.66c3.21-4.39,4.31-10,9.17-13.58a53.29,53.29,0,0,0,10.7-10.67c3.61-4.72,9-6.19,13.55-9.21,2.95-2,5.23-4.94,7.62-7.64.18-.19-1.09-2.46-1.86-2.56-4.06-.57-7.73-.26-11.89-3-3.93-2.58-8.93-4.09-11.56-8.19-3.33-5.22-9.5-5.56-13.55-9.2-1.55-1.39-2.24-1.91-3.12.17-1.05,2.45-.28,5.58-3.07,7.41-3,2-2,5.17-1.81,7.85.21,3.55-4.16,4.94-4,6.86.28,2.53,5.63,4,.77,7.86-2.47,2-2,6.07-4.46,9-2.86,3.36-3.09,8.87-5.62,12.67-2.84,4.25-5.18,8.25-4.15,13.46.82,4.13-1.48,6.65-4.23,9.1-1.6,1.42-4.44,3.36-4.21,4.59,1.08,5.66-6.6,7.69-5,13.23-4.32,2.15-2.83,7.78-6.15,10.42-4,3.16-5.38,7.84-7.94,11.82-2.94,4.54-3.5,10.25-8.61,14.06-4,3-4.27,10.07-9.42,13.2-2.64,1.6-1.3,3.14.32,4.57,2.06,1.82,3.51,4.46,7,4.07,5.69-.62,11.2-.22,15.52,4.3C520.53,816.4,524.57,825.41,531.27,823.6Zm-124-706.46c-1.43,0-3,.41-4.27-.07-8.93-3.36-15.45,5.48-24,4.7-1.93-.18-4.2,3.32-6.3,5.16-1.11,1-.4,3.22.87,2.83,5.84-1.83,7.5,7.12,13.22,4.72,4.06,4,7.78,8.5,12.23,12,7.38,5.86,8.4,15.41,13.73,22.22,3.74,4.77,1.26,9.53,2.3,14.16.28,1.24,1.3,2.31,2,3.46,1-.93,2-1.84,3-2.79s3-2.2,2.89-3c-1.32-7.33,5.63-12.38,5.13-19.48a22,22,0,0,1,1-8.13c4.58-14.16,4.16-15.22-.93-27-2.58-5.94-5.73-9.21-12.3-8.83C413,117.28,410.09,117.14,407.23,117.14Zm282,909.26-36.58-36.58c-2.54-2.54-6.15-4.67-7.32-7.73-1.25-3.26-1.85-6.56-4.84-8.77,2.26-5.69-6.36-7.31-4.87-13.28.48-1.89-2.78-1.43-4.23.31-1.75,2.09-4.38,3.43-4.18,6.93.3,5,1,10.28-.15,15-1.62,6.49,2.27,11,4.86,15.32,3.78,6.34,8.29,12.38,12.57,18.49,3.24,4.63,7.39,8.51,14.32,7,3.28-.7,8.17-1,10.18.86C674.72,1029.28,680.69,1026.89,689.23,1026.4ZM922,821.52v15.07c0,5.74-.84,11.64.23,17.17,1.12,5.79-4.18,8.59-4.52,13.32-.39,5.47,1.26,11.3-4.23,15.6-1,.74-.76,4.58,1.67,5.38a7.54,7.54,0,0,0,5.72-.66c5.52-3.51,6.76-10.07,9.55-15.36,2.12-4-1.71-9.6,2.52-14,4.46-4.69,1.62-10.87,1.92-16.32.51-9.3.25-18.65.1-28-.11-6.83,1.59-14.13-4.29-19.73,1.64-5.43-4.63-9.31-3.89-13.18,1.27-6.66-5.83-9.64-4.92-15.53.06-.39-1.75-1.22-2.79-1.52-.3-.09-1.33.93-1.34,1.46-.11,4.3,0,8.6,0,12.91,6.81,4.54,4,11.53,4.22,17.58C922.27,804.3,922,812.91,922,821.52ZM731.31,146.06c0-4.33.29-8.69-.13-13-.21-2.19-2.25-3.1-4.71-3-4.25.18-9.2-.91-8.16,6.15-5,5.15-10,10.27-15,15.44-3.3,3.42-3.63,5.43.07,8.81s5,8.34,7.86,11.85c4.41,5.42,2.23,10.92,2.63,16.31.53,7.18.1,14.43.2,21.65,0,.52,1.14,1.55,1.41,1.45,1-.39,2.63-1.05,2.74-1.79.59-4.05-.41-7.93,3.07-11.91,2.22-2.56,1-8.08,1.39-12.26.06-.67.1-1.66.52-1.91,4.48-2.79,4.43-7.29,3.67-11.43-.9-5,3.78-7.36,4.31-11.25C731.81,156.24,731.31,151.12,731.31,146.06Zm19.08,551.85c-4.3,0-8.61,0-12.91,0-2.05,0-4.3-.52-5.74,1.72-3,4.56-9,.57-11.41,3.22-4.17,4.64-9,3-13.66,3.83-5.9,1-10.82,5.49-17.28,5.11-.95-.06-2,1.94-3,2.88-2.74,2.38-3.1,4.11-.86,4.55,1.36.26,3.07.79,4.1.23,1.8-1,3.06-3.65,4.8-3.9,4.2-.63,8.85-1.28,12.76-.08,6.05,1.85,7.38-6.1,13.39-4.85,6.18,1.28,13-.51,19.26.5,6.87,1.1,10.77-5.87,17.64-4.77,6.29,1,12.87.25,19.32.15.52,0,1.15-.84,1.49-1.43.21-.37.12-1.34-.11-1.45-4.2-2-8.29-4.63-12.73-5.5C760.57,697.17,755.41,697.91,750.39,697.91ZM649,515.72c0-1.49,0-2.92,0-4.34,0-2.94-3.17-5.21-5.67-4.17-6.62,2.76-20.48,13.07-24,19.17-1.58,2.73-1.91,7,.48,9.9,2,2.44,4.58,1.28,7.29-.42,4.45-2.78,9.44-4.71,14.21-7C646.84,526.23,650.06,522.21,649,515.72ZM969.68,839.63c0,3.2-.07,5.3,0,7.39.07,1.54,3.37,3.24,4.95,2.56a13.49,13.49,0,0,0,3.4-1.9c5.59-4.77,5.61-5.14,1.93-11.63a37.51,37.51,0,0,1-1.64-3.52c-1.94-4.43-2.29-4.16-5.8-1.18C969.3,834.11,969.57,837.29,969.68,839.63ZM887.47,1014.3c-3.37,0-5.06,2-4.43,5.33.41,2.17,1.55,3.61,4.25,3.4,3.27-.26,5-2,4.34-5.39C891.22,1015.48,890.08,1013.78,887.47,1014.3ZM540.8,1026a5.16,5.16,0,0,0,2,5.69c.73-1.8,1.82-3.55,2-5.4.11-1-1.29-2.18-2-3.27C542.05,1024.06,541.33,1025.16,540.8,1026ZM669.09,723.29l1.54-1.54a13.7,13.7,0,0,0-2.91-1.36c-.36-.08-.94.88-1.42,1.36Zm115.77-91,2.79-1.54c-.48-.48-1.07-1.43-1.42-1.35a13.18,13.18,0,0,0-2.91,1.35ZM167.25,549l-1.54-2.79c-.48.48-1.44,1.06-1.36,1.42a13.7,13.7,0,0,0,1.36,2.91ZM605,348.39l-1.54-1.54a13.18,13.18,0,0,0-1.35,2.91c-.08.35.87.94,1.35,1.42ZM812.11,286.8l-2.79,1.54c.48.48,1.07,1.43,1.43,1.35a13.4,13.4,0,0,0,2.91-1.35Z"/><path d="M189.54,164.82h-4.33a37.39,37.39,0,0,1,.13-6.36c.12-.66,1.78-1.2,2.81-1.47.32-.08,1.29.91,1.33,1.45C189.64,160.56,189.54,162.69,189.54,164.82Z"/><path d="M185.21,166.75c-.86.67-2.15,2.08-2.5,1.88-2.6-1.53-.82-2.76.6-3.77a1.88,1.88,0,0,1,1.83,0C185.46,165.21,185.21,166.1,185.21,166.75Z"/></svg>