<svg id="Layer_1" data-name="Layer 1" xmlns="http://www.w3.org/2000/svg" viewBox="0 0 1200 1200"><title>BB_Artboard 19</title><path d="M1043.09,621.82c-3.71,2.43-6.26,1.06-8.86,3.21-5.39,4.44-13.42,4.89-18.05,10.31-4.45,5.2-12.13,5.23-16,11.3-1.1,1.73-5.14,1.43-6.65,3.12-3.21,3.58-8.52,2.72-11.7,6.89-2.53,3.34-7.13,5.3-11.1,7.31s-8.21,3.16-12.27,4.87a6.81,6.81,0,0,0-3,2.45c-2.66,4.27-7.72,4.67-11.27,7.3-8.47,6.25-13.33,16.77-24.31,20.33-1.55.5-1.55,5.93-3.06,6.38-2.55.76-5.38.61-6.84,3.24-3.8,6.84-10.28,5.31-16.2,5.25-2.73,0-7.46-5.34-7.58-8.16-.14-3.4-1.07-7.3.25-10.07s4.52-4.77,4-8.56c7.2-5.14,9-14.44,15.77-20.09,5.48-4.57,6.48-12.84,12.69-17.12-.85-4.13,2.33-6.09,4.76-8.2,4.54-4,7.44-8.93,10.21-14.17.79-1.51,1.82-2.14.09-2.92-1.14-.51-2.74-1.09-3.7-.67a17.65,17.65,0,0,0-4.68,3.49c-3,2.8-5.79,5.75-8.68,8.63-5.12-1.21-7,3.24-9.83,5.8-3,2.73-5.6,6-8.77,8.53-1.9,1.5-5.48,1.36-6.74,3.09-4.87,6.71-14,7.46-18.75,14.27-2.27,3.26-5.56,5-9.73,6.08-3,.77-1.17,5.79-4.18,8.39-2.73,2.36-6.32,2.08-8.5,4.21s-1.81,5.76-4.22,8.49c-2.93,3.32-7.85,1.54-10.27,5.45-.7,1.13-3.56,1.08-5.45,1.27-2.45.24-10-4.29-9.57-5.91s3.71-3.13,3.54-4.39c-.8-6.06,1.2-10.53,6.06-14,4.49-3.16,6.08-8.26,8.84-12.63,2.48-3.93,6.83-6.63,9.75-10.35,1-1.26.16-4,.16-6,7.44,1,9.2-.78,8.19-8.2,2.84.11,4.2-1.26,5.29-6,.4-1.24-.51-.68-1.14.1a1.22,1.22,0,0,0,1.73,1.73,8.35,8.35,0,0,0,1.87-2.41c.08-.15-.79-.82-2.46.58-4,1.78-5.39,3.15-5.29,6-7.42-1-9.2.76-8.19,8.2-2.52.55-5.27-1.13-7.64,1.39-4.66,5-8.82,11.49-14.64,14s-9,7.82-14.09,10.46c-14.1,7.37-23.27,20-34.23,30.72-3.94,3.83-9.13,4.78-13.12,8.31-2.94,2.61-8.72.36-12.38-3.19-1.55-1.51-1.23-2.34-.43-4.46,1.79-4.77,5.28-8.56,6.62-13.67,1.27-4.85,8.2-6.39,8.37-13,.09-3.48,7.71,0,8.18-6.52.23-3.21,4.19-6.79,7.31-9,6.26-4.46,8-12,13-17.23,5.16-5.45,10.65-10.58,15.8-16,.71-.75.43-2.56.36-3.87a2.79,2.79,0,0,0-1.08-1.56c-.35-.3-1.17-.6-1.39-.42-3.08,2.5-5.74,6.33-9.22,7.31-3.74,1.05-5.53,3.56-7.88,5.72-3.86,3.55-9.83,3.38-13,8.51-2.33,3.74-5.77,7.43-11.13,7.35-3.64,4.94-8.89,7.78-14.28,10-4.67,1.92-8.56,5.7-13.92,5.92-4.5,5.09-11.88,5.08-16.66,8.94-4.62,3.72-9.5,6.74-14.35,10-2.73,1.83-6.21.89-8.7,4.07a108.9,108.9,0,0,1-14.36,14.53c-4.89,4.25-12.71,5.34-15.37,11.75-2.15,5.15-12.41.87-10.2,9.75-3.83,3.87-7.37,8.1-11.57,11.51-4.5,3.65-10.32,5.36-14.24,10.14a125.9,125.9,0,0,1-13,13c-3.47,3.15.33,4,1.3,5.88.56,1.09,1,2.83.52,3.78-2,4-3.87,8.17-6.69,11.52-5.62,6.69-13.32,12.07-17.38,19.5s-11,11.59-15.8,18c-2,2.64-7.66,4.61-1.57,8.74.13.09-.12,1-.38,1.38-2.18,3.28-7,4.6-7.2,9.28-.13,4.14-5.74,5.84-4.35,10.5-2.71,1.82-3.8,6-7.77,5.88-2.45-.06-4.14,1-4.24,3.08-.63,12.76-10.29,21.7-13.77,33.21-4,2.11-1.93,7.43-5.68,10-2.78,1.94,5.31,3.69,1,7.23-1.72,1.41-1.46,5.16-3.15,6.69-2.93,2.66-3.43,5.62-3,9.06.51,4.31-5.5,5.72-4.27,10.62.8,3.21.27,6.79.09,10.19-.07,1.19-.52,2.82-1.38,3.44-3.22,2.35-2,4,.33,6,.31.26-.39,1.87-.78,2.79a31.13,31.13,0,0,1-1.55,2.9c1.85.44,3.73,1.3,5.53,1.17,1-.08,1.78-2.08,2.94-2.68,4.11-2.12,2.2-7.41,5.68-10,3.24-2.44,6.59-5.28,8.55-8.71a95,95,0,0,0,5.12-10.12c2-4.7,4-9.65,6.95-13.38a48.26,48.26,0,0,0,7-11.56c.74-1.74,1.83-3.33,2.68-5,5.54-11,10.16-22.74,20.52-30.29,4.68-3.41,3.89-9.57,8.43-13.11,3.39-2.65,8.39-5,8-10.9,0-1,1.35-2.18,2.26-3.1,5.75-5.82,11.56-11.59,17.35-17.38,1-8.26,8.6-11.47,13-17.14s7-12.47,12.36-17.38c-.52-4.83,2.56-4.81,6.17-5.53,2.22-.44,5.7-3.75,5.54-5.48-.75-7.92,10.42-9,9-16.9l11.57-11.58c3.86-3.85,7.39-8.14,11.68-11.45,4-3.07,4.53-7.8,7.13-11.45,5,1,7.39-2.92,9.73-5.91,1.71-2.18-.07-6.91,5.23-6.57s10.87-1.07,14.51,4.66c1.54,2.44,1.93,5,0,7s-3.85,3.87-5.78,5.8c-9.65,9.65-19.34,19.25-28.93,29-7.15,7.23-14.17,14.59-21.25,21.89-3,10.47-13.2,14.84-19.28,22.71-1.08,9.94-13.45,12.68-14.46,22.66-3.86,3.86-7.61,7.83-11.62,11.53-2.61,2.42-3.35,5.15-4.09,8.62-1.15,5.48-2.89,11.15-7.4,15.32-4,3.7-8.88,7.09-11.28,11.71-2.27,4.35-5.69,8.47-6.35,13.78-.09.74-3.53.86-5.21,1.68-.76.37-1.69,2.25-1.42,2.6,1.42,1.89,4.22,3,.93,6-2.81,2.56-3.49,6.77-5.4,10.06-2.06,3.58-.47,9.28-.47,15v-.91c-.6,0-1.39-.24-1.79,0-1.35.95-3,2.12-.57,3.56.33.2,1.56-1.14,2.36-2.69,2.52-1.46,5.65.53,7.56-2.38,2.84-4.32,8.29-6.11,9.29-12.65.69-4.49,8.43-6.5,8.12-12.9,3.09-2,3.08-5.54,4.54-8.33s5.75-4.55,6.74-7.45c1.1-3.22,1.9-6.18,4.64-8.34,4.77-3.75,4.16-11.33,10.14-14.23s5.58-10.25,10.09-14.29,8.56-8.83,13.13-12.92,4.82-10.5,9.87-14.56c4.35-3.49,10.68-6.56,10.41-14,0-.47,1-.92,1.38-1.45,4.8-6.25,11.63-10.36,15.2-18.26,2.9-6.4,9.82-11.07,15.26-16.19s6.49-13,12.87-17.34a10.06,10.06,0,0,1,7.45-1.75c1.71.22,4.67,1.5,4.68,2.33,0,3,2,4.69,3.22,7,1.6,2.91-2.58,3.64-3.79,5.65-.68,1.14-2.6,1.88-2.72,2.94-.59,5.3-3.86,9.51-6.22,13.81-2.51,4.6-7.26,8.07-11.33,11.69a10.31,10.31,0,0,0-3.63,8.83,7.07,7.07,0,0,1-2.19,5.1c-3.84,3-5.13,7.38-7.35,11.34-1.94,3.44-5.32,6.26-8.56,8.71-4.54,3.44,2.69,4.95.94,7.26-2,2.7-4.74,4.9-7.16,7.31s-4.79,4.87-7.25,7.22c-1.12,1.07-1.05,2.15.75,2.84,1.19.46,3.13.84,3.88.22a79.57,79.57,0,0,0,8.83-8.39c2.56-2.85,7.14-4.62,5.95-9.79l34.64-34.8c7.86,1.44,9-10.12,16.88-8.69,3.74-6,9.7-3.45,14.82-3.69,2.63-.12,7.19,5.4,7.38,8.37.17,2.71-.12,5.47.11,8.18.1,1.18.87,3.13,1.59,3.25,1.76.31,4.31.45,5.41-.56,6-5.55,11.6-11.56,17.55-17.19a9.4,9.4,0,0,1,5.22-2.07c4.21-.41,17,6.24,18.54,9.44a15.88,15.88,0,0,1,.79,3.77c.69,3.73-1.77,8.08,2.15,11.19,2.49-4.13,7-2.91,10.48-4.35,4.8-2,9.26-4.36,14.59-4.33,10-9.17,18.06-.62,26.46,3.24,2.33,1.06,3.8,3.88,6,5.43a4.15,4.15,0,0,0,3.9-.1c3.16-2.45,5.66-6.69,9.11-7.6a13.05,13.05,0,0,0,7.94-5.43c2.54-3.81,8.19-1.78,10-5.74,2.56-5.75,9-5,13-8.42,2.78-2.33,7.23-2.5,9.76-6,3.56-4.91,9.07-7.24,14.11-10.29s7.48-8.93,14.22-10.39c3.37-.73,5.54-5.9,8.85-8.2,5.21-3.61,10.34-7.81,17.39-7.47,1.14.06,2.35-.82,3.51-1.33,1.39-.62,2.55-4.29,4.22-1,1.93,3.83,8.37.17,8.91,6.25.27,2.94,4,6,3.58,8.5a23.5,23.5,0,0,1-5.74,11.77c-3.76,3.9-6,8.38-8.63,12.89-1.91,3.31-3.21,7-5.19,10.25-2.11,3.52-.42,9.25-.65,14-.13,2.48,1,4.21,3.1,4.16,3.21-.08,4.81,1.88,6.74,3.69.18.17,1.22-.12,1.36-.43,2.89-6.33,9.81-1.31,14.34-5.43,4.68-4.26,9.1-2.29,13.74,2.49,1.3,1.34,1.86,2,.67,3a76.59,76.59,0,0,1-6.14,5c-1.54,1-4,1-5.1,2.32-3.78,4.35-7.79,7.36-14,6-3.18-.7-7.44.26-9.51-1.52-3.57-3-8.44-2.89-11.8-6.78-3.76-4.35-6.64-8.06-5.73-14.16,1.08-7.26-1.79-15,1.56-21.9,2.74-5.68,5.39-11.45,8.53-17,2.37-4.16,2.26-4.22-1.85-4.3-3.35-.06-6.81-.66-9.07,2.9a18.7,18.7,0,0,1-2.85,2.92c-3.86,3.87-8,7.53-11.52,11.64s-10.18,2.94-13,8.56c-2.11,4.19-8.35,2.87-11.35,7.19a24.17,24.17,0,0,1-12.52,9.08c-4,1.37-5.6,7.23-11.43,7.27-1.94,0-3.86,3.56-5.79,5.49s-3.55,5-5.84,5.62c-17.92,5.08-27.19,20.73-40,32-2,1.79-3.61,4.51-5.95,5.43s-6,1.11-7.88-.17c-2.52-1.73-6-3.59-6.11-7.51a6.51,6.51,0,0,1,1.21-3.56c5-7.43,6.67-17,14.31-22.86.88-.68.41-3.64-.12-5.33-.23-.73-2.19-1.18-3.41-1.28-2-.17-5.11-.78-5.89.24-5,6.48-13.32,8.39-18.85,14.25-10.29,10.93-21.12,21.36-31.8,31.91-1.05,1-1.72,3.61-4.42,1.17-2.26-2-7.46-2.57-7.92-4.56-1-4.28-2.71-10.25,1-13.41,5.31-4.55,7.14-10.9,10.52-16.33,2.91-4.67,5.39-10.19,5.27-16.22,0-.47.83-1.07,1.39-1.42,1.66-1,2-2.35.68-2.82a16.86,16.86,0,0,0-5.51-.51c-.49,0-1,.9-1.45,1.38L784.08,830.3c-1.51,9.7-11.77,12.73-15.54,20.22a43.06,43.06,0,0,1-7.63,11.14c-11,11.31-9.24,10.38-20.08-.07-3.38-3.27.66-3.94,1.33-5.88,1.44-4.18-.81-9.64,4.43-12.51-.76-5.8,5.08-7.47,7.09-11.41,3.17-6.19,5.38-12.85,9.47-18.62.52-.73,0-3.18-.68-3.58-1.58-.89-4.05-1.87-5.38-1.23a47.3,47.3,0,0,0-11.3,7.2c-3.27,3-7.63,5.38-7.66,11.21,0,1.94-3.57,3.85-5.49,5.8q-9.28,9.45-18.56,18.93c-.35,9.61-13.05,11.44-13.29,21.11-8.74,5.62-10.92,16.71-18.89,22.85-5.46,4.21-5.23,12.22-11.47,15.83-2.91,1.69-1.29,5-1.35,7.55-.22,9.08.08,9.23,8.43,5.69.58-.25,1-1.33,1.46-1.35,4-.21,8.72-1.56,12,0,4.07,1.9,7.11,6.13,10.33,9.6.71.77.54,2.55.44,3.85-.23,3.27-.66,6.54-1,9.8-6.34,3.3.49,12.56-7.16,15.62-2.07.83-3.38,3.44-4.34,6.26a91.33,91.33,0,0,1-8.21,17c-3.41,5.64-8.68,10.3-13.69,14.79-3.18,2.85-1.51,8-5.63,10.12a9.16,9.16,0,0,0,1.23,2.71c.26.34,1.46.32,2,0,4.9-3,10.93-4,14.85-8.65A38,38,0,0,1,694,994.08c4.09-1.81,8.77-2.83,11.42-7.14.66-1.08,2-2.53,3-2.53,11.71.08,19.9-8.12,29.68-12.5,8.08-3.62,16.72-6.46,23.46-12.54s17.17-6.44,22.72-14.43c2-2.82,5.09-.87,7.48-1.7a59.16,59.16,0,0,0,8.56-4c2.24-1.21,4.23-3.58,6.53-3.88a45.6,45.6,0,0,1,14.28,0c5.59,1.07,8,6.82,11.78,10.47.63.6.09,2.59-.17,3.89-.12.56-.93,1-1.39,1.46-3.55,4-9,7.5-10.16,12.1-1.48,5.87-8.6,6.87-8.67,13.79v-.91c-.61,0-1.39-.24-1.8,0-1.35,1-3,2.12-.56,3.57.32.19,1.55-1.15,2.36-2.7a6.34,6.34,0,0,1,4.09-.9c4.13.16,5.78-5.79,10.6-4.15,4,1.35,5.61-3.54,8.55-3.86,5.24-.56,8.62-7.05,14.66-4.29,4.36-3.89,11-4.31,14.55-9.4.26-.38,14.91-6.82,15.52-7a36.79,36.79,0,0,0,5.42-1.73c14-6.71,14.44-6.84,26-6.46,1.36,0,3-.47,4.05.09,3.87,2,8.8,3.56,10.91,6.84A8.13,8.13,0,0,1,924,956.94c-.76.5-1,2.46-.79,3.62s1.39,3.15,1.94,3.09c3.22-.38,7.1,1.94,9.6-1.35,4-5.32,12.52.28,15.69-6.69,5.25-2.23,11.21-3.07,15.23-7.73,9.13,1,15.37-5.75,23-8.78,9-3.57,8.83-4,14.73-4,2.73,0,5.56.45,8.17-.1,6.26-1.31,9.94,2.06,14,6,5.78,5.67,5.6,12.12,2.21,18-1.89,3.28-2,6.12-2.23,9.37-.19,2.56.86,5.39-1.8,7.45-6.39,5-7.89,13.66-14.42,18.65-3.17,2.42-7.07,5.43-7.95,8.86-.94,3.69-2.62,6.3-5.23,8-3.79,2.52-3.48,6.89-5.43,10.18-2.66,4.52-4.75,9.25-8.95,12.63a7.61,7.61,0,0,0-1.1,1.44c1.11.62,2.16,1.61,3.34,1.78,2,.3,4.71.92,6-.06,6.19-4.64,13.35-7.67,20.21-10.65,6.29-2.72,13.63-3.41,19.28-7.71,3.14-2.39,8-1.58,10-5.67,4.68,1.28,6.42-4.5,10.42-4.43,4.23.06,5.82-5.93,10.55-4.25,2.24-2.67,4.65-4.68,8.58-4.1,2.68.4,5.66.73,8.14-.05,6.76-2.13,11.22,3.07,16.42,5.09,6.89,2.67,7.92,15.2,2.61,20.66-2.85,2.93-6.05,5.58-8.6,8.75s-6,2.48-9.25,2.47c-2.59,0-5.27-4.25-3.51-5.55,4.09-3,3-8.71,6.78-11.7.83-.65,1-2.29,1.28-3.51a3.29,3.29,0,0,0-3.54-3.8c-.67.08-1.83-.24-2,0-3.41,6.53-10.75,3-15.9,6.46-9.49,6.3-21.44,8.68-29.46,17.69a2.16,2.16,0,0,1-1.85.37c-5.24-1.69-8.31,3.53-12.66,4-4.13.42-5.91,4.51-10.5,4.82-3.92.26-7.4,4.73-11.4,6.71-7,3.47-14.33,6.47-22.47,5a10.47,10.47,0,0,1-5.13-2.3c-2.89-2.75-6.84-5.59-7.6-9-.69-3.07,2.18-7,3.7-10.47,1.26-2.89,4.2-4.56,4.41-8.54.15-2.64,4.89-4.5,3.75-8.55,4.74-3.78,4.48-10.84,10-14.4,3.93-2.52,8.74-6.13,9.72-10.1s4.84-6.23,4.9-10.37a5.05,5.05,0,0,1,1.46-3.42,53.27,53.27,0,0,0,16-24.14c1.49-4.37,1.95-4.12.29-5.85-2.37-2.47-5.87-5.79-8.17-2.34-3.83,5.72-10.4.65-14.52,5.38-2.65,3-8,3.56-11.69,5.93-4.3,2.78-9.42,3.72-13.5,7.16-3.33,2.81-9.67-1.11-12.41,4.5-7-1.15-12.22,3.6-18,6s-11.8,5-16.81,8.66c-3.22,2.39-7.72,1.61-10.18,5.48-1.79,2.8-4.69,4.91-7.12,7.31-5.15,5.08-11.25,8-20.46,9.92-8.27,1.71-8.28,1.72-12.09-2.16-1.32-1.34-2.55-2.78-3.82-4.17,3.54-3.54,6.49-7.59,10.41-10.13,5-3.23,5-9.14,8.59-12.93,3.28-3.47,6.74-6.77,10.12-10.15s6.82-6.7,10.09-10.18a9.22,9.22,0,0,0,1.55-3.42c.2-.62.32-1.67,0-2-.75-.68-2.26-1.68-2.68-1.4-7.93,5.37-16.86,8.75-25.38,12.94-7.94,3.9-15.6,8.32-23.8,11.74-2.27,1-3.78,3.78-6.88,3.15-3.83-.77-6.59,1-8.58,3.94-2.64,3.86-6.37,3.88-10.5,4.54s-8.31,3.17-11.88,5.68-6.26,6.3-11.36,7.41c-3.55.77-4.9,6-9.23,7.26s-8.84,2.78-11.85,5.68c-3.65,3.53-7.66,1.46-11.27,2.72-.58.21-.9,1.09-1.48,1.38-1.68.87-3.81,2.62-5.08,2.15a16.29,16.29,0,0,1-6.17-4.73c-2.18-2.49-1.75-8.73.32-11,.46-.51,1-.94,1.44-1.46,6.8-8.28,16.41-13.92,21.6-23.8,4.79-9.12,13.72-14.73,20.35-22.32a25,25,0,0,1,3.1-6.12c1-2-1.06.06-3,2.24a1.81,1.81,0,0,0,0,1.8c.32.32,1.21.07,1.84.07,5.39.06,7.7-2.32,6.08-6.31-.22-.54-.87-.91-4.93,2.2-9.16,3.94-14.76,3.94-19.33,9.71-2.54,3.22-7.39,4.81-11.42,6.63-6.47,2.92-13.34,5.06-18,10.92-10.87,3.47-19.66,11.67-31.16,13.73-1.27.23-3,0-3.71.81-8,9.06-19.59,12-29.81,17.17a57.55,57.55,0,0,0-14.25,10.17c-3.28,3.17-5.92,6.85-10.56,9-7.46,3.39-15,6.75-22.07,11.12-3,1.85-7.92,1.33-11.82.8-6.42-.86-9.92-11.14-5.11-15.9a35.85,35.85,0,0,0,8.44-13,34.83,34.83,0,0,1,8.69-12.83c4.18-4.06,8.44-7.79,10.65-14,1.65-4.65,7.28-7.88,11.14-11.74-1.7-7.44,7.25-8.59,8.72-14.9,1.06-4.58,6.41-8.27,10.15-12.06,2.91-3,1.43-6.41,1.41-9.58,0-.82-3.46-2.69-4.59-2.23A44.75,44.75,0,0,0,673,941.61c-5.24,4.26-9.84,9.29-14.72,14-7.83.53-10.76,7.56-15.43,12-13.3,12.74-26.14,26-39.2,39-2.34,2.33-8.67,3.51-11,1.52-2.92-2.52-6.94-4.85-5.58-9.9.49-1.84.69-4,1.79-5.37C596,984,606.13,978,611.78,967.54c5.54-10.25,15.67-16.65,23.37-25.12,4.13-4.54,8.74-8.64,12.91-13.14.71-.77.73-2.68.34-3.82s-1.79-2.59-2.57-2.49c-4.52.58-9.28-1.93-13.62,1.69-4.91,4.09-12.49,2.32-17.05,8.59-4.75,6.54-11.8,11.38-17,17.67-3.61,4.37-9.94,3.81-12.94,8.56-7.87-1.47-12.28,3.72-16.91,8.65-1.76,1.88-4.14,2.93-6.38,4.19-4.48,2.52-9.7,6.24-11.26,10.66-1.51,4.25-4.12,6.71-6.74,9.49-6.08,6.42-13.65,5.85-18-2.1-1.53-2.81-.7-6.5-5.55-6.11a44.7,44.7,0,0,1-8.18,0,8.93,8.93,0,0,0-8.75,3.69c-2.6,3.41-5.74,5.56-10.4,4.65a4.05,4.05,0,0,0-3.47,1.21c-3.33,5.51-10.1,6-14.33,10.07-6.88-.18-9,7.78-14.69,8.91-4.65.92-6.33,4.67-9.4,7-2.42,1.88-3.42,1.89-7-.13-1.65-.92-3.37-1.74-5.06-2.6-1.12-.58-3.23-1.19-3.22-1.74.12-5.13-2.66-10.83,2.18-15.13,1.54-1.36,1.89-2,.07-2.94-.55-.29-1.33-.81-1.74-.63-4.59,2.11-10.65,3.19-13.32,6.78-4,5.36-11.11,4.5-14.68,9.81-3.37,5-11,4.33-14.3,10.1-.7,1.23-3.4,1.75-5.22,1.84a11.5,11.5,0,0,0-7.26,2.45c-4.06,3.2-8.56,3.27-12.44-1a59.7,59.7,0,0,0-5.81-5.77c-2.62-2.16-1.34-5-1.7-7.51-.59-4.29,5.7-5.76,4.17-10.61-1.61-5.09,3.31-6.85,5.68-9.88.81-1,2.34-2.09,2.29-3.08a9.81,9.81,0,0,0-1.88-5.25c-.52-.68-3-.79-3.81-.16a69.44,69.44,0,0,0-7.36,7c-2.76,2.92-6.52,4.18-9.62,6.21-3.3,2.16-7.38,2.35-10.26,5.26-2.67,2.71-4.58,7.17-9.74,6-9.07,10.7-25,12.11-32.86,24.47-6-1.35-6.05,3.24-7,7a2.1,2.1,0,0,1-1.45,1.28c-8.74,0-10.38,10.46-17.49,12.1-4.45,1-7.13,6.2-12.62,4.48-2.48-.79-5.43-.31-8.14-.1-8.62.65-16.34.23-17.8-11-.21-1.61-2.59-3.09-4.22-4.3a8.83,8.83,0,0,0-3.61-1.1c-.58-.1-1.65,0-1.82.37-3,6.13-9.72,2.41-14.2,5.52-5.35,3.7-5.89,3-12.37,0a22.46,22.46,0,0,0-3.37-1.74c-11.17-3-11.17-3-16.87-13.73-1.48-2.79-6.49-5.9-3.84-8.25,5.5-4.86,1.61-13.36,8.15-17.36,2.11-1.29,2.9-4.1,4.16-6.35,5.65-10.08,8.92-21.85,19.06-29,1.24-7.15,7.07-10.94,11.6-15.65,4.24-4.44,8.66-8.71,13-13.05s10.55-8,12.52-13.23c2.06-5.48,6-8.54,9.11-12.62-1.7-7.43,8.7-8.12,8.37-15-.07-1.51,1.84-3.54,3.35-4.62,5.59-4,5.41-12,11.45-15.87,5-3.2,7.62-9.42,13.71-11.47,0,3.22.74,6.59-2.65,8.94a4.53,4.53,0,0,0-1.35,3.33,8.14,8.14,0,0,0,1.31,3.4c.09.19.93.14,1.35,0,3.72-1.36,4.7-11.13,11.29-3.65,3.29-3.09,6.62-6.15,9.78-9.38.2-.2-.82-2.38-1.48-2.49a33.77,33.77,0,0,0-6-.13v-8.19c2.84.1,4.2-1.27,4.1-4.1,2.83.1,4.2-1.26,4.1-4.1,2.83.1,4.2-1.26,4.09-4.1,4.77,0,9.6.5,14.26-.2,2.45-.36,1.5-2.6,0-4.14-.62-.62-.61-1.87-.88-2.83,8.11-1.14,11.75-8.21,17-13,5.51-5,10.47-10.7,16-15.77,4.88-4.5,8.28-11.33,15-12.94,6.13-1.47,7.43-9.65,14.82-9,1.75.14,3.87-3.5,5.73-5.48,2.86-3,5.47-2.81,8.51,0,1.29,1.17,3.47,1.37,5.25,2,3.35,1.2,3.32,4.18,2.64,6.59-2.68,9.52-6.53,18.15-16.81,22.2-4.78,1.89-4.62,3.41-.95,8.72a18.09,18.09,0,0,1,1.47,3.46c-1.37.89-3.38,1.48-3.94,2.73-.68,1.54-.16,3.62-.16,5.47-2.84-.1-4.2,1.26-4.1,5,0,.31.24-.54-.07-.85a1.8,1.8,0,0,0-1.72,0c-1.35,1-3,2.12-.57,3.56.33.2,1.55-1.14,2.36-2.69,2.84-.81,4.2-2.17,4.1-5,1.36-.88,3.38-1.48,3.93-2.72.69-1.55.17-3.63.17-5.48,9.28-4.72,14.48-13.94,22.93-20.48,4.13,0,8.89.2,13.62-.07,3.4-.19,4.48,2.59,6.48,4.2,2.4,1.93,3,4.52,1.11,6.92-2.11,2.65-4.93,4.74-7.07,7.37-.68.83-.73,3.26-.08,3.85,1.33,1.17,4.52,2.57,4.86,2.16,3.43-4.12,12.86-1.53,11.88-10.49-.05-.43.89-1.37,1.38-1.38,8.76-.11,10.76-9.52,17.35-12.54,5.18-2.38,10.74-3.67,15.43-7.51,1.83-1.5,7.57-1.14,9.12.57,3,3.28,7.43,2.15,10.37,5.34,2.56,2.78,4.71,2.12,6.79.07,4.37-4.32,9-8.44,13-13.1,3.16-3.7,7.45-5,11.3-7.37s6.33-7.73,10.4-9.64c5.64-2.64,11.1-6.77,18.31-5.45,3,.55,4.64,2.18,6.64,3.86,2.32,2,3.78,4.93,1.83,6.88-5.24,5.26-5.55,12.9-9.9,18.53-2.73,3.52-3.1,8.51-7.28,11.34a21.89,21.89,0,0,0-8.69,12.73c-2.06,7.51-8,12-13.12,17-2.46,2.43-.84,5.14-3.52,10.81a26.92,26.92,0,0,1-2.19,3.1c1.44-1.42,3-2.76,4.27-4.28.33-.38.05-1.3.05-2-.67,0-1.35,0-2,0-5.54.19-10.06,4.34-10.23,9.48a2.8,2.8,0,0,0,.87,1.62c.36.41,1.25,1,1.36.87a73,73,0,0,0,7.89-8.82c9.8-4.61,11.19-15,19.53-15.45,5.41-5.06,10.88-10,16.2-15.2s10.87-10.36,15.83-16c2.93-3.31,5.8-7.19,7.06-11.31s2.93-7.24,6.06-9.78c2.26-1.84,3.55-3.94,3-6.95s.46-5,2.67-7.11c3.42-3.2,8.06-6.39,9.18-10.41,1.26-4.5,4.31-6.59,6.84-9.48,3.13-3.57,6.76-6.71,9.89-10.29.65-.75.36-2.74-.11-3.92a3,3,0,0,0-2.72-1c-1.74.74-3.19,2.78-4.88,2.93a133.68,133.68,0,0,1-14.3.12c-1.9,0-3.8-.4-6.58-.71,0-7.06.45-13.81-.15-20.46-.43-4.81,2.2-7.28,4.92-10.34,4.2-4.73,11.05-20.71,12.81-27.71.4-1.24-.51-.69-1.14.09a1.75,1.75,0,0,0,0,1.72,1.73,1.73,0,0,0,1.72,0,8.19,8.19,0,0,0,1.86-2.42c.08-.15-.79-.82-2.46.59-6.71,5-13.52,6.33-17.22,11.92-4.24,6.42-12.62,6.55-17.23,12.67a82.6,82.6,0,0,1-15.73,15.69c-4.15,3.15-3.2,8.47-6.93,11.49-3.13,2.54-5.75,5.7-8.66,8.53-4.15,4-13.31,4.37-17.86.38-1.5-1.32-3.93-2-1.67-5.8,5.47-9.08,9.71-18.9,15.64-30.3.4-1.24-.51-.68-1.14.1a1.23,1.23,0,0,0,1.74,1.73,8.15,8.15,0,0,0,1.86-2.41c.08-.15-.79-.82-2.46.58-3.7,2.43-6.4.82-8.81,3.27-10.47,10.68-21.17,21.16-31.68,31.82-4.16,4.22-8.33,8.3-14.21,10.07-1.81.55-4.3,2.24-5.24,1.6-2.62-1.8-6.17-4.38-6.45-7-.47-4.31-1.14-8.72,1.5-13.51,8.81-16,16.37-32.67,24.85-48.85,2-3.89,2.59-8.87,7.05-11.4s2.37-9,7.18-11.35c.27-.12,0-1.29,1.23-3.85.4-1.24-.51-.68-1.14.1a1.22,1.22,0,0,0,1.73,1.73A8.15,8.15,0,0,0,521,654c.09-.16-.79-.83-2.45.58-3.71,2.44-6.64.58-8.8,3.32-4.1,5.2-11,8.26-12.77,15.16-1.55,5.93-9.67,7.63-8.92,14.75-7.69,5.62-10.05,15.3-17.2,21.66-12.21,10.87-23.33,23-34.91,34.55-3.38,3.37-6.37,7.32-10.25,10-3.57,2.44-9.46-.82-12.61,4.39-.41.67-4.57.36-5.16-.61-2.1-3.49-6.11-2.14-8.64-4.2C388.8,745,387.6,738,394.41,724.15c-1.73-4.75,4-6.38,4.37-10.54.27-3,3.71-5.76,3.61-8.55-.15-4.54,2.48-7.23,4.28-10.64,2.05-3.89,2.46-9.08,5.33-12,4.27-4.34,6-10.33,10.1-14.24s4.38-9.47,8.43-13.05,8.24-7.31,11.48-11.63c2.49-3.33,2.72-8.57,8.59-8.33a64.66,64.66,0,0,1,5.48-10.09c3.42-5.05,8.91-5.81,13.29-8.07s10.4-1.25,15.71-1.42a4.62,4.62,0,0,1,3.3,1.73c3.28,4.44,8.5,5.88,12.7,8.83s8.41,6.52,8.95,12.57c.16,1.8,1.74,1.64,2.78-.18,2.18-3.78,7.78-1.67,9.9-5.78,3.15-6.09,9-4.9,14.3-5,3.06,0,5.5.79,4.9,4.41-.52,3.21,7,4.91,1,9.4C537,645.93,535,653,533.6,660.19a34.2,34.2,0,0,1-5.46,12c-3.62,5.37-9.55,8.56-11.89,15.61-1.71,5.15-4.7,10.33-7.36,15.3-1.9,3.56-4.54,6.4-3.79,11.66v-.91c-.61,0-1.39-.24-1.79,0-1.35,1-3,2.12-.57,3.57.33.19,1.56-1.15,2.36-2.7,4.67-1.22,6.28-5.53,9.12-8.12,5.48-5,9.78-11.83,16-15.28,6.52-3.6,11-9.31,16.92-12.9a106.2,106.2,0,0,0,12.55-8.75c4.73-3.84,14.6,1.23,15,7.42.27,4,0,8.09,0,13,0,.3.24-.54-.06-.85a1.8,1.8,0,0,0-1.73,0c-1.35,1-3,2.12-.57,3.56.33.19,1.55-1.15,2.36-2.69,5.61-3.92,11.69-6,16.28-10.88,4.41-4.73,8.36-10.13,15.45-11.81,2.06-.49,4.73-3.69,4.89-5.81.35-4.69,2.77-4.61,6.32-5.57,2.55-.69,4.83-4.44,6.12-7.33,4-9,12.34-13.89,18.63-20.66,1.27-1.37,5.27-.7,7.86-.2s6.53,6.67,6.37,9.31c-.11,1.93.14,4.39-.92,5.66-6.18,7.44-6.85,18.42-15.67,24.1-3,1.92-3.36,5.22-4.52,8.3-1.54,4.08-3.85,8.5-7.15,11.12-4,3.2-3.6,8.29-6.91,11.59-2.66,2.66-2.56,7-5.46,10.06-1.69,1.81-.31,6.5-.31,10.8V718c-.61,0-1.39-.24-1.8,0-1.34,1-3,2.12-.56,3.56.33.2,1.55-1.14,2.36-2.69,5.69-3.84,12.2-5.62,16.19-11.06,3.31-4.51,8.35-6,12.78-8.69,5-3,6.84-10.43,14.25-10,3.83-3.52,6.69-8.47,12.77-8.67C674,669.86,685,666,689.47,657.09c.56-1.11.32-2.8,1.09-3.6,5.67-5.89,13-10.79,16.88-17.63,4.09-7.12,9.33-12.72,14.89-18.27,4.54-4.53,14.4-1.58,16.27,4.75.34,1.15.26,3.17-.47,3.78-6.75,5.66-9.32,13.72-13.09,21.2-2.58,5.12-4.68,10.88-9.87,14.4-.25.17.35,1.92.86,2.74.21.33,1.37.42,1.88.18,6.83-3.25,14.74-5.36,20.1-10.26,4.54-4.15,10.78-5,14.54-9.73,5.18,1.31,7.38-4.56,12.38-5,3.18-.29,5.7-6.88,9-7.33,5.67-.77,7.94-4.82,11.07-8,5.14-5.18,13.26-6.24,17.19-12.91,5.51.86,8.74-5.57,14.68-4.28,3.9.85,8.14.22,12.23.14,2.47,0,3.72,1.23,3.81,3.51.14,3.4.62,6.94-.13,10.17-.69,3-5.07,4.52-3.93,8.57-5.65,3.68-3.89,9.44-4.1,15.56v-.91c-.61,0-1.39-.24-1.8,0-1.34,1-3,2.12-.56,3.57.33.19,1.55-1.15,2.36-2.7,4.14-.77,5.4-4.61,7.77-6.77,5-4.59,9.72-9.58,14.54-14.4,7.86,1.44,9-10.1,16.89-8.75.39.07,1.41-.94,1.36-1.37-.72-7.72,4.74-6.2,9.3-6.65,1.67-.17,4-3.41,4.62-3a46.89,46.89,0,0,1,8.76,7.1c3.4,3.41,3.85,6,0,12.34-2,3.35-1.57,6.34-1.67,9.54,0,.93,1.31,2.36,2.33,2.76s3.06.46,3.87-.23c3.09-2.67,6.37-5.36,8.63-8.68,2.56-3.79,7.54-2.21,10-5.68,6-8.31,15.61-11.32,24.11-15.89,6.77-3.65,9.07-3.25,14,1.46a65.75,65.75,0,0,1,5.72,5.85c.72.89,1.26,3.15.78,3.58-4.33,4-3.21,9.68-5,14.37A42.38,42.38,0,0,1,943.55,642c-3.48,4.17-8.18,7.4-11.31,11.78-2.5,3.48-3.5,8-5.06,12.18-1.69,4.45-7.64,5.67-8.2,10.93-.08.67-.3,1.68,0,2,.76.67,2.4,1.61,2.68,1.36,3.51-3.24,7.26-6.35,10.1-10.13,3-4,7.86-4.51,11.38-7.23s6.28-6.25,11.33-7.44a23.28,23.28,0,0,0,11.2-7.12c2.93-3.3,7.33-3.06,10-5.72,3.34-3.34,8.75-2.57,11.57-7s8.57-6.33,13.16-7.34c5.89-1.3,7-7.8,12.85-8.82,4.19-.74,8.3-3.22,11.86-5.75s6.29-6.27,11.36-7.4c3.55-.79,4.73-6.61,9.28-7.05,3.27-.32,6.27.17,9.26-2.62,3.71-3.46,9.09-1.78,13.55-1.25,5.05.6,8.07,9.84,4.81,15.14-3.66,6-5.73,12.76-9.88,18.48-1,1.3-1.35,4.65-.56,5.3,6.5,5.31,3.08,9-1.45,13-3.08,2.69-5.82,5.76-8.72,8.64q-6.52,6.48-13.07,12.94c-7.38-.27-9.27,7.09-14.22,10.16-2.11,1.31-4.71,1.82-6.94,3-6.79,3.55-7.87,3.54-11.35-.71-3-3.64-3.63-9.69.12-12.32,5.37-3.75,5.42-10.47,9.92-14.5s8.5-8.91,13.14-12.89c5.67-4.86,8.52-11.33,12.71-19.68.4-1.24-.51-.69-1.14.1-.3.37,0,1.17,0,1.78.61,0,1.42.25,1.78-.05a8.28,8.28,0,0,0,1.86-2.41C1045.62,621.08,1044.75,620.41,1043.09,621.82ZM312.51,861.37c2.84.1,4.21-1.27,6.49-7.87a15,15,0,0,0-2.34,2,1.75,1.75,0,0,0,0,1.72,1.73,1.73,0,0,0,1.72,0,8.33,8.33,0,0,0,1.86-2.42c.08-.15-.79-.82-3.65,2.47-2.83-.11-4.2,1.26-4.1,5.92,0-.61.24-1.45-.06-1.76a1.8,1.8,0,0,0-1.73,0c-1.35,1-3,2.12-.57,3.56C310.48,865.16,311.71,863.82,312.51,861.37Zm226-57.37c-.64,0-1.4-.23-1.88,0-1,.57-2.6,1.3-2.73,2.16-.6,3.79,2.54,1.74,3.69,1.71,1.36,0,2.69-1.42,4-2.22-1-.57-2.07-1.14-7.84,2.4-2.84-.11-4.2,1.26-4.1,4.09-2.52.55-5.23-1.07-7.64,1.39a119.91,119.91,0,0,1-21.16,17.79c-7.85,5-13.74,13.12-20.49,19.87-2.89,2.89-5.69,5.88-8.7,8.65s-12.9,1.84-16.59-1.4c-1.93-1.7-4-3-.89-5.93,1.68-1.55,1.69-4.78,3.11-6.78,1.93-2.72,4.68-4.85,6.69-7.52.59-.79.16-2.66-.3-3.84-.72-1.85-1.67-1.77-2.86-.58q-20.89,21-41.91,42c-.49.48-1.16.87-1.42,1.46-2.46,5.4-7.26,9.54-9.64,14.45s-5.77,8.62-9.19,12.52c1.46,7.35-7.55,8.5-8.61,14.92-.94,5.66-5.66,8.72-12,7.76s-10.88,2.06-12,7.69c-.83,4-6.1,5.8-4.4,10.51Q348,958.92,334.38,972.7c-1.9,1.93-3.65,4-6.78,3.4-4.57,5.84-12,7.76-17.31,12.51-4.41,3.91-7.61,9.85-15.15,8.1-.86-.2-2.53,1-3.11,2-2.91,5-8.47,6-12.89,8.55-3.87,2.29-8.32,3.29-11.4,7.22-3.34,4.26-8.77,7.2-11.13,11.83a58.08,58.08,0,0,1-8.86,12.73c-.9,1-.4,3.68.14,5.36.24.73,2.24,1.31,3.4,1.24,2.55-.16,5.58,1.29,7.5-1.55,1.74-2.58,4.77-1.85,6.94-3,4-2.1,5.26-8.17,11.16-7.71a2.64,2.64,0,0,0,1.66-.86c1.49-1.39,2.91-2.87,4.36-4.32,3.37-3.37,7.17-6.43,10-10.21,3.39-4.5,9.73-4.2,12.84-8.62,2.49-3.55,6.56-3.95,9.84-5.89,2.84-1.68,4.95-4.57,7.38-6.93,4.72,1.7,6.22-4.69,10.59-4.21,1,.12,2.28-1,3.31-1.75,3.15-2.22,4.86-5.79,9.57-6.73,3.38-.67,6.57-4.62,8.86-7.81,2.63-3.67,7.19-3.14,10-5.74,6-5.6,10.73-13.23,17.65-16.85,8.06-4.22,13.48-10.6,19.73-16.4,5-4.62,10.3-9.14,14.33-14.55,3.89-5.23,6.06-1.3,9.14.23,5,2.49,7.33,8.64,3.68,11.67-9.36,7.76-13.14,20.13-23.07,27.32-7.17,5.2-8.69,14.86-15.9,20-1.82,9.37-11.31,16.3-8.66,28.93v-1.83c-.61,0-1.39-.24-1.79,0-1.35,1-3,2.11-.57,3.56.33.19,1.56-1.15,2.36-3.61,3.85-.73,8.78,2.13,11.5-1.51,5.35-7.17,13.95-9.83,20-15.77,4.24-4.12,10.1-5.4,14.55-9.68,3.72-3.59,10.33-4.47,14.93-7.66,5-3.49,10.31-2.74,15.13-1.46,2.31.62,5.92,3.34,5.83,7.46s0,8.15,0,14.06c0-.61.23-1.46-.07-1.76a1.77,1.77,0,0,0-1.73,0c-1.35,1-3,2.11-.56,3.56.32.19,1.55-1.15,2.36-3.61,5.22-.21,10.56,1.3,14.73-4.19,2.83-3.71,19.81-10.8,25.49-12.2,5.91-1.46,8.7-5,9-11,.34-7.12-1.55-14.36,3.77-21,2-2.55.78-7.74,1-11.72,5.74-2.69,1.18-9.41,4.48-12.34,3.84-3.43,1.43-8.1,3.31-10.93,2.18-3.29,2.67-7.61,5.35-10,3.23-2.9,1.82-7.54,5.49-10.22,3.34-2.45-.09-7.31,2.8-11.06,5.43-7.06,6.84-16.84,14.59-22.54.34-.25.11-1.29.12-2s.29-1.67,0-2c-.75-.68-2.42-1.63-2.66-1.4Q529,872.17,506.73,894.69c-2.57,2.61-5.11,3.9-8.79,3.62-4.07-.3-8.17,0-12.26-.08-4.46-.05-6.61-3.22-5.05-8.25.73-2.36,3.1-4.19,3.9-6.55,4-11.79,9.56-22.56,19.07-31,1.18-1,.51-4.08,1.65-5.32a20.25,20.25,0,0,0,4.54-8.44c.85-2.87,4.49-4.91,6.9-7.32,3.86-3.86,7.59-7.84,11.61-11.52,2.54-2.34.84-5.11,1.39-7.63C532.53,812.3,533.89,810.93,538.52,804ZM297.33,980.2c2.09.08,5,.18,7.89-2.73,7.37-7.49,14.37-15.23,23.91-20.64,5.84-3.32,11.5-8.8,13.44-16.58.36-1.45,6.29-1.9,6.34-3,.16-3.84,2.31-6,4.47-8.5.67-.78.53-2.86,0-3.92-1.34-2.55-2.6-.53-4.28.13-5,1.94-9.85,4.24-12.53,8.84-3,5.19-9.24,4.55-12.94,8.47-7.9,8.4-16,16.71-24.54,24.4-3.3,2.94-1.76,7.76-5.55,10.09-.86.53-1,2.23-1.48,3.39,1.35,0,2.71,0,0,1.82,0-.6.23-1.45-.07-1.76a1.82,1.82,0,0,0-1.73,0c-1.35,1-3,2.12-.57,3.56C290,984,291.22,982.66,297.33,980.2ZM677.2,848.54V845c-2,0-4.9-.84-6,.19-1.66,1.61-1.62,4.89-3.18,6.71a77.1,77.1,0,0,1-11.58,11.55c-4.54,3.43-3.61,10-8.56,13-7.1,4.33-7.66,13.86-14.41,18.68-1.17.84-1.41,3.63-1.28,5.47a7.9,7.9,0,0,1-3.09,7c-.32.28.33,1.93.84,2.76.21.33,1.35.41,1.88.18,2.89-1.28,5.6-3.26,8.6-3.91,3.26-.7,6.95.45,10.13-.42,2.74-.74,1.23-3-.37-4.1s-1.8-1.86-.55-3c4-3.51,3.08-10.22,8.63-12.93,1.33-.65,2-3.19,2.47-5a80.27,80.27,0,0,1,14.92-28.67c1.12-1.41,1.35-3.53,3.9-11.31a14.42,14.42,0,0,0-2.33,2,1.22,1.22,0,0,0,1.73,1.73,8.15,8.15,0,0,0,1.86-2.41C680.93,842.36,680.06,841.69,677.2,848.54ZM348.46,849.9c-.81-.08-1.51-.36-1.74-.14q-8.73,8.61-17.38,17.32c-1.55,9.65-10.94,13.08-15.78,20.08-1.68,2.43,1.3,2.25,2.89,3,7.64,3.52,10,7.53,8.36,13.6-6.75,3.75-1.35,13.29-8.12,17.19-.59.34-.08,2.59-.08,4,0,.68-.26,1.63.08,2s1.74.33,1.9,0c2.81-5.11,9.91-3.58,13-8.54.93-1.52,1.67-1.86.14-3-4.71-3.52-2.24-8.68-2.79-13.14-.41-3.35,2.87-4.28,4.45-6.31s3.39-3.55,3.92-6.62c1.11-6.44,5.57-14.36,9-18.72,1.18-1.49,3-3.26,2.92-4.84-.22-5.28,1.42-10.73-32.62,63,0-.61.24-1.46-.07-1.76a1.78,1.78,0,0,0-1.72,0c-1.35.95-3,2.12-.57,3.56C314.58,930.73,315.8,929.39,348.46,849.9ZM204.29,1033.47c.54,0,5.27.88,8.34-1a64.92,64.92,0,0,1,15.45-7.23c4.48-7,13.81-7.64,18.64-14.14,2.72-3.67,7.44-5.46,8.67-10.75.67-2.88,4-5.07,5.73-7.81s2.52-5.92,4.48-8.31c3-3.67,6.23-7.43,10.12-10,4.38-2.92,2.8-9,7.12-11.45s3.94-8.25,7.28-11.25c3.55-3.2,5-7.5,7.45-11.19s2.21-9.15,6.75-11.59c-.7-4.87.32-9,3.94-12.75,1-1,.21-3.94.14-6-.08-2.33-1.32-3.45-3.72-3.63-4.22-.32-8.17,0-10.55,4.12-1.57,2.73-2.39,6.08-4.45,8.32a224.38,224.38,0,0,1-18.81,18.71c-3.22,2.77-7.69,4.46-11.88,5.66-10,2.84-14.77,5-20.23,10.36-2.91,2.86-5.78,5.77-8.67,8.66-3.37,3.37-6.85,6.64-10.08,10.14-2.6,2.84-1.77,7.67-5.78,9.88-6.81,3.73-7.59,12.15-13,17.08s-5.82,12.67-10.11,18.27c-3.23,4.21-1,9.11-1.4,13.67-.06.63,1.84,2,2.94,2.1C195.36,1033.68,198.1,1033.47,204.29,1033.47ZM488.76,639.39a10.49,10.49,0,0,0-6.33-7.13c-2.54-1-6.59-1.86-9.47,1-10.55,10.58-21.18,21.07-31.6,31.77-1.18,1.21-.82,3.85-1.91,5.25-2.45,3.16-7.24,5.7-7.69,8.95-.76,5.61-5.75,7.28-7.53,11.26-1.61,3.6-2.73,7.16-5.9,9.82-1.42,1.19-3.57,3.68-3.17,4.57,2.87,6.34-5.33,9.16-4.3,14.7-6.72,3.18-1.36,11.77-6.91,15.46-1.58,1-1.1,1.54.22,3,4.92,5.33,11,6.3,15.42,1.87,13-12.92,25.51-26.39,39.09-38.68,7.05-6.37,9.74-15.62,16.89-21.79,1.95-1.68,1.39-6.23,4.5-8.17-1.21-2.09-3.1-4.07-3.49-6.3-.54-3.14.22-6,2.15-9.26,2.68-4.47,4.89-9.05,8.88-12.6C488.41,642.4,488.37,640.75,488.76,639.39Zm-86.1,211.73a7.26,7.26,0,0,0-1.62-1.53c-.33-.15-1,.21-1.41.48-5.77,3.78-5.66,11.61-11.4,15.82-5.37,4-9.55,9.52-14.25,14.38.76,5.93-5.41,7.27-7.39,11.24-1.41,2.84-1.34,6.4-4.47,8.35.73.83,1.3,2,2.22,2.42,1.67.84,3.9.85,5.26,2,3.19,2.67,3.29,1.39,4.6-1.85,2.13-5.22,3.74-11.1,8.49-14.81,2.89-2.27,2.91-5.67,4.45-8.38,1.62-2.86,5.82-4.54,6.73-7.42,1-3.28,3.68-5.81,4.2-8.41.74-3.63,2.57-5.84,4.49-8.47C403.2,854.05,402.66,852.31,402.66,851.12Zm-20.72-33c-.49-.48-.9-1.25-1.47-1.39-1.26-.3-3.21-.92-3.83-.32q-11.75,11.22-23.06,22.87c-.62.65-.43,3.26.25,3.76,1.46,1.07,3.47,1.44,5.3,1.89.42.1,1.21-.54,1.56-1,3-4.24,7.58-6.76,9.64-12.39C372.23,826.31,377.92,822.51,381.94,818.1ZM570.67,933.82c0-1.43.3-2.9-.1-4.13-.31-1-1.48-1.65-2.37-2.33-.07-.05-1.3.87-1.33,1.38a13,13,0,0,1-2.78,7.11c-2.52,3.54-3.9,7.88-5.68,11.93a2.58,2.58,0,0,0,.25,1.9,5,5,0,0,0,1.35,1.41C565.3,946.39,572.56,942.86,570.67,933.82Zm-193.18-94.4L376,836.78c-.46.45-1.36,1-1.28,1.35a12.42,12.42,0,0,0,1.28,2.75Zm51.22.87,2.64-1.46c-.46-.46-1-1.36-1.35-1.28a12.22,12.22,0,0,0-2.75,1.28ZM274.18,897.65l1.45-1.45a12.71,12.71,0,0,0-2.75-1.29c-.33-.07-.89.83-1.34,1.29Zm298.53,21.08c-.45.46-1.35,1-1.28,1.35a13.4,13.4,0,0,0,1.28,2.75c.46-.45,1.36-1,1.29-1.35A12.94,12.94,0,0,0,572.71,918.73Z"/><path d="M596.34,519.13c-3.14,5.64-4.25,6.42-8.36,3.8-2.55-1.62-4.05-5-7.18-.81a5.9,5.9,0,0,1-4.08,1.87c-5.77.21-11.62-.5-17.3.25-6.16.81-12.4-2.28-18.7,2.85-5.79,4.73-14.14,1.49-21.34,1.88-6.58.35-13.27-.52-19.72.43-3.24.47-1.33,3.36.42,5a6.66,6.66,0,0,1,1.72,1.76c1.42,3.14-.38,7.72-3.05,7.74-9.07.06-18.15-.18-27.22.1-5.43.17-11.72-2.25-15.61,4.06L429.41,548c-3.34-5.3-6.07-2.71-8.75.66-7.09-8.34-16.61-4-25.08-4.58-8.21-.6-16.49-.06-24.74-.17-2.31,0-4.8.88-6.8-1.64-1.08-1.36-2.14-4.37-5.26-1.33-3.3,3.22-5.51,7.85-11.46,8.28-2.59.19-5.77,3.32-7.18,5.93-2.22,4.09-2.65,9.29-7.22,11.8-4.86,2.66-4.31,8.21-6.64,12.19-3.21,5.48-5.91,11-10.77,15.32s-9.13,9.58-14.14,13.85c-4.17,3.55-6.46,9-13.08,10.32-5.09,1-9.17,6-15.37,4.77-1.07-.21-2.44,1.84-3.84,2.45-7.63,3.33-7.64,3.28-15.14-.58-3.4-1.75-7.14-3.07-10.08-5.4-1.83-1.46-2-1.7-3.7.11-6,6.35-13.89,2.31-20.9,3.05-1.8.19-4.12-2.06-5.78-3.63q-7.2-6.79-14-14c-3.45-3.65-8-2.49-11.48-1.65s-7.1,7.47-10,4.26c-4.15-4.57-10.63-3.42-14.21-8.31-2.89-3.95-6.92-7-10.36-10.6-3.91-4-4.42-11.51-.85-15.12,12.77-12.9,25.64-25.69,38.48-38.53,14.22-4.2,20.58-17.75,31.15-26.31.85-.68,1-2.27,1.43-3.43-1.45-.48-2.9-1.32-4.36-1.36-11.1-.32-19.74,3.08-27.69,10.76-3,2.87-5.63,6.08-8.8,8.69-8,6.61-13.94,15.18-23.54,20.61-9,5.07-15.59,14.23-23.44,21.37-1.61,1.46-4.14,1.89-6.16,3-8.14,4.25-16.34,8.42-24.35,12.91C99.75,584.7,95.11,585,90,580.45c-3.45-3-4.52-3-8.2.08-5.2,4.39-10,4.48-15.27.93-1.3-.88-2.39-2.14-3.78-2.83-6.34-3.11-9.33-10.29-4.71-13.8,6.2-4.71,8.46-11.72,11.53-17.73a51.26,51.26,0,0,1,9.27-13.43l49-49c1.17-1.17,2.29-2.39,3.51-3.49,4.8-4.32,13.44,1.74,17.08-6.93,2.8-6.66,9.73-4.74,15.23-4.57,3.81.12,5.67-2.29,8.32-4.05,1.53-1,5.37-1.05,6.38.08,3.11,3.47,6.77,3.47,10.87,4.06,6,.88,10.64,7.46,17.77,4.75,3.82,5.54,9.49,5.43,15.26,5,2.43,5,8.75,3.67,11.85,7.09,3.65,4,5.37.83,7-1.37,5.13-6.77,7.33-15.14,12-22.32,2.45-3.8,3.44-8.61,7.3-11.77,5-4.08,8-9.39,10.8-15.29,2.23-4.77,7.67-7.34,9-13.73.72-3.48,5.19-8.63,11.43-7.1,5.67-7.61,15.55-11.65,17.89-22.37.53-2.4,6.09-3.71,9.33-5.53-1-5,3-7.19,5.74-10,11.62-11.72,23.32-23.36,35-35,1.75-1.75,3.32-4.74,5.29-5,7.1-1.06,10.74-6.49,15.5-10.62,1-.86,3.08-.64,4.65-.58,3.33.14,6.29,0,8.73-3,2.64-3.15,5.77-5.88,8.69-8.8,5.83-5.83,12.51-11.07,17.24-17.69,4-5.54,14.86-3.48,14-13.51,4.5-6.45,14.12-9.09,14.07-18.92,4.07-3.66,10.06-3.83,13.85-8.6,2.81-3.55,5.34-8.25,11-9,2.11-.28,4.29-1.91,5.92-3.48,7.12-6.87,14.05-14,21.78-21.68,3.84,4.19,7.82,8.27,11.41,12.66.84,1,.49,3.13.38,4.72,0,.66-.8,1.32-1.34,1.89-4.47,4.76-11.13,8.8-12.91,14.41-2.24,7-7.68,10.18-11.68,15a132.83,132.83,0,0,1-13.95,14c-5.48,4.84-5,13.76-12.19,17.26-1.63,6.5-13.84,2-12.28,11.82-5.69,3.72-4.17,12-9.91,15.69.67,5.15-1.67,6.3-6.69,7.4-7.94,1.73-6.85,12-12.41,16.52a14.82,14.82,0,0,0,2.37,2.91,2.64,2.64,0,0,0,2.39,0,27.2,27.2,0,0,0,5.8-3.88c15.24-15.1,30.32-30.35,45.58-45.42,4-4,7.5-7.83,9-13.68.82-3.27,8.78.71,8.47-5.9-.24-5,4.25-6.62,6.78-9.55,3.23-3.74,6.94-7.06,10.44-10.56,4.08-4.08,7.76-8.73,12.37-12.09,4.39-3.21,4.1-8.46,7-12,1.92-2.38,4.77-5.2,7.46-5.5,4.92-.53,6.49-4.54,9.61-6.86,1.26-.94,3.14-3.2,3.39-3a28.09,28.09,0,0,1,5.34,5.11c3.42,4.24,3.69,9.59.38,13.16s-3.32,7.11-3.26,11.15c-3.43-.12-5.08,1.53-5,6.06,0,.37.29-.66-.08-1a2.15,2.15,0,0,0-2.09,0c-1.63,1.15-3.66,2.56-.68,4.31.39.23,1.87-1.39,2.85-3.26,3.43-1,5.08-2.63,5-6.06,3.44-1.65,6.78-4.4,10.35-4.73,7.9-.73,9.39-1,9.57,6.58.16,6.79.16,13.12-6.63,17.13-3.18,1.88-4.09,5-3.35,8.47,1.08,5-2.91,7.08-5.34,10.22-2.66,3.41-10.11-.08-10,8,0,3-4.8,6.05-7.29,9.19-2.89,3.64-8.47,5.6-7.34,11.91.12.65-2.25,2.4-3.56,2.52-3.52.3-5.2,1.07-6.46,5.21-2.24,7.39-5.77,14.58-12.12,19.69-4,3.18-2,7.52-2.4,11.38-.06.64.58,1.4,1,2,1.14,1.74,2.24,1.47,3.51-.6,1.64-2.66,5.65-3.61,5.38-7.69-.34-5,4.16-8.34,7-9.08,5.36-1.42,8.74-2.81,8.42-8.91,0-.55,1-1.63,1.67-1.67,13.69-.92,16.08-17.54,28.73-20.51,4.15-1,7.45-6,10.91-9.35,8.25-8.08,16.9-15.86,24.37-24.62,5.91-6.95,13.14-5.12,20.18-5.19,2.92,0,9,9.17,7.62,11.23-2.7,4-5.21,7.49-5.14,12.9.05,3.42-3.79,6.73-4.45,10.36-1,5.6-6.22,7.28-8.86,11.22-.43.65-1.16,1.31-1.17,2,0,1.57-.28,4,.56,4.56,1.83,1.22,5.14,2.73,6.35,1.91,4-2.7,7.14-8.82,10.95-9.1,5.46-.41,7.48-5.56,12.73-5.88,4.25-.26,7.36-5.57,12.43-5.58,4.34-6,10.8-9.36,17.29-12.06,5.62-2.35,10.36-6.85,16.83-7.19,3.77-8.12,14.72-.95,18.66-8.75,4.84-.25,9.68-.58,14.53-.75,3.3-.11,6.79-.72,9.87.12,7.89,2.16,14.24-2.48,20-5.61,4.65-2.53,10.44-3.3,14.26-7.68s11.52,1.32,15.31-5.18c.78-1.33,4.34-1.21,6.65-1.46,8.54-.93,17.54,2.26,25.45-4.67,2.34-2.05,9.16-2,11.89,0,9.61,6.85,20.15,4,30.35,4.64,5.51.36,10.64-.62,15.82,4.1,4.35,4,12.32-1.51,18.21,3.64,3.88,3.39,9.27,5.45,14.33,7,6.9,2.1,9.9,8.27,14.5,12.63s11.78,7.21,10.11,15.5c-1.23,6.12,7.22,8.51,5.2,15.34-1.74,5.88,2.42,13.25-4.46,18a2.32,2.32,0,0,0-.64,2.13c3.58,9.47-5.4,16.36-5.09,25.21.19,5.54-6,8.67-5.4,15.32.39,4.59-3.35,10.18-6.6,14.26-3.46,4.36-2.91,10.88-8.47,14-1.87,1.05-3.16,3.52-4.18,5.6-3.76,7.67-5.9,16.36-13.41,21.66-6.42,4.53-9.09,13.52-18.91,14.43-3.16.3-5.94,5.36-8.77,8.36-6.2,6.54-14,9.43-22.66,11.18-5.11,1-9.85,4-14.64,6.37-1.4.69-2.75,3.38-3.53,3.15-7.15-2.13-11.93,3.35-17.85,5-3.06.84-6.58.35-9.85,0-1.41-.13-2.72-1.33-4.08-2,1-.94,2.16-2.77,3.09-2.68,6.12.6,11.17-.84,14.92-6.05,2-2.71,5.5-2.92,8-4.34,7.38-4.14,16.45-6.34,22.13-11.86,6.5-6.31,15.72-7.75,21.38-15.13,3.55-4.63,12.69-3.74,14.21-11.08,1.68-8.08,9.77-10.71,13-16.94,2.78-5.33,5-11.33,7.64-16.58,6.95-13.63,14.29-27.06,20.66-41,.94-2.06,4.33-2.89,3.41-6-2.28-7.74,6.78-12.4,5.11-20.26-2.14-10.05,4.27-21.76-4.1-30.41-6.4-6.62-16-9-24.13-13.32-5.74-3-12-6.61-20-5.87-6.52.62-12.37-5.8-20.22-4.73-8.1,1.1-16.47.24-24.72.24-7.43,0-15.08,1.13-22.22-.32-6.86-1.39-9.43,7.23-15.29,5.15-6.81-2.42-9,7.42-15.32,5.07-5.8-2.15-8,4.31-12.77,5.21-7.15,1.34-10.6,6.38-9.92,14.16.51,5.73.07,11.54.11,17.32.06,8.43,1.55,9.27,9.83,5.47.7-.32,1.15-1.6,1.77-1.64,6.35-.37,11.84-2.58,17.59-5.48s11,1.2,14.32,6.27a7.28,7.28,0,0,1,.08,6.48c-1.7,2.65-5.4,6.86-6.84,6.36-8.33-2.93-12.95,5.48-20.36,5.63-6.8.14-12.53,6.93-20.24,4.66-7.9,4.12-16.21,5.54-25.19,5.16-5.21-.22-7.09-7.2-12.79-5.16-2.58-4.65-6.6-9.08-7.34-14-.76-5.1-2.73-11.17,2.31-16.24,2.57-2.58,3.34-6.86,5.48-10,1.82-2.66,4.69-4.6,6.55-7.25.73-1.05.34-3.29-.25-4.7-.29-.7-2.65-1.4-3.28-1-10.74,7.57-24,10.41-34.46,18.47-5-.89-7.56,3-9.77,6-2.75,3.82-7.3,2.87-10.32,5.19-8,6.17-17.68,9.35-26.09,15.14-8.68,6-16,13.08-23.95,19.67-5.38,4.46-12.55,6.46-17.19,12.31-2.38,3-5.21,7.87-9.66,5.8-4.12-1.92-8.05-4.37-12.28-6.25-1-.44-1.51-4.85-.55-6.33,6.68-10.36,10.9-22,17.53-32.35,2.14-3.33.88-6.26,1.55-9.31,3.43.13,5.08-1.52,6.4-7.23.48-1.5-.62-.83-1.38.12-.36.44-.06,1.42-.06,2.16.74,0,1.72.3,2.16-.07a10,10,0,0,0,2.25-2.92c.1-.18-1-1-3,.71-4.87,2.15-6.52,3.8-6.4,7.23-7.5.81-9.17,11.61-17.84,10.41L549.7,350.19q-21.75,21.75-43.53,43.5c-2.45,2.44-3.61,2.36-8.38-.43-1.35-.78-2.34-2.24-3.71-2.94-6.91-3.53-8.45-7.22-5.34-13.81,1-2.07,2.43-3.91,3.48-6,.33-.65.39-2,0-2.35-.9-.82-3-1.9-3.19-1.7-5.84,7.41-15,11.7-18,22.1-1.32,4.63-7.37,10-12.13,11-6.69,1.44-8.71,6.9-13.81,10.35-2.63-2.64-5.41-5.34-8.1-8.12-5-5.16-5.33-5.39-1.3-11.81,2.45-3.91,1.81-9.58,6.81-12-.74-4.64,2.58-7.11,5-10.33,1.18-1.58.21-4.77,1.65-9.5.48-1.5-.62-.83-1.38.11a1.49,1.49,0,0,0,2.1,2.1,10.23,10.23,0,0,0,2.25-2.92c.1-.18-1-1-3,.71-4.59,1.47-5.76,4.17-7.39,5.8-17,16.89-33.89,33.83-51.65,51.6-3.23-3.63-6.48-7.24-9.66-10.91-2.58-3-3.48-11-.62-13.27,7.18-5.74,9.54-14.15,13.38-21.78a15.65,15.65,0,0,1,2.31-4c4-4.18,10.16-7.59,11.66-12.47,1.57-5.13,3.95-8.85,7.67-11.64,4.27-3.2,2.36-9,6.74-12.31s9.16-7.75,10.81-12.68c1.76-5.25,5.52-7.85,8.71-11.23,2.86-3,1-6.24,3.08-11.56.49-1.5-.62-.83-1.38.12a1.48,1.48,0,0,0,2.1,2.09,9.8,9.8,0,0,0,2.25-2.92c.1-.18-.95-1-3,.71C423.31,311.68,417,318.3,403,337.51c-.87,1.21-2.19,3.11-3.16,3-3.78-.3-6,1.72-8.27,4.14-4,4.17-8.12,8.17-12.2,12.25-4.66,4.66-9,9.66-14.06,13.87-4.12,3.43-9.78,5.2-13.43,9-7.12,7.39-15,13.82-19.94,23.72-4.21,8.38-13.51,14.16-20.3,21.33a11.24,11.24,0,0,0-2.66,6.23c-.58,5.62-.32,11.34-1,16.94-.3,2.38-1.87,2-3.42,0-2.81-3.68-6.26-5-10.11-1.18-2.92,2.91-6.18,5.56-8.62,8.82-1.77,2.36-1.76,6.22-3.74,8.21-4,4-2.77,11.08-8.58,13.84-5,2.37-3.13,8.78-6.92,12-.76.65-.72,2.25-1.05,3.42a19.85,19.85,0,0,0,4.43,1.16c2.39.08,6.05.67,7-.59,5-6.74,12-4.46,18.11-4.1,10.36.61,15.65.44,19.35-3.25,4.08-4.08,8.65-7.77,12.13-12.3,9-11.75,23.84-16.37,33.14-27.74,1.14-1.39,4.45-1.57,6.68-1.39,3.72.28,5.67-2.44,8.43-3.65,3.32-1.46,8.68-2.19,11.24-.44,3.37,2.31,7.24,3,10.31,5.06,3.93,2.63,1.13,7.59,1.68,11.48a30.53,30.53,0,0,1,0,7.4c-.59,5.39,1.92,11.19-3.42,15.95-4.2,3.74,1.67,11.77-5.33,15-.45,6.13-4.75,9.73-8.62,13.78-1.44,1.51-2,4.16-2.24,6.37-.1.82,1.78,1.87,2.75,2.82,6.1-6.71,12-6.77,18.83-.53,1.86,1.7,6.17.93,9.36.94,18.94.07,37.92-.72,56.8.33,10.93.6,22.78-5,33.06,3.71.77.65,4.72-3.61,7.33-3.81,7.37-.56,14.85.28,22.21-.32,8.51-.7,18.11,3.86,25.21-4.63,11.5-.06,23-.38,34.5,0C591.4,514.43,592.24,519.83,596.34,519.13ZM531.92,281.25c-3.85,0-7.71-.2-11.53.12-1.12.09-2.11,1.65-3.16,2.54a10,10,0,0,1,1.61,1.65c1.11,1.83,2.12,3.73,3.16,5.6-2.46,0-6.22-1-7.17.17-7.39,9.29-19.77,14.15-23.1,27.26-1.27,5-8.45,6.6-9.8,13.21-.84,4.09-7.84,7-8.57,11-1.15,6.43-5.31,9.68-9.19,13.48-2.94,2.89-1,6.18-1.63,11.42,0-.74.28-1.76-.09-2.13a2.15,2.15,0,0,0-2.09,0c-1.63,1.15-3.66,2.56-.68,4.31.4.23,1.88-1.39,2.86-4.36,2-1.15,4.27-2,5.86-3.51,6.42-6.23,12.63-12.69,18.91-19.07.44-10.51,10-14.28,16-20.15,7.52-7.31,10.31-17.82,18.52-24.47,1.2-1,.16-4.69.16-7.14,5.41-1.2,8.71-4.51,12.82-19.4-.55.26-1.47.42-1.57.8-.56,2.1-.8,4.28-1.36,6.37-.64,2.35.05,3.15,2.32,2.28a3.35,3.35,0,0,0,1.66-1.49C537.55,276.32,537,272.31,531.92,281.25ZM239.53,580.16c0-4.09-.32-6.61.08-9s-.11-3.37-2.53-2.43a3.47,3.47,0,0,0-1.72,1.7c-1.25,2.76-1.62,6.39-3.64,8.25-6.33,5.84-10.53,14.51-20.42,16.07-.74.12-1.7,4.49-1,6.32.78,2.1,3.49,3.39,4.94,5.35s2.37,2.27,3.55.38c2.37-3.79,4.68-3.37,7,.11,1.12,1.7,1.83.24,3.55-.44,8.6-3.4,2.48-12.58,7-16.88,3.59-3.42,3.34-7,6.14-25.46a18.17,18.17,0,0,0-2.82,2.39,1.48,1.48,0,0,0,2.09,2.1,10.09,10.09,0,0,0,2.26-2.92C244,565.52,243,564.71,239.53,580.16Zm4.95,7.89c0,1.75,0,3.39,0,5,.09,5,.77,5.71,4.87,2.76,6.91-5,16-5.61,22.25-12,4.34-4.37,7.5-10,15.23-11,4.83-.63,6.43-8.67,13.3-9.4,6.29-.66,7.63-10.21,15.64-10,2.32.06,5.24-3.71,6.94-6.34,1-1.57.61-4.46,0-6.5-.27-.89-2.61-1.34-4.07-1.65-5.26-1.07-8.68,2.21-12.93,4.57-4.56,2.54-11.33-2.06-16.17,2.43-5.63,5.22-12.36,2.23-18.55,2.75-6.67.56-10.9,4.15-11.32,10.09-.27,3.95-3.26,4.53-4.29,6.76-1.62,3.5-1.87,7.51-5.44,10.09C245.78,578.69,243.34,582.69,244.48,588.05Zm114-118.48c-.54-1.37-.86-3.75-1.67-3.93-3-.68-3.46,1.52-3.28,3.93-2.45,0-5.34-.8-7.2.24-1.54.87-2.1,3.84-2.65,6s-.27,4.76-1,6.95-2,2-3.43-.07c-.79-1.2-2.24-1.95-3.39-2.89-3.52,5.27-10.77,7.45-12.09,14.56-1.37.54-3.74.86-3.93,1.67-.67,3,1.53,3.46,3.93,3.28-1.74,6.75,2.85,10.32,6.87,14.46,3.58,3.7,7,6.45,12.63,5.47,3.19-.56,6.57,0,9.84-.17,1.47-.1,4.18-1,4.14-1.37-.88-9.32,11.71-11.13,11.13-20.14,5-3.29,3.95-10,8.1-13.95,4.66-4.46-1.67-13.6,6.69-17.05.5-.21.54-3.86-.29-4.48-1.73-1.31-5.19-3-6.17-2.2C371.15,464.21,364.35,466,358.46,469.57ZM180.22,496.66c-5.3-3.83-10.35-2.29-15-2.15-5.35.16-8.83,7.12-15.24,4.84a3.28,3.28,0,0,0-2.33.24,4,4,0,0,0-1.74,1.7c-3.53,7.18-12.82,6.33-17.13,12.22-4.89,6.69-12.4,9.55-18.84,14-5.17,3.61-8,9.23-10.92,15.08-2.76,5.57-8.74,9.51-13,14.44-.72.83-.14,3.18.41,4.61.88,2.25,2.45,2.45,3.38.56,2.47-5,8.88-2.4,12.15-6.8s7.62-9.61,12.49-11c5.38-1.58,7.49-5.85,11.48-8.2,4.58-2.7,9.52-4.78,14.28-7.19,2-1,4.3-1.9,6-3.39,3.67-3.28,6.49-8,10.67-10.1s8.56-3.43,11.83-7.2C172.21,504.25,176.25,500.63,180.22,496.66Zm99,22.1c-.08-.78.14-1.88-.29-2.31-3.36-3.29-9.45-2-11.85-7-2.74,4.42-8.26,3.78-11.8,6.57-.9.72-1.35,3.52-.7,4.4a53.73,53.73,0,0,1,6.32,12.2c.39,1,5.06,1.69,6.25.7,4.37-3.62,8.14-8,12-12.16C279.53,520.73,279.17,519.58,279.17,518.76ZM723.59,316.81c-.58,0-1.41-.25-1.71,0-3.56,3.44-8,6.46-10.24,10.63-1.66,3-.7,7.62-.4,11.47.06.69,2.6,1.61,4,1.69,5,.28,7-6.34,12.71-5.39,1.8.29,2.4-2.28.83-3.25-5.49-3.34-3.08-8.73-3.69-13.36C725,318,724.12,317.42,723.59,316.81Zm-542.9,271.7c3.3,0,6.62.21,9.89-.1,1.41-.14,4-1.65,3.87-2-1.28-5.66,5.51-7.74,5.43-12.72,0-.83.33-2.08-.07-2.39-1-.75-2.72-1.81-3.36-1.42-4.06,2.48-5.68,8.47-11.25,8.65-5,.17-7,7.06-12.76,5.31-.37-.11-1.73,1.42-1.62,1.61.65,1.13,1.47,2.79,2.47,3A42.38,42.38,0,0,0,180.69,588.51Zm58.84-58.2a6.13,6.13,0,0,0-.06-2.44,32.35,32.35,0,0,0-2.42-3.79c-.56.56-1.37,1-1.65,1.71-2,4.76-3.91,9.55-5.72,14.38-.2.52.41,1.38.73,2,1.1,2.27,1.86,1.92,3.46.07C237,538.74,241.12,535.91,239.53,530.31ZM294.3,529c2.39,0,4.79.11,7.17-.08.6-.05,1.7-1.21,1.59-1.59-.34-1.16-.91-2.8-1.81-3.15-1.39-.53-3.38.38-4.69-.23-6.92-3.19-6.87-3.29-10.2.33-.54.59-1.7,1.45-1.59,1.64.62,1.12,1.4,2.76,2.37,2.94A39.7,39.7,0,0,0,294.3,529ZM219,566.92l-1.76-3.19c-.55.55-1.64,1.22-1.55,1.63a15.58,15.58,0,0,0,1.55,3.32ZM413,363c-.55-.55-1.22-1.64-1.63-1.55A15.43,15.43,0,0,0,408,363c.55.55,1.22,1.64,1.63,1.55A15.43,15.43,0,0,0,413,363Z"/><path d="M847,449.9c-4.08,2.68-7.07.88-9.72,3.61-10.49,10.75-21.33,21.16-31.73,32-3.18,3.3-6.73,2.45-10.27,2.41-1.21,0-3.46-1.37-3.44-2.06.16-6.39-2.33-13.11,4.28-18.52,3.63-3,5.52-8.08,8.13-12.27,3-4.84,10.5-6.51,9.88-13.93,3.61-3.76,7.1-7.65,10.88-11.24s3.08-9.45,7.82-12.67,7.44-8.35,10-13.76c2.12-4.47,7.21-7.5,10.76-11.37.83-.91.87-2.63,1.07-4a3.23,3.23,0,0,0-.53-2,7.34,7.34,0,0,0-1.49-1.55c-3.78,3.57-7.5,7.2-11.21,10.85s-8.89,3.8-12.66,7.8c-13.9,14.75-28.39,28.95-42.91,43.11-4.23,4.13-3.4,11-9.35,14.38-4.41,2.5-7.58,7.19-11.29,10.91-4.25,4.25-8.44,8.57-12.78,12.71a16.76,16.76,0,0,1-5.25,3.59c-1.06.41-2.66-.59-4-.95.29-1.06.25-2.44.92-3.12,1.68-1.71,2.77-3.36.09-4.76-5.91-3.07-6-3-2.52-6.45,9-9,18.1-18,27.07-27.11,4.7-4.76,9.24-9.68,13.85-14.54-1-7.32,7.08-8.65,9.24-14.2,2.25-5.77,4-12,8.66-16.76,2.18-2.21-.37-6.61-3.45-6.61-22.53,0-45.07.21-67.59-.24-4.08-.08-8,8.7-12.1.35-4.49-.05-9-.11-13.46-.13-5.26,0-10.71.86-15.73-.23-6-1.31-9,4.61-14,4.66-19.53.18-39.06-.13-58.59.26-3.57.08-6.07-8.57-10.17-1.11-3.63.31-7.25.76-10.88.89-4.5.15-9,0-13.52,0H556.22c-4.5,0-9-.19-13.51.09-2.36.14-4.09,1.57-3.58,5.43,0,.33.26-.6-.07-.93a2,2,0,0,0-1.91,0c-1.48,1.05-3.33,2.33-.62,3.92.36.21,1.71-1.26,2.6-3,50.33-1,100.67-.79,151-1.28,6.39-.06,10.82,3.16,16.22,4.58,4.12,1.08,4,3.42,4.08,6.4.12,6.05-.69,7.29-5.28,7.31-12,0-24.09.7-36-.23-7.83-.6-13.62,3.6-20.34,5.61-.54.16-1.31,1.12-1.21,1.52a2.34,2.34,0,0,0,1.51,1.55,83.3,83.3,0,0,0,8.79.56q37.18.06,74.38,0c7,0,7,0,11.77,8.75.35.63,1.54,1.15,1.48,1.59-.17,1.1-.6,2.75-1.36,3-1.31.5-3,.14-4.45.14-4.51,0-9.09.52-13.5-.14s-6.41,2.5-9.3,4.35c-2.77-4.64-7.39-3.66-11.75-4.39-7.86-1.3-13.61,3.64-20.33,5.59-.52.15-1.25,1.13-1.14,1.52.18.63,1,1.53,1.5,1.55,8.2.25,16.4.36,24.6.54,5.2.12,7.58,4.08,9.46,7.9.6,1.23-.86,4.6-2.27,5.39-1.71,1-4.42-.05-6.62.28-9.91,1.46-20.83-3.84-29.7,4.46-15-.12-30-.21-44.93-.41-.53,0-1.06-1-1.59-1.53.94-.86,1.85-2.43,2.81-2.46,13.43-.37,26.87-.5,40.31-.79.54,0,1.42-1,1.48-1.54s-.84-1.44-1.4-1.52c-2.89-.37-5.83-.39-8.71-.8-6.29-.88-13.08,2.19-18.88-3.76-1.88-1.92-7.11-.69-10.81-.7q-40.56,0-81.13,0c-8.26,0-16.56.43-24.78-.13-7.77-.54-16.53,3.54-23-4.22-2.71,2.32-4.95,4.84-9.35,4.5-7.47-.57-15-.15-22.52-.15s-15-.12-22.54,0c-6.34.12-13.15-1.58-18.26,4.09-5-8.15-9,2.61-14.6.83-6.13-2-13.38-.45-20.14-.45-6,0-12-.38-18,.11-6.32.52-13.4-2.62-18.76,3.86-1,1.16-4.23.51-6.43.52-9.76,0-19.55-.41-29.29.16-7.76.46-16.53-3.59-23,4.24-4.49,0-9.08-.5-13.45.24-10.61,1.8-22.42-4.93-32,4.4-9-.05-18,0-27-.3-.74,0-2.16-2.42-1.95-3.45.37-1.86,2.19-5.15,2.61-5,10,2.85,17.84-6.08,27.52-4.89,1.81.23,4.06-1.07,5.76-2.19,8.1-5.34,16.85-7.3,26.55-6.87,4.84.21,10,2,14.75-2.48s11.42-1.16,17.19-1.73c5.21-.52,10.51-.11,15.77-.11,7.93-8.9,18.28-3.1,27.45-4.38,5.16-.72,10.5-.13,15.76-.13,6,0,12.2-.92,18,.25,6.12,1.24,8.84-4.75,14-4.75H584.84c6,0,12,.12,18-.09,1.24,0,2.44-1.27,3.66-2-1-.82-2-2.29-3.06-2.35-4.49-.27-9,.15-13.51-.18-5.64-.41-12.12,2.46-16.47-3.81-.31-.45-1.28-.51-2-.61a16.88,16.88,0,0,0-2.25,0c-6.76,0-13.52.13-20.28,0-7.38-.17-14.75-.62-22.13-.95-5.24-6.73-12.53-2.72-18.84-3.37-6.69-.68-13.51-.15-20.27-.15-4.51,0-9.05-.38-13.51.09-6.8.72-10.82-6.9-18.51-4.93-6.35,1.63-13.44.33-20.2.33H352.15c-6,0-12,.16-18-.05-5.26-.18-10.43-.53-13.91,4.56h-18c-5.26,0-10.86-1.14-15.68.31-5.39,1.62-9.93,5.31-16.28,4.35-5.34-.82-6.73-2.64-6.19-8.92.38-4.51,4.35-5.73,6.32-8.69,7.66,1.7,12.95-5.68,20.44-5.18,6.73.46,13.52.1,20.28.1h29.3c5.26,0,10.67-.77,15.73.21,5.42,1,7.19-4.75,11.7-4.73,12,.05,24,.09,36.06,0,5.74-.05,11.71,1.42,16.43-4.25,1.18-1.41,5.68-.14,8.64.09.57,0,1.12.95,1.59,1.53,4.62,5.62,6.3-4.13,10.62-2,3.1,1.55,6,7.1,9.12,4.37,7.24-6.27,15.35-3.87,23.15-4.16,10.5-.39,21,0,31.54-.22.67,0,1.45-1.77,1.85-2.84.11-.28-1.19-1.57-1.47-1.46-8,3.24-12.89-6-20.73-4.82-7.36,1.07-15,.23-22.51.23H266c-7.51,0-15,0-22.54,0s-14.95.17-22.42.27c-5.75,7.19-13.76,3.35-20.79,4.18-9.74,1.17-9.85,1.13-13.15-2.66-1.27-1.47-3.55-4.06-3.17-4.61,1.65-2.38,3.82-5.22,6.36-5.95,3.46-1,7.44-.38,11.19-.22s6.66-1.52,10-3.1c4.18-2,11.08-2.61,14.59-.36a20.85,20.85,0,0,0,12.22,3.43c15.77,0,31.55,0,47.32,0,4.47,0,8.91.55,12-4,.52-.77,3.46-1.08,4.08-.44,7.43,7.66,16.84,4.13,25.29,4.23,36.05.41,72.12-.15,108.17.42,8.35.13,18-4.4,25.15,4.18,6.41-7.91,15.22-4,23-4.22s16.37-2.75,22.92,4.3c4.92-.94,10.43,2.29,14.9-2.18.76-.76,2.87-1.55,3-1.34,4.54,6.17,11.05,3.4,16.65,3.42q90.15.25,180.3-.05c7.72,0,16.25,3.31,23.21-4,1.45-1.51,5.74-.36,8.73-.36,19.53,0,39.06.23,58.59-.14,6.39-.12,11.79.53,15.47,6.34,2.49,3.94,6.51,2.75,10.1,2.77,2.57,0,4.15-1.43,3.91-4.08s.94-4.56,3.24-4.78c4.35-.41,8.38.13,12.2-3.68,2.09-2.09,6.29-2.31,9.18-4.87,2.3-2,5.41-.34,7.57,2.18,1.88,2.22,4.72,3.93,3.84,7.39-.33,1.29-1.7,2.28-2.3,3.55-1.18,2.5-1.45,6-3.35,7.5-5.43,4.22-7.16,10.73-11,15.82-6.14,8.07-10.8,17.31-19,23.77-.75.59-.71,3.05-.17,4.26,1.1,2.5,2.58,2.1,4.59.33,1.46-1.28,3.88-1.41,5.74-2.32,1.27-.62,2.84-1.46,3.37-2.61,3.12-6.83,11.39-5.85,16-10.92,3.52-3.89,5.42-8.26,7.92-12.57,3.16-5.48,7.64-6.73,10.71-4.34,6.22,4.84,7.43,12,3.5,17s-11.63,7.43-11.32,15.56c-6,6.53-13.25,12.33-17.66,19.8-3.78,6.4-7.49,13.21-9.83,20.7-1.37,4.4-7.1,7.45-10.9,11.12-3.7-3.1-7.21-6.08-7-12.39.21-5.74,1.55-10.16,6.14-13.3,3.85-2.63,3.21-6.34,4.47-12.08.44-1.37-.57-.76-1.26.1a1.35,1.35,0,0,0,1.91,1.91,9.24,9.24,0,0,0,2-2.66C849.76,449.09,848.8,448.35,847,449.9Zm-23.43-56.53c-4.52.19-5,.85-4.93,6.91,0,.7-.28,1.68.08,2a2,2,0,0,0,2,0c2.09-1.84,4.07-3.82,6-5.82a1.88,1.88,0,0,0,.34-1.4c-1.11-.67-2.31-1.19-8.41,9.28,0-.67.26-1.6-.07-1.93a2,2,0,0,0-1.91,0c-1.48,1.05-3.33,2.33-.62,3.92C816.37,406.56,817.72,405.09,823.54,393.37ZM527,401.49c1.54.36,1.82.16,6.12-4.34.5-.52,1-1,1.53-1.53-1.13-.75-2.2-2-3.4-2.16-4.67-.52-6.82,2.06-5.57,6.42C525.82,400.49,526.52,401,527,401.49Zm295.5,43.07L820.86,443a14.31,14.31,0,0,0-1.41,3c-.08.37.91,1,1.41,1.48C821.4,446.48,821.94,445.5,822.47,444.56Zm-175.8,5.8c-.53-.94-1.07-1.92-1.61-2.9-.5.5-1.49,1.11-1.41,1.48a14.31,14.31,0,0,0,1.41,3Zm9-1.3-1.6-1.6a13.62,13.62,0,0,0-1.41,3c-.09.37.91,1,1.41,1.48Zm199.64,5.81,1.6,1.61a13.59,13.59,0,0,0,1.41-3c.09-.37-.9-1-1.41-1.48Z"/><path d="M381.77,1079.18c0-3.41-.34-6.87.07-10.24.91-7.46-3.14-15.74,4.34-22.16,6.26-5.37-2-16.26,7.32-20.84,2.22-12.75,8-23.8,13.91-35.31,7-13.62,13.16-27,24.52-37.79,6.08-5.78,6.3-16.43,14.74-21.09,3.17-12.64,13.49-19.83,21.76-28.58,2.35-2.48,6.75-4.72,6.91-7.28.69-11.4,12.43-15.2,15.71-24.36,4-11.13,11-18.19,22.27-22.22,4.7-1.67,8.06-7.12,12-10.85-3.66-14,7.12-20.59,15.34-27.7,7.78-6.74,11-16.12,16.86-23.86s14.6-12.82,17.4-23.69c1.46-5.7,8.5-10.64,14-14.48,9.68-6.72,10.81-18.84,18.42-26.68-.87-7.6,3-10,10-9.24.75.08,1.84-1.24,2.47-2.12,5.68-7.88,10.6-16.47,17.15-23.54,6-6.53,11.62-12.9,14.35-21.51,1.27-4,2.43-8.39,4.94-11.56a77.4,77.4,0,0,1,14.45-14.48c9.39-6.84,11.73-18.22,18.58-26.64,1.87-2.29,1.49-6.31,3.17-8.86,5.36-8.18,15.71-12,17.91-23.47C711.93,572.47,725,570,724,558.91c-.08-.92,3.37-2.21,5.24-3.23,2.65-1.46,7.83-3.45,7.66-4.14-3.16-12.54,5.35-19.4,13.22-25.35,7.65-5.79,6.72-15.92,14.06-21.89,6.55-5.33,12.9-10.9,15.53-20.84,1.95-7.41,13.2-11.49,13.71-21.55,11.72-7.48,12.69-23.23,24.1-31.09,5.55-3.82,7.94-9.71,10.19-16.26,2-5.85,8.09-10.23,12-15.51,1.87-2.5,2.74-5.73,4.46-8.37,4.8-7.33,14.83-10.47,16.18-20.67,1.22-9.19,15.21-10.58,13.62-21.69,7.07-5.64,5.42-16.75,13.6-21.79.51-.31-.16-2.22.11-3.3,2.86-11.7,15.85-15.37,20.47-25.69,4.35-9.73,7.29-20.17,15.68-27.73,6.5-5.85,7.57-15,13.88-21.89a123.06,123.06,0,0,0,16.9-23.52,219.08,219.08,0,0,0,10.81-22.77c1.58-3.91,5-7,4.32-11.91-.3-2.22-.8-5,.21-6.7,3.9-6.5,14.69-9,13.11-18.34-1.73-10.18,7.61-15.07,9.07-23.91,1.12-6.78,7.48-12.71,11.5-19-3.65-9.08,11-11.83,7.25-20.93,4.65-3.54,5.06-9.63,7.77-13.74,5.53-8.39,14.4-14.48,21.11-22.21,5.67-6.53,12-9.27,20.57-8.44,6.78.65,13.69-.24,20.49.28,3.53.27,4.11,3.6,5.43,6.89,3.22,8,8.7,15,6.66,24.68-.93,4.36-.57,9.12-.09,13.63,2.06,19.31-6.79,33.6-19.9,46.58-5.36,5.3-14.59,9-14,17.86.66,10.92-8.21,17.31-10.27,26.66-2.88,13.09-15.32,20.19-20,32.74-2.76,7.37-4.31,17.55-13.75,21.74-1.77.78-4.22,3.65-3.9,5,2.62,10.72-4.48,16.31-10.4,23.3-4.66,5.48-8.7,12.64-9.92,19.6C989,305.12,977.54,307,976.3,316.93c-1,8.27-10.08,11.55-14.57,17.83-4.35,6.08-7.07,13.76-12.45,18.54s-5.79,11.56-9.39,16.83c-4.85,7.1-8,15-13.86,21.88-4.94,5.78-9.06,13.95-11.42,22.39-1.35,4.81-6.61,9.15-11.08,12.32-6.86,4.87-8.36,12.56-11.85,19.16-4.08,7.69-7.5,15.42-14.45,21.46-8.51,7.39-15.86,16.1-23.71,24.24,1,12.55-16.68,15-15.11,27.92-7.2,7.08-15.58,13.57-12.36,25.73.16.58-1.25,1.84-2.17,2.41-4,2.5-11.31-.67-11.75,8.38-.23,4.85-3.59,10-6.61,14.17-4.51,6.27-9.32,12.66-15.2,17.55-7.94,6.6-12.2,15.42-16.51,24.07-3.42,6.86-5.74,14-12.26,18.89-3.61,2.7-9.33,6.44-9.23,9.56.38,12.07-13.71,14.4-15.11,24.75-.27,2-1,4.61-2.4,5.75-15.1,11.88-21.26,31.08-36,43.44-4.63,3.89-3.57,12.15-9.73,16.46-5.51,3.86-9.93,9.35-14.58,14.35A32.75,32.75,0,0,0,669,753c-3.23,6.62-5.11,14.1-9.27,20a74.11,74.11,0,0,1-16.8,16.92c-13,9.46-16.2,26.44-28.71,36.08,2,8.64-5.6,11.63-9.91,16.36a220.49,220.49,0,0,1-19.37,19.3c-6.11,5.23-4.82,14.17-11.75,19.34s-14,10.85-15.05,21c-.27,2.64-4.51,4.87-6.93,7.29-5.64,5.64-12.54,10.51-16.55,17.13-3.9,6.45-5.66,14.16-12.45,18.71-3.84,13.62-15.29,21.29-24.12,31-2.86,3.16-7.44,5.1-7,10.78.67,9.14-9.79,3.74-11.67,8.21-2,4.84-1.79,10.62-2.78,16-.17.93-1.44,1.75-2.34,2.42-12,8.92-13.58,24.24-21.94,35.29-2.51,3.3-2.13,6.22-2.15,9.41-.11,18.23-1.09,36.54.36,54.65.79,9.87-4.35,16.53-7,24.62-1.21,3.63-2.31,6.06-6.22,6.14-5.7.12-11.4.05-17.09,0-7.74,0-15,.81-21.44-6.42-8.14-9.16-15-18.75-16.73-30.73C380.72,1097.57,381.77,1088.3,381.77,1079.18Z"/><path d="M341.81,790.64,316.45,815c-2.05-1.85-4.21-5.34-7.11-6.13-30.32-8.33-39-12.44-56-29.68-6.27-6.37-12.76-11.84-21.42-14.38.92-9.46-7.74-12.78-11.9-19a93.86,93.86,0,0,1-8.59-16.88c-3.44-8.67-10.17-16.71-7.76-27.74,1.66-7.6,0-15.88.42-23.82.33-6-2.25-10.11-5.38-15-2-3.2,7-7,5.4-13.51-1.52-6.21.7-12.37-3.82-19.06-5.43-8.05-6.48-18.69,1.48-27.38,4.52-4.93,1.29-10.74,2.05-16.09-8.42-5.1-6.65-13.41-6.66-21.14,0-13.66,1-27.42-.28-41-1.56-16.18,6.06-33.39-6.16-48.74-2.77-3.48-.32-11.06-.42-16.75-.24-12.4-.57-24.8-.86-37.2-10.61-8.94-1.62-22.64-6.73-31.23-4.8-8.08-4.25-16.68-8.06-24.08-2-3.85-6.16-6.73-4.78-11.67,2.71-9.69-4.41-16.42-6.54-24.6-1.65-6.36-9.73-9.49-7.33-17.6,2.48-8.38-9.59-12.07-7.55-20.69-7.19-4.27-3.45-13.22-6.6-17.56-5-6.87-2.19-21.61-17.12-19.83l-9.62-23.33c-.83-6.37.16-12.21-4.13-18.94-4.85-7.61-6.83-19,2.49-27.33.8-.71,13-13.43,14.11-14C141,163.33,149,164,160.18,173.39c2.52,2.12,5.09,5.91,7.65,5.92,7.9,0,9.73,3.84,8.83,10.57,9.74,12.79,14.88,28,22.16,42,2.6,5,5.37,9.08,5.42,15,0,2.87,1.69,6.72,3.92,8.41,8,6.09,11.36,13.57,9.55,23.5-1.68,9.21,8.56,14.53,7.41,24.55-.76,6.62,8.82,12.32,6.28,21-2.19,7.48,3.26,12.24,6.79,17.64-4.84,15,9.23,26.58,7.36,41.63-1,7.89,9.14,14.28,6.67,24.51-1.81,7.53,0,15.88-.47,23.81-.46,7.2,8.88,9.51,7.27,17.73-1.5,7.67-.32,15.87-.32,23.84,0,6.83-1.39,14,.35,20.39,2.24,8.17,8.25,14.8,6.82,24.64-1.47,10-.33,20.44-.33,30.68,0,9.11,1.33,18.47-.35,27.25-1.93,10.06,8.46,15.06,7.43,24.59-1.09,10.12-.24,20.46-.24,30.7v27.32c11.12,13.65,4.8,30,7.12,44.94,1.09,7.09,5,13.79,8,20.49.88,1.94,3.11,3.27,4.71,4.88,6.44,6.44,12.34,13.59,19.47,19.13,7.42,5.76,6.78,16.7,14.45,21.32C334.68,774.93,330.86,787.52,341.81,790.64Z"/></svg>