<svg id="Layer_1" data-name="Layer 1" xmlns="http://www.w3.org/2000/svg" viewBox="0 0 1200 1200"><title>BB_Artboard 86</title><path d="M968.56,981.15c-5.79,6.61-2.79,14.53-2.5,21.65.41,9.81-11.65,16-6.79,26.61-6.72,5.08-10,14.73-19.15,16.21-5.71.92-7.62,3.56-6.78,8.23,1.7,9.33-4.26,15.18-10.75,17.61-8.67,3.25-15.06,6.4-15.62,16.63-.08,1.62-3.16,2.89-4.26,4.68-4.32,7-11.26,5.53-17.41,5-4.15-.36-10.61-10-10.66-14.37-.1-7.59.35-15.21-.13-22.78-.52-8.14,3.45-17.4-5.48-23.86-1.15-.83-.86-3.94-.89-6-.1-6.51-1-13.21.21-19.49,1.48-7.63-6.07-10.77-6.68-16.89-.43-4.3.05-8.68-.12-13-.21-5.59-2.87-8-7.78-7.08-3.42.64-5.32,2.33-5.3,6.44.17,30.38.12,60.77.08,91.15,0,13.61-5.54,19.35-18.67,19.59-3.26.06-6.61.47-9.73-.19-1.6-.33-3.82-2.58-4-4.13-.49-5.38-.19-10.83-.19-16.26,0-91.16.37-182.31-.34-273.46-.13-16.44,6.33-34.09-5.87-49.63-2.11-2.69-.09-8.46-.34-12.79-.76-13.43,2.84-27.26-6.08-39.9-2.56-3.63-.1-10.6-.58-16-.14-1.57-2.21-3.69-3.86-4.3-8.15-3-21.78,5-21.94,12.85-.23,10.85-1.36,21.92.37,32.49,1.27,7.78,7.9,14.08,6.37,23.46-1.38,8.46-.29,17.32-.29,26s.67,17.43-.18,26c-.89,8.94,10.37,13.08,7.18,23.51-2.44,7.94-.49,17.22-.49,25.9,11.77,16.36,6,35.06,6,52.64,0,9.28,9.51,13.69,7.43,23.43-1.77,8.3-.36,17.28-.36,26s-.31,17.37.17,26a14.68,14.68,0,0,0,3.75,8.1c4.75,5.39,3.16,9.73-1.68,13.44-3.36,2.58-3.21,7.73-2,8.59,8.82,6.37,4.74,15.64,6.6,23.57,2.08,8.82-6.82,12.7-7,20.16,0,1.77-1.79,4.91-3,5a129.93,129.93,0,0,1-19.43.18c-1.27-.09-3.11-2.93-3.39-4.71-1.26-8.07,3.2-17.39-5.78-23.8-1.14-.82-1.62-5-.71-5.89,10.76-10.78,6.26-24.36,5.79-36.5-.29-7.58-7.83-14-6.24-23.42,1.42-8.44.3-17.31.3-26v-26c0-8.69-1.82-17.88.44-25.93,3.1-11.08-8-16.91-7.11-26.74.74-8.61.15-17.34.15-26v-29.3c-11.85-16.35-5.35-35-6.13-52.66-.32-7.11-4.87-11.25-6.58-16.91-1.79-5.93-1-12.61-1.6-18.94-.06-.67-1.61-1.83-2.17-1.68-.91.24-1.59,1.38-2.34,2.16-3.62,3.77-7.53,6.71-7.43,13.29.47,30.38.28,60.77.12,91.15,0,4.54.38,8.39,4.34,11.29,4.41,3.23,1.54,8,2.23,12.06,1.15,6.76-14,10.37-3.72,18.94,7.26,6.05,3,14.13,3.6,21.26.67,7.53-.91,15.37.41,22.73,1.79,10,8.08,18.64,6.59,30-1.54,11.73-.34,23.82-.34,35.76,0,10.85.07,21.71,0,32.56-.05,6.43-.62,12.64,5.64,17.4,1.67,1.27.87,6,.87,9.2q.07,50.46,0,100.92c0,9.43-4.9,15.37-14.5,17.15-4.06.75-8.5-.71-11.72,3.38-.87,1.1-3.51,2.17-4.42,1.65-6.17-3.54-12.14-7.46-18.09-11.37-4.36-2.87-2-8-3.61-11.5-2.83-6.27,11.23-8.57,2.84-15.36-5.13-4.16-2.39-10.13-2.44-15.18-.28-30.39.6-60.8-.48-91.14-.47-13.23,6.51-28-6-39.88-1.62-1.55-.22-6.27-.22-9.53,0-9.77.2-19.54-.06-29.3-.24-9.14,2.39-19-5.93-26.39,12.06-6.23-2.4-11.29-.91-17.7,1.68-7.2.39-15.1.39-22.69s.54-15.25-.14-22.78c-.83-9.13,4-19.59-5.71-26.94-.61-.46-.6-1.92-.64-2.93q-.9-19.18-1.71-38.37c-9.26-11.36-3.1-24.73-4.74-37.08-.56-4.27,1.08-9.14-.42-12.88s-5.65-6.33-8.65-9.43c-3.52,3.45-9.82,6.7-10.07,10.37-1.11,16.2-.48,32.52-.48,48.8,11.65,15.22,4.15,33,6.72,49.36,1,6.05-12.46,11.56-.38,17.5.05,7.57.13,15.14.16,22.72,0,6.51,0,13,0,19.53V899.1c0,7.59.34,15.21-.11,22.78-.32,5.42,6.31,6.8,6.28,10.33-.06,8.12,3.87,17.37-4.44,24.09a4,4,0,0,0-1.07,2.18c9.68,7.33,5,17.82,5.7,26.95.71,8.62-.26,17.37.27,26,.5,8.14-3.57,17.41,5.35,23.9,1.18.86.86,3.92,1,6s-.21,4.37.07,6.51c2.71,20.75-6.45,42.73,6.48,62.41,0,15.2.1,30.39,0,45.58-.06,6.32-7.72,13.3-14.68,13.77-2.16.14-4.36-.19-6.5.06-7.59.87-12.27-.87-11.93-10.06.08-2.22-4.55-4.37-6.47-7s-2.66-2.4-4.77-.67c-10.83,8.89-21.12,6.87-31.26-1.76-2.46-2.08-7.87,1.07-8.75,5.75-.65,3.48-1.42,6.58-4.75,7-5.34.64-11.29,1.49-16.12-.21-4.56-1.62-10.8-6-11.33-9.89-.94-6.9-3.5-15,2-21.62,1.82-2.18,4.93-3.74,1-7-5.07-4.15-5.13-8.86-.18-13.33,3.66-3.3,5-7.76,1.47-10.93-4.71-4.21-4.95-8.92-4.92-14.39.13-23.88.89-47.79-.29-71.61-.6-12.15,6.18-25.9-5.89-36.65-1.63-1.45-.27-6.25-.27-9.5,0-16.28.93-32.63-.3-48.81-1-13.28,6.45-28.17-6.22-39.65,0-6.51,0-13,0-19.53q-.13-19.47-.32-38.94c-12.11-10.46-1-25.88-6.81-36.15-8.11-14.41-5-28.79-5.67-43.24-.28-6.55-5-9-8.27-12.92-.51-.62-1.7-1.34-2.22-1.13-.93.37-2.3,1.49-2.24,2.18.8,8.11-4.36,17.3,3.75,24,2.56,2.13,2.52,2.65.11,4.86-2.1,1.92-4.15,5.17-4.19,7.86-.33,22.78.45,45.6-.54,68.35-.33,7.55,7.71,9.84,7,16.86a129.77,129.77,0,0,0-.06,19.52c.3,5.64-.69,10.21-5.2,14.31-1.47,1.33-1.43,7.28,0,8.28,6.63,4.76,5.13,11.33,5.14,17.59,0,46.67-.24,93.33.23,140,.11,10.13-4.27,21.47,5.71,30.27,1.66,1.46.57,6.16.58,9.36q.06,26,0,52.09c0,10.43,0,10.47-13,16.8A37.75,37.75,0,0,1,521,1163c-7.28,1.57-11-.9-11.09-7-.07-6.51,0-13,0-19.54,0-35.81.75-71.64-.35-107.42-.48-15.39,6.18-32.07-5.94-46.33-1.61-1.89-.22-6.33-.22-9.58V924.33c0-5.42-.86-11,.21-16.23,1.41-7-3.73-11-5.58-16.4,6.84-4.32,2.78-7.25-.42-11.77-2.06-2.92-.68-8.33-.71-12.62-.06-7.59,0-15.19,0-22.78V821.74c-9-5.89-6.29-15-6.47-23.35-.17-7.59,0-15.19,0-22.79s-.1-15.19,0-22.79c.11-6.55-8.52-9.07-6.83-16.9,1.32-6.14,0-12.85-.12-19.3-8.29-4.57-5.11-13.1-7-19.91a3.58,3.58,0,0,0-2.26-2.17c-.61-.13-2.12,1.12-2.18,1.84-.53,6.35.87,13.5-1.62,18.88-3.51,7.6-11.26,13.86.09,21-.21,7.31,2.84,15.22-1.78,21.75-7.06,10-7,18.86-.06,29,2.6,3.82,2.07,10.12,2.08,15.3.13,58.6-.44,117.2.44,175.79.23,15.36-6.38,32.23,6.16,46.14,0,16.28-.24,32.56.11,48.83.15,7.13-3,15.42,5.31,20.55,0,13.79.78,27.66-.55,41.33-.51,5.28-4.81,12.41-9.32,14.51-5.21,2.41-13.45,2-18.73-.57-4.89-2.38-3-11.92-9.38-15.22l.07-52.06c12.39-10.32,3.9-24.33,6.44-36.4-12.75-18.55-3.94-39.48-6.53-59.15-2.17-16.47,5.74-34.26-6.5-49.4,0-14.1.51-28.24-.18-42.31-.45-9.12,3.55-19.13-5.35-27.22-2.24-2-.92-8.16-.95-12.41-.08-13,0-26.05,0-39.07,0-.34-10.34-31-10.85-31.28-2.81-1.63-2.61-2.88.17-4.74,1.54-1,2.47-3,3.67-4.51-8.26-4.92-5.37-13.08-6.08-20.3-.8-8.12,3.71-17.54-5.43-23.77-.76-7.28-1.48-14.57-2.39-21.83-.08-.63-1.63-1.7-2.17-1.53-.91.29-2.16,1.35-2.24,2.18-.43,4.24-.69,8.5-.7,12.75-.05,34.73-.42,69.46.2,104.18.19,11.18-4.77,23.47,5.73,33.54,2.19,2.11.54,8.29.54,12.6,0,28.21.11,56.43-.08,84.64,0,4.58.33,8.58,4.46,11.2,2.69,1.7,2.21,2.58-.14,4.79-2.06,1.94-4.74,6.65-3.94,7.7,10.16,13.35,5.06,28.67,6.18,43.1.88,11.32-3.17,23.56,6.56,33.11v68.37c-4.14,4.67-5.61,10.78-8.67,15.85-1.33,2.21-7.85,1-11.89,1.92-7.57,1.66-12.4-2.48-16.23-7.82-1.61-2.25-2.87-7.65-1.88-8.39,6.11-4.58,6.21-10.56,6.19-17.22-.15-51-.08-102-.08-153,4.14-11.33-8.5-18.64-6.81-29.9,1.43-9.55.3-19.49.3-29.25V865.48c0-1.09.45-2.53-.07-3.2-11-14.19-4.58-30.77-6.5-46.19-1.13-9.1,3.8-19.49-5.74-27-1.14-.9-.58-4-.71-6.11q-.89-14.29-1.71-28.59C362,746.66,368,736.18,366.9,727c-.75-6.53-9.4-9.23-7.06-16.76.15-.49-1.86-2.28-2.11-2.14-1.49.84-3.91,2.06-3.92,3.19-.25,17.36,0,34.72-.31,52.08-.09,4.92,2.48,7.61,5.09,11.05,1.64,2.16.76,6.07,1.62,9,2.27,7.79-13.76,12.36-3.1,22.06,7.22,6.59,1.91,16.39,2.86,24.68.85,7.5.18,15.17.18,22.77,0,8.68.59,17.41-.16,26-.85,9.83,9.78,15.61,7.18,26.73-2.4,10.29-.51,21.59-.51,32.44,0,9.77-.32,19.55.1,29.3.31,7.15,8.8,11.44,6.7,20.16-1.48,6.16-.29,13-.29,19.47v22.78c0,6.51,1.16,13.3-.28,19.47-2,8.67,9.58,11.16,7.17,20.26-1.88,7.1-.38,15.09-.38,22.69,0,9.76-.33,19.55.1,29.29.38,8.65-11.2,13.59-6.82,23.45.45,1-1.93,4.73-3.11,4.79-8.65.41-17.35.4-26,0-1.15,0-2.79-3.12-3.09-5-.51-3.17-1.53-7.94.09-9.49,8.19-7.81,6.17-17.52,6.25-26.85.13-16.28.25-32.56-.06-48.83-.16-8.21,3-17.56-6.28-23.41,2-3.48,6.92-4.92,6.45-10.28-.88-10.27,2.36-21-6.26-30.15-2.17-2.29-.33-8.38-.33-12.72,0-23.87.06-47.75,0-71.62,0-6.23,1.35-12.51-4.89-17.73-2.3-1.92-1.5-8-1.53-12.13-.12-20.62.23-41.24-.2-61.85-.16-8.12,3.66-17.51-5.42-23.79-.65-.45-.74-1.84-.93-2.82-2.21-11.32,3.79-23.17-3.53-34.4-6.89-10.56-1.79-23-2.87-34.53-.68-7.33,1.48-15.28-6.52-20.13,0-6.5,1.39-13.49-.59-19.33-1.52-4.47-7.27-7.46-6.43-13.64.09-.65-1.92-2.29-2.11-2.17-1.45,1-3.83,2.22-3.85,3.4-.22,22.79-.38,45.58.08,68.36.07,3.33,4.5,6.5,4.83,9.93.22,2.31-4,4.74-4.87,7.53-.91,3-1.6,7.86,0,9.47,8.94,8.86,6.14,19.8,6.19,30.1.21,41.23-.47,82.48.44,123.7.26,12.12-6.2,26,5.93,36.58,1.09.94.23,4.15.23,6.31,0,21.7-1.06,43.48.51,65.07.65,8.93-10.67,11.39-7.55,20.09.11.32-3.18,2.38-5.07,2.8-6.95,1.54-16.76-2.93-19.23-8.46-.41-.92-1.34-2-1.14-2.73,3-11.13-3.83-20-6.5-29.9-.19-.7.69-2,1.41-2.59,3.42-2.85,6.44-5.67.83-9.23-3.57-2.27-3.36-7.51-2.1-8.51,5.85-4.66,6.7-10.36,6.4-17.14-.24-5.41.05-10.35-4.86-14.47-1.81-1.51-1.59-5.82-1.7-8.87-.23-6.51.21-13-.14-19.53-.61-11.31,3.55-23.62-6.44-33.12,0-11.94,1-24-.44-35.76-.67-5.52-7.52-9.6-6.23-16.91,1.15-6.43.71-13-6-17-.13-8.62-.12-17.26-.57-25.87-.06-1-2.54-2.12-4.08-2.73-.4-.16-2.15,1.39-2.15,2.16-.12,20.62-.4,41.24.06,61.85.16,7,8.26,11.49,6.68,20.16-1.53,8.4-.33,17.3-.33,26v22.79c0,7.6.44,15.22-.1,22.78C255,967,265.66,975.49,263,988.46c-2.55,12.51-.56,25.94-.56,39,0,11.94-.19,23.88.14,35.81.08,2.86,1.11,6.54,3.08,8.33,4.91,4.48,5,11.32,2.83,14.73-4.33,6.94-11.27,12.27-17.27,18.13a3.3,3.3,0,0,1-3.14,0c-7.55-5.53-16.63-10.39-18-20.65s2.12-21.13-6.51-30c-1.62-1.68.07-6.32-.28-9.54-1.8-16.51,5.07-34.16-6.46-49.39V972c-13.28-7.77.25-25.91-13-33.67,0-5.43.54-10.92-.13-16.27-.89-7-8.55-11.56-6.65-20.16,1.38-6.21,2.81-14.66-.2-19.16-9.27-13.89-4-28.88-6.29-43.16-1.57-10-9.34-18.8-6.26-29.9-10.06-9.48-7.72-22.17-5.94-33,1.93-11.81-8.62-18.93-7.32-30,1.13-9.63.23-19.5.23-29.27-7.39-5-6.86-12.49-6.57-20.09s-.2-15.2.17-22.78c.19-4-2.1-8.71,2.29-12,6-4.59,4.07-14,11.37-18.27,2.46-1.43,2.59-2.14,4.87,0,6.7,6.31,7.24,7.94,3.46,18.16-1,2.83-2.39,5.79-2.45,8.71-.26,13,.54,26.08-.34,39-.61,9,8.92,13.92,7,23.42-1.45,7.28-.2,15.09-.15,22.66,13.24,6.87-.06,23.39,11.33,31.31,1.75,1.21,1.33,5.86,1.5,8.94.44,8.55.67,17.1,1,25.66,9.14,6.2,4.52,15.63,5.58,23.73,10.16,9.47,6.73,21.93,6.1,33.09-.51,9.2,4.35,15.71,6.47,23.49,1.66,6.07,9,8.94,7.25,16.78-1.37,6.17-.41,12.93.15,19.37.1,1.16,3.47,3.13,5,2.84a14.31,14.31,0,0,0,7.42-4.05c.95-1,.62-4.88-.53-5.92-4.29-3.86-6.23-8-5.92-14,.52-9.74-.15-19.54.25-29.29.24-5.76-2.22-9.62-5.16-14.3-1.86-3,6.18-6.69,5.29-12.9-1-7.23,1.41-15.26-6.61-20.11,0-6.49.71-13.11-.3-19.45-2.43-15.35,6.84-32.34-6.35-46.16,0-10.86.77-21.78-.22-32.54-.95-10.22,4.64-21.1-4.41-30.77-6.51-7,3-19.09-6.84-26.6-2.28-1.73-1.45-8-1.5-12.13-.16-13,0-26,0-39.07-10.45-10.64-5.7-24-6.4-36.37-.36-6.41,7.68-14.18,14.11-14.24,14.1-.15,28.21,0,42.32-.07,27-.21,20.88,3.27,21.49-22.61.07-2.93-.4-6.9-2.25-8.67-5.3-5.05-8.83-13.16-16.8-14-8.6-.94-6.83-6.59-6.79-11.52,0-4.41,7.36-14.52,10.38-14.71,4.33-.27,8.68-.07,13-.07,52.09,0,104.19.57,156.26-.36,15.36-.27,32,6.05,46.39-5.85,2.59-2.13,8.44-.3,12.78-.3,19.53,0,39.12-.88,58.58.32,12,.74,20.65-9.35,33.2-7.25,11.61,1.95,23.8.41,35.74.41s23.91-.58,35.8.22c7.17.48,9.38-8.27,16.89-7,5,.84,10.41-.56,15.51-1.62.9-.19,1.73-3.72,1.5-5.57a10,10,0,0,0-2.86-5.25c-11.42-11.6-23.53-22.58-34.23-34.8-4.66-5.34-12.3-2.82-16.1-8.91-2.81-4.49-8-2-12-2.09-10.84-.32-21.78.72-32.53-.31-14.37-1.38-29.93,5.46-43.1-6.09-1.84-1.61-6.36.12-9.56-.28-14.35-1.8-29.77,5-43.15-6.15-2.55-2.13-8.42-.3-12.76-.3-20.62,0-41.24.16-61.86-.09-7.16-.08-15.38,2.76-20.49-5.46l-19.13-1c-10.62,10.57-24.05,5.78-36.38,6.38-11.91.58-23.87.13-35.8.13-5.31-6.46-12.5-6.14-20.05-6.95-6.73-.73-12.05-13.95-9.95-21.26.49-1.69,2.47-3.95,4-4.16,4.26-.57,8.65-.19,13-.19,49.92,0,99.85-.6,149.75.35,15.37.29,31.82-5.87,46.45,5.77,3.33,2.64,10.6-.08,16,.48,16.52,1.71,34.19-5.21,49.4,6.42,7.6,0,15.21.22,22.78-.17,1.6-.08,4.39-2.41,4.35-3.64-.08-2.91-.75-7.41-2.6-8.3-3.56-1.71-8.34-.78-11-5C569,375.67,561,373,552,375.31c-8.62,2.19-11.14-9.48-20.24-7.08-7.1,1.88-15.09.38-22.69.38-13-10.58-28.52-4.73-42.84-6.74-5.81-.81-11.12-4.66-16.91-6.12-5-1.26-12.43.88-15.25-2-6.06-6.14-8.21-1.83-12.06,1.53-1.25,1.08-5.43,1.12-6.12.13-5.27-7.47-12.77-6.56-20.3-6.41-9.76.19-19.58-.61-29.28.23-9.88.85-17.87-4-26.74-6.2-9.22-2.24-19.41-.5-29.18-.5s-19.58.57-29.28-.21c-5.92-.48-9.37-7.87-16.9-6.57-4.83.83-10.61,2.07-14.91-3-4.06-4.82-11.6-3.4-15.89-9.08-4-5.23-5.2-8.65-.23-13.52,2.88-2.82,4.81-7.07,10.22-6.77,7.58.42,15.27.78,22.77-.07,9-1,13.12,10.29,23.51,7.17,8-2.4,17.22-.48,25.9-.48,14.14,10.92,30.63,5.38,46.14,6.35,4.33.27,5.34,9.93,12.23,3.11,5.48-5.44,8.56,6.68,15.62,3.91,4.7-1.84,10.72-.35,16.14-.35H441.5c2.17,0,5.61-.87,6.31.14,6.17,8.95,15.27,6.15,23.55,6.33,8.68.2,17.36.06,26,0,1,0,2.56.17,3-.41,1.24-1.55,2.63-3.4,2.83-5.26s-.51-5.2-1.61-5.58c-12.55-4.27-22.3-11.06-24.85-25.13-9.21-9.21-18.25-18.59-27.71-27.53a12.87,12.87,0,0,1-4.36-11.32c.31-4.24-.39-8,5.53-9.64,6.7-1.86,12.92-5.41,19.3-8.35.35-.16.51-1.64.2-2.18-.51-.89-1.54-2.22-2.25-2.16-7.69.67-13.82-1.27-20.5-6.06-4.33-3.11-12.5-.87-18.94-1-6.77-11.85-20.2-1.85-28.89-9-9.12-7.53-20.63-2.53-31-3.39-6.39-.53-12-.31-17.53-5.54-2.92-2.77-10.29-.5-15.56-1.21-7.1-1-14.95,3.41-21.28-3.75-5-5.68-12.21-2.05-18.37-2.53-7.55-.58-15.19-.08-22.78-.23-.82,0-1.92-1.1-2.37-2-4.5-8.66-14.83-.73-19.89-7-3.08-3.78-7.12-3.75-11.14-4.76-1.29-.32-2.39-3.27-2.72-5.16-1.84-10.31,5-20,14.77-20,6.07,0,12.75-2.56,18.21,3.27,1.82,1.94,5.48,2.46,8.41,3,9,1.69,19.77-4.19,26.68,6.36,9.05,1.4,19.72-3.55,26.51,6.74,5.43,0,10.85-.08,16.28,0,6.37.11,9.16,8.58,16.89,6.72,5.13-1.23,12.33-2.4,15.95.16,12.64,8.94,26.47,5.25,39.9,6.12,12.89,11.37,28.48,5.09,42.89,6.4,6.07.55,7.8-1.47,7.85-6.94.06-7.6-.33-15.21.14-22.78.31-5.09-2.67-11.14,2.63-15.08,3.58-2.66,20.73.08,24.05,3.37,9.25,9.16,18.43,18.4,27.64,27.61,6.14,6.14,11.53,13.42,18.64,18.06,6,3.89,13.16,5.63,18,11.72,1.64,2.07,5.29,3.31,8.13,3.54,10.3.85,21.14-2.11,30.07,6.43,1.71,1.62,6.38.67,9.51.06a6.92,6.92,0,0,0,4.32-3.85c.66-1.8.67-4.89-.45-6.11-5.1-5.56-10-13.71-16.29-15.12-7.42-1.67-10.88-6.26-15.32-10.41-8.71-8.16-17.11-16.66-25.34-25.31-3.45-3.63-.3-15.14,4.92-19.86,3.53-3.2,15.07-5.45,17.57-3,11.63,11.39,23.07,23,34.58,34.48-1.08,8.49,5.81,8.27,10.71,11.7,7.26,5.06,16.16,10.9,16.62,22,0,.79,1.51,2.26,2.19,2.19,10.55-1.09,13.12,10.13,20.66,13.14,3.62,1.45,8.74.79,12.56-.6,1.74-.63,3.62-7,2.64-8-10.76-10.64-22.07-20.73-33.52-31.23,3.5-4,5.24-6.36,7.37-8.3,3.89-3.54,8.18-9.78,12-9.55,6.6.39,14.69,3.24,19,8,7.68,8.32,20.62,12.89,21.43,26.74,7.91,7.37,15.81,14.75,24.92,23.26,12.95,0,28.17.67,43.29-.28,7.66-.48,18.7,5.33,22.43-4.91,3-8.24-7.06-12.74-12.48-17-7.22-5.64-5.12-16.48-13.54-20.67-6.49-3.22-4.65-11.32-9.19-15.73-5.44-5.3-10.76-10.73-16.13-16.1l-13.81-13.81c-5.37-5.37-10.53-11-16.19-16-4-3.55-2.4-7.85-2.76-11.93-.49-5.51,2.88-6.2,7.51-7.63,6.47-2,12.24-6.3,18.32-9.62-5.5-6.23-11.33-11.46-14.55-20.1-2.75-7.4-11.74-12.39-17.56-18.82-1.09-1.2-1.15-5-.1-6.19a199.73,199.73,0,0,1,15.93-16.21c2.88-2.63,15,.8,16.43,4.44,4.09,10.57,8.26,20.92,17.16,28.76,7.86,6.93,9.87,7.47,22.3,1.92,10.64-4.75,14.53-4.23,22.22,3.4,12.33,12.22,24.48,24.63,36.9,36.77,4.4,4.29,7.69,10.86,15.67,9.25,2.3,4.48,3.69,9.9,7.12,13.2,5.11,4.91,8.32,11.81,17.34,13.24,5.28.85,10.3,7.42,14.12,12.42,7.44,9.73,17.39,6.33,26.58,5.86,2.41-.12,4.45-4.48,7-6.53,4.69-3.85-.77-4.79-1.83-6.94-2.69-5.42-6-11-8-16.2-2.92-7.63-8.84-13.67-10.39-21.76-10.23-7.85-11.72-22.44-23-29.64-2.57-1.65-5.4-4.39-6.06-7.12-.6-2.48.81-6.91,2.78-8.13s5.92.15,8.47,1.43c1.15.58.64,3.91,1.5,5.7,6.08,12.63,20.67,18,26.18,31.48,4.56,11.13,9.37,22.64,16.58,32.06,6.35,8.29,12.31,16.63,15.4,26.28,1.5,4.72,4.61,7,7.28,10,6.17,7.06,14.18,12.05,13.23,24.14-.62,7.84,12.3,10.2,13,20.56.45,6.69,11.59,8.85,12.55,17.43.8,7.13,7.2,10.7,12,14.37,9.51,7.32,7.36,17,7.28,26.38,0,1.45-2.54,4.13-3.9,4.13-9.33,0-19.1,2.39-26.38-7.16-5.21-6.84-11.94-12.58-18.37-18.4-1.2-1.09-5.18-1.14-6.1-.1-1.87,2.1-4.3,6.63-3.4,7.82,9.85,13.1,11.84,31,26.14,41.47,6.06,4.42,10.64,10.83,16.3,15.87,4,3.53,3.08,7.87,2.66,11.86-.28,2.6-2.67,7.14-4,7.11-11.31-.25-23.34,3.54-33.31-6-2.71-2.59-8.24,1.9-7.93,6.51.27,4-1.72,8.36,2.25,12.11,5.23,5,10.28,9.64,12.12,17.81,1.46,6.5,12.77,8.39,11.65,17.9-.07.57,20.14,10.58,21.09,10.59,5.43,0,10.89.39,16.27-.09,6.65-.59,9.34,4.59,12.84,8.26s2,7.2-.92,11.11c-4.45,5.91-9.94,8-16.82,6.71-7.27-1.41-12.23,1.59-16.76,6.92-3.22,3.78-4.6,7.92-.83,11,5.08,4.15,4.46,9.15,4.7,14.49.18,4-1.7,6.39-5.07,6.58-7.57.44-15.33-.7-22.72.51-3.57.58-6.67,4.88-9.59,7.88-.56.57.53,3,1.17,4.45,4.5,10.13,5.47,10.7-.15,19.72-3.31,5.31-4.59,12.19-2.39,14.82,9.59,11.46,5.33,24.41,5.91,36.74.31,6.65.28,12.61,6.36,17.18,1,.72-.36,6.21-2.06,8.36-2.95,3.72-6.2,7.05,1.47,7.47,5.2.29,7.26,3.86,10.42,6.48,7-9.74,17.37-5.43,26.5-6.22a25.7,25.7,0,0,1,6.44.2c.87.15,1.73,1.32,2.29,2.22,6.41,10.41-2.07,29.41-13.47,30.07-4.33.25-8.68,0-13,.06-11.68.25-12.47.34-11.47,13,.72,9.14-5,19.63,4.36,27.38,2.12,1.74,1.15,2.45-.61,4.78-3,3.95-4.22,9.25-7.28,13.13-2.41,3-2.79,4.75.23,7,7.32,5.57,11.42,12.21,9.75,22.12-1.07,6.33-.55,13-.12,19.5.61,9.18-3.72,19.66,6.38,26.58-12.12,5.84,1.56,11.51.17,17.45-1.29,5.53.65,10.14,5.09,14.25,1.43,1.32,1.13,6.21-.17,8.42-1.9,3.26-6.79,5.21-1.16,9.41,2.58,1.92,4.43,4.83,7,6.76s2.22,2.63-.14,4.84c-2.07,1.94-4,5.18-4.06,7.92-.43,11.92.63,23.94-.47,35.78-.76,8.25,9.66,11.23,7.12,20.21-1.64,5.81-1.85,13.05,5.05,17.35.08,0-1.24,3.34-2.51,4.33-4.18,3.25-.22,4.68,1,7,1.35,2.65,3.36,7.52,2.39,8.37-5.41,4.76-6.89,10.25-6.37,17.14.4,5.32-.42,10.42,4.68,14.54,1.83,1.47,1.82,5.77,1.87,8.8.19,11.93.08,23.87.08,35.81,11.44,15.24,4.55,32.89,6.61,49.37.36,2.9,2,5.64,3.14,8.44s3.76,6.27,2.93,8.27c-1.55,3.7-4.76,7-8,9.63-3.95,3.2-13.8,2.17-17.49-1.46-4.58-4.51-8.85-9.33-13.25-14,4.81-10.58-7.75-16.8-6.62-26.61.61-5.36-.65-11,.27-16.24C980.61,989.67,974.2,985.83,968.56,981.15Zm-133-774.33c0-1,.36-2.23-.07-3-.92-1.63-2.08-4.12-3.44-4.34-6-.95-2.78,4.05-2.72,5.87.07,2.17,2.26,4.28,3.53,6.41.9-1.65,1.8-3.29-7.54-12.48,3.15.08,4.54-3.53,3.81-6.49-3.17-12.69-20.17-15.87-20.74-30.33,0-.78-1.33-1.79-2.25-2.16s-2.15.08-3.2-.11C796,158.94,792,154.13,790.05,148c-3.13-9.69-10.65-15.11-18.53-20.16-1.18-.75-3.88.63-5.75,1.33a3.27,3.27,0,0,0-1.33,2.14c3.72,3.91,8.5,7.17,11.1,11.68,2.47,4.29,2.59,9.58,7,13.34,6.56,5.58,11.74,12.89,18.6,18,7.28,5.4,7.08,14.87,13.44,20.59C818,198,821,200.34,835.54,206.82ZM489.12,524.9c-7.58,0-15.16-.1-22.74,0-6.38.11-12.76.51-19.15.79-6.13,9.12-15.51,4.88-23.63,5.62-4.3.39-8.71-.34-13,.19-3.37.42-5.75,2.75-4.82,6.64.45,1.91,1.58,5.23,2.41,5.24,8.54,0,13.58,8.31,23,8.18,8.31-.11,13.36-5,20-7.35,8.49-3,11.42-3.1,24,0,5.93,1.46,11.61.49,17.73,4.79,5.16,3.62,14.35,1.45,21.75,2,2,.14,5.13-.1,5.93,1.07,7.83,11.46,14.09.54,21.23-.75,5-.9,7-6.13,10.33-6.32,15.09-.85,30.25-.67,45.37-.19,1.29,0,3,4.89,3.51,7.69.67,4-.58,11.36,3.45,10.91,7.78-.87,10.08,7.1,16.85,7.34,8.53.31,19-4.72,18.33-13-.65-8.65,6.6-12.94,7-20.1.21-4,2-5.91,5.54-6.15a102.21,102.21,0,0,1,13,0c6.65.4,13.87,7.68,14.1,14.27s-.2,13,.15,19.48c.18,3.46,2.21,5.53,6.29,5.35,6.48-.29,13,.29,19.48-.2,5.32-.4,6.81,6.38,10.13,5.91s5.31-5.65,10.44-6.14c3.6-.35,6.66-5.12,10.38-5.89,5.19-1.08,10.8,0,16.18-.39,3.39-.27,5.55-2.27,5.23-6.41-.42-5.26-1.29-10.89,4.49-14.35,2.38-1.44,1.23-2.4-.54-4.73-3-3.93-4.11-11.9-7.22-12.56-5.67-1.23-9-5.24-13.46-7-6.61-2.63-15.53,2.9-21.39-3-6.65-6.68-14.16-3.31-21.24-3.76-9.71-.61-20,1.71-29.11-.63-11.08-2.84-16.86,8-26.67,7.15-8.6-.75-17.31-.16-26-.16H567.64c-8.67,0-17.59,1.32-25.92-.34-9.62-1.92-14.17,8.33-23.4,7.13C508.74,523.94,498.87,524.9,489.12,524.9Zm151,384.18c0-8.67-1.18-17.55.3-26,1.82-10.36-7.6-16.43-7.43-26.62.2-11.06,6-23.73-4.31-33.7-.53-12.79-1-25.57-1.61-38.35,0-1-.08-2.5-.69-2.9-9.2-6.16-6.52-15.8-5.42-23.61,1.89-13.4-9.1-23.11-8.27-35.79-6.89-5.21-5.22-16.23-13.8-20.26a2.69,2.69,0,0,0-2.24.09c-.84.55-2.11,1.64-2,2.3.83,5.08-2.29,10.61,2.28,15.34,2,2.07,3.8,5.24,3.93,8,.48,9.73,1.13,19.61-.06,29.22-1.38,11.07,3.27,20.09,6.41,29.95,1.89,5.9.64,12.91.26,19.38-.33,5.7.53,10.59,5.56,14-3,4.77-7,9.61.77,13.79,3,13-6.27,28.15,6.79,39.45v71.51c7.94,4.81,6.62,12.6,6.53,20.06-.1,8.66-.06,17.33,0,26,0,6.46.19,12.92.29,19.38,11.09,9.37,4.71,22,6.16,33.19.54,4.2-1.24,10.4,1,12.4,9,8,4.15,18.1,5.57,27.16a43.63,43.63,0,0,0,1.07,6.06c.28.9,1.49,2.14,2.21,2.1a3.11,3.11,0,0,0,2.21-2.13q.63-51.83.87-103.64c0-1.67-2.54-3.21-3.34-5.06-4.32-10-4.25-10,.9-19.88,3.18-6.07,3.22-6.1.59-11.09-1.42-2.68-4.18-5.21-4.3-7.9C639.88,930.76,640.17,919.91,640.17,909.08Zm345.15-99.86c-3.27-11.63,6.18-27.69-6.51-40.38,0-8.68-.11-17.36,0-26,.14-9.47-9.11-15.86-7-26.69,2-10.35.1-21.45-.08-32.22-10.12-8.42-2.31-21-6.61-29.76-3.77-7.66-5.25-15.25-7.43-23-.77-2.73-4.05-5.15-6.73-6.86-3.82-2.43-4.39,3.42-6.84,3.57-9.7.57-11.93,5.86-11,14.6.84,8.26-1.61,17.25,6.64,23.33l.58,25.8c11.85,6.76,1.69,20.17,9,28.92,7.5,9,2.14,20.64,3.45,31,.14,1.07-.45,2.59.09,3.19,12.44,14,3.85,30.87,6.45,46.18.51,3,.07,7.48,1.88,8.82,11,8.11-2.33,24.51,11.13,31.36,0,7.59-1.52,15.6.42,22.67,2.13,7.78,8.48,14.33,6.19,23.47a8.62,8.62,0,0,0,.66,6.13c.93,1.45,3.33,2.27,5.23,2.73,3.73.92,6.14-1.21,6.91-4.56.42-1.87.24-4.81-.94-6-8.77-8.55-8.13-16.4.27-24.88,1.28-1.29.48-6.55-1.15-8.39-3-3.4-4.89-6.44-4.68-11.24C985.61,831.25,985.32,821.47,985.32,809.22Zm-52.1-8.5V765c-8.79-9.71-6.19-21.66-6.55-33,0-1-.31-2.36-1-2.79-10.41-6.76-1-19.58-7.17-26.13-8.37-8.83-3.19-18.39-4.74-27.44-1.07-6.19,1.05-14.48-2.3-18.32-4.41-5.08-2.63-12.4-8.45-16.43-1.89-1.31-1.58-5.66-2.53-8.52-.31-.92-1.82-2.35-2.17-2.19-1.52.7-4,1.87-4,2.9-.26,16.25-.4,32.5-.07,48.74.13,6.13,8,9.2,6.68,16.85-1.28,7.36-.28,15.11-.28,22.7,11.76,16.32,4.64,35,6.48,52.54.23,2.14-.88,5,.17,6.39,11.13,14.22,4.48,30.76,6.34,46.15.26,2.14-.9,5.2.18,6.36,11,11.91,4.66,26.43,6.33,39.69.27,2.13-.9,5.17.18,6.36,11.7,13,4.28,28.65,6.33,42.93.3,2.12-.22,4.37.11,6.48a12.64,12.64,0,0,0,2,5.62c2,2.56,5.18,6.95,6.66,6.51,3.49-1,6.92-4,9.11-7.09,1.61-2.26,1.46-5.92,1.63-9,.25-4.32.76-8.81-.12-13-1-4.53-3.38-8.75-5.16-13.11,6.85-4.32,3.28-7.53-.52-11.73-1.23-1.37-.27-6.77,1.47-8.33,4.23-3.77,3.48-5.41.08-9.64-5-6.17-2.4-14.5-1.93-21.71.6-8.93-10.69-13.1-7.21-23.46C935.08,816.5,933.22,808.3,933.22,800.72Zm-52.1,63.67V828.64c-11.3-10.46-4.37-24.2-6.59-36.28s6.15-26.09-6.43-36.32c0-6.5.31-13-.09-19.5-.38-6.08,2.06-12.37-4.26-17.87-5.25-4.56-1.1-12.25-2.18-18.43s3.12-13.47-2.74-18.26c-6.31-5.16-1.87-12.22-4.62-17.68-.71-1.4-3.38-2.11-5.28-2.57-3.82-.93-6,1.37-6.79,4.72a19.49,19.49,0,0,0-.06,6.47c1.64,15.43-4.63,32,6.48,46.06v26c0,7.58,1,15.32-.24,22.71-1.53,9.25,8.34,13.81,7.3,23.4-1,8.89-3.4,18.67,3.17,27.72,6,8.23,1.78,18.64,2.87,28a4.21,4.21,0,0,0,2,2.4c5,3.23,3.52,5.47,0,9.43-4,4.55,4.51,5.32,4.47,9.34-.07,6.5,0,13,0,19.5,0,7.58-.76,15.27.24,22.72.78,5.83,6.58,9.55,6.67,16.83.18,15.46-4.82,31.94,6.11,46.05,0,7.59-.39,15.2.19,22.74.25,3.28,3.29,4.9,7,4.52s6.26-2.2,5.63-5.86c-.49-2.84-2.49-5.44-4-8.06a12.36,12.36,0,0,0-2.26-2.32c6.75-4.32,5.78-9,.57-13.79.77-.76,1.48-1.6,2.31-2.28,3.75-3.07,4.77-6.85,2.43-11.08-1.48-2.68-5-4.93-5.15-7.53-.63-9.71-1.78-19.8.13-29.16,2.38-11.61-7.8-19.15-7-29.89C881.63,881.76,881.12,873.06,881.12,864.39ZM620.26,333.6c-3.61-6.23-9.5-10.34-14.25-15.36-5.17-5.47-10.61-10.68-15.94-16-4.56-4.56-8.88-9.4-13.75-13.62-5.35-4.63-8.59-12.79-17.82-11.44-5.32-5.32-10.59-10.71-16-15.93-1.43-1.37-3.35-3.18-5-3.18-8.45,0-16.9.58-25.36.94-6.19,9.06-15.61,4.05-23.55,5.56-2.4.46-6,1.48-2.21,5.89,3.16,3.67,3.84,9.55,7.13,13,14.1,14.79,28.38,29.46,43.42,43.27,4.92,4.51,12.17,8.39,18.65,8.9,16,1.27,32.24.61,48.37.31C609,335.84,614.5,337.86,620.26,333.6ZM282,666.25c0-11.91.1-23.82,0-35.72-.08-6.52-7.57-14.21-14-14.41s-13-.18-19.48,0c-3.65.11-5.68,2.11-5.62,6,.09,5.41,0,10.83,0,16.24,9.93,6.94,6.58,17.39,6.21,26.52-.27,6.49,5.15,9.1,6.42,13.66,1.68,6,.3,12.82.91,19.22.16,1.66,3.08,2.92,4.34,4.65,2.94,4,2.36,7.74-1.32,11.06-4.83,4.37-5.25,9-.17,13.34,6.86,5.83,10.53,12,10.13,22-.44,11-5.44,23.8,5.84,33.08.06,8.64.73,17.32,0,25.88-.54,6.42,2.72,10,6.88,13.45a9,9,0,0,0,4.55,1.62c.5.06,1.7-1.52,1.71-2.36.12-10.83.52-21.67,0-32.47-.58-11.24,3.82-23.61-6.39-33,1.75-13.24-4.81-27.85,6.51-39.51-2.17-5.6-5.68-11.07-6.22-16.82C281.28,688,282,677.07,282,666.25ZM712.07,342.56c6.8,0,10,0,13.3,0,1,0,2.77.07,3-.41,1.2-2.75,3.72-6.83,2.69-8.31-3.63-5.22-7.72-11.12-13.11-13.87-7.39-3.76-2.65-16.16-12.1-16.2-10.32,0-5-10.08-10.16-13.51-4.32-2.86-22.36-12.35-27.27-12.86-9.34-1-19.38,3.07-27.92-3.12-2.88-2.09-4.93-3.52-6.67.24-.81,1.75-.94,5.11.16,6.23,15.9,16.3,32.63,31.83,47.86,48.71,5.42,6,13,6,18.64,10.84C703.81,343.17,710.4,342.29,712.07,342.56Zm-9.21,97.68c-6.51,0-13-.25-19.5.2-1.46.1-3.42,2.48-3.93,4.18a7.9,7.9,0,0,0,.71,6c1.78,2.65,5,4.38,6.65,7.06,4.28,6.82,13.08,6.65,17.93,11.62,12.66,13,27.59,18.09,45.34,16.56,5.38-.46,10.87.24,16.24-.27,1.49-.14,3.42-2.48,3.93-4.17s.45-4.78-.69-6c-5.86-6.39-12.27-12.26-18.25-18.55-10.55-11.09-22.9-17.73-38.67-16.67C709.38,440.43,706.11,440.24,702.86,440.24ZM855.09,283.92c-.77-1.84-1.08-4.11-2.37-5.44-8.23-8.51-16.63-16.85-25.06-25.16-3.25-3.2-3.41-3.08-11,.68-2.68,1.32-5.32,3.57-8.08,3.72-8.58.49-17.39-.88-25.73.61-4.49.8-8.19,6-12.25,9.17,2.17,2.29,4,5,6.6,6.72s6.08,1.52,8.23,3.33c11.72,9.85,28.68,11.05,38.67,23.94,2.88,3.73,13.74,2.72,17.31-.66,4.68-4.43,9.19-9.05,13.61-13.75C855.54,286.51,855.07,285,855.09,283.92ZM444.81,674.7c0-14.11.05-28.21,0-42.31-.05-9.06-6.29-15.57-15.43-16.32-8-.65-10.51,1.11-10.59,7.59S420,637,418.45,643.1c-2.31,8.85,7.45,12.45,6.91,20.18a114.39,114.39,0,0,0,.07,19.5c.52,5,8.31,7.23,6.3,13.58-2.36,7.5,5.93,10.7,6.47,16.85.28,3.13.36,6.2,4.28,5.84.93-.08,2.19-3.43,2.22-5.3C444.9,700.74,444.81,687.72,444.81,674.7ZM601.62,384.19c3.47,6.23,9.21,10.63,14.37,15.26,2.81,2.51,7.29,3.1,10.9,4.8,1.83.86,3.32,3.13,5.09,3.27,5.37.44,10.81.16,16.22.16,13,0,26,.12,38.94-.14a6.78,6.78,0,0,0,4.93-3.23c.86-1.74,1.09-4.9,0-6.28-6.44-8.56-16.32-12-25.59-16.34-.89-.41-2.14-.06-3.22-.06-19.48,0-38.95,0-58.43.09C604.06,381.72,603.25,382.92,601.62,384.19ZM782,336.05c4.52-.82,11.41,2.63,14.08-3.23,3.48-7.64-4.51-10.94-8.55-15.39-5-5.56-10.8-10.47-15.79-16.08a12.29,12.29,0,0,0-11.13-4.47,112.22,112.22,0,0,1-16.09,0c-4-.28-5.94,1.72-6.5,5.06-.31,1.87-.05,4.75,1.15,5.79,3.81,3.31,6,8.25,12.37,9.07a14.14,14.14,0,0,1,12.19,12.41c.51,3.67,1.64,6.23,4.94,6.69C772.85,336.49,777.2,336.05,782,336.05ZM444.81,580.42c0-3.2.11-6.4,0-9.6-.19-4.19-7.49-13-11.55-13.26a105.24,105.24,0,0,0-16,.06c-1.74.13-4.73,2-4.78,3.17-.42,8.51-1.45,17.31.29,25.48.86,4,6.73,7.9,11.2,9.94,3.53,1.62,8.38.34,12.65.32s8.6-.29,8.23-6.51C444.65,586.83,444.81,583.62,444.81,580.42ZM891,336c-3.82,3.83-7.19,6.59-9.7,10-1,1.39.07,4.18-.21,6.28-.62,4.58,1.3,7.65,4.22,11.18,3.75,4.52,2.89,12.09,9.2,15.32s12.31,6.38,18.55,9.38c2.48,1.19,7.28-1.63,7-4.3-.44-5-.09-9.69-2.33-15C911.9,354.79,900.37,346.53,891,336ZM503.42,661.66c0-9.76-.62-19.58.21-29.27.57-6.61-3.51-9.55-7-13.51-2-2.27-4.55-2.91-4.45-1.1.53,9.13-17,16.6-2.53,26.84q1.15,10.92,2.3,21.83c8.67,6.54,3.67,15.91,5.14,23.95.21,1.16,2.57,2.12,4.11,2.72.4.15,2.12-1.39,2.14-2.17C503.47,681.19,503.42,671.42,503.42,661.66ZM789.18,358.07c5,5,9.86,8.75,13.31,13.54,7.29,10.12,17.24,11.52,28.3,9.89a6.92,6.92,0,0,0,4.56-3.6c.75-1.77.87-4.9-.22-6.16A164.45,164.45,0,0,0,821.48,358a8.12,8.12,0,0,0-5.45-2.23C807.71,356.55,799,353.41,789.18,358.07ZM483.88,578.86c0,3.2,0,6.41,0,9.61,0,4.56.64,8.76,6.65,8,4.64-.58,11,3,13-5a42.44,42.44,0,0,1,3.42-8.18c6.81-14,4-19.35-10.36-19.33-2.14,0-4.29.16-6.41,0-4-.36-5.81,1.87-6.19,5.31A90.53,90.53,0,0,0,483.88,578.86ZM633.66,647.4c0-7.8.05-12.07,0-16.34-.13-8-.6-8.44-9.45-8.47-9.08,0-11.66,2.53-10,11,1.72,8.77,8.56,16.08,7.67,25.78,0,.58,3.4,2.06,5.23,2.08s5.06-1,5.26-2.08A101.2,101.2,0,0,0,633.66,647.4ZM626.29,577c-6.74,0-11.57-1.2-15.27.34s-6.72,5.51-9,9.08c-.49.76,3.12,4.85,5.46,6.58,7,5.19,19.18,5,26.35.1,6.18-4.25,5.77-10.05-1.17-13.74A35.28,35.28,0,0,0,626.29,577ZM741.78,361.94c-1.92.27-5.06.55-8.12,1.2-.89.19-1.55,1.45-2.32,2.21.77.77,1.5,1.58,2.31,2.3,13.05,11.42,24.21,15.37,39.74,13.9.85-.08,1.77-1.2,2.32-2.06a2.62,2.62,0,0,0,0-2.24c-3.91-7-12.68-6.91-17.78-11.73C753.18,361,748.1,362.6,741.78,361.94ZM581.56,863.72c0,9.64-.17,19.29.22,28.92.05,1.22,3.17,3.4,4.65,3.23,2.8-.34,7.24-1.5,7.79-3.3,1.19-3.93,2.14-10.63,0-12.35-7-5.77-6.34-12.81-6.21-20.21.11-6.43.09-12.86-.1-19.28,0-.78-1.7-2.29-2.12-2.14-1.53.57-4,1.65-4.08,2.63C581.41,848.7,581.56,856.21,581.56,863.72Zm216-461.94c-1.94-2.66-3.42-6.67-5.22-6.82-8.35-.68-16.79-.36-25.2-.2-.76,0-2.23,1.58-2.09,2.09.43,1.59,1.52,3,2.26,4.5,3.11,6.4,10.39,5.47,15.33,8.7,5.13,3.34,5.44,3.13,8.85-.71C793.47,407.13,795.22,404.73,797.58,401.78ZM607.85,368.61c3.18,0,6.36.15,9.52-.1.8-.07,2.26-1.64,2.12-2.1-.49-1.54-1.63-4.15-2.42-4.12-7.46.3-14.1,0-19.91-6.37-1.92-2.11-8.13-.57-12.32-.13-.82.08-2.23,3.87-1.91,4.12,3.91,3.11,5.76,9.1,12.22,8.74C599.37,368.42,603.62,368.61,607.85,368.61ZM855.07,954.69c0-5.32.63-10.75-.36-15.88-.31-1.64-4.87-3.33-7.55-3.44-4.41-.18-8.07,6.41-4.88,9.08,6.74,5.66,6.73,12.46,6.38,19.9,0,.73,1.55,2.28,2,2.15,1.56-.42,4-1.26,4.19-2.28C855.43,961.13,855.07,957.88,855.07,954.69Zm-481.9-383.8c0-5.3.24-10.61-.18-15.87-.1-1.22-2.37-2.38-3.82-3.28-.21-.12-1.4,1.41-2.18,2.13-2.29,2.12-1.94,2.06-.47,13.54.79,6.25,0,12.7.33,19,0,.93,2.58,1.95,4.12,2.44.46.14,2.07-1.34,2.1-2.11C373.26,581.48,373.17,576.18,373.17,570.89Zm214.9,347.92c0,6.42-.17,12.86.2,19.26.05.93,2.6,1.94,4.15,2.43.45.14,2.06-1.38,2.07-2.16.14-10.71.2-21.42-.09-32.12,0-.89-2.61-1.94-4.16-2.42-.45-.15-2,1.36-2.07,2.16C588,910.23,588.07,914.52,588.07,918.81Zm13-240.71a91.53,91.53,0,0,1,.07-9.52c.39-3.77-1.42-6-4.63-6.79a8.11,8.11,0,0,0-5.91.77c-4.94,3.36.32,5,1.81,6.53,4.42,4.65.82,10.18,2.3,15,.37,1.19,2.62,2,4.16,2.48.46.15,2-1.28,2.1-2.12A43.18,43.18,0,0,0,601.1,678.1ZM581.74,776c-.29-1.94.2-5.75-1.48-7.71s-5.4-2-8.29-2.24c-.67-.06-2.34,3.87-2.25,3.93,4.91,3.12,5,8.47,6.51,13.22.26.83,1.51,2,2.15,1.92a3.41,3.41,0,0,0,2.17-2.11A57.72,57.72,0,0,0,581.74,776ZM790.47,634.77l-3.77-5.67-2.21,2.21a41.86,41.86,0,0,0-4.37,4.47,20.2,20.2,0,0,0-1.9,4.37c2.84.64,6.25,2.51,8.38,1.56S789.37,636.94,790.47,634.77ZM438.29,736.39c0,2.12-.51,4.43.19,6.28.45,1.22,2.59,2,4.12,2.5.47.15,2.06-1.33,2.1-2.11a78.91,78.91,0,0,0-.09-12.68c-.11-1-2.58-2-4.12-2.45-.46-.15-2,1.28-2.09,2.12A41.84,41.84,0,0,0,438.29,736.39Zm534,228.78c0-3.34.35-4.56-.07-5.42a46.8,46.8,0,0,0-3.18-5c-1.09,1.67-3,3.3-3.09,5a69.49,69.49,0,0,0,.94,12.27c.11.83,1.4,1.51,2.15,2.26.75-.75,2-1.4,2.16-2.27C971.87,969,972.18,966,972.29,965.17Zm-370.4,38.38c-1-3-1.93-5.86-3-8.61a2.41,2.41,0,0,0-2.1,0c-3.09,3.5-3.09,13.68,0,17.19a2.44,2.44,0,0,0,2.1,0C600,1009.41,600.86,1006.59,601.89,1003.55ZM724.7,270.93c3.92,0,6.15.42,8.12-.13s3.37-2,5-3.13c-1.67-1.08-3.23-2.81-5-3.11a29,29,0,0,0-9.48,0c-1.8.3-3.36,2-5,3.11ZM711,583l-5.71,3.77c1.65,1.08,3.41,3.2,4.92,3,2.78-.3,5.41-1.95,8.11-3Zm56.16-71.12c-.72.72-2.16,1.61-2,2.14a21.07,21.07,0,0,0,2,4.37c.72-.72,2.16-1.6,2-2.14A20.09,20.09,0,0,0,767.16,511.88Zm80.46,393-2.31-2.32a20.09,20.09,0,0,0-2,4.37c-.12.54,1.31,1.42,2,2.14ZM600.16,978.44l-2.32-4.19c-.72.72-2.15,1.6-2,2.14a20.52,20.52,0,0,0,2,4.37Z"/></svg>