<svg id="Layer_1" data-name="Layer 1" xmlns="http://www.w3.org/2000/svg" viewBox="0 0 1200 1200"><title>BB_Artboard 59</title><path d="M1047.92,192.23l-20,19.48c-.8,9.49-9.44,13.18-14.39,19.61-.92,1.18-.94,3-1.65,4.4-3.63,7.16-5.92,15.18-12.87,20.22a6.25,6.25,0,0,0-2.38,6.65C998,270,993,274.19,987.8,276,979.48,278.79,975.35,283,976,292c.13,1.92-2.28,4.1-3.72,6-2.41,3.2-5.51,5.41-6.75,10-1.16,4.32-7.61,7.12-9.06,11.48a30.4,30.4,0,0,1-5.64,10.54c-1.29,1.55.67,4.81-2,6.8-11.47,8.65-15.74,23.42-27.13,32.17-1.67,6.63-6,11.4-10.67,16.11-1.23,1.23-.89,4.55-.39,6.7.2.91,2.67,1.81,4.13,1.84,8.51.17,17,.08,25.54.08,4.26,0,9.93-1.71,12.46.38a19.27,19.27,0,0,0,13.53,4.94c2,0,4.14,2.23,6,3.67,2.62,2,4.79,4.91,7.7,6.11,2.16.9,6.29.75,6.06,2.91-.53,5.15,3.43,7.26,5.28,10.75.65,1.23.49,4.06-.39,4.74-5.77,4.41-8.43,13.2-17.65,12.78-2.63,6.28-11,3.28-14.21,9-5.14,9.16-15.71,11.63-23.35,17.81-7.25,5.86-16.21,9.89-24.89,13.63-9,3.89-18.15,7.55-24.06,15.67-3.32,4.56-8.37,4.83-12.57,6.94-8,4.05-15.33,8.63-20.18,16.44,1.43.67,2.82,1.8,4.29,1.92,6.48.5,13.74-2,18.32,5.19l20.39.11c7.28,8.93,17.25,4.39,26,4.83a382.24,382.24,0,0,0,38.3,0c6.48-.32,13.87,3.25,19.42-2.14,5.26-5.12,11.25-1.72,16.79-2.8.77-.15,1.94-.24,2.19-.73,2.63-5.08,9.31-3.08,12.4-7.2,4-5.34,11.45.61,15.86-5.25,2.73-3.63,9.13-2.63,12.4-7.08,1-1.28,5.08.73,6.61-2.12,4.26-7.93,14-8,19.76-14.29,11.46-12.57,23.81-24.34,36-36.22,3.66-3.55,5.11-8.16,7.62-12.11,2.25-3.54,2.5-7.83,5.07-10.73,5.07-5.72,10.74-10.92,16.49-16.68,4.73,0,9.81-.27,14.85.09,4.05.29,8.88-2.08,12.05,1.48,4,4.47,11.27,3,14.37,8.87,1.14,2.16,3.54,3.64,5.3,5.49a6.28,6.28,0,0,1,.36,8.73c-5.14,6.28-13.68,10-14.48,19.54-5.92,4.71-8.34,12.08-13,17.48-5.46,6.37-7.61,14.05-11.85,20.77a53.81,53.81,0,0,1-5.93,7.74c-2.29,2.47-5.52,4.75-4.14,8.45,2.58,6.91-7.2,9.48-5.17,15.78,1.95,6-4.1,8.47-5.43,13.16-1.73,6.08-6.82,11.19-5.08,18.3-6.38,3.82-4.73,10.13-4.85,15.86-.06,2.53.08,5-2.37,6.7-3.35,2.27-2.47,5.79-2.88,9a12.45,12.45,0,0,1-2.66,6.47c-1.88,2.09-1.41,4.84-2.5,6.66-11,18.32-18.17,38.69-29.89,56.62.29,5.69-3.46,9.11-7.27,12.28-2.88,2.4-4.16,5.08-3.6,8.79.25,1.67.67,3.78-.08,5-2.92,4.88-10.71,6.67-9.92,13.7.65,5.76-4.31,8.92-4.92,13.29-.82,5.81-7.81,8.88-5.61,15.75,1.67,5.24-7,7.31-5,13.17-5.74,3.93-5.55,9.81-5.16,15.75-8.86,3.67-1.45,15-9,19.29a2.59,2.59,0,0,0-1.1,2c2,13.74-4.52,28.24,4.71,41.56,2.42,3.49,1.11,10.06-4.25,13.18-5.58,3.24-12.28,4.79-16,10.84-.43.7-1.16,1.72-1.78,1.74-10.13.33-20.36,1.45-30.34.34-5.05-.56-10.81-4.19-14.23-8.18-8.31-9.69-19.7-14-30.38-19.55-6.27-3.26-12.61-6.46-19.07-9.41s-13.15-6.22-18-12.26c-3.23-4-9.11-.1-14-3.33-5-3.35-10.42-8.43-16.92-7.94-7.13.53-10.91-6.54-18.38-5.88-4.76.42-10-4-14.93-6.5s-9.45-7.35-14.49-7.85c-6.05-.6-10.6-3.79-15.83-5.13-5.49-1.41-8.91-8.14-15.68-5.63-2.75,1-4.31-2.16-6.42-2.83-6.77-2.18-12-7.19-19.92-7.93-6.44-.59-13.35-4.76-18.81-9.61-8.18,3.27-13.26-5.06-20.85-5.58-5.83-.4-11.58-4.69-16.94-8-1.9-1.15-2.7-2.3-3.67-.15a14.77,14.77,0,0,0-.93,4.7,3.13,3.13,0,0,0,.85,2.16c11.4,11.48,22.56,23.22,34.44,34.19,4.63,4.28,11.29,5.72,16.06,10.75s8.5,11.87,17.36,13.52c5.62,1,8.56,8.89,15.94,10.77,5,1.26,8.45,8,12.83,12,3.54,3.27,9,2.78,12.51,7.09,4,4.91,8.08,10,15.65,11.43,5.09,1,6.63,9.08,13.93,9.66,3.3.27,6,5.51,9.4,7.88,2.52,1.76,7,1.7,8.41,3.87,4.8,7.58,14.46,7.58,20,14.16,5.19,6.21,14.52,7.36,19.62,14.39,1,1.32,4.58-.46,6.77,1.94,5.16,5.65,10.75,10.91,16.17,16.33,4.82,4.82,9.2,10.2,14.57,14.3,6.23,4.77,5.55,14,12.54,17.89,4.85,2.72,2.45,9.26,7,12.66,1.82,1.36,1.06,6.16,1.45,9.4.53,4.41,0,8.53-4.21,11-6.18,3.66-4.92,12.22-10.82,16,1.72,9.16-9.3,10.7-10.84,18.57-1.49,7.6-9.17,11.71-14.58,16.79s-8.75,12.28-17.29,13.75c-2.79.48-5.65,3.68-7.44,6.34-4.91,7.29-14,8.22-19.9,13.83-5.17-1-7.63,3-10.21,6-3.07,3.66-7.18,3.23-11,4.52-6.74,2.28-14,3.59-20.16,6.68-5.51,2.78-13,3.37-16.27,10.35-1.65,3.55-5.45,3.23-8.87,3.12-1.61-.06-4.29-.19-4.7.62-3.87,7.62-12.29,2.59-17.8,6.89-7.72,6-16.95,9.84-27.34,7.75-5-1-7.92,1.85-10.61,5.18a7.74,7.74,0,0,0-1.42,3.6c-.06.38,1.17,1.37,1.83,1.4,7.33.3,15.17-1.63,20.88,5.18h23c7.66,0,15.33,0,23,0,4.92,0,9.79-.86,13.86,4,1.51,1.78,6.28,1,9.57,1.07,10.22.11,20.46-.35,30.65.17,8.82.45,16.19,7,26.05,5.31,9.1-1.54,18.68-.29,28-.34,5.84,0,8.91,7,15.83,5.39,5.67-1.29,11.86-.26,17.82-.26s11.94.23,17.88-.1c3.09-.17,4.21,2.55,6.34,3.28,6,2.06,11.36,5.47,17.2,7.84,5.63,2.29,9.36,8.16,15.94,10.87,7.63,3.14,9.12,12.8,11.82,20.23,2.09,5.74-4.57,13.94-10.56,14-9.37.16-18.75.34-28.1-.06-7.21-.3-12.75-7.26-20.59-5.7-3.22-5.4-8.65-5.2-13.47-4.25-7.29,1.44-10.82-7.1-18.41-5.56-6.54,1.33-13.67,1-20.35.06-6.19-.88-10.83-6.69-18.4-5.17-6.55,1.32-13.57.28-20.39.28-9-10-20.72-3.51-31.11-5-7.18-1-15.2,1.82-20.85-5.22-6,0-12,.61-17.87-.13-12.93-1.62-26.92,5.11-38.87-4.87-1-.84-3.33.06-5-.14-12.11-1.43-25.15,3.76-36.21-5.08-6,0-12,.42-17.87-.11-7.16-.65-15.4,3.11-21.09-4.52-5-.16-10.16.2-15.11-.59-10.38-1.66-21.85,4.85-31.41-4.58-1.75-1.73-6.53-.42-9.91-.42H457.76c-9-3.79-14.59,6.76-23.47,5.36-7.46-1.18-15.26-.19-22.91-.15-7.28,8.95-17.27,3.84-26,4.95-4.82.61-10.22-1.46-13.78,4-.64,1-3,1-4.53,1.16-11.26,1.42-23.55-4-33.65,5.13-8.9,1.69-18.79-3.74-26.84,2.92-6.76,5.6-17.42-2.5-22.72,7.08-.22.39-1.6.06-2.4.23-8.81,1.82-17.86-2.84-26.91,3.08-7.88,5.15-18.17,2.36-27.15,1.62-6.81-.56-8.75,7.9-15.88,5.77-4.69-1.4-10.14-.26-15.25-.26-6,0-11.92-.14-17.88.1-1.42.06-2.73,1.54-4.19,2.11-9.13,3.6-9.12,3.54-15.64.37-7.9-3.85-15.17-9.11-24.94-7.88-5.71.72-9.27-4.34-10.52-8.86s.33-9.91-4.67-13.59c-1-.71-.49-4.85.61-6.6,3-4.72,9.88-6.93,9-14.24-.06-.52,1.22-1.79,1.71-1.71,7.84,1.33,13.42-5.15,20.6-5.86,3.37-.33,6.84.28,10.2-.12,7.14-.86,15.53,3.31,20.93-4.94,8.26,3.33,13.26-5.47,20.74-5.66,1.92,0,3.89-4.57,5.62-4.43,15.82,1.32,27-8.62,40-14.8,5.57-2.66,11.11-6,17.25-7.67.71-.2,1.16-1.22,1.83-1.74,4.23-3.39,4.4-4.36,1-7.23a45.44,45.44,0,0,0-5.8-4.52c-4.94-2.93-9.08-9.92-6-12.62,6.37-5.63,4.94-12.31,4.5-18.67-.4-5.9,2.13-9.44,6-13,1.77-1.61,4.48-4.1,4.19-5.75-2.13-12.52,7.06-21.08,10.16-31.66,1.39-4.72,7.52-7.19,5.57-13.06,8.42-5.86,10.17-16.89,18.05-23.18s9.06-17.58,17.57-23.38c-1-5.17,2.93-7.64,6-10.24,5.77-4.91,9.41-11.17,12.57-17.83,2.42-5.1,3.64-10.91,9-14.16,4.59-2.77,3-8.82,7-12.57,5.2-4.87,8.29-11.91,13-17.41,5-5.82,12.5-10,15.82-16.52,9.11-17.81,26.33-27.92,38-43,5-6.41,13-6.8,18.05-12.4s10.83-10.76,16.28-16.1c8.52,1,11-7,15.68-11.25,4.92-4.48,11.64-5.36,16.35-10.44s13.36-6.24,17.5-12.87c3.75-6,12.08-5.3,15.9-10.87,3.09-4.52,8.6-4.51,12.26-7.37,5.12-4,11.84-4.64,16.51-10.31,3.62-4.4,10.81-7.38,16.71-8s9.29-3.1,12.61-6.85c2.38-2.69,5.18-3.33,8.59-4.15,4.25-1,4.31-7.86.3-9.78-2.05-1-5,.79-6.85-2-5.69-8.6-16.9-9.9-23.37-17.9-3.94-4.86-7.72-10.36-15.67-11.48-5-.71-7.6-7.57-13.5-10.23-7.25-3.27-12.64-10.7-18.76-16.41-5.27-4.92-17-5.44-22.36.48-4.64,5.17-12.51,5-16,10.74s-9.82,5.47-14.48,8.66c-6.42,4.4-15.27,5.63-20.62,11.35-5.82,6.21-15.61,6.26-19.8,14.22-6.47,1.93-11.38,5.94-16,10.77-11.21,11.66-22.8,23-34.24,34.39-.66,10.57-13,13.33-15.36,21.69-2.63,9.19-10.16,13-15.46,19.15-5.85,6.81-7.86,16.33-15.64,21.67,1,5.17-3.15,7.37-5.95,10.3-3.53,3.69-6.77,7.89-10.93,10.68-4.75,3.19-2.16,9.65-7.06,12.59-7.39,4.44-6.54,15.29-14.5,19.48s-7.16,14.94-14.48,19.51c-4.71,2.94-2.34,9.39-7,12.63-2.18,1.5-1.76,6.91-3.93,8.23-7,4.28-7,12.85-12.35,18.15-4,4-10.18,6.52-10.65,13.39-8.67,10.56-14.42,22.84-20.43,35-1.75,3.53-4.6,7-4.83,10.67-.29,4.73-6.2,5.55-5.55,10.66.76,5.83.4,11.8.52,17.71,7.44,4.66,4.42,12.09,4.64,18.48.31,9.18,0,9.21-10,9.24-7.67,0-15.35-.31-23,.1s-12.5-8.39-20.88-5.73c-1.12.35-4.37-3-5.16-5.18-2.31-6.35-6.11-11.33-10.89-16-3.3-3.22-1.32-7.87-1-11.9.05-.65,1.25-1.13,1.7-1.83,2.06-3.22,6.91-4.28,7-9-9.54-5.41,5.54-8.76,1.22-14.22-1.25-1.58,0-5-.22-7.52-.37-5.25,6.74-7.1,5.36-13.26-1.1-4.86-.22-10.17-.22-15.28s.07-10.22,0-15.32c-.13-7.43,7.32-12.46,5.46-20.95-1.6-7.32-.33-15.26-.33-22.92,6.95-7.63,4.93-17,5.08-26,.14-8.51,0-17,0-25.54,0-23-.18-46,.11-69,.09-6.36-2.58-13.35,4-18.91,1.77-1.49.95-6.33,1-9.63,0-54.5-.12-109,.23-163.49,0-6.12-3-9.25-6.68-12.63-2.47-2.29-8.47-1.52-8.41,1.13.19,7.3-5.7,9.87-9.37,14.1-3.34,3.85-7.39,7.08-10.72,10.94-3.75,4.35-10.15,7-10.84,13.31-.56,5.12-7.34,7.27-5.48,13.11-4.32,4.83-8.66,9.14-11.39,15.72-2.66,6.4-11.56,10.08-8.86,19.33-6.67,4.72-4.67,11.81-5.18,18.31-.44,5.58-6.86,9-5.26,15.82,1.14,4.85.22,10.17.22,15.28,0,6,0,11.92,0,17.88,0,7.36-7.19,12.51-5.43,20.94,1.54,7.35.32,15.27.32,22.93s.42,15.36-.12,23c-.5,7.16-6.69,12.71-5.26,20.93,1.29,7.44.73,15.32.08,22.93-.32,3.8-7.76,7.27-.16,11.26-.37.6-.66,1.66-1.11,1.73-3.23.51-6.61.41-9.73,1.26-7.51,2-11-6.89-17.92-6.2-2.77-5.46-14-2.49-12.34-12.33-11.54-4.29-6.39-18.35-14.45-24.68.81-6.34-3.27-13.45,3-18.94.63-.56,1.62-1.14,1.72-1.82.26-1.66-.16-3.43.13-5.08,1.82-10.35-4.84-22.09,5.07-31.1,0-11.07-.2-22.15.18-33.21.07-2.06,2.42-4,3.73-6,2.13-3.26,1.43-5.92-1.1-8.81-1.48-1.68-3.26-5.58-2.6-6.26,7.49-7.77,4.21-17.32,4.93-26.18.2-2.4,0-6.19,1.32-6.92,6.93-3.85,1.09-11.65,5.37-15.79,2.67-2.59,3.93-5.12,3.6-8.83-.21-2.34-.74-4.78,1.65-7,4.86-4.48,10.77-8.61,8.62-16.91-.28-1.08,1.4-2.75,2.32-4,3.82-5.43,11.38-8,12.74-15.13,1.26-6.64,7.83-8.56,10.65-13.51,11.46-20.05,29.72-33.9,45.42-50.05,3.71-3.82,4.46-8.54,7.12-12.46,4.13-6.08,14-9.25,13-17.32-.76-6.56-6.5-12.46-9.64-18.85-7-14.13-13.65-28.4-20.51-42.59-.69-1.43-1.42-3.22-2.66-3.94-6.26-3.63-6.85-11-10.86-16-3.67-4.58-8-8.64-12-12.94,1.19-8.3-9.46-9.41-10.07-16.21-.63-7.06-9.32-8.72-9.82-13.7-.62-6.25-4.52-8.78-7.83-12.22-8.85-9.2-18-18.15-27-27.13-2.16-2.14-2.23-5.84-.93-6.7,4.68-3.15,4.14-8.7,6.9-12.69,3.22-4.65,9-3.89,12.39-7.22,2.75-2.72,5.61-3.06,9-3,9.37.12,18.73.09,28.1,0,4.19,0,8.37-.32,12.56-.5,3.61-7.71,12-3.24,17.71-6.79,5.12-3.16,10.29-8.53,17-7.84,7.1.74,11.1-5.69,18.33-5.85,8.39-.19,14.88-8.56,23.64-10.22,3.19-5.35,8.71-3.58,13.37-4.84,5.19-1.41,9.94-4.84,14.55-7.88,4-2.64,9.51-2.24,12.66-7,.78-1.18,4.86-.41,7.39-.13,3.24.35,4.77-1.42,5.05-4.1a63.27,63.27,0,0,0,0-10.21c-.49-8.36,1.25-14.78,11.06-16.64,2.85-.53,5.35-3.62,7.73-5.83,3.75-3.47,8-6.73,10.68-10.93,2.79-4.35,8.3-1.76,10.65-5.34,3-4.6,8.76-3.28,12.73-6.82,4.43-3.95,11.56-4.7,17.05-7.72,4.88-2.67,6.81-10,14.12-9.12,3.08-5.63,10-4.78,14.45-8.54,4-3.4,10.16-6.82,14.9-6.27,7,.81,10.2-4.73,15.68-6.18,5.21-1.38,10.05-4,15.8-5.15,4.18-.8,7.8-5.44,13.34-4.59,5.22.81,7.25-7.36,13.2-5,6.66,2.6,8.83-8,15.8-5.19,5.63,2.28,8-4.54,13.09-5.51s9.67-4.68,15.81-5.15c4.11-.31,7.62-5.81,13.26-4.64,5.36,1.1,7.24-7.05,13.22-5.12,4.91,1.58,7.4-4.22,10.69-4.61,5.9-.71,10.73-1.81,16-5.11,3.67-2.3,10.21-1.47,15-.23,9.06,2.36,14.78-7.49,23.52-5.48,1.09.25,2.84-1.38,4-2.46,3.7-3.52,7.39-7.07,10.85-10.83C564,21,570.3,16.87,578.93,24.44c1.56,1.36,4.82,1.79,7,1.3,10.56-2.44,15.65,5.31,20.65,11.65,4.39,5.56.78,13.08,1.61,19.67.37,2.94,1.65,4.5,4.62,4.58.86,0,2.23-.33,2.48,0,5.05,7.84,16.44,2.27,21.39,10.17,5.65,1,12.25-2.68,16.92,2.16,5.17,5.39,11.47,3.45,16.67,2.57,7-1.18,9.8,5.89,15.83,5.56s12.36-1.46,17.78.26c8.6,2.73,16.79,5.6,26.09,4.93s18.73-.14,28.09-.14h28.11c4.25,0,9-1.13,12.65.3,4.2,1.61,7,6.41,11.57,0,1.14-1.62,8.22-1.69,9.55,0,5.33,6.6,12.13,4.81,18.63,4.83,41.73.07,83.46-.07,125.18.17,5.65,0,12.36-2.91,16.87,2.07,4.28,4.71,10.15.84,13.82,3.68,3.5,2.7,6.48,4.43,11.06,4.5,6.38.11,13.76-2.87,18.59,4.31,6.75-.4,12.21,3,18.19,5.4,5,2,8.78,6.75,15.68,5.87,6.2-.8,8.73,7,13.35,10.4,3.46,2.56,1.56,6.24,1.91,9.41.27,2.53-.16,5.13.1,7.66.38,3.63-.8,6.21-3.41,8.88-5.08,5.21-11.46,9.27-13.08,17.6-.72,3.65-7.3,1.32-10.42,5.3C1041.69,183.53,1041.11,184.11,1047.92,192.23Zm-465.25,182c0,11.91.24,23.82-.09,35.72-.21,7.81,2.86,13,10.51,14.36,4.87.88,7.24,7.34,13.17,5.28,5.76-2,7.69,6.34,13.18,5.06,6-1.4,9.24,2.46,12.83,6.08,1.67,1.69,4.26,4.27,5.84,3.91,6.64-1.52,10.65,3.45,15.77,5.45,6,2.33,11.13,7.18,18.3,5.1,2.66,6.21,10.45,3.89,14.32,8.86,3.1,4,9.81-1.19,13.67,3.71,6.12,7.79,9.77-2.52,14.58-2.2,6.65.43,11.35-1.87,15.09-6.91a8.24,8.24,0,0,1,8.75-3.53c3.71.69,5.95-1.57,8.85-3.41,3.93-2.5,8.95-3.25,12.43-6.82,13,2,21-12.17,34.06-10.37,1.12.15,2.54-1.87,3.83-2.86,3.8-2.93,5.94-9.15,12.3-7.13,6.07,1.94,8.06-4.68,13.18-5.44,11-1.62,12.77-4.74,22-13.86,5.52-5.46,6.74-13.23,12.4-17.94,5.93-4.95,7.74-12.16,11-18.51a49.87,49.87,0,0,1,3.33-6.27c3.75-5.38,11.47-7.6,12.26-15.31.72-7.1,10.32-7.89,10.59-16.16.2-6.32,9.59-7.92,10.44-16.13.58-5.58,9.41-8.12,10.51-16,.69-5,7.92-7.16,9.93-13.68,1.77-5.77,9.19-9.57,12.83-15.08,3.07-4.65,4.12-10.48,9.12-14.13,1.66-1.21,1.62-4.52,3.09-6.24,5.77-6.79,10.11-14.53,15.18-21.77a37.79,37.79,0,0,1,10.82-10.71c5.75-3.47,3.23-11,8.8-14.47,6.53-4,8.82-11.81,10.69-18.38,2.14-7.51,12.4-9.26,11.28-18.48-.2-1.68,3.83-3.57,4.26-5.7a20.67,20.67,0,0,0-.61-9.84c-1-3-5.69-.81-6.49-2.07-5.13-8.12-16.8-1.69-21.5-10.08-6.34-.91-13.74,3-18.71-4.1-7.52-.34-15-.84-22.55-1-9.35-.17-18.7,0-28.06-.08-2.45,0-6.13.48-7.13-.86-3.76-5-8.74-4.22-13.71-4.21H788.35c-9.35,0-18.93-1.25-28,.35s-15.06-6.34-23.46-5.52a47.64,47.64,0,0,1-10.2,0c-15.43-1.86-31.53,4.5-46.57-4.71-3.71-2.28-10-.28-15.1-.36-5.74-.09-8.88-6.71-15.8-5.44-5.23,1-11.27,2-16.54-2.93-4.54-4.29-11.32-.75-16.91-2.11-1.41-.34-2.24-2.63-3.67-3.41-5.18-2.84-8.91-1.43-9,3.24-.08,6,0,11.91,0,17.86v17.86c0,6.8-.9,13.76.25,20.36s-4.78,10.33-5.21,15.8c-.6,7.61.42,15.35-.33,22.93-.62,6.35,2.26,12.77-3,19.25-4.82,6-1.55,14.59-1.88,22-.38,8.47-.16,17-.21,25.45-9.58,8.14-3.83,19-4.76,28.57-1,10.11-.28,20.39-.19,30.6,0,4.46-6.08,5.55-5.27,10.66.65,4.15.13,8.48.13,12.73Zm-21.29,709.44h58.76c3.4,0,8.2,1.45,10-.25,6.35-6.15,13.84-4.24,21.12-5,8.78-.88,18.79,4.13,26-5,5.11,0,10.52-1.07,15.26.26,7,2,8.7-7.3,15.91-5.74,7,1.51,15.09,2.06,20.8-4.74,8.27,2.91,13.34-4.9,20.42-6.36,2.66-.54,4.75-4.91,8.53-3.79,5.93,1.78,8.63-5.8,13.18-4.9,6.81,1.36,10.27-4.92,15.82-5.27,5.18-.33,7.29-5.57,13-6.16s10.73-8.16,16.46-8.78c8.48-.91,9.57-12.62,18.71-10.73,4.85-4.74,10.27-9,14.39-14.34,4.32-5.56,12-5.25,16.11-10.7.51-.68,1.63-1.16,1.73-1.83.86-6.15,5.82-9.61,8.77-14.33,3.44-5.51,5.91-11.51,11.1-15.83a5.54,5.54,0,0,0,1.77-4.26c-1-6.54,2.8-13.69-1.76-19.65s-4.12-17.06-15.81-16.23c-.58,0-1.26-1-1.86-1.58-8.31-8-15.81-16.65-26.61-22-5.78-2.88-9.18-10.27-14.79-13.84-6.19-3.95-13.29-6.78-17.45-13-4-6-12.73-4.32-16.06-10.76-2.63-5.08-8.72-4.1-12.31-7.26-3.83-3.37-7.21-7.24-10.92-10.75-1.13-1.07-2.74-2.42-4.06-2.35-8,.38-8.76-9.82-16.2-10.47-6.49-.57-9.32-6.77-13.27-10.83-4.69-4.82-11.71-5.26-16.25-10.56a285.56,285.56,0,0,0-23.39-23.55c-7.81-7.21-18.66-10.7-24.94-19.93a3.07,3.07,0,0,0-1.93-1.37c-1.64-.1-3.76-.42-4.86.43-2.69,2-6.86,4.65-6.91,7.11-.1,5-3.7,7.17-5.33,10.74-1.3,2.81.81,7.44-.78,9.81-2.35,3.5-5.56,6.18-4.58,11,1.28,6.21-2.29,10.7-4.87,15.88-3.15,6.35-7.3,12.85-5.45,20.78.32,1.38-.18,3.89-1.14,4.47-7.46,4.5,0,15.75-8.95,19.38,0,5.11-.58,10.29.13,15.3s-4.28,7.23-4.94,10.74c-1.34,7.1-8.31,12.62-5.56,20.85.77,2.29-.06,5.08.16,7.62.38,4.42-.65,7.87-4.14,11.13-8.71,8.14-16.83,16.89-25.42,25.16-8.29,8-15.39,17.15-26.6,22.05-5.09,2.22-9.33,7.59-12.59,12.44-3.66,5.43-11,3.68-14.34,8.9-1.28,2-3.41,4-3.62,6.1-.28,3-1.52,5.53-3.94,5.2-10.15-1.37-18.12,1.51-24.17,10-.61.86-3.24.68-4.81.38-4.93-1-8.18,1.65-10.58,5.2-1.73,2.56-1.9,6.29-3.86,8.53-3.18,3.66-8.19,2.09-12,1.4-6.66-1.21-8.93,8.2-15.86,5.49-2.24-.87-4.47,1.11-6.73,2-5.88,2.36-11,6.12-16.93,8.47-4.22,1.68-9.48,3.42-12.46,6.51-4.52,4.69-9.4,2.48-14.08,3.5-1.09.23-2.14,2.43-2.5,3.9-.65,2.63.55,6,2.89,5.91,6.17-.31,10.69,2.46,16,4.87,4.94,2.25,11.71.41,17.67.51,4.17.07,10.16-1.29,12.17.9,5.79,6.3,12.53,3.65,18.92,4.11,5.09.36,11.71-2,15.06.44,12.49,9.06,26.08,3.49,39,4.54C537.48,1084.45,549.46,1083.69,561.38,1083.69ZM275,342.71c-2.56,0-5.12.18-7.66,0-5.92-.52-7.25,2.69-6.59,7.7-6.12,2.72-4.56,10.05-8.72,14.41-3.54,3.72-3.77,10.39-6.8,14.84-3.72,5.47-8.65,10.18-13.39,14.88-3.64,3.61,1,4,2,5.37,1.19,1.65.59,2-.58,3.82-3.45,5.44-6.37,11-10.62,16.13a50.47,50.47,0,0,0-9.44,18.91c-.18.72-1,1.37-1.76,1.8-6.81,4.1-7.51,10.44-7,17.58s-1.6,15.14,5.19,20.84q.28,10.1.56,20.18c5.35,3.18,4.61,8.39,4.57,13.43-.07,8.51,0,17,0,25.52,0,7.65.93,15.45-.24,22.93-1.38,8.85,4.7,15.72,4.91,23.45.23,8.63,4.42,18.68-4.25,26.11-.29,7.44-3,16,1.35,21.94,4.76,6.53,2.41,12.8,3.34,19.15-8.66,6.28-4.88,15.49-4.94,23.41-.36,42.52-.13,85.06-.26,127.59,0,3.13,1.62,6.69-1.7,9.48-6.36,5.36-2.38,12.55-2.72,18.91,0,.63,4.41,2.45,6.36,2,2.14-.52,4.87-2.72,5.48-4.75,2.8-9.3,10.3-14.7,16.36-21.34a7.21,7.21,0,0,0,1.78-4.31c.13-5.13,5.8-7.35,6-13,.11-3.11,6.87-5.54,8.17-9.16a30.59,30.59,0,0,1,7.49-12.27c5.23-5.1,6.53-12.8,12.45-17.94,5.33-4.63,7.93-12.33,13.1-17.22,4-3.75,3.14-9.08,6.87-12.68,7.86-7.59,17-14.75,22.17-24,6-10.69,15.78-17.09,23.09-26.07,3.58-4.39,8.43-7.53,9.32-14.12.34-2.53,4.33-5.92,7.12-6.45a16,16,0,0,0,8.51-4.36c7.22-6.63,12.9-14.72,23-18.47,6.6-2.46,9.32-11.27,17.39-13.5,6.94-1.91,9.68-11.41,18.22-11.38,4.1-6.75,11.49-9.52,17.92-12.2s12-8.53,20.16-7.12c1.65.28,4-2.53,5.78-4.14,4.43-3.94,4.77-6.87,1.2-10.48-9-9.07-18-18.06-27.05-27.08-3.41-13.15-15.76-18.94-23.47-28.55-1.06-1.32-3.53-2.59-3.39-3.61,1.34-9.76-12.54-11.39-11-21-6-6.67-13.08-12.07-16.67-21.17-2.29-5.81-10.92-9.25-12.85-15-2.68-8-8.49-12.69-14.05-16.95-5.9-4.52-5.3-12.37-10.63-16.17-9.81-7-12-19.88-21.57-26.88,1.1-6.15-3.56-9.25-7.32-12.17-4.32-3.34-1.88-10-7.1-12.47-1-9.31-8.81-13.43-14.63-19.06C289.52,350.9,283.63,340.44,275,342.71ZM552,145q0-24.24,0-48.49c0-3-5-5.9-7.43-4.15-9.13,6.46-19.41,10.58-29.36,15.41-3.6,1.75-6.61,5-9.44,7.93-2.06,2.17-4.34,2.28-6.82,2.11-3.48-.24-6.32.36-9,3.13-3.33,3.44-6,9-12.29,7.06-6-1.84-8,6.65-13.17,5-6.86-2.13-9.94,6.27-15.77,5.11-7.48-1.48-11.06,6.46-17.88,6.52-2,0-4,3.57-6,3.63-5.2.15-10.14,0-13.25,5.18-6.32-1.37-8.29,4.68-12.39,7.11-8.14,4.83-16.25,11-25.15,12.88-8.23,1.7-16.71.53-22,8.87-1.73,2.74-4.48,1.57-6.85,2-4,.68-8-1.11-12.17,1.47a154,154,0,0,1-29.64,14.67c-3.09,1.09-2.39,4.76-1.63,6.73,1.11,2.88,5.62,4,4.9,8.17-1.67,9.59,3.4,17.12,7.48,25,1.08,2.09,3,4.61,2.55,6.48-2.05,9,4.19,15.42,6.78,22.86,1,2.81,4.59,4.94,3.59,8.67-2.43,9.07,4.54,15.16,7.07,22.64.72,2.12,3.18,3.29,3.32,6.31.61,12.83,7.25,20,20.48,20,3.19,0,4,3.27,6.15,3.65,7.09,1.31,12.2,8.52,20.25,6.67,4.84,5.3,13,3.23,17.5,6.63s10.82,3.1,14.93,8.17c2.36,2.91,9.1-.81,13.67,3.66,3.7,3.62,9.83,4.68,14.75,7.14,2.84,1.42,6,5.32,8,4.71,7.74-2.38,12.64,3.45,18.22,5.88,6.39,2.78,12.47,8.86,18.95,9.18,7.12.36,11.36,6.87,18.24,5.82,3.1,5.13,8,5.19,13.23,5.1,9.58-.18,8.85-.07,9.88-9.75s-4.84-20.45,4.82-28.57c0-6.79.07-13.58.08-20.38q0-17.87,0-35.73c10.07-9,3.21-20.74,5.09-31.07s-4.61-22,5.13-31.06q0-16.59,0-33.18c0-.79,0-2,.44-2.33,7.71-5.7,4.19-13.94,4.51-21.08C552.4,168.85,552,156.92,552,145Zm511,412.68c0-3.28,0-4.13,0-5,.15-5.14-.93-6.27-4.84-2.82-4.57,4.05-9.89.42-14,3.34s-5.83,8.88-11.49,9.06c-4.18.13-5.27,4.72-8.11,5-6.71.76-13.56.28-20.35.3-4.58,7.22-11.86,4.65-18.32,5-8.06.5-16.84-2.3-23.39,5.11-4-.59-8.56,1.7-11.73-2.44-1.93-2.51-3.43-2.12-5.48,0-4.89,5.11-11.24,1.36-16.82,2.43-7.41-8-17.15-4.14-25.94-5.14-7.15-.81-15.48,3.1-20.86-5-5.68-.88-12.43,2.49-16.95-2-6.05-6-12.86-2.62-19.2-2.93-6-.29-11.21-.83-15.9-5.18-1.38-1.28-5.14-.49-6.43,2.16-1,2.1-.52,5.58-2,6.7-9,6.8-11,17.66-15.85,26.74-5.11,9.66-12.57,18.52-13.19,30.24a7.64,7.64,0,0,1-1.54,4.42,81.46,81.46,0,0,1-9,9c-3.42,2.84-4.15,6.64-5.61,10.48s-7.15,1.79-10.5,5.28c-6.75,7-22.65,13.54-33.47,17.4-7.4,2.64-15.42,4.87-20.68,11.65-1.89,2.43-.64,8.75,1.76,8.27,6.11-1.22,8.06,6.86,13.21,5.29,6.85-2.09,9.92,5,15.77,5.51,2.81.23,6.12,5.16,8,4.51,7.87-2.79,11.7,6,18.41,5.46,3.77,7.79,13.09,2.38,17.41,6.91,4.48,4.69,10.76,1.05,13.7,3.75,3.92,3.61,9.71,3.19,12.49,7,4.31,5.84,11.73-.29,15.85,5.23,4.27,5.7,13.77-.49,17.37,7.24,7.21.66,12.35,8.83,20.61,5.68,3.84,5.86,12.33,4.36,16.17,10.22,8.28-3.2,13.37,5.12,20.6,5.71,2.7,6.14,11.41,2.88,14.12,9,6.77-.48,12.44,2.19,18.1,5.61,4.68,2.82,10.7,3.81,14.72,7.25,3.83,3.28,7.51,3,11.59,3.09,3.07.09,5.53-2,4.55-4.34-3.26-7.84,6.66-11.42,5.31-18.37,8.71-3.29,2-13.07,7.11-17.37,5-4.14.68-11.13,3.78-13.57,5.14-4,2.75-11.69,8.71-14.51-1.39-6.43,7.81-9.23,5.78-15.34-2.33-7,6.86-9.17,5.58-15.85-.49-2.55,5.67-3.82,4.78-8-1.21-5.69,1.08-9.76,5.46-13.07,3.55-2.69,5.72-6,4.79-10.76-.76-3.9,1.81-6.07,4.19-8.49,2.82-2.89,7-5.07,6-10.24,9.14-13.91,15.17-29.44,22.64-44.21,2.81-5.57,8.67-10.78,7.65-17C1056.2,567.86,1062.31,562.45,1063,557.69ZM326.92,1047.93a22.12,22.12,0,0,0,4.4-1.68c5.32-3.48,11.18-5.93,17-8.4,4.35-1.87,7.23-6.91,12.83-6,2.78-6,10.47-3.59,14.5-8.73,2.51-3.2,9.16.73,13.71-3.64,3.77-3.62,10-4.54,14.62-7.44,5.41-3.37,11.62-4.91,16.87-8.83,4.27-3.18,10.24-4,15.1-6.49,5.64-2.93,10.89-6.62,16.3-10,6.8,2.78,8.84-8.17,15.63-5.41,2.63-6.27,10.48-3.81,14.37-8.85,3-3.88,9.7,1.12,13.69-3.7,3.78-4.57,8.33-8.5,12.54-12.72,10.24.22,12.29-11.68,19.69-14,9.74-3,14.32-11,21.21-16.71,7.77-6.45,9.58-16.57,14.88-24.35,3.41-5,.92-10.57,3.5-13.86,4.63-5.87,6.3-12.85,9.81-19s9.11-12.29,9.67-18.78c.67-7.85,5.2-13.39,7.61-20,1-2.88,3.84-5.22,3.19-8.87-1.24-6.93,7.85-10.79,5.37-18.39-.47-1.42,2.84-3.76,3.64-6,3.79-10.44,9.71-19.81,14.54-29.72,5.18-10.64,9.58-21.68,16.19-31.6,2.15-3.22,1.53-6.14-1.33-8.73-1.89-1.71-3.61-3.61-5.44-5.39-6-5.81-9.77-6.4-17.42-2.51-4.93,2.51-9.51,6.57-14.68,7.53-6.89,1.26-8.9,7.31-13.6,10.5-6.79-2.76-8.9,8-15.63,5.41C564.87,746,561,751,553.79,752.78c-5.06,1.25-7,8.33-14,9.45-5.88.93-7.92,10.93-16.16,10-5.58,5-10.42,11.72-16.95,14.58-6.7,2.94-11.12,7.81-14.92,12.74-4.94,6.4-13,6.84-18.13,12.32-7.55,8.08-15.58,15.72-23.4,23.54-8.43,8.43-17.16,16.57-25.19,25.36-7.16,7.84-10.88,18.44-19.82,25.05-1.49,1.11-1.11,4.53-2,6.72-.94,2.36-2.14,2.27-3.59.51-2.12-2.55-4.74-5.89-6,.61a22.2,22.2,0,0,0,0,5.09c.25,6.12-5.19,8.27-8.46,11.78-4.25,4.58,1.21,11.74-5.24,15.84-8.6,5.48-12.75,14.8-16.63,23.66-1.39,3.16-2.56,6.29-5.19,8-4.75,3-4.3,8.68-7.24,12.38-3.15,4-7.32,7.13-10.63,11a10.41,10.41,0,0,0-2.66,6.44c.17,4.57-3.12,7.51-4.23,11-3.31,10.56-13.12,18.75-11.45,31.14.14,1-2.54,2.2-3.35,3.63C315.59,1038.85,321.08,1048,326.92,1047.93ZM598,569.66c0,3.4-.61,7,.21,10.13.56,2.14,4.92,4.27,4.56,5.51-2.89,9.79,8.86,16.22,5.5,25.94-1.71,5,4.68,7.27,4.68,10.59,0,6.35,7.71,9,6.18,15.41,4.8,4.8,9.79,9.42,14.32,14.46,2.66,2.95,5.77,2.78,9.09,2.74,5-.05,10.25,1,13.46-4.35,10.89-2.16,18.86-12.57,31.07-11,3.31-4.47,7.75-6,13.15-5.12,4.28.67,5.86-3.16,7.79-5.52,2.43-3,3.12-7.42,5.66-10.25a233.56,233.56,0,0,1,19.75-19.8c7.55-6.62,9.57-17.16,17.83-23.27,10.83-8,13.54-21.5,20.36-32.25,1.33-2.09-.79-6.13-2.85-5.72-6,1.2-7.9-6.94-13.17-5.27-7.5,2.39-11-5.95-18.28-5.78-5.62.13-11.9-4-16.87-7.67-5.43-4-14.17,1.32-17.54-7-3.27,8.66-12.09,2.79-17.51,6.7-5,3.62-11.24,5.55-16.76,8.53s-10.69,8.34-16.45,9.06c-6.15.77-9,7.71-15.39,6.23-3.79,5.9-12.38,4.23-16.12,10.22-7.31-2.68-12.17,3.37-18.26,5C599.67,558,598,559,598,562,598,564.58,598,567.12,598,569.66ZM249.46,225.71c2.26-.42-1.4-.79-2.3.61-3.47,5.45-11.72,2.59-14.34,8.87-6.75-2.71-8.81,8.2-15.61,5.39-2.66,6.2-10.24,4.13-14.36,8.78-3.6,4.07-12-1.53-15.36,5.61-10.41,3.76-19.65,10.08-29.81,14.2-11.64,4.72-21.7,14.2-35.76,12.43-1.77-.22-3.89,2.6-5.9,3.94-2.63,1.74-7.18-.1-8.5,3.68-1.72,5,2.51,7.47,5.37,10.45a30.26,30.26,0,0,1,5.12,8c3.13,6.33,5.48,13.18,10.92,18.56,5.68,5.63,7.6,14.19,14.45,19.52,5.73,4.46,12.35,9.25,10.29,18.72-.34,1.52,2.4,4.32,4.33,5.61,4.55,3.05,4.78,8.3,7.25,12.35,2.91,4.75,9.6,6.89,9.09,14.2-.14,2,2.21,2.4,3.4.91,2.5-3.13,5.87-5.16,6.7-10.06.74-4.38,6.13-7.56,4.78-13.25-1.29-5.44,7-7.36,5.07-13.17,5.43-4,5.76-9.72,5.11-15.73,6.09-3.82,5.12-9.84,5.19-15.73.07-4.79-.84-9.37,3.3-14.08,2.63-3,.94-9.54,1.89-14.36.42-2.17,2.89-3.86,3.84-6,2.11-4.85,7.74-2.17,10.6-5.35,4.74-5.28,11-5.66,15.34-1,5.15,5.55,14.07-1,17.82,6.89.41.87,3,1.13,4.54.95,6.85-.78,12.93.6,18.39,5.05.75.61,3.12-.34,4.49-1.05,1.81-.93,1.05-1.94-.58-3.65s-3.2-4.38-2.86-6.28c1.42-7.91-8-12.49-5.64-21,.91-3.24-6.17-5.5-4.78-10.53-4.6-4.3-6.87-9.87-4.91-15.66,2.4-7.12-7.8-8.92-5.62-15.9C260.91,226.05,256.8,224.91,249.46,225.71ZM541.79,497.54c0-7.64-.38-15.31.1-22.93.53-8.4-8.24-14.5-5.32-23.41a5.29,5.29,0,0,0-.92-4.58c-5.92-5.47-10.23-14.66-20.45-11.75-7,2-9.68-5.32-15.74-5.74-3.29-.23-6.57-4.76-9.28-7.86-4-4.54-10.23.88-13.84-3.56-2.38-2.93-5.14-3.76-8.8-3.52-7.43.48-12.58-8.09-20.66-5.42-5.8-8.6-13.85-11.39-24-10.09-1.7.21-4-4.24-5.7-4-5.84.7-8.19-6.24-12.95-5.74-6.86.72-11.08-2.39-15-7.08-1.56-1.86-3.22-4.17-6.22-3.3a26.64,26.64,0,0,0-4.25,2c3.71,3.28,3.6,8.69,6.41,12.19a119.32,119.32,0,0,0,14.32,14.47c5.05,4.45,4.57,12.57,10.79,15.9,4.49,2.41,2.27,8,5.42,10.51,11.24,8.9,15.61,23.45,26.9,32.29,1.11.87,1.44,2.75,2.12,4.17,1.71,3.54,4.65,7,4.85,10.64.37,6.9,6.46,3.61,8.9,6.19,1,1,1.19,2.89,1.57,4.41,1.81,7.27,11.06,9.7,11.46,18.32.12,2.51,4.48,4.8,6.85,7.23q6.21,6.35,12.36,12.72c.62,10.85,11.15,14,16.73,21,1.48,1.85,7,2.64,9.2,1.37,8.9-5.16,19.09-7.88,27.18-14.49,2.92-2.38,4.66-5.84,2.43-8.56-2.8-3.4-4.83-6.33-4.54-11C542.1,511.15,541.79,504.34,541.79,497.54Zm46-14.3c0,17.16.49,17,4.85,28.61,1.64,4.39,3.88,4.48,7.27,4.64s6-1.46,9.05-2.86c6.37-2.93,11.78-9.1,19.91-7.4,3.16.66,4.42-2.06,6.06-3.78,3.45-3.64,6.9-6.8,12.35-7.34,2.5-.25,2.31-2.06.06-3.5-2.72-1.75-5.16-5.39-7.82-5.49-5.36-.22-7.31-7.64-13.19-5.43s-8.59-3.89-13.05-5.54c-5.74-2.13-11.8-4.42-16.92-8.57-4.12-3.35-8.51-.88-8.56,3.89C587.74,474.72,587.78,479,587.78,483.24Zm214.43-12.71c-2.51,0-6.32-1-7.3.18-3.63,4.55-8.69,3.66-13.09,5.29-6.42,2.37-13.5,4.57-18.44,10.3-1.55,1.79-2.35,3.29-.24,3.5,7.2.7,12,6.79,20.14,6.78,9.42,0,12.11,1.72,13.75-4,1.77-6.19,6-10.91,8-16.85C807,470.25,807.59,470.45,802.21,470.53Zm-469.72,633.6V1104h12.7c6.39-8.49,15.57-3.75,23.49-4.92,2.46-.37,5-.22,7.46-.56.67-.09,1.47-1,1.72-1.76a2.06,2.06,0,0,0-1.12-1.7c-4-.73-9.45.16-11.73-2.15-6.6-6.67-14.65-4.69-21.37-3.57s-14,3.74-18.86,9.59a8.86,8.86,0,0,0-1.71,3.61c-.1.37,1.1,1.49,1.76,1.54C327.37,1104.25,329.93,1104.13,332.49,1104.13ZM903,434.69c-7.27-2.16-13.23,3.29-20.11,5-6.34,1.59-2.15,9.27-7.37,11.65-1.19.55-1.89,4.77-1.1,6.52,1.68,3.69,3.39.38,5.19-.68,4.79-2.82,10.69-3.67,14-8.93,3.21-5,11.28-2.83,14-8.93.32-.72,1.15-1.21,1.75-1.81a24.34,24.34,0,0,0-3.36-2.77C905.46,434.39,904.44,434.69,903,434.69ZM551.5,582.49,547,585.35c.52.58,1,1.18,1.55,1.73a33.3,33.3,0,0,0,3.5,3.43,18,18,0,0,0,3.44,1.68c.54-2.22,2.06-4.85,1.36-6.56S553.17,583.38,551.5,582.49Z"/></svg>