<svg id="Layer_1" data-name="Layer 1" xmlns="http://www.w3.org/2000/svg" viewBox="0 0 1200 1200"><title>BB_Artboard 48</title><path d="M599.81,822.94c1.38-1.71,4-2.34,4-2.84-.45-9.06,5.36-15.67,8.76-23.2.62-1.37,2.09-3,1.74-4-2.14-6.41,4.54-9.72,5-15.06.31-4-1.14-8.72.52-11.92s5-5.86,4.8-10.21c4.85-2.42,3.15-8.86,6.94-11.66,5.35-4-.5-11,5-15.11,3.66-2.7,4-8,6.44-11.94s-.25-11,5.59-14.59c-1.21-6.6,6.57-10.11,5.37-17.51-.72-4.44,5.54-8.73,4.72-15-.28-2.15,3.57-4.81,5.44-7.29,1.39-1.83,4.05-4.08,3.7-5.6-1.43-6.31,4.41-10,4.88-15.08.46-5,.42-9.55,5.11-12.55-1-9.18,5.38-15.6,8.2-23.33,2.28-6.25,5.49-12.77,6-19.28.4-5.33,4.31-8.17,5.19-12.57.75-3.74-1.17-8.16,3-10.92,2.5-1.65,2.41-4.32,1.85-6.46-1.82-6.93,2.37-11.93,5-17.46s6.9-10.59,4.88-17.44c-1.42-4.8,4.9-7,4.53-10.1-1.06-9.06,8.07-15.6,5.29-24.8-.4-1.3-.06-3.57.84-4.38,4.8-4.33,4.93-11.13,8.8-15.87-2.27-6.27,3.57-9.89,5-15,1-3.56,3.31-6.72,4.71-10.2,2.65-6.56,6.81-9.88,14.42-9.49,10.05.52,9.68,1.2,20,4.68,9.19,3.11,8.33,12.68,14.31,17.35-3,2.73-6,5.44-4.83,10.12,1.78,7.3-1.64,12.35-7.12,16.51-2.21,1.68-2.53,3.27-.11,5.19,2.88,2.28,3.87,6,1.11,8.08-4.78,3.62-2.55,11.1-8.45,13.65a20.81,20.81,0,0,1-4.51,15.3c-2.94,3.82,2.15,11.35-2.46,15.78-4.37,4.18-3.11,9.1-2.57,13.47.7,5.61-5.43,7.29-5.32,12.61.16,8.42-7.26,15.4-5,24.81.7,2.93-5.68,5.21-4.6,10.07.73,3.24.08,6.35-3,8.47-.65.45-1.63,1.11-1.65,1.7-.17,4.84.9,10-.52,14.44-1.09,3.36-5.44,5.46-4.64,10.26.52,3.13,1.15,8.53-.24,9.29-7.37,4-1.86,12.58-6.74,16.9-2.84,2.51-2.32,5.54-2.74,8.66-.8,6-1,6-9.65,6.28,0-.77,0-1.54,0-2.31.12-3,.61-6.52-3.27-7.25-1.84-.35-4.25.82-6,1.94a20.32,20.32,0,0,0-4.91,4.84c-2.16,2.81.47,7,4.69,7.62a33.74,33.74,0,0,0,4.61,0c-.17,4.93,4.61,6.22,7,9.21.69.85,3.14.84,4.52.41s2.53-1.81,3.64-2.91c4.63-4.56,9.2-9.17,13.79-13.76,0-10.41,11.76-12.61,14.71-20.67,3.93-10.67,10.85-19.89,14.42-30.51,1.47-4.36,7.24-6.75,5.26-12.5-1.63-4.73,4.41-7,4.44-10.13,0-6.07,7.31-8.61,5.9-14.75,4.59-4.59,9.4-9,13.7-13.83,3.3-3.72,7.46-2.89,11.13-2.35s6.84,7.24,10.88.19c.44-.75,3.91-1,4.44-.28,3.1,4.06,8.3,3.92,12,6.53,4,2.88,6.15,6.59,5.86,12.22-.38,7.7,3.15,4.65,6.34,1.59.32-.3,2.52.76,3.26,1.66,1.4,1.72,2.53,2.36,3.49,1.06,2.37-3.22.34-10.62,8.22-8.57,2.74-4.38,8.08-4.12,11.83-6.66,1.92-1.29,3.26-4,6-3,6.43,2.37,9.48-4.66,15-5,7.8-.53,16.08,2.58,23.35-2.26,7.43-4.93,15.55-2,23.32-2.32a10.4,10.4,0,0,0,9.34-6.36c2.1-5.26,4.67-9.64,8.87-13.41,4.82-4.32,8.48-11,14-13.19,6.34-2.47,14.19-1.27,21.38-1.26,16.67,0,25.27,13.75,17.91,29.15-1.46,3-3.44,5.64-1,8.3s4.52,6.75,9.49,6.4c3.06-.23,6-.34,8.86,2.17,4.74,4.14,7.44,10.9,14.3,12.29,7.1,1.45,9.66,8,14.46,12,5,4.14,9.89,8.62,13.65,13.81,3,4.13,4,9.63,6.3,14.37a17.7,17.7,0,0,0,4.28,5.5c3.82,3.34,6.71,6.9,5.38,12.41-.7,2.9,1.39,4.53,3.22,5.92,2.51,1.91,2.31,5.89,1.48,6.41-6.36,4-2.3,7.06,0,10.93,1.06,1.8,0,4.77.22,7.19.48,5.33-2.22,11.53,4,15.36a151,151,0,0,1-.07,35.8c-5.2,3.28-2.68,6,.65,8.61-9.65,5.31.12,17.4-8.1,23.24a3.72,3.72,0,0,0-1,1.62c5.6,4.38,5.34,8,.83,13.87-2.84,3.71-1.57,10.56-2.14,16-6.88,3.18-1.68,10.69-5.27,14.81-2.21,2.54-4,4.69-3.62,8.32.53,5.59.1,10.51-4.44,15.35-2.53,2.69.6,8.64-3.59,13.08-4,4.17.17,12.69-6.51,16.62-.22,6.4-.39,12.8-.73,19.2,0,.6-1,1.33-1.66,1.7-7.56,4-6.9,14.12-13.75,18.66-3,2-3.39,4.9-3.44,8.35-.13,7.61-7.42,25.9-14,33-3.33,3.64-4.21,8.36-7,11.68-3,3.58-3.34,6.9-3.39,10.92a7.27,7.27,0,0,1-1.55,4.17c-3.38,4.19-9.14,6.82-8.54,13.52-15.45,10.86-18.72,29.68-28.63,44.16-1.11,1.62-.55,4.26-2.24,6.38-4.32,5.43-11.32,8.34-12.89,16.6-1.08,5.71-10.52,7.55-9.59,15.42-9,6.76-13.65,17.12-20.76,25.43-4.06,4.75-3.84,11.79-10.08,15.52-4.72,2.83-8.17,7.8-12.19,11.81-4.58,4.59-9.76,8.75-13.59,13.9-3.63,4.87-10.33,3-13.87,8.32s-8.22,11-13.76,13.43c-5.32,2.3-8.75,6.76-13.41,8.73-6.16,2.61-11,9.17-18.87,7.36-.77-.18-2.13-.34-2.36,0-3.6,5.8-11.62,4.46-15.51,9.7H796.32c-8.11,0-16.45-1.19-24.28.28-11,2.06-19.18-6.19-29.36-5.93-2.55-3.77-6.76-3.15-10.35-4.43-6.29-2.22-13.05-4-18.08-9.28-9-9.36-18.25-18.46-27.51-27.56-3.29-3.25-5.86-7.94-11.72-6.91-2.15-3.24-7.19-4.51-6.95-9.25.2-4.07-3.29-5.21-5.12-7.65s-5.13-3.81-4.76-7.8c1.08-11.36-11.2-18.3-9.84-30a115.89,115.89,0,0,0,0-21.88c-.45-6-7.61-10.37-4.82-17.49.16-.41-.71-1.31-1.23-1.86-1.1-1.17-2.12-.62-3.47,1.13s-5.05,4.2-4.68,5.15c3.15,8.11-6.37,12.71-5.12,20,.85,5-2.71,7.42-5.73,9.73-3.56,2.72-9,2.42-11.8,6.67-6.45-.11-12.91,0-19.33-.48-1.22-.08-2.19-2.3-3.47-3.26-4.6-3.44-3.09-10.53-8.29-13.74-.67-.42-.59-3.93.2-4.48,4.73-3.27,5.37-7.94,4.47-12.8-1.39-7.52,2-13.72,5.12-19.83,2.45-4.87,4.59-9.29,5.22-15,.44-3.92,5.67-7.35,4.35-12.64-1.2-4.8,5.45-5.55,5-10.16-.42-4-.08-8.11-.08-12.16,5.91-3.54,3-10.62,5.58-14.62,2.78-4.36,4.22-8.06,4.23-13,0-7.73-2.09-16,4.79-22.32-.26-8-.49-16-.86-24,0-.54-1.16-1.52-1.63-1.44a2.45,2.45,0,0,0-1.68,1.61c-.69,6.88-8.53,11.73-5.56,19.62-5.57,3.68-4.08,11.82-9.74,15.44.92,5.83-.4,10.94-4.87,15,3,7.11-3.08,11.79-5.18,17.34-1.9,5-5.85,9.18-4.56,15.13-5,4-4,11.71-9.65,15.55-2.93,2-7,4.77-1.27,8.54.4.26.76,1.42.56,1.64-4.77,5.19-11.43,9.09-9.48,18.23.39,1.84-3.89,4.63-6,7-1.48,1.75-4.47,2.9-3.37,5.86,2.37,6.42-3.17,10.24-5.21,14.92-5.69,13.07-12.79,25.52-19.16,38.31-3.6,7.21-7.58,13.79-16.56,14.93q-12.58,11.45-25.18,0c-5,.67-7.33-1.26-7.07-6.61.32-6.48.08-13,.08-19.47,6.47-5.44,4.69-12.9,4.87-19.89,8.62-3.49,1.3-14.17,8.32-18.54,1-.6,1.15-2.73,1.39-4.2.85-5.26-1.76-10.85,3.64-15.68,3.83-3.43-.88-10.7,5.16-15,3.48-2.46-.22-8.58,3.34-13.12,4.3-5.49,3.28-6.56-2.21-11.49a20,20,0,0,0-3.78-2.61c-1.65-.9-5.9.94-6.1,2.57a14.07,14.07,0,0,0,0,2.43c.34,7.32.38,14.38-6.9,19.15-1.58,1-1.86,4-2.86,6a16.72,16.72,0,0,1-2.47,3.81c-.37.41-1.62.29-2.34,0-7-2.32-10.78,6.2-17.48,5-2.36-.43-5,.39-7.27-.15-5.86-1.38-8.59-6.85-12.53-10.65-1.38-1.33-1.9-4.4-1.6-6.49,1.45-9.9-4.25-20.78,4.52-29.87,1.62-1.68-.17-6.33.31-9.5,1.74-11.48-4.44-24,4.63-34.64,1.2-1.41-.07-4.76.2-7.16,1.41-12.33-3.55-25.3,4.55-37.12,1.89-2.76-.09-8,.36-12,.77-6.81-3-14.68,4.36-20.08q.21-12.07.43-24.16c7.89-7,4-16.36,4.72-24.77.05-.49-2-1.34-3.17-1.67-.34-.09-1.45,1.06-1.48,1.68-.38,7,1.64,14.47-4.94,19.89,3,7.9-4.83,12.7-5.76,19.56-.28,2-4.18,4.41-3.72,5.5,3.14,7.49-5.73,11.06-5.22,17.57.17,2.21,0,5.38-1.36,6.59-4.27,3.8-2.89,10.81-8.28,13.71.84,5.81-.15,11-4.87,15,.74,14.76-12.21,24.21-14.73,37.74-.22,1.16-2.26,3-3.18,2.83-6-1-10.17,3.45-15.14,4.62-6.92,1.64-14.51.54-21.8.29-1.23,0-3.54-1.93-3.41-2.55,1-4.89-4.16-6.75-4.8-10.24-.84-4.62.08-9.56.24-14.36,6.12-3.73,4.31-9.8,4.35-15.22.1-15.41,0-30.83,0-46.24,0-3.1,1-6.91-2.57-8.49-2-.91-4.8-.21-7.23-.16-4.94.12-6.64-6.59-12.5-5.53-2.11.38-2-3.76-2-6.12q0-21.92,0-43.81V754.18c0-6.49-1.19-13.27.3-19.39,1.81-7.45-6-10.88-5.3-17.54.6-5.62.13-11.35.13-17,0-6.49-.23-13,.1-19.47.15-3-2.32-4-3.36-6-2.09-4-3.76-8.17-6.13-12.12-1.79-3-.35-7.91-.35-12V631.24c-7.91-9.74-3.95-21.27-4.85-32.06-.51-6.16-7.12-10.1-5.19-17.53,1.3-5,2-11.4-4.15-15.17-.43-.27-.4-1.45-.4-2.21,0-6.49.17-13-.08-19.47-.23-6.14,2.21-13.12-4.71-17.5,0-6.47-1.3-13.25.18-19.36,2.3-9.49-7.36-15.35-5.5-24.89a75.22,75.22,0,0,0,0-26.64c-1-5.77-5.72-10.66-4.65-17.55.86-5.54.17-11.33.17-17-9.57-13.87-3-29.51-4.83-44.23-.65-5.34,1.89-11.49-4.23-15.3-.23-5.58-.55-11.17-.63-16.76,0-2.41-.45-5.42-2.78-5.19-1.87.18-3.29,3.38-5.24,4.78s-2.14,2.21-.18,3.57a19.28,19.28,0,0,1,3.08,3.39c-7.93,5-2.59,13.49-5.33,19.69-1.77,4-3.8-.05-4.88-1.29-1.57-1.79-2.88-2.13-3.43.26a22.89,22.89,0,0,0-.56,9.4c.41,2,2.81,3.66,4.31,5.47-7.84,3.39-1.69,12.23-6.29,16.5-3.46,3.2-1.95,4.55.48,7.1s1.91,7.68-1,7.83c-6.77.34-8,3.34-7.54,9,.38,4.75.39,9.16-4,13-4,3.51-9.6,6.44-10.43,12.57-.76,5.57-6,7.17-8.67,11-.7,1-13.17,13.4-13.51,13.31-8.67-2.4-13.09,3.85-18.37,8.68-2,1.85-3.35,6.35-6.69,4.69-2.71-1.36-5.88-2.45-8-3.92-9.9-6.75-16.92-16-17.72-28.56-.18-2.88-2.51-4-3.18-6-2.37-7.14-9.06-12.94-6.73-21.59,1-3.57-2.5-5.58-3.46-8.26-2.53-7.07-7-13.26-6.74-21.79.21-6.36-5.57-12.33-4.54-19.89.86-6.38.16-13,.18-19.45,0-5.55-6.48-8.48-5.14-15.08,1.26-6.23.27-12.92.27-19.41,0-5.68,1.15-11.67-.25-17-2.52-9.49,7.41-15.38,5.45-24.9-1.61-7.77-.74-16.18,0-24.22.23-2.57,4.78-3.77,4.66-7.77-.21-7.23.45-9.88-6.87-9.22-6.72.6-13.28.29-16.63-6.61-1.65-3.41-1.59-7.65-5.31-10a109.33,109.33,0,0,1,7.68-8.52c1.72-1.58,1.78-2.11-.18-3.62-1.46-1.12-3.38-2-1.26-5.22,3.45-5.28,9.7-4.51,13.89-8.24,4.41-3.93,10.78-1.52,16.24-1.54,5.07,0,7.59-1.48,7-6.79,5-3.16,3.61-10.13,8.06-13.75a5.67,5.67,0,0,0,1.55-4.11c0-1.39-1.07-3.92-1.72-3.94-14.52-.43-29-.57-43.56-.77a18.68,18.68,0,0,1-12.58,5.16c-6.49.27-12.35-1.77-13.87-7-1.72-5.9-5.26-9.52-9.14-13.26-1.71-1.65-2.19-2.34-.22-3.53,4.32-2.6,3.39-6.88,3.26-10.8-.1-3,1.76-3.63,4-4.78,6.16-3.12,13.86-3.14,19-6.65,6.35-4.32,12.59-3.38,18.3-2.55,6.7,1,8.32-7.58,15.16-5.58,4.15,1.21,8.69.38,13.32-3,3.81-2.75,10.7-1.29,16.22-1.59,2.43-.13,4.87,0,7.3-.05.74,0,1.9-.14,2.13-.59,3.37-6.55,10.44-2.45,14.87-5.28,2.64-1.68,4.55-3.74,8.16-4.06,4-.35,2-5.93,3.84-7.35,11.49-9,16.78-22.86,27.1-32.89,6.9-6.71,16.45-9,22.54-16.78,5.47-7,11.74-13.79,19-18.7,4.65-3.13,9.79-7.49,16.55-6.91,4,.35,8.35,1,12.12-.1,11-3.05,16.09,4.9,22.37,10.9,2.79,2.67,1.81,6.28,1.25,9.1-1,5.11-5.95,8.79-4.87,15.09.94,5.52.2,11.32.2,17,0,2.44-.05,4.87,0,7.31.07,2.83,5.84,6,6.8,3.94,3.79-8,12.6-1.88,16.87-6.67,4.75-5.34,10.85-3.41,15.82-2.59,7.2,1.19,10.64-6.5,17.54-5.4,5.54.89,11.33.18,17,.18,7.16-7.17,16.27-4.42,24.76-4.87,5.79-10.07,19.39.36,25.22-9.6,4,0,8.1.17,12.11-.2,5.32-.49,10.82,1.69,15.85-3.06,4.33-4.08,10.76-.88,16.15-1.9,4.39-7,11.41-4.4,17.52-4.63,6.3-.24,12.77.73,17.46-4.95h31.64c4.06,4.78,14.33,2.29,14.12,12.48-.05,2.4,3.93,1.65,6.15,2.25,2.46.66,4.21,3.41,2.92,5.51-6.36,10.37-9.42,22.77-19.33,31a67.48,67.48,0,0,0-9.63,10.61c-.67.85,0,3.08.57,4.48.91,2.33,2.11,2.25,3.4.2,1.95-3.09,5-3.13,8.36-3.38,5.42-.4,11.62,2.63,16.16-1.89,5.51-5.49,13.78.32,17.77-3.71,4.88-4.92,11-2,15.08-5,3.45-2.58,6.42-4,10.67-3.9,8.92.24,17.87.45,26.76-.06,6.12-.36,8.49,1.62,8.83,7.78.13,2.56,3.9,1.76,6.17,2.23.94.19,1.55,1.92,2.31,3-4.88,2.4-3.21,8.54-6.83,11.8-4.22,3.79-8.08,8-12.1,12-5.16,5.16-10.25,10.4-15.55,15.42-1,.94-3,.75-4.18,1.56-8.17,5.49-18,7.75-26,13.85-1.57,1.21-4.62.82-6.95.65-5-.36-6.51,4.07-9.53,6.42a1.74,1.74,0,0,0-.24,1.65c.37.68,1.1,1.66,1.67,1.66,22.72.08,45.46.63,68.14-.28,6.54-.27,8.53,7.88,14.91,5.51,2.34,4.71,5.32,9.23,6.8,14.2,1.08,3.6,1.21,8.12-3.1,10.73-4.21,13-12.52,22.92-22.16,32.33-4.67,4.56-11.24,5.18-15.48,10s-8.39,10.52-13.85,13.55C633.7,260.12,624,263,617.21,271c-.72.86-3.06.76-4.55.5-4.6-.8-7.82,1.35-10.18,4.79-3.15,4.61-7.44,5.16-12.56,5.2-4,0-9.51,6-9.56,9.12-.11,7.3.32,14.62-.13,21.9-.43,6.83,3,14.76-4.74,19.9l0,19.46c-8.71,6.86-5.53,16.73-4.34,24.68,1.24,8.27-6.09,12.63-5.54,20,.48,6.36-.22,12.82-.4,19.23-6.89,4.56-5.1,11.91-4,17.61,1.71,8.72-5.57,14.38-5.43,22.4.1,5.25,2.57,11.06-2.54,15.95-4.71,4.5-.89,10.81-2.23,16.07-.63,2.47-3.27,2.62-5.71,3.06-2.94.54-5.5,5.68-3.8,7,4.46,3.41,5,7.68,4.84,12.74-.16,4.06.26,8-3.77,10.67-1.34.89-.4,1.9,1,3.5s3.13,5.3,2.51,5.95c-7.12,7.4-4.88,16.53-4.42,24.93.36,6.79-2.53,11.82-4.89,17.56-2,4.82,2.23,11.39-3.43,15.59-2.54,1.89-1.62,4.37-1.64,6.64-.07,14.6-.16,29.21.06,43.81,0,3.53-.57,6.3-3.54,8.31-1.7,1.16-1.4,2.13.56,3.48,3,2,4.38,5.57,2.17,8.16-8,9.3-3.31,19.65-3.21,29.62,0,.47,1.19,1.4,1.62,1.3.67-.17,1.7-1.08,1.67-1.61-.46-6.5,3.16-11.62,5.14-17.36,1.74-5.07,1.53-11.55.07-16.83-1.89-6.86,7.33-8.44,5.41-15.17-1.29-4.5-.23-9.66-.23-14.52,10-5.09.08-17.44,8.47-23.4,1.32-.94,1.16-4.37,1.2-6.65.14-7.3,1.08-14.8-.25-21.85-1.25-6.66,5.45-9.28,5.34-15.08-.09-4.52-2.08-9.66,2.39-13.58a6.26,6.26,0,0,0,2.21-3.88c.21-7.29.1-14.6.1-21.9,6.47-5.44,6-13.18,4.52-19.81-1.5-6.88,7.41-8.43,5.47-15.17-1.29-4.49-.23-9.66-.22-14.52,8.46-6,5-14.93,4.41-22.3-.49-6.52,5.2-9.46,5.39-15.05.18-5.33-2.26-11.53,4-15.36.27-4.76-1.27-11,1.17-14,6.44-7.94,4.69-16.64,4.27-25-.34-6.78,6.88-10.36,5.35-17.52-1.16-5.43-.23-11.31-.23-17,7.47-5.2,5.51-13.2,4.57-19.84-1.41-10,5.26-14.42,10.67-20.09.56-.59,1.09-1.57,1.73-1.66,6.75-.94,14.53,2.47,19.76-4.81,3.41,6.22,9.75,3.93,14.85,5.32,1,.26,2,2.65,1.87,3.9-1,7.55,3.64,16.37-4.76,22.33,0,4.06.27,8.14-.07,12.17-.44,5.32,1,10.48-3,15.91-2.81,3.78.13,11.74-2.6,15.69-3,4.38-3.73,8.23-4.2,13-.66,6.82,2.24,13.83-3.64,20.51-4.33,4.92,2.41,14.43-5.38,19.62-.83.56-.5,3-.56,4.53-.2,5.47.59,10.65-4.38,15.43-2.75,2.63,1.59,9.54-3.74,12.86-2.64,1.65-1.55,4.35-1.6,6.62-.13,6.48-.09,13-.12,19.44-6.91,4.37-3.68,11.49-5,17.45-1.1,5.07-5.87,8.86-5,15.1.33,2.3-3.77,4.93-4.35,7.72-.81,3.89.16,8.11-.29,12.12-.76,6.81,2.94,14.66-4.31,20.09-.47,10.33-1.48,20.67.83,30.92.08.33,1.24.78,1.63.6.69-.31,1.65-1.05,1.68-1.65.22-5.51.21-10.49,4.77-15.28,2.52-2.65-1.53-9.54,3.88-12.83a2.79,2.79,0,0,0,1.29-1.85c.1-5.68-.3-11.39.17-17,.37-4.51,6.37-7,4.81-12.61-1.63-5.91,3-10.1,4.47-15.11,1.56-5.21.34-11.25.34-16.93,7-6.27,4.53-14.62,4.84-22.33.22-5.5,7-8.53,5-15.06-1.45-4.87.17-9.48,4.72-12.54-3.15-9.19,8.21-15.49,4.9-24.77-1.95-5.46,5.59-7.26,5-12.59-.56-4.8-.85-9.87.09-14.55.87-4.3,6.28-7.15,4.67-12.63-1.78-6.08,3.64-10,4.58-15.07.88-4.72.35-9.29,4.83-12.81,1.21-.95.42-4.62.29-7-.26-5,5.2-7.07,5.6-12.49.3-4.09,6.87-2,10.67-2.26,4.86-.28,9.74-.11,14.6-.06,5.53.07,17.24,8.22,17.57,13.63.32,5.21,2.79,11.24-2.42,15.92-3.94,3.53-2.74,7.1.91,9.94,2.43,1.9,2.31,6.07,1.68,6.33-8.86,3.66-1,14.63-8.35,18.7a2.15,2.15,0,0,0-.77,1.68c1,17.38.28,22.88-5,38.11,1.17,8-3.05,13.32-8.5,18.45-3.55,3.35,4.28,4.81,2.55,6.57-3.42,3.49-4.41,5.87.08,8.81.42,6.93,3,14.29-3.9,19.77,2.2,6.34-7.62,8.49-5.2,14.87,2.15,5.7-4.6,7.64-5.12,12.57-.55,5.12-5,8.9-5.12,15-.07,5.18-8.82,10.12-.11,15.69-1.08,3.45-5.75,5.36-4.27,9.91-4.11,3.23-5.4,7.37-5,12.59.46,5.64.1,11.35.1,17-8.63,3.42-1.41,14.18-8.51,18.47-.93.57-1.1,2.79-1.18,4.27-.17,3.24,0,6.49-.07,9.73,0,.74-.13,1.91-.57,2.14-6.51,3.39-2.07,10.92-5.4,14.74-2.82,3.23-3.14,6.94-4.92,10.24-1.09,2-3.09,3.71-3.58,5.8-1.57,6.77,2.41,14.14-3.15,20.68-4.61,5.43-2.13,12.64-1.43,18.61.77,6.57-5,9.64-5.25,15.07-.22,5.63-.22,11.28-.32,16.91-7.48,3.4-2.13,12.07-6.85,16.66-1.07,1-2.29,2.42-2.5,3.79-.94,6,2.47,13.1-4.41,17.66-.19,5.61-.49,11.21-.52,16.81s-6.55,8.48-5.19,15.08c1.05,5.11-6.47,8.45-4.81,15,1.16,4.57.23,9.66.23,15.65.75-1.13,0-2-2.26-1.1a3,3,0,0,0-1.61,1.47,9.12,9.12,0,0,0-.89,4.11c.17,1.3,1.23,2.48,1.91,3.71.95-.84,2.36-1.52,2.73-2.56C600.17,827.23,599.81,825.59,599.81,822.94ZM853,899.72c2.64.53,4.23-1.1,4.75-3.18s.12-4.36,3-15.88c-.54.25-1.44.41-1.54.78-.55,2.07-.78,4.21-1.34,6.26-.63,2.31,0,3.1,2.28,2.24a3.28,3.28,0,0,0,1.63-1.46c1.66-3.34,1.08-7.29-3.88,1.5-2.65-.54-4.24,1.09-4.76,3.18s-.11,4.36-.11,8.73v-2.17c-.73,0-1.65-.29-2.14,0-1.6,1.13-3.6,2.52-.67,4.23C850.6,904.23,852.06,902.64,853,899.72ZM579.93,868.46a17.46,17.46,0,0,0-2.35-2.77,2.08,2.08,0,0,0-2,0,2.06,2.06,0,0,0,0,2,9.78,9.78,0,0,0,2.87,2.22c.18.09,1-.94-5.2-4.34,2.27.76,3.09,0,2.23-2.25a3,3,0,0,0-1.47-1.61,9,9,0,0,0-4.1-.9c-1.3.18-2.48,1.24-3.71,1.91.84,1,1.51,2.36,2.56,2.74C570,866,571.68,865.63,579.93,868.46Zm-72.64-198c0,2.49-.29,4.86.13,7.09.19,1,1.72,1.84,2.76,2.59.1.07,1.45-1,1.51-1.56a51.91,51.91,0,0,0,.34-9.06c-.1-1.23-1.44-3.19-2.46-3.36-4.65-.76-1.14,3.12-2.28-.15,0-.79-.32-2.05,0-2.3,4.5-3,5.5-7.31,7.65-16.78a18.09,18.09,0,0,0-2.77,2.35,2.05,2.05,0,0,0,0,2,2.08,2.08,0,0,0,2,0,10,10,0,0,0,2.21-2.87c.1-.19-.94-1-4.33,2.93-5.19.7-8,4.52-9.54,8.72C501.55,663,502.82,666.32,507.29,670.43ZM329.8,471.16a4.2,4.2,0,0,0,2.09,0,29.46,29.46,0,0,0,0-6.77c-.19-1-1.73-1.77-2.78-2.46-.13-.09-1.3.89-1.5,1.53-.93,3-.88,5.82,9,12.72a21.52,21.52,0,0,0-.69-3.45,2.88,2.88,0,0,0-1.64-1.51,6.92,6.92,0,0,0-2.28-.05c.53,4.78,0,9.14-4.63,11.93,1,.89,2,2.47,3,2.56C335,486.09,337.38,485.55,329.8,471.16ZM721.54,833.34c0,1.61-.36,3.34.12,4.78.37,1.09,1.78,1.87,2.86,2.59.13.09,1.67-1.22,1.56-1.59-2.74-9.11,8.28-15.27,5.2-24.4,5.6-3.65,5.25-9.24,4.88-14.85,0-.8,0-1.61,0-2.41-1.37.56-4,1.24-3.94,1.67.64,6.59-7.09,9.72-6.18,17,.7,5.63-7.47,10.15,13-28-.53.25-1.44.41-1.54.78-.54,2.07-.78,4.21-1.34,6.26-.62,2.31,0,3.1,2.28,2.24A3.29,3.29,0,0,0,740,796C741.69,792.62,741.12,788.67,721.54,833.34Zm43.83,95.56c0-2.45-.32-4.92.08-7.27s-.23-3.52-2.44-2.32c-1.16.63-2.51,2.52-2.37,3.68.74,6.11-1.28,10.82-6.18,14.43-2.72,2-4.4,4.54-3.7,8.13-5.23,3.79-5.46,9.21-4.87,14.9-4.69,2.5-3.43,8.93-6.87,11.51-5.57,4.18-.67,10.61-4.76,15.16-5.24,5.84-4.45,13.18-.53,19.38,1.87,3,3.12,5.74,2.3,8.67-2.22,7.91,5.47,12.49,6,19.38,0,.48,1.2,1.33,1.61,1.21.68-.19,1.61-1,1.66-1.61.32-4,1.66-8.39.35-11.77-2.95-7.59,5.72-10.88,5.23-17.42s-.15-12.88-.06-19.32a2.79,2.79,0,0,1,1.18-1.88c8.5-5.65-1.51-18,8.44-23.11,0-5.63-.13-11.27.12-16.89.23-5.35,7.06-8.67,7.67-33.89-.54.26-1.44.42-1.54.79-.55,2.06-.78,4.2-1.34,6.26-.63,2.3,0,3.09,2.28,2.24a3.25,3.25,0,0,0,1.63-1.47C770.91,914.36,770.33,910.41,765.37,928.9ZM845.59,666a6,6,0,0,0-2.41,0c-8.1,4-16.31,7.76-24.11,12.26a10,10,0,0,0-5.24,7.5c-.72,5.13-6.8,9-4.58,15,2.37,6.47-6.09,9.4-4.81,15,1.94,8.58-3.41,15-6.55,21.68-1.71,3.65-3.31,6.75-3.4,10.82-.07,3,1.72,6.89-1.4,9-5.24,3.62-2.79,8.74-3.36,13.28a19.69,19.69,0,0,0,0,2.43c1.39-.57,3.71-.83,4-1.77,4.3-12.93,12.52-24,17.35-36.64,5.2-3.33.69-10.08,3.67-13,7.52-7.24,11.54-16.17,15.26-25.46,9.49-6.59,9.89-19,17.11-27,.31-.35-1-2.14-57.41,106.14.76-2.27,0-3.08-2.25-2.23a3,3,0,0,0-1.61,1.47,9.09,9.09,0,0,0-.9,4.1c.18,1.3,1.24,2.48,1.91,3.72.95-.84,2.37-1.52,2.74-2.57C790.08,778.53,789.71,776.89,845.59,666Zm56.3,182.79c1.76,1.76,3.51,3.45,5.19,5.2,4.08,4.22,3.64,7.29-1.6,10.26a12.24,12.24,0,0,1-4.28,1.35c-1.59.23-3.29-.22-4.83.13a18.4,18.4,0,0,0-4,2c1,.93,2,2.73,2.95,2.66,5.89-.44,7.81,4.54,11.1,7.64-4.93,3-5.14,7.7-4.66,12.64.72,7.53-.46,14.14-7.23,19-1.53,1.09-2.85,4.38-2.34,6.08,2.8,9.31-7.6,15.71-5.06,24.77-4.74,4-4.58,9.34-5.3,14.94-.41,3.19-5.18,5.82-8,8.72-3.62,3.74,1.33,9.8-3.45,13.13-5,3.49-.77,9.47-3.54,13.08-3.42,4.46-7.72,8.3-12,12.06-2.22,2-.82,5.37-2,6.37-5.12,4.18-3.78,9.88-5.18,15.05-1.12,4.09-7.22,6.67-8.93,10.82s.33,9-4.19,13c-3.43,3,1.06,9.19-3.46,13.12-2,1.76-2,5.72-3.69,8-2.41,3.2-5.82,5.64-8.36,8.77-.79,1-.78,3.93,0,4.6,1.63,1.36,4.31,2.83,6.07,2.37,2.8-.73,5-4,7.79-4.45,10.07-1.64,11.74-15.55,22.92-15.26.56,0,1.69-1.14,1.63-1.63-.85-6.52,3.37-7.44,8.33-8.52a8,8,0,0,0,5-5c2-8.3,8.84-12.7,13.82-18.64,4-4.82,10.79-7.4,12.17-14.36s8.4-9.31,12-14.48a24.28,24.28,0,0,0,2.61-3.78c2.08-4.8,3.26-10.18,6.15-14.4,3.15-4.6,9.11-7.52,11.5-12.33a73.3,73.3,0,0,1,10.45-15.17c2.29-2.67,2.63-6.76,5-10.06,3.43-4.7,4.22-11.26,7.32-16.28,3.62-5.84,5.52-13,11.78-17.11,1-.63,1.11-2.74,1.34-4.21,1.29-8.55,4.3-16.2,10.69-22.34,1.62-1.56,3.67-3.69,3.74-5.63.2-4.92,0-9.67,4.88-12.63-2.62-6.44,7.8-8.36,5.1-14.93-2.3-5.58,4.92-7.47,5.1-12.54.09-2.62,4.85-5.71,4.27-7.61-2.24-7.36,5.34-11.44,5-17.51-.38-7.32,8.29-12,5-19.86,8.13-3.82,2.21-13.32,7.84-18.74s-2.32-16.29,6.77-21.37c0-5.67.93-11.54-.23-17-1.53-7.15,5.69-10.72,5.31-17.49-.73-12.85-.21-25.78-.21-38.22-6.75-6.75-13.86-12.45-19.11-19.53-4.6-6.22-12.32-6.54-17.28-11.7-2.31-2.41-8,.23-7.18,2.94,2.34,7.36-3.69,11.67-5.45,17.4s-8.21,10.23-8.68,15.63c-.58,6.57-5.15,11.84-5,17.28.14,7-6.76,10.73-5.47,17.44,1.25,6.52-8,9.84-5,17.49,2.8,7.15-1.38,14.07-5,19.6-6.2,9.56-7.89,21.9-17.78,29.14-1.66,1.21-1.33,2,.55,3.49,4.68,3.58,2.81,8.51,2.34,13.11-6.53,3.3-2.12,10.81-5.36,14.69-4.07,4.88-5.82,10.73-8.34,16.1-1.57,3.36-2.75,4.34-6.08,5.42C910.66,843.07,906.4,846.27,901.89,848.77Zm-380-518.88c0-4.59,0-8.64,0-12.69,0-1.56.33-3.77-.53-4.57-3.32-3.12-9-2.25-11.88-6.83-.51-.81-4.67-1.15-6.35,1.54a9.27,9.27,0,0,1-1.7,1.73c-2.91,2.68-2.92,2.65-12.39,1.47-1.6-.19-3.24,0-4.86,0-10.49-.29-10.58-.3-10.92,9.91-.14,4,.32,7.72-3.5,10.8-4,3.23,1.13,9.54-3.51,13.06-4.8,3.64-2.31,8.88-2.71,13.43a66.53,66.53,0,0,0,0,12.14c.77,7.69-.82,14.22-7.57,18.78-3.19,2.16-.62,3.5.64,5.19.88,1.18,2.1,2.82,1.87,4-1.73,9,4.66,19.52-4.75,27.18,0,6.48-.22,13,.09,19.44.17,3.54-1,5.86-3.42,8.4-3.17,3.4,4,4.14,2.59,6.68s-4.42,4.22-4.22,8.05c.34,6.46.2,13,.06,19.44-.12,5.56-.52,11.11-.79,16.67-8.79,5.73-.58,10.53.71,15.78a5,5,0,0,1-1.36,4.17,9.4,9.4,0,0,0-3.49,8.38,193.92,193.92,0,0,1,0,19.44c-.33,6.82,2.68,14.54-4.6,19.78l4.19,5.16c-6.95,4.51-3.74,11.56-4.36,17.63-.4,3.93,1,9.57-1.08,11.51-5.22,4.82-3.18,10.32-3.84,15.64-1.82,14.7,4.72,30.32-4.84,44.17,0,5.67-.68,11.45.17,17,1,6.86-2.81,11.77-4.75,17.55-1.47,4.37-.29,9.63-.29,14.49,0,4-.79,8.3.18,12.11,1.48,5.84-5.12,7.68-5.09,12.61.1,17,0,34,.11,51,0,.58,1.29,1.74,1.59,1.62,1.16-.44,3-1.23,3.07-2,.36-4.8-1.5-11,.84-14.13,3.19-4.3,3.9-8.16,4.41-13,.28-2.71,3.62-5,4.47-7.78,1.08-3.6-1.14-7.88,2.64-11.11,5-4.28-.49-13.13,6.91-16.55.11-4,.47-8,.28-12-.24-5,1.36-8.67,4.4-12.93,2.31-3.22.45-9.38.6-14.23,0-.6.91-1.37,1.57-1.73,6.36-3.39.44-11.06,5.16-14.88,5.55-4.51,2.39-10.52,2.8-15.83.31-4.09.08-8,4-10.53-.93-8.07,5.86-13.95,6-21.88.11-5.3-2.57-11.15,2.48-16,4.82-4.59,1.18-10.73,2.26-16.05a3.08,3.08,0,0,1,1.24-1.88c5.39-3.27,4.18-8.77,3.33-13.08-1.15-5.86,5-7.68,5.24-12.61.36-7.64-2.68-16.14,4.76-22.3,0-4.86.67-9.84-.17-14.55-1.09-6.22,7.18-8.39,5.29-15.1-1.22-4.32-.3-8.79,3.38-13.19,2.45-2.92-.26-9.69,1.55-13.76,2.21-5,4.81-9.21,4.81-15.13,0-6.76-3.33-14.73,4.33-20,.09-5.63,1.25-11.5,0-16.83-1.66-7.26,5.79-10.87,5.26-17.5-.58-7.25.78-14.73-.39-21.83s5.94-10.76,5.28-17.48c-.7-7.23-.16-14.57-.15-21.87,0-.78-.19-2,.23-2.29C525.26,345.61,520.61,336.87,521.9,329.89Zm-309,92.39a10.67,10.67,0,0,1,1.74-1.69c5.73-3.54,4-9.76,5.91-14.6,1.62-4.19,5.16-7.67,4.28-12.79-.78-4.58,6.1-5.35,4.91-10.15-1.31-5.26,3.86-8.7,4.34-12.62.69-5.71,3.16-10.08,5-15.07,1.61-4.25.84-9.66.2-14.44-.71-5.39,5.91-7,5.25-12.61-.52-4.38-1.85-9.33,2.53-13.48,4.68-4.46,1.15-10.72,2.1-16.08,9-5.11,1.52-15.39,6.63-21.54,6.6-8,1.34-17.1,3.15-25.47a7.18,7.18,0,0,1,2-4c4.19-3.21.62-4.71-1.06-7-2.66-3.65-4.06-1.3-7.08-.09-7.28,2.91-16.22,4.48-22.52-.7-8.88-7.3-14.53.78-21.33,2.57s-2.62,8.06-3.54,12.28c-.49,2.24-.63,4.29-1.76,6.59-4.22,8.63-4.41,14.85-3.23,28.68a10.92,10.92,0,0,1-1,4.4c-.26.69-1.15,1.13-1.66,1.75-3.44,4.19-3.49,9.18-.64,13,5.5,7.49,5.71,14.51,0,21.51-1.86,2.27-2.21,5.68-1.16,6.44,5.68,4.1,4.49,9.8,4.56,15.29q.21,14.49.4,29c5,3,4.86,7.9,4.43,12.73-.38,4.27,1.88,7.13,3.75,10.67,2,3.82.75,9.32,1.27,14.05C210.5,420.16,212,421.19,212.91,422.28ZM584.74,213.13c-11.35,0-22.69,0-34,0-2.4,0-5.91-.81-7,.43-6.55,7.48-15,3.66-22.6,4.31-6.43.56-13.1,1-19.4-.1-7.71-1.3-12,8.4-20,5.24-.79-.31-3.58,1.69-3.5,2.37.76,6.06-2.75,12.82,3.18,18.17,1.28,1.15,1.83,5.59,1,6.21-4.66,3.45-4.44,8-4.41,12.93,0,5.59.32,11.32-.84,16.7-.56,2.58-5,4.35-3.84,8,.68,2.08,4.07,3.87,3.88,5.51-.31,2.63-2.88,4.91-3.87,7.57-.41,1.09.74,2.82,1.37,4.18a1.72,1.72,0,0,0,1.61.22c1.8-1.63,3.49-3.38,5.2-5.11,5-5.1,9.64-11.1,18.29-8.79.42.11,1.12-1,1.76-1.5,6.77-4.88,15-6.94,21.87-11.87,5.56-4,12-11.62,13-18.6.24-1.56-.16-3.3.38-4.71.82-2.12,2.38-2.43,3.32-.9,3.29,5.37,8.56,3.1,13.13,3.57,4.36-6.8,11.23-4.66,17.43-4.85a74.87,74.87,0,0,1,9.71.05c3.08.31,3.84-2.87,5.88-3.47A25.31,25.31,0,0,0,599.79,240c3-3.76,8.71-2.47,11.86-6.79,3.3-4.53,8-8,11.78-12.23.85-1,1-3.1.62-4.49-.64-2.49-2.5-3.47-5.28-3.43C607.43,213.22,596.08,213.13,584.74,213.13Zm-165.1,41.39c0-7.3,0-14.6,0-21.9,0-3.86-1.72-5.13-6.26-4.89a7.78,7.78,0,0,0-2.42,0c-7.12,3.12-14.12,6.55-22.36,5-.79-.15-2.91,2-2.91,3,0,22.64.14,45.27.54,67.9,0,1.74,3.42,4.8,3.22,5-7.44,6.65-2.91,15.25-3.77,22.85a76.69,76.69,0,0,0,0,17c.67,6,6.38,10.19,5.05,17.52-1.42,7.85.17,16.2-.45,24.26-.65,8.37,3.89,17.87-4.64,24.79,9.23,7.7,4.27,18.11,4.51,27.14.72,27.56.26,55.14.27,82.71,0,4,0,8.08.19,12.11,0,.6,1.39,1.73,1.59,1.62,1.12-.61,2.91-1.49,3-2.34.35-8,.4-16.1.53-24.15,7.38-5.37,3.53-13.26,4.44-20.05,1.54-11.51-3.57-23.95,4.9-34.47v-21.9c9.62-11.24,3.39-24.59,4.71-36.92.85-8,.16-16.2.16-24.31,0-2.43-1-5.77.16-7.15,8.6-9.85,3.4-21.47,4.6-32.2.62-5.61.11-11.34.11-17V303.59c0-5.68.88-11.54-.23-17-1.33-6.47,4.58-9.78,5-15.06C420,265.9,419.64,260.19,419.64,254.52ZM517.2,86.44c-7,.34-12.08-.51-17.17,4.13-3.3,3-11.1-.6-14.53,5.56-4.85,0-9.72-.2-14.54.22-3.84.33-8.78-2.29-11.35,1.6-4,6-11,.56-15.08,5-5.23,5.75-12.13,2.06-18.22,2.91-4,.56-8.31-.71-12.09.31-5.05,1.36-8.9,5.81-15.11,5-2.32-.31-5,4.17-7.69,4.31-5.94.3-5.82,3.66-6,8a9.25,9.25,0,0,0,3.82,8.22c1.25,1,2.71,3.44,3.39,3.21,2.8-.94,3.74-5,7.73-4.6s8.29-.67,12.12.25c5.78,1.39,7.65-6.43,12.58-4.91,6.54,2,9.38-5.24,15.06-5,6.48.21,13.29,1.26,19.37-.31,5.63-1.44,10.44-6,15.75-8.88a8,8,0,0,1,4.63-.45c7.32,1,12-8.56,19.89-4.92,7.19-7.16,18.52-7.48,25.28-15.34.53-.6,1.59-1.17,1.56-1.72a2.39,2.39,0,0,0-1.6-1.65C521.9,86.82,518.75,86.59,517.2,86.44ZM682.59,973.66c-1.32-3.72,2.47-10.1-1.66-14.39-5.43-5.64-2-12-3.26-17.9-.14-.67-1.08-1.75-1.45-1.68a6.1,6.1,0,0,0-3.34,1.51c-2,2.26-5.62,3.58-4.88,7.51,1.67,8.9-4.34,19.19,4.85,26.71,0,4.79-.38,9.63.28,14.33.15,1.08,3.78,2.09,5.89,2.31,1.09.12,3.33-1.5,3.4-2.47C682.78,984.83,682.59,980,682.59,973.66ZM334.44,125.48c-3.17,0-7.81-1.33-9.25.25-4.36,4.79-9.34,4.91-14.93,4.78-.84,0-2.56,2.29-2.45,3.38.21,2.11,1.69,6,2.19,5.88,4.74-.67,6.74,3.54,10,4.88s7.82.43,11.78.26c3.22-.13,8.94-5.25,9.88-8.63a16.94,16.94,0,0,0,0-2.37C342.46,127.08,341.1,125.5,334.44,125.48ZM332,285.87c0,13.68-.06,27.37.12,41.05,0,.86,1.8,1.78,2.9,2.45.16.1,1.57-1,1.58-1.62.16-11.24.22-22.48.26-33.72,0-8.85-.73-17.79.21-26.54,1-9.08-4.53-19.31,4.24-27.16-.93-1-1.71-2.37-2.84-2.74-1.45-.48-3.18-.14-4.79-.11-5.17.09-5.74.39-3.11,5.49a13.71,13.71,0,0,1,1.39,6.68C332,261.72,332,273.8,332,285.87ZM230.35,188.78c7.78.33,8.4.1,9-6.91.28-3.31.36-6.19,3.21-8.51a5.78,5.78,0,0,0,1.66-4.06c0-1.39-.67-3.62-1.65-4-6.9-2.8-15.62.93-17.13,7,7.7,4-.15,7.23-.63,10.79S226.14,188.6,230.35,188.78ZM594.94,605.31a36,36,0,0,0-.08-5c-.09-.63-1.21-1.69-1.56-1.58-1.15.35-3.13,1.25-3.08,1.76.36,3.47-1,5.81-3.48,8.14-3.34,3.11-.92,7.43-1.39,11.16,0,.37,2.49,1.75,3.13,1.39C594.94,617.56,595.77,611.57,594.94,605.31Zm340.86-5.06c0-.79,0-1.57,0-2.35-.17-4.91-.25-4.87-4.88-2.56-2.58,1.29-5.39,2.12-8,3.28-.67.3-1.56,1.07-1.56,1.63s.92,1.2,1.56,1.63a6,6,0,0,0,2,.78c1.45.32,3.06.23,4.35.85C935.83,606.61,935.8,606.67,935.8,600.25Zm-603.66-95c2.93.58,4.21-1.32,4.67-3.75.72-3.8-1.2-5.76-4.88-6.05-3-.24-4.31,1.38-4.76,3.81C326.45,503.1,328.35,505.28,332.14,505.29ZM312.51,351.91a9.45,9.45,0,0,0,0,2.32c.38,1.38,1,2.7,1.47,4a12.28,12.28,0,0,0,3.26-1.47c5.35-4.71,5.35-5.1,0-9.81a12,12,0,0,0-3.26-1.46c-.5,1.34-1.09,2.67-1.47,4A9.53,9.53,0,0,0,312.51,351.91ZM750.58,775.73c-.43-.55-.82-1.14-1.3-1.65C748.2,773,747,772,746,770.75c-1.69-2-3.53-2.64-4.87,0a6.37,6.37,0,0,0,0,4.59c1,2.65,5,3.57,7.8,2A9.17,9.17,0,0,0,750.58,775.73ZM327.12,420.61c0-2.51.25-3.42-.06-4.07a34,34,0,0,0-2.38-3.77c-.81,1.25-2.25,2.47-2.31,3.75a53.37,53.37,0,0,0,.7,9.17,2.31,2.31,0,0,0,1.61,1.57c.56,0,1.47-.92,1.62-1.57C326.8,423.47,327,421.19,327.12,420.61Zm-35.75-86.52c2.44-1.43,2.53-6.23.09-8a1.85,1.85,0,0,0-1.62-.12c-2.48,1.36-2.55,6.19-.11,8C290.11,334.22,290.81,334.05,291.37,334.09ZM176.15,378.56a41.15,41.15,0,0,0-1.71-3.94c-.11-.2-1.2-.16-1.58.12-2.44,1.82-2.49,7.18.14,7.89S176.37,381,176.15,378.56Zm534,315.87c.56-.55,1.11-1.11,1.66-1.66-.55-.56-1-1.39-1.68-1.61a9.18,9.18,0,0,0-4.34-.71c-1.34.27-2.48,1.51-3.72,2.32,1.24.81,2.38,2,3.72,2.31S708.68,694.69,710.14,694.43Zm-101.79,25c2.08-.23,4-1.45,6.06-2.27-2-.81-4-2-6.06-2.26-1.13-.13-2.44,1.45-3.67,2.26C605.91,717.93,607.22,719.51,608.35,719.38ZM493.86,807.2l3.69-2.44c-2-.81-4-2-6.07-2.26-1.12-.13-2.44,1.45-3.67,2.26a32.61,32.61,0,0,0,3.72,2.39A6,6,0,0,0,493.86,807.2Zm110.8,78c.22-2.42-.41-4.8-3.15-4.07s-2.58,6.07-.13,7.89c.37.28,1.46.31,1.57.11A42.1,42.1,0,0,0,604.66,885.24Zm247.59,27.42c0-.55.12-1.26-.16-1.63-1.81-2.44-6.65-2.37-8,.11a1.82,1.82,0,0,0,.11,1.62C846,915.2,850.82,915.1,852.25,912.66Zm-4.11,11.54c.21-2.42-.42-4.81-3.16-4.08s-2.57,6.08-.13,7.89c.37.28,1.47.32,1.57.12C847.1,926.86,847.6,925.49,848.14,924.2Zm-16.33,239.17-3.14,1.73c.54.54,1.2,1.61,1.6,1.53a15.39,15.39,0,0,0,3.27-1.53Zm47.29-29.22-1.74,1.74a15.81,15.81,0,0,0,3.27,1.52c.4.09,1.06-1,1.6-1.52ZM700.33,1050l1.73-1.73a15.55,15.55,0,0,0-3.26-1.53c-.4-.09-1.06,1-1.6,1.53ZM879.1,910.16l-1.74,1.73a15.31,15.31,0,0,0,3.27,1.52c.4.09,1.06-1,1.6-1.52ZM481.21,869.8l1.73-1.73a15.39,15.39,0,0,0-3.27-1.53c-.4-.09-1.06,1-1.6,1.53Zm332.85-11.47c-.54-.54-1.2-1.61-1.6-1.52a15.09,15.09,0,0,0-3.27,1.52c.54.54,1.2,1.61,1.6,1.52A14.87,14.87,0,0,0,814.06,858.33Zm-242.77-9L573,851a15.06,15.06,0,0,0,1.53-3.26c.09-.41-1-1.06-1.53-1.61C572.44,847.21,571.86,848.27,571.29,849.29Zm304.34-33.06,1.73-1.73A15.5,15.5,0,0,0,874.1,813c-.4-.09-1.06,1-1.6,1.52ZM444.69,794.32c.56,1,1.14,2.08,1.73,3.14.54-.54,1.61-1.2,1.52-1.6a14.87,14.87,0,0,0-1.52-3.27ZM492,784.58l-1.74-1.73a15.34,15.34,0,0,0-1.52,3.27c-.09.4,1,1.06,1.52,1.6Zm159.66-12.17,1.73-1.73a14.87,14.87,0,0,0-3.27-1.52c-.4-.09-1.06,1-1.6,1.52Zm-144.35-65c-.54-.54-1.2-1.61-1.6-1.52a14.91,14.91,0,0,0-3.27,1.53c.54.54,1.2,1.61,1.6,1.52A15.13,15.13,0,0,0,507.29,707.37Zm-1.74-12.87,1.74-1.73a15.86,15.86,0,0,0-3.27-1.53c-.4-.08-1.06,1-1.6,1.53Zm112-8.34-3.14,1.74c.55.54,1.2,1.61,1.61,1.52a15.5,15.5,0,0,0,3.26-1.52Zm-34.79-49.39c-.54.54-1.61,1.2-1.52,1.6a15.57,15.57,0,0,0,1.52,3.27c.54-.54,1.62-1.2,1.53-1.6A14.91,14.91,0,0,0,582.76,636.77Zm-67.47.7-3.13,1.73c.54.54,1.2,1.61,1.6,1.53A15.86,15.86,0,0,0,517,639.2Zm342.6-8c-.54-.54-1.2-1.61-1.6-1.52a15.34,15.34,0,0,0-3.27,1.52c.54.55,1.2,1.62,1.6,1.53A15.13,15.13,0,0,0,857.89,629.46ZM587.63,627c-.54.54-1.61,1.2-1.52,1.6a15.34,15.34,0,0,0,1.52,3.27c.54-.54,1.61-1.2,1.53-1.6A15.39,15.39,0,0,0,587.63,627Zm278.26-.7,1.74-1.74a15.81,15.81,0,0,0-3.27-1.52c-.4-.09-1.06,1-1.6,1.52Zm-353-7.31,1.73,3.14c.54-.54,1.61-1.2,1.52-1.6a14.87,14.87,0,0,0-1.52-3.27Zm-85.22-7.3,1.74-1.73a15.86,15.86,0,0,0-3.27-1.53c-.4-.09-1.06,1-1.6,1.53ZM331.28,434l-1.73-1.73a14.87,14.87,0,0,0-1.52,3.27c-.09.4,1,1.06,1.52,1.6C330.14,436.06,330.72,435,331.28,434ZM185.9,400.6c-.54-.54-1.2-1.61-1.6-1.52A15.31,15.31,0,0,0,181,400.6c.55.54,1.2,1.61,1.6,1.52A14.87,14.87,0,0,0,185.9,400.6Zm135.65-13.91-1.74-3.13c-.54.54-1.61,1.2-1.52,1.6a15.81,15.81,0,0,0,1.52,3.27C320.35,387.88,320.89,387.34,321.55,386.69Zm-1-12.17-3.14,1.73c.54.54,1.2,1.61,1.6,1.53a15.39,15.39,0,0,0,3.27-1.53ZM175.46,307.38l-1.73-1.73a15,15,0,0,0-1.52,3.26c-.09.41,1,1.06,1.52,1.61Zm288-4.17c-.54-.54-1.2-1.61-1.6-1.52a15.09,15.09,0,0,0-3.27,1.52c.54.54,1.2,1.61,1.6,1.52A14.87,14.87,0,0,0,463.46,303.21ZM308.34,248.94l1.73,3.14c.55-.54,1.62-1.2,1.53-1.6a15.13,15.13,0,0,0-1.53-3.27ZM407.46,218c-.54.54-1.61,1.2-1.52,1.6a15.81,15.81,0,0,0,1.52,3.27c.54-.55,1.62-1.2,1.53-1.61A15.06,15.06,0,0,0,407.46,218ZM290.6,140.09c-.54.54-1.62,1.2-1.53,1.6A15.55,15.55,0,0,0,290.6,145c.54-.54,1.61-1.2,1.52-1.6A15.5,15.5,0,0,0,290.6,140.09Zm-9-39.66,1.73-1.74A15.34,15.34,0,0,0,280,97.17c-.4-.09-1.06,1-1.6,1.52Z"/><path d="M716.67,675.72c.13,3.37-1.5,5-4.87,4.87Q711.62,675.54,716.67,675.72Z"/></svg>