<svg id="Layer_1" data-name="Layer 1" xmlns="http://www.w3.org/2000/svg" viewBox="0 0 1200 1200"><title>BB_Artboard 21</title><path d="M550.5,670.08c8,0,14.12-.07,20.29,0,4.6.07,9.14.51,12.29-4.12.53-.79,3.56-1.09,4.2-.43,6.87,7.23,15.66,3.7,23.65,4.52,6.52.67,14-2.55,18.9,4.64l27.74-.07c2.81-4.64,7.31-4.33,12-4.8,3.33-.33,6.32-3.5,9.71-4.22a33.5,33.5,0,0,1,11.52-.07c5.72.85,9.73-2.25,14.37-4.58,5.8-2.9,11.67-6.11,18.85-4.93,4.51.74,9.25.29,13.87.1s10.37.92,13.09-1.46c4.26-3.73,8.39-2.9,12.76-3.09,4.62-.19,9.26,0,13.88,0,5.73-7.74,14-4,21.23-4.53,6.91-.49,13.88-.1,20.82-.1,13.89,0,27.78,0,41.66.13.48,0,1.63,2.65,1.3,3-1.94,2.14-4.77,3.85-.75,6.66,3.19,2.23,1.28,5.65,1.8,8.5s-1.08,4.59-3.46,4.74c-4.52.29-8.53.13-12.5,3.85-2.2,2.06-6.26,3-9.43,4.9-2.89,1.69-7.46.83-11.25.55-4.86-.35-6.46,6.3-12,4.88-3.63-.92-7.68-.07-11.53-.2-4.69-.15-6.44,6-12,4.9-4.13-.83-8.89-1.48-12.64,3.06-1.38,1.66-5.64.81-8.54,1.36-6.42,1.22-13.19-2.34-19.52,3.47-4.66,4.27-13.7-2.18-18.67,5.09-.56.81-3,1-4.23.59-8.82-3-14.88,7.45-23.56,4.72-3.15,7.65-11.72,2-15.84,6.31-4.59,4.79-10.19,1.62-15,3.12s-9,4.29-13.45,6.59c-7.8,4.05-15.23,8.13-24.83,7.37-12.22-1-14.68-1.94-21.72-15.36-1.78-3.39-6.77-6.49-.33-10.37.63-.38-.3-4.15-1.25-5.95-.43-.82-3.49-1.4-4-.86-5.36,6-12.44,4-19,4.61s-13.46-2.4-19.37,3.9c-1.84,2-7.35.2-11.11.71-6.54.9-13.28-2.08-19.78,2.63-5.78,4.2-13.26,1.3-20,1.93-4.92,7.2-12.52,5.11-18.87,4.32-6.16-.76-7.94,7-14.39,5.2-4.19-1.2-9.07,0-13.64.17-4.71,7.6-13.93,1.1-18.5,5.23-5.66,5.12-11.42,2.85-17.18,3.61-3.85,6.11-11.49,2.76-15.88,6.13-3.46,2.67-6.67,2.64-10.33,3.33-3.39.64-6.73,4.56-9.64,4.11-6.8-1.07-10.62,4.6-16.37,5.83-3,.66-5.71,4.55-9.92,3.76-3.58-.66-5.81,1.54-7.58,4-4.55,6.29-13.22,6.41-18,12.9-4.5,6.15-10.67,11.1-16.17,16.51-5,4.91-7.76,4.56-15.87.95-5.55-2.48-10.38-5.4-14.41-9.94s-5.57-9.36-1.85-14c3.28-4.11,3-9.68,7.77-13.23C314,746.06,319,740,324.4,734.49c2.18-2.18,4.12-4.71,6.61-6.45,2.91-2,6.51-3.06,9.41-5.09,2.49-1.74,4.35-6,6.63-6.09,4.43-.2,6.48-3.72,9.7-4.75,2.9-.93,5.51-1.4,7.78-3.73,3.38-3.46,9.2,1.19,12.47-3.33,2.79-3.85,6.91-2.58,10.52-2.44,4.1.17,6.74-2.19,10.08-3.75,6.41-3,12.8-7.08,20.82-5.8,5.06.81,8.05-6.25,14.31-4.66a27.75,27.75,0,0,0,13.76,0c5.52-1.55,10.14-6.24,16.6-4.55,2.82-4.69,7.32-4.5,12-4.56,7.32-.1,15.28,2.15,21.22-4.55h20.83C528,666.36,540.59,671.71,550.5,670.08Z"/><path d="M337.62,276.31c9.27,0,18.6-.7,27.78.19,9.44.91,19.92-4.57,28.38,4.28,1.1,1.16,4.46.15,6.78.16l30.06.12c7.4,8.67,17.37,2.59,25.9,4.62,2,.48,3.52,3.05,5.48,3.41a35.65,35.65,0,0,0,10.86.29c2.29-.3,1.38-1.47.17-3.23-4.09-6-3.8-10.39-1.3-14.13,6.63-9.92,18.93-10.89,27.5-17.78,1.95-1.56,5.78-1,8.74-1.05,10-.11,20.08.21,30.11-.14,5.78-.2,12.38,2.53,17-3.82.6-.83,2.8-.68,4.26-.69,7.72-.06,15.44,0,23.16,0,6-6.71,13.92-4.56,21.24-4.5,4.87,0,6.47-6.18,12-5,4.42,1,9.23.2,13.86.2,4.81-7.35,12.43-3.74,18.84-4.85,3.47-7.72,13.56-1.21,17.58-8.11.49-.84,2.77-1,4.14-.88,10.05,1.17,18.68-2.1,27.17-7.25,6.76-4.09,14.61-3.22,21.61-.46,2.62,1,4.66,3.24,8,3.31.83,0,2.79,4.84,2.17,5.48-5.31,5.51-3.94,16.2-14.81,17.78-3.75.54-7.29,5.24-10.1,8.71-3.29,4.08-7.05,5.31-12,4.86-4.62-.43-6.46,5.54-12,4.85-6.44-.81-11.37,6-19,4.7-5.6-.94-10,5.2-15.5,6.84-1.34.39-2.49,1.93-3.77,2-5.39.23-11.63-1.58-16,.55-4.83,2.36-9,5-14.52,4.18-7-1.09-11.1,7-19,5-6.52-1.67-13.81-.34-20.76-.34-4.59,0-6.5,6.16-12,4.8-3.64-.89-8.62-1.65-11.38.09-13.55,8.53-28.23,2.72-42.26,4.3-4.57.51-9.25.05-13.89.08-7.36.06-7.55.07-8.25,9.21-.22,2.83-1.33,4.52-3.73,4.59-7.71.25-15.44-.11-23.15.19-3.68.14-5.15-3.41-7.61-3.91-2-.41-4.56,2.86-7.13,3.68-2.11.67-5.86,1.09-6.7,0-4.6-6.14-10.92-4.42-16.82-4.44-20.07-.09-40.15,0-60.22-.06-3.82,0-7.12,0-10.37,3.22-2.88,2.84-3.77-3.58-6.63-3.15-7.22,1.08-15.29-3.19-21.69,3.76-1.14,1.23-4.29.68-6.52.81-6,.36-12.08.65-18.13,1-4.55,6.4-11.25,2.85-17,3.68-3.74,7.42-13.07,1.83-17.7,7.72-2.77,3.51-7.44.28-10.76,1.83-2.56,1.21-3.82,4.1-7.45,4.51-11.92,1.36-22,7.5-30.5,15.33-3.37,3.11-10.15.63-10.41,6.62-.21,4.66-3.58,6.45-6,9.13-3.11,3.42-7.06,6.21-9.66,9.95-4.37,6.26-10.54,5-16.5,5.11-5.46.06-7.34-5-10.55-7.95-5.17-4.78-5.47-15.66-.9-20.34,7-7.18,14.17-14.22,21.27-21.31,10.55-2.24,15-12.23,22.74-17.89,4-2.89,8.77-5.66,13.48-6.27s8.17-3.11,12.12-4.43c3.73-1.25,6.68-5.55,9.39-4.83,7.06,1.9,10.93-5.39,16.68-4.75,5.36.6,7.78-4.23,12-4.74,4.56-.54,9.67,1.06,13.78-.4,6.26-2.22,12-5.12,19-4.47,6.12.56,12.34.12,18.52.12Z"/><path d="M379.88,943.4c-7.71,0-15.52.78-23.1-.23-6.67-.89-11.13,3.3-16.68,4.61C335,949,329.37,948,324,948h-18.5c-7.29,9-17.23,3.17-25.87,4.49-5.8.88-12-.86-16.75,4.61-1,1.14-4.46,0-6.75.2-7.41.78-15.41-2.48-22.19,2.16-6.41,4.39-13.27,1.44-19.85,2.43-7.55,7.43-17.09,3.83-25.83,4.66-1.43.14-3.7.21-4.09,1-3.4,7.15-12.18.36-16,6.43-2.08,3.32-7.45.69-9.54,4.91-2.54,5.12-8.74,5.13-12.67,8.29-3.59,2.87-6.55,6.53-9.92,9.69a6.59,6.59,0,0,1-3.75,2c-6.94.2-14.81,2.15-20.58-.45-6.57-3-11.27-10.08-16.71-15.46A3.13,3.13,0,0,1,96,981.45c5.17-3.16,3.39-8.3,3-12.54-.37-4.7,2-7.86,5.19-9.35a62.45,62.45,0,0,0,14.53-9.8c3.64-3.11,9.14-3.93,13.4-6.46s7.91-7,12.52-8.9c5.24-2.1,9.75-7.67,16.49-4.89,4.32-5.86,10.82-5.39,16.54-4.4,6.74,1.16,10.31-5.58,16.64-5,6.11.57,12.31.08,18.46,0,5.73-7.87,14.08-4.12,21.26-4.35,8.24-.27,14.46-7.22,23.59-5.17,7.35,1.65,15.35.34,23.06.34,10.82-8.18,23.37-3.28,35.09-4.64,5.78-.67,12.09,2.12,17.08-3.87,1.32-1.58,5.76-.73,8.77-.74,42.41,0,84.82.11,127.23-.12,9-.05,16.35,8,25.84,4.73,4.06,4.37,8.22,8.65,12.05,13.22.54.64-.18,3.06-1,4-2,2.2-4.68,5.86-6.7,5.62-8.58-1-14.69,6.39-23.61,5.34-9.33-1.1-19.62-2.8-28.15,4.2-.46.38-1.5,0-2.27,0-6.17,0-12.42.64-18.48-.17-6.52-.88-11.23,3.62-16.67,4.4C400.08,944.42,389.91,943.4,379.88,943.4Z"/><path d="M731.68,1156.5c-10.78,0-21.58-.32-32.35.12-6.93.28-11.36-8-18.82-4.9-1.09-2.63-1.61-5.74-3.36-7.81-5.81-6.87-5.22-13.54-.48-20.52a9.49,9.49,0,0,0,1.62-3.92c.51-4.13-1.82-9,5.94-9.75,3.64-.37,6.36-7.2,10.25-8.24,5.75-1.54,12.18-.53,18.31-.56s12.36.39,18.48-.14c4.51-.39,7.07,1.88,9.64,4.75,5.64-8.1,14-3.88,21.21-4.47,7.65-.64,15.4,0,23.1-.2,4.42-.12,6.52-5.83,12-4.78,4.23.81,8.84,1.1,12.54-3.32,1.37-1.63,5.66-.81,8.61-1.11,2.22-.23,5.12.34,6.53-.85,9.18-7.73,19.78-9.5,31.23-8.42,7.41-8.21,17.23-4.52,25.8-4.23,7.28.24,11.56-6.44,18.93-5.26,6.76,1.07,13.82.21,20.75.2,6.52-8.27,15.65-3.23,23.51-4.63,5.83-1,7.73,4,10.95,6.94.78.71.87,3.71.15,4.31-5,4.23-7.55,11.82-15.67,11.94-4.12,5.56-12.75,4.36-16.35,11-.82,1.52-3.74,2.8-5.62,2.71-7.18-.34-12,4.79-17.82,7.35-8.07,3.54-15.5,8.69-25,6.69-6.38-1.36-9.86,5.68-16.61,5.11-4.3-.36-9,3.78-13.49,5.93-1.93.92-3.75,2.43-5.77,2.75-3,.47-6.3-.48-9.17.3-2.67.72-4.76,3.46-7.42,4.3s-6.31-.2-8.84,1-4.07,4.28-7.69,3.86c-3-.35-6-.48-8.23,2.43-2.85,3.75-7.21,1.12-10.6,2.27s-5.26,6.18-9.64,4.41c-6.35-2.56-8,6.64-14.36,5-5.06-1.3-10.72-.27-16.11-.27Z"/><path d="M789.5,415.29c-19.25,0-38.52.55-57.74-.24-9.39-.39-20,4.72-28.12-4.4-6.93,0-14.1-1.12-20.74.26-10.28,2.14-15.61-4-21.33-10.18a5.65,5.65,0,0,1-1.64-3.85c.53-4.41-1.91-9.2,1.44-13.23,3.75-4.49,3.59-13.51,9.81-13.87,5.93-.33,7.82-6.48,14.15-5.78,10.65,1.19,21.54.64,32.3.21,6.91-.27,11.13,7.17,19,5.06,5.71-1.54,12.2-.22,18.34-.17,6.6,8,15.63,4.28,23.55,4.33,46.2.33,92.4.16,138.61.16,8.14-3.43,13.29,6.86,21.18,4.63,5.87,3.4,11.18,7.44,13.34,14.19,1.62,5-3.68,12.81-8.86,13.62-4.41.68-9.7-2.11-13.15,1.5-4.58,4.79-9.92,2.68-15,3.05-4.59.34-9.31-.47-13.83.19-8.64,1.25-18.26-4-26.06,4.3-1.44,1.53-5.92.22-9,.22Z"/><path d="M379.86,447.71c3.85,0,7.78.46,11.54-.13s6.28,8.63,10.42,1c3.27,2.68,6.73,5.16,9.76,8.08,3.72,3.58,3.67,6.08.48,9.48-8.83,9.41-14.43,11.89-28.87,14.12-4.12.64-7.87,3.57-12,4.34-5,.92-10.19-.83-14.68,4.14-2.56,2.83-9.06-1.43-12.26,3.49-.41.63-1,1.46-1.63,1.59-5.11,1.06-11.36-2.1-15.29,1.88-4.12,4.16-8.53,3.1-12.76,2.78-6.33-.48-9.64,7-16.68,5.17-2.64-.69-6.21,3.14-9.59,4.14-2.74.81-5.85-.44-8.39,2.26-1.33,1.41-3.8,2.18-5.84,2.41-5.11.55-10.24-1-14.72,4-2.64,2.93-8.83-1.2-12.42,3.37-1.08,1.38-3.94,1.85-6,1.9-5.29.15-10-.1-14.59,4.4-2.47,2.43-8.42-1-12.47,3.32-2,2.1-7.59.37-10.44,2.16-3.2,2-5.68,4.06-9.89,4.38s-7.87,3.48-12,4.19c-4.49.78-9.22.23-13.84.17-11-.17-20.72-13.6-17.46-24,.21-.68.18-1.62.63-2,10.83-9.93,19.09-23.42,35.88-25.1,3.33-.33,6.3-3.54,9.69-4.28,3.57-.79,7.37.48,10.33-3.23,2.79-3.51,7.19-1.18,10.84-1.49,4.58-.39,9.21-.16,13.82-.2,3.26-5.85,9.6-3.15,14-5.23,3.28-1.55,5.7-4.31,10-4,4.5.29,9.06-.31,13.6-.51,3.23-7.1,11.75-1.29,15.86-6.48a6.21,6.21,0,0,1,3.69-2.09c5.76-.8,12.48,2.22,16.66-4.48,5.36-.08,10.74-.42,16.08-.15,4.84.24,6.44-6.32,12-4.89,3.61.93,7.66.18,11.51.18,4.62,0,9.35.58,13.84-.19,3.38-.58,6.32-3.56,9.71-4.27C372,447.11,376,447.71,379.86,447.71Z"/><path d="M692.25,477.83c-2.58,2.58-4.36,4.1-5.83,5.87-6.13,7.4-13.13,12.46-23.53,10.39-6.89-1.36-11.11,7.1-19,4.9-5.72-1.61-12.26-.32-18.43-.32-5.74,7.7-14.2,3-21.18,4.84-5.54,1.44-10,5.83-16.69,4.62-5.23-.95-10.78-.4-16.16-.13-4.4.23-6.56,5.78-12,4.77-4.37-.81-9.07.15-13.63.33-4.34,6.54-11.31,4.79-16.75,3.75-6.45-1.25-8.62,5.9-14.37,5.11-4.55-.62-9.25-.12-13.88-.12-3.61,6.63-11,3.13-16,6-1.29.75-2.1,2.92-3.32,3.09-6.5.88-13.94-2.29-18.89,4.77-6.14-.08-13.39,1.86-18.15-.74-6.41-3.52-11.31-10.22-16-16.23-1.42-1.82-1.18-6.92.38-8.73,6-7,12.88-13.27,19.43-19.82,5.86-.49,11.69-1.08,16.27-5.43,7,3.67,10.25-5.53,16.61-4.74,5.25.65,10.84,1.1,14.27-4.53,6.95,0,14.07.95,20.78-.3,5.55-1,10-5.53,16.69-4.55s13.86.22,20.8.22c10.84-8.15,23.44-3,35.1-4.78,7.13-1.11,13.24-5.8,21.29-4.73,8.34,1.1,16.94.24,25.43.24,7.72,0,15.43,0,23.15,0,12.68,0,19.91,3,29.65,12.24C689.4,474.92,690.47,476,692.25,477.83Z"/><path d="M674.1,785.9h57.77c3,0,8.12-1,8.84.33,3.81,7,11.29,2.6,16.23,6.18,8.18,5.92,18.65,8.07,25.65,16.33,3.44,4.07,4.88,6.35,1.24,8.26-6.32,3.32-12.94,6-19.27,9.38-4.81,2.57-11.87,1.14-17.93,1.17-17.71.1-35.43-.13-53.14.14-5.77.08-12.23-2.41-17,3.76-.94,1.21-4.26.72-6.49.74-7.7.08-15.49.78-23.08-.17-7.93-1-14.1,3.84-21.23,4.64-7.61.86-15.38.19-23.09.19-6.7,7.28-15.52,3.83-23.49,4.64-3.59,5.14-8.86,4.68-14.26,4.74-6.82.08-11.37-7.68-18.83-5.17-.24.08-1.39-2.3-2-3.6-6.36-13.47-6.35-15.85,0-28.51.63-1.27,1.13-3.73,1.71-3.74,6.15,0,8.94-4.94,12.83-8.28a6,6,0,0,1,3.86-1.67c4.89.48,8.18-1.89,12.21-4.31,3.39-2,9-.1,13.6-.51,5.15-.45,11.15,2.46,15.32-1.79,4.72-4.82,10.1-2.54,15.12-2.63C637.13,785.7,655.62,785.9,674.1,785.9Z"/><path d="M815.12,44.68c6.47,0,11.16-.46,15.72.1,7.19.88,15.6-3.6,21.24,4.53,6.95,0,13.9.22,20.83-.1,3-.14,3.86,2.06,5.6,3.36,2.91,2.18,4.37,6.31,9.09,6.1,2.49-.11,4,1.5,3.88,4.35-.14,2.31.33,4.72-.19,6.91-.24,1-2.5,2.67-3.27,2.39-8.9-3.17-15.43,4.83-23.59,4.79-7.72,0-15.66-1.13-23.08.34-6.3,1.24-11.92,5.18-19,4.42-6.1-.65-12.33-.25-18.5-.1-5.17.13-8.08,6.4-14.34,4.81-4.35-1.1-9.21-.16-13.84-.22s-6.56,6-11.91,5.15c-1.43-.23-3.76,4.2-5,3.89C745,92,736.08,105.93,723.16,104.9c-9.51,6.53-20.29,10.59-30.49,15.8-6.37,3.25-13.07,6-19,10-4.4,3-7.17,9.45-11.72,10.8-6.38,1.9-14,1.61-20.61.11-5-1.13-11.41-2.83-13.81-8.39-2.69-6.22-9.91-12.38-1.78-20,1.9-1.77,2.3-5.14,3.39-7.77,8.15,1.1,10.38-7.48,16.64-10.12a399.57,399.57,0,0,0,42.11-21.2c5.18-2.94,13,1.56,16-6.28a18.73,18.73,0,0,0,14.57-4.28c2.87-2.25,8.44.58,12.33-3.74,3.33-3.69,10.68,1.26,14.19-5,.65-1.14,4.31-1.23,6.38-.8,5.82,1.21,9.58-3.35,14.37-4.47,5.12-1.2,10.74-.27,16.14-.27C792.51,39.89,805.39,47.2,815.12,44.68Z"/><path d="M400.71,158c-3.88,3-5.8,8.1-11.47,7.16-3.08,3.87-7,5.31-11.95,4.7-4.66-.57-6.42,6-12,4.77-4.4-1-9.25.25-13.8-.31-6.35-.79-9.42,7.26-16.68,5.05-4.84-1.48-10.57,0-15.91.1-5.12,7-12.68,2.89-19,4.34-4.12.94-7.88,3.63-12,4.34-4.49.78-9.22.18-13.84.18-6.73,7.15-15.49,4-23.5,4.63-5.51,9.41-18.31-.1-24,9.17-.42.69-2.94.2-4.47.08a19.45,19.45,0,0,0-14.57,4.25c-2.93,2.24-8.87.55-13.46.63-3.46,5.78-9.27,3.68-14.32,4.57-4.13.72-8.36,4.76-11.9,4.06-6.4-1.26-8.86,4.86-14.28,5.5-3.76.44-6.95,5.37-12,4.17l-15.27-7.78a24.47,24.47,0,0,0-3.29-3.23c-7.08-4.79-5-12.12-4.92-18.68,0-1.71,2.54-4.08,4.44-4.9,5.52-2.36,10.6-5.08,14.44-9.87a6.6,6.6,0,0,1,3.81-1.81c5-.89,10.28,1.58,15.05-3,4.17-4,10.48-2.34,15.31-1.4,6.35,1.23,7.91-7.12,14.4-5.24,3.94,1.15,9.28,1.82,12.35-3.25a3,3,0,0,1,1.83-1.07c5.05-1,10.83,2.42,15.25-2.23s10.37-2.88,15.13-2.11c6.83,1.11,9.75-6.88,16.68-5.2,5.09,1.23,10.72.24,16.11.24,6.71-7.24,15.57-4.76,23.49-4.32,5.42.3,7.45-4.85,12-4.92,5.39-.1,10.78,0,16.17,0h13.87c6.5-8.3,15.62-3.33,23.5-4.64,6.27-1,9.69,6.41,16.62,4.91,5.89-1.28,12.29-.54,18.42-.1,1.9.13,3.81,2,5.45,3.4C395.2,152.62,397.89,155.32,400.71,158Z"/><path d="M761.74,538a45.48,45.48,0,0,0-.07-6.91c-.46-3,1.89-4,3.34-5.57,4.49-5,12.4-5,16.12-11.38,1.92-3.28,5.65-1.51,8.5-1.52,35.4-.12,70.8.12,106.2-.25C903,512.33,911.33,516,917,508c7.29,8.86,17.22,2.92,25.81,4.52,3.78.7,7.64.46,10.12-3.41a2.05,2.05,0,0,1,1.53-.6c5.25,6.76,12.91,2.37,19.08,4.24,9.89,3,19.07,7.65,24.37,17.29.54,1,0,3-.77,4.17-3.83,5.91-10.79,8.21-16.45,10.27-7,2.56-15.89-1.09-22.92,4.3-4.12-7.58-6.74,1.5-10.39,1s-7.68-.12-11.52-.12c-4.62,0-10-1.49-13.65.4-4.11,2.14-6.69,5.08-10.12-.17-6.67,7.86-15.64,3.4-23.58,4.35-4.37.53-8.56-.48-12.64,3.41-2.12,2-6.28-6.73-10.7-2.28-3.07,3.1-6.21,3.68-10.14,3.61-9.23-.17-18.48-.28-27.7,0-5.79.19-12.49-2.42-16.66,4.29l-4.9-4.37c-5.62,8.13-14.06,3.3-21.17,4.65-5,1-8.14-3.24-12-4.27-9.42-2.5-11.54-8.26-10.83-16.63C761.85,541.12,761.74,539.57,761.74,538Z"/><path d="M456.19,649c-3.85,3.85-6.53,6.63-9.33,9.28-1.05,1-2.33,2.29-3.59,2.39-3.83.32-7.82-.46-11.51.31-2.65.55-4.76,3.71-7.41,4.28-7.09,1.53-15.39-2.85-21.32,4.47-6.89.1-13.93,1.12-20.65.09-8.05-1.24-12.83,7.15-21.33,5.21-7.33-1.67-15.34-.35-23.06-.35-7.28,8.95-17.3,2.69-25.83,4.67-4.87,1.13-8.26,5.7-14.32,4.88-4.83-.66-10.25-1.94-14.86,3.2-3.22,3.58-10.86-1.3-13.94,5.1-5.85-1.36-8.2,5.66-14,5.66-3,0-5.22,4.17-9.61,4.65-5.55.6-7.33-4.7-12-5.17-5.74-.58-8-6.49-12-9.84A5.75,5.75,0,0,1,219.8,684c-.18-5.4-.24-10.81.08-16.19.05-.85,2.22-1.66,3.49-2.33,1.83-1,4.27-1.34,5.52-2.78,3.63-4.18,11-11.5,13.71-10.92,6.72,1.47,10.33-5.57,16.61-5.19,1.59.09,3.45-4.15,5-4.05,5.63.38,9.8-1.88,14.47-4.57,2.9-1.66,7.54-.31,11.39-.31,7.71,0,15.43.2,23.13-.07,5.08-.17,10.32,1.52,14.91-3.51,1.84-2,7.19-1,10.94-1,27-.06,54,.64,80.95-.42,8.8-.34,15.05,6.83,23.55,5Z"/><path d="M465.29,1008.26c6.16,0,12.32-.08,18.49,0,4.67.08,6.44-6.24,12-4.83,3.62.91,7.66.17,11.51.17,4.62,0,9.33.53,13.83-.2,2.63-.43,4.77-3.8,7.4-4.23,4.5-.74,9.32.43,13.8-.37,5.34-1,7,4.78,12,5.14,4.47.34,5.43,4,1.8,8.1-3.49,4-2.61,10.2-7.91,13.09-2.59,1.41-4.13,5.28-6.73,6a62.69,62.69,0,0,0-17.38,8.41,9.56,9.56,0,0,1-6.43,1c-10.76-2-19.76,6.85-30.46,4.73-5.16,6.17-12.35,5.23-18.85,4.4-5.45-.7-7.59,4.3-12,4.89s-9.41-1.9-13.19,1.47c-2.47,2.21-4.64,3.59-8,3.18-5.4-.65-9.82.58-14.56,4.19-2.94,2.24-8.87.56-13.46.64-3.24,5.91-9.25,3.81-14.15,4.89-7.5,10-14.55.63-21.79-.53a3.05,3.05,0,0,1-1.86-1c-3.47-4.75-9.43-7.24-10.79-14-1.48-7.41,3.73-12.52,4.86-18.92.11-.66.7-1.77,1.08-1.77,7.74,0,10.4-8,16.46-10.55,4.58-2,9.5-3.39,13.63-6,2.59-1.67,4.54-3.65,8-3.29a34.36,34.36,0,0,0,9.23,0c9.37-1.56,20,4.59,28.13-4.55Z"/><path d="M932.58,818.32c10,0,20.06,0,30.09,0,5.23,0,10.89,1.24,14.35-4.48,4.34.29,9.33-2,12.52,3,1.18,1.86,1.83,1.46,3.4-.18,1.4-1.45,3.78-2.91,5.64-2.81,8.77.49,17.95-2.59,26.11,4.19,2.29,1.9,7.5.07,11.33.37,2.43.19,3.94,1.61,3.74,4.56-.26,3.84,0,7.72-.1,11.57-.08,2.17.68,4.36-1.53,6.35-5.14,4.63-9.93,9.64-14.87,14.5-4.58-1.3-6.41,3.82-9.7,4.39a41.73,41.73,0,0,1-16.1,0c-6.29-1.44-9,4.78-14.34,5-8.78.33-18.29-2.85-25.87,4.51-5.4,0-10.84-.39-16.2.1-6.48.59-14-2.85-19.09,4.14-9.4-1-19.82,4.82-28.07-4.11-5.38,0-10.77,0-16.15-.15-3.13-.09-9.34-5.63-9.41-8.49-.14-5.4-.13-10.8,0-16.2.12-5.17-.8-10.16,4.17-14.6,6.2-5.53,12.78-10.71,20.76-11.36C906.27,817.55,919.46,818.32,932.58,818.32Z"/><path d="M243.17,389.52c-1.36-8.89,2-13.54,8.25-15.82,5.38-2,9.88-7.33,16.56-4.74,4.19-6.37,10.73-4.8,16.6-4.51,4.95.25,8.69-1,12.17-4.56.69-.7,4.51.49,5.83,1.85a8.15,8.15,0,0,0,8.23,2.48c3.23-.79,6.24-2.43,9.34-3.7,2.42,3.67,6,4.1,10,3.86,3.84-.24,7.79.44,11.55-.15,9.43-1.48,20,4.52,28.3-4.27,4.29,6,10.67,4.21,16.5,4.34,5.39.12,10.8,0,16.2.1.56,0,1.14,1,1.63,1.57,3.41,4.16,9,4.41,13.32,7.2,3.26,2.12,9,.65,13.62.36,5.18-.32,6.65,2.09,6.34,6.83,0,.76,2.1,2.27,3.33,2.38,3.28.29,6,.6,5.8,4.95-.24,4.53-4.63,5.76-6.78,8.76-.29.41-1.42.18-2.14.31-7.14,1.26-15.59-3.49-21.23,4.62L411.69,397c-5.91,7.39-14.13,3.88-21.36,4.21-11.55.52-23.3-1-34.67.53-7.81,1.05-15.1,5.21-23.61,4.39-7.65-.73-15.43-.37-23.13-.08-5.81.23-9.63,6.64-16.68,4.84-4.79-1.22-10.86-1.77-14.33,4.07-5.36.1-10.74.46-16.08.14-1.95-.11-4-1.63-5.67-2.9a48.25,48.25,0,0,1-5-4.85C245.8,401.93,238.85,397.13,243.17,389.52Z"/><path d="M1076.55,725.67c4.72,0,9.33.14,13.93,0s6.53,6.54,11.92,5c.34-.1,1.73,2.21,2.07,3.55a15.58,15.58,0,0,1,.07,4.58c-.3,6,1.06,12.86-1.38,17.83-3.24,6.62-11.88,7.5-18.17,10.94-4.56,2.49-8.6,5.59-14.29,4.55-6.89-1.26-11.3,8.06-18.81,4.59-3.66,7.59-13.26,1.56-17.58,7.67-.43.61-1,1.44-1.64,1.54-7.83,1.19-16.73-3.3-23.33,4.45a19.13,19.13,0,0,1-1.61-1.64c-2.09-2.7-5.62-4.3-7.71-2.1-4.76,5-8.62,5.57-12.95,0-6.14.25-9.37-4.36-12.65-8.23s-5.53-8.41-8.24-12.67c3.26-4.1,4.27-8.66,4.36-14,0-2.26,3.38-5.17,5.9-6.5,3.15-1.65,6.45-3.3,9.58-4.66,6.45-2.82,12.8-7.49,20.74-5.67,2.19.5,4.59.08,6.9.08,4.61,0,10.21,1.64,13.59-.4,4.74-2.87,8.92-4.79,14.46-4.32,4.57.4,9.21.08,13.82.08C1061.2,722.52,1069.52,726.77,1076.55,725.67Z"/><path d="M728.81,1017.79c-3.17-.33-7.94.05-12-1.48-4.62-1.75-8.75-5-12.8-8-4.52-3.33-2-8.42-2.44-12.74a65.67,65.67,0,0,1,0-9.2,11.16,11.16,0,0,1,.71-4.29c2.5-5.4,19.13-15.42,25.74-15.53,6.9-.11,13.83.3,20.71-.1,8.72-.51,18.23,3,25.71-4.56,8.63,1.57,18.28-3.65,26,3.94,8.34.23,16.69.41,25,.72,5,.18,14.33,9.3,15,14.75.25,2.17.42,4.9-.64,6.58-4.81,7.64-18.07,15.89-27.9,15.31-6.18-.37-8.73,5.52-14.23,5.1-4.58-.35-9.2-.07-13.81-.07-8.28,7.9-18.57,3.9-28,4.47-4.09.25-6.7,2.63-10,3.88C741.19,1018.42,735.44,1017.49,728.81,1017.79Z"/><path d="M981.49,146.61c6.49-1.94,11.29,2,16.5,4.6,1.27.62,3.74,1,3.76,1.62a163.2,163.2,0,0,1-.14,20c-.15,1.75-2.74,3.93-4.7,4.78-8.67,3.75-17.61,6.94-23.79,14.68-7.06-1.38-12.09,4.41-18.52,5.21-3.08.39-6,.12-8.05-2.76-2.47-3.42-3.35.4-4.84,1.21-.64.35-1.13,1.46-1.63,1.43s-1-1.13-1.65-1.48c-5.73-3.13-4.13-11.18-9.71-14.38-.14-7.41-1.64-14.56,5.72-20.67,4.15-3.43,9.58-3.78,13-7.75,3.06-3.54,7.54-2.57,10.62-1.65C967.06,154.15,972.78,143.31,981.49,146.61Z"/></svg>