<svg id="Layer_1" data-name="Layer 1" xmlns="http://www.w3.org/2000/svg" viewBox="0 0 1200 1200"><title>BB_Artboard 9</title><path d="M1116.11,431.87c-28.24-45.79-22.94-46.86-19.61-41.39,2.92,4.8,6,9.5,9,14.25,7.66-1.18,10,5.87,14.63,9.43,7.21,5.62,7,16.1,15.1,21.75,7.49,5.2,15.8,11.72,19.28,19.63,5.32,12.11,15.9,22.33,15.15,37-.2,3.87-.34,7.53,2.62,11.32,4.07,5.2,8.62,11.41,9.27,17.57a176.53,176.53,0,0,1-.14,40.06c-.59,4.75-4.27,10.87-7.67,15.06-4.81,5.94-6.29,10.2.12,15.15,2.25,1.73,1.34,2.28-.3,4.55-3.91,5.41-6.84,11.53-10.17,17.36,4,9.07-4.08,15-6.72,21.95-2.41,6.38-6.32,11.75-6,19.28.12,3.18-5,6.31-5.56,9.82-1,6-.55,12.33-.2,18.49.37,6.42-8.23,8.57-6.48,16,2.34,9.89-9.73,12.11-12,19.58-2,6.54,3.73,15.36-3.26,20.1-8.21,5.55-7.95,16-15.1,21.75,1,8.27-7.38,13.1-7.26,22,.1,7-7.84,13.35-5.61,22.17,2.1,8.31-10.74,12.87-6.1,22.13-3.11,3.86-5.82,8.17-9.43,11.48-6.28,5.76-11.15,11.42-9.36,21,1.11,6,2.44,13.71-.33,18.16-4,6.37-6.38,12-5.77,19.41.51,6.13.11,12.35.11,18.53-10.45,7.61-5.17,18.7-6.07,28.34-.56,6.12-8.18,8.6-6.6,16,1.25,5.84,0,12.2-.08,18.33-7.92,4.33-3.4,13.45-6.88,18.7-6.58,9.93-10.43,20.31-13.12,31.8-1.45,6.21-6.36,11.93-10.67,17.07s-8.8,10.33-17.61,9.93c-7.88-.36-14-2.22-18.19-8.51-4.52-6.69-11.06-3.53-16.82-4.29-7.52,10.87-18.79,4.64-28.36,6-1.56.22-4-1.07-5-2.43-5.81-8.12-14-10.71-23.4-10.83-5-6.43-14.25-6.25-19.45-13-7.24-9.37-18.85-15.34-21.68-28.15-5.2-1.83-13.07-1-10.54-10.54-6.24-3-5.41-10.17-8.64-15-2.64-3.93-3.67-9.17-6.81-12.5-5.15-5.45-1.43-11.85-3.32-17.28-2.48-7.16-6.06-14-9.64-20.7-3.48-6.54-9.92-6.27-16.09-5.7-3.32.3-5.06,2.14-5.2,6s1.37,7.72-1.77,11.63c-6.62,8.26-8.17,19.55-15.46,27.5-1.94,2.11-3.49,5.41-7.41,4.41,0-6.19.42-12.42-.09-18.56-.92-11.09,4.27-16.75,14.76-18.76,1.51-.29,3.77-2.69,3.68-4-.2-2.75-1.55-7.67-2.7-7.74-10.25-.67-20.56-.63-30.85-.34-1.17,0-2.74,2.73-3.26,4.45-.57,1.89.65,4.56-.26,6.07-4.53,7.48-2.73,19.93-15.88,20.78-6.57,6.57-12.89,13.4-19.77,19.62-6.54,5.9-15.69,7.86-21.73,15.17-3.7,4.48-4.47,8.57-4.56,13.75-.06,3.62,1.34,6,4.54,6.59,3.91.76,8,.61,12,1.11a3,3,0,0,1,2,2.1c0,.74-1.18,1.67-2,2.16-5.19,2.89-12.34-2-16.77,4.38-4.25,6.1-12.78-.69-16.5,4.56-4,5.62-11,3.41-15.51,8.29-3.6,3.92-11,3.52-14.85,8.49-7-2.25-9.3,7.69-16,6.19-10.24,9.16-22.16,15.31-34.7,20.85-11.32,5-22,11.44-33.44,16.42-2.64,1.15-4.76,3.46-7.13,5.23-3.15,2.36-7.1,7.31-9.31,6.62-9.42-2.92-13.88,7.79-22.36,6.79a71.39,71.39,0,0,0-18.53,0c-12.59,1.85-26.81-6.14-37.7,6-12.36-.06-24.72-.08-37.07-.28-.74,0-1.62-1.26-2.17-2.11-4.28-6.59-12.43-1.1-16.54-4.64-7-6-15.38-7.94-23.2-11.56a9.11,9.11,0,0,1-2.54-1.31c-3-2.85-5.86-5.81-8.78-8.73Q358.59,1040.49,329,1011a74.81,74.81,0,0,0-6.11-5c-3.86,7.83-1.58,15-2.13,22-.24,3.07-.07,6.18,0,9.28,0,1-.09,2.29.47,2.86,11.95,12.3,3.25,27.43,5.4,41.06.44,2.78-4.88,8.6-4.46,8.92,6.27,4.73,2.21,7.37-.84,11.53-1.95,2.65.36,8.73-5.1,9.16-4.74.38-10.18,2-14.18-2.94-4.94-6.08-13.1-9.93-13.1-19.35-8.77-12.69-13.8-27.43-22-40.38-4.26-6.72,2-17.2-8.16-21.42-.4-5.88,1.38-11.83-4.58-16.87-3.28-2.77-1.69-9.72-6.81-12.46,1.28-16.41-15.61-27.29-13.39-44-9.41-12.35-14.53-27-21.47-40.65-23-45.14-45.36-90.58-68-135.91-1.27-2.56-3.34-5.23-3.31-7.83.06-5.42-1.13-9.58-5.34-13.43-5.65-5.15-11-19.37-13.64-28.35-1.88-6.33-5.35-12.22-8.38-18.17C106.51,694.62,98,680.59,92,665.56c-2.11-5.27-9.09-8.59-6.77-15.82,1.89-5.94-4.35-8.72-5.76-13-2.74-8.4-6.87-15.74-11.28-23.25-3.82-6.51-5.88-14.05-9-21-1.19-2.62-5-5.28-4.55-7.2,1.92-8.07-5.77-12.63-6.23-19.2-.45-6.4-.82-11.83-6.54-16.05-3-2.24-7.18-4.76-6.08-9.74,1.56-7.12-1.93-12.12-7.25-15.49-5.82-3.69-3.62-11.39-8.67-15.08-4.16-3-.24-4.47,1.08-6.61,4-6.44,10.29-5.87,16.34-5.31,3.21.3,5,2.58,4.79,6.35-.08,1.69,1.13,4.71,2.28,5,8.56,2.14,15.47,7.57,23.26,11.18.88.41,1.47,2,2.22,2,7.22.16,14.46-.14,21.66.19,4,.18,5.68-1.76,6.14-5,1.09-7.7-2.76-16.19,5.42-22.77,2.09-1.68.25-7.82.92-11.79,1.3-7.73-3.12-16.11,3.62-23.31,5.51-5.89,1.37-13.72,2.49-20.57,9.63-6.58,5.77-16.56,6-25.3.13-4.51,1.61-7.45,4.5-10.69,1.56-1.74,2.23-7.1,1.14-7.91-6-4.42-5.64-10.34-5.5-16.51s.28-12.39,0-18.57c-.34-6.81,2.18-14.06-4.9-19.85-2.15-1.75-1.14-7.64-1.19-11.64-.13-10.32-1.43-20.89.38-30.88,1.56-8.57-9.63-12.16-6.23-19,2.66-5.32,6.61-9.48,6-16.21-.68-7.16.08-14.44-.24-21.65-.19-4.37,1.42-7.3,4-10.82,9.36-12.67,25.6-14.08,37-23.37,1.24-1,5.94.68,7.92,2.4,6.25,5.41,13,21,13.1,28.53,0,4.13,0,8.26,0,12.38.1,8,6.4,21.58,13.25,28.56,2.89,3,9.89,3.17,10.33.06.92-6.5,4.55-10.73,8.95-15,8.18-7.87,16.49-15.66,24-24.13,8-9,19.24-15.14,24.08-27.13,4.34-10.79,14.65-16.62,22.09-24.85,5.27-5.83,10.18-12.22,19.16-13.68,2-.33,2.1-7.64,4.69-9.81s7.08-1.57,10.5-4.46c6-5.12,9.1-14.2,18.42-15.06,8.77-.81,9.78-12,19.56-13.08,6.94-.76,12.89-9.71,19.93-10.8,6.56-1,9.55-7.76,15.77-7,6.65.75,11.86-1.2,16-6.3,10.85,4.28,17.74-8.52,28.46-6.58,2.81.5,6.25-4.82,9.8-5.55,4.95-1,10.27-.13,15.42-.3,6.89-.22,14,1.78,19.74-5.2,1.73-2.11,7.71-.92,11.75-.93,23.73-.06,47.49.58,71.19-.37,7.92-.31,12.67,4.8,19.14,6.41s14.48-2.93,20,4.16c3.22,4.15,7.65,1.75,11.5,2.06,5.12.42,11.06-1.47,15.26.54s7.75,5.08,12.84,6.56c6.25,1.82,11.29,7.43,17.37,10.29,3.4,1.59,8.34-.09,11.73,1.52,6.93,3.29,14.68,6.6,19.49,12.16,5.07,5.85,13,4.85,17.6,10.55,3.75,4.7,8,8.84,14.87,9,1.49,0,2.67,3.39,4.43,4,6.45,2.4.76,13.33,9.32,13.43,6.28.07,8.46,5.06,12.08,8.28,4.63,4.1,8.82,8.68,13.2,13.06,2.92,2.92,5.79,5.89,8.79,8.72a3.73,3.73,0,0,0,2.62,1c10-1.2,11.44,10.06,19.46,13,11.55,4.16,23.34,8.89,33.31,16.69.75.59,1.92,1.54,2.48,1.31,9.11-3.77,14.86,4.33,22.11,6.66s12.92,10,20,11.13c8.44,1.32,11.1,8.86,17.19,11.19,7.82,3,13.29,8.17,19.3,13.35,6.65,5.72,14.62,9.89,21.29,15.59,7,6,13.2,13.05,19.85,19.53,1.36,1.33,3.31,3.15,4.84,3,10.51-.9,11.59,15,22.74,12.56,4,5.65,9.48,7,16,6.26,3-.35,8.29-1,8.88.24,4.7,9.78,15.93,2.44,21.4,8.65,4.14,4.7,11.39,2.85,15.18,8.59,5.12,7.74,14.56,9.4,22.26,13.29,10.57,5.33,21.65,9.68,29,19.67,1.09,1.5,1.51,3.49,35.52,51,33.62,45,34.43,43.8,34.23,43.59-4.27-4.45-8.14-9.56-13.16-12.95-5.71-3.86-4.1-10.69-8.32-15.34-7.33-8.06-16.54-14-21.83-24.72-4.74-9.58-14.69-16.51-21.9-25-1.68-2-2.29-5.51-2.11-8.23.22-3.15-.12-3.82-3.28-3.16-8.87,1.83-15.76-1.16-21.24-8.5-1.51-2-4.9-3.43-7.57-3.69-14-1.37-24.42-10.71-36.53-16.2-5.15-2.33-7.24-10.9-14.87-8.61-7.36,2.22-9.68-6.77-16-6.32-1,.07-2.57-.32-2.94.18-.88,1.21-2.1,3.53-1.6,4.18,5.44,7.11,13.41,11.81,17.33,20.63,3.48,7.81,5.26,17.47,13.16,22.17,9.5,5.65.71,18.51,10.61,23.74,1.71.91.78,6,2.48,7.93,2.83,3.2,3.4,7,5,10.31s7.71,4.73,11.87,6.91,8.69,4,12.66,6.62c4.86,3.15,8,7.65,14.62,9.67,7,2.12,11.6,11.09,17.9,16.3,6,5,9.21,13.9,18.88,13.87,4.6,6.09,6,14.47,13.36,18.59,2.89,11.64,15.08,17.85,17.42,29.81,8.26,4.2,2.73,12.79,6.18,19.08,11,20.07,10.38,20.38,10.5,35.73.07,8.14.34,16.29.69,24.42,0,.76,1.26,1.79,2.13,2.06.51.16,2-.87,2.05-1.46.55-6-.4-12.49,1.65-17.88,2.39-6.31,7.37-11.51,6-19.18a17,17,0,0,1,1.15-8.7c6.77-17.32,6-17.13-.68-35.75-2.26-6.24,1-14.42-6.78-18.81l0-18.5c0-2.05.61-4.4-.19-6.08a6.58,6.58,0,0,0-4.57-3.19C1145.63,484.82,1142.31,483.35,1116.11,431.87ZM460.48,987.15h2.76c0-.93.37-2.11-.07-2.72-1.43-2-3.2-4.58-5.38-.85-.29.49,1.73,2.34,5.45,3.57q-.24,6.42,6.2,6.19c1.33,2.07,2.23,5.11,4.11,5.95,2.34,1,5.48.25,8.28.25,1.33,2.06,2.23,5.11,4.11,5.94,2.34,1,5.48.25,20.14,3.88-.32-.68-.53-1.84-1-2-2.62-.69-5.35-1-8-1.7-2.92-.8-3.93.06-2.84,2.9a4.19,4.19,0,0,0,1.86,2.08c4.25,2.1,9.27,1.37-1.91-4.95-1.34-2.06-2.23-5.11-4.12-5.94-2.33-1-5.48-.25-8.27-.25-1.34-2.07-2.24-5.11-4.12-5.95-2.33-1-5.48-.25-8.27-.25C469.59,989.05,467.53,987,460.48,987.15Zm495.87-650c-.68.33-1.84.53-2,1-.7,2.62-1,5.35-1.71,8-.79,2.93.07,3.93,2.91,2.84a4.13,4.13,0,0,0,2.07-1.86c2.11-4.25,1.38-9.27-4.94,1.91h-6.2c-.81-11.75-5.73-18.25-14.37-18.54-6.1-.22-12.22-.05-18.34-.05-7.86-8.74-18.29-6-28-6.15-5.77-.1-7.4,1.48-7.42,6.56-.06,10.19,0,20.38,0,30.57-1.75-.71-4.94-1.3-5-2.16-.69-8,.14-16.28-1.59-24-.9-4-5.6-7.88-9.54-10.14-1.13-.65-4.62,5.65-9.58,5.44-9.17-.4-18.38.17-27.56-.24-4.59-.2-7.36,1.81-10.36,4.78-6.52,6.46-13.12,12.42-10.88,23.22,1,4.89.5,10.2.1,15.27-.51,6.43.74,11.62,6,16.09,1.51,1.28.23,5.86.23,8.92-5.53.44-12.77-2.64-12.71,7.92,0,3.24-4.71,6.27-5.65,9.82-1.23,4.63.75,9.65-3.7,14-3.23,3.17-4,8.71-6.92,12.35-1.84,2.3-2.84,3.85.2,4.36,7.72,1.3,16.35,3.9,22.68-2.45,6.09-6.13,11.84-11.14,21.09-8.85,4.46-6.14,8.14-5.37,13.76-.45,2.14,1.87,6.69,2.84,10.15,4.87,7.33,4.32,14.92,2,20.78-5.48,1.62-2.09,1.46-5.5,2.36-8.23.29-.87,1.68-2.22,2.06-2.07,1.47.57,3.84,1.61,3.88,2.57.33,7.18.06,14.38.22,21.57.13,6,5.45,8.57,9.16,11.4,3.32,2.54,7.42.06,10.38-3.37,3.35-3.88,7.24-7.29,10.83-11,6.1-6.25,12.16-21.4,13-31.61.24-2.82.5-6.95,2.29-8.1,7.6-4.87.26-14.22,6.35-19.11,7-5.67,3.42-13.39,3.42-20.07,0-9.47,3.72-15.16,12.64-17.71.68,1.71,1.08,4.68,2.1,4.91C952.33,354.72,952.94,352,956.35,337.1ZM857,652.56h2.76c0-.92.37-2.1-.07-2.71-1.43-2-3.2-4.58-5.38-.86-.29.5,1.73,2.35,11.65,10.73,0-1,.34-2.11-.07-2.84-.88-1.56-2-3.93-3.27-4.14-5.73-.9-2.64,3.85-2.59,5.58.07,2.07,2.15,4.08,3.36,6.11C864.27,662.86,865.13,661.29,857,652.56ZM425.56,978.36a22.22,22.22,0,0,0-3-3.53,1.85,1.85,0,0,0-2.62,2.62,12.32,12.32,0,0,0,3.65,2.82c.23.12,1.24-1.2-6.81-5.52h3.08a13.11,13.11,0,0,1,0-3.07c1.93-7.81-5.15-10.31-8.7-14.89-1.24,1.12-3.33,2.08-3.58,3.39C406.15,967.72,413.37,970.09,425.56,978.36ZM339.29,392.84c.73-6.47-.57-11.85-5.89-16.34-.92-.78-.47-4.14-3.28-2.61-1.48.8-2.64,3-3.1,4.74-1.75,6.65,8.17,8.91,6.3,16-.2.74,2.29,2.19,3.53,3.31.83-1.71,1.65-3.43-.12-29.84a22.17,22.17,0,0,0-3.53,3c-.45.56-.08,1.78-.08,2.71.93,0,2.16.37,2.7-.08a12.45,12.45,0,0,0,2.82-3.65C338.76,369.79,337.45,368.77,339.29,392.84Zm768.33,284.51c-4.13,2.06-8.12,5.4-12.43,5.89-6,.68-8.12,8.48-15.44,6.92-2.53-.55-2.06,3.25-.08,6,4.08,5.56,9.3,6.81,37.7-6-6.88,3.23-9.28,13.68-19.08,11.93-3.13-.56-2.46.68-3.34,3-3.85,10.17,7.61,15.85,6.68,25-.05.47,3.33,2.15,4,1.68,2.44-1.73,4.24-4.37,6.61-6.25,5.94-4.68,9.21-10.36,7.77-18.14-1-5.69,2.43-12.1-24.78-5.2-.26-6.06,5.12-8.28,8.55-11.29,4.59-4,3.78-8.68,13.1-25.92-3.09,3.18-6.24,6.3-9.19,9.6a2.72,2.72,0,0,0,0,2.72c.48.48,1.82.1,2.78.11,8.14.08,11.64-3.52,9.19-9.54C1119.36,667,1118.38,666.42,1107.62,677.35ZM351.21,532.25a22.22,22.22,0,0,0-3-3.53,1.86,1.86,0,0,0-2.63,2.62,12.5,12.5,0,0,0,3.66,2.82c.23.12,1.24-1.19-19-23.89-5.82-5.82-11.62-11.66-17.5-17.42a2.83,2.83,0,0,0-2.06-.49c-.89,1.67-2.13,3.41-2.24,5.2-.3,5-1.31,10.34,4.14,13.69a5.87,5.87,0,0,1,2.17,2.17c4.45,9,15.43,8.48,21.74,15,1.49,1.54,5.94.22,9,.22-.73-1.75-1-3.89-2.25-5.2C339.09,518.9,334.61,514.64,351.21,532.25ZM692,358.76a23.09,23.09,0,0,0-3-3.53,2.67,2.67,0,0,0-2.6,0,2.62,2.62,0,0,0,0,2.6,12.59,12.59,0,0,0,3.65,2.81c.23.13,1.25-1.19-6.75-5.51,1,0,2.69.37,2.92-.06,2.24-4.1,5.15-8.15,6-12.58.66-3.44,2-7.8-1.78-11.24-5.23-4.74-10.66-9.47-14.89-15-4.68-6.19-10.73-4.12-16.45-4.26-1,0-2.16,2.28-2.94,3.69-.13.24,1.28,1.95,2,2,5.13.22,10.26.25,9.52,7.65-.51,5.21,0,10.15,5,13.06C679.2,342.16,678.42,350.4,692,358.76ZM795.06,745.5h2.76c0-.92.37-2.1-.07-2.71-1.43-2-3.2-4.58-5.38-.86-.29.5,1.73,2.35,5.45,3.57,4.4,10.85,14.56,16.61,22.22,24.55.93,1,5.6-.86,7.9-2.36,1.07-.69.87-3.72.81-5.68-.12-4.13-.16-8,3.67-10.9,4.46-3.35.53-4.92-1.86-5.45-3.88-.87-8.44.26-11.85-1.32-4.67-2.17-1.47-7.42-2.3-11.23,5.1.86,6.57-6.4,9.62-5.82,7.31,1.4,9.37-7,15.9-6.73,8.78.31,3.31-10.28,9.2-13.2,3.4-1.68,5.72-5.56,8.53-8.45-3.86-4.94-9.3-2.53-14.09-2.92-7-.58-14-.74-21-1.26-.64-.05-1.79-1.5-1.66-2,.2-.85,1.27-2.06,2-2.11,6-.42,12.07-.36,18.06-1,1.56-.16,4-2.12,4.17-3.45.49-5.06.06-10.2.24-15.3s-4.19-6.65-6.83-9.4c-5.09-5.31-5.8,3.87-8.52,3.18-7.27-1.84-9.62,6.17-15.81,6.75-7.68.73-11.08,8.19-15.88,13-3.78,3.84-8,5.1-12.76,6.49-1.13.34-1.49,3.29-2.2,5-8.8-3-13.59,7.69-21.94,6.61-.27,0-1.71,3.59-1.24,4,3.15,2.88,3.4,6.95,5,10.25,3,6,7.78,11.1,16.64,10.36,10-.84,20.21.24,30.3.9.83.06,1.45,3.28,2.17,5-2,0-4-.16-6,0-6.16.59-6.33,1-3.27,6.17s2.88,5.57-3.28,6.16C801.85,745.66,799.83,745.5,795.06,745.5ZM342.63,497.66c2.89,1,3.93,0,2.84-2.86a3.81,3.81,0,0,0-1.87-2.05c-1.67-.63-3.55-1.37-5.22-1.14s-3.16,1.57-4.73,2.43c1.07,1.21,1.93,3,3.27,3.48,1.7.6,3.79.14,70.24,34.54-.51-.72-.94-2-1.54-2.08-6.11-.94-11.67-3.39-14.65-8.77-4.6-8.26-13.48-2.28-18.85-6.41-7.7-5.92-18.13-8.08-23.64-17.08-.28-.45-2.34-.45-2.85.06s-.11,1.93-.11,3c0,2-.74,4.53.16,6,1.54,2.54,4.52,4.18,6.18,6.67,6.32,9.53,19.78,9.43,25.73,19.36.49.83,1.38,1.85,2.19,2a21.57,21.57,0,0,0,6.11,0c4.46-.68,7.93.68,10.44,4.41,1.49,2.21,2.62,1.82,4.41-.59S405,534.23,342.63,497.66ZM629.9,661.23c-.73-.73-1.48-2.11-2.18-2.09-8.72.29-18.35-3.72-25.41,5.57-.63.83-4.14.44-2.61,3.25.8,1.48,3.61,3.41,4.64,3,8-3.23,15.87-6.81,24.63-7.63.37,0,.62-1.37-29.42,1.64.44-5.55-2.59-12.39,7.92-12.79,5.41-.2,6.14-6.74,2-11.36a21.19,21.19,0,0,1-2.15-2.2c-3.27-5.23-8.41-4.5-13.52-4.73-8.15-.38-5.41,6.61-7.72,10.22-.83,1.31-3.36,1.54-5.12,2.27-.37-11-.34-11.26-8-12.28-4-.52-7.82.13-11-3.49-5.49-6.21-16.88,1.09-21.16-8.77-.18-.43-1.9-.24-2.91-.24H466.69c-5.57-8.62-14.31-5.93-22.19-6.17-5.14-.15-11.1,1.51-15.21-.56-4.26-2.15-7.4-6.21-13-6.34-1.49,0-2.66-3.35-4.42-4-13-5.18-23.28-1.35-29.06,11.38-2.75,6-8,11-6.59,19.08,1.24,7,.16,14.4.28,21.62.15,8,7.05,14.22,15.57,14.66,8.79.44,18.54-2.8,25.29,6.15,6.81-1.24,14.28,2.87,20.6-2.58a37.41,37.41,0,0,1,4.36-2.83c3.88,6.52,10.26,5.45,16.33,5.42,8.25,0,16.72-1.19,24.7.29,9.92,1.83,16.82-6.41,25.33-6.11s15.21-2.74,22.26-6.47c6.84-3.62,13.27-8.58,22.18-6.51,4.9,1.13,10.27.2,15.43.2-.69,3.64,1.57,5.91,4.47,6C581.86,665.22,590.71,665,629.9,661.23Zm207.9-199.9c-2.61,1.89-4.76,4.41-7.42,5.17-3.75,1.06-7.88.71-11.81,1.23-.8.1-1.72,1.24-2.08,2.12a8.48,8.48,0,0,0-.08,3c5-.95,6,4.57,9.62,5.79.43.14,1.35-1.41,2.15-2,1.39-1.1,2.87-2.1,4.32-3.15.83,2.73,2.82,5.76,2.19,8.09-.7,2.58-5,4.24-5.61,6.79-2.3,10.31,4.6,22.47-6.39,31.07,1.63,1,3.42,3,4.85,2.8,2.6-.42,7.25-2.81,7.12-3.28-2-7.2,6.65-9.44,6.89-15.92.17-4.33,3.29-8.87,6-12.7,3.4-4.87,7.71-9.1,11.53-13.69a3.85,3.85,0,0,0,.68-2.73c-.28-1.88-.28-4.51-1.47-5.42-6.1-4.66-16.33,2.29-41.84,4.39-5.08,0-10.64-1.3-15.09.37-4.26,1.6-6.75,7.2-12.86,6.2-.59-.09-3.64,6.23-2.77,7.28,6.36,7.72,13.38,14.9,20.41,22,.36.37,4-1.52,3.92-1.85-1.42-6.12,4.54-8.57,6-12.84,1.58-4.52.36-10,.36-15.11C816.41,476.94,816.41,474.91,837.8,461.33ZM234,290.07c0-1,.4-2.44-.11-3a2.93,2.93,0,0,0-2.88,0c-3.25,3.69-8.47,7.33-8.9,11.43-.66,6.37-7.81,8.64-7.24,15.81.3,3.67-7.62,6.73-5.59,12.7,2.48,7.26-5.82,9.69-6.56,15.81-.54,4.44-4.43,8.36-5.75,12.83-1.91,6.45,1.93,11.12,5.81,16,1.49,1.87-.06,6,.36,9,.24,1.76,1.63,3.37,2.51,5.05,1.19-1.24,3.1-2.31,3.43-3.75,1.09-4.68-2.25-10.78,3.07-14,7.51-4.53-7-8.45.31-13.46,3.43-2.34,4.68-8.05,6.61-12.36a23.39,23.39,0,0,0,2.42-8.15c.3-7-1.36-14.39,6.17-18.94,0-7-1-14.19,6.21-19,.95-.63.13-3.89,3.73-14.69a22.6,22.6,0,0,0-3.52,3,1.85,1.85,0,0,0,2.62,2.62,12.46,12.46,0,0,0,2.81-3.65C239.63,283,238.31,282,234,290.07ZM345,569.42a22.6,22.6,0,0,0-3-3.52,1.85,1.85,0,0,0-2.62,2.62,12.59,12.59,0,0,0,3.65,2.81c.23.13,1.24-1.19-3.72-5.51-.72-1.75-1.1-3.76-2.22-5.2-5.95-7.72-15.17-12.41-17.79-23.44-1.21-5.08-7.94-9-12.55-13.08-5.2-4.55-14.35-2-20.94,5.36-3.61,4-2.39,7.22,1.74,12.8,7.39,10,21.05,11.22,28.25,21.38,1.26,1.76,5.34,1.92,8.16,2.09C329.08,566.05,334.21,565.82,345,569.42Zm780.69-18.58a22.22,22.22,0,0,0-3-3.53,1.85,1.85,0,0,0-2.62,2.62,12.62,12.62,0,0,0,3.65,2.82c.23.12,1.24-1.2-3.73-5.52.17-9.13.75-18-8.5-24.33-5.82-4-13.06-9.16-14.79-15.2-3.4-11.9-13.83-16.87-20-25.68-6.63-9.41-19.72-9.59-26.11-19.32-1.16-1.77-5.34-2-8.16-2.12-7.17-.28-14.36-.09-24.31-.09.92,0,2.2.36,2.66-.1a2.7,2.7,0,0,0,0-2.62c-1.44-2-3.2-4.58-5.39-.85-.29.5,1.74,2.35,5.46,3.57,0,1-.35,2.75,0,2.94,3.38,1.62,7.7,2.16,10.14,4.61s2.68,7,4.61,10.15c1.55,2.54,4.39,6.41,6.33,6.23,11-1.08,13,11.43,22.12,13.47,9.25,2.07,13.61,11.27,20.41,17C1096.8,525.17,1105.39,539.52,1125.7,550.84ZM673.9,576.06c.08.82-1.41,8.57,1.78,12.26,4.16,4.8,2.67,11.79,8.1,15.29,4.72,3,6.56,9.65,13,10.56,3-6.27,11.17-3.34,14.89-8.58,2.25-3.16,5.53-5.15,5.76-10,.55-11.61-4.09-24.29,6-34.24.27-8.79-1.83-18,6-25.27,1.53-1.44.59-6,.07-8.94a6.88,6.88,0,0,0-3.19-4.54c-1.67-.77-5.16-1-5.84,0-7.13,10.15-20.88,11.72-27.7,21.73-1.1,1.62-.33,2.94-3.36,3-10.9.35-16.08,6.43-15.54,17.36C674,566.8,673.9,568.85,673.9,576.06ZM655.31,900.4c-3.8-.83-8.54,2.18-11.42-2.22-4.28-6.53-13.86-8.9-13.8-19.21,0-2.93-4.88-6.55-8.29-8.57-1.95-1.16-6.4-.75-7.95.76s-2.21,6-1.13,8c3.22,6,10.24,8.53,12.29,16.72,1.58,6.27,5.78,11.81,6,19.26.1,4.11,6.57,6.72,6.12,12.94-.24,3.31,7.59,5.15,9.88,2.12,6.79-9,15.41-14,26.36-11,12,3.28,12.56-6.05,16.07-12.59,4.56-8.49,4.85-16.7-.29-25.21-3.44-5.7-8.88-12.13-8.45-17.87,1-13.15-9.91-16.95-15.7-24.72a29.11,29.11,0,0,0-4.33,3.68c-3.29,4.11-7.72,1.31-11.52,2.15a33.08,33.08,0,0,1,2.22-5.25c5.78-9.2,5.58-14.42-.71-21.15S638,804.79,627.27,807.42c-4.45,1.1-7.91-.76-10.51-4.42-1.43-2-3.19-1.81-4.26,1-.69,1.78.39,4.82-.69,5.8-5.28,4.79-6.57,9.09.13,13.55.65,9.38,5.84,14.1,15,15.32,1.36.18,3.5,2.84,3.42,4.24-.64,10.6,7,7.55,12.56,8,0,1,.41,2.28-.06,2.95-7.22,10.34-8,11.25.4,18.51,6.35,5.48,4.88,14.67,11.85,19.43C656.51,892.67,655.31,897.41,655.31,900.4ZM602.65,435.71c5.7-5.7,10.51-13.12,17.34-16.65,7.5-3.88,14.89-8.37,23-11.27a46.25,46.25,0,0,0,7.91-3.15c2.52-1.48,4.62-3.69,7-5.49,3.61-2.78,5.71-7.31,2.87-10.32-7-7.39-7.91-17.45-13-25.39-1.69-2.61-7.76-2.18-9.93-4.74s-.69-7.68-4.58-10.31c-4.5-3,.43-4.35,1.28-6.51,1.05-2.64,3.1-6.62,2-8.06-3.59-4.89-8.55-8.76-12.58-13.36-1.94-2.22-3.34-3-4.36-.65-2.53,5.81-11.55,2.29-12.28,6.54-1.37,7.87-7.09,11.62-11.19,17-2.82,3.73-4.24,8.48-6.66,12.55-2.94,4.93-2.59,11.7-8.42,15,1.75,10.55-4.22,18.74-9,26.95-2.14,3.64-5.16,7.21-2.39,10.45,3,3.56,5.34,9,11.58,8.82,5.12-.15,10.28.33,15.35-.17,3.15-.3,4.21.17,3,3.19a5.44,5.44,0,0,1-2.11,2.18c-5.09,3.33-2.92,6,.61,8.75A58.89,58.89,0,0,1,602.65,435.71Zm-294.56,609.4c1.11-6.47-4.9-8-5.44-11.36-1.13-7-1.65-14.59-.2-21.46,1.76-8.3-5.49-12.42-6.55-19.14-1.24-7.9,3.49-16.71-2.38-23.69-7-8.28-2.22-17.63-3.76-26.33-.17-1,0-2.48-.51-2.82-6.29-3.94-6.66-10.18-5.53-16.23,1.3-7-4.38-10.7-6.16-16.09-2.12-6.45,3-14.26-3.5-20.23-6.13-5.64.84-16.82-8.76-21.1,3.93-10.82-9.29-17.6-6.59-28.24,1.27-5-5.37-6.07-5.94-9.82-.77-5,.95-10.62-.47-15.35-1.9-6.3-5.78-12-8.81-18-10,.83-13.5-8-19.2-13.22-6.58-6.07-14.49-10.32-21.21-15.69-14.41-11.51-26.65-25.73-39.74-38.89-1.38-1.39-3.31-3-3.56-4.66-1.16-7.94-5.6-15.14-10.12-20.33-5.39-6.2-8.46-13.21-12.44-19.87-3.4-5.7-5.36-12.25-8.66-18-3.94-6.9-7.69-13.66-6.74-22-7.77-4.75-5.64-12.47-5.41-19.34.16-4.83-2.47-7.5-5.52-10.13-4.84-4.16-8.08-8.54-7.21-15.69s-.35-14.47.33-21.62c.89-9.34-10.93-15.2-6.44-25.33.17-.38-1.34-2.18-1.89-2.1-10.39,1.51-17.73-8.12-27.94-7.48-5.18.33-7.5,1.95-7.2,7,.24,3.88.42,7.39,2.31,11.42,6,12.91,17.06,23.94,16.24,39.65,9.53,4.53,3.71,14.93,8.15,21.36s6.23,14,10.52,20.37c4.56,6.7,4.66,14.92,7.65,21.57a145.15,145.15,0,0,0,10.8,20.31c4.84,7.37,5.15,16.5,8.49,24.3,3,6.92,6.9,13.68,9.89,20.65,2.26,5.27,6.75,9,7.79,15.47,1,6.13,8.9,11.2,9.77,17.3.94,6.61,8.21,10,7.14,15.55-1.58,8.24,4.67,12.72,6.69,19.1,4.88,15.46,18.22,27.46,18.58,44.92,0,1.64,1.66,3.88,3.17,4.74,7.66,4.35,8.58,13.05,13,19.44,3.3,4.74,3.17,11.07,8.59,15.15,4.54,3.43,18.09,30.25,18.18,35.5.1,5.67,1.89,9.58,6,13.13,3.79,3.28,8.26,6.45,6.69,12.66,9.72,12.16,13,28,22.15,40.17,4.79,6.33-.54,13.77,5.84,19.59,4.59,4.19,7.37,11.37,8.8,17.71,1.06,4.68,6.53,6.44,6.27,9.69-1.19,14.88,10.75,24.66,13.7,37.79.19.84,1.41,2,2.11,2a3,3,0,0,0,2.1-2c.5-4-.07-8.25,1.2-11.91C303.58,1050.06,306.61,1047.18,308.09,1045.11ZM534.75,255.3c-7.85-.8-14.19.78-19.28,7.2-3.17,4-7.1,7.45-10.87,11-3.57,3.33-6.18,7.42-12.39,7.63-6.62.23-2,11-6.91,11.32-11,.77-14.28,10.59-21.46,15.67.64,8.44-7.69,11.35-10.58,17.29-3.29,6.77-7.41,13.21-9.47,20.84-1.68,6.24-7.46,11.24-10.4,17.29-5.15,10.58-.82,16.37,11.6,16.43,6.19,0,12.37,0,18.55,0,7.22,0,14.63,1,21.6-.28,7.38-1.38,9.47,7.14,16,6.59,6.14-.52,12.59-1.14,18.48.16,6.44,1.43,11.28,7.57,19.2,6.26,2.75-.45,6.88,5,9.07,4.18,3.35-1.23,7.94-5.68,7.79-8.53-.41-7.67,8-10.73,7.4-19.15-.45-6.65,4.4-15,9.32-20.36,6.87-7.49,9.76-16.72,14.76-25a82.72,82.72,0,0,1,6.8-9.55c7.57-9.21,6.76-15,.48-23.52-7-9.38-18.7-10.83-26.57-19-6.25-6.53-16.51-9.25-25.07-13.49A73.48,73.48,0,0,0,534.75,255.3ZM228.05,759.51c-.34-3.74.7-8.9-1.41-11.48-3.45-4.22-4.22-8.41-5.42-13.4-2-8.28-6.81-15.86-7.32-24.71-5.64-2.46-2.83-9.75-6.67-12.57-6.48-4.77-1.55-12.71-4.68-16.53-4.31-5.25-5.5-10-6.06-16.32-.39-4.44-5.61-8.68-5.46-12.9.25-6.86-5.8-11-6-16-.33-7.54-5-12.8-6.32-19.13-1.71-8.27-8.07-11.59-12.91-16.27-8.72-8.44-14.17-18.42-18.72-29.43-2.91-7-10.37-13.07-11-20-.64-7.7-10-10.8-7.44-18.78-7.21-4.64-6.46-11.91-6.43-19,0-.73-1.25-1.67-2.13-2.1-.5-.25-1.94.17-2.07.57-3.28,10.4-2.29,20.09,3,31.27,2.83,5.91,1.82,8.75-4.68,10.52-2.76.75-6.69.83-4.89,4.23s4.94,5.72,4.91,10.43c0,9.06.81,18.14,1.29,27.21,9.18,7.21,2.68,17.33,4.85,25.81.69,2.71,1.88,6.09,4,7.49,7.88,5.29,9.37,12.73,8.6,21.28,12.23,14,13.67,34.49,28.39,46.94,4,3.39,1.2,9.6,6.37,13s11.1,7.78,12.84,13c4.84,14.53,17.8,21.55,26.69,32.21,3.82,4.58,11.78,2.64,14.87,8.78Zm718.47,153c.17,1.61,1,9.59,1.78,17.58,8.91,7.4,2.4,17.43,4.46,26,.44,1.83.93,4.68,2.13,5.14,13.12,5,7.33,19.95,14.9,28.16,2.75,3,.26,10.51,2.83,14,4.62,6.33,10.28,11.53,13.29,19.35,1.23,3.2,8.47,2.73,12.51,6.45,4.56,4.19,9.48,1.29,9.94-5.17.37-5.07,2.14-9.18,4-13.82,2.87-6.95,8.09-12.75,9.05-21.17.93-8.11,4.26-16.91,11.2-23,.58-.51.58-1.85.58-2.81,0-7.21-2.3-15.63.64-21.33,3.33-6.45,6.4-12,5.66-19.4-.71-7.12-.69-13.81,5.8-19.44,2-1.75.46-7.88,0-11.94-.07-.7-3.49-2-4-1.52-3.88,3.37-7.41,7.15-11.06,10.79-7.16-2.59-9.57,6.27-15.94,6.47-6.85.21-9.08,7.54-13.92,11-3.24,2.32-6.71,1-10.67-1.83-7-5-6.89-13.86-11.76-20.13-2.07-2.66-2.49-10,2.5-13.88,2.86-2.23,3.22-5.82-.2-6.05-8.8-.59-18.35-2.38-25.25,5.9-6.69-.81-9.09,2.28-8.58,8.79C946.85,895.72,946.52,900.9,946.52,912.48ZM822.61,842.32c0-12.33-.37-24.69.16-37,.24-5.78-1.9-9.59-6-13-14.57-12.17-24.24-30.06-43.26-37-.57-4.85-.06-10.56-7.75-9.77-9.21-8.33-20.54-6.18-31.35-6-3.15,0-5,2.35-4.84,6.18.31,8.22.47,16.47,0,24.66-.4,6.61,1.28,11.42,6.47,16s12.93,21.17,12.06,25.61c-2.78,14.05,4.46,23.15,14.19,31.22,11.46,9.5,18.86,23.64,34.39,28.7,4,1.3,7,6,7.78,12,.92,6.84,8.12,3.89,12.7,4,5.93.2,5.48-4.49,5.47-8.56Q822.58,860.82,822.61,842.32Zm-682-423.1,1.86,14.83c9.62,4.27,1.28,15.19,8.43,21.5,6.64,5.85.9,15.63,2.57,23.48.39,1.83.89,4.24,2.2,5.19,6.43,4.63,4.51,11.48,3.62,17-1.3,8.08,9.59,10.72,6.71,19.22-2.46,7.24,3.75,12.88,5.4,19.2,1.73,6.65,9.24,10.58,7.1,19-1.71,6.74,7.29,10.77,6.54,19.08-.52,5.78,4.19,12.6,8,18,2.51,3.58,4.58,6.63,3.74,10.88-1.25,6.28,3,9.74,7,12.47,5.59,3.79,13.45,4.37,17,11.14,4.63,8.9,15.25,8.77,21.81,15.05,4.23,4,9.27.33,10.1-5.52a35.13,35.13,0,0,0-9.71-29.8c-6.67-6.72-7.38-16.7-14.89-21.9-7.86-5.46-5.82-17.34-15.13-21.86-2-1-2.89-4.85-3.69-7.56-3-10-8.39-22-14-28.2-2.87-3.15-5.09-5.89-4.72-10.53.55-7.06-.12-13.15-5.55-19.55-3.82-4.5,2.49-14.52-2.94-20.11-6.2-6.37-3.17-13.45-3.66-20.21-.37-5.13.34-10.28-4.88-13.51,1.58-4.1,3.65-8.1,4.56-12.34.58-2.75.48-6.67-1.08-8.67-9.38-11.95-4.31-24.95-3.5-37.66,7.72-5.09,3.75-13,4.77-19.7.55-3.6-1.26-6.32-4.39-6.5a10.78,10.78,0,0,0-7.78,3c-1.71,1.92-.88,6.05-2.55,8.06-5.11,6.13-12.63,10.59-10.38,20.72.42,1.92-2.65,5.28-4.87,7C142,405.32,140.17,411.65,140.63,419.22ZM339.3,793.65c.05-7.1.05-7.11-6.28-11-2.46-1.5-5.3-2.58-7.36-4.51-6-5.62-11.17-12.3-17.69-17.2-6.87-5.16-5.55-14.81-12.85-19.6C284,734,281.78,719.22,271.17,711.23c1.54-8.39-9.6-12.93-6.46-22.22,1.11-3.3,1.75-8.13-2.35-11.2-6.22-4.67-9.34-13.91-19.29-13.07-5.7-7.15-17-6.33-21.59-15.21-.77-1.48-3.3-3.16-4.74-2.94-2.62.41-7.17,2.18-7.16,3.36,0,4.79-2.8,10.52,2.18,14.34s2.65,9.27,3.84,13.92,6.38,9.23,5.51,12.81c-2.07,8.55,8.91,11.87,6.5,19.11-2.8,8.44,7.19,11.4,6.86,19.13-.17,3.93,7.7,6.83,5.65,12.83-2.5,7.3,6.72,9.67,6.27,16-.75,10.61,5,19.2,11.36,26S274,794.43,281.68,800.8c3.62,3,10.89.08,16.53,4.88a43,43,0,0,0,15.1,7.64c4.37,1.22,10.05,1.94,14-3,2.55-3.2,6.22-5.55,8.53-8.88A32,32,0,0,0,339.3,793.65Zm706.42-258.81c-3.15,0-6.25,0-9.34,0-8.55.13-13.9,4.84-15.34,14.72-.59,4-.09,8-4,10.79-4.26,3-1.7,7.56-2.39,11.38s1.43,6,4.65,6.35a50.53,50.53,0,0,0,12.35,0c7.77-.94,12.85,2.67,18.75,7.44,11.51,9.33,15.77,20.23,14,34.73-1.1,9.15-.2,18.55-.2,27.83,8.26,6.92,5.81,16.43,6.36,25.28.07,1.16,2.36,2.18,3.62,3.26,2.92-4.79,9.28-4,12.52-6.83,11.55-10.26,22.13-21.62,33.07-32.56-2.35-7.11,7.17-9.64,6.3-15.92-1.1-7.91,2.33-15.91-2.1-23.89-8.14-14.62-14.8-30.22-28.68-40.65-3.77-2.83-9-3.81-12.55-6.81-5.4-4.55-9.33-10.37-18.06-9.2C1057.94,541.71,1053.69,531.8,1045.72,534.84ZM709.81,181.67c3.09,0,6.19.09,9.27-.06.87,0,1.71-.79,2.57-1.21,2.46-1.23,1.66-3-7.34-10.86-8.09-7.1-17.84-12-26.54-18.33-7.37-5.37-16.94-8.49-25.43-12.86s-16.81-10.41-25.84-11.89c-10.22-1.67-17.91-6.83-26.3-11.49a12.93,12.93,0,0,0-5.57-1.4c-9.83-.39-20.34,2.43-28.34-6.25-10.3,0-20.73-1-30.87.27-10.61,1.32-17.72-7.82-28.42-7-8.29.66-14.88,3.95-22.27,6.19-7.55,2.29-16.5-.51-24.53.81-7.46,1.22-13.37,8.95-22.24,6-.48-.16-2.21,1.45-2.09,1.87.41,1.49,1.36,4,2.15,4,10.3.27,20.61.18,30.91.18,6.18,0,12.59,1,18.49-.26,7.41-1.62,9.72,8.07,16,6.3,9-2.55,13.62,8.4,22.21,6.38,7.53-1.77,13.12,2.42,19.16,6,4.85,2.87,10.46,5.57,15.91,6,5.61.44,10.14,1.69,12.9,6.26,3.54,5.89,11.55,4.57,14.73,8.89,5.77,7.81,16.6-.75,21.82,8.26,1.2,2.07,7.47,1,11.34,1.77,8.59,1.64,18.64-4.28,25.75,5,10.14.4,20.28.77,30.42,1.22.91,0,2.23.33,2.63,1C695.21,184.29,703,181,709.81,181.67ZM811.67,565.82c-9.49-.4-9.87-.72-18.24,7.82-4.17,4.25-8.45,4.76-13.62,4.67-1.8,0-5.17,1-5.2,1.67-.36,8.44-7.91,9-12.67,13-11,9.21-20.77,19.89-30.6,30.38-1.52,1.62-2,6.82-.79,7.94,4.63,4.18,5.65,7.42,0,11.15,4.25,5.51,6.62,11.54,5.45,18.68-.11.69,1.07,2.29,1.55,2.25a7.69,7.69,0,0,0,4.31-1.4c3.08-2.7,5.49-6.39,8.93-8.39,2-1.17,6.37-.83,7.94.66s2.33,6,1.24,7.92c-1.94,3.45-5.65,5.87-8.39,8.92-1,1.15-1.44,2.86-2.13,4.31,2.78.59,5.87,2.19,8.27,1.48,2.62-.79,5-5.73,6.78-5.38,9.58,1.83,15.29-3.18,21-9.43,1.74-1.89,5.55-1.72,7.73-3.39,8.51-6.53,20-8.74,26.36-18.44a14.32,14.32,0,0,1,12.63-7c.92,0,3.45-6.27,2.5-7.5-3.82-4.9-6.82-9.45-6.06-16.17.68-6.09,1.27-12.59-.14-18.41-1.8-7.4-8.69-13.39-6.14-22.23.16-.57-2.83-2.53-4.58-3S813.73,565.82,811.67,565.82Zm41.91,351.37c.27,6-1.66,12.64,5.3,16.38-1.88,7.83,8.6,10.91,7.15,18.65-.37,2-.7,4.4.08,6.09,1.62,3.46,5.43,6.42,5.79,9.85,1,9.68,14.92,11.34,13.23,22.46-.18,1.21,2.69,2.88,4.14,4.33.73.72,1.34,1.88,2.2,2.11,11.31,3,17.67,12.43,25.9,19.5,3.49,3,9.85,1.52,12.65,6.63.17.31,1.89.29,2,0,4.16-8.59,13.31-2.6,18.86-6.6a5.89,5.89,0,0,0,1.65-5.26c-2.07-6.33-7.08-11.19-6.5-19.09.38-5.14-7.17-9-6.79-15.46-6.68-3.89-4.75-10.43-5.29-16.34-.16-1.66-2.06-3.29-3.41-4.69-3.55-3.71-6.73-8.11-11-10.72-5.29-3.23-2.45-9.45-6.33-13-5.32-4.83-11.12-9.51-15-15.36-3.62-5.38-4.78-12.35-7.56-18.37-1.21-2.62-3.8-4.59-5.73-6.89-2.08-2.48-4-3.72-6.57-.35-4.29,5.73-10.38,8.41-16.85,11.31C856.5,904.64,851.32,909.74,853.58,917.19ZM475.92,906.6c-5.23,0-10.35-.1-15.47,0-2,.05-8.9,9.07-8.19,10.57.41.87,1.63,1.35,2.07,2.22,3,5.9,7.43,11.6,8.56,17.87,1.71,9.42,15,11.25,13.32,22.34-.18,1.21,2.67,2.87,4.12,4.31q3.26,3.27,6.52,6.52c1.45,1.43,3.48,4.35,4.29,4,8.28-3.13,10.71,10.17,19.07,6.55,1.66-.72,5.1-.71,5.79.29,4.13,6,10.19,7.23,16.11,5.56,8.3-2.34,11.89,6.79,19,6.44,2-.1,4.66.8,6-.16,6.33-4.38,14.69-5.17,19.89-11.42.66-.79,1.88-1.35,2.09-2.2.66-2.73,2.21-6.14,1.2-8.2-3-6-6.88-11.54-10.62-17.12-4.08-6.06-13.47-3.64-17.14-10.49-7.06,2.48-9.47-6-15.81-6.69-4.14-.46-8-5.43-11.5-8.87-4.29-4.21-12-2.37-14.89-8.6-3.4-7.33-12.27-5.46-17.21-10.66C488.5,904,481.63,907.47,475.92,906.6Zm.57-508.07c-8.23,0-16.78,1.4-24.62-.35-10.14-2.27-15.56,9.58-25.31,6.61-3.46-1.05-6.1,1.14-6.59,4.31-2.59,16.77,6,29.12,22.44,32.84,2.77.63,6.41,1,7.94,2.89,5.66,6.94,17-1,21.35,8.51.27.59,1.72.9,2.63.91,6.17.08,12.53,1,18.46-.22s10.92,12,16.64.54l6.55,5.85c4.38-7.76,12.12-5.63,18.87-6.73,1.15-.19,2.06-3.08,2.7-4.86,2.59-7.22,9.16-13.2,6.33-22.14-1.48-4.66,2.56-10.95-2.2-14.35-3.74-2.66-9.71-1.87-12.55-6.78-12.2,1.66-21.47-9.93-34.17-7.24C489.05,399.56,482.66,398.53,476.49,398.53ZM1051.86,649.7c0-10.26.06-20.52,0-30.78-.08-8.85-12.35-22.14-20.8-22-11.09.14-23.27-1.84-33,2.06-11.1,4.45-11.39,19.37-17.42,29.17-6.59,10.72-3.72,18.72,7.36,24.35,5.89,3,13.06,3.91,18.3,7.65,6.58,4.71,11.79,11.35,17.6,17.15,3.63,3.63,7.05,7.49,10.94,10.82,3.57,3,7.21,2.34,10.49-1.05,3.47-3.6,7.34-6.44,6.73-12.72C1051.25,666.18,1051.86,657.91,1051.86,649.7Zm-763.6-83.84c-9.81-.11-10.38,2.45-11.26,9.46-1,8.2,9.55,10.95,7.1,18.92,9.7,6.25,11.26,18.56,19.6,26s15.26,17.23,24.48,23.5c5.9,4,12.36,9.39,21,9,6.57-.31,8.59-.86,8.71-5.6.13-5.16,1-10.54-.19-15.42-1.76-7.35,5.95-10,6.48-16.05.58-6.53-.27-12.39-6.48-15.88-5.82-3.28-12.13-9-17.8-8.51-9.07.76-13.88-8.28-22.25-6.85-5.72-7.15-16.63-6.6-21.81-15.13C294.23,566.65,289.08,566.19,288.26,565.86Zm491-169.47c0-22.76,0-22.76-6.19-36.49-1.51-3.33-7.06-6.39-9.26-4.64-8.43,6.65-19.76,9.57-25.61,19.44-1.41,2.36-1.6,5.45-2.3,8.22s-.51,6.33-2.2,8.21C727.56,398,721,404.49,714.26,410.7c-5.25,4.82,1.52,5.91,2.06,8.78,1.18,6.33,2.1,11.72,10.8,10.22a11.06,11.06,0,0,1,8,2.44c5.41,4.65,10.1,10.12,15.39,14.91,1.21,1.09,4.59,1.71,5.51.89,7.17-6.38,16.27-10.36,17.54-22.63C774.64,415,781.94,405.44,779.23,396.39ZM487,879.55c4.65,4,9,8.31,13.85,11.77,3,2.14,8.49,2,10.15,4.64,5.75,9,19.38-.86,23.77,10.55.27.69,3.92-.18,5.92.15,2.83.47,7.06.49,8.11,2.25,5.58,9.31,17.68,8.9,24,17.17,7.62,10,19,3.34,28.49,5.5,2.6.59,4.48,3.87,7,5.26a8.43,8.43,0,0,0,5.79.57c1.36-.39,2.29-2.32,3.41-3.56-6.42-3.82-6-10.09-5.5-16.18.46-5.43-3.39-9.17-4.65-13.43-1.75-5.9-6.85-9.72-7.6-15.36-.66-4.89-2.18-7.16-7.26-7.11-15.4.13-30.81.08-46.22,0-6.11,0-12.22-.22-18.34-.34-4.62-7.74-12.29-6.1-19.14-5.69S494.53,872.67,487,879.55Zm51.47-710.27v-.48c11.23,0,22.45,0,33.68-.09.73,0,1.74-1.26,2.07-2.13.18-.49-.6-1.82-1.22-2.06-1.78-.67-3.91-.6-5.53-1.5-6.69-3.73-13-8.25-19.92-11.45-7.84-3.62-18.69,3.54-25-6.6l-73.72-.47c-5.81,7.59-14.16,6.36-22.07,6.12-6.31-.2-12.25-.17-16,6.06-9.93-4-16,8.13-25,6.21S371,167.08,363.57,169c-5.63,1.46-6.09,4.64-5.54,8.67.51,3.65,5.87,5.46,9.72,3.33,2.56-1.42,4.52-5,7-5.28,10.66-1.17,22.29,2.91,31.28-6.43,7.19,0,15.31-2.12,21.33.53,7.67,3.38,13.09-12.71,19.93-1,4.47-5.85,8.82-5.54,13.07.24,6.52-10,16.68-4.57,25.24-6a20.45,20.45,0,0,1,19,6.2Zm-152.82,229c2.06-1.92,3.94-4.34,6.38-5.83,7.4-4.52,8.53-13.11,13.2-19.32,4.31-5.73,1.47-11.82,2.14-17.69.56-4.93-.34-9.55,4.08-13.94,5.54-5.5-1.37-16.64,8.31-21.37.81-.4.39-4,.06-6-1.26-7.51,3.33-13,5.57-19.35,1.72-4.91,6.17-7.79,6.77-12.69a7.75,7.75,0,0,0-1.31-5.51c-1.1-1.25-3.89-2.35-5.2-1.79-3.51,1.51-6.48,5.32-9.93,5.67-4.57.46-7,3.22-10.36,5.21-5.39,3.17-2.39,9.59-6.4,13a97.64,97.64,0,0,0-8.76,8.74,115.34,115.34,0,0,0-7.44,9.31c-.49.67-.22,2,0,3,1,5.65-3.06,9-5.17,13.39s-4.38,8.5-6.62,12.75c-2.13,4-1,10.07-.52,15.15.56,5.92-2.53,12.38,1.92,17.73C377.35,384.83,377.19,394.33,385.65,398.25ZM364.09,766.56c3.72-9-5.18-14.59-5.95-22.18-.54-5.23-.81-9.7-5.27-13.4-4.74-3.92-8.33-9.34-13.32-12.81-5.6-3.89-5.45-10.29-8.65-15.08a14.18,14.18,0,0,0-4.36-4.33c-4.11-2.41-8.62-4.15-12.65-6.68-4.88-3.08-11.28-2.93-15.27-8.35-1.68-2.28-13.81.2-14.13,2.11-.65,3.94-2.31,9-.63,11.82,5.4,9.09,8.68,19.5,14.55,27.88,7.9,11.28,20.59,18.94,25.95,32.63,1,2.46,4.46,5.71,6.64,5.61,7.69-.36,10.41,5.84,14.51,9.87,3.53,3.46,7.35,2.73,11.27,2.8,5.53.1,7.18-1.52,7.32-6.81C364.13,768.61,364.1,767.58,364.09,766.56Zm490.3-459.74c-3.31-6.44-6.08-13.72-10.48-19.85-4.15-5.79-10-10.36-15.11-15.46.24-12.39-11.71-15.78-17.65-23.59a12.54,12.54,0,0,0-7.43-4.15c-13.47-2.19-28.2,4.66-40.52-5.79-.85,1.71-2.17,3.34-2.47,5.14-1.06,6.43,8.92,8.77,6.11,16,2.67,1,5.34,2.05,8,3.12.88.35,2.36.7,2.48,1.28,2.48,11.81,12.56,17.74,19.74,25.9a3.44,3.44,0,0,1,.71,2.74c-2.81,10,5.16,14.43,10.15,20.65,4.44,5.55,7.58,4.43,11.06-.48,10.25-.18,20.5-.21,30.72-.71C851.05,311.54,852.29,309,854.39,306.82ZM128.66,309.2c0,10.32,1.5,20.93-.41,30.88-2,10.39,6.49,16.33,7.4,25.07a3.22,3.22,0,0,0,2.14,2.06c.55.14,1.75-.9,2.11-1.67,5.17-11.27,9-23.41,15.88-33.53,3.37-5,2.87-11.24,7.84-15.74,2.78-2.5,1.94-9.37,2.13-14.29.23-6.13-.15-12.29-.27-18.43-9-5.61-4.87-14.63-5.88-22.34-.55-4.19-8-10.68-12.61-11.38-6.2-1-16.36,3.66-17.61,9-.38,1.65,3.52,4.3,5.47,6.48-12.43,10.86-3.77,25.19-6.14,37.7C128.33,305,128.66,307.14,128.66,309.2ZM967.92,479.08c-7.22,0-14.44.12-21.66-.05-3.81-.09-5.87,1.85-5.83,5.22a24.92,24.92,0,0,1-5.38,16.58c-3,4-.95,11.86-.89,18,.12,12.15,12.3,20.44,22.8,14.5,10.35-5.85,19.92-12.6,32.69-11a7.6,7.6,0,0,0,5.27-2c4.57-4.17,8.85-8.66,13.13-13.13a4.24,4.24,0,0,0-1.42-2.07c-4.6-3-4.5-5.86,0-8.84a4.32,4.32,0,0,0,1.38-2.07c-7.89-7.51-13.9-18.25-27.75-15.31C976.33,479.79,972.05,479.08,967.92,479.08ZM741.67,464c-7.17-9.9-15.78-17.39-28.92-17.31a11.8,11.8,0,0,0-16.07-4.17c-4.93,3.18-7.25,10.6-10.26,16.42-.83,1.62.16,4.08-.18,6.07-1.14,6.73,3.63,14.78-3.12,20.11s1,14.47-6.33,19c-5.36,13.48-4,22.73,5.1,29.18,2,1.39,6.1,1.81,8.1.68,8.85-5,11-13.39,6.47-23-1-2.1-6.14-5.48-1.38-6.06,9.42-1.15,12.47-10.18,19.36-12.89,5-2,9.85-1.37,9-8.47s.95-11.17,9.52-11.32C735.92,472.16,738.77,466.87,741.67,464Zm49.92,63.15c.73-4.72-.23-9.19-4.81-12.78-4-3.11-7.15-7.23-11.12-10.33-1.22-.95-4.55-.84-5.82.17-10.2,8.08-17.86,18.52-21.13,30.88a96.32,96.32,0,0,1-6,16c-2.71,5.91-.24,14-.82,21.13-.22,2.56-2.58,5.05-4.26,7.34-3,4.14,1.65,4.89,3.16,6.34s3.1,7.14,6.1,2.71c3.83-5.68,11.52-2.51,15.2-8.35,2.65-4.21,6.69-7.79,10.74-10.8,3.74-2.79,8.41-4.28,12.49-6.66,1.7-1,2.77-3,4.41-4.2,2.33-1.65,2.18-2.73-.41-4.43-3.78-2.48-6-7.61-3.14-10.11C791.62,539.21,791.82,533.79,791.59,527.13ZM624.33,707.9c1.79-8.73-3-12.32-10.78-13.46-5.15-9.22-19,.12-23.41-10.85-.14-.36-1.94-.05-3-.05-3.09,0-7.89-1.26-9,.22-5.23,7-12.34,6.79-19.33,5.8-6.23-.88-8.49,5.13-13,6.11-5.86,1.29-12.24.07-18.17,1.17-2.5.47-4.2,4.38-6.67,6.19s-2.38,2.61.13,4.54c3.88,3,6.32,7.38,12.6,7.17,9-.3,18.08.87,27.12,1.42,8.45,9.32,19.4,2.65,29,4.62a4.29,4.29,0,0,1,2.26,1.91c3.12,4.79,5.53,3.53,9-.08,1.69-1.78,6.29-.76,8-2.53,4-4.11,7.14-6.58,11.27-.48.05.07,3.56-1.36,3.75-2.39C624.68,714.21,624.33,711.06,624.33,707.9ZM351.71,952.72c0,5.13-.8,10.44.24,15.35.95,4.52,5.39,8.51,5.69,12.91,1.06,15.83,9.09,24.12,24.64,24.59,6.38.2,8.66,9,16,6.45,2.68-.93,6.5,1.31,8.13-2.34.4-.9-1.49-2.82-2.31-4.28-.93-1.66-1.91-3.31-2.76-5-2.1-4.26-4.94-8.37-6-12.88-1.09-4.72.45-9.58-4.05-13.91-4-3.86-3.69-10.55-8.63-15s-6.86-11.68-11.33-16.59c-4.14-4.54-7.27-9-8.65-15-.54-2.32-2.65-1.81-4.24.75-2,3.3-6.93,4.51-6.73,9.56S351.71,947.58,351.71,952.72ZM191.12,450.45h-.5c0,5.15.4,10.35-.1,15.45-.65,6.58,8.11,8.68,6.55,16-1.26,5.92-2.42,13.61.31,18.16,3.22,5.38,6.42,9.79,5.77,16.33a7,7,0,0,0,2.23,5.13c8.59,7.29,12.53,17.23,16.19,27.36,1.64,4.52,5.69,7.25,6.87,12.74,1.1,5.12,10,8.56,11.11,13.69,1.23,5.6,3.89,8.87,7.17,12.65,1.91,2.2,3.25,3,4.37.86a9.72,9.72,0,0,0,1.33-5.53c-.26-1.76-2-3.26-2.77-5-1.57-3.46-2.33-7.48-4.54-10.43-3.06-4.08-10.06-7.32-10.16-11.06-.18-7-8.42-9.88-6.89-15.75,2.18-8.36-6.95-12.36-6.24-19.12,1.09-10.41-10.1-17.44-6.57-28.42,2.33-7.27-2.9-12.88-5.59-19.22-2.17-5.1-1.47-10.84-5.19-16.55-3.33-5.1-1.11-13.78-1.51-20.88-.11-1.89-.3-4.24-1.44-5.49a7.2,7.2,0,0,0-5.29-1.74c-1.76.14-4.81,1.47-4.89,2.46C190.89,438.21,191.12,444.34,191.12,450.45Zm80.62,363.21c-5.94-.08-9.87,5.89-5.62,9.8,4.87,4.49,3.73,11.21,8.36,15.3,5.48,4.85,1.66,11.58,3,17.28.63,2.71,2.42,5.15,3.56,7.77,1.52,3.49,2.16,7.7,4.56,10.37,2.95,3.28,4.89,6.23,4.37,10.73-.05.45,3.54,2.14,4,1.7,2.95-2.71,8-6.07,7.76-8.84-1.11-13.92,10.72-22.69,12.69-35.06.6-3.72,7.77-4.28,4.46-9-2.23-3.13-5.81-5.43-9.1-7.62-2.34-1.55-5.8-1.67-7.73-3.51-6-5.72-16.77.86-21.41-8.48-.45-.91-3.81-.38-5.81-.48C273.8,813.62,272.77,813.66,271.74,813.66Zm726.5-12.39c8.68-.12,15.09-4.8,16.21-13.48.66-5.08.17-10.26,5.24-13.12,6.75-3.8,5.72-12.35,10.78-16.91,3.44-3.09,1.43-5-.88-6.46-2.51-1.59-3.46-8.06-8.69-3a12.76,12.76,0,0,1-7.71,3.21c-8.13.41-16.29,0-24.43.23-3.29.11-5.83,2.16-5,5.83,2.27,9.87-5.37,14.24-10.53,20.14-3.29,3.77-2.94,15.86.43,16.25C982.39,795,988.2,805.45,998.24,801.27ZM748.25,325c0-2.06-.06-4.12,0-6.17.25-7.19,1.26-14.84-9.93-14-.67.05-2.16-1.47-2.06-2.07,1.21-7.5-5.7-10.08-8.65-15-4.09-6.86-12.84-5.19-17.28-10.8-3.66-4.63-4.94.54-6.41,2-1.68,1.63-6.6,3.79-3.57,6.11,4.72,3.61,2.72,10,6.43,12.87,8.93,7,12.22,15.54,10.61,26.65-.73,5,.44,10.36-.27,15.4-.89,6.3,3.35,9.19,6.94,12.63,3.45,3.29,7.52,3.49,10.51.7,2.26-2.1,4.26-4.48,6.59-6.5,4.77-4.16,8.74-8.51,7.15-15.63C747.88,329.22,748.25,327.08,748.25,325Zm111.53,247.5c0,4.13,0,8.26,0,12.38,0,3.69,1.91,5.31,5.41,5.74s6.89-1.2,6.73-4.13c-.35-6.32,3.75-9.65,7.68-12.27,5.72-3.83,3.34-11.57,8.62-15.15C895.78,554,898.7,546.93,897,538c-.86-4.47,1.62-7.26,4.14-10.74,4.42-6.11,2-13.68,1.5-20.58-.2-2.64-2.35-2.25-4.23-1.26-10.56,5.58-22.17,14.55-30.15,24.24a12.66,12.66,0,0,0-2.19,5.25c-1.29,5.81,2.89,12.75-2.35,17.53C857.06,558.42,860.85,565.8,859.78,572.52ZM549.1,863.23c6.35,0,12.52.36,18.61-.17,2.64-.23,5.33-2,7.63-3.61,4.73-3.29,5.32-5.78,2.52-8.61-4.31-4.36-8.79-8.57-13-13.05-6.37-6.8-13.11-8.93-21-2.55-1.49,1.21-3.17,3-4.81,3.06-9.19.3-18.4.14-27.6.14-6.8,8.33-16.27,5.74-25,6.34-1.53.1-2.93,2.06-4.38,3.16,1.64,1,3.24,2,4.94,2.88,4.23,2.12,8.32,5.2,12.8,6,7.83,1.35,15.9,1.25,23.87,1.77C530.84,867.58,540.82,861.32,549.1,863.23ZM406.63,507.81c-.16-.72-.08-1.63-.5-2.13-7.78-9.41-10.28-23.75-25.05-26.71-1.68-.34-4.32-2.06-4.39-3.27C376,462.54,363,459,356.78,450.29c-2.48-3.47-12.58-3.13-16.43,0a30.6,30.6,0,0,0-6.38,6.53c-1,1.44-1.56,4.72-.7,5.58,11,11.15,19,25.93,35.49,30.67,2.94,6.28,10.79,3.43,15,8.38,3.57,4.17,11.2,2.87,14.8,8.52.57.89,3.88.27,5.86-.06C405.27,509.74,405.9,508.53,406.63,507.81Zm102.06,51.81c8.57,0,15,1.2,20.8-.27,9.27-2.37,18.31-6.13,25-13.61a9.46,9.46,0,0,0,1.1-2.15L547,528.73a14.27,14.27,0,0,0-2.15,2c-2.63,3.78-6.28,4.34-10.62,4.18-8.18-.31-16.41-.47-24.58,0-6.88.41-15-3.2-20.43,2.23-7.22,7.24-15.6,1.72-23,4.1a4.22,4.22,0,0,0-2.11,2.15c-.24.5.23,1.94.64,2.06C480.25,550,492.77,564.39,508.69,559.62ZM791.63,315.93c0-5.31.34-8.45-.14-11.47-.27-1.76-2.17-4.85-2.81-4.73-9.3,1.88-8.35-5.6-10.83-10.64-1.66-3.37-5.73-7.84-8.72-7.84-7.69,0-10.51-5.79-14.56-9.86-5.49-5.51-12.36-9.8-13.78-19.07-.5-3.23-5.13-8.23-11.29-8.89-7-.76-11.55,1.83-15.91,6.75-1.87,2.11-3,3.4-.73,4.38,2.6,1.14,6.21.74,8.19,2.42,5.47,4.65,9.48,11.95,15.63,14.65,7.68,3.38.86,19.28,14.69,15.39,5.09,5.09,10.23,10.15,15.22,15.34.53.56-.05,2,.29,2.94,3.27,8.85,10,14.58,18,18.71,1.2.61,4.55-.5,5.15-1.7A20.59,20.59,0,0,0,791.63,315.93ZM977.51,819.85c-6.19,0-12.38,0-18.58,0-2,0-11.65,6.88-11.78,8.73-.39,6.11-1.85,12.66-.16,18.21,1.24,4.08,6.24,8.25,10.52,9.84a24.26,24.26,0,0,0,15.23.07c6.12-2.09,11.47-6.4,17.16-9.76-.91-8.23,10.78-13,6.17-22.19-.86-1.72-1.91-4.57-3.1-4.69C987.86,819.55,982.67,819.85,977.51,819.85ZM889.44,311.79c5.13,0,10.28.26,15.38-.16a6.38,6.38,0,0,0,4.35-3.38c.71-1.68.86-4.76-.18-5.85-7-7.4-14.46-14.44-21.76-21.59-7.86,2.2-10.86-9-18.74-6.79-5.76-5.3-10.08-12.68-19.23-13.12-.76,0-1.33-1.62-2.21-2a26.92,26.92,0,0,0-4.32-1.28c-.31,2.78-1.94,6.67-.69,8.15,5.26,6.26,11.38,11.8,17.18,17.61-.5,9.66,9.8,12.53,12.42,19.46,1.92,5.08,1.49,9.66,8.57,9C883.26,311.56,886.36,311.79,889.44,311.79Zm1.32,476.93c0,5.11,1.3,10.66-.26,15.24-3.49,10.22,7.26,16,6.65,25.14,0,.56,3.34,2.26,4,1.81,10.06-7,15.07-17.89,20.3-28.32,1.51-3,1.07-9.16-1.06-11.4-5.53-5.81-5.5-14.89-12.63-19.51-4-2.61-6.13-9.06-12.18-7.46-9,2.38-3.52,10.09-4.7,15.32C890.22,782.46,890.76,785.65,890.76,788.72ZM301.2,353c-5.5,5.5-8.54,9.28-12.29,12.13-8.72,6.66-2.82,19.5-11.41,26.22-.63.49.17,4.13,1.32,5.3,2.95,3,5,5.77,4.86,10.42-.39,10.24.32,20.53-.26,30.75-.49,8.56,7.07,13.57,8.45,21.26.11.65,5.36,1.06,7.94.42,3-.73,2.51-2.28.4-4.31s-4-4.86-4.08-7.39c-.32-20.5-.23-41-.09-61.52a8.44,8.44,0,0,1,2-5.24C305.51,373.09,301.44,364.47,301.2,353ZM903.57,705.65c.72.72,1.73,1.31,2.12,2.18,5,11,9.64,22.14,25.32,19.3,1.15-.21,2.61,3.18,4.35,4,13,6,24.08-1.43,23.38-15.82-.11-2.38-2.4-4.74-4-6.89-.36-.49-2-.16-3-.06-5.23.5-9.46-.55-13.46-4.76-4.19-4.43-12,1.62-16.54-4.34-.87-1.15-4-2.2-4.08-2.11-2.9,5-8.5,4.39-12.79,6.41C904.29,703.84,904,704.92,903.57,705.65Zm98.72-153.41c0-4,0-5.07,0-6.09-.12-3.89-5.67-7.2-8.86-5-4,2.75-6.71,6.78-12.84,6.5-3-.14-4.59,6.54-9.66,5.81a4.36,4.36,0,0,0-2.9.28c-1.61,1.23-2.88,2.89-4.4,4.25-4.92,4.42-6.45,13.72-3,18.8,3.78,5.62,12.61,9.35,18.27,7.61,12-3.72,9.79-18.89,19.78-24.67C1001.27,558.2,1001.88,553.15,1002.29,552.24ZM379.15,1024.76c-.83.84-2,1.47-2.2,2.31-.41,2-1.18,5.19-.31,5.82,3.79,2.72,8.1,4.72,12.25,6.91s9.13,3.68,12.59,6.77c3.71,3.31,7.74,1.52,11.37,2.68,4.51,1.45,8.47,4.73,13,5.87,6.56,1.66,13.71-1.9,20.1,4.14,5.52,5.21,13.74.92,20.51,2.57,1.72.41,3,2.69,4.4,4.24,1.55,1.75,3.24,1.56,4.29-1.15.69-1.8,1.18-5.2.32-5.78-3-2.07-7.19-2.58-10-4.86-10.44-8.6-22.18-12.74-35.58-11.27-5.91.66-8.94-4.3-13.16-5.58-6.46-2-14.25.38-18.86-6.91C390.87,1031.2,384.06,1031.05,379.15,1024.76Zm462-181.6c0,7.17-1.16,14.61.43,21.41,1,4.19,5.59,8.29,9.58,10.82,4.91,3.12,13-.52,18.56-6.6,4.64-5,2.17-8.53-1.49-12.83s-3.6-10.63-8.54-15-7.4-11.11-11.14-16.69c-1.12-1.67-2.85-2.94-4.3-4.39-1,1.63-2.86,3.2-2.95,4.88C841,830.85,841.19,837,841.19,843.16ZM720.45,887.93l2.69-2.69c7.53-7.3,7.54-7.3,2.19-17a20.63,20.63,0,0,0-1.56-2.18c7.38-4,2.8-8.28,1.07-13.2-.58-1.67,6.68-4.08,1.44-8.64A165.41,165.41,0,0,1,711.07,829c-3.28-3.7-7.24-2.82-11.15-2.91-5.95-.14-7.7,1.73-4.79,5.54,6.46,8.47,6.8,20.2,15.06,27.63C710.7,868,720.9,874,717.45,884,717.16,884.9,719.39,886.62,720.45,887.93ZM579.83,466.69c-6.07,0-12.15-.06-18.22,0-3.49,0-5.18,2-5.46,5.46-1,12.1,5,19.28,16.54,19.25,5.8,0,12.27,1.84,16.38-4.69.16-.27,3.11.56,4,1.56,2.35,2.51,6.16,3.18,6.13,0C599,464.53,604.65,466.72,579.83,466.69ZM546.89,584.41c-7.23,0-14.45,0-21.68,0-1.9,0-12.46,7.88-11.74,8.67,3.17,3.52,6.53,9.07,10.24,9.42,6.57.61,14.53,3.91,20.2-2.81,3-3.6,4.85-1.38,6.59.83,3.18,4.06,7.52,2.24,11.38,2.43,5.11.26,6.48-1.47,6.69-7.42,0-1,0-2.07,0-3.1-.07-4.21-.08-8.32-6.21-8C557.21,584.59,552.05,584.41,546.89,584.41Zm535.95,162c0-4.1,0-8.22,0-12.32,0-2.34-6.82-12.57-8-12a72.35,72.35,0,0,0-8.78,6.08c-6,4.57-11.14,11-7.61,18,3.62,7.16,6.14,14,7.07,21.88.13,1,6.67,3,7.73,1.93,4.09-4,10.71-6.69,9.62-14.39C1082.48,752.61,1082.84,749.48,1082.84,746.39ZM256.07,442.3c-.72.46-2.06.89-2.08,1.38-.55,14.16-1,28.33-1.41,42.5,4.88,7.14,6.2,16.4,13.56,22.13,2,1.56,2.43,1.35,4.53-.65,8.2-7.82,9.16-15.48,2.73-23.35-3-3.75-9.3-5.69-8.33-11.85,1.63-10.39-9.94-17.36-6.93-28C258.28,444,256.8,443,256.07,442.3Zm709-33.69c0,4.13-.05,8.26,0,12.39.14,9.74,1.94,10.78,13.13,4.21,4.2-2.46,7.87-1,11.64-1.94,1.82-.48,4.77-1.11,5.05-2.21.65-2.6,1.12-6.51-.32-8.15A274.84,274.84,0,0,0,975,393.16c-1.17-1.09-4-1.18-5.73-.65s-3.77,2.29-4,3.75C964.76,400.31,965.11,404.49,965.11,408.61ZM330.58,949.42c.73-.73,2.07-1.44,2.1-2.2.26-8.2.18-16.41.52-24.61.12-2.87.23-6.55,1.94-8.35,3.07-3.23,5-6.28,4.18-10.76-.94-4.83,2.13-10.25-2.1-14.72-12.85,6.9-19,17-16.59,31.78a35.57,35.57,0,0,1,0,12.35C318.92,941.7,325.05,945.26,330.58,949.42Zm721.29-113.5c-1.31-1-3.19-3-3.81-2.69-2.53,1.35-4.61,4.86-7,5-10.78.5-13.16,15.22-24.66,14.09-.64-.07-1.42,1.33-2.14,2a16.7,16.7,0,0,1-2.16,2.13c-3.85,2.67-4.21,6.61-3.55,10.63.44,2.75.91,6.5,2.74,7.71s6.25.63,7.88-.92c11-10.41,21.7-21.22,32.23-32.15C1052.46,840.65,1051.76,837.89,1051.87,835.92ZM611.94,852.58c0-4.75,1.29-8.93-.22-10.67-6.64-7.66-14.07-14.64-21.41-21.66-.11-.1-2.58,2.63-4.19,3.64a29.81,29.81,0,0,1-5.2,2.16c-6.32,2.41-6.19,2.3-2.81,6.51,3.6,4.47,8,7.51,9.72,14.39,1.88,7.76,10.27,11.91,19.25,9.89C609.25,856.35,610.9,853.54,611.94,852.58Zm99.14-113.69c0-2-.14-4.06,0-6.07.3-3.75-1.81-5.73-5.07-5.82-9.1-.25-18.23-.24-27.34,0a6.41,6.41,0,0,0-4.61,3.05c-.81,1.63-1.05,4.68-.05,5.88,7.71,9.28,17.85,14.39,29.8,15.66,5.16.54,7.07-1.48,7.23-6.67C711.13,743,711.08,740.92,711.08,738.89ZM609.2,956.17c-3,0-6.08-.06-9.12,0-5.79.11-9.66,5.78-5.72,9.67,5.08,5,5.11,10.24,5.3,16.26.12,3.73,5.85,6.92,8.76,4.93,4-2.72,6.62-6.69,12.71-6.55,3,.07,5-18.36,2.22-22-1-1.3-3.26-2-5.05-2.23A78.83,78.83,0,0,0,609.2,956.17ZM711.53,230.68c-1.3-1.91-2.75-4.36-4.51-6.55-5.09-6.3-13.07-8-19.89-11-3.79-1.66-6.52-5.23-9.73-5.69-2.82-.41-6.19,3.44-9.43,5.2-1.63.89-4.76,1-5.07,2-1.13,4,2.37,3.25,4.75,4.41,8.58,4.15,18.08,7,24.45,14.86,4.63,5.73,10.84,3.64,16.54,2.61C709.72,236.32,710.29,233.32,711.53,230.68ZM414.07,726.2c-1.31-1.5-2.86-5-4.83-5.21-5.92-.77-11.76.43-16.69-5.26-1.87-2.15-7.68-1.26-11.65-1-1.53.1-3.61,2-4.22,3.5-.68,1.71-.72,4.6.32,5.86a131,131,0,0,0,10.81,11.05C396.54,743.46,409.8,739.49,414.07,726.2ZM661.2,606.41c-.52-.73-1-1.47-1.56-2.18-1.77-2.29-5.31-3.55-4.32-7.45s-3-4.94-4.25-7.49-.77-6.22-2.49-8.09-5.14-2.59-7.88-2.75c-1.25-.07-3.62,2.3-3.8,3.77-.72,5.83,1.64,12.47-5.11,16.42,2.83,5.58,5.6,11.19,8.58,16.69.24.43,2,.13,3,0,6-.5,8.61-8.66,15.7-6.9C659.56,608.6,660.47,607.13,661.2,606.41ZM974.54,448.1c-6.06,0-12.18-.48-18.13.33-1.52.21-3,4.41-3.47,7-.26,1.41,1.61,4.57,2.64,4.63,9,.45,18.11.12,27.14.62a12,12,0,0,1,7.49,3.52c3.42,3.74,4.84.4,6.51-1.33s4.87-5.38,4.35-6.16c-2.16-3.28-5.08-7.44-8.43-8.22C986.88,447.14,980.6,448.1,974.54,448.1Zm-28.47,142a13.12,13.12,0,0,0-2.09-4.89c-1.62-2.26-7.77-.32-10.44,2.86-2.52,3-5.8,5.13-5.9,10,0,2.4-3.17,4.74-4.94,7.08-2.36,3.14-5.11,6-7,9.46-.66,1.21.31,4.1,1.49,5.29s3.85,2.09,5.3,1.56c5.76-2.1,10.91-5.55,11.43-12.23.3-3.8,1.88-6.11,5-6.05C946.42,603.29,947.12,599,946.07,590.07ZM673.9,655.66c6.29,6.29,12.77,12.43,18.84,19,4.25,4.57,9.45,2.23,14.24,2.55,1.11.07,2.38-2.22,3.58-3.43-6.12-3.05-4.33-10.7-8.62-14.82-8.92,2-8.78-4.81-10.78-10.31-.55-1.51-5.94-2.91-7.82-1.92C679.89,648.52,677.4,652.16,673.9,655.66ZM852.21,517.82c-1.17-.64-2.15-1.65-2.8-1.47-2.73.74-7.5,1.58-7.66,2.86-.66,5.36-1,8.87-8.11,9.79-7.72,1-4,12.32-10.72,15.45,4.27,3.14,6,7.36,6.66,12.64.33,2.79,2.58,2.82,4.17.73,2.39-3.14,7.3-6.37,7-9.16C839.72,537.73,848.5,531.15,851,522,851.34,520.56,851.81,519.16,852.21,517.82ZM992.84,677.35c-7.53-.34-9.17,1-9.14,7.78,0,12,6.13,17.32,18.67,17.12,3.81-.06,5.64-1.78,6-4.89C1009.91,685.69,1003.67,677.84,992.84,677.35Zm-64.9,225.82c0-6.07.24-12.15-.22-18.18-.09-1.16-2.81-2.79-4.51-3.07C911.86,880,904,888,910,896.62c4.33,6.34,4.31,15.43,12,19.43a12.21,12.21,0,0,0,4.29,1.43c.49,0,1.6-1.39,1.63-2.19C928,911.26,927.94,907.21,927.94,903.17Zm-342-380.72h-9c-1,0-2-.06-3,0-5.71.38-4.73,4.65-5.47,8.5-1.44,7.45,3.48,11.52,8.18,14.57,4.17,2.7,5.53-3.51,8.26-5.51,3.11-2.26,5.21-5.53,10-5.37,3,.1,4.83-2.12,4.89-5.92.08-4.28-1.61-6.14-7.74-6.27C590,522.41,588,522.45,585.94,522.45Zm175,382.83c-.38-2.95.1-6.46-1.36-8.71-2.09-3.24-5.88-8-8.43-7.67-3.2.38-6.59,4.8-8.49,8.25-1.06,1.92-.17,6.21,1.43,8,3.66,4.14,6.71,7.57,2.09,12.92-1.45,1.68-6.39,3.58-1.5,6.24,2,1.1,6,.52,8.11-.86C759.11,919.29,761.86,913,760.93,905.28ZM639.28,671.15c-5.74-1.85-8.42,3.21-12.19,6.44-3.61,3.08-1.26,5.84,1.21,5.68,6.28-.43,8.75,4.21,12.47,7.37,2.49,2.11,4.41,7.41,8.7,1.89,2.38-3.07,6.72-4.94,5.84-9.89C654.31,677,646.39,671.17,639.28,671.15ZM382.69,900.64c0-7.11.41-14.27-.33-21.31-.15-1.46-4.43-3-7-3.49-1.42-.26-4.59,1.63-4.65,2.68-.46,8.08-1.23,16.33-.06,24.25.62,4.25,7.4,6.66,6,12.78-.12.52,2.43,1.86,3.89,2.37.42.14,2-1.29,2-2C382.78,910.81,382.69,905.73,382.69,900.64ZM143.28,504.73c-2.31,2.31-4.51,4.46-6.64,6.67-.58.61-1.47,1.91-1.31,2.09,11.15,12.71,12,29.89,19.36,44.22.37.72,1.58,1.66,2.09,1.51.87-.26,2.12-1.33,2.11-2.05-.07-4.83,1.46-11.63-1.09-14.08-5.52-5.3-1.89-12.55-4.83-16.52-4.58-6.21-6.49-12-5.91-19.29C147.12,506.53,144.58,505.57,143.28,504.73Zm903.82,11.52c4,0,8.05,0,12.08,0a5.62,5.62,0,0,0,2.69-.76,4.41,4.41,0,0,0,2-2.12c.14-.53-1-2-1.58-2-9-.35-13-7.91-19.07-12.59-1.66-1.29-5.49-.5-8,.34-1.11.38-1.47,3.24-2,5a12.08,12.08,0,0,0,0,3c0,8.95,0,9,7.78,9.14C1043.06,516.29,1045.08,516.25,1047.1,516.25ZM503.51,807.46c-4,0-8.06-.1-12.08.09-.77,0-2.19,1.33-2.1,1.81.28,1.49.78,3.31,1.86,4.21,2.9,2.43,4.41,6.76,9.46,6.37s10.08.15,15.1-.17c3.19-.21,9,2.09,8.07-3.91-.5-3.15-4.9-6.71-8.34-8.09S507.54,807.46,503.51,807.46Zm525.2,18.59c9-.06,14.84-4.39,17-12.57.68-2.62-2.59-6.89-4.79-5.93a189.73,189.73,0,0,0-19.81,9.79c-.63.36.8,5.39,2.22,7.67C1023.93,826.07,1026.83,825.75,1028.71,826.05Zm-236.6,59.6c-7.81-7.89-15-15.17-22.23-22.41-1-1-8,.67-8.19,2.18-.34,2.72-1,6.78.41,8.05,2.68,2.38,7.13,2.63,10.19,4.72,4.11,2.8,7.26,7.09,11.51,9.53C785.53,888.71,789.09,886.49,792.11,885.65Zm-245-90.58c-4,0-8.09-.09-12.13.08-.79,0-2.23,1.2-2.17,1.69a12.53,12.53,0,0,0,1.58,4.28,8.64,8.64,0,0,0,2.11,2.16c5.41,4.66,18.8,6,24.63,2,1.13-.77,1.39-3.69,1.06-5.42s-1.73-4.41-3-4.6C555.29,794.7,551.19,795.07,547.14,795.07Zm399.28-29.32c.6-10.29.43-10.48-7.45-14.09a14,14,0,0,1-4.71-3.06c-2.37-2.66-4.61-3.07-6.19.24-.78,1.64-1,4.7,0,5.82,3.28,3.71,7.17,6.69,6.47,12.63-.08.7,5,3,7.36,2.68C943.93,769.69,945.55,766.64,946.42,765.75ZM465.31,888a27.82,27.82,0,0,1,3.74,0c3.57.59,5.7-1.31,6.46-4.36.43-1.74.27-4.29-.75-5.6a44.3,44.3,0,0,0-8.54-8.49c-1.3-1-4.37-.91-5.84,0-5.37,3.24-3.35,8.88-3.18,13.53C457.4,888.68,462,888.23,465.31,888ZM234,410.89c0-7.16.06-14.31-.09-21.46,0-.76-1.47-2.22-1.91-2.1-1.48.42-4,1.37-4,2.16-.24,14.31-.21,28.62-.09,42.93,0,.75,1.47,2.21,1.91,2.09,1.49-.41,4-1.34,4-2.16C234.12,425.21,234,418.05,234,410.89Zm148.93,18.62c-3,0-6.05-.12-9.06.08-.79.06-2.22,1.23-2.15,1.72a11.81,11.81,0,0,0,1.61,4.27c3.56,5.94,9.09,7.05,15.5,6.38,4.58-.48,7.21-3.29,6.22-7.68-.69-3.09-2.23-5.36-6.08-4.82A43.44,43.44,0,0,1,382.92,429.51ZM534,472.88c-3,0-6.06.2-9.06-.05-3.78-.31-5.34,1.79-6,5-.86,4.53,1.58,6.94,6.39,7.55,6.55.82,11.74-1,15.44-6.52a9.53,9.53,0,0,0,1.41-4.25c0-.5-1.37-1.52-2.2-1.62A50.48,50.48,0,0,0,534,472.88ZM958.92,679.06a29.78,29.78,0,0,0,0-3c-.34-3.44-6.14-6.77-8.81-4.85-2.37,1.7-4.28,4.06-6.53,5.95-2.57,2.16-3.19,4-.17,6.42,2.32,1.83,4.11,4.37,6.49,6.08,3.22,2.31,8.62-.56,9-4.63C959.07,683.06,958.92,681.05,958.92,679.06Zm86.74,94.32a43.28,43.28,0,0,0-.09-6c-.12-.8-1.16-1.63-2-2.13a2.86,2.86,0,0,0-2,0c-1.52,6.51-6.8,11.28-8.25,17.74-.83,3.69,1.73,5.88,4.84,5.75,2.54-.11,6.64-1.57,7.15-3.3C1046.42,781.67,1045.66,777.41,1045.66,773.38ZM277.59,646.18c-2,.37-3,.34-3.84.79a11.43,11.43,0,0,0-2.22,2.13c5.82,5.28,11.51,10.72,17.59,15.69.83.68,3.58-.81,5.33-1.55a2.67,2.67,0,0,0,.72-2C288.82,656.44,285.47,647.92,277.59,646.18ZM704.93,782.72c1.77-.74,3.51-1.37,5.12-2.23.26-.14.16-1.43-.12-2-4.25-8.62-15.51-7-20.77-14.16-.95,1.59-2.44,3.1-2.72,4.8s.27,5,1.1,5.23C693.91,776.08,698.63,781.11,704.93,782.72ZM422.44,590.6a48.81,48.81,0,0,0,6.5-.09c.8-.11,2.16-1.35,2.06-1.85-.3-1.48-1.44-4.13-1.8-4.06-5.95,1.2-8.69-3.32-12.63-6.11-1.5-1.06-5.24,1-8,1.69.65,1.41,1,3.08,2,4.18C413.9,588,416.94,592.33,422.44,590.6Zm505.5,260.25c-.52-1.06-1.72-3.55-2.92-6-2.13,2-4.37,3.9-6.34,6-1.25,1.37-2.64,3-3,4.72a7.32,7.32,0,0,0,1,5.43c1,1.26,3.22,1.74,5,2.16,3.69.85,5.43-1.52,6.14-4.57C928.29,856.71,927.94,854.62,927.94,850.85ZM320.73,420.06a88.25,88.25,0,0,1-.06,9.06c-.38,3.59,1.35,5.7,4.4,6.46a7.79,7.79,0,0,0,5.63-.73c4.7-3.19-.31-4.72-1.73-6.21-4.2-4.43-.77-9.69-2.19-14.27-.35-1.13-2.49-1.89-3.95-2.36-.44-.14-1.88,1.22-2,2A40.38,40.38,0,0,0,320.73,420.06ZM471.34,273.42c.7.09,1.86.49,2,.24,2.62-3.92,8.79-5.32,8.38-11.3-.12-1.75-1.1-3.48-1.91-5.11a2.25,2.25,0,0,0-1.95-.27c-2.62,3.92-8.79,5.31-8.38,11.3C469.63,270,470.7,271.71,471.34,273.42Zm190.18,365c-1-1-2.64-3.65-4.82-4.26-4.71-1.31-7.3,1.4-7.66,6.07-.31,3.86,1.75,5.48,4.85,6.07C658.72,647.21,661.49,644.8,661.52,638.43ZM443.1,1011.92l-4.64,3.11c4.52,3.28,6.7,10.26,13.92,9.18,1.67-.25,3.12-2,4.66-3C452.35,1018.19,450.59,1010.77,443.1,1011.92Zm-2.9-223c1-1,3.65-2.64,4.26-4.82,1.31-4.7-1.4-7.29-6.07-7.66-3.86-.3-5.49,1.75-6.07,4.86C431.41,786.09,433.83,788.86,440.2,788.88Zm546.75-62a40.38,40.38,0,0,0,6-.1c.8-.12,2.16-1.56,2-2-.46-1.46-1.38-3.81-2.33-3.92a75.85,75.85,0,0,0-12.06-.08c-.75,0-2.15,1.55-2,2,.46,1.47,1.21,3.5,2.37,3.93C982.74,727.4,984.94,726.92,987,726.92ZM695.54,274.66c1.74-1.74,3.11-2.54,3-3.13-.38-2.75-.35-6.36-2.05-7.87s-5.19-.7-7.89-.58c-.73,0-2,1.88-2,1.92C689.51,268.27,692.52,271.44,695.54,274.66ZM928.69,556.53c-1-2.9-1.83-5.58-2.87-8.2a2.36,2.36,0,0,0-2,0c-2.93,3.33-2.93,13,0,16.35a2.35,2.35,0,0,0,2,0C926.86,562.1,927.71,559.42,928.69,556.53Zm-182-331.7c2.65-.29,5.16-1.85,7.72-2.89-2.56-1-5.07-2.59-7.72-2.88-1.43-.16-3.11,1.85-4.67,2.88C743.62,223,745.3,225,746.73,224.83ZM722.49,507.94c0-.7.16-1.6-.2-2.08-2.3-3.11-8.46-3-10.18.14a2.34,2.34,0,0,0,.14,2.06C714.56,511.17,720.67,511.05,722.49,507.94ZM472.2,488.37c-5.2-1.54-7.81-2.83-10.46-2.9-1.54,0-3.13,1.87-4.7,2.9,1.57,1,3.16,2.95,4.7,2.9C464.4,491.2,467,489.91,472.2,488.37Zm-330.66,3.86c-1.06-2.07-2.33-4.51-3.59-7-1,2.57-2.59,5.07-2.88,7.72-.16,1.43,1.85,3.11,2.88,4.67C139,496.1,140,494.53,141.54,492.23ZM443.67,462.6c-1.82-3.1-7.93-3.22-10.23-.11a2.28,2.28,0,0,0-.15,2.05c1.72,3.16,7.88,3.25,10.19.15C443.83,464.21,443.62,463.31,443.67,462.6Zm130.11-29c0-.71.17-1.61-.19-2.08-2.31-3.11-8.46-3-10.18.14a2.34,2.34,0,0,0,.14,2.06C565.86,436.81,572,436.7,573.78,433.59Zm168.7,280.05c-1.32-1.27-3.41-4.36-4.41-4-3.35,1-3.32,7.64-.21,9.94.48.36,1.87.41,2,.15C740.73,718.08,741.36,716.33,742.48,713.64ZM679.34,943.28l-5.44,3.59c1.57,1,3.24,3,4.68,2.89,2.64-.29,5.15-1.86,7.71-2.89Zm-24,17.58-3.1-4.69c-1,1.56-3.05,3.24-2.89,4.67.29,2.65,1.85,5.15,2.89,7.72C653.25,966,654.28,963.43,655.32,960.86ZM528,1015c-5.2-1.54-7.81-2.83-10.46-2.91-1.54,0-3.13,1.87-4.69,2.91,1.56,1,3.16,2.94,4.69,2.9C520.16,1017.85,522.78,1016.56,528,1015ZM332.23,958.37l-2.2-2.2a19,19,0,0,0-1.94,4.15c-.11.51,1.25,1.35,1.94,2ZM433.15,923l2.21,2.21A19.8,19.8,0,0,0,437.3,921c.11-.51-1.25-1.35-1.94-2ZM623.44,908.8l-2.2-2.2a18.88,18.88,0,0,0-1.94,4.16c-.11.51,1.25,1.35,1.94,2Zm-163.3-14.59c-.69.68-2.05,1.52-1.94,2a19.34,19.34,0,0,0,1.94,4.16c.69-.69,2.05-1.52,1.94-2A18.88,18.88,0,0,0,460.14,894.21Zm279.71-85.85-4,2.2c.69.69,1.53,2.05,2,1.94a19.57,19.57,0,0,0,4.16-1.94Zm-286.8-94.73,4-2.2c-.68-.69-1.52-2.06-2-1.94a18.88,18.88,0,0,0-4.16,1.94Zm251.83-89c-.69-.69-1.52-2-2-1.94a19.34,19.34,0,0,0-4.16,1.94c.68.69,1.52,2.05,2,1.94A18.88,18.88,0,0,0,704.88,624.68ZM586.27,611.4l-2.21-2.21a19.57,19.57,0,0,0-1.94,4.16c-.11.51,1.25,1.35,1.94,2C584.8,614,585.55,612.7,586.27,611.4ZM657.52,480l-2.21,2.2a19.31,19.31,0,0,0,4.16,1.94c.51.12,1.35-1.25,2-1.94Zm-88.06-34.08,2.21,2.21a19.57,19.57,0,0,0,1.94-4.16c.11-.51-1.25-1.35-1.94-2C570.93,443.25,570.18,444.59,569.46,445.89Zm439-38.07c-.68-.69-1.52-2.05-2-1.93a18.84,18.84,0,0,0-4.16,1.93c.69.69,1.53,2.05,2,1.94A19,19,0,0,0,1008.48,407.82ZM995.2,388.34l-2.21-2.2a19.3,19.3,0,0,0-1.93,4.16c-.12.51,1.25,1.35,1.93,2C993.74,391,994.48,389.64,995.2,388.34Z"/><path d="M776.61,968.56c-8.5,8.28-13.11,14.05-19,17.94-2.84,1.88-7.58,1-10.42,4.57a6.74,6.74,0,0,1-5.13,2.12c-3.84-.34-8.18,2-11.49-2-2.3-2.8-.29-9.44,4.66-12.66,5.6-3.64,11.24-7.85,17.49-9.68C758.32,967.27,764.74,968.56,776.61,968.56Z"/><path d="M785.43,965.13c-1.22,1-3.07,3-3.57,2.68-3.73-2.18-1.18-3.94.85-5.38a2.7,2.7,0,0,1,2.62,0C785.79,962.92,785.43,964.2,785.43,965.13Z"/><path d="M884.57,397.28c-.1,1.64-.4,9.71-1.25,17.74-.09.86-3.31,2-5.07,1.94a7.08,7.08,0,0,1-5.06-2.21c-1-1.39-.68-3.76-1-5.68-1-5.62,2.76-9,5.05-13.37,1.29-2.45-5.22-6.5-5.42-12.27-.3-8.49,9.59-13.3,6.58-22.08,1,0,2.51-.43,3,.09,1.3,1.37,3,3.12,3.06,4.77C884.73,374.41,884.57,382.63,884.57,397.28Z"/><path d="M816.76,412.92c-.49,2.69-.64,5.72-1.64,8.44-1,2.56-2.22,1.59-4.37-.36-5-4.52-8.58-8.29-.66-13.42.93-.61.49-4,0-5.95-.72-3.15.12-4.22,3.14-3a3.6,3.6,0,0,1,2.12,2.12C816,404.65,816.31,408.64,816.76,412.92Z"/><path d="M838.23,361.49a11.8,11.8,0,0,1,2.16,2.22c2,3.55.79,8.65-2.58,9.92a8.11,8.11,0,0,1-5.84,0c-3.34-1.71-2.57-4,0-6.2C834.18,365.56,836.16,363.47,838.23,361.49Z"/><path d="M574.77,652.56q.22,6.44-6.2,6.2Q568.33,652.33,574.77,652.56Z"/><path d="M581,646.37q.24,6.43-6.19,6.19Q574.53,646.14,581,646.37Z"/><path d="M773,634.49c0-3.1-1-6.74.24-9.16a26,26,0,0,1,8.35-8.72c.76-.52,4.27,2.73,6.33,4.47s4.08,3.36.88,6.66c-4,4.14-10.58,6.84-9.79,14.53.11,1.05-2.25,2.35-3.47,3.54-.85-1.71-2.05-3.35-2.45-5.16C772.71,638.68,773,636.55,773,634.49Z"/><path d="M619.17,400.35a41.12,41.12,0,0,1-4.25,4.3c-.64.48-2.84.15-2.85.07a25.63,25.63,0,0,1-.08-6.06c1.43-8.87,10.38-11.67,14.92-18.07.09-.12,1.78.41,2,.93.73,1.73,2.13,4.25,1.46,5.29-3.19,4.9-7,9.42-10.55,14.07Z"/><path d="M605.75,410.92q.22,6.43-6.2,6.2Q599.31,410.68,605.75,410.92Z"/><path d="M605.75,410.92q-.24-6.44,6.19-6.19Q612.18,411.15,605.75,410.92Z"/><path d="M661.51,907.56q-1.28,2.36-2.57,4.7c-1.21-2-3.29-4-3.36-6.1-.05-1.73-3.14-6.49,2.59-5.58,1.3.21,2.4,2.58,3.27,4.13C661.85,905.45,661.51,906.6,661.51,907.56Z"/><path d="M642.92,850.83q-.23-6.42,6.2-6.19Q649.36,851.08,642.92,850.83Z"/><path d="M807.12,687c1.53,5.18,2.82,7.8,2.9,10.46,0,1.53-1.87,3.12-2.9,4.69-1-1.57-3-3.16-2.91-4.69C804.29,694.79,805.57,692.18,807.12,687Z"/><path d="M791.12,699.54c-.72.72-1.73,2-2,1.91a12.32,12.32,0,0,1-3.65-2.82,2.6,2.6,0,0,1,0-2.59,2.64,2.64,0,0,1,2.6,0A22.22,22.22,0,0,1,791.12,699.54Z"/><path d="M810.21,292.66c1.46-1.5-3-6.44,2.91-5.47,1.3.21,3,2.71,3.13,4.27a65.51,65.51,0,0,1-.44,11.53c-.07.76-1.79,2.08-1.91,2-1.33-1-3.28-2-3.52-3.3C809.85,298.84,810.21,295.83,810.21,292.66Z"/><path d="M804,274.61c2.06,1.34,5.11,2.23,5.94,4.12,1,2.33.25,5.48.25,8.27-2.06-1.33-5.11-2.23-5.94-4.11C803.23,280.55,804,277.41,804,274.61Z"/><path d="M801.25,274.61c-1-1.22-3-3.07-2.69-3.57,2.19-3.73,4-1.18,5.39.86a2.71,2.71,0,0,1,0,2.61C803.46,275,802.18,274.61,801.25,274.61Z"/><path d="M692.49,547.23c5.14,0,10.28-.08,15.41.1.76,0,1.65,1.21,2.14,2.07a2.24,2.24,0,0,1-.21,2.09q-6.44,6.64-13.08,13.08a2.26,2.26,0,0,1-2.1.21c-.85-.48-2-1.38-2.06-2.14C692.4,557.51,692.49,552.37,692.49,547.23Z"/></svg>