<svg id="Layer_1" data-name="Layer 1" xmlns="http://www.w3.org/2000/svg" viewBox="0 0 1200 1200"><title>BB_Artboard 35</title><path d="M700.51,663.05c.62,7.73-7.08,4-9.5,7-1.45,1.8-2.32,5.67-1.33,7.36s4.61,2.45,7.12,2.57c1.36.07,2.86-2,4.25-3.19.72-.61,1.39-1.94,2-1.89,2.59.21,5.14.81,7.7,1.27-.56,1.33-.73,3.15-1.72,3.93-7.42,5.86-11.52,14.21-13.86,22.62-2.64,9.48-4.95,3.65-8.21,1.27-.4-.29-3.3,1.4-3.42,2.37-2.16,18.43-1.78,18.8-12.55,28.79a57.45,57.45,0,0,0-15.78,24.71c-1.49,4.59-3.19,5.86-7.33,5.95a97.45,97.45,0,0,0-13.79,1c-.91.15-1.37,3-2,6,.88-1.33,0-2.28-2.64-1.28a3.48,3.48,0,0,0-1.89,1.72c-.58,1.53-1.26,3.27-1,4.8s1.45,2.91,2.24,4.35c1.11-1,2.77-1.77,3.2-3,.56-1.57.14-3.49.14-6.59a7.8,7.8,0,0,1,5.61-1.3c4.43.45,7.4,4.1,5.74,7-3.43,6.1-7,12.13-10.86,18-1.51,2.29-5.7,4.14-5.58,6,.74,10.91-6.78,8.55-12.93,9-3.53.23-6,4.76-4.8,8,3,8.2,3.63,9-.34,11.84-5.1,3.6-4,10.1-7.85,13.67-3.1,2.85-2.1,7.09-4.08,9.51s-7.62,1.94-9,4.31c-3.5,5.88-5.34,12.73-8.26,19-.54,1.15-3.06,1.37-5.93,2-.43,0,.75.33,1.18-.09a2.51,2.51,0,0,0,0-2.41c-1.33-1.87-3-4.22-5-.78-.27.45,1.6,2.16,3.75,3.28.5,3.51,2.84,7.34-.67,10.65-4.6,4.33-10.23,8.09-10.48,15.68,0,.81-4.9,1.18-7.24,2.33-1.07.52-2.37,3.12-2,3.61,1.95,2.62,5.88,4.11,1.31,8.31-3.88,3.58-10,6.39-8.18,13.62-3.8,2.06-8.68,3.31-11.06,6.45-1.84,2.44-.46,7.25-.77,11,0,.72-1.14,1.53-1.94,2-9.38,5.43-8.76,18.38-18,24-1.27.77-2.63,3.36-2.25,4.57,2.36,7.45-4.81,11.5-5.87,21.89v-4.26c-1.61.67-3.57,1-4.79,2.06-7.05,6.37-6.86,9.24.93,13.83.7.41,3.32-.8,3.69-1.78.63-1.65.17-3.71.17-9.85,5.85-3.45,10.89-4.63,14.42-9.9.28-.43,1.77-.06,2.7-.06v14.21c-7,4.09-4.85,11.24-6.31,17.34-.75,3.14-4.62,7-7.78,7.79-5.82,1.5-12.29.93-3.82,8.36-6.68,6.54-2.66,15.79-5.5,22.64-2.57,6.16-10.15,10.24-15.52,15.23-5.09-2.37-7.86,7.85-10.79,3.81-5.43-7.51-15.46.43-19.92-7.67-1.31-2.39-3.94-4.05-5.91-6.09-5.06-5.25-7.08-11.71-2.25-17.06,4-4.41,2.69-10.35,7.29-14.46,2.59-2.31.11-10.07,2.67-12.67,4.58-4.67,3.68-10,5.47-15,3.56-9.83,9.18-18.94,14.3-28.16,3-5.43,3.9-12.2,9.94-15.81,3.63-2.17,4.17-5.69,4-9.73-.07-2.53.47-6.43,2.12-7.42,8.58-5.14,8.5-16,15.75-22.2,6.1-5.21,8.05-13.43,10.71-21,2.09-5.95,9.81-7.9,11.5-15.17a44.16,44.16,0,0,1,8.25-16.36c3.89-5,8.09-9.22,10.24-15.76,1.84-5.61,10.82-7.71,9.74-15.82,6-7.94,15.11-12.81,18.49-23.66,2.56-8.21,15.59-10.67,15.74-21.85,6.83-5.07,5.58-15.5,13.69-20.13,2.4-1.37,2-7.1,4.36-9.21,3.79-3.41,3.8-8.11,6-11.8,2.39-3.93,6.46-6.85,9.84-10.17s5.89-6.23,6.56-11.66c.46-3.71,8-6.25,9.1-10.23,2.15-7.72,7-12.89,12.56-17.48,4.61-3.83,5.27-9.31,8.07-13.78,4.27-6.83,6.16-15.88,14-19.67,7.16-3.46,4-14.37,12.78-15.92,1.23,1.9,2.06,4.7,3.79,5.47C695,663.78,697.94,663.05,700.51,663.05ZM487.05,1034.33a20.55,20.55,0,0,0-3.25,2.75,1.71,1.71,0,0,0,2.42,2.42,11.58,11.58,0,0,0,2.59-3.37c.11-.21-1.1-1.14-5.08,6,0-.85.33-2-.09-2.45a2.51,2.51,0,0,0-2.41,0c-1.87,1.32-4.22,2.95-.78,5C480.9,1044.85,482.61,1043,487.05,1034.33Zm8.1-13.26q-1.44-2.16-2.86-4.32c-1,1.44-2.8,3-2.66,4.3.27,2.44,1.71,4.75,2.66,7.11ZM692,685.87c-.64.63-1.89,1.41-1.79,1.88a17.42,17.42,0,0,0,1.79,3.82c.63-.63,1.89-1.4,1.78-1.87A18.14,18.14,0,0,0,692,685.87Zm-26.5,37.9-2-3.67c-.63.63-1.88,1.4-1.78,1.87a17.69,17.69,0,0,0,1.78,3.83C664.07,725.17,664.7,724.54,665.46,723.77Z"/><path d="M396.89,577.48c1.9,9.75-4.13,16.79-8.86,24.27-2.37,3.76-8.11,5.63-6.92,11.35,1.43,6.79-2.92,10.44-7.12,14.15-3,2.63-4.22,5.46-4.56,9.6-.65,8.08-1.12,8.16-9.49,9-3.82.4-7.38.07-7.5,5.7-.33,16-.55,16-11.27,38-2.3,4.72-3.51,10-5.86,14.65-2.46,4.9-5.47,9.56-11.91,10.18-7.5.72-3.8,15-14.41,12.12-4.26,3.89-1.84,8.94-1.93,13.37-.11,5.4-.65,9.34-7.39,8.76a4,4,0,0,0-2.38,1c-.71.54-1.82,1.46-1.73,2,1.42,9.42-9.44,11-11.38,18.11-.72,2.65.2,5.71-.2,8.5-.42,3-2.09,4.68-5.67,4.57-5.28-.16-6.75,2.19-2.38,5.91,3.65,3.1.49,4.58-1.2,6-2.19,1.9-3.81,7.12-8.07,2.09-.77-.91-3.71-1.43-3.78-1.26-2.59,5.56-5.38,11.1-7.17,16.94-1,3.35,1,8-3.14,9.93-2.36,1.08-5.63,0-8.46.23-5.5.44-7.58,4.42-4.34,9.6,1.84,3,6.12,5.49.75,8-7.91,3.71-5.88,13.66-12.08,17.82-5.89,4-5.95,11.08-10.06,15.82-.4.47-1.82.07-4,.07-.43,0,.75.33,1.17-.09a2.51,2.51,0,0,0,0-2.41c-1.33-1.88-3-4.22-5-.79-.27.46,1.59,2.16,3.74,3.29,1.28,1,1.68,2.25,1.21,2.79-3.63,4.23-10.91,2.41-13.68,8.12-3.08,6.33-7.7,12.46-8.66,19.11-1.22,8.48-3.64,14.08-12.54,15.69-1.65.3-3.08,1.68-4.67,2.44-2.38,1.12-6.32,3.63-7,3-5.73-5.75-13.24-5.2-20.17-6.74a2.72,2.72,0,0,1-1.6-2.08c.41-8.12-2.65-17.43,6.36-22.92,5.42-3.3,3.77-10.1,8-13.9s9.24-7.39,11.87-12.19c4.23-7.7,6.62-16.52,12.45-23.27,5.58-6.45,12-12.15,18-18.28.5-.51,0-1.87.38-2.66,1.81-4,4.75-7.78,5.42-12,.9-5.55,5.6-7.28,8.45-10.78,3-3.66,6.63-6.78,10-10.14s8.64-6.26,9.59-10.2a22.75,22.75,0,0,1,6.38-11.73c.47-.47-.13-1.88.09-2.78,2.38-9.77,13.2-12.76,17.15-21.39,3.68-8.06,5.85-16.88,13-23.17,5.45-4.76,4.94-13.54,12-17.92,5.35-3.29,4.17-11.65,10.1-15.73,6.1-4.2,7.4-12.16,9.94-18.55,1.94-4.87,5.35-7.52,8.45-10.68s3.43-6.2,3.55-10.06c.09-2.53.76-6,2.49-7.35,6-4.8,7.84-12.28,12.31-17.68,4.18-5.05,7-10.34,9.89-16,3.23-6.27,6.21-12.65,9.34-19,2.53-5.1,5.35-9.58,11.47-10.67.63,1.58,1,4.31,1.93,4.52,3.41.78,4-1.75,7.07-7.37,2.41-2.86,1.35-3.17.68-2.79-1.43.8-3.62,1.81-3.81,3-.83,5.27,3.54,2.43,5.14,2.38,1.9-.06,3.75-2,5.62-3.09-1.44-.79-2.89-1.58-7.63.48-5.2,2.86-7.1,2.86-9,2.86,0-2.82-1.09-7.37.19-8.17,6.09-3.85,4.53-11.7,9.58-16.08,6.28-5.46,11.22-12.27,21.36-10.18,5.42,1.12,11.27,0,16.88.38,1.2.09,3.06,2.41,3.18,3.83a88.37,88.37,0,0,1,0,14.09c-.11,1.57-2,4.45-2.5,4.34-10.66-2.61-6.81,8.93-11.7,11.73-.71.41-1.85.06-4.06.06-.43,0,.75.33,1.18-.09a2.51,2.51,0,0,0,0-2.41c-1.32-1.88-3-4.22-5-.79C392.87,574.65,394.74,576.35,396.89,577.48ZM384.72,584l-3.67,2c.63.63,1.4,1.88,1.87,1.78a18.14,18.14,0,0,0,3.83-1.78Z"/><path d="M643.47,566.07c-.57,4.81,2.56,11.25-6.78,11.61-6.37.25-4,3.67-1,6.35.69.6,1.3,1.29,2,1.94-1.38,1-3.11,3-4.1,2.73-4.85-1.49-9.43-3.85-14.28-5.33-1.07-.33-2.85,1.67-4.3,2.6.61.65,1.2,1.31,1.81,1.94a38,38,0,0,1,3.75,4c.44.61.08,1.79.08,2.7-4.46,0-8.72-.65-12.42,3.61-5.47,6.3-5.82,6.1-1.86,13.55,1.19,2.24,2.7,4.74,2.66,7.1,0,2.76-2,4.91-6.77,4.27-.42,0,.76.33,1.18-.1a2.49,2.49,0,0,0,0-2.4c-1.32-1.88-3-4.22-5-.79-.26.46,1.6,2.16,3.75,3.29-4.17,9.81-7.54,20.75-14.36,29.79-4.2,5.56-5,5.65-13.35.83-2-1.18-2.63-2.36-4.08-.45-2.67,3.48-6.59,5.57-7.16,11.09-.74,7.18-4,2.62-6.61.47a10.3,10.3,0,0,0-4.82-1.74c-3.4-.53-5.42,1.64-5.21,4.57.17,2.32,1.81,6.34,3.12,6.47,6.45.68,13,.31,19.51.31-.75,3.49,2.16,9.47-2,10.2C552.58,687.23,551,699.84,546.7,710c-3.59,8.56-7.61,20.37-13.24,25.63-4.75,4.44-3.18,15-13.55,14.2-.46,0-1.91,4.82-1.83,7.36.22,6.66.53,13.12-5.82,17.51,2.31,6.53-6.64,8.6-5.75,14.67.7,4.81.08,9.33-4.51,12.3.21,9.27-4,17.5-8.33,24.87-4.5,7.62-7.57,16.59-15.45,22.23-1.34,1-.19,5.41-.19,8.24-.93,0-2.43-.36-2.68.06-2.73,4.37-5.4,8.78-7.69,13.39-.35.71,1.16,3.33,2.09,3.5,2.68.48,5.51.17,8.28.17,0,6.63.17,13.26-.09,19.88-.1,2.59-.37,6.52-2,7.49-8.56,5.15-8.08,16.46-15.86,22-6.82,4.9-5.83,15.6-14.08,19.7-4.35,2.17.26,10.32-6.41,10.61-7,.31-13.74,12.85-21,.59l-6,5.11c-3-8.12-10.35-14.73-8.69-24.52,9.31-5.26,1.68-18.6,11.29-23.72-3.28-7.56,9.14-9.75,5.88-17.49-2.72-6.46,5.27-8.83,6-14.61s7.44-10.42,5.34-17.56c6.39-12.49,14-24.38,18.76-37.67,5.47-2.13,2.1-9.22,6.1-11.56,4.91-2.87,1.93-9,5.93-11.84,4.81-3.36,2.72-8.39,3.62-12.76.5-2.42,2.53-4.79,4.42-6.61,7.44-7.19,11.2-16,12.5-26.1.12-.93-.32-2.07.07-2.81,2.08-3.86,5.79-6.34,6.15-11.83.24-3.63,6.72-6.27,5.24-11.86,14.62-11.78,17.1-31.08,27.84-45.34,1.86-2.48,1.42-6.56,4-9.69,4.65-5.57,11.24-9,14.21-16.77,2.47-6.48,9.5-11.1,14-17,2.61-3.45,3.76-8,6.23-11.56,2.12-3,7.43-5.44,7.44-8.14,0-8.11,6.27-11.18,10.59-15.62,19.44-19.94,19.44-20.08,46.15-32.49,3.67-1.71,5.82-2.22,6.68-6.7.94-5,1.72-4.71,6.34-1.33C640,565,641.85,565.4,643.47,566.07Zm-51.34,61.37-2.86-4.32c-.95,1.44-2.8,3-2.66,4.3.27,2.44,1.71,4.75,2.66,7.11ZM575,643.08c-.63-.63-1.41-1.88-1.88-1.78a18.14,18.14,0,0,0-3.83,1.78c.64.64,1.41,1.89,1.88,1.79A17.7,17.7,0,0,0,575,643.08Zm-29.35,52.17c-.66-1.2-1.34-2.44-2-3.68-.63.64-1.89,1.41-1.78,1.88a18.14,18.14,0,0,0,1.78,3.83Zm-7.73,13.44c-.64.63-1.89,1.41-1.79,1.87a17.28,17.28,0,0,0,1.79,3.83c.63-.63,1.89-1.4,1.78-1.87A18.14,18.14,0,0,0,537.93,708.69Z"/><path d="M523.67,583.18c0-4.66.18-9.33-.17-14-.07-.84-2.79-2.43-3.51-2.08-2.35,1.15-4.19,4.08-6.51,4.43-5.93.88-9.34,1.86-2.79,7.17,1.75,1.42,1.31,2.36-.76,4a61.42,61.42,0,0,0-7.92,7.88c-3,3.57-1.31,8,4.41,9.4,3.05.73,5.26,1.55,5.76,4.41,1.23,7.13-3.67,17.27-11.33,24.35.14-4-1.76-5.85-7-5.7-.42,0,.76.33,1.18-.1a2.49,2.49,0,0,0,0-2.4c-1.32-1.88-2.95-4.22-5-.79-.27.46,1.6,2.16,3.75,3.29,1.13,4,3,5.85,7,5.7,0,4.74,2,11.29-.37,13.89-8,8.87-8.11,22.15-17.66,29.85-2.92,2.36-5.13,5-4.93,9.38s.87,10.22-1.42,13.47c-4.17,5.94-6.7,12.59-9.43,19-1.6,3.75-3.92,6.18-6.39,8.68-3.39,3.43-6.37,6.59-5.51,12,1.09,6.82-.49,12.5-6.3,17.36-6.31,5.28-13.86,10.64-10.75,21-5.8,7.88-8.85,17.26-13.74,25.54-3.65,6.17-11.19,9.77-9.48,19.12.44,2.37-3.66,6.14-6.4,8.41-4.11,3.41-4.76,7.46-4.7,12.38.09,8-3,7.07-7.38,2.33-.34-.38-2.91.58-3.83,1.52-5.59,5.75-12.52,2.12-18.78,2.64-2.75.23-3.28-3.06-4.38-5.74-6.79-16.48-6.78-16.31-1.1-35.72,1.51-5.2.89-11,1.35-16.53.42-5,4.78-6,10.52-2.62,1.81,1.08,5.45,5.67,5.51,1.47.14-10,10.52-12.21,12.81-20.54s7.13-16,11.12-23.78Q415,731.35,421,721.07c4-6.86,4.88-15.39,11.34-20.9-1.17-8.13,7.05-10.39,9.79-15.87,2.37-4.72,5.32-9.35,7-14.13,1.7-5,.22-10.42,4.94-15.25,2.59-2.66,2.19-8.59,6.39-11.37-.88-6.66,4-10,8.1-13.65,3.16-2.8,4.47-5.86,3.76-9.87-.74-4.17,1-7.13,4.15-9.69,2.2-1.78,5.85-4.05,5.78-6-.46-11.26,9.59-17.37,12.25-26.26,2.52-8.43,13.44-10.25,12.57-20.69-.4-4.75,11.72.09,11-9a100.16,100.16,0,0,1,.34-14.06c.05-.71,1.76-2,1.85-1.92,1.23.95,2.79,1.9,3.35,3.24,3.33,7.94,3.25,8,11.2,7.57,5.53-.28,7.68-4.3,5-9.5-1.28-2.5-2.47-2.26-4.09.16-.9,1.34-2.6,2.15-3.94,3.2-.81-1.56-2.32-3.14-2.28-4.69.09-3.58-.35-8.4,1.7-10.47,4.65-4.7,3.16-12.81,9.78-16,4-1.92,8.08-3.63,11.65-6.12,3.07-2.13,5.08-5.9,8.26-7.68,2.17-1.21,5.56-.23,8.4-.23,2.63,6.16,7.13,11.21,6.07,19.18s-4,13-11.77,15.05a90.47,90.47,0,0,1,1.66-19.74c.56-1.72-.71-.95-1.59.14a2.45,2.45,0,0,0,0,2.39,2.42,2.42,0,0,0,2.39,0,11.44,11.44,0,0,0,2.6-3.36c.11-.21-1.1-1.15-3.42.81-3.26,3.27-6.21,3.85-6.25,4.57-.4,8.39-5,10.75-13.8,9.46-.42,0,.76.33,1.18-.09a2.48,2.48,0,0,0,0-2.41c-1.32-1.87-2.95-4.22-5-.79-.26.46,1.6,2.17,3.75,3.29.64,3.22,2.64,5.25,5.19,5.56,4.34.53,8.79.15,13.2.15,1.36,8.61-3,14.28-10.44,16.85-3.78,1.3-5.56,2-7,6.3-2.68,8.15-7.27,15.67-11.09,23.45C532.63,577.69,529.77,582.21,523.67,583.18Zm-43.61,52.17-2,2a17.69,17.69,0,0,0,3.83,1.78c.47.11,1.24-1.15,1.87-1.78ZM482.91,661c-.66-1.19-1.35-2.43-2-3.67-.63.63-1.89,1.4-1.78,1.87a18.14,18.14,0,0,0,1.78,3.83Zm-19.14,13.44c-.64.63-1.89,1.41-1.79,1.88a17.7,17.7,0,0,0,1.79,3.83c.63-.64,1.88-1.41,1.78-1.88A18.14,18.14,0,0,0,463.77,674.46Z"/><path d="M862.87,539.2c4.76-15.94,9.77-31.75,23.43-42,.75-.56,2-1.43,1.92-2-1.62-10.18,10.59-12,12.21-20.61,1.52-8.15,7.37-12.42,16.29-11.29,2.8.35,5.85.65,8.47-.11,2.85-.83,4-3.07.79-5.43-4.7-3.45-2.75-8.53-2.81-13,0-1.41,2-4.11,2.9-4.05,4.19.31,6.7-1.81,9.79-4.19,4.1-3.16,5,3.17,8.15,4.18,5.79,1.82,10.35,9.92,7.19,13.61-4,4.7-6.43,9.07-5.31,14.95,1.22,6.41-2.23,10.17-6,14.66-4.51,5.33-8.9,11.57-10.69,18.14-1.41,5.15-4.35,8.13-7.63,11-9.49,8.41-10,8.23-9.86,15.32.07,3.92-.38,7.17-3.66,9.92a82.55,82.55,0,0,0-10,10c-1.64,1.95-3.6,4.83-3.29,7,.91,6.33-4.66,10-5.46,14.79-1.1,6.64-6.11,9-9.38,13.26-7.57,9.78-14.35,15.15-20.92,16.81-10,2.51-10,2.51-10.11,11.43,0,1.9,0,3.79,0,5.68-1.58.63-4.31,1-4.52,1.93-.78,3.41,1.75,4,4.52,3.78-.53,4.88,2.55,11.75-6.93,11.53-2.85-.07-5.18,2-4.44,5.39,1.61,7.43-2.37,12.17-7.62,16.29-3,2.38-9.3-.85-9.82,6.59-.28,4-3.52,7.7-5.42,11.54-4-.14-5.85,1.76-5.7,7,.88-1.32,0-2.28-2.64-1.28a3.48,3.48,0,0,0-1.89,1.72c-.58,1.54-1.26,3.27-1,4.81s1.45,2.9,2.24,4.35c1.11-1,2.76-1.78,3.2-3,.56-1.58.14-3.5.14-6.6,1.9-1.32,3.8-1.32,5.7-1.32-.28,7.17,2.2,15.11-5.65,20.24-.43.28-.18,1.81,0,2.73,1.33,8.7-3.27,13.69-10.59,17-5.55,2.47-11.14,4.84-16.65,7.37a2,2,0,0,0-.5,1.89c.4.79,1.43,2,1.89,1.92,7.95-2.07,13.75,2.89,20.13,5.94-.17,11-.43,10.91-5.51,23.31-1.18,2.88-1.94,5.33-5.1,5.13-7.13-.47-15.37,2.86-20.5-5.35-10.36.61-13-9.58-19.77-14.07.35-7.13-3.64-15.36,3.18-21,7.36-6,7.77-16.71,15.91-22,1.41-.92,3-2.77,3.13-4.29.54-8.17-1.78-16.77,6.84-22.9,6.74-4.8,6-15.5,14.16-19.64,3.63-9.91,9.84-18.71,13.2-28.64,4-11.89,11.14-29.43,19.18-37.41,3.82-3.78,2-9.18,5.8-11.92,4.76-3.44,3.44-8.19,3.81-12.73.13-1.64,1-4.14,2.21-4.6,3.9-1.49,9,0,9.4-7.24.21-4,3.7-7.84,5.34-11.89,1.12-2.79,2.17-5.12,8.39-2.82,1.72.56,1-.71-.14-1.58a2.4,2.4,0,0,0-2.39,0,2.42,2.42,0,0,0,0,2.39,11.41,11.41,0,0,0,3.36,2.59C863.89,542.74,864.83,541.52,862.87,539.2Zm57.74-52.53a20,20,0,0,0-3.24,2.75,2.4,2.4,0,0,0,0,2.39,2.42,2.42,0,0,0,2.39,0,11.58,11.58,0,0,0,2.59-3.37c.12-.21-1.1-1.14-5.07,6,0-.85.33-2-.1-2.45a2.49,2.49,0,0,0-2.4,0c-1.88,1.32-4.22,2.95-.79,5C914.47,497.2,916.17,495.33,920.61,486.67Zm-48.56,95.7c-1.22-1.17-3.14-4-4.07-3.72-3.08,1-3.05,7-.19,9.16.44.32,1.72.37,1.85.14C870.43,586.46,871,584.85,872.05,582.37Zm50.13-109.61c-.66-1.19-1.35-2.43-2-3.67-.63.63-1.89,1.4-1.78,1.87a17.23,17.23,0,0,0,1.78,3.83Zm-13.44,2c-.64.64-1.89,1.41-1.78,1.88a17.66,17.66,0,0,0,1.78,3.83c.63-.64,1.89-1.41,1.78-1.88A17.66,17.66,0,0,0,908.74,474.79Zm24.85,3.68-2-3.68c-.64.64-1.89,1.41-1.79,1.88a17.7,17.7,0,0,0,1.79,3.83Zm-34.23,55.4-2-2a18.14,18.14,0,0,0-1.78,3.83c-.11.47,1.15,1.24,1.78,1.88ZM830.9,609.68c-.66-1.2-1.34-2.44-2-3.68-.63.64-1.89,1.41-1.78,1.88a18.14,18.14,0,0,0,1.78,3.83ZM796.67,746.59l-2-3.67c-.63.63-1.89,1.4-1.78,1.87a17.69,17.69,0,0,0,1.78,3.83Z"/><path d="M238.43,292.24c0,2.57.72,5.47-.23,7.62-.77,1.73-3.58,2.56-6.81,3.79,1.33.88,2.29,0,1.29-2.64a3.48,3.48,0,0,0-1.72-1.89c-1.54-.58-3.27-1.26-4.81-1.05s-2.91,1.45-4.35,2.24c1,1.11,1.78,2.77,3,3.2,1.57.56,3.49.14,6.59.14.64,3.44,3.14,7.59-.52,10.34-5.28,4-3.1,12.39-9.56,15.54,2.2,8.64-4.95,7.6-9.52,9.55-1.09.47-2.14,3.3-1.75,4.6,2.44,8.05-7.38,12.31-5.89,19.92-8,4.91-5.34,12.83-5.66,21.19,0,.42.33-.76-.09-1.18a2.48,2.48,0,0,0-2.41,0c-1.87,1.32-4.22,2.95-.78,5,.45.26,2.16-1.6,3.28-3.75,7.13-2.3,9.2-10.12,15.16-12.56,1.48-.61,3.72-.11,5.35.53,2.61,1,2.83,2.9.56,3.87-5.41,2.29-2.68,8.35-5.85,11.85-3.59,3.95-8.62,6.48-9.9,12.93-.78,3.95-5.21,7.27-8.26,10.64s-6.62,6.74-10,10.05c-8.54,8.4-18.46,9.68-32.68,4.08-.32-.13,0-1.79,1.62-5.35.56-1.72-.71-.95-1.58.13a1.71,1.71,0,0,0,2.41,2.42,11.67,11.67,0,0,0,2.59-3.36c.12-.22-1.1-1.15-3.42.81-3.55,2.62-5.49,2.88-7.32,2.54s-4.48-1-4.69-1.94c-2.12-9.78-1.5-13.19,4-28.74-2.51-13.61,10.65-20.05,14.41-31,2.2-6.4,4.5-13.91,11.51-18.08,1.82-1.08,2.47-4.55,3.17-7.05,3.65-13.16,5.86-19.57,13.14-25.68,6.66-5.57,9.38-13.28,13.69-20.07,2.82-4.44,2.93-10.68,8.23-13.55,5.58-3,3.19-10.86,8.07-13.64,8-4.54,7.4-14.65,14-19.89s5.75-15.73,14-19.75c1.88-6.84,7.16-12,8.92-19.05,1.59-6.37,10.71-7.92,11.17-15.2.53-8.29,10.62-9.59,11.83-18,1.14-7.94,12.27-11,12.4-20.43,0-.6,3.49-2.09,4.68-1.58A105.71,105.71,0,0,1,312.21,158c3.81,2.49,7.21,5.84,6.2,11.6-.64,3.67.72,7.82-.35,11.27s-3.72,2-5.85-.13c-.87-.84-2.6-.8-3.94-1.16-.46,3.6-1.51,7.24-1.27,10.78.6,8.85-.95,16.26-8.52,22.25-3.13,2.48-3.74,7.92-6.32,11.39-2.8,3.76-6.58,6.78-9.92,10.14-1.32,1.33-3.83,2.87-3.68,4.05,1.2,9.44-10.18,11-11.34,18.07-1.4,8.56-8.87,11.52-13.21,17.27-.3.41-2.91-.22-3.82-1.06-4.26-3.93-5.94-2.55-6.05,2.65,0,1.89,0,3.79,0,5.68q-5.92-.21-5.7,5.7c-1.58.63-4.32,1-4.53,1.93C233.13,291.88,235.65,292.44,238.43,292.24Zm31.84-79.4a20.55,20.55,0,0,0-3.25,2.75,1.71,1.71,0,0,0,2.42,2.42,11.58,11.58,0,0,0,2.59-3.37c.11-.21-1.1-1.14-5.08,3.44q-5.93-.22-5.7,5.7c-5.58-.24-6.91,5.34-10.47,7.87-.07,0,1.27,3.2,2.23,3.37,2.67.49,5.48.17,8.24.17v8.36c.88-2.65,0-3.61-2.64-2.61a3.48,3.48,0,0,0-1.89,1.72c-.58,1.54-1.26,3.27-1.05,4.81s1.45,2.9,2.24,4.35c1.11-1,2.76-1.78,3.2-3,.56-1.58.14-3.5.14-7.92,1.57-.63,4.31-1,4.52-1.93.78-3.41-1.75-4-4.52-3.78V223.78C265.19,223.93,267.1,222,270.27,212.84Zm23.17-35.52,2-2a17.69,17.69,0,0,0-3.83-1.78c-.46-.11-1.24,1.15-1.87,1.78Zm1.21,20-2-2a17.92,17.92,0,0,0-1.78,3.83c-.11.47,1.15,1.24,1.78,1.87ZM275.51,201c-.64.64-1.89,1.41-1.79,1.88a17.7,17.7,0,0,0,1.79,3.83c.63-.64,1.89-1.41,1.78-1.88A18.14,18.14,0,0,0,275.51,201ZM247,240.9c-.63.63-1.89,1.4-1.78,1.87A18.14,18.14,0,0,0,247,246.6c.64-.63,1.89-1.4,1.79-1.87A17.28,17.28,0,0,0,247,240.9Zm-33.4,56.22,2-2a18.14,18.14,0,0,0-3.83-1.78c-.47-.11-1.24,1.15-1.88,1.78Z"/><path d="M539.45,355c3.34,9-4.62,14.46-6.59,22.07-.64,2.47-2.4,4.63-3.42,7a3.5,3.5,0,0,0,.33,2.62c1.21,2.37,2.35,2.32,4,1.11,4.34-3.22,6.23-9.57,12.73-10-.77,3.5,1.83,7.62-2,10.56-5.1,3.9-7.85,11.08-14.86,12.1-6.53,1-8.58,6.78-12.9,10.08-1.71,1.31-4,1.35-3.87-.95.83-13.41-10.14-7-15.6-9.71-2.63-1.3-2.66-2.62-.25-4,.79-.47,1.27-1.45,2.05-2,2.2-1.41,2.17-2.93-.48-4-3.14-1.26-7.76.25-9.07-4.31-1.2-4.18,4.08-7.08,4-9.46-.28-10.75,13.81-12.81,13-23.24,6.21-6.61,7.93-16.07,15.25-22.35,3.58-3.05,3-10.46,8.36-13.34,5.59-3,3.91-9.87,7.89-13.89,3.73-3.77,9.48-6.31,8.75-13.54-.19-1.84,3.2-4.54,5.48-6,8.13-5.32,10-15.07,15.89-22,2.16-2.53,1.89-7.86,4.31-9.32,7.85-4.76,7.09-15.12,13.95-20,9.39-6.64,10.94-19.29,20.11-25.78,8.65-6.14,9.51-17.51,17.71-24.26,4.24-3.49,5.33-10.82,7.8-16.43,2.29-5.2,5.3-9.59,14.27-7.37,2.85,2.41,3.17,1.35,2.79.67-.81-1.43-1.82-3.61-3-3.8-5.28-.84-2.44,3.54-2.39,5.14.06,1.9,2,3.75,3.1,5.62.79-1.45,1.58-2.89-.49-7.63-2.11-6.78-4.51-10.7-1-13.84a99.92,99.92,0,0,0,9.95-10c1.77-2.07,2.62-2.5,4.1-.64,5.77,7.3,13.89,2.87,20.92,3.89.51.08,1.59-2.31,2-3.68.11-.4-1.21-1.7-1.93-1.76-2.81-.21-5.67.15-8.46-.17-1.65-.2-4.57-1.21-4.6-2a134.94,134.94,0,0,1,.18-19c.28-3,6.72-4.38,11.83-3,.66.18,1.79.61,1.93.4,3.48-5.12,7-4.73,10,.21,2.28,3.71,3.74,7.93,6.12,11.55,1.46,2.22,2.24,3,.72,6.22-3.72,7.8-10.69,14.67-9,24.5-5.43,6-9.3,13.72-18.37,15.43-2.93.56-5.09,2.11-4.44,5.67-2.27-1.32-4.56-2.62-6.81-4a23.42,23.42,0,0,1-2-1.49c-.87,1.51-2.65,3.18-2.42,4.51.43,2.48,2,4.76,3.12,7.11,4.07,8.5,3.38,14.3-3.15,19.16-3.43,2.56-8.76,3.2-11.19,6.31-1.82,2.33,1.15,8.71-.73,10.63-3.13,3.21-5.9,14.27-13.53,3.89-.06-.08-1.76.58-1.83,1a82.57,82.57,0,0,0-1.35,10.7c-.17,5.57,1.07,11.92-8,10.58-3,6.13-6.23,12.2-9.07,18.43-1.22,2.69-2.23,5-7,4.39-.42,0,.76.33,1.18-.1a2.49,2.49,0,0,0,0-2.4c-1.32-1.88-3-4.22-5-.79-.26.45,1.6,2.16,3.75,3.29,2.2,5.67-7.1,7-4.43,13.42-3.36,3.67-5.42,8.93-11.41,9.39q.21-5.91-5.71-5.7c.65-3.46-1.51-5.51-4.29-5.56-5.76-.09-11.56,5.3-12.68,11.5-.25,1.39,1,4.24,2,4.48,5.14,1.22,10.61,2.89,14.95-2,.46-.52.06-1.8.06-2.73h5.71c-.72,3.47,1.32,7.13-1.78,10.55-3.56,3.94-9.32,6.24-9.7,12.8-.31,5.4-6.43,7.9-6.69,14.24-.17,4.15-4.07.17-5.31-1.38-1.78-2.21-3.31-2.68-4-.05-1.08,4.31-1.1,8.88-2.18,13.18-.25,1-3,1.36-8.67,2-2.26,0-.38-.32,1.33.07,2.78.63,3.71-.1,2.68-2.76-.29-.77-1.12-1.84-1.77-1.9q-6.43-.53-12.91-.56c-.64,0-1.9,1.64-1.82,1.76.88,1.22,1.79,2.82,3.05,3.25,1.62.56,3.57.14,9.44.14,5,8.85,1.66,14.88-8.68,17.11,1.33.89,2.29,0,1.29-2.64a3.49,3.49,0,0,0-1.72-1.88,10.48,10.48,0,0,0-4.81-1.05c-1.52.2-2.91,1.44-4.35,2.23,1,1.12,1.78,2.77,3,3.21C534.43,355.42,536.35,355,539.45,355ZM528.9,369.72a20.55,20.55,0,0,0-2.75-3.25,1.71,1.71,0,0,0-2.41,2.42,11.41,11.41,0,0,0,3.36,2.59c.21.11,1.14-1.1-6-5.08.85,0,2,.33,2.45-.09a2.48,2.48,0,0,0,0-2.41c-1.32-1.87-3-4.22-5-.79C518.38,363.57,520.24,365.28,528.9,369.72Zm96.89-169.21-5,3.2c.58.64,1.13,1.31,1.73,1.93a37.15,37.15,0,0,0,3.91,3.83,20.43,20.43,0,0,0,3.84,1.88c.61-2.49,2.3-5.42,1.51-7.33S627.65,201.52,625.79,200.51Zm51.91-82.27c-.64-.63-1.41-1.89-1.88-1.78a18.14,18.14,0,0,0-3.83,1.78c.63.64,1.41,1.89,1.88,1.79A17.7,17.7,0,0,0,677.7,118.24ZM661.4,153.3l2,2a17.42,17.42,0,0,0,1.79-3.82c.1-.47-1.15-1.25-1.79-1.88Zm-25.67,31.37-3.67,2c.63.63,1.4,1.89,1.87,1.79a18.19,18.19,0,0,0,3.83-1.79Zm12.62,8.56-2-3.68c-.64.64-1.89,1.41-1.79,1.88a18.19,18.19,0,0,0,1.79,3.83ZM562.78,313l-2-3.68c-.64.64-1.89,1.41-1.79,1.88a17.7,17.7,0,0,0,1.79,3.83Z"/><path d="M769,212.37c-1.27-2.22-2.63-4.41-3.8-6.69-.77-1.5-1.28-3.14-1.9-4.72,3.47.65,5.27-1.47,5.59-4.32.43-3.83-.24-7.5-6.86-7.09-.43,0,.75.33,1.17-.09a2.51,2.51,0,0,0,0-2.41c-1.33-1.87-3-4.22-5-.78-.27.45,1.59,2.16,3.74,3.28,1.28,3.81,1.28,7.61,1.28,11.41-4.63.06-9.27.86-12.68-3.92-2-2.83-4.43-3.72-1.28-8.36a151,151,0,0,0,13.51-25.61c4.71-11.08,10-21,18.87-29.23,5.93-5.51,6.52-15.16,14.16-19.68,2.3-1.37,4.27-3.59,6.72-4.34,4-1.23,9.8,2.26,12-4,1.91-5.48-5.09-7.49-5.44-11.84s-1.47-9.07,2.68-13.1c3.79-3.68,9.82-6.31,8.72-13.48-.1-.67,2.25-1.72,3.46-2.59.69,1.61,1.78,3.18,2,4.85.33,2.8,0,5.69.18,8.51,0,.73,1.1,1.54,1.88,2,.48.28,1.76.16,1.91-.14,2.21-4.63,3-10,7-13.71-1.34-1.34-3.38-2.48-3.86-4.07-.71-2.38-1.43-6-.2-7.5,6.38-7.7,15.47-13.18,18.21-23.88.32-1.24,5.33-.73,7.32-2.19,14.08-10.32,14-10.42,18-10.28,5.8.19,7.82,2.84,6.64,9.18a28.25,28.25,0,0,1-2.45,7.51c-4.76,9.41-11.61,18.27-14,28.23-2.12,8.71-14.41,10.36-12,20.72-5.74,2.79-5,9.37-8,13.8a65.34,65.34,0,0,0-6,11.69A179.69,179.69,0,0,1,830,130.69c-3.51,6.06-9,10.95-11.81,17.95-3,7.51-7,14.83-13.86,19.86-.61,9.49-8.51,13.86-14.16,19.68-2.83,2.9-3.82,5.75-4.36,9.72-.45,3.32-3.69,2.55-5.59,0-2.54-3.4-4.88-1.64-5.26,1-.33,2.32,1.16,5.1,2.35,7.41,2.87,5.55,3,5.54-2.61,6C772.78,212.51,770.87,212.37,769,212.37ZM791.79,152c0-1.8-.32-3.68.07-5.39.64-2.77-.1-3.7-2.76-2.68a3.75,3.75,0,0,0-1.92,1.78c-1.32,3.06-2.08,6.43-3.79,9.23-1.29,2.13-3.73,3.64-.37,5.77a3.11,3.11,0,0,0,2.54.23c2.15-1,4.61-2,6.07-3.67.89-1,.16-3.47,6.75-19.09-.88,0-2-.31-2.62.06-1.43.81-3.62,1.82-3.8,3-.84,5.27,3.54,2.43,5.14,2.38,1.9-.06,3.74-2,5.61-3.09C801.27,139.78,799.83,139,791.79,152ZM863.1,41.23c-.63.63-1.89,1.4-1.78,1.87a17.69,17.69,0,0,0,1.78,3.83c.64-.63,1.89-1.4,1.79-1.87A17.7,17.7,0,0,0,863.1,41.23ZM819.49,90.54l-2-3.67c-.63.63-1.89,1.4-1.78,1.87a18.14,18.14,0,0,0,1.78,3.83Zm-11.41,39.93-2-3.67c-.63.63-1.89,1.41-1.78,1.88a17.84,17.84,0,0,0,1.78,3.82C806.69,131.87,807.32,131.24,808.08,130.47Zm4.5,8.56-3.67,2c.63.64,1.4,1.89,1.87,1.79a17.7,17.7,0,0,0,3.83-1.79C814,140.43,813.34,139.8,812.58,139Zm-6.53,10.59c-.63.63-1.88,1.41-1.78,1.88a17.84,17.84,0,0,0,1.78,3.82c.64-.63,1.89-1.4,1.79-1.87A17.7,17.7,0,0,0,806.05,149.62Zm-33.4,12.23-3.68,2c.64.64,1.41,1.89,1.88,1.79a17.7,17.7,0,0,0,3.83-1.79Z"/><path d="M346.82,309.35c-.67,1.62-.89,3.79-2.08,4.77-6.92,5.72-11.24,12.38-9.36,21.81a10,10,0,0,1,0,2.84c-.44,5.11-5,6.65-10.26,2.92-3-2.13-6.21-6.36-6.6.86-.39,7-4.78,6.32-9.19,7.3-2.58.57-2.89,3.24-.84,3.75,5.49,1.35,10.08,3.66,13.81,8.08,1.59,1.88,1.87,2.62-.54,4.14-5,3.15-3.41,8.26-3.43,12.77,0,3.2,1.81,5,5.22,4.94,2.84-.06,6.14-.89,8.39.26,1.81.93,2.87,4.25,3.24,6.66.21,1.33-1.51,3.15-2.69,4.44-2.55,2.8-7,5.06-7.66,8.16-1.46,7.21-5,13.74-8.8,19.06-6.51,9.14-15.63,16.44-23.73,24.44-7.32,7.21-14,7.48-21.41.77-3.79-3.42-7-9.73-12.18-1.52a6.63,6.63,0,0,1-1.89-1.16,3.91,3.91,0,0,1-1.24-2.29c.13-5.59.42-11.18.66-16.77,7.14-4.43,4-11.67,5.17-17.82a38.85,38.85,0,0,1,5.74-14.59c3.13-4.49,4.87-9.4,7.29-14.11s9.28-6.43,9.67-13.1c.32-5.47,7.86-8,6.27-14.45,7.6-1.55,1.17-16.33,13.81-14.21,3.25.54,2.43-6.16,2.69-9.76.32-4.48-1.4-9.31,3.2-12.92,13.35-10.48,19.16-25.81,25.12-40.79,2.68-6.75,7.54-3.56,11.6-4.41v34.23c-1.58.63-4.31,1-4.53,1.93C341.52,309,344.05,309.56,346.82,309.35Zm-48.49,97a103.92,103.92,0,0,0,11.17-.18c.83-.09,1.63-2.3,2-3.66.11-.41-1.21-1.77-1.89-1.79-5.6-.14-11.2-.23-16.78.09-.78,0-1.63,2.31-2,3.67-.12.41,1.16,1.67,1.9,1.78A40,40,0,0,0,298.33,406.34Zm14.26-29.91-2.85-4.32c-1,1.44-2.81,3-2.66,4.3.27,2.44,1.7,4.75,2.66,7.11Zm15.08-62.19,2-2a17.28,17.28,0,0,0-3.83-1.79c-.47-.1-1.24,1.15-1.87,1.79Zm-52.16,92.09c-.64.64-1.89,1.41-1.79,1.88a17.7,17.7,0,0,0,1.79,3.83c.63-.63,1.89-1.41,1.78-1.88A18.14,18.14,0,0,0,275.51,406.33Zm36.26,9.39-2-3.68c-.64.63-1.89,1.41-1.79,1.88a17.7,17.7,0,0,0,1.79,3.83Z"/><path d="M967.37,800a34.5,34.5,0,0,1,1.12,14.11c-.74,4.9,3.84,11.91-4.14,14.27-5.52,1.63-8.64-3.42-11-7-3.52-5.26-10-3.35-14.06-7.65-5.59-6-6.73-10.47-1.9-19.44.21-.39,1.79,0,5.59,3.25,2.85,2.41,3.16,1.34,2.79.67-.81-1.43-1.82-3.62-3-3.8-5.28-.84-2.44,3.54-2.39,5.14.06,1.9,2,3.74,3.1,5.61.79-1.44,1.58-2.88-.49-7.62-1.94-6.89-5.64-7.84-6.72-10.2s-2.23-6.8-1.4-7.34c6.87-4.49,2.92-12.9,6.24-17.28,3.82-5,5.64-9.66,4.59-15.16-1.69-8.83,3.55-15.53,5.77-23.18,1.45-5,5.08-4.22,8.74-4.35,4.8-.17,4.36-.27,3.36-8-1.18-9.12-3.07-18.64,6.75-25.11,3.79-2.5,7-5.94,9.65-8.27-1-4.39-7.93-4.9-3-9.7,1.26-1.23,3-2.94,3-4.34-.53-9.71,6.49-6.84,14.41-4,2.85,2.41,3.17,1.35,2.79.68-.8-1.43-1.82-3.62-3-3.81-5.28-.83-2.43,3.54-2.38,5.14.06,1.9,2,3.75,3.09,5.62.79-1.44,1.58-2.89-.48-7.63-2.86-4.23-2.91-5.17-2.85-6.1.49-7.92.88-8.63,7.1-8.51,4.11.08,10-2.06,10,5.61-1.6.65-4.34,1-4.62,2-1.45,5.22-1.92,10.05,1.66,15.38,4.71,7,3.92,7.37-3.12,11.2-3.11,1.69-5.75,4.2-8.73,6.13-2.32,1.5-2.64,2.71-.65,4,3.95,2.59,4.29,5,.2,8-5.44,4.07-7.87,9.79-7.51,16.88.25,4.81,0,9.25-4.56,12.19-.29,8.1-9.84,13.35-6.91,22.46.91,2.83,2.18,5,5.72,4.4,0,6.59.12,13.2-.17,19.78,0,.73-2.36,1.55-3.74,1.89-.41.1-1.59-1.19-1.71-2-.3-1.82.56-4.64-.37-5.39a13.8,13.8,0,0,0-7.22-2.7c-1.21-.1-3.72,2.06-3.71,3.19,0,5.35-1.93,11.18,4,15.31,2.9,2,5.83,5.11,6.91,8.33,1.16,3.47.12,7.62-6.7,7.19-.43,0,.75.33,1.18-.1a2.49,2.49,0,0,0,0-2.4c-1.33-1.88-3-4.22-5-.79C963.35,797.14,965.22,798.84,967.37,800Z"/><path d="M722.06,1130.84c1.27,1,1.54,2.62,1.23,2.74-6.92,2.57-13.16,6.07-17.67,12.13-2.83,3.82-6.91,2.11-10.42,2.12-3.35,0-5.59,1.32-6,4.24-.49,3.8,0,7.74,5.57,7.3.64,3.35-1.45,5.44-4.11,5.56-8.12.38-16.28.14-24.41.14,2.68-5.54,4.59-11.67,8.27-16.45,3.88-5,4.12-11.74,9.61-16.26,4.59-3.76,9.16-10,9.81-15.53.92-7.9,6.78-10.76,10.6-15.73a7.74,7.74,0,0,0,1.6-2.18c2.19-7.76,4.74-15.42,10.53-21.28,12.68-12.81,25.57-25.39,38.38-38.07,5.92.78,7.6-1.75,8.67-7.66.64-3.6,5.77-8.35,9.49-9,5.47-.93,8-4.41,11.21-7.55,2.76-2.72,4.44-5.09,8.27-.81,4.37,4.9,5.12-4.29,7.77-2.92,1.69.88,3.34,5.88,2.45,7a178.92,178.92,0,0,1-15.4,16.49c-3,2.95.88,9.7-6.66,10.4-4.11.39-7.95,3.54-13.19,5.44-.42,0,.76.33,1.18-.1a2.49,2.49,0,0,0,0-2.4c-1.32-1.88-2.95-4.22-5-.79-.27.46,1.6,2.16,3.75,3.29,2.07,4.58-2.72,5.62-4.27,8.72,9.75,6.71,0,9.46-2.64,13.86-1.74,2.91-2.2,6.61-4,9.44-2.88,4.43-4.48-.35-5.67-1.69-1.85-2.08-2.69-2.36-4.1.19-2.62,4.72,2.25,13.74-3.86,14.49-8.19,1-9.24,4.53-8.26,10.55.9,5.6-5.09,7.2-5.79,11.61s1.74,9.36-3,12.63c-.63.44-1.82.06-4,.06-.42,0,.76.34,1.18-.09a2.48,2.48,0,0,0,0-2.41c-1.32-1.87-2.95-4.21-5-.78C718.05,1128,719.91,1129.72,722.06,1130.84Z"/><path d="M460.91,309.35c-.81,4.73,5.25,5.66,5.45,9,.25,4.14,1.8,6.78,4.46,9.66,2.91,3.15,2.11,6.71-1.11,9.61-4.23,3.83-4.38,7.66-.23,11.77.93.93,1.92,3.34,1.48,3.85-3.1,3.56-6.74,6.65-9.85,10.21-2.34,2.66-6.24,4.15-6,8.9.28,5.54-4.83,9-8.29,10.33a26.5,26.5,0,0,1-16.59.39c-3.73-1.18-7.46-5.85-8.91-9.8-1.52-4.17-1.17-9.53-.15-14,1.65-7.32,4.62-2.16,6.84,0,1.52,1.46,3.51,1.38,3.88-1.1.71-4.6.22-9.37.55-14,.26-3.58-.23-8.84,1.82-10.36,5.08-3.75,2.33-10.8,7.69-14.19,5.85-3.69,7.83-9.3,8-16.65.11-5.23,4.87-9.59,11-10.66v11.41c-1.57.63-4.31,1-4.52,1.92C455.61,309,458.14,309.56,460.91,309.35Zm-5.38,31c-2-1.79-3.94-3.69-6.06-5.33a20.43,20.43,0,0,0-3.84-1.88c-.61,2.49-2.12,5.19-1.61,7.41.71,3.12,5.87,4,9.13,2.14A15.23,15.23,0,0,0,455.53,340.4Zm-2.35-14.75,2-2a17.7,17.7,0,0,0-3.83-1.79c-.47-.1-1.24,1.15-1.88,1.79ZM452.36,355c-.64.64-1.89,1.41-1.79,1.88a17.7,17.7,0,0,0,1.79,3.83c.63-.64,1.88-1.41,1.78-1.88A18.14,18.14,0,0,0,452.36,355Z"/><path d="M746.15,212.37c.41,5.1-2.42,11.77,7.3,11.68,3.52,0,5.55,5.63,3.82,8.52-3.2,5.33-6.71,10.47-10,15.76-3.08,5-7.95,4-12.57,4,0-2.8.13-5.61-.08-8.39-.06-.72-1.33-2-1.75-1.91-1.36.35-3.54,1.06-3.69,1.93-.49,2.72-.18,5.57-.18,8.37-2.58,0-5.47-.73-7.62.23-1.73.77-2.56,3.57-3.79,5.47-.93,0-2.41-.37-2.7.06-3.53,5.27-8.56,6.45-14.42,5.65,0-4.55-1.1-9.44,3.88-12.44,4.42-2.66,10.26-4.41,12.8-8.3,2.14-3.28.26-9.08.54-13.74a7.18,7.18,0,0,1,2.1-4.66c6.95-5.88,11.48-14.57,20.62-17.91Q740.22,212.6,746.15,212.37Zm-6.52,9.38c-.67-1.19-1.35-2.43-2-3.67-.64.63-1.89,1.4-1.79,1.87a17.7,17.7,0,0,0,1.79,3.83Zm5.7,15.47c-.76-.76-1.4-1.39-2-2a18.14,18.14,0,0,0-1.78,3.83c-.11.47,1.15,1.24,1.78,1.88Z"/><path d="M706.22,292.24c-.49,5,2.51,11.63-7.05,11.58-5.11,0-4.25,4.69-4.45,8.33-.15,2.56-1,7.24-1.8,7.3-13.21,1.05-9.21,10.87-9.41,18.21-.15,5.15-3,6-7,5.93-3.73,0-7.49.25-11.18-.13-1.57-.16-3-1.65-4.51-2.54a32.23,32.23,0,0,0,3.52-4,29.14,29.14,0,0,0,2-4.76c3.94.15,5.85-1.75,7.36-8.32.56-1.73-.71-1-1.59.13a1.71,1.71,0,0,0,2.41,2.42,11.44,11.44,0,0,0,2.6-3.37c.11-.21-1.1-1.14-3.42.82-5.61,2.47-7.51,4.37-7.36,8.32-1.58-.62-3.22-1.13-4.72-1.9-2.28-1.17-4.47-2.53-6.69-3.8,1.75-8.62,13.41-11.29,12.78-21.34,3.34-.49,6.69-1,15.74.44,5.7.11,6.08-1.8,5.59-3.46s-1.83-2.74-2.81-4.1c-1.27,1.28-2.54,2.56-3.83,3.83-.63.62-1.28,1.22-2,1.81-2,1.72-3.93,6.66-2.58,8,1.64,1.62,4.17,3.15,6.38,3.25,5,.23,5-3.76-.8-9.33-4.79-5.51-7.85-6.89-9.77-8.7-1.76-1.66-1.93-3.19.71-3.95s5.5-.37,8.25-.69c7.41-.88,8.26-3.36,3.95-11.1-3-5.42-3-5.47,2.6-6,1.87-.17,3.78,0,5.67,0C693.89,284,697.21,290,706.22,292.24Z"/><path d="M689.1,657.35c3.81-7.88,7.66-15.73,11.4-23.63,2.4-5.1,5.31-9.55,14-8.94,1.73.55,1-.72-.13-1.59A1.7,1.7,0,0,0,712,625.6a11.41,11.41,0,0,0,3.36,2.59c.21.12,1.14-1.09-.82-3.41-2.62-5.42-2.37-9.21-2.69-12.94-.3-3.5,1.47-5.35,4.39-5.76,10.67-1.53,18.09,4.61,18.55,14.62.48,10.22-1.9,18-13.72,19.68-1.3.18-3.33,2.5-3.27,3.74.32,6.3-2.69,7.94-8.43,7.85-1,0-2.26,4.27-3.11,6.67-1,2.81-2.2,5.06-5.75,4.41-1.23-1.9-2-4.7-3.79-5.47C694.58,656.62,691.68,657.35,689.1,657.35Z"/><path d="M486.45,241c.66.58,1.31,1.18,2,1.72,4.87,3.83,7.59,11,15.62,10,.57-.07,2,1.71,1.88,1.82-.91,1.24-1.91,3.07-3.14,3.29-2.73.49-5.65-.14-8.4.26-1.62.23-3.08,1.56-4.61,2.39,1.2,1.07,2.28,2.84,3.63,3.07,3.59.62,7.39.15,10.92.95,2.7.62,2.44,2.22.46,3.91-3.79,3.23-6.88,9.7-12,1.49-1.33,1-2.72,1.9-4,3-5.12,4.39-5-3.16-8-3.45-6.42-.64-2.24-3.64-.76-4.74,4.39-3.27,2.86-5.62-.57-8.08L484.46,243C485.12,242.36,485.79,241.7,486.45,241Z"/><path d="M358.23,280.83c1.4-10.5-1.23-12.81-11.41-11.41,0-2.57-.73-5.47.23-7.62.77-1.73,3.57-2.56,5.47-3.79.67,1.62.94,4.23,2.06,4.67,4.67,1.84,14.31-3.64,14.27-8.1,0-1.35-2.88-2.45-3.72-4.05-2.6-5-2-6,4.51-9.63,0,.94-.36,2.48.05,2.72,3.65,2.14,7.43,4,11.17,6-9.34,3.69-2.27,14.23-7.93,19.19C368.18,273,365.33,279.56,358.23,280.83Z"/><path d="M466.62,280.83a4.39,4.39,0,0,0,3.91,5.56c4.34.53,8.8.14,13.2.14,0,6.39,0,12.79,0,19.18,0,5.62,0,5.32-9.14,3.77-4.43-.75-9.1-.13-13.67-.13v-5.7a33.6,33.6,0,0,0,5.5-.07,27.9,27.9,0,0,0,4.8-1.67c-.56-1.3-.76-3-1.74-3.81-2.69-2.15-3.94-6.54-8.56-5.86,0-2.57-.72-5.47.23-7.62C461.91,282.89,464.72,282.06,466.62,280.83Z"/><path d="M717.63,84.08c0,2.51.38,3.71-.06,4.35-3.07,4.46-5.6,9.83-12.14,9.72-1.55,0-3.08-1.57-4.61-2.42a14.25,14.25,0,0,1,1.41-2c2.44-2.5,6.78-5-.48-6.94-2.33-.63-6.4-2.14-6.34-3,.3-4.92,11.87-9.66,15.33-6.57C713.44,79.6,715.87,82.3,717.63,84.08Z"/><path d="M1054.22,588.88c1.62.67,4.55,1.23,4.63,2,.31,3.43-2.37,3.56-5.11,3.79-1.63.14-3.27,1.29-4.67,2.31-.53.39-.49,1.68-.55,2.57-.6,9.1-4,5.38-7.7,1.85-.37-.35-2.52,1.29-3.91,1.86s-2.67.91-4,1.35c-.5-1.69-1.87-3.74-1.35-5,2.56-6.21,6.14-11.43,14.13-10.79C1048.5,589.08,1051.36,588.89,1054.22,588.88Z"/><path d="M478,857h17.11c0,2.72,0,5.43,0,8.14-.09,8.56-.42,8.88-9,9-2.72,0-5.43,0-8.14,0Z"/><path d="M734.74,252.31c0,2.68.12,5.37,0,8.05-.48,9.72-5.44,14-17.09,14.77V258c2.57,0,5.47.73,7.62-.23,1.73-.77,2.56-3.57,3.79-5.47Z"/><path d="M392.46,229.49l-11.41,5.7-11.41,5.71c-.75-5.81.69-10.38,5.55-14.41,4.16-3.45,10.2-2.4,13.88-7.27,1.22-1.61,3.56,2,3.41,4.74C392.37,225.79,392.46,227.64,392.46,229.49Z"/><path d="M1008.57,623.12q2.08-9.33,11.41-11.41-.21,5.92,5.71,5.7c.62,1.58,1,4.31,1.92,4.53,3.42.77,4-1.76,3.78-4.53,5.39-.41,6,3.3,5.59,7.12-.32,2.86-2.17,4.61-5.65,4.37-4.51-.31-9.16.87-12.43-3.89C1016.31,621.22,1012,623.82,1008.57,623.12Z"/><path d="M415.34,226.7c-5.25,4.75-10.26,9.76-15.9,13.94-1.07.8-5.7-1.09-6.7-2.86-1.2-2.14-.28-5.47-.28-8.29,8,2.77,12.4-7.44,20.1-5.49C413.34,224.2,413.91,225.27,415.34,226.7Z"/><path d="M647.9,560.35c7-.69,9,5.49,12.59,9.33,1.62,1.75-5.86,13.7-8.27,13.16-1.24-.28-2.63-2.41-2.94-3.91-.87-4.32,1.94-10-3.15-12.56-1.86-.94-3.92-.47-2.53-3C644.33,562,646.41,561.32,647.9,560.35Z"/><path d="M649.17,369.25c-1.49-6.76,4.2-9.44,7.79-13.23.23-.25,3.38,1.21,3.46,2,.61,6.36,1.24,12.92-5.55,16.88-1.23.72-2.59,1.23-3.89,1.83-.6-1.59-1.31-3.15-1.77-4.77A10.5,10.5,0,0,1,649.17,369.25Z"/><path d="M746.15,206.67c3.46.71,7.74-1.91,10.36,1.91,3.26,4.77,7.93,3.79,12.46,3.79a49.65,49.65,0,0,1,0,5.32c-.58,5.38-1.34,5.8-5.23,3.72-5.81-3.1-11.7-6-17.56-9Z"/><path d="M717.63,275.13c0,2.68.06,5.37,0,8.05-.25,8.55-.27,8.55-11.4,9.06V280.83c1.58-.63,3.21-1.13,4.72-1.91C713.22,277.75,715.4,276.4,717.63,275.13Z"/><path d="M599.67,485.88c2.47.45,5.17.82,7.79,1.49.63.16,1.55,1.41,1.41,1.9a3.35,3.35,0,0,1-1.9,2c-2.51.84-6.24.55-7.48,2.2-4.84,6.47-6.82.5-10.39-1.2-2-.93-3.71-.37-2.63-3.15a3.36,3.36,0,0,1,2-1.95C592.06,486.58,595.73,486.29,599.67,485.88Z"/><path d="M529.26,232.21c-6.37,2.7-3,12.2-9.79,14.16-2,.57-4.7-1.58-7.08-2.48,5.26-2.91,4.62-9.1,7.53-13.26.71-1,3.32-1.28,4.9-1S527.77,231.29,529.26,232.21Z"/><path d="M495.14,857c-.66-1.61-1.27-3.24-2-4.83-.87-1.91-5.16-2.48-1.54-6.11,4.54-4.53,6.06-4.85,12.16-.53.62.45,1.84.06,2.78.06Q504.47,854.93,495.14,857Z"/><path d="M580.71,144c0,2.76.12,5.52-.08,8.26,0,.71-1.25,2-1.7,1.89a13.66,13.66,0,0,1-3.91-1.7c-6.92-3.91-4.68-7.69-.14-11.93.93-.87,0-3.53.35-5.3.13-.74,1.49-2,1.82-1.84,1.32.54,3.31,1.38,3.5,2.39C581,138.44,580.71,141.26,580.71,144Z"/><path d="M540.6,209.61c-1.11.53-3.11,2-3.56,1.61a43.48,43.48,0,0,1-7.53-7.75c-.86-1.21-.33-3.56-.09-5.35.35-2.64,3-2.57,5.75.07C538.37,201.31,542.33,204.05,540.6,209.61Z"/><path d="M694.81,275.13c0-2.58-.73-5.48.23-7.62.77-1.74,3.57-2.57,5.47-3.79,0,.92-.37,2.41.06,2.69,5.28,3.53,6.45,8.57,5.65,14.42-1.58-.63-3.22-1.14-4.72-1.91C699.22,277.75,697,276.4,694.81,275.13Z"/><path d="M478,269.42c1.4,10.47-1.19,12.81-11.41,11.41C465.22,270.52,467.65,268,478,269.42Z"/><path d="M600.53,480.58c-3.3-.21-7.62-.4-11.91-.83-.7-.07-1.9-1.72-1.86-1.77,2.31-2.66,4.45-5.62,7.3-7.54.77-.52,4.16,1.77,5.47,3.46C600.65,475.36,605.65,476.08,600.53,480.58Z"/><path d="M533.65,978.24c.48,1.69,1.89,4,1.26,5a93,93,0,0,1-8.48,10.65,2.69,2.69,0,0,1-2.66,0c-.47-.48.09-1.84-.13-2.73-1.78-7.19,4.72-9.51,8.07-13.65C531.84,977.29,533,978,533.65,978.24Z"/><path d="M406.86,218.08c-1.86,0-3.88.45-5.51-.16-1.06-.4-1.76-2.27-2.18-3.62-.13-.41,1.16-1.8,1.85-1.84a69.69,69.69,0,0,1,11.1.08c.88.1,1.72,2.26,2.15,3.61.13.41-1.12,1.73-1.86,1.84A38,38,0,0,1,406.86,218.08Z"/><path d="M510.32,234.28c-3.34,1.9-8.43,1.17-9.21-1.94-.55-2.22.9-4.94,1.46-7.43a18.13,18.13,0,0,1,3.84,1.67c1.45,1.08,2.44,2.81,3.95,3.76C512.79,231.87,512.9,233,510.32,234.28Z"/><path d="M636.3,452c.93,0,2-.29,2.75.07a39.47,39.47,0,0,1,4.42,2.79c-1.47.95-2.83,2.46-4.41,2.72a25.13,25.13,0,0,1-8.3,0c-1.58-.26-3-1.77-4.41-2.72,1.46-.95,2.81-2.3,4.42-2.75S634.45,452,636.3,452Z"/><path d="M618,457.89a10.33,10.33,0,0,1,1.9,2c1.8,3.27.72,8-2.38,9.13a7.39,7.39,0,0,1-5.38,0c-3.07-1.57-2.38-3.73,0-5.71,1.4-1.15,2.58-2.58,3.9-3.84C616.67,458.85,617.36,458.4,618,457.89Z"/><path d="M523.67,591.31c0,1.81.42,3.75-.14,5.37-.43,1.27-2,2.18-3.25,3.05-.12.09-1.76-1.18-1.76-1.81q0-6.46.56-12.92c.06-.65,1.12-1.47,1.9-1.77,2.66-1,3.39-.09,2.76,2.68C523.35,587.62,523.67,589.5,523.67,591.31Z"/><path d="M666.29,1173.2c0,1.8.42,3.75-.14,5.37-.43,1.26-2,2.18-3.26,3-.11.09-1.75-1.18-1.75-1.82q0-6.45.56-12.91c.06-.65,1.12-1.47,1.9-1.77,2.66-1,3.39-.09,2.76,2.68C666,1169.51,666.29,1171.39,666.29,1173.2Z"/><path d="M983.39,743.41c2.48.62,3.15,5.25,1.21,9.16a3.88,3.88,0,0,1-1.91,1.71c-2.61,1-3.41.08-2.67-2.62.65-2.41.92-4.92,1.56-7.33C981.7,743.89,982.76,743.71,983.39,743.41Z"/><path d="M814.61,674.46c2.8,0,5.65-.31,8.36.18.88.15,1.59,2.33,1.94,3.69.11.42-1.19,1.7-1.91,1.75-2.78.21-5.59.09-8.39.09Z"/><path d="M572.64,663.54c2.48.63,3.15,5.25,1.21,9.16a3.82,3.82,0,0,1-1.91,1.72c-2.61,1-3.4.07-2.67-2.62.65-2.41.93-4.93,1.57-7.34C571,664,572,663.84,572.64,663.54Z"/><path d="M1020,611.71c0-2.8-.3-5.65.18-8.37.15-.87,2.33-1.58,3.7-1.93.42-.11,1.69,1.19,1.74,1.91.21,2.78.09,5.59.09,8.39Z"/><path d="M569.3,491.91c-.41-5.36,3.26-6,7.09-5.6,2.85.32,5,2.12,4.32,5.6Z"/><path d="M549.82,366.89c2.48.63,3.15,5.25,1.21,9.16a3.82,3.82,0,0,1-1.91,1.72c-2.61,1-3.4.07-2.67-2.62.65-2.41.93-4.92,1.57-7.34C548.13,367.38,549.2,367.19,549.82,366.89Z"/><path d="M647.22,344.49c2.86,1.67,3,7.29.11,9.42a2.1,2.1,0,0,1-1.89.13c-2.91-1.58-3-7.25-.14-9.38C645.75,344.34,646.57,344.53,647.22,344.49Z"/><path d="M490.32,280.83q2.18,1.17,4.33,2.36c-1.87,1.12-3.71,3-5.61,3.1-1.6,0-6,2.89-5.14-2.38.19-1.2,2.37-2.21,3.8-3C488.38,280.52,489.44,280.83,490.32,280.83Z"/><path d="M534.26,178.53c-1.16-1.21-4-3.13-3.72-4.06,1-3.08,7-3.05,9.16-.19.33.44.37,1.72.14,1.84C538.35,176.92,536.74,177.5,534.26,178.53Z"/><path d="M709.07,101.44c1.41,4.77,2.6,7.18,2.67,9.63,0,1.41-1.72,2.88-2.67,4.32-1-1.44-2.71-2.91-2.67-4.32C706.47,108.62,707.66,106.21,709.07,101.44Z"/><path d="M694,94.6l-2,3.68c-.64-.64-1.89-1.41-1.79-1.88A17.7,17.7,0,0,1,692,92.57C692.59,93.21,693.22,93.84,694,94.6Z"/><path d="M560.75,155.32a18.14,18.14,0,0,1,1.78,3.83c.1.47-1.15,1.25-1.78,1.88A17.7,17.7,0,0,1,559,157.2C558.86,156.73,560.11,156,560.75,155.32Z"/><path d="M671.52,175.76c-.66.66-1.59,1.87-1.8,1.75a11.24,11.24,0,0,1-3.36-2.59,2.4,2.4,0,0,1,0-2.39,2.45,2.45,0,0,1,2.39,0A20.55,20.55,0,0,1,671.52,175.76Z"/><path d="M517.14,198.93l-2,2a16.8,16.8,0,0,1-1.78-3.83c-.11-.47,1.14-1.24,1.78-1.87C515.79,196.5,516.48,197.74,517.14,198.93Z"/><path d="M549.34,201a18.14,18.14,0,0,1,1.78,3.83c.11.47-1.15,1.24-1.78,1.88a17.7,17.7,0,0,1-1.79-3.83C547.45,202.37,548.7,201.6,549.34,201Z"/><path d="M740.45,206.67c-.21-2.77.36-5.3,3.78-4.53.93.22,1.3,3,1.92,4.53Z"/><path d="M355.84,252.77c.66.66,1.87,1.59,1.76,1.81a11.41,11.41,0,0,1-2.59,3.36,2.44,2.44,0,0,1-2.4,0,2.47,2.47,0,0,1,0-2.4A21.67,21.67,0,0,1,355.84,252.77Z"/><path d="M244.13,280.83c2.77-.2,5.3.36,4.52,3.78-.21.93-2.94,1.3-4.52,1.92Z"/><path d="M358.23,283.37c-1.13.88-2.83,2.75-3.29,2.48-3.43-2-1.09-3.64.79-5a2.49,2.49,0,0,1,2.4,0C358.56,281.35,358.23,282.53,358.23,283.37Z"/><path d="M244.13,286.53c.15,4-1.76,5.85-5.7,5.71v-5.71Z"/><path d="M361.9,293.06l2,2a17.7,17.7,0,0,1-3.83,1.79c-.47.1-1.24-1.15-1.87-1.79Z"/><path d="M346.82,303.65c2.77-.2,5.3.36,4.52,3.78-.21.93-2.95,1.3-4.52,1.92Z"/><path d="M654.88,326.47q.21,5.92-5.71,5.7Q649,326.25,654.88,326.47Z"/><path d="M649.17,334.72c-1.12.88-2.83,2.74-3.29,2.47-3.43-2-1.08-3.63.79-4.95a2.48,2.48,0,0,1,2.41,0C649.5,332.69,649.17,333.87,649.17,334.72Z"/><path d="M561.57,355.82l2,2a17.7,17.7,0,0,1-3.83,1.79c-.47.1-1.24-1.15-1.88-1.79Z"/><path d="M562.78,368.43l-2,3.68c-.64-.64-1.89-1.41-1.79-1.88a17.7,17.7,0,0,1,1.79-3.83Z"/><path d="M638.58,381.49l2-3.68c.64.64,1.89,1.41,1.79,1.88a17.7,17.7,0,0,1-1.79,3.83Z"/><path d="M586.42,491.91c.2,2.77-.36,5.3-3.78,4.52-.94-.21-1.3-2.95-1.93-4.52Z"/><path d="M586.42,506.17a17.66,17.66,0,0,1-3.83,1.78c-.47.11-1.24-1.15-1.88-1.78a18.14,18.14,0,0,1,3.83-1.78C585,504.28,585.78,505.54,586.42,506.17Z"/><path d="M625.89,597.91c-.66.66-1.6,1.88-1.81,1.76a11.41,11.41,0,0,1-3.36-2.59,1.71,1.71,0,0,1,2.41-2.42A21.15,21.15,0,0,1,625.89,597.91Z"/><path d="M1025.69,611.71q5.93-.23,5.7,5.7h-5.7Z"/><path d="M848.84,617.41c2.77-.2,5.3.37,4.52,3.78-.21.94-2.94,1.3-4.52,1.93Z"/><path d="M1008.57,625.66c-1.12.88-2.83,2.75-3.28,2.48-3.44-2-1.09-3.64.78-5a2.51,2.51,0,0,1,2.41,0C1008.9,623.63,1008.57,624.81,1008.57,625.66Z"/><path d="M1013.81,655c-.66.66-1.59,1.87-1.8,1.76a11.58,11.58,0,0,1-3.37-2.59,1.71,1.71,0,0,1,2.42-2.42A20.55,20.55,0,0,1,1013.81,655Z"/><path d="M994.31,708.69a17.7,17.7,0,0,1,1.79,3.83c.1.47-1.16,1.24-1.79,1.87a17.69,17.69,0,0,1-1.78-3.83C992.42,710.1,993.68,709.32,994.31,708.69Z"/><path d="M808.91,737.21H803.2c-.2-2.77.36-5.3,3.78-4.52C807.92,732.9,808.28,735.64,808.91,737.21Z"/><path d="M814.15,740.53c-.66.66-1.6,1.88-1.81,1.76A11.41,11.41,0,0,1,809,739.7a1.71,1.71,0,0,1,2.41-2.42A21.15,21.15,0,0,1,814.15,740.53Z"/><path d="M509.87,840.36c.66.67,1.87,1.6,1.76,1.81a11.58,11.58,0,0,1-2.59,3.36,2.42,2.42,0,0,1-2.4,0,2.45,2.45,0,0,1,0-2.39A21.15,21.15,0,0,1,509.87,840.36Z"/><path d="M698.13,1154.13c.66.66,1.87,1.59,1.76,1.8a11.61,11.61,0,0,1-2.6,3.37,1.71,1.71,0,0,1-2.41-2.42A20.55,20.55,0,0,1,698.13,1154.13Z"/><path d="M580.71,280.83v5.7c-2.77.21-5.3-.36-4.52-3.77C576.4,281.82,579.14,281.46,580.71,280.83Z"/></svg>