<svg id="Layer_1" data-name="Layer 1" xmlns="http://www.w3.org/2000/svg" viewBox="0 0 1200 1200"><title>BB_Artboard 5</title><path d="M389.77,457.31a4,4,0,0,1,4.15.72c2.38,2.75,6.19,4.9,8.29,2.61,3.91-4.29,8.19-4.52,13.18-4.48,14.86.13,29.73-.13,44.59.14,5.41.09,11.28-2,15.92,3.77,1.39,1.73,6.09,1.05,9.28,1.06q120.13.06,240.28,0c4.86,0,9-.38,13.41-3.91,3.09-2.45,9.45-.46,14.25-1.14,8.5-1.2,18.14,3.86,25.4-4.5.39-.45,1.5-.3,2.29-.36,8.05-.68,17.29,2.89,23.92-1.8,8-5.64,15.84-1.71,23.56-3.22.67-.14,1.34-1,1.72-1.69a1.77,1.77,0,0,0-.2-1.68c-3.08-2.37-4.64-6.65-9.68-6.56-13.21.22-26.43,0-39.63.14-4.28.06-7.79-.48-10.91-3.95-1-1.12-5-1.15-6.39-.07-9.56,7.54-20,3.45-30.14,2.74-.35,0-1-1.25-.84-1.65a3.36,3.36,0,0,1,1.68-1.74c5.91-2.22,12.39,2,18.6-3.24,5.78-4.83,14.12-1.62,21.32-2,6.58-.34,13.21-.07,19.81-.07,21.47,0,42.94.09,64.41-.09,3.57,0,5.74,1.64,8.59,3.36,10.45,6.29,11.09,7.26,5.74,17.1-.38.69-1.38,1.08-1.69,1.78-1.54,3.51.42,8.26,3.39,7.3,7.59-2.45,11.47,5,17.85,5.43,2.67.18,4.85,10.47,2.85,12.56a6.8,6.8,0,0,1-4,2c-4.11.27-8.34-.38-12.33.37-1.3.25-3,3.85-2.7,5.67.29,2,3.24,3.63,3.83,5.75,1.27,4.58,2.72,9.79-2,13.29s-6,9.05-8.89,13.68c-3.26,5.26-3.83,12.37-10.29,15.62-7.79,3.92-7.68,13.61-13.84,19.14-5.78,5.18-12.95,9.64-14.49,18.71-.45,2.66-4.38,4.72-6.72,7.06l-12.26,12.26c1.49,6.23-4,8.4-7,11.94-3.58,4.17-7.59,7.53-9.19,13.61-1.09,4.14-6.1,7.83-10.17,10.44-4.24,2.71-1.65,8.28-5.2,10.29-7,3.93-8.48,11.67-11.64,17.62-3,5.7-9.23,11.56-6.38,19.59-4.87,3.39-4.68,9.62-7.94,14.13-4.39,6.09-2.52,11.46,3.27,16.78,2.79,2.56,5.55,3.19,8.46.72a49.2,49.2,0,0,0,7-7c7.92-10,21-15.76,24.57-29.44l26.28-26.27c9.34-9.34,18.49-18.89,28.1-27.95,5.31-5,5.15-13.46,12.13-17.38,7.33-4.12,8.4-13.13,13.7-19.2,4.5-5.16,7.87-11.55,12.35-17.12,3.68-4.56,4.73-11.16,7.36-16.66,1.69-3.54,5.65-3.77,10.46-1.69,2.69,1.17,7.26-.25,7.69,3.81a24.34,24.34,0,0,1-1.67,11.58c-3.45,8.94-12.77,14-14.41,23.76-8.62,6.33-9.87,18.5-19.24,24.27-1.37.84-3.35,2.28-3.37,3.46-.11,7.67-8.6,10.08-10.21,15.6-2.43,8.32-8,14.87-10.45,23-1.1,3.62-3.75,6.78-4.7,10.41-.76,2.93-1.15,7.16,2.63,8.38,2.95,1,6.54.42,9.74-.13,1.33-.22,2.36-2.17,3.53-3.34,4.67-4.67,9.28-9.41,14-14,7.65-7.38,15.39-14.65,23.09-22,10.9-.14,12.12-15.61,23.57-14.87,5.74-7.56,15.51-11.64,17.87-22.35.75-3.4,5.7-5.75,8.36-8.89,2.34-2.77,5.74-5.17,8.32-3.19,3.56,2.72,8.73,5.36,7.63,11.53-.41,2.3-.11,5.82-1.46,6.66-4.73,2.95-2.77,8.8-6.71,12.36-10.4,9.41-19.71,20-30.06,29.47-5.52,5-6.6,12.4-11.2,17.79-.64.76-.08,3.84.79,4.34,1.9,1.09,4.9,2.33,6.5,1.55,4.85-2.35,10.28-4.76,13.61-8.72,9.06-10.75,22.14-14.34,33.63-20.78,6-3.39,12.85-5.21,18.08-10.41,3.76-3.74,8.81-8,13.6-8.4,5.52-.5,7.68-5.58,12.58-6,6.38-.5,8-8.9,13.28-9.47,6-.65,8.06-5,11.71-7.88,4.57-3.62,13.91-.24,14.69,5.92.61,4.76.83,10.12-.81,14.45-1.29,3.43-6.22,6-2.92,10.24,2.91,3.74,8,.31,11.56,1.77,8.21,3.33,12.82-5.78,20.3-5.21,6.48.5,13.06-.19,19.6-.35,5.53-7.37,13.51-3.67,20.46-4.37,4.78-.48,9-.39,13.42-3.95,3.07-2.46,9.38-1.08,14.24-1,1.16,0,2.82,1.64,3.29,2.89s.53,3.91-.32,4.62c-3,2.49-4.43,6.93-9.34,7.3-5.41.4-8.72,6.53-15.35,5.13-4.45-.94-7,6.22-12.79,4.87-3.92-.91-8.32.42-12.32-.3-7.68-1.37-13.55,3.87-20.31,4.79-8.92,1.2-18.14-.06-27.2.41-6.2.33-10.59-1.59-15-6.06-11.13-11.39-11.48-11.4-26.33-3.86-6.16,3.13-12.73,5.33-18.08,10.46-7.26,7-17.55,9.27-26.23,14.17-3.32,1.88-6.87,3.34-10.32,5s-7.09,3-10.27,5c-3.33,2.14-6.11,5.12-9.32,7.47-6.86,5-16.2,5.6-22.16,12.26-4.62-.59-10,2-13.48-3.48-1.31-2-3.45-3.53-5.18-5.3-4.53-4.63-4.49-4.62-.24-12a8.64,8.64,0,0,0,1.46-4.28,5.68,5.68,0,0,0-1.91-4,5.36,5.36,0,0,0-4.57-.53,24.05,24.05,0,0,0-5.53,4.6c-8.79,8.72-17.5,17.53-26.3,26.24-5.12,5.06-16.19,4.42-22,.58-10.06-6.68-9.45-16.23-9-26.14.06-1.44-.87-2.91-1.35-4.37-1.75,1.05-3.53,2.06-5.24,3.17-.67.45-1.56,1.07-1.71,1.75-1.43,6.6-5.88,11.07-10.54,15.47a166.81,166.81,0,0,0-12.21,12.31c-3,3.56-7.81,5.56-8.7,11.27-.93,6-7.47,8.28-10.56,12.94-3.38,5.1-9.06,6.13-13.84,8.61-14.95,7.77-29.53-1.09-29.92-17.93-.08-3.3.22-6.63-.12-9.9-.15-1.39-1.49-2.65-2.46-4.26-8.74,8.84-17.63,17.43-26,26.49-4,4.27-10.37,3.41-14.23,8.15-1.26,1.55-7.23,1.37-9.29-.24-5.81-4.56-10.72-10.26-15.95-15.54-.54-.54-1.34-1.33-1.27-1.9,1.13-8.76-3.09-18.27,2.3-26.24,3.78-5.6,4.2-10.15.15-15.34-7,7-14.31,13.82-21,21.15-4.41,4.87-11.5,4.32-15.91,10.16-5.22,6.92-7.93,15.39-15.17,21.28-6.6,5.35-14.79,10.44-16,20.42-5.56,5.72-11.07,11.19-18.9,14.2-6.63,2.55-7.86,3.13-15.23-1-4.35-2.43-9.94-2.82-10.65-10.16-.31-3.17-5.6-5.72-8.21-8.89-.83-1-1-4-.31-4.59,8-6.37,3.82-15.17,6.29-25.16.48-1.5-.62-.83-1.38.12a1.48,1.48,0,0,0,2.09,2.1,10.17,10.17,0,0,0,2.26-2.93c.1-.18-1-1-3,.71-5.61,1.68-6.64,5.7-9.13,7.55s-4,4.93-8,4.73c-6.57-.33-13.19.22-19.74-.28-2-.15-3.69-3-5.81-3.68s-5.56-1.2-6.45-.14c-4.06,4.82-9.25,8.24-12.21,14.61-4.72,10.18-14.16,16.41-24.18,21.94-5.8,3.2-11,1.31-16.47,2-1.14.14-2.83-1.43-3.74-2.62-4.32-5.57-9.47-8.9-16.84-7.14-4.81,1.14-7.76-1.77-10.19-5.08a13.69,13.69,0,0,1-2.4-6.35c-.33-3-6.32-3.57-3.56-7.14,2.09-2.69,2.74-5.37,3.77-8.4,1.72-5.11,8.08-7,10-13.17,1.72-5.59,3.38-12.44,8.85-16s4.16-10.32,8.67-13.77c1.95-1.49,2.37-2.56.33-3.49-1.38-.63-3.76-1.48-4.42-.86-6.36,5.93-14.71,9.15-20.92,14.91-3.78,3.52-8.43,4-12.18,6.71s-6.07,6.78-11.37,8.45c-4.91,1.55-9.23,6.5-12.63,10.88-4.65,6-11.25,9.07-17.5,11.69-5.61,2.35-12.63,1.47-19,1.67-3.22.1-9.32-6.45-9.36-9.71-.1-6.59-.12-13.18,0-19.76,0-1.44.59-3.58,1.61-4.16,6.4-3.62.92-10.86,5-15.37,2.48-2.73,3-7.32,5.53-9.91,3.53-3.55,1.67-7.68,2.85-11.28.93-2.82,3.78-5,5.69-7.51,1.41-1.86,4.25-4.52,3.76-5.63-3.38-7.66,6.54-11.09,5.21-17.82,6.84-4.46,4.7-11.42,6.4-20,.48-1.5-.62-.83-1.38.12a1.48,1.48,0,0,0,2.1,2.09,10,10,0,0,0,2.25-2.92c.1-.18-1-1-3,.71-7.14,2.68-9.2,7.86-12.57,11.11-12.46,12-24.53,24.42-36.82,36.61-6,6-11.7,5.73-18.62-.51-.61-.56-1.15-1.18-1.75-1.74-2.75-2.56-2.67-2.4-7-.14-4.1,2.14-8.86,2.69-12,7-4.42,6-11.75,8.1-18.32,9.09-7.51,1.14-12,3.7-13.27,11.19-.46,2.65-1.74,4.46-4.81,4-5.22-.7-8.64,2.48-13,4.66-7.41,3.74-3.92,16.89-15.19,15.91-9.32,9.33-18.68,18.62-27.94,28-1.62,1.65-4.32,2.81-3.52,6-7.95,2.9-11.89,10.45-17.93,15.57a5.48,5.48,0,0,0-1.79,4c.88,8.65-3.28,13.23-11.35,15.12-2.49.58-3,2.57-3.87,5-1.65,4.78-2.26,4.33-11.94,5.18-2.85.25-3.65,5.34-7.64,4.61.66-3-1.26-6.28,1.68-9.21C181,727,218.12,689.7,255.51,652.63c2.58-2.56,6.68-3.59,10.07-5.33-1.08-6.7,4.06-6.56,8.19-8.84,3.4-1.89,7.13-3,10.3-5,3.39-2.14,5.93-5.64,8.83-8.55,4.66-4.65,8.85-9.95,14.11-13.76,4.19-3,9.77-4.1,14.59-6.33,8.79-4.05,10.54-13.09,13.34-20.85,1.31-3.62,1.24-7.34,4.33-10.63,7.05-7.47,10.6-17.7,19.12-24.27,1.8-1.38.59-6.16,1.75-9,4.33-10.53,11.4-12.71,20.46-6.21,2.14,1.53,4.73,2.82,1.66,7.09-4.42,6.16-8.17,13.1-7.62,21.57.17,2.58-5.36,3.71-4.71,7.8.13.8-.21,2,.19,2.33,1,.68,3,1.58,3.32,1.22,4.33-4.76,9.1-8.76,15.53-10.35-.23-6.55,5.14-9.51,8.68-13.69,5.74-6.76,13.08-4.42,20.07-3.57.75.09,1.61,2.6,1.71,4,.25,4,1,8.29-3.37,10.9-2.95,11.09-12.65,19.58-12.34,32,0,.55-2.63,1.16-5.14,1.74-.37,0,.65.28,1-.08a2.2,2.2,0,0,0,0-2.1c-1.15-1.62-2.56-3.66-4.31-.68-.23.4,1.39,1.88,3.26,2.86,1.67,3.13-.24,4.69-2.83,4.87-6.15.44-6.74,1.78-2.39,6.54,2.36,2.58-1.17,3.51-3.39,3.4-4.68-.21-6.19,3.14-4.93,6.17,1.93,4.61,7.91,9.22-3.15,9.37-2.17,0-1.67,1.76-.67,3.4,4.49,7.36,4.36,7.47.07,11.89-2.3,2.36-4.44,5-7.05,6.94-4.3,3.21-4.15,5.94.12,8.82-2.56,4.57-4.46,9.72-7.87,13.53-2.9,3.25-8.46,4.21-11.12,7.56-2.14,2.69,1.56,8.15-2.41,11.24-4.34,3.39-.39,4.86,1.27,7.07A8,8,0,0,0,362.8,699a43.51,43.51,0,0,0,6.6-2c.71-.26,1.15-1.16,1.78-1.69,6.15-5.24,10.22-13.37,18.16-15.89,8.5-2.7,11-13.24,18.61-14.62,8.65-1.57,10.77-12.61,20.11-11.52,5.35-7.45,14-9.69,21.53-13.76a27.37,27.37,0,0,0,5.84-3.79c4.8-4.53,10.32-8.69,13.81-14.12,3.95-6.15,11.27-5.77,15.71-10.33,4-4.14,8.16-8.18,12.25-12.27,4.67-4.67,9.2-9.49,14.05-14,4.6-4.25,7.85-10.61,15.42-10.55a30.2,30.2,0,0,1,10.5-15.46c4.13-14.3,17.75-20.61,26.39-31.11,1.25-1.52,4.15-1.94,6.38-2.29a48.16,48.16,0,0,1,7.41-.08c9.27,0,9.27,0,10.66,10.61a7.31,7.31,0,0,0,.51,2.26c1.1,2.22,2,2,3.54.54,6.52-6,7.94-15.76,15.67-20.82a25.6,25.6,0,0,0,3.53-3.46c2.37-2.36,2.11-.84,8.83.32,6.56,1.13,8,3.41,7.64,9.23-.35,4.83.82,10-4.4,13.07-4.39,13.12-12.2,24.63-17.54,37.3a61.79,61.79,0,0,1-5.29,10.18c-2.2,3.3-6.54,5.91-7.17,9.34-.89,4.76-4,7-6.86,9.55-4.37,3.84-3.51,10.23-8.43,14.11-4,3.18-7,8.54-8.71,13.52-1.62,4.7-3.58,8.59-7.22,11.91-4.27,3.89-7.82,8.66-12.41,12.07-4.91,3.63-5.05,9.83-8.75,13.75-3.87,4.1-7.11,8.08-9,13.7-1.16,3.5-5.71,5.78-8.28,9-.8,1-.5,3.34.06,4.78.3.8,2.87,1.71,3.24,1.35,4.61-4.48,10.81-6.25,16.39-8.38,4.3-1.64,6.74-4.58,9.16-7.45,1.78-2.09,1-5.79,3.62-8.37,7.55-7.44,16.6-14.31,21.37-23.34,4.87-9.2,12.6-14.74,19.24-21.56,4.63-4.75,6.45-10.79,9.81-16,2.45-3.78,3.67-8.57,7.47-11.64a9.16,9.16,0,0,0,3.8-8.41c-.15-2.22.14-5.37,1.56-6.64,10.77-9.74,13.1-24.92,23-35.16,1.52-1.57,1.57-4.75,3.2-6,6.64-5,7.72-13.59,13.69-19.32,9.18-8.8,20-16.37,25-29.14,1.29-3.35,4.86-5.8,9.85-5.8,12.79,0,11.62-.22,13.14,11.1,1.28,9.55-6,16.1-5.74,25.25.21,6-11,7.43-9.49,15.69-9.05,7-11,19.75-20.93,25.94-4.07,2.54-2.52,9.22-5.3,9.86-6.37,1.47-7.56,6-10.3,10.51-5,8.15-14.23,12.37-18.54,22.06-3.44,7.74-11.77,13.34-18,19.77-6.93,7.08-13.62,14.46-21.09,20.92-10.46,9.05-16.29,21-22.93,32.62-3.16,5.54,1.59,13.91-6.73,17.07,0,8.25-.13,16.5,0,24.75.06,2.73,8,6,10.39,4.4,3.85-2.58,8.79-2.6,12.18-6.81,3.88-4.8,7.9-10,15.21-11,2.53-.36,6.37-4.41,6.41-6.81.1-7.11,5.7-9.67,9.48-13.5,22.6-22.93,45.46-45.6,68.19-68.38,4-4.06,10.13-7.73,11.3-12.55,1.36-5.58,5.47-7.75,7.9-11.7,2.8-4.55,6.16-9.21,7.23-14.26,1-4.71,4-7.35,7-9.39,4.1-2.77,2.82-7.19,4.9-10.55,6.58-10.62,10.38-23.07,21.19-30.81,3.44-2.46,1.24-7.44,5.13-10.37,7.68-5.8,9.49-16.31,17.48-22.5,7.76-6,14.18-13.78,21.17-20.8,3-3,2.9-2.91-2.26-5.24-5.68-2.58-10.69-6.39-17.8-5.09-8.42,1.55-17.66-2.34-25.38,4.88-1.76,1.64-6.38.24-9.68.24-19,0-38-.14-56.95.09-5.41.07-11.74-2.37-15.65,4-3.83-.11-5.49-5.89-9.94-4-3.51,1.47-5.43,6.18-10.37,5-1.55-.38-3.28-.06-4.93-.06q-102.78,0-205.54.07c-5.08,0-9.83,0-12.83-4.94-7.84,9.45-18.4,3.72-27.66,4.65-9.8,1-19.78.22-29.69.22s-19.81-.09-29.71,0c-4.8.07-7,6.34-12.85,5.12a38.68,38.68,0,0,0-14.78,0c-7.75,1.48-12.31-2.5-16.78-7.61-3.4-3.88-6.73-3.14-10.22.29-4.81,4.72-10.94,1.35-16.42,2-.87.11-3-2.26-2.87-3.14,1-4.95-4.62-6.55-4.94-10.38-.16-2,1.42-5.69,2.59-5.85a57.73,57.73,0,0,1,14.8-.16c6.8.83,10.12-7.54,17.87-5.41,6.14,1.68,13.11.34,19.71.34,11.59-8.72,25-4.08,37.58-4.81,12.34-.7,24.76-.26,37.14-.06,2.57,0,4.49,1.73,3.93,6,0,.37.29-.66-.08-1a2.15,2.15,0,0,0-2.09,0c-1.63,1.15-3.67,2.56-.69,4.31C387.31,460.8,388.79,459.18,389.77,457.31ZM350.12,595c3.43.12,5.09-1.53,7.84-9.51a18.64,18.64,0,0,0-2.82,2.39,1.49,1.49,0,0,0,2.1,2.1,10.06,10.06,0,0,0,2.25-2.92c.1-.19-.95-1-4.41,3-3.43-.12-5.08,1.53-5,7.17,0-.74.29-1.77-.08-2.13a2.15,2.15,0,0,0-2.09,0c-1.63,1.15-3.66,2.56-.68,4.31C347.66,599.56,349.15,597.94,350.12,595Zm389.43-29.33a17.56,17.56,0,0,0-2.82,2.39,1.49,1.49,0,0,0,2.1,2.1,10,10,0,0,0,2.25-2.93c.1-.18-1-1-4.41,5.2,0-.74.29-1.76-.08-2.13a2.15,2.15,0,0,0-2.09,0c-1.63,1.15-3.66,2.56-.68,4.31C734.21,574.78,735.69,573.16,739.55,565.64Zm26.86-40c-7.83,1.94-10.71,7.17-15.69,18.36l-.52-.42c-2.86,3.72-5.89,7.33-8.43,11.25-.54.83.58,2.85,1.16,4.23a2.38,2.38,0,0,0,1.59.74c3.63-5.11,10.8-7.35,11.94-14.45a20.66,20.66,0,0,0-.07-4.84,3.91,3.91,0,0,0-2.27.06c-1.27,1-2.29,2.27,2.37-.07,7.83-1.94,10.71-7.17,12.8-19.41a17.13,17.13,0,0,0-2.82,2.39,1.48,1.48,0,0,0,2.09,2.09,9.83,9.83,0,0,0,2.26-2.92C770.91,522.42,769.86,521.61,766.41,525.59ZM552.07,621c-.58-.24-1.57-.82-1.68-.68-2.92,3.59-8.56,5.61-7,11.86.19.77-.29,2,.12,2.36a2.35,2.35,0,0,0,2.31,0,81.55,81.55,0,0,0,7.37-9.26c.55-.85-.68-2.85-9.77,11.62.77-2.31,0-3.14-2.29-2.27a3,3,0,0,0-1.64,1.49,9.21,9.21,0,0,0-.92,4.18c.18,1.33,1.26,2.53,2,3.78,1-.85,2.4-1.54,2.78-2.61C543.77,640.13,543.4,638.46,552.07,621Zm111.09-74.11.52.42c2.85-3.72,5.88-7.33,8.43-11.26.54-.83-.59-2.84-1.16-4.22a2.47,2.47,0,0,0-1.6-.75c-3.63,5.12-10.79,7.36-11.93,14.46a20.12,20.12,0,0,0,.06,4.84,3.94,3.94,0,0,0,2.28-.06c1.26-1,2.28-2.27-2.38.06-3.43-.12-5.08,1.53-5,12.32v-7.36a51.76,51.76,0,0,0-5.86,3.45c-5.12,4-5.06,11-8.87,15.84-.55.69.52,2.9,1.25,4.17.15.25,2.43-.24,3.25-.95,2.44-2.12,4.4-4.87,7-6.75,4.06-2.93,3.26-6.94,3.23-15.76C655.85,555.45,657.51,553.79,663.16,546.87Zm-134.63,92v-4.27a44,44,0,0,0-4.19,1.75c-6.13,3.28-5.14,11.14-10.23,15.53-4.59,4-11.27,7.21-10.57,15.14-4.63,4.64-8.8,9.89-14,13.73-5.55,4.09-4.53,11.87-10.25,15.55-9,5.83-10.46,17.74-19,24.19-1.14.87-.78,4.36-.28,6.43.22.88,2.56,1.68,4,1.76,4,.23,7.79.69,11-3.18,4.16-5,9.44-9.11,13.69-14.07,3.54-4.15,8.29-6.85,10.53-12.82,2.1-5.59,8.09-9.67,12-14.69a12.19,12.19,0,0,0,2.29-6.35,17.78,17.78,0,0,1,2.73-8.78c4.07-6.44,8.35-13.11,7.46-21.52-.11-1.06,2.32-2.2,3-3.58,1-2,1.58-4.28,4.65-13.64a18.64,18.64,0,0,0-2.82,2.39,1.49,1.49,0,0,0,2.1,2.1,10.06,10.06,0,0,0,2.25-2.92C533,631.45,532,630.64,528.53,638.88ZM682.16,683.8c0,4.12-.18,8.26.06,12.37.16,2.71,9.36,9.12,11.23,7.7,3.78-2.89,8.65-3.81,12.1-6.47,3-2.3.78-10.36,8.63-8.27,3.52-3.46,8.17-6.34,10.29-10.51,2.91-5.73,5.78-11.13,10.69-15.4,1-.86,1.11-2.8,1.5-4.27,1.85-7,10.39-9.52,11.24-17.76.33-3.18,5.44-5.84,8.32-8.8,3.43-3.51,9.12-6.76,9.67-10.7,1-6.88,6.87-8.82,9.46-13.57s3.89-9.92,5.95-14.84c2.18-5.2,9.07-7,9.88-13.23s9-7.83,9.54-13.26c.46-4.7,4.18-6.57,5.39-10.26,1.42-4.34,3.46-8.48,4.84-12.84,1.59-5,9.57-1.74,9.33-5.43-.62-9.57,12.62-10.93,10.87-20.43q9.63-9.63,19.25-19.25c4.67-4.67,9.57-9.13,13.85-14.13,1.17-1.37.9-4.43.44-6.53-.19-.88-2.58-1.8-4-1.81-14.84-.13-29.7,0-44.55-.13-4.67-.05-5.51,2.77-5.07,6.25.83,6.7-1.27,12.22-4.86,17.86-3.26,5.1-4.16,12.56-8.63,15.92-5.81,4.37-4.74,12.14-10.23,15.79-5.72,3.79-5.81,11-10.3,15.66-4.24,4.44-11.5,7.2-10.66,15.3-4.08,4.08-8.37,8-12.19,12.31-3.07,3.47-6.72,6-8.17,11.51-1.29,4.86-7.17,8.54-11.16,12.62-5.76,5.9-11.65,11.68-17.48,17.52-.77,9.19-9.51,12.53-13.85,19a42,42,0,0,0-6.26,14.64c-.8,4-.64,7.84-4.33,10.68-2.59,2-4.59,4.75-7.08,6.9s-4.26,4.7-3.78,8.39A57.34,57.34,0,0,1,682.16,683.8ZM593.17,559a13,13,0,0,0-1.41-2.32c-.43-.45-1.46-1-1.67-.86-8.23,6.6-16.91,17.58-21.86,28a131,131,0,0,0-4.93,12.8c-.17.47.59,1.4,1.11,1.94s1.46,1,1.68.85c8.22-6.6,16.87-17.59,21.87-28C589.94,567.29,591.51,563,593.17,559Zm230.35-92.87c3.22,0,6.49.29,9.64-.17,1-.15,2.2-2.19,2.5-3.55a8.06,8.06,0,0,0-.7-4.46c-.94-2.36-2.07-2.21-3.39,0-3.26,5.32-8.64,2.58-13.12,3.33-.64.1-1.72,1.25-1.61,1.61.37,1.17,1,2.79,1.9,3.14C820.15,466.51,821.91,466.12,823.52,466.12Zm-19.23,14.15,1.76-1.76a15.58,15.58,0,0,0-3.32-1.55c-.41-.09-1.08,1-1.63,1.55ZM552.59,598.16c-.57-1-1.16-2.12-1.76-3.19-.55.55-1.64,1.22-1.55,1.63a15.58,15.58,0,0,0,1.55,3.32Zm5,13.44-1.76-1.77a15.65,15.65,0,0,0-1.55,3.33c-.09.41,1,1.08,1.55,1.63C556.38,613.71,557,612.64,557.55,611.6Zm-19.82,11.34c-.58-1-1.17-2.12-1.77-3.19-.55.55-1.64,1.22-1.55,1.62A15.43,15.43,0,0,0,536,624.7Z"/><path d="M791.18,1070.72c-3.14,5.65-4.24,6.42-8.36,3.8-2.54-1.62-4-5-7.17-.81a5.93,5.93,0,0,1-4.08,1.88c-5.77.2-11.63-.5-17.3.24-6.16.81-12.41-2.28-18.7,2.86-5.79,4.72-14.15,1.48-21.35,1.87-6.57.36-13.27-.52-19.72.43-3.23.47-1.32,3.36.43,5a6.66,6.66,0,0,1,1.71,1.77c1.43,3.13-.38,7.71-3,7.73-9.08.07-18.16-.18-27.23.1-5.42.17-11.71-2.25-15.61,4.07l-26.51-.1c-3.33-5.3-6.07-2.7-8.75.66-7.08-8.34-16.61-4-25.08-4.57-8.2-.6-16.49-.07-24.74-.17-2.31,0-4.79.87-6.79-1.64-1.08-1.37-2.15-4.38-5.26-1.34-3.31,3.23-5.52,7.86-11.47,8.28-2.58.19-5.77,3.32-7.18,5.93-2.21,4.09-2.65,9.29-7.22,11.8-4.85,2.66-4.31,8.21-6.64,12.2-3.2,5.47-5.91,11-10.77,15.32s-9.13,9.57-14.14,13.84c-4.16,3.55-6.46,9-13.08,10.32-5.08,1-9.17,6-15.37,4.77-1.06-.21-2.43,1.84-3.84,2.45-7.62,3.33-7.64,3.29-15.13-.58-3.4-1.75-7.15-3.07-10.08-5.4-1.84-1.46-2-1.7-3.71.11-6,6.35-13.88,2.32-20.89,3-1.8.19-4.12-2-5.79-3.62-4.79-4.53-9.48-9.19-14-14-3.46-3.65-8-2.49-11.48-1.65s-7.11,7.47-10,4.26c-4.15-4.57-10.63-3.41-14.21-8.31-2.89-4-6.93-7-10.37-10.6-3.9-4-4.42-11.51-.84-15.12,12.76-12.9,25.64-25.69,38.47-38.52,14.22-4.21,20.58-17.76,31.15-26.31.85-.69,1-2.27,1.44-3.44-1.46-.47-2.9-1.32-4.37-1.36-11.1-.31-19.73,3.08-27.68,10.76-3,2.87-5.63,6.08-8.8,8.7-8,6.61-14,15.18-23.55,20.6-9,5.07-15.58,14.23-23.43,21.37-1.62,1.47-4.14,1.89-6.17,3-8.14,4.26-16.33,8.42-24.34,12.91-5.52,3.09-10.15,3.37-15.31-1.16-3.46-3-4.52-3-8.2.08-5.21,4.39-10,4.49-15.27.93-1.31-.87-2.4-2.14-3.79-2.82-6.34-3.12-9.33-10.3-4.7-13.81,6.2-4.7,8.46-11.72,11.52-17.73a51.05,51.05,0,0,1,9.28-13.43q24.48-24.51,49-49c1.16-1.17,2.28-2.39,3.51-3.49,4.8-4.32,13.44,1.74,17.07-6.93,2.8-6.66,9.73-4.74,15.23-4.56,3.81.12,5.68-2.29,8.32-4.06,1.53-1,5.37-1.05,6.39.08,3.11,3.48,6.76,3.47,10.86,4.07,6,.87,10.65,7.45,17.78,4.75,3.82,5.53,9.49,5.42,15.26,5,2.42,5,8.74,3.68,11.84,7.1,3.65,4,5.38.82,7.05-1.38,5.13-6.77,7.33-15.14,12-22.32,2.46-3.8,3.45-8.61,7.31-11.76,5-4.09,8-9.4,10.8-15.3,2.23-4.76,7.67-7.34,9-13.72.72-3.49,5.18-8.63,11.42-7.11C492.12,959,502,955,504.34,944.25c.52-2.41,6.08-3.72,9.32-5.53-1-5,3-7.2,5.75-10q17.43-17.57,35-35c1.75-1.75,3.31-4.73,5.28-5,7.1-1.06,10.74-6.49,15.51-10.62,1-.85,3.08-.64,4.64-.58,3.33.14,6.3,0,8.74-3,2.63-3.15,5.77-5.88,8.68-8.8,5.84-5.83,12.51-11.06,17.24-17.69,4-5.53,14.86-3.47,14-13.51,4.5-6.45,14.13-9.08,14.07-18.92,4.07-3.66,10.06-3.83,13.85-8.6,2.82-3.54,5.34-8.24,11-9,2.1-.27,4.29-1.91,5.91-3.48,7.12-6.87,14.05-13.94,21.79-21.68,3.84,4.2,7.82,8.27,11.41,12.67.83,1,.48,3.12.38,4.71,0,.66-.81,1.32-1.35,1.89-4.47,4.76-11.12,8.81-12.9,14.41-2.24,7-7.68,10.18-11.68,15a132.93,132.93,0,0,1-14,14c-5.48,4.84-5,13.76-12.19,17.27-1.63,6.5-13.84,2-12.28,11.81-5.69,3.72-4.17,12-9.91,15.69.68,5.16-1.66,6.31-6.68,7.4-7.94,1.73-6.86,12-12.41,16.52a14.44,14.44,0,0,0,2.37,2.91,2.62,2.62,0,0,0,2.38,0,27,27,0,0,0,5.8-3.88c15.24-15.09,30.33-30.35,45.59-45.42,4-4,7.5-7.82,9-13.67.82-3.28,8.78.7,8.47-5.91-.24-5,4.24-6.62,6.78-9.55,3.23-3.74,6.93-7.06,10.43-10.56,4.09-4.08,7.76-8.72,12.37-12.09,4.39-3.2,4.11-8.46,7-12,1.93-2.37,4.78-5.2,7.46-5.49,4.92-.54,6.49-4.55,9.62-6.87,1.26-.94,3.13-3.2,3.39-3a29,29,0,0,1,5.34,5.1c3.42,4.25,3.69,9.6.38,13.16s-3.32,7.12-3.27,11.15c-3.43-.12-5.08,1.53-5,6.06,0,.37.29-.65-.08-1a2.18,2.18,0,0,0-2.09,0c-1.63,1.15-3.67,2.57-.69,4.31.4.23,1.88-1.39,2.86-3.26,3.43-1,5.08-2.63,5-6.06,3.45-1.65,6.79-4.4,10.35-4.73,7.9-.73,9.4-1,9.57,6.59.16,6.78.17,13.11-6.63,17.12-3.18,1.88-4.09,5-3.34,8.48,1.08,5-2.91,7.08-5.35,10.21-2.65,3.41-10.11-.08-10,8,0,3-4.8,6.06-7.28,9.19-2.9,3.64-8.48,5.61-7.34,11.92.11.64-2.25,2.39-3.56,2.51-3.53.31-5.21,1.07-6.46,5.21-2.25,7.4-5.77,14.59-12.13,19.69-3.95,3.18-2,7.52-2.39,11.39-.07.64.57,1.39,1,2,1.13,1.74,2.24,1.47,3.51-.6,1.64-2.65,5.65-3.61,5.37-7.69-.34-5,4.16-8.33,7-9.08,5.36-1.41,8.74-2.81,8.41-8.9,0-.55,1.06-1.64,1.68-1.68,13.69-.92,16.07-17.54,28.73-20.51,4.14-1,7.45-6,10.9-9.34,8.26-8.09,16.9-15.86,24.37-24.63,5.92-6.94,13.15-5.12,20.19-5.19,2.91,0,9,9.18,7.62,11.24-2.7,4-5.21,7.48-5.14,12.89,0,3.42-3.79,6.73-4.46,10.36-1,5.6-6.21,7.28-8.86,11.23-.43.64-1.15,1.3-1.17,2,0,1.58-.28,4,.57,4.56,1.83,1.22,5.13,2.73,6.34,1.91,4-2.7,7.14-8.81,10.95-9.1,5.46-.41,7.49-5.56,12.74-5.88,4.25-.26,7.35-5.57,12.42-5.58,4.35-6,10.81-9.36,17.29-12.06,5.63-2.34,10.37-6.85,16.83-7.19,3.78-8.12,14.73-1,18.66-8.74,4.84-.26,9.69-.58,14.53-.76,3.3-.11,6.8-.72,9.87.12,7.89,2.16,14.25-2.48,20-5.61,4.64-2.53,10.44-3.3,14.26-7.68s11.51,1.33,15.31-5.17c.78-1.34,4.33-1.22,6.64-1.47,8.55-.93,17.54,2.26,25.46-4.67,2.33-2,9.15-2,11.89,0,9.61,6.85,20.14,4,30.35,4.64,5.5.36,10.64-.62,15.81,4.1,4.35,4,12.32-1.5,18.22,3.64,3.88,3.39,9.27,5.46,14.32,7,6.9,2.11,9.9,8.27,14.51,12.63,4.44,4.21,11.77,7.21,10.11,15.5-1.23,6.12,7.22,8.51,5.19,15.34-1.74,5.88,2.43,13.25-4.46,18a2.35,2.35,0,0,0-.64,2.13c3.58,9.47-5.4,16.36-5.09,25.21.2,5.54-6,8.68-5.4,15.32.4,4.59-3.35,10.19-6.59,14.26-3.47,4.36-2.92,10.88-8.47,14-1.87,1.05-3.17,3.52-4.19,5.6-3.76,7.68-5.89,16.36-13.41,21.66-6.42,4.54-9.09,13.52-18.9,14.44-3.17.29-6,5.36-8.78,8.35-6.19,6.55-14,9.43-22.66,11.18-5.11,1-9.85,4-14.64,6.37-1.4.69-2.75,3.38-3.52,3.15-7.15-2.12-11.93,3.35-17.85,5-3.07.85-6.58.36-9.86,0-1.41-.13-2.72-1.33-4.07-2,1-.94,2.15-2.77,3.09-2.67,6.12.59,11.17-.85,14.92-6,2-2.72,5.49-2.93,8-4.35,7.37-4.14,16.44-6.34,22.13-11.86,6.49-6.31,15.71-7.75,21.37-15.13,3.56-4.63,12.7-3.74,14.22-11.07,1.67-8.08,9.77-10.72,13-17,2.77-5.33,5-11.32,7.64-16.58,6.94-13.63,14.29-27.06,20.65-41,.94-2.06,4.33-2.89,3.42-6-2.28-7.74,6.78-12.4,5.11-20.26-2.14-10.05,4.26-21.75-4.11-30.41-6.39-6.62-16-9-24.12-13.31-5.75-3-12-6.62-20-5.87-6.52.61-12.38-5.81-20.22-4.74-8.1,1.11-16.47.25-24.73.25-7.42,0-15.08,1.12-22.21-.33-6.87-1.39-9.43,7.23-15.3,5.15-6.8-2.42-9,7.43-15.32,5.07-5.79-2.15-8,4.32-12.76,5.22-7.16,1.33-10.61,6.37-9.92,14.15.5,5.73.07,11.55.1,17.32.06,8.43,1.56,9.27,9.83,5.48.71-.33,1.16-1.61,1.77-1.65,6.35-.37,11.85-2.58,17.6-5.48s11,1.2,14.31,6.27a7.28,7.28,0,0,1,.08,6.48c-1.69,2.65-5.4,6.86-6.84,6.36-8.33-2.93-13,5.48-20.35,5.63-6.8.15-12.54,6.93-20.24,4.66-7.91,4.12-16.22,5.54-25.19,5.17-5.22-.22-7.1-7.2-12.79-5.17-2.58-4.65-6.6-9.08-7.34-14C889.93,883.11,888,877,893,872c2.57-2.59,3.35-6.87,5.49-10,1.81-2.67,4.69-4.61,6.54-7.26.74-1.05.34-3.29-.24-4.7-.3-.7-2.66-1.4-3.28-1-10.74,7.58-24,10.41-34.47,18.47-5-.89-7.56,3-9.77,6-2.74,3.82-7.3,2.88-10.31,5.2-8,6.16-17.68,9.34-26.09,15.14-8.68,6-16,13.07-24,19.66-5.38,4.46-12.56,6.47-17.2,12.31-2.38,3-5.21,7.87-9.66,5.8-4.12-1.92-8-4.36-12.27-6.25-1-.44-1.52-4.85-.56-6.33,6.68-10.36,10.91-22,17.53-32.35,2.14-3.32.89-6.26,1.56-9.31,3.43.13,5.08-1.52,6.39-7.23.49-1.5-.61-.83-1.37.12-.36.45-.07,1.42-.07,2.16.74,0,1.73.3,2.16-.06a10.06,10.06,0,0,0,2.25-2.92c.1-.19-.95-1-3,.7-4.87,2.15-6.52,3.8-6.39,7.23-7.5.81-9.17,11.62-17.85,10.41l-13.92,13.93Q722.79,923.55,701,945.29c-2.45,2.43-3.62,2.35-8.39-.43-1.35-.79-2.33-2.24-3.71-3-6.91-3.52-8.44-7.22-5.33-13.81,1-2.07,2.43-3.91,3.47-6a2.63,2.63,0,0,0,0-2.36c-.91-.82-3-1.9-3.19-1.7-5.84,7.41-15,11.7-18,22.11-1.32,4.62-7.36,10-12.13,11-6.69,1.45-8.71,6.9-13.8,10.35-2.64-2.63-5.41-5.34-8.11-8.12-5-5.15-5.33-5.39-1.3-11.81,2.46-3.91,1.82-9.57,6.82-12-.74-4.64,2.57-7.11,5-10.32,1.18-1.59.2-4.77,1.64-9.51.49-1.5-.61-.83-1.38.11a2.13,2.13,0,0,0,0,2.08,2.11,2.11,0,0,0,2.08,0,9.8,9.8,0,0,0,2.25-2.92c.1-.18-.95-1-3,.71-4.58,1.47-5.75,4.17-7.39,5.8-17,16.89-33.88,33.83-51.65,51.6-3.22-3.63-6.47-7.24-9.66-10.9-2.57-3-3.47-11-.62-13.27,7.18-5.75,9.54-14.16,13.38-21.79a16.14,16.14,0,0,1,2.31-4c4-4.18,10.17-7.58,11.66-12.46,1.57-5.14,4-8.86,7.67-11.65,4.27-3.2,2.37-9,6.74-12.3s9.17-7.75,10.82-12.69c1.75-5.25,5.51-7.85,8.71-11.23,2.85-3,1-6.24,3.08-11.56.48-1.49-.62-.83-1.38.12a1.48,1.48,0,0,0,2.09,2.1,10.09,10.09,0,0,0,2.26-2.92c.1-.19-1-1-3,.7-20.85,17.84-27.17,24.46-41.11,43.67-.88,1.21-2.19,3.12-3.17,3-3.77-.3-6,1.73-8.27,4.14-4,4.17-8.12,8.18-12.19,12.25-4.66,4.66-9,9.66-14.07,13.87-4.12,3.44-9.78,5.2-13.43,9-7.12,7.39-15,13.82-19.93,23.72-4.21,8.38-13.51,14.16-20.31,21.33a11.31,11.31,0,0,0-2.66,6.23c-.58,5.62-.31,11.34-1,16.94-.29,2.38-1.87,2-3.41,0-2.82-3.68-6.26-5-10.12-1.17-2.91,2.9-6.17,5.55-8.62,8.82-1.76,2.36-1.75,6.21-3.74,8.2-4,4-2.77,11.09-8.57,13.84-5,2.37-3.14,8.78-6.92,12-.77.65-.73,2.26-1.06,3.42a20,20,0,0,0,4.43,1.16c2.4.08,6.06.67,7-.58,5-6.74,12-4.47,18.11-4.11,10.35.62,15.64.44,19.34-3.25,4.08-4.07,8.66-7.77,12.13-12.3,9-11.75,23.85-16.36,33.15-27.74,1.14-1.39,4.44-1.56,6.67-1.39,3.72.29,5.68-2.43,8.44-3.65,3.31-1.46,8.68-2.19,11.24-.44,3.37,2.31,7.23,3,10.3,5.06,3.93,2.63,1.13,7.59,1.68,11.49a30,30,0,0,1,0,7.39c-.59,5.39,1.92,11.19-3.41,15.95-4.21,3.75,1.66,11.77-5.34,15-.44,6.13-4.74,9.73-8.61,13.78-1.44,1.51-2,4.16-2.25,6.37-.09.82,1.78,1.88,2.75,2.82,6.1-6.71,12-6.77,18.83-.53,1.86,1.71,6.18.93,9.37.94,18.94.07,37.92-.72,56.8.33,10.92.6,22.77-5,33.05,3.72.77.64,4.73-3.62,7.34-3.82,7.36-.56,14.84.28,22.2-.32,8.52-.69,18.12,3.86,25.22-4.62,11.5-.07,23-.39,34.49,0C786.25,1066,787.08,1071.43,791.18,1070.72ZM726.76,832.84c-3.85,0-7.71-.19-11.53.12-1.11.1-2.11,1.66-3.15,2.54a10.37,10.37,0,0,1,1.6,1.65c1.12,1.83,2.12,3.73,3.17,5.6-2.46,0-6.22-1-7.18.17-7.39,9.29-19.77,14.15-23.1,27.27-1.26,5-8.45,6.59-9.8,13.2-.83,4.09-7.84,7-8.56,11-1.16,6.42-5.31,9.67-9.2,13.48-2.94,2.88-1,6.17-1.63,11.41,0-.74.29-1.76-.08-2.13a2.18,2.18,0,0,0-2.09,0c-1.63,1.15-3.67,2.57-.69,4.31.4.23,1.88-1.39,2.86-4.36,2-1.15,4.27-2,5.86-3.5,6.43-6.24,12.63-12.7,18.92-19.07.44-10.52,10-14.29,16-20.15,7.51-7.32,10.3-17.83,18.51-24.47,1.2-1,.17-4.7.17-7.15,5.4-1.2,8.7-4.51,12.81-19.4-.54.27-1.47.43-1.57.81-.55,2.09-.79,4.27-1.36,6.37-.64,2.34,0,3.14,2.32,2.27a3.31,3.31,0,0,0,1.66-1.49C732.4,827.92,731.81,823.9,726.76,832.84ZM434.37,1131.75c0-4.09-.32-6.6.09-9s-.12-3.37-2.53-2.43a3.57,3.57,0,0,0-1.73,1.7c-1.25,2.76-1.61,6.39-3.63,8.25-6.33,5.84-10.54,14.51-20.43,16.08-.73.11-1.7,4.48-1,6.31.77,2.1,3.48,3.4,4.93,5.35s2.37,2.27,3.55.38c2.37-3.78,4.68-3.37,7,.11,1.12,1.7,1.83.24,3.56-.44,8.6-3.4,2.48-12.57,7-16.88,3.59-3.42,3.33-7,6.13-25.45a17.56,17.56,0,0,0-2.82,2.39,1.48,1.48,0,0,0,2.1,2.09,9.8,9.8,0,0,0,2.25-2.92C438.88,1117.11,437.83,1116.3,434.37,1131.75Zm5,7.89c0,1.75,0,3.39,0,5,.1,5,.77,5.71,4.87,2.76,6.92-5,16-5.61,22.26-11.94,4.34-4.37,7.5-10,15.22-11,4.84-.64,6.44-8.68,13.3-9.41,6.29-.66,7.63-10.2,15.64-10,2.33.06,5.25-3.71,7-6.34,1-1.57.61-4.45,0-6.5-.26-.88-2.6-1.34-4.07-1.64-5.25-1.08-8.68,2.21-12.92,4.56-4.57,2.54-11.33-2.06-16.18,2.43-5.62,5.22-12.35,2.23-18.55,2.75-6.67.57-10.9,4.15-11.31,10.09-.28,3.95-3.27,4.54-4.3,6.76-1.62,3.5-1.86,7.51-5.43,10.09C440.62,1130.28,438.19,1134.28,439.33,1139.64Zm114-118.48c-.54-1.37-.86-3.75-1.67-3.93-3-.67-3.46,1.52-3.29,3.93-2.44,0-5.33-.79-7.2.25-1.53.86-2.09,3.83-2.64,6s-.28,4.76-1,6.95-2,2-3.43-.07c-.79-1.19-2.24-1.94-3.4-2.89-3.52,5.27-10.77,7.45-12.08,14.56-1.37.54-3.75.86-3.93,1.67-.67,3,1.52,3.46,3.93,3.28-1.74,6.76,2.84,10.32,6.86,14.46,3.59,3.7,7,6.45,12.64,5.47,3.19-.56,6.56,0,9.83-.17,1.47-.09,4.18-1,4.15-1.37-.89-9.32,11.71-11.13,11.12-20.14,5-3.29,3.95-10,8.1-14,4.66-4.45-1.66-13.6,6.69-17.05.5-.2.54-3.86-.28-4.48-1.74-1.3-5.2-3-6.17-2.2C566,1015.8,559.19,1017.6,553.31,1021.16Zm-178.24,27.09c-5.31-3.82-10.35-2.29-15-2.15-5.35.17-8.83,7.12-15.23,4.84a3.33,3.33,0,0,0-2.33.24,4,4,0,0,0-1.74,1.7c-3.54,7.18-12.83,6.33-17.13,12.22-4.89,6.69-12.41,9.55-18.84,14-5.18,3.62-8,9.23-10.93,15.08-2.75,5.58-8.74,9.51-13,14.44-.72.83-.15,3.18.41,4.61.88,2.25,2.44,2.45,3.37.56,2.47-5,8.89-2.39,12.15-6.79s7.62-9.62,12.5-11c5.38-1.58,7.49-5.85,11.48-8.2,4.57-2.7,9.52-4.78,14.27-7.18,2.05-1,4.3-1.91,6-3.4,3.67-3.28,6.49-8,10.67-10.1s8.56-3.43,11.83-7.2C367.05,1055.85,371.1,1052.22,375.07,1048.25Zm98.95,22.1c-.08-.78.14-1.88-.3-2.31-3.36-3.28-9.45-2-11.85-7-2.73,4.42-8.26,3.78-11.8,6.58-.9.71-1.35,3.51-.7,4.4a52.53,52.53,0,0,1,6.32,12.2c.4,1,5.06,1.68,6.25.7,4.37-3.63,8.14-8,12-12.16C474.37,1072.32,474,1071.18,474,1070.35ZM918.44,868.4c-.59,0-1.42-.25-1.72,0-3.56,3.44-8,6.46-10.23,10.63-1.66,3-.71,7.62-.4,11.48,0,.69,2.6,1.6,4,1.68,5,.28,7-6.33,12.72-5.39,1.8.3,2.4-2.28.82-3.24-5.48-3.35-3.08-8.74-3.69-13.37C919.89,869.57,919,869,918.44,868.4ZM375.53,1140.1c3.3,0,6.62.21,9.9-.1,1.4-.14,3.95-1.64,3.86-2-1.28-5.65,5.51-7.74,5.44-12.72,0-.83.33-2.08-.07-2.39-1-.75-2.73-1.81-3.36-1.42-4.06,2.48-5.69,8.47-11.25,8.66-5.06.17-7,7.06-12.76,5.31-.37-.12-1.73,1.42-1.63,1.6.65,1.13,1.47,2.79,2.47,3A42.42,42.42,0,0,0,375.53,1140.1Zm58.84-58.2a6.35,6.35,0,0,0-.05-2.44,34.74,34.74,0,0,0-2.43-3.79c-.56.57-1.37,1-1.65,1.71-2,4.76-3.91,9.55-5.72,14.38-.19.52.41,1.38.74,2,1.1,2.27,1.85,1.92,3.45.08C431.79,1090.33,436,1087.5,434.37,1081.9Zm54.77-1.27c2.39,0,4.79.11,7.17-.08.61,0,1.7-1.21,1.6-1.58-.34-1.17-.91-2.81-1.81-3.16-1.4-.53-3.38.38-4.7-.22-6.92-3.2-6.87-3.3-10.19.32-.54.59-1.7,1.45-1.6,1.64.62,1.12,1.41,2.76,2.38,2.94A39.59,39.59,0,0,0,489.14,1080.63Zm-75.31,37.88-1.76-3.19c-.55.55-1.64,1.22-1.55,1.63a15.58,15.58,0,0,0,1.55,3.32Zm194-203.9c-.55-.55-1.22-1.64-1.63-1.55a15.58,15.58,0,0,0-3.32,1.55c.55.55,1.22,1.64,1.63,1.55A15.58,15.58,0,0,0,607.82,914.61Z"/><path d="M360,308.64c8-4.08,12.32-11.4,18.08-16.93,5.05-4.86,10.81-9,12.76-16.95,1-4.1,6.13-7.72,10.15-10.42,4.59-3.09,3.05-8.61,6.68-12.28,9.1-9.23,20.29-16.75,26.54-28.43C441,211,452.9,203.42,462.12,193.25c8.84-9.75,18.52-18.73,27.85-28,4.57-4.56,8.88-11,15.55-2.34.14.18,2.19-1.13,3.36-1.71,6.23-3.09,7.58-2.81,11.93,2.36,2.7,3.21,4.2,10.8,2,13.31-4.19,4.73-8.5,8.94-10.71,15.39-1.68,4.86-8,6.94-8.94,13.71-.54,3.9-6.12,7.49-10,10.47-8.48,6.5-10.59,17.81-18.95,24.45-1.2,1-.16,4.74-.16,8.31,0,.37.29-.66-.08-1a2.15,2.15,0,0,0-2.09,0c-1.63,1.15-3.67,2.56-.69,4.31.4.23,1.88-1.39,2.86-3.26,4.13-.51,5.43-4.26,7.61-6.36,9.41-9.12,18.58-18.46,27.85-27.73C522,211.72,527.77,200,537,192.56c7.81-6.31,17.37-9.49,26.33-13.54,3-1.38,6.51-5.57,7.25-4.81,5.07,5.15,14.25,4.53,17.19,11.92,1.12,2.82,1.57,8.27,0,9.43-10.06,7.51-11,20.56-18.71,29.28a26.29,26.29,0,0,1-3.52,3.23,6.65,6.65,0,0,1-1.66-1.66c-2.39-3.66-4.27-3.12-7,.51-2,2.66-3.51,4.85-3.76,8.4-.2,2.88-5.42,3.7-4.73,7.79-3.43-.13-5.08,1.53-5,4.95-1.65,1.07-4.09,1.79-4.76,3.3-.83,1.86-.2,4.38-.2,6.62-1.65,1.06-4.08,1.78-4.75,3.29-.84,1.86-.2,4.38-.2,6.62-3.43-.13-5.09,1.52-5,6.11.77-1.16,0-2-2.29-1.12a3,3,0,0,0-1.64,1.5,9.13,9.13,0,0,0-.91,4.17c.17,1.33,1.25,2.53,1.94,3.78,1-.85,2.4-1.54,2.78-2.61.49-1.36.12-3,.12-5.72,3.43-1,5.08-2.68,5-6.11,1.65-1.07,4.08-1.79,4.75-3.29.83-1.87.2-4.39.2-6.62,3,.67,6.49-1.49,9.26,1.68,1.17,1.33,2.61,4.81,5.17,1.21,1.81-2.55,5.68-3.59,5.41-7.67-.33-5,4.23-8.46,7-9.06,5.26-1.17,8.69-3.89,11.81-7.52a32.31,32.31,0,0,1,15.51-10.47c-2-10,8.85-6.82,12.2-11.8,3.62-5.38,8.4-10.8,14-13.82,5.87-3.18,11.55-8.71,19.35-6.92,1.44.33,3.86,1.3,3.91,2.09.41,7.37.63,14.77.36,22.14a8.94,8.94,0,0,1-3.1,6c-6.21,4.84-9.07,14-18.8,14.45-1.24,0-2.4,2.06-3.58,3.19s-3.44,2.44-3.33,3.48c.87,8.75-9.87,10.42-10.66,18-.17,1.63,0,3.3,0,6.05,0,.37.28-.65-.08-1a2.17,2.17,0,0,0-2.1,0c-1.62,1.15-3.66,2.56-.68,4.31.4.23,1.88-1.39,2.86-3.26,4-.29,4.81-4.78,7.73-5.76,4.36,7.13,7,1.69,10.59-1.1,4.24-3.33,9.32-5.61,13.56-8.95,3.86-3.05,7-7,10.59-10.41,7.54-7.33,15.84-6.14,21.95,3.12-1.27,8,4.2,7.23,9.19,7.13.82,0,2.22.29,2.39,0,3.79-7.48,12.28-2.68,17.09-6.6,2.72-2.22,5.83-2.35,8.43-3.66,5.45-2.76,7.64-11.12,15.9-9.51,6.05,1.18,8.63-7.54,15.37-5.19,1.59.56,4.2-1.45,6.21-2.54,7.6-4.1,15-8.17,24.31-7.45,3.3.25,6.72-3.72,10.35-4.46,3.94-.81,8.19-.18,12.3,0,.6,0,1.34,1,1.68,1.71A1.84,1.84,0,0,1,790,217c-3,2.44-4.72,7-9.76,6.33-9.27,7-22,8.41-29.69,18.17-.8,1-3.06,1.91-4.16,1.52-6.57-2.33-9.86,4.31-15.3,5.31-4.37.8-9.88,2.5-12.21,5.73-4.4,6.08-11.75,1.37-15.23,5.25s-9.4,2.29-12.32,6.71a5.67,5.67,0,0,1-4.1,1.83c-9.08.16-18.16.08-27.24.08-5.47-9.09-10.29,2-15.51.5-5.5,8.39-16.76,9.32-22.51,17.49-7.62,10.85-20.72,13.84-31,20.85-2.3,1.56-6.4,1.18-9.5.66-4.16-.69-2.23-5.65-4-7.52-3.2-3.43-3.39-4.82-.51-9.2a96.06,96.06,0,0,0,9-18.46,42.36,42.36,0,0,1,10.51-15.54c2.67-2.61,1.07-8,5.3-10.23a10.69,10.69,0,0,0-1.54-3.26c-.33-.41-1.63-.26-2.38,0-1.45.45-3.32.75-4.15,1.8-9.19,11.52-23.63,16.57-33.25,27.81S539.67,294,529.12,304.44c-4.63,4.59-6.6,4.39-12-.83-10.7-10.46-10.78-13.1-3.63-26.71,3.27-6.24,11.4-9.3,11.22-17.64,5.31-3.92,3.51-12.5,10.43-15.65,1.64-.75,2.19-3.89,3.25-5.93,4.36-8.39,8-17.32,16.12-23,4.86-3.42,3-10.88,8.58-13.74-1.32-.8-2.77-2.41-3.93-2.23-2.18.35-5.26,1.18-6.09,2.78-3.39,6.53-11.17,5.93-15.65,10.41L525.2,224.14l-14,14c-7.59,7.59-16.2,14.44-22.43,23-4.54,6.24-15.91,4.81-15.81,15.22-4.34,1.72-9.95,2.18-11.83,7.05-5.56,14.38-18.95,21.83-28.14,33-3.17,3.84-7.17,5.75-11.9,7.25-2.54.8-3.62,4.55-7.21.79a80.61,80.61,0,0,1-12.4-17.19c-2.54-4.62-2.16-7.4,1.44-10.33,3.27-2.66,1.06-6.16,1.73-9.21,3.43.13,5.08-1.53,6.39-7.23.49-1.5-.62-.83-1.38.12a2.12,2.12,0,0,0,0,2.07,2.09,2.09,0,0,0,2.08,0,9.8,9.8,0,0,0,2.25-2.92c.1-.18-.95-1-3,.71-4.87,2.15-6.52,3.8-6.39,7.23-6.84,3-12.83,7.75-14.53,14.75s-8.29,9-10.84,15.38c-2.82,7-9.91,12.58-15.74,18.13-2.64,2.52-7.91,1.23-10.07,5.39-1.11-.61-3.22-1.31-3.18-1.83.43-5.08-1.27-7.44-6.78-7.4-2.4,0-4.48-3.05-3.16-5.33,5.08-8.71,5.28-19.5,11-27.56,5.88-8.26,7.86-18.47,15.22-26.1,4.51-4.68,6-12.34,9.36-18.19,3.06-5.3,9.14-8.81,10.18-15.63,6.54-4,7.81-11.73,12.23-17.22.4-.49,1-1.31.79-1.7a3.75,3.75,0,0,0-1.69-1.74,6.33,6.33,0,0,0-2.33-.32c-.83-.05-2-.37-2.43,0-4.79,4.48-8.77,10.5-14.37,13.24-5.13,2.5-10.35,4.55-13.36,9.25-3.81,6-11.35,6-15.39,10.59s-9.66,5.31-13.76,8.75c-2.74,2.3-6.24,1.72-8.48,3.47-4.95,3.87-8.88,8.55-15.44,10.73-4.2,1.4-7.13,6.61-10.63,10.11-9.92,9.92-20.7,19.13-29.49,30-7.65,9.43-17.12,8.33-26.57,7.54-3.27-.27-6.17-4.73-9.26-7.26-3.29-2.69-5.47-5.71-4.9-10.41.26-2.13-.9-4.43-1.5-7-1.75,1.5-3,2.43-4.08,3.51q-10.53,10.47-21,21c-10.85,1.51-14.73,12-22.51,17.42-4.38,3-9.1,6.76-14.08,7.56-8.5,1.36-17.5-1.07-25.27,5.1-2,1.63-10.45-4.48-10.23-8.33.36-6.17-3.84-10.3-4.88-15.37-1.47-7.12-.37-14.77-.37-22.2,6.62-4.07,2.68-12.62,6.61-16.89,3.52-3.82,2.09-9.29,6.56-12.4,3.85-2.68,6.33-6.44,7.65-11.67.78-3.13,3.18-6.83,4.95-10.21s5.45-6.12,8.53-8.85c6.05-5.34,7-14,13.8-19.21,5.5-4.21,11.36-8.8,12.71-16.93.45-2.65,4.37-4.71,6.71-7,3.5-3.5,7.27-6.77,10.41-10.57,2.42-2.92,2.66-7,4.94-10.39,3.07-4.62,13.13-.33,11.28-9.65,3.28-3.6,6.46-7.28,9.84-10.77,4.58-4.75,9.31-9.35,14-14s8.68-10.43,14.17-13.72c6.45-3.87,5.33-11.5,10.26-15.81a120.71,120.71,0,0,0,14-14c3.41-4.15,3.67-10.39,8.83-13.66,4.94-3.13,2.84-11,8.77-13.68,5-2.31,3.95-8.26,6.84-12,3.19-4.2,5.16-9.35,7.51-14.16,8.9-18.23,8.88-18.24,23.85-26.82,7.88-4.51,8.09-4.39,13.74,1.87,2.55,2.82,3.25,5.68.63,8.44-5.67,6-11.62,11.72-17.45,17.55-1.75,1.75-4.15,3.22-5.06,5.34-.78,1.82-.29,4.54.47,6.54.33.88,3.38,1.85,4.1,1.31,10.89-8.12,23.39-3.78,35.17-4.82,4.76,5,11.52,4.15,17.22,6.25,3,1.11,6.84,4.29,6.7,9.32-.24,9.07-.06,18.15-.06,27.23a6.25,6.25,0,0,1-.05,2.45c-2.63,5.53-8,11-3.94,17.32,3,4.76,8,8.3,12,12.39.59.58,1.72,1.24,1.66,1.73-.3,2.27-.3,5-1.59,6.6-1.93,2.39-4.63,5.06-7.41,5.65-3.79.8-4.49,2.43-6,5.76-3.45,7.8-6.63,16.41-14.28,21.2-5.48,3.43-4,10.26-8.58,13.95-3.83,3.09-7,7-10.58,10.4-4.7,4.51-8.85,11.18-14.43,12.78-6.42,1.85-9.05,6.55-13.18,10.08-5,4.27-9.28,9.39-14.14,13.85-2.83,2.6-7.4,1.44-10.3,5.18-5.89,7.62-16.39,9.41-22.51,17.46-5.44,7.16-12.26,13.42-19.15,19.28-6,5.06-8.93,14.24-18.84,14.3-.81,0-2.18,2.43-2.28,3.8-.31,4.1-.18,8.24-.08,12.36.05,2.16,3.35,3.93,5.46,3.44,4.57-1,7-6.71,12.51-5.66,6.24-8.72,17.54-10.89,24.36-19.12,4.61-5.57,9.88-11.68,16.21-14.43s10-7.92,14.76-12c5.6-4.85,10.66-10.33,15.81-15.68,3.36-3.5,9-2.39,12.13-6.86,2.78-4,6.6-9.5,10.46-9.93,6-.68,8-5,11.88-7.62,1.86-1.27,4.32-1.65,6.19-2.91,7.13-4.78,15.74-7.35,21.22-14.61A13,13,0,0,1,402.25,198c2.49-.18,4.43-4.66,7.1-6.52,3.1-2.17,6.73-3.61,10.13-5.35,8.58-4.38,13.16-3.61,18.52,3.84,1.13,1.57,1.62,5.39.61,6.45-11.41,11.91-23.17,23.49-34.84,35.16-2.92,2.91-8.11,5.69-8.3,8.77-.49,7.9-9.37,10-10.09,15.62-.68,5.33-4.63,8-6,12.58-1.68,5.57-3.43,12.49-8.94,15.92s-4,10.42-8.64,13.87c-3.4,2.51-1.08,6.14-1.75,10.29,0,.37.28-.66-.08-1a2.2,2.2,0,0,0-2.1,0c-1.63,1.15-3.66,2.56-.68,4.31C357.58,312.13,359.06,310.51,360,308.64Zm-198.23-35.8c-3.43-.12-5.09,1.53-5,7.27.77-2.31,0-3.14-2.29-2.27a3,3,0,0,0-1.64,1.49,9.17,9.17,0,0,0-.91,4.18c.17,1.32,1.25,2.52,1.94,3.78,1-.86,2.4-1.55,2.78-2.61.49-1.37.12-3,.12-6.88,3.43.13,5.08-1.53,5-5,3.43.13,5.08-1.52,14.86-16.65a47.64,47.64,0,0,0,0-4.93c-.08-.69-.8-1.87-1.18-1.85a7.76,7.76,0,0,0-3.47.94c-6.08,3.48-5.56,9.32-5.22,15.07.05.82-.31,2,.1,2.38a2.35,2.35,0,0,0,2.31,0c2.86-3.63,8.46-5.56-2.4.06Q161.62,267.7,161.81,272.84Zm29.73-39.64c2-1.13,3.89-2.31,5.88-3.39,4-2.18,3.11-6.92,5.2-9.93,2.24-3.21,10.64,0,8.74-8.07,6.08-6.38,12-12.86,18.27-19.09,2.82-2.82.94-6.08,4.44-13.63a17.63,17.63,0,0,0-2.82,2.39,1.48,1.48,0,0,0,2.09,2.1,10.09,10.09,0,0,0,2.26-2.92c.1-.19-1-1-4.41,3-4.91-.19-6,4.88-9.32,6.79s-6.81,3.18-10,5.19c-2,1.27-5,3.42-4.93,5,.33,6.91-4.73,10.29-8.92,13.24-7.33,5.17-6.47,12.17-6.52,21.6,0-.77.3-1.84-.08-2.23a2.23,2.23,0,0,0-2.18,0c-2.3,2-4.48,4.21-6.62,6.4a2.15,2.15,0,0,0-.37,1.55c1.23.72,2.54,1.81,3.83,1.82C191.09,243,191.61,242.17,191.54,233.2ZM256,193.94c9.91-3.92,13-13.34,18.41-21a64.53,64.53,0,0,1,13.94-14c5.52-4.14,6.69-10.63,10.46-15.56a12.15,12.15,0,0,1,20.33,1.73c2.21,4.11,2,15-1,18.29A52.23,52.23,0,0,0,309,177c-2.54,5.62-9.05,9.38-13.5,14.24-16.39,17.94-36.66,32.35-49,53.94-9.06,6-10.44,18-19.16,24.33-.19.13,1.05,3.18,1.51,3.15,4.65-.31,9.72,1.88,13.51-3.32,2.89-3.95,6.85-7.13,10.39-10.58A71.45,71.45,0,0,1,269.63,246c7-3.65,12.7-10.61,17.54-17.18,4.67-6.32,7.86-13.57,14.13-18.9s11.34-12.08,17.72-17.23c5.32-4.28,5.44-11.33,10.31-15.69,5.52-4.94,10.56-10.43,15.82-15.68-1.56-6.26,4.39-8.11,6.92-12,2.93-4.49,5.41-9.29,7.93-14,1.07-2,1.2-4.86,2.74-6.21,5.2-4.58,9.13-9.4,7.21-16.89,4.83-3.59,5-7.17,0-10.75.67-5.18-2.11-5.86-6.59-7.56s-7.36-5.18-10.94.52c-6.44-2.49-8.65,8-15.3,5a4.72,4.72,0,0,0-2.45,0c-.67.12-23.79,20.09-24.2,20.59-2.52,3.06-4.54,7.39-7.78,8.73-2.85,1.17-5.87,1.4-8.29,4-5.66,6-11.61,11.72-17.45,17.55-1.25,10-11.11,13.5-15.35,20.94-1.83,3.22-3.67,6.73-5.29,10.14s-.35,8.09-.35,14.53c0-.78.31-1.85-.08-2.23a2.18,2.18,0,0,0-2.18,0c-2.3,2-4.47,4.2-6.61,6.4-.34.34-.52,1.46-.37,1.54,1.22.73,2.53,1.82,3.82,1.82C255.51,203.39,256,202.53,256,193.94Zm-46.51,44.6c-8.94,4.82-12,14.22-17.72,21.54-3.52,4.52-8.67,7.81-12,12.45-3.62,5-5.09,11.47-10.55,15.49-1.53,1.13-2.17,4.12-2.32,6.31-.23,3.27-.26,6.13-2.93,8.79-3.27,3.25-8.7,5.57-7.1,11.85-5.94,2.64-3.5,10.6-8.67,13.83-.24.15.42,2.92,1.16,3.22,1.42.57,3.82,1,4.72.17,4.34-3.76,8.17-8.11,12.49-11.9,1.64-1.44,4-2.18,6.22-2.8,15.7-4.46,15.62-4.52,26.11-14.73,4.79-4.67,9.79-9,7.51-16.7-2.61-8.79,3.29-15.53,6.94-21.81,3.31-5.69,2.42-10.77,2.94-16.17C216.75,243,211.31,242,209.45,238.54Zm34.84-25.88,1.76-1.76a15.58,15.58,0,0,0-3.32-1.55c-.41-.09-1.08,1-1.63,1.55Z"/><path d="M101.32,932c6.6,0,13.24-.46,19.79.14,5.43.49,7.1-6.33,12.85-5.28,4.79.88,11,2,14.55-.25,5.1-3.19,9.65-5.36,15.55-4.52,2.63-4.69,8.14-4.32,12-6.81,1.92-1.23,4-2.86,6.14-3,6.38-.33,13,.78,17.75-5.1,6.08,1.41,10.66-1.83,15.27-5,7.38,3.6,12-3.48,17.52-5.57,5.15-1.95,9.87-6,15.45-4.14,6.91,2.27,8.49-7.49,15.42-5.42,4.52,1.36,9.79.19,14.73.15,4.23-8.49,16.47-1.14,20.56-10.43a8.07,8.07,0,0,1,5.53-4.12c4.86-.43,9-.56,13.32-4.29,2.44-2.12,7.31-2.24,9.86-5.65,5.67,1.83,7.73-4.84,12.71-5.3,5.2-.47,7.91-4.59,9.81-9.27,2-4.95,3.44-10.64,6.91-14.33s1.7-9.73,6.71-12.24c5.57-2.79,5.3-9.43,8.72-13.71,6-7.49,18.51-6.2,22.05,2.69.76,1.9.22,4.33-1.38,6.77-3.88,5.91-6.53,12.64-12.41,17.13a1.83,1.83,0,0,0,0,1.63c1.36.67,3,1.82,4.23,1.56,5.25-1.06,8.92-5.54,15.32-5.31,4.83.18,9.11-4.76,15.24-5,4.8-.16,9.39-4.76,14.16-7.21,6.53-3.35,11-3.08,15.13.85a107.79,107.79,0,0,1,8.71,8.79c2.42,2.9,5.38,2.82,8.69,3.12,6.93.63,12.38,6.86,19.94,5.57,5.25,5.25,10.77,10.27,15.63,15.86,2.37,2.71,1.12,5.9-1.58,8.42-.79.73-.83,2.27-1.21,3.43,1.47.44,3,1.36,4.4,1.22,6.8-.66,7.67-10.53,15.72-10,5.59.39,11.27-.49,16.89-1,.63,0,1.25-1,1.74-1.69,2.47-3.21,3.85-.93,4.55,1.2a5.79,5.79,0,0,1-.61,4.57c-.75,1.07-2.69,1.26-4,2-6.77,3.73-15.08,5.35-19.64,12.17-5.21,7.78-15.47,8-21,15.53-4.84,6.57-11.46,11.82-17.3,17.66-6.41,6.42-13.33,12.43-19.06,19.41-3.44,4.18-10.29,3.07-11.69,7s-2.71,7.2-5.66,10.09c-2.66,2.6-5.46,3.45-8.47,1.24-7.78-5.72-8.64-13.83-2.22-20.35,7.53-7.65,15.16-15.19,22.75-22.78,2.33-2.33,6.61-4.63,6.65-7,.14-8.52,10-10.56,10.93-17.86.74-5.72,6.7-7.1,8.45-11.39,1.4-3.44,2.29-8.4.79-11.37s-4.1-7.28-9.07-7.25c-8.25,0-16.5.08-24.75,0-5-.06-6.2,4.85-9.51,7,1.43,1.75,4.41,4.41,4,5.1-1.94,3.31-5.73,5.65-4.6,10.36-5.31,3.6-7.77,10.29-14.66,12.44-7.11,2.23-11.46,8-15,14.43-3.25,5.84-3.47,5.69-10,2.67-1.11-.52-2.81-1.55-3.41-1.13-4.48,3.08-6.69,9.66-13.77,8.66-6.78,9.53-18.21,11.77-27.45,17.43-6.44,3.95-15.22,5.16-15.67,15.49-.07,1.82-3,4-5.09,5.12-1.87,1-4.88,1.94-6.53,1.14-5.42-2.64-10.23-12.52-6.89-16.35,4.34-5,4.82-9.86,4.73-15.53,8.45-5.33,4.23-10.46,0-15.83-.85-1.06-.22-3.2-.88-4.55-1.43-2.9-5.14-2.58-6.47-1.57-3.24,2.46-5.71,5-10.49,5-7.13,0-15.55-3.08-21.16,2.11-5.29,4.88-13.7-1-17.34,6.62-.4.84-3,1.17-4.41.89-10.71-2.09-19.22,8.77-30.15,5a16.38,16.38,0,0,1-15.28,5c-4.84,7.55-15.8,2.36-20.65,9.91-9.31-3-15.75,8.25-25.2,5-4.78-1.65-6.56,4-10.32,4.83s-8.16-1.34-11.36,2.6a6.19,6.19,0,0,1-3.91,2.32c-6.59.24-13.47-1-19.72.42-6.75,1.58-12.73,5.66-20.32,4.8-6.52-.74-13.19,0-19.79-.22-3.12-.1-7.72.25-9-1.54-3.27-4.42-9.5-2-12.37-6.7-1.66-2.74-4.58-4.72-6.87-7.09-4-4.11-10-7.67-11.39-12.54C41.4,912,42,904,43.18,896.8a26.25,26.25,0,0,1,7.3-14.07c4.92-4.58,7.18-10.28,10.24-15.73,2.65-4.74,3.61-10.43,8.73-13.74,8.38-5.42,9.61-16.35,17.4-22.58,7.05-5.63,13-12.67,19.39-19.09,1.19-10,10-14.2,15.83-20.64,5.5-6.14,11.57-11.76,17.49-17.52.42-.41,1.6-.06,2.42-.06v2.48c0,1.65.68,3.85-.12,4.85-2.58,3.19-6.06,5.67-8.51,8.94-1.77,2.37-1.92,6-3.76,8.25s-3.51,5.79-7.65,5.24c-3-.4-4.79,1.44-4.65,4.11.47,8.29-1.72,14.63-11,15.61-6.39.68-2.49,6.69-5.54,9.4-7.38,6.58-14.14,13.87-21.13,20.88-3.88,3.89-2.41,7.33,1.26,10.13,2,1.54,2.1,2.22-.07,3.62-2.65,1.69-4.87,4.85-7.64,5.34-4,.72-6.36,2.37-5.34,6,2,7.43-6.93,10.66-6,17.42-3.93,2.59-4.49,6.43-4.07,10.7.46,4.78.34,9.68,1.42,14.31.47,2,3.27,5,5,5,6.67,0,10,7.63,17.38,6.43C88,931.13,94.72,932,101.32,932Zm318.8-66.75c-3.41-2.83-6.81-4.23-9.14-1.31-5.69,7.15-14.13,9.46-21.58,13.53-1.33.73-3,1.06-4,2.05-4.18,3.95-8.83,7.62-12.07,12.26-4,5.71-11.95,4.4-15.66,10.25-1.72,2.71-4.57,4.68-6.81,7.08a1.78,1.78,0,0,0,.45,1.63c1.39.61,3.34,1.81,4.26,1.3,7.33-4.07,12.74-12.11,22.72-10.71.49.07,1.15-1.08,1.73-1.66,2.91-2.9,6.43-5.42,8.56-8.8,3-4.69,8.78-2.62,12.24-6.69C406.52,877.37,413.45,871.61,420.12,865.21Z"/><path d="M954.3,409.55c-3.59,3-5.87,7.26-11.95,7.17-28.07-.37-56.16-.71-84.2.24-6.68.23-8.43-7.75-15.38-5.62-4.53,1.39-9.83.26-14.78.26-5.78,0-11.59.33-17.33-.17-2-.18-3.8-2.64-5.91-3.52-4.56-1.91-9.16-2.65-13.42,1a9.53,9.53,0,0,1-3.34,1.74c-4.91-6.89-12.07-3.51-18.25-3.91-6.58-.43-13.45-1.17-19.72.28-4.06.94-7.26,6.37-10.85-.37-7.81,9.55-18.42,3.78-27.69,4.72-9.81,1-19.81-.06-29.7.37-3.85.16-6.75-9.15-11.12-1-4,.29-8,.73-12,.85-4.95.15-9.91,0-14.86,0-4.13,0-8.28-.21-12.38.12a6.15,6.15,0,0,0-3.82,2.54c-3.86,5.52-5.62-5.08-8.74-1.14-2.71,3.4-4.73,3.62-7.09-.06-1.13-1.76-2.28-1.51-3.53.58-.41.69-1.33,1.78-1.69,1.67-2.4-.78-4.65-2.41-7-2.62-1.74-.15-2.72,4.9-5.11,2.54-4.27-4.21-7.78-5.44-12.17-.45a6.5,6.5,0,0,1-4.17,1.71c-6.31.38-13.23-1.62-17.76,5H520.64c-4.13,0-8.35-.53-12.35.18-2.71.48-5.1,2.71-7.63,4.15-3-4.49-5.53-3.85-9-.09-1.18,1.29-4.61.67-7,.69-10.73.05-21.47,0-32.2,0H432.68c-5.54,6.58-13.14,4.84-20.24,4.94-6.61.09-13.86-1.65-19.61.56-4.45,1.7-7.12,5-10.83-.21-5.4,7.68-13.47,3.66-20.38,4.59-10.1,1.36-21.23-3.55-30.14,5-5.78,0-11.6-.42-17.33.11-6.95.63-14.91-3-20.47,4.3-6.54.18-13.07.34-19.6.55-5.54.18-11.67-1.51-15.39,4.7-11,2.62-19.44-4.19-17.49-16.11.21-1.28,1.75-2.46,2.91-3.4.5-.4,1.62.05,2.42-.08,10.86-1.76,22.8,4.31,32.78-4.77,1.36-1.23,4.84.11,7.27-.22,12.53-1.66,26.09,4.52,37.59-4.9,10.73,0,21.48.39,32.19-.14,6.94-.35,14.91,3,20.47-4.27,4.88-.19,9.83.11,14.62-.65,10.09-1.58,21.17,4.61,30.49-4.37,1.74-1.67,6.32-.47,9.58-.47,14,0,28.14-.81,42.08.31,7.22.58,11.06-5.93,17.8-5.41,7.39.57,14.86.13,22.29.13H533.5c6.61,0,13.43,1,19.75-.3,5.94-1.24,10.73-6,17.86-4.89s14.83.23,22.26.23h42.11c6.6,0,13.25.46,19.81-.1,10-.86,20.86,3.43,29.92-4.28,5.63,8.83,10.7,2,16-.53a4,4,0,0,1,2.45,0,3.82,3.82,0,0,1,2,1.15c2.19,2.73,4.38,4.75,7,.54,1.73-2.74,4.41-1.69,6.72-1.69,36.33-.06,72.66.13,109-.19,6.71-.06,10.55,6.85,17.81,5.33,5.54-1.15,11.52-.23,17.3-.23,6.6,0,13.32-.77,19.78.23,5.84.91,7.51-5.76,12.85-5.29,5.74.49,11.55.11,17.33.11,5,0,10,.68,14.84-.14C940.29,394.54,948,400.44,954.3,409.55Z"/><path d="M802.7,1065.48c2.15.39,4.48.72,6.76,1.29.55.14,1.36,1.24,1.23,1.65a2.93,2.93,0,0,1-1.66,1.72c-2.17.72-5.41.47-6.49,1.91-4.2,5.62-5.93.43-9-1-1.69-.81-3.22-.32-2.28-2.74a2.91,2.91,0,0,1,1.7-1.69C796.08,1066.09,799.27,1065.84,802.7,1065.48Z"/><path d="M716.14,431.09c2.16.9,3.55,1.4,4.84,2.09.21.11.17,1.22-.12,1.61-1.84,2.48-7.11,2.5-8-.17C712.65,433.81,715.13,432.14,716.14,431.09Z"/><path d="M879.68,1055.51c2.16.9,3.55,1.4,4.84,2.1.21.1.17,1.22-.12,1.6-1.84,2.48-7.11,2.51-7.95-.17C876.19,1058.24,878.67,1056.57,879.68,1055.51Z"/><path d="M963.93,1035.69c2.15.9,3.55,1.4,4.84,2.09.21.11.17,1.22-.12,1.61-1.84,2.48-7.11,2.5-7.95-.17C960.44,1038.41,962.92,1036.74,963.93,1035.69Z"/><path d="M952.25,1041a15.43,15.43,0,0,1,1.55,3.33c.09.41-1,1.08-1.55,1.63a15.43,15.43,0,0,1-1.55-3.33C950.61,1042.2,951.7,1041.53,952.25,1041Z"/><path d="M548.35,248.06c.18,2.41-.31,4.61-3.28,3.93-.81-.18-1.13-2.56-1.67-3.93Z"/><path d="M548.35,243.11c2.41-.18,4.61.31,3.93,3.28-.18.82-2.56,1.13-3.93,1.67Z"/><path d="M201.05,726.7c-.58.57-1.39,1.63-1.57,1.53a10.13,10.13,0,0,1-2.92-2.26,1.48,1.48,0,0,1,2.1-2.09A18.17,18.17,0,0,1,201.05,726.7Z"/><path d="M518.62,1050.89v-5c2.41-.18,4.6.31,3.93,3.28C522.36,1050,520,1050.35,518.62,1050.89Z"/><path d="M548.35,1021.16h5c.18,2.41-.32,4.6-3.28,3.93C549.21,1024.91,548.9,1022.53,548.35,1021.16Z"/><path d="M458.75,1118.2c-.58.58-1.39,1.63-1.57,1.53a9.8,9.8,0,0,1-2.92-2.25,1.48,1.48,0,0,1,2.09-2.1A17.69,17.69,0,0,1,458.75,1118.2Z"/></svg>