<svg id="Layer_1" data-name="Layer 1" xmlns="http://www.w3.org/2000/svg" viewBox="0 0 1200 1200"><title>BB_Artboard 20</title><path d="M607,662.65C339.5,425.12,343.77,415.28,348.9,406.4c1.55-2.69.68-7,4.15-9.13,9.59-5.82,11.65-17.38,19.19-24.86,7.36-7.31,8.12-18.74,15.26-26.39.46-.48-.13-1.81.09-2.66,2.43-9.23,12.57-12.21,16.46-20.46,3.24-6.85,4.47-14.9,10.74-20.09s5.7-14.83,13.44-19.08c6.53-3.58,8.2-10.94,11.72-16.88,2.6-4.38,9.38-6.3,7.63-13.22a16.33,16.33,0,0,0,6.12-11.21c.36-2.85,5.31-4.42,4.95-8.84a5.47,5.47,0,0,1,2.48-4.26c7.83-4.09,6.78-14.6,13.55-18.91,5.93-3.77,4.46-11.33,9.49-15.33,4.16-3.3,6.56-7.5,8.16-13s9.54-7.13,10.23-14.94c.52-5.81,9.59-7.68,10.52-14.61,1.09-8.2,12.8-10.17,11.65-19.72,6.32-5,6.36-14.06,13.2-19.35,4.16-3.21,6.15-10,7.63-15.64,1.33-5,7.64-7.65,5.91-14.1-.55-2,1-4.94,2.26-7.1C560.4,64.86,564.58,51.76,573,40.93c-1.51-6.78,3.71-10.76,7.91-12.75,4.48-2.1,11.28-2.49,15.72-.55s10.27,3.55,13.27,7a28.89,28.89,0,0,1,6.58,16.11c.91,13.58-.06,27.27.46,40.89.23,5.92-7,7.79-5.83,14.16,1,5.26,1.41,11.26-.2,16.2-1.16,3.58-5.62,7.43-9.38,8.52-5,1.46-10.81.29-16.26.38s-5.31.19-6.74,8.52c-.42,2.48-.65,6.06-2.26,7.09-8.75,5.57-9.43,16.57-16.86,23.43-5.86,5.4-7.51,14.86-11.85,22.14-2.6,4.36-3.19,9.62-7.7,13.25-5.64,4.54-10.41,10.15-15.55,15.29.46,9.86-9.43,12.38-13.4,19-3.55,5.93-5.49,12.82-11.62,17.06-1.25.87-1.66,2.9-2.57,4.33-4.08,6.44-4.45,15.24-11.1,19.85-6.31,4.38-5.3,12.68-11.23,17.47-4.41,3.56-5.68,11.08-10.14,14.48-5.56,4.24-4.24,11.52-9.33,15.51-3.47,2.71-1.08,8.46-5.77,11.29-11,6.66-13,21-23.23,28.48,1.07,7.77-7.44,9.85-9.28,15.23-2.45,7.12-9.15,11.16-11.35,17.12-2.33,6.3-6.37,10.22-10.16,14.94-3.17,4-3.16,9.49-7.55,13.38s-6.06,10.37-10.06,14.68c-3.72,4-5,9.1-7.88,13.09-4.63,6.49-11.87,11.21-9.42,20.82.12.45-1.35,1.17-1.78,1.93-2.84,5-5.6,10.05-8.39,15.08,5.47,2.7,5.13,8.9,7.44,13.32,8.95,17.14,17.5,34.52,25.81,52,3.23,6.79,6.86,13.5,9.81,20.52,2.67,6.33,12,8.47,11.13,17.3,0,.33,3.11,1.7,3.58,1.27a173.57,173.57,0,0,0,13.54-13.45c3.93-4.5,10.87-7.17,9.89-15,9.59-9.67,18.59-20,29-28.79,8.38-7.09,9.79-19,19.1-25,.53-7.77,9.58-13.06,6.5-21.84-3.35-9.53,6.34-16,5.61-25-.65-8.14-.13-16.36-.13-24.55,8.91-4.3,3.74-14.3,8.81-21,8.94-11.87,20.41-9.36,31.82-9.35,1,0,2.89,2.52,2.87,3.85-.12,6.54,4.74,10,9.15,11.92,3.17,1.36,6.05,2.92,9.09,4.45,3.75,1.87,5.32-3.11,7.49-5.24,16.87-16.56,32.9-34,50.5-49.77,8.88-7.94,11.65-19.65,20.82-27.15,8.4-6.87,15.58-15.25,23.29-23,8.36-8.36,16.54-16.92,25.17-25,3.39-3.16-.46-11.31,8.87-10.7,6.52.43,2.58-9.22,8-12.11,3.84-2.06,6.55-6.21,9.77-9.42,3.85-3.86,8.1-7.41,11.49-11.64,6.54-8.16,17.8-12.65,19.37-24.68q11.58-11.58,23.15-23.15c7.72-7.72,17.83-14.2,22.58-23.44,6.85-13.33,20.31-20.41,27.05-32.47,6.31-11.29,15.64-19,23.64-28.34,4.15-4.82,11.67-3.61,15.4-9,12.57-3,21.21,2.08,29.12,17.06,5.38,10.16,5.42,10.16,5.45,16.83,0,8.19-.12,16.38,0,24.56.14,6.94,7.8,11.3,5.76,19.65-1.68,6.86-.31,14.46-.36,21.74,0,3.49,9,5.05,2.07,10-3.75,2.68-1,6.84-2.14,10a27.28,27.28,0,0,1-16,16.3c-2.74,1.1-7.53.24-10-1.61-7.12-5.42-10.4-13.69-11.91-22.15-1.11-6.17-.39-12.7-.15-19.06.12-3.14-1.09-5.61-3.85-5.8-2.29-.17-5.06,1.08-7,2.53-10.12,7.51-13.27,20.35-21.88,29.11-1.62,1.65-2.5,6.12-3.42,6-6.85-.64-8.94,5.36-13,8.5-3.62,2.82-4.79,6.69-6.19,11.1-2,6.11-9,7.68-14.72,9.77-.85,10.14-9.53,14.6-15.52,20.8-15.8,16.35-32.06,32.24-48.14,48.32-7.71,7.71-14.78,16.26-23.32,22.93-9.44,7.37-12.26,19.26-21,27-8.13,7.24-15.52,15.33-23.23,23S635,432.27,627,439.63c-5.32,4.87-5.42,12.69-11.37,17.28-5.71,4.41-10.41,10.13-15.55,15.28l-13.5,13.5L571.1,501.12c-5.14,5.15-9.78,11-15.55,15.28-8.86,6.61-10,18.75-19.14,25-5.62,3.8-7.61,9.19-7.17,16.18.37,5.94,2.26,12.6-4.27,17.4-1.42,1.05-.93,5-1,7.61q-.15,13.65,0,27.28c.07,5.43.14,10.32-4.7,14.63-1.87,1.66-2.2,8.38-.5,10.12,6.61,6.77,5.93,14.89,4.89,22.53-1.07,7.85,3.9,13.14,5.44,19.68s-1.16,14.39,5.76,19.49c-3.28,7.94,2.54,14,5.91,19.28,4,6.3,3.22,13.68,6.57,19.11,3.55,5.77,8.4,10.66,11.47,17.14,2.48,5.25,8.42,8.11,9.8,15.16,1.05,5.44,10.64,7,9.9,14.9,10.06,10.34,19.87,21,30.44,30.77,1.92,1.78,7.23.88,10.51-.19,1.48-.49,2.88-4.6,2.51-6.76-1.28-7.61,2.92-13.23,5.31-19.72,2-5.48,7.94-9.4,6-16.78-1.34-5.16,5.39-8,6.08-13.84.63-5.34,6.18-10,9-15.22s-.76-12,5.59-17c3.56-2.77-.76-9.83,3.87-14.68,3.86-4.05,6.38-10.13,7.64-15.73,1.18-5.24,8.34-7.49,6.13-13.88,7.46-8.44,9.59-19.82,16-28.85-.41-8.32,9.56-9.58,11.24-17.23,2-9,8.23-16.45,11.56-25.16,2.09-5.47,5.23-11.46,9.69-14.86,5.56-4.24,5.2-10.84,9.06-15.69,3.61-4.54,4.38-11.33,10-14.84,4.7-12.83,17.5-21.25,19.4-35.61,6.14-5.16,5.94-14.39,13.27-19.2,9-5.88,10.38-18.34,19.41-24.56-1.08-7.78,7.54-9.84,9.27-15.22,2.33-7.26,9.24-11.14,11.37-17.12,2.28-6.35,7.33-9.83,9.91-15.05,3.17-6.39,7.24-11.63,11.63-17.08,3.54-4.4,4.38-10.86,7.08-16.05,3.14-6,7-11.67,10.54-17.47-3.18-10.27,9.17-17.24,5.81-27.66-1.22-3.81,1-6.59,3.66-9.44,1.4-1.51,2.13-6.18,1.16-7-8.28-6.83-5-12,1.54-17.34,1.92-1.57,4.07-4.05,4.3-6.29,1.19-11.41,13.48-9.8,18.82-16.25.06-.08,3.45,3.49,5.6,4s6.79-.13,7-1.08c1.27-5.16,5.23-8.93,6.68-13.63,1.52-5-.6-11.45,1.8-15.57s4.16-7.44,4-12.1c-.24-5.45-.09-10.91-.05-16.37.09-12.19,7.27-19.89,20.91-22.54,1.66-.33,3.29-.83,4.93-1.28,2-.57,2.35-5.7,5.75-2.5,5.29,5,11.51,9.54,15.12,15.6,3.33,5.6,8.22,11.08,8.06,18.42,5.55,3.33,5.74,8.66,5.23,14.2-.43,4.67.29,8.67,4.17,12.09.68.6-3.35,6.62-2.71,7.16,4.06,3.4,4.27,7.56,4,12.16a96.85,96.85,0,0,0,0,10.91c.34,5.26-.74,11.72,1.91,15.45,3.88,5.46,5,8.75-.14,13.62-1.54,1.45-1.71,4.83-1.74,7.34-.15,13.64.62,27.32-.28,40.91-.79,12,4.58,25.06-5.06,36.11-1.35,1.54-.19,5.29-.19,8,0,9.09.57,18.23-.14,27.27-.84,10.56,3.73,21.77-2.5,31.63-5.92,9.37-1.06,19.35-2.81,28.87-9.43,9.81-4.1,22.06-5.46,33.2-12.08,8.49,1.49,25.29-10.91,33.68,0,4.54.3,9.12-.08,13.63-.51,6,1.78,12.07-3.54,17.73-4.46,4.74-.77,12.06-2.16,18.08-9,5.55-1.54,16.34-6.19,21.81-6.38,7.52-2.82,15.39-4.53,22.88-1.12,4.86-4,9.32-5.19,14.17-1.08,4.2-.63,8.78-1.6,13-.54,2.35-3.32,4.18-3.86,6.53-1.33,5.83,2.16,12.37-3.6,17.7-4.56,4.22-1.45,10.29-1.87,15.49-.44,5.4-7.4,7.62-5.78,14.15,1.07,4.28.53,9.07.11,13.58-.47,5.11-6.79,7.77-5.58,14.16,1,5.06.7,10.13-4,14.79-2.36,2.36-1.35,8.51-1.16,12.91.28,6.43-8.26,9.63-5.6,16.86,2.51,6.84-4.42,11.07-5.21,16.84-.86,6.25-.19,12.71-.19,19.08-8.46,5.8-4.56,14.61-5.55,22.28-.34,2.66.12,3.54,2.8,2.54.77-.29,2-1.37,1.85-1.85-1.45-6.93,7.74-9.71,6.35-16.53,6-4.25,4.46-13.31,10.92-17.3-2.08-7,8-9.64,6-16.62,3.92-2.9,5.83-6.66,4.92-11.6-.77-4.24,2.26-6.39,4.69-9,4.68-5,8.91-16.82,11.92-25.07,3.46-9.43,8.7-18.21,13.2-27.26a114.38,114.38,0,0,1,5.85-11.2c2.36-3.65,5.87-6.61,7.89-10.4,4.73-8.91,8.88-18.13,13.25-27.24,2.91-6.06,5.39-12.39,8.8-18.15,3.08-5.2,8-9.39,10.65-14.73,9.07-18.07,17.7-36.36,27.46-54.08,4.09-7.43,6.17-15.81,12.69-22.16,4.09-4,6.63-9.85,8.92-15.27,1.3-3.1-.53-7.77,1.14-10.39,7.3-11.47,12.32-24.09,19-35.84,2.9-5.1,6.47-10.57,6.9-16.09.46-5.82,4.79-9.65,5.37-14.14.81-6.34,8.75-9.45,6.1-16.81-1.48-4.08,2.27-6.52,4.91-8.75,4.43-3.73,6.38-7.85,6.23-14-.09-3.75,3.62-7.46,5-11.41,1.11-3.19-1.21-7,2.12-10.11,1.72-1.61,3.65-4.73,3.21-6.64-2-8.61,8.69-13.35,5.89-22.4-2.46-7.94,7.58-13.25,5.6-22.31-1.7-7.81-.41-16.29-.3-24.48,0-1.66.19-3.91,1.23-4.87,6.35-5.83,10.94-12.56,22-13.19,16.1-.93,21.22,11.61,30.51,19.17,1,.8.74,3.32.76,5.05.07,8.18-.41,16.4.17,24.54.42,5.91-7,7.77-5.81,14.16,1,5.26.21,10.87.21,16.33-7.36,5-4.92,12.63-5.55,19.56-.53,5.93-7.31,9.66-5.73,16.92.52,2.38-5,5.82-4.75,8.55.53,6.78-7.85,9.36-6.28,17,.87,4.15-2.25,10-5.19,13.84-4,5.28-6.31,10.46-5.24,17-8.25,10.91-12.24,24.07-18.93,35.82-4.16,7.32-6.91,15.6-11.91,22.24-3.75,5,1.13,11.19-3.63,14.92-10.77,8.45-13,22-19.86,32.79-5.38,8.42-8,18.53-13.06,27.24-4.65,8.08-7,17.36-13.33,24.52-.08,10.59-13.35,13.87-13.5,24.42-5.14,2.09-2.32,8.53-5.86,11.15-4.52,3.35-3.37,7.83-3.69,12.21a7.56,7.56,0,0,1-2.08,4.53c-12.81,12.23-16.35,29.69-25.12,44.19-3.95,6.53-5.79,14.11-11.35,19.92-5.26,5.49-12.87,25.37-16.12,34.19-3.48,9.43-8.45,18.32-13,27.34-2.66,5.29-6,10.24-8.57,15.56-2.18,4.53-4.84,9.28-5.21,14.1s-1.74,8.55-5.47,11.48c1.66,9.14-3.54,14.91-9.56,20.65-4.55,4.34,1.86,13.05-5.87,16.61.48,10.59-9.22,18.88-6.79,30,.33,1.53-.53,3.35-.94,5-1.73,6.89.35,13.16,4.9,12.14,8.4-1.87,12.75,6.66,19.64,5.74,7.67-1,11.67,8,19.63,5.8,5.52-1.55,7.8,7.9,14,5.28,7.34-3.09,9.44,8.7,16.89,5.57,6.1-2.57,9.1,4.17,13.87,5.94,6.56,2.43,12.36,5.74,19.78,5,6.31-.6,12.74.17,19.08-.22,4.9-.3,8.17,1.55,11.81,4.72,5.13,4.48,8,12.69,16.89,11.75,4.53,5.65,4.69,11.37-.41,16.62-1.74,1.79-2.49,2.64-.86,3.93,5.37,4.28,5.63,8.41.43,13.33-1.55,1.47-2.3,5.09-1.71,7.26,1.77,6.43-6.16,8.35-5.75,14.17.5,7.18-7.65,2.63-9.66,6.39-2.89,5.41-10,2.57-13.56,7.45-1.46,2-6.52,1.65-9.95,1.67-3.15,0-11.64-8.16-15.94-13.31-2.75-3.29-6.52-5.8-10.06-8.34-2-1.45-4.59-2.11-6.75-3.41-3.71-2.22-5.15-8.59-10.47-7.4-8.65,1.94-13.75-7.84-22.38-5.81-3.13.74-7,1.27-9.94-2.13-4.74-5.5-9.62-11.13-18.23-8.6-4.81-4.3-10.24-6.77-16.84-5.44-5.16,1-7.78-3.14-11.6-5-7.45-3.62-13.78.8-13.48,9.06.25,6.86-1.46,12.08-6.85,16.41-1.89,1.52-3.79,4.09-4.06,6.38-.82,6.87,2.06,14.64-5.61,19.53l5.07,5.79c-7.94,5-5.92,13.2-4.73,19.64,2,10.51-7.68,17.74-6,27.85.41,2.54-2.51,3.59-5.52,4.23-4,.84-7.64,3.39-11.43,5.22-2.52,1.21-17.42.45-20,.17-4.17-.43-5.61-1.82-6.76-6.13-1.47-5.57-4-11.81-8.1-15.5-5.3-4.78,6.48-7.4-.15-12.21-5.58-4.06-1.79-11.83-2.2-17.91-.26-3.78-.65-6.83-3.76-9.45a76.18,76.18,0,0,1-9.61-9.65c-1.55-1.87-3.09-4.58-3-6.83.36-7.29-2.19-13.19-5.14-19.8-3.37-7.54,3-17.93-5.48-25,1.66-2.82,4.41-5.51,4.76-8.49.74-6.28-.46-12.8.41-19,1-7-4.54-9.25-7.76-13.26-6.17,1.52-8.74-5-13.81-6.23-4-1-7.49-4.47-11.46-5-4.4-.61-5.57-4.25-8.46-6.11-5-3.22-9.77-7.11-15.18-9.48-6.95-3.05-15.53-4.87-20-10.2-5.58-6.62-15.22-5.75-19.37-13.14-3-5.29-9.36-4.07-13.29-7.61s-6.37-7.83-12.81-8.86c-4.42-.7-7.63-9.21-12-9.84-9.56-1.37-12.47-9.69-18.78-14.24-2.72-2-4.92-1.54-7.76,2.37-1,1.41-3.2,3-3,4.12,1.82,10.07-8.26,17.38-6,27.86.7,3.26-3.64,7.37-4.93,11.34-1.07,3.25.22,8.47-1.74,10-4.18,3.24-3.28,8-5.4,11.65-5.89,10.27-5.4,11.11,1.89,20.54,3.64,4.71,5.81,10.7,9.92,14.85,3.93,4,4.71,9.43,7.81,13.12,4.53,5.41,5,12.57,10.82,17.8,5.38,4.81,7.65,13.42,14,18.44s9.17,12.77,11.3,19.83c2.39,7.91,13.15,10,12,19.71-.13,1.12,2.18,2.87,3.69,3.78,6.53,3.94,6.35,12.12,11.17,17.42,2.3,2.53-.07,8.82.93,13.1,3,12.91-4.93,20.18-13.31,27.25-1.11.93-4.66,1.13-5,.56-4.29-8.21-14.16-2.45-18.8-7.3s-13-7.62-12.18-16.65c-4.38-4.55-9.37-8.67-13-13.77-4-5.59-5.93-12.29-11.56-17.12-4.41-3.8-4.86-10.6-9.57-15.16-5.46-5.28-7.12-13.73-13.66-18.81-5.35-4.16-11.11-6.33-16.48-1.68-3.74,3.24-8,2.92-11.69,5.22-16.18,10-29,.16-32.62-13.58-2.37-8.94-9.74-17.1-6.17-27.65,1.52-4.47-.27-8.79-4.34-11.84a7.94,7.94,0,0,1,2.08-3.64c5.66-4.38-.85-12.47,5.63-16.92,4.42-3,8.15-7.3,11.52-11.55,1.33-1.67,2-5.47,1-7.15-6.47-10.92-12.74-21.9-17.17-33.84-6.11-3.61-2.4-10-4.32-14.58-1.61-3.78-3.89-7.46-5.79-11.2-5.33-10.52-11.39-20.63-16-31.62-1.95-4.7-6.2-8.22-5.44-14.24.27-2.08-1.74-4.73-3.27-6.69-7-8.92-15.21-24.63-18.29-36.09-2.43-9-9.43-16.08-10.95-25.48-12.6-9.06-13.35-26.06-24.5-36.38-4.06-3.76-6.93-10-7.91-15.59-1.38-7.79-9.6-9.67-11.75-17.1-1.77-6.09-3.53-13.77-9.6-17.67-5.86-3.77-4.43-11.78-9.66-15.08-4-2.49.78-10.56-5.56-9.17-3.08.68-6.1,5.25-7.86,10-2.29,6.13-4.32,12.9-9.53,17.9-6.3,6.06-14.78,11.24-11.94,22.35.13.49-1.05,1.89-1.65,1.9-10.61.31-9.45,7.89-9.31,14.86-7.93,4.91-8.84,15.12-15.54,20.76-4.36,3.68-4.78,9.36-7.91,13-3.41,4-3.43,7.79-3.87,12.23a9.86,9.86,0,0,1-3.64,6.51c-5.61,3.75-5.51,11-9.73,15.06-4.87,4.62-.88,10.5-3.72,14.93-3.25,5-11,7-10,15-4.63,3.25-4.16,9.58-7.5,13.17-4.29,4.63-4.18,11.11-8.6,15.78-3.21,3.38-3.55,9.33-5.86,13.78a32.24,32.24,0,0,1-6.63,8.14c-2.72,2.61-4.85,5.15-4.18,9.24.61,3.74.2,7.69-3.52,9.34-7.64,3.38-5.67,12.83-11.53,17.15-2.35,14.09-15.22,22.49-19.29,35.66-8.83,5.29-8.83,17.3-17.36,22.82-2.55,10.07-10.63,16-17.42,22.75-3.21,3.21-1.17,6.83-1.76,10.22s1.51,5.19,4.42,5.25c10.91.2,21.83-.1,32.73.23,2.19.07,5.78,1.69,6.17,3.24.85,3.33,1.46,8.32-.36,10.45a272.75,272.75,0,0,1-23,23.25c-3.91,3.57-10.6-1.4-14.83,3.84-1.36,1.68-4.86,3-6.9,2.51-6.38-1.56-9,5.07-14.17,5.62-2.69.28-5.46-.14-8.17.09a11.45,11.45,0,0,1-9.57-3.45c-5.65-5.31-9.65-13.13-18.84-13.7-.68,0-2-1.38-1.84-1.83,2-7.67-4.45-13.11-5.3-19.58-1.42-10.73-.61-21.79-.2-32.68.08-2.22,3.21-4.19,3.74-6.54,2.49-10.93,4.85-21.85,13.65-29.82,2.78-2.52,4.93-5.07,4.28-9.18-.59-3.71-.12-7.29,3.43-9.45,5.76-3.48,6.31-10.2,9.76-15s8.33-8.3,10-15.09c1.29-5.4,9.1-7.38,10.11-15,.58-4.36,6.72-8,10.36-11.92-1.14-10.16,13.23-12.09,11.88-22.36,6-6.35,7.52-16,15.4-20.91-2.75-7.19,8.36-9.56,5.82-16.68,5.42-2.73,3.84-9.6,7.74-13.15s2.29-10.4,7.68-13.23c5.23-2.74,5.1-8.81,7.82-13.09,6.4-10.08,8.75-22.76,19.2-30.26-1.42-12.62,8.17-18.8,15.43-26.34a7.32,7.32,0,0,0,1.72-2,4.85,4.85,0,0,0,0-2.7c-1.89-7.55,3.06-11.75,7.92-15.8,4.24-3.53,2.56-10,7.59-13.36,6.79-4.53,7.86-13,11.75-19.6a54.15,54.15,0,0,0,5.41-11.38c2.78-9.12,12.73-12.14,16.57-20.42,3.56-7.68,5.52-16.28,12.61-22.1,5.9-4.84,5.86-11.38,1.25-16.44-3.72-4.08-2.28-10.2-7.37-13.56-3.45-2.29-7.61-5.25-6.59-10.77-7.18-8.58-9.05-20.19-16.37-28.69,1.39-6.85-4.59-9.29-8.12-13-3.74-3.87-2.4-10.19-7.47-13.49-1.58-1-1.14-4.84-2.17-7.12-.82-1.79-3.4-1.36-3.6,1-.61,7.17-4.59,13.13-8.27,18.34-4,5.63-7.44,11.69-11.56,17-5.9,7.65-9.33,16.21-13.95,24.27-3.73,6.49-5.9,14.09-12.26,19.86-5.85,5.3-9,14.23-11.76,22.1-2.55,7.14-9.83,12.44-8.26,21.22a5.87,5.87,0,0,1-1.7,4.62,35.87,35.87,0,0,0-11.5,17.12c-12.11,8.37-16,22.32-23.09,34.1-1.7,2.85-1.77,7.23-4.07,9.09-8.44,6.86-10.69,18-18.92,25.19-6.51,5.67-13.32,11.25-17.41,19.88-3.29,6.95-10.12,12.28-15.64,18.08-6.27,6.59-12.9,12.82-19.23,19.35-4.21,4.35-3.68,11.71-9.63,15.14-3.89,2.23-12,.31-9.65,9.13-3.12,3.26-6.2,6.55-9.36,9.76-3.82,3.89-7.94,7.52-11.5,11.64-3.95,4.58,1.91,18.79,8,19.92a17.62,17.62,0,0,0,2.72,0c8.67.32,18-2.28,25,5.45,6.36,0,12.74-.17,19.09.13a5.67,5.67,0,0,1,4,2.8c.69,1.47.86,4.2-.05,5.23-4.21,4.76-8.88,9.12-13.38,13.62-7.78-1.09-10.16,6.28-15.19,9.51-2,1.28-5,1.36-7.55,1.39-11.82.14-23.77-1-35.42.44-7.4.91-10.43-6.59-16.88-5.84-10.18-9.58-23-16.85-27.42-31.47-6.1-3.61-3.91-9.61-3.85-14.72s-2.42-11.08,3.59-14.82c4.31-11.42,9.49-22.16,19.21-30.31,6-5,6.57-14,13.43-19.07,6.5-4.81,11.73-11.36,17.51-17.15l15.44-15.43c5.78-5.79,11.61-11.54,17.35-17.37s11.34-11.67,17-17.51c-1.83-9.65,11.34-10.66,11.37-20,0-3.35,4.9-7.32,8.39-9.87,5.4-3.94,6.9-9.84,9.55-15.24,1.86-3.79,3.49-7.75,5.88-11.18,2.05-2.94,6-4.8,7.37-7.9,1.75-3.9,1.88-8.55,6-11.13,7.16-4.44,6.85-13.69,13.1-19.4,5.17-4.72,7.27-13,10.23-20,2.3-5.43,5.25-11.45,9.71-14.85,5.56-4.24,5.29-10.81,9-15.71,3.53-4.62,4.63-11.1,10-14.87,4.47-3.16,2.27-10.44,7.75-13.13-.27-7.26,5.79-10.44,9.57-15.16,3.18-4,2.48-10.16,7.74-13.2,4.08-2.35,4.15-7.45,6.27-10.89,2.3-3.75,3.54-7.75,5.59-11.38a30.58,30.58,0,0,1,9.49-9.66c8.76-5.9,4.94-14.58,5.73-22.27-6.8-3.88-5.31-10.63-5.77-16.7-6.93-3.84-2.64-12.67-6.18-16.32-6.29-6.49-1.44-14.95-4.91-19.87-5.87-8.32-4.89-16.68-4.93-25.37-.06-12.22,7.2-19.95,20.69-22.78a14.66,14.66,0,0,0,6.8-3.15c1.82-1.71,2.52-2.28,4-.77,7,7.14,14.29,14,21.05,21.37,1.52,1.65,2.13,4.93,1.83,7.29-.85,6.72,4.68,9.17,285.06,245.24C882.28,895.91,879.6,896.7,878.86,898.36c-.91,2.06-.22,4.83-.22,11.17,0,2.16-.3.37.07-1.28.61-2.64-.09-3.54-2.64-2.56-.74.29-1.76,1.07-1.81,1.7q-.51,6.17-.54,12.35c0,.61,1.57,1.82,1.68,1.74,1.17-.84,2.7-1.71,3.11-2.92.54-1.55.13-3.41.13-9,1.82-5.06,4.5-5.85,5.24-7.51C884.8,900,884.1,897.2,607,662.65ZM513.06,791.06c.14-3.77-1.68-5.59-5.46-13.6a27.89,27.89,0,0,0-2-7.29c-1.14-2.3-3.65-4-5.66-5.77-.22-.2-1.36.33-1.83.78a5.28,5.28,0,0,0-1.37,2.12c-2,6.12,5.62,8.15,5.8,14,.14,4.53,4.44,6.55,5,4.28.42-1.71.08-3.6.08,0s1.68,5.59,5.46,5.45c0,2.47-.69,5.24.22,7.29C514,800,516.7,800.8,593.55,887c-1.94-4.67-2.83-9.1-5.31-12.29-3.88-5-9.19-8.83-13.24-13.71-4.43-5.34-10.69-8.77-13.27-16.31-1.86-5.43-8.3-9.12-11.75-14.22-3.82-5.66-10.37-6.05-15.33-9.41-6.33-4.3-4.62-13.55-11.49-17.15-1.48-.77-3.09-1.3-4.64-1.94,0,1.81-.56,3.87.1,5.41,2.31,5.41,3.9,11.83,7.88,15.65,5.77,5.55-1.12,15.18,7.44,18.91C540.83,860.1,551,876.66,559,894.29c5.76,3.76,1,10.61,4,14.65,4.18,5.5,10.53,9.43,11.48,17.14,0,.35,1.38,1,1.81.77.78-.34,1.76-1.12,1.9-1.86.78-4.25.3-9.09,2.21-12.71,3.94-7.46,7.26-15.22,11.36-22.58.74-1.33,1.66-2.54-73.26-87.72,0-2.47.69-5.24-.22-7.29C517.56,793,514.88,792.24,513.06,791.06ZM927.81,365.55c-.11-1.68.94-6.3-.9-8.53-2.46-3-7.18-4.07-10.89-6.07-.76-.4-1.33-1.73-1.93-1.69s-1.85,1.14-1.85,1.79c-.08,7.09-2.74,13.1-6,19.38-2.23,4.34.61,11.95-2.19,15.21-5,5.87-2.8,11.84-3.58,17.76-.12.89.29,2-.07,2.7-1.53,3-4.15,5.14-5.79,8.47-4.8,9.81-7.58,21-15.31,29-5.66,5.84-8.68,13-11.16,20-1.71,4.83-7.81,7.49-6.31,14,.33,1.4-3.57,3.73-5.43,5.71-2.38,2.52-5.23,4.46-5.32,8.79,0,2.12-2.77,4.2-4.32,6.27-2.09,2.78-4.48,5.36-6.28,8.31-4.42,7.22-5.34,16.84-13,21.71-8.09,5.11-7.72,15.8-15.29,21-6.71,4.64-10.15,11.87-13.38,18.94-3.14,6.88-5.92,14-9.84,20.41-4,6.64-11.27,10.26-14.61,18.48-3,7.48-6.64,15.83-14,21.58-6.37,5-9.77,13.76-12.64,24.58-.43,1.65-.06,4-1.07,4.94-12.08,10.66-15.43,26.33-23.06,39.53-6,10.32-9,22.56-19.18,30.18-.26,7.16-5.84,12.1-7.8,18.57-.47,1.55-2.42,2.58-3.4,4.05a3.4,3.4,0,0,0,0,2.66c2.77,7.15-6.64,10.87-5.23,16.76,1.78,7.4-6.38,10.46-5.73,16.86-7.31,6.91-4,18.38-10.91,25.44,2.43,7-4.62,11-5.33,16.82-.83,6.87,2,14.62-5.58,19.51,1.63,4.9-4.68,13.68,7.29,13.71,2.66,0,5.41,4.28,8,6.75,5.2,5.07,10,10.63,15.52,15.27,4.54,3.79,11.16,5.57,14.68,10,4.77,6,13.69,4.43,17.3,11.31,8.87-1.29,10.92,8.22,17.29,10.87.77.32,2-.29,2.68.09,19.15,10.59,38.94,19.9,58.61,29.46.77.38,1.3,1.79,1.94,1.78,1.28,0,3.49-.4,3.7-1.11,1.42-4.87-1.35-10.3,3.76-15,3.52-3.2,2.94-9.78,7.45-13.16.44-.32.06-1.74.06-2.64,0-7-1.22-14.38,5.46-19.53-3.05-8.82,4.62-14.52,7-21.65,1.29-3.87,4-7.27,4-12,0-5.26-1.16-12.2,1.64-15.41,4.37-5,3.28-9.86,3.71-15,7.5-4.92,4.15-12.83,5.74-19.46s7.08-11.81,5.28-19.62c-2.54-11,2.57-20.26,7.82-29.37,1.25-2.17,2.67-4.56,2.86-6.94.71-8.61-1.36-17.37,5.23-25.26,2.23-2.68,1.1-8.95.17-13.29-1.36-6.34,4.84-9.08,5.58-14.12.76-5.21-.85-12.08,1.94-15.37,5-5.88,2.78-11.84,3.56-17.77.11-.89-.33-2.4.06-2.64,11.07-6.59-.26-21.76,10.87-28.24,0-5.45.78-11-.2-16.3-1.19-6.35,6.13-8.2,5.84-14.13-.43-8.62-2.39-17.92,5.27-25,0-9.07-.05-18.15,0-27.23,0-1.68.05-4.21,1.05-4.89,8.64-5.82.44-16.4,5.9-22,7.06-7.3,2.93-15.4,3.68-23,.55-5.52.49-10.46,5.49-14.31,1-.8,1.14-5-1.67-7.19-4-3.1-5.43-6.72-1.44-11.24a12.91,12.91,0,0,0,3.17-6.77c.61-6.23.54-12.53.74-18.8,10.18-2.6-6.36-12.85,4.4-15.73.78-.21,0-5.09.51-7.68,2.4-11.89-5.72-25.32,5.08-36.15.11-.11-3.2-3.62-4.91-5.55C929.3,380.26,927.56,373.55,927.81,365.55ZM466.87,616.27c-3.81,3.81-7.83,7.14-10.95,11.16a41.43,41.43,0,0,0-5.81,11.18c-2.43,6.74-5.95,12.61-11.69,16.94-2.07,1.56-2.16,2.61.32,3.9l15.41,26.32c5.24,4.83,6,12.07,9.72,17.81,6.38,9.95,8.6,22.21,17.16,31.08,1.91,2,2.69,2.49,3.93-.1a11,11,0,0,0,.81-2.39c1.32-5.9-6-7.86-5.81-14.1.29-7.52,3.9-16.56-4.93-22.33L474.87,674c-7.57-4.91-5.3-12.59-5.43-19.55-.13-6.35.29-12.74-.12-19.07C468.92,629.29,471.5,622.83,466.87,616.27Zm22.5,126.55c-.62,0-1.41-.14-1.83.17-2.74,2-2.66,7.46.12,9a2,2,0,0,0,1.82-.13C492.21,749.8,492.11,744.42,489.37,742.82Z"/><path d="M725.21,857.09c2.26,4.23,7.1,7.08,10.77,11,4.3-1.26,7.28,1.07,10.94,1.55,12.19,1.59,23.94,4.29,36,6.17a9.81,9.81,0,0,1,4.91,1.89c1.91,1.66,3.65,3.34,6.83,2.09,6.52-2.58,11,1.94,17.18.82,1.74-.32,3.3,1.72,5.06,1.45,5.63-.87,11.08-2.08,14.28,3.11.58,1,4.25-.83,5.74-.13,4,1.89,6.75,4.88,5.5,10.79-.67,3.15-1.93,6.47-4.76,6.5-8.31.08-16,7-24.32,7.15-8,.16-15.84,6.64-24.25,6.91-8.18.26-16.83,2.87-25.13,3.57-3.8.33-6.37,6.92-11.05,3.43-2.36-1.77-7.74.23-11.69.25-.4,0-.85-2.42-.41-2.87,3.12-3.2,5.48-7.88,10.67-7.57,2,.12,4.18-.59,6.28-.92l18.9-3c5.59-6.86,12-4,18-5.65,4.09-1.12,7.32-5.77,11.66-5,.05,0,.81-1.15.7-1.46-.38-1.13-.7-2.9-1.58-3.06-7.8-1.4-16.22-1.45-22.24-6.52-7.9.69-14.93-1.62-21.91-3.09-7.65-1.61-15.61-2.58-23.16-4.47-4.07-1-9.11-.47-12.41-2.45-4.74-2.83-8.3-7.33-12.36-11.11,1.26-4.5-2.22-7.06-2.11-10.87.17-5.81-2.4-8.92-7.68-8.32-4.22.48-6.47-2.87-11.09-1.67-3.92,1-4.4-5.62-9.61-4.21-5,1.36-6.57-3.05-9-5.49-2.8-2.84-8.08,1-10.54-2.79-1.55-2.38-4.44-4.75-7.31-4.77-3.37,0-3.85-.48-4-3.87-.16-5-5.1-6.6-8.09-9.5a6.38,6.38,0,0,1-1.92-7c1.78-5.94-1.8-9.86-2-15.12-.15-3.3-3.4-6.37-8.52-5.4-1.69.32-4.81-1.09-4.67-1.83,1.15-5.84-2-8.58-5.31-11.28,3.3-5.39-6-8.33.85-14.7,1.15-1.06.82-4.06.94-6.12.21-3.52.5-6.7,4-9.86,4-3.71,7.36-8.33,11.45-12s4.94-7.31,5.23-11.71c.33-5.22,2.46-7.08,7.64-6.36,3.68.51,6.74,2.79,11.16,1.08.68-.26,1.63,0,2-.42a2.09,2.09,0,0,0,.22-2c-7-6.92-14-13.76-21-20.61-10.46,1.46-13.3-7.71-19.73-11.88-5.41-3.5-7.47-11.57-16.92-9.8-1.94.37-3.69-3-5.49-4.63-9-8.41-17.65-17.31-27.24-25.06-5.88-4.75-8.49-14-19.53-12.43-2.52.35-4.55-3.85-6.81-5.95-46.95-43.76-94-87.39-140.71-131.42-5.92-5.58-14.91-8.72-15.08-19.85,0-2.68-4.19-4.3-6.45-6.4-22.12-20.61-44.52-40.93-66.18-62-6.26-6.1-16.3-9.17-16.4-21.1,0-2.14-3.35-3.43-5.16-5.12-9.93-9.25-20-18.37-29.72-27.84-3.31-3.22-9.14-4.82-7.18-12.1-4.91-4.43-9.76-8.91-14.83-13.15-.31-.26-2.58,1.2-3.44,2.24a6,6,0,0,0-1.48,3.81c.16,1.15,1.41,1.88,2.2,2.78,2.77,3.17,7.55,5.71,7.8,9.65.3,4.9,5.18,6.07,5,9.27-.27,5.7,1.69,9.4,5.67,11,6.73,2.65,3.36,12,8.92,15.45,4.63,2.9,8,7.54,11.91,11.4-3.36,9.5,10.37,8.77,7.26,18.17-.16.49.33,1.19.73,1.57,4.94,4.66,9.91,9.27,14.88,13.9-1.13,9.1,5.77,12.12,10.74,16.07,4.14,3.28,4.15,8.62,6.53,12.57,2.51,4.2,7,6.92,10.59,10.29S341,467.8,344.76,471c2.84,2.48-.42,8,3.62,10.22,3.75,2.06,6.44,5.7,9.6,8.64,2.71,2.53,5.89,4.67,8,7.7,1.57,2.28,1.28,6.06,2.7,8.51,1.52,2.63,4.12,4.43,6.12,6.72.31.35.14,1.45-.21,2-.21.35-1.49.74-1.75.51-7.42-6.38-14.76-12.84-22.11-19.29-.17-12.44-11.64-15-17.31-22.63-3.5-4.69-11.15-6.14-9.49-14.88-2.61-2.57-5.19-5.19-7.84-7.72-3.13-3-5.84-6.61-9.6-8.66-4.45-2.43-2.51-8.26-5.08-11.37-2.35-2.85-5.34-5.12-8.05-7.65l-9.48-8.83c2-9.76-6.17-11.7-10.73-16.11-3.61-3.5-.14-10.76-6.1-13.06-3.55-1.37-8.09-4-6.14-10.49a2,2,0,0,0-.56-1.67c-3.31-3.54-6.69-7-10-10.54,2-7.33-4.4-8.39-7.26-12.08-.75-1-2.78-1.82-2.54-2.52,3.42-9.87-9.48-9.28-7.94-17.9a4.86,4.86,0,0,0-1.14-3.34c-2.37-3.35-7.2-4.46-6.54-10.57.49-4.56-4.66-5.3-6.63-8.33a4.63,4.63,0,0,1-.85-3.49c1.91-6.14-6.42-5.65-5-11.42.51-2.05.34-5.71.83-5.89a19.15,19.15,0,0,1,8.31-1.42c1.72.2,2.88,2.14,4.22,3.39,20.78,19.34,41.27,39,62.52,57.82,4.75,4.21,2.54,12.29,8.77,15.59,5.94,3.16,10.14,8.94,15.11,13.57l13.54,12.62c4.51,4.21,9.8,7.78,13.29,12.83,2.57,3.73,2,9.64,6.61,12.48,4.19,2.58,7.35,6.56,11,9.93l10.83,10.1,10.84,10.09c21.67,20.2,43.63,40.09,64.83,60.77,6.26,6.1,16.3,9.17,16.39,21.11,0,2.13,3.36,3.43,5.17,5.11C484,549,503.39,567.16,522.9,585.15c3,2.74,4.93,7.06,11.2,5.41,1.89-.5,4,2.42,5.73,4,12.69,11.73,24.8,24.11,38.12,35.11,9.15,7.55,14.34,20.25,29,21,1.12.06,1.73,1.71,2.75,2.4,9.36,6.39,14.1,18.33,27.7,19.87,4,.46,6.45,5.51,9.61,8.45,3.61,3.37,8.18,6,10.58,10.29,2.7,4.76,8.75.07,12.18,3.8,5.24,5.7,9.68,12.8,18.05,15.07,8.66-7.27,17.58-4.47,26.34-7.21,3.49-1.09,7.26-7.2,10.22-1.7,4.88-.73,9.75-1.44,14.63-2.19,4.2-.64,8.4-1.33,12.6-2s8.93-2.53,12.48-1.72c5,1.16,10.07.83,15.41.44,4.44-.33,5.5,6.93,11.75,3.84,2.8,2.32,5.16,5.43,8.52,6.78,5.06,2,.52,9.49,5,11.44,3.1,11.42,3.92,12.29,14.71,15.71a15.51,15.51,0,0,1,3.34,1.17c3.49,2.13,4.89,7.53,11.09,5.4,3.33,2.57,6.77,5,10,7.75s6.39,5.82,9.5,8.81c5.44,5.22,4.15,15.88-2.86,24-1.52,1.75-3.31,3.41-4.39,5.34-.49.88.16,2.56.82,3.43a11.89,11.89,0,0,0,4,3.75c2.13,1,5.38-1.62,7.53.56,4.77,4.84,9.87,9.32,14.84,13.95-2.24,6,4,9.16,1.61,15.22-.5,1.31-.82,2.84-1.71,3.85-3.66,4.15-8.32,7.77-11.06,12.28-3.54,5.81-9.76,2.14-13.23,7.83-.82,1.35-5.35,1.25-8.1,1.43-5.22.33-11.38,4-15.32-.48-4.58,1.73-8.72,5.14-13.77,5.3-5.45.18-11.2,1.83-16.76,2.46-6,.66-12.57,3.77-17.42-.13-6.22,1.59-11.75.65-17.5.06-3.15-.33-4.78-3.3-8.94-1.93C742.38,857,735.15,850.08,725.21,857.09Zm114.62-81.91c.51-1,1.65-2.7,1.48-2.84-2.76-2.09-1.08-6.68-2.41-8.71-3-4.62-7.57-8.08-11.92-11.53-3.15-2.5-8.93,0-11.72-4.22-1.88-2.86-8.07,1-10.26-2.7-4,1.05-7.87.15-11.71,4.82A267.61,267.61,0,0,1,774,770.8c-3.44,3.38-3.3,6.51-3.6,9.93-.13,1.42-.19,2.82-.41,4.24a2.26,2.26,0,0,1-.94,1.34c-.65.3-1.7.63-2,.33-4.14-3.69-7.49-8.59-12.44-10.95a31.17,31.17,0,0,0-16.2-2.64c-2-5.82-9.78-2.3-12.76-5.74-4.1-4.73-9.94-1.26-15.06-1.3-1.12,0-1.85-1.47-2.88-2.1-1.5-.91-3-2.61-4.67-2.36-10.11,1.59-20.92.46-28.79,13-.67,1.07-5.18.47-5.69,1.43-1.29,2.43-.11,5.11-2.67,8-3.55,4-1.11,4.24,2.21,3.73,1.2-.18,2.87.09,3.39.89,3.34,5.18,10.57,2.51,15.23,4.94,7.17-2.69,12.66.65,19,1,5.63.26,10.12,3.78,16.41,2.29,4.52,5.22,11.67-.18,17.4.17.65,0,1.72-.56,2-.26,3.56,3.32,8.62,1.94,13.24.65,5.14-1.44,8.84.69,13.26.81,4.66.11,9.74-1.36,14.64-2.14,2.8-.44,5.73-1.37,8.37-1.25,8.91.42,17.52-6.82,26.34-7.22,3.51-.15,5.53-4.68,9.57-4.7C831.64,782.83,833.74,774,839.83,775.18Zm-90.68,54.39c-3.43,5-8.38,7.33-7.3,11.08,1.42,4.93,6.85,2.29,10.69,1.36,4.43-1.08,6.44,3.19,11.12,1.53a12.28,12.28,0,0,1,9.53.28c3,1.36,9.33-2.26,11.76-.57,5.48,3.81,12.24,1.49,17.59-.65,6.83-2.74,11.8,5.77,18.61-2.47l21-3.33L857,828.53c2.17-2.2,4.63-4.23,2.77-7.25a12.86,12.86,0,0,1-1.63-5.11c-.61-5.24-3.17-7.92-8.89-7.16a6.38,6.38,0,0,1-3.51-.75c-11.24-5.54-18.2-5.79-33.63-2.26-7.7,1.76-15.38,2.5-23.08,3.8-6.77,1.14-13.72.78-19.26,8.79-1.15,1.66-4.85,1.16-7.72,2.81C756.94,824.35,751.44,826,749.15,829.57Zm-88.06-11.46c2.75,2.12,4.8,5.31,6.52,4.75,6.15-2,7.72,4.9,11.63,4,6.21-1.5,7.45,5.31,11.59,4.12,6.33-1.81,7.14,4.25,11.62,4.41,10,.35,20.13,4.71,29.72-8.49,1.07-1.47,3.64-2.55,5.47-2.91,5.6-1.09,8.28-10,14.74-8.35,0-1.19.46-3-.16-3.46-1.37-.92-3.48-2.1-5-1.46-6.66,2.88-11.11-2.06-17.3-.38-4-6.07-13.68,2.85-18-2.91-.72-.94-5.13,1.17-5.67.25-3.56-6.1-10.09-4-16.18-2.7-4.31,1-7.4-.89-11.07-1.09-6.9-.37-12.92-2.92-19.88-2.94-4,0-4.32,1-3.61,5.33C656.39,811.41,657.48,816.17,661.09,818.11Zm49.09-90.33c4.68,2.64,5.89,7.22,11.56,7.27,6.94.07,14.53,1.14,19.41-.49,2.48-.84,6.26-4.25,7.07-3.62,2.91,2.24,5.07,2.93,8.54-1.09.68-.79,3.2-1.35,3.64-.84,3.5,4,8.84.74,13.37.37,4.8-.4,9.71-1.44,14.58-2.27a2.22,2.22,0,0,0,1.35-.93c.27-.66.47-1.91.2-2-4.29-1.65-1.46-7.08-3.34-10.23-2.66-4.46-8.24-1.93-11.83-3.95-2.41-1.35-5.88-1.12-8.71-1.93-5.27-1.53-12.35,3-16.81-1.23-.27-.25-1.64.11-1.91.51-2.69,4-6.85,4.83-9.46,4-7.48-2.42-15.65.07-23.63.94-2,.22-2.74.5-2.54,2.28.35,2.94-1.69,5.14-3.28,7.77C707.51,723.76,709.74,726.6,710.18,727.78Zm-72.11,49.06a57.27,57.27,0,0,0,5.41,4.94c1.57,1.12,3.36.88,5.33-1.35,4.13-4.69,8.62-9.08,12.71-13.8,3.21-3.71,6.33-6.07,11-6.55,2.7-.27,4.43-5.25,2.7-6.9-3.09-2.95-6.8-5.37-9.25-8.85-4.19-6-11.77-5.11-18.21-6.45-1.26-.26-5.85-1.59-5.71,3.29.15,5.69-5.82,2.52-6.33,5.46-1.18,6.76-5.94,13.52-4.78,20.2a11.45,11.45,0,0,0,1.81,4.95A43.62,43.62,0,0,0,638.07,776.84Zm137.61-24c2.66-2.85,3.74-4,4.79-5.14,3.35-3.72,3.16-3.34-1.09-4.44-4.83-1.26-9.63-2-15.16-.5-2.76.72-6.91,2.28-8,1.08-3.89-4.14-6.7-1.23-10,2.62-4.11,4.77-3.68,7.24,2.37,7.51,2.82.12,5,.38,6.62,2.36,3.88,4.81,10.18.27,15.3,0C772.52,756.22,775.14,753.22,775.68,752.83Z"/></svg>