<svg id="Layer_1" data-name="Layer 1" xmlns="http://www.w3.org/2000/svg" viewBox="0 0 1200 1200"><title>BB_Artboard 11</title><path d="M509.24,1178c-10.12,0-20.25,0-30.38,0-13.46-.06-26.91-.2-40.37-.31-10.85-12.52-26.58-1.38-37.49-7.09-11.65-6.1-22.86-5.52-34.67-6.25-5.23-.33-7.41-8.33-14.1-6.62-9.31,2.39-14.44-7.92-24.23-7.45-7.62.37-14.6-9.1-24.21-6.15-.51.16-1.43-1.74-2.39-2.18-8.49-4-16.55-8.73-25.19-12.5-4.82-2.11-8.57-6.27-14.64-5.55-2,.24-4.89,0-6.12-1.22-6.13-6.22-13.08-10.62-20.93-14.71-7.3-3.8-16.55-5-21.61-13.64-3.78-6.46-13.66-5-18.67-11.91-5.22-7.19-12.31-13.09-18.88-19.23-6.25-5.83-10.91-13.75-21-14.69-2.59-.25-6.19-4.08-7-6.9-4.05-15-17.6-22-26.41-33-3.34-4.16-9.54-6-9.71-12.86-.19-7.78-8.46-9.78-11.77-15.35-2.65-4.47-4.43-9.62-6.51-14.2-2.59-5.72-6.3-10.83-8.69-16.62-2-4.8-5.93-9.28-6.35-14.13-.59-6.89-10.08-9.57-7.16-17.4-11.23-4.36-2.89-17-9.61-23-7.29-6.54-2.67-14.73-3.77-22.1s2-15-5.29-21.74c-2.93-2.67-1.46-10.48-1.48-16-.1-29.25-.26-58.51.09-87.75.11-8.43-3.45-17.89,5.7-24.79,1.73-1.29.65-6.27.92-9.55.54-6.52-1.25-15.11,2.23-19.08,5.45-6.22,1.81-13.84,5.06-18.23,4-5.37,5.22-11.58,8.74-16.8,1.22-1.8,4.28-3.66,4-5-3.79-17.67,7.55-30.9,14.21-44.85,7.17-15,14.9-29.85,22.34-44.78,2.33-4.67,4.33-9.59,7.29-13.83,2.53-3.63,7.48-5.93,9.09-9.77,2.07-4.93,2.74-10.14,7.42-13.86,8.6-6.85,8.92-20,19.15-25.76.83-9.59,10.46-16,8.76-26.91-1.36-8.79-.27-18-.27-27s.92-18.13-.27-27c-1.16-8.64-14.72-10.53-13.24-21.44-9-6.71-12.29-17.44-18.56-26.07-5.65-7.77-11.18-15.61-16.71-23.46a65.65,65.65,0,0,1-5.19-8c-8.5-16.74-15.58-34.19-25.69-50.14-1.57-2.48-.41-6.52-1.46-9.49-3.14-8.88-7.88-17.24-8.25-27-10.46-4.67-.49-17.42-9.42-23.24C61,228,65.21,221.17,64.12,215.91c-1-4.88.71-8.7,4.79-11.52,4.26-2.95-1-12.66,7.91-11.92,7.36.61,16.19-4,21.78,4.14,4.69,6.85,12.69,7.76,18.66,12,5.41,3.89,9.43,9.65,14.57,14a13.29,13.29,0,0,0,8.63,3.15c3.41-.25,4.86-3.32,4.75-7.2-.27-10.12.82-20.36-.36-30.34-1-8.6,9.76-11.62,7.4-21-1.87-7.4-.65-15.67-.28-23.53.25-5.44,8.06-7.35,6.76-14.1-1.94-10.05,10.91-16.45,7.17-27.74-.69-2.06,5-7,8.53-9.39,2.14-1.41,7-1.6,8.78-.12A117.26,117.26,0,0,1,200,109a96,96,0,0,1,11.86,18.7c1.77,3.68.85,8.45,5,11.46C232.26,150.48,236.86,169,246,184.48c2.21,3.73,1.89,8,7.78,7.94,5.69,0,10.12-1,15-5,5.14-4.15,2.43-11,6.94-14.17,9.68-6.82,13.68-20.34,28.09-22.11,4.4-.54,8-7.42,12-11.4l21.48-21.48c12.28.69,15.48-11.36,23.46-16.72,1.77-1.19,3.29-3,5.22-3.66,12.38-4.14,23.67-9.91,32.15-20.2C409,79,411.85,67.76,419.5,64c9.84,4.11,16.29-4.29,24.09-7.09s14.53-8.33,21.73-12.67c10.71,3.58,17.83-9.1,27.29-6.84s11.52-10.17,21-7.55c7.32,2,17.33,3.29,23.21-.13C556.91,18.1,578,24.67,598.51,24c14.8-.48,31.14-5.94,44.44,6.29,6.76,0,13.53-.39,20.25.1,8.45.6,18-3.57,24.74,5.68.86,1.2,4.1.61,6.22,1,8.44,1.48,17.9-3.38,25.36,3.94,6.44,6.32,18.76-1.8,23.07,9.53,6.27.88,13.24-2.45,18.47,4.63,3.07,4.16,9.41,3.39,14.1,6.76,6.42,4.6,17.17.86,23.16,8.89,8.38-2.19,14,3.91,20.91,6.55,7.77,3,14.39,10.69,24.13,7,4.16,3.36,7.41,8.6,14.06,6.79,11.1,14,28,19.2,43.13,26.35,7.65,3.61,11.39,13.34,17.74,13.33,8.84,0,11.86,11,20.62,8,5.57,5.57,12,10.53,16.51,16.85,6.73,9.4,19,10.15,26.23,18.8,7.93,9.44,17.32,17.65,26.07,26.41,8,8,16,15.79,23.84,23.9,8.46,8.79,19.09,16.62,24.31,27.09s16.1,15.58,20.34,25.29c2.36,5.38,1.91,10,9.51,9.92,3.31,0,4.83,3.42,4.67,7.28-.39,9,8.82,3.84,12,7.88,3,3.7-1.14,12.16,8.08,11.73a8.21,8.21,0,0,1,5.67,2.32c2.93,3.11,7.32,6.68,7.46,10.19.26,7.09,10,9.65,7.17,17.44,17.53,9.67,13.07,26.45,13.53,41.67.2,6.44-1.79,13.32,5.15,18.31,1.52,1.09,1.24,6.06.35,8.78-.95,2.9-5.09,5.14-5.26,7.84-.66,10.08-.26,20.23-.26,30.36-8,6.45-6.72,15.48-6.79,24.2,0,7.61-9.45,11.8-7,20.91,1.77,6.51-9.19,9.56-6.74,17.27-9,12.94-15.37,27.26-21.66,41.66-2.93,6.69-6.59,14-12.06,18.38-6.7,5.29-5.13,14.18-11.53,19.2-9.49,7.43-11.38,20.88-21.41,28.33-2,1.46-.8,6.94-2.75,8.69-4.34,3.87-2.19,5.48-.41,10,3.79,9.59,12,17.77,9.64,30-1.68,8.67,1.15,18.25-.66,26.87-3.17,15.14,8.75,26.51,8.28,40.65,5.35,3.53,5.53,8.78,5.72,14.58.28,8.45-3.59,18.25,6.22,24.36.12,5.57.51,11.16.3,16.72-.28,7.51-9.66,11.86-6.86,20.89,2.15,6.92-4,11.81-6.06,17.58-10.44,29.92-22.22,55.29-39.15,78.33-1.64,10.62-9.94,16.51-16.72,23.45-5.51,5.63-12.19,10.46-16.39,16.91-4,6.19-5.71,13.62-12.11,18.65-6.15,4.83-11.09,11.17-16.88,16.5-7.91,7.28-14.37,15.58-25.56,19.77-9.56,3.59-13.77,16.21-26,19.06-5.58,1.3-10.52,8.39-14.23,13.88-4.23,6.24-12.46,3.58-16.59,9.35-9.84,13.77-26.23,17.86-39.54,26.53-5.35,3.49-13,2.62-16.47,9.3s-10.78,6.48-16.26,9.59c-27.22,15.49-56.29,27.39-83.51,42.89-1.78,1-4,2.29-5.83,2-12.64-1.83-22.77,4.24-33.1,9.9-2.73,1.49-6.31,4.2-8.47,3.44-9.2-3.25-12.65,8.54-20.95,7.11-14.4-2.49-26.23,11.43-41.07,6.69-8.52,10.51-20.66,4.54-30.88,7.07-8.09,2-14.61,8.17-24.33,6.75-9.92-1.45-20.21-.32-30.34-.32ZM452.67,624.4h3c0-1,.4-2.29-.07-3-1.57-2.21-3.49-5-5.87-.93-.32.54,1.89,2.56,12.14,7.82a24.7,24.7,0,0,0-3.25-3.84,2.9,2.9,0,0,0-2.84,0,2.86,2.86,0,0,0,0,2.83,13.48,13.48,0,0,0,4,3.07C460,630.55,461.1,629.11,452.67,624.4ZM874.26,904.22c0-1,.4-2.4-.11-2.9a2.94,2.94,0,0,0-2.84,0c-2.22,1.57-5,3.49-.94,5.87.55.31,2.56-1.89,3.89-5.94,4.68.17,6.93-2.08,16.85-20.29-3.37,3.46-6.8,6.86-10,10.45a3,3,0,0,0,0,3c.53.53,2,.11,3,.12,8.86.09,12.68-3.83,10-10.4-.37-.9-1.44-1.51-13.16,10.4C876.34,894.28,874.09,896.53,874.26,904.22Zm-270-468.85c10.48,1.08,17.61-2.85,43-33.76-2.12.18-4.95-.44-6.26.7a174.82,174.82,0,0,0-14.07,14c-1.29,1.41-1.61,3.71-2.37,5.59,3.3,0,7.66,1.35,9.72-.25,6-4.69,11.17-10.54,16.56-16,.22-.23-.45-1.65-1-2.23s-1.7-1.17-25.27,18.52c-10.48-1.08-17.61,2.85-20.26,16.52v-3c-1,0-2.29-.4-3,.07-2.22,1.57-5,3.49-.93,5.87C600.86,441.62,602.88,439.42,604.21,435.37ZM618,448.87a17.73,17.73,0,0,0-3.6,0c-3.06.66-7.31.53-8.87,2.48-3,3.8-1.15,7.75,2.26,11.36,6.17,6.52,8.27,6.7,14.19-1.52,1.71-2.36,2-5.93,2.42-9,.84-6.81-4.68-1.69,4-16.28-.74.36-2,.58-2.14,1.1-.75,2.85-1.08,5.82-1.86,8.67-.86,3.2.08,4.29,3.17,3.11a4.61,4.61,0,0,0,2.26-2C632.15,442.16,631.35,436.69,618,448.87Zm-285.37,189c-1.74,1.16-4.89,2.21-5,3.5-.5,6.68.13,13.45-.38,20.14-.27,3.43,1.65,5.5,3.22,3.18,4.17-6.19,11.59-5.35,16.48-9.36.63-.52.65-2,.67-3,.14-6.51-8-14.31-20.22,15.58,0-1,.39-2.4-.11-2.9a3,3,0,0,0-2.85,0c-2.22,1.57-5,3.5-.93,5.87C324.06,671.17,326.08,669,332.63,637.9ZM324.4,820.19c1,0,2.4.39,2.9-.11a2.94,2.94,0,0,0,0-2.85c-1.56-2.22-3.49-5-5.86-.93-.32.54,1.89,2.56,87.66,101.43-5-4.66-10.35-8.73-14.57-13.74-4.74-5.65-12-8.74-13.74-17.79-1.07-5.52-8.22-9.75-12.29-14.85-5.24-6.57-12.89-10.5-14.94-20.69-1.47-7.3-12.93-10.72-13.83-21-.29-3.39-5.77-6.41-9.08-9.39a3.21,3.21,0,0,0-3.15,0c-.56.56.18,2.22-.17,3.21-4.52,12.72,11.31,21.26,7.05,34-.16.47,1.33,1.73,2.26,2.29,9.91,6,12.6,17.27,17,26.44,2.91,6,4.75,7.38,10.65,8.89,3.32.85,4.95,8.35,7.33,12.85,8.43-1.87,11.32,5.59,16,9.76C394.57,923.91,401.23,923.53,324.4,820.19ZM384.72,475.8c-.76.81-2.14,1.59-2.18,2.43-.42,8.65-2.28,16.59-7.62,23.85-1.61,2.18-1.13,6.85-.05,9.83,1.74,4.82,6.88,7.51,7.23,14,.16,3,4.59,8.23,9.31,10.9,3.76,2.12,8.55,5.71,9.27,9.36,2.87,14.6,16.15,20.3,24.38,30.19,1,1.23,6.86.36,8.53-1.39s2.16-6.88.77-8.62c-5.31-6.68-13.16-11.53-14-21.19-10.46-4.64,0-18.38-9.55-22.8s-7.41-15.39-14-21.37c-1.87-1.71-2.17-6.13-1.78-9.13.9-6.86-4.29-9.67-7.89-13.62-.75-.83-1.58-1.59,1,58.36-4.67-.18-6.92,2.08-25.35,87.66,10.19,1.58,18.81-1.2,25.7-10.11,4.76-6.15,10.88-11.28,16.51-16.74,5-4.82,4.87-9.62-.36-13.81-6.32-5.07.7-14.13-4.89-17.95-5.08-3.48-12.31-3.81-16-9.85a32.47,32.47,0,0,1-2.38-5.73c-1.41-3.86-11.31-16.34-15.34-18.44-1-.54-3.68.36-4.57,1.43-2.66,3.25-7.69,4.81-7.18,10.47.49,5.48-.19,10.12-4.44,15.08-5.3,6.19.39,17.4-8.77,23.36-1.54,1-.09,6.39-.25,9.75-.2,4.24,1.27,8.84-3,12.24-1.28,1-2.74,4.19-2.4,4.5,7.85,7.15,13.26,18.67,46-65.11C386.09,543.56,388.34,541.31,384.72,475.8Zm-158.58-3.3c7.85,7.85,18.07,14.47,22.93,23.86,5.74,11.1,16.43,18,21.38,28.19,5.54,11.42,14.07,19.15,22.1,27.86,1.92,14.88,15.87,20.4,24.08,30.35,1.14,1.39,7.82.87,8.51-.5,2.82-5.59,7.61-11.42,8.26-16.54,1-7.9,10.41-11.45,8.05-20.83-1-3.87,4.72-9,6-14s-1.61-11.32,4.21-15.1c2.78-1.81,2.88-2.93.84-4.88-2.26-2.17-5.72-3.75-5.11-8.1.07-.51-4.49-1-5.28-2.45-1.49-2.65-1.19-6.32-2.73-8.92-1.68-2.8-4.4-5.12-7-7.19-15.74-12.4-21.76-33-38-45-.63-.47-.19-2.18-.72-3-3.93-6.15-13.41-10.19-17.47-6.82-6.59,5.48-11.45,13-21.09,14.46-2.69.42-4.81,4.47-7.19,6.85-7.15,7.15-14.3,14.3,103.73,45.9a24.22,24.22,0,0,0-3.84,3.26c-.49.61-.09,1.94-.09,2.94,1,0,2.35.41,2.94-.08a13.78,13.78,0,0,0,3.07-4C353.81,498.57,352.37,497.46,226.14,472.5ZM455.71,664.91c-3.37,0-8.6-1.38-9.78.23-6.65,9-15.86,6.25-24.43,6.49-6.72.18-13.45,0-20.18,0-2.24,0-4.55-.33-6.71.1-2,.4-5.15,1.36-5.39,2.56-.58,2.87-.8,6.78.73,8.92,5.64,7.94,15.18,12.54,18.59,22.64,3.33,9.86,15.27,13.85,18.57,22.55,2.92,7.72,9,12.12,12.19,18.55,3.94,7.83,7.45,15.75,14.73,20.67,6.94,4.7,6.82,13.27,11.84,18.72,6.07,6.59,13.27,12.23,18.78,19.23,5.9,7.48,8.29,17.67,16.85,23.18,7.86,5.05,7.19,15.54,14.16,21.13,3.48,2.79,6.26,6.45,9.71,9.28.6.49,4.28-1.09,4.36-2,.46-4.43-1.51-11.71.51-13,12.32-7.71,1.68-21.64,9.15-30.19,1.27-1.45,3.55-3.85,3.13-4.63-3.91-7.39-10-14.07-12.07-21.86-1.9-7.17-10.37-11.69-7.56-20.71.67-2.14-1.79-7-4-8-9.38-4.29-7.65-15.31-14-21.41-3.68-3.55-1.62-10.45-7.18-13.85-7.34-4.48-9.48-11.67-8.29-20,1.12-7.87-1.35-10.94-10.25-12.54-9.1-1.63-9.27-13.62-14.33-20.42-2.12-2.84-6.45-5.79,1.52-11.92a24.22,24.22,0,0,0-3.84,3.26,2,2,0,0,0,2.85,2.86,13.61,13.61,0,0,0,3.07-4C468.58,660.6,467.14,659.49,455.71,664.91Zm638.34-344.32h3c0-1,.4-2.28-.08-2.95-1.56-2.22-3.49-5-5.86-.94-.32.54,1.89,2.56-57.59,64.66-11.21,0-22.43-.12-33.64.18-1.11,0-2.15,2.65-3.23,4.06,6.75,3.32,4.7,11.62,9.37,16.38,4.39,4.47,11.74,7.52,10,16,7.43,5.23,4.62,14.25,7.57,20.36,2.86,5.92,6.63,10.79,6,17.79-.52,5.59,1.21,10,4.49,15.07,3.11,4.86,2.11,12.64,2.15,19.14.18,28,.1,56.08.06,84.12,0,4.43,1.51,11.18-.72,12.89-11.56,8.83,4.57,13.9,2.33,21.52-.69,2.34,9.42,2.88,11-.55,1.29-2.81,1.08-6.37,2.59-9,3.23-5.59,10.9-7.66,11.9-15.3,1.12-8.59,8.81-12.52,14.32-17.47a68.07,68.07,0,0,0,18.8-29.31c2-6,10.21-9.41,7.32-17.2,3.79-3.93,8.76-7.55,6.67-14-2.55-7.9,7.07-10.32,7.09-17.42,0-6.18,8.69-9.65,6.59-17.42-2.2-8.11,9.72-11.53,7-20.82-1.83-6.15,1-11.89,5-18.06,3.59-5.62,1.49-15.05,1.38-22.79-.09-6.53.37-13.52-1.79-19.43-2.47-6.76-9.37-12.1-11-18.88-1.78-7.25.4-15.49-7.33-20.6,1.93-11.17-10.81-13.05-13.53-21.31-1-3-1.55-6.43-3.52-8.54-2.69-2.89-3.19-2.43-3.2,9.94,0,10.09-.11,20.19,0,30.28.1,6.82-6.57,8.44-9.46,12.92-11.52-3-19.27,8.81-30.57,7.62C1049.31,380.7,1041.38,381.36,1094.05,320.59ZM131.62,857.32c6.91-6.91,13.92-13.76,20.75-20.78,9.11-9.37,22.61-17.83,7-32.72-1.19-1.13-.45-4.2-.79-6.34-1.52-9.38,4.44-20.52-6.5-27.69-.08-9-.91-18,0-26.88.92-9.3-7.76-14.55-7.4-24.25,1.18-31.46,1.21-63,0-94.48-.36-8.94,7.05-13.24,7.23-20.85.2-7.8.12-15.62.79-23.37.15-1.72,4.43-3.29,4.34-4.78-.78-12.22,10.54-21.28,8.45-33.78-.9-5.36-.66-10.92-1.61-16.26-.49-2.73-6.56.28-14,10.47-8.7,11.91-11.27,27.86-24,37.24,1.38,7.46-5.93,10.95-7.82,17-1.53,4.92-4.35,9.43-6.6,14.13s-6.45,9.44-6.32,14.06c.23,7.66-2.27,12.87-7.92,17.16-4.84,3.67-7.32,8.38-5.95,14.38,1.53,6.71-6.28,8.61-6.8,14.1-.5,5.31,1.39,10.85-3.84,15.36C73.72,685,82.19,697.69,70.89,702c0,9-.62,18,.14,27,.77,9.18-7.81,14.49-7.38,24.24,1.27,29.2.52,58.49.41,87.74,0,5.65,1.43,10,4.64,15.1,3.1,4.91.48,13.09,2.46,19.14,2.28,6.94,8.83,12.61,6.4,20.92-3.11,10.61,3.29,19.14,7.26,27.37,5,10.29,11,20.15,15.5,30.75a240.69,240.69,0,0,0,12.41,25.15c4.88,8.48,13.85,14.58,21,21.8,3.9,4,10.54,7.88,10.82,12.17.56,8.29,6.54,11.27,10.78,16,4.44,4.91,9.66,9.13,14.53,13.65,11.28-2.79,6.65,10.81,11.32,11.8,9.64,2,15.71,8.17,20.7,15,5.63,7.69,15.86,6.36,21.63,13.9s12.2,16.39,24.75,13.66c2-.44,5.14,3.52,7.53,5.69,4,3.63,7,9,13.8,7.47,5,7.85,16.29,5.8,21.42,13.5,9.78-3.91,16.12,4.57,24.17,6.88,6,1.71,9.76,8.37,17.53,6.8s11.72,9,20.9,7.1c4-.85,9.07,4.9,14,6,10.29,2.35,22.62-4.58,30.91,7,9,0,18,.16,27,0,9.85-.23,16.44,10,27.68,7.21,8.49-2.08,17.9-.41,26.91-.41h84.39c11.24-9.67,24.83-6.21,37.71-6.78,2.12-.1,5.35.15,6.17-1,5.63-8.26,14-5.57,21.41-5.54,7.88,0,12.29-7.09,20.75-7.81,8.91-.75,17.53-7.47,27.66-5.82,4.1.67,6.76-1.61,6.87-5.08.21-6.56,1.65-14.72-1.54-19.39a104,104,0,0,1-11.17-22.49c-2.21-5.88-10.38-9.36-7.4-17.22-5.42-5.4-10.08-10.4-19.43-10.68-8.72-.25-13.69,5.79-20.86,7.3-6.35,1.35-14.22-3.26-19.08,2.49-5.57,6.58-14,1.33-18.11,5-5.7,5.11-11.41,7.64-17.9,5.79-9.12-2.6-13,7.4-20.9,7.1-10.12-.39-20.25-.1-30.38-.1h-27c-10.12,0-20.44-1.22-30.32.33-10.74,1.69-18.32-5.52-27.66-6.93-7.41-1.12-15.93,2.14-21-6.42-9.3,1.88-16.4-3.42-24-7.2-16-7.92-32.68-14.78-46.18-27-11.24,1-12.43-16.51-24.79-13.5l-16.71-16.7c-8.75-8.76-17.2-17.84-26.4-26.1-3.75-3.37-9.13-4.93-13.76-7.32.83-10.83-8.15-15.48-14.53-20.82-10.35-8.67-13.46-22.31-23.54-31-4.74-4.1-3.16-12.38-9.49-16.43-1.95-1.25-.78-7-2.74-8.67-9.27-8.11-13-19.19-17.84-29.86a176.64,176.64,0,0,0-10.68-19.19c-3-5-6.42-5.77-9.49-2.75-4.81,4.73-9.44,9.66-14.36,14.27-4.66,4.37-14.21,3.31-20.61-2.1C135.41,861.34,133.93,859.63,131.62,857.32ZM595,37H561.28c-7.55,9-17.9,6.74-27.58,6.67-7.82-.05-15.74-1.13-20.83,6.83-9.63-3.33-16.39,6.39-24.19,6.18-12.82-.33-22.55,5.49-33,10.68C444.53,73,433.41,78.72,422.21,84.28c-6.53,3.23-14.24,5-19.45,9.7s-13.26,2.35-16.62,9.2c-3.78,7.71-13.93,6.06-18.51,12-5,6.5-12.73,7.84-18.61,12.14a92.55,92.55,0,0,0-21.39,21.38c-6.17,8.87-17.26,8.94-23.86,16.41-5.95,6.73-12.74,12.71-19,19.2-6,6.18-6.11,15.78-14.09,21.4-6.31,4.45-6.36,15.25-.47,20,7.26,5.87,10,13.91,14,21.41,5.79,11.06,10.67,22.58,16.23,33.76s11.08,22.5,17.49,33.23c2.79,4.68,7.24,10.14,11.92,11.31,3,.74,7.52-6.11,11.82-8.84,3.46-2.2,8.88-2.26,11.22-5.09,8-9.65,20.06-11.87,29.61-18.29,10.55-7.09,20.35-15.5,32.41-19.73,9.72-3.42,14.43-9,13.81-19.31-.47-7.73,8.2-11.83,7.39-20.89-.56-6.29,5.39-13.17,8.46-19.77.66-1.42,17.25-17.89,18.67-18.69,6.23-3.52,8.15-3.67,11.51-.33,12,11.89,24,23.72,35.75,35.85,4.58,4.74,4.83-1.55,7.22-2.25,7.38-2.17,12.9-7,19-11.54,10.21-7.69,12.2-20.54,21.13-28.68,6.65-6.05,13.06-12.42,19.08-19.1,5.69-6.32,15-10.31,14.39-21,8.58-2.49,15.23-7.65,21.15-14.25s11.79-14.21,19.26-18.76,15-8,21-14.54c1.79-1.94,5.93-1.69,9-2.49s6.88-.76,8.92-2.66c3.58-3.32,7.87-6.19,11.46-3.29,4,3.21,9.37,5.9,10,12.58,1,10.53-4.73,22.63,6.62,31,0,6.75,1.1,13.73-.27,20.19-1.86,8.85,9,11.6,7.62,21-1.29,8.57.93,9,9.15,9,28.13,0,56.27-.32,84.38.22,8.67.17,18.65-4,25.91,2.17,9.2,7.87,19.18,2.95,28.69,4.27,10.53,1.45,22.34-3.27,30.94,6.86,11.36-2.53,21.15,2.16,31,6.75,11.71-4.11,19.85,8,31,6.79,7.86-.82,12,7.66,20.84,7.53,7.31-.1,14.89,6.73,22.4,10.29,10.4,4.92,21.06,9.19,30.64,15.73,1.29.88,4.25-.14,6.19-.91,3.27-1.3,2.6-2.49.11-4.81-8.24-7.66-16-15.8-24-23.75s-16.77-15.25-23.63-24.06c-7.07-9.06-19.07-11.2-25.71-19.22C944.52,162,930.34,158,920.23,147.8c-4.91-5-12.87-6.49-18.72-11.86s-14.83-7.26-22.14-11.22-14.33-12-21.64-12.19c-8.77-.25-11.67-11.62-20.63-8-4.87-8.11-15.81-6.56-21.43-13.47-9.87,4.23-15.82-5.43-24.15-7-3.86-.73-7.64-6.64-10.68-6.07-11.71,2.19-19.14-12.13-31-7.17-6.54-10.45-21.62-3.06-28.16-13.51-8.14,1.45-14.13-4-21-6.07-11-3.21-24.23,2.66-34.13-7.43-7.88,0-16.13-1.5-23.53.38-9.35,2.37-12.54-8.28-21-7.35C613.11,37.8,604,37,595,37ZM276.76,739.16q-38,38-76,76.07c-9.9,9.93-11.26,19-4.79,32.11,4.59,9.34,9.28,18.65,14.32,27.75,3,5.49,2.68,13,9.44,16.3s4.85,11.87,9.59,16.21c5,4.53,3.08,12.42,9.32,16.55,4.35,2.88,6.92,7.26,8.45,13.31,1.42,5.63,8.43,9.93,13.13,14.65,16.63,16.72,34.2,32.61,49.68,50.34,9,10.26,22.7,13,30.93,23.49,4.11,5.24,12.9,2.81,16.24,9.55,9.49,1.78,16.8,8.22,25.41,11.85,9.64,4.07,19.13,8.26,27.83,14.22,4.26,2.91,10,2.42,14.19,6.89,2.24,2.37,8.35.8,12.6,1.63,5.18,1,7.33,7.93,14.09,6.84,5.48-.88,11.2-.18,16.82-.18,24.71,0,49.41-.07,74.12,0,6.72,0,12.06-1.18,18.08-5.66,5.25-3.9,13.91-.84,20.73-7.13,4.72-4.35,16,2.55,21.83-3.18,8-7.76,17-2.21,25.22-4.55.95-.28,2.43-1.94,2.27-2.25-.81-1.55-2-4-3.18-4.1-7.85-.36-15.71-.17-23.58-.19-8.67,0-17.77,1.49-24.15-6.75-8.25,1.82-14.09-3.33-20.93-6.44-7.79-3.55-14,3.2-20.71,6.31-1.84.86-4.43.21-6.68.12-5-.19-15-8.86-13.16-10.77,10.45-10.65-2.57-11.59-6.12-16.08-1-1.2-4.79.09-6.11-1.09-5.83-5.25-10.4-12.49-17-16.14-7.61-4.21-14.86-8.15-20.91-14.6-10-10.64-20.56-20.73-30.88-31.06l-22.18-11.51c-15.65-3.87-38.5-15.51-47.26-24.18s-17-18-26.35-26c-7.64-6.62-6.44-19-16.51-23.63a4.24,4.24,0,0,1-2.31-2.35c-1-5.25.23-12.66-2.83-15.43-7.28-6.56-4.74-14.15-5.53-21.57-.89-8.39-9.94-14.07-7-24.26,1.79-6.23,2.16-14.12-.18-19.91s-7.32-10.28-6.51-17.66c.28-2.57-2.15-6-4.2-8.18C289.84,751.92,283.32,745.72,276.76,739.16ZM775.5,199.07c-18,0-36,0-54,0-8.89,0-8,.57-9.55,9.53-1.62,9.72,4.28,16.31,6.75,24.35,1.58,5.14,0,11.18.38,16.78.44,6.32-2.47,13.21,4.57,18.47,4.09,3.06,1.37,10.72,7.2,13.91,1.26.68,1.54,3.87,1.58,5.91.16,9-2.31,18.92.72,26.75,3.15,8.14,6.56,15.38,6.35,24.47-.2,8.66,8.19,15.13,17.59,15.05,6.46-.06,12.84,1.26,18.27-5.19,4.15-4.93,13.15,1.78,18-5,4.05-5.59,10.48-3.9,15.43-3,7.9,1.45,11.21-6.58,17.52-6.91,10.1-.53,20.28.37,30.36-.29,9.47-.62,20.5,4.28,27.62-6.54,3.49,2.35,5.12,7.25,10.69,6.79s11.47.89,16.81-.34c7.95-1.82,10.35,7.05,17.51,7.25,15.35.41,27.6,10.1,39.63,17.82,7.71,4.95,13.6,9.67,23.47,9.18,18-.9,36.07-1.28,54,.15,9.73.78,16.65-3.47,24.2-7.23,14.77-7.36,15.82-11.43,8.38-28.17-.84-1.89-2.17-3.94-2-5.84.89-14.92-13-24-14.68-37.86-10.18-9.78-19.47-20.17-32.86-26.56-19.74-9.43-40.1-17.79-58.57-29.77-8.2,1.61-11.73-10.12-20.89-6.92-7,2.46-9.62-8.09-17.45-6.86-7.42,1.17-14.37.41-21.36-5.71-4.94-4.32-15.9,2.48-21.91-3.2-7-6.59-14.6-3.68-22-4.21-7.81-.56-15.68-.24-23.53-.31-9.67-11.7-22.81-5.49-34.44-6.37C798.06,198.41,786.75,199.07,775.5,199.07Zm247.29,331c0-10.12-1.89-20.7.47-30.23,3.08-12.37-9.52-19.38-7.54-31.1,1.42-8.34,2.13-17.82-6.43-24.12.16-21.32-16.49-35.86-22.45-54.81a12.83,12.83,0,0,0-13-8.59c-7.83.52-15.73.27-23.59.07-6.59-.16-13.17-.73-19.76-1.11-5.31-8.64-13.91-5.35-21.29-5.48-20.22-.34-40.46-.11-60.69-.11h-23.6c-8.67-9.78-20.26-6.38-30.93-6.68-11.23-.33-22.48.14-33.71-.16-6.86-.18-9.52,5.39-12.93,9.25-3.23,3.65-1.49,8,2.2,11.41,1.47,1.36,3,3.52,3.06,5.38.36,6.73,1.15,13.68-.11,20.18-1.69,8.73,5.88,13.81,6.71,20.89a157.28,157.28,0,0,1,.12,30.3c-.8,10.18,11.53,16.42,7.06,27.62-3.7,9.27,3.21,16.39,6.63,24.12.84,1.9,1.83,5.36,2.75,5.36,12,0,24.07-.51,36.11-.89,3.53-5.82,9.2-5.14,14.79-5,7.86.13,15.84-.79,23.57.25,8.4,1.13,17.37-3.89,25.39,4,5.94,5.85,15.31,3.49,22.34,2.07C911,520,919.49,534,932.14,530.37c19.67,16.19,46.77,19.43,65.43,37.83,4,4,11.33,4.82,16.48,8.78,3.25,2.51,8.78-1.85,8.76-6.43C1022.76,557.06,1022.79,543.57,1022.79,530.09Zm46.88,258.71c-.33-3.53,3.36-13.24-6.35-19.22,0-6.74.26-13.5-.26-20.2-.1-1.27-3.17-2.93-5.07-3.28s-4.17.53-6.12,1.26c-.87.32-2.11,1.76-2,2.41,2,8.58-9.82,12-7.59,20.52-4.77,4.76-10,9.15-14.17,14.4-4.55,5.77-7.2,13.17-12.2,18.41-17.06,17.87-34.74,35.15-52.34,52.51-2.19,2.16-5.21,3.55-8,5a44.15,44.15,0,0,1-5.83,2.17c1.54,2.38,3.38,4.63,4.57,7.18,2.88,6.11.1,11.1-6.56,10.82-10.39-.44-19.36.74-26.43,10-3.7,4.84-7.38,11.75-15.74,10.41-7.72,11.13-22.09,13.25-31,23-4.21,4.59-7.91,9.54-15.53,11.31-9.28,2.14-12.83,10.57-12,20.69a109,109,0,0,1-.88,23.25c-.17,1.29-5.56,2-8.61,2.66-.67.14-1.62-1.29-2.51-1.9-5.28-3.65-7.54-11.83-15.45-11.35-6.4.39-9.55,9.09-17.09,7.45-3.14,5.29-9.34,4.78-13.74,7.41a37.43,37.43,0,0,0-11.89,11.77c-5.14,8.07-16.69,5.66-21.31,14.13-1,1.89-2.86,4.17-4.73,4.63-6.29,1.58-11.24,5.49-16.81,8.34-11.08,5.68-23.32,9.38-33.65,16.1-5.24,3.4-9.71,4-15.17,4.4-5.87.38-6,2.54-7,8.55-1.67,9.59,10.56,14.53,7,24.21,8.45,15.77,13.07,33.8,27.81,45.88,2.49,2,3.27,3,4.9,0,3.47-6.5,12.13-3.3,16.6-9.29,2.83-3.79,9.68-2.51,13.84-7.14,4.31-4.8,12.16.62,18.23-4.71,10.24-9,24.74-10.93,35.19-21.21,6.94-6.83,19.19-7.76,27.28-14.79,12.7,1.59,15.13-15.94,27.58-14.8,8-7.16,19.57-9,26.16-18.44,2.43-3.46,6.63-8.27,9.81-8.12,11.68.56,12.9-16.08,24.76-13.95,7.23-7,14.82-13.61,21.57-21s17.42-7.75,23.81-16.37c13-17.54,33.82-28.32,43-49.7,2.46-5.76,9.47-9.44,13.86-14.53,3.49-4.06,10-6.23,9.82-12.68-.22-7,8.92-9.41,7.5-17.51-.45-2.55,6.1-6,8.86-9.52,1.87-2.38,4.37-6,3.74-8.32-2.77-10.13,9.54-14.53,8.26-23.74,10.31-5.5.73-20.31,11.9-25.41Zm-465.38,92c-3.33,8.87,6.25,13.4,6.69,20.92.37,6.46,5.89,9.79,10.07,12.39,5.76,3.6,9.23-4,13.88-5.63,4.06-1.43,7.89-2,11.46-5.15,2.94-2.59,8.7-2.34,11.07-5.16,5.42-6.43,13.33-.95,18.33-4.73,6.81-5.14,11.61-12.91,21.15-14.26,1.78-.25,3.53-2.77,4.73-4.61,4.19-6.41,10.1-7.83,17.31-7.19,6.75.6,9.59-9.08,17.33-7.4.35.07,1.62-5.67,3-8.41.89-1.73,3.24-4.39,4.25-4.12,12.46,3.41,18-6.15,25.14-12.84,3.92-3.68,6.9-7.91,13.66-8.07,4.27-.1,5.87-6.18,3.06-10.46-2.34-3.57-6.63-5.88-5.73-11.14,1.57-9.09-1-17.08-6.74-24.13,2.39-10.63-7-17.38-8.87-26.66-.59-2.91-3.9-5.29-4.42-8.19-.79-4.35.66-9.17-.43-13.37-1.29-4.93-6.08-9.4-6.11-14.1-.06-7.26-3.95-11.84-6.69-17.63-2.55-5.37.76-12.59-5.69-18-5-4.15,1.58-12.9-4.88-18.06-7.19-5.74.59-18.14-9.58-22.91-.19-5.53-.71-11.07-.5-16.59.25-6.87.23-13.4-6.59-17.51,1.4-9.1-10-14.35-7.1-24.06,1.19-4-1.8-6.38-5.38-6.43-5.29-.08-10.38-1-15.43,3.49-9.66,8.51-15.57,22-30.35,24.1a3.41,3.41,0,0,0-2.29,2.3c-.52,13-12.85,17.14-19,25.84-1.13,1.6-.8,4.16-1.71,6-6.4,12.93-6.71,12.81-6.7,20.8,0,19.08.06,38.16-.05,57.24,0,4.34,1.06,10.7-1.28,12.68-8.69,7.33-4.77,16.52-5.3,24.93-.56,8.94-.12,18-.12,26.93-7.74,6.51-6.29,15.44-7,24.12-.73,9.57,3.16,19.46-3.61,28.8-6.22,8.58-1.86,19.31-3,29A4.21,4.21,0,0,1,609,866C603,869.65,604,875.4,604.29,880.77Zm398.25-219.24C996,655,990.79,648.91,984.72,644c-5.7-4.64-13.35-7.14-18.29-12.34s-11.94-5.47-16.3-9.57c-5.71-5.36-15.25-3.58-19-11.62-3.18-6.81-11.66-4.91-16.31-9.52-1.47-1.46-4.1-3.77-5.17-3.3-10.18,4.38-15.42-7.62-24.3-7-5-10.35-17.31-3.13-23-9.15-5.91-6.23-14.48-1.27-18.12-4.94-6.65-6.7-13.69-6-21.34-6.21-6.43-.18-13,1.57-18.43-5-2-2.4-8.22-1.58-12.53-1.69-11.5-.29-12.77.36-12,10,1,11.61-5.34,24.8,6.58,34.35q0,18.56,0,37.12c0,1.08-.19,2.67.41,3.15,10.79,8.68,5.09,20.67,6.2,31.2.7,6.67-2.5,15.24.62,19.9,9.63,14.4,4.86,29.84,6.29,44.79.2,2.1,0,5.11,1.26,6.1,5,3.93,6.37,8.92,5.41,14.72-1.2,7.26,8,9.64,7.42,17.51-.28,4,8,7.32,6.34,14.08-.06.26,4.31,1.95,4.37,1.83,3.48-6.78,12-4,16.72-9.24,4.07-4.6,11.58-4,16.4-9.46s11.71-9.37,18.48-11.89c6.25-2.34,11.47-5.08,16.34-9.7,4.35-4.14,10.11-6.78,15.25-10.09-2.77-11.39,8.58-7,12.46-11.1,8.56-8.93,17.38-17.63,26.21-26.29,8.5-8.33,17-16.07,27.86-22.13C984.94,682.71,992.4,671.67,1002.54,661.53ZM482.61,941.72c7.86,0,15.71,0,23.57,0,9.18-.09,16.89-7.16,17-15.84.14-13.46,0-26.93.08-40.4,0-4.49,0-8.46-3.9-11.93-5.79-5.22-14.21-10.41-15.61-16.89-2-9-7.69-13.6-13.3-18-6.63-5.2-6.61-13.31-11.48-19.09-5.56-6.61-14.63-10.17-16.63-20-1.93-9.45-10.7-14-17.13-19.6-7-6.07-8.76-14.75-14.13-21.24-5.7-6.89-13.9-12-18.51-19.41-4.27-6.88-8.68-14.11-11.17-22.26-1.16-3.82-5.26-6.85-8.28-10-5.44-5.66-11.47-10.81-16.47-16.83-2.52-3.05-2.32-9.18-5.18-10.94-3.27-2-7.72-1.84-11.42-4.95-5-4.23-7.94-3.64-11.3-.32-8,7.89-15.45,16.36-24,23.61-5.42,4.6-3.09,12.37-9,16.85-2.38,1.79-1.7,8.16-1.72,12.44,0,7.74.47,15.49.74,23.23,9.48,6.34,4.75,16.11,6.06,24.46.3,1.89,2.28,3.5,3.42,5.28,8,12.4,10.63,28.1,23.7,37.41,3.35,2.39,5.12,6.26,6.95,10.5,5,11.71,10.5,23.89,21.76,31.32,9.67,6.39,10.83,18.53,18.9,26,8.24,7.61,16,15.73,23.8,23.81,1.35,1.4,1.77,3.71,2.61,5.61,5.05,11.47,14.39,17.26,25.24,23.17,7.77,4.23,14.62,3.27,22,4C473.6,942.07,478.12,941.72,482.61,941.72ZM725.74,337.51c-.92-9.48,3.69-20.31-6.76-27.43q-.09-10-.2-20.07c-10.78-6.93-2.23-20.22-7.62-26.84-8.46-10.37-4.18-21-5.63-31.47-.31-2.19.83-5-.2-6.61-5.14-7.92-6.66-18-14.75-24.22-2.07-1.58-3-1.61-4.92,1-1.22,1.65-3.26,3.71-5,3.79-8.94.38-18.37,1.94-26.74-.26-11.32-3-17.52,9-27.53,7.11-8.35-1.57-14,4.35-20.87,6.36-7.22,2.1-16.25-1.5-23.17,1s-12.7,7.6-20.94,6.41c-1.47-.21-3.16,3.08-5.07,3.66-14.44,4.43-22.67,16.54-32.57,26.45-1.23,1.23-.08,6.7,1.68,8.69,5.68,6.46,5,16.85,13.91,21.39,2.19,1.12,4.22,5.59,3.84,8.14-1.14,7.51,3.92,11.86,6.88,17.47,3.35,6.37,4.69,13.92,8.58,19.87,3.43,5.27,8.05,9.46,16.28,9.18,24.6-.82,49.25-.31,73.88-.27,4.42,0,10.77-1.54,12.91.74,9.35,10,20.83,5,31.33,5.8,8.67.63,17.13-.32,24.27,6.72,2.76,2.73,8.35-1.89,8.42-6.55C725.77,344.22,725.74,340.87,725.74,337.51ZM820.26,928c-.85-1.89-1.18-4.63-2.64-5.54-8.88-5.51,1.06-18.36-9.31-23.33-1.19-.57-1.94-4.15-1.42-5.88,3.83-12.74-9.19-21.84-7.22-34.33.34-2.17-3.71-5-5.66-7.56-3-4-8-6.34-11.28-3.25-7.33,6.84-16.88,8.33-25.13,12.73-7.4,3.94-15.46,7.63-21.21,13.44-7,7.11-18.86,6.4-23.79,16.31-2.32,4.67-7.35,3.68-11.74,4.06-3,.27-7.34,1.18-8.51,3.25-5.34,9.49-17.45,8.71-23.65,16.5-9.79-.23-16.45,11.64-27.36,7.1-3.6,4.36-7.63,7.33-13.87,7.39a2.35,2.35,0,0,0-1.22,4.45c7.44,4.55,2.22,13.45,5.5,17.77,4.06,5.34,4.23,12.89,9,16.46,7.75,5.86-.08,15.81,6.92,20.86s1.63,12.7,4.77,18.26c3.62,6.4,7.74,12.54,11.84,18.65,2.77,4.13,8.67,6.58,11.09,3.31,5.83-7.89,15.34-3,20.7-7.2,8.59-6.77,19.18-8.52,27.89-14.12,3.75-2.42,7.43-3.66,11.34-5.26,7.67-3.14,10.51-14.57,21.33-13.52,6.35-6.35,11.67-15.77,19.29-18.29,10.42-3.46,15.91-11.13,23.07-17.48,6.7-6,12.88-12.51,19-19C819.29,932.31,819.53,929.9,820.26,928ZM529.55,347.6v.23c-5.57,0-13.5-2.37-16.29.42-10.65,10.61-23.13,4.66-34.68,6-5.53.64-11.56-1.13-16.69.42-6.85,2.07-13,6.31-19.5,9.61,2.5,9.4-5.61,16.17-6.38,24.05-1,10.23-5,22.43,6.17,30.75,0,7.83-1.72,16.19.46,23.37,2.43,8,7.75,14.78,6.56,24.26-1.09,8.72.1,17.73.29,26.61,9.75,6.14,4.18,16.23,6.5,24.22,2,6.77,5.15,15.15,10.5,18.51,7,4.37,11.13-4.86,15.68-9.18,10.56-10,20.69-20.46,31-30.73,10.67,0,14.21-6.81,17.21-15.89,1.48-4.46,6.88-9.25,11.48-10.61a23.88,23.88,0,0,0,10.86-6.38c9.48-9.51,18.81-19.2,28.58-28.42,4.37-4.13,0-5.63-1.82-7.08-3.4-2.72-2.57-6.2-2.13-9.21,1.42-9.73-1.39-17.21-9.44-23.16-2.21-1.64-4.47-5.81-3.92-8.15,2.52-10.63-10.64-16.43-7.49-27.64,1.2-4.3-9-11.83-13.51-12S534,347.6,529.55,347.6ZM653.11,556.89l16.4-1.16c6.49-9.54,16.35-4.15,24.66-5.72,3.46-.66,5.06-3.62,4.6-7.45-.39-3.27.86-8.27-.85-9.58-6.42-4.92-5.12-11.47-6.27-17.94-1.07-5.95-8-9.82-6.61-17.55s-8.11-11.78-7.25-20.86c.59-6.3-3.89-14.53-8.6-19.55-7.68-8.18-3.39-17-3.46-25.33,0-3.16,5.58-8.43,9.12-8.88,2.75-.36,6.34,5.18,9.41,8.25a3.49,3.49,0,0,1,.89,2.92c-4.87,12.9,6.91,22.33,7.18,34.35.11,4.74,5.08,9.2,6.14,14.15,1.13,5.23.12,10.25,4.52,15.25,3,3.38.58,11.11,3.18,15.29,2.9,4.67,5.62,8.36,6.41,14.4,1.93,14.6,13.76,20.82,25.51,12.94,5.4-3.62,13.27-2.24,16.63-9.09,1.39-2.81,4.17-5.3,4.56-8.18.73-5.52.21-11.22.21-16.85-10.59-7.15-6.57-18.1-6.49-27.58.07-8.11-3.56-14.1-6.31-21.11-3.06-7.8-2.39-18.14-.32-26.64,3.45-14.17-8-24.6-7.43-37.81.1-2.47-3.53-5.23-5.7-7.61-5-5.48-8.84-6-13.8-1.11-6.41,6.33-12,13.13-22.81,10.78-2-.44-5.35,3.45-7.4,5.91-4.6,5.53-9.77,9-17.32,7.27a6,6,0,0,0-3.34.05,4.51,4.51,0,0,0-2.41,2.19c-2.74,6.74-5.14,13.62-8,20.32-3,7.07-11,10-13.76,18-5.41,15.75-14.15,30.19-21.8,44.91-6.19,11.9-5.5,22.66-3.17,34.43,7.53,4.44,4.57,11.82,5,18.18.59,9.42,1.15,10.33,8.44,10.45C637.36,557,641.86,556.89,653.11,556.89ZM158.63,673.05c0,7.84-.3,15.69.07,23.51.55,11.68-3.61,24.36,6.68,34.16,1,8.37-3.57,18.09,5.86,24.44q.45,13.26.88,26.51a20.94,20.94,0,0,1,0,3.36c-.88,6.82,4.83,9.63,8.71,13.05,1.87,1.63,6.93,2.23,8.71.88,5.3-4,9.7-9.24,14.45-14l14.25-14.25c5.54-5.55,11.34-10.86,16.55-16.7,4.49-5,10.73-6.7,15.93-10,4.47-2.84,4.59-11,9.61-15.88,9.31-9.11,8.85-21.72.6-31.82-8.89-10.9-17.14-28.32-21.28-44.93l-11.85-22c-3.51-5.76-9.14-5.32-14.72-5-1.11.05-2.7.49-3.28-.07-7.28-6.91-15.15-13.38-21.34-21.18-4.39-5.53-6.47-12.9-9.56-19.46-.89-1.87-1.66-5.39-2.52-5.4-3.91-.06-3.17,3.76-4.49,6.16-4.22,7.66-9.28,15.21-6.32,24.16,3.35,10.08-6.38,15.74-6.81,24.14-.52,10-.12,20.15-.12,30.23Zm459.08-62.49c0-9-.16-17.92.08-26.87.11-4.18-2-6.23-5.59-6.45-5.58-.35-11.85-1.67-16.62.31-5.77,2.4-10.26,8.39-17.5,6.27-8.65-2.52-13.66,5.91-20.76,6.51-6.88.59-11.82,3.4-17.72,6.28-6.13,3-14.49.41-20.39,7.75-7,8.67-14.83,17.07-23.74,23.63s1.39,11,.22,14.92c-3.05,10.36,8.93,15.83,6.88,24.13-2.3,9.31,9.6,12.36,7.12,20.8,11,4.62,2.88,17.24,9.19,22.91s1.63,13.37,4.79,18.25c8.59,13.22,15.08,27.29,21,41.74,1.2,2.91,2.91,2.51,4.75-.35,2.3-3.58,7.57-7.42,7-10.25-1.75-8.89,6.5-13.62,7-20.83.36-5.48,5.58-6.72,6.87-10.66,1.64-5-1.36-10.43,2.46-15.86,4.71-6.7,7.76-14.62,11.12-22.2,3.88-8.76,15.36-12.65,15.19-23.93C607.65,661,611,651.55,615.5,643.2c5-9.1,1.33-19.5,2.2-29.28C617.8,612.81,617.71,611.68,617.71,610.56ZM849.6,529.89c-12.32,0-24.66.45-37-.14-11.11-.54-19,9.76-30.48,8.18-2-.28-4.53,4.59-7.13,6.68-2.34,1.89-2.48,4.18.66,4.64,9.41,1.39,16.19,11.49,27.17,7.79,3-1,6.67-.15,10-.15,5.6,0,12.67-2.11,16.45.51,5.37,3.72,11.26,5.59,16.78,8.5,2.77,1.45,5.35,3.81,8.26,4.3,4.35.74,9.15-.68,13.34.42,4.93,1.28,9.93,6.84,14,6,9.13-1.88,13.31,8.74,20.77,7,10.16-2.36,14.47,8.61,23.64,8.74,3,0,6.07,5,11.14,5.29,5.38.26,25.64,9.8,27.86,13.26,4,6.3,11.66,5.28,16.37,9.44,5.86,5.19,11.13,11,16.75,16.5a3.43,3.43,0,0,0,2.86.95c2.82-1.06,7.7-2.26,7.86-3.82,1-9.56-1.75-19.79,7-27.58,1-.85.57-5.17-.61-6.12-10.06-8-15.85-20.89-30.26-24.34-6.75-1.61-8.63-13.26-18.34-12.31-5.7-6.73-16.36-5.5-21.36-13.34-8.94,3.84-11.35-10.19-20.74-7.16-8.76,2.84-13.86-9.8-24.15-7-3.78,1-9-4.93-13.91-6-5.36-1.13-11.15-.25-16.75-.25Zm-691-314.5c0,9-.17,18,.09,27a25.94,25.94,0,0,0,2,9.24c.82,1.92,3.76,3,4.46,4.9,1.06,2.9-1.13,6.66,2.5,9.13a28.18,28.18,0,0,1,4.8,4.72c2.19,2.44,4.63,4.76,6.24,7.55,1,1.71,0,4.65,1.07,6.24,1.85,2.74,4.62,4.88,7,7.25a7.78,7.78,0,0,0,11.44-.46c2.89-3.11,7.51-7.08,7.19-10.25-1.09-10.78,6.37-17.84,9.77-26.53,3.52-9,8.16-17.9,16.56-23.4,7.93-5.19,6.62-15.95,14-21.49,1.12-.83.18-6.7-1.57-8.65-5.77-6.45-5.41-16.31-13.91-21.56-6.16-3.8-9.49-10.81-12.92-18s-6-15.88-13.35-21.64c-7.88-6.23-14.33-14.25-21.77-21.1-1.23-1.14-4.62-.94-6.45-.1a7.11,7.11,0,0,0-3.53,4.94c-.74,8.79-1,17.63-1.37,26.46-12.4,7-.69,20.79-9.08,30.18-7.66,8.57-2,21.35-3.19,32.18A31.56,31.56,0,0,0,158.63,215.39ZM270,374.6c4-4,6.63-8.8,10.44-10,12.19-3.94,19.58-13.48,28.06-21.79,7.14-7,7.8-16,1.09-22.87-5.58-5.71-11.28-10.7-9.38-19.89.34-1.64-1-4.41-2.49-5.54-15-11.66-14.53-33.91-30.77-44.78-1.07-.71-.28-4.24-.32-6.46s.88-5.13-.18-6.62a37.41,37.41,0,0,0-9.38-9.4c-.81-.53-4.82,3.09-6.86,5.27-3.73,4-8.82,7.81-10.1,12.57s-3.67,7.7-6.66,10.79c-3.78,3.92-8,7-7.73,13.84.15,3.56-6.08,5.24-6.71,10.64-.57,4.88-4.15,9.41-6.39,14.1-1.16,2.42-.08,15.9-.2,18-.39,6.88,5.31,9.31,8.79,13.29,3.67,4.21,10.45,7.7,11,12.13.84,6.46,4,10.08,8,13.67,4.76,4.2,12.25,3.24,16.44,9.45C260.22,366.15,265.52,370.11,270,374.6ZM901,863.81c3.29,3.28,5.41,6,8.1,8,4.93,3.56,17.77,3.31,17.7.09-.3-13.79,14.3-10.56,19.38-18.39a60.87,60.87,0,0,1,19-18.71c4.28-2.55,11.31-2.58,13.32-7.72,6.28-16.1,20.79-25,30.88-37.71,7.21-9.06,13.44-19.06,19.84-28.75s8.54-21.63,18.26-29.4c5.15-4.12,1.32-10.48,2.23-15.73-12.63-9.21-15.3-26.4-28.43-35.34-4.69-3.2-10.64-2.18-11.56,4.49s-9.9,9.4-7.25,17.34c2.17,6.48-6.31,10.21-6,13.92.64,7.94-6.18,11-8,17.27-2.78,9.75-8.26,19-13.33,28-5.71,10-9.17,22.07-19.87,28.8,2.13,12.78-16.24,15-14.27,27.69C924,830,918.32,851.81,901,863.81ZM287.49,624.4v-.35c7.8,0,15.67.59,23.35-.33,2.63-.31,4.63-4.63,7.21-6.76,4.86-4-.29-5.88-2-7-6.95-4.55-6.68-14-12-18.53-15.12-13-21.56-33.12-37.74-45.13-2.55-1.9-5.85-4.71-6.16-7.4-1.29-11.49-10.68-17-18-22.56-8.65-6.52-7.94-17.91-16.19-24-4.31-3.16-8.12-3.77-11.62-1.48-7.79,5.1-7.42,15.37-13.84,21.46-.7.67,5.58,6.87,5,9.8-1.73,8.78,7.35,14.1,6.59,20.75-1,9,6.1,13.54,7.34,20.8s9.83,12.1,6.72,20.75c4.91,10.3,11,20,14.7,30.91.31.92,1.81,2.32,2.33,2.15,9.62-3.07,16.12,4.73,24.21,6.58C273.77,625.57,280.76,624.4,287.49,624.4ZM492.8,590.66c7.51-1,15.3,2.1,22.65-2.27,8.29-4.92,17.1-8.85,23.46-16.65,4.24-5.2,9.72-9.35,14.1-14.44,4.13-4.8,9.68-7.92,11.32-15.61,1.19-5.6,7.45-11,12.72-14.65,9.55-6.62,13.91-16.91,18.29-26.29,3.46-7.39,1.75-17.25,2.06-26,.17-4.54-3-6.29-9.79-5.6l-23.08,9.31c-5.54,5-9.68,12.24-18.65,11.89C543,496.71,540.8,502,532.28,505c-7.64,2.63-13,11.85-19.37,18.16-12.19-.55-15.38,11.44-23.36,16.77.55,6.31-.77,10.14-8.61,10.67-3.5.24-7.31,4.71-9.8,8.13-1.57,2.16-2.31,7.75-1.09,8.65,6.52,4.82,5.91,11.29,6.05,18,0,1.8,1.9,4.88,3.27,5.08C483.76,591.06,488.31,590.65,492.8,590.66ZM983.16,711.71c-1.37-2.55-1.72-3.6-2.39-4.35s-2.09-1.55-2.26-1.38c-7.24,7-14,14.66-21.62,21.23-8.08,6.95-19.35,9.5-25.83,19-3.09,4.56-7.26,10.52-11.86,11.49-9.64,2-15.66,8.2-20.64,15-5.63,7.67-16.25,5.93-21.45,14-6.68,10.36-18.85,13.64-28.69,19.92-2.6,1.65-5.84,2.33-8.4,4-5.31,3.52-7.28,7.56-.58,11.83.27,10.06,7.47,16.71,14.55,20.51a119.41,119.41,0,0,1,23.36,16.92c1.47,1.31,7,.48,8.69-1.27,7.51-8,18.28-13.66,21.71-24.55,3.62-11.52,15.62-15.3,20.47-25.22.44-.91-.43-2.62.13-3.28,9.53-11.43,15.91-24.56,22.7-37.71,3.71-7.2,10.72-12.95,13.85-21.26,2.91-7.75,6.87-15.12,10.7-22.49C978,719.58,980.94,715.32,983.16,711.71ZM692,179.81c-.29-2.14.74-8.93-2.18-12.47-4-4.91-5.72-9.65-4.46-15,2.72-11.59-11.64-18.87-7.3-31,.49-1.36-4.17-4.81-6.75-6.92-1.17-1-3.71-1.91-4.58-1.32-8.67,5.9-20.24,7.86-27.41,14.46-25.51,23.48-49.45,48.65-74,73.21a4.73,4.73,0,0,0-1.6,2.65c0,2.14-.28,4.71.78,6.3s3.46,2.34,5.43,2.74c5.49,1.12,6.92-5.67,10.67-6.38,9.31-1.76,20.22,3.32,27.37-7,6.71,0,13.44.26,20.14-.08,6.32-.31,12.36,1.17,18.58-4.32,3.92-3.48,12.44-1.95,18.92-2.29,5.58-.29,11.19,0,16.79-.07C691.53,192.21,691.83,191.89,692,179.81ZM617.88,689.12c-.29-4.08-.59-9.55-1.17-15a3.35,3.35,0,0,0-2.3-2.22c-.67-.09-1.58,1.27-2.34,2-2.38,2.36-6.94,5-6.72,7.06.82,7.68-7.76,10.69-7.68,17,.08,7.05-9.91,9.52-7,17.31-7.6,3.88-6.35,13.07-11.29,18.95-3.73,4.44-6.11,10.86-8.49,16.43s.15,12.22-5.66,18c-4.92,4.84,1.79,15.68-7.39,20.19,3.32,6.19,6.66,12.36,9.94,18.57,1,1.82,2.61,3.79,2.49,5.6-.48,7,.32,13.23,6.9,17.32-3.66,8.91,10.54,11.67,7.07,20.52,2.93,1,5.82,2.62,8.8,2.8,1.38.08,4-2.5,4.18-4.05.51-5.53-.28-11.2.33-16.72.68-6.22,7-9.71,7.09-17.32.15-13.68-5.43-28.75,6.28-40.77,0-14.52-.06-29,0-43.56,0-5.48-1.75-13.41,1.11-16C620.48,707.74,616.73,698.86,617.88,689.12ZM588.13,347.6c-4.56,0-9.27-.82-13.42.36-2,.55-3.74,4.81-4.05,7.57-.47,4.14-1.43,8.82,2.93,12.14,5.32,4.07,3.84,11.73,9.09,16.64,3.05,2.85.1,12.09,3.14,15,6.06,5.74,4.27,12,5.07,18.37.16,1.28,2.6,2.27,4,3.4,3.32-6.73,11.79-4.52,16.28-9.44a148.46,148.46,0,0,1,14.3-14.19c4.8-4,12.63-3,16.19-9.56,4.47-8.28,15.64-6.43,21.2-14.07,4.07-5.59,9.57-4,14,2.56,2.87,4.24,2.4,8.15-1.5,11.46-2.83,2.4-4,5,0,6.89,1.79.86,4.42.31,6.59,0,.9-.15,1.59-1.5,2.4-2.27,6.27-6,11.31-13,22.37-11.56,5.42.72,9.76-7.63,16.82-7.65.75,0,1.8-3.55,2.16-5.55.75-4.13-1.84-6-5.45-6.48a48.42,48.42,0,0,0-6.71-.06H683.27c-10.94-11-24.81-5.9-37.54-6.63a222.45,222.45,0,0,0-30.22,0C605.36,355.32,599,342.53,588.13,347.6Zm-436.26-4.8V319.19c-9.47-8.73-5.62-20.31-6.93-30.91-1.46-11.84,5.23-24.92-3.73-35.44-8-9.39-17.33-17.62-26.07-26.37-9.61,1.34-12.59-7.71-18.78-11.75-2.38-1.55-6-1.79-9-1.46-1.18.13-2.73,3.34-2.86,5.24-.38,5.6.89,11.48-.38,16.8-1.91,8,6.79,10.92,7,17.5.12,4.49-.85,9.22.25,13.43,1.28,4.94,4.2,9.48,6.54,14.12,8,15.82,14.61,32.55,24.53,47,6,8.83,11.68,17.74,15.57,27.42,1.85,4.59,5.35,6.77,7.78,10.26a19.86,19.86,0,0,0,2.36,2.41c1.25-1.48,3.49-2.9,3.58-4.45C152.1,356.31,151.87,349.55,151.87,342.8Zm50.59,99.37c15.58-15.58,31.18-31.07,46.63-46.69,6.16-6.23,5.51-15.92-1.36-22.88-9.42-9.55-18.83-19.1-28.49-28.4-4.06-3.92-7.43-7.73-7.28-13.9,0-.94-3.64-3.06-5.16-2.71-2.73.62-6.92,2.3-7.36,4.25-2.08,9.18-8.57,16.61-7.67,27.36.74,8.88-7.94,16.74-6.57,27.38.9,7,3.87,15.48-3,22-1.08,1-2.14,3.91-1.6,4.53,3.66,4.21,10.71,7.79,11.06,12C192.29,433.13,197.52,436.53,202.46,442.17Zm219.47-126.1h-.68c0-8.84.4-17.72-.22-26.52-.21-3-2.89-3.14-4.53-.68-2.75,4.12-6.81,4.39-11.39,5.11-3.69.57-6.25,4.81-10.5,6.75-32.28,14.68-32.22,14.92-52.28,35.53-2.6,2.68-8.73,4.58-6.41,9.21,1.86,3.73,3.86,7.19,5.5,11.16,2.26,5.48,6.57,11.61,14.52,11.21,5.45-.27,12.95,1.45,15.91-1.43,5.73-5.58,12.49-3.38,18-5.8,6.86-3,12.94-6,20.81-6.92,5.28-.61,11.36-6.31,11.32-14.15S421.93,323.9,421.93,316.07ZM374.68,457.2c-.78-4.87.83-9.94-3.14-15.29-8.77-11.81-12.15-26.74-23.53-37.59-8.87-8.46-11.56-12.15-18.66-7.63A38.11,38.11,0,0,1,318,402.07c-4.73,1.24-7.42,7.24-14.21,6.69-3.44-.27-4.63,7.92-2,11.13,6.25,7.54,16.22,12.28,18.72,22.56,2.39,9.82,15.93,12.54,14.66,24.3,7.15,7.15,14.25,14.37,21.61,21.3.44.41,3.44-1.09,4.55-2.33C366.6,479.77,374.46,462.82,374.68,457.2ZM779.51,695.7h.24V675.49c0-6.74-1.15-13.74.28-20.16,1.82-8.11-7.27-10.65-7.08-17.48s0-13.48,0-20.22c0-5.61-1.1-11.51.26-16.78,2.09-8.11-7.58-10.44-7.11-17.49.38-5.53,1.78-12.26-.69-16.44-3.93-6.64-12.18-2.56-18.53-3.17a72.13,72.13,0,0,0-16.81.11c-3.07.44-5.45,3.21-1.29,6.24,5.61,4.07,2.89,10.1,3.73,15.32s5.37,8.6,7.33,13.82c4.37,11.64,14.45,21.11,12.86,35.08,6.12,5.73,10.84,10.88,2,19-4.1,3.77,4.71,5.42,4.79,9.67.17,8.85.62,17.69,1,26.54,8.5,5.28,4.85,13.82,5.83,21.19,1.1,8.33,10.65,14.33,6.88,24.25-.22.57,2.48,2.39,4,3.31.24.14,2.2-1.45,2.21-2.25C779.55,722.59,779.51,709.15,779.51,695.7ZM412.26,502.36c-4.45,4.24-4.06,7.2,2.65,7.14,4.11,0,6.08,1.75,7,5.22,2.92,11.19,10.86,20.08,14,31.37,1.21,4.35,7.42,7.53,11.8,10.61,1.15.81,4.15-.4,6-1.3,2.52-1.25,2.07-3-.77-4.73-.93-.55-2.19-1.47-2.31-2.36-.71-5.38-.5-11-1.83-16.16-1.53-6-5.52-11.51-6.32-17.51-1.41-10.58,2.19-22.11-7-30.9l-1.58-26.33c-10-7.89-3.07-18.88-5.2-28.21-.46-2-.85-4.29-2-5.86-2-2.65-4.33-5.92-7.19-6.82-1.68-.52-5.48,2.52-6.87,4.84-4.38,7.31-6.77,15.8-14.4,21-5.67,3.9-4.86,11.78-2.72,15.15,4.32,6.8,7.58,13,6.24,21.14,7.42,4.09,5,14.2,11.53,18.82C415.53,499.16,415.3,500.7,412.26,502.36ZM579.44,960.83c-1.61,7.72-1.65,14.49-4.44,19.8-4.82,9.18-8.91,18.75-14.15,27.62-2.31,3.92-5.56,7.35-3.17,11.5,2.16,3.74,6.5,9.42,9.19,9.06,9.59-1.27,16.16,6,24.08,6.94,14.31,1.71,29,.52,43.49.39.81,0,1.8-1.3,2.34-2.21a2.38,2.38,0,0,0-.11-2.26c-9.63-7.54-14-18.49-19-29-1.33-2.81-2.56-5.9-4.66-8.07C602.35,983.55,591.41,972.8,579.44,960.83ZM442.89,341a68.48,68.48,0,0,0,6.73-4.24c7.82-6.06,6.78-18.44,16.52-23.24,8.64-4.25,9.55-13.86,14-21,3.87-6.22,5-14,11.86-18.55a32.68,32.68,0,0,0,9.31-9.47c1.41-2.25,1.15-6,.49-8.87-.29-1.2-3.48-2.32-5.4-2.42A25.85,25.85,0,0,0,481.21,257c-6.88,3.93-13.39,10.39-22.71,9.73a13.27,13.27,0,0,0-8.78,2.67c-9.33,8-17.88,16.17-14.58,30.83,1.67,7.43.84,15.6,0,23.31-.29,2.61-4.4,4.66-6.21,7.33C428.32,331.77,439.64,340.73,442.89,341Zm70.46-67.91c-8.16,8.16-16.78,15.47-23.46,24.26-2,2.64-2.83,7.47-4.81,11.35-3.44,6.72-6.11,13.39-12.1,18.63-3.58,3.13-9,5.55-9.52,13.56,23.76,0,47.07,0,70.39,0,10.62,0,11.38-2.7,5.57-14.25C530.54,309,522.12,291.12,513.35,273.05ZM279.48,637.91c-6.67,0-13.35,0-20,0-4.32.05-8,5.14-6.26,9,2.09,4.71,8.76,7.39,6.64,13.9-2.54,7.81,5.75,10.91,7.06,17.21,1,4.89,5,9.11,6.33,14,1.93,7,6.44,12,12.74,13.08,7.5,1.34,12-5.57,14.11-11.24,3.22-8.69,9.93-16.61,7.34-27.19-.6-2.44,1.38-6.25,3.31-8.41,3.33-3.71,4.95-7.79,1.67-11.38-3.47-3.79-6.08-9.37-12.88-9S286.16,637.91,279.48,637.91ZM922.94,367.85c9,0,17.94.18,26.9-.15,1.82-.06,3.58-2,5.36-3.14a47.92,47.92,0,0,0-5.16-3.41c-2.77-1.39-5.75-2.37-8.54-3.73-6.52-3.21-12.69-8.07-19.56-9.38a54.76,54.76,0,0,1-17.71-6.46c-6-3.34-15.28-.73-23.13-.73H857.56c-6,9.52-15.55,6.41-24.1,6.72-5.58.21-12.07-1.61-16.5.68-4.62,2.38-8.08,6.91-14.12,6.74-.77,0-1.58,1.48-2.37,2.27,1.4,1.28,2.75,3.6,4.21,3.67,7.83.37,15.68.17,23.53.17h23.54c9,0,18,.75,26.88-.21,8.38-.92,11.53,9.72,20.86,7.34C906.86,366.35,915.09,367.85,922.94,367.85ZM873.46,876.53c-3.86-5.7-11.3-7.54-17.62-11.33-7.41-4.43-12.46-12.64-19.28-18.31-6.12-5.09-9.22-11.47-11.86-18.56-.4-1.06-4-1.56-5.89-1.22s-5,2-5.07,3.23c-.51,6.64-.24,13.34-.24,20,9.42,5.95,6.4,15.41,6.75,23.92,0,1.11-.41,2.9.1,3.22,6.54,4.2,5.87,10.72,7.09,17.28,1.27,6.82,6,13,8.9,18.83ZM411.25,367.87c-.89.27-5.78.45-8.69,2.94-3.79,3.25-7.72,5-11.91,3.63-11-3.61-17.82,6-26.95,8.27-7.18,1.82-7.47,9.35-1.83,16.16,2.73,3.3,5.45,5.95,6.45,10.85,1.19,5.84,5.75,10.74,8.09,16.7,3.76,9.54,11.3,10,15.83.95,3.93-7.84,10.43-13.89,13.89-21.1,3.91-8.12,9.32-14.16,14.67-20.8,1.69-2.11,1-6.28,1.09-9.51C422,369.84,420.12,367.83,411.25,367.87ZM573.67,921.3c3.43-6.33,9.36-12.56,9.59-19s-5-13.38-8.15-19.91c-.92-1.91-4.47-3.28-4.42-4.82.25-7.93.42-15.55-7-20.82,2-8.48-9.56-12-7.66-20.5.13-.59-1.37-2-2.3-2.21-.61-.14-2.2,1.13-2.26,1.85-.76,9.61-11.52,16-8.23,27.12,1.23,4.13.66,9,.09,13.41-.82,6.31,1.52,11.12,6.53,14.13,6.42,3.86,5.66,11.45,9.58,16.31C563.67,912.07,568.87,916.5,573.67,921.3Zm-174-263.14c6.75,0,13.72,1.06,20.19-.29a56.07,56.07,0,0,0,20-8.28c2.42-1.66,3.19-8.61,1.89-12.11-1.79-4.81-5.62-11.39-9.69-12.32-8.54-1.94-17.81-.69-26.78-.76-2.62,8.63-18.46,2.47-17.42,15.79.25,3.15-3.54,4.74-7.35,4.57s-5.67,2.11-6,6.1c-.39,5.08,1.7,7.2,8.25,7.28C388.47,658.22,394.09,658.16,399.71,658.16ZM168.94,368.07l9.94-12.2c-5.63-13.94,9.39-24.16,6.75-37.56,4.29-4.87,8.3-8.75.23-14.9-6.59-5-14.48-10.32-14.88-20.68,0-1-5.94-3-8.53-2.34-3.79,1-3.47,4-.41,6.67,1.11,1,2.16,4.1,1.7,4.5-6,5.29-7.8,10.46-.89,16.43,5.16,4.46,1.41,10.54,2.53,15.76-7.8,4.86-4.61,9.07-.38,14.86,2.14,2.92.05,8.73.46,13.17C166,357,163.17,363,168.94,368.07Zm121.31,33.69c3.32-.4,6.37.15,7.39-1,8.55-10,19.65-15.51,31.83-19.36,5.59-1.77,4.13-6.4,4.83-10.53,1.43-8.44-5.45-11.49-9.89-15.75-2.93-2.81-14.47-.09-17.82,3.23-8.64,8.54-17.31,17.06-25.66,25.88-1.16,1.23-1.53,4.8-.6,6.11C283.38,394.59,287.19,398.34,290.25,401.76Zm224,601.14c.84-3.65.68-7.27,2.37-9.47,4-5.19,8.76-9.71-.12-14.54.75-6.21-2.83-13.54,4.5-18.06,2.78-1.71,2.79-4.44-.29-4.52-16.38-.4-32.78-.26-49.15.31-.88,0-3.21,7.16-2.07,8.36,4.23,4.5,7.18,11.67,15.4,10.49Zm126.11-393,45.11-45.13c-7.74-2-15.38-.83-22.83-1.14-7.37,9-17.61,6.31-27.13,6.94-1.51.1-3.94,2.62-4.09,4.19-.5,5.49.59,11.2-.37,16.58C629.38,600.71,635.56,605.32,640.35,609.91ZM489.44,232.77c-.77-4.19-.77-4.19-9.4-12.71-10.63-10.52-17.19-9.46-24.32,4.23-4.26,8.19-5.28,18-12.61,24.75-1.19,1.11-1.24,4.22-.75,6.13.41,1.61,2.37,2.83,3.64,4.22,4.72-8.45,15-3.44,20-7.42,6.72-5.38,16.64-5.35,21.16-13.51A46.39,46.39,0,0,0,489.44,232.77ZM600.9,523.07c-6,6-11.72,12.35-18.09,17.93-7.42,6.5-6.63,18.56-16.37,23.31-3,1.45-3.17,3.15-.74,4.68a6.61,6.61,0,0,0,2.76,1.34c3.33.16,7,.92,9.93-.15,3.83-1.38,6.86-5.45,10.68-6.26,5.33-1.11,11.09.06,16.61-.4,3.46-.29,5.67-2.34,5.38-6.6-.39-5.53-.76-11.21.06-16.64C612.37,532,605.92,528.83,600.9,523.07ZM536.7,979.7c0,5.62-.1,11.24,0,16.86.09,3.86,2.17,6.18,6.15,5.83,2-.17,5.52-1,5.68-1.94,1.1-6.55,6.07-11.12,8.14-16.92,1.73-4.84-1-10.55,3.81-15.42,3.49-3.54,4.94-9.08,7.38-13.68,1.82-3.44.75-5.33-2.49-6.06-8.45-1.9-14,4.31-20.95,6.49-4.82,1.52-8,2.3-7.8,8S536.7,974.07,536.7,979.7ZM273.4,406.85c-1.14-1.74-2.36-5-3.42-5-6.26.32-13.2-2.74-18.28,4.36-5.67,7.92-15.43,12.48-18.81,22.4s-12.82,14.7-18.77,22.42c-.5.65,1,3.21,2.06,4.49.44.55,2.12.09,3.23.09s2.7.48,3.28-.07c6.43-6.2,12.31-13,19.13-18.75,7.28-6.09,15.5-11,23.14-16.73a32.51,32.51,0,0,0,7-7.13C273.1,411.37,273,408.91,273.4,406.85ZM188.16,530.73c-.79.79-2.24,1.56-2.26,2.37-.22,8.9-1.35,18,.19,26.64.81,4.55,8.14,7.4,6.29,14,8.5,4.41,5.64,16.51,14.15,21a11.43,11.43,0,0,1,2.39,2.33c1.24-1.49,3.45-2.94,3.53-4.49.22-4.31,1.11-9.76-1-12.8C204,569.24,199.09,558,197.6,545.23c-6-2.76-4-9.6-7.12-13.78C190.08,530.93,189,531,188.16,530.73ZM1049.8,677.86h-.38c0-5.57,1.87-12.19-.51-16.42-2.59-4.63-5.89-8.54-6.83-14.16-.54-3.21-2.42-2.56-4.68-.56-9.28,8.17-10.78,17.07-3.92,25.55,4,4.92,11.69,7.68,9.69,16.29-.14.58,1.78,2.38,2.2,2.22,1.6-.63,4-1.64,4.23-2.84C1050.18,684.67,1049.8,681.23,1049.8,677.86ZM540.59,907.4c-7.26,7.17-3.1,15.18-3.68,22.42-.26,3.19,2.27,5.79,6.45,5.2a23.49,23.49,0,0,1,6.54,0c4,.54,6.14-1.55,6.92-4.86.45-1.9.29-4.72-.85-6.07C551.11,918.32,545.77,912.94,540.59,907.4ZM596,941.71,590.82,945c8.51,5.29,5.49,18.56,15.71,22.62a2.81,2.81,0,0,0,2.24-.16,6,6,0,0,0,2.15-2.31c4.13-8.76-10.77-11.1-6.94-20,.16-.37-3-2.39-4.81-3.3C598.31,941.35,597,941.72,596,941.71ZM455.68,585.63c0,2.19-.33,4.43.08,6.54.65,3.38,2.38,5.88,6.51,5.25,1.06-.16,2.41.38,3.23-.09,3.32-2,2.95-3.75.51-6.84s-3.11-7.37-4.74-11c-.4-.91-1.54-2.14-2.25-2.08a3.47,3.47,0,0,0-2.24,2.17A45.8,45.8,0,0,0,455.68,585.63ZM300.4,728.88a45,45,0,0,0-.1-6.57c-.14-.87-1.7-2.35-2.18-2.2-1.6.51-4.15,1.5-4.27,2.54a81.18,81.18,0,0,0-.09,13.14c0,.82,1.69,2.35,2.17,2.19,1.6-.5,3.81-1.32,4.28-2.58C300.94,733.47,300.4,731.08,300.4,728.88ZM447.76,602c.38-4.84-4.72-5.81-6.69-9a14.15,14.15,0,0,0-2.27-2.31c-1.12,1.69-3,3.3-3.23,5.1-.78,7,3.09,10.21,9.61,8.34C446.1,603.83,446.8,602.79,447.76,602ZM194.56,481.46c4.84.38,5.81-4.72,9-6.7a14.08,14.08,0,0,0,2.31-2.26c-1.69-1.13-3.3-3-5.1-3.24-7-.77-10.21,3.09-8.34,9.62C192.7,479.8,193.74,480.49,194.56,481.46ZM780.72,763.78l2.4,2.4a20.85,20.85,0,0,0,2.11-4.53c.13-.56-1.36-1.47-2.11-2.22Zm244.47-138.4-2.4,2.4a20.92,20.92,0,0,0,4.54,2.11c.55.12,1.46-1.36,2.21-2.11ZM182.26,502.88c-.75.75-2.24,1.66-2.12,2.22a21.33,21.33,0,0,0,2.11,4.53c.75-.75,2.24-1.66,2.12-2.22A21.33,21.33,0,0,0,182.26,502.88Z"/></svg>