<svg id="Layer_1" data-name="Layer 1" xmlns="http://www.w3.org/2000/svg" viewBox="0 0 1200 1200"><title>BB_Artboard 29</title><path d="M620.09,401.62c.71-5.23-2-11.09,3.33-15.49,4.1-3.35-1.33-9.82,3.48-12.9,5.83-3.73,1.11-10.19,4.68-15.07a56.79,56.79,0,0,0,8-15.83c1.58-4.86,5.16-9.05,7.56-13.69a22.65,22.65,0,0,0,1.82-6.45c.28-1.55-.55-3.57.16-4.73,3.14-5.13,9.75-7.3,9.94-15.31.14-6.46,4.27-12.46,8.29-18.12,3.35-4.7,4.24-11.1,7.22-16.15,1.59-2.71,4-4.7,3.4-8.26a8.25,8.25,0,0,1,3.12-8.36c2.41-2,6.22-4.61,6.17-6.88-.17-7.8,7.79-9.43,10.1-15.21,2.74-6.87,7-13.19,9.29-20.18,1.61-4.94,7.58-8.47,5.06-14.76,3.34.12,4.95-1.49,6.24-9.44.88-4.36,0-4.21-.11-3.84-.55,2-.78,4.17-1.33,6.2-.62,2.28.05,3.07,2.26,2.22a3.25,3.25,0,0,0,1.61-1.45c1.64-3.31,1.08-7.22-2.43-3.13-4.75,4.49-6.36,6.1-6.24,9.44-4.87-.17-6,4.76-9.22,6.81.61,6.65-4.74,9.63-8.6,13.25-4.27,4-5.8,8.35-6.82,14.22a28.77,28.77,0,0,1-8.37,15.72c-5.88,5.46-12.26,10.7-16.83,17.16-4,5.6-6.67,12.08-12.18,16.57,1.21,9-11.58,10.76-10.32,19.82-7.1,6.2-11.4,14.13-14.56,22.88-.75,2.07-2.54,3.84-4.09,5.52-6.3,6.81-14.34,12.25-17,21.88-7.75,5.67-9,16.41-17,21.85.82,5.69-3.26,8.82-6.91,11.5-4.22,3.08-1.83,9.35-6.7,11.8-5.4,2.73-5.09,9.24-8.48,13.35-.73.88-1.53,2.53-1.17,3.31.64,1.36,2.13,2.33,3.27,3.47q9.38,9.36,18.74,18.74c1.15,9.73,10.11,13.51,15.22,20.23.78,1-.37,3.36.25,4.68,1.31,2.81,5.85,3.5,8.08,1.55a9.11,9.11,0,0,0,1.69-1.71c2.87-4.42,5.38-9.13,8.63-13.25,3-3.76,6.72-6.89,10.13-10.3,4-4,7.74-8.19,12-11.84,2.76-2.37,2.26-5.55,3.42-8.28,1.61-3.77,8.74.24,8.86-5.49a9.08,9.08,0,0,1,4.45-7.8c6.21-4.12,5.38-12.85,11.8-16.93,5.35-3.4,7.85-9.15,10.48-14.85a8.69,8.69,0,0,1,9.73-5.2c1.92-6,5.62-10.69,10.11-15.15,4.84-4.82,10.17-9,12.54-16.48,1.65-5.25,9-8.33,9.72-15.2,6.79-3.15.9-11.12,5.22-14.59,4.87-3.91,2.72-8.72,3.24-13.21.18-1.59-.64-4.07.15-4.68,5.93-4.64,8.9-14,19-12.2,4,.72,5.54-2.85,7.46-5.06,3.46-4,3.52-10.13,8.59-13.3,4.82-3,3.21-10.05,8.42-13.48,4.59-3,8.27-7.59,11.95-11.82,1.36-1.56,1.39-4.21,2.41-6.18.64-1.24,1.94-3,3-3,7.22-.27,14.5-.63,21.65.11,2.61.27,5.45,3,7.25,5.39,3.46,4.52,2.26,15.43-1.65,19.48-5.36,5.55-10.35,11.07-14,18.25-3.14,6.12-9.93,10.31-14.87,15.59-2.57,2.74-2.21,6.86-4.78,10.18s-3.25,8.39-7.17,11.36c-2.58,2-4.53,4.31-4,8,1.26,8.26-2.83,17,4.27,24.91,3.16,3.53-1.73,11.45,2.23,15.67,4.7,5,3.76,10.66,2.85,15.6-1.21,6.54,4.92,9.54,5.12,14.93.21,5.57.22,11.16.32,16.74,7.55,5.22,3.65,13.08,4.45,19.82.54,4.59-1.18,9.74,4.06,12.8.28,7.11.9,14.23.72,21.33-.13,4.9,3.71,6.63,6.08,9.58,1.13,1.42,3.6.77,3.17-.78-1.81-6.48,7.89-8.43,5.34-14.82,4.8-2.92,4.49-7.57,5-12.43.68-5.84,6.85-8.3,10.29-12.53,2.49-3.06,6-1.43,9-1.49,12.18-.25,12.18-.14,20.51,8.58,4.74,5,4.89,15.7-.06,21.22-3.11,3.48-7,6.32-6.75,11.69-5.58,4.44-4.9,13.33-11.93,16.74l-6.8,16.46-6.81,16.45c-6.41,4.58-8.52,10.73-7.78,18.53.61,6.36-.12,12.85.19,19.26.31,6,7,10,5,17.35-1.39,5.26.12,11.21-.39,16.78-.47,5.22,6.23,6.85,5.12,12.51-.9,4.64-2,11,.25,14.11,3.59,5,2.91,10.48,5,14.9,2,4.23,4.49,7.72,4.32,12.74-.21,6.15,0,11.77,4.29,17.6,3.14,4.32-2.24,12.44,4.23,17.5,1.3,1,1.34,4.51.93,6.66-1.17,6,3.34,10,4.63,15,1.36,5.26-.72,11.42.6,16.71,1.23,4.88,5.52,8.91,7.46,13.72,2.78,6.9,8.88,12.74,6.87,21.35-.44,1.9.45,5.14,1.89,6.24,6.16,4.73,8.27,11,8.46,18.31,0,.53,1.15,1.51,1.62,1.43.64-.11,1.66-1,1.64-1.59-.16-6.35,3-11.5,5.14-17.16,1.85-4.93.21-11.11.44-16.72.21-5.45-1-12.23,1.73-16,3.92-5.39,2.62-10.49,3-15.75.36-5.6.08-11.24.08-16.86,6.79-4.32,4.66-11.15,4.79-17.28.14-6.42,0-12.85,0-19.28.08-6.16-1.29-12.77,4.8-17.27l.45-19.1c6.93-4.44,3.9-11.43,4.32-17.46.49-7.11.53-14.26.77-21.39,6.76-4.59,1.43-12.94,4.55-17.25,4.76-6.59,4.18-13.1,4.38-20,6.47-5.38,4.59-12.79,4.83-19.69,6.68-4.34,3.56-11.41,5.11-17.2s6.32-10.6,4.57-17.37c-.92-3.56,2.54-5.48,3.51-8.14,2.56-7,7.7-13.14,6.43-21.63-.45-3,3.23-6.54,4.38-10,1-2.86-.14-7.49,1.58-8.79,3.77-2.83,2.72-7.09,4.79-10.28,6.51-10,11.13-21.12,16.7-31.66,2.6-4.92,2.22-11.56,5.86-16.84,3.35-4.87,5.68-10.51,8-15.94a136.47,136.47,0,0,1,7.53-16.06c3.4-5.73,4.52-13.4,11.31-17.24,1.44-.82,2-4,2.13-6.15.14-3.25,0-6.32,3.08-8.42,6.67-4.56,6.7-14,13.58-18.51,1.2-.78,2.77-2.53,2.61-3.61-1.27-8.47,4.84-14.17,7.82-20.93s6.9-13.25,9.83-20c3.52-8.14,8.08-14.66,16.25-18.36,0,4.82-.19,9.66.07,14.47.17,3.07-1.37,4.58-3.89,4.73-3.63.22-6.44,1.09-5.76,5.32a24.94,24.94,0,0,1-5.11,19.53c-5.42,6.9-3.11,16.53-9.42,22.71,1.69,7.61-4.4,12.68-6.62,19-.95,2.71-3.32,4.89-3.15,8.38.09,2.14-.35,5.47-1.74,6.32-9.09,5.52-6.4,16.92-12.4,24-1.65,1.95.33,7.52-1.35,8.8-4.24,3.22-3.15,8.49-6.36,12.14a27.35,27.35,0,0,0-6.6,13.93c-.56,4.85-1.48,8.83-4.81,12.27,7,4.39,1.51,7.07-1.31,10.26-1.49,1.7-4.11,4.32-3.65,5.51,2.9,7.35-6.34,10.83-5.06,17.39s-7,10.4-5,17.33c.32,1.08-1.06,2.68-1.71,4q-3.89,8-7.8,16.06c2.85,7-7.71,10.27-4.83,17.29A40.15,40.15,0,0,0,952.9,512c.66,5.11-6.28,6.76-5,12.52,1,4.61.2,9.6.2,14.42-8.68,6.79-4.36,16.29-4.54,24.54-.15,6.53-7.53,9.82-5.44,17.38,1.65,6,.33,12.76.33,19.19-8.72,12.12-4.57,26-4.36,39,.11,7-7.2,10.1-5.57,17.36,1.37,6.13.28,12.8.28,19.23s2.11,13.87-.39,19.1c-7.28,15.24-3.74,31-4.15,46.43-.18,6.58-6.82,10.25-5.33,17.33,1.14,5.39.27,11.21.16,16.83,0,.59-.91,1.36-1.57,1.71-6.29,3.37-.36,11-5.14,14.74-2.89,2.23-2.24,5.57-3.47,8.24-3.26,7-11.28,8-17.07,11.12-8,4.31-16.7-1.38-23.79-5.36-6.08-3.4-10.52-9.79-15.46-15.07-.88-.94-.85-2.89-.92-4.39-.14-3.1.76-6.73-2.61-8.52-6.9-3.65-6.34-12.36-11.9-16.83,1.12-6.52-6.6-10.21-5.11-17.35.89-4.24-6.31-6.76-5.12-12.17-6.55-3.24-1.85-11-5.37-14.5a12.47,12.47,0,0,1-3.43-13c1.91-6.69-6.4-8.68-5.34-15,.72-4.26,2.19-9.6-2.84-13.2-1-.73-1.45-2.62-1.67-4.05-.84-5.23,1.19-10.52-3.15-15.74-2.46-3-1.14-9-1.76-13.6s-6.05-6.87-5-12.51c.85-4.48,1.14-9.41-3.7-13-1.27-.94-1.33-4.56-.82-6.68,1.88-7.79-5.62-12.36-6.22-19.22,0-.28-1.22-.8-1.6-.63-.69.31-1.62,1-1.66,1.64-.23,3.18,0,6.39-.34,9.55-.2,2.23-.28,5-1.57,6.52-3.93,4.79-10.06,8.28-8,16a27.3,27.3,0,0,0-5.14,17.3c.13,4.1-3.54,8.18-4.33,12.49-1,5.24.88,10.63-4.29,15.32-3,2.69,1.28,9.2-3.54,12.93-1.43,1.11-1.83,4.14-1.9,6.31-.23,7.22.76,14.6-.39,21.65-.73,4.45,7.72,5.19,3.17,9.21-5.58,4.91,1.5,6,2.08,8.93,1.31,6.62,6,12.14,4.94,19.76-.87,6.12.43,12.55.77,18.84,6.64,4.75,1.05,13.16,4.25,17.38,5,6.59,4,13.17,4.38,20,6.78,4.32,4.14,11.21,5,17.27.73,5.49-1.48,9.07-5.38,12.33-2.45,2.05-4.4,4.74-7,6.61-1,.75-3.73.77-4.6,0-5.32-4.89-10.89-9.69-15.26-15.38-3.08-4-3.84-9.72-6.62-14.05-5.28-8.21-7.38-18.15-14.07-25.52-.85-.94-2.23-1.4-3.37-2.08-.58,1.37-1.93,3-1.6,4.07,2,7-5.45,10.75-5.53,17.21,0,2.34-4.68,3.87-4.3,7.77.61,6.3.44,12.53-4.77,17.29,1.56,6-2.35,10.18-4.8,14.89-3.18,6.16-5.71,12.35-5,19.71.5,5.28-6.58,8.41-4.86,14.92,1.21,4.56-6.59,6.76-4.67,12.43,1.59,4.69-3.88,6.54-4.6,10.08-.92,4.59-.35,9.47-.92,14.16-.16,1.26-2.76,2.13-3.12,3.47-.54,2-1,5.11.09,6.35,4.75,5.44,10.83,9.83,15,15.64,4,5.58,6.75,11.92,12.08,16.68,6,5.35,11.62,11.12,17,17,3.06,3.34,9.77,6.07,7.5,11-2.48,5.33-7.44,11.19-12.67,13.1-5,1.83-12.29,3-17.57-3.29-5.65-6.75-12.41-12.57-18.6-18.89-3.29-3.36-6.35-6.83-11.65-7-.64,0-1.74-2.56-1.71-3.9.13-4.63-2.86-5.27-6.19-4.85-2.5.32-4,2.13-3.55,5,1.51,9-3.25,16.11-6.93,23.66-3.6,7.39-9,14.08-7.85,23.43.38,3.11-4.64,7-4.15,10,1,6.38-4.52,9.75-5.08,15a86.07,86.07,0,0,0,0,14.45c.25,4.07-3,5.78-5.25,7.4a15.92,15.92,0,0,1-17.59.79c-6.58-4.15-8.81-12.1-10.86-19.39-.83-3,.18-6.43-.2-9.6-.92-7.65,2.57-15.62-2.64-23-4.39-6.25-1.36-13.85-2.12-20.79-8.19-3.17-2.59-11.66-6.43-16.67-2.23-2.9-2.85-7.21-5.37-9.7-3.47-3.44-2.23-7.27-2.76-11a7.05,7.05,0,0,0-2.24-3.84c-4.83-4.4-9.07-8.72-7.52-16.33.56-2.72-5.25-4.64-7.47-2.67-1.2,1.06-2.29,2.26-3.42,3.39-4.55,4.55-8.69,9.65-13.77,13.47-4.17,3.14-10,3.73-13.36,8.6-1.11,1.6-3.81,2.64-5.91,2.88-4,.45-8-.07-12,.17-8.94.53-15.5-1.89-16.26-12.19-4.84-2.93-5.39-7.58-4.68-12.49.64-4.47,6-6.89,4.95-12.52-.84-4.5-.86-9.18,3.67-13,1.68-1.43,1.27-6,.86-9.05-.9-6.62,1.75-11.82,4.74-17.41,2.78-5.21,7.52-10.28,5-17.19,5.35-2.87,4-9.82,8.22-13.58,1.34-1.19,1.17-4.29,1.38-6.54.31-3.14-1-7.83.67-9.23,11-9.38,0-16.9-1.92-24.87-1-4.21-8-5.53-8.26-11-.19-4.87-4-7.16-6.93-9.06-7.09-4.62-7.06-13.75-13.4-18.81-5.62-4.49-10.22-10.22-15.48-15.18-4-3.78-3.32-10.08-8.35-13.59-3.68-2.56-6.24-6.85-8.93-10.64-3.21-4.5-2.81-4.26-4.9-2.91-6.92,4.49-9.9,12.16-13.08,18.78-2.44,5.11-5.9,8.82-8.9,13.19a53.33,53.33,0,0,0-6.79,14c-1.81,5.83-6.73,8.64-10.5,12.48-4.45,4.53-5.54,10.68-8.9,15.67-3.77,5.59-4,13.36-9.81,17.58-11.79,8.57-16.11,22.24-23.81,33.59.2,6.52-4.7,10.93-7,16.38a56.74,56.74,0,0,1-9.64,15.48c-3.84,4.36-5.51,10.84-10.6,14.73-.64.48-1.75,1.35-1.63,1.66,2.5,6.46-7.79,8.38-5.2,14.79-3.16,3.51-8.34,6.67-9,10.62-1.16,6.6-8.35,8.23-9.3,13-1.21,6-7.73,10.1-5.74,17.09.33,1.14-.93,3.92-1.5,3.94-9.64.25-8,7.29-8.23,13.23-7.46,6.89-7.72,17.91-15.08,25.26a29.61,29.61,0,0,0-9.08,20.29c-.09,3.39-3,6.7-4.57,10.07-5,10.78-11.15,21-15.8,32-2,4.73-9.32,6.53-8.32,13.44-4.86,2.36-4.12,8-6.76,11.68-1.28,1.78-3,4.16-2.69,6,.87,5.68-2.44,8.73-5.85,12.18-5.41,5.47-6.71,14-13.64,18.44,2.09,8.8-10.43,9.63-9.64,17.71l-23.25,23.22c-6.73-.05-8.1,7.63-13,9.31-4.32,1.48-9.6-.18-14.34.45-8.43,1.1-8.11,1-10.32-.58-6-4.17-7.71-9.76-6.63-16.62.12-.78-.11-1.62,0-2.4,1.1-6.13-3.15-13.61,2.05-18.28,5.43-4.88-1-13.43,6.6-16.72-.89-8.72,7.45-15.21,5.81-24.12-1.24-6.77,5.72-10.56,6.12-16.75,4.56-1.84,2-7.54,5.18-9.86,4-2.95,3.1-6.92,3.17-10.8,0-.78-.16-1.73.22-2.3,2.93-4.48,10.23-6.27,9.24-13-.82-5.56,4.89-8.48,4.63-12.47-.4-6.16,4.27-9.93,4.9-14.94s7.24-6.83,5.12-12.43c5.88-3.5,3-10.53,5.53-14.48a26.73,26.73,0,0,0,4.35-12.85c.28-2.68,3.27-5,4.52-7.7,1.87-4,5.21-8.67,4.47-12.36-1.35-6.69,7.07-8.89,5.24-15,4.25-2.78,3.53-8.71,6.7-11.56,3.79-3.42,1.69-9.54,6.63-11.86.79-8,3.36-14.67,10-20.15,3.13-2.58.22-8.36,3.29-13,6.51-9.89,10.09-21.57,16.67-31.61.64-1,0-3.09-.56-4.48-.91-2.3-1.86-1.95-3.45-.32s-3.85,2.21-5.8,3.33c-5.36,3.06-10.57,6.49-17.3,4.84-3.61-.88-5.83,1.46-8.14,3.75-.31.31-2.6-.61-3.22-1.49-3.77-5.34-10.9.55-15-5s-11.67-9.09-9.15-18c-5.52-4.67-4.92-11-4.85-17.29.1-8.84,0-17.68,0-26.52,7.68-7,3.82-16.23,5-24.51.17-1.29,1.87-2.57,3.14-3.45,1.91-1.34,2-2.5-.29-3.4a7.73,7.73,0,0,0-4.52-.53c-1.37.37-2.57,1.65-3.67,2.71-2.89,2.78-6.16,5.34-8.43,8.58-3,4.26-8.84,2.25-12,6.52-1.28,1.71-5.81,1.19-8.88,1.3-4.82.19-9.65.2-14.47,0-2.63-.12-3.22-2-4.2-4.5-4.38-11-5.05-10.92-4.49-19.77.38-6.17-3.27-13.6,1.93-18.29,5.41-4.87-1-13.43,6.6-16.71-.35-7.12,5.37-12.84,5.4-19.3,0-6.7,7.35-10.29,5.34-17.33-1.4-4.9,6.63-6.79,4.75-12.45-1.54-4.66,2.21-7.15,4.77-10-3.6-7.85,4.64-12.58,5.21-19.68a27.67,27.67,0,0,1,8.63-18c-1.53-7.42,2.88-13.74,6-19.12,3-5.13,3.49-12,9.1-15.61-1.12-4.87,2.48-7.28,5.41-9.78,3.3-2.82,3.49-6.43,4.57-10.25,1.8-6.34,3.45-13.32,9.05-17.88,4-3.28,6-7,5.19-12.4-.71-4.79,6.48-6.74,4.83-12.49-1.7-5.91,4.27-7.87,7-11.48.48-.63,1.69-1.25,1.61-1.7-2.06-11.6,8.83-17.18,12.45-26.25,3.25-8.13,8.12-16,12.21-23.91,4.41-8.55,9.07-17.08,12.9-26a45.49,45.49,0,0,0,1.92-6.44c.57-2.18.27-5.42,1.64-6.44,9.21-6.82,10.05-18.64,16.7-27,3.55-4.48,3.82-11.53,7.31-16.09,3.75-4.89,6.93-10,10.34-15s7.08-9.77,10.11-15.16c2.19-3.9,2-9,6.48-11.92,3.2-2.08,6.51-4.91,5.32-9.76,6.82-4.48,8.41-12.78,13.52-18.51-1.14-9.08,11.39-10.81,10.66-19.73a2.48,2.48,0,0,1,1.3-1.8c3.76-1.78,10.31-.66,8.28-8.25,2.82-2.85,5.63-5.71,8.46-8.55q9.36-9.39,18.75-18.76c.57-.57,1.73-1.35,1.62-1.67-2-5.66,4-7.9,5.3-12.39,1.77-6.31,7.36-11.6,8.87-17.91,1.26-5.24,7.71-8.41,5.34-14.83-.42-1.15.18-3.54,1.11-4.19,6.72-4.67,9.25-12.35,12.94-18.88,3.26-5.75,5.51-12.13,8.78-18.07,2.19-4,3.47-8.43,7.2-11.42a8.88,8.88,0,0,0,3.74-8.17c-.15-2.16.14-5.56,1.49-6.42,7.09-4.49,7.08-13.88,13.5-18.68,1.27-1,3.4-2.42,3.25-3.36-1.57-9.93,6.89-14.94,10.56-22.25.66-1.32.62-3.31,1.61-4.09,10.65-8.4,14.76-22.23,25.51-30.48,3.84-11.92,14.29-18.42,22.23-26.94,6.46-6.93,6.7-6.71,17.08-1.42C562.83,36,565.3,42.92,560,54.15c-4.44,9.42-9.3,18.66-14,27.93-2.64,5.2-3.18,12.38-9.83,15.33-1.25.55-3,2.61-2.75,3.5,2.44,9-6.14,12.17-8.72,18.21-2.25,5.27-7.33,9.78-6.25,16.88.46,3-2.87,6.66-4.48,10s-3.62,6.58-4.74,10.09c-2.3,7.19-13.44,10.06-9.73,20.09-4.29,6.19-6.28,13.7-10,19.89-8.52,14.14-13.44,30.13-23.27,43.48.56,5.54-3.66,8.24-6.76,11.7-1.46,1.64-3.59,4.27-3.14,5.74,2,6.46-4.58,9.56-5.15,14.94-.46,4.47-5.17,7-5.13,12.48a22.16,22.16,0,0,1-5.68,14.2c-4.08,4.25-3.12,8.58-3.69,13.14-.16,1.3-1.93,2.35-2.83,3.62-2.61,3.67-3.1,8.27-6.32,12-2,2.3-1.17,7.92-.19,11.69,1.82,7-5.91,10.64-5.18,17.36.68,6.28-.11,12.72-.25,19.09-7,4.44-4.58,11.53-4.13,17.45.41,5.51-3.88,8.27-4.92,12.53-1.09,4.5-.51,9.39-1.33,14-.37,2.05-3,3.64-3.54,5.72-1.32,5.12,2.22,11-3.05,15.69-4.16,3.7-1.53,9.06-1.75,13.63-.24,4.89-6.62,6.72-5.15,12.51,1,3.77.31,8,.15,12-.18,4.66-6.44,6.83-4.88,12.5s-2.07,10.08-4.41,15c-1.87,3.95.85,10.52-1.5,13.69-3.19,4.3-2.83,6.15.82,8.83-.82,6.79,5.55,9,8.42,13.42,2.43,3.75,3.06,8.3,6.73,11.77s5.65,8.87,8.79,13.1,6.16,4,9.91,1c8.75-6.92,11.42-18.38,19.56-25.69-.52-5.85,5-7.64,7.69-11.27s2.15-9,6.74-11.77c3.43-2.09,5.22-5.3,5-10-.46-10.42-.53-20.91,0-31.33.28-5.29-1.81-8.92-5-12.48,1.35-7.48-3.41-15.91,3.87-22.6,1.3-1.19,1.38-4.62.84-6.72-3.29-12.8,7.73-21.08,10.1-32.13.65-3,5.38-5.25,8.46-7.54,1.11-.83,3.06-.47,4.29-1.2,4.54-2.7,8.65-7.25,13.45-8.1,7.78-1.39,16-.55,24-.28,1.18,0,2.13,2.37,3.47,3.15,3.85,2.24,5.83,2.27,8.14-.47,3.91-4.63,9.24-7.62,10.84-14.87,1.17-5.25,7.44-8.92,10.25-14.91,3.08-6.57,6.21-14.17,13-18.8,5.92-4,5.44-12.53,11.83-16.92,5.86-4,10.28-10.12,15.54-15.07,3-2.79.9-7.52,4.93-10.2,3-2,6.26-4.4,6.75-9.19.27-2.61,3-5.49,5.43-7.22,3.64-2.64,2.87-7.17,5.15-10,4.37-5.35,5.2-13.12,11.79-16.88,5.82-3.33,5.87-10.53,10.05-15.21,4-4.47,11.55-6.73,10.7-14.77,3.32-3.45,6.44-7.13,10-10.24a8.77,8.77,0,0,1,6.24-2.07c11.65,1.91,17.55-5.6,22-14,1.46-2.77,2.61-5.72,5-7.49,8.39-6.25,10.84-16.87,18.5-23.87,7.34-6.72,10.23-17.46,18.92-23.4.59-.4,1.34-1.27,1.27-1.83-1-7.81,8.66-9.12,9.5-15.33.49-3.66,2.44-5.6,4.61-7.79,4.51-4.58,8.7-9.6,13.74-13.51,5.23-4.07,5.34-11,10-15.29,3.11-2.84,3.7-3,5.61,1.26.91,2,1.67,4.27,3.08,5.94,2.44,2.89,2.93,5.75.07,8.23-4.81,4.16-7.39,9.57-10.48,14.94-2.24,3.88-2,9-6.42,12-3.12,2.06-6.62,4.78-5.56,9.65-7,8-9.46,18.68-16.27,27.19-5.8,7.25-10.67,16.2-12.67,25.93-11.64,8.55-11.86,25.12-23.57,33.64-4.09,10.44-10,20-14.59,30.14s-10.43,19.76-14.85,30c-4.72,10.92-10.32,21.42-15.21,32.27-4.57,10.12-11.07,19.42-15,30-7.34,4,.56,15-8.39,18.22,1.17,12.4-8.48,20.62-12.16,31.14C622.31,401.84,620.89,401.62,620.09,401.62ZM451.28,213.52c-1.61,1-4,1.74-4.63,3.21-.81,1.81-.19,4.26-.19,8.59,0-.72.28-1.72-.08-2.07a2.11,2.11,0,0,0-2,0c-1.58,1.12-3.56,2.49-.66,4.19.38.23,1.82-1.35,2.78-4.24,1.6-1,4-1.74,4.62-3.21.81-1.81.2-4.26,3-15.67-.53.25-1.43.41-1.52.78-.54,2-.78,4.16-1.33,6.2-.62,2.28.05,3.06,2.26,2.21a3.16,3.16,0,0,0,1.61-1.45C456.77,208.73,456.2,204.82,451.28,213.52ZM593.82,898.4c.72,0,1.71.28,2.07-.08a2.09,2.09,0,0,0,0-2c-1.12-1.59-2.5-3.57-4.19-.67-.23.39,1.35,1.83,42.83,43.77.8-6.28.33-13-6.5-15.9-11.19-4.7-19.16-12-23.26-23.45-.34-1-8.7-2.35-8.76-1.63-.19,2.36-.69,5,.08,7.09,1,2.72,5.46,3.68,4.64,7.59-1.13,5.35,1.16,9.09,5.19,12.18,3.3,2.53,5.22,5.62,4.53,10.07-.89,5.75.12,11,5.49,14.37,5,3.12,4,8,4.23,12.62.07,1.19,1.58,2.31,2.42,3.47.57-.57,1.16-1.1,1.69-1.69C631.31,956.23,634.52,948.57,593.82,898.4ZM678,428.14c0-.8.32-1.91-.09-2.31a2.48,2.48,0,0,0-2.29-.05c-5.89,3.28-6.54,10.24-10.36,14.88-4.56,5.55-11.91,9.5-14.67,15.65s-6,11-10.85,14.63c-5.93,4.5-4.86,13.19-11.71,17-5.18,2.9-4.55,9.78-2.28,12.56,3.1,3.79,3,8.73,6.37,12,2.89,2.79,5.6,5.77,8.61,8.4.48.41,3.18-.61,3.17-.92-.18-7.06,8.26-11.7,5.34-19.65-.63-1.72.73-4.38,1.63-6.41,3.33-7.48,9.3-14,8.45-23,4.83-2.38,3-8.73,6.82-11.59,5.14-3.82-.58-10.86,4.94-14.95,3.51-2.61,2.18-8.92,6.83-11.62.69-.4.09-3,2.9-11.48a17.73,17.73,0,0,0-2.75,2.33c-.35.43-.06,1.38-.06,2.1.72,0,1.68.29,2.1-.06a9.76,9.76,0,0,0,2.2-2.85C682.35,422.66,681.33,421.87,678,428.14ZM706.9,543.73c0-28.88-.06-57.77.11-86.65,0-2.41-.14-3.28-2.5-2.36-.68.27-1.67,1.12-1.64,1.65.44,6.45-7.94,9.95-5.61,17-3.6,5.68-4.58,12.77-9.6,17.72-.4.39-.25,1.61,0,2.34,2.19,6.92-5.76,10.72-5.22,17.11-7.3,3.4-1.94,12.06-6.81,16.43-3.53,3.17-3.36,8.15-6.39,11.95s.3,10.57-5.26,14.73c-1.58,1.18-1.73,7.18-.19,9,3.31,3.9,4.18,7.76,4.89,12.63a28.85,28.85,0,0,0,6.67,13.9c4.95,5.73.32,12.64,3.36,17.93s10.72,7.53,8.94,15.59c-1.13,5.13,6,6.83,5.1,12.49-.41,2.41,5.55,4.1,7.54,2.07,3.18-3.25,7-5.63,6.84-11.66-.48-27.27-.21-54.55,4.71-177.82a44.07,44.07,0,0,0-.56-5.5,3.35,3.35,0,0,0-1.49-1.55c-1,.74-2.63,1.58-2.74,2.55-.35,3,.16,6.13-.22,9.14-.3,2.34.12,3.12,2.37,2.26a2.83,2.83,0,0,0,1.61-1.51C711.33,451,711.62,448.84,706.9,543.73ZM190.81,1111.3c7.74-4.76,13.58-10.47,16-19.11,4.78-2.4,2.86-8.3,6.5-11.92,3.42-3.39,3.9-9.53,6.56-13.93,2.39-3.95,6-7.15,9-10.75a2.69,2.69,0,0,0,.46-2.17c-1.93-6.15,3.11-10,4.95-14.83s4.37-9.42,6.5-14.16c2.75-6.08,5.45-12.44,8.91-17.88,3.62-5.69,8.4-10.68,11.63-16.92,6.18-12,9.42-25.68,20.28-34.93-.91-6.57,7.87-9.74,5.86-17-.46-1.62,1.36-4.23,2.7-5.93,2-2.5,6.73-5.16,6.33-6.77-1.64-6.63,7.91-8.5,5.49-14.83,3-4.41,8.67-6.31,9.73-12.91.79-4.84,4.47-9.35,7.36-13.69,2.5-3.77,1.86-9.31,6.72-11.68s3.6-8.55,6.92-11.48c3.75-3.3,3.17-8.3,6.24-12.11,2.6-3.22,3.95-7.84,7.1-11.4,3.45-3.9,7.87-8.65,8.11-13.23.28-5.45,5.12-7.49,5.64-12.36.63-5.92,6.49-8.64,10.31-12.44,3.12-3.11,4.41-6.24,4-10.47-.12-1.42.11-3.59,1-4.28,5.8-4.37,7.1-12.33,12.08-16.53,8-6.79,10.47-17.37,18.4-23.9,1.07-.88,2.24-2.69,2.05-3.85-1.05-6.33,1.79-10.73,6.51-14.21,10.37-7.64,14.83-19.22,20.37-30.09.52-1,1.27-2.84.85-3.3-3.8-4.13-8.91-7.44-11.51-12.17s-4.1-9.91-8.88-13.18c-3.93,3.93-10.19,7.37-11.21,12-1.08,4.88-5.49,7.35-5.75,12.22-.32,6.16-7.55,7.65-9.54,12.86-1.6,4.15-2.45,8.85-5,12.32-4.5,6.13-5.51,14.58-12.65,18.88-1.58,6.24-7.32,10.09-9.69,15.26-2.74,5.94-8.12,9.67-10.32,15-3.17,7.58-7.89,14.34-10.62,22.08-3.06,8.7-8.81,15.71-14.25,23-3.95,5.29-3.75,13.38-9.6,17.54-6.08,4.33-4.45,13.54-11.74,17-1.56.75-3,4-2.76,5.82.85,5.63-2.13,8.94-5.82,12.14-2.41,2.1-3.39,4.66-4.33,7.87-1.44,4.87-5.5,8.92-7.42,13.73-2.21,5.51-5.93,10.17-7.3,16.3-1.07,4.84-6.2,8.65-7.91,13.49-2,5.59-1.89,11.57-5.76,17a66,66,0,0,0-9.57,20c-1.28,4.45-7.27,6.73-5.15,12.36s-4.94,7.36-5,12.43c-.07,4.42-5.78,6.86-5.54,12.18.08,1.76-3.92,3.87-3.67,5.46,1.48,9.72-1.91,17-9.59,22.72-.8.6-.07,3-.32,4.6-.36,2.22-.23,5.33-1.61,6.42-3.87,3.08-2.56,7.07-3.36,10.8-.76,3.53-4.44,6.78-4.33,10.06.19,5.52-1.9,9-5.75,12.21-4.91,4.05-5.48,10.65-9,15.5,3.81,7.27-6.1,10.7-4.83,17.26-6.64,4.34-4.58,11.12-4.82,19.5.75-2.24,0-3-2.23-2.21a3,3,0,0,0-1.6,1.46,8.9,8.9,0,0,0-.88,4.06c.17,1.29,1.22,2.46,1.89,3.68.94-.83,2.34-1.5,2.71-2.54C191.19,1116,190.83,1114.36,190.81,1111.3Zm38.61-304.55a64.55,64.55,0,0,0,0,7.23c.63,5.38-2.77,12.39,1.88,15.85,6.15,4.56,10.88-3.42,16-5.61,4.47-1.93,10.81-2.41,13.64-7.81C272.1,811,271,810.27,278,799.8c5.14-7.59,7.69-16.24,12.91-23.76,5.41-7.8,8.27-17.37,12.24-26.17,7.1-3.49-.26-12.87,6.74-16.58.95-.51,1.21-2.67,1.44-4.12.85-5.21-1.34-10.52,3.36-15.67,2.49-2.73.29-9.26,1.72-13.58,1.64-4.95,6.16-9,4.6-14.94,5.19-4.76,5.24-11,4.83-17.28-.32-4.86-.4-9.62,4.54-12.58-1.54-6.68,2.86-11.57,5-17.21,1.6-4.29-2.25-10.06,2-13.56,4.71-3.92.77-10.28,3.57-12.89,5-4.7,4.21-9.91,4.21-15.29,0-6.27,7.25-9.91,5.19-17.37-1.35-4.88-2.12-11.28,3.92-15-.17-5.39.47-11-.87-16.07-.69-2.58-3.42-4.65-3.63-8.18-.11-1.84-3-3.44-4.52-5.28-1.9-2.35-4.68-3.74-5.14-7.58-.33-2.65-3.43-4.9-5.07-7.46-1.31-2.06-2.17-2.16-3.47-.3-1.77,2.52-4.16,4.67-5.57,7.35-3.46,6.57-6.46,13.39-9.74,20s-5.87,14-11.82,19.28a8.27,8.27,0,0,0-2.48,6c.64,6.54-.8,12.25-5,17.29,1.7,7.61-5.15,12.41-6.25,19.1-4.67,1.79-1.82,7.59-5.15,9.88-5.09,3.49-1.28,9.32-3.61,12.94-2.15,3.34-5.17,5.87-4.29,10.33.73,3.68-1.59,5.83-4,8-1.78,1.63-4.53,3.18-4.91,5.14-.87,4.61.18,9.64-1,14.13-1.35,5.27-8.85,6.81-9.37,12.93-.33,3.9.5,7.71-3.41,10.73-4.14,3.19.71,9.09-3.34,13.1-2.51,2.49-3,7-5.41,9.64s-2.26,5.62-2.41,8.73.63,7.59-1.07,9c-4.58,3.85-4.37,8.61-3.53,13,1.09,5.67-4.72,7.93-4.95,12.5-.29,5.61-.12,11.24-.06,16.86s1.07,11.31-4.83,14.87ZM603.69,522.63c-10,4.45-11.39,16-18.65,22.69-1.59,1.46-3.24,3.73-3.37,5.72a10.15,10.15,0,0,1-7,8.78c-5.24,1.35-7.23,3.06-8.6,8.51-.76,3-3.13,6.6-4.82,9.91s-5.09,6.26-8.33,8.51c-4.28,3-4.16,8.12-6.85,11.62-3.38,4.4-9.28,7.36-11.42,12.14-3.83,8.54-11.24,17.25-3.72,27.65,1.26,1.73,2.48,4.28,2.17,6.2-1.11,6.69,1.56,12,5,17.25-2.85,7,6,10.71,4.83,17.23,4.59,3,5.13,7.39,4.92,12.42-.19,4.64,6.39,6.79,4.81,12.45-1.63,5.89,6.47,8.37,5.65,14.54-.28,2.06,1.64,1.89,3.24.09,5.13-5.78,8.17-12.42,10.55-19.72,1.11-3.37,6-5.4,4.56-10.09-2.12-6.85,2.45-11.73,4.87-17.22,3.89-8.82,10.73-16.49,10.43-26.93,6.72-3.17,2.25-10.21,5.08-14.71s5.69-8.86,8.44-13.34a3.18,3.18,0,0,0,.11-2.32c-2.22-7.52,7.14-12.15,4.86-19.64,3.4-5.78,5.79-12.07,9.29-17.85a44.23,44.23,0,0,0,4.11-7.82c1.16-3.37,1.75-9.12-.15-10.87-3.82-3.51-2.63-8.8-6.35-12.1-3.32-2.94-8.45-5.37-6.9-11.47C605.43,532,606.62,526.11,603.69,522.63ZM581.18,766.38c-1.74,7.85,4.64,14.32,8.24,21.67,1.66,3.38,6.65,4.43,6.6,9.3s6.48,6.62,5.42,12.28c-.34,1.79,2.22,2.31,3.1.53.65-1.31.55-3,1.11-4.34,2.57-6.36,10.6-9.1,11.05-17.12.09-1.79,3.43-3.22,4.8-5.15,4-5.56,6.41-12,11.66-16.94,2.18-2.05.12-8.3,2.2-10.82,4.4-5.34,9-10.29,11.72-16.86a197.29,197.29,0,0,1,8.53-18.06c5-9.22,7.67-20,16.77-26.69-1-7.27,4.44-12.68,5.54-19.31a9.29,9.29,0,0,0-2.69-8.54c-2.59-2.7-7.92-4.43-6.71-9,1.7-6.48-4.17-9.62-5.16-14.84s-6.33-8.66-4.93-14.89c.34-1.51-2-4.14-3.69-5.46-4.91-3.79-6.45-8.57-5.85-14.52.09-1-1.65-2.09-2.55-3.14a15,15,0,0,0-1.68,1.71c-1.74,2.49-5.69,3.53-5.24,7.41s-3.73,4.9-4.74,7.66c-1.31,3.54,1.77,8-1.9,11.21-4.18,3.65-3.24,10.22-7.87,13.57,3,7-5.54,11.49-4.46,17.14,1.28,6.68-6.37,9-5.22,14.89,1.31,6.71-5.69,10.5-6.09,16.67-7.26,3.4.1,12.84-6.76,16.41a129.4,129.4,0,0,1-13.87,27.8c-3.49,5.37.6,12.8-6.24,16.94C580.7,756.82,581.56,761.78,581.18,766.38ZM306.59,470.32a34.48,34.48,0,0,0-.93-4.43c-.23-.68-1.08-1.16-1.64-1.72q-2.55-2.57-5.11-5.11c-3.52-3.52-2.49-2.62-7.05,2.63-6.15,7.09-7.92,16.14-13,23.72-4.4,6.6-7.32,14.52-10.88,21.87-3.89,8-6.79,16.73-11.91,23.84-3.32,4.6-.24,10.4-3.29,13a27.09,27.09,0,0,0-10,20.11c-4.93,2.32-2.88,8.45-6.65,11.8-3.25,2.89-2.25,8.94-6.78,11.52,2,5.55-4.39,7.55-5.18,12.38s-4,9.68-7,13.79c-2.77,3.7-2.71,8.46-6.38,12-2.91,2.84-.13,8.38-3.23,13-3.51,5.27-7,11.11-7.69,18.54-.6,6.06-4.47,12.6-9.08,17.72,3,7.05-5.49,11.37-4.55,17.21,1.38,8.59-4.59,14.34-6.37,21.6-.51,2.08-3,3.7-3.39,5.76-.6,3.1.46,6.55-.32,9.56-.92,3.52-3.1,6.71-4.62,10.09-.3.67-.36,2,0,2.31.94.73,2.87,1.74,3.24,1.39,4.69-4.37,9.18-9,13.72-13.5l11.91-11.92c-1.12-7.83,7.29-9.64,9.63-15.26,2-4.79,2.8-10.45,5.91-14.3,3.93-4.88,5.05-10.89,8.52-15.84a88.37,88.37,0,0,0,9.24-17.8c3.06-7.61,8.56-14.22,9.89-22.32.66-4,2.57-7,3.93-10.46,1.78-4.5,3.4-8.82,7.33-11.31,4.58-2.88,2.15-9,6.59-12,1.36-.91,2-4.43,1.5-6.34-1.58-5.69,5-7.43,5.27-12.47.16-3.42,3.41-6.57,4.42-10.09,1.25-4.34-.53-8.83,2.16-13.61,2.83-5,7.79-9.8,7.44-16-.4-7.26,8.59-11.83,5-19.66,6.7-4.33,4.31-11.16,5-17.24.22-2,2.31-3.81,3.27-5.83,1.28-2.66,1.62-6.18,3.58-8,3.56-3.37,1.84-7.38,2.82-11C302.69,475.22,305,472.86,306.59,470.32ZM586.17,491c-3.18-3.56-8.73-6.93-9-10.67-.54-7.72-9.21-8.8-10.1-15.25-1-7.17-7.43-9.92-11.55-14.42-3.61-3.95-6.58-10.38-12.42-10.16-7.46.27-7,8.83-9.36,13.6-1.85,3.69-3.9,7.07-6.87,9-4.1,2.66-2.29,7.2-4.84,10.26-2.32,2.79-2.79,7.32-5.37,9.67-8.79,8-10.81,19.81-17.13,29.14-1.25,1.84-1.88,4.11-3.21,5.87-3.38,4.48,2.9,4.2,3.25,7,.7,5.35-2.42,11.27,1.95,16,5.07,5.5,1.62,12.14,2.83,18.12,1.32,6.6,6.08,12.11,5.89,19.35,0,1.66,3.21,3.34,4.83,5.12,1.24,1.35,3.36,1.07,3.23-.83-.4-5.8,3.63-8.59,7.08-11.56,4.28-3.69,3.51-9.82,8.23-13.68,6.47-5.3,12.93-10.94,15.88-19.78,1.37-4.09,6.92-6.59,9.75-10.42,3.09-4.17,7.37-9.07,7.31-13.6-.09-8.16,8.75-4.15,9.24-7.91C576.76,498.59,582.41,495.51,586.17,491ZM702,732.47c1.16-4.3-1.48-7.1-4.48-9.92-1.86-1.74-5.17-2.51-4.75-.21,1.05,5.81-5.36,7.47-5.34,12.51,0,4.55-6.45,6.81-5.26,12.21-4.82,2.38-3.45,8.26-6.66,11.75-1.89,2.05-1.93,5.71-3.65,8-2.38,3.17-5.56,5.75-8.4,8.59,2.58,6.39-7.48,8.41-5.09,14.74-4.89,2.34-3.62,8.27-6.79,11.63-3.68,3.9-3.17,10.44-8.5,13.34s-2.7,10.77-8.52,13.31c1.16,4.77-2.19,7.26-5.11,9.91-5.36,4.86-6.42,9.75-2.6,16.59,2.84,5.1,6.27,10.06,7.81,16s10.33,7.31,9.8,15.32c-.17,2.58,5.51,3.65,7.81,1.55s6.42-5.14,6-6.87c-2-8.52,7.1-13.94,5.31-22.18-.63-2.92-.87-6.39,2.31-8.6,4.86-3.38.64-9.07,3.36-13.06,3-4.35,6.67-8.55,8.25-13.4,1.42-4.35.33-9.49.5-14.28,0-.61.85-1.35,1.49-1.75,5.31-3.3,1.06-10.14,3.69-12.74,4.79-4.73,4.36-9.76,4.42-15.22,0-1.55-.29-4.13.43-4.5,7.77-3.93.88-14.46,8.42-18.3C695.18,748.11,703.77,741.62,702,732.47Zm41-166.8c3.81-3.81,8.28-7.12,11.16-11.49C757,550,758,544.61,760,539.84c2.12-5,8.16-6.93,9.79-12.75,1.38-4.91,4.28-9.41,6.6-14,.61-1.22,2.35-3.2,2.26-3.27-8.15-6.88-.48-17.73-5.31-24.13-5.17-6.84-2.71-13.49-3.67-20.2-.34-2.35,1-5.74-.23-7-7.54-8.11-3.75-17.88-4.68-26.94-.15-1.47-.17-3.63-1.09-4.26-7.58-5.14-.21-14.39-5.13-19.44-6.21-6.38-2.08-13.6-3.33-20.29-.43-2.32.67-5.17-.3-7.07-.78-1.52-3.57-2.42-5.61-2.74-1.11-.17-3.58,1.38-3.61,2.22-.29,8-.19,16-.19,24,0,8.8-.91,17.71.25,26.35,1.13,8.36-8.65,13.56-5.08,22q0,36,0,72c0,5.48-1,11.14,4.68,15,.75.5.81,3.59,0,4.52-2.51,3-5.77,5.41-4.72,10.1C741.46,557.5,739,561.75,743,565.67ZM467.69,647.22c10.58-5,12.27-17.29,20.27-24.53a8.84,8.84,0,0,0,.16-12.61c-3.31-3.44-2.45-7-3.26-10.73-.77-3.49-3.47-6.53-4.53-10-1.33-4.35,2.2-9.89-2.06-13.41-4.65-3.83-1.84-8.82-3.25-13.05a3.05,3.05,0,0,0-1.67-1.62c-.38-.16-1.55.45-1.59.81-.7,5.79-4.32,9.65-8.46,13.23-4.95,4.29.26,12.49-6.49,16.64-1.51.92-.2,6-.82,9-.49,2.42-2.5,3.51-5.24,3.31s-4.32,1.45-4.26,4.21c.07,3.79-.48,7.35,2.7,10.9,3.39,3.8,4.08,9.43,8.43,13.24S461.72,644.24,467.69,647.22Zm75.23,123.27c-1-3.82,2.28-10.12-4.18-13.73.1-6.25-1.42-12-5.47-16.9,3.62-7.19-6.11-10.63-4.82-17.17-8.24-3.1-2.68-11.52-6.4-16.55-3.51-4.75-7.71-10.57-7.51-15.77.26-7-6-10.46-5.79-17.2.18-4.73-3.31-9.63-5.34-14.38-.88-2-1.69-1.12-3.45.17-4.12,3-4.15,8.17-6.83,11.58-4.65,5.91-3.49,10.39-.29,16.68,4,7.85,8.07,15.77,11.53,23.94,3.53,8.38,10.18,15,14.18,22.9,7,13.83,14.71,27.35,20.18,41.93.26.68,1.09,1.15,1.66,1.71a28.33,28.33,0,0,0,2.47-3.53C543.18,773.54,542.92,772.6,542.92,770.49ZM388.58,618.26c-.1-.76.08-1.74-.33-2.26-1.89-2.38-3.95-4.23-4.84-7.7s-4.85-5.9-7-9.14c-1.58-2.44-2.2-5.5-3.55-8.13-.81-1.58-3.41-1-3.12.79.92,5.55-6.3,7.76-5.11,12.32,1.68,6.52-4.48,9.59-5.11,14.92-.53,4.55,2.26,9.82-2,13.58-5.26,4.67-1.68,10.55-2.85,15.73a7.07,7.07,0,0,1-2.25,3.83c-3,2.37-1.89,5.69-2.67,8.6-.93,3.53-3.69,6.6-4.46,10.14-.62,2.84.27,6.14,1,9.1.39,1.49,4.21-.41,6.62-4.25,1.56-2.47,1.93-5.73,3.59-8.1,2.24-3.21,5.91-5.53,7.7-8.91,3.12-5.91,3.68-13.22,9.25-17.81,6.13-5,6.4-14.24,13.53-18.59C388.06,621.78,388.11,619.67,388.58,618.26Zm0-199.17c0-1.59.36-3.31-.12-4.74-.36-1.05-1.79-1.8-2.88-2.46-.16-.1-1.61,1.1-1.55,1.59.6,4.53-2.11,7.26-5.1,9.89,1.55,6.07-4.14,7.9-6.71,11.58-1.25,1.79-3.16,4.26-2.73,5.89,1.86,7.1-5.33,10.62-6.12,16.86-.39,3.12-5.78,5.33-7.88,8.6-2.4,3.75,1.56,9.6-3.49,12.86-1.95,1.26-2.32,2.41-.63,3.38,7.19,4.16,7.53,13.31,13.48,18.35.6.52,1.13,1.12,1.7,1.69.91-1,2.73-2.14,2.6-3-1.51-9.54,8.88-16.81,5-26.75a2.23,2.23,0,0,1,.72-2c6-3.83,3.47-9.86,4.07-15.1.68-6,7.51-10.07,5-17.2-.67-1.87-.23-5.54,1.07-6.47C390,428.52,388.3,423.64,388.58,419.09Zm-76.23,16.29c7.56.3,8.53.18,8.47-7s8.66-11.65,5.06-19.41c4.63-2.46,4.16-7.83,6.56-11.56a19.19,19.19,0,0,0,2.92-5.89c.25-1.12-1.11-2.61-1.85-3.88a4.81,4.81,0,0,0-1.6.72c-6.81,5.29-7.61,15.14-15.11,19.91-1.82,8-7.12,14.48-10.18,21.95C305.46,433.06,308,435.21,312.35,435.38ZM494.69,442a11.39,11.39,0,0,0,0,2.41c.32,1.45.37,3.54,1.32,4.17,2.81,1.82,3.86-1.42,4.93-2.79,5-6.54,6.5-15.13,11.91-21.58.36-.43-.55-2.8-1.38-3.19-2.35-1.11-11.08.26-11.17,1.6C499.86,429.54,491.43,434.09,494.69,442Zm57.87,442.32c.42-1.67-4.14-8.55-6.56-9.19-.8-.22-2.83,1.15-3,2-.65,4.52.83,9.06-3.51,13.23-2,1.9-.77,7.24-.81,11,0,.57,1,1.44,1.65,1.6.43.1,1.61-.84,1.61-1.3,0-6.36,5-9.34,8.54-13.38A17.19,17.19,0,0,0,552.56,884.33ZM391.75,397.56c-.54,0-1.25-.12-1.62.15-2.41,1.8-2.34,6.6.11,7.93a1.8,1.8,0,0,0,1.61-.11C394.26,403.73,394.17,399,391.75,397.56Zm-53.81-20.05c-.54.53-1.6,1.19-1.51,1.58a14.62,14.62,0,0,0,1.51,3.24c.53-.54,1.59-1.19,1.5-1.58A15,15,0,0,0,337.94,377.51Zm97.15-130.92c.65-.64,1.18-1.18,1.72-1.72a15.58,15.58,0,0,0-3.24-1.51c-.4-.08-1.05,1-1.58,1.51Zm5.85-10.67-1.72-3.11c-.54.54-1.6,1.19-1.51,1.59a14.83,14.83,0,0,0,1.51,3.24Zm16.88-37.56,3.1-1.72c-.53-.53-1.18-1.59-1.58-1.51a15.58,15.58,0,0,0-3.24,1.51Zm8.62-21.71,1.72,3.11c.54-.54,1.6-1.19,1.51-1.58a15.58,15.58,0,0,0-1.51-3.24Z"/><path d="M620.09,403.77c-1,.75-2.4,2.32-2.78,2.1-2.9-1.7-.92-3.08.66-4.2a2.13,2.13,0,0,1,2,0C620.37,402.06,620.09,403.06,620.09,403.77Z"/></svg>