<svg id="Layer_1" data-name="Layer 1" xmlns="http://www.w3.org/2000/svg" viewBox="0 0 1200 1200"><title>BB_Artboard 81</title><path d="M962.44,1153c-24.86,0-49.73-.08-74.6,0-8.75,0-17.78-1.42-24.91,4.86-2.08,1.84-12.47,2.07-14.57.34-9.45-7.76-21.44-5.11-32.54-5.15-58.9-.2-117.8-.09-176.7-.09-9.16,0-18.34.24-27.48-.07s-16.37,1.86-24.73,4.92-20.57-.07-30.89.82c-18.58,1.62-38.56-5-56,5.1-3.11,1.81-10.17.26-15.4.26-24.87,0-49.74-.18-74.6.1-8.58.09-18.6-2.61-24.79,4.47l-34.19,0c-7.58-7.79-19-3.53-28.74-4.53-3.68-.38-9.07,0-10.71-1.48-8.32-7.76-24.18-11.17-26.19-22.72-.38-2.19-5-3.94-7.36-6.08-3.1-2.84-5-1.16-8.5,0-18.11,6-23.68,3.62-23.07-9.17.13-2.68-.95-6.49,1.09-7.82,5.9-3.8,4.17-5.58.67-10.26-3.79-5.06-1.58-12.39-1.74-18.73s1.93-13.3-.66-19.18c-2.09-4.73-9-8.38-7.28-14.41,1.3-4.49-4.29-6.37-7.86-8.68a34.15,34.15,0,0,1-14.84-20.42c-2.17-8.67-12.12-15.55-10-24.8-12.15-4.45-.75-16.66-13.88-20.79,5-9.64-11.36-15.64-8.53-25.21,1.58-5.33-9.9-7.65-8-14.28,1.41-5,2.86-11-5.55-14.88-1.5-.69-1.45-3.17-1.89-4.86-1.84-6.94,4.09-14.83-3.93-20.88-7.55-5.7.28-13.67-4.53-17.89-8.36-7.34-7.62-15-7.08-22.86.51-7.66-6.72-13-11.08-18.86-4.66-6.22-13.88-10.88-21.7-15.75-5.36-3.34-6.37-7.13-7.09-11.87-.6-4-5.74-7.54-7.18-11.59s1.57-9.07-5-12.39c-7.57-3.8,1.43-11.16-5.68-14.8-8.22-4.2-4.6-9.94-5.18-15.1-.89-7.84,2.85-16.43-7.93-22.54V683.32c-10.72-8.24-7.84-18.42-7.73-28.07S85,637.89,82.13,627.12c-2.62-9.77-.55-20.16-.55-30.28s1.72-20.42-.56-30.28c-1.76-7.62,10-10.18,8.67-17.11-1.22-6.33-.26-12.85-.26-19.29V510.85c10.75-6.12,6.2-14.82,8.15-22.51,2-7.94-4.91-13.32-7.86-19.89-2.56-5.69,3.3-12.88-6.08-17.58-.94-.47-2-1.41-2-2.14-.16-6.43,1.34-13.09-.51-19.25-1.73-5.72-9.08-10.09-7.76-17.12,1.16-6.17,2.6-14.08-1.71-18.53-5-5.15-5.71-9.67-5.82-15-10.48-6.16-8.9-14.76-7.47-22.5,1.46-7.9-4.79-13.35-7.92-19.9-2.7-5.65,2.16-12.12-5.41-17.87-6.44-4.9-4.36-12.68-1.65-18.1,2-4.08,8.16-8.59,18.07-8.51,12,.09,12.27-.85,12.16-6.52-.08-4.48,1.34-10-1.77-13.16-3.88-4-6.54-7.34-6.08-12.15.85-9,1.26-18,1.85-27.07,9.23-4.11,3-7.24-1.82-9.67-12.09-6.09-7.13-14.68-7.09-22.49,0-.82,4.36-2.62,6.05-2.3,12.37,2.34,19.8-8,32.23-5.92,2.63.44,6.47-2.07,9.47-3.51,8.26-4,12.15-12,23.88-12.79,8.75-7.41,20.85-5.11,32.07-5.66a7.79,7.79,0,0,0,5.29-3.19c.83-1.52.91-4.21-.44-5.2C154.6,153,142,143.62,128.38,135c-6.74-4.25-8.16-8.78-7.61-14.46.36-3.66,0-7.36.09-11,.06-3.2,2.52-5.22,7-4.85,10.15.84,23.08-3.61,29.88,1.86,8.24,6.63,21.72-.65,27.43,7.42a147.38,147.38,0,0,1,37.51,9.68c10.49,4.26,22,7.32,32.14,11.95,8.75,4,17.63,1.08,26.31,2,.85.09,2.88-1.1,2.79-1.51a13.25,13.25,0,0,0-2-3.76c-10.5,2.74-13.83-8.7-24.12-6-3.44-3.67-11.67-5.09-11.18-10.49.53-5.84-1.08-10.42-8.11-14.33a140,140,0,0,1-19.42-13.62c-2.24-1.8-4.78-5.6-3.62-6.88,3.29-3.62,8.47-9,12.84-9,12.2.07,26.19-4.55,36.54,4.12,15.42-1.09,27.4,9.41,43.33,6.39,13.44-2.54,22.18,9.61,36,5.54,5.07,9.39,20.48,2,26.65,7.73,7.32,6.79,21.56-.94,27.34,7.57.65,1,4.85,1.57,6.88,1.14,14.86-3.19,25.55,7.79,40,5.63,7.57,6.43,18,5.57,28.16,5.54,27.48-.06,55,0,82.45-.08,1,0,3-1,2.91-1.38a5.8,5.8,0,0,0-1.75-3.85,34,34,0,0,0-8.43-5.63c-3-1.26-9.16-.91-10-2.36a13.24,13.24,0,0,1-1.1-10.59c2.22-6.13,16.46-11.56,24.83-9,8,2.44,15,7.4,24.3,5.15,10.7-2.58,14.42,6.83,24.34,5.85,9-.89,18.29-.27,27.45-.17,8.83.1,13.67,7.32,24.32,5.8,10.05-1.43,20.85-.3,31.32-.3h27.48c9.16,0,18.61-1,27.41.24,11.46,1.63,17.42-6.7,28.26-5.93,10.31.73,20.83,0,31.25,0,9.89-9,23.94-4.09,36.15-5.27,17.28-1.67,36.23,4.43,51.71-5.55,11.78,0,23.56.07,35.33,0,13.49-.1,20.37-3.8,21.32-14.39.61-6.79,6.72-10.08,12.53-12.72,3.55-1.61,9-1.59,13.17-4.19,17.21-10.65,20.81-10.31,37.83,1.06a97.64,97.64,0,0,0,14.92,8c1.32.57,6.24-.68,6.46-1.49,1.17-4.36,1.34-8.85,1.93-13.28,1.23-9.23,15.69-15.81,27.85-12.17,4.35,1.31,6.42,5.43,12.76,5.16,4.19-.18,6.65,1.78,6.57,5.19-.21,9.19.37,18.4-.23,27.58-.37,5.83.83,10.76,8,14.27-2.34,5.23,6.76,7.66,6.42,11.26-.26,2.76-6.85,5.16-10.36,7.87-1.62,1.26-3.64,2.87-3.73,4.37a114.11,114.11,0,0,0,0,19.3c.3,2.79,3.9,4.06,8.43,4,2.13,0,6.05,1.3,6.18,2.22a125.94,125.94,0,0,1,.86,16.36c.08,6.27-.54,12,7.22,17.44,4.24,3-2.55,10.71,6,14.68,1.62.75,2.89,3.32,2.35,4.65-3.52,8.71,10.87,13.68,8.49,22.65-2.12,8-.25,16.49-.51,24.77-.21,7.08,3.57,4.9-14.06,14.79-4.76,2.67-10.81,5.38-9.46,11,1.86,7.66-4.83,16.68,7.36,22.69q.26,8.19.52,16.4c11.81,5.93,8,14.77,7.55,22.54-.39,7.49,10.55,11.76,8.65,19.85-1.34,5.69-4.2,12.93,5.45,17.55a3.37,3.37,0,0,1,1.84,2.18c1.08,9.57-4,19.91,7.74,28.18,1.31.93-.06,3.57.22,5.39,2.24,14.9-5.82,30.49,7.37,44.82,3,3.24.44,9,.44,13.59,0,34-.36,68.06.26,102.08.15,8.58-4.66,17.86,6.66,25.78,3.32,2.31.91,8.76.92,13.32q0,92.41,0,184.84c5.5,8.91-8.58,14.37-8,22.55.55,7.33.1,14.7.09,22.06-13.71,6.74-2.64,18-8.45,25-12.22,14.71-5.43,30-7,44.89-.61,5.94-3.75,13,6.22,17.45a2.74,2.74,0,0,1,1.31,2.32q.11,31.73.06,63.45c-9.66,4.8-4.81,13.77-10.39,18.9-4.16,3.83-3.45,8.49-7.76,11.67-5.41,4-10.67,8.17-16.7,11.66-16.19,9.37-19.76,12.83-20.11,21.31-.07,1.83.27,3.7,0,5.51-3,16.68,7.61,34.42-7.81,50.14,0,10.11-1.1,20.3.32,30.32,1.32,9.33-4.42,15.24-13.24,21.18-5.21,3.52-10.32,4.56-17.13,4.52C1020,1152.88,991.23,1153,962.44,1153Zm77.16-278.3c0-5.37,1.82-12-.43-17.82-3.22-8.39,7.44-12.92,8.27-19.85.11-.92,0-1.84,0-2.76.38-4.86-1.39-7.23-8.25-6.58-11,1-18.79-2.92-22.18-8.44-3.27-5.33.77-12.74-8.85-16.72,0-6.43-1.57-13.12.41-19.24,2.41-7.47-8-10.91-8.21-17.08-.22-7.35-1-14.78.19-22,1.34-8.45-6.11-15.14-7.55-22.6-3.92-20.24,4.57-41.07-7.72-61.28-4.25-7-.67-16.35-.67-24.62,0-7.35-2-15.06.49-22,3.36-9.24-9.85-14-8.76-22.64,1.6-12.77.41-25.71.41-38.58v-19.3c-15.11-11.79-6.42-26-7.46-39.09-1.53-19.24-.39-38.59-.39-57.89,0-2.76,1.66-6.81-.29-8-7.73-4.9-8.15-10.75-7.67-17.25s.11-12.87.11-19.3V317.16c0-7.35.41-14.72-.12-22.05-.55-7.74,4.27-16.48-7.4-22.44,11.3-4.18,1.4-7.87.09-12.13-1.24-4-2.87-9.2,3.64-12.53,5.14-2.64,3.32-6.46,3.83-9.94.82-5.61-5.81-7.85-10.27-10.73-4.3-2.78-9-1.49-13.38,1.24-2.56,1.59-7,1.58-9.88,3-11,5.52-23.26,9.24-35.72,12.69-10.58,10.79-30.8,11-43.45,19.49-11.91-1.29-20.68,5.13-31.56,6.37-7.32,8.94-25.42,2.09-32.74,11-11.17.45-21.88-.69-32.6,5-6.87,3.66-20.55-2.73-28.29,4.85-11.54.39-23.08,1.05-34.63,1.12q-41.21.24-82.41,0c-8.61-.07-18.56,2.44-24.73-4.57l-30.88-.87c-8.76-7.35-20.88-5.95-32-5.33-10.45.58-12.65-2.74-14.22-9-.73-2.89-8.89-5.13-6.21-8.93s7.8-9.08,12.37-9.35c9.27-.53,17.35-1.45,24.15-6,14.83,3.61,26.31-5.49,39.91-5.29,8.57.13,11.64-8.06,20.25-5.66,10.67,3,14.17-8.16,24.26-5.61,5-5,12.09-5.51,20.28-5.76,8.36-.25,14-7.34,24.33-5.55,2.41.42,5.87-3.6,9.15-3.88,11.12-1,18.67-9.77,31.34-6.88,5.63-3.49,12.27-5.58,19.42-7,.56-.11,1.23-1.4.94-1.84-.52-.79-2-2-2.63-1.89-11,1.86-18.79-4-28.16-5.51-11.93-2-25.74,2.31-36.09-5.69-1-.8-6.25-.49-7.15.44-5.32,5.48-13.16,5.9-20.75,4.81-16.08-2.33-27.88,7.6-43.23,6.76-5,6-13.54,3.74-20.9,4.59-3.71.42-5.82,2.55-1.4,5.2,8.49,5.09,2.92,12,4,18.06.22,1.25-2.47,3.9-4,4-9.12.37-18.29.2-27.45.18-3.9,0-10.51.84-11.27-.27-6-8.7-19.25-2.92-27.38-7.51-9.84-5.55-21.5-5.1-31.5-.3-4.86,2.34-9.26,2.6-14.27,2.53-7.8-.1-14.48.19-21,4.74-4.76,3.33-15.07-1.49-21,4.13-4.7,4.49-12.55,2.7-18.15,1.89-9.46-1.36-12.39,5.73-20.37,6-7.43.25-16.15-2.75-22.18,2-7.64,6-17.09,2.26-25.59,3.35-1.22.15-3.17,0-3.54.49-5.61,7.09-17.85,2.55-23.68,6.17-6.9,4.29-14.65,2.73-20.94,4.79-8.05,2.63-15,5.39-24.48,5.49-5.23.06-8.79,5.2-16.31,5.65-4.93.3-9.21,4.74-16.2,5.68-4.63.62-9.75,6-11.28,10-2.27,5.82-12.19,9.67-8.35,16.95,4.1,7.79-9.14,12.13-8.06,19.78,1.16,8.19.26,16.52.26,24.79v24.82c0,9.19-2.28,18.76.62,27.47,3.13,9.42-9.06,14.33-8.72,22.64.79,19.28.25,38.6.25,57.9,0,20.22-.75,40.46.22,60.65.9,18.62-5.93,37.85,7.63,55.63,1.63,12.21-4.95,25.3,7.86,36.32,1,11.36-4.16,23.45,7.85,33.56v22c0,6.44.93,13-.24,19.28-1.42,7.68,8.94,11.91,8.86,19.8-.11,10.2-8,22.1,7.08,30.8v22.06c0,6.43-1.88,13.24.51,19.2,2.64,6.59,9.56,12.1,7.6,19.91-1.34,5.35,1.35,11.3-.6,16.44-3.5,9.19,6.31,15,10,22.1,4,7.66,19.27,7.3,27.06,13.13,9.58-1.45,16.58,4.14,24.34,4.88,9.23.89,16.1,4.29,24.21,5.86,7.29,1.4,15.8,1.12,23.37.09,10.16-1.38,16.06,4.49,24.32,5.52,7.61.95,15.65.2,23.49.2,6.55,0,13.41.89,19.55-.21,9.42-1.67,12.44,5.86,20.37,5.76,10.46-.13,20.93,0,31.39,0,9.16,0,18.38.49,27.45-.13,10.7-.73,16.87,6.13,28.17,6,82.4-.71,164.81-.38,247.22-.39,5.18,0,12.59,1.36,15.16-.51,12.18-8.81,26.93-4.2,40.46-4.85,14.32-.68,28.76-.15,43.15-.15,19.73-10,42.27-3.91,63.46-5.52,3.75-.28,9.42.4,10.93-1,6.91-6.62,16.44-4.11,25.06-4.4,9.14-.31,18.31-.07,27.47-.07,14.1-9.59,31.77-4,47.75-5.57C1035.89,877,1036.83,876.09,1039.6,874.7ZM758.85,1059.19c20.49-2.56,45.81,5.46,68.16-5.52,11.78,0,23.56-.16,35.33.08,5.48.11,9.22-1.39,13.8-3.45,9.1-4.09,22.25-4.25,22.62-15.32.09-2.72,5.84-6.18,10.13-7.81,8.46-3.21,20.3-3.79,26-8.37,7.71-6.16,18.42-.71,24.54-5.54,8.67-6.86,19.55-2.75,29.32-3.51,5.54-.43,9.71-1.14,13.4-4.16,4.26-3.48,12.93-6.5,13-9.81.18-6.92,7.68-9.06,11.76-13.37,3.35-3.52,5.29-7.69,8.54-11.27,4-4.37,10.1-7,12.88-12.87,2.71-5.68,8.5-10.61,6.93-17.24,10.77-5,7.49-12.75,7.83-19.78.13-2.76,0-5.52,0-8.28-.07-7.35-1-8.23-10.14-8.26q-35.34-.08-70.67,0c-16.78,10.63-37.13,3.46-55.65,5.44-5.11.54-12.32-1.47-15.37.34-16.11,9.58-34.72,4.42-52,5-26.1.91-52.32.24-78.49.24-3.93,0-9.62-1.19-11.5.19-14.33,10.52-32.13,3.54-48.09,5.19-7.69.8-15.68.14-23.53.14s-15.72.21-23.55-.06c-7.38-.27-14.52,1-21.7-3.59-4.36-2.82-10.43,5.4-19,3.91-7.4-1.28-15.61-.26-23.46-.26-20.94,0-41.87,0-62.81,0-5.08,0-12.55.88-14.78-1-7.33-6.29-16.5-4.2-25.15-4.37-13.08-.26-26.17.06-39.26-.1-13.73-.17-28.21,2-39.93-5.49-10.47,0-21,.53-31.38-.14-11.15-.72-23,3-33.46-3.18-8.9-5.24-20-1.28-30.07-2.07-7.75-.62-15.95-1-23.47.08-12.47,1.85-19.85-8.2-32.2-5.87-1.79.34-5-.88-6.4-2.07-3.76-3.29-8.53-3.36-13.84-3.37-8.16,0-10.76.87-10.66,5.17.16,7-3.3,14.85,7.78,19.79,0,5.51,1.6,11.34-.38,16.48-2.91,7.54,11.74,9.41,8.57,17.16-4.5,11,5.22,20,10.88,29.77s17.84,16.3,23.19,26.37c3.78,7.1,16.14,8.89,26.06,5.26,4.39-1.61,7.47-4.23,13.35-4.17,23.55.27,47.1.05,70.66.18,3.62,0,7.83.3,10.76,1.59,22.95,10.09,51.27,14.33,68.18,31,3.43,3.4,4.3,5.52.39,5.86-2.58.23-6.83.77-7.58-.06-6-6.68-16.07-4.15-24.15-6-7.91-1.84-14.62-6.21-21.89-9.43a9.12,9.12,0,0,0-3.35-.94q-33.36-.08-66.73,0a6.17,6.17,0,0,0-3.3,1c-3.34,2.52-9.57,5.6-9,7.66.85,3,6.11,6.6,10.53,7.56,6,1.29,12.95.32,19.49.32,10.47,0,20.94-.1,31.4,0,10,.13,21-2,28.16,5.49,11.31.88,23.65-2.58,33.84,2.44,12.06,6,25,2.38,37.51,2.93,14.33.64,28.77.11,43.17.18,3.79,0,9.48-.6,11,.83,8.1,7.38,19.08,4.43,28.88,4.55,27.47.32,55,.16,82.44.06,5,0,12.47.73,14.67-1.21,7.36-6.46,16.69-3.91,25.26-4.16C729.49,1058.91,742.59,1059.19,758.85,1059.19Zm-181.48,77.25c10.45,0,21-.72,31.32.19,12.11,1.06,21.56-3.21,32.13-5.52,5.92-1.3,12.73-.47,19-1.18,1.26-.14,2.64-2.92,2.65-4.48s-1.4-3.24-2.63-4.67c-.48-.56-2.17-.85-3.31-.85-13.06-.06-26.12,0-39.19,0-14.37,0-29.07-1.34-43,.37s-23.12-6.72-36-6c-7.78.45-15.88-.73-23.45.28-10.12,1.35-16.08-4.26-24.29-5.53a62.26,62.26,0,0,0-19.46,0c-9.37,1.63-12.87-6.82-20.24-5.49-10.56,1.91-15.87-6.43-24.2-5.47-11.51,1.33-18-5.26-27.64-6.91-5.23-.89-9.79-5.3-16.86-4.4a13.64,13.64,0,0,1-12.71-4.84c-5.73-6.72-19.32-4.76-24.63-11.6-13,0-26.08-.21-39.11.06-1.47,0-4,2.55-4.05,4-.34,5.4.82,10.77-6.85,14.75-1.5.77-.34,4.89.8,7.16s6.09,4.8,5.46,6.48c-2.72,7.26,5.82,11.36,8.47,17a62.88,62.88,0,0,0,11.05,16c2.54,2.71,7.43,5.14,11.91,6,9.8,1.83,21.63-2.94,30,2.12,10.7,6.47,22.28,2.46,33.32,3.46,7.71.7,15.65.14,23.49.14,6.53,0,13.39-.9,19.51.21,9.44,1.7,12.13-6.16,20.35-5.82,9.11.38,18.28.09,27.42.09s18.64-1.1,27.34.28c10.62,1.69,15.34-5.82,24.27-5.8Q557.78,1136.47,577.37,1136.44Zm438.68-490c0,7.34.31,14.69-.09,22s-.3,14.27,7.94,19.74c0,9.18,1.19,18.45-.32,27.51-1.71,10.23,12.7,17.62,8.33,28.06-1.06,2.53-.63,5.53,0,8.2.31,1.25,2.82,2.23,4.33,3.34.93-.65,2.69-1.33,2.64-1.94-.41-5,5.2-7.76,7.88-11.55s.64-9,.64-13.55c0-11.93-.14-23.86.12-35.79.06-2.51.41-5.94,2.66-7.35,9.81-6.13,4-13.78,4.34-20.6.14-2.61-7.53-4.28-7.26-8.78.5-8.24-1-16.61.44-24.75,1.61-9.36-4.64-17-7.57-25.37-2.71-7.79-1.81-16.54-.25-24.65,1.8-9.44-5.29-16.92-7.69-25.34-2.27-7.94-1.92-16.61-.12-24.67,2.13-9.56-6.71-16.87-7.79-25.32-1.64-12.74-.43-25.67-.43-38.52v-22c-14.31-10.84-5.55-24.14-7.78-36.27-.5-2.71,1.59-6.5-.34-8.09-14.61-12.06-5.07-26.17-7.36-39.19-1.27-7.24,3.19-16-1.17-21.65-4.5-5.87-7.39-10.9-7-17.35s.09-12.85.09-19.27c0-8.26.06-16.52-.12-24.78,0-.66-2-2-2.53-1.84-1.87.47-4.92,1.37-5,2.19-.42,6.41-.23,12.84-.23,19.27V402.72c0,6.42,1.4,13-.35,19.22-2.28,8,6.08,13.22,7.79,19.84,1.83,7.11.41,14.64.41,22v24.78c0,7.34,2.19,15.11-.53,21.92-3.74,9.37,9.6,14.29,8.57,22.61-.9,7.28-.19,14.67-.19,22v22c0,8.26,1.59,16.72-.44,24.72s10,12,8.62,19.82C1014.92,629.79,1016.05,638.15,1016.05,646.41ZM652.16,275.67c11.88-3.89,31.62,6.26,46.6-5.52,11.72,0,23.43-.09,35.15,0,6.5.07,11.73-.57,17.43-3.86,6.24-3.6,15.58-7.27,22.82-6.65,10.69.92,14.77-7.23,24.18-6.08,7,.87,12.48-1,16.62-4.92,9.92,1.82,13.87-7.83,23.74-6.11,4.47-4.86,13.16-4.5,18.95-7.52,6.93-3.61,11.09-9.93,21.74-9.9,1,0,2.77-4.54,2.85-7,0-1-3.32-3-5.28-3-11.15-.54-23.19,1.73-31.88-5.66H806c-11.71,0-23.86-1.34-35,.42-9,1.43-16.7,9.35-25.19,9.53-17.43.38-28.88,9.1-44,12-8.19,1.58-13.73,7.37-24.13,5.9-7-1-11.08,7.37-20.1,5.25-8.79-2.06-11.8,5.54-20.13,5.91-6.6.3-14,3.94-19,6.71-7.22,4-14.23,2.87-21.29,4.2-4.39.83-7.88,4.38-11.31,7-.54.42,1.52,3.6,2.2,3.57,11.56-.52,18.93,8.64,32,6C628.56,274.29,638.23,275.67,652.16,275.67Zm395.3,801.92c0-8.24.07-16.48,0-24.72-.05-3.87-3.51-4-11.11-5-9.44-1.26-12.85,4.8-20.16,6.13-9.32,1.69-17.37,5.36-27.9,6.08-8.72.59-16.17,7.54-25.13,9.93-15.76,4.21-29.47,11.89-47.2,13.1-3.69.25-7.56,4.55-13.28,3.65-7.64-1.2-12,2.13-16.19,5.65a6.61,6.61,0,0,0-2,3.86c-.08.42,1.8,1.46,2.82,1.48,7.81.12,15.87-.77,23.39.28,9.22,1.29,11.87-6.08,20.27-5.88,19.52.47,39.1-.19,58.62.28,11,.27,19.5,7.67,31.55,6.33.6-.06,2.33,2.84,2.75,4.46,1.46,5.76-1.23,10.25-7.54,14.37-3.25,2.12,1.53,7.57,6.32,7.78a65,65,0,0,0,11.68-.12c2-.27,4.84-2,5.1-3.27,1-5.16.26-9.86,5.57-15.07,4.4-4.32,2-12.08,2.46-18.33C1047.66,1084.92,1047.46,1081.26,1047.46,1077.59Zm-345.12,25.74v-.18c6.5,0,14,1.42,19.22-.39,5.49-1.91,9.29-5.61,16.76-5.07,7.76.57,15.81-.52,23.48.29,9.84,1,13.64-6.81,24.29-6.27,10.17.51,19.78-6.35,31.32-6.06,3.29-4.81,11.07-3.5,16.12-5.88.64-.31,1.18-1.42.88-1.87-.53-.78-1.72-1.89-2.66-1.9-13-.18-26.08-.2-39.12-.25-13.81,10.8-31.8,4.74-47.75,5.23-31.31,1-62.72.28-94.1.29-5.22,0-12.57-1.54-15.3.3-15.93,10.72-34.84,3.59-52.09,4.78-7.61.52-14.06-6.5-24.2-5.31-8.9,1-18.24.22-27.39.22H504.34a31.82,31.82,0,0,0-3.91,0c-6,.75-9.46-1.85-13.21-4.42-.44-.31-5,1.31-4.89,1.82.4,2.51,1.69,7.09,2.71,7.09,10.39,0,18.7,4.24,27.92,6,10.93,2.12,23.33.5,35.1.5,9.75,9,23.71,4.8,36,5.39,11.71.57,23.52.13,35.29.13,15.68,0,31.41.46,47-.2,7.79-.33,11,4,16.55,5.38C688.66,1104.49,695.8,1103.33,702.34,1103.33ZM168,271.62c0-3.3,0-5.14,0-7-.15-5.6-.53-6-8.16-2.36-6.12,2.91-14.15,2.64-19.35,7.49-4.56,4.25-4.93,9.51-10.16,13.81-5,4.1,1.17,12.65-8.87,16.5-1.06,6,1.6,13-8.28,16.86,2,6.77-4.77,14.46,5,20.58,2.24,1.4,3.42,5.21,2.44,7.3-4.25,9,7.94,14.54,8.9,22.34.09.7,1.6,1.58,2.71,1.85a3.83,3.83,0,0,0,2.66-1.18c7.65-9.71,9.56-20.95,17-30.86,3.26-4.36-1-12.16,3-15.4,6.32-5.07,4.86-10,5.19-15.18.34-5.5-.16-11,.18-16.51.16-2.55.23-6.14,2.45-7.38C168.93,279,168.16,274.67,168,271.62Zm176.41-73.2c-11.72,0-23.69,1-35.1-.29s-17.39,6.85-27.92,6.44c-1,0-4.28,5.81-3.12,6.68,5.35,4,5.52,10.23,10.45,13.31,3.77,2.35,12.11,1.31,18.42,1.38,5,.06,12.35.89,14.71-1,6.22-5,13.7-5.18,21.06-4.24,9.05,1.16,13.16-4.91,20.28-5.55,7.68-.7,15.89.76,23.33-.41,8.08-1.27,15.54-4.47,23.14-7,.12,0-1.72-3.6-2-3.55-7.75,1.18-11-4.05-16.48-5.41-5.79-1.44-12.86-.32-19.38-.32Zm541.11,921.47c-13.06,0-26.13-.06-39.19,0-10.37,0-20.74.27-31.1.41-10.1,8.63-24,4.2-36.22,5-11.55.74-23.22.53-34.84.89a3.52,3.52,0,0,0-2.59,1.89c-.13.53,1.4,1.79,2.29,1.84,7.64.45,15.44.18,22.94,1.12,13.4,1.68,28.77-4.73,40.35,4.71a4.37,4.37,0,0,0,2.63-.65c3.47-3,6.94-5.26,11.12-.59,2.74,3,9.14,2.77,10.27,1.73,5.55-5,12.5-5.55,20.64-5.4,15.66.29,31.35.08,47,.08s31.35-.05,47,0c4.75,0,6.85-1.66,7.38-4.72.76-4.28-2-6.31-8.94-6.33C924.68,1119.86,905.08,1119.89,885.48,1119.89ZM105.13,242.26V256c0,1.82-.61,3.81.22,5.42.56,1.08,3.08,1.81,4.94,2.3.51.13,2.11-1.06,2.65-1.84,11.27-16.22,18.31-20.72,47.81-30.29,1.07-.35,2.69,0,3.66-.38,2.9-1.25,5.71-9.41,3.26-12.53-1.41-1.8-5.56-3.32-8.66-3.52-7.74-.49-15.87-1.06-23.31.08-8.13,1.26-14.21,6.94-24.19,5.46-3.84-.57-6.62,1.74-6.45,5.14C105.34,231.29,105.13,236.78,105.13,242.26ZM108,629.56c-.92.65-2.64,1.3-2.65,2-.17,19.23-.59,38.48.16,57.7.15,3.87,6.19,7.49,7.17,11.51,1.31,5.34.33,11,.33,16.46,0,8.24.38,16.5-.11,24.74s13,13.53,8.49,22.38c-.19.37,2.34,1.9,2.53,1.81,1.73-.85,4.56-1.92,4.58-3,.15-7.26-.29-14.52-.55-21.77-11.23-5.09-6.46-13.06-7-19.94-.59-8.23-1.39-16.61.19-24.71,1.84-9.44-4.2-17-8-25.29-1.46-3.24-1-7.12,3.86-9.81,1.26-.7,2.28-3.38,1.75-3.67-10.24-5.7-4.4-13.55-5.87-20.38a55.48,55.48,0,0,0-2.32-7.58C110.53,629.72,108.9,629.71,108,629.56Zm829-453.21c-13.61-5.45-25.19,7.51-40.91,5.72-3.58-.41-6.64,2.45-5.53,5.65.55,1.62,1.75,4.29,3.06,4.42,11,1.06,18.72,7.5,31.62,6.9,12.1-.56,12.32,1.73,16.72-.93,2.88-1.74,5.89-5.05,8.64-4.94,13.13.49,10.05-5.84,10.63-11,.38-3.29-1.77-5.35-5.81-5.74C950.24,176,945,176.35,936.93,176.35ZM1126,769.5c0-5.51.1-11-.12-16.54,0-.67-2.1-2-2.58-1.83-1.86.51-4.86,1.43-4.93,2.3-.54,7.29-.52,14.61-.68,21.92-13.1,4.13-3.75,14.85-13.2,21.26-7.17,4.87-1.84,12.84,7.69,18.33.77.45,2.07,1.07,2.7.88a4.92,4.92,0,0,0,2.76-1.88c3.41-6.59-3.1-13.79,5.13-20.7C1130.41,786.8,1124.84,777.49,1126,769.5ZM183.7,140.5c8.24,5.8,16.41,11.71,24.86,17.4,4.23,2.85,23.88,3,28.64-.28,1.69-1.16,1.21-6.39-.36-7-12.78-4.68-25.87-9.05-39.3-12.73C193.29,136.76,187.22,136.79,183.7,140.5ZM515,187.23c5.51,0,12.86,1.39,18-.38,5.31-1.83,9.08-5.81,16.2-5.38a4.52,4.52,0,0,0,2.56-1.75c-1.14-1.22-2.63-3.21-4-3.23-18-.22-35.94-.17-53.92-.06-.91,0-2,1.1-2.64,1.86a1.55,1.55,0,0,0,.29,1.85C497.28,185.23,504.08,188.87,515,187.23ZM226.34,231.52c6.56,0,10.44.33,14.15-.09,3.88-.43,6-2,6.19-5.33.24-5.59-.37-10.58-7.92-13.78-1.72-.73-4.71-2.14-5.19-1.82-6.37,4.26-12.85,8.54-18.16,13.42-1.27,1.16.67,5.48,2.94,6.71C220.83,232,225.4,231.45,226.34,231.52Zm542.47-88.28c5.15,0,10.31.09,15.45-.09,1,0,2.78-1.35,2.61-1.74-.56-1.31-1.79-3.5-2.85-3.53-10.3-.27-20.61-.21-30.91-.08-.94,0-2.77,1.36-2.61,1.74.57,1.32,1.69,3.44,2.87,3.53C758.47,143.46,763.66,143.24,768.81,143.24ZM368.2,165.31c5.13,0,10.3.22,15.38-.17,1.15-.09,2.25-2.23,2.77-3.54.16-.4-1.65-1.71-2.6-1.73-7.7-.14-15.41-.22-23.09.09-1.07,0-2.24,2.23-2.76,3.54-.16.4,1.59,1.62,2.61,1.73C363,165.48,365.63,165.31,368.2,165.31ZM826,170.83c8.21,0,14.63.07,21-.08,1,0,2.76-1.33,2.6-1.73a8.48,8.48,0,0,0-2.86-3.63c-.62-.45-2.45-.08-3.74-.08-5.13,0-10.29-.18-15.39.08-2.26.12-4.43,1.15-6.63,1.76ZM1094.57,968c0,1.8-.62,3.76.22,5.33.55,1,3.12,1.7,5,2.11.56.13,2.49-1.12,2.53-1.79a47,47,0,0,0-.11-10.74c-.13-.85-3.11-1.66-5-2.07a3.64,3.64,0,0,0-2.53,1.79A25.34,25.34,0,0,0,1094.57,968Zm-38.64,40.81c-1.92-2-3.24-3.42-4.55-4.81l-2.66,1.88a47.15,47.15,0,0,0-5.26,3.78c-1.12,1.06-1.56,2.46-2.3,3.71,3.43.54,7.53,2.13,10.1,1.32S1054.6,1010.66,1055.93,1008.82ZM689.73,146c-6.59-1.37-9.9-2.52-13.25-2.59-2,0-4,1.67-6,2.59,2,.92,4,2.62,6,2.58C679.85,148.51,683.17,147.36,689.73,146Z"/></svg>