<svg id="Layer_1" data-name="Layer 1" xmlns="http://www.w3.org/2000/svg" viewBox="0 0 1200 1200"><title>BB_Artboard 61</title><path d="M704.36,534.11c6.26-1.1,8.64-6.18,13.38-8.81,4-2.22,2.45-6.63,4.78-8.62,3.83-3.26,4.41-7.26,6.78-10.72,2.47-3.62,7.23-6.22,11-9.25s6.69-5.61,7.45-10.55c.52-3.37,8.94-5.69,10.19-9.3,2.42-7,8.36-11.24,14-16a27.93,27.93,0,0,0,7.79-10.31c3.08-6.76,13.76-11.18,25.55-16.95,5.32-2.59,10.32-1.85,15.1-1.42,3.74.33,6.29,7.82,11.46,1a3.19,3.19,0,0,1,2.14-.8c2.37,1.72,4.64,3.55,6.84,5.42,5.67,4.82,11.27,9.71,20,10.93.47,8.44.38,16.94,1.61,25.3.9,6.09-2.56,10.06-7.91,12.81-6.84,3.51-3.38,11.66-11.17,14.45-7.55,2.7-5,11-11.36,14.17-6.77,3.41-6.39,10.31-11.38,14.24-5.28,4.16-8.08,9.15-11.54,14.22-7.73,11.33-12.54,24.39-26.67,32.45-5.05,2.89-3.08,9.39-9,12.51-4.23,2.24-6.41,5.65-7.7,10.32-1.2,4.29-10.47,7.16-11.53,11.42-1.6,6.43-11.27,10.62-7.2,18.46,1,2,.64,6.23-1,7.1-5.93,3.15-4.49,9-8.62,12.84-5.88,5.52-16.72,8.37-16,17.78-6,4.86-11.5,10.31-18.21,14.44-9.43,5.8-7.27,13.65-6.65,20.92.22,2.63,5,5.33,8.4,7.21.78.44,4.31-2.32,6.56-3.63,6.91-4,9.6-10.37,13.86-15.95,3.81-5,10.59-8.43,15.3-13.05,1.62-1.59-.4-4.58,2.34-6.95,10-8.63,22.9-15.33,29.67-26.14,6.39-10.22,17.31-17,27.25-24.24,9.52-6.92,12-17.37,22.12-23.85,9.12-5.83,19.17-12.16,24.4-20.15,6.06-9.27,14.5-16.17,23.41-23,4.18-3.2,4-7.54,6.8-10.66,3.61-3.94,7.73-8.12,15.58-6.85s14.2-.67,19.29-6c5.73-6,16.06-6.41,22.55-12.53,5.83-5.49,16.21-2.12,24.2-1.63,6.39.39,12.44,4.49,18.63,6.94-1.39,9.91,7.73,7.05,14.35,8.45,4.43.95,10.62,4.74,11.16,7.81,1.46,8.39.33,17.07.24,25.63-8.17,3.61-3.55,11.31-7.22,15.54-4.69,5.39-9.76,11.36-10.84,16.94-1.17,6.05-4.68,10.62-7.24,15.81-3,6-9.34,11.19-6.37,18.5-7.13,5-8.56,12.62-12.63,19-2.67,4.2-8.61,7.44-6.59,13.29,1.94,5.61-8.49,7.54-6.35,13.32-4.61,3.45-4.75,9.45-8.65,12.39-5,3.79-3.1,9.4-8.28,13.12-2.91,2.09-.52,8.46-3,11.6-2.84,3.58-6.65,6.3-5.72,11.1a6.35,6.35,0,0,1-.8,4.83c-3.68,4.84-14.05,6.81-11.59,14s-9.43,9.4-6.69,16c-7,3.11-4.87,10.81-11,14.38-1.84,10.55-7,20-14.58,28.65,1.3,8.76-15.21,9.69-12.79,18.94-9,7.83-10.55,19.11-19.17,27.12,1.13,5.23-4.22,7.39-7.75,10.28-3,2.48-6.65,5-4.9,8.61,3.4,7-7.4,9.27-7.27,16,.1,4.92-13.24,6.94-11.66,13.71,1.64,7-5.56,10.33-7.29,15.88-1.65,5.29-7.71,9.67-5.88,16-8.74,10.71-14.69,22.58-21.68,34-2.19,3.57-3.68,7.75-7,10.48-4.53,3.73-1.67,8.24-3.57,11.79-3.14,5.84-6.9,11.95-12.36,16.35-4.76,3.84-4.71,9.49-9,12.5-7.65,5.44-.32,15.19-10.88,19.92-8.23,3.68-8.7,12.32-12.31,18.88-2,3.64-6.6,5.71-6.83,10.76-.21,4.85-9.18,1.72-12.42,5.55-2.36,2.79-5.9,4.93-8.91,7.37-4.1-3.78-11.14-3.51-15.2-6.55-4.27-3.21-6.37-2.85-9.29.49-1.39,1.58-4.15,1.26-4.29-.92-.48-7.45-11-12.52-7.09-21,1.61-3.52-1-6.25-4.29-8.86-3.54-2.8-9.72-4.92-8.15-10,.91-3,5.9-5.53,5.83-8.22-.25-10.09,11.3-18.25,6.73-28.82,8.49-5.77,7.82-14,5.93-21-2-7.29,9.82-8.93,7.13-16.07-2.16-5.74-.69-11.77,6.12-15.85-3.79-9.68,10.65-16.43,6.51-26.27-.59-1.38-.21-4.26.81-4.68,9.64-3.87,1.89-13.09,8.86-17.85,6.54-4.46-.94-14,9.12-17.53,2.43-6.24-3-13.18,4.21-19.36,4.48-3.81,5.54-10.11,8.94-14.92,6.41-9.11,6.9-20.27,14.25-28.71,7-8,9-18,17.46-25.24,1-.87.2-3.31,0-5-.4-2.66-2.91-2.45-6.74.59-1.53,1.2-3,2.43-4.53,3.64-6.78,5.47-13.61,10.9-20.31,16.43-4.42,3.64-11.43,7-12.3,11.22-1.26,6.06-6.74,8.26-10.32,12.16s-11,5.84-9.62,12.3c.12.57-1,1.39-1.69,2q-11.26,9.15-22.58,18.25c-1,9.59-10.69,14.39-18.37,19.46s-7.51,13.57-15.37,18.38c-6.4,3.93-11.45,8.92-14.23,15.8-1.76,4.37-8.08,7.91-13.16,11-5.51,3.29-2.43,10-8.9,12.61-7.22,2.9-6.33,10.15-11.35,14.22-5.34,4.35-3.4,9.87-2.57,14.47,1.22,6.71-4.9,10.59-6.67,16-2.08,6.33-6.41,9.77-14.77,10.94-3.5.49-6.32,4.12-9.46,6.31-4.75,3.34-4.75,3.34-11.46-1.31l-21.91,18.52c2,9.07-14.47,10-12.79,18.94-6.07,5.49-10.43,12.56-20.75,14.06-3.33.49-4.49,2.31-5,5.3-1.45,8.35-8.19,19.19-13.54,23.81-7.67,6.63-16.19,12.3-20.87,21.38-3.74,7.27-15.65,10.49-18,19.85-.89,3.51-7.35,6-10.76,9.24-5.18,5-14.48,7.74-13.63,16.06-9.52,11.78-26.3,15.07-40.14,21.54-7.89,3.68-18.31,1.79-27.54.51-1.05-.14-1.48-2.78-2.34-4.21q-7.86-12.84-15.78-25.67c-4.48-7.26-5.38-7.68.36-15.62,3.07-4.25,1.31-8.21,2.84-12,1.19-3,5.64-5.42,5.86-8.25.42-5.28,2.27-9.14,6.13-13.65,3-3.49,2.53-10.71.09-15-3.1-5.39-11.46-2.8-17.36-2.54-8.17.36-13.59-2.14-19.19-6.62-6.41-5.13-16.24-6.53-22.22-12.79-5.15-5.41-11.87-9.84-17.89-14.71-3.77-3-8.57-5.62-11-9.24s-2.63-7.65-6.94-10.63c-3.51-2.42-7.64-4.63-10.83-2.22-6.14,4.61-14.45,5.59-20.77,9.57-5.62-2.93-9,9.46-14.59,1.74-3.22-4.44-10.23,2-12.41-4.25-1.32-3.78-7.16-2.17-11.15-2.72-7.93-1.12-13.82-6-14.11-11.13-.09-1.71-.05-3.43,0-5.15q.38-14.06.76-28.12c8.05-5.62,8.63-14.34,13.63-21.22,1-1.44,4.43-2.69,4.21-3.65-1.67-7.23,5-12.35,6.47-18.49,1.2-5.13,1.57-9.81,6.89-13.26-2.47-5.89,8-7.85,6.33-13.33-1.78-5.81,6.39-9.36,5.88-13.3-1.1-8.43,7.92-13.23,8.55-20.59,9-3.39,1.27-11.7,6.9-15.69s4.39-10.77,10.36-14.86c2-1.35.12-6.46-.25-9.83-.07-.65-1.3-1.46-2.21-1.73-.51-.16-1.64.51-2.18,1-2.66,2.52-7.13,5-7.4,7.72-.52,5.14-5,7.27-8.55,10.1-3.2,2.56-5.38,5-4.85,8.83.07.52-3.4,2.12-4,1.8-2.94-1.71-4.59-5.39-9.32-1.23-3.77,3.31-6.17,6.32-5.88,11.06.25,4,2.6,10.6-3.1,11.35-8.57,1.15-14.21,4.44-15.43,10.22-1.1,5.15-8.84,7.19-7.24,13.34.59,2.28-9.31,7.6-10.56,6.5-5.89-5.16-8-3.72-8.23,2.5-.12,3.3.69,6.6-3.17,9.3a164.9,164.9,0,0,0-13.59,10.9c-4.13,3.57-8.32,6.47-9.66,12.34-1.62,7.06-13.34,6.7-19.25,11.12-2.21,1.66-3.23,2.15-4.62-.27-2.65-4.63-9.94-1.79-13.2-5.46-4.19-4.7-6,.1-9.09,1.31-5.92,2.34-14.43-1.77-16.2-7.41,10.63-5.84-3.91-10.38-1.27-16.75,2.57-6.18.75-13.61.47-20.48-.13-2.9,1.91-4.48,3.74-6.54,4.79-5.41,13.07-8,16-15.31,2-5.16,8.62-9,12.22-14,4-5.46,6.14-11.87,10.61-17,3-3.45,1.19-8.07,6.3-11a24.9,24.9,0,0,0,9.23-9.63C104.64,812.88,114,797,125.26,782c3.62-4.79-2.09-10.8,4.29-14,5.32-2.67,2.75-7.67,6.54-10.86,7-5.89,3.76-15.51,13.27-21.59,7.26-4.64,9.45-13.76,13.77-20.9,3.88-6.42,7.4-13,11.5-19.36,4.57-7.07,8.83-14.27,13.64-21.22,3.41-4.92,4.41-11.07,11.2-14.35,4.1-2,4.79-5.19,4.42-8.85-.25-2.41-.91-5,2.35-6.93,6.9-4,10.29-9.93,13.73-16,4.54-8,5.07-11.25-3-17.57-7.45-5.85-8.4-15.25-17.79-20.06-1.53-.78-2.14-5.68-.9-6.56,7.33-5.11,7.71-9.66-.05-14.48.33-6.87-6.7-9.91-11.24-14.31-5.1-5-2.24-11.48,5.77-14.8,2.68-1.11,4.58-3.71,7.31-4.4,2.53-.64,7.18-.5,8.32.79,5.73,6.45,15.59,7.82,22.39,12.68,6.37,4.55,11.89,9.88,18.23,14.45,4.15,3,6.28,6.37,6.79,10.7.08.66,1.32,1.56,2.2,1.71a2.77,2.77,0,0,0,2.14-1.45c.79-6.53,3.31-12.29,7.21-18.27,7.3-11.22,15.44-22.25,20-34.55,13.8-7.19,14.77-21.21,24.85-30.38-2.24-5.88,6.86-8,6.7-13.25s5.79-6.82,9.27-9.71,3.25-5.86,3.63-9.21c.27-2.29,1.14-5.39,3.14-6.54,8.88-5.15,9.52-12.17,9.78-20.14s-4.27-16.92,5.59-24c2.14-1.54-.08-6.63.62-10,2.19-10.45-5.8-21.93,5.9-31.71,2.66-2.22-.18-8.35.5-12.58,1.85-11.35-5.38-23.77,6.14-34.08,1.06-1,.14-3.34.14-5.06V289.38c0-6-.39-12.06.13-18,.42-4.87-2.79-10.39,2.7-14.52,7.21-5.42-5.88-7.15-3.12-12.27,1.51-2.8-.16-6.59,3.82-9.06,5.17-3.2,2.48-7.89,2.73-11.92.22-3.47.07-6.72,4.07-9,4.4-2.51,2.28-6.3,2.3-9.49s1.67-5.09,5-5.25c6.26-.3,12.09.21,17.12-4.47,2.74-2.56,7.89-.87,10.56,2.27,1.78,2.09,3,2.39,4.58.55,2.63-3.15,7.14-5.33,10.68-3.34,4,2.22,8.86,4.68,9.81,9.43,1.12,5.6-2.84,11.6,3.78,16.87,5.84,4.66,3.44,11.71,2.1,17-1.83,7.23,10.17,9,7.43,16-.6,1.52,2.66,2.32,4.22,1,3-2.46,6.3-4.69,8.94-7.36,2-2,2.42-1.58,4.73.08,8,5.76,17.11,4.37,25.75,1,2.61-1,4.24-3.36,6.87-.31,2.29,2.65,6.16,4,6.75,8.13.75,5.23,5.71,8.52,12.15,10,1.88.44,5.2.9,5.33,1.64,1.41,8.15,3.79,16.22-1.77,24.32-6.67,9.74-12.22,20-18.68,29.8-3.21,4.88-5.37,10.27-9.66,15s7.52,7.4,6,13.09c-1.21,4.57,1.85,7.65,5.32,11.17,3.64,3.69-1.89,10.18,4.77,13.82,4.58,2.5,1.67,7.77,6.58,10.83,4.68,2.92,5.61,3.29,8.93-1.43,4.41-6.29,5.84-14.21,14-18.5,5.08-2.68,3.41-8.08,6.92-10.52,5.79-4,3.56-11.62,11.08-14.48,6.49-2.47,5.73-8.42,8.92-12.51,6.52-8.33,11.73-16.94,10.4-27.54-1.07-8.51.32-17.21-.39-25.76-.59-7.24,3.68-15.32-5.38-21.5-1.65-1.13-.78-4.82-.81-7.33-.09-6.87.87-13.85-.25-20.6-1.61-9.67,5.93-20.65-5.91-28.93,2-1.82,5.81-5.2,5.75-5.25-12.38-9.33-3.69-21.2-5.91-31.67-1-4.81,1.62-10.13-4.94-14-1.73-1-1.17-4.63-1.54-7.07C553.52,127.15,560,114,549,102.81c0-19.77-.07-39.54.16-59.31,0-1.25,2.8-3.71,3.42-3.54,9.32,2.57,15.29-3.85,23-5.23,2.9-.51,7.73-.69,9,.63,4.68,5,10.8,4.49,17.1,4.44,4.06,0,9-1,11,2.81,1.14,2.19.52,5.12.14,7.66-.73,4.81,7.62,5.63,6.62,10.79-.81,4.19.57,8.67-.33,12.85-1.4,6.48,9.71,9,6.72,16-2.61,6.13,2.85,10.8,6.07,15.94,4.09,6.5,9,13.18,6.49,21-2.8,8.86,11.18,14.58,6.45,23.67,8.93,4.64,6,11.93,6.4,18.5.28,5,8.17,7.25,6.68,13.38-1.14,4.69-1.9,10.1,4.62,13.94,1.72,1,1.08,4.65,1.48,7.09,1,6.42-3.48,13.89,5.49,18.8.3,5.91.56,11.83.92,17.75.4,6.73.89,13.45,1.34,20.18,10,3.53.44,13.59,9,17.62,3.53,1.66,2.33,4.5,2.36,6.93.1,9.45.21,18.91,0,28.37-.13,5.27,8.65,7.19,6.7,13.38-1.27,4-.24,8.55-.24,12.85,0,5.16-1.52,10.72.38,15.38,2.5,6.14,7.64,11.33,6.24,18.62-1.13,5.88-.23,12-.23,18,0,6.88.2,13.77-.07,20.64-.18,4.41,1.45,7.66,4.82,11.4s3.62,9.61-1.68,13.68c-2,1.56-3.22,2.85-1.63,3.65,6.93,3.47,4.87,9,4.9,13.86.12,23.21,0,46.42.14,69.63C702.5,527.4,700.82,531,704.36,534.11ZM434,867.69c1-2.46,0-3.14-3.26-2.51-2.9.56-8-1.13-8.32,1.89-.68,6.79-6.41,10.41-11.72,14.14s-7.95,10.52-17.27,10c-1.31-.08-4,2-4,3.08,0,8.22-9.71,10.54-14.38,15.87s-10.66,7.66-18.91,6.82c-3.31-.34-5.57,1.65-5.29,4.85.45,5.21-5.51,8.94-9,9.46-10.54,1.61-14.55,9.17-22.2,13.06s-15.44,7.57-22.24,12.78c-23.93,18.32-22.58,20.76-.07,37.8,7.69,5.82,11.18,6.36,21.77,1.56,6.08-2.75,12.82-4.2,18-8.88,10.57-9.62,22.37-18.38,33.66-27.49,4.52-3.65,8.49-7.94,13.69-10.77,5.92-3.22,4.15-9,8.53-12.88s4.94-10.7,11.62-14c6.84-3.41,1.44-9.82,4.67-13.86,8.63-10.78,14.25-22.84,22.69-33.64,2-2.55,1.59-4.71,5.73-14.42A22.63,22.63,0,0,0,434,863a1.86,1.86,0,0,0,0,2.17,3.33,3.33,0,0,0,2.68,0,11.22,11.22,0,0,0,2.91-3C439.74,861.93,438.38,861.09,434,867.69Zm6.34-202c0-11.17.11-22.34-.13-33.51,0-1.39-1.92-2.76-2.94-4.14-1.5,1.15-3,2.34-4.53,3.44-3.25,2.27-6.12,4.67-5.18,8.58-9.58,5.49-11.6,15.5-19.74,21.72-8.43,6.45-7.93,16.8-15.9,23-5.42,4.22-7.29,10-11.59,14.1s-2.09,10.16-8.53,12.82c-7.11,2.92-7.9,9.39-11.07,14.34a74,74,0,0,1-13.53,16.19c-4.57,4-6.06,9.9-11.2,14.35s-7.13,11.22-10.76,16.87c-4.1,6.38-8.29,12.73-12.8,18.92s-8.37,12.81-12.15,19.18c-4.25,7.18-7.91,14.58-13.36,21.29,3.36,9.49-6.11,13.56-12.14,19.2-1.09,1-.92,3.29-.56,4.88,1.12,4.93-3.17,7.46-6.05,11-2.67,3.24,2.46,9-2.7,11.79s-3.09,7.61-6.41,11c-4.29,4.31-7.44,9.47-10.33,14.54-1.3,2.28,0,5.22,3.2,6.4,1.73.65,5.42.77,6.09,0,6.09-7.3,17.38-8.67,24.66-14.48,5.3-4.23,10.54-8.51,15.81-12.76l18.08-14.58c5.27-4.26,9.74-9.7,16-12.46,7.26-3.19,14.22-6.15,19.8-11.2,5-4.48,10.48-8.55,15.75-12.81C379.41,824.1,390.75,815,402,805.86q22.42-18.27,44.71-36.62c0-17.19,0-34.38,0-51.57,0-3.38,1.45-8.23-.73-9.91-9.38-7.2-4.57-16-5.5-24.06C439.76,677.74,440.31,671.68,440.31,665.66Zm73.5,50c8.81-7.11,18.11-13.87,26.29-21.41,10.1-9.31,25-15.43,29.53-28.59.29-.87,3.48-1.47,5.36-1.52,3.82-.11,5.92-1.63,5.85-4.48-.08-3.25.53-8.07-1.73-9.44-5.65-3.41-3.38-9.32-8.44-12.92-4.26-3-3.06-9.45-8.9-12.28,2.88-6.59-9.92-8.88-6.49-15.85,2.78-5.66-6.45-7.71-6.73-13.21-.23-4.42-8-7.46-6-13.28,1.88-5.56-8.94-7.59-6.24-13.22,3.32-6.95-9-9.35-6.5-15.85-7-3.11-5.55-10.14-10.53-14.54-5.23-4.61-1.1-11.35-2.52-17-.17-.69-1.74-1.84-2.11-1.72a14.66,14.66,0,0,0-4.5,2.33c-2.13,1.78-6.08,4.39-5.56,5.61,3.32,7.71-7.25,12.11-6.48,18.46,1.29,10.53-5.82,22.06,5.12,31.64.32.28-1.45,2.5-2.67,3.47-3.47,2.78-4,5.68-1,8.79,1.3,1.33,4.17,2.38,4.27,3.65.48,6.81,2,14,0,20.37-2.82,8.66,7.09,13.43,6.94,21-.39,19.67-.25,39.34,0,59,0,3.1-2,4.76-4.4,6.21-2.55,1.56-2.82,2.57.2,3.69C512.28,706.69,508.9,712.51,513.81,715.63ZM395.57,512.85c0,4.46-.72,8.82.16,13,1.4,6.67,4.32,2.06,7.62.59,5.14-2.29,10.5-4.15,15.66-6.61,15.38-7.32,15.66-6.92,21.33-21.16a11.65,11.65,0,0,1,2.52-4.25c4.59-4.32,11.48-7.4,11.12-14.22,7.59-2.75,3.5-11.47,11.17-14.19s5.94-10.05,11-14.34c4.17-3.57,3.51-4.48.39-8.56-4.15-5.41-9.82-11.38-9.88-16.94-.08-7.37-8.21-11.32-8.11-18.09,0-.64-3.29-1.78-5.1-1.85s-4.79.54-5.34,1.54c-12.42,22.35-26.56,44-40,66-3.63,5.94-7.15,11.47-7,18.17C391.84,497.65,397,505.92,395.57,512.85ZM618.78,564h.52V548.59c-8.11-4.81-5.37-12-6.59-18.44-1.82-9.61,6.15-20.68-6.2-28.78,0-6,.37-12-.11-18-.44-5.63,2-11.34-4.18-16.73-5.13-4.48-1.52-11.38-2-17.19-.45-5.09-.33-10.21-.47-15.31-8.13-3.62-5-10.37-6.82-15.76a3.31,3.31,0,0,0-2.22-1.71c-.58-.11-2.08.87-2.13,1.43-.81,8.59-9.63,12.55-16,17.8-3.23,2.66-5.14,5.15-4.42,8.89,1,5.05-.81,8.2-8.22,7.89-1.45-.06-4.39,1.9-4.33,2.83.66,9.73-4.36,20.68,9,27.93,2,1.11,3.93,4.58,3.29,6.36-2.68,7.53,10.31,11.07,6.66,18.53,4.53,6.18,5.45,13.93,12.69,18.93-2.68,6,7.54,8,6.38,13.27-1.28,5.85,1.8,9.82,7.15,13.1,4.54,2.79,5.3,6.48,6.12,10.92,1,5.33,4.75,10.34,7.44,15.45a2.79,2.79,0,0,0,2.15,1.06c.91-.26,2.18-1.1,2.2-1.72C618.86,574.23,618.78,569.13,618.78,564ZM449.9,837.14c-1.58,4.31-2.91,6.49-3,8.7-.05,1.28,1.92,2.61,3,3.91,1.07-1.3,3-2.63,3-3.91C452.82,843.63,451.48,841.45,449.9,837.14ZM337.11,925.3,334.84,922c-.71.57-2.12,1.27-2,1.7a15.25,15.25,0,0,0,2,3.46ZM134.4,894.35l2.28,1.83a15,15,0,0,0,2-3.46c.11-.42-1.29-1.12-2-1.69Zm265.28-554.6-4.11,1.83c.71.58,1.57,1.71,2.1,1.62a22.08,22.08,0,0,0,4.29-1.62Z"/><path d="M145.77,1022.3c-1,.8-2.56,2.48-3,2.24-3.11-1.81-1-3.29.71-4.48a2.23,2.23,0,0,1,2.17,0C146.07,1020.47,145.77,1021.54,145.77,1022.3Z"/></svg>