<svg id="Layer_1" data-name="Layer 1" xmlns="http://www.w3.org/2000/svg" viewBox="0 0 1200 1200"><title>BB_Artboard 38</title><path d="M440,391.2c6.73-.55,2.66-8.16,6.73-9.94,6.48-2.83,5.68-10.95,10.5-15.16.73-.63-.4-3.27.33-4.07,3.88-4.27,8.73-7.79,11.95-12.47,3-4.29,3.05-11,6.58-14.37,6.81-6.5,8.94-15.21,13.48-22.72,6.62-11,9.7-24,19.69-33,.36-.32,0-1.39.06-2.11.28-4.23,6.11-6.07,4.75-11,5.72-3,2.51-9.1,4.7-13.19,2-3.66,7.52-5.12,7.69-9.75s6.41-6.16,4.51-11.19c4.15-2.68,4.9-6.67,4.34-11.19-.49-3.92,5.26-4.73,4.42-9.05-.4-2-.6-4.82.48-6.18,5.27-6.59,6.79-14.46,9.42-22.15,2.36-6.89,8.22-12.58,7.33-20.74,4.24-2.21,3.16-7.78,6.17-10.35,4.13-3.51.69-8.67,3.15-11.68,2.34-2.86,2.87-6.19,4.58-9,2.2-3.57,6.66-1.52,10-1.43,4.83.13,9.75-1.46,14.56,1.33,5.39,3.13,11,5.81,15,10.79a80.15,80.15,0,0,0,6.09,6.14c1.08,1.06.76,2-.92,3.08-2.86,1.89-2.89,5-2.25,7.65,1.77,7.45-2.55,13.35-4.43,19.88-7,4-1.31,14.16-8.61,18.07,2.87,8.19-7.35,13.76-4.4,22,2,5.51-6.27,7.41-4.55,13.42,1.08,3.79,1.24,8.43-3.15,11.64-1.15.85-.87,3.92-.91,6a22.23,22.23,0,0,1-3.38,11.68c-3.27,5.54-6.68,11.88-5.5,19.39.74,4.7-6,7.56-4.27,13.36,1.34,4.39-1.6,7.61-3.88,11.36s1.94,10.18-2.17,14.12c-3.89,3.73-1.9,8-2.49,12-.2,1.37.15,3.66-.53,4-6.42,3.3-1.39,11.12-6.06,14.9-2.32,1.88-1.62,3.51.59,4.16,1.92.57,5.21.57,5.48-1.75.44-3.84,3.83-6.26,4.34-9,.72-3.91,4.4-6.27,4.46-8.93.11-5.42,4-7.41,6.78-10.28,3-3.06,1.7-8.4,6-10.53-1-4.83,4.73-6.9,4.74-11,0-4.53,6.4-6.15,4.48-11.19,6.5-5.49,9.83-12.89,13.13-20.53,3.17-7.35,7.83-14.06,11.21-21.33s6.67-14.59,10.44-21.63c2.54-4.72,5.5-9.55,7.48-14.24s2.41-10.33,5.3-15.13c2.39-4,3.29-9,6.13-12.52,3.09-3.84,2.71-9.37,7-12.35-1.11-5.28,1.67-9.18,4.21-13.43,2.36-4,2.72-9.47,5.72-12.62,3.53-3.71,2.22-9.91,7.4-12.22-.49-5.08-.42-10,4.33-13.36-2.3-7.81,5.25-11,7.43-16.39,2.27-5.63,4.3-7.83,10.1-7.15,3.55.43,7.2,0,10.81.11,2,0,4.46-.76,5.79,1.64,4,7.18,14.18,6.38,17.77,13.91.56,1.17-.24,2.94.14,4.27,1.56,5.51-6.53,7.49-4.51,13.42,1.72,5.08-2.65,9-3.8,13.42-1.21,4.65-6.41,7.41-5,13.3,1.16,4.7-5.65,7.5-4.45,13.37.53,2.61-3,5.83-3.85,9a23.7,23.7,0,0,0-.07,8.61c.34,2.79-2.2,3.47-3.08,5.26-2.06,4.19-5.65,8.73-5.22,12.76.63,5.87-5.49,8.27-4.76,13.4.93,6.5-7.18,10.75-4.34,17.69-3.91,3.65-5.09,8.15-4.36,13.36.85,6-4.6,9.6-6,14.84-.47,1.77-3.17,2.79-2.65,5.38,1.3,6.55-2.86,11.87-3.91,17.75-.79,4.42-3.49,7.42-4.5,11.19-1.08,4,.58,8.79-.44,12.87-1.44,5.81-4.78,11.09-5.29,17.3-.09,1.09-2.37,1.87-2.85,3.1-2,5.12,2,11-3,16.18-4.36,4.51-.61,11-1.69,17.53.67-1,0-1.73-2-1a2.67,2.67,0,0,0-1.44,1.3,8.06,8.06,0,0,0-.79,3.65c.15,1.16,1.1,2.21,1.7,3.31.84-.75,2.1-1.35,2.43-2.28.42-1.2.1-2.65.1-5,1.23-1.51,3.24-1.72,3.55-2.56,2.88-7.64,5.8-15.18,12.18-20.79a5.28,5.28,0,0,0,1.52-3.6c0-4.37,6.15-6.1,4.57-11,3-3,6-6.17,9.14-9.09,3-2.78,5.08-6.66,10.38-6.33,2,.13,1.79-3.27,2.1-5.36.14-.94,1.54-1.72,2.47-2.45.07-.05,1.42,1,1.4,1.44-.42,7.42,3.09,15.23-3.58,22.06-1.8,1.85-.94,7-.24,10.39.65,3.15,2.72,6,4.16,14.38,0,2.52-.27-.39.09-3.22.28-2.22-.11-3-2.23-2.13a2.77,2.77,0,0,0-1.5,1.49,65.71,65.71,0,0,1-7.83,16.14c-2.18,3.29.13,3.35,1.68,3.89,1.28.45,2.85.1,4.28.09,3,0,5.79-.2,5.53-4.39-.13-2.15,0-4.31,0-11.87,2.45-6.92,1.1-2.71,2.2-5.38.26-.61,1.22-.94,1.46-1.56,2.57-6.55-2.29-14.32,3.13-20.34,5-5.53-2-14.59,6-19.36,1-.58,0-4.11.28-6.23.56-4.73-1.82-9.91,2.85-14,3.85-3.38-.87-9.63,4.48-13.42,3.83-2.72-.76-9.37,4.54-13.32,3.47-2.58-1.16-10.08,4.81-13,.21-5-.56-10.23.85-14.83,2-6.58,5.67-12.66,4.1-19.93,5.55-4,3.71-10.06,4.51-15.51.46-3.15,3-5.95,4.06-9.08.88-2.53-1.18-5.83,1.79-7.92,2.73-1.92,2.74-4.66,2.68-7.58s-.81-7.36.55-8.2c6.13-3.73,1.22-11.41,6-15s-.52-9.82,4.43-13.47c3.21-2.36,1.86-8.19,6.23-10.31-3.12-7,5.37-11.15,4.44-17.67-.2-1.38-.38-3.09.24-4.2,2.63-4.71,6.58-8.95,8.09-13.95,1.39-4.63-.57-10.22.57-15a28.2,28.2,0,0,1,5.4-10.55c2.17-2.61,7.07-3.3,10.47-5.63.95-.64,4.14.71,5.38,2,4.07,4.3,8,8,14.76,6.68,1.26-.26,3,3.51,4.74,3.74,3.79.51,7.08.55,6.66,5.74-.4,4.94-.53,9.9-.78,14.85-6.08,2.84-1.44,9.72-4.74,13.1-2.91,3-3.51,6-3.16,9.6.42,4.48-1,7.79-4,11.47-2.2,2.67.73,7.79-3.17,11.68-3.69,3.67.46,11.43-5.83,14.77,1.76,8-6.18,13.74-4.62,22.08,1,5.12-6.72,9.15-4,15.48-3.91,3.65-5.18,8.16-4.33,13.36-4.8,3.36-4.4,8.31-4.57,13.35,0,1.62-3,3-4,4.78-.58,1-.08,2.77.19,4.14.43,2.29,2.17,1.95,4.57-.8,1-1.09,2.84-2,2.93-3.08,1-12.63,9.42-22.13,13.9-33.26,1.74-4.33,4-8.47,6.14-12.61s6.19-8.16,6.38-12.37c.25-5.32,3.5-8.9,4.52-13.39,1.05-4.68,6.71-7.62,4.68-13.35-.35-1,.42-2.9,1.3-3.66A28.92,28.92,0,0,0,840.4,122c1.6-5.14,4.49-9.81,7.08-14.34,3-5.24,4.3-11.78,9.75-15.5,2.66-1.81,2.1-5.14,3.35-7.22,1.78-3,2.87-6.36,4.63-8.87,3.52-5,8.17-9.18,10.57-15.21a6.65,6.65,0,0,1,6.8-4.2,44.34,44.34,0,0,0,10.8,0c8.93-1.46,16,2.78,23.26,6.71,8.46,4.57,8.75,4.49,8.42,11.29-.23,4.72,1.88,9.88-3.2,14-1.52,1.23-1.18,5.33-1,8.06a24,24,0,0,1-4.23,15.66,32.4,32.4,0,0,0-4.89,17.56c-.06,5.08-6.09,9.37-4,15.54-6.11,3.87-4.13,10-4.33,15.53s-.09,10.58-3.93,15.82c-2.84,3.87,2.16,11.37-3.9,15.58-.28,4.21-.37,8.45-.9,12.64-.43,3.39-5.36,4.75-4.32,9.05.33,1.36,0,2.88.09,4.31a4.25,4.25,0,0,0,.92,1.77c1,1.43,1.65.77,3.13-.54,3.47-3.05,5.55-6.3,4.62-11.16-.87-4.55.37-8.35,4.44-11.18,1.67-1.16,4-3.1,4-4.71.11-12.36,9.67-20.65,13-31.48,1.37-4.5,6.66-7.61,4.63-13.35-.33-.94.54-2.83,1.44-3.61,10.24-8.83,11.65-22.88,19.66-33.1,2.31-2.94-1-8.11,3.09-11.76,2.86-2.55,2.17-7.91,6-10.39,1.35-9.85,9.81-12.19,16.71-16.68,6.21-4,12.5-2.47,18.51-2.06,4.28.28,8.55,3.65,12.4,6.28,2.93,2,5,5.17,7.76,7.5,4.88,4.17,8.42,8.19,1.47,13.67-.77.6-.87,2.83-.45,4,2.51,7-4.37,11.48-4.41,17.72-3.88,2.79-4.79,6.61-4.41,11.2.34,4.26-6,6.16-4.28,11.2s-5.19,6.5-4.34,11.2c.67,3.75-.82,6.54-3.47,9.44s.9,8.17-3.07,11.75c-2.32,2.1-3.18,5.81-4.74,8.76-2.18,4.1-2.75,4.63-.18,7.27,3.95,4.06,3.45,6.74-.19,10.72-2.92,3.21-1.71,6.19,2.68,7.35,2.24.59,4.66,1.14,4.5,3.21-.37,4.77,2.62,10.33-2.05,14.21-4.08,3.39.15,9.06-3.14,11.6-4.27,3.3-2.2,10-7.51,12.18,1.66,5-4.6,6.7-4.51,11.15.08,4.28-6.15,6-4.67,11-3.1,2.31-4.66,5.27-3.94,9.2,1.39,7.6-4.43,12.62-7,18.77-1.49,3.64-7.32,5-6,10.49-4.09,2.71-4.59,6.67-4.51,11.2,0,1.7-1.82,3.56-3.09,5.13s-3.52,2.85-4.4,4.69a8,8,0,0,0-.17,5.74c1,2.55,3.93,1.93,5.67,1.31s3-3.61,4.81-3.94c6.16-1.14,13,1.89,18.62-2.12,6-4.3,12.45-2.41,18.52-2.11,6.68.33,10.57-6.62,17.77-4.87,5.45,1.33,11.49.27,17.26.27,6.31-6.69,14.52-3.73,22-4.34,5.17-8.83,17.23.17,22.4-8.66,7.94,0,15.88.15,23.82-.08,2.73-.08,3.69,1.85,5.17,3.24,2.64,2.46,4.91,5.37,7.75,7.54,2.59,2,7.65,2.69,8.25,4.88,1.28,4.7.5,10,.31,15a6.08,6.08,0,0,1-1.71,3.57c-4,4.18-7.46,9.64-12.38,11.91-5.3,2.44-11.39,3.71-17.1,5.68-3.23,1.11-7.31.88-10.73.07-9.63-2.28-17,5.61-26,5.34-3.61,6.45-12.76.58-16.63,7.48-.7,1.26-5.43.31-8.3.29s-5.86-.63-6.67,3.27c-.69,3.37,2.33,4.8,3.7,7.14,2.29,3.92,11.37.46,9.28,8.75,3.49,3.61,7,7.18,10.46,10.83a10.47,10.47,0,0,1,.48,13.25c-2.46,3.25-7.39,4.89-6.68,10.27.08.54-12.92,7.32-13.88,7.1-9.39-2.08-16.67,7.31-26.44,4.69-2.53-.68-4.64,5.06-9,4.08-2.89-.65-5.65,0-7.53,2.67-.41.58-.94,1.38-1.53,1.49-4.79.89-10.57-2-14.33,1.76s-8.13,3.13-11.94,2.45c-5.71-1-7.44,6.4-13.47,4.82-4.73-1.24-10-.31-15.09-.23-3.63.06-4.72,5-9.05,4.45a31,31,0,0,0-10.49.71c-1.84.4-3.21,3-5,3.36-6.06,1.31-12.54-1.79-18.51,2.51-5.58,4-12.45,2-18.64,1.73-6-.3-9.22,5.92-15.58,4.79-5.3-.95-11.36-1.74-15.68,3.94-.79,1-4.13.14-6.3.15l-23.73.21c-5.48,7-13.74,1.89-19.79,4.49a86.9,86.9,0,0,1-15.32,5c-2.28.52-4,3.27-7.22,3.49-5.45.39-11.5-2.31-16.28,2.37-4.14,4-12-1.12-14.8,6.11-4,.6-8.36-1.43-11.86,2.95-3.12,3.9-10.29-1.4-13.12,4.7-4.19.35-8.37.71-12.56,1-3.58.28-4.79,5.55-9,4.32-4.88-1.41-7.33,3.58-11.22,4.2-4.23.66-9-1-12.88.41a148,148,0,0,1-17.24,5.45c-1.19.26-1.93,2.59-3.11,2.83-4.76,1-10.45-2-14.36,1.79-4.46,4.33-9.63,3.12-14.09,2.37-6.38-1.07-9.54,5.28-15.59,4.86-5.3-.37-11.57-2.72-15.93,3.26-.58.81-2.56.69-3.91.82-9.59.92-19.85-2.68-28.56,4.3-.44.35-1.4,0-2.13,0-5.05,0-10.22.66-15.12-.18-5.61-1-8.88,3.34-13.42,4.43-9.35,2.27-20.12-4.47-28.5,4.41H446.47c-17.32,0-34.67-.52-52,.22-8.81.37-18.72-4.29-26.36,4.11-6.72-1.36-14.45,3.47-20.29-3.31-4.91-.34-9.84-1.17-14.73-.93-14.08.72-24.94-6.34-35.14-14.48-7.28-5.81-7-6.06-23.33-11.77-3-1.06-5.32-4.32-8-6.57,1.79-5-4.91-6.58-4.42-11.21.25-2.37-1.35-3.83-4-3.71-.72,0-1.45,0-2.17,0-6.5,0-13.12-.79-19.45.22s-9.68-5.12-15.57-4.66a130.58,130.58,0,0,1-19.48,0c-4.65-.34-7.69-5.66-13.41-4.39-4.13.91-9.16,1.44-12.81-.13-4.83-2.09-9.93-3.9-14.28-7.51-10.69-8.91-13.1-9.47-24.15-9.51-6.5,0-13,.22-19.49-.09-3.42-.16-7.38,1.75-10.2-1.32-2.15-2.33-5.12-2.1-7.31-3.29-3.64-2-6.12-6-9.4-8.82-2.1-1.8-1.42-3.88-1.48-5.92a93,93,0,0,1,0-10.82c.4-4.73-2.18-10.37,3-13.84,5.58-3.75,10.92-8,18.37-8,47.64.13,95.28.07,142.91.07,2.17,0,4.41.33,6.47-.14,1-.24,2.57-2.35,2.32-3-2.62-6.47,5.12-10.11,4.28-15.56-.78-5.07,4.07-7.18,4.45-11.23.34-3.58-.7-7.45.3-10.76.93-3.07,5-4.75,4.18-9.11-.93-4.77,1.38-9.93-2-15.44-8.67,8.67-17.3,17-25.53,25.63-6.33,6.68-15.86,7.6-22.73,13.37-1.66,1.4-7,1.28-8.14-.15-2.95-3.72-9-2.62-10.35-6s-2.21-6.44-5-8.79c2-6.14-3.42-10.39-4.06-15.56-.95-7.78-.08-15.77,0-23.67,6.62-3,1.88-10.75,6.1-14.82.95-.92,2.43-2.57,2.15-3.31-3.4-9.05,6.16-15.62,4.47-24.24,5.24-6.31,8-14.06,11.54-21.23,5.61-11.38,11.27-22.76,17.25-33.95a12.81,12.81,0,0,0,1.52-5.89c.06-1.44-.57-3.75.1-4.19,6.77-4.5,7.68-13.22,13.5-18.34,1.15-1,9.32-2.49,10.15-1.5,4.69,5.63,9.91,10,17.92,9.28.45,0,1.65,2.31,1.56,3.47-.35,4.56.21,8.69,4.57,11.12,6,3.37,1.75,6.27,0,9.55a4.52,4.52,0,0,0,.61,3.94c2.62,3.47,2.93-1.09,4.5-1.53a2.62,2.62,0,0,0,1.5-1.49c1.72-5.45,5.4-9.41,9-13.68,2.9-3.41,3.54-8.66,6-12.54,2.63-4.09,6.17-7.62,9.54-11.2a5.7,5.7,0,0,1,3.75-1.23c6.5-.12,13.11-.84,19.46.14,7.46,1.16,14.26,4.58,19.1,10.89-1.18,5.46,3.5,7.51,6.41,10.28,3.18,3,2.51,6.64,2.08,9.93s-6.57,6.17-.13,9.55c-4.29,3.52-4.57,8.25-4,13.24-5.22,3.23-5.12,8.5-4.17,13.33,1,5.11-5.57,6.67-4.44,11.22,1.68,6.76-7.22,10.65-4.43,17.72,2.39,6.09-5.54,9.09-4.67,15.56.66,5-6.4,9.22-3.95,15.48-5.9,3.94-4.12,10-4.33,16.56.67-1,0-1.74-2-1a2.65,2.65,0,0,0-1.44,1.31,8,8,0,0,0-.79,3.65c.15,1.16,1.1,2.21,1.69,3.3.85-.74,2.11-1.35,2.44-2.28.42-1.19.1-2.65.1-5,3.64-.48,5.28-3.61,6.59-5.69,3.17-5.06,4.89-11.14,8.1-16,3-4.52,6.59-8.54,9-13.64,4.64-9.9,8.8-20.3,18.21-27,2.24-1.61,1.83-4.08,1.31-5.87-1.68-5.75,6.67-7.62,4.77-13.24,3.75-4,7.39-7.71,9.64-13.31,1.88-4.66,7.47-7.94,8.69-13.68,6.53-4.7,8.45-12.22,11.69-18.94.58-1.21,1.08-2.82,2.1-3.39,6.65-3.71,6.11-12.57,12.16-16.67,1.16-.79,3.07-2.27,2.89-3-2.16-8.61,5.59-12.2,8.58-18.18s5.71-12,8.86-17.94c4.95-9.27,10-11.62,20.15-8.75,2.72,4.58,7.24,4,11.42,3.64a10.1,10.1,0,0,1,9.25,4,87.31,87.31,0,0,0,7.61,7.66c5.09,4.63,5.48,9.73,1,14.71-2.91,3.25-1,6.82-1.82,10.1-.7,2.65-4.8,3.35-4.27,6.87.68,4.56-.43,8.41-4.34,11.18,1.8,5-5.25,6.62-4.29,11.17,1,4.77-1.87,7.86-4.37,11.18,1.67,7.29-6,12.53-4.33,19.82-7,4.07-1.22,14.16-8.52,18.09,2.92,7.59-6.52,12.37-4.48,19.76-2.66,4.79-5.76,9.44-4.66,15.37-6.56,3.05-1.52,11.11-6.17,14.67s.58,10-4.48,13.37c-4.35,2.87.25,8.75-3.17,11.55-4.93,4.05-2.15,9.29-3.3,13.86-.8,3.17-3.24,5.92-4.06,9.08-.71,2.7-.15,5.73-.15,9.58,0,.32.25-.57-.07-.9a1.91,1.91,0,0,0-1.83,0c-1.42,1-3.2,2.24-.59,3.76C437.83,394.25,439.13,392.83,440,391.2Zm-60.64,15.38c0-7.12-.25-10.69.09-14.21.21-2.18-.12-2.91-2.21-2.1a2.87,2.87,0,0,0-1.49,1.46c-2.86,7.53-5.75,15-11.92,20.68-2.91,2.69-2.09,7.64-5.9,10.42-2.08,1.52.29,6,2.94,6.4,5.26.74,9.48-.75,12.85-5.09,2.1-2.71,1.57-6.2,4.05-9.15,2.25-2.66,1.51-7.84,4.11-28.74a16.14,16.14,0,0,0-2.47,2.09,1.87,1.87,0,0,0,0,1.82,1.82,1.82,0,0,0,1.81,0,8.64,8.64,0,0,0,2-2.55C383.28,387.46,382.36,386.76,379.34,406.58Zm422.21-46.67c5.73,0,11.46.12,17.18-.05,2.39-.08,5.92-7,4.26-8.75-3-3.16-1.26-6.71-1.81-10,5.75-4.78,4.27-11.37,4.31-17.53.07-12.88.19-25.76-.08-38.64a11.13,11.13,0,0,1,4-9.2c.75-.69.46-2.66.4-4a2.88,2.88,0,0,0-1.09-1.66c-.37-.33-1.36-.66-1.43-.55-1.91,2.82-5.26,4.12-6.33,8.13-1.38,5.11-5.75,9.39-4.27,15.37-5.3,2.2-3.53,8.55-7.3,12.17-3.05,2.93-3.29,8.58-5.64,12.5a31.11,31.11,0,0,0-4.59,13.27c-.44,4.25-4.39,8.07-6.57,12.19a108.72,108.72,0,0,0-5.85,12.59c-.32.86-2.36,4.46,2,4.27s8.59,0-2.14,1.89c0-.64.25-1.54-.08-1.86a1.87,1.87,0,0,0-1.82,0c-1.43,1-3.21,2.24-.6,3.76C784.38,363.93,785.67,362.51,801.55,359.91ZM496.3,392.53a8.08,8.08,0,0,0,0-2.09c-.32-1.25-.55-3.25-1.32-3.53-2.76-1-3.21,1.18-2.92,3.16.38,2.6-1.67,3.56-2.85,5.16-1.32,1.81-.44,3.53,1.72,3.67C495.24,399.18,496.3,397.92,496.3,392.53Z"/><path d="M331.69,863.41c4.28-.68,3.41-4.06,4.55-6.5,1.43-3.06,4.72-5.19,6.69-8.07,1.47-2.15,1.72-5.16,3.23-7.26,2.79-3.87,7-6.26,7.94-12,.74-4.29,8.09-5.58,8.11-11.77,0-1.63,2.31-3.35,3.76-4.84,4-4.14,8.67-7.78,12-12.38,2.68-3.67,3.7-8.51,5.72-12.71a14,14,0,0,1,3.66-4.93c6.82-5.31,10.58-12.67,13.4-20.44a10.48,10.48,0,0,1,3.41-5c6.94-5.2,10.86-12.66,13.8-20.27a16.81,16.81,0,0,1,6.14-8.16c5.66-3.8,5.77-11.28,10.68-15.07,4.73-3.64,4.61-10,9-13.76,1.26-1.09.53-4.35,1.75-5.62,5.31-5.57,9.94-11.81,19.71-10.16,5.21.87,9.24,1.9,12.88,5.79,2.94,3.13,5.32,6.18,6.13,10.52.33,1.77,1.6,1.24,3-.33,6.42-7.22,8.75-16.6,13.38-24.76-2-6.25,3.75-10,5.31-15.15,1.46-4.82,9-6.83,7.82-14.09-.76-4.82,6.34-7.63,4.25-13.34-.92-2.49,1.52-3.66,2.76-5.31,2-2.73,6.13-4,5.92-8.39,0-.74,12.2-8.41,12.78-8.23,1.26.41,2.8.61,3.69,1.46,5.2,5,10,10.41,15.41,15.16,4.07,3.57,4,9,2,11.48-2.73,3.41-2.58,8-5.76,10.71-3.38,2.87-1.28,6.75-2.41,9.86-.9,2.46-3.66,4.18-5.13,6.52-3.56,5.7-8.17,11-7.69,18.43a3.46,3.46,0,0,0-4.23,2.83c-.46,1.84-.1,3.88-.1,6.8,0,.33.25-.57-.07-.89a1.88,1.88,0,0,0-1.83,0c-1.42,1-3.2,2.24-.59,3.76.34.2,1.64-1.21,2.49-2.85a5.12,5.12,0,0,0,4.23-3.79c.46-1.84.1-3.88.1-5.84,9.11-4.69,14.58-13.41,22.06-19.91,2.41-2.1,5.37-2.43,7.39-.43,5.65,5.58,11.29,11.17,16.8,16.88.84.88.91,2.48,1.42,3.72s1.12,2.42,1.7,3.62c.87-.78,2.23-1.4,2.54-2.36,2.35-7.23,5.22-14.14,11.26-19.13,2-1.65.91-4.76,2-5.59,4.64-3.66,3.2-11.09,8.75-13.77,5.2-2.5,3.71-8.58,7.33-12.34,3.44-3.57,4-9.79,6.54-14.42,2.29-4.12,8.43-5.85,7.55-12,8.34-5.92,10.65-15.74,15.12-24.07,2.65-4.92,4.93-9.8,9.32-13.47,2.17-1.81,5.25-3.88,5.67-6.23,2.5-13.92,13.25-9.68,21.73-10.32a4.7,4.7,0,0,1,3.65,1.41c3.08,4.52,10.2,6.15,9.62,13.38,0,.51,1.72,1.32,2.75,1.69.28.09,1.28-.88,1.39-1.47.39-2-.85-4.55,1.65-5.8,6.27-3.16,5.9-10.86,10.59-15.2,1.83-1.69.19-5.73,3.19-7.24,6.26-3.17,6.09-10.68,10.61-15.17,9-8.9,16.26-8.94,25.44-.63,6.44,5.83,5.3,12.29,3.78,19.23-6.61,3-.61,10.77-5.88,15.09-3.23,2.65-4.37,8.11-5.91,12.5-1.35,3.83-3.89,7.07-5.58,10.66-1.78,3.8-1.06,4.75.36,8.08,1.82,4.27.42,9.84.87,14.81.41,4.61-6.24,6.2-4.4,11.2-5.09,3.24-2.78,9.41-5,13s-2.66,7.92-5.68,10.69c-5.75,5.31-7.78,12.61-11.45,19-2.31,4-2.66,9.43-6.88,12.36-1.64,1.14-1.67,2.23.36,3,1.24.49,3.7.92,4,.46,3.49-6.32,11.13-2.06,15-5.73,5.14-4.91,11.09-3.15,16.18-2.48,5.91.78,7.41-6.73,13.48-5,3.71,1.08,8.46,1.49,11.71-3,.85-1.18,3.87-.84,5.91-1.1,8.85-1.08,18.43,3,26.49-4.19,1.2-1.07,4.19-.15,6.36-.15,19.48,0,39,.5,58.45-.25,7.39-.29,12.49,7,19.85,4.53,7-2.38,11.62,3.56,17.65,4.67,3,.55,5,3.88,9,4.55,2.7.45,5.65,3.13,8.83,4.52,2.95,1.3,5.9,3,9,4.44s5.22,4.86,7.77,7.41l9.19,9.19,10.71,10.72c-1.86,5,4.11,6.76,4.59,11.15.5,4.56,3.77,8.28,4.69,13.28a28.66,28.66,0,0,0,9,15.69c7,6.25,13.36,13.17,20,19.8q6.88,6.9,13.76,13.79c-1.09,7.09,6.55,8.65,8.68,13.73a163.21,163.21,0,0,0,7.73,16.34c2.73,4.94,7.88,10.26,5.25,17.25,6.66,4.62,5.26,11.93,4,17.61-1.7,7.4,5.38,11.25,4.81,17.79-.49,5.73.48,11.61-.23,17.29-1.26,10.25,4.14,21.45-4.2,30.7,0,6.5-.62,13.07.17,19.47.82,6.73-6.56,10.55-4.7,17.76,2.33,9.05-7.2,16.78-4.13,26.3-4.18,4.6-6.39,10.42-8.38,16-1.38,3.85-6.65,5.9-4.93,11-4.53,4.34-7.76,9.45-11,14.89-6.26,10.51-18,14.55-28.27,20.09-.61.32-1,1.42-1.55,1.44-4.32.12-9.75-1.53-12.7.49-3.78,2.59-7,4.13-11.47,4-8.66-.24-17.43-.89-25.95.2-6.36.82-9.52-5.44-15.58-4.77-5.62.63-11.39-.15-17.1-.31-4.43-7-13-.92-17.32-4.88-5.29-4.9-10.74-2.44-16.08-3.4a6.12,6.12,0,0,1-3.25-2.47c-1.58-2.09-5.23-2.4-5.56-1.66-3.26,7.13-10.87,2-15.13,5.74-1.57,1.37-2.73,3-5.34,2.91-5.54-.18-11.46-1.19-15.52,4.24-5.28-1.1-9.08,2-13.46,4.14-5.39,2.69-10.85,5.48-17.62,4.76-5.28-.57-11.69-2.46-15.61,3.84-5.37-.71-11.52,2.88-16-2.6-1.41-1.72-1.57-1.16-3.22-.1-5.17,3.31-3.76,10.71-9.09,13.67,1.69,5-4.9,6.71-4.42,11.15.43,4-4.44,4.81-4.59,9-.28,8.21-9.65,6.71-13.71,11.18a4.78,4.78,0,0,1-1.45.92c-2.21-3.1-5.65-3.52-8.91-4.76s-1.1-5.13-1.72-7.77a28.65,28.65,0,0,0-1.41-3.74,11.6,11.6,0,0,0-3,1.65c-4.33,4.5-9.41,8-9,16,.29,5.06-8.57,2.92-10.86,7.66-3.6,0-7.22.16-10.82-.05-3-.19-8.16-5.65-8.19-8.54-.08-7,0-14.09,0-23.9-7.52,7.52-12.84,13-18.34,18.27-2.93,2.82-9.87,1.16-11.95-2.72-.62-1.16-.47-3.19-1.33-3.69-9.44-5.51-7.23-14.64-7.28-23a6.56,6.56,0,0,1,1.71-3.58c2.2-2.74,6.34-5.24,6.48-8,.23-4.68,5.36-6.27,5-11.2-.2-2.88,3.27-5.47,4.55-8.81,1.42-3.73,4.61-6.8.15-15-1.2-5.32-.58-2.6.6-1.48,4.52,4.32,4.22,4.25,7.46-.32,2.41-3.38,5.63-6.18,8.18-9.48.7-.91.94-3.22.3-4a139.26,139.26,0,0,0-10.19-10.71c-.23-.22-1.88,1.14-2.93,1.65-4.33,2.11-3.19,7.39-6,10.32-3.45,3.6-7,7.05-10.51,10.63-.18.19.12,1.28.43,1.42,1.2.53,2.66,1.41,3.72,1.11,1.88-.53,3.54-1.83,8.95.83-.73,3.48-3.82,7.56-4.2,9.83-.8,4.8-3.42,7.69-6.62,10.3-4,3.24-2.38,9.7-7.58,12.09-4.38,2-3,7.58-6.12,10.44-1.6,1.46-2.81,3.57-4.65,4.49-6.38,3.19-5.49,11.12-10.35,15.37-1.1,1-.1,3.75-1.75,5.71-5.33,6.39-12.25,11-16.23,19.18-3.58,7.35-11.5,12.61-17.56,18.74-2.92,3-5.38,6.29-10.44,6.36-2.25,0-1.33,3.56-1.92,5.48-.67,2.2-3.31,3.63-5,2.45a69,69,0,0,1-11.07-9.77c-1.16-1.27-1-3.92-1.12-6-.38-6.26.64-12.65-1.24-20.68-3.73,4.14-6.56,6.5-8.39,9.47-3.72,6-9.38,5.7-15.14,5.4-5.48-.28-9.44-5-10-11.18-.29-3.39,1.49-7.2-3.21-11.52a77.15,77.15,0,0,1-4.71,6.77c-1.76,2.07-1.94,1.92-6.07-.27-.6-.31-1.3-1.18-1.68-1-5.31,1.92-7.53-7.86-13-3.63-3.23,2.49-7,5.21-6.2,10.36-8.4,6.63-10.62,18.37-19.92,24.2-4.54,2.84-5.14,8-7.64,12-6.11-.77-8.26,4.68-12,7.66-2.37,1.9-5.07,1.79-7.39-.44-2.08-2-4.14-4-6.11-6.13-1.4-1.49-3.21-2.54-3.07-5.26.29-5.75.26-11.54,0-17.31-.12-2.72,2.41-3.41,3.13-5.23,1.51-3.77,4.65-7.34,5.2-10.73,1.27-7.73.49-15.82.31-23.75a5.12,5.12,0,0,0-2.09-3.39c-9.33-6.78-7.09-16-5.25-25,.24-1.18,2.72-2,2.82-3.1.39-4.28-.88-9,.6-12.79s5.61-6.27,8.23-9.62c.63-.8,0-2.73-.32-4.07-.14-.6-1-1-1.47-1.55-6.78,7-15.78,12.24-19.54,21.69-1.47,3.7-4.69,5.19-6.45,8.16a98.82,98.82,0,0,0-4.6,8.92c-2.37,5.19-8.5,4-12.32,7.28-2.56,2.22-8.3,2-12.2,1-3-.72-5.58-4-8.1-6.41s-4.86-3-7.38-.83c-2.75,2.31-5.71,4.7-7.58,7.67-3.59,5.73-6.22,1.87-9.63,0-1.68-.91-4.27,0-6.41-.21-2.31-.27-3.17-1.65-3.7-4.16-.68-3.18-3.18-5.94-4-9.11-.71-2.7,0-5.75-.23-8.62-.1-1.24-.92-3.3-1.68-3.44-1.86-.32-4.49-.45-5.73.61-5.77,5-10.5,10.92-18.13,13.85s-9.63,3.25-14.91-1.35-8.3-9.35-7.23-16.59c.62-4.18.11-8.51.11-13-5.42,2.79-12.18,6.76-12.48,9.17-.49,3.88-2.19,6.4-4.81,8.93-6.23,6-11.91,12.65-18.55,18.15-3.45,2.85-8.31,4.6-12.79,5.4-3.61.64-6.52,1.17-9.38,3.81-2.23,2.07-5.19.77-7.27-1.68-4.09-4.82-8.69-14.93-8.25-20.35.49-6.07-2.63-13,3.76-17.89-1.74-6.75,3-11.94,5.23-17.32a88.74,88.74,0,0,1,8.29-16c3.05-4.48,4.59-9.68,7.52-14.3,2.12-3.35,3.18-7.51,6.52-10.19a8,8,0,0,0,3.33-7.35c-.13-1.94.12-4.85,1.36-5.78,7.63-5.77,9.69-14.9,13.33-22.74,3.48-7.51,11-12.34,12.58-20.76,4.3-2.15,2.14-7.76,6-10.65,3-2.26,1.18-6.57.88-10,0-.55-.88-1.24-1.5-1.45-.35-.12-1.26.46-1.46.93-3.2,7.49-5.72,15.37-12.28,20.89-2.23,8.79-9.36,13.86-15.41,19.54-5.71,5.36-9.25,11.83-12.2,18.82-.26.61.26,1.65-.08,2.12-3,4-6.67,7.05-11.85,7.72-.79,5.12-3.39,10.79-7.75,11.44-5.18.76-7.18,4.14-10.35,6.68a10.66,10.66,0,0,1-17.52-6.49c-.63-3.45-.18-6.69-3.25-9.6-2.71-2.57-2.42-7.91-.49-9.76,3.33-3.18,2.65-7.91,5.84-10.75,4.75-4.26,8.79-9.92,14.3-12.58,7.49-3.63,11.21-9,15-16,2.78-5.19,4.07-12.07,10.27-15.31,4.73-2.47,4.89-8.16,7.78-11.86,3.09-3.95,8.88-6.71,10.09-10.95s4.45-6.79,5.47-10.81c.8-3.18,3.56-6,4-9.1.47-3.5,3.4-4.4,4.82-6.72,2.83-4.6,6-9,8.32-13.88,9.27-19.27,18.39-38.61,28.55-57.43,1.91-3.53,1.81-8.09,5.93-10.63,3-1.85,3.76-5.31,5.09-8.65,1.91-4.81,7.69-7.39,9.08-13.61,1-4.32,7.34-5.72,8.1-11.85.64-5.09,8.47-6.78,8.81-13.71.13-2.67,4.41-5.54,7.31-7.59,8.35-5.87,10.32-16.67,18.16-22.84-.61-3.19.95-5.28,3.17-7.38,5.25-5,9.87-10.67,15.55-15,2.21-1.69,7.61-1.94,9.8-.38,5.21,3.71,9.38,8.9,14,13.49-.68,5.88,6.66,8.73,5.32,15.22-1.13,5.47-.81,11.25-1.13,16.89-5.87,4.3-2.07,10.69-3.57,15.87-.88,3.07-5.36,4.79-4.13,9.08-4.73,4.3-5.49,10.75-8.66,15.9,2,6.73-7.1,10.6-4.53,17.76.63,1.75-1.59,3.66-4.26,3.26s-4.35,1.28-4.11,3.52c.94,8.81-3.15,15.8-7.07,23.12-3.47,6.49-6.91,13.07-9.95,19.7a36.94,36.94,0,0,1-5.47,8.55c-1.3,1.58-3.8,4-3.38,4.9,3,6.73-5.63,9.74-4.55,15.62-5.94,3.93-4.11,10-4.33,16.55,0-1.88,2.49.45,0-1a2.12,2.12,0,0,0-2,0c-2,1.77-3.91,3.67-5.78,5.59-.29.3-.45,1.28-.32,1.35,1.06.64,2.21,1.59,3.34,1.59C331.29,871,331.75,870.24,331.69,863.41Zm78-20.74c0-.64.25-1.54-.07-1.86a1.88,1.88,0,0,0-1.83,0c-1.42,1-3.2,2.24-.6,3.76.35.2,1.64-1.21,5-7.79a15.6,15.6,0,0,0-2.47,2.09,1.87,1.87,0,0,0,0,1.82,1.84,1.84,0,0,0,1.82,0,8.64,8.64,0,0,0,2-2.55C413.6,838,412.68,837.26,409.66,842.67Zm130,246.91c0-.64.25-1.54-.07-1.86a1.88,1.88,0,0,0-1.83,0c-1.42,1-3.2,2.24-.59,3.76.34.21,1.64-1.21,5-7.79a16.06,16.06,0,0,0-2.46,2.09,1.84,1.84,0,0,0,0,1.82,1.87,1.87,0,0,0,1.82,0,8.85,8.85,0,0,0,2-2.56C543.56,1084.88,542.63,1084.17,539.61,1089.58ZM370.67,905.72a3.45,3.45,0,0,0,4.23-2.83c.47-1.84.11-3.88,2.62-9.82a16.06,16.06,0,0,0-2.46,2.09,1.82,1.82,0,0,0,0,1.82,1.85,1.85,0,0,0,1.81,0,8.68,8.68,0,0,0,2-2.56c.09-.16-.83-.86-3.85,2.61a3.46,3.46,0,0,0-4.24,2.83c-.46,1.84-.1,3.88-.1,7.77v-1.93c-.64,0-1.47-.26-1.9,0-1.42,1-3.2,2.24-.59,3.77C368.52,909.73,369.82,908.31,370.67,905.72ZM871.23,693.46c.64,0,1.54.25,1.86-.07a1.88,1.88,0,0,0,0-1.83c-1-1.42-2.24-3.2-3.76-.6-.2.35,1.21,1.64,10,6.92a41.32,41.32,0,0,0,4.94-.5,3.11,3.11,0,0,0,1.4-1.35c-.67-.92-1.43-2.35-2.3-2.46-2.7-.31-5.5.15-8.2-.2-2.11-.26-2.81.11-2,2.13a2.52,2.52,0,0,0,1.35,1.45C876.45,697.44,878.4,697.7,871.23,693.46ZM565.6,1044.33c6.84-1.69,9.36-6.27,51.64-95.28-2.79.16-8.3,4.51-8.08,8.15.33,5.71-2.16,9.19-5.92,12.81-6.17,6-9.09,11.88-11.67,21a31.39,31.39,0,0,1-2.12,5.59c-4.51,8.93-8.86,18-13.85,26.61-1.23,2.14-1.1,3.93-1.32,6-.08.71-.29,1.72.07,2.08a2,2,0,0,0,2,0c2.27-2.61,4.79-5.12,6.48-8.09,3.68-6.45,5.31-14.16,11.87-18.81,1.3-8.56,9.77-12.77,12.49-20.74,1.25-3.67,5.88-6.13,8.79-9.31.85-.92,1-2.43,1.59-3.63,2-4.21,3.91-8.47,6.14-12.55.88-1.62,3.33-2.71.53-4.62-2.24-1.52-3.17-5-50,77.8-6.84,1.7-9.36,6.27-8.67,15,.68-2,0-2.74-2-2a2.62,2.62,0,0,0-1.43,1.3,8.07,8.07,0,0,0-.8,3.65c.15,1.16,1.1,2.21,1.7,3.31.84-.75,2.1-1.35,2.43-2.28C565.92,1049.15,565.6,1047.69,565.6,1044.33Zm341.54-92.45c3-3,7.84-5.65,8.61-9.16,1-4.66,3.84-7.09,6.39-10.27s8.16-4.92,7.11-9.7c-1.29-5.81,4.62-8.36,4.47-13.19,0-1.19-1.14-2.35-1.75-3.52a8.52,8.52,0,0,0-1.5.87c-1.05,1-2.46,1.82-3,3C923,920.77,917,930.52,907.9,938.12c1.74,5-4.68,6.61-4.43,11,.08,1.41,0,2.84,0,4.27,1.22-.5,2.44-1,0,1.93,0-.65.25-1.54-.07-1.86a1.88,1.88,0,0,0-1.83,0c-1.42,1-3.2,2.24-.59,3.77C901.33,957.38,902.63,956,907.14,951.88ZM739,998.71c3.16,3.74,6,7.07,12.07,6.83,15.11-.59,30.26-.14,45.39-.3a4,4,0,0,0,2.88-2.5c.42-2,.4-5.69-1.65-5.46-8.34.9-9.56-10.92-17.85-9.41C773.43,982.33,769.2,973.56,761,971c-10.37-3.22-8.93-15.62-17.5-19.56.57-7-5.85-9.18-9.17-13.5-2.15-2.81-4-.67-3.89,1,.29,4.42-2.93,6.24-5.32,8.68a16.27,16.27,0,0,0-3.84,7.1c-1,3.07-4.53,5.27-6.77,8-.81,1-1.07,2.42-1.58,3.65,2.17,0,4.87.82,6.38-.17,2.94-2,5-5.24,7.86-7.33,1.36-1,4.83-1.37,5.57-.51,2.52,2.94,6.2,2.92,8.94,4.67,1.84,1.18,1.75,5,3.3,7.08,4.3,5.75,3.39,5.58,3,14.83-.34,7.12-5.55,9.46-35-16.64v-1.93c-.64,0-1.46-.26-1.89,0-1.43,1-3.21,2.24-.6,3.76C710.74,970.38,712,969,739,998.71ZM765.4,715.12c-11.53,0-23.06.13-34.59-.09-3.52-.06-5.09,2.3-6.84,4.33-1.24,1.44-1.38,3.78-2.47,5.41-3.75,5.62-5.86,12-8.94,17.9s-5.68,12.52-11.47,17c-2.43,1.89-1,6.89-4.71,8.74-1.56,7.08-2.25,13.92,4.43,19.13a46.12,46.12,0,0,1,4.61,4.56c3.71,3.88,5.06,8.87,1.41,13-2.62,3-1.13,7.32-4.35,9.08-6.15,3.35-5.57,11.24-10.68,15.08-5.76,4.34-5.69,12.77-12.1,16.77-1.21.76-1.14,3.75-1.44,5.75s.51,4.23-1.69,5.81c-4.67,3.36-5.91,9.69-9.55,13.1-4.88,4.58-5.34,11.42-10.34,15.41.83,7-7.64,8.61-8.4,13.72s-4.43,7-6.89,10.22c-3.51,4.59-2.91,9.72,1.81,14.77,1.37,1.46,2.64,3.13,4.62.53,1.29-1.7,3.88-2.92,4.26-4.71,2.17-10,8.35-17.24,15.58-23.85l6.24-14.72c-.49-3.05,1.45-5,2.69-7.55,3.92-8,7.3-15.92,13.68-22.59,2.44-2.56,1.81-6.91,7.64-7.48,5-.49,7.15-1.84,9.17,1.38,2.14,3.41,2.32,7.71,6.07,10.53,5.19,3.92,6.33,9,2,14.69-5.3,7-6,16.85-13.74,22.46-.9.65-.84,2.51-1.53,3.63-3.18,5.15-4.16,11.62-9.23,15.64-4.48,3.55-4.52,9.84-9,13.67s-5,11.5-10.85,14.85c-4.67,2.69-4.86,8.13-7.57,12-1.72,2.46-.52,5,3.13,7.6,2.7,1.91,4.78.91,7.47-.74,4.76-2.9,4-8.6,7.43-12.24,5.68-6,13.85-10.2,15.41-19.49,6.35-4.24,8.87-13.19,17.94-14.22,2.16-.24,2.89-2.67,2.67-5-.13-1.43-.56-3.19.06-4.27a49.49,49.49,0,0,1,16.19-16.37c1.85-1.21,5.59-.26,8.18.59s1.92,3.89,1.42,5.7c-1.7,6.21,2.23,10.61,4.48,15.52,3.06,6.67,6.6,13.09,9.58,19.82,1.88,4.25,8.34,5.72,7.86,12-.08,1,1.68,2.14,2.67,3.14,6.1,6.13,11.69,12.93,18.49,18.17,7.46,5.75,17.47,7.61,24,15.29,1.33,1.56,4.84,1.34,7.32,3,4.84,3.34,9.45,2.52,13.1-1.08,5.13-5.06,10.32-10.07,15.26-15.32,4.23-4.5,8.47-8.59,11.25-14.76s9.69-10.42,14.77-15.53c.48-.49,1.28-1.12,1.23-1.62-.82-8.06,10.55-9.58,9.47-17.73,5.14-3.9,6.86-10.48,11-14.77,4.93-5.15,5.33-13.19,12-16.82,3.41-8.69,10.84-15.82,10.79-25.73,0-4.25,5.27-4.92,4.54-9-.82-4.56.49-8.37,4.31-11.18-1.21-4.28,3.43-5.93,4.15-9.06.93-4,.4-7.72,3.25-11.79C935,814,934,807.85,933.68,803c-.31-5.22,5.67-7.47,4.75-13.39-1.2-7.75-.53-15.83-.19-23.74a10.23,10.23,0,0,0-4-9.2c-2.74-2.19-5-5.68-8.06-6.6-5.13-1.52-9-5.72-15.48-5.09-4.79.46-6.61-8.9-13.68-8.38-1.45.11-3-3.73-4.7-3.91-6.15-.66-12.81,1.23-17.65-4.53-4.32,0-8.65.07-13,0-4.15-.07-7.89.19-11.82-3.14-2.59-2.19-8.41-2-12.27-.92-6,1.6-8.07-5.25-13.42-4.71-5.71.57-11.52.13-17.29.13-9.24-8.34-20.45-2.77-30.65-4.25C772.68,714.69,769,715.12,765.4,715.12Zm129.28,288.21c4.65,3.34,9.3,2.58,13.11,1.76,5.87-1.28,8.58,4.47,13.41,4.55,7.92.14,16-.89,23.74.32,6.46,1,10.69-2.54,15.48-4.77,7.44-3.48,15.25-6.93,20-14.16,1.81-2.74,1.52-6.44,4.6-8.95,6.57-5.34,7.54-14.24,12.32-20.78,3.28-4.48-1.25-11.91,5.74-14.93.77-5.37-2.52-11.62,3.4-15.89q.47-8.46.94-16.92c.19-3.53-1-8.57.83-10.29,5.31-4.92,3.11-10.63,3.42-16,.33-5.75-.75-11.68.29-17.26,1.28-6.93-3.53-11.71-4.54-17.71s2.75-13.1-4.09-17.77c0-6.27-7.45-10.57-4.58-17.57-2.88-3.13-7.46-5.85-8.33-9.47-2.08-8.67-10.27-11.5-14.71-17.72-.14-.2-2.13.55-2.91,1.24-1.58,1.41-3.89,2.93-4.18,4.68-.68,4.19,1.26,9.75-.83,12.55-2.85,3.83-3.62,7.23-3.8,11.57-.17,4.07,2.11,9-2,12.05-4.82,3.6.53,10.1-4.49,13.36-2.95,1.92-2.42,5.13-2,7.76.73,4.32-4.75,5.25-4.41,9,.24,2.72-.21,6.66,1.36,7.93,7,5.63-1.63,16.27,7.19,21.07.6.33.08,2.74.08,4.18,0,7.21-.19,14.42.08,21.62.12,3.21-2.39,5.08-3,7.4-1.83,6.78-2.74,13.64-9.39,17.87-.76.49-.65,2.6-.64,4,0,2.85.07,5.45-2.43,7.7-4.28,3.85-7.71,8.84-12.42,12-5.77,3.86-5.66,11.13-10.54,15.26-4.33,3.65-8,8.36-12.79,11.07-2.3,1.3-4.89,2.22-6.86,4.19C899.46,998.53,897.14,1000.86,894.68,1003.33ZM613.25,846.83a36.09,36.09,0,0,0,.06,4.44c.08.59.93,1.59,1.25,1.53a7.53,7.53,0,0,0,3-1.32c1.14-.86,2.66-1.84,3-3,1.62-5.91,4.18-12.11,8.09-15.89,4.78-4.63,5.15-11.67,10.38-15.33,5.46-3.81,4.27-11.77,10.49-15.35,2.43-1.39,2.71-6.12,4.86-8.53s1.89-5.05,2.26-7.8c.26-1.91.89-4.59,2.26-5.4,6.55-3.88,7.18-11.67,11.82-17,5.17-5.88,8.15-13.76,11.69-21,.85-1.74.37-4.3,0-6.41s-1.67-3.93-4.32-3.32c-1.28.3-3.19.7-3.57,1.59-4.77,11.2-10,21.94-17.69,31.69-3.95,5-4.84,12.41-9.83,17.46-5.29,5.36-7.17,12.86-10.51,19.4-2.56,5-5.89,9.13-9.17,13.54-3.08,4.13-4.19,9.72-6.39,14.56a8,8,0,0,1-3,3C612.92,837,612.7,841.8,613.25,846.83Zm-39,67.56c1.23-.51,3.32-.79,3.53-1.57.9-3.36,2.65-6.08,4.34-9,1.61-2.81,2-6.31,4.8-8.79.74-.66.37-2.71.25-4.1a2.13,2.13,0,0,0-1.24-1.56c-2.84-.51.7-2.16-1.5-.28-7.4,6.31-8.62,16.24-13.86,23.83ZM282.56,858.75c-.49,0-1.12-.11-1.46.14-2.17,1.61-2.1,5.92.1,7.12a1.62,1.62,0,0,0,1.44-.1C284.81,864.29,284.73,860,282.56,858.75ZM547.65,1076.2l-1.54-1.54a13.11,13.11,0,0,0-1.35,2.9c-.08.36.87,1,1.35,1.43Zm8.67-11.75-1.55-2.79c-.48.48-1.43,1.07-1.35,1.42a13.66,13.66,0,0,0,1.35,2.91ZM382.13,887.76l1.54-1.54a13.66,13.66,0,0,0-2.91-1.35c-.36-.08-.94.87-1.42,1.35Z"/></svg>