<svg id="Layer_1" data-name="Layer 1" xmlns="http://www.w3.org/2000/svg" viewBox="0 0 1200 1200"><title>BB_Artboard 47</title><path d="M328,602.25c4.74.16,5.82-4.63,9-6.63-1.37-8.33,9-9.75,9.88-17,.8-6.94,10.75-8.82,10-16.91,3.87-3.87,8.29-7.34,11.44-11.72,3-4.13,3.94-9.38,8.32-13,4.65-3.87,10-8.37,11.86-13.71,2-5.82,8.34-7.73,9.38-12.46a18.43,18.43,0,0,1,5.38-9.58c4.15-4.29,8.08-8.3,10.45-14.42,2.07-5.34,8.34-9,12.76-13.46-1.17-7.66,8.41-9.21,9-14.9.73-6.63,7.5-8.06,8.89-12.79,1.68-5.71,4.65-10.74,7.28-15.73S455,418,461.23,415c1.19-.56,2.81-2.55,2.57-3.44-2.34-8.72,4.44-12.49,9.07-17.44-1.69-6,5.36-8.34,5.63-14.25.22-4.66,8.39-6.2,9-12.53.42-4.36,6.11-6.71,5.24-11.86,5.55-2.54,2.58-10.53,8.29-13-1.32-8.31,8.16-10.08,10.15-16.93,1.77-6.06,4.2-12.67,9.73-17a4.66,4.66,0,0,0,1.62-1.66,118.92,118.92,0,0,1,8.72-17.41c2.92-5,6.73-9.56,9.82-14.7,4.15-6.89,4.8-15.72,11.37-21.09,6-4.9,6.1-14,13.21-18,3.56-9,7-18,14.92-24.29,3.21-13.88,14.85-23.24,19.55-36.44,1.43-4,7.88-6.87,8.11-10.51.38-5.82,7.21-8.29,5.72-14.22,4.27-2.61,4.13-7.68,6.37-11.42,2.62-4.37,6.81-8.65,7.24-13.26.47-5,6.33-6.88,5.29-12.11-.19-.93,2-3.37,2.42-3.23,8.34,3.24,13.45-6,21.59-5.17,7.15.73,13.74.77,18.12,7.44,1.45,2.21,4.3,1.44,6,2.44,4.52,2.7,9.35,5.71,8,12.47a31.7,31.7,0,0,0,0,4.68c-.19,4.6,1.22,10.36-1,13.52-3.43,4.84-4.08,11.42-9.53,14.94-4.68,3-2.93,10.23-8.18,13,1.15,4.71-2.28,7.09-5.14,9.55-3.16,2.71-3.43,6.22-4.56,9.9a88.69,88.69,0,0,1-10.69,23.56c-2.22,3.28-1.61,7.58-4.66,9.83-3.88,2.88-2.88,6.74-3.16,10.49a6.46,6.46,0,0,1-1.8,3.89c-11,10.51-14.14,25.45-21.53,38-7.77,13.18-11.18,28.9-23.16,39.62,2.21,6.13-7.37,8.15-5,14.34-3.12,3.39-7.91,6.36-8.92,10.29a16.82,16.82,0,0,1-6,9.24c-5.38,4.46-8.31,10.46-11.56,16.35-2.12,3.82-2.45,8.35-6.47,11.5-4.64,3.64-9.33,7.6-10.43,14.4-.24,1.5-5.79,1.6-7.41,3.57s5.41,2.71,2.5,6.42c-3.19,4.07-7.85,6.56-8.73,12.92-.52,3.79-7.36,6.58-8.16,10.48-1.29,6.29-8.46,7.94-9.15,12.57-.81,5.46-4.46,7.69-7,11.29-3.42,4.8-5.53,10.25-9.63,14.91-3.73,4.25-6.64,9.68-9.95,14.55s-6.26,9.91-10.08,14.57c-3.08,3.75-4.07,9.17-6.16,13.77-1.8,4-5.86,6.82-4.83,12.16.41,2.12-16,33.23-17.42,34.85s-4.82,3.45-4.71,5c.73,9.43-7.22,14.38-10.16,21.69-1.59,4-4.51,6-6.68,8.95-.89,1.23-3,2.39-2.88,3.42.57,5.65-2.72,9.85-4.26,14.66-1.6,5-7.25,8.07-6.09,13.94-5.43,2.62-2.59,10.44-8.21,13.14-.67.32-.45,2.9-.31,4.4.3,3.26-.24,6-3.06,8.15-4.5,3.43-5.57,8.06-6.88,13.63-1.94,8.21-7.47,15.55-11.35,23.33-6.14,12.29-12.06,24.7-18.35,36.91-1,2-2.23,3.56-2.75,5.94C363.72,737.19,359,746,355,751.12c-1.35,1.71-3.7,4.07-3.3,5.49,1.76,6.22-5.51,9.65-4.61,14.47,1.19,6.36-4,9.46-5.24,14.46A38.33,38.33,0,0,1,334.9,799c-2.19,2.84-1.81,5.58-2.3,8.51-.34,2.07-1.09,5-2.59,5.8-6,3.33-5.78,10.48-9.92,14.73-1.49,1.53-1.84,2.45.37,3.32a12.16,12.16,0,0,0,4.44.55c.63,0,1.73-.59,1.81-1.06,1.87-10,10.81-14.41,16.69-21.21,4-4.67,10.74-8.39,12.15-13.64,1.66-6.17,6.1-8.65,9.43-12.55,4-4.74,10.7-8.16,12.76-13.49,4.18-10.76,13.4-16.45,20.35-24.37,5.45-6.2,7.63-14.56,14.72-19.84a87.32,87.32,0,0,0,16.51-16.53c3.08-4,3.66-9.72,8.46-12.86,5.27-3.45,7-9.44,10.18-14.46,2.85-4.5,7.47-7.89,11.31-11.76-.87-7.76,6.58-9.82,10.09-14.55,5.46-7.34,14.43-11.59,18.09-20.65,3.3-8.18,11.63-12.17,16.52-19,2.92-4,4.64-9,6.85-13.53.62-1.29,1.1-3.88,1.55-3.86,10.45.46,6.92-12.77,14.64-14.81,1.82-6.88,6.68-11.61,11.6-16.28-.79-5.53,3.07-8.82,6.73-11.15,6.32-4,6.44-11.83,11.46-16.5s10-9.9,15-14.87c-1-6.7,5.88-8.53,8.07-13.08,1.89-3.92,4.95-7.74,5.63-11.62.93-5.32,3.82-4.9,7.4-6.33,2.9-1.15,7.08-4,6.94-8.47-.14-4.89,6.89-6.66,4.82-12.11,5.66-2.47,3.37-9.88,8.23-13.05,3.92-2.54,5.64-6.59,6.88-11.18.94-3.47,8.75.62,8.16-5.49s1.74-10.34,6.25-13.91c1.21-.95,3.25-2.38,3.1-3.29-1.14-6.92,2.13-11.3,6.6-16.24,3.83-4.24,5.13-10.56,10.12-14.5,3.46-2.73,2-8.92,6.71-11.21-.78-4.47,2.11-7,5-9.68,1.66-1.57,4.48-3.5,4.37-5.1-.68-9.75,5.5-16.51,9.52-24.29,3.71-7.19,7-14.31,12.25-20.85,4.77-6,7.3-14,11-21.11,2.65-5.06,4.6-11,8-15.28s4.71-10,8.23-12.89c6.26-5.12,6.75-13.45,12.85-18.44,5.82-4.77,5.94-13.45,10.4-18.9,3-3.7,1.89-8.79,6.16-11.78a17.75,17.75,0,0,0,6.62-8.86,63.49,63.49,0,0,1,8.11-15.46c2.74-3.84-.68-10.84,5.28-14.13.18-6.17,4.59-10.59,6.76-16s5.74-10.14,7.48-15.64c2.71-8.62,12.53-7.43,17.15-13.22,8.11.72,17-2.59,23.83,4.69,7.6.43,9.3,5.69,11.43,11.91a33.08,33.08,0,0,0,4.87,9.54c3.14,3.83,3.48,5.85-.46,8.55.8,7.55-2.31,13.44-8.33,17.58-4.77,3.26-5.85,8.53-8.18,13.08-11.18,21.92-21.74,44.16-33.53,65.74-2.46,4.52.4,9.75-3.14,12.68s-2.16,7.69-5,9.65c-4.28,3-2.5,8.4-6.31,11.72-4.42,3.85,1.44,12.81-6.78,15.86-5.8,2.14-3,9.91-8.15,13.16-1.9,1.2-.42,5.84-3.47,7.76-10.86,6.86-12.48,20-19.89,29.25,1.13,8.83-10.14,10.55-10.64,19.17-.27,4.79-8.36,6.36-9,12.54-.58,5.12-5.53,7.14-8.58,10.45-3.2,3.46-6.73,6.43-5.44,11.86.63,2.61-1.08,4.25-2.75,5.88-3.34,3.29-6.58,6.68-10,9.92a29.43,29.43,0,0,0-7.1,11.15c-1.23,3.13-2.4,7.38-4.7,9.62-5,4.85-7.79,10.88-11.5,16.43-2.47,3.68-5.88,6.17-6.93,11.31-1,4.68-7.91,6.26-9,12.68-.68,3.84-7.21,6.47-8.35,10.44s-4.53,6.71-4.81,9.63c-.43,4.48-3.23,6.64-5.1,9.77-.35.57-.1,1.53,0,2.31a6.15,6.15,0,0,0,.42,2.16c1,2.06,2.09,2.15,3.32.6,1-1.22,2.21-3.2,3.28-3.17,5.51.18,9.83-1.28,14.77-4.36,4-2.45,10.72-1.11,16.08-.33,6.61,1,12-2.73,13-7.19,1.14-5.29,4.62-7.61,7.11-11.25,2-3,2.63-7.32,5.2-9.42,6.17-5,9.19-12,11.37-18.81,1.22-3.82,5.68-5.22,5.2-9.64-.52-4.72,4.56-5.82,6.46-9,2.59-4.38,5.25-8.74,7.47-13.31s2.78-10.43,6.07-13.74c4.93-5,7.32-11.24,11.43-16.47,2.78-3.54,6.94-6.09,6.53-11.39,4.7-2.32,3.16-8.22,6.6-11.35s2-8.95,6.66-11.28,3.6-8.46,6.81-11.09c3.48-2.86,2.36-6.89,4.58-10,3.28-4.66,5.46-10.19,7.54-15.56,2-5.17,7.79-6.84,9.73-12.4,2.11-6.06,6.67-11.64,8.53-17.49,1.74-5.44,8.51-9.41,5.61-16.75-.55-1.4,3.43-4.54,5.24-6.93,1.33-1.77,3.52-3.6,3.6-5.47.19-4.74-.06-9.32,4.7-12.18-.79-4.45,2.1-7,4.87-9.7-2.41-6.11,7.35-8.11,4.76-14.5-2.1-5.17,5.45-7,4.71-12.1-.42-2.91.32-5.57,2-8.54,3.51-6.26,8.57-12.29,7.3-20.37,4.92-3,3.5-9.72,7.81-13.22,2.36-1.91,5.45-4.18,6-6.79,3.26-14.38,14.43-22.67,23.86-32.32,2.52-2.58,10.2-3.41,12.57-.93,4.24,4.42,9.6,6.9,14.49,10.21,5.26,3.57,11.85,7.73,10.37,16.62-1,5.85,1.66,12.56-4.83,16.79-2.86,12.17-11.48,21.71-15.4,33.48-.85,2.57-3.87,4.46-3.38,8,.91,6.5-4.51,10.6-6.52,16-1.49,4-5.7,6.35-7.9,10.75-5.82,11.65-10.64,23.93-18.36,34.61,1.53,8.1-3.54,14.09-6.71,20.65s-6.37,13-10,19.3c-2.55,4.43-3.2,10.07-8.2,13-3,1.78-3.74,4.65-3.29,8,.21,1.52.61,4-.13,4.51-11.24,7.59-11.19,22.79-21.34,31.19-3.25,2.7-2.13,8.77-6.61,11.23,1.15,4.72-2.28,7.1-5.14,9.56-3.15,2.71-5,5.73-4.24,10l-7.32,15.71c-5.69,6-13.73,10.67-11.6,21-13.33,10.59-14,29.34-26.33,40.77-2.9,2.7-3.1,8-6.19,11.44-1.79,2,1.3,6.17,4.3,6.2,4.69,0,9.41-.35,14,.1,6.19.6,10.39-.72,10.44-7.9,5.54-4.24,8-10.7,11.79-16.15,3.23-4.58.17-9.87,4.34-14.85,5.37-6.4,7.44-15.5,11.28-23.26,2-3.94,5.86-6.94,4.66-12.16-1.14-5,6.51-6.75,4.65-12.11,4.21-2.65,3.42-8.45,6.53-11.24,3.68-3.3,1.66-9.25,6.46-11.51,1.28-11.55,6-21.35,14.91-29-1.6-5.33,5.2-7.28,4.87-12-.21-2.94,1.39-4.63,3.84-4.49,5.86.35,12.47-2.44,17.12,4.12,1,1.36,4.65.59,6,1.91,2.43,2.3,5,4.51,8,3.05,2.66-1.29,6.58-4.42,6.37-6.34-.67-6.1,7.26-8.31,5.52-14.32,5-6.46,9-13.58,13.67-20.23,4.54-6.43,7.17-14.15,12.31-20.7,3.55-4.52,6.41-9.79,10-14.54,3.39-4.43,3.74-11.19,7.13-15.62a48.64,48.64,0,0,0,7.94-15.49c1.16-3.89,5.69-5.24,5.22-9.64-.51-4.72,4-6.28,6.59-8.89a9.13,9.13,0,0,0,2.68-8.31c-.52-3.57,2.17-5.35,3.61-7.93s.32-6.05,1.26-8.84,3.69-4.83,4.33-7.53c.56-2.35.9-4.79,3-5.77,7-3.32,5.57-12.4,11.52-16.43,1.9-1.29,3.25-3.37,5-4.89,2.92-2.49,12.31-2.9,17.31-.28,6.62,3.47,13.62,6.61,18,13.2a8.58,8.58,0,0,1,1.61,4c.18,5.47.08,10.94.08,16.41-5.63,2.49-3.31,10-8.28,13-5.6,3.3-5,10.85-10,14.62.43,5.32-3.43,8.1-6.6,11.34-1.53,1.58-4.18,2.75-3.27,5.64,2.11,6.75-5.66,10.44-5,16.68-4.66,2.34-3.58,8-6.57,11.37s-8.18,5.26-7.14,11.06c.79,4.42-1.37,7.33-4.52,9.86,1.66,5.35-5,7.27-5,12a7.13,7.13,0,0,1-1.7,3.93c-3.19,4.07-9.27,6.5-7.56,13.27,1.33,5.25-6,6.91-4.76,12.14,1,4.2-.92,7.37-4.18,10-1.82,1.46-4.79,3.32-4.75,4.93.18,6.59-1.66,11.41-6.61,16.29-3.88,3.83-5,10.3-8,15.27-1.89,3.21-5.06,5.66-7.13,8.8-1.56,2.36-1.6,6.08-3.56,7.77-3.56,3.07-3.27,6.61-3.35,10.47,0,1.36-1,3.89-1.46,3.87-7.09-.38-6.84,6.14-9.78,9.74-3.86,4.72-9.56,8.18-7.57,15.76.25,1-1.4,2.46-2.27,3.65-2.6,3.55-7.18,5.34-7.32,11.17-.08,3-5.66,5.14-4.33,9.78-5.23,4.46-4.82,12.85-11.49,16.4-1.16.62-2.67,2.58-2.43,3.52,1.95,7.5-4.74,10.66-7.17,15.89-3.7,7.94-9.6,13.44-15.31,19.42-1.08,1.13-.68,3.22,1.09,3.12,4.55-.27,7,2.4,9.69,5.15,11.55,11.65,22.77,23.68,35,34.62,5.81,5.21,4.56,10.94,4.63,16.92a6.21,6.21,0,0,1-1.69,3.92q-6.45,6.79-13.23,13.28c-2.68,2.58-7.22,1.08-9.81,4.87-2,2.91-4.42,5.91-9.1,6.26-2.46.19-5.33,3.13-6.86,5.56-2.45,3.89-6.84,2.69-9.82,4.85-5.4,3.92-11.49,6.57-16.55,11.33-3.94,3.7-10.76,4.12-15.61,7.11-3.89,2.39-6.93,6.28-10,9.81-2.25,2.6-4.82,3-8,3.5-2.63.37-3.49,6.73-1.28,7.66,4,1.72,8.3,2.91,11.52,6.12,10.89-2.4,20,6.83,30.87,4.71,4.21-.83,6.89,1.68,10.16,3.91,2.78,1.88,7.25,1.09,10.82,2,2,.55,3.66,3,5.62,3.26,5.92.66,12.59-1.76,16.79,4.83,6.25,0,12.51.22,18.74-.08,3.45-.17,5.71,1,8.06,3.39a30.22,30.22,0,0,0,9,6.44c11,5.18,12,16.24,3.4,25.93-1,1.16-2.3,2.13-3.28,3.34-1.89,2.34-1.11,7.24,1.68,7.71,8.86,1.5,16.09,6.81,23.71,10.64,8.38,4.21,17,8.2,25.2,12.85,7.53,4.27,16.14,6.89,23.08,11.89,4.45,3.21,9.9,0,12.68,3.21,3.31,3.86,8.44,2.84,11.64,6.34,3,3.25,8.94,2,11.23,6.71,7.61-3.38,12.06,5.75,19.13,4.83a8.49,8.49,0,0,1,6.35,1.65c7.39,5.16,15.42,8.25,24.92,7.84,9-.39,25,9.61,26.51,17.65,1,5.36,3.31,9.64,5.06,14.41.76,2.07,1.12,5.78,0,6.79-4.75,4.13-3.28,12.34-9.4,14.85s-10.84,7.81-18.18,7.13c-4.65-.43-9.56.75-14-.28-6.23-1.43-9.45,4.1-14.51,4.87s-11-2.09-15.05,3.33c-.43.58-1.15,1.3-1.76,1.32-4.68.11-9.37-.08-14,.1-4.45.16-8.6-.55-12.9,3.18-2.77,2.4-8.76,1-13.28,1.48-5.13.51-11-2-14.92,3.79-.58.86-2.78.78-4.24.86-6.91.34-13.82.6-20.73.88-5.38,7-13,3.24-19.52,3.6-4.93.27-6.61,6.22-12.15,5.1-4.5-.91-9.33-.18-14-.18-5.79,7.86-14.23,3.54-21.49,4.73-5,.81-8.32,6.21-14.51,4.84-4.47-1-9.35-.49-14-.11-4.38.36-6.69,6-12.16,4.76-3.73-.82-8.11-1.1-11.59.12-3.22,1.12-5.63,4.55-8.39,7,5.94,1.54,1.85,11.09,8.9,11.41a9.73,9.73,0,0,1,8.62,6.66,24,24,0,0,0,7,11.21c2.78,2.7,7.53,5.5,7.63,8.39.25,7.51,7.66,9.21,9.87,14.82,2.13,5.36,4.19,11,7.55,15.57,4.68,6.38-2.59,16.09,6.42,20.81-4.68,2.84-4.29,7.41-4.92,12.1-.65,4.9-4.72,8.63-4.93,14.47-.15,4.57-5.31,8.63-4.44,14.52.23,1.53-2.6,3.45-3.92,5.27-1.74,2.41-5.48,3.47-5.18,7.21.39,4.87-6.76,6.67-4.78,12.1-3.31,3.32-6.53,6.73-10,9.92-8.86,8.25-16,18.45-27.8,23.39a7.31,7.31,0,0,0-4.5,7.44c.09,1.17-1.87,3.64-2.13,3.54-10.56-4.1-13.92,7.87-21.89,9.81-4.84,1.17-8.86,6.36-14.49,4.33-6.4-2.32-8.69,5.72-14.52,4.92-4.6-.63-9.35-.13-14-.13-5.61,9.52-18.63-.14-24.24,9.38l-32.8,0c-5.74-8.16-14.23-3.92-21.52-4.52-7.75-.63-15.66.38-23.4-.36-3.75-.36-4.53,7.58-8.81,2.62-3.14-3.63-7.09-2.15-10.76-2.35-3.9-.22-7.84.23-11.71-.16-2.06-.21-4.11-1.38-6-2.45-7.85-4.51-15.71-8.22-25.33-7-6.14.8-12.48.15-18.73.15-4.22-6.5-11.07-3.51-16.74-5s-10.19-5.66-16.9-4.62c-6.1,1-12.47.21-18.72.2a14.31,14.31,0,0,1-6.29-1.81c-16-7.68-16.13-7.52-29.67-7.56-3.9,0-7.81.08-11.71,0-1.45,0-3.31-.09-4.24-.94-5-4.66-9.24-10.6-17.67-8.45-6.33,1.61-10.06-6.58-16.83-4.74-3.69,1-4.89-3.18-7.21-5s-3.87-4.62-7.63-4.33c-8.43.67-12.08-3.86-13.63-11.87-.68-3.47-3.1-.26-4.73.74-4.12,2.52-6.07,3-7.83.2-4-6.28-11.7-6.61-16.47-11.47s-8.94-10.22-16.22-11.81c-1.93-.42-4.66-3-4.78-4.8-.41-6.17-4.91-9.21-8.54-12.94-6-6.16-13.76-11.27-17.76-18.5-4.18-7.55-9.59-13.45-15.42-19.29-2.06-2.06-1.6-4.3-1.39-6.44a8.47,8.47,0,0,0-3.49-8c-3.58-2.9-5.29-6.79-7.09-11.1-1.41-3.37-3.46-6.17-3.74-10.23-.38-5.79-6.94-9.88-4.73-16.89.7-2.22-5.09-4.07-7.36-2.26a26.62,26.62,0,0,0-3.33,3.3c-3.14,3.57-6.35,6.72-11.81,5.58-1.28-.26-3.49.21-4.09,1.12-3.3,5-8.28,3.09-12.7,3.48-4.14-5.69-14.53-4-16-11.44-1.21-6.19-5.28-9-8.76-12.83-1.37-1.5-1.53-2.16.47-3.4,5.63-3.48-2.49-5.71-.92-8.16a61.85,61.85,0,0,0,4.13-7.69c1.77-3.88,4.06-7.64,5.74-11.69.82-2,3.62-2.69,3.34-5.69-.35-3.88-.71-8,.13-11.66.6-2.65,4-3.81,4.67-7.45,2.26-13,2.74-13.08-4.39-20.15-4.9-4.87-7.19-11.14-9.61-17.15-1.53-3.78-1.65-5-5.33-2.05-2.15,1.75-6,1.64-7.77,3.56-5.21,5.64-11.64,2.4-17.47,3.3-4.26-6.1-14.62-4.29-16.77-13.69-1.29-5.62-6.5-10.24-4.53-16.84-7.18-5.22-5.49-10.17.71-14.57,3.51-2.48,2.94-7,5.16-9.52,2.85-3.25,3-6.55,3.8-10.29,1.05-4.84,2.71-10.65,6.19-13.59,5.21-4.42.05-11.3,4.78-14.54,5.61-3.83,1.16-10,4.57-14.7,3.25-4.48,7.71-9.73,7.33-15.46-.43-6.64,7.25-10,5.1-16.86-1.15-3.64,4.55-5.67,4.11-7.37-1.67-6.45,7.85-8.2,5.32-14.44,7.51-3.13,2.57-11.25,6.48-16.11,3.14-3.9,5.1-8.77,7.42-13.28,2.64-5.15,5.13-10.37,7.63-15.59,2.19-4.56,3.89-9.41,6.54-13.68,5.78-9.31,6.58-20.48,12.86-30,5.42-8.2,9.66-17.8,13.44-27.12,3-7.32,3.89-15.63,8.7-22.14s5.49-15.07,11.24-21.29c2.09-2.25.06-8.58,2.19-10.48,3.81-3.38,1.88-8.89,6.23-11.8,2.94-2,.83-7.61,5.09-9.49.48-8.3,4.11-15.5,8.36-22.3s5.41-15.18,11.32-21.2c1.17-1.19.17-4.49,1.53-9,.46-1.41-.58-.78-1.3.11a1.4,1.4,0,0,0,2,2,9.5,9.5,0,0,0,2.13-2.77c.1-.17-.9-.94-2.81.67-5.36,2.6-10.37.12-11.06,7.79-.36,4-4.05,7.72-10.1,8.43-.34,0,.63.27,1-.08a2,2,0,0,0,0-2c-1.09-1.54-2.43-3.46-4.08-.64-.22.37,1.32,1.77,3.08,2.7,1.23,7,1.66,13.84-5.5,18.41-5,3.15-7.14,10.34-14.68,10-.68,0-2.24,2.45-2.08,3.57.88,6.05-1.81,10.13-6.11,14-5.23,4.67-9.5,10.52-15.08,14.65-7.06,5.24-7.58,14.61-14.61,20C238.7,561.38,233,568,227.19,574.32c-3.46,3.76-3.43,9.78-8.3,12.95-7.22,4.69-9.52,11.64-8.08,20,1.35,7.8-7.25,13.24-5.17,21.25-3,5-7,9.72-8.56,15.14-1.47,5-.18,10.83-.44,16.28,0,1-1.67,1.93-2.56,2.89a40.13,40.13,0,0,1-2-3.87c-.26-.68.21-1.67-.09-2.31a4.56,4.56,0,0,0-5.49-2.78c-1.35.34-2.51,1.44-3.76,2.19,8.45,6.52,2.67,15.94,5,23.65.78,2.6,4.76,3.73,4.4,7.55s-5.71,5.09-4.85,9.77c.55,3,1.42,7.33-.12,9.15-7.46,8.86-3.77,19.08-4.3,28.68-.23,4.2-1.25,7.27-4.39,10-3,2.54-6.16,5.09-8.2,8.3-5.46,8.58-13.66,8-22.27,8.92-6.53.73-8.31-7.78-14.49-5.13-3.87-3.85-9.12-7.1-11.13-11.76-1.5-3.45-4.61-6.61-4.9-9.53-.67-6.65-2.38-14,1.54-20.17,1.76-2.76,2.86-5.07,2.78-8.27-.15-7,0-14,0-21.06,0-13.5-.64-14.94-14.42-22.8-4.12-2.36-8.37-4.5-8.8-9.23s-5.42-6.56-5.19-12.1c.76-18.69,1-37.47-.09-56.13-.36-6.35,7-7.93,5.37-14.54-1.45-5.88-.3-12.4-.3-18.64,0-5.46-2-12.09.36-16.17,8.07-13.91,3.59-28.56,3.91-42.75.17-7.23,7.09-11.33,5.44-19.18-1.57-7.47-.34-15.53-.34-23.33,0-7-.06-14,0-21.06.07-6,6.9-9.69,4.94-16.86-1.39-5.08.32-10.92-.4-16.29-1.19-8.8,4-18.64-4.07-26.36,1.31-3.23,4.83-5.06,4.38-9.57-.69-6.95,0-14-.25-21-.2-4.89,6.81-6.64,5-12.18,0-.11,3.85-1.33,5.79-2.27,1.79-.86,4.51-1.62,1.38-4.3a7.62,7.62,0,0,1-2.65-3.53c-.52-2.26-.26-5.06,2.17-5.92,1.92-.68,5.08-1.37,6.16,1.3,1.37,3.42,2,6.87,4.87,9.8,1.73,1.75-5.55,3-2.44,6.32,2.31,2.45,3.66,4.7,3.24,8.1a58.68,58.68,0,0,0,0,7H130.1c-.35,0,.62.27,1-.08a2,2,0,0,0,0-2c-1.09-1.54-2.42-3.46-4.07-.64-.22.37,1.31,1.77,3.07,2.7,1.56,1.29,1.86,3.54,2.63,3.71,2.81.64,3.28-1.43,3.11-3.71,1.33-.55,3.46-.77,3.86-1.71,1.95-4.66-1-11.05,5.1-14.28.55-5.24-.64-11.8,2.09-15.38,3.4-4.48,2.85-8.55,3-13,.2-9.36.81-18.81-.19-28.07-.72-6.73,3.32-11.27,4.67-16.89,1.25-5.16.26-10.86.27-16.33q0-9.34.09-18.69c8.21-6.67,3.55-15.82,4.55-23.86s-2.12-16.59,4.44-24.08c1.93-2.21.29-7.54.29-11.45,0-32.78.17-65.57-.12-98.36-.07-7.35.82-13.59,7.26-18.17,2.51-1.78,4.28-4.57,6.73-6.47a11.32,11.32,0,0,1,5.89-2.56c7-.31,14-.23,21.08-.08,4.37.09,10.8,5.22,15.73,11.94a15.69,15.69,0,0,0,3.3,3.31c4.78,3.53,5.94,8.16,5.89,14-.27,32-.11,64-.16,96,0,3,.65,7.48-1,8.76-4,3.17-2.79,8.48-6.31,11.68-4.64,4.21,3.94,4.71,2.88,8.93-1.11,4.4-.25,9.3-.25,14V267c-6.6,4.19-4.23,10.84-4.75,16.78-.45,5.21-5.9,6.8-8.29,10.63-.34.55.76,2.91,1.44,3,2.27.39,4.67,0,7,.19,2.95.26,4.12-1.35,4.6-3.83,1-5.08-2.28-10.69,2.61-15.36,4.59-4.38,1.13-10.34,2.09-15.49,7.59-3.73,2.18-12.87,7.72-18,4.22-3.91-.87-12.55,6.34-16-2.84-6.83,5.23-11.24,4.33-16.74-1.14-7,6.56-9.86,5.45-16.91-.86-5.4,7-9.93,4.28-16.73,3.73-3.2,4.85-7.12,5-12.11.08-3.29,2.72-6.59,4.44-9.75,2.86-5.27,6.75-10.43,4.56-16.78-2.4-7,4.25-11,4.68-16.84.46-6.21.08-12.48.14-18.72,0-.69.25-1.76.71-2,6.47-3.18,2-10.19,5.05-14.31,1.86-2.49,3.68-4.42,3.79-7.92.06-2.28,2.77-3,5.3-3,3,.06,5.83.48,8.57-2,2.45-2.25,3.51-6.73,8.15-6.14,3.07,6.59,10.62,1,14.24,5s10,3,13.41,7.72c.78,1.11,6,0,5.69,2.07-.85,5.58,5.36,7.32,5.36,12,0,6.25-.1,12.5,0,18.74.12,4.79-6.62,6.68-4.88,12-4.75,2.86-5.25,7.46-4.44,12.16.9,5.2-3.06,8.18-4.5,12.23s0,9.29-1.26,13.57c-.74,2.54-3.63,4.25-3.87,7.79-.45,6.57,1.79,13.15-3.73,19.65-3.86,4.56,2.17,13.8-5.26,18.83-.74.5-.61,3.09-.15,4.47,3,8.93-7.83,14.94-4.9,23.78-4.73,2.85-5.27,7.44-4.48,12.16,1.51,8.91-3.58,15.6-7.18,22.81-.15.32-1.48,0-3.35,0,1.09.73,1.88,0,1.06-2.16a2.87,2.87,0,0,0-1.42-1.56,8.79,8.79,0,0,0-3.95-.86c-1.25.17-2.39,1.19-3.57,1.84.81.91,1.46,2.27,2.46,2.63,1.3.46,2.88.11,5.42.11.39,5.09,2.35,10.21-2,15.2-4.81,5.57,1.93,15.53-6.32,20.66,3.3,7.56-5.44,12.06-4.83,19.11.32,3.57,1.57,7.78-2.23,10.69S282.08,347,281,350.46c-.85,2.7-3.69,4.81-4.37,7.5-.9,3.53.91,7.71-3,10.48-3.27,2.29-.65,7.64-4.9,9.74-.95.47-1.47,2.54-1.55,3.91-.32,6,1.32,12.43-4.75,16.75,2.71,6.79-3.53,11.07-4.65,16.77-.66,3.4-7.88,6.52-.58,10.41.06,0-.24,1.36-.62,1.54-2.62,1.2-6.79,1.64-7.55,3.51s4.54,3.33,4.1,7.15a80.8,80.8,0,0,0-.07,9.34,3.74,3.74,0,0,0-4.58,3.06c-.5,2-.11,4.2-.11,7.36,0,.35.27-.62-.08-1a2.07,2.07,0,0,0-2,0c-1.54,1.09-3.46,2.42-.64,4.07.37.22,1.77-1.31,2.7-3.08a5.57,5.57,0,0,0,4.58-4.1c.5-2,.11-4.2.11-6.32,6.77-1.29,9.35-7.67,13.78-11.72s10-7,10.38-14.44c.12-2.32,4.12-4.4,6.29-6.64,5.2-5.38,10.28-10.48,13.67-17.7,2.81-6,10.35-9.56,14.18-15.28,3.28-4.89,5.81-10.13,10-14.59s10.08-7,11.52-13.88c1.34-6.4,9.29-8.44,11.54-13.9,3.67-8.86,10.33-14.84,16.88-21,3-2.81,3-7.55,5.13-9.44,8.15-7.15,10.42-18.65,19.55-24.88,5.12-3.48,8-8.76,10-14.54.94-2.72,1.47-6.15,3.41-7.85,5.27-4.59,7.33-11.35,11.71-16.17,3.7-4.07,5.55-8.7,7.94-13.22a160.51,160.51,0,0,0,7.38-15.65c2.23-5.59,10.46-7.25,9.45-14.81,5.16-2.82,4.25-9.19,7.77-13.26,2.67-3.09,3.68-7.71,6.1-11.45,2.68-4.15,2.78-10.31,6-13.68,3.4-3.56,3.12-8.21,6.11-11.76a33.52,33.52,0,0,0,6.59-13.51c1-4.46,6.72-6.63,5.18-11.94,7.27-3.23,3.08-11,6.3-16.17,3-4.75,7.65-9.66,7.25-15.52-.46-6.56,7.26-10.06,5-16.81-.89-2.65,1.81-3.89,2.82-5.82,3-5.75,4.8-12.29,8.56-17.43a62.89,62.89,0,0,1,15-14.39c2.06-1.41,5.24-1.91,7.72-3.83,3.19-2.47,8.24-2.48,10.71-.36,5.15,4.4,10.68,7.91,16.28,11.61s11.11,8.34,9.44,17.12c-.58,3,7.09,6.63,4.09,9.38-6.59,6-1.48,17.33-10.82,21.51-1.24.56-2.94,2.37-2.8,3.37,1.7,12-10.59,19.28-10,31.25.22,4.28-4.42,8.93-7.14,13.21-2.35,3.69-1.91,9-6.49,11.36,1.32,4.64-4.48,6.9-4.28,9.73.39,5.42-6,7.06-5.13,12.13.7,4-2.13,6.82-3.55,10.2-7.58,18-17.89,34.62-25.39,52.65-1.39,3.33-4.71,6-3.79,10.09,1,4.66-4.93,6-4.6,9.76.44,5.06-6.66,6.76-4.82,12.11-3.13,3.38-7.26,6.3-9.08,10.28-1.74,3.8,1.34,9.38-3.85,12.43-1.29,13.54-9.42,24.21-15.29,35.77-4.93,9.7-7.71,20.67-16.09,28.44-.57.53-1.6,1.11-1.59,1.65.27,10.86-8.62,18.42-10.22,28.51a28.74,28.74,0,0,1-2.77,8.26c-2.77,5.8-8.26,10.82-6.76,18.25a3.21,3.21,0,0,1-.17,2.25c-3.5,4.71-9.71,7.1-9.54,14.93.1,4.64-2.51,10-5.5,13.86-4.12,5.29-4.82,12.86-11.29,16.54a4.34,4.34,0,0,0-1.48,3.89c2.2,6.2-2.83,10.27-5.17,14.27-5.56,9.48-6.12,20.66-12.75,30-5.66,8-8.37,18.28-13.6,27-1.07,1.78-1.05,4.25-1.39,6.42-.24,1.5.35,3.85-.44,4.42-7.72,5.54-10.21,12.81-9.28,22.14.22,2.1-3.19,5.11-5.57,6.81-4.65,3.31-2.62,10.53-8.17,13.07v11.69a3.74,3.74,0,0,0-4.58,3.06c-.5,2-.11,4.2-.11,7.36,0,.35.27-.62-.08-1a2.05,2.05,0,0,0-2,0c-1.54,1.09-3.47,2.42-.65,4.07.37.22,1.78-1.31,2.7-3.08a5.57,5.57,0,0,0,4.58-4.1C328.41,606.58,328,604.37,328,602.25ZM865,742.88h2.09c0-.7.27-1.59-.05-2-1.09-1.55-2.43-3.47-4.08-.65-.22.37,1.31,1.77,8.43,5.43a16.7,16.7,0,0,0-2.26-2.67,1.4,1.4,0,0,0-2,2,9.5,9.5,0,0,0,2.77,2.13C870.08,747.15,870.85,746.15,865,742.88Zm-35.81-11.32c-.25-.51-.4-1.39-.76-1.48-2-.53-4-.75-6-1.29-2.22-.6-3,.05-2.15,2.2a3.17,3.17,0,0,0,1.41,1.57c3.21,1.59,7,1-8.13-3.74a19.91,19.91,0,0,1,4.44.06c2.28.52,3-.09,2.2-2.27-.24-.64-.92-1.51-1.46-1.56-3.52-.29-7.06-.45-10.6-.46-.53,0-1.57,1.34-1.5,1.44.72,1,1.47,2.32,2.51,2.68C810.45,729.16,812.05,728.82,829.19,731.56ZM651.49,576.34c.74-2.21-.18-3.26-2.3-2.14-2.54,1.34-3.5,5-7.35,4.68-2-.19-5,.28-3.22,3.25a12.86,12.86,0,0,0,6.48,5.17c1,.33,3-3.14,4.83-4.53,2.36-1.8,1.24-4.18,4.26-12.95a17.24,17.24,0,0,0-2.67,2.26,1.4,1.4,0,0,0,2,2,9.59,9.59,0,0,0,2.13-2.76C655.72,571.13,654.73,570.37,651.49,576.34ZM515.69,791.93c5.75-5.75,10.69-10.48,15.39-15.46,4.07-4.31,3.83-11.57,9.95-14.62,3.23-1.62,1.56-6,3.45-7.84,4.39-4.36,5.44-10.34,8.44-15.34,2.58-4.3,3.4-9.88,6.56-13.56,3.94-4.6,6.57-9.94,10.08-14.53,3.66-4.78,5.72-11.1,9.89-14.51,5.78-4.74,5.44-12.57,11.07-16.75-1.13-7.64,8.88-9.1,9-14.87.22-8,11.25-8.92,9.72-17.19,6.26-4.63,7.64-13.13,13.14-17.8,5.78-4.91,5.84-10.41,5.58-16.59-.21-5-5-10-9.86-10.63-5.09-.69-10.59,1.88-15.13-3.45-1.82-2.14-2.39,1.49-3.21,3.35-7.61,17.19-17.28,33.38-24.75,50.65-.85,2-3.83,2.69-3.31,5.68.87,5-.64,8.83-4.8,12.13-2.86,2.26-7.38,14.94-9.35,19.46-3.48,8-5,16.59-9.14,24.34-5.14,9.52-9.49,19.48-14.15,29.26-.31.64-.14,1.72-.6,2.06-6.61,5-10.56,11.11-8.8,19.81a5.39,5.39,0,0,1-2.79,5.83c-7.26,4.4-6.81,11.4-6.58,23.16a20.79,20.79,0,0,0-.07-4.75c-.48-1.95-4.18-.21-4.3,3.68-.15,5-6.68,6.77-5,12a4.55,4.55,0,0,0,1.18,1.82c.4.39,1.38.85,1.57.68C513,804.39,517.45,800.93,515.69,791.93Zm65.46,77.57c5.12-.77,7-5.64,10.6-8.31,2.68-2,4.12-4.49,3.46-7.92,7.92-6.13,9.74-17.11,18-22.89,6.48-4.52,6.1-13.76,13-18.15,2-1.25,2.21-5.16,3.45-7.76,2.91-6.07,6.35-11.67,11.43-16.37,3.83-3.55,8.2-6.67,10.41-12,3.31-8,7.31-15.67,11.18-23.41,4.19-8.38,4.3-18.52,11.37-25.76,1.23-1.25.54-4.36.77-6.61.31-3-.43-7.41,1.21-8.65,4.13-3.11,2.27-8.78,6.35-11.63,6.44-4.5,8-12.24,10.92-18.81,1.5-3.33,5.68-5,5.09-9.64-.76-6-6.66-2.05-8.88-5.28-1.73-2.53-4.28-4.51-6.52-6.67-9.15-8.85-9.71-8.68-12.89,3.61a16.85,16.85,0,0,1-1.7,4c-2.5,4.42-6.33,8.54-7.33,13.26-1.23,5.77-7.88,9.71-5.25,16.78.41,1.11-2.15,4.13-3.95,5.08-5.41,2.86-3.78,9.81-8.19,13.07-3.19,2.37-1.09,5.77-1.65,8.66-.15.75.31,1.84-.08,2.29-3,3.46-7.3,6.33-9,10.32s-.17,8.36-3.7,12.64c-2.54,3.08-3.19,8.22-7,10.93s-4.12,6.25-3.62,10.19-3.3,4.93-4.47,7.52c-1.51,3.37.82,7.28-1.64,11-5.13,7.85-8,17-12.92,24.94-5,8.07-3.33,19.75-13.56,24.88-.36.18-.32,1.44-.24,2.17.54,4.86-2,8.23-4.2,12.36s-.5,10.63-.5,18.17c0-.69.27-1.66-.08-2a2.07,2.07,0,0,0-2,0c-1.54,1.09-3.47,2.43-.65,4.08C578.82,873.79,580.22,872.26,581.15,869.5Zm213.3,70.26c-4.72,0-9.57.77-14.06-.18-6.78-1.45-11.63,2.21-16.79,5-5.35,2.85-10.37,6-16.87,4.65a6.05,6.05,0,0,0-6.13,2.14c-4.36,5-10.55,3-15.25,2-3.89-.8-6.83-5.77-10.41-8.64-2.88-2.3-2.58-5.29-2.55-8.34,0-4.69.31-9.4-.08-14.06s3-7.26,5.91-9.18c4.17-2.72,9.2-5.93,13.78-5.82,8.77.21,11.4-7,16.72-11,1.32-1,.79-2-.94-3.33-3.75-2.8-2.29-8.48-6.56-11.42-3.79-2.62-6.73-6.49-10-9.8-3.87-3.87-7.61-7.86-11.64-11.56-3.42-3.15-2.22-8.57-6.47-11.52-2.69-1.87-6.45-4.4-7.82-2.14-4.37,7.21-14.3.6-18,8.1-5.92.56-12.12,2.56-17.3-2-1.58-1.4-2.26-2.1-3.39-.71-1.91,2.34-5,4.44-5.5,7-.83,4.44.47,9.36-4.44,12.28,1.53,5.94-7,8.39-5.13,14.22,1.76,5.57-5,7.39-4.78,12.15s-6.53,6.62-4.72,12.13c1.91,5.8-7.11,8.14-4.72,14.48,1.92,5.08-6,6.94-4.58,12.08,2.32,8.24-4.29,13.9-6,21-.49,2-3,3.64-3.25,5.62-.54,3.83,1.35,8.88-.5,11.44-2.89,4-5.15,7.44-4.33,12.37.72,4.39-5.35,5.11-4.85,9.79.63,6,1.11,12.33-4.54,16.79,1.78,8.61-7.46,15-4.77,23.86.38,1.27-7,15.13-7.67,15-4.67-1.12-6.23,4.31-9.81,4.64-5.42.51-11.31,1.37-16.29-.19-5.76-1.8-9.48-7.36-13-12.37,1.32-10.2-4.42-22.09,7.26-29.85a5.76,5.76,0,0,0,2-3.77c.42-3.69-1-7.75,3-10.53,3.26-2.3.63-7.67,4.93-9.76.93-.45,1.81-2.84,1.43-3.89-2.19-6.21,5.64-9.38,4.6-14.46-1.43-7,5.57-10.31,6-16.53.14-2.22,4-4.12,3.7-7.76-.35-3.88.4-7.88-.2-11.69-.74-4.69,4.89-5.74,4.82-9.8-.05-2.34.08-4.69-.07-7,0-.63-.73-1.29-1.25-1.8-1-1.06-3.32-.46-3.09,1.16.83,5.92-3.94,8-6.87,11.31-2.59,2.92-5.13,6.11-8.33,8.18-4.38,2.84-3.25,8.13-6.38,11.6-3.38,3.74-3.54,9.76-8.42,12.88-4.65,3-2.83,10.15-8.26,13-3.71,2-4.34,5.69-4.36,9.89,0,5.88-7.47,10-4.54,16.81-5.59,6-9.58,14.35-20.14,12.59a33.66,33.66,0,0,0-9.35,0c-4.3.51-7-1.55-10-4.26-11.89-10.59-12-10.46-12-20.45,0-5.46-.22-11,.12-16.39.12-2.05,1-4.63,2.48-5.89,5-4.31,8.53-9,6.78-16,4.25-2.62,3.31-8.73,6.55-11.19,5.39-4.11,0-11,4.83-14.53,5.68-4.05-.56-12.46,6.42-16.37,1.48-.83,1.09-5.75.85-8.72-.35-4.26,1.83-6.89,4-10.18,1.84-2.79,1.89-7.33-.42-10.82-.83-1.26-7,2.28-7.88,6-.76,3.06-1.07,5.74-3.64,7.94-5.84,5-7.75,12.26-10.8,18.93-3.18,6.94-12.1,9.77-13.81,17.68-1,4.43-4.42,6.21-7,8.78-3.35,3.3-3.16,8-6.11,11.75-2.54,3.2-2,8.75-8.41,7.68-2.94,3.34-2.33,8.42-6.49,11.49-3.63,2.69-9.11,1.77-11.48,6.43a6.45,6.45,0,0,1-1.63,1.67c-1.31,1.13-.83,2,.84,3.37,3.61,3,3.41,6,.35,9.69-3.86,4.67-10.68,7.1-11.68,13.84-1.06,7.15-9.8,8.84-10.44,17-.41,5.23-5.62,10-8.37,15.13-7,13-9.83,14.64-22.44,15-5.95.19-10.32-1.44-14.05-6-1.32-1.6-3.65-2.38-5.51-3.55-13.72-8.59-14.21-9.6-14.37-23-.05-4.86.68-8.65,4.6-12.31,3.72-3.47,10.49-6,9.3-12.29-1.35-7.12,6-10.1,6.15-16.49,0-2.09,4.25-4.25,3.45-7.79-1.46-6.48,5.46-10.05,5.22-16.82-.18-5.27,6.22-10.17,4.21-16.78,3-2.57,5.89-5.36,4.6-9.77-1.58-5.41,6.23-7.25,4.62-12.1-2.09-6.32,5.83-8.94,4.76-14.49-1.3-6.72,5.82-10.22,5.9-16.33,6.57-3.08,1.44-10.11,4.91-14.39,3.69-4.54,4.83-10.56,8-15.38s5.5-10.37,8.09-15.46c2.47-4.87,3.19-10.94,5.41-16.45,1.42-3.53,5-5.37,5.43-9.55.36-3.38,2.86-6.55,4.45-9.8,2.23-4.54,4.42-9.11,6.76-13.6s4.86-8.92,7.3-13.38c-3.46-7,5.39-10.57,4.68-16.81,5-3,3.61-9.61,7.81-13.22,3.42-2.94,1.06-7.26,1.33-10.95,0-.51-1.36-1.66-1.52-1.56-1.06.63-2.38,1.35-2.83,2.39-.57,1.31.15,3.79-.64,4.3-2.39,1.54-5.84,1.75-7.73,3.64s-1.77,5.72-3.6,7.73c-5.77,6.35-11.47,13-18.26,18.12-7.06,5.34-7.64,14.61-14.55,20.07-4.53,3.58-9.94,7-11.75,13.73-1.88,7-10,9.75-12.94,15.73-2.07,4.26-2.39,8.47-8.38,7.82-2.9,4.86-7.62,4.39-12.28,4.33a18.65,18.65,0,0,0-6.69.81c-.92.34-1.16,2.5-1.72,3.83a23.21,23.21,0,0,1,2.36,0c2.19.24,5.18-1.12,6.2,1.71.66,1.84.79,4.92-.31,6.17-5.44,6.21-11,12-15.21,19.48-4,7.21-11.71,12.39-17.78,18.47-3.87,3.87-7.8,7.67-11.58,11.62-2.08,2.19-5.34,4.48-5.58,7-.52,5.53-4.69,7.5-7.85,10.58-7.7-2-4.95,7.37-7.93,8-7.57,1.64-10.79,8.12-16.29,11.84-7.37,5-6.79,12.38-5.28,18.72,1.13,4.77,5.3,8.82,4.41,14.58-.16,1,2.2,2.22,2.52,3.54,1.53,6.39,8.32,10.78,6.81,18.36-.24,1.17.7,2.91,1.61,3.92,4.08,4.49,9.87,8,7.65,15.61,3,3.46,8.25,6.82,8.4,10.4.34,8.19,9,9.94,10.54,16.94s8.46,10.66,13.23,15.52c4.12,4.18,11.28,4.11,14.59,10,3.15,5.58,9.31,7.19,14.55,10,4.51,2.44,9.83,3.42,13.07,8.2,3,4.51,9.28,3.89,13.36,7.52,2.3,2,7.55-1.25,10.57,2.47s9,1.94,11.31,6.63c5.27-1.24,7.4,4.84,11.89,5.19,6,.46,12.61-1.89,16.8,4.73,6.63.58,14.13-2.41,19.15,4.69,4.69,0,9.51.7,14-.18,5.5-1.07,7.09,5.44,12.16,5a149.47,149.47,0,0,1,16.4-.09c6.71.11,13.91-1.59,19.14,4.66,6.94-3.22,10.68,4.88,16.81,4.73s12.58.59,18.72-.21c6.6-.86,11.33,3,16.93,4.51,5.83,1.56,12.4.25,18.65.38,5.95.12,12.57-1.94,16.79,4.61,2.62-2.78,5.52-6.72,9.5-4.08,3.25,2.15,5.72,4.62,10.07,4.22,4.65-.42,9.37-.09,14.06-.09h21.09c7.81,0,15.71-.75,23.4.21,7.36.92,12.8-3.39,19.21-4.76a33.87,33.87,0,0,1,11.67,0c5.18.76,6.93-6.63,12.12-4.75,7.54,2.71,12.41-4.68,19.16-4.74,2.57-4.33,8.23-3.54,11.28-6.55,3.85-3.79,10-2.94,13.27-8,2.45-3.86,6.45-6.73,9.77-10,5-5,9.85-10,14.94-14.88,5.41-5.16,9.69-11.82,17.89-13.41,1.24-.23.58-1.91-1-3.26-.87-.71-1.89-2.74-1.56-3.15a44,44,0,0,0,8.41-17.65c8.2-3.42,1.24-13.69,8-17.78,1.64-1,1.15-1.94-.6-3.35-3.57-2.89-4.11-6.28-.46-9.58,2.6-2.36,3.56-5.22,1.41-7.94a20.58,20.58,0,0,1-4-7.81c-1.55-5.61-9.84-7.32-9.43-14.92.08-1.56-3.07-3.3-4.72-5-11.6-11.6-23.19-23.2-454.33-135.82,0-.7.28-1.66-.07-2a2,2,0,0,0-2,0c-1.54,1.09-3.47,2.43-.65,4.08C372.57,841,374,839.44,794.45,939.76ZM754.3,747.57c-2.49,0-4.88.32-7.15-.07-4.76-.83-7.07,2.53-9.47,5.37-2.81,3.34-2,8.84-6.66,11.27-5.55,2.91-3.06,6.44-.56,9.9-5.81,7-7.37,15.58-10.2,23.86-3.86,11.28-4.62,11,1.51,22.46-2,5.42,4.42,7.28,5,12.06.63,5.59,6.86,7.9,10,12.17,4.37,6,13.46,8.52,13.26,17.89,5.55,5.45,11,11,16.73,16.23.8.73,3.57.61,4.4-.18,7.33-7,14.81-13.91,21.45-21.54,3.72-4.27,8.56-5.73,13.1-8.13,1.76-11.05,12-15.36,18.27-22.8,4.51-5.35,9.84-10,14.8-15-.83-7.55,7.29-9.42,9.44-14.8,2.45-6.11,4.64-12.12,8.61-17.53,2.8-3.81.81-7.36-3.93-7.68-3.82-.26-6.92-1.51-10.47-3.05-5.82-2.52-12.26-4.2-18.46-6.15-4.26-1.34-9.4.38-13.92-.45-4.16-.76-6.82-6-12.14-4.54-5.06,1.39-6.72-5.6-12.11-4.84-5.11.72-11,1.59-14.5-4.26l-5,4.41C763.38,747.65,759,747.12,754.3,747.57Zm46.85,147.54c1.71,1,2.92,2.23,4.24,2.36,3.08.31,6.31-.35,9.33.2,4.67.85,5.69-4.5,9.76-4.92,6.63-.7,13.33,2,20-2.62s15-1.41,22.53-1.83c4.72-.27,6.49-6.13,12.14-5,5.25,1,10.9.53,16.32.06,1.94-.16,3.88-2,5.55-3.38,3.77-3.12,9.3,1.23,12.73-3.24s8.58-2.08,13-2.54c4.56-.47,9.16-.53,13.74-.76,3.67-5.92,9.6-3.44,14.73-4,5.84-.63,12.65,2.5,16.95-4.26l18.55-.41c4.38-5.93,10.8-4.57,16.78-4.68,3.9-.07,7.9.5,11.67-.18,2.76-.5,3.56-5,7.46-4.63,1.26.12,2.63-1,4-1.63-.75-1-1.35-2.62-2.28-2.85-11.41-2.81-20.35-10.94-31.52-14.4-3.31-1-5.94-4.76-8.48-7.62-2-2.21-4.29-1.63-6.43-1.43a8.5,8.5,0,0,1-8-3.42c-2.91-3.53-7.29-4.83-11-7-8.16-4.85-16.84-8.62-25.28-12.66-3.73-1.78-6.45-7.19-11.91-5.08s-7.83-3.63-11.94-5.12c-5.23-1.9-11-3.67-15.46-8-2.37-2.33-5.61-1.11-7.87,1.56-1,1.19-3.1,2.17-3.15,3.33-.45,9-11.6,11.9-11.72,20.94-8,5.13-8.57,16.07-16.54,21.23-.61,5.82-4.29,8.56-9.64,9.64-.51,7.81-6.94,11.47-11.63,16.22C825.66,871.08,813.41,883,801.15,895.11ZM759.28,558.87c-.85-1.17-1.67-3.31-2.55-3.34-8.52-.25-17.06,0-25.59-.23-3.94-.11-5.37,3-7.13,5.13-2.22,2.72-3.16,6.45-5.12,9.44-2.4,3.64-8,5.39-6.49,11.29-3,2.51-4.09,5.72-5.31,9.47-1.29,4-7.34,6.47-8.42,10.4-2.32,8.45-11,14.49-9.56,23.93,1.25,8.19,9.46,11.53,14.21,17.32.85,1,2.42,1.55,3.73,2.14,2.59,1.17,9.4-.6,9.94-3,1.79-7.86,8-13.88,9.24-21.73.61-4,1-7.31,4.35-9.91,5.46-4.29,6.58-11.23,9.9-16.84,5.91-10,8.33-22,17.92-29.87C759.27,562.39,759,560.31,759.28,558.87Zm55.45,49.62c-.51,1-1.25,3-1.55,3-4.72-1-6.85,2.52-9.68,5-1.61,1.42-2.19,2.32-.83,3.33,2.81,2.08,3.82,3.74.53,6.76-1.91,1.76-2.25,5.18-3.44,7.79-.73,1.59-4.6,2.86-1,4.77,1.55.8,4.58.33,6.14-.73,7.83-5.31,16.82-8.23,25-12.73,1.26-.69,3.64-1.17,3.71-1.91.72-8.09,5.46-11.85,13-12.86,13.18-13.36,16-11.41,2.31-24.41-2.77-2.62-5.36-5.59-8.56-7.52-1.7-1-4.55-.3-6.87-.15-2.59.17-3.87,1.54-4,4.33-.32,5.22-4.19,8.37-8.41,9.4-3.32.81-5.28,2.53-7.49,4.52-3.56,3.2-3.67,4.21-.65,9.6A10,10,0,0,0,814.73,608.49ZM236.85,855.38v-.12c3.09,0,7.11,1.2,9-.3,2.56-2,3.37-6.18,5.17-9.28s6.6-4.28,6.65-8.88c.05-3.75-.8-7.58,3.08-10.41,3.07-2.23,2.38-6.51,4.57-9.78,4.33-6.45,6.72-14.19,10.94-21,4.53-7.3,4.65-16.59,9.42-24,.52-.81-.4-2.85-1.09-4.06-.83-1.45-1.67-.18-3.31.71-5.36,2.9-3.64,9.84-8.11,13-7.56,5.42-11,13.84-15.44,21.52-.69,1.2-.19,3.27-1,4.17-5.33,5.63-11.77,10.43-16.12,16.7-4,5.8-5.26,13.41-10.09,19-1,1.17-2.27,2.12-3.25,3.32a26.88,26.88,0,0,0-2.36,3.66c-.86,1.53,1,5.63,2.65,5.67C230.65,855.43,233.75,855.38,236.85,855.38ZM793.61,724a42,42,0,0,0,5.61-.08c.62-.1,1.67-1.31,1.56-1.52-.55-1.08-1.53-2.91-2.15-2.84-5.63.7-9.78-2.85-14.53-4.24-5-1.49-7.93-7.09-13.88-6.19-1.51.23-3.07-4.6-4.68-2.6-2.76,3.41-6.81,2.74-9.79,4.76a1.66,1.66,0,0,0,1,3.06c4.41-.12,6.55,3.3,9.76,4.75s7.61.19,11.47.39c1.36.08,3.17.61,3.91,1.59C785.38,725.68,790.27,723.63,793.61,724Zm-305.84.69-2.72-5.27c-.78,1.94-2,3.84-2.18,5.84-.12,1.08,1.4,2.35,2.18,3.54C485.83,727.63,486.62,726.45,487.77,724.71ZM839.17,732a5.57,5.57,0,0,0,2.13,6.15c.79-1.94,2-3.83,2.19-5.84.12-1.08-1.4-2.35-2.19-3.53C840.52,730,839.74,731.19,839.17,732ZM295,753.4c-.22-2-1.4-3.89-2.18-5.83-.78,1.94-2,3.83-2.18,5.83-.12,1.09,1.4,2.36,2.18,3.54C293.64,755.76,295.16,754.49,295,753.4Zm559.65,262L853,1017.1a15.2,15.2,0,0,0,3.15,1.47c.39.08,1-1,1.54-1.47ZM524.22,852.36l-1.67-1.67a14.44,14.44,0,0,0-1.46,3.15c-.09.39.94,1,1.46,1.54ZM698.33,421.78c-.52-.52-1.15-1.55-1.54-1.46a14.37,14.37,0,0,0-3.14,1.46c.52.52,1.15,1.55,1.54,1.47A14.89,14.89,0,0,0,698.33,421.78ZM338.07,394.33l1.67,1.67a14.23,14.23,0,0,0,1.46-3.15c.09-.38-.94-1-1.46-1.54C339.17,392.33,338.61,393.35,338.07,394.33Zm79.69-20.1c.54,1,1.1,2,1.67,3,.52-.52,1.55-1.15,1.46-1.54a14.48,14.48,0,0,0-1.47-3.15ZM768,308.6l-1.67-1.66a14.37,14.37,0,0,0-1.46,3.14c-.09.39.94,1,1.46,1.54C766.87,310.61,767.43,309.59,768,308.6Z"/></svg>