<svg id="Layer_1" data-name="Layer 1" xmlns="http://www.w3.org/2000/svg" viewBox="0 0 1200 1200"><title>BB_Artboard 87</title><path d="M745,1024.22c-87.94,88.28-88.28,103.59-87.75,118.86.18,5.47-3.18,7.81-6,11.14-1.67,2-2.53,2.41-3.91.6-2.09-2.76-4.92-5.15-6.29-8.2-1-2.25-.2-5.31-.2-8,0-23.39-.28-46.79.16-70.17.14-7.54-2.78-15.67,4.42-22.6,2.3-2.21,1.9-8.94.56-12.86-2.82-8.26,7-12.1,5.65-19.44,3.89-3.27,6-9,12.64-8.49,1.26.11,3-1.72,4-3.07,2.72-3.85,12.34-.06,10.23-8.69-1.65-6.76-9.74-5.25-14.28-9.18-3.93-3.41-12.43,2.39-17.44-2.85-5.41-5.65-11.89-3-17.68-2.73-6,.28-9.34-4-14-5.45-4.92-1.47-10.52-.53-15.67-1.44-2.28-.4-4.09-3.73-6.34-4-6.94-.94-14-1.07-21-1.51-4.5-6.6-11.34-3.8-17.21-3.91-5.58-.11-7.5-7.26-14-5.8-5.12,1.16-10.72.2-16.11.18-6.65-9.27-16.45-3.91-24.78-5.34-5-.87-7.7-7-14-5.58-4.29.94-10.24,2-13.22-.14-10.48-7.46-22-4.66-33.09-4.92-4.84-.11-7.87-2.35-11.7-4.63-3.35-2-8.63-1-13-.86-6.7.25-7.86,3.58-7,12.75.89,9.74.2,19.62,1,29.38.66,8.44-3.63,18,4.9,24.92.13,10.74.38,21.49.31,32.23a14,14,0,0,0,3.31,9.53c3.29,4.22,3.27,5.16.11,8.9-2.49,3-2.31,6.66-3.95,9.16-2.47,3.74-6.13,6.13-.39,9.75.33,8.86.82,17.72.9,26.59,0,3.45-8.54,10.68-11.26,9.29-3.78-1.92-9.14-4.77-9.75-8-1.14-6-2.24-11.15-5.25-16.9s-1.49-14.18-.41-21.21-7.21-9.29-6.09-16.76,2.95-16-2.15-23.13c-5.22-7.32-1.69-15.47-2.8-23.15-9.77-10.64-4.19-23.63-5.25-35.56-.48-5.37-1.19-9.66-4.75-14.43-2.61-3.49-.64-10.35-.86-15.7,0-.7-.91-1.48-1.57-2s-1.56-1.2-2.2-1.06c-6.67,1.48-11.22-3.52-16.78-5.09-5.83-1.66-12.56-1-18.77-.22-7.45.89-13.3-1.92-19.51-5.29-2.15-1.16-5.16-1.17-5.77-3.94a20.39,20.39,0,0,1,0-8c.79-4.11,7.34-9.79,11-9.84,9.87-.14,19.74,0,29.6-.42.89,0,2.17-2.65,2.37-4.19a6.31,6.31,0,0,0-1.3-4.7c-1-1-3.07-1.36-4.7-1.45-3.59-.2-7.64,1-10.68-.33-3.82-1.63-7.05-5-10-8-.89-.91-.85-4.08,0-5.13a89.53,89.53,0,0,1,11.4-11.47c4.5-3.64,9.62-3.14,14.54-.27,2.17,1.27,4.82,3.79,6.52,3.28,3.09-.91,5.65-3.66,8.41-5.66,3.67-2.66,1.73-6.56,2.1-9.92.55-4.94-2.78-5.24-6.59-5.92-2.25-.4-4-3.24-6.22-4.42-2.84-1.48-8,.18-8.49-4.1-.47-4-2.13-8.95,2.07-12.5a6.85,6.85,0,0,0,1.88-1.92c4-8.65-3.34-19.7,5.76-27.3q.41-13.32.83-26.65c-8.4-7.85-4.43-18.12-5.54-27.43-.15-1.27-2.06-3-3.44-3.32-5.84-1.42-12.63,2.75-17.79-2.67s-11.93-2.92-17.71-2.53c-6.15.41-9.32-3.94-14-5.76-2.21-.87-5.25-1.7-6.09-3.43-1.06-2.19-.62-5.34-.17-8,.71-4.2,7-10.29,10.69-10,5.9.37,11.58-1.09,17.62,3.29,6.4,4.66,15.35,1.81,23.2,1.48.85,0,2.06-2.67,2.29-4.23.38-2.64,1.24-6.7-.09-7.85-6.42-5.55-5-12.68-5.22-19.58s2.12-14.5-5.39-19.36q-.08-10.75-.16-21.52c-8.75-5.72-5.07-14.65-4.92-22.12.14-6.69-8-9.29-6-16.74,1.3-4.86-.25-10.49-.52-15.77-8.74-5.53-.77-16.19-6-21.66-7-7.31-2-15.41-4.09-22.76-1.79-6.45-8-11.68-5.29-19.38-6.39-4.07-6.63-10.64-5.18-16.61,1.94-8-5-13-5.27-19.42-.39-8.8-6.94-15.25-6.41-24.77.44-7.86-7.14-15.55-4.74-24.72-7.4-4.37-3.06-13.47-7.19-18.49-3.3-4-3.36-7.72-3.7-12.12-.44-5.9,1.84-12-3.42-17.55-4.47-4.76,1-13.71-2.57-17.48-5.14-5.44-3.48-11.41-5.51-16.86-1.11-3-4.82-4.62-4.74-8.88.13-6,1.57-12-4.32-17.21-3.56-3.14,1.13-10.05-3.92-14.5-5.43-4.78-1.53-11.82-2.34-17.8-.47-3.39-1-7.89,3.7-8.4,4.08-.45,8.56-1.5,12.47,2.33a34.26,34.26,0,0,1,10.07,20c.83,8,4.41,14.64,5.86,22,1.81,9.15,9,17.25,5.61,27.41a17.78,17.78,0,0,1,5.4,16.66c4.59,3.58,5.7,8.21,5.6,14s-1.89,11.93,3.38,17.53c4.41,4.7-1.05,13.65,2.57,17.47,5.14,5.42,2.36,12.53,5.7,16.6,3.92,4.8,5.12,9.37,4.18,14.53-1.14,6.2,4.47,9.15,5.44,14,1,5.11.63,10.48,1.57,15.61.43,2.3,3.28,4.13,3.82,6.45,1.33,5.77-2.17,12.25,3.55,17.52,4.53,4.17,1.46,10.17,1.86,15.31.41,5.37,7.15,7.51,5.77,14-1.09,5.09,0,10.64.1,16,8.25,3.78,2.34,13.4,7.6,18.47a8.72,8.72,0,0,1,2.75,4.21c1.35,7.64-2.6,16,3,23.06,5,6.38.2,14.16,2.72,20.47,3.24,8.12,6.8,15.83,5.32,24.88-.08.53,2.15,1.63,3.43,2.08.35.12,1.72-1.17,1.73-1.82.11-10.8-1-21.74.45-32.34,1-7.36-8.32-9.23-6.07-16.79,1.45-4.88.05-10.6-.08-16-8.33-5.9-4.18-14.67-4.93-22.22-.93-9.36,2.47-19.35-5.3-27.62-1.34-1.44-.8-5.4-.08-7.89,2.49-8.55-4.8-14.53-5.39-22.09-.55-7.16-.12-14.39-.12-21.58-12-8.37,1.43-25-10.74-33.39-.42-.29-.05-1.73-.06-2.63q0-12.12-.08-24.25c-8.69-5.7-5.33-14.61-5-22.07.32-6.81-7.91-9.29-6-16.75,1.49-5.92,1-12.63.06-18.78-.75-4.79-6.51-7.82-5.33-14,1-5.19,0-9.92-4.33-14.49-2.29-2.43-.75-8.5-.9-12.93-.32-10.09-4.09-16-14.37-23.31a18.09,18.09,0,0,1-5.61-5.75,12,12,0,0,1-1-7.19c.24-1.44,2.29-2.65,3.64-3.84C290,269,294.13,262.74,287,254.44c-1.06-1.24-2.28-2.89-2.32-4.38-.23-8.09-.25-16.19.05-24.28,0-1.17,2.16-3.12,3.44-3.24,4.47-.4,9,.05,13.48-.27,1.5-.11,2.9-1.58,4.35-2.42-1.29-.95-2.57-2.71-3.88-2.74-11.69-.21-23.39-.12-35.08-.12-5.4,0-10.81.19-16.19-.14a5.84,5.84,0,0,1-4-2.83c-3-5.74,3.9-18.34,10.26-18.57,7.19-.26,14.4-.33,21.58,0,5.65.28,7.64-7.85,14-5.7.37.13,1.78-2.62,2.61-4.09,2.85-5,7.1-7.37,11.29-6.55,5,1,7.65,6.9,14,5.66,5.2-1,10.75-.21,16.15-.21s10.94.8,16.16-.18c8.28-1.55,15.45-6.94,24.83-5.47a78.87,78.87,0,0,0,24.2,0c7.39-1.16,13.71-6.51,22.13-5.32,7.06,1,14.71,1.57,21.47-.16,7.35-1.89,13.93-6,22.16-5.19,7.12.74,14.59,1.22,21.51-.15,6.48-1.3,11.66-6.79,19.46-5.32,6.09,1.14,12.56.17,18.85.25,5.41.06,7.55-7.24,14-5.62,4.23,1.06,9,.2,13.44.2,5.4,0,11,.8,16.16-.22,5.65-1.1,9.77-6.68,16.73-5.37,5.21,1,10.79-.17,16.15.27,8.9.74,15.17-7.82,24.83-5.81,7.76,1.62,16.12.33,24.22.33,9.7-9.4,21.84-5,32.85-5,6.18,0,8.81-5.51,14-5.73,6.28-.27,12.59-.07,18.89-.07H735c9.52-10.5,21.95-4.92,32.85-4.84,7.12.05,9.16-8.34,16.74-6.27,5.86,1.6,12.65,1.14,18.77.07,5.64-1,9.79-6.63,16.73-5.34,5.22,1,10.76.19,16.16.19,6.3,0,12.59,0,18.89,0,6.54-.07,7.36-.69,7-7.94-.34-7.63,3.06-16.31-5.31-22-.94-6.72,3-14.43-4-19.92-.27-7.84-.66-15.67-.61-23.5,0-.73,2.74-1.84,4.31-2.09,5.6-.86,11-.13,13.82,5.46,3.71,7.47,10.35,14.59,7.86,23.54-2.11,7.58,7.7,9.44,6,16.81-1.07,4.62-2.5,10.77,3.35,14.68,1.1.74,1.35,3,1.69,4.6,1,5.05-2.47,11.06,2.29,15.19,4.18,3.62,2.27,8.14,3.31,12.21s4,7.4,5.05,11.35c.88,3.37-.13,7.19.28,10.74.33,2.81,2.14,4.31,5.47,4.21,8.09-.25,16.19-.05,24.28-.1,3.53,0,7.24-.65,8,4.45.63,4.34-2.33,7.19-5.17,8.49-6.06,2.78-11.31,7.18-18,8.72-4.72,1.08-3.21,5.2-4,8.43-1.73,7,7.92,9.29,5.84,16.78-1.35,4.88.12,10.54.33,15.85,8.71,5.53,1.16,16.18,6,21.62,6.65,7.4,3.19,15.21,4,22.76.63,6.11,7.49,9.39,5.83,16.71-1.36,6-.27,12.53-.27,18.82,9.47,7.65,4.94,18.2,5.12,27.46.14,7.28,7.66,11.43,6,19.41-1.28,5.95-.06,12.45,0,18.7,8.62,6.88,3.88,16.49,5.05,24.89.82,5.87-2,12.29,4.24,17.34,1.89,1.52,1.11,6.64,1.14,10.11.1,13.49-.21,27,.15,40.48.18,6.74-2.58,14.1,4.42,19.91,1.85,1.53.84,6.73.84,10.24.05,35.09-.61,70.19.48,105.24.28,8.7-7.65,13.43-6.14,22.12,1.37,7.86.29,16.14.29,24.24-9.19,3.53-2.71,13.18-7.25,18.62-1.57,1.87-3.6,4.55-3.32,6.56.87,6.21-1.67,10.56-6.34,13.64-9.48,6.26-10.52,15.15-10.28,25.57.6,25.18.14,50.38.23,75.57,0,7.62.17,7.59-8.85,9-8,1.22-11.43,5-12.76,13.54-.39,2.51.34,4.89-1.84,7.4-6.36,7.36-5.09,14.57,2.58,20.13,5.34,3.88,4.9,9.07,4.5,14.33-.1,1.39-2,3.84-2.87,3.78-5.6-.36-8.39,1.55-7.83,7.49.25,2.68-.06,5.4.07,8.1.2,4.41-1.77,6.3-6.21,6.27-3,0-4.68,1.72-4.64,5,.08,6.3,0,12.6,0,18.9-10.18,7.63-3.89,13.1,2.22,19,1.67,1.6,3.35,4.66,3,6.68-1.44,7.81,4.44,11.1,8.62,15.42,2.86,3,3.66,6.1.94,9.2a122.31,122.31,0,0,1-11.48,11.4c-1.08.94-4.09,1.38-4.9.63-4.85-4.47-10.29-6.35-16.78-5.26-8.56-10.18-20.15-3.44-30.18-5.4a7.64,7.64,0,0,0,.07,2.67c.32.77,1.2,1.84,1.84,1.86,7,.15,13.5,1.72,19,6.27,6.9-2.35,11,3.79,16.63,5.48,2.35.71,5,1.87,6.47,3.69,3,3.84,4.57,9.28,8.22,12.1,3,2.29,8-.4,12.39,2.52,11.12,7.41,24.44,11,35.14,19.3,8-1.25,8.85,3.6,8.17,9.64-.46,4.14,1.81,11.52-3,11.45-7-.09-9.28,7.11-16.7,6.45-16.07-1.44-32.35-.6-48.54-.34-4.1.07-6.27-2.19-9.14-4.26-1.62-1.18-4.85-.8-7.12-.21-1.5.39-2.58,3.47-3.86,3.47-7.12,0-11.34,9-19,6.21a157.33,157.33,0,0,1-15.88-7.23c-1.53-.75-2.57-3.2-4-3.33-5.32-.48-12.2,1.69-15.7-.91-4.77-3.53-9-5.48-14.41-4.53-6,1.06-9.4-3.69-14.07-5.23-4.85-1.59-12.09,1.07-15.34-1.65-4.89-4.09-9.84-5.1-14.65-3.78-9.64,2.64-15.87-7.18-24.82-5.64-7.6,1.31-15.73-2.82-23,3.33-6,5.14-13.78,1.15-20.71,1.85-3.29.33-4.64,2.29-6.48,4-8,7.53-7.38,7.67-10,22.89-1.13,6.45-6.73,11.68-5.33,19.44,1.1,6.1.22,12.56.22,18.86,0,7.19,0,14.39,87.94-51.4,89.64-73,91.42-73.29,93.05-72.92,2.62.6,3.5-.1,2.53-2.62-.28-.72-1.06-1.74-1.68-1.79q-6.09-.5-12.22-.53c-.6,0-1.8,1.55-1.72,1.66.83,1.16,1.7,2.67,2.89,3.08C829.4,951.63,831.25,951.23,745,1024.22ZM856.84,692.49V676.31c0-6.3-.94-12.77.26-18.83,1.27-6.5-5.8-8.55-5.69-14,.13-6.29,0-12.59,0-18.88s-1.08-12.83.28-18.82c1.65-7.31-5.47-10.7-5.63-16.71-.2-8.08-.72-16.25.13-24.25,1-9.1-2.93-16.61-5.18-24.86-2.66-9.74,3-21.24-5.79-30,0-6.29-1.06-12.81.26-18.82,1.73-8-7.58-11.37-6.07-19.47,1-5.45,3-12.22-2.62-17.61-5.25-5-1.25-11.91-2.42-17.83a3.51,3.51,0,0,0-1.49-2c-6-3.66-4.47-9.81-3.56-14.56,1.25-6.51-5.4-8.5-5.92-14-.73-7.57,2.88-15.32-3.49-22.9-5.27-6.28,1.91-17.72-7.09-23.89-.28-5.28,1.39-12.19-1.32-15.45-4-4.87-2.33-10.32-4.48-14.47-2.87-5.52-6.16-10.35-5-16.86-7-5-4.15-12.69-5.7-19.27s-7.62-11.89-5.05-19.39c3-8.77-3.95-14.68-6.44-21.67-1.44-4-5.68-9-12.61-7.9-5.27.82-11.06,1.26-16.09-.1-7.38-2-9.19,7.7-16.79,6s-16.1-.37-24.2-.37c-7.19,0-14.45.6-21.56-.16-8.24-.89-14.82,4.14-22.11,5.16-16.24,2.27-33.38-2.92-49,5.8-8.09,0-16.34,1-24.23-.26-9.37-1.47-16.53,4.69-24.8,5.36-13.4,1.09-26.95.3-40.44.3H504.21c-10.56,10.2-23.69,3.55-35.53,5.34-2.64.39-6.4-1.1-7.92.24-10.91,9.6-23.8,4-35.7,5-10.71.92-21.56.19-32.35.19-.9,0-2.17-.37-2.63.08-1.17,1.14-2.79,2.66-2.8,4,0,5.26.52,10.51.84,15.77,8.5,3.68,1.13,13.59,7.51,18.57,5.63,4.39-1.43,14.86,7.71,18.29-.93,4.18,2.11,9-1.94,12.67-6.49,5.85-2.33,13.31-3.12,20,6.81,4,4.8,10.77,5.05,16.79.2,5.19-.55,10.07,4.12,14.69,2.34,2.32.42,8.51,1.43,12.7,1.17,4.81,4,9.21,5.13,14,1.72,7.38-3.3,16.31,5.21,22.13.1,5.35,1.17,10.91.07,16-1.4,6.49,5.33,8.61,5.77,14,.67,8.43-3.72,18.07,5.27,24.75,0,6.29,1.08,12.83-.27,18.82-1.66,7.3,5.38,10.56,5.76,16.7.64,10.21-3.5,21.34,5.31,30.13,0,7.19,1.34,14.72-.33,21.5-2.22,9,5.78,13.93,6.14,22.1.72,16.36-5.59,33.66,5,49V694.2c10.34,9.54,3.5,21.9,5.35,32.83.3,1.75-.49,3.84.21,5.31.61,1.31,3.06,3.11,3.88,2.76,8.11-3.42,12.41,5.3,19.4,5.75,7.54.49,16.38-3.66,22.17,4.95,5.35.09,10.92,1.14,16,0,6.5-1.41,8.65,5.14,14,5.83,7.58,1,15.45-3.21,23,3.37,6.31,5.54,17.85-2.12,23.85,7.24,11.06-3.88,19.57,6.16,30.13,5.5,4.33-.27,8.72.54,13.09.85,3.68,8.47,13.89.94,18.46,7.6,3.64,5.3,11-.79,14.43,3.93,4.16,5.67,9.69,3.23,14.74,3.66,3.57.3,9.3-1.38,10.44.29,7.14,10.47,21.78-.37,28.24,10.56,5.39,0,10.91-.7,16.14.21,4.82.83,9.21,4.34,14,5,8.46,1.14,17.17-1.17,25,5.26,2.68,2.21,8.87,1.12,13.16.17,6.31-1.39,8.95,4.73,14,5.6,7.59,1.31,15.36-2.21,23.05,3.14s17.29,1.1,25.94,2.38c2.32.34,4.33,2.46,6.58,3.58a12.25,12.25,0,0,0,4.69,1.61c8.73.27,10.48.77,10.45-7.27-.07-22.48,0-45,0-67.43,0-2.69,1.15-6.4-.18-7.93-9.53-10.91-3.59-23.82-5.15-35.69C856.45,699.73,856.84,696.09,856.84,692.49ZM435.73,708h-.16V683.83c-9.36-7.71-4.21-18.21-5.12-27.48-.61-6.23-.12-12.57-.12-18.85-7.73-9-5-19.82-5.4-30.1-.22-5.3-.46-10.59-.69-15.88-7.56-5.1-3.79-12.91-4.73-19.6-1.07-7.53,3.16-16.21-4.75-22.28-.21-8.9-.39-17.79-.68-26.69a3.06,3.06,0,0,0-1.22-2.13c-9.54-6.26,1.6-20.11-9.48-25.75,0-6.28-1-12.76.2-18.79,1.6-7.87-6.48-11.94-5.83-19.39.66-7.65,2-16-5.21-22,2-9.08-3.12-16.56-5.06-24.79s1-17-5.35-24.94c-2.7-3.37.81-11.82-1.93-15-4.19-4.92-4.9-10-3.56-14.68,2.15-7.51-7.36-9.61-6-16.77.9-4.71,1.77-10.07-3.06-14.85s.84-13.65-2.58-17.43c-4.95-5.47-3.83-11.22-5.52-16.84-.91-3-4.62-5.38-7.38-7.65s-8,.37-8.12,4c-.14,4.49-1.9,10.64.33,13.15,6.15,6.94,4.8,14.61,5.09,22.33a3,3,0,0,0,1.25,2.12c8,4.57-.07,16.58,9.49,20.36,0,4.49.33,9-.1,13.46-.33,3.46,2.52,4.41,3.85,6.55,3.58,5.72-.89,14.43,6.95,18.81.77.43.05,3.41.11,5.21.19,5.16-.23,9.83,3.92,14.73,2.73,3.23.36,10.33,1.7,15.3,1.27,4.73,6.6,7.9,5.3,14a24.34,24.34,0,0,0,.05,10.71c1,3.94,5.33,7.82,4.82,11.22-1.05,7.09,5,10.94,5.64,16.7.7,6.21.16,12.56.16,18.85,0,3.59-1.5,9,.26,10.45,6.84,5.64,6,13,4.84,19.59-1.44,7.93,5.91,12,6,19.37.19,11-4.39,23.12,5.06,32.8,0,7.18,1.27,14.66-.32,21.48-2.08,8.91,6,14,5.93,22.09-.14,11.1-3.07,22.92,5.18,32.79,0,7.18,1.61,14.86-.39,21.43-2.63,8.63,6.61,12.12,5.92,19.46-.6,6.23-1.07,12.74.13,18.8,1.28,6.49,7.72,11.68,5.24,19.4-.14.41,1.31,1.91,1.67,1.8,1.29-.41,3.44-1.25,3.47-2C435.85,720.59,435.73,714.3,435.73,708Zm502.09-177.6V473.82c0-6.28-1-12.77.26-18.81,1.47-7.17-4.68-10.87-5.63-16.68a16.08,16.08,0,0,1,0-2.69c0-9,.27-18-.09-26.94-.3-7.63,3-16.28-5.31-22-.08-8.95-.12-17.91-.32-26.85,0-.65-1.6-1.91-1.75-1.81-1.21.79-3.19,1.84-3.2,2.81-.15,44.91-.59,89.84.16,134.73.22,12.72-5.28,26.68,5.11,38.19-.21,10.7-.23,21.4-.79,32.08-.11,2-3.72,5.3-3.48,5.51,8.26,7.37,3.57,16.9,4.07,25.32.75,12.53.12,25.14.33,37.72,0,1.12,1.93,2.22,3,3.33.63-.64,1.56-1.16,1.85-1.93,2.46-6.42-2-13.49,3.53-20.22,5.23-6.34,1.85-15.35,2.25-23.17.36-7.17.07-14.37.07-21.55ZM900,355.06V317.35c-5.83-4.22-5.79-10.27-5.47-16.62s.07-12.56.07-18.84c0-4.49-.54-9.07.14-13.45.84-5.38-4-7.61-5.18-11.36-1.49-4.93.39-10.83-.86-15.89-.74-3-4.67-5.25-7.43-7.54-.22-.19-2.61,1.8-3.63,3.07-2.87,3.56-6.71,1.66-10,1.71s-5.24,1.62-5.28,4.41c-.07,5.23-1.33,12.12,1.4,15.33,4.19,4.91,4.92,10,3.58,14.66-2.13,7.5,8.2,9.82,5.68,16.7-2.32,6.31,5.07,8.52,5.59,13.91.66,6.91-3.25,14.62,1.89,20.65,6.14,7.22,1.88,15.36,3.4,22.9a8.11,8.11,0,0,0,2.21,4.41c6,5.07,1.36,12,3.31,17.54s5.54,10,5.53,16.68c0,11.92-3.73,24.71,5.08,35.47,0,6.28-.15,12.57.14,18.84.06,1.2,1.88,2.32,2.89,3.48.64-.64,1.65-1.18,1.83-1.93a15.11,15.11,0,0,0,.49-5.17c-1.79-15.41,4.8-31.8-5.35-46.24ZM856.61,417.7c-.1-2,2.46-9.68-5.17-14.47,0-7.18-1.5-14.77.37-21.42,2.58-9.16-6.67-13.95-5.89-22.08.61-6.22-1-12.78.4-18.75,1.66-7.3-5.26-10.61-5.76-16.65-.48-5.86,2.72-12.74-4.13-17.08-.4-7-.31-14.1-1.41-21-.48-3.05-4.31-5.53-4.95-8.61-.89-4.29,1.62-10.52-.6-13.07-5.1-5.86-4.32-12.74-6.41-19-.3-.92-3-1.54-4.57-1.41s-4.25,1.41-4.24,2.15c.11,6.74-3.1,13.89,2.63,20.08,1.52,1.64,1.82,4.66,2.11,7.11.9,7.57-2.93,16.26,5.46,22,.51,7.64-2.24,16.08,5.4,22,.95,6.69-3.08,14.42,4.13,19.81.42,7,1.13,14,1.17,21,0,4.61,2.1,7.89,4,11.86,2.79,5.81,3.14,12.59,6.35,18.9,2.9,5.73,1.26,13.77,1.63,20.79,7.48,5.26,3.21,13.08,4.43,19.71.2,1.13,2,2,3.2,2.83.15.1,1.69-1.13,1.75-1.81C856.73,427.83,856.61,425.16,856.61,417.7Zm47,598.32c-7.11-6.69-10.72-10.7-15-13.88-3.27-2.47-7.37-3.8-11-5.84-4.37-2.46-9.33-3.3-13.42-7-2.71-2.43-8.85,1.77-12.23-2.52-4.17-5.3-9.85-3-14.86-3-4.07,0-6.25-2.26-9.11-4.32-1.62-1.18-5.7-1.37-6.95-.19-3,2.85-7.93,4.79-7.43,10.25.66,7.19,6.31,4.19,10.14,4.89l17.78,9c3.84,3.41,6.56,8.91,13.19,7.15s9.21,7.13,16.67,5.77C880,1014.81,889.14,1016,903.6,1016ZM733.91,913.44c8.08,0,11.68.21,15.25-.1,1.55-.13,4.33-1.41,4.29-2-.23-3-2.85-4.08-5.27-3.21-7.14,2.56-10.36-5.59-16.63-5.61-5.91,0-12.72,2.36-16.94-4.45l-18.06-1.87c-4.27-6.94-11.18-3.59-17-4.36-3.4-.45-8.33.39-9.93-1.53-4.36-5.26-9.87-4.56-14.68-3.61-6.47,1.29-8.57-5.63-14-5.71-6.85-.1-14,1.77-19.61-5.09-1.39-1.7-6.81-.28-10.33.11-.53.06-1.53,3.06-1.08,3.52,2.39,2.51,5.86,7,7.71,6.5,8.87-2.54,14.18,5.4,22,6.36,8.16,1,15.68,6.87,24.74,4.84,6.4,11,21.42-.2,27.81,10.8,5.38,0,10.78-.26,16.14.08,5,.31,10-1.23,14.95,3.29C726.49,914.3,733.18,913.33,733.91,913.44ZM376.34,620.36v24.2c9.21,11.65,4,25.34,5.41,38.1.28,2.56-.32,6.42,1.1,7.45,6.54,4.75,3.79,11.33,4.23,17.21.32,4.46-.33,9,.2,13.43.33,2.74,2.72,3.76,5.79,3.82,9.35.19,10.22-.22,10.25-7.55,0-6.07,1.44-12.64-5.2-16.66-.06-6.25.95-12.76-.47-18.68-1.54-6.45-6.33-11.63-5.44-19.39.86-7.43,3.13-16.18-5.07-21.93q-.13-8-.26-16c-6.86-3.78-4.46-10.75-5.74-16.46a3.08,3.08,0,0,0-1.87-1.81c-.45-.14-1.74.76-1.79,1.29C376.86,613.46,376.41,619.58,376.34,620.36Zm15.45-392.58v.47c-9.8,0-19.61-.11-29.4.19-.79,0-1.9,2.71-2.17,4.27-1,5.61,7.34,7.53,5.65,14-.35,1.32,3.32,3.88,5.39,5.57.94.77,3.29,1.45,3.63,1,5.64-6.86,13.25-3.28,20-3.84,5.34-.45,12.34,2,15.77-.57,5.53-4.18,10.66-5.21,17-5.24.92,0,3.21-5,2.46-6.48-2.33-4.51-5.13-9.34-11.37-9.38C409.73,227.74,400.76,227.78,391.79,227.78ZM769.93,843c10.83,0,15.26.08,19.68-.08.66,0,1.48-1.09,1.82-1.85.19-.43-.4-1.75-.73-1.78-7.6-.77-14.23-4.93-21.39-6.47-8.2-1.76-16.67.54-24.83-5.28-4.81-3.43-14.08,2.39-19.16-5.13-7.05-.24-14.09-.43-21.13-.78-2.55-.12-6.3.31-7.42-1.13-5.62-7.21-13.15-3.43-19.83-4.07-1-.1-2.17,1.91-3.26,2.94.64.63,1.29,1.83,1.89,1.81,4.84-.19,7.57,3.47,11.26,5.36,3.54,1.81,8.69.48,13.14.53.89,0,2.37-.34,2.6.05,6.44,10.94,21.42-.26,27.76,10.74,5.36,0,10.73-.22,16.08.07,5,.27,9.89-1,14.83,3.43C764.4,844.22,771.12,843.15,769.93,843ZM519.64,913.44a38.56,38.56,0,0,0-5.38.08c-.73.1-2,1.26-1.87,1.63.35,1.3,1.19,3.52,1.85,3.53,7.83.05,13.33,8.81,22.08,5.66,3.84-1.39,6.41,3.49,9,3.78,7.81.85,14.24,5.3,21.58,6.72,5.2,1,11.51-1.45,16,.61,5.54,2.57,10.42,6.62,16.81,4.87s8.73,5.43,14,5.42c1.56,0,3.12-1.07,4.68-1.65-.64-1.27-1-2.85-2-3.76-2.48-2.3-4.16-5.66-8.57-5.38-7,.44-14.16,1-19.34-5.31-9.18,2.46-16.84-5.25-24.7-4.76-9.53.59-16-6-24.76-6.42C532.58,918.12,527.35,910.71,519.64,913.44ZM469.3,238.55c6.2,2.32,9.11-4.31,13.89-5.16,5.2-.92,10.72-.49,16.06-.14,6.36.42,9.42-8.09,16.63-5.69,1.44.48,3.84-1.87,5.79-2.92-1.48-.75-2.94-2.13-4.43-2.16-11.63-.18-23.26-.1-34.88-.1-1.79,0-4.2-.74-5.26.14-4.15,3.44-7.86,6.84-11.74-.14-6.28-.42-12.61-.89-16.39,5.72a16.38,16.38,0,0,0-1.05,3.77C455.61,232.31,460.67,241.12,469.3,238.55Zm172.41,610.1c1.95,0,3.82.33,5.5-.09s2.89-1.61,4.33-2.46c-1.3-1-2.49-2.46-3.92-2.73-3.38-.65-8.85.54-10-1.24-4.42-6.93-12.78-1.42-16.53-5.65-5.32-6-11.5-3-17.26-4.13a12.85,12.85,0,0,1-6.6-3.26c-3-3.27-6.62-1.73-10-1.93-1.53-.09-4.18.61-4.51,1.57-1.2,3.54,1.77,3,4,3.88A152.73,152.73,0,0,1,602.51,840c1.5.77,2.66,3,4,3.06,6.24.35,12.51,0,18.76.26a6.47,6.47,0,0,1,4.32,2.29C633,850,637.65,848.29,641.71,848.65Zm-133,32.4c3.66,0,7.19.09,10.72-.09.65,0,1.89-1.38,1.76-1.75-.43-1.28-1.59-3.49-2-3.4-5.33,1.19-7.37-4.19-11.14-5.29-4.06-1.19-8.79-.66-13.16-.18-5.72.64-9.59-1.78-13.91-5.19-2.14-1.68-6.83-.5-10.26.07-1,.18-2.57,2.8-2.36,4,.39,2.24,1.69,5.91,3,6.11,5.18.75,10.52.37,15.81.41C492.75,884.19,501.4,880.07,508.69,881.05ZM869.62,211.59c3.66,0,5.41,0,7.17,0,6.25-.15,8.88-3.45,6.89-10.28-1.57-5.4-4.32-10.5-7-15.51-.51-.95-3-.94-4.65-1.14a4.51,4.51,0,0,0-2.35.61c-2.39,1.19-2.49,2.46-.39,3.71,5.94,3.52,3.84,9.43,3.29,14.2-.18,1.56-5.48,2.47-8.38,3.8a3.21,3.21,0,0,0-1.76,1.85c-.09.51.9,1.61,1.57,1.77C866.47,211.18,869,211.48,869.62,211.59Zm-539,21.32c-4.52,5.72-4.64,11-.24,16.51,1.45,1.81,2,4.38,2.79,6.66.91,2.57,2,4.22,5.33,4.23,3.8,0,5.77-1.59,5.38-6.68-.24-3.18-.78-6.83-2.54-9.31C338.32,240.14,334.26,236.72,330.58,232.91ZM411,864.85c4.55,0,7.23.31,9.79-.12,1.5-.25,2.79-1.68,4.17-2.58a32.63,32.63,0,0,1-3.69-3.75c-4.42-6.15-10.33-5-16.17-3.15-.95.3-1.65,2.89-1.6,4.39s.82,3.85,1.9,4.28A18.27,18.27,0,0,0,411,864.85ZM783.37,163c4.54,0,7.2.25,9.79-.07,2.79-.35,4.34-1.86,4.41-5.13s-1.33-5-4-5.52c-6.41-1.14-12,.47-15.86,6.14-.49.71-1.71,1.26-1.71,1.88s1,1.63,1.75,1.79C780.2,162.64,782.73,162.9,783.37,163ZM883.84,716.24c0,5.33-.15,10.66.15,16,0,.81,2.13,1.68,3.4,2.13.36.13,1.75-1.13,1.76-1.76.12-8.88.17-17.76-.07-26.64,0-.77-2.13-1.68-3.4-2.13-.36-.12-1.73,1.12-1.76,1.78C883.74,709.13,883.84,712.69,883.84,716.24ZM492.55,913.44c5.27,0,7.95.29,10.5-.17.83-.15,1.5-2.2,1.82-3.49.1-.41-1.09-1.56-1.8-1.67-4.88-.79-10.73,2.16-14.26-3.71-1.35-2.23-3-2.34-3.61.23-.56,2.22-.81,6.17.32,6.85C488.22,913.11,491.82,913.27,492.55,913.44Zm243-745c3.53,0,7.07.09,10.59-.09.65,0,1.89-1.37,1.76-1.75-.42-1.27-1.28-3.36-2.07-3.4-5.28-.31-10.59-.23-15.88-.08-.64,0-1.88,1.38-1.76,1.75.43,1.28,1.1,3,2.12,3.42C731.88,168.82,733.81,168.4,735.57,168.4ZM922,340.39c-1.15-1.1-3-3.8-3.85-3.52-2.91.92-2.89,6.65-.18,8.66.42.31,1.63.36,1.74.14C920.47,344.26,921,342.74,922,340.39Z"/></svg>