<svg id="Layer_1" data-name="Layer 1" xmlns="http://www.w3.org/2000/svg" viewBox="0 0 1200 1200"><title>BB_Artboard 82</title><path d="M546.13,979.47c1.27,8.8-3.14,16.44,2,21.74,5.86,6.06-.31,14.4,3.75,18.72,6.45,6.85,2.52,18.42,12.13,23.3,1.52.77,2.25,4.19,2.37,6.45.32,5.91-.16,11.88.25,17.78a10.82,10.82,0,0,0,3,6.3c3.61,3.68,1.22,8,2,12-5.6,3.08-4.34,10.17-8.56,14.36-3.43,3.39-6.91,4-11.22,3.94-2.89,0-5.36-1-5.51-3.56-.41-6.54-7.06-10.48-5.71-18.31,1.15-6.7,3.43-15.22-4.07-20.93-.19-6.71.11-13.48-.77-20.09-.38-2.87-4.44-5.34-4.59-8.11-.29-5.25-1.45-9.18-5-13.46-2.08-2.51-.22-8.17-.46-12.39-.08-1.47-1-3-1.8-4.31-2.71-4.82-6.43-9.31-8-14.46-1.4-4.51,1-10.2-4.54-13.41-1.12-13.1-8.65-23.54-14.32-34.77-1-2.06-2-4.71-1.62-6.86,1.12-6.51-4.36-8.63-7.56-12.15-.8-.88-3.39-.89-4.78-.34-2.63,1-3.21,2.82-.61,5,1.17,1,2.8,3,2.47,3.9-3.76,10.58,7.23,18.34,5.25,28.47,5,4.17,6.38,9.73,5,15.67-1.72,7.27,2.35,12.53,5.23,18.25s7.37,11.27,5,18.22c-2.62,7.55,4.25,12,5.12,18.28.77,5.56-1.09,11.1,4.08,16.32,3.48,3.52-.91,11.73,5.71,15.25.89,5.51-1,12,5.4,15.57,0,5.07-1,10.48.48,15.09,1.13,3.53,5.26,5.71,4.92,10.73-.49,7.25-1.8,15,4.79,20.91.73.65.42,3.66-.46,4.66-3.33,3.83-7,7.34-10.7,10.87-2.41,2.32-5.55,1.25-8.75-.51-5.85-3.22-4.18-10.51-8.76-14.4-1.46-1.24-1.42-4.45-1.7-6.81-.86-7.33,2.44-15.48-2.22-21.92-5.14-7.09-1.52-14.6-3-21.73-.94-4.62-6.26-7.32-5.25-13.2.66-3.77,1.82-8.53-2.41-11.58-5.05-3.65.19-10.45-3.73-13.61-5-4-1.77-10.27-4.21-13.5-3.89-5.16-3.21-10.95-5.32-15.72a115.6,115.6,0,0,1-4.88-13.3c-1.87-6-6-11.32-5.21-18.14-6.78-3.47-2.88-10.72-5.63-15.44-.81-1.4-4.38-1.63-6.64-1.52-.88.05-2.67,3-2.3,3.79,3.4,7.47,6.72,14.86,4.93,23.4,6.82,4.65,5,11.75,5,18.24,0,5.15,6.63,7.07,5.41,13.2-.91,4.54-1.95,10.15,3.52,13.74,1,.64,1.29,2.94,1.24,4.45a32,32,0,0,0,4.7,18.51c3,5-2.23,13.43,4.93,18.22q.3,7.52.61,15c10.37,5.58,1.84,17,8,24.83,5.73,7.35,1.58,17.84,2.11,26.91a12.2,12.2,0,0,1-12,12.73c-6.93.27-14.18-4.9-13-11.39,1.69-9.11-6.05-15-5.57-23.4s-.26-17,.24-25.42c.33-5.48-6.61-7.21-5.42-13.2,1-4.89,2.19-11.64-.25-14.88a21.62,21.62,0,0,1-4.66-16c-6.24-3.76-5.9-10-4.86-15.67,1.09-6-5.7-7.7-5.48-13.19s2-11.43-3.85-16.28c-3.61-3,1.25-9.75-3.66-13.69-1.56-1.25-2.85-4.66-2.28-6.44,2.64-8.24-3.54-14.1-5.84-20.65-1.53-4.35-5.12-7.94-4.62-13.36.47-5.06-5-6.3-7.23-9.66a5.15,5.15,0,0,0-1.7,1,4.72,4.72,0,0,0-1.13,2c-1.41,6.21,7.24,8.72,5.35,15.77-1.22,4.54.35,9.83.68,14.78,8,3.46.74,13.06,7.12,17.46,4.23,2.91,1.54,7.82,2,11.8.87,7.15-2.75,15.36,5.14,20.77,1.07,6.31-1.65,12.68,3.23,19.16,2.93,3.89,1.25,11.16,1.91,16.88.45,4-2.09,8.87,2.2,11.72,6,4-.17,11.49,5.25,15.77,5.61,4.43.86,11.38,2.91,16.53,1.74,4.38,5.69,7.59,5,13.26a70,70,0,0,0,0,17.77c.88,6.33-3.33,9.2-7,12.37-1.6,1.4-4.52,1.19-6.75,2-1.94.69-2.56,4.88-5.32,2.88-2.6-1.88-5.89-4.66-6.26-7.4-.91-6.66,0-13.55-.39-20.3-.4-6.35,2.83-13.6-4.14-18.69-.92-.68-.6-3-.85-4.64-1.12-7.09,1.76-14.28-4.21-21.33-4.22-5,2.42-15.08-5.76-20.38-.42-.27-.08-1.59-.22-2.4-.83-4.83,2.52-10.87-1.82-14.34-3.88-3.1-2-7.83-5.11-10.83a12.53,12.53,0,0,1-3.14-6.24c-1.1-5.46,1.73-11.3-3.91-16.37-3.94-3.54,1.41-11.94-5.63-15.31-.24-5-.21-10-.85-14.94-.33-2.62-2.44-3.91-5.42-3.67s-4.49,1.62-4.63,4.54c-.07,1.69,0,3.39,0,5.08,0,.85-.3,2.28.05,2.46,8.1,4.22,1.73,14.74,8.52,19.41,1.95,1.34,1.79,2.24-.34,3.66-3.12,2.09-4.9,6.23-2.44,8.4,4.54,4,2.68,9.65,4.82,13.35a36.12,36.12,0,0,1,4.85,18.48c.1,5.54-2.68,11.63,2.62,16.69,5,4.76,1.07,11.26,2.38,16.79.34,1.43,2.49,2.37,3,3.82,2.65,7.4,9.71,13.57,7,22.5-2,6.61,7.43,8.71,5.42,15.79-1.3,4.59.07,10,.24,15,7.26,4.73,3.75,12.12,4.59,18.45,1.25,9.36-7.35,12.32-11.75,18-.23.3-2.32-.72-3.46-1.29-3.52-1.75-7.46-3-10.36-5.53s-4-1-4.93,1.21c-1.85,4.31-3.31,8.8-5.17,13.11s-10.55,5.51-14.59,2c-3.62-3.17-10.77-16.87-10.79-21-.06-8.48-.9-17.08.24-25.4,1-7.36-3.66-12.23-5.09-18.33-1.31-5.61-.44-11.74-.54-17.63-8.33-5.18-1.43-15.33-5.8-20.3-5.49-6.26-1.31-13.93-4.55-18.52-5.47-7.76-3.89-15.61-4.8-23.63-.71-6.21-7.24-10.77-5.32-18.36.44-1.75-4.21-6.85-6.49-6.84-8,.06-7.2-7.13-10.61-10.74a9.71,9.71,0,0,1-2.78-9c1.18-6.29-6.44-8.75-5.63-15.76.88-7.68,2.76-16-3.68-23.82-4.26-5.15,2.5-15.07-5.66-20.5-.83-.55-.34-3.17-.35-4.83,0-3.39,0-6.78,0-10.17-8.85-3.74-1.35-14.85-8.7-19.31-.64-.39-1.5-1.35-1.4-1.89,2.69-15.07-7.71-25.63-13.07-37.87-3.42-7.81-3-11.12,2.52-17.46,4.18-4.81,10.95-7.49,10.76-16-.14-6.32-7.53-9-6.06-15.41-8.21-5.21-1.58-14.47-5.52-20.57s-9-12.08-8.64-19.15c.28-6-5.83-8-5.52-13.17.25-4.18.21-7.92-3.55-11.34-4.25-3.87,1.69-12.1-5.53-15.41.36-11.81-9-20.09-11.25-30.95-5-4.16-4.95-9.7-5.36-15.68-.45-6.47,3.92-9,7.43-12.23,2.51-2.29,10.9-.53,13.6,2.31,3.41,3.58,9,7.34,9.2,11.22.26,6.29,3.93,10.46,5.52,15.71S274,713,279.55,717.94c5,4.47-1.56,14.08,7.09,17.36-.89,6.07.18,11.5,5.09,15.69-1.2,6.17,2.34,10.65,4.71,15.87,1.86,4.11-.37,9.74,4.6,13.49,1.33,1,1.28,4.83.74,7.09-1.54,6.48,4.08,10.47,4.93,15.77.8,5,.43,9.72,5.15,13.32,1.72,1.32-1.94,6.71,3.73,6.58.53-3.18,2-6.53,1.35-9.48-.76-3.73-3.88-7-4.67-10.69-.85-4.06.42-8.55-.32-12.66-1.42-7.82-7.36-14.66-5-23.36a3.05,3.05,0,0,0-.79-2.17c-3.07-3.83-7.24-7.18-9.05-11.52-2.1-5,2.07-11.49-3.42-16.45-4.35-3.92-1-9.6-1.92-14.4-.15-.82.23-2.33-.06-2.44-8.57-3.35-3-12.19-6.91-17.62-3.61-5-8.07-11.35-7.7-16.8.47-6.94-7.12-9.5-5.7-15.74-5.25-4.21-4-12.49-10.17-16.14,2.71-6.75-7.9-8.89-5.39-15.57-3.48-2.73-5.31-6-4.92-10.74s.24-9.26-3.64-13.88c-2.57-3.05-1.81-9.69-1-14.47.46-2.79,3.51-6.65,6.08-7.3,5.42-1.35,11.31-1.18,17-.89.8,0,2.31,4.37,1.93,6.43-1.19,6.41,3.92,8.78,7.19,12.32.13.13,3.06-1.51,3-2.15-.41-4,2-8.54-2-11.84-5.71-4.73-3.06-11.2-2.53-16.55.33-3.32,4.46-6.72,7.59-9.18,2.63-2.05,10.59,1.46,13.69,3.46,4.21,2.72,3,7.36,5.21,10.71,6.95,10.54,10.63,22.89,18.05,33.2-1,13.48,12.75,22.41,11.17,36.15-.13,1.09,2.7,2.27,3.11,3.7,1.74,6.09,6.94,10.7,7.3,17.34,6.57,3.53,2.57,11.21,5.69,15.34,3.94,5.24,5.54,11.45,9.17,16.65-2.44,8.68,8.85,14.36,5.09,23.33,2.83,3,6.21,5.64,5.31,10.57-.09.47,1.44,1.79,1.65,1.68,1.17-.64,3-1.57,3.08-2.46.25-6.77.32-13.56,0-20.33-.09-2.27-.69-5.44-2.24-6.55-8-5.74-9-13.62-7.8-22.3,1.56-10.9-8.49-19.72-5.39-31,.36-1.31-4.44-3.65-4.43-5.5.06-7.52-8.85-12.39-5.58-20.77,1.36-3.48-.81-6.32-3.63-8.6-3.9-3.16-5.1-8.29-7.72-11.89-3.43-4.7-3.82-8.91-3.79-13.84a15.48,15.48,0,0,0-2.68-9.12c-5.22-8.19-9.57-17-7.53-27.36,1.35-6.89-6.73-10.89-5.3-18.28,1.09-5.69.1-11.77,0-17.68-7.32-4.59-3.06-12.39-5.22-18.2a64.55,64.55,0,0,0-8.89-16.74c-3.67-4.82-5-11.41-7.51-17.15-1-2.15-3.78-4.41-3.39-6.07,1.89-8.05-6.56-12.78-5.69-20.88.67-6.24,3.36-13.82-1.79-19.34-5.52-5.9.26-14.18-3.82-18.65-4.85-5.32-3.14-10.77-4.39-16.21-1.58-6.86-5.26-13.08-6.42-20.29-.41-2.55-4.81-5-3.46-8.56,3.13-8.31-4.73-13.47-5.65-20.76-.4-3.2-6-5.82-4.58-10.66,2.91-9.61-6.86-16-5.72-26,.84-7.33-6.46-14-9.36-21.24-3.79-9.43-12.29-17.28-10.41-28.76A15.22,15.22,0,0,1,225,246.33c-.35-2.66-5.71-4.34-4.33-8.19,1.68-4.68,4.66-8.95,10.28-9.26,4.12-.23,5.36-3.68,7.83-5.71,3-2.52,3.62-6.34.46-8.46-4.71-3.16-2.26-9.42-6.95-12.63-4.48-3.07,1.15-10-3.71-13.6-5.06-3.81-2.1-9.33-3-14-1.32-7-6.08-12.75-5.43-20.82.69-8.58.27-16.57,8.4-22.21,1.51-1,1.89-4.32,2.06-6.62.32-4.21,0-8.47.12-12.71.11-3.5,5.52-9.53,9.19-10.51,4.31-1.16,11,.84,13.22,4.76,4.65,8.21,10.9,16.3,12.53,25.17,1.38,7.46,6,13,7.33,20,6.79,3.47,1.24,10.94,5.24,15.7,3.51,4.17,7.51,9.29,8,14.29.54,6.07,3.15,10.58,5.32,15.75s-2.31,11.61,3,16.6c3.52,3.3,3.19,8.7,6.89,12.56,2.79,2.92-1.47,9.72,3.88,13.53,3.32,2.37.75,8.3,5.44,10.45,1.69.78,1,2.07-.82,3.59-3.9,3.21-4.31,7-.31,10.39,5.32,4.58,9.68,9.42,7.67,17.24-.13.51.9,1.89,1.28,1.85a6.79,6.79,0,0,0,3.57-1.19c3.24-2.7,6.4-5.51,5.28-10.51-.84-3.71,1.26-6.09,3.58-8.75,1.25-1.45,1.6-6.08.86-6.48-7.45-4-2.11-12.68-7-17.72-5.26-5.49-2.66-12.89-2.27-19.2.41-6.48-3.37-10.59-5.39-15.72-2.33-5.9-7.59-11-5.11-18.23-6-3.83-5.57-9.84-5-15.69.36-3.79-2.63-5.91-3.56-8.71-2.5-7.44-8.65-13.66-6.93-22.74,1-5.05,2.83-12.7-7.49-11.87-.64,0-2.58-4.27-2.27-6.29C287.92,113.3,283.9,108,282,102c-1.45-4.64-7.6-7-5.58-13,1.66-4.93-2.44-7.49-5-10.59,2.77-7.33-2.58-12.55-5.31-18.13s-4.58-11.8-9.15-16.67c-2.41-2.56-.06-5.69,2-8.64,3.2-4.61,8.59-4.16,12.58-6.9,6.08-4.19,6.4-3.7,10.4,5.17a3.69,3.69,0,0,0,1.79,1.74,2,2,0,0,0,1.7-.82c.54-2.35,1.38-4.79,1.17-7.11-.55-6.27,4.21-9.87,8.13-11.43s10.1-2.34,13.58,3.26c.87,1.41,2.39,2.39,3.54,3.64,3.42,3.74,6.27,3.06,10.62.48,8.58-5.09,14.87-3.59,18.92,3.79,3,5.46,4.83,11.55,7.35,17.28.93,2.12,2.55,2,3.5-.4.87-2.18.68-5,1.95-6.79,5.51-8,9.19-8.06,15.85-2.12,8,7.13,10.95,17.18,15.26,26.81,3.25-3.25,5.71-5.59,8-8.06,3.52-3.74,7-3.94,10.49-.07,2.58,2.86,6.28,4,8.51,1.13,4-5.11,9-3.66,13.82-3.74,7.06-.11,13.49,4.91,13,11.56-.87,10.93,8.69,19.73,5.46,31-.67,2.32,5.5,4.29,8.05,2.57a13.81,13.81,0,0,0,1.81-1.78c-5.73-3.92-5.23-9.78-4.95-15.63C449.7,73,454.27,66.8,459.22,66c5.22-.83,10.73-.31,13,5.11,2.69,6.5,8.4,11.78,7.88,19.66-.26,4-1.12,8.28,3,11.48s.34,8.36,2.21,11.72,5.71,5.79,5.34,10.68c0,.63,4.17,2.29,6.34,2.17,3-.16,5.28-6.12,2.7-7.64-7.91-4.66-.57-15.54-8.82-19.46-.23-7.53-.56-15.07-.66-22.6-.05-3.72,4.88-9.91,8.51-11.18a12,12,0,0,1,13.42,4.31c3.67,5.12,5.88,11.1,8.52,16.79,3.09,6.63,7.61,10.5,15.42,9.54,1.34-.16,4.11,1.15,4.11,1.77,0,6.71,7.9,10.52,6.08,18A12.06,12.06,0,0,0,551,129.69c1.48,1.12.72,5.84,2.06,6.41,2.87,1.22,6.45,1.12,9.71,1,1.27-.07,3.61-1.93,3.51-2.73-1.24-9.64,3.71-20.11-3.65-29-.5-.6-1.2-1.34-1.21-2-.08-6.78-.19-13.56,0-20.34s-8.64-10.71-5.13-18.24c-3-11.2,5.28-16.75,11.7-23.1,2.45-2.43,10.54-.84,13.78,1.28,6,3.93,4.79,12.08,10.14,16.22-3.32,8.16,4.58,13.38,5.58,20.72.89,6.62,4.32,13.31,9.12,19.08,2.76,3.33-1.38,9.71,3.78,13.66,4.88,3.74-1.16,11.61,5.38,15.62,4.14,2.53,7.48,6.48,7.37,12.12,0,.59,1.05,1.54,1.74,1.68.47.1,1.67-.89,1.7-1.44.41-6.65.87-13.32.88-20,0-5.65,1.91-12-4.46-15.93-.19-5-2.39-11.41-.1-14.71,3.67-5.3,3.77-12.49,9.67-16.55,4.34-3,12.15-3.31,15.64.53,1.66,1.82,4,3.53,4.6,5.69,2.29,8.45,8.34,15.16,10.55,23.67.39,1.5,3.58,2.93,5.63,3.18,2.75.34,3.63-1.81,4.51-4.54a62.17,62.17,0,0,1,6.91-14.9c4.73-7.22,13.28-8.13,19-2.58,4.69,4.53,9.52,8.85,11,15.82.45,2.09,3.25,3.83,5.29,5.3.47.34,3.26-1.15,3.21-1.64-.83-9.62,4.2-17,9.34-24.17,3.05-4.29,12-5.22,15.48-1.84,9.65,9.51,19.18,19.14,28.76,28.72.64-.64,1.23-1.25,1.84-1.84,12.06-11.58,12.31-11.5,26.41-.56,3,2.31,8.27,3.09,9.46,5.87,1.27,3,1.68,6.5,4.62,8.18,5.63,3.21,5,10,8.87,14.24,3.24,3.48,8.85,5.73,7.4,12.21-.1.45,1.29,1.81,1.62,1.69,1.21-.42,3.22-1.27,3.24-2,.22-9.32.55-18.68,0-28-.34-5.54,2.5-9,5-13.27,4.45-7.49,10-9.33,16.21-3.23,4.36,4.31,8.51,8.4,15.08,6.59,7.48-2.08,11.18,6.29,18,6.08.57,0,1.14,2.73,1.83,4.13,4.16,8.46,8.52,16.82,12.51,25.35,3.69,7.87,9.82,15,7.92,24.75-.27,1.4.26,4,1.18,4.42,7.76,3.78.3,13.27,7,17.66,4.23,2.76,1,7.88,1.86,11.83-6.24,3.76-5.42,9.9-5,15.69.29,3.82-2.52,5.84-3.72,8.68-2.57,6-3.56,13.35,1.19,18.54,4.15,4.52-.1,10.64,3.56,13.76,4.8,4.1,4.25,8.9,3.85,13.74s3.32,7.38,4.48,10.88c1.36,4.08,3.89,7,5.47,10.5s.35,8.32.35,12.56c0,15.85-.37,16-17.59,25.54-3.48,1.93-5.81,5.94-10.61,5.14-4.59,7.35-12,4.39-18.33,4.79-2.81.17-3.65-1.9-4.54-4.63-1.67-5.18-4.43-10-6.79-15-1-2.13-3.34-4.44-3-6.27,1.71-8.79-4-15.42-6-23.06a2.67,2.67,0,0,0-1.76-1.69c-.53-.06-1.61.94-1.72,1.58-2.05,12.52-1.74,20.12,4.53,30.43,3.19,5.24,5.68,9.81,4.79,15.88,5.63,3.05,5.54,9.7,8.33,14.44,2.64,4.46,2,11.25,1.67,17-.38,6.19,2.37,10.65,4.94,15.86,3.08,6.25,7.55,12.7,5.45,20.64-1.45,5.45,6.3,7.27,5.23,13.17-.89,4.92-2,11.3.26,15,3.28,5.24,5.5,9.91,4.64,16,9.49,3.41,1.08,15,8.84,19.23.45,6.6.61,13.23,1.44,19.78.59,4.68,6.28,7.29,5.17,13.2-.89,4.79-1.2,10.18,4.14,13.48.51.32.63,1.42.75,2.19,1.15,7.21-2.59,15,2.87,21.71,4.89,6,1.28,13,2.11,19.43.73,5.66,7.42,8.9,5.36,15.72-1.54,5.12,1.5,9,4.55,13.38,2.41,3.44-.38,9.09,3.76,13.79,2.62,3,2,9.53,1.53,14.34-.58,5.66,3.43,8.88,5,13.27s.82,9.85,1.08,14.83c7.14,4.87,3.35,12.26,4.33,18.56,1.37,8.89.36,15.67-3.49,19.81-4.75,5.1-8,5.78-12.21.94-3.66-4.21-8.62-6.84-10.36-13.55-1.34-5.16-3.66-10.23-5.11-15.69-1.11-4.23-4.77-7.88-4.66-13.32s1.81-11.26-3.14-16.53c-4.2-4.47,1-12.91-2.43-16.47-4.86-5.11-2.06-12.23-5.34-15.6-5.89-6-3.39-12.49-4.19-18.83-.1-.75-.39-2-.86-2.11a33.31,33.31,0,0,0-6.87-1.49c-.31,0-1.49,2.51-1.13,3.38.92,2.16,3.43,4,3.62,6.07.51,5.89-.43,11.94.34,17.77.84,6.34-2.94,13.15,2.95,19.16,4.5,4.6,1.14,11.24,2,16.9,7.18,4.55,5.92,12,4.8,18.19-1.35,7.49,6.53,11.2,5.54,18.31-.8,5.83-1.17,12.08.14,17.72,1.2,5.18,4.76,9.86,7.5,14.63,4.88,8.52,9,17,7.63,27.46-.88,6.66-.17,13.54-.17,20.32,7.77,5.45,4.44,13.6,5.09,20.79,9,3.57,1.43,14.9,9,19.21a3.06,3.06,0,0,1,1.17,2c.95,6.31-2.94,13.71,4.24,18.6.3,5.81,1.46,11.74.69,17.41-1.28,9.45,7.25,16.15,5.61,26-1.52,9.07-.33,18.6-.33,27.92,9.42,10,3.37,22.34,5.1,33.5.75,4.86-2.32,10.67,1.65,14.48,5.27,5,2.94,10.92,3.35,16.49.38,5,.08,10.15.08,15.23-1.44-.6-3.75-.83-4.19-1.86-2.16-5,1.13-12-5.51-15.47-.16-5.86-.62-11.73-.37-17.57.17-4.12-3-5.63-5-8.14-3.62-4.59-5.95,1.93-7,1.35-4-2.16-9-3-12.23-5.74-6.18-5.16-13.76-10-11.87-20.53.36-2-4-4.91-6.29-7.31a1.84,1.84,0,0,0-1.72-.22c-.71.4-1.78,1.23-1.71,1.74,1.14,8.71-3.87,18.56,4.89,25.95.83.71,0,3.27.14,4.94.72,7.33-2.5,15.42,2.18,21.88,5.11,7-.26,15.73,3.29,21.44,6.85,11,3.28,22.49,4.85,33.65.64,4.53,3.66,8.67,4.78,13.18,1,3.93-.1,8.54,1.44,12.11,1.21,2.82,3.94,4.75,3.88,8.59-.24,16.07,0,32.14-.14,48.22-.06,6.25-6.8,11.44-13.74,11-5.49-.36-11.49-5.7-11.63-10.58-.14-5.07-.48-10.2.09-15.21.64-5.55-2.2-9.09-5-13.26-2.57-3.78-5.1-8.69-4.9-13,.27-5.78-6-9.49-5-13,2.34-8-6.45-11.55-5.56-18.34-5.19-4.08-5.83-9.64-5.09-15.65-5.93-3.85-5.62-9.79-5-15.65.38-3.75-2.3-5.87-3.51-8.74a221.4,221.4,0,0,0-14.87-29.31c-3.43-5.64,1.08-14-6.89-17.5,1-6.84-7.2-10.71-5.51-18.14,1.11-4.88-4.5-6.56-7.14-9.56-2-2.25-8.1.13-7.84,2.88.59,6.33-3,13.58,4,18.7.94.69,1.11,3.06.93,4.57-.84,6.83,1.89,12.32,4.77,18.38,2.59,5.45-2.27,13.52,5.06,18.23.45.29.34,1.52.41,2.32.51,6.4-2.22,13.68,5,18.24,0,5.91.26,11.82.05,17.72-.18,5.21,6.61,7,5.42,13.17-.87,4.49-2.24,10.28,3.44,13.64.46,8.27,2.52,16.87.89,24.7-1.44,6.93-7.69,12.39-15.11,14.76-5.52,1.76-14.25-4.3-15-9.74-.87-6.54,3-14.17-1.71-19.46-5.45-6.19-3-12.77-3-19,0-5-5.2-7.7-4.91-10.53.69-6.63-7.47-8.72-6-15.8.8-3.85-2.45-8.93-4.76-13a39.05,39.05,0,0,1-5.51-15.67c-.45-3.9-4.06-8.25-6.08-12.53s-8.4-5.74-8.65-11.66c-.2-5-7.26-7.09-5.54-12.93-3.41-2.16-4.58-7.35-10.86-7.2-.6.3.36,0,1.15,0,0-2.37.29-4.8-.14-7.08-.19-1-1.81-1.85-2.9-2.58a3.57,3.57,0,0,0-1.57,1.61c-1,3.11-.91,6.07,3.46,8,1.15,6,1.15,11.88,1.15,17.81,6.32,3.63,4.35,10,5.61,15.51.64,2.77,4.43,4.21,4.75,8.21.51,6.46-3,13.72,2.27,19.28,4.94,5.24.14,12.15,3,16.51,3.9,6,4.54,11.8,4.95,18.44.39,6.22,7.81,10.87,4.88,18.23,8.31,4,1.7,14.66,8.59,19.33a3.61,3.61,0,0,1,1.53,1.88c1.64,7.88-3.93,16.91,3.86,23.82.43,8.29.43,16.63,1.42,24.86.72,5.92-2.09,9.43-6,12.84-2.51,2.2-4.71,4.82-7.43,6.69-1.07.73-3.65.52-4.78-.31-6.83-5-10-12.9-12-20.29-2-7.08-.42-15.13-.43-22.75,0-11.26,0-11.26-8-28.92-4.22,4.77-8.27,9-11.86,13.51-3.23,4.1-7.56,3.11-11.51,2.79-3.75-.3-9.55-6.66-9.2-10.25.77-7.67-3-14-4.81-20.88-1.86-7.14-.39-15.14-.43-22.76,0-1.63.34-4.25-.49-4.75-9.08-5.54-.86-16.25-7-22.68-1.5-1.58-3-4.6-2.48-6.41,2.21-8.12-3.2-14.15-5.68-20.66-1.67-4.38-5.43-7.79-4.9-13.31.18-1.95-1.55-4.79-3.27-6.09-6.17-4.66-6.55-12.92-11.79-18.06,2.7-10.51-6.16-14.6-11.49-20.64a3.16,3.16,0,0,0-1.7-.69,25.68,25.68,0,0,0-2,4.22c-2.42,7.19,5.58,11.29,5.29,18.22-.23,5.6-3,12.67,1.86,16.75,5.58,4.66,0,11.8,5.17,15.8,5,3.87,3.08,9.39,2.71,14-.51,6.29,7.64,8.74,5.54,15.76-1.39,4.65-.92,10,4.2,13.44.88.6.56,3.09.63,4.71.27,5.68-.75,11.15,4.53,16.12,2.93,2.75-1.56,9.85,3.83,13.53,1.07.74,1.54,2.75,1.78,4.26.89,5.5-1.76,11.39,3.51,16.44,3.94,3.78.9,9.62,1.62,14.47s6.61,7.22,5.27,13.18a34.21,34.21,0,0,0,0,12.64c1,6-2.41,9.24-6,12.86-2.26,2.25-3.85,5.16-5.73,7.77-4.52-4.53-7.7-7.37-10.44-10.57-1.5-1.75-3.37-4.24-3.16-6.18.62-5.57-3.17-8.93-4.91-13.31s-.32-10-.41-15.09c-.06-3.32.85-8.62-.75-9.59-7.23-4.37-1.52-13.13-6.92-17.75a7.93,7.93,0,0,1-2.41-4c-1.23-5.47,2.54-11.69-3-16.6-4.46-4-1.1-9.6-2.28-14.28-.56-2.23-2.13-4.19-3.13-6.31-2.35-5-6-9.79-6.57-14.95s-1.82-9.47-5.47-13.1c.66-12.91-8.54-21.88-13.3-32.6-1.87-4.22-2.06-9.52-6.91-12.47-3.58-2.17-6.16-5.55-5.61-10.38,0-.21-2.23-.87-3.44-.92-.4,0-1,1.19-1.22,1.92a7.34,7.34,0,0,0,0,2.52c.27,3.19-1,6.69,2.25,9.27,1.21.95,2.6,2.51,2.71,3.88.53,6.65.65,13.32.92,20,6.44,4,2.77,10.76,4.51,15.93,2.58,7.68,6.77,14.83,4.86,23.38,7,5.62,4.68,13.52,5.09,20.76,8,5.31,4.19,13.62,5.25,20.69,8.23,5.39,3.8,13.77,4.91,20.83.25,1.62-.24,4.33.54,4.73,7.53,3.88,1.9,12.9,7.09,17.53.63.56,1.48,1.08,1.76,1.81,3,7.69-2,16.31,3.48,24,5.19,7.34,1.38,16.24,2.44,24.36.54,4.14-4.59,5.67-4.6,8.14,0,7.12-3.4,8.57-9.35,7.84-5.68-.7-11.78-5-11.09-10.69.83-6.86-5.73-9.85-5.55-15.73.15-5.08-.71-10.3.19-15.22,1.63-8.85-3.15-15.8-6.6-22.74-1.86-3.75-4.69-6.94-3.62-11.16,1.65-6.55-3.79-10.4-5.12-15.72-1.18-4.75,2.2-10.58-1.77-14.44-4.27-4.16-2.93-11.25-8.49-14.36,1.91-6.4-6.6-8.73-5.6-15.75.68-4.71-3.12-10.32-5.6-15.17s-8.22-9.36-8.37-14.14c-.25-8.46-4.86-13.21-9.15-19.36-5.28-7.58-8.06-16.9-12-25.42-.65-1.39-1.57-3.11-2.81-3.66a6.92,6.92,0,0,0-4.88.17c-.76.31-1.49,2.55-1.09,3.37.69,1.44,2.93,2.27,3.33,3.7,1.55,5.53-2,12.38,2.12,16.81,5,5.27,1.86,11.22,3.57,16.44,2,6,6.82,11.11,5.17,18.16,5.2,3.12,4.74,8.15,4.92,13.25.2,5.55-2.12,11.59,3.82,16.35,1.78,1.43.7,6.26,1.18,9.5,1,6.4-2.8,13.92,2.77,19.07,5,4.6-1,12,5.17,15.82,1.14.7,1.85,2.62,2.14,4.1,1.11,5.48-2.28,11.59,3.21,16.54,4.35,3.91,1.53,9.56,1.8,14.38.29,5.13,6.83,7.06,5.45,13.18a41.36,41.36,0,0,0-.07,15.17c1.23,7.67-1.73,12.94-7.51,17.32a46.71,46.71,0,0,0-3.62,3.56,6,6,0,0,1-8.64-.13c-2.87-2.85-5.86-5.19-6.08-10.27-.28-6.33,3.22-13.53-2.92-19-4.68-4.19,1.32-12-5.31-15.68-1-.58-1.79-2.92-1.58-4.28,1.47-9.54-2.61-17.57-7.61-24.81-6.44-9.32-6.59-21.06-12.84-30.29.85-5.37-6.88-7.17-5.39-13.21.33-1.34-4.9-4.31-4.5-5.33,3.29-8.47-6.19-13.21-5.49-20.89.64-6.92-4.08-10.23-10.06-14.4,0-4.92.3-7.39-.14-9.72-.2-1.07-1.8-1.93-2.89-2.71-.1-.08-1.51,1-1.57,1.63a53.67,53.67,0,0,0-.36,9.47c.1,1.28,1.5,3.33,2.57,3.51C548.6,982.44,544.93,978.38,546.13,979.47ZM321.84,704.92a18.6,18.6,0,0,0-2.45-2.9,2.2,2.2,0,0,0-2.14,0,2.17,2.17,0,0,0,0,2.14,10.47,10.47,0,0,0,3,2.31c.19.1,1-1-6.09-4.53,1.44,0,2.54.31,2.94-.09s.08-1.49.09-2.28c.07-6.85-.46-7.73-5.57-7.71-1.32,0-2.67,1.12-3.92,1.87-.15.09,0,1.21.37,1.59C310.14,697.7,312.31,700,321.84,704.92ZM617.36,412.74c0-.79.28-1.74-.06-2.34-.72-1.28-1.62-3.23-2.68-3.4-4.71-.74-2.17,3.16-2.13,4.59,0,1.7,1.77,3.34,2.76,5,.7-1.29,1.41-2.57-8.43-19.5.45,3.16.4,5.74,1.3,7.91.43,1,2.71,1.26,4.15,1.85-.8-4.1,5.13-5.36,4.45-7.79-.79-2.83-4.39-4.87-6.78-7.26C608.83,393.7,607.72,395.58,617.36,412.74ZM655.78,473a4.56,4.56,0,0,0,2.18,0,31,31,0,0,0,0-7.08c-.2-1-1.81-1.85-2.9-2.57-.14-.09-1.36.93-1.57,1.6-1,3.11-.92,6.08,4.6,17.82,0,2.44-.3,4.94.14,7.3.2,1.1,1.79,2,2.88,2.79.09.07,1.55-1,1.59-1.65.27-4.82.53-9.66.35-14.47a5.25,5.25,0,0,0-2.57-3.63c-2.25-1.19-2.9-.16-2.47,2.35S658.06,480.33,655.78,473ZM536,382.82c-1.74,4.34.91,8.35,5.36,11.51a6.92,6.92,0,0,0,3.55,1c.4,0,1.22-1.24,1.21-1.89-.13-4.84,1.49-10.2-4-13.55-2-1.23-3-4.59-6.05-3.32-.6.25-.09,3.16-.09-10.35,0-3.38.17-6.77-.08-10.13a13.14,13.14,0,0,0-1.67-4.35c-1.18-2.48-6.63-5.82-7.05-4.6-.78,2.24-1.54,4.75-1.27,7,.87,7.06,6.93,12.69,5.83,20.42-.07.5,1,1.44,1.72,1.72,2.49,1,3.05.1,2.61-2.5S536,368.73,536,382.82Zm-86.5,498c0-.79.28-1.74-.05-2.34-.72-1.27-1.62-3.22-2.69-3.39-4.7-.75-2.17,3.16-2.12,4.58.05,1.7,1.76,3.35,2.76,5,.7-1.28,1.41-2.57-3-9.74,0-4-.31-8,.08-12,.43-4.39-1-7.71-4.45-10.17-3.75-2.65-5.33-8.11-10.9-8.39,0-2.29.65-4.88-.2-6.79-.69-1.55-3.19-2.29-4.88-3.38,0-4.21,1.68-9.81-.38-12.32-3.49-4.24-6-8.27-4.55-13.31,2-6.8-5.11-9.93-5.24-15.62-.15-6.48,1.24-13.37-5.1-18.1,3.1-7.38-3.25-12.18-5.37-18-1.89-5.18-6.24-9.46-4.8-15.67-5.79-4.89-5.48-11.54-5-18.1.34-5.15-4.21-6.75-6.64-9.89a1.83,1.83,0,0,0-1.71-.35c-.72.37-1.72,1.11-1.74,1.73-.17,4.19,0,8.4-.18,12.6-.24,5.19,6.88,7.07,5.53,13.06-.32,1.4,4.26,3.49,4.46,5.48.69,6.63.41,13.37.5,20.06,7.31,4.57,4.42,11.89,4.74,18.22.34,6.72-1.52,14,.54,20,1.92,5.63,4.07,11.84,8.56,16.74,1.76,1.92.65,6.3,1.21,9.5.46,2.63,1.95,4.25,5.11,4,3.34-.28,6.73-.06,10.1-.06,0,2.29-.65,4.88.2,6.79.69,1.55,3.19,2.29,4.88,3.38,0,2.4-1,5.62.17,7.05,5.78,7.06,8,15.93,12.77,23.44C442.27,875.27,443.57,875,449.45,880.83ZM803.34,498.44h2.27c0-.75.3-1.72-.05-2.23-1.18-1.67-2.63-3.76-4.42-.7-.24.41,1.42,1.93,4.46,13,.64,4.8-2.16,10.71,1.8,14.23,4.83,4.29,2.21,9.31,3.51,13.81.61,2.12,3.24,3.76,5.19,5.33a6.1,6.1,0,0,0,3.51,1c.4,0,1.21-1.22,1.21-1.88,0-3.3,1.06-8.34-.61-9.57-5.88-4.35-2-12.23-5.4-15.36-5.36-4.94-2.81-10.81-4.93-15.82a3.51,3.51,0,0,0-1.77-1.73c-2.47-1-3-.1-2.59,2.48S805.61,506,803.34,498.44ZM393.49,1135.26c0-5.74.25-9-.12-12.29a5.6,5.6,0,0,0-2.57-3.69c-2.26-1.2-2.64-.14-2.51,2.36.33,6.54,0,13.12.24,19.67,0,1,1.8,2,2.88,2.82.08.06,1.53-1,1.6-1.67.34-3.2.43-6.43-4.61-33.4-.27-6.44,2-13.6-5.09-18.11,0-5,.32-10.14-.4-15.08-.16-1.11-4.14-2.45-6.26-2.29a3.9,3.9,0,0,0-3.42,5.34c1.31,3.65,5.19,7.39,4.65,10.51-1.83,10.45,7.33,18,6.28,28-.05.52,1,1.44,1.73,1.72,2.48,1,3,.1,2.6-2.5S388.4,1111.59,393.49,1135.26Zm346-616.87c0,2.44-.3,4.94.13,7.3.2,1.09,1.8,2,2.89,2.79.09.06,1.55-1,1.59-1.65.26-4.82.53-9.66.35-14.48a5.3,5.3,0,0,0-2.57-3.63c-2.25-1.18-2.9-.15-2.48,2.35s.09,4.87.08-10c2-7-3.11-12.07-4.77-18.07s1.69-13.42-5.4-17.89c3.41-8.16-5.47-13.07-5.43-20.38,0-.59-1.5-1.77-1.63-1.68-1.13.75-3,1.84-3,2.64.62,6.27-3.06,13.5,3.76,18.48.4,7.2,5.39,13.49,5.73,20,.4,7.61,8.85,12.34,5.78,20.52-.32.87,1.27,3.11,2.48,3.76,2.3,1.24,3.1.16,2.52-2.41C739.17,504.5,739.47,502.76,739.47,518.39ZM503.86,869.31c2.07.91,4.61,1.4,6.27,2.89a156.68,156.68,0,0,1,12.57,12.55c1.5,1.68,3.17,4.35,2.87,6.27-.91,6,2.91,8.94,6,12.9,5.47,6.92,10.56,14.33,9.42,24-.41,3.5,1,6,3.05,9,3.12,4.39,4.43,10,7.22,14.71,5.69,9.53,6.23,21,12.52,30.42,4.83,7.23,9,15,8.07,24.71-.32,3.34,4.07,6.92,4.5,10.59.46,4.07,4.27,5.08,5.25,8.06,1.24,3.79-1.77,8.4,2.07,11.85.63.56,1.09,1.46,1.82,1.73,1.84.7,2.16,5.37,5.27,2.31,1-.93,1.61-3.74,1-4.44-4.75-5.36-5.58-11.56-5-18.33.29-3.36.7-6.94-.12-10.11-1-3.72-4.26-7-4.67-10.66-.56-5.06-1.42-9.05-4.69-13.52-2.43-3.32-1.09-9.82-.5-14.8s-3.71-7.21-4.87-10.72c-1.51-4.58-.35-10-.51-15.09,0-.62-1.32-1.09-1.69-1.81-2.83-5.6-7.76-11.22-7.81-16.86-.06-7.82-3.74-13.87-5.53-20.77-1.21-4.61,2.07-10.25-2.83-14s.37-10.55-3.71-13.58c-4.52-3.36-2.47-9.41-6.93-12.59-4.15-3-2.14-8-1.64-11.81,1-7.89,1.43-7.72-.77-10.84-3.2-4.54-6.53-9.11-8.83-14.11-1.29-2.81-.63-6.51-.81-9.82-.31-5.65,1.68-12-4.75-15.81-.11-6.72-.19-13.45-.41-20.17a2.9,2.9,0,0,0-1.38-1.91c-5.66-3.44-4.22-9.23-3.36-13.7,1.17-6.14-6.13-8-5.32-13.18,1.46-9.52-3.2-17.1-7.39-24.9-1.1-2.06-3.12-4.63-2.63-6.38,2.69-9.68-6.78-16.5-5.65-25.93.26-2.21-3.9-5-6.1-7.42a2,2,0,0,0-1.73-.57c-.72.34-1.74,1.11-1.76,1.72-.17,6.75-.18,13.5-.23,20.25,10.37,6-.2,20.21,10.17,26.26,0,6.77,1.42,13.94-.34,20.22-2.41,8.64,5.82,13.2,5.66,20.84-.14,7.25-2.58,15.1,2.23,21.82s1.32,14.6,2.79,21.75c.44,2.13,3.09,3.73,4.23,5.84.71,1.34,1.28,3.88.57,4.66-4.83,5.36-8.23,12.36-16.58,13.79-7.4,1.28-10.18-4.57-14.36-8.32-2.44-2.18-4.45-4.35-4.83-8.23-.27-2.82-3.64-5.21-4.66-8.12s0-7-1.54-9.49c-1.71-2.81-4.49-4.89-3.68-8.67,1.05-4.87-2.57-7.31-4.8-10.77-2.07-3.22,1.78-8.5-2.07-11.75-5.58-4.72-2.59-10.9-3.29-16.44-.83-6.51-8.44-7.83-10.17-13.56a4.41,4.41,0,0,1,0-2.52c3.05-9.57-6.95-16.49-5.28-25.87.2-1.09-1.59-2.74-2.74-3.82a20.33,20.33,0,0,0-5.4-4.09c-2.16-.94-2.48,4.38-.22,8.56,1.12,2.08,3,4,3.3,6.22,1,8-2.31,16.78,5.22,23.27.83,7.3-2.41,15.28,2.31,21.85,5,7,2.37,14.53,2.6,21.75.33,10.11-.75,20.32,9.81,26.48-.43,6.86,5.42,9.7,8.85,14.15a10.81,10.81,0,0,1,1.73,6.79c-.21,3.72,2.37,5.94,3.43,8.79,2.39,6.43,6.53,11,11,15.85,2,2.13,1.82,6.75,4,8.09,3,1.87,5.92-.93,8.56-3.31C498.16,869.93,501.09,870,503.86,869.31ZM485.07,570.37c-.1,12.54-.26,12.72,14.69,26.48,3.89,3.58,4.74,8.27,7.2,12.31,5.35,8.77,9,18.32,13.73,27.37-2.7,6.66,6.5,10,4.86,15.62-2,7,5.1,9.73,5.82,15.68.5,4.14,5.74,7.63,4.69,13.23a5.55,5.55,0,0,0,1.36,4.4c5.65,5.23,10.71,10.6,8.9,19.24,6.46,3.57,3.57,10.42,5.59,15.47,2.32,5.8,7,10.66,9.26,16.48s8.24,10.73,5.58,18.24c-.11.3,3.63,2.46,5.74,2.85,1.17.22,3.94-1.62,3.85-2.21-1-6.3,3.31-13.34-3.08-18.95-4.51-4,1.59-12.09-5.43-15.53-.47-.23-.91-1.64-.84-1.68,9-5.77,2.3-10.88-.35-16.45-1-2.07,0-5-.2-7.55s.2-6-1.17-7c-6.18-4.54-3.36-10.79-3.8-16.33-.46-5.71-6.79-8.84-5.47-15.73,1.18-6.2,2.32-13.6-4.79-18.17,2.56-7.26-2.54-12.46-5.18-18.17-4.66-10.09-12.3-19.09-10.23-31.43.19-1.12-1.57-2.75-2.69-3.87-4.83-4.82.94-14-7.16-17.38-1.09-5.63,2.26-12.36-2-16.86-5-5.26-2.87-11-3.19-16.54-.39-6.76,0-13.55-.12-20.33-.09-6.49,1.57-13.52-5.06-18.22,1.17-12.58-.72-24.3-9.26-34.32-.9-1.05-1.07-3.15-.85-4.65,1.63-10.9-8.66-19.74-5.32-31,.26-.9-1.76-2.6-2.89-3.76-4.73-4.85,1.5-14.16-7.12-17.39,0-4.23.66-8.61-.2-12.66-.78-3.73-5.12-7.5-4.5-10.56,1.41-6.9-6.55-10.12-5.27-15.72,1.77-7.69-7.15-10.93-6.3-17.89.05-.41-1.11-1-1.71-1.44-.79,1.36-2.24,2.73-2.24,4.1a33.81,33.81,0,0,0,1.21,9.62c.64,2.2,3.34,3.95,3.57,6.08.55,5,1.07,10.35,0,15.17-1.55,6.76,4.22,10.29,5.34,15.73,1.46,7.09-2.89,14.57,3.3,21.61,5.25,6-2.05,16.85,6.84,22.46.2,7.29-1.69,15.09,5.09,20.77-2.41,8.66,3.67,15.52,4.8,23.34.64,4.46,3.93,7.51,4.56,10.79,1.56,8.15,1.38,16.83.49,25.15-.37,3.43-6,5.56-5.06,10.69.08.45-4,1.68-6.19,2.57a8.93,8.93,0,0,0-2.11,1c-.63.5-1.5,1.23-1.51,1.87-.12,5.93.57,11.95-.26,17.76C489.2,560.07,483.27,564.05,485.07,570.37Zm114.83-153c-.6.37-1.66.66-1.73,1.11-1.31,8.06-3.44,16.28,1.36,23.9,5.78,9.18,9,18.89,7.69,29.87-.6,5.13-.35,10.12,4.82,13.23-1.74,7.07,3,12.22,5.17,18.18,1.68,4.51-2.25,10.41,2.08,14.33,5.49,5,2,11.1,3.28,16.51.54,2.19,3.63,4,3.62,6,0,9.87,8.54,17.54,6.57,27.93-.92,4.86.36,9.15,3.93,13.7,2.5,3.19,2.17,10.12.64,14.53s-6.4,7.48.38,11.16c-1.46,7.38,1.15,12.94,7.1,17.48,1.65,1.26,3.24,4.35,2.88,6.22-1.55,7.92,8.71,12.62,5.28,20.8,3.63,4.6,6.39,9.48,5.09,15.68,5,3.5,3.69,10.73,8.42,14.26,2.65,2,1.87,4.6,1.66,6.93-.33,3.7,2.37,6,3.33,8.8,2.26,6.68,7.94,11.94,7.27,20.05-.36,4.32,5.39,7.35,5.13,13.13-.19,4.29,2.21,9.35,4.92,13,3.68,4.92,6.68,10,4.71,15.77-3.11,9.19,7.58,14.66,5.32,23.38-1.06,4.13,5.2,5.42,4.73,8-1.1,6,5.55,7.77,5.56,13.19,0,12.23,11.72,20.8,11.44,33.43,0,.29,4.42,1.27,6.56.84,2.31-.47,2.36-2.15.76-3.46-1.3-1.07-3.38-2.32-3.45-3.57-.36-6.75-1.63-13.93.13-20.21,2.43-8.65-6.76-13.25-5.4-20.85,1.85-10.36-1.64-19.64-7.71-27.21-4.42-5.51.91-14-6.86-17.65-.48-.22-.73-1.45-.69-2.18.25-4-1.42-8.5,2.85-11.51,3.55-2.5.44-4.07-1-5.33-3.28-2.76-.86-6.44-1.93-9.41-1.31-3.67-3.76-7-4.88-10.67-1.4-4.62,2.34-10.52-2.2-14.25-4.95-4.06-.68-10.54-3.75-13.63-4.21-4.22-2.8-9.4-4.74-13.41-3.06-6.3-4.94-13.68-11.12-18.32-5.33-4-7.6-10.26-11.16-15.59-4.38-6.54-2.43-13-2.49-19.28-.07-6.14-3-10.59-4.91-15.83-2.17-6-.9-13.19-1.27-19.86,0-.63-1.07-1.27-1.73-1.79-4.12-3.19-1.13-8.13-2.76-11.55-2.06-4.32-5.33-7.66-5.19-13.26.08-3.49-3.91-6.91-4.55-10.62-.85-4.94-.09-10.14-.29-15.21-.05-1.49-.57-3.57-1.62-4.3-4.32-3-3.34-7.28-3.4-11.38-.08-5-6.22-7.12-5.36-13.18.94-6.54-4.4-12-7.73-16.86-4.46-6.5.65-13.5-3.29-19-1.93-2.72-3-5.64-4.36-8.35-2.27-4.36-5.81-7.88-4.69-13.35L601.7,419.18Zm-36.25,401.8c-3.95,3.66-1.35,8.21-2.31,12.09-2.06,8.36-2.46,8.74.41,10.84,8.24,6,10,16.9,17.85,23.19,1.11.89,2.34,3,2,4.1-2.11,6.65,3.71,10.44,5.39,15.67s4.56,10,7,14.86c3.53,7,6.24,14.71,11,20.73,4.32,5.42,9.18,9.76,7.22,17.44,5.83,3.83,4.34,12.29,10.18,16.11-2.81,7.33,3.35,12.16,5.14,18.2a16,16,0,0,0,2.33,4.1c.46.7,1.25,1.16,1.76,1.83,2.41,3.12,4.8,3.83,5.37,1.53.39-1.56,1.24-3.92.53-4.69-4.18-4.58-6.73-9.93-4.77-15.73,2.39-7.08-7.25-8.85-5.59-15.82,1-4.33,2.19-9.91-3.14-13.81-4.53-3.3,1.31-10.25-3.71-13.59-6.43-4.29.87-13.93-7.1-17.48-.54-.23-.87-1.34-1-2.08-.83-6.32,1.49-12.61-4.06-18.83-4.47-5,2.62-15.14-5.75-20.3q-.19-10.08-.4-20.17c4-2.45,7.84-5,11.88-7.31,3.29-1.88,6.33-1.17,8.64,1.84s4.64,1.4,4.74-.89c.29-7.26,1.88-15.07-4.9-20.75,1.37-5-5.93-7.06-4.81-10.5,3.26-10-6.17-16.88-5.31-25.93.52-5.4-7.28-7.26-5.15-13.14,3.48-9.64-8.45-16.18-5.21-25.78-8.59-4.61-1.82-16.47-10.05-21.25,2.11-8.6-7.09-14.72-5.09-23.3a31.37,31.37,0,0,1-6.45-12.58,1.85,1.85,0,0,0-1.7-.63c-.72.33-1.8,1.17-1.75,1.71.83,8.73-4.2,18.58,4.81,25.77,1.11,8.73-2.67,17.86,4.72,26.17,3.23,3.63-2.34,11.75,2.61,16.47,5.32,5.08,1.87,11.14,2.81,16.66.27,1.65-.67,3.91.15,5,8.37,11.16,3.81,24,5,36.08.23,2.42-.31,5.7,1,7.1,8,8.33,4.64,14.95-2.61,21-2.22,1.86-3.52,6.6-7,4.89-2.83-1.4-6-2.62-8.38-4.14C574,830,569.07,824.23,563.65,819.18ZM607.06,572c-.15-3.56,2.16-10.76-5-15.32,0-4.24.1-8.47,0-12.71-.14-4.94-5.82-7.19-5.42-13.17.46-7-6.21-12.66-5.79-20.44.15-2.75-4.29-1.95-6.55-1.58-1.36.22-2.23,2.61-3.66,3.34-5,2.56-13.71,1.85-13.37-.5,1-6.7-7.57-8.87-6.06-15.59a30.54,30.54,0,0,0,0-12.63c-.79-3.73-4-7-4.69-10.69-.75-4,.09-8-3.85-11.24-4.12-3.39,1.3-10.12-3.71-13.61-5.22-3.64-1.11-9.58-3.6-13.77-2.85-4.78-6-9.41-9-14.1,4.65-3.81,4.52-7.43-.45-10.85,1.24-5.12-2.5-7.69-5.6-10.35-3.42-2.95-5.07-6.21-4.67-10.86.42-4.92,1.13-10.24-4.26-13.44,1.37-7.76-3.21-14.2-6.27-20.24-3.27-6.46-10.16-11-15.22-16.65-1.64-1.82-2.66-2.42-3.6-.45-.67,1.4-1.55,3.54-1,4.56,5.65,9.78,12.13,19.22,10.05,31.45,6.5,4.73,4.82,11.73,5.16,18.22.08,1.49.61,3.55,1.68,4.29,4.3,3,2.65,7.45,3.52,11.36.84,3.73,5.14,7.5,4.52,10.57-1.5,7.53,7.81,11.32,5.39,18.27-2.88,8.27,5.11,13.2,5.66,20.77.49,6.82,5,13.05,5,20.8,0,6,7.2,10.95,4.76,18.26-.13.39.9,1.43,1.58,1.79,7.25,3.82-.55,13.81,7.17,17.39.44,4.9.78,9.82,1.36,14.7,1.07,9,4.48,16.94,11.16,23.36,1.51,1.45,3.26,1.6,3.47-.68.4-4.47,2.33-7.58,5.49-10.54,2.75-2.58,5.74-3.92,8.68-1.61,9.11,7.13,12.9,14.28,17.07,28.48,1.53,5.22,4.17,10.12,6.41,15.12a1.84,1.84,0,0,0,1.71.5c.72-.35,1.7-1.09,1.75-1.73C607.18,580,607.06,577.46,607.06,572ZM408.75,560.92c-2,7.22,3,13.29,5,20.14,1.31,4.58-2.1,10.29,2.74,14.06s-.22,10.55,3.7,13.57c4.44,3.41,2.34,9.7,7,12.47,3.85,11.92,14.13,21.56,12.33,35.58-.23,1.79,2.64,3.84,3.7,6,1.76,3.5,2.21,7.33,5.1,10.71,2.21,2.59.26,8.62,2.4,11.43,2.75,3.62,2.86,7.35,4.18,11.07,2.39,6.68,5,13.21,6.22,20.23,4.87,1.9,2,7.94,5.42,10.39,4.25,3.05,2.81,7.35,3.46,11.33.35,2.16,2,4.38,3.7,6,3.59,3.48,6.93,6.91,7.17,12.31a2.37,2.37,0,0,0,1.71,1.61,2.47,2.47,0,0,0,1.73-1.67c.37-5,.55-9.94.79-14.91-7.94-7.37-4.42-17-5-25.79-.35-5,1.34-10.72-.46-15s-5-7.79-5-13.27c0-3.53-3.11-7-4.77-10.57-2.7-5.77-6.39-10.89-5.35-18.21,1-7.11,1.93-15-4.83-20.68,0-5.07-.58-10.22.15-15.19.92-6.35-7.18-8.7-5.48-15.72,2.38-9.77-8.43-17.7-5.09-28.34.85-2.71-6.87-8.31-10.67-8.67a26.84,26.84,0,0,0-5.07,0c-7.81.75-13-2.78-14.32-10.28-.69-4-3.86-5.2-5.64-7.85a7,7,0,0,0-1.71-1.72c-1.09.85-2.71,1.76-2.91,2.89C408.45,555.2,408.75,557.79,408.75,560.92Zm206.3-347.4c-12.87,0-12.89,0-12.95,8.89,0,4.24-.66,8.61.18,12.68.81,3.86,7.58,7.27.11,11.2,1.6,1.8,4.3,3.42,4.6,5.42,1.39,9-2.89,19.06,2.28,27,5.83,9,1.3,18,3,26.8.45,2.44-.59,5.48.53,7.39a19.36,19.36,0,0,0,7.12,7.06c1.57.85,5.34,0,6.6-1.37,4.86-5.44,11-2.62,16.52-3.29,4.16-.5,5.27,3.64,7.85,5.54,1.35,1,2.25,2.75,3.69,3.4.82.37,2.47-.65,3.46-1.42.41-.32.34-1.72,0-2.43-3-7.12-10-13.95-1.26-21.84.38-.33-.86-3.36-1.07-3.32-4.93.74-8-2.19-10.41-5.62-2.23-3.19-3.13-7.39-5.61-10.31-4.37-5.15,1.55-14.22-7-17.56-.29-.11.09-1.62-.06-2.44-.9-4.8,2.44-10.48-1.87-14.41-5.43-5-2.31-11-3.19-16.54-.13-.8.1-2-.35-2.35-3.56-2.66-4.19-6.63-5.74-10.38C620.69,213.8,615.73,213.72,615.05,213.52ZM902.29,994.07c-.95-6.32,2.92-13.64-3.91-18.72q-.6-9.93-1.18-19.85c-7.48-8.43-4.49-18.74-5.12-28.4-.1-1.58,0-3.9-1-4.59-7-5.12-3.78-12.39-4-18.73-.52-15.68-1.58-17-19-18.65-5.67-.55-10.74-4.68-11.51-10.63-.53-4.15.23-8.42-4-11.07.35-9.86-8.45-17.54-6.38-27.93,1.19-6-3.06-6.67-7.68-6.57-.59,0-1.15-1.17-1.81-1.7-1.16-.94-2.39-1.81-3.58-2.71-.7,2.26-1.3,4.55-2.12,6.76-2.21,5.93,6,8.16,5,13.12-1.86,8.81,8.7,14.34,5.53,23.22,7.16,11.39,14.54,22.68,16.17,36.52,5.21,2.45,3,8.9,7,12.5,3.35,3,2.56,9.27,7.07,12.18-2,5.81,6.3,7.74,5,13.14-1.32,5.67,3.63,8.8,4.89,13.23,1.72,6.06,8.47,10.73,5.33,18.16,6.38,4.77,5.24,11.73,5,18.22-.2,5.31,7.42,7.21,5.29,13.18-.12.34,1.36,1.78,1.66,1.65,1.2-.49,3.07-1.31,3.17-2.18A98,98,0,0,0,902.29,994.07ZM671.52,397.26c-1.14.83-3.2,1.71-3.13,2.37.64,6.35-2.48,13.07,3.44,19,2.29,2.29.31,8.48,2.36,11.47,2.44,3.56,4.31,6.48,4.39,11,.11,6.34-2.86,13.68,4.26,18.48.22,6.68.41,13.36.71,20a2.85,2.85,0,0,0,1.09,2c5.55,3.35,1.93,10.06,4.34,13.34,3.8,5.15,5.41,9.95,4.7,16,6.06,3.75,5.22,9.82,5.26,15.6,7.28,4.57,3.53,12.12,5.2,18.2,1,3.6,4.53,6.72,7.43,9.52,2.39,2.3,7.53-.46,7.48-3.93,0-3.24.61-8-1.18-9.45-6-4.79-3.36-10.84-3.76-16.38-.41-5.73-6.91-8.84-5.5-15.73.92-4.47,2.77-10.71-1.42-14.32-4.94-4.25-2.63-9.25-3.41-13.95-8.57-4.58-1.82-16.48-10.1-21.2,2.4-8.66-7.17-14.7-5.09-23.29-3.69-4.57-4.08-10.19-5.73-15.46s-4.68-9.8-4.81-15.87C678,402.24,673.87,399.82,671.52,397.26ZM691.06,310c4.29-3.7,9.08-7,7.79-14.16-1.13-6.26,2.58-13.71-4.81-18.33,1.37-7-3.49-12.1-5.14-18.13s1.7-13.55-5.4-18.1c2.62-7.27-3.29-12.16-5-18.22-.77-2.73-1.8-4.07-4.74-4.49-8-1.16-10.94.79-10.5,8.71.4,7.29-2.46,15,2.38,21.81s1.56,14.53,2.62,21.76a3.41,3.41,0,0,0,.94,2.12c6.49,5.06,4.79,9.44-.51,14.29-.92.84.34,6.27,1.09,6.38C680,295.19,684,304.51,691.06,310ZM756,442.57c-5-.32-7,2.13-4.94,3.47,7.23,4.75-.24,15.8,8.81,19.33v10.15c0,1.69-.69,4.36.11,4.92,7.87,5.51,4,13.76,5.21,20.78,8.18,5.4,3.69,13.77,4.84,20.82.27,1.6-.27,4.13.6,4.73,7.12,4.93,3.72,12.2,4.52,18.52.56,4.46-1.06,7.66-4.2,11-5.43,5.82-11,9.94-19.5,8.34a7,7,0,0,0-4.74.61,5.81,5.81,0,0,0-2,4.11c-.07,1.45.64,4,1.49,4.23,3.12.8,6.52.5,9.67,1.25,3.77.89,7.19,7.92,11.2.32,7.15.23,14.62-3,20.86,4.32,2.72,3.18,7.87-1,7.51-6-.18-2.43.33-6.06-1-7-5.1-3.74-5.07-9.11-3.8-13.61,2-7-6.54-9.28-5.53-15.75.88-5.63,1.45-11.89-4.79-15.67,2-7.11-2.89-12.23-5.06-18.19-1.64-4.51,2.33-10.52-2.18-14.24-4.94-4.08-.76-10.52-3.74-13.6-4.09-4.23-3.42-8.84-4.73-13.46-1.49-5.23-6-9.43-5-15.78C759.76,445,756.69,443.26,756,442.57ZM424,740.09c0-3.38,1.4-8.26-.28-9.85-4.21-4-5.19-8.13-4.88-13.41a78.64,78.64,0,0,0-.27-12.56c-.25-2.47-6.95-3.11-2.39-7.14,5.58-4.92-3.4-5.88-2.36-9.46C415.7,681.29,409,677,409.22,672c.29-6.56-3.76-10.5-5.67-15.61-2.23-6-7.12-11.07-5-18.23,1.5-5-3.9-7-4.81-10.63-1.19-4.75,0-10.07-.85-15-.36-2-3.6-3.44-5.07-5.47s-3.19-2.44-3.52-.15c-.92,6.37-2.06,12.3-5.74,18-1.73,2.69.25,7.35,2.17,11.43,2.94,6.23,7.61,11.6,8.29,19.57.53,6.32,4.64,13.29,9.55,18.66-3.06,7.39,5.38,12.08,4.75,18.14-.83,8,2.65,14.33,5.71,20.61,2.52,5.17,3.65,10.45,5.45,15.55s5.27,9.79,4.59,15.89c-.06.57,2,1.56,3.22,2,.33.11,1.53-1,1.63-1.71A34.13,34.13,0,0,0,424,740.09ZM792.4,839.83c-.68.68-1.58,1.17-1.81,1.89-.74,2.23-.6,5-1.93,6.75-10.77,13.8-11.31,16.47-3.32,32.31,3.87,7.67,7.11,15.74,11.44,23,4.94,8.3,8,16.89,10.72,26,.82,2.76,3.63,5.08,3.4,8.75,0,.76,2.39,2.15,3.83,2.41a8.26,8.26,0,0,0,4.58-1c2-.94,1.58-2.09-.45-3.55-7.83-5.64,1.73-16.64-6.91-22.6-1.74-1.21-1-6.16-1.23-9.39-.3-4.12,1.18-10-1-12-5.35-5-4.23-10.63-4-16.2.28-6.06-6.59-8.76-5.64-15.66.81-5.89-7.59-10.68-4.82-18.12C795.45,842,793.41,840.73,792.4,839.83ZM719.12,727.68a42.52,42.52,0,0,0,0,5.05c.67,5.5-1,10.86,3.19,16.49,2.91,3.9,1.58,11,2.15,16.62,10.35,6.08-.72,20.23,9.89,26.2,0,5.05-.08,10.1,0,15.15.13,6.49.39,6.66,7.39,6.71s8.11-2,8.12-8.78c0-5-4.87-6.5-5.3-10.52-.53-4.89,1.12-11.36-1.44-14.38-3.88-4.59-1.95-9.84-4.08-13.59-2.93-5.15-5.73-9.7-4.71-15.77-8.12-3.55-2.32-12.82-6.84-17.28-5.95-5.86-1.89-12.7-3.39-18.89-.17-.69-1.36-1.81-1.69-1.69-1.2.45-3.13,1.27-3.19,2.07C719,719.25,719.12,723.47,719.12,727.68ZM337.31,406.86c-.83,0-2.1-.22-2.38.2-.69,1-1.59,3.05-1.22,3.4,2.57,2.38,4.18,4.82,3.9,8.62-.37,5-2,11.38.35,14.88,3.48,5.21,5.39,9.91,4.65,15.9,8.72,3.23,1.81,13.24,7.09,17.17,6.32,4.72-.88,14,7,17.49.4,4.9,1.72,9.93,1,14.66-1.32,8.74,3.66,15.4,6.1,22.89.82,2.51,1.87,2,3.62.11,3.39-3.59,8-6.59.85-10.82-1.09-5.62,2.32-12.51-2-16.75-4.59-4.52-1-10.89-3.67-13.6-4.92-5-4.88-10.15-4.74-16,0-1.66.51-4.28-.3-4.83-6.09-4.06-5.34-10.23-4.6-15.82.85-6.39-7.95-8.83-5.33-15.65,3.12-8.1-5.41-13-6.12-20.24C341.44,407.82,338.77,407.4,337.31,406.86Zm514.1,108.58c-.3-4.88.64-9.38-3.82-13.8-3.55-3.51-5.31-9.64-6.12-14.88-1-6.56,1-13.74-.61-20-1.52-5.83-6.61-10.64-9.21-16.31-1.27-2.79-.23-6.56-.73-9.81-.16-1-1.88-1.88-3-2.57-.17-.1-1.62,1.07-1.64,1.69-.2,5.85.63,11.88-.5,17.52-1.34,6.66,5.64,10.47,4.92,15.53-1,6.77,4.61,10.12,5.51,15.59,1.06,6.45-3.13,14,1.91,19.27,5.79,6,1.42,12.81,3.32,18.9a3.51,3.51,0,0,0,1.77,1.73,1.91,1.91,0,0,0,1.72-.49C848.16,524.23,853.29,521.62,851.41,515.44Zm-57.95-256c5.33-.39,6.67-1,3.65-5.71-2.64-4.17-.84-8.07-1.68-12-.49-2.32-.36-5.16-1.69-6.82A61.91,61.91,0,0,0,783,224.34c-1.31-1-4.55,0-6.65.76s-4,2.63-6.07,3.64c-5.64,2.69-7.52,5.19-4.38,8.18,4.4,4.18,3.9,8.69,4.22,13.59.08,1.29,2.28,3.68,2.63,3.53C781.08,250.47,785.83,260,793.46,259.46Zm-50.54.55c-1.21.7-3.26,1.3-3.3,2-.28,5-.15,10.06-.15,15.09,7.18,4.47,4.51,11.66,5.24,18,.25,2.12,2.86,3.89,3.43,6.07,1,3.85.17,8.56,2.11,11.67,2.18,3.49,5.44,6.11,4.49,10.79-1,5.09,3.16,7.2,5.84,10.17.56.62,1.18,1.19,1.77,1.78.85-1.31,2.38-2.61,2.43-3.95.1-3.21.74-8-1-9.4-5.87-4.71-3.71-10.68-3.82-16.18-.11-5.86-7.51-8.8-5.3-15.55,2.79-8.47-8.23-14-5.38-23.16C749.76,265.76,745.23,262.58,742.92,260ZM362.54,862.08c.59,7.68,8.38,12.86,5.69,21-.59,1.81,1,4.47,1.89,6.61,3.25,7.88,9.71,14.55,8.88,24-.05.53,2.55,1.54,4,1.89,2.93.72,4.78-1,5.27-3.6.46-2.42,1.16-6.27-.08-7.29-6.87-5.68-3.61-15-8.79-21.75-4.42-5.77-8.28-13.72-6.33-22.32.9-3.95-2.38-5.8-4.6-8.1-1.53-1.58-2.74-3.67-5.4-.8-2.85,3.09-4.56,5.44-3.41,7.15A24.93,24.93,0,0,0,362.54,862.08ZM782.32,275a37.29,37.29,0,0,0-2.12,4.12c-3,7.94,7.5,12.52,5.18,20.45-.37,1.24.41,3.27,1.34,4.34,2.72,3.14,7.84,5.73,8.23,9,.58,4.79,2.8,7.5,5.85,10.2.84.75,2.31.79,3.49,1.16.44-1.49,1.74-3.65,1.19-4.35-4-5-4.21-11.79-8.92-16.46-2.54-2.53-1.52-6,1.36-8.45a15.57,15.57,0,0,0,1.77-1.77c2.61-3,7.25-5.1,5.82-10-1.63-5.66-6.73-3.21-10.43-3.41-4.12-.22-8.34.51-11-3.78C783.75,275.47,782.92,275.29,782.32,275ZM671.53,763.77c-.59.09-1.33,0-1.76.33-.62.47-1.54,1.31-1.45,1.86.84,5.61-2.6,12,2.06,16.8,2.66,2.76,3.53,5.63,2.89,9-1.8,9.42,7.41,16.17,6.09,25.5-.06.38,2.69,1.63,4.13,1.63s4.08-1,4.14-1.66c.33-4,1.66-9.62-.37-11.58-4.47-4.34-2.22-9.62-4.12-13.69-2-4.36-4.55-7.93-5.11-13.22S673.83,768.73,671.53,763.77ZM520.69,196.84c0-2.51.18-5,0-7.54-.54-6.31-8.08-10.61-5.22-18.09.31-.81-1.64-2.58-2.7-3.78-3.17-3.59-1.93-9.75-7.06-12.17-2.1-1-4.2-2.31-6.41-2.62-1.2-.17-2.64,1.49-4,2.32,9.72,3.2.81,15,8.74,19,4.11,9.2,8.2,18.41,12.37,27.58.32.72,1.15,1.67,1.74,1.67s1.5-1,1.72-1.67A36.35,36.35,0,0,0,520.69,196.84Zm312.66,26.85c-4.14,0-5.8.09-7.45,0-4.85-.32-4.86,3-5,6.41-.3,5.41-.06,10.22,7.53,8.87,2.56,4.86,8.21,4.29,12,6.88A34.56,34.56,0,0,1,844,249c.79-2.15,1.76-4.26,2.33-6.47,1.83-7.09-6.49-10.66-6.1-17.3ZM743.13,116.84c-1.22.93-3.42,1.79-3.49,2.81-.37,4.93-.24,9.91-.16,14.88.16,9.52,9.36,15.53,18.53,11.91,1-.39,2.1-3.08,1.67-4q-5.64-12.57-12-24.79C747.22,116.8,744.69,117.07,743.13,116.84Zm52.15,292.85.78-.07c-.71-5.67.41-12.75-2.6-16.64-3.77-4.87-1-10.54-3.49-13.74-3.4-4.3-5.05-8.08-4.8-13.37.24-4.9-5-6.24-7.31-9.54a6.58,6.58,0,0,0-1.69,1.16c-.49.58-1.17,1.48-1,2.05,1.78,6.82,6.5,12.76,6,20.27,7.94,3.48,1.42,12.44,6.92,17.48s1,12.76,2.3,19.15c.16.81-.32,1.94.09,2.47a10.26,10.26,0,0,0,3.13,2.52c.19.11,1.61-1.07,1.65-1.7C795.37,416.39,795.28,413,795.28,409.69ZM368.05,808.16c0-1.69.53-3.62-.11-5-1.33-2.84-4.16-5.2-4.77-8.1-.84-4-.18-8.38-.24-12.59a3.84,3.84,0,0,0-.62-2.24,47.94,47.94,0,0,1-10.69-25.93,2,2,0,0,0-1.68-1c-.72.26-1.76,1.11-1.74,1.69.15,5.66-1.5,12.78,1.29,16.61,3.53,4.84,1.38,10.15,3.67,13.71,2.79,4.33,4.79,8,5,13.29.14,3.57,3.31,6.94,4.7,10.57.78,2,.26,5.19,3.78,3.37C367.61,812,367.61,809.66,368.05,808.16Zm422.6,12.15c1.41-10.41-3-19-8.47-27.15a11.9,11.9,0,0,0-5.34-3.85c-2.26-.92-3.3,4.91.27,8.34,4.6,4.42.68,11,3.66,13.65,5.38,4.79,3.77,10.55,5.14,15.9a2.8,2.8,0,0,0,1.77,1.69c.46.11,1.56-.79,1.7-1.39C790,825.14,790.25,822.71,790.65,820.31Zm-127.5,76.47c2-8.57-6.93-14.71-5.25-23.34.21-1.07-1.65-2.64-2.7-3.86s-2.2-2.78-3.64-3.47c-.82-.39-3.39.74-3.37,1,.28,4-2.26,8.6,1.41,11.9,2.79,2.49,2.39,6.12,3.87,8.55,2.11,3.46,5.14,6.19,5.12,10.69,0,.59,1.12,1.19,1.72,1.79ZM586.83,233.94c0-2.48,1-6.2-.18-7.21-5.17-4.27-5.4-9.6-5-15.43a2.36,2.36,0,0,0-1.45-1.76c-2.22-.34-4.6-.87-6.69-.36-2.36.57-2.37,2.19-.39,3.36,5.56,3.31,3.59,8.81,3.33,13.37-.28,4.8,1.91,7.67,5.14,10.31a22.08,22.08,0,0,0,3.47,1.94C585.67,236.75,586.25,235.35,586.83,233.94ZM683.5,556.38c3.87-7.57-5.93-12.25-5.24-19.67,0-.48-2.08-1.36-3.29-1.67-.39-.09-1.31,1-1.58,1.71a7.19,7.19,0,0,0-.06,2.46c0,4.13-1,8.63.29,12.3,1.24,3.47,6.09,5.45,5,10.44-.07.32,2.08,1.34,3.29,1.65.38.1,1.47-1,1.57-1.69A42.68,42.68,0,0,0,683.5,556.38ZM599,166.07c-3.53,9.05-2.42,15.23,4,20.43,2.71,2.17,7.54,2.33,8.31-.2.63-2,1-5.09,0-6.52C608,175.3,603.85,171.37,599,166.07ZM293.38,641.77c-.64.78-1.41,1.31-1.61,2-2.58,8.76,4.48,14.54,7.08,21.69.25.7,4.33.49,6.41-.09,2.37-.66,2.1-2,0-3.41-4.89-3.23-2.78-10.78-8.32-13.89-.72-.41.23-3.25-.33-4.66C296.24,642.56,294.46,642.29,293.38,641.77Zm270.73-474c-.6.54-1.8,1.36-1.7,1.58a149.6,149.6,0,0,0,6.78,13.59c.43.71,3.33.57,4.68,0a5.17,5.17,0,0,0,2.66-3.55c.37-4.89-4-9.73-10-11.54A9.1,9.1,0,0,0,564.11,167.72ZM368.05,1053c.2,1.27.12,5.49,1.68,9,1.06,2.37,4.2,4.18,6.81,5.36,2,.92,3.22-5.06-.16-8.11-4.71-4.24-2.48-9-3.38-13.6-.17-.84-2-1.51-3.24-1.88-.37-.11-1.53,1-1.63,1.65C367.88,1047,368.05,1048.69,368.05,1053ZM764.89,193.16l5-2.4c-1.65-1.74-3.21-3.58-5-5.2a9.1,9.1,0,0,0-3.88-2.45,6.08,6.08,0,0,0-4.46.84c-1,.82-1.43,2.65-1.77,4.11-.7,3,1.25,4.46,3.76,5C760.09,193.46,761.8,193.16,764.89,193.16ZM383.17,142.59c2.06-7.18-2.3-11-6.72-14.72a1.85,1.85,0,0,0-1.67.12c-.65.43-1.48,1.1-1.57,1.76-.23,1.6-.68,4.32,0,4.73,4.79,2.75,4.16,8.28,6.78,12.05a1.85,1.85,0,0,0,1.62-.12A38.65,38.65,0,0,0,383.17,142.59Zm-73.63-35.92c-.58.58-1.45,1-1.7,1.75-2.43,6.82-.51,12.25,4.94,17,1.81,1.57,2.44,2.21,3.57-.12.33-.68.95-1.57.75-2.1-1.85-5-3.83-9.87-5.87-14.76C310.94,107.72,310.11,107.25,309.54,106.67Zm282.38,23.4c0-4.3.29-6.84-.11-9.27-.24-1.42-1.59-2.64-2.44-4-.84,1.32-2.4,2.62-2.41,3.94-.06,4.88.33,9.77.72,14.64a2.4,2.4,0,0,0,1.69,1.65c.59,0,1.55-1,1.7-1.65C591.59,133.08,591.83,130.68,591.92,130.07Zm205,7.12c-5.23,0-7.22,2.29-6.47,6.26.48,2.55,1.81,4.24,5,4,3.84-.3,6.06-2.43,5-6.29C799.87,139.36,797.67,138,796.87,137.19ZM607.35,376.32l-4.25,1.55a16.16,16.16,0,0,0,1.49,3.42,34,34,0,0,0,3.41,3.49l1.73,1.73c.84-1.28,2.26-2.49,2.44-3.85C612.72,378.26,611.27,376.59,607.35,376.32ZM779.29,776.64c.29-3.65-3.55-4.38-5-6.79a10.39,10.39,0,0,0-1.7-1.75c-.85,1.28-2.29,2.49-2.44,3.85-.58,5.27,2.33,7.69,7.25,6.29C778,778,778.57,777.26,779.29,776.64Zm-111-269.33c0-1.65.33-3.4-.1-4.93s-1.6-2.64-2.45-3.94c-.84,1.3-2.19,2.52-2.43,3.93a23,23,0,0,0,0,7.41c.24,1.4,1.59,2.62,2.43,3.93a35.65,35.65,0,0,0,2.49-3.94A6.28,6.28,0,0,0,668.24,507.31ZM408.92,910.56l-4.25,1.55a15.86,15.86,0,0,0,1.49,3.41,34.09,34.09,0,0,0,3.41,3.5l1.73,1.72c.84-1.27,2.26-2.48,2.43-3.84C414.29,912.5,412.84,910.83,408.92,910.56Zm330.69-328c-.76-.76-1.3-1.78-1.92-1.83-2.21-.19-5.15-.9-6.48.2s-1.59,4.16-1.74,6.39c0,.58,2.67,2.12,3,1.84C735,587.13,737.28,584.78,739.61,582.53ZM284.06,625.68c1.43-1.43,2.55-2.08,2.49-2.57-.32-2.25-.29-5.22-1.69-6.46s-4.26-.57-6.47-.48c-.61,0-1.69,1.54-1.66,1.58C279.11,620.44,281.57,623,284.06,625.68ZM887,151.23l-2.55-3.86c-.85,1.29-2.5,2.66-2.37,3.84.24,2.17,1.52,4.23,2.37,6.34C885.32,155.44,886.17,153.34,887,151.23ZM388.8,168.35l-2.94-5.72c-.85,2.11-2.14,4.17-2.37,6.34-.13,1.18,1.52,2.55,2.37,3.84Zm272.61,10.36c-.58,0-1.32-.14-1.71.15-2.55,1.9-2.47,7,.12,8.37a1.93,1.93,0,0,0,1.69-.12C664.06,185.21,664,180.2,661.41,178.71ZM526.12,294.2c-1.08-1-2.8-3.59-3.62-3.32-2.75.87-2.72,6.27-.17,8.16.39.3,1.53.34,1.64.13C524.68,297.84,525.2,296.41,526.12,294.2ZM809,339.91c2.55-1.49,2.65-6.51.1-8.41a1.93,1.93,0,0,0-1.69-.12c-2.59,1.42-2.67,6.47-.12,8.37C807.65,340,808.39,339.87,809,339.91Zm-365.32,1.15c2.21-.92,3.64-1.44,5-2.15.21-.11.17-1.25-.12-1.64-1.9-2.55-7.3-2.58-8.17.17C440.06,338.26,442.6,340,443.64,341.06Zm325.63,422.3c2.21-.92,3.65-1.44,5-2.15.21-.11.17-1.25-.12-1.64-1.89-2.55-7.3-2.58-8.17.17C765.69,760.57,768.23,762.28,769.27,763.36ZM455,941.72,452,936c-.85,2.1-2.13,4.16-2.37,6.33-.13,1.18,1.52,2.56,2.37,3.84ZM670.78,516.53c-1.26,4.27-2.32,6.41-2.38,8.58,0,1.27,1.53,2.57,2.38,3.86.85-1.29,2.42-2.59,2.39-3.86C673.1,522.93,672,520.78,670.78,516.53ZM307.34,677.24c-.92-2.21-1.44-3.64-2.15-5-.11-.2-1.25-.16-1.65.13-2.55,1.89-2.57,7.3.18,8.17C304.54,680.83,306.25,678.29,307.34,677.24ZM799.79,481.37,798,478.09c-.56.56-1.68,1.25-1.59,1.67a16.26,16.26,0,0,0,1.59,3.42ZM373.87,262.58l1.81,1.81a16.19,16.19,0,0,0,1.59-3.41c.09-.42-1-1.11-1.59-1.67Zm12,698.87c-.57.56-1.69,1.25-1.6,1.67a16,16,0,0,0,1.6,3.42c.56-.57,1.68-1.26,1.59-1.68A16.42,16.42,0,0,0,385.86,961.45Z"/><path d="M963.34,975.72c0-5,.32-8.43-.1-11.74-.33-2.59.13-3.45,2.6-2.49.72.28,1.66,1.08,1.74,1.73.69,5.64,1.2,11.29,1.76,16.95,6.46,4,3.37,10.44,4.22,15.91,1,6.2,8.13,10.75,5,18a7.34,7.34,0,0,1-2.87,2.65c-2.52-2.2-6-4.22-7-7.09-2.17-5.92,2.31-12.87-3.54-18.81C960.69,986.36,964.78,979.63,963.34,975.72Z"/></svg>