<svg id="Layer_1" data-name="Layer 1" xmlns="http://www.w3.org/2000/svg" viewBox="0 0 1200 1200"><title>BB_Artboard 25</title><path d="M882.69,826.17c-6.82.28-14.32-2-19.35,5.12-3-3.85-5.19-5.45-9.93-1-2.5,2.35-8.5,1.51-12.85,1.21-9.3-.65-17.89-.2-23.69,8.68-.79,1.21-2.84,1.94-4.42,2.23-7,1.26-15.17-3-20.83,1.92-6.62,5.83-13.67,3.3-20.37,3.3-7.34,0-11.76,8.57-19.47,5.69-7.15-2.68-10.6,5.12-16.75,5.68-2.85.26-5.5,2.78-8.24,4.28-5.64-10.18-8.92,3.74-15.1,1.47-6.38-2.35-14.29-.52-21.54-.52-5.35,8.2-17.3,2.67-22.66,10.87-5.13.43-10-.65-15,3.7-3.2,2.79-10.13,1.31-15.38,1.74-2.63.21-6.93-.51-7.63.76-4.36,8-13.95,1.67-18.88,7.48-1,1.21-3.1,2.77-4.26,2.47-6.94-1.78-11.18,4-16.84,5.44-3.4.87-7.28-.26-10.8.31a12.08,12.08,0,0,0-6.6,3.46c-1.85,2-2.35,2.16-4.09,0-1.19-1.46-2.46-5.13-5.71-1.48-4.74,5.33-9.32,10.76-18.12,8.91-5.21-1.09-10.85.11-16.25-.29-4.88-.35-8.65.92-11.64,4.84-3.43,4.5-7.53,7.24-13.78,6.36-2-.29-4.4,2.17-6.68,3.25-5.29,2.5-10.48,6.42-16,7-5.69.57-9.49,3.55-14.17,5.43-4.43,1.78-10.82,1.86-14.43-4-.06-.08-3.43,1.3-3.38,1.84.47,5.54-1.31,8.27-7.4,8.07s-12.82-1.88-16.9,5l-5.76-5.08c-3.88,6.75-10.59,5.22-16.63,5.8-.69.07-1.9,1.67-1.83,1.78.89,1.18,2,3.13,3,3.14,21.73.18,43.46,0,65.19.19,7.11.05,11.16-8.27,19.58-5.82,5.84,1.71,12.58.33,18.92.33,7.24,0,15.48,2.27,21.55-.41,20.72-9.14,42.12-3.77,63.13-4.66,7.45-.32,11.51-7.8,19.52-6.06,6.06,1.31,12.62.26,19,.26H651c6.34,0,12.68.06,19,0,6.12-.08,9.45-7.21,16.82-5.72,7,1.41,14.43.3,21.67.3h19c6.34,0,12.86-1,19,.23,8.64,1.67,13.62-7.32,22.28-5.94,8,1.27,16.26.27,24.41.27s16.34.51,24.43-.17c5.81-.48,9.66-6.74,16.82-5.52s14.44.26,21.69.26c6.34,0,12.71-.42,19,.11,7.34.6,10.94-8.31,19.61-6,7.59,2,16.18.43,24.33.43,7.24,0,14.5-.27,21.72.11,4.2.22,6.09-3,9.09-4.44,7.06-3.34,11-1.63,16.62,3.66,4.84,4.55,4.42,10.38,2.25,14.6-2,3.87-4.5,6.89-4.7,11.75-.24,5.94,3.86,15.12-2.79,17.13-6.83,2-10,6.85-14.89,10.22-.65.45-2.85-.46-3.69-1.35-2.79-3-5.81-3.76-9.33-1.69-2.2,1.31-4.05,3.71-6.37,4.24-9.35,2.14-19.19-2.95-28.64,3.18-8.7,5.65-19.22,2.16-28.83,2.09-7.45,0-11.61,7.8-19.53,6-5.17-1.21-7.54,6.89-14.05,5.46-5.18-1.14-10.82-.31-16.25-.21-7.79.16-16.13-1.85-22.2,5.42-8.42-1.53-17.65,3.57-25.62-4.17-2-2-5.52,5.51-10.65,4.32-3.44-.8-7.24-.4-10.82,0-1.13.13-2.13,2-3,3.14-.08.11,1.18,1.77,1.82,1.77,18.07.2,36.14.27,54.21.38,3.17,0,2.79-7.44,7.86-3.57,2,1.51,4.43,3.41,6.65,3.39,8.59-.08,17.93,2.61,24.91-5.26h24.45c12.68,0,25.36.23,38-.1,5.92-.16,12.38,2.26,17.48-4.1,1.52-1.9,6.66-1.18,10.15-1.19,29-.08,58,0,86.92-.11,6,0,12.32,1.76,17.38-4.39,1.54-1.87,7,0,10.19-1.15,5.86-2.14,9.81,6.65,13.16,3.73,5.81-5.06,11.78-3.05,17.72-3.48,5.4-.4,10.86-.12,16.29-.07,4.42,0,5.64,1.37,5.54,6.85-.11,6.05,1.58,12.3-4.54,17.33-1.86,1.52-1.35,6.89-.72,10.28,2,10.48-3.89,16.9-11.12,22.57a17,17,0,0,1-7,2.7c-6.76,1.36-14.31-2.5-20.45,3.14-5.44,5-12,1.76-18,2.23-7.2.56-14.48.15-21.72.13-6.15,0-12.77,1.4-16.82-5.3-1.28,1.19-2.37,2.84-3.89,3.46-2.28.93-6.52,2.27-7.05,1.48-5-7.33-8.25-2.79-11.79,1.19-2.38,2.67-4.75,4.88-9,4.72-9-.36-18.1-.22-27.16-.07-6,.1-12.83-1.94-17,4.94-3.92-3.62-8.12-5.78-13.87-5.11-6.87.8-14.3-1.77-19.71,5.38-1,1.31-5.23-.14-7.9.24-11.94,1.69-25.1-4.6-35.78,5.38-10.87,0-21.74-.18-32.6.09-4.23.11-9-1.87-12.63,2.25,3.94,4.68,7.25,10.5,14.85,8.51,6.83-1.79,11.2,3.65,16.82,5.26,5,1.43,10.82.13,15.51,2,3,1.21,5.57,5,9.31,3.55,9.7-3.71,15.62,7.92,25,5.65,4.31-1,5.79,3.61,8.34,5.85,5.9,5.18,10.19,13.24,20.19,10.36,4.17,3.08,9.26,5.45,9.3,11.76s-.56,12.75.19,19c.65,5.46-4.92,7.21-5.48,11.37-.6,4.45.28,9.09-.26,13.55-.5,4.2-5.72,6-5.65,11.35.06,4.46-5,4-8.44,3.57a17.2,17.2,0,0,1-7.13-2.36,53.24,53.24,0,0,0-31.85-8.63c-22.61.72-45.27.4-67.9.08-6.44-.08-10.32,1-10,8.54,0,.71-4.54,2.51-6.77,2.23-2.47-.32-4.38-2.48-1.06-5,2.39-1.79,3.18-5.27.1-5.39-15.37-.58-30.79.09-46.17-.4-8.49-.27-18.1,3.34-24.91-5.3-7.73.51-16.2-2.19-22,6.09-4.76,6.82-8.81,4.74-15.29.39-7.55-5.06-17-9-27.08-6.48-4.19,6.11-10.41,5.75-16.76,5.49s-12.68-.1-19,0c-5.42,0-7.58-7.11-14.09-5.68-5.19,1.14-10.82.23-16.25.23s-10.87-.15-16.3,0c-5.15.19-11-1.84-14.71,4.05-.16.26-2.62-.52-3.66-1.29-7.27-5.36-15.57-2.58-23.3-2.55-7.58,0-15.94-3-22.67,4.37-2.41,2.66-6.6.78-9.08-2.39a21.61,21.61,0,0,0-1.9-1.93c-7.81,9-18.22,4.4-27.52,5-9.92.64-19.91.15-29.87.15-7.24,0-14.49.1-21.73,0-5.49-.1-7.69,7.8-14.07,5.54-1.6-.56-3.67.14-5.25-.47-2.37-.91-2.6-2.47-1-3.74,5.29-4.24,5.95-8.63.33-13.11-5.17-4.12-8.52-8.9-7.26-16a12.24,12.24,0,0,0-4.09-12c-2.88-2.68-1-6,1.3-9.2,6-8.17,15.26-11.52,23.5-15.73a55.53,55.53,0,0,0,10.52-7.25,4.38,4.38,0,0,0,.92-1.82c-1.45-.83-2.89-2-4.48-2.23-5.63-.91-7.54,7.25-14.08,5.57-4.25-1.09-9-.12-13.53-.23-5.48-.14-7.57,7.11-14.11,5.75-3.88-.8-9.26-2.44-12.52,2-4,5.51-10.72.92-14.6,4-3.71,3-6.91,5.28-11.78,4.59-11-1.54-20.61,2.55-28.82,8.87-4.95,3.81-11.2-1-14.79,3.67-3.41,4.44-7.69,3.82-13.33,3.76-.41,0,.72.31,1.12-.09a2.37,2.37,0,0,0,0-2.3c-1.26-1.78-2.81-4-4.72-.75-.26.44,1.52,2.06,3.57,3.14,1.63,5.39-2.16,5.65-5.8,5.28a5.13,5.13,0,0,1-3.69-3.07c-.58-2.59-.19-5.4-.17-8.12,0-3.22-1.67-4.84-4.78-5-2.72-.09-5.54-.49-8.14.07-6.75,1.48-12.11-3.43-12.75-7.4-1.15-7-9.5-11-7-19,1.28-4.22-3.53-5.79-4.86-8.8-1.16-2.63,7.56-3.31,2.86-7.46-4.16-3.68-3.24-8-3.33-12.29-.07-3.63,0-7.25,0-10.88-.1-6.29.45-12.71-.68-18.81-.54-2.9-6.74-5.28-4.54-8.71,10.68-16.69,2.93-34.92,5.14-52.26,1.64-12.87-3.62-26.71,5.52-38.51,0-10.88-.25-21.76.1-32.62.21-6.82-2.72-14.69,5.12-19.59.08-5.41.21-10.82.15-16.22,0-.68-1-1.49-1.67-2-.45-.31-1.57-.42-1.84-.12-5.69,6.44-15,10.81-12.73,21.89-7.33,9.41-8.62,22.4-18.06,30.58-.36.31-9,20-9.11,20.68-.21,1.74.33,4.11-.61,5.14-10.78,11.68-9.59,28.85-19,41.14-1.43,1.87-1.78,4.76-2.07,7.25-.9,7.64,2.93,16.42-5.5,22.2,3.25,8.76-4,14.76-6.45,21.83-1.34,3.79-4.92,6.79-4.52,11.74.43,5.4-.87,11.08.31,16.25,2,9-6.21,14-7.18,21.72-.08.66-5.58,2-6.86.92-4.84-4-9-8.83-13.36-13.35,1.42-18.23-17.28-29.55-16.31-47.62-6.77-5.11-4.31-12.74-5.73-19.43-1.37-6.53-6.75-11.72-5.4-19.6,1.21-7.05,0-14.47.35-21.7.19-4-1.93-6.32-3.67-9.44-3.31-6-3.55-12.43.79-19.77,2.78-4.72-1.18-5.48-1.44-7.95-1-9.33-4.85-19.07,3.38-27.72,1.86-2,.8-6.85.82-10.39.07-12.69-.45-25.4.19-38.05.43-8.64-3-17.58,2.92-26,4.94-7-.56-16.75,3-23.1,3.22-5.79,3.56-11.27,5.2-17,6.18-21.67,6.79-21.61-.45-36.35-2.65-5.4-6.34-10-5.55-16.83.84-7.15-.27-14.52.32-21.72.62-7.62-3.31-16.37,4.76-22.45.18-7.17.2-14.36.69-21.51.1-1.43,2.34-2.58,3.11-4.1,7.34-14.43,8.2-14.51,7.33-26.73-.66-9.32,9.14-15.35,6.17-24.77,5.42-2.7,3.58-9.81,7.75-13,5.28-4.1.08-10.93,3.94-14.63s4.61-7.33,4.19-12c-.52-5.55-.23-10.81,5.27-14.12-2.93-3.22-6.45-6-5.37-11.3a21.53,21.53,0,0,0,0-8.12c-1.45-7.58,3.34-15.77-3.74-23-5.57-5.71,2.52-15.92-5.73-22.19C126.35,485.7,127,480.5,127,477c-.13-11.78.28-23.57-.25-35.33-.17-3.68-2.66-7.25-4.08-10.87,7-4.38,4-11.35,4.16-17.26.38-12.67-.39-25.4.29-38.05.46-8.45-4-18.24,5.16-25l.1-27.14c8.44-5.79,5.94-14.69,5.09-22.18-.83-7.17,8.23-9.34,6.09-16.9-1.4-4.91.07-10.64.25-16,7.75-5.06,4.57-12.93,4.72-19.73.11-4.8.75-8.87,4.91-11.6,6.14-4,6.55-10,6.22-16.51-.39-7.53-.1-7.54-9.3-8.7-1.71-.21-4.35.09-4.94-.86-1.27-2.06-2.84-6-1.92-7,3.45-3.69,5.84-9.1,12.63-8.58a112.47,112.47,0,0,0,21.71-.06c7.59-.9,11.59,7.58,19.58,5.88,6.07-1.29,12.63-.26,19-.26,6.49,11.09,21.63-.21,28.12,10.88,11.95-3.82,21.47,7.31,33.08,5.41,6.6-1.08,9.41,7.86,16.85,5.69,5.06-1.47,10.66-.78,14.35,4.64.62.91,3.46.89,5.06.49,7.64-1.95,13.15,3.07,19.6,5.27,5.55,1.89,9.65,8.36,16.69,5.68,5.39,4.19,12.32,5.29,17.89,9.55,4.48,3.43,10.84,4.29,16.1,6.85s10.25,5.87,15.4,8.77c4.76,2.68,4.7,2.46,9.29.21,6.77-3.32,13.85-6.44,20.19-10.12,7.58-4.4,13.09-12.34,19.5-18.75l28.83-28.84c5.13-5.12,9.74-11,15.54-15.15,4.62-3.34,10.86-4.34,16.05-7a28.45,28.45,0,0,0,8.06-6.71c8.15-9.45,8.13-9,14.66-9.66,6.78-.72,13.9,3,20.48-3.2,5.68-5.33,13.8-1.27,20.8-1.9,7.19-.65,14.53.34,21.72-.3,5.83-.53,9.82-7.72,16.79-5.29a29.1,29.1,0,0,1,19.19-6.18c3.62-7.49,12.06-2.18,16.44-6,3.79-3.31,7.39-4.86,12-4.06,7.12,1.24,12.07-1.94,16-7.26a8.66,8.66,0,0,1,9.37-3.65c8,1.7,13.94-1.49,18.5-7.87,3.26-4.55,8.1-2.5,12.34-3.08s5.93-6.58,11.36-5.5c3.46.7,6.51-.32,9.75-2.73,4.63-3.46,10.15-6.76,15.69-7.66s10.52-.87,14-5.81c8.09,1.89,13.83-1.66,18.49-7.88,3.74-5,5.32,1.35,7.69,1.41,3.9.1,6.06-4.51,11-4.81,5.9-.37,7.66-15.24,17.49-5.62,4.59-5.54,12.1-6.11,17.49-10.29,8.71,3.52,13.66-8.26,22.23-5.47a3.53,3.53,0,0,0,2.66,0c1.47-.94,2.52-2.83,4.06-3.32,6.42-2.06,11.36-7.61,18.53-7.79,7.46-10.21,20.89-12.78,28.72-22.91,5.38-7,13.71-5.47,20.32,1.8,2.8,3.08,3.71,6.34.73,9.24-5.07,4.93-4.16,13.31-11.26,17.39-3.06,1.75-4,7.14-6,11-2-1.85-3.83-3.66-5.73-5.45s-3.72-3.41-5.57-5.11c-4.68,4.68-8.73,9.75-13.78,13.48C888.49,76.68,883,79.76,877.44,81c-6.65,1.49-14.54-1.87-19.43,5.72-8.84-4.06-14,6.58-22.22,5.48-7.2-1-11.36,9.36-19.52,5.47a2.47,2.47,0,0,0-2.28.77c-2.79,5.41-9.92,3.23-13.19,7.66-3.88,5.25-11.26-.66-14.53,4-3.49,5-10.45,2.22-13.46,7.47-.63,1.11-3.1,1.88-4.58,1.69-11.24-1.47-20,3.94-28.56,9.92-7.37-.79-11,8.41-19.1,6.69-6.08-1.29-9.59,8-16.79,5.38a5.3,5.3,0,0,0-4.65,1.47c-4,5-12,3.28-15.26,9.27-6.51-1-11.41,2.88-17,4.74s-11.13,3.41-16.71,5.73c-4.52,1.88-10.17,0-14.48,4.9-1.64,1.88-6.81,1.2-10.28.82-5.07-.55-8.62,1.43-11.48,5.22-3.53,4.68-7.88,7.05-13.94,5.81-5.73-1.17-9.69,1.88-14.32,5-3.11,2.1-8.8.21-13.31.5-1.55.1-3.08,1.29-4.51,2.16-2.39,1.48-17.86,3.87-21.37,3.18-8.47-1.67-16.21-1.05-21.84,2-1.51.83-3,3.49-4,3.24-9.93-2.62-14.72,4.64-20.37,10.19-7.75,7.62-15.14,15.64-23.15,23s-13.43,17.08-23.76,21.31c-9.61,3.93-14.6,12.83-21.86,19.27-3.19,2.82-6.47,2.08-9.85,2.68-2.4.42-5.37,1.32-6.77,3.06-4.91,6.15-10.61,8.28-18.66,8-7.72-.23-14.2-1-18.59-7.91-3.07-4.84-9.23-3.71-13.53-7.2-3.63-2.93-9.55-3.74-12.69-8.21s-7.3-4.56-11.88-4.21c-.9.07-2.4.36-2.63,0-3.48-5.83-11.16-4.25-15.42-9.07s-12,1.12-16.84-5.64c-3.34-4.67-12.77,1.68-16.32-6-10.68,1.08-18.89-9.34-30-6.43-6.72-3.78-14.08-5.54-21.53-7.16-1.49-.33-2.4-3.2-3.91-3.58-6.62-1.67-13.83,2.28-20.34-3.74-4.78-4.43-12-1.53-18.15-1.73-7.31-.23-13.77,5.7-12.83,13.25,1,7.82-2.67,13.43-5.79,19.51s-7.13,11.89-5.58,19.56a8.53,8.53,0,0,1-2.37,6.95c-6,5,.82,14.94-7.56,18.72q-1,9.11-1.93,18.23c-7.42,5.38-3.74,13.2-4.14,20-.49,8.13.81,16.45-.41,24.42-1,6.54-6.88,11.63-5.41,19.59,1.29,7,.27,14.44.27,21.69s-.23,14.51.09,21.75A11.75,11.75,0,0,1,145.1,425c-1.45,1.51-2.29,6.29-1.42,6.93,5.15,3.84,5.13,8.9,5.06,14.42-.17,14.5-.09,29,0,43.49,0,3.76,2.07,5,7.81,4.57a22.87,22.87,0,0,0,7.42-1.7c7.92-3.55,7.94-3.7,11.89,3.53,1.39,2.53,3,3.87,6.09,3.81,1.47,0,3,1.43,4.46,2.22-8.89,3.72-1.73,13.87-7.1,18.39s-1.55,10.45-3.93,14.76c-2.51,4.54-7.19,7.83-10.24,12.14-2.39,3.37-5.4,7.56-5.23,11.24.46,9.56-.86,17.6-9.16,23.67-1.58,1.16-1.51,4.71-2,7.19-1.36,6.7,2.79,14.2-3.79,20.25-4.62,4.24,1.84,13-5.87,16.53.47,10.56-7.31,18.84-7.33,29.86,0,8-7.16,15.83-4.56,24.87.48,1.64,3.81,2.92,6,3.41,1.23.27,4.27-1.73,4.16-2.23-1.55-7.63,2.88-13.3,5.9-19.44,2.59-5.27,5.15-10.55,7.77-15.8,1.88-3.76,3.92-7.44,5.73-11.23,1.09-2.26,2.45-4.59,2.7-7,.62-6-.59-11.7,4.59-17.38,3.4-3.73-.72-12.43,6.2-16.24-3.34-10.26,9.36-17.28,5.6-27.56-2.6-7.12,8-9.29,5.78-16.88-1.36-4.7-1.73-10.61,3.83-14.66,1.47-1.07,1-4.89,1.27-7.47.36-3.5-.37-7.45,1-10.45,2.48-5.35,6.08-10.21,9.45-15.11,2.58-3.74,4.26-3.47,5.69,2.06,1.49,5.75,8,9.59,5.88,16.81-.47,1.65,2.11,4.55,3.83,6.36,5.61,5.91,14,10.65,16.58,17.6,3,7.94,1,17.76,1.06,26.77s0,18.12,0,27.18c0,6.18,1.33,12.77-5.35,16.81,0,5.43,2.07,12.42-.52,16-5.66,7.72-7.94,16.84-12.86,24.73-3.32,5.32-3,5.57,2.57,5.6q10.88.08,21.75,0c5.36,0,7.64-7.19,14.11-5.62,4.28,1,9,.35,13.54.15,3.57-.16,10.09-7.12,10.23-10.79s.8-7.46-.13-10.83c-2.16-7.87,6.56-12,5.78-19.55-.75-7.12,0-14.4.12-21.61,9.19-7.87,4.07-18.42,5-27.79.52-5.16-.66-9.6-3.88-14.74-6.34-10.11,2-19.61,5.46-29.08.34-.94,3.11-1.51,4.66-1.35s4.33,1.67,4.25,2.24c-1.36,9.15,3.78,14.84,9.69,20.64,3.63,3.57-5,5.45-2.86,7.35,7.51,6.72,2.06,20.11,13.24,24.59,2.51,1,2.59,2.54.51,3.8-4.83,2.91-3.77,7.63-3.76,12,0,11.78.11,23.56-.09,35.34,0,2.45-.58,5.45-2.06,7.2-2.85,3.38-4.39,6,1.61,6.12,4.43.08,5.7,4.22,8.75,5.17,1.28.4,3.56-4.3,5.81-4.81,6.64-1.53,14.51,2.85,20-4.32,6.16-.44,12.43-.32,18.46-1.46,8.35-1.57,15.58-6.72,25-5.84,4.1.38,9.18-4.79,9.49-11,.09-1.81-.3-3.7.1-5.42s1.5-3,2.3-4.47c1,1.17,2.51,2.2,2.93,3.55.51,1.66.1,3.59.12,5.4.06,3.69.07,7.62,5.43,7,8.48-1,17.83,3.3,25.24-5.14,1.57-1.8,7-.2,10.57-.28,7.8-.17,15.14.44,22.57-4.93,4.88-3.53,14.3,2.69,19.53-5,5.31-.31,12.26,1.38,15.58-1.35,7.18-5.89,14.84-5.59,22.54-4.81s11.57-7.62,19.57-5.91c6.07,1.3,12.63.26,19,.26,6.49-11.09,21.63.21,28.12-10.88,6-1.09,12.92,2.91,18-2.39,5.44-5.69,12.26-3.67,17.75-2.63,8.18,1.55,11.56-7.56,19.64-6.23,6.47,1.07,14.6,3.25,19.66-4.51,5.36-.18,12.44,1.74,15.74-1,8-6.57,16.83-5.72,25.23-4.66,7.26.91,10.9-5,16.82-5.8s12.49,2.24,17.58-3.8c1.28-1.53,4.83-1.46,7.36-1.58,7.18-.32,14.37-.35,21.56-.5,5-7.88,14.43-2,19.34-5.48,8.29-5.84,16.65-4.86,25.27-4.85,6.34,0,9.46-7.51,16.84-5.82,6,1.38,12.63.28,19,.28,6.49-11.09,21.63.21,28.12-10.87,4.53,0,9.06.09,13.59,0,5.3-.13,7.66-7.14,14.1-5.6,4.29,1,10.34,2,13.3-.15,8.82-6.42,18.62-3.67,27.82-5.53,5.53-1.12,10.18-6.55,16.86-5,5.19-6.51,12.49-5.21,19.49-5.6a11.73,11.73,0,0,0,6.67-3.34c4-3.79,8.6-1.45,12.84-1.6.88,0,3.39,5.33,2.63,6.36-5.67,7.7-10.78,16.75-22.76,15.05-5.45,5.57-12.35,5.27-19.48,5.67-6.66.37-11.63,8.35-19.51,5.2-3.66,9.05-13.76,2.35-18.6,7.43-5.38,5.66-11.75,2.63-17.68,3.42-5.15.69-7.68,7-14.09,5.68-5.23-1.05-10.84-.26-16.27-.19-1.73,0-4.58-.19-5,.67-4.13,8.1-13.87,1.74-18.8,7.55a8.2,8.2,0,0,1-4.32,2.55c-7.66,1.43-15.73-2.32-23.25,3.11-7,5-15.63,2.5-23.41,2.14-7.51-.35-11.6,7.6-19.56,6-6.08-1.25-12.63-.25-19-.25-5.67,11.22-19.65,0-26,9.59a3.07,3.07,0,0,1-2.16,1.23c-5.43.11-11-.65-16.27.26-4.85.84-9.28,4-14.13,5-4.35.89-9-.11-13.55.25-6.8.55-14.55-2.84-19.9,4.67-.67,1-3.31.59-5,.69-8,.47-15.95.89-23.92,1.33-6.4,7.95-15.16,3.16-22.78,3.89-5.53.54-7.71,8.06-14,5.72-3.29,5.45-8.65,6.61-14,5.23-8.67-2.2-13.29,8.12-22.33,5.92-6.85-1.66-14.53-1.09-21.63-.06-4.78.69-8.09,6.09-13.65,6.42-.65,0-1.32,2.92-1.65,4.54-.68,3.34,1.69,7.71-2.3,9.8-2.15,1.13-5.2.66-7.84.69-6.18.09-9.66,8.25-16.78,5.48s-10.83,4.92-16.78,5.34c-5.41.38-10.87.08-16.31.08h-19a15.32,15.32,0,0,1-2.71,0c-5.83-1.07-9.57,3.22-14.25,5-7,2.62-13.27,7.59-22.09,6.44-5.08-.66-12,2.59-16,6.34-5,4.78-6.46,1.22-10.09-1-2.68-1.6-8.74-1.94-10.31-.18-5,5.57-11,6.37-17,4.93-7.25-1.72-9.38,8.38-16.89,5.84-6.29-2.13-11.41,3.45-16.86,4.59-6.1,1.28-11.14,4.2-16.73,5.77-7.74,2.17-11.25,8.49-16.14,13.29-1.9,1.87-1.33,6.77-1.06,10.22.48,6.4-.89,10.41-8.5,10-.7,0-2.11,4.39-2.27,6.81-.07,1.1,2.07,3.29,3.3,3.36,6.32.34,12.68.16,19,.16,12.72,9.59,27.47,5,41.24,5,9.19,0,15.67,8.19,24.95,5.89,7.43-1.84,13.32,1.94,19.56,5.26,5.95,3.18,11.57,6.78,19.46,6,6.49-.64,13.74-2.8,20.37,3.11,5.66,5.06,14.22-.22,20.73,2.18s12,6.35,19.63,5.36c7.12-.93,14.49.17,21.71-.31a12,12,0,0,1,12.24,8.6c2.08,7.94,5.7,12,13.58,13.53,1.43.27,3.58,5.52,3,6.08-5.46,5.45-4.67,12.71-6.55,19.19-.67,2.29-3.38,4.32-5.63,5.72-3.16,2-4.06-1.8-5.65-3.21-10.32-9.15-19.93-9.08-29.73.87-2.12,2.15-6.08,3.35-5.57,7.49.85.63,1.55,1.58,2.24,1.58q32.63.12,65.25.07a8.11,8.11,0,0,0,2.7,0c5.51-2.09,9.83-6.75,16.83-5.61,6.18,1,12.65.21,19,.21s12.7.24,19-.07c6-.29,12.36,2,17.45-4.24,1.53-1.89,6.7-1.05,10.2-1.08,10.88-.11,21.77.39,32.62-.19,7.62-.42,16.34,3.3,22.5-4.7.4-.52,1.61-.42,2.44-.59,11.85-2.51,25.25,5.59,35.89-5.22,12.66-.07,25.39.64,38-.45,11.08-1,23.55,5.53,33.11-5.21h21.75c10,0,19.94.07,29.9,0,7-.07,14.44,1.57,19.5-5.41h46.21c10-8.32,21.89-4.71,33.09-5.44,10.83-9.12,23.76-4.58,35.82-5.28,6.29-.37,9.45-7.57,16.83-5.87,6,1.38,12.62.28,19,.28,7.84-8.81,18.29-5.23,27.65-5.19,8.16,0,13.06-8.63,22.32-6.06,6.69,1.86,14.35.26,21.57.21,4.9-7.8,12.87-5.64,19.52-4.86,3.65.42,6.81,5,10.19,7.77-1.68,1.92-3.37,3.84-5,5.77,10,5.14-1.94,9.51-.63,14.74,1,4.05.89,9.44-1.07,12.92-2.47,4.37-8.9,0-12.31,2.34-3.64,2.52-5.89,6.41-9.91.68-.71-1-4.09-1.66-4.73-1-7.26,7.42-16.47,5.65-25.06,5.07-4.94-.33-9.67,10.4-14.56.29-4,7.09-7.83,3.47-11.84,0a2.69,2.69,0,0,0-2.61,0c-9.11,7.77-20.06,5-30.42,5.33-5.34.17-10.89-.87-14.4,4.79-.32.52-1.56.66-2.38.66-10,0-19.94,0-29.9,0-7,7.88-16.34,5.27-24.94,5.32-5.62,0-9.57,2.26-14.39,5s-12.35.6-18.69.6c-.6-1.51-.94-4.11-1.84-4.31C883,821.12,882.5,823.52,882.69,826.17ZM502.1,1103.46c1.81,0,3.62,0,109.83,5.44q51.42,0,102.83,0c3.13,0,4.8-1.71,4.81-4.87,0-5.41.16-10.83,0-16.24-.22-6.4-3.82-8.11-12.91-6.76a79.08,79.08,0,0,1-10.55.67c-7.21.1-14.62-.94-21.58.39-4.27.81-7.33,7-12.22,0-1.2-1.72-8.68-1.86-10.08-.14-5.63,7-12.82,5-19.72,5.14-9.92.14-19.85-.08-29.76.12-2.46,0-5.84.36-7.19,1.93-7.08,8.22-19.83-2-26,8.35-4.35-8.38-8,.11-12,.36-4.2.27-8.93,1.6-12.31-2.82s-8.47-2.84-12.43-2.16-7,4.14-11.07,5.79c-4.67,1.89-8.51,5.74-14.25,4.78,0,.9-.37,2.2.08,2.63,1.21,1.13,2.77,2.68,4.2,2.69,33.37.15,66.74.12-4.28-5.32-.59-1.5-.94-4.11-1.83-4.31-3.26-.74-3.8,1.67-3.6,6.73,0-.81.31-1.93-.09-2.33a2.37,2.37,0,0,0-2.3,0c-1.78,1.26-4,2.81-.75,4.72C499.4,1108.5,501,1106.72,502.1,1103.46ZM314,1023.31c-2.49-3.22-4.33-6.28-6.82-8.66-4-3.83-7.1-7.46-6.41-13.78.55-5.13,1.22-12.12-1.56-15.37-7.15-8.36-2.13-17.34-3.48-25.83-.12-.79,2.78-3.11,3.74-2.84,8.85,2.52,14.19-5.41,21.66-7.16,4.74-1.11,6.2-9.31,12.36-9.16,5.75.14,10.53-.77,14-5.6,9.25,1.23,16.3-4.15,23.86-7.94,1.52-.76,3-3,4.2-2.78,10.07,1.56,17.94-5.25,27-7.45,8.63-2.1,15.77-10.13,26-9,2.8-5.27,10-3.85,12.93-7.73,4.67-6.23,12.67.19,16.83-5.6,2.5-3.48,6.13-3.33,9.63-2.91,4.25.51,6.06-3.07,9.05-4.5s7.11-.14,10.38-1.18,5.59-4.21,8.72-5.06c3.37-.91,7.25.21,10.78-.35,2.37-.37,4.63-1.93,6.74-3.27,4.28-2.72,10.31-2.33,13.22-7.46,6.47.93,12.31-.11,16.75-5.43,12,3.5,21.37-6.44,32.72-6.33.63,0,1.56-1.08,1.86-1.85,1-2.67.09-3.12-2.68-2.93-1.19.09-2.42-2.49-3.85-3.58-6.52-5-16.4,2.75-22-5.77-4.37,1.7-8.83,3.2-13.08,5.17-2.29,1.07-4.12,4-6.34,4.21a82.35,82.35,0,0,1-19,0c-7.62-1.08-11.55,7.09-19.55,6-9.76-1.39-19.86-.23-29.82-.4-2.51,0-5.8-.12-7.37-1.62-6.26-6-14.92-10.82-12.33-22,.53-2.3.12-6.09-1.39-7.37-7.38-6.21-3.11-10.23,1.48-15.34a48,48,0,0,0,9.46-15c1.74-4.77,1.34-10.43,1.35-15.7,0-2.87-2-4-5.19-4.57-9.41-1.54-18.87,3-28.61-3.15-9.2-5.8-21-1.19-31.62-2.12-.87-.08-2.2.21-2.56-.25-6.91-8.88-16.66-5.07-25.05-4.9-11.71.24-22.19-2.08-32-8.39a14.7,14.7,0,0,0-7-2.65c-9-.31-18.1-.25-27.14,0a5.06,5.06,0,0,0-3.71,3c-.58,2.59-.17,5.4-.17,8.11,0,38,0,76-.08,114.05,0,3.35,1.73,7.41-2.06,9.95-5.71,3.84-.8,11.22-4.11,14.42-4.16,4-3.28,10-7.41,13.38-3,2.39-1.69,4,.42,5.81,4.24,3.56,3.55,9.47,1.93,12.35-2.66,4.74-6.08,8,.24,12-2.16,2.65-5.36,4.29-5.38,8.69,0,8.59,2.56,17.92-5.3,24.91.55,4.22-1.54,8.89,2.69,12.49s3.62,7.44-.25,11.2a7.65,7.65,0,0,0-2.33,4.39c-.31,4.51-.94,9.24.09,13.53,1.53,6.44-5.7,8.8-5.53,14.08.11,3.38-1.9,7.48,1.69,10.08,4.14,3,1.24,4.62.09,7.89-1.94,5.51-1.49,12-1.23,18.06.1,2.38,2.36,2.56,3.65.68,2.25-3.3,5.48-3.61,9.22-4.17,3-.44,4.19-5.88,8.65-5.11,10.19,1.76,18.57-3.05,26.42-8.21,3.34-2.19,6.52-1.9,9.76-2.84,7.25-2.11,13.86-6.36,21.72-6.51,3.74-8.46,13.69-.75,18.76-7.51,4.22-5.61,14.92,1.71,18.44-7.56,9.07,1.7,16.85-1.88,25-5.18,5.34-2.17,12.77,2.34,17.08-4.67,5.29-.34,11.07.55,15.73-1.35,5.55-2.25,10.23-6.6,16.89-5.12,6.06-7.25,14.4-5.27,22.18-5.41,6.17-.11,12.76,1.33,16.8-5.35,7.62,2.15,13-3.3,19.49-5.36,6.62-2.12,14.53,2.78,20.72-2.38,7.23-6,15.47-1.92,23.13-3.25.84-.14,2.12,0,2.44-.53,5.11-7.76,13.29-5.72,19.67-4.49,8.22,1.58,11.4-7.94,19.62-6.21,6.72,1.41,14.1-.37,21.19-.74,5.32-7.54,13.19-3.33,19.92-4.38a3.59,3.59,0,0,0,2.11-1.39c4.63-6.48,11.46-3.28,17.37-4s9.54-7.65,16.81-5.67c4.2,1.14,9,.27,13.47-.06.55,0,1.61-3.31,1.3-3.53-3.38-2.48-4.87-9.91-11.72-2.77-4.74,4.92-13.73-2.4-20,4-5.72,5.82-13.69,2.07-20.57,2.42-12.64.64-25.34.3-38,.13-5.5-.08-10.83-.32-14.15,5.22-5.08-.74-7.64,3.64-11.38,5.33s-8.89.38-13.41.38c-5.43,0-10.9-.4-16.28.11-5.17.48-11.41-2.83-15.36,1.94-6.05,7.3-7.72-4.62-12.83-2.26-2.91,1.35-7-.74-9.73,2.75-4.67,6-14.57-.49-18.69,7.61-.44.86-3.27.53-5,.72-13.77,1.53-28.49-4.12-41.2,5.44-8.38-1.47-18.27,4-24.91-5.41-3.56,5.88-7.47,4.63-11.6.66,0,0-1.16,1.25-1.85,1.83-5.51,4.72-11,4.66-16.66.12a8,8,0,0,0-3.65-1.31c-2.8,5.46-10.07,2.69-13.36,7.53-3,4.46-4.11-.83-5.55-1.94-1.75-1.36-2.56-1.56-4,.72-4.32,7-14.36-.61-18.89,7.48-1,1.73-6.62,1.22-10.09,1.12-8.29-.24-13.46,3.13-15.07,11.55-.31,1.58-1.5,3,266-163.72,2.77,0,5.7.75,7.82-.24,1.69-.79,3-3.58,3.39-5.69.66-3.51-1.52-5.44-3.66-3.68-2.62,2.15-4.66,4.66-8.64,4.34-1.21-.1-3.53,1.59-3.71,2.72C577.53,856,581.86,852.08,314,1023.31ZM154.12,890c0,13.54-.08,27.09.12,40.63,0,1.44,1.69,2.86,2.6,4.29a46.11,46.11,0,0,0,2.7-4.3c3.67-7.5,8.21-14.76,10.58-22.67,1.77-5.86,8-7.64,9.36-12.37,1.88-6.52,8.38-11.19,7.24-18.69-.64-4.16,2-6.42,4.45-9s6.39-5.7,6.06-8.08c-1-7,3.61-11.34,5.86-16.75s3.86-11.44,7.49-15.75c4-4.76,3.18-11.9,8.79-15.43-.72-7.18,9.37-11.33,5.43-19.41,3.63-4.82,7.5-9.47,10.79-14.51A51.09,51.09,0,0,0,241,766.65c1.09-3.2.05-8.41,2-9.77,4.46-3.1,2.44-8.2,5.38-11.6,5.18-6,5.57-12.22-.48-18.49-4.89-5.06-11.43-18.54-12.11-24.69-.46-4.14-1.44-6.62-6.13-6.46-7,.24-13.37-.09-19.75,5.06-4.14,3.34-11.53-1.2-17.78,2.61-5.55,3.38-11.15,7.49-18,8.78A4.44,4.44,0,0,0,170.5,718c2.69,8.58-7.94,13.16-5.87,22.23,1.77,7.72.37,16.17.37,24.29s0,16.25,0,24.38c0,2.64.75,6.41-.66,7.72-8.9,8.27-3.15,18.69-4.64,28-.84,5.22-.59,10.62-.83,15.93-7.6,5.13-4.34,12.95-4.61,19.72C153.82,870.12,154.12,880.06,154.12,890Zm-21.75-77.82h-.28c0-7.2,0-14.41-.08-21.61,0-.66-1.1-1.51-1.88-1.84a2,2,0,0,0-1.81.82A34.28,34.28,0,0,1,121.5,803c2.57,12.6-8.35,23.13-5.46,35.8,1.14,5-2.6,7.86-4.69,11.68-1.78,3.28-2.71,9,1,12.45,3.42,3.17,4,5.21-.07,7.85-.69.46-1.56,1.33-1.57,2-.1,10-.59,20,.08,29.88.69,10.25-3.86,21.57,5.29,30.37-.2,5.35,0,10.75-.72,16-.81,6,.94,20.61,4,24.27,1.48,1.76,3.77,2.84,5.69,4.22.64-1.54,1.79-3.08,1.83-4.64.19-8.15.09-16.3.09-24.45V875.13c0-8.15,1.56-16.7-.4-24.35-2.38-9.27,6.81-14.12,5.94-22.32C131.91,823.08,132.37,817.6,132.37,812.17Zm80.78-228.74c-.78-.73-1.37-1.75-2.09-1.85-1.76-.23-4.15-.76-5.25.12-4.11,3.26-2.56,9.86-7.65,13-4.83,3-7,7.54-6.21,13.68.27,2-1.83,4.65-3.41,6.53-4.52,5.4,2.08,14.89-6.94,18.51.63.64,1.25,1.3,1.91,1.9,3.65,3.33,3.62,5.62-1.86,5.91-2.62.14-6.32,1.59-4.68,3.39,6.79,7.45,6.8,13.91-.56,20.59,1,1.09,2.09,3.17,3,3.07,2.42-.27,6.78-1.45,6.78-2.25,0-5,2.55-8.24,6-11.14-1.72-6.83,4.62-8.94,7.55-13.09,1.43-2,3.06-4.41,3.18-6.71.36-7-.88-14.2,5.59-19.33,0-8.1-.39-16.23.22-24.29C208.92,588.7,211.61,586.09,213.15,583.43ZM625,837c-4.59,0-7.31-.31-9.9.12-1.52.25-2.83,1.69-4.23,2.6,1.4.91,2.79,2.57,4.21,2.58,5.21.06,10.44-.35,15.64-.77a2.57,2.57,0,0,0,1.76-1.81c0-.63-1-1.65-1.77-1.81C628.19,837.39,625.62,837.14,625,837ZM751.43,950.85c-1.11,1.16-3.83,3-3.55,3.87.93,2.94,6.7,2.91,8.73.18.31-.41.35-1.63.13-1.75C755.32,952.39,753.79,951.83,751.43,950.85ZM601.9,843.26,600,845.2a17.46,17.46,0,0,0,3.65,1.7c.45.1,1.19-1.1,1.79-1.7ZM131.59,692.17c-.73-.72-1.33-1.33-1.93-1.93a16.5,16.5,0,0,0-1.7,3.65c-.1.45,1.09,1.18,1.7,1.79Z"/><path d="M494.1,570.62c15.38,0,30.77.09,46.16-.06,3.4,0,5,1.57,5.24,4.48a6.86,6.86,0,0,1-1.23,4.81c-1,1.07-3.77,2.09-4.56,1.5-12-8.9-25.66-4.15-38.58-5.29-14.55,10.38-31.07,4.12-46.65,5.14-9.18.61-17.85,0-23.65,8.88-.8,1.21-3.21,2.5-4.36,2.14-7.11-2.26-11,4.66-16.82,5.55a36.28,36.28,0,0,1-5.42,0c0-2.72-1-6.12.22-8,2.45-3.7,6.36-6.39,9.32-9.8,2.54-2.93,5.3-4,9.25-4.1,7.68-.22,16.43,3.17,22.2-5.29H494.1Z"/><path d="M904.84,83.69A61.12,61.12,0,0,1,902,91.83c-2.57,5.2-6.54,9.91-8.09,15.35-1.37,4.82.76,10.68-4.81,14.21a12.44,12.44,0,0,0,2.08,3.59c4.56,4.52-1.4,5.33-2.75,7.55-2.06,3.38-5.79,4.44-8.9,2.25-1.59-1.12-2.77-6.11-2-6.7,5.7-4.54,3.64-11.41,5.87-16.45,2.06-4.64,5.62-8.44,4.81-14.08L897.53,80c2-.68,2.34-5.38,5.58-2.6C904.14,78.33,904,80.55,904.84,83.69Z"/><path d="M888.13,826.17c.19,2.64-.35,5.05-3.6,4.31-.89-.2-1.24-2.81-1.84-4.31Z"/><path d="M404.23,600.23c-1.07.84-2.7,2.62-3.13,2.36-3.28-1.91-1-3.46.75-4.72a2.35,2.35,0,0,1,2.29,0C404.54,598.3,404.23,599.43,404.23,600.23Z"/><path d="M561.12,579.56l-1.93,1.94a16.5,16.5,0,0,1-1.7-3.65c-.1-.45,1.09-1.19,1.7-1.79Z"/><path d="M387.92,831.5c0,9.91.21,19.83-.3,29.72-.05,1.11-4.17,2.79-6.42,2.81-2.74,0-4.88-2-4.11-5.33a16.28,16.28,0,0,1,2-4.58,37.16,37.16,0,0,1,3.06-3.85c-8.31-3.78-2.49-13.28-7.5-18.57-1.61-1.7-2.41-4.43-2.94-6.83-1-4.57.8-6.47,8.11-9.66.76-.34,1.94-1.51,1.81-1.82-.54-1.28-1.39-3.24-2.34-3.38-3.51-.49-7.12-.21-10.65-.62-.48-.06-1.41-3-.93-3.55,3.49-4,6.81-8,13.34-7,5.21.77,6.86,1.31,6.88,5.64C388,813.48,387.92,822.49,387.92,831.5Z"/><path d="M339,896.81c.27,4.67-2.73,5.79-6.52,5.37-1.46-.17-2.79-1.57-4.19-2.41.48-.61.92-1.27,1.45-1.84a36.7,36.7,0,0,1,3.72-3.66,23.82,23.82,0,0,1,3.66-2Z"/><path d="M293.63,914c2.73,1.6,2.83,7,.1,9a2,2,0,0,1-1.8.13c-2.77-1.51-2.85-6.91-.13-8.94C292.22,913.88,293,914.07,293.63,914Z"/><path d="M295.49,932.19a17,17,0,0,1-3.65,1.7c-.45.1-1.19-1.1-1.79-1.7a17.46,17.46,0,0,1,3.65-1.7C294.15,930.39,294.88,931.59,295.49,932.19Z"/><path d="M327.32,922.1c-.72.73-1.33,1.33-1.93,1.93a17.22,17.22,0,0,1-1.7-3.65c-.1-.44,1.1-1.18,1.7-1.78C326,919.78,326.7,921,327.32,922.1Z"/></svg>