<svg id="Layer_1" data-name="Layer 1" xmlns="http://www.w3.org/2000/svg" viewBox="0 0 1200 1200"><title>BB_Artboard 83</title><path d="M334.51,31.15c6.89,0,14.19,1.44,20.58-.35,8.8-2.47,13.42,6.32,21.22,5.64,6.84-.59,13.78-.12,20.67-.12,7.75,0,15.88-1.45,23.14.44,6.17,1.6,11.48,5.82,18.67,4.89,5.93-.77,12-.16,18.07-.16,6.89,0,13.8-.25,20.67.08,5.67.26,12.22-2.37,16.37,4.19.34.54,1.41.73,2.17.88,9.65,1.87,20.57-4.25,29.11,4.62,9.4.19,18.79.43,28.19.56,6,.08,12.16.68,18.07-.16,7.24-1,12.49,3.43,18.66,4.93,7.32,1.77,15.4.42,23.15.42h20.68c9.12,10,21.18,5.36,31.4,4.52,8.67-.72,13.38,6.51,21.18,6,8.57-.61,17.22-.14,25.84-.14h23.26c14.74,10,31.31,4.39,47,4.66,7.41.12,11,7.4,18.57,5.91,5.8-1.15,12-.23,18-.23h20.68c12,9.79,26.11,4,39.23,4.79,4.49.26,6.27,7.15,10,3.88,4.88-4.32,8.21-4.93,12.82,0,1.38,1.46,4.58,1.63,7,1.65,18.95.12,37.91,0,56.86.09,8,0,13.29,6.45,12.55,15.17-.13,1.54-.59,3.75-1.64,4.35-2,1.15-4.82.93-6.85,2.07-4.92,2.78-9.27,7.7-14.43,8.67-8.3,1.55-17.06.63-25.62.75-3.62-4.15-7.28-6.24-11.12-.24-7.46-8.81-17.51-3.82-26.4-4.87-4.91-.57-10.32,1.29-13.9-4.17-.62-1-3-1-4.62-1-6.89-.11-14.73,2-20.43-.6-6.28-2.88-12.22-3.79-18.71-5-7-1.32-13.27-5.78-21.21-5-7.67.8-15.83-1.26-23.15.53-9.46,2.3-14.88-7-23.83-5.78a87.15,87.15,0,0,1-25.75-.1c-6.17-1-11.18-6.15-18.62-5.07-7.6,1.11-15.47.25-23.23.25-6.89,0-14-1-20.62.26-7.61,1.46-11.4-6.56-18.61-5.6-5.92.79-12,.16-18.07.16H620.76c-14.73-10.16-31.33-3.22-47-5.13-5.66-.69-11.93,1.85-16.47-4.3-1-1.34-4.74-.85-7.23-.87-9.47-.09-19,.39-28.42-.18-7.24-.43-15.48,3.12-21.44-4.47-.71-.9-3.19-.52-4.85-.54-6-.05-12.06,0-18.09,0-5.17,0-10.51-.83-15.47.2-6.75,1.4-10.55-4.09-16-5.28-2.47-.54-5.15-.09-7.73-.09-10.34,0-20.75.77-31-.22-10.54-1-22.39,5.26-31.48-5-12.05,0-24.1,0-36.14.27-.86,0-2.52,2.73-2.31,3.92.39,2.16,1.7,5.69,3,5.87,5.07.69,10.38-.31,15.45.4,12.21,1.68,25.59-4.9,36.64,5,12.92,0,25.85-.18,38.77.08,5.66.12,11.75-2,16.59,4,1.45,1.8,6.36,1,9.69,1,12.06.1,24.14-.35,36.18.19,7.24.33,15.46-3.08,21.48,4.36.74.92,3.16.55,4.81.64s3.45,0,5.17,0H543c6.89,0,13.91.81,20.64-.22s10.58,4.46,16,5.18c6.78.9,13.76.22,20.65.22,8.62,0,17.31-.71,25.82.19,9,1,18.25-3.26,27.24,2.9,7.27,5,16.56,1.56,24.93,2,8.59.44,17.22.19,25.84.07,5.22-.08,7.18,6.67,13.41,5.44,5.8-1.14,12-.24,18-.24,5.17,0,11.62-2,15.28.36,12.69,8.17,26.35,3.23,39.43,4.87,7.2.9,12.87,6.79,21.17,5.38,7.54-1.27,15.78-1.58,23.11.18,5.27,1.27,9.73,6.1,16,4.73,4.88,6.39,11.9,5,18.53,5.2s13.92-2.2,18.56,5.1l20.65,0c6.31,9,15.71,3.9,23.71,5.13,4.89.75,7.31,6.79,13.4,5.39,4.09-.93,9.85-1.91,12.65.14,9.19,6.75,19.26,4.63,29.1,4.73,4,0,5.94,4,8.51,4.29,6.7.71,10.62,7.73,18.27,6.45,5.6-.93,8.7,4.43,10.67,9s-1.32,11.81-6.41,15.27c-1.25.86-3.79,1.78-4.49,1.2-7.92-6.71-17.33-4.87-26.4-5-7.56-7.79-17.29-4.6-26.28-5.17-6.17-10.59-20.56.22-26.75-10.3-4.3,0-8.86-.95-12.85.16-6.94,1.93-10.29-4.79-16-5.42s-12.16,2.45-16.51-3.84a3.33,3.33,0,0,0-2-1.25c-6.41-1-13.92,3-18.93-4.25-6.76-.32-13.73-1.83-20.22-.66-7.65,1.38-10.89-7.26-18.66-5.85-6.1,1.11-13.88,3.07-18.68-4.39-.29-.46-1.56-.25-2.36-.41-8.94-1.78-18.18,2.9-27.25-3-8.14-5.29-18.27-1.84-27.47-2-7.68-.1-12.47-8.08-21.21-5.72-6.42,1.73-13.69.34-20.58.34-7.76,0-15.8,1.27-23.17-.39-6.17-1.4-11.36-6.08-18.65-5-5.9.9-12,.19-18.07.19-13.85-9.8-29.61-3.25-44.37-5.18-13.92-1.82-28.68,4.29-42-4.94-2.32-1.61-6.73-.23-10.18-.23-21.53,0-43.07.28-64.6-.15-7.22-.15-15.2,2.88-21.58-4.32-1.57-1.77-6.5-.67-9.88-.68-13.78-.05-27.59-.43-41.35.14-7.79.32-12.42-8.15-21.22-5.68-6.39,1.79-13.68.35-20.57.35-7.76,0-15.52.21-23.26-.07-5.71-.21-9-6.75-16-5.38-6.64,1.3-13.73.28-20.62.28H298.05q-9,0-18.09,0c-2.57,0-6.71-.94-7.46.25-4.34,6.83-7.52.71-11.57.12-8.43-1.24-17.23.24-25.77-.56-7.16-.67-13-6.81-21.18-5.17-5.91,1.18-9.43-4.21-11.1-8.5-1.27-3.26-2-8.34,2-11.81C216.61,52.09,212,47.73,235,55.9c.75.27,1.42,1.06,2.13,1.06,18.85-.17,37.72-.28,56.57-.8,2.42-.06,2.32-2.11.19-3.56-1.29-.88-3.31-3-3.05-3.49a121.35,121.35,0,0,1,9.08-14.31,9.37,9.37,0,0,1,6.17-3.49C315.55,30.93,325,31.15,334.51,31.15Z"/><path d="M556.82,779.38C204.9,759.48,208.31,757,211.28,754.08c2.51-2.47,4.82-4.18,8.71-4.14,18.95.23,37.91.45,56.85-.06,7.79-.21,12.41,8,21.23,5.72,7.27-1.87,15.41-.38,23.16-.38h46.52c7.76,0,15.56.55,23.25-.16,7.13-.67,11.06,7.08,18.6,5.56,5.8-1.16,12-.23,18-.23h20.68c6,0,12.37-1.17,18,.31,6.19,1.62,11.27,6.1,18.65,5.09,7.61-1,15.48-.23,23.23-.23,6.89,0,13.8.24,20.68-.06,9.23-.39,16.16,7.74,26.37,5.63,9.09-1.88,18.87-.4,28.35-.4h25.85c9.47,0,19,.39,28.42-.11,8.52-.45,14.53,7.21,23.77,5.63s18.9-.34,28.37-.34h25.85c8.62,0,17.26.45,25.84-.14,7.79-.53,12.58,7.76,21.2,5.63,6.5-1.61,13.71-.32,20.6-.32,10.16,9.54,22.66,3.74,34.06,5,5.95.68,12.39,1.36,18-.19,7.29-2,9,6.61,16.08,5.89,13.64-1.39,27.53-.54,41.31-.29,2.61,0,3.54-.15,2.55-2.68-.29-.74-1.12-1.69-1.79-1.78-5.76-.73-13,.61-17-2.38-4.85-3.62-9.23-3.48-14.17-3.59-6-.14-12.1.45-18.08-.15-8-.8-17.11,3.52-24-4.72-1.07-1.29-4.91-.32-7.48-.33-7.75,0-15.88-1.48-23.16.37-8.81,2.24-13.44-6.25-21.23-5.67s-15.5.17-23.25.11c-5.07-.05-7.24-6.55-13.41-5.39-5.83,1.09-12,.23-18.05.23-5.17,0-10.4.5-15.48-.19-2.78-.38-5.81-4.46-7.79-3.84-2.82.87-4.61,4.71-8.63,4.05-7.19-1.19-15.57,3-21.32-4.71-5.1-.16-10.24,0-15.3-.56-8.19-1-16.66,2.77-24.67-2.91-6.58-4.66-14.82-1.76-22.31-2.09-8.6-.38-17.22-.09-25.84-.09-9.11-10.12-20.94-4.22-31.47-4.93-14.59-1-29.32.44-43.91-.46-11.41-.71-23.9,4.57-34.06-5l-46.37.37c-5.74,9.72-10.93-5-16.55-.37-17.23,0-34.46,0-51.69,0-5.11,0-9.38-.43-13.94-4.23-3.08-2.57-9.49-2.58-13.79,2-1.42,1.51-6,2.71-6.53,2-6.73-8.41-15.88-4.08-23.94-4.9-5.09-.52-7.21,6.51-13.4,5.32-5.82-1.11-12-.24-18.05-.24-5.17,0-10.34,0-15.51,0-7.7-.07-15.41-.22-23.11-.34-4.7-7.52-12.47-3.29-18.6-5.11-3.61-1.08-6.58-4.87-9.36-7.89-.82-.87-.67-3.8.19-4.85,2.71-3.32,6.18-6,8.95-9.3,2.46-2.91,5.21-3.64,8.92-3.62,28.43.16,56.88.62,85.28-.24,8.13-.25,12.93,7.07,21.17,5.76,7.57-1.21,15.47-.26,23.22-.26s15.87-1.4,23.16.43c6.17,1.56,11.44,5.8,18.66,4.92,6.8-.82,13.77-.17,20.66-.17s13.85-.62,20.66.13c12.25,1.34,25.57-4.7,36.64,5,8-1.24,17.21,3.42,24-4.57,3.94,2.75,7.66,5.11,13.13,4.76,10.29-.66,20.67-.38,31,0,2.15.07,4.73,1.64,6.24,3.31,1.76,1.94,2.15,1.94,3.91,0,1.51-1.67,5.22-3.86,6.08-3.23,11.47,8.32,24.5,3.8,36.79,5,5.65.53,11.77-2,16.62,4,1.45,1.8,6.35,1.08,9.67,1.1,16.37.09,32.74-.17,49.11.15,6.45.12,13.81-2.76,18.93,4.34.65.92,3.13.6,4.77.7s3.45,0,5.17,0h18.09c6.9,0,13.91.78,20.65-.22s10.61,4.46,16,5.15c7.63,1,15.8,1.6,23.15-.11,8.68-2,13.6,5.86,21.21,5.59s15.5-.06,23.26-.06,15.76,1.21,23.19-.35c7.21-1.51,8.85,8,16.1,5.79,4.73-1.45,10.26-.27,15.43-.27,6,0,12.15-.65,18.06.19,5.46.78,9.3,6.51,16,5.18,5-1,11.68-2.22,15.2.19,9.37,6.41,19.29,4.28,29.14,4.81,1.62.09,4.06,0,4.69.9,5.52,8.22,14.87,1.24,21,5.54a36.25,36.25,0,0,0,8.65,4.21c6.57,2.45,9.67,9.89,8.31,16.59-.29,1.39-1.94,3.65-2.83,3.59-8.94-.6-18.61,2.92-26.48-4.81-1.31-1.3-5-.46-7.56-.08-1.48.22-2.8,1.48-4.2,2.27.47.61.81,1.5,1.43,1.78,2.89,1.32,5.94,2.33,8.79,3.74,3.49,1.72,8.42,2.94,9.85,5.81,1.72,3.45.45,8.42.4,12.72,0,3-1.66,4.84-4.65,4.54-4.26-.43-5.42,4-8.33,4.84-1.22.38-3.38-4-5.54-4.56-3.23-.84-6.91.24-10.27-.31-8.07-1.32-16.71,3.61-24.42-3.62-5.47-5.13-14.94,2.2-21.17-5.37-1.85-2.24-8-.84-12.17-1.28-6.45-.69-13.89,2.74-18.86-4.46-.35-.5-1.49-.66-2.26-.66-8.62,0-17.56,1.41-25.75-.44-7.91-1.79-15.09-5.32-23.81-5.12s-19,4.43-26.3-4.76l-18.07-.05c-6,0-12.07-.19-18.09.05s-11.22-.2-16.29-4.86c-2.34-2.15-8.34.08-12.58-.45-11.39-1.43-23.88,4.38-34.05-5.09-6,0-12.14.62-18.08-.13-13.08-1.64-27.28,5.18-39.23-5-11.2,0-22.41.31-33.59-.09-9.81-.36-20.23,2.8-29-4.9-1.46-1.28-6.17-1.29-7.4,0-6.2,6.5-13.94,4.39-21.31,5.09-7.8.75-12.42-8.09-21.22-5.62-6.39,1.79-13.69.35-20.58.35H401.83c-7.76,0-15.68-1-23.21.29-6.95,1.2-10.33-5.32-16-5.38-20.68-.22-41.36.18-62-.31-4.11-.1-7,9.87-11.67,1.3-4.16-.36-8.35-1.17-12.48-1-5.18.26-13.17-3.15-12.06,7.64.08.72-2.63,2.59-3.87,2.45-8.08-.9-17.22,3.44-23.92-4.56-5.1-.16-11.4,1.52-15.06-.87-7-4.58-12.57-11.47,335.29-1.3C912,796.46,912,796.32,912,796.19c4.13,0,8.27.07,12.39-.08.62,0,1.76-1.56,1.7-1.63-.87-1.1-1.88-2.9-2.9-2.93-8.37-.23-16.76.06-25.13-.24-2.54-.1-3.63.26-2.4,2.56a5.54,5.54,0,0,0,3.78,2.6C903.6,796.81,907.81,796.59,556.82,779.38Z"/><path d="M742.72,848.31c-10.6,0-19.38,1-27.78-.33-6.19-1-11.18-6.44-18.64-5.06-5.83,1.08-12,.2-18.06.23-5.15,0-7.23-6.75-13.42-5.4-4.94,1.08-10.29.22-15.47.22s-10.42.58-15.49-.12c-12.22-1.68-25.4,4.64-36.86-4.81-2-1.69-6.7-.24-10.15-.24-25,0-50,.11-75-.09-5.66,0-12.24,2.35-16.31-4.24l-43.2.14c-3.53,5.61-6.36,2.65-9.14-.76-15.48-.08-31-.23-46.45-.08-1.26,0-2.53,2.11-3.74,3.29-3.66,3.59-8.14,1-12.18,1.65-3.85-6.36-10.12-5.09-16-5.09-12.92,0-25.9-.61-38.76.3-5.31.37-9.38,6.25-16,5.06-5-.91-10.31-.18-15.48-.18H276.5c-1.73,0-3.46-.09-5.17,0a19.17,19.17,0,0,0-4.87.72c-11.84,4.16-23.18,6.62-37.75,4-7.49-1.37-15.52-5.29-20.61-12.23-.84-1.14-1-3.78-.28-4.87,1.91-2.77,4.61-5,6.84-7.56,3.47-4,7.13-6.27,13.08-6.11,19.81.53,39.64.2,59.47.2,36.2,0,72.4-.25,108.59.18,8.87.1,18.89-4.07,26.49,4.73.76.87,3.28.25,5,.25,6,0,12.06,0,18.1,0h54.3c6,0,12.28,1,18-.26,6.95-1.5,10.33,5.09,16,5.36,6.88.31,13.78.07,20.68.07h28.44c9.48,0,19,.81,28.42-.23,8.85-1,14.39,7.68,23.82,5.8,9.11-1.82,18.88-.4,28.36-.4s19-.71,28.42.22c8,.8,14.9,6.38,23.77,5.17a78,78,0,0,1,23.19.06c7.93,1.34,14.85,6.48,23.8,5.13,7.58-1.14,15.51-.69,23.22-.09,6.39.49,10.81,7.11,18.63,5.33,6.55-1.48,13.72-.3,20.61-.3,6.61,7.66,15.57,4.82,23.72,5.06,5.27.16,7.19,6.78,13.42,5.56,4.59-.91,10.33-2.11,14,3.48.66,1,3,1.32,4.49,1.35,6.9.14,14.34-1.56,20.54.52s11.62,5.77,18.71,4.89c2.08-.26,4.73,1.17,6.59,2.54,7.2,5.26,17,5.64,23.2,12.72,7.69-1.23,8.45,3.48,7.82,9.23a13.27,13.27,0,0,1-11.1,11.49c-3.19.59-9.32-.71-8.91,2.36,1.33,9.8-8.31,6.36-11.19,10.65-.58.87-3.25,1.57-3.43,1.3-4.39-6.4-11-2.88-16.57-4-9.61-1.87-20.73,4.83-28.91-5.08l-33.6,0c-10.34,0-20.69.29-31-.11-5.62-.23-9.12-6.74-16-5.31-5.79,1.2-12,.25-18.05.25H742.6c-6,0-12.13.55-18.09-.12-11.4-1.28-23.54,4-34.32-4.74-2.61-2.11-8.37-.31-12.68-.31-39.65,0-79.3.49-118.93-.28-13.08-.25-27.08,5-39.42-4.66-2.14-1.67-6.71-.23-10.16-.23-31,0-62.08.68-93.08-.29-15.66-.49-32.28,5.44-47-4.89-8.62,0-17.27.48-25.85-.15-6.68-.49-11.37,1.8-15.38,6.79-4.55,5.66-10.47,5.39-15.65,1.71-3-2.12-5.49-3.37-9.1-3.24-5.12.18-11.7,1.81-15-.69-4.57-3.4-8.86-3.69-13.76-4.78-3.58-.8-6.63-4.74-9.45-7.73-.82-.88-.72-3.87.14-4.88,3.36-3.91,7.19-7.42,10.85-11.08.61-.6,1.28-1.77,1.83-1.72,9.21.86,19.17-2.94,27.47,2.11,4.1,2.49,7.63,3,11.76,3,21.55,0,43.13-.68,64.63.29,12.24.55,25.39-4.79,36.86,4.66,2.05,1.69,6.69.24,10.14.24,14.65,0,29.31-.18,44,.09,5.65.1,11.53-1.79,16.67,3.87,2,2.25,8,1.17,12.21,1.17,44,.06,87.92-.11,131.87.19,7.22.05,15-2.6,21.69,4.12,2.21,2.21,8.14.87,12.37.88q59.48.06,118.94,0h20.69c7.75,0,15.59.68,23.25-.19,7.25-.83,12.64,4.27,18.61,4.88,14.5,1.49,29.26.53,43.91.34.75,0,1.64-2,2.1-3.26.13-.33-1.15-1.73-1.72-1.68a22.52,22.52,0,0,1-16.29-4.81c-3.36-2.5-9.92-.67-15-.78-3.88-6.55-10.68-5.91-16-4.53-8.59,2.22-13.39-6.28-21.22-5.62s-15.51.14-23.26.14c-7.55-7.95-17.33-4.5-26.3-5.18C764.74,843.21,751.94,851,742.72,848.31Z"/><path d="M1030,268.38c0,.86,0,1.72,0,2.58-.26,10.27-9.39,16.63-18.9,12.5-2.86-1.24-4.7-4.31-8.67-4.18-5.75.19-12.2,1.78-16.07-4.74L971,274.23c-6.16-10.55-20.56.2-26.73-10.35-5.7-1-12.34,2.75-17.11-2.23-5.2-5.43-11.32-2-16.94-2.89-3.22-.51-6.24.07-9.46-2.31-8.84-6.56-19.33-10.67-30.1-7.72-8.31,2.29-11.55-6.36-18.65-5.68-6.83.66-13.77.15-20.66.15-7.32-9.08-17.43-4.74-26.3-4.91-7-.14-11-7.33-18.59-5.7-5.71,1.22-11.92.06-17.91,0-7.49-8.78-17.8-2.66-26.36-5.09s-16.87-6-26.37-5.12c-8.54.81-17.23-.12-25.83.27-6.15.27-9-7.2-16-5.55-5.71,1.35-12,.28-18,.28-10.12-9.83-22.73-4.8-34-4.69-8.84.08-14.31-8.21-23.8-6.05-8.19,1.87-17.15.39-25.76.39-8.15-10-19.26-3.41-28.9-5.08s-20.48,3.43-28.86-5.26c-12.92,0-25.85.21-38.77-.1-5.64-.13-12,2.32-16.55-4-1-1.37-4.7-.84-7.16-1.07-12.29-1.18-25.21,3.21-36.8-5-2.3-1.63-6.77.11-10.16-.31-8.06-1-17.25,3.46-23.85-4.77l-25.72-.33c-4.06-5.59-9.86-5.55-15.95-5.24s-12.06,0-18.09.1c-6.59.14-13.61-1.8-18.77,5-1,1.25-5,.37-7.52.14-4.92-.43-7.32-6.52-13.41-5.35-4.76.91-9.62.81-14.06-3.68-2.22-2.25-8-.94-12.2-1.28-3.32-.26-7,.27-9.88-1.06a85.5,85.5,0,0,1-14.34-9c-4.26-3.16-4.21-6.56-.38-10.57,3-3.11,5.81-6.48,9.25-9,1.62-1.18,4.64-1,6.84-.6,1.41.29,2.38,3.2,3.71,3.33,6.73.64,13.95-.57,20.15,1.46,5.32,1.74,9.73,5.48,16.1,4.93a142,142,0,0,1,23.24,0c8.08.63,17.17-3.46,24,4.63.75.89,3.25.21,4.92.43,9.86,1.28,19.93-2.33,29.76,3.11,9.3,5.15,20.06,1.27,30.15,1.94,5.17.35,7.2,7,13.41,5.47,4-1,8.56-.19,12.87-.19,5.17,0,11.62-2,15.28.36,12.7,8.16,26.32,3.67,39.46,4.68,6.67.51,10.63,7.85,18.62,5.64,5.24-1.45,12-2.18,16.25,4.12.62.9,3.14.5,4.78.71,14.78,1.88,30.45-4.54,44.5,5,1.77,1.2,5,.16,7.64.16,10.34,0,20.92,1.38,30.94-.41,8.7-1.56,13.58,6,21.2,5.65,6.88-.31,13.79-.06,20.68-.06,8.15,10,19.32,3.09,28.88,5.17,7.16,1.56,15.56-3.66,21.63,3.93,6.73.41,14.75-1.38,19.92,1.67,13.73,8.08,28.07,3.42,42.06,4.65a113.68,113.68,0,0,0,18.08,0c6.18-.44,9,7.21,16,5.54,5.72-1.35,12-.28,18-.28,7.51,8.12,17.39,5.14,26.29,4.9,7.13-.19,11,7.27,18.59,5.69,5.78-1.21,12-.24,18.05-.24,6.3,9,15.8,3.47,23.68,5.27,5.43,1.24,9.31,6.57,16,5.26a43.77,43.77,0,0,1,15.44,0c3.78.65,7.07,3.83,10.86,4.8,4,1,9.31-.66,12.27,1.4,3.73,2.58,6.9,4.21,11.4,4,6-.28,12.35,1.09,18-.36,7.16-1.82,9.57,7.6,16,5.42,6.08-2.06,8.23,5.67,13.37,5.14,5.52-.57,10,.77,13.38,5.25C1031.32,257.21,1030,263.31,1030,268.38Z"/><path d="M253.51,657c16.37,0,32.75-.43,49.09.17,8.9.33,18.62-3.75,26.63,4.53,1.69,1.74,6.58.46,10,.46,15.5,0,31-.71,46.49.27,10.53.66,22.12-5,31.72,4.67,1.7,1.72,6.71-.21,10.07.33,10.49,1.69,22.34-4.93,31.46,5.09,7.75,0,15.58-.71,23.24.15,13.09,1.48,27.28-5.25,39.22,5h38.75c6.75,7,15.5,5,23.7,5.13,7.75.18,15.51-.09,23.25.16,1.38.05,2.91,1.47,4,2.6,3.83,3.85,7.06,3,10.8-.41,1.61-1.47,5.91-2.82,6.5-2.12,6,7.12,14.42,6.18,21.24,4.55,8.83-2.11,13.42,6.41,21.22,5.73,6.84-.6,13.77-.13,20.67-.13,7.75,0,15.56-.59,23.23.2,5.46.57,9.27,6.53,16,5.17,5-1,10.3-.19,15.47-.19,6,0,12.13.59,18.06-.16,6.46-.82,8.89,7.42,16,5.62,5.67-1.43,12-.29,18-.29s12.25-1,18,.23c7.91,1.64,14.84,6.42,23.78,5.19,8.46-1.16,17.28.51,25.78-.48,7.34-.86,11,7.34,18.61,5.65,5.75-1.27,12-.25,18-.25,6.89,0,14.2-1.4,20.53.48,4.42,1.32,7.51,5.94,11.31-.34,7.38,9,17.47,4.56,26.34,4.75,6.42.14,9.1,7.66,15.65,6.28.46-.09,1.78,1.19,1.72,1.73-.62,5.77,2.24,12.08-1.79,17.25-2,2.51-5,5.62-7.77,5.78-11.16.66-22.37.28-33.57.28-6.65-7.48-15.53-5-23.7-5.07-5.33,0-7.2-7.06-13.41-5.47-4,1-8.56.19-12.87.19-5.17,0-10.39.47-15.49-.13-5.54-.64-9.19-6.74-16-5.25-4.93,1.08-11.57,2.2-15.23-.15-12.69-8.15-26.4-2.88-39.4-5-7.94-1.28-14.79-6.64-23.76-5.24-7.57,1.19-15.48,0-23.22.33-6.11.27-9-7.16-16-5.53-5.72,1.33-12,.27-18,.27-10.16-9.5-22.64-3.91-34.05-5-5.28-.49-7.15-6.87-13.39-5.62-5.8,1.16-12,.25-18,.25-5.17,0-10.62,1-15.44-.26-6.18-1.67-11.19-6.48-18.63-5.13-5.84,1.07-12.45,1.58-17.94-.14-6.17-1.95-11.42-6-18.66-5-5.91.83-12,.17-18.07.17-6.89,0-13.78.06-20.67,0-4.23,0-9.28,1-12.47-.89-3.67-2.22-6.56-4.52-11.23-4.36-10.32.34-20.68.38-31,0-6.46-.23-13.89,2.84-18.86-4.35-.36-.51-1.48-.68-2.25-.69-7.75,0-15.51,0-23.26,0H418.14c-5.76-6.9-13.7-5.11-21.11-5.14-19.81-.09-39.62,0-59.43,0-3.44,0-6.9.14-10.33-.06-1.55-.09-3.65-.38-4.49-1.4-2.61-3.16-4.21-3.7-7.59-.38-3.2,3.13-3.9,2.57-8.62-.2-1.83-1.06-2.87-4.14-5.56-.87a10.09,10.09,0,0,1-13.72,1.85c-11-8.59-23.2-2-34.62-3.86-1.64-.26-4.3,2.57-5.65,4.55-2.22,3.27-3.19,9.52-5.69,10.09-6.55,1.48-13.63.58-20.5.62-7.27-9.31-17.65-5.53-26.24-4.72-11.91,1.13-16.77-7-23-13.53-3.93-4.12,3.5-17.57,9.53-17.89,5.15-.28,10.33-.06,15.5-.06Z"/><path d="M299.22,108.72H317.3c12.08,9.13,26.07,3.88,39.18,5.08,5,.46,9.78-.16,13.86,4.47,1.57,1.77,6.45.75,9.81.77,11.19.07,22.49,1,33.54-.27,9-1,14.34,7.81,23.8,5.87,9.08-1.86,18.85-.4,28.32-.4,8.61,0,17.22-.1,25.82,0,5.78.09,9,7,16,5.4,5.73-1.3,12-.27,18-.27h18.08c6,0,12.09.41,18.07-.1,7.76-.67,12.41,7.86,21.2,5.65,7.28-1.84,15.4-.36,23.15-.38,2.56,0,6.68.89,7.43-.3,4.37-7,7.52-.88,11.59,0a41.44,41.44,0,0,0,17.94,0c7.1-1.73,9.75,5.87,16,5.6,12-.5,24.11-.54,36.14,0,7.23.33,15.33-3,21.52,4.32,1.14,1.35,4.82.66,7.33.68,6.89.07,13.81-.44,20.65.15,8.06.7,17.25-3.55,23.8,4.77l25.71.28c9.11,10,21,4.82,31.42,4.62,6.92-.14,8.78,8.22,16,6,4.72-1.45,10.24-.28,15.41-.28,6,0,12.06-.17,18.07.06,4.95.19,7.29,6.52,13.4,5.34,4.73-.91,9.87-1.23,14,3.71,1.52,1.83,6.31,1,9.63,1.21,7.63.36,15.27.56,22.91.83,4.94,7.24,13.88,1.49,18.5,4.84,7.06,5.12,14.11,5.2,21.42,4.5s11,7.14,18.59,5.65c5.74-1.13,7.68,5.87,11.71,8.72,2.94,2.09,5.61,5.37,3.72,8.53-2,3.37-5.75,7.66-9.05,8-11.1,1-22.35.37-33.54.37-8.41-8.41-19.09-4.2-28.84-5.21-1.57-.16-3.82-.33-4.51-1.35-5.82-8.5-17.11.85-22.94-7.19-.49-.68-1.15-1.58-1.85-1.7-5.72-1-12.46,2.53-17.13-2.11-5.29-5.27-11.24-2.39-16.88-3-4.21-.49-8.5-.3-12.76-.42-3.62-7.89-12.81-2.23-17.67-7.26-1.1-1.14-2.62-2.53-4-2.62-8.46-.54-16.95-.73-25.43-1-5.93-7.65-14.46-4.46-21.44-3.85-8.95.79-14.37-8-23.8-6-8.22,1.8-17.14.38-25.74.38-9.13-10-21-3.26-31.43-5.18s-22.18,4.79-31.61-5c-1.25-1.29-5-.18-7.57-.18-14.63,0-29.28-.41-43.89.18-7.06.29-10.63-8-18.61-5.66-5.57,1.6-12,.31-18,.31H553.65c-6.89,0-13.82-.5-20.65.16-5.69.54-9.08-3.79-13.47-4.9-6.47-1.65-13.75.25-20.53-.57-13.93-1.7-28.74,5-41.95-4.8-2.22-1.65-6.71-.23-10.16-.23-18.93,0-37.87.19-56.81-.11-6.44-.1-13.66,2.68-19-4.22-1-1.34-4.76-.79-7.25-.81-10.33-.08-20.66,0-31,0-8.61,0-17.4,1.08-25.77-.34-7-1.19-13.2-6.09-21.17-5-6,.82-8-5.52-11.84-8.57-2.31-1.84-6-4-1.25-7.22,3.76-2.53-.07-11,8.36-10C287.11,109.25,293.2,108.72,299.22,108.72Z"/><path d="M975.71,320.77c-5.17,0-10.39-.44-15.5.11-7,.76-11-6.95-18.61-5.61-5.3.93-11.87,2.6-16.59-3.47-1.1-1.43-4.63-1.27-7.06-1.31-8.61-.15-17.27-.56-25.84.11-6.37.49-10.82-2.71-16.1-5-4.35-1.89-10-.55-15-1.41-2.18-.38-3.86-3.49-6.06-3.93-8-1.6-17.22,3.26-23.8-5-7.1-1.42-15.67,2.79-21-5.47-11.2,0-22.41.25-33.6-.1-5.65-.18-11.61,2-16.75-3.4-3.86-4-9.76-1.21-14.73-1.59-6-.45-12-.28-18-.39-6.59-8.27-15.8-3.71-23.84-4.84-5.62-.79-12.12,2.27-16.46-4.2-.63-1-3.05-.87-4.66-1-9.84-.6-20.29,2.33-28.88-5.21-8.62,0-17.27.48-25.84-.13-8.07-.58-17.24,3.53-23.9-4.69-.37-.46-1.58-.33-2.41-.33-7.75,0-15.84-1.4-23.18.34-8.7,2.07-13.56-5.95-21.21-5.61a180.36,180.36,0,0,1-23.25-.07c-6.64-.56-14.25,3.26-19.76-1.86s-11.25-2.68-16.89-3c-6.87-.46-14.17,1.28-20.57-.51-6.18-1.73-11.44-5.95-18.67-4.94-5.92.82-12,.17-18.07.17-6.9,0-13.8.26-20.68-.09-5.65-.28-12.26,2.48-16.34-4.17l-20.3-.91c-7.55-7.88-17.3-4.81-26.3-5.11-9.46-.31-18.95,0-28.43-.09-5.93-.05-9,7.21-16,5.43a35.14,35.14,0,0,0-15.41,0c-8.21,1.73-13-6.94-21.21-5.62-7.56,1.2-15.47.25-23.23.25-4.62-7.31-12.15-4-18.46-5.48-3.65-.83-6.8-4.55-9.72-7.43-.88-.86-1-3.89-.15-4.87a130.56,130.56,0,0,1,10.74-11.08,7.27,7.27,0,0,1,4.25-2.07c6-.23,12.06-.1,18.09-.1,9.12,10,21,3.69,31.49,5,6.78.86,13.77.39,20.65.09,6.09-.26,10.78,1.78,16.28,4.63s13.55-.07,20.34.77c12.24,1.51,25.55-4.87,36.76,4.9,1,.86,3.37-.1,5.06.15,12.21,1.79,25.56-4.6,36.64,5.14,11.2,0,22.43-.41,33.6.15,7.25.36,15.46-3.08,21.5,4.32.76.92,3.16.52,4.8.7,13.11,1.45,26.27-2.3,39.5,4.64,9.82,5.14,23.77-4.9,33.77,5.71,12.07,0,24.37,1.45,36.12-.48,8.8-1.45,13.4,6.41,21.21,5.78,6.8-.55,13.69.07,20.54.17,6.59,8.28,15.79,3.86,23.85,4.82,9.74,1.15,20.37-3.14,29,5.11.9.86,3.35,0,5.06.14,14,1.47,28.48-3.67,42,4.79,3.71,2.32,10.16-.08,15.27.45,8.07.84,17.24-3.49,23.91,4.72.37.47,1.58.34,2.4.34q16.8,0,33.61,0c8.18,9.78,19.32,4.94,28.86,4.69,8.88-.23,14.33,8.37,23.81,6,7.31-1.81,15.51-1.05,23.15-.13,5.42.65,9.32,6.18,16,5.17s13.75-.23,20.65-.23c6,0,12.06-.06,18.09,0,5,.07,9.91-.92,14,4,1.53,1.81,6.35,1.06,9.67,1.12,7.76.13,15.62-.74,23.23.31,5.34.74,11.77,2.74,15,6.5,2.67,3.07,1.69,9.57,1.72,14.56,0,3.54-6.81,9.63-10.24,9.68C987.78,320.84,981.74,320.77,975.71,320.77Z"/><path d="M886,538c-3.44,0-6.89.13-10.33,0-6.72-.31-13.44-.79-20.16-1.2-5.19-6.88-12.6-3-19-3.95-4-8.67-15-1.56-19.6-8.81-1.18-1.86-2.22-1.49-3.71.55s-2.88,3.6-5.55.78c-1.49-1.59-4.22-2.51-6.49-2.77-11.42-1.26-23.48,2.86-34.19-5-2.24-1.65-6.76.1-10.15-.31-8-1-16.72,2.92-24.16-4.44-2.2-2.19-8.28,0-12.43-.77-9.63-1.69-20.55,4.68-29.1-4.83-1.16-1.29-5-.23-7.53-.23-7.75,0-15.88-1.49-23.15.38-8.82,2.26-13.41-6.31-21.21-5.69s-15.49.25-23.24.09c-5-.1-7.27-6.61-13.4-5.34-5,1-10.29.21-15.46.21s-10.35.31-15.49-.07c-7.27-.55-12.79-6.79-21.16-5.41s-17.17.31-25.78.31c-7.75,0-15.5.12-23.25,0-9-.19-16.23-7.46-26.35-5.51-9.13,1.75-19.27,2-28.22-.11-8.78-2.1-17-5.46-26.4-4.82-8.57.59-17.21.12-25.82.12-9.47,0-19,.09-28.42,0-5.77-.07-12.18,1.64-16.05-4.86-4.86.14-10.05-2.11-14.07,3-3.2,4.08-8.08,1.65-12.08,1.56-1.9,0-3.69-4.56-5.63-4.63-10.27-.41-20.57-.07-30.86.13-.62,0-1.81,1.59-1.74,1.69.85,1.12,1.77,2.79,2.91,3,3.29.57,6.76.23,10,.92.93.2,1.84,2.68,1.9,4.15s-.81,4.18-1.55,4.29c-5,.68-10,.81-15.09,1.12-8.41-8.44-19.08-4.44-28.86-5.1-6-.4-12-.07-18.08-.07-8.42-8.42-19.15-3.88-28.82-5.36-3.77-.58-7.06-4-10.85-4.79-4.12-.87-9.12,1.05-12.71-.56-3.38-1.51-6.29-5.68-7.74-9.34-1.07-2.67-.61-8.05,1.22-9.36,4.42-3.16,10.11-6.56,15.16-6.37,8.85.31,18.5-4.28,26.87,3.74,2.31,2.21,8.12,1,12.33,1,33.58.06,67.16-.16,100.74.19,7.21.07,15.18-2.85,21.58,4.28,1.59,1.77,6.49.7,9.86.71,12.06.06,24.14-.45,36.16.19,8.9.47,18.75-3.87,26.57,4.59,1.21,1.32,4.91.4,7.46.41,12.91,0,26,1.12,38.69-.42,7.23-.88,8.89,7.56,16.07,5.92,6.54-1.5,13.7-.32,20.59-.32,6,0,12.08-.36,18.07.11,5.61.44,9.12,6.58,16,5.33,6.67-1.22,13.73-.27,20.62-.27,6,0,12.21.86,18-.22,6.77-1.25,8.85,7.39,16,5.72,6.54-1.52,13.71-.33,20.6-.33H637.7c13.84,9.79,29.57,3.42,44.36,5.08,5,.57,10.06-.67,13.87,4.38,1,1.35,4.74.83,7.23.86,9.47.08,19-.4,28.4.17,7.24.43,15.21-2.87,21.58,4.34,1.55,1.76,6.53.28,9.86.74,7.2,1,15.71-3.41,21.19,5,6.86.05,13.73.13,20.59.16,7.75,0,15.5,0,23.25,0,6.89,0,13.79-.2,20.66.06,5.72.22,9,6.91,16,5.37,5.75-1.27,12-.26,18-.26s12.31,1.1,18-.23c11.41-2.65,17.34,4.46,23.94,11.21,3.66,3.73,2.61,8.71,1.45,12s-5.74,7.36-9.16,7.69C906.75,538.64,896.35,538,886,538Z"/><path d="M955.24,367.32c-7.75,0-15.65-.95-23.21.27s-11.49-6.25-18.58-5.59c-6.81.64-13.73.08-20.6,0-6.41-8.72-15.75-3.7-23.73-5.08-4.78-.83-7.37-6.48-13.4-5.35-4.81.9-9.84.95-14-3.91-1.52-1.8-6.39-.63-9.69-1.1-7.22-1-15.53,3-21.39-4.56-.38-.49-1.52-.52-2.31-.56q-15.23-.68-30.47-1.28c-9-7.51-19.82-4.33-29.32-3.33-8.63.9-13.5-6.25-21.17-5.83-6.86.37-13.77.08-20.66.07-7.28-9.23-17.47-5-26.26-4.78-6.6.15-8.85-7.7-16-5.85-5.65,1.46-12,.29-18,.29s-12.12-.57-18.06.16c-6.43.78-8.86-7.47-16-5.62-5.66,1.46-12,.29-18,.29s-12.06.19-18.08-.05c-6.53-.25-10.71-7.35-18.6-5.44-6.51,1.57-13.7.32-20.59.32-11.93-10.27-26.2-2.94-39.17-5.23-9.64-1.7-20.52,4.56-29.12-4.8-1.19-1.3-4.93-.3-7.5-.31-14.63,0-29.27.07-43.91-.08-2.36,0-5.61-.24-6.89-1.72-3.12-3.6-4.84-2.79-7.57.32-3.18,3.64-5-6.95-9.1-1.17-2.22,3.16-5.7,3.92-8.68,1.5-2.67-2.18-4.81-4.75-8.71-4.05a14.81,14.81,0,0,1-2.58,0c-17.22,0-34.44.06-51.66,0-4.24,0-6,1.73-6,6,0,2.88-1.65,4.54-4.78,4.44-2.58-.09-6.46,1.06-7.52-.21-4.51-5.39-10.18-4.81-16.16-5.16-6.43-.38-13.49,2.82-19.24-3.43-4-4.36-11.86,1.46-16-5.36-1.06-1.75-6.27-.79-9.49-1.47-1.49-.31-4-1.6-4-2.38.19-5.78-2.29-12,1.48-17.28,3-4.24,7.18-8.19,12.85-5.95,6.89,2.72,13.31,6,21.18,5.16,6.82-.7,13.93.79,20.61-.37,9-1.57,14.32,7.8,23.82,5.81,9.07-1.91,18.85-.41,28.33-.41h25.83c8.61,0,17.23-.29,25.82.1,5.64.26,9.1,6.92,16,5.29,4.89-1.15,10.28-.22,15.44-.22h18.08c5.17,0,10.36.27,15.5-.09,3.83-.27,6.23,1.31,8.84,3.83,2.82,2.72,6.15,2.11,8.71-.9s5.44-3.83,8.81-2c2.14,1.17,3.79,3.68,6,4.19,9.55,2.24,20.57-4.3,29,4.87,9.41.15,18.91,1.16,28.2.15,6.75-.73,10.49,4.7,16,5.29,6.81.73,13.75.17,20.64.17h18.08c9.1,10.12,20.95,3.54,31.46,5.06,7.26,1,15-1.52,21.35,5,1.67,1.72,6.69-.17,10.06.34,12.18,1.85,25.56-4.85,36.66,5,.48.42,1.68,0,2.53.06,9.76.92,20.43-3.26,28.91,5.11.44.43,1.68,0,2.53.06C753.16,316.66,765,313,776,320.4c3.57,2.39,10.13-.06,15.24.47,8.06.84,17.24-3.49,23.83,4.76,5.12.1,10.34-.38,15.35.44,10.48,1.71,22.39-5.34,31.47,5l31,.05c10,10.55,22.74,3,34,5.11,9.6,1.8,20.43-3.7,29.05,5,.73.74,4.89-.74,6.47-2.24,4.42-4.18,10.61-4.41,13.76-1.56,4.56,4.12,9,3.9,14,4.05a2.8,2.8,0,0,1,2.08,1.08c3,5.56,1.33,11.5,1.15,17.3,0,1.5-8.16,7.41-9.77,7.42C974.18,367.34,964.71,367.32,955.24,367.32Z"/><path d="M924.52,481.1c-7-1.23-15.56,3.42-21-5-10.32-.06-20.72-1-30.93.1-7.43.78-12.48-3.3-18.63-5.26-5.33-1.69-12.06,2.15-16.5-4a3.15,3.15,0,0,0-2-1.34c-6.83-.25-13.66-.36-20.5-.51-4.75-7.47-12.58-5.5-18.65-4.34-7.83,1.51-10.86-7.45-18.69-5.94-6.08,1.17-13.88,3.11-18.72-4.3-.31-.47-1.54-.46-2.34-.47-6.9,0-14.12-1.33-20.6.32-8,2-11.55-6.33-18.64-5.65-6.84.65-14.1-1.15-20.6.44-10.09,2.46-16.32-7.81-26.45-5.85-9.14,1.78-18.93.9-28.36.18-5.47-.41-9.26-6.56-16-5.17-5,1-10.31.2-15.48.2-6,0-12.08-.24-18.09.06-6.85.34-10.55-7.83-18.65-5.59-6.41,1.77-13.69.36-20.59.36s-13.8-.25-20.68.08a13.56,13.56,0,0,1-11.28-4.36c-1.34-1.36-5.15,0-7.2-1-4.81-2.53-6.29,8.67-12.28,2.23-4.47-4.82-11.35-1.5-17.13-2-5.13-.44-10.33-.1-15.51-.1H448.3c-4.63-7.28-12-5.1-18.55-5.13-19.82-.11-39.65,0-59.47,0-8.41,3.86-13.33-5.91-21.14-5.3s-15.51.13-23.26.13c-2.59,0-5.18,0-7.76,0-6.32.09-6.32.11-7,7.43-.72,7.69-.93,8.15-6.37,8-5.73-.14-11.72,1.64-16.53-4.21-1.47-1.78-6.42-.64-9.77-.92-4.16-.34-8.3-.76-12.45-1.14-3.37-7.34-11.78-1.18-15.68-5.63-3.45-3.93-7.41-3.06-11.53-3.69-6.83-1.05-11.28-7.82-10.43-14.69.67-5.4,6.35-10.95,11.61-11,9.48-.11,19.07-.88,28.41.25,7.09.85,13.11,6.18,21.2,5.11,7.62-1,15.48-.22,23.24-.22s15.78,1.26,23.2-.33c8.57-1.83,12.92,7.24,21.25,5.78,7.53-1.32,15.47-.28,23.23-.28h20.68c7.76,0,15.69-1,23.22.31,6.21,1.06,11.14,6.29,18.64,5.12s15.47-.25,23.23-.25c6.9,0,13.81.26,20.68-.12,3.32-.18,4.19,2.52,6.28,3.72,3.7,2.13,3.79,2,8.79-.59,1.29-.68,3.4-2.42,3.53-2.27,7.74,8.78,17.83,3.09,26.72,4.29,12.22,1.65,25.39-3.36,36.62,5.31,12.93,0,25.88-.47,38.78.16,8.91.44,18.94-4,26.42,4.74,6,.09,12.11-.54,18,.42,11.34,1.87,24.07-5.55,34.08,5,5.17,0,10.41-.53,15.5.12,8.13,1,16.53-3.13,24.56,3.31,6.18,5,14.87.5,22.3,2.1,4,7.68,7.54.78,11.41-.24,2.42-.63,6.22-1.22,7.54.07,7.07,6.93,15.72,4.32,23.89,5.09s17.27-3.57,23.88,4.8c.35.45,1.6.26,2.43.26,8.62,0,17.38,1,25.82-.26,8.24-1.2,13,6.91,21.21,5.71,8.44-1.22,17.22-.59,25.81-.14,4.9.25,10.65-2.57,14.63,1.88,5,5.62,11.22,2.52,16.86,3.06,5.13.49,10.37-.29,15.49.22,4.85.48,7.38,6.75,13.11,5.86.5-.08,1.78,1.18,1.72,1.73-.58,5.78,2.25,12.08-1.76,17.26-1.95,2.51-4.94,5.36-7.8,5.8C936.85,481.73,930.72,481.1,924.52,481.1Z"/><path d="M288,1055.19c9.47,0,19-.69,28.41.18,11.4,1.05,23.75-4.38,34.2,4.82,1.46,1.28,5,.17,7.6.17,16.36,0,32.78-.77,49.08.25,12.24.77,25.59-5,36.63,4.92h15.5c13.79,0,27.62-.72,41.33.28,7.92.58,14.77,6.36,23.75,5.17,9.31-1.23,18.91-.27,28.39-.27,8.61,0,17.23,0,25.84,0,5.07,0,9.35.43,14,4.1,3.23,2.56,9.86.48,14.87,1.18,8.86,1.24,18.63-3.74,26.68,4.5,1.72,1.75,6.55.56,10,.56q46.51,0,93,0c5.86,0,12-1.19,16.14,5,.55.81,3.43.65,4.94.13,17.06-5.9,17-5.75,29.93-1.38,3.83,1.3,8.2,1.39,12.33,1.39q71.05.13,142.12.06c7.75,0,15.88,1.49,23.15-.38,8.83-2.26,13.44,6.59,21.23,5.63,3.43-.42,7.23-.06,6.67,5-.35,3.22,1.64,6.85-1.69,9.64-2,1.66-3.39,4.25-5.59,5.27s-4.94.65-7.46.66c-13.78,0-27.64-.87-41.31.34-9,.8-14.33-8-23.82-5.88-8.19,1.86-17.14.39-25.75.39H810.61c-8.61,0-17.28-.58-25.82.18-7.16.64-11-7.15-18.6-5.59-5.78,1.19-12,.24-18,.24H727.48c-6,0-12.08.35-18.08-.1-5.62-.43-9.13-6.88-16-5.29-4.91,1.13-10.29.22-15.46.22H659.86c-5.17,0-10.34,0-15.51,0-7.43-.08-12.66-7.25-21.18-5.48-7.43,1.54-15.44.32-23.19.32H576.73c-7.76,0-15.51-.15-23.26.07-4.43.12-7.89-.73-11.43-4-2-1.8-6.38-.9-9.68-1.27-8.5-1-14.63,6.24-23.73,5.78-8.65-.44-14.47-8.44-23.74-6-5.65,1.46-12,.67-18,.16-5.64-.49-11.63,2.41-16.91-3-4.66-4.75-11.38-1.83-17.13-2-14.64-.38-29.29,0-43.93-.17-6.58,0-13.44,1.72-18.84-4.88-1.35-1.65-8.49-1.51-9.62.13-4.67,6.72-7.69,1.67-11.7-.21-2.13-1-5.09-.17-7.67-.17-10.34,0-20.68-.18-31,.07-5.69.13-11.5-1.56-16.62,4-2.07,2.23-8.05.93-12.25,1.09-6.17.23-6.15.19-13.58,9.86-1,1.35-2.65,2.3-3.58,3.71-1.42,2.18-2.45,2.37-3.71.32-3.53-5.7-9.49-4.15-14-3.24-7.59,1.53-13.06-2.42-18.45-5.69-5.6-3.4-10.21-8.53-14.93-13.23-.79-.79-.1-3.27.24-4.91.15-.7,1.14-1.23,1.75-1.84a98.65,98.65,0,0,0,7.25-7.36c2.42-3,5.28-3.57,8.94-3.54C250.1,1055.28,269.05,1055.19,288,1055.19Z"/><path d="M275.78,913c17.82-12.93,32.48-13.29,47.11-12.78,7.23.26,15.18-2.83,21.59,4.27,1.61,1.77,6.49.72,9.86.73,19,.05,37.92-.37,56.85.2,8.89.26,18.62-3.74,26.64,4.51,1.7,1.74,6.58.47,10,.48,17.22,0,34.49-.7,51.67.27,10.51.59,22-4.92,31.77,4.59,2.22,2.15,8.31.32,12.61.32,6,0,12.07.22,18.09-.07s11,.83,16.29,4.78c3.33,2.47,10.08-.12,15.15.58,12.21,1.68,25.59-4.9,36.64,5,9.09,1.38,18.84-3.07,27.37,2.49,8,5.19,16.52,1.8,24.76,2.59,5.12.49,10.35-.2,15.49.17,6.47.46,13.68-2.62,19,4.29,1,1.34,4.77.75,7.27.78,7.75.08,15.51-.12,23.26.07,7.59.19,15.18.73,22.78,1.11,5.14,7,12.58,3.1,19,4,5.66,7.32,13.82,4.3,21.1,5.28,6.43.88,13.13-2.45,19.42,3.23,5.38,4.85,13.14,1.17,19.81,1.71,6.84.55,13.77,0,20.66.17,5,.14,7.29,6.53,13.41,5.35,4.88-.94,10.15.12,15.25.29,4,6.5,10.51,3.81,16.12,4.83,4.62.85,9,3.26,13.4,5,2.56,1,3.86,2.7,3.64,5.69-.26,3.42,0,6.89-.07,10.33,0,3-1.6,4.63-4.59,4.65-7.76,0-15.57-.61-23.24.2-7.2.75-11-7.2-18.6-5.6-5.78,1.22-12,.24-18,.24-6.36-8.79-15.68-4.06-23.71-5.1-5-.65-7.26-6.67-13.4-5.47-4.71.91-10.29,1.66-13.88-3.82-.63-1-3-.95-4.61-1.09-9.77-.91-20.4,3-28.86-5.2-6,0-12.1.43-18.08-.12-7.24-.66-15.57,3.17-21.37-4.57-.36-.48-1.54-.46-2.34-.47-7.76,0-15.51,0-23.26,0-4.83-6.56-11.93-5.23-18.53-5.1-5.31.11-7.2-7-13.41-5.43-4.05,1-8.57.19-12.88.19-5.16,0-10.58-1-15.44.24-7,1.77-10.18-5.33-16-5.4-6-.07-12.06,0-18.09,0H605.31c-10.33-8.41-22.62-3.81-34-5.25-13.93-1.77-28.74,4.82-42-4.86-2.25-1.65-6.72-.24-10.17-.24-21.53,0-43.07.28-64.6-.15-7.22-.15-15.18,2.82-21.61-4.23-1.62-1.78-6.48-.75-9.85-.76-14.64-.06-29.3.38-43.92-.19-8.06-.32-17.06,3.42-24-4.57-1.14-1.31-4.89-.42-7.44-.43-10.34,0-20.71-.55-31,.16-8,.56-17.41-4.07-23.71,5-5.17,0-10.34.17-15.5,0s-1.58,3.56-2.55,5.24c-.79,1.37-1.15,4.14-1.88,4.2-6.76.58-13.55.7-20.34,1-10.18-9.37-22.65-3.69-34-5.18-3.26-.43-7.41.2-9.59-1.57-4.48-3.67-8-8.52-11.63-13.17-.6-.79.22-3.38,1.15-4.5,4.2-5.06,17.63-11.74,23.49-11.76,18.95-.07,37.9,0,53.67,12.9-2.41,12.93-1.34,13.23-.95,12.85a2.29,2.29,0,0,0,0-2.19c-1.2-1.69-2.68-3.82-4.5-.71C270.12,923.33,271.81,924.87,275.78,913Z"/><path d="M327.53,605.23q42.64,0,85.29,0c5,0,10.19-1.18,14,4.08.8,1.1,5.77,1.11,6.56,0,4.53-6.32,11-4.34,16.52-3.87,6.3.55,10.9,7,18.62,5.2,5.71-1.35,12-.27,18-.27,6.89,0,14,.94,20.63-.23,8.24-1.45,13,7,21.2,5.66,7.57-1.2,15.47-.25,23.22-.25s15.53-.34,23.26.11c5.62.32,9.11,6.59,16,5.32,6.66-1.23,13.73-.26,20.62-.26,6,0,12.22.85,18-.23,6.77-1.25,8.87,7.4,16.07,5.72,6.54-1.52,13.71-.32,20.6-.32h18.09c6,0,12.18-.73,18.07.18,8,1.21,14.79,6.66,23.77,5.24,7.56-1.2,15.47-.44,23.22-.19,6.53.21,10.72,7.34,18.61,5.43,6.52-1.57,13.71-.32,20.6-.32,11.05,10,24.49,3,36.62,5.23,6.43,1.17,13.3-2.6,19.48,3,5.59,5.11,13.14,1.7,19.75,1.9,16.35.5,32.77.84,49.08-.14,7.39-.44,12.51,3.17,18.62,5.28,2.74.94,4.62,1.71,4.78,4.57a87,87,0,0,1,0,10.34c-.33,5.26-6.26,11.06-11.45,11.11-11.2.11-22.45.72-33.58-.21-7.1-.59-13-6.43-21.17-5.14-6.72,1.06-13.75.07-20.64.26-6,.17-9-7.08-16-5.48-5.73,1.31-12,.26-18,.26-8.27-9.32-19.3-5.06-28.86-4.71-8.9.33-14.32-8.17-23.81-6-8.16,1.84-17.1.28-25.69.23-7.4-8.95-17.48-3.88-26.36-5s-18.77,2.85-26.28-5.22l-25.54-.76c-5.89-7.54-14.2-3.79-21.44-4.26-9.44-.62-19,.27-28.41-.29-7.25-.44-15,2.63-21.66-4.25-2.12-2.2-8.15-.59-12.39-.8-8.43-.41-16.86-.88-25.29-1.33-8-8-17.91-2.62-26.87-3.62-8.51-1-17.21-.21-25.82-.21s-17.4,1-25.79-.34c-6.18-1-11.18-6.28-18.63-5.06-6.71,1.1-13.75.23-20.64.23H303.29c-6.89,0-13.78,0-20.66.12-.62,0-1.85,1.41-1.72,1.7.53,1.21,1.35,3.07,2.28,3.2,3.34.49,6.83.07,10.14.69,1,.18,1.83,2.56,2.2,4.07.73,2.88-1,5.7-3.43,5.52-5.7-.42-12,2.83-17.11-2.23-1.14-1.12-2.65-2.55-4-2.61-6.88-.26-13.8.2-20.67-.21-6.45-.38-10.87-7.93-18.57-5.19-6.12,2.18-9.19-3.11-12.59-6.72-.95-1-1.61-3.7-1-4.56,5.41-7.33,10-15,21.51-14.69C268.94,605.68,298.24,605.23,327.53,605.23Z"/><path d="M235,538c5.17,0,10.37-.42,15.48.1,7.24.73,15.56-3.13,21.32,4.56,10.51-1,22.05,5.33,31.32-4.43l46.38-.23c6.38,8.63,15.62,4.52,23.69,5,8.57.56,17.2.13,25.81.13,12.91,0,25.84.4,38.73-.16,7-.3,11,6.92,18.57,5.58,6.67-1.19,13.72-.25,20.61-.25s13.84-.58,20.64.18c5.47.62,9.25,6.57,16,5.19,5-1,10.29-.2,15.45-.2,6,0,12.07.31,18.07-.08,6.9-.44,10.46,7.76,18.63,5.65,7.26-1.88,15.39-.4,23.13-.4,6.89,0,13.85-.62,20.64.17,7.16.83,12.95,6.64,21.16,5.24,6.69-1.15,14.75-2.43,20.42.19,15.48,7.15,31.57,2.69,47,5.21,7.85,1.28,15,5.84,23.78,4.89,7.65-.85,15.63-1.13,23.17.12,6.2,1,11.09,6.45,18.61,5.12,6.67-1.18,13.72-.25,20.61-.25,8.13,10,19.29,4.64,28.85,4.65,6.74,0,10.06,5.69,15.93,5.69h36.15c13,9.35,27.84,5,41.74,4.65,7.58-.17,10.94,8.43,18.56,5.77,6.31-2.2,10.62,3.93,16,4.77,6.43,1,6,4.66,5.79,8.87-.13,3.24-5.78,12-7.87,12.08-6.88.15-13.81.5-20.65-.07-6.44-.53-13.43,2.68-19.35-3.37-1.82-1.87-6.25-1.27-9.5-1.66-8.29-1-18,3.39-24.63-2.51-7.17-6.43-17.43,2.39-23.41-6.75-1.14-1.73-6.35-.65-9.65-1.13-7.21-1-15.43,3-21.47-4.43-.76-.92-3.15-.67-4.79-.68-8.61-.06-17.22,0-25.83,0-6.63-7.49-15.66-3.91-23.63-5.42-6.21-1.17-11.08-6.65-18.61-5.15-5.79,1.15-12,.09-18,.27-5.26.16-7.19-7-13.4-5.41-4,1-8.56.2-12.86.2-5.16,0-10.73,1.22-15.39-.31-6.15-2-11.34-6.2-18.65-5-5.88.92-12,.18-18,.18-11.22-8.68-24.32-3.93-36.59-5.25-3.82-.41-7.27-8.25-11.41-.4-3.78-3.25-7.7-5.6-13.17-4.81-4.22.6-8.59.12-12.9.12H551.91c-5.16,0-10.69-1.18-15.41.27-7.25,2.23-8.88-7.64-16.09-5.74-5.64,1.49-12,.3-18,.3l-18.06,0c-3.76-7-7.24-2.61-11.37-.22-1.32.76-4.85-.84-6.48-2.33-3.88-3.53-7.14-3.61-10.81.11-.79.8-3.25,1.44-3.46,1.13-2.89-4.23-7.09-3.92-11.41-3.87-11.19.11-22.38,0-33.57,0-5.9,0-12,1.09-16.11-5-.53-.8-4.07-.87-4.87,0-9.29,10-21,3.42-31.46,4.63-1.07.12-2.29-2.43-3.66-3.44-3.18-2.33-6.24-1.92-8.77,1.09-1.88,2.22-3.39,2.62-5.55.14-3.55-4.1-6.81-2.85-10.69.32-5.15,4.21-10.92,4.31-15.63-1-1.72-2-2.23-2.14-3.8-.12-2.93,3.79-6.44,5.43-10.59,1.42-1.6-1.56-3-4-5.5-.79-3.87,5-9.52,2.78-14.29,2.6-3.48-.13-7.23-4-10.2-3.34-2.71.61-4.87,3.92-8.77,3.67-5.84-.37-11.83-1.15-16.21,4.8-.92,1.25-4.92.48-7.46.23-5.65-.57-9.08-7-16-5.35-4.89,1.17-10.28.35-15.44.19-4.46-.14-10-7.11-10.1-12.49s5-12.87,9.29-13.31c1.7-.17,3.44,0,5.16,0Z"/><path d="M293.48,967.27c15.51,0,31.07-.78,46.51.25,12.24.81,25.38-4.77,36.84,4.68,2.05,1.69,6.69.24,10.14.24,14.64,0,29.38.95,43.9-.39,7.66-.7,11.06,7.2,18.61,5.82,6.67-1.22,13.74-.26,20.63-.26s14.73-2.15,20.51.4c18.87,8.3,38.49,2.35,57.41,5.19,7.84,1.18,15,6,23.78,4.94,7.65-.89,15.49-.29,23.24-.15,5.79.1,9,7,16,5.4,5.74-1.3,12-.26,18-.26h38.77c6,0,12.15-.67,18.07.14,10.52,1.45,22.11-4.81,31.72,4.78,1.73,1.73,6.65.25,10.1.25,30.15,0,60.31.46,90.45-.24,11.38-.26,23.88,4.56,34-4.93,12.93,0,25.85-.18,38.77.18,2,.06,4,2.55,6,3.92,3.15,2.14,4,5.06,3.75,8.83-.35,5.43-5.09,12.28-9.8,12.89-5,.63-11.55-.85-14.57,1.82-4.79,4.23-9.44,3.08-14.3,3.33-5.16.26-10.34.06-15.51.06-15.5,0-31.06.73-46.5-.25-10.53-.67-22.23,5.13-31.66-4.75-1.23-1.29-5,.14-7.56-.23-11.36-1.64-23.75,4.25-34.2-4.94-1.46-1.28-5-.18-7.6-.18-11.2,0-22.47.8-33.58-.21-12.25-1.11-25.38,4.74-36.84-4.72-2.05-1.69-6.7-.24-10.14-.24-16.37,0-32.74.15-49.11-.08-5.66-.08-12,2.14-16.51-4.09-1-1.36-4.72-.89-7.19-1-4.3-.14-8.62,0-12.92,0-7.76,0-15.52.3-23.26-.09-6.47-.32-13.94,2.81-18.77-4.52-5.93,6.19-13.62,4.42-20.88,4.61-4.67-7.16-12-4.93-18.54-5.16-4.23-.15-8-.18-11.59,3.49-3.35,3.39-4.19-3.56-7.38-3.52-4.31.07-8.63.25-12.92,0-5.67-.38-11.77,2-16.6-4-1.46-1.8-6.37-1-9.69-1.05q-34.89-.12-69.78,0c-5.1,0-9.78.29-13.85-4.39-2.21-2.55-6.25-.75-8.6,2.27a20.82,20.82,0,0,1-1.81,1.83c-3.63-4.45-7.28-5.27-11-.07-6.61-8.19-15.78-4.15-23.85-4.67-7.62-.5-15.33.23-23,.56-.63,0-1.57,1.07-1.71,1.78-.09.48.89,1.26,1.49,1.79,3.05,2.73,5.33,7.58,10.37,6,8.36-2.72,13.74,5,21.14,5.43.78,0,1.61,2,2.05,3.28.12.33-1.11,1.66-1.73,1.67-11.2.1-22.42.41-33.6-.07-5.56-.24-9.34-7.51-15.94-5-6.8,2.58-10.26-6.39-15.9-5-7,1.79-9.83-5.94-16-5.59-2.55.14-3.07-2.68-4.05-5.19-3.48-8.91-3.62-8.57,1-13.62,4.21-4.61,8.43-7.25,15.29-7.09C247,967.61,270.22,967.27,293.48,967.27Z"/><path d="M272.31,341.46h18.1c6.89,0,14,1.05,20.62-.29,7-1.41,10.27,5.37,16,5.41,21.54.14,43.12-.64,64.62.32,12.23.56,25.38-4.79,36.85,4.67,2.05,1.69,6.69.24,10.14.24,14.65,0,29.3-.2,43.95.09,5.64.12,11.78-2.14,16.63,3.91,1.45,1.81,6.35,1.1,9.67,1.13,14.65.09,29.3-.19,43.95.14,6.46.15,13.81-2.76,18.94,4.34.66.91,3.13.6,4.77.71s3.45,0,5.17,0h18.1c6.89,0,13.9.78,20.65-.22s10.67,3.69,16,5.27c2.38.71,5.14.12,7.72.12H683c6.9,0,14,.93,20.64-.26,6.86-1.22,10.44,5,16,5.29,10.31.5,20.67.14,31,.14,6,0,12.08.21,18.1-.05s10.78,1.64,16.29,4.6c5.35,2.88,13.54-.06,20.33.78,12.23,1.51,25.55-4.87,36.76,4.9,1,.86,3.37-.07,5.06.15,10.56,1.33,21.93-3.57,31.69,4.89,2,1.71,6.7,0,10.12.3,6.46.59,13.93-2.79,18.81,4.48,7.67.21,15.49,1.46,23,.38,9-1.31,14.67,9.07,23.75,5.43,3.09,2.94,6.12,5.95,9.3,8.78,2.62,2.35,5.19,4.86,4,8.63-1.47,4.76-9.27,9.52-14.1,8.33-4.61-1.14-8.84-3.75-13.44-4.92-4-1-8.71,0-12.24-1.65-2.91-1.39-5-4-8.86-3.75-6,.37-12.06.25-18.09.06-5.76-.19-9-7.2-16-5.35-4.91,1.31-7.15-6.56-13.36-5.18-4.93,1.1-10.3.3-15.47.21-7.41-.14-15.32,1.71-21.19-5.1-.36-.43-1.65-.06-2.52-.06-7.75,0-15.78-1.25-23.19.35-7.89,1.7-12.13-5.27-18.62-5.43-12-.3-24.14.31-36.18-.24-7.25-.33-15.18,2.82-21.64-4.19-1.64-1.79-6.47-.78-9.84-.8-11.2-.07-22.43.42-33.6-.18-8.07-.44-17.17,3.5-24-4.63-.73-.88-3.23-.33-4.92-.38s-3.45,0-5.17,0H614.1c-6.9,0-13.94-.87-20.65.23-7.45,1.22-12.54-4.58-18.61-5-15.43-1.13-31-.37-46.5-.37-6,0-12.08-.23-18.1.06s-11.61.17-16.18-5.05c-1.12-1.28-4.95-.19-7.53-.19-12.93,0-25.92.8-38.77-.23-12.25-1-25.28,4.61-36.9-4.63-2.64-2.1-8.37-.31-12.68-.31-50.84,0-101.69-.21-152.53.2-9,.08-15.29-4.94-22.49-8.3-2.64-1.23-5.78-3.82-5.16-8,.5-3.4,6.93-9.68,10.36-9.69C243,341.43,257.66,341.46,272.31,341.46Z"/><path d="M387.45,1112.08c6,0,12.3,1.05,18.05-.22,10.67-2.36,18.25,7.52,29,5.71,9.21-1.54,18.9-.32,28.38-.32,10.17,9.49,22.67,3.72,34.06,5.09,6.52.78,13.91-2,18.53,5.26h43.95c6.9,0,13.79.05,20.69,0,5.18-.06,7.21,6.78,13.41,5.41,4.94-1.09,10.3-.22,15.47-.22s10.39.46,15.5-.11c7-.79,10.38,8.21,18.67,5.67,6.3-1.94,13.67-.39,20.56-.39h43.95c6.9,0,13.79,0,20.69,0,5,0,9.65-.54,14.08,3.93,2.22,2.24,8,1.18,12.21,1.18,41.37.07,82.73-.06,124.1.15,6.45,0,13.93-2.83,18.79,4.46,6,.2,11.91.73,17.84.5,4.18-.17,6.15,2.6,8.23,5.07,1.47,1.75,3.41,5.08,2.71,6.33-2,3.51-5.22,6.31-8,9.39-9.76-1.56-20.23,3.4-29.53-3.78-2.25-1.74-6.41-1.3-9.69-1.33-13.79-.13-27.63.68-41.35-.27-13.12-.91-27.06,4.73-39.42-4.72-2.18-1.67-6.71-.24-10.16-.24-22.41,0-44.82.17-67.22-.11-6.46-.08-13.51,2.48-19.07-4.23-1.47-1.77-6.45-.79-9.81-.81-16.38-.06-32.76.36-49.12-.19-8.06-.27-16.91,3.26-24.1-4.47-1.63-1.75-6.55-.52-10-.52-17.23,0-34.51.71-51.69-.28-10.52-.61-22.34,5.4-31.61-4.79-.77-.86-3.32-.12-5-.12H487c-6,0-12.25-.91-18.05.25-6.25,1.25-8-6-13.42-5.48-3.42.31-6.89.06-10.34.06-19,0-37.92.07-56.88-.06-3.2,0-6.9,1.42-9.47-2.05-2.28-3.07-5.89-4.6-8.65-2.26-3,2.54-6.28,4.9-7.65,9.67-1.87,6.57-6.55,7.08-10.41,1.94a146.87,146.87,0,0,1-9.14-14.3c-.76-1.32-1.38-4-.68-4.7a188.13,188.13,0,0,1,14.26-14c1-.85,3.34-.12,5.06-.12Z"/></svg>