<svg id="Layer_1" data-name="Layer 1" xmlns="http://www.w3.org/2000/svg" viewBox="0 0 1200 1200"><title>BB_Artboard 24</title><path d="M948.28,316.54c6.13,1,9,5.52,11.46,10.63,3,6.34,5.39,13.09,9.55,18.74,3.85,5.22,1.77,8.54-2.21,11.78-1.87,1.52-1.89,3,.71,4,3.2,1.15,7.42-.19,9.08,4.33,2.74,7.46,4.5,15.4,10.6,21.19s12.19,11.74,18.26,17.59c-5.91,6.53-6.11,7.58-.82,8.6,4.34.83,6.12,3.81,9,5.92s1.86,3.63,0,6.12c-9.25,12.27.39,22.66,5.1,32.48,2.92,6.08,8.15,11.55,11.92,17.75,2.84,4.66.7,5.54-1.23,8.43-1.23,1.84-1,5.12-.41,7.52.37,1.57,3.28,2.53,3.68,4.1,1.09,4.36.45,9.45,2.48,13.16,1.3,2.39,8.57,2.37,9,4.28,2.48,12.32,13.8,17.09,20.54,25.65,1.89,2.39,7.44.39,9.1-3,2.89-5.88,5.68-6.58,8.5-2,2.3,3.72,3.69,8,6.18,11.61,2.13,3.06,7.14,5.2,7.5,8.16.63,5.18,4.24,7.94,6,11.87s.38,9.3.38,15.31c0,.42.34-.76-.09-1.18a2.48,2.48,0,0,0-2.41,0c-1.88,1.32-4.23,2.95-.79,5,.46.27,2.17-1.6,3.29-3.75,3.55-1.92,5.79.36,5.54,3.13-.63,7.12,1.3,12.8,7.2,16.84,4.53,3.11,4.7,7.52,4.44,12.31s-1.46,6.16-6.55,6.46c-6.61.39-7.28-.23-10.72-7.95-.53-1.2-3-2.86-3.35-2.62a71.36,71.36,0,0,0-6.12,5.82c-3.84,3.74,1.14,4.46,2.37,5.88,3.59,4.11,7,7.63,8.25,13.67.95,4.61,3.63-.58,5.55-1.41,1.59-.69,3.21-1.32,4.82-2-.76,3.51,1.73,7.51-2,10.63a62.39,62.39,0,0,0-8,8.12c-.49.59.35,3,1.24,3.86,4.11,4.06,4.41,8.07-.07,11.76-3.28,2.71-1,4,.6,6.16,3,4.06,7.36,4.84,11.71,6.32,1.4.48,2.62,5.19,1.91,7.29-1.18,3.52-3.67,2.08-5.82-.05-.87-.86-3.78-1.18-3.79-1.14-2.21,7.14-3.35,14.48,1.14,21,4.7,6.87,3,14,2.11,21.21-7.24,4.48-3.93,11.76-4.88,18-1.07,7-8.4,12-5.81,20.5,2.84,9.36-2.73,15.85-9.35,21.73-3.11,2.77-2.8,4.34.31,9.63,1.16,2,4.88,3.37,1,6.07-6.9,4.76.88,15.57-8,19.48-.29,4.64-.53,9.27-.89,13.9-.28,3.66.66,8.87-1.36,10.64-5.48,4.82-2.06,6.91,1,10.53,2.2,2.61-.13,8.13-3.81,8.47-13.83,1.29-2.11,6-1.62,9.37.78,5.36-1.72,11.52,4.45,15.41.25.16-.53,2.91-1.45,3.82-4.15,4.11-4.21,8.12.24,11.76,3.45,2.82.75,4.17-.81,6.13-3.34,4.18-2.37,10.91-8,13.76,1.14,8.16-6.34,10.77-10.1,15.78-.53.71-1.41,1.66-1.25,2.28,2.9,11.77-6.4,16.91-13,23.09-4.05,3.79-4.64,7.84-4.2,12.6.55,5.91,0,11.3-5.72,14.75s-6.14,8.81-5.79,14.74c.69,11.33,1.9,23-10.27,30a2.73,2.73,0,0,0-1,2.33c2.57,9.07-3.87,13.65-9,19.19-4.3,4.65-3,12.61,1,17.48,3.27,4,8.21,3.75,11.73,6.17,4.45,3.06.44,9,2.32,13.12a12.09,12.09,0,0,0,5.95,6c7.06,2.6,13.07,6.4,17.72,12.28,1.47,1.86,2.4,1.45,4.12-.69,3.49-4.34,7.61-5.12,11.66-.65,2.86,3.16,6.77,4.7,9.6,1.8,5.22-5.37,13.27-5.64,18.15-11.79,5.27-6.66,14.11-11.28,17.3-18.57a198.19,198.19,0,0,1,9.17-18.93c3.05-5.32,3-12.8,9.59-16.1,4.71-2.34,4-7.92,6.28-11.57,2-3.11,4-5.54,4.71-9.58s6.91-6.29,5.4-12,4.42-8.17,5.24-12c1.58-7.26.49-15.1.51-22.69,9.12-6,4.69-15.34,5.61-23.33.42-3.72-1.27-9.16.67-11,8.49-7.94,4.65-17.7,4.91-26.59.58-19.94.18-39.92.18-59.88V835.8c-9.29-11.39-4.43-24.93-5.81-37.54-.27-2.54-1.16-5.56-2.85-7.27-4.84-4.89-2.84-10.78-2.52-16,.38-6.27-7.09-8.21-6.25-14.8.65-5.12,2.11-10.88-3-15.79-5.41-5.18-1.34-12.57-2.41-18.87-10-4.13-1.74-16.31-9.67-21.79-3.48-2.4-2.59-6.54.63-9.56,2-1.84,2.46-2.9,1-6.21-2.92-6.39-7.86-11.77-9.27-19-.46-2.37-3.38-4.26-5.18-6.36,3-1.35,6.26-2.38,9-4.17,1.22-.79,1.44-3.1,2.11-4.73a7.77,7.77,0,0,1,2.82.08c.82.33,2,1.37,2,1.93-1.35,8.73,5.34,15.08,6.71,23,1.23,7.12-3.12,15,3.45,21.44,5.41,5.28-1.79,15.87,7.92,19.55-3.62,10.77,9.08,18,6,29.13-1.44,5.19.08,11.2.26,16.84,8.61,4.05,2.17,14.29,8,19.56,1.27,1.15,2.63,2.93,2.74,4.51.65,9.33.93,18.7,1.34,28,9.11,7.62,4.65,18,4,26.67-.78,10.27,4.74,17.46,8.59,25.22,2.11,4.25.48,5.16-.54,8.43-3,9.62-4.52,19.73,2.7,28.86,2.62,3.33,1.62,7.07-1.79,9.65s-1.49,4.22.54,6.1c3.24,3,3.63,6.34.78,9.72a34.63,34.63,0,0,1-6.07,6c-4.6,3.27-.48,5.19.18,8.24,1.75,8.1,1.91,16.68,1.66,25-.21,7.11,3.55,15.4-4.5,20.92-.35,10.33-1.05,20.67-.92,31,.08,6.78-3.56,7.61-8.84,7.51-.44,0-1.7,3.34-1.28,3.73,2.91,2.69,5.32,4.9.63,8.27-3.89,2.79-1.09,8.79-6,11.94-5.16,3.34,1.07,10.92-4.12,15.32-4.34,3.68-8.17,8-12.18,12.06-3.84,3.9-2.57,10.55-8,13.94-3.88,2.42-5.56,6.4-6.73,11.48-1.1,4.77-9.07,7.9-10.29,12.69-1.5,5.87-3.18,8.2-8.94,7.41-3.28,6.52-12.32,4.14-15.8,10-5.56,9.39-14.57,6.82-22.81,7.12-5.2-6.47-14.25-3.62-19.65-7.43-5.91-4.16-14.3-4.1-18.3-11.59-3.15-5.9-11.71-4-16-9.95-2.82-4-8.77-5.66-13.32-8.37,2.45-6.61-4.45-9.51-6.19-14.62-3.36-9.84-12.84-15.57-20.53-22.29-1.39-1.21-11.4,1-13.12,2.68-8.11,8-16.67,15.72-24.12,24.34-8.1,9.4-21.13,9.79-30,17.81-2.14,1.94-7.21.7-10.94.84-6.41.24-13.24-1.49-18,5.29-.61.87-5-.52-7.43-1.43s-4.55-3.36-7-3.68c-4.68-.6-9.52.07-14.26-.24-5.36-.34-11.14,2-15.59-4-3.63-4.84-10.1-.66-15.55-3.74-11.28-6.37-17.92-5.06-30.7,1.14-4.76,2.3-9.44,5.71-14.44,6.33-8.44,1-17.1.29-25.67.29-4.15-8.88-14.65-2.6-19.49-7.76s-13.68-8-12.72-17.46c-6.52-4.33-4.91-13.79-11.43-18.12-.36-8.16-9.24-14.33-5.67-23.33,3.35-8.43-5.15-13.34-5.72-20.51-.52-6.51-.72-13-1.06-19.57-10.51-5.9-.35-17.76-7.75-25.53-6.05-6.36-3.81-16.63-2.16-24.33,2.25-10.5-8.07-16.42-6.49-26.35,1.33-8.35.26-17.09.25-25.65-11-9-5.13-21.32-5.37-31.94q-1.23-54.25,0-108.55c.28-12.55-5.43-26.45,5.43-37.63,0-6.67.23-13.34-.08-20a15.55,15.55,0,0,1,4.6-12.53c2.49-2.62-6-4.12-3-7.75,2.5-3,4.54-5.51,4.28-9.76-.4-6.65-.91-13.45.08-20,1.61-10.67-5.51-22.94,5.53-31.94,0-6.67.1-13.33,0-20-.08-3.92-6.35-11.72-10.72-11-9.93,1.66-16.18-10.26-26.3-6.16-.37.15-2-1.41-1.89-1.79.45-1.36,1.4-3.65,2.17-3.65,8.19-.06,15.83-.43,23.69,5,6.61,4.61,18.75-2.83,18.28-11.05s7.74-12.62,6.31-20.53c-1.38-7.59,10-11.9,5.64-20.47,3.63-6.12,8.59-11.84,10.54-18.45,2.05-7,6.05-12.79,8.81-19.25,1.41-3.29,3.76-5.91,3.6-10-.31-7.6.48-15.28-.25-22.83-.75-7.84,8.34-11.76,6.28-20.6-1.9-8.13-.41-17.05-.41-25.62,0-7.62.7-15.32-.2-22.83-.86-7.18,8.22-9.84,6.24-17.73-1.58-6.27-.32-13.25-.32-19.92,8-7.4,5.65-17.14,5.58-26.2,0-4.54,4.46-6.29,5-9.33,1.52-7.93,10.22-13.92,6.47-23.06-3.18-7.76,9.1-10,6-17.57,6.48-5.56,8-13.82,11-21.13,2.83-6.85,11.93-8.83,12.14-18,.07-3.15,5.83-6.78,9.67-9.07,6-3.6,12.61-6.26,19-9.31,1.59-.76,3.17-2.14,4.77-2.17,12.38-.18,24.76-.1,37.14-.1,4.36,6.51,11,5.94,17.59,6,.94,0,2.7,2.89,2.62,4.35-.34,5.83,4.61,7.83,7.53,11.22,4,4.65,13.74-4,15.62,6.89,1.2,6.94,5.59,11.25,13.35,11.82,1.36.11,3.53,4.15,3.46,6.31-.3,8.75,3.27,14.58,11.85,16.09,5.48,1,7,5.89,10.85,8.39-.88,7.64,8.76,12.16,6.06,20.35-3.95-.15-5.86,1.76-4,19.78,6.15,9.15,3.59,3.23,3.81-2.17.09-2.29-2.38-4.62-3.44-7-1.84-4.17-5.7-6.5-9.08-8.7-5.35-3.49-3.45-10.09-7.8-14.13-11.85-11-23.18-22.59-34.4-34.24-5.22-5.43-12.32-7.21-18.62-10.36-3.72-1.86-9.36,1.14-12.73-3.69-2.83-4-8.82-1.23-12-5.94s-8.8-1.17-13.25-2c-6.8,7.81-17.75,8.15-25.51,14.18-2.21,1.71-5.32,3.86-5.63,6.13C804.07,280,792,287.81,793.83,300.71c.19,1.31-2,4.29-2.78,4.19-9-1.22-8.56,4.5-8.57,10.55,0,5.54-.75,11.08-1.16,16.62-10.24,6.53,1.57,21.23-10.09,27.23a11.32,11.32,0,0,0,1.84,2c4.66,3,2.19,5-.32,8.25-3.45,4.48-2.39,7.67,3.8,9.65,8.4,2.7,12.41,7.66,11.68,16.28-.61,7.14,3.06,15.45-5.25,20.65,1.07,1.35,1.89,3.06,3.25,4,2.46,1.63,2.64,2.77.1,4.12-8,4.28.65,15.39-8,19.66-1.06.52-1.4,3.25-1.43,5-.15,7.61-.21,15.24.05,22.84a6.25,6.25,0,0,0,2.57,4.51c3.7,2.07,18.13-.5,21.09-3.42,5.42-5.35,10.24-11.49,16.29-16,8.63-6.37,11.31-16.39,16.91-24.57,2.9-4.24,3.87-9.77,5.92-14.63,1.71-4.06,7.49-6.36,5.62-11.91-2.26-6.71,4.82-9.31,6-14.73,2.09-9.48,8-17.68,12.38-26.18,4.15-8.06,13.09-13.57,19.57-20.53,5.14-5.53,12.18-8.41,18.64-10.06a50.85,50.85,0,0,1,25.41.08c5.62,1.6,9.7,8.53,14.53,13,1.22,1.14,2.65,2.07,2.34-10.95C946.52,322.4,948.43,320.49,948.28,316.54ZM1096.86,599.1c0-.85.33-2-.09-2.46a2.53,2.53,0,0,0-2.42,0c-1.87,1.32-4.22,2.95-.78,5,.45.26,2.16-1.6,6.61-10.28a21.15,21.15,0,0,0-3.25,2.76c-.41.51-.07,1.64-.07,2.49.85,0,2,.34,2.49-.07a11.79,11.79,0,0,0,2.6-3.37C1102.06,592.9,1100.85,592,1096.86,599.1ZM831.13,1048c-9.92,0-15.86,1.25-20.93-.32-5.87-1.81-11-4.85-17.59-5.94-9.84-1.62-11.93-17-24.34-16.68a2.78,2.78,0,0,1-1.92-1.93c.14-7.58-6.11-10.92-10.09-15.84-2.82-3.49-6.53-5.8-8.42-10.74-2.46-6.41-6-12.78-9.28-19-2.75-5.25-1.28-12.71-1.73-19.18-.13-1.81.06-4-.88-5.29a6.47,6.47,0,0,0-4.66-2.08c-1.63,0-4.67,1.06-4.7,1.75-.31,8.27-.18,16.55-.16,24.82,8.43,6.54,4.56,15.83,4.37,23.69-.28,11.58,3.39,21.36,9.83,30.22,2.74,3.76.88,9,5.72,12.09,4.52,2.89,8.74,7,8.41,13.56,0,.68,3,2.3,4.51,2.16,7.3-.66,12.82.43,12.76,9.55,0,2.92,5.87.25,5.16,4.91-.08.57,4.49,2.16,7,2.77,11,2.65,19.15-4.43,27.34-9.44C817.86,1063.22,822.49,1056.64,831.13,1048ZM776.85,665.12c-.67,1.62-.88,4.07-2.08,4.73-8,4.37-8.14,14-13.72,20.14-2,2.16-1.51,7.09-1.22,10.67.42,5.3,5,3.72,8.39,4.73s4.4,5.68,9.09,5.57c7.6-.19,3.2-8,6.77-10.05,8.57-4.95-.74-17.82,9.91-21.57V665.12c1,0,2.22.4,2.78-.06,4.29-3.56,4-9.53,7.59-14,3.46-4.31-.81-13,6.38-17.1.47-.27.37-1.71.38-2.61,0-4.73,0-9.46,0-14.19,0-10.4-1.77-21.2.47-31.09,2.58-11.36-7.35-18.75-6.15-28.94.71-6-8.12-8-6.06-14.75.08-.27-5.69-3.49-6.6-2.73-7.19,5.9-13.95,12.34-20.58,18.88-1.05,1-1.33,3.54-1,5.15,2.37,11-5.13,18.7-9.13,27.48-5.2,11.41-1.83,21.14,10.34,22,8,.55,12.17,8,19.83,7.61.49,0,1.45,3,1.66,4.75.42,3.4-1.64,5.26-4.78,5.26a31.74,31.74,0,0,1-13-2.82c-14.29-6.12-17.13-4.07-16.49,9.59.22,4.72-.06,9.46.05,14.18C759.92,659.7,766,664.4,776.85,665.12Zm214.94,262c1.84-3.57,3.1-8.21,6-11.22,4.65-4.75-1.63-12,3.91-15.45,7.71-4.81-.75-15.57,7.93-19.58.49-4.54,2.21-9.36,1.24-13.56-2.48-10.81,9.79-18.21,6-29q0-85.36,0-170.73c0-3.76.88-8-.5-11.17s-5-5.58-7.91-8c-.23-.2-2.37,2.5-3.91,3.14a33.7,33.7,0,0,1-7.69,2c-.55.09-1.37-1.19-2-1.9-3.51-4-7.6-6.11-11.64-1.3-3.76,4.47-8.63,2.31-12.87,3.5a42.91,42.91,0,0,0-14.23,6.62c-4.21,3.21-8.19,6.62-8.08,13.7.56,34.14.36,68.29.16,102.44,0,6.69-.29,13,5.68,17.71.83.67.65,4.32-.34,5.25-3.63,3.45-5.66,5.52-.85,10.48,4.1,4.23-1.49,13.33,6.28,17.16.25,7.48,1.13,15,.59,22.44-.63,8.59,9.62,13.78,6,23.31-3.71,9.83,3.37,18.1,7.94,24.89,4.27,6.36-.68,7.24-1.44,9Zm-.66-456.32c-6.26,6.63-14.31,11.94-16.13,21.86-5,3.08-3.12,8.23-4.09,12.62-.73,3.28-5.36,6.25-5.1,9.08.49,5.4-4.55,7.34-5.24,11.59,9,7.26-3.45,11.57-2.62,17.85.16,1.15-3.51,2.58-3.64,4-.49,5.65,1.76,12.67-.83,16.73-3.19,5-5.47,9.11-5.31,15.1.36,13.32,0,26.65.15,40,.28,18.74-3.62,16.72,16.16,16.94,5.77.06,11.4.41,14.91-5.44,7.56-.11,15.14,0,22.7-.39,4.55-.21,10.46.52,13.27-2,4.49-4-.71-7.69-3.1-11.59-1.72-2.8-1.06-7.21-1.08-10.9-.08-18.08.2-36.17-.15-54.25-.14-7.14,3.13-15.42-5-20.78a3.59,3.59,0,0,1,.94-1.9c3.61-2.61,4.35-4.59.49-8.28-4.61-4.4-.88-10.82-2.06-16.19-1.32-6-7.88-10.26-5.74-17.65C1001.92,479.37,995.66,475.45,991.13,470.83ZM908.28,768.34c0-6.54.27-12.26-.08-18-.33-5.42-7.12-8.1-5.88-14.82,1-5.4,0-11.22-.62-16.79-.11-.91-3-2-4.6-2.12-4.59-.26-9-.78-12.81,3.63-6.23,7.17-12.43,15-20.28,20-10.38,6.59-3.83,20-12.87,26.34,1.23,13.58-3.87,28.06,5.71,40.46-.4,5.77,1.68,10.12,4.78,15.27,3,4.91,1.12,12.88.85,19.49-.25,5.93.14,11.3,5.8,14.77-3.89,10.82,9.31,18.06,5.93,29.11-1.27,4.16,0,4.39,9.75,15.36,1.58,1.78.74,5.76,2.35,7.42s6.14,3.07,7.24,2.12c4-3.46,9.38-6.06,9.14-13.11-.44-13.31-.07-26.65-.16-40,0-3.81,1.49-6.74,3.07-10.18,4.74-10.38,3.29-21.53,1-32.45-7.31-5.92-2.62-14.13-4-21.18C912.67,786.76,906.53,776.28,908.28,768.34Zm-77.15,262.39c8,4.09,14.15-1.78,20.1-8.48,3.15-3.54,8.86-6.34,9.57-10.2,1.36-7.25,9.64-11.66,7.42-19.8-.67-2.47-1.68-6.55-3.12-6.83-12.1-2.36-20.33-11-30-17.27-5.07-3.3-11.77-4.15-16.71-7.58-5.38-3.74-9.56-9.19-14.27-13.9s-10.67-8.71-13.75-14.31-4.94-10.76-12.08-11.76c-.69-.1-1.1-3.18-1.39-4.91-.52-3.14-2.06-4.41-5.39-5-12.21-2-19.71,8.44-17.5,19,6.91,5.42,5.71,13.1,5.71,20.44,0,7.61.2,15.22-.06,22.81-.2,5.83-.16,11.34,5.6,14.82-2.17,6.55,4.87,9.17,6.17,14.6,3.17,13.15,16.33,16.36,26.1,22.31,4.17,2.54,12.69-1.56,16.36,1.19C818.9,1029.7,823.38,1031.14,831.13,1030.73Zm74.53-479.66c4.28-6.33,3.38-12.44,2.28-17.48-1.69-7.73,5.75-11.26,6.07-17.67.47-9-1.68-18.09,5.27-26.51,2.85-3.45-1.17-12.51,1.66-16.06,4.07-5.12,5.29-10,4.3-15.41-1.2-6.57,4.5-9.69,5.85-14.79,2.17-8.19-1-12.27-9.26-12.31-9.5,0-19-.42-28.51.11-8,.45-14.25,8-23,6.39-2.6,4.58-7.56,4.56-11.74,6.1-.74.28-1.82,1.6-1.66,2,3,8.26-4.06,13.63-5.74,20.5-1.92,7.83,3.87,17.19-4.68,23.75-.36,8.4-.54,16.82-1.22,25.2-.2,2.51-1.83,4.91-2.77,7.37-5.08,13.25-4,21,4.53,27.05,1.81,1.29,5.67,1.64,7.47.57,3.14-1.87,7.65-5.21,7.63-7.91-.06-9.5,8.87-11.62,12.71-17.71,1-1.58,12.43-3.27,13.27-2a17.59,17.59,0,0,1,2.87,7.29c.4,3.67-.18,7.26,3.23,10.15C898.22,543.17,901.72,547.13,905.66,551.07ZM731.13,628.34c0-2.85,0-5.7,0-8.55-.08-4.75-1.45-5.94-7-6.09-1.89-.05-3.79,0-5.69,0-10.12.09-10.16.09-10.18,8.59q0,24.22,0,48.44c0,2.85,1.17,7.28-.19,8.29-7.64,5.63-6.46,13.66-5.2,20.63,1.52,8.39-6.49,12.6-6.29,20.49.67,25.63.24,51.29.27,76.93,0,2.8-.91,6.54.51,8.26,8.51,10.28,6.82,19.71-.26,29.93-1.78,2.57-.82,7.52-.14,11.19,1,5.71-5.43,7.3-5.75,11.92-.12,1.68.17,4.22,1.26,5,4.47,3.3,4.92,7.74,4.32,12.53s3.49,6.23,5.62,9.1,4,2.47,6.07-.09c2.22-2.81,5.88-4.48,5.59-9.13-.47-7.36-1.1-15,5.62-20.42-1.62-7,3.56-11.85,5.31-17.71,1.82-6.1.27-13.18.45-19.82s.47-13,1.13-19.49c.23-2.18,5.83-3.26,3-5.86-4.13-3.75-4.18-7.9-4.17-12.66.06-41.79,0-83.58.1-125.38,0-3.6-.41-8.7,1.65-10.5C732.47,639.28,730.77,633.74,731.13,628.34Zm146.1-65.64c-13.48,9.89-22.3,23.08-28.44,38.59-1.3,3.29-3.65,6-3.43,10,.31,5.64.2,11.29.26,16.94,10.54,5.21-.91,10-.48,15.24.75,9,2.54,18.63-5.37,26.05-.47.44-.41,2,0,2.74,1.76,3.07,5.45,6.15,5.24,9-.3,4.06-3.82,7.77-5.15,11.9-.83,2.57-1.35,7,0,8.22,6.78,5.81,5.53,13.32,5.42,20.57-.06,3.36,1.3,5.34,4.22,6,1.63.35,4.14.18,5.2-.84,9.53-9.19,19.74-17.91,27.81-28.28,4.28-5.51,6.51-12.79,12.37-17.45.73-.58,1.82-1.34,1.84-2,.14-6.62.08-13.24.08-19.86,0-7.57.11-15.14-.08-22.7,0-1.64-.71-3.83-1.88-4.8-6.28-5.21-2-12.5-4-18.29-2.3-6.73-7.43-12.37-5.58-20.44C888,581.68,882.54,572.07,877.23,562.7Zm-13.57,531c6.63,0,13.48-1.07,19.84.25,10,2,16.47-8.38,26.1-6,4.17-3.66,8.22-7.46,12.54-10.94,5.57-4.49,8.56-12.84,17.72-12.07,4.69-4.69,9.54-9.23,13.93-14.18.94-1.07,1-4.36.07-5.42A168.85,168.85,0,0,0,940,1031.24c-2.61-2.36-4-6.89-8.79-6.08-5.39.91-11.8-2.72-16.09,2.07-3.87,4.31-8.41,2.83-12.76,3.83-4.17,1-7.8,4-11.93,5.4-5.23,1.72-21,8.08-24,10.63-3.46,2.88-5.77,6.69-11.47,6.91-5.95.23-1.77,10.14-6.3,10.44-10.16.68-13.33,9.5-19.54,14.64-1.1.9-.58,5.71.81,7.29,2.89,3.3,5.26,7.74,11.06,7.44C848.48,1093.41,856.08,1093.71,863.66,1093.71ZM788.52,870.82c-1.67.64-4.52.95-4.77,1.92C781.44,882,780.83,891,789.46,898c1.45,1.19,5.81,2.26,2.88,5.88-2.09,2.58-7.06,5.41.36,6.88,10.28,2,13.53,8.35,12.85,18-.1,1.48,2.06,4.52,2.34,4.42,7.59-2.59,9.8,8.8,17.56,6.41,5.28-1.62,7.82.77,8.93,7.08,1.18,6.72,11.43,3.88,14.64,10.41,2.22,4.51,6.79,5.76,12,5.31a37,37,0,0,1,11,.89c2.18.49,5.41,3.71,5.85,3.29,3.16-3,2.48-6.26-.38-9.59-1.65-1.92-2.53-4.61-3.42-7.08-1.77-5-6.14-8.31-6.22-14.69a26.35,26.35,0,0,0-6.86-16.7c-4.25-4.3-2.92-10.42-7.55-14.27-5-4.18-1.83-10.65-2.1-16-.29-5.81-8.19-8.07-6.35-14.74.06-.2-4.61-1.76-7.1-2.61-6.49-2.22-9.39,5.18-14.72,5.61-5.66.45-11.52-.7-17,.3C798.78,878.07,794.45,872.43,788.52,870.82Zm308.34-181.46c0-7.59.7-15.28-.24-22.76-.64-5.07-4.38-9.71-5.26-14.8-1-5.53-.17-11.36-.27-17a3.19,3.19,0,0,0-1.24-2.28c-6.24-3.77-2.14-11.31-4.86-15-4.29-5.78-6.06-11.17-5.27-17.91-9.75-3.62-3-13.79-7.78-19.62-2.73-3.33-3.39-8.48-6.34-11.46-4.06-4.11-1.79-8.93-3.24-13-1.82-5.16-5.24-9.94-11.62-10.29-5.55-.32-5-4.06-5.47-7.81-.13-1.14-2.09-2.16-3.36-3-.16-.11-1.83,1.21-1.86,1.91-.24,5.66-.21,11.32-.35,17-.15,6.54-1.21,13.35,5.73,17.57,0,5.7-.27,11.42.18,17.08.12,1.45,2.8,2.52,3.78,4.09,3.78,6.05-1,15.36,7.47,19.69q.29,11.28.58,22.55c8.14,5.29,5.26,13.62,4.85,20.65-.39,6.76,3.21,10.23,7.09,14.35,1.42,1.52,6.1,2.86,3,5.82-6.39,6-2.74,6.12,3,7.4,5.57,1.24,6.34,4.69,2,10.38-3.22,4.22-5.12,7.34-1,12a16.57,16.57,0,0,1,3.26,7.14c1.65,7.24,7.3,4,11.4,4.52,5.46.69,5.82-3.21,5.82-7.18Zm-214.7-270c3.8,0,9.48,1.59,11.07-.28,6.85-8.07,15.54-5,23.61-5.36,7.58-.36,15.19-.08,22.79-.08,2.76-7.42,7.73-13.73,10.26-21.36,2-6,2.29-5.43.42-8.18-6.5-9.56-19.56-10.44-26-20-.8-1.18-3.17-1.72-4.84-1.81-4.74-.23-9.5-.14-14.25-.06-7.69.13-13.12,5.11-13.89,13.77-.44,4.94.06,9.45-7,9.21a5.8,5.8,0,0,0-4.36,2.76c-.77,1.5.45,4.07-.37,5.5-1.36,2.37-4,4-5.43,6.35-.84,1.42.28,4-.53,5.43-1.32,2.38-3.87,4.06-5.23,6.42-1.78,3.11,1.5,7.75,5.24,7.7C876.46,419.36,879.31,419.4,882.16,419.4ZM776.85,773.67c0,6.6-.2,13.21.19,19.79.06,1.11,2.6,2.87,4.06,2.94,3.62.18,7.6.3,10.79-1.07,1.48-.64.63-6.07,2.25-7.11,5.31-3.41,4-10.38,8-13.74,5.43-4.6.77-11.76,4.1-15.21,4.54-4.71,6.22-9.69,4.72-15-2.15-7.68,6.25-10.84,6-17.5-.33-9.42,0-18.86-.15-28.28-.06-3.1-1.9-5.19-5.32-4.71-1.69.24-4.39.71-4.77,1.76-4.23,11.55-10.36,22.19-16.32,32.81a15.71,15.71,0,0,0-1.93,10.46c1,7.47-2.43,12.27-7.58,16.82a12.61,12.61,0,0,0-3.85,6.78C776.37,766,776.85,769.9,776.85,773.67ZM822,865.13c5.37,0,9.17.19,12.94-.06,3.12-.2,4.93-1.89,4.81-5.37-.15-4.73,0-9.47,0-14.2-9.59-7-4.56-17.2-5.66-26-.35-2.8.39-5.79-.26-8.47-.3-1.27-2.67-2.74-4.21-2.87-5.57-.49-11.74-1.2-14.84,5-3.7,7.35-9.45,13.32-13.54,20.06-3.33,5.49-2.11,13.82-7,19.82-.62.76,1.78,5.85,3.36,6.18C806.3,861,813.57,869.27,822,865.13ZM942.57,969.41c-.34-1.77-.12-4.61-1.11-5.12-7.87-4-1.61-13.2-6.14-17.45-6.91-6.49-4-14.13-3.93-21.23,0-5.5-2.28-8.84-6-11.86-1.08-.88-3.51-2-3.86-1.6-3.06,3.29-1,9.31-6.11,11.8a7.85,7.85,0,0,0,1.34,3.83c4.26,4.77,1.46,5.55-3,6-1.66.18-4.62,1.43-4.59,2.1.29,7.62-2.73,13.93-6.43,20.31-1.59,2.74,1,5.5,3.91,5.95,3.81.58,7.92.22,7.32,5.84-.51,4.83,3.6,6.52,6.2,8.8C927.15,982.89,941,978.12,942.57,969.41Zm-166.5,122.83c-1.78-5.8-6.86-8.32-10.17-12.3-4.13-5-11.78-3.86-15.86-9.79-3-4.34-8.1-7.26-12.38-10.66-.58-.46-1.88-.24-2.76,0a3.61,3.61,0,0,0-2.22,1.33c-2.56,5.28-2,17.2.81,21,1.77,2.36,17.82,12.11,20.46,11.85C761.22,1092.92,768.76,1095.51,776.07,1092.24Zm.78-591.59c0-2.8.35-5.66-.1-8.38s-2.22-4.43-5.68-4.44-5.36,1.69-5.54,4.56c-.33,5.45,0,10.39-4.61,15.12-2.18,2.22-.53,8.47,0,12.83.09.81,3.06,2,4.57,1.8,6.11-.7,9.49-5.22,11.18-10.38C777.74,508.4,776.85,504.37,776.85,500.65Zm45.6,7.54c-3-3.37-7-6.18-5.71-11.67.12-.48-1.13-1.48-1.93-1.91a2.07,2.07,0,0,0-1.92.26c-2.08,1.91-4.37,3.72-6,6-2.39,3.43,2.11,3.88,3.07,5.93,2.53,5.44,1.81,7.94-4.53,9.49-3.15.77-5.16,1.67-5.66,4.59a10,10,0,0,0,1,5.2c1.08,2.49,2.15,1.89,4.07-.13a13.62,13.62,0,0,1,6.88-3.59C819.64,520.75,815.31,510.27,822.45,508.19Zm71.34,505.68c1.64-.27,4.47-.25,6.85-1.27,2.91-1.24,2.78-12.43,0-15a3.84,3.84,0,0,0-2.35-1c-5.49-.16-11.58,5.19-12.75,11.62a5.66,5.66,0,0,0,2,4.54C888.86,1013.7,891,1013.45,893.79,1013.87ZM719.7,589.23c0,4.64-.34,6.59.1,8.34s1.67,3,2.56,4.49a38.53,38.53,0,0,1,4-3.51c6.69-4.54,5.39-10.91,3.74-17.13-.27-1-3-1.86-4.58-1.88s-4.31.8-4.59,1.79A42.19,42.19,0,0,0,719.7,589.23ZM977.31,424.41l-3.31-5c-1,1.44-2.81,3-2.66,4.31.26,2.44,1.7,4.75,2.66,7.12C975.16,428.57,976.32,426.32,977.31,424.41ZM1080.17,563l-3.31-6.41c-.65.65-1.63,1.19-1.88,2-.53,1.64-1.17,3.51-.84,5.09s1.77,2.92,2.72,4.36C1077.81,566.53,1078.77,565.09,1080.17,563Zm10.07,18.4c-1.68-2.87-7.31-3-9.44-.11a2.1,2.1,0,0,0-.13,1.89c1.58,2.92,7.26,3,9.39.14C1090.39,582.84,1090.19,582,1090.24,581.36Zm1.29,145.81c-1.21-1.17-3.14-4-4.07-3.73-3.08,1-3,7-.19,9.17.44.33,1.72.37,1.85.14C1089.92,731.26,1090.5,729.65,1091.53,727.17Zm-88,285.63c2.86-1.67,3-7.31.11-9.44a2.16,2.16,0,0,0-1.9-.13c-2.91,1.59-3,7.26-.14,9.39C1002,1013,1002.83,1012.75,1003.48,1012.8Zm-44.59-664-2-3.68c-.63.63-1.89,1.41-1.78,1.88a18.14,18.14,0,0,0,1.78,3.83Z"/><path d="M205.39,379.4c6.22.85,12.83-2.06,18.51,3.86,4.26,4.44,10.89,2,16.25,1.59,6.55-.49,10.68,2.1,14.54,6.63a14.7,14.7,0,0,0,9.26,5.34c7.41,1.33,2.18,4.53,0,6.78-1.44,1.51-1.35,3.42,1.14,3.87s5.13-.72,7.7-1.23c2.09-.41,2-5.75,6.18-2.06,5.37,4.72,13.77,5.17,17.82,12.2a6.47,6.47,0,0,0,4.39,2.89c8.22.57,17.08-2,22.86,7.2,4,6.4,14.3,4.06,17.84,12.13,2.44,5.57,10.85,2.32,13.71,8.12,1.17,2.38,2.8,4.55,4,6.92.38.76.45,2.34,0,2.73-1.08.9-3.34,2.17-3.8,1.77-9.55-8.34-24-9-31.74-20.07-12.91-3.11-22.52-15.76-37.48-13-4.52.84-6.27-3.28-9.34-5.08-4.53-2.67-9.21.52-8.9,6,.34,6.25-2.71,13.54,4.63,18.05.33,8.43.79,16.86.94,25.3.11,5.62-.31,10.81,4.88,15.31,2.82,2.44.46,6.56-2.35,9.62-1.62,1.77-3,6.68-2.28,7.2,7.56,5.6,4.86,13.52,5.62,20.75.65,6.17,7.31,10.12,5.94,17.7-.91,5,7.29,8.11,5.47,14.73-1.9,6.89,3.05,11.89,5.22,17.76,1.82,4.91-.46,11.32,5.51,14.88l-4.84,6.06c9.57,3.77,2.49,13.92,7.47,19.57a17.14,17.14,0,0,1,3.6,7c1.76,7.14-3.33,15.51,2.67,21.69,5.74,5.9,1.95,12.57,3.15,18.77.17.86.26,2.21.79,2.46,8.74,4.09,1.51,14.62,8,19.61,4.63,3.55,1.38,8.93,2.77,13.13,1.09,3.29,4,5.95,5.38,9.19.5,1.19-.67,4.35-1.69,4.67-2.36.74-6.29,1.36-7.41.1-2.21-2.48-2.88-6.3-4.32-9.51-1.08-2.42-3.83-5.16-3.3-7,2.38-8.35-8.06-12.62-6-20.56,3.32-12.56-7-22.37-6.87-34.29-4.64-3-4.64-7.53-4.67-12.4,0-5.51,1.11-12.77-1.84-16.12-4.66-5.28-1.28-12.15-4.19-15.41-5.11-5.71-6.19-11.46-5.15-18,.92-5.76-5.44-8.2-5.44-11.94,0-7.14-8.58-10-7.2-17.32.07-.34-3-1.54-4.67-1.91-3.58-.8-5.41,1.5-5.59,4.5-.34,5.69-.2,11.42-.07,17.13s.54,11.27-5.15,15.14c-1,.66-1.29,4.44-.46,5.21,9.16,8.44,4.14,19.41,5.69,29.18.89,5.59-2.66,8.43-5.62,11.85,10.58,5.25-1.21,10.05-.47,15.38,1.05,7.47.27,15.2.27,22.82,0,6.66.3,13.35-.11,20-.28,4.46,3.56,6.35,4.75,9.5,1.89,5,2.73,10.65-2,15.49-1.67,1.69-3.2,6.43-2.39,7.18,8.26,7.66,5.17,17.46,5.39,26.44.39,16.18-.7,32.43.38,48.54.78,11.64-5.72,24.72,5.44,34.79-.07,17.11-.05,34.22-.39,51.33,0,1.37-3.14,2.47-3.72,4.09-.86,2.37-1.87,6.69-.85,7.43,6.83,4.87,4.2,11.82,5.13,18.09.59,3.93,2.81,7.62,4.29,11.42-7.5,7.61-6.23,14.71,1.12,21.59.49.46.1,1.82.14,2.77.3,7.27-2.21,15.33,5.71,20.48,3,10.32-.12,14.56-10.6,13.75-2.26-.17-4.45-2.2-6.47-3.65-.45-.33,0-1.83-.08-2.77-1.08-9.14,3-19-2.73-27.4-5.39-7.88-1.77-16.39-3-24.51-9.84-10.28-5.33-23.09-5.32-34.77,0-6.51-5.38-9.43-6.08-14.77s.61-12.17-2.13-16.14c-3-4.4-3.35-8.27-3.71-12.91-.49-6.25,2.35-13-3.8-18.46-5-4.42,1.89-13.64-6.16-17.38-.4-8.2-5.77-15.2-6.57-22.82-.64-6.14-5.38-9.64-6-14.75-.51-4.44-3.17-6.55-5.7-9.13-1.05-1.07-2.64-1.62-4-2.41-.67,1.63-1.85,3.23-1.92,4.88-.24,5.71-.07,11.43-.1,17.14,0,4.65.26,8.57,3.66,12.91,3.17,4.07-5.9,7.6-3.92,13.86,1.37,4.33.5,9.46.2,14.2-.31,5,.86,8.77,4.6,12.51,2.88,2.88,1.52,7-1.89,9.54s-1,4.26.75,6.09c4.46,4.52,2.75,8.46-1.48,11.7-2.29,1.76-2.25,2.43.06,4.23,1.63,1.27,5.5,3.21,1.26,5.83a7,7,0,0,1-5.4.4c-1.44-.52-3.37-2.41-3.4-3.73-.26-11.43-.15-22.85-.15-34.28,0-35.23.1-70.47-.1-105.7,0-6.24,2.56-13.39-4.55-18.18-1-.7-.76-3.39-1.06-5.16-1.21-7.17,2.79-15.24-3.14-21.53-5.27-5.58.89-15.63-8-19.56-1.31-5.16,2.05-11.35-4-15.55-3.85-2.69-.65-9.54-6.11-11.69-1.2-8-6.28-15.44-6.57-22.71s-7.93-10.85-6.36-17.57c1.53-6.57-5.07-9.62-5.66-14.82-.72-6.41-8.1-10-6.14-17.68,1.36-5.37.39-11.36.18-17.07-.07-1.68-.8-4.52-1.76-4.76a35.92,35.92,0,0,0-10.92-1.15c-3,.18-4.54,2.2-4.47,5.73.23,11.42-1.07,23,.52,34.22,1,6.77,6.88,12.43,5.5,20.58-1.1,6.48-.22,13.3-.22,20,9.29,11.42,4.74,25,5.65,37.63.52,7.3,8.47,11.82,6.14,20.58-1.57,5.86-2.37,13.36,4.76,17.83.53.33.57,1.69.57,2.56,0,10.48,0,21,0,31.43,9.11,8.26,4.3,19.25,5.81,29,1.79,11.6-5.65,24.73,5.62,34.78v42.85c0,7.62-.54,15.29.17,22.84.59,6.11,7.1,10.17,5.82,17.69s-.27,15.19-.27,22.81c8.74,10.47,4.71,23,5.91,34.75.24,2.33,3.65,4.19,4.46,6.64.76,2.3,1.05,6.13-.28,7.49-4.64,4.72-6.43,8.48-1,14.11a10.91,10.91,0,0,1,.27,15.13c-3.47,3.86-3,5.53.45,8.41a5.88,5.88,0,0,1,1.5,4.94c-2.93,12.46,9.43,22.3,5.83,34.79,2.7,4.57,6.3,8.69,7,14.27a2.3,2.3,0,0,0,1.9,1.22c.81-.29,1.94-1.22,2-1.92.31-6.59.54-13.19.55-19.79,0-46.66,0-93.32.17-140,0-1,2.14-2,3.45-2.78.22-.13,1.18,1.39,2,1.88,5.59,3.49,5.46,8.89,6.22,14.69.64,4.86-9.24,5.6-3.46,10.84,5.2,4.71,2.54,10.55,3,15.9.42,4.73-.44,9.6.31,14.24.38,2.38,3.87,4.18,4.52,6.62,1.41,5.27,2.77,10.83-2.23,15.45-4.57,4.22-2.46,7.72.92,11.87s3.41,5.2.28,9.55c-5,6.91-5.81,13.05.48,19.66,3,3.14,2.23,6.83-1.09,9.66s-4.68,6.45-2.07,9.68c8.87,11,4,23,3.43,34.72-6.3,3.7-4.33,9.87-4.41,15.29q-.25,17.14,0,34.28a29.6,29.6,0,0,0,1.56,7.9c2.69,9,1.65,14-3.92,17.85-3,2.06-9.8-.27-8.86-3.06,3.17-9.45-6.64-14.84-6.2-23.45.37-7.13-9.09-12.11-5.51-20.47-4.95-4.89-7.72-11-5.5-17.56,2.7-8-8.33-10-6.2-17.78,1.44-5.32.27-11.35.27-17.06-10-7-5.52-17.42-5.35-26.2.2-9.57-8.58-16-6.47-26.28,1.87-9.14.39-19,.39-28.49s-.12-19.05,0-28.57c.13-7.45-8.65-11.75-6.09-20.58,1.78-6.15.34-13.23.34-19.9,0-7.62.27-15.25-.08-22.85-.33-7.18-8.2-11.88-6-20.58,1.5-5.9,2.21-13.4-5-17.69-.12-9.47,0-19-.44-28.41-.31-6.44,2.79-14.06-1.84-19.07-5.52-6-3.3-12.32-3.7-18.57-.43-6.64-.09-13.32-.09-20-11.33-10-5.87-23.41-5-34.71.74-9.57-7.25-14.79-6.61-23.41.56-7.47-.27-15-.49-22.57-8.07-5.37-5.69-13.85-4.7-20.71,1.32-9.14-5.34-15.46-5.89-23.41-.73-10.42.33-21-.34-31.4-.58-8.92,3.57-18.69-5-26.64-1.94-1.8-.58-7.23-.59-11,0-13.33-1.5-26.88.47-39.92,1.46-9.59-6.69-15-6.28-23.42.37-7.6.08-15.23.08-22.85-10-7-3.79-17.48-5.87-26.16-1-4.19-4.63-7.82-5.34-12-1.08-6.43-.67-13.11-.9-19.68-6.9-4.92-14.67-1.78-22-2-19-.55-38.08-.16-57.13-.2-4.68,0-5.81-1.42-5.94-7.13-.06-2.86-.15-5.73,0-8.57.37-6.07,6.58-12.72,12.14-12.82,8.56-.15,17.17.42,25.7-.15,12-.8,24.36,2.65,36.09-2.42l.33-39.86c-11.09-10.08-3.75-23.19-5.66-34.78-1.61-9.75,3.81-20.58-5.49-29.34-1.9-1.79-.28-7.32-.28-11.13q0-55.71,0-111.41c0-4.72-1.27-10.22.71-13.93,2.16-4,5.38-6.94,5.13-12.28-.49-10.45-.14-20.94-.14-31.41,0-5.72-.19-11.44.12-17.14.09-1.58,1.59-4.3,2.58-4.36,2.53-.16,5.77.11,7.58,1.6,3.44,2.84,7.09,5.54,7,11.34-.35,25.71-.49,51.43,0,77.13.18,8.89-3.6,18.68,4.94,26.63,1.93,1.8.58,7.23.58,11,0,34.28-.55,68.57.33,102.83.29,11.58-6.07,24.76,5.39,34.78q0,18.57,0,37.15c-5.62-.44-6.07,3.52-5.58,7.32.38,2.93,2.64,4.68,6,4.11,3.52-.59,7.24,1.19,10.53-2.2,6-6.26,15.1-5.23,20.68-2.29,5.2,2.73,9.65,4.35,15.28,4.61,4.52.2,7.06,4.69,11.67,6.2,5.86,1.93,10.9,6.62,17.75,5.06,7-1.6,12.65,3.3,13.47,7.6,2,10.51,8.39,10.2,15.94,9.6.94-.07,1.9,0,17.34,12.91,12.53,7.81,10.75.93,7.35-5-2.76-4.83-8.8-.79-12.91-2.37-2.39-.93-3.86-4.07-6.19-5.42-2.51-1.46-3.48-.17-2.82,2.71.4,1.78-.72,4.38.2,5.49,6.88,8.3,16.66,14.31,19.88,25.58.08.26,5-.34,7.23-1.44,1-.5.93-3.2-12.74-19.54C217.51,392,213,390.83,211.11,388S204.71,384,205.39,379.4Zm40,258.45c0-21.86.17-43.73-.13-65.59-.08-5.27,3.13-13.53-3.1-15.11-6.4-1.63-15-3.66-21,3.47-1,1.13-3.32,1.65-4.94,1.49s-3.14-1.5-4.7-2.32a8.16,8.16,0,0,1,1.27-2c2.8-2.38,5.9-6.83,8.47-6.55,7.25.77,11.82-4.25,17.72-5.84,4.29-1.16,6.51-2.19,6.49-6.85-.1-19,0-38-.05-57,0-13-2.48-19.53-12.67-31.79-2.44-2.93-5.16-5.27-4.51-9.6.58-3.83-.16-7.12-3.38-10-5.65-5.08-10.94-10.57-16.18-16.08-6.47-6.8-12.53-14.2-23.54-12-6.07-3.72-11.73-9-18.32-10.72-7.11-1.87-15.11-.19-22.69-.56-2.49-.12-4.9-1.83-7.35-2.79-1.34-.53-3.15-1.85-4-1.4-4.5,2.5-11.41,4.64-12.53,8.4-2,6.74-11.43,12.94-5.93,20,6,7.65,5,15.42,5.4,23.59.12,2.68-.06,6.78,1.46,7.74,5.43,3.41,3.39,10.1,7.66,14.27,5.12,5,1.12,12.58,2.41,18.86.32,1.55,2.58,2.67,3.85,4.08,4.46,5-1.66,13.18,5.82,17.82,1.95,1.2,1.75,6.9,1.49,10.46-.65,8.92.72,16.7,8.73,22.17,1.33.91,3,3.5,2.63,4.39-4.12,8.72,7.28,12.9,5.84,20.52-1.49,7.89,7,12.18,6.27,20.5-.62,7.38,7.05,11.46,15.75,11.62,7.24.13,6.51-4.62,6.66-9.39.32-9.7,9.2-13,14.59-18.9a10.23,10.23,0,0,1,2,2,3.49,3.49,0,0,1,.48,2.59c-2.41,5.66-3.59,12.87-7.82,16.48-6.3,5.37-.21,13.42-5.77,17.76-4.63,3.62-4.1,8.5-3.25,12.83.81,4.17,4.7,7.84,5.18,12,.57,4.84,1.09,8.85,4.91,12.45,1.25,1.17.94,5.47-.23,7.37-1.77,2.88-5.92,4.71-.92,8.21,3.92,2.75,1.91,6.92,2.18,10.47.35,4.56-.52,8.89,3.69,12.86,5.32,5-1.59,15.5,7.72,19.68.71.32.33,3.64,0,5.49-1.07,6.89,2.63,11.93,5.23,17.84,2.45,5.57.12,13.11.74,19.71.22,2.33,3.2,4.28,4.44,6.65,1.61,3.11,2,7.17,4.26,9.55,4,4.2,1.32,9,2.68,13.25,1.07,3.29,4.63,5.88,5.31,9.15,1,4.56.24,9.46.24,14.21a19.35,19.35,0,0,1,0,2.85c-.72,4.69,3.19,6.59,5.81,8.93a11.33,11.33,0,0,0,7.23,2.81c2.89-.12,4.25-2.53,4.2-5.9-.19-14.26,0-28.52-.11-42.78-.06-8.18,1.81-16.81-5.55-23.45-.95-.85.3-3.78-.21-5.53-1.58-5.35,6.21-8.57,4.48-11.27-2.63-4.11-4.55-7.53-4.5-12.54C245.52,683.49,245.4,660.67,245.4,637.85ZM268.26,469.4l-2.86-4.29c-3,4.17-9.47,6.19-8.47,12.85.23,1.53,1.8,2.87,2.75,4.3C262.48,477.93,269.32,476.3,268.26,469.4Zm-2,53.76c-.65.05-1.48-.15-1.92.18-2.86,2.13-2.78,7.81.13,9.4a2.15,2.15,0,0,0,1.9-.14C269.28,530.48,269.17,524.84,266.3,523.16ZM246.22,834.52l2,2a17.56,17.56,0,0,0,1.79-3.84c.11-.47-1.15-1.24-1.79-1.88Z"/><path d="M463.91,544.23c-34.22-31.37-32.39-33.54-31.41-33.21,5.8,2,11.75,3.89,16.94,7,3.94,2.37,6.59,6.77,10.21,9.8,7.62,6.4,12.24,16.71,23.7,18.31.89.13,2.16,3.16,1.93,4.63-1.23,7.86,1.94,11,9.68,12.94,5.72,1.43,11.46,5.49,15.59,9.88s6.6,10.41,8.88,16.08c.65,1.64-1.46,5-3.13,6.71-.85.89-4.19.76-5.3-.2-4.29-3.69-8.73-7.48-12-12-3.12-4.35-7.95-6.58-11.05-10.75s-9-6.43-8.69-13.65c.11-2.6-4.41-7.14-7.43-7.75-5.92-1.19-9.64-4.55-13.73-8.29-4.6-4.2-7.78-9.66-15.57-10.74-4.49-.61-8.37-7.21-12-11.53-1.61-1.9-2-4.84,33.41,22.8,35.15,30.82,33.87,31.59,33,32.68-.42.52-.07,1.64-.07,2.49.84,0,2,.35,2.48-.07a11.32,11.32,0,0,0,2.6-3.37C502,575.75,500.82,574.82,463.91,544.23Z"/><path d="M587.4,659.41c12.08-.7,17.5,9,26.89,6.34,1.76-.5,5.84,4.52,7.62,7.69,1,1.78.32,5.87-1.17,7.28s-5,1.19-7.39.68c-1.55-.32-2.7-2.49-4-3.81-3.62-3.56-6.92-9.72-12-1.5-3.54-4.32-9.22-4.55-13.58-7.21-1-.63-1.33-3.41-1-5a6.5,6.5,0,0,1,2.85-4.28C587.07,658.84,589.24,659.41,587.4,659.41Z"/><path d="M410.77,484.77c-.42.66-.7,1.63-1.3,1.92-3.88,1.88-9,1.19-11.66,5.77-.09.15-3.63-1.06-3.61-1.58.18-5.17-.68-8.22-7.16-9-4.83-.55-8.2-6.1-14-6.51-2.9-.21-2.8-1.81.88-4.55,2.93-2.19,4.88-8.82,10-1.76a20.46,20.46,0,0,0,13.25,8.47c3.48.71,6.83,5.14,11.64,5.32C409.48,482.91,410.12,484.11,410.77,484.77Z"/><path d="M1114,630.83c-.41-5.4,3.3-6,7.13-5.6,2.87.33,4.91,2.2,4.32,5.67a14.44,14.44,0,0,0,0,2.79,45,45,0,0,0,5.71,20,40.79,40.79,0,0,0-5.64,0c-3.51.48-5.41-1.49-5.68-4.4-.42-4.66.18-9.41-.22-14.08C1119.36,632.35,1117.55,630.19,1114,630.83Z"/><path d="M606.33,579.4c-6.45,0-10.16.29-13.8-.13a6.24,6.24,0,0,1-4.14-2.88c-1.35-2.54-.16-3,2.65-2.83,7.35.38,14.73,0,22.09.28,1.13,0,2.22,2,3.16,3.23.07.09-1.15,1.72-1.86,1.8C610.83,579.25,607.2,579.36,606.33,579.4Z"/><path d="M1074,513.86c0,7.12-1.39,8.77-7.13,8.4-2.85-.18-3.83-2.33-2.31-4.87,1.32-2.21,3-4.38,3.59-6.8s.43-5.44,4.07-4.14c1,.36,1.31,3,1.74,4.65A11,11,0,0,1,1074,513.86Z"/><path d="M1052.67,488a27.55,27.55,0,0,1,5.53.07c2.83.6,5,2,4.4,5.56-.16.9.32,2-.09,2.73-1.71,2.87-3.36,2.52-5.81.3-1.78-1.6-4.71-1.87-7-3a32.15,32.15,0,0,1-4.18-2.89,38.87,38.87,0,0,1,4.42-2.72C1050.69,487.68,1051.75,488,1052.67,488Z"/><path d="M571.13,648.52c-.71,1.48-1.37,3-2.21,4.4-.1.17-1.39,0-1.78-.42-2.54-2.47-5-5-7.38-7.62a2.57,2.57,0,0,1,0-2.52c.45-.44,1.68-.09,2.57-.1C570.05,642.19,570.88,642.78,571.13,648.52Z"/><path d="M580.13,573.69c-1.81,0-3.76.42-5.38-.14-1.27-.43-2.18-2-3.06-3.26-.09-.12,1.18-1.76,1.82-1.76,4.32,0,8.63.22,12.93.57.66,0,1.48,1.12,1.78,1.89,1,2.67.09,3.41-2.68,2.77C583.82,573.37,581.94,573.69,580.13,573.69Z"/><path d="M414.16,505.12a11.8,11.8,0,0,1-2.66,0,14.23,14.23,0,0,1-4.62-1.6c-.34-.23.29-2.56,1-3.57a14.73,14.73,0,0,1,3.75-3.76c1-.69,2.47-.75,3.73-1.09.49,2.46.86,5,1.52,7.38C417.6,505.15,416.83,506,414.16,505.12Z"/><path d="M368.55,470.78c-3.63-2.17-3.69-5.5-2.6-9,.23-.75,1.61-1.9,1.76-1.8,1.23.81,3,1.73,3.25,2.89.49,2.56.17,5.29.05,7.94A5.07,5.07,0,0,1,368.55,470.78Z"/><path d="M1048,462.26c-4.77,1.41-7.19,2.6-9.64,2.67-1.42,0-2.89-1.72-4.33-2.67,1.44-1,2.91-2.72,4.33-2.68C1040.77,459.65,1043.18,460.84,1048,462.26Z"/><path d="M638.89,579c2.48,1,4.09,1.62,5.58,2.42.23.12.19,1.41-.14,1.85-2.13,2.86-8.2,2.89-9.18-.2C634.86,582.16,637.72,580.23,638.89,579Z"/><path d="M557.13,642.21c-3.64-2.16-3.69-5.49-2.6-9a3.93,3.93,0,0,1,1.75-1.8c1.23.81,3,1.73,3.26,2.89a34.07,34.07,0,0,1,0,8A5.06,5.06,0,0,1,557.13,642.21Z"/><path d="M550.3,620.23l3.68,2c-.63.64-1.41,1.89-1.88,1.79a17.7,17.7,0,0,1-3.83-1.79Z"/><path d="M422.08,508.44c-.66.66-1.6,1.88-1.81,1.76a11.44,11.44,0,0,1-3.37-2.6,2.42,2.42,0,0,1,0-2.39,2.4,2.4,0,0,1,2.39,0A20.69,20.69,0,0,1,422.08,508.44Z"/><path d="M202.85,379.4c-.88-1.13-2.75-2.84-2.48-3.3,2-3.44,3.64-1.09,5,.79a2.48,2.48,0,0,1,0,2.41C204.88,379.73,203.7,379.4,202.85,379.4Z"/><path d="M113.5,359.86c-.67.66-1.6,1.88-1.81,1.76a11.45,11.45,0,0,1-3.37-2.59,1.71,1.71,0,0,1,2.42-2.42A21.15,21.15,0,0,1,113.5,359.86Z"/><path d="M794,665.12H776.85a52.66,52.66,0,0,1,3.92-6.68c2.91-3.66,6.83-7.31,11.18-3.4C794,656.88,793.39,661.67,794,665.12Z"/><path d="M780.17,1065.6c.66.67,1.88,1.6,1.76,1.81a11.44,11.44,0,0,1-2.6,3.37,1.71,1.71,0,0,1-2.41-2.42A20.69,20.69,0,0,1,780.17,1065.6Z"/></svg>