<svg id="Layer_1" data-name="Layer 1" xmlns="http://www.w3.org/2000/svg" viewBox="0 0 1200 1200"><title>BB_Artboard 88</title><path d="M491.16,1047.7c14.46,0,29.36-.66,44.16.28,7.23.46,13.54,5.78,21.76,4.7,8.53-1.12,17.32-.25,26-.25h23.67c7.89,0,15.9-.83,23.64.23s12.15-5.55,18.86-6.34c.55-.06,1.24-2.7,1.07-4s-1.31-3.65-2.05-3.67c-3.72-.06-7.79-2-11.12,1.13-2.27,2.13-4.28,5.29-5.72-.63-.48-2-2-5.41-2.8-5.34-5.25.45-10.9-2.46-15.77,1.76a15,15,0,0,1-17.22,1.53,22.9,22.9,0,0,0-12.82-3.56c-3.16,0-6.32.09-9.47,0-8.55-.27-17.1-.62-25.64-.94-5.38-8.58-17.49,1.17-22.73-8.28-.39-.7-3-.29-4.52-.22-5.48.28-10.2-.12-14.92-4.4-2.68-2.42-9,1.26-12.63-3.7-1-1.31-4.23-.86-6.39-1.42s-5.52-.89-6-2.16c-1-2.8-.54-6.14-.49-9.25,0-.61.89-1.18,1.33-1.79,3-4.14,10.83-6.79,7.41-12.9-3-5.35-10.11-1.7-15.36-2.16a128.86,128.86,0,0,0-16.56-.06c-4.81.19-8-3.67-8.82-6.47a28.85,28.85,0,0,1,.06-15.64,9.19,9.19,0,0,1,8.86-6.41c6.31.24,12.63.06,18.94.06,43.39,0,86.79.11,130.19-.1,8.19,0,17.18,2.72,24.07-4.63H644c2.74-4.92-2-5.47-3.43-7.35-5.65-7.37-16.12-8.54-21.57-16.33-5.92,1.07-11.4-10.72-17.63-.59-6.23.2-12.46.56-18.69.54-5.27,0-11.18,1.63-14.74-4.37-7.86,1.3-12.16-4.63-18.07-7.94-9.53-5.33-19.07-11.34-29.21-15-7.68-2.75-17-.8-25.63-1.09-4.78-.16-9.3-.25-12.49,4.4-.54.78-3.1.74-4.45.28-4.3-1.47-9.05-9.1-7.34-13.09,2.59-6,3.81-12.92,9.21-17.48,1.13-1,2.41-2.27,3.71-2.38,3.92-.31,7.88-.11,11.82-.11,5.53,0,11.05-.11,16.57,0,6.2.16,12.65-.42,18.49,1.15,4.78,1.29,8.82,5.28,13.19,8.07,6.25-2.44,8.19,7.58,14.49,5,6.78,7.44,12.89,6.16,19.62-.6,6.32-6.35,16.11-6.56,22.19.31,3.93,4.45,9.87,3.77,13.46,8.06a101.87,101.87,0,0,0,11.68,11.73c7.34,6.35,17,8.52,25.15,13.52a81.39,81.39,0,0,0,9.87,4.74c.62.28,1.94.23,2.19-.16.62-.95,1.47-2.65,1.06-3.22-4.35-6.12-6.92-13.28-13.13-18.39-6.71-5.52-6.39-16.34-.6-22.37,2.18-2.28,4.19-4.88,6.78-6.55,1.61-1,5-1.64,6.18-.69,8.65,7.19,21.44,8,28.08,18.21.24.36,1.62-.19,2.26.12,9.9,4.68,20.5,8.37,29.4,14.51,6.53,4.52,12.8,4.33,19.59,4.25,1.06,0,3-1.88,3-2.81-.11-2.11-1.37-6-1.88-6-5.71.5-8.23-3.83-11.43-7-11.22-11.1-22.48-22.16-33.41-33.54-3.34-3.47-8.37-4-10.56-2.33-7.63,5.89-16,4.11-24.32,4.41-3.15.12-6.59-.79-9.41.19-6.45,2.24-8.85-6.32-14.66-4.89s-8.65-2.86-11.53-6.31c-3.59-4.3-11.15-2.42-13.1-8.33-3.06-9.29-10.16-15.28-17-21.25-3.85-3.36-2.88-8.65-6.54-11.61s-2.9-7.61-2-10.84c1.93-6.55-6.4-8.57-5.17-14.72.9-4.56.17-9.44.17-14.17-8.85-7.5-3.45-17.57-4.6-26.42-.71-5.44-.34-11-.07-16.55s.37-10.88-4.75-14.68c-.37-.28,0-1.51,0-2.3,0-7.89-.53-15.83.16-23.66.64-7.23-3.67-13-4.5-19.41-1.42-10.86-.52-22-.32-33.08.07-4.11-.74-7.27-3.83-10.37-2.38-2.39-.89-5.43,1.44-8,1.35-1.51,2.52-5.65,2.18-5.85-6.82-3.92-3-11.53-6-16.62-1.13-1.9-2.78-3.71-3.2-5.76-1-5.08,1.7-10.7-3.39-15.26-4-3.61,1.59-11.29-5.13-14.37-.35-4.59-1-9.18-1-13.76,0-3.1,6.24-8.34,9.67-8.56,3.14-.2,6.32.14,9.45-.13,1.37-.12,3.57-.93,3.81-1.84,1-3.61-.06-8.82,2.1-10.81,5-4.59-.8-6-1.13-8.73-.54-4.63-1.22-7.23-6.57-7-7.09.29-14.2.19-21.3,0-5.93-.13-10.73-6.21-10.33-12.73.32-5.14,5.11-10.64,9.82-10.85,3.9-.18,7.82.11,11.73.2,4.82,7.75,14.2,1.37,18.93,5.37,6.53,5.54,13.29,2.68,19.85,3.91,2.1.4,4.9,1,5.93,2.53,4.68,6.83,11.34,7,18.56,7,5.15,0,10.58-2,15.45,2.76,4.27,4.14,10.46,1.05,15.73,1.83,6.52,8.69,16.06,2.92,24,5,7.63,8.8,17.76,2.64,26.59,4.31,1.08.2,3.53-1.32,3.57-2.14a14.29,14.29,0,0,0-1.34-6.35,9.79,9.79,0,0,0-3.27-3.36c-4.17-3.08-11.08-3-12.81-8.49-1.38-4.41-5.08-7.66-5.68-11.8-.76-5.32-6.06-8.26-5.47-14.62.4-4.41-3.53-9.36-5.9-13.88-6.39-12.19-6.73-13-7.83-25.16-.24-2.64-1.6-4.35-4.45-4-1.41.18-3.87.78-4,1.45-1.46,11-8.33,13.46-18.17,12.84-6.41-.41-6.48.19-6.54,6.52,0,5.52-.14,11,0,16.57.12,4.17-2.18,4.83-5.7,5.35-2.5.36-5.54,4-7,3.26-2.63-1.28-4.48-3.89-8.08-3.6-.9.07-3-2.13-2.81-2.95,1.71-8.77-6.67-15-5.27-24.16,1-6.44,2.51-13.83-2.08-20.24-4.47-6.26-1.42-13.57-2.27-20.35-7.94-7.68-4.83-17.62-4.34-26.42.38-6.87-5.8-10.57-5.25-17,.53-6.27.11-12.61.1-18.92-8.27-5.78-3.46-14.41-4.7-21.72-.75-4.42-6.14-6.73-4.91-12.27a29.71,29.71,0,0,0,0-11.77c-.82-4.24-5.7-6.88-4.72-12.3.83-4.55.78-9.34-4-12.56-.81-.56-.52-2.88-.58-4.39-.24-5.3.65-10.38-4.24-15-2.7-2.56,1.35-9-3.51-12.68-1.37-1-2.11-4.38-1.58-6.22,2.59-9.05-7.73-15.09-5.51-24,0-.15-4.22-2.23-5.9-1.67-1.42.48-3.11,3.76-2.71,5.28.72,2.73,3.73,4.9,4.29,7.61.79,3.78-.05,7.87.25,11.79.82,10.5-2.73,21.52,4.47,31.34,1.5,2.06.22,6.16.22,9.31,0,9.47-1.48,19.26.46,28.31,1.56,7.23,5.19,13.87,4.41,21.82-.68,7-.33,14.2-.08,21.29.19,5.23,6.3,8.28,4.92,14.66-1.15,5.26-.18,11-.14,16.48,5.82,3.53,4.57,9.28,4.64,14.65.07,4.68.25,9.36.38,14,7.15,3.35,1.88,11.84,6.69,16.17.58.52,1.37,1,1.63,1.68,2.8,7.16-1.8,15.2,3.26,22.37,4.82,6.83,1.58,15.1,2.07,22.71.12,1.89-1.45,4.2-2.83,5.82a45.27,45.27,0,0,1-8.42,8.24c-1.36.94-4.65.53-6.16-.55-2.43-1.72-6-4.72-5.77-6.78,1.07-8.8-7.19-15.05-5.35-24.18,1.18-5.87-.38-12.29-.72-18.46-6.5-4.67-2.89-11.51-3.73-17.39-7.07-6-4-14.28-4.74-21.71-.71-7.66,2.71-16.29-1.85-22.82-5.24-7.49-1.45-15.13-3.06-22.49-7.6-5-4.41-12.84-4.29-19.41.11-5.84-6.92-8.13-5.26-14.68,1.32-5.19.29-11,.23-16.5,0-.69-.29-1.79-.75-2-7.46-3.3-1.54-11.58-6.46-16.44-5.37-5.3-2-6.45,2.45-11.22,3.34-3.56,6.49-3.26,9.82.12.7.71,2.17.67,3.29,1,.38-1.42,1.57-3.42,1-4.16-3.76-5.16-5.63-10.65-4.62-17.07.88-5.62-6.64-8.22-4.94-14.67,1.17-4.42,1.43-9.82,0-14.05-2.5-7.16-5.55-13.8-4.64-21.82.8-7,.29-14.18.13-21.28-.12-5.28-6.15-8.25-5-14.67.84-4.81-6-8.31-4.6-14.6,1-4.49.2-9.42.2-14.15a14.41,14.41,0,0,1,0-2.37c.65-3.67-.83-7.3,1.71-11.17,3.37-5.16,10.11-3.61,13.34-8.21a8.61,8.61,0,0,1,1.65-1.39C538,110.8,546.28,113,546,119.77c-.37,7.71,5.86,12,7,18.54,4.66,1.63.14,10,7.36,9.89,4.79,0,6.52-4.09,9-6.77,4-4.38,8.73-2.3,13.16-2.7,6.32-.55,5.58-.53,6.61-6.82,1.12-6.81-4-11.45-4.6-17-1.16-10.93-.26-22.06-.37-33.11,0-4.68,3.52-3.62,6.15-4.85,3.84-1.79,6.19-5.74,10.64,0,3.87,5,8.71,8.81,7,16.18a18.51,18.51,0,0,0,.07,9.38c1.1,3.4,5.73,5.22,4.6,10-.78,3.27.66,5.73,3,8.27,1.85,2,2.33,5.28,3.52,7.94.89,2,2.51,3.85,2.8,5.91.64,4.52,3.73,3.87,6.81,4.2,7.51.83,12.14,4.95,12.22,10.8.11,8.68.64,17.42-.23,26-.44,4.4,6.23,5.86,3.54,9.23-4.65,5.83-4.51,10.72-.17,16.39,1.23,1.61,1.5,4.23,1.55,6.4.19,7.09,1,14.37-.21,21.25-1.16,6.42,4.92,9.29,5,14.66s.29,10.92.44,16.38c6.78,4.38,3.79,11.25,4.23,17.17.56,7.49-1.82,15.56,4.78,21.7,0,4.74.12,9.47,0,14.2-.17,5.49,6.47,8.25,5,14.67-1.19,5.25-.36,11-.11,16.51,0,.8,1.8,1.64,2.9,2.18.23.11,1.47-1,1.56-1.59.93-6.61-2.17-13.93,4.66-19.57,1.57-1.3-.91-7,.66-8.92A95,95,0,0,1,691.46,300a27.67,27.67,0,0,1,7.77-3.74c5.09-1.41,10.68-1,16.06-1.33,7-.41,12.07-7.05,10.85-14.55-.23-1.38-1.53-3.84-1.82-3.77-6.13,1.56-8.35-7.11-14.48-5.38-8.35,2.37-14.19-3.75-20.91-6.61-6.21-2.65-4.12-11.53-10.08-14.68,3.22-9-7.94-15.05-4.78-24.1,2.06-5.89-6.63-8.09-5-14.66,1.32-5.18.26-11,.26-16.5-7.69-9.46-4.13-20.67-4.63-31.18-.48-10.24.91-20.65-.46-30.72-.89-6.55,5.42-8.86,5.55-14.65.06-2.67,4.81-7.16,7.74-7.43,5.55-.5,8.22-7.43,14.62-5.31,2.85.94,6.26.16,9.42.16,5.52,0,11.69-1.55,16.39.43,4.9,2.06,9.07,5.32,14.78,4.31,3.24,7.78,12.17,2,16.16,6.47,5.06,5.73,14.43,0,18.2,7.73,6.13.6,10.19,5.76,16,7.23,2.11.54,4.06,1.76,6.18,2.18,4.36.87,9-1.33,13.21,2.64,3.7,3.46,10,3.51,13,8.5.72,1.18,2.89,2.91,3.18,2.7,1.89-1.36,4-2.91,5-4.91,3.66-7.19,8-14.18,11-21.47,3.85-9.2,11.38-14.15,17.78-20.54,13.85.73,23.73-13.51,38.76-9.75,6.68,1.67,14.13.28,21.23.28,4,0,8-.62,11.8.18,3.47.73,6.51,3.28,9.94,4.46,2.8,1,7.34,0,8.54,1.75,2.72,3.88,7,2.46,10.18,4.64a66.1,66.1,0,0,0,15.66,7.76c5.88,2.05,7.29,10.69,15,9.61,8.81,5.48,13,14.43,17.18,23.28,2.54,5.35,6.19,10.12,5,17-1.06,6.12-.22,12.58-.22,18.89,0,5.53.34,11.08-.1,16.56-.41,5.14-6.11,8.37-4.9,14.67.8,4.19-6.23,6.74-4.5,12.2,1.45,4.62-4.46,6.27-4.54,9.87-.12,5.73-5.08,7.46-7.72,11.06-.46.63-1.68,1.28-1.58,1.66,1.43,5.4-5,7.39-5.13,12.16-.19,5.42-5.56,7.14-8.41,10.67-2.46,3.06-5.51,5.63-8.3,8.42-3.35,3.35-6.43,7-10.12,9.95-4.05,3.2-8.89,5.38-13,8.54-4.7,3.64-4.06,7.86,2,9.46,4.44,1.18,6.71,6.79,12.07,5.24,2.9,4.84,7.59,4.43,12.34,4.68,1.89.1,3.7,2.35,5.49,3.7,2.42,1.82,4.56,4.88,7.2,5.38,12.51,2.36,10.13,11.83,10.12,20.13,0,1.24-1.59,3.63-2.25,3.56-6.8-.68-9.77,4.78-12.91,8.72-3.66,4.59-9.84,4.29-13.21,8.29-3.62,4.29-9.4,5.32-12.89,8.62-5.49,5.2-14.56-.06-18.29,7.69-12-.69-20.37,8-30.49,12.12-4.72,1.93-9,5.65-13.8,6.5s-8.68,1.14-12.44,4.79c-1.63,1.57-6.09.52-9.21.19-3.49-.36-5.5,1.84-8.19,3.23-3.07,1.57-8.17,2.37-10.77.81A50.49,50.49,0,0,0,832.1,403c-4.46-1.52-8.58-1.47-10,2.12-1.66,4.24-3.21,8.16-6.67,11.53-3,2.93-4.08,9.39-7.18,10.3-4.15,1.22-6.5,3.65-9.46,5.94-2.42,1.88-1.75,4.33-1.39,6.43.16,1,2.23,2,3.59,2.31,11.77,2.47,22.62,7.91,35.32,17.72.54.42,3.07-.45,3.12-.89a40.15,40.15,0,0,0,.29-9.35c-.88-7.14,8.29-11.64,4.88-19.32,6.67-5.19,10.56-13.62,19.2-16.5,4.86-1.61,8.52-5.45,14.63-5,11.77.88,23.78,1.28,35.44-.12,7.16-.87,11.11,4.54,17,5.07,5.39.48,10.82.58,16.23.85,3.1,6.65,11.32,1.24,14.19,5.23,4.23,5.89,11,.86,14.68,4.91s10.45,2.79,13.33,8c9.18.36,12,9.06,17.93,13.76,3,2.37,5.16,5.69,7.71,8.58-3.07,7,4.71,10.92,4.68,17,0,2.23.14,5.13-1.11,6.56a209.48,209.48,0,0,1-15,15.09c-.89.82-3,.29-4.44.6-9.71,2-13.6,4.86-12.22,12.86,2.19,12.69-8,20.7-9.78,31.64-5.17,2.9-3.94,9.49-7.91,13.38-3.68,3.6-.51,9-1.64,13.45-1.27,4.94-5.91,8.52-4.84,14.66a58.6,58.6,0,0,1,.06,16.52c-.86,7.4,2.94,15.12-3.48,22.32-4.29,4.82,2.05,13.77-5.09,19.25-1.6,1.24-.61,5.89-.76,9-.07,1.57.59,4.17-.1,4.58-6.71,3.92-2.71,11.72-6.21,16.43a20.72,20.72,0,0,0-3.5,8.12c-.66,2.63-4.14,4.55-6.37,6.78-5,5-10.07,10-15.06,15.07-2.46,2.5-3.32,5.3-.27,7.83,4,3.3,2.85,8.33,6.1,12,2.45,2.78.52,9,2,13.22,1.16,3.38,4.32,8.38,6.82,8.53,5.75.32,11.85,2.49,17.76-2.46,4.86-4.06,9.83-2.38,14.25,1.84,1.71,1.63,3.16,3.6,5.07,5,3.58,2.54,2.93,4.58-.23,6.78a2.88,2.88,0,0,0-1.25,1.8c-.09,5.53-1,11.27.19,16.52,1.47,6.42-5,9.17-5.07,14.66,0,5.21,1.22,10.35-3.63,15.2-3.27,3.27.22,10.14-5.06,14.5-3,2.44,1,8.78-3.46,12.67-3.24,2.8-2.2,8.82-6.69,11.33.13,6.87-7.12,11.59-5,19.4,1.67,6-7.54,9.71-4.88,17,.54,1.47-3.13,5-5.46,6.86-3.6,2.84-3.27,6.49-3.87,10.36-.54,3.45-3.59,6.47-4.34,9.94-.79,3.66.67,7.78-3.36,10.56a4.76,4.76,0,0,0-1.44,4c1,5.37-2.66,8.24-5,12.23-4,6.77-13,5.13-16.76,11.54a9.4,9.4,0,0,1-1.65,1.69c1,.9,2,2.64,2.93,2.56,5.91-.54,12.55,2.62,17.48-3.71,1-1.25,4.35-.83,6.61-.85,7.89-.09,15.89.77,23.64-.26,8.17-1.09,13.56,7.73,21.74,5,4,3.75,8.06,7.39,11.81,11.35.84.88.94,3,.55,4.36s-1.81,3.06-2.81,3.09c-8.68.24-17.36.14-26,.14-14.3-9.43-30.3-2.71-45.38-4.74-5.88-.79-12.75,2.61-17.26-4-1.68,1.2-3.32,3.4-5,3.46-12.56.43-25.13.43-37.7.57-3.42-4-6.85-5.32-10.28,0H823c-4.73,0-9.47,0-14.2,0s-9.89-1.09-14,.52c-3.3,1.29-5.69,4.2-10.07,4.48s-7.09-5.37-9.35-3.91c-3.41,2.22-6.26,4-10.42,3.7-3.93-.29-7.89.05-11.83-.11-2.24-.09-5.51.18-6.5-1.11-3.88-5.08-6.1-1.76-8.51,1.1a7.8,7.8,0,0,0-1.5,3.34c-.07.35,1.07,1.38,1.66,1.39,11.83.08,23.71-.54,35.49.24,10.46.68,21.55-3.71,31.42,4.27,2.39,1.93,7.66.28,11.61.28q61.54,0,123.08,0c3,0,6.16-.9,8.63,2.08,2.91,3.51,6.36,6.59,9,10.26.33.45-3.88,3.33-3.9,5.11-.06,5.37-2.58,7.09-7.25,6.12s-6.75,3.93-9.95,4.44c-4.7.75-6.57,1.72-7,6.79-.22,2.46-4.07,4.45-5.87,7-3.63,5-8.51,6.35-14.3,5.56-5.13,4.87-7.67-8.38-13.45-1.77-3.56,4.08-8.91,1.16-13.41,1.69-3.81.45-8,1-10.44-3.26-10.63-2.07-21.23-2.92-31.76.56-3.57,5.6-5.72-2.76-8.27-1s-4.33,4.05-8,3.83c-5.5-.34-11.2-.89-16.52.14-4.89,1-9.4,3.86-14,6-.26.12-.39,1.19-.17,1.59.36.65,1,1.54,1.64,1.58,2.35.19,4.73.08,7.1.08,4.73,0,9.48-.27,14.19.07,5.18.38,10.34-1.29,15.47,3,2.92,2.42,8.93.73,13.31,1.84,4.94,1.25,8.59,5.89,14.68,4.76a46.62,46.62,0,0,1,14.15,0c2.5.32,6.69,3.73,6.87,3.46,4.13-5.85,10.12-2.95,15.27-3.62.77-.1,2.12-.29,2.28,0,3.89,7.67,13.76,1.51,18.09,7.86,1.32,1.92,1.88,1.63,3.49-.09a9.59,9.59,0,0,1,5.77-2.94c6.29-.37,12.89,1,18.86-.39,10.78-2.56,15.71,4.8,21.77,10.68,2.28,2.21,2,5.62-.47,8.08-4.51,4.53-16.17,9.85-21.94,9.89-8.66.06-17.33.06-26,.21-.56,0-1.68,1.36-1.58,1.55.61,1.08,1.71,3,2.27,2.84,10.84-2.31,14.92,6.58,20.67,12.47,1.77,1.81-1.61,9.86-3.41,12.72-2.85,4.49-8.92,2.07-11.69,6.53-2,3.22-5.8,1.47-8.74,1.49-26,.13-52.09-.44-78.11.31-11.11.33-23.13-4.3-33.36,4-5.32-8.24-9.52,3.18-15.36.85-4.76-1.91-10.89-.39-16.41-.39H736.58c-11.05,0-22.2-.94-33.1.36-6.4.76-12.12,5.31-19.4,4.54-7-.76-14.19-.26-21.28,0-.79,0-1.63,1.8-2.17,2.9-.11.23,1.14,1.63,1.56,1.54,4.64-1,6.74,4,9.92,4.53,4.65.8,7.31,1.59,6.77,6.79a14.1,14.1,0,0,0,0,4.72c1.38,5.82-2.92,8.63-6.37,11.52-2.14,1.78-5.81,1.78-7.85,3.62-2.51,2.27-3.32.49-5.2-.52-7.22-3.87-14.27-8-23.23-7.12-3.12.29-6.45-3.17-9.88-4.34-2.77-.93-6.34,1.19-8.63-2-3-4.22-4.57-.63-6.77,1-1.08.8-3.62,1.41-4.2.82-6.32-6.45-14.29-4.48-21.83-4.6-6.31-.1-12.65.36-18.92-.14-5.18-.41-10.64,2.26-15.55-2.54-5.08-5-12-1.46-18-1.88-4.87-.34-6.62-6.73-12.29-5.18-1.34.36-3.59-8.48-2.21-10.57,1.68-2.54,3.52-5.41,6-6.87,4.13-2.4,2-7.43,5-9.85,2.73-2.21,3.24-4.92,3.48-8.13.07-.82,2.34-1.55,3.66-2.19,5.26-2.54,10.69-4.78,15.66-7.89s10.67-.63,15.86-1.8c1-.23,2.36-2.51,2.17-3.6-.35-2-1.7-5.41-2.69-5.42-18.93-.33-37.87,0-56.8-.35-6.83-.11-14,1.92-20.47-1.91C489.65,1062.46,488.45,1055.52,491.16,1047.7ZM638.87,829.91c.7,0,1.68.28,2-.08a2.06,2.06,0,0,0,0-2c-1.1-1.56-2.45-3.51-4.12-.66-.22.38,1.33,1.8,11,7.56a41.24,41.24,0,0,0,5.4-.55,3.37,3.37,0,0,0,1.52-1.46c-.73-1-1.56-2.58-2.51-2.69-3-.35-6,.16-9-.22-2.31-.29-3.08.12-2.22,2.32a2.72,2.72,0,0,0,1.48,1.58C644.57,834.26,646.7,834.55,638.87,829.91Zm300-712.13c-.25-.52-.4-1.4-.76-1.5-2-.53-4.09-.76-6.09-1.3-2.24-.61-3,0-2.18,2.22a3.26,3.26,0,0,0,1.43,1.59c3.24,1.61,7.08,1-12.8-3.78,4.54,0,6.85-.29,9.06.08s3.28-.21,2.18-2.29a5.09,5.09,0,0,0-3.37-2.42c-4.32-.44-9.14,1.13-12.18-3.72-.13-.21-2.94.69-2.93,1,0,2.07-.11,5.33,1,6C914.64,115,917.8,114.9,938.84,117.78ZM745.79,778.35c-.71-8.68-.79-13.33-1.58-17.86-.37-2.16-1.71-1.66-3.27.1-5,5.6-11.54,2.21-17.44,2.71-7.25-6.5-16.74-9-25.12-13.47a37.15,37.15,0,0,1-9-6.57c-4.33-4.29-11.93-3.38-14.84-9.9-3.12-7-12.14-6.12-16.31-11.71-4.71-6.33-14.15-6-18.11-13.3-1.07-2-2.39-1.93-3.26.3-.54,1.35-1.16,3.6-.5,4.35,3,3.44,3.54,8.39,6.2,11.52,3.51,4.13,2.64,10.54,7.88,13.36.52,7.14,4.45,10.77,11.46,11.68,1,.14,2.2,2,2.68,3.27,2.89,7.7,7.67,14.2,11.92,21.11,4.48,7.3,9.32,13.91,15.6,19.3,7.78,6.68,7.66,17.78,14.76,24.7.08.08-1.9,2-2.64,3.23a28.6,28.6,0,0,0-1.71,4h4.72c.79,0,1.83.33,2.32,0,4.68-3.69,8.24-8.11,14.55-10.51,6-2.3,11.45-8.71,14.93-14.61,4.49-7.6,8.35-16.15-36.52,27.28v-2.11c-.7,0-1.6-.28-2.07.05-1.56,1.1-3.5,2.45-.65,4.11C700.18,829.57,701.59,828,745.79,778.35Zm14.12-442.62c2.72,2.72,3.69,4,5,4.86a20.46,20.46,0,0,0,3.95,1.67c0-2.32,1-5.56-.18-6.81a118.67,118.67,0,0,0-13.51-12c-.66-.52-3.53.29-3.89,1.14-.82,1.86-1.62,5.43-.8,6,3.48,2.49,7.56,4.15,20.89,87.4,5.06,0,8.28-.4,11.35.08,9.7,1.52,13.45-6.58,18.68-11.78,1.61-1.6.66-6,.55-9.06-.13-3.24.05-6.16,3-8.25,3.26-2.31,1.25-5.79,1.76-8.71.14-.77.34-2.05,0-2.29-6.59-4.33-4.42-11-4.69-17-.22-4.67-5.65-6.6-5.6-12.05,0-3.18-5.47-1-8.19-2-5.55-2-10.28-6.68-17-4.7-1.55.46-2.38,3-2.5,4.78-.19,3,1.81,4.44,3.55,5.64,7.93,5.49,6.71,13.29,5.38,20.93-.35,2-3.45,3.44-3.85,5.42-.65,3.23-.64,6.38-5.09,5.86-2.94-.34-6.15,1.29-8.77-1.7-3.12-3.54-6.19-7.45-10.09-9.9-5.19-3.25-3.58-9.89-8.18-13.35-7.81-5.88-12.86-13.26-10.73-23.9,1.41-7-8.17-11.61-4.92-19.41a26.41,26.41,0,0,0-5.43-2.67c-5.25-1.7-8.1,3.32-12.24,4.59-17.35,5.3-20.4,9.09-20.07,24.88.09,4.17,2.69,6.93,3.83,10.25,2.88,8.35,8.9,15.12,10.82,24,.7,3.24,5.59,5.37,7.87,8.52,6,8.34,15.56,12.11,23.21,18.32,1.75,1.42,3.39,3.28,5.42,4C750.4,412.48,760,421.94,759.91,335.73ZM948.72,766c0-2.36,0-4.72,0-7.07-.06-4.27-.5-4.91-4.8-2-3,2-5.73,1.89-8.69,1.88-3.84,0-5.61,1.53-5.47,5.44s-.35,7.9.12,11.77c.59,4.82-3,6.79-5.51,9.56-.53.58-1.09,1.53-1.67,1.55a2.2,2.2,0,0,1-1.59-1.51c-.35-6.19-.42-12.39-.9-18.56-.1-1.21-1.59-3.24-2.55-3.31-6.74-.48-14,1.42-19.26-4.89-11,0-22,.17-33-.09-3.54-.08-5.81,1.29-8,3.66-.32.34-2.52-.37-3.16-1.16-3-3.76-8.74-3.73-10.55-2.09-6,5.47-12.79,4.16-19.55,4.45-2.6.12-4.76,5-2.69,7.31,2.7,3,5,5.77,4.23,10.11-1.67,9.35,8.57,16.58,4.72,26.34q4.59,7.53,9.16,15.07c-2.55,7.5,5.35,12.24,5,19.14,7.05,5.66,11.63,12.26,9.68,22.06-.3,1.53,2.12,3.78,3.57,5.46,7.42,8.63,17.38,15,21.91,26.31,1.61,4,6.12,7.16,9.87,9.94,1.53,1.13,4.58.05,6.9.31,2.91.33,3.89-1.35,4.93-3.61,3-6.61,6-13.25,9.49-19.65,3.13-5.78,4.8-12.36,9.4-17.34-1.06-8,3.62-14.14,6.84-20.75,1-2,2.78-4.18,2.46-6-1.69-9.15,3.65-16,7.78-22.77,3.19-5.24-1.06-13.06,6.37-16.28.08-5.48-.8-11.18.48-16.36C945.63,777.35,950.76,772.68,948.72,766ZM926.93,541.11c6.28,0,12.6-.42,18.83.12,6.72.58,10.31-3.53,12.24-8.42,3.71-9.45,8.67-18.23,11.36-28.33,3.68-13.83,5-13.44-7.86-20.22-1.25-.65-2.73-1.64-3.18-2.82a6.79,6.79,0,0,1,.24-4.5c.8-2.07,2-2,3.29-.92a17.25,17.25,0,0,0,5.62,3.39c1.1.35,3.91-1.12,3.87-1.3-.91-4-5-6.85-3.89-11.9.39-1.69-1.26-4.18-2.56-5.84a32.39,32.39,0,0,0-6.64-6.64c-4.42-3.12-5.45-7.24-4.8-12.2.38-2.91-1.57-3.62-3.83-4.67A63.56,63.56,0,0,0,930.88,431c-3.15-6.5-10.68-.86-14.35-5-4.47-5.08-10.08-2.71-15.23-3.1-4.68-.35-9.64.83-14.07-.29-6.36-1.6-9.89,3.29-14.44,5.25-6.85,3-13.76,7.1-14,16.28-4.67,4-7.56,7.89-1.28,13.2,1.31,1.11,1.16,4.22,1.24,6.43.17,4.7.61,9.5-.09,14.11-.89,5.91,5.54,8.27,5.47,14.54-.06,5.94,3,12.88,8.36,17.48-.65,7.51,2.41,13.25,8.27,17.78,3.6,2.79,7,5.84,10.5,8.78,8-2.27,13.11,7.63,21.66,5C917.17,540,922.22,541.11,926.93,541.11ZM812.16,779.76c-7.79-2.51-4.75-8.85-5.69-13.9-.12-.64-1.18-1.7-1.59-1.6-7.37,1.65-12.38-5.12-19.12-5.31-5.41-.15-10.62.61-14.88-4.55-1.28-1.55-6-.41-9.16-.09-.57.06-1.61,2.37-1.28,3.14.87,2,3.32,3.68,3.46,5.61.46,6.27-1.2,13,.55,18.79,1.84,6.1,4.29,12.54,9,17.58.76.82.62,3.46-.14,4.48-1.87,2.51-4.34,4.55-6.57,6.78L760,817.38c-2.23,2.23-4.36,4.58-6.72,6.66-2.78,2.46-4.63,5.84-9.35,6.18-2.47.18-4.93,3.4-7,5.61a11.79,11.79,0,0,1-8,3.8c-2.81.33-4,5.75-2,7.49,2.82,2.41,5,5.24,9,6.86a154.35,154.35,0,0,1,15.74,7.8c4.82,2.64,11,3.05,16.6,5.5,3.89,1.7,6.69,7.39,12,5.18,6.46-2.72,8.3,7.47,14.63,4.83,5.45-2.28,7.31,5.53,12.21,4.65,5.17-.93,8.3,2.74,12.37,4.46,3.92,1.64,8.93-.47,12.7,4,1.4,1.66,5.81.93,8.86,1a3.91,3.91,0,0,0,3.52-4.88c-.5-1.37-1.17-2.67-1.8-4-2.54-5.25-4.85-10.64-7.72-15.71a41.43,41.43,0,0,1-5.16-14.56c-.85-5.37-5.76-10.09-8.8-15.15a3.72,3.72,0,0,1-.15-2.28c1.45-9.73-3.32-17.39-8.27-25-2-3-1.84-5.68.88-8.08,1.86-1.63,2.45-2.79.4-5.15-1.81-2.09-1.64-6.16-3.63-7.77C805.47,785,808.25,782.83,812.16,779.76Zm-84.1-599c-2.47,7-4,13.65.86,19.58,4,4.89-.93,13,6.56,16.24.06,7.86.24,15.71,0,23.56,0,.92-2,2.24-3.32,2.54s-3.8.1-4.24-.71c-2.42-4.47-6.35-9.33-6.06-13.81.53-8.19-3.51-14.5-6-21.39-1.7-4.75-6-8.53-8-13.23s.87-11.09-5.18-14.4c-.33-5.29.79-11-4.88-14.64-.71-.46-.68-4,0-4.41,5.78-3.42,3.89-11.89,10-14.86,1.95-.95,5.76-2.22,6.09-1.69,3.17,5.06,9.92,3.68,13.45,8,3,3.64,6.13,8.64,10.07,9.64,5.85,1.49,8.58,6.28,13.1,8.54,5.51,2.77,10.48,5.7,14.78,10.14,1.16,1.21,4.23,1.22,6.23.82,2.53-.51,3.13-4.43.4-7.81a12.79,12.79,0,0,1-3.32-8.2c-.21-5.29,1.87-10.87-1.52-15.86-6,1.39-8.37-5.81-14.29-5.79-3.11,0-5.24-5.91-9.84-4.34-5.58,1.91-7.43-5.39-12.23-4.72-5.1.71-8.36-2.23-12.42-4.45-3.59-2-8.7.46-12.77-3.76-1.85-1.92-7.39-1.48-10.74-.43-4,1.25-7.53,4.28-11.26,6.53,3.53,7.69-5.76,12.21-4.76,19.32,1.36,9.63-3.46,20.27,4.76,28.77,0,5.51,1,11.27-.25,16.49-1.71,7.08,7.54,10.05,5,17-2.06,5.81,3.7,9.71,4.36,14.6s7.06,6.71,5,12.18a32,32,0,0,0,21,11.79c8.55,1,17.31.23,26,.23,2.37,0,5.45,1,7-.17,5.39-4,11.76-6,17.5-9.26.61-.35,1.84.08,2.17-.34a8.74,8.74,0,0,0,2.1-3.81c.34-2.32-.35-4.82.17-7.06,1.87-8.07,2.07-8.12-.2-10.22-7.24-6.71-13.9-13.7-22.81-18.89C742.05,197.58,735.84,188.56,728.06,180.79ZM818.85,616.3c-3.83,4.36-2.79,7.65-2.6,10.58.58,8.94-3,18.7,4.64,26.4-.21,4.63,1,10-1,13.72-2.45,4.55-7.07,10-11.62,11-11.41,2.43-22.55,0-31.72-8.31-4.14-3.72-3.43-6.8.41-11.6,2.88-3.6,7.54-1.89,9.87-4.9,2.73-3.54,4.1-2,6.89.18,4.07,3.17,8.06,1.36,8.22-2.91.42-11.21.15-12.18-8-29.76-.61-1.31-1.44-2.76-1.38-4.12.36-8.13-4-14.53-8.87-19.87a45.34,45.34,0,0,1-9.74-17.3c-1.33-4.33-7.2-6.6-5.13-12.09-3.31-3.35-6.78-6.56-9.87-10.11-1.51-1.74-2.31-2.18-3.4-.4a4.6,4.6,0,0,0-.9,2q-.07,18.9,0,37.8c0,1.48-.11,3.62.75,4.33,3.36,2.76,4.21,6.07,4,10.25-.29,7.07-.08,14.17-.08,21.26,0,7.87.41,15.78-.13,23.61-.48,7.13,8,11.67,4.94,19.34-.54,1.36-.73,3.63,0,4.61,2.87,3.64,6.36,6.79,9.32,10.37,2.41,2.93,5.51,2.29,8.52,2.3q26,0,52,0c6.3,0,12.61.29,18.89-.08,5.9-.36,9.91-7.12,17-4.89,2.47.77,4.49-5.07,2.61-7.3-6.84-8.13-15.78-14.05-20.52-24.56-3.32-7.37-12.94-11.87-16.44-19.22C831.61,628.24,823.75,624.44,818.85,616.3Zm-225.22,0a50.8,50.8,0,0,0,0-7.09c-.85-5.91,3.82-9.29,7.36-10.78s8.86-2,12.75,2.77c5,6.06,11.67,10.76,16.4,17,5.37,7,14.61,8.14,20,14.84,3.45,4.26,7.13,10,11.75,11.26,6.76,1.82,10,6.75,14.68,10.47.48.38,1.53,0,2.32,0s2,.3,2.27-.08c.71-.92,1.69-2.81,1.34-3.19-5.84-6.32-11.86-12.48-17.84-18.67,1-5.88-4.48-7.66-7.13-11.23S650.83,616,650,610.39c-.6-3.81-5.72-7.11-9.19-10.22-9.07-8.16-15.7-19.28-28.09-23.45L584.25,548.3a9.32,9.32,0,0,0-1.7-1.63c-.41-.23-1.47-.15-1.58.1-.63,1.31-1.78,3-1.41,4,1.22,3.41,4.5,6.74,4.24,9.88a20.13,20.13,0,0,1-5.33,11.73c-3.87,3.87-1,5.29.13,8.72,1.82,5.71.75,12.36.82,18.62.06,5.51-.77,11.17.22,16.51,1.06,5.71,6,10.09,4.82,17-.84,5-2.71,11.71,1.5,15.58,3.49,3.22,9.91,3.1,13.83,6.05,6,4.51,13.67,6.09,18.69,12.45,4.12,5.21,8.34,11.35,16.24,11.86,4.23,5.65,10.29,8.81,16.46,11.63,6.67,3,13.48,5.73,19.53,10,.57.4,2.84-.37,3.13-1.08a6.39,6.39,0,0,0,.14-4.55c-.52-1.16-2.3-2.58-3.41-2.49a8.84,8.84,0,0,1-9.07-6.08c-2.28-8.08-8.53-12.53-13.73-18-4.89-5.13-10.17-9.9-15-15.12-4.19-4.54-9.48-7.14-14.61-10.3-5.88-3.62-10.19-9.75-15.29-14.69-1-1-2.49-2.1-3.78-2.13-3.79-.07-5.74-1.51-5.5-5.46C593.71,619.41,593.63,617.83,593.63,616.25ZM725.78,441.69c-4.88,0-8.81-.08-12.74,0-1.45,0-3.43.07-4.25,1-5,5.48-12.1,9.25-11.33,19,.58,7.38,1.59,13.34,7.6,18.29,3.33,2.74,6.37,5.63,7.52,11.06,1,4.52,6.5,9.12,11.13,11.47,3.26,1.65,6.46,3.59,9.7,5,2.86,1.24,7.81,2.33,10.89-1.16,4.14-4.69,8.22-4.45,11.34.46,4.14,6.53,10.24,6.22,16.5,5.86,5.46-.31,15.41-9.75,15.56-14.89.19-7.07.27-14.16-.05-21.22-.16-3.59,2.06-5.41,3.72-8,2.63-4.05,1.69-6.21-3.66-7.82-4.89-1.48-8.41-7.11-14.51-4.87-4.6-3.77-11.25-3.84-15.35-8.53a2.54,2.54,0,0,0-1.94-.88C744.91,448.92,735.84,439,725.78,441.69ZM665.93,806.24c1.57,0,3.24.34,4.67-.1a5.71,5.71,0,0,0,3.38-2.56c.56-1.29.65-3.94-.1-4.44-6.67-4.48-7.4-13.4-13.3-18-6.89-5.38-9-14.17-15.05-19.58-4.36-3.89-3.48-10-8-13.34-3.71-2.74-5.56-6.56-7-11.2s-8.1-6.18-8.85-12.86c-.64-5.62-9.82-7.29-9.35-14.95.09-1.56-3.05-3.32-4.71-5-3.88-3.88-7.75-7.76-11.65-11.61-.85-.83-6.32.59-6.32,1.65,0,5.27-1.85,11.87.64,15.46,3.06,4.42,3.27,8.34,3.33,12.86.08,6.26,0,12.53,0,18.8,6.86,6,5.36,14.26,4.45,21.52-1,8.18,8.46,13.3,5,21.58,2.9,7.12,10.15,8.63,16,3.34,1.16-1.05,2.25-2.19,3.33-3.33,2.51-2.64,5.33-3,8-.54a83.8,83.8,0,0,1,9.92,10c3,3.9,8.81,2,11.56,6.49C655,805.54,660.15,807,665.93,806.24Zm74.18-144h.29c0-7.1.51-14.25-.14-21.29-.67-7.35,3.72-16-4.59-21.72,0-6.31-.43-12.66.11-18.93.56-6.45-6.88-10.09-5-17,1-3.68.34-7.85.13-11.79-.36-6.73-6.94-11.78-5.27-19.11-4.92-3.72-10.73-2.14-15.79-1.5-6.81.86-11.41-3.72-17.07-4.65-4.79-.79-8.28-2.73-12.35-4.76-3.72-1.86-9.41,1-12.59-4.07-.08-.14-2.73.67-3,1.47-.51,1.38-.74,3.87,0,4.5,1.61,1.31,4.39,1.22,5.93,2.57,7,6.12,12.85,14.45,20.88,18.36,9.66,4.71,15.33,12.83,22.5,19.62,3.52,3.33,5.5,8.68,7.1,13.48.85,2.56-.2,6-1.11,8.85-1.59,4.93-2.16,5.43-.13,6.61,5.86,3.41,5,11,9.88,15,.25.2-1.09,3.11-1.32,3.06-6-1.32-8,4.1-11.44,6.88-4.45,3.56-7.72,3.74-14.49.44-1.32-.65-2.59-2.42-3.7-2.27a10.81,10.81,0,0,0-5.73,2.62c-.74.69-.66,3.55.15,4.41,5.95,6.31,11.56,13.2,18.48,18.27,7.28,5.34,8.7,14.29,14.85,20.08,4.39,4.13,9.48,7.93,10.15,14.72,0,.34,1.2.94,1.58.79.67-.28,1.63-1,1.63-1.6C740.14,684.26,740.11,673.25,740.11,662.24Zm151.8,276.42c-.59-1.33-1.41-3.87-1.74-3.81-6,1.16-8.86-4.89-14.21-6.08-4.56-1-8-7-12-10.77s-8.23-4.48-14.33-.57c-3.82,2.44-6.33,3.45-9.94.16-1.51-1.36-4.1-2.55-6-2.3-6.72.91-10.33-5.89-16.44-6.1-3.31-7.22-12.58,0-16.12-6.66-6.39-1.56-11.31-6.21-18.57-6.87-6-.55-11.47-6-17.43-8.79-1.94-.91-4.7-.43-7,0a5.24,5.24,0,0,0-3.46,2.48c-.58,1.28-.67,3.5.09,4.52a57.3,57.3,0,0,0,6.56,6.76c4.52,4.32,9.51,8.31,7.57,15.85-.23.86,1.54,3.2,2.5,3.27,10.08.73,12.63,10.91,19.68,15.31,6.21,3.89,12,9.56,20,8.37,8.82-1.3,19,4.55,26.38-4.6,9.54,1.75,20.39-4.41,28.72,4.74,3.65-.7,7.85,1.69,11-1.94,4.3-5,7.91-3,11.51,1,.21.24,2.19-.83,3.06-1.62C892.23,940.6,891.9,939.45,891.91,938.66ZM695,1076.1c-22,0-44,.27-66-.17-6.44-.12-9.78,7.7-17,5.25-1.61-.54-5.2,2.85-7,5.14-2.62,3.41-6.34,3.72-9.82,5-.55.19-1.29,1.19-1.17,1.59.2.66,1,1.58,1.58,1.62,3.85.3,7.72.49,11.58.54,6.29.08,12.58,0,18.87,0h18.86c6.29,0,12.58.12,18.87,0s12.31-.59,18.47-.91c5.67-8.66,10.26.1,15.34.93.77.13,2,.34,2.29,0,4.33-6.5,11-4.63,17-4.65,25.94-.08,51.89-.2,77.82.12,4.62,0,7.25-2,9.76-5a6.78,6.78,0,0,0,1.19-3.31c0-.37-1.11-1.25-1.71-1.26-10.22-.08-20.6,1-30.6-.48-5.53-.83-10.36-5.25-17-4.49-7,.81-14.13.18-21.2.18H695ZM910.84,726.35c0-2.37-.35-4.8.07-7.09,1.16-6.41-3.21-6.52-7.49-8.73-3.92-2-5.82-3.7-8.6.47-7,.19-14.19,1.32-21,.31-8.22-1.22-13.41,8.39-21.74,5-22.87,0-45.74-.09-68.62.08-4.9,0-9.11-.29-12.46-4.63-.69-.9-4.42-1-6.24,1.44-1.39,1.89-3.46,3.25-4.92,5.1-1.9,2.4.19,8,2.62,7.25,7.13-2.28,11.11,4.6,17.05,4.9,6.29.31,12.63-.19,18.92.16,4.26.23,7-1.61,10.27-4.06,3.91-2.94,6.55,2.61,9.67,3.33,6,1.37,12.46.55,18.74.64,5.07,7.2,12.64,4.5,19.33,4.66,11.83.27,23.67.33,35.49,0,5.05-.16,8.78,1.15,12.38,4.72,1.93,1.9,6.51-1.16,6.56-4C910.88,732.66,910.84,729.5,910.84,726.35Zm-57.2-346.21c3.13,0,6.44.66,9.34-.14,5.61-1.55,10-6.4,16.92-5,1.71.36,4.4-3.91,6.62-6.09,5-4.9,5.22-5.08,4.07-6.58a19.52,19.52,0,0,0-5-4.92c-2.44-1.49-5.83-1.68-7.86-3.5-5.82-5.2-10.93-11.2-16.75-16.39-6.12-5.47-10.07-13.82-19.54-15.13-.71-.1-1.5-2.49-1.57-3.86-.21-3.89.06-7.82-.22-11.7,0-.6-2.82-1.7-3-1.49-2.31,2.86-6.69,4.28-6.36,9.05.53,7.41-2.1,15.49,4.76,21.49,0,7.82.35,15.65-.12,23.44-.34,5.68,2.29,9.81,4.36,14.67,1.78,4.16,2.44,6.66,7.28,6.16A68.66,68.66,0,0,1,853.64,380.14Zm-9.58,151.5c3.12,0,6.25,0,9.37,0,4.42-.07,7.61-4.72,4.64-7.32-3.81-3.33-2.81-8.71-6.42-11.52-4.56-3.53,0-9.69-3.37-12.57-4.4-3.77-3.46-8.14-3.75-12.65-.61-9.31-1.44-9.56-12.88-8.15-3.53.44-7.08.47-10.89-1.95-7.2-4.57-9.29-3.1-9.34,4.65,0,5.47,0,10.94,0,16.4,0,3.91,1.59,9.29-.36,11.39-3.31,3.59-3.83,8-6.12,11.72-2.6,4.24-2.23,5.24,1.24,5.26,7,.05,14.06,0,21.09,0C831.63,532.88,838.06,531.49,844.06,531.64Zm12.25-284.07c-3.51,0-5.91-.28-8.19.12a5.17,5.17,0,0,0-3.42,2.5,5.51,5.51,0,0,0,.09,4.52,17.58,17.58,0,0,0,4.91,5c4.25,2.9,9.33,4,13.2,8.16s10.21,5.34,15.33,8.1c4.49,2.4,9.06,4.64,13.55,7,1.3.69,2.44,2.28,3.7,2.34,5.48.26,12.18,2.08,16.17-.37,5.48-3.37,11.13-3.66,16.69-5.4,2-.63,3.41-3.13,5-4.85.37-.39.73-1.23.55-1.61a3,3,0,0,0-1.61-1.64c-7.3-1.63-14.94,2.15-22.35-3-5.83-4.07-13.72-5.41-19.07-10.37-4.25-3.93-8.19-6.66-14.17-5.8C869,253.39,863.47,244.05,856.31,247.57Zm-40.16,46.37c0-5.47.2-10.95-.1-16.4a10,10,0,0,0-2.19-6c-6.29-6.48-12-13.71-21.11-16.83-2-.69-3.58-2.66-5,.06-3.48,6.76-11.9,6.23-16.41,11.49-3.08,3.59-2.19,4.91,2.16,5,.78,0,1.89-.33,2.29.06,6.7,6.54,13.77,12.8,19.76,19.95,3.12,3.73,4.12,9.18,6.45,13.65A23.86,23.86,0,0,0,807.4,312c1.52,1.28,4.09,1.71,6.19,1.7.86,0,2.39-2.11,2.44-3.32C816.3,304.88,816.15,299.41,816.15,293.94Zm24.65-70c1.57,0,3.15,0,4.73,0,2.69-.07,17.6-5.91,17.85-7.49,1.1-6.74-5.31-8.87-8.56-12.92-2-2.45-4.87-4.2-6.55-6.79-4-6.16-8.89-12-8.48-20.14a77.44,77.44,0,0,0-.14-11.8c-.09-.91-2.45-2.4-3.54-2.22-2,.31-5.39,1.5-5.5,2.61-.69,6.73,1.31,14-5,19.3.56,3.67-1.61,7.95,2.23,10.89s2.42,7.11,2.41,10.8c0,3.21.08,11.57,0,12.63-.21,2.77,1,4.57,3.46,5.05C836,224.26,838.43,223.9,840.8,223.9ZM641,301a27.61,27.61,0,0,0-2.44-6.05c-5.28-8.52-8-17.48-7.14-27.66.58-7,.18-14.1.06-21.15,0-2.22.14-5.76-1.05-6.43-6.37-3.56-1.13-10.93-4.94-14.48-5.69-5.3-2.3-11.7-3.66-17.42-.31-1.31-3.46-2.35-5.44-2.69-1.09-.18-3.4,1.21-3.55,2.15-.48,3.05-1.54,7.71,0,9.07,4.85,4.29,4.22,9.36,4.64,14.75.63,8.09-3.77,17.29,4.59,23.91,0,4.7.86,9.61-.21,14.05-1.52,6.31,7.3,8.08,5.07,14.59-2.95,8.64,7.13,14.89,5.31,23.67-.07.32,2.39,1.42,3.77,1.75,2.76.67,4.21-1,5-3.39C641.17,305,641,304.12,641,301Zm196.28,751.42c4.71,0,9.47.37,14.09-.26,1.12-.16,2.22-3.55,2.51-5.56.15-1.09-1.41-3.45-2.26-3.49-7.05-.28-14.26-1-21.14.07-8.19,1.31-13-7.34-21.68-5.29-8.34,2-17.24,1.13-22.37-8a3.06,3.06,0,0,0-1.87-1.06,3.94,3.94,0,0,0-2.33,0c-3.31,1.49-6.41,3.67-9.86,4.54-3.64.93-7.6.6-11.4,1-.57.05-1.5,1.1-1.44,1.58s1.09,1.67,1.54,1.59c7.22-1.21,12.41,4.46,19,5.48s14.28-3.08,19.32,4.47l18.72.25C823.22,1054.29,830.57,1052,837.26,1052.43ZM726.58,948.27c4.67,0,9.34-.12,14,.05,2.89.1,4.55-1.44,4.38-3.88-.12-1.93-1.31-5.06-2.66-5.44-18.12-5.17-20.09-6.15-35.14-16.72-4.1-2.88-8.81-4.95-13.41-7-1-.46-2.8.5-4.14,1-.45.18-1,1.28-.86,1.56,2.94,5,6.09,9.92,9,15,.69,1.2,0,3.4.87,4.25,5.82,5.84,10.52,13.88,21,11.28C721.8,947.81,724.25,948.27,726.58,948.27Zm-28,85.22c6.12,2.51,8.9-5,14.45-4.82a84.54,84.54,0,0,0,16.15-.77c1.88-.29,3.24-3.26,5.06-4.72s1.81-2.75-.43-3.25c-2.95-.66-7.45-1.84-8.92-.4-5.8,5.74-12.69,4.36-19.43,4.47-6.27.1-12.86,1.21-18.69-.39-4-1.09-6.9-5.76-10.3.41-4.38-.58-9.45,1.9-12.84-3.23-.64-1-2.6-1.27-4-1.45-2.82-.35-4.56,1.41-4.27,3.94.22,1.91,1.72,5.14,2.85,5.23,6.23.52,12.74,1.27,18.73,0,7.05-1.52,11.23,3.64,16.91,5A22,22,0,0,0,698.56,1033.49ZM871.34,309c-1.32,1.46-2.92,2.4-3,3.44-.17,3-.94,7.31.69,9,8.53,8.65,16,18.64,27.75,23.72,3,1.29,5.26,2.88,8.11.68,2.19-1.71,1.72-5.29-1-8-5-5-10.16-9.85-14.94-15.05C883.82,317.07,874.6,317,871.34,309ZM711.87,415.52q-5-5-10-10c-3.9-3.9-8-7.61-11.64-11.76-2.89-3.32-2-9.05-6.76-11.34a9.79,9.79,0,0,0-3.34-1c-.36,0-1.14,1.11-1.18,1.75-.14,2.36-.84,5.09.08,7,4,8.6,8.6,16.72,10.76,26.37,1.74,7.78,12,8.37,19,2.33A39.12,39.12,0,0,0,711.87,415.52ZM849.06,610c-5-2.49-2.34-10.15-8.24-12.14-2-.67-5.51-1.89-5.47-2.7.37-6.82-7.09-8.37-8.65-13.07-3.94-11.89-14.82-17.48-22-26.33a3.21,3.21,0,0,0-1.58.82c-.5.51-1.2,1.35-1.07,1.85.57,2.11.93,4.54,2.25,6.11a60.31,60.31,0,0,0,10,10c4.67,3.43,5.85,8.58,8.33,13.18,5.58,10.34,12.7,18.73,20.21,24.35a2.85,2.85,0,0,0,2.31,0A38.79,38.79,0,0,0,849.06,610Zm-9-473.84c2.6,4,7,2.86,10.4,2.31,5.35-.85,8.07,3.24,12.07,4.81a4.86,4.86,0,0,0,4.17-.83,122.32,122.32,0,0,0,9.84-9.88c.39-.42-.89-3.07-.94-3.06-5.37,1.51-7.52-6-11.89-4.8-4.19,1.13-5.77-9.14-10.79-1.68-2.54,3.78-6.44,6.66-9.73,10C842,134.1,839.84,135.91,840,136.18Zm85,75.89c-3.12-3.12-5.71-7.52-9.48-9.09-6.45-2.69-11.34-6.85-16-11.63a2.7,2.7,0,0,0-2-.54c-1.42.18-3.63.21-4.05,1-.93,1.83-2,5.07-1.15,6.06,5.1,5.78,10.74,11.07,16.19,16.52,4.53-1.21,6.86,2.11,9.57,4.64ZM522.55,995.62c3.87,0,7.76.15,11.61-.14.72-.06,1.46-1.87,1.83-3,.12-.32-1-1.55-1.54-1.53-5.4.19-10.38.33-14.59-4.57-1.32-1.54-6.11-.84-8.94,0-1.29.39-2.11,3.64-2.34,5.69-.12,1.07,1.41,3.25,2.36,3.35C514.77,995.84,518.67,995.62,522.55,995.62ZM912.28,654.73c-1.46.2-3.22-.05-4.29.7a4.7,4.7,0,0,0-1.77,3.73c.79,5.08,5.92,9.81,10.45,9.67,1.23,0,3.18-1.23,3.52-2.3C922.55,659,919.48,654.56,912.28,654.73ZM972.39,186c-1.34-5.16-6.29-9.63-10.77-9.28a4.61,4.61,0,0,0-3.32,2.46c-1.47,4.49,2.17,6.69,4.7,9.41,2.37,2.54,5,3.1,7.81,1.25C971.77,189.15,971.89,187.26,972.39,186ZM738,725.75a13.82,13.82,0,0,1-2.32,0c-2.88-.48-4.19,1.23-4.74,3.61-.78,3.32,1.21,5.71,4.74,5.87,1.55.07,3.12-.16,4.64,0,2.9.4,4.19-1.24,4.75-3.62.78-3.32-1.22-5.69-4.75-5.88C739.58,725.72,738.81,725.75,738,725.75ZM842.27,550.58c-.56,1-1.84,2.74-1.57,3,3,3.35,6.42,6.37,9.42,9.74,1.41,1.58,2.34,1.81,3.2-.32.52-1.29,1.18-3.3.58-4.14a49.39,49.39,0,0,0-7.21-8.2C845.86,550,843.78,550.58,842.27,550.58Zm92.59,75.11c-.43-2.84-.41-5.18-1.25-7.14-.4-.93-2.45-1.56-3.76-1.57a5.32,5.32,0,0,0-3.87,1.47c-2.08,2.75,2.86,12.75,6.19,12.27C933.36,630.55,934.1,627.22,934.86,625.69ZM751.09,290.18a6,6,0,0,0-2.34.06,31.59,31.59,0,0,0-3.62,2.31c.54.54,1,1.31,1.64,1.58,4.54,1.9,9.12,3.74,13.73,5.47.5.18,1.32-.4,2-.71,2.17-1.05,1.84-1.77.07-3.3C759.14,292.65,756.43,288.66,751.09,290.18Zm71-124.25-8.31-8.31q-3.33,3.34-6.68,6.68c2.51,2.23,4.76,5.69,7.6,6.28C816.76,171,819.6,167.62,822.09,165.93ZM603.1,271.2c0-2.32.11-4.65-.07-7,0-.59-1.14-1.67-1.48-1.57-1.13.32-3,1-3,1.66-.27,4.63-.2,9.29-.07,13.93,0,.57,1.13,1.66,1.48,1.57,1.12-.32,2.9-.94,3-1.69A40.09,40.09,0,0,0,603.1,271.2ZM608.41,302c-.75-2.21-1.4-4.26-2.19-6.26a1.78,1.78,0,0,0-1.53,0c-2.24,2.55-2.24,10,0,12.5a1.78,1.78,0,0,0,1.53,0C607,306.28,607.66,304.23,608.41,302Zm330.73,274.7c-1.51-1.58-3.11-3.09-4.52-4.77-1.66-2-3.43-2.57-4.74,0a6.18,6.18,0,0,0,0,4.46c1,2.57,4.86,3.47,7.58,2A9.07,9.07,0,0,0,939.14,576.72ZM581.91,995.62a30.79,30.79,0,0,0,4.61-.08c.61-.09,1.65-1.19,1.54-1.52-.35-1.12-1-2.92-1.78-3a57.78,57.78,0,0,0-9.21-.06c-.57,0-1.65,1.19-1.54,1.52.35,1.12.93,2.67,1.81,3C578.69,996,580.37,995.62,581.91,995.62Zm45-4.74c-2.85,0-4.47-.3-5.9.09s-2.45,1.49-3.67,2.28c1.22.79,2.35,2,3.66,2.26a21,21,0,0,0,6.89,0c1.31-.22,2.45-1.47,3.66-2.26Zm14.48-662.24-2.74-5.31c-.79,1.95-2,3.87-2.21,5.89-.12,1.1,1.42,2.38,2.21,3.57ZM664,834.32c-1,1-3.34,2.61-3.1,3.37.81,2.56,5.84,2.54,7.61.16.27-.36.3-1.42.11-1.53C667.36,835.66,666,835.18,664,834.32ZM989,463.25c-1.18,4-2.16,6-2.22,8,0,1.18,1.43,2.39,2.22,3.59.79-1.2,2.25-2.42,2.22-3.59C991.12,469.21,990.13,467.21,989,463.25ZM544.6,994.93l1.69-1.68a14.74,14.74,0,0,0-3.18-1.48c-.39-.09-1,1-1.56,1.48Zm24.68-1-1.69-3c-.52.53-1.56,1.17-1.48,1.56a15.47,15.47,0,0,0,1.48,3.18Z"/><path d="M418.24,612.27c25.54,80.25,23.82,76.62,21.25,75.85-8.87-2.68-16.49-6.86-22.89-13.62-1-1-5.42-.71-6,.31-2.56,4.37-5.78,9.14-6.05,13.92-.78,14.16-.45,28.39-.1,42.58.06,2.41,3.2,4.7,3.41,7.18.15,1.71-3.17,3.54-3.4,5.49a16.33,16.33,0,0,0,2.32,10.83c4,6.82,4.77,15-2.67,20.56-5.34,4-4.41,11.16-9.8,15.11-5.1,3.73-13.62,10.15-21.54,10.69-5.7.38-8.11,7.22-14.65,5.3-4.29-1.27-9.42-1.07-12.48,3.87-.29.46-1.35.6-2.06.61-4.74,0-9.51.42-14.19-.08-5.14-.55-6.78,6.39-12.27,4.91-6.41-1.73-10.05,6.21-17,4.9-6.1-1.14-12.59,0-18.89-.32-2.93-.13-6.35,1.6-8.79-1.55-3.26-4.23-10.34-6.73-9.82-12.31.71-7.52-7.08-11.93-5.33-19.43.36-1.53-2-3.78-3.27-5.59-2.09-3-1.78-5.58.8-8.14.88-.88,2.14-2.91,1.87-3.2-8-8.89-2.34-19.53-3.9-29.2-1.18-7.35,2.84-15.57-4.19-22-1.22-1.13-.53-4.46-.54-6.77,0-10.25-1.32-20.73.37-30.7,1.46-8.63-6.42-13.68-5.32-21.8.94-7,.59-14.21,0-21.25-.23-2.67-5.66-3.77-4.43-7.49,2.09-6.31-4.5-9.31-4.91-14.64-.39-5.16,1.76-10.52-3.49-15.25-3.64-3.28,1.15-10.84-5.1-14.47-1.16-.67-.67-4.32-.78-6.6s0-4.73-.07-7.09a2.5,2.5,0,0,0-1-1.9c-7.39-3.32-.35-12.45-6.61-16.32a4.91,4.91,0,0,1-1.73-3.89c.43-5-.52-9.15-5-12.21-7.33-5-4.2-12.49-4-19.18,0-1.56,7.34-6.65,9-6.65q18.94,0,37.87,0c7.09,0,14.19,0,21.28-.05,3.41-8.2,13.88-1.33,17.83-8.37,6-1.45,12.34-2.85,17.43,1.4,4.34,3.62,8.9,2.13,13.31,2.16,6.66,0,13.62-8.94,10.19-14.55-4.88-8-4.23-16-4.35-24.3-.07-4.73,0-9.47,0-14.2-.07-8-.09-8-9.58-8.37-10.16-.36-14.49-3.68-13.76-13.72.55-7.5-6.6-11.86-5.28-19.4,1.07-6.12.22-12.58.22-18.89,0-7.1-.42-14.24.12-21.29.5-6.45-6.44-10.13-5.07-17,1.06-5.31.24-11,.2-16.52,0-6.28-.1-12.56-.29-18.84,0-.57-1.43-1.67-1.54-1.59-1,.73-2.77,1.67-2.77,2.55-.15,22.09-.1,44.18-.14,66.27,0,6-.41,6.32-6.82,6.37-5.52.05-11,0-16.57,0-4.59,0-7.31,4.26-4,7.68,6.73,6.94,2.42,14.89,3.74,22.24-4.4,4.23-8.76,8.49-13.23,12.63a2.37,2.37,0,0,1-2.28,0c-6.37-5.34-14-9.52-13.06-20.07.78-8.61.42-17.35.07-26-.24-5.92,2.26-12.36-3.86-17.47-1.63-1.35-.74-5.89-.76-9-.07-9.47-1.31-19.17.33-28.34s-7.1-15-5.38-24.19c1.43-7.62.29-15.72.29-23.61-9.71-5.07-.52-16.54-7.82-23-2.12-1.87-1.08-7.23-1.67-11-.83-5.24,2.63-11.44-2.06-15.62-4.41-3.93-.43-9.84-3.44-12.73-4.07-3.9-4.66-8.16-3.82-12.68,1.79-9.67-6.27-16.83-6-26-6.68-3.09-1-10.72-5.11-14.38s-2.79-10.44-8-13.33c1.29-5.93-6.72-8.4-5.33-14.36-6.62-6-6.42-11.93.09-17.84,0-5.5,2-8.64,8.29-7.68,5.44.83,10.76,4.34,10.92,9.64.16,5,2.93,8.32,4.55,12.4,2.37,6,7.24,11.64,5.79,18.91,6.9,5.38,3.56,13,3.92,19.61.26,4.76,3.8,6.46,6.15,9.34a1.86,1.86,0,0,0,1.61.61c.67-.31,1.68-1.09,1.63-1.59-.77-8.14,3.89-17.29-4.43-24.07-.38-.32,0-1.53-.06-2.31-.81-7.62,2.66-16.09-2-22.77s-1.36-13.62-2.86-20.21c-.46-2-2.72-3.58-3.54-5.6-3.61-8.91,1.81-17.36,11.13-17.54,3.11,0,6.85-.86,9.17.54,2,1.22,1.86,5.57,3.67,7.66,2.49,2.87,4.13,7.54,10.27,2.24,4.74-4.09,13.64-.62,15.46,5.25,1.94,6.29,8.63,11.21,6,18.83-2.82,8.24,5.38,13.9,4.85,21.71-.47,7.07-.1,14.2-.1,21.3,8.52,7.57,3.61,17.57,4.58,26.46.51,4.74,6.32,6.56,5.16,12.27-.69,3.38-2.23,8.11,1.62,11,4.83,3.55.55,10.17,3.53,12.6,7,5.72,2.14,13.36,4.82,19.49.29.65,1.12,1.54,1.63,1.5s1.6-1,1.61-1.56c.3-18.05,1.42-36.16.27-54.13-.45-7.06-5.46-13.7-4.46-21.76.87-7,.18-14.18.18-21.28,0-7.89-.87-15.9.25-23.63,1.09-7.54-6.42-11.87-5.22-19.41,1.11-6.93.24-14.17.24-21.27-7.36-5-4.36-12.65-4.66-19.34-.33-7.08-.18-14.2,0-21.3.08-4.07,6.56-9.11,11.47-9.22,5.15-.11,11.65,4.42,12.14,8.57.18,1.56-.19,3.19.07,4.72.87,5.16-2.35,10.81,2.59,15.53,4.63,4.43.6,10.63,2.29,15.59,1.14,3.36,5.75,5.22,4.72,10-.11.54,2.16,2,3.5,2.34s3.13,0,4.71.11c4.61.26,10.56-1.06,13.48,1.31,3.52,2.88,5,8.76,6.41,13.62,1.58,5.41,3.22,3.29,5.71.91,1-.93,2.85-1.84,4-1.53,7.44,2,11.9-5.66,19.39-5.15,14.92,1,30,.36,44.95.25,4.5,0,8.44-.43,13-3.12,4.72-2.79,12-1.57,18.18-1.44,3.63.08,12.53,10.68,13.29,14.82,1.07,5.82-3.44,13.47-9.6,13.07-6.91-.46-10.58,5.89-16.84,5.6-.53,0-1.11,1-1.67,1.6,1,.88,2.41,2.74,3,2.51,7-2.8,11,4.6,17,4.88,5.27.25,11.18-1.67,14.78,4.32,5.46.14,10.93.16,16.39.46,3,.16,7.4-.28,8.66,1.42,3.14,4.21,9.36,1.79,11.71,6.49.85,1.71,5,2.89,2.61,4.82-4.43,3.64-2.45,11.08-8.24,13.2-6.18,2.26-11,7.48-18.34,7.26-11.83-.36-23.67-.15-35.5,0-.79,0-1.66,1.79-2.23,2.89-.11.21,1.1,1.6,1.57,1.54,6.4-.85,10.28,5.28,16.93,5.49,5.35.17,10.35,4.79,17,4.47,6.47-.3,11.84,6.14,19,5.36.39,0,1.13,2.51,1.59,3.89,2.23,6.78-5.54,10.52-5.25,16.83,0,.61-2.67,2.18-3.67,1.88-6.16-1.87-9.58,4.24-14.66,4.75-5.47.54-11-.14-16.56.19-6.88.4-14.86-2.73-20.39,1.83-6,4.91-12.1,1.17-17.78,3.09a3.17,3.17,0,0,0-1.61,1.67c-.17.37.25,1.25.66,1.61,2.29,2,4.56,5.48,7,5.64,6.69.44,8.09,7.44,12.86,9.18s11-.66,14.39,5.29c5.5-2.08,8.09,3.48,12.06,5.15,8.1,3.42,16.79,5.11,24.66,9.05,4.4,2.21,4.73,3.58,1.77,8.95-1.77,3.2-2.72,8.48-5.19,9.28-3.81,1.23-6.8,4.68-9.66,5-6.81.81-11.47,7.84-19.36,5.44-4.27-1.3-9.33-.24-14,.21-.81.08-1.51,2.36-2,3.72a2.82,2.82,0,0,0,0,2.3,8.83,8.83,0,0,0,3.14,2.92c4.68,2,10.53,2.69,13.95,5.95,4.16,3.95,9.52,1.77,12.58,4,4.34,3.14,10,3.22,13.65,7.41,3.09,3.59,7.54,1.82,11.1,1.46,7-.72,11.94,1.45,16.26,6.86,3.21,4,2.09,3.43.75,10.3-1.08,5.5-4.7,7.7-7.38,11.25-6.38-.93-10,6.64-16.93,5.12-4.51-1-9.62.66-14.11-.38-6.93-1.62-10.45,5.8-17,5.1-6.17-.67-12.5.07-18.76.19-3.58,6-9.5,4-14.76,4.4-6.23.49-9.89,4.76-11,12.14-.32,2.15-1,5.9-1.9,6-3.62.46-8,.92-11-.7-6.27-3.41-6.92-11.21-10.63-16.75-.55-.81.16-3.58,1-4.06,4.11-2.22,2.37-7.24,5-9.82,3.83-3.75,8.09-7,12.17-10.53,6.05,2,9.82-5,14.57-4.38,6.91.83,10.56-6.18,17-5.38.22,0,.7-2.09,1.06-3.21-4.32-1.17-7.89-3.9-11.82-5.76-7.43-3.51-15.16-6.14-20.92-12.53-1.24-1.38-4.56-.72-6.16-2-6.52-5.11-15.29-7.25-19.88-14.88a26.67,26.67,0,0,1-1.63-4.06c0-.12,8.24-15.17,8.43-15.44,2-2.83,4.6-3.63,8.07-3.48,7.08.29,14.21.32,21.28-.06,2-.11,4-1.83,5.71-3.19,4.12-3.3,4.32-5.05.73-6-8.57-2.36-16-7.2-23.83-11-5.83-2.84-12.73-5-16.74-11.28-1.6-2.5-4.27-5.54-6.85-6-12.06-2-11.22-10.82-11-19.38.1-3.34,5.86-9.14,9-9.22,5.52-.16,12.32,2,16.25-.55,5-3.17,9.38-4.66,14.92-4.33.52,0,1.69-1.28,1.57-1.55-.47-1.12-1.67-3.05-2-2.94-7.76,2.82-12.46-4.7-19.12-5.64-2-.28-4.15-4.14-5.32-3.73-10.58,3.64-9.73-7.05-14.13-11a4.65,4.65,0,0,1-1.16-4.1,85.49,85.49,0,0,1,5.48-11.91c.55-1,2.58-1.56,3.95-1.61,5.51-.19,11-.11,16.54-.13,3.34-6,9.3-4.35,14.48-5.08.62-.09,1.34-1,1.6-1.64.14-.38-.56-1.57-.89-1.57-6.89-.1-12.68-5.43-18.9-5.39-6.71.05-10.07-6.1-17-5.76-5.09.24-10.57-4.38-15.69-7.25a17,17,0,0,0-6.41-1.6c-3.06-.32-5.68-.4-7.13,3.77-2.22,6.35-4.94,12.19-4.76,19.4.54,22.08.88,44.21-.1,66.25-.46,10.38,5.25,22-4.33,31.27,0,0,1,1.09,1.53,1.6,4.86,4.48,4.35,9.34,1.21,14.52-1.13,1.86-2.82,4-2.69,5.9.53,7.59-2.34,15.53,2,22.77a15.72,15.72,0,0,1,1.65,3.22c-6.59,4.69-2.92,11.57-3.87,17.43-.71,4.4,1.21,7.46,4.47,10-2,3-4.67,5.18-4.62,9.75q.49,52.06,0,104.13c-.06,6.41,6.41,10.08,5.11,17-1.13,6.1-1.7,13.07.19,18.75,1.76,5.29,5.49,10.59,7.65,15.73,2.54,6,4.69,8.21,11.06,7.91,5.1-.24,11-2.3,15.19,3.24.75,1,9.87,10.28,11.45,11.33s1.1,7.89,5.64,2.52a45.67,45.67,0,0,1,5-5,11.33,11.33,0,0,1,14.47-.55c4.16,3.27,6.41,10.11,4.66,14.47-.28.68-1.25,1-1.61,1.71-4.17,7.73-9.86,15.1-11.95,23.38s-.05,17.26-.57,25.91c-.4,6.63,2.9,14.2-4.14,19.62-.82.63-.45,2.93-.45,4.46,0,15,.11,30-.11,45-.05,3.87,2.91,5.19,4.72,7.55s4.24,2.48,4.67-.21c1.32-8.31,5.88-11.64,14.06-11.59,26,.15,52.07.07,78.11,0,6.69,0,8.71-2,7.34-8.13-1.45-6.47-5.92-11.94-4.86-19.39,1-7-.68-14.32.5-21.22.89-5.18-5.82-8.26-3.4-11.51,3.49-4.67,4.59-7.69-.1-11.74a6,6,0,0,1-1.46-4c-.15-6.31.47-12.68-.19-18.92-1.09-10.44,4.05-21.87-4.61-31.19,0-4.73.06-9.46,0-14.2-.1-6.24-.31-12.49-.47-18.73-6.29-3.23-2.22-10.4-5.22-14.34-4.59-6-6.37-13.23-10-19.57-1.25-2.17-4.31-3.3-6.54-4.91-.48,2.17-1.33,4.33-1.37,6.51-.15,9.46.12,18.94-.16,28.4-.1,3.52,1.36,5.66,3.59,8.07,2.43,2.62,1.49,5.39-.86,8.08-1.37,1.56-3.07,5.05-2.44,5.79,8.26,9.59,3.22,20.92,4.53,31.35.74,5.9-2.44,12.8,4.45,17.09.1,8.64.38,17.28.15,25.91-.05,2-1.61,4.12-3,5.79a53.44,53.44,0,0,1-6.66,6.71c-3.12,2.69-4.91,5.59-4.54,10a96.17,96.17,0,0,1-.08,16.54c-.18,1.93-2.32,3.75-3.74,5.49-2.69,3.28-3.76,3.17-6.69-.26-1-1.2-3.31-2.45-3.15-3.33,1.21-6.63-3.14-11.36-5-17-1.94-5.78,3-13.42-2.1-17.91-5.46-4.81.87-13.07-6.38-16.57-.86-.41-.87-2.7-1.14-4.15-1.11-5.95,2.47-12.73-2.36-17.92-4.56-4.89.16-11.72-2.74-15.34-5-6.29-5.38-13.07-4.06-19.55s-6.53-8.52-5.24-14.71c.94-4.54.23-9.43.12-14.16,0-.6-.8-1.32-1.39-1.75-4.57-3.29-2.87-10.35-8-13.27,0-7.88-.05-15.77,0-23.66.05-5.14,4.57-10.53,9.35-11.37,5.92-1,12.75,3,14.24,8.8.75,2.9.13,6.36,1.47,8.85,1.22,2.25,4.25,3.53,6.48,5.24.53-2.14,1.5-4.29,1.51-6.44.13-18.93.06-37.87.09-56.8,0-5,4.45-11,9-11.67,4.83-.76,9.37-.1,12.25,4.63.77,1.27,2.08,2.41,2.3,3.76.38,2.3.06,4.71.12,7.08.1,5,2.38,11.78,4.64,17,3.19,7.34,7.69,12.42,15.73,15.13,4.78,1.61,8.64,5.66,8.34,12.51-.17,4,4.72,8.51,4,12.15-1.28,6.55,6.17,8.76,5.28,14.7-.69,4.63.91,9.76-.38,14.11-2,6.59,6.44,8.38,5.23,14.73-1.16,6.09-.25,12.57-.25,18.88,0,5.53-1,11.29.26,16.51,1.37,5.67,5.79,10.25,4.68,17.07-1,6.15-.21,12.59-.21,18.9V591c0,6.31.31,12.64-.09,18.93-.36,5.66,1.71,9.91,4.35,14.86,2.29,4.31.36,10.8.52,16.32.09,3.08,6.32,8.81,9.44,8.85,6.31.08,12.62,0,18.94,0,1.49,0,8.9,5.3,9,6.7a128.72,128.72,0,0,1,.31,14c0,1-2.38,3-3,2.78-7-2.7-11.09,4.7-17,4.82-12.62.26-25.24.08-37.87.08-5.29-6.3-12.56-4.83-19.33-4.58-2.34.09-3.72,2.61-3.06,5.2a10.64,10.64,0,0,0,2.12,3.81c.34.42,1.45.29,2.2.29,3.95,0,8-.46,11.81.17,2.84.46,3.58,5,7.54,4.65,4.7-.4,6.69,6.58,12.25,4.71,4.6-1.55,6.41,3.92,9.89,4.5,4.6.76,9.45,0,14.16.29,2.09.15,5.47,1,5.88,2.27.92,2.85,1.67,7.45.11,9.09-4.15,4.4-7,10.79-13.67,12.1-5.12,1-8.24,6.24-14.63,5.12-6.88-1.2-14.14-.27-21.22-.13-.57,0-1.28,1-1.62,1.63a1.77,1.77,0,0,0,.4,1.61c2.26,2.08,4.33,5.22,7,5.87,9.31,2.3,16.26,9.72,26.77,10.19,7.55.33,10.36,12.9,5.3,18.54-8.68,9.69-17.74,14-29.66,14.09-4.74,0-9.49-.26-14.19.13-2,.16-5.13,1.36-5.48,2.69-.78,2.89-1.38,7.57.23,9,6.18,5.67,10.54,13.16,18.91,16.87,5.3,2.36,9.32,7.75,13.62,12.07.71.72.51,3.52-.3,4.4-4.82,5.21-9.15,11.77-15.19,14.68-5.67,2.73-11,8-18.66,6.64-3.41-.59-5.13,5.66-9.84,4.54-4.3-1-7.06,1.51-10.1,4.25-5.23,4.73,2.77,5.62,2.14,8.86a14.28,14.28,0,0,0,0,2.36c0,3,.92,6.86-2.75,8-2.83.87-6.24.35-9.29-.18-1.27-.23-2.25-2.09-3.37-3.2-3.35-3.35-6.48-7-10.09-10-4.5-3.77-4.36-9.78-2.11-12.56,3.36-4.16,3.17-8.25,4.27-12.64.82-3.26,4.66-5.76,7.15-8.59,8.33,3.42,13.54-6.4,21.75-5,3.95.68,5.94-5.64,2.25-8.19-6.17-4.23-6.62-11.89-11.57-16.66-4.54-4.37-9.18-8.69-13.32-13.44-2.87-3.3-2.28-8.72-6.49-11.59-.68-.46-.6-3.48.19-4.41a81.06,81.06,0,0,1,10-10c1.56-1.26,4.18-1.54,6.34-1.66,4.72-.25,9.47.08,14.16-.3.87-.07,2-2.28,2.2-3.63s-.19-3.8-1-4.12a77.14,77.14,0,0,1-11.77-6c-2.31-1.43-7.47.57-8.82-1.06-6.51-7.88-17.26-10-23.45-18.15-2.88-3.78-3.13-6,.56-9.8,5.36-5.44,10.79-10.81-12.45-98.9C390.05,528.38,390.34,527.36,390,527a2.09,2.09,0,0,0-2.08,0c-2.2,1.93-4.27,4-6.32,6.11a2,2,0,0,0-.35,1.48c1.17.69,2.42,1.73,3.65,1.74C389.62,536.3,390.12,535.48,418.24,612.27ZM385.32,744.52c0-4.72.07-9.45,0-14.17-.07-3.2-5.57-9-9-9.27-3.92-.27-9.49,1.57-11.47-.4-4-4-10-3.38-13.66-7.59s-11.24,1.52-14.5-5c-.1-.19-3.07.59-3.07.9,0,3.72-2,7.86,1.12,11.09,7.13,7.35,14,15.09,21.85,21.55,5.12,4.2,4,11.68,9.71,15.14.69.41.57,3.21,0,4.51-3.17,7-11.33,7-16.58,11.46-3.45,2.9-6.76-1.86-9.58-4.36-6.1,2.25-8.1-7.1-14.63-4.88-5.67,1.93-8.25-6.69-14.24-5.29-2.48-3.61-6-4.4-10.15-4.09a73.79,73.79,0,0,1-11.8-.07c-1.19-.1-3.2-1.66-3.23-2.61-.22-6.26-.13-12.54.25-18.79.05-.79,2.38-1.47,3.68-2.13a56.19,56.19,0,0,1,5.9-2.86c6.56-2.43,13.24-4.24,19.11,1.33,1.63,1.54,2.47,2,3.36-.25.54-1.36,1.1-3.26.55-4.38a21.45,21.45,0,0,0-4.27-5.32c-11.66-11.73-23.4-23.39-35.06-35.12-3.85-3.88-4.7-18.51-1.26-18.67,5.92-.28,8.35-7.3,14.35-5.77,2.15.55,5.46.25,6.29,1.57,2.83,4.47,8.84,2,11.8,6.42,2,2.93,7,1.4,9.84,4.91,1.37,1.68,5.86.52,8.69,1.43,3.43,1.11,6.58,3.1,9.92,4.55.46.2,1.39-.38,2-.8a9.69,9.69,0,0,0,1.4-1.64c-5.09-3.41-7.18-10.6-14.07-11.64-7.15-1.07-8.77-10.91-17.13-10.33-1.54.11-3.51-2.94-5-4.78-4.34-5.55-10.48-8.45-16.43-11.72-3.86-2.12-8.18-2.79-11.68-6.39-4-4.09-9.67-6.68-15-9.23-1.28-.62-5.44,1.26-5.58,2.34-.61,4.63-.21,9.4-.18,14.11,7.62,5,3.87,12.74,4.57,19.35.49,4.64.3,9.35.41,14,7.47,6.06,3.55,14.44,4.31,21.82.48,4.68-1.76,10.68.43,13.94,6.76,10.07,3.32,20.9,4.48,31.34a11,11,0,0,0,2.49,6c3.86,4.09,2.13,8.94,2,13.32-.2,5.11,6.65,6.8,4.94,12.24-2.07,6.6,2.58,11.41,4.48,17,.84,2.47,1.47,4.61,3.9,4.62,6.17,0,13.45,1.42,18.21-1.33,4.5-2.59,8.53-3.92,12.87-3.09,5.58,1.07,7.75-4.65,12.26-4.88a124,124,0,0,1,14.17,0c4.94.32,6.71-5.19,12.22-5.2,8.43,0,19.91-8.16,24.45-14.67a8.13,8.13,0,0,0,1.51-4.06C385.43,754,385.32,749.25,385.32,744.52ZM266.63,531.64c-3.15,0-6.31-.14-9.45,0-4.59.26-6.65,5.5-12,5.6-3.25.06-1.16,5.4-2,8.22-.6,2.06-2.19,3.81-3,5.84s-2.13,5.69-1.48,6.15c5.52,3.9,3.93,9.53,4.71,14.8,1,6.58,4.2,12.41,8.38,17.77,3,3.83,6.81,2.72,10.55,3.28,2,.3,3.67,2.44,5.69,3.27,7.46,3,14.85,6.18,21.51,10.78,7.57-2.26,11.2,3.46,15.82,7.54,2.77,2.45,4.26,7.16,9,6.59a12.82,12.82,0,0,1,12.22,4.81c5.91-1.11,8.11,4,11.17,7.12,4.57,4.7,12.78-.53,16.38,6.49.38.75,2.86.55,4.36.53a3.29,3.29,0,0,0,1.86-1.12c.4-.4.89-1.43.74-1.59Q332.84,609.29,304.36,581c-1-1-2.56-1.37-3.88-2-4.62-2.14-9.76-3.59-13.75-6.57-5-3.74-9-8.75-13.5-13.19-2.72-2.71-1.3-7-4.77-10-3.07-2.61,3.56-3.76,3.18-6.68-.48-3.67,1.83-5.63,3.94-7.91.21-.23-1.07-2.7-1.89-2.85A41.49,41.49,0,0,0,266.63,531.64Zm57.14-312.48c0-7,.23-14-.26-21-.07-1-3.53-2.19-5.54-2.48-1.1-.15-3.49,1.39-3.51,2.21-.25,10.12,0,20.26-.25,30.38-.09,3.85,2.88,5.18,4.81,7.37a6.33,6.33,0,0,0,3.27,1.52c.36.07,1.4-1,1.41-1.62C323.81,230.07,323.77,224.61,323.77,219.16ZM378.4,636.73c3.69-7.55,1.85-14.64,2-21.45,0-2.28-2.48-3.49-5.16-3.18-4,.48-7.75.09-10.39-3.64-.15-.22-3.11,1-3.06,1.28.59,3.71-1.88,7.78,1.49,11.18C368.23,625.91,373,631.07,378.4,636.73Zm-12.28-69.24c3.79,3.59,7.59,7.27,11.56,10.75.23.19,2.61-1.13,2.76-2,.41-2.21-.06-4.57.19-6.83.34-2.92-1.36-4.51-3.64-4.53C373.44,564.89,369.36,563.35,366.12,567.49Zm-68.53-26.38a9.12,9.12,0,0,0,2.28,0c1.37-.36,2.68-.92,4-1.39a11.79,11.79,0,0,0-1.4-3.21,21.72,21.72,0,0,0-4.92-4.71c-1.12-.68-3.7-.75-4.37,0a11.07,11.07,0,0,0-2.4,5.75c-.13,1.1,1.16,2.91,2.27,3.45S296.06,541.11,297.59,541.11ZM324,275c-.33-4-.58-7.79-1-11.56a2.25,2.25,0,0,0-1.58-1.53,2.22,2.22,0,0,0-1.58,1.53q-.15,10.19,0,20.37a2.19,2.19,0,0,0,1.57,1.53,2.26,2.26,0,0,0,1.58-1.54C323.45,280.82,323.69,277.8,324,275Zm-61.78,69.52a32,32,0,0,0-.07-4.6c-.1-.62-1.19-1.65-1.53-1.55-1.12.36-2.91,1.06-3,1.78a56.75,56.75,0,0,0-.07,9.22c0,.57,1.19,1.64,1.53,1.54,1.12-.36,2.67-.93,3-1.82C262.59,347.73,262.22,346.05,262.22,344.51Zm59.18-99c-1.18,4-2.16,6-2.22,8,0,1.17,1.43,2.39,2.22,3.58.79-1.19,2.25-2.41,2.22-3.58C323.56,251.43,322.57,249.42,321.4,245.47Z"/><path d="M424.21,967.21c-12.84,0-27,.07-41.23-.07a20.36,20.36,0,0,1-6.4-1.61c-8.12-2.92-8.47-2.73-13.2,2.14-1.59,1.64-2.05,2.19-.23,3.46,2.47,1.74,5.06,5.51,7.12,5.21,6.13-.91,9.72,4,14.69,4.89,4.57.85,9.7,1.18,14.1,0,9.2-2.53,9.7,4.61,12.28,9.68.55,1.07,1.64,2.88,1.3,3.24-4.87,5.16-9.93,10.14-14.95,15.16-7.36-1.81-12.36,5-19.12,5.23-6.3.18-12.62,0-18.93,0-6.87,0-9.8,5.47-6.71,12.53.29.67,1.14,1.64,1.63,1.59,9.92-1,6.27,11.81,13.13,13,8.57,1.53,12.33,8.69,18.1,13.52,3.42,2.86,5.47,8.13,11.41,6.71,2.35,4.55,5.4,8.89,6.85,13.7,1.36,4.52-3.79,6.27-6.18,9.1a89.25,89.25,0,0,1-8.36,8.37c-1,.93-2.82,2.09-3.87,1.79-6.79-1.92-10.6,5.91-17,4.95-2.88,4.75-7.41,5-12.28,4.7-2.72-.17-4.38,1.46-4.17,4.21.46,6.17-5.52,3.82-7.6,6-3.58,3.81-5.69,3.41-8.68-.26-.68-.84-3.15,0-4.38-.64-6.57-3.63-10.93-13.4-7.55-19.86,3.09-5.9,7.39-12.17,14.93-13.06,8.19-1,15-7.85,24.11-5,2.58.79,4.94-4.86,3-7.16-1.5-1.81-3-4.13-5-4.92-15.23-6-22.94-20.49-34.81-30.24-2.2-8.74-9.63-13.48-14.95-19.87-3.83-4.59-2.54-11-1.19-15.65,1-3.4,4.83-8.1,10.77-7.28a54.33,54.33,0,0,0,9.46,0c.62,0,1.77-.86,1.73-1.22-.13-1.15-.39-2.62-1.17-3.29-2.24-1.92-3.48-5.53-7.4-4.89-8.85,1.45-15.95-2.89-23.19-6.87-3.2-1.76-6.51-3.33-9.74-5s-7.72-2.71-9-5.34c-1.58-3.15-.39-7.7-.36-11.65,0-2.76,1.5-4.46,4.22-4.18,5,.5,6.61-6.25,12.28-5,4.52,1,9.42.25,14.15.13.58,0,1.28-.92,1.66-1.56a2.22,2.22,0,0,0-.09-1.58c-5.89-1-9.95-7.68-16.32-6.11-8.3,2-13.71-6.94-21.73-4.89-4.38-4.24-8.78-8.46-13.07-12.8a2.55,2.55,0,0,1,0-2.29c2.39-4.47,4.91-8.88,7.38-13.31,5.43,1.91,7.17-5.12,12.24-4.87,7,.35,14.06-.17,21.08-.45.58,0,1.39-1,1.57-1.63.12-.4-.69-1.17-1.21-1.63-2.81-2.47-4.68-6.38-9.5-5.68-2.32.33-5.08-.71-7,.19-7.3,3.4-10.61-5.77-17.05-5.14-.75.08-2.11-3.43-2.75-5.41-2.2-6.85,6.17-10.18,5.81-16.58,0-.39,2.63-1.45,4-1.32,5.15.5,10.92-2.14,15.26,3.36,1,1.31,4.24,1.23,6.45,1.23,32.33.07,64.67,0,97,.11,4.06,0,7.41-.43,10.41-3.74,1.16-1.28,4.53-1.49,6.52-.92,6.32,1.84,12.12,5.08,18.9,5.89,3.24.39,6.56,6.83,6.08,9.1-.69,3.19-6.62,8.49-9.81,8.53-11.8.13-23.6.15-35.4.32-.56,0-1.66,1.42-1.58,1.54.72,1,1.58,2.67,2.54,2.77,4.51.46,9.56-1.17,12.64,3.95a1.7,1.7,0,0,0,1.58.08c7.9-10.29,15,.36,22.46,1,2.73.24,4,5.68,2.15,7.56-3.84,4-8,7.66-11.63,11.79-2.82,3.2-5.91,4.28-10.16,4.24-19.71-.22-39.43-.12-59.15-.06a18.47,18.47,0,0,0-6.7.93c-.92.36-1.55,2.57-1.51,3.91s.9,3.71,1.68,3.83c3.8.58,7.74.3,11.55.83,5.17.71,11.1-2.67,15.43,2.68,3.8,4.71,11.09-1,14.6,4.95.59,1,2.53,1.42,3.93,1.73,4.44,1,9.87-2.27,13.37,1.79,3.93,4.57,8.63,2.62,13.06,2.91a74.52,74.52,0,0,0,14.17,0c6-.76,7.94,4.2,11.23,7.17.8.73.92,3.67.17,4.43C436.49,955.88,430.65,961.16,424.21,967.21Z"/></svg>