<svg id="Layer_1" data-name="Layer 1" xmlns="http://www.w3.org/2000/svg" viewBox="0 0 1200 1200"><title>BB_Artboard 79</title><path d="M404.09,907.33c1.55.64,4.22,1,4.44,2,.78,3.39.49,7,1.13,10.47.24,1.32,1.9,2.38,2.91,3.56.64-.64,1.72-1.2,1.85-1.93,1.09-5.86-1.06-12.81,5.84-16.63.05-5.42-1.75-11.88.58-16,3.66-6.49-10.87-9.42-1.86-15.36.47-5.23,1.34-10.47,1.37-15.71.14-25.37.19-50.75,0-76.12-.07-8.6,2.51-17.94-5.37-24.93.57-4.23-1.64-9,2.62-12.55a6.64,6.64,0,0,0,1.64-3.63c-6.89-4.51-4.05-11.46-4.14-17.37-.31-19,.31-38.07-.3-57.08-.3-9.36,3.77-19.43-4.7-28.08-2.28-2.34-.55-8.67-.55-13.17q0-63.88,0-127.77c0-6.24,1-12.6-5.35-16.95-.84-.56-.87-4.27,0-5.11,5.25-4.89,8.23-9.13,1.32-15.45-1.95-1.77-1.41-6.64-1.42-10.1-.1-29,.38-58-.27-87-.27-12,4.62-25.1-5.23-35.81,0-11.78.43-23.58-.12-35.34-.57-12.07,3.34-24.81-5.14-35.95-1.31-1.72.13-5.34-.24-8-1.06-7.58,3.43-16.45-5-22.37-.12-10.82-.87-21.7,0-32.44.29-3.62,6.63-6,5.09-11.37,5.29-3.34,5.58-8.4,5.53-14.06-.21-26.27.13-52.56-.26-78.83-.09-5.49,3-8.06,6.19-11.08,3-2.86,6.74-3,9.26-.51,7.08,6.84,11.6,15.29,11.76,25,.45,28.08.16,56.18.16,84.27,0,6.17-1.26,12.63,5.22,17,.86.57.95,4.42.1,5.07-9.09,6.92-4.26,16.64-5.09,25.1-.2,2,2.4,4.35,3.84,6.45,2.34,3.45,1.73,6.27-1,9.38-1.57,1.81-3.61,5.67-2.87,6.65,9.12,12,4.77,25.81,5,38.71.63,37.14.25,74.3.19,111.45,0,5.41-.08,10.24,4.75,14.52,2.61,2.31.2,6.26-2.48,9.16-1.53,1.66-2.78,6.35-2,6.9,8.16,6.17,4.44,14.81,5.27,22.46,1,9.37-3.47,19.83,5.42,27.65v29.91c9.56,12.72,4.53,27.43,5.17,41.25.29,6.54,7.89,9.33,6,16.84-1.5,6-1.19,12.78,0,18.89.82,4.24,7.63,7.86-.11,12,9,6.76,3.75,16.51,5.38,24.82.45,2.34,2.4,4.45,3.86,6.52,2.41,3.43,1.89,6.25-.83,9.39-1.57,1.82-3.42,4.85-2.92,6.73,1.3,4.8,6.54,7.92,5.35,14.15-1,5.26-.87,10.87,4.78,14.24.17,9,1.17,18.07.25,27-.8,7.69,3.08,13.18,5.45,19.61,2,5.48-2.2,12.52,3.81,17.52,1.13.94,1.56,3,1.83,4.61,1.69,10.06-3.92,21.33,5.05,30.18-.64.64-1.54,1.17-1.88,1.94-3.59,8-3.06,9.66,3.34,15.11,1.72,1.46,3.46,1.8,3.73-.68.51-4.71,2.2-8.39,5.94-11.18-2.84-3.25-5.76-6-5.44-11.28.63-10.83,0-21.74.29-32.61.11-4-1.33-6.55-3.89-9.39-1.37-1.53-2-6.08-1-7,6.05-5.3,6.67-9.86.36-15.47-1.17-1-1-5.6.26-7,7.14-8,6.5-16.21.66-24-2.62-3.5-1.82-6.77-1.84-10.13-.16-21.75,0-43.5-.13-65.25,0-6.92,1.9-14.16-5.13-19.82-1.74-1.41-1.67-8.84.09-10.17,8.65-6.54,4.19-11.51-.06-17.81-1.56-2.31-1.18-8.25.71-10.11,5.9-5.82,6-10.26-.37-15.44-1-.78-1.28-4.22-.51-5,7.66-7.22,5.08-16.47,5.13-25.07,0-2.21-2.2-4.46-3.45-6.65-2.85-5-3.54-10.29.34-14.62,5.7-6.35,2.45-13.46,2.87-20.26-6.9-4.11-4.84-10.9-5-16.95-.12-5.27-.82-10.4,4.28-14.72,1.9-1.6,1.05-6.71,1.08-10.21.1-12.69,0-25.38,0-38.06-9.44-9.78-3.86-22-5.5-33.08-.76-5.14,1.61-8.51,5.26-11.45-4.65-3.56-5.76-8.3-5.29-14,.56-6.8-1.46-14.16,5.12-19.32-10.06-5.18,1.89-9.46.72-14.76-1.34-6.05-.31-12.62-.31-19,0-37.15.23-74.31-.22-111.46-.08-6.47,3-9.93,7-13.43,1.15-1,3.93-1.93,4.66-1.33,5.3,4.39,10.26,9.17,15.33,13.83a9.55,9.55,0,0,0-1.88,1.94c-1.16,2.23-3,4.54-3,6.84-.24,21.74-.15,43.49-.11,65.24,0,.82.16,2,.69,2.37,1.38.9,3,1.94,4.54,2s4.44-1,4.49-1.67c.61-8.91,1.6-17.91.89-26.76-.62-7.87,3.86-12.77,9.27-14.45,5.19-1.61,7.44-2.58,7.57-8.24,0-2.43,9.39-4.84,11.69-3.05a111,111,0,0,1,13.82,12.42c1.46,1.59,1.29,4.93,1.36,7.49.17,6.34,1.2,13-.23,19-1.93,8.13,7.64,11.64,6,19.61-1.27,6.08-.25,12.64-.25,19,0,7.25.07,14.5,0,21.75,0,3.51,6,3.89,4.12,8.05-1,2.3-4.07,4.47-3.85,6.44.93,8.45-4.33,18.34,5.2,25,0,16.31.29,32.63-.27,48.92-.1,2.81-7.25,5.11-4.92,8.46,8.5,12.24,4.52,25.74,5.06,38.7.58,13.57.13,27.18.13,40.77V494.7c0,10.87-.09,21.75.11,32.62,0,1.48,1.47,4.1,2.41,4.18,2.4.19,5.51,0,7.24-1.39,8.25-6.66,9.28-13.21,3.27-25.72-3-6.27-3.9-11.32,1.18-16.84,1.53-1.65,2.66-6.42,1.93-7-8.41-6.14-5.61-11.75.18-17.49,0-12.69-.31-25.39.13-38.06.24-6.77-3.34-14.62,4.19-20.06.21-.16-.77-2.81-1.75-3.64-4.24-3.59-4-10-2.22-12.29,9.73-12.21,3.21-26,4.9-38.83.39-3-8.76-4.9-1.55-9.87a17,17,0,0,0,6.25-7.69c.46-1.31-4.18-3.94-4.23-6-.12-4.21-3.81-6.08-4.6-9-.59-2.19,3.63-5.3,4.11-8.26.69-4.2.7-8.36-3-12.32s-3.33-5.15-.17-9,4.63-6.48,1.41-11.45c-5-7.69-4.54-8.54-.88-16.5s4.74-8.65-.24-16.47c-4-6.24-1.16-12.2-2.31-18.14,8.54-7.89,5.09-18.25,5.32-27.65.43-18.12.11-36.25.13-54.37,0-6.19,1.29-12.76-5.38-16.8.79-4.24-2.34-9.33,1.87-12.7s1.83-4.84-.41-7.93c-3.49-4.79-1.36-9.57,3.6-9.25,5.94.4,12.8-2.72,17.49,3.55,1.59,2.13,3.74,2.23,3.69-.24-.21-11.1,5.76-23.1-4.16-33,0-5.13-2.3-10.55,3-14.79,3.52-2.82,6.47-6.34,10.19-10.05,2.39,2.37,4.7,4.84,7.19,7.11,4,3.7,6.74,7.34,6.64,13.67-.47,30.8-.21,61.61-.21,92.42,0,17.22-.36,34.45.16,51.65.23,7.6-2.86,15.8,4.51,22.75,2.31,2.18.74,8.59.75,13.06,0,35.34-.26,70.68.21,106,.12,9.33-4.17,19.75,4.9,27.92,1.37,1.24.34,5.19.34,7.88,0,17.22-.21,34.44.11,51.65.14,7.65-3.08,16.34,5.21,22.17-8.77,5.75-4.13,14.69-5.34,22.26-.65,4.1,1.84,6.4,4.2,9.2,2.62,3.1,1.59,6.41-1.36,9.24-.93.89-1.93,3.38-1.61,3.66,8.5,7.39,3,17,4.11,25.53.8,6-1.35,12.77,5.38,16.83-.29,5.11,2.11,10.61-3.31,14.91-1.53,1.22-2.42,6.36-1.63,6.92,6.37,4.51,5.11,10.93,5.13,17.08,0,8.16,1.63,16.77-.49,24.33-1.88,6.73,9.78,11.43,1.43,17.87-.16.13,1.14,2.6,2.11,3.66,2.44,2.68,5.08,5.17,8.3,8.39l-13.74,12.8c-10.64-1.27-8.5,6.45-8.38,12.32.06,2.83,1.86,4.83,5.32,4.37a41.26,41.26,0,0,1,5.45,0c.79,4.52-4.33,5.39-5.34,8.66a7.22,7.22,0,0,0,.34,5.21c2.3,3.9,4.28.7,5.57-1,1.66-2.19,3.06-2.63,3.84-.18,1.33,4.11,2.07,8.13,5.76,11.3,4.61,4,5,4.75,11.23.64,2.32-1.52,5.45-3.18,5.53-.07.51,19.92.24,39.87.22,59.81-8.71,5.74-4.27,14.66-5.42,22.24-.62,4.09,1.79,6.42,4.06,9.29,1.26,1.59,1.66,5.71.52,7.06-8.8,10.38-3.67,22-3.51,33.12,7,4.32,4.26,11.31,4.29,17.22.21,39-.14,78,.3,117,.1,9.34-4.11,19.74,4.84,28,1.38,1.27.4,5.18.4,7.87q0,39.44,0,78.88c0,9.49-8.56,16.08-18,13.83-1.42-.34-3.56-2.09-3.58-3.21-.13-10.82.12-21.64.26-32.47,4.17-3,3.79-5,1-9.93-3.17-5.52-2.67-13.18,1.43-20,4.23-7,5-15-.83-21.88-1.65-1.95-2.26-2.44-.29-4,3.91-3.1,6.23-7,1.6-11.07-5.06-4.42-4.93-11-2.46-14.56,6.37-9.31,6.09-17.07.24-26.37a11.76,11.76,0,0,1,1.85-14.67c1.58-1.63,3-6.15,2.3-6.82-7.12-6.41-5-14.7-5.19-22.46-.2-7.25,0-14.5,0-21.76,7.63-4.88,5.12-12.58,5.44-19.5.21-4.51-1.87-8.07-3.52-12.14-3.57-8.8-4.42-18.66,2.29-27.45,1.21-1.58,1.37-5.91.18-7-3.66-3.43-4.59-7.15-4.48-11.92.27-11.78.19-23.57-.05-35.35,0-1.28-1.81-3.11-3.18-3.62s-4.29-.6-5.07.34c-2.74,3.32-7.94,4.84-7.93,10.26v46.24c11.08,10.53,3.13,23.95,5.35,35.84.82,4.42.61,9-3.9,12-.34.23.26,3,1.11,3.62,3.39,2.65,2.89,6.21,2.89,9.75q0,40.8,0,81.6c0,5.33-.46,10.32,4.54,14.6,2.73,2.34.55,6.21-2.14,9.13-4.08,4.41-3.09,9.56-.86,14.65,4.79,10.93,6,14.33,1.64,21.86-2.39,4.16,0,5.17.55,8,1.57,8.68,1.58,17.7,1.5,26.58,0,2.12-2.72,4.24-4.25,6.31-2.59,3.5-5.22,7-7.75,10.32-6.57-5.9-10.7-9.84-9.87-17.55.62-5.66-7-9.59-5.34-16.8,1.17-5.17-.56-11,.44-16.23,1.09-5.7,6.62-9.84,5.44-16.86-1-6.18-.44-12.67-.09-19a14.76,14.76,0,0,1,2.54-7c4.39-6.5,4.82-14.6,1.25-19.86s-3.86-9.62-3.89-14.84c-.07-15.41.41-30.84-.19-46.23-.34-8.48,3.72-18.08-4.89-25.21-.92-.76-.37-3.41-.37-5.19,0-22.66,0-45.33.06-68a10.56,10.56,0,0,1,1.61-4.74c9.18-16.44,9.2-16.42,9.2-25.64,0-5.44-.54-10.95.15-16.3.71-5.55-2.83-8.11-6-11.21l-1.93-1.93c-1,1.11-3,2.21-3,3.31,0,9,.33,17.94.57,26.91,8.15,5.44.62,8.12-2.21,11.43-.35.41-3.53-.62-3.55-1a14.25,14.25,0,0,0-3.84-9.43c-3.2-3.76-3.15-4.93.18-9s5.17-7.2.89-11.31c-2-1.9-3.45-3.5-.4-5.82,3.24-2.48,4.1-6,1.61-9.2-6.78-8.7-4.89-18.12-2.66-27.54.18-.78,3.14-1.41,4.69-1.2s4.16,1.49,4.21,2.41c.41,7.21.21,14.46.53,21.68,0,.72,2.23,1.53,3.54,1.9.38.1,1.65-1.2,1.66-1.87.13-6.35-.27-12.72.26-19,.19-2.26,2.87-4.21,3.71-6.55s1.85-6.37.88-7.08c-5.26-3.89-5-9.1-4.79-14.52.1-3.62.11-7.25,0-10.88-.2-6.23-.52-12.47-.79-18.7-8.79-4.65,1-8,.87-12.15-.24-6.34.07-12.7-.13-19-.08-2.53-.07-5.88-1.58-7.37-3.07-3.05-4-4.79-.23-8.06,1.5-1.3,2.33-6.28,1.48-6.92-5.13-3.84-5.17-8.87-5.11-14.41.18-16.32,0-32.64.13-49,0-4.65-1.25-8.08-4.11-12a10.91,10.91,0,0,1,1.42-14.45c3-2.85,3.12-5.6,1.52-9.36-5.87-13.82-5.62-13.83.85-31.4.73-2-.85-4.89-1.64-7.29-.62-1.9-5.11-2.5-1.47-5.9a10.46,10.46,0,0,0,3.21-6.69c.11-8.65,2.36-17.9-5.28-24.95l-.92-26.82c-5.59-3.54-3.4-6.63.57-9.62-1-1.28-1.88-2.87-3.19-3.78-2.91-2-2.66-6.56-1.73-7.15,6.95-4.43,2.83-7.85,0-12.21-1.24-1.93-.21-5.31-.21-8,0-18.13.77-36.31-.26-54.39-.78-13.79,5.39-28.68-5.18-41.28,0-12.69.06-25.38-.05-38.08a45,45,0,0,0-1.12-10.43c-.23-.92-2.9-1.34-4.52-1.76-.81-.22-2.24-.27-2.54.18-.72,1.08-1.62,2.78-1.23,3.72,1,2.32,3.79,4.33,3.83,6.5q.48,27.19,0,54.4c0,2.25-1.75,5-3.5,6.56-2,1.85-2.13,2.35.1,4.06,4.06,3.09,5.47,6.85,1.31,11.16-1,1.08-2.56,3.53-2.39,3.68,8.3,7.27,3.85,16.87,4.48,25.38.68,9-.3,18.15.3,27.18.5,7.62-3.12,16.14,4.54,22.68,1.41,1.21.71,5.07.73,7.71.07,10,.18,19.95,0,29.92-.14,6.17-.83,12.33-1.28,18.49-9.51,5.91,5.1,8.77,1.84,15.34-2.53,5.09-.5,12.44-.51,18.79,0,2.71,1,7.07-.24,7.86-7.16,4.55-2.68,8.14.19,12.15.43.6-.08,1.8.08,2.68,1.33,7.56-3.41,16.35,4.51,22.64a2,2,0,0,1-.19,1.81c-5.9,3.56-3.93,9.38-4.49,14.55-.11,1.07-2,2-3.23,2.8-.17.11-1.2-1.2-1.86-1.82-3.27-3.06-6.73-5.84-5.72-11.27.93-5-1.39-10.32,3.81-14.93,3.51-3.1-3.77-4.35-3.76-7.75.06-11.79-.37-23.59.14-35.36.49-11.3,1.18-11.56-3.52-15.81-3.85-3.48.51-4.42,1.78-5.71,1.73-1.75,1.77-2.41-.41-4.05-1.75-1.32-4.46-2.91-1-5.73,6.05-4.93,3.1-11.93,2.62-17.71-.29-3.46-4.86-6.58-7.72-10.1-1.16,2.22-2.59,3.69-2.62,5.2-.2,10.87.62,21.82-.32,32.62-.83,9.5,3.45,19.26-3,28.68-5.27,7.74-1.73,17.42-2.15,26.21-.49,9.95-.12,19.94-.12,29.91v57.12c0,9.07-.26,18.15.12,27.2.18,4.44-3.92,5.49-5.34,8.54,6.77,4.07,5.2,10.76,5.18,16.88,0,5.2,1.11,10.44-4.1,14.8-1.92,1.6,0,7.12-1.48,10.05-3.86,7.81,12.2,12.37,2.65,21.19-6,5.53-1.62,13.72-2.31,20.65-.71,7.18.81,14.66-.42,21.7-1.27,7.2,5.07,11,5.56,16.84.61,7.21.14,14.5.14,21.75v19c0,16.32.15,32.64-.07,49-.08,6.36-.43,12.38,5.31,17,.75.6-1.1,4.65-2,7-.57,1.41-2.61,3.6-2.48,3.73,9.22,8.11,3.91,18.75,4.46,28.07,1,16.26,0,32.63.38,48.94.14,6.8-2.91,14.54,4.55,19.93,1,.7.68,3.29.75,5,.11,2.72,0,5.44,0,8.16V988c0,6.35.66,12.78-.17,19-1,7.59,4.09,13.23,5.09,19.61,1.81,11.5-.64,23.64.83,35.24,1.56,12.27-6.78,17.61-13.65,24.3-.18.18-5.11-4.54-5.32-4.33-3.1,2.93-7.82,6.12-8.16,9.64-1.06,10.77-.25,21.72-.44,32.6-.12,7.32-9.56,13.55-17.44,11.75-2.82-.64-3.58-2.48-4.53-5.38-2.11-6.46-6.35-11.81-5.45-19.62,1.22-10.71.51-21.63.63-32.46,9.24-7.9,3.42-18.54,5.09-27.82.75-4.17-3-6.17-4.12-9.16-.72-1.91,4-5.44,3.85-8.08-.6-8.48,3.84-18.09-4.82-25.2-.92-.76-.35-3.42-.35-5.2,0-16.32-.06-32.64.14-49,0-.75,2.19-1.65,3.49-2.08.35-.12,1.71,1.17,1.72,1.84.14,6.34-.93,12.91.38,19,1.2,5.58,4.7,10.72,7.65,15.78.5.87,3.57.95,5.05.37,2.78-1.08,3.6-3,.68-5.28-3.21-2.51-4.43-6.42-1.6-9.12,7.24-6.89,4.95-14.86,2.46-22.1-1.1-3.19-4.46-5.06,0-7.81,2.24-1.38,2-2.29-.2-4-1.69-1.29-4.71-2.94-1.12-5.74,1.31-1,2.93-2.7,3-4.12.25-10,.13-19.94.13-29.91-9.16-9.83-4.12-22-5.49-33.1-.61-5,1.15-8.66,5-11.56a18.62,18.62,0,0,1-5.15-13.87c.48-19,.9-38.11-.09-57.1-.58-11.07,5.38-23.39-5-33.32-1.36-1.3-.19-5.24-.19-8,0-18.14.66-36.3-.23-54.39-.59-12,4.61-25-5-36-1.35-1.54-.19-5.28-.19-8,0-14.51.58-29-.18-43.51-.63-12,4.55-25.11-5.26-35.84C556.15,559,557.84,550.9,555,545c-2.38-4.88-2.88-6.53.79-10.13,1.05-1,.36-5.45-1-7-2.57-2.84-4.4-5.42-4-9.43.06-.47-2.27-1.4-3.59-1.71-.38-.09-1.6,1.22-1.6,1.9-.08,28.1.45,56.22-.31,84.31-.32,12,4.76,25.13-5.2,35.83l.54,43.3c8.35,4.4-.66,8.12-.36,12,.67,8.51-3.7,18.14,4.87,25.13-.58,6.79,3.4,14.39-3.14,20.08-2.07,1.81-2.4,2.51-.07,4,3.48,2.17,3.7,5.58,3.71,9.37,0,5.13-1.62,10.53,3.83,14.83,2.8,2.21-2.65,3.5-2.83,5.56-.62,7.09-1,14.23-1,21.34,0,6-1.71,12.33,4.44,17.38,1.86,1.53.87,6.75.89,10.29.08,11.78.14,23.57,0,35.36-.07,5.47.18,10.19,4.9,14.48,2.53,2.3.18,6.49-2.83,9.1-1.14,1-1.37,3-2,4.57-1.55-.64-4.4-1.21-4.44-1.93-.56-9.85-1.48-19.78-.69-29.55.41-5-7.35-7.07-4.06-10.54,6.1-6.4,2.85-13.56,3.58-20.35.06-.51-3.22-2-3.39-1.83-2.68,3.32-7.59,5-7.39,10.51.27,7.25.77,14.59-.08,21.74-1.64,13.77,5.25,28.5-5,41.48-1.77,2.22-.25,7-.25,10.67,0,23.57.54,47.16-.25,70.7-.35,10.24,4.56,21.61-4.4,30.72a26.09,26.09,0,0,1,4.82,16.46c-.42,23.56-.55,47.14,0,70.7.22,9.34-4.35,20,5.1,27.73,0,7.23.17,14.46.13,21.69,0,7.49-5.51,13.42-12.7,13.8-2.71.14-5.44.07-8.15,0-4.92-.11-6.3-1.4-6.32-6.13,0-11.79.12-23.58-.12-35.36-.05-2.4-.77-5.83-2.43-7-8.74-6.06-9.45-14.64-8.29-23.86.95-7.6-2.94-16,4.68-22.7,1.85-1.63.68-6.84.69-10.4,0-22.67-.73-45.37.38-68,.45-9.39-8.48-15.07-6.21-25.06,2-8.61.72-18,.17-27.08-.13-2-3.27-3.91-5-5.85,3.43-2.91,6.46-5.27,1.15-9.9-1.92-1.69-1-6.66-1.32-10.14-.51-6,2.14-12.85-4.69-17.1-.26-5.33-1.69-11-.41-15.91,1.12-4.36,7.34-7.93-.25-11.95-1.06-7.86,2.94-16.81-2.18-23.47-5.86-7.62-2.79-15.53-3.08-23.19-.22-5.8-3.14-9.55-5.31-14.24-2.08-4.49-.77-10.54-1-15.91-6.84-4.17-4.25-11-5-17-1.05-8.49,3.52-17.79-4.38-25.51-1.88-1.84-.53-6.83-1-10.32-1.07-7.59,3.34-16.42-5-22.39-.13-8.11-.93-16.27-.21-24.29.64-7.24-2.15-12.15-7.52-16-4.57-3.27-2.67-8-3.77-12.11-1.23-4.59,8.72-5.35,3.1-10.29-4.19-3.67-2.51-8.19-2.87-12.46s-.54-8.82-1-13.21c-.06-.64-1.29-1.7-1.82-1.61-.73.11-1.39,1.08-1.93,1.8-2.08,2.75-5.66,5.43-5.88,8.34-.73,9.92-.41,19.93-.12,29.89,0,1.37,1.94,3,3.36,3.94,2.35,1.55,2.4,2.46.08,4-3.36,2.16-5.56,6.67-3.06,9,4.66,4.3,5,9,5,14.46-.1,39.88-.25,79.77.08,119.66.08,10.28-3.57,21.51,5.3,30.38-.81,6.78,2.52,14.2-4.5,20.08-1.87,1.57-2.31,8.3-.66,10,7.24,7.61,4.95,16.61,5.1,25.21.24,14.5-.73,29.07.33,43.49.76,10.18-5.28,21.81,5.12,30.42-9.65,7.69-4.6,18.31-5.22,27.65-.72,10.83-.17,21.75-.17,32.63q0,15,0,29.91c0,5.32-3.79,5.2-7.4,5s-6.8.21-9.59,3.27a243.26,243.26,0,0,1-17.32,17.27c-3,2.69-6.61,1.73-9.17-1.46-2.14-2.65-6.05-4.1-5.54-8.6a13.93,13.93,0,0,0-3.85-12.11c-2.89-3.12,4-4.34,3.93-7.86-.09-8.15-.5-16.35.11-24.46.57-7.63-3.29-16.34,4.62-22.55.53-.42.65-1.59.65-2.4q.06-36.72.05-73.43c0-3.33-7.4-4.17-3.68-7.77C406,919.53,403.28,913.25,404.09,907.33ZM512.9,752.39c0-24.42.15-48.83-.12-73.24-.06-5.17,2.6-11.34-1.7-15.43-5.63-5.37-3.09-11.66-3.54-17.59-.4-5.4-.08-10.84-.08-16.27V578.32c0-5.42.69-11-.26-16.23-.58-3.24-8.34-5.35-1.16-9.69,2.7-10.78,1.74-20.62-2.81-32.92-1.85-5-2.9-10.19,1.45-14.67s4.6-11,1.39-14.37c-4.51-4.78-4-9.58-4-14.78-.07-21.7,0-43.4-.16-65.1,0-1.13-1.95-2.24-3-3.35-.64.63-1.86,1.3-1.83,1.91.18,4.9-3.55,7.66-5.45,11.38s-.83,8.86-.4,13.32c.51,5.18-2.73,11.47,1.81,15.39,7.73,6.69-6.53,9-2.29,15.62,2.44,3.81-1.3,10.74,4.62,14.31.39.24.65,1.6.41,1.81-9.17,8.08-3,18.66-4.52,28-.83,5.25-1,10.88,4.71,14.26-4.32,4.7-5.39,10.19-5,16.49.5,7.2.14,14.46.11,21.69,0,6.18-1.14,12.54,5.2,17,.76.54-.19,5.53-1.74,6.93-6.68,6.08-2.14,13.57-3.25,20.28,7.8,4.89,5.1,12.74,5.14,19.54.22,30.74.13,61.48.06,92.22,0,4.54-.38,9,4.07,12,.32.21-.34,2.8-1.18,3.63-3.9,3.84-4.08,7.46,0,11.25s3.5,7.67-.52,11.17c-4.17,3.62-1.55,8.41-2.3,12.62,7.51,6,5.26,14.43,5.38,22.16.21,14.46-.08,28.94.35,43.39,0,1.07,4.11,2.52,6.44,2.84,1.24.17,3.36-1.41,4-2.72.7-1.48.16-3.54.16-5.35Zm68.2-214.86c-1.89,1.78-3.76,3.52-5.62,5.29-.66.61-1.94,1.59-1.81,1.85,1.37,2.82,3.07,5.48,4.49,8.28,2.44,4.79-7.36,6.26-3.58,10.39,4.67,5.09,5,8.6-.13,13.32-3.73,3.45-1.15,8.38-1.47,12.65,5.49,2.63,4.16,9.24,7.62,13.05,5.61-3.81,2.72-9.54,2.88-14.35.42-12.59.3-25.21,0-37.82C583.45,546,585.38,541.2,581.1,537.53Zm73.25,184.71c0,8-.27,16.11.29,24.11.08,1.21,3.93,2.63,6.19,3,1.25.21,4.13-1.65,4.06-2.38-.85-9.21,4.49-19.64-5-27.24,1.48-6.59-3.68-14.41,3.46-19.89,2.19-1.68,2.54-2.75,0-3.79a9,9,0,0,0-5-.77c-1.48.33-3.81,1.78-3.85,2.82C654.2,706.15,654.35,714.2,654.35,722.24ZM529.22,444c0,11.78-.15,18.13.14,24.46,0,1.1,2,2.16,3.13,3.07.09.07,1.12-1.34,1.86-1.81,5.23-3.3,6.14-8.13,5.93-14-.12-3.42-2.51-4.5-4-6.56-3.09-4.25,5-5.41,2.94-7.45-3.39-3.4-4.37-7.29-5.59-11.42-.19-.65-1.34-1.59-1.83-1.47-.75.19-1.82,1.13-1.87,1.81C529.49,436.92,529.26,443.18,529.22,444ZM512.06,883.68c3.27-3.46,9-6.65,1.23-11.32-.13-8.84-.15-17.68-.52-26.51,0-1.21-1.88-2.34-2.89-3.51-.63.63-1.8,1.26-1.8,1.89q0,19.72.29,39.45c0,.64,1.18,1.26,1.81,1.89Zm6.28-631.32c0-4.58.3-7.28-.12-9.87-.24-1.5-1.63-2.83-2.51-4.23-.94,1.31-2.58,2.58-2.68,4-.38,5.12,1.08,10.69-4.54,14.19-.09,0,1.27,3.37,1.81,3.33,2.43-.21,5.65-.35,7-1.89S518.24,253,518.34,252.36ZM502,328a27,27,0,0,0-3.46-1.85c-2.42,3.34-7.77,4.63-7.35,9.89.12,1.53,1,4.19,1.71,4.29C496.92,340.88,502.87,332.53,502,328Zm16.32-16.27a10.49,10.49,0,0,0,0-2.63c-.41-1.56-.69-4.08-1.66-4.42-3.46-1.24-3.28,1.55-3.87,3.94s-2.17,4.37-3.43,6.47c-1.44,2.42-.51,4.46,2.21,4.64C517,320.12,518.35,318.55,518.34,311.77Zm16.33,47.61c0-5.59-2.46-7.71-6.7-6.92-2.73.51-4.53,1.94-4.26,5.33.32,4.1,2.59,6.48,6.72,5.33C532.35,362.59,533.75,360.23,534.67,359.38ZM559,379.43c.71-1.27,2.5-3.15,2.74-5.21.49-4.07-2.29-6.23-6.54-5.44-2.72.52-4.53,1.94-4.26,5.33C551.23,378.21,553.4,380.21,559,379.43Zm62.62-176.51c-1.74-1.82-3.58-3.56-5.2-5.48-1.91-2.27-3.94-2.95-5.44,0a7,7,0,0,0,0,5.13c1.11,3,5.59,4,8.71,2.27A10.82,10.82,0,0,0,621.59,202.92ZM431.29,944c0-1.77.35-3.64-.1-5.28s-1.71-2.81-2.62-4.21c-.9,1.4-2.35,2.7-2.6,4.2a24.47,24.47,0,0,0,0,7.92c.25,1.51,1.7,2.81,2.6,4.2a38,38,0,0,0,2.66-4.2C431.58,945.93,431.29,944.9,431.29,944ZM556.46,341.57l4.53-1.89a23.43,23.43,0,0,0-2-3.66,36.7,36.7,0,0,0-3.66-3.72c-.57-.53-1.23-1-1.84-1.45-.84,1.4-2.24,2.73-2.41,4.2C550.67,338.83,551.78,341.84,556.46,341.57Zm-40-6.34c2.73-1.6,2.83-7,.11-9a2.06,2.06,0,0,0-1.81-.13c-2.77,1.51-2.86,6.92-.13,8.95C515.07,335.37,515.86,335.18,516.48,335.23Zm39.94,18.5,2.72,4.12c.91-1.38,2.67-2.84,2.54-4.11-.26-2.32-1.63-4.52-2.54-6.77C558.23,349.22,557.33,351.47,556.42,353.73Zm-127,558.18c2.73-1.6,2.84-7,.11-9a2.06,2.06,0,0,0-1.81-.13c-2.77,1.52-2.85,6.92-.13,9C428,912.05,428.82,911.86,429.43,911.91Zm71.72-512.39c0-.62.15-1.41-.16-1.83-2-2.73-7.44-2.65-8.95.12a2.06,2.06,0,0,0,.13,1.81C494.19,402.35,499.56,402.24,501.15,399.52ZM584,630.64c-1-2.36-1.53-3.89-2.29-5.31-.12-.22-1.34-.18-1.76.13-2.73,2-2.76,7.81.18,8.74C581,634.48,582.84,631.76,584,630.64Zm-60.21,40c-.61-.6-1.34-1.8-1.79-1.7a17.46,17.46,0,0,0-3.65,1.7c.6.61,1.34,1.8,1.79,1.7A16.5,16.5,0,0,0,523.78,670.67ZM652.41,640l1.94-1.94a17,17,0,0,0-3.65-1.7c-.45-.1-1.19,1.1-1.79,1.7ZM523.78,578.19c-.61-.61-1.34-1.8-1.79-1.7a16.5,16.5,0,0,0-3.65,1.7c.6.6,1.34,1.8,1.79,1.7A17.46,17.46,0,0,0,523.78,578.19Z"/><path d="M902.49,547.73c-8-4.32-12.32-11.86-7.39-19.08,4.62-6.77,5.17-10.45-.89-15.52-.94-.78-1.14-4.39-.36-5,7.92-6.12,5-14.67,5.24-22.38.31-10.87.18-21.76-.11-32.63,0-1-2.78-2.78-4-2.59-2.31.34-6,1.5-6.39,3-1.59,6.62,2.47,14.15-4.25,20.15-2.69,2.42,1.67,4,3.06,5.54,5.85,6.57,6,6.54,1.22,11.58-3.05,3.21-6.26,5.72-5.93,11.24.64,10.84-1.27,22,.59,32.55s-8.2,17.14-6.26,27.81.42,21.69.42,32.56v87c0,2.72.1,5.45,0,8.16-.22,4.55-.4,9,4.14,11.93.45.29.86,1.6.64,1.82-9.2,9.74-4.78,18.91.45,28.57,1.52,2.81.24,7.13.24,10.75,0,20.86.47,41.72-.25,62.55-.26,7.56,7.52,11.55,6,19.57-1.35,7-.28,14.45-.28,21.7v40.79c0,7.26.62,14.58-.18,21.74-.83,7.54,7.52,11.61,5.87,19.58-1.26,6.08-.25,12.64-.25,19-10.86,9.55-3.32,22.12-5.44,33.11-1.42,7.38,8.53,10.9,5.84,19.62-2,6.63-.4,14.38-.4,21.64,9.12,11.81,4.17,25.61,5.55,38.52a5.76,5.76,0,0,0,2.91,3.93c1.48.65,4,.74,5.2-.14,2.88-2.15,6.55-4.57,7.53-7.64,2.29-7.21-2.66-16.39,6-22-.64-.65-1.26-1.3-1.92-1.92-5.48-5.19-5.09-10.81-1.2-16.65,1-1.44,2.68-2.62,3-4.16,1-4.15-1.56-8.95,2.7-12.52,6-5-3-6.12-2.78-10.15.58-10.85.22-21.75.19-32.63,0-6.2,7.41-9.48,5.71-16.84-1.53-6.64,1.88-14.46-5.59-19.61-.83-.58-.79-4.48.07-5.08,5.21-3.64,5.51-8.65,5.36-14.26-.12-4.58-.28-8.49-4.19-12-3-2.74,7.31-5.17,1.16-9.51-4.52-3.2-1.9-8.29-2.44-12.53-.08-.64.88-2,1.3-2,1.3.07,3.71.8,3.68,1-.67,5.17,3.88,7.66,5.47,11.42s.36,8.92.36,13.45c0,27.2.56,54.41-.26,81.58-.36,12,4.84,25.14-5.18,35.83v24.48c0,8.16.09,16.32,0,24.48-.11,7.79,1.85,16.15-5.41,22.22,0,5.44-1.2,11.22.24,16.25,3.26,11.39-5.79,19.81-6.08,30.44-.18,6.57-8.69,10.31-16.75,9.3-1.55-.2-3.07-1.44-4.34-2.51-.48-.39-.26-1.67-.26-2.55,0-3.63,0-7.25,0-10.88v-62.55c-10.29-8.61-3.42-20.3-5.47-30.38-1.18-5.78-7-9.67-5.67-16.84,1.11-6,1.51-13.14-.69-18.6-1.64-4.08-4.3-5.52-.17-10.08,3.69-4.08.94-8.11-4.74-8.7a42.92,42.92,0,0,0-5.44,0c-3.25.08-4.73-1.65-5-4.73-.66-6.82,2.55-14.68-5.26-19.58,1.31-6.7-3.58-14.39,3.42-20.25a5.88,5.88,0,0,0,1.73-4.6c-1.52-10.17,4.43-21.69-5.33-30.4,1-6.76-3-14.41,4.16-20.17,1.26-1,1.41-6.12.31-6.92-5.39-4-3.84-9.44-4.6-14.62-1.37-9.32,4.11-19.63-4.59-28.13-1.86-1.82-.68-6.87-.7-10.43,0-16.32,0-32.64,0-48.95,0-6.15,1.29-12.58-5.09-17.11-.8-.56.06-5.71,1.59-6.91,5.45-4.29,3-9.81,3.34-14.92-6.73-4.06-6.37-11-5-16.79,2.29-9.66-7.24-15.65-6-25,1.06-7.87-.28-16.06-.55-24.1-5.36-3.43-3.16-6,.15-9.82,2.42-2.79-.94-6-2.45-9.22-3.57-7.55-9.92-14.25-8-24,.72-3.71,1.57-6.5,4.2-9.25,2.85-3,2.1-6.4-1-9.19-4.05-3.66-4.22-7.33-.24-11.27.88-.87,1.75-2.81,1.36-3.72-1-2.32-3.77-4.27-3.9-6.48-.49-8.13-.2-16.3-.2-24.46-8.44-6.87-4.85-16.42-5.34-24.95a166.26,166.26,0,0,1,.09-24.45c.48-5.33-2.76-7.93-5.38-11.26,8.88-5.55,3.33-14.87,5.82-22.07A3.28,3.28,0,0,1,831,467c.46-.13,1.6.76,1.82,1.4a23.46,23.46,0,0,1,1.06,5c1.6,13.79-4.12,28.53,5.46,41.26,0,12.7-.46,25.41.16,38.07.42,8.49-3.15,17.6,4.58,25.44,2.3,2.33.65,8.63.69,13.11.06,7.25,0,14.5,0,21.76v19c7.23,5,5.3,12.56,5.42,19.51.11,6.34-.16,12.7.21,19,.06,1,2.77,2.79,4,2.6,2.32-.34,6.38-1.84,6.39-2.91.36-26.28.59-52.58,0-78.86-.12-5.63-6.66-9.76-5.42-16.83,1.08-6.15.22-12.65.22-19s.65-12.77-.13-19c-1.71-13.76,5.15-28.49-5.06-41.47-1.76-2.24-.25-7.06-.25-10.68,0-19.95.21-39.89-.11-59.83-.11-6.79,3-14.62-4.59-19.86-.54-.37-.68-1.55-.71-2.37-.45-10.71-.84-21.42-1.25-32.13-8.67-8.3-2.13-18.87-4.2-28.17-2.23-10.05,5-21.77-5.35-30.47-.45-.38-.1-1.73-.11-2.63V268.17c-11.11-10.53-2.94-24-5.43-35.83-.18-.85.14-2.14-.34-2.53-1.29-1-3.08-2.61-4.31-2.33-2.22.49-5.93,2.12-6,3.37-.43,13.58-.52,27.2-.06,40.78.09,2.8,3.73,5.42,4,8.28.18,1.94-4.11,4.28-4,6.24.69,8.49-3.62,18,4.66,25.31,1.39,1.24.51,5.14.51,7.81,0,10.88,0,21.76,0,32.64,0,4.34-.82,8.61,3.35,12.29,4.69,4.13-4.5,6.05-2.86,7.28,7.43,5.55,4.49,13.09,4.85,19.9.38,7.24-.2,14.52.17,21.75.31,5.95-2.62,12.9,4.38,17.19,0,7.9.13,15.8-.18,23.68,0,.65-3,1.69-4.5,1.64s-4-.91-4.39-2a22,22,0,0,1-.79-7.82c.19-5.49-.22-10.18-4.92-14.48-2.51-2.3-.28-6.65,2.94-9a17.22,17.22,0,0,0,1.92-1.9c-9.71-7.67-4.6-18.33-5.27-27.68a189.85,189.85,0,0,1,.11-29.88c.38-4.38-8.76-5.22-3.09-10.26,4.75-4.21-1.35-5.22-1.82-7.77-.57-3.08,7.46-5,1.24-9.79-2.3-1.77-1.94-6.84-4.18-8.89-4.06-3.71-1.45-5.18.73-8,1.25-1.62,1-4.86.48-7.16-.21-1-2.84-1.89-4.38-1.92s-3.21.93-4.64,1.76c-.56.33-.83,1.48-.9,2.28-1.19,12.94,3.66,26.73-5.47,38.54v51.67c3.8,3.94,7,7.88,0,11.82,1.16,6.73-2.87,14.31,3.77,20.3,1.43,1.28,2.09,5.83,1,7-3.19,3.48-5.05,6.72-4.93,11.73.36,15.4.28,30.82,0,46.23-.07,4.75.8,8.48,4.47,11.91,1.19,1.11,1.05,5.45-.16,7-6.74,8.77-4.68,18.17-2.83,27.65,4.67,2.84,4.13,7.41,4.08,11.92-.1,10,0,19.94,0,29.92v40.79c0,13.6-1,27.29.29,40.77,1.23,12.85-6.08,27,5,38.6a11.14,11.14,0,0,0-1.81,1.87c-1.23,2.19-3.88,5.67-3.21,6.54,8.48,11.15,4.72,23.94,5.06,36,.53,19,.27,38.07.05,57.11-.05,4.75,1,8.29,4.49,11.87,2.67,2.77,1.06,6.43-1.92,9.15-4.33,3.94-3.21,7.88.9,11.1,2.13,1.67,2.4,2.48.37,4a20.67,20.67,0,0,0-3.46,3.64c10.79,10.76,4.53,24.14,4.8,36,.92,39.86.41,79.77.32,119.65,0,18.38,2.4,15.43-15.78,15.67-4.64.06-5.93-1.43-5.93-6.49q-.06-43.51,0-87c0-1.82-.08-3.63,0-5.44a3.59,3.59,0,0,1,.76-2.36c6.55-5.2,6.28-10.18-.16-15.26a12.5,12.5,0,0,1,2.76-3.61c2.25-1.56,2.32-2.41.35-4-3.91-3.1-5.92-6.69-1.69-11.18,1.09-1.16,3-3.49,2.77-3.69-10.24-11-3.29-24.16-4.55-36.18-1.23-11.66-.27-23.54-.27-35.33V786.53c-9.7-12.72-4.05-27.46-5.32-41.28-.49-5.34.57-10.88-5.08-14.25-.16-7.19-.34-14.37-.47-21.56-.12-6.14,1.33-12.64-5.18-17-.87-.58-1-4.48-.16-5,7.39-5.18,5.56-12.78,5.09-19.66-.2-2.9-4-5.51-4.36-8.48-.23-1.8,3.35-3.84,4.44-6.14.61-1.28.22-4.08-.77-4.89-3.92-3.18-4.67-7.05-4.6-11.82q.34-25.83,0-51.67c-.12-10.38,2.06-21.07-5.1-30.6-1.47-2-.41-7.51,1.45-9.84,2.61-3.29,3.5-4.48.18-8.08-4.62-5,1-14.56-7.26-18.81-.56-.29-.33-3.72.56-4.94,2-2.8,5-4.63,4.9-8.94-.32-11.77.74-23.65-.42-35.32-.74-7.35-6.36-13.82-6.4-21.76,0-.39-1.36-1.22-1.8-1.06-.77.29-1.87,1.17-1.88,1.82-.24,14.45.15,28.93-.67,43.34-.54,9.34,4.44,20-5.17,27.71,1.35,8.51-3.13,17.34,3.35,25.84,4.09,5.35,2.62,12.75-.16,19.93-4.3,11.14-5.11,18-.62,27.44,3.71,7.77,4.84,15.23-.25,22-3.22,4.3-1.82,8.44-2.41,12.67,7.87,7,5.21,16.34,5.37,25,.25,13.59-.67,27.25.39,40.76.5,6.45-5.79,8.68-5.77,14.09s.89,11.06-.19,16.28c-1.93,9.42,8.17,15.08,6.07,25.08-2,9.55-.43,19.85-.43,29.82v57.11c0,9.07.23,18.14-.11,27.2-.15,4,1.58,6.49,4,9.35,1.32,1.55,1.88,5.64.79,7.05-6.88,8.9-6.13,16.92-.31,26.31,2.45,4,.83,10.46,1.07,15.8-8.53,7.9-5,18.26-5.32,27.67-.46,14.49-.88,29.06.18,43.49.57,7.76-2.86,13.3-5.72,19.54-6.86,15-6.07,14.83-1.67,34.17,2.11,9.28.86,19.34,1,29,0,1.63-8.36,7.59-10.42,7.57-3.62,0-7.26-.16-10.87,0-3.38.18-5.19-1.61-5.2-4.54-.11-30.82,0-61.64-.17-92.47,0-4.35,3.55-5.88,4.95-8.88.87-1.86-.22-4.92-1.07-7.22s-3.37-4.31-3.6-6.6c-.55-5.39-.18-10.86-.18-16.3q0-76.15,0-152.3c0-4.42-1.4-8-3.29-12.26-3.91-8.69-4.82-18.55,1.82-27.41,1.26-1.69,1.7-6.26.68-7-5.31-3.91-4.69-9.19-4.68-14.56,0-22.66.21-45.33-.09-68-.09-6.79,2.62-14.2-4.4-20.08-1.87-1.57-.89-6.77-.9-10.3q-.08-38.07,0-76.15c0-3.61.29-7.14-3.17-9.59-3.91-2.75-.27-4.44,1.27-5.65,2.76-2.17,2.79-6.07,1.66-7.25-4.82-5.07-8.7-9.54-1.12-15.31.46-.34.84-1.66.66-1.82-9.32-8-3.55-18.67-4.54-28a151.34,151.34,0,0,1,0-29.87c.75-7.88-6.83-11.84-7.12-19-.07-1.66-3.42-1.32-3.46.95-.08,5-2.66,8.08-5.83,11.34-.9.93-.82,4.65,0,5.12,7.2,4.25,2.43,7.67.17,12.14-1.47,2.88-.28,7.11-.28,10.74,0,24.47.68,49-.26,73.42-.54,13.78,5.07,28.46-4.93,41.46-1.75,2.28-.25,7.06-.25,10.69,0,22.66,0,45.32,0,68a21,21,0,0,1-1.12,7.68c-.42,1-3,1.75-4.51,1.69s-4.38-1.24-4.38-1.94c0-9.38-4.68-19.45,4.11-27.74,1-.93.19-5.62-1.27-7-5.14-4.82-4.15-8.09-.13-13.54,3.87-5.27,2.71-11.75-.52-19.86-.86-2.16-2-2.85-.74-5.95,5.24-13.41,4.23-22.51-1.56-40.25-1.07-3.26-2.11-8.59-.44-10.32,6.53-6.75,5.06-14.7,5.14-22.5.1-10,1-20.08-.27-29.88-1.27-9.46,8.42-15.08,6.14-25.07-2-8.62-.41-18-.41-27.1V371.4c0-9.07.22-18.14-.1-27.2-.14-4,1.15-6.6,3.8-9.44,1.41-1.51,1.95-5.08,1.23-7.14-6.55-18.84-6.81-25.09-.34-42.29,1.42-3.78,1.07-6.75-2.09-9.3-4.32-3.5-1.83-8.34-2.5-12.57,7.23-6.08,5.39-14.42,5.41-22.22.07-29.92.15-59.83-.08-89.75-.05-5.18,2.7-11.56-1.73-15.42-5.28-4.59-3.2-9.88-3.52-15-.34-5.41-.08-10.87-.08-16.31,0-2.72,0-5.44,0-8.16-.06-5.44,4.75-7.56,7.94-10.15,2.9-2.34,6.55-.3,9.18,2.71a6.33,6.33,0,0,0,4.51,2c3.39-.2,5.44,1.53,5.47,4.32.19,20.85.24,41.71-.11,62.55,0,2.07-3.6,3.87-4.52,6.2-1.2,3,6.31,3.18,3.08,7.66-1.47,2-3.06,4.25-3.64,6.62-.63,2.56-.15,5.4-.15,8.12,0,29,.13,58-.1,87,0,6.27-.13,12.16,5.14,16.61-2.33,2.57-7.21,5.59-4.78,8.59,7.72,9.51,4.93,20.28,5.07,30.59.34,25.38.08,50.77.14,76.15,0,5.39.75,10.91-4.92,14.29,2.2,2.56,4.35,5.17,6.61,7.68s2.62,2.69-.31,7.66c-2.12,3.6-2.14,6.53,1,9.32,2,1.85,3.47,3.55.39,5.8-4.5,3.3-2.23,8.2-2.77,12.44,8.49,7.91,4.79,18.25,5.37,27.67.46,7.49,1.58,9.43,6.4,8.88,5.17-.6,4.46-4.38,4.59-7.93.24-6.31.89-12.67-5.48-16.79l.15-38c9.46-7.78,4.78-18.38,5.11-27.73.63-18.11.25-36.26.14-54.39,0-5.18,1.68-11-4.18-14.68a7.22,7.22,0,0,1,1.56-3.64c4-4,3.63-7.64-.38-11.27-3.09-2.8-3.59-6-.91-9.26,6.68-8,6.19-15.85.37-24.12-1.32-1.88-2.42-6.16-1.46-7.06,5.44-5.14,7.88-9.79.72-15.32a1.91,1.91,0,0,1-.23-1.83c7.42-7,6.8-13.76-.35-20.66-1-.91-1.2-4.29-.41-5,8-7.16,5-16.54,5.21-25.09.37-15.4.1-30.82.1-46.23v-27.2c9.29-6.68,3.86-16.57,5.58-24.91.48-2.34,2.07-5.18,4-6.36,7.67-4.65,6.71-11.88,6.8-19.08.09-6.5.79-6.87,8.2-6.93,13.41-.11,13.46-.11,13.49,12.57,0,20.85.07,41.7,0,62.55,0,5.44-.34,10.61,4.88,14.49.94.69.33,5.47-1.06,7-6.57,7.09-5.54,15.66-1.45,21.91,3.5,5.35,3,10.08,3,15.14q.21,95.19.09,190.38c0,6.35,0,12.69,0,19,0,8.2,1.27,10.52,4.61,10.67,5.54.24,7.38-4.48,10.55-7.32,1-.92,1.7-4,1-4.77-9.53-10.91-4.56-23.91-5.12-35.94-.74-16.29-.57-32.65,0-48.94.19-4.92-10.42-9.66-.31-14.57q0-8.14.07-16.29c0-6.34,0-12.69,0-19V241c0-6.35-.33-12.72.17-19,.18-2.29,2.62-4.31,3.5-6.65s2.29-6.22,1.33-7.11c-5.57-5.17-7.67-9.83-.7-15.42.26-.21-1-2.51-1.7-3.69-4.08-6.5-4.32-14-1-19.94,2.31-4.09,4.12-7.51,3.82-12.09-.12-1.81,0-3.63,0-5.44V94.54c8.61-6.83,4.49-16.45,5.41-25,.55-5.09,7-10.71,12.88-11,5.56-.24,13.66,5.08,14.33,9.47a6.87,6.87,0,0,1,0,2.71c-3.87,15.11,6.73,26.25,11.38,38.84,1.72,4.67,5.25,8.44,5.13,14.24-.26,11.81.11,11.81,7.51,26.74,1.11,2.25,2.91,4.49,3.07,6.84.58,8,.56,16.13.78,24.2,9,4.1.58,16.4,9.61,20.5.21,5.35-1.64,12.38,1.06,15.71,5.86,7.2,4.69,14.77,5.08,22.56.12,2.52.19,6.37,1.69,7.26,7,4.19.61,12.55,5.69,16.81,3.1,2.6,2.91,6,4,9.29s12.61,3.54,14.48,1c.37-.52.73-1.73.56-1.84-7.59-5.21-4.25-13.05-4.63-19.86-.41-7.23-.09-14.5-.09-21.75,10.3-11.65,5.18-25.76,4.85-38.52-.23-8.74,5.61-14.45,6.09-22.24s-3-16.34,5.26-22.39c.86-.63-.08-3.49.15-5.27.82-6.06-2.75-13.15,2.11-18.06,5.52-5.58,1.85-12,3.42-17.73s7-9.89,5.6-16.88c-.35-1.72,2.81-4.09,4.25-6.23,2.27-3.36,5.78-3.27,9.24-4.09,2.25-.54,3.89-3.6,5.83-5.51,2.5-2.45,4.58-5.68,8.86-4.88,3.69.7,5.21-8.86,10-2.26,2.81,3.89,10.68,0,11,8.74.2,5.28,4.22,11.29,8.19,15.34,5.38,5.49,9.44,10.61,7.69,18.72-.82,3.79,1,6.49,3.44,9.51,3.06,3.72,2.8,9.57,6.94,13-1.28,1.28-2.63,2.51-3.81,3.88-.36.42-.59,1.55-.32,1.85,9.49,10.55,12.15,23.36,9.69,36.59-1.42,7.62,7.61,9.61,6.1,16.92-1,4.71-2.5,10.84,3.3,14.83,1.13.78,1.74,3,1.75,4.6.08,11.76,0,23.53-.18,35.29,0,.65-1.58,1.93-1.78,1.81-1.24-.72-2.86-1.57-3.27-2.75a9.61,9.61,0,0,1-.07-5.37c3.4-12-6.57-21.41-6.33-32.78-4.18-2.85-5.26-6.92-4.62-11.69,1.47-11-3-20.29-9-28.86-1.43-2-2.08-2.32-.18-4.07,1.35-1.24,5.4-2.31,1.66-5.71-5.26-4.79-11.18-9.32-8.88-18.1,1.22-4.69-2.53-7.9-4.23-11.8-3.69-8.49-9.77-16.05-11.7-25-1.54-7.12-6-5.1-10-5.42s-5.54,1.34-7,5.64c-2.22,6.47-5.71,12-5.34,19.64.83,17.18.35,34.43.22,51.66-.07,8.64,2.13,17.77-5.18,25.16-.7.7,1.68,4.43,2.6,6.77.5,1.27,1.58,3.5,1.29,3.7-4.4,3-4.21,7.42-4.16,12,.14,12.69,0,25.38,0,38.08s1,25.48-.29,38c-1.21,12,6,25.32-5.1,35.87,1.91,2.8,5.83,4.12,5.45,8.61-.73,8.58,2.28,17.85-5.38,25.07-.9.85.44,3.73-.21,5.27-4.32,10.28,12.32,17.81,3,29.46-7.23,9-1.6,20.85-2.68,31.36-.22,2.15,1.49,4.94,3.09,6.75,4,4.49,2,7.52-1.2,11.4s-3.57,5.36,0,9c4.8,4.77,2.9,9.82,3,14.94-6.86,4.08-5,10.84-5.07,16.91-.07,5.24-1.45,11,4.4,14.52a3,3,0,0,1,.95,2.27c.06,10,0,19.94,0,29.91,8.32,7.94,4.92,18.21,5.38,27.67.31,6.33.21,12.69,0,19-.17,5.5.61,9.93,4.86,14.49,3.28,3.53-.66,10.59-6,13.61-10.61,6-13.54,14.05-7.07,26.56,2.78,5.36,3.52,10,2,14.87-4.82,15.12-7.62,20.91-3.07,27.17s3.73,11.68,3.78,17.61c.25,25.38-.21,50.77.29,76.14.16,8.47-3.8,18.17,5,25.06,2,10.26-2.51,20.93,3.58,31.2,5.2,8.76,1,19.32,2.23,29,.34,2.73-.12,3.64-2.79,2.62-.77-.3-1.21-1.37-2-1.85-11.56-7.45-11.14-7.47-11.79-16.47-.56-7.61,3.64-16.54-5.17-22.29q-.08-10.85-.14-21.7c8.23-5.75,6.24-11.47.06-17.31-.45-.43.11-1.79-.09-2.65-2.07-9.28,4.46-19.89-4.32-28.12-.37-9.82-.87-19.64-1.05-29.47s-.26-19.95.05-29.91c.16-4.81-2.68-8-4.27-11.87-2.22-5.44.91-13.22-1.61-18.34-8.42-17-3.82-34.88-5-52.32-.24-3.67-1.48-6.38-3.21-9.62a26.66,26.66,0,0,1-.12-25.24c2.15-4,1.32-4.82-.46-8.1s-1-8.34-1.12-12.61c0-.62,1.1-1.57,1.87-1.81.45-.14,1.25.82,1.88,1.28,4.47,3.27,6.77,7.78,7.77,13.12a2.16,2.16,0,0,0,1.81,1.06c.78-.3,1.87-1.18,1.88-1.83.24-15.35.2-30.71.58-46.06.12-4.46-3.22-6.09-5.52-8.6a7.23,7.23,0,0,0-3.8-1.71c-.4-.08-1.57,1.23-1.58,1.91-.12,6.34.24,12.71-.17,19C904.17,537.44,906.55,543,902.49,547.73Zm-25.08-169c0-15.41,0-30.82,0-46.23,0-3.54,1-8.61-.86-10.34-7.36-6.79-2.48-15.46-4.8-22.67A93.7,93.7,0,0,0,861.93,279c-2.85-4.59-.58-12.28-.91-18.57-.18-3.42.22-8.3-1.77-9.93-5.44-4.47-4.43-10.32-3.27-14.92,1.9-7.52-9-9.48-5.83-16.89,3.31-7.75-3.63-13-5.45-19.46-.44-1.58-1.65-2.93-2.51-4.39-1,1.31-2.84,2.72-2.73,3.93,1.38,14.71-4.53,30.33,5.3,44,1.14,12.94-3.68,26.72,5.44,38.53v62.54c7.46,4.93,5.16,12.57,5.44,19.5s-2,14.58,5.44,19.5c-.79,4.22,2,9.12-2.25,12.65-3.1,2.56-5,6.72-2.33,9.05,5,4.28,4.61,9.23,4.6,14.58,0,16.32-.09,32.63.11,48.94,0,1.38,1.6,3,2.87,4,1.63,1.25,12.35-.5,12.55-2a18.94,18.94,0,0,1,5.67-11.42c1-1,.2-6-1.2-6.89-5.21-3.22-2.88-9.74-7.27-13.68-3.86-3.47,4.15-5.43,3.9-10.39C876.87,411.36,877.41,395,877.41,378.7Zm27.11-37.09a51.59,51.59,0,0,0,1,8.75c.24,1,2.83,1.5,4.41,2a9,9,0,0,0,2.7.05l7-14.94c-6-3.54-4.22-9.49-4-14.57.38-7.64-3.27-16.45,5.31-22.17a13.31,13.31,0,0,0-1.93-1.9c-4.72-3-4-7.9-3.3-12.09.51-3,4.72-6,4.19-8.29-.69-2.9-4.61-4.68-4.53-8.95.15-8-.42-16-.83-24.05,0-.62-1.28-1.72-1.82-1.64a3.26,3.26,0,0,0-1.9,1.81c-1.38,3-2.09,6.53-4,9.12-1.44,1.92-2.48,2.81-.66,3.94,4.72,2.92,4.41,7.54,3.85,11.95-1.06,8.44,3.86,18.22-5.36,24.89,1,6.75-2.78,14.27,3.82,20.24,1.4,1.27,1.92,6.29,1,6.92C902.86,327.25,904.9,333.81,904.52,341.61Zm.09,35.2c0,5.35-.15,10.72.16,16.05,0,.81,3,2.37,3.26,2.11,2.66-2.32,6.83-4.79,7.12-7.57.91-8.83.47-17.82.16-26.74,0-1-2.7-2.77-3.94-2.62-2.33.29-6.28,1.49-6.45,2.74C904.19,366,904.61,371.45,904.61,376.81ZM783.26,526.51c1.68-.22,3.48-.13,5-.73,2.48-1,2.48-2.36.41-3.7-3.27-2.14-4-5.22-4.09-9,0-1-4.13-2.65-6.37-2.67-2.67,0-4.21,1.84-4.29,5.18C773.68,525.68,774.31,526.66,783.26,526.51Zm-52.75-8.06c0-.89,0-1.79,0-2.67-.24-4.27-2.64-6.37-6.66-5.56-2.75.56-4.73,2-4.26,5.36.24,1.74,0,3.55.06,5.33.21,4.26,2.63,6.37,6.65,5.55,2.74-.56,4.8-2,4.24-5.35A15.72,15.72,0,0,1,730.51,518.45Zm59.85,58.42a6.66,6.66,0,0,0-.06-2.61,38.06,38.06,0,0,0-2.62-4.19,33.93,33.93,0,0,0-2.72,4.07c-1.06,2.19-1.34,5-2.89,6.65-2.19,2.38-2.3,3.93.38,5.5.66.38,1.74,0,2.6.08,3.33.5,4.72-1.52,5.25-4.24A27.94,27.94,0,0,0,790.36,576.87ZM781,450.33c-5.59,0-7.71,2.45-6.92,6.7.51,2.72,1.94,4.53,5.33,4.26,4.1-.32,6.48-2.6,5.33-6.73C784.22,452.65,781.86,451.24,781,450.33Zm129,46.12a36,36,0,0,0-.09-5.3c-.1-.7-1.36-1.89-1.75-1.77-1.29.41-3.35,1.21-3.44,2a65.79,65.79,0,0,0-.08,10.6c0,.65,1.37,1.88,1.76,1.76,1.28-.41,3.06-1.07,3.44-2.08C910.48,500.15,910.05,498.22,910.05,496.45ZM704,415c-.86-2.54-1.61-4.9-2.51-7.2a2.08,2.08,0,0,0-1.76,0c-2.58,2.93-2.58,11.44,0,14.37a2.08,2.08,0,0,0,1.76,0C702.36,419.87,703.11,417.51,704,415Zm57.33-7.3c-.62,0-1.41-.15-1.83.17-2.73,2-2.65,7.43.13,8.94a2,2,0,0,0,1.8-.13C764.13,414.64,764,409.27,761.3,407.68Zm55.83-190.61,3.15,4.77c.91-1.38,2.67-2.84,2.54-4.11-.26-2.32-1.63-4.52-2.54-6.77Zm98.73,375.49c-1-2.36-1.54-3.89-2.3-5.31-.12-.23-1.34-.18-1.76.13-2.73,2-2.75,7.8.18,8.73C912.87,596.39,914.7,593.68,915.86,592.56ZM784.49,553l3.15,6.11c.91-2.26,2.28-4.46,2.53-6.78.14-1.26-1.62-2.73-2.53-4.11C786.73,549.64,785.82,551,784.49,553Z"/><path d="M189.14,184c5.93,6.41,12,12.92,19.1,20.6,0,17.89-.71,37.84.27,57.71.55,11.07-5.42,23.4,5,33.32,1.36,1.3-.14,5.29.24,8,1.73,11.95-4.46,25,5.2,36,1.35,1.54-.11,5.32.24,8,1.57,12-4.26,24.88,5.13,36,1.79,2.13,0,7.07.32,10.66.68,6.79-2.46,14,4.23,20.21,2.35,2.18.64,8.51,1.2,12.9,1.06,8.48-3.34,17.9,4.73,25.34,1.41,1.31.61,5.12.64,7.77.06,6.35-.17,12.7.07,19,.23,6.16-1.22,13.88,1.89,18.07,4.51,6.08,3.17,11.83,3.36,17.77.18,5.55,7.45,7.58,5.78,14.11-1.08,4.26-.2,9-.2,13.55,0,5.44,1,11.11-.23,16.27-1.87,8,6.69,12,5.87,19.58-.77,7.08.13,14.35.3,21.53,8.14,6,5.65,15.18,4.46,22.36-1.51,9,6.82,14,6.18,22.33-.5,6.68-3.15,14.69,4.75,19.66l-4.91,5.77c10.35,8.61,3,20.34,5.4,30.33,1.36,5.72,7,9.77,5.59,16.85a45.45,45.45,0,0,0,0,16.24c.69,4,3.34,7.63,5.25,11.37a41.17,41.17,0,0,0,2.78,4.11c.88-1.45,2.5-2.89,2.52-4.35.19-13.6.11-27.21.11-40.81,0-4.53-.7-9.21.21-13.55.84-4,4.83-7.61,4.83-11.39s-3.28-7.54-5-11.37a7.15,7.15,0,0,1-.05-2.7c0-26.3-.09-52.59.17-78.88,0-2.21,2-4.69,3.72-6.51s1.48-2.34-.6-4c-4.13-3.29-4.87-7.08-.8-11.2,1-1,2.2-3.36,1.89-3.67-7.23-7.23-5.66-13.32.32-20.95,2.45-3.13,2.91-10.55-2.8-14.38a5.46,5.46,0,0,1-1.65-7.24c2.1-3.38,7.45-5.67,1-9.76-.42-8-1.34-16-1.11-24,.2-6.78-2.51-13.85,4-20.25,3.17-3.1,2-9.35-1.41-14.53-4.49-6.9-4.18-7.52.68-16.39,1.09-2,2.39-2.69.34-3.95-6-3.71-3.17-9.64-3.72-14.73,5.46-3.3,5.63-8.49,5.48-14.1-.12-4.57.13-8.94-4.24-12-.28-.19.64-2.58,1.39-3.68,4.39-6.44,4.83-14.57,1.18-19.83s-3.83-9.66-3.84-14.87c-.05-49.86,0-99.73-.09-149.6,0-5.53,0-10.58,5.1-14.42.85-.63-.3-4.9-1.39-7.06-5-9.85-4.51-12.86.15-18.75,4.3-5.41,10.2-5.27,14.58-3.61s9.13,5.39,8.9,12c-.31,9.06,0,18.14-.1,27.2,0,3.43,6.85,4.11,3.89,7.93-6.38,8.25-6.09,15.92-.29,24.2,1.36,1.94,1.75,4.87,1.78,7.36.18,11.78-.62,23.62.28,35.34.92,12-4.74,25.14,5.24,35.84,0,10,.26,20-.19,29.92-.1,2.18-2.91,4.14-4.08,6.4a8,8,0,0,0-1,4.93c.92,4,8.5,7.72.32,12,9.72,11.74,3.8,25.57,4.68,38.39.49,7.25,7.43,11.61,6,19.53-1.25,7-.27,14.46-.27,21.72s-.64,14.58.21,21.73c.68,5.76,6.87,9.77,5.44,16.86-1.05,5.22-.21,10.83-.21,16.28V530c0,6.34,1.11,13-.28,19-1.71,7.4,5.93,10.46,5.81,16.86-.27,14.5-.13,29,0,43.52a22.06,22.06,0,0,0,1,7.72c.42,1.06,2.94,1.8,4.49,1.77a6.25,6.25,0,0,0,4.46-2c.89-1.24.83-3.32.83-5,0-39.89-.08-79.79.16-119.68,0-5-1.4-8.6-5.19-11.51,5.38-3.89,4.63-7.73-.11-11.54,9.23-7.87,4.65-18.42,5-27.79.62-17.2.37-34.45.07-51.67-.1-5.93,2.26-12.4-4.1-17.51-1.91-1.52-1.15-6.67-1.19-10.16-.12-10.88.21-21.77-.12-32.64-.3-10.35,2.59-21.31-5.23-30.51-.63-.75.19-3.7,1.23-4.7,2.74-2.63,5.14-4.8.57-7.81-.74-.49-1.74-1.2-1.85-1.92a36.36,36.36,0,0,1-.08-5.43V240.88c0-6.35-1.1-12.94.27-19,1.68-7.37-5.62-10.79-5.66-16.85-.15-19-.19-38.08.05-57.12.06-4.23-2.57-10.36,2.3-12.3,4.69-1.87,10.61-.9,16-.67,1.18.06,3.18,2.23,3.23,3.49.32,7.24.1,14.5.18,21.76.05,5.24.55,9.7,3.94,14.81S361.29,188,357.9,195c-5.62,11.58-3.08,24.14-1.46,36.37,6.05,3.55,4,9.48,4.07,14.61.14,21.76-.62,43.55.34,65.27.48,11.07-5.5,23.48,5,33.25.9.84.12,3.5.12,5.32v29.92c0,5.44-.32,10.9.08,16.31.44,5.95-1.59,11.93,3.46,17.74,3,3.46-5.48,7.23-3.8,13.2,1.38,4.9-1.07,10.92,4.82,14.36.29,8,.37,16.09.94,24.11.49,6.8-2.93,14.68,4.83,19.74.05,7.7,3.52,16-4.56,22.24-.91.69-1,4.48-.22,5,7.38,5.18,4.5,12.82,5.47,19.65,1.09,7.64-2.52,15.24,3.35,23.21,5.21,7.09,1.5,17.38,1.87,26.25.35,8.14,0,16.32.12,24.48.1,5.17-1.72,11,4.15,14.69.21.13-.92,2.42-1.44,3.7-3.77,9.31-4.17,9.69.46,16.52,3.23,4.77,2.92,8.07-1.17,11.27-2.15,1.68-2.14,2.26-.39,4s3.5,4.27,3.62,6.54c.43,8.14.06,16.32.2,24.47.14,7.79-1.68,15.93,5.21,22.44,1.36,1.28.33,5.24.17,8-.29,5-9.29,7.87-4.35,13.52,3.14,3.58,2.93,8.68,5.76,11.17,5.43,4.78,1.16,6.48-1,10-2,3.22.06,6.91,3.39,9.13,2.07,1.37,1.84,2.38-.39,3.94-1.22.85-2.83,3.48-2.67,3.63,7.31,6.93,7.55,13.65.14,20.74-1,.94-1.35,4.43-.71,4.87,9.17,6.34,2.19,17.29,7.11,24.31,2.46,3.5,3.7,4.85,0,8.06-1.48,1.29-2.24,6.26-1.36,6.91,5.17,3.85,4.41,9.08,5.19,14.41,1.38,9.37-4.69,19.9,4.12,28.23.31.3-.84,2.74-1.8,3.67-2.95,2.87-4.15,6.61-1.14,9.19,7.16,6.15,3.78,10.33-1.13,15.46-.92,1-.29,3.46-3,2.42-.77-.3-1.83-1.2-1.86-1.88-.4-7.13-.26-14.32-1-21.41-.76-7.62,3.25-16.31-4.77-22.57-.94-.74-.54-3.36-.55-5.11-.05-7.26-.84-14.63.2-21.73,1.14-7.74-3.75-13.12-5.3-19.63-1.63-6.86-.36-14.42-.36-21.67s-.29-14.52.1-21.76c.24-4.45-5.31-5.73-4.95-8.5s4.3-4.6,5.1-8.71c2.18-11.2-7.7-19.39-6.54-30.08-6.75-5.22-5.84-10.09.32-15.2.95-.78,1.19-4.31.4-5-7.33-6.26-5.14-14.64-5.19-22.38,0-3.88-.53-7.08-3.89-9.31-2-1.34-1.66-2.26.45-3.92,4.12-3.26,5.08-7.19.79-11.11-2.27-2.08-2.86-3.73-.1-5.83,4.43-3.36,2-8.27,2.63-12.5-8.92-8.85-4.5-20.11-5.4-30.39-.61-6.88,2.23-14.64-5.45-19.51.61-5.08-2.29-11.05,3.78-14.74,2-1.22,1.79-2.61-.61-3.81a4.38,4.38,0,0,0-2.49-.47c-1.65.3-3.71.45-4.73,1.5s-1.37,3.14-1.37,4.78c-.06,54.4,0,108.81-.13,163.21,0,4.7.79,8.36,4.38,11.92,2.75,2.73,1.29,6.41-1.72,9.14-4.27,3.88-3.45,7.82.68,11.12,2.07,1.65,1.52,2.19.72,4-4.86,11-5.81,19-1.73,27.31,1.57,3.22,3.28,5.83,3.25,9.59-.14,18.13-.86,36.31.21,54.38.76,12.89-5.3,26.94,5.17,38.57,0,10.88-.24,21.77.07,32.64.26,9.47-2.31,19.26,5,28,1.92,2.27,1.67,8.5-2.45,12.23-1.64,1.48-3.19,6-2.42,6.77,9,9.11,4.77,20.38,5,30.6.62,24.46-.42,49,.51,73.43.36,9.39-3.45,15.14-9.67,20.62-1.35,1.2-2.44,3.42-3.88,3.64-2.35.35-5.57.25-7.19-1.12-3.22-2.72-7.41-5.14-6.85-10.69.61-6-1.86-12.84,5-17-1.57-1.92-3.14-3.85-4.72-5.77,7.35-5,5.08-12.55,5.21-19.43.15-7.25,0-14.5,0-21.76,0-37.17.07-74.35-.06-111.52,0-7.75,2.1-16.21-5.38-22.23.72-4.22-2-9.2,2.41-12.58s4.61-9.7,2.68-12.08c-7.1-8.74-4.3-18.5-5.16-27.95-1.28-13.82,3.58-28.15-5-41.52-2.48-3.85.3-10.74-.53-16.05-1.58-10.18,4.74-21.49-4.9-30.74-1.82-1.76-.38-6.95-.39-10.56,0-10,.32-20-.1-29.91-.38-8.83,3.19-18.73-2-26.25-6.57-9.52-1.25-19.28-3.39-28.62-1.32-5.73-6.81-9.72-5.65-16.84s.25-14.46.25-21.72c0-6.34-.28-12.71.11-19,.25-4.14-2.07-6.36-4.35-9.18-2.54-3.14-1.45-6.45,1.51-9.26.9-.85,1.73-3.45,1.46-3.63-4.35-3-4.26-7.38-4.22-12,.14-16.32.17-32.64,0-49-.07-5.24.95-12.14-1.87-15.32-4.48-5-3.16-10-3.44-15.07-.3-5.43-.07-10.88-.07-16.32-8.27-5.84-5-14.39-5.2-22.13,9.29-7.84,5.11-18.48,4.83-27.76-.25-8.32-6.82-15.55-5.33-25a84.53,84.53,0,0,0,0-24.4c-.77-5.62-4.13-10.9-6.44-16.29-.23-.53-1.4-1.17-1.83-1a4.12,4.12,0,0,0-1.91,1.85,5.81,5.81,0,0,0-.4,2.54q0,16.32,0,32.65c0,10.88.85,21.84-.24,32.61-1,10.19,5.27,21.83-5.16,30.43,10.45,8.59,4.05,20.23,5.17,30.4,1.08,9.85.23,19.92.23,29.9,0,10.88.14,21.76-.06,32.64-.09,5.14,1.29,10.31-3.82,14.88-3.07,2.75,4.32,4.33,3.84,7.81C299.5,588,304,597.29,296.17,605c-1.88,1.85-.86,6.82-.86,10.36,0,40.8,0,81.6-.08,122.41,0,5.48-.2,10.59,5,14.45.9.67.13,5.32-1.25,7-5.36,6.49-5.7,12.58.22,18.65,1.56,1.59.5,2-.55,4-4.72,8.86-4.23,9-.78,16.56,3.73,8.22,4.41,8.7-.35,16.47-2.74,4.46-1.57,8.51-2.23,12.73,7.23,6.09,5.3,14.43,5.42,22.23.1,6.35,0,12.69,0,19V885.2c0,6.35.95,12.88-.25,19-1.3,6.56,5.78,8.59,5.74,14.12-.13,18.13.31,36.28-.24,54.4-.19,6.09,2,9.85,5.86,14.06s6.69,9.82,9.64,15c.34.58-1.31,3.32-2.08,3.34-7.21.18-14.43,0-21.65-.1-3.33-5.55-9.68-3.52-14-5.62-8.52-4.17-16.79-9.7-15.92-22,.61-8.52,2.66-17.94-5.22-24.93,0-5.44.6-11-.13-16.31-1.4-10.25,4.39-21.58-4.37-30.86-.29-.31,1.16-2.62,2.13-3.7,5-5.51,1.24-12.1,2.37-18.07-8.86-7.84-4.17-18.33-5.5-27.66s4.43-20-5.38-27.68c-.06-9,.8-18.23-.65-27.05-.56-3.38-6.48-5.89-.44-9.69-1-4.69-5.85-7.83-4.54-13.66,1-4.32,2.08-10.58-.15-13.29-8.59-10.46-4.19-22.25-4.94-33.39-.74-10.83-.16-21.75-.16-32.63-9.94-8.68-4-20.21-5.26-30.41-.64-5.42-7.3-7.55-5.86-14.1,1.12-5.14.08-10.76,0-16.17-7.84-4.13-1.72-7.88.1-12,.58-1.3.15-4.06-.85-4.89-6.64-5.5-5.57-10.24.5-15.32.94-.78,1.13-4.42.37-5-7.07-5.25-5.4-12.73-5.19-19.66.1-3.45-2.62-4.42-3.88-6.62-2.43-4.22-2.24-4.27.5-9.27,1.2-2.2,3.7-5.78,3-6.62-6.89-8.46-5-18.31-5.2-27.86-9.85-10.72-4.17-23.82-5.34-35.84-.61-6.28-.94-12.82.13-19,1.11-6.4-5.4-9-5.58-14.11-.33-9.05.25-18.15-.21-27.19-.31-5.94,2.07-12.07-3.21-17.77s-1.23-13.81-2-20.8c-.66-6.27-.14-12.68-.15-19-10.48-8.58-3.75-20.25-5.25-30.42-1-6.84,1.14-14.36-5.62-19.48v-19c-9.88-13.67-4-29.29-5.35-44-.51-5.39-.09-10.87-.09-16.31-8.87-8.87-4.3-20.13-5.55-30.38-.29-2.36-2-4.56-3.14-6.82-2.64-5.4-3.17-5.83-.41-9.19C181.77,195.89,181.39,187.4,189.14,184ZM279,815.19c0-.91.37-2.33,0-2.63-6-4.28-6.66-10.61-5.19-16.71,1.57-6.53-6-8.38-5.72-14,.31-6.26,0-12.56-.19-18.84,0-.66-1.39-1.18-1.8-1.94-2-3.68-3.84-7.42-5.74-11.13-5.23,2.74-3.09,7.67-2.93,11.55.67,16.48-3,33.28,5,49.29,2.48,5-.47,11.4,4.53,17.21,5.19,6-1.29,12.66-4.08,18.77-.54,1.17.49,3.3,1.24,4.77,1.15,2.24,3.74,4.23,3.87,6.44.48,8.09.19,16.22.19,24.33,7.5,6,4.94,14.4,5.51,22.09.05.7,1.24,2,1.64,1.87a9.2,9.2,0,0,0,3.82-1.78c3.24-2.76,6.6-4.85,1.45-9.87-2.21-2.16-2.53-10-.49-12,4.47-4.57,4.08-9.34,4.49-14.61.58-7.28-2.18-13.1-5.05-19.61-2.66-6.05-1.16-13.91-1.65-21-.05-.68-1.13-1.38-1.85-1.9-3.57-2.53-.49-3.93.82-5.78A29.15,29.15,0,0,0,279,815.19Zm5.44,114c0-4.41.52-8.92-.29-13.17-.27-1.42-3.83-2.87-6-3.12-2.87-.34-4.8,1.64-4.51,4.77.15,1.59.44,3.67,1.49,4.59,4.85,4.27,5.95,8.51.44,12.85-2.07,1.63-2.35,2.42-.32,3.85,1.42,1,2.41,2.59,3.81,3.65a9.28,9.28,0,0,0,3.72,1.63c.43.08,1.58-1.16,1.61-1.83C284.47,938.05,284.4,933.64,284.4,929.23ZM251.76,726.45c0,6.21,0,9.77,0,13.32,0,.79.22,1.94.75,2.29a14.87,14.87,0,0,0,4.47,2c3.17.76,5.85-1.47,5.41-3.85-1.35-7.28-6.91-13.41-6.15-21.43.06-.56-1.16-1.74-1.79-1.74a2.6,2.6,0,0,0-1.81,1.76C252.13,722.21,251.85,725.65,251.76,726.45ZM360.57,545.54c0,3.57-.09,7.15.08,10.71,0,.68,1.26,1.94,1.66,1.83,1.3-.34,3.51-1.14,3.54-1.83.26-7.13.2-14.28.08-21.42,0-.65-1.27-1.93-1.67-1.82-1.3.33-3.44,1.07-3.53,1.84A100.19,100.19,0,0,0,360.57,545.54Zm-5.41,119.73c-1.52-1.52-2.22-2.73-2.74-2.66-2.41.34-5.59.31-6.91,1.81s-.61,4.55-.51,6.92c0,.64,1.65,1.8,1.69,1.77C349.56,670.57,352.35,667.93,355.16,665.27ZM306.53,353.18c-1-2.36-1.53-3.89-2.29-5.31-.12-.22-1.34-.18-1.76.13-2.73,2-2.76,7.81.18,8.74C303.54,357,305.38,354.3,306.53,353.18ZM345,627.93l1.94,1.94a17.46,17.46,0,0,0,1.7-3.65c.1-.45-1.1-1.19-1.7-1.79C346.31,625.61,345.66,626.79,345,627.93Z"/><path d="M1002.53,995.77c0,10.4-.25,17.65.15,24.85a10.88,10.88,0,0,0,3.13,6.72c3.26,3,1.66,6.65,2.18,10,.68,4.45-3.92,5.67-5.22,8.7-1.68,3.92,2,9.15-2.11,12.63-3,2.6-3.89,5.62-3.93,9.33,0,.43-3.17,1.52-3.54,1.11-2.54-2.81-5.35-3.83-9.22-4.3-3.49-.43-4.4-4.72-2.33-8.63,1.33-2.51,6.5-4,1.55-7.7-6.23-4.63-9.4-10.31-8-18.46a46.69,46.69,0,0,0,0-13.51c-.29-2.33-2.62-4.34-3.34-6.7-2.43-8-9.83-14.39-7.47-24.08,2.18-9-1.18-17.06-5.29-24.88-.29-.56.19-1.68.55-2.42,1.21-2.44,2.4-2.47,3.84-.47,2,2.81,5.22,5.16,6.23,8.26,1.83,5.65-2.46,12.32,3.21,17.71,5.34,5.08,1.15,12,2.56,17.89a5.75,5.75,0,0,0,3.54,3.28c1.52.46,3.4-.25,5.12-.5.23,0,7.53-18.21,7.53-18.55,0-14.46.14-28.92-.12-43.37,0-2.73.29-3.93,2.77-2.59a5.92,5.92,0,0,1,2.67,4.17c.29,6.31.12,12.64.12,19C1007.5,973.83,999.67,987.2,1002.53,995.77Z"/><path d="M1018.77,654.93c-.47,4.29,2,10.16-3.58,13.91-2.19,1.47-2.06,2.35.22,3.91,5.59,3.81,4.53,10.15,2.64,14.43-1.68,3.8-4.49,6.71-4.89,11.59-.68,8.47,4.43,18.09-4.14,25.26-.35,8.88-.83,17.75-1,26.63s0,18,0,27.05c0,2.71-.07,5.42,0,8.12.24,7-8.13,11.1-5.81,19.49,1.57,5.69-.13,12.31-.54,18.5,0,.67-1.09,1.55-1.86,1.85-2.65,1-3.68,0-2.67-2.64,2.4-6.35-5.93-8.35-5.52-14a87,87,0,0,0,0-13.51c-.35-4,1.71-6.35,3.91-9.31,2.89-3.85-3.94-4.45-3.83-7.84,0-.9-.39-2.17.06-2.65,8.43-8.94,4.29-20.05,5.46-30.26,1-8.45-3.41-17.69,4.41-25.36,1.87-1.84.51-6.79,1-10.27,1-7.56-3.16-16.21,4.77-22.45.95-.75.59-3.33.6-5.06,0-8.12-.6-16.3.22-24.34.68-6.61,8.26-11.55,5.41-19.47-.14-.38,2.06-1.78,3.33-2.36.28-.13,1.76,1.15,1.78,1.8C1018.84,643.35,1018.77,648.75,1018.77,654.93Z"/><path d="M632.59,589.52c-.11,1.77.5,4.25-.43,5.2-9.9,10-3.57,22-4.38,33.06,11.9,10.62,1.9,20.79-.66,31.09a5,5,0,0,1-1.29,2.17c-.47.48-1.41,1.08-1.85.9-.77-.32-1.85-1.17-1.87-1.83-.24-7.2-.38-14.41-.38-21.62,0-6.22,1-12.51-5.28-17-1-.71-1.12-5,1.68-7.17,4-3.1,4.72-6.32,1.53-11.27-5-7.72-4.52-8.4-.81-16.5,3.63-7.91,3.77-7.88,0-16.66-4.4-10.17-2.75-20.61-1.21-31,.06-.41,1.38-1.07,1.81-.89.77.32,1.91,1.25,1.86,1.83-.43,5,3.69,7.66,5.47,11.4s.29,8.88.41,13.41c.19,6.93-2,14.45,5.3,19.66C633.33,584.86,632.59,587.71,632.59,589.52Z"/><path d="M986.63,911.75c0-8,0-15.92.08-23.87,0-.64,1.18-1.27,1.81-1.9,1,1.08,3,2.14,3,3.22.19,16,0,32.07.25,48.1,0,2.68-.28,3.87-2.72,2.55a5.74,5.74,0,0,1-2.71-4.05c-.26-8-.13-16-.13-24Z"/><path d="M942.25,624c1.75,1.06,4.25,1.94,5.72,3.7.88,1.06.36,3.49.13,5.26-.84,6.47.3,12.12,5.34,16.82.78.73.38,3.69-.44,5-2.54,4-4.06.12-5.59-1.21-2.7-2.37-4.95-5.28-7.74-7.53-3.32-2.69-.78-4.11.85-5.79,4.18-4.3,2.44-7.84-1.35-11.16-.68-.6-1.28-1.27-1.92-1.91Z"/><path d="M1008,273c0-4.37,0-8.75.11-13.11,0,0,2.21-.34,2.43,0,2.88,4.89,6.18,9.66,8.11,14.92,1.08,2.94.12,6.8-.59,10.11-.21,1-2.66,1.69-4.2,2.07a4.4,4.4,0,0,1-5.71-3.56C1007.53,280.11,1008,276.54,1008,273Z"/><path d="M942.69,863.81c3.23-.61,5.23,1.4,5.31,4,.32,9.55.13,19.11.13,28.67-3.23.61-5.23-1.4-5.31-4C942.5,882.93,942.69,873.36,942.69,863.81Z"/><path d="M1018.86,314.11c0,2.68.3,5.42-.17,8-.16.93-2.14,1.7-3.42,2.15-.37.12-1.76-1.14-1.77-1.78-.13-7.14-.2-14.29.07-21.42,0-.79,2.15-1.68,3.43-2.12.37-.13,1.75,1.13,1.77,1.78C1018.93,305.19,1018.86,309.65,1018.86,314.11Z"/><path d="M959,934.6c0,2.65.42,5.41-.18,7.92-.29,1.2-2.41,2.43-3.9,2.76a9,9,0,0,1-4.9-.77c-2.59-1-2.42-2.27,0-3.73,5.84-3.57,2.83-9.48,3.65-14.4.12-.71,1.38-1.89,1.77-1.77,1.29.41,3.27,1.16,3.44,2.06C959.31,929.24,959,932,959,934.6Z"/><path d="M1018.86,616.81c-.1.65-.35,3.22-.91,5.72-.16.73-1.19,1.27-1.81,1.9-.63-.63-1.76-1.22-1.81-1.89-.42-5.21-.84-10.44-.78-15.66,0-1.41,1.68-2.81,2.59-4.21.9,1.4,2.34,2.72,2.6,4.23C1019.17,609.49,1018.86,612.22,1018.86,616.81Z"/><path d="M948.13,906.9c0-2.61.34-5.28-.09-7.82s.24-3.79,2.64-2.51a5.62,5.62,0,0,1,2.76,3.87c.19,5.15-.1,10.33-.39,15.48,0,.65-1.6,1.84-1.69,1.76-1.16-.87-2.87-1.81-3.09-3C947.81,912.18,948.13,909.51,948.13,906.9Z"/><path d="M969.23,806.68c.86-2.54,1.61-4.89,2.52-7.19a2.05,2.05,0,0,1,1.75,0c2.58,2.93,2.58,11.44,0,14.36a2.06,2.06,0,0,1-1.75,0C970.84,811.58,970.09,809.22,969.23,806.68Z"/><path d="M964.45,763a34.66,34.66,0,0,1,.09-5.3c.1-.7,1.36-1.89,1.75-1.77,1.29.41,3.35,1.21,3.44,2a67,67,0,0,1,.08,10.6c0,.65-1.37,1.88-1.76,1.76-1.28-.41-3.06-1.07-3.45-2.08C964,766.73,964.45,764.8,964.45,763Z"/><path d="M986.21,867.13c-.09.64-.35,3.19-.91,5.67-.17.73-1.18,1.26-1.81,1.89-.62-.63-1.7-1.19-1.8-1.89a58.91,58.91,0,0,1-.78-10.25c.07-1.43,1.68-2.79,2.58-4.18a37.2,37.2,0,0,1,2.66,4.21C986.5,863.3,986.21,864.32,986.21,867.13Z"/><path d="M964.45,730.38c0,1.77.43,3.7-.15,5.25-.38,1-2.16,1.68-3.45,2.09-.39.12-1.72-1.11-1.75-1.77a66.85,66.85,0,0,1,.07-10.59c.1-.83,2.16-1.63,3.44-2,.39-.13,1.65,1.07,1.76,1.77A35.88,35.88,0,0,1,964.45,730.38Z"/><path d="M1018.86,373.7c1.27-1.32-2.65-5.65,2.55-4.81,1.14.19,2.63,2.38,2.75,3.75a58.25,58.25,0,0,1-.39,10.13c-.06.66-1.57,1.82-1.68,1.74-1.17-.83-2.88-1.75-3.09-2.89C1018.54,379.12,1018.86,376.48,1018.86,373.7Z"/><path d="M959,709.35c-.09.64-.35,3.19-.91,5.67-.17.73-1.18,1.27-1.81,1.9-.62-.63-1.71-1.19-1.8-1.89a59,59,0,0,1-.78-10.25c.07-1.43,1.67-2.79,2.58-4.18a38,38,0,0,1,2.66,4.2C959.3,705.52,959,706.55,959,709.35Z"/><path d="M1022,347.43c2.36.6,3,5,1.15,8.74a3.68,3.68,0,0,1-1.82,1.64c-2.49.95-3.25.07-2.55-2.5.63-2.3.89-4.69,1.5-7C1020.43,347.9,1021.44,347.72,1022,347.43Z"/><path d="M1018.86,368.73c-5.11.39-5.75-3.1-5.34-6.75.3-2.72,2-4.75,5.34-4.13Z"/><path d="M981.14,841.27c-1,2.37-1.53,3.9-2.29,5.32-.12.22-1.34.18-1.76-.14-2.73-2-2.76-7.8.18-8.73C978.15,837.44,980,840.16,981.14,841.27Z"/><path d="M1022.44,493c-.62-.05-1.41.14-1.83-.17-2.73-2-2.65-7.44.13-8.95a2,2,0,0,1,1.8.13C1025.27,486,1025.17,491.4,1022.44,493Z"/><path d="M632.4,691.05c.14,1.26-1.62,2.73-2.53,4.11-.91-1.38-2.68-2.85-2.54-4.11.26-2.32,1.63-4.52,2.54-6.78C630.77,686.53,632.15,688.73,632.4,691.05Z"/><path d="M953.94,679.61c-1.16,1.11-3,3.83-3.87,3.55-2.94-.93-2.91-6.71-.19-8.73.42-.32,1.64-.36,1.76-.14C952.4,675.71,953,677.24,953.94,679.61Z"/><path d="M1005.55,259.92c-.84-1.07-2.62-2.7-2.36-3.13,1.91-3.28,3.46-1,4.73.75a2.38,2.38,0,0,1,0,2.29C1007.48,260.24,1006.36,259.92,1005.55,259.92Z"/><path d="M556.42,937.25a16.5,16.5,0,0,1-3.65,1.7c-.45.1-1.18-1.09-1.79-1.7a17.46,17.46,0,0,1,3.65-1.7C555.08,935.45,555.82,936.65,556.42,937.25Z"/><path d="M554.49,906.55,551,904.61c.61-.6,1.34-1.8,1.79-1.7a17,17,0,0,1,3.65,1.7Z"/><path d="M1023.51,421.2l-1.93,1.93a16.79,16.79,0,0,1-1.71-3.65c-.09-.44,1.1-1.18,1.71-1.79Z"/><path d="M556,888.73c-.63.63-1.52,1.79-1.72,1.68a10.85,10.85,0,0,1-3.21-2.47,1.63,1.63,0,0,1,2.3-2.3A19.68,19.68,0,0,1,556,888.73Z"/><path d="M997.09,828.15c-1.07.84-2.7,2.62-3.13,2.36-3.27-1.91-1-3.46.75-4.73a2.4,2.4,0,0,1,2.3,0C997.41,826.22,997.09,827.34,997.09,828.15Z"/><path d="M973.4,821.07l1.93,1.93a17,17,0,0,1-3.65,1.71c-.45.1-1.18-1.1-1.79-1.71Z"/><path d="M952.79,664.45l-1.94,3.5c-.6-.6-1.8-1.34-1.7-1.78a16.82,16.82,0,0,1,1.7-3.66Z"/><path d="M663,663c.63.63,1.79,1.52,1.68,1.72a10.93,10.93,0,0,1-2.47,3.2,1.63,1.63,0,0,1-2.3-2.3A19.1,19.1,0,0,1,663,663Z"/></svg>