<svg id="Layer_1" data-name="Layer 1" xmlns="http://www.w3.org/2000/svg" viewBox="0 0 1200 1200"><title>BB_Artboard 89</title><path d="M947.39,734.7c-1.28,1.92-2.12,2.6-2.12,3.28-.08,11.26-.31,22.52.05,33.76.16,4.89-2.71,11.25,2.41,14.29,3.21,1.91,8.4.83,12.66.55,5.43-.36,7.22,6.92,13.49,5.49,4.94-1.12,10.34-.22,15.53-.22s10.4.17,15.59,0c7.64-.31,12.74,8.17,21.16,5.88,1.25-.34,3.65,3.32,5.42,5.22,2.56,2.75,2.44,6,.25,8.88-6.32,8.31-14.82,7.1-22.86,4.43-2.85-1-5-3.75-8.88-3.69-16.44.24-32.9.08-49.35.11-4.31,0-5.48,1.37-5.52,6.37-.05,6.92-.22,13.86.09,20.77.13,2.7,2,4.44,5.2,4.08,2.56-.29,6.64.94,7.52-.3,6-8.44,10.57-3.1,17-.29,4.7,2.07,7.18,3,6.62,8.25a36.79,36.79,0,0,0,0,7.78c.35,3.25-1.86,5.81-4,5.07-10.9-3.76-18.74,7.44-29.11,5.48-.58-.11-1.45.72-2,1.28a3.72,3.72,0,0,0-1.25,2c-.09,6.06-1.12,12.37.22,18.12,1.64,7.07-5.67,10-5.56,16.09.28,15.58,0,31.17.2,46.75,0,2.67,2,4.16,5.25,4,6.92-.25,13.86-.24,20.78,0,6.17.18,12.65,11.41,10.13,17.62-.53,1.31-2.29,2.91-3.55,3-6.05.31-12.12.06-18.18.15-10.08.15-14.47,5-14.53,16,0,7.8-.24,15.6.09,23.38.17,3.88-1.63,6.17-3.88,8.9-1.23,1.5-1.67,5.29-.63,6.76,7.2,10.22,7.07,19.9,0,30.23-1.63,2.4-1.11,6.69-.64,10,.33,2.24,2,4.24,4.85,1.28a11.37,11.37,0,0,1,6.49-2.89c9.8-1.1,20.08,2.41,29.27-5,2.63-2.11,8.42-.56,12.71-.18,1.3.11,3.38,1.81,3.49,3a82.45,82.45,0,0,1,.11,13c-.23,3.66-6.63,9.71-10.18,9.9-2.59.13-5.51.8-7.73-.11-8.59-3.56-13.44,6.12-21.29,5.46-6.85-.57-13.79,0-20.69.07-8.33,9.65-19.4,3.39-29.13,4.81-4.28.63-8,.67-11.39,4.21-2.58,2.7-6.09,1.39-8.77-1.43-.81-.86-2.7-1.68-3.54-1.3-1.47.68-2.32,3-3.77,3.4-7,2-15.73-2.72-21.06,5.63-7.79,0-15.59-.28-23.35.18-4.94.3-11.21-2.78-14.52,1.89-2.08,2.94,0,8.48-1.36,12.34a83.87,83.87,0,0,1-8.31,17.29c-2.24,3.58-6,6.22-9.68,9.93-5.28-5.28-10.41-10.77-15.95-15.81-3.15-2.87,0-3.73.91-5.61,3.72-7.93,2.73-12.93-3.34-17.66-1-.74-3.34-1.43-3.5-1.16-3.57,5.65-9.18,3.73-14.09,3.81-10.38.19-20.79.43-31.16-.1-5.06-.26-7.4,3-11,5.19-7.17,4.34-6.85,13.31-12.69,18.3-3.06,2.62-6.72,3.75-8.89,1.65-5-4.79-9.06-11.92-15-14-6.93-2.46-15.38-.58-23.18-.58-6.06,0-12.14.28-18.17-.08-5.25-.32-7.55,1.09-8,6.87-.22,2.72-3.75,5.62-6.44,7.48-1.66,1.14-4.57.61-6.91.53-.63,0-1.35-1-1.82-1.76-4.85-7.45-12.06-8.46-20.15-7.94-4.27.27-6.57,2-5.81,6.08,1.14,6.06-2,9.91-6.26,13-1.8,1.29-5.4,2.4-6.78,1.48-3.54-2.35-6-6.25-9.44-8.82-2.48-1.86-5.82-2.58-8.77-3.8,1.39-10.78-6.66-7.34-11.92-7.64-1.17-.07-3.48,1.82-3.52,2.87-.3,7.78-.08,15.58-.2,23.37,0,3.41-6.48,9.69-10.15,9.92-3.45.22-6.94-.18-10.38.11-3.18.26-4.53-1.35-5.42-4-2.32-6.93-7.08-13.21-5.22-21.23.95-4.13-2.64-6-4.93-8.3-.94-1-3.17-2.3-3.51-2-11.13,9.89-25,.54-36.91,5.44-2.82,5.59-1.59,11.72-1.16,17.49.48,6.57-7.55,9.22-6.16,15.79.1.47-1.17,1.78-1.74,1.73-5.81-.44-12.11,2.25-17.33-1.67-2.56-1.91-5.33-4.9-5.89-7.81-1-5-.37-10.34-.23-15.53.12-4.25-1.83-5.49-5.93-6.2-3.8-.66-7.27-3.24-10.88-5-14.8,10.22-31.49,3.25-47.21,5.12-3.15.38-4,6.93-7.46,3.63-4.78-4.51-8-4.78-12.91-.15-2,1.87-6.47,2.18-9.48,1.56-3.81-.78-7.19-4.32-10.91-4.59-2.6-.19-5.29,4.13-8.24,4.63-8.77,1.47-17.11.55-22.58-8-.91-1.43-2.4-2.48-3.77-3.84-.34-3.87,3.54-4.82,5.4-7.15,2.14-2.7,5.05-4.77,7.22-7.45,3-3.67,6.51-4.65,11.15-4.63,33.76.19,67.53,0,101.3.2,4.65,0,8.3-.91,11.09-4.69,1.29-1.73,4.07-2.78,1-5.65a10.24,10.24,0,0,1-2.86-6.48c-.34-7.78-.08-15.58-.15-23.37,0-6.08-2.94-7.55-10.43-6.79-5.13.52-7.24,6.91-13.47,5.54-4.95-1.09-10.34-.1-15.53-.25-7.24-.21-10.13,4.44-12.59,10.24-2.25,5.32-5.94,6.9-8.66,4.38-2.54-2.35-5-4.79-7.35-7.35-6.25-6.85-12.7-11.15-21.54-3.62-1.63,1.39-4.68,1.49-7.09,1.51-16.45.12-32.9-.27-49.34.19-9.84.27-20.55-3.37-29,5.07H227.24c-11.25,0-22.51.1-33.76,0-7.56-.09-13.46-8.32-12.07-15.92.9-4.94,7.23-7.28,6.14-13.24-.05-.24,4.33-1.88,6.65-1.89,29.43-.13,58.87-.08,88.31-.08,19.05,0,38.11-.43,57.14.23,6.55.22,9-4.09,12.52-7.49.93-.9,1.35-3.94.64-4.7-9-9.49-4.14-21.11-4.83-31.74-.31-4.9-2.35-7.74-5.34-10.91-2.38-2.53-3.55-1.38-5.68.22-1.83,1.37-5.79,3-6.54,2.23-9.52-9.5-21.3-3.15-31.82-5-8.19,10-19.34,3.55-29,5-5,.76-4.68,3.65-5.09,7.08-.13,1.1-1.87,2.06-3,2.91-.09.07-1.64-1.1-1.69-1.75-.3-4.35-.34-8.14-6.67-8.25-6.94-.11-13.32.4-18.63,5.37-9.52,0-19.3-1.35-28.51.36-10.12,1.88-16.75-8.33-26.53-5.74-.71.19-2.95-2.12-3-3.34-.32-6-.3-12.12-.08-18.17.11-2.81,1.76-4.75,5-4.27,4.3.65,5.27-4.73,8.25-5,6.84-.6,14-1.08,20.59.4,3.42.76,6.44,7.07,10.59,3.81,3.94-3.1,5.93-4.53,9.61-.1.88,1.06,5,.69,6.69-.45a19,19,0,0,0,6.58-7.53c1.57-3.65-2-5.89-4-8.59-1.83-2.45-2.82-8.21-3.87-8.13-8.43.6-7.51-4.86-7.48-10.07,0-7.79-1.34-15.89.34-23.3,2.3-10.15-8.71-16.69-5.71-26.55.16-.52-2.25-2.28-3.68-2.72a9.54,9.54,0,0,0-5.14,0c-7,2-13.13,6.45-21.28,5.35-7.65-1-15.55-.22-23.35-.22a83.33,83.33,0,0,0-10.37.14c-1.42.17-2.52,2.15-4,2.81-2.18,1-5.15,2.74-6.73,2-2.94-1.42-6.77-4.1-7.27-6.81-1.06-5.59-1.29-11.89.34-17.23a10,10,0,0,1,9.78-6.94c6.91.29,13.89-.41,20.76.19,9.44.81,18-1.39,26.5-5.17,2.16-1,5.13-.17,7.72-.14,3.72,0,6.76-.53,6.54-5.42-.19-4.32-.91-8.89.15-12.94,2-7.6-3.19-12.6-5.41-18.66-2.05-5.56-10-10.78-.71-16.8-.78-3.8-5.11-5.62-4.67-10.54.77-8.59-.58-17.4.45-25.93.9-7.4-2.58-12.72-5.39-18.68-5.52-11.72-5.42-11.77-1.35-27.39.16-.64.87-1.68.74-1.77-7.66-5.87-4.09-14.23-4.49-21.51-.56-10.36-1.16-20.9.14-31.13,1.38-10.87-6.21-15.52-12.38-20.8-2.6-2.22-8.08-1.15-12.26-1.43-6.61-.44-7.12-.59-6.74-7.71.26-4.86-2-10.17,3.45-14.21s8.45-11.28,17-9.3c3.07.72,5.31-1.17,5.36-3.8.24-15.58,0-31.17.22-46.75.07-4.06-2-6.55-4.7-8.44-7.94-5.48-5.52-13.63-5.68-21-.05-2.53,8.59-9,11.7-8.08,9.17,2.63,15.33-6,23.89-5.5s17.31.11,26,.11,17.31,0,26,0c4.52,0,5.82-1.43,5.87-6,.11-9.08-4-13.63-13.2-14.74-6.56-.79-9.22-3.72-7.45-9.49a96,96,0,0,1,6.66-15.4c6.79-13.26,2.77-21.17-11.38-21.85-2.59-.13-5.27.36-7.75-.18a4.88,4.88,0,0,1-3.1-3.36,89.12,89.12,0,0,1-.08-13c.16-2.82,1.79-4.16,5-4.4a10.88,10.88,0,0,0,10.22-9.52c.67-6.35,2.81-13.84-4.54-18.79-2.39-1.61-1.85-2.08-.42-11.1.53-3.31.83-7.25-.48-10.12-2.65-5.86-7.67-10.83-9.45-16.83-1.65-5.57-.36-12-.36-18.08-9.39-10.24-3.92-22.75-5.1-34.22-.46-4.51,1.25-5.82,5.89-5.91a100,100,0,0,1,10.39.05c3.5.3,9.49,7,9.57,10.48.15,6,0,12.1.3,18.13,0,.49,3,1.58,3.4,1.21,2.44-2.65,5-4.14,8.85-4,9.51.32,19,0,28.57.16,5.27.11,7.31-4.22,9.91-7.21,2.44-2.8.94-6.14-1.89-8.76-5.11-4.72.94-14.22-7.38-17.7,3.24-9.8-7.24-16.27-5.88-26.42,1.06-7.89-5.14-15.06-10.61-21.31-2.89-3.31-6.47-1.58-9.68-1.64s-5-1.57-5.06-4.29c-.13-5.64-2.1-12.84,8-11.95,1.11.1,2.37-2.34,3.67-3.48,2.5-2.2,2.54-2.16.21-7.36-4.47-10,.87-19.49,11-19.88,3.64-.14,6.21.95,9.11,3.31,3.71,3,2.85,8.27,5.6,10.62,3.72,3.19,2.27,9.15,5.48,10.49,2.45,1,6.66-3.21,10.17-3.39,10.37-.52,20.77-.15,31.16-.2,7.95,0,11.36-5.26,8.72-13.22-8.65-3.91-1.28-15.33-9.19-19.58-.32-6.79-.3-13.63-1.15-20.36-.27-2.12-3.32-3.76-4.24-6-1.24-3,6.12-3.55,2.77-7.15-1.39-1.5-4.8-.91-6.8-2.11-2.16-1.29-3.77-3.52-5.57-5.39-.5-.53-1.3-1.65-1.19-1.77,3.59-3.75,7.05-7.69,11.07-10.94,1.7-1.38,4.61-1.72,7-1.74,16.45-.14,32.91,0,49.36-.12,5.18,0,5.19-2.08,2-5.73-1.45-1.66-2.1-4.49-2.15-6.81-.24-9.52-.13-19-.09-28.57,0-4.12,7.55-8.14,11.41-5.48,7.51,5.22,16.12,10,14.6,21.59-.33,2.56.45,5.31-.13,7.77-2.55,10.76,5.23,17,12.07,20.56,6.05,3.14,14.77,1.17,22.31,1.31.6,0,1.14-1.26,1.85-1.73,5.78-3.81,7.08-10,3.45-17.73-.69-1.47-3.19-2.71-3.05-3.84.75-6.31-1.95-11-5-16.26-1.89-3.22-.35-8.45-.35-12.78,0-18.09-1.24-14.19,15.5-14.53,3.59-.08,10.34,6.35,10.43,9.61.16,5.19.22,10.39,0,15.58s1.21,9.29,4.57,13.86c2.48,3.4-.56,10.4,1.06,15,1.18,3.38,5.77,7.57,9.12,7.84,11.9.95,23.91.37,36.78.37.2-11,3.33-21-4.73-29.63.25-5.09-1.39-11.7,1.19-14.91,3.77-4.68,3.69-9.07,4.14-14.09.24-2.66,2.56-3.45,5.46-3.88,5.95-.88,10.8,1.29,13,6.08,2.95,6.51,9,12,7.5,20.3a27.4,27.4,0,0,0,0,7.78c1,9.23-2.26,18.75,2,27.75,10.31.2,20.62.5,30.92.45,1.16,0,3.25-2,3.29-3.12.22-5.12-.15-10.25-.3-15.38-9.13-8.52-3.58-19.48-4.27-29.25-.21-2.88,4.86-6.37,7.93-9.11.89-.79,3.78-.56,4.84.31,3.32,2.74,6,6.23,9.33,9,3,2.5,3.58,5.36,3.49,9-.22,9.52-.14,19.05,0,28.57,0,3.53,6.49,10,10,10.07,6.93.13,13.85.08,20.78,0,5.08,0,7.39-3.83,4.56-8.52-1.7-2.81-4.88-4.67-4.23-8.68,1.8-11.1-8.83-20.19-5.18-31.61-5.49-4.12-5-10-5.4-16-.46-7.52,1.06-13.42,7.45-17.83,2.1-1.46,3.42-4.42,5.63-5.21a8,8,0,0,1,6.83,1.33,33.27,33.27,0,0,1,11.34,23.74c.51,13,.89,26-.16,38.93-.61,7.44,3.24,12.56,5.23,18.73.9,2.79,1.63,4.84,4.35,5.06,4.3.34,10.23,1.9,12.69-.24,8.31-7.24,17.76-3.78,26.69-5,2.48-.34,3.85-2.57.86-4.9-5.78-4.5.26-13.62-7.15-18.07-1.64-1-.74-6.41-.79-9.79-.09-6.93-.06-13.86,0-20.78,0-2.15,4.25-4.72,5.79-3.4,5.09,4.35,10,8.92,15,13.41-1.23,7,8.71,10.55,5.47,18.74-1.43,3.59-1.32,9.41.75,12.34,2.5,3.53,3.1,7.76,5.46,10.71,1.52,1.92,6.13,1.51,9.39,1.84,2.57.26,5.26-.33,7.77.13,5.28,1,7.68-2.84,10.63-5.8,4.1-4.1,2.19-7.41-1.27-10.77a8,8,0,0,1-1.78-4.4c-.9-5.63,1.28-11.32-3.41-17-2.65-3.18.33-10.82-2.16-14.44-7.56-11-3.78-22.92-4.9-34.42-.62-6.36,4.3-10,8.35-11.56s10.37-2.29,13.79,3.47c1.24,2.09,2.89,4,3.75,6.23.58,1.51.11,3.42.11,5.16,0,7.79-.27,15.59.08,23.37.33,7.34-3,15.71,5.12,21.23,0,7.79,0,15.58,0,23.38,0,5.19,7.28,7.17,5.83,13.3-.3,1.25,9.83,3.56,11.75,2A9.94,9.94,0,0,0,810,131a61.79,61.79,0,0,0,0-13c-.55-5.3,3.53-7.43,6.39-10.35,2.46-2.53,6.13-2.13,8.81.54,3,3,6.19,5.37,6,10.64-.12,2.74,4.34,4.2,5.16,8.17,1.53,7.43,6.75,11.26,14.91,10.29,4.3-.51,5.49-1.9,5.7-6.37s-1.66-7.66-4.32-11.32c-3.93-5.4,2.47-13.51-3.87-19.14-5.19-4.61,1-14.16-7.31-17.87-.67-.29-.69-3.46-.1-4.93,3.4-8.49-5.91-13.56-5.49-21.17-8.72-7.54-4.69-17.37-4.13-26.27.16-2.63,4.36-5,6.72-7.51,3.35,3.35,6.56,6.28,9.41,9.52,1.57,1.79,3.67,4.17,3.58,6.19-.27,5.52,1.91,9.3,5,13.71,2,2.89.37,8.39.4,12.72,0,.83-.11,2.23.28,2.41,8,3.68,1.89,13.46,7.41,17.68,5.73,4.39-.41,11.85,5.32,16.15,4.94,3.69,2.92,9.75,2.28,14.41-.92,6.7,4,10.68,5.28,16.11.63,2.75,1.25,5.39,3.86,5.46,6.81.2,13.76.3,20.41-.92,2.61-.47,5-4.32,6.51-7.17.45-.86-2.56-3.52-4-5.36,5.46-3.25,4.69-8.58,4.58-13.69-.39-18.2,0-13.69,15.82-14.17a8.64,8.64,0,0,1,4.18,1.84c-2.45,7,13,11.74,2.6,19.65-.68.52-1.72,1.21-1.74,1.84-.13,5.19-1.64,11.12.35,15.38,2.53,5.42,9.25,2.4,14.13,2.65,7.77.39,15.58.1,23.37.1,9.35,9,21,4.2,31.63,5.08,9.15.75,15.15,7.64,13.47,17.06-.25,1.4-1.64,3.39-2.83,3.67-2.47.57-5.16.17-7.76.17-24.24,0-48.48-.07-72.73.06-5.29,0-5,2.22-1.85,5.71,4.62,5.11,1.6,11.49,2,17.27.6,7.91.38,8.06,9.08,8.12,6.06,0,12.14.28,18.18-.07,4.62-.27,7.71,1.54,11.3,4.36,4.3,3.39,7.62-.83,10.53-3.9,3.59,3.9,7.89,5.76,13.28,4.86,1.69-.28,3.75-.62,5.14.07,4.58,2.25,5.2-8,9.93-3.13,2.76,2.84,5.73,2.94,9.19,3.15a11.31,11.31,0,0,1,6.68,2.4c2.32,2.17,6,3.67,5.56,8-.36,3.42-6.46,10-10,10.19s-6.93-.09-10.39.06c-6.59.27-14-2.2-18.63,5.15-7.33-9.26-17.5-4.33-26.43-5-8.6-.68-17.3-.19-26-.14-7,0-7.26.29-7.37,7.12,0,2.6,0,5.2,0,7.8.07,12.27,4.08,16.21,16.89,16.23,29.44.05,58.88,0,88.32,0,10,0,15.32,6.08,14.2,16.21-.16,1.48-1.18,3.75-2.27,4.07-2.38.7-5.06.46-7.62.46q-45.45,0-90.91,0c-7.14,0-13.26,5.46-13.38,11.92-.13,6.92-.18,13.86.11,20.77,0,1.26,1.68,3,3,3.52,1.47.62,3.4.14,5.13.14,5.2,0,10.55.78,15.55-.2,6.1-1.19,7.87,5.77,13.48,5.55,12.1-.48,24.25-.55,36.35,0,6.58.3,14-2.9,19.68,2.4,5.36,5,11.49,1.5,17.13,2.66,4.45.91,9,7.84,9,13.67s-.73,7.05-4.83,7.07c-11.25.05-22.53-.43-33.76.17-7.84.42-12.48-8.18-21.33-5.7-6.42,1.8-13.75.35-20.68.35H950.33c-3.46,0-6.92,0-10.39,0-4.17.06-5.17,1.2-5.08,6.78.1,5.78-1.83,12.27,4.76,16.19.29,7.56.58,15.11.92,23.78,14.58,0,28.3-.36,42,.16,6.58.25,14-2.86,19.67,2.44,5.36,5,11.51,1.43,17.14,2.62,5.17,1.09,9.8,9.45,8.92,16.31a6,6,0,0,1-2.38,4.07c-1.32.75-3.31.36-5,.37-5.2,0-11.18-1.58-15.35.49-3.62,1.8-4.71,8.15-7.79,11.73-4.38,5.1-8.66,10-17.2,8.87-8.06-1.09-17-2.33-23.91,4.77-.61.61-3.09-.43-4.63-.93-5.39-1.76-11.81.68-11.89,4.93-.22,11.25-.23,22.51,0,33.76.06,2.66,2.59,3.21,5.17,4.18,6.13,2.32,11.41,6.69,18.76,5.07,3.3-.73,6.9-.17,10.36-.12,8.6.12,17.19.29,25.79.44,5.75,7.83,14.14,4.13,21.42,4.61a220.42,220.42,0,0,0,26,0c5.3-.27,7.42,3.59,10.34,6.44,2.53,2.46,2.21,5.81-.59,8.79-4.17,4.44-8.15,9.62-14.51,2.27-1.29-1.49-4.58-1.69-7-1.72-12.11-.16-24.29.63-36.34-.29-10.6-.81-22.42,4.79-31.63-5-6.06,0-12.13-.13-18.18,0-5,.14-4.5,3.95-4.52,7.37-.06,7.15.59,8.13,6.34,8.16,13,.06,26,.28,39-.1,6.48-.19,13.36,2.35,19.27-4,2.07-2.24,8.12-1,12.35-1,12.85-.06,16.63,3.76,16.61,16.5,0,9-.13,10.09-10.22,9.07-7-.7-10.32,5.29-16.07,5.51-6.91.27-13.85.06-20.78.06-6.06,0-12.15-.4-18.17.1-9.24.76-18.76-2.39-27.73,2-.18,9.45-.49,18.9-.5,28.35,0,5.06,6.29,11.08,11.53,11.13,10.39.11,20.78,0,31.17.07,2.48,0,6.47-.33,7.19.94,4,7,11.37,2.19,16.11,5.44a23.23,23.23,0,0,1,5.46,5.51,7.29,7.29,0,0,1,1.13,4.65c-.27,2.77-1.76,4.32-5,4.27-11.25-.17-22.51-.06-33.77-.06-9.52,0-19,0-28.57,0-4.22,0-5.14,1.21-5.27,6.62q-.09,3.88,0,7.79c.13,5,1.21,6.32,5.54,6.35,6.93.05,13.85,0,20.78,0,6.06,0,12.12,0,18.18,0,5.58.07,11.77,4.93,12.6,10.11.86,5.4-.15,10.25-5.27,13.37-1.38.84-2.72,2.22-4.18,2.37a99.75,99.75,0,0,1-10.38.12c-6.06,0-12.91-1.77-18,.48-5.38,2.39-10,5.52-16.27,5-.84-.07-3.36,4.39-2.79,5.85,1.81,4.67,4.73,9.11,10.56,9.38,6.05.27,12.15-.36,18.17.16,9.23.79,19.22-3.2,27.58,2.22,9,5.84,18.41,1.09,27.41,2.95,1.5.3,2.78,1.59,4.2,2.36,3.5,1.88,8.59,2.92,10.09,5.81,1.39,2.72,1.29,6.37,4.27,8.59,1.56,1.15,1.23,3.44-.94,3.49-15.53.4-31.08.36-46.63.46-6.41-8.66-15.69-4.56-23.8-5.08-8.62-.55-17.3-.15-26-.11-4.89,0-7.38,4.35-3.88,8.65,3,3.71,4.26,7.07,3.88,11.49s2,5.88,6.08,5.86c17.31-.08,34.63,0,51.94,0,3.47,0,7-.22,10.39.05,6,.47,12.68,13.63,9.26,18.25a6.14,6.14,0,0,1-4.11,2.38c-19.91.15-39.83.1-59.74.1ZM927.31,604.81h2.31c0-.77.31-1.76,0-2.27-1.21-1.71-2.69-3.85-4.52-.72-.24.42,1.46,2,10.14,13-.46-3.23-.41-5.86-1.33-8.08-.44-1-2.77-1.28-4.24-1.89.82,4.19-5.24,5.47-4.54,8,.8,2.89,4.48,5,6.92,7.41C933.14,618.25,934.27,616.32,927.31,604.81ZM487.13,277.5c7.69,0,15.4.23,23.07-.12,2.6-.12,4.8-2.42,3.66-5.27s-4.23-5.26-4.85-8.2c-.86-4.09-.06-8.51-.26-12.77-.23-5-5.54-7.35-6.18-13-.48-4.3-7.36-1.93-11.36-2.11-5.74-.25-12.07-1.57-15.91,4.81-6.8.1-13.6.15-20.4.34-.68,0-1.92.87-1.9,1.28a6.52,6.52,0,0,0,1.08,3.59c1.62,2,3.34,4.83,5.43,5.24,5.73,1.13,1.94,3.3.67,4.54-3.38,3.32-5.32,6.52-1.37,10.67,1.15,1.2,3.12,2.58,3.06,3.78-.3,5.46,1.81,7.6,7.31,7.29C475.15,277.24,481.15,277.5,487.13,277.5ZM264,802.24c7.77,0,15.81-1.27,23.23.33,8.58,1.85,13.77-5.07,21.2-5.67,8-.64,8-1.13,8.09-6.24.06-6.9-.19-13.81.06-20.7.31-8.47-7.06-14.7-6.48-23.32.13-1.81-2.12-1.63-3.49.53-2.14,3.39-5.57,3.17-9.05,3.15-16.39-.08-32.79-.06-49.18,0-13,0-12.84.19-22,9.49-5.07,5.16-5.21,10.64-1.17,15.78a13.27,13.27,0,0,1,3,9.18c-.06,5.11-1.57,11.42.82,15.07,3.65,5.6,11.06,1.82,16.81,2.31C251.92,802.64,258,802.24,264,802.24Zm-2.64-77.93h31c1.72,0,3.88.66,5.08-.13,2.79-1.83,6.2-4,7.22-6.76.58-1.6-2.57-5.42-4.89-7-4.12-2.83-12.63-2.22-19.08.36-9.17,3.67-9.45,4.19-15.76.7-7.25-4-14-3.9-21.11-.27-2.37,1.2-15.51-3.75-15.55-5.78-.08-5.11.12-10.22.42-15.32.1-1.62,8.11-7.41,9.82-7.38,2.58,0,5.17,0,7.75,0,16.37,0,32.73,0,49.1,0,4.29,0,5.47-1.81,5.65-6.27.34-8.47-7.4-14.67-6.26-23.28-3.3-2.37-4.84-7.13-10.11-6.86a138.18,138.18,0,0,1-15.5,0c-8-.5-15.1.32-20.22,7.65-1.15,1.64-4.25,2.6-6.49,2.67-8.6.31-17.22.08-25.84.15-3.28,0-6.27,5.43-3.73,7.62,4.51,3.89,5.13,8.25,5,13.59-.24,12.06-.13,24.12,0,36.18,0,3.46,6.49,10.06,9.91,10.09C239,724.37,250.19,724.31,261.39,724.31Zm70.76,161.06H274.36c-7.73,7.09-17.29,4.89-26.37,5.18a42.38,42.38,0,0,0-5.17.06c-2.75.44-4.41,1.81-4.25,5.08.24,5.17.15,10.36,0,15.55s6.09,7.36,5.91,13.33c-.11,3.39,5.66,2.22,8.92,2.33,4.32.14,8.64.07,13,0,3.16,0,3.85,7.11,7.38,3.45s7.44-3.45,11.65-3.44q22.05,0,44.08,0c8.3,0,8.81-1.19,5-10.64-.9-2.23-2.17-4.51-2.25-6.81C332,901.86,332.15,894.23,332.15,885.37ZM453,864.58h20.7c1.72,0,3.46.15,5.17,0,4.16-.42,6.06-5.7,5.17-11.85-.85-5.81-1.59-11.81-1-17.6.61-6.44-8.06-8.94-5.58-16,1.15-3.28-.27-6.56-5.17-6.49-12.07.16-24.14,0-36.21,0-4.32,0-8.66-.32-12.93.09-4.07.39-8.51,10.37-6.51,14.19,1.12,2.14,3.5,4,3.68,6.18.51,6,.12,12,.2,18.09.1,8.34,5.44,13.29,14.42,13.39C440.94,864.64,447,864.58,453,864.58Zm21.83,187c7.76,0,15.53-.16,23.28.08,3.11.09,5.27-1.27,5.35-3.9.32-9.47.13-19,.13-28.45-7-5.75-4.91-13.73-5.24-21.13a5.14,5.14,0,0,0-1-2.16c-1.18-2-1.84-.74-3.74.31-9.08,5-15.56,4.44-28-.74-2-.84-5.86-1.31-6.75-.23-3.71,4.55-5.76,2.91-9.55-.21-3.64-3-8,.27-8.07,5.26-.06,7.76,1.23,15.78-.33,23.21-1.95,9.28,7.58,14.93,5.68,23.83-.52,2.46,1.69,4.29,4.94,4.2C459.32,1051.48,467.08,1051.62,474.84,1051.62ZM446.45,575.19c0-3.45-.66-7.07.13-10.33,2-8.23-3.7-12.24-8-17.59-4.68-5.82-10.46-4.71-16.27-4.77-3.38,0-8.29-1.06-9.89.72-6.42,7.14-14.41,3.51-21.66,4.38-5,.6-10.2.22-15.2,1-2.57.39-2.09,1.88-.14,3.65a10.16,10.16,0,0,1,3.32,6.26c.38,8.63.19,17.27.14,25.91,0,3.12,1.57,4.75,4.48,4.8,7.78.12,15.55-.06,23.33.1,2.42,0,5.45,0,7.14,1.34,9.22,7.26,19.78,2.35,29.61,3.62.83.1,2.78-2.23,2.86-3.52C446.64,585.57,446.45,580.38,446.45,575.19Zm-155,284.2c10.35,0,20.7.07,31,0,2.88,0,4.49-1.69,4.45-4.82-.09-6,0-12.08,0-18.11-.07-7.09-5.43-13.16-11.87-13.36-4.31-.14-8.77-.7-12.9.17-3.79.8-7.07,3.95-10.87,4.83-4.84,1.12-11.63-.85-14.6,1.83-5.54,5-11.21,3-16.86,3.45-5.14.39-10.34.08-15.52.08-2.58,0-5.26-.38-7.73.16a5.24,5.24,0,0,0-3,3.44c-.9,4,1.53,8.58-2.6,11.89-3,2.42-4.12,5.9-1.62,8.7,2.65,3,4.69,7.39,10,7,4.24-.3,10.39,1.4,12.39-.8,5-5.55,10.74-4.29,16.51-4.39C276,859.28,283.71,859.39,291.48,859.39Zm147.78-67.54h25.22c11.15,0,11.06,0,8.64-12.37a59.25,59.25,0,0,1-.67-10.07c-.1-5.17,1-10.64-.38-15.41-.95-3.27-5.27-5.55-8.08-8.27-5.13,9.62-8.9-1.82-14.13-1.1-11,1.52-22.36.65-33.56.36-4.12-.11-5.8,2.82-8.41,4.81-4.52,3.45-.54,5,1.17,7.43.86,1.2.93,3.12,1,4.72.35,9.37.58,18.75.86,28.12C420.79,794.12,431.14,790.53,439.26,791.85ZM355.05,797c7.33-.33,16.13,2.05,22.83-5.19,6,0,12.07.07,18.11,0,3-.05,5.52-5.29,3.28-7.9-2.86-3.33-5.37-6.15-4.89-11a127.35,127.35,0,0,0,.09-15.51c-.2-8.52-11-16.73-17.71-11.74-6.48,4.79-12.36,4.53-18.95,4.59s-13.55,1.3-18.77-5c-.56-.67-4.35,1.24-6.54,2.19-.39.17-.45,1.58-.32,2.36,1.25,7.28-2.29,14.83,3,22.09,4.7,6.43,1.3,14.85,2.3,22.3.15,1.09,2.38,2.58,3.74,2.7C345.53,797.27,349.86,797,355.05,797Zm51.13-571.49c6.87,0,13.74,0,20.61,0,3.42,0,6.15-4.72,3.93-7.62-2.56-3.35-6.2-5.83-5.08-10.85.84-3.76-2.7-6.05-3.44-8.81-1.88-7-7.5-12.23-7.42-20.38.05-4.9-4.48-10-7.5-14.7a10.87,10.87,0,0,0-10.69-5.31c-6.25.47-6.56.22-7.27,7.26-.17,1.7.44,3.61-.13,5.11-.88,2.33-1.87,3.3-5,1.2-7.66-5.2-10.47-3.66-10.5,4.72,0,11.17.19,22.34-.09,33.5-.14,5.37,6.5,7.15,5.75,13.37-.37,3.08,5.47,2.5,8.76,2.52C394.15,225.58,400.16,225.55,406.18,225.55Zm69.94-5.2c6,0,12,.15,18-.11,1.41-.06,3.85-1.45,3.92-2.35a12.77,12.77,0,0,0-1.4-6.89,20.23,20.23,0,0,0-5.36-5.48,8.32,8.32,0,0,1-3.22-9c1.68-7.72-1.65-13.14-7.56-17.46-3.26-2.38-2.45-5.82-3-9.08-1.35-8.15-5.72-12-13-12-9.42-.06-18.85,0-28.28,0-3.7,0-6.72,3.49-5.24,6.42,2.16,4.3,6.55,7.59,5.14,13.33-1.37,5.55,7,7.44,5.16,13.27,4.84,4.27,5.45,9.68,5.37,15.85-.12,8.57,5.38,13.33,14.08,13.45C465.84,220.41,471,220.35,476.12,220.35ZM328,547.66c-6,0-12-.32-18,.1-4.8.34-11.44-2.78-13.86,2.81-1.88,4.33-.37,10.14-.37,15.29,8.1,6.39,3,20.16,14.39,25.17,2.94,1.3,5.15,3.89,8.91,3.44,7.25-.87,15.58,2.83,21-5.24,7.72,0,15.45,0,23.18,0,5.19,0,5.1,0,2.42-5.44-1.41-2.84-1.69-6.7-3.82-8.61-3.74-3.35-4.23-7.13-3.73-11.42s-3.21-5.61-5.06-8.26c-.11-.15.95-1.21,1.56-1.75,2.72-2.47,5.29-5.5-.88-5.93C345.25,547.22,336.63,547.66,328,547.66Zm96.33,504c3.18-12.14.43-22.1-3.59-32.39-2-5.26-.82-11.79-1.08-17.74-6.34-4.27-13.36-1-20-1.68-6.87-.65-13.84-.21-20.76-.12-3.45,0-9.94,6.18-10.36,9.73-.2,1.71.08,3.47-.06,5.19-.42,5.31,1.29,9.27,4.6,13.84,2.48,3.41-.6,10.41,1,15,1.18,3.37,5.84,7.56,9.19,7.78C396.92,1052.13,410.64,1051.62,424.37,1051.62ZM522,158c-5.17,0-10.34,0-15.51,0-7.19.05-10.72,4.37-7.91,11.4,2.11,5.27,6.47,9.67,5,16,6.58,4.41,3.1,12.92,6.8,17.75s3.25,15.91,15.14,12.25c5.51-1.69,12-.17,18-.31,8.31-.21,16.19-11.09,11.32-17.94-3.92-5.52-4.09-10.6-4.92-16.22-7.52-4.72-4-12.27-4.81-18.7-.36-2.79-1.78-4.41-5-4.32C534.11,158.13,528.08,158,522,158Zm-62.5,768.92c6.85,0,13.7.05,20.55,0,8.55-.09,9.49-2.07,8.44-12.59-.76-7.59-.37-15.3-.52-23-.09-4.62-1.36-6-5.79-6-17.13,0-34.26.07-51.39-.07-5.06,0-4.62,3.27-5.25,6.67-2.06,11.13,8.93,19.84,5.51,31.34-.62,2.06,2.29,3.77,5.32,3.68C444.12,926.78,451.83,926.93,459.54,926.93ZM705.38,204.76c14.5,0,14.19-1,26.4-4.84,8-2.54,2.89-3.77,1.61-7.4-1.88-5.33-1.52-11.46-2.11-17.24-6.63-4.08-3.86-10.67-4.19-16.33-.24-4-1.34-6.29-5.81-6.18-6.89.16-14,1-20.64-.21-8.31-1.57-12.83,8.08-21.23,5.67-2.84-.82-6.32,5.25-4.21,7,5.34,4.53,5.56,10.08,5,16.13,7.34,4.6,5,12,5.15,18.53.09,3.11,1.59,4.71,4.48,4.8C695,204.88,700.21,204.76,705.38,204.76Zm89.16,805.72c0,9.47-.1,17.2,0,24.92.08,4.95,6.35,10.9,11.52,11,6.87.13,13.74.17,20.59-.08,1.4,0,3.86-1.46,3.94-2.4.42-5.1,1.44-10.62,0-15.3-2.22-7.25,7.33-8.83,5.82-16-1.55-7.39-.31-15.37-.36-23.09,0-4.22-1.36-5.31-6.4-5.4-2.57-.05-5.15-.06-7.72,0-8.49.19-17,.42-25.48.63C792.32,993.64,795.8,1003.11,794.54,1010.48ZM817,853.58v.61c6.06,0,12.14-.27,18.18.1,4.19.25,5.8-2.93,8.38-4.95,4.64-3.62-.31-5-1.39-7.44-1-2.18-.84-4.91-.87-7.41-.11-6.92.06-13.85-.07-20.77-.1-5.19-6.14-11.37-11.23-11.45q-13-.18-26,0c-3.2.05-9.45,7.13-9.5,10.57-.1,6-.31,12.13,0,18.17.44,7.52-1.82,15.3,1.92,22.55ZM428,682.74c9.46,0,18.92.07,28.38-.06a6.57,6.57,0,0,0,4.42-1.54c.94-1,1.18-3,1.17-4.59,0-4.21,1-9.27-.94-12.41-2.27-3.67-4.73-6.6-4.26-11.24.36-3.6-.32-6.62-5.25-6.58q-25.8.21-51.61,0c-3.11,0-5.27,1.32-5.29,3.92-.07,10.22.36,20.44.61,30.66,9.84,4.22,20.15.82,30.19,1.85A24.66,24.66,0,0,0,428,682.74Zm89.78,129.89c-5.15,0-10.3,0-15.45,0-7.91.06-13.14,6.38-8.63,12.62,4,5.49,4.84,10.31,4.72,16.23-.08,3.43,0,6.86,0,10.29.05,12.72.06,12.75,11.89,12.8,10.3,0,20.6.16,30.89-.1,2.63-.07,4.27-1.94,4.05-5.17-.29-4.27-.07-8.57-.07-12.86-9-6.26-4.45-15.61-5-23.6-.74-10.08-.24-10.13-9.47-10.21C526.36,812.6,522.07,812.63,517.78,812.63Zm-139.3,46.76c6.93,0,13.85,0,20.78,0,4.36,0,4.89-1.48,5.75-6.25,1.87-10.46-3.75-19.34-5.2-29-.57-3.81-1.13-6.36-5.75-6.3-13,.14-26,.21-38.95-.06-3.87-.08-6.31,1.41-8.8,4-4.38,4.6-5.69,9.5-1.85,15.81a20.44,20.44,0,0,1,3.44,9.05c.86,8.21,5.58,12.68,12.41,12.77C366.36,859.46,372.42,859.39,378.48,859.39Zm-4.17-584c2.07-9.38-4.6-15.8-7.85-23-2.62-5.8-6.59-5.91-14-3.07-2.23.85-4.54,2-6.84,2.05-9.43.23-18.88.31-28.31,0-4.18-.14-5.72,3-8.28,5-4.63,3.59,1.18,5,1.35,7.31.76,10.16.73,20.37,1,30.56.07,2.63,2,3.49,4.49,2.08,14.93-8.43,14.93-8.44,27.37-8.49,5.15,0,10.33.33,15.44-.11,4.87-.41,7.26-6.78,13.1-6C372.33,281.85,373.45,277.64,374.31,275.42ZM478,594.45c1.19-.08,6.21,1,7.61-.75,5.45-6.86,12.51-3.75,18.94-4.45,1.69-.18,3.43,0,5.14,0,3-.12,6.26-5.35,4.15-7.33a15.17,15.17,0,0,1-5.13-13.46,152.68,152.68,0,0,0,.07-15.43c-.07-3.35-6.19-10.65-9.45-10.37-5.64.5-11.21-1.78-17.05,2.46-6.34,4.6-7.23,3.91-15.46-.7-1.88-1.06-2.13-1.75-3.81-.45-5.22,4.05-9.09,10.6-5.7,15.19,5.16,7,4.51,14,4.74,21.34C462.31,589.11,467.48,594.33,478,594.45Zm3.32,478c-8.65,0-17.4-.73-25.91.39-3.08.4-5.58,5.21-8.35,8,8.63,3.92.74,15.32,9.08,19.77a12.23,12.23,0,0,1,5.62,7.83c.69,4.48,2.68,5.68,6.58,5.58,2.6-.07,5.19,0,7.79,0q15.42-.36,30.84-.76c4.27-10.8.9-22,1.73-33,.51-6.88-.59-7.72-6.61-7.77C495.16,1072.35,488.24,1072.4,481.31,1072.4Zm-100-145.47c7.7,0,15.4,0,23.11,0,4.33,0,5.6-1.4,5.62-6.14.06-9.42,0-18.83,0-28.25,0-3.41,0-8.16-4.54-6.84-4.85,1.41-6.53-9.79-12.09-2.19-1.09,1.49-4.47,1.74-6.81,1.79-9.41.19-18.83,0-28.25.09-5,0-7.28,3.87-4.53,8.48,1.65,2.77,4.57,4.53,4.36,8.53-.35,6.83-.3,13.7,0,20.53.12,2.64,1.89,4.24,5.12,4.09C369.33,926.74,375.33,926.93,381.33,926.93ZM534.8,994.47h-7.7c-11.39,0-11.35,0-8.7,12.26a37.28,37.28,0,0,1,.75,7.39c.1,6.84,0,13.69,0,20.54.09,12.68,4,16.88,15.85,16.95q9,.06,18,0c6.83,0,7.77-.71,7.69-6.62s-.53-11.74-.82-17.62c-6.52-4-3.85-10.54-4.29-16.18-.21-2.55,0-5.13,0-7.7-.12-9-.13-9-7.91-9C543.36,994.45,539.08,994.47,534.8,994.47ZM346.18,682.74h10.27c5.14,0,10.32-.41,15.4.12,5.25.54,7.61-3.1,10.33-6.1,4.07-4.49-3.62-4.45-3.19-7.29,1.07-7-8.51-10.67-5.44-18.47,1-2.61-1.44-4.59-4.37-4.6q-23.12-.07-46.23,0c-5,0-6.35,1.19-6.38,5.39q-.06,11.55,0,23.11c0,6.86.77,7.79,6.5,7.84C330.77,682.79,338.48,682.74,346.18,682.74Zm-95.94-93.51c9.44,0,18.88,0,28.31,0,6.2,0,8-2.75,6.8-10.11-.26-1.54-.61-3.51-1.66-4.38a9.43,9.43,0,0,1-3.57-8.93c.33-3.4,1.17-7.38-.17-10.17-2.26-4.69-7.5-2.59-11.51-2.69-8.57-.23-17.16.06-25.74-.12-5.52-.11-9.83-.24-9.66,7.76.07,3.43-5.45,2.65-8.73,2.67-3.67,0-6.75.52-6.5,5.37.18,3.42,0,6.86,0,10.3,0,10.21,0,10.24,9.22,10.31C234.79,589.27,242.51,589.23,250.24,589.23ZM758.17,357.72H758c0-5.15,1.36-10.86-.43-15.29-1.43-3.53-4.75-6.34-5.23-10.84-.25-2.35-2-2.24-3.55-.65-1.66,1.75-2.9,3.94-6.2,3.83-9.49-.33-19-.14-28.5-.11-6.92,0-7.77.72-7.85,6.6-.06,5.18-1.48,11,.37,15.38,2.22,5.32,5,9.89,5.3,16.12.16,3,5.14,6.26,8.57,8.39,1.22.76,4.3-1.47,6.53-2.34s4.43-2.34,6.7-2.48c6-.35,12.09-.07,18.13-.13,5-.05,6.28-1.22,6.33-5.53S758.17,362,758.17,357.72Zm58.37,387.37c-6,0-12.07-.16-18.09.13-1.34.06-3.72,1.7-3.74,2.66q-.39,18.07,0,36.17c0,.89,2.49,1.87,3.94,2.55a3.15,3.15,0,0,0,2.52,0c3.79-2.17,7.42-7.55,11.33-.17,7.3-.39,15.52,3.12,21-5l5.48,4.89c2.29-3.43,7.4-4.78,7.47-9.82.1-6.89.13-13.78,0-20.67-.1-4.91-6.46-10.66-11.84-10.75C828.6,745,822.56,745.09,816.54,745.09ZM585.1,158c-5.16,0-10.33-.2-15.46.13-1.29.09-3.46,1.8-3.53,2.87-.31,5.11,0,10.25,0,15.38,6.38,3.85,6.06,10.44,4.72,15.91-1.89,7.75,3.72,12.4,5.57,18.52,1.53,5.05,4.88,6,9.2,2.54,2.84-2.29,7-5.36,8.62-3.1,4.7,6.32,7.48,2.29,11.6-.16,5.37-3.2,7-5.58,7-10.2,0-4.25-4.59-5.33-5.1-8.21-.88-5,1.66-11.54-.72-15.1-3-4.5-5.36-8.26-4.73-13.65.37-3.15-1.49-4.73-4.31-4.88C593.7,157.84,589.4,158,585.1,158Zm-14,418.69c3.71-8.46-7.25-15.27-5.34-24.79.23-1.16-1.39-3.83-2.31-3.91-5.79-.48-12,.84-15.73-5.53l-5.44,4.95c-3.9-7.3-7.48-2.08-11.23.19-.62.38-1.68,0-2.53.06-3.25.18-8-1.24-8.93,2.54s-2.53,8.83,1.26,11.9c4.08,3.31,3.79,7.32,3.42,11.46-.48,5.44.62,9.8,5.32,13.3,3.37,2.51,3,2.84,15.28,2.4,6.84-.24,13.69,0,20.53-.06,4.36,0,5.59-1.39,5.69-6.07C571.17,581.43,571.14,579.72,571.14,576.7ZM516.59,791.85c6.84,0,13.69.1,20.52-.15.71,0,2.14-2.89,1.87-3.19-2.27-2.48-4.37-4.62-4.33-8.58.09-9.29-.44-18.59-.72-27.88-9.82-4-20.06-.83-30.07-1.73-2.54-.23-5.21.35-7.66-.18-1.42-.31-2.82-1.91-3.7-3.27-1.46-2.25-3.41-2.42-3.54,0-.61,11.85-.77,23.73-.89,35.6,0,3,7.22,9.27,10.55,9.32C504.61,791.91,510.6,791.85,516.59,791.85ZM393,480.12c9.42,0,18.83.08,28.25,0,2.86,0,4.48-1.68,4.43-4.77-.07-4.28.05-8.56,0-12.84-.17-10.06-10-17.38-18.67-12.27a25.39,25.39,0,0,1-13.86,3.95c-12,0-24-.1-35.95.07-2.75,0-4.54,1.73-4.27,4.92.15,1.69,0,3.42,0,5.13.06,10.85,4.43,15.73,14.39,15.83C375.88,480.19,384.44,480.12,393,480.12ZM815.32,362.35c0-6,.11-12,0-18-.08-3.21-7-9.22-10.32-9.7-8-1.13-17.23,3.6-23.78-5-.6-.79-3.52-.58-4.91.11a13.91,13.91,0,0,0-6.08,19.23c1.57,2.92,4,5,3.65,8.86a108.51,108.51,0,0,0-.05,12.88c.2,6,4,7.3,12.48,6.24,7.19-.88,14.94-3.21,21.12,4.05,2.05,2.4,7.86-.32,7.91-3.12C815.39,372.66,815.32,367.51,815.32,362.35ZM413.47,282.7c17.21,0,17.21,0,28.78-5.2,2.94-1.32,5.47-5.63,4.13-7.58s-3.74-3.57-5-5.71c-.75-1.28.35-3.64-.39-4.95-1.21-2.15-3.58-3.63-4.84-5.76s-1.13-4.77-2.37-6.72c-3-4.66-12-8.68-15.29-5.31-5.85,6-12.25,4.63-18.82,4.84-3.44.11-6.88,0-10.31,0-4.65,0-5.47.65-2.2,5.23,2.95,4.12.52,8.63,2.38,11.93,2.45,4.33,6,7.81,5,13.47-.72,4.34,2,5.85,6,5.75C404.87,282.61,409.17,282.7,413.47,282.7ZM576.31,864.58c5.14,0,10.28,0,15.43,0,4.16,0,5.61-1.85,5.39-6.41-.09-1.71.72-4.27-.13-5-6.76-5.93-4.9-13.75-5.06-21.12-.11-5.14.17-10.3-.14-15.42-.09-1.37-1.65-3.77-2.59-3.8q-15.42-.4-30.85,0c-1,0-2.64,2.38-2.68,3.69-.26,7.71.61,15.52-.33,23.12-1,8,8.48,12.64,5.62,21.09-.71,2.1,1.84,4.23,5.06,3.95C569.43,864.36,572.88,864.58,576.31,864.58Zm20.81-483.17v-18.7a71.33,71.33,0,0,0,0-7.74c-.55-4.93-5.88-7.36-6.18-13.09-.19-3.63-5.87-1.93-9.06-1.94-6.57,0-13.9-2.22-18.5,5.08a17.55,17.55,0,0,1-1.82-1.84c-2.25-3.07-5.52-4.65-8.74-2.87-2.9,1.59-5.23,4.49-7.28,7.22-.84,1.12-1,4.31-.22,4.83,7,4.9,4.72,12.1,5.12,18.67.22,3.61,6.43,10.31,9.65,10.34C572,381.47,583.85,381.41,597.12,381.41ZM742.59,832.2c0,6.89-.05,13.78,0,20.67.06,5.74,1,6.48,7.92,6.51s13.78,0,20.67,0,7.72-.7,7.75-6.67q.09-19.38,0-38.76c0-5.74-1-6.48-7.91-6.51s-13.79,0-20.68,0-7.68.7-7.75,6.67S742.59,826.17,742.59,832.2ZM512.66,381.41c6.84,0,13.68,0,20.51,0,6.16-.05,8.58-2.93,6.6-10-1.71-6.13-7.3-11.16-5-18.42-3.8-3-5.72-8.33-12.07-8-8.53.44-17.09.09-25.64.12-16.4.06-18.54,4.43-10.72,21.71A21.61,21.61,0,0,1,488,371.2c2,10.12,2,10.15,9.29,10.2C502.4,381.44,507.53,381.41,512.66,381.41ZM714.07,220.35c-5.18,0-10.36,0-15.54,0-6.93,0-7.81.74-7.88,6.56-.07,5.18-1.45,11,.35,15.39,2.16,5.32,5.73,9.77,5,16.15-.33,2.93,5.22,5.26,7.87,2.83,3.59-3.28,5.92-5.16,9.47-.27.68.94,4,1.43,4.58.77,5.24-5.73,12-5.34,18.7-5.05,4.23.18,6.2-1.68,6-6s1-9.29-.86-12.53c-2.14-3.67-4.94-6.48-4.43-11.22.37-3.48,0-6.91-5.11-6.74C726.17,220.51,720.12,220.35,714.07,220.35ZM628.29,564.3c0-3.43,0-6.86,0-10.28-.08-5-1.21-6.33-5.44-6.34-12,0-24,.1-36-.1-3.15-.05-5,1.35-5.24,4-1.22,15.81,0,23.08,5.06,33.83,1.15,2.46,2.31,4,5.44,3.91,8.56-.23,17.13,0,25.69-.11,3.31,0,10.33-6.36,10.43-9.48C628.41,574.58,628.29,569.44,628.29,564.3ZM642.82,158a36.85,36.85,0,0,0-5.15,0c-4.83.71-11.94-2.72-14,2.62-1.85,4.9-2.69,11.94,1.16,17,2.19,2.88,3.79,5.24,3.49,9-.33,4.27,0,8.58-.09,12.88-.13,5.22,4.45,8.64,7.37,9.43,6.1,1.65,13.44,3.4,18.93-2.07,3.12-3.11,4.29-.26,5.47,1.24,1.6,2.06,2.6,2.39,3.72.12,1.31-2.65,7.39-5,4.61-6.88-7.22-4.77-.82-13.07-6.72-18.31-5.57-4.93-1.21-12.95-2.11-19.54-.58-4.24-1.47-5.41-6.41-5.48C649.69,158,646.26,158,642.82,158Zm-93.93,72.73c-1.72,0-3.58.42-5.16-.07-8.18-2.52-14,3.88-21.14,5.41-3.36.72-5.07,5.39-2.73,8a17.77,17.77,0,0,1,4.8,11.13c.45,4.59,3.08,9,5,13.39.6,1.4,2.11,3.64,2.93,3.53,10.54-1.46,22.34,4.65,31.54-5,5.67.67,7.47-2.05,7.1-7.44-.35-5.16,0-10.36-.08-15.53-.08-7.09-5.48-13.18-11.88-13.38C555.8,230.66,552.34,230.74,548.89,230.74ZM298,973.69c12.91,0,25.81,0,38.72,0,4.48,0,5.77-1.42,5.84-6,.13-9.07-4.78-14.74-13-14.75q-34.84-.09-69.7,0c-4.33,0-5.46,1.33-5.6,6.23,0,1.72,0,3.44,0,5.16.07,9.3.08,9.34,7.62,9.37C273.89,973.72,285.94,973.69,298,973.69Zm458.73-187c1.71,0,3.43.06,5.14,0,5-.18,11,1.17,14.93-1,5-2.76,1-9.43,2.27-14.18a22.12,22.12,0,0,1,3.31-6.32c3.62-5.47,2.85-12.13,1.29-17.1-1.77-5.63-8.91-2.56-13.68-2.81-7.69-.41-15.42-.21-23.12-.06-3.11.06-9.4,7.16-9.43,10.48-.08,8.57-.06,17.13,0,25.7,0,4.18,1.34,5.25,6.45,5.32C748.14,786.7,752.42,786.65,756.71,786.65ZM779,1018c0-9.41,0-18.82,0-28.23,0-4.39-1.4-5.68-6-5.72-6.85-.05-13.76-.57-20.5.26-2.81.34-5.29,3.59-7.87,5.59-3.9,3,.59,3.93,1.64,5.38,3.4,4.7,1.2,9.87,1.48,14.76.3,5.18,7,7.09,5.55,13.29-1.1,4.89-.25,10.22-.22,15.35,0,6.82.71,7.61,6.65,7.69,5.13.07,10.28.28,15.39-.09,2.63-.2,4.12-2,4-5.19C778.79,1033.44,779,1025.74,779,1018ZM524.32,885.37c-5.13,0-10.26.2-15.37-.08-3.15-.17-5.1,1.34-5.24,4-.34,6.81-.88,13.77.13,20.45a41.93,41.93,0,0,0,6,15.36c2.66,4.25,7.87,1.48,11.9,1.77,5.95.43,11.95.22,17.93.08,4.83-.12,9.5-6.59,10.9-11.71,2.49-9.09-6.28-15.09-5.43-23.53.37-3.75-.76-6.51-5.43-6.34C534.57,885.51,529.44,885.37,524.32,885.37ZM383,433.36c9.44,0,18.87.17,28.3-.1,2.64-.07,4.32-1.87,4.1-5.12-.3-4.27-.05-8.57-.08-12.86,0-6.88-.78-7.82-6.49-7.88-6.86-.06-13.72,0-20.58,0s-14,1.11-20.53-.29c-7.7-1.64-11,6.62-18.53,5.86-6.86-.69-6.92.82-6.61,7.37.33,7.08,5.61,12.92,12.12,13C364.08,433.45,373.52,433.36,383,433.36Zm420.54,5.2c-6.83,0-13.67-.14-20.5.12-1.37.05-3.83,1.58-3.86,2.5-.3,8.53-1,17.19.25,25.55.46,3.1,5.56,7.53,8.85,7.82a188.39,188.39,0,0,0,33.25,0c3.34-.29,6.75-4.6,9.19-7.79.87-1.16-.34-5.11-1.8-6.57-2.7-2.7-3.42-5.48-3.21-9,.2-3.38,1-7.35-.36-10.05-2.37-4.56-7.57-2.15-11.57-2.49C810.34,438.33,806.91,438.56,803.49,438.56ZM440.6,350.24c-6.92,0-13.85-.07-20.77,0-4.73.06-6.43,4.23-2.84,9.16,2.12,2.91,3.94,5.22,3.55,9-.35,3.43-1.19,7.47.18,10.25,2.32,4.69,7.61,2.19,11.65,2.73,2.46.34,6-.2,7.19,1.21,10.71,12.44,19.91-5.49,30.13-1.39.36.14,2.52-2.38,2.61-3.73.31-5.18.24-10.39.09-15.57-.14-5.35-6-11.56-11-11.66C454.45,350.13,447.52,350.24,440.6,350.24ZM685.44,840.18c0-7.7.09-15.42-.05-23.12,0-3.18-7-9.52-10.32-9.6-5.13-.11-10.29.17-15.41-.1-3.13-.17-5.23,1.32-5.28,3.92-.24,14.56-.17,29.12-.07,43.68,0,3.18,7,9.52,10.32,9.6,5.14.11,10.28.07,15.42,0,4.21,0,5.32-1.36,5.37-6.4C685.48,852.18,685.44,846.18,685.44,840.18ZM820.66,719.11c6.85,0,13.7,0,20.56,0,4.86,0,7.07-3.92,4.2-8.6-1.71-2.79-4.51-4.65-4.21-8.61a113.21,113.21,0,0,0,0-15.41c-.09-1.3-1.8-3.55-2.81-3.57-12-.25-24-.77-35.93.27-2.87.25-6.89,5.65-7.54,9.19-1.21,6.63-.39,13.65-.33,20.5,0,4.84,1.26,6.2,5.54,6.23C807,719.15,813.8,719.11,820.66,719.11ZM624.48,864.58h7.71c3.64,0,6.46-.46,6.68-5.31.09-2.11,2.41-4.06,3.48-6.21,2.35-4.7,2.88-9.43-.55-13.93a16.94,16.94,0,0,1-.6-20.71c3-4.44.3-5.31-1.61-7.49-4.76-5.47-10.8-5.47-15.56-1.39-3.87,3.3-7.59,2.79-11.68,3.17-1.48.14-4.09,1.25-4.11,2-.21,8.15-3,16.29,2,24.37,4.14,6.75,3.78,7.33-.85,15.56-1.06,1.88-1.78,2.14-.43,3.8C613.07,863.49,618.17,865.41,624.48,864.58ZM405.71,376.84c-1-3.94-.83-8.09-2.81-10-4.35-4.17-2.8-11.41-8.79-14.6-3.39-1.8-11.72-3.16-13.89-.45-1.37,1.7-.59,5.7-2.07,6.65-4.64,3-9.71,6.35-14.95,7.07-8.42,1.16-17.12.28-25.69.33-4.89,0-7,4-4.44,8.63,1.15,2.13,3.76,3.84,4.07,6,.55,3.83,1.31,6.31,5.84,6.2,6.86-.17,13.72,0,20.59-.07,6.47-.09,13.44,1.52,18.29-4.82l5.46,4.23c3.2-5.39,8.5-4.34,13.52-4.79C402.54,381,404,378.44,405.71,376.84Zm407.13,202c5.17,0,10.33,0,15.5,0,6.88,0,7.69-.7,7.75-6.67q.1-10.33,0-20.66c-.06-9-.09-9-8-9q-15.5-.06-31,0c-6.88,0-7.7.69-7.75,6.66q-.09,11.63,0,23.25c0,5.08,1.17,6.4,5.4,6.43C800.78,578.87,806.81,578.84,812.84,578.84Zm-87-301.34c-6.84,0-13.67-.13-20.5.11-1.4.05-3.9,1.47-3.94,2.34-.35,8.5-.38,17-.27,25.54,0,2.39,8.45,8.34,11.5,8.36,9.39,0,18.81-.33,28.18.16,5.22.27,7.17-3.57,10.41-6,2.1-1.59,2.15-2.21.07-3.75-5.93-4.38-3.1-10.87-3.37-16.47-.49-10.16-.24-10.19-9.27-10.27C734.34,277.47,730.07,277.5,725.8,277.5Zm-48,103.91c3.41,0,6.83,0,10.25,0,6.82-.05,6.79-.94,8-6.5,2.73-12.93-7.48-23.62-5.54-36.35.37-2.41-1.91-4.13-5.1-4-6,.27-12,0-17.94.09-9.88.13-16.54,9.89-11.81,19,2,3.77,4.21,6.83,3.9,11.26-.24,3.4,0,6.83-.06,10.24-.07,3.82.9,6.49,5.53,6.3C669.24,381.27,673.52,381.41,677.79,381.41ZM550.36,764.9c0,10.3-.05,15.45,0,20.6.06,5,1.21,6.32,5.47,6.34q14.16.06,28.33,0c6.85,0,7.93-.72,7.68-6.64-.41-9.79,2.16-19.91-4.82-29-1.84-2.4-1.48-6.16-6-6-3.42.17-6.92-.36-10.29.12-6.58.93-13.58-2.58-19.79,1.9C550.68,758.19,550.39,764.12,550.36,764.9Zm67.79,239.65c0,1.52-1.41,6.74.25,8.05,6.9,5.42,4.21,12.49,4.63,19,.33,5.16,0,10.36.08,15.53.06,3.71,1.89,4.77,7.37,4.51.86-.05,1.84.26,2.57-.05,6-2.51,11.25-7.48,18.63-5.31.16,0,1.67-3.19,1.44-3.35-4.06-2.89-4.19-6.94-4.11-11.37q.29-15.52,0-31.08c-.12-7-9.64-13.42-16.59-11.07-3,1-5.44,4.65-8.26,4.8C617.91,994.56,617.45,998,618.15,1004.55Zm-15.84,18.7c0-7.73,0-15.46,0-23.19,0-4.31-1.39-5.53-6.23-5.58q-9-.08-18,0c-6.39.07-7.11.59-6.81,7.51.32,7.52-2.94,16.21,1.75,22.32,6.22,8.12,1.75,16.48,3.51,24.46.25,1.17,2.39,2.66,3.72,2.72a177.75,177.75,0,0,0,18,0c2.67-.14,4.27-1.8,4.16-5.08C602.14,1038.72,602.31,1031,602.31,1023.25ZM769.7,199.57c5.12,0,10.25.05,15.37,0,3,0,6.23-5.32,4.12-7.32a15.14,15.14,0,0,1-5.13-13.39,148.44,148.44,0,0,0,.07-15.36c-.07-3.33-6.22-10.55-9.25-10.62-7.69-.16-15.38-.23-23.06,0-2.63.1-4.24,1.83-4.12,5.08.27,6.82-.93,13.86.38,20.43,1.23,6.15,7.14,11.12,5.09,18.46-.15.51,2.36,2.45,3.73,2.56C761.14,199.79,765.43,199.57,769.7,199.57ZM462.52,449c-6.83,0-13.66-.05-20.5,0-5.07,0-7.17,2.64-5.88,8.33,1.8,7.92,5,15.32,11.12,21,4.34,4,9.74,1.46,14.6,1.72,8.52.45,17.08.16,25.62.11,4.38,0,5.66-1.39,5.71-6,.06-5.13.14-10.26,0-15.37-.11-3.31-6.81-9.68-10.14-9.73C476.19,448.88,469.35,449,462.52,449Zm282.39,26c6.87,0,13.74.15,20.6-.16,1.07,0,2.87-2.23,2.91-3.47.14-5.05,1.61-11.61-.94-14.83-3.63-4.61-4-8.86-4.22-13.92-.14-2.65-1.94-4.14-5.15-4.07q-15.45.33-30.91,0c-3.13-.06-5.19,1.32-5.28,3.94-.3,9.43-.25,18.89,0,28.33.06,2.72,1.76,4.35,5,4.24C732.88,474.77,738.9,474.93,744.91,474.93Zm28.85,87c0-5.14.18-10.29-.12-15.41-.08-1.39-1.58-3.86-2.48-3.89-10.27-.27-20.62-.86-30.77.25-3,.34-7.43,5.52-7.82,8.88-1.08,9.29-.53,18.79-.27,28.2.07,2.64,1.79,4.36,5.07,4.13,4.26-.29,8.55-.07,12.83-.07,4.58-7.22,11.85-5.17,18.39-5.1,3.26,0,4.86-1.5,5.08-4.16C774,570.52,773.76,566.22,773.76,561.94Zm-32.88,532.64c-7.21-7.75-13-13.81-18.41-20.21-.34-.4,4-4.26,3.55-5.15-2-3.83-6.08-1.76-9.27-1.92-4.5-.22-4.5.06-2.58,5.26.82,2.23,2.23,4.45,2.33,6.72.31,6.86.06,13.74.14,20.61,0,2.9,5.32,5.48,7.89,3.28,3.31-2.84,6.11-5.1,11-4.93,12,.43,24.07-.31,36.06.32,6.53.34,9.18-4.26,12.11-7.92,2.15-2.69.18-6.38-2.89-8.63-3.54-2.59-1-6.4-1.86-9.54-.39-1.52-.74-3.76-1.8-4.29-5-2.49-11.89,1.17-16-5.37-.78-1.23-7.67,5.68-8,10.57-.26,4.42-.76,8-4.35,11.22C745.76,1087.3,743.63,1091,740.88,1094.58Zm-97-734c0-4.3-.25-8.63.07-12.91.38-5.06-1.41-6.46-6.53-8.3-6.18-2.22-10.64-8.38-16.95,0-1.28,1.7-6.51.37-9.91.52-7,.3-10.59,4.64-8,11.27,2,5.27,5.92,9.53,5.27,16-.38,3.76,5,5.71,5.32,10.71.27,4.53,3.31,4.82,9.55,1.23,2.05-1.18,3.34-3.49,5.56-.41,3.09,4.3,7.73,2.51,11.77,2.57,1.29,0,3.67-1.64,3.73-2.64C644.05,372.61,643.87,366.58,643.87,360.55ZM602.31,769.77c0,6.06-.16,12.12.13,18.17.06,1.34,1.72,3.72,2.68,3.74,10.36.23,20.77.56,31.07-.3,2.64-.23,5-4.49,7.21-7.15.19-.22-1.77-2.42-2.91-3.52-3.78-3.64-.9-8.21-1.81-12.24,7-3.76,2.47-7.14.26-11.41-1.43-2.76-.14-6.85-5.26-6.8-8.65.09-17.31,0-26,0-4.25,0-5.33,1.33-5.4,6.49C602.27,761.11,602.31,765.44,602.31,769.77ZM588.2,480.12c.87,0,1.73-.07,2.59,0,18.06,1.67,23.55-4.17,21.92-21.5-.23-2.51.47-5.52-.68-7.45-1.71-2.87-4.62-7-7.15-7.05-7.47-.3-15.8-2.89-22.34,1.71-3.88,2.72-4.74,1.47-7.66-.64-4.58-3.3-8.86-1.29-8.92,3.43-.08,6-.46,12.12.17,18.1.32,3.08,5.75,3.92,5,8.22-.57,3.27,1.41,4.87,4.12,5.08C579.55,480.37,583.89,480.12,588.2,480.12Zm-121,493.57c5.12,0,10.28.31,15.38-.09,4.91-.39,10.85,2.5,14.56-1.63,4.83-5.39-2.9-8.29-3.91-12.66a22.33,22.33,0,0,1-.06-5.11c0-3.62-.41-6.67-5.3-6.54-6.83.19-13.68.05-20.51.05-8.55,0-17.11.22-25.65-.09-4.21-.16-5.63,3.16-8.16,5.16-4.67,3.7.84,4.88,1.67,7.29a23.15,23.15,0,0,1,.76,7.37c0,3.84,1,6.39,5.57,6.3C450.14,973.57,458.69,973.69,467.24,973.69ZM779,703.78c0-6,.45-12.07-.21-18-.3-2.65-2.68-2.84-5.09-.57a10.75,10.75,0,0,1-6.53,2.62c-8.57.3-17.17,0-25.75.24-1.35,0-3.79,1.64-3.81,2.57q-.42,15.45,0,30.9c0,1,2.42,2.63,3.73,2.66q16.74.31,33.49,0c2.72-.05,4.38-1.76,4.24-5C778.79,714.09,779,708.93,779,703.78ZM532.49,480.12c2.58,0,5.16.06,7.73,0,16.61-.43,15.35,3.5,15.33-14.51,0-4.3.23-8.61-.13-12.87-.11-1.33-1.79-3.6-2.78-3.62-15.45-.23-30.91-.28-46.35.12-1,0-3.1,5.51-2.49,6.07,6.59,6.07,4.65,13.86,5.13,21.24.08,1.25,1.88,3.37,3,3.42C518.75,480.28,525.62,480.12,532.49,480.12Zm106.19,86.8c0,6-.13,12,.05,18,.09,2.82,1.7,4.42,4.83,4.38,6.84-.1,13.68,0,20.52-.06,3.42,0,10.84-6,10.91-9,.17-7.69.15-15.4,0-23.09-.06-3.1-7.14-9.41-10.44-9.45-6.84-.09-13.68-.06-20.53,0-4.18,0-5.27,1.35-5.34,6.41C638.63,558.37,638.68,562.65,638.68,566.92ZM350.44,334.65c4.28,0,8.57,0,12.85,0,9.36,0,9.25-.3,21.08-5,2.62-1,4.68-1.67,4.86-4.43a86.12,86.12,0,0,0-.07-12.85c-.11-1.3-1.77-3.47-2.84-3.54-5.1-.33-10.23-.07-15.35,0-5.44,8.29-13.86,4.42-21.07,4.93-7.67.54-15.42,0-23.13.21-1.46,0-4.12,1.15-4.15,1.85a146.38,146.38,0,0,0,.37,17.27c.05.63,2.8,1.47,4.3,1.5C335,334.73,342.72,334.65,350.44,334.65ZM402.29,500.9c-7.79,0-15.59.25-23.37-.11-3.32-.15-4.49,2.13-6.25,3.81-4.39,4.2-5.6,11.61-2.78,15.86,3.16,4.75,11.53,9.19,15.26,6.11,7.59-6.24,15.8-4.74,24.07-4.86,7.79-.11,15.6.25,23.36-.18,2.59-.14,3.56-2.77,3.55-5.69,0-9.18-4.8-14.85-13.07-14.92C416.13,500.85,409.21,500.9,402.29,500.9ZM528.85,660.13c-.65-3.43-6.68-8.49-10.42-8.53-7.71-.09-15.43-.26-23.12.07-3.85.17-6.09-1.66-8.79-3.86-1.52-1.24-5.06-1.64-6.71-.69-2.86,1.65-5,4.63-7.39,7a22.31,22.31,0,0,0,1.83,1.81c5.82,4.58,2.8,11,3.26,16.6.26,3.12,1.6,4.82,4.36,4.9,7.7.2,15.43.34,23.12,0,4.63-.22,7.53,1.94,11.13,4.4,4.94,3.37,13.38-3.68,13.51-10.33C529.71,667.66,520,664.49,528.85,660.13Zm92.84,33c-4.26,0-8.52-.09-12.78,0-5.26.13-11.6,5.81-11.76,10.65-.17,5.11-.12,10.23,0,15.34.07,3.29,6.42,10.24,9.53,10.31q10.23.21,20.46,0c5.12-.09,11.41-6,11.51-10.88.14-6.82-.08-13.65.09-20.46.08-3.18-1.52-4.75-4.26-4.92C630.23,692.93,626,693.14,621.69,693.14ZM548.62,324.26c2.6,0,6.24,1.11,7.62-.19,7.14-6.68,15.75-4.6,24-5,1.61-.08,3.59-.11,4.7-1s2.13-3.3,1.65-4.3c-2.86-6-6.16-11.34-5.31-18.72.81-6.9-.13-7-7.1-7.11-5.95-.11-12.19-1.17-16,5.2-6,0-12.11,0-18.17,0-3.52,0-7.12,4.5-5,6.53,5.63,5.48,5.22,12.07,5,18.78-.15,4.39,2,6.09,6.1,5.86C546.89,324.22,547.76,324.26,548.62,324.26Zm72.27-57.15c1.29-1.9,2.13-2.57,2.14-3.25.11-5.19-1-10.67.3-15.52,2.31-8.65-5.23-13.65-6.4-20.92-.51-3.13-5.83-2.66-6.58-1.69-3.68,4.76-8.28,5.47-13.67,5.06a102.68,102.68,0,0,0-10.38,0c-4,.11-5.14,1.69-4.72,7.12.18,2.43.1,5.5,1.49,7.07a14.46,14.46,0,0,1,3.84,8.94c.88,8.52,5.43,13.09,12,13.19C606.5,267.2,614.14,267.11,620.89,267.11ZM435,329.46c6,0,12,.16,18-.13,1.34-.07,3.68-1.69,3.72-2.66.29-8.55.29-17.12,0-25.66,0-.95-2.37-2.36-3.79-2.61-2.5-.43-6.2-1.22-7.51.07-7,6.89-15.54,4.8-23.71,5-4.27.1-8.57-.2-12.82.14-1.38.11-3.7,1.61-3.78,2.61-.38,5.11-1.36,10.67.22,15.26,1.15,3.32,5.68,7,9.22,7.64C421.13,330.32,428.13,329.46,435,329.46ZM841.84,1088c8.55-1.69,20.25,3.84,29.54-5.2,8.62,0,17.39-1,25.83.28s13.26-6.2,20.65-6.91c.59-.06,1.27-2.87,1.3-4.42.05-2.94-1.61-4.56-4.67-4.54-2.59,0-6.54-1.07-7.54.19-5.21,6.55-12.17,4.87-18.78,5-6,.11-12.22.87-18.07-.19-7.45-1.35-12.52,3.18-18.67,5.16-2.7.87-7.06,2-9.42-1.72-3-4.67-9.41-2.45-12.86-7-1.37-1.83-6.27-1.3-9.56-1.26-1.39,0-3.88,1.42-4,2.36-.43,5.13-1.77,10.93.07,15.3,2.39,5.72,9.06,2.35,13.85,2.91C833,1088.31,836.44,1088,841.84,1088Zm-281.09,2.11c-.55-20.43,4-17.44-17.07-17.69a32.27,32.27,0,0,0-5.11,0c-4.76.7-11.38-2.68-13.81,2.81-1.9,4.27-.38,10.06-.38,15.17,6,3.83,4.42,10.06,5.64,15.65.69,3.15,5.59,6.08,9.22,7.65,2.88,1.23,6.72.4,10.12.21,5.22-.3,11.2-6.13,11.36-11C560.85,1098.63,560.75,1094.36,560.75,1090.1ZM789.19,308.67c5.13,0,10.26,0,15.39,0,4.27,0,5.46-1.38,5.54-6.23,0-3.42.11-6.84,0-10.26-.12-3.24,1.29-8.3-2.43-8.9-4.6-.75-7.45-4.95-10.58-5.32-10.12-1.2-20.48-.55-30.74-.29-1,0-2.83,2.28-2.84,3.52-.08,7.35-1.87,15.24,5,20.94-.6,6,2.82,7,7.8,6.62C780.62,308.43,784.91,308.67,789.19,308.67ZM435.65,724.31c8.65,0,17.31,0,26,0,4.36,0,5.48-1.31,5.61-6.27.06-2.6,0-5.2,0-7.79,0-3.54-.06-6.87-5.2-6.76-8.65.2-17.33-.35-25.95.17-8.06.49-17.15-3.39-23.7,4.78-2.83-3.69-5.35-5.71-9.29-.69-4.46,5.7-4.82,7.88.49,12.58,1.8,1.6,4,3.71,6.12,3.82C418.32,724.56,427,724.31,435.65,724.31ZM701,830.77c0,7.72.16,15.45-.07,23.16-.1,3.1,1.27,5.26,3.87,5.32,6.75.17,13.53-.33,20.29-.57,4.4-6.25,1.11-13.22,1.75-19.83.65-6.8.25-13.72.11-20.58-.11-4.91-6.24-10.49-11.72-10.81-2.56-.15-5.15-.07-7.72,0-5.2.12-6.46,1.13-6.49,5.31C701,818.75,701,824.76,701,830.77Zm-31.16-80.48c-5.2,0-10.39,0-15.58,0-4.12,0-5,1.85-5.34,6.68s2.38,7.56,4.5,11.24c1.88,3.26.7,8.31.81,12.58.07,2.59-.36,5.27.17,7.75.27,1.28,2.11,2.25,3.3,3.29,6.62,5.76,12.58-9.31,19.37-.65.14.17,1.4-.17,1.74-.6,2.56-3.17,6.91-4.94,6.7-10.23-.34-8.64.07-17.31-.19-26-.08-2.7-1.79-4.47-5.11-4.18S673.32,750.29,669.86,750.29ZM772.44,220.35a90.83,90.83,0,0,0-10.31.13c-1.4.15-3.75,1.66-3.78,2.62-.3,8.59-.43,17.2-.07,25.79.17,4,11,9.15,14,6.4,6.13-5.54,11.92-5.24,17.66-.31,1.89,1.62,2.29,2.13,3.83,0s4.77-3.48,5.16-5.57c.93-4.95,2.51-11.24.35-15-3.58-6.15-8-13.08-16.56-14A93.26,93.26,0,0,0,772.44,220.35ZM392.12,973.69c7.68,0,15.36,0,23,0,4.83,0,7.62-4.7,4.21-8.42-3.06-3.34-3-7.6-5.32-10.65-2.88-3.85-6-8-12.41-7.06-5.86.81-12-.44-17.87.35-5.42.73-9.18,6.92-15.82,5.15-2.8-.75-4.55,1.48-4.61,4.41a116.07,116.07,0,0,0,.13,12.79c.11,1.23,1.95,3.26,3.06,3.3C375.05,973.81,383.59,973.69,392.12,973.69ZM502.29,324.26c5.2,0,10.39.05,15.58,0,5.7-.07,7.62-3.77,6.63-10.6-.74-5.07-7.6-7.22-5.77-13.22-3.82-3.05-10-2.11-12.54-7.34-2.6,2-3.94,5.49-8.23,5.28-6.91-.33-13.85-.07-20.77-.09-3.08,0-4.6,1.59-4.75,4.55-.09,1.72,0,3.46,0,5.19,0,11.19,4.28,16.09,14.29,16.23C491.91,324.32,497.1,324.26,502.29,324.26ZM760.45,911.34c5.11,0,10.23.17,15.34-.06,2.76-.13,9.77-9.87,8.2-11.31-6.61-6.06-4.59-13.73-5.13-21-.2-2.63-2-4.58-5.14-4s-6.94-1.7-9.48,1.76c-2.26,3.08-5.2,3.78-8.83,3.48-3.39-.28-7.36-1.16-10.1.19-4.62,2.26-2.46,7.46-2.66,11.46a142.72,142.72,0,0,0,0,15.34c.16,2.68,1.77,4.37,5,4.18C751.91,911.16,756.19,911.34,760.45,911.34ZM638.68,242.23c0,5.14-.17,10.29.07,15.43.13,2.77,1.73,4.36,4.91,4.3,8.58-.14,17.15,0,25.73-.06,4.34,0,5.23-1.42,5.72-6.13,1-9.32-1.09-17.89-5.19-26.19-1.18-2.4-2-4.24-5.24-4.11-6.85.26-13.72,0-20.58.09-4.22,0-5.33,1.36-5.41,6.38C638.64,235.36,638.68,238.8,638.68,242.23ZM575.05,885.37a94.44,94.44,0,0,0-10.24.12c-1.43.15-3.85,1.57-3.89,2.48-.29,8.53-1,17.2.25,25.57.46,3.1,5.46,7.28,8.88,7.83,7.5,1.19,15.33.49,23,.25,1.38,0,3.85-1.58,3.88-2.49.3-8.53,1-17.2-.25-25.56-.46-3.11-5.34-6.6-8.93-7.9C584,884.31,579.32,885.37,575.05,885.37ZM716.61,567.53c0-4.26-.25-8.54.06-12.78.41-5.51-1.9-7.76-7.29-7.09-4.72-6.58-11.76-5.28-18.3-5.11-6.07.15-7.31,3.76-6.45,12.25s.47,16.85.92,25.27c.08,1.36,1.63,3.76,2.57,3.79q12.78.43,25.56,0c1,0,2.68-2.25,2.8-3.56C716.84,576.07,716.61,571.79,716.61,567.53ZM288.13,386.6c7.73,0,15.46-.14,23.18.06,5,.12,5.24-3.06,5.25-6.63a88.19,88.19,0,0,0-.13-10.29,5.51,5.51,0,0,0-2.71-3.77c-1.42-.65-3.37-.15-5.08-.15-6.87,0-13.89-.87-20.57.24-7.44,1.23-12.57-2.82-18.53-5.34-1.46-.62-3.41,0-5.11-.12-3.2-.29-4.81,1.5-4.95,4.27-.25,5.14-.12,10.3-.05,15.45.05,4.9,1.24,6.24,5.52,6.27C272.68,386.64,280.41,386.6,288.13,386.6Zm232.7,41.57c6,0,12,0,18,0,5,0,6.29-1.18,6.36-5.4.05-3.42,0-6.84,0-10.26,0-10.19,0-10.23-9.19-10.29q-14.1-.07-28.22,0c-2.48,0-5.25-.2-7.34.81s-3.71,3.47-5.53,5.27c-3.41,3.4,1.69,3.52,2.09,5.45.49,2.36,1.08,4.72,1.41,7.11,1,7.19.94,7.23,7.06,7.3C510.57,428.21,515.7,428.17,520.83,428.17ZM803.45,630.79c2.58,0,6.22,1.1,7.54-.18,7-6.84,15.62-4.47,23.75-5.12,2.24-.18,5.83-1.25,6.26-2.68,1-3.14,1.25-7.17,0-10.09s-4.45-5.12-7-7.35-5.21-5.38-7.89-5.43c-5.56-.12-12.15-3-16.59,3-1.56,2.12-2.43,2.36-3.73.16a5.46,5.46,0,0,0-1.8-1.81c-3.82-2.33-6.15-2.62-8.64.41-1.91,2.33-8.87,3.62-2.8,9.06,4.43,4,1.57,9.68,1.87,14.56.29,4.66,2.7,5.57,6.48,5.47C801.74,630.77,802.59,630.79,803.45,630.79ZM727,1017.55c0-7.7.12-15.41,0-23.11-.11-5.41-7.47-10.46-14.71-10.36-5.12.07-6,1.22-6,8.33,0,13.69,0,27.39,0,41.09,0,1.71-.63,3.81.14,5,1.31,2.12,3.69,3.56,5.26,5.56,2.6,3.31,6.12,2.21,9.35,2.27,5.12.09,6-1.18,6-8.28C727,1031.25,727,1024.4,727,1017.55ZM598.39,495.71c-.7.1-7.17-.88-10.22,1.9-4.79,4.36-9.56,2.53-14.33,3.44-.76.15-1.8,3.18-1.59,3.33,4,2.88,3.78,7,4.27,11.32.71,6.26,6,11,11.34,11.11,4.2.09,10,1.19,12.28-1,4.42-4.31,9-3.9,14-4.12,7.69-.35,11.51-6.06,8.58-13.13-.92-2.21-4.57-3.84-4.59-5.76-.06-5.65-2.29-7.65-7.68-7.1C607.92,495.93,605.31,495.71,598.39,495.71Zm217,410.44c5.13,0,10.26.07,15.39,0,3.3-.06,10.34-6.3,10.44-9.45.18-6,.11-12,0-18,0-3-5.22-5.58-7.82-3.41-3.3,2.76-6,5.6-10.89,5-4.21-.53-8.54-.19-12.81-.1-16.69.37-15.18-3.25-15.21,14.53,0,1.71,0,3.42,0,5.13.1,4.92,1.24,6.25,5.47,6.3C805.15,906.19,810.29,906.15,815.42,906.15Zm-233.77-478c5.11,0,10.23.11,15.34,0,4.8-.14,10.19-6.4,10.52-11.92.4-6.93-4.89-13.9-11-14-11.93-.16-23.87-.07-35.8,0-3.55,0-6.8,3.88-5,6.5,3.3,4.89,6.2,9.56,5.23,15.86-.16,1,1.78,3.38,2.85,3.44C569.71,428.35,575.68,428.17,581.65,428.17Zm124.57,31.46c0-3.41-.15-6.82,0-10.21a9.66,9.66,0,0,0-7-9.48c-7.17-1.46-14.8-.71-22.25-.7-1.53,0-7.18,7.88-7.16,9.75,0,2.56.75,5.41-.14,7.61-2.83,7,8.49,8.91,5.37,15.77,3.18,4.15,7.72,2.29,11.72,2.49a139.63,139.63,0,0,0,15.31,0c2.67-.16,4.41-1.78,4.17-5C706,466.45,706.22,463,706.22,459.63ZM476.13,500.9c-8.56,0-17.12,0-25.68,0-3.33,0-6.06,4.89-3.85,7.66,2.63,3.29,4.06,6.74,5.73,10.51,2.32,5.25,9.11,2.22,13.95,2.5,9,.51,17.69-.47,26.34,4.89,6.23,3.87,11.1-.48,10.94-7.87-.44-20.55,3.95-17.42-17.16-17.7C483,500.87,479.55,500.9,476.13,500.9ZM667.25,693.14c-3.45,0-6.9,0-10.35,0-6.9,0-7.76.73-7.82,6.62-.06,6.9-.93,14,.37,20.63.67,3.43,4.94,6.57,8.26,8.86,1.18.82,4.7-.81,6.55-2.16,2.1-1.53,3.22-2.82,5.7-.33,1.55,1.56,5.17,3.24,6.4,2.48,3.43-2.11,7.84-5,8.69-8.42,1.42-5.68.51-12,.34-18-.09-3.3-7-9.54-10.37-9.66C672.43,693.06,669.84,693.14,667.25,693.14Zm139-171.45c6.88,0,13.78.2,20.64-.11,2.67-.12,4.32-1.89,4.1-5.14-.29-4.29-.05-8.6-.08-12.9,0-6.89-.73-7.78-6.59-7.81-12-.06-24.1-.15-36.14.08-2.65.05-4.31,1.9-4.09,5.15.29,4.28,0,8.6.08,12.9,0,6.89.73,7.74,6.59,7.81C795.91,521.74,801.08,521.69,806.24,521.69Zm92.21-163.52c0-4.28.08-8.55,0-12.82-.08-3.34-6.16-10.54-9.23-10.64-6-.2-12-.22-17.93.06-1.37.07-3.78,1.61-3.82,2.55-.31,7.68-.72,15.43.06,23,.38,3.7,4,7,4.72,10.74.59,3,1.66,4.87,4.3,5a165,165,0,0,0,17.93,0c2.64-.15,4.28-1.91,4.06-5.13C898.23,366.73,898.45,362.44,898.45,358.17Zm-441.56,70c6.83,0,13.65,0,20.48,0,4.21,0,5.32-1.35,5.44-6.31.05-2.56.13-5.13,0-7.68-.48-8.35-11.23-16.36-17.75-11.44s-12.22,4.47-18.74,4.63c-6,.14-11.95-.08-17.91.18-.64,0-1.87,3.12-1.69,3.25,3.88,2.85,4.59,6.71,4.2,11.17-.34,3.84.94,6.37,5.51,6.25C443.24,428,450.06,428.17,456.89,428.17Zm292.22,93.52c6.86,0,13.73.19,20.58-.1,2.65-.12,4.42-1.8,4.14-5.08s.07-6.86-.11-10.28-6.33-10.44-9.44-10.47c-11.15-.13-22.3-.21-33.44.07-2.61.06-4,2.16-3.9,5.29.92,24.1-5.13,20.18,19.6,20.56C747.4,521.7,748.25,521.69,749.11,521.69ZM563.36,698.33c-4.25,0-8.52.21-12.76-.07-3.09-.2-5.14,1.25-5.31,3.83-.4,5.93-1,12.12.21,17.8.79,3.58,4.51,8.72,7.52,9.18,8.32,1.26,17,.68,25.47.33,4.14-.17,9.8-10.58,7.16-13.57-3-3.46-4.57-6.67-4.17-11.16.33-3.69-.62-6.58-5.35-6.38C571.88,698.48,567.62,698.33,563.36,698.33ZM311,480.12c8.54,0,17.08.05,25.62,0,5,0,6.4-2,5.94-8.38-.41-5.52-5.75-12.25-10.12-12.35-6.83-.15-13.66-.08-20.5,0-5.79,0-8.87,7-15.84,5.45-5.68-1.29-11.9-.31-17.87-.2-.68,0-1.44.76-2,1.35s-.75,1.63-.61,1.71c3.85,2.54,3.9,6.9,5.54,10.56,1.74,3.89,6.13,1.67,9.3,1.81C297.3,480.33,304.14,480.12,311,480.12Zm249.77,31.14c0-2.56,0-5.13,0-7.69,0-6.85-.78-7.78-6.49-7.85q-9-.09-18,0c-6.59,0-10.77,8.42-18.44,5.35-.82-.33-3.61,1.57-3.68,2.57a101.1,101.1,0,0,0,0,15.37c.07,1,2.46,2.52,3.81,2.56,8.55.23,17.11.08,25.66.13,5,0,10.36-1.26,13.75,4.2,0,.07,3.15-1.11,3.2-1.82C560.91,519.83,560.75,515.54,560.75,511.26ZM727,770.13c0-5.13.68-10.38-.26-15.33-.54-2.87-3.64-5.29-5.68-7.84-3.19-4-3.57,1.28-5.43,1.71-2.34.53-4.66,1.42-7,1.56-12.7.72-12.72.66-12.78,11.86,0,6.84-.14,13.68.12,20.51,0,1.38,1.57,3.84,2.48,3.88q12.81.45,25.62,0c1,0,2.7-2.25,2.82-3.56C727.23,778.69,727,774.4,727,770.13ZM535.2,973.69c4.32,0,8.65,0,13,0,8.2-.09,8.62-1.35,4.22-11a29,29,0,0,1-2-6.95c-1.68-9.45-6.15-11.57-14.64-13.66S524,947.72,517,948c-9.68.42-10.34,1.79-5.36,9.9,2.6,4.23,1.57,8.08,2.42,12.05.3,1.38,1.85,3.48,2.93,3.54C523.07,973.87,529.14,973.69,535.2,973.69ZM815.49,958.1c5.13,0,10.26.07,15.38,0,3.31-.06,10.13-6.13,10.36-9.5a82.86,82.86,0,0,0-.07-12.8c-.11-1.29-1.84-3.47-2.87-3.5-11.1-.25-22.22-.2-33.32-.13-3.3,0-10.13,6.13-10.36,9.5a82.87,82.87,0,0,0,.07,12.8c.11,1.29,1.81,3.43,2.88,3.49C803.52,958.28,809.51,958.1,815.49,958.1ZM646.61,474.93h12.82c.85,0,2.12.35,2.48-.07.82-1,1.91-3.19,1.66-3.38-7.47-6-3-14.31-4-21.47-.52-3.72-1-6.41-5.61-6.3-7.69.17-15.38,0-23.07.05-6.83,0-7.71.75-7.78,6.54-.07,5.13-.17,10.26,0,15.38.12,3.07,7.3,9.15,10.64,9.22C638.06,475,642.34,474.93,646.61,474.93Zm-2.74,429.89c0-5.14.19-10.29-.12-15.42-.08-1.39-1.59-3.82-2.52-3.86-8.55-.3-17.13-.3-25.69,0-1,0-2.67,2.35-2.71,3.66-.26,7.7-.23,15.42-.08,23.13.06,3.09,7.15,9.3,10.53,9.37,5.14.12,10.3-.18,15.42.11,3.28.19,4.86-1.48,5.08-4.15C644.13,913.41,643.87,909.1,643.87,904.82ZM610.44,287.89H597.67c-.86,0-1.86-.3-2.53.06-2.31,1.21-3.79,2.65-.84,5,4.94,3.86,2.22,9.37,2.78,14.15a13.07,13.07,0,0,0,13,12q8.94.09,17.88,0c4.23,0,5.43-1.39,5.49-6.22.06-5.11.14-10.22,0-15.32-.11-3.19-7-9.51-10.23-9.59C619,287.81,614.69,287.89,610.44,287.89ZM318.38,412.58c-2.69,0-6.33-1.11-7.71.19-7.14,6.69-15.75,4.68-24,5-3.46.12-6.93,0-10.39,0-6.22.1-6.52.55-6.51,8,0,3.4-.61,7.27,4.34,7.52,5.18.27,10.39-.05,15.58.1,4.1.11,8.05-.7,11.89,2.83,4.52,4.15,6.83-5.35,12.48-3.14,3.75,1.46,8.54.33,12.87.26,4.85-.08,6.74-4,4.06-8.81-.8-1.46-3.44-2.5-3.43-3.71C327.64,414.24,325,411.28,318.38,412.58ZM669.85,1010c0,5.12-.19,10.25,0,15.36.27,5.68,7.64,9,5.23,15.8-1.07,3,1.24,4.92,3.86,5.11a32.32,32.32,0,0,0,9.84-.91c.89-.21,1.69-2.72,1.72-4.2.17-7.68.48-15.38,0-23-.48-7.18,3.28-15.55-4.94-20.95a20.55,20.55,0,0,1,1.54-1.8c2.46-2.35,5.74-5-.68-6-3.33-.54-6.81-.07-10.23-.1-3.71,0-6.58.66-6.4,5.41C670,999.79,669.85,1004.91,669.85,1010Zm-81.68-36.34a89.4,89.4,0,0,0,10.23-.13c1.39-.15,3.69-1.65,3.74-2.63.32-6.81,1.16-13.86-.25-20.38-.69-3.18-5.59-7.13-9.06-7.67-7.5-1.17-15.31-.49-23-.24-1.32,0-3.68,1.66-3.72,2.63-.33,6.81-1.17,13.86.25,20.38.69,3.18,5.48,6.47,9.1,7.74C579.28,974.72,583.9,973.69,588.17,973.69Zm77.89-659.82c5.14,0,10.3.26,15.41-.11,2.65-.19,4.26-2,4-5.17-.48-6.54,1.94-13.82-5.26-18.41.7-5.25-1.17-7.83-6.89-7.56-6.84.32-13.71-.07-20.56.21-1.27.05-3.52,1.8-3.56,2.81q-.4,12.84.07,25.68c0,.89,2.5,2.32,3.92,2.43C657.48,314.08,661.78,313.87,666.06,313.87Zm-109.5,337.7c-4.27,0-8.56-.22-12.81.13-1.33.12-3.58,1.75-3.62,2.75-.29,8.53-.24,17.09,0,25.62,0,.6,3.14,1.8,3.29,1.6,2.86-3.93,6.77-4.33,11.2-4.19,7.69.25,15.39.2,23.07-.06,1.31,0,3.6-1.66,3.68-2.69.38-5.1,1.36-10.65-.23-15.23-1.15-3.31-5.64-6.62-9.28-7.61C567.08,650.59,561.69,651.57,556.56,651.57Zm315.91-460c-.35-4.92.12-9.39-3.34-14.33-2.93-4.18-1-11.48-2.59-17-.84-2.91-4.27-6.42-7.14-7.1-4.91-1.16-10.32-.53-15.48-.13-1,.07-2.27,2.47-2.51,3.94-.41,2.53-1.22,6.3.08,7.59,7.13,7.06,4.46,15.79,5.06,24,.11,1.57.73,4.37,1.34,4.43,7.4.74,12.33,9.29,20.66,6.55a6.57,6.57,0,0,0,3.77-2.82C873,195.25,872.47,193.29,872.47,191.56Zm5.2,260c0,6,.19,12.05-.08,18.06-.14,3.17,1.33,4.71,4,5.29a24.46,24.46,0,0,0,5.14.07c20.83-.06,16.5,1.82,16.89-15.57.15-6.88-.15-13.77.1-20.64.12-3.17-1.34-5.08-4-5.24a157.35,157.35,0,0,0-18,0c-2.67.14-4.32,1.9-4.09,5.15C877.89,442.9,877.67,447.21,877.67,451.51Zm-68.94-298.7c-1.71,0-3.41,0-5.12,0-3.24.07-7.26-1-8.69,2.77-.4,1,4.29,3.4,4.58,5.45.72,5,.43,10.21.19,15.31-.35,7.54,8.6,12.56,5.51,20.83-.13.33,1,1.3,1.74,1.73a4.61,4.61,0,0,0,2.27.63c3.41.07,6.82,0,10.23,0,3.79.06,6.46-.85,6.32-5.49-.18-6,0-11.93,0-17.9-7.32-4.52-5.1-11.8-5.11-18.31,0-3.2-1.51-4.66-4.21-5A61.14,61.14,0,0,0,808.73,152.81Zm-52.2,779.32c-2.55,0-5.1,0-7.65,0-4.88.09-6.23,1.23-6.28,5.43-.06,5.1-.09,10.2,0,15.3.07,3.27,6.31,10.29,9.4,10.39a139.53,139.53,0,0,0,17.83-.16c2.06-.2,3.81-2.89,5.82-4.27,5.39-3.68,3-9.19,3.19-14,.26-5.21-5.44-12.49-9.58-12.69S760.78,932.13,756.53,932.13ZM507.17,703.53c-6.84,0-13.68-.15-20.5.12-1.32.06-3.6,1.67-3.68,2.69-.38,5.1-1.42,10.67.17,15.25s7.39,2.33,11.4,2.69c5.66.51,11.18-1,16.36,4.22,4.83,4.9,8-3.91,12.66-4.11,4.07-.17,6.13-1.54,6-5.86-.41-16.93,2.7-14.88-14.74-15C512.3,703.51,509.73,703.53,507.17,703.53Zm254.45-77.94c6.06,0,12.12,0,18.17,0,.79,0,1.94-.12,2.28-.62a10.47,10.47,0,0,0,2-4.32c.61-5.31-6.88-7.3-5.58-13.42.3-1.39-3.58-3.44-5.13-5.49s-2.5-2.4-3.73-.58c-2.15,3.16-5.09,3.93-8.87,3.77-7.78-.32-15.57-.13-23.36-.08-4.86,0-6.74,4-4.12,8.82,1.16,2.14,3.71,4,3.89,6.11.38,4.31,2.11,6,6.27,5.87C749.5,625.5,755.56,625.59,761.62,625.59Zm-65.79,80.52c0,5.2-.52,10.47.25,15.54.31,2.07,3.62,3.56,5.2,5.59,2.63,3.39,4.16.61,5.49-1,2.79-3.37,6.42-1.8,9.62-1.82s5.05-1.34,5.31-4c.4-4.29-.09-8.65.17-13,.2-3.43-.06-12.74,0-13.86.25-3.05-1.15-5.31-3.79-5.5A152.81,152.81,0,0,0,700,688c-2.71.14-4.42,1.8-4.19,5.11C696.05,697.45,695.83,701.79,695.83,706.11Zm-47.68,402.66c2.57,0,5.23.4,7.69-.11,2.63-.55,3.89-2.54,3.68-5.54-.34-4.86,1.49-10.87-7.08-10.1-1,.1-3.09-1.94-3.21-3.13a38.77,38.77,0,0,1,.35-10.09c.41-2.45,6.86-3.28,2.16-7.24-2.45-2.08-3.75-5.76-8.06-5.42s-8.58-.19-12.82.2c-3,.28-6.31,8.23-4.56,10.78,2.72,4,2.09,9.78,7.08,12.65.74.42-.13,3.28.14,5C635.07,1105.06,639.08,1108.58,648.15,1108.77Zm245.1-346.55c0,6.81-.2,13.63.11,20.43.12,2.62,1.85,4.42,5.09,4.06,2.52-.28,5.1,0,7.65-.06,8.56-.09,9.17-1.28,5.34-10.39-.51-1.21-1.71-3.32-1.49-3.48,7.09-5.09,3.75-12.47,4-18.83.31-9.74-5.87-14.77-15.93-14.1-3,.2-4.63,1.62-4.69,4.5C893.17,750.3,893.25,756.26,893.25,762.22Zm-5.19-205.07c0,5.1,0,10.2,0,15.3.08,5.66,1.69,6.19,7.86,6.6,5.15.35,7.24-4.42,10.68-5,4.91-.85,7.87-1.47,7.48-7.18a82.1,82.1,0,0,1,0-12.74c.47-5.2-3.32-7.84-6.51-9.94-3.89-2.56-8.82-3.27-12.52-6.76-2.12-2-7,1.32-7,4.44C888,547,888.06,552.05,888.06,557.15ZM647.93,495.71c-5.13,0-10.28-.18-15.4.07-2.76.13-4.45,1.73-4.28,4.92.18,3.41-.1,6.85.08,10.27s6.18,10.6,9.21,10.66c7.7.16,15.42.18,23.11-.06,1.36-.05,3.78-1.6,3.83-2.55.33-6.83.33-13.69,0-20.53,0-1-2.36-2.54-3.72-2.65C656.51,495.49,652.21,495.71,647.93,495.71ZM615.09,651.57v.14c-5.17,0-10.55-.84-15.44.32-2.87.69-5.06,4.5-7.26,7.16-.19.22,1.67,2.61,2.93,3.48,2.79,1.93,1.55,4.66,1.78,7.09.68,7.25,2.74,8,9.32,8,5.63,0,7.43-6.75,13.46-5.64a53.11,53.11,0,0,0,15.52,0c2.47-.29,3.89-2.62.84-4.86-4.31-3.15-2.11-7.82-2.86-11.82-.27-1.43-1.7-3.67-2.73-3.74C625.49,651.36,620.28,651.57,615.09,651.57Zm241.8,175.61c0,6-.25,12,.11,17.91.16,2.62,2,4.45,5.2,3.93a11.44,11.44,0,0,1,2.55,0c6,.35,11.42.43,15.87-5.26s-3.7-5.67-3.18-9.81c.85-6.72.27-13.63.21-20.46,0-4.63-1.28-5.93-5.7-6-3.41-.08-6.83,0-10.24,0-3.09-.08-4.68,1.56-4.77,4.4C856.76,816.93,856.89,822.06,856.89,827.18ZM350.33,521.69c-6.11-6.12-9-9.3-12.2-12.08-1.76-1.52-4.08-3.31-6.19-3.36-14.48-.29-29-.28-43.46.11-1.08,0-3.37,4.26-2.85,5.77,1.63,4.7,4.6,9.33,10.19,9.44C312.7,521.89,329.58,521.69,350.33,521.69Zm260.82,109.1c6,0,11.91.13,17.85,0,4.86-.14,4.39-3.83,4.53-7.2s-.08-6.55-3.16-8.95c-2.56-2-4.26-4.85-8.32-4.69-8.49.33-17-.37-25.48.36-2.74.24-5.55,3.28-7.76,5.58-4.23,4.4,3.12,4.51,3,7.14-.22,4.9.59,8.23,6.59,7.85C602.64,630.57,606.9,630.79,611.15,630.79ZM851.69,355.41c0-5.15-.15-10.32,0-15.47.19-4.95-3-5.29-6.59-5.29a90.62,90.62,0,0,0-10.3.13c-1.4.16-3.75,1.68-3.77,2.63q-.39,18,0,36.09c0,.93,2.4,2.43,3.81,2.59a98.15,98.15,0,0,0,10.3.13c3.64,0,6.73-.43,6.55-5.34C851.54,365.73,851.69,360.57,851.69,355.41Zm20.45,660.66h.33c0-9.4.11-18.82-.12-28.22,0-1.28-1.67-3.45-2.78-3.6-3.35-.44-7-.76-10.1.24-1.4.46-2.41,4.13-2.47,6.37-.26,10.26-.17,20.53-.09,30.79,0,5.52,6.6,18.56,11.62,23.39.47.45,1.35,1,1.76.85.73-.3,1.76-1.12,1.77-1.73C872.17,1034.8,872.14,1025.44,872.14,1016.07ZM695.63,521.69a24.79,24.79,0,0,1,5.1,0c6.83,1.46,11.44-2,15-7,4.09-5.84-3.76-8.28-4.17-12.8-.35-3.82-1.12-6.36-5.67-6.22-6,.17-11.93,0-17.9,0-6.78,0-7.62.73-7.69,6.59-.07,5.12-.26,10.25.08,15.34.18,2.64,1.8,4.4,5.06,4.11S692.22,521.69,695.63,521.69Zm176.84,43c0-3.41.09-6.82,0-10.23-.19-6.39-6.1-11.76-13.06-11.95-1.7,0-3.41,0-5.11,0-6.79,0-6.67,1-8,6.46-2.42,9.83,7.31,16.6,5.56,26.06-.2,1.08,1.61,3.59,2.62,3.67a103.08,103.08,0,0,0,15.32,0c1-.08,2.41-2.39,2.57-3.8A91.39,91.39,0,0,0,872.47,564.65Zm8.14-256a80.94,80.94,0,0,0,10.72-.84c2.5-.4,2.26-2,.23-3.53-5.93-4.41-3.14-10.89-3.4-16.5-.48-10.19-.24-10.22-9.3-10.29-4.28,0-8.57-.23-12.83.12-1.37.11-3.74,1.64-3.77,2.59q-.45,12.82,0,25.67c0,1,2.35,2.5,3.73,2.66C869.36,308.94,872.81,308.67,880.61,308.67ZM846.5,293.21c0-4.26.07-8.53,0-12.79,0-1.56-8.14-7.81-8.65-7-3.49,5.42-8.85,3.72-13.72,4.24-1.28.13-3.35,1.86-3.41,2.95-.34,6-.18,11.93-.16,17.9,0,10.09.05,10.1,9.23,10.18,4.26,0,8.55.28,12.78-.1,2.63-.24,4.31-1.93,4-5.14C846.27,300.05,846.5,296.62,846.5,293.21Zm-187,605.06c0,5.12-.06,10.23,0,15.35,0,1.56,8.14,7.81,8.65,7,3.49-5.42,8.85-3.72,13.72-4.24,1.28-.13,3.35-1.86,3.41-2.95.33-6,.17-11.93.15-17.9,0-10.09,0-10.1-9.23-10.18-4.26,0-8.55-.28-12.77.1-2.64.24-4.38,1.93-4,5.14A69.87,69.87,0,0,1,659.46,898.27Zm80.7-480.49c6.81,0,13.63.15,20.43-.17,1-.05,2.25-2.29,2.67-3.72s.13-3.38.11-5.08c0-3.48-.11-6.69-5.12-6.69-6.5,0-13.76,2.19-18.27-5.11-5.39,9.76-10.74-2.59-16.16-.06a6.46,6.46,0,0,1-2.53.05c-3,0-4.58,1.59-4.65,4.5a113.13,113.13,0,0,0,.11,12.76c.12,1.25,1.9,3.31,3,3.36C726.54,417.93,733.35,417.78,740.16,417.78ZM877.67,767.19c0-6,.16-12-.12-18-.06-1.39-1.5-3.82-2.45-3.89-5.1-.41-10.61-1.38-15.28.09-5,1.55-2.7,7.25-2.87,11.21-.25,6-.17,12,0,18,.17,7.6,6.55,12.27,15.59,12.16,3.25,0,4.9-1.5,5.07-4.16C877.9,777.47,877.67,772.32,877.67,767.19ZM602.31,1091.78c0-5.11.24-10.24-.1-15.33-.17-2.64-1.8-4.28-5.06-4.13-5.95.28-11.94-.1-17.89.25-1,.06-2.43,2.17-2.85,3.57-2.62,8.69,7,14.68,5.37,23.44-.3,1.63,2.74,3.81,4.14,5.81,2.2,3.15,5.25,3.67,8.84,3.45,3.34-.21,7.13.53,7.49-4.28C602.56,1100.33,602.31,1096.05,602.31,1091.78Zm28.33-123.29a12,12,0,0,1,2.54,0c6.76,1.49,11.42-1.91,14.89-7,3.09-4.51-.67-7.3-3.24-10.6-1.27-1.65-.57-4.76-1-7.18-1-6-3.73-7.16-10.33-6.65-4.16.33-5.18,5-8,5.13-5,.27-8,1.06-7.66,6.9.31,5.08-.16,10.2.16,15.27.17,2.64,1.79,4.44,5,4.11C625.52,968.29,628.09,968.49,630.64,968.49Zm278.2-792.18c0-4.28,0-8.56,0-12.84s-1.37-5.39-6.32-5.45c-5.14-.06-10.27-.08-15.41,0-3.71.07-6.64,4.71-4,7.34,4,4,5.65,8,5.07,13.45-.36,3.39.07,6.85-.1,10.27-.26,4.92,2.93,5.29,6.54,5.28h7.7c3.56,0,6.83-.23,6.61-5.22C908.69,184.88,908.84,180.59,908.84,176.31Zm-37.36,75.21a80.6,80.6,0,0,0,9.6-1c.83-.16,1.44-2.69,1.74-4.21.84-4.24-4.47-5-5-8.1-.69-4.14-.36-8.5-.11-12.75.18-3.22-1.52-5-4.18-5-6.7,0-13.42.33-20.09.93-.71.06-1.42,2.69-1.72,4.21-.84,4.23,4.46,5,5,8.09.7,4.15.36,8.51.12,12.76-.19,3.22,1.49,4.66,4.19,5C863.53,251.78,866.12,251.52,871.48,251.52Zm-9.4,209.22c0-4.26.14-8.53,0-12.78-.13-3.06-7-9.21-10.47-9.36a111,111,0,0,0-12.77.12c-.66,0-1.83,3.12-1.63,3.26,3.88,2.86,4.4,6.73,4.2,11.17-.27,6-.23,11.94.06,17.89.06,1.34,1.63,3.64,2.64,3.71a103.08,103.08,0,0,0,15.32,0c1-.08,2.41-2.39,2.57-3.79A91.6,91.6,0,0,0,862.08,460.74Zm-404.8,159.4c-1.16-1.47-2.5-4.69-3.89-4.71-22.2-.32-44.41-.24-66.62-.15-.61,0-1.37,1-1.78,1.72a1.84,1.84,0,0,0,.13,1.74c2.4,2.34,4.61,5.93,7.45,6.56,4.89,1.08,10.18.28,15.31.3s10.21.08,15.32.12c3.79,7,7.06,1.25,11.21.25,6.44-1.56,13.47-.51,20.23-1C455.46,624.94,456.11,622.37,457.28,620.14ZM662,630.79c5.13,0,10.27.21,15.38-.17,1-.08,2.55-2.22,2.81-3.6,1.75-9.28-4.2-16.89-13.08-17-6-.07-12,.14-18-.06-5-.16-5.21,3-5.22,6.6,0,2.57,0,5.13,0,7.7,0,3.57.3,6.79,5.25,6.57C653.39,630.64,657.67,630.79,662,630.79Zm231.3,360.9c0,9.52-1.47,15.29.38,19.63,2.25,5.26,5.44,9.69,5.13,16-.13,2.61,4.33,5.28,4.6,8.12.4,4.07,3.14,5.77,5.33,8.13.88,1,2.36,1.37,3.57,2,.6-1.47,1.65-2.92,1.7-4.4.19-6-.4-12,.22-18,.54-5.1-1.9-8.42-5.49-10.54-8.42-5-1.62-16.51-9.75-21.32,7.52-4.72,1.59-7.62-1.5-10.88-.51-.55-1.33-1.42-1.77-1.3-.72.21-1.72,1.07-1.77,1.72C893.5,986,893.29,991,893.25,991.69ZM706.1,630.8c4.9-.64,10.9,2.19,14.52-1.8,4.82-5.33-3-8.25-4-12.67a24.89,24.89,0,0,1,0-5.11c0-3.7-.59-6.66-5.38-6.45-4.27.19-8.55,0-12.83.05-6.82,0-7.68.74-7.75,6.57-.07,5.13-.26,10.28.08,15.38.18,2.65,1.87,4.37,5.11,4.09C699.24,630.56,702.68,630.79,706.1,630.8Zm-150.84,0c5.1,0,10.2.05,15.3,0,4.86-.06,6.22-2.12,5.77-8.49-.12-1.64.35-3.93-.54-4.81-3.52-3.45-6.74-10.83-12.54-2.28-10.2,0-20.41-.18-30.59.27-1.11,0-3.36,4.25-2.84,5.75,1.6,4.7,4.56,9,10.14,9.48C545,631.13,550.16,630.79,555.26,630.79ZM791.74,396.18c-4.73-1.93-7.91,5.7-13.87,6.31-4.57.47-5,5.58-2.36,9.38,5.48,7.82,13.47,5.59,20.89,5.91,6.64-7.5,15.54-4.65,23.71-5.25,1.54-.12,3-1,4.54-1.49-1.12-1.82-2.32-3.61-3.35-5.49-4-7.18-13.63.43-18-7.09C802.21,396.62,797.12,397.13,791.74,396.18Zm-33.93,271c6,0,11.94.17,17.89-.15,1.14-.07,2.76-1.94,3.15-3.27,1.67-5.59-2.26-14.85-7.65-17-1.81-.74-4.66.55-6.84,1.4s-4.09,3.15-6.24,3.32c-5.93.47-11.93,0-17.88.33-1,.06-2.3,2.24-2.74,3.66s-.12,3.38-.11,5.08c0,3.48.06,6.86,5.08,6.71S752.69,667.16,757.81,667.16ZM727,901.17c-3.58-4-5.28-11.81-6.76-19.72-.13-.68-2.9-.89-4.45-1.28-5.92-1.48-9.57,2-13,6-.56.65-1.79,1.68-1.73,1.76,1.53,1.9,4.2,3.52,4.57,5.58.42,2.24-6.94,3.16-2.24,7.16,4,3.42,2.21,7.77,2.88,11.75a6.28,6.28,0,0,0,2.51,4C715.45,920.26,726.93,912.6,727,901.17ZM829.62,251.52a63,63,0,0,0,9.65-.73c2.4-.44,2.43-2.27.43-3.46-4.54-2.68-3-7.24-3.8-11.19-.79-3.73-3.29-7.09-5-10.63-.67-1.41-1.13-4.11-1.81-4.16a146.29,146.29,0,0,0-17.14,0c-.69,0-1.34,2.67-1.8,4.16a19.18,19.18,0,0,0-.06,2.53c-1.2,7.66,9.06,12.41,5.39,20.84-.13.3,2.29,2.31,3.69,2.56C821.66,251.84,824.26,251.52,829.62,251.52Zm27.27,449.41c0,5.1-.21,10.23.17,15.3.07,1,2.22,2.5,3.61,2.78,5.88,1.2,16.61-3.67,16.88-7.88a158,158,0,0,0,0-20.41c-.27-4.21-11-9.09-16.89-7.93-4.52.9-3.84,4.63-3.79,7.93S856.89,697.52,856.89,700.93ZM664.71,672.35c4.24,0,8.5.25,12.69-.17,1.06-.1,2.5-2.24,2.75-3.62,1.66-9.29-4.16-16.84-12.87-17-3.39-.05-6.87.5-10.15-.11-7.35-1.38-7.28,3.65-8.92,8.48-2.19,6.43.08,12.12,6.34,12.38C657.93,672.47,661.33,672.35,664.71,672.35ZM632.13,423c4.29,0,8.59.21,12.86-.12,1.41-.11,3.82-1.52,3.9-2.49.39-5.12,1.38-10.67-.15-15.32-1.6-4.88-7.34-2.58-11.33-2.79a141.83,141.83,0,0,0-15.43.06c-1.41.08-3.83,1.53-3.9,2.49a103.08,103.08,0,0,0,0,15.42c.08,1,2.38,2.47,3.77,2.63A92.83,92.83,0,0,0,632.13,423Zm282,187.82c-.72-3.58,0-8.07-1.88-9.81-2.75-2.54-7.24-2.69-10.75-5.38-2.08-1.59-5.33,5.42-10.26,4.31-.59-.13-2.7,3.66-3,5.8a35.2,35.2,0,0,0-.06,10.35c1.17,8.13,13.45,12.67,20.08,7.53C912.47,620.29,915.24,616.26,914.12,610.79ZM683.83,402.19c-4.26,0-8.51-.05-12.77,0-5.65.09-6.64,1.34-6.4,7.87.36,9.89,10,16.3,19.1,11.44,3.79-2,6.92-3.78,11.25-3.9,2-.06,5.35-1.6,5.74-3.08.81-3.13.39-6.71-.2-10-.17-1-2.54-2.14-4-2.24C692.35,402,688.08,402.19,683.83,402.19Zm-190.72,213c-7.72,0-15.43-.13-23.13.18-1,0-2.71,2.54-2.56,3.72.27,2.24,1.09,5.35,2.71,6.24,2,1.08,5,0,7.56.31,8,1,17.27-3.65,23.56,5.14,5.14,0,10.27,0,15.4-.14a2.57,2.57,0,0,0,1.74-1.75c.41-3.31,1-6.69.66-10-.27-2.63-2.32-3.92-5.38-3.81C506.82,615.37,500,615.2,493.11,615.2ZM354.21,718.42v.69c8.55,0,17.09.12,25.63-.07,2.77-.06,4.71-1.75,4.21-4.87-.24-1.54-.61-3.79-1.64-4.33-4-2.07-8.19-3.57-12.32-5.29-7.72,8.4-17.7,2.44-26.49,4.07-4.89.9-10,.54-15,1.22-.75.11-1.61,2.78-1.57,4.25s1.1,4.12,1.79,4.15C337.31,718.52,345.76,718.42,354.21,718.42Zm539,105.26c0,4.32.42,8.7-.1,13-.65,5.31,3.5,7.31,6,10.58,2.06,2.67,4.74,1.92,7.06,1.57,1-.15,2.4-2.48,2.52-3.92.6-6.75.18-13.67,1.49-20.25.52-2.57,5-4.1.67-7.49-3.37-2.66-6-6.22-9.33-9-1.07-.89-3.36-1-4.81-.56s-3.23,1.95-3.34,3.13C893,815,893.25,819.35,893.25,823.68ZM866.17,625.59a78.93,78.93,0,0,0,9.64-1c.84-.16,2.14-3.1,1.71-4.12-2.47-5.94-7.15-11.14-5.31-18.42.12-.47-2.47-2.26-3.89-2.37a81.51,81.51,0,0,0-12.79,0c-1.34.11-3.62,1.69-3.67,2.69-.32,6.82-.32,13.66,0,20.48,0,1,2.38,2.31,3.82,2.56C858.18,625.9,860.79,625.59,866.17,625.59Zm58.26-264.84c0-4.26-.59-8.63.13-12.76,1.14-6.46-3.79-8.94-7.18-12.39-.92-.94-3.16-1.12-4.64-.85-2.64.49-4.42,2.08-3.91,5.22,1.29,7.91-3.6,17.18,5.21,23.42,0,5.11-.4,10.28.29,15.3.17,1.17,4,2.28,6.24,2.53,1.17.14,3.62-1.59,3.68-2.58C924.6,372.69,924.43,366.72,924.43,360.75ZM664.66,950c0,3.4-.22,6.82.06,10.19.24,2.84,9,8.93,11.5,8.29,3.41-.87,9.11-7.29,9.19-10.64.11-5.09-.12-10.19.07-15.28.18-4.89-2.94-5.25-6.51-5.25-3.4,0-6.82-.24-10.19.08-2.68.25-4.45,1.77-4.17,5C664.83,944.9,664.66,947.46,664.66,950Zm132-302.88c.11-.08-1,.33-1,.89a71.71,71.71,0,0,0-1,9.9c0,10.77,1.09,11.29,11.36,5.61a19.24,19.24,0,0,0,1.83-1.32c4.79,9.55,9.07-1.77,13.88-.37s10.33-2,14.35,2.69c2.08,2.43,3.94,2.47,5.17-.33.62-1.39.68-4.1-.19-4.89-3.59-3.23-5.69-8.44-12.22-7.89a145.85,145.85,0,0,1-23.18,0C802.63,651.15,799.84,648.73,796.62,647.13Zm-90.4,300.53c0,3.4-.13,6.8,0,10.19.3,6.3,5.89,8.28,12.45,6.3,5.2-1.57,9.59-2,8.4-9.06-.56-3.3-.08-6.78-.1-10.17-.06-7.53-.07-7.53-9.21-7.6-2.55,0-5.15-.31-7.63.12-1.42.24-3.49,1.47-3.76,2.62C705.81,942.47,706.22,945.11,706.22,947.66Zm171.45-59.8a70.77,70.77,0,0,1,.05-7.71c.37-3.28-1.46-4.86-4.13-5.08a78.64,78.64,0,0,0-12.84,0c-1.35.12-3.64,1.7-3.69,2.69-.33,6.84-.33,13.72,0,20.56,0,.93,2.48,2.37,3.89,2.48a80.94,80.94,0,0,0,12.84,0c1.35-.11,3.53-1.6,3.69-2.7C878,894.76,877.67,891.29,877.67,887.86ZM914,236.12c0-4.27.24-8.57-.17-12.79-.11-1.1-2.23-2.73-3.53-2.84a113.82,113.82,0,0,0-12.8-.11c-3,.07-6.29,5.46-4.13,7.27,5.34,4.47,5.54,10,5.05,16-.07.85.11,1.73,0,2.56-.52,3.13,1.26,5,3.89,5.22a46.67,46.67,0,0,0,9.9-.73,2.56,2.56,0,0,0,1.74-1.74C914.11,244.66,914,240.39,914,236.12ZM856.89,941c0,4.25-.2,8.51.11,12.74a7,7,0,0,0,2.33,4.05c1.69,1.54,11.32-.72,13.8-3,3.12-2.85,6.92-6.23,3.54-10.36-2.86-3.5-4.5-6.58-4.36-11.1.06-2.12-1.2-5.73-2.62-6.17-3.11-.94-6.75-.6-10.08-.11-1.07.16-2.44,2.36-2.6,3.76A90.7,90.7,0,0,0,856.89,941Zm41.22-424.55c1.31-.18,5.67,0,9.28-1.5,2.53-1.08,4.05-4.53,6-6.92-6.52-6.08-11.39-14.52-22.79-12.56-6.54,1.13-7.61,1-7.74,6.6-.08,3.37-.2,6.77,0,10.13.2,2.75,1.72,4.44,4.82,4.28C890.27,516.39,892.81,516.49,898.11,516.49Zm21.12-223.55a101.8,101.8,0,0,0-.06-10.19c-.58-5.6-4.8-8.52-9.44-10.2-1.5-.55-5.73,1.63-5.81,2.77a186.29,186.29,0,0,0-.17,22.91c.29,5.61,4.76,8.52,9.4,10.2,1.5.54,5.54-1.46,5.8-2.8C919.73,301.53,919.23,297.19,919.23,292.94ZM708.82,651.57H698.53c-.86,0-1.72.06-2.57,0-4.88-.37-5.25,2.85-5.35,6.49-.2,8.16.52,9.07,7.87,9.1,6.86,0,13.72.16,20.56-.17,1,0,2.24-2.31,2.66-3.76s.11-3.4.11-5.11c0-3.6-.33-6.86-5.28-6.57C714,651.7,711.39,651.57,708.82,651.57Zm-23.38,433.78c0-5.11.4-10.27-.29-15.28-.17-1.21-3.89-2.38-6.1-2.68-1.2-.16-3.77,1.48-3.82,2.43a163.51,163.51,0,0,0-.12,17.85c.26,5.3-.26,9.88-5,13.45-.79.6.14,5.2,1.58,6.46s5.3,1.34,6.56.21c3.56-3.18,8.55-5.79,7.28-12.25C684.91,1092.26,685.44,1088.75,685.44,1085.35ZM345.26,615.2c-8.56,0-17.13-.08-25.7.15-.77,0-1.66,2-2.13,3.25-.13.32,1,1.59,1.71,1.71,8.75,1.54,18.92-4,26.11,5.28,8.56,0,17.14.23,25.68-.28,1.05-.06,2.32-4,2.59-6.21.15-1.18-1.6-3.69-2.56-3.72C362.4,615.08,353.83,615.2,345.26,615.2Zm548,84.61c0,1.71,0,3.41,0,5.12.09,9,.09,9,10.43,9s10.24,0,5.91-12.34c-.8-2.27-.24-5-.85-7.35-.56-2.19-1.46-5.59-2.91-6-3.13-.9-6.76-.53-10.07,0-1,.17-2.18,2.46-2.41,3.92A50,50,0,0,0,893.25,699.81Zm0,187.06a88.7,88.7,0,0,0,.13,10.19c.16,1.38,1.57,3.56,2.65,3.72,3.33.48,7,.83,10.09-.12,1.42-.44,2.49-4,2.6-6.26.32-6.65,1.49-13.91-6.13-17.75a13.57,13.57,0,0,0-6.87-1.31c-.92.07-2.13,2.44-2.36,3.89A49.88,49.88,0,0,0,893.25,886.87ZM930,458.15c-.37-6-.58-11.91-1.29-17.75-.1-.77-2.74-1.7-4.21-1.71s-4.2,1-4.21,1.66q-.42,16.36,0,32.75c0,.64,2.74,1.69,4.2,1.7s4.1-.88,4.22-1.68C929.38,468.15,929.57,463.1,930,458.15Zm-26.3,481.72c0-5.15.2-10.31-.18-15.42-.08-1-2.58-2.68-3.76-2.53-2.23.29-6.13,1.6-6.17,2.63-.47,10.27-.39,20.57-.11,30.85,0,.93,2.58,2.67,3.76,2.52,2.23-.29,6-1.46,6.16-2.67C904.05,950.21,903.65,945,903.65,939.87ZM856.7,516.49a38.8,38.8,0,0,1,5.06,0,4.49,4.49,0,0,0,5.41-3.68c.37-1.45.27-3.71-.62-4.69a154.59,154.59,0,0,0-12.62-12.33c-.95-.81-3.52-.57-4.85.12a5.53,5.53,0,0,0-2.47,3.89,78.57,78.57,0,0,0,0,12.65c.23,2.6,1.82,4.5,5,4A37.26,37.26,0,0,1,856.7,516.49Zm78.12,41.42a124.66,124.66,0,0,0-.19-12.83c-.1-1-2.64-2.6-3.85-2.43-2.2.32-6,1.64-6.07,2.73-.51,8.53-.4,17.11-.1,25.66,0,.91,2.65,2.59,3.85,2.41,2.2-.31,5.81-1.44,6.07-2.76C935.32,566.56,934.82,562.19,934.82,557.91Zm-69.4,87.72a38.85,38.85,0,0,0-2.82,2.85c-1.93,2.62-4.81,5-5.49,8-1.17,5,3.88,7.38,6.95,9.72,4.34,3.32,7.3-.94,10.55-3.59,4.25-3.47,1.08-5.09-1.06-7.41C870.71,652.12,868.12,648.83,865.42,645.63Zm-639.92-20c3.42,0,7,.65,10.17-.28,1.46-.43,2.47-3.88,2.78-6.08.16-1.21-1.5-3.8-2.43-3.85a155.34,155.34,0,0,0-20.47.11c-1.13.09-2.4,3.88-2.71,6.08-.17,1.21,1.39,3.68,2.44,3.84C218.62,625.91,222.09,625.59,225.5,625.59Zm617.82-213c4.41,0,7,.29,9.52-.08s4.18-1.83,4.18-5.07-1.49-5-4.09-5.11a94,94,0,0,0-15,.85c-.78.1-1.7,2.72-1.7,4.18s.67,3.77,1.69,4.21A17.27,17.27,0,0,0,843.32,412.58Zm30.94-6c9.22,9.2,14.21,9.14,22.66-.27.48-.53,1.3-1.32,1.17-1.74-.23-.71-1.09-1.74-1.69-1.74q-11.07,0-22.14.26a2.41,2.41,0,0,0-1.66,1.71C872.6,405.38,873.66,406,874.26,406.57Zm60.56,426.72c0-2.56.41-5.22-.18-7.63-.28-1.13-2.63-2.62-3.84-2.45-2.2.3-5.92,1.48-6.08,2.69a72.33,72.33,0,0,0-.11,15.29c.07,1,2.62,2.59,3.83,2.43,2.21-.3,5.26-1.18,6.12-2.79C935.63,838.84,934.82,835.85,934.82,833.29ZM893.11,659.18c.25,1.49.22,4.06,1.15,6.23,1.12,2.64,11.31,2.53,13.66,0a3.53,3.53,0,0,0,.88-2.14c.14-5-4.72-10.53-10.56-11.59a5.13,5.13,0,0,0-4.13,1.85C893.26,654.7,893.49,656.63,893.11,659.18Zm41.71,109.34c0-6.86.1-13.72-.15-20.56,0-.71-2.1-1.53-3.34-1.9-.36-.11-1.63,1.11-1.63,1.73-.1,12-.13,24,.07,36,0,.69,2.1,1.52,3.34,1.9.36.11,1.61-1.11,1.63-1.74C934.88,778.81,934.82,773.66,934.82,768.52ZM282.62,615.37c-5.31-.73-7.38,1.17-7.69,5.09-.26,3.23,1.47,4.6,4.07,5.08,4.05.76,6.71-1.3,6.25-5.19C285,618.39,283.3,616.59,282.62,615.37Zm652.2,91.28c0-4.4.3-7-.12-9.48-.24-1.44-1.61-2.69-2.48-4-.87,1.34-2.45,2.67-2.47,4-.06,5,.34,10,.74,15,.06.64,1.13,1.21,1.73,1.81.6-.6,1.58-1.12,1.73-1.82C934.49,709.71,934.73,707.26,934.82,706.65Zm-5.71-50.29-4.59,2.91c.53.59,1,1.2,1.58,1.76a33.49,33.49,0,0,0,3.56,3.49,19.49,19.49,0,0,0,3.49,1.71c.56-2.27,2.1-4.94,1.38-6.68S930.8,657.27,929.11,656.36Zm.93-150.9c-1.28-1.93-2.15-3.24-3-4.56-.87,1.32-2.56,2.72-2.43,3.93.25,2.21,1.56,4.32,2.43,6.47C928.08,509.25,929.14,507.2,930,505.46Zm14.43-103.62c-1.06,1.1-3.66,2.85-3.39,3.7.89,2.8,6.4,2.78,8.34.17.3-.4.34-1.56.12-1.68C948.19,403.31,946.73,402.78,944.47,401.84ZM920,404l1.85,3.35c.58-.58,1.72-1.28,1.62-1.71a16.16,16.16,0,0,0-1.62-3.49ZM930.37,816c.7.69,1.27,1.27,1.85,1.85a16.69,16.69,0,0,0,1.63-3.49c.09-.43-1.05-1.13-1.63-1.71Z"/><path d="M465.06,246.75c.6.6,1.7,1.45,1.6,1.65a10.72,10.72,0,0,1-2.36,3.06,2.22,2.22,0,0,1-2.18,0,2.2,2.2,0,0,1,0-2.18A19,19,0,0,1,465.06,246.75Z"/></svg>