<svg id="Layer_1" data-name="Layer 1" xmlns="http://www.w3.org/2000/svg" viewBox="0 0 1200 1200"><title>BB_Artboard 31</title><path d="M679.46,828.12c1,12.86,1.17,25.72.94,38.57-.07,3.79,2,8.14-2.63,11.19-4.36,2.89.45,8.07-3.2,11-5.1,4-2.58,4.76,2.34,5.18,2.36.19,4.1,1.49,3.58,5,0,.31.27-.54-.08-.85a2.22,2.22,0,0,0-1.95,0c-1.51,1-3.42,2.12-.63,3.57.37.2,1.75-1.15,2.66-2.7,3.14-2.29,6.19-4.61,9.43-4.83,6-.41,3.18-5.12,5.38-7.16,4.17-3.88,8.51-7.63,12.78-11.43-1.54-7.26,8.6-8.43,9.52-14.66.85-5.8,8-7.58,11.1-12,1.45-2.08,1.56-5.09,3.35-6.74,2.44-2.24,4-6,8.54-5.8-.61,2.52,1.53,5.55-1.61,7.58-2.8,1.8-3.45,4.22-3,7.08,1,7-3,12.57-6.81,17.91-2.72,3.77-7.46,6.17-8.3,11.38-.2,1.27-5.67,1.37-7.27,3.09s-.32,5.45-3.48,6.77c-6.93,2.9-5.46,10.79-11.12,14.36.63,4.22-1.15,6.27-6.22,6-1,0-2.89,1.6-2.88,2.47,0,6.53-6.67,8.64-10.53,12.44-1.52,1.5-5.74,1.81-8.35,1.26-6.73-1.42-13.67-9.79-13.5-16.28.12-4.35-.88-7.73-4.56-10.75-.7-.57.87-3.52,1.68-5.27a24.65,24.65,0,0,1,2.2-2.8c-7-5.43-3-12.66-4.07-19,7.11-7.48,5.3-16.6,4.24-24.85-1-7.88,6.76-13.32,5-20.84,2.56-2.33,4.78-5.09,7.74-6.92,5.93-3.67,6.57-3.72,2.91-8.88-2.39-3.37-.64-6.55-1.39-9.74,5.22-4,5.79-10.18,9.23-15-2.28-6,5.91-8.88,5.49-14.41,0-.4,2.45-1,3.76-1.43,0,4.79-.5,9.63.15,14.34.55,4-3.34,5.74-4.16,8.58-.42,1.46,4.59,3.17,4,6.49-.76,4.44,2.22,9.72-3.73,13-.53,4.59-.91,9.2-1.76,13.74-.12.66-2.46,1-4.8,1.47-.34,0,.61.24.95-.07a1.61,1.61,0,0,0,0-1.73c-1.07-1.36-2.39-3.05-4-.57C676.2,826.08,677.72,827.31,679.46,828.12Z"/><path d="M851.55,633.14V616.7c5.49-4.34,6.81-8.66,0-13.08-.36-.24-.32-1.45,0-2,2.76-4.63,5.63-8.94,4.78-14.78-.88-6.06-.2-12.3-.2-18.47V552c0-5.48.57-11-.13-16.43-1.17-9.06,4-18.84-4.27-27.25-1.53-1.55-.16-5.31-.24-8-.15-5.89,1.5-12.14-4.5-16.9-.54-.44,0-3.15.84-3.54a12.34,12.34,0,0,1,6.14-1.13c1.19.11,2.27,1.73,3.27,2.76,2.23,2.28,8.15-.65,8.21,4.86,0,4.56,5.84,7.16,4.83,12.72-1.2,6.67.35,13.72-.47,20.49-.71,5.73,2.52,9,6.76,12,4,2.8-1.24,5.07-.85,5.71,7.37,12,1.38,24.94,3.84,37.13.67,3.3,6,6-.29,9q0,6.15,0,12.32c0,4.11,0,8.22,0,12.33v12.33c-7.16,4.37-4.24,11-4.56,16.79a94.76,94.76,0,0,0,.08,16.42c.61,5.24-4.08,6.92-7,9.77-.71.71-3.4.81-4.31.19-3-2.07-5.52-4.68-8.37-6.93-2.37-1.88-3.87-3.81-3.69-6.91C851.78,644.11,851.55,638.62,851.55,633.14Z"/><path d="M555.48,539.36c-.51,4.16,2.51,10.49-4.22,15.39-1.5,1.09-.22,5.23-.22,8v77.95c0,2.74,1.28,6.63-.26,8-3.43,3-3.07,7.72-6.22,10-3.72,2.73-6.4-2.18-9.4-2.7-5.49-1-7.92-2.31-7.35-7.56.42-4,1.5-9.33-.79-11.83-4.32-4.71-5.27-7.82.33-11.63.35-5.84,2.79-12-3.61-16.77-.8-.6-1-3.26-.33-3.77,6.2-4.71,4.36-11,4.42-16.87,0-2.9.6-5.11,3.18-7.1,3.21-2.48-1.56-2.75-1.84-4.3-.48-2.57-1.33-5.2-1.14-7.75.34-4.47-2.3-9.62,3.45-13.12.88-.54,1-2.39,1-3.64.1-6.15,1.17-12.52-.26-18.4-1.52-6.27,4.74-9.62,4.86-14.77.25-10.94,0-21.88.11-32.82a14.84,14.84,0,0,1,.87-5.83c.34-.8,2.44-1.07,3.8-1.42a9.08,9.08,0,0,1,2.27,0L551,492.27c0,4.1-.39,8.24.09,12.3.84,7.06-3.57,15,4.35,20.94Z"/><path d="M935.14,650.69V640.56c7-2.91,2-10.14,6.43-14.11,1.38-1.24,2.78-3.81,2.24-5.16-2.22-5.59,5.68-7.63,5-12.75a60.5,60.5,0,0,1,0-14.36c.46-4.49-2.47-9.44,2.61-13.43,4-3.17,1.68-7.71,1.79-11.58.33-10.95.12-21.91.12-32.87,0-2-1-5.07.16-6,5.8-4.7,5.93-8.77-.06-13.3-.69-.52-.53-3.13.27-3.8,3-2.49,4.86-4.21.67-7.58-1.63-1.31-1-5.07-.91-7.7,0-1.06,1.43-2.88,2.37-3,3.81-.34,7.68,0,11.52-.18,2.87-.11,4.23,1.2,4.43,3.43.47,5.34.73,10.7,1.08,16.05,5.82,3.35,3.18,8.59,3.41,13.07.09,1.65-1.65,3.46-2.79,5.06-2.65,3.73-3.23,8,.08,11s3.39,6.09,2.74,9.27c-.88,4.35-5.75,7.37-4.67,12.73.93,4.65.27,9.56.16,14.35-.09,3.93,1.37,8.31-3.59,11.08a21.84,21.84,0,0,0,1.33,2.79c.79,1.77,2.7,4.66,2.11,5.15-5.88,4.87-4.65,11.09-4.3,17,.22,3.93-2,6.11-4.43,8.77-.84.91.63,3.58,1.19,5.41.45,1.45,4.33,1.59,1.42,4.44-5.36,5.26-5.69,13.08-11.38,18.43-2.23,2.09-1,5.09,1.79,6.87,1.77,1.13,1.85,1.77.85,3-3.07,3.7-9.57,6.19-13.84,5s-8-6.24-8.1-10.78c0-2.06,0-4.11,0-6.17Z"/><path d="M643.5,609.7v-8.23c0-4.11,1.15-8.58-.28-12.25-1.92-5,6.38-7.8,2.57-11.86-3.55-3.79-1.92-7.7-2.2-11.56-.35-4.78-.09-9.59-.09-14.39,0-4.11-.12-8.23,0-12.34.17-4.56-1.76-9.71,4-12.9-1.26-1.45-3.7-4.13-3.62-4.19,7.07-5.37,3.64-12.56,4.07-18.93.47-6.83-.19-13.72.22-20.56a12.12,12.12,0,0,0-4.54-10.81c-.7-.61.49-4.22,1.87-5.08s4.41-.3,6,.62c2.53,1.47,4.49,3.73,6.63,5.7,5.07,4.67,5.16,6.89,1.13,14.06-1,1.68-2.38,4.84-1.78,5.26,6.77,4.7,4.1,11.17,4.4,17,.28,5.48.06,11,.06,16.45s.81,11.1-.22,16.42c-1.15,6,4.08,9.94,4.53,14.81,1,10.89.16,21.91.37,32.88.12,6.5-2.13,13.57,4.56,18.86-.54,3.19,1.4,6.73-2.13,9.52-4,3.17-4,8.29-1.37,10.84,3.78,3.63,3.42,7.23,3.49,11.19.12,6-3.47,8.47-9.81,6.89-4.18-1-7-4.13-11.53-5.17a8.87,8.87,0,0,1-6.57-9.62C644.05,624.82,643.5,617.24,643.5,609.7Z"/><path d="M1065.33,777.68c3.65,3.25,6,5.6,8.62,7.59,3.15,2.36,4.54,5,4.28,8.78-.11,1.72.83,4.25,2.29,5.16,6.48,4.08,7,9.71,6.9,16-.3,13.68.25,27.38-.24,41-.23,6.39,3.22,13.71-4.23,18.91-.08,6.13-.19,12.26-.24,18.38s0,12.32,0,18.48c-6.14,3.76-4.39,9.47-4.64,14.71-.23,4.76-5.34,6.26-8.14,9.28s-5.66,2.81-8-1.05c-3.79-6.22-8.92-12.31-6.84-20,1.33-4.94,6.16-8.75,4.73-14.78-1.1-4.58-.22-9.54-.22-14.33,0-5.47.23-10.95-.07-16.41-.24-4.3,1.6-7.29,4.26-10.87,2.13-2.85.43-8,.43-12.06q0-30.8,0-61.58C1064.26,783.12,1064.79,781.23,1065.33,777.68Z"/><path d="M70.14,761.3c.18,4.29.45,7.36-2.9,10.2-1.68,1.43-1.54,4.91-1.57,7.47-.13,14.33-.06,28.66-.06,43,0,5.45-.78,11,.21,16.34,1.09,5.91-4,9.91-4.5,14.73-1.06,10.83-.33,21.81-.33,32.73,0,2,.92,4.73-.2,6a25.36,25.36,0,0,1-8.55,6.1c-1.15.51-3.94-1.19-5.56-2.35-2.28-1.64-5.19-3.47-4.11-6.58,1.52-4.36-3.13-6.66-3.73-10.24,5.18-2.9,1.54-4.76-.64-7.36-1.11-1.32-.46-4-.29-6,.36-4.53,6.33-7.16,4.79-12.67-1.07-3.86-.3-8.15-.18-12.24.14-5.22-1.63-10.79,4.44-14.86,1.1-.74.7-4.06,0-5.92-1.07-3-4.16-5.72-4.16-8.56s3.9-5.64,4.07-8.54c.57-9.53.12-19.1.25-28.65.08-6.51-1.86-13.42,4.48-18.87.59-.51.13-3.08-.71-3.62-4.39-2.82-2.74-4.75.27-7.49,1.18-1.08.65-3.86.49-5.85-.18-2.31.81-4.2,3.14-4.5a29.88,29.88,0,0,1,8.94.47c.83.16,1.72,2.12,1.77,3.28.19,4.77-1.23,10,.48,14.19C67.44,755.06,72.07,757.55,70.14,761.3Z"/><path d="M773,506.85c0,4.77,0,9.55,0,14.33s-.72,9.21,4.32,12.91c1.52,1.11,1.57,6.52.07,7.67-4.7,3.63-3.19,5.91.06,9.27,1.13,1.17.18,4,.18,6,0,14.34,0,28.68,0,43,0,5.87,1.2,11.85-4.36,16.93-1.44,1.31-1.15,6.51.4,7.59,6.24,4.37,1.26,6.44-1.62,8.89-2.58,2.2-5.3,1.86-7.83-.39-4.51-4-9.67-13.94-9.67-19,0-22.53,0-45.06-.07-67.59,0-2.86.17-5.42,3.11-7,2-1.1,1.73-1.62,0-3-4.82-3.71-4.88-8.51-1-12.35,3.3-3.24.46-4.09-1.13-6-.78-.93-1.39-3.11-.82-3.63,6.77-6.14,4-13.8,4.51-20.92,0-.68,0-1.37,0-2-.08-4.8,4.12-6.9,7.82-8.87,1.16-.62,5.58,1,5.62,1.72.43,7.47.26,15,.26,22.46Z"/><path d="M868.7,1170c-7.18-3.14-7.17-9.4-11-13.27-3-3.06-1.37-6.51-1.41-9.71-.23-16.38.93-32.85-.58-49.13-.68-7.42,6.6-11.71,5.32-18.84-1.08-6-.22-12.26-.22-18.41,7.27-4.32,4.84-11,4.32-16.71-.44-4.82,5.2-6.24,5.09-10.61-.09-3.82-2.25-8.43,2-11.45,4.46-3.21,1.05-7.72,3.17-11.17a7.11,7.11,0,0,1,1.61-1.46c1.62-1.32,4.23-4,4.71-3.71,2.52,1.45,5.76,3.36,6.4,5.63,1.08,3.85.41,8.08.47,12.16-7.72,5-4.15,12.39-4.44,18.78-.19,4.22-.7,7.81-4.59,10.51,6.51,3.48,2.55,6.29-1,8.62-4.34,2.86-2.56,4.58.21,7.46,2,2.1-.11,4.66-2.15,6.95-2.84,3.19-3.2,4.16-.25,6.75,5.45,4.78,1.7,10.31,2.91,15.35-8.8,6.49-2.74,15.32-4.56,22.91,8.43,10.27,3.05,22.08,4.72,33.1.73,4.76-1.9,7.53-5.33,10.41A54.17,54.17,0,0,0,868.7,1170Z"/><path d="M477.07,1098.45c0-6.84-.39-13.71.12-20.52.43-5.75-2.67-12.2,3.92-17.09,1.19-.89.33-3.86.6-5.84,1.7-12.42-3.9-25.36,4.3-37.46,2-3,.52-8.06.25-12.15-.28-4.27,1.42-7.3,4.25-10.89,2.17-2.75,0-8,.65-12,.28-1.63,3.2-2.81,4.6-4.42s2.78-2,3.21-.71c1.2,3.77,3.51,6.94,5.61,10.28.66,1-1.28,3.44-2.19,5.16-3.05,5.8-3,6.42.41,12.59.93,1.69,2.48,4.74,1.84,5.24-6.12,4.82-4.6,11.13-4.26,16.94.23,4-3.14,5.78-4.26,8.63-.5,1.28,4.63,3.1,4.1,6.45-.21,1.34.62,3.21-.14,4-6.43,7-4.35,15.17-4.47,23-.18,10.94-.07,21.89,0,32.84,0,4-.53,7.72,3.52,11.19,1.64,1.41-4.91,4.17-3.6,8,.42,1.25-.56,3.14.18,4,2.69,3.16,6,6-.12,9,0,4.11.22,8.23-.15,12.31-.09,1-2.08,1.9-3.09,2.93-3.24,3.27-3.92,3.33-6.55.75-2-2-5.09-3.6-4-6.7,2.07-5.94-6.59-8.64-4.94-14.79,1.22-4.53.24-9.53.24-14.32Z"/><path d="M84.1,553.37v28.71c0,4.79.59,9.65-.19,14.33-.6,3.66-4,7-4.22,10.64-.6,10.22-.21,20.5-.21,30.75a34.92,34.92,0,0,1-.08,6.14c-.38,2.14-1.88,3.16-4.69,3.21-7.06.11-6.7.06-9.26-7.5-1.88-5.55-5.44-10.51-4.61-16.81.71-5.4.12-10.93.15-16.39,0-4.65,6.27-7.14,4.86-12.7-1.16-4.55-.24-9.53-.24-14.31s-.21-9.58.06-14.35c.24-4.27-.1-8.13-4.68-10.61,8.11-5,3.88-12.44,4.48-18.81.63-6.79.14-13.66.14-20.5s-.41-13.7.15-20.5c.35-4.29,4.18-6.83,8.7-8,1.13-.29,2.74.57,4,1.13a2.35,2.35,0,0,1,1,1.63c.85,5.09-2.26,10.72,3.69,15.2,1.61,1.21.91,5.06.93,7.7C84.14,526,84.1,539.7,84.1,553.37Z"/><path d="M250.54,736.63c-.1.55.74,5.66-1.73,8.09-3.88,3.81-2.8,7.57-2.82,11.39-.15,23.93-.08,47.85-.08,71.78,0,4.1.3,8.23-.14,12.29a8.32,8.32,0,0,1-3,5c-1.66,1.38-2.05,2.58.2,2.88,4.46.59,9.06.26,13.53.8,1.76.21,4.51,1.29,1.39,3.67a7.37,7.37,0,0,0-2.67,3.09c-4.78,15.74-4.74,15.75-13.62,23.7a33.19,33.19,0,0,1-3.28,2.87c-1.53,1-4.13,3-4.71,2.6-2.39-1.53-5.22-3.53-6-5.84-1-3.17-.4-6.78-.21-10.19a10.62,10.62,0,0,0-3.49-9.09c-1.61-1.55-2.26-6.18-.93-7.47,5.92-5.75,4-12.49,4.41-19,.2-3.22.15-6.14,2.17-9.48,4.17-6.9,3.29-12.35-.31-20.62-2.37-5.43-2.54-10.29-.55-15.21,3.92-9.69,4.28-13.71,1.7-20.77-.53-1.43-4.63-2.08-1.21-4.35,6-4,9.39-9.24,7.23-15.68-2.1-6.25,4.64-9.52,4.79-14.75.11-4.1-.14-8.21.14-12.3.06-1,1.57-1.85,2.42-2.77l1.63,1.45c2.58,2.37,6,4.22,5.15,8.39C250.2,729.05,250.54,731.15,250.54,736.63Z"/><path d="M893.15,385.9c.57,4.69-.61,8.59-4.21,12.81-2.22,2.61-.22,7.94-.49,12-.12,1.85-.61,4.07-1.9,5.38a18.38,18.38,0,0,1-7,4.48c-2.55.83-8.93-4-9.29-7.34-.45-4-.93-7.37-4-11-2.24-2.63-.81-7.85-.71-11.91.07-2.81,0-5.47-3-7.12-2-1.11-2.09-1.87-.2-3,5-2.83,2.69-7.25,3-11.11-5.71-3.07-4.41-8.09-4.46-12.72,0-4.11-.53-8.28.1-12.31,1.51-9.7-4.38-20.34,4.52-29.11,0-5.47-.5-11,.13-16.41.74-6.43-3.54-13.69,3.61-19.23.21-.17-1-1.87-1.61-2.8-3.34-4.93-3-10.21-.82-15.16.89-2,4.54-4.65,6.21-4.3,2.37.5,4.08,3.51,6.07,5.45-7.26,4.44-3.61,11.14-4.24,16.88-.42,3.9-.25,7.48,3.28,11.21,2.34,2.46,1.55,7.78,1.05,11.7-.4,3.07-7,5.84-.14,9.05-.32.48-.52,1.16-1,1.42-4.05,2.21-3.61,5.73-3.24,9.07.49,4.48,6.09,7.23,4.79,12.72-1.09,4.59-.24,9.54-.22,14.33,0,4.09-1.63,9.3.58,12a16.86,16.86,0,0,1,4.23,10.94c.06,1.64,2.1,3.33,3.51,4.79C893.15,382.4,893.19,382.37,893.15,385.9Zm-27.07-57.14c.62.55,1.13,1,1.65,1.46a12.14,12.14,0,0,0,1.44-2.76c.09-.34-.93-.89-1.44-1.35Z"/><path d="M151.14,785.86c-6.94,45.59-7.15,39.42-6.87,33.28.21-4.49-.36-8.61,3.28-13.25,3.9-4.95,1.24-15-2.76-28.69,3-3.05,4.68-6-.54-8.7,8.33-5.71,3.05-13.87,4.75-20.78,6.57-3.09,1.24-5.81,0-9-.87-2.33.24-5.24.47-7.89,6.19-.91,2.77-6.34,5.41-9.16,3.91-4.17,8.51-5.35,14.06-4.53.94.14,1.65,1.57,2.46,2.4-6.81,4.6-2.79,11.29-4.24,16.92-.93,3.65-3,7.09-4.5,10.62,9.36,10.19,3.34,22.11,4.39,33.19,1,10.86.21,21.86.24,32.8,0,2.5-6.22,3-3.13,5.88,4.1,3.79,4.33,6.52,0,10.15-1.3,1.09-1.4,3.64-1.44,5.52-.15,7.52.08,15-.12,22.57-.13,4.85-10.41,10-15.74,7.91-1.15-.45-2.55-1.87-2.58-2.87-.21-8.2-.12-16.41,6.82-76.35,6.93-52.38,7.19-53.15,6.88-53.63-.65-1-1.47-2.61-2.44-2.75-4.27-.6-2,2.56-1.93,3.71,0,1.37,1.6,2.7,2.51,4C156.8,736.2,157.44,735.16,151.14,785.86Z"/><path d="M463.2,556.47c0,11.63.09,23.26,0,34.89-.06,4.76-.65,9.45,4.56,12.79.7.44.61,3-.13,3.86a24.81,24.81,0,0,1-6.57,5.65c-.5.29-3.07-3.36-4.74-3.41-4.44-.11-7.38-.69-7-5.49a11.81,11.81,0,0,0-.9-5.79c-8.12-16.86-8.94-19.49-8.26-29.79.3-4.56,6.12-7.15,4.86-12.71-1.18-5.26-.25-10.9-.25-16.38v-47.2c-6.5-3.67-4.48-9.5-4.58-14.72-.08-4-3.21-3.5-6.18-4s-4.37-4.58-2.68-6.39c3.45-3.69,7.07-7.33,13.39-5.82,1.36.33,3.3.6,3.84,1.46,2.07,3.31,4.43,6.7,5.25,10.33.9,3.94-.38,8.26.4,12.25.57,3,3.45,5.6,4.31,8.61,1.62,5.67-2.28,11.9,3,17.43,4.36,4.55,1.1,10.47,1.6,15.74.57,6.12.13,12.31.13,18.46Z"/><path d="M273.65,534.51c0,17,0,34.09,0,51.14,0,3.4.08,6.45-3.38,9.07-2.58,2-1.93,4.9.83,6.83,2.27,1.58,3.27,4.87,7.14,4.37,0,4.77.31,9.56-.11,14.31-.25,2.92-8.73,6.7-13,6.26-3.36-.34-9.74-4.69-10-7-.2-2,0-4.09,0-6.13,0-29.32.6-58.65-.4-87.94-.27-7.79,7.12-12.84,5.36-20.86-1.59-7.23-.83-15-.14-22.43.38-4.08,4.1-6.91,8.82-7.8,1.18-.22,3.45.46,3.81,1.24a13.71,13.71,0,0,1,1,5.76C273.68,499.06,273.65,516.79,273.65,534.51Z"/><path d="M332.9,740.41c2.36,1.6,5,3,7,4.86,1.43,1.32,2.93,3.29,3,5,.22,15.06.44,30.14-.07,45.19-.15,4.29-5.81,7.36-4.6,12.71.89,4,2,9.25-.17,12.09-5.59,7.45-4.36,15.33-4.12,23.15.15,5-6.81,7.12-5,12.73,1.25,3.83.59,8-3.87,10.91-.81.54,0,3.68.75,5.35,2,4.26,2.14,4.19.19,5.84-1.11.95-2,2.53-3.3,2.77-2,.36-5.55.38-6-.46-1.78-3.49-5.2-6.94-5.63-10.12-.77-5.69-2.55-12.08,1.82-17.6.83-1.05,2-2.09,2.26-3.26,1.22-6.36-2.86-13.65,4.26-19,.15-6.79,1.58-13.82.1-20.32-1.69-7.45,6-12,5.13-18.92-.79-6.08-.16-12.31-.16-18.47,7.74-5.07,4-12.43,4.51-18.85.5-6.82-.09-13.69.21-20.53.12-2.63-2.66-3.27-3.24-5-1.28-3.85,4.75-5.77,3.85-9.92-.2-.89,9.08-2.44,10.59-1.48a5.34,5.34,0,0,1,2.47,3c1,7,.43,13.57-7.21,17.85A26,26,0,0,0,332.9,740.41Z"/><path d="M1156.65,814.05c1,5-.85,9-4.42,12.79-1.13,1.2-1,4.33,0,5.93,4.25,7.17,8.48,13.85.86,21.68-1.51,1.55,4.13,4.2,3.82,8.06a138.37,138.37,0,0,0,0,24.51c.58,5.77-6.53,8.67-5.05,14.71,1.12,4.56,1.56,9.95-.2,14.13a65.13,65.13,0,0,1-5.82,10.08c-.57.86-5.24,1-5.78.2-2.58-3.73-6.11-7.85-6.19-11.89-.55-25.9-.35-51.81-.21-77.71,0-4.51,6.29-7.15,4.76-12.66-1.07-3.85-.21-8.13-.21-12.22,0-4.77,0-9.55,0-14.32,0-5.76,2.92-7.55,10.39-6.18,1.27.23,3.44,1.76,3.31,2.09C1148.75,801.11,1160.12,806.28,1156.65,814.05Z"/><path d="M319.88,1052.38c0,10.91.27,21.83-.09,32.73-.24,7.33,3,15.59-1.65,21.78-5.43,7.29-1.58,14.44-2.69,21.54-.52,3.29-3.37,4.27-5,6.4-2,2.62-3.57.87-4.84-.55-5.43-6.07-9.2-13.5-8.73-19.22s-2.49-12,3.73-17.13c1.59-1.3.73-5.11.75-7.77.05-13-.17-25.92.11-38.87.12-5.11-2.51-11,4-14.87-1.35-2.09-3.71-4.12-3.87-6.28a119.13,119.13,0,0,1,0-20.43c.29-2.94,3.53-5.58,4.24-8.57.77-3.27-.27-6.87.43-10.16.23-1.06,4-2.68,5.27-2.19,4.83,1.92,8.53,4.72,8.44,10.4C319.71,1016.92,319.88,1034.65,319.88,1052.38Z"/><path d="M749.84,1093.46v-24.61c0-4.78-.1-9.57,0-14.35.13-5.23-1.83-11,4.6-14.7,0-4.79-.11-9.57.08-14.35.05-1.17,1.12-2.3,1.69-3.45,2.58-5.21,6.15-10,8.24-15.43.88-2.29,10.94-2.26,12.3-.08.66,1.08,1.29,3,.69,3.72-3.22,3.83-5.63,7.74-4.51,12.73-5.81,3.83-4.55,9.45-4.6,14.7-.07,6.15,0,12.3,0,18.45-8.58,6.51-3.46,15.24-4.45,22.92-.66,5.14-1.66,10.65,4.22,14.93,1.48,1.07,1.37,6.73-.09,7.65-5.92,3.69-1,6,0,9.27,1.2,3.8.24,8.13.29,12.23s-.05,7.47,3.44,11.18c2.32,2.47,2.59,8.51.79,11.55-3,5-4.39,11.22-10.23,14.68a7.59,7.59,0,0,1-4.16.85c-2.44-.23-4.5-1.5-3.65-4,2-5.9-5.52-9.06-4.83-14.73.65-5.41.14-10.93.14-16.39v-32.81Z"/><path d="M343,583.54c0-4.11.5-8.27-.12-12.3-.87-5.68,6.22-8.76,5-14.77-1.1-5.29-.23-10.9-.23-16.37V490.85c0-5.47.15-11-.07-16.41-.1-2.49,1.17-4.12,3.51-4.16a10.12,10.12,0,0,1,5.82,2.09c2.14,1.67,4.91,3.08,4.69,6.45-.31,4.77.16,9.59-.16,14.36-.22,3.09,2,4.7,3.47,7,2.19,3.47,2.57,7.54-.94,11-.77.77-1.8,2.49-1.5,2.79,7.14,7.08,2.79,15.56,3.51,23.33.75,8.15.43,16.41.08,24.61-.28,6.75-.06,11.79,1.63,14.49,1,1.67,2.43,3.26,2.92,5.05.27,1-.86,2.39-1.68,3.39-5.54,6.81-.41,17.41-11.2,22.75-5.92,2.93-5.83,3.47-10.28-3.11-2.34-3.47-5.14-6.27-4.51-10.72C343.38,590.42,343,587,343,583.54Z"/><path d="M512.41,235c1.88,2.07,4.83,4,5.29,6.25.37,1.82-2.38,4.1-3.6,6.24-.31.55.29,1.67-.1,2-3.55,2.9-4.76,6.26-4.7,10.67.3,20.52.65,41.07-.17,61.57-.25,6.47,6.43,10.27,5.14,16.82-1,5.31-.21,10.91-.21,16.39v34.9c0,6.16.23,12.32-.1,18.47-.17,3.36,3.5,4.11,4.45,6.48.34.86-7.35,6-8.63,6-2.87.06-9.5-4.86-9.55-7.4-.13-6.84.21-13.69-.13-20.52-.26-5.14,2.53-11.09-4.09-14.89,3.91-3.08,4.29-6-.45-8.74.77-3.18-1.69-6.78,1.7-9.65,4.62-3.89,4.45-8.25.92-12.53-4.21-5.11-4.2-9.64,1.15-14.13.85-.71,1-2.55.74-3.72s-1.54-1.95-2.36-2.91c-.55.48-1.06,1-1.64,1.45-1.46,1.12-4.22,3.57-4.6.64-1-7.41-.11-15-.63-22.46-.49-7.19,2.81-11,10.62-12.81,5.86-1.33,1.16-3.29-.09-5.1-.72-1-1.44-2.63-1.05-3.62.86-2.2,3.22-4.12,3.44-6.28.15-1.46-3.18-3.06-3.38-4.74-.38-3.17-1.22-6.62,2.4-9.33,3.86-2.88,1.61-5.38-.71-8.51-3.51-4.72-2.58-8.82,1.31-12.45C506,240.58,508.8,238.2,512.41,235ZM497.88,303.7c-1.15,3.44-2.11,5.18-2.17,6.95,0,1,1.39,2.07,2.17,3.11.77-1,2.19-2.09,2.16-3.11C500,308.88,499,307.14,497.88,303.7Z"/><path d="M146.31,1111.83c-4.23-3.36-7.7-6.36-7-12.18.51-4.27-5-7.31-4.73-12.68.3-6.78,6.86-11.48,5.34-18.9s-.33-15-.33-22.57v-20.56c0-7.54-.07-15.08,0-22.62.08-6.79.34-13.58.52-20.37,12.42,5.81,13.6,5.95,12.88,16.58-.38,5.65,7.11,7.09,5.3,12.77-1.21,3.81-.23,8.17-.23,12.28,0,4.8.08,9.6,0,14.4-.09,4.15,6.12,5.73,4.83,10.67-1,3.89-.37,8.12-.46,12.2-7.39,5.24-3.56,12.55-4.25,19-.5,4.76-.86,9.71.09,14.36,1.33,6.52-2.56,10.2-7.26,13.88C149.41,1109.3,147.85,1110.59,146.31,1111.83Z"/><path d="M221.51,1005.06c2.06,0,3.45-.17,3.51,0,1.86,5.48,7.21,9.56,7.12,15.91-.27,18.49-.07,37-.13,55.47,0,2.76-.19,5.48,2.83,7.17,1.94,1.09,2,1.84.43,2.95-4.77,3.29-3.85,6.14-.19,10.11,1.91,2.06,2.6,7.56.95,9.21-4.39,4.38-5.81,7.53-.36,11.86.44.35-3.19,3.84-3.45,6-.57,4.74-.11,9.58-.19,14.37-.13,7.61-6,11.94-14.83,10.86a5.22,5.22,0,0,1-3.51-2.06c-.61-1.1-.14-2.68-.14-4,0-9.58-.67-19.22.2-28.74.77-8.38-4.57-17.78,4.42-25-.06-6.82,0-13.65-.34-20.47-.05-1-2.53-1.78-3-2.94-.69-1.71-1.5-4.79-.66-5.34,4.49-3,4-6.92,4-11-.06-13.7-.13-27.4.14-41.09C218.37,1007,220.77,1005.78,221.51,1005.06Z"/><path d="M957.88,376.63c0-10.23-.42-20.49.16-30.7.33-5.72-3.16-12.34,3.64-17-1.26-2.75-3.33-5.42-3.63-8.25-.58-5.41-.17-10.9-.17-16.36-7.5-6.67-3.71-15.14-4.66-22.87-.41-3.33,2.62-4.57,4.45-6.57,1.58-1.72,4.48-2.44,4.57-.11.26,6,7.85,10.05,5,16.75-1.22,2.84,1.56,4.72,3.18,7,1.43,2,1.31,5.07,1.27,7.65-.06,3.92-3.67,3-6.48,3.67s-4,4.7-1.87,6.52c1.91,1.62,4.1,2.9,5.47,5,.73,1.14,2.75,2,2.82,3,.31,4.76-.4,9.61.3,14.31.65,4.34,4.94,7.38,4.73,12.65q-1,26.6,0,53.22c.27,6.93-7.36,11.44-5.13,18.84,1.23,4.11-1.2,5.65-3.94,5.67-4.67,0-6.34-3.44-8.76-5.74-1.21-1.16-.86-3.78-.87-5.74C957.85,403.93,957.88,390.28,957.88,376.63Z"/><path d="M403.1,754.05c0-3.41-.45-6.89.27-10.18.22-1,3.6-1.82,5.62-2,1-.1,3.19,1.35,3.21,2.14.23,8.86.17,17.72.14,26.59,0,3.34,1,6,2.89,9.2,3.38,5.82,4.2,13.5-.44,18.85-3.75,4.33,3,5.64,1.28,7.32a11.28,11.28,0,0,0-3.82,8.94c.06,6.71-.46,13.43-.75,20.14-7.25,5.41-2.36,12.73-3.86,19-.28,1.16-1.72,2.07-2.55,3.14-3.39,4.37-3.14,8.26.72,12.63,3.19,3.61,2.73,4.72.43,6.87-3.17,3-6.48,5.81-11.08,9.9-2.8-3.09-5.43-6.31-8.45-9.22-2.36-2.27-3.23-4.67-.94-7,2.09-2.08,3.65-3.88,3.55-6.94-.27-8.18-.23-16.37,0-24.54.13-6,.69-12,1.06-18,6.12-4.11,2.7-10,3.51-15.07,6.49-4.48,4.13-10.9,4.65-16.7s-2.57-12.37,4.6-16.71V758.17c1.28-.45,3.49-.72,3.67-1.39C407.39,754.31,405.35,753.91,403.1,754.05Z"/><path d="M564.91,1086.6c0-4.09-.5-8.24.1-12.27,1.54-10.35-4.44-21.46,4.31-31.21,1.5-1.67.14-5.31.23-8,.14-4,.4-8,.6-12.06,7.05-2.87,1.24-10.48,6.49-14,3-2,1.65-4.88,2.24-7.4.37-1.58,1.7-3,2.59-4.48,2.17,1.93,6.1,3.78,6.22,5.8.63,10.89.32,21.82.34,32.73-9,7.2-4.11,16.6-4.38,24.91-.72,21.82-.4,43.68-.11,65.51.06,4-1.77,6.34-4.77,8.51-.89.63-2.86,1.45-3.12,1.19-4.9-4.78-11.81-8-11-16.48C565.7,1108.5,564.91,1097.52,564.91,1086.6Z"/><path d="M495.56,781.26c-.26,3.91,1.13,7.92-3.41,11.22-1.64,1.19-2.24,5.82-1,7.48,6.12,8.08,6,15.43,0,23.6-1.75,2.42-1,6.85-.12,10.09,2,7.37-3.85,12.43-6.56,18.21-1.32,2.81-1,3.45.1,6.08,2.27,5.29,3.6,10.92,6.11,16.26a6,6,0,0,1-1.94,7.4,40.76,40.76,0,0,0-7.05,7.64c-4.75,6.63-4.63,6.7-10.69,1.42-1.1-1-2.13-2-3.28-2.9-6.79-5.38-6.07-11.9-2.4-18a25,25,0,0,0,2.59-7.31c1.3-5-8.8-7.55-3.71-12.21,3.9-3.58,4-7.25,3.43-11.11-1.07-6.86,2-11.72,7.76-15.69,3.37-2.31-.35-7.5,5.42-9.41,2.27-.75,1-4.84-1.77-6.67-3-2-2.49-5.07-1.87-7.45,1.3-4.94,6-8.74,4.71-14.8-1.16-5.28-.5-10.94,0-16.38.09-.9,4.09-2.6,5.37-2.1,4,1.59,8,3.83,8.22,8.5C495.66,777.14,495.56,779.2,495.56,781.26Z"/><path d="M1045.72,572.46c0,8.86.37,17.74-.13,26.58-.32,5.73,2.93,12.37-4.14,16.85-.12,6.09,0,12.19-.43,18.27-.21,3.34,3.8,4.42,4.18,6.6s-3.93,3.11-4.27,6.35c-.87,8.16-1.21,8.13-8.1,8.18-1.53,0-3.06,0-4.59,0-4.45-.11-5.61-1-5.62-4.37,0-7.5.12-15-.06-22.5-.14-6,6.73-9.92,5-16.77-1.5-5.84-.85-12.26-.13-18.33.52-4.32,5.71-7.33,4.63-12.67-.93-4.62-.19-9.51-.19-14.29V554.09c0-4.77-.49-9.6.14-14.3s-1.45-7.75-5.23-10.42a10.68,10.68,0,0,1-1.62-1.45c-3.48-3.79-3.6-11.31-.22-12.53,3.72-1.35,11.52,1,14.06,4.32.81,1,2,2.21,2,3.3-.07,4.15,1.5,7.25,4,10.93,2.37,3.52.72,9.22.74,14C1045.75,556.09,1045.72,564.27,1045.72,572.46Z"/><path d="M990.25,1110c-.71,4.58,2.24,9.94-1.78,13.65-4.59,4.23-2.21,8.92-2.81,13.4-.52,3.91-4.38,5.38-7,7.59-.88.75-5.17,0-5.84-1.07-2.38-3.85-5-8-5.45-12.27a118.07,118.07,0,0,1-.1-22.56c.39-5,6.45-8.61,4.73-14.79-1.26-4.52-.25-9.53-.25-14.33,0-5.47.3-11-.1-16.42-.31-4.37,6.08-5.77,4.91-10.66-.93-3.93-.19-8.18-.19-12.29,7.89-2.64,2-10.3,6.42-14a7.08,7.08,0,0,0,2.8-7.21c-.54-3.1,1.42-4.91,3.59-6.94,3.1-2.9,3.36-3,6.62-.07,2.21,2,5.54,4.83,3.45,6.66-5.11,4.49-4,9.7-4.46,14.94-.35,3.93,2.28,8.73-1.49,11.64-4.48,3.47-2.72,7.46-3,11.31-.3,4.09,0,8.2-.16,12.31,0,.49-.95,1.06-1.57,1.44-3.91,2.29-1.33,3.72.32,6,.73,1-2.07,3.67-2.26,5.66-.15,1.44,4.55,2.25,2.36,4.23-3.91,3.54-4.67,6.13-.51,10.15C992.42,1100.12,989.54,1105.41,990.25,1110Z"/><path d="M185.81,558.44c0,4.09-1.1,8.5.24,12.21,2.47,6.87-5.38,10.69-4.94,16.8.39,5.43.08,10.91.08,16.37-8.06,5-3.39,12.45-4.62,18.77-.12.65.18,1.56-.21,1.95-2.07,2-4.09,5.12-6.52,5.43-1.85.24-4.48-3-6.35-5-.8-.86-.75-2.49-.76-3.77-.06-8.87.14-17.75-.13-26.61-.09-3.22,3.15-4.58,3.78-6.78.49-1.68-2.76-4-3.55-6.23-.65-1.87-1.11-5,0-6,6-4.85,4.36-11,4.41-16.88.13-19.79.09-39.58,0-59.37,0-2.32.85-4.18,3.18-4.46a29.81,29.81,0,0,1,8.93.5c.83.15,1.7,2.13,1.74,3.29.18,5.45-.6,11,.24,16.35,1.2,7.66-4.42,16.43,4.41,22.9v20.46Z"/><path d="M981,858.88c3.43,7.82-7.88,13-4.69,20.77-6.39,3-1.1,5.69-.2,9,1.22,4.51.3,9.49.3,14.26,0,3.41-.64,6.94.14,10.21,1.53,6.42-2.35,10.19-7.1,13.83-1.72,1.31-3.14,3.41-5.07,3.86-1.75.42-5.66-.72-5.78-1.51a85.55,85.55,0,0,1-.63-14.14c.09-4.15.09-8-4.27-10.86-.75-.5.31-3.6,1-5.33s2.87-3.26,3-5c.43-4.74-.45-9.61.28-14.3,1.3-8.32-4.62-17.73,4.49-24.91V836.34c0-10.63,0-10.66,8.11-25.65,1.75-3.22-4.51-4-2.6-5.63,3-2.54,2.94-5.92,4.82-8.53,1.61-2.22,3.92-3.8,3.64-6.92-.2-2.3-1.15-6.43,2.62-6,3.34.38,1.9,4.64,1.81,7.16-.16,4.24.26,7.92,4.52,10.78.67.45-.86,3.5-1.38,5.35-1.08-.53-2.46-.84-3.19-1.63-2.23-2.41-4.17-1-4.32.82a117.38,117.38,0,0,0-.07,16.35c.18,3.09-1.67,4.81-3.54,7-1.06,1.21-1.35,4.55-.4,5.26,3.81,2.87,3.09,4.56,0,7.6-1.57,1.54-1,5.19-.61,7.78.28,1.73,1.87,3.62,4.19,1,1.44-1.62,3.71-2.89,4.67-.25C981.66,853.23,981,856.16,981,858.88Z"/><path d="M648.13,1086c0-8.91-.4-17.84.13-26.73.39-6.42-3.16-13.72,4.2-19,.1-6.13,0-12.28.42-18.39.13-1.74,1.56-3.62,2.93-5,1.21-1.23,3.18-1.87,4.81-2.77.46,1.2,1.32,2.41,1.3,3.61,0,3.44.07,6.45,3.48,9.1,2.56,2,1.61,4.76-.9,6.94-.83.72-1.86,2.51-1.58,2.77,2.12,2,3.88,3.77,3.79,6.92-.25,9.59-.11,19.2-.07,28.79,0,2.52-6,2.85-3.15,5.92,2.11,2.23,3.28,4.14,3.22,7.13-.22,11,0,21.93-.18,32.9,0,3,1.45,4.78,3.17,7.13,5.47,7.41-2.19,17.44-12.12,15.49-1.38-.27-3.87-1-3.83-1.29.63-5.63-6.46-8.28-6-14.48C648.87,1112.1,648.13,1099,648.13,1086Z"/><path d="M749.84,396.57c0-4.79-1.94-10.64.45-14.13,3.62-5.29,6.52-8.93-.45-13.28.89-5.1-2.54-11,3.35-15.21a3.33,3.33,0,0,0,.85-1.37c-6.65-3.82-3.95-9.8-4.07-14.93-.11-4.49-2.11-9.72,3.76-12.94q.36-8.08.74-16.17c.12-2.62-5.59-3.14-3.32-6,1.8-2.25,3.51-4,3.4-7-.27-7.53,0-15.07-.13-22.6-.09-4.17,3.66-6.34,6.5-7.65s7.07-.16,10.69,0c.38,0,.7.91,1,1.39-5.87,2.89-2.54,9-5.21,12.38s-3.71,5.05.35,7.46L764,290.9c6.71,4.47,3.44,11,4.48,16.67.73,4-2.43,5.91-4.48,8.48,3.15,2.21,4.63,4.83,4.48,8.67-.36,9.58-.07,19.17-.14,28.76,0,3.94.9,7.88-3.51,11.17-1.63,1.21-1,5-1,7.66-.11,8.91.08,17.81-.11,26.71-.06,3.2,1.86,7.63-2.4,9.1-2.69.94-5.84.73-7.75,3.21-1.09,1.41-2.94,1.3-3.12-.53-.44-4.72-.15-9.48-.15-14.23Z"/><path d="M634.26,326.12c0-6.85-.28-13.71.1-20.54.25-4.47,5.9-7.23,4.76-12.72-1.1-5.29-.24-10.91-.24-16.39,0-4.8,0-9.59,0-14.38.05-5.77.73-6.22,8.53-5.93,4.58.16,7.33,3.43,4.7,6.43-2.44,2.79-4.64,5.13-4,8.87.85,5.09-1.7,10.35,3.76,15.17,5.13,4.54-5.09,7-4,12.27s.6,10.94.13,16.38c-.34,3.92,3.41,6,4.18,8.72,1.46,5.15,2.21,11.47,0,16.09-1.78,3.76-4.26,5.9.16,9-8.39,6.68-2.63,15.42-4.18,23.09-.9,4.44,1.61,9.35-3.77,13.14-1.89,1.33,6.26,3.76,1,7.13-3.8,2.42-.73,6.52-2.11,9.45-.6,1.26-3.5,2-5.47,2.26-1.06.14-3.21-1.11-3.42-2-.87-3.77,1.72-8.31-3.44-11.09-1.61-.87-1-1.6.55-3,4.42-3.89,4.47-8.37.48-12.46-3.5-3.58-3.86-8.28-1.21-10.94,3.69-3.7,2.12-5.12-.79-7.6-.79-.68-.93-3.33-.25-3.8,4.93-3.41,4.82-8,4.57-12.79S634.26,330.91,634.26,326.12Z"/><path d="M583.4,861a24,24,0,0,0,1.66,3.47,24.84,24.84,0,0,0,2.72,2.92c-6.66,3.7-3.07,9.82-4.59,14.72-1.29,4.17-4.54,7.84-6.71,11.83-3.44,6.33-8.55,12.17-7,20,.81,4.1-3.68,5.54-6.07,7.92-.78.78-2.77,1-4.12.81-2.4-.29-3.75-1.46-3.7-4,.19-8.87.5-17.76-.08-26.6-.36-5.62,6.17-8.75,5-14.72-1-5.06-1.41-10.65,4.22-14.82,1.13-.83.12-3.92.17-6s-.68-5.15.44-5.84c4.18-2.55,3.11-7.38,6.36-10.07,4.79-4,1.82-9,2.34-13.45.46-4-.06-8.19.2-12.27.08-1.12,1.32-2.27,2.29-3.18.36-.35,1.46-.06,6.86,2.75,4.71-1.08,3.56-3.27-.22-2.71-1.47.22-4.49-2.07-4.48,1.85,0,4.8,1.31,6.82,5.32,6.16,1.64-.27,3-1.84-.62-5.3-3.93-7.2-.27-10.44,3.69-10.76,7.56-.6,5.12-5,5.55-8.51,1.31.48,3.69.87,3.74,1.45.32,3.18,1.54,7.75-.29,9.34-4,3.49-3.75,7.26-3.34,11.14.55,5.18-1.58,7.24-7.37,7.32-1.95,0-1.49,1.5-.83,2.78,4.83,9.46,5.18,14.92.24,22-1.91,2.74-.79,5.17-1.4,7.68-1.27.46-3.49.72-3.66,1.39C579.11,860.78,581.16,861.19,583.4,861Z"/><path d="M1128.94,382a39.72,39.72,0,0,1-.1,6.52c-.2,1.17-1.32,3.09-2.12,3.13a12.75,12.75,0,0,1-6.16-1.18c-1.92-1-4.62-2.73-4.71-4.25-.34-5.37-6.06-8.54-5.86-14.5.15-4.69-6.63-8.94-4.09-14.65s-6.92-7-4.94-12.74c1.28-3.75.24-8.13.24-12.23,0-4.78-.8-9.71.25-14.3.84-3.64-7.43-4.11-2.84-7.79,3.5-2.8,2.44-6.11,2.55-9.34.14-4.1,0-8.2,0-12.3V278.15c0-3.41-.11-6.83,0-10.25.11-2.53,5.43-7,9.29-7.53,1.19-.17,3.7.85,3.72,1.39a87.54,87.54,0,0,1-.26,13.74c-.17,1.55-1.83,1.2-3.17-.41s-3.28-3.35-4.63-.49c-.68,1.44.57,3.66,1.17,5.46.13.39,1.22.74,1.87.75,3.22.07,6,.29,5.89,4.24-.16,6.83,0,13.66,0,20.49V324c8.6,2.71,1.12,11.93,7.94,15.65,1.24.67,1.21,3.62,1.25,5.54.14,6.83-.14,13.66.11,20.49C1124.59,371.49,1131.67,375.9,1128.94,382Z"/><path d="M1135.16,199.11c-2.37-2.51-4.62-5.19-7.24-7.55-2.2-2-3.71-3.81-3.69-6.9.14-34.17.07-68.34.12-102.52,0-1.93-.21-4.86,1-5.64,7.16-4.55.84-11.84,4.83-16.76.65-.81,2.7-1.13,4-1s3.43,1,3.59,1.78c.51,2.64,1.64,6.68.16,7.88-7.68,6.25-3.24,14-4.4,21.07,6.52,3.66,4.47,9.48,4.59,14.7a122.6,122.6,0,0,1-.16,16.38c-.24,2.21-4,4.48-3.64,6.3.47,2.17,4.12,3.45,4,6.72-.1,2.08,1.56,3.34,4.47,3.33,4.53,0,4.49-2.57,4.67-5.36.13-2-.13-4.43,1.09-5.66s4-1.21,6-1c.81.07,2.16,2.17,2,3.13a9.18,9.18,0,0,1-2.71,5.07c-2.89,2.4-.87,6.45-4.69,8.68s-.09,6.78-1.92,9.4c-2,2.79-5.34,4.71-4.42,8.68,1.3,5.57-7.39,8.23-4.9,14.78,1.63,4.3.51,9.49.23,14.26C1137.93,192,1139.68,195.67,1135.16,199.11Z"/><path d="M396,992.59c2.73,2.43,5.26,4.78,7.92,7,2.26,1.89,4.13,3.69,3.87,6.85-.34,4.09-.09,8.22-.09,12.34,0,4.79,0,9.59,0,14.39s5.2,7.26,5,12.7c-.84,19.86-.73,39.76-.05,59.63.16,4.83-5,6.5-4.92,10.64.08,3.43.08,6.86-.06,10.28,0,.5-1.15.9-1.53,1.47-2.82,4.33-6.84,4.63-9.84.73-.43-.56-1.58-1-1.54-1.46.63-6.17-4.33-10.86-5.42-16.52-.51-2.67-1.4-6.56.14-8,6.72-6.41,3.75-14,4.33-21.11.34-4.09.85-8.38-.13-12.3-1.25-4.94,4.87-6.52,4.85-10.67-.08-15.08.21-30.17-.24-45.24-.09-2.89-3.38-5.61-4.26-8.62-.75-2.57-.34-5.46-.07-8.18C394.06,995.32,395.12,994.21,396,992.59Z"/><path d="M407.72,265.74c-.24,4.57,1.18,9.28-4.07,13-1.54,1.09-1.77,6.35-.32,7.61,5.81,5,4.3,11.12,4.34,16.95.14,19.79.33,39.6-.1,59.39-.14,6.36,3.34,13.71-4.32,18.83-.05,6.81.11,13.63-.4,20.41-.06.89-3.44,1.95-5.4,2.21-1.07.14-3.34-1.15-3.43-1.94-.39-3.38.13-6.84-.24-10.22-.48-4.46-5.93-7.2-4.79-12.68,1.1-5.28.24-10.88.24-16.34,0-4.78.94-9.75-.24-14.29-1.45-5.57,7.05-7,5.1-12.75-1.27-3.75-.24-8.12-.24-12.22,0-4.78-.42-9.6.19-14.32.29-2.21,4-4.49,3.6-6.26-.52-2.18-4.31-3.48-3.84-6.74a43.21,43.21,0,0,0,.05-6.13c0-5.47,0-10.93,0-16.39.05-5.26,7.3-8.55,4.83-14.75-.64-1.61,1.87-3.14,4.65-3s4.14,1.27,4.34,3.52C407.87,261.64,407.72,263.7,407.72,265.74Z"/><path d="M813.53,848.69a174.93,174.93,0,0,1,.93,25.77c-.06,2-1.76,3.5-5.55,3h1c0-.61.27-1.4-.05-1.81-1.07-1.35-2.39-3-4-.56-.22.33,1.29,1.56,3,2.37a63.18,63.18,0,0,1,1,14.3c-.08,5.59-4.73,10.11-10.74,10.36a58.32,58.32,0,0,1-9.16-.09,4.23,4.23,0,0,1-3.06-2.36c-.49-2-.15-4.06-.15-6.1,0-4.77.75-9.66-.2-14.27-1-4.86,6.08-6.37,4.72-10.55-2-6,6.78-9.11,4.62-14.63-2.38-6.13,4.48-9.57,4.6-14.68.08-3.6,2.86-6.11,3.61-8.85,1.11-4.06,6.5-7,5.4-10.1-2.29-6.49,6-9.14,5.11-14.75-.29-1.78.4-5.17,1.31-5.36a39.69,39.69,0,0,1,10.74-.39c.65,0,1.23,2.12,1.66,3.31.22.62.37,1.63,0,2-2.6,2.41-5.36,4.57-5,8.53.05.49-3.79,1.13-5.67,2a13.15,13.15,0,0,0-2.82,2.32c1.26.58,2.52,1.65,3.78,1.65,3.93,0,6.66,2.6,4.87,4.74-5.51,6.57-4.08,13.78-4.46,20.93-.11,2.12-1.64,3.69-5.57,3.22-.34,0,.61.24,1-.06a1.63,1.63,0,0,0,0-1.74c-1.07-1.35-2.39-3-4-.57C810.28,846.65,811.79,847.88,813.53,848.69Z"/><path d="M1052.65,1169.34c-3.86-3.36-8.9-6.17-11.18-10.22-1.85-3.28-.37-8-.37-12.16,0-10.27-.68-20.59.22-30.8.68-7.68-4.44-16.47,4.4-23,0-8.9.45-17.83-.15-26.7a24.82,24.82,0,0,1,4.88-16.73c3.33-4.62,5.41-9.19,4.62-14.8a20.47,20.47,0,0,1,.8-7.9c.19-.71,2.48-1.35,3.79-1.33s3.43.63,3.76,1.44c.74,1.81,1.34,4.15.65,5.84-2.25,5.48-5.48,10.52-4.63,16.84.72,5.4.15,10.94.15,16.42,0,3.42.57,7-.19,10.24-.55,2.35-4.07,4.31-4.22,6.56-.54,8.19,0,16.43-.3,24.63-.12,3.37,4.45,4.38,4.25,6.46s-4.61,3.21-4.2,6.58c1,7.75-2.85,16.24,4.66,22.94,0,4.79-.59,9.66.15,14.36C1060.65,1163.86,1056.44,1166.47,1052.65,1169.34Z"/><path d="M56.36,1051.64c0,2,.12,4.1,0,6.14-.56,8.43,2,17.11-4.32,25-1.81,2.26-.1,6.65-.41,10-.07.84-1.65,1.61-2.66,2.28-.09.06-.92-1.08-1.58-1.34-5.5-2.23-4.06-8.18-7.88-11.54-1.67-1.47-1.17-4.92-1.6-7.47a11.68,11.68,0,0,1,0-2c0-7.49.39-15-.12-22.48-.43-6.38,3.23-13.71-4.5-18.74,0-7.5.19-15-.16-22.49-.07-1.67-2.5-3.15-3.09-4.93a29.44,29.44,0,0,1-1.32-7.68c-.17-3,1.42-4.13,3.4-2.49A13,13,0,0,0,40,997c2.63.23,3.49,4.45,7.3,3.92,2.85-.39,4.3,1.15,4.42,3.34.24,4.07-.82,8.37.28,12.21,1.59,5.56,5.42,10.43,4.58,16.76C55.74,1039.31,56.36,1045.51,56.36,1051.64Z"/><path d="M1147.43,590.47c0-6.14-.21-12.28.08-18.41a10.12,10.12,0,0,0-3.88-8.92c-1-.85-.8-4.38.28-5.23,3.3-2.57,3.68-5.54,3.59-9-.09-3.23-.57-6.31,2.52-9.35,3.6-3.52-4.77-5.36-2.83-9.82,1.28-3,.44-6.75.18-10.14-.2-2.56,1.24-3.77,3.63-4.1,1.34-.18,3.36,0,4.12.77,2.38,2.4,6.41,3.74,6.23,7.91-.22,5.44,0,10.9-.07,16.36,0,4-3.36,3.52-6.37,3.8-.85.08-2.35,2.15-2.17,2.35a27.39,27.39,0,0,0,4.77,4.4c4.21,3,5.74,7.15,4.19,11.36-.45,1.22-1,3.29-.3,3.84,8.2,6.68,3.27,15.29,4.43,23,.77,5.15-1.82,11,4.72,14.65-.58,3.81,1.84,8.22-3.17,11.15a22.28,22.28,0,0,0-4.89,4.3c-2.06,2.22-5,4.44-7.64,2.87-3.49-2-7.68-4.23-7.49-9.22C1147.64,605.47,1147.43,598,1147.43,590.47Z"/><path d="M116.36,323.9c.53,6.13-.74,12.44.34,18.45s-5.59,9.13-5,14.77c.57,5.42.07,10.92,0,16.39-8.1,5.84-3.93,13.87-4.31,20.94-.22,4.09-3,5.93-5.46,8.32-.52.51-1,1.28-1.65,1.36a2,2,0,0,1-1.54-1.24c-.36-4.69-.7-9.39-.78-14.1-.06-4.05.49-8-4-11-.86-.56-.29-3.75.56-5.34,8-14.9,8-14.87,8-25.8,0-13,.07-26-.07-39,0-1.86-.31-4.43-1.65-5.44-3.46-2.61-1.7-3.87.44-6.07,1.12-1.15,1.57-4.36.62-5.31-7.72-7.79-3.1-16.63-3-25,0-.47,2.6-1.49,3.78-1.28,4,.69,8.82,5.09,9.19,7.69,1.19,8.53-2.3,17.24,2.7,25.73C119.34,306,115.6,315.21,116.36,323.9Z"/><path d="M121.09,91.9c0,14.39-.12,28.79.09,43.19,0,3-1.37,4.91-3.52,7-2.35,2.29-1.59,4.81.92,7,.83.71,1.8,2.62,1.6,2.76-6.72,4.85-2.44,11.51-3.73,17.21-.66,2.91,2,6.67-2.7,8.57-2.71-3-2.1-7.61-6.37-10.15-1.07-.63-.16-3.9-.16-6,0-26,.11-52.1-.11-78.15,0-4.36.72-7.94,4.73-10.63-.81-5.12,2.54-10.94-3.44-15.24-.9-.65-.75-2.41-1.19-3.62-1.57-4.3,2.47-6.92,3.83-10.34-5-2.61-3.74-7-3.77-10.94,0-.55.61-1.14,1-1.65,1-1.24,1.7-.24,3.34.57,5.26,2.6,4.09,8.31,7.88,11.71,1.67,1.5,1.47,5,1.5,7.55C121.16,64.48,121.09,78.19,121.09,91.9Z"/><path d="M196.38,371.37c-2.7.26-10.37-4.26-10.5-6.53-.24-4.09-.61-8.27.09-12.28s-4.94-6.47-3.86-8.18c1.85-2.93,4.43-5.26,3.69-8.95-.64-3.2,3-4.6,3.66-6.81.52-1.64-3.05-4-3.45-6.22-.44-2.45-.4-6.09,1.26-7.53,5.4-4.69,2.25-10.26,3.16-15.35-7.18-4.36-4.25-11-4.55-16.77-.31-6.14,0-12.3-.08-18.46,0-4.14,6.8-5.68,5-10.48,3.83-3.33,7.54-6.79,11.58-9.9.84-.64,3.21-.45,4.39.14,3.11,1.54,1,3-.56,4.25-4,3.2-6.78,6.34-6.71,12,.45,33.5.22,67,.22,100.52a53.2,53.2,0,0,1-.15,8.19C199.39,369.9,197.48,370.59,196.38,371.37Z"/><path d="M842.3,158.82c0-6.85-.07-13.7,0-20.54,0-3.94-.92-7.89,3.49-11.18,1.63-1.21,1-5,1.06-7.66.09-12.32.65-24.68-.21-37-.43-6,6.07-8.87,6-14.39,0-1.45,1.73-1.1,3.16.43,2.38,2.53,5.24,4.31,5.13,8.46-.39,15.06-.47,30.13,0,45.18.19,6.19-7,9.84-5.13,16.87,1.71,6.49.36,13.61.36,20.46,0,6.16-.06,12.33,0,18.49,0,4.16-4.38,5.24-6.67,7.77-.66.72-3,.73-4.28.34s-2.79-1.69-2.81-2.63C842.21,175.25,842.3,167,842.3,158.82Z"/><path d="M296.77,340.51c0,13.72,0,27.43,0,41.14,0,1.92-.94,4.11,1.58,5.59,2.83,1.68,4.5,4.69,2.54,6.86-2.65,2.92-5,6.71-10.92,6.23s-7.05-.71-7.09-5.31c-.06-6.86-.12-13.72,0-20.57.09-4.57-1.74-9.71,4.05-12.89-3.62-3.58-4.62-7.73-4.19-12.51s.1-9.59.1-14.39V307.92c0-4.8,0-9.6,0-14.4,0-3.45,1.15-4.3,5.59-4.44.77,0,1.54,0,2.31,0,3.15,0,6,.06,6,4.12C296.7,309,296.77,324.74,296.77,340.51Z"/><path d="M615.77,163.23v-18.4c8.71-11.67,3.83-24.74,4.31-37.15.29-7.58,3.84-16.27-4.31-22.82,0-4.77-.55-9.61.23-14.28.38-2.26,3.36-4.13,4.93-6.31,1.28-1.75,3.27-1.82,3.11-.17-.74,7.48,6,13,6,20.51-.06,6.93-4,15,3.81,21-1.36,2.79-5.11,4.4-4.26,8.36,1.21,5.66-2.62,12.38,4.68,16.7-8,5-3.92,12.38-4.44,18.73-.61,7.45-.14,15-.14,22.48,0,6.81.11,13.63-.16,20.44,0,.75-2.1,1.82-3.39,2.06s-3.65,0-4.08-.7c-2.33-3.88-5.28-7.84-6-12C615,175.6,615.77,169.36,615.77,163.23Z"/><path d="M865.42,875.22c0-5.44,1-11.08-.27-16.27-1.39-5.63,7-7,5.17-12.7-1.12-3.46-1.86-8.12,3.09-11,.9-.52,1-2.31,1.23-3.54.79-4.42-2.23-9.66,3.62-13,.52-4.57,1-9.15,1.61-13.71.07-.53.94-1.2,1.58-1.36.4-.09,1.12.62,1.59,1.06,3.31,3.09-3.32,10,5.45,11.3.36.05,0,3.83,0,5.87,0,1.36.62,3.52-.09,4-6.35,3.84-4.72,9.58-4.32,14.73.17,2.19,4,4.42,3.72,6.31-.35,2.14-3.36,3.64-4.21,6.56-1.34,4.54-8.48,8.51-.38,13.26.16.09,0,1.07-.37,1.37-6,5.42-4.2,9.88.43,15.67,2.51,3.15,1.22,8.22,4.76,12.55,4.11,5-.5,10-7.66,10a47.67,47.67,0,0,1-6.87-.07c-2.37-.34-2.9-2-3.72-4.08-1.91-4.82-5.83-8.87-4.57-14.71C866.11,883.5,865.42,879.3,865.42,875.22Z"/><path d="M454,125c0,7,.2,12.49-.09,18-.16,3,1.23,4.87,3.12,7.17,1.54,1.87,2,5.16,1.41,7.55-1,4.32-5.65,7.43-4.63,12.75.89,4.67-.16,9.6.29,14.37.39,4.2-3.26,5.75-5.5,8.31-1.33,1.53-2.8,1.67-3.18-.29-.66-3.42-2.47-5.9-4.77-8.64-1.49-1.77-1.74-6.63-.3-7.7,5.81-4.32,4.33-9.76,4.37-15,.09-14.39-1.06-28.88.5-43.15.75-6.92-5.78-10.64-5.22-16.85.5-5.41,0-10.9-.14-16.35-7.29-4.44-3.75-11.16-4.22-16.91-.45-5.38.18-10.83.47-16.24,0-.51.95-1.23,1.59-1.37.41-.09,1.39.62,1.56,1.12,2.07,6.13,6.68,11.42,5.74,18.58-.65,5-2.62,11.09,4.1,14.82l.27,16.35C458.65,108.71,451.72,118.29,454,125Z"/><path d="M971.75,157.92V139.51c8.46-8,3.58-17.92,4.44-26.95.48-5.07,2.27-11-4.3-14.7,1-5.06-2.46-10.39,2.74-15.34,4.52-4.3.59-10.43,1.78-15.63a19.08,19.08,0,0,1,1.57-3.5,18.43,18.43,0,0,1,3.22,1.66c2.63,2.09,2.59,2.14.67,7.2A17.14,17.14,0,0,0,981,74c-.15.66-.37,1.64,0,2,7.78,7.42,3.55,16.56,4.54,24.93.31,2.59-5.51,3.13-3.3,6,1.76,2.24,2.24,5.13,3.64,6.79,5.61,6.69,7,12.77,1.21,19.88-3.34,4.1-1,9.1-1.39,13.69,6.43,3.05.87,5.74.18,9-1.14,5.27-.64,10.88-.2,16.31.34,4.18-3.27,5.71-5.48,8.27-1.34,1.56-1.93,1.44-3.36-.18-2.26-2.56-5.71-4.18-5.26-8.36C972.14,167.5,971.75,162.69,971.75,157.92Z"/><path d="M736,125.59c0-15.06.17-30.12-.11-45.18-.08-4.17,3.41-5.69,5.66-8.23,1.21-1.36,2.93-1.34,3.13.52a11,11,0,0,0,5,8.45c-1.45,1.45-4.21,4.14-4.16,4.18,8.87,7.45,3.58,16.86,4.06,25.22.87,15-.64,30.17.64,45.15.59,6.83-5,10.78-5.73,16.58-.09.65-2.38,1.25-3.74,1.54-2.76.58-4.67-1-4.69-3C735.88,155.71,736,140.65,736,125.59Z"/><path d="M541.8,99.7c0-10.25,0-20.49.06-30.73,0-.49,1.2-1.47,1.5-1.38,1.1.35,3,1.15,2.92,1.62-.61,4.92,1.92,8.58,4.31,12.85,2.14,3.83.14,9.39.62,14.13.17,1.68,2.79,3.07,3.37,4.84.82,2.49,2.15,6.11.85,7.66-7.09,8.49-3.25,18.07-4.44,27.12-.85,6.4,3,13.5-3.84,19.15-1.21,1-.67,3.81-.7,5.79-.09,4.78,1.43,10.08-.44,14.19s-5,7.81-4.47,12.81c.08.7-3.24,2.25-5.11,2.43-2.47.24-4-1.25-3.91-3.74.1-4.1.79-8.34-.14-12.26-1.55-6.52,6.2-10.27,5-16.8-1.08-6-.23-12.26-.23-18.41,7.94-5,3.93-12.42,4.49-18.79C542.26,113.39,541.8,106.53,541.8,99.7Z"/><path d="M208.93,103.84c0,12.3.15,24.59-.09,36.88-.08,4.28.65,7.68,4.56,10.74,2.1,1.65-.59,6.08-3.55,5.82-1.92-.17-5.39-2-5.3-2.23,2.26-6-3.94-9.78-4.71-14.78-.73-4.69-.16-9.54-.16-14.32,0-15,0-30,0-45.07,0-5.87,1.2-11.86-4.36-16.94-1.42-1.29-1.06-6.06.5-7.6,3.08-3,3.56-4.51.1-7.65-1.59-1.44-.87-5.12-.71-7.76.05-.9,1.61-1.73,2.49-2.59.54.49,1.64,1.11,1.54,1.43-1.55,4.78,5.27,6.41,5,10.46-.29,4.31.36,8,4.71,10.6v43Z"/><path d="M333.75,130.77c0-10.25-.14-20.51.07-30.76.09-4.24-6.15-5.69-4.89-10.64,1-3.9.2-8.16.2-12.26V64.8a25.34,25.34,0,0,1,.07-4.09c.1-.54,1.23-1.47,1.52-1.37,1.09.37,2.73,1,2.92,1.72,1.12,4.48-2.33,9.8,2.08,13.55,4.86,4.14,2.09,9,2.55,13.44a58.72,58.72,0,0,1,0,14.33c-.75,5.14,6.8,7.07,5,12.72-1.18,3.68-1.13,8.1,3.6,10.92.83.49,1.29,3,.68,3.65C338.39,140,345,151.9,343,162.91c-.43,2.35,1.12,5.4-2.77,6.4-1.09.28-6.53-6.5-6.52-7.78,0-5.46,0-10.93,0-16.4Z"/><path d="M298.74,235.58c.65.9,1.92,2.54,1.85,2.58-3.42,2.27-4,5.31-3.9,8.92.22,10.24.1,20.49.06,30.74,0,2.53,1,6.33-2.5,6.61-2,.16-6.07-3.44-6.14-5.43-.18-5.48-6.8-8.6-5.43-14.63.9-3.95,6.42-5.67,5-10.6a22.76,22.76,0,0,1,0-10.19c.8-4.2,4.21-6.77,8.8-8A9.19,9.19,0,0,1,298.74,235.58Z"/><path d="M398.48,727.31c0-2.68-.57-5.51.25-8,.38-1.14,3.85-2.58,5.26-2.15,8.28,2.47,13.06,12.38,3.61,18.36a11,11,0,0,1-5.79,1.89,3.38,3.38,0,0,1-3.38-4.12A50.18,50.18,0,0,0,398.48,727.31Z"/><path d="M504.81,706.65a65.28,65.28,0,0,1-.14,8c-.08.66-1.81,1.29-2.89,1.63-.31.1-1.51-.87-1.5-1.34.08-4.65.7-9.3-4.56-12.59-.62-.38.53-3.64,1.56-5.19.47-.71,2.74-.9,4-.65s3.2,1.21,3.34,2.06A49,49,0,0,1,504.81,706.65Z"/><path d="M490.94,747.93c0,2.71.08,5.42-.07,8.12,0,.51-1.15,1.46-1.47,1.37-1.1-.31-2.93-1-2.95-1.53-.2-6.76-.17-13.53-.07-20.3,0-.49,1.16-1.45,1.48-1.36,1.09.31,2.91.94,2.94,1.53C491.06,739.81,490.94,743.87,490.94,747.93Z"/><path d="M749.84,824c0,1.94,0,3.88,0,5.82-.2,6.16-.22,6.16-9.24,6.53.71-4.17,5.59-6.64,5.74-11.13C746.34,824.78,748.61,824.41,749.84,824Z"/><path d="M699,766.4h-4.62c0-3.39-.14-6.78.14-10.15,0-.55,1.9-1.13,3-1.39.34-.08,1.4.88,1.42,1.39C699.05,759.63,699,763,699,766.4Z"/><path d="M585.49,798.77c-.45-.48-1.78-1.28-2-2.27-.73-3.33.71-5.44,3.78-5.3,1.82.09,3.63,1.27,5.33,2.15.31.16.32,1.6,0,1.79C590.33,796.43,587.94,797.55,585.49,798.77Z"/><path d="M761.37,811.64c1.12,1,1.85,1.37,2.1,1.91,1.83,4-.78,6.39-6.85,6.34-.72,0-1.72.25-2.08-.07a1.65,1.65,0,0,1,0-1.81C756.71,815.82,759.07,813.75,761.37,811.64Z"/><path d="M827.77,791.37c-.94-.88-3.25-2.27-3-2.93.79-2.23,5.7-2.21,7.42-.14.26.31.3,1.24.11,1.33C831.08,790.2,829.78,790.62,827.77,791.37Z"/><path d="M602.26,787.48c-1.13,1.53-1.9,2.57-2.68,3.61-.77-1-2.27-2.16-2.15-3.11.22-1.76,1.38-3.42,2.15-5.12C600.53,784.48,601.47,786.1,602.26,787.48Z"/><path d="M833.37,774c-.84,1.79-1.31,3-2,4-.1.17-1.14.14-1.5-.1-2.32-1.53-2.34-5.9.16-6.61C830.83,771.14,832.39,773.2,833.37,774Z"/><path d="M494.45,729.37l-3.51-2.06c1.91-.69,3.78-1.73,5.76-1.92,1.07-.1,2.32,1.23,3.49,1.92a35.22,35.22,0,0,1-3.53,2A6.48,6.48,0,0,1,494.45,729.37Z"/><path d="M895.86,371.72c2,.46,2.56,3.79,1,6.61a3,3,0,0,1-1.55,1.24c-2.11.72-2.76.05-2.16-1.89.53-1.74.75-3.55,1.27-5.29C894.49,372.07,895.35,371.94,895.86,371.72Z"/><path d="M969.82,314.1c.53.48,1.51,1.15,1.42,1.3a8.53,8.53,0,0,1-2.1,2.43,2.17,2.17,0,0,1-1.94,0,1.61,1.61,0,0,1,0-1.73A16.1,16.1,0,0,1,969.82,314.1Z"/><path d="M1153.7,507.75l3,1.47c-.52.46-1.14,1.36-1.52,1.29a15.49,15.49,0,0,1-3.11-1.29Z"/><path d="M281,602.14c.54.48,1.52,1.15,1.43,1.3a8.69,8.69,0,0,1-2.1,2.43,2.17,2.17,0,0,1-1.94,0,1.61,1.61,0,0,1,0-1.73A16.45,16.45,0,0,1,281,602.14Z"/><path d="M493.92,717.61l1.64,1.47a15.13,15.13,0,0,1-3.1,1.28c-.38.08-1-.83-1.52-1.28Z"/><path d="M51.07,727.9l-1.64,1.46A11.8,11.8,0,0,1,48,726.6c-.08-.34.93-.89,1.45-1.35Z"/><path d="M347,740.24l-1.65,1.47a12.57,12.57,0,0,1-1.44-2.76c-.09-.34.93-.9,1.44-1.36Z"/><path d="M403.1,758.17c-2.25.14-4.29-.26-3.67-2.73.18-.67,2.39-.94,3.67-1.39Z"/><path d="M707.56,756.7l-1.64,1.47a12.2,12.2,0,0,1-1.45-2.76c-.08-.34.93-.9,1.45-1.36C706.47,755,707,755.84,707.56,756.7Z"/><path d="M599.59,758.17a12.14,12.14,0,0,1,1.44,2.76c.08.34-.93.89-1.45,1.35a12.14,12.14,0,0,1-1.44-2.76C598.05,759.18,599.07,758.62,599.59,758.17Z"/><path d="M689.74,770.51q-.18-4.28,4.62-4.11C694.48,769.24,692.94,770.62,689.74,770.51Z"/><path d="M703.23,768.79c-.54.48-1.29,1.35-1.46,1.27a9.45,9.45,0,0,1-2.73-1.87,1.57,1.57,0,0,1,0-1.73,2.2,2.2,0,0,1,1.94,0A16,16,0,0,1,703.23,768.79Z"/><path d="M985.62,772.57a15.65,15.65,0,0,1-3.1,1.29c-.38.07-1-.83-1.52-1.29a15.17,15.17,0,0,1,3.1-1.29C984.48,771.21,985.11,772.11,985.62,772.57Z"/><path d="M698.32,777.28l-1.65,1.46a12.14,12.14,0,0,1-1.44-2.76c-.09-.34.93-.9,1.44-1.35Z"/><path d="M591,779.34l1.65,1.46a15.65,15.65,0,0,1-3.1,1.29c-.38.07-1-.83-1.52-1.29Z"/><path d="M475,815.78c-.71-.82-2.22-2-2-2.38,1.63-2.47,2.95-.78,4,.57a1.65,1.65,0,0,1,0,1.74C476.65,816,475.7,815.78,475,815.78Z"/><path d="M891.22,812c.54.47,1.52,1.15,1.43,1.3a8.67,8.67,0,0,1-2.1,2.42,2.2,2.2,0,0,1-1.94,0,1.57,1.57,0,0,1,0-1.73A16.45,16.45,0,0,1,891.22,812Z"/><path d="M749.84,824q-.18-4.26,4.62-4.11V824Z"/><path d="M758.71,826.4c-.54.47-1.3,1.35-1.47,1.27a9.4,9.4,0,0,1-2.72-1.87,1.57,1.57,0,0,1,0-1.73,2.2,2.2,0,0,1,1.94,0A15.46,15.46,0,0,1,758.71,826.4Z"/><path d="M583.4,856.92c2.25-.14,4.3.27,3.67,2.73-.17.67-2.39.94-3.67,1.39Z"/></svg>