<svg id="Layer_1" data-name="Layer 1" xmlns="http://www.w3.org/2000/svg" viewBox="0 0 1200 1200"><title>BB_Artboard 34</title><path d="M796.23,458.59c-70.24,36.76-73.87,40-77.76,42.91-3,2.31-7.3,6.64-9.42,6.09-9.91-2.56-15,5.78-23.39,5.54a34.21,34.21,0,0,1-9-1.24c-2.78-.86-4.94-3.21-7.74-3.8-19.89-4.17-19.26-4.12-20.24-17.15-.64-8.51,2.22-15,10.72-19.88,8.86-5.05,9.52-14.61,18.13-20.08,8.4-5.33,15.44-12.06,23.07-18.18l20.62-16.53,22.9-18.35c7.64-6.12,14.81-12.68,23-18.23,7.49-5,10.47-12.22,16-18.11s14.54-9.54,16.32-18.05c.55-2.66,5.65-6.39,9-6.64,6.79-.5,9.44-2.12,9.34-7.64,0-1,4.82-2,7.36-3.12,1.77-.77,3.45-1.68,5.17-2.53-1.48-1.23-3-2.43-4.44-3.68a18.93,18.93,0,0,1-1.65-1.83c5.34-4.28,11.46-8.12,15.81-13,4.19-4.66,11.69-3.65,15.74-7.3,4.4-4,9.71-2.53,14.81-2.82,2.15-.12,4.35.18,6.47-.05,21.73-2.43,33.75,3.91,37.58,19.93.2.84-.43,2,.09,2.55,3.86,3.84,8.7,7.56-.07,11.32,0,4.33.2,8.66-.1,13-.11,1.51-1.57,4.29-2.16,4.25-10.18-.73-9.86,6.61-13.31,10.92-1.6,2-3.53,4.28-3.69,6.5-.37,5.29.71,10.8-9.66,9.71-1-.1-2.61,2.3-3.44,3.72-5.06,8.71-8.31,18.47-15.39,25.92s-2,14.92-4.11,22.13a42.27,42.27,0,0,1,6.47.06c4.15.64,5.65-2.05,7.79-3.76,16.87-13.41,34.46-26.31,50.14-40.56,10.16-9.24,25.87-9.77,36.49-17.84,2.26-1.71,10.35-1.67,12.28.06,8.25,7.38,21.32,11.86,23.44,23.28.09.52,4.11,1.19,4.21,1,2.93-5.08,6.57-10.08,8-15.46,1.54-5.74,1-11.84,1.31-17.78,8.25-4.08,4.44-10.72,5.57-16.35a12.27,12.27,0,0,1,3.68-6.5c10.46-9.37,21.68-17.91,37.92-20.59,1.78-.29,2.93-2.61,4.77-3.24,2.72-.93,7.44-2.42,8.45-1.55,6.5,5.62,20.4,4.8,22,12.75,1.13,5.52,8.4,8,7.21,13.3-1.62,7.25,4.64,15.63-4.81,21.75-1.82,15-13.29,26.76-21.09,39.73s-14.86,26.34-24.59,38.59c-1.55,1.94-1,5-2.52,6.91-5.55,6.93-18.44,9.55-18.22,19.93-7.44,4.82-6.91,13.95-15.82,18.3-2.75,1.35-2.32,6.42-4.95,8.47-6.81,5.31-6.57,14.34-15.82,18.23-7.08,3-7.38,9.74-11.63,14.24-3.87,4.1-9.47,7.15-13.45,11.2-3,3.1-4.72,7-7,10.61s-3.95,7.54-7,10.6c-4,4-1.08,8.28-2,12.34-.57,2.4.42,4.71-2.2,7.13-5.32,4.91-6.13,12.2-13.78,16.25-4.35,2.3-7.21,5.65-13.61,5.3-10.74-.59-21.59-.38-32.37-.06-4.79.14-7.5-2.2-11.16-3.64-4.24-1.66-12.1-2.71-14.65-.81-7,5.26-12.24,6.18-18.34-.13-7.15,1-10.34-5.37-16.4-5.77-5.48-.35-7.06-2.22-7.28-6.27-.36-6.86,1.73-12.57,6.18-18.8,9.9-13.86,17.36-28.83,26.5-43.06,3.25-5.07,8.68-9.21,12.62-14,.79-1-.31-3.22-1.14-4.66-1.22-2.11-2.45-1.48-4.6.35-7.38,6.31-15.43,12.12-22.71,18.5C836,517,831.24,519.58,824,518.5a7.89,7.89,0,0,0-5.42,1.73c-4.91,4.63-14,3.34-18.33,8.54-11.88,0-24.5,2-35.44-.54-12.42-2.92-24.87-8.5-31.45-18.74-1.32-2.05-.1-5.12-.21-7.71-.13-3.3,1.2-6.94,63.11-43.19,62.08-33.86,59.92-32.13,60.09-27.38,0,.39.37-.69-.11-1.07a3.44,3.44,0,0,0-2.73,0c-2.14,1.21-4.8,2.69-.9,4.52.52.24,2.46-1.46,3.74-3.42C860.8,430.19,863,428.46,796.23,458.59Z"/><path d="M379.6,632.62c48,91.72,52.16,96.45,56,101.53,3,4,8.67,9.54,7.95,12.31-3.34,12.93,7.55,19.6,7.24,30.54a44.79,44.79,0,0,1-1.63,11.82c-1.12,3.63-4.19,6.45-5,10.1-5.45,26-5.37,25.15-22.39,26.43-11.11.84-19.63-2.89-26-14-6.6-11.57-19.08-12.43-26.22-23.67-7-11-15.75-20.17-23.75-30.14l-21.57-26.91-24-29.91c-8-10-16.56-19.34-23.8-30.09-6.58-9.77-16-13.67-23.64-20.9s-12.46-19-23.58-21.31c-3.47-.73-8.34-7.38-8.67-11.77-.66-8.87-2.77-12.32-10-12.2-1.31,0-2.64-6.29-4.07-9.6-1-2.32-2.2-4.51-3.31-6.75-1.59,1.93-3.16,3.91-4.8,5.79a25.6,25.6,0,0,1-2.39,2.16c-5.59-7-10.6-15-16.94-20.65-6.09-5.46-4.77-15.26-9.54-20.54-5.18-5.75-3.3-12.69-3.68-19.34-.16-2.81.24-5.69-.07-8.45C162.73,498.7,171,483,191.93,478c1.09-.26,2.64.57,3.33-.12,5-5,9.87-11.35,14.78.09,5.65,0,11.31-.25,16.94.14,2,.13,5.6,2,5.54,2.81-1,13.3,8.63,12.88,14.27,17.39,2.61,2.09,5.58,4.61,8.48,4.81,6.91.49,14.11-.92,12.68,12.62-.13,1.23,3,3.41,4.86,4.49,11.37,6.6,24.12,10.86,33.84,20.1s19.48,2.67,28.9,5.36c0-2.82-.35-5.72.07-8.44.85-5.43-2.67-7.38-4.9-10.18-17.51-22-34.36-45-53-65.47C265.69,448.33,265,427.83,254.47,414c-2.24-2.95-2.18-13.51.07-16,9.64-10.78,15.48-27.84,30.39-30.6.69-.13,1.57-5.38,1.34-5.51-6.63-3.82-13.16-8.58-20.19-10.47-7.49-2-15.45-1.26-23.21-1.71-5.33-10.77-14-5.79-21.35-7.27a16.12,16.12,0,0,1-8.5-4.81c-12.23-13.65-23.38-28.31-26.88-49.51-.38-2.33-3.41-3.83-4.23-6.24-1.22-3.55-3.16-9.71-2-11,7.34-8.49,6.27-26.63,16.65-28.76,7.2-1.48,10.4-11,17.36-9.42,9.47,2.11,20.42-6.05,28.4,6.29,19.61,2.37,34.94,17.35,51.88,27.53s34.4,19.41,50.39,32.11c2.54,2,6.49,1.27,9,3.29,9.06,7.25,12.48,24.08,26,23.79,6.29,9.72,18.2,9,23.89,20.66,1.76,3.6,8.38,3,11.06,6.46,6.93,8.9,18.72,8.58,23.81,20.67,3.89,9.24,12.7,9.63,18.59,15.18,5.35,5.06,9.33,12.37,14.62,17.56,4,4,9.19,6.17,13.85,9.16s9.85,5.16,13.84,9.17c5.26,5.28,10.82,1.41,16.12,2.67,3.13.74,6.15-.55,9.31,2.87,6.41,6.95,15.93,8,21.22,18,3,5.67,7.38,9.4,6.92,17.76-.77,14-.5,28.2-.08,42.28.19,6.25-2.88,9.78-4.75,14.57-2.17,5.54-3.54,15.8-1.06,19.13,6.87,9.19,8.07,16-.17,24,1.35,9.33-7,13.5-7.53,21.4-.46,7.17-2.9,9.23-8.19,9.51-9,.47-16.41-2.26-24.55-8.07-18.1-12.92-37.64-22.67-56.23-34.6-6.62-4.24-12-11.33-18.32-16.48-1.26-1-4.21.41-6.09,1.49-2.76,1.59-1.94,3.2.45,6,8.24,9.65,15.83,20.16,24.16,29.66,5.34,6.09,8.73,12.3,7.33,21.79a10.34,10.34,0,0,0,2.25,7.09c6.05,6.4,4.37,18.24,11.16,23.93,0,15.51,2.66,32-.71,46.27-3.82,16.23-11.11,32.48-24.47,41.07-2.68,1.72-6.68.14-10.07.27-4.3.18-9.06-1.56-56.39-82.4-44.22-81.07-42-78.25-35.75-78.46.5,0-.9-.49-1.41.14a4.5,4.5,0,0,0,0,3.57c1.57,2.78,3.51,6.26,5.9,1.17.31-.68-1.9-3.21-4.46-4.88C342.51,548.3,340.25,545.48,379.6,632.62Z"/><path d="M669.93,129.08c10.41-9.2,11.35-9.07,11.92-13.27.6-4.43,5.5-6.14,5.09-11.4-.29-3.72,8.68,0,8.67-7,0-3.06,2.77-6.1,4.15-9.21,1.67-3.73,4.94-6.55,5.47-11,.21-1.72,2.75-3.36,4.5-4.66,2.93-2.16,9.58-.38,7.72-7.49,2.53-2.63,6.45-4.87,7.33-8,2.74-9.75,11.36-14,16.81-21.21,1.66,1.65,2.71,2.68,3.74,3.74,10.19,10.47,10.11,10.41.94,22.92-2,2.72-2.89,6.22-4.83,9-1.66,2.38-4.67,3.91-6,6.39-1.63,3.05,1.54,7.57-1.77,10.24-10.2,8.26-14.06,21.93-25,29.35-5.19,3.53-4,10.52-9.18,14.06-4.19,2.84-7.58,7-10.94,10.85-1.24,1.42-.9,4.2-2.12,5.66-4.5,5.38-6.25,12.42-11.83,17.35-4.58,4.05-7.15,10.29-11.21,15.05-4.28,5-9.29,9.42-13.94,14.14-1,1-2.76,2.45-2.54,3.25,2.2,8.16-3.51,12.48-8.54,16.31s-3.69,11-9.23,14-4.28,10.19-9.18,14c-3.65,2.86-7.43,5.87-9.07,11.6-1.42,5-9,8-11,13-3.1,7.87-8.88,12.93-14.55,18.18-3.39,3.14-3.55,8-6.36,10.52-3.21,2.84-1.36,7.37-4.48,9.31-7.13,4.41-6.75,14.45-14,18.47-6.24,3.45-5.85,11.29-10.87,15.42,2.24,5.82-6.78,7.73-4.7,13.5-2.85,3.24-7.44,6.13-8.16,9.78-1.18,6-6.16,7.83-9.06,11.78-1.29,1.75-3.35,3-4.47,4.81-.66,1.07.47,3.61-.26,4.2-7.91,6.42-10.58,16.65-17.53,23.73.47,4.48-3.44,6.14-5.88,8.54-2.29,2.27-3.52,4.52-2.95,7.66a7,7,0,0,1-3.19,7.51c-7.2,5.16-11.4,12.79-14.13,20.62-1.9,5.44-8.5,7.39-8.69,11.69-.22,5-4.07,7.24-5.34,11.26-1.38,4.4-5.74,8.11-9.4,11.45-3.11,2.83-3.76,5.92-3.44,9.69s-1.58,5.18-5.12,5a3.73,3.73,0,0,0-2,.51c-.61.36-1.57,1.07-1.51,1.51,1,7.06-6.51,8.76-8.66,13.8,8.68,7.76-3.11,8.26-4.52,12.45-.42,1.25-2.34,1.94-2.95,3.2a34.73,34.73,0,0,0-1.75,5.88l-6.13,15.13c-7.3,4.16-6.92,14.08-13.95,18.62-1.33.86-1.47,3.7-2,5.68s-.13,5.09-1.36,5.94c-5.6,3.92-6.36,11.11-10.9,15.42-5.85,5.56-10.5,11.22-11.16,19.83-.15,2.06-2.12,5.18-3.44,7.22-3.47,5.4-9.28,9.31-12.71,14.73-3.23,5.1-3.33,12.27-8.57,16.19-5.43,4.07-5,11.81-10.76,15.58-1.5,1-2.59,3.41-2.85,5.31-.51,3.59.55,7.6-.68,10.81-.66,1.74-5.75,1.51-7,3.39-2.57,3.91-5.22,8.59-5.37,13-.18,5.16-2.61,8-5.77,11-1.07,1-3,2.14-3,3.11.45,7.12-6.43,9.14-9.21,13.93-1,1.73-1.16,3.92-1.89,5.83s-2.66,3.83-2.43,5.53c1.11,8.14-2,14.09-8.46,18.65,1.11,5-3.43,7.43-5.16,11.11-2.89,6.18-4.67,13.14-10.37,17.85a7.6,7.6,0,0,0-2.53,5.44c.52,8.89-6.69,12.29-12,16.71-1.63,1.36-6.21,1-8.32-.39-3.64-2.33-6.65-5.82-9.39-9.25-1.1-1.38-1.79-4.9-1-5.72,7.87-7.73,7.37-19.1,12.65-28s8.9-18.36,13.48-27.49a22.39,22.39,0,0,1,5-6.71,11.11,11.11,0,0,0,3.92-9.53,7.72,7.72,0,0,1,2.33-5.53c6.75-5.55,7.74-15.33,15.19-20.26,1.57-8.22,7.17-14.64,9.88-22.42a29.64,29.64,0,0,1,7.81-12.07c3.56-3.15,3-8.52,6.2-10.64,5.9-3.93,6.75-10.74,10.37-15.86,2.26-3.19,3.28-7.61,6.66-10.35a8.18,8.18,0,0,0,3.37-7.51c-.13-2,.16-4.73,1.41-5.9,4.24-4,6.74-8.8,9.5-13.77,2.31-4.16,2.9-9.32,7.45-12.5S371,580,372.51,575c1.94-6.41,10.82-8.11,9.6-15.93,9-12.22,12.84-27.28,21.69-39.58-1.16-8.32,10.7-9.81,9.52-18.14,5.11-4.06,4.86-11.64,10.77-15.57,3.18-2.12,2-8.27,6.4-10.42s3.66-7.36,6.15-10.74c2-2.71,3-6.14,4.83-9s5.82-5.39,6.2-8.4c.89-7,10.87-8.16,9.34-16.08,5.25-3.15,4.14-10.42,9.3-13.88,5.41-3.62,4.59-12.06,11-15.28,2.55-1.28.59-4.67,1.74-5.79,4.66-4.5,5.54-11.13,10.39-15.87,4-3.9,6.6-10.21,8.32-16.22.2-.71,2.44-1,3.78-1.19,2.51-.29,4.28-1.53,3.81-4.05-1.09-5.9,1.46-11.48,6.14-12.56,6.67-1.56,7.8-4.65,7.29-10.29a4.47,4.47,0,0,1,1.76-3.57c6.78-3.8,6.58-12.43,12.32-17.13,4.84-4,5.62-11.09,10.8-15.49,2.72-2.31,3-7.44,5.85-10.68,1.25-1.44,1-4.16,2.28-5.6,3.38-3.87,9.1-6.82,10.32-11.15A20.77,20.77,0,0,1,568.91,262a31.88,31.88,0,0,0,9.33-13.84c.88-2.57,1.62-5.36,3.2-7.47,2.18-2.92,5.28-5.13,7.65-7.92,3.6-4.25,8.86-6.81,9.81-13.69.6-4.33,8-5.72,8.38-12,.14-2.28,3.18-4.65,5.31-6.5,6.36-5.55,9.3-8.44,12-14.55,2.17-4.89,4.57-8.6,10.69-8.87,2.19-.09,2.79-2.35.52-4.26-.78-.65-1.63-2.6-1.31-3,2.41-2.77,6.65-5,7.31-8a16.07,16.07,0,0,1,5.05-9c2.16-2,4.52-3.91,6.18-6.28,1.93-2.78,2.49-7.4,5-8.68,2.85-1.47,2.24-5.05,5.15-5.7,1.25-7.73,7.71-11.54,6.78-3.19-5.48,12.94-5.24,12.12-5.53,11.59-.62-1.1-1.41-2.79-2.33-2.94-4.09-.65-1.89,2.74-1.85,4,0,1.47,1.54,2.9,2.4,4.35C663.22,144.94,663.83,143.82,669.93,129.08Z"/><path d="M746,236.3c21.32-9.54,17.22-6.72,15.87-2.92-3.12,8.87-8.11,16-14.6,22.74-6.34,6.57-15.63,11-17.32,21.41-6.24,6.24-14,11.6-18.34,19-5.27,8.84-14,14.75-18.63,23.17-5.78,10.55-14.43,17.83-22.48,25.81-5.18,5.14-6.43,12.55-12.21,17.19-5.13,4.13-9.5,9.2-14.09,14a5.64,5.64,0,0,0-1.73,3.62c.29,4.6-6.48,6.27-4.55,11.4-3.64,3.64-7.32,7.24-10.9,10.93-4.92,5.07-9.71,9.88-12.91,16.69-2.64,5.64-10.49,8.79-13.27,14.41-4.66,9.39-14.24,14.7-18.53,23.23-4.47,8.88-12.14,14-17.6,21.37-2.85,3.86-3.59,8.92-7.75,12.32-3.12,2.55-6.22,5.25-7.76,9.94-1.44,4.39-6.14,7.76-9.56,11.44-3,3.23-6.24,6.24-9.33,9.39-1,1-2.75,2.25-2.66,3.23.71,7.16-7.33,8.5-9,14-.59,1.94-1.06,4.4-2.47,5.51-4.12,3.27-5.37,8.07-7.92,12.19-3,4.85-9.69,8.05-11.14,13-1.66,5.71-7.78,7.51-8.54,11.88-1.15,6.63-8.14,8.95-9.16,13.85-1.23,5.87-6.82,7.82-8,12.17-1.7,6.08-7.65,9-9.2,13.84-1.71,5.31-5,8.41-8.29,12.05-.48.54-1.5,1.2-1.4,1.58,1.12,4.4-3.94,6.28-4.16,9.24-.33,4.36-2.92,6.39-5.36,8.92s-5.57,4.95-7.61,7.94c-.86,1.25-.42,4.55.69,5.65s4.64,1.54,5.63.65c3-2.77,7.54-5,6.65-10.52-.06-.4,3.52-1.7,5.49-1.94.78-.1,1.78,1.54,2.68,2.39-4.4,2.2-3.45,7.44-6.16,10.72-3.64,4.41-9.91,6.78-11.08,13-1.09,5.71-6.49,7.54-9.26,11.64s-4.66,8.68-8,12-4.06,7.28-6.26,10.69c-3.39,5.25-4.85,11.95-10.74,15.46-1,6-5.29,9.79-9.33,13.8-2.48,2.46-4.93,4.56-5.46,8.84-.48,3.81-2.89,4-8.26.71-2-1.21-3.13-2.26-4.77,0-.42.58-1.29,1.59-1.5,1.49-11.09-5.45-14.83-15.38-9.13-26,5.15-9.63,8.52-20.18,15.15-29-1-4.46,2.62-6.38,5-9a23.35,23.35,0,0,0,3.07-3.15c2.26-3.62-1.1-8.5,3.05-12,2.57-2.21,6.58-4,6.46-8.24-.13-4.57,5.8-6.17,4.88-11.44-.32-1.83,3.85-3.46,4.29-6.93.3-2.42,3.07-4.54,4.75-6.78,1.26-1.69,3.57-3.34,3.61-5a8.09,8.09,0,0,1,4.25-7.07c5.41-3.24,3.75-10.91,9.21-13.91-.61-3.22.9-5.35,3.11-7.59,2.39-2.42,1.08-6.82,4.67-9.15,2.27-1.46,4.84-4.09,5.19-6.5.49-3.31,2-5.73,4.33-7,5.11-2.75,3.66-9.1,7.66-12.43,3.22-2.68,5.71-5.65,6.69-10.49.9-4.41,8-5.74,8.39-12,.13-2.28,3.06-4.87,5.32-6.45,7.33-5.13,8-15.28,15.53-20.11.37-6.46,5.48-9.71,9.37-13.76,3-3.18,6.17-6.28,9.26-9.41-1.32-5.58,3.64-7.47,6.37-10.58,2.91-3.3,6.51-6,9.22-9.48,2.06-2.63,2.45-7.33,4.93-8.74,5.79-3.29,4.91-10.2,9.17-14.08a137.08,137.08,0,0,0,10.89-10.94c3.18-3.64,7.25-6.14,8.53-12,.94-4.24,6.65-7.45,10.25-11.1s7.69-6.52,7.86-12.21c0-.54,1.05-1,1.48-1.57,5-6.8,14.42-10.21,15.61-20,6.24-6.24,12.31-12.65,18.78-18.65,4.25-3.95,7.61-8.27,9.3-13.84,9.12,2,6.24-7.71,10.38-11s10.12-6,10.07-13.39c0-2.09,3.7-5.91,5.8-6,7.63-.27,7.43-4.89,7.19-10.2-.12-2.52,1.38-3.75,4-3.92,5-.31,7-4.18,9.23-7.85,6.92-11.53,12.75-17.08,23.88-23.1.9-.49,1.33-1.84,2-2.79-6.64-4.51-.26-6.58,1.83-9.34,2.66-3.49,6.76-4.65,10.41-6.66,3-1.66,2.24-7.89,6.44-10.28,3.05-1.73,4-6.36,8.47-6.21.36-5.08,5.23-6.65,7.89-9.93,1.22-1.51,3.51-3.28,5.16-3.13,5.93.52,7.9-1.76,10.31-7.38s8.78-9.66,13.62-14.17c.84-.79,2.78-.93,4-.64a3.86,3.86,0,0,1,3.19,4.7c-.19,1.44,0,2.93-20.1,18.81-20.75,13.46-21.34,12.47-22.19,11.8a1.32,1.32,0,0,0-1.87,1.87,9.17,9.17,0,0,0,2.61,2C724.69,252.06,725.41,251.12,746,236.3Z"/><path d="M744,814.48c2.78-1.48,4.32.25,4.25,2.5a7.82,7.82,0,0,1-2.5,5.22c-1.44,1.2-5.41,1.15-5.5,1.95-.82,7.67-5.44,10.86-12.38,12.4-.91.2-.46,4.45-1.74,5.55-2,1.67-5.45,1.66-7.22,3.43s-2,5-3.41,7.27c-.47.73-2.83,0-4.08.53-2.11.89-3.26,2.38-.68,4.22,2.21,1.58,2.22,3.41-.05,4.59-1.94,1-2.38,6.11-6.21,2.46a16.18,16.18,0,0,0-3.09-1.87c-2,3.55-5.89,3.39-9.06,4.72-1.74.73-1.28,1.77.4,3.11,3.33,2.65,3.81,5.58.7,9.08-2.74,3.08-6.28,5.16-7.24,10.27-.92,4.83-7.74,5.11-11.71,7-3.8,1.83-6.19,2.53-5.58,7-5.08,4.08-4.35,12.16-10.77,15.39-6.93,3.48-6.61,12.28-12.35,17a116.5,116.5,0,0,0-15.53,15.56c-2.35,2.79-.7,9.31-7.63,7.47-2.08,3.52-3.92,7.22-6.32,10.5a47.27,47.27,0,0,0-5.37,8.79c-1.6,3.55-3,7.73-5.51,10.92-4,5.11-3.5,14.7-13.61,14.12-.75-.05-1.86,1.91-2.39,3.12-1.9,4.35-3,9.22-5.61,13A47.74,47.74,0,0,1,573,1030.66c-4.34,3.25-4.69,8.58-7.77,12.25s-6.59,6.89-8,12.19a24.28,24.28,0,0,1-7.68,12c-4.31,3.48-4.54,8.63-7.24,12.67s-3.93,8.91-8.12,12l-6.68,14.85a9.29,9.29,0,0,0,1.11,1.73c.38.37,1.29.83,1.49.66a15.71,15.71,0,0,0,3.12-3.08c3.59-5.13,5.62-11.22,10.84-15.39,4.56-3.64,8.39-8.19,12.54-12.35,6.23-6.22,12.3-12.62,18.75-18.61,3.27-3,4.55-6.82,6.43-10.56,1.37-2.72,6-2.14,9.05-4.49,3.73-2.88.77-8.86,6.28-10.23,3.92-1,7.65-2.76,11.4-4.34,4.63-2,6.21-8.05,11.76-8.81.52,1.25,1,2.55,1.58,3.76.75,1.49,4.11,2.27,1,4.73-1.72,1.37-2.9,3.84-4.77,4.46-2.54.84-5.54-.22-6.77,3.61-1.45,4.52-3,9.19-5.56,13.11-2.35,3.62-6.74,5.94-9,9.58-3.39,5.34-6.4,10.74-10.94,15.39-4.33,4.44-7.1,10.37-11.16,15.13-4.29,5-11.33,8.64-13.55,14.29-4.87,12.38-18.83,17.57-22.28,30.53L512,1162.49c-6.37,0-13-.59-19.54.15-9.09,1-12.22-6.57-17.62-10.91a3,3,0,0,1,.85-1.48c6.57-4.7-.22-13.55,4.86-17.71,5.36-4.39-.73-12.25,6.05-15.33,1.4-6.11,5.08-11.2,8-16.52,2-3.58,1.64-8.57,6-10.79s3.94-7.26,6.29-10.63c4.34-6.22,5.32-14.36,10.94-19.73s6.8-14.29,14-18.53c-1.06-7.2,8.27-8.8,8.45-14,.27-7.62,10.45-8.52,9.22-16.2,4-4.24,8-8.46,12-12.71.48-.51,1.26-1.17,1.2-1.67-.87-7.15,8-8.43,8.67-14,.51-4.35,3.16-6.61,5.84-8.61,5.43-4,6.73-10.75,10.92-15.4C593,953.1,597.47,948,601,941.57c3-5.59,11-8.76,13.3-14.41,4.72-11.47,15-17.3,22.29-26.09,4-4.87,10.35-8,11.07-15.35.06-.63,2.32-1.22,3.63-1.51,4.66-1,7.87-4.12,8.54-8.42.54-3.43,3.25-4.62,4.49-7,2-3.85,9.44,0,9.08-6.93-.22-4.25,4.25-5.55,6.4-8.34,1.32-1.72,3.26-4.55,4.64-4.4,7.42.81,8.56-8,14.07-8.88,6.64-1.08,9-6.84,13.47-10.22,2.53-1.92-.65-8.11,5.29-7.59,3.68.32,4.53-4,7-4.3,6.75-.83,9.88-4.39,11.08-10.8.22-1.16,3.32-2.4,5.12-2.46,2.26-.08,3.91,1.45,3.53,4.26a46.21,46.21,0,0,0,0,5.39c0,.33.25-.58-.08-.91a1.92,1.92,0,0,0-1.86,0c-1.45,1-3.27,2.28-.61,3.84C741.76,817.59,743.08,816.15,744,814.48ZM681.47,887l-1.57-2.85c-.49.49-1.46,1.09-1.38,1.45a13.74,13.74,0,0,0,1.38,3Zm-162.18,225.3,1.58,1.57a13.74,13.74,0,0,0,1.38-3c.08-.36-.89-1-1.38-1.45C520.34,1110.44,519.8,1111.4,519.29,1112.33Z"/><path d="M792.55,1003.46c-2.94,0-5.9.19-8.82-.06s-4.67,1.43-4.27,3.5c1.08,5.61-3.21,9.12-4.36,13.7-.86,3.4-1.93,4.46-5.28,5.18-2.49.53-5.78,2.79-6.52,5-3.94,11.75-14.51,17.66-22.13,26.09-7.39,8.17-15.26,15.95-23.42,23.34-3.47,3.13-8.11,5.11-12.47,7-1.84.81-4.83.94-6.46,0-4.31-2.56-8.34-4.49-13.68-4.68-2.57-.09-5.38-4.31-7.23-7.21-.65-1,1.19-3.68,2-5.58,1-2.52,1.64-5.33,3.19-7.47,3.68-5.08,5.84-10.73,8.12-16.51,2-5,9.58-6.88,8.93-13.94,11.28-10.09,14.65-24.79,21.71-37.33,3.39-6,5.19-13.15,11.08-17.4,4.92-3.57,5.78-9.77,9.52-13.63s4.71-8.71,7.77-12.25c3.74-4.33,7.3-8.48,9.17-13.94.88-2.57,1.62-5.36,3.19-7.47a40.32,40.32,0,0,1,7.74-7.81c11.06-8.45,15.28-22.69,26.46-31-1.56-8.46,10.91-9.71,9.35-18.18,5.2-5.2,10.44-10.35,15.55-15.63.9-.93,1.26-2.4,1.83-3.63,2-4.32,3.43-9.05,6.15-12.85,3-4.12,7.16-7.35,10.76-11,4.43-4.54,8.66-8.88,11.3-15.16,2.1-5,7.57-8.63,11.55-12.86-1.22-7.67,8.95-8.56,9.23-16.18.19-5.19,9.46-6.8,8.53-14-.06-.44,1-1.52,1.48-1.48,10.12.84,7.18-10.64,13.5-14.3,4.92-2.85,11.44-7,11.44-14.75l16.15-14.93c4.3,4.05,10.16,8.32,11.65,15.86.32,1.63,5.19,2.15,1.51,4.6-6.33,4.23-8.42,11.39-11.17,17.5-1.88,4.14-3.61,4.53-7.09,5.79-2.8,1-6.3,5.23-6.26,8,.1,5.86-2.4,9.41-6.28,13-5.91,5.5-11.27,11.62-17.29,17-3.21,2.86-3.59,6-3.31,9.72.3,3.88-2,4.73-5.29,4.9-2.33.12-4.16,1.55-3.51,4.28,1.44,6.06-2.3,9.49-6.23,12.88-8.08-.76-7.08,4.85-7.11,9.93,0,2.44-1.43,3.76-4.1,3.82-1.3,0-3.66.8-3.68,1.31-.21,5.75-4.4,8.83-8,12.14-2.68,2.45-1.76,5.36-1.73,8.1,0,2.53-1,4.75-3.12,4.73-5-.05-4.82,2.83-6.2,6.53-1.84,5-7.57,7.56-9.37,13.8-1.39,4.8-8.18,7.5-9.06,13.88-.24,1.74-3.07,3-4.45,4.73-3,3.77-8.7,5.9-7.82,12.19-3.64,3.64-7.94,6.83-10.75,11-3.78,5.62-5.75,12.48-9.7,17.93-3.83,5.3-9.34,9.35-13.74,14.27-1.22,1.36-.65,4.23-1.75,5.82-6.73,9.71-9.76,22-20.16,29.18a2.62,2.62,0,0,0-1.1,1.71c0,1.41-.29,3.57.46,4.08,1.62,1.1,4.32,2.38,5.66,1.73,2.5-1.22,5.69-3.49,6.2-5.83,1.54-7.14,4.91-11.48,12.44-12.31.68-.07,1.42-2.27,1.64-3.57.79-4.82,4.1-7.58,8.2-8.88,6.68-2.1,11.06-6.93,13.71-12.56,3.21-6.85,7.24-11.64,14.54-14.19,6.85-2.4,9.08-11.21,16.61-13.12v8.83c-3.44-.52-4.81,2.45-6.35,4.38s-1.32,5.3-3,6.86c-2.21,2.06-5.53,2.92-8.29,4.44-.29.16,0,1.31,0,2a38.45,38.45,0,0,0-4.16,0c-4.17.44-4.91,1.36-2.65,4,2.53,3,4,5.85.58,8.64s-2.5,6.06-2.6,9.38A10.83,10.83,0,0,0,792.55,1003.46Zm3.78-14.83-1.57-2.84c-.49.49-1.46,1.09-1.38,1.45a13.67,13.67,0,0,0,1.38,3Z"/><path d="M796,526.35c.63,5.07-4.48,6.45-6.78,10-2.8,4.3-10.63,2.52-11.08,10.59-.23,4.1-7.37,5.83-8.11,12-.38,3.24-4.38,6.66-9.51,7.39-5.68.81-1.35,3.3-.09,5.3.71,1.14-5.47,10.42-8.6,12.13h1c0-.66.26-1.5,0-1.93-1-1.46-2.28-3.27-3.84-.61-.2.35,1.24,1.67,2.91,2.54,3.05,6.17-4.52,9.57-3.52,15.49.07.41-1.12,1.52-1.42,1.42-1-.36-2.85-1.28-2.78-1.68,1.06-5.5-3.9-7.19-6.42-10.37a2.86,2.86,0,0,0-1.45.72c-.47.46-1.14,1.22-1,1.68a23.87,23.87,0,0,0,1.9,5.68c3.28,6.07,3.16,6.14-1,10.56-2.17,2.27-4.66,2.47-7.37,3.27-4,1.2-2.86,5.81,2,8.57,0,.74.25,2,0,2.12-2.43,1.18-5.54,1.58-7.31,3.35s-1.92,5.06-3.35,7.32c-1.77,2.8-5,5-5.8,7.94-.33,1.3,2.28,4.75,3.59,7,2.62,4.46,4.81,8.45,4.18,13.8-.23,2,0,4.75,1.25,6,2.53,2.47,3.23,3.88.17,6.52-1.22,1.06-1.81,5.25-1.23,5.6,6,3.66,1.16,6.45-.11,9.9-1,2.66-.25,6-5.58,5.62-.33,0,.58.26.91-.07a1.92,1.92,0,0,0,0-1.86c-1-1.46-2.28-3.27-3.84-.61-.2.35,1.24,1.67,2.9,2.54,1,2.21,1.83,5,.81,6.5-2,3-5.33,5.08-7.5,8-1.58,2.11-2.19,4.94-3.22,7.45-8.79-1-6.45,5.38-6.8,10.05a4,4,0,0,1-.75,1.87c-.41.57-1.17,1.5-1.56,1.4-7-1.75-5.36,4.74-7.69,7.55-1.53,1.85-4.83,2.23-7.34,3.27,2,5.75-6.3,7.56-5,13.55.42,2-2.7,1.51-4.37-.15-.67-.67-2.63-1.2-3-.84-2.33,2.55-6.16,4.17-5.63,8.66.59,4.92-.13,8.81-6.69,8-.56-.07-2,2.16-2,3.37-.26,5.1-4.13,7.23-7.6,9.58-1.65,1.11-5.48,2-5.44,2.14,1.56,5.19-5.31,6.9-4.7,11.44.94,6.91-2.39,11.29-8.6,12.85-6.37,1.59-8.5,7.6-13.14,10.9-.4.28-.5,1.38-.34,2,1.81,7.09-3.58,10.44-7.48,14.57-.49.52-1.42,1.2-1.32,1.61,2.41,10.07-7.46,13.21-10.81,19.86C592,866.29,584.92,873.7,584.86,884c0,1.27-.86,3.62-1.39,3.64-8.73.37-7.72,6.56-7.31,12.16.24,3.26-.67,5.77-3.34,7.45-5.17,3.25-5.09,9.86-9.17,14-1.82,1.83,4.53,2.75,2.44,6.08-1.1,1.74-3.39,3.79-3.05,5.22,1.63,7-6.69,11.18-4.65,18.07.19.66.2,1.93-.12,2.08-9.7,4.8-7.77,16-12.88,23.45-3.45,5-6,11.09-4.82,17.9.25,1.47-1.76,4.77-2.7,4.76-4.87,0-5.54,2.27-6.4,6.52-.42,2.1-5.77,2.9-8.26,5-1.3,1.1-1.09,5.47-1.78,5.52-4.9.37-10.14,1-14.71-.36-6-1.8-7.79-11.78-3.59-16.36a108,108,0,0,1,7.81-7.77c2.32-2.06,4.14-4.28,3.25-7.47-1.74-6.26,2.09-10.81,4.47-15.83s6.05-9.55,4.57-15.85c-.4-1.71,1.12-3.85,1.67-5.82,1.85-6.56,8.05-11.34,7.31-19.18-.19-2,3.41-4.29,5.14-6.55,1.25-1.64,3.51-3.75,3.19-5.15-1.63-7,6.6-11.16,4.73-18.1-.28-1,.59-2.83,1.49-3.69,10.34-9.89,13.22-24,20.44-35.68,1.79-2.87,3.81-6,4.27-9.2.62-4.35,4.1-5.89,6.52-8.3s1.55-5.79,3.19-7.47c2.69-2.77,2.75-6.59,4.7-9.11a142.81,142.81,0,0,0,9.49-13.72c3.9-6.51,10.16-11.33,14.09-18.43,3.77-6.8,11.11-11.58,16.71-17.41s12.35-10.92,15.77-17.75c3.8-7.62,10.45-11.81,15.55-17.74,5.25-6.12,11.33-11.53,17-17.25s11.07-11.87,17.29-17c3.71-3.06,2.58-8,6-10.88s7-5.76,9.18-9.43c1.67-2.78,1-6.85,1.84-10.24,1.25-5.12.29-13.14-2.67-15.16-1.6-1.1-4-.89-5.84-1.78-11.83-5.89-9.21-16.93-9.44-26.93,4.32-2.26,3.07-8.35,6.31-10.47,5.93-3.88,5.83-11.29,10.65-15.67,1.28-1.16.53-4.48,1.79-5.73,4.08-4,7.82-8.14,9.24-13.88,9.83-7.56,13.58-20.22,23.33-27.88a5.18,5.18,0,0,0,1.61-3.66c0-4.5,6.27-6.29,4.67-11.33,3.12-3.12,6.19-6.29,9.37-9.35,3-2.91,5.4-7.06,10.64-6.24,1.56-3,2.58-6.55,4.78-9,5.4-6,11.34-11.51,17.06-17.21,8.39,1.39,9.79-10.26,18.19-9.71,1.93.13,4-4,6.25-5.87,4.59-3.74,10-2.84,15,2.06,1.68,1.63,2.2,2.62.32,4.81-2.13,2.48-3.31,5.77-4.91,8.71-7.12-1-8.49,7.31-14,8.75-2.72.72-5.73.29-8.45,1-2,.49-1.55,1.71.2,3.07,3.31,2.59,4.35,5.84.76,9-2.06,1.81-3.11,5.27-7.82,4.73-.33,0,.59.26.92-.07a1.94,1.94,0,0,0,0-1.86c-1-1.46-2.28-3.27-3.84-.61C792.87,524.16,794.32,525.48,796,526.35ZM715.24,658.88c-.49.49-1.46,1.09-1.38,1.45a13.74,13.74,0,0,0,1.38,3c.49-.49,1.46-1.09,1.38-1.45A13.74,13.74,0,0,0,715.24,658.88Z"/><path d="M579.76,592.62c-115.11,176.7-116.58,176.77-118,176.69-4.31-.24-9.06-5.33-9.3-10a58.48,58.48,0,0,1,0-6.62c.08-1.37.11-3.59.86-3.94,6.87-3.23.43-11.71,6.18-15.21q9.36-19.35,19.08-38.51a32.26,32.26,0,0,1,6-8.49c2.21-2.19,3.55-4.27,3.32-7.55-.13-2,.16-4.73,1.41-5.91,4.24-4,6.75-8.79,9.51-13.77,2.3-4.16,2.9-9.32,7.45-12.51s6.16-9.38,7.66-14.35c2-6.41,10.82-8.11,9.61-15.93,7-4.42,8.33-13,13.86-18.66,4.8-4.94,6.49-12.51,12.63-16.79,2.28-1.59,3-4.55,4.34-6.94,3.68-6.64,6.22-14.3,12.87-19,1.18-.84,2.74-1.9,3-3.12,1.26-5.41,4.71-9.82,6.74-14.89,1.77-4.4,7.88-6.9,10.28-11.23A84.89,84.89,0,0,1,596.65,512c2.94-3.5,3.92-8.6,6-12.88a20.35,20.35,0,0,1,3.62-5.11c4.59-4.78,9.32-9.41,14-14.1-.76-7.24,5.75-9.68,9.53-13.63,4.48-4.68,4.76-11.75,10.65-15.68,4.81-3.21,8.08-8.64,12.75-12.14,3.6-2.7.28-11.79,9-9.49.44.12,2-2,2.16-3.26.36-2.15-.18-4.45.2-6.59a5.65,5.65,0,0,1,2.35-3.37c6.5-4,6.24-12.89,12.47-16.94,2.09-1.35,6.11.44,6.6-3.19.19-1.38-2.08-3.09-3.23-4.65,3.55-2,2.65-6.89,4.91-8.84,2.93-2.54,7.48-3,10.74-5.89,1.54-1.34,10.09,4.28,10.16,6.68.18,5.87,0,11.74,0,17.62-4.47,2.15-3.29,7.71-6.31,10.59-2,1.88-3.11,5.29-6.83,4.75-.59,2.72.63,5.37-1.38,8.31-3.54,5.21-5.84,11.26-11.11,15.22C682.4,446.82,676,450,672,454.81c-3.11,3.73-8.64,5.95-7.82,12.2-3.34,2.73-9.06,2-9.53,9.08-.28,4.22-4.44,8.45-7.47,12.17-3.23,4-7.21,7.35-10.83,11-1,1-2.88,2.53-2.64,3.2,3.53,9.82-8.58,12.66-9.09,20.67-.14,2.26-2,3.53-4.63,3.24s-3.81,1.3-4.11,3.77c-1.19,9.48-1.23,9.46-11.73,19.09-.9.82-1,2.5-1.53,3.75-3.06,7.09-6.31,14.07-12.57,19.09-3.53,2.83-6.24,6-5.12,11.14.78,3.54-2.12,5.48-4.33,6.93-6.36,4.18-7.85,11.68-12.41,17,1,8.32-10.42,9.92-9.73,18.05-4.42,4.8-9.86,9-13,14.54-3.35,5.94-4.78,12.92-10.05,17.9-4.63,4.37-4.91,11.86-10.9,15.42-.9.53-1.35,2.47-1.35,3.75,0,4.45-9.74,7.78-2.3,12.54,4.77,3,7.25-3.13,10.52-5.64,1.39-1.07,2.17-3.58,4.77-1s3.32,4.66,1.55,7.92a19.49,19.49,0,0,0-1.34,3.85c-2.14,7.36-10.31,9.74-13.4,16.53-2.54,5.57-3.39,12.44-8.8,16.15-5.15,3.53-4.09,10.43-9.15,14.08a27.3,27.3,0,0,0-9.82,13.5c-1.71,4.81-10.13,9.64-16.58,12.6-4.19,1.93-4.19,1.93,101.17-174.8C694.05,415.91,695,416.17,695.29,415.84a1.92,1.92,0,0,0,0-1.86c-1-1.46-2.28-3.27-3.84-.61C691.27,413.72,692.71,415,579.76,592.62Z"/><path d="M867.65,563c2.07,7.13-2.83,13.05-5.47,19.31s-8.21,11.25-7.86,18.86A7,7,0,0,1,853,605c-2.31,3.51-7,5-7.52,10.18-.38,4.12-5.77,6.31-4.93,11.17-4.44,2.18-2.64,8.06-6.26,10.65-6.62,4.72-7.18,13.84-13.93,18.65-2.67,1.9-8.54,4.7-2,9.34.08,0-1,2.62-1.82,2.89-7.1,2.21-4.12,13.81-13.73,14.27-2.53.12-.85,6.6-4.62,8.87-2.32,1.4-4.95,4-5.33,6.45-.52,3.25-2.26,5-4.08,7.23-3.16,3.84-8.5,6-9.42,11.54s-8.13,7.08-8.55,11.82c-.57,6.31-7.33,7.64-8.3,12.06-1.58,7.19-7.31,10.38-11.26,15.29-4.4,5.46-11.37,8.77-12.71,16.87-.53,3.26-7.85-.65-7.78,5.16,0,3.58-2.19,3.93-4.88,5.43-4.84,2.71-8.61,7.34-12.83,11.17.59,7.26-5.84,10-9.89,13.42-6.78,5.75-8,15.24-15.29,20.44-1.23.88-1.38,4-1.22,6,.27,3.34-2.15,5-3.38,7.5-2.21,4.45-9.58.69-9.85,6.52-.25,5.29-4.62,7.08-7.32,10.24-2.87,3.34-6.19,6.3-9.32,9.42s-6.2,6.3-9.38,9.36c-4.49,4.32-14.72,4-19.48-.58q-2.4-2.28-4.69-4.68c-3.63-3.81-4.09-8.11-1.18-13.5,2.66-4.9,4.85-9.86,9.15-14,5.63-5.41,12.54-9.8,15.69-17.68,3.06-7.67,12.11-11,15.4-17.94,4.86-10.27,13.74-16.43,20.56-24.62,3.07-3.69,4.91-8.41,8-12.09,3.76-4.5,8.23-8.41,12.4-12.57,3.64-3.64,7.43-7.16,10.89-11,4.24-4.66,5.65-11.13,10.79-15.52,4.14-3.54,8.28-7.23,10.68-13.12,2.3-5.66,8.38-9.78,12.79-14.57-1.76-8,9.69-8.75,8.84-16.22l13.16-14.43c-.88-7.12,7.93-8.78,8.56-14,.75-6.26,7.35-7.66,8.28-12.07,1.34-6.43,6.09-9.46,9.71-13.71-1.9-5.13,3.4-7.42,4.86-11.26,1.88-4.93,2.93-11,7.69-14.42,9.76-6.94,12-18.69,18.12-28,3.26-5,5-11.06,8.2-16.45,7.15-12.15,7-12,18.55-18.55,5.13-2.9,6.38,5.15,10.63,2.44.89,1.75,2.29,3.42,2.56,5.26C868,556.58,867.65,559.57,867.65,563Z"/><path d="M576.34,153.49c-.27,5.21-.83,9.78-4.67,13.54,1.23,7.68-10.06,8.51-8.84,16.17-4.37,4.5-7.23,10.76-14.46,11.9-2.28.36-2.58,2.45-3.41,4.56-2.78,7.14-6,14.33-12.49,19-6,4.35-8.46,11.15-12.52,16.85-3.63,5.11-10.35,8-10.8,15.39-6.75,6.75-13.62,13.4-20.21,20.29-4.35,4.55-10.47,7.93-10.94,15.28-5,1-7,4.42-9.52,8.83-2.31,4.09-2.8,9.24-7.15,12.69-3.67,2.9-7.76,5.75-9.35,11.44-1.22,4.36-6.12,7.74-9.56,11.4s-7.19,7.35-10.9,10.9c-1.27,1.22-1.28,2.31.69,3.08,1.27.49,3.39.95,4.15.29,4.39-3.82,8.34-8.15,12.75-11.95,2.74-2.35,9.46-.36,7.86-7.52-.13-.58,1.84-2.16,3-2.41,3.37-.72,8.16,1.62,9.8-2.42,1.26-3.1,4.73-2.38,5.68-5.18.58-1.73,2.18-1.51,3,.5.5,1.28,1,3.33.35,4.13-2.71,3.38-5.86,6.41-8.82,9.61s-7.59,6.05-8.31,9.68c-1,5.08-4.8,7-7.27,10.3s-7.27,5-6.65,10.6c.15,1.4-2.74,3.14-4.25,4.72-3,3.1-8.42,1.85-10.64,6.22s-7.08,4.17-10.64,6.24c-7.41,4.31-10,4.31-15-.41-3.13-3-6-5.79-10.68-6.3-2.13-.23-1.73-1.58-.08-3.08a11.19,11.19,0,0,0,2.86-5.35c1-4.06-1.95-9,2-12.37,3.42-2.95,2.29-6.54,2.55-10,.06-.68.09-1.59.51-2a43.86,43.86,0,0,0,11-15.28c1.09-2.51,4-4.23,6.07-6.3,4.15-4.16,10.06-7.64,12-12.65,2.24-5.76,6.42-9.17,9.6-13.72,1.42-2,.81-5.27,3.24-7.46,3.76-3.4,9-6.83,10.05-11.13,1.25-4.94,4.29-7.43,7.25-10.24,3.72-3.52,5.81-7.63,8-12.17,1.77-3.75,5.46-7.82,9.2-9.1,4.51-1.55,7.12-2.46,7.67-7.87.35-3.5,7.88,0,8-5,.1-4.45,3-6.49,5.55-8.75,4.39-3.82,4.17-10.32,9.16-14,4.68-3.43,8.69-7.93,12.49-12.38,3.14-3.67,7.63-5.81,8.84-11.84.85-4.23,6.47-7.48,9.93-11.2s6.55-6.8,8.24-12.05c1.41-4.35,6.85-7.39,10.44-11.06,2.53-2.58,5.23-6,9-3.17C573.28,145.3,576.62,147.92,576.34,153.49Zm-94.6,98.33,1.58-1.57a14,14,0,0,0-3-1.38c-.36-.08-1,.89-1.45,1.38Z"/><path d="M545.16,737.54a35.56,35.56,0,0,1,.76-6.33c.2-.8,2.37-1.62,3.58-1.54,2.76.17,3.89-1.25,4.49-3.52,2.28-8.57,10.07-15.15,9-25-.11-.95,2.3-2,2.66-3.22,1.66-5.66,5.83-9.42,9.21-13.91,3.16-4.2,3.25-10.92,6.71-14.64A61.42,61.42,0,0,0,593.67,650c2.79-7,7.89-12.83,9.43-20.35,4.41-2.18,2.57-8.37,6.29-10.52,6.18-3.56,5.53-11.68,10.89-15.37,6.84-4.7,8.53-12.76,13.17-18.87,1.19-1.56,1.07-4.34,2.45-5.5a24.53,24.53,0,0,0,7.85-12.27c.19-.66,2.5-.72,3.85-1,2.33-.51,3.6-1.59,3.69-4.32s-1.49-5.92,1.38-8.2c4.55-3.62,6.8-8.7,9.59-13.63,2.35-4.14,6.71-6.87,7.78-12.3.59-3,7.91.63,7.58-5.2-.21-3.62,2.48-5,4.41-7,2.57-2.6,5.21-4.88,4.9-9.15,0-.55,4-2.42,5.38-1.83,2.51,1.11,4.51,3.48,6.54,5.5,7.58,7.55,7.88,11-.42,19.53-2.86,2.93-1.76,7-4.55,9.17-2.09,1.59-5.19,1.81-7.38,3.31-2.86,2-5.94,4.49-1,7.82.2.13-.79,2.88-1.13,2.86-4.24-.25-7.53.71-6.6,5.79,1,5.32-2.3,8.22-5.68,10.85-2.07,1.61-6.18,1.54-7.14,3.38-1.2,2.3-.62,5.63-3.44,7.34-1.9,1.16-1.72,1.85,0,3.23,1.28,1,4.29,2.66,1,4.51-4,2.23-.36,11.66-9,9.41-.46-.11-2.32,2.19-2.18,3.19,1.36,10-7.8,16-9.18,25-.17,1.1-3.33,1.77-5.12,2.59-5.85,2.68-8.83,6.85-8,13.62.43,3.58,1.11,7.94-.46,10.74-1.71,3-2.76,6.84-4.68,9-3.45,3.8-3.57,7.54-3.72,11.88,0,1.16-1.57,3.31-2.18,3.23-6.94-.93-6.55,3.51-6.61,8.16-.07,5.64-4.33,15.29-8.7,20.61-1.38,1.68-4.39,3.32-4.25,4.74.73,7.35-7.29,8.59-9.09,14-.64,1.93-1,4.33-2.31,5.59-3.27,3.08-.51,7.62-2.31,10.06a82.91,82.91,0,0,1-14.94,15.74c-2.3,1.82-7,.76-10.59.76-10.72,0-13.94-3.27-14-14.09Z"/><path d="M871.08,950.45c1.07,4.43-4.09,6.28-4.05,11.28,0,3-3.16.63-4.23-.79-1.32-1.76-2.59-2.14-3.07-.23a44,44,0,0,0-.89,8.46c-.15,2.82.64,5.93-2.32,7.84-6.9,4.48-6.85,14.19-14,18.45-1.44,7.62-9.22,11-12.09,17-4.86,10.23-13.19,16.89-20.73,24.36-5.13,5.08-4.13,16.22-15.19,15.59-.59,0-2.09,2.46-1.83,3.4,1.59,5.68-3.2,9.05-4.56,13.62-.38,1.3-.59,3.37-1.42,3.7-3.74,1.47-9.11,1-7.46,7.65-2.92,2.33-5,5.08-4.67,9.09-5.09,4.06-4.59,12-10.8,15.48-1.34.76-2.15,3.74-2,5.57.23,2.22,2.33,3.16,4.81,3a80.91,80.91,0,0,1,8.81,0c2.73.11,5.55,4.44,3.74,6.06-3.41,3-3.79,7.34-5.8,10.9-6.28.4-10.56,7.75-17.72,5.11-5.86,2.64-7.85-5.78-13.65-4.78-1.71.3-4-3.86-6.29-5.62-7.07-5.43-5.44-12.43-3.82-19.5,4.92-2.9,1.31-9.16,3.58-11.55,3.64-3.82,3.85-8.9,7-12.79,2.43-3,3.11-7.47,5.79-10.75.76-.93,0-3.14.77-4,3.75-4.19,8.51-7.64,9.25-13.83,9.4-6,12-17.68,20.23-24.68,6-5.08,6.93-14,13.87-18.63,1-.67.14-4.19.14-6.39,7.94,1.08,9.92-.76,8.84-8.84,8.29-3.3,12.23-11.54,18.92-16.63,6.34-4.83,8.3-12.29,12-18.71q4.59.16,4.42-4.42c.71,0,2,.16,2,0,1.71-6.24,6.18-10.44,10.5-14.84,2-2,.44-4.84-3.72-7.23-.5-2.73,1.16-4.12,3.41-4.34,4.59-.45,7.37-1.28,2.21-5.48-1.34-1.09-1.28-2.55.68-3,4.65-1,9-.81,13.66-4.19,5.65-4.11,14.65,2.43,15.47,9.15,1.07,8.71-1.8,16.39-5.31,24-.41.89-2.37,1.06-4.6,1.57h1c0-.66.26-1.5-.05-1.94-1-1.45-2.28-3.27-3.84-.61C868,948.25,869.42,949.57,871.08,950.45Z"/><path d="M785.69,446.6c-4.71-4.71-9.58-9.23-14-14.18-1.19-1.34-1.29-4-1.16-6s.6-4.73,1.94-5.67c5.11-3.56-.31-10.13,4.54-13.7,10.65-7.87,14.27-20.3,20-31.4,3.49-6.8,6.21-14.34,12.86-18.89,4-2.71,4.25-7.1,6.19-10.73,1-1.81,2.36-3.48,2.91-5.4,2.12-7.45,10.25-9.87,13.4-16.52,2.63-5.54,3.3-12.47,8.73-16.14,4.66-3.15,3.58-9.14,7.63-12.43,3.41-2.76,6-6.53,9.49-9.21,5.84-4.51,6-12.7,12.28-17.15,5.31-3.79,9.58-9.1,14.09-13.94.78-.84.27-2.78.75-4.06,2-5.41,3.65-.86,5.62.16.67.35,3-.75,2.93-.94-.68-4.3,2.1-6.67,4.81-9.11l15-6.48c5.1-.72,6.88.63,7,5.35.05,2.94-.2,5.9.06,8.82.35,3.89-.87,6.73-3.7,9.58-3.49,3.5-8.6,6-9.53,11.42-1,5.62-8,7.14-8.55,11.81-.58,5.33-4.76,7-6.92,10.49-2.49,4.06-4.52,8.41-6.65,12.68-.29.59.24,1.6-.08,2.16-3.54,6.21-10.64,9.26-13.46,16.5-2.47,6.33-5,13-11,17.59-3.27,2.49-1.86,8.37-6.32,10.54s-3.63,7.47-6.3,10.6c-2.86,3.34-6.32,6.16-9.26,9.44-3.24,3.62-3.22,9.2-7.77,12.28-4.78,3.23-7.08,8.42-9.66,13.56-2.12,4.22-6.58,6.77-8,12.22-.94,3.68-5.51,6.79-9,9.36-4.6,3.36-2.71,7.87-3.15,12,8,4.84-1.43,9.16-.66,13.86,0,.28-3.63,1.27-5.62,1.7-.45.09-1.28-.68-1.63-1.24C790.05,439.93,788.15,445.43,785.69,446.6Zm120.21-186c.5-.5,1.4-1,1.4-1.5s-.81-1.27-1.42-1.46A8.34,8.34,0,0,0,902,257c-1.22.25-2.26,1.37-3.38,2.11,1.12.73,2.16,1.85,3.38,2.1S904.58,260.83,905.9,260.59Z"/><path d="M419.26,133.18c2.08,2.08,4.33,4,6.2,6.29s5.26,3.19,4.82,6.8c-.58,4.81,1.56,9.85-2.8,14.38-2.69,2.8-4.47,7.24-5.65,10.78-3.83,11.51-12.22,20-17.94,30.13-5.61,2.91-4.27,10.2-9.18,14-3.67,2.85-7.44,5.88-9.11,11.59-1.45,5-9,8-11,13-3.11,7.87-8.85,13-14.52,18.21-5.33,4.94-6.2,12.6-12.23,17.22-4.9,3.76-9.83,7.94-11.39,15.08-.84,3.84-10.11,8.82-16.49,12.72-2.37,1.45-3.55,1.47-4.74-.46-2-3.3-8-.17-8.48-4.89-.48-4.27-1.39-9.93.79-12.7,2.75-3.49,2.58-8.05,5.8-11,3.79-3.49,7.31-7.26,10.94-10.9-1.4-5.61,3.64-7.45,6.3-10.63,3.69-4.41,9.15-8.09,10.94-13.12,1.94-5.43,7.36-7.22,9-11.74.95-2.65,1.47-5.08,3.34-7.51,4.75-6.17,13.68-9,14.62-18.19,5.05-5.26,10.13-10.51,15.15-15.81,1-1,2.63-2.55,2.37-3.31-3.08-9.22,7.7-11.83,8.7-18.51.82-5.45,4.69-4,7.31-5.62,3.73-2.37.92-6.81,1.91-10.14.37-1.25,1.85-2.18,2.87-3.21C410.93,141.5,415.1,137.35,419.26,133.18Z"/><path d="M388.74,314.33c-5.69,1.22-6.68-2-7.8-7-.8-3.59-3.28,0-4.25,1.16-1.41,1.66-2.79,2-3.06-.19-.43-3.38-1.31-8.06.45-10.1,3.71-4.33,3.45-11,9-14,2.86-1.55,2.52-4.75,3.48-7.34.63-1.72,4.8-1.95,7.08-3.35.88-.54,1.21-2.45,1.27-3.76.19-4.23-1-8.13,6.09-8.86,4.41-.46,3.31-8.45,7.83-11.53,3.37-2.3,5.57-6.34,8.17-9.69.36-.46-.24-1.62.09-2.14,5.07-7.76,13.31-12.5,18.06-21.06,4.43-8,12.45-14,18.88-20.82,7.4.38,7.71-4.4,7.22-9.83-.06-.68-.08-1.71.32-2,1.06-.82,2.35-1.87,3.55-1.87,3.73,0,4.66-1.82,5.06-5.24.6-5.31,3.12-3.15,5-.69,1.29,1.66,3,1.76,3-.25.05-9.6,7-6.87,12.18-7.15,2.9-.16,6.26-.35,6.1,3.88-.12,3.26,2,8.26-2.89,9.15-7.34,1.33-10,7.59-14.69,11.73,1.38,7.75-9.87,8.58-8.84,16.13-4.42,4.77-9.1,9.32-13.18,14.36-4.8,5.94-7.56,13.36-13.32,18.65.4,6.26-7.4,7.59-8.09,11.94-.93,5.89-5.28,8.23-8.06,12.19-1.08,1.53-1.84,5.32-1.27,5.66,5.95,3.63,1,6.37.05,9.89-.81,3-1.69,5.48-4.05,7.12-6.11,4.24-5.62,13.12-12.36,16.95C403.2,309.93,397.33,315.31,388.74,314.33Zm80.7-123.42c1.91-.8,3.16-1.25,4.31-1.86.18-.1.15-1.09-.11-1.43-1.64-2.22-6.34-2.24-7.09.15C466.32,188.48,468.53,190,469.44,190.91Zm22.07-16.4-1.57-1.57a13.74,13.74,0,0,0-1.38,3c-.08.36.89,1,1.38,1.45Zm-31.86,28.72,1.58-1.57a14.28,14.28,0,0,0-3-1.39c-.36-.08-1,.9-1.45,1.39Zm-8.83,13.25,1.57-1.57a13.67,13.67,0,0,0-3-1.38c-.37-.08-1,.89-1.46,1.38Z"/><path d="M832.31,946c1.47,1,3.64,1.59,4.24,2.93.74,1.67.18,3.91.18,5.9h-4.42Z"/><path d="M468.09,318.72c-.68-.87-2.12-2.19-1.92-2.54,1.56-2.66,2.82-.85,3.84.61a1.92,1.92,0,0,1,0,1.86C469.66,319,468.75,318.72,468.09,318.72Z"/><path d="M733.27,615.07c.51.51,1.45,1.23,1.36,1.39a9,9,0,0,1-2,2.61,1.32,1.32,0,0,1-1.87-1.87A15.61,15.61,0,0,1,733.27,615.07Z"/><path d="M457.45,648.48l1.57-2.85c.49.49,1.46,1.09,1.38,1.45a14,14,0,0,1-1.38,3C458.53,649.56,458,649.06,457.45,648.48Z"/><path d="M547.73,672.49c.51.52,1.45,1.24,1.36,1.4a8.86,8.86,0,0,1-2,2.61,1.32,1.32,0,0,1-1.87-1.87A16.2,16.2,0,0,1,547.73,672.49Z"/><path d="M545.16,678.52c-.87.68-2.19,2.13-2.54,1.92-2.66-1.56-.84-2.81.61-3.84a1.94,1.94,0,0,1,1.86,0C545.42,677,545.16,677.87,545.16,678.52Z"/><path d="M845.56,934.75c-.87.68-2.19,2.12-2.54,1.91-2.66-1.55-.85-2.81.61-3.84.43-.31,1.28-.05,1.93-.05Z"/><path d="M827.89,946c-.16-2.15.28-4.11,2.93-3.51.72.17,1,2.29,1.49,3.51Z"/><path d="M627.25,1012.65c.51.51,1.45,1.24,1.36,1.4a8.85,8.85,0,0,1-2,2.6,1.85,1.85,0,0,1-1.85,0,1.89,1.89,0,0,1,0-1.86A16.22,16.22,0,0,1,627.25,1012.65Z"/><path d="M620.26,1021.13q-.16-4.59,4.42-4.42Q624.85,1021.3,620.26,1021.13Z"/><path d="M832.31,954.86v4.42q-4.59.16-4.42-4.42Z"/><path d="M814.28,975.1c-.52.51-1.24,1.45-1.4,1.36a8.82,8.82,0,0,1-2.6-2,1.85,1.85,0,0,1,0-1.85,1.89,1.89,0,0,1,1.86,0A16.14,16.14,0,0,1,814.28,975.1Z"/></svg>