<svg id="Layer_1" data-name="Layer 1" xmlns="http://www.w3.org/2000/svg" viewBox="0 0 1200 1200"><title>BB_Artboard 1</title><path d="M1017.66,367.15c3,2.94,6,5.77,8.78,8.88,1.52,1.73,3.57,4,3.5,5.93-.18,5.28,1.84,8.91,4.83,13.19,2.36,3.39-1.27,9.61,4,13.39,1.38,1,1.77,4.63,1.29,6.74-1.79,7.78,2.45,12.48,7.68,16.9,2.88,2.43,3.84,5.77,1.26,8.42-4,4.15-4.75,6.19,2.11,6.59,2.68.16,4.59,1.72,4.06,4.81s1.72,6.89-1.69,9.25c-4.25,2.94-3.39,7.16-3.19,11.17.07,1.42,1.22,2.79,1.88,4.18,1.18-.83,2.69-1.43,3.47-2.54,1.42-2,3.13-2.42,3.46-.37.76,4.8-1,11.16,1.45,14.3,6.49,8.15,4.15,17,4.64,25.7.31,5.56-1.31,11.32,4.4,15.87,1.68,1.33.58,6.26.59,9.54q0,22.49,0,45c0,5.69-1.12,11.61,4.83,15.61.78.52.82,4.13.07,4.66-6.86,4.73-4,11.8-5,18-1.38,8.63,4.24,18.23-3.51,26.05-.42.42.22,2.73,1,3.36,5.58,4.45-.65,13.65,7,17.14-6.91,7.44-3.51,16.66-4.39,25.15-.24,2.32-.13,5.43-1.53,6.76-4.64,4.38-4.82,7.91-.09,12.36,1.41,1.33,1.5,4.42,1.58,6.73.21,5.82-.38,11.7.2,17.47.55,5.47-2.3,8.91-4.93,13.06s3.73,6.11,4,9.95c-6.4,3.94-3.6,10.31-4.11,15.78-.23,2.47-.88,5.42.13,7.41,2.81,5.52-9.89,10.64-.18,15.94-10.22,9.67-4,22-4.46,32.92-.25,6.42-6.29,9.79-5.38,15.38,1.41,8.59-4.27,18.27,3.78,26,.27.26-2.52,3.2-3.27,5.13-2.53,6.55,2.84,15.19-5.36,20.27-.1,6.63.2,13.29-.43,19.86-.46,4.88,2,7.68,5.13,10.44l-4.69,5.3c7.83,5.41,4,13.56,4.57,20.55.57,7.46.24,15,.06,22.48-.06,2.72-2,3.44-4.67,4.37-5.89,2.06-11,6.78-17.93,5-4.5,7.17-12,5.5-17.93,4.49-6.79-1.16-9.64,5.54-15.48,5.42s-11.45.43-17.17.68c-4.78,6.16-9.37,5.56-13.84-.35-5.65,6.37-13.23,4.38-20.25,4.54-8.32.2-16.77.88-24.95-.2-7.2-1-12,3.52-18,5-5.5,1.34-11.55.39-17.35.45-7.06,9.06-14,5.13-21-.13-.54-.4-1.65-.17-2.46,0-6.26,1-13.1-2.26-18.84,2.53,2.94,4.61,5.9,9.21,8.83,13.83s-1.69,12,5.27,15.36c.19.09.08,1.17-.13,1.69-.72,1.87-5.31,3.87-2.64,5,11.3,4.84,5.6,18.44,13.61,24.6-.95,6.7,8.83,10.41,5,17.92,4.69,5.13,4.82,11.32,5.34,17.89a25.51,25.51,0,0,0,6.26,14.62c3.18,3.35,2,7.92,5.05,10.52,2.79,2.39,2.24,6.78,3.78,8.28,4.12,4,5.38,8.24,4.48,13.28-1,5.78,1.89,9.31,5.79,12.66,2.48,2.14,4.87,4.32,4.34,8.21s-.51,8.08-1.25,12c-.14.74-2.71,1.12-4.2,1.5-6.93,1.77-10.49-3.18-14.44-7.33,2.7-6.64-8-8.65-5.3-15.3-5-3-4.68-7.92-5-13-.32-4.6-6.39-7.17-5.57-12.62-5.16-5.19-8.55-11.91-8.84-18.68s-7.91-10.76-5.4-17.9c-4.93-8.76-9.13-18-13.51-26.93-3-6.1-7-10.51-11-15.4-3.27-4-8.68-4.23-11.11-2.47-5.08,3.66-15.18,2.06-14.56,12.36-5.93,3.92-8.31,12.12-17.33,12.8-3.15.24-6.11,5.29-8.82,8.44-3.27,3.82-8.45,4.74-11.75,7.46-3.94,3.25-9.44,2.29-12.47,6.6-7.7,10.94-20.5,14.71-31.35,20.91-8.11,4.63-17,7.46-24.16,14.23-3.68,3.5-9.72,6.63-14.52,6.4-9.55-.45-16.65,4.24-24.38,8s-14.93,8.11-24.41,7.88c-5.78-.14-10.79,7-17.91,4.57-3.77,5.91-9.64,5.15-15.42,5-8.33-.15-17,1.39-24.91-.41-9.17-2.09-14.35,6.94-23,5.63-7.24-1.09-14.82.06-22.25.23-3.1,5.2-8.17,4.78-13.12,4.49-5.52-.32-10.83,1-16-4-4.45-4.26-12.76,2.1-18.31-3.77-4.65-4.92-11-1.43-16.53-2.16s-12.7.94-16.55-1.93c-4.82-3.58-9.55-1.7-13.74-3.42-3.46-1.41-5.51-6.11-10.46-4.52-1.86.6-19.34.11-20.53-1.07-7.42-7.35-19.36-7.21-26-15.83-3.56-4.64-9.63-5.13-14.32-7.83-5.82-3.34-11.64-5.1-11.57-13.07-5.73-3.79-6.63-10.75-9.39-16.15-2.37-4.62-.49-11.41-.49-17.24,0-5-.4-10,.09-15,.77-7.94-2.21-13.53-7.47-19.62-3.93-4.55-7.14-10.28-10.64-15.49-3.76-5.58-6.41-12.26-9.07-18.64-2.39-5.72-6.64-10.49-8-16.7-.26-1.21-1.77-2.16-2.71-3.23a40.13,40.13,0,0,0-2.14,4.11c-.28.73.05,1.66-.06,2.48-1.53,11.25-9.52,17-18.18,11.82-3.46-2-7.39-2.75-10.43-5-2.52-1.9-6.51-5.51-6-7.16,2.38-7.61-6.43-11.9-5.07-18,1.55-6.92-6.84-9.22-5.38-15.5.77-3.33.14-6.64-3.09-8.66-6.5-4.08-7.44-10.1-7-17.18s-6.56-12.23-5.33-20.48c1-6.56-6.39-12.46-5.36-20-3.88-2.62-4.09-6.45-4.36-10.75-.33-5.47,2.92-11.75-2.71-16.3-5-4,1.06-11.71-5.22-15.42-1.07-.63-1.73-2.69-1.81-4.14-.24-4.15-.09-8.32-.09-12.49-8.46-3.18-2.63-12.09-6.88-17.18-2.41-2.9-2.84-7.77-5.59-10-5.38-4.37,0-11.06-4.89-15.76a27.55,27.55,0,0,1-7.28-14.24c-.88-5-7.59-7.05-5.35-12.86l-12.43-12.3c-2.91,3.45-7.91,5.26-7.71,11.42.23,7.32-.64,14.67-1,22-7.83,6.73-2.84,15.59-3.66,23.42-.78,7.42-.17,15-.17,22.48v25c0,7.5,1.33,15.31-.34,22.41-2,8.4,5.74,13.13,5.41,20.51-.3,6.65-.24,13.33.09,20,.06,1.23,2.59,2.17,3.28,3.58,2.36,4.84,5.88,9.75,6.16,14.79.3,5.43,2.87,8.93,5.4,12.9-3.37,7.38,6.26,11.7,4.72,17.85-1.74,7,7.29,9.16,5.28,15.5,5.72,3.77,4.28,12.06,10,15.84-.82,8.3,7.38,10.25,11.1,15.34,1.05,1.43,4.36,1.56,6.66,1.65,6.63.25,13.27.14,19.91.32.6,0,1.37,1,1.69,1.73.19.4-.29,1.62-.59,1.66-7,1-10.83,6.43-15.73,10.51-1.53,1.27-5.11,1.55-7,.68-7-3.27-16.63-4.22-19.73-11.72-2.31-5.59-5.75-9.4-9.29-13.67-3-3.6-2.15-9.5-7-12.06,2.29-6.53-7.19-8.71-5.66-15.33.33-1.43-4.48-4.25-4.07-5.43,2.64-7.5-5.72-11.78-5-18,.65-5.78-4.37-8.4-5.15-13-.67-3.88,1.14-8.34-3.14-11.23-.67-.46-1.68-1.15-1.7-1.75-.19-5.8-.41-11.62-.19-17.41.2-5.16-7.5-7.19-5-12.91,3.56-8.2-5.71-12.9-5.18-20.45.59-8.29.14-16.65.14-25V821.51c0-7.5,1.14-15.23-.32-22.43-1.53-7.54,4.43-11.85,5.21-18,.72-5.67.56-11.46.79-17.19,6.88-3.33,1.78-11.45,5.54-15,4.46-4.26,3.31-8.83,3.86-13.57.33-2.79,10.72-5.15,12.82-2.52,4,5,10.86,7.47,12.31,14.88.55,2.81,3.75,5,5.46,7.7,1.4,2.2,2.42,2.34,3.56,0a4.16,4.16,0,0,0,.71-2.17c-1-6.15-7.94-10.66-4.95-17.93-3.85-3.47-5.21-7.58-5.3-12.92-.07-3.5-3.73-6.8-4.53-10.46-1-4.84-2.06-4.7-5.73-1.92-4.33,3.28-10.18,4-13.87,8.86-3.48,4.61-8.8,7.88-12,12.6-3.6,5.25-10,4.69-14.1,8.62-4.78,4.57-11.06,1.14-16.58,2.09-2.62-4.68-5.4-9.28-7.71-14.11-.52-1.09.12-3.44,1-4.4,5.15-5.32,11.24-10.07,8.82-18.89,3.06-2.77,6-5.63,5.23-10.32,5.07-2.43,4-8.44,7-12.11s8.7-5.62,7.71-11.76c-.74-4.63,1.24-7.89,4.7-10.56-2.07-5.87,5.4-7.69,5.37-12.79,0-7.32,8.58-8.64,10.44-15.72,2.3-8.74,7.4-17.08,12.73-24.56,3.3-4.63-.63-9.89,3.24-13.74q4.4-4.36,8.49-9c.42-.47-.23-1.76.1-2.42,4.16-8.28,7-17.74,13-24.42s7.49-16.36,15.52-21.24a23.92,23.92,0,0,1,8.8-13.88c3.91-3,2.54-8.95,7-12.19A67.93,67.93,0,0,0,257,497.69c4-4.86,4.52-12.12,10.7-15.52,2.82-9.95,10.53-16.29,17.81-22.51,8.2-7,10.78-17.94,19.19-24.72,5.62-4.54,5.32-5.2,3.87-6.91-1.6-1.9-3.31-4.81-5.29-5.1-5.6-.8-9.35-2.26-8.1-9a7.31,7.31,0,0,0-.49-4.74c-2.89-4.7-10.3-6.44-9.38-13.59s-4.28-11.81-6.94-17.1c-2.35-4.68-2.6-11.18-8.12-14.17,1.19-5-2.76-7.28-5.48-10.24-1.62-1.77-4.26-3.7-4.32-5.62-.42-14.12-10.83-23.91-15.2-36.26-.52-1.45-.79-3.17-1.76-4.24-4.3-4.8-9.22-8.47-8.74-16.64.27-4.7-6-9.13-4.55-15.4,1-4.38-3-7.45-3.8-10.8-1.53-6.12-7.68-10.2-6.39-17.58.94-5.36-6.53-8.67-5.14-15.45.62-3-3.65-6.73-4.42-10.39-.84-4-.47-8.31-.11-12.44.33-3.74-1.56-5.92-3.74-8.55-1.87-2.27-2.07-5.86-3.76-8.36-4.07-6-2.81-12.29-1.54-18.55.16-.8,3.06-2,4.08-1.51,2.83,1.21,5.16,3.8,8,4.67,3,.91,6.82-.34,9.67.83s5,3.32,8,4.69c7,3.16,13.4,7.69,21,9.65,4,8,13.14,3.5,19.36,7.9,5.88,4.16,13.05,9.27,21.71,7.56,5.56,7.48,13.61,3.83,20.62,4.41,5.69.47,6.38-.74,6.4-7.41,0-8.33-.22-16.67.08-25,.26-7.37-7.38-12.11-5.41-20.5,1.66-7.11.34-14.91.34-22.41-8.79-11.7-4.24-25.22-4.72-37.92-.23-6.08-7.36-8.54-5.56-15.49,1.41-5.46.28-11.58.28-17.41-6.65-5.59-4.93-13.26-5-20.42-.08-15.23-.35-14.42,13.69-8.61,8,3.29,13,7.25,11.06,15.73-1.52,6.78,6,9.82,5.08,15.45-1.28,7.76,8.23,12.35,5.2,20.47-2.61,7,7.69,10.69,4.94,17.89,3.35,6.4,6.05,12.85,5.19,20.45-.21,1.89,2.1,4,3.08,6.11,2.3,4.88,5.9,9.68,6.34,14.74a21.45,21.45,0,0,0,5.38,12.89c-3.15,7.32,5.62,11.77,4.72,17.88-1.05,7.24,6.64,10.6,5.79,18-.53,4.61,3.45,10,6.16,14.65,3.15,5.37,5.27,11.19,8.31,16.57,1.12,2,9.3,14.29,10,14.4,5.4.9,8.81,6.64,15.47,5.3,4.46-.89,7.06,6.42,12.89,4.81,6-1.64,10.42,2.46,15.55,4.55,4.18,1.71,9.1.34,13.35,4.42,2.23,2.14,8.39-.43,11.81,1.18,8.23,3.88,16.57,5.68,25.52,4.74,5.24-.55,6.94,6.44,13,5.31,4.39-.83,10.1-2.37,13.51,3.22a3.34,3.34,0,0,0,1.87,1.45c5.49,1.06,11.93-2.61,16.51,2.21,4.28,4.49,9.34,1.74,13.86,2.94s8.53,3.93,13,4.7c4.85.84,10,.19,15,.19,7.3,7.63,16.78,5.21,25.4,4.74,7-.37,10.62,6.94,18,5.52,6.43-1.24,13.28-.26,19.94-.26s13.33-.09,20,.07a7.33,7.33,0,0,1,4.34,1.46c6.92,5.85,12.33,3.66,19.22-1.23,8.12-5.75,9.1-5.44,3.75-10.89-6.42-6.53-13-13-19.43-19.45-2.94-2.94-5.47-6.57-8.93-8.66-4.32-2.61-2.07-7.82-5.23-10.44-5.08-4.2-7.87-9.73-10.78-15.52s-10.94-8-12.36-14.86c-1.52-7.38-8.17-10-12.3-14.87-3.65-4.3-3.55-10.34-8.51-14.2-4.16-3.24-8.49-6.63-9.92-13.33-1-4.8-7.61-8.32-11.4-12.69-1.45-1.68-2-4.15-3-6.2-2.5-4.8-4.28-10.31-7.86-14.13-4-4.23-5.39-10.3-9-13.68-9-8.59-11.64-20.44-17.93-30.32-4.58-7.2-8.21-14.92-13.06-22.15-6.34-9.46-10.66-20.47-16.17-30.68C518,39.33,515.86,32.48,512,26.8c-2.23-3.27-1.21-6.24-1.75-9.33s1.12-4.56,3.69-5.25c6.17-1.64,10.38,2.94,15.51,4.71,3.44,1.18,5,1.86,6.12,5.75,1,3.55,4.08,7.6,7.33,9.1C545.6,33,548.8,33,551.3,35.63c6.86,7.26,14.06,14.2,21.13,21.27,10.65.45,14.1,10.44,20.72,16.09,4.92,4.21,11.7,4.85,15.91,10.29,4.05,5.23,9.28,9.53,14,14.25l12.36,12.36L649.56,124c4.71,4.71,8.93,10.09,14.24,14,9.51,7,12.13,19,21,26.49,8.23,7,17.09,14.16,22.59,23.14,4.74,7.74,12.14,13.29,15.9,20.84s9.37,12.9,14.54,19c1.4,1.64,1,4.84,2.5,6.36,3.44,3.58,3.47,9.62,6.67,12.08,6.83,5.25,7.3,14.39,13.84,19.52a6.74,6.74,0,0,0,8.63.09c5.83-4.77,7.1-12.1,10.68-18.11,2-3.3,4.24-6.78,4.83-10.43.63-4,4-5,5.63-7.73,3.25-5.3,7.28-10.37,9.26-16.12,1.14-3.32,2.51-5.9,4.93-8,4-3.41,6.4-7.14,5.57-12.81-.36-2.4,22.28-44.66,24.44-47.25,1.51-1.81,3-3.42,5.34-.59,2.68,3.18,5.85,5.93,8.77,8.89,8.56,8.7,8.86,12.67,0,22.23-3.2,3.47-4.23,6.81-3.72,11,.64,5.26-6.39,7-5.31,13,.79,4.39,1.83,9.48-3,13.7-4.09,3.55-.09,9.75-1.91,14.08-2.46,5.86-5.71,11-5.05,18,.59,6.37-5.83,10.74-7.4,16.81-.38,1.45-2,2.61-2.26,4-.93,6.2,2.7,13.81-4.8,17.95-5.72,3.16-4.23,10.19-8.67,14.05-2.89,2.52-6.43,4.67-6.84,9.66-.36,4.49-4.76,7.48-5.25,12.9-.52,5.76-4.89,11.15-7.41,16.77a23.44,23.44,0,0,0-2,6.63c-.38,3.15-.81,6.59,3.44,7.94,7.49,2.37,14.32,6.64,23,5.25,4.3-.7,7.4-3.6,10.68-4.32,6.2-1.36,10.45-8.2,17.63-6a3.49,3.49,0,0,0,2.47,0c4.84-2.78,6.58-10.37,13.36-9.77,5.55.49,8.83-4.14,13-4.75,6.93-1,8.51-8.21,13.55-9.68,6.11-1.78,11.36-5,16.83-7.68,4.8-2.33,7.45-7.65,13.89-9,5.76-1.19,10.75-6,16.15-9.06,2-1.14,4.41-1.63,6.26-2.95,7.24-5.16,11.68-13.11,20.2-17.51,7.72-4,13.54-11.69,20.17-17.78,2.43-2.22,4.83-6.47,7.18-6.43,8.07.14,9.61-9.24,15.89-10.07,4.89-.64,7.4-3.55,9.8-6.54,8.28-10.36,19.72-15.79,31.3-21.12,1.19-.55,3.36-1.68,3.39-1.62,2.31,4.17,7.53,2.85,10.31,5.37s2.1,15.6-.91,18.29c-4.68,4.2-7.49,11.33-15.52,10.69-2.47,3.64-6.63,3.92-10.17,5.58s-6.5,5.28-8.85,8.64c-3.1,4.42-8.78,4.11-12,7.19-4.2,4-10.93,2.85-14.21,8.53a23.42,23.42,0,0,1-8.79,8.69c-3.4,1.8-7.19,2.41-10.39,5.3-2,1.78-5.95.86-8.4,3.7a100.13,100.13,0,0,1-12.37,12.34c-4.21,3.43-10,5.19-13.55,9.11-6.64,7.4-14.89,11.73-23.66,15.56-1.41.62-3.07,1-4.15,2-3.66,3.39-6.94,7.21-10.7,10.49-3.53,3.07-5.85,7.13-11.77,8-4,.63-7.84,5.86-10.71,9.78-4.08,5.59-12.09,4.46-15.86,10.43-1.71,2.7-2.32,6.09.33,8.55,2.31,2.14,4.93,5.16,7.63,5.42,5.06.47,9,1.31,13.22,4.87,3.07,2.58,9-.84,13.48,3.65,4.23,4.24,11,1.5,16.62,1.62,3.68.07,5.91,1.56,8.5,3.84,7.08,6.22,16.7,9.56,27.73,11.47,3.66.63,6.87,3.5,10.49,4.73,3,1,7.8,0,9,1.77,2.87,4.13,8.14,1.73,10.56,5.12,3,4.2,7.2,3.11,11.21,3.21,3,.08,4.66-1.53,4.54-4.35-.22-5.11-.15-9.94,4.91-13-2.77-6.63,8-8.58,5.2-15.38-2.36-5.68,6-7.66,4.9-12.89C1008.6,374.49,1013.72,371.19,1017.66,367.15ZM717,427.12c-4.71-.09-7.36,1.16-6.68,5.24.26,1.59-2.53,4.86,2.24,4.85,5.83,0,8.29-1.42,7.49-5.76-.33-1.77-2.24-3.24-9.86,7.91,0-.74.29-1.78-.08-2.15a2.19,2.19,0,0,0-2.11,0c-1.64,1.16-3.7,2.59-.69,4.35C707.72,441.76,709.21,440.13,717,427.12ZM798.57,393c-.57,0-1.52-.23-1.69,0-4,6.26-10.26,3.4-15.65,4.14-6.13.83-10.4,7.67-17.77,5.06-5.85-2.06-9.86,2.43-11.92,6.43-3.82,7.46-6.76,15.4-11.35,22.5,2.38,7.95-3.32,12.07-8.07,16.42-3.33,3.06.3,3.84,1.39,5.28,3.59,4.75,7.7,5.69,10.87,2.55,11.7-11.62,23.33-23.34,35-35,2.88-2.86,5.82-5.69,9-8.27,3.9-3.2,11-11.52,11.69-14.88.25-1.28-.94-2.83-64.86,62.06,0-.74.29-1.77-.09-2.14a2.19,2.19,0,0,0-2.11,0c-1.64,1.16-3.69,2.59-.69,4.35C732.71,461.76,734.21,460.13,798.57,393ZM750.19,600.52c0-9.16-.12-18.32,0-27.47.09-4.85-1.09-11.22,1.46-14.18,3.95-4.58,3.3-9,3.46-13.73.16-5-1.61-10.88.48-14.74,2.22-4.08,3.57-8.75,6.4-12.34,2.09-2.64,10.35-1.09,13.35,1.78,6,5.72,11.89,11.51,17.83,17.27,8.15-.56,10.07,7.63,15.44,11,1.93,9.52,9.94,14.44,15.92,20.87,3.4,3.66,9,6.59,10,10.76,1.14,4.35,2.52,7.9,5.91,10,4.74,3,3.84,8.59,6.93,12.24s8.22,5.58,7.91,11.78c-.12,2.38,2.58,3.56,5.42,3.41s4.59,1.55,4.35,4.5c-.43,5.17.32,9.53,5,13,5.95,4.46,8.11,11.93,9.54,18.36A26.58,26.58,0,0,0,886,665.56c6.41,7.44,14.78,25.67,13.83,34-.77,6.82,8.1,8.78,5.68,15.33,2.2.73,5.27,2.75,6.43,2,3.83-2.62,8.32-5.06,8.34-11,0-7.92-.69-15.58,4.48-23.21,3.12-4.6-2.1-13.2,5.16-17.72.1-6.63.36-13.25.22-19.87-.08-3.47.4-6.27,3.25-8.71,4.61-4-1.36-11.75,5.28-15.36,1-.54,1.43-2.79,1.47-4.27.15-6.65-1.48-13.83.51-19.83,1.86-5.58,3.81-11.87,8.51-16.52,1.34-1.32.79-4.58,1-7,.33-3.2-.62-7.87,1.13-9.34,4.74-4,4.87-9.08,3.62-13.49-2-6.91,6.64-9,5.45-15.52-1-5.56-1.32-11.69,4.81-15.38-.55-5.86.32-10.81,4.64-15.73,2.07-2.36.12-8,.42-12.18.35-4.73,6.79-7.17,5-12.93-1.54-4.87,4.16-6.59,4.9-10.42S978.64,460,982.81,457c3.1-2.21,1.09-3.77-.62-5.29s-3.91-4.52-5.55-4.31c-6.24.8-10.46-3.82-15.54-4.8s-7.29-7.6-12.8-5.38c-6.8,2.73-9-7.57-15.45-5.08-3.14-4.66-7.83-6.27-12.88-4.87-7.27,2-11-6.44-18-5.29-2,.33-4.48-1.07-6.53-2.11-4.83-2.44-9.53-5.13-14.28-7.73-9.52,3.66-16.54-5.66-25.41-4.92-5.3.43-7-6.43-13-5.3-5.63,1.06-11.62.22-17.44.22-.84,0-2-.34-2.44.07a14.55,14.55,0,0,0-2.72,3.72c-1.05,2-1.89,5.93-2.76,5.92-5.11-.09-6.56,1.72-7.71,6.88-.91,4.11-5,7.58-10.55,8.77-3.39.72-8.17,4.63-8.61,7.65-1.26,8.61-8.85,11.35-13.16,17-3.67-.71-5.76,1.88-8.59,3.48-4.84,2.73-1.29,10.89-7.26,11.28-7.08.47-9.25,6.35-13.43,9.92-9.19,7.82-15.91,18.48-27.94,23.1a7.75,7.75,0,0,0-5.14,7.74c.1,1.31-1.35,4-2,3.92-8-.35-10.87,6.64-15.54,10.85a193.58,193.58,0,0,0-15.84,15.93c-1.92,2.19-2.17,7.85-3.7,8.06-10.37,1.39-14.09,10.75-20.72,16.4-7.11,6.06-14.26,22.2-17,35.32-1,4.63-4.26,4-7.51,4-.6,0-1.78,1.48-1.69,1.62,2.5,3.76,5.19,7.44-.69,10.65,4.77,2.61,4,8.33,6.76,12.06,7.74-.21,11.06,6.25,15.54,10.66,16.63,16.34,32.87,33.08,49.58,49.33,8.65,8.4,15.68,18.75,27.81,23.26,2.44.91,5.59,3.52,5.27,7.67-.11,1.33,1.08,3.89,1.9,4,9.24,1.05,12.78,9.53,19.2,14.17,1.63,1.18,5.08,1.76,6.49.82s2.83-5.36,2.07-6.15a16.28,16.28,0,0,1-4.92-13.13c.45-10,.32-20,0-30-.07-2.06-2.44-3.94-3.24-6.09s-1.89-6.07-1.21-6.49c7-4.21.48-7.41-.15-11.23-.93-5.67-.24-11.62-.24-17.44-9-9.86-3.73-21.88-4.92-32.91C749.82,608.89,750.19,604.69,750.19,600.52Zm185,189.2h.08v24.93c8.54,6.15,4,15.16,4.83,22.92s-1,15.61,4.65,23.2c3.28,4.4-2.48,13.12,4.57,17.92.29,7.37.53,14.73.89,22.1.16,3.21-.68,7.94,1.07,9.34,5.79,4.68,3.12,10.61,4,16s-2.47,11.37,2.76,16.36c4.87,4.64.62,11.21,2.4,16.44,1.2,3.54,5,5.57,5.2,10.46.13,3.48,5.26,2.64,8.43,2.6,8.76-.1,17.24.63,25.64-4.56,4.81-3,13.23,2.1,17.75-5.14,6.93,1.64,12.14-2.53,17.78-5.26,1.38-.67,4.06-1.16,4.07-1.78.18-8.91,0-17.82-.08-26.73-5.47-3.19-3.87-8.54-4-13.31-.12-5.82,0-11.65,0-17.47,0-6.65.79-13.43-.22-19.92s4.26-10.2,5-15.46a54.6,54.6,0,0,0,0-17.4c-1.31-7.19,3.79-12,4.89-18,1.33-7.24.06-14.93.39-22.4.31-7.06-2.73-15.06,4.93-20.39V739.3c0-1.66,0-3.33,0-5s-.56-4,.29-4.79c8.42-7.37,4.3-17,4.53-25.58.54-20,.12-39.92.22-59.88,0-4.74-1.65-10.14,3.85-13.36-1.3-3.32-3.52-6.58-3.72-10-.52-9.12-.18-18.29-.18-27.44V568.35c0-9.15-1.17-18.5.32-27.4,1.62-9.61-6.39-16.18-5.62-25.45.51-6.1,2.15-12.74-2.41-18.86-4.73-6.36-1.44-14.29-2.33-21.46a2.9,2.9,0,0,0-1.35-1.89c-6.81-3.4-.83-11.34-5.32-15.25-5.41-4.71-2.4-10.74-3.34-16.14-.25-1.47-.86-3.3-1.94-4.11-4.22-3.18-1-4.78.89-7.22,2.27-3,1.52-8-1.42-8.05-7.11-.17-9.37-6-13.88-9.1-.61-.43-3.3.69-3.29,1.07.06,3.47-.79,6.23-3.63,8.59-3.1,2.58-.65,8.3-5.34,10.22-.8,7-5.05,13.32-5.85,19.89-.94,7.66-1.42,14.42-8.18,19.27a6.39,6.39,0,0,0-2.21,4c-.65,4.79.82,11.16-1.75,14.09-4,4.6-3.2,9.08-3.23,13.77,0,3.49-1.88,5.85-3.1,8.75-3,7.06-9.46,13.19-7,22.06,1,3.65-2.32,5.69-3.57,8.48-2.48,5.57-.6,12.82-6.38,17.31,3.53,11-7.64,19.5-5.1,30.39.32,1.33-.19,3.71-1.15,4.36-8.72,6,1.51,18.63-8.64,24.09-.7.37.09,3.18-.14,4.81-1.2,8.55,3.89,18.34-5,25.38,0,5.82-1,11.87.26,17.41,1.53,6.76-5.26,9.78-5.26,15.45,0,5,.46,10-.13,15-.55,4.56-6.5,7.22-4.93,12.93,1,3.78-3.06,5.56-3.93,8.28-1.12,3.53-1.53,8.82.39,11.4a17.41,17.41,0,0,1,3.7,11.09c.06,5.11-.08,9.69-4.77,13.2-.77.58.55,4.37,1.35,6.5s3.06,4,3.17,6.12C935.4,774.74,935.16,782.24,935.16,789.72ZM572.72,1037l-22.46-22.46c2.73-6.64-7.85-8.69-5.27-15.28-3.91-4.22-7.48-8.7-14.49-7.47-1.79.31-4.45-1.6-6-3.2-1.67-1.75-2.07-1.69-3.76.13a13.26,13.26,0,0,1-6.08,3.2c-3.71,1-6.79-8.86-11.14-.75-5.7.28-11.41.51-17.11.86-1.55.1-3.87,0-4.49,1-4.18,6.25-10.5,4.12-15.88,3.81-6.45-.38-10.65,2.15-14.93,6.52-3.26,3.34-5.43,8.62-11.29,8.66-3,0-4.73,1.55-4.54,4.34.4,6.26-2.47,13.47,4.72,18-.8,4.71,3.38,7,4.87,10.46s.33,8.17.33,12.32c0,2.49-.89,6.6.19,7.21,10,5.66-.22,18.31,8.65,24,.39,9,.81,18,1.15,27,.58,15.28.48,15.83-2.88,22.1a18.85,18.85,0,0,0-2.05,4.12c-.7,2.82,1.41,5.87,3.32,5.23,7.5-2.54,11.66,5,18,5.19,7.48.24,15,.06,22.45.06,19.12,0,38.28.79,57.34-.26,14.3-.8,29.53,5.2,42.84-4.74,5.82,0,11.91-1.1,17.38.27,6.9,1.74,9.23-6.21,15.48-5.44,5.52.68,11.72,1.54,15.45-4.64,7,1.78,11.93-3.25,17.87-4.93,4.58-1.3,7-7.24,12.84-5.31,6.18,2,8.65-7.57,15.44-5.16,1.67.6,5.13-.74,6.27-2.29,5-6.81,11.64-8.34,19.45-7.53,4,.42,6-1.4,5.86-5.6-.07-2.83,1.58-4.57,4.52-4.33,5.17.43,9.5-.34,13-4.91,2.44-3.15,24.67-14.8,28.57-14.93a14.7,14.7,0,0,0,10.78-4.42c4-3.89,6.73-9.55,12.93-10.75,7.23-1.4,9.16-9.56,15-12a50,50,0,0,0,17.21-12.59c3.91-4.2,4.26-15.42.48-20.21-2-2.59-5-4.5-6.94-7.14-6.43-8.65-12.27-12.9-19.15-13-8.31-.12-16.63,0-24.94-.06-3.24,0-8,.86-9.43-.87-5.41-6.42-12.24-3.15-18.42-4.14-10.18-1.64-21.45,4.49-30.72-4.26-.22-.21-2.37,1.31-3.38,2.28-4,3.82-7.42,2.44-10.24-1.27-1.56-2-2-1.93-3.71-.06-1.46,1.62-4,3.2-6,3.09s-3.91-3.22-5.93-3.3c-2.31-.09-6.2,3.1-6.79,2.46-3.14-3.42-6.68-4-11-4-15,.19-29.93,0-44.89.11-5,0-9.38,0-13.31-4.41-2.11-2.37-5.72-.09-8.35,2.39-4.8,4.52-7,10.64-9,16.25C583.35,1025.65,583.77,1025.8,572.72,1037ZM460.24,474.62c-6-6-12-11.84-17.77-17.82-2.75-2.84-3.85-15.25-.73-18.32,3.88-3.83,6.75,1,10.26,2.43,4.29,1.74,9.61,1,14.49,1.17a4.65,4.65,0,0,0,2.13-.85c2.06-1.15,1.63-2-.24-3.6-3.76-3.27-6.88-7.3-10.8-10.34-1.59-1.24-4.85.78-6.69-1.9-.58-.84-13.2-12.88-13.77-13.88-3.13-5.51-3-7.94,2-9.2,6-1.53,10.58-8.25,17.87-5.17,3.28-3.73,8-4.81,12.29-6.52,1-8.5,13.14-16.2,1.54-25.8-1.8-1.49.24-6.86-4-7.54-3.13-.5-7.41-.89-9.49.77a18.91,18.91,0,0,1-10.88,4.36c-3.6.36-7,3-10.44,4.75-11,5.73-23.53,9-32.19,18.85-1.09,1.24-13.5,13.36-13.53,14-.13,3.29.89,7.24-.58,9.7-1.28,2.12-7.51,2.13-7.84,3.8-1.35,7-8.78,11.75-6.67,19.85,1.12,4.33-.77,7.79-4.23,10.74-3,2.57-6.81,5-5.7,10.09-5.46,3-4.49,9.81-8.25,14.18-3.35,3.91-4.42,9.73-6.79,14.56S344,492.07,345,498.38c.25,1.62-2.39,4.09-4.19,5.57-6.35,5.23-6.61,14.8-14,19.32-1,.61-1.69,2.93-1.43,4.25,1.12,5.71-1.9,9.18-5.63,12.77-3.48,3.34-6.34,7.32-9.48,11,2,9-4.82,13.39-10.11,18.25s-5.7,13-12,17.78c-3.91,3-6.94,9-7.48,14-.88,8.08-12.42,9.22-10.53,18.29.1.45-1.16,1.73-1.66,1.67-8.05-1.05-7.66,6.3-10.23,10.43-4,6.37-3.27,9.54,3.08,13.68,3.88,2.53,8.64,3.11,12.2,7s6.14,10.38,13.37,9.65c2.44,3.81,4.41,8.06,7.42,11.34,6.76,7.36,15.43,13.33,20.73,21.54,5.82,9,17.78,3.49,22.74,12.12,5,0,10.19.86,14.94-.22,6-1.37,7.74,5.69,13,5.28,4.14-.32,8.48.66,12.45-.23,5.86-1.32,7.57,5.83,13,5.28,4-.4,9.68-1.32,11.91.82,4.25,4.07,8.69,4.78,13.46,3.91,5.74-1,8.52,3.87,13,5a5.27,5.27,0,0,0,4.38-1.16c2.67-2.86,6.73-4.7,6.5-9.79-.34-7.48-.09-15-.09-22.49s.86-15.11-.23-22.45c-1.17-7.9,4.05-13.58,5.06-20.47.84-5.71.17-11.64.17-17.47s1.1-11.94-.28-17.42c-1.73-6.91,6.27-9.24,5.44-15.51-.76-5.73-.16-11.64-.16-17.47,0-5,.8-10.16-.2-15-1.36-6.54,4.39-10.16,5-15.48.7-5.74.16-11.64.16-17.47,0-5,1.13-10.34-.26-14.91-2.13-7,6.76-8.56,5.65-15.56C459.08,494.64,460.24,484.48,460.24,474.62ZM867.62,982c8.33,0,16.87-1.15,24.92.35,7,1.31,8.51-7.41,15.57-5.67,6.28,1.55,13.24.32,19.9.32,2.5,0,5,.05,7.5,0,3.89-.09,4-1.78,4.89-6.75,1.06-5.93-5-8.14-5.2-13-.16-5,0-10,0-15,0-4.16-.8-8.53.19-12.44,1.53-6-4.94-7.92-5.34-13-.52-6.41,2.92-13.5-1.81-19.15-5.61-6.68-1.58-14.29-3.16-21.24-.49-2.14-3.67-4-3.6-5.89.32-8.27-6.2-14.35-6.44-22.48-.16-5.46,2.64-11.47-2.54-16.41-5-4.73.14-11.92-2.66-16.27-3.29-5.11-5.91-9.79-4.53-15.63,1.7-7.14-3.53-12-4.8-18-1.35-6.38-.7-13.29-.18-19.91.43-5.4-1.19-9.51-5.12-12.94,1.85-5.67-6.65-7.68-4.88-12.88,2.31-6.76-6.64-9.56-5-15.43,2.23-8-2.65-14.24-5.59-20.21-2.59-5.23-5.14-9.68-4.63-15.67a12.18,12.18,0,0,0-1.6-6.76c-2.4-4.08-9.07-5.82-8.1-11.54,1.35-8-3.81-9.2-9.14-10.94a2.06,2.06,0,0,1-.26-1.65c4.82-3.2,3.41-5.88-.31-8.95-3.1-2.56-6.71-5.16-5.47-10.19-4.81-2.61-4.13-8.38-7-12.1-5.23-6.85-15.55-10.6-13.18-22.13.21-1-1.61-2.65-2.72-3.76C815.57,585,803.77,573.21,792,561.41c-2.3-2.31-4.32-4.87-8.22-4.35-3.13.41-3.63-6-7.29-3.51-2.57,1.73-5.48,4.56-6,7.33-.93,4.71-1.18,8.86-4.15,13.46-2.68,4.14-1.06,11.15-1.1,16.9-.09,12.49-1,25.1.42,37.43.66,5.6-10.18,10.61-.47,15.91,0,5,.88,10.18-.2,14.93-1.36,6,5.45,7.76,5.31,13-.24,9.11.09,18.24.18,27.37,9.31,8,3.25,18.68,4.46,28.06.44,3.41,8,4.48,2.66,9.33-5.17,4.66,4,5.37,2.73,9.45-1.23,3.93,3.59,5.13,4.73,7.94,1.47,3.64-1.62,8.09,1.84,11.78a11.43,11.43,0,0,1,3.17,6.09c.72,7.12,11.14,7.73,10.28,15.85-.13,1.19,1.51,2.69,2.55,3.86,1.66,1.86,3.51,3.56,5.27,5.32,4.13,4.13,9.14,7.68,12.19,12.48,7.06,11.13,15.88,21.72,14.93,36.3a28.72,28.72,0,0,0,1.21,9.46c6,21.32,6.1,21.31-6.67,34.15-2.94,3-5.55,6.36-8.9,8.74-7.51,5.33-6.83,13.32-5.23,20.06,1,4.17,6,7.78,4.4,13-2,6.6,5.49,10.14,4.85,15.42-1,8.59,8.4,14.12,5.65,22.78,3.7,2.44,3.74,6.8,5.56,10.16,2.35,4.31,7.58,1.59,11.49,1.83C854.27,982.34,861,982,867.62,982ZM358,1052.12c9.85-10,20.05-19.74,29.57-30.15,3.84-4.2,7.82-5.38,13-5.05,1.34.09,4-1.25,4-1.88-.2-6.82,5.57-9.52,8.89-13.93,1.27-1.69,2.15-6,1.53-6.41-4.77-2.91-3.54-9-7-12.25-5.26-4.92-.27-11.92-3.05-16.2a69.93,69.93,0,0,1-11-33c-5.12-2.4-2.41-9.16-7-12.18-3.34-2.21-1.17-7.54-5.24-10.38-4.28-3-.09-8.89-3.38-13.53-4.85-6.86-7.27-15.12-9.66-23.47-2.28-8-9.49-14.46-8.45-23.91-5.84-3.74-4-10-5.47-15.27-1.36-5-5.89-9.13-8.39-14s-3.43-10.39-6.32-14.82c-3.2-4.91-5.94-9.49-4.81-15.54-5.28-3.18-4.42-9.84-8.15-14.22-3.36-3.93-4.92-9.52-6.77-14.57-1.6-4.38-6.64-7.13-5.83-12.58-5.32-3.15-2.58-9.26-4.62-13-3.32-6.12-7.15-12.18-9.29-18.66-1.48-4.49-4.59-6.75-7.38-9.4-8.76-8.29-15.84-18.37-27.72-23.4-5-2.11-8.39-7.91-12.51-12-7.13,1-9.45-5.53-13.84-8.82-3.16-2.36-12.9-2-13.25.78-1.07,8.81-6.47,12.08-14.07,13.9-2,.49-1.62,2.08.43,3.47,3.05,2.08,4.7,6,2.29,8.29-5.5,5.2-6.23,9.79.18,13.91,6,3.85,4.24,12.39,10.52,15.72-2.18,7.05,3,12,4.86,18,1.4,4.47,6.9,7.07,5.23,12.89-1.73,6.05,6.81,8.53,5.37,15.49-.78,3.8,3.28,8.42,4.46,12.85s-2,10,3,13.75c4.78,3.58-.78,10.34,3.65,13.36,4.62,3.15,2.87,8.79,6.65,12.54,3.55,3.52,6.65,9.69,6.35,14.47-.59,9.63,4.59,16.54,8.08,24.34,3.17,7.08,7.83,13.39,7.74,21.94,0,3.09,6.23,5.54,4.55,10.4-2,5.91,4.75,7.83,5.33,12.91s5.68,9,5.08,15.48c-.39,4.19,5.25,7.23,5,12.9-.18,4.23,2.14,9.23,4.83,12.75,3.71,4.83,5.69,9.56,4.83,15.57-1,7,.22,13,6.66,17.32a8,8,0,0,1,3.13,6c-.51,7.8,4.74,13.23,7.88,19.27,2.1,4.06,1.8,9.66,6.73,12.26,4.77,2.52,4.14,8.89,7.33,11.75,4,3.61,3.17,8.74,6.4,12.69S352.66,1048.64,358,1052.12Zm-20.63-330c-4.35,0-8.52-.18-12.67.1-1.4.1-2.73,1.35-4.1,2.07,1.89,1,3.8,1.84,5.65,2.85,1.37.74,3.73,1.54,3.81,2.46a73.16,73.16,0,0,1,.07,14.94c-.65,5.07,2.09,8.07,5.48,10.2,4.73,3,3.46,9,7,12.12,3,2.6,2,5.87,2.76,8.92,1.09,4.45,4.78,8.75,4.51,12.93-.49,7.38,5.2,9.76,8.51,14.14.89,1.19,2,3,1.7,4.18-2.11,7.23,6.29,11.13,5.4,17.84,6.4,3.5,3.4,10.29,5.48,15.22s5.82,9.22,8.56,14c.74,1.27.46,3.12.7,4.69.7,4.65-1.65,9.62,2.75,13.94,2.61,2.57,3,7.36,5.6,10,4.08,4.16-1.4,10.35,3.44,13.59,4.5,3,2.62,8.87,6.79,12.39s-1.54,11.78,5.5,15c.7,6.27,1,12.66,5.91,17.53-3.23,8,7.61,12.56,5,20.41,4.88,8.78,7.56,18.7,13.84,26.73,3.26,4.18,11.77,5.6,15.13,2,5.26-5.64,10.78-9.8,18.94-8.71,3.79-6.33,10-4.34,15.59-4.57,6.38-.25,10.5-8,18-5.13,2.18.83,5,.21,7.45.1,3.43-.14,10.25-5.15,11-8.29.93-3.76-1.4-6.24-4.07-8.25-6.07-4.57-9.11-11.72-10.3-18.11-1.15-6.13-3.86-10-7.06-14.76-5.55-8.26-11.18-17.14-13-26.89-1-5.1-4.75-8.36-5.28-12.85-.66-5.63-7.33-8.73-5.35-15.44,1.47-5-7.11-7-4.84-12.87-8.43-4.5-1.8-16.22-10-20.83-1.05-5.47,2.38-11.44-2.31-16.55-5.09-5.55-1.79-12.56-2.65-18.85s-7-10.36-5.37-18c1.54-7.16.54-14.93.2-22.4a9.34,9.34,0,0,0-2.89-6.17c-4.26-3.48-6.67-8.59-13.28-10.24-5.07-1.26-9.52-5.71-15.55-4.43-6.89,1.46-10.65-6.05-17.95-5.44-7.57.63-16.72,3.89-22.87-4.59-5.54-.88-11.94,2.48-16.59-2C350.13,719.47,343.34,723.55,337.36,722.08Zm117.88-46.35c0,15,.21,29.94-.12,44.91a9.79,9.79,0,0,0,6.27,9.64c6.55,2.23,11.8,8.61,19.66,6.79,8.56-2,15.68,2.56,22.35,6.18,6.16,3.34,13.15,5.41,18.54,9.25,5.79,4.13,13.87,4.42,17.92,11.5,3.29,5.74,9.65,7.9,15.33,10.88,3.11,1.63,5.79,3.48,8.54,1s2.19-5.81-.64-8.41c-1.79-1.64-3.13-2.94-.56-5.42,1.51-1.46,2.18-4.09,2.63-6.31,1.24-6.22-1.85-12.87,2.66-18.9,4.82-6.46,1.49-14.28,2.44-21.43a3.08,3.08,0,0,1,1.18-2c5.49-3.32,1.69-10.1,4.16-13.13,4.11-5,5.82-10,4.44-15.66-1.47-6,5.47-7.73,5.27-12.94-.24-6.38-1.15-13,4.73-18.1,1.23-1.08.44-4.82.08-7.26-.22-1.43-1.44-3.87-2.21-3.87-7.08,0-14.44-2.59-20.49,4.52-3.38,4-9,6.08-13.6,9-3.2,2-5.6.87-8.61-1.17-5.85-4-4.73-11.8-9.79-16.16-.65-.55.75-4.67,2.2-6.2,2.1-2.21,3.53-5.28,7.67-5.51,7.57-.43,9.27-11.05,18.07-10.86,2.43.06,2.8-15.25.18-18.09-3.37-3.67-6.61-7.69-10.66-10.46-4.21-2.87-.32-13.43-10.16-10.44-1.18-2.84-1.7-6.33-3.71-8.34s-5.5-2.53-8.34-3.71c1.39-8.84-9.18-10.53-10.7-18.07-1-5.11-4.53-9.72-6.92-14.55-10.26,2.24-7.13-8.67-11.75-12.41s-12-6.79-11.07-15.13c-4-2.38-7.71-6.2-11.9-6.77-5.39-.73-1.38,6.61-5.18,8.75-4.46,2.5-2.48,7.28-2.95,11.19-.44,3.67-8.27,7-.48,11-1.43,3.43-5.21,5.39-4.68,10.22.62,5.65-.8,11.64,5.2,15.37-.85,3.87,1.74,8.14-1.73,11.8a11.34,11.34,0,0,0-3.14,6.1c-.8,7.86,2.11,16.46-5.13,22.87,0,8.32,0,16.63,0,24.95,0,1.59.24,4-.63,4.62-6.89,4.92-4,12-4.24,18.26C455,654.09,455.24,664.91,455.24,675.73ZM716.12,897.06c5.07,0,7.73.54,10-.16s3.7-3.1,5.83-3.92,4.74-.52,7.09-1c6.63-1.21,8-4.61,4.23-9.45-2.9-3.7-7.62-5.69-8.36-11.55-.54-4.35-6.25-7.28-4.81-12.93a6.3,6.3,0,0,0-1-4.49c-3.1-4.52-9.16-6.66-9.28-13.76,0-2.41-4.25-4.72-6.48-7.14-2.76-3-6-5.72-8-9.16-2.3-3.92-3-8.76-5.28-12.71s-3.65-9.16-6.43-12.11c-3.59-3.82-2.31-9.27-6.55-12.53-3.69-2.83-8.22-5.87-7.14-11.88-5.77-4.59-5.12-13.67-12.3-17.35-6.26-3.21-7.33-10.17-10.5-15.57-2.77-4.71-4-10.11-8.69-14-2.73-2.25-3.4-6.83-5.53-10-2.24-3.32-7.6-6.5-7.27-9.23,1.12-9.22-5.26-13.24-10.27-18.39-2.84-2.93-6.16-5.37-5.54-10.33.07-.54-5.07-2.92-6-2.19-6.81,5.42-15.37,9.94-13.77,21.06.16,1.15-1.44,2.77-2.54,3.84-4.82,4.69.63,13.53-6.95,17.13-.39.18-.22,1.49-.38,2.27-1.7,8.62,2.82,17.54-2.87,26.27-5.13,7.87-1.06,17.62-2.16,26.45-.28,2.31-.25,5.58-1.67,6.65-5.17,3.86-2.15,9.21-3.42,13.67-1.69,5.94,5.52,7.67,5.22,12.92-.32,5.74.11,11.53.21,17.3,7.68,5.46,2.68,17.86,12.25,22.41,1.17.56,2,2.46,2.38,3.9,2.08,8.73,10.32,12.29,15.28,18.59,3.15,4,8.79.39,11.25,2.58,4.86,4.34,12.36,3.72,16.11,9.67,1.27,2,3.36,4.53,5.35,4.82,4.89.7,10.11,1,14.87,0,6.55-1.39,8.57,7.46,15.49,5.45,4.59-1.34,10,.5,14.84-.41C702.67,890.11,710.39,894.68,716.12,897.06Zm-79.9-534.92c23.28,0,46.57-.28,69.84.2,5.81.12,8.64-3.15,12.67-5.89,5.88-4,6-11.07,10.15-16,2.92-3.47,2.2-8.76-1-13.36-4.92-6.95-13.22-8.78-19.31-13.91-2.79-2.35-5.95-1.18-8.48,1.55-1,1.09-2.59,2.27-4,2.33-5.81.26-11.63.11-17.45.11h-15c-5.82,0-11.73-.63-17.43.19-4.62.67-8.86-9.57-13.4-.31-1.79-1.63-3.45-4.45-5.39-4.66-5.75-.62-11.82-1.17-17.39,0-7.33,1.56-11.09-5.45-17.93-5.55-10.18-.14-21.39,4-30.36-4.68-5.82,0-11.9-1.07-17.4.26-7.48,1.81-10.65-7.32-18-5.46-4.65,1.19-9-.26-13.38-3.86-3.78-3.07-11.48.73-15-5.66-5.55-.42-11.73,1-15.28-5.28-5.82,0-11.64.12-17.45-.08-1.44,0-3.4-.66-4.19-1.72-4.83-6.5-15.17.08-19.11-8.2-8.05,3.45-12.9-5.34-20.39-5.3-4.29,0-8.5-3.39-12.93-4.54-2.11-.55-5.32-.21-6.85,1.1-2.87,2.46-2.45,5.94.58,8.29,4.06,3.15,2.57,7.4,2.85,11.33.23,3.15-.89,6.59,2.37,9,8.74,6.48,10.58,17.24,15.74,25.92,3.54,6,2.67,11.94-1.75,20.12-.89,1.67-1.53,3.32.69,3.43,5.55.26,11.15-.37,16.73-.65,5.8-8.74,18.53,1.58,23.8-8.64q2.64,2.28,5.29,4.55c3.91-7.44,7.27-.43,11,.22,3.53.62,6.29.87,6.16,5.45-.18,6.65.83,13.45-.28,19.92-1.25,7.32,5.72,11.17,5.87,17.73.05,2.19,2.15,2.34,3.35.57,2.06-3.05,4.89-4,8.53-3.59,3.29.33,8.39,1.45,9.67-.17,5.83-7.4,13.69-3.73,20.57-5,5.35-8,13.56-3.59,20.49-4.73,1.58-.26,4,.24,4.63-.63,4.89-6.93,12-4.19,18.24-4.28C596.3,362,616.26,362.14,636.22,362.14Zm-46,556.26c0-10.81-.44-21.64.14-32.42.43-8-2.36-13.49-7.55-19.56-3.91-4.58-5.9-11.06-10.9-15.32a5.26,5.26,0,0,1-1.58-4.21c1.88-8.49-8.45-14-5.3-23,.61-1.73-.59-5.49-2.08-6.33-7-4-6.81-12.55-12.15-17.61-10.26-9.72-20-20-30.13-29.83-1.57-1.53-4.42-3.32-6.11-2.87-7.43,2-11.1-5.4-17.54-6.43-4.95-.79-9-6.29-14-8.14s-11.38.6-15.43-5.35c-.8-1.18-4.73-.45-7.18-.22-1.48.14-4.12,1-4.14,1.56-.27,8.9-.2,17.81-.21,26.71,7.34,5.72,3.77,13.79,3.88,20.74.09,6.35,1.69,11.12,6.67,14.79,2.91,2.15,3.64,4.88,3.75,8.49.18,5.59-2.49,12,1.68,16.62,3.89,4.27,3,10.93,8.17,14.16-1.81,5.65,6.68,7.65,4.88,12.86-2.35,6.76,4.28,9.9,5.68,15.28,1.32,5.07,5.62,9.5,4.42,15.53-.94,4.71,1.57,7.71,4.81,10.5s6.34,5.4,5.3,10.26c7.94,8.83,8.63,22.42,19.39,29.39.77,9.26,8.89,13.15,14.16,19,7.35,8.2,17.19,2.39,25.78,3.82,4.85.81,10,.25,14.94.12,4.83-.13,10.55-6.13,10.59-11.21C590.28,943.34,590.22,930.87,590.22,918.4ZM492.36,442.13c-1.66,0-3.33,0-5,0-6.74.09-5.91.63-7.41,6.74-2,8.23,5.26,13.25,5.27,20.45,8.1,5.82,10.31,16,17.32,22.84q39.24,38.38,77.55,77.71c4.74,4.89,10.88,6.51,15.69,10.5,3.93,3.27,3.5-.57,4.39-2.14,1.1-2,2-5.89,2.82-5.84,8.38.51,10.54-7.3,15.39-11.22,5.79-4.68,10.8-10.35,15.91-15.82.9-1,.22-3.27,1-4.52,2.48-4,5.66-7.38,5.09-13-.68-6.83,6.83-8.62,9.78-13.34a3.66,3.66,0,0,0,0-2.45c-1.85-8.06,5.22-12.82,7.32-19.47,1.59-5.06,7.46-9.67,7.18-14.22-.49-8.06,3.94-12,8.42-16.76,3.2-3.42,3.6-8.39,6.62-12.36,2.4-3.17.6-9.62.33-14.6,0-.56-3.06-1.66-3.23-1.42-5,6.81-12.33,4.11-18.42,3.6-7-.59-12.22,2.43-17.95,5.22-10.61,5.17-10.7,4.85-17.85,5.11s-14.77-1.95-20.61,4.77c-.6.69-4.73-.63-6.28-2.05-3.61-3.28-6.81-4.18-10.39-.35s-6.83,3.53-10.36-.05c-.76-.77-3-1.42-3.35-1-2.33,2.62-4.82,4.29-8.53,3.7-8.52-1.37-18.35,3.91-25.38-5-10,0-20,0-29.94-.08-.6,0-1.28-1-1.76-1.68C502.38,440.34,497,442.7,492.36,442.13Zm282.2,444.93c2.5,0,5,0,7.49,0,7.24-.06,10.15-3.66,8-10.77-1.08-3.64-4.21-6.84-4.71-10.47-1.52-11,2.93-22.88-5.18-32.86,0-5.82-.66-11.74.17-17.45,1-7-7-10.63-5.43-18,1-4.68-5.4-18.52-8.22-21.4-4.66-4.75-9.4-9.43-14.11-14.13s-9.72-9.16-14-14.2c-4.67-5.44-11.12-9-13.72-16.78-1.94-5.78-10-6-14.58-10.83-23.54-24.69-48-48.52-72.11-72.65-1.77-1.76-3.26-4.45-5.36-5.07a17.31,17.31,0,0,0-9.8-.16c-3.78,1.26-3,5.41-2.66,8.52a12.6,12.6,0,0,0,2.62,6.34c3.11,3.65,2,9.64,7,12.13-.52,4.61,1.79,8.05,5.36,10.19,4.78,2.87,3.41,9.48,7.13,11.95,7.31,4.83,7.25,14.29,13.89,19.45,5.86,4.55,11.25,10,8.92,18.7,5,2.45,4.12,8.38,7,12,5.39,6.75,15.43,10.6,13.2,22.16-.29,1.49,2.81,3.71,4.46,5.48,3.38,3.62,6.85,7.16,10.28,10.73-1.06,8,7.88,9.74,10,15.81,1.81,5.06,3.29,10.52,6.33,14.8,3.78,5.33,9,9.64,13.62,14.39-1.39,4.94,3.64,6.84,4.92,10.44,2.93,8.24,6.28,16.06,12.91,22.2,1.47,1.36,2,4.3,2,6.52,0,3.46.41,6.31,3.31,8.71,2.51,2.08,6.21,4.56,6.46,7.15.5,5.14,1.83,7.61,7.24,7.08C769.55,886.86,772.06,887.06,774.56,887.06ZM605.22,925.45c0,11.62.19,23.25-.09,34.86-.13,5.5,2.33,6.29,7.21,7.12,3.36.57,5.47,5.23,10.46,4.79,7.41-.67,14.93-.18,22.4-.18h47.32c8.3,0,16.92,1.4,24.82-.38,8.45-1.9,13,5.67,20.43,5.51,17.43-.39,34.87-.21,52.3,0,3.08,0,4.6-1.32,5-3.91a6.2,6.2,0,0,0-.92-4.51c-2.68-3.15-7.36-5.52-8.3-9-1.14-4.16-3.68-6.92-5.29-10.35-1.27-2.68-1.15-6-3.83-8.41-2.87-2.65-1-7.82-5.27-10.31-3.06-1.78.7-9-6-8.55-5.18.37-6.9-6.48-12.93-5.27-5.59,1.11-11.57.23-17.38.23H717.75c-6.64,0-13.57-1.19-19.85.32-7,1.69-8.49-7.58-15.5-5.53-9.92,2.91-18.43-2.48-26.87-6.93a26.89,26.89,0,0,0-6.3-2.78c-4.59-1-10.16,2.12-13.86-2.54-3.81-4.82-10.38,0-13.32-3.63-3.44-4.25-9.3-2.59-12.32-6.81-2.58-3.61-4.32-.38-4.37,1.43C605.07,902.2,605.22,913.83,605.22,925.45Zm114-638.3a13.78,13.78,0,0,1,2.49,0c6.81,1.32,12.3-1.54,18-4.77,1.91-1.09,5.23-1.1,5.31-3.55.12-3.84,1.51-8-2-11.59-3.24-3.33-7.18-5.81-8.28-11.57-.79-4.1-6.12-7.33-9.43-10.94,2.06-5.77-4.83-7.77-5.25-12.83-.63-7.41-11.37-9.3-10.74-18,.08-1.08-2.24-2.28-3.34-3.52-8-9-18.06-16-23.28-27.71-2.52-5.67-8.78-9.84-13.79-14.19s-3.82-12-10.32-15.92c-5.53-3.31-9.57-9.11-14.27-13.81l-7-7c-7.64-7.63-16-14.67-22.7-23.07-6.8-8.56-17.58-11.2-24.67-19.11s-15.33-15.21-22.75-23c-4.53-4.78-11-5.74-16.21-9.16-.86-.56-3,.41-4.36,1.14-1.58.89-.53,1.83.74,3.56,1.77,2.41,2.16,5.77,3.74,8.36,2.84,4.68,10.12,6.38,9.18,13.65,4,3.13,4.22,8.29,6.7,12.15,3,4.59,9.51,6.88,8.68,13.88a62.5,62.5,0,0,1,12.58,17.18c6.62,13.11,10.8,27.77,22,38.24-.83,7.26,8.53,8.85,8.88,13.6.57,8,7.22,6.92,10.67,10.31,2.19,2.16,5.8,3.52,5.48,7.66-.39,5.07,6.8,7.06,5.35,12.85-.21.83,2.16,2.3,3.33,3.48,5.29,5.28,10.14,11.12,16,15.71,6.62,5.2,9.29,12.86,14.07,19.15,3,3.93,7,7.07,10.46,10.67,2.73,2.85,5.07,5.51,6.35,9.88,1,3.26,7.34,4.73,10.88,7.52a9.49,9.49,0,0,1,3.36,5.95c.26,3.06,1.57,4.58,4.22,4.82C712.53,287.38,715.87,287.15,719.19,287.15ZM190.28,651.37c0,1.76,0,3.42,0,5.08.11,4.78,3.92,7.27,8,5.06s8-4.67,12-7c-2.08-7.82,4.6-6.77,8.57-8.46,1.52-8.7,8.7-13.22,14.08-19.08,7-7.66,15.87-13.73,19.61-24.27.86-2.43,4.66-4.62,7.5-5.31,2.68-.66,4.3-1.42,5.24-3.9,1.63-4.31,2.64-9.05,5.16-12.76,3.17-4.69,8-8.2,11.35-12.81,4.12-5.76,6.38-12.8,12.35-17.35.95-.72,1.18-2.95,1.05-4.43-.39-4.37.43-8.14,4.29-10.7,7-4.66,6.31-15,14.06-19.12.69-.37,1.76-1.37,1.63-1.72-2.37-6.61,7.75-8.75,5.41-15.27,4.94-2.48,3.29-9.09,7.1-11.93,6.72-5,8.33-11.51,7.75-19.36-.14-1.88,1.87-5.61,2.86-5.6,5.31.07,7.72-1.94,6.95-7.24-1.09-7.49,8.7-12.22,5.19-20.42-.13-.31,2.24-1.88,3.59-2.59,4.56-2.43,7.66-8.47,6-12.59-.31-.76-3.12-1.45-3.26-1.23-3.13,5-13.45,2.6-12.24,12,.07.5-1.16,1.73-1.66,1.67-7.12-.87-9.87,5.14-13.69,9s-10,6.54-8.91,13.68l-10,5.38c1.3,6.26-3.77,9.51-7.51,11.52-3.36,1.81-7.17.82-7.74,6.71-.63,6.37-10.28,7.73-10.09,15.82.05,2.35-3.68,5.46-6.37,7.07-7.49,4.5-7.49,14-13.89,19.34s-13,10.88-17.36,17.71c-3.41,5.33-6.18,10.89-10.79,15.45-1.42,1.41-.57,5.17-2,6.48-5.45,4.94-5.65,13-11.92,17.81-3.81,2.93-6.18,9.13-7,14.21s-.89,9.54-5.56,12.77c-7.09,4.9-11,11.63-10.57,20.49-5.38,3.14-3.14,8.68-4.49,13.12S188.63,645.89,190.28,651.37Zm372-219.24c3.32,0,8.12,1.41,9.71-.25,6.88-7.18,15.38-3.53,23.09-4.84,9.3-1.57,20,4.71,27.85-4.91,6.65,0,13.69-1.39,19.85.34,8.49,2.39,12.94-6.13,20.46-5.48,4.66.4,9.39,1.15,13.57-3.51,3.58-4,11.76,1.53,15-5.47,7.41-.18,9.21-4.34,8.59-11.06-.17-1.87,2.32-3.91,3.41-6,2.72-5.11,1.42-8.82-3.12-8.83-19.11-.05-38.22,0-57.32,0-5.61,0-11.24,1-15.76-4.53-1.35-1.66-8-1.78-9.29-.21-5.2,6.34-11.83,4.31-18.16,4.8-8.06.64-17.07-2.87-24,2-7.84,5.48-16,1.33-23.64,3.33-1.39.36-2.21,2.58-3.62,3.27a3.69,3.69,0,0,1-3.38-1c-3.17-4-8.08-3.64-11.29-2.34-5.09,2.08-9.34,5.31-15.52,5-3.48-.19-6.07,4-10.2,5.28s-7.67,5.21-13.07,4.5c-5-.65-6.57,4.34-9.5,6.91-2.13,1.87-.59,6.56,2.39,8,2.07,1,6.26,1.47,6.26,2.21.05,6.4,2.87,8.13,9.08,8,8.65-.14,17.65-2.27,25.61,4.49,2.05,1.75,8,1.73,11.12-2.29,2.34-3,6.11-3.9,8.31-1.08C552.59,433.41,557.51,431.84,562.25,432.13Zm-241.9-183c-.18-1.34.79-7.65-1.9-10.43s-7.93-4.21-12-6.48c-8.06-4.52-17.38-5.84-25.83-9.69-4-1.84-9-.92-13-5-2.41-2.45-8.59,1.79-11.29-2.09-3.15-4.52-8.93-2.57-12.53-6.58-1.93-2.15-7.47-1.28-11.37-1.24-.74,0-1.84,2.44-2.13,3.89-1,5.23,6.37,7,5.14,12.87-1,4.77-.26,9.91-.14,14.88a2.77,2.77,0,0,0,1.46,1.82c5.06,2.47,2.65,8.8,6.69,12.4,2.26,2,.07,9,2.32,11,4,3.62,3.67,8.71,6.63,12.41a18.35,18.35,0,0,1,2.79,6.27c2.33,7.85,6.8,17.61,11.39,22.59,2.34,2.55,3.87,4.79,3.76,8.48-.19,6-2.28,13.61,8.11,13.74.61,0,1.19,2.64,1.78,4.05,4.72,11.34,11.56,21.63,16,33.15,1.17,3,4.27,6.92,9.31,7,3.36.06,4.61-1.87,4.63-9.37,0-12.43,0-24.86,0-37.29,0-3.32-1.4-7.79.23-9.75,9.15-11,2.91-23.71,4.7-35.43.49-3.24-1.33-8.1.33-9.67C321.16,265.4,320.1,259,320.35,249.16Zm79.84,78.46c.74-5.45-.45-9.92-4.94-13.1,2.19-5.78-5.63-7.61-5-12.84,1-8.93-8.94-15.73-5-25.27-4.45-5-4.58-11.36-6.17-17.39-.76-2.86-4.16-7.21-9.21-6.87-4.14.28-7.92.19-11.06-3.59-1.15-1.38-4.42-1.18-6.75-1.36-5.12-.4-6.56.74-6.83,4.56-.57,8.09,3,17.49-1.78,24-5.38,7.27-2.33,14.22-3,21.2-.79,8.21-.18,16.55-.18,24.83,0,.83.34,2.13-.05,2.42-5.41,4-5.29,9.55-5,15.4s.06,11.6.06,17.39c0,6.63.09,13.26-.07,19.89,0,1.45-.53,3.51-1.55,4.23-6.7,4.68-.22,14.9-8.24,19.23-1,.56-.1,4.71-.15,7.19-.07,3,1.51,4.53,4.31,4.55,1.48,0,3.89-.34,4.3-1.25,2.92-6.39,4-14.37,13.9-13.67,5.85-5.86,10.8-13.48,17.81-17.12,8.18-4.25,14-10.46,20.62-16.18,3.52-3,3.53-6.7,4.33-10.74,1-5.14,3.07-10.65,6.35-14.6A13.74,13.74,0,0,0,400.19,327.62Zm40.05,774.08c-1.51-7,3.83-16.12-5-22.19v-15c-6.13-3.69-5.55-9.75-4.89-15.4.8-6.84-8.78-10.23-5.32-18,.94-2.11-1.52-4.47-4.58-4.06-6.35.86-15.45-3.72-16.37,8.34-.05.71-4.24,1.42-6.54,1.57-3.25.21-7.21-.51-7.17,4.23.05,5.08-4.21,6.69-6.6,9.8-4.38,5.73-14,9.24-12.9,16.79,1.07,7.09,7,13.48,9.51,20.88.72,2.14,2.92,3.83,4.61,5.57q6.09,6.27,12.35,12.37c5.32,5.18,9.92,12.31,16.31,14.85s14.76.64,22.26.54c2.82,0,4.37-1.6,4.34-4.59C440.21,1112.4,440.24,1107.41,440.24,1101.7ZM820.35,860.32c.32-6.76.35-13.28-6.63-17.3-1.38-.8-3.58-2.69-3.35-3.41,1.93-5.93-5.6-7.72-5.26-12.94.32-4.83-3.58-5.22-6.7-4.45-4.09,1-2.66,5.06-3.35,8.06-1.32,5.72,5.87,7.41,5.27,12.91-.64,5.74-.26,11.61-.12,17.42.18,7.16,6.87,12.15,15.32,11.37,1.43-.13,3.77-1,4-2C820.2,866.88,820.13,863.56,820.35,860.32ZM260.27,905.66c.08,1.32-1.26,6.87.88,9.11,4,4.2,5.21,8.71,3.9,13.29-1.95,6.8,6.23,9.37,5.23,15.36-1.12,6.69,1.39,12.17,4.67,18,1.62,2.85,1.59,5.87,5.85,5.71,3.86-.14,5.6-3.32,4.37-9.41a13.5,13.5,0,0,0-3-6.12c-4.46-4.89,1.69-13.86-6.79-17.22-.57-.23-.45-3.23,0-4.76,2.05-7.05-2.22-12.26-5.13-17.75s-6.4-10.88-5.4-17.66c.07-.49-1.09-1.16-1.67-1.74-.95,1-2.53,1.93-2.73,3.08C260,897.9,260.27,900.43,260.27,905.66Zm94.64-678.5a42,42,0,0,0,7.36-.14c.93-.17,1.56-2,2.33-3-7.48-3.5-2.94-11.57-6.49-17.08-4-6.18-8.82-12.68-8.19-21.28.16-2.26-3.8-4.84-5.94-7.21a3.61,3.61,0,0,0-1.64-.74c-.77,1.31-1.86,2.65-2,4.06s.38,3.42,1.37,4.22c3.1,2.5,3.9,4.46.21,7.16a4.76,4.76,0,0,0-1.55,4.1c.63,2.13,2.12,4,3.4,5.95,2.69,4-4.56,5.29-2.85,6.72,4.48,3.77,4.33,8.24,4.38,13.14,0,2.66,1.63,4.35,4.65,4.13C351.63,227.07,353.27,227.16,354.91,227.16ZM805.18,940.74c2.56-10.08-6.33-17.54-6.36-27.21,0-2-4.76-5.89-6.56-5.49-2.71.6-5.66,3.85-6.82,6.67s-1.58,8.38,0,9.48c7.67,5.39,8.76,15.25,15.46,21.06.62.53,1.13,1.54,1.77,1.62s1.46-.87,1.67-1.53A32.18,32.18,0,0,0,805.18,940.74ZM766.39,332.15c1.63,0,3.34.31,4.86-.1s3.58-1.39,3.74-2.39c1.13-6.81-2.61-14.79,5.12-19.94a13.59,13.59,0,0,0-1.59-1.71c-2.41-1.83-8.15-.76-8.22,1.7-.17,6.21,1.42,13.14-8.37,13.39-.62,0-1.36,2.55-1.7,4-.69,3,1.25,4.31,3.72,5A9,9,0,0,0,766.39,332.15ZM572.56,1001.88c.65-1.18,2.3-2.9,2.52-4.79.45-3.74-2.11-5.73-6-5-2.5.47-4.16,1.78-3.91,4.89C565.45,1000.76,567.44,1002.59,572.56,1001.88ZM244.67,844.57c.79,2.33,1.47,4.5,2.31,6.61a1.89,1.89,0,0,0,1.61,0c2.37-2.69,2.37-10.5,0-13.19a1.89,1.89,0,0,0-1.61,0C246.14,840.06,245.46,842.23,244.67,844.57Zm10.2,28.11,2.9,4.38c.83-1.26,2.1-2.44,2.38-3.82a9.51,9.51,0,0,0-.73-4.45c-.22-.68-1.08-1.16-1.65-1.73Zm484.6-482.32-1.78-3.22c-.55.55-1.65,1.23-1.56,1.64a15.69,15.69,0,0,0,1.56,3.36Z"/></svg>