<svg id="Layer_1" data-name="Layer 1" xmlns="http://www.w3.org/2000/svg" viewBox="0 0 1200 1200"><title>BB_Artboard 98</title><path d="M599,611.82c10.89,7.1,22.05,2.76,32.56,3.56,3.28.25,7-2.75,10.24-4.76,9-5.61,12.38-18.38,24.84-19.69,16.93-14.24,36.82-23.4,56.45-33,5.71-2.79,11.23-6.89,17.26-7.88,6.49-1.07,8.35-6.51,12.72-9.33,7.59-4.9,14.71-11,22.94-14.31C790.63,520.53,805,515,816,503c2.18-2.38,9.09-1,10.6-3.34,4.94-7.77,15.49-5.4,20.07-11.58,18.22-24.57,48-30.58,72.38-44.94,15.13-8.92,32.05-15.54,47.3-24.9,11.61,1.41,15.28-9.65,23-14.36,7.52-4.6,16.72-6.5,24.11-11.25,7.8-5,15.53-11.09,21.08-18.38s15.93-3.63,20.23-11.42c2.08-3.77,3.12-3.07,6-.25,11.43,11.18,25.71,3.84,38.71,5,.88.08,1.85-1.9,2.91-2.77,4.84-4,9.71-7.84,14.57-11.76,6.41,7,13.4,13.52,18.9,21.14,2,2.71.74,8.08.2,12.13-.57,4.34-2.9,7.5-8.12,6.57s-7.83,2.22-8.1,6.53c-.39,6.17-2.19,8.74-9,10.44-8.43,2.11-15.83,8-24,11.57a84.74,84.74,0,0,0-26,17.27c-6.29,6.1-15.69,8.1-23,14.39a153.64,153.64,0,0,1-28.75,19.9c-9.86,5.08-16.52,13.47-25.57,17.79-5.86,2.8-12,4.44-16.7,9.43-7.57,8-14.69,16.74-23.53,23-7,5-16.41,6.59-24.6,10-2.34,1-5.14,2.81-6.06,5-5,11.53-18.55,9.62-26,17.32-6.54,6.75-14,12.62-21,18.88-13.12-1.47-14.27,15.8-26.15,16.58-10.7.7-13.44,15-22.1,15.77-11.78,1.09-16.8,9.4-22.09,16.24-9.44,12.21-23.48,17.09-35,25.73s-24.44,15-35.07,24.71c-9.9-.55-13.49,8.19-19.07,13.54-16.86,16.17-33,33.15-49.88,49.25-3.43,3.27-11,2.85-13.41,6.36-2.6,3.85-1.62,10.29-1.75,15.62-.22,8.24.25,16.51-.27,24.73-.14,2.09-3.19,5.94-4.39,5.74-25.56-4.05-19.65,14.23-20.16,28-15.41,14.65-5.48,33.47-8.25,50.2,11.46,7.43,8,19.07,8.2,29.57.22,11,.22,22-.09,33-.06,2.36-1.23,5.54-3,6.85-6.82,5-2.9,8.26,1.3,11.85,2.09,1.78,4.51,5.86,5.76,5.48,9.73-2.9,12.83,9.49,21.38,8.72,5-.45,7.7,2.44,7.58,7-.14,5.22.33,11.51-2.31,15.39-4.55,6.71-11.35,11.87-17.12,17.76a49.44,49.44,0,0,0-5.16,6.12c-1.93,2.77.9,18.61,3.55,19,5.36.7,12.55,2.81,15.92.28,9.75-7.34,18.32-16.38,26.68-25.37,5-5.42,10.73-9.55,17.63-7,12.47,4.66,19-8.61,29.66-8.52,11,.1,22.08.82,32.95-.35,4.61-.49,8.43-6.43,13.18-7.63,14.08-3.56,29,4.48,43.42-5.09,11.53-7.63,24.79-13.1,37.28-19.46,12.71-6.48,26.23-10.82,36.44-21.7,5.24-5.59,15.4-3.7,20.06-11.59.7-1.19,6.8-1.24,7.69.05,7.83,11.36,19.39,7.46,29.85,8,2.74.14,5.61.51,8.23-.07,9.41-2.06,15.41,2.82,21,9.34,3.54,4.14,8,7.58,11.08,12,1.24,1.75,1.09,6.76-.26,7.72-9.56,6.8-13.27,21.8-28.49,20.65-9.83,11.29-25.57,11.86-36.93,20.39-2.06,1.55-4.59,4.38-6.43,4-20.14-3.69-34.47,9.75-50.93,16.78-5.84,2.49-11.25,6.81-17.28,7.87-7.92,1.4-11.63,11.89-21.29,8.67-8-2.67-11.12,6.53-17.23,8-10.23,2.43-17.92,9.7-27.59,13.13-6,2.11-12.5,4.57-16.8,8.85-6.87,6.84-16.93-1.71-22.44,5.68-5.09,6.81-11.76,5.48-18.43,5.56-8.11.09-11.56,10.68-21.4,8.57-7.89-1.68-16.42-.34-24.67-.34-23.37,0-46.76-.54-70.11.19-15.61.49-32-4.53-46.5,7.55-4.07,3.38-13.39-.09-20.18.63-18.22,1.93-38.05-6.62-54.34,8.14H424.19c-11,0-22.43,1.88-32.88-.51-11.45-2.61-15.36,9.52-25.58,9.08-23.33-1-46.74-.79-70.09-.09-9,.27-18.94-4.45-26.95,4.61-6.38,7.21-15.46,2.63-23.27,3.23-9.56.74-19.23.18-28.85.18-13.08,15.52-30.77,5.25-46.07,8.29-11.75,2.34-16.89-3.18-18.28-14.19-.39-3.16-8.93-4.89-3.82-8.38,6.81-4.65,2.75-14.89,8.63-17,19.21-6.84,35.57-22.94,58.48-18.4,5.29,1,11.53-1.34,16.36.45,13.68,5.06,21.54-9.91,33.76-8.66,5-8.27,12.88-8.58,21.38-8.29,5.11.18,10.66,1.85,15.13-3.28,5.41-6.2,11.11-12.33,17.55-17.39,4.92-3.87,11.43-5.62,16.8-9,17.93-11.3,19.15-33.77,31.84-48.75,2-2.4,1.16-8.2.17-12.06-2.13-8.29,7.14-20.58-6.39-24.49-9.36-2.71-15,7.05-18.63,13.2-6.31,10.76-18.68,9.61-26.57,16.84-3.19,2.93-10.14,1.49-15.24,2.64-11.59,2.62-20.15-4.84-22.83-12.75-2.24-6.62-6-11.34-8.8-17.07-1.22-2.52.89-8,3.23-10.56,3.43-3.72,5.78-9.66,12.54-9.22,8.36.54,14.05-7,15.11-11.59,2-8.7,6-15.17,12.61-19.48,7.71-5.06,4.35-14.75,11-20.74,3.7-3.34,2.71-12.51,2.8-19.06.28-22-.41-44,.29-66,.45-14.28-4.87-30,8.07-42,0-15.12.13-30.24-.08-45.36-.07-5.07-10.9-14.52-16.8-15.08a28,28,0,0,0-8.23,0c-9.29,2-16-2-21-9.13-6.76-9.71-17.44-10.58-24.91-5.6-8.73,5.81-18,11.77-27.26,13.89-13.06,3-27.33.4-41.06.91-6.75.25-9.14-4.94-13.16-8.21-4.79-3.89-6.36-9.09-2.66-13.95a90.54,90.54,0,0,1,14.53-14.56c2.83-2.33,7.47-5.18,10.27-4.35,14.53,4.31,24.77-7.47,37.81-9.39,12-1.77,23.16-10,34.5-15.77s24.29-9.54,33-20.13c1.59-1.94,4.6-4.72,6.25-4.31,15.27,3.84,22.3-7.65,30.45-16.3,6-6.38,12-10.84,21.23-8.75,1.31.3,3.61.57,4,0,8.15-13.26,25-14.91,34.67-26.06.85-1,2.52-2.09,2.37-2.88-.21-1.11-1.69-2.75-2.73-2.83-10.4-.77-21.8-5-30.38,3.81-6.81,7-17.05-1.32-22.31,5.8-6.39,8.62-15.56,7.26-22.37,5.23-15-4.48-23.69,11.27-38,9.18-13.46-2-27.44-.42-41.18-.42s-27.5.09-41.25,0c-10.55-.1-21.84,2.17-29.57-8.23-13.75,0-27.57.89-41.22-.28-10.26-.88-14.17,12.1-25.6,9-7.39-2-16.2-.47-24,1.28-4,.89-6.06,8.91-11.86,1.82-4.33-5.29-9.89-9.57-14.31-14.8-1.45-1.71-2.32-6-1.24-7.42,9-11.31,16.54-25.2,34.82-22.72,5.4.74,11.77,1.79,16.28-.32,5.46-2.53,9.41-8.28,14-12.64-3.89-3.89-7.94-11.21-11.64-11-12,.57-20.75-2.65-28.39-12.14-6.61-8.21-8.55-10.05-5.89-11.36,8.17-4,.93-18.35,12.25-18.11,8.85.18,11.67-10.6,21.39-8.9,9.34,1.63,19.2.59,28.81.28,9.18-.3,14.41-11.49,25.54-8.53,7.83,2.08,11.43-10.7,21.32-8.21a46.41,46.41,0,0,0,20.48,0c8.64-1.88,14.92-10.29,25.57-8.27,8,1.51,18.67,3.53,24.26-.32,14.94-10.3,30.82-7.32,46.5-7.4,9.76-.05,14.31-11.55,25.55-8.92,9.13,2.14,20.48,3.32,28.41-.34,8.57-4,15.88-8.7,25.85-8,1.34.1,5.36-8.17,4.41-9.22-9.79-10.91-20.34-21.15-30.68-31.57-11.68.54-15.34-10.19-22-16.32-5.61-5.16-14.3-9.08-13-19.22-12.26-12.79-23.43-26.95-37.15-37.92C280.08,270,279.75,256.64,270.21,249c1.11-11-11.19-17.28-9.34-29.42,1.31-8.52-10.42-14.44-8.13-25.45,1.92-9.22.4-19.17.4-28.79s-.54-19.29.28-28.84c.3-3.42,4.09-6.44,5.91-9.84,12.78-24,21.73-32.12,43.06-43.62a28.57,28.57,0,0,1,15-3.73c8.2.15,16.29.88,21.89-7.37.95-1.4,6.54-1.88,7.45-.74,8.12,10.11,19.33,7.18,29.8,8.23,10.63,1.07,23.88-5.55,31.35,3,8.54,9.73,22.71-1.21,29,11,.8,1.57,4.65,2.19,7.1,2.22,10.66.13,21.69-1.45,29.58,8.36,12.09-5.26,20,5.38,29.31,9,8.51,3.25,16.33,6.57,25.51,8.51,6.77,1.43,12.62,8.71,21.55,7.4,8.39-1.24,11.48,11,21.39,8.46,6.45-1.65,13.89-1.38,20.47,0,6,1.27,12.19,8.33,17.14,7.3,11.21-2.32,16.14,10.41,25.54,8.66s14.47,5.21,21.37,8.5c10.46,5,23.34,5.69,32.23,11.32,10.82,6.84,20.83,3.41,31,5.41,1.82.36,3.8,3.74,4.28,6s-.54,5.12-1.36,7.56c-.34,1-1.84,1.62-2.81,2.42-8.73-16.69-29.41,0-39.79-14.24-2.1-2.87-10.07-1.6-15.35-2s-11.14,1.35-14.74-4.22c-7.72-11.95-19.74-15.15-31.92-11.88-12.66,3.39-18.43-10.36-29.71-8.83-9.5,1.29-19.14,1.39-25.43-8.12-9.84,1.43-17.47-2.07-25.87-7.61-5.68-3.74-15,.51-22-6.86-5.94-6.23-19.35,2.23-24.84-9.14-6.71-.38-14.22,1-20-1.51-13.61-6-27.31-7.89-42.08-8.49-9.76-.39-17.59-10.55-29.68-8-9.22,1.92-19.2.87-28.77.12-3.47-.27-6.55-3.9-10.1-5.27s-7.5-2.61-11.24-2.51-8.92.76-10.77,3.21c-8,10.66-26.2-2.15-31.61,14.29-1.15,3.5-5.68,5.82-8.47,8.85-3.63,4-10.8,9.16-10,11.9,3.74,12.51-8.25,19.36-8.81,29.77-.38,6.85-.21,13.75,0,20.62.08,2.54.21,6.69,1.61,7.35,12.82,6,1.11,21.46,11.34,28.7,2.46,1.74,2.68,7,3.39,10.74.51,2.66-1,7.07.27,8,18.2,12.94,18.68,37.51,34.44,51.9,2.09,13.3,25.29,5.07,23.15,22.69,5.89,8.52,18.21,12.77,17.17,25.88,20.7,5.6,29.44,26.77,46.89,36.23,15.21,8.25,31.77,12.5,49.27,6.57,5.37-9.13,14.32-6.1,22.13-6.25,15.11-.28,30.25-.47,45.35.07,8.65.31,11.5-11.25,21.42-8.71,6.45,1.65,13.66.31,20.54.31,8.25,0,16.87,1.51,24.64-.41,8.46-2.08,17.24-6,23.84-11.59,6.26-5.28,14-6.76,18.64-4,19,11.15,37,11.91,55.3-.48,12.38,0,24.77-.43,37.11.25,4.12.22,5.11,4.57,5.89,8.94s4.36,8.45,6.72,12.64c-6.69,3.73-4.89,13-9.16,16.51-5.59,4.65-14.12,5.54-20.1,11-1.5,1.37-5.38-.18-8,.28-9,1.55-19.36-4.48-27.2,3.88-5.59,6-15.91,3.33-20,11.59-14.43-1-13.8,8.65-13.43,18.52.17,4.67-2.6,7-7.49,7.32-2.45.14-6.92,1.49-6.93,2.33-.1,11.68-10,12.59-17.12,17.27-7.56,5-12,14.4-23,14.79-1.17,0-4.15,8.69-2.77,10.27,5,5.75,8.79,14.26,19,13.06,4.06-.48,8.24-.08,12.36-.08,6.87,0,13.75-.09,20.62.09,1.12,0,2.34,1.09,3.27,1.93,2,1.85,4.35,5.81,5.8,5.49,9.48-2.11,12.88,9.23,21.21,9,1.37,0,3.06-.49,4,.13,4.44,2.78,6.62,18.77,2.22,22.06-11.66,8.73-16.89,25.47-34,27.31Zm-15.82,334c0-8.24.39-16.5-.14-24.71-.33-5.12,3.09-11.51-2.79-15.18-7.61-4.75-3.18-15.93-11.53-20.06-3.44-1.7-6.74-6-9.82-5.73-12.58,1.08-21.84-4-24.84-15.45-3.08-11.82-13.25-16.56-20-24.57-1.5-1.78-8.78-1.64-10.53.26-7.36,8-20.36,7.1-26,17.2-6.33,11.34-18.86,15-29,19.54s-18,10.82-25.22,18.42a21.34,21.34,0,0,0-5,10.18c-1.75,8.84,3.86,19.5-6.76,26.06C411,942.5,410,953.26,410.11,964c.09,7.26-2.71,12.13-6.76,18-4.88,7.06,1.39,18.89-8.93,25.3-1.33.83-.63,8.22,1.42,10.51,4.4,4.92,8.12,14.67,17.77,3.74,3.11-3.53,13.11-.23,19.54-1.79,6-1.47,11.27-6.12,17.3-7.76,8.7-2.37,18.27,3,26.87-5.16,8.77-8.35,21-.87,31.39-3.46,3.58-.9,6.51-4.58,10.08-5.34,10.13-2.15,17.39-13.73,28.33-10.67,12.41,3.48,19.5-6.8,29.61-8.65,4.3-.79,6.9-3,6.61-8.24C582.89,962.27,583.22,954,583.22,945.78Zm-181.54-245v32.74c11,9.11,7.49,21.72,8.48,33.4.34,4.1,4.4,5.3,8.92,5.74,12.89,1.27,20.63-4.79,23.53-16.43,1.11-4.44,2.33-8.37,6.41-8.28,9.62.23,11.32-4.89,10.48-12.69,8.27-4,7.22-13.42,11.41-19.85,4.84-7.42,13.9-7,19.7-11.71,11.19-9,19.95-20.42,34.24-26.26,10.5-4.29,11.75-16.16,5.94-27.42-1.19-2.3-5.16-4.1-5-6,.47-8.45-2.25-12.68-11.31-11.94s-19.33-2.68-25.48,7.7c-10.89-1-17.27,9.92-29.08,9.76-9.28-.13-17.72,10.89-29.32,7.39-8.06-2.42-11.61,6.68-17.14,7.6-8,1.33-12.41,2.63-11.84,11.67C402.08,684.4,401.68,692.61,401.68,700.79Zm16-93.4c10.57,3.58,16.46-7.29,25.44-8.1,6.79-.6,16.11,2.62,20-.78,6.89-6,13.67-6.56,21.74-8,15.79-2.81,21.2-22.51,10.35-34-.94-1-1.94-1.93-2.91-2.91-8.5-8.55-15.61-19.79-29.14-4.56-4,4.49-15-1.76-22.14,5.88-4.82,5.15-14.59,4.73-19.77,11.24-14.21.65-19,13.67-27.6,21.51-1.25,1.14-.95,6.06.44,7.67C400.2,602.46,406.16,610.68,417.66,607.39ZM325,457.58c0,.44,0,.88,0,1.31h12.23c10.88,0,21.83.74,32.61-.25,7.43-.69,11.74-9.1,21.11-8.61,6.86.36,14.06-4.76,21-7.72,2.2-.94,4-2.81,6-4.25-2.18-1.31-4.34-3.72-6.53-3.75-20.39-.29-40.79-.24-61.18-.12-3.91,0-9.74-.71-11.4,1.44-8.46,10.91-19.88,5.75-30.06,6.67-9.31.84-18.71.67-28,1.63-1.19.12-2.7,4.34-2.71,6.66s1.61,6.66,2.62,6.69C295.48,457.72,310.26,457.58,325,457.58ZM608,537.31c-9.54-10-9.74-9.38-24.5-12.64-6-1.31-11.09-6.64-17-7.67-7.89-1.38-16.2-.42-24.33-.32-7.65.09-11.34,6.7-6.78,13.62,2.86,4.34,5.72,7.82,7.07,13.46,3.16,13.16,19.17,11.77,26.68,20.63,7.51-3.58,15.6-6.32,22.37-11C597.69,549.11,602.52,542.74,608,537.31Zm-301.18-12.4c8.21,0,17-1.82,24.5.42,11.45,3.4,14-11.58,25.56-9.33,11.24,2.19,32.73-9,41.82-17,1-.9,2.57-1.84,2.71-2.92.11-.83-1.57-2.72-2.49-2.75-14.18-.4-29.34-7.46-41.59,5.81-8.08.33-17.44-1.8-23.9,1.6-8.39,4.42-16,10.41-25.55,7.4-13.44-4.26-21.72,8.49-33.6,8.74-1.12,0-2.45,3.32-3.08,5.28-.17.56,1.78,2.59,2.78,2.61C284.88,525,295.83,524.91,306.78,524.91ZM467.63,1061.3c6.84,0,14-1.34,20.44.31,9.89,2.53,12.8-8.91,21.29-8.69,10.49.26,21.79,2.39,29.42-8.13,13.31,5,21.45-8.32,33.08-9.39,1-.1,2.5-1.71,2.72-2.83.16-.76-1.47-2.73-2.32-2.74-14.66-.2-29.33-.18-44-.21-5.17,8.86-14,8-21.71,6.61-9.54-1.73-13.74,7.38-21.29,8.38-6.72.88-13.95-1-20.41.54-5.93,1.44-9,10-17.25,8.15-.71-.16-2.52,3.23-3.23,5.19-.2.53,1.74,2.64,2.74,2.68C453.94,1061.41,460.79,1061.3,467.63,1061.3ZM182.4,508.1c1.14-.81,2.09-1.51,3.07-2.17,10.66-7,22.62-11.5,33.81-17.46,2.31-1.23,3.92-3.77,5.86-5.71,1-1,1.93-1.93,2.9-2.9-1.89-1.49-3.59-3.65-5.73-4.29a14.3,14.3,0,0,0-8.12,0c-7.19,2.38-14,6.53-21.31,7.8-8,1.39-16.41-.17-24.56.52-4.2.35-7,3.79-5.87,8.57.59,2.41,1.87,6.4,3.22,6.57C172.61,499.86,178.54,501.94,182.4,508.1Zm195.08,282c-1.49-3.59-2.33-5.91-3.48-8.06-.18-.34-2-.27-2.67.2-4.14,3.08-4.18,11.84.27,13.25C373,796,375.73,791.84,377.48,790.15Z"/><path d="M935.7,244.34c-11.17-1.9-23.6,3.94-34.3-6.77-3.53-3.54-13-.68-19.69-1.6-9-1.25-18.75,4.1-27-4.56-7.62-8-18.26-1.68-27.24-3.76-2.31-.54-3.89-3.66-6.13-5.08-6.47-4.12-13.92-6-20.53-10.58-5.56-3.86-14.76.51-22.21-6.38-4.94-4.56-13.31-7.05-20.14-10.46-4.43-2.22-10.88-.26-15.53-2.26-2-.87-2-6.94-2.37-10.71,0-.47,4.06-2.31,5.48-1.71,3.51,1.47,6.42,5.42,9.87,5.84,10.39,1.26,22.17-3.16,29.54,8.51,11.67-3.74,20.16,4,29.56,8.29,17.65,8.06,17.61,8,29.58,8.24,13.62.22,27.23.62,40.84.94,12.08,14.23,28.51,7.13,42.3,6.4,12.36-.65,23.82-9.85,37.94-8,3.49.46,8.74-6,11.82-10.21,5-6.89,11.68-5.4,18.37-5.82,5.26-.33,7.78,2.35,8.12,6.67a109.67,109.67,0,0,1-.06,20.58c-.47,4.24-3.89,6.4-8.74,6-4-.34-8.84-1.14-12,.59C954.07,244.2,954.15,244.35,935.7,244.34Z"/></svg>