<svg id="Layer_1" data-name="Layer 1" xmlns="http://www.w3.org/2000/svg" viewBox="0 0 1200 1200"><title>BB_Artboard 58</title><path d="M945,1122.08c-4.58,4.43-9.29,8.57-13.47,13.15s-9.56,6.92-14.71,10c-4.41,2.62-8.64,5.59-13,8.3s-10.85,2.21-13.47,7.65c-2.25,4.67-7.62,4.46-11.53,6.35-7.22,3.48-13.68,8.73-23,7.67-5.72-.65-10.07,7.14-17,4.33-3.8,7.51-13.59,1.6-18.2,7.58-.74,1-2.63,1.52-4,1.54-7.91.14-15.84-.14-23.75.16-3.76.14-4.51-4.16-7.38-4.11-1.7,0-3.76,3.45-5,3.1-2-.58-3.54-2.88-5.11-4.6-2.45-2.7-1.7-5,.36-7.91,2.93-4.1,8.51-3.65,11.42-6.57,8.59-8.65,8.88-9.61,20.64-12,3.89-.81,5.15-5.67,9.9-4.83,3.06.55,6.33-.11,9.48.16,4.19.36,7-2.43,10.34-3.61,9.62-3.4,17.53-11.59,28.89-10.23,2.71-2.69,5.32-5.57,9.84-4.76,5.48-5.46,11.38-10.61,16.21-16.57,1.47-1.81.1-5.85-.17-8.86-.06-.58-1.08-1.58-1.6-1.55-6,.32-12.19-2.55-17.72,2.38-3.2,2.86-8.13,2.91-11.72,6.12-2.33,2.1-7.81-1.53-10.79,2.14-3.69,4.52-8.68,2.21-13.12,2.67a14.54,14.54,0,0,0-6.31,2c-6.26,3.67-12.92,6.71-19.49,9.88-7.35,3.55-14.49,8.47-23.31,6.44-7.51-1.73-12,6.87-19.43,4.68-6.84-2-10.6,5-16.8,5.33-1.86.1-4.14,4-5.31,3.63-10-3.37-17.17,6.49-26.63,4.87-1.53-.27-4.19-.61-4.58.05-3.91,6.58-11.52,2.91-16.59,5.91-1.89,1.12-2.73,3.51-5.78,3.28-4.72-.36-9.49,0-14.24-.11s-6.63,5.57-12.32,4.89c-6.6-.79-11.67,6.23-19.43,4.56-5.85-1.26-10,7.38-17,4.35-4.64,5.12-10.83,4.68-17,4.63-15.83-.11-31.67.2-47.5-.17-5.16-.11-10.75,2.32-15.57-2.52-4.33-4.36-11.37.26-15.46-2.33-3.83-2.42-8.35-3.29-11.75-6a71.84,71.84,0,0,1-10.06-9.74c-2-2.31-.37.07,1.67-1.3,6.18-4.14-.79-12.74,6.54-15.93,2.22-6.34,4.19-12.82,13.15-12.88.76,0,2.11-2.29,2.13-3.53,0-2.5.85-5.26,3.07-5.2,8.76.24,10.47-11.38,19.42-10.32,2.58-2.81,0-9.49,8-8.6,2.83.31,5.15-5.48,9.89-4.32.42.11,1.66-1,1.63-1.42-.57-10.22,12.84-6.79,14.91-14.34,6.11-2.41,11.69-5.84,17.83-8.29a51.69,51.69,0,0,0,19.85-14.52,5.18,5.18,0,0,0,.43-4.29c-.4-1.19-1.91-2.86-3-2.87-13.46-.19-26.92-.18-40.38-.09-2.95,0-8.91,6.14-8.7,9.27.34,5-2.24,10.78,3.36,14.71,1.5,1,1.19,3.12-.76,3.07-6.35-.18-10,6.8-17,5.22-4.6-1-6.57,5.88-12.29,4.64-4.52-1-9.45-.16-14.21-.2-7.88-.06-16.67,1.92-23.39-.83s-11.28-10.43-17.12-15.58c-2.75-2.42-4.27-7.09-9-6.47-6.09.8-13-2.79-18.14,1.73-3.51,3.09-7,2.6-10.78,2.79-7.51.39-15.5-1.9-22,4.42-1.18,1.15-4.61.39-7,.12-6-.69-10.91-.84-12.69,0-6.09,3.06-12.21,5.25-19.43,4.73-8.66-.61-17.41-.14-26.12-.14-7.31,10.42-22-1.23-29.32,9.19-4,0-7.92,0-11.87,0s-7.83.21-11.74.33c-3.62,7.54-14.11.92-17.9,8.12-6.35,1.92-12.13,5.06-17.84,8.21-4.47,2.46-9.58,3.4-12.68,0-4.55-4.94-5.89.52-8.6,1.31-3.95-3.82-7.54-8-11.88-11.29s-4.77-7.48-4.37-12.11c.66-7.56-6.83-13-5.62-20.72-7.48-3.13-1-11.57-6.62-15.81-4.94-3.75,1.26-12.66-6.78-15.58.59-5.29.3-10.32-4.42-14.05,6.88-4.11,1.76-6.77-1.22-9.75-6.35-6.33-6.67-16.06-13.36-22.21-1.63-12.1-12.8-19.18-16.88-30-6.29-2.86-6.07-10-10.09-14.33-3.64-3.93-9.16-7.25-10.61-11.8-2.06-6.49-7.28-9.56-11.34-13.81s-3.82-11-9.78-14.72-10.25-9.48-15.29-14.35c-4.48-4.33-9-8.6-13.42-13-3.66-3.67-7.9-6.7-8.68-12.66-.46-3.46-8.56.67-8.35-5.34.16-4.68-3.74-6.36-6.27-9q-7.29-7.55-15.1-14.62c-4.7-4.26-7.59-8.4-7.68-15.51-.1-7.91-1.49-7.75.47-10,4.25-4.86,8.8-8.48,16.13-6.93,3,.64,6.31.24,9.47.07s5.91.31,8.33,2.87c4.81,5.08,10,9.87,15.08,14.65,2.7,2.51,4.74,5.56,9.49,5.81,2.43.13,5.93,3.22,6.75,5.66,2.27,6.74,4.92,12.36,13.39,12.64,5.44,7.07,15.43,10.7,16.8,20.84,3.87,2.57,10.69,2.28,9.79,9.47q5,4.88,10.08,9.74c1.09,1.05,2.31.68,3.31-1.17.32-.6.09-1.48.15-2.23.36-4.69-6.83-6.51-4.77-11.88,2.26-5.89-6.89-7.86-5-14.25,1.18-4,.5-8.32-3.18-12.5-2.41-2.74-1-8.62-1.32-13.09-.36-5.07,1.48-10.41-3.89-14.69-1.64-1.3-.18-5.82-1-8.65-1.46-5.32,4.11-7.64,4.84-11.91s-1.34-9,1.27-13.29c.85-1.42,5.28-1.79,1.88-4.84-1.74-1.56-3.31-3.3-5.08-4.82a4,4,0,0,0-2.15-.47c-7.75-.42-15.5-.8-23.25-1.19-5.63-6.64-13.26-2.58-19.93-3.24-4.8-.47-6.59-6.21-12.32-5-4.5,1-9.42.13-14.16.1-3.34-5.82-10.6-2.56-14.26-5.23-6.18-4.5-13.59-5.72-19.73-9.58-1.24-.78-1.47-4.06-1.09-6s1.79-1.68,3.24-.92c14.36,7.53,14.39,7.64,27.43,7.94,3.47.08,5.49,1.91,8.18,3.24,3.18,1.56,7.43,1.14,11.23,1.44,2.32.18,5.68.33,6-2.06.24-2.11-2.9-2.42-5.23-2.63-1.3-.11-2.61-1.32-3.67-2.29-.38-.35-.06-2.09-.06-2.09,15.84-.09,31.7-.58,47.49.2,4.72.24,9.66,3.49,13.74,6.37,3.67,2.58,6.53,3.94,9.9.33,5.74-6.16,13-9.53,21.15-11.68,2.81-.74,4-5.7,2-7.47-5.56-4.89-9.4-11.71-19.12-11.25-4.41.2-9-4.39-13.58-6.64-4.77-2.34-3.59-7.92-6.71-11.12-3.63-3.72-3.14-9.91-8.38-12.75-4.07-2.21-4.32-6.17-3.62-10,1.15-6.13-1.53-11.93-6.58-13.08-7.15-1.63-8.42-4.81-7.85-10.71a5.29,5.29,0,0,0-1.89-3.75c-6.45-5.5-8.55-13.37-12.62-20.19-3.3-5.52-6.05-11.47-10.52-16.65-5.53-6.42-9.35-14.51-12.61-22.38-1.78-4.31,1.87-11.38-7.59-10.52-.61,0-2.08-2.32-2.06-3.55.09-4.66.2-9.16-4.65-12,.58-6.35-.47-12-6.7-15.71-3.08-1.83-3.7-4.89-3-7.95,1.73-7.05-2.17-11.38-7-15.66-1.46-1.28-2.88-4.23-2.33-5.74,2.28-6.26-6.58-8.67-4.88-14.23,1.64-5.38-3.45-7.86-5-11.82-4-10.13-4.16-10-4.64-16.55-.42-5.74,1.53-11.41-3-17.24-4.25-5.42-1.24-13.19-1.56-19.92-.29-6.11,1-12.48-.34-18.31-1.64-6.94,4.14-10.88,5-16.54.73-5-1-10,3.81-14.74,3.26-3.17-.85-10.6,5.34-13.77-4.38-3.45-4.2-6.72.41-9.81-2-5.3,4.85-7,5-11.88.11-4.17,5.42-6.63,5.65-11.57.06-1.2,5.91-1.49,7.52-3.42,2.8-3.35-1.06-8.7,3.44-12.42,3.32-2.74,8.32-5.1,7-10.94-.1-.42.91-1.46,1.53-1.58,4.57-.9,9.42-1.39,8.1-7.9,4.48-4.34,11-8,12.9-13.18,2.24-6.24,6.54-9.89,10.68-14.1A22.25,22.25,0,0,0,138,272a10.31,10.31,0,0,1,8.58-6.83c5.24-.44,8.92-4.19,9.38-8.41.51-4.76,7-6.59,5.09-11.84,14-9,8.83-22.93,9.26-35.26.09-2.37-4.46-5-4.2-7.24.6-5.24-5.32-6.87-5.35-11.91,0-5.6-7.59-2.63-10.62-6.66-4.87-6.49-12.49-11-15-19.35-.74-2.51,2.1-9.42,4.83-9.49,7.12-.17,14.39-.88,21.33.23,4.83.77,9.55,3.73,13.72,6.54,7.33,4.92,17,5.7,23.1,12.82,3,3.49,7,6.15,5.69,11.56-.85,3.6,2.28,5.26,4.3,7.45,3.86,4.18,8.5,13.72,9.83,21.31.77,4.37,6.61,6.51,4.95,11.89-.65,2.11.82,5.14-.26,6.77-6.37,9.65-5.67,22.4-15.26,30.77-4.94,4.3-6.06,11.62-11.81,15.93-5,3.73-9.08,8.52-13.53,12.88-3.87,3.79-9.89,7.15-10.93,11.59-1.23,5.23-4.55,7.71-7.63,10.79-3.77,3.75-6.88,7.45-8.67,12.68-1,2.83-4.3,5.67-9,6.13-6.25.61-2.49,3.46-.36,5.31,1.47,1.27,1.25,2-.61,3.32-11.52,8.18-16.16,20.81-21.51,32.72-1.74,3.87-7.25,6.25-5.39,11.61-9.7,5.59-9.5,14.66-9.23,23.91.11,3.58,1.44,7.69-2.53,10.43-3.17,2.2-2.15,5.46-2.09,8.34.29,13.62.76,27.24,1.16,40.86,5.3,3,3,8.07,3.67,12.34.12.74,1.94,1.35,3.08,1.69.32.09,1.53-1.08,1.46-1.56-.86-6.45-.18-11.81,8.29-12.48.48,0,1.35-1.25,1.22-1.69-2.45-8.37,4-12.41,8.88-17.16,10.61-10.31,21.74-20.18,31.73-31,6.31-6.85,15.35-9.46,21.93-15.9,6.32-6.2,11.18-14.11,21.21-16.87,4.66-1.28,8-7.15,11.88-10.94,2.8-2.71,5.34-5.75,8.48-8,2.9-2.09,6.59-3.14,9.66-5.05,1.95-1.21,3.39-3.17,5.06-4.8-2.05-.76-4.12-1.46-6.14-2.29-2.8-1.17-4.81-5.74-3-7.12,7.16-5.44,11.09-14.89,21.5-16.3l35.17-34.15c-2-7.28,5.63-5.26,7.94-8,2.68-3.18,2.91-8.06,6.93-11,3.14-2.27,5.67-5.32,8.46-8s5.65-4.76,5.46-9.42c-.1-2.41,5.08-3.47,4.48-7.28-.67-4.2,6-5.06,4.73-9.58,5.83-9.42,8.32-18.81.79-28.71-1.16-1.53-.63-4.32-.77-6.53-.23-3.53,1-5.72,5.2-5.53,2.77.13,4.05-1.41,4.34-4,.15-1.39.85-3.91,1.25-3.9,9.24.22,16.46-8,26.1-5.81,1.45.33,3.14.24,4.34.94,6.78,3.91,15.63,18.47,15.75,25.8.1,6.13,0,12.25,0,18.38,0,3.83.59,7.77-.2,11.44-.57,2.64-3.71,4.73-4.37,7.37-.87,3.5.54,7.26-3.07,10.39-2,1.71-2.24,5.14-3.57,7.65-.69,1.29-2.27,2.13-3,3.41-1.36,2.43,1.23,6.49,4.07,6.5,11.08,0,22.17-.09,33.25.07,4.59.07,10.1-.64,13.49,1.52a18.67,18.67,0,0,0,10.67,3.1c1.38,0,3.27.51,4,1.46,8.11,9.9,20.36,16,25.72,28.72,2.47,5.89,9.46,10.12,14.81,14.65,1.24,1.05,5.09,1.17,6.15.16,9.82-9.3,20.92-17.71,25.49-31.05.24-.69-.28-2,.08-2.22,13.52-8.51,15.42-25.2,26.6-35.37a5.34,5.34,0,0,0,1.75-3.8c-.46-4.85,1.61-8.2,4.5-12.14,2.26-3.08-1.23-8.83,3.74-12.31,1.31-.93,1.24-4.07,1.31-6.21.17-5.36-.27-10.75.13-16.08,1-13.22-6.43-22.29-15.69-30.46-1-.85-2.83-.69-4.24-1.11-6.46-1.91-8.52-10.4-17.49-9.57-5.43.5-10.17-6.66-17-4.2-3.66-5.22-9.14-5.09-14.66-4.57s-10.61.13-14.51-4.26c-2.65,3.53-4.66,4.11-8.68.66-2.29-2-7.45-.63-11.29-1.07-3.51-.4-7.77,1.8-10.29-2.49,2.7-1.08,5.68-1.78,8-3.35,2.57-1.71,4.22-4.78,6.87-6.27,4.4-2.49,9.09-5.14,14-6,7.35-1.28,15.64,1.84,21.75-4.81,16.63,0,33.25,0,49.88.1,1.26,0,2.45,1.57,3.78,2.17,2,.89,4.12,1.48,6.13,2.33,7.73,3.27,9.9,14,20.15,14a2.35,2.35,0,0,1,1.62,1.56c.84,8.52,8.19,12.52,13.68,17.39,4.76,4.22,4.95,10.8,9.9,14.54-.56,8.5,4.94,14.85,8.43,21.88,3.6,7.25,1.46,14.84,1.66,22.25.14,5,2.25,10.59-3,14.86-3.56,2.92-.34,7.39-1.86,10.7-1.17,2.55-5,3.62-4.55,7.39.86,7.09-3.78,12.71-7.44,17.56-4.46,5.91-9.07,11.69-11.24,18.55a11.77,11.77,0,0,1-5.29,7c-5.07,2.88-12.3,3.6-9.29,12.14a2.31,2.31,0,0,1-.43,2.06c-7.94,6.24-9.68,16.48-15.56,23.47-6.27,7.45-8.83,17.74-18,22.8-4.62,2.53-2.93,8.18-6.63,11.2a105.23,105.23,0,0,0-10.07,9.74,5.29,5.29,0,0,0-1.4,3.94c1.23,6.41-3.44,13.84,3.49,19.27,1.26,1,.49,1.82-1,3.29-8.72,8.56,3,14.42,3.44,21.84,0,.48,2.81,1.44,4,1.13,7.45-1.91,11.83,7.64,19.44,4.7,4.83,4.47,10.7,5,17,4.74,2-.09,5,1.05,5.84,2.52,3.67,6.65,12.24,5.86,16.93,11,1.07,1.17,4.75-.58,6.16,2,4,7.12,13,7.16,18.39,12.82,7.19,7.6,13.87,16.07,24.69,19.75,5.76,2,4.06,9.25,8.38,12.69,3.65,2.91,8.74,5.94,9.74,9.77,2.36,9,9.35,14.06,15.78,18.77s2,11.65,6.42,16.06c3.69,3.67,7.33,6.68,7.94,13a44.43,44.43,0,0,0,6.06,18c2.79,4.51,2.82,8.41,2.8,12.7s.51,7.42,6.14,7.15c1.11-.05,3.41,1.74,3.31,2.41-1.16,7.7,2,14.24,4.55,21.22,1.33,3.58,2.31,9.07-1.82,12.76-1.93,1.74-2.51,3-.14,4.94,6.26,5-1,12.93,4.81,18.86,5.06,5.2,1.51,13,2.27,19.63-8.83,7.3-3.26,17.1-4.67,25.68-.75,4.58,6,6.36,4.87,11.9-1.58,7.79,2,16.23-4.65,23.58-2,2.18-.3,7.4-.3,11.23V883.89c0,4.59.63,9.29-.16,13.75-.94,5.28,6.29,6.92,4.88,11.9-1.47,5.19,4.06,7.8,4.58,11.91.58,4.52.29,8.63,4.41,12.24,1.6,1.41.82,5.47,3.56,7.64,3,2.42,5.65,5.35,8.45,8.06,8.45-1.34,9.9,8.81,17.25,9.72,5,.63,8.5,5.51,14.72,4.7a82.15,82.15,0,0,1,21.12.47c2.44.32,4.24,5.11,7.7,3.75a75.21,75.21,0,0,0,13.55-7.14c8.53-5.57,10.29-16.44,18.37-22.59,1.18-.9.88-4.53.21-6.58-1.08-3.35-3.3-6.34-4.53-9.65-1-2.69,1.26-6-1.81-8.51-1.4-1.15-4.06-2.34-1-4.87,4-3.37,3.45-9.49,8.34-12.82,4.46-3,8.26-7.17,11.8-11.27,5.55-6.45,13-10,20.7-12.77,4.75-1.74,9.35-4.67,9-8.77-.5-6,4.52-9.31,5-14.23.46-4.61,6.8-6.54,5.09-11.79,4.83-2.8,4.66-7.28,4.62-11.95-.13-17.61,0-35.23-.08-52.84,0-4.39.27-8.39-3.41-12.57-2.41-2.74-1.49-8.65-1.2-13.08.41-6.18-.48-11.75-4.86-16.48,1.44-4.11-8.89-8.17-.06-12.3-1.63-2.38-4.87-3.5-4.82-7.27.06-4.37-6.19-6.52-4.72-11.9,1.53-5.62-6.69-8-5.47-13.83-5.15-2.91-2.08-8.92-4.25-12-8.38-11.88-10.36-27.54-22.73-36.83-5.22-3.92-4.95-10.54-9.81-14.64-4.43-3.74-10.85-6.78-10.24-14.17l-35.27-34.11c-6,1.42-8.42-3.43-11.34-6.61-3.26-3.54-9.3-1.7-11.6-6.38-8,.39-10.26-9-17.12-9.79-4.81-.55-6.72-6.88-12.25-4.83-2.52-3-5.43-5.31-9.79-4.88-3.55-5.22-11.16-4.39-14.94-9.67-3.56-5-10.15-6.08-15.46-8-5.6-2.08-7.62-8.68-12.59-9.2-7.61-.79-9.57-7.31-14.62-10.47-1.3-.82-2.12-2.88-3.4-3.1-13.47-2.34-16.6-13.7-21.75-23.17-2.76-5.07-7-9.92-4.86-16.44a7.62,7.62,0,0,0,0-2.29c0-4.6-.27-9.21.08-13.78.38-5-1.79-10.32,3.13-14.89,3.7-3.43.72-8.71,1.6-13.06a8.12,8.12,0,0,1,1.95-3.78c2.59-2.74,4.91-6.17,9.69-5,1.7-3.11,3.19-6.36,5.15-9.31a10.85,10.85,0,0,1,9.73-4.91c2.49-5.58,10.58-2.67,13.15-8.12s8.93-5.26,13.35-7.79c6.18-3.53,12.44-8.8,20.87-6.69,1.44.36,4.17.43,4.49-.21,3.51-7.09,11.81-2.12,16.47-6.34,1.5-1.36,4.17-2.75,5.93-2.39,5.47,1.12,8.12-3.89,12.36-4.6a53.64,53.64,0,0,1,14.21-.08c5.15.54,6.77-5.91,12.33-4.87,4.58.86,9.47.18,14.22.18,5.66-9.37,18.88.17,24.64-9.15.21-.34,1.53.07,2.3-.06,4.46-.78,11.68,2.43,12.83-2,1.2-4.6,5.47-7,5.85-11.55.5-5.94,8.64-7.48,9.09-12.31.62-6.57,6.41-8.25,9.15-12.55,2.38-3.74-1.27-8.89,3.31-12.52,3.44-2.72,2-8.72,6.81-11s4-7.69,6.75-11.06c2.4-2.93,6-5.26,7.44-8.52,4.11-9.18,8.36-18.22,14.37-26.41-3.13-8.69,8-14.56,4.89-23.36-1.19-3.41,1.92-9.69-2.06-10.18-5.15-.65-7.39-5.09-12-5.62s-9.9,2.16-13.52-1.51c-4.68-4.77-10.21-2.58-15.41-3-4.72-.34-9.49-.07-14.24-.07H754.77c-6.33,0-12.68-.26-19,.08-5.19.28-10.34-1.25-15.44,3-4.89,4.09-13.19-1-18,1.87-8.74,5.29-17.81,3.18-26.74,4.45-7.24,1-13.32,5.75-19.91,8.85-1,.46-3.65-.35-4-1.17-.76-1.85-.68-4.07-.66-6.14,0-.55,1.13-1.62,1.59-1.55,9.08,1.41,10.6-11.21,19.59-9.83,4.38-5.31,13.07-4.71,16.55-11.35,1.28-2.43,4.1-2.53,6.2-1.9,5.59,1.67,7.63-4.67,12.32-4.69,3.85,0,7.84.81,10.63-3.1a4.66,4.66,0,0,1,4-1.39c7.49,2,11.8-6.14,19.49-5,7.33,1.09,15.28,1.87,22-4.07,1.72-1.53,6.12-.23,9.29-.23,15.83,0,31.67.18,47.5-.1,5.94-.1,12.8,2.55,17.3-3.9,6.91-.74,15-2.87,20.35.87s10.28,2.4,15.43,3.13c3,.42,7.56-.14,8.65,1.48,3.93,5.8,11.38.34,14.66,4.81,2.7,3.68,7.34,1.73,10,4.71,3.09,3.46,6.89,6.34,9.84,9.89,6.74,8.14,9.44,9,14.71,4,6.78-6.43,13.81-12.67,20.06-19.57,5.18-5.72,12-8.86,18.15-13.1,5.73-3.93,10.07-9.71,15.37-14.3,1.46-1.27,4.28-1,6.3-1.8s1.55-1.94-.37-3.25c-1.2-.82-3-2.55-2.74-3.34,2.4-7.6,4.5-16.1,12.4-19.76,6.6-3.07,13.52-5.51,19.69-9.46,7.62,2.2,10.78-4.3,16-7.14,5.59-3,11-8.24,18.48-6.62,8,1.73,13.23-6.91,21.87-5,5.3,1.19,10.42.82,14.39,5.55s8.91,8.69,13.31,13.1c3.51,3.52,3.7,10.69-.17,13.94s-6,9.33-12.69,9.14a3.36,3.36,0,0,0-2,.73c-4.56,3.82-7.58,9.6-15.43,8.6-5.19-.67-8.37,6.66-14.67,4.49-2.8-1-4.65,1.14-4.68,3.51-.08,6.47-6.12,8.41-9.54,12.25s-9.59,3.6-13.26,8c-3.15,3.82-6.32,7.94-12.87,8.78-3.74.48-6.54,6.29-10.21,9.17-4.05,3.18-6.12,8.29-12.8,9.17-3.8.5-7.17,5.49-10.3,8.83-3,3.19-7.82,5.12-7.36,10.91.16,2.09-3.2,2.21-5.35,2.95-4.33,1.5-7.76,4.27-8.78,9.29-1,4.66-4.33,7.72-9.15,8.88-7.09,1.71-10.24,6-9.82,13a6.11,6.11,0,0,1-1.1,4.09c-2.58,2.89-7.58,5.25-7.93,8.23-1.07,9.07-.4,18.33-.41,27.51,4.75,2.28,3.73,7.88,6.75,11.06,4.28,4.51,8.14,10.61,13.55,12.63,10.13,3.78,15.29,12.36,23.11,18.22,6.66,5,10.83,12.2,19.21,16,7.4,3.38,11.94,12.55,19.32,16.05,8,3.8,13.78,9.35,19.53,15.17,5.19,5.26,11.88,9.18,14,17.4,1,3.82,6.31,6.6,9.67,9.84,11,0,11.67,10.09,16.35,16.09,2.11,2.71,2.2,6.54,5,9.52,4,4.21,11.21,6.55,10.34,14.14,5.74,3.29,6.49,9.93,8.92,14.84,2.35,4.76,8.62,9.4,5.34,16.2,2.27,3.71,6.18,6.79,4.75,11.88-1.27,4.52,3.56,6.12,5,9.49,6,13.9,6.16,14.73-.1,28.52-1,2.27-1.69,4.5-4.28,4.06-7.55-1.28-12.9,3.68-18.62,6.49-6.22,3.05-10.78,4.26-16.55-.4-2-1.59-6.18-.32-8.74-1.56-3.32-1.62-6-4.45-9-6.76,1.36-7.17-3.5-15.24,3.37-21.63,2.69-2.5.9-5.75,1.35-8.63.1-.7.06-1.93-.32-2.1-7.2-3.32-3.15-10.81-6.42-15.91-5.37-8.38-9.54-17.55-14-26.48-2.51-5-4-10.81-9.55-14.76-4.78-3.43-11-7-12.2-13.25s-6.45-8.31-10-12.07c-3-3.14-5.27-8-11.22-6.89-1.72-3.06-3.33-6.19-5.21-9.16a8.28,8.28,0,0,0-3.34-3.2c-6.16-2.63-13.71-3.73-13.24-12.74-3.22-1.65-6.53-3.14-9.65-5s-4.47-6.31-9-6.75a7.36,7.36,0,0,1-4.1-1.4c-5.72-5.29-11.75-10.38-16.72-16.29S925,337.77,920.21,331.2a62.17,62.17,0,0,0-15.06-14.55c-6.2-4.21-6.45-11.63-11.53-16.25-3-2.78-4.68-3.21-5.37.86-.76,4.46-3.7,6.84-6.6,8.79-4.34,2.92-2.06,8.56-6.46,11.45-2.93,1.92-1.55,6.66-5,9.44-8.64,6.9-8.39,15-1.81,23.45,1.23,1.58,1.21,4.07,1.77,6.15.47,1.72,4.94,1.86,2.1,4.86a31,31,0,0,1-5.09,4.78,6.75,6.75,0,0,1-4.42.64c-7.83-1.34-13.24,2.07-18.3,7.47-2.86,3-4.47,5.88-4,10,.14,1.36-.07,3.59-.94,4.09-9,5.18-9,13.4-8.64,22,0,1.06-2.44,2-3,3.34-4.35,10.67,0,22,10.26,26.71.65.29,1.59-.08,2.36.05,4.48.82,9.83-2.22,13.43,1.72,3.22,3.5,7.14,3.56,10.69,2.69,7.6-1.84,11.66,6.83,19.52,5,6-1.37,12.6-.28,18.94-.28,7.12,0,14.31.55,21.35-.19,4.48-.48,7.47,5.47,9.29,3.68,6.21-6.11,13.44-2.42,20.07-3.41a14.33,14.33,0,0,1,12.69,4c1.88,1.7,7.28,1.8,10.93-.74,1.31-.92,2.4-5.4,4.85-1.56s7.59,1.48,9.9,4.81c3.93,5.69,12.24-.31,16.48,6.34,3.23,5.08,8.71,8.82,13.19,13.15l8.4,8.12c1.68,1.62,4.91,3.41,4.75,4.84-.5,4.61,3.82,6.48,4.73,9.69.86,3,1.47,5.53,3.87,7.74a5.29,5.29,0,0,1,1.14,4c-1,8.33,1,16,4.82,23.38-2.25,6.53,6.66,9.68,5,16.53-1.23,5.08.36,10.75-.4,16-.93,6.44,2.39,11.16,4.68,16.59,1.92,4.55-2,10.57,3.25,14.82a5.84,5.84,0,0,1,1.65,3.86c.24,3,.08,6.12.08,9.19,0,5.36.22,10.73-.06,16.07s-.34,10.58,4.81,14.18c-.1,9.15-.18,18.3-.38,27.45,0,.55-1.14,1-1.59,1.63-4.5,6.1-3.84,12.36-.49,18.64.68,1.27,2.59,2.69,2.31,3.57-3.19,10.18,7.53,18,5,28-.94,3.64,2.2,5.6,4.55,7.27,4.37,3.1,5.51,7,5,11.89-.26,2.26-.78,6.19.14,6.61,7.62,3.43,2.51,11.28,6.46,16,3.17,3.83,6.06,8.38,7.33,13.06,1.14,4.21-.39,9.14,4.56,12-1,8.64,4.79,14.89,8.38,21.91.65,1.27,1.69,2.73,1.49,4-1.4,8.63,3.06,15.48,6.91,22.55,1,1.88,3,4.26,2.48,5.75-2.37,6.83,7.23,9.71,5.16,16.6-1.28,4.26.22,8.31,3.74,12.31,2,2.29,3.38,6.16,5.09,9.32,1.63,3,.61,7.45.43,11.25-.22,4.72,6.17,6.39,5,11.93-.83,4.08-1.84,9,3.12,12.51,1.32.93,1.26,4.08,1.32,6.22.16,6.12-.49,12.31.21,18.36.68,5.74-7.66,8.11-4.91,14.19-5.56,11.58-5.92,25.64-17.53,34.33-5.67,19.07-22,30-35.43,43.15-3.94,3.86-2.5,8.55-4.39,12.07-3.91,7.26-10.45,12.9-17.72,17.38-1.84,1.13-4.42,1.33-5.92,2.7-6.89,6.33-13.51,12.92-20.23,19.42-9.59,1.1-14.18,8.88-19.61,14.84-3.92,4.3-9.89,3.56-13.55,7.79-3.42,4-7.49,8.69-12.19,10-6.11,1.71-8,7.05-12.67,9.43-1.62.83-4.67,1.1-6.35-1.42-1.94-2.93-5-2.89-8.2-3.11-5.87-.4-8.52-3.45-6.59-8.44,3.68-9.53,7.75-19.09,18.49-23.62,4.69-2,9.67-3.64,13.85-6.39a34.19,34.19,0,0,0,10-9.7c4-6.31,12.09-6.13,16.74-11.21A102.23,102.23,0,0,1,1032,1052c3.14-2.37,10-.79,8-8l10-9.76,8.39-8.12,10.07-9.75c-.16-9.18,10.73-11.08,13-17.72,2.44-7,7.72-10.89,12.2-15.82,1-1.15,3.25-2.33,3.12-3.26-1-7.65,8.37-8.94,9.45-14.63s6.49-9.45,5.37-16.5c-1.34-8.51-2.14-17.72,4.12-25.77,1.52-2,.24-6,.23-9,0-5.21-6.79-8-4.9-14.22,1.41-4.59-.12-9-4.6-11.84,3.09-8.67-7.88-14.57-4.83-23.39,1.93-5.57-5.66-7.94-5.18-14.19.46-6-5.49-11.58-5.22-18.34-7.47-3.13-.44-12-6.66-15.78-1-.63-1.7-2.46-1.78-3.78-.24-3.82-.09-7.65-.09-11.48-8.07-2.95-1.91-11.7-6.69-15.62-3.79-3.11-2.2-8.42-6.45-11.42-2.64-1.87-1.34-5.32,1.25-7.69.79-.73,1.62-2.69,1.26-3.1-2.59-2.88-7.3-5.21-7.85-8.29-.74-4.2-2.81-6.65-5.42-9.44-2.43-2.6-4.51-1-4.39.9.3,4.69-3,6.88-5.82,9.2-3.39,2.76-4.32,6-3.93,10,.36,3.58-1.16,5.56-5.24,5.54-1.3,0-3.81,1.57-3.73,1.82,3.13,10-7.42,13.93-10.14,21.34s-9.73,11.7-15.44,16.64c-3.1,2.68-8.92,2.44-11.17,6.76s-3.38,8.68-9.81,9.8c-3.2.56-5.67,5-8.47,7.75-4.47,4.33-8.22,10.49-13.62,12.52-6.21,2.33-10.21,6.24-14.64,10.22-7.61-.68-9.67,8.34-15,9.05-7.65,1-9.74,7.15-14.6,10.54a45.28,45.28,0,0,1-7.8,4c-10.1,4.51-18.77,11.51-28.32,17.07-2.6,1.51-4.61,5.13-7.13,5.37-11.24,1-11.42,11.23-15,17.56-4.25,7.65,2.51,15.3,5.45,22.67.78,2,3.25,3.27,4.9,4.93,6.63,6.66,12.92,7.81,22.56,3,3-1.51,6-3.35,8-.65,2.68,3.7,7.26,2.19,10,4.75,5.1,4.82,10.12,9.71,15.11,14.63,1,1-.42,10.57-1.59,10.69-8.81.9-12.17,8.69-18.25,13-1.66,1.18-4.39.86-6.29,1.84-1.12.57-1.82,2.26-2.27,3.59-2,5.77,3.65,9.37,4.5,14.19.68,3.93,2.7,4.14,5.88,5.17a38,38,0,0,1,13.45,7.14c4.14,3.64,9.68-.56,12.95,3.13,3.65,4.1,10.47,2.8,13.31,7.88,9.66-2.49,13.88,5,19.52,9.9,6.42,5.64,9.92,11.32,2.85,19.12-1.65,1.82-.8,5.69-1.27,8.6-.4,2.45-1.65,4-4.64,3.76-4.81-.4-6.73,6.57-12.28,4.58s-7.33,4.4-12.25,4.88-5.28,3.45-2.51,8c1.12,1.85,3.43,2.75,3.3,5.62C944.75,1108.42,945,1115.3,945,1122.08Zm-444-595c.71,0,1.69.26,2-.08a1.94,1.94,0,0,0,0-1.94c-1.1-1.51-2.46-3.4-4.13-.63-.22.37,1.33,1.74,72.47,85.35,2.37,0,4.75-.13,7.11,0,9.83.59,13.15-.94,7.91-13.64-.81-2-2.46-3.94-2.38-5.86.15-4.1-1-7.17-4.26-9.87-2.86-2.37-4.43-5.44-6-9s-3.05-8.27-6-11.29c-3.74-3.88-4.11-9.14-7.32-13.33-2.24-2.92-.92-7.86-3.82-12.21-4.29-6.44-8.31-14-6.16-22.71.54-2.17-.16-4.6.14-6.86.47-3.68-2.09-5.73-4.52-7.32-4.24-2.78-8.69-6.21-13.48-7-6.89-1.2-14.23-.8-21.26,0-2.54.27-5.08,3.26-7,5.51-2.25,2.66,2,3,2.44,4.81,1.84,8.15,1.29,16.36.29,24.56-4.93,1.95-4.89,4.37-.69,7.15,1.66,1.11,1.59,2.77-.59,3.12a66.62,66.62,0,0,1-11.66.49c-4-.07-5.4,1.7-5.41,5.38,0,6.81-.19,13.63-.64,20.43-.05.67-2.46,1.62-3.81,1.68s-3.58-.51-3.95-1.39a16.66,16.66,0,0,1-1-6.46c-.07-19.11,0-38.23-.06-57.34,0-8-4.6-12.7-12.28-12.78-6.32-.06-12.66.21-19-.1-3.55-.18-5.85,1.14-8,3.56s-4.47,4.32-6.66,6.53-6.37,5-5.93,6.54c2,6.91-4.44,10.9-5,16.56-.54,5.3.14,10.71-.2,16-.23,3.56,1.89,5.44,4.07,7.6,2.63,2.6,6.49,4.6,5.52,9.25,5.76,6.66,8.63,14.94,12.61,22.5,2.84,5.4,6.41,9.73,10.28,14.25,4.9,5.72,14.43,0,18.2,7.52,5.89.82,12.77-2.72,17.38,3.72,7,.29,14,.55,21,.89,3.07.15,7.54-.69,8.93.9,5.17,5.92,11.65,3.15,17.57,3.61,4.72.37,9.48.07,14.23.07C557.33,611.31,564.6,609.62,501,527.1ZM395.87,329.53c-6.87,1.67-16.23-3.62-23.09,4.3-14.82,4.31-15.12,4.06-21.66,15.77-2.84,5.08-10.52,7.09-9.71,14.5,0,.47-1,1.07-1.6,1.61l-11.74,11.36c1.38,5.81-5.25,8.3-6,13.8-.5,3.65-5.83,6.7-9,10,2.12,6-7.1,8.06-5.21,14,.11.34-1,1.06-1.59,1.6-3.36,3.24-6.78,6.43-10,9.75-3.12,3.16-2.18,8.43-6.61,11.23-2.3,1.45-5.45,3.18-5.09,7,.58,6.21-5.91,3.06-8.08,5.55a5.27,5.27,0,0,0-1.27,4c1.09,5.27-1.83,8.5-5.46,11.67-1.65,1.44-4.27,3.82-3.91,5.13,2.85,10.43-5.81,16.12-9.46,23.91-2.05,4.38-7.31,8-5.09,14,1,2.76-1.86,3.92-3.42,5.45-1.31,1.28-1.32,2.42.79,3.21,1.37.51,3.61,1,4.48.29,3.63-2.85,6.93-6.12,10.3-9.29,2.83-2.66,5.23-6,8.5-7.93a84.22,84.22,0,0,1,9.85-4.66c7.37-3.16,14.27-7.21,21.7-10.22,13.51-5.46,25.82-13.33,39.53-18.5,4.05-1.52,7.86-4.55,8.16-9.86.28-5-1.37-10.09,3.64-14.74,3.4-3.17-.92-10.47,5.15-14,.79-.46.52-4.88-.66-5.82-3.62-2.88-3.79-6.39-3.41-10.21.47-4.77-6.79-6.46-4.85-11.89.71-2-1-5.12,1.81-6.08,7.72-2.6,15.29-8.44,23.66-5,3.86,1.6,7.82,3.86,11.79,5.73,1.87,9.87,11.86,16.94,10.32,28-.44,3.18.7,5.52,2.93,8.07,3.26,3.71,7.18,4.53,10.7,2.31,5.63-3.55,4.57-10.77,9.86-14.6,5-3.63,9.16-8.42,13.46-12.9a5.7,5.7,0,0,0,1-4.12c-.39-4.05.68-7.24,4.07-9.92,3-2.41,5.48-5.53,8.5-8,1.81-1.47,2.16-2.2.23-3.32-4.21-2.45-3-6.5-3.28-10.18-.43-5.15-5.54-7-8.55-10.28s-6.93-6.15-5.73-11.56a5.15,5.15,0,0,0-1-4.11c-4.87-5-9.29-11-15.26-14.26-4.23-2.3-10.68-.78-16.14-.95-.79,0-1.58,0,3.94,107.72,0-.69.28-1.64-.08-2a2.11,2.11,0,0,0-2,0c-1.56,1.06-3.51,2.37-.66,4C401,439.47,402.41,438,395.87,329.53ZM907,795.32c0,9.94,0,19.89,0,29.83,0,3.83,6.26,7,10.23,5.13a34.51,34.51,0,0,0,5.52-3.73c4.24-3.18,6.62-9.17,12.36-9.77,4.83-.5,6.71-6.9,12.24-4.83l11.75-11.34c3.36-3.25,7.18-6.16,9.95-9.82,3.43-4.53,8.7-5.57,13.15-8.19,2.4-1.41,3.89-4.41,5.52-6.85,4-6,5-13.71,11.33-18.43,1.83-1.36,3.74-3.09,2.91-5.66-2.16-6.72,3.94-10.89,6.09-15.95s5.91-10,7.9-15.18-1.89-12.27,4.91-16.4l-4.47-4.87c7.69-4.86,3.53-12.43,4.63-18.8,1.85-10.81-4.4-22.72,4.74-32.52V622.69c-8.35-10.74-3.4-23.17-4.74-34.81-.34-2.93.55-7.27-1.12-8.56-5.57-4.31-3.15-9.77-3.58-14.78-.32-3.8-.76-7.8.1-11.43,1.28-5.41-5.52-7.75-4.66-11.85,1.29-6.13-4.87-9.25-4.82-14.21s-3.23-8.13-4.46-12c-2.58-8.06-8-12-15-15.55-8.71-4.39-8.65-4.54-17-4.55q-35.6,0-71.19,0c-3.11,0-7.77,1-9-.58-4.33-5.24-9.8-3.73-15.08-4-8.27-.44-16.65,1.62-24.4-4.27-3-2.28-10.42.73-13.25-1.6-4.32-3.55-9-1.9-12.83-3.65-4.08-1.89-7.29-5.16-12.45-4.36a5.61,5.61,0,0,1-4.06-1.38c-7.38-6.93-14.37-14.25-22-20.93-3.63-3.19-2.22-8.4-6.39-11.47-1.65-1.22-.67-5.62-1.14-8.53-1.36-8.37,2.22-15.69,4.45-23.44a30.67,30.67,0,0,1,4.49-9.77c2.4-3.4-1.56-9.19,3.6-12.25,2.09-1.24,1.73-1.76.23-3.35-5.23-5.56-12.15-7.46-20.94-3.9-2.66,1.08-4.74,4.26-8.09,3.16-9.08-3-15.15,7.77-24.14,4.7-4.28,7.75-15.4,1.66-19.81,9.15-8.09-2.18-13.69,5.32-21.77,5.06-4.4-.15-10.43,3.42-13.12,7.1-4,5.51-10.93,5.19-15.18,9.47-4.93,5-9.89,9.92-15.14,14.56-2.66,2.36-3.06,5-2.85,8.09.15,2.25-.8,4-1.93,6.12-4.09,7.57-4.19,8.06-.22,13.85,2.48,3.62,2.39,8.21,6.4,11.35,6.11,4.79,11.32,10.65,16.92,16.06,9.22.18,12.05,8.74,18.21,12.92a6.21,6.21,0,0,0,4.24,1c5.56-1.12,8.78,2.07,11.92,5.55,2.1,2.32,4.27,4.27,7.9,3.76,6.55-.91,10.71,4.45,16.33,6.19,4.13,1.28,5.4,7.26,11,7.65,4.49.32,6.74,6.16,12,5.09,2.34,4.6,8.55,2.87,11.45,6.5C770.35,546,780.94,547,786.19,555c5.13,7.78,15.51,9.21,21.54,16.2,9.85,11.44,23.85,19.42,30.13,33.85,10.55,7,14.63,18.46,19.88,28.77,4.87,9.56,9.67,19.11,15.33,28.26-1.41,12.27,12.27,20.17,10.13,32.66,8.78,3.08,1.5,13,8.06,17.65,2.13,1.52,0,8.14,2.2,10.2,4,3.81,4.06,7.78,4,12.33,0,2.2-.4,5.55.84,6.4,7.4,5.08.5,14,5.12,18.61,6.14,6.21,2.53,13,3.36,19.39C907.5,784.54,907,790,907,795.32ZM436.72,749.85c-4.63-3.45-9-2.83-13.32-.83-1.34.63-2.12,2.79-3.42,3.06-5.22,1.07-11.47-2.1-15.75,1.89-4.89,4.56-10.31,2.26-15.5,2.79-3.89.39-9.27-1.3-11.45.63-4,3.54-8,4.73-12.68,3.92-5.32-.9-8.24,3.35-12.36,4.47-7.15,1.94-15.74-2.84-21.95,4.27-8.63.18-17.26.39-25.89.54-4,.07-9.22-1.58-11.65.29-10.67,8.2-22.68,2.61-33.89,4.25a29.15,29.15,0,0,1-9.46,0,9.88,9.88,0,0,0-11.27,6.41c-3.31,9.4-11.92,16.93-10.72,28,.1,1-2.25,2-3,3.32-2.07,3.51-2.17,3.68.32,7.76,1.14,1.88,3.19,3.09,2.89,5.77C226.42,837,229,846.64,236.3,855c.83,1,.9,2.86.7,4.24-.62,4.22.89,7.57,4.46,9.68,4.44,2.63,4.49,7.43,6.69,11.15,3.35,5.7,5.93,11.95,11.74,16,.52,7.66,7.39,10.94,11.72,16,3.33,3.88,9.37,6.14,8.43,12.69,9.26,7,11.88,19.15,21.71,25.87,2.86,1.95,5.59,4.45,6.87,8.65,2.27,7.44,10.11,11.16,15.07,16.9,1.15,1.33,1.95.83,3.42-.76,3.57-3.83,9.63-3.5,13.23-8.06,8.39-10.62,21.19-17.43,27-30.59,3.08-7,11.71-9,17.86-13.2,3.81-2.63,6.72-6.46,10.18-9.6,2.73-2.49,4.8-5.31,9.48-5.76,5.37-.52,2.78-7.43,6.78-10.49,4.23-3.23,9.93-3.06,13.57-7.71,4.75-6,11-11,16.59-16.39L456.88,859c9.68-.2,8.35-10.91,14.75-14.47,3.2-1.79,4.94-5.53,9.78-5.22,2.13.14,2.63-3,2.81-5.35s2.12-3,4.62-3.81a21.86,21.86,0,0,0,14.07-13.52c1.19-3.32-.19-7.09,3.33-10.26,3.81-3.44,1.38-8.65,1.53-13,.33-9.94.11-19.9.09-29.85,0-1.5.43-3.34-.3-4.44-1.24-1.89-3.39-3.2-4.88-5-2.75-3.28-3.45.56-5.08,1.21-4.9,1.93-9.3,4.15-13.31,8-8.74,8.27-15.63,18.86-28.09,22.9-8.13,10.24-21.68,14.22-30.08,24.25-1.11,1.32-4.16,1.22-6.35,1.56s-4.21.13-6.47,1.65c-8.35,5.6-17.92,2.37-27,2.42-1.12,0-2.17-2.1-3.38-3.08-2.93-2.4-5.93-4.7-9.19-7.27,14.38-11.49,24.14-25.25,39.49-33.78C422.35,766.78,428.91,757.39,436.72,749.85ZM640.9,908.11c0-8.42.32-16.86-.09-25.27-.39-8,2.76-16.69-4.66-23.37,0-6.89-.8-13.89.22-20.64,1.09-7.26-7.94-11.28-5.06-18.83,3.25-8.51-6.08-14.84-5-23.38.25-2-3.36-5.09-5.89-6.55-5.09-2.94-10.06-.8-17.62,5.7-2.07,1.77-5.66,1.82-7.93,3.46-3.14,2.27-5.43,5.63-8.54,7.95-7,5.21-11.77,10.94-11.91,15.54s-.76,9.33.15,13.74c1.13,5.42-4.35,7.56-5,11.92s2.19,9.61-1.55,13.07c-4.92,4.55-2.38,9.9-3.23,14.88a12.56,12.56,0,0,1-1.69,3.9c-5.77,10.19-9.77,21.52-20.13,28.71-3.59,2.5.81,3.24,1.24,4.87.79,3,3.32-.88,1.45,1.55s-4.76,4.15-6.54,6.62c-2.08,2.89-3,6.61-5.23,9.34-5.14,6.26-14.41,10.11-12,20.61.19.82-1.87,2.3-3.07,3.24-4.52,3.51-6.76,7.56-6.44,13.6.6,11.45-.62,23,.46,34.42a27.27,27.27,0,0,0,10.28,18.72c4,3.17,9.09,1.12,13.63,1.19,1.85,0,3.7-3,5.62-3.12,2.19-.1,5.93,2.83,6.46,2.25,3-3.24,6.44-3.7,10.52-3.58,7.12.2,14.26.05,21.38.05,9.35-8.4,20.81-3.52,31.3-4.45,7.86-.7,15.83-.11,23.74-.15,3.95,0,4.95-1.19,5.06-5.64,0-.76,0-1.53,0-2.29.33-8-1.59-16.36,4.6-23.49,1.49-1.72-.67-4.29-2.62-5.63s-2.15-2.14-.64-3.3c6.12-4.72,2.33-11.32,3.41-17-7.4-4.88-4.45-12.28-4.67-18.77C640.66,928,640.9,918.06,640.9,908.11ZM282,375.72c-1.34,1.28-2.29,2.64-3.62,3.37s-2.86.67-4.3,1c-12,2.62-18.4,6.2-25,13.64-3.42,3.87-2.82,10.82-8.43,12.5-6.25,1.87-10.28,5.94-14.82,9.83-2.05,1.76-7.73.17-7.43,3.42.74,8.23-10.6,9-10,16.86.18,2.26-1.88,3.47-4.76,3.58-5.35.2-6.79,5.87-10.76,8-3.58,1.94-10.08.7-8.1,7.89-3.16,3.32-8.29,6.25-9.07,10-1.44,6.92-6.88,10-11.21,13.79-3.59,3.14-9.6,3.53-13.74,6.27-5.35,3.55-10.8,5.58-17.09,4.36-6-1.15-9.88,2.74-14.72,4.48-2.16.77-4.7.8-5.31,3.13-.56,2.15-.81,4.83,0,6.79,1.94,4.57,3.73,9.72,7.21,13,4.52,4.31-1,10.94,4.79,14.26,7.81,15.21,15.31,30.58,23.54,45.58,6.55,12,10.68,25.38,21.33,35-1,7.42,7,9.19,9.68,14.45,3.84,7.49,5.26,7.48,10.48,2.36,2.77-2.72,7.18-5.05,7.95-8.21,1-4.17,1.09-7.07,6.56-6.85,3.8.16,7.63-.54,11.45-.86.9-4.42-5.24-6.51-3.91-11.07-6.39-3.1-1.89-10.47-5.28-13.79-4-4-4.61-8.3-3.43-12.36,1.85-6.34-6.24-8.36-5.16-14.24a34.85,34.85,0,0,0,0-13.69c-1.22-5.48,5.83-7.57,4.74-11.84-1.58-6.17,5.65-9.37,4.67-14.14-1.28-6.22,4.6-9,5.16-14.19.47-4.2,6.07-6.6,4.71-11.88-1.41-5.46,6.89-7.93,4.83-14.18-1.45-4.4,3.15-8.08,5.92-8.65,8.11-1.64,9.18-6.17,8.21-12.71-.62-4.2.14-7.48,5.85-7.24,1.17.05,3.56-1.73,3.44-2.27-1-4.6,3.61-6.38,4.79-9.64,4.79-13.19,11.06-25.37,22.27-34.65,3-2.47,2.1-6.54,4.62-9.75,3-3.88,4.2-9.27,8.79-12.39,2.46-1.67,2-3.23-.08-4.88C285.11,378.56,283.55,377.1,282,375.72Zm88.4,159.56c-.34-2.77.21-7.7-1.71-11.44s-6.15-6.93-9.87-9.69c-1.31-1-4.73-.76-6.15.26-2.51,1.8-4.65,4.64-8,3.4-6.45-2.41-8.42,6.17-14.67,4.84-7.64-1.62-11.11,5.13-14.55,9.54-3.68,4.73-10.74,2.56-13.38,7.87-4.91.34-8.32,3-11.47,6.43a104.54,104.54,0,0,1-10.06,9.68c-3.4,2.8-5.34,7.18-10.86,7.82-8.83,1-.75,9.49-5.44,12.79-1.73,1.22-3.61,2.54-3.53,5.46.12,4.5,3.95,3.31,6.06,4.82,6,4.31,14.4,5.18,18.6,12,6.41,1.5,11.27,8,18.63,6,6.91-1.86,10.42,6.11,17,4.76,2.27-.47,4.19.52,6.27,1.92a52.56,52.56,0,0,0,13.51,7c3.58,1.1,7.92-.3,11.73.37,3.52.62,5.27,5.85,9.88,4.4,5.51-1.74,7.64,4.49,12.24,4.61s9.48.23,14.19,0c4.92-.28,6.56,6.1,12.28,4.85,4.5-1,9.42-.26,14.15-.13.57,0,1.16,1,1.66,1.55,5.05,5.78,11.71,1.87,17.58,2.67.47.07,1.29-.91,1.59-1.57.17-.36-.26-1.22-.67-1.55-2.88-2.28-4.8-5.22-9.29-6.09-4.79-.94-10.19-3.53-13.29-7.07-5.18-5.9-13.45-6.72-18.5-12.62s-11.05-10.87-16.59-16.29c-1.06-1-3-2.7-2.71-3.35,3.19-7.53-5.76-11.86-5-18.77.48-4.4.9-9-3.79-12.3-1-.69-.84-5.08.22-5.81C372.32,547.62,369.32,541.91,370.36,535.28Zm284.79,582.2c0,2.29,0,4.58,0,6.87.07,3.7,1.16,4.66,6.08,4.58,3.83-.07,9.28.87,11.14-1.13,4.73-5.07,10.24-2.43,15.3-3.5,5.73-1.22,10.12-6.86,17-4.56,6.6,2.2,11.56-2.13,17-4.55s10.26-6.42,17-4.7c2.08.54,4.81.71,6.27-1.75,3.41-5.72,10.92.11,14.5-4.84,3.38-4.69,9.84-.22,12.64-3.39,4.53-5.14,10-3,15.12-3.79a13.73,13.73,0,0,0,6-2.55c3.56-2.66,8.21-2.74,11.82-6.08,2.71-2.51,8.76,1.06,12.67-3.41,3.41-3.89,8.93-.78,13.39-1.7a19.34,19.34,0,0,0,4-1.65c10.58-4.79,20.1-12,32.35-13,2-.18,1.76-1.92-.27-3.14-2.55-1.54-3.55-5.12-7.3-5.1-4.74,0-9.66-.78-14.17.19-6.26,1.35-9.58-4.46-14.66-4.64-11.83-.43-23.76.71-35.5-.38-11.19-1-23.51,5.14-33.55-4.27-2.87,4.6-7.4,4.77-12.28,4.56-5.52-.23-11-.12-16.58,0-9.92.15-20.77-2.47-27.26,8.33-.29.48-1.27.73-2,.82-3.68.47-7.73-1.2-10.86,2.38-3,3.38-9,2-11.39,6.51-7.62-.59-10.1,6.13-14.78,9.72-3.8,2.9-1.17,7.15-2.32,10.53-.9,2.64-3.23,4.78-4.57,7.32C657.23,1106.22,653.13,1111,655.15,1117.48ZM309,669.52c-1.58,0-3.16,0-4.74,0-5.85.13-7.2,3.07-3.19,8.85,1.88,2.7,3.88,5.44,1.58,7.78-3,3-4.31,6-3.9,10,.35,3.45-1.13,4.88-5.05,5.76-5.4,1.21-9.82,4.56-9.13,11a8.74,8.74,0,0,1-3.15,8c-4.41,4.1-8.65,8-14.78,9.9-1.95.61-6.34,3.23-4.64,6.06s4.18,6.53,9,6.19c3.15-.22,7.22,1.19,9.33-.25,10.62-7.28,22.46-3.41,33.73-4.37,3.84-.33,9.35,1,11.25-1,5.4-5.64,11.8-3.94,17.56-3.37,6.76.67,10-6.32,17.07-5.18,5.67.93,12.75,2.54,17-4.08,6.29-.07,12.58-.1,18.87-.26a2.86,2.86,0,0,0,1.75-1.34c3.24-5.11,8.78-3.88,12.8-2.91,6.54,1.58,8.24-7.57,14.72-4.94,7.57,3.08,12.41-4.44,19.11-5.11a2.48,2.48,0,0,0,1.58-1.58c.11-.4-.76-1.5-1.24-1.53-6.76-.51-11.25-7.86-19-5.62-2.92.85-6.2.42-8.33-2.51-2.25-3.12-5.78-2.24-8.61-1.83-4.73.69-5.61-5.93-9.87-4.63-6.29,1.92-9.42-4.43-14.65-4.64-6.31-.25-13.07,1.29-18.83-.45-5.34-1.61-11.24-3.57-15.64-7.75a5.4,5.4,0,0,0-4.23-1c-7.38,1.76-14.1-1.48-19.09-5.06C320.61,669.64,315.11,669.64,309,669.52ZM479.48,915.86a94.32,94.32,0,0,0-.89-10.28c-.14-.76-2.47-1.26-3.85-1.7-.71-.22-1.89-.36-2.29,0a13.3,13.3,0,0,0-2.56,3.44c-4.82,9.12-4.78,9.23-10.17,10.23-2.25.42-5-.33-6.84.61-3.48,1.74-1.5,5.42-2.05,8.24-.27,1.38-.74,3.78-1.39,3.87-9.54,1.33-13.1,10.05-20,14.53-2.18,1.43-7.27-.92-9.05.61-4.51,3.89-10.32,6.92-12.34,13.11a22.44,22.44,0,0,1-13.68,14c-8.6,3.26-12.48,11.1-19.24,16,.37,8.25-7.85,10.6-11.74,15.92s-10.08,8.5-12.84,15.51c-2.31,5.88-9.11,10-13.64,15.21-.74.84-.45,3.16.23,4.33a5.12,5.12,0,0,0,3.7,2.07,21.6,21.6,0,0,0,10.88-2.26c5.69-2.85,10.75-8.38,18.4-6.93a4.77,4.77,0,0,0,3.92-1.6c4.44-6.65,12.28-8.5,18.76-11.79,8-4.06,16.3-7.2,22.46-14,1.91-2.11,3.53-5.14,7.45-4.69,4.2.49,5.18-4.95,9.89-4.76,6.5.26,3.29-6.93,6.94-10,10.67-9,20.09-19.47,30.52-28.8,4-3.59,4.79-7.32,4.57-12-.17-3.76.18-7.55.3-11.32C481.87,929.18,478.67,922.49,479.48,915.86ZM255.77,683.31c1.37-.46,3.27-.53,4-1.46,3.43-4.25,10.08-2.84,13.29-7.9,4.93-7.76,12.53-10.81,22-9.06a3.36,3.36,0,0,0,2-.65c.65-.4,1.53-1,1.57-1.59s-.88-1.42-1.51-1.55c-3.71-.77-7.46-1.4-9.71-4.87-8.61.81-14.29-3.63-19.56-9.55-3.85-4.33-11.68-7-21.86-9.42-2-.48-3.75-2.24-5.55-3.51-1.18-.83-2.32-.55-3.3,1.26-.32.6-.07,1.48-.13,2.23-.38,4.67,6.24,6.31,5,11.82-1,4.34-1.94,10.28.29,13.32a20.39,20.39,0,0,1,4.43,12.1C246.92,678.26,252.86,683.27,255.77,683.31ZM607.23,732a30.41,30.41,0,0,0-2.48-3.15,18.46,18.46,0,0,0-7.52-4.46c-4.83-1.65-9.09-3.93-14.56-4.75s-10-5.55-15.13-8.37c-2.16-1.2-16.81,5.45-16.8,7.69,0,3.55-1.23,7.3,2.27,10.48,5.48,5,11.82,9.49,13.42,17.37.12.62,1.08,1.06,1.6,1.62a12,12,0,0,0,16.16,1.37c7-5.46,10.92-14.85,21.32-16.2C606.13,733.47,606.63,732.53,607.23,732Zm-139,309.7c11.23.11,10.31,0,11.4-8.9,1-7.93-8.51-12.85-5.2-21,.11-.27-2.31-2.17-3.51-2.14-3.63.12-9.72-1.79-10.11,2.43-.51,5.6-5.07,7.24-7.13,11-2.93,5.3-9.22,4.43-13.4,7.69-3.89,3-9.61,3.71-12.9,8.24a34,34,0,0,1-6.68,6.38c-.39.31-2.38-.72-3.18-1.53-3.9-4-4.65,1.11-6.66,2.21-1,.55-1.6,2-2.06,3.17-.11.29,1,1.47,1.57,1.5,3.91.17,7.95.74,11.69,0,3.45-.7,6.44-3.54,9.89-4.24,3.75-.77,7.83.07,11.72-.33,1.21-.12,2.21-2,3.36-3,4.36-3.91,7.95-10.56,14.93-2.54C463.43,1042.21,467.72,1041.58,468.24,1041.65Zm118.2,101.11c8.17,3.48,13.39-6.72,21.53-4.72,1.09.27,2.7-1,3.88-1.76.45-.3.2-1.43.57-2,3.48-5.44,4.62-12,9.25-17,2-2.17-.42-5.52-3.07-7.69-2.24-1.84-3.54-4.44-6.9-.92-1.8,1.88-5.77,1.73-7.79,3.51-2.52,2.23-5.67,2.14-8,3.4a28.46,28.46,0,0,0-10,9.5c-3.25,5.05-10.27,2.74-13.48,7.86-1.85,2.94-2.63,3.51,1.09,6.57,1.7,1.4,2.68,3.77,5.72,3.31A51.81,51.81,0,0,1,586.44,1142.76Zm122.28-133.24c7.89,0,15.78.09,23.67-.11,1.14,0,2.25-1.53,3.37-2.35a36.28,36.28,0,0,0-3.37-3.2c-1.77-1.3-3.59-3-5.61-3.39-3.69-.62-7.77.8-10.59-3.07-2.3-3.14-7.38-.8-9.9-4.76-1.89-3-7.14-1.13-9.76-4.84-2-2.83-4.51-6.95-9.17-5.75-6.9,1.79-2.82,7.53-3.59,11.45-.57,3-.13,6.09-.11,9.14,0,6.1.64,6.81,6.12,6.86C696.09,1009.56,702.4,1009.52,708.72,1009.52Zm-63.06-317a37.54,37.54,0,0,1,4.75,0c3,.4,4.59-1.3,4.63-3.64.08-4.44,1.22-10.27-1.17-13-3.62-4.13-3.15-8.09-3.59-12.44-.1-1-1.71-1.83-2.63-2.74a15.06,15.06,0,0,0-1.66,1.63c-2.83,3.77-8.6,2.14-11.6,6.28-1.72,2.39-8.22-.45-7.76,5.67s-5.66,3.27-8.17,5.41c-1.43,1.22-1.08,3.36.64,3,5.58-1.07,7.4,4.94,12.06,5.21C636.4,688.22,639.62,694.63,645.66,692.5Zm-136.56-46a45,45,0,0,0-7.07.11c-1.29.21-2.4,1.47-3.6,2.25l3.34,3.23c1.12,1.08,2.14,3,3.36,3.09,4.63.48,9.93-.89,13.82.86,4.06,1.83,7.24,5.09,12.37,4.29,4.86-.76,9.33,0,12.18,4.55,3.12-5.79,11.64-3.85,14.78-9.65a8.17,8.17,0,0,1,1.64-1.63c-1.07-.83-2.11-2.32-3.23-2.39-4.7-.27-9.43,0-14.15-.13-6.22-.12-12.43-.37-18.64-.56C520.24,644.84,514.33,646.86,509.1,646.55Zm-234,372.15c2.78,0,4.36-1.17,4.69-3.53.52-3.61-1.22-5.44-4.8-5.72-3-.22-4.2,1.3-4.65,3.6C269.67,1016.64,271.53,1018.69,275.13,1018.7ZM546,1027.9c-2.36-.2-4.69.39-4,3s5.93,2.43,7.7.13c.27-.36.31-1.39.12-1.49C548.61,1028.88,547.27,1028.41,546,1027.9ZM492.93,505.76l-1.69-1.64a14.57,14.57,0,0,0-1.48,3.09c-.09.38,1,1,1.48,1.51Zm0-7.87-1.69-3c-.52.51-1.57,1.14-1.48,1.52a14.5,14.5,0,0,0,1.48,3.08ZM582.2,261.28l-3.06,1.63c.53.51,1.17,1.52,1.56,1.44a15.13,15.13,0,0,0,3.19-1.44Zm-151,805-1.69-1.63a14.08,14.08,0,0,0-1.49,3.08c-.08.38,1,1,1.49,1.51Zm161.53-41.35L591,1023.3a14.5,14.5,0,0,0-1.48,3.08c-.09.38,1,1,1.48,1.51Zm152-18.37-1.69-1.64a13.93,13.93,0,0,0-1.49,3.09c-.09.37,1,1,1.49,1.51Z"/><path d="M901.84,12.92c4,.67,11.82-3.4,16.85,4,7.11.05,14.21,0,21.31.21,1.39,0,3.42.53,4,1.47,4.69,7.45,15.34,7.15,20,14.57-3.52,8.09,6.3,13.11,5,21.09-1.08,6.49-.18,6.63-9.17,8.74-1,.24-16.57,8.6-17.37,9.37-2.8,2.7-5.24,6-8.5,8A66.29,66.29,0,0,1,924,84.94c-4.38,1.77-8.73,3.28-11.1,7-2.5,4-7.26,2-10,4.76a12.56,12.56,0,0,1-5.73,3.3c-4.84,1.42-9.16,4.41-13.85,6.42a48,48,0,0,0-15,9.61c-3.57,3.45-8.83,5.25-13.21,7.92-10.53,6.41-21.17,14.86-34.87,12.37-9.85-1.79-16.85,7.38-26.62,4.95-2.73-.68-7.7-.47-8.69,1.09-3.85,6.06-11.14.79-14.7,4.81-3.16,3.55-6.79,3.46-10.61,3-1.57-.19-5.2,2.44-4.75-2.17.21-2.14-.5-4.2,1.56-6.31,5.85-6,15.35-7,20-14.36,4.78,1.11,7.05-2.38,9.71-5,5.44-5.46,10.8-11,16.19-16.48-1.95-7.75,6.21-4.64,8.75-7.57.43-.49,12.58-12.35,13.15-12.69,2-1.2,2.29-2.38.36-3.24-1.32-.58-3.3-1.34-4.28-.8-3.86,2.09-7.39,4.65-11.88,5.62-1.31.28-2.14,2.78-3.41,3-5.26.85-10.86.44-15.83,2-4.14,1.3-5.39,7.39-10.95,7.7-4.53.25-7,4.59-12.25,5a29.6,29.6,0,0,0-19.37,9.84c-2.18,2.4-4.49,4.23-8,3.49-4.59-1-7.13,1.87-10,4.49-.85.76-3.07.28-4.63.09-2.36-.29-2.67-2.65.35-4.71,6.61-4.52,7.34-12.73,13.19-17.87,6.24-5.49,15-7,20.25-14.29,4.46-6.19,10.62-11.39,16.68-16.26,3.94-3.16,10.1-3.36,13-8.26,2.55-4.26,9.18-1.8,11.47-6.5,9.11-.23,12.18-11,21.25-11.36C835,31.19,835.53,31,850.48,26.22c2-.65,3.6-3,5.62-3.42,4.56-.89,7.82-4.5,11.91-5.42,4.44-1,9.45.31,12.39-4.46Z"/><path d="M104.34,743a73.25,73.25,0,0,1-8.47-1.21c-.71-.16-1.31-2.47-1.22-3.74s1.1-2.48,1.71-3.71c5.52,6.61,13.76,2.54,20.36,4.89a3,3,0,0,1,1.53,1.57c.87,2.17.09,2.58-2.26,2.29C113,742.76,109.89,743,104.34,743Z"/><path d="M750.59,150.35c1.15,1.08,4.93-2.23,4.19,2.16-.16,1-2.19,2.38-3.24,2.3-3.48-.28-5.26,1.84-7.55,3.66-1.87,1.49-3.24-.09-3.39-3.13-.12-2.49.89-4.32,3.09-4.88S748.16,150.35,750.59,150.35Z"/><path d="M498.37,556.71c-.94.71-2.36,2.21-2.74,2-2.86-1.62-.9-2.93.66-4,.47-.32,1.37-.05,2.08-.05Z"/><path d="M501.13,550.44c.55.54,1.56,1.29,1.47,1.46a9.47,9.47,0,0,1-2.16,2.71,2.09,2.09,0,0,1-2,0,1.88,1.88,0,0,1,0-1.93A17.16,17.16,0,0,1,501.13,550.44Z"/></svg>