<svg id="Layer_1" data-name="Layer 1" xmlns="http://www.w3.org/2000/svg" viewBox="0 0 1200 1200"><title>BB_Artboard 28</title><path d="M29,853.47c0-8.35-.12-8.39,6.08-21.57,1.59-3.38,6.14-6.85,5.58-9.49-2.36-11.16,5.4-16.29,11.57-22.54,7-7.14,14-14.4,21.36-21.22a10.81,10.81,0,0,0,3.5-10.6c-.47-2.71-1-6.08-2.77-7.77-6.67-6.3.94-18.72-10.44-23a7.89,7.89,0,0,1-4.68-9.88c2.27-7.09-6.15-9.62-6.12-15.6,0-4.89.35-9.28-4-13.53-6-5.91,1.07-15.22-4.32-22.23-3.94-5.14-6.56-11.29-9.77-17,2.82-13.95-8.68-25.56-6.27-39.7,1.1-6.47,1.76-13.6-5.1-19.07-2-1.6-.66-7.56-.66-11.52,0-38.14-.21-76.28.13-114.42.08-8.43-3.76-18.26,5.84-24.62l0-24.07c9.6-6.22,4.75-16.18,6.36-24.47,10-4.55,1.49-17.66,10.54-22.86,1.08-.62,1.33-3.62,1.09-5.4a26.63,26.63,0,0,1,6.1-21.6c-4.8-9.1,7.58-13.4,6-21.59,7.56-8.6,9.41-20.46,16.68-29.23C74.44,289.14,89.82,286.92,89.19,276c6.65-5.8,8-14.84,13.78-21.6,6.12-7.12,10.19-16,17.3-22.86,4.62-4.45,6.84-11.28,11-16.36,4.41-5.42,9.81-10,14.77-15,2.14-2.13,4.66-6.37,6.35-6.06,11.14,2,12.35-11.67,22.09-13,5.8-.78,10.29-9,16.32-11,5.35-1.77,11.86,0,15.55-6.18,5.62.8,9.13-2.56,12.43-6.33,7,2.68,9.24-6.8,15.58-6.06,5,.59,9.76.22,13.25-4.53.85-1.16,3.49-1.3,5.33-1.39,4-.2,8,0,12-.1.9,0,2.32-.22,2.6-.79,4.15-8.18,13.62-2.33,18.23-6.65,3.95-3.71,8.68-3.72,12.69-6.09,2.43-1.44,4.61-3.82,7.2-4.35,9.23-1.92,20.19,4.15,27.59-6.17h30.11q40.65,0,81.29,0c4.95,0,10-.88,13.28,4.36,1.25,2,2.66,1.5,4.26-.9,3.45-5.15,9.05-2.4,13.55-3.65,3.47-1,6.48-5.57,9.6-5.47,7.64.26,12.83-2.48,18.11-7.76,6.12-6.12,11.28-13.14,19.91-17.08,6.82-3.12,12-9.9,17.89-15,2.12-1.84,29.59-13.9,33.05-14.72,2.72-.64,6.67-.69,7.84-2.47,4.79-7.25,13.93.1,18.67-6.22,3.63-4.84,10.23-4,14.91-8.09,4.45-3.91,13.7.84,18.23-6.71.59-1,3.71-.54,5.65-.55,6.85,0,13.1.41,19-5.54,3.24-3.25,11.68,2,16-4.58.82-1.24,3.34-1.78,5.12-1.87,7.7-.37,16,1.49,21.59-6.1h24.09c8,0,16.1-.48,24.08.15,6.65.53,14.16-3.36,19.89,2.66,5.92,6.22,13.71.89,19.64,3.52,6.13,2.71,11.53,5.55,18.66,6.27,5.94.6,11.28,6.24,17.08,9.26s11.53,6.4,17.72,8c5.4,1.39,12.67-1.5,11.71,8.53-.1,1.13,2.27,3.28,3.82,3.66,22.6,5.55,34.17,25.09,50.06,39.13-.41,5.57.65,9.1,7.7,9.56,3.13.2,6,4.59,9,7.11,8.23,7,10.11,18.66,19.09,25.29,7.88,5.82,10.15,16,16.52,23.45,7,8.24,9.54,20,17.28,28.87,6.58,7.56,8.13,18.8,14.9,26.8-2.1,10.7,11.47,12,12.66,22,.93,7.74,10.4,14.71,10.67,22.21.33,9.28,9.29,15.11,7.06,24.65-.47,2,2.94,4.63,3.94,7.21,2,5.27,3.65,10.71,7.83,14.83-3.91,9.65,8,15.66,5.85,24.56-1.38,5.66,6.55,6.9,4.58,11.94-.67,1.71-2.72,2.89-4.14,4.31,10.09,4,2.1,15.25,8.07,20.44,7.23,6.29,11.66,13.28,9.71,23.14-1.45,7.36,8.76,10.38,6.31,18.67-1.64,5.55-.07,11,4.75,16.13,2.56,2.7.89,9.48,1,14.42.13,6.82,8.64,10.55,6.23,18.63-1.79,6,2.51,10.56,5.2,15.85,2.84,5.57.49,13.73.74,20.74.06,1.72,1,4.23,2.25,5,9.24,5.19,9.16,16.79,16.76,23.41,7.13,6.23,8.35,17.42,17.19,22.89,4.38,2.72,4.75,7.9,6.77,12.19,5.51,11.76,13,22.46,17.64,34.88,1.93,5.18,5.74,9.34,5.9,15.75.11,4.23,5.65,8.57,5.27,12.53-1,10.22,8.41,16.85,7.08,27.73-1.07,8.76,8.23,17.27,5.36,27.54,8,6.72,5.76,16,6,24.6,0,.63,0,15.91,0,16.09-.93,4.87,5.37,5.94,5.37,9.42,0,2.22-3.56,4.36-5.28,6.72-.48.66-.07,2-.07,3,0,9,.56,18.11-.16,27.09-.67,8.4-8.74,15.15-6,24.65a7.54,7.54,0,0,1-1,5.5c-5.72,8.78-12.25,17.17-10.92,28.62-6.69,8-9.63,18.1-14.58,27.08-.92,1.66-3.36,3.08-3.32,4.57.38,15.29-8.48,22.48-21.74,26.91-3.39,1.13-8.49,5.93-8.08,8.2,2.2,12.3-6.92,17.6-13.19,25-4.27,5-13,7.66-11.17,16.28,1.55,7.12-7.08,10.11-5.9,15.55,1.74,8.06-5,12.21-6.51,18.6-1.08,4.42-4.29,8.28-5.71,12.65-1.14,3.53.76,7.52-2.57,11.09-2.36,2.55-2.29,7.31-4.59,10a125.26,125.26,0,0,0-13.11,18.64c-7.33,12.52-21.15,19.63-28.7,33.27-6.52,11.79-18.92,20.23-28.19,30.63-4.71,5.29-12.6,4-17.06,10.34-4.3,6.14-9.94,11.26-18.39,13.44-5.93,1.54-8.1,11.47-16.7,10.41-8.38,11.39-22.91,13.23-33.19,21.36-5.55,4.4-12.51-.31-16.3,4.17-3.64,4.31-9.72,2.87-12.43,6.35-4.76,6.12-12.65,1.61-16,4.7-6,5.45-12.06,6.4-19,5.47-8.25-1.11-12.33,9.06-21.72,6.54-7.49-2-16-.91-24-.24-5.52.46-8.65,7.33-15.63,6.11-4.45-.78-10.08-2.17-13.73,2.81-2.5,3.43-4.09,1.37-6.51-.32-2.18-1.53-6.94-3.31-7.58-2.53-6,7.38-14.16,5.75-21.86,5.77-23.09.09-46.29-1.35-69.21.64-10.92,1-17.24-8.56-27.71-6.93-8.77,1.37-18,.14-27,.06-7.59-9.86-18.34-4.77-27.73-5.6a25,25,0,0,1-13.27-4.7c-6.15-4.3-9.36-1.66-16.22,7.49-2.8,3.73-7.25,6.35-11.3,8.89-1,.64-4.81-.68-5-1.56a60.81,60.81,0,0,1-1.42-14.46c.37-7.38-5.81-9.69-9.58-13.91-10.6,4.41-17.3-8.74-27.64-6.13-2.83.71-6,.11-9,.11-9,0-18.22-1-27.05.28C446.16,1147,441,1135.84,431,1139c-7.7,2.45-14.52-2.12-21.75-5.23-5.75-2.48-10.25-8.64-18.42-6.92-6.35,1.34-10.43-7.81-18.6-6.14-3.63.75-8.57-3.11-12.41-5.64-11.76-7.75-26.56-10.25-36.42-21.42-1.57-1.78-5.16-1.86-7.87-2.56s-6.85-.28-8.06-2c-9.4-13.19-25.74-17.57-36.21-29.52-9.89-11.3-21.54-21-31.6-32.23-4.93-5.49-9.85-12.23-11.46-19.17-2.2-9.57-7.57-12.91-16-14-4.16-7.84-13.62-2.77-18.08-6.77-5.28-4.75-10.43-4.61-16.28-4.81-2.85-.1-6.07,0-8.45-1.32-8.25-4.4-15.67-9.53-25.61-11.26-7.72-1.34-15.81-5.66-22.21-11.45-11,.77-13.23-14.72-24.58-13.35-5-5-9.26-11.06-15.1-14.59-5.68-3.43-12.11-5.27-16.58-10.88-3.73-4.68-8.78-8.3-12.57-12.94-4.19-5.14-12.94-7.7-11.46-16.17,1.22-7-4.63-10.24-6.28-15.59C32.72,867.93,25.89,862.09,29,853.47Zm798.32-539.3H830c0-.89.36-2-.07-2.64-1.39-2-3.11-4.45-5.23-.83-.28.48,1.68,2.28,10.83,7a21.52,21.52,0,0,0-2.91-3.43,1.8,1.8,0,0,0-2.55,2.54,12.11,12.11,0,0,0,3.56,2.74C833.83,319.65,834.81,318.37,827.29,314.17ZM330.1,1061q-.24,6.26,6,6c1.3,2,2.17,5,4,5.78,2.27,1,5.33.25,8.05.25,1.29,2,2.17,5,4,5.78,2.26,1,5.32.24,13.57,3.74a22.38,22.38,0,0,0-2.9-3.43,2.59,2.59,0,0,0-2.53,0,2.54,2.54,0,0,0,0,2.52,12.11,12.11,0,0,0,3.55,2.74c.22.12,1.21-1.16-3.63-5.36-1.3-2-2.17-5-4-5.78-2.27-1-5.33-.24-8-.24-1.3-2-2.18-5-4-5.79-2.26-1-5.32-.24-8-.24.15-4.16-1.85-6.17-8.71-6,.9,0,2.14.35,2.59-.1a2.63,2.63,0,0,0,0-2.54c-1.4-2-3.11-4.45-5.23-.83C324.51,1058,326.48,1059.79,330.1,1061ZM643.28,675.53c-9.72,2.45-12.95,9.1-12.07,18.49.17,1.85,0,3.73-42.14,127,0,8,1.06,16.14-.27,23.89-1.63,9.52,10,14.85,6.48,24.55-.4,1.1,1.76,3.12,2.73,4.71,1-1.5,2.83-2.93,3-4.51,2.3-23.08-4.63-46.76,5.74-69.49,2.64-5.78,1.86-14.2,0-20.67-2.58-9.21,7.57-14,6.1-21.49-2.14-10.77,4.86-18.25,8.43-26.59,1.92-4.5,3.67-8.43,4.08-13.34.21-2.54,2.68-4.82,3.68-7.39a54,54,0,0,0,2.12-8.09c.21-1,.42-2.38-.08-2.88a2.84,2.84,0,0,0-2.82,0c-5,4.82-9.94,9.8-14.88,14.73,2.11,8.35-5.85,14.67-5.62,21.31.35,10.32-10.91,16.85-6.91,27.36-8.59,5.39-3.6,14.59-6.19,21.39-2.72,7.12-7,13.32-5.77,21.61.76,4.87.14,9.95,42.3-106.47.93,0,2.63.2,2.69,0,2.24-8.37,11.37-14.07,12.86-29.59a21.44,21.44,0,0,0-3.43,2.91c-.44.54-.07,1.73-.07,2.62.89,0,2.09.37,2.62-.08a12.07,12.07,0,0,0,2.73-3.55C648.76,671.68,647.47,670.7,643.28,675.53ZM247.87,592.12c-.79.87-2,1.58-2,2.31-.16,5.93-.09,11.87-.09,17.8-9.33,6.24-5.23,15.83-6,24.2-.09,1,0,2,0,3a29.18,29.18,0,0,0,5-2.12c1.61-1,2.71-2.95,4.37-3.84,15.89-8.47,15.15-8.14,9.1-23.9-2-5.14-9.06-8.18-6.64-15.19.1-.28-2.46-1.47-11.86,47.74,0-.89.35-2.14-.1-2.59a2.65,2.65,0,0,0-2.54,0c-2,1.4-4.46,3.11-.83,5.24C236.77,645,238.57,643,247.87,592.12Zm856.45,11.09c.64.38,1.77,0,2.7,0,0-2.81.35-5.68-.16-8.38-.23-1.22-2.14-2.19-3.44-3a4.21,4.21,0,0,0-1.85,1.9c-1.15,3.68-1.08,7.19,41.59,136.64,0-4,.77-8.19-.21-11.93-1.14-4.39-4.81-8.21-5.57-12.59-1-5.82-1.32-12.19,0-17.87,1.88-8-5.59-12-6.19-18.56-.45-4.95-.09-10-.09-15-7.49-4.27-5.9-11.66-6.32-18.36-7.64-4.22-3.7-12.71-6.75-18.12-2.32-4.12-5-7.81-6-12.59a3.56,3.56,0,0,0-2.07-2.06c-2.93-1.15-3.22-.09-3.11,2.94.37,10,1.74,20.31-.27,29.88-2.46,11.74,10.62,19.17,6.43,30.55q0,68.92,0,137.86c0,6.85,1.1,13.72-5.79,18.78-1.44,1-.48,5.72-.16,8.68.19,1.77,1.27,3.44,2,5.16,1.33-.8,3.63-1.4,3.83-2.43,2.42-12.16,10.82-21.49,15.18-32.7,1-2.58,2.64-5.09,2.92-7.74.69-6.64-2-14.13,5.49-18.74q.33-11.87.65-23.71C1144.74,746.26,1143,738,1104.32,603.21ZM583,494.85c5,0,10.54,1.37,14.81-.39s6.77-6,12.65-5.87c9.18.27,24.72-6.83,30.59-12.6,6.41-6.3,12.22-13.31,19.2-18.88,7.88-6.28,7.78-17.65,16.69-23.25,9.23-5.8,9.83-18.56,18.93-25.17,3.35-2.44,2.18-8.69,6.22-12.42,2.11-1.95,1.22-7.33,1.38-11.18.13-3.09-2.39-4.37-5.09-2.47-8.42,5.92-18,10.29-27.14,14-10.86,4.44-16.61,13.14-24.76,19.75-8.54-1.22-11.57,6.32-16.53,10.63-4.51,3.91-8.08,11.26-12.86,12-8.72,1.35-8.46,8.41-12.39,12.8-8.64,9.65-18.19,18.5-27.36,27.67-2.11,2.12-4.64,4-6.15,6.47-.89,1.45.19,4-.25,5.87-.7,3.06,0,3.64,3.1,3.12,2.91-.5,6-.11-3,2.58,0-.9.35-2.15-.09-2.59a2.62,2.62,0,0,0-2.55,0c-2,1.39-4.45,3.11-.83,5.23C568,500.43,569.81,498.46,583,494.85ZM689.87,1145.3c21,0,42,.14,63.07-.08,6.62-.07,14.2,2.55,18.91-5,6.89-.3,13.78-1,20.65-.8,7.06.18,10.48-8.66,18.6-6.35,5.76,1.63,10.69-1,16-5,3.9-2.88,11.55-.47,17.48-1,1.57-.14,2.74-2.84,4.43-3.68,5.8-2.89,11.78-5.4,17.62-8.2,13.38-6.41,26.21-13.86,39.91-19.68,5.89-2.5,8.13-11.61,16.72-10.42,11.37-15.14,30.36-21.21,42.32-35.89,7.55-9.27,16.81-17.14,25.31-25.64,2.84-13.72,15.47-19.66,23.35-29.37l8.47-20.53c0-1,.39-2.39-.11-2.89a3,3,0,0,0-2.85,0c-3.13,2.08-5.62,4.64-9.34,6.42-6.63,3.16-14.6,4.36-19.72,10.48-8.19-1.07-12.19,8-21.1,7.8-6.56-.18-13.94,5-19.76,9.39s-14.34-1.83-18.72,6c-.69,1.23-3.29,1.62-5.09,1.94-11.19,2-23.93-4.68-33.54,6.06-12,0-24,0-36.05,0-1.94,0-4.88-.48-5.66.55-6.85,9-16.5,4.31-24.89,5.37-4,.5-8-.26-12,.21-2.69.32-6.12,1-7.7,2.86-8.33,9.75-22.29,12.12-29.68,23.13-1.36,2-4.8,2.64-7.23,4-8.91,5-15.42,14.89-27.67,13.26-1.2-.16-2.77,2.66-4.22,4-3.49,3.3-6.14,8.12-12.21,6.79-9.45,7.89-21.14,12.09-31.83,17.54s-21.88,10.26-32.18,16.31c-6.7,3.94-16.71-1.58-20.83,8.09-.17.4-1.85.17-2.83.22-7.64.34-16.15-2.42-21.53,6-9.71-3.81-15.77,6-24.35,6.57-.75,0-1.42,1.33-2.13,2,1.25,1.15,2.43,3.17,3.76,3.28,5,.39,11.55-1.89,14.72.53,10.66,8.12,22.43,5.25,33.84,5.54,16,.41,32,.11,384.4-180.08a21,21,0,0,0-3.43,2.91,1.8,1.8,0,0,0,2.55,2.54,12.07,12.07,0,0,0,2.73-3.55C1028.18,966.79,1026.9,965.81,689.87,1145.3ZM863.1,982.69h27.09c7,0,15.33,2.32,20.7-.66s9.68-5.54,15.93-5.53c5.75,0,8.43-7.66,15.31-6.86,2,.23,4.74-5,6.74-4.73,12,1.62,21.32-2,28.47-11.86.73-1,3.77-.2,5.7-.51,2.79-.45,5.88-.53,8.23-1.86,5-2.82,7-8.94,13.79-10.48,6.16-1.41,11.86-5.28,17.42-8.63,4.83-2.91,7.09-8.6,14.21-9.67,4.82-.72,8.64-6.17,10.52-12.65,2.27-7.87,7.61-14.85,11.63-22.22-2.89-10.27,10.48-17,6-27.6,5.64-3.78,7.63-9.48,5.84-15.5-2.41-8.08,6.16-11.81,6.2-18.63,0-7,0-14,0-21.06,0-8,.71-16.14-.21-24.06-.88-7.55,7.46-10.41,6.7-18.63-1.56-16.91-.47-34.07-.47-51.12V686.36c-10.69-14.08-4.26-30.41-6-45.66-.44-3.84.65-9.36-1.48-11.22-5.87-5.13-2.54-7.74,1.27-11-3.14-3.59-6.45-6.61-6-12.48.72-10,.12-20,.07-30-10.11-7.49-4-18.44-6.08-27.62-.79-3.45-4.85-6.19-5.57-9.64-1-4.8,0-10-.39-15-.12-1.66-1.6-3.44-2.87-4.76-7-7.2-14-14.27-21.08-21.38-.08-11.89-10.79-16-17.4-22.76-8.75-8.9-17-18.05-28.83-24.35-11-5.85-18.75-17.8-28.14-26.84-1.14-1.09-3.63-.93-5.51-1a4.36,4.36,0,0,0-2.51,1.08c-.69.53-1.73,1.89-1.61,2,5,5.77,12.43,9.87,12.68,18.86,8.39,4,2.88,12.77,6.39,18.41s7.12,11.09,10.56,16.71c.45.73.12,1.94.16,2.93.32,7.66-2.35,16.16,6,21.58.89,8.69-2.94,18.33,2.58,25.94,6.08,8.39,2.52,17.2,3.29,25.75.71,8-.22,16.06.37,24,.18,2.45,4.45,4.82,4.27,7-.25,3.12-4.19,6-4.27,9.08-.46,17-.22,34.1-.22,51.15,8.72,7.74,5.37,18.1,6,27.6.54,7.58-2.74,16.23,5.85,21.64-.6,6.73,2.87,14.4-2.07,20-3.66,4.15-3.14,6,.62,8.77a3.86,3.86,0,0,1,1,2c-7.54,4.68-6,12.29-5.17,18.86.85,7.06-2.93,12.18-5,18.07,6.87,4.33,2.41,7.44-1.15,10.64,2.36,8.44-3.91,14.41-5.94,21.59-3.63,12.89-12.09,31.07-21.81,42.1-1.81,2-2.67,2.85-.84,4.36,7.5,6.23,2.5,6.79-3.25,7.49-1.5.19-2.79,2-4.17,3.13,8.66,4.57.5,8.69.11,13.21-.72,8.47-9.52,10.29-11.57,16.36-1.61,4.77-3.19,8.73-6.62,12.42-1.69,1.81-.84,5.87-2.43,7.89-7.73,9.86-20.17,16-23.27,29.53l-29.8,29.79c-5.67,5.68-11.35,11.35-17,22.72,0-.89.35-2.14-.09-2.59a2.67,2.67,0,0,0-2.55,0c-2,1.4-4.45,3.12-.83,5.24C863.13,988.27,864.92,986.3,863.1,982.69ZM672.44,478.29c4.29,6,8.61,4.44,12.36,4.45,30.08.12,60.19.79,90.24-.33,10.36-.39,17,10.87,27.6,6.42,3.63,4.33,10.05,6.66,9.35,14.08-.45,4.83-.41,8.32,6.56,10.5,10.49,3.27,20,9.82,29.87,14.92,6,3.06,4.28,10.56,8.52,14.52,12.21,11.39,16.53,25.43,15.35,41.87-.54,7.58-2.65,16.19,5.87,21.56-1,6.7,3.27,15.09-2.41,19.87-6.61,5.57-.15,13.93-6.1,18.74-6.84,5.52-3,13-3.38,19.61-.69,13.59-2.39,20.4-13.9,33.27-3.63,4.06-3.25,8.86-6.06,12.68-3.39,4.63-9.93,6.71-10.4,13.77-.37,5.74-8.19,8.5-6.65,15.26-5.37,2.89-10.67,4.18-13.13,12.17-2.09,6.78-10,12.38-16.44,17-6.88,5-5.38,14.43-12.47,19.19C781.53,791.69,777,797.23,772,802c-11.43-2.61-6.16,10.19-12.09,13.1a83.94,83.94,0,0,0-16.62,10.62c-6.13,5.13-10.63,12.71-17.37,16.44-5.91,3.28-12.54,5.31-16.3,11.16-4.58,7.12-14.18,7.28-18.51,13-5.79,7.63-16,6.89-21.44,14.49-5.22,7.33-14.7,7.82-22.12,11.68a25.22,25.22,0,0,0-8.71,7.71c-1.33,1.92-1.71,6.16-.46,7.76,1.38,1.77,7,3,7.5,2.26,3.64-5.5,11.11-4.19,14.68-8.36,4.9-5.74,11.67-1.29,16.4-4.21,18.28-11.27,37.78-20.14,57.18-29.12,5.84-2.7,8.38-10,13.48-10.69,9.81-1.37,13.13-11.78,21.59-13.42,6.82-1.31,8.91-7.47,13.84-10.34s11.42-2.84,14.44-8.62c3.12-5.94,10.22-4.53,14.66-8.37,8.12-7,13.56-16.87,24.25-21.24,11.37-4.65,17.61-15.63,26.27-23.64,9.56-8.84,18.66-18.2,27.69-27.61,8.18-8.53,17.51-16.49,23.54-26.41,5.88-9.67,10.41-20.12,18.5-28.35.48-7.91,5.51-14.35,9.58-19.94,4.52-6.2-1.05-13.87,5.71-19,6.38-4.83-1.06-16.36,8.63-20.37-1.47-7.41,3.79-15.79-3.74-22.49-1.72-1.54-2.18-5.36-2-8,.58-7.19-2.15-12.61-5.55-18.91-2.94-5.43-.45-13.71-.73-20.72-.07-1.68-1.93-3.2-2.47-4.95-2.72-8.88-11.4-15.62-9.46-26.17-9.7-5.69-1.65-19.72-11.84-25.18,0-6.85,0-13.13-5.81-18.91-2.5-2.48-.48-9.6-.4-14.61s-.28-9.13-4-13.56c-2.49-3-1.26-9.11-1.45-13.84,0-.68,1.21-1.7,2.06-2,.49-.18,1.76.61,2,1.24,2.93,6.81,5.33,13.88,8.68,20.46,3,5.84,9.66,11.06,9.88,16.74.31,8.3,4.08,14.46,6.72,21.52,2.27,6.06,7,10.76,6.79,18.52-.14,5.7,5.18,11.67,8.58,17.2.55.9,4,.64,5.72,0,1-.38,2.21-3,1.79-3.94-1.11-2.56-4.15-4.63-4.44-7.12-.68-5.94-.2-12-.22-18,0-6.83-8.81-10.59-6.15-18.61,1.56-4.72-4.49-6.1-5.74-9.55-1.62-4.44.82-9.19-2.14-14.21-8-13.6-15.6-27.59-21.67-42.12a25.74,25.74,0,0,0-8.52-11.36c-5.37-3.87-2.65-11.16-8.16-15-3.6-2.52-2.58-8.45-6.19-12.48-3.87-4.32-9.58-2.19-12.74-6.07-4.44-5.45-11.93-5.07-17.24-9.61-4.66-4-13.85-3.38-17.39-7.75-5.69-7-14.32-1.44-18.61-6.25-4.86-5.44-13.73-3.12-17-10.33-.18-.39-1.9-.21-2.88-.08-6.4.9-11.61-.65-15.53-6.27-1.62-2.33-4.53-5.71-6.53-5.5-13.55,1.42-22.12-10.18-34.15-12.34-5.59-9.82-19.69-1.83-25.12-12l-18-.05c-4.49-7.25-11.64-6.25-18.57-6-2,.06-5.07.59-5.72-.38-6.43-9.63-18.24-1.66-24.22-6.72-8.31-7-16.83-4.46-25.24-4.66-7.17-.16-10.4-8.57-18.64-6.6-6.64,1.58-14,.32-21,.32-12.86-11.59-28.46-3.78-42.65-5.93-3.92-.6-9.68,1.62-11.74-.38-11.23-10.91-24.94-2.77-36.82-6-8.44-2.3-10.25,8.58-18.73,6.71s-18-.44-27-.41-18,.11-27,.17c-6.37,9.75-16.27,5.36-24.67,5.6-8,.23-12.57,10.73-21.56,6.27-4.43,3.84-9.73,7-13.07,11.66-4.42,6.11-6.33,13.78-12.79,18.86-2.54,2-2.07,8-4.63,9.76-5.53,3.82-2.76,11.4-8.27,14.88-7.76,4.89-7.81,15.19-14.21,21.14,1.66,10.46-13.71,11.63-12.05,22.09-11.74,16.94-17.61,37-28.89,54.26-3.48,5.31-4.89,12-7.24,18,6.17,7.38,14.57,3.5,21.85,3.77,18,.66,36.11.59,54.14,0,7.31-.22,12.56,3.3,18.78,5.67,6.78,2.6,12.53,10.44,21.37,6.56l13.14,11.84c10.8-2.14,13.25,9.85,21.73,13s14.93,12.33,22.2,18.92c2.23,2,4.25,4.27,6.41,6.36,5.14,5,10.93,5.54,18.41,1.78,4.15-2.08,9-3.45,12.21-6.56,4.34-4.28,9.59-1.68,13.71-3.48s7.7-5.74,10.78-9.36c1.67-1.95,1.08-5.85,2.76-7.75,5.31-6,10.76-12,17-17,7.18-5.67,9.13-14.72,14.91-20.93,12.3-13.2,26.35-24.85,37.88-38.64,12.21-14.6,30.22-21.68,42.64-35.78,2.86-3.25,8.44-3.93,12.11-6.67,4-3,6.71-7.74,10.85-10.33,6.26-3.91,13-7.73,20-9.45,4.84-1.19,8.88-3.92,13-5,7.32-1.92,14.19-4.82,21.25-6.82a38.45,38.45,0,0,1,24.56,1.18c0,9.66,1.73,19.95-.58,29.24-1.67,6.69-4.82,14.27-10.69,19.63-1.07,1-1,3.77-.7,5.6.94,5.65-1.8,9.35-5.77,12.72-2.27,1.94-6.23,4.44-6,6.34,1.2,11.49-14.88,13.44-13.14,24.81-7.09,7.09-14.07,14.3-21.33,21.21C678.64,474.3,675.23,476.25,672.44,478.29ZM447.54,151.56H368.68c-5,0-10,0-15.05,0-.95,0-2.43-.1-2.77.43-5.58,8.69-14.57,6.32-21.77,5.21-12.46-1.92-21.47,7.38-33.19,8.05-5.74.32-10.86,7.15-16.78,9.89-5,2.32-11.14-1.13-16.52,4.12-4.38,4.27-11.85,5.15-17.34,8.52-16.77,10.29-37.32,14.2-50.8,30-11.35-1.68-13.46,14.46-24.78,12.86-4.74,5.05-12,9.45-13.57,15.34-1.75,6.7-6.25,9.72-9.9,14-3.23,3.82-6.52,8-10.7,10.49-5.28,3.13-3,8.86-6.15,12.7-13.62,16.85-19.07,28.93-28.34,57.47-1.38,4.25-7.77,6.74-5.74,12.6,2.46,7.12-5.73,9.44-6.42,15.55-.71,6.3-6.12,11-6.31,18.6-.15,5.86-7.87,11.31-5.26,18.53,3,8.23-6.59,11.22-6.51,18.63.09,8.35,4.18,18.24-5.34,24.73-.11,9-1.38,18.15,0,26.91,1.48,9.59-8.43,15.11-6.59,24.69,1.31,6.77.26,14,.26,21v18c0,7,1.2,14.32-.31,21-1.85,8.16,5.64,12,6.38,18.64,1.27,11.33-4.13,23.87,6,33.63,0,7,1.27,14.35-.31,21-2.12,9,8,12.91,6.73,21.71-1,7.23-3.57,16.16,4.9,21.83-.57,8,2.76,14.6,6.6,21.37,3.68,6.52,9.14,13.06,6.11,21.47-2.92,8.1,9,10.44,6.73,18.54-.55,1.93,2.9,2.93,3.9.95,3.07-6.08,11-2.94,14.77-8.35,3.41-4.85,8.23-8.75,12.63-12.86,3.46-3.23,5.9-7.58,12-7.47,7.38.14.82-12.5,9.53-11.76,6.38.54,8.49-8.26,15.66-6.47,1.53.38,5.34-3.44,6.14-6,2.57-8,9.88-13.85,9.26-23.38-.36-5.65-3.1-12.8,1.79-17,5.85-5.09,4.85-11.34,3.63-16.47-2-8.26,9.42-10.35,6.57-18.73-3.75-11,9-19.1,6.6-30.23,6.12-5.1,8.73-12.76,10.78-19.56,2.22-7.36.22-15.92.67-23.92.15-2.57,1.94-5.24,3.5-7.5,3.74-5.43,3.48-10.87.45-16.3-.93-1.69-3.85-2.84-3.93-4.34-.41-8-.22-16-.24-24-9.64-6.35-5.51-16.19-5.81-24.63-.55-15-.2-30.09-.14-45.14,0-7,.25-13.94.38-20.9,8.76-5.47,4.74-14.24,5.65-21.75.11-.92.2-2.33.77-2.62,6-3.1,4.33-10.37,8.29-14.77,3-3.35,3.88-8.55,6.7-12.14,3.69-4.7,9.12-8.12,12.41-13,3.09-4.61,2.9-11.88,8.8-14.19a51.8,51.8,0,0,0,18.88-12.8c1.66-1.73,5.57-1.06,7.93-2.39,5.73-3.23,12-6.18,16.48-10.77s11.38-4.74,14.36-8.6c5.48-7.08,12.94-2.29,19-5.78,14.4-8.29,20.75-14.61,31.17-28.84,7.89-10.78,13.46-23.09,23.48-32.59C404.35,195.5,423.85,175.25,447.54,151.56Zm80.92-18.45c7.92.41,16.73-1.53,21.47,6.4,10.24,1.41,21.77-4.23,30.68,5.47.15.15,4-3.11,6.13-4.78,3.75,6.3,10.28,4.16,15.72,5.72,5.11,1.46,9.75,5.11,14.93,7.36,3.36,1.45,5.76,4.56,10.25,4.49,3.68-.05,22.52,9.61,24.89,12.2,3.5,3.83,7.41,5.13,12.65,6.08,8.12,1.47,16.33,4.36,22.5,10.81a29.34,29.34,0,0,0,11.93,7.53c5.16,1.85,9.33,6.37,15.8,5.48,1.61-.22,4.32.72,5,2,4.69,8.38,15.82,7.83,20.84,14.93,4.38,6.19,12.54,5.29,16.75,10.56,5.42,6.81,11.69,10.36,20.6,8.78.78-.14,2.89,2.75,3,4.35.35,4.31.85,7.64,6.46,7.55,5.92-.09,8.39,8.53,15.31,6.49,3,6,10.58,4.12,14.51,8.5-2.52,9.37,6.19,7.3,10.09,10.48,8.45,6.9,14.7,17.66,24.09,22,11.57,5.3,18,15,26.55,22.66,4,3.55,5.9,9.36,8.75,14.15,7.6-1.76,10.17,5,14.4,8.72,4.51,4,8.55,8.45,12.81,12.68,5,4.93,10,9.82,14.94,14.73,7-2.58,9.21,6.22,15.54,6.22,8.39,0,9.25,13.13,19.08,12,1.41-.16,3.08,2,4.62,3.14,9.38,6.71,13.75,19.86,27.28,21.25l27.63,27.63c2.12,2.13,3.93,4.84,6.47,6.2,2.27,1.23,6.13,2.17,7.83,1s3.37-6.64,2.53-7.38c-6-5.26-6.93-11.79-5.68-18.79,1.08-6-4.52-8.48-5.75-12.67-1.63-5.52-.26-11.87-.82-17.81-.14-1.53-4-3.06-3.83-4.23,1-6.62-11.94-11.27-2.59-18.81-3.33-4.34-3.66-11.42-7.16-14.08-7.16-5.46-.71-14-6.12-18.75s-3.71-13.08-10-17c1.38-7.28-4-12.67-5.29-18.7-1.46-6.71-4.13-12.35-6.45-18.51-2.6-6.89-9.93-12.68-6.33-21.44-6.27-3.88-5.31-11.84-9.77-17.11-4-4.76-5.09-11.91-8.43-17.4-3.9-6.4-4.41-15.09-11.08-19.36-6.5-4.15-6-11.78-10.29-17-4.12-5-4.42-12.74-10.84-16.46-5.58-3.23-2.4-11.52-8.48-14.54-6.82-3.38-5.92-11.84-10.65-16.61-7.75-7.83-15.58-15.6-23.37-23.39L864.25,92.48c-12.15-1.43-16.87-12.61-25.25-19-1.27-1-5.17.55-5.67-.33-3.8-6.69-11.81-5.78-17.2-10-5.55-4.38-15.49-.28-20.61-7.93C788.1,57,783,51.3,776.85,49.58c-6.51-1.81-13.91-.41-20.92-.41h-24c-8,0-16.27,1.21-24-.3-9.7-1.89-16.3,6.49-24.6,6-8.46-.54-14.81,5.39-21.61,5.64-8.41.32-13.39,8.08-21.49,6.84-4.32,10.44-17.64,1.67-22.66,10.61-10.83,3-20.45,9-30.27,13.91s-21.17,8.42-29.38,16C548.84,116.23,535,118.56,528.46,133.11ZM284.72,650.58c-2.64,5.62-7.71,5.74-12,7.73-5.13,2.36-9.46,7.56-12.78,12.45-3.76,5.56-10.88,3.43-14.85,8.27-4.42,5.41-9.94,9.91-14.73,15-3.88,4.16-4.28,10.15-8,14.94-2.91,3.79-1.69,11.79-.41,17.51,1.63,7.25-6.62,9.38-6.36,15.62.33,8,.08,16,.08,24.07v48.14c0,9,.6,18.11-.18,27.06-.73,8.27,9.11,12.33,6.6,21.71-2,7.48-1.07,16-.13,23.93.51,4.36,4.46,8.22,5.56,12.63,1.16,4.68-1.11,11.58,1.48,14.24,5,5.14,2.94,11.29,5.19,16.1,2.78,6,8.78,10.48,13.57,15.45,6.27,6.5,12.71,12.82,19,19.15h63.33c23.07,0,46.14,0,69.2-.09.72,0,2.16-1.56,2-1.95-.52-1.43-1.41-3.67-2.42-3.82-5.63-.84-11,.59-16.49-4.34-5.21-4.66-14.15-5-20-9.17-7.23-5.21-13.08-12.38-19.3-18.92-2.62-2.76-7-6.47-6.55-9,1.39-7.89-5.88-12.3-6.22-18.66-.75-14-.3-28.07-.15-42.11,0-1.75.67-4.27,1.91-5.1,6.5-4.34,1.4-12.38,4.58-16.06,4.4-5.1,3.91-10.7,6-15.77,2.9-7.05,4.06-14.61,6.86-21.22,5.41-12.74,13.91-24.17,18.62-37.43.74-2.08,6.15-2.52,1.9-6.44-5.9-5.43-11.13-11.6-17.16-16.87s-5.3-14.44-12.59-19c-6.67-4.2-9.19-11.87-13.18-18.43-5.55-9.13-16.84-13.93-21-24.45C301.83,665,291.43,660,284.72,650.58ZM637.25,835.09c0,9,.2,18.07-.09,27.09-.12,3.79,1.67,5.53,4.83,6,1.75.24,4.18-.1,5.41-1.2a110.45,110.45,0,0,0,12.76-12.74c4.49-5.55,13.48-3.32,16.81-10.54,2.8-6.09,10.4-4.31,14.52-8.51,9.13-9.31,19.06-17.93,27.47-27.84,9-10.65,23.27-14,31.91-25.26,10.66-13.88,26.33-23.21,34.35-40,3.95-8.25,14.57-12.87,16.55-23.28,9.81-5.79,11.35-17.6,18.67-25.62s11.14-19.23,15.27-29.55c1.73-4.32-1.68-11.42.74-14.59a26.77,26.77,0,0,0,5.91-15.88c.27-4.3,5.12-8.3,5.41-12.6a274.93,274.93,0,0,0,0-36.08c-.29-4.3-4.94-8.26-5.43-12.61-.58-5.14-1.51-9.1-5.3-13-5.49-5.7-12.39-8.78-18.69-13-6.88-4.62-13.42-2.31-20-2.62-11.86-.55-24.58,5-33.37,13.7q-15,14.77-29.79,29.81c-2.72,2.76-5.7,5.58-7.44,8.95-3,5.74-4.62,12.16-7.6,17.9s-5.91,12.51-10.8,16.38c-6,4.72-4.62,12.61-10.18,17.23-2.52,2.09-2.06,8.21-4.62,9.76-8.3,5-10.3,14.36-14,21.58-3.54,6.94-11.06,14.32-7.15,24.06-7.43,4.32-3.7,13.22-7,18s-3.52,11.26-8,14.84c-5.82,4.66.07,13.22-4.4,16-8.62,5.44-1.33,15.36-8.11,21.14-6.08,5.19-2.73,13.28-2.35,19.82.49,8.33-8.45,12.84-6.62,21.66C638.37,820.81,637.25,828.07,637.25,835.09Zm165.81,147.6c6.21-6.27,12.82-12.41,18.79-19.13S837.72,957,843.07,949c4.36-6.53,11.06-11.5,16.73-17.16s11.39-11.26,17-17c6-6.19,11.83-12,15.52-20.58,2.76-6.44,10.05-11.28,12.08-19C917.93,865,917.28,845,931.9,835.47c.53-.35.68-1.94.41-2.74-2.63-7.75,5.32-12.11,5.9-18.56.53-6,8.6-8.55,6.44-15.41,4-3.26,7.25-7,5.72-12.61-1.9-6.86,7.74-9.07,6-15.52-1.8-6.81,5.79-10.58,5.6-15.52-.29-7.59,5-12.38,6.16-18.61,1.4-7.76.59-16,.17-24-.11-2.15-2.25-4.2-3.46-6.29-.8,1.67-2.14,3.29-2.29,5-.4,4.79,1.27,10.17-4.07,13.35-6.38,3.79-7.4,10.9-10.55,16.67-3.65,6.68-6.68,13.39-12.6,18.91-15.37,14.33-29.9,29.55-44.76,44.42-2.84,2.83-5.35,7.6-8.56,8.13-9.87,1.62-14,10-20.89,15.11s-15.54,7.53-20.83,14.93c-7,9.76-17.63,14.41-28,19.45-2.51,1.22-5.26,2.22-7.33,4-5.25,4.48-9.66,10.14-15.38,13.83-5.33,3.44-12.22,4.38-17.85,7.46s-7.91,11.91-16.56,10.84c-3.65,6.6-11.8,5.39-17,9.92-4.7,4-11.67,5.37-17.49,8.19s-11.52,6-17.28,9-11.59,8.49-17.29,8.36c-7.74-.17-12.24,5-18.54,6.67a52.41,52.41,0,0,0-5.2,1.92c1.42,2.13,2.48,4.68,4.35,6.26,2.07,1.74,4.9,2.58,7.37,3.84,10.77,5.47,20.71,13.06,33.57,13.21,4.1,9.47,15,1.28,20.74,8.29,5.55,6.77,16-1.39,21.89,4.56,6.95,7,15,3.27,22.46,3.85C782.73,983.27,792.79,982.69,803.06,982.69ZM679.33,512.9c-8.13,1.71-16.7-2.41-25.36,3.7-8.22,5.79-19.24,1.34-29,2.42-1.76.2-3.47,1.3-5.07,2.2-5.69,3.21-11.13,8.65-17.05,9.21-7.14.68-12.69,3-18.55,6.46-6.38,3.73-13.5,6.18-19.9,9.88-4.85,2.8-10.47,3.54-15,7.85-2.65,2.5-9.67,1-14.57.32-6.75-1-11.39,1.46-15.46,6.48-2.51,3.1-8.25,6.06-7.94,8.48.93,7.1-7,9.36-6.72,15.53.23,5-1.16,10.47.5,14.84,2.28,6,6.82,11.18,10.28,16.77s-1.31,13.45,6.08,18.78c3.93,2.83,6.13,9.51,6.95,14.79.91,5.88,1.08,10.89,5.67,15.95,3.32,3.66-1.42,11.2,4.45,16.12,5.21,4.36,1.06,11.32,2.29,17,.39,1.78.9,4.25,2.17,5,7.61,4.46.34,13.74,6.28,18.53,6.84,5.52,2.34,13.05,3.52,19.57.6,3.28,2.09,5,5.73,5.17s5-1.67,6.4-4.53c4.86-10,7.25-21,11.61-31.25,4.77-11.26,8.31-21.6,14.71-30a23,23,0,0,0,3.67-7.47c5.33-18.39,6.16-20.18,15.5-29.63,7-7.13,14.15-14.18,21.24-21.26L653,602.56c7.79-7.79,16.32-15,23.15-23.54,6.38-8,16.3-10.18,23.21-16.84,5.76-5.56,11.09-11.6,17.08-16.9,6.66-5.87,6.22-16.37,14.72-21.09,4.85-2.68-.38-4.41-1.61-6.2-4.85-7.06-11.59-6.09-18.3-3.63-1.71.63-2.88,2.72-4.3,4.13C699.16,510.17,688.94,513.68,679.33,512.9Zm137.5-206.6c-.59-1.32-.89-3-1.87-4-5.56-5.78-12.6-10.6-16.6-17.27-4.39-7.32-19.22-3.1-17-16.42-5.82-2.87-11.41-6.52-17.55-8.35-4.46-1.34-9.75.76-13.3-4.34-6.86-9.86-17.32-15.6-27.89-19.63-10.39-4-18.63-13.14-30.94-12.64-2.38.1-5.19-2.15-7.25-3.94a49.72,49.72,0,0,0-14.36-9c-11.92-4.88-22.77-12.28-34.83-17.48A191.63,191.63,0,0,1,613,181.67c-9.38,2.84-15.05-8-24.63-6.45-3.75.61-8.1-4.32-12.5-5.44-8.21-2.08-17,2.5-25.27-4.8-6.08-5.38-17.93,3-24.08-6.73-16.82-1.6-32.61-3.2-45.35,13.2-11.59,14.91-26.54,27.22-40,40.7-4.94,4.94-12.74,9.32-14,15.09-1.74,8-7.56,11.12-11.47,16.44a2.44,2.44,0,0,0-.34,2.07c.45.84,1.34,2.06,2.05,2.07,12,.13,24,.1,36.07.1,9.46-11.64,22.37-4.23,33.6-5.81,7.86-1.1,16-.21,24-.21h21c8,0,16.25,1.17,24-.31,8.84-1.69,14.39,4.82,21.65,6.1,11.2,2,23.73-3.52,33.53,6.25,6,0,12.16-.78,18,.23,5.36.93,10.25,4.64,15.62,5.57,5.83,1,12.34-1,17.89.59,5.21,1.5,9.69,4.77,15.49,6.26,9.19,2.38,17.75,7.73,27.69,5.32,8.59-2.09,14.72,2.93,21.58,6.12s13,8.48,21.57,6.09c4.35-1.22,7.08,3.39,10.2,4.07,8.33,1.8,14.06,10.13,23.92,8.24,4.25-.82,6.51,7.17,12.49,5.74,5.47-1.3,9.26,1.56,12.85,5.41,1,1,3.75.6,5.68.48C815.09,308,815.83,307,816.83,306.3ZM361.4,1000.75c-15,0-30.07-.08-45.1.15-1.32,0-2.61,2.1-3.92,3.22a12.85,12.85,0,0,1,2.1,2.14c4.81,8,16.76,5.9,21,14.86s15.15,8.08,20.94,14.83c3.91,4.55,8,11.44,12.79,12.14,7.05,1,9.81,5.91,14.49,9.08a140.22,140.22,0,0,0,17,9.75c5,2.43,10.32,4.1,15.51,6.1,4.34,1.68,6.67,7.89,12.52,6,7-2.3,9.86,5.11,15.52,6.29,4.41.91,8.46,3.7,12.58,5.82,11.57,6,22.51,14.58,34.78,17.36,13.35,3,27.92.66,41.95.71,4.45,0,6.14-1.55,7.76-6.31,2.45-7.16,6.72-13.26,5.89-21.72-1.06-10.93-.26-22-.26-33.06,11.83-17.13,4.06-36.43,5.8-54.66.52-5.47,3.34-14-3-16.16-5.73-1.92-13.58-2.74-20,1.48-2.32,1.52-4.77,3.17-7.4,3.84-8.27,2.1-18.09-4.17-25.15,4.68-9.82.48-19.65.94-29.47,1.46-.92,0-2.19.1-2.69.68-8.87,10.28-20.64,3.41-30.93,5.2-5.76,1-11.74.77-17.62,1.09-4.73,7.66-12.36,4.79-19,5C385.47,1001,373.43,1000.75,361.4,1000.75ZM546.86,895.3c.08-14.45,0-25.24,0-36-6.56-3.92-5.14-8.27-.69-12.79-7.54-4.66-4.94-12.18-5.33-18.86-.35-5.88,1.48-13.58-1.56-17.2-4.58-5.46-3.86-10.69-4.57-16.42-.93-7.56,2.33-15.36-3.22-22.79-5.68-7.61-1.71-17.23-2.76-25.9a3.74,3.74,0,0,0-1.73-2.25c-6.74-4.1-4.89-11-3.89-16.27,1.38-7.28-6.48-9.36-6.55-15.63-.08-6.54,2.65-13.7-4.28-19.34-4.71-3.84.42-10.93-4-16.42-3.86-4.73-4.68-12-6.73-18.14-3.29-9.92-4.53-20.78-14.69-27.25-1.36-.87-.42-5.75-.13-8.73.38-3.81-1.7-5.51-4.89-5.86-1.76-.2-4.29.14-5.36,1.28-3.21,3.43-1.39,9.36-6.42,12.43s-6.86,8.66-9,14.25c-1.62,4.28-7,7-10.12,10.91-1,1.22-.57,3.85-.37,5.78a11.74,11.74,0,0,1-3.92,10.51c-5.43,5.28-12.52,19.8-14.25,27.16a32.92,32.92,0,0,1-2.93,7.8c-6.55,12.33-12.21,25.11-19.1,37.25-2.84,5-3.25,7.78.32,10.16,11.89,7.94,15.36,22.4,25.4,31.76,9.54,8.89,18.52,18.37,27.74,27.6l29.81,29.8q17,17,34.06,34.06C533.13,881.58,538.54,887,546.86,895.3ZM453,934.5h18c6,0,12.39-1.32,17.9.32,8.37,2.48,10.81-9.32,18.6-6.34,7,2.69,9.58-5.3,15.44-6.35,6.43-1.14,6.28-2.29,2.43-6.14q-60.42-60.47-120.88-120.9c-1.41-1.41-2.63-3.64-4.29-4.05-2.53-.62-6.34-1-7.88.35-3.42,3.11-8.68,5.45-8,11.54.56,5.15-1.48,8.85-4.56,13.2-5.28,7.49-5.55,17.93-13,24.52-.17,9.93-.41,19.85-.49,29.78s.37,20-.17,30c-.3,5.61,1.91,9.22,5.77,12.71,4.45,4,8.46,8.51,12.83,12.62,1.31,1.23,3.6,3,4.77,2.56,11.52-4,19.76,6.86,30.57,6.32C431,934.07,442,934.5,453,934.5Zm118,135c0,10-.36,20,.23,30,.17,2.9,3.1,4,5.76.83a9.4,9.4,0,0,1,4.66-3.09c6.49-1.47,14.2,3.25,19.6-3.37,4.6-5.61,12.37.4,16.14-4.33,4.57-5.72,13.64-3.23,16.83-10.44,7,2.68,9.47-5.46,15.48-6.34,10.73-1.56,31.52-11,37.78-17.13s14.32-9.43,22-12.25c5.3-1.93,8.37-7.4,15.29-7.3,3.49.06,6.48-7.87,10.76-9.63,5.43-2.24,10.7-4,14.35-8.85.51-.67,1.47-1.59,1.3-2.08-.29-.85-1.27-2-2-2.07-5.93-.34-12.27-1.85-17.7-.29-8.37,2.39-10.72-8.5-18.67-6.53-8.84,2.19-14.69-10.27-24.51-6-.34.15-1.24-1.57-2.09-2-9.24-4.36-17.36-11.38-28.65-10.88-2.52.11-4-7.13-8.54-1.86-3.26,3.78-7,7.18-10.57,10.66-5.29,5.11-11.54,6.22-18.3,2-6.4-4-14.23-5.39-19.06-12.45-3.88-5.69-9.54-10.23-14.76-14.88-1.15-1-4-1-5.66-.37a6.57,6.57,0,0,0-3.55,4c-2.92,13.15,5.54,27.72-5,40.07-.39.46,1.09,2.92,2.1,4.09,4.45,5.16,4.06,11.11,1.07,16.16-2,3.35-4.68,5.77-4.45,10.27C571.3,1053.41,571,1061.44,571,1069.45ZM455.52,573.15c-2.2,0-4.63-.74-6.13.13-5.82,3.36-11.21,7.65-18.61,5.89-5.09,7.74-16.25,3-20.39,8-6.23,7.52-14.84,1.44-21.54,7.5-6.46,5.84-16.51,8-24.36,13.16s-18.19,5.19-24.7,12.85c-11.34-1.76-13.31,14.67-24.8,12.91-.35-.05-2,3.42-1.56,3.94,3.28,3.77,9.14,6.78,9.94,10.86,1.06,5.37,3.6,8.62,6.83,12.35,6.9,7.95,16.11,13.47,19.82,24.86,2.21,6.8,10.6,11.58,16.21,17.27-1.14,10,8.5,12.56,13,18.58,3.2,4.24,8.69,2.69,11.05-2.43,4.65-10.09,8.61-20.58,14.12-30.18,5.1-8.9,7.93-19,14.65-27,.1-12.09,17.61-16.26,13.83-30.63-.55-2.09,4.31-6.48,7.49-8.51,7.93-5.09,10.47-13.93,14.26-21.3,3.14-6.11,5.83-12,11.16-16.32,3.57-2.87,1.22-4.54-.77-6.42C462.28,576,460.12,572.23,455.52,573.15ZM99,808.81C85.81,815.44,84.14,830,74.32,838.23c-1.87,1.56-2.93,5-3.06,7.58-.38,8,.18,16-.25,24a14.84,14.84,0,0,0,5.32,12.89c6.64,6,13.81,11.91,18.87,19.18,5.48,7.87,15.54,7.74,21.12,14.6,6-1.7,8.66,5.29,12.52,5.5,5.82.33,8.17,5.41,12.51,6.31,7.6,1.57,13.84,6,19.89,9.76,6.68,4.16,16-.74,21.16,7.74,1.15,1.88,7.61,1.36,11.28.48,1.73-.42,3.18-4.17,3.7-6.64.29-1.36-1.32-3.47-2.57-4.76-6.25-6.46-13.09-12.41-18.9-19.23-5.5-6.46-15.19-10.09-14.93-20.73-6.36-6.36-12.82-12.62-19-19.13-1.91-2-4.36-4.69-4.35-7,0-6.25-9-8.49-6.27-15.49-4.95-5-10.1-9.71-14.73-14.93-1.74-2-3.22-5-3.14-7.55.17-5.33-1.1-9.44-5.34-12.91C104.56,814.88,101.5,811.31,99,808.81Zm164.86-269.1c-.14,6.71-.33,12.86,5.54,18.73,3.2,3.21-1.87,11.46,4.51,15.87,6,4.12,8.51,9.71,8.51,17.54,0,3.75,5,10.23,8.45,10.71,8.23,1.18,17.81,3.89,24.28-5.35,2.88-4.11,8.19-4.54,12-6.77,14.41-8.43,29.48-15.59,44.41-22.86,4.64-2.27,7.72-5.45,11.44-8.31a2.12,2.12,0,0,0,.34-2c-.45-.84-1.32-2-2.05-2-6-.18-12.35,1.18-17.77-.54-4.14-1.32-6.83-7.39-12.55-5.53-7.05,2.29-10.42-4.35-15.23-6.59-15.24-7.12-31.7-12.84-42.69-27.14-1.94-2.52-6.74-2.69-10-4.41-5.28-2.8-6.29-3.06-8.44.22C269,519.86,262.52,528.26,263.86,539.71ZM173.51,797.92q0-26.92,0-53.87c0-1.93.1-4-.58-5.74-1-2.7-2.56-2.72-4.16-.86-5.06,5.91-14,5.13-19,12.46-5.53,8.1-13.54,14.59-20.89,21.33-5.38,4.93-5.36,12.37-2.41,15.88,3.93,4.69,3.08,11.79,8,14.7,8.34,4.9,7.75,15.48,14.68,21-2.17,11.5,14.25,13.13,13.1,24.74-.25,2.51,5.4,8.09,8,7.87,4.5-.38,3.25-5.94,3.27-9.62C173.54,829.85,173.51,813.89,173.51,797.92ZM432,535.53c-1.19-2-1.92-3.47-2.83-4.78-13.21-19.07-36.51-23-53.86-35.82-8.41,2.45-14.36-4.84-21.43-5.67-12.76-1.52-25.84-.46-38.78-.34-.72,0-2.15,1.5-2,1.91.46,1.44,1.18,3.39,2.33,3.86,1.7.7,4.82-.51,5.67.5,12.11,14.33,30.44,18.1,45.62,27.16,2.32,1.38,5.66,3.09,7.79,2.39C386.05,521,393.7,534.81,405,531,412.62,540.34,422.14,537.16,432,535.53Zm-186.26-107c0,5-.18,10,.18,15,.06.79,3.58,2.23,3.78,2,2.95-3.66,8.38-5.47,8.19-11.57-.12-3.71-.09-7.15,2.23-11.05,7.06-11.91,12.84-24.58,19.27-36.88s11.8-25.09,18.62-37.24c3.27-5.83,5.54-11.9,10.8-16.51,3.59-3.14,4-8.55,2.1-10.17-4.1-3.54-4.19,2-6.39,2.65a46.31,46.31,0,0,0-14.7,8.13c-11.15,8.63-13.9,23.48-25.15,31.69-2.33,8.08-7.08,15-10.58,22.56-.39.85-1.82,1.33-2,2.16-1.46,6.61,2.53,14.61-2.37,19.85C244,415.28,246.65,422,245.78,428.51Zm127.34,658.7c.7,1.27,1.42,2.58,2.15,3.88.67-.67,2-1.48,1.88-2a19.14,19.14,0,0,0-1.88-4ZM532.73,730.6l-3.89,2.15c.67.66,1.49,2,2,1.88a19,19,0,0,0,4-1.88Zm-287.82-274-2.14-3.88c-.67.67-2,1.49-1.88,2a18.23,18.23,0,0,0,1.88,4Z"/></svg>