<svg id="Layer_1" data-name="Layer 1" xmlns="http://www.w3.org/2000/svg" viewBox="0 0 1200 1200"><title>BB_Artboard 10</title><path d="M542.82,37.78c4.58,0,9.19-.33,13.74.08,6.16.55,12.65-2.07,18.47,1.83,9.27,6.21,21.65,7.69,28.37,17.58,4.38,6.43,12,7.15,17.22,11.67,6.21,5.41,11.76,11.57,17.59,17.4,5.19,5.19,10.16,10.61,15.61,15.5,6,5.4,9.43,12.48,13.84,19,4.55,6.71,13.45,10.93,16.63,18,3.11,6.87,7.46,11.8,12.25,16.91-1.45,9.72,11,11.46,11.5,20,.46,8,9.55,9.43,11.71,17.26,2.2,8,9.41,14.83,19.22,16.22,5.53,7.21,19.72,5.31,19.47,19.12-.05,2.91,9.1,3.92,14.39.54,3.11-2,5.48-4.23,9.52-3.79,6.38.72,11.8-.27,17.31-5,3.22-2.77,10.11,1,14.67-4.34,3.94-4.59,12,1,17-5.72,3.29-4.38,11.61.44,16.9-5.73,3.3-3.84,12.55.9,16.48-6.16.27-.48,1.67-.59,2.48-.46,15.15,2.3,25.68-8.92,38.56-13.21,2.39-.8,4.46-2.69,6.88-3.26,5.08-1.21,11.51,2.51,15.32-2.63,4.62-6.24,12.83.52,17-5.7,3.78-5.61,11.74.19,14.58-4.08,4.7-7.06,12.88-1.24,17-5.79,5.36-6,11.74-3.62,17.74-3.78,5.66-.16,7.81-8,14.18-5.76,16.87-8.26,19.15-8.06,30.11,2.78,1.87,1.85,3.64,3.82,5.52,5.79-3.93,2-8.47,3.18-11.33,6-4.59,4.57-11.3-1.07-15,3.78-3.41,4.52-8,3-12.23,3.95-4,.87-7.56,3.86-11.56,5.18-3.21,1.07-7.22-1.19-10.05,2.39-1.06,1.34-3.11,3.37-4.07,3.06-12.23-3.88-21.61,7.92-33.55,5.86-3.2-.55-17.86,7.82-22.07,12.62-3.69,4.22-7.83,3.79-12.31,3.74-.61-1.53-1-4.17-1.86-4.37-3.3-.75-3.85,1.69-3.65,4.37-6,0-12.12-.29-18.14.14-2.53.17-4.51,2.18-3.9,5.37-2.48,0-5.28-.71-7.35.22-1.68.74-2.48,3.45-3.66,5.29-6.43,0-14-2.14-18.94.6s-8.86,5.36-14.58,5c-1.47-.08-3.18,1.18-4.53,2.18-3.33,2.47-6.52,5.14-9.76,7.73-6.44-8.51-11.24,4.32-18,1.29-5-2.23-9.65,1.35-14.46,4.69-3.72,2.57-10.86-.37-16.07.86-3,.73-5.27,4.86-8,7.62,5.87,6.33,10.57,14.13,20.31,15.4-.35,1.3-.29,3-1.12,3.81-3,2.77-4.57,6.4-2,9.36,5.89,6.7,7.28,15.49,11.76,22.68,1.94,3.11,2.49,7.08,4.15,9.2,5.57,7.11,12.74,13,18.6,18.64,13.48-5.05,24.17-16.78,40.38-15.61,2.25.17,4.76-1.66,7-2.88,8.44-4.59,16.68-9.55,27-8,5.65.83,7.83-7.83,14.19-5.56,14.55-7.16,14.56-7.17,24.63,2.81,1.86,1.84,3.61,3.81,5.36,5.66-3.93,8.26-14.15,7.33-19.25,13.66-5.46-1.55-7.86,5-11.5,5.08-5.39.15-7.57,5.73-11.46,5.61-5.46-.18-7.18,5.71-11.49,5.67-5.6-.06-8.38,3.87-10.66,7.27-3,4.55-8.24,2.74-11.63,5.62-1.91,1.63-4.8,4-6.59,3.57-12.12-3.2-18.53,4.82-25.44,12.07a6.46,6.46,0,0,0,0,9.37c4.83,5.23,11.08,9.31,9.43,18.36-.42,2.3,4,5.45,6.1,8.26,1.57,2.08,4.41,4.32,4.3,6.37-.57,10.86,3.82,17,14.82,18.45.82.11,1.19,3,2,4.51,3.08,6.1,4.43,6.78,9.39,4.26,2.3-1.16,4.72-4.43,6.42-4,7.2,1.78,11.34-5.82,17-5.47,11.38.69,19.69-5.45,29.26-9.48,6.88-2.9,13-7.76,21.71-8,6-.17,11.7-6.54,17.71-9.84a7.79,7.79,0,0,1,5.25-.45c7.75,2,13.55-4.91,19.77-4.95,7.84-.06,12.19-7.07,19.66-6.65,1.92.11,4.53-5.1,6-4.71,9.67,2.62,15.9-6.85,25.35-6.26,7,.42,2.51-3.89.32-6.27a8.08,8.08,0,0,1-1.15-1.95c-.06-.11,18.25-7.84,18.73-7.85,3.56-.12,8-.83,8.2,4.23.13,4.31,3.23,6.09,5,9.05,2,3.44.56,6.75-2.58,9.34-8.73,7.17-19.68,10.21-29.35,15.66-3.4,1.91-8.93-.91-12.21,3.74-2.68,3.79-8,1.84-11.64,5.53-3.9,3.92-10.75,7.49-15.89,7-7.43-.75-11,5.05-16.92,6.57-5.63,1.44-11,4.09-16.92,5.7-5.6,1.53-11.11,3.89-17,5.48-4.59,1.24-8.52,5.74-14.43,5-1.47-.19-3.35.85-4.67,1.82-16.23,11.88-16.46,11.75-32.49,14.73-4.92.91-9.72,3.12-14.22,5.45-9.9,5.11-11.19,11.4-6.72,22,3,7,7.43,13.13,9,21.16,1.4,7,4.71,14.72,10.46,20.32-.82,6.53,1.25,11.63,5.09,17.27,3.18,4.66-1.83,12.13,2.69,18.1,3.57,4.7,8,10.28,8.21,15.62.25,6.81,4.88,11.33,5.67,17s8,7.76,6,14.2c-1.71,5.28,2.35,8.23,5.44,11.46-2.34,6.36,6.33,8.4,5.55,14.24-.63,4.66,0,8.89,4.24,12.08,1,.79,1.48,3.37,1.13,4.88-2.62,11.24,7.52,19.56,6.75,30.31,4.49,2.87,4.94,7.29,4.33,12-.58,4.49,3.21,6.11,5.4,8.79,2.6,3.19,5.84,4,9.37,1.89,5.17-3.1,9.9-8.41,15.33-9.21,7.11-1,11.64-7,19.55-6.91,6.24.07,12-7.33,19.73-4.87,6.33,2,8.3-6.36,14.26-5.64,4.52.54,9.19-.18,13.74.22a18.22,18.22,0,0,1,7.12,2.61c1.19.68-.38,11.52-1.61,12.84s-2.58,2.61-3.88,3.9c-3.25,3.25-7.12,6.08-9.55,9.85-2.26,3.51-1.59,8.73-6,11.23-1.8,14.29-14.48,15.43-24.29,20-.51.23-1.61-.49-2.27-1a5.93,5.93,0,0,1-1.47-1.84c6.41-6.56,14.45-12.15,18.91-19.81,3.66-6.29,10.2-12.3,8.47-21.27-.74-3.79-4.58-7.68-7-5.41-5.89,5.66-12.75,5.32-19.91,5.49-2.32,0-4.49,2.43-6.9,3.09-7.42,2-12.71,9.31-21.6,7.9-5.42-.85-7.75,6-14,6.43-4.51.32-2,7.86-2.25,12.16-.18,3.74-.17,7.19-3.63,9.56-2.37,1.63-3.27,6-8,2-4.41-3.73-10.25-7.15-15.81-7.82-7-.86-9.53,7.37-14.44,11.11a47.89,47.89,0,0,0-5.86,5.8c-2.77,3-3.26,12,0,14.77,6.56,5.6,10.37,12.08,9.62,20.87,7.79,5.16,3.93,13.15,5,20a6.06,6.06,0,0,0,2.91,4c1.49.68,4.12.81,5.29-.08,7.66-5.86,12.15-15.4,23-17.81,3.34-.74,1.35-8.1,5.83-11.09,6.49-4.34,14.2-6.68,19.41-13.34,5-6.46,11.29-12.06,17.52-17.45,1.25-1.08,4.79.49,7.28.83-.46,1.3-.55,3.36-1.42,3.76-4.94,2.3.06,11.48-8.62,11.44-8.33,0-3.91,10.59-10.3,13.65-4.68,2.25-7.76,7.67-11.88,11.3-3.88,3.41-6.23,9.6-13.2,7.94-4.27,5.71-12.67,8.46-13.64,16.21-.7,5.57-.7,10.48-5.78,14.29-4.08,3.06-7.38,7.17-11.34,11.14,10.61,6.36,11.5,18.84,20.38,25.58a168,168,0,0,0,17,12c5.85,3.41,10.69,8.64,17.41,11.35,6.42,2.58,13.26,5.08,17.24,11.53,5.07,8.19,13,8.54,21.43,8.22,3.17-.13,5.91-1.31,5.79-4-.43-9.45,6.23-6.77,11.2-7.13q-2.76,5.73-5.51,11.47c-.74,1.53-1.37,4.28-2.28,4.38-15.6,1.72-15.32,13-14,24,.93,8-5.7,12.35-7.48,19.09-1.22,4.6-7.07,8.14-11.22,11.73-3.12,2.7-3.66,5.76-3.61,9.59.19,13.75,0,27.5.11,41.25,0,4.58.54,9.17-4.17,12.05-1.13,8.79-7.7,13.93-13.74,19-4.92,4.08-2.83,14.9-13.14,13.44-5,4.91-9.81,9.63-17,12.08-4.59,1.56-8.3,6.61-7.18,13.26.75,4.45.37,9.16,0,13.72-.12,1.49-1.87,4.16-2.68,4.09-6.15-.54-13.39,3-18.23-2-4-4.12-9.46-4-13.9-7s-12.09-1.61-18.34-1.77c-5.29-.14-10.54-1-14.93,4.22-1.62,1.93-6.75,1.17-10.29,1.18-21.09.09-42.18.24-63.26-.07-6.87-.1-14.81,3-20-4.67-7.23-.24-14.47-.4-21.7-.76-4.43-.22-10.51.93-12.94-1.48-6.56-6.5-10.6-4.12-15.61,1.34-6.2,6.74-12.87,13-19.33,19.54.73,5.46-.87,8.44-7.19,8.29-8-.19-8.45-.21-9.34-8.88-.78-7.64-.78-7.66-7.61-7.75-3.67,0-9.71-1.36-10.61.22-4.73,8.3-14.5,2.19-19.15,7.27s-10.67,1.6-15,4c-3.82,2.14-6.54,6.3-11.7,5-5.47-1.37-7.4,4.64-11.51,5.36-4.45.78-9.42-.79-13.65.43-4.77,1.38-8.39,5.94-13.83,6.36-3.59,7.8-12.68,1.38-16.63,6-4.55,5.34-9.85,3.75-15,3.78-3.86,0-6.44,2.13-9.62,3.44-7,2.89-12.87,9.56-21.57,7.7-5.94,4.09-12.18,7.14-19.72,5.51-6.72-1.45-9.44,7.86-17.06,5.82-4.91-1.32-12.37-1.65-15.62,1.15-6.67,5.73-10.68,4.79-15.73-1.08-.81-.94-4.22.45-5.14-.5-7.85-8.1-15.41-7.82-23.06.12-6.28-2.13-8.35,6.85-14.21,5.46-6.14-1.45-9.53,4.18-14.3,5.23-6.13,1.34-12.78.5-19.18.19a5.62,5.62,0,0,1-3.95-2.94c-.66-1.49-.23-3.58.09-5.34.13-.74,1.21-1.31,1.86-2,5-5.1,11.4-9.46,9.07-18.36-.3-1.14,1.84-2.79,2.55-4.33,1.42-3.08,1.78-7.25,4.08-9.19,6.32-5.33,9.05-12.84,13.57-19.22,3-4.26,8.44-7,7.65-13.37,4.11-2.67,4.19-7.4,6.11-11.2s6.22-6.61,9.44-9.87c3.86-3.89,7.68-7.82,11.52-11.73-2.31-8.74,6.59-6.26,9.23-9.58,3.07-3.86,3-10.28,8.13-12.94s11.55-3.6,11.29-11.42q10.47-10.79,20.93-21.59c.69-10.53,10.08-14.53,16.15-20.74,28.23-28.81,56.89-57.21,85.47-85.68,7.51-7.48,14.2-15.79,24.85-19.68a9.91,9.91,0,0,0,5.4-13.76c-4.33-7.9-4.64-19.3-16.19-22-.82-6,2.48-12.88-3.88-17.69a3.85,3.85,0,0,1-1.57-2.07c-1-7.93,3.1-17.24-2.66-23.54-5.37-5.88,1.16-15.31-7.44-19.18-.55-.25-.93-1.5-.93-2.29-.07-9.18.93-18.5-.35-27.5-1.07-7.54-6.16-14-5.47-22.57,1-12.77.27-25.68.27-38.54,0-10.1.12-20.2-.16-30.29,0-1.24-2.24-3.51-3.33-3.45-6,.34-8.06-2.28-7.6-8.05a98.73,98.73,0,0,0,0-13.76c-.21-3.46.17-8.5-1.84-10-4.85-3.67-3-9.79-7.32-13.86-10.07-9.49-9.63-10-23.7-9.59-3.86.12-7.64,4.56-5.46,6.83,5.69,5.87,5.47,12.74,5.37,19.92-.14,10.1,0,20.2,0,30.3,0,3.49.95,8.18-3.61,8.8-4.11.55-9.05,2-12.71-2.25-5.12-6-13.4-10.13-11.23-20.15-4.08-5.54-4.48-13.23-10.21-17.77-1.59-1.26-2.34-4.85-6-1.57-3,2.77-7.69,3.68-11.12,6.12-3.68,2.61-6.9,5.85-5.85,11.33.51,2.65.19,5.49.07,8.24-.2,4.35-2.12,5.75-7.32,5.26-2.6-.25-6.55,0-7.48-1.43-3.29-5.23-10.22-2.7-13.68-7.54-3.2-4.47-8.62-.87-12.79-2.19-.85-.26-1.87-3.25-1.5-3.61,2.71-2.61,5-5.21,4.23-9.35,9.32-9.15,6.83-17.25-2.13-24.87-1.33-1.13-3.46-3-3.2-4,2.72-10.15-4.84-14.87-10.51-20.53-1.5-1.5-3.5-5.27-5.58-1.07-.91,1.84-.09,5.23,1.09,7.26,1.57,2.71,6.72,5.42-.5,6.63-5.36.89-11,.48-16.49.08-4.38-.32-6.3,2.76-9,5-3.11,2.61-4.32,5.73-2.62,9.42,3.83,8.29,11.61,18.52,17.58,22.92.59.44,3.67-1.06,3.62-1.44-.43-4,1.1-6.75,4-9.52,4.26-4.08,6.45-4.19,9.77,1.11,1.33,2.13,2.78,4.66,2.83,7q.41,20.64,0,41.31c0,2.3-1.43,6.11-3,6.55-3.36,1-8.8,1.7-10.55-.16-4.83-5.11-12.92-8-13.71-16.13-.44-4.51-3.76-6.08-6.17-8.46-3.42-3.36-4.34-7.06-5.39-11.66-2.05-9-5.43-17.9-13.67-23.62-5.51,5.51-10.47,11-16,15.82-4.63,4.08,1.63,7.26,1.32,7.62-5.95,6.72-4,14.76-4.53,22.39-.09,1.25-2.09,2.84-3.53,3.36-1.63.59-3.63.1-5.46.14-12.32.28-11.67.93-24.31,13.67-7.24,7.31-4.47,14.84-4.62,22.62,8.31,3.9,1.86,14.14,7.86,18.72s-.82,12.77,5.73,17c5.54,3.59-.56,11.19,4.05,14.69,5.68,4.29,3.23,9.86,3.95,15a26.05,26.05,0,0,0,1.85,7.48c4,8.49,10.76,15.94,9.67,26.3,7.61,6.52,7.52,17.27,13.52,24.74a10.74,10.74,0,0,1,2.29,7.18c-.64,5.32,2.27,8.31,5.54,11.61,2.39,2.43,6.76,4.18,5.57,8.61-2.15,8,6.41,12.32,6.18,19.53,6.29,5.4,9.33,13.28,9.89,20.51.57,7.43,7.33,11.7,6.6,19.76-.47,5.14,3.05,12.36,7.15,15.83,9.95,8.42,11.06,21.65,19,31,1.85,2.2.82,7,.81,10.55,0,2.37-4.27,4.71-6.17,3.65-8.86-4.91-15.43-12.43-21.1-20.43-3.34-4.7-4.18-11.1-6.87-16.36s-5.42-11.42-9.88-15c-5.4-4.33-4.58-11.36-9.32-15.73-2.26-2.09-2-6.9-4.23-9-4.42-4.25.13-5.44,1.6-8,1.95-3.43,1.59-8.38-2.25-8.75-9.66-1-13.06-9.13-18.56-14.59-1.85-1.83,1.1-8.93-.7-10.32-6.06-4.69-4.64-13.64-11.34-17.67-2.07-1.26-4.36-4-4.54-6.21-.44-5.43-.77-10-4.81-14.81a31.58,31.58,0,0,1-5.74-11.1c-1.18-4.79-3-8.23-6.43-11.19s-5.64-6.4-5.52-11.6c.1-4.23-13.15-28.87-15.92-31.84a9.92,9.92,0,0,0-4.2-3.06,6.81,6.81,0,0,0-5.09.69c-4.09,3-2.5,13.71,2.18,15.65.78.32,2-.27,2.7.11,2,1,6.15,2.24,1.75,4.75-7.73,4.41-7.65,13.75-13.28,19.54-1.9,2-2.35,8.48-.67,10.2,6.67,6.82,5.43,14.91,5.09,22.78-.33,7.67,6,12.27,7.66,18.94.61,2.4,2.88,4.42,3.37,6.82,1.21,5.91-2.12,12.51,4.19,17.68,4.3,3.52-.32,10,3.71,15,3.5,4.37,3.45,11.42,6.39,16.46,2.59,4.44,2,10.76,7.56,13.44-1.15,6.63,4.89,9,7.65,13.39,3.6,5.72,8.74,12.19,8.52,18.17-.26,7.34,6.95,10.43,6.33,17-.11,1.24,2.45,4,2.83,3.84,9.07-3.86,14.29,6.35,22.6,5.86,10.9-.65,21.88-.16,34-.16-.28,8.86-12.65,10.72-10.51,19.72.11.47-1.1,1.54-1.89,1.83-.44.16-1.57-.53-1.86-1.1-5.85-11.49-16.55-9.38-26.43-9.41-7.48,0-7.78.32-7.85,7.5-.07,7.34.15,14.69-.18,22-.05,1.22-2.07,2.91-3.5,3.36s-4,.38-5.13-.56C347,1003.24,338.8,994,334,980.74c-1.76-4.85-8-7.82-6-14.07-7.19-5.57-8.91-15.65-15.46-20.85-5.9-4.68-3.41-17-14.9-15.68-5.3-4.52-9-10.7-17.12-12.12-3.7-.65-7.28-5.61-9.64-9.4-3.58-5.73-4.92-13.16-9.26-18-6.31-7.09-5.32-14.86-5.07-22.74.09-2.74,2.88-4.45,6-3.68,1.61.41,4.43,2,4.33,2.26-3.08,9.69,8.17,15.68,6.24,25.21-1.1,5.39,5.24,6.84,7.67,10.47a4.15,4.15,0,0,0,1.84-.93,5.27,5.27,0,0,0,1.32-2.18c1.56-5.42-6.07-7.76-5.17-11.4C281.77,875.26,270,866,272.84,854c1-4.36-2.5-6.73-5.23-8.74-5.05-3.7-6.36-8.34-5.81-14.23.51-5.49-7.42-7.71-5.56-14.27,1.91-6.75-4.46-9.46-8.14-13-5.51-5.32.66-15-7.68-18.92.64-13.86-9.91-23.46-13.63-35.66-7.06-3.85-.92-11.89-5.63-17.06-3.91-4.29-6.34-10.11-8.7-15.57-1-2.32-.46-5.48-.11-8.18.67-5-1.1-8.76-5-11.73-4.63-3.52-7.12-7.78-6.28-14.05.27-2-2.7-4.32-3.38-6.72-2.29-8.22-10.32-14.76-7.38-24.48,1.9-6.28-7.37-8.47-5.4-14.2,2.57-7.46-7.2-10.47-5.55-17,1.6-6.35-4.93-9.2-5.48-14.28-.66-6.16-7.41-9.58-6-17.05,1.09-5.68-7.84-9.77-5.19-16.95.28-.76.2-2.38-.19-2.56C153.35,565,161,553,152.79,548.43c.73-7.44-8.49-11.16-6.79-19.34,1.29-6.18-7.29-9.57-5.75-17.05.68-3.31-3.23-7.58-5.09-11.4-3-6.22-5.66-12.17-6.36-19.59-.58-6.14-6.71-11.69-10.1-17.67-1.67-2.95,1.65-6.86,5.6-6.95,4.52-.1,8.91-.58,12.23,3.92a21,21,0,0,0,8.11,6.82c1.69.72,6.6-1.35,6.7-2.45.63-7.29.34-14.66.35-22-9.31-3.5-2.21-14.05-7.85-18.69-5.33-4.38-.61-11.41-4.06-14.76-4.7-4.56-4.62-9.36-4.66-14.79,0-2.62.28-5.86-1.06-7.76-6.79-9.58-11.54-19.56-10.09-31.76.14-1.19-2-3-3.45-3.94-2.38-1.56-2.51-2.69.09-3.95.76-.36,1.89-1,2.38-.73,8.53,4.92,20.52,4.85,23.53,17.82.85,3.69,5.17,7.95,8.85,9.22,3.47,1.2,6.49,2.14,9.06,4.84,4.43,4.66,9.49,8.77,13.48,13.77,3.76,4.72-1.72,13.12,6,16.75,1.61,17.7,13.7,31.05,19.57,47,2.63,7.15,7.33,13.41,9.81,20.73.36,1.06,3,1.36,7.3,5.2,2.76,2.33,3.06,1.3,2.7.65-.78-1.38-1.76-3.49-2.91-3.67-5.09-.81-2.35,3.42-2.3,5,.06,1.84,1.91,3.62,3,5.43.77-1.4,1.53-2.79-.46-7.37-3-11.38-3.56-19.61,5-24.78,4.85-2.93,1.77-8.62,3.54-12.24,2.75-5.63,5.54-10.08-1.56-14.34-6.72-4,.63-6.61.87-9.74.59-7.68,3-16.2-4.92-22.67-2.46-2,1.07-7.33,4.69-7.59,5.64-.39,11.05-.2,14.26,5.43,2.95,5.18,6.79,10.25,8.08,15.86,1.2,5.19,0,10.9,5.57,14.27-.72,5.14,2.33,8.36,5.79,11.37-2.46,6.4,6.51,8.5,5.45,14.22-1.11,6,3.86,9.7,5.05,14.38a18.1,18.1,0,0,0,7.17,10.76c4.21,3.05,3.18,8.19,5.87,11.39,2.43,2.89,4.43,5.32,4.14,9.42-.18,2.47.14,6,1.7,7.39,6.21,5.74,11,11.81,9.58,20.91,9,4.19,2.18,15.1,9.35,21.19,4.6,3.9,4.7,12.65,8.35,18.22,5.66,8.64,8.16,19,15,26.89-1.09,6.77,5.09,9,8.4,13.38,3.85-4,7.49-8.09,11.56-11.73,2-1.8,2.24-2.37.39-4-7.39-6.63-3.16-15.42-3.54-23.17-.28-5.82-3.53-9.67-5.29-14.41-2.64-7-9.28-13.7-5.94-22.28,3.19-8.19-6.2-12.92-5.3-19.73,1-7.86-7.05-11.72-6.32-19.82.57-6.27-7.52-11.71-5.29-19.78.39-1.38-5.06-4.06-4.9-5.87.69-7.54-9.36-11.68-5.8-19.76-4-5.57-4.68-13-10.08-17.92-1-.92-1.26-3.5-.84-5,2.69-9.73-5.44-16.26-7-24.68-.4-2.08-6.27-2.91-2.14-5.58,2.65-1.71,7.85-2.45,10.26-1,6.64,4.13,13.2,8.76,15.51,17.33,1.3,4.85,7.05,8.05,5.41,14.29-1.56,5.9,7.47,8,5.46,14.22,4.23,3.82,6.65,8.32,5.53,14.24a4.23,4.23,0,0,0,0,2.71c3.73,5.79,11.19,8.33,11.42,17.49.19,7.37,4.82,14.27,9.51,20.74,3.87,5.34,4.12,13.53,8.4,18.28,4.56,5.08,2.05,10.46,4,15,1.62,3.82,6.37,6.29,5.37,11.54,5.58,2.68,4,9.76,7.87,13.2,4.23,3.72,2.1,8.4,3.14,12.55.59,2.35,2.85,4.36,4.59,6.32,4.1,4.6,6.89,4.74,11.34,1.27,4.09-3.19,6.34-8.21,12.85-9.06,7.1-.93,1.65-4.13.12-6.62-.48-.78.48-2.57,1-3.8s2.34-3.21,2-3.82c-3.23-5.11-11.94-7.45-9.73-15.08s-8.72-9.85-5.77-17.07c-6.34-3.12-4.1-11.64-9.62-15.31a3.53,3.53,0,0,1-1.35-2.15c-1.06-6.83,3.22-14.83-4.51-20.17.88-7.48-7.31-11.21-7.17-19.32.11-6-4.61-12.76-8.61-18.11s.87-12.22-5.3-17.4c-4.08-3.43-5-10.55-7.55-15.9s-6.62-10.07-5.82-17c.31-2.66-3.64-5.64-5-8.76-.54-1.24.2-3.7,1.22-4.79a6.1,6.1,0,0,1,4.73-1.52c5.13.8,7.87,7.24,13.94,6.15,2.5,5.39,5.29,10.67,7.36,16.22.9,2.41-.67,7.09.57,7.82,9.76,5.66,9.61,16.29,13.54,24.88,4.24,9.27,9.51,18.08,13.43,27.47a183.26,183.26,0,0,0,12.39,25c5,8.13,6.42,18.07,13.13,24.9,4.87,5-1.09,12.66,5.65,17.08,7.71,5.07,8.88,14.56,13.05,22,.83,1.5,1.72,3,3.05,5.21,1.89-2.22,3.29-4.81,5.45-6.22,8.08-5.29,9.51-13.33,7.74-21.47-1.44-6.6-7.67-12-5.26-19.79-3.45-2.74-6.55-6.32-10.46-8-3.12-1.31-7.23-.14-10.9-.29-6.27-.26-9.82-4.88-11.34-9.77-1.18-3.8-1.9-9,2.6-12.47,1.45-1.1,2.57-2.62,3.93-3.85,8.6-7.81,15.58-15.84,4.16-26.75,2-10.94-9-19.48-5.64-30.8.7-2.38.58-6.95-.71-7.65-8.13-4.4-1.62-14.07-7.57-19.15-5.63-4.8.73-14.91-7.8-18.81-.41-.19-.19-1.68-.32-2.56-.9-6,2.46-12.66-3.56-17.83-5-4.33,1.61-13.1-5.89-16.79-.52-5.29-1.72-10.62-1.41-15.86.54-9.14-8.41-15.62-6.36-25-6.2-5.19-9.35-12.62-14.05-18.81-3.78-5-6.11-10.47-9.48-15.44-3-4.47-7.45-8.08-11.56-11.73-2.67-2.38-1.94-3.82.2-5.94,7.39-7.34,8.45-7.52,15.27-.73,21.44,21.38,42.62,43,64.43,64,4.23,4.07,4.29,9.57,7.68,13.42,4.23,4.82,9,9.15,13.55,13.7,3.89,3.89,7.73,7.84,11.72,11.63,1,.95,2.49,1.38,3.8,2.07,3.29-5.17.94-10.77,1.82-16,1-6-3.1-9.66-5.15-14.41-2.64-6.13,2.84-14.62-4.73-20.16-.23-.16,1-3.45,1.67-3.52,3.63-.35,7.54-.84,10.87.21,1.5.47,1.88,4.45,2.81,6.82,1.07,2.73,2.86,4.13,6,3.88s4.73,1.66,5,4.84c.42,5.31-.89,12.25,2,15.49,3.77,4.29,2.77,9.94,7.06,14,4.93,4.63-.95,14.7,7.49,18.76-1.32,6.68,1.31,12.09,5.5,17-2.76,11.35,6.64,16,12.73,22.17,1.46,1.5,5,1.2,7.59,1.33,5.57.27,7.58-1,7.13-5.33-.9-8.58,3.56-18.09-5.15-25.57-1.81-1.55-.81-7.14-.13-10.68,1.06-5.54-3.72-7.72-5.58-11.53-1.52-3.13,1.43-7.52,5.09-7.35,4.79.23,10.49-2.55,11.9,6.59.82,5.34,8.07,9.42,10.12,14.93,1.8,4.84.7,10.9.28,16.37-.44,5.81,7.29,7.69,5.84,14.29-1.16,5.25-.24,11-.24,16.47,6.65,3.94,5.33,12.8,10.89,17.61,1.67,1.44,1.27,6.24,2.76,6.74,3.28,1.12,9,2,10.47.28,4.95-5.7,13.57-4.52,17.79-10.74,6.64,1.19,11.53-3.11,17.18-4.89,5.91-1.87,8.48-6.28,12.82-9.1,5.49-3.56,5-8.86,5.42-14.37.33-4.45,7.25-10.12,11-10.17,7.34-.1,14.76-.65,22,.22,4,.47,7.52,4.34,11.55,5,5.35.92,11,.25,16.48.21.86,0,2.23,0,2.5-.45,3.94-7,12-2.91,16.67-6.15,3.76-2.63,8.1-3.3,11.45-5.69,4.22-3,8.4-6.52,7.52-13.35-1-7.8.2-15.3-5.18-22.84-3.53-4.93,2.2-14.2-5.15-19.89-1.43-1.1-.49-5.11-.91-7.74-.83-5.19-.91-5.18-7.05-2.17-.76.38-1.65,1.26-2.24,1.09-2.43-.7-6-1.11-6.83-2.79s.38-6.61,1.62-7c5.25-1.54,10.71-2.05,9.31-9.72,6.16-4.79,7.63-9.58.86-15.4-1.6-1.37-1.19-4.9-2.15-7.26s-2.38-2.18-3.86.21c-2.22,3.58-5.8,3.62-9.56,3.51-6.41-.19-13-1-19.21.21-5.74,1.11-10,6.57-17.09,5.6-2.61-.36-5.57,4.27-8.73,4.92a40.9,40.9,0,0,1-13.7.12c-7.55-1-13.34,2.67-19.92,5.18-5.61,2.14-12.68.44-19.11.44-9.76,10.35-22.28,4.38-33.52,5.29-11.85,1-23.84.4-35.77.14-6.08-.13-9.62-7.33-17-5.71-6.11,1.34-12.76.22-19.17.19-3.6-9-13.06-3.32-19-7.56-5.59-4-12.73-5.77-17.06-11.87-5.09-7.18-15.11-10.52-16.21-20.83-5.67-4.56-4.36-13.51-11-17.47,0-11.92.18-23.85-.14-35.77-.09-3.49,2.08-5,4-6.6,5.22-4.32,8.51-9.27,7.11-16.37,7.47-7.18,5.5-16.52,5.38-25.24-.08-6.54,3.73-6.28,8.43-7.44,3.6-.88,3.49-5.38,1.5-9-3.38-6.22-3.26-6.34,2.33-6.94,1.82-.2,3.71.22,5.5-.09,2.9-.49,5-2,4.4-5.42-1-5.84,3.29-9.71,5-14.42,3.47-9.71,9.54-18,12.78-27.79,1.33-4,11.32.11,10.16-9.27-.43-3.51,6.42-5.95,5.45-11.49-.11-.66,4-2.79,6.35-3,6.27-.66,12.62-.5,18.9-1.14C541.64,42.2,542.17,39.35,542.82,37.78ZM515.27,541.53c0-.82.32-2-.09-2.37a2.44,2.44,0,0,0-2.32,0c-1.81,1.28-4.07,2.85-.76,4.79.44.26,2.09-1.54,6.38-9.9a19.65,19.65,0,0,0-3.14,2.65,1.65,1.65,0,0,0,2.33,2.34,11.24,11.24,0,0,0,2.51-3.25C520.29,535.55,519.12,534.65,515.27,541.53ZM377.55,607.64c0-.82.32-2-.09-2.37a2.38,2.38,0,0,0-2.32,0c-1.81,1.28-4.07,2.85-.76,4.79.44.26,2.09-1.54,6.38-9.91a20.72,20.72,0,0,0-3.14,2.66,1.65,1.65,0,0,0,2.33,2.33,11,11,0,0,0,2.51-3.25C382.57,601.66,381.4,600.76,377.55,607.64ZM900.89,822.48c0-.82.32-2-.09-2.37a2.41,2.41,0,0,0-2.32,0c-1.82,1.28-4.08,2.85-.76,4.79.44.26,2.08-1.54,6.37-9.91a20.16,20.16,0,0,0-3.13,2.66,2.34,2.34,0,0,0,0,2.31,2.32,2.32,0,0,0,2.31,0,11.2,11.2,0,0,0,2.5-3.24C905.9,816.5,904.73,815.6,900.89,822.48ZM614.43,908.16c3.82.14,5.65-1.69,5.51-5.51q5.71.21,5.51-5.5,5.71.21,5.51-5.51,5.71.21,5.51-5.51c3.81.14,5.65-1.7,4.27-5.51,5.73,0,11.42,1.73,14.46-.38,5.59-3.87,9.76-9.89,14.18-15.31.64-.79-.38-3.28-1.12-4.75-1-2-1.91-.44-3.84.45-9.6,4.42-17.58,10.37-22.44,20-3.82-.14-5.65,1.7-5.51,5.51-3.81-.14-5.65,1.69-5.51,5.51-3.81-.14-5.65,1.69-5.51,5.51q-5.72-.21-5.51,5.5-5.72-.21-5.51,5.51-5.71-.21-5.51,5.51c-1.55.64-3.47.9-4.61,2-5.93,5.67-11.66,11.54-17.46,17.34l-19.32,19.33-17.4,17.39-17.4,17.4c-6.44,6.44-12.27,13.7-19.5,19.09-6.9,5.15-7.6,13.75-13.3,19.27-6.55,6.34-13.19,12.61-19.27,19.38-5.27,5.87-11.5,10.54-15.41,18.14s-11.1,14-17.65,20c-4.78,4.39-3.3,11.92-9.27,15.61-1.22.75-.18,5.18-.18,10.37,0-.82.32-2-.09-2.37a2.39,2.39,0,0,0-2.32,0c-1.81,1.28-4.08,2.85-.76,4.79.44.26,2.08-1.54,3.17-4.85,3.48.88,4.76-2.12,6.6-3.9,5.9-5.74,12.73-10.91,17.2-17.62,4.88-7.31,8.9-15,15.71-20.92,6.2-5.39,11.72-11.55,17.54-17.37l19.4-19.39,17.46-17.46c5.82-5.82,12.21-11.19,17.31-17.59,5.76-7.21,15.5-7.79,21.54-15.07,4.75-5.72,8.5-14.63,18.69-14.1.86,0,2.89-2.9,2.63-4.07-1.53-6.92,3-11.57,5.66-17,3-6.09,5.18-12.7,9.3-18,2.74-3.55,1-6.94,1.73-10.32C612.74,913.81,614.57,912,614.43,908.16ZM371.6,834.24a20.16,20.16,0,0,0-2.66-3.13,2.34,2.34,0,0,0-2.31,0,2.32,2.32,0,0,0,0,2.31,11.2,11.2,0,0,0,3.24,2.5c.21.11,1.11-1.06-3.31-4.9,0-2.48.7-5.28-.22-7.36-.75-1.67-3.46-2.47-5.29-3.66,0-4.25.37-8.55-.14-12.74a4.24,4.24,0,0,0-5.37-3.78c0-2.49.7-5.29-.22-7.36-.75-1.67-3.45-2.47-38.54-67.89-.28,7.41-.44,14.6,7.28,19,3.47,2,4.68,5.32,3.94,9.3s1,6.62,3.64,9.55c2.13,2.36,2.28,6.41,4.15,9.13,2,3,5.47,5,7.51,7.92,1.87,2.72,2.62,6.2,4.09,9.23.17.36,1.73.05,2.64.05-1-5.18,1.38-10.41-1.71-15.77-4.67-8.08-11.44-15.66-9.38-26.3.33-1.66.36-4.56-.53-5.08-5.27-3.08-3.47-10.09-7.69-13.36-5.33-4.13-.52-10.57-3.9-14.84-.89-1.13-3.11-1.71-4.67-1.63s-4.16,1.06-4.39,2.08C317,721,317,724.67,350,792.48c0,2.48-.7,5.28.22,7.36.75,1.67,3.45,2.47,5.29,3.66,0,4.25-.37,8.55.14,12.74A4.24,4.24,0,0,0,361,820c0,2.49-.7,5.29.22,7.36C362,829.05,364.7,829.85,371.6,834.24Zm380.5,87.41a4.82,4.82,0,0,0,0-2.36,33.23,33.23,0,0,0-7.66,0c-1.12.21-2,1.95-2.79,3.14a3.77,3.77,0,0,0,1.74,1.69c3.36,1.05,6.57,1,15.08-10.49-.86,0-1.88-.3-2.53.06-1.38.78-3.5,1.76-3.68,2.91-.81,5.1,3.42,2.35,5,2.3,1.84-.06,3.62-1.91,5.43-3C761.31,915.19,759.91,914.43,752.1,921.65ZM873.35,329.74c-2.49,0-5.29-.7-7.36.22-1.68.75-2.48,3.45-11.89,5.29-2.74,0-5.49.07-8.23,0-5.55-.17-6.87,5.36-10.48,7.79a3.72,3.72,0,0,0,.81,1.84c.57.6,1.48,1.43,2.12,1.33,7.61-1.17,13.74-7.52,22.09-6.35.54.08,1.56-1.09,1.87-1.87,1.05-2.69.09-3.43-2.71-2.79-1.74.39-3.64.07,2.76.07,2.48,0,5.28.7,7.36-.22,1.67-.75,2.47-3.45,10-10.8-.86,0-1.88-.3-2.53.06-1.38.78-3.49,1.76-3.68,2.91-.8,5.09,3.43,2.35,5,2.3,1.84-.06,3.62-1.91,5.42-3C882.5,325.75,881.11,325,873.35,329.74Zm-292,694.11c2.49,0,5.28.7,7.36-.22,1.67-.75,2.47-3.45,11.89-16.34-2.75,2.83-5.55,5.6-8.17,8.53a2.45,2.45,0,0,0,0,2.43c.43.42,1.62.08,2.48.09,7.23.07,10.35-3.13,8.17-8.48-.3-.73-1.17-1.23-10.74,8.48-2.49,0-5.29-.7-7.36.22-1.67.75-2.47,3.45-3.66,7.74,0-.81.32-2-.09-2.36a2.39,2.39,0,0,0-2.32,0c-1.81,1.28-4.08,2.85-.76,4.79C578.65,1029,580.29,1027.15,581.38,1023.85Zm-44.07,27.54c2.48,0,5.28.7,7.36-.22,1.67-.74,2.47-3.45,3.66-5.29,8.54.89,14.36-2.32,19.73-16.07a19.65,19.65,0,0,0-3.14,2.65,1.65,1.65,0,0,0,2.33,2.34,11.11,11.11,0,0,0,2.51-3.25c.11-.2-1.06-1.11-4.91,3.32-8.54-.89-14.36,2.32-16.52,11-2.49,0-5.29-.7-7.36.22-1.67.75-2.47,3.46-3.66,7.75,0-.82.32-2-.09-2.37a2.41,2.41,0,0,0-2.32,0c-1.82,1.28-4.08,2.85-.76,4.79C534.58,1056.5,536.22,1054.7,537.31,1051.39ZM483.08,1090c-.86,0-1.88-.3-2.53.07-1.38.77-3.49,1.75-3.68,2.9-.8,5.1,3.42,2.35,5,2.3,1.84-.06,3.62-1.91,5.43-3-1.39-.77-2.79-1.53-10.55,5.68,0-.82.32-2-.09-2.37a2.41,2.41,0,0,0-2.32,0c-1.81,1.28-4.08,2.85-.76,4.79C474,1100.57,475.63,1098.77,483.08,1090ZM779.25,872.81a20.24,20.24,0,0,0-2.66-3.14,2.34,2.34,0,0,0-2.31,0,2.32,2.32,0,0,0,0,2.31,10.87,10.87,0,0,0,3.24,2.5c.21.12,1.11-1.06-6-4.9.91,0,2.18.36,2.64-.1a2.62,2.62,0,0,0,0-2.56c-4-3.21-6.15-9.6-12.9-8.23-1.17.23-2,2.08-3,3.19C762.2,865.21,764.73,871,779.25,872.81Zm80.62,90.44h2.46c0-.82.32-1.87-.06-2.41-1.28-1.81-2.85-4.08-4.79-.76-.26.44,1.54,2.08,20,12.81.27-.64.91-1.74.76-1.87-4-3.24-6.23-9.52-13.18-7.8-.86.22-2.17-.32-2.63.13a2.59,2.59,0,0,0,0,2.57,90.59,90.59,0,0,0,10.29,8.19C873.62,974.72,875.84,973.36,859.87,963.25Zm-35.66,44.07c-2.65,0-5.35-.32-7.91.15-1.18.21-2.13,1.94-3,3.12-.07.1,1.13,1.68,1.79,1.72,5.22.29,10.45.58,15.67.38a5.69,5.69,0,0,0,3.93-2.79c1.29-2.42.17-3.13-2.55-2.67s-5.27.09,9-5.42c-.86,0-1.88-.3-2.53.07-1.38.77-3.49,1.75-3.68,2.9-.8,5.1,3.42,2.35,5,2.3,1.83-.06,3.62-1.91,5.42-3C843.94,1003.33,842.54,1002.57,824.21,1007.32ZM697,500.51c-7.55-2.26-11.6,3-15.82,7.76-.2.23.34,1.38.79,1.85a5.44,5.44,0,0,0,2.14,1.38c6.18,2,8.23-5.67,14.15-5.85,4.56-.14,6.6-4.49,4.31-5-1.72-.43-3.63-.09,0-.09,3.82.14,5.65-1.69,5.51-5.51h5.3c4.41,0,9.93,1.67,13-.36,5.29-3.51,10.48-4.42,16.39-5.67a12,12,0,0,0,9.45-13.57c-.36-2.6-.06-5.29,3.15-13a20.24,20.24,0,0,0-3.14,2.66c-.4.5-.07,1.58-.07,2.4.82,0,1.92.33,2.4-.07a10.79,10.79,0,0,0,2.5-3.25c.12-.2-1.06-1.1-4.9,3.32-2.72,0-7-1.09-7.88.19-3.45,4.87-9.42,4.29-13.41,7.43-3.49,2.74-6.42,8.1-10,8.44-6.57.63-8.77,5.64-12.75,8.84-.44.36-.06,1.74-.06,2.64C704.27,494.86,702.43,496.7,697,500.51ZM314.49,599.62c.58.35,1.61,0,2.47,0,0-2.56.32-5.19-.15-7.67-.21-1.11-1.95-2-3.14-2.78A3.83,3.83,0,0,0,312,591c-1,3.36-1,6.57,5,14.31-2.26,7.54,3,11.6,7.75,15.82.23.2,1.38-.34,1.85-.8a5.33,5.33,0,0,0,1.39-2.14c2-6.18-5.68-8.22-5.86-14.14-.14-4.57-4.48-6.61-5-4.32C316.62,601.41,317,603.33,314.49,599.62ZM851.31,864.09c-2.59,0-6.08-1.08-7.63.19-7.65,6.25-17.24,8.66-25.37,13.82-.39.25,0,1.65,0,5,0-.82.32-2-.09-2.37a2.4,2.4,0,0,0-2.33,0c-1.81,1.28-4.07,2.85-.76,4.79.44.26,2.09-1.55,3.18-4.85,4.32,0,10,1.71,12.68-.38,4.7-3.61,10.94-3.84,14.91-8.07,2.2-2.34,6.11-3.74,8.66-13.14a20.16,20.16,0,0,0-3.13,2.66c-.4.5-.07,1.58-.07,2.4.82,0,1.92.34,2.4-.07a11.2,11.2,0,0,0,2.5-3.24C856.32,860.57,855.15,859.67,851.31,864.09ZM468.73,500.46c.59.35,1.62.05,2.47.05,0-2.56.33-5.19-.14-7.66-.21-1.12-2-2-3.14-2.79a3.78,3.78,0,0,0-1.7,1.74c-1.05,3.36-1,6.58,5,14.14-2.64,9.28,9.57,15.25,5.61,24.9-.13.32,1.36,1.88,1.78,1.76a9.25,9.25,0,0,0,3.82-2.07,45.4,45.4,0,0,0,4.74-5.78c.09-.11-1.41-1.1-1.79-1.87q-4.39-9-8.64-18.12c-2.05-4.37-4.89-6.46-5.43-4.23C470.87,502.24,471.2,504.13,468.73,500.46ZM850.86,972a19.63,19.63,0,0,0-2.66-3.13,1.65,1.65,0,0,0-2.33,2.33,11.12,11.12,0,0,0,3.25,2.5c.2.11,1.1-1.06-4.44-4.9-.7,0,.57.36,1-.1s.11-1.72.1-2.63c0-.2-7.5-18.63-7.61-18.65-1.73-.23-4-1.25-5.09-.51-4.28,2.89-9.77,5.54-9.2,11.81.64,7.08,6.79,3.44,10.51,4.69C837.59,964.43,840.44,966.48,850.86,972Zm-61,40.86c-1.46.83-2.88,1.72-4.37,2.46-7,3.45-4.46,13.31-11.26,17-.38.2-.4,2.06,0,2.51s1.69.1,2.59.1c1.8,0,4.72.69,5.22-.11,4-6.46,13.54-4.22,17.12-11.11.4-.76,1.58-1.18,1.82-1.94.75-2.41-8.21-9.47-26.85,15.61,0-.82.32-2-.09-2.36a2.4,2.4,0,0,0-2.33,0c-1.81,1.27-4.07,2.84-.76,4.78C771.45,1040,773.1,1038.17,789.87,1012.82ZM686.05,820c3.33-.67,7,1.48,10.07-1.73,5.57-5.84,11.4-11.44,17.08-17.17,8.2-8.27,8.58-8.7.3-16.67-4.36-4.19-6.18-8.34-5.42-14,4.69.33,6.55-3,5.25-6.28-1.45-3.67-4.92-6.53-7.51-9.75-1.08.94-2.89,1.74-3.1,2.84-.47,2.48-.15,5.11-.15,7.69-1.51.59-4.24,1-4.35,1.82-.71,5.11-.92,10.3-1.13,15.46-.18,4.39,1.62,10.32-.57,12.83-3.87,4.42-4.76,8.59-5.25,14-.35,3.79-3.39,7.33-5.22,13.44,0-.82.32-2-.09-2.37a2.43,2.43,0,0,0-2.33,0c-1.81,1.28-4.07,2.85-.76,4.79C683.31,825.13,685,823.33,686.05,820ZM656,709.8a4.83,4.83,0,0,0,2.37,0,33.81,33.81,0,0,0,0-7.66c-.21-1.11-2-2-3.14-2.79a3.83,3.83,0,0,0-1.7,1.74c-1,3.37-1,6.58,5,17.21-.28,5.93.35,11.17,5,16.78,3.32,4-2.2,12.87,2.49,17.66,6.31,6.44,2.91,13.67,3.18,20.39.21,5.33,2.68,8.24,6,11.15a7,7,0,0,0,3.8,1.28c.43,0,1.41-1.27,1.42-2,.12-5.42.94-11-.15-16.24-1.37-6.48,5.71-8.34,5.94-14,.34-8.52-6.31-13.81-8.27-21.12-.08-.32-1.63-.37-2.49-.32-4.73.32-6.63-2.41-5.88-6.49,1.18-6.35-2.32-10.06-6.47-13.68-.67-.59-1.18-1.53-1.95-1.83-2.67-1-3.4-.1-2.77,2.68C658.82,714.3,658.5,716.18,656,709.8Zm-80.16,354.33c0-3.59.22-7,0-7-2.68-.39-6.24-1.35-8-.05-9.73,7.05-20.58,11.91-31.62,16.13-6.75,2.58-8.31,12.47-17.21,11.22-6.53,6.22-13.81,11.86-19.25,18.92-2.32,3-2.19,8.26-6.06,11.08a5.58,5.58,0,0,0,1.15,1.82c.61.55,1.59,1.32,2.18,1.15,2.43-.67,5.37-1.05,7-2.67,3.84-3.79,10.14-2.4,13.49-7.46,2.34-3.53,6.22-5.29,10.7-6.94s10.19-3.41,13.31-6.89c3.94-4.4,9.45-4.12,13.86-6.87a127.94,127.94,0,0,0,16.85-12c4.17-3.66,3.75-7.79,6.85-22.77a20.16,20.16,0,0,0-3.13,2.66,1.65,1.65,0,0,0,2.33,2.33,11,11,0,0,0,2.5-3.24C580.88,1053.38,579.71,1052.48,575.87,1064.13Zm22-78.24c0-2.75.4-5.58-.17-8.2-.29-1.33-2.15-2.85-3.59-3.27s-4-.33-5.07.62c-4.13,3.61-8.55,7.19-11.56,11.66-3.43,5.09-9.62,3.33-13.6,7.47-17.74,18.46-36.06,36.36-54.1,54.54-.45.46-.12,2.56-.05,2.57a21.79,21.79,0,0,0,5.47,0c1.63-.3,3.69-.77,4.62-1.92,6.33-7.84,15.5-10.77,24.2-14.57,1.54-.68,4.17-2,4.07-2.79-1.18-8.58,4.27-8.23,10.1-8.35a10.24,10.24,0,0,0,6.84-3c5.93-6.92,14.28-9.69,22.06-13.17,7.38-3.28,11.93-7.51,10.81-16.11-.23-1.8,0-3.65-88.17,62.48,0-.82.32-2-.09-2.37a2.43,2.43,0,0,0-2.33,0c-1.81,1.28-4.07,2.85-.76,4.79C507,1056.5,508.68,1054.7,597.91,985.89ZM631,486.38A89,89,0,0,0,629.91,475c-.21-1.22-2.79-5.09-4.93.59-1.11,2.94-7.27,3.77-10.81,6.07-4.31,2.81-6.28,9.3-13.27,8.09-.75-.13-2.14,2.43-2.93,3.91-.38.71.32,2.11-.12,2.66-4.86,6.05,10.89,11.54.44,17.63,1.62,5.13,11.1,10.51,14.26,7.41,5.14-5.06,14.34-4.45,17.06-11.57,1.83-4.79,1-10.59,1.34-15.94.06-.91,0-1.83-47.07-43.12,4.54,2.9,2.31,7.83,3.1,12,.94,5,7,7.76,6.5,13.79,0,.45,6.09,2.57,6.76,1.76,3.92-4.7,8.58-6,14.32-5.35a55.68,55.68,0,0,0,8.17,0c3-.11,9.77-11.27,7.85-13.82-2.6-3.45-7-6-.79-9.75,6.45-3.95,6-12.4,11.31-17.25,1.13-1,.75-5.57-.56-6.95s-4.77-1.29-7.28-1.79c-4-.79-6.33,2.9-9.29,3.78-8.08,2.4-14.5,8.86-24.32,7.63-8.89-1.12-12.34,8.51-17.92,13.73C582.37,449.17,583,449.81,631,486.38ZM757.66,539c0-2.75-.36-5.55.1-8.22.48-2.82-.13-3.76-2.82-2.71A4.82,4.82,0,0,0,753,530a3.88,3.88,0,0,0-.8,2.38c.67,4.36-2.61,6.4-5.06,8.91-1.7,1.74-3,3.93-5.9.83-3.21-3.48-5.23-6.23-3.47-7.74,6.08-5.22,2.5-11.92,3.22-17.91.16-1.4-1.25-4.15-2.22-4.29-2.38-.34-5.41-.27-7.31,1-7,4.52-8.41,12.89-12.14,19.6-2.05,3.69,2.64,6.1,4.93,8.72-7.74,6-4.73,14.59-5,22.28-.1,2.46.3,5.9,1.88,7.3,6.41,5.64,10.22,11.94,9.83,20.87-.09,1.85,3.88,3.66,5.44,5.86s3.48,2.62,3.81-.08c.94-7.77,9.8-13.15,6.47-22.07,5.26-4.53,6.71-10.41,5.46-16.92-1.46-7.59,8.3-11.84,11.18-38.59a49.32,49.32,0,0,0-.64-6.28,3.84,3.84,0,0,0-1.7-1.77c-1.18.84-3,1.81-3.13,2.92-.4,3.44.18,7-.26,10.43-.34,2.68.14,3.57,2.71,2.58a3.19,3.19,0,0,0,1.84-1.72C762.72,523.88,763.06,521.39,757.66,539ZM460.12,390.61c2.07,4.48-3.57,4.86-4.27,7.25-1.17,3.94-1.84,9.69.22,12.55,4,5.61,9.82,10,11.22,17.33,1.29-.52,3.72-1.09,3.69-1.54-.28-5.21.79-9.17,7.17-8.28,12.56,1.76,12.24-10,17.63-16,5.74-6.38-5.75-8-2.54-13-2.9-3.35-6.13-6.49-8.61-10.13-2.36-3.46-3.78-7.55-5.91-11.19s-7.67-5-7.56-10.57c.1-5.37-5-7.19-7.92-10.32-8.13-8.62-16.61-16.9-25.08-25.18-3.26-3.18-6.27-6.13-6.08-11.33,0-.75-4.52-2.53-6.79-2.29-2.75.28-5.16,3.6-3.5,5.83,9.83,13.23,10,30.73,19.68,43.8,3.22,4.36.17,9.57,2.51,12.56,2.9,3.7,8.15,5.55,12.42,8.15C461.2,381.22,460.29,385.92,460.12,390.61Zm102-121.47c11.91,0,23.93-1,35.7.34,8,.89,12.16-6.81,19.76-6,7.22.75,14.59,0,21.89,0,6.6-11.28,22,.62,28.51-10.82,5.5,0,11.12.71,16.46-.21,4.9-.85,9.53-5,14.24-4.95,7.5.1,13.42-2.36,19.89-5.49,3.56-1.73,6.26-2.25,6.12-6.72s.25-9.18-.14-13.73c-.21-2.46-.94-5.39-2.52-7.11a65.92,65.92,0,0,1-10.14-15c-3-5.9-9.34-10.28-11.11-17.44-7.79-4-7.81-13.58-13.55-19.16s-10.72-11.1-14.1-18.86-14.24-11-15.09-21.25c-6.48-6.48-12.54-13.47-19.58-19.27-5.15-4.25-6.81-10-9.57-15.39-7.34.32-10.8-5.48-15.2-9.73-4.62-4.45-10.1-8.42-13.38-13.73-4.81-7.78-14-1.79-19.16-7.49-1.51-1.67-5.18-1.27-6.92-2.85a20.25,20.25,0,0,0-17.08-5.48,40.7,40.7,0,0,1-11,0c-5.31-.8-8.49,2-11.51,5.54-6.89-1.63-9.74,4.08-13.16,7.87C515.53,68.68,507.7,73.4,504,82.32c-3.25,7.89-6,16.54-13.76,21.8a5.24,5.24,0,0,0-1.91,1.95c-2.07,4.74,1.48,10.59-3.78,15-3.85,3.26-2.39,10.39-7.87,13.13,2.53,7.79-3.85,13.16-5.22,19.77-1.41,6.78.33,13.79-5.42,20-2.28,2.47,0,8.85-.46,13.39-.49,5.18,2.39,11.09-2.5,15.41-6,5.32,3,6.3,2.77,10.29-.35,5.28-.44,11,1.32,15.87,2,5.52,7.42,9.89,9.05,15.44,1.37,4.64,1,8.27,7.43,8.52,3,.12,5.61,4,8.77,5.09,6.41,2.29,11.75,8.63,19.67,5.64,5.87,8.42,14.68,5.12,22.46,5.42C543.73,269.42,552.9,269.14,562.07,269.14ZM757.66,572.27c0,1.83,0,3.67,0,5.49.16,5.14,4,6.92,9.42,4.11,1.55-.81,2.52-3.49,3.94-3.64,5.39-.57,10.86-.31,16.28-.64,4.39-.26,10.92.7,12.74-1.71,6.32-8.38,8.1,3,13,2.07,9.25-1.72,16.59,4.44,23.17,9.72,7.81,6.27,14.2,14.27,21.65,21,2.36,2.14,8.88,2.84,8.83,4-.45,9.68,10.31,11.81,12.36,19.82,2.36,9.24,11,14.09,17.41,20.08,4.32,4,3.35,9.88,7.45,13.6,3.84,3.49,4.46,9.13,7.22,13.56s-.28,12.44,6.31,16.48v16.48c0,.92,0,1.83,0,2.75.16,5.11,4.27,7,9.41,4.15,1.53-.86,2.41-3.13,4-3.69,3.09-1.1,7.73.31,8.5-4.31.58-3.43,1.13-8.71-.77-10.37-5-4.35-4.54-9.38-4.63-14.78-.07-4.45,1.14-10.62-1.24-13a14.32,14.32,0,0,1-3.94-14.86c2.13-7.58-7.21-10.06-5.92-17.05,1.37-7.44.21-14.35-7.09-19.07-1.89-1.22-3.23-4.2-3.64-6.58-.6-3.56.56-7.48-.34-10.91-1.05-4-5.58-8.12-4.9-11.41,1.54-7.47-7.08-10.82-5.74-17,1.77-8.19-7.22-11.84-7-19.31.07-2.08-3.89-4.19-4-6.39-.27-5.53.14-10.94-5.46-14.3,2.81-7.24-8.76-9.5-5.8-16.84,2.57-6.38-4.27-9.11-5.92-14.05-3.18-9.55-8.53-18.45-13.57-27.29-3.31-5.82-6.59-6.2-13.16-3.09-2.29,1.08-4.54,2.76-7,3-12.37,1.45-21.79,9.43-32.41,14.62-6.46,3.15-6.53,7.81-2.36,13.06,3.21,4,8,6.36,8.72,13,.63,5.81,9.07,7.85,10.76,14.67,1.9,7.69,10.41,7.66,16,10.44,3.31,1.64,6.41,3.31,8.38,6,3.77,5.09,8.56,6.12,14.3,5.5,3.32-.35,5,1.6,5.1,4.65,0,1.63-.37,4.3-1.34,4.73-2.2,1-5.4,1.82-7.23.87-3-1.56-4.95-4.23-9-5-12.56-2.41-18.52-5.77-25.09-12.22s-12.39-13.68-19.59-19.2c-7.48-5.71-8.41-15.56-15.38-21.22-4-3.24-7.26-11-12.94-7.17-4.33,2.91-6.55,9.85-8.26,15.44-1.28,4.19-.22,9.08-.26,13.66,0,6.2,1.46,12.91-5.32,17C767.07,556.8,755.06,562.88,757.66,572.27Zm41.23,16.39c-20.31,0-20.18.24-30.27,5.42-7.36,3.77-13.91,8.73-16.11,16.51-1.44,5.1-7,7.57-6.29,14.17.56,5.22,5.45,7.77,5.52,11.44.09,5.41,6,7.62,5.64,11.45-1.12,12.43,9,20.25,11.67,31.15.85,3.54,6.08,6,9.3,9,8.87-3.77,13.93,7.66,22.5,5.57,5.81-1.42,8,7.94,14.19,5.37,7.52-3.15,9.71,8.8,17,5.6,13.13,6.43,12.77,4.87,26.36,1.76,10.89-2.49,20.84-9.88,32.86-7.33a13.49,13.49,0,0,0,5.48,0c2.85-.63,4.76-2.33,4.15-5.66s1.38-7.11-2-10.26c-1.75-1.62-2.62-4.36-3.47-6.74-2.68-7.45-12.25-10.52-12.38-19.72,0-1.31-2.19-3.08-3.75-3.81-6.58-3.08-4.64-11.21-9.6-15.42a132,132,0,0,1-15.52-15.58c-2.68-3.16-4-7.44-6-11.23-2.76-5.46-9.61-3.94-13.28-7.79C824.46,591.58,811.84,586.6,798.89,588.66ZM675.06,544.58c-3.66,0-7.39-.46-10.93.17-2.36.41-4.66,2.11-6.63,3.68-5.68,4.53-7.19,11.79-9.61,17.89-3.1,7.8,3.57,18.24-5.81,25,0,10,0,20.06-.14,30.08-.12,7,2.3,14.75-5.47,19.63.94,4.25-2.45,9.6,2,12.76,4.85,3.44,3.17,9.59,7.25,13.74,3.14,3.2,3.8,9.28,7.26,13.21-2.19,9.32,8,5,10,9.06,2.66,5.24,4.21,11,6.52,16.45,2.71,6.36,12,8.48,11.3,17.39-.06.73,4.42,2.63,6.73,2.53,2.77-.12,4.29-2.41,4-5.67a62.46,62.46,0,0,1,0-10.94c.58-6-1.14-11.79,3.48-17.88,3.18-4.19,1.1-12.06,2.62-17.95.78-3,5.5-4.51,4.89-8.91-.55-4-9.34-7.61-.7-12.14.22-5.39.57-10.77.63-16.16.11-9.13-.07-18.26.07-27.39.1-6.1-2-12.92,4.89-17.13-.9-1.29-1.55-2.93-2.76-3.79-2.2-1.57-1.66-2.19-.66-4,5.58-10.3,5.55-12.49.11-18.6-3.51-3.94-6.63-7.48-8.25-13.11-1.14-4-5.69-9.47-12.69-8C680.64,545.05,677.8,544.58,675.06,544.58ZM664,798.41c-.13-1.44,1.34-9.9-2.06-15.28s-4.42-10.47-3.1-15.09c2.2-7.73-9-9.57-6.07-17.13.74-1.92-1.36-7-1.81-7-5.21.5-3.55,4.86-3.35,7.82.27,4.14-1.59,6.71-4.39,9.26s.84,9.73-6.62,9.49-5.13-5.71-5.67-9.75c-.23-1.71-.06-4.23-1.08-4.94-5.64-4-2.08-6.27.48-10.07,1.69-2.52.86-6.76,4.16-9.22,3.69-2.75,1.3-8.25,5.61-11.59,3.51-2.72,2.61-5.89-.42-9-5-5.19-10-9.51-9.2-18.43.53-6,4.24-9.39,5.94-14.17,1.28-3.58-2.24-7.35-6-6.44a10,10,0,0,0-4.49,2.34c-3.85,3.77-5.1,2.85-6.12-2.24-1.26-6.35-2.12-6.47-5.55-2.68-2.32,2.56-5.57,4.31-5.42,8.78.33,10.06-.26,20.16.21,30.21.44,9.52-3.21,20,5.4,28l.72,21.68c7.71,5.2,5,13.22,4.52,20-.6,8,4.24,11.5,9.31,15,7.24,5.05,8,5.19,3.72,11.77-3,4.52-.79,8.8-1.74,13.06,5.48,2.74,4.65,9.14,7.71,13.3,5.85,7.91,9,7.7,14.38-.72a46.3,46.3,0,0,1,6.73-8.18c2.71-2.62,4.69-5.13,4.32-9.28C663.7,813.31,664,808.7,664,798.41ZM305.94,655.7c-.42-1.66-.31-4.19-1.35-4.82-8-4.85,0-16.91-9.59-20.84,4-8.92-7.37-14.25-5.43-22.35,1.56-6.51-6.19-8.38-5.77-14.22.5-7.06,1.19-14.44-5.4-19.67,3.46-8-6-12.85-5.29-19.65,1.22-11.85-9.58-21.3-5.91-33.47.29-1-1.75-3-3.08-4-3.58-2.83-1.3-6.83-2.37-10-1.33-4-4.23-7.49-5.26-11.51-2.77-10.79-9.57-26.88-15.56-34.73a41.76,41.76,0,0,0-3.85-3.91c-.92,1.45-2.47,2.83-2.65,4.36-1.78,14.8,4.33,30.58-5.61,44.36,1.83,3.82,4.86,7.52,5.22,11.47.5,5.58,1.11,10,5.48,14.46,2.61,2.64-2.13,9.34,2.31,12.49,4.86,3.45,3.18,9.6,7.31,13.74,3.87,3.87,3.86,11.46,7.48,15.8,5,6,3.51,13.62,6.79,19.18a194.53,194.53,0,0,1,9.23,18.21c6.32,13.82,16.21,26.14,17.78,42.13.27,2.76,4.68,5.4,7.6,7.48,1.18.84,3.81.6,5.23-.17S305.08,657.17,305.94,655.7ZM939.46,907.11a25.83,25.83,0,0,0-2.72-4.34c-3.53-3.71-18.76-11.09-22.79-11.12-9.14,0-18.28-.17-27.42.09-2.44.08-5.51.76-7.15,2.35-11.19,10.77-22.12,21.83-33,32.87-2.35,2.37-.32,8.31,3.07,8.66,5.22.55,11.3-1.56,14.55,4.56s11,5,14.89,9.79c-2.6,10.49,9.22,5.9,11.68,11.13a5.07,5.07,0,0,0,1.83,1.86c1.4-1,3.17-2,3.86-3.43,3.49-7.33,12.34-6.21,17.36-11.44s9.45-10.29,11.56-17.24c.13-.42,1.58-.65,2.39-.62,4.38.19,6.78-1.59,6.4-6.21s0-8.87,4.24-12C939.22,911.19,939.06,908.78,939.46,907.11ZM713.64,415.18c-3.4-3.4-6.59-6.67-9.87-9.85-5-4.9-5.19-5.07-13.14-.06-1.91,1.21-2.48,1.77-4-.49a12,12,0,0,0-3.65-2.79c-3.09,3.75-6.83,6-11.77,4.83-5.46-1.27-7.13,5-11.45,5.45-4,.38-6.81.93-6.81,5.94,0,5.28-7,7.71-5.62,14.21,1.14,5.2.08,10.86,1,16.16.19,1.14,4.64,1.34,6.89,2.46,1.15.57,2.67,3,2.48,3.26-3.69,4-7.24,8.38-11.58,11.63-6.27,4.69-.71,6.57,1.2,10,1,1.79.66,4.83-1.53,7.42-3.31,3.92-2.83,4.33.44,7.61,3.11,3.13,3.09,3.1,7.75.42,4.43-2.55,9.6-3.1,13.43-7.58,7.1-8.31,15.15-15.84,23.12-23.36,7.12-6.72,8.88-17.38,17.37-23a9.58,9.58,0,0,0-1.46-1.9c-.65-.51-1.59-1.17-2.26-1-6.83,1.3-12.5,5.44-18.19,8.85-4.52,2.7-8.63,1.46-12.9,2-.65.08-2.06-.89-2-1.32.07-1.31.62-3.7,1.06-3.71a12.89,12.89,0,0,0,9.49-3.91c3-3,5.18-6.82,10.44-7.89,3.84-.77,6.8-5.29,10.48-7.64C706,418.65,709.85,417.08,713.64,415.18Zm280.9,581.08v-11c0-.92.31-2.46,0-2.64-2.27-1.13-5.64-3.41-6.87-2.6-4.36,2.86-10.49,3.76-13.42,7-6.21,6.84-14.22,10.82-21.8,14.28-8.42,3.84-16.36,8.94-25.38,11.63-5,1.48-5.59,6.1-1.94,10.27,4,4.59,8.57,8.23,10.12,15.12,1.23,5.48,10.41,7.06,10,15.11-.13,2.35,2.23,3.67,5.22,1.06,2.42-2.1,6.74-2,9.12-4.17,6.81-6.09,12.93-12.95,19.58-19.24,5.82-5.5,5.77-15,13.46-19.26,1.15-.64,1.75-3,1.87-4.59C994.73,1003.6,994.54,999.92,994.54,996.26ZM627.14,1090h16.49c5.49,0,11.09.64,16.44-.24,3.12-.51,6.25-5.4,8.68-4.91,8.77,1.77,13.87-8.18,22.58-6.11,1.84.44,4.61-2,6.62-3.48,4.51-3.44,3.55-3.94-1.35-7.48-8.45-6.12-21.26-3.21-27.41-13.75a5.89,5.89,0,0,0-4.35-2.47c-10.59.07-22-2.66-29.41,8.85-1,1.58-4.73,1.53-7.25,2s-5.31-.91-7.48,1.93c-6.09,8-15.3,11-24.14,14.59-2.71,1.09-4.33,2.35-4.27,5.72.07,4.12,1.18,5.28,7.38,5.32C608.82,1090,618,1090,627.14,1090Zm58.92-153.34c.25-4.61-1.81-6.6-6.28-6.46-2.65.09-6.75.77-7.74-.59-5.46-7.56-13.65-6-19.79-4.33s-12.84,4.35-17.77,9.59c-7.46,7.93-15.21,15.6-23.1,23.11-4,3.82-2.67,8.51-2.17,12.6.38,3.05,4.56,5.6,5,8.68,1.24,8.62,3.76,2.67,7.55,2.07,9.22-1.47,16.87-4.16,22.55-11.85.7-.95,4.18.18,4.93-.78,4-5.14,11.82-3.76,15.39-8.93,3.8-5.52,10.11-6.42,15.1-9.66C684.34,947.07,687.56,942.65,686.06,936.61Zm214.83,52.93c0,2.75,0,4.58,0,6.4.12,4.58,1.63,5.93,6.69,5.86,3.5,0,7.21.81,9.85-2.72,3.81-5.11,9.48-7.18,15-10.06,6.75-3.55,14.27-6.32,19.43-13,5-6.47,11.52-11.7,17.24-17.61,5.34-5.52,4.84-18.25-.85-24.18-2.53-2.64-5.1-5.24-7.76-7.75-3.43-3.24-8.79-2.38-9.68,2.88-1.93,11.49-17.78,13.15-17.15,25.89,0,.61-1.13,1.75-1.87,1.87-12.93,2.13-17.63,14.56-26.83,21.3C900.52,981.62,900.55,985.88,900.89,989.54Zm-187.3,33.24c-.67,8.92,1.79,14.8,11.61,17.93s16,5.94,22.29,5.17c3-.37,5-1.85,4.63-5.1-.63-5.71,8-7.68,5.54-14,4-4.74,8.22-9.11,15-9.69.58,0,1.19-1.23,1.54-2,2.76-6-4.06-18.6-10.51-18.65-10.48-.08-21.5-2.45-29.13,8.81-2.59,3.83-10,2.52-13,7.61C712.71,1011.19,713.37,1017.16,713.59,1022.78Zm-110.53,86.09c-.65-.64-1.42-1.93-1.92-1.83-9.52,1.93-16.39-4.75-24-8-10.1-4.33-9.7-5-18.83.19-4.42,2.53-10.09,2.65-13.25,7.69-2.54,4.06-6.45,5.65-11.5,5.27-2.29-.18-5.95.87-6.88,2.55-4.33,7.71-13,9.22-19.54,12.73-6.22,3.34-12.92,10-21.88,6.87-.23-.09-2.71,4.12-2.84,6.4-.22,3.74,4.83,6.45,7.92,4.16,3.57-2.64,6.16-5.71,11.49-5.6,6,.13,13.17,3,18.11-1.94,5.57-5.61,11.93-2.21,17.82-3.38,1.6-.32,3.61-1,4.45-2.23,3.3-4.7,9.62-3,13.6-7.34s12.8,1.59,16.44-6c10,1.48,17.29-8.25,27.41-6.56C600.58,1112,601.91,1109.92,603.06,1108.87ZM961.49,892.73c-3.56,7.81,1.13,15.94,9.87,22.56,4.39,3.33,5.68,8.39,8,13.07,4.44,8.83,10.32,9.3,16.78,2.95,3.9-3.84,7.81-7.68,11.6-11.62,4.25-4.4,4.12-12.26.9-16.82C998.55,888.51,982,883.74,968,875.34c-1.15-.69-5.72,1.49-6.17,3.07C960.81,881.77,961.49,885.62,961.49,892.73ZM807.41,753.92c-2.85,0-5.57,0-8.29,0-7.35.12-13.72,5.85-13.89,12.66-.13,5.43-.33,10.9.07,16.3.35,4.89-1.23,8.38-4.68,11.83-1.15,1.15-.83,5.56.47,6.94,1.43,1.53,4.74,1.33,7.25,1.83,4,.8,6.29-1.94,9.33-3.81C802,797,806.93,796,810.88,792s10.52-5.89,14.67-10c4-3.9,8.46-5.64,13.29-7.57,2.67-1.07,1.42-9.36-.87-8.85-7.28,1.59-9.58-8.62-16.67-6.19C817.69,754.9,813.05,753,807.41,753.92ZM790.71,336c0-3.3.76-5.68-.12-6.87-7.15-9.66-8.15-23-17.82-30.95-7.84-6.43-10.55-15.68-15.13-23.94-1.24-2.25-2.37-4.79-4.24-6.38-1.46-1.24-2.23-6-5.59-2.48-1,1.05-1.67,4.24-1,4.8,7.19,6.33,5.21,14.68,5.35,22.53.14,7.31,0,14.62,0,21.93,7.72,7.08,5.18,16.41,5.56,25.12a15.65,15.65,0,0,0,1.23,4.95c2.36,5.94,10.41,8.15,15.17,4.4,4-3.2,6.15-9.1,13-8.67C788.42,340.56,790,337,790.71,336Zm47.59,742.9v-.37h27.15c3.84-7,11-4.21,16.71-5.82,2.57-.72,2.19-2.1.59-3.83-8.52-9.15-21.32-10.52-31.13-17.34-1.84-1.28-6.4-1.33-7.86,0-4.22,3.91-8.62,6.86-14.27,5.16-7.25-2.18-10.89,5-16.87,5.58-3.61.33-7.46-.65-10.86.24-4,1.05-7.63,3.49-11.42,5.33-1.52.73-4.39,1.58-4.33,2.16.29,3,2.75,3.29,5.43,3.41,8.63.36,18-2.53,25,5.45ZM795.43,467.46c.92,0,2.36.37,2.66-.06,3.78-5.44,11-4.6,15.63-8.86,5.11-4.67,12.52-.2,18.06-2.46,3.57-1.46,6.26-6.13,8.23-9.94.7-1.37-1.82-4.47-3-6.7-.41-.77-1.52-1.22-1.79-2-.15-.45.87-1.21,1.17-1.91,4.12-9.49,3.93-9.91-1.8-15.2-3.05-2.83-6.77-4.1-9.23-1-5.15,6.53-12.27,10.41-19.34,13-8,2.95-13.08,8.61-19,13.82-2.06,1.83-2.34,2.51.11,4,6,3.65,2.33,9.94,4,14.75C791.56,466.12,794,466.64,795.43,467.46Zm-506,233.32c-.26-.77-1.22-4-2.5-7.16-2.86-7-7.42-13.22-9.72-20.55-.3-1-3-1.67-4.56-1.7-5.43-.09-7.56,7.84-14,6.14a34.94,34.94,0,0,0-2.2,6.92C255,692.6,266,697.8,261.87,706.7c6.09,4.21,6.09,10.42,5.51,16.82,7.75,4.85,4.7,12.67,5.74,19.51.47,3.09,3.66,5.68,5.2,8.71,1.13,2.22,1.59,4.79,2.35,7.2,4.53-1.57,3.15-5.43,3.2-8.61.12-7.27,1.24-14.81-.28-21.76-1.79-8.2,4.3-13,5.77-19.63C289.74,707.21,289.41,705.32,289.41,700.78Zm571.1,135.77c3.66,0,6.47-.35,9.15.07,7.08,1.11,9.92-2.07,9.68-8.82,5.48-2.73,3.66-9.84,7.82-13.23,3.43-2.79,2.64-6.41,2.69-9.92,0-2.62-5-10-6.93-10.91-3.52-1.53-4.38,1.84-5.76,3.36-7.28,8.06-18.36,9.4-26.62,15.55-5.08,3.77-10.54,1.41-15.77,1.67-3.45.16-4.64,2.44-6.62,4.11-1.39,1.18-2.61,2.57-3.91,3.87,2,1.08,3.87,2.68,6,3.11,3.38.69,7.39-1,9.9,2.73C845.32,835.84,852.76,837.7,860.51,836.55ZM735.63,712.86c0,8.14,0,16.28,0,24.43,0,4.39,1.58,4.72,6.81,5.78,8.56,1.74,14.87-3.59,22.16-5.76,1.51-.45,3.94-2,3.87-2.9-.5-6.07,2.59-12.83-1.87-18.09-2.55-3-3.78-5.69-3.5-9.5.26-3.59,1.17-7.8-.28-10.69-2.45-4.88-8-2.43-12.21-2.75-3.49-.26-7.18.57-9.65-3-2.22-3.17-4.93-1.81-5.14.75C735.25,698.35,735.63,705.62,735.63,712.86Zm161,316.64c-3.16.82-8.08-2.22-11.63,2-4,4.82-11.73,3.34-15.26,9.41-1.19,2-2.35,3.79-.07,3.77,11.17-.12,14.6,16.61,27.69,12.46,1.34-.43,4.47,2.77,5.84,4.88,5.68,8.8,14.41,5.16,22.08,5.77.64.05,1.49-.88,2-1.54,2.3-2.83,1.41-17.2-1.35-20.15-3.09-3.29-7-6-9.43-9.7C911.73,1029.21,905,1028.67,896.58,1029.5ZM498.84,473a46.4,46.4,0,0,1-5.54,0c-4.63-.56-6,3.61-8.53,5.88-4.92,4.39,2.79,5.14,2.56,7.68-.65,7.45,8.52,11.74,5.91,19.59,4.12,6.49,5.39,14.63,11.65,19.88,3.21,2.69,12.56,3.21,14.62.18.5-.74-3.74-4.31-3.24-5.52,1.22-3,3.87-5.37,6.08-7.87s2.44-2.58.11-7.76c-.35-.78-1.72-1.54-1.59-2,2.69-9.83-6.23-14-9.44-20.87C508.39,475.58,506.21,471.71,498.84,473ZM783.3,363.1c-1.8,1.4-3.34,3-5.21,4-3,1.52-7.58,1.79-8.93,4.09-1.59,2.71-2,8.71-.2,10.33,5.5,5,5.61,10.76,5.4,17.13,0,.5,3.31,1.83,3.55,1.54,5.59-6.95,10.48-5.12,15.27.87,1.12,1.41,2.82,2.42,3.77,3.92,1.52,2.39,2.76,2.59,3.89,0,2.21-5.06,7.92-2.62,11.39-5.6,8-6.86,8.44-14.75.72-22.68-2.2-2.26-3.8-2.71-5.86,0a14.55,14.55,0,0,1-3.87,3.8c-1.83,1.06-2.61,5.76-5.55,2.7-1.48-1.54-1.11-4.92-1.43-7.49-.74-6,2.23-8,7.87-7.54.67.06,1.71-2.15,2.19-3.45.13-.36-1.14-1.76-1.82-1.8-3.62-.18-7.5-.87-10.83.13S788.31,371.61,783.3,363.1Zm8.38,374.29c5-1,11,2.44,15.24-2.5,7.09-8.18,17-11.38,26.41-15.4a2.09,2.09,0,0,0,.87-1.84c-.33-.78-1.32-2-1.83-1.87-7.56,1.44-13.06-3.92-19.54-5.52A84.27,84.27,0,0,1,798.54,705c-5.14-2.27-11.86-.57-16.73-6-2.18-2.42-7.61,1-7.62,4.54,0,2.73-1.16,6.79.19,8,6.46,5.61,5.34,12.79,5.26,19.79,0,4.67,2.21,6.3,6.5,6.1C788,737.32,789.78,737.39,791.68,737.39Zm55.26-11c-1.68.18-6.51-.29-10.42,1.38-5.47,2.32-10.3,6.18-15.32,9.52-2.7,1.79-2.75,3.79-.05,5.82s4.32,6,8.81,5.38c4.66-.61,8.12,1.43,12.21,3.88s9.13,6.63,13.48,6.56c5.5-.09,11.33-3.48,16.25-6.65,3.08-2,5.41-4.46,9.48-4,.54.06,2.25-2.84,1.88-3.46C878,735.87,860.55,726.48,846.94,726.35Zm-78.3,166.27c.84-4.45-2.44-6.73-5.14-8.7-3.35-2.43-7.77-3.41-11-5.94a93,93,0,0,1-11.55-11.42c-3.69-4.12-8.78-3.24-12.46-2.13-5.5,1.64-10.44,5.34-15.39,8.52s-4.24,8.59,1.56,11.37A26.74,26.74,0,0,0,722,886.1c5,.77,10.51-1.81,15,3.63,1.63,2,6.63.91,9.83,2,3.92,1.37,7.41,4,11.36,5.24a14.59,14.59,0,0,0,7.93-.27C767.27,896.39,767.84,894,768.64,892.62Zm43.69-39.54c-9.09,0-18.18-.1-27.26.09-1.56,0-4.17,1-4.41,2-.55,2.3-.92,5.7.35,7.19,4.71,5.52,10.28,10.28,15.18,15.64,2.53,2.77,3.71,1.22,5.94-.3,3.44-2.36,7.5-3.81,11.15-5.9s4.94-7.88,10.46-7.67,7.72-7.68,14-5.81c.42.12,1.91-1.56,1.8-1.77-.72-1.25-1.73-3.26-2.69-3.29C828.69,853,820.51,853.08,812.33,853.08ZM815,808.51c8-7.89,18.14-4,27.38-5.15,1.46-.18,2.56-2.43,4.08-3.18,3-1.49,6.77-1.92,9.12-4a15,15,0,0,1,9.4-3.94c3.11-.32,4.07-6.23,1.83-8.94-1.72-2.09-3.52-4.4-5.8-5.65-2.06-1.12-5.3-1.94-7.19-1.08-3,1.35-4.45,5.55-8.85,5a12.61,12.61,0,0,0-11.91,4.19c-5.28,5.66-9.86,12.6-18.73,13.83-.73.1-1,4.59-1.15,7.07C813.14,807.18,814.36,807.86,815,808.51ZM713.59,641c0,7.23-.3,14.5.3,21.68.1,1.19,4.12,2.54,6.46,2.86,1.28.18,3.95-1.52,4.06-2.58a83.94,83.94,0,0,0,.14-13.55c-.33-5.62,7.15-7.46,5.83-14.06-1.22-6.08.84-12.87-.56-18.87-1.53-6.51-7.6-11.81-5.31-19.54.13-.42-1.33-1.91-1.72-1.8-1.31.4-3.44,1.17-3.54,2-.94,7.64,2.73,16.38-5.66,22.13Zm-46.82,377.3c5.5,0,11.5,1.35,16.35-.44,3.76-1.38,6.67-4.78,11.43-5.76,4.07-.83,2.21-6.19,2.49-9.63a50.63,50.63,0,0,0,0-5.51c-.17-5.46-3-7.33-9.17-6.22-1.73.31-3.7,0-5.18.77s-2.77,3.7-3.93,3.59c-10.4-1-12.33,13.27-22.58,12.26-.64-.06-1.74.87-2,1.57-.61,1.59-1.34,3.42-1.06,5s1.53,4,2.65,4.18C659.38,1018.68,663.1,1018.34,666.77,1018.34Zm28.08-159.8c3.6-1,8.92,2.46,12.14-1.84,4.23-5.65,10.18-2.12,14.84-4,3.1-1.22,5.62-4.65,7.53-7.65.4-.64-3.74-3.44-4.38-5.66-.93-3.2.43-7.84-4.4-8.21-4.19-.32-9.07-1.85-12.51,2.57-3.89,5-8.83,8-15,9.93-2.86.89-5.42,4.77-6.72,7.88-.7,1.68,1.09,4.94,2.62,6.79C689.68,859.28,692.39,858.54,694.85,858.54Zm-58.38,181.11c-3-10.19-15.45-13.86-22.86-6.69-4.55,4.4-9.09,8.81-13.39,13.44-3.48,3.76-2.14,10.43-7.65,13.08,1.29,1,2.92,3,3.81,2.77,13.61-4.32,25.16-13.19,38.65-17.91C636,1044,636,1041.27,636.47,1039.65ZM531.8,415.13c0,1.79,0,3.59,0,5.38.17,9.32,7.83,15.34,17.86,13.8,1.49-.23,3.93-1.75,4-2.76.35-7.17,1.06-14.51-.17-21.48-.64-3.68-5.87-5.84-5.47-11.27.21-2.79-6.43-4.39-8.68-2.06-3.51,3.65-9.19,6.21-7.59,13C532.14,411.46,531.8,413.33,531.8,415.13Zm183.72,504c8.08,2.94,15.12-4.31,23.48-6.24,2.65-.61,2.44-2.25.39-3.84-3.43-2.67-5.51-7.22-11.13-6.55-2.49.3-6.22.19-7.52-1.33-6-7-13.6-3.24-20.48-3.86-1-.09-3,2.36-3,3.72-.35,5.33-.63,10.34,4.35,14.79C705.63,919.5,709.64,919.1,715.52,919.16Zm43.12-491.81c-2.54-6.32-4.95-12.6-7.61-18.78-1-2.23-2.43-1.9-3.82.45-2.12,3.57-6.46,2.39-9.18,4.05-4.69,2.84-2,8.23-2.28,12.49-.21,3.68-.15,7.05-3.51,9.52-4.16,3.07.41,4.32,1.68,5.65,1.47,1.52,2.49,5.18,5.62,3.41a130.17,130.17,0,0,0,15.06-9.66C756.42,433.09,757.09,430.2,758.64,427.35ZM420.39,1149.94c7.31,1.48,11.14-.09,14.23-4.06,3.45-4.42,7.48-7.76,13.83-6.46,1.47.3,4-.3,4.75-1.38,4.76-7,13.08-8.64,19.12-13.57a14.88,14.88,0,0,0,4.22-6.41c.46-1.28-.72-3.23-1.39-4.78-.17-.4-1.74-.68-1.79-.58-2.8,5.46-9.61,3.75-13.41,7.63-3.05,3.1-6.57,7.22-10.34,7.77-5.51.81-7.73,8.36-14.11,5.92-3.06,3.36-6.14,6.33-11.36,5.94-1.19-.09-2.57,2.38-3.87,3.68l-3.87,3.88ZM828.55,840c-.15-.64-.1-1.62-.5-1.87-5.75-3.61-14.74,1.29-18.7-7.12-12.64,0-25.28-.09-37.91.19-1,0-2.45,2.59-2.64,4.1-.41,3.31,6.9,12.78,8.34,11.58,3.55-2.95,6.59-5.15,11.64-5,12.61.39,25.24.09,37.86-.06C827.28,841.85,827.91,840.66,828.55,840Zm58.84-130.18c-2.69,0-5.39.14-8.06,0-5.46-.35-7,4.83-10.45,7.24,1.84,2.54,3.21,6.58,5.6,7.32,7.14,2.23,12.58,9.45,21.09,7.46,1.59-.37,4.32-1.22,4.36-2,.33-6,.19-12.09,0-18.13a2.66,2.66,0,0,0-1.82-1.82C894.56,709.75,891,709.85,887.39,709.85Zm-38.2,319.51c6.38.72,12.08,0,16.57-6,3.77-5,8.85-9,13-13.83.85-1,.52-3.77-.27-5.15a6.27,6.27,0,0,0-4.27-2.47c-1.56-.2-4.18.23-4.74,1.25-3,5.42-9.89,2.91-13.51,7.46-3.15,4-6.25,9.13-13.07,8.14-.51-.08-2.53,4.48-2.35,6.76.21,2.74,2.66,4.31,5.81,3.82A19.42,19.42,0,0,1,849.19,1029.36Zm-92.27-60.61c8.72,1.93,14.2-5.65,21.68-7.4.7-.17,1.25-3.25.95-4.81s-1.52-3.88-2.71-4.13c-5-1.09-11.1,2.11-14.83-4-.37-.61-1.25-.91-1.9-1.35-3.93,6.47-13.08,5-17.28,11.48-1.32,2-1.75,2.2.2,4.09C747,966.48,750.74,970.27,756.92,968.75Zm-38,5.52a45.35,45.35,0,0,1-5.48,0c-3.41-.42-4.93,1.55-5.32,4.36a57.14,57.14,0,0,0-.07,8.07c.06,8.44,5.66,12.78,13.43,9.42,3.76-1.62,5.9-6,11.31-5.6,2.79.18,4-6.2,1.84-8.86C730.64,976.58,726.09,972.5,719,974.27ZM911.14,858.58c-1.83,0-3.65-.05-5.48,0a5.65,5.65,0,0,0-2.5.54,4,4,0,0,0-1.86,1.92,2.25,2.25,0,0,0,1.23,1.83c5.48.84,10.32,3.13,13.12,7.87,3.14,5.32,10,3,13.44,7.6,3.29,4.47,8.46,1.87,12.72,1.92,1,0,3.57-5,2.87-6.19-2.13-3.72-5.52-6.72-8.41-10C926.6,868.13,920.5,856,911.14,858.58ZM504.26,585c0-2.75.18-5.52-.05-8.25-.26-3-1.86-4.54-5.22-4.68-7.3-.32-7.25.61-11.51,6.78S483.13,589,489.34,593c3.4,2.22,4.54,5.39,4.08,9.41-.05.38,3.16,1.86,3.59,1.46,2.62-2.42,5.83-4.89,7-8S504.26,588.65,504.26,585ZM822.15,990.8c4.5,0,9,.12,13.48,0,3-.11,4.51-1.79,4.74-5s-1.19-5.76-3.8-5.77c-4.09,0-6.08-2.84-9.05-4.43-6.9-3.67-15.55-.41-20.17,7-.8,1.3-.64,3.78,0,5.25a5.82,5.82,0,0,0,4,2.81A94.08,94.08,0,0,0,822.15,990.8ZM724.59,721.16h0c0-6.34.14-12.68-.16-19,0-.92-2.07-1.89-3.34-2.52-.26-.13-1.89,1.38-1.77,1.78,2,6.32-5.89,8.44-5.79,14,.15,8.14-.23,16.31.34,24.42.08,1.17,4.1,2.55,6.43,2.88,1.28.19,4-1.55,4.08-2.55C724.78,733.84,724.59,727.49,724.59,721.16ZM481.76,462c1.58-.52,3.46-.66,4.71-1.62,4.25-3.26,7.09-7.32,7.78-13,.32-2.67,2-2.27,3.79-.13,1.13,1.36,2.44,5.49,5.63,1.6,1.7-2.08,4.86-3.62,5.32-5.84.31-1.5-2.95-3.7-4.54-5.65-2.56-3.14-6.34-4.5-9.13-2a249.87,249.87,0,0,0-18.48,19.32c-.77.88-.27,3.68.58,5S480.26,461.22,481.76,462Zm61.06,32.15c2.94-8.61-9.16-14.49-6.15-24.31.38-1.24-3.57-3.8-5.52-5.74-.65-.65-1.22-1.65-2-1.83-.5-.11-1.53.84-1.88,1.53-5.63,11.15,4.37,20,4.37,30.32,0,4.42,3,6.24,5.32,8.86a10.46,10.46,0,0,0,2,1.91,2.23,2.23,0,0,0,1.88.29c.78-.41,1.83-1.19,1.89-1.89C543,500.52,542.82,497.75,542.82,494.11Zm102,414.24c3.2-.34,8.55.59,11.78-1.6,5-3.42,8.83-8.82,12.76-13.7.72-.9.14-4.24-.82-4.82-2.1-1.26-6.61-2.6-7-1.93-5.59,8.76-16.76,9.82-23.18,17.22-.58.67-1.75,1.34-1.7,1.93a2.89,2.89,0,0,0,1.82,1.87A52.9,52.9,0,0,0,644.84,908.35ZM570.36,475c0-2.75.7-5.75-.17-8.19-1.13-3.16-3.73-5.77-5.29-8.82-2.56-5-9.16-8.7-13.76-6.95-.9.35-1.7,3.55-1.6,3.59,5.53,2.83,3.22,9.83,7.54,13.63,3.76,3.32,2.4,10.42,7.95,13.08a11.41,11.41,0,0,0,3.89,1.2c.42,0,1.29-1.28,1.38-2A50.38,50.38,0,0,0,570.36,475ZM790.69,929c-1.82-.5-5.31,3.88-9.28,7.63-1.85,1.75-2.22,3.11.42,3.88,5.73,1.67,12.49-.74,17.07,5.75,1.65,2.34,13.27-3.71,12.71-6.9-.5-2.87-3.3-6.11-6-7.61C802.76,930.11,798.84,930.33,790.69,929ZM895.38,752.59a10.56,10.56,0,0,0-1-2.32,12.34,12.34,0,0,0-1.89-1.78c-5.16,9-16.23,10.07-22.89,17.17-1.84,2-1.83,2.09,0,4.06,7.33,7.87,7.57,7.81,15.23-2.4,2.69-3.6,6.51-6.33,9.44-9.77C895.28,756.41,895.06,754.27,895.38,752.59Zm-128.11,2.68c-.72-.45-1.43-1.25-2.18-1.29-2.72-.16-6-1-8.1.11-7,3.75-13.27,8.71-15.7,16.79-.36,1.19.94,3.56,2.14,4.36s4.14,1.36,5,.58c6.75-6,13.18-12.36,19.64-18.68C768.26,757,767.57,755.91,767.27,755.27Zm-18.1-78.48h2.75c5.76-.06,5.67,0,2.86-5.68-1.5-3-2-6.74-4.08-9.25-2.37-2.9-4.68-5.28-4.23-9.41.07-.67-2.13-1.76-3.44-2.27-.34-.14-1.87,1.27-1.8,1.81.57,4-1.07,6.71-3.8,9.58-1.45,1.52-2.3,5.93-1.26,7.07C739.62,672.44,742.42,678,749.17,676.79Zm9.91,115.69c1.78,0,3.65.35,5.31-.1s4.16-2.26,4.05-2.53c-3-7.3,8.93-9.29,5.72-16.43-.35-.75-1.47-2-1.66-1.86-5.62,3-12.47,3.76-16.7,9.1a18.17,18.17,0,0,0-3.47,6.51c-.33,1.27.73,3.49,1.86,4.35S757.42,792.21,759.08,792.48Zm48.39,253.4h11c.89,0,2.11.26,2.63-.21a78.06,78.06,0,0,0,7.74-7.8c.81-1-7.79-8.16-8.94-7.33-6.3,4.58-12.92,8.37-20.68,10-.88.18-1.55,2.29-1.91,3.62-.11.38,1.19,1.61,1.9,1.66C802,1046,804.72,1045.88,807.47,1045.88Zm-23-60.59c.59-.21,3.47-.49,5.3-2a103,103,0,0,0,11.57-11.6c.92-1.07.89-3.71.27-5.2-1.22-2.88-2.85-2.73-5.51-.62-3.25,2.58-7.73,3.56-11.07,6-3.62,2.69-6.56,6.3-9.72,9.58a2,2,0,0,0-.21,1.87c.42.76,1.17,1.74,1.89,1.85C778.78,985.47,780.63,985.29,784.47,985.29ZM746.38,392.73c1-5.31-1.43-7-5.46-8.07-7.81-2.06-11.76,7.17-19.12,5.87-.33-.06-1.92,2.93-1.51,3.5a32.23,32.23,0,0,0,5.53,5.73c3.43,2.92,3.61-2.08,5.64-2.46,3.34-.62,6.81-.66,10-1.57C743.57,395.14,745.31,393.42,746.38,392.73ZM874.17,878.64c.66.67,1.27,1.86,2,1.89,3.66.19,7.48-.57,11,.22,8.91,2,8.94,2,11.8-.68,2-1.84,1.83-2.17.32-4.08-8.09-10.24-18.2-8.12-24.71.77C874.16,877.23,874.27,878,874.17,878.64Zm-403-293.06a71.28,71.28,0,0,0-.08-8c-.18-1.58-1-4.29-1.83-4.37a50.46,50.46,0,0,0-12.64-.1c-2.61.38-2.43,2.17-.16,3.66,5.33,3.49,2.81,12,9.38,14.81a14,14,0,0,0,3.79,1.28c.44,0,1.38-1.19,1.47-1.92A43.34,43.34,0,0,0,471.2,585.58ZM827.64,919.1c9.36.51,9.58.34,12.68-6.48a13.32,13.32,0,0,1,2.61-4.23c2.15-2,3.13-4,.05-5.61-1.41-.73-4.06-.85-5.18,0-3.41,2.61-5.86,6.57-11.25,5.69-.56-.09-2.74,4.32-2.51,6.46C824.24,916.74,826.86,918.27,827.64,919.1ZM614.43,573.3c0,1.78-.33,3.64.1,5.31s1.59,2.88,2.43,4.31c1-1.22,2.65-2.33,2.87-3.67,1.1-6.78,6.31-11.56,8.44-17.88.79-2.32,3.08-4.39-.12-5.51-2-.69-5.16.31-7.12,1.59C615.42,561.13,613.54,566.73,614.43,573.3Zm303,211a96.58,96.58,0,0,0-.17-10.77c-.1-.88-2.15-1.72-3.45-2.18-.37-.13-1.89,1.35-1.77,1.76,2.21,7.67-3,13.09-5.52,19.36-1.26,3.12,1.35,5.28,4.07,5.29,2.27,0,6.07-1.25,6.53-2.76C918.11,791.73,917.42,787.93,917.42,784.33Zm22.08,66L925.83,836.7c-1.3,1.19-2.63,2.34-3.87,3.59-2.25,2.27-5.73,3.78-1.41,7.9C926.61,854,932.42,856,939.5,850.37ZM704.85,544.83c4.19-2.82,3.24-6.56,3.19-9.93-.1-6.55-.57-6.85-8-6.84a10.64,10.64,0,0,0-2.65,0c-1.59.4-3.11,1-4.66,1.57.49,1.25.69,2.77,1.53,3.72C697.7,537.33,701.37,541.11,704.85,544.83Zm82.92,352.32c-7.45,0-9.89,3-7.18,9.12,1.14,2.56,2.1,2.19,3.88.14,1.1-1.27,2.27-5.7,5.54-1.77a30,30,0,0,0,3.73,3.26c.82-2.32,2.12-4.6,2.29-7,.08-1.19-1.66-3.07-3-3.64C791.53,896.65,789.54,897.15,787.77,897.15Zm220,32.47c-3.46,3.84-6.89,7.71-10.39,11.52-2.49,2.7-2.59,5.15-.05,5.54,1.71.26,4.24.79,5.12-.09,3.51-3.46,9.06-5.67,8.62-12a5.23,5.23,0,0,0-.7-2.33A22,22,0,0,0,1007.74,929.62ZM485,555.6a16.85,16.85,0,0,1,2.66,0c3.29.56,5.32-1.4,5.4-4.06.07-2.27-1-5.73-2.64-6.58s-5,.25-7,1.43a19.51,19.51,0,0,0-5.59,5.64c-.35.48.93,3,1.92,3.39C481.25,556,483.2,555.6,485,555.6Zm210.8,479.27c5.72.29,8.46-2.84,6.67-8-.35-1-2.91-2.35-3.35-2a49.91,49.91,0,0,0-5.72,5.46c-.61.61-1.18,1.25-1.77,1.87Zm-428-274.77c-1-1.84-2.08-4-3.2-6.18-.91,2.28-2.3,4.51-2.56,6.86-.14,1.27,1.65,2.76,2.56,4.16Zm2.31,7.89c-1.37,4.62-2.51,6.94-2.58,9.3,0,1.36,1.67,2.78,2.58,4.17.92-1.39,2.62-2.81,2.58-4.17C272.65,774.92,271.5,772.59,270.13,768Zm398.6,72.11-2-3.55c-.62.61-1.83,1.36-1.73,1.81a17,17,0,0,0,1.73,3.7Zm74.36-8.26-2,2a17.65,17.65,0,0,0,3.7,1.72c.46.1,1.2-1.11,1.81-1.72C745.45,833.13,744.25,832.47,743.09,831.84Zm12.61-18.12,2-2A17.19,17.19,0,0,0,754,810c-.45-.1-1.2,1.11-1.81,1.72ZM978.81,966.8l2,2a17.19,17.19,0,0,0,1.72-3.7c.1-.45-1.11-1.2-1.72-1.81Zm-9.06,2c-.61.61-1.82,1.36-1.72,1.81a17.42,17.42,0,0,0,1.72,3.7c.61-.61,1.82-1.36,1.72-1.81A17.19,17.19,0,0,0,969.75,968.76ZM337,648.46l2-2a16.91,16.91,0,0,0-3.69-1.73c-.46-.1-1.2,1.11-1.82,1.73Zm33.05-71.62,2-2a17.65,17.65,0,0,0-3.7-1.72c-.46-.1-1.2,1.11-1.81,1.72Zm351,484.78,3.55-2c-.61-.62-1.36-1.83-1.81-1.73a16.77,16.77,0,0,0-3.7,1.73Zm-262.83,45.65-3.55,2c.61.62,1.36,1.83,1.81,1.73a17.2,17.2,0,0,0,3.7-1.73ZM553,542.62l-2-3.55c-.61.62-1.82,1.36-1.72,1.82a17.34,17.34,0,0,0,1.72,3.69ZM518.82,429.69l-3.55,2c.62.62,1.36,1.83,1.82,1.73a16.91,16.91,0,0,0,3.69-1.73Zm-78.71-7.09,3.55-2c-.61-.62-1.36-1.83-1.81-1.73a17,17,0,0,0-3.7,1.73Z"/><path d="M1079.2,858.58a11.26,11.26,0,0,1,2.07,1.41c.45.48,1,1.63.84,1.81-6.27,6.32-12.58,12.59-19,18.76-.46.45-1.73.06-2.62.06h-5.35c0-.89-.39-2.16,0-2.62,6.21-6.4,12.43-12.79,18.92-18.9C1075.1,858.17,1077.47,858.72,1079.2,858.58Z"/><path d="M641.06,340.76a9.71,9.71,0,0,1-2.46-.69,9.33,9.33,0,0,1-1.89-1.83c4.35-4.61,8.64-9.31,13.32-13.57,1-.93,3.47-.42,5.26-.42,2.62,0,2.88,3,.45,5.49-3.22,3.25-6.33,6.65-9.79,9.64C644.78,340.38,642.71,340.33,641.06,340.76Z"/><path d="M906.4,214.06a4.21,4.21,0,0,1-3.9,5.37c-6,.43-12.09.14-18.14.14v-5.51Z"/><path d="M675.05,321.71c.35,6.06-1.43,8.41-6.31,8-3-.22-4.59-1.75-4.72-4.74-.19-4,1.27-6.86,5.76-6.16C671.55,319.13,675.41,316.23,675.05,321.71Z"/><path d="M471.21,924.87c-.29,4.24-2.1,5.82-6.86,5.21-1.48-.18-2.78-1.72-4.16-2.64l1.87-1.87a35.57,35.57,0,0,1,3.78-3.69,17.11,17.11,0,0,1,3.7-1.61C470.1,921.8,470.65,923.34,471.21,924.87Z"/><path d="M540.25,37.78c-1.71,0-3.56.4-5.08-.14-1.18-.42-1.95-2-2.9-3.09,1.4-.76,2.73-2,4.2-2.16a10.3,10.3,0,0,1,4.65,1,3.4,3.4,0,0,1,1.66,1.83C543.74,37.75,542.82,38.63,540.25,37.78Z"/><path d="M884.36,219.57c.4,5.17-3.14,5.81-6.84,5.4-2.75-.31-4.8-2.05-4.17-5.4Z"/><path d="M1055.14,880.62q.21,5.71-5.51,5.51C1049.49,882.32,1051.32,880.48,1055.14,880.62Z"/><path d="M608.92,855.53c-1.08.85-2.73,2.65-3.17,2.39-3.31-1.94-1-3.51.76-4.78a2.39,2.39,0,0,1,2.32,0C609.24,853.57,608.92,854.71,608.92,855.53Z"/><path d="M608.92,853.08c-.14-3.82,1.7-5.65,5.51-5.51C614.57,851.38,612.74,853.22,608.92,853.08Z"/><path d="M619.94,842.06c.14,3.81-1.69,5.65-5.51,5.51C614.29,843.75,616.13,841.92,619.94,842.06Z"/><path d="M420.83,988.84l-2,2a17.65,17.65,0,0,1-1.72-3.7c-.1-.46,1.11-1.2,1.72-1.81Z"/><path d="M492.44,67.28c-.63,1.15-1.29,2.35-2,3.55-.61-.61-1.82-1.36-1.72-1.81a17.19,17.19,0,0,1,1.72-3.7C491.1,65.93,491.71,66.54,492.44,67.28Z"/><path d="M484.18,81.05l-2-2a17.42,17.42,0,0,1,3.7-1.72c.45-.1,1.2,1.11,1.81,1.72Z"/><path d="M911.91,208.55q.21,5.72-5.51,5.51v-5.51Z"/><path d="M994.54,382.07a16.77,16.77,0,0,1-3.7,1.73c-.45.1-1.2-1.11-1.81-1.73a17.19,17.19,0,0,1,3.7-1.72C993.18,380.25,993.93,381.46,994.54,382.07Z"/><path d="M581.38,370.76c-1.09.85-2.73,2.65-3.17,2.39-3.32-1.94-1.05-3.51.76-4.79a2.41,2.41,0,0,1,2.32,0C581.7,368.8,581.38,369.94,581.38,370.76Z"/><path d="M584.58,363.24c.64.64,1.81,1.54,1.7,1.75a11.2,11.2,0,0,1-2.5,3.24c-.48.41-1.58.07-2.4.07,0-.82-.33-1.9.07-2.4A20.16,20.16,0,0,1,584.58,363.24Z"/><path d="M694.31,313.21a17.65,17.65,0,0,1,1.72,3.7c.1.46-1.11,1.2-1.72,1.81a17.34,17.34,0,0,1-1.72-3.69C692.49,314.57,693.7,313.83,694.31,313.21Z"/><path d="M678.23,313.66c.64.64,1.81,1.54,1.7,1.75a11.2,11.2,0,0,1-2.5,3.24c-.48.41-1.58.07-2.4.07,0-.82-.33-1.9.07-2.4A20.16,20.16,0,0,1,678.23,313.66Z"/><path d="M675,601.67c-1.2.89-2.82,3-4.77,3.35-4.79.89-6.34-1.82-6.35-8.24,0-5.26,3.59-2.19,5.35-2.48C673.77,593.55,675.14,596.48,675,601.67Z"/><path d="M661.55,594.16c-.84-1.08-2.64-2.73-2.39-3.17,1.94-3.32,3.51-1,4.79.76a2.39,2.39,0,0,1,0,2.32C663.51,594.48,662.37,594.16,661.55,594.16Z"/><path d="M658.5,574.88a16.29,16.29,0,0,1-3.7,1.72c-.45.11-1.19-1.11-1.81-1.72a17.65,17.65,0,0,1,3.7-1.72C657.15,573.06,657.89,574.27,658.5,574.88Z"/><path d="M475,411.83c-2.12,0-5.82,1-6.83-.2-2.64-3.18-3.93-7.44-6.08-11.08-2.68-4.54-2.81-4.76.85-4.6,2.5.1,6.56.52,7.13,1.93,1.63,4,2,8.54,6.05,11.25A16.62,16.62,0,0,1,475,411.83Z"/><path d="M702.57,764.94c3.82-.14,5.65,1.69,5.51,5.5Q702.37,770.65,702.57,764.94Z"/></svg>