<svg id="Layer_1" data-name="Layer 1" xmlns="http://www.w3.org/2000/svg" viewBox="0 0 1200 1200"><title>BB_Artboard 104</title><path d="M636.62,537c0-4.39.1-8.78,0-13.17-.24-8.74.06-8.47,3-12.4,3.29-4.35,7.59-4.05,11.65-2.91a25.18,25.18,0,0,1,5.42,2.67c2.19,1.31,4.85,3.32,5.42,5.52.94,3.59,2.22,7,3.47,10.45-3.5,2.94-2.57,7-2.62,10.76-.05,3.94.23,7.91-.08,11.84-.32,4.11,1.83,8.8-2.44,12.13,0,3.06-.09,6.11-.12,9.17,0,2.19.86,5.07-.21,6.42-1.63,2.07-1.72,4.9-3.48,6.47-2.06,1.85-1.35,4.71-3.51,6.6s.47,5.76-2.79,8.1c-1.72,1.23-2.34,4.18-3.12,6.48a11,11,0,0,0,0,3.92,1.91,1.91,0,0,0,.64,1c.23.22.77.48.89.38.68-.55,1.22-1.27,1.9-1.82,2.31-1.89,3.67-5.29,6.83-5.64,2.69-.3,3.73-4,6.8-2.78,3.79-6.49,7.33.07,10.82.58,2.09.3,3.77,3.43,5.63,5.3,3.9,3.95,4.48,7.53,2,12.55-3.58,7.36-5.07,9.24-14.15,13-2.77,1.14-3.32,2.32-2.93,4.49.59,3.29-3.86,4.55-2.8,8.17.9,3.07-3.06,4-3.9,6.2-1.88,5-5.29,9.12-6.78,14.33-.87,3.05-3.45,5.56-5,8.47-1.3,2.5-1.69,5.62-3.38,7.76a51.29,51.29,0,0,0-5.6,8.24c-2.06,4-3.13,8.57-6.4,11.83-3.07,3-4.56,6.81-5.79,10.8a3.37,3.37,0,0,1-1.65,1.9c-3.75,1.53-2.84,6.07-5.54,8.31-2,1.67-3.57,3.92-5.66,5.48-2.27,1.71-4.77,3.52-7.44,4.18a23.87,23.87,0,0,1-9.15,0c-1.45-.23-2.73-1.9-4-3-7.28-6.69-9.6-9.33.07-17.28,3.15-2.58,4.27-6.21,6.29-9.33,1.31-2,1.7-4.68,3.87-6.27,3.2-2.31,4.83-5.78,6.49-9.16,1.28-2.63,2-5.54,4.67-7.29,2.26-1.46,1.09-5,3.74-6.34-.12-3.49,2.77-5.06,4.63-7.31,1.57-1.9,1.14-5,3.7-6.36-.71-4.5,1.95-7.92,3.78-11.6s3.71-7.24,5.58-10.85a7.65,7.65,0,0,0,1.11-2.16,6.74,6.74,0,0,0-.62-2.34c-.62.2-1.48.2-1.82.62-3.83,4.72-8.27,5.79-13.52,2.46-2.87-1.81-5.64-2.11-8.05.64-2.09,2.38-4.23,4.18-7.77,3.67-.93-.13-2.18,1.1-3.08,1.92-1.94,1.78-3.75,3.69-5.61,5.56-2.42,2.44-4.81,4.5-4.52,8.79.15,2.4-2.94,4.85-3.74,7.52-1.06,3.54-4.82,6-4,10.27a2.57,2.57,0,0,1-.85,2.2c-4.25,2.62-4.21,8.37-8.29,11.15a4.24,4.24,0,0,0-1.25,3.33,5.9,5.9,0,0,1-2.53,5.58,6.53,6.53,0,0,0-2.88,6.74c.42,2.63-3.56,3.67-2.64,6.81s-2.37,4.27-3.75,6.32c-.67,1-1.54,2.31-1.36,3.32.66,3.8-2.29,6.29-3.65,9.06s-1.74,6.61-5.22,8.45c-2.72,1.43-1.62,5.65-4.67,7.27-2.08,1.1-2.69,3.19-2.41,5.56a3.82,3.82,0,0,1-.45,2.41c-1.39,2.13-4.59,3.08-4.68,5.94s-3.92,3.73-2.73,6.81c-2.65,1.29-2,4.64-3.78,6.29-2,1.81-1.06,5.05-3.62,6.5-.47.26-.09,1.75-.55,2.33-1.59,2-4,3.63-4.9,5.88s-.27,5.16-.32,7.77c-4.57,2-.79,7.58-4.44,10.09-.74.5-.84,2.33-.78,3.53.22,4.81-1,8.17-6.52,9.17-1.74.31-3,2.39-5.51,2.61-3.43.3-4.67-4-8-3.06-1.23-2.56-3.24-5-3.52-7.71a109.32,109.32,0,0,1-.08-15.78c0-1.07,1.34-2,1.76-3.18.88-2.31,1.62-4.67,3.42-6.49-1.66-3.85,2.35-6.12,2.64-9.44.11-1.25-.14-3,.57-3.66,5.73-5.25,7.55-12.7,11.05-19.18,1.73-3.21,3.05-6.72,4.89-9.78,1.68-2.8,4.1-5.09,5.53-8.28,1.65-3.69,3.56-7.31,5.4-10.93,1.66-3.26,3.07-6.72,4.9-9.79a85.32,85.32,0,0,1,5.62-8.15c2.49-3.22,0-8.06,4.18-10.2.8-5.32,6.05-9,5.4-14.95-.1-.89,1.44-2,2.3-2.93s2.76-2,2.63-2.78c-.75-4.58,2.6-6.84,4.59-10.08a57.27,57.27,0,0,0,4.87-9.79c1.27-3.44,3.46-6.42,4.81-9.86.59-1.48,1.93-2.61,1.81-4.54-.07-1.17.12-2.88.89-3.5,6.06-5,8.74-12.64,14.7-17.76,2.63-2.27,5.6-3.59,8.32-5.47s5.92-.43,8.82-1c2.6-.53,4.18,1,5.42,2.75,1.78,2.53,4.2,2.86,6.88,2.5.75-.11,2.07-.75,2.06-1.11-.06-2.43,1.17-4,2.89-5.43-1.78-5,4.41-8.36,2.69-13.4-.64-1.87,1.48-3.1,1.77-4.46.78-3.65,4.76-6.22,3.45-10.46,2.83-2.61,3-6,2.59-9.44-.33-2.84,3.4-3.74,2.78-6.84-.5-2.53-.1-5.24-.1-7.87,3.62-2.39,2.55-6.09,2.62-9.45S636.62,540.51,636.62,537Z"/><path d="M573.39,406.6c0,6.12-.08,12.26.05,18.4,0,1.9-.9,3.06-1.75,4.59a9,9,0,0,0,.32,9.57c1.34,2.25-.37,2.6-.63,3.87a25.22,25.22,0,0,0-.51,9c.92,5.8-3.08,10.33-3.56,15.77-.11,1.24-2.47,2.6-1.77,4.43,1.66,4.32-2.5,7-2.94,10.76-.18,1.62-2.72,3-2.45,5.53a64,64,0,0,1-.09,7.83c-4.35,2-.6,7.79-4.66,9.92.73,4.42-2.7,7.67-3.33,11.86-.53,3.56-2.83,6.79-2.48,10.81.25,2.87-2.85,4.68-2.86,8.12,0,2.94-3.24,5.74-2.5,9.36-1.93,1.3-2.07,3.5-2.94,5.36s-2.92,3.22-4.52,4.72c-2.22,2.08-8.1,2.4-10.64.32-1.22-1-2.87-1.87-2.84-4.07.12-7.9-.11-15.81.17-23.71.07-1.86,2.61-3.83,2.32-5.46-.74-4.22,4.3-6.47,2.91-10.82-1.23-3.88,4.24-6.52,2.55-10.74,1.22-1.9,3.81-3.78.08-5.75.26-.31.45-.74.78-.92,2.59-1.35,1.45-4.64,3.55-6.56,1.17-1.07,1.1-4.1.75-6.1-.54-3.05,3.05-3.94,2.84-6.83s-.85-5.88,2.06-8.41c1.77-1.54-.78-5.17,2-7,.36-.24.89-.6.9-.92.13-3.92-.23-7.91.38-11.75.51-3.17,2.83-5.67,2.69-9.47-.47-12.72-.2-25.46-.16-38.19,0-2.52,3.36-5.38,6.17-5.31,1.23,0,3.11,0,3.57.69,2.42,3.79,7.85,0,10.19,4.51C568.34,402.58,571.19,404.4,573.39,406.6Z"/><path d="M765.42,655.54a30.28,30.28,0,0,0-3.93,0c-2,.25-3.25-.68-4.43-2.06-.85-1-1.87-1.84-2.76-2.8-1.41-1.53-2.78-3.09-4.17-4.64,1.55-2.42,3-4.92,4.68-7.24a15.66,15.66,0,0,1,3.7-3.7c3.71-2.52,4.38-7.09,7.19-10.18-.57-2.66,1.59-3.77,3-5.34.82-.94,2.39-2.32,2.16-2.93-1.54-4,2.95-6,2.77-9.46,2.6-1.79,2-5.43,4.33-7.41,2-1.73.25-4.22,1-6.14.59-1.48,3.18-2.11,2.5-4.17-1.15-3.5,2.71-5.12,2.7-8.11s.13-6.14,0-9.19c-.18-3.49,4-5.34,2.85-9.47-.9-3.25-.18-7-.18-10.45,3.75-3.88,2.42-8.77,2.64-13.35,3.68-3.4,2.4-7.87,2.7-12a5.59,5.59,0,0,1,1.52-3.26c2.65-2.71,4.79-6.17,9.71-5.25,1.74.33,3.42-3.89,5.31-2.32,3.13,2.6,8.19,2.53,9.77,7.21a49,49,0,0,0,2.6,5.49c.88,1.82,2.68,3.8,2.42,5.44-.43,2.68-2,5.26-3.48,7.68-.87,1.46-3.22,2.36-3.49,3.78-.68,3.67-4.26,6.14-3.5,10.49.68,3.82,0,7.86.19,11.79.16,3.12-3.66,4.55-2.82,8.13.69,2.9.14,6.09.14,9.16-3.21,2.48-2.19,6.1-2.76,9.39s-3.81,5.68-2.51,9.43c-1.49,1.52-3.23,2.92-2.7,5.44-2.65,1.6-2.76,4.13-2.59,6.82.08,1.28.34,2.87-.27,3.8-1.79,2.74-5.16,4.09-5.23,8.45,0,2.95-2.37,5.95-4,8.74-1.24,2.11-1.24,4.76-3.59,6.46a29.2,29.2,0,0,0-6.47,6.47c-1.7,2.35-4.72,2-6.36,3.71C771.38,656.76,768.27,655.05,765.42,655.54Z"/><path d="M728.58,794.73c-.32-4.16,1.2-7.17,4-10.36,2.1-2.34,3.4-5.55,5.65-8.11,1.79-2,2.26-5.2,3.77-7.56,1.78-2.76,2.35-6.08,4.56-8.68.9-1,.41-3.26.66-4.92.31-2.08,3.19-2.86,2.67-5.49-.32-1.66-.25-3.4,1.39-4.65,2.13-1.63,1-4,1.16-6.06.16-1.74,0-3.5,0-5.25,0-10.5,0-21,0-31.5,0-3.57,5.62-13.52,9-14.5,2.67-.79,6.27-.9,8.66.3,4.36,2.17,9.57,4.18,11.15,9.4.6,2,5.06,4.61.2,6.95-.42,2.92,1.31,6.37-1,8.72-3.06,3.11-1.15,6.61-1.55,9.88-.38,3,.23,6.16-.16,9.17-.48,3.68,2,7.91-1.85,11-.3,3.81-.07,7.79-1.13,11.37-.53,1.79-2.75,3.23-2.19,5.62.62,2.61-2.26,3.45-2.62,5.48s.74,4.39-1.44,6c-2.57,1.87.15,5.38-1.92,7s-1.15,4.32-2.76,5.42c-2.44,1.65-1.16,4.89-3.59,6.52s-.27,4.65-1.72,7.14c-3,5.16-6,9.91-12.05,11.87-1,.32-1.67,1.92-2.81.25s-3-1.7-4.66-1.35c-5.43,1.16-8-3-10.46-6.2C728.26,800.47,728.85,797.27,728.58,794.73Z"/><path d="M410.62,674c-1.9,0-2.78-.05-3.65,0-4,.31-6.41-1.5-7.49-5.37-.32-1.13-1.57-2-1.81-3.16a50.52,50.52,0,0,1-.57-6.17c4-2.69,4.65-8.09,8.38-10.93s5.44-7.7,10.81-8.84c2.16-.46,4.16-3.11,5.61-5.19,1.67-2.39,4.61-2,6.42-3.66,2.22-2.1,4-5.54,6.58-6.19,3.81-1,5.64-3.66,8.1-5.88a49.72,49.72,0,0,0,6.46-6.52c2.18-2.86,5.81-3.44,8.13-5.65A25.92,25.92,0,0,1,465,601.9c.74-.35,1.35-1.65,1.93-1.59,5.47.52,9.1-3.49,13.64-5.17,2.69-1,6.08-.38,9.11-.08a4.45,4.45,0,0,1,2.94,2.18c2,4,5.17,7.48,4.55,12.63-.31,2.56-1.55,4.39-3.27,5.13-3.2,1.35-5.57,3.57-8.24,5.57-2.51,1.87-6.18,2.16-8.76,4-1.9,1.33-3.81,1.48-5.71,2.19-3.36,1.28-7.1,2.14-9.72,5a68.08,68.08,0,0,1-5.58,5.56c-1.69,1.49-.64,4-2.68,5.54-3.65,2.78-6.05,7.23-11.05,8.25-2.52,4.28-8.07,4.41-11.07,8.27-2.66,3.43-6.29,6.1-9.14,9.4C418.59,672.65,415.05,675.45,410.62,674Z"/><path d="M771,465.57c0,4.39-.5,8.84.13,13.13.67,4.58-4.72,7.45-2.77,12.08-1.61,1.36-3,3.39-4.87,3.9-2.44.68-5.22.05-7.84.2s-3.52-2.19-5.17-3.43c.44-4.35-3.32-7.54-3.22-11.83.11-4.82.15-9.65,0-14.46-.09-2.46,1.17-5.32-1.38-7.29s.25-5.51-1.92-7c-3.65-2.56.15-8.18-4.55-10,1.23-3.73-1.06-6.58-2.72-9.38s-2.51-6-4.59-8.68c-1.9-2.48-2-6.47-4-8.75-3.58-4-1-8.37-1.86-12.45,1.81-1.88,3.71-3.68,5.4-5.67,1.4-1.65,3.16-1,4.81-1.11a46.15,46.15,0,0,1,5.26,0,3.62,3.62,0,0,1,2.3.69A17.06,17.06,0,0,0,752.2,401c-.14,3.46,4,5.46,3,9.31-.68,2.68,3.75,3.73,2.57,6.78s2.74,4.07,2.7,6.81c0,2.53,3.62,3.69,2.85,6.68,3.51,1.79,1.11,6,2.95,7.9s1.37,4.94,3.55,6.5c1.78,1.27,1.07,3.16,1.1,4.8C771,455.05,771,460.31,771,465.57Z"/><path d="M591.89,311.43c0-4.39.1-8.78,0-13.17-.25-8.74,0-8.47,3-12.4,3.3-4.35,7.6-4,11.65-2.91a25,25,0,0,1,5.42,2.67c2.19,1.32,4.86,3.32,5.43,5.52.93,3.59,2.22,7,3.47,10.45-3.51,2.94-2.58,7-2.62,10.76,0,3.95.23,7.92-.08,11.84-.33,4.11,1.82,8.8-2.44,12.14,0,3.05-.1,6.11-.13,9.16,0,2.2.87,5.07-.2,6.43-1.63,2.07-1.73,4.89-3.48,6.46-2.07,1.85-1.36,4.72-3.51,6.6s.46,5.77-2.79,8.1c-1.72,1.23-2.34,4.19-3.12,6.48a10.73,10.73,0,0,0,0,3.92,1.82,1.82,0,0,0,.64,1c.23.22.77.48.89.38.67-.55,1.22-1.27,1.9-1.82,2.3-1.88,3.67-5.29,6.83-5.64,2.68-.3,3.73-3.94,6.79-2.77,3.8-6.5,7.34.06,10.83.57,2.08.3,3.77,3.43,5.62,5.3,3.91,4,4.49,7.53,2,12.56-3.58,7.35-5.07,9.24-14.15,13-2.77,1.13-3.31,2.32-2.92,4.48.58,3.3-3.86,4.55-2.8,8.17.89,3.07-3.06,4-3.91,6.2-1.87,5-5.29,9.13-6.77,14.34-.87,3-3.46,5.55-5,8.46-1.31,2.5-1.69,5.63-3.38,7.76a51,51,0,0,0-5.61,8.25c-2.06,4-3.13,8.57-6.4,11.83-3.06,3.05-4.56,6.8-5.78,10.79a3.32,3.32,0,0,1-1.66,1.9c-3.75,1.53-2.84,6.07-5.53,8.31-2,1.68-3.58,3.92-5.66,5.48-2.28,1.71-4.77,3.52-7.44,4.18a23.72,23.72,0,0,1-9.16,0c-1.45-.23-2.72-1.9-4-3-7.28-6.68-9.61-9.32.06-17.27,3.15-2.59,4.28-6.22,6.29-9.34,1.31-2,1.7-4.68,3.88-6.26,3.19-2.32,4.82-5.79,6.48-9.17,1.29-2.62,2-5.54,4.68-7.29,2.25-1.46,1.08-5,3.74-6.34-.12-3.49,2.77-5,4.63-7.31,1.57-1.89,1.13-5,3.69-6.35-.71-4.51,1.95-7.93,3.79-11.6s3.71-7.25,5.57-10.86a7.12,7.12,0,0,0,1.11-2.15,6.6,6.6,0,0,0-.61-2.35c-.62.2-1.48.2-1.83.62-3.82,4.72-8.27,5.79-13.52,2.47-2.86-1.82-5.63-2.12-8,.63-2.09,2.38-4.23,4.18-7.78,3.67-.92-.13-2.17,1.1-3.07,1.92-1.94,1.78-3.75,3.7-5.61,5.56-2.42,2.44-4.81,4.51-4.53,8.79.16,2.4-2.93,4.85-3.73,7.53-1.07,3.53-4.83,6-4,10.26a2.57,2.57,0,0,1-.85,2.2c-4.25,2.62-4.2,8.38-8.28,11.16a4.26,4.26,0,0,0-1.26,3.32,5.91,5.91,0,0,1-2.52,5.58,6.53,6.53,0,0,0-2.88,6.74c.42,2.64-3.57,3.68-2.64,6.82s-2.38,4.26-3.76,6.31c-.66,1-1.53,2.31-1.36,3.32.66,3.8-2.29,6.29-3.64,9.06s-1.75,6.61-5.23,8.45c-2.72,1.43-1.61,5.66-4.66,7.27-2.09,1.1-2.7,3.19-2.41,5.56a3.87,3.87,0,0,1-.46,2.42c-1.38,2.13-4.58,3.07-4.67,5.93s-3.93,3.74-2.73,6.81c-2.66,1.29-2,4.64-3.78,6.3-2,1.81-1.06,5-3.62,6.49-.47.27-.1,1.76-.55,2.33-1.59,2-4,3.64-4.9,5.89s-.28,5.15-.33,7.77c-4.56,1.94-.78,7.57-4.44,10.08-.73.51-.83,2.33-.78,3.53.22,4.81-1,8.17-6.52,9.17-1.73.31-3,2.4-5.51,2.61-3.43.3-4.67-4-8-3.06-1.23-2.56-3.24-5-3.53-7.7a110.78,110.78,0,0,1-.08-15.78c0-1.08,1.34-2,1.77-3.19.88-2.31,1.62-4.67,3.42-6.48-1.66-3.86,2.35-6.13,2.64-9.45.11-1.25-.15-3,.56-3.66,5.73-5.25,7.56-12.69,11.06-19.18,1.72-3.2,3.05-6.72,4.88-9.78,1.68-2.79,4.11-5.09,5.53-8.28,1.65-3.68,3.57-7.3,5.41-10.93,1.65-3.25,3.06-6.72,4.89-9.78a82.57,82.57,0,0,1,5.63-8.16c2.49-3.22,0-8.06,4.18-10.2.79-5.32,6-9,5.39-14.95-.09-.88,1.45-2,2.3-2.93s2.76-2,2.64-2.77c-.76-4.58,2.6-6.84,4.58-10.09a56.45,56.45,0,0,0,4.87-9.78c1.28-3.44,3.46-6.43,4.82-9.86.59-1.49,1.93-2.61,1.81-4.55-.07-1.17.12-2.88.88-3.5,6.07-5,8.74-12.63,14.7-17.76,2.63-2.26,5.61-3.59,8.33-5.47s5.92-.43,8.81-1c2.6-.52,4.19,1,5.43,2.75,1.77,2.54,4.19,2.86,6.87,2.5.76-.1,2.07-.74,2.06-1.11-.06-2.42,1.17-4,2.9-5.43-1.79-5,4.41-8.36,2.68-13.4-.64-1.87,1.49-3.09,1.78-4.46.78-3.65,4.76-6.22,3.45-10.46,2.83-2.6,3-6,2.59-9.44-.33-2.84,3.39-3.73,2.78-6.83-.5-2.54-.1-5.25-.1-7.88,3.62-2.38,2.55-6.09,2.62-9.44C591.94,318.46,591.89,314.94,591.89,311.43Z"/><path d="M528.67,181c0,6.12-.08,12.26,0,18.4,0,1.9-.89,3.07-1.74,4.59a9,9,0,0,0,.32,9.58c1.34,2.24-.38,2.59-.64,3.86a25.69,25.69,0,0,0-.51,9c.93,5.81-3.08,10.34-3.55,15.78-.11,1.23-2.48,2.59-1.77,4.42,1.65,4.32-2.51,7-2.94,10.76-.18,1.62-2.72,3-2.46,5.53a64,64,0,0,1-.08,7.83c-4.35,2-.6,7.79-4.66,9.92.73,4.42-2.71,7.68-3.34,11.86-.53,3.56-2.83,6.8-2.48,10.81.26,2.88-2.85,4.69-2.86,8.12,0,2.94-3.23,5.74-2.5,9.37-1.92,1.3-2.06,3.49-2.94,5.36s-2.92,3.21-4.52,4.71c-2.21,2.09-8.1,2.4-10.63.32-1.23-1-2.87-1.86-2.84-4.07.12-7.9-.12-15.81.16-23.7.07-1.86,2.61-3.84,2.33-5.47-.74-4.22,4.3-6.47,2.91-10.82-1.23-3.88,4.24-6.52,2.55-10.74,1.22-1.9,3.81-3.78.08-5.75.25-.31.45-.74.78-.91,2.58-1.36,1.44-4.65,3.55-6.57,1.17-1.07,1.1-4.09.75-6.09-.54-3.06,3-4,2.84-6.84s-.85-5.87,2.05-8.4c1.78-1.55-.78-5.18,2-7,.36-.24.89-.6.9-.92.13-3.92-.24-7.91.38-11.74.51-3.18,2.82-5.68,2.68-9.48-.47-12.71-.2-25.46-.16-38.19,0-2.52,3.37-5.38,6.17-5.31,1.24,0,3.12,0,3.57.69,2.43,3.79,7.86,0,10.19,4.51C523.62,177,526.47,178.83,528.67,181Z"/><path d="M720.7,430a30.43,30.43,0,0,0-3.94,0c-2,.26-3.24-.68-4.42-2.06-.85-1-1.88-1.84-2.77-2.8-1.41-1.53-2.77-3.09-4.16-4.64,1.55-2.42,3-4.92,4.68-7.24a15.85,15.85,0,0,1,3.7-3.7c3.7-2.52,4.37-7.09,7.18-10.18-.57-2.65,1.6-3.76,3-5.34.82-.94,2.39-2.31,2.15-2.93-1.53-4,2.95-6,2.78-9.46,2.6-1.79,2-5.42,4.32-7.41,2-1.73.26-4.22,1-6.13.59-1.49,3.18-2.12,2.5-4.17-1.16-3.51,2.71-5.13,2.7-8.12s.12-6.14,0-9.19c-.19-3.48,4-5.34,2.85-9.46-.91-3.25-.18-6.95-.18-10.46,3.75-3.88,2.42-8.76,2.63-13.35,3.69-3.39,2.41-7.86,2.7-12a5.65,5.65,0,0,1,1.52-3.26c2.65-2.71,4.8-6.17,9.71-5.25,1.74.33,3.43-3.88,5.32-2.32,3.13,2.6,8.19,2.53,9.77,7.22a50.62,50.62,0,0,0,2.59,5.48c.88,1.83,2.69,3.8,2.43,5.44-.43,2.69-2,5.27-3.48,7.68-.88,1.46-3.22,2.37-3.49,3.79-.69,3.66-4.26,6.13-3.5,10.48.67,3.82,0,7.86.19,11.79.16,3.13-3.66,4.55-2.82,8.13.68,2.91.14,6.1.14,9.16-3.22,2.48-2.19,6.11-2.76,9.39s-3.82,5.68-2.51,9.43c-1.5,1.52-3.23,2.92-2.71,5.45-2.64,1.59-2.75,4.12-2.59,6.81.08,1.28.35,2.87-.26,3.8-1.8,2.75-5.16,4.1-5.24,8.46-.05,2.94-2.37,5.94-4,8.73-1.23,2.11-1.23,4.77-3.58,6.46a29.5,29.5,0,0,0-6.48,6.48c-1.7,2.34-4.72,1.95-6.36,3.71C726.66,431.2,723.54,429.48,720.7,430Z"/><path d="M683.86,569.16c-.33-4.16,1.19-7.16,4-10.35,2.09-2.34,3.39-5.56,5.64-8.12,1.8-2,2.26-5.19,3.78-7.55,1.78-2.76,2.34-6.08,4.56-8.68.9-1.06.41-3.26.66-4.93.31-2.08,3.18-2.86,2.67-5.48-.33-1.67-.26-3.41,1.39-4.66,2.12-1.63,1-4,1.16-6.06.16-1.73,0-3.49,0-5.24,0-10.5,0-21,0-31.5,0-3.58,5.62-13.52,8.94-14.51,2.68-.79,6.27-.89,8.66.3,4.36,2.18,9.58,4.18,11.16,9.41.59,2,5.06,4.61.2,6.94-.42,2.92,1.3,6.37-1,8.72-3,3.11-1.14,6.61-1.55,9.89-.37,3,.24,6.15-.16,9.16-.48,3.69,2,7.91-1.85,11-.3,3.82-.06,7.79-1.13,11.38-.53,1.79-2.75,3.22-2.18,5.61.62,2.61-2.27,3.45-2.63,5.48s.75,4.39-1.43,6c-2.57,1.87.14,5.39-1.92,7s-1.15,4.31-2.77,5.41c-2.43,1.65-1.16,4.89-3.58,6.52s-.27,4.65-1.72,7.14c-3,5.16-6,9.91-12.06,11.87-1,.32-1.66,1.92-2.8.25s-3-1.7-4.66-1.35c-5.43,1.16-8-3-10.46-6.2C683.54,574.91,684.13,571.7,683.86,569.16Z"/><path d="M365.9,448.42c-1.91,0-2.79-.06-3.66,0-4,.3-6.4-1.51-7.49-5.37-.32-1.14-1.56-2-1.8-3.17a48.63,48.63,0,0,1-.58-6.17c4.06-2.69,4.65-8.09,8.39-10.93s5.44-7.7,10.8-8.84c2.17-.46,4.16-3.1,5.62-5.19,1.67-2.39,4.61-1.94,6.42-3.66,2.22-2.1,4-5.54,6.58-6.19,3.8-1,5.64-3.66,8.1-5.87a49.72,49.72,0,0,0,6.45-6.53c2.19-2.86,5.81-3.44,8.13-5.65a26.33,26.33,0,0,1,7.39-4.53c.74-.35,1.34-1.65,1.92-1.59,5.48.52,9.11-3.49,13.65-5.17,2.69-1,6.07-.37,9.1-.08a4.48,4.48,0,0,1,2.95,2.19c2,4,5.16,7.48,4.55,12.62-.31,2.56-1.55,4.4-3.28,5.13-3.2,1.36-5.56,3.57-8.23,5.57-2.51,1.88-6.19,2.17-8.77,4-1.89,1.34-3.81,1.48-5.7,2.2-3.37,1.27-7.11,2.13-9.73,5a68,68,0,0,1-5.57,5.56c-1.69,1.49-.64,4-2.68,5.54-3.66,2.79-6,7.23-11,8.25-2.52,4.29-8.08,4.41-11.08,8.28-2.66,3.42-6.28,6.09-9.14,9.39C373.86,447.09,370.33,449.89,365.9,448.42Z"/><path d="M726.24,240c0,4.39-.49,8.84.14,13.14.66,4.57-4.72,7.44-2.77,12.08-1.61,1.35-3,3.38-4.87,3.9-2.45.67-5.23,0-7.85.2s-3.51-2.2-5.17-3.43c.44-4.35-3.31-7.54-3.21-11.84.11-4.82.15-9.64,0-14.46-.09-2.46,1.16-5.32-1.39-7.29s.26-5.51-1.91-7c-3.66-2.57.15-8.19-4.55-10,1.23-3.73-1.07-6.58-2.72-9.37s-2.51-6-4.59-8.69c-1.91-2.48-2-6.47-4-8.75-3.59-4-1-8.36-1.86-12.45,1.81-1.88,3.71-3.68,5.39-5.67,1.4-1.64,3.16-1,4.81-1.11a48.58,48.58,0,0,1,5.26,0,3.56,3.56,0,0,1,2.3.7,17.12,17.12,0,0,0,8.26,5.53c-.15,3.46,4,5.47,3,9.31-.67,2.68,3.76,3.73,2.58,6.79s2.74,4.06,2.7,6.8c0,2.54,3.62,3.7,2.85,6.68,3.5,1.8,1.1,6,3,7.9s1.36,4.94,3.55,6.51c1.77,1.27,1.07,3.15,1.09,4.79C726.29,229.48,726.24,234.74,726.24,240Z"/><path d="M762.15,322.07c0-4.39.1-8.78,0-13.17-.25-8.73,0-8.47,3-12.4,3.29-4.35,7.59-4,11.65-2.91a24.71,24.71,0,0,1,5.41,2.68c2.19,1.31,4.86,3.31,5.43,5.51.93,3.59,2.22,7,3.47,10.45-3.5,2.94-2.58,7-2.62,10.76,0,3.95.23,7.92-.08,11.84-.33,4.11,1.82,8.8-2.44,12.14,0,3-.1,6.11-.13,9.16,0,2.2.87,5.07-.2,6.43-1.63,2.07-1.73,4.89-3.48,6.46-2.07,1.85-1.36,4.72-3.51,6.6s.47,5.77-2.79,8.1c-1.72,1.23-2.34,4.19-3.12,6.48a10.78,10.78,0,0,0,0,3.93,1.83,1.83,0,0,0,.64,1c.23.22.77.48.89.38.68-.55,1.22-1.26,1.9-1.82,2.3-1.88,3.67-5.29,6.83-5.64,2.68-.29,3.73-3.94,6.79-2.77,3.8-6.5,7.34.06,10.83.57,2.08.3,3.77,3.43,5.62,5.3,3.91,4,4.49,7.53,2,12.56-3.58,7.36-5.07,9.24-14.15,13-2.77,1.14-3.31,2.32-2.92,4.48.58,3.3-3.86,4.55-2.8,8.17.9,3.07-3.06,4-3.91,6.2-1.87,5-5.29,9.13-6.77,14.34-.87,3-3.46,5.55-5,8.46-1.31,2.51-1.69,5.63-3.38,7.76a51,51,0,0,0-5.61,8.25c-2.06,4-3.13,8.57-6.4,11.83-3.06,3.05-4.55,6.8-5.78,10.79a3.34,3.34,0,0,1-1.65,1.9c-3.76,1.53-2.85,6.07-5.54,8.31-2,1.68-3.58,3.92-5.66,5.49-2.28,1.7-4.77,3.51-7.44,4.17a23.72,23.72,0,0,1-9.16,0c-1.44-.23-2.72-1.9-4-3-7.28-6.68-9.61-9.32.06-17.27,3.15-2.59,4.28-6.22,6.29-9.34,1.31-2,1.7-4.68,3.88-6.26,3.19-2.32,4.82-5.78,6.48-9.17,1.29-2.62,2-5.54,4.68-7.29,2.25-1.46,1.08-5,3.74-6.34-.12-3.49,2.77-5.05,4.63-7.3,1.57-1.9,1.14-5,3.69-6.36-.71-4.51,1.95-7.93,3.79-11.6s3.71-7.24,5.58-10.86a7.2,7.2,0,0,0,1.1-2.15,6.6,6.6,0,0,0-.61-2.35c-.62.2-1.48.2-1.83.63-3.82,4.71-8.27,5.78-13.52,2.46-2.86-1.82-5.63-2.12-8,.63-2.09,2.38-4.23,4.18-7.78,3.67-.92-.13-2.17,1.1-3.07,1.92-1.94,1.78-3.75,3.7-5.61,5.56-2.42,2.44-4.81,4.51-4.53,8.79.16,2.41-2.93,4.85-3.73,7.53-1.07,3.53-4.83,6-4,10.26a2.61,2.61,0,0,1-.86,2.2c-4.24,2.62-4.2,8.38-8.28,11.16a4.26,4.26,0,0,0-1.26,3.32,5.89,5.89,0,0,1-2.52,5.58,6.53,6.53,0,0,0-2.88,6.74c.42,2.64-3.56,3.68-2.64,6.82s-2.38,4.26-3.76,6.31c-.66,1-1.53,2.31-1.36,3.32.66,3.8-2.28,6.3-3.64,9.06s-1.75,6.61-5.23,8.45c-2.72,1.44-1.61,5.66-4.66,7.27-2.09,1.1-2.7,3.19-2.41,5.56a3.85,3.85,0,0,1-.46,2.42c-1.38,2.13-4.58,3.07-4.67,5.93s-3.93,3.74-2.73,6.81c-2.65,1.29-2,4.65-3.78,6.3-2,1.81-1.06,5-3.62,6.49-.47.27-.1,1.76-.55,2.33-1.59,2-4,3.64-4.9,5.89s-.28,5.15-.32,7.77c-4.57,1.94-.79,7.57-4.45,10.08-.73.51-.83,2.34-.78,3.53.22,4.81-1,8.18-6.51,9.17-1.74.31-3,2.4-5.52,2.61-3.43.31-4.66-4-8-3.06-1.23-2.56-3.24-5-3.53-7.7a110.78,110.78,0,0,1-.08-15.78c0-1.08,1.34-2.05,1.77-3.19.88-2.31,1.62-4.67,3.42-6.48-1.66-3.86,2.35-6.13,2.64-9.44.11-1.26-.15-3,.56-3.67,5.73-5.25,7.56-12.69,11.06-19.17,1.73-3.21,3.05-6.73,4.88-9.79,1.68-2.79,4.11-5.09,5.53-8.27,1.65-3.69,3.57-7.31,5.41-10.94,1.65-3.25,3.06-6.72,4.89-9.78a82.57,82.57,0,0,1,5.63-8.16c2.49-3.21,0-8.06,4.18-10.2.79-5.32,6-9,5.39-15-.09-.88,1.45-2,2.3-2.93s2.76-2,2.64-2.77c-.76-4.58,2.6-6.84,4.58-10.08a57,57,0,0,0,4.88-9.79c1.27-3.44,3.46-6.42,4.81-9.86.59-1.48,1.93-2.61,1.81-4.55-.07-1.17.12-2.88.88-3.5,6.07-4.95,8.74-12.63,14.7-17.76,2.64-2.26,5.61-3.59,8.33-5.47s5.92-.43,8.81-1c2.6-.52,4.19,1,5.43,2.75,1.77,2.54,4.19,2.86,6.87,2.5.76-.1,2.07-.74,2.06-1.11-.06-2.42,1.17-4,2.9-5.43-1.79-5,4.41-8.36,2.68-13.4-.64-1.86,1.49-3.09,1.78-4.46.78-3.65,4.76-6.21,3.45-10.46,2.83-2.6,3-6,2.59-9.44-.33-2.84,3.39-3.73,2.78-6.83-.5-2.53-.1-5.25-.1-7.88,3.62-2.38,2.55-6.09,2.62-9.44C762.2,329.1,762.15,325.58,762.15,322.07Z"/><path d="M698.93,191.67c0,6.12-.08,12.26,0,18.41,0,1.89-.89,3.06-1.74,4.58a9,9,0,0,0,.32,9.58c1.34,2.24-.37,2.59-.64,3.86a25.69,25.69,0,0,0-.51,9c.93,5.81-3.08,10.34-3.55,15.78-.11,1.23-2.48,2.59-1.77,4.43,1.66,4.31-2.51,6.95-2.94,10.75-.18,1.62-2.72,3-2.45,5.53a66.07,66.07,0,0,1-.09,7.83c-4.35,2-.6,7.79-4.66,9.93.73,4.42-2.71,7.67-3.33,11.85-.54,3.56-2.84,6.8-2.48,10.81.25,2.88-2.86,4.69-2.86,8.12,0,2.94-3.24,5.74-2.51,9.37-1.92,1.3-2.06,3.49-2.94,5.36s-2.92,3.21-4.52,4.71c-2.21,2.09-8.1,2.4-10.63.32-1.23-1-2.87-1.86-2.84-4.07.12-7.9-.12-15.81.17-23.7.06-1.86,2.61-3.84,2.32-5.47-.74-4.22,4.3-6.47,2.91-10.82-1.23-3.87,4.24-6.52,2.55-10.74,1.22-1.9,3.81-3.78.08-5.75.26-.31.45-.74.78-.91,2.58-1.36,1.44-4.65,3.55-6.57,1.17-1.07,1.1-4.09.75-6.09-.54-3.05,3-3.95,2.84-6.84s-.85-5.87,2.05-8.4c1.78-1.55-.78-5.18,2-7,.36-.24.89-.6.9-.92.13-3.92-.24-7.91.38-11.74.51-3.18,2.82-5.68,2.68-9.48-.47-12.71-.2-25.45-.16-38.19,0-2.52,3.37-5.38,6.17-5.31,1.24,0,3.12,0,3.58.69,2.42,3.79,7.85,0,10.18,4.51C693.88,187.65,696.73,189.47,698.93,191.67Z"/><path d="M891,440.62a30.43,30.43,0,0,0-3.94,0c-2,.26-3.24-.67-4.42-2.06-.85-1-1.88-1.84-2.77-2.8-1.41-1.52-2.77-3.09-4.16-4.64,1.55-2.42,3-4.92,4.68-7.24a15.62,15.62,0,0,1,3.7-3.69c3.7-2.53,4.37-7.1,7.18-10.19-.57-2.65,1.6-3.76,3-5.34.82-.94,2.39-2.31,2.15-2.93-1.53-4,2.95-6,2.78-9.46,2.6-1.79,2-5.42,4.32-7.41,2-1.73.26-4.21,1-6.13.59-1.49,3.18-2.12,2.5-4.17-1.16-3.51,2.71-5.13,2.7-8.12s.12-6.13,0-9.19c-.19-3.48,4-5.34,2.85-9.46-.9-3.25-.18-6.95-.18-10.45,3.75-3.89,2.42-8.77,2.63-13.35,3.69-3.4,2.41-7.87,2.7-12a5.65,5.65,0,0,1,1.52-3.26c2.65-2.7,4.8-6.17,9.71-5.25,1.75.33,3.43-3.88,5.32-2.32,3.13,2.6,8.19,2.53,9.77,7.22a50.62,50.62,0,0,0,2.59,5.48c.88,1.83,2.69,3.8,2.43,5.44-.43,2.69-2,5.27-3.48,7.68-.88,1.46-3.22,2.37-3.49,3.79-.69,3.67-4.26,6.13-3.5,10.48.67,3.82,0,7.86.19,11.79.16,3.13-3.66,4.55-2.82,8.13.68,2.91.14,6.1.14,9.16-3.22,2.48-2.19,6.11-2.76,9.39s-3.82,5.69-2.51,9.43c-1.5,1.52-3.23,2.92-2.71,5.45-2.64,1.6-2.75,4.12-2.58,6.81.07,1.28.34,2.87-.27,3.8-1.8,2.75-5.16,4.1-5.24,8.46,0,2.94-2.36,5.95-4,8.73-1.24,2.12-1.24,4.77-3.59,6.47a29.24,29.24,0,0,0-6.48,6.47c-1.69,2.34-4.72,1.95-6.35,3.71C896.92,441.84,893.8,440.12,891,440.62Z"/><path d="M854.12,579.8c-.33-4.16,1.19-7.16,4-10.35,2.1-2.34,3.4-5.56,5.64-8.12,1.8-2,2.26-5.19,3.78-7.55,1.78-2.76,2.34-6.08,4.56-8.68.9-1.06.41-3.26.66-4.93.31-2.08,3.18-2.86,2.67-5.48-.33-1.66-.26-3.4,1.39-4.66,2.12-1.62,1-4,1.16-6.06.16-1.73,0-3.49,0-5.24,0-10.5,0-21,0-31.5,0-3.58,5.62-13.52,8.94-14.51,2.68-.79,6.27-.89,8.66.3,4.37,2.18,9.58,4.18,11.16,9.41.59,2,5.06,4.61.2,6.94-.42,2.92,1.3,6.38-1,8.72-3,3.11-1.14,6.61-1.54,9.89-.38,3,.23,6.15-.16,9.16-.48,3.69,1.95,7.91-1.86,11-.3,3.81-.06,7.78-1.13,11.37-.53,1.79-2.75,3.23-2.18,5.61.62,2.61-2.27,3.45-2.63,5.48s.75,4.39-1.43,6c-2.57,1.87.14,5.39-1.92,7s-1.15,4.31-2.77,5.41c-2.43,1.65-1.16,4.89-3.58,6.52s-.27,4.65-1.72,7.14c-3,5.16-6,9.91-12.05,11.87-1,.32-1.67,1.92-2.81.25s-3-1.7-4.66-1.35c-5.43,1.16-8-3-10.46-6.2C853.8,585.55,854.39,582.34,854.12,579.8Z"/><path d="M536.16,459.06c-1.91,0-2.78-.06-3.65,0-4,.3-6.41-1.51-7.5-5.37-.32-1.14-1.56-2-1.8-3.17a48.63,48.63,0,0,1-.58-6.17c4.06-2.69,4.65-8.09,8.39-10.93s5.44-7.7,10.8-8.84c2.17-.46,4.16-3.1,5.62-5.19,1.67-2.38,4.61-1.94,6.42-3.65,2.22-2.11,4-5.55,6.58-6.2,3.8-1,5.64-3.65,8.1-5.87a49.72,49.72,0,0,0,6.45-6.53c2.19-2.86,5.81-3.44,8.13-5.65a26.07,26.07,0,0,1,7.39-4.52c.74-.36,1.34-1.65,1.92-1.6,5.48.52,9.11-3.49,13.65-5.17,2.69-1,6.07-.37,9.11-.08a4.48,4.48,0,0,1,2.94,2.19c2,4,5.16,7.48,4.55,12.62-.31,2.56-1.55,4.4-3.28,5.13-3.2,1.36-5.56,3.57-8.23,5.57-2.51,1.88-6.19,2.17-8.77,4-1.89,1.34-3.8,1.48-5.7,2.2-3.37,1.27-7.11,2.13-9.73,5.05a66.3,66.3,0,0,1-5.57,5.55c-1.69,1.49-.64,4-2.68,5.54-3.66,2.79-6.05,7.23-11.05,8.25-2.52,4.29-8.07,4.41-11.07,8.28-2.67,3.43-6.29,6.09-9.15,9.39C544.13,457.73,540.59,460.53,536.16,459.06Z"/><path d="M896.5,250.65c0,4.38-.49,8.84.14,13.13.67,4.57-4.72,7.44-2.77,12.08-1.61,1.35-3,3.39-4.87,3.9-2.45.67-5.22,0-7.85.2s-3.51-2.2-5.17-3.43c.44-4.35-3.31-7.54-3.21-11.83.11-4.82.15-9.65,0-14.47-.09-2.46,1.17-5.32-1.39-7.28s.26-5.52-1.91-7c-3.66-2.57.15-8.19-4.55-10,1.23-3.73-1.06-6.58-2.72-9.37s-2.51-6-4.59-8.69c-1.91-2.48-2-6.46-4-8.74-3.58-4-1-8.37-1.86-12.46,1.81-1.88,3.71-3.68,5.39-5.66,1.4-1.65,3.17-1,4.81-1.12a48.58,48.58,0,0,1,5.26,0,3.62,3.62,0,0,1,2.3.7,17.12,17.12,0,0,0,8.26,5.53c-.14,3.46,4,5.47,3,9.31-.67,2.68,3.76,3.73,2.58,6.79s2.74,4.07,2.7,6.8c0,2.54,3.62,3.7,2.85,6.68,3.5,1.8,1.1,6,3,7.9s1.37,4.94,3.55,6.51c1.78,1.27,1.07,3.15,1.09,4.79C896.55,240.12,896.5,245.39,896.5,250.65Z"/><path d="M714,586.24c0-4.39.1-8.78,0-13.17-.25-8.74,0-8.47,3-12.4,3.3-4.35,7.59-4,11.65-2.91a25.18,25.18,0,0,1,5.42,2.67c2.19,1.31,4.85,3.32,5.43,5.52.93,3.59,2.22,7,3.47,10.45-3.51,2.94-2.58,7-2.63,10.76-.05,3.94.24,7.91-.08,11.84-.32,4.11,1.83,8.8-2.43,12.13,0,3.06-.1,6.11-.13,9.17,0,2.19.86,5.07-.2,6.42-1.64,2.07-1.73,4.9-3.49,6.47-2.06,1.85-1.35,4.71-3.51,6.6s.47,5.76-2.78,8.1c-1.73,1.23-2.34,4.18-3.12,6.48a10.51,10.51,0,0,0,0,3.92,1.85,1.85,0,0,0,.64,1c.22.22.76.48.88.38.68-.55,1.23-1.27,1.9-1.82,2.31-1.89,3.68-5.29,6.84-5.64,2.68-.3,3.73-4,6.79-2.78,3.8-6.49,7.34.07,10.82.58,2.09.3,3.78,3.43,5.63,5.3,3.91,3.95,4.48,7.53,2,12.55-3.58,7.36-5.07,9.24-14.15,13-2.77,1.14-3.31,2.32-2.93,4.49.59,3.29-3.86,4.55-2.8,8.17.9,3.07-3.06,4-3.9,6.2-1.88,5-5.29,9.12-6.78,14.33-.87,3.05-3.45,5.56-5,8.47-1.3,2.5-1.68,5.62-3.38,7.76a51.29,51.29,0,0,0-5.6,8.24c-2.06,4-3.13,8.57-6.4,11.83-3.06,3-4.56,6.81-5.79,10.8a3.33,3.33,0,0,1-1.65,1.9c-3.75,1.53-2.84,6.07-5.53,8.31-2,1.67-3.58,3.92-5.67,5.48-2.27,1.71-4.76,3.52-7.44,4.18a23.87,23.87,0,0,1-9.15,0c-1.45-.23-2.72-1.9-4-3-7.28-6.69-9.61-9.33.06-17.28,3.15-2.58,4.27-6.21,6.29-9.33,1.31-2,1.7-4.68,3.88-6.27,3.19-2.31,4.82-5.78,6.48-9.16,1.28-2.63,2-5.54,4.68-7.29,2.25-1.46,1.08-5,3.73-6.34-.11-3.49,2.77-5.06,4.63-7.31,1.57-1.9,1.14-5,3.7-6.36-.71-4.5,2-7.92,3.78-11.6s3.71-7.24,5.58-10.85a7.17,7.17,0,0,0,1.11-2.16,6.94,6.94,0,0,0-.61-2.34c-.62.2-1.49.2-1.83.62-3.83,4.72-8.27,5.79-13.52,2.46-2.86-1.81-5.63-2.11-8,.64-2.09,2.38-4.24,4.18-7.78,3.67-.92-.13-2.17,1.1-3.07,1.92-1.94,1.78-3.76,3.69-5.61,5.56-2.42,2.44-4.81,4.5-4.53,8.79.16,2.4-2.93,4.85-3.74,7.52-1.06,3.54-4.82,6-3.95,10.27a2.57,2.57,0,0,1-.85,2.2c-4.25,2.62-4.21,8.37-8.29,11.15a4.27,4.27,0,0,0-1.25,3.33,5.9,5.9,0,0,1-2.53,5.58,6.55,6.55,0,0,0-2.88,6.74c.42,2.63-3.56,3.67-2.63,6.81s-2.38,4.27-3.76,6.32c-.67,1-1.53,2.31-1.36,3.32.66,3.8-2.29,6.29-3.64,9.06s-1.75,6.61-5.23,8.45c-2.72,1.43-1.61,5.65-4.67,7.27-2.08,1.1-2.69,3.19-2.4,5.56a3.89,3.89,0,0,1-.46,2.41c-1.38,2.13-4.58,3.08-4.68,5.94s-3.92,3.73-2.73,6.81c-2.65,1.29-2,4.64-3.77,6.29-2,1.81-1.06,5.05-3.63,6.5-.46.26-.09,1.75-.55,2.33-1.59,2-4,3.63-4.89,5.88s-.28,5.16-.33,7.77c-4.57,2-.78,7.58-4.44,10.09-.74.5-.84,2.33-.78,3.53.22,4.81-1,8.17-6.52,9.17-1.74.31-3,2.39-5.51,2.61-3.43.3-4.67-4-8-3.06-1.23-2.56-3.24-5-3.53-7.71a110.77,110.77,0,0,1-.08-15.78c0-1.07,1.34-2.05,1.77-3.18.87-2.31,1.61-4.67,3.41-6.49-1.65-3.85,2.36-6.12,2.65-9.44.11-1.25-.15-3,.56-3.66,5.73-5.25,7.56-12.7,11-19.18,1.73-3.21,3-6.72,4.89-9.78,1.68-2.8,4.1-5.09,5.53-8.28,1.65-3.69,3.56-7.31,5.41-10.93,1.65-3.26,3.06-6.72,4.89-9.79a85.32,85.32,0,0,1,5.62-8.15c2.49-3.22,0-8.06,4.19-10.2.79-5.32,6-9,5.39-14.95-.1-.89,1.45-2,2.3-2.93s2.76-2,2.63-2.78c-.75-4.58,2.6-6.84,4.59-10.08a56.55,56.55,0,0,0,4.87-9.79c1.27-3.44,3.46-6.42,4.82-9.86.58-1.48,1.93-2.61,1.81-4.54-.07-1.17.12-2.88.88-3.5,6.06-5,8.74-12.64,14.7-17.76,2.63-2.27,5.6-3.59,8.33-5.47s5.92-.43,8.81-1c2.6-.53,4.19,1,5.43,2.75,1.77,2.53,4.19,2.86,6.87,2.5.76-.11,2.07-.75,2.06-1.11-.06-2.43,1.17-4,2.89-5.43-1.78-5,4.41-8.36,2.69-13.4-.64-1.87,1.48-3.1,1.78-4.46.78-3.65,4.76-6.22,3.44-10.46,2.83-2.61,3-6,2.6-9.44-.34-2.84,3.39-3.74,2.78-6.84-.51-2.53-.11-5.24-.11-7.87,3.62-2.39,2.56-6.09,2.62-9.45S714,589.75,714,586.24Z"/><path d="M650.74,455.84c0,6.12-.08,12.26,0,18.4,0,1.9-.9,3.06-1.75,4.59a9,9,0,0,0,.32,9.57c1.35,2.25-.37,2.6-.63,3.87a25.46,25.46,0,0,0-.51,9c.93,5.8-3.08,10.33-3.56,15.77-.1,1.24-2.47,2.6-1.76,4.43,1.65,4.32-2.51,7-2.94,10.76-.19,1.62-2.73,3-2.46,5.53a62.09,62.09,0,0,1-.09,7.83c-4.34,2-.59,7.79-4.65,9.92.72,4.42-2.71,7.67-3.34,11.86-.53,3.56-2.83,6.79-2.48,10.81.25,2.87-2.85,4.68-2.86,8.12,0,2.94-3.24,5.74-2.5,9.37-1.92,1.29-2.06,3.49-2.94,5.35s-2.92,3.22-4.52,4.72c-2.22,2.08-8.1,2.4-10.64.32-1.22-1-2.87-1.86-2.83-4.07.11-7.9-.12-15.81.16-23.71.07-1.86,2.61-3.83,2.33-5.46-.74-4.22,4.29-6.47,2.91-10.82-1.24-3.88,4.24-6.52,2.54-10.74,1.22-1.9,3.82-3.78.08-5.75.26-.31.46-.74.79-.92,2.58-1.35,1.44-4.64,3.54-6.56,1.17-1.07,1.1-4.1.75-6.1-.53-3,3-3.94,2.84-6.83s-.85-5.88,2.06-8.41c1.77-1.54-.78-5.17,2-7,.35-.24.88-.6.89-.92.14-3.92-.23-7.91.39-11.75.5-3.17,2.82-5.67,2.68-9.47-.47-12.72-.2-25.46-.16-38.19,0-2.52,3.36-5.38,6.17-5.31,1.23,0,3.12,0,3.57.69,2.43,3.79,7.86,0,10.19,4.51C645.7,451.82,648.54,453.64,650.74,455.84Z"/><path d="M842.77,704.78a30.28,30.28,0,0,0-3.93,0c-2,.25-3.25-.68-4.43-2.06-.85-1-1.87-1.84-2.76-2.8-1.41-1.53-2.78-3.09-4.16-4.64,1.54-2.42,3-4.92,4.67-7.24a15.52,15.52,0,0,1,3.71-3.7c3.7-2.52,4.37-7.09,7.18-10.18-.57-2.66,1.6-3.77,3-5.34.83-.94,2.4-2.32,2.16-2.93-1.54-4,3-6,2.77-9.46,2.6-1.79,2-5.43,4.33-7.41,2-1.73.26-4.22,1-6.14.58-1.48,3.17-2.11,2.5-4.17-1.16-3.5,2.7-5.12,2.69-8.11s.13-6.14,0-9.19c-.19-3.49,4-5.34,2.85-9.47-.91-3.25-.19-7-.19-10.45,3.75-3.88,2.43-8.77,2.64-13.35,3.69-3.4,2.4-7.87,2.7-12a5.65,5.65,0,0,1,1.52-3.26c2.65-2.71,4.8-6.17,9.71-5.25,1.74.33,3.42-3.89,5.31-2.32,3.13,2.6,8.2,2.53,9.78,7.21a48.94,48.94,0,0,0,2.59,5.49c.88,1.82,2.69,3.8,2.42,5.44-.42,2.68-2,5.26-3.48,7.68-.87,1.46-3.22,2.36-3.48,3.78-.69,3.67-4.27,6.14-3.5,10.49.67,3.82,0,7.86.19,11.79.15,3.12-3.67,4.55-2.82,8.13.68,2.9.13,6.09.13,9.16-3.21,2.48-2.18,6.1-2.75,9.39s-3.82,5.68-2.52,9.43c-1.49,1.52-3.23,2.92-2.7,5.44-2.65,1.6-2.76,4.13-2.59,6.82.08,1.28.35,2.87-.26,3.8-1.8,2.74-5.17,4.09-5.24,8.45,0,2.95-2.37,5.95-4,8.74-1.23,2.11-1.23,4.76-3.58,6.46a29.24,29.24,0,0,0-6.48,6.47c-1.7,2.35-4.72,2-6.36,3.71C848.74,706,845.62,704.29,842.77,704.78Z"/><path d="M805.93,844c-.32-4.16,1.2-7.16,4.05-10.36,2.1-2.34,3.4-5.55,5.65-8.11,1.79-2,2.26-5.2,3.78-7.56,1.77-2.76,2.34-6.08,4.55-8.68.91-1,.42-3.26.66-4.92.31-2.08,3.19-2.86,2.68-5.49-.33-1.66-.26-3.4,1.38-4.65,2.13-1.63,1-4,1.16-6.06.17-1.74,0-3.5,0-5.25,0-10.5,0-21,0-31.5,0-3.57,5.62-13.52,9-14.5,2.67-.79,6.27-.9,8.66.3,4.36,2.17,9.58,4.18,11.16,9.4.59,2,5.06,4.61.2,6.95-.43,2.92,1.3,6.37-1,8.72-3.06,3.11-1.14,6.61-1.55,9.88-.37,3,.23,6.16-.16,9.17-.48,3.68,2,7.91-1.85,11-.3,3.81-.07,7.79-1.13,11.37-.53,1.79-2.75,3.23-2.19,5.62.62,2.61-2.26,3.45-2.62,5.48s.75,4.39-1.43,6c-2.57,1.87.14,5.38-1.93,7s-1.14,4.32-2.76,5.42c-2.43,1.65-1.16,4.89-3.59,6.52s-.26,4.65-1.71,7.14c-3,5.16-6,9.91-12.06,11.87-1,.32-1.67,1.92-2.81.25s-3-1.7-4.65-1.35c-5.44,1.16-8-3-10.47-6.2C805.61,849.71,806.21,846.51,805.93,844Z"/><path d="M488,723.22c-1.91,0-2.79-.05-3.66,0-4,.31-6.4-1.5-7.49-5.37-.32-1.13-1.57-2-1.81-3.16a50.52,50.52,0,0,1-.57-6.17c4.06-2.69,4.65-8.09,8.38-10.93s5.45-7.7,10.81-8.84c2.17-.46,4.16-3.11,5.62-5.19,1.67-2.39,4.6-2,6.41-3.66,2.23-2.1,4-5.54,6.59-6.19,3.8-1,5.64-3.66,8.1-5.88a50.27,50.27,0,0,0,6.45-6.52c2.18-2.86,5.81-3.44,8.13-5.65a26.2,26.2,0,0,1,7.38-4.53c.75-.35,1.35-1.65,1.93-1.59,5.47.52,9.1-3.49,13.64-5.17,2.69-1,6.08-.38,9.11-.08a4.42,4.42,0,0,1,2.94,2.18c2,4,5.17,7.48,4.55,12.63-.3,2.56-1.54,4.39-3.27,5.13-3.2,1.35-5.56,3.57-8.24,5.57-2.51,1.87-6.18,2.16-8.76,4-1.89,1.33-3.81,1.48-5.7,2.19-3.37,1.28-7.11,2.14-9.73,5a68,68,0,0,1-5.57,5.56c-1.69,1.49-.64,4-2.68,5.54-3.66,2.78-6.06,7.23-11.06,8.25-2.51,4.28-8.07,4.41-11.07,8.27-2.66,3.43-6.28,6.1-9.14,9.4C495.94,721.89,492.4,724.69,488,723.22Z"/><path d="M848.32,514.81c0,4.39-.49,8.84.13,13.13.67,4.58-4.71,7.45-2.77,12.08-1.6,1.36-3,3.39-4.87,3.9-2.44.68-5.22.05-7.84.2s-3.51-2.19-5.17-3.43c.44-4.35-3.31-7.54-3.22-11.83.11-4.82.16-9.65,0-14.46-.09-2.46,1.16-5.32-1.39-7.29s.26-5.51-1.91-7c-3.66-2.56.14-8.18-4.55-10,1.23-3.73-1.07-6.58-2.73-9.38s-2.51-6-4.58-8.68c-1.91-2.48-2-6.47-4-8.75-3.58-4-1-8.37-1.85-12.45,1.8-1.88,3.7-3.68,5.39-5.67,1.4-1.65,3.16-1,4.81-1.11a48.58,48.58,0,0,1,5.26,0,3.62,3.62,0,0,1,2.3.69,17.09,17.09,0,0,0,8.26,5.54c-.15,3.46,4,5.46,3,9.31-.68,2.68,3.76,3.73,2.58,6.78s2.74,4.07,2.69,6.81c0,2.53,3.62,3.69,2.86,6.68,3.5,1.79,1.1,6,2.94,7.9s1.37,4.94,3.56,6.5c1.77,1.27,1.07,3.16,1.09,4.8C848.37,504.29,848.32,509.55,848.32,514.81Z"/><path d="M789.11,688.32c0-4.39.11-8.79,0-13.17-.25-8.74.06-8.47,3-12.41,3.29-4.34,7.59-4,11.65-2.91a25.41,25.41,0,0,1,5.41,2.68c2.2,1.31,4.86,3.32,5.43,5.51.94,3.59,2.22,7,3.47,10.45-3.5,2.95-2.57,7-2.62,10.76-.05,3.95.23,7.92-.08,11.85-.33,4.11,1.83,8.8-2.44,12.13,0,3.06-.1,6.11-.12,9.17,0,2.19.86,5.07-.21,6.42-1.63,2.07-1.73,4.89-3.48,6.47-2.07,1.85-1.36,4.71-3.51,6.6s.47,5.76-2.79,8.09c-1.72,1.24-2.34,4.19-3.12,6.48a10.78,10.78,0,0,0,0,3.93,1.91,1.91,0,0,0,.64,1c.23.22.77.47.89.37.68-.55,1.22-1.26,1.9-1.81,2.31-1.89,3.67-5.29,6.83-5.64,2.69-.3,3.73-4,6.79-2.78,3.8-6.5,7.34.07,10.83.57,2.09.31,3.77,3.43,5.62,5.31,3.91,4,4.49,7.53,2,12.55-3.57,7.36-5.07,9.24-14.15,13-2.77,1.14-3.31,2.32-2.92,4.49.58,3.29-3.86,4.54-2.8,8.16.9,3.08-3.06,4-3.91,6.21-1.87,5-5.28,9.12-6.77,14.33-.87,3-3.46,5.56-5,8.46-1.31,2.51-1.69,5.63-3.38,7.77a51.29,51.29,0,0,0-5.6,8.24c-2.07,4-3.14,8.57-6.41,11.83-3.06,3.05-4.55,6.81-5.78,10.79a3.36,3.36,0,0,1-1.65,1.91c-3.76,1.53-2.85,6.06-5.54,8.3-2,1.68-3.58,3.93-5.66,5.49-2.27,1.7-4.77,3.51-7.44,4.17a23.48,23.48,0,0,1-9.15,0c-1.45-.23-2.73-1.9-4-3-7.28-6.68-9.6-9.32.07-17.27,3.14-2.59,4.27-6.22,6.29-9.34,1.31-2,1.69-4.68,3.87-6.26,3.19-2.32,4.83-5.78,6.48-9.16,1.29-2.63,2-5.55,4.68-7.3,2.26-1.46,1.09-5,3.74-6.33-.12-3.5,2.77-5.06,4.63-7.31,1.57-1.9,1.14-5,3.7-6.36-.71-4.51,1.95-7.93,3.78-11.6s3.71-7.24,5.58-10.86a7.47,7.47,0,0,0,1.11-2.15,6.74,6.74,0,0,0-.62-2.34c-.62.19-1.48.2-1.82.62-3.83,4.71-8.28,5.79-13.52,2.46-2.87-1.81-5.64-2.11-8.05.63-2.09,2.39-4.23,4.18-7.77,3.68-.93-.14-2.18,1.09-3.08,1.92-1.94,1.77-3.75,3.69-5.61,5.56-2.42,2.43-4.81,4.5-4.53,8.79.16,2.4-2.93,4.85-3.73,7.52-1.06,3.53-4.83,6-4,10.26a2.62,2.62,0,0,1-.85,2.21c-4.25,2.61-4.21,8.37-8.29,11.15a4.24,4.24,0,0,0-1.25,3.33,5.92,5.92,0,0,1-2.53,5.58,6.52,6.52,0,0,0-2.88,6.73c.42,2.64-3.56,3.68-2.64,6.82s-2.38,4.26-3.75,6.31c-.67,1-1.54,2.32-1.36,3.33.65,3.8-2.29,6.29-3.65,9s-1.74,6.62-5.23,8.45c-2.72,1.44-1.61,5.66-4.66,7.27-2.09,1.1-2.69,3.19-2.41,5.57a3.9,3.9,0,0,1-.45,2.41c-1.39,2.13-4.59,3.07-4.68,5.94s-3.92,3.73-2.73,6.8c-2.65,1.3-2,4.65-3.78,6.3-2,1.81-1.06,5-3.62,6.5-.47.26-.1,1.75-.55,2.33-1.59,2-4,3.63-4.9,5.88s-.28,5.16-.32,7.77c-4.57,1.94-.79,7.57-4.44,10.08-.74.51-.84,2.34-.79,3.54.22,4.81-1,8.17-6.51,9.16-1.74.32-3,2.4-5.51,2.62-3.44.3-4.67-4-8-3.06-1.23-2.57-3.24-5-3.53-7.71a110.77,110.77,0,0,1-.07-15.78c0-1.08,1.33-2,1.76-3.18.88-2.32,1.62-4.67,3.42-6.49-1.66-3.85,2.35-6.12,2.64-9.44.11-1.25-.15-3,.57-3.66,5.73-5.25,7.55-12.7,11-19.18,1.73-3.21,3.05-6.72,4.89-9.79,1.67-2.79,4.1-5.09,5.52-8.27,1.65-3.69,3.57-7.31,5.41-10.94,1.65-3.25,3.06-6.71,4.9-9.78a83.13,83.13,0,0,1,5.62-8.16c2.49-3.21,0-8.06,4.18-10.2.79-5.32,6.05-9,5.4-15-.1-.88,1.44-2,2.3-2.92s2.75-2,2.63-2.78c-.76-4.58,2.6-6.84,4.58-10.08a56.59,56.59,0,0,0,4.88-9.79c1.27-3.44,3.46-6.42,4.81-9.86.59-1.48,1.93-2.61,1.81-4.54-.07-1.18.12-2.88.89-3.5,6.06-5,8.73-12.64,14.7-17.77,2.63-2.26,5.6-3.58,8.32-5.47s5.92-.42,8.82-1c2.59-.52,4.18,1,5.42,2.75,1.78,2.54,4.19,2.86,6.88,2.5.75-.1,2.07-.74,2.06-1.1-.07-2.43,1.17-4,2.89-5.43-1.79-5,4.41-8.36,2.68-13.41-.63-1.86,1.49-3.09,1.78-4.46.78-3.65,4.76-6.21,3.45-10.46,2.83-2.6,3-6,2.59-9.43-.33-2.85,3.39-3.74,2.78-6.84-.5-2.53-.1-5.24-.1-7.88,3.62-2.38,2.55-6.08,2.62-9.44S789.11,691.83,789.11,688.32Z"/><path d="M725.89,557.92c0,6.11-.08,12.26.05,18.4,0,1.9-.9,3.06-1.75,4.58a9,9,0,0,0,.32,9.58c1.34,2.25-.37,2.59-.64,3.87a25.62,25.62,0,0,0-.51,9c.93,5.81-3.07,10.34-3.55,15.78-.11,1.24-2.47,2.59-1.77,4.43,1.66,4.31-2.5,7-2.94,10.75-.18,1.62-2.72,3-2.45,5.53a64,64,0,0,1-.09,7.83c-4.35,2-.6,7.8-4.66,9.93.73,4.42-2.7,7.67-3.33,11.85-.54,3.56-2.83,6.8-2.48,10.81.25,2.88-2.86,4.69-2.86,8.12,0,2.95-3.24,5.74-2.5,9.37-1.93,1.3-2.07,3.5-3,5.36s-2.92,3.21-4.51,4.72c-2.22,2.08-8.11,2.4-10.64.32-1.22-1-2.87-1.87-2.84-4.07.12-7.91-.12-15.82.17-23.71.06-1.86,2.61-3.84,2.32-5.46-.74-4.22,4.3-6.48,2.91-10.83-1.23-3.87,4.24-6.52,2.55-10.73,1.22-1.9,3.81-3.79.08-5.76.26-.31.45-.74.78-.91,2.59-1.36,1.45-4.64,3.55-6.56,1.17-1.07,1.1-4.1.75-6.1-.54-3,3.05-4,2.84-6.84s-.85-5.87,2-8.4c1.78-1.54-.77-5.18,2-7,.36-.24.89-.61.9-.93.13-3.92-.23-7.91.38-11.74.51-3.18,2.83-5.68,2.68-9.47-.47-12.72-.2-25.46-.15-38.19,0-2.52,3.36-5.39,6.17-5.32,1.23,0,3.11,0,3.57.69,2.42,3.79,7.85,0,10.18,4.51C720.84,553.89,723.69,555.72,725.89,557.92Z"/><path d="M917.92,806.86a30.46,30.46,0,0,0-3.94,0c-2,.26-3.24-.67-4.42-2-.85-1-1.87-1.84-2.76-2.81-1.42-1.52-2.78-3.09-4.17-4.63,1.55-2.43,3-4.93,4.68-7.24a15.66,15.66,0,0,1,3.7-3.7c3.7-2.53,4.37-7.1,7.19-10.19-.57-2.65,1.59-3.76,3-5.33.82-1,2.39-2.32,2.16-2.93-1.54-4,2.94-6,2.77-9.47,2.6-1.78,2-5.42,4.32-7.41,2-1.72.26-4.21,1-6.13.59-1.48,3.18-2.11,2.5-4.17-1.15-3.5,2.71-5.12,2.7-8.12s.13-6.13,0-9.19c-.19-3.48,4-5.34,2.85-9.46-.9-3.25-.18-6.95-.18-10.45,3.75-3.89,2.42-8.77,2.63-13.35,3.69-3.4,2.41-7.87,2.7-12a5.68,5.68,0,0,1,1.52-3.27c2.66-2.7,4.8-6.17,9.71-5.24,1.75.32,3.43-3.89,5.32-2.32,3.13,2.6,8.19,2.52,9.77,7.21a49.87,49.87,0,0,0,2.6,5.49c.87,1.82,2.68,3.79,2.42,5.43-.43,2.69-2,5.27-3.48,7.69-.88,1.45-3.22,2.36-3.49,3.78-.68,3.67-4.26,6.14-3.5,10.49.68,3.82,0,7.86.19,11.78.16,3.13-3.66,4.55-2.82,8.14.68,2.9.14,6.09.14,9.15-3.21,2.49-2.19,6.11-2.76,9.39s-3.82,5.69-2.51,9.44c-1.5,1.52-3.23,2.92-2.7,5.44-2.65,1.6-2.76,4.13-2.59,6.82.08,1.27.34,2.86-.27,3.79-1.8,2.75-5.16,4.1-5.23,8.46,0,2.94-2.37,6-4,8.73-1.24,2.12-1.24,4.77-3.59,6.47a29.2,29.2,0,0,0-6.47,6.47c-1.7,2.34-4.72,2-6.36,3.71C923.88,808.08,920.76,806.36,917.92,806.86Z"/><path d="M881.08,946.05c-.32-4.16,1.19-7.17,4-10.36,2.1-2.34,3.4-5.55,5.65-8.12,1.79-2,2.26-5.19,3.77-7.55,1.78-2.76,2.34-6.08,4.56-8.68.9-1.06.41-3.26.66-4.93.31-2.07,3.18-2.85,2.67-5.48-.32-1.66-.25-3.4,1.39-4.66,2.13-1.62,1-4,1.16-6,.16-1.74,0-3.5,0-5.25,0-10.5,0-21,0-31.5,0-3.58,5.62-13.52,8.94-14.5,2.68-.8,6.27-.9,8.66.29,4.37,2.18,9.58,4.18,11.16,9.41.59,2,5.06,4.61.2,6.94-.42,2.93,1.3,6.38-1,8.73-3.06,3.1-1.15,6.61-1.55,9.88-.38,3,.23,6.16-.16,9.17-.48,3.68,2,7.9-1.86,11-.3,3.81-.06,7.78-1.12,11.37-.53,1.79-2.76,3.23-2.19,5.62.62,2.61-2.27,3.45-2.63,5.48s.75,4.39-1.43,6c-2.57,1.87.14,5.39-1.92,7s-1.15,4.32-2.77,5.42c-2.43,1.65-1.16,4.88-3.58,6.51s-.27,4.66-1.72,7.14c-3,5.17-6,9.92-12.05,11.87-1,.33-1.67,1.92-2.81.26s-3-1.7-4.66-1.36c-5.43,1.16-8-3-10.46-6.19C880.76,951.79,881.35,948.58,881.08,946.05Z"/><path d="M563.12,825.3c-1.9,0-2.78-.06-3.65,0-4,.3-6.41-1.51-7.5-5.37-.32-1.14-1.56-2-1.8-3.17a46.54,46.54,0,0,1-.57-6.17c4-2.69,4.65-8.08,8.38-10.93s5.44-7.69,10.8-8.83c2.17-.46,4.17-3.11,5.62-5.19,1.67-2.39,4.61-1.95,6.42-3.66,2.22-2.1,4-5.54,6.58-6.19,3.8-1,5.64-3.66,8.1-5.88A51,51,0,0,0,602,763.4c2.18-2.87,5.8-3.45,8.12-5.65a26.11,26.11,0,0,1,7.39-4.53c.74-.35,1.34-1.65,1.92-1.6,5.48.52,9.11-3.48,13.65-5.17,2.69-1,6.07-.37,9.11-.08a4.49,4.49,0,0,1,2.94,2.19c2,4,5.16,7.48,4.55,12.63-.31,2.55-1.55,4.39-3.27,5.12-3.2,1.36-5.57,3.57-8.24,5.57-2.51,1.88-6.19,2.17-8.76,4-1.9,1.33-3.81,1.47-5.71,2.19-3.36,1.27-7.11,2.14-9.72,5.05a69.7,69.7,0,0,1-5.58,5.56c-1.69,1.48-.64,4-2.68,5.53-3.65,2.79-6,7.23-11,8.25-2.52,4.29-8.07,4.42-11.07,8.28-2.67,3.43-6.29,6.09-9.14,9.39C571.09,824,567.55,826.77,563.12,825.3Z"/><path d="M923.46,616.89c0,4.38-.49,8.84.14,13.13.67,4.58-4.72,7.44-2.77,12.08-1.61,1.36-3,3.39-4.87,3.9-2.44.68-5.22,0-7.84.2s-3.52-2.2-5.18-3.43c.45-4.35-3.31-7.54-3.21-11.83.11-4.82.15-9.65,0-14.47-.09-2.46,1.17-5.31-1.39-7.28s.26-5.52-1.91-7c-3.66-2.57.15-8.18-4.55-10,1.23-3.73-1.06-6.58-2.72-9.38s-2.51-6-4.59-8.69c-1.91-2.48-2-6.46-4-8.74-3.58-4-1-8.37-1.86-12.45,1.81-1.88,3.71-3.69,5.4-5.67,1.4-1.65,3.16-1,4.81-1.12a48.39,48.39,0,0,1,5.25,0,3.58,3.58,0,0,1,2.3.7,17.21,17.21,0,0,0,8.26,5.54c-.14,3.45,4,5.46,3,9.31-.68,2.68,3.75,3.72,2.57,6.78s2.74,4.07,2.7,6.8c0,2.54,3.62,3.7,2.85,6.69,3.5,1.79,1.11,6,2.95,7.89s1.37,5,3.55,6.51c1.78,1.27,1.07,3.16,1.1,4.8C923.51,606.37,923.46,611.63,923.46,616.89Z"/><path d="M474.73,860.35c48,91.72,52.16,96.46,56,101.54,3,4,8.68,9.54,8,12.3-3.35,12.94,7.54,19.61,7.23,30.54a45.21,45.21,0,0,1-1.62,11.82c-1.12,3.63-4.19,6.45-5,10.1-5.45,26-5.38,25.15-22.4,26.43-11.11.84-19.62-2.89-26-14-6.6-11.57-19.08-12.43-26.21-23.67-7-11-15.76-20.16-23.75-30.13l-21.57-26.92-24-29.91c-8-10-16.55-19.33-23.8-30.09-6.58-9.77-15.95-13.66-23.64-20.9s-12.45-19-23.58-21.31c-3.47-.72-8.33-7.37-8.66-11.77-.66-8.86-2.77-12.32-10-12.19-1.32,0-2.64-6.29-4.08-9.61-1-2.31-2.19-4.5-3.3-6.75-1.6,1.93-3.17,3.91-4.81,5.79a27.08,27.08,0,0,1-2.38,2.17c-5.59-7-10.61-15-16.95-20.66-6.09-5.46-4.77-15.26-9.53-20.54-5.19-5.75-3.31-12.69-3.69-19.34-.16-2.81.24-5.68-.06-8.45-3.17-28.37,5.11-44.07,26-49.07,1.09-.26,2.64.56,3.32-.13,5-5,9.88-11.35,14.78.09,5.65,0,11.31-.25,16.95.14,2,.14,5.59,2,5.54,2.81-1,13.3,8.63,12.88,14.26,17.39,2.62,2.09,5.59,4.61,8.49,4.82,6.9.49,14.1-.93,12.67,12.61-.13,1.24,3,3.42,4.87,4.5,11.36,6.6,24.12,10.85,33.83,20.09s19.49,2.68,28.91,5.37c0-2.82-.35-5.73.07-8.45.84-5.43-2.68-7.38-4.9-10.18-17.51-22-34.36-45-53-65.47-12.06-13.27-12.75-33.77-23.29-47.64-2.24-3-2.18-13.52.08-16,9.64-10.78,15.48-27.84,30.39-30.6.69-.13,1.56-5.38,1.34-5.51-6.63-3.81-13.17-8.57-20.19-10.46-7.49-2-15.46-1.26-23.22-1.72-5.33-10.76-14-5.79-21.35-7.27a16.11,16.11,0,0,1-8.49-4.8c-12.23-13.66-23.38-28.32-26.88-49.52-.39-2.33-3.41-3.83-4.24-6.23-1.21-3.55-3.15-9.72-2-11,7.33-8.49,6.26-26.63,16.65-28.76,7.2-1.47,10.4-11,17.36-9.42,9.46,2.12,20.41-6.05,28.4,6.29,19.61,2.38,34.94,17.35,51.88,27.53s34.39,19.41,50.38,32.12c2.54,2,6.5,1.26,9,3.28,9,7.25,12.48,24.09,26,23.79,6.29,9.72,18.21,9,23.9,20.67,1.75,3.59,8.38,3,11,6.46,6.94,8.9,18.73,8.58,23.81,20.66,3.89,9.24,12.71,9.63,18.59,15.18,5.36,5.06,9.33,12.37,14.63,17.56,4,4,9.19,6.17,13.85,9.16s9.84,5.16,13.84,9.18c5.26,5.28,10.82,1.41,16.12,2.66,3.13.75,6.14-.55,9.31,2.88,6.41,7,15.93,8,21.22,18,3,5.68,7.37,9.41,6.92,17.76-.78,14-.5,28.2-.08,42.28.18,6.26-2.88,9.79-4.76,14.58-2.17,5.53-3.54,15.8-1,19.12,6.86,9.19,8.06,16-.17,23.95,1.34,9.33-7,13.5-7.53,21.41-.47,7.16-2.91,9.22-8.2,9.5-9,.48-16.4-2.26-24.54-8.07-18.11-12.92-37.65-22.66-56.24-34.59-6.61-4.25-12-11.33-18.32-16.48-1.26-1-4.21.4-6.09,1.48-2.75,1.59-1.93,3.2.46,6,8.23,9.64,15.82,20.16,24.15,29.66,5.35,6.09,8.74,12.3,7.33,21.79a10.29,10.29,0,0,0,2.26,7.08c6,6.4,4.36,18.24,11.15,23.94,0,15.51,2.66,32-.7,46.27-3.82,16.22-11.11,32.47-24.48,41.06-2.68,1.72-6.68.14-10.06.28-4.31.17-9.07-1.57-56.4-82.41-44.22-81.07-42-78.24-35.75-78.46.51,0-.9-.49-1.4.14a4.55,4.55,0,0,0,0,3.57c1.58,2.78,3.51,6.26,5.9,1.17.32-.68-1.9-3.21-4.46-4.88C437.64,776,435.38,773.21,474.73,860.35Z"/><path d="M344.69,858.48c-4.24-.06-8.25-.55-11.66,3.54-3.09,3.71-8,1.65-12.1,1.22-2.24-.24-2.5-2.3-1-3.51,6.7-5.34,3.11-12.74,3.68-19.27.07-.85-2.28-2.11-3.69-2.83-2.11-1.09-5.4-1.31-6.31-3-1.11-2-1.05-5.39-.12-7.61,2.55-6.06,6.56-11.33,5.28-18.78-1-5.91-.08-12.14-.24-18.22-.12-4.39,0-8.29,3.9-11.56,1.26-1.07,1.46-5,.54-6.77a116.78,116.78,0,0,0-9.09-14.49c-2.24-3.18-2.09-3-.67-11.12.74-4.22.13-8.67,1.66-18,1-4.72,0-4.55-.12-4.15-.59,2.21-.84,4.51-1.44,6.71-.67,2.47.06,3.32,2.45,2.4a3.48,3.48,0,0,0,1.75-1.57c1.78-3.58,1.16-7.81-2.64-3.39-3,4.4-5.76,3.83-5.78,3.17-.5-15.47-.9-31-.78-46.44,0-2.59,3.38-5.1,3.57-7.76.14-1.94-3.53-4-3.58-6.1-.34-14.72-.17-29.45-.19-44.17,0-3.14,7.06-3.65,3.48-7.41-3.11-3.27-3.52-5.07.21-7.55.56-.37.83-1.19,1.22-1.8-7.55-4.71-4.38-12.25-4.84-18.76-.47-6.74-.31-13.15,4.88-18.88,1.74-1.92.18-6.84-4.94-6.44-.78-5.66,2.34-12.15-3.61-16.71a8.43,8.43,0,0,1-1.37-1.82c8.39-5.53,4-14.08,4.83-21.34a8.86,8.86,0,0,0-2.27-6.68c-4.35-3.92.07-5.18,1.47-7.58.31-.54-1.12-3-2.06-3.19-3.6-.82-10.63,3.23-12.22,7.53-.71,1.92.36,4.76,1.25,6.92.61,1.48,3.34,2.48,3.37,3.74.29,10.38.42,20.79-.06,31.16-.09,1.93-3.12,3.71-4.79,5.56,9.63,4.79-1.46,9.13-.37,14,1.24,5.54-1.12,11.35,4.21,16.68,2.94,2.95,2.83,9.57-1.64,13.73-.63.59-1.6,1.13-1.78,1.85-.75,3.11,6.05,3.21,3,7.33-1.45,2-4.5,3-3.66,6.28-1.48.62-4.12,1.05-4.26,1.88a60.69,60.69,0,0,0-.89,12.69c.65,13,.2,17-3.58,28.15-2.76,8.18-4.71,17.84.77,24.12,4.6,5.26-7.62,10.73,2,13.36.13,7.84,6.72,11.3,11.59,16.89-3.74,3.46-7.16,7.5-11.39,10.32-4.79,3.2-3.47,9.33-7.29,12.73-8.08-1.44-8,3.76-7.86,9.37.19,7-.43,14,.2,20.86.52,5.73-6.67,7.49-5.56,13.54.92,5.06.18,10.41.18,15.63-10.65,6.22.21,20.76-10.44,27,1,6.49-2.65,13.7,3.72,19.4,2.94,2.62,2.1,6-.74,8.85-1,1-2.29,3.37-2.12,3.51,7.47,6.1,4.68,14.66,3.93,21.72s-6,13.31-5,21.39c.88,6.84.18,13.89.18,20.85q0,11.75,0,23.48c0,3.32.52,8.74-3.34,8.17-6.55-1-10.35,11.79-17.71,3-.73-.87-3-1.73-3.54-1.3-11.81,9.15-24.74.44-38.09,5.63,0-9.94.23-16.76-.07-23.54-.26-5.73,2.36-12.36-4.3-16.47-.28-5.1-.3-10.23-.92-15.29-.89-7.3,3.1-15.7-4.59-21.56,1.46-1.85,2.93-3.69,4.4-5.54-5.6-4.09-5.41-10-5-16-6.41-3.87-5.2-10.17-5.18-16.12,0-9.57.44-19.16-.11-28.7-.57-9.86,3.53-20.67-5.11-29.16,0-6.08.27-12.19-.07-18.26-.33-5.71,2.09-11.89-4-16.77-1.82-1.47-1.06-6.41-1.11-9.77-.12-9.57.25-19.15-.14-28.7-.26-6.53,2.5-13.63-4.24-19.26-1.8-1.5-.84-6.5-.85-9.89-.06-20,.31-40-.2-60-.2-8.14,3.22-17-4.43-24.35-1.78-1.7-.6-6.6-.61-10,0-13.92,0-27.84,0-41.75,0-5.92.88-11.74-4.85-16.47-1.72-1.41-1.79-8.31-.1-9.76,5.39-4.62,3.17-7.37,0-11.84-1.64-2.33-.29-6.76-.29-10.24,0-23.48.16-47-.11-70.45-.07-5.66,2.65-12.33-3.93-16.69-.22-.14.73-2.44,1.45-3.53,4.11-6.2,4.82-14.31,1-19-4.7-5.81-3.42-11.26-3.54-16.94-.15-6.75-.77-14.19,1.75-20.08,1.68-3.93,3.37-7.35,3.36-11.67-.06-21.74-.66-43.52.24-65.22.44-10.61-5.09-22.33,4.71-32,1.74-1.72.24-6.71.24-10.19,0-7.83,1-15.83-.28-23.43s6.43-11.53,5.69-18.78a104.38,104.38,0,0,1,.06-23.44c.7-5.45,6.93-9.52,5-16.14-1.67-5.74,4.68-9.27,4.73-13.49.09-6.46,3.91-10.77,5.51-16.15,3.45-11.65,13.68-14.34,22.73-16,10.94-2,22.55-.07,33.82-.64,5.7-.28,7.48,6.69,13.54,5.61,4-.7,10.08-.86,12.09,1.46,5.24,6.06,6.56-.55,9.71-1.45,2-.57,6.29.61,6.65,1.85,2.09,7.12,6.53,13,9.49,19.59a19,19,0,0,1,1.79,4.46c.92,5.66-1.54,11.51,3.51,17,4.25,4.59,1.3,11.54,1.72,17.42a13.27,13.27,0,0,0,12.88,12.68c7.37.48,15.78-2.95,21.32,5.17,7.45-2.62,12.72,2.76,18.66,5.35,3,1.29,5.26,4,8,5.8,2.3,1.47,2.05,2.1.11,3.87-1.68,1.53-3.69,4.46-3.27,6.24,1.79,7.63-6.06,11.69-6.37,18.5,0,.78-4.48,1.09-6.62,2.15-1,.48-1.53,2.17-1.89,3.43-.1.36,1.25,1.67,1.78,1.59,8.71-1.44,10.09,8.75,16.59,10.39,3.35.84,7.34.21,6.66,5.34-.66,5,2.3,10.49-1.8,14.87-4.75,5.08-9.81,9.88-14.72,14.8s-4.74,4.78-4.33,20c.12,4.35,0,8.7,0,13.05-1.44.57-4,.91-4.14,1.76-.71,3.13,1.6,3.65,4.14,3.46,0,2.57.81,7-.12,7.41-9.26,4-2,14.32-8.42,20.07-5.22,4.69-.79,13-1.91,19.53-1.74,0-3.48,0-7.83-3-2.61-2.21-2.9-1.24-2.55-.62.73,1.31,1.66,3.31,2.75,3.48,4.83.77,2.23-3.24,2.18-4.7-.05-1.74-1.81-3.43-2.83-5.15-.72,1.33-1.44,2.65.45,7,2.48,6.63,4.22,8.37,7.83,8.24-.6,1.47-.78,3.54-1.88,4.32-4.37,3.09-4.22,7.77-3.1,11.57,1.56,5.28,4.75,10.08,7.24,15.09,1.22-1,2.76-1.75,3.59-3,1.47-2.22,2.95-2.52,3.64-.11,1.38,4.82,2.71,10-1.81,14-4,3.5-1.88,7.94-2.45,12,8.16,7.5,4.35,17.37,5.22,26.31.4,4.16-.11,8.7,1.47,12.34,1.22,2.81,4.85,4.37.52,7.5a35.55,35.55,0,0,0-5.51,5.46c-2.49,2.82-3,4.94.41,8.68,4.71,5.1,3.87,8.74-.88,12.7-.41.34-.41,1.18-.61,1.79,9.72,2.5-6.2,12.33,4.18,14.74.3.07.4,1.52.4,2.33,0,17.26-.12,34.52.12,51.78.06,4.11-2.83,5.8-4.72,8.47-.84,1.19-.53,3.24-.58,4.9-.11,3.11,6.43,3,3.63,7.54-1.27,2.05-2.44,4.17-3.65,6.25-.87,0-2-.35-2.56.06-4.33,3.12-2.81,7.85-2.49,11.83.36,4.56,4.72,3.55,7.86,4.17.58.12,1.15,2.33,1,3.51-.2,2-5.28,2.1-2.24,5.51a42.6,42.6,0,0,0,3.68,3.68c3.28,2.9,5.63,5.83,5.33,10.87-.44,7.43-1.49,15.05,4.79,21.49,1.61,1.65,1.28,7.93-.51,9.66-5.6,5.41-6.25,9.73-.08,14.8.16.13-1.55,2.23-2,3.55-2.87,7.84-3.75,12.65-.7,19.14,1.46,3.09,4.35,4.71.17,7.54-1.41.95-2.35,2.58-3.73,3.6-5.26,3.86-2.91,9.22-2.95,14.12,8.16,5.63,4.25,14.11,4.73,21.38s1.52,15.06-4.83,21.46c-1.81,1.82-.46,6.55-1.21,9.8-.21.9-2.77,1.26-6.65.35-1.58-.51-.88.66.12,1.46a2.24,2.24,0,0,0,2.19,0,2.22,2.22,0,0,0,0-2.19,10.6,10.6,0,0,0-3.08-2.38c-.19-.1-1,1,.75,3.13a10.35,10.35,0,0,1,2.42,6.69c.5,5.45.51,5.4,5.43,2.5a17.18,17.18,0,0,1,3.63-1.2c.46,1.54,1.38,3.12,1.23,4.6a7.13,7.13,0,0,1-2.18,4.19,10.63,10.63,0,0,0-1.9,13.82c2.76,4.15,4.36,6.32-.32,9.41,3.07,3.81,5.49,7.59-.52,11C346.72,844.7,344.42,851.94,344.69,858.48ZM219.33,824.24v-2.33c-.77,0-1.77-.31-2.28.06-1.72,1.21-3.87,2.7-.73,4.54.42.24,2-1.46,6.05-9.39a18.07,18.07,0,0,0-3,2.52,1.56,1.56,0,0,0,2.21,2.21,10.53,10.53,0,0,0,2.37-3.08C224.09,818.57,223,817.72,219.33,824.24ZM235,228.12V212.48c0-6.08.59-12.23-.18-18.22-.61-4.68-6.47-7.56-5.17-13.52.77-3.55-.34-6.7-5.28-6.6-3.21.06-4.43,1.6-5.06,4.38-1.43,6.32-7.75,11-5.33,18.73,2.19,7-6.37,11.06-5.5,18.7.74,6.43,3.56,14.45-1.55,19.87-5.91,6.27-.79,13.61-3.73,19.4-1.8,3.55-5.91,5.19-.82,9.63,1.84,1.62,1.13,6.38,1.22,9.72.07,2.49.38,5.61-.91,7.35-1.71,2.3-5.21,2.78-4.48,7.24.5,3,1.91,6.94-1.58,9.64a6.71,6.71,0,0,0-1.83,1.85c-2.89,5.26-2.33,6.06,5.52,9.45,1.15.5,2,2,2.67,3.17.1.18-1.13,1.7-1.75,1.7-4.61,0-8.31.46-8.11,6.74.32,10.41-.12,20.85.18,31.27.14,4.62-1,8.07-4.4,11.37-1.11,1.07-.37,4.66.4,6.78.34.93,2.85,1.12,4.39,1.56,2.06.59,6.09.71,3.19,3.91-6.27,6.88-4.46,14.3-1.64,21.17,1.23,3,3.69,5.4,3.21,9.1-.63,4.87-.1,9.31-3.25,14.42s-2.19,13.18-1.85,19.89c.61,11.87-2.54,24,2.07,35.59.61-.35,1.75-.67,1.76-1,.49-11.13.88-22.26,1.24-33.39.08-2.61-1.07-6,.19-7.69,8.15-10.67,4-22.92,5.06-34.46.16-1.63,0-4.08.95-4.71,6.47-4.37,3.89-10.87,4.19-16.58.31-6.07.07-12.16.07-18.25,9.06-9.36,3.78-21.09,5.24-31.71.34-2.43.06-5.86,1.52-7.07,5.85-4.85,2.18-11.4,3.88-16.77,2-6.2,7.38-11.44,5-18.74-2.44-7.48,2.69-12.75,5.32-18.67,5-11.18,5.12-11.11,5.15-18.72,0-6.95,0-13.9-41.78,28.9,0,.81-.29,1.79.06,2.4.73,1.31,1.66,3.31,2.75,3.49,4.83.76,2.23-3.25,2.18-4.71-.05-1.74-1.81-3.43-2.83-5.14C194.66,275.23,193.94,276.55,235,228.12Zm-8,494.7c-1.94,1.94-3.56,4.09-5.66,5.55-6.34,4.43-8.14,10.27-7.39,17.82.68,6.85.14,13.82.14,20.74,8.2,5.43,4.32,13.91,5.41,21.14.11.69,1.47,1.86,1.71,1.74,1.21-.61,3.11-1.51,3.18-2.43.42-5.12.37-10.28.48-15.42,6.54-3.89,4.67-10.34,4.88-16.14.26-7.44-1.6-15.28,5-21.41.65-.6-1.17-4.5-2.48-6.43S228.82,724.51,227,722.82ZM302.91,404c0-7.83,0-15.66-.08-23.49,0-.62-1.07-1.39-1.8-1.78-.44-.24-1.62,0-1.75.27-1.8,4.33-2.87,9-6.19,12.58,4.65,3.09,3.5,5.38.35,9.52-1.89,2.5-1.56,9.58.6,11.65,4.72,4.52,3.07,9.45,3.79,14.34.13.89,2.06,1.68,3.3,2.14.33.13,1.69-1.11,1.7-1.74C303,419.69,302.91,411.86,302.91,404Zm-2.38,36.81c-.95,1.18-2.49,2.25-2.73,3.57-.61,3.28-.07,6.86-1.07,10-.8,2.48-6.23,4.05-1.33,7.33,3.8,2.53.33,8.88,5.68,10.15a8.82,8.82,0,0,0,4.93-.52c2.38-.93,1.85-1.93.65-3.67-5-7.2-4.8-7.31-.11-17.66C307.12,448.76,301.82,440.74,300.53,440.84ZM329,761.69a10.08,10.08,0,0,0,0,2.52c.4,1.5.66,3.92,1.59,4.25,3.33,1.19,3.15-1.49,3.72-3.79s2.08-4.19,3.29-6.21c1.39-2.32.49-4.28-2.12-4.45C330.3,753.67,329,755.18,329,761.69Zm0-232.32c0-4.58,1-8.48-2.64-10-.88-.38-3.51,3-5.12,4.87-.83.95-2,3-1.61,3.39a93.63,93.63,0,0,0,6.94,6.86C327.58,532.4,329,530.34,329,529.37ZM302.91,364.74a34.38,34.38,0,0,0-.08-5.08c-.11-.68-1.32-1.82-1.69-1.7-1.23.39-3.21,1.16-3.3,2a62.77,62.77,0,0,0-.07,10.17c0,.63,1.31,1.81,1.68,1.69,1.24-.39,2.95-1,3.31-2C303.32,368.29,302.91,366.44,302.91,364.74Zm26.75,115c-.83-2.44-1.54-4.7-2.42-6.9a1.93,1.93,0,0,0-1.68,0c-2.48,2.81-2.48,11,0,13.79a1.93,1.93,0,0,0,1.68,0C328.12,484.49,328.83,482.22,329.66,479.78Zm4.59,252.07-2.61-4c-.87,1.32-2.57,2.73-2.44,3.94.25,2.23,1.57,4.35,2.44,6.51Zm-4.87-311.39c-.94-2.27-1.48-3.74-2.21-5.1-.11-.22-1.28-.18-1.69.12-2.61,1.95-2.64,7.5.18,8.39C326.51,424.14,328.27,421.53,329.38,420.46Zm-3.8,83.66c-2.61,1.53-2.71,6.68-.1,8.62a2,2,0,0,0,1.74.13c2.66-1.45,2.74-6.64.12-8.59C326.94,504,326.18,504.16,325.58,504.12Zm1.66,120.13c-.59,0-1.35-.13-1.76.17-2.61,1.94-2.53,7.13.13,8.58a2,2,0,0,0,1.73-.12C330,630.94,329.86,625.78,327.24,624.25Zm-123.93,282c1.11,1.07,2.87,3.68,3.72,3.41,2.82-.89,2.79-6.44.17-8.39-.4-.3-1.57-.34-1.68-.12C204.79,902.49,204.25,904,203.31,906.23ZM332.39,575.66l1.86-1.86a16.13,16.13,0,0,0-3.51-1.63c-.43-.1-1.14,1.05-1.72,1.63Zm0,252.23L329,829.75c.58.58,1.29,1.73,1.72,1.63a16.13,16.13,0,0,0,3.51-1.63Zm-5.22-287.28-3.37,1.85c.58.58,1.29,1.73,1.72,1.64a16.58,16.58,0,0,0,3.5-1.64Zm0,259.65,1.85-1.85a16.58,16.58,0,0,0-3.5-1.64c-.43-.09-1.14,1.06-1.72,1.64Zm-8.59-477.18c.58.58,1.29,1.73,1.71,1.64a16.65,16.65,0,0,0,3.51-1.64c-.58-.58-1.29-1.73-1.72-1.63A16.27,16.27,0,0,0,318.58,323.08Zm0,26.12c.58.58,1.29,1.73,1.71,1.63a16.13,16.13,0,0,0,3.51-1.63c-.58-.58-1.29-1.73-1.72-1.63A16.27,16.27,0,0,0,318.58,349.2Zm1.86,92.16-1.86,1.86a16.27,16.27,0,0,0,3.5,1.63c.43.1,1.14-1.05,1.72-1.63Zm-1.86,158.56c.58.58,1.28,1.73,1.72,1.63a16.27,16.27,0,0,0,3.5-1.63c-.58-.58-1.29-1.73-1.72-1.63A16.27,16.27,0,0,0,318.58,599.92Zm-5.22-219.38c.58.58,1.28,1.73,1.71,1.63a16.13,16.13,0,0,0,3.51-1.63c-.58-.58-1.29-1.73-1.72-1.63A16.05,16.05,0,0,0,313.36,380.54ZM316,398.82c-.58.58-1.73,1.29-1.64,1.72A16.58,16.58,0,0,0,316,404c.58-.58,1.73-1.28,1.63-1.71A16.13,16.13,0,0,0,316,398.82Zm-2.61,295.12c.58.58,1.28,1.73,1.71,1.63a16.13,16.13,0,0,0,3.51-1.63c-.58-.58-1.29-1.73-1.72-1.63A15.84,15.84,0,0,0,313.36,693.94ZM311.5,410l-3.37,1.86c.58.58,1.29,1.73,1.72,1.63a16.05,16.05,0,0,0,3.5-1.63Zm-8.59,80.21c.58.58,1.29,1.73,1.71,1.63a16.13,16.13,0,0,0,3.51-1.63c-.58-.58-1.29-1.73-1.72-1.63A16.27,16.27,0,0,0,302.91,490.23Zm.75,9.69,1.86,3.37c.58-.58,1.73-1.29,1.63-1.72a16.35,16.35,0,0,0-1.63-3.51ZM293.22,318.61l1.85,1.86a16.65,16.65,0,0,0,1.64-3.51c.09-.42-1.06-1.13-1.64-1.71ZM263,758.48l3.37-1.86c-.59-.58-1.29-1.73-1.72-1.63a16.13,16.13,0,0,0-3.51,1.63ZM210.75,868.17l3.36-1.86c-.58-.58-1.29-1.73-1.72-1.63a16.27,16.27,0,0,0-3.5,1.63ZM193.22,542.46c.58.58,1.28,1.73,1.72,1.64a16.81,16.81,0,0,0,3.5-1.64c-.58-.58-1.29-1.73-1.72-1.63A16.27,16.27,0,0,0,193.22,542.46Z"/></svg>