<svg id="Layer_1" data-name="Layer 1" xmlns="http://www.w3.org/2000/svg" viewBox="0 0 1200 1200"><title>BB_Artboard 74</title><path d="M658.38,917.52c2.6,5.4,7.18,9.07,13.16,9.79s8.11,4.66,12.12,7c-1.07,6.84,8.54,10.15,7.76,17.71-1.13,11.07-5.78,13.95-18.85,8.57-4.29-1.77-9.11-3-12.76-5.43C647.35,946.9,639,934.7,622.6,930.3l-37.5-30.24c-11.76-9.49-23.91-18.69-35.08-28.61-4.13-3.68-3.91-10.68-13.06-10.22-6.17-7.39-19-10.44-20.72-20.76a3.33,3.33,0,0,0-1.36-2c-9.22-6.15-16-14.06-27.95-18.38-10.59-3.82-11.34-17-22.41-22.2a17.47,17.47,0,0,0-5.67-1.05,5.38,5.38,0,0,0-2.71.71c-.85.44-2.06,1.14-2.07,1.75s1.22,1.27,2,1.76c15.21,8.94,20.26,23.24,29,35.6,4.82,6.8,6.49,15.4,15.18,20,9.88,5.24,9.63,16.17,19.7,21.22,8.89,4.45,8.86,14.5,17.65,19.25a10,10,0,0,1,3.54,3.81c3.71,6.33,4.51,14.11,12,18.54C561,924,560,932.91,568.36,937.32c3.51,1.83,4.13,6.94,7,10,3.08,3.33,7.28,6,10.88,9,6.61,5.57,7.43,9,.71,17-2.62,3.14.8,9.56-6.76,9.48-7.78-.08-16.55,2.64-22.72-4.3-7-7.87-19.9-11.93-22.49-22.7-.17-.71-1-1.78-1.71-1.87-13.6-1.76-18.56-8.52-17.25-19-6.33-2.44-5.11-8.4-8.73-12.2-5.42-5.69-15.86-8.41-15.93-17.29q-8.62-7.18-17.25-14.36c-2.18-1.81-6.27-3.55-6.29-5.35-.11-8.52-12.14-10.85-13.69-18.13-.59-2.78-1.56-4.44-4.67-5.39-2.68-.82-7.68-1.76-7.65-2.55.43-11.64-18.78-12.89-19.22-23.94-.05-1.26-1.89-3-3.42-3.54a9.31,9.31,0,0,0-5.95.21,5.68,5.68,0,0,0-2.8,3.94c-.21,1.43.32,3.86,1.49,4.35,5.55,2.31,2.74,8,6.63,10.4,5.1,3.15,4.2,7.18,4.21,11.26,0,.82-.34,1.89.16,2.44,4.63,5.09,13.23,7.59,12.65,16C435.11,887,442,891.85,445,897.6c4,7.68,3.74,11.32-3.39,17.23-1.45,1.2-2.91,2.39-4.41,3.55-7.67,6-15.88,6.11-23.34-.68-5.89-5.34-13.79-8.91-16.82-17C395,895,386.26,891,380.77,886c-.55-.5.22-2.66,1.16-3.4,4.45-3.54,4.88-6.91.16-10.44-.76-.57-1.47-1.18-2.2-1.78-4.42-3.55-10.53-6.54-12.76-10.83s-1.09-9.93-.43-14.89c.91-6.86-9.26-10.91-6.42-18.07.28-.71.17-2.15-.29-2.32-10.33-3.88-1.5-14.92-11-19-2.61-7.53-9.26-14-7.82-22.73.53-3.22-4.16-6.84-5.69-10.48-1.24-3,0-7.86-2.2-9.11-5.15-2.88-2.43-7.92-6.32-10.71-1.51-1.09-3.75-2.35-3.9-3.67-.57-4.95,1.91-11.37-1.1-14.62-4.11-4.45-6.28-8.46-5.19-13.45,1.24-5.64-4.35-8.74-6.06-13.11-1.77-4.55-.76-9.77-1.6-14.62-.23-1.33-3.84-2.29-4-3.6-1.12-7.26-1.65-14.58-2.39-21.88-13.31-6.91-16.93-20.22-28.65-28.18a39.46,39.46,0,0,1-4.42-3.55c-5.16-4.67-4.32-14.17,3.23-16.86,9.62-3.44,16.61-8.85,23.74-14.52,7-5.55,17.78-2.74,19.76,5.79,1.12,4.87,1.12,9.14,5.86,13.37,2.6,2.33.84,8,.61,12.17-.29,5.19,8.72,7.12,6.69,13-.27.79,2.7,2.31,4.17,3.5,10.3,8.3,19.84,17.35,31.09,24.7s15.11,19.14,26.1,26.73,20.39,16.76,31.15,24.65c7.6,5.57,8.82,14.3,17.33,19.58,9,5.58,16.37,12.83,24.46,19.35l22.05,17.79,22.06,17.79,24.26,19.57c7.35,5.93,14.67,11.88,22.06,17.78,5.14,4.1,9.74,10.54,15.74,11.58,8.35,1.44,11.33,6.62,17.06,9.64.63.33,4-1.25,3.9-1.73-.64-3.93,2.46-8.35-2.19-11.81-1.46-1.09-3.92-2.74-3.64-3.69,3-10.4-6.36-15.68-14.32-20.25-5.47-3.13-15.27-4-16.34-9.31-1.38-6.82-9.35-9-11.23-14-2.91-7.65-9.32-12.48-16-17.26-4.52-3.24-5.24-6.86-4.66-11.08.4-2.91-1.32-5.38-4.39-5.34-7.17.1-6.68-3.4-8.68-7.49-2.77-5.63-11.39-8.37-13.15-15.82-1.18-5-10.72-6.59-11.72-13.71-.85-6.07-13.5-7.81-12-16-5.09-4.86-11.88-8.24-13.73-15.62-1.25-5-10.68-6.6-11.7-13.74-.86-6-12.3-7.85-12.63-16-.13-3.06-6.78-5.94-10.46-8.91-2.2-1.78-6.52-3.78-6.27-5.3,1.68-10.37-9-15.59-13.79-23.22-3-4.85-5.08-10.18-8.79-14.63s-8.81-8.05-11.52-13.82c-2.58-5.48-10.07-9.31-12.95-15.79-2.2-5-9.46-7.34-11.38-13.9-1.6-5.48-10.43-8.77-13.11-15.69-1.93-5-9.2-9-14.94-12.47-6.09-3.72-8-9.07-10.82-14.1a53.16,53.16,0,0,0-15.46-17.5c-6.16-4.5-12-9.3-17.65-14.22-6.06-5.27-12.79-9.64-16.18-17.24-2.42-5.41-9.64-9.61-13-15.73-1.89-3.38-3.71-4.54.38-7.41,3.65-2.55,2.08-7.32,6.52-10.45,7.33-5.16,14.61-4.68,20.37,2.86.5.65.54,1.62,1.19,2.09,6,4.41,9.5,10,13.69,15.5,5.31,6.94,16.83,11.15,20.83,18.3s9.66,12.42,16.38,17c5.16,3.52,2.57,9.48,8.5,12.49,5.11,2.6,6.51,7.85,9.6,11.65,3.3,4.05,2.95,9.68,8.2,12.45,8.93,4.71,9,14.45,17.57,19.34,6.76,3.88,9.52,10,13.58,15.52,3.61,4.89,10,8.46,15.12,12.61-2.53,5.81,6.32,7.8,6.54,13,.23,5.59,9.5,7.05,10.68,11.41,1.93,7.18,7.53,11.74,13.84,15.42,7.19,4.18,5.27,12.42,13,16,7.48,3.42,5.9,11.83,13.17,15.77,6.85,3.72,6.68,11.22,11.43,16.25,1.11,1.17.78,3.74,2,4.23,4.91,1.95,13.19.88,10.56,8.73,4.16,3.64,10.91,6.9,11.86,11,1.35,5.85,6.44,8.18,10.27,11.75,4.07,3.79,8.87,7.08,13.08,10.78,1.22,1.07,2.42,3,2.07,4.23-1.91,7,3.77,10.62,9,14.71,9.71,7.59,19.12,15.41,28.78,23,1,.8,2.88.9,4.35,1.32.4-2.27,1.72-4.76,1-6.74-.83-2.15-5.67-4.41-5.15-5.6,3.3-7.56-6.26-11.75-6.54-18.14-.14-3.28.38-6.49-3.47-8.94-14.6-9.28-20.39-23-27.85-36-2.44-4.21-5.51-8.13-7.82-12.48-2.62-4.93-11.82-6.81-11-14,.09-.77-3.18-2.71-4.49-2.5-12.85,2.07-17.85-6.51-25.25-11.77-7.7-5.47-12.76-12.86-13.11-20.59-.27-5.74-6.87-8-6.84-13,0-4.19,0-8.39,0-12.58-9.9-5.21-5-13.5-6.54-20.45-10.38-3.79-1.88-14.43-10.77-19.27-2.12-1.15-1.55-6.17-1.28-9.36.39-4.51-1.05-8-5.57-10.79-5.16-3.17-8.49-7-7.11-12.74,1.25-5.2-9-7.13-6.16-13-9.1-7.49-11.61-18-18.43-26.59-6.14-7.77-8.15-17.89-15.15-24.92-6.12-6.14.18-15.49-10.09-19.43-2.28-7.72-7.26-14.36-12.38-21-4.55-5.94-5.23-13.61-12.3-18.51,2.15-7-3.63-12.1-6.34-18-2.32-5.08-7.33-8.95-6.91-15.5.45-7.11-13.35-9-12.66-18.48.4-5.41-6-11.16-9.42-16.72a5.64,5.64,0,0,0-2.19-1.76c-1.38-.71-4-1.93-4.22-1.74-4.81,5.11-12.79,7.85-15,15.11-1.56,5.12-4.82,11-9.73,14.08-7.1,4.39-8.55,10.84-12.61,16.19-3.59,4.72-6,9.75-11.06,14-4.52,3.78-6.82,9.33-9.91,14.18-3.52,5.52-5.37,12.34-10.57,16.41-6.74,5.26-9.34,10.5-8.23,17.58.26,1.61.54,4.41-.34,4.76-9.58,3.72-2.86,12.51-8.6,17.43-1.85,1.59-3.69,4.41-3.23,6.3,1.4,5.75-5.56,8.59-6.23,13.07-1,6.62.3,13.43-.41,20.09-.83,7.86,4.22,16.79-5.68,23.22,4.87,3.43,6.65,7.64,5.94,12.89-.56,4.14.19,8.4-.33,12.55-.13,1-3,2.18-4.71,2.44s-5.32-.33-5.45-.93c-1.41-6.25-8.8-10.4-8.48-17.39.53-11.72.08-23.47.18-35.21,0-4.95.45-9.9.69-14.85,9.48-3.54,2-12.7,8.76-17.24a7.64,7.64,0,0,0,2.91-4c1.51-5.41-3-11.48,3.64-16.47,4.26-3.17,2.68-9.55,8.92-12.05-1.47-6.81,9.6-10.78,6.3-18.06-.31-.66-.15-2,.39-2.3,15.23-7.92,14.45-24.78,28.62-33.25,5.64-11.63,13.3-22.43,20.83-33.29-3-8.06,3.49-13.17,10.25-16.5,8-3.93,7-11.52,12.84-16.13,1.61-1.27,2.23-5.77,1.13-6.42-6-3.6-6.12-8.44-5.42-13.41,1.12-8-1.33-14.59-9.73-19.48-1.41-.82-3-2.92-2.64-4,2.34-6.51-4.28-10.43-6.56-15.53s-5.58-9.87-8.53-14.75c-2.12-3.49-3.58-7.57-6.8-10.22-4.43-3.64-2.59-7.66-3.31-11.58s-8.66-5.84-5.93-10.4c2.13-3.55,6.8-6.05,9.85-9.32,4-4.33,4.45-9.62.08-13.43-5.6-4.87-4.94-8.15.55-12.45,1.72-1.35,1.51-4.52,1.68-6.88.25-3.34,0-5.83-5.71-7.06-7.46-1.6-13.5-6.21-22.49-5s-15.36-7.73-25.31-5.4c-.35.09-2.51-2.61-2.42-4,.31-5.21-.09-10-6.34-13,.68-4.85-.75-7.88-8-7.68-6.92.18-14.12,1.49-19.85-4.22-1.71-1.71-7.79-.68-11.87-.69-13.51-.06-27.06-.5-40.53.15-8.2.4-13.32-2.3-18.53-6.74-10.1-8.61-10.45-8.55.91-17.47,2.49-2,5.59-7.13,8.33-4.81,5.33,4.51,11.11,3.59,17.05,3.65,13.52.12,27,0,40.55.06,7,0,10.87,6.81,19.32,5.27,6.92-1.27,14.49-.26,21.76-.26h68.62c2.08,0,4.44.49,6.16-.15,1.51-.57,3.38-2.51,3.19-3.64-.35-2.17-1.84-5.87-3.24-6-7.19-.61-14.52-.33-21.79-.27-6.13,0-5.48-3.45-6-6.76-1.52-9.47-5.75-12.82-16.9-13.33-6.07-.28-11-1.1-16.78-4-15.69-7.86-18.24-9.68-16.12-22.13.47-2.7,2.81-3.29,6-4.33,11-3.62,21.38-9.54,33.16-1.15C251.63,42,255.41,42,258.32,42c36.39.09,72.78,0,109.16.1,11.06,0,19.46-7.59,31.83-5.47,10.94,1.88,22.77.4,34.21.4h31.19c11.44,0,23.06-1,34.25.31,9.23,1.1,13.16-7.44,22.51-5.61,6.87,1.34,14.47.26,21.75.26h24.95c14.42-10,31.59-3.11,47.33-5,6.39-.76,11.52.55,16.39,4.77,4.62,4,7.77,10.52,16.39,10.2,6.82-.26,14.65,2.36,19.89-4,.76-.93,3.68-.95,5.61-1q57.69-.07,115.4,0c8.72,0,16.11,8.51,14.08,15.66-1.07,3.77-8.33,9.41-12.48,9.43-13.52.07-27,0-40.55.1-.74,0-1.66,1-2.13,1.73a1.54,1.54,0,0,0,.35,1.71c3,2.24,6.24,6.39,9.06,6.21,15.17-1,24.52,9.52,37.9,11.62,8.44,7.8,19.52,2.39,29.27,3.64,1.26.16,3.48-1.81,4.43-3.17,5.78-8.28,15.6-6.54,24.67-6.72C866.26,85.39,881,81.91,894.87,82c7.62,0,13,3,19.37,5,9.89,3.11,18.26,8.7,29,10.58,3.43.61,6,4.31,9,6.65,4.44,3.53,8.83,7.11,13.24,10.66-2.74,5.85,6,7.85,6.58,13s5.45,9,11.92,9.51c6.3.48,9.2,5.25,15.94,6,6.53.69,8.66,8,11.36,13.26,1.36,2.66,7.31,5.17-.86,5.93-4.79.44-7.16,2.64-10.07,4.83-2.16,1.61-4.58,3.33-.64,5.31,5.32,2.66,1.15,12.84,12.89,10.57.53-.1,2.64,2.51,2.7,3.89.29,6.7,1.93,13.85-.36,20-2.48,6.65-4.26,13.83-8.22,19.79-2.61,3.94-4.46,7.38-3.64,11.36,2.18,10.61-9.81,13.68-15.82,19.88-.8.82-4-.08-6,.21-4.88.71-11.12-2.31-14.43,1.83-1.93,2.41-1.13,6.33-1.24,9.58-.16,5,0,10.06,0,15.09,0,4.19-.81,8.52.24,12.54,1,3.69,4.37,6.91,5.86,10.57,1.22,3-.22,7.82,2,9.18,4.85,3,3.08,7.61,6.25,10.73,1.82,1.78,4.35,4.15,4.11,6.05-1.3,10.38,4.87,18.31,11.2,26.58,4,5.2,5.89,11.42,9.2,17,.58,1,3.51,1.52,5.28,1.43s5-1.57,5-1.89c-1.84-5.87,7.11-7.89,6.92-12.87-.12-3.07,1.67-4.34,4.79-5.26,5.41-1.6,10.76-3.33,16.14-5l16.61,14.1c-2.3,6.32,5,10.34,5.9,15.56,1.31,7.4.34,15.06.34,22.6,8,4.68,6.11,11.61,6.21,18,.11,7.54-1,15.22.32,22.6S1067.2,459,1065.65,465c-1.66,6.43.36,13.42-.61,20-.78,5.33-7.73,9-6.27,15.59,1.27,5.68.27,11.7.27,17.57v17.61c0,1.68.8,3.78-.16,4.95-2.73,3.34-5.52,7.14-9.53,9.18-3.63,1.86-7.66-.5-10.47-3.35A81.55,81.55,0,0,0,1032,541c-5.35.37-7.18,4.62-10.65,7-4.72,3.27-8.9,7-13.31,10.6-3.68,3-7.6,5.77-10.89,9-1,1-1.11,4.35-.41,4.64,10.29,4.11,3.66,13.53,9.94,19.65,5.07,5,7.49,12.53,11.95,18.41,3.05,4,2.8,9.24,8.24,12.57,2.32,1.42-7,2.79-3.43,6.87,1.66,1.91,4.29,4.11,4.12,6-.46,5.41,2.68,9,6.05,13.26,2.35,3,.07,8.18.55,12.34.56,4.71,7.94,7.18,6.35,13.05-1.09,4-1.54,8.74.11,12.45,2.3,5.16,7.84,9.4,5.92,15.62,7,4.9,6.24,11.49,6.43,18,.06,2.12,2.33,4.19,3.58,6.29,2.91,4.9,7.44,9.63,8.25,14.75s3.07,8.89,6.19,13.2a8,8,0,0,1-2.22,11.41c-5,3.15-2.82,9.34-8.6,12.41-1.6.85-.6,4.62-1.2,7-1.38,5.49,7.81,7.23,6.54,13.06-.82,3.82-1,9.53,1.76,11.67,5.68,4.4,1.73,10.24,4.7,13.61,3.79,4.31,6.51,8,5.9,13.29-.15,1.34,1.39,2.84,2.25,4.22,2.18,3.47,3.42,7.83,6.8,10.19,8.47,5.92-.49,14.19,5.9,20.94,4.29,4.53,9.3,10,9.92,16.67.44,4.7-2.8,9.85-8.36,12.33-4.21,1.88-13,.76-16.92-1.82-4.16-2.74-6.54-6-6.68-10.4,0-.61-1.37-1.19-2.11-1.78-1.14,1.13-3.39,2.39-3.23,3.38.9,5.53-3.77,12.07,3.11,16.46,6.62,4.23-1.2,11.9,6.5,15.53a4.5,4.5,0,0,1,2.11,1.79c.19.4-.57,1.36-1.2,1.71-6.52,3.6-9.42,10.6-19.16,11.41-9.33.78-12.1-5.27-17.55-8.61-.77-.48-1.47-1-2.21-1.55-1,1.34-2.8,2.68-2.82,4-.07,4-1.25,7.94,3.32,11.49,4.91,3.81,5,9.95.6,13.18s-1.8,8.89-6.4,10.41c-4.44,1.48-10,.77-15.07,1-6.76.34-8.12,2-7.62,8,.6,7.18,8.15,12.37,6.88,20.61-1,6.57,7.71,12.6,6.77,20.13,11.25,6.74,2.68,11.09-3,15.69-9.77,7.92-11.57,8-23.52,3.26-8.83-3.49-17.55-6-19.94-15.68-1.21-4.91-11.89-6.72-10.8-13.91-13.08-7.24-15.18-20.21-23.5-30-3.15-3.7-4.54-8.73-9.33-11.85-3.46-2.25-5.07-4.82-4.76-8.55.19-2.25-.27-5.83-2-6.64-5.46-2.55-2.23-8-6.45-10.6a33.93,33.93,0,0,1-13.35-15.67c-.12-.27-2,0-3,0,.31-7.53.36-14.41-8.44-20-4.9-3.12-8.51-9-9.77-14-1.16-4.75-5-6.89-8.11-9.9-.52-.5-1.63-1.12-2.13-1-.88.27-2.11,1.07-2.14,1.69-.25,4.73-2.81,9.79,3.32,13.62,5.87,3.66,10.49,7.88,8.76,14.69-.31,1.22,1,3.21,2.32,4.11,5.33,3.65,8.5,9.46,16.19,10.77,0,5,0,10,0,15V950.2c7.76,3.58,6.09,9.79,6.59,15.39,7.89,3.54,3.27,11.26,7.08,15.08,4.47,4.47,3.86,8.89,5.41,13.47,1.73,5.1,6.38,9.54,9.45,14.4,1.3,2,3,4.65,2.45,6.6-2.1,7.18,3.1,12.34,6.45,18.07s8.85,10.92,6.26,18c-3.44,9.44,9.65,16,6.91,25.34,9.44,3.55,2.2,12.58,8.77,17.2,6.35,4.47-.67,13.6,8.84,17.13,3.37,8.19-3.91,16.56-13.76,18.14-14,2.25-21.24-5.13-28-12-4.58-4.67-5-12-9.45-16.76a167.17,167.17,0,0,1-13.39-15.66c-2.89-4-2.69-7.56-3.8-11.4s-3.66-7.16-6.1-10.49c-2-2.73-4.92-5-7.17-7.68-1.7-2-3-2-4.43.27-.41.69-1,1.67-.71,2.22,1.92,3.55,4.5,6.91,6,10.55,1.24,3,0,7.85,2.2,9.1,5.14,2.88,2.65,7.75,6.23,10.76A13.11,13.11,0,0,1,903,1094c1.81,6.31-3.62,13.74,2.82,19.1s1.78,11.17,3.71,16.46c1.07,2.89,5.53,5.26,5.79,8,1,10.7,2.27,21.82-11.78,28.63.61,6.5-3.25,8.55-11,8-7.22-.51-14.59.32-21.79-.23-7.91-.6-16.76,2.71-23.6-2.41-6.43-4.82-13.79-1.44-20.57-2.53a9,9,0,0,1-2.63-.94c-5.76-2.94-11.09-7-17.37-8.57-6.51-1.59-14.47.55-19-5.56-8.17,2.38-10.94-7.63-19-5.4-3.84-5.18-10.4-3.82-16.21-5-6.35-1.26-12.31-4.49-17.82-7.58-4.84-2.72-12.11-1.89-15.15-7-10.91,3.28-17.8-7.61-28.47-5.29-1,.21-2.79.25-3-.07-4.63-8.65-18.39-1.37-23.59-8.84-9.43-1.78-17.15-8.45-28-6.25-1.71.35-5-.07-5.52-.92-4.57-7.81-16.21-.69-21.69-6.91-1.33-1.5-5.38-2.13-8.1-2-8.63.38-13.53-3.82-15.71-9.31-1.84-4.63-.93-9.9,5.41-13.12,1.72-.87,3-2.32,4.45-3.51l2.2-1.77c-1.56-.87-3.38-2.68-4.64-2.46-10.64,1.91-17.89-7.95-28.62-5.18-5.84-6.34-14.47-4.33-22.31-5.24-4.54-.53-8.53-3.7-13.09-4.65-3.9-.82-8.28,0-12.41-.22-6-.39-12.17-6.54-12.4-12-.29-6.77,6.26-13.06,14.12-13.1,21.82-.11,43.63,0,65.45,0h28c7-6.7,16.52-4.83,25.46-5,8-7.29,18.81-4.08,28.56-5.16,10.86-1.2,22,3.11,32.85-2.86,8.79-4.85,20-1.47,30-1.94,6.27-.29,8.66-6.71,16.17-5.35,5.93,1.07,12.4.25,18.64.21s12.38-.09,18.57-.31c.76,0,1.72-1,2.11-1.74.22-.4-.42-1.59-.89-1.68-14-2.67-20.85-12.59-30.36-19.69-11.43-8.53-24.64-16.46-32.52-26.89-9.81-13-24.42-21.84-35.65-33.31-6.94-7.08-15.35-7.15-26-7-.46,0,.83.3,1.29-.08a1.84,1.84,0,0,0,0-2.12c-1.45-1.65-3.23-3.72-5.43-.69C654,915,656,916.52,658.38,917.52ZM727.89,850a20.47,20.47,0,0,0-3-2.87,3.27,3.27,0,0,0-2.62,0,1.78,1.78,0,0,0,0,2.11,12.4,12.4,0,0,0,3.67,2.29c.23.1,1.25-1-6.53-4.48h2.78c0-.75.37-1.7-.07-2.2-1.45-1.66-3.23-3.73-5.42-.7C716.38,844.58,718.42,846.08,727.89,850ZM472.11,839.93a19.89,19.89,0,0,0-3-2.86,3.27,3.27,0,0,0-2.62,0,1.78,1.78,0,0,0,0,2.11,12.88,12.88,0,0,0,3.68,2.29c.23.1,1.25-1-3.76-4.48.16-3.48-1.92-5.16-20.77-14.23l7,5.64a10.27,10.27,0,0,0,2.22,1.74c1.69.73,3.53,1.22,5.3,1.82,0-2.52,1.08-5.49-.21-7.45-3.25-4.92-10.17-7.13-12.88-13.35-2.49-5.72-10.6-9.72-15.42-15-4-4.39-4.81-10.36-11-14-4.05-2.34-9.76-5.92-9.82-9-.16-8.15-11.86-9.17-13-15.94-1.23-7.5-10.38-9.81-14.75-15.2-1.57-1.94-2.42-4.28-4.07-6.16-4-4.57-10.51-8.59-11.88-13.56-1.84-6.71-8.44-9.09-12.85-13.35-4.64-4.49-10.16-8.39-15.39-12.46a4.57,4.57,0,0,0-3.46,3.05c-1.69,6.13,8.23,8.6,6.7,15.57-1.3,5.88,9.44,10.6,6.06,18.06-.15.33,4.62,1.87,6.8,3.19,4,2.41,10.53,4.79,11,7.68.73,4.83,4,7.24,7.3,10.3,11.28,10.38,25.7,18.25,33.64,31.45,4.28,7.12,14.15,12.06,21.49,18,.95,9.35,11.51,13,31.77,28.14C460,835.46,462.06,837.14,472.11,839.93ZM915,623.57a19.89,19.89,0,0,0-3-2.86,3.23,3.23,0,0,0-2.62,0,1.78,1.78,0,0,0,0,2.11,12.88,12.88,0,0,0,3.68,2.29c.23.1,1.25-1-6.54-4.48h2.78c0-.75.37-1.71-.06-2.21-1.45-1.65-3.23-3.72-5.43-.69C903.53,618.15,905.57,619.65,915,623.57Zm43.67-50.31a20.47,20.47,0,0,0-3-2.87,3.27,3.27,0,0,0-2.62,0,1.78,1.78,0,0,0,0,2.11,12.45,12.45,0,0,0,3.68,2.29c.23.1,1.25-1-6.54-4.48.93,0,2.22.29,2.68-.08a1.83,1.83,0,0,0,0-2.12c-1.44-1.66-3.22-3.73-5.42-.7C947.2,567.83,949.24,569.34,958.71,573.26Zm62.39,171.07a19.89,19.89,0,0,0-3-2.86,3.19,3.19,0,0,0-2.62,0,1.78,1.78,0,0,0,0,2.11,12.59,12.59,0,0,0,3.67,2.28c.23.11,1.25-1-6.55-4.52a6.68,6.68,0,0,0,2.68,0c.13-2.34.48-4.73,0-7-.24-1-2.21-1.82-3.56-2.54a4,4,0,0,0-1.92,1.59C1008.54,736.52,1008.6,739.45,1021.1,744.33Zm18.71,30.19a19.89,19.89,0,0,0-3-2.86,3.19,3.19,0,0,0-2.62,0,1.78,1.78,0,0,0,0,2.11,12.64,12.64,0,0,0,3.68,2.28c.23.11,1.25-1-7.46-4.47,1.76,0,3.11.3,3.6-.09s.09-1.48.1-2.26c.09-6.77-.56-7.64-6.82-7.62-1.62,0-3.28,1.11-4.82,1.84-.18.09.06,1.2.47,1.58C1025.47,767.38,1028.13,769.64,1039.81,774.52ZM900.29,489.82c.93,0,2.22.3,2.68-.08a1.83,1.83,0,0,0,0-2.12c-1.45-1.65-3.23-3.72-5.43-.69-.29.4,1.75,1.9,5.49,9.59-3.88,5.82,4.13,8.71,8.8,12.87a3.91,3.91,0,0,0,2.08-.73,5,5,0,0,0,1.57-2c2.26-5.64-6.43-7.51-6.63-12.91-.16-4.18-5.08-6-5.72-4C902.69,491.42,903.07,493.16,900.29,489.82ZM663.23,842H666c0-.75.37-1.71-.07-2.21-1.44-1.65-3.22-3.72-5.42-.69-.29.4,1.75,1.91,15.91,13.77,8.86,2.36,7.9,12.51,15.71,18.11,13.91,10,27,20.76,39.6,31.81,7.72,6.77,16.84,5.17,25.28,3.63,3.43-.62,8.48-4.14,9-9.17.62-6.4-4.28-14.53-11.91-14.65-8.09-.14-13.61-2.23-18.36-7-1.27-1.27-3.05-3.35-4.41-3.26-8.9.59-11.16-7.4-17.28-8.77-8.58-1.92-12.69-8.64-19.5-10.45-7.42-2-11.79-5.72-17-9.33a13,13,0,0,0-5.27-1.74,29.13,29.13,0,0,0-6.19,0c-.08,0-.45,1.88.07,2.34C668.86,847,671.88,849.26,663.23,842ZM996.14,985.85a19.89,19.89,0,0,0-3-2.86,3.19,3.19,0,0,0-2.62,0,1.78,1.78,0,0,0,0,2.11,12.64,12.64,0,0,0,3.68,2.28c.23.11,1.25-1-96.12-154.3-4.12,5.3-9.72,3.44-14.57,4-1.78.2-4.71,1.33-4.81,2.21-.25,2.21-.13,5.18,1.51,6.66,7.92,7.19,18.93,12.72,17.62,24.37-.12,1.07,2.65,2.41,4.2,3.52,4.71,3.36,8.68,6.76,7.56,12.65-.36,1.91,1.49,4.93,3.53,6.14,8.42,5,9,14.42,17.34,19.48,2,1.23,3.94,4.23,3.59,6.13-1.11,5.86,2.55,9.5,7.55,12.61,4.62,2.86,5.41,6.48,5.38,10.85,0,2.11,1.46,5.28,3.47,6.15,8.08,3.5,9.76,10.5,12.54,16,3.63,7.21,9.74,12.05,15.91,17.27,1.17,1,11.37,2.5,11.44,1.75.26-2.49,1.39-6.3-.13-7.29-5.57-3.63-6.7-8-6-13.2,1.19-9-10.58-15.87-6.54-25.6.56-1.34-2.64-4.21-4.81-5.68-4.83-3.28-6-8.19-9.11-12-4.89-5.9-6.58-13.54-14.89-17.78-5.85-3,7.57-4.28,1.66-9-4.6-3.65-8.93-9.17-9.47-14.13-.85-7.82-11.67-8.77-13.31-15.82-1.19-5.15-4.51-10.38-8.46-14.62-4.94-5.29-11.62-9.51-17.31-14.37C900.06,831.88,898.93,831.78,996.14,985.85ZM604,318.75c19.75,0,39.51-.29,59.24.16,6.32.15,9-3,12.84-5.61,2.34-1.57,3-3.08.51-3.51a113.21,113.21,0,0,1-22.11-5.65C646,300.89,634,306.9,625.94,299c-10.33-.13-20.66-.17-31-.45-2.89-.08-7.24-.07-8.39-1.46-5.87-7.11-19.39.37-23.86-8.54-8.32,0-16.7-.53-24.93.17-6.28.54-8.59-4.16-13.09-5-5.89-1.08-14,1.29-18-1.18-5.56-3.49-11.77-2.49-16.54-4.49-6.83-2.88-14.07-7.84-17-13.33-3.36-6.38,7.41-8.85,11.28-13.44,2.71-3.22,6.84-3.62,10.91-2.94a42,42,0,0,0,28.3-5.44c7.1-4.21,16.33-2.58,21.69-6.22,7.78-5.28,15.6-3.29,23.36-3.28a16.67,16.67,0,0,0,13-5.26,7.21,7.21,0,0,0,1.8-3.55c.09-.37-1.41-1.39-2.22-1.41-5.19-.13-10.56.6-15.54-.23-6.55-1.09-11.25-6.08-19.33-5.09s-16.59.29-24.91.2c-5.1-.06-12.25,1.29-14.91-.86-8.08-6.53-17.43-3.45-26.17-4-8.26-.55-16.63.1-24.93-.24-2.71-.11-6.22-1.06-7.83-2.64-4.39-4.29-12.47-6.31-12.61-13.38-.05-2.6-2.15-4.27-6.12-4.05-5.17.28-11-1.12-15.43.36-5.71,1.92-1.24,8-3.59,11.09-3.85,5-7.33,9.59-5.93,15.68-6.34,4.06-7.16,9.56-6.23,15.52-7.46,3.64-5.68,12-12.48,16,.75,6.65-10.59,10.5-6.44,18.11.43.8-1.69,2.74-3,3.87-3.55,3.06-7.67,5.73-10.91,9-6.72,6.75-9.77,15.2-15.12,22.65-2.74,3.82-1.38,9.53-2,14.38-.93,7.8,6.84,12.8,9.56,19.46,4.82,11.78,18.05,21.12,15.53,35.1-.24,1.33,1.19,2.9,2,4.3,4.62,7.71,12.2,14.54,11,24,7.94,5.44,7.49,14.59,13.47,20.57,6.94,6.92,2,18.69,15.12,22.82,1.15.36,1.89,2.81,1.83,4.26-.43,10-1.7,20.08,11.3,26.6,1.59.8.94,4.56,1.26,7,.86,6.29,9.79,10.59,6.59,18.13-.5,1.18,5.3,3.67,5.23,5.48-.26,6.76,9.77,10.7,6.94,17.93-1.22,3.13,2.38,4.37,4.44,6,4.3,3.46,9,6.61,8.87,12.19,0,.58,1.37,1.18,2.1,1.77,1.09-1.23,3.06-2.44,3.12-3.7.32-6.7,1.78-13.76-.26-20-2.55-7.81,4.86-12.11,7.17-18,3.23-8.23,18.23-11.42,28.45-7.56,1.27.48,2.05,2.73,2.12,4.18.18,4.11.27,7.6,4.23,11.32,4.17,3.93,8.36,10,7.71,14.64-.95,6.83,8.55,9.68,6.73,15.55-2.25,7.24,9.19,10.67,6.61,18.11-1.68,4.84-.63,10,5.74,13,4,1.9,6.94,8.73,10.55,6.23,4.89-3.39,10.84-3.64,15.83-6.31,8.71-4.67,19.26-7.12,27.89-12.26,20.74.94,33.73-16.29,54.63-15.25,1.44.07,3.07-2,4.56-3.09,3-2.26,5.78-6.21,9-6.47,6.4-.51,9.29-1.8,8.9-7.27a124.42,124.42,0,0,1,0-17.59c.3-4.11-3.36-5.9-6.28-7.94-2.06-1.44-5.37-1.66-7.83-2.82-5.07-2.39-9.23-6.31-16.17-5-6.62,1.22-9-7-16.12-5-4.1-4.34-9.48-5.78-16.14-5.14-1.66.16-3.59-1-5.28-1.71-2.11-.88-3.25-4.62-6.68-1.14-1.93,1.95-5.83,3.45-6.11,5.41-.22,1.6,4.73,3.32,5.42,5.42,1.81,5.42-2.82,11.83,2.76,16.67,6.7,5.82,2.79,12.63,3.46,18.94.39,3.71,3.26,5.68,5,8.47,3.9,6.27.84,13.24-6.12,17.07-6,3.32-16.15,1.34-21.24-4.29-1.11-1.22-1.53-2.84-2.37-4.23-3.42-5.69-8.65-10.95-6.5-17.95-9.78-3.44-3.18-12.2-8.71-17.25-6.92-6.31-3.42-14.32-3.1-21.42.26-5.73-5.29-8.57-6.39-13.06-.91-3.73-1.85-6.56-7.14-5.84-7.92,1.09-17-3.11-23.72,2.2-6.42,5.06-14.88.3-20.2,3.11-7.1,3.75-14.43,4.68-22.15,5.67-5,6.49-13,3.57-19.76,3.93-3.88.2-10.25.27-11.33-1.37-2.68-4.1-5.42-8.24-7.93-12.42-1.62-2.72-.17-6.59-.34-9.94s.8-7.39-1.27-9.55c-7.86-8.19-5.87-17-3.11-25.54.86-2.67,4.94-3.79.63-7.36-4.57-3.78-3.75-8.88-.3-13.46,1.22-1.61,6-2.54,1.56-5.35-6-3.77-5.67-10.24-2.5-13.26,4.64-4.44,5.07-8.63,5-13.58-.06-12.58,0-25.15,0-37.73,0-5.51-1-6.09-9.58-6.3-4.13-.1-9.51,1.18-12.1-.46-3.44-2.18-4.64-6.63-6.93-10-4.51-6.72,1.71-14.52,11.74-14.68a26,26,0,0,1,11.19,2.58c12.55,5.37,21.56,1.7,24.38-8.89.22-.8-.15-1.7.06-2.5,1.71-6.45,6.74-10.37,13.26-11.38,7.23-1.11,11.74,1.88,15.68,5.93,1.14,1.16,1.41,2.86,2.24,4.26,2.91,4.9,5.34,10.07,9.07,14.53,2,2.42,4.34,5.45,9.46,5.66,10.11.41,21.43-3,30.07,1.86,9.92,5.55,19.88,2.26,29.74,2.91,10.32.67,20.77.15,31.16.15Zm.62,296.87c-14.52,0-29,0-43.56,0-5.64,0-6.58,1.34-7.44,5.59-1.55,7.7,2.8,14,6.37,20.52-3.3,10.89,10.66,19.49,6.24,30.53a34.14,34.14,0,0,1,7.95,12.43c.28.8,3.54,1.38,5.31,1.23a12,12,0,0,0,5-2.17c.55-.36.58-1.57.38-2.31-1.82-6.68,2-12.74,8.63-14.3,7.55-1.77,13.57-4.87,16.72-9.48,6.52-9.52,21.66-3.89,28.4-11.86,14.64,2,30.79-4.66,44.08,5,10.82-1.49,20.17,3.35,26.61,8.18,6.88,5.16,15.82,6.64,22.35,11.79a50.81,50.81,0,0,1,15.23,20.08c3.19,7.21,8.29,10.77,17.79,10.33,1.85-.09,4.33.19,5.55,1.13a250.23,250.23,0,0,1,19.69,16c1.59,1.48.66,4.73.85,7.17a6.31,6.31,0,0,1,0,2.49,4.58,4.58,0,0,1-1.48,2c-6.57,5.35-13,10.85-19.92,15.87-1.92,1.38-7.07.59-8,2-5,7.33-16.78-.18-21.67,6.9-.71,1-3.39,1.41-5.24,1.65-6.75.86-13.21-.48-20.32,3.17-6,3.08-16.35.06-23.58,2.29a225.12,225.12,0,0,1-22,5.67c-9.06,1.83-10.46,10-4,15.29,7.29,5.94,14.83,11.7,21.93,17.8a31.05,31.05,0,0,0,15,7.29c3,.59,4.69,5.24,9,1,3.24-3.24,7.52-5.79,10.84-9,3-2.89,6.52-3.46,10.86-3.26a107.31,107.31,0,0,0,15.53,0c8-.82,17.7,3.4,23.37-2.24,3.08-3.08.12-9.71,1.41-14.47,1-3.63,7.65-5.53,6-10.51-2.07-6.24,4-10.75,8.62-11.69,6.16-1.24,9.8-5.56,15.58-6.13,3.38-.34,6.7-1,6.8-3.51.5-13.42,10.92-23.19,18.37-34.08.88-1.29.45-3.2.51-4.83.11-3.2.88-6.56-4.27-8.08-6.3-1.86-13.24-3.1-18.54-6.16-6.65-3.84-11.87-9.29-17.8-14-4.65-3.66-2.92-6.45.2-10.5,4.38-5.69,4.66-13.52,1.06-18.34a39.72,39.72,0,0,1-4.77-8.51c-1.51-3.49-6-5.77-6.42-10.52-.2-2.51-5-6.25-8.39-6.8-6.73-1.1-14.67-2.69-20.66.94-9,5.48-16,4.48-24-1.33-2.22-1.6-8.56.27-8.58-4.52,0-5.08-.34-9.39-5.86-13.24-6.64-4.64-10.18-1.84-15.43,1.45-2.66,1.66-7.81.88-11.84.93-8.3.11-16.6,0-24.89,0-11.19,8.72-25.16,3.84-37.88,5C615,616,609.77,615.62,604.59,615.62Zm108.47,427.69c-12.45,0-24.91-.1-37.35.16-1.19,0-2.91,2.2-3.29,3.57s.34,3.14,1,4.63c.27.68,1.6,1.72,2.14,1.61,6.21-1.28,9,4.66,13,4.74,7.74.14,10,5.19,14.88,7.79a20.4,20.4,0,0,0,8,2.55c11.84.69,24.41-2.12,34.76,5.14h21.79c5.84,6.28,14.34,5,22.32,5,7.26.07,14.52,0,21.78,0,6.23,0,12.63.74,18.64-.18,8.89-1.36,15.1,2.87,22.47,5,3.19.91,5.87,1.5,6.15,4.11a59.06,59.06,0,0,1,0,12.54c-.33,3.22-8.93,8.71-13.2,8.73-15.57.07-31.21.8-46.67-.2-14.75-1-30.83,4.88-44.13-4.8-7.26,0-14.83-1-21.71.26-8.51,1.63-11.87-6.16-19.28-5.27a9.27,9.27,0,0,0-2.64.9c-2.52,1.15-2.25,2.21.4,3.58,3.31,1.71,6.17,4.08,9.66,5.48,7,2.8,13.46,7.37,22.26,5.11,6,5.7,15.38,6.48,22.87,10,5.9,2.79,11.35,6,19.22,5.32,4.55-.43,6.85,6.27,12.93,4.74,7.15-1.79,10.28,4.54,16.11,5,6.94.54,11,7.58,19.22,5.14,8.77-2.6,13.71,5.82,22.32,5.15,9.25-.71,18.65-.24,28-.12,3.82,0,5.53-1.5,5.91-4.25.22-1.66-.58-3.55.14-5,4.82-9.7-8.27-16.65-6.1-25.52,1.63-6.66-5.72-10.13-6.33-15.54-.66-5.81-.09-11.71-.24-17.56,0-.62-1.19-1.41-2-1.78-8.11-3.52-.78-11.18-6.53-15.44-7.23-5.37-2.82-12.5-3.67-18.8-.89-6.61-.53-6.79-9-6.85-7.26,0-14.53,0-21.79,0H788.29c-7.26,0-14.73.87-21.73-.22-8.21-1.27-12.63,4.75-19.28,5.09C735.92,1043.73,724.47,1043.31,713.06,1043.31Zm109-623.25c-.32-5.84.5-10.31-1.3-13.91-2.51-5-6.9-9.45-10.76-14-3-3.46-4.12-3-6.77,1.82-1.93,3.54-5.08,6.84-6,10.52-.94,4-1.67,7.38-4.24,11.25-3,4.59-2.75,11.19-2,16.74.89,6.36-8.62,8.63-6.94,15.59s2.54,14.85-5.82,20.45c0,7.53.38,15.09-.25,22.59-.17,2-4.53,3.61-5.09,5.72-1.23,4.64-3.15,9.79,2.83,13.55,4.46,2.81-.56,3.65-1.54,5.35-.81,1.4-2.55,3.25-2,4.23,3.19,5.77,8.36,11,6.45,17.94,11.7,6.89,14,20,26.51,26.21,2.1,1,6.2,1.21,8.18.22,3.26-1.63,5.54-4.54,8.23-6.9-9.6-3.5-2.5-12.68-8.86-17.1-4.83-3.35-4.21-8-2.9-11.42,1.92-5.1,5.86-9.81,9.61-14.32,4.58-5.51,14.67-6.39,21.14-2.17,2.41,1.58,4.29,3.67,6.7,5.23,1.09.71,2.87.72,4.34,1.05.51-1.51,1.45-3,1.44-4.51,0-3.16-.22-6-2.45-9.24-5.13-7.45-10.91-14.6-10.59-24.28.19-5.49-5.44-11.49-9.69-16.59-5-6,1.58-13.38-4.35-18.61-3-2.68-2.91-6-4.65-8.51-2.34-3.41-7-5.05-.9-9.32C822.73,426.08,822.14,421.53,822.06,420.06ZM939.9,313.28c-1.66,1.18-4.91,2.35-5.43,4.06-3.3,10.92,5.74,23.13-5.28,33.4-.39.36,1.68,2.2,2.18,3.45,5.1,12.77,3.16,25.72,1.48,38.66-7.29,3.72.65,6.11.8,8.88.37,6.71,9.56,10.77,7,18-.39,1.13,1,3.41,2.34,4.06,10.15,4.91,9.65,16.1,19.54,21.25,1.9,1,2.15,4.19,2.86,6.43s.13,5.38,1.81,6.85c8.43,7.36,17.41,14.3,26.2,21.39,7.19-2.06,9.61,5.58,16,5.12,1-.07,2.58.19,2.91-.22.82-1,1.8-3.16,1.44-3.36-5.07-2.81-4.64-6.88-4.74-11.07-.15-6.35,2.71-13.49-6.07-18,2.56-7-3.53-12.09-6.15-18-2-4.46,2.74-10.25-2.66-14.1-6.82-4.87-2.5-10.92-3.74-16.35-.18-.78,0-2-.55-2.27-7.92-3.6-2.7-12-7-15-6.83-4.87-1.92-11.79-6.38-15.55-7.82-6.59-1.78-18.74-15-22.78-1.23-.38-2.34-2.78-2.16-4.12.72-5.33-.85-9.72-6.38-13,2.26-6.41-9-8.83-7.07-15.31C946,315.38,942.7,314.39,939.9,313.28Zm-486,101.48v15.09c0,6.71-.66,13.48.32,20.09.41,2.76,4.26,5.22,6.66,7.75,3.6,3.8,4.87-.42,6.51-1.54,4.67-3.17,10.44-2.18,14.74-1.26,10.36,2.22,16.55-5,25.33-5.9,2.83-.3,3-2.22.75-3.42-3.8-2.08-4.6-4.94-4.52-8.59.31-12.57.12-25.14.12-37.71,0-5.87-1.39-12,.35-17.53,2.2-7-9.79-8.65-6.94-15.69,1.18-2.91-14.45-26.56-17.73-29a14.93,14.93,0,0,0-7.67-3c-6-.21-6,3.73-5.33,7,1,4.91-4.88,7.27-5.82,10.61-1.81,6.37-.53,13.31-.53,20-9.88,5.31-5.61,13.48-6.12,20.56C453.49,399.66,453.9,407.22,453.9,414.76ZM653.37,676c-4.73,0-7.89.29-10.94-.06a21.37,21.37,0,0,0-18.61,6.28,125.42,125.42,0,0,1-13.13,10.65c-4.72,3.46-8,6.89-7.28,12.7.88,7.45.22,15,.22,22.53,8.29,5.59,6,13.27,6.24,20.46,5.58,2.82,5.25,8.33,8.58,12.12.8.9,3.7.73,5.65.79a4.55,4.55,0,0,0,2.57-1c10.23-7.82,18.59-18.71,36.25-14.1,3.76-5,9.62-5.51,16.06-5,5.17.38,9.2-1,13.9-3.36,4.5-2.31,11.85-2.17,17.63-1.44,10.76,1.35,18.86-3.79,28.12-6,.88-.21,2-1.11,2.06-1.73s-1.27-1.68-2-1.69c-9,0-18,.05-27.07.1-4,5.46-10.57,4-16.53,4.07-6.21.09-12.8-1-18.55.27-8.58,2-11.39-6.9-19.25-5.32-10.41,2.08-16.7-3.12-23.8-8.22-7.88-5.64-5.73-12.58-4.37-18.43,1.27-5.43,11.15-4.8,16.55-8.16,3.25-2,10-.31,15.18-.38,9.22-.14,18.45-.24,27.65-.72.92-.05,2.21-2.59,2.3-4s-1.22-4.19-1.76-4.17C675.9,682.76,665.6,672.19,653.37,676ZM585.23,401.33h-.32c0,9.2,0,18.41,0,27.61,0,5,.68,5.21,6.15,3.12,9.65-3.66,18.82-10.49,30.19-7.38,9.93,2.7,13.94-6.63,22.42-5.3,4.08-4.35,9.51-6,16.08-5,4,.63,5.35-2,7.5-3.6,6.34-4.69,6.61-5.27,1-12-1.56-1.86-1.76-2-.41-3.75,3.49-4.59,3.07-4.77-.11-7-1.56-1.09-2.81-3.2-4.45-3.37a92.66,92.66,0,0,0-15.36-.4c-6.55.4-8.66-6.49-16.16-5.39-5.47.8-11.57,1.57-17.11-3-5.26-4.29-13.76-.71-20.56-2.11-1.72-.35-2.76-2.58-4.52-3.29-1-.41-4.12.49-4.13.83C585.19,381.32,585.23,391.33,585.23,401.33Zm112,58.3v22.63c7.7,1.29,13,6.56,21,7.84,3.43.56,6.16,4.12,9.11,6.39s5.41,5.74,9,6.85c4.38,1.36,9.73,1.28,14.51.82,1.17-.12,2.28-4.11,2.5-6.38.4-4.17.92-8.51-.13-12.52-1-3.69-5-6.89-5.74-10.57-1-4.88-.26-10-.26-15.05,0-6.7.13-13.41-.1-20.11a5.46,5.46,0,0,0-2.17-4.2c-5-3-2.7-5,.77-7.24a4.28,4.28,0,0,0,1.47-2c1.3-3.24-1.88-6-5.91-6.82-10.74-2.06-17.59,8.7-28.59,5.37-.4-.12-1.4,1.12-2.16,1.69-8.42,6.27-17,12.32-13.37,23.28C698.08,452.74,697.2,456.28,697.2,459.63ZM577.13,593.77c4.7.79,7.48,1.64,10.27,1.66,22.72.11,45.45.36,68.17-.09,8.65-.17,18.71,3.16,25.52-4.47,7.16-.13,14.32-.34,21.48-.39s10.77-6.82,19.19-5.36c5.35.92,9.42-5.41,5.63-7.82-10.55-6.68-13-18.31-24-24.55a20.21,20.21,0,0,0-4.18-1.46c-4.44,7.79-15.44,1.17-21.71,6.7-4.2,3.7-11.7,5-17.72,7.31-7,2.74-13.45,7-22.11,5.22-3.37,3.32-7.25,6.09-13,4.79-7.13-1.62-9.67,4.66-15.94,5.52s-11.5,5.16-19.21,5C586,585.79,582.24,590.34,577.13,593.77ZM633,67.17c-11.37,0-22.92,1-34.07-.3C588.68,65.69,583,73,574.15,73.41c-.45,0-1.32,1.26-1.12,1.66.35.71,1.33,1.71,2.09,1.73,8.2.24,16.47.82,24.62.3,9.37-.61,14.85,7.54,25.47,5.61,8.08-1.47,18.66-3.32,25.21,4.58,6.91.78,15.14-2.49,20.61,1.89,7.37,5.89,15.64,2,23.36,3,6,.76,12.34.21,18.53.24,7.66,8.55,18.88,3.75,28.5,4.87,3.61.43,6-1.54,5.5-4.29-.37-2-3.33-5.58-3.78-5.45-9.21,2.71-14.69-4.27-22.33-5.33-3.24-.45-5.31-1.84-5-5s-.2-6.69.16-10c.34-3.15-1.75-5-4.92-5-10.19,0-20.38.47-30.57.77-4.89,6.41-12.8,3.83-19.59,4.07C651.63,67.4,642.32,67.17,633,67.17ZM582.94,253.34H558c-6.95,6.71-16.55,4.54-25.4,5.29-1.52.13-3.16,3.59-3.65,5.68-.27,1.15,1.69,3.78,2.75,3.81,7.12.25,13.54.22,19.56,5,2.64,2.09,10,.34,15.13.36,3.1,0,8.18-.85,9,.26,7.1,10,22.89-.32,30,8.71,6,.36,12.16,1.39,18.11.95,13.52-1,25.71,1.67,36.35,8.05,3.89,2.32,7.5,2,11.42,2.13,5.21.24,7-1.2,7.19-5.68.16-5,1.25-10.64-8.84-9.4-3.51-4.51-11.57-3.54-14.89-7-6.56-6.81-17.13-7.93-24.58-13.14-11.84,3.63-20.7-5-31.65-5C593.32,253.32,588.13,253.34,582.94,253.34Zm350.9,792.11c-9.31-5.77-3.74-17.91-15.48-22.66-4.59-1.85-.83-4,1.13-5.16,2.5-1.53,2.63-2.21.31-3.68-7.63-4.82-12.5-10.62-10.63-19.1.7-3.17.91-7-.66-9.76-2.78-5-6.84-9.52-10.84-14-2.9-3.21-8.22-5.12-7.11-10.23,1.54-7.08-4.44-11-11-13-10.22-3.07-17.3-8-20.07-16.39-1.51-4.57-5.57-3.47-9.41-4.17-2.51-.45-5.44-4.62-6.5-4.22-4.58,1.72-2.55,5.7-2.87,8.85-.08.82,11.56,17.72,12.64,18.36,9.27,5.43,12.69,14.15,18.35,21.55,3.49,4.56,4.09,10.93,8.45,14.57,4,3.37,2.19,8.33,6.32,10.53,5.72,3.06,3.28,9,8.32,12.62,2.84,2,.09,9.32,2.92,11.14,7.07,4.53,2.89,11.25,6.56,15.56,4.44,5.22,11.43,9,13.07,15.84.33,1.36,2.66,2.52,4.29,3.54a13.53,13.53,0,0,0,4.4,1.7c.45.09,2-1.27,1.87-1.71C926.34,1050.92,931.43,1048.67,933.84,1045.45Zm113.07-163a59.1,59.1,0,0,1-3.79-5.52c-1.16-2.11-3.29-4.75-2.56-6.51,3.37-8.16-5.49-13.44-6.92-20.49-.69-3.36-7.74-5.64-5.72-10.48,2.46-5.92-8-7.91-6.13-12.93,2.5-6.74-7.71-10-6.16-15.46,2.13-7.58-8.67-10.84-7.54-17.67-8-8-11.83-17.8-17.25-26.85-1.89-3.15-4.51-5.22-7-7.64-.82-.8-3.6-1.52-4.17-1.1-4.61,3.35-9.33,6.72-13.08,10.67-1.31,1.38-1,5,.34,6.51,2.44,2.66,3.47,5.67,5.22,8.3,3.29,4.91,9.13,8.83,14.4,12.73,3.45,2.55,4.73,5.43,3.76,8.78-2.2,7.65,2.69,12.46,9.16,17.11,1.93,1.38,2.61,4.1,3.32,6.32s-.25,6.06,1.36,6.91c5.8,3.05,5.14,8.52,8.15,12.55,4.09,5.5,9,10.42,13.13,15.69,4.49,5.7,7.8,12.35,11.52,18.62.85,1.42,3.14,2.24,4.24,3.61,1.72,2.18,3,2.27,4.44-.09A26.89,26.89,0,0,0,1046.91,882.46Zm-553-336.84c-.73.6-2.1,1.18-2.11,1.78q-.36,21.32-.36,42.62c0,1.48.62,3.82,1.82,4.27,5.85,2.2,2.29,8.07,6.58,10.45,6.58,3.66,1.69,9.72,4.67,13.51,2.74,3.49,5.48,6.18,5.92,10.75s3.34,8.88,6,13c3.59,5.55,6.43,12.94,12.34,15.63,10.17,4.65,2.81,12.85,8.47,17.65a39.94,39.94,0,0,1,4.35,3.59c1.69,2,3,2.36,4.45.84.58-.62,1.41-1.35,1.4-2-.09-3.27,1.06-7.48-1-9.6-3.35-3.44-5.54-6.43-5.3-10.95.26-4.88,1.66-11.33-1.49-14.35-4.75-4.56-2.74-9.52-5.07-13.55s-4.75-8.61-7.9-12.41c-2.36-2.86-4.73-5.08-4.17-8.74.9-5.88-1.42-10.54-5.52-15.84-3.27-4.23-.5-11.41-.78-17.27a6.06,6.06,0,0,0-2.51-4.11c-9.32-6.53-13-15.63-17.63-24.32C495.79,546.06,494.63,545.92,493.89,545.62ZM322.77,208.05c3.1,0,6.23-.2,9.3,0,11.31.86,19.81-1.28,22.23-11.7.48-2.07,4-3.58,5.51-5.63,2.27-3,0-8.09-3.71-7.69-11.53,1.28-19.82-7.34-31.13-6-11.65-8-24.92-3.53-37.65-3.1-.53,0-1.5,1.6-1.45,1.63,10.91,7.06,3.23,17.14,6.41,25.43.5,1.31,10,7.05,11.88,7.06C310.37,208.07,316.57,208.05,322.77,208.05Zm415,10.07c11.41,0,22.82-.13,34.23,0,6.11.09,6.24-3.07,6.27-6.51,0-2.51.07-5,0-7.53-.15-4.86-1.46-6.11-6.64-6.13-10.37,0-20.85-.74-31.09.19-10.79,1-22.73-4.29-32.35,3.5-10.15.45-20.37.45-30.4,1.57-3.43.39-6.26,3.73-9.58,5.44-2.72,1.41-2.14,4-.21,3.33,7.08-2.28,12.2,11,19.76,1.36.62-.8,5.05-.94,5.74-.19,5.12,5.49,12.12,5.17,19.39,5C721.2,217.94,729.5,218.12,737.8,218.12Zm179.9,441L892,639.38c-1.09-9.15-10.78-13.23-17.45-19-7.7-6.67-15.82-13-24-19.29-1.14-.87-4.62-1.13-5.64-.41a12.83,12.83,0,0,0-4.12,5.55C837.47,614,851,618.5,846.93,626.5c4.61,5,5.75,11.44,11.39,16.14s19.54,12.26,26.61,13.29a13.91,13.91,0,0,1,5.09,2C898.21,663.05,906.65,661.05,917.7,659.08ZM753.35,395.8c0,6.66,0,13.32,0,20a2.61,2.61,0,0,0,1.22,2c6.7,3.27,4.84,8.57,4.94,13.35.13,6.66-.13,13.32.19,20,0,1.08,2.2,2.09,3.38,3.13.73-.59,2.1-1.18,2.09-1.76-.1-4.45,4-7.06,6.19-10.49,2.12-3.27.62-8.09.65-12.23,0-5,1-10.16-.25-14.93-1.78-6.59,5.53-10.1,6.36-15.45,1-6.29-2.43-13.44,6.37-17.87,0-6.66-.22-13.33.2-20,.08-1.23,2.55-2.52,4.18-3.51,2.19-1.33,2.2-2.59-.66-3.49-1.78-.57-4.58-1.16-5.77-.46-4.71,2.78-9.4,5.28-10.8,10.9-1.12,4.53-5.56,8.68-12.48,9-3.73.19-5.69,1.55-5.79,4.31C753.2,384.15,753.35,390,753.35,395.8Zm93.22,604.45c-1.47-1.19-3.06-2.29-4.38-3.57-3.14-3-8.7-4.87-7.74-10-8.09-8-9.62-18.93-18.65-26.48-.52-.43,0-1.62-.07-2.46-.45-6.69,3.83-15.31-10.59-16.41-.88-.07-1.94-4.37-1.73-6.63.34-3.76-1.48-6.28-4.88-8.49-1.61-1-2.73-2.78-4.5-3.41s-4.06-.42-6.08-.24c-3,.27-3.39,2.78-.05,5.06,6.68,4.55,11.23,9.46,9.26,17.13-.83,3.21.08,6.69-.2,10-.29,3.49.45,6.31,4,8.79,4.7,3.28,8.54,7.39,13.37,10.51,7.38,4.77,9.73,11.94,13.34,18.24,1.29,2.24-3.92,6.7-5.52,10.33-.51,1.15.49,3.65,1.74,4.24,6.44,3.07,17.89.25,21.2-4.88A18.86,18.86,0,0,1,846.57,1000.25ZM560.47,147.67v-.28h27.91c4.39-6.38,12.55-3.93,19-5.49,1.21-.29,2.23-2.64,2.29-4.07a5.21,5.21,0,0,0-2-4.23c-1.32-.88-4.09-.28-5.58-1.1-8.76-4.81-16.7-8.85-26.56-.48-3.44,2.92-11.66-1.23-16.73,3.69-4.54,4.4-11.72,1-17.61,1.88-1,.15-2.54-.33-3,.09-1.31,1.13-3.22,2.72-3,3.88.41,2.13,2,5.71,3.45,5.84C545.87,148,553.19,147.67,560.47,147.67ZM791,623.33c6.91,5.58,14,11.37,21.19,17.07,7.8,6.18,19.62,7.89,26.4,15.36.6.67,4,.14,5.75-.42,2.83-.89,2.27-1.9.88-3.53-7.08-8.35-11.1-18-17.13-26.81-2.36-3.45-5.77-8.55-9.38-9C808.92,615,797.85,613.68,791,623.33Zm71,178.46c3.11,0,6.23,0,9.35,0,5.24-.08,6.59-1.3,6.74-6.08,0-1.67,0-3.35,0-5-.24-8.77-5.68-14-16.11-13.87-7.5.11-13.81-.85-19.39-5.08-.92-.7-4.86-.28-5.56.58-1.5,1.88-3.38,5.49-2.34,6.46,5.93,5.51,8,12.53,12,18.72,1.51,2.33,2.22,4.35,5.93,4.31C855.78,801.76,858.9,801.79,862,801.79Zm92,25.15c-6.34.09-9.55,3.89-6.61,8,3.39,4.73,6.15,10.3,11.13,13.61,6.66,4.42,5.41,12.34,12.85,15.87-.59,9,10.3,11.53,15.39,17.33a4.8,4.8,0,0,0,2.07-.8,4.22,4.22,0,0,0,1.52-2c1-3.77-2.64-5.7-4.75-8.43-2.5-3.21-2.52-7.3-6.51-10.41-2.55-2,6.78-3.44,3.3-6.74-2.78-2.64-3.73-5.27-4.91-8.45-1.3-3.49-4.76-6.37-6.53-10.31C968.85,830,962.57,825.17,954,826.94Zm-87.34-75.47a60,60,0,0,0,9-.77c1.14-.22,2.71-2.94,2.25-4-1.58-3.63-4.82-6.89-5.82-10.58-1.08-4-.05-8.32-.63-12.45-.13-.93-3-2.13-4.8-2.29-6.25-.59-12.53-.56-16.23,4.65-2.39,3.37-3.88,7.25-6.8,10.24s-4.62,5.83-1.52,8.57,5.74,7.12,12.09,6.67C857.31,751.29,860.45,751.47,866.68,751.47ZM986.93,499.6c-1.27,2.4-2.54,3.78-2.66,5.22-.55,6.31,2.22,13.13-6.13,18-1.46.85.06,4.75-.26,7.21-.55,4.19,4.09,5.39,6.6,7.73,4.82,4.51,5.68-1.85,8.66-2.25,3.93-.51,7.41-.88,10.64-3.44,6.18-4.88,7.69-12.45,2.2-17.07C999.86,509.86,993.51,504.9,986.93,499.6ZM734.63,380.17a47.56,47.56,0,0,1,0-5c1.92-11-8.32-15.93-17.14-21.06-5.67-3.29-13.4,1.54-14.22,7.39-1,7.29,2.51,12.05,8.49,17.41,5.19,4.66,13.45,3.66,17.53,8.57,1.77,2.13,3.53,2.35,4.31-.12A30.44,30.44,0,0,0,734.63,380.17Zm45.25,436.71c-5.2,0-10.85-1-15.45.31-4.12,1.2-7.07,5-10.54,7.68,2.94,2.37,5.8,4.8,8.88,7,.58.41,2,.07,3.06.06,5.07-.05,9.42,0,14,3.3,5.6,4,13.67,1.7,20.62,1.27,2.66-.16,3.08-2.36,1.11-3.36-5.34-2.71-5-6.92-4.51-11.06.36-3.07-1.51-4.82-4.75-5.15C788.24,816.57,784,816.88,779.88,816.88ZM560,413.64h-.56V396.29c-8.06-3.48-4-10.38-6.85-15.23-.81-1.37-5.29-1.33-8.08-1.93l-7.93,13.81c9.28,4.18-.2,15.42,10.94,18.89-3.4,6.67,9.69,8.74,6.67,15.39-.15.32,1.85,1.73,2,1.64,1.38-.77,3.54-1.7,3.64-2.7C560.19,422,560,417.82,560,413.64Zm341.26-110c1.94-.23,3.88-.45,5.82-.7.15,0,8.49-16.88,8.51-17.07.78-7-3.18-14.94,6.11-20.47,1-.59,0-3.18.15-4.84.38-6.18-1-6.68-8.28-7.42-7.61-.79-11.9,2.76-15,6.72-2.65,3.41,3.51,4.68,5.7,6.83,7,6.85,7,11.87-.61,18.86a50.37,50.37,0,0,1-4.36,3.52c-4.68,3.37-1.79,7.76-2.22,11.66C897,301.61,899.75,302.68,901.22,303.66Zm-229,57.59c-.07-6.84-.42-7.16-8.14-7.28-2,0-4.09,0-6.13,0-7.16,0-14.7-1.16-21.38.28-9.37,2-14.3-5.1-22-5.18-3.07,0-5.52,1.94-4.64,5,.42,1.46,1.26,4,2.17,4,7,.57,14.08,1.21,21,.78,7.49-.47,10.52,7.35,19,5.41,5.56-1.28,12.25-1.16,16.1,4.06,1.35-.71,3.41-1.21,3.86-2.19C672.74,364.69,672.25,362.9,672.25,361.25Zm361.83,60.65c0,8.23-.27,16.48.33,24.68.08,1.1,4.46,2.45,7,2.81,1.42.21,4.69-1.42,4.66-2.15-.35-6.95,4.06-14.75-5.38-20.37-1-.57,0-5.06,1.64-6.34,5.69-4.32,5.87-7.83.14-12.24-1.75-1.34-1.44-4.36-2.32-6.55-.28-.7-1.67-1.78-2-1.66-1.46.46-3.85,1.3-3.88,2.06C1034,408.72,1034.08,415.31,1034.08,421.9ZM971.7,480.3c-.55-1.46-.59-3.31-1.74-4.32-4.84-4.23-11.63-7.57-14.63-12.46-3.29-5.36-8.49-10.21-9.23-16.72-.22-1.9-4.3-3.36-6.12-5.31s-3.19-2.37-4.33-.49c-.83,1.35-1.89,3.34-1.24,4.42,6.18,10.28,13.91,19.92,18.73,30.8,2.46,5.56,12.18,3.39,16,8.15C970,483,970.84,481.66,971.7,480.3ZM747.11,553.92c0-6.83.26-10.95-.15-15-.13-1.32-1.85-3.45-3.13-3.61-4-.47-8.47-1-12.09,0-4.53,1.29-4.28,5.6-3.15,8.44,2.92,7.31,6.16,14.66,13.59,20.06.64.47,1.6,1.25,2.1,1.11.87-.22,2-1,2.11-1.65C746.84,559.27,747,555.23,747.11,553.92ZM915.55,346.4c0-6.62.35-13.26-.34-19.82-.11-1.09-4.66-2.33-7.31-2.62-1.44-.16-4.54,1.43-4.61,2.35-.43,5.76-1.46,11.8.12,17.29,1.72,5.94,8.62,10.79,6,17.85-.14.39,1.51,1.75,2,1.65,1.48-.36,4-1.12,4-1.82C915.71,356.33,915.55,351.36,915.55,346.4ZM672.25,452.29c0-4.23.13-6.69,0-9.13-.19-2.94-6.89-5.78-9.12-3.45-5.24,5.5-11.93,5-18.92,5-.66,0-2.26,2.7-1.81,3.23,5.89,6.73,16.19,7.7,24.32,11.57.88.42,4.26-.9,4.72-1.92A14.14,14.14,0,0,0,672.25,452.29Zm218.36,70.83c-.09-9.38-5.43-19-13.5-26.66-1.9-1.82-3-2-4.35.23-.41.67-1.06,1.57-.8,2.13,1.94,4.26,5,8.33,5.92,12.7,1,4.76.2,9.78.28,14.69a2.53,2.53,0,0,0,1,2.07,12.8,12.8,0,0,0,5.14,1.67c1.74,0,4.49-.61,5-1.6A14.17,14.17,0,0,0,890.61,523.12ZM440.44,163c5.46-.32,11.52-.49,17.49-1.21,1-.12,2.05-2.65,2.05-4.07s-1.21-4.06-2-4.08q-16.54-.42-33.1,0c-.78,0-2,2.65-2,4.07s1,3.92,2,4.08C429.78,162.53,434.83,162.66,440.44,163ZM873.92,354.83a22.91,22.91,0,0,0-2,4.24c-1,4.08,5.34,4.84,6,7.76.87,4,.22,8.15.22,12.24,0,2.45-.47,5,.2,7.32.33,1.14,2.89,2.72,4.27,2.62,2.69-.2,5.33-1.35,7.84-2.34.43-.16-.08-1.57.2-2.32,2.89-7.7-9.08-12.29-6.41-20,.41-1.2-.69-3.07-1.77-4.21a48,48,0,0,0-6.42-5.22C875.64,354.59,874.64,354.84,873.92,354.83ZM491.16,62.13h-15.3c-2,0-4.27-.4-6.06.15-1.13.34-1.83,2-2.25,3.24-.12.36,1.28,1.51,2.08,1.58,8.61.79,18.36-2.62,25.23,4.93.62.68,6.07-.32,7.81-1.73A15.1,15.1,0,0,1,513.34,67c.7,0,2.18-1.37,2-1.62-.69-1.16-1.77-3-2.8-3.06C505.44,62,498.29,62.13,491.16,62.13Zm415,679.34c-.71.58-1.94,1.09-2.06,1.74-1.46,7.85-3.35,15.78,6.21,21.67,3.34,2,9.19,2.45,10.25,0,.86-2,1.5-5.12.2-6.46-4.71-4.87-12.25-8.11-12.56-15.39C908.13,742.52,906.82,742,906.11,741.47ZM313.54,238.24c-1,0-2,0-3,0-4.41.19-7.79,3.36-6.29,6.12,2.26,4.14,7.07,7.14,7.39,12.26.15,2.36,2.09,1.9,4.19.1,4.15-3.56,8.21-6.59,7.28-12.36S322.22,238.24,313.54,238.24ZM878.12,444.53c0-2.51,1.22-6.54-.2-7.28-7.43-3.88-5.12-12.62-13-16a10.25,10.25,0,0,1-2.22-1.75c-1.1,1.22-3,2.38-3.15,3.65-.49,4.93-.89,9.77,5.26,13.35,4,2.31,8.36,5,7.27,10.15-.11.52,2.5,1.43,3.85,2.16C876.66,447.4,877.4,446,878.12,444.53ZM935.77,183.1c5.09-.3,10-.53,14.93-1a2.81,2.81,0,0,0,2-1.68c.11-.47-1-1.38-1.77-1.67-3.41-1.21-7-2.07-10.35-3.43-8.66-3.58-8.86-3.61-16.84,3.45-.63.55-1.77,1.26-1.64,1.69a3,3,0,0,0,2,1.69C928,182.63,932,182.83,935.77,183.1ZM809.5,200.41c0,.82,0,1.65,0,2.47.27,3.94,3,5.89,7.63,5.13,3.15-.51,5.43-1.8,4.88-4.95a45,45,0,0,1-.06-4.93c-.24-3.94-3-5.89-7.63-5.13-3.15.51-5.51,1.81-4.86,4.94A12,12,0,0,1,809.5,200.41Zm93.58,351.05c1.16-6.07-6.31-7.51-9.36-11.32-1,1.26-2.75,2.44-3,3.79-1.09,5.86,5.94,7.63,9.24,11.31Zm-140.52-283c2,0,4.24.4,6-.14,1.16-.35,1.92-2,2.39-3.19.14-.36-1.28-1.59-2-1.62a92.75,92.75,0,0,0-12.14.07c-1,.09-1.88,2-2.35,3.18-.14.36,1.23,1.52,2,1.62A51.29,51.29,0,0,0,762.56,268.43ZM447.66,787.87c.34-5.23-3.2-7.73-9.06-6.1-1.14.32-2.66,2.66-2.3,3.07a51.22,51.22,0,0,0,6.19,5.22c.69.55,1.41,1.08,2.11,1.62Q446.15,789.78,447.66,787.87ZM921.79,580.29c-.28-3.88-2.3-5.33-7.68-4.82-1.67.15-3.16,1.54-4.74,2.36.67.57,1.32,1.15,2,1.71a39.06,39.06,0,0,0,4.27,3.37,23.71,23.71,0,0,0,4.2,1.57C920.5,583.08,921.15,581.69,921.79,580.29ZM846.93,307.47l-3.12-3.82c-1,1.28-3.07,2.63-2.91,3.8.29,2.15,1.87,4.18,2.91,6.27Zm-62.39-2.6c0-.81.33-1.75-.07-2.41a34,34,0,0,0-3.05-3.84c-1,1.27-3.06,2.63-2.9,3.8.29,2.15,1.86,4.18,2.9,6.26Q783,306.78,784.54,304.87Zm191.27-87.55c3.12-1.48,3.24-6.44.12-8.31a2.87,2.87,0,0,0-2.08-.12c-3.18,1.4-3.27,6.4-.14,8.27C974.19,217.45,975.1,217.28,975.81,217.32Zm8.79,458c-1.33-1-3.43-3.54-4.44-3.29-3.37.86-3.34,6.21-.21,8.08a2.86,2.86,0,0,0,2,.12A52,52,0,0,0,984.6,675.28Zm17.79,45.38,3.62,5.65c1-2.08,2.61-4.12,2.91-6.26.15-1.17-1.87-2.53-2.91-3.8ZM706.22,180.38c-5.23-1.25-7.86-2.3-10.53-2.36-1.55,0-3.15,1.52-4.72,2.36,1.57.84,3.18,2.39,4.72,2.35C698.37,182.67,701,181.62,706.22,180.38Zm126,188,2.22-1.79a21.66,21.66,0,0,0-4.19-1.57c-.51-.1-1.35,1-2,1.57Zm82.42-141.95-2.22-3.24c-.69.56-2.06,1.24-1.95,1.65a14.9,14.9,0,0,0,1.95,3.38ZM620.12,817.61l-4,1.79c.7.56,1.54,1.66,2,1.57a21.41,21.41,0,0,0,4.19-1.57ZM790.78,150.19c-.69-.56-1.54-1.67-2-1.58a22.37,22.37,0,0,0-4.19,1.58c.7.56,1.54,1.66,2.05,1.57A21.41,21.41,0,0,0,790.78,150.19Z"/><path d="M141,337.16c-1.83,2.52-8,2.62-10.31.09a1.58,1.58,0,0,1-.14-1.67c1.73-2.56,7.93-2.64,10.25-.12C141.15,335.85,140.94,336.58,141,337.16Z"/></svg>