<svg id="Layer_1" data-name="Layer 1" xmlns="http://www.w3.org/2000/svg" viewBox="0 0 1200 1200"><title>BB_Artboard 14</title><path d="M593.59,784.94c92-14.42,91.4-12.34,90.89-12.35-6.42-.21-9.94,6.49-16.93,4.61-6.13-1.66-9.72,3.27-14.83,3.77-5.52.54-11.18.12-16.79.12-3.08,6.62-11.73,1.93-16.51,5.32a16,16,0,0,1-5.93,2.4c-6,1.21-13-2.23-18.21,1.85-4.95,3.88-11.81,0-15.53,2.38-7.12,4.51-14.92,2.47-22.21,3.86s-14,5.11-22.08,3.65c-5.37,5.18-13,4.75-19.54,3.61-6.78-1.18-8.26,6-15,4.38-4.38-1.06-9.5-.15-14.28-.12-5.08,6.27-12.95,3.31-19.67,3.67-3.54.19-5.63,1.47-8.17,3-1.41.89-4.3.71-6.33.33-1.84-.35-3.43-1.61-5.12-2.47-3.13,5.51-10.45,1.38-14.62,4.19a3.27,3.27,0,0,0-1.11,3.38c1.19,2.2,3.35,4,4.61,6.23,2.19,3.8,2.89,8.6,6.24,11.39,4.14,3.45,1.4,8.18,3.82,10.36,3.8,3.43,3.58,8.11,7.57,11.32,1.74,1.41,1.9,4.78,1.49,7.11-.78,4.45,1.67,7.27,5.45,9.93,1.71,1.21,3.89,2.8,4.12,4.38.54,3.76-.64,7.8,4.41,10.23-1.17,4.35,5.26,6.18,5.25,9.86,0,4.07,7.11,5.52,4.95,10,8.13,2.47,2.66,9.35,6.63,13.37,3.21,3.26,7,7.15,7.46,11C495,947.87,506,956.35,510.07,967.3c6.69,3,.08,9.79,6.5,13.6,3.57,2.11,5.14,7.31,6,11.33.67,3.3,1,6.22,4.51,8.27-1.22,4.36,5.26,6.17,5.23,9.86,0,4.06,7.13,5.52,5,10.06s3.52,6.63,5.17,9.93a166.84,166.84,0,0,0,17.17,27.24c2.83,3.67-1,8,3.18,10.59,3.92,2.44,3.36,5.5,3.31,8.67-4,.47-5-2.71-7.48-4.15-5-3,.66-8.77-5-12-3.59-2.06-8.12-4.48-6.92-9.25-4.87-1.9-3.45-6.9-6.87-9.33-3.69-2.63-1.34-6.17-2.77-8.84a48.5,48.5,0,0,0-9.22-12.41c-3.26-3.09-5.91-5.69-5.1-10.08.72-3.89-6.58-5.54-4.92-10-6.37-7.49-10.58-15.87-15.64-23.92a24.22,24.22,0,0,1-3.57-8.59c-.58-2.85-3-5.45-4.59-8.15-2.26-3.78-3.6-8.27-7-11.17-4.06-3.45-1.06-7.47-3.23-10.68-2.53-3.73-7.66-7.1-8-10.83-.63-7.21-5.61-12.48-8.88-18.55s-6.5-12.18-11.34-17.6c1.31-4.76-6.59-6.66-5.23-12.07.75-3-1.94-7.18-4.58-9.87-3.7-3.76-5.5-7.48-4.61-12.13-5.65-5.06-8.2-11.53-11.47-17.56-3-5.45-9.21-10-7.89-16.88.15-.8-1.83-2.73-2.58-2.65-9.11,1-19-2.82-27.42,2.74-.51.33-2.21-.45-3.32-.8-2.06-.66-5.31-2.41-6-1.91-7.32,5.65-16.26,3.54-24.62,3.67-14.41.22-28.85-.29-43.23.23-5.9.21-8.81-2.42-11.69-5.31a4.54,4.54,0,0,1-.3-5.08c5.4-6.38,13.83-9.76,22.09-13,3.21-1.25,7.51.62,11-2.11,2.56-2,6.4-3,9.78-4.21,2-.74,4.66-2,6.31-1.46,7.93,2.41,12.57-4.62,19.69-4.15.52,0,1.71-1.07,1.59-1.27-.51-.92-1.36-2.39-2.13-2.41-7.2-.18-14.41-.11-21.62-.11-8.8,5.95-19.33,3.57-29.24,3.84-9.6.26-19.22.14-28.83,0-2.56,0-4-1.33-4-3.75s1.43-3.25,3.8-4c5.77-1.85,5.74-1.92,2.3-4.84a17.72,17.72,0,0,1-1.68-1.39c-1.21-1.35-3.69-3.51-3.28-4a24.7,24.7,0,0,1,6.81-5.22c1.1-.61,3.14,0,4.72-.13,9.8-1,20.59,2.86,29.24-3.87H360.4c6.41,0,12.82.14,19.22-.06,2.52-.08,4.4-1.36,3.83-3.8s.52-4.7-1.46-7.32c-5.38-7.17-9.57-14.9-14.12-22.45-1.73-2.85-3.21-5.29-3.82-8.51-1.15-6.09-7.31-9.59-13.4-12.11-3.18-1.31-9.33-1.59-11.6,0-7.69,5.43-16.39,3.24-24.71,3.57-7.51.3-8.94-1.45-7.67-8.39.2-1.11,1.37-2.93,2.24-3,4.76-.32,10.69,1.2,14.07-.58,4.19-2.2,7.69-3.62,12.71-3.63,9.42,0,9.27-.26,9.39-7.1.07-3.95.26-7.76-4.64-10.14,2.49-5.14-7.7-6.73-5.09-11.91-2.84-3.59-6.41-7-8.28-10.84-1.65-3.44-4-6.46-6-9.67-2.35-3.73-3-8.56-6.39-11.35-4.22-3.47-2-7.32-3.57-10.61-1.32-2.71-5.66-4.41-4.65-8.16-5.45-3.78-6.21-9.6-9.49-14.33,2.87-5.66-7.44-8.22-4.91-14,1.28-2.92-2-4.65-4.33-6.24-3.9-2.66-6.14-5.57-5.27-10,.77-3.92-6.66-5.53-4.88-10-3.32-2-3.42-5.84-5.48-7.75-3.64-3.38-3.09-6.85-4.24-10.43-1.28-3.95-4.46-7.6-7.35-11.1-2.52-3-1.86-7.54-6.71-9.44.29-4.5.58-9-4.88-12,2-4.47-3.61-6.65-5.31-9.89-2.39-4.57-4.68-8.9-5.17-13.86,0-.44-1.15-1.2-1.61-1.13-.65.1-1.67.85-1.64,1.28.5,7.94-4.76,16.36,3.59,23.75,1.62,1.44.52,5,.51,7.52,0,4.44-.25,8.45,4.46,12.29,2.55,2.08.16,6.69,3.25,10.52,3.41,4.22,3.72,10.22,6.51,15.24,1.09,2,1.4,5.93-2.14,6.59-1.68.31-6.2-3.06-6.36-4.93-.44-5.13-3.4-9.27-5.3-13.86-1.45-3.48-1.56-6.87-4.84-10.19-2.42-2.43,1.61-7.67-3.77-10.31-.6-.3-1.32-1-1.34-1.46-.11-3.89.07-7.79-.1-11.67-.16-3.69.54-7.14-3.28-10.71-2.46-2.3-1.25-7.26-1.45-11-.32-5.77-.44-11.54-.64-17.31-6.75-3.68-2.71-9.5-4.45-14.09-1.28-3.38-5.41-5.79-4.7-10.14.75-4.55-6.3-5.69-7.62-9-3.41-8.59-13.19-15.32-11.43-25.36.53-3-1.89-4.57-4-6.45-5.81-5.05-9.85-10.81-10.46-17.9-.09-1.15-.57-2.89-1.53-3.27-4.41-1.73-1.72-6.2-5.06-8.1-4-2.32-2.39-5.73-3.11-8.73-.4-1.66-2.14-3.27-3.71-4.55-3.37-2.74-7-5.19-5.84-9.78.29-1.08-.07-2.88-1-3.46-7-4.4-9.62-11-13.32-17-3.3-5.38-6.41-10.83-9.64-16.22-1.18-2-4.13-4.6-3.41-5.68,1.44-2.17,3.37-3.81,3.65-6.65.23-2.28,5.65-3.34,7.58-1.85,3.48,2.68,8.43,5,9.85,8.34,2.18,5.1,8.15,7.93,10,12.19,2,4.52,5.31,7.5,9,10.61,4.45,3.73,9.11,7.3,13.55,11,3.7,3.12,4,7.72,8.3,10.95,5.49,4.15,7,11,13.75,14.78,5.85,3.24,5.22,10.33,11.85,13.59,3.88,1.9,1.86,9.13,10,7.88,2.24,3.79,5,7.44,6.51,11.42.79,2.13,1.56,3.63,4.13,3.67,3,.05,6.63.21,9-1a28.93,28.93,0,0,0,8.52-6.76c3.28-3.64,7.56-3.79,12.48-4.1,2.59-.16,5.19-2.46,7.36-4.15,3.36-2.61,2.71-6.26-1.69-7.16-3.2-.66-4.88-.94-6.34-4.07-2.32-5-4.31-10.54-10-14.16a4.5,4.5,0,0,1-1.67-1.38A92.17,92.17,0,0,0,252,350.22c-3-4.13-6.93-7.91-10.06-12.21-4.2-5.73-5-13-11.67-17.49-6.17-4.09-6.27-11.58-13.47-15-1-.47-.82-2.29-1.59-3.29-3.28-4.23-4.08-9.05-5.83-13.66-1.61-4.24-8.44-6.79-10-12.22-.57-2-3.39-3.72-3.51-6.6-.28-6.31.67-9.81,3.5-10.13,4.89-.54,6.86,2.64,9.59,4.75,4.64,3.57,9.46,7.06,13.52,11.05s10.64,5.86,12,11.51,8.51,7.34,11.85,11.6c1.17,1.49,1.32,3.55,2.62,4.93,5.05,5.39,6.64,12.82,14.45,16.55,5.86,2.8,4.52,9.13,10,12.32a24.79,24.79,0,0,1,10.63,11.92c1.65,3.83,7.28,5.67,8.75,10.75,1.23,4.24,9.34,6.41,9.77,12.25.07,1,1.92,2.29,3.28,2.68,6.47,1.85,2.44,12.4,13.53,10.43,5.87-1,12.55,1.95,17.8-3.12,1.42-1.36,6-.44,9-.91,1.25-.2,2.28-1.31,3.41-2a17.38,17.38,0,0,0-1.71-1.37c-5.11-3.11-7-8-10.5-12A88,88,0,0,1,329,350.09c-3.06-4.86-6.37-9.68-11.33-13.87-3.82-3.22-3.65-9.54-7.47-12.76-3.2-2.69-9.4-3.07-9.54-8.3-5.17-2.38-2.7-8.7-8.49-10.78s-3.42-8.32-8.49-10.77c-5.73-2.76-4.89-9.33-10.26-12.05-5.81-2.95-4.6-9.08-10-12.41-4.72-2.92-10.39-6-10.36-12-5.68-5.07-13.42-8.86-15.29-16.28-10.71-6.66-14.84-17.79-25.43-24.58-2.73-1.75-3-3.85-.22-6.48a11.27,11.27,0,0,0,3.55-6.71c.16-.86,4.81-2.3,5.8-1.71,4.41,2.65,10.35,5.4,11.79,9.12,2.08,5.35,6.7,8.3,10.69,12-1.81,7,9.62,7.9,9.87,14.25.21,5.3,10.27,6,9.7,12.36-.12,1.35,2.65,2.94,4.23,4.31,4.88,4.22,9.83,8.39,14.75,12.57-1.37,6.78,10.83,7.52,9.76,14.31-.14.87,1.77,1.92,2.65,2.94,3.92,4.53,12.28,6.5,11.9,13.52,5.09,4.12,9.85,8.59,15.39,12.27,4.49,3,3.18,8.19,8.25,11s9.2,7.18,13.73,10.84c4,3.22,8.37,6.15,11.77,9.71,4.17,4.36,6.33,9.8,11.93,13.53,6.7,4.47,12.77,9.56,19.11,14.37,8,0,16.08-.47,24,.16,6.05.47,10.12-2.11,14.87-4,6.32-2.53,7.48-4.29,3.39-7.53-7.81-6.18-10.91-15.28-20.14-20.67-1.75-1-1.46-4.63-1.61-7.07s-1.58-3.17-4.12-3.76c-2-.46-5.28-1.57-5.29-2.41,0-2.94-1.57-4.88-4.17-6.47-8.37-5.11-7.33-15-15.34-20.11s-10.21-14.13-18.53-19.19c-.85-.52,0-2.65-.76-3.55-4.69-5.51-6.49-12.74-11.68-17.32-5.4-4.75-6.51-11.44-13.07-15.3-5.15-3-6.34-8.36-8.37-12.71-1.58-3.38-5.62-5.44-5.82-9.9-.17-3.67-4.8-7.4-8-10.72a74.53,74.53,0,0,0-10.15-8.28c-3.78-2.7-6.45-5.54-5.29-9.94.84-3.18-4.87-4.4-4.44-6.11,1.28-5.22-5.95-6.92-6.05-11.93-.07-3.63-5.33-7.09-7.89-10.81-2.16-3.13-3.77-6.51-5.6-9.78-2.13-3.83-4-7.75-6.4-11.48-5-8-5-8.63,4.52-16.74,4.84,4.22,10.7,7.93,14.17,12.77,3.07,4.29,14.42,1,11.91,9.25l15.29,12.38c5.1,4.13,11.16,7.75,15,12.53s6.78,9.69,12.16,13.38c-.06,6,5.91,8.7,10.29,12.06,5.14,4,4.79,10.85,12.13,13.73l7-6.35c1.75-.66,2.67-1.17,2.83-1,4.59,3.61,9.11,7.29,14,11.26,20.4,0,41.17-.15,61.93.12a13,13,0,0,0,10.06-3.95l5.1,3.66c7.71-7.21,18-2.47,26.94-3.65,10.52-1.39,21.94,2.87,31.81-3.78,1.9-1.27,6.22-.18,9.43-.18,22.42,0,44.84.12,67.26-.08,6-.06,12.93,2.14,17.62-3.24a12.44,12.44,0,0,1,3.22,1.71c3.28,2.94,7.52,1.57,11.21,1.44,2.87-.1,3.65-3.9,7.63-3.79,8.8.22,17.61.07,26.42.07,8.46,7.67,19.48,3.25,29.26,3.69,16,.72,32,.2,48,.2,4.8,0,9.76.6,14.38-.15,5.66-.92,7.3,4.34,12.46,4.14,9.59-.36,19.22-.16,28.83-.08,7.65.07,15.8-1.58,22,3.87,5.61,0,11.21-.1,16.82,0,5.33.13,11.33-1.47,15.06,3.4l5.1-3.2c5.24,5.63,12.78,3.36,19.51,3.61,6.4.24,12.82.24,19.22,0,6.8-.25,14.48,2.06,19.63-3.84,6-.69,12.88,2.23,17.69-3,8.57-.13,17.18-.67,25.69-.15,2.37.15,5,3.21,6.4,5.4.73,1.19-.66,3.53-1.7,5.08-3.8,5.63-3.95,6.16,1,9.4,4.7,3,10.77,4.07,15.79,6.65a78.09,78.09,0,0,1,7.35,4.41c1.17.78,2.72,8.52,1.72,9a16.81,16.81,0,0,1-6.07,2c-5.32.45-11.33-1.31-15,3.59-5.54.12-11.09.45-16.62.32-4.89-.11-6.8,3.05-9.26,5.28s-1.2,4.62,1.47,6.56c4.27,3.1,2,7.24,2.19,10.89.22,3.9.1,7.38,4.42,10.36,1.68,1.15-.24,5.3,3.91,5.78,3,.35,7.58.71,9-.65,3.83-3.57,8.68-2.24,12.88-3.39s7.24-4.57,12.55-3.72a5.86,5.86,0,0,0,4.16-1c3.52-3.61,10.6-2.37,13.46-6.69,6.4,0,12.82-.22,19.21.08,3.76.17,9.15-1.91,10.92,1.53a14.94,14.94,0,0,1,.52,11.3c-.94,2.58-4.86,5.8-8,6.22-4.61.62-6.58,3.13-9.54,5-1.53,1-1.49,2.22.7,2.68,3.67.77,9.2-.11,11,1.66,6.1,6.1,16.12,7.41,22.39,13.36,3.2,3,1.59,7.7,6.49,9.63a2.18,2.18,0,0,1,1.27,1.47c.08,1.25.39,3.26-.4,3.65-8.57,4.23-.76,12.51-6.7,17.29q-14.47,11.67-28.89,23.38c-6.1-1.25-8.44,3-11.48,5.6-3.33,2.89-8.94,1.71-11.85,5.34-2.13,2.67-5.9,4.44-8.25,7s-9.1-.15-9,4.32c.06,4.25-2.66,9,2.25,12.8s1.35,8.58,2.36,12.83c-5.86,3.69-5,9-4.76,14s-2.1,10.48,4.7,14c0,3.88-1.73,8.72.5,11.41,2.81,3.4,4.44,6.26,4.51,10.3.07,4.23-1.76,8.62,3.29,12.56,4.68,3.66-2.16,10.47,3.69,14.17,5.25,3.33-.46,9,4.88,12.14,1.49.88,2.1,3.21,2.32,5,.53,4.31-1.49,9.18,4.59,12.1l.3,11.57c9.8,4.65-.19,15.49,9.61,20.13.94,4.29-2.55,9.29,2.07,12.87,5.05,3.92,3,8.65,2.44,12.73-.79,6.1,8.34,9.67,5.1,15.93a17.51,17.51,0,0,1,5.26,12c.13,2.25,4.77,4.69,7.95,6.28,1.13.57,4-1.12,6.05-1.78,1.13-.36,2.89-1.29,3.3-1a128.33,128.33,0,0,1,10.17,8.25c.29.27-.87,1.95-1.75,2.63-2.19,1.69-3.78,4.28-7.67,3.78a17.3,17.3,0,0,0-2.39,0c-3.21,0-7-.12-6.41,3.65.88,6-3.53,13.08,4.71,17.85.38,5.46-1.73,11.38,4.43,15.78L1049,676c-2.62-2.44-5.43-4.43-9.91-4.22-.64,0-2-1.94-2-3-.25-3.88-.87-7.9.07-11.64,1.71-6.74-8.5-11-5.22-18a44.64,44.64,0,0,0-5.75-2c-5.37-1.41-8.12,3-12.44,3.76-4.54.75-10.17-.44-13.67,1.34a21,21,0,0,1-10.74,2.68c-4.8-.11-9.63.17-14.41-.09-4-.21-5.31,2.41-7.56,4-.82.59-1.56,2.49-1.36,2.6,6.06,3.25,3.25,8.21,3.6,12.45.2,2.42.27,5.75-1.47,7.11s-5.82.81-8.86,1.14a8.41,8.41,0,0,0-2.15.48c-2.22.88-2.22,1.75-.24,2.76,5.26,2.66,2.79,6.94,3.18,10.58.6,5.53,5.19,9.63,11.73,9.44,6.79-.19,14.52,2.22,19.64-3.82,4.49.44,9.57-1.45,13,2.77,3.3,4,8.11,5.18,14.19,5.35,2.91.08,5.66,3.69,8.48,5.69-4.87,1.9-3.07,8-6.93,9.08-4.87,1.4-11.07-.29-14.61,4.36l-19.18.09c-4.32,5.55-11.24,3.29-17.26,3.86-1.38.13-3.65,1-3.75,1.66-.24,1.7-.23,4.42,1,5.09,6.25,3.37,7.15,9.53,11.73,13.7,2.52,2.28,7.11,3.86,5.81,7.68-.77,2.25-3.29,4.06-4.61,6.23-3.42,5.62-6.17,6-11.09,1.37-1.47-1.39-2.91-2.53-3.63-4.64a35.06,35.06,0,0,0-6.72-11.31c-3-3.51-8.14-5.78-8.5-10.84-.11-1.55-1.57-.63-3.34.19-7.49,3.49-8.19,3.84-14.43.49-3.85-2.07-8.82-3-10.85-1.65-7.69,5.22-16.33,3.33-24.7,3.61-7.23.24-11.1,3.25-7.72,8.08,4.43,6.33,2.68,15.11,11.86,19.47a4,4,0,0,1,2.09,3.1c-.15,4-.11,7.75,4.76,10.12-.9,3.72,2.2,5.82,5,8.06-2.37,5,7.5,6.74,4.88,12-2.12,4.29,4.24,6.09,5.19,10s3.71,7.67,4.93,12c1.12,3.92,5.29,7.42,4.22,12.12,5.12,2.45,4.06,7.74,7.93,11,4.13,3.52-.67,10.14,6.28,13.59,1.42.71-.11,5,.27,7.51.71,4.84-4.28,6.57-7.56,9-.87.65-5.65-.38-6-1.33-2.59-6.35-7.5-11.74-10.56-17.87-1.94-3.89-3.28-8.72-6.9-11.17-9.88-6.67-14.21-15.94-20.19-24.49-2.21-3.16-2.51-6.92-6.66-9.52a50.15,50.15,0,0,1-20.49-24.19c-4.66-2.64-2.77-8.62-8.48-10.79-4.84-1.83-3.36-6.84-6.83-9.35-4.9-3.53-9.25-7.1-7.43-13.17.18-.6-2.07-2.46-2.93-2.35-7.49.92-16.06-3.14-22.43,3-4.68.25-9.36.45-14,.75-3.26.21-5.68,3.73-3.49,5.83,7.38,7.06,8.21,17.56,18.58,23A96.71,96.71,0,0,0,835.12,803c-1.22,4.86,6.67,6.81,5.71,11.79-.23,1.21,1.87,2.72,2.89,4.1-4.24,1.61-2.74,5.69-5.17,8-2.11,2-12.86.95-12.6-.88,1-7.09-8.77-8.25-10.59-14.17-1.35-4.37-7.87-7.62-11.73-11.59-1.29-1.33-.93-3.72-2.24-5-4.8-4.8-6.17-11.63-13.18-15-5.17-2.52-4.82-7.66-8.48-10.8-3.86-3.29-7.86-6.48-11.9-9.62a8.56,8.56,0,0,0-3.8-1.88,6.76,6.76,0,0,0-4.27.8c-1,.69-1.87,2.57-1.38,3.26,3.37,4.72,4.85,10.21,10.2,14.18,3.83,2.82,9.72,5,8.88,10.56,4.2,2.54,5.59,5.94,4.83,10.07-.6,3.24,3.2,4.19,5.17,6,4.55,4.23,11.7,7.28,9.22,14.43,5,5.37,7.76,11.63,11.24,17.63,1.91,3.3,7.58,4.46,8.1,9,.41,3.63,4.83,5.78,5.78,9.78s4.54,7.86,8.27,10.66,4,6.68,6.76,9.46c2.14,2.17,3.31,4,3.22,6.8,0,1.73.44,4.42,1.83,5.06,6.75,3.1,8.07,9.27,11.24,13.92,3,4.41,9,9.11,6,15.43,7.74,3.12,1.65,11.22,8.11,14.78,1.81,1,1.84,2.4-.41,2.65a101.58,101.58,0,0,1-14.18.41c-1.08,0-3-1.6-3-2.36.3-3-1.69-4.69-4-6.52-5.75-4.51-12.12-8.7-16.8-13.86-4.51-5-7.39-10.91-13.79-14.79-5.09-3.08-4.47-9.4-10.22-12.12-6.51-3.07-7.12-9.5-11.9-13.52-4.44-3.73-9.23-7.22-13.46-11.1-1.35-1.23-.75-4.06-2.18-5-4-2.55-3.24-7.45-6.59-9.42-7.34-4.32-7.29-12.83-15.16-16.41-6.07-2.75-5.57-9.21-10.34-12-5.6-3.28-5.49-8.79-9.84-12.48-4.13-3.51-9.94-5.81-11.16-11.82-.93-4.61-9.77-6.06-9.74-12.34,0-1.83-4.54-3.47-6.37-5.55-3.17-3.61-7.26-4.55-12.4-4.11-3.16.26-6.38,0-102.15,15.57-90.89,14.23-89.37,12.09-87.53,11.89,4.7-.52,9.74-.84,14.3,0,5.79,1.06,7.46-4.69,12.42-4,7.26,1,13.14-2.39,19.67-3.63,6.81-1.29,14.29-.26,21.48-.3,1.53,0,3.9.22,4.46-.44,3.25-3.88,8.06-4,12.69-3.32,5.49.83,8.22-3.06,12.45-3.87,5.82-1.12,11.77.88,17.69-3.33,4.6-3.28,14.2,1.89,19.1-4.43l19.09-.16c4.31-5.38,11.07-3.72,17.18-3.88,3.19-.08,6.39,0,9.58,0-.37-3.84,3.05-3.42,6.15-4s5-4.27,3.08-5.82c-2.92-2.34-3.78-5.13-5.25-8s-5.65-4.48-8.09-7c-3.06-3.16-4.45-.13-6.94.4a58.76,58.76,0,0,1-16.24.95c-5.94-.43-8.2,5.37-14.87,4.34-5.63-.88-12.84-2.34-17.34,3.13-5.51.16-11.09-.06-16.52.56-5.87.67-10.06,5.3-17.26,4-5.07-.89-12.17-1.05-15.84,1.18-6.1,3.72-12.1,1.65-18,2.52a3.61,3.61,0,0,0-1.74,1.24c-4.26,4.39-10.28,1.83-15.44,2.65s-8.71,4.06-14.78,4.17c-10.54.21-22.18-3.78-31.56,3.57-5.6,0-11.42.8-16.72-.21-6.54-1.25-9.13,4.39-14.84,4.18-8-.31-16-.31-23.95,0-8.32.3-15.28,6.2-24.41,3.93-1.9-.47-4.38,2.74-3.22,4.14,5.4,6.53,7.53,14.47,13.78,20.62,2.24,2.22,5.93,3.73,8,1.87,3.77-3.44,8-3.4,12.79-3.42,7.1,0,14.2-.31,21.3-.48,4.54-5.44,12.25-4.45,17.24-2.94C491.46,802.8,495.68,792.6,593.59,784.94ZM708.05,539.81c.72,0,1.71.23,2.07-.06a1.43,1.43,0,0,0,0-1.64c-1.11-1.28-2.48-2.88-4.17-.54-.23.31,1.34,1.48,4.22,2.24-.12,2.7,1.48,4,60.65,85.15.61-.5,1.19-.94,1.73-1.41q4.62-4.11,9.22-8.24c-4.79-1.93-4.32-6.36-6.51-9.5-3-4.33-5.67-8.62-10.32-12.1-2.71-2-6.62-3.47-6.81-7.39-.26-5-8.8-6-9.26-10.39-.56-5.49-6.09-7.21-9.55-10.43a156.79,156.79,0,0,0-15.25-12.35c-3.16-2.27-4.19-5-5.16-8-.23-.7-2.57-1-3.93-1.4,0,.64,0,1.29,0,1.94-.35,4.54-.68,9,5,11.94,3.48,1.82,5.15,4.5,4.74,8.15a5.78,5.78,0,0,0,2.17,5c8.25,5.25,9.64,13.73,15.13,20.24,2.53,3,2,7.47,6.79,9.37s4.49,6.3,6.59,9.46c4,6,7.85,11.71-40.45-66.06C715.12,541,713.52,539.71,708.05,539.81ZM655.2,602.08c.71,0,1.71.22,2.06-.06a1.42,1.42,0,0,0,0-1.65c-1.12-1.28-2.49-2.87-4.18-.53-.22.31,1.35,1.47,8.64,4.5a15.1,15.1,0,0,0-2.31-2.21c-.44-.28-1.38,0-2.1,0,0,.58-.29,1.35.06,1.69a9.77,9.77,0,0,0,2.83,1.77C660.41,605.62,661.2,604.79,655.2,602.08ZM570.85,403.61q.2-4-4.8-3.89c0-1.76.61-3.74-.19-5.2-.65-1.18-3-1.75-4.62-2.59q.19-4-4.8-3.89c0-1.79.92-4.2-.16-5.27-4-4-7.7-8.53-19.95-13a7.89,7.89,0,0,0,1.68,1.32c1.28.54,2.67.91,4,1.35,0-1.91.93-4.37-.19-5.61-2.73-3.05-6.34-5.59-9.75-8.19-.75-.57-2.17-.55-3.28-.8-.27,1.73-1.52,4-.61,5.08,2.17,2.58,5.35,4.6,13.83,9.52,0,1.79-.93,4.2.16,5.27,4,4,7.7,8.52,14.25,10.29-.12,2.7,1.48,4,4.8,3.89,0,1.76-.61,3.74.2,5.2.65,1.18,3,1.75,4.61,2.59-.12,2.69,1.48,4,9.22,6.15a15.17,15.17,0,0,0-2.32-2.21c-.43-.29-1.38-.05-2.1-.05,0,.58-.29,1.35.07,1.69a9.64,9.64,0,0,0,2.83,1.77C573.92,407.15,574.71,406.32,570.85,403.61Zm-93.43-66.16c.71,0,1.71.23,2.06-.06a1.41,1.41,0,0,0,0-1.64c-1.11-1.28-2.48-2.88-4.18-.54-.22.31,1.35,1.47,4.23,2.24-.12,2.69,1.48,4,19.22,17.15-.09-1.25.42-3-.38-3.68-3.69-3.34-7.7-6.44-11.71-9.53-.41-.32-1.53-.05-2.32-.05v1.93c0,.07,6.57,13.15,6.61,13.16,1.5.16,3.13.68,4.47.38s2.23-1.44-11.08-15.47C484.49,338.65,482.89,337.35,477.42,337.45Zm376.92,21.62c0,.57-.28,1.38.08,1.67a2.55,2.55,0,0,0,2,0c1.57-.9,3.55-2,.66-3.38-.39-.19-1.82,1.09-8.32,7.31a6.22,6.22,0,0,0,2.21,0c1.2-.55,3-1.24,3.2-2,.71-3.6-3-1.66-4.33-1.63-1.6,0-3.15,1.35-4.73,2.11C846.36,363.62,847.57,364.16,854.34,359.07ZM321,415.28c0-1.75.61-3.73-.19-5.19-.65-1.19-3-1.75-6.75-2.59.71,0,1.7.23,2.06-.06a1.44,1.44,0,0,0,0-1.65c-1.12-1.27-2.49-2.87-4.18-.53-.23.31,1.34,1.47,4.23,2.24,0,1.76-.61,3.73.19,5.2.65,1.18,3,1.74,9,4.85a15.66,15.66,0,0,0-2.31-2.22,2.49,2.49,0,0,0-2,0,1.38,1.38,0,0,0,0,1.63,9.91,9.91,0,0,0,2.83,1.77C324.07,418.82,324.86,418,321,415.28Zm-33.63-42.8c0-1.76.61-3.74-.19-5.2-.65-1.18-3-1.75-4.62-2.59.13-2.69-1.48-4-4.8-3.89,0-1.75.61-3.73-.19-5.2-.65-1.18-3-1.74-6.77-2.62a5.06,5.06,0,0,0,2.06,0,19.21,19.21,0,0,0,0-5.41c-.19-.78-1.71-1.41-2.74-2a3.09,3.09,0,0,0-1.48,1.23c-.92,2.38-.87,4.65,4.34,6.16,0,1.75-.61,3.73.2,5.2.65,1.18,3,1.74,4.61,2.58q-.18,4,4.8,3.89c0,1.76-.61,3.74.2,5.2.65,1.18,3,1.75,4.61,2.59-.12,2.69,1.48,4,14.56,13,.68-4.63-4.57-6.22-7.43-9a2.74,2.74,0,0,0-2.24,0c-.4.32.07,1.25-.11,1.86-1.5,4.9,4,6.47,6.74,9.35,1-.7,1.93-1.41-6.72-11.28C292.3,373.67,290.69,372.38,287.37,372.48Zm418,315.21c0-1.75.61-3.73-.19-5.19-.65-1.19-3-1.75-4.61-2.59,0-1.76.61-3.73-.2-5.2-.65-1.18-3-1.74-7-2.58.8,0,1.91.25,2.3-.07s-.07-1.25.12-1.86c1.49-4.91-4-6.48-6.75-9.35-1,.7-2.58,1.3-2.78,2.12-1.14,4.74,4.46,6.23,9.5,9.16,0,1.75-.61,3.73.19,5.2.65,1.18,3,1.74,4.62,2.58,0,1.76-.62,3.73.19,5.2.65,1.18,3,1.74,4.61,2.58-.12,2.7,1.48,4,4.8,3.89,0,1.76-.61,3.74.2,5.2.65,1.18,3,1.75,22.9,21.6a29,29,0,0,0-1-3.08A35.09,35.09,0,0,0,719,700.72a18.17,18.17,0,0,0-4-1.35c0,1.9-.8,4.16.19,5.63,1.44,2.13,4.53,3.5,6.26,5.56,2,2.4,3,5.46,5.22,7.68.86.85,4.05.14-11.67-18.87,0-1.76.61-3.73-.19-5.2-.65-1.18-3-1.75-4.62-2.59Q710.39,687.55,705.39,687.69ZM986.08,302.11a17.18,17.18,0,0,0,2.74-1.88,1.41,1.41,0,0,0,0-1.63,2.49,2.49,0,0,0-2,0,8.35,8.35,0,0,0-2.18,2.3c-.1.14.92.78,4.32-4.09-.3.41-.07,1.67,0,1.67a36.33,36.33,0,0,0,6.68,0c1-.15,1.75-1.38,2.43-2.22a3.05,3.05,0,0,0-1.51-1.19C993.54,294.27,990.74,294.31,986.08,302.11ZM789,761.63c1.36,0,2.4.24,2.78-.06s.07-1.15.08-1.75c.06-5.23-.44-5.91-5.26-5.9-1.25,0-2.52.86-3.71,1.43-.14.07,0,.93.36,1.22,2,1.8,4,3.55,13,7.33a15.26,15.26,0,0,0-2.32-2.22,2.47,2.47,0,0,0-2,0,1.38,1.38,0,0,0,0,1.63,9.77,9.77,0,0,0,2.83,1.77C795,765.17,795.73,764.35,789,761.63ZM364.25,372.48c.77-6-2-10.15-11.77-11.71a5.25,5.25,0,0,0,2.06,0,18.84,18.84,0,0,0,0-5.41c-.19-.79-1.71-1.42-2.74-2a3,3,0,0,0-1.48,1.22c-.92,2.38-.87,4.65,4.35,6.16-.78,6,2,10.15,14,13.94a14.72,14.72,0,0,0-2.32-2.21,2.45,2.45,0,0,0-2,0,1.4,1.4,0,0,0,0,1.63,9.77,9.77,0,0,0,2.83,1.77C367.32,376,368.1,375.19,364.25,372.48Zm386.8,373.59c.8,0,1.9.25,2.3-.07s-.07-1.25.11-1.86c1.5-4.91-4-6.48-6.74-9.35-1,.7-2.58,1.3-2.78,2.12-1.14,4.74,4.46,6.23,19.14,15-2.47-1.94-4.89-3.92-7.45-5.77a2.58,2.58,0,0,0-2.11,0c-.37.31-.07,1.15-.08,1.75-.07,5.11,2.72,7.31,7.4,5.77C761.48,753.44,761.91,752.83,751.05,746.07ZM421.9,325.78c.78-6-2-10.15-9.61-11.68,3.64-5.58-4.78-8-5.24-12.89-.27-2.81-4.1-6.18-9.17-8.5-.42-3.65.47-7.1-3-10.72-3.11-3.25-4.34-7.66-8.71-10.61-4.08-2.75-3.28-8.21-8.45-10.76-1.75-.86-3.59-2.91-3.65-4.45-.13-4,0-7.7-4.87-10.06,1.86-4.46-4.7-6-5.07-10-.56-5.82-11.14-7.21-10.12-14a20.81,20.81,0,0,1-8.47-12.58c-1.39-6.12-12.18-7.07-10.11-14.15-7.85-3.7-8.93-11.52-15.18-16.26-7-5.3-13.58-10.93-20.41-16.37-.17-.13-1.2.24-1.61.56a7.74,7.74,0,0,0-1.23,1.51l7.24,13.08c7,2.74,6.29,9.9,11.83,13.48-1.72,7,9.2,8,10.09,14.14.38,2.63,4.67,4.78,6.75,7.37s3,5.53,5.23,7.9c2.73,2.95,1.81,7.52,6.65,9.43s3.72,6.87,6.9,9.24c6.43,4.79,8.32,11.57,12.88,17s9.86,10.9,13.75,16.81c1.31,2,1.07,4.6,3.55,6.58,2.64,2.11,6.2,3.62,6.7,7.47.27,2.1,3.24,4.08,5.32,5.87.92.79,2.65,1,4,1.42h0c-3.63,5.59,4.78,8,5.25,12.9.27,2.81,4.1,6.18,9.16,6.56-.77,6,2,10.15,14.42,16.17,0-.6.26-1.33-.06-1.78-.67-1-1.53-2.47-2.53-2.6-4.44-.57-2.05,2.42-2,3.51.05,1.29,1.67,2.55,2.61,3.83C425.38,332.24,426.05,331.26,421.9,325.78Zm124,141.32a7.89,7.89,0,0,0,1.68,1.32c1.28.54,2.67.91,4,1.35,0-1.91.93-4.37-.19-5.62-2.73-3-6.34-5.58-9.75-8.18-.75-.57-2.17-.55-3.28-.8-.27,1.73-1.52,4-.61,5.08,2.17,2.58,5.35,4.6,18.63,14,0-.6.26-1.33-.05-1.79-.68-1-1.53-2.46-2.54-2.59-4.44-.57-2.05,2.41-2,3.5,0,1.3,1.67,2.56,2.61,3.84C555.11,476.23,555.78,475.25,545.94,467.1ZM700.59,640.44c-.72-1.05-1.51-3-2.16-3-4.48.21-7-2-10-4.13-1.77-1.23-2.9-.14-2.34,1.84.34,1.23-.61,3.1.18,3.76a50.69,50.69,0,0,0,8.9,5.85c.83.43,3.17-.21,4.08-.95s.92-2.22-15.24-10.61c.71,0,1.71.23,2.06-.06a1.43,1.43,0,0,0,0-1.64c-1.12-1.28-2.49-2.88-4.18-.54C681.72,631.28,683.29,632.44,700.59,640.44Zm245-32.5c0-1.94-.06-3.88,0-5.81.15-3.93-4.67-4.85-6.8-7.4a3.6,3.6,0,0,0-1.6.56c-.52.41-1.25,1.05-1.16,1.51,1,5.37,6.56,9.7,5.54,15.6-.07.38,1,1.1,1.63,1.32,2.34.74,3,.07,2.44-1.92-.35-1.22-.07-2.57,4.34,4.22a15.66,15.66,0,0,0-2.31-2.22,2.49,2.49,0,0,0-2,0,1.38,1.38,0,0,0,0,1.63,9.82,9.82,0,0,0,2.84,1.77C948.7,617.3,949.49,616.47,945.63,607.94ZM421.9,248.6c0-4.49-.31-8.36.15-12.17.2-1.63,1.62-3.44,3.15-4.61s2-2.5-.25-2.69c-6.19-.51-12.45-.51-18.68-.62-2.37,0-3,1.46-1.82,3.39,4,6.68,8.58,12.88,17.45,16-.12,2.69,1.48,4,104.66,104,.13-.46.53-1.25.37-1.33-8.62-4.36-10.22-11-8.88-18.42.66-3.68-1.69-5.87-4.6-8.23-6.53-5.3-12.69-10.61-17.49-17.38-4.63-6.5-14.13-10.64-19.5-16.94-3-3.49-4.71-7-10.3-7.78C465,274,457.38,269.23,450.58,266c-8.29-3.94-14.7-9.07-21.52-14.12-.43-.32-1.55,0-2.35,0a18,18,0,0,0,.06,3.88,6.27,6.27,0,0,0,1.68,3.29c5.71,5.06,11.82,9.57,15.69,16.12,2.13,3.61,5.55,7.14,8.29,10.81,3.19,4.29,10.61,7.09,12.14,11.47,1.77,5.06,5.88,7.7,9.85,10.22,5.32,3.38,4.05,9.59,9.94,12.42,3.46,1.66,5.54,4.39,5.14,7.94,10.19,8.25,20.32,16.54,30.65,24.67.85.67,3,.38,4.56.3.64,0,1.23-.67-98-101.12C426.83,249.14,425.23,247.85,421.9,248.6ZM979.27,464c0-2.56,1.32-6.44-.23-7.46-6.93-4.56-3.93-10.47-4.58-15.88-8.15-4.69-4-11.62-4.67-17.6-.45-3.85-6.84-5.4-5.35-9.9a15.57,15.57,0,0,0-5.9-1.65,3.87,3.87,0,0,0-3,5.91c3,4.13,7.53,7.89,9,12.32,1.67,5.19-1.23,11.33,5.16,15.59-3.48,7.88,5.6,13.9,4.92,21.43-.08,1,1.23,2.41,2.38,2.91,2.16.94,2.92.12,2.37-1.85-.34-1.21-.06-2.54-.06,5.49,0,2-.29,3.88.12,5.66.19.82,1.7,1.48,2.73,2.07.1.06,1.43-.77,1.49-1.24a33.93,33.93,0,0,0,.34-7.25,3.74,3.74,0,0,0-2.43-2.68C976.93,469.28,980.4,472.38,979.27,464ZM481.57,687.38a17.18,17.18,0,0,0,2.74-1.88,1.38,1.38,0,0,0,0-1.63,2.49,2.49,0,0,0-2,0,8.35,8.35,0,0,0-2.18,2.3c-.1.14.92.78,23.38-2.35,4.78,0,9.76-.7,14.28.17,6.4,1.24,9.57-3.5,14.77-4.06s10.55,1.2,15.51-2.59c4.14-3.16,10.56-.56,15.83-1.53a3.06,3.06,0,0,0,1.61-1.27c-.71-.87-1.62-2.27-2.52-2.29-7.15-.19-14.37-.51-21.46.07-3.45.29-6.52,3.07-10,3.56-4.64.65-10.8-1.35-14,.45-8.65,4.81-17.83,3.2-26.92,3.6a8.38,8.38,0,0,0-2.36,0c-1.34.51-3.06,1-3.68,2-1.18,1.76-.15,2.09,2.28,2C492.31,683.61,497.9,683.8,481.57,687.38ZM878.36,359.07c0,.57-.27,1.38.08,1.67a2.55,2.55,0,0,0,2,0c1.58-.9,3.55-2,.66-3.38-.38-.19-1.82,1.09-2.66,3.38a28.67,28.67,0,0,0-4.14,1.4c-7.41,3.84-9.85,10.78-15.05,16-6.23,6.24-5.83,7-1.88,14.57,2.53,4.85,8.09,9,6.61,15.06-.54,2.25,1.38,3.29,4,3.61,3.57.44,5.54-1,5.56-4.31,0-7,0-14,0-21.07,0-2.56-1.32-6.42.22-7.45C881.54,373.43,877.07,366.71,878.36,359.07ZM196.08,379.34c0,4.14-1.63,8.6.36,10.31,3.42,3,3.86,6.62,6.27,9.67,2.8,3.53,6,7.06,7.53,11,1.29,3.45-.88,7.76,4.28,10.19,1.81,8.34,11.89,14.28,10.53,23.61-.08.5,1.82,1.3,2.94,1.72.25.09,1.6-.87,1.56-1.28-.29-2.74.7-4.83,3.39-6.67,2.92-2,.83-6.14,5-8.11,1.16-.55,1.71-4.39.87-4.89-7.1-4.27-8.35-12.05-15.09-16.28-5.73-3.6-9-8.62-11.46-13.61-3.31-6.75-8.82-11.22-18.3-14.72.72,0,1.71.23,2.07-.06a1.42,1.42,0,0,0,0-1.65c-1.11-1.28-2.48-2.87-4.17-.53C191.62,378.33,193.19,379.49,196.08,379.34ZM758.24,679.91c0,1.29-.57,2.83.1,3.83,4.59,6.83,7.46,14.36,13.27,20.72,2.92,3.2,6.85,3.23,10.57,2.55,3.5-.64,6.77-2.32,10-3.79a51.78,51.78,0,0,0,7.37-4.25c2.66-1.81,3.09-4.9.5-6.51-7.06-4.37-9.27-11-12.91-17-2.1-3.44-4.48-6.51-11.79-7.26a5.06,5.06,0,0,0,2.06,0,19.21,19.21,0,0,0,0-5.41c-.18-.79-1.7-1.41-2.73-2a3.09,3.09,0,0,0-1.48,1.23c-.92,2.38-.87,4.65,4.34,6.16a8,8,0,0,0,0,1.83c1.42,6-1.44,10.71-7.71,13.64-5.23,2.44-6.69-4.4-13.67-3.8.72,0,1.71.23,2.06-.06a1.42,1.42,0,0,0,0-1.65c-1.11-1.27-2.48-2.87-4.17-.53C753.79,678,755.36,679.14,758.24,679.91ZM735.4,761.63a20.9,20.9,0,0,1-3,0c-4.58-.79-7.17,1.53-10.11,3.79-5,3.86,3.14,4.41,2.58,7.35-.27,1.47,1.34,3.48,2.75,4.79,3.15,2.92,7.33,5.22,9.93,8.4,2.45,3,3.23,6.62,6.78,9.44s5,8,8.89,10.38c4.89,3,4.55,7.74,8,11.18,3.21,3.2,4,7.83,8.66,10.68,3,1.86,6.74,4.48,7.27,7.14.91,4.52,5.7,5.92,8,9.06,2.72,3.65,3.43,8.32,8.54,10.73,4.43,2.1,2.32,7,6.67,9.52s8.15,6.21,11.95,9.53c1.5,1.31,3.21,3,3.45,4.62.66,4.49,5.23,6.46,8.65,8.69,4.61,3,4.93,7.64,8.38,10.89.34.32,1.54,0,2.34,0-.89-3.67,2.31-8.05-1.78-11-6.52-4.73-8.92-11.2-12.81-17.12-3.51-5.33-6.47-10.83-9.8-16.15s-6.18-11.45-12.86-15.22c-.93-.52-1.21-2.28-1.11-3.42.3-3.38-.71-6-4-8.48-5.58-4.26-13.06-7.9-10.7-15.89.21-.7-1.8-2-3-2.78-4.48-3-7.56-6.28-6.67-11.49.23-1.36-2.15-3.1-3.51-4.55-2.29-2.43-6.65-3.8-5.88-7.75-7.74-5.34-10.25-13.79-17.73-19.4-3.3-2.48-6.47-3.31,94.21,135.53a14.72,14.72,0,0,0-2.32-2.21,2.43,2.43,0,0,0-2,0,1.38,1.38,0,0,0,0,1.63A9.77,9.77,0,0,0,838,901.3C838.19,901.38,839,900.55,735.4,761.63ZM525,489.67c2.59.2,3.94-.78,2.49-2.32-5.07-5.41-7.81-12.11-15-16.37-6.1-3.62-6.27-8.62-1.26-13.07,2.67-2.37.33-3.15-1.08-4.15-3.06-2.17-.89-6.05-4.89-8.18-3.74-2-7.48-4.68-7.06-9.22.05-.46-2.38-1.29-3.78-1.57-2.71-.55-4.2.76-5.26,2.64-2.14,3.77-9.2,7.12-11.56,4.89-3.86-3.64-10.21-2.85-13.62-6.53-5.21-5.62-15.18-6.25-20-12.34-6.11,1.39-8.45-5.66-14.56-4.28-3.42-2.67-6.85-5.34-10.24-8-4-3.17-7.9-6.39-11.85-9.59-7.89-6.39-15.76-12.8-23.72-19.15-.87-.7-2.64-1.66-3.28-1.39-3.88,1.65-7.58,3.58-11.24,5.54-.37.2-.09,1.23,0,1.88s-.08,1.5.35,1.79c8,5.27,10.58,13.16,15.42,20,5.13,7.26,17.71,6.5,24.51,12.46,4.81,4.2,11.41,5.81,17.45,8,6.79,2.51,10.46,7.52,15.85,11.09,9-.93,10.74,9,19.6,8.71.89,0,2.21,2.77,2.84,4.39.77,2,2.28,2.51,4.6,3.36,6.78,2.48,14,4.45,19.31,9.21,3,2.65,5.55,5.61,11,6.54,4,.68,6.88,6.57,10.61,6.83,6.54.45,7,3.27,8.37,7,.38,1,3.94,1.26,13.43,5.91,0-.61.26-1.33-.06-1.79-.68-1-1.53-2.46-2.53-2.59-4.45-.57-2.05,2.41-2,3.5,0,1.3,1.67,2.56,2.6,3.83C531.09,495.69,531.76,494.71,525,489.67Zm98.69-9.83c1,2.65-.89,5.62,1.48,8.89,6.73,9.29,11.75,19.39,18.12,28.79s10.68,19.94,18.84,28.66c-.9,5.67,6.37,6.88,8.81,10.64,2.74,4.21,4.59,8.8,6.91,13.2.29.55,1.2.87,1.64,1.39,2.12,2.55,6.25,3.61,6.88,7.45.47,2.82,3,5.42,4.59,8.11s3.65,5.29,4.7,8.12c1.82,4.91,10.67,6,9.86,12.29-.11.88,1.71,2,2.78,2.88,2.78,2.33,5.18,5.46,8.59,6.63a17.83,17.83,0,0,0,11-.35c3-1.22,2.34-4.51-.57-6.34-3.9-2.44-1.91-5.87-2.87-8.78-1.13-3.44-4.18-6.29-6-9.61-1.56-2.83-2.52-5.62-3.78-8.46-2.28-5.1-3.83-10.38-6.17-15.39-1.79-3.82-7.86-5.42-8.63-10.8-.54-3.79-4.38-8-8.23-10.58-4.6-3.08-4.44-7.84-8.21-11-3.14-2.63-2.68-6.78-6.62-9.53s-9.44-4.82-10-10.14-10.6-6-9.52-12.31c-4.65-4.06-8-9-15.58-10.7-4.2-.94-7.65-3.71-8.67-8-.52-2.18-3.29-4.11-5.36-5.9-.92-.79-2.66-1-4-1.42,0,.65,0,1.29-2.14,0,.71,0,1.7.22,2.06-.06a1.44,1.44,0,0,0,0-1.65c-1.12-1.28-2.49-2.87-4.18-.53C619.25,475.62,620.82,476.78,623.71,479.84Zm-28.9,33.48c-2.44,3.85-5.28,7.67-11.94,7-2.46-.25-3.94.82-2.28,1.87,8.13,5.18,10,14.2,18.45,19.08,1.74,9.17,12,12.89,18.71,18.84,7.42,6.61,15.86,12.47,23.86,18.65,8.14-1.52,4.26,6.53,7.88,7,6.2.75,8.76,5,13.33,6.89,5.55,2.28,10.87,4.44,14.79,8.42,1.2,1.21,2.49,1.13,3.32-.6.53-1.12,1-2.84.3-3.65-1.73-2.09-3.74-4.35-6.34-5.56-4.19-1.94-2.31-5.7-4.83-8.2-3.78-3.75-4.69-9-10.12-12.17-2-1.18-1.92-4.53-3.62-6.38-2.37-2.56-5.53-4.63-8.34-6.92,1.76-7.38-4.28-11.63-9.86-16.06,2-4.94-7.4-6.7-4.91-12,1.3-2.75-1.45-4.6-3.71-6.46-2.63-2.18-5.12-4.11-6.24-7.62a24.27,24.27,0,0,0-5.89-9.49c-3.58-3.39-2.6-8.73-8.08-10.95,2.12-4.5-6.09-6.08-4.66-10,1.93-5.21-3.59-8-5.28-11.88-2.9-6.72-7.76-12.89-12.13-19.15-1-1.37-3.27-2.13-5-3.17-3.37,5.91-12,1.28-16.41,5.4-2.49,2.33-6.25,4.13-.83,6.9,2.35,7,7.83,12.81,11,19.58,1.53,3.33,5,5.87,4.67,10.11-.36,5.14,6.8,6.53,9.43,10.32-2.83,4.73,6.32,5.69-11.75,17.25.72,0,1.71.22,2.07-.07a1.43,1.43,0,0,0,0-1.64c-1.11-1.28-2.48-2.88-4.17-.54C576,518.42,577.58,519.59,594.81,513.32ZM715,452.42c7.58,4.83,12.37,12.15,22.79,14.71,3,.72,6.44,3.49,6.22,7.45-.11,1.95,1.91,2.83,4.76,3.09,5.08.46,8.57,3.48,9.26,7.3.56,3,2.89,4.43,5,6.1,3.81,3,11.11,2.4,13,7,1.81,4.34,4.74,7.59,8.54,10.81,2.45,2.07,3.14,5.45,5.33,7.83,2.36,2.56,5.54,4.64,8.37,6.92l11.86,9.61c-1.12,7.32,11.3,8.73,10.57,15.88,8.35,4.95,9.78,14.23,18.22,19.13,1.84,1.06,3.87,4.08,5.44,2.5,1.19-1.2.93-4.47-1.1-7.08a92.8,92.8,0,0,1-9.06-14.4c-1.43-2.76-4.34-4.89-4-8.4.4-3.79.29-7.24-3.89-10.43-3.11-2.37,1.13-7.34-3.51-10.42-5-3.27,1-10.64-6.85-13.18l-.09-15.5c-6.74-3.48-4.64-9-4.77-13.92-.14-5.18.4-10.39-.16-15.53-.54-5,2.41-10.23-1.66-14.94-5.51-.16-11-.41-16.53-.47-7.19-.09-14.39,0-21.58,0-5.35,5.19-12.71,3.75-19.59,3.88-3.19.06-6.41.2-9.58-.05-2.9-.22-4.38-6.36-8.71-1.24-2.22,2.62-5.92.83-8.89,1.29S718,449.16,849.54,575.44c0-.6.26-1.33-.06-1.79-.68-1-1.53-2.46-2.53-2.59-4.45-.57-2.05,2.42-2,3.5,0,1.3,1.67,2.56,2.6,3.84C848.21,577.41,848.88,576.43,715,452.42Zm-468.22-17.5c-2.25,3-5.67,5.81-6.49,9.06-1.26,4.92-.78,10.15-.92,15.26-.1,3.88-1,8,.25,11.58,1.4,3.94,5.08,7.31,7.43,11.07,5.37,8.55,9.69,17.55,16.32,25.57-.83,10.29,11.4,17.22,10.77,27.45,5,2.43,2.74,8.66,8.45,10.75-2.78,5.15,7,6.57,5,12-1.92,5.31,5.5,7.1,8.43,10.64a4.38,4.38,0,0,1,.87,3.54c-1.46,5.57,6.16,8.43,6,13.57,7.48,2.67.24,10.26,6.76,13.26a280.83,280.83,0,0,0,18.86,30.51c2.29,3.19.69,6.43,2.37,8.92,2.15,3.18,3.82,6.55,6,9.64a182,182,0,0,1,10,16.08c3.36,6,9.25,11.27,8.44,18.52,3.81,1.79,3.76,5.17,5.23,8,.4.75,2.64,1.23,4,1.2,4.63-.1,6.74-4.66,12.42-4,10.3,1.2,4.93-5.81,6.66-9.21a11.1,11.1,0,0,1,4.75-4.17c2.45-1.26,5.87-1.45,8-2.92,4.85-3.32,8.5-9,13.88-10.28,6.07-1.44,9.6-4.38,12.85-7.59,4.18-4.12,10.91-4.28,15.25-8,9.29-8,19.16-15.6,28.7-23.43,4.41-3.62,4-9.19-1-13.23-8.43-6.9-16.94-13.73-25.41-20.6-2.82-2.29-6.54-4.21-8.22-7s-2.44-5.55-5.09-8.07c-1.65-1.57-.61-4.83-3.6-6.48-3.54-2-5.28-5.83-10.7-6.68a53.82,53.82,0,0,0-.72,5.7c-.1,4.53,0,9.06-.05,13.58,0,3-1.35,3.24-6.72,3.53-6.71.37-9.68-3.11-12.46-7-1.07-1.51-1.93-4.58-2.71-4.55-8,.4-10.11-5.67-14.78-8.73-5.56-3.63-10.28-8.12-15.36-12.24-5.65-4.57-10.72-9.8-17.12-13.53-6.2-3.62-6.72-9.66-11.55-13.78-7-5.94-15.74-10.58-20.25-18.38s-13.85-12.11-20.64-18.28c-2.28-2.06-4-3.87-3.32-6.69-8.38-4.93-10.08-14.19-18.63-18.95-4.21-2.34-4.05-6.91-7-9.17-3.34-2.54-2-6-4.78-8.26C253.49,440.46,250.15,437.67,246.75,434.92ZM447.47,695.48c-12.79,0-25.57,0-38.36,0-4.6,0-8.62.13-13.09,2.8-3.73,2.24-11.1.18-15.52,2.08-3.3,1.42-6.78,2.44-10.09,3.8-1.68.68-1.24,1.69.68,2.72,4.11,2.22,2.4,5.72,2.78,8.77s3.93,4.86,5.23,8c2.84,6.75,10.38,12.12,9.17,20.2,4.34,2.17,3.87,6.58,6.62,9.4,2.33,2.39,4.72,5,9.62,4.6,4.74-.41,9.57-.09,14.37-.09h16.78c4.79,0,9.73-.6,14.34.15,6.24,1,9.79-3.24,14.86-3.91,4.67-.62,9.56-.13,14.35-.13,5.6,0,11.35-.67,16.74.18,5.78.92,7.6-4.15,12.44-4.09,7.19.08,14.38,0,21.57,0s14.52-.71,21.54.19c7.64,1,12.13-4.48,19.62-4.43,10.51.07,22.14,3.6,31.57-3.54,5.59,0,11.41-.79,16.72.19,6.51,1.21,9.29-4.25,14.85-4.12s11.19,0,16.78,0c6.17,0,10-6.15,17.26-4.06,2.19.63,4.88-4.24,3.25-5.79-3-2.9-6.87-5.38-9.26-8.58-3.43-4.6-3.64-10.81-9.42-14.24-6.55-3.89-8.69-10.21-13.61-14.85-6.23-5.88-13.48-11-20.19-16.58-3.4-2.82-6.58-2.9-9.91,0-4.42,3.84-13-.45-16.44,5.46-.18.3-1.44.23-2.2.27-6.06.32-12.9-1.63-17.21,3.86-6.72.64-14.49-2.1-19.56,3.93-6.92.57-14.58-1.86-20.68,1.65-7.43,4.27-15.29,1.47-22.88,2.18-4.69.45-9.47.28-14.21.39-5.29,5.89-13,3.16-19.76,3.46C466.66,695.79,457.05,695.48,447.47,695.48ZM661.94,446.42H657c-3.18,0-6.25,3.45-4.33,5.18,3.18,2.85,3.42,7.19,6.4,9.4,3.8,2.83,2,7.28,6.4,9.73,4.22,2.35-1,7.49,3.44,10.41,4.21,2.79,3.46,8,8.33,10.89,3.55,2.12,8.79,4.34,8.73,8.51-.09,6.19,7.78,2.81,9.83,6.13.68,1.1,2.88,1.72,3.21,2.79,2.71,8.66,12.17,12.87,18.78,18.91,4.23,3.87,9,7.36,13.5,11,5.08,4.11,11.15,7.71,14.94,12.5,3.28,4.14,6,8.36,10.3,12.07,4.6,4,7.37,9.45,12.21,13.18,3.71,2.85,2.9,7,6.5,9.6A123.88,123.88,0,0,1,785.39,595a5,5,0,0,1,1.61,3.29c.15,3.87,4.35,5.23,7,7.3,3.51,2.72,2.41,7,6.45,9.66,3.37,2.24,4.49,1.69,7.11-.33,1.38-1.06,4.3-.82,6.52-1.13,3.71-.53,7.32.48,11.25-1.52,6.84-3.5,14-7.11,22.71-7.08.41,0,1.27-1,1.14-1.29a2.34,2.34,0,0,0-1.6-1.34c-4.71-.24-9.45-.2-14.15-.55-1-.08-1.85-1.42-2.59-2.27-.08-.1,1-.86,1.61-1.33,2.7-2.29,5.1-5,9.89-4.18.42.08,1.69-1,1.57-1.26-.46-.92-1.24-2.36-2.05-2.42-3.12-.25-5.8.06-7-3.48-1.3-4-2.83-8.86-6.4-11.24-6.92-4.6-7.62-12.37-14.92-16.55-7.72-4.42-8.92-13.15-17-17.57-3.34-1.84-3.8-5.14-5.49-7.79-2.7-4.23-7.82-7.07-10.26-12.13-2.13-4.41-8.53-7.47-13-11.13l-30.48-24.69c-4.52-3.65-9.62-7-13.4-11.06-4.43-4.82-13.08-4.34-16.74-9.53-2.66-3.76-8.39-2.63-11.7-5.39-2.64-2.2-5.74-5.06-9-5.47-4.79-.6-6.73-5.94-12.33-4.18C671.2,446.6,666.75,446,661.94,446.42Zm-36.25-15.23c2.28-1.85,4-3.24,5.68-4.59,2.2-1.74,2.17-1.59,8.52-.26,2,.42,5.31.58,6.29-.35,3-2.85,6.68-2.61,10.6-3.1,3.5-.45,6.64-3.32,10.07-3.5,5-.26,9.27-.57,12.37-4.24,2.33-2.77,5.51-4.26,10.06-3.82,6.27.6,10.05-6.47,17.29-4,.76.27,2.79-1,3.64-1.92,3.43-3.66,8.73-4.8,13.16-7.1,5-2.62,11.47-3.1,15.55-7.79,2.7-3.12,8.49-5.06,13.37-6.16a20.38,20.38,0,0,0,7.81-3.64c2.3-1.6,4.74-3.9,7.38-4.16,3.81-.38,5.23-2.6,7.56-4.14s2.22-3.62-.4-3.71c-3.53-.12-5.55-1.62-8.22-3-2.36-1.2-6.11-1.42-8.95-.92s-5.23,3.58-7.64,3.44c-3.44-.21-6.57-2.75-10.09-3.49-3-.63-6.38.05-9.56-.17-6-.4-13,2-17.33-3.65-7.17-.06-14.35-.16-21.52-.19s-14.41,0-21.62,0c-7.61-7.29-17.9-2.51-26.83-3.9s-19.21,3.4-26.83-3.88c-7.45,1.23-16-3.13-22.59,2.93-.3.27-2.17-.56-3.29-.92-2.07-.65-5.43-2.33-6-1.86-5.7,4.93-13,3.38-19.82,3.86-2.13.15-2.93,1.32-1.17,3.7,3.13,4.25,6.06,8.38,10.15,12.22s5.34,10,9.07,14.3c3.51,4,7,7.91,10.17,12.18,2.67,3.63,6.15,6.74,8.61,10.75,2.7,4.4,8.7,7.46,13.16,11.18C618.21,424.58,621.92,427.91,625.69,431.19Zm12,225.37c4,0,8,.23,12-.06s9.29-8.45,6.48-10.25c-4.15-2.66-2.09-7.7-6.63-9.53-7.07-2.85-5.63-10.23-11.77-13.64-5.84-3.24-5.08-10.49-11.83-13.59-1.44-.66-1.65-3.23-2.21-5s-.12-4.14-1.42-5.31c-5.34-4.8-11.32-9.15-16.77-13.88-2.38-2.07-4.78-3.24-8.25-2.71-5.42-6.49-16.32-7.47-21.65-13.8-3.83-4.57-10.19-5.33-15.13-8.14-3.66-2.09-8.45-2.13-11.75-5.41-4.33-4.3-8.69-9.41-17.6-7.87-1.45.25-4.1-1.81-5.3-3.29-4.09-5-12-5.06-17.13-9.28-4.35-3.58-12.1-4.65-17.51-7.42-12.67-6.49-28.24-9.09-38.49-18.73-3.57.56-5.94-.89-8.19-2.89-.33-.29-2.27.38-3.23.9-.39.21-.08,1.2-.21,1.83-.64,3.21,3.75,3.93,4.71,6.19,1.22,2.89-1,6,1.76,9.18,3.35,3.88,7.43,8.51,7.47,12.84.07,6.48,6.06,8.56,9.57,12.52.78.87.73,2.49.46,3.67-.81,3.7,2.27,5.65,4.5,8.29,2.06,2.43-1,6.12,1.83,9.08,3.69,3.8,5.26,8.6,8.15,12.79-2.36,6.08,7.59,9.53,5.16,16-.51,1.35,3.55,3.77,5.39,5.77,1.25,1.35,2.33,1.28,3.39-.44a8.64,8.64,0,0,0,.48-1.78c3.74-11.05,19.28-11.85,26.47-19.92.27-.31,1.53-.06,2.32-.06,4,0,9.56-1.32,11.66.29,3.64,2.82,8.36,3,11.94,5.18,7.33,4.54,12.43,10.75,21.34,14.47s15.16,11.21,22.46,17.16c3.32,2.69,8.4,5.35,9.06,8.52,1.1,5.35,6.39,7.08,9.71,10.41,3,3,6.78,5.47,9.85,8.42.8.77-.45,3.07.36,3.66,3.34,2.44,5.32,6.71,11.37,5.88A55.56,55.56,0,0,1,637.71,656.56Zm66.42-361.92c-8.77,0-17.55-.05-26.32,0-3.08,0-7.58-.57-9,.79-5.23,5-13,1-17.44,3.43-5.78,3.19-11.28,3.39-17.44,3.65-2,.09-4,1.49-6,2.27-4.65,1.81-9.17,3.94-14,5.3-4.3,1.2-9.81-1.73-13.51,1.57-4.65,4.17-10.37,1.73-15.57,2.42a7.79,7.79,0,0,0-2.25.25A164.34,164.34,0,0,1,553,326.66c-.49.16-1.1,1-1,1.31.25.55,1.05,1.34,1.6,1.33a12.56,12.56,0,0,1,9.87,4.16c7.75-2.69,12.61,5.56,19.42,3.8,8.11-2.1,12.4,4.7,19.63,4.19,4.47-.31,9.71-1.4,12.81,2.89,3.17-1,6.32-2.78,9.52-2.86,13.55-.32,27.11-.1,40.67-.16,3.1,0,7.63.62,9-.72,5.2-5,11.73-2.91,17.71-3.06,11.15-.3,22.33-.09,33.49-.09C736.89,330,750,335,762.1,333.57c3-.35,7.47.38,8.89-1,3.84-3.73,8.48-2.7,13-2.9,6.82-.31,9.67-3.13,7.72-8.32-.84-2.23-4.9-4.54-4.37-6.1,2.57-7.5-4.1-13.09-5.29-19.76s-8.64-11.24-14.71-8.31c-8.11,3.92-16.18,3.43-24.57,3.57-10.36,6.63-22.55,2.86-33.9,3.88C707.34,294.77,705.72,294.64,704.13,294.64ZM408.71,683.85c5.28,1.57,7.92-3.23,12.16-3.77,5.45-.7,11.42-1.05,16.64,0,6.67,1.4,9-4.15,14.82-4.33,12.17-.37,25.11,3.16,36.3-3.67,5.59,0,11.27-.55,16.73.14,6.77.85,11.55-2.43,17.26-3.78,5.15-1.21,11.22-.9,16.62-.09,6.9,1,11.53-2.61,17.25-3.86,4.47-1,9.53,0,14.29-.26,5.23-.32,10.8,1.52,15.52-2.51,3.63-3.1,9.07-.61,13.59-1.36,1.41-.23,3.66-.79,3.84-1.48.42-1.65.61-4-.51-5.12a61.27,61.27,0,0,0-10.06-8.26c-4.35-2.9-3.64-7.78-8.17-11-10.8-7.62-20.51-16.25-30.66-24.47l-25-11.91c-2.4,0-5.28-.71-7.09.13-5.83,2.68-13.75,3.37-17,8.56-2.42,3.89-5.44,5.83-9.83,8.22-7.79,4.25-12.86,11.93-20.84,15.74-8.93,4.27-16,9.74-23.14,15.42-4.55,3.63-8.81,7.51-13.61,10.89-3.95,2.79-6.67,6.29-12.87,7.68-5.36,1.21-9.08,6.83-13.94,10.1-2.17,1.45-5.77,1.52-7.88,3-.85.6.18,3.47,1.12,5C404.7,683.62,407,683.54,408.71,683.85ZM916.8,434.25c0,3.24-.49,6.54.21,9.67.36,1.6,4.41,3.09,4.16,4.26-1.14,5.5,3.55,9.31,5,13.94a26.25,26.25,0,0,1,.06,13.49c-1.34,5.64,3.18,9.35,4.87,14,1.47,4-2.12,9.11,3.8,12.32.38,5,.49,10.11,1.31,15.11.27,1.62,3.12,2.9,3.57,4.56.84,3,.29,6.33,1.2,9.34,1.06,3.45,3.94,6.62,4.48,10.07a46.17,46.17,0,0,1,0,15.47c-1,5.55,6.67,8.22,5.32,14-.92,3.89,3.82,6,7.23,3.85,3.24-2.09,6-4.08,10.33-3.32,8.1,1.43,13.87-5.46,22-4,.56.1,1.34-.46,2-.76,5.74-2.74,5.19-8.92,10.06-12.2.23-.16-1.08-1.71-1.53-2.65-2.37-5-6.28-9.47-8.76-14.53-1.07-2.19-3.59-3.85-3.21-6.7.6-4.5.76-9-4.75-12,2.47-5.56-3.69-9.24-4.59-13.93-.92-4.89.72-10.18-5-13.88,2.62-6.28-4.68-10.11-6-15.49-.51-2-4.38-3.59-3.54-6.5,1.55-5.39-1.59-9.65-4.83-13.91,2.46-5.56-5.91-8.66-4.81-13.91-4.74-2.35-5.29-6-4.84-10,.21-1.92-.31-3.93.1-5.81,1.08-4.91-3.83-6.92-7.23-9.12-2.52-1.62-5.41.55-8.14,2.06a64.19,64.19,0,0,1-14,5.26c-2.53.68-4.22,1.32-4.29,3.55C916.74,429.08,916.8,431.67,916.8,434.25Zm-179.92,4.38c16.79,0,33.61-.46,50.36.2,8.19.33,13.53-6.51,21.84-4.4,2.06-2.61,7.47-3.6,6.7-7.41-1.28-6.29,4.64-10.18,7.05-15.18,3-6.18,4.69-6.69.14-11.76-3.85-4.3.93-10.75-6.43-13.47-.21-3.16-.47-6.33-.62-9.5-.09-1.94.35-3.94-.12-5.81s-2.39-3.07-5.17-2.72c-3,.37-6.81-1.15-8.67,1.67-3.67,5.55-12.32,5.09-16.76,9.57-4.92,5-13.88,5.35-18.57,10.88-1.4,1.65-5.51,1.62-7.92,2.93-3.21,1.74-5.6,4.6-9,6-13.18,5.43-26.74,10.27-39.88,15.76-5.47,2.29-10.64,4.68-17,4.24-4.7,4.42-11.82,5-17.77,7.43-2.7,1.11-4.87,3.16-7,5-.35.31.86,2.56,1.24,2.54,7.11-.39,11.63,5,19.64,4.4C704.8,437.75,720.89,438.63,736.88,438.63Zm-150,124.53c.77-.81,2.45-2,3.08-3.43.89-2.06-.65-3.9-3.1-4.25-3.13-.44-6.17,0-6.49-3.81-.42-5.08-5.89-8.21-10.15-9.88-5.84-2.29-.61-12.2-11.36-9.76l-5.2-7.78c-6,1-8.12-3.31-11.42-5.76-5.3-3.94-10-8.39-15.43-12.23-2.11-1.49-7.53-1.69-7.73-2.88-.94-5.75-6.59-8.35-10.53-12.1-3.09-2.94-8.33-2.27-11.84-5.31-4-3.48-6.88-9.09-14.74-8.42-5.09-4.12-10.13-8.29-15.29-12.35-5.5-4.33-13.94-5.41-18.51-10.92-.5-.6-3.71.46-4.53-.18-2.87-2.28-5.94-3.42-9.9-4.34-3.36-.77-6.06-4.07-8.53-6.6-4.52-4.63-11.62-5.54-17.41-8.31-.83-.4-3.16.35-4,1.13s-1.49,2.56-1,3.42c1.94,3.23,3.57,7.08,6.09,9.48,3.18,3.05,2.13,7.38,6.33,9.71,4.67,2.61-.81,7.73,3.45,10.45,4.46,2.85,3,8.46,8,10.94-.11,5.33,4.06,7.6,9.57,9.31,4.82,1.5,9.37,3.57,14,5.45.67.27,1,1.15,1.72,1.3,4.48,1,9.07,2.06,11.51,5.57,2.64,3.79,8,3.22,11.83,5.25,8.77,4.67,18.48,7.7,26.76,13.61a124.7,124.7,0,0,0,30.22,15.59c12.39,4.46,25.35,8.45,34.3,17.61,1.6,1.64,5.62,1.57,8,2.94,3.18,1.86,5.76,4.38,8.72,6.51C583.76,563.44,584.86,563.16,586.88,563.16ZM259.49,424c-.62-1.15.25,1.18,1.83,3.15,2.44,3,8.21,4.45,6.83,9.34,6.81,3.58,8.7,10,13.31,14.92,3.67,3.89,9.79,5.94,11,11.84,1,4.68,9.13,6.11,9.79,12.28.4,3.77,7.49,5.46,9.59,10.23,1.95,4.42,7.77,7.71,11.88,11.49,8.15,7.51,19.4,12.93,23.66,23.06q21.14,17.11,42.3,34.21a2.15,2.15,0,0,0,1.64.24c.67-.29,1.7-.94,1.63-1.31-.59-3,1-6-1.33-9.23-4.16-5.65-10-11-8.17-18.54.73-2.91-2.73-4.43-3.54-6.54-3.76-9.81-12.91-17.57-15.67-27.68-4.3-2.19-3.89-6.55-6.57-9.4-3.21-3.41-7.52-5.74-8.76-10.71-1-3.87-9.32-5-8.7-10.57-5.56-5.07-9.72-11.27-20.41-10.84-3.53.14-8-2.9-11.74-4.63-5.95-2.73-9-8.67-16.13-10.63s-10.39-7.54-15.89-11c-4.44-2.81-2.82-8.45-8.31-10.9-1.77-.79-2.21-1.59-3.52-.2C261.93,415,257.6,416.41,259.49,424Zm573.87,18.5c-6.59-.12-6.93,0-7.81,4.49-.47,2.42-.06,4.65-2,7.13-5,6.21-4.3,13-.37,19.55.53.89,1.53,2.47,1.25,2.65-6.34,4.08-2.91,6.9.59,11.07,2.24,2.66.49,7.51.53,11.38,5.59,2.94,5.28,7.48,4.77,12s.9,8.26,4.47,12.2c2.28,2.51-.5,7.07,3.92,10.34,3.77,2.79-1.43,9.15,5.27,11.71-.4,4.11,5.63,6.48,5.25,9.74-.6,5,4.36,8,4.9,12s6.61,5.38,5.4,10.07c-.4,1.58,5.06,2.9,4.49,6.1-.11.59-.13,1.55.29,1.79,3.1,1.81,4.44,5.21,9,5.75,7.28.86,13.38-3.41,14.9-9.06,1.7-6.32-4.41-10.4-5.08-15.89-.44-3.63,1.48-7.38-2.82-10.77s-1.06-8.56-2-12.85c-.12-.53-.89-1.08-1.53-1.4-5.27-2.66-1-8.17-3.67-10.28-4.8-3.81-4.28-7.88-4.37-12.27,0-1.26.28-3.33-.45-3.63-7.12-3-1.79-9.89-6.7-13.37s.45-10.44-6.67-13.4c-.75-.31-.82-2.42-.51-3.57,1.48-5.4-3.87-9.51-4.33-14-.62-6-4.63-10.28-7.34-15.14-1.27-2.28-2.63-4.19-3-6.82C839.13,442.6,838.83,442.63,833.36,442.52ZM1000.89,314.1c-4,0-8.17.67-11.87-.15-6.39-1.41-9.56,3.34-14.73,4.11-6.79,1-9.06,6.72-14.14,9.58a7.4,7.4,0,0,0,1.5,1.35c5.19,2.7,3.69,7.08,2.93,10.48-1,4.65,5.45,5.94,5.16,10-.31,4.46.06,9,.13,13.44,6.85,3.48,3.81,9.08,4.64,13.89,1,5.79,13.5,10.22,18,5.91,4.79-4.53,12-5.44,16.83-9.35,5.08-4.08,9.67-8.65,15.27-12.18,10.08-6.37,14.13-15.74,20.23-24.15,1-1.44,1.72-1.59.15-2.86-4.3-3.45-3.56-10.89-10.22-11.6-5.22-.55-7.84-3.48-12-4.79-10.39-3.25-10.19-3.66-17.18-3.69Zm-531-52.58c.28,1.92-.11,3.57.73,4.3,4.88,4.25,9.62,8.72,15.23,12.26,5.79,3.66,7.26,9.39,11.73,13.54,3.14,2.91,6.28,6,10.19,8.11,5.12,2.7,4.26,7.9,8.3,10.87,2.94,2.16,5.38,4.85,8.59,6.67,1.41.8,5.38.71,6.15-.16,4.21-4.76,10.18-3.07,15.31-2.84,6.2.28,10.64-1.38,14.14-5.2,2.09-2.28,4.72-2.78,8.16-2.86,6.75-.16,14.45,2.27,19.51-3.78,6.82,1.93,11.76-4,17.07-3.52,9.88.83,17-5.71,26.52-4.86,2,.18,2.08-1.52.36-2.62s-4.53-4.06-4.93-3.85c-3.83,2.05-7.2,3.81-10.31-.64-7.15,0-14.44-.78-21.41.11-8.32,1.07-13.32-6.49-22-4.26-5.21,1.34-11,.65-14.66-3.71-6.86,2-11.54-3.76-17.1-3.59-9.08.27-15.93-3.17-23.35-6.06a32.08,32.08,0,0,0-6.14-2c-4.4-.76-9.57,1.54-13.26-2.1-3.09-3.07-7.46-2.17-11-1.67-5.58.79-8-3.59-12.39-3.94C473.51,259.61,471.53,260.94,469.85,261.52ZM850.68,353c2.45-.72,7.8-5.81,15.29-3.89q5.13-4,10.26-8c3.69-2.9,2.76-5.64-.84-7.93-1.86-1.19-2.19-1.86-.33-2.79,3.73-1.89,2.9-3.46-.09-5.54-3.91-2.72,1.15-7.66-3.42-10.44-4.76-2.9-2.5-7.06-2.71-10.68-.33-5.8-1-11.74.17-17.4s-6.32-8.46-6-13.68c0-.4-2.52-1.23-3.91-1.3-3.87-.21-7.06.85-10.78,2.28-6.52,2.51-12.58,7.35-21.15,5.58a8.6,8.6,0,0,0-6.12,1.68c-3.63,3.25-4.76-.14-7-1.13-.5-.23-2.93,1.09-2.87,1.55a13,13,0,0,0,1.84,5.15c2.37,3.73,6.56,7.18,7.21,11,.75,4.47,7.2,6.65,5.41,12-1.44,4.28,6.72,6.73,4.75,11.94-1.13,3,1.5,4.51,5.38,4.39a86.9,86.9,0,0,1,9.55.06c1.36.1,3.78,1.19,3.72,1.66-.63,4.82,3.24,10.2-2.65,14.41a36.76,36.76,0,0,0-6.42,5.61c-.7.82-.44,2.68.25,3.66s2.41,1.33,3.77,1.78C844.75,353.2,845.64,353,850.68,353Zm-123-124.53c10.37,0,20.74.06,31.11-.07,1.33,0,3.63-.92,3.75-1.61.28-1.68.26-3.9-.9-5.14a14.29,14.29,0,0,0-11.79-5c-20.73.41-41.48.17-62.23.16-4.65,0-8.93.24-13-3-1.86-1.5-7.5-.9-10.9,0-12.77,3.5-12.68,3.67-27.71-.63-1.41-.41-4-.73-4.51-.17-5.34,5.8-12.93,3.66-19.7,3.73-18.35.2-36.7.07-55,.07-5.59,0-11.32.64-16.72-.16-6.9-1-11.52,2.73-17.26,3.84-5.29,1-11.11.21-16.69.21-6.39,0-12.77,0-19.15.06-.59,0-1.73,1-1.62,1.23.36.93,1.13,2.48,1.79,2.49,7.18.18,14.43-.38,21.53.23,10.55.91,22.13-3.39,31.53,3.78H664.58c4.79,0,10,.93,14.27-.24,5.25-1.43,7.48,5.52,11.5,2.42,5-3.89,10.52-1.66,15.74-2.1,4.74-.4,9.57-.08,14.36-.08ZM895.5,430.86c-14-.05-14,0-9.88,7.82.85,1.65,2.15,3.33,2.25,5,.29,5.16.1,10.34.1,15.52,6.42,4.33,4.51,10.3,4.84,15.86.26,4.39.79,8.78,1.2,13.17,6.2,4,2.7,9.5,3.63,14.33.1.53.82,1.11,1.45,1.42,4.22,2.11,3.33,5.47,3.29,8.62,0,3.87,6.75,5.48,4.86,10-1.56,3.78,3.58,5.28,4.64,8.11s-1.55,6.56,2.42,8.89c4.8,2.83.12,8,3.52,10.38,4.48,3.13,2.47,7.13,4.12,10.37s5,5.89,4.65,10.15,4.22,6.52,8.45,8c1.34.46,5.14-1,5.52-2.07.81-2.37,1.42-6.39-.16-7.4-6.36-4.06-4.68-9.43-4.14-14.2.68-6-1.66-11.21-5.28-15.75s-4.66-8.88-4.71-14c-.09-8,1.78-16.06-4.27-23.82-2.89-3.7,2-10.29-5-13.8-.07-5.15-.58-10.33-.08-15.44.36-3.79-1.94-5.95-5-8.1,3.29-7.36-8-12.31-4.89-19.76,2-4.8-6.83-6.85-5.24-11.78ZM590.63,255.73c-13.6,0-27.19,0-40.79.1-.83,0-1.73,1.46-2.35,2.34-.11.15,1,1.18,1.61,1.29,5.3.88,11.65-1.71,15.92,1.56,5,3.79,10.37,2.14,15.62,2.43,5.58.3,11.19.06,16.79.07,1.59,0,3.93-.49,4.64.16,7.83,7.19,18,3.28,27,3.52,23.17.61,46.38.19,69.58.21,3.15,0,6.31.16,9.47.24l32.14-.25c7.19.88,11.91-6.41,19.6-3.89,3.51-2.35,8.25-4,7.91-8.59-.08-1.06-1.5-2.06-2.3-3.08a10.16,10.16,0,0,1-1.71,1.35c-1.54.79-2.45,3.68-5.12,1-.93-.94-2.36-2.19-3.59-2.21-9.59-.18-19.19-.1-28.79-.1-8.8,0-17.62-.28-26.39.07-9.09.37-18.94-2.48-26.92,3.72-.65.51-3.29.08-4.3-.6-9.13-6.11-19.31-2.73-29.16-2.34-3.1,4.29-8.29,3-12.84,3C614.63,255.8,602.63,255.73,590.63,255.73Zm431.88,360.42c0-2.57.62-5.28-.18-7.67-.75-2.22-4.75-4.41-4.3-6.09,1.35-5.13-5.58-8-4.79-11.89,1-5.22-4-7.83-5.32-11.9-1.39-4.22-4.81-5.43-7.83-2.71-3.45,3.12-8.85,1.89-11.87,5.19-3.52,3.86-10.58-.57-14.71,4-3.15,3.47-8.87,1.08-13.41,1.35-2.9.17-4.55,1.1-4.76,3.1-.35,3.19-1.75,7.55.21,9.43,6.42,6.18,4,13.1,4.48,19.81.1,1.28-.63,3,.14,3.78a32.68,32.68,0,0,0,7.86,6.61c1.1.61,4.63-.47,6-1.61,2.55-2.14,5.39-2.12,8.53-2.11q17.87.06,35.72,0c2.74,0,4.21-1.22,4.24-3.47C1022.53,620,1022.51,618.08,1022.51,616.15Zm-560-29.75a9.32,9.32,0,0,0,1.7-1.14c.44-.47,1-1.21.85-1.62-2.27-5.11-3.63-10.71-6.36-15.35-3.8-6.44-6.79-13.52-12.8-19.08,1.46-8.69-6.66-14.65-9.92-22-1.78-4-5.7-7.36-4.5-12.1-5.08-3.15-3.79-9.56-9.61-12.34-.24-8.43-10.39-10.74-15.58-16.1-1.38-1.43-5.78-.86-8.74-1.4a7.93,7.93,0,0,1-3.94-1.56c-4-4.07-9.22-6.47-15.08-8.2l-3.39-1c-.31,1.76-1.32,3.69-.74,5.22s4.32,3.28,4,4.35c-2,6.39,3.85,10.71,6.49,15.46,3,5.42,6.07,11.56,13.1,15.11,3.49,1.76,3.49,5.81,5.54,7.69,3.28,3,2.75,7.27,6.42,9.65,4.4,2.85,6.23,6.79,8.73,10.69,3.15,4.9,9.76,7.68,13.22,13.06s10.2,9.56,15.34,14.36a11.32,11.32,0,0,1,3.39,4.67C452.14,580.44,459.16,582.15,462.54,586.4Zm435.05,82c-.5-1.12-.63-2.89-1.58-3.25-4.43-1.7-2.18-5.77-4.88-8.15-3-2.68-7-4.52-8.26-8.83-1.58-5.28-6.85-7.77-14.2-7.3a119,119,0,0,1-21.44-.09c-6.89-.83-11.68,2.06-17.14,4.07-4.75,1.74-5.93,4-3.51,6.75,2.7,3,8.31,4.33,8.45,8.72.12,3.95,6.87,5.49,5,9.94,4.84,1.89,4,6.46,6.69,9.37,4.07,4.33,9.53,5.45,16.33,2.83,1.35-.52,2.44-2.55,3.44-2.45,11.51,1.13,19-6.62,29.18-8.48C896.58,671.39,897,669.52,897.59,668.43ZM405.72,477.05a16.89,16.89,0,0,0,1.73-3.27c1.66-6.11-4.18-10.17-6.65-15.11-2.74-5.51-7.07-10.5-9.77-16s-8.85-10-7.74-16.78c.3-1.8-2-3.1-4.88-2.84-3.86.34-5-2.73-7.33-4.23s-4-4.19-7.73-3.5c-5.56,1-8.42-2-12.06-4.51-4-2.68-8.66-4.67-13.18-6.77-.28-.13-2.6,1.47-2.55,2.2.23,3-.37,5.82,1.83,9a395.25,395.25,0,0,1,21.76,35.12c1.74,3.21,4.93,4.73,7,7.3,6.05-1.25,8.64,4.25,14.41,4.75,3.73.33,6.63,6.54,10.43,7,6.56.72,8.87,4.78,13.08,7.3A6,6,0,0,0,405.72,477.05ZM698.16,726.61c2.38,0,4.76,0,7.14,0,3.83-.05,4.94-1.18,4.9-4.87,0-2.49.32-4.87-2.42-7s-6.41-4.6-6.82-7.22c-.62-3.93-5.46-5.51-5.7-9.9-.2-3.82-8.61-5.14-9.12-10.28-.36-3.72-6.69-5.4-5.25-9.8a43.39,43.39,0,0,1-12-13.32c-2.48-4.4-5.69-4.8-11.12-1.93a14.14,14.14,0,0,1-8.53,2c-3.68-.38-6,1.24-7.81,3.31-1,1.09-4.71,1.48-1.6,4.12s7.59,4.3,8,8.86c.52,5.17,10.39,5.93,9.6,12.22-.11.9,1.57,2,2.61,2.91,3.31,2.77,7.09,5.24,10,8.27,2.68,2.81,2.11,7.34,6.82,9.23s3.53,6.67,6.69,9.34c2.69,2.28,5.06,5,9.84,4.09A27.84,27.84,0,0,1,698.16,726.61ZM532.79,434.81c-1.07-1.6-1.51-2.88-2.52-3.68-4.56-3.6-9.57-6.89-7.62-13.07.24-.77-1.76-1.9-2.45-3q-3.6-5.58-7-11.24c-2.25-3.77-3.86-7.87-6.71-11.3s-7.61-5.79-8.72-10.76c-.58-2.62-6.33-4.27-7.77-7s-2.23-5.71-5.29-8c-2.61-1.92-5.3-3-8.19-1.43-2.53,1.41-4.32,3.18-7.95,3.42-3,.19-4.92,4.07-3,5.76,2.75,2.46,4.2,4.76,4.71,8.24.59,4,3,8,5.42,11.68s8.4,5.15,9.09,10.65c.5,4.05,8.22,5.4,9.33,10.37,1.22,5.49,8.24,7.45,12,11.49,3.16,3.42,3.22,8.37,8.4,10.8,1.34.63,2.27,1.81,3.43,2.7,4.25,3.26,6.45,3.06,11.52-1.41A27.64,27.64,0,0,0,532.79,434.81Zm364.79-72.08v11.64c5.79,2.89,5.41,7.55,4.71,12-.86,5.33,8.53,8.1,4.9,13.92,4.24,3.93,5.24,8.68,5.72,13.66.05.53,2.83,1.55,3.88,1.25,3.46-1,6.64-2.62,10.05-3.75,6.44-2.14,10.31-5.49,9.19-11.53-.78-4.22,1.64-8.63-3-12.64-4.07-3.48-.91-8.59-1.9-12.88-.12-.53-1-1-1.65-1.37-4.14-2.21-2.3-5.72-3.18-8.67s-4.82-5.69-4.29-8.08c1.31-5.87-6.82-8.37-6.31-13.69,0-.23-4.78-1.61-6.07-.91-3.26,1.76-5.63,4.56-8.67,6.64-2.68,1.83-3.75,3.85-3.39,6.68A62.75,62.75,0,0,1,897.58,362.73Zm-436.72-1.92c1.31-.56,2.6-1.14,3.93-1.66a36.78,36.78,0,0,1,6-2.19c6-1.15,2.88-2.84.65-4.67-3.28-2.68,0-6.46-1.87-9s-5.95-4.39-8.13-7c-2-2.44-1.59-5.86-5.11-8-3-1.82-5.7-3.85-6-7.72-.19-2.67-5.82-4.25-4.49-8.09-4.39-2.14-3.39-7.2-6.69-9.26-6.52-4.07-8.08-10.38-12.37-15.39-3.76-4.39-4-10.48-9.43-14.24-5.94-4.1-6.55-11.18-13.43-15-7.11-3.91-7.82-12.18-15.3-16.11,1.6-4.45-4.88-6.07-5.3-9.86-.13-1.15-.65-3-1.5-3.23a14.66,14.66,0,0,0-6.39-.16c-2.27.49-1.25,1.26-.06,2.73,5.76,7.08,8.15,15.91,17,21.38,1.79,6.57,8.25,11.56,9.88,18,1,3.82,1.09,7.14,5.19,10,5.19,3.63,11.27,7,9.86,14.21-.32,1.65,3.58,3.8,5.43,5.78,1.37,1.46,3.94,3.25,3.62,4.48-1.66,6.33,5.19,8.73,7.93,13,4.08,6.32,9.18,12.56,11.08,19.45,1.05,3.84,3.12,6.73,5.16,10,2.33,3.71,3.84,7.76,6.1,11.5C457.2,360.41,459.44,360.45,460.86,360.81Zm317.81-23.36H761.92c-10.3,6.95-22.57,2.67-33.88,3.87-1.57.17-3.76-.53-4.7.11-11.18,7.56-24.29,2.38-36.37,3.74-3.91.44-8-.09-11.94.17-1,.06-1.94,1.39-2.9,2.14.56.46,1.15,1.33,1.68,1.31,4.35-.18,6.75,2.54,10,3.88s7.88-.12,11.73.44c8.91,1.28,19.21-3.72,26.73,3.8h38.27c3.46,5,6.53.91,10.45.37,8.52-1.19,17.46-.34,26.23-.39,2.74,0,4.23-1.23,4.23-3.51v-3.87c0-8.28-4-11.93-13.26-12.05C785.05,337.42,781.86,337.45,778.67,337.45ZM550.83,438.63c.79,0,2,.28,2.32,0,5.41-5.14,12.74-3.57,19.56-4,1-.06,2.45-1.53,2.82-2.55a3.69,3.69,0,0,0-.55-3.58c-3.72-3.35-7.25-7.14-11.86-9.47-6-3-5.7-8.73-10-12.25-3.91-3.22-7.68-6.58-11.87-9.54-4.76-3.35-4.7-9-10-12.24-4.41-2.68-8.11-6.18-11.87-9.5-2.53-2.23-1.88-5.57-4.82-8.16-3.49-3.08-9.39-1.45-11.83-5.24-1.08-1.69-2.41-1.68-3.31.17-.54,1.11-1.16,2.73-.56,3.59,2.9,4.21,5.31,9.07,9.61,12.12,4.47,3.17,3.34,8.61,8.23,10.87,6.77,3.12,6,8.38,6.67,13.3,7.17,5,6.23,13.8,13.5,18.67,3.93,2.64,5.73,5.56,5.34,9.92C542,433.81,547.84,438.31,550.83,438.63Zm42.74-194.58v-.56c15.89,0,31.77,0,47.65-.06a2.11,2.11,0,0,0,1.58-1.32c0-.45-.91-1.15-1.58-1.32a21.57,21.57,0,0,0-4.48-.6c-3.19-.09-6.39,0-9.59,0H608c-7.2,0-14.4.24-21.57-.07-6-.26-10-5.33-17.26-4.07-6.88,1.18-14.32.25-21.51.25H506.89c-6.4,0-13-.81-19.13.21-7.78,1.29-12.87-3.84-19.64-4-9.57-.27-19.17-.13-28.76,0-.85,0-1.76,1.44-2.41,2.33-.1.13,1,1.26,1.6,1.26,3.29,0,6,.52,8.24,2.77,2.46,2.46,7.4.79,10,4,1.92,2.36,5.42,1.65,8-.47a13.34,13.34,0,0,1,3.22-1.65c4.7,5.36,11.6,2.9,17.6,3.25,9.12.53,18.47-1.31,27,3.69,2.35,1.39,7.51,1.05,10.67-2,3.41-3.27,6.85-1.87,9.81.87.52.48,1.12.92,1.69,1.38,3.11-4.31,6.58-3.25,10.17-.46,3.71-4.86,9.7-3.35,15-3.4C571.2,244,582.38,244.05,593.57,244.05ZM470,417c.25-4.25.68-8.51-4.93-11.71-5.81-3.31-6.16-9.48-9.5-14.14-4.56-6.36-8-13.4-15.87-17.82a6.4,6.4,0,0,0-4.27-.73c-2,.69-3.54,2.38-5.57,3.11-2.9,1-3.82-4.43-6.54-2.12-3.21,2.74-6.65,2.72-10.6,2.87-3.52.13-8.39-1.78-9.89,2.66-1.3,3.82,3.09,5.47,5.65,7.7a60.11,60.11,0,0,0,8.48,6.77c2.92,1.76,6.89,2.41,9.68,4.26,4.28,2.84,8,6.28,11.9,9.47,7.71-.69,9.62,6.85,15.09,7.6,6.5.9,8.74,4.95,13.11,7.3a4,4,0,0,0,3.12-1.17C470.34,419.92,470,418.51,470,417ZM325.81,814.17c1.13.92,1.69,1.77,2.26,1.78,9.57.11,19.17.54,28.69,0,8.24-.42,17.63,3.19,24.38-3.77,9.58,0,19.17.08,28.75-.13.83,0,2.24-1.9,2.28-2.94.07-2.48.64-6-1.06-7.25-5.28-3.91-8-9-11.76-13.61-.92-1.15-3.08-4.12-4.72-2.29-3.13,3.49-8.91,1.91-11.91,5.29-2.82,3.17-8.69-.15-10.87,1.7-3.52,3-8.07,3.33-11.94,5.13-5.12,2.37-10.38,4.94-16,6.08-3.82.77-7.48.75-10.26,3.53A101.39,101.39,0,0,1,325.81,814.17ZM881.14,711c7.79,2.93,12.53-5.29,19.51-3.75,8,1.76,12.5-4.1,19.26-4.85.83-.09,2.08-3.55,1.46-5-1-2.19-3.51-3.65-4.88-6.1-4.44-8-11.9-13.25-23.83-11.37-2.06.32-3.73,2.33-5.79,2.63-6.66,1-11.38,5.77-19,5.35-3.94-.21-7.05,4.16-12,4.45-2,.11-1.45,1.39.21,2.7,1.5,1.18,1.9,3.22,3.09,4.73C864.31,706.36,869.52,712.84,881.14,711Zm16.44-437.6c.91,2.67-1,5.73,1.39,8.93,4.28,5.63,9.64,11.13,8.64,18.46,6.25,2.69,3.25,8,5.23,11.86.4.78,2.69,1.49,3.94,1.34,7-.89,9.13-6.73,14.3-9.53-.34-5.66,2.61-12.12-1.76-16.72-3.55-3.75-4.22-8-2.48-10.6,3-4.54-10.36-6.77-1.42-10.91-.1-3.54-8.41-8.46-11.07-6.22-3.87,3.26-7.93,3.57-12.77,3.54-2.6,0-4.2,1.27-4,3.66C897.7,269.18,897.58,271.13,897.58,273.43ZM795.93,644.89c-1.59,0-3.18,0-4.76,0-2.87.1-5.28,3.4-4.1,5.53s3.93,3.36,5.11,6c3,6.68,6.23,13.8,11.8,19.06,5.1,4.82,8.34,10.19,11.63,15.56,1.48,2.4,1.66,4.68,5.66,4.38,3-.22,6,.61,8.79-1.56,3.79-2.92,7.64-9.06,4.77-11.66-3.27-3-3.5-6.81-6.36-9.54-3.59-3.42-8.45-6.06-11.52-9.72-2.81-3.36-3.68-7.75-5.92-11.48C808,646.52,803,644,795.93,644.89Zm41.54-7.79c4.76,0,9.87-.91,14.19.2,8,2.07,12.42-4.67,19.5-4.21.39,0,1.6-2.34,1.35-2.5-5.57-3.56-8.26-8.69-11.74-13.44a8,8,0,0,0-7.7-3.44c-3.82.4-9.33-.74-11.22.94-4.72,4.16-10.1,2.91-15.31,2.9-5.59,0-8.23,5.3-14.72,4.25-4.35-.71-3.36.15-2,4.77,2.73,9.54,10.06,11.65,20.57,10.57A70.41,70.41,0,0,1,837.47,637.1ZM705.6,655.53c-.5,4.48-.52,7.47,3.3,9.8,6.9,4.2,7.78,12.25,15.28,16.18-.13,3.42,1.78,6,5.07,8-1.7,7.45,11.83,8.56,10.14,16,3.39,2.74,6.55,5.71,10.27,8.12,1.52,1,4.29,1.25,6.36,1,2.45-.26,3.26-3.95,1-6.46-4.92-5.4-7.17-11.89-11.64-17.48-2.41-3-2.35-7.33-6.89-9.29-4.73-2-3.21-6.84-6.73-9.41s-2.24-7.15-6.66-9.51c-1.38-.74-.76-3.6-1.9-5-3.28-4.18-8.35-5.76-14.21-4.65C707.31,653.11,706.13,655.07,705.6,655.53ZM878.36,279.11c.25,4.91-1.87,10.36,4.81,13.8,0,5.14.24,10.29-.06,15.41-.34,5.7,7.9,9.42,5,15.78-1,2.25-.65,5.14,3.85,5.58,5.83.56,8.37-.46,10.42-4.27,1.07-2-.57-7.21.34-10.2,1.93-6.39-4.86-10.1-5.65-15.74a20.94,20.94,0,0,0-8.77-14.28c2.1-5-7.21-6.73-5.29-11.8.08-.21-1.94-1.09-3.08-1.36-.34-.08-1.46.81-1.5,1.31C878.26,275.25,878.36,277.18,878.36,279.11ZM906.57,803a32.64,32.64,0,0,1-2-2.68c-3.94-6.44-10.12-12.65-11.2-19.39-1.51-9.4-12.22-15.79-10.76-25.62-4.23-3.57-9.34-6.6-10.29-12.1-.17-1-2-1.92-3.27-2.73-1-.66-2.28-1.59-3.36-1.53-2.86.17-8,7.77-6.12,9.18,5.2,3.87,6,9.77,11.36,13.89,5.07,3.89,6.66,10.6,10.7,15.59,2.11,2.61.73,6.1,4.78,8.22,6.74,3.53,7.79,10.19,11.23,15.54.69,1.07,1.32,2.49,2.47,3s3.15.25,4.71.06C905.42,804.3,905.92,803.53,906.57,803ZM791.82,735.75a27.73,27.73,0,0,1,2.91,2.94c1.48,2,6.61,3.65,10.46,3.52,4.75-.15,9.53-.28,14.25,0s6.94-2.61,9.34-4.88c1.22-1.15,1.38-3.42,1.11-5.1-.16-1-2.08-1.82-3.18-2.74-3.88-3.27-3.88-3.2-15.92-2.94-7.12.16-14.25,0-21.36.19-.48,0-1.58,2.23-1.24,2.52C790.43,731.14,792.67,732.86,791.82,735.75Zm163.43-336c.8,0,2,.26,2.31-.06.73-.75,1.72-2.34,1.39-2.6-2.32-1.84-4.65-3.7-3.66-6.55,2.39-6.91-4.13-11.61-6.67-17.21-1-2.19-3-4-3.11-6.74-.38-7.5-8.47-21.86-15.16-27.85a15.94,15.94,0,0,0-1.68-1.14c-.75,1-2.12,2.08-2.14,3.13-.06,3.05-1,6.17,2.54,8.88,2,1.5,1.63,5.18,3.67,6.34,6.64,3.76-.38,12.06,8.09,14.86a64.59,64.59,0,0,0,.08,7.75,14.32,14.32,0,0,0,1.84,5.18c2.75,4.9,6.31,9.48,8.55,14.6C951.63,399.07,953.88,399.27,955.25,399.72ZM854.34,442.21c-2.31,6.63,8.36,11,4.81,17.83,4.78,2.35,4.45,6.12,5.05,10,.63,4.07,5.48,7,4.9,12.05-.38,3.26,4.76,5.68,4.86,10,.09,3.9,3.53,7.76,5.59,11.6a2,2,0,0,0,1.61.64c.69-.23,1.71-.91,1.65-1.31-.7-4.83,3-10.07-2.68-14.48-4.53-3.52,1.57-10.71-6.5-13.46-.57-.2-.41-2.52,0-3.73,2.4-7.33-7.45-12.39-5.43-19.6-2.83-3.59-5.57-7.22-8.54-10.73-.75-.9-2.21-1.4-3.34-2.09C855.65,440.06,855,441.13,854.34,442.21ZM738.71,755.54c-.56-.45-1.37-.82-1.63-1.37a36,36,0,0,0-11.66-13.34c-4.91-3.51-15.79-3.58-20.95.18-2.08,1.51-3.93,2.33-1.4,5.57,3.2,4.11,5.92,8.28,10.16,11.92,3.72,3.19,5.12,1.44,8.72-.06s9.14-.45,13.78-.79C736.79,757.57,737.72,756.28,738.71,755.54ZM840.45,232.38c-5.51,2.11-13.15-2.15-20.91,2.35-7,4.06-16.71.8-25.14,1.66-1,.1-2.49,1.93-2.35,2.81.25,1.67,1.39,4.57,2.4,4.64a170.73,170.73,0,0,0,18.93.16c6.69-.29,14.35,2.22,19.34-3.84,3.95,0,7.91-.14,11.84,0,4.9.22,6.68-5.61,12.25-4,.32.09,1.66-1,1.54-1.25-.44-.92-1.23-2.39-2-2.43C851.64,232.27,846.9,232.38,840.45,232.38Zm77,0c-2.52,0-5.88-.82-7.11.15-4.35,3.4-9.27,3.62-14.83,4.05-3.12.24-5.23,4.62-10,3.7-.21,0-1.67,2-1.3,2.55,2.58,3.67,5.4,7.23,8.31,10.73,1.4,1.69,2.88,2.13,5.14.32,1.43-1.16,3.93-1.71,6-2,3.81-.49,8.7.54,11.31-1,4.1-2.51.87-7.17,1.79-10.82a6,6,0,0,1,1.79-3.22C921.4,234.61,922.55,233,917.49,232.38ZM908.4,714.93c-5.61,0-11.66-1.07-16.68.31s-9.07,4.5-15,3.7c-.76-.1-1.88,1.38-2.69,2.22a6,6,0,0,0,1.63,1.31c2.51,1.36,3.46,4.12,7.48,4.23,14.74.37,16.7.07,36.87-7.83,1.31-.51,3.05-.23,4.52-.56.67-.14,1.15-.86,1.72-1.32-1.16-.68-2.28-1.9-3.49-2C918,714.8,913.2,714.93,908.4,714.93ZM878.36,610c0,.63-.17,1.39.18,1.86,2.71,3.58,6,6.93,8.15,10.72,1.89,3.33,2.91,6.8,6.7,9.34,1.77,1.18,1.86,1.28,3.56,0,5.6-4.32,6.46-4.74,2.37-10.6-2.23-3.2-1.75-6.11-1.56-9.05.23-3.65-1.73-5.88-4.71-8.11-1.84-1.38-2.86-1.88-5.2-.26-2.11,1.45-5.44,1.69-7.91,2.9C879,607.29,878.86,608.93,878.36,610Zm4.81-202.63c0,4.46-.31,8.94.26,13.35.11.91,3.82,2.47,5.34,2.14,5.17-1.14,8.64-5.43,8.83-9.53.2-4.43.88-8.94-4.82-11.76,0-5.1,0-10.19-.07-15.29,0-.47-1-1.39-1.38-1.33-1.16.17-3.26.89-3.21,1.08,1,3.81-3.42,5.39-4.66,8.05s-.29,6.28-.29,9.47Zm-591.76-4.48c-3.07.87-7.76,1.22-8.22,2.53-.95,2.72-.87,6.65,1,8.83,3.56,4.14,8.43,7.63,13.25,10.92,2.73,1.86,6.73,2.47,9.58,4.25,1.72,1.08,2.75,1.79,3.35.15s1.18-4.28.14-5.05A38.74,38.74,0,0,1,296.8,406C296.34,404.76,293.51,404.08,291.41,402.93ZM792.57,722.52c7.4,3.07,12.34-7,20.88-3.69.82-1.66,2.77-3.61,2.25-4.91-1.79-4.49-3.44-4.69-10.88-3.73a98.82,98.82,0,0,1-16.32.75c-4.88-.19-6.63,2.86-9.6,4.73-1.66,1.05-1.15,1.5.39,2.84C782.7,721.46,786.24,723.62,792.57,722.52ZM839.93,405.6c0,1.91-.57,4,.13,5.69,1.11,2.77,3.75,5.2,4.49,8,.8,3,0,6.34.34,9.49.1.78,2.24,2,3.4,2,3.67-.09,8,1.39,10.69-1.85a3.79,3.79,0,0,0,.07-3.7c-1.13-2.2-5.64-2.94-4.65-6,2.11-6.57-8.42-10.72-4.86-17.47-2-.66-4-1.65-6.07-1.82a4.63,4.63,0,0,0-3.41,2C839.47,402.89,839.93,404.33,839.93,405.6ZM340.23,388c-5.6,0-11.2,0-16.8.06-.58,0-1.29.79-1.65,1.33a1.4,1.4,0,0,0,.21,1.29c6,.7,10,5.95,16.61,5.06,5.89-.79,10.38,1.26,14.87,3.88,1.75,1,4,1.45,6.11,2.1,1.11.36,2.26.63,3.39.94.29-1.76,1.26-3.69.67-5.22s-4-3-4-4.41c0-4.5-2.69-5.38-7.44-5.08C348.25,388.24,344.23,388,340.23,388ZM801.11,220.7v.05c-5.5,0-11-.14-16.48.13-.86,0-2.35,2-2.19,2.88.29,1.64,1.81,4.58,2.46,4.51,8.08-.78,17.31,3.26,24.19-3.54.57-.56,4.86.26,6,1.38,3.77,3.73,8.55,2.06,13,2.19.53,0,1.27-.77,1.6-1.31.18-.31-.22-1.25-.44-1.27-6-.52-9.76-5.59-16.33-5.07C809,221,805,220.7,801.11,220.7Zm-18,408.62c-1.24.09-5.08.21-8.81.8-.76.12-1.71,2.12-1.51,3.12.64,3.09,5.83,7.65,8.66,7.72,5.48.12,11.07.58,16.43-.11,6-.77,1.73-2.72.31-4.59-5.2-6.84-5.09-6.9-10.15-6.94C787.23,629.31,786.45,629.32,783.09,629.32Zm52.19,70c-1.62,0-3.19,0-4.76,0-4.64.09-5.26.45-2.4,3.77,2,2.35,1.9,4.51,2.24,6.93.71,4.94.83,5,7.11,4.87,3.14,0,6.45.47,9.33-.22,1.34-.32,2.74-3,2.49-4.46s-3.41-2.87-3.57-4.41C845.14,700.27,841.47,698.6,835.28,699.37ZM667.52,607.46a16.6,16.6,0,0,0,2.14,2.61c3.82,3.19,7.22,6.95,11.74,9.26,5,2.57,10.86,4,14.63,8.14.58.63,2.14.66,3.25,1,.34-1.72,1.75-4.2.84-5-4.59-4.31-9.2-8.91-15-12a50.27,50.27,0,0,0-13.61-5.4,4.57,4.57,0,0,0-2.27.11A6.79,6.79,0,0,0,667.52,607.46Zm158-236.63h.08c0,2.52-1.1,5.56.26,7.42,1.9,2.57,5.17,4.34,4.88,8,0,.5,3.8,1.76,5.78,1.68,2.32-.1,3.77-1.63,3.47-3.91-.25-1.88.84-5-.2-5.48-5.74-2.85-3.48-9.69-9.68-12a11.41,11.41,0,0,0-3.3-.82c-.39,0-1.15.86-1.23,1.38A26.48,26.48,0,0,0,825.51,370.83Zm14.35-112.11c-.67-.58-1.8-2.47-3.48-2.88-8.91-2.17-16,2.43-23.81,4.61-1.93.54-1.25,1.44.37,2.74,3.34,2.69,3.51,2.39,10.32.54,2.91-.79,5.74-.89,8.14-2.9,2.78-2.35,3.25,1.2,5,1.78C839,263.5,840.1,262.66,839.86,258.72Zm12.08,460.11c-1.59,1.29-2.77,2.16-3.83,3.11-5,4.5-5,5.33,0,9.32a26.87,26.87,0,0,0,3.4,2.7c2.41,1.39,11.13-2.09,11.4-4.61a3.64,3.64,0,0,0-1.34-2.68C858.43,724,855.15,721.43,851.94,718.83ZM936,676c0,1.9-.95,4.86.16,5.52,6.33,3.71,4.58,8.91,4.56,13.75,0,2.23,1.08,3.57,3.45,4a7.31,7.31,0,0,0,4.37-.46c3.64-2-.64-2.66-1.27-4-.54-1.08-1.51-2.14-1.58-3.24-.22-3.15.81-6.56-.34-9.42-1.06-2.67-5.74-4.15-4.69-8,.08-.31-1.95-1-3-1.51C937.12,673.81,936.57,674.89,936,676ZM758.3,661c-1.88-3.6-3.47-7.48-6-10.94-.76-1.05-4.47-1.69-6-1.1s-3,3.77-2.33,4.46c3.62,3.81,7.92,7.2,12,10.74a9.23,9.23,0,0,0,1.6-1.34A6.73,6.73,0,0,0,758.3,661Zm22.28,88.35c.56-1.11,2-2.59,1.55-3.26-3.2-4.78-4.82-10.25-10-14.21-1.67-1.3-2.37-1.77-3.47-.16-.35.53-1,1.25-.79,1.64,2.89,5.59,5,11.57,11,15.73C779.27,749.39,780,749.31,780.58,749.39ZM948.07,244.05c3.14,0,6.29.16,9.39-.11.7-.07,1.36-1.58,1.68-2.51.09-.28-1-1.16-1.6-1.22-6.61-.6-14.22,2.09-19.16-3.9-.79,1-2.35,2.1-2.19,3,.29,1.64,1.21,4.21,2.54,4.53C941.62,244.54,944.93,244.05,948.07,244.05Zm25.07,397.14a76.31,76.31,0,0,0,9.15-.87c.86-.18,1.41-2,1.74-3.08a3,3,0,0,0-3.36-3.85c-4.87,1-9.47,2.79-14.15,4.35-.66.22-1.12.86-1.67,1.31.55.45,1,1.17,1.67,1.29C968.71,640.74,971,640.93,973.14,641.19ZM912,615.79a45,45,0,0,1,0-5.69c.29-2.25-1-3.57-3.41-4.05a7.24,7.24,0,0,0-4.37.46c-3.64,2,.24,3,1.34,3.9,3.26,2.78.6,6.09,1.7,9,.27.71,1.93,1.19,3.06,1.48.35.09,1.46-.76,1.55-1.27A20.82,20.82,0,0,0,912,615.79ZM761.7,726.61c4.94,0,6.81-1.75,6.11-4.79-.46-2-1.72-3.24-4.71-3.05-3.62.24-5.72,1.86-4.71,4.81C758.86,725,760.94,726,761.7,726.61ZM556.34,349.2c1.51-.51,3.94-.93,3.95-1.39.09-3.32-6.78-7.28-11-6.36-.76.16-1.7,2.3-1.5,2.43C550.63,345.7,552,349.24,556.34,349.2Zm-197,428c2.89,0,4.54.25,6-.07a16.26,16.26,0,0,0,3.72-1.88c-1.23-.64-2.38-1.68-3.71-1.86a26.39,26.39,0,0,0-7,0c-1.33.18-2.48,1.22-3.71,1.86ZM926.41,605c0-1.26.32-2.6-.09-3.77s-1.51-2-2.31-3c-.8,1-2.07,1.93-2.3,3a14.24,14.24,0,0,0,0,5.67c.23,1.07,1.5,2,2.3,3a26.56,26.56,0,0,0,2.35-3C926.66,606.34,926.41,605.61,926.41,605ZM835.13,431c-.49-1.09-1-2.17-1.46-3.25a17.31,17.31,0,0,0-3.23,1.14,29.71,29.71,0,0,0-3.3,2.6l-1.63,1.33c1.21.64,2.35,1.73,3.63,1.86C833.3,435.09,834.87,434,835.13,431Zm124.92-79c0-1.26.31-2.6-.09-3.77s-1.51-2-2.32-3c-.8,1-2.07,1.92-2.29,3a14.24,14.24,0,0,0,0,5.67c.22,1.07,1.49,2,2.29,3a26.07,26.07,0,0,0,2.35-3C960.3,353.38,960.05,352.65,960.05,352ZM741.43,645.36c2.24-.62,4.32-1.15,6.35-1.8.19-.06.26-1.06,0-1.26-2.59-1.84-10.1-1.84-12.69,0-.27.2-.2,1.2,0,1.26C737.1,644.21,739.18,644.74,741.43,645.36ZM968.89,312.77c0-.44.13-1-.14-1.3-1.8-2-6.57-1.9-7.9.09a1.19,1.19,0,0,0,.11,1.29C962.75,314.8,967.49,314.72,968.89,312.77Zm6.25,398.54c1-.83,3.39-2.14,3.14-2.77-.82-2.1-5.92-2.09-7.71-.13-.28.3-.32,1.17-.12,1.25C971.71,710.21,973.06,710.6,975.14,711.31ZM963.21,371.86c2.41-1.14,2.5-5,.09-6.43a2.18,2.18,0,0,0-1.59-.09c-2.45,1.08-2.52,5-.11,6.4C962,372,962.66,371.83,963.21,371.86ZM714.41,730.19l-4.22,2.26c1.22.65,2.35,1.63,3.67,1.85a11.09,11.09,0,0,0,4.29-.57c.65-.17,1.11-.84,1.65-1.28ZM656.58,242.73c0-.45.13-1-.15-1.31-1.79-1.95-6.56-1.9-7.9.09a1.23,1.23,0,0,0,.11,1.29C650.43,244.75,655.17,244.68,656.58,242.73ZM806,317.44a42.36,42.36,0,0,0,2,3.8,2.26,2.26,0,0,0,1.56-.09c2.41-1.45,2.43-5.59-.16-6.25C808.61,314.7,807,316.64,806,317.44Zm13.11,27.18c2.4-1.14,2.5-5,.09-6.43a2.21,2.21,0,0,0-1.6-.09c-2.45,1.08-2.52,4.95-.11,6.4C817.82,344.72,818.52,344.59,819.07,344.62ZM432.28,768.09c1.4,1.95,6.14,2,7.93.07a1.21,1.21,0,0,0,.12-1.29c-1.34-2-6.11-2-7.9-.09C432.15,767.08,432.31,767.64,432.28,768.09Zm-20.58,5.53,5.4-2.26c-2-.65-3.93-1.63-6-1.81-1.12-.1-2.42,1.16-3.63,1.81ZM918.44,652.05c.55,0,1.25.1,1.62-.12,2.41-1.45,2.34-5.32-.11-6.4a2.21,2.21,0,0,0-1.6.09C915.94,647.07,916,650.91,918.44,652.05Zm-10.86-7.64L904.79,641c-.8,1-2.36,2-2.24,2.94.23,1.66,1.44,3.24,2.24,4.85ZM369.74,222.09c.56.82,1.14,1.66,1.71,2.51.54-.44,1.59-1,1.51-1.28a11.44,11.44,0,0,0-1.51-2.62ZM348.12,776.64l1.71-1.39a16.73,16.73,0,0,0-3.22-1.21c-.4-.07-1.05.78-1.58,1.21Zm-20.6,1.12-1.71,1.39a16.48,16.48,0,0,0,3.22,1.21c.4.07,1.05-.78,1.58-1.21Zm132.82-14.18c-.53-.43-1.18-1.29-1.58-1.22a17.45,17.45,0,0,0-3.22,1.22c.53.43,1.18,1.29,1.58,1.22A17.19,17.19,0,0,0,460.34,763.58Zm19.92-.56,1.7,2.5c.54-.43,1.6-.95,1.51-1.27a11.39,11.39,0,0,0-1.5-2.62Zm88.88-257.67-3.09,1.39c.53.43,1.18,1.28,1.58,1.21a16.48,16.48,0,0,0,3.22-1.21ZM575,669.62l-1.71-1.38a11.17,11.17,0,0,0-1.51,2.61c-.08.32,1,.84,1.51,1.28C573.83,671.28,574.41,670.44,575,669.62Zm4.8-255.72-1.71-2.51c-.53.43-1.59,1-1.5,1.28a11.12,11.12,0,0,0,1.5,2.61ZM598,668.8l-3.09,1.38c.53.43,1.18,1.29,1.58,1.22a16.52,16.52,0,0,0,3.22-1.22Zm13-3.89-1.71,1.38a17.55,17.55,0,0,0,3.23,1.22c.39.07,1-.79,1.58-1.22Zm53.55-420.86c.53-.43,1.59-1,1.5-1.28a11.54,11.54,0,0,0-1.5-2.61c-.53.43-1.59,1-1.5,1.28A10.78,10.78,0,0,0,664.55,244.05Zm15.11-3.33-3.1,1.39c.53.43,1.18,1.29,1.58,1.22a17.55,17.55,0,0,0,3.23-1.22Zm62.46,489.22,1.71-1.39a16.82,16.82,0,0,0-3.23-1.21c-.39-.07-1,.78-1.58,1.21ZM802.18,307.7c.56.82,1.13,1.67,1.71,2.51.53-.43,1.59-1,1.5-1.28a11.33,11.33,0,0,0-1.5-2.61ZM808,777.76l-1.71,1.39a16.82,16.82,0,0,0,3.23,1.21c.39.07,1-.78,1.58-1.21ZM924.7,329.11l1.71-1.39a16.48,16.48,0,0,0-3.22-1.21c-.4-.08-1.05.78-1.58,1.21Zm-15.1,234c.53-.43,1.59-1,1.5-1.28a11.54,11.54,0,0,0-1.5-2.61c-.54.43-1.59,1-1.51,1.28A10.83,10.83,0,0,0,909.6,563.16Zm-1.71,6.4L909.6,571a11.39,11.39,0,0,0,1.5-2.62c.09-.32-1-.84-1.5-1.28Z"/></svg>