<svg id="Layer_1" data-name="Layer 1" xmlns="http://www.w3.org/2000/svg" viewBox="0 0 1200 1200"><title>BB_Artboard 36</title><path d="M863.57,119.32c-1.34-3.73-3.31-6.82-.42-8.81,3.42-2.36,1.7-4-.43-6-.3-.28.29-2.19,1-2.76,2-1.65,1.51-2.73,0-4.52-1.15-1.37-2.45-4.22-1.81-5.17,1.78-2.66,4.3-6.28,6.93-6.65,6.74-.94,13.7-.35,20.57-.3,4.69,0,5.23.72,5.27,6.23,0,3.43,0,6.87,0,10.3,0,4.81.2,9.63-.06,14.43s1.17,8.64,3.75,13c2.12,3.55.17,9.37.49,14.16.52,7.81-2.64,16.31,4.06,23-.18,4.05,0,8.16-.69,12.12-.33,1.91-4.54,2.57-1.29,6,3.08,3.22,2.9,8.87,7.45,11.2.58.29,2.12-.59,2.82-1.31,2.16-2.24,4.8-3.07,7-.93,4.76,4.64,9.28,4.06,14.17.5a7,7,0,0,1,3.49-1.44c4.11-.18,8.24-.07,12.36-.07,6.19,0,12.48-.72,18.52.2s10-3.85,14.82-4c18.52-.7,37.09-.37,55.63-.23,5.88,0,10.25,6.06,16.67,4.62.35-.08,1.21.83,1.34,1.4.09.37-.67,1.34-1.11,1.38-5.86.48-9.7,6.31-16.58,5.24-4.88-.75-10.74-2.27-15.46,2.07-4.06,3.73-9.12,1.29-13.7,1.63-5.47.4-11,.1-16.48.1-4.81,0-9.63-.13-14.43,0-4.59.15-7.2,5.68-12.77,4.28-3.87-1-8.19-.19-12.31-.19-4.81,0-9.63.18-14.43-.05-6.08-.3-10,6.18-16.91,4.44-5.11-1.29-10.86-.21-16.3.14-.67,0-1.48,2-1.76,3.24-1.49,6.49,3.77,10.8,5.77,16.14.4,1.08,5,.39,7.62.88,2.14.4,3.5,1.82,3,4.29-.81,4.43-8.32,8.45-.87,13.51a10.94,10.94,0,0,1-1.26,2.8c-3.88,6.89-7.49,13.72-6.24,22.22.7,4.7.37,9.61.06,14.4-.29,4.35,5.58,5.77,4.34,10.7-.81,3.23-.15,6.83-.15,10.27,0,4.12-.84,8.47.21,12.3,1.34,4.93,5.06,8.94,4.09,14.87-.87,5.36-.18,11-.18,16.46s.44,11-.14,16.47c-.44,4.15,3.39,5.67,4.09,8.65.76,3.26-1.21,7.85.43,10.08,5.39,7.33,3.33,15.37,3.91,23.21.38,5.15-2.16,11,3.49,15.1.73.53.55,2.5.56,3.8,0,6.87,0,13.74,0,20.61,6,5.3,4,12.39,4,18.9,0,4.31,5.53,5.73,4.41,10.7-.89,3.92-.18,8.21-.18,12.33,7.23,5,1.39,13.5,4.46,18.7,6.11,10.33,2.75,21,3.73,31.47.49,5.17,4.69,9.2,10.55,9.63,3.88.29,8.34-1.54,11.13,3a1.46,1.46,0,0,0,2.76-.75c.3-13.71.27-27.42.35-41.13-5.69-3.72-4-9.52-4.1-14.78-.11-5.49,0-11,0-16.48,0-10.31.15-20.62-.05-30.92-.11-5.78,1.81-12.14-3.79-16.72,6.12-3.22.87-6.07-.25-9.08a7.36,7.36,0,0,1,0-2.05c-.14-2.63,4.61-2.87,3.06-6.09-.83-1.73-2.9-3.28-2.92-4.92-.22-16.49,0-33-.22-49.46,0-3.38,2.78-4.34,4.14-6.51-7.8-6.55-3.07-15.35-3.89-23.07-.79-7.47-.17-15.1-.17-22.65,0-8.25-.08-16.49,0-24.73,0-3.92-1-7.94,3-11.26,1.46-1.22.92-5,1-7.65.15-3.43.46-6.94-.1-10.28-.47-2.86-2.07-5.53-3.17-8.28,3.34-2.15,3.53-5.41,3.34-8.94s0-6.86,0-10.3,0-6.87,0-10.3c0-2.61,0-5.22,0-8.8,10.47,0,20-.06,29.45,0,2.27,0,3.8,1.38,3.44,3.88-.48,3.37,3.5,4.19,3.77,6.52.16,1.33-2.94,2.79-3.59,4.55s-.15,4.06-.15,6.12q0,56.68,0,113.35c0,3.93-1.27,8.34,3.17,11.13a5.44,5.44,0,0,1-1.18,2.76c-3,3-2.7,5.74.28,8.55,3.25,3.07,2.32,6-.78,8.42-1.64,1.28-1.61,1.71-.25,3.06s2.72,3.27,2.71,4.95c0,6.52,2,13.6-4,18.9.74,5.12-2.08,10.69,3.13,15.31,2.09,1.85,1.48,6.13,4.41,8.48.84.68.39,3.73-.27,5.37-3.48,8.67-4.19,14.08-1.94,20.87.59,1.78,2.75,3.3,2.78,5,.25,11.67.44,23.37-.12,35-.11,2.31-5.36,3.63-.88,7.46,5.35,4.57,5,5,.2,10.07-2.38,2.51-2.43,2.54-.53,5.82s2,7.54,5.43,10.25c.55.43-.66,3.64-1.62,5.23s-2.77,2.39-.51,4.53c1.27,1.19,2.63,3.92,2.09,5.08-1.76,3.78-6.6,7.66,2.63,7.88,1.49,0,2.76,2.93,4.42,4.12s1.54,1.67,0,3.07a8.09,8.09,0,0,0-2.61,5c-.3,6.86-.21,13.74-.09,20.61.06,3.46-1.35,6.08-2.82,9.17-1.81,3.81-.67,9-.81,13.63,5.16,3.21,3.6,8.38,3.5,12.94-.08,3.25,3,4.59,3.46,6.79.39,1.75-3,4.1-3.18,6.29-.34,5.21-1.23,10.42,3.65,15.07,2.17,2.07-.46,7.3,2.94,11.12,2.14,2.41,1.33,7.64,1.4,11.61,0,3.47-.08,6.77,3.22,9.07a4.23,4.23,0,0,1-1.09,2.75c-3.27,2.68-1.79,6.27-2,9.49-.13,2,1.62,2.58,3.67,1.31,1-.63,2.77-2,2.81-1.91,5.21,6.78,9,2.84,13-1.46s4.38-4.3,9.81-.4c2,1.44,4.91,2,5.5,1.18,5.33-7,12.69-3.13,19.09-3.88,3.71-.44,5.5,3.51,2.5,7.05-4.75,5.59-3.39,11.27-1.3,16.79.92,2.43,4,4-.91,4.92-1.25.24-3.36.37-3.57,1-1.63,5.15-3.56,11.27-9.48,10.94s-9.15,5.74-14.81,4.52a3,3,0,0,0-2,0c-3.61,2.4-7.15,4.92-10.71,7.41-2.63-4.5-7.07-3.49-11-3.11-1,.1-2.8,3.18-2.48,4.46.75,3,3,5.67,3.79,8.69.66,2.57,0,5.46.16,8.2.21,4.57-1.6,9.73,3.57,12.94.18,4.05.1,8.13.58,12.14.7,5.76-2.35,12.17,3.6,17.19,1.39,1.17.35,5.2.47,7.9.31,6.41.32,6.44,7,6.56,3.43.07,6.88-.12,10.3.06,2.57.13,7.32,5.75,7.41,8.52.08,2.06-.22,4.15.06,6.17,2,14.69-3.86,25.9-14.8,35.15-3.48,2.94-2.06,6,1,8.39,1.67,1.28,1.55,1.66,0,3.07-1.32,1.21-2.66,3.32-2.58,5,.19,4.49-1.84,9.37,2.84,13.33,1.48,1.24.82,5,1.12,7.64.52,4.5-1.53,9.37,3.25,13.23,1.43,1.16.52,5.09.9,7.72.82,5.76-2.15,12.11,3.47,17.24,1.41,1.3.31,5.19.66,7.85.92,7.08-3.12,15.1,3.9,21,.06,4.1,0,8.21.23,12.29.39,5.82-2.3,12.45,4.08,16.84l.06,16.46c7.3,5.85,2.88,14,4.08,21,.88,5.16-3.84,6.72-6.15,9.83-6.61-.08-9,4.07-10.54,9.73-.32,1.21-2.91,2.35-4.59,2.58-6.35.89-10.3-4.76-15.83-6.22,3.94-4.11-8.52-7-.86-11.37-.89-1.46-1.51-3.2-2.71-4.32-3.09-2.87-5.6-5.7-4.75-10.47.74-4.15-.94-7.35-3.56-11-2-2.71-.27-8-.62-12-.09-1.06-2.28-1.84-2.58-3-1.64-6.17-7.52-11-5.59-18.35,1.28-4.91-1.76-8.61-3.84-12.81-2.52-5.09-6-10.33-4.38-16.74,1.11-4.4-5.15-5.87-4.24-10.68.75-4,1.71-9.28-.21-12.08-2.92-4.25-4.32-8.1-3.76-13-4.91-3.1-4.92-8.08-4-12.69,1-4.88-4-6.42-4.5-10.66-.86-7.68-1.42-7.63-7.77-7.66-3.44,0-6.91.32-10.3-.07-6.22-.73-9.91,6.43-16.93,4.47-5.08-1.42-10.91-.45-16.35,0-.82.07-2.43,4-1.82,5,2.19,3.37,4.23,6.3,4.19,10.79,0,2.85,3.18,5.61,3.69,8.62.69,4-.34,8.3.34,12.31.52,3,3.13,5.63,3.81,8.66.73,3.25.29,6.77.37,10.18,5,2.63,2,5.73.5,8.74,4.47,2.61,3.62,7,3.3,11s3,6.09,3.6,8.78c1.22,5.7,7.5,10,4.73,16.66-3,7.28,6.11,11.87,4.13,18.91,3.15,4.34,5,9.11,4.64,14.56,5.6,2.77,1.73,9.13,4.5,12.51,6,7.36,2.29,15.67,2.94,23.47.15,1.84-3.27,4-5.12,6-.41.43-1.24.91-1.69.77-9.09-2.86-16.11,6.12-25.12,4.3-3-.62-4.39-1.26-5.07-4.64-.88-4.3-4.89-7.48-4.11-12.78.67-4.61.07-9.47-.5-14.16-.24-2-1.68-1.86-2.84-.15-.69,1-2.59,2.56-2.76,2.42-2.1-1.75-4.55-3.46-5.78-5.78-1.39-2.59-.07-5.27,2.47-6.93,1.67-1.1,1.51-1.75-.15-3-1.27-1-3.68-2.34-.82-4.29,2.15-1.46,3-4.88,6.44-.43,0,5.93-.25,8,.11,9.87.16.89,1.45,1.59,2.33,2.26.07,0,1.26-.85,1.29-1.34.22-3.9.43-7.82.29-11.73a4.27,4.27,0,0,0-2.09-2.93c-1.82-1-2.35-.13-2,1.9s.07,3.94.07,2c-.49-5.13-.7-7-1.51-7.33-1.81-.68-3.91-.55-5.88-.76-2.63-.27-6.57.4-7.63-1-2.58-3.48-4.81-7.83-5.34-12.06-.66-5.28-.79-10.1-4.15-14.9a31.3,31.3,0,0,1-5.34-16.27c-6-4.85-2.85-11.54-2.85-17.25,0-5.51-2.18-8.84-5.82-12.18a8.27,8.27,0,0,1-2.58-5c-.37-5.27.81-10.87-4.24-14.77,1.11-5-1.36-8.92-4.13-12.71,2.89-6.12-4.36-9.37-4.25-14.79,0-.86-1.51-2.19-2.58-2.54a6.31,6.31,0,0,0-3.88.38c-1.91.75-1.89,1.78-.39,2.89a24.48,24.48,0,0,1,2.78,2.88c-1.1.66-2.18,1.86-3.3,1.89-6.86.18-13.74.27-20.6,0-4.2-.15-5.87,3.11-8,5.45s-1.3,4.92,1.06,7c4.29,3.71-.17,10.79,5.65,14.35,1.3.79,1.2,5.36.41,7.76-2.2,6.73,4.33,10.91,4.28,16.89-.05,5.49,0,11,0,16.48,8.41,4.92-.16,16.4,8.24,21.32.74,5.12-1.95,10.58,3.11,15.31,3.15,3-1.16,9.7,4.54,12.43.2,4.73,1.51,9.74.36,14.12-2.26,8.67,5.85,14.87,4.5,23.11-.11.68,1.75,2.44,2.63,2.4,4.63-.24,5.92,2,5.51,6.17-.47,4.78-.66,9.57,4.09,12.72.05,4.1-.28,8.26.32,12.27.25,1.68,3.29,2.89,3.65,4.6,1.17,5.68,5.79,10.2,4.44,16.84-1.62,7.94,7,14.52,3.95,23,6.7,6.72,3.37,15.24,4.12,23,.49,5.07.07,8.61-6.67,9.59-4,.59-5.26,8-11.29,7.37-2.47-.27-2.69,5.51-5.93,2.72-4.3-3.68-12.88-3-13-10.61-.06-5.45-2.06-8.87-5.74-12.2a10,10,0,0,1-2.62-5c-.22-1,1-2.25,1.61-3.35a14.28,14.28,0,0,0,1.4.65c1.53.4,1.94,4.62,4.22,1.62.9-1.18.71-3.87,0-5.4-.82-1.76-2.81-3-4.21-4.46-1-1.12-1.84-.85-3,.74-1.24,1.78-3.4,2.75-4.17.18-1.09-3.66.67-7.56-2.76-11.39-2.14-2.4-.85-7.68-1.63-11.56-.36-1.77-2.58-3.14-3-4.91-1.92-8.8-10.63-15.06-9.28-25-5.19-3.86-3.19-9.69-4.35-14.73s-5.65-9-4-14.8c-6.79-2.68-1.61-10.57-5.9-14-4.79-3.79.77-11.37-5.76-14.17-.21-3.34.15-6.86-.77-10-1.64-5.58-4.45-10.55-4.33-16.89.1-4.84-6-8.86-3.79-14.77-4.74-3.15-5-8-4-12.69,1.1-4.92-4.43-6.34-4.42-10.69s1.83-9.34-3-13.22c-3.13-2.53,1.16-8.18-3.05-11-4.68-3.13.38-9.28-4.27-12.74-3.86-2.86-1.33-7.62-1.89-11.5-.61-4.25-5.1-8.68-9.31-8.73-6.87-.09-13.75.18-20.6-.11a11.51,11.51,0,0,0-9,3.49c-.52.49-3.89-2.81-6.15-3.19-1.49-.25-3.7,1.24-4.93,2.57-1.39,1.49-1.89,1.68-3.05-.13-1.64-2.55-4.65-4-6.85-2.19-2.44,1.94-6.38,3.61-6,7.66.64,6.43-2.68,13.55,3.84,19.14,1.36,1.17.2,5.27.2,8,0,4.13-.14,8.25,0,12.37.18,3.89-.62,7.58,2.71,11.38,2.13,2.42,1,7.66,1.38,11.64.06.64.08,1.66.44,1.83,6.19,3,1.56,10.3,5.71,14.22,1.24,1.18,2.29,3.69,1.92,5.23-1.14,4.8,4.12,6.86,4.18,10.7.13,7.95,2.14,16.69-6.88,21.84-1.57.89-1.34,1.85.4,2.92,2.21,1.37,3.13,4.1,6.36,4.63,6.23,1,8.85,5.23,8.51,11.53-.22,4.11.21,8.26-.12,12.36-.24,2.94,1.88,6.69-2.33,8.6-1-2.35-1.78-4.78-3-7-.91-1.68-3.53-2.39-1.66-6.9.4-1.24-.52-.69-1.15.1a1.77,1.77,0,0,0,0,1.73,1.72,1.72,0,0,0,1.73,0,8.17,8.17,0,0,0,1.88-2.43c.08-.15-.8-.82-2.47.59a8.48,8.48,0,0,1-6.28,1.9c1,.64,1.65,0,.92-1.91a2.48,2.48,0,0,0-1.24-1.36,7.65,7.65,0,0,0-3.47-.76c-1.1.14-2.1,1-3.15,1.61.72.81,1.29,2,2.17,2.32,1.14.4,2.53.1,4.77.1,1,3.27.25,6.64,3.7,9,2.76,1.89.86,5,1.38,8.4,0,.31.24-.54-.07-.85a1.79,1.79,0,0,0-1.74,0c-1.35,1-3.05,2.13-.57,3.58.33.19,1.56-1.15,2.38-2.71,8.35-.63,8.56-.44,8.25,6.43,0,.68.24,1.5-.06,2-.61,1.09-1.57,2.9-2.28,2.85-4.28-.26-5.85,1.25-6,5.72-.3,6.86-.71,6.47-6.6,6.91a18.5,18.5,0,0,1-12.42-3.62c-4.22,6.19-6.51.52-8.59-1.81-2.24-2.51-.5-8.7-7.1-7.2-.51.12-2.23-2-2.13-2.87.72-7.1-.13-13.37-6.49-18a6.06,6.06,0,0,1-1.72-5.25c1.32-4.86-4.44-6.65-4.2-10.65.27-4.33-.37-8-4.2-10.63.23-6-6.64-10.12-4.2-16.8,1.06-2.9-2.11-4.68-2.9-6.94-2.09-6-6.54-11.13-5.51-18.41.71-5-5.8-8.52-4.2-14.77.6-2.34-4.78-4.39-3.85-8.49a6.39,6.39,0,0,0-2.55-7.14c-.56-.38-1.39-.94-1.4-1.44-.13-4.78.11-9.58-.18-14.35-.28-4.5-5.81-7.26-4.15-12.7,1.31-4.27-2.85-7.34-3.55-10.69-1-4.72-3.72-7.9-6.8-9.32-3.38-1.57-8-.45-12.14-.35-1.38,0-6,6.46-5.2,7.07,4.91,3.59,2.24,8.76,3.13,13.16a9.66,9.66,0,0,0,2.68,5c1.54,1.4,1.64,1.78-.05,3.07-3.06,2.32-3.65,4.79-1.18,8.51a61,61,0,0,1,7.39,15.38c6.42,3.29.5,12.35,7.24,15.49a6.44,6.44,0,0,0-.78,1.46c-.38,1.52-4.76,2.06-1.58,4.24,3.72,2.55,2.58,7.13,5.38,10.34,2.12,2.42.89,7.64,1.48,11.56s5.22,5.88,4.2,10.65c-.69,3.28.2,6.86-.23,10.23-.38,3,6.5,3.67,2,7.69-4.22,3.79,3.19,4.35,2.36,7.78-.74,3.1-1.1,6.88,2.51,9.12,2.28,1.41,1.39,3.65,1.41,5.57.08,8.21.16,16.43,0,24.64a8.29,8.29,0,0,0,2.85,7.11c2.74,2.46-1.44,2.74-1.7,4.3a43.85,43.85,0,0,0-1,7.77c0,3.5-.14,6.6-3.31,9-2.17,1.62-3.65,4.22-5.91,5.65-3.34,2.11-2.12,7.56-4.39,8.22-5,1.45-10.58,1.15-15.92,1.28-2.59.06-7.58-5.53-7.62-8.24-.08-5.48,0-11,2-24.7.4-11.22,4.23-16.25.32-20.26-4.49,4.21-1.7,9.63-2.29,14.47-.48,4,.12,8-.18,12-.16,2,.21,2.92,2,1.93a4.43,4.43,0,0,0,2.06-3c.24-4,.1-8-2-5.15-3.24,7.78-5.11,7.6-5.46,6.76-1.72-4.08.89-9.7-4.48-12.55-.48-4.6.56-10.37-1.83-13.52-3-3.94-3.11-7.67-2.47-11.35,1-5.92-2.88-9.92-4.08-14.85-1.11-4.53-.29-9.53-.32-14.32-6.95-5.11-2.14-12.86-4.3-18.82-1.79-4.92-5.09-9.23-3.85-14.86,1.11-5.06-2.36-8.57-3.88-12.8-1.7-4.74,1.92-11-4-14.84l3.53-4.37c-6.92-2.71-1.36-10.57-5.57-13.94-4.57-3.66,2.25-6,.88-7.18-3.83-3.21-3.3-7.08-3.4-11.1-.32-13.31-2.3-15.3-15-15.35-4.8,0-9.69.54-14.39-.14-6.38-.93-11.39,2.23-16.85,4.23-2.06.75-3.68,1.64-3.19,4.21.74,3.88-2,8.61,1.58,11.61,4,3.34.57,9.2,3,10.95,5.55,3.92,1.41,10.69,5.61,14.35s-.45,11.19,5.79,14.09c.16,4.06-1.26,9.43.8,11.89,4,4.81,3.7,9.77,3.77,15,.06,4.12-.5,8.32.18,12.32.52,3,2.74,5.7,3.88,8.65.46,1.19.08,2.71.08,4.09h-4.13c-.45-1.14-.71-3.12-1.39-3.27-2.47-.56-2.87,1.26-2.73,3.27-1.14.45-3.11.71-3.27,1.39-.56,2.47,1.27,2.88,3.27,2.73,0,1.89-.37,3.88.12,5.63.38,1.34,1.32,3.52,3.59,1.1,1.14-1.22,3-1.76,4.54-2.61-.32,4,2.58,3.67,5.27,4.24,2.51.54,4.1,4.69,2.73,6.24-1.8,2-3.89,3.85-5.76,5.85-2.54,2.71-2.5,2.75,2,4.28,4,1.39,5.56,4.52,3.09,7-2.26,2.26-3.82,5.79-8,5.41-2-.19-4.15.22-6.15-.09-4.52-.69-10.45,2.68-13.26-2-1.81-3-.44-8-.49-12.06,0-.68,0-1.37,0-2,.29-3.71-2-4.29-5-4.46s-7.3,1.58-5-6.13c1.74-2.06,1-2.28.49-2-1,.58-2.61,1.31-2.75,2.17-.6,3.82,2.56,1.76,3.71,1.72,1.38,0,2.71-1.42,4.06-2.23-1-.57-2.08-1.14-5.51.35-5,2.53-6.34,1-6.41-1.18-.15-4.06.35-8-3.77-10.83-3.57-2.4-4.38-5.92-4.91-10.34-.59-4.88-5.6-8.95-3.78-14.75-4.92-2.2-3.58-8.13-7-11.57-3-3-1.1-6.73,2.69-7,.68,0,1.37,0,2,0,1.37,0,2.74,0,4.11,0,6.4-.22,7.31-1.43,6.4-9.11-.26-2.15-1.48-3.72-7.27-1.46a26.61,26.61,0,0,0,3.15-1.85,2,2,0,0,0,0-1.79c-1.51-.88-3.12-2.07-4.74-2.15-2.74-.14-4,2-3.38,5.31.2,1,1.38,1.79,5,.48,3.19-.42,3.38,1,3.14,2.3s-.62,3.11-1.41,3.4c-8,2.87-14-1.34-14.89-8-.43-3.38,0-6.74-3.37-8.88.28-5.45-6.26-8.4-5.08-14.33,1-4.79-4.62-7.18-4.47-12.62.17-6.58-6.17-10-12.65-9-2.22.37-4.22,1.65-3.29,3.89,1.56,3.76-6.36,4.31-2.61,7.83,3,2.86,1.87,6.14,2.62,9.25s3.19,5.6,3.83,8.6a28.59,28.59,0,0,1,.05,10.19c-.66,4.12,3.55,5.48,4.12,8.57.49,2.7,0,5.57-4.93,5.25-.31,0,.54.24.85-.06a1.82,1.82,0,0,0,0-1.74c-1-1.36-2.13-3-3.58-.57-.2.33,1.15,1.56,2.71,2.38.3,4.48,2.79,9.65-2,13.19-1.41,1.05-.8,1.55.4,3,3.94,4.76,4.1,9.59-.86,14-2.53,2.24-4.83,4.77-7.52,6.79-.79.59-3.18.39-3.78-.33-2.57-3.07-4.82-4.16-7.39-.16-4.61-3.24-10.8-4-14.29-9-1.68-2.4-.71-8.58,1.41-11.16s5.15-3.57,8.44-4.59-.19-2.73-.88-4.13c-.56-1.13-1-2.33-1.47-3.5,1.14-.46,3.12-.72,3.27-1.39.56-2.47-1.27-2.88-3.27-2.74,0-3.23-.85-6.78,2.73-8.88,1.8-1.05,1.92-2.44-.06-2.73a32.6,32.6,0,0,0-9.46,0c-2,.29-1.86,1.68-.06,2.73,3.58,2.1,2.71,5.65,2.73,8.88-1.17.49-3.19.77-3.35,1.48-.6,2.56-.38,5.3-.86,7.9-.2,1-1.42,1.87-2.17,2.8-.62-1.11-1.75-2.21-1.78-3.33-.18-6.15.76-12.47-.42-18.39-.66-3.33-5.27-6,.3-9-.44-3.83,1.61-8.15-2.77-11.17-4.12-2.84-5-7-5.9-12a27.36,27.36,0,0,0-7-13.45c-2.75-2.86-3.65-1-6,.25-2.66,1.34-6.32.85-9.53.72-.6,0-1.49-2.09-1.59-3.26-.15-2-.26-3.9-2.74-3.65-.6.07-1.26,2.14-1.4,3.35-.23,2,0,4.1-.13,6.14,0,.52-1.06,1.47-1.33,1.38-1-.35-2.24-.85-2.64-1.67a34,34,0,0,1-1.72-5.43,28.68,28.68,0,0,0-4.31,3.55c-3.17,3.83-3.15,6.93-.16,12.48.16.28,1.3,0,2,0-2.17,4.66-5.8,8.87-4.16,14.69.83,2.95-1,4.92-2.94,7-2.15,2.23-1.59,4.76.65,7a13.64,13.64,0,0,1,1.74,2.86c-6.32,2.86-1.38,10.11-5.64,14.13-3.2,3-2.64,9.73-7.41,11-6.9,1.82-13.59,1.73-20.93-1.88-6.76-3.32-10.88-5.8-11.1-14-.11-4-3.13-8.39-5.91-11.71-3.7-4.41-1.42-9.08-1.93-13.58s-.25-9.41-.84-14c-.24-2-1.57-1.69-2.83,0-1.91,2.58-4.23,3.72-4.55-.92-.24-3.39-1.58-5-4.85-4.56-1.17.15-3.09,1.11-3.15,1.83a10.41,10.41,0,0,0,1,5.5c2,3.87,2.09,4.86-.52,4.93-3.41.11-6.84-.15-10.23.14-1,.09-2.86,1.52-2.81,2.24.26,4.26-1.27,5.78-5.7,6.1-3.36.24-2.51,3.93-2.73,6.51-.44,5.15-2.66,6.77-7.8,5.58-1.79-.42-3.35-1.76-5.09-2.53-5.8-2.56-11.62-5.06-16.9-8.65-3-2.07-3.27,3.3-5.76,2.37-1.57-.59-3.59-2.88-4.25-2.48-2.05,1.23-2.84,3.6-6.08.83s-7.8-4-11.79-6a3.18,3.18,0,0,0-2.83-4,79.64,79.64,0,0,0-9.53-.1c.59-3.42-3.56-4.06-4-6.56-.28-1.69,1.34-5.25,1.48-5.21,7.76,1.79,13.06-7.08,20.86-4.74,4,1.19,5.84-2.45,8.69-3.89,2.2-1.1,6,.72,7.92-.57,2.76-1.89,5-3.92,8.64-4.27,1.86-.18,2-1.79.49-2.77-2.51-1.7-3-4.06-3-7,.16-17.16.13-34.32,0-51.48,0-5.25,1.59-11.05-4.1-14.77.62-3.2-1.44-6.81,1.65-9.64a9,9,0,0,0,1.91-2.77c-7-6.15-2.72-14.2-3.38-21.27-.82-8.85-.24-9.11-10.61-9.19-4.17,0-6.42-.93-6.18-5.56,0-.88-1.62-2.7-2.4-2.65-9.64.59-8.32-9.1-12.76-13.29-1.28-1.2-1.13-1.75.44-3,3.12-2.49,3.78-5.47.54-8.41-2.28-2.07-3.41-4.85-1.33-6.93a11,11,0,0,0,3.33-9c-.22-5.48.35-11-.16-16.46-.77-8.39,2.44-15.36,7-21.84,1.09-1.55,1.65-1.79,0-3-2.52-1.88-3.81-3.68.84-4.78,4.07-1,4-1.27,2.75-3.9-3-6.41-3.35-6.59.12-12.53,1.49-2.56,2.83-4.74.76-7-1.89-2.1-3.23-3.93-3.16-7,.23-9.6.06-19.22.09-28.83,0-4.7.88-9.56-4-12.85-.64-.42-.66-3.41,0-3.85,6.55-4.56,3.37-8.32.22-13.38-1.86-3,.94-9.21-1.11-11.7-3.77-4.57-10.21-1.34-15.49-1.76-6.14-.49-12.34-.07-18.52-.12-5.95,0-9.18-3-10.49-9.57-.27-1.32.55-3.43-.13-4-6.77-5.74-4-10.11,1.47-14.69,4.52-3.8,8.3-8.08,14.24-10.45,5.38-2.16,6.64-8.38,3.86-13.66-1.22-2.31-3.13-4-3.07-7,.21-11,.93-22.06-.27-32.91-.63-5.74,6.09-7.15,4.72-12.81-.84-3.51-1.64-7.92,2.45-11.32,1.51-1.25,1.19-4.92,1.38-7.51.25-3.39-.92-7.43.55-10,1.59-2.83,4-5.13,4.07-8.66,5.51-2.8,1.62-9.54,4.59-12.37,4.38-4.18,2.74-8.73,3.19-13.24,1-10.2.83-10.06-2.83-14-3.27-3.49-6.16-4.87-10.1-.82-1.16,1.19-3.54,1.42-5.42,1.64-5.79.7-12.44-2.23-16.82,4.17-5.87-.33-12.13,1.44-16.94-4-1.08-1.24-5.1-1.35-5.08-1.89.16-5.13-2.74-10.75,2.11-15.3,4-3.76,7.76-7.78,11.68-11.62,2.91-2.84,5.74-7.61,8.93-7.9,4.49-.41,6.19-4.67,10.59-4.9,3.53-.17,6.36-3.48,10.58-4.27,5.34-1,11.35-2.93,15.19-7.74,1.14-1.42,2.43-3.7,2-5.17-.8-3.14-6.06-5.92,0-9.09.08-4.09.18-8.18.22-12.26s0-8.24,0-12.36-.39-8.29.19-12.33c.23-1.65,2.56-3,3.93-4.5-5.83-3.68-3.92-9.53-4.1-14.77-.17-4.77-.18-9.55-.26-14.32-6.5-4.44-3.27-11.17-3.75-16.94-.26-3.13-1.73-8.56,1.86-9.07,4.83-.68,10.51-2.8,15.3,2.14,7.12,7.34,7,7.11,7.58,17.56.3,5.82-2.28,12,2.41,17.53,3.92,4.61.07,10.69,1.7,15.74,1.59,4.89,5.13,8.91,4.19,14.84-.85,5.32-.09,10.9.08,16.36,0,.5.84,1.14,1.42,1.39.33.14,1.1-.26,1.41-.63,2.11-2.61,7.67-4.67,1.52-8.72.19-7.1-3.58-14.84,3.36-20.85.08-8.2.27-16.4.21-24.6,0-2.84,0-5.49,2.7-7.12,1.83-1.13,1.63-1.65.13-3-1.32-1.23-2.89-3.49-2.59-4.93.89-4.33,5.12-7.44,4.08-12.78-.77-4-1.75-9.28.15-12.12,5.44-8.13,3.43-16.78,3.73-25.27.09-2.76,6.51-3.59,1.88-7.67-3.69-3.27,2.19-3.68,2.21-5.76a15.7,15.7,0,0,0-1.36-5.55c-.68-1.77-2.67-3.56-2.42-5.05.38-2.25,3-4.18,3.19-6.4.17-1.67-5-2.84-1.22-5.78,2.66-2,2.15-4.9,1.84-7.44-.53-4.45,5.32-5.85,4.37-10.69-.77-4-.15-8.21-.15-12.33,0-6.18.09-12.36,0-18.53-.08-3.63,1.9-4.2,5-4.66,2.18-.32,4.09-2.73,6.23-2.9,1.5-.12,3.05,2.39,4.83,2.95,2.46.78,6.05-.06,7.51,1.42s1.19,5,1.19,7.58q.11,45.32.06,90.63c0,2.76.89,2.78,4.79.83a92.84,92.84,0,0,1,12.15-5.45c3.64-1.2,5.87-5.57,10.63-4.28,5,1.34,7.13-4.87,12.73-4.5,6.07.41,9.06-4.45,9.14-10.48.06-4.8,0-9.61,0-14.42,7.28-9.63,3.73-20.79,3.85-31.24.08-7.23,4.86-11.84,6.84-17.88.67-2,1.14-1.76,7.2-.46a54,54,0,0,0,8,.71c6.22.39,10,5.12,6.6,10.27-2.4,3.68-3.74,6.76-3.63,11,.25,10.24.28,20.48.5,30.72,0,.5.84,1.19,1.42,1.37.34.11,1.31-.56,1.37-1,.39-2.62,1.17-5.36.75-7.88-1-5.91,2.74-9.73,6.83-11.08,3.78-1.25,6.87-1.93,5.49-6.06-1.91-5.72,6.19-7.29,4.36-12.79-1.69-5.08,3.36-6.84,5.63-10a12.72,12.72,0,0,0,2.44-5.13c.49-3.32-.72-7.38.8-9.94,1.72-2.92,4.06-5.21,3.44-8.94-.12-.66-.3-1.57,0-2,2.67-3.73,6.21-7,8-11.14,1.5-3.48.75-7.87,1.49-11.76.33-1.77,2.39-3.21,2.76-5,.94-4.41-1.43-9.26,2.84-13.33,3.27-3.12.5-7.85,1.48-11.69a12.36,12.36,0,0,1,3-4.88c2.73-3,6.27-5.34,5.19-10.28a5.61,5.61,0,0,1,.65-3.79c2.45-3.81,8.72-5.45,7.39-11.28-1.13-4.93,3.68-6.7,4.39-10.66,1.1-6.14,5.35-9.13,11.63-8.29,3.71.5,7.34-7.55,11-.07,4.12,0,8.25.23,12.35-.06s6.09.85,6.32,5.47c.1,2.23,3.64,4.32,3.71,6.54.4,11.66.19,23.34.19,35-5.35,3.81-4,9.5-4.11,14.77-.07,4.8-.1,9.61.11,14.41,0,.51,2.29,1.58,2.62,1.3,1.9-1.55,3.14-4.22,6-.87,1.06,1.22,3.51,1.39,5.38,1.72,7.52,1.32,10.17,4.35,10.62,11.61.33,5.15-2.23,11.14,3.76,14.9.1,6.14.24,12.27.3,18.41.05,5.49-.22,11,.08,16.47s-1.2,10.81,1.15,17h20.11c6.82-6.11,15.18-3.93,23-4,4.86-.05,7.14-5.76,12.76-4.45,4.55,1.06,9.56.21,14.36.21,4.93-8.35,16.37.11,21.3-8.24a90.5,90.5,0,0,1,10.29.07c6.37.72,10-2.36,12.38-7.81a19,19,0,0,1,2.6-5.07c3.06-3.52,1.22-5.78-1.19-8.63-2.21-2.61-1.82-2.93.17-7,.84-1.7,2-3.33,2.46-5.14.89-3.81-2-8.9,2.06-11.32,2.54-1.51,6.66-.66,10-.42s4.27-3.15,6.6-4c1.6-.61,4.94-1.14,5.34,1.33.94,5.77,7,9.77,5,16.6-.92,3.17,0,6.83-.19,10.25-.48,8.29.72,11.54,12.27,6.78,1.17-.49,2.51-2.29,3.17-2,6.18,2.55,9.55-3.8,14.81-4.43,6-.72,21.77-9.28,25.75-12.37,1.53-1.2,2.23-5.43,5.8-2,4.75,4.51,5.81,5.65,2.36,9.82-3.2,3.86-1.86,7.64-2.27,11.49-.59,5.54-3.66,8.89-10.39,9.61-2.89.31-4.74,1.8-7.1,2.88-11,5-21.74,10.56-32.3,16.41-2.73,1.51-5.1,1.38-7.65,1.38s-4.17,1-4.32,3.06c-.32,4.79-.85,9.78.18,14.35.61,2.7,4,4.78,6.18,7.13,2.53-4.23,6.63-3.9,10.77-3.88,15.79.09,31.58.19,47.37,0,7.16-.1,14.83,2.12,21.1-3.89.56-.53,3.35,1.32,5.12,2,1,.37,2.53,1.18,2.81.87a8.18,8.18,0,0,1,7-3.13c5.48.28,11.09-.62,16.44.26,5.94,1,10.13-2.08,14.79-4.32,3.37-1.62,5.5,7.85,9.35,1,3.3-.32,6.6-.71,9.9-.93,2-.14,4.13.1,6.18-.06,2.6-.2,7.4-5.67,7.54-8.4,0-.68,0-1.37,0-2.06,0-4.12.66-8.38-.17-12.32-1-4.91,5.42-6.45,4.19-10.66-1.76-6,5.32-9,4.37-14.82-.75-4.68-.22-9.59-.13-14.39.12-6.1.29-12.2.73-18.28,0-.57,2.2-1,5.27-.28,1.24.41.69-.51-.1-1.14a1.75,1.75,0,0,0-1.73,0,1.72,1.72,0,0,0,0,1.73,8.14,8.14,0,0,0,2.43,1.87C864.31,121.88,865,121,863.57,119.32ZM707.44,1050a14.63,14.63,0,0,0-2.35,2,1.75,1.75,0,0,0,0,1.73,1.71,1.71,0,0,0,1.72,0,8.17,8.17,0,0,0,1.88-2.43c.08-.15-.8-.82-3.67,4.32,0-.61.24-1.46-.07-1.77a1.82,1.82,0,0,0-1.74,0c-1.35,1-3,2.13-.57,3.58C703,1057.63,704.23,1056.28,707.44,1050Zm-4.12-16.49a15.16,15.16,0,0,0-2.35,2,1.75,1.75,0,0,0,0,1.73,1.73,1.73,0,0,0,1.72,0,8.43,8.43,0,0,0,1.88-2.43c.08-.16-.8-.83-3.67,4.32,0-.62.24-1.47-.07-1.77a1.79,1.79,0,0,0-1.74,0c-1.35,1-3.05,2.13-.57,3.59C698.87,1041.14,700.1,1039.79,703.32,1033.53Zm228.09-26.79a15.07,15.07,0,0,0-2-2.35,1.23,1.23,0,0,0-1.74,1.75,8.31,8.31,0,0,0,2.43,1.87c.15.08.82-.79-4.32-3.67.61,0,1.46.24,1.77-.06a1.82,1.82,0,0,0,0-1.74c-1-1.36-2.13-3-3.58-.57C923.8,1002.3,925.15,1003.53,931.41,1006.74Zm-442-406.35c-.89.73-2.64,1.94-2.53,2.13,1.15,2.11,4.34,2.9,3.85,6.12.64,0,1.69.23,1.86,0,.87-1.51,2.06-3.13,2.14-4.75.14-2.74-1.95-3.88-4,6.7.64-1.91,0-2.61-1.91-1.88a2.51,2.51,0,0,0-1.36,1.24,7.65,7.65,0,0,0-.76,3.47c.15,1.11,1.05,2.1,1.62,3.15.8-.71,2-1.29,2.31-2.17C491,613.22,490.7,611.83,489.38,600.39ZM262.15,950.76c.62,0,1.47.24,1.77-.07a1.79,1.79,0,0,0,0-1.74c-1-1.35-2.13-3.05-3.59-.57-.19.33,1.16,1.56,7.85,6.27a39.88,39.88,0,0,0-2.36-3.85c-.22-.3-1.22,0-1.86,0,.49,3.21-2.7,4-3.85,6.12a5.06,5.06,0,0,0,2.55,2C266,959.56,267.82,958.3,262.15,950.76Zm552.34,16.49c.62,0,1.47.24,1.78-.07a1.82,1.82,0,0,0,0-1.74c-1-1.36-2.13-3.05-3.59-.57-.19.33,1.16,1.56,3.63,2.38.46,1.13.82,2.32,1.38,3.4a27.36,27.36,0,0,1,2.74,6.68c0-.62.24-1.47-.06-1.77a1.81,1.81,0,0,0-1.74,0c-1.36,1-3,2.13-.57,3.59.33.19,1.56-1.16,2.37-3.63h4.13a42.42,42.42,0,0,0,0,5.86c.71,5.06-1.48,7.08-6.41,6.8-.28,0-.66,1.72-1,2.65,4.37.61,7.32,4.27,15.9,13.21-.36-2.57-.32-4.65-1.05-6.41-.35-.83-2.19-1-3.36-1.5.64,3.32-4.16,4.34-3.61,6.31.64,2.29,3.56,4,5.49,5.88.9-1.53,1.81-3.06-1.88-12.19,0-5.88.17-11.77-.1-17.64a3.13,3.13,0,0,0-4-3C825.59,968,823.78,966.23,814.49,967.25ZM472.37,744.66c.62,0,1.47.24,1.77-.07a1.79,1.79,0,0,0,0-1.74c-1-1.35-2.14-3-3.59-.57-.19.33,1.16,1.57,3.63,12.66v2c0,3.43-1,7.29.28,10.15s4.59,4.75,4.15,8.63a6.94,6.94,0,0,0,2.79.75c.32,0,1-1,1-1.54,0-2.69.85-6.57-.56-7.82-3.66-3.25-3.62-6.95-3.52-11a62.44,62.44,0,0,0-.08-8.21,4.63,4.63,0,0,0-2-3.16c-1.87-1-2.35-.14-2.08,2C474.47,749.42,474.21,752.2,472.37,744.66ZM787.48,526.55a34,34,0,0,0-.11-6c-.16-.86-1.46-1.55-2.34-2.19-.09-.06-1.23.82-1.27,1.32a42.89,42.89,0,0,0-.3,7.67c.09,1,1.22,2.7,2.08,2.85,3.94.64,1-2.65,10.6,29.24-.09-3.86-5.79-6.19-4.78-11.71.93-5.14-.15-10.65-.46-16,0-.5-.82-1.17-1.4-1.39-2-.78-2.54-.08-2.06,2,.67,2.89-.79,4.86-2.66,7.08-2.25,2.65-2.29,3.34.28,6.74,1.78,2.35,2.9,4.45,2.38,7.2-.78,4.13,2.52,5.81,4.55,8.34,1.26,1.57,2,1.89,2.93.31C795.24,561.49,795.46,560.89,787.48,526.55ZM655.65,325.26c-1,3.35,4.49,1.78,4.11,5.15a72.67,72.67,0,0,0-.06,8.22c0,4.8.74,9.75-.18,14.36-1.21,6,5.14,9.16,4.74,14.73,0,.49,3.34,1.58,5.17,1.68.82.05,2.42-1.56,2.51-2.52a80.1,80.1,0,0,0,.1-10.28c-.24-6.52,1.39-13.2-3.82-19.11-1.42-1.6-1.49-6.56,1.77-9.23.7-.58,1.34-2.59,1.12-2.75-5.55-4.19-2.41-10.11-3.2-15.21a3,3,0,0,0-1.1-1.58c-.35-.31-1.1-.62-1.4-.44-3.27,1.86-6.48,3.83-9.7,5.77C663.34,317.82,654.13,321.39,655.65,325.26ZM305.59,715.79c-1.23.41-2.77.46-3.56,1.26-2.39,2.44-7.17,4.34-1.56,8.79,2,1.6-.17,4.47-1.61,6.88-3.23,5.44-7,10.89-6.06,17.9.36,2.67,4.56,10.31,6.21,10.53,4.87.65,9.28-3.41,10.29-9.63.22-1.33-.27-2.81.1-4.06.62-2.06,2.15-3,4.48-2.9,1.11,0,2.24-1,3.37-1.63a11.53,11.53,0,0,0-2.46-2.34c-1.67-.84-4.46-.83-5.11-2.06-1.35-2.56,0-5,2.32-6.93a31.22,31.22,0,0,0,5.47-5.9c.6-.86.46-3.4-.18-3.78-3.77-2.27-7.78-4.14-20.32,41.07,0-.62.24-1.47-.07-1.78a1.82,1.82,0,0,0-1.74,0c-1.35,1-3.05,2.13-.57,3.58C294.92,765,296.15,763.62,305.59,715.79ZM228.37,563.88c2.45-2.45,3.8-4,5.37-5.33,3.8-3.16,5.81-6.62,5.69-12.08-.43-19.81-.23-39.63-.08-59.44,0-2.06-.11-2.8-2.12-2-.59.22-1.37.89-1.41,1.4-.32,4,.32,8.29-.91,12s-4.32,6.12-4.17,10.67c.1,2.8-2.51,5.67-3.81,8.55a5.49,5.49,0,0,0,0,2c0,13,0,26,.05,39,0,1.23.64,2.45,14.72-77.4a15.16,15.16,0,0,0-2.35,2,1.75,1.75,0,0,0,0,1.73,1.73,1.73,0,0,0,1.72,0,8.43,8.43,0,0,0,1.88-2.43C243,482.34,242.14,481.67,228.37,563.88Zm480.79,436.34c0-4.08-.75-8.35.18-12.21,1.34-5.49-3.92-8.15-4.25-12.64-.25-3.39-.06-6.8-.07-10.2-8.37-4.84.18-16.28-8.22-21.11,0-4.77.59-9.63-.18-14.27-.7-4.29-5.38-7.4-4-12.65a11,11,0,0,0-.45-5.89c-.27-.84-2.09-1.53-3.25-1.61s-3.39.61-3.43,1.11c-.39,4.56-.4,9.14-.51,13.72,5.11,3.16,3.8,8.3,3.49,12.79-.33,5,4.52,7.3,4.78,12.58.29,6.08,5.07,11.83,3.72,18.77-.17.85,1.28,2.28,2.28,3,1.58,1.17,1.71,3,.6,2.77-4.53-.84-7.67,7.86-12.91,1.7-.84-1-3.46,2.25-2.39,3.88,2.92,4.45,4.9,9.06,4.55,14.51,0,.44.9,1,1.38,1.44.74-.94,2-1.82,2.13-2.83.34-2.76.22-5.56,4.23-5.25,2.83,5.7,4.51,8.81,4,12.66-.63,4.7,1.26,7.83,4.69,10.44,2.93,2.24,4,5,3.75,8.76a107.67,107.67,0,0,0,0,14.37c.25,3.85,3.43,3.33,6.11,3.24.69,0,1.37,0,6.27,3.9a42.89,42.89,0,0,0-2.35-3.86c-.22-.3-1.22,0-1.86,0,.48,3.21-2.71,4-3.86,6.12a5.16,5.16,0,0,0,2.55,2c3.34.64,5.14-.62,1.31-8.16,0-3.31,1.39-8-.27-9.68-4.85-5-3.57-10.75-3.87-16.43a78.85,78.85,0,0,0-.84-9.61C712.31,1001,710.3,1000.67,709.16,1000.22Zm45.34-676c0-7.53,0-15.06,0-22.6,0-5.49-.61-6.49-5.22-6.18-9.11.6-18.85-2.66-27.06,4.05-7.89-3.37-13.51,4.92-20.88,4.1a3.89,3.89,0,0,0-4.51,2.87,5.79,5.79,0,0,0,0,2c.18,6.54-1.65,13.52,4.12,18.84,0,6.84,0,13.69,0,20.54,0,5.25,4.47,15.5,7.88,19.35,4,4.45,9,1.72,13.45,2.25a74.71,74.71,0,0,0,10.26.07c5.42-.1,10.84-.29,16.25-.44,3.05-5.71,1-11.88,1.59-17.82.13-1.36-.55-3.48.11-4,6.76-5.25,3.14-12.56,4-19,1.14-.45,3.12-.71,3.27-1.39C758.33,324.48,756.51,324.07,754.5,324.22ZM494.82,66.61c0-4.81-.16-9.62.06-14.42.12-2.61-1.16-3.77-3.32-4.06a5,5,0,0,0-3.69.83c-4.51,4.22-8.81,8.66-13.17,13,1.27,5.21-5.82,7.33-4.61,12.51-4.53,3.21-3.58,8.08-4.5,12.63-.55,2.69-4.86,4.76-3.7,8.66,1.43,4.77-5.44,6.39-4.06,10.63,1.8,5.54-5.09,7.9-4.17,12.73,1.13,5.93-5,9-5.3,14.36-.1,1.69-2.53,3.15-2.87,4.91-.51,2.65.4,5.61-.27,8.18-.78,3-4.1,6-3.7,8.58,1.11,7.18-7.22,11.64-4.65,18.83-2.43,3.8-5.06,7.49-7.22,11.44s1.13,9.79-4.42,12.57c-2.8,7.84-.2,10.25,8.25,11.09,5.54.55,7.94-4.56,12.74-4.49s10.5,1.27,13.88-1c3.82-2.53,7.47-2.18,11.1-3.36a10,10,0,0,0,7.23-8.65c.55-5.23-2.41-11.22,1.94-15.59,4.08-4.08-.51-11.18,5.65-14.29.66-.34.93-2.75.44-3.73-.87-1.73-3.48-3.08-3.52-4.64-.08-2.4,3.62-3.13,3.78-6.41.33-6.39-2.74-13.6,3.59-19,.06-.05-3.23-3.89-3.09-4,5.53-5.37,5.42-10.38,0-15.83-.85-.85-.52-4.57.46-5.28,7.08-5-1.3-15.43,7.09-19.94.57-.3.07-2.6.07-4Zm375.1,448.12c0,3.41-.35,4.9.06,6.13,1.19,3.61,3.27,7,3.9,10.69.69,4-1.44,9.4.53,12.05,3.07,4.11,1.57,12.89,10.4,11.92,3.18,5.15,8.47,2.79,12.85,3.83,4,.94,7.26-8,11.15-.45,1.94-1.76,5.32-3.35,5.55-5.31.69-5.89.15-11.92.09-17.89-4.5-2.63-3.2-7-3.29-11-.09-4.11,1.1-8.69-.34-12.22s-5-6.08.32-9.06c-.7-3.19,1.75-7.08-1.55-9.61C903.34,489,911,480,903.85,475.57a1.75,1.75,0,0,1-.4-1.37c7.29-4.78-.05-8.94-.14-13.33-.11-5.18-3.73-8.37-4.38-12.71-.7-4.7-.2-9.58-.15-14.38s.91-9.66-4.13-12.7v-14.4c0-.69.29-1.62,0-2-1.33-1.56-3-2.83-4.27-4.44-2.07-2.68-3.13-.4-4.39.74-3.55,3.23-7.82.91-11.7,1.55-2.92.48-8.39,5-8.41,7.55-.08,11.66,0,23.33,0,35,5.5,4.59,3.43,11,4.24,16.79,1.17,8.38-4.21,17.83,3.85,25.16a6.12,6.12,0,0,1-1.23,1.38c-3.31,2.16-1.11,3.47.08,6,2.46,5.15,1.72,9.43-.55,15.14C871.26,511.83,870.18,514.12,869.92,514.73ZM791.6,311.57v22.55c7.91,7.23,2.65,16.64,4.11,24.93a20,20,0,0,1,0,2.05c.14,2.7,5,8.37,7.45,8.42,6.15.12,12.63,1.24,18.34-.35,4.18-1.17,7.74-4.48,12.76-3.86,1.51.19,5.88-10.87,4.61-12.12-2.32-2.28-1.93-4.84-1.94-7.46,0-13-.1-26,0-38.94.06-6.51-1.62-13.42,4-18.88.68-.67,0-2.64.1-4,.2-4-3-6.63-6.32-4.77-2.22,1.24-3.27,4.17-6.61,3.94-4.08-.29-8.4.73-12.25-.26-5.55-1.41-7.94,4.44-12.69,4.36-3.34-.06-7.45-.87-9.86.72-3.87,2.53-1.3,7.5-1.66,11.39C791.31,303.35,791.6,307.47,791.6,311.57Zm45.33,247.6c8.17,0,8.2,0,8.25-7.36,0-7.54,0-15.09,0-22.63-8.15-9.52-3.23-20.8-3.93-31.24-.83-12.29-.2-24.68-.2-37,0-2.06.89-5-.14-6-5.66-5.6-3.79-12.52-3.84-19,0-1.69,1.29-3.77,2.61-5,1.55-1.4,1.43-1.62,0-3.08-4.58-4.71-9.12-6.38-14-3.42-2.32,1.4-4.11,2.81-7,3.09-2.35.22-3.13,4.43-6.55,3.93-2.53-.37-3.6,1.16-3.95,3.39a12.75,12.75,0,0,0,0,2.05c0,4.12.61,8.35-.16,12.32C807,454,812,456,812.12,459.84c.28,8.91,0,17.84.14,26.76,0,1.9,0,4.53,1.2,5.57,5,4.53,2,10.25,2.87,15.36,6.4,4.37,3.45,11,4.17,16.8.4,3.23-1.76,7.11,1.59,9.58,4.2,3.09.61,8.49,3.08,11,3.38,3.42,3.5,6.92,3.62,11,.06,2.14,1.41,3.65,4,3.29A31.29,31.29,0,0,1,836.93,559.17ZM319.66,765.24l-9.48,9.49c.93,7.73-9.59,9.24-9.09,16.73-4.53,4.84-6.54,9.87-1.49,15.68A6.11,6.11,0,0,1,301,810.6c.18,4.1.07,8.2.07,12.3,0,3.42.67,7-.16,10.21-1.26,4.94,4.47,6.41,4.33,10.64-.19,5.46-.05,10.93-.05,16.39s.77,11.08-.2,16.37c-1.11,6,5,9.06,4.47,14.74-.61,6.78-.2,13.66-.13,20.49s3,8.34,10.25,6.25c1.6-.46,3.84.39,5.48,1.22,3.58,1.81,4,2,5.81-.36,1.18-1.51,2.88-3.15,3-4.84.42-4.75.14-9.56.14-14.34-7.88-7.24-2.58-16.66-4.13-24.94s4.13-17.76-4.1-25c0-6.15-.76-12.42.2-18.41,1-6.55-5.67-10.28-4.52-16.81.93-5.31.19-10.9.19-16.37,0-10.25,0-20.5-.06-30.75C321.64,766.94,320.78,766.45,319.66,765.24Zm649.18,40.93h-.19c0-3.4.06-6.79-.06-10.18,0-.5-.93-1-1.38-1.45-4.78-5.25-.76-11.91-2.69-17.36-2.09-5.9-6.19-11.06-8-17.19-.54-1.89-.08-4.08-.08-6.13a37,37,0,0,0-.07-6.14c-.37-2.12-1.76-3.29-4.25-3.11-3.39.24-6.8.12-10.21.15-4.33,6.62-11.06,3.28-16.8,4a77.25,77.25,0,0,1-8.2.06c-5.05.05-5,.07-5.83,5.64-.27,1.91,0,4.52-1.16,5.59-4.33,4.08-2.48,5,2.11,5.34,1.12.09,3,1.29,3,2a157.4,157.4,0,0,1,.07,16.4c-.34,6.09,6.85,10,4.29,16.79-1.5,3.93,1.89,6.28,4.5,8.25,1.95,1.47,5.19,1.44,6.81,3.1,3.68,3.79,6.37,3.7,10.15,0,2.5-2.43,3-1.86,6.89.28,1.66.91,3.49,2.42,5.1,2.27s3.29-3,4.79-2.87c2.13.18,4,2.55,6.21,2.89a5.67,5.67,0,0,0,4.72-2.32C969.47,810.59,968.84,808.22,968.84,806.17ZM740.24,452a8.17,8.17,0,0,1-2,0c-7-1.93-11.57,7.13-18.8,4.21-.36,1-1.22,2.65-1,2.79,3.28,2.3,2.77,5.67,3.27,9,1.15,7.68-3.8,16.44,3.79,23.07a4.76,4.76,0,0,1-1.11,1.37c-3.19,2.07-1.73,3.39-.09,6s1.8,6.51,1.22,9.59c-.91,4.82,4.72,6.2,4.41,10.65a130.73,130.73,0,0,0,0,18.46c.41,5.74,5.85,10.25,4.17,16.81-.63,2.47,4.39,9.18,6.4,9.28a57,57,0,0,0,12.19-.34c1.65-.28,2.83-2.83,4.41-4.13,3-2.44-.27-3.26-1.22-4.33-2.71-3-1.1-6.53-1.22-9.75-.29-7.51-.1-15-.1-22.57s.46-15.09-.13-22.57c-.55-7,3.38-15-3.89-20.84,8.2-4.41-2.81-8.34-.35-13.17,1.39-2.71.4-6.72.2-10.13-.13-2.22-1.38-3.6-3.93-3.42C744.36,452.12,742.3,452,740.24,452Zm-115.5,24.75v0c-3.42,0-6.84.11-10.25,0-4.21-.17-5.78,4.92-10.58,4.63-2.61-.15-2.12,4.49-1.84,7,.71,6.4-2.72,13.67,3.71,18.95.11,6.11,1,12.34.13,18.29-1.1,7.14,7,11.48,4.5,18.9-1,3.07-.24,6.78-.16,10.19.07,2.74,4.88,8.5,7.33,8.55,6.15.13,12.41.71,18.41-.26,2.68-.44,5.21-3.91,7-6.54.65-.94-.82-3.56-1.64-5.25-2.84-5.84-3.22-6-.08-12.5,1-2.09,1.07-2.74-.21-4.52-1.43-2-1.88-4.67-3.06-6.89-.61-1.16-1.87-2-2.84-2.94,1.6-.76,3.25-1.41,4.76-2.31,1.24-.73,4.9-.4,1.83-3.49-.94-.94-2.48-1.93-2.56-3-.3-4.08-.77-8.33,0-12.27,1-4.86-5-6.26-4.3-10.63s-2-9.7,3.21-13.12c.17-.11-.68-2.64-1.12-2.66C633,476.66,628.84,476.75,624.74,476.75Zm76.18,73.3c0-4.1,1.6-9.28-.3-12.1-5.89-8.73-3-18.11-3.84-27.18-.12-1.28,0-3.16-.75-3.71-5.61-4.12-2.71-10-3.33-15.08-.41-3.28.67-7.87-1.12-9.63-3.6-3.53-2.82-7.28-3-11.2-.33-5.92-3.55-8.95-8.65-6.53-4.76,2.27-9.22,4.39-14.57,4.51-1.22,0-3,8-1.36,9.36,4.42,3.59,4.06,8.06,4,12.81q-.18,15.38,0,30.74c0,5.22-1.56,10.9,3.95,14.88.52.38-.39,3.94-1.54,5.21-4.28,4.73-1.91,10.16-2.06,15.3,0,1.22,6.43,5.88,7.75,5.87,6.84,0,13.67,0,20.5,0,3.38,0,4.28-1.08,4.34-5C701,555.51,700.92,552.78,700.92,550.05ZM527.63,517.11c0-5.58.41-9.73-.2-13.72-.25-1.63-2.84-2.82-4.12-4.41-2.35-2.9-3.36.06-4.32,1.12-2.32,2.56-5.14,1.09-7.69,1.3-3.4.27-8.19-1.33-10,.38-3.11,3-7.43,2.84-10.15,5.53-3.34,3.29-8.89,2.55-11.59,7.09-.91,1.52-1.59,1.9.22,3,2.66,1.63,2.83,4.26,2.69,7.1-.18,3.41-.64,7,.12,10.22.79,3.4-6.61,4-2.32,7.75,3.16,2.76,2,6.19,2.11,9.41.17,4.09-.15,8.22.12,12.31.15,2.13,1.51,3.35,4.09,3.27,6.15-.2,12.31,0,18.47-.07,4.36,0,10.38-3.71,10-7.62-.47-5.32,2.87-8.54,4.48-12.67,1.86-4.8,5.9-8.94,4.06-14.74C530.16,528.05,527.14,521.38,527.63,517.11Zm-4-66.6V434.14c-6.8-6.64-3.26-15.14-4.11-22.85-.07-.67.26-1.56-.06-2-.73-1-1.7-2.41-2.67-2.5-3.39-.31-6.83.1-10.22-.17-6.31-.5-10.56,2.29-11.61,8.29-.69,4-6.11,5.75-4.31,10.54s-3.18,6.8-4.44,10.46c-3.1,9.06-3.77,8.84-3.79,14.77,0,5.46.15,10.93-.09,16.37a9.44,9.44,0,0,1-1.86,5.3c-2.69,3.22-1.75,4.43,2,4.36,5.21-.09,11,1.63,14.66-4.09,5.45,0,10.92.24,16.32-.28,1.6-.15,3-3.61,4.49-3.63,4.33-.05,6.08-1.53,5.79-5.91C523.46,458.71,523.67,454.6,523.67,450.51ZM636.61,316c-2.05,0-4.29-.52-6.11.13-2.36.84-4.25,3.43-6.58,3.81a42.11,42.11,0,0,1-12.28.07c-5.11-.71-7.1,6.34-12.73,4.38-2.56-.89-5.25.11-5.21,4.06.13,11.63,0,23.27,0,34.9,0,5.49.58,6.18,5.24,6.22q10.28.07,20.53,0c2.66,0,3.79,5.25,5.93,3,4.7-4.94,10.24-2,15.27-3.09,2.11-.46,2.66-2.22.52-4-.94-.78-2-2.09-2.06-3.18-.18-7.53-.72-15.13.09-22.57.77-7.05-3.69-15.08,3.32-21.22.06-.05-1.06-2.08-1.91-2.38C639.46,315.66,638,316,636.61,316ZM921.8,687c4.81,0,9.61,0,14.42,0,3.77-.05,4.88-3,2.66-7.26-.9-1.7-2.69-3.22-2.88-4.95-.56-5.21,1.48-11-4.25-14.75,0-4.12-.75-8.42.18-12.32,1.3-5.5-6.26-7.09-4.54-12.82.83-2.79,2-7.55-1.7-9.23-2.84-1.3-6.69-.56-10.08-.45-4.59.15-7.29,6.13-12.75,4.2-.89-.32-2.72.53-3.4,1.4-1.9,2.43-4.87,1.91-7,3-3.62,2-1.31,6.17-1.94,9.34-.78,3.91,1.3,6.41,4,8.65l-3.87,4.37c4.16,2.51,4.87,6.63,3.87,10.67-1.52,6.12,5,9,5.08,14.54,0,1.48,2.54,3.13,4.18,4.33,3.64,2.68,7.89.73,11.84,1.2A52.88,52.88,0,0,0,921.8,687ZM616.28,402.54c-4.76,0-9.52-.05-14.28,0-2.64,0-8.42,5.1-8.16,7.59.67,6.37-2.74,13.61,3.7,18.85.1,3.85,1.91,8.1-2.19,11-1.65,1.18-1.91,2-.34,2.92,3.64,2.16,2.84,5.7,2.87,9,0,3.65,1.44,5,4.24,1.85,2.2-2.48,4.87-1.77,7.44-1.8,7.48-.08,15,.1,22.45-.09,3.26-.08,5.09-5.29,3.86-9.43-.51-1.72-1-4.7-.2-5.35,5.48-4.19,2.8-9.94,3.42-15-5.51-4.54-3.77-10.83-4.22-16.66-.16-2.07-1.88-3.1-4.3-3C625.81,402.68,621.05,402.54,616.28,402.54ZM505.12,666.34c2.75,0,6.86,1.14,8-.21,3.71-4.46,8.34-4.67,12.9-3.75,5.39,1.08,7.06-5.49,12.77-4.65,5.26.78,4.8-.69,5.68-5.52,1.07-5.92-3-9.9-4-14.83a43,43,0,0,1,0-16.35c1.12-6-5.38-9.12-4.4-14.8.46-2.63.44-5.85-3.51-5.75-3.05.07-8-1.84-8.49,2.64-.51,5-3.85,7.06-6.66,9.6-3.7,3.36-.2,8-2.8,11.25a4.62,4.62,0,0,1-1.46,1.43c-6.17,2.84-6.4,9.83-9.59,14.65-3,4.56-4.54,10.36-7.65,15.27-1.27,2-.95,5.16-.88,7.78,0,1.1,1.16,3,2,3.09A56,56,0,0,0,505.12,666.34Zm55.65,87.33a10.57,10.57,0,0,1,0-2c1.56-7.71-2.76-12.44-8-17.17-4.61-4.18-5.72,2.71-9.72,2.28-9.4-1-19-.4-28.52-.32-9.78.09-14.34,7.13-9.78,15.84,1.26,2.42,2.81,4.41,2.36,7.19-.48,3,1.53,4.73,2.95,7,1.26,2,.81,5,1.21,7.62s4.5,5.14,5.62,3.45c4.22-6.33,13.38-1.51,17.16-8.13,4.08,0,9.24,1.54,12-.38,3.56-2.48,6.55-4.21,10.8-3.75,2.48.27,3.71-1.19,3.85-3.43C560.9,759.12,560.77,756.39,560.77,753.67ZM884.82,365.44c4-7.54-2.12-16,4.78-21.92.25-.21-.48-2.1-1.18-2.77-2.88-2.8-1.73-7.79-5.68-10.09-.66-.39-1-3.05-.35-3.73,2.79-3.18,5.07-6-.11-9-1.18-6.41,1.87-12.85-2.59-19.55-4.1-6.16-.92-14.51-1.52-21.87-.11-1.33.15-2.8-.34-4-.24-.57-2.59-1-2.66-.8-1.77,3.73-6.7,1.73-8.43,4.39s-1.22,6.49-4.5,8.37c.59,1,1,2.21,1.82,2.84,1.56,1.18,1.77,1.88.63,3-4.65,4.56-4.32,9.37-.16,13.95,1.25,1.37,1.25,1.66-.25,3-4.16,3.78-3.43,7.89-.93,12.57,3.3,6.17,3.45,6.6.23,12.4a16,16,0,0,0-1.93,7.46,49.4,49.4,0,0,1-.78,7.89c-1.16,5.35-1.3,5.34.57,7.27,1.43,1.47,2.91,2.9,4.29,4.42a18.87,18.87,0,0,1-1.39,1.39c-2.37,2.1-3.79,4.39.92,4.64C872,365.71,878.7,365.44,884.82,365.44ZM729,810.61c8.88,0,17.76.14,26.63-.1,2.07,0,3.42-1.83,3-4.27s.47-5-1.46-7.63c-4.64-6.36-7.76-13.42-6.89-21.74.23-2.12-1.34-3.51-3.89-3.39-3.4.15-6.84-.21-10.23.1s-7.19-1.78-9.64,1.27c-5.24,6.54-15.12-1.37-19.64,6.69a16.54,16.54,0,0,0-1.46-1.44c-.93-.71-1.92-1.35-2.88-2-.54,1.82-2.13,4.54-1.46,5.33,6.18,7.3,6.18,14.14-.07,21.39-1.57,1.82,1,5.79,3.42,5.8C712.62,810.63,720.82,810.61,729,810.61ZM702.89,258.27c5.77-.56,12.38,2.29,16.7-4.12,6.14,0,12.44.86,18.36-.27,4.88-.93,8.92-5.43,14.68-4.16.38.08,1.61-2,1.81-3.16,1.07-6.34-2.59-13.62,3.86-18.88-.82-.79-1.59-2.22-2.46-2.27-2.64-.17-5.6-.47-7.9.53s-3.61,3.29-6.74,3.61c-13,1.34-26.48-3.83-38.93,3.28-2.64-4.17-5-2.61-7.28.36a4.29,4.29,0,0,1-1.38-.8c-1.75-1.55-4.32-5.14-4.86.16-.77,7.42-.32,15-.12,22.48.06,2.11,1.42,3.48,4,3.3C696.06,258.09,699.48,258.27,702.89,258.27ZM553.51,851.83c-7.48,0-15-.11-22.43.07-2.13.05-3.56,1.4-3.32,4,.18,2-.81,5.19.17,5.93,6.14,4.66,3.6,11.07,3.94,16.83.32,5.45.66,6.14,5.27,6.16,11.55.05,23.1.07,34.65,0,5.19,0,8.82-4.89,9.77-10.28,1-5.91-2.82-9.8-4.15-14.68-2.13-7.81-1.73-8-7.59-8C564.38,851.81,558.94,851.83,553.51,851.83Zm40.24-599.74c0,4.77,0,9.55,0,14.33,0,3.32,1,4.15,5.17,4.21,2.73,0,6.48,1.16,8-.19,7.06-6.27,15.3-3.22,23-3.9,2-.18,4.14.23,6.12-.12a5.46,5.46,0,0,0,3.12-2.2c2.55-3.68,5.58-7.26,7.07-11.38,1.3-3.61,1-7.88,1-11.86,0-2.64-5.62-7.61-8.36-7.29-1.72.2-3.27,1.87-4.9,2.89-3.1,1.93-4.17-4-5.6-2.29-3.19,3.81-7,3.38-11,3.37-6.14,0-12.29,0-18.43,0-4.6,0-5.16.76-5.2,6.23C593.73,246.63,593.75,249.36,593.75,252.09ZM354.67,780.38c0-8.24.07-16.49-.1-24.72,0-.81-1.48-1.63-2.37-2.32a13.17,13.17,0,0,0-1.41,1.38,16.18,16.18,0,0,0-2.86,2.94c-2.17,3.87-3.15,18.66.24,23.29,3.87,5.3,1.46,10.37,2.14,15.48-6.92,6-3.19,13.75-3.39,20.85,7.25,2.1-4.63,9.79,3.41,11.65q.1,9.23.22,18.45c0,2.06-.35,4.19.07,6.16,1.27,6-2.77,6.48-6.86,7.2-.54.1-1.35.93-1.34,1.4a2.08,2.08,0,0,0,1.37,1.41c3.21.59,6.51.79,9.66,1.6,1.58.41,1.17,1.69-.45,2.86s-3,2.49-.53,4.39c.76.59,1.59,2.06,1.36,2.83-4.46,15.35-4.43,15.32.58,27.93,1.12,2.79.1,5.34-2.45,7-1.78,1.14-1.93,2.53.1,2.83a71.84,71.84,0,0,0,12.1.57,3.72,3.72,0,0,0,2.75-2.34c.33-3.4,1.48-7.76-.1-10.13-6.69-10-2.76-21-3.87-31.41-.29-2.67.7-6.62-.72-7.8-5.32-4.45-3.17-10.06-3.34-15.21-.29-8.92,0-17.86-.12-26.78,0-2.65.55-6.55-.89-7.71-4.81-3.86-2.92-8.75-3.13-13.25C354.46,792.75,354.67,786.56,354.67,780.38Zm20.61-121.75c0,11.64,0,23.27,0,34.91,0,6.48,1.34,7.24,8.62,3,2.75-1.59,5.14-1.25,7.68-1.26s4.32-1.16,4.15-3.16c-.39-4.52,2.15-9.44-1.91-13.59a8.66,8.66,0,0,1-2-5.26c-.25-5.47-.09-10.95-.09-16.43,0-4.79-1.07-9.91.26-14.3,2-6.41-4.69-9.37-4.43-14.8.23-4.78.09-9.58,0-14.37s-3.8-6.72-7.13-8.77a3.82,3.82,0,0,0-3.68.59c-2.29,3-1.84,7.51-5.43,9.84,7,6,3.28,13.91,3.77,21C375.68,643.54,375.28,651.1,375.28,658.63ZM288.72,478.72v26.75c0,8.91,0,17.83.12,26.74,0,.52,1.75,1,2.68,1.5,1.78-3.48,5.94-2.55,8.4-4.46,3.14-2.43,6.24-5.11,5.39-10.1-.68-3.95-.49-8-.69-12.09-5.17-3.22-3.42-8.4-3.48-12.94-.15-11,0-21.94-.07-32.92,0-4.06-.6-8.26,3.7-10.82-3.37-3.54-4.27-7.75-3.74-12.52a66.28,66.28,0,0,0,.05-8.22c-.05-6.07-.74-6.68-7.05-6.5-2.81.08-5.37.08-5.35,4.14C288.78,444.43,288.72,461.57,288.72,478.72ZM843.11,814.85a83.84,83.84,0,0,0,8.95-1c.66-.13,1.6-2.51,1.24-3.35-1-2.32-3.6-4.29-3.8-6.57-.56-6.1.88-12.54-.49-18.37-1.41-6-5.28-11.43-7.87-17.2-.51-1.14.2-2.78-.16-4s-1.32-3-2.08-3q-10.24-.36-20.5,0c-.73,0-2,2-2,3.11,0,4-1.05,9.23,1,11.68a12.44,12.44,0,0,1,2.81,11.19c-.91,4.84,3.74,6.77,4.31,10.63.67,4.46-1.48,9.05,2.45,13.42C831.63,816.42,837,814.12,843.11,814.85ZM405.34,905.42c4.12,0,8.25.15,12.35-.11,1-.07,2.78-1.47,2.8-2.3.18-5.45,0-10.92-.1-16.38-6.61-5.24-3-12.58-3.83-19-.34-2.7.13-5.51-.14-8.22-.12-1.16-1.18-3.17-1.86-3.19q-12.31-.39-24.66-.13c-.77,0-2.24,2-2.13,2.93.58,4.52-2.37,9.72,2.09,13.49,2.37,2,.49,2.88-.44,4.46-2.26,3.86-2.22,4-.52,7,1,1.67,3.17,2.36,3,5-.33,4.1.08,8.24-.15,12.35-.14,2.63,1.18,3.89,3.33,4.06C398.46,905.61,401.91,905.42,405.34,905.42ZM391.79,748.78c-2,0-4.09,0-6.13,0-6.79.11-8.36,2.21-6.42,10,1.25,5-1.73,10.3,2.49,15.39,4,4.83,1.48,11.64,1.73,17.56.29,6.8,0,13.63.18,20.43,0,.71,2.3,2,2.33,2,4.94-5.58,12.95-5.41,18.44-9.95,3.3-2.73,6-9,3.16-12.32-3-3.58-3.49-6.9-3.45-11,.07-8.18.08-16.35,0-24.53,0-2.52-5.55-7.47-8.22-7.61C394.52,748.72,393.15,748.78,391.79,748.78ZM818.48,221.17H806.17c-4.1,0-8.27-.43-12.28.16-2.39.35-3.11,4.4-6.53,4-1.87-.21-4.16.05-3,2.87.32.75,2.3.76,3.49,1.21,2.83,1.06,4.63,3.73,3.65,5.68-.58,1.15-1.81,2-2.49,3.08-3.15,5.18-2,7.66,3.56,7.7q13.33.09,26.67,0c2.66,0,6.54.65,7.74-.77,4.46-5.3,10.08-2.64,15.17-3.35a5,5,0,0,0,1.72-.79c1.57-.94,1.25-1.69-.34-2.94-3.09-2.45-3.18-4.93-.8-8.5,4.13-6.19,2.89-8.32-3.78-8.35C832.16,221.15,825.32,221.17,818.48,221.17ZM693.62,596.27c-4.74,0-9.5-.13-14.23.1-1.1,0-3,1.27-3.07,2-.2,9.49-.61,19,.2,28.45.2,2.37,4.21,5.54,7,6.27,3.67.95,7.88-.15,11.86-.36,3.88-5.72,9.79-2.7,14.82-3.56,1.12-.18,2.91-1.36,2.94-2.14.24-6.09.57-12.25,0-18.29-.3-2.93-3.1-5.54-3.77-8.52-.52-2.33-1.33-3.77-3.5-3.88C701.77,596.12,697.69,596.27,693.62,596.27Zm271.11,29.49c.13,5.07-1.09,10.68,4.11,14.49q.21,8.09.41,16.19c5.88,3.77,3.64,9.73,3.58,14.82-.07,6.73,6,11.58,5.11,18.47,0,.3,2.18,1,3.39,1.31.61.17,1.66.27,1.95-.07,2.27-2.62,5.8-3,8.27-4.62,5-3.23.36-6.35-1.72-9.67-1.23-2-.12-5.3-.42-8-.63-5.73,2.51-12.41-4-16.72-.72-4.56,2-10-1.53-13.6-4.72-4.86-1.68-10.29-2.57-15.36-.46-2.65.17-5.48-.23-8.15-.12-.84-1.94-1.92-3.06-2-4-.35-7.67-.23-10.92,3.42C964.37,619.31,964.87,622.34,964.73,625.76Zm-341.11,15c5.11,2,10.56.43,15.87.75,2.7.17,7.79-5.26,7.82-8,.07-8.2.17-16.4-.1-24.59a8.12,8.12,0,0,0-2.61-5c-5.75-5.41-14.06-8-21.37-7.81-3.29.08-4.56,2.4-6.6,4-3.67,2.86.14,4,1.19,5.84,2.62,4.71-2,10.57,2.8,15.29,4.35,4.34,1,10.36,2,15.51C622.86,638,623.23,639.27,623.62,640.78Zm83.69,50.29c6.78,0,13.57.1,20.34-.13.74,0,2.27-2.44,2-3-3.49-6.39-3.63-13.5-5.14-20.33-.52-2.32-3.5-5.92-7.62-5.41-4.43.55-9.63-2-12.94,3.14-5.29.32-10.58.65-15.88,1-2.34.13-3.61,1.31-3.62,3.68,0,6.11-.12,12.21.1,18.31A3.7,3.7,0,0,0,687,691C693.75,691.17,700.53,691.07,707.31,691.07Zm12.33,156.64h-4.52c-5.49.06-5.41.45-6.06,5.47-.89,6.78,2,11.32,6.67,15.79,3.1,2.95,4.68,3.16,7.53,0,1-1.07,3.79-.6,5.77-.61,8.87-.05,17.77-.5,26.6.15,5.89.42,8.9-5.3,14.27-5.27.37-2.57.89-5.14,1-7.73.14-2.36-1.25-3.63-3.64-3.65a79.15,79.15,0,0,0-10.22.08c-3.9.47-6.38-1.34-8.6-4-2.48,2-4.46,4.8-8.48,4-2.63-.49-6.82,1-7.91-.3C728.41,847.13,723.91,847.59,719.64,847.71Zm-360.84-542c0-.5.44-3-.57-4.35-.89-1.23-3.43-1.67-5.25-1.67-1,0-1.88,1.84-3,2.44-4.06,2.13-2.79,7.13-5.68,10-2.69,2.7-5.9,4.74-6.53,9.68-.41,3.25-6.09,5.54-7.55,9-2.22,5.3-4.1,10.64-7.51,15.38-.38.52,1.45,3,2.62,4.17s2.13,3.91,4.29,1c3.05-4.11,7.5-2.4,11.29-2.26a8.11,8.11,0,0,0,8-5c1.88-4.68,6.12-8.3,5.86-14-.27-5.86-1.28-12,3.88-16.89C359.67,312.2,358.8,309.23,358.8,305.67Zm364.79,121.6c4.12,0,9.32,1.55,12.09-.39,3.6-2.51,6.65-4.13,10.92-3.76,2.44.21,3.71-1.23,3.76-3.58.08-4.12-.13-8.24.07-12.35s-3.25-5.83-5.61-7.92-4.75-.8-7,1.23a8.93,8.93,0,0,1-5.29,1.95c-6.17.23-12.36.05-18.54.1-4,0-6.79,3.91-4.25,6.33,3.5,3.35,3.48,6.91,3.62,11,.25,7.37.4,7.36,8.19,7.39ZM536,260c-1.6,5.69,2.08,9.89,3.92,14.71.77,2,1.22,3.59,3.32,4.14,5.06,1.34,8.5-2.41,12.69-3.89,2.77-1,4.45-1.28,5-4.7.47-3,3.25-5.6,3.76-8.59.69-4,.33-8.17.13-12.25-.18-3.55-6.19-7.87-10.26-7.65l-14,5.75c-2.26,2.38-5.43,4.21-4.59,8.36A21.74,21.74,0,0,1,536,260ZM668,402.54c-2.75,0-5.51.18-8.24-.05s-4.05,1.19-4,3.3c0,1.69,1.36,3.38,2.32,4.95.18.3,1.3,0,2,0,4,.05,5,4.07,3.58,5.47-6.24,6.38-3.2,14-3.78,21.16-.05.66,1.89,2.07,2.95,2.12,4.8.24,9.62.24,14.41,0,1.07,0,3.08-1.69,3-2.07-1.53-4.84,5-6.35,4.27-10.7-.65-3.87,1.76-8.35-1.87-11.55-2.41-2.13-2.29-4.64-2.27-7.35s0-5.56-4.1-5.35C673.45,402.66,670.69,402.54,668,402.54Zm152.5,278c-.26-3.9.75-7.72-2.82-11.3-1.85-1.86-.28-6.81-1.91-9.28-1.9-2.86-3.51-5.16-3.67-8.86-.24-5.68-.84-5-6-5.52-5.28-.55-7.39,3.17-9.8,6.07-1.82,2.19-.5,5,1.91,6.9.54.42,1.28.89,1.41,1.45,1,4.53-1.73,10,1.64,13.62,4,4.26,2,8.89,2.76,13.34.2,1.22.87,3.34,1.41,3.36,4.58.21,9.18.07,13.78-.1.43,0,1.17-.94,1.2-1.47C820.52,686,820.45,683.26,820.45,680.52ZM457.72,556.26c-.06-1.09,1.1-6-.68-7.54-5.15-4.61-3-10.05-3.39-15.19-.27-3.4,0-6.84-.06-10.27-.07-4.83-.95-4.91-6.14-5.47s-7.38,3.19-9.79,6.09c-1.81,2.18-.18,4.8,1.85,7,1.16,1.25,1.61,3.55,1.65,5.39.17,8.21.61,16.48-.1,24.64-.53,6,3,6,6.92,7.25s9.34-.2,9.7-3.45C457.91,562.67,457.72,560.59,457.72,556.26ZM435,489.13l10.06-10.07c-1.91-5.37,6.43-7.16,4.39-12.57,4-2.53,4.35-6.33,4.19-10.63-.26-6.84-.19-13.7,0-20.55.07-2.54-1.34-5.63,1.54-7.54,4.88-3.22-1.52-4.78-.94-7.28.13-.57,1.05-.91,1.37-1.48a26.51,26.51,0,0,0,1.25-2.89c-1.21-.41-2.43-1.19-3.6-1.11s-3.17.89-3.27,1.6a44.35,44.35,0,0,0-.45,10.09c.4,4.4-5.95,5.91-4.19,10.63s-4,6.47-4.25,10.62c-.22,3.9,2.06,8.47-1.45,11.64-4.42,4-1.6,9-2.66,13.36-.43,1.77-2.35,3.14-3,4.91C432.68,481.61,431.6,485.51,435,489.13ZM323,315.24c3.05.23,3.7-2.93,5.69-4.22,5.79-3.75,5.19-12.21,11.49-15.7,1-.55,1.55-2,2.11-3.15,2.22-4.52,4.34-9.09,6.57-13.61.28-.58.93-1,1.41-1.46-.85-.78-1.61-2.07-2.57-2.24a12.41,12.41,0,0,0-6.06,0c-2.34.84-4.2,3.33-6.54,3.82-3.26.68-6.79,0-10.17.24-2.12.18-3.34,1.44-3.3,4,.16,10.21.05,20.42.12,30.63C321.75,314.12,322.52,314.63,323,315.24ZM461.85,637.45c0-4.08-.76-8.34.18-12.19,1.33-5.49-3.93-8.14-4.26-12.62-.25-3.38.15-6.81-.19-10.17-.08-.79-2.1-2.07-3.06-1.93a9.27,9.27,0,0,0-4.92,2.28c-.68.66-.12,2.59-.12,3.95v24.47c8.12,7.15,2.46,16.58,4.24,24.77.19.88,2.13,2.08,3.08,1.94,1.75-.25,4.76-1.29,4.82-2.17C462.05,649.69,461.85,643.56,461.85,637.45ZM622.6,861.07c0,2.7-.13,5.41,0,8.1.15,2.42,5.6,7.15,8.35,7.37,1.34.11,2.7,0,4,0,8.09.07,7.21-.27,8.48-7.15,1.14-6.23-4-9.42-4.51-14.55-.2-2.07-1.71-3.29-4.19-3.08a47.51,47.51,0,0,1-8.09,0c-2.56-.23-3.74,1.13-4.06,3.22A39.61,39.61,0,0,0,622.6,861.07Zm92.76-132.9c-6.8,0-13.61-.1-20.41.14-.79,0-1.84,1.77-2.19,2.9a13.74,13.74,0,0,0-.08,4.06c0,2.78.07,5.46,4.1,5.3s8.17.16,12.24-.08c4.49-.27,7.12-5.48,12.63-4.28,4.54,1,9.48.35,14.23.06.77,0,2.11-2,2-3-.24-1.76-1.27-4.82-2.12-4.87C729,728,722.16,728.17,715.36,728.17Zm-69.87-53.58a24.57,24.57,0,0,1-4.5,0c-5.22-1.1-7.16,3.31-9.78,6.09-1.78,1.89.46,8.55,2.22,11.09,2.89,4.18,7,3.89,11,3.33,3.07-.45,4.51-4.46,8.62-4.23,2.43.13,3.5-3.87,2-6.4-1-1.69-3.39-3.12-3.41-4.7C651.57,674.87,649,674.09,645.49,674.59ZM479,893.67c-.76-3.16-1.19-5.72-2-8.14-.62-1.76-2.45-3.28-2.58-5-.37-4.73-.13-9.51-.13-14.27-5.08-2.93-4-7.92-4.39-12.51,0-.38-2.2-1.19-2.69-.85-1.64,1.18-3.52,2.57-4.18,4.31-.37,1,2.24,2.85,2.16,4.24-.11,2-2.49,5.31-2.14,5.56,4.27,3,3.73,7.57,2.78,11.1-1.82,6.73,4.13,10.83,4.56,16.69.07.9,3.16,2.29,4.74,2.16C476.41,896.84,477.61,894.88,479,893.67Zm11.22-548.84c-1.37,0-2.75-.06-4.12,0-2.35.13-3.54,1.33-3.63,3.77-.19,5.23,1.74,11.09-4.1,14.77,4.16,2,3.27,7,5.92,9.85a3.88,3.88,0,0,0,3.79.35c3-2.41,6.59-4.29,6.91-9.17.37-5.78-2.53-12.39,3.51-17-.7-.84-1.3-2.27-2.12-2.42A35.11,35.11,0,0,0,490.18,344.83ZM760.81,654c-.68,0-1.36,0-2,0-3,.15-5.79,3.39-4.13,5,5.13,4.93,3.77,11,4,16.84.16,4.18,5.82,15.19,9.5,18.55a1.55,1.55,0,0,0,1.4.16c.57-.32,1.4-.95,1.38-1.41-.07-1.92.9-4.13-1.37-5.55-3.45-2.16-1.58-3.72.29-5.9,1-1.16,1.4-4.4.57-5.27-2.48-2.61-4-5.12-3.6-8.86a58.6,58.6,0,0,0,.05-8.17C766.72,654,766.69,654,760.81,654Zm-435-210.56c0,7.56-.06,15.11.12,22.66,0,.62,1.61,1.33,2.58,1.71.26.1,1.35-.87,1.36-1.37.11-4.11,0-8.24.1-12.35,0-1.93-.47-3.8,1.31-5.69,2.19-2.32,3-9.39,2.78-16,0-1.38.11-2.76,0-4.12-.48-4.93,2.63-5.38,6.34-5.34.48,0,1.12-.83,1.4-1.42.15-.33-.26-1.35-.46-1.37-4.6-.31-9.55-1.67-13.71-.42-3.66,1.11-1.51,6.05-1.71,9.27C325.6,433.8,325.82,438.62,325.82,443.42ZM749.47,596.27c-1.34,0-2.69-.06-4,0-2.9.17-5.24,3.93-3.15,5.78,4.09,3.65,4.35,7.85,4,12.58-.1,1.33-.42,2.86.08,4,.91,2.07,2.48,2.51,4,.35,1.84-2.65,4.63-1.83,7.19-2.15,4.85-.61,5.72-2.8,5.37-8.05-.28-4.14-6-5.61-4.42-10.43.11-.32-1.85-1.79-3-2A36.68,36.68,0,0,0,749.47,596.27Zm112.2,82.37c-.59-4.46,1.26-9-2.72-13.29-3.35-3.59-.64-9.06-1.61-13.58-.12-.56-.85-1.07-1.41-1.45-3.58-2.46-1-4,.68-5.89.3-.34-.58-2.58-1.13-2.67a31.12,31.12,0,0,0-6.11-.14c-3.46.09-3.51.13-1.93,4.27.45,1.18,1.73,2.2,1.78,3.33.21,4.76.09,9.55.09,14.32,5,3.86,4.25,9.41,4.07,14.67-.14,4.16,3.57,5.4,5.58,7.9.14.18,2.48-.73,2.59-1.35A36.68,36.68,0,0,0,861.67,678.64Zm-545.53,28.3c.48-.48,1.41-1,1.37-1.43-.4-3.81,1.34-7.79-2.59-11.24-2.55-2.24-1.9-3,.1-6.78.3-.57,1.26-.91,1.36-1.46,1.07-5.7,3.5-11.48-1.76-16.69-1-1-1.39-4.73-.68-5.23,5.7-4,1.28-6.23-1.25-8.82-.43-.44-1.05-1.18-1.41-1.09a2.41,2.41,0,0,0-1.42,1.36c-2.85,8,3.43,17.54-4.19,24.75,6.83,6.25,1.38,15.15,4.79,22.07.86,1.73,2.77,3,4.26,4.33C315,707,315.66,706.88,316.14,706.94Zm30.29-65c0-7.43.18-14.86-.12-22.28-.08-2-2.08-3-4.42-2.81s-3.57,1.32-3.69,3.62c-.07,1.35,0,2.71,0,4.06,0,3.37.26,6.78-.07,10.12-.37,3.72,1.87,5.93,3.39,8.81.93,1.76-3.43,4.26-3.59,8-.22,5,3.05,7.08,5.68,9.92a1.44,1.44,0,0,0,1.37.16c.57-.31,1.39-.91,1.4-1.39C346.46,654.08,346.43,648,346.43,641.92Zm-86.56,129.4c0-6.79,0-13.59-.06-20.39,0-.49-1-1.47-1.29-1.38-1,.3-2.68,1-2.65,1.49.35,4.83.07,9.35-4.24,12.57,0,9.51,0,19,.21,28.52,0,.69,2.14,2,3.09,1.85,1.72-.29,4.67-1.38,4.72-2.28C260.05,784.93,259.87,778.12,259.87,771.32Zm742-8.33c0-4.71.23-9.44-.07-14.13-.28-4.47-3.78-6.75-7.43-8.13-1.18-.45-4,.95-4.67,2.24-.83,1.58-.68,4.09-.08,5.92,1,2.93,3.32,5.51,3.84,8.45.68,3.92.36,8.06.11,12.09-.21,3.42,2.85,4.26,4.41,6.25.51.66,1.82.84,2.79.91.33,0,1-1,1-1.48C1001.86,771.08,1001.82,767,1001.82,763ZM544.28,350.83c0,5.43-.23,10.88.22,16.28.08.94,3,2,4.69,2.31.95.16,3.08-1.14,3.1-1.82.24-8.81.07-17.63.35-26.44a8.45,8.45,0,0,1,2.51-5c2.77-2.83-.15-3.1-1.57-3.61-1.2-.44-2.68-.11-4-.09-2.78,0-5.42.08-5.29,4.09C544.4,341.31,544.28,346.07,544.28,350.83ZM845.86,860.07c4.12,0,8.46.79,12.29-.26,2.85-.77,5.05-3.93,7.53-6-1.94-1.94-3.62-4.36-5.93-5.64-1.28-.71-3.87,0-5.42.86-7.18,4-7.12,4-14.13,0-4.84-2.82-7.41-1.3-7.38,4.42a14.15,14.15,0,0,1,0,2.06c-.35,2.32.68,4.26,2.77,4.53C839,860.39,842.43,860.07,845.86,860.07Zm-173.8-60.62c0-1.34.07-2.69,0-4-.35-6.11-5.2-9.73-12.22-9.62-2.43,0-3.89,1-4.17,3.09a44.26,44.26,0,0,0-.06,8.06c.31,6.11,5.19,9.73,12.21,9.62,2.44,0,3.7-1.05,4.2-3.1A17.38,17.38,0,0,0,672.06,799.45Zm6.19,73c5.54,0,7.2-1.72,6.12-7.08s-5.42-10.07-4.78-16.17c0-.38-2.09-1.31-3.26-1.42-4.06-.39-5.56,3.31-7.61,5.6-1.88,2.1-1.06,5,1.37,6.76,2.6,1.94,1.68,4.7,2,7.23C672.78,872.56,672.88,872.59,678.25,872.44ZM511.31,176.52c0-3.43.16-6.88-.11-10.29-.07-.86-1.48-1.64-2.37-2.34-.06,0-.83,1.05-1.41,1.37-6.76,3.76-2.15,13-8.34,17.29-1,.67-.72,4.16,0,5.93,1,2.34,3,4.21,4.43,6.4,1.12,1.77,1.86,1.85,3,.25,1.5-2.16,4.16-4,4.61-6.29C511.86,184.87,511.31,180.64,511.31,176.52ZM383.53,490.93c0-.53-.11-4.54-.64-8.48-.09-.67-2.19-1.62-3.25-1.49-3.24.39-8.34,4.82-8.43,7.22a107.4,107.4,0,0,0,.05,12.17c.13,1.78.92,4.65,2,5,2.47.76,5.37.48,8,.1.86-.13,2-1.85,2.11-2.95C383.74,499.83,383.53,497.1,383.53,490.93ZM659.7,738.61c-.13-.56.11-4.23-1.44-5.28-3.5-2.4-7.84-3.66-12-5-.73-.25-2.82,1.15-2.95,2a46.86,46.86,0,0,0-.13,8c.19,7.08,5.76,11.48,13.33,10.37,1.13-.17,2.79-1.16,3-2.07C660,744.74,659.7,742.64,659.7,738.61ZM498,270.64c3.39,0,6.78.17,10.14-.1,1.1-.09,2.88-1.21,3-2.05.4-2.65.67-5.55-.09-8-.34-1.13-3.16-1.67-4.94-2.17-7-2-12.14,3.34-18.22,5-.7.19-1.08,2.18-1.29,3.39-.44,2.49,1.12,3.72,3.29,3.9C492.6,270.81,495.32,270.64,498,270.64ZM900.66,588c-5.41,0-10.81-.13-16.2.13-.77,0-2,1.9-2.07,3a27.71,27.71,0,0,0,.62,7.82c.48,2,1.49,1.64,2.86.11a8.2,8.2,0,0,1,4.88-2.66,77.88,77.88,0,0,1,14.16,0c4.07.44,6.18-1.86,8.35-4.38a5.41,5.41,0,0,0,1-2.84c0-.32-.94-1.08-1.46-1.09C908.76,588,904.71,588,900.66,588ZM543.89,1035.66a10.53,10.53,0,0,0-.66-1.44c-4.29-6.55-8.39-13.1-7.25-21.55.55-4.09-3.57-5.44-5.81-7.68-.84-.85-4.16-.52-5.2.48a5.69,5.69,0,0,0-.82,5.27c1.06,2.25,4.51,3.48,3.59,6.66-2.4,8.29,8.81,9.73,8.42,17,0,.91,1.31,2.36,2.33,2.76s2.65.11,3.94-.16C543,1036.93,543.4,1036.14,543.89,1035.66Zm-177-96.89s-.32-3.31-1.15-3.44c-4.63-.76-1.61,4.07-2.95,4.9-4.44,2.75-3.64,8.16-6.82,11.66a7.71,7.71,0,0,0,.48,10.77c3.19,3,.55,4.06-.9,5.94-.3.39.86,2.66,1.2,2.63,1.87-.19,5-.46,5.28-1.37.84-3.14.32-6.62,1-9.84.57-2.8,2-5.42,3.11-8.12-4.66-2.93-1.45-4.88.68-7.29C367.47,943.86,366.91,942,366.91,938.77ZM346.43,557a55.27,55.27,0,0,0-.06-6,14.88,14.88,0,0,0-1.3-3.48c-1.43,1-2.91,1.86-4.27,2.9-3.74,2.87-2.71,8.46-6.59,11.51-1,.77-.11,3.84-.15,5.86-.05,2.41,1.25,3.52,3.49,3.77,7.48.84,8.82-.13,8.88-6.45C346.45,562.4,346.43,559.71,346.43,557Zm88.28-261.56c3.85-.75,9.14,1.68,12.22-3.72,6.89-.31,9.7-6.39,14.16-10.11a1.51,1.51,0,0,0,0-1.36c-1.12-.55-2.61-1.63-3.46-1.28-9.35,3.76-17.68,9.71-27.31,12.91-.58.19-1.35.92-1.35,1.41s.77,1.21,1.35,1.39A35,35,0,0,0,434.71,295.46ZM371.16,554.1c.07,1.07.23,4.36.56,7.62a2.08,2.08,0,0,0,1.38,1.34c.35.1,1.32-.64,1.34-1,.22-4.08,4.46-6.78,4.62-10,.25-4.88,2-8.54,4.28-12.46.58-1-.87-3.61-2-5-.56-.67-3.14-.69-3.78,0-2.6,2.72-6.86,4.38-6.43,9.3C371.35,546.51,371.16,549.2,371.16,554.1ZM601.8,744c.23,3.58.22,7.57.84,11.47.32,1.94,1.68,1.84,2.79.23a8.5,8.5,0,0,1,2.86-2.77c6.28-3.23,7.06-3.75,3.68-8.21-2.85-3.75-.13-7.91-2.57-11.08A4.64,4.64,0,0,0,606,732.4c-1.15,0-3.15.73-3.27,1.41A100.15,100.15,0,0,0,601.8,744Zm19.11-527c4.64.54,8.42-.6,12.54-3.76,2.54-1.95,7.8-.2,11.81-.5.76-.06,2-2.06,1.93-3-.22-1.75-1.31-4.84-2.05-4.84-3.75,0-7.19-.32-11.18,2.16-5,3.13-10.47,7.9-17.64,6-.32-.09-1.42,1.08-1.32,1.32.41.95,1,2.24,1.78,2.54C618,217.37,619.43,217.05,620.91,217.05ZM519.55,342.41c-1.54-.52-3.26-1.47-5-1.56-1-.06-3,1.21-3.08,1.95-.25,6.14.06,12.31-.27,18.44-.09,1.7-1.81,3.3-2.7,5-.53,1,3.49,7.17,4.68,7.24s5.79-5.68,5.54-6.82c-.21-1,.61-20.34.83-21.55A18.69,18.69,0,0,0,519.55,342.41ZM568.4,210.28c-.49-.5-1-1.4-1.45-1.41-4.12-.11-8.24-.06-12.36-.06-2.92,5.15-8.1,3.64-12.57,4.54-1.68.34-2.8,2.93-4.45,4.13s-1.91,2-.19,3c.56.3,1.31.85,1.74.68,6.09-2.37,12-5.72,18.9-4.07,2.76-3,6.53-4,10.13-5.39C568.38,211.57,568.33,210.74,568.4,210.28ZM296.34,355.76c5-4.84,4.94-4.83,2.4-11.23-.69-1.75-1.62-3.55-1.69-5.35-.23-5.39,0-10.8-.19-16.2,0-.91-1.42-1.77-2.18-2.66-.48.48-1.37,1-1.37,1.44q0,17,.22,34a1.93,1.93,0,0,0,1.38,1.33C295.38,357.09,295.86,356.24,296.34,355.76ZM618.63,794.12c-2,0-4.36-.62-6,.2-1.28.67-2.75,3.68-2.24,4.61,1.52,2.79,3.56,5.79,6.2,7.33,2,1.17,5.48.9,7.88.06,3-1.06,2.42-4.42,2.11-7a16.6,16.6,0,0,0-2-5.18c-.14-.27-1.27,0-1.94-.06Zm223-189.61c1.62,0,4,.69,5.54-.16,2.24-1.25,4.85-3.37,5.4-5.59.35-1.41-2.38-4.58-4.36-5.36a15.67,15.67,0,0,0-9.31-.7c-1.19.33-1.58,4.45-1.88,6.91C836.64,602.55,837.66,604.75,841.62,604.51Zm-37.65,5a44.91,44.91,0,0,0,0-5.08c-.62-4.37-3.86-6.67-7.49-8-1.2-.44-4.6,1.33-4.61,2.11,0,3.72-1.89,8.1,2.57,10.87,1.1.69,1.77,2.13,2.9,2.72s2.79,1,3.67.47C802.4,611.83,803.35,610.22,804,609.54ZM874.2,229.26c-.22-4-.22-7.31-.73-10.55-.11-.7-2.06-1.47-3.21-1.56s-2.36.66-3.54,1c.33.94.4,2.16,1,2.79,1.57,1.53,2.08,2.61.13,4.36-3.48,3.12-2.36,7.14-1.33,10.86.2.74,2.15,1.35,3.3,1.36s3.11-.57,3.31-1.29A43.39,43.39,0,0,0,874.2,229.26Zm-369.28-8.09a54.9,54.9,0,0,1-6,0c-2.57-.29-3.59,1.16-4,3.22-.66,2.92,1.09,4.79,4.14,5.1,4.27.45,7.94-.29,10.31-4.24a7.79,7.79,0,0,0,1.07-2.84c0-.33-.89-1.07-1.43-1.14A31.67,31.67,0,0,0,504.92,221.17ZM350.55,703.49a34.37,34.37,0,0,0-.12-6c-.12-.68-2.41-1.64-2.47-1.57-1.89,2.56-5.48,3.63-5.76,7.68-.32,4.71.48,7.63,3.28,8.09,3.51.59,5-1.25,5.07-6.18C350.56,704.83,350.55,704.16,350.55,703.49ZM837.68,1063.6c-.36-.72.47.92,1.3,2.55q1-2.54,2.08-5.09c.23-.56.39-1.17.66-1.72.92-1.89,1.74-1.8,2.87,0a15.44,15.44,0,0,0,2.77,2.63,13.23,13.23,0,0,0,1.87-3.2,14.29,14.29,0,0,0,.07-4c-.11-4.63-.46-4.65-4.94-2.27C840.71,1054.43,835.13,1054.41,837.68,1063.6ZM593.41,687.7c.42,2.41.44,4.43,1.21,6.11.36.8,2.17,1.3,3.31,1.29a4.59,4.59,0,0,0,3.33-1.38c1.68-2.49-2.79-11.07-5.55-10.51C594.62,683.44,594.08,686.3,593.41,687.7ZM340.53,381.93a53.8,53.8,0,0,0,6-.06,13.84,13.84,0,0,0,3.41-1.35,11.84,11.84,0,0,0-1.54-2.78c-2-2.07-3.72-5.71-7.15-1.15-.86,1.15-3.5.9-5.27,1.46-.56.18-1.43,1.16-1.34,1.32.51.93,1.12,2.15,2,2.45C337.77,382.24,339.2,381.93,340.53,381.93ZM552.73,416c-.26-2.69,0-5.52-1-7.79-.48-1.08-3.36-1.29-5.19-1.45-.47,0-1.08,1.66-1.62,2.56,5.5,2.75,2.31,8.39,4.15,12.35.27.57.92,1.33,1.4,1.33s1.24-.77,1.36-1.33C552.26,419.83,552.46,417.9,552.73,416Zm-128.09,1.12c.29,2,.05,3.9.75,4.34,1.5,1,3.63,1.84,5.22,1.47,2-.45,2.61-2.25.43-3.85-1.81-1.32-2.21-2.74-.11-4.22s2-3.33-.19-3.94a6,6,0,0,0-5.17,1.38C424.52,413.57,424.82,416,424.64,417.16Zm165,199.6c0-2,.09-4-.07-6.06,0-.51-1-1.44-1.33-1.35-1,.33-2.57,1-2.61,1.59-.23,4-.16,8.08,0,12.12,0,.49,1,1.44,1.33,1.34,1-.32,2.48-.9,2.6-1.6A33.73,33.73,0,0,0,589.63,616.76ZM810.07,402.54a74.78,74.78,0,0,0,8.07-.12c.65-.08,1.27-1.63,1.59-2.6.1-.29-.85-1.33-1.34-1.34-4-.11-8.09-.17-12.12.06-.6,0-1.26,1.62-1.58,2.6-.1.28.81,1.25,1.35,1.33A27,27,0,0,0,810.07,402.54ZM432.41,265.09c-.09-.52,0-1.12-.27-1.44-1.6-1.91-9.32-2-10.72.25-.81,1.31-.23,3.55-.05,5.35,0,.49.87.91,1.35,1.36C424.71,266.59,429.31,267.13,432.41,265.09ZM593.75,643.57a26.78,26.78,0,0,0-.07-4c-.08-.53-1-1.44-1.33-1.34-1,.3-2.53.91-2.6,1.55a49.92,49.92,0,0,0-.06,8c0,.5,1,1.43,1.33,1.34,1-.31,2.32-.81,2.61-1.58C594.07,646.37,593.75,644.91,593.75,643.57Zm125.62,410.24c1.34,0,2.8.32,4-.12.77-.29,1.27-1.64,1.58-2.61.1-.3-.84-1.31-1.33-1.33a50,50,0,0,0-8,.06c-.63.07-1.24,1.63-1.55,2.6-.09.3.81,1.25,1.35,1.33A26.78,26.78,0,0,0,719.37,1053.81Zm195.89-76.36a26.78,26.78,0,0,0-.07-4c-.08-.54-1-1.44-1.32-1.34-1,.3-2.54.91-2.61,1.54a51.24,51.24,0,0,0-.06,8c0,.5,1,1.43,1.33,1.34,1-.31,2.32-.81,2.61-1.58C915.58,980.25,915.26,978.79,915.26,977.45ZM783.36,499.86c0-2.13.21-2.9-.05-3.45a30.45,30.45,0,0,0-2-3.19c-.69,1.06-1.91,2.09-2,3.17a45.19,45.19,0,0,0,.59,7.77c.07.53.89.95,1.37,1.43.47-.48,1.24-.88,1.36-1.44C783.09,502.27,783.29,500.34,783.36,499.86Zm-486.07,67c-1-1.52-1.7-2.55-2.38-3.59l-1.4,1.4a26.28,26.28,0,0,0-2.76,2.83,12.77,12.77,0,0,0-1.21,2.77c1.8.4,4,1.59,5.3,1S296.6,568.26,297.29,566.88Zm707.24,219.65c-.46,0-1.06-.11-1.38.13-2.07,1.54-2,5.63.09,6.78a1.54,1.54,0,0,0,1.37-.1C1006.68,791.81,1006.6,787.74,1004.53,786.53ZM403.81,848.22l2.39,3.61c.69-1,2-2.16,1.92-3.11-.19-1.76-1.23-3.43-1.92-5.13Zm-66.62-388-3.13,2.07c1.05.68,2.16,2,3.12,1.92,1.76-.2,3.42-1.24,5.13-1.92ZM276.64,954.29c-.88-.84-2.27-2.9-2.94-2.69-2.22.71-2.2,5.08-.14,6.62.32.24,1.25.27,1.34.1C275.47,957.24,275.89,956.08,276.64,954.29ZM552.81,432c-.75-1.79-1.17-3-1.74-4-.09-.17-1-.13-1.34.1-2.06,1.54-2.08,5.91.14,6.62C550.54,434.88,551.93,432.82,552.81,432ZM1031,958.42c-.88-.85-2.27-2.91-2.94-2.7-2.23.71-2.21,5.09-.14,6.62.32.24,1.24.27,1.33.1C1029.79,961.37,1030.21,960.21,1031,958.42Zm-338,8.24c-.88-.85-2.27-2.91-2.94-2.69-2.23.7-2.21,5.08-.14,6.62.32.23,1.24.26,1.33.1C691.79,969.61,692.21,968.45,693,966.66ZM429.15,364.86c-.88-.85-2.27-2.91-2.93-2.7-2.23.71-2.21,5.09-.14,6.62.31.24,1.24.27,1.33.1C428,367.81,428.41,366.65,429.15,364.86Zm-71,612c-1.2-2.07-5.27-2.15-6.81-.08a1.57,1.57,0,0,0-.09,1.37c1.14,2.1,5.24,2.16,6.77.09C358.25,978,358.11,977.37,358.14,976.9Zm499.92,126-4.63,2.39c1.71.69,3.37,1.73,5.13,1.92,1,.11,2.07-1.23,3.11-1.92ZM766.27,228l-1.46-2.66c-.46.46-1.37,1-1.29,1.36a13.08,13.08,0,0,0,1.29,2.77Zm-302.36,1.47c-.46.45-1.37,1-1.29,1.35a12.61,12.61,0,0,0,1.29,2.77c.45-.46,1.36-1,1.28-1.36A12.74,12.74,0,0,0,463.91,229.42ZM287.26,261.8l1.46-1.47A12.78,12.78,0,0,0,286,259c-.34-.07-.9.83-1.36,1.29Zm86.56,112.48-2.66,1.47c.46.45,1,1.36,1.36,1.28a12.74,12.74,0,0,0,2.76-1.28Zm177.24,70.07-2.65,1.47c.45.46,1,1.36,1.35,1.29a13.08,13.08,0,0,0,2.77-1.29ZM296.37,702l-1.46-2.65c-.46.46-1.37,1-1.29,1.35a12.61,12.61,0,0,0,1.29,2.77ZM246,748.19l1.46-1.47a12.78,12.78,0,0,0-2.76-1.29c-.34-.07-.9.83-1.36,1.29Zm52.39,30L297,779.7a13.28,13.28,0,0,0,2.76,1.29c.34.07.9-.84,1.36-1.29Zm265,24.73-2.66,1.47c.46.46,1,1.36,1.36,1.29a12.78,12.78,0,0,0,2.76-1.29ZM398,847.71c-.46.46-1.37,1-1.29,1.35a12.61,12.61,0,0,0,1.29,2.77c.45-.46,1.36-1,1.28-1.35A12.81,12.81,0,0,0,398,847.71ZM279.89,894.52l-1.47-1.47a13.08,13.08,0,0,0-1.29,2.77c-.08.34.83.89,1.29,1.35Zm64.48,6.77c-.46.46-1.36,1-1.29,1.36a13.08,13.08,0,0,0,1.29,2.77c.46-.46,1.36-1,1.29-1.36A13.08,13.08,0,0,0,344.37,901.29ZM282.54,921.9c-.46.46-1.36,1-1.29,1.36a13.08,13.08,0,0,0,1.29,2.77c.46-.46,1.37-1,1.29-1.36A13.08,13.08,0,0,0,282.54,921.9Zm-6.18,18.55c-.46-.46-1-1.36-1.36-1.29a12.78,12.78,0,0,0-2.76,1.29c.45.46,1,1.37,1.35,1.29A12.61,12.61,0,0,0,276.36,940.45Zm-26.2,9.71,1.47-1.46a12.61,12.61,0,0,0-2.77-1.29c-.34-.08-.9.83-1.36,1.29ZM519,953.41c-.48-.86-1-1.76-1.47-2.65-.46.46-1.36,1-1.29,1.35a13.08,13.08,0,0,0,1.29,2.77Zm-8.25,2.94-1.46-1.47a12.61,12.61,0,0,0-1.29,2.77c-.08.34.83.89,1.29,1.35Zm6.78,2.65c-.46.46-1.36,1-1.29,1.36a12.78,12.78,0,0,0,1.29,2.76c.46-.45,1.37-1,1.29-1.35A13.08,13.08,0,0,0,517.49,959Zm-67.42,6.78,1.47,1.47a13.08,13.08,0,0,0,1.29-2.77c.08-.34-.83-.9-1.29-1.36C451.05,964,450.55,964.91,450.07,965.78Zm59.18-2.66c-.46.46-1.37,1-1.29,1.36a12.61,12.61,0,0,0,1.29,2.77c.46-.46,1.36-1,1.29-1.36A13.08,13.08,0,0,0,509.25,963.12Zm-214.34,4.12c-.46.46-1.37,1-1.29,1.36a12.61,12.61,0,0,0,1.29,2.77c.45-.46,1.36-1,1.28-1.36A13,13,0,0,0,294.91,967.24Zm226.7,0c-.46.46-1.36,1-1.29,1.36a13.6,13.6,0,0,0,1.29,2.77c.46-.46,1.37-1,1.29-1.36A12.61,12.61,0,0,0,521.61,967.24Zm156,.6-1.46,1.47a12.74,12.74,0,0,0,2.76,1.28c.34.08.9-.83,1.36-1.28ZM1026,990.51c-.48-.86-1-1.76-1.47-2.65-.46.45-1.36,1-1.29,1.35a13.08,13.08,0,0,0,1.29,2.77Zm28.85,4.12c-.48-.86-1-1.76-1.47-2.65-.45.45-1.36,1-1.28,1.35a13,13,0,0,0,1.28,2.77Zm-500.22,5.59c-.46.46-1.37,1-1.29,1.36a12.78,12.78,0,0,0,1.29,2.76c.46-.46,1.36-1,1.29-1.35A13.08,13.08,0,0,0,554.59,1000.22Zm175.78,9.71c.47.87,1,1.76,1.46,2.66.46-.46,1.37-1,1.29-1.36a13.08,13.08,0,0,0-1.29-2.77ZM703,1016.71c-.46.46-1.36,1-1.29,1.35a13.08,13.08,0,0,0,1.29,2.77c.46-.46,1.36-1,1.29-1.35A12.86,12.86,0,0,0,703,1016.71Zm-9.71,15,1.47,1.47a13,13,0,0,0,1.28-2.77c.08-.34-.83-.9-1.28-1.36Zm143.08,4.12c-.48-.86-1-1.76-1.47-2.65-.46.45-1.36,1-1.29,1.35a13.08,13.08,0,0,0,1.29,2.77Zm-207,10.31-2.66,1.46c.46.46,1,1.37,1.36,1.29a13.08,13.08,0,0,0,2.77-1.29Zm.87,10.3c-.48-.86-1-1.76-1.47-2.65-.45.45-1.36,1-1.29,1.35a13.6,13.6,0,0,0,1.29,2.77Zm219.65,27.67c.48.86,1,1.76,1.47,2.65.46-.46,1.36-1,1.29-1.35a13.08,13.08,0,0,0-1.29-2.77Zm2.94,13.55-1.47-2.65c-.46.45-1.37,1-1.29,1.35a13.08,13.08,0,0,0,1.29,2.77Zm6.77-2.65c-.46.45-1.36,1-1.29,1.35a13.6,13.6,0,0,0,1.29,2.77c.46-.46,1.37-1,1.29-1.36A12.33,12.33,0,0,0,859.61,1095Z"/><path d="M206.28,963.12c-9.93,0-19.87-.06-29.8.09-1.06,0-2.09,1.27-3.14,1.94a27.79,27.79,0,0,0,3.07,2.05c.53.27,1.36-.12,2,.07,3.41,1.13,3.34,1.11.46,4.84a14,14,0,0,0-1.39,3.38c-2.59.66-3.35-1.82-5-2.86-3.79-2.43-6.92-1.48-7.36,2.25-.24,2,.34,4.18-.16,6.1s-1.75,3.56-3.77.95c-1.29-1.66-2.47-2.42-4.38-.33-5.42,5.93-12.09,9.86-20.24,10.26-3.32.16-4.53,2.55-6.44,4.25-.72.64-.93,1.87-1.36,2.84a20.33,20.33,0,0,0,3.57,1.22c1.33.22,2.73,0,4.08.07,3.42.29,3.7.49,1.37,4.37-.89,1.49-1.74,1.95-.39,3,4.12,3.22,4.31,6.59.09,9.85-1.48,1.14-1.33,1.76.29,3,1.31,1,3.11,2,.84,4.37-3,3.16-6,5-10.59,4.4-2.44-.31-3.54-1.21-4.19-3.29a127.3,127.3,0,0,1,0-13c.72-4.67-.44-6.72-4.87-8.62-2.5-1.06-4.73-4.85-3.28-5.88,3.61-2.57,3.49-6.86,5.53-10.09,2.33-3.67,7.37-3.43,9.67-6,4.18-4.6,9.95-6.23,14.43-9.94,1.23-1,1.56-.22,3,.49,3.12,1.51,4.76.48,7.19-2.3s-1.36-2.84-1.76-4.36c-.14-.52-.8-1.1-.66-1.43a2.75,2.75,0,0,1,1.39-1.44c4.9-1.77,10.48,1.92,15.31-2.73,4.33-4.16,10.44-.58,15.58-1.77a10.37,10.37,0,0,0,5-2.7c2.37-2.48,5.15-.8,9.56-.14,1.25.4.69-.52-.09-1.15a1.75,1.75,0,0,0-1.73,0,1.73,1.73,0,0,0,0,1.72,8.43,8.43,0,0,0,2.43,1.88c.16.08.83-.8-.59-2.47-2.38-4.58.84-5.47,2.4-7.44a4.49,4.49,0,0,1,2.79-1c.33,0,1.1.93,1.11,1.44C206.32,953.74,206.28,958.43,206.28,963.12Zm-74.19,47.41c-.46-.46-1-1.37-1.36-1.29a12.33,12.33,0,0,0-2.76,1.29c.46.45,1,1.36,1.35,1.28A13,13,0,0,0,132.09,1010.53Z"/><path d="M210.41,963.12c0-1.94-.42-4,.12-5.78s2-3,3.78-.69a11.78,11.78,0,0,0,2.71,1.92c3.5-5.62,9.14-3.17,14-3.69v8.24c-1.62-.93-3.54-1.57-4.77-2.86s-1.75-1.42-3,.21C219.85,965.11,214.76,962.45,210.41,963.12Z"/><path d="M231,967.25c0,.66,0,1.33,0,2-.29,5.8-3.37,8.48-6.58,5.47-4.38-4.12-7.54-4.65-11.41,0-.11.13-2.37-.85-2.49-1.51a34.14,34.14,0,0,1-.12-6Z"/><path d="M243.38,959c-1.61,6.51-6,8.91-12.36,8.25v-4.13c.67,0,1.74.27,1.95,0C235.52,959.27,239.15,958.42,243.38,959Z"/><path d="M218.61,948.48c-1.56,2.63-4,2.67-6.48,1.88a2.83,2.83,0,0,1-1.3-1.26c.59-.89,1.25-2.2,2.08-2.35a24.47,24.47,0,0,1,5.74,0A3.62,3.62,0,0,1,218.61,948.48Z"/><path d="M227.4,1020.5l3.62,2.39c-1.05.69-2.16,2-3.11,1.92-1.76-.19-3.43-1.23-5.14-1.92Z"/><path d="M569,1033.2c3.86-.3,4.35,2.35,4,5.11-.23,2.06-1.53,3.6-4,3.13Z"/><path d="M544.29,1061.05l-2.07,5.12c-.68-1.7-1.72-3.37-1.92-5.13-.1-1,1.24-2.07,1.92-3.11Z"/><path d="M415.91,939.86c-.48.86-1,1.76-1.47,2.65-.46-.45-1.36-1-1.29-1.35a13.08,13.08,0,0,1,1.29-2.77Z"/><path d="M221.05,942.85c.48.48,1.35,1.15,1.27,1.3a8.31,8.31,0,0,1-1.87,2.43,1.77,1.77,0,0,1-1.73,0,1.75,1.75,0,0,1,0-1.73A14.63,14.63,0,0,1,221.05,942.85Z"/><path d="M398.29,942.85c.48.48,1.36,1.15,1.27,1.3a8.14,8.14,0,0,1-1.87,2.43,1.23,1.23,0,0,1-1.74-1.74A15,15,0,0,1,398.29,942.85Z"/><path d="M206.28,963.12h4.13v4.13C207.55,967.35,206.18,966,206.28,963.12Z"/><path d="M453.6,992c-2.85.1-4.23-1.27-4.12-4.13h4.12Z"/><path d="M209.81,1022.3c-.48.86-1,1.76-1.46,2.65-.46-.46-1.37-1-1.29-1.35a12.61,12.61,0,0,1,1.29-2.77Z"/><path d="M215.12,1022.3l1.47-1.47a13.08,13.08,0,0,1,1.29,2.77c.07.34-.83.89-1.29,1.35C216.09,1024.06,215.6,1023.16,215.12,1022.3Z"/><path d="M754.5,324.22v4.12c-2,.15-3.83-.26-3.27-2.73C751.39,324.94,753.36,324.67,754.5,324.22Z"/><path d="M699.19,984.07c.48.48,1.36,1.15,1.27,1.3a8,8,0,0,1-1.87,2.43,1.23,1.23,0,0,1-1.74-1.74A15,15,0,0,1,699.19,984.07Z"/><path d="M709.16,1002.06c-.81.63-2,2-2.37,1.79-2.48-1.45-.79-2.63.57-3.58a1.79,1.79,0,0,1,1.74,0C709.4,1000.59,709.16,1001.45,709.16,1002.06Z"/><path d="M662.1,324.56c.47.47,1.35,1.15,1.27,1.3a8.17,8.17,0,0,1-1.88,2.43,1.23,1.23,0,0,1-1.74-1.74A14.13,14.13,0,0,1,662.1,324.56Z"/><path d="M560.77,1037.32v-4.12h4.12C565,1036.05,563.62,1037.42,560.77,1037.32Z"/></svg>