<svg id="Layer_1" data-name="Layer 1" xmlns="http://www.w3.org/2000/svg" viewBox="0 0 1200 1200"><title>BB_Artboard 84</title><path d="M901.07,74.73c1.2-5.07,2.23-7.73,2.39-10.45.3-5-.1-10,.14-15,.24-4.79,11.71-17.32,16.87-18.85,4.77-1.41,18.82,13,19,19.71.16,5,0,10,0,15,0,4-.95,8.3.2,11.93,2.53,8.08,7.19,15.32,6,24.59-1,7.87-1.88,16.45.24,23.83,2.34,8.17,6.44,15.57,5.71,24.65-.73,8.93-.16,18-.16,27s.32,18-.11,27c-.31,6.31.52,11.73,6.1,15.51-1.08,7.46,3.26,16-4.37,22.19-.56.46-1.21,1.85-1,2,10.93,11,3.62,24.55,5.17,36.81.57,4.45,3,6.77,5.21,9.94,2.48,3.63,1.24,7.5-2.38,10.09-2.31,1.66-2.83,2.93-1,4.28a10.05,10.05,0,0,1,4.45,10.19,70.9,70.9,0,0,0-.07,9v51c0,8,1,16.15-.27,23.94-1.4,8.64,3.58,14.54,6,21.63,1.24,3.56.22,7.92.22,11.91q0,70.47,0,140.92c0,8.59,1.81,17.55-5.74,24.73-1.5,1.42-.66,5.85-.12,8.75,1,5.49,7.25,8.6,6.14,15.56a69.21,69.21,0,0,0,0,20.92c1,6.89-4.55,10.3-6,15.59-1,3.71-.2,7.94-.2,11.94v89.95c0,8-.85,16.11.24,24,1.07,7.68-5.43,12.44-5.88,18.57-1.09,14.91-.36,29.95-.36,44.94,5.19,4.35,6.06,8.06.32,13.37-2,1.84-.32,7.65-.32,11.65,0,41,.06,82-.08,122.93,0,3.7,1.74,7.94-2.22,11.06-5.42,4.27-3.84,12.86-10.49,16.79-2.24,1.32-2.58,2.18-4.45-.26-3.43-4.48-7.77-6.16-12.23-1.31-3,3.26-6.25,4.49-10.26,2.59-2.26-1.07-5.43-4.29-6.18-3.75a33,33,0,0,0-7.91,8.56c-.92,1.39.06,3.92-.19,5.89-1.54,12.23,4.27,25.54-5.75,36.68-1.49,1.66-.13,5.82-.22,8.81-.63,20.42-3.21,22.77-24.63,22.61-2,0-4,0-6,0-3.48-.09-5.32-1.88-5.34-5.39,0-4-.24-8,.06-12,.27-3.47-1.53-6.84-4.18-6.34-10.27,1.92-17.4-8.5-27.58-6.44-1.17.23-4.21-2.27-4.08-3.22,1.46-11.37-4.23-23.58,4.18-34.24,1.54-2,1.49-5.47,1.54-8.27.17-10,.21-20,0-30-.15-7.84,8.7-12.29,6.47-21.61-2-8.51-.43-17.89-.43-26.88v-24c0-8,0-16,0-24,0-5.88-1-12,5.27-15.81-1.63-2.12-4.77-6-4.66-6.11,9.12-7.85,4.62-18.32,5.27-27.6.62-9,.13-18,.13-27q0-70.47,0-140.92c0-7.55-2.24-15.84,5.64-21.37-2.47-2.88-4.93-5.22-6-9.56-2-8.16,8.08-11.76,6-18.5-1.56-5.22-7.46-9-5.74-15.6.24-.94-.39-2.34.1-2.94,3.62-4.44,7.9-8.59.05-13.27-.88-.53-.12-3.8-.12-5.8,0-34,.09-68-.11-101.94,0-4.35.7-7.76,4.35-10.24,2.1-1.42,1.59-2.5-.67-4.31-4.56-3.66-5.24-7.84-.78-12.34a9.89,9.89,0,0,0,2-4c-7.6-4.93-4.56-12.59-4.68-19.13-.34-18,.34-36-.31-54-.34-9.34,4.18-20-5.49-27.63-.11-9.95-.11-19.91-.49-29.85,0-.89-2.37-1.88-3.8-2.4-.38-.14-1.89,1.27-1.93,2-.2,4-.09,8-.09,12q0,67.47,0,134.93c0,7.65-2,15.86,5.75,21.78.75.57-1.32,5.08-2.35,7.65-.62,1.53-2.73,3.94-2.54,4.11,9.14,8,4.87,18.64,4.91,28q.51,116.92.12,233.86c0,11.43,2.59,23.4-5.66,33.71-.76.94,1.6,5.31,3.45,7.17,2,2,2.66,2.93.48,4.38-3.69,2.47-4.31,5.94-4.3,10.26.18,40,.11,79.95.11,119.93,4.48,9.75-6.88,15.46-6.16,24.51.63,7.88-.11,15.87-.24,23.81-6.92,5.29-8.12,10.77-.64,16.65a2.12,2.12,0,0,1-.13,2c-8.38,5.88-4.8,14.61-4.56,22,.28,9-10.68,14.73-6.48,24.59.19.43-2.88,3.32-4.13,3.12-11.27-1.77-23.68,4.83-34-4.84-1.67-1.57-5.6-.9-8.49-.94-7.82-.11-15.64,0-22.48,0-1.52-2.09-2.56-2.86-2.56-3.63-.1-16-.08-32-.08-48a9,9,0,0,1,0-3c2.34-6.06,7.43-10.85,6.18-18.56-1.1-6.82-.23-14-.23-21s-.26-14,.08-21c.32-6.58-1.91-13.36,4.58-19.31,2.6-2.38,1.29-9.32,1.3-14.19.06-57-.42-113.94.36-170.89.2-14.21-5.7-29.61,4.89-42.89.3-.37-1.91-2.65-2.82-4.11-4-6.5-4.77-12.87,1.65-18.28,2.23-1.87,2.39-2.73-.24-4.35-3.89-2.4-3.88-6.29-3.86-10.39q.16-48,0-95.95c0-5.69,1.93-12.13-4.54-16.2-.25-.16.61-3,1.59-4,4.4-4.36,4.15-8.39-.3-12.42-3.4-3.07-4.5-7.38-1-10,6.14-4.66,3.73-10.71,4.3-16.34-8.37-5.39-5.89-13.86-6-21.5-.13-17,.12-34-.1-51-.11-8.55,2.33-17.87-5.94-24.5.81-4.65-2-9.91,2.57-14,1.18-1,2.76-3.67,2.42-4.05-10.74-12.26-2.89-26.74-4.71-40-.71-5.22-1.66-9.28-5.6-12.84-1.06-.95-.57-3.7-.66-5.62-.16-3.58,8.23-3.83,3.89-8.57-2.93-3.19-4.34-6.23-4.19-10.38,0-.68-1.73-2.13-2-2-1.37.8-3.59,1.93-3.6,3q-.35,25.47-.09,51c0,5.12-.34,9.48-4.65,13.25-1.4,1.22-1.54,6.74-.32,7.62,7.2,5.23,4.81,12.55,4.82,19.14q.18,118.44.08,236.87c0,15,.08,30,0,45,0,6-.58,11.83,5.4,15.9,1,.69,1.37,4.65.5,5.45-9.59,8.87-5.26,20.3-5.65,30.66-.25,6.66-3.39,15.07,2,19.86,8.11,7.18-5,8.71-2.44,14.24,1.52,3.22-1.09,7.87,2.88,10.8,2.59,1.92,1.83,3.37.59,6.47-5,12.43-5.08,20.93.4,30.07,3.26,5.43,2.85,8.75-1.43,12.51-.74.66-2.09,1.5-2,2.1a33.11,33.11,0,0,0,1.9,8.09c.67,1.65,2.38,2.87,3.62,4.28-10.25,8.64-4.87,20.28-5.57,30.62-.75,10.94-.17,22-.17,33s.08,22,0,33c-.07,5.74,1.2,11.51-4.54,16.32-2.11,1.77-.44,7.53-1.56,11.14-2,6.39,4.28,9.68,4.8,15-7.59,4.88-4.06,12.53-4.57,19.06-.47,6,.34,12-.21,18-.71,7.76,3.5,16.79-1.9,23-5.56,6.42-2.81,13-4.13,19.46-.53,2.6-2.32,5.13-4.08,7.25-5.47,6.59-12.89,11.2-15.32,20.75a11.78,11.78,0,0,1-14.16,8.15c-.93-.24-2,.13-3-.06-7.56-1.57-15.83,3.14-22.91-2.59.8-9.46-4.45-19.83,3.57-28.14,3.5-3.62,1.25-7.51,2-11.2,2.23-10.3-3.3-20.85,3.75-31.54,6-9.08,1.68-21.19,2.14-31.94.47-11-.62-22.05.38-33,.58-6.28,7.3-10.8,6-18.57-1.17-6.8-.25-13.95-.25-20.95v-18c0-7-.69-14.07.14-21,1.83-15.18-5.7-31.49,5.66-45.67,1.46-1.82.2-5.83.2-8.83,0-35,.06-70-.14-104.94,0-2.47-2-4.92-3-7.38-2.12,2.12-4.68,4-6.23,6.44a16,16,0,0,0-2.5,7.89c-.24,15-.12,30-.12,45v21c0,7-1.08,14.21.28,20.93,1.62,8-6,12.1-6.11,18.56-.45,19-.16,38-.16,57v45c0,10,.72,20.06-.22,30-.81,8.43,2.9,16.86-3.53,25.6-5.82,7.93-1.42,19.17-2.25,28.9-.34,4-7.69,11.41-11.74,11.48-7,.14-14,0-21,0-9.13.06-9.13.09-9.25,10.48,0,2,.07,4,0,6q-.49,11.77-1,23.55c-8.47,5.77-3.38,14.61-5.13,21.89-1.05,4.38-7.29,6.58-6,12.6.18.83-2.49,3-4.07,3.31-7.41,1.26-16.12-3.15-21.83,5.26-3.29-3.06-8-5.56-9.48-9.33-1.65-4.37-1.16-10-.15-14.79.92-4.4,4.42-8.22,5.56-12.61,1-3.75-1.49-9.49.5-11.68,8.52-9.37,5.08-20.34,5.64-30.76.33-6,.2-12,0-18-.11-3.43,1.63-7.75-3.53-9.35-.8,2.67-1.06,5.7-2.54,7.92-2.62,3.94-6.69,6.58-6.08,12.6.81,7.91.17,16,.15,23.94-8.48,5.39-4.53,14.17-6.29,21.45-1,4.23-5,10.06-8.67,10.88-7.6,1.7-15.86.75-23.82.39-1.11,0-3-2.85-3-4.41-.26-11,.39-22-.3-33-.57-9,9.18-14.53,6.55-24.61-2-7.49-1.15-16-.08-23.85.58-4.26,7.61-6.7,5.6-12.51-1.22-3.53-6.25-4.56-6-9.55.25-5.75-2.22-6.53-6.39-2.44a14.07,14.07,0,0,1-4.91,2.54c-.88.33-2-.07-3,.07-9.44,1.41-9.51,1.42-9.56,7.15-.07,8,.23,16-.09,24-.27,6.59,2.16,13.62-4.72,19.23-2.08,1.69-.75,7.42-1.23,11.26-1.21,9.53,3.14,19.55-3.2,28.68-5.5,7.92-1.74,17.2-2.77,25.81-9.68,6.43-2.49,21.33-14.08,27.44-3.35,1.76-3.75,10.74-6.68,11.43-7.55,1.8-15.76,1-23.69.74-1.22,0-3.35-2.61-3.38-4-.25-14,0-28-.24-42-.08-4.67,2.35-10.78-3-13.46-3.21-1.6-8-.92-11.82-.18-7.7,1.5-10.23-4.94-14.38-8.74-1.05-1-1.22-5.05-.55-5.43,9.41-5.16,2.26-17.16,9.8-23.21,1.72-1.39,1.57-5.25,2.06-8,2.17-12.14-5.1-25.68,5.82-36.7,1.49-1.51.2-5.79.2-8.79,0-15-.92-30.06.27-44.95,1.14-14.21-5.82-29.7,5.73-42.51,0-14-.32-28,.13-42,.24-7.48-3-15.66,4.74-22.18,2.08-1.75,1.08-7.44,1.09-11.32.08-22-.32-44,.22-66,.2-8.38-3.37-17.65,5-25,2-1.8.76-7.54.76-11.47q0-130.43.1-260.85c0-6.13.16-11.93-5.9-15.58.4-5.63-2.56-12,3.88-16.27a8.22,8.22,0,0,0,1.68-2c-10.3-8.67-4.85-20.34-5.56-30.67-.76-10.94-.06-22-.29-33,0-1.65-1.66-3.26-2.55-4.89-1.11,1.31-2.93,2.5-3.21,4-1.79,9.27,4.07,19.94-5.13,28-.22.19,1.82,2.57,2.36,4.1,3.32,9.41,4.25,15.44.72,22.05-1.82,3.42-4.26,6-4.18,10.35.28,17-.05,34,.3,51,.05,2.45,2.16,5.24,4,7.18s1.83,2.59-.51,4.43c-4.53,3.56-5.72,7.9-1,12.24,3.3,3,5.22,7.45,2.08,10-5.73,4.69-4.81,10.36-4.81,16.16,0,27,.17,54-.14,80.95-.08,7.49,3.3,16.22-5.42,21.69.55,7.49-3.69,15.84,3.41,22.14,2.26,2,2.64,2.74.12,4.37-6.42,4.14-5.09,11.21-3.22,16,1.63,4.17,6.28,6.1.64,11.11-2.12,1.89-1.35,7.37-1.36,11.21-.08,40,.63,80-.41,119.93-.36,14.22,6.27,29.69-4.86,42.82,1.2,4.3,5.86,6.51,5.47,12.2a253.73,253.73,0,0,0,0,36c.63,8.32-8.34,12.78-6.5,21.57,1.4,6.71.28,13.94.28,20.93v24c0,7,1.24,14.29-.34,20.91-1.72,7.18-7.33,13-5.93,21.62,1.27,7.79-.49,16,.49,23.92,1,7.72-8,10.58-7.35,18.3.21,2.58-6,5.15-7.83,8.53-4.35,8.2-10.3,15.93-9.13,26.24.56,4.93-.16,10,.17,15,.4,6.22-1.79,10.67-5.49,15.91-2.83,4,1.55,12.81-1,17.34-5.13,9-9.06,19.49-18.68,25.23-2.3,1.37-5.38,1.78-8.14,2-5,.3-10,0-15,.13-3.68.12-5.81-1.83-5.61-5.06.46-7.51-2.14-15.14,5.16-22.06,4.19-4-.38-13.72-5.23-18-4.35-3.86-11-2.81-14.76-8.24-2.41-3.49-5.36-8.22-2.31-10,9.36-5.52.43-18.44,10.39-23,.21-6.91.53-13.81.61-20.72.11-9,.78-18.08-.19-27-.92-8.38,8.22-12.76,6.52-21.59-1.48-7.71-.31-15.93-.31-23.93v-51c0-8,.55-16-.14-24-.79-9.06,9.41-14.42,6.55-24.63-2.08-7.41-.41-15.87-.41-23.87,0-9,0-18,0-27,0-6,7.58-8.36,6.28-15.55-1.47-8.16,1.59-17.22-5.48-24.13,5.55-3.62,4.7-6.94-.06-10.75-1.05-.85-1.43-4.68-.59-5.43,7.73-7,5.82-16.06,5.83-24.66q.09-85.46.07-170.9c0-7.64-2.4-16,5.83-21.69.91-.63.85-5-.09-5.59-7.15-4.8-5.79-11.91-5.79-18.73,0-27,.05-54-.1-81,0-1.65-1.6-3.29-2.46-4.93-1.14,2.23-3.09,4.41-3.27,6.72-.47,6,.1,12-.23,18-.36,6.59,2.19,13.64-4.7,19.24-2.09,1.7-1.15,7.4-1.18,11.27-.12,12,.44,24-.21,36-.46,8.4,3.28,17.62-5,25.06-2.06,1.86-.83,7.52-.85,11.44-.07,13,1.46,26.22-.56,38.89-1.29,8.1-6.34,15.51-5.64,24.6.77,9.94.18,20,.18,30,0,9-.53,18,.19,27,.47,5.85-2.89,8.83-5.77,12.7-.38.49,3.3,4,5.1,6.13-8.7,5.49-5.32,14.22-5.4,21.71-.3,29,.7,58-.44,86.93-.64,16.18,6.07,33.55-5.68,48.5,0,11,.5,22-.16,33-.5,8.41,3.68,18.07-5.26,24.75-.19,8.92,0,17.87-.71,26.74-.54,6.54,2.93,13.54-3.37,19.64-5.62,5.43-.45,13.58-2.82,19.74-1.6,4.18-4.58,7.81-6.43,12.32-2.45,6-9.28,10.14-14.31,15,0,0-1.22-1.72-2.06-2-6.48-1.84-6.07-1.14-8.54.53-6.45,4.34-3.71,10.67-4.32,16.29,7,4.54,5.6,11.63,6.2,18.49.76,8.54,5.46,15.74,10.46,22.63.45.62-.79,3.58-1.78,3.94-5.19,1.85-11.9-2-14.92-7.65s-5.78-11.89-9.91-16.81c-4.7-5.61,1.76-14.29-6.09-18.66-1.21-.67-1.8-3.31-1.86-5.07-.23-6,.66-12.12-.34-18-.75-4.38-5.49-8.43-5.35-12.53.22-6.65-3.9-10.5-6.14-15.63-1.81-4.14-.29-8.9-3-13.81-5.48-10.07-4.42-24.47.18-36.13,3.31-8.36,4.14-16-1-24.53-4.75-7.91-3.41-12.09,1.73-24.17a12.1,12.1,0,0,1,1.5-2.13c-10.45-6.54-1.59-12.35-.42-19.26,1.49-8.83,4.74-19.84-4.55-27.68,4.14-4.49,6-8.85-.72-12.72A14.43,14.43,0,0,1,234,835c5-3.32,1.83-5.35-.53-8.64-3.52-4.92-1.91-7.82,4.17-10.27,5.72-2.29,8-5.3,6.08-10.46-2.57-6.9-5.51-13.89-9.61-19.94-3.68-5.42-2.54-8.83,1.69-12.5,3.77-3.27.83-9.68,6.2-12.64,1.48-.82,2.28-6.8,1.26-7.56-5.74-4.26-5.44-9.93-5.43-15.95q.12-70.46-.05-140.92c0-6.73,2.83-8.65,8.93-8.12.56.05,2.3-3.23,1.88-3.8-1.73-2.41-4.26-4.21-6.14-6.53s-4.29-4.66-4.37-7.08c-.43-13-.2-26-.2-39,5.48-4.1,6.27-8.11.69-13.13-.74-.67,7.79-3.49,2.36-8.17s1-5.83,2.35-8.51c1.13-2.24,3.46-15.7,2.52-16.53-5.13-4.54,1.51-12.06-4.2-16.27-3.69-2.71-3.81-6.38-3.78-10.47.12-21,.23-42,0-63-.11-9.48,2.62-19.64-5.68-27.74-.79-.77,1.72-4.94,2.74-7.52.56-1.43,1.9-4,1.7-4.08-6.45-4-4.64-10.45-4.64-16.17q-.09-100.46,0-200.89c-4.26-8.91,7.56-13.34,6-21.5C243.41,112,251,107.23,254,100.41c2.85-6.51,7.33-11,11-16.49,5.48-8.28,8.89-.58,13.43.35,10.78,2.19,14.12,8.75,13.51,19-.48,8-.1,16-.1,24,12.05,18.11,3.38,38.39,6,57.49,1,7.45-3,15.86,5,22.08,1.57,1.22,1,5.53,1,8.41.1,10-.08,20,.09,30,.09,4.72-1.35,9.64,3.26,13.69,5.4,4.75-4.09,6.89-2.95,8.15,11.86,13.09,3.18,28.58,5.51,42.69,1.7,10.25-3.33,21.78,6.12,30.48,0,9-.07,18,0,27,.08,6.92.19,13.84.8,20.72.08.94,3.09,2.17,4.79,2.26s4.53-.64,5-1.78a22.46,22.46,0,0,0,1.32-8.43q.11-69,.05-137.92c0-5.86,1-11.9-5.08-16-1.06-.71-1.6-4.43-.78-5.37,11.33-13,4.45-28.43,5.59-42.64,1.19-14.89.44-30,.18-44.95-.1-6.17,1.68-10.68,5.44-15.94,2.84-4,.37-11.59.85-17.54.1-1.16,2.82-2.87,4.43-3,5-.39,10,.22,15-.24a13.47,13.47,0,0,1,12.82,5.45,79.21,79.21,0,0,0,6.31,6.39c5,5,11.75,9.1,14.32,15.07s1.92,13.87.63,20.54c-1.53,7.95,5.63,12.1,6.14,18.57.63,8,.15,16,.15,24v21c11.59,9.44,3.92,22.34,5.91,33.51,2.33,13.1-4.92,27.68,6.09,39.47,0,16-.08,32,0,48,0,7.9.25,15.81.85,23.69.07.9,3.11,2.12,4.82,2.19s4.72-.8,5-1.81c.93-3.7,1-7.63,1.31-11.48s-7.67-6.41-4.33-8.52c8.52-5.38-.1-16.36,8.22-20.87,2.77-1.51,2.38-2.36.14-4.4-1.94-1.76-3.84-4.78-3.85-7.25q-.33-79.44-.09-158.9c0-8.54,8.83-14.92,6.62-24.21,4.4-3.57,7-10.14,14.57-8.37a17.39,17.39,0,0,0,6,0c6.13-.73,7.05,2.36,9.24,7.85,4.59,11.49,7.5,11.71,15.57,2.74,5.33-5.93,7.27-1.83,10.92,1.16,2,1.61,5.9.83,7.85,2.45,3.62,3,7.55,5.82,7.3,11.93-.53,13-.35,26,0,39a12.13,12.13,0,0,0,3.57,7.37c2,2,2.55,2.79.45,4.41-6.2,4.8-5.74,9.56.05,14.55,1.19,1,1.25,3.42,1.76,5.2,1.78,6.25-2.42,10.47-5.19,15.17,7.53,4.68,5.49,12.28,5,18.82s7.31,8.63,6.47,15.55a110.21,110.21,0,0,0,0,26.92c.92,7.27,8.85,12.92,5.91,21.6-.09.29,2.43,1.69,3.87,2.13.4.12,1.86-1.32,1.86-2.05q.15-40.47.08-80.95c0-5.91-7.61-8.38-6.2-15.55,2.38-12.07-3.81-25.36,5.92-36.69,2-2.3.29-7.75.29-11.75,0-24,1.48-48.1-.6-71.91C518,73.68,526,64.51,526.24,52.76c.09-4.69,5.55-9.56,12.4-10.49,7-.94,12.56,2,14.75,7.36,3.15,7.63,9.61,14,8.52,23.57a118.39,118.39,0,0,0,0,26.94c1.66,14.19-5.74,29.69,5.81,42.51,0,9-.84,18.09.18,27,2,17.16-6.13,35.5,5.82,51.5,0,9-.06,18,0,27,0,3.37,6.73,6.57,9.09,3.7,5.38-6.55,12.1-7,18.44-4.38,4.15,1.75,7,7.38,12.44,3.75,4-2.7,1.86-7.37,1.89-11.09.19-24,.68-48-.17-72-.38-10.9,2.31-19,10.92-25.7,3.32-2.6,6.09-4.09,10.38-4.23,4.67-.16,10.67,3,13.8-2.09,1.81-2.94,1-7.58,1.11-11.46.13-8,.41-16,0-24-.7-12.27,1.61-22.12,11.5-31.52,10.45-9.94,11.95-12,20.89-3.39,2.15,2.08,4,4.48,6.4,6.3,4.88,3.76,5,10.84,2.88,13.33-7.4,8.65-5.7,18.33-5.46,27.84.18,7.49-3.32,16.21,5.38,21.7-1.8,2.12-5.27,6-5.18,6.1,11.57,10.74,3,24.64,6.08,36.56.32,1.25,3.28,2.86,4.64,2.57,2.46-.52,6.6-2.3,6.63-3.65.46-17,.64-34,.16-51-.26-9.35.82-17.42,9.09-23.41,1.87-1.35,1.95-5.07,3.07-7.59,1.77-4,6.1-5.58,9.38-3.61,1.66,1,2.64,3.18,4.32,4.1,9.7,5.31,16.2,15.36,16.25,25.79q.09,18,0,36c0,3.6,1.9,5.82,5.16,5.39,2.41-.33,6.63-2.61,6.54-3.71-.85-9.79,11.3-11.09,12.16-19.06.74-6.92-.32-14,.41-21,.25-2.39,4.33-4.21,5.11-6.77.72-2.35-.17-5.55-1.25-8s-4.35-3.47-4.25-7.29c.34-13,.1-26,.15-39,0-4.9,8.6-20.66,12.57-24.82,2-2.13,3-2.77,4.33-.24,3.07,5.89,11.52,2.36,14.54,8.44,1.25,2.51,3.12,4.7,4.46,7.17.42.77.07,2,.07,3V72c0,6,1,12.23-.26,17.93-1.84,8,5.89,12.06,6.11,18.56.47,14,.12,28,.16,42,0,4.74,2.1,6.35,7.77,5.92,2.84-.21,7,.22,8.22-1.4,4.48-6.15,10.57-4.24,16.28-4.55,10.6-.57,11.39-1.74,6.83-11.87a40.42,40.42,0,0,1-1.92-4.07c6.42-4,4.57-10.38,4.79-16.13.25-6.72-1.8-14.13,5.71-18.63q.13-8.92.28-17.87c7.07-4.35,5-14.54,12.37-19,4.06-2.44,12.81-3.79,16.21-.68C893.71,65.48,896.59,69.52,901.07,74.73ZM327.79,406.37c0-3,0-3.95,0-4.9-.14-3.26-1.88-5.14-5.11-5.1-1.72,0-4.41.27-5,1.32-1.19,2.25-2.32,5.42-1.6,7.6,1.07,3.27,6.39,4.24,5.68,9,1.63-.63,4.17-.84,4.71-2,1.11-2.37,1.16-5.25-4.71,4.67,0-.89.35-2.13-.1-2.58a2.61,2.61,0,0,0-2.53,0c-2,1.39-4.43,3.1-.83,5.21C318.82,419.85,320.61,417.89,327.79,406.37ZM598,736.42c0,7.2-.08,12.15.1,17.09,0,.73,1.21,1.67,2.07,2,.47.2,1.57-.45,2-1,3.2-3.79,11-6.88,2.11-12.69,1.51-4.19,5.59-6.57,5.56-12.23-.38-62-.22-123.9-.31-185.85,0-2.76-.3-6.12-1.83-8.16-6.79-9.07-6.64-17.52,0-26.67,3.57-4.92-4.25-6.47-4.57-11.65-.94-15.21,5.95-31.52-5.29-45.71-.83-1.05,1.34-5.39,3.07-7.36,3-3.4,4.18-6.9,1.13-10.24-2.78-3-4.73-5.74-4.56-10.21.37-10,.21-20,0-30,0-.89-2.36-1.91-3.79-2.45-.37-.14-2,1.29-2,2-.1,32,.18,64-.31,95.92-.1,6,4,8.43,6,12.59,2.54,5.26-3.71,7.9-5.1,12.12,9.27,7.84,4.57,18.43,5.09,27.8.73,13,.11,26,.23,39,0,3.86-.8,9.45,1.3,11.22,5.7,4.79,4.61,10.51,4.63,16.28q.09,33,0,65.95c0,2.8,0,6.35-1.55,8.24-2.63,3.18-3.59,4.25-.92,8.89,4.91,8.55,5.39,19.6-.06,27.67C596.45,725.84,598.72,732.16,598,736.42ZM795.59,771.2V684.62c0-3,.92-6.45-.29-8.81-1-1.9-4.45-3-7-3.41-1.39-.22-3.81,1.43-4.52,2.86-.8,1.59-.35,3.89-.18,5.87.75,8.42-3.23,17.94,5.85,24.56.88.64.74,4.88-.22,5.52-7.17,4.8-5.63,12-5.64,18.69q0,106,0,212v6a8.83,8.83,0,0,0,.07,3c.31.85,1.42,2.2,1.83,2.08,1.45-.39,3.87-1.26,3.91-2.06.34-6,.18-11.93.18-17.9V873.21c10.35-7.3,5.09-18.1,5.83-27.39.78-9.89.17-19.89.17-29.84Zm-6-180c0-11.84.09-23.68-.16-35.51,0-.9-2.33-1.93-3.74-2.5-.35-.14-2.07,1.52-1.93,1.93,2.41,7-6,9.22-6.34,15.28-.31,6.35,1.56,11,5.94,15.5,1.48,1.53.24,5.69.24,8.65,0,8.88-.05,17.76.09,26.63,0,.71,1.55,2.11,1.95,2,1.42-.5,3.76-1.5,3.79-2.36C789.69,611,789.59,601.08,789.59,591.22ZM279.81,623.8c0,6.84-.4,13.72.3,20.49.16,1.51,4,3.31,6.41,3.74,3.29.58,5.31-1.72,5.2-5.08-.05-1.76-.38-4.05-1.52-5.14-2.95-2.83-5.25-4.81-.76-8.59,1.72-1.46,3-6.78,2.15-7.43-6.32-4.94-6.25-11.43-6-18.32,0-.71-2.39-1.74-3.81-2.17-.43-.12-1.9,1.26-1.91,2C279.75,610.11,279.81,617,279.81,623.8ZM789.89,522.65c-.35-4.8-.57-10.59-1.43-16.28-.14-.93-3.13-1.95-4.81-2s-4.75,1-4.84,1.89c-.72,6.69-.58,13.48-1.3,20.17-.65,6,4.1,8.3,7.14,11.81.6.69,1.49,1.81,2,1.71a3,3,0,0,0,2-2C789.23,533.25,789.48,528.44,789.89,522.65Zm-522.08,452c.23-6.28,1.27-13.29-6-17.53A35,35,0,0,1,266,953c2.2-1.58,2.24-3-.47-4.15-5.48-2.39-10,0-9.56,5.59s-3,12.26,2.07,16.54c5.75,4.81,3,10.66,3.86,16.08.13.78,1.53,2.09,1.95,2,1.42-.45,3.69-1.33,3.79-2.25A112.28,112.28,0,0,0,267.81,974.6ZM555.69,675.15c0-5.89.47-11.85-.33-17.63-.19-1.4-4.52-3.06-7-3.12-3-.07-5.79,2.15-4.56,5.66,1.49,4.26,4.72,8,5.65,12.33,1,4.7.14,9.78.31,14.68,0,.73,1.46,2.11,1.89,2,1.42-.42,3.74-1.26,3.84-2.15A109.68,109.68,0,0,0,555.69,675.15ZM795.77,650.8c-.48-2.85-.18-5.69-1.22-6.32-2.25-1.36-6-3-7.69-2-5.07,2.83-5.15,14.46-.11,17.47,1.68,1,6.1-.26,7.59-2S795.48,652.62,795.77,650.8ZM789.59,972c0-2.94.14-5.89-.09-8.81,0-.75-1.42-2.11-1.86-2-1.43.39-3.76,1.2-3.88,2.09-1.09,8.21,3.13,17.69-6,23.88,1.56,1,3.26,2.88,4.64,2.67,2.52-.38,6.61-1.69,6.9-3.22C790.17,981.9,789.59,976.89,789.59,972ZM681.81,705.56c-.28-1.81.15-5.37-1.42-7.16s-5.91-3-7.59-2c-5,3-5,14.63.1,17.46,1.73,1,5.45-.66,7.7-2C681.63,711.25,681.34,708.42,681.81,705.56Zm-402-24.38c0,3.9-.74,8,.33,11.6.49,1.67,4.46,3.09,6.92,3.19,3,.13,5.49-2,4.69-5.56-1.41-6.26-6.53-10.87-8-17.17a2.81,2.81,0,0,0-1.95,0c-.79.48-1.8,1.28-1.91,2.06A40.58,40.58,0,0,0,279.81,681.18ZM417.35,432.91c.5,3.67.42,6.64,1.46,9.15.48,1.19,3,1.76,4.74,2.17,3.45.82,5.46-1.3,6.1-4.24s-7.3-14.46-8.72-13.45C419,427.91,418.31,431,417.35,432.91ZM597.67,770.54c0,5.07-.34,8.07.14,10.93.27,1.67,1.86,3.12,2.86,4.67,1-1.55,2.84-3.09,2.85-4.65.07-5.75-.39-11.51-.85-17.26a2.82,2.82,0,0,0-2-1.93c-.69,0-1.82,1.14-2,1.94C598.06,767,597.78,769.83,597.67,770.54ZM423.55,399.11c.85-6.14-1.34-8.53-5.87-8.89-3.73-.29-5.3,1.7-5.87,4.7-.88,4.68,1.51,7.75,6,7.21C420.08,401.86,422.14,399.89,423.55,399.11Zm408-83.9c0,1.91-.47,4,.16,5.68.43,1.17,3.18,2.77,3.5,2.5a39.57,39.57,0,0,0,7.92-8.18c.34-.51-3.51-4-5.63-5.82-1.09-.95-2.66-1.35-4-2-.65,1.64-1.41,3.26-1.9,5A10.9,10.9,0,0,0,831.58,315.21Zm54-132a39,39,0,0,0-.09-5.83c-.12-.78-1.51-2.09-1.93-2-1.42.45-3.69,1.34-3.79,2.26a72.15,72.15,0,0,0-.09,11.67c0,.72,1.51,2.08,1.93,2,1.42-.45,3.39-1.18,3.81-2.3C886,187.32,885.55,185.19,885.55,183.24ZM784.32,429.29c-.94-2.8-1.77-5.4-2.77-7.93a2.24,2.24,0,0,0-1.93,0c-2.85,3.23-2.85,12.61,0,15.83a2.28,2.28,0,0,0,1.93,0C782.55,434.69,783.38,432.09,784.32,429.29ZM604.15,797.39l-3.48-5.26c-1,1.52-2.94,3.14-2.79,4.53.28,2.56,1.79,5,2.79,7.47C601.89,801.76,603.12,799.4,604.15,797.39ZM286.21,707.32c-1.27-1.23-3.29-4.23-4.27-3.92-3.23,1-3.21,7.4-.2,9.63.46.34,1.81.39,1.94.14C284.52,711.61,285.13,709.92,286.21,707.32ZM604.08,817c-1.08-2.61-1.7-4.3-2.53-5.86-.14-.25-1.48-.2-1.94.14-3,2.24-3,8.61.2,9.63C600.78,821.2,602.8,818.21,604.08,817ZM516.71,309.67c-1.49,5-2.74,7.55-2.81,10.12,0,1.48,1.81,3,2.81,4.54,1-1.52,2.85-3.06,2.81-4.54C519.44,317.21,518.19,314.68,516.71,309.67ZM290.85,662.24c-1.76-3-7.67-3.12-9.9-.12a2.26,2.26,0,0,0-.15,2c1.67,3.06,7.63,3.15,9.87.14C291,663.79,290.8,662.92,290.85,662.24ZM490.13,853c-1.09-2.6-1.7-4.29-2.54-5.86-.13-.24-1.47-.19-1.93.15-3,2.23-3,8.6.2,9.63C486.83,857.19,488.85,854.19,490.13,853ZM286.28,587.48l-3.47-5.26c-1,1.52-2.95,3.14-2.8,4.53.28,2.56,1.8,5,2.8,7.47Zm496.46-88.81c2.61-1.09,4.3-1.7,5.86-2.54.25-.13.2-1.47-.14-1.94-2.24-3-8.61-3-9.63.21C778.52,495.37,781.52,497.39,782.74,498.67ZM326.92,428.42l-2.13-2.13a18.77,18.77,0,0,0-1.88,4c-.11.5,1.21,1.31,1.88,2Zm455.81-34.25-2.13-3.87c-.67.67-2,1.48-1.88,2a18.62,18.62,0,0,0,1.88,4Zm10.73,241.16,2.13-2.13a18.26,18.26,0,0,0-4-1.87c-.5-.11-1.31,1.2-2,1.87ZM731.75,289.21l-2.13,2.13a18.16,18.16,0,0,0,4,1.88c.49.11,1.3-1.21,2-1.88Zm-51,379.11-2.13-2.13a18.26,18.26,0,0,0-1.87,4c-.11.5,1.2,1.31,1.87,2Zm-42,149.94-2.13-2.14a19.07,19.07,0,0,0-1.88,4c-.11.49,1.21,1.31,1.88,2Z"/></svg>