<svg id="Layer_1" data-name="Layer 1" xmlns="http://www.w3.org/2000/svg" viewBox="0 0 1200 1200"><title>BB_Artboard 7</title><path d="M173,386.31c-9.53,43-11.8,43.22-12.44,44.34-3.45,6.08,2.74,14-3.85,19.78-5.37,4.71.89,14.38-7.46,18.46-1.08.53-.48,5-.22,7.65.32,3.28-1.32,5-4.1,5.51-8.6,1.69-11.86-.61-12-8.21-.08-5.32,0-10.64-.26-15.94,0-.66-1.08-1.46-1.84-1.82-.43-.2-1.73.29-1.77.6-1.15,7.39-6.7,11.69-11.34,16.71-2.65,2.87-6.13,5-9,2.77-3.16-2.51-7.83-4.64-7.85-9.94,0-4.44,0-8.89,0-13.34,9.11-6.56,4.15-16.21,5.26-24.49a49.34,49.34,0,0,0,0-10.66c-.13-1.54-1.09-4.09-2-4.26-2.28-.43-5.63-.65-7,.67-8.46,7.87-16.33,16.38-24.75,24.31-4.36,4.11-7.3,10.67-13.86,11.38-5.39.59-7.46,7.11-13.8,6.07-2.23-.37-4.07,5.33-8.45,4.9S26.48,462,23.23,460c-5.11-3.14-9.48-8.1-12.84-13.17-1.59-2.41-1.52-8.42.29-10.06,4.62-4.2,5-8.84,4.81-14.24-.19-7.11,1.12-14.48-.32-21.29C13,390.93,22.16,383.88,21,374a105.4,105.4,0,0,1,.14-26.62c.63-4.55,6.17-7.88,5.1-13.87-.93-5.28-.46-10.48,4.79-14.08.88-.6.92-3.55.33-5-3.49-8.69,6.13-14,5.44-21.85,5.31-3.23,5.13-8.35,5.62-13.77.34-3.84,4.83-7.48,4.77-11.16C47,256.87,55.54,253,61.72,247.34c1.46-1.33,5.2-.51,7.82-.15,10.68,1.48,10.66,1.55,13.79-1.19,6.93-6.08,15.1-5.75,20,1.09,1.41,1.94,1.76,4.6,2.88,6.79,3.36,6.58,3.93,6.68,14.56,4,1.5-.37,4.13-.1,4.82.88,2.78,3.95,2.59,9.55,6.89,12.78-8.39,6.87-4.17,16.31-4.81,24.66-.61,8-.13,16-.13,24,0,8.9-1.18,18,.28,26.64,2,11.93-6.37,21-7,32.09-.15,2.48-4.09,4.87-4,8.92.25,17.79.08,35.59.14,53.38,0,2.5.48,5,.77,7.9,6.07-1,7.89-6.51,11.89-9.07,4.81-3.06,3.22-9.22,7.19-13.26a24.53,24.53,0,0,0,6.37-15.67c0-6,5.15-8.93,5.64-13.81.62-6.17-.33-12.49.27-18.66.72-7.46-3.62-16.24,5-21.9.06-4.43.17-8.85.18-13.27,0-20.46-.09-40.93.29-61.39,0-1,4.06-2.46,6.36-2.77,1.25-.16,2.88,1.53,4.13,2.63a47.11,47.11,0,0,1,5.64,5.66c2.94,3.69,4-.18,5.71-1.23,5.64-3.4,9.77-2.49,9.88,2.29.15,6.23-.12,12.47.17,18.68.06,1.22,1.84,2.35,2.83,3.52.8-1.45,2.24-2.89,2.27-4.36.21-8.89-.11-17.8.26-26.68.09-2.26,1.76-4.64,3.18-6.62,3.52-4.88,5.81-4.88,9.33,0,1.43,2,3.11,4.35,3.2,6.61.37,8.88,1.16,17.93-.13,26.64-1.26,8.53,8,13,6,21.94-1.75,7.6-.36,15.93-.36,23.94v50.71c0,8-.2,16,.12,24,.09,2.33,1.65,4.61,2.53,6.91.9-2.29,1.52-4.74,2.76-6.83s4.29-3.89,4.56-6.06c.59-4.63,3.58-7.51,5.51-11.18,1.84-3.48.81-8.68.45-13.07-.45-5.56.48-10.31,5.26-13.74-10.42-9.47-3.86-21.69-5-32.58a185.73,185.73,0,0,1,0-32c.5-6.68-7.88-9.21-5.82-16.57,1.39-4.94.62-10.63.17-15.93s3.92-7.4,6.53-10.7c1.39-1.74,3.35-1.7,3.65.71.91,7.54,8.31,12.77,6.24,21.68-1.56,6.75-.71,14.2-.05,21.26.19,2.06,3.63,3.68,5.23,5.77,2.51,3.3,4,.92,5.71-.74a8.84,8.84,0,0,1,1.91-1.82,5.87,5.87,0,0,1,2.53-.32c7.12,0,14.24,0,21.36,0s14.44,1.06,21.29-.31c6.4-1.29,11.52-6.58,19.24-5.28,6.92,1.17,14.2.25,21.31.25,13.35,0,26.7.23,40-.11,5.83-.15,11.66,1.54,17.35-3.42s13.58-1.12,20.49-1.7c6.18-.52,12.45-.11,18.67-.11s12.59.78,18.65-.23c5.6-.93,9.65-6.48,16.55-5.32,6.05,1,12.42.21,18.65.21s12.46-.16,18.67.11c1.47.07,4,1.52,4.07,2.44.13,2.37-.15,5.39-1.55,7.09-2.65,3.22-5.16,7-10.61,6.5a104,104,0,0,0-18.67,0c-8.33.8-17.83-3.66-24.6,4.95-10.64.09-21.28.11-31.92.43-.78,0-1.67,2.11-2.13,3.38-.13.34,1.15,1.72,1.79,1.73,14.23.1,28.47.24,42.7,0,7.85-.12,13,7.81,21.76,6.25,3-.54,1.77,5.9,2.24,9.22.44,3-.92,5.24-3.66,5.84-2.54.55-5.35-.18-8,.17-13.5,1.8-27.82-4.49-40.73,5-2.9,2.12-8.72-.1-13.11.4-7.48.84-16-3.12-22.19,4.56-.77.95-3.27.64-5,.66-7.12.06-15-1.88-21.13.59-5.55,2.24-10.29,5.69-16.72,4.94-.59-.07-1.63,2.11-2.08,3.38-.12.34,1.15,1.7,1.8,1.72,6.22.13,12.45,0,18.68.09,5.33,0,7.5-6.13,13.83-5.67,14.16,1,28.45.41,42.68.27,5.06-.06,10.84,1.81,14.3-4.09,9.53-.17,19.06-.44,28.58-.33.69,0,1.81,2.78,1.92,4.32.69,9.39-4.14,16.42-12.45,15.87-7.49-.49-12.89,3.35-19.27,5.27-5.71,1.73-12.35.37-18.57.37-4.09,6-10.25,5.71-16.45,5.49-.61,0-1.9,1.47-1.78,1.75.59,1.25,1.67,3.35,2.39,3.27,6.66-.67,14.34,3.26,19.64-4,7-.39,13.92-1.19,20.87-1.06a36.87,36.87,0,0,0,19.39-5c5.45-3,13.9,2.17,19.34-5.08,1-1.36,5.15,0,7.52-.83,3.86-1.34,7.4-4.76,11.19-4.94,7-.34,4.27-6.31,6.6-9.1,5-5.93,6.11-13.89,10.2-19.7,3.48-4.93,3.26-11.83,8.63-15.2,5.61-3.53,5.9-10.15,9.42-14.82,2.59-3.43,6.15-6.3,8-10,6.68-13.25,12.92-26.7,20-39.76,4.42-8.09,1.46-18.27-4.86-23.46-9.43-7.73-9.44-7.73-9.7-14.2-.08-1.77.11-3.57-.07-5.33a4.87,4.87,0,0,0-1.24-2.13c-1.22-1.55-2.48-1.18-3.77,1-6.94,11.65-18.47,8.48-28.56,7.86-3.42-.2-6.5-5.39-9.78-8.25-3-2.63-6.47-2.72-9.1-.2s-5.09,5-7.55,7.55c-5,5.23-9.92,11.1-16.67,2-8.74-1.32-17.41-2.65-23.62,6.11a40.26,40.26,0,0,1-5.62,5.69c-5.53,5.18-17.34,4.89-23.56-.52-3-2.59-3-2.44-13.72-1.37a71.52,71.52,0,0,1-13.33-.08c-1.29-.12-3.39-2-3.46-3.15-.34-6.21,0-12.46-.21-18.68-.1-3.34,1.32-7.15-2.7-10-8.62,8.63-17.28,17.36-26,26-7.77,7.73-13,8.39-25.4,2.4-5.09-2.45-9.81-3.13-14.46.18-6.39,4.55-12.36,5.54-18.28-.71-3.67-3.87-7.48-7.63-11.44-11.19-.26-.24-2.33,1.69-3.65,2.45-5.38,3.06-6.35,3.17-9.09.51-4.47-4.33-8.58-9.08-13.37-13-1.51-1.25-4.78-1-7-.47-1.47.33-2.64,2.28-3.8,3.62-3.57,4.11-7.27,7.37-13.48,6.28-5.34-.93-10.3-.17-14,4.95-2.57,3.55-6.13,6.42-9.34,9.49-2.51,2.4-6.05,2-9.09-.84C216.78,243,215,241,213,239.17c-6.31-6.19-6.32-6.18-13.2,2.46-5.87,7.37-10.58,7.31-16.63-.33-1-1.27-2.14-2.93-2.12-4.4.07-4.77-2.55-5.9-6.58-5.79-2.66.07-5.35-.18-8,0-6.19.55-7.52-2.81-7-8.07,0-.56-1.38-1.89-1.76-1.76a9.18,9.18,0,0,0-3.77,2.15c-4.26,4.51-8.16,8.11-15.55,8.05-7.23-.06-11.48-3-15.64-7.8a24,24,0,0,0-3.69-2.83,106.45,106.45,0,0,0-7.54,7.65c-2.4,2.94-3.66,1-5.79-.38-5.3-3.57-4.94-8.7-5-14,0-3.24-5.73-6.41-7.63-4.22-7.92,9.12-18,4.14-27.22,4.77-.71.05-2.46-2.79-2.29-4.11,1-7.57-3.19-15.94,3.1-22.68,4.84-5.19-1.61-14.88,7.44-18.29-1.32-7.24,8.6-11.36,5.34-19.14,4-5.33,4.39-12.74,9.81-17.32a3.59,3.59,0,0,0,.84-2.28c.41-5.19-.94-11.49,1.55-15.27s2.29-8.83,5.37-11.07c4.8-3.49,2.16-10.39,7.35-13.17.72-.39,1.81-1.42,1.69-1.88-2.52-9.49,4.05-14.54,9.65-20.09s11.55-11.12,16.91-17.05c3.66-4,8.08-2.55,12.25-2.6,1.32,0,3.78,1.74,3.82,2.76.36,8.86.25,17.74.42,26.62,0,.64,1.09,1.45,1.84,1.81a2.11,2.11,0,0,0,1.82-.6c2.32-2.57,6.24-5.12,6.41-7.88.34-5.34,4-7.56,6.88-10.6,3.31-3.51,7.47-2,9.51,3.14,2.42,6.16,2.6,6.32,5.18,3.37,4.43-5.08,11.36-8.32,11.55-16.63,0-2.37,2.22-2.44,3.62-.53,2,2.75,5.32,5.1,6.08,8.12,1.06,4.18.06,8.85.41,13.27.09,1.17,1.89,2.21,2.91,3.31.63-.63,1.84-1.3,1.81-1.88-.55-8.58,7.33-11.31,11.38-16.69,2.58-3.43,4.11-.8,5.66.86,6.24,6.67,6.83,9.24,1.83,18.1-1.88,3.31-2.85,5.58-1.25,9.26,6.17,14.17,5.62,16.26-.81,30.88-1.3,3-1.32,6.3-3.89,9.13-2.08,2.3-2.55,6-4,8.94-.74,1.5-3.2,3-2.94,4,4.15,15.79-12.06,26.1-10.91,41a2.76,2.76,0,0,1-1.22,2.1c-10.59,5.78-10.22,15.76-9.23,25.49.55,5.39-3.5,7.55-5.26,11.27-.78,1.65.55,5.59,2.15,6.68s5.36.5,6.9-.83c5.38-4.63,10.27-9.85,15.18-15,1.08-1.13,2.38-3.13,2.08-4.35-2.31-9.18,9.44-15.11,5.48-24.52-3-7,8.3-9.17,5.45-16.52-2.52-6.49,7.58-9.13,5.5-16.5-1.34-4.74-.55-9.73,3.86-14.4,3.66-3.87,3.73-10.9,6.76-15.66,2.83-4.45,5.42-8.19,5.45-13.94,0-3.72,4.13-7.27,4.79-11.17.88-5.17,5.26-6.82,8-10.07,1.72-2.08,6.91.1,8.26,3.24,1,2.26,1.76,4.6,2.63,6.91,1.89-1.84,4.15-3.45,5.56-5.61,1.31-2,1.16-5.07,2.64-6.83,2.52-3,5.82-5.33,8.79-8,1.26,3,1.88,6.62,3.92,9,3.28,3.81,5.17,7.26.79,11.05a8.91,8.91,0,0,0-2.84,9.48c3,11.83-6.85,20.89-6.53,32.07-8,4.45-.49,16.1-9.39,20.2-.38.17-.2,1.64-.2,2.51,0,4.45,1.15,9.35-.34,13.22s-6.28,6-5,11.27c.92,3.88-1.23,6.4-3.78,9.15-2.76,3-1.89,7.81-5.52,11.17-2.71,2.5-1.6,8.31-5.92,10.72a17.17,17.17,0,0,0,2.45,3.36,3,3,0,0,0,2.58,0c8.28-3.75,13.17-11.38,19.41-17.41,2.87-2.78,1.19-8.56,5.76-10.93a2.88,2.88,0,0,0,1-2.18c.07-7.12-.13-14.24.09-21.35.21-6.76,7.26-11.06,5.75-19.23-1.15-6.25-3-14,2.58-20,4.9-5.34-.63-13.42,2.72-17.36,5.34-6.29,4.89-12.68,4.87-19.5,0-5.43,7.5-7.63,5.62-13.71,6.43-9.68,12.08-19.75,15.85-30.81,1-3,11.11-5.17,13.69-3.25.7.53,1.78,1.22,1.82,1.88.27,5.28.33,10.57.45,15.85-8.48,6.7-4.52,16.14-5.27,24.49C330,88.3,332.17,95.4,325.42,101c-1.68,1.39-.19,6.74.08,10.25.05.67,1.08,1.48,1.84,1.81a2,2,0,0,0,1.8-.79c2.06-3.57,2.22-7.7,5.43-11.22,3.76-4.13-1.26-12.38,5.92-16.13,5.06-2.65,5.17-8.49,7.76-12.73,1.47-2.43,5.55-5.67,7.2-5.07a12.55,12.55,0,0,1,6.79,7.46c1.15,4.13.19,8.82.32,13.26.11,3.62,1.42,3.78,6.26.85,5.22-3.17,9.69-2,9.7,2.73.07,20.47-.43,40.95.27,61.39.26,7.42-6.81,11.38-6.11,19.2.44,5-4.19,10.46-6.76,15.61-.75,1.5-3.35,2.76-3.22,3.92,1.35,11.95-8.62,19.76-10.74,30.32-.65,3.24-1.17,7.74,2.9,9.06,3.18,1,8.19,1.53,10.3-.23,6.77-5.63,12.56-12.42,18.73-18.76-.75-8.79,7.55-11.28,11.9-16.33,3.21-3.72,3.65-7.31,4.35-11.7,1-6.48,8-11.5,5.11-19.18,6.06-4.1,6.56-10.42,5.15-16.43-1.82-7.77,3.63-12.84,5.38-19.22,1.54-5.6-2.07-12.12,4.09-17.2,1.9-1.56,1-6.51,1.39-9.91.28-2.57-.42-6.69.88-7.45,7-4.1,1.89-12.29,5.78-16.34,3.34-3.49,2.93-8,5.5-11.17a21.24,21.24,0,0,1,7.94-6.45c1.58-.65,6.24,1.49,6.31,2.58.57,8.85.34,17.74.5,26.62,0,.64,1.08,1.45,1.84,1.82.43.21,1.28-.2,1.84-.5,5.87-3.17,6-10,9.38-14.81,3.54-5.09,8.35-6.09,13.85-5.27,4.16.62,10.2,6.82,10.23,10.41.1,9.78,0,19.57.11,29.36,0,.66,1.25,1.94,1.62,1.84,1.28-.35,3.47-1.15,3.49-1.83.21-7.73,8.48-13.21,6-21.61,3.4-5.71,7.74-11.1,9.85-17.25a20.54,20.54,0,0,1,5.28-8.49,23.66,23.66,0,0,1,3.74-2.5c4.12,6.34,13.74,8.73,12.81,18.78-.48,5.21.17,10.53.48,15.79,0,.66,1.09,1.54,1.84,1.78.45.14,1.55-.66,1.81-1.27,2.59-6,4.57-12.41,7.75-18.12,2.82-5.08,9.74-7.2,9.7-14.83,0-2.79,12.38-4.18,14-1.73a9.21,9.21,0,0,1,1.63,4.62c.13,14.23-.26,28.48.24,42.7.2,5.79-2.74,9.43-5.14,14-1.83,3.49.44,8.9-.58,13.1a36.55,36.55,0,0,1-6.15,13.38c-4.69,6.12-6,14-10.11,19.75-4,5.56-4,13.29-10.22,17.26a8,8,0,0,1-4.08,8.94c-8.74,5.19-6.56,13.64-6.48,21.33,0,2.73,2.1,4.45,5.39,4.11,5.25-.55,8,9.26,13.4,4.6,5.8-5,16.64-4.76,18-13.17,1.09-6.87,8.84-10.61,6.19-19.17-2.85-9.19,2.23-18.12,4.43-27.18,1.27-5.24,4.62-8.91,5.83-13.69,1.44-5.69-2.67-12.25,3.16-17.43,4.68-4.15,2-10,2.07-15,.1-5.55,7.93-7.57,5.54-13.79,5.38-2.62,4.71-8.76,7.46-12.94a130.78,130.78,0,0,0,8.47-15.17c2.13-4.43,3.53-9.21,5.45-13.75C609.39,61,620,58.67,622,60.82a7.63,7.63,0,0,1,2.12,4.39c.19,8.89.62,17.84-.15,26.67-.33,3.84-3.71,7.32-5,11.2-.77,2.41-.37,5.32.07,7.91.12.69,3.06,1.78,3.49,1.38,2.52-2.36,6.64-5.1,6.65-7.72,0-13.58,10-22.7,14.14-34.3a40.49,40.49,0,0,1,11.33-16.72c2.71-2.45,5.67-5.82,8.88-3.82,4.14,2.58,9.29,5.49,8.67,11.93-.24,2.53.24,6.3-1.2,7.35-5.43,4-4.72,9.5-3.92,14.43,1.22,7.55-3.38,12.9-5.16,19.28-1.38,5-8.09,7.46-5.73,13.7s-5.46,8.18-5.55,13.8c-.08,4.91-6.75,7.62-6.1,13.51.06.46-2.83,1.24-4.36,1.87a66.27,66.27,0,0,0-.05-7.85c-.88-7.37.44-13.59,7.11-18.13,1.8-1.22,3.54-4.2,3.41-6.25-.35-5.62,3-9.21,5-13.75,2.29-5.07.52-12,2.07-20.55.53-1.61-.66-.89-1.48.13a2.26,2.26,0,0,0,0,2.24,2.29,2.29,0,0,0,2.24,0A10.69,10.69,0,0,0,661,78.39c.11-.2-1-1.07-3.2.76-7.28,3.48-11.37,7.43-11.9,12.51-.56,5.48-7.94,7.59-5.67,13.76-6.28,4-4.3,10.64-5.85,16.29-1.48,5.38-6,9.89-9,14.89s.74,11.62-5.33,16.73c-3.78,3.18.57,11.7-5.76,16.25-1.76,1.26-.64,6.64-.65,10.14,0,.69.92,2,1.33,2,1.28-.11,3.3-.41,3.62-1.2.62-1.53-.45-4.39.43-5.06,10-7.63,12.29-19.92,18.67-29.69.26-.41,1.69-.06,2.58-.06-.27,6.81,2,14.31-5.34,19.15-3.54,13.75-13.18,24.73-17.31,38.21-8.24,3.71-.08,14.2-7.53,18.27-.73.39-1.78,1.31-1.71,1.84.41,2.81,11,9.53,12.48,7.84,3.65-4.11,9.19-4.2,13.11-7.15,4.22-3.18,7.65-7.41,11.42-11.19-3.45-8.6,5.81-13.76,5.79-21.73,0-6.62-2.86-13.9,3.54-19.87,4.43-4.13-1.08-11.75,5.52-16.57,4.36-3.2-1.51-12.46,5.92-16,1-15.58,12-27.12,16.63-41.15,2.49-7.53,12.65-9.93,11.68-19.21,4.5-4.18,8.93-8.44,13.55-12.49,1.06-.93,13.7,4.84,17.86,8.22,2.74,2.23,4.73,5.6,7.73,7.25,1.65.91,5.05-.07,7-1.26,4.63-2.82,6-7.84,7.86-12.68,1.83-4.66,8.46-6.13,9.33-12.17,1.12-7.83,8.69-10.7,13.39-15.64,1.7-1.8,7-1.09,10.21-.17,1.49.42,2.48,4,2.92,6.34.5,2.58-.24,5.39.23,8,.41,2.29,1.75,4.42,2.68,6.62,1.89-1.89,3.92-3.66,5.64-5.69,3.25-3.84,2.19-10.26,7.58-12.86,1.23-.59,3.23-1.85,3.66-1.46a147.31,147.31,0,0,1,11.31,11.32c.34.38-1.25,2.36-1.77,3.66-.91,2.3-2.19,4.6-2.41,7-.56,5.94,1.54,12.59-5.16,16.59q-.15,7.95-.28,15.9c-8.15,5.22-2.54,17-10.68,22.27,3.25,8.65-5.07,14-6.22,21.5-.34,2.22-4.66,4.77-4.18,6,3.18,8.13-6.11,12.25-5.61,19.25.25,3.6-.74,6.37-3,9.5-3.33,4.59-6.59,10.07-7.28,15.5s-1.86,9.76-5.52,13.94c-1.32,1.51-.28,5.15-.19,7.82.1,3.21,5.25,6.59,7.41,4.67,3.74-3.32,9.06-5.64,8.63-12.11-.23-3.54.28-7.15-.12-10.66-.56-4.88,3.24-7.81,4.46-11.51,2.31-7,9-12.69,6.48-21.51-2.06-7.32,1.55-12.79,6.84-18.57s8.42-14.14,11.52-21.75c2.79-6.84,7.93-12.48,8.53-20.62.4-5.4,4.33-10.54,6.77-15.76.35-.76,1.29-1.22,1.84-1.91,4.19-5.38-1.52-14.2,7.4-18.55,5.14-2.51,8.72-8.24,13-12.52C855.71,60,855.4,60.76,850.21,72c-6.56,14.24-13.25,28.44-21.15,41.92-3.48,5.94,1.67,15-7.28,18.38.53,6.25.54,12.32-5.36,16.47,1.58,6.72-7.62,9.47-6,16.22-5.61,3.34-3.67,9.13-5,14-1.5,5.43-5.12,10.35-8.27,15.2-2.72,4.2-2.39,9.9-7.26,13.23-1.24.85,0,5.09-.23,7.73-.34,3.38,1.53,5.13,4.33,5.19,4.18.08,8.39,1,12.2-2.81,9.34-9.43,17.2-19.59,15.34-33.63-.92-6.95,3.54-11.12,5.64-16.48,2.45-6.23,7.45-11.61,5.31-19.19-1.07-3.8,2.23-6.16,3.52-9.19,4.53-10.66,9.49-21.2,15.76-30.75,3.6-5.49-1.44-12.79,5.28-16.6,5.73-3.24,7-9.45,9.42-14.78,3.26-7,6.77-14.07,13.33-18.41,6.3-4.17,5.05-12.61,11.12-17,5-3.58,8.93-8.64,13.45-13.16,1.85,1.75,3.65,3.54,5.56,5.23,3,2.67,3.59,5.7,1.44,9.12-3.12,4.95-6.68,9.67-9.21,14.89-.84,1.73.93,4.71,1.5,7.12a38.31,38.31,0,0,1,3.79-2c2.29-.91,5.54-3,6.83-2.2,4.2,2.68,9.26,5.36,8.91,11.68-.14,2.56-.1,5.28-1,7.59s-3.72,4-4.15,6.25c-1.24,6.57,2.62,14.41-5.15,19.26-.6,5.9,1.05,12.57-5.67,16.34,2.33,7.54-5,13.11-4.78,19.12.29,7.72-7.58,11.78-6,19.18.33,1.58.22,4.47-.63,4.9-8,4-2.65,12.88-7.18,18.62-5,6.36-7,15.09-11.84,21.61-5.27,7.06-12,13.2-18.77,18.91-5.14,4.34-1.86,6.13.57,9.78,1.65,2.48-.21,7.07.84,10.28.5,1.56,5.36,3.53,6.06,2.9,7-6.36,13.63-13.23,20.35-19.95-3.81-7.94,6.57-12.24,5.14-19.1-1.31-6.34,5.31-8.69,5.5-13.85.16-4.45-1.7-10.19.43-13.05,3.37-4.53,5.45-8.47,5-14.11-.37-5.3,7.44-7.39,5.9-13.67-.22-.89,2.64-2.27,3.51-3.76,3.89-6.66-2.93-16.18,5.72-21.65-.58-7.13,7.27-10.93,6.65-18.85-.4-5,3-11.7,6.83-15.45,7-6.84,10-15.44,14.16-23.65,1.92-3.74,5.74-6.45,8.14-10,2.3-3.39,3.55-7.49,5.83-10.89,3.32-5,5.4-4.8,9.36.09,2.72,3.34,4.8,12.29,2.58,14.36-15.22,14.25-18.44,35.4-30,51.71-1.86,2.62-1.76,7.1-4,8.86-7.08,5.53-8,12.52-8.41,20.82-.27,5.38-3.76,10.84-6.65,15.78-4.18,7.15-7.28,14.81-11.24,22-.81,1.47-3.14,2.94-2.91,4,1.88,9.09-3.7,16.42-5.17,24.58-1.54,8.63-.47,17.74-.21,26.64,0,1.34,1.85,3.74,2.81,3.73,2.39,0,5.25-.57,7.05-2,3.33-2.63,7.27-5.38,6-10.76,5.88-3.23,3.9-11.46,9.23-14.81,5.63-3.54,6.2-10,9.31-14.91,7-11.2,10.5-24.37,18.84-34.89-3.33-8.62,4.15-14.36,6.14-21.54,1.71-6.18,6.56-11.46,9.82-17.25.78-1.39.26-3.7,1.24-4.77,4.78-5.24,9.86-10.2,14.84-15.26-1-8.9,7.7-11,11.69-16.45,1.15-1.54,4.85-2.3,7-1.79,8.41,2,7.81,1.16,11.48-.66,7.35-3.64,5.79-12.36,11.15-17s10.12-9.86,15.45-14.49c.91-.8,3.37,0,5,.36.74.16,1.81,1.16,1.83,1.81.24,8.84.33,17.69.45,26.54-8.9,3.59-2.45,13.33-7.28,18.28-2.76,2.82-4,5.63-3.38,9.33.67,4-1.23,6.57-4,9-3.93,3.47-8.15,6.87-6.76,13.25a6.52,6.52,0,0,1-.92,4.86c-4.34,5.21-11,8.59-9.88,17.42.75,5.79-7.3,9.3-5.34,16.5,1.41,5.19-7.76,7.32-5.46,13.62-7.85,10.79-12.49,23.31-18.82,34.93-4.1,7.52-2.89,12.47,3.14,18.24,2.9,2.78,6.2,4,9.07,1.31,9.06-8.55,19.94-16.25,25.89-26.69s15.81-20.9,12.8-34.46c-1.82-8.18,5.28-12.43,5.63-19.21.3-6-1.15-11.81,4.57-17,3.29-3-1.18-9.94,3.9-14.33,3.66-3.16,2.47-9.94,7.55-12.77-.9-6.36.07-12.12,5.34-16.48-1.14-6.65,5.07-8.64,8-12.7,1-1.35,2.79-3.08,2.5-4.19-2.27-8.66,3.85-13,8.89-17.75,3.29-3.1.88-8.45,5.5-11.24,3.7-2.24,6.41-6.11,9.51-9.22,9.93,6.15,9.75,15.19,7.12,24.93-8.35,3.66-1.07,13.2-7.27,18.56-4,3.44-5.24,10.08-7.55,15.35-4.3,9.8-11.95,18.3-11.61,29.9-6.7,8.59-9.82,19.1-15.07,28.47-2,3.58-4.6,7.25-5.17,11.14-1.11,7.55-12.18,8.26-10.87,16.9,1.1,7.23-2.29,12.91-5,19.31-3.58,8.5,4.18,16.68,14.15,16.7,3.68,0,6.09-.43,7.15-5.33,1.18-5.47,4.72-10.44,7.32-15.59.38-.75,1.74-1.24,1.78-1.91.77-12.81,5.07-24.21,11.52-35.37,2.25-3.87.11-10.39,5.54-13.65-.84-5,4.59-7.68,5.16-11.11,1.8-10.92,13-18.16,11.23-30.24-.18-1.26,1.32-3.18,2.54-4.17,8.92-7.27,11.13-18.6,16.84-27.79,1.25-2,1.36-4.78,1.82-7.23,1.85-9.8,6.07-13.38,15.6-13.13,4.47.11,6,1.89,5.79,6.46-.17,3.41-.26,6.39-2.47,9.72-4.54,6.83-7,15-11.79,21.69-3.75,5.23,1,12-5.17,16.84-3.45,2.69-4.54,8.63-6.87,13-2.17,4.07,1.13,10.6-4.71,14,0,5.47-5.42,8.74-6.1,13.42-.86,6-7.94,9.32-5.78,16.48,1.62,5.37-7.53,7.56-5.18,13.76-6.19,3-5,10.43-9,15.12-2.92,3.41-5.91,8.7-6.55,13-1.11,7.43-7.46,9.46-11.27,15l14.21,12.26c3.51-3.51,7.35-8.29,12.1-11.87,7.21-5.43,11.55-13,14.67-20.71,2.73-6.79,8.19-12.56,7.58-21.07-.32-4.45,5.88-7.67,5.35-13.81-.31-3.54,4.23-7.26,4.72-11.14.78-6.21,6.43-8,9-12.37a11.72,11.72,0,0,0,1.76-7.18c-1.29-7.9,2.61-12.76,7.45-18.5,4.57-5.45,6.51-13.31,10.11-19.65,4.11-7.25,7.12-15.55,14.63-20.82,3.09-2.17,4.11-1,5.8.81,6.1,6.49,6.47,9.63,2.2,18.22-8.81,17.71-17,35.8-26.82,52.9-3,5.18.08,11.25-3.61,14.42-4.4,3.76-3.24,9.61-7.23,13.26-3.7,3.38-2.25,10.17-7.65,12.79,1.57,6.69-4,9.44-7.66,12.76-4.26,3.84-1.06,5.49,1.26,7.67,4.9,4.59,6.44,5.52,10.77,1.43,4-3.77,10-2.25,13.29-7.19,2.94-4.35,7.22-7.85,11.21-11.38,2.5-2.22,3.85-6.22,8.21-5.9.89.07,2.17-.36,2.59.09.91,1,2.2,3.12,1.91,3.42-7.4,7.7-15,15.23-22.54,22.77-12.18,12.14-13,12.65-30.08,10.9-3-.3-5.48-4-8.56-4.88-2-.53-6.4,1.06-6.61,2.24-.78,4.49-1.44,6.77-6.92,8.76-6.08,2.21-10.59,8.78-15.72,13.53-2.82,2.62-5,3.18-9-.1-2.93-2.43-6.57-2.28-9.05-3.91-3.7-2.43-5.14-5-10-.73-3.45,3.07-9.93,3-14.11-1.51-4.58-5-10.85-8.65-11.57-16.62-.24-2.65-6-1.94-9-.14-6.47,4-5.29,12.37-11.08,17-5.56,4.45-9.82,8.59-18.17,8.38-8.81-.22-15-2.86-20.43-9.24-2.47-2.88-6.35-2.57-9,.05-4.46,4.36-8.42,9.37-13.41,13-2.41,1.72-7.76,2.35-10,.83-7.7-5.31-16.39-10.55-14.91-22.35.15-1.2-1.71-2.64-2.63-4-.63.63-1.72,1.19-1.82,1.89-1.71,11.71-12.79,16-18.95,24.21-4.19-.3-9,.55-12.39-1.24a13.11,13.11,0,0,1-7.13-10.23c-.63-4.71-6.18-5.42-9.7-2-4.46,4.34-8.4,9.38-13.41,12.95-2.41,1.72-6.78,1.23-10.16.86-2.74-.3-2.92-3.26-4-5.55-3.24-6.71-4.26-16.12-11.57-18.93-9.55-3.68-15.24-11.05-22.92-18.06-6,6-12,12.12-18.15,18.13-4.89,4.8-6.31,4.63-12.88-1.16-9-7.93-10.77-8.67-20-3-4.89,3-7.44,1.87-11.24-1.3s-6.46-2.86-8.95-.1c-2.27,2.5-5,5.12-5.91,8.17-.78,2.63-1.39,6-3.82,5.69-6.64-.83-9.4,8.74-16.51,5.58-2.25-1-5.1-1.35-6.72-3-4.78-4.78-10-8.88-11.93-16.43-1-4-6-7.43-12.53-7.7-9-.36-16.77,1.93-24.5,5.72-2.5,1.23-6.57.9-14.27.13-4.16-.42-8.54-1.13-12.1,3-4.63,5.39-9.91,10.22-15,15.17-4.19,4.07-11.65,4.29-16.28.37-2.72-2.28-4.88-5.24-7.68-7.38-1.16-.89-3.51-1-5-.47s-3.24,2.18-3.28,3.39c-.27,8.89-.15,17.79-.15,26.69,0,5.34.07,10.68,0,16-.08,5.13.17,9.74-3.91,14.58-2.7,3.21-.17,10.32-1.67,15.16-1.44,4.64-6.15,7.91-5.25,13.92.64,4.25-.09,4.26,7.13,2.08,1-.31,3.59,1,3.55,1.46-.37,5,2.26,10.69-3.57,14.53-4.89,3.22-7.15,10.49-14.77,9.5-2.54,4.25-6.94,8.42-7.15,12.79-.29,6-6,8.38-6.33,13.54-.35,6.25-6.28,8.06-9.25,12.2-2.41,3.36-2.39,6.56.85,9.08,4.33,3.37,2.92,7.94,2.88,12.13,0,1.43-1.36,3.78-2.51,4.07a20,20,0,0,1-7.93.2c-13.32-2.06-21,5.11-26.85,15.77-3.84,7-4,6.78-10.77,2.9a21.27,21.27,0,0,0-3.76-1.36c-.48,1.58-1.73,3.43-1.28,4.68.83,2.3,2.93,4.11,3.91,6.38.38.88-.55,3.15-1.45,3.58-2.21,1.05-6.73,1.15-6.84,2.06a16.89,16.89,0,0,1-8,12.71c-5.1,3.18-2.55,9.84-7.35,13.2-4.14,2.89-7.52,6.62-8,12.69-.24,2.71-4.62,5.09-7.2,7.53-1,1-7.12-.72-7.17-1.9-.3-7-1.06-14.06-.65-21,.68-11.58,1.26-13-4.28-14-6.14-1.11-6.06-4-6.73-8.68-1.15-8.08,1.94-13.56,7.93-18.23,1-.81,1.41-2.46,2.09-3.72-1.53-.6-3-1.65-4.6-1.71-5.33-.22-10.75.47-16-.2-11.76-1.5-24.68,4.61-35.18-5.23l-37.21.41c-7.76,9.07-18.21,3.32-27.33,4.89-6.59,1.13-14.37-2.94-19.48,4.55-7,.28-14.08,1.22-21,.51-2.84-.29-5.76-3.8-7.81-6.49-2.28-3,2.22-3.55,2.91-5.58.8-2.35.52-5.87,2.08-7,4-2.94,2.8-8.85,5.76-10.84,3.15-2.11,8.28-1.8,12.51-1.66,4,.14,6.26-2,9-4.25,3-2.45,5.11,7.22,9.4,1.17,3.14-4.43,8.22-1.5,12.28-2.52,1.1-.28,1.93-2,2.6-3.25.12-.22-1.15-1.74-1.78-1.75-20.45-.14-40.9-.15-61.35-.23-4.34,0-5.56-1.56-5.54-6.69.05-9.11,4.93-15.46,14-14.21,8.07,1.11,12.59-5,19.22-5.71,6.07-.64,12.22-.63,18.33-.9,5.11-7.5,12.89-4.5,19.49-4.28,7.51.26,11.72-6.51,18.53-7.13a2.22,2.22,0,0,0,.44-1.77c-.38-.76-1.19-1.84-1.82-1.85-13.34-.13-26.69-.52-40,.08-3.79.17-7.28,3.9-11.19,4.92-3.34.86-7.08.18-10.64.18-9.35,0-9.35,0-18.91-11.24-4.4-5.17-5.72-6.23-12.71-1.73-6.11,3.94-11.93,1.67-17.82,2.17-8.86.76-14.24,5.77-14.29,14.52,0,5.17-.79,10.22,4.3,14.4,2.31,1.91-5.83,3.68-2.79,7.18,2.43,2.81,4.09,5.22,3.92,9.16-.34,8-.71,16.08.1,24,.57,5.45-4.56,13.3,3.87,16,6.05,1.95,8.57-5,12.31-8.33,1.85-1.65,2.82-2.5,3.81-.47.72,1.45,1.62,3.66,1,4.78-3.12,5.86-8.14,11.12-9.69,17.29s-3,9.35-9.81,8.42c-7.08-1-11.43-5.47-12.39-13.7-.2-1.74,0-3.54-.3-5.24a3.29,3.29,0,0,0-1.84-1.82c-.43-.2-1.76.37-1.77.64-.32,6.92-8.29,11-6.79,18.58.82,4.14-1.94,6.57-4.67,8.7-1.92,1.49-5.08,3.82-6.41,3.17a29.51,29.51,0,0,1-10-7.84c-1.31-1.63-.29-5.14-.29-7.8,0-16.9,0-33.81-.08-50.72,0-.64-1.35-1.92-1.7-1.8-1.27.43-3.47,1.45-3.4,2,.74,6.42-2.76,11.18-4.9,16.73-2.29,6-9.63,11-5.94,18.91-3.66,4.89-6.29,9.9-5.55,16.5.36,3.22-5.52,5.32-8.2,3.11-4.83-4-9.44-8.15-7.67-15.52.4-1.69.06-3.57,8.07-47.74,8-48.58,8.15-54.78,7.86-61,0-1-1.94-2-3.13-2.8-.15-.1-1.83,1.33-1.72,1.75,1.68,6.09-5.77,8.28-5.7,13.65.08,6.2,0,12.4,0,18.59,0,7.09-1.29,14.49.34,21.17,1.83,7.49-7.29,9.07-6.1,16.53,1.66,10.36.59,21.19.29,31.81-.07,2.67.16,3.62,2.76,2.6a3.29,3.29,0,0,0,1.85-1.83c2.64-9.65-2.45-20.92,6.2-29.31.71-10.95-2.83-22.6,5.34-32.32C181,358.1,181,351,173,386.31Zm5.79-197.45c-.58.28-1.58.45-1.69.86-.59,2.26-.85,4.61-1.47,6.87-.68,2.52.06,3.39,2.51,2.45a3.64,3.64,0,0,0,1.79-1.61c1.81-3.66,1.18-8-4.26,4v-2.38c-.8,0-1.81-.31-2.34.06-1.76,1.24-4,2.76-.74,4.64C173,204,174.58,202.29,178.76,188.86ZM693.6,108.3c-1.78,1.16-4.4,1.93-5.12,3.55-.9,2-.22,4.72-.22,7.13-1.78,1.15-4.4,1.93-5.12,3.55-.9,2-.22,4.72-.22,14.54v-7.41c-1.5.62-3.76.8-4.39,1.91-5.22,9.24-6.44,20-11.33,29.55-2.16,4.2.75,11.66-2,14.78-4.17,4.82-4.32,9.64-3.45,14.42,1.13,6.24-5.14,8.63-5.48,13.65a6.18,6.18,0,0,0,1.53,4.5,5.58,5.58,0,0,0,4.63,1.17c5.71-1.93,9.44-7.62,9.82-13.28.51-7.67-2.9-16.42,1.93-22.79,6.25-8.25,1.86-16.81,3.41-25a3.67,3.67,0,0,1,1.7-1.89c4.6-2.89,3.64-7.43,3.58-17,1.78-1.15,4.41-1.92,5.13-3.54.89-2,.21-4.73.21-7.14,1.78-1.15,4.41-1.92,5.13-3.54.89-2,.21-4.73,3.32-12a19.45,19.45,0,0,0-3,2.58,2.26,2.26,0,0,0,0,2.24,2.29,2.29,0,0,0,2.24,0,10.86,10.86,0,0,0,2.42-3.15C698.46,104.89,697.33,104,693.6,108.3Zm-541.54-4.88c-.58.28-1.58.46-1.69.86-.59,2.26-.85,4.61-1.46,6.87-.69,2.52.05,3.39,2.5,2.45a3.63,3.63,0,0,0,1.79-1.6c1.81-3.66,1.18-8-4.26,4,0-.8.31-1.9-.09-2.3a2.33,2.33,0,0,0-2.25,0c-1.76,1.24-3.95,2.76-.74,4.64C146.29,118.59,147.88,116.85,152.06,103.42ZM880.5,81.61c-.88,0-2.08-.37-2.59.06-2,1.7-4.24,3.37-5.58,5.56-6.85,11.13-10.29,24.1-18.42,34.61-.85,1.1-.11,3.43-.11,5.19v5c0-.79.31-1.89-.09-2.29a2.33,2.33,0,0,0-2.25,0c-1.76,1.24-4,2.76-.74,4.64.43.25,2-1.49,3.08-4.7.88,0,2.07.37,2.58-.06,2-1.7,4.24-3.38,5.59-5.56,6.84-11.13,10.28-24.1,18.41-34.61.85-1.1.12-3.43.12-5.19,0-.88,0-1.76,3.1-7.54a19.45,19.45,0,0,0-3,2.58,2.29,2.29,0,0,0,0,2.24,2.26,2.26,0,0,0,2.24,0,10.89,10.89,0,0,0,2.43-3.15C885.35,78.19,884.22,77.32,880.5,81.61Zm-32,101.48c0-2.78-.35-5.48.09-8.05s-.12-3.62-2.72-2.61c-.75.3-1.84,1.23-1.8,1.79.39,5.65-6.24,8.81-5.88,13.28.56,6.78-4,10.87-5.59,16.34-1.95,6.74,1.75,11.62,6.88,15.54a2,2,0,0,0,1.81.17c.73-.42,1.78-1.19,1.79-1.83.12-7-1.66-14.74.66-20.91,1.7-4.53,5.56-8.3,7.88-34.65-.58.28-1.58.45-1.69.86-.6,2.26-.85,4.61-1.47,6.87-.68,2.52.06,3.39,2.51,2.45a3.67,3.67,0,0,0,1.79-1.6C854.53,167.07,853.9,162.75,848.46,183.09ZM341.17,126.87a24.09,24.09,0,0,1,.07-5.24c.62-2.69-.1-3.6-2.68-2.6a4.3,4.3,0,0,0-1.86,1.8c-2.64,4.38,1.54,10.34-3.58,14.34-4,3.14-4.44,8.7-6.94,12.94-4.48,7.63-9.08,16.37-6.27,26.17.34,1.17,2,2,3.16,2.82.14.1,1.83-1.36,1.7-1.73-2.14-6.26,6.73-8.38,5.51-13.43-1.71-7,3.86-10.84,5.76-16.17,2.23-6.21,7.25-11.52,8.26-37-.59.28-1.58.46-1.69.86-.6,2.26-.86,4.61-1.47,6.87-.69,2.52.06,3.39,2.5,2.45a3.59,3.59,0,0,0,1.79-1.6C347.25,113.68,346.62,109.35,341.17,126.87Zm-32,48c0-3.52-.33-7.08.11-10.54.35-2.71-.14-3.62-2.73-2.61a3.4,3.4,0,0,0-1.84,1.81c-3.6,11.68-12.42,21.4-12.94,34.23-6.87,5.36-3.3,12.89-3.66,19.49-.05.94,4.69,3.54,5.86,2.89,3.64-2,8.54-4.66,9.44-8,1.54-5.75-.82-12.55.76-18.27,1.73-6.3,7.09-11.6,8.13-42.41-.59.28-1.58.45-1.69.86-.6,2.26-.86,4.61-1.47,6.87-.69,2.52.06,3.39,2.5,2.45a3.59,3.59,0,0,0,1.79-1.6C315.21,156.4,314.58,152.07,309.13,174.9ZM1030,97.64c-1.46.59-3.36.83-4.4,1.9-5.89,6.06-14.43,10.79-11.65,21.61.13.51-.79,1.5-1.43,2-5.06,3.68-3.17,11.65-9.17,14.71.61,6.21.47,12.18-5.34,16.28.92,6.32-.77,11.47-5.05,16.53-1.65,2-.11,6.69.19,10.15.06.67,1.08,1.49,1.83,1.78.42.16,1.75-.63,1.75-1-.09-7,8.12-10.83,6.81-18.46-.35-2.06,1.25-4.74,2.56-6.74,2.71-4.15,9.72-6.25,7.74-12.52-2.29-7.28,7.37-9.6,5.62-16.36-.9-3.47-.24-7.1,3.24-9.14,8.37-4.89,7.46-12.94,10.46-25.66a19.45,19.45,0,0,0-3,2.58,2.26,2.26,0,0,0,0,2.24,2.29,2.29,0,0,0,2.24,0,10.86,10.86,0,0,0,2.42-3.15C1034.87,94.21,1033.73,93.34,1030,97.64ZM183.05,87.3c-2.1,3.85-7.65,5-7.43,10.43s-6,7.49-6.28,13.59c-.28,5.07-7,9.51-8.45,14.88-1.36,5.16-6.65,8.8-6.22,13.27.65,6.9-4.68,10.91-5.47,16.52-.6,4.2-4.67,5.47-5.36,8.47-1,4.21-.44,8.84-.12,13.25.09,1.31,9.36-3.79,9.73-7.56.59-6.05,4-9.49,8-12.75,4.85-4,3.23-11.65,8.9-15-3.25-8.65,5.52-13.89,6.08-21.46,8.69-4.09.61-16,9.37-20.17.46-.22.52-1.55.54-2.36a40,40,0,0,0-.12-8c-.2-1.14-1.95-2-42.57,89.79.83-2.49,0-3.38-2.47-2.45a3.26,3.26,0,0,0-1.77,1.61,9.91,9.91,0,0,0-1,4.5c.19,1.43,1.35,2.72,2.09,4.08,1-.93,2.59-1.67,3-2.81C144,183.66,143.6,181.87,183.05,87.3ZM723,236.46c7.15-7.15,13.27-13.6,19.75-19.66,6.32-5.9,5.67-11.9,1.08-18.23-3.44-4.73-4-10.44-.33-14.24,6.78-7.12,1.88-15.22,3.53-22.63a7.47,7.47,0,0,0-2.64.07,3.24,3.24,0,0,0-1.84,1.83c-.8,4.26-2,8-5.63,11.06-4.06,3.38-7.53,7.48-11.25,11.26,2.29,6.17-5.76,8.14-5.57,13.78.06,2-2.43,4.27-4,6.23-8.93,11.27-8.94,14.26.23,23.86,1.84,1.93,3.76,3.77,33.79-73a19.37,19.37,0,0,0-3,2.58,2.26,2.26,0,0,0,0,2.24,2.29,2.29,0,0,0,2.24,0,10.86,10.86,0,0,0,2.42-3.15C751.86,158.29,750.72,157.42,723,236.46Zm136.17-44.13c0,3.31-.32,6,.14,8.62.2,1.12,2,2,3.14,2.82.15.1,1.19-1.15,1.82-1.78a23.92,23.92,0,0,0,1.87-1.9c3.28-4.1,17.67-36.13,19.83-42.43,2.41-7,6.11-13.64,6.53-21.28,7.5-3.49,1.14-12,5.72-16.22,6.5-5.91,2.22-13.32,3.71-19.86.62-2.73-.08-3.64-2.69-2.62a3.7,3.7,0,0,0-1.86,1.84c-2.59,6-4.27,12.64-7.8,18-3.33,5.1-10,8.26-12.56,13.54-2.49,5.05-.42,12.26-2.69,17.51-1.62,3.77-5.57,6.64-4.44,11.47,1.25,5.3-4.15,7.1-5.47,11.09-2.35,7.15-7.3,13.61,40.57-78.45a19.45,19.45,0,0,0-3,2.58,1.6,1.6,0,0,0,2.26,2.26,10.89,10.89,0,0,0,2.43-3.15C906.71,94.21,905.58,93.34,859.14,192.33Zm85.62,33.16h-.19c0,4.44-.52,9,.31,13.27.26,1.36,4.39,3.25,6.2,2.77,3.07-.8,5.49-4.15,8.56-4.92,12.16-3,13.23-14.1,16.72-23,1.51-3.85-.44-8.93.46-13.18.82-3.91,4-7.3,5-11.2,1.15-5-.85-11.91,1.89-15,4.28-4.91,1.39-11.15,4-14.36,4.41-5.37,5.49-10.53,4.94-16.78-.07-.88,0-1.78,0-2.67-1.51.63-3.44.87-4.47,2a41.89,41.89,0,0,0-6.14,8.09c-4.44,8-6.57,17.5-14.66,23.23-1.28,8.39-8,12.94-13.14,18.57-1.69,1.83-4,4.07-4.09,6.2-.2,5.4-1,9.72-5,14.2-2.2,2.45-.4,8.48,50.58-77.15a19.45,19.45,0,0,0-3,2.58,2.26,2.26,0,0,0,0,2.24,2.29,2.29,0,0,0,2.24,0,10.69,10.69,0,0,0,2.42-3.15C997.49,136.93,996.35,136.06,944.76,225.49Zm-363.3-31.75a24.73,24.73,0,0,1-3.16,11.88c-3.58,7.07-10.3,13.8-7.52,23.14.7,2.35,1.06,4.84,2.12,7,.89,1.83,6.25.39,8.91-2.32,3.08-3.12,5.75-6.92,9.38-9.16,9.27-5.71,3.88-18.06,11.63-24.21-.28-10.4-.47-20.81-1-31.2,0-.68-2.81-1.23-4.31-1.84,0-4.35-1.36-9.41.42-12.84,1.51-2.9,6.73-3.79,10.17-5.8,5.18-3,6.18-7.89,8.54-18.3a19.45,19.45,0,0,0-3,2.58,2.26,2.26,0,0,0,0,2.24,2.29,2.29,0,0,0,2.24,0,10.69,10.69,0,0,0,2.42-3.15c.11-.2-1-1.07-4.75,3.21-.88,0-2.43.27-2.55,0-3.91-9.78-4.51-17.82.26-26.66,2.79-5.17,3-9.64,1-14.45-1.25-3.11-2.57-1.56-9.55,11.41-2,3.63-6.89,6-5.15,11.07,2.14,6.28-6.33,8.21-5.35,13.68,1.59,8.95-8.62,14.94-5.82,24.1-5.45,3.26-6.11,8.79-4.7,13.78,2,7.19-6.25,10.13-5.56,16.38.29,2.54.13,5.23,1,7.53C577.52,192.86,580,193.12,581.46,193.74ZM58.16,429.57c17.36-10.75,22.54-27.73,34.82-39,5.11-4.67,7.13-12.76,9.75-19.7.57-1.51,3.25-2.53,3.33-3.88.37-6.18-.36-12.45.31-18.58C107,342.75,113,339,111.82,332s-.84-14.19-.11-21.21c.84-8.11-4.29-14.71-4.89-21.78-.67-7.94-3.27-14.66-5.95-21.67C99,262.54,95,261.71,91,265.1c-2,1.71-3.79,3.73-5.9,5.84L95.4,282c-4.05,5.88-12.41-.95-16.32,5.59-3,5-7,9.53-9.11,14.84-1.55,3.8-.28,8.65-1.28,12.79-1.14,4.74-4.31,9.07-5,13.81-2,13.4,3.87,27.87-5.51,40.3Zm416-323.19h.47c0-3.54.3-7.12-.16-10.6-.16-1.29-1.93-2.89-3.3-3.35s-4.15-.46-4.91.47c-2.63,3.27-6.71,4.94-7.89,10-2.41,10.34-12.4,18-11,29.94-7.65,4.9-2.45,13.42-5.25,19C439,158.23,437,164,437.1,171.12c.09,6.61,3,14.3-4.5,19.3-.22,7-.57,14-.51,21,0,1.13,1.87,2.24,2.88,3.36.63-.63,1.28-1.23,1.88-1.88,9.15-9.92,11.36-24.22,21.54-33.74,2.38-2.23-1.53-8.66,2.81-11.92,3.38-2.53,2.1-6.24,3-9.44,1-3.89,4.14-7.26,5-11.16.89-4.23.55-8.84.1-13.22-.49-4.89,2.93-7.71,4.53-11.46C475.65,117.49,474.2,111.63,474.2,106.38ZM138.26,86.92a7.36,7.36,0,0,0-.07-2.62,4.19,4.19,0,0,0-1.84-1.84,2,2,0,0,0-1.8.25,31.13,31.13,0,0,0-8,12.57c-1.9,5.25-7.62,9.83-12.7,13.08C106.63,113,107,122.1,100.89,127c1.19,7.16-7.85,11.43-5.35,19-4.07,5.25-5.1,12-9.33,17.37-4.79,6.06,2.81,15.76-5.53,21.63-1.41,1-1.3,4.85-1,7.29s1.07,5.74,2.69,6.53,5-.38,7-1.61c7.63-4.69,6.78-15.75,14.93-20.31,1.13-.63,1.23-2.94,2-4.37,5.43-10.09,8.94-21.2,16-30.43V125.28c-.28-5.29-.68-10.76,4.91-13.81,6.68-3.64,4.68-12.74,10.93-16.87C139.3,93.79,138.26,89.57,138.26,86.92ZM769.07,74.06c-2.31-1.14-4.78-3.4-6.28-2.87-3,1.07-6.54,3.07-8.11,5.71-3.75,6.31-6.57,13.19-9.67,19.89-2.75,5.94-5.83,11.76-8.72,17.66-2.54,5.16-4.62,10.81-8.23,15.13-4.61,5.5.74,14.55-7.31,18.32,2.77,9.19-7.35,15.18-6,24.22.29,1.95-1.74,4.74-3.44,6.36-1.85,1.77-2.25,2.8.3,3.81,1.53.6,4,1.35,4.89.63,3.3-2.62,7.5-5.3,8.9-8.91,6-15.38,15.06-29.18,21.63-44.22,2.29-5.26,3.72-11.7,7.67-15.25,6-5.36-1.14-14.83,7.21-18.48C761.85,88.31,765.75,81.75,769.07,74.06Zm-283.57,108c0,5.62-.08,10,.08,14.47,0,.65,1.08,1.45,1.84,1.81a2,2,0,0,0,1.81-.57c2.63-3.26,7.54-5.09,6.79-10.51-.64-4.69.61-8.5,4.53-11.5,4.35-3.32,7.49-7.28,6.21-13.44-1.16-5.58,5.78-7.6,5.71-13.79-.1-9.07-4.7-19.63,4.92-27.13,0-8.88-.06-17.75-.23-26.62,0-.64-1.09-1.45-1.84-1.81-.44-.21-1.32.2-1.83.57-.72.5-1.24,1.27-1.92,1.85-7.35,6.33-6.74,17.24-13.32,23.75-4.89,4.84,1.18,12.6-5.46,16.58-1.16.7-1.94,2.86-2,4.39-.24,5.32-.08,10.67-.1,16,0,4.31.45,8.29-3.43,12C483.15,172.13,486,178.19,485.5,182.09Zm-10.83-3.63c0-2.63.31-5.32-.14-7.88-.21-1.16-1.91-2.11-3.06-3-.09-.07-1.82,1.36-1.7,1.74,2.26,6.92-8.15,9.25-5.78,16.12-6.29,3.81-4.41,12.85-10.68,16.66.93,7.53-6.94,9.46-9.26,14.62-2,4.5-4.25,8.79-6.5,13.13-.73,1.4,1.5,6.27,2.49,6.3,8.45.28,17.27,2.12,23.51-6.91,3-4.3,6.69-7.39,5.94-13.49s-.16-12.28-.16-18.43C476.08,192.45,474.49,185.21,474.67,178.46Zm320.39-92.7c0-1.77.34-3.63-.1-5.27s-1.68-2.83-2.57-4.22c-.63.62-1.58,1.14-1.83,1.89-3.63,11-9.37,20.93-15.17,30.77-2.12,3.62-.77,8.35-5.14,11.39-1.92,1.34-.92,6.43-2,9.55-1.33,3.83-4.09,7.23-5.08,11.11-1.43,5.59,1.83,11.82-4,17-4.3,3.8,1.38,12-5.55,16.37-1.77,1.1-1.19,6.45-1.09,9.82,0,1.43,1.64,2.8,2.53,4.2a22,22,0,0,0,1.86-1.88c2.08-2.66,6.41-6.29,5.76-7.89-3.37-8.35,6.17-11.92,6.16-19.14,0-3.31,6.62-5.86,4.85-11-2.15-6.28,6.7-8.45,5.21-13.65-2-7.15,6.34-10.61,5.28-16.35-1.44-7.82,6.56-11.79,6.19-18.78C796.14,96.49,795,90.91,795.06,85.76ZM555,103.7c-.27-2.65-.52-6.1-1-9.52-.11-.71-1.19-1.27-1.81-1.89-.63.62-1.23,1.29-1.9,1.88-8.54,7.45-9.6,19.34-16.46,28-2.16,2.73.36,8.77-.54,13-.82,3.91-4.93,7.51-4.83,11.16.27,9.65-1.25,18.59-5.54,27.2-.71,1.42-.45,3.6,0,5.25s1.68,2.85,2.57,4.26c.62-.63,1.89-1.39,1.79-1.86-1.43-6.78,7.57-9.49,6.22-16.16,5.63-3.41,4.13-10.92,8.87-15.06s-1.24-12.06,5.59-16.47c4.6-3-1.26-10.43,3.92-14.22C557.28,115.27,553.71,109.43,555,103.7ZM341.17,174.87a8.87,8.87,0,0,0,0-2.63c-.5-1.54-1.27-3-1.92-4.49a32.48,32.48,0,0,0-3.72,2.36c-1.35,1.12-3.45,2.35-3.62,3.72-1.75,14.44-9.82,26-16.72,38.1-3.1,5.47,0,13.66,6.27,17.88,1.73,1.15,5.67,1.55,6.89.44,3.64-3.33,9.15-6,7.58-12.64-.39-1.67-.06-3.52-.06-5.28,0-6.17,1-12.55-.24-18.46C334,186.11,342.7,182.12,341.17,174.87ZM36.8,396.11c0,8-.11,15.95.15,23.92,0,.93,2,1.91,3.21,2.59.21.12,1.81-1.25,1.72-1.76-.84-5.11,3.74-7.48,5.26-11.16s.34-8.72.34-13.15c0-12.41-.18-24.81.17-37.21.06-2.18,2-4.6,3.63-6.35s1.51-2.29-.54-3.91c-4-3.18-5.14-7.17-.79-10.83,4.17-3.51,2.72-8,2.73-12.15,0-1.4-1.64-2.8-2.53-4.2-.63.63-1.89,1.39-1.79,1.86,1.47,6.78-7.1,9.38-6.36,16.1.67,6.13-.68,12.53.36,18.56,1.18,6.89-4.57,10.88-5.33,16.46C36.08,381.84,36.8,389,36.8,396.11Zm373.79-186h0c0,6.13-.18,12.27.19,18.38.06,1,2.73,2.63,4,2.45,2.25-.33,6.17-1.73,6.21-2.82.45-11.38.44-22.79.21-34.19-.11-5.44,7.09-7.25,5.64-13.63-1.14-5-.09-10.48-.39-15.72,0-.71-2.18-1.49-3.46-1.83-.39-.11-1.76,1.34-1.63,1.76,2.27,7.5-2.7,12.86-5.44,18.86-5.26,11.5-5.29,11.49-5.33,18.84C410.58,204.83,410.59,207.46,410.59,210.1ZM349.7,198.78c2.09-3.77,7.19-4.95,7.59-10.21.39-5-2.71-11.36,1.72-14.95,6.8-5.49-.2-16.29,8.86-20.24,0-4.4-.69-8.95.21-13.16.82-3.86,3.61-7.27,5-11.09.38-1.07-1.26-2.87-2.09-4.27a10.15,10.15,0,0,0-1.78.85c-6.29,3.76-5.65,12.21-11.17,16.49,1.1,8-4.93,14-6,21.24-.65,4.3.57,8.93-.32,13.14-.82,3.87-3.75,7.25-5,11.08-.78,2.39-.46,5.29,0,7.85C346.86,196.7,348.57,197.63,349.7,198.78Zm365.14-82.3c-.55-.65-1-1.75-1.61-1.8-2.36-.23-6.52-.89-6.87-.06-3.77,9-8.86,17.37-12.76,26.31,2.71,7.55-7.56,11.7-5.22,18.81,2.58,7.83-4.11,12.49-5.41,18.9a4.07,4.07,0,0,0,.59,2.36c1.18,2.38,2.07,2.08,3.77.47a39,39,0,0,0,11.29-21.63,27.35,27.35,0,0,1,5-11.23c2.69-3.92-1.45-10.16,3.8-14.22C713.13,130,705.27,119.57,714.84,116.48Zm-203.46,72.3c-1-1.71,3.43-8.66-1.22-9.63-6.08-1.27-1.43,9.08-7.31,10.44-1.29,7.13-6.24,11.75-11.1,16.53-2.39,2.36-5.25,4.95-6.13,8s-.66,7.38,1,9.88c2.55,3.84,3.37-1.64,5.35-2.12,6.77-1.66,12.14-4.6,14.91-11.81C509.25,203.82,514.15,198.47,511.38,188.78ZM319.81,84.45a37.42,37.42,0,0,0-.08-5.3c-.1-.71-1.24-1.93-1.62-1.83a10.42,10.42,0,0,0-3.48,1.76c2.57,7-8.15,9.1-5.69,16.48,2,6.06-1.74,11-4.87,16.46-6.66,11.52-6.72,16.5-4.75,31.78.09.69,1.18,1.26,1.8,1.88.63-.62,1.77-1.22,1.8-1.88A35.24,35.24,0,0,1,309,125c4.25-6.29,6.88-13.51,5.62-21.57-.23-1.44.42-3.77,1.49-4.55C321.45,95,319.41,89.46,319.81,84.45ZM222.25,225.78c1.65-.27,4,0,4.81-.93,2.69-3.16,8.36-4.94,7.11-10.09-1.08-4.47,8.49-5.16,3.09-10-5.81-5.21,3.49-6.22,2.4-9.83-.69-2.26-1.47-5.57-3.07-6.2-1.81-.7-6.32.58-6.67,1.83-2,7.25-6,13.54-9.81,19.72-2.69,4.39-1.14,8.42-1.55,12.57C218.47,223.69,221,224.8,222.25,225.78Zm49.5-97.17c0-2.82.23-3.78,0-4.57a47,47,0,0,0-2-4.46c-1.09.92-2.93,1.69-3.15,2.78-2.43,12.14-14.36,21.33-10.95,35.35.26,1.09-1.45,3-2.67,4-4.15,3.49-2.16,8.12-2.36,12.26-.05,1.07,1.85,2.24,2.86,3.36.62-.62,1.81-1.28,1.78-1.87-.34-7,7.5-11.06,6.27-18.87-.52-3.31,3.93-7.14,4.75-11,.87-4.12-.53-8.52,3.78-11.85C271.59,132.53,271.57,129.21,271.75,128.61ZM170,169.4c-.62-.63-1.16-1.48-1.92-1.8-.42-.17-1.4.39-1.82.88a55,55,0,0,0-7.12,10.32c-4.13,8.1-7.3,17.37-15.47,23a17.85,17.85,0,0,0-5.24,5.8c-.72,1.28-.34,3.54.25,5.09.9,2.33,2.3,2.43,3.7,1,5-5.08,10.1-10,15-15.16,1.09-1.13,1.44-2.94,2.26-4.36,3.72-6.44,5.73-13.78,10.54-19.69C171,173.51,170.09,171.14,170,169.4Zm-42.4,17a13.11,13.11,0,0,0,0-2.66c-.36-1.61-.41-3.92-1.47-4.62-3.11-2-4.27,1.56-5.45,3.07-5.6,7.24-7.22,16.75-13.19,23.89-.4.48.6,3.1,1.51,3.54,2.57,1.23,12.27-.28,12.37-1.76C121.83,200.22,131.18,195.18,127.58,186.41ZM1064.41,140c.62-.42,1.51-.69,1.84-1.28,4.07-7.17,4.73-16,11.24-22.08.94-.87.58-3.32.51-5a3.6,3.6,0,0,0-1.38-2.05c-.45-.4-1.43-.83-1.82-.61-5.73,3.21-6,10.2-9.7,14.5-3.47,4-2.87,7.94-3,12.18a4.86,4.86,0,0,0,.49,2.45A10,10,0,0,0,1064.41,140ZM698.94,195.11c0-.94.28-1.93-.06-2.63a36.08,36.08,0,0,0-2.61-4.08c-.61.61-1.47,1.11-1.78,1.84-2.14,5.13-4.21,10.29-6.16,15.5-.21.55.44,1.48.79,2.19,1.19,2.45,2,2.07,3.72.09C696.16,204.2,700.66,201.15,698.94,195.11ZM429.28,111.27c-1.33,4.48-2.44,6.73-2.5,9,0,1.32,1.61,2.69,2.5,4,.89-1.35,2.54-2.72,2.5-4C431.72,118,430.6,115.73,429.28,111.27Zm-132.65,40.6c-.61,0-1.38-.14-1.8.17-2.67,2-2.59,7.29.13,8.78a2,2,0,0,0,1.77-.13C299.41,158.7,299.31,153.43,296.63,151.87ZM30.7,445.08c2.32-1,3.82-1.51,5.22-2.26.22-.11.17-1.31-.13-1.73-2-2.67-7.66-2.7-8.58.19C26.94,442.14,29.61,443.94,30.7,445.08ZM185.55,179.62l-1.9-1.9a16.4,16.4,0,0,0-1.67,3.59c-.1.44,1.07,1.16,1.67,1.75Zm418-21.36,1.9,3.44c.6-.59,1.77-1.31,1.67-1.75a16.4,16.4,0,0,0-1.67-3.59Zm-124.35-3.8-1.9-3.44c-.6.6-1.77,1.32-1.67,1.76a16.33,16.33,0,0,0,1.67,3.58Zm383.34-13.35-3.44,1.9c.59.6,1.31,1.77,1.75,1.67a16.4,16.4,0,0,0,3.59-1.67C863.88,142.42,863.29,141.83,862.58,141.11Zm-544.67,3.8c.72-.71,1.31-1.3,1.9-1.9a16.58,16.58,0,0,0-3.58-1.67c-.44-.09-1.16,1.08-1.76,1.67Zm-181.55-9.14-3.44,1.9c.59.6,1.32,1.77,1.75,1.67a16.4,16.4,0,0,0,3.59-1.67C137.66,137.08,137.07,136.49,136.36,135.77Zm348.22-4.21c-.72-.71-1.31-1.3-1.9-1.9a16.4,16.4,0,0,0-1.67,3.59c-.1.44,1.07,1.16,1.67,1.75Zm-341.75-5.34c-.72-.71-1.31-1.3-1.9-1.9a16.4,16.4,0,0,0-1.67,3.59c-.1.44,1.08,1.16,1.67,1.75Zm475.24-5.33-1.9-1.91a16.88,16.88,0,0,0-1.67,3.59c-.09.44,1.08,1.16,1.67,1.75Zm-134.62-1.14-3.44,1.9c.59.6,1.31,1.77,1.75,1.67a16.4,16.4,0,0,0,3.59-1.67C484.75,121.06,484.16,120.47,483.45,119.75Zm-281.88-2.67c-.62-1.11-1.26-2.28-1.9-3.44-.6.6-1.77,1.32-1.67,1.76a16.12,16.12,0,0,0,1.67,3.58Zm879.17-19.46c-.59.6-1.77,1.32-1.67,1.76a16.88,16.88,0,0,0,1.67,3.59c.59-.6,1.77-1.32,1.67-1.76A16.88,16.88,0,0,0,1080.74,97.62Z"/><path d="M351.85,663.65c.23,8,.71,15.85-7.44,21.06-1.76,1.12-3.06,4.29-3.1,6.55-.27,15.12-.08,30.25-.16,45.37,0,6.93,8,11,5.71,19.24-1.49,5.42-2.22,12.37,4.28,16.78.93.63.43,3.26.73,4.94,1.19,6.66-2.39,13.85,3.06,20.12,5.23,6,1.5,13.57,2.12,20.39.64,7.06.14,14.22.14,21.34v42.71c0,2.67,1.15,6.52-.18,7.82-10,9.76-3.55,21.83-5,32.7-.82,6.11.92,12.68-.42,18.6-1.65,7.23,5.39,10.58,5.57,16.54.19,6.22,0,12.45,0,18.68s-.76,12.58.22,18.65c.91,5.6,7.46,9.85,5,16.48-2.59,7.12,4.44,10.64,5.94,16.36,1.42,5.46,4.43,10.38,5.4,16.52.68,4.33,6,8.12,4.78,13.9a4,4,0,0,0,0,2.62c.95,1.44,2.86,2.46,3.32,4,1.94,6.34,5.34,12.21,8.18,17.93,3.25,6.52,9.61,11.42,13.05,18.64,2.53,5.3,8.26,9.19,12.94,13.28a12.55,12.55,0,0,0,6.86,2.57c3.49.29,7.21-.35,9.35,3.22,5,8.25,12.93,7.47,20.91,7.72,5.8.18,9.42,7.09,16.53,5.43,5.06-1.18,11.09-1.56,15.85.1,6.35,2.22,11.77,6.19,19.28,5.21,7-.92,14.21-.2,21.33-.2h21.35c2.67,0,5.51-.57,8,.15,2.88.85,5.35,3.72,8.16,4,1.91.17,3.9-3.26,6.19-4,2.45-.74,6.56-1.3,7.74,0,5.53,6.17,12.53,5.37,19.36,5,5.61-.27,7.59,7.84,13.81,5.44,14.18,7.24,13.79,6.13,25.58,1.57,11.15-4.31,19.87-12.5,30.34-17,7.2-3.1,9.64-13.36,19.21-11.59,4-6.08,12.5-5.14,16.79-11.23,4.5-6.36,13.82-6.16,18.72-13.09,2.62-3.71,9.92-2.49,12.59-7.76s8.69-4.92,13-7.33c11.83-6.6,24.52-11.61,33.36-22.75,2.47-3.12,8.08-1.46,11-5.65,2.34-3.32,5.07-7.51,10.49-6.6,7-6.65,14.38-13,21-20,4.54-4.84,9.2-7.23,16-6.86,4.92.27,2.9-5.46,4.55-7.55,2.33-2.94,7.26-3.67,10.6-6,4.23-3,11.51-2.18,11.52-10.91,0-3.58,8-.86,10.72-5.56,1.64-2.88,4.83-5,7.67-7,1.23-.86,3.85.17,5-.73,7.24-5.95,13.11-13,22.11-17.48,8.31-4.15,14.14-13.25,21.06-20.17s14-13.7,20.65-20.86c1.54-1.65,1.2-4.94,2.58-6.86,7.8-10.86,10.92-24.26,18.62-34.92,3.66-5.07.08-11.18,3.67-14.45,4.78-4.36,5-9.31,4.15-14.34-1.33-7.55,7.22-11.34,5.81-19.23s-.3-16-.3-24c0-7.12-.51-14.28.13-21.34.83-9.19-4.22-19.6,5.07-27.22q.07-13.32.14-26.64c-9-5.44-2.6-18.93-12.89-24.27-3-1.55-3.11-8.54-6.1-10.18-2.67-1.46-6.56-1.11-8.86-4.27-7.9-10.8-20.53-14.47-31.41-20.79-.75-.43-1.26-1.75-1.91-1.78-5.3-.23-11.67,1.55-15.64-.79-4.63-2.75-8.43-5.06-14.08-5-24.91.29-49.85.73-74.72-.26-7.08-.28-10.51,5.57-16.49,5.7-6.23.13-12.46,0-18.69,0s-12.48-.34-18.67.1c-5,.36-7.62,6.77-13.85,5.41-4.25-.92-8.88-.38-13.3-.05-1.48.11-2.77,1.84-4.29,2.42-6.94,2.66-12.72,7.79-20.1,9.48-2.1,4.94-7.91,2.72-11,5.68s-6.91,5.88-9.3,9.52c-3.14,4.78-6.24,10-7.44,15.51-1.11,5.09-7.79,7.45-5.73,13.76,1.25,3.8-3,6.28-3.58,9.06-1.6,7.39-9.64,12.6-7,21.19-5.68,5.29-5.73,12.13-5.37,19.15.32,6.11-7.56,9.34-5.49,16.52,1.52,5.26.16,10.52-5.16,13.75,0,8,1.09,16.22-.33,24-1.18,6.39-6.3,11.54-5.28,19.24,1.17,8.74-.38,17.82.46,26.63.8,8.37-3.41,17,3.55,25.31,5.15,6.19-1.84,17.5,6.94,23.68-1.09,6.68,1.58,11.5,6.48,16.09,4.22,4,9.12,7.2,10.08,14.56.69,5.26,7.87,7.94,10.65,14.11,5,11,14.67,18.76,26.27,23.38,2.29.91,4.58,2.31,6.94,2.48,5.31.37,11-1,15.93.38,7.36,2.08,9.94-7.69,16.53-5.54,6.28,2,8.52-5.38,13.82-5.42,7.82-.05,8.75-11.14,16.93-10.66,12.71-7.78,27-12.59,39.21-21.34,6.76,1.68,8.77-4.71,12.94-7.47a87,87,0,0,1,11-5.71c3-1.4,6.76-1.85,8.9-4s2.19-6.27,4.1-8.82c2.64-3.53,6.16-6.39,9.31-9.53s7.74-5.8,9-9.58c1.44-4.18,4.68-7.55,5.5-11a21.66,21.66,0,0,1,6.17-10.92c2.35-2.38,5.72-4.16,5.22-8.51-1-8.25,6.33-13.43,8-20.69,1.48-6.59,8.52-11,7.81-18-.76-7.42,7.2-11.37,5.87-19.22-.93-5.5,7.27-9.41,5.11-16.45-1.73-5.6,1.4-10,5.23-13.77,0-18.68.14-37.37-.19-56,0-2.1-2.44-4.39-4.18-6.17-8.08-8.28-16.32-16.4-24.5-24.58-11.49-.17-23-.85-34.48-.32-7.57.34-15.38-2.52-22.83,2.88-6.73,4.88-15.3,1.5-23,2.28-5.51,8.91-19.54,2.25-23.93,13-2.08,5.09-11.56,0-11,8.33-2.41,0-5.12-.69-7.13.21-1.63.72-2.4,3.34-3.55,5.12q-5.55-.19-5.34,5.34c-2.41,0-5.12-.68-7.13.22-1.63.72-2.4,3.34-3.55,6.32,0,.39.31-.71-.09-1.11a2.33,2.33,0,0,0-2.25,0c-1.76,1.24-3.95,2.76-.74,4.64.43.25,2-1.49,3.08-3.5,2.41-1.2,5.12-.51,7.13-1.41,1.62-.72,2.4-3.35,3.55-5.13q5.53.21,5.34-5.34c2.41,0,5.12.69,7.13-.21,1.62-.72,2.4-3.35,3.55-5.13,5.81-.79,12.39,2.33,17.22-3.69.86-1.08,3-1.54,4.59-1.57,7.11-.17,14.25-.42,21.33,0,5,.34,10.74-2.41,15.08,2.11s10.95,3.91,15.07,9.19c3.47,4.45,6.71,10.66,14.4,10.24.92,0,2,4.06,3.1,6.17,2.74,5.1,4.73,10.91,8.54,15,4.63,5-1.27,12.67,5.38,16.65,1.15.69,2,2.88,2,4.39.15,12.45.26,24.91-.08,37.35-.06,2.2-2.59,4.22-3.41,6.53a76.56,76.56,0,0,1-22.65,33.35c-4,3.46-7.18,8.08-11.48,11.12-4.66,3.29-9.94,6.43-15.4,7.67-6.52,1.48-14.3-1.9-19.07,5.62-6.23,0-12.48-.33-18.67.18-2.23.18-4.17,2.71-6.47,3.55s-5.26,1.87-7.08,1c-2.93-1.4-4.44-5-8.73-4.83-8,.35-16.06.7-24-.07-7.4-.73-13.43-7.4-21.87-5.38-1.93.46-5-1.18-6.67-2.77-7.74-7.34-15.4-14.8-22.64-22.64-3.42-3.7-10.18-6.07-9-12.07,1.66-8.55-8.23-13.31-5.72-21.89,1.92-6.54-2.29-13.89,2.53-20.33,6.49-8.69,7.48-20.7,17-27.71,3.54-2.62,6.46-6.11,9.47-9.38,4.71-5.11,11.39-9.7,13.33-15.76a40.72,40.72,0,0,0,0-23.65c-1.78-5.49-5.48-10.21-4.9-16.67.32-3.62.51-6.66,3.51-9.32,4.65-4.12,8.67-9,13.38-13,1.72-1.47,5-2.56,7-2,6.37,1.87,8.37-5.94,13.86-5.56,4.39.31,8.75.61,11.83-3.82.74-1.06,3.15-1.64,4.61-1.38,4.9.85,7.66,6.48,13.86,5.45,5.05-.84,10.42.28,15.65.58,1.13.07,2.84,6,1.79,7.13-.86.9-3.27,1.86-3.56,1.53-4.16-4.68-8.25-6.35-13-.82-3.55,4.09-8.58,2.46-12.44,1.76-7.68-1.37-13.29,2.43-19.14,5.7-7.49,4.18-15.24,8.28-16.07,18.62-.16,2-4.82,4.9-4.45,5.49a29.85,29.85,0,0,0,7.36,7.6,5.48,5.48,0,0,0,5.1.12c5.51-3.83,8.54-11.35,16.8-11.08,7.18-9,18-12,27.43-17.38,4.13-2.33,7.74-2.84,11.93-3.67,3.91-.77,7.63-5.11,11.14-4.78,9.05.84,14.92-8.23,24.59-6,7.61,1.73,15.93.35,23.94.35,8.89,0,17.93-1,26.63.35,5.39.8,11,4.2,15.23,7.9,8.69,7.6,17.61,15.39,24.28,24.65,4,5.62,8.82,12,8.07,20.66-.94,10.6-1.25,21.47.13,32,1,7.21-5.51,10.52-5.69,16.52-.18,6.16-.28,12.34-.41,18.51-8.09,3.76-2.23,13.27-7.51,18.26-1.18,1.12-2.84,3-2.62,4.14,2.41,13-6.94,22.09-10.61,33-1.82,5.46-8.26,9.45-5.56,16.39l-9.54,17.4c-2.16,2.66-6.47,5.67-6.1,7.93,1.57,9.87-5.51,14.21-10.9,19.71-8.09,8.26-16.33,16.37-24.5,24.55-3.15,3.14-6.08,8.67-9.48,9-9,.8-11.44,10.84-19.2,11.84-4.24.55-5.79,3.54-8.4,5.63-2,1.64-3.9,5-5.83,5-17,0-28.58,12.75-43.37,18-9.36,3.33-17.28,10.05-28.32,9.25-3.56-.26-7.24,4-11.15,4.81-4.26.9-8.87.46-13.29.11-2.4-.19-5.6-.69-6.92-2.29-4.55-5.52-11.17-7.6-16.63-11.46-6.45-4.54-11.87-10.75-17-16.82-3.76-4.4-5.57-10.7-9.79-14.4s-4.11-9.3-7.35-13.12c-3.83-4.52-9.6-7.74-9.39-14.81-4.19-2.79-4.13-7-4.7-11.47-.5-3.87-5.23-7.77-4.68-11.1,1.17-7.08-5.48-10.8-5.59-16.54-.38-20.45-.15-40.91-.15-61.37,10.32-8.41,4.79-19.94,4.8-29.81,0-7,5.63-10.4,6-16.46.33-5.83-2.63-12.66,4.25-16.89-.66-7.95,6-14.17,5.94-21.39,0-7.39,7.63-11.35,6.13-19.22-.62-3.25,3.75-7.19,4.76-11.1.87-3.33.18-7.07.18-10.63L687,705c8.18-8.18,16.75-16,24.39-24.66,4.67-5.29,9.83-6.79,16.29-6,7.39.9,11.87-5.68,18.39-7.18,2.32-.54,4.23-2.8,6.56-3.41,7.34-1.91,16,3.72,22.36-4,7.81-.47,15.66-.64,23.43-1.47,10.91-1.16,22.89,4,32.49-5.27h18.68c13.34,0,26.69-.09,40,0,7,.06,14,.47,21,.73,4.18,6.71,10.93,3.89,16.78,4.64,6.6.84,11.37,8.49,19.14,5.28,3.34,4.24,9.2,4.2,13,7.21,7.31,5.87,12.59,14.32,22.44,16.88.74.19,1.3,1.17,1.9,1.83,1.16,1.29,3.45,2.78,3.27,3.87-1.52,9.52,11,10.54,11.35,19.61.17,4.11,4.29,8.66,6.43,13.14,1.43,3,4,5.17,3.87,9.14-.3,11.56.8,23.23-.47,34.65-.7,6.35-6.54,11.49-5.23,19.22,1.18,6.92.25,14.19.25,21.31v40c-1.52.63-4.41,1.46-4.35,1.85,1.43,9.82-8.48,16.92-6.33,26.81-8.7,4.93-2,17.29-10.68,22.22,2.39,16.35-13.23,24.66-17.21,38.2-.27.93-2.91,1.22-4.48,1.69-5.33,1.58-9.5,4.94-10.13,10.36a11.86,11.86,0,0,1-7.64,9.82c-5.31,1.59-8.93,4.48-12.81,7.91-5.77,5.09-9.46,13-17.9,14.56-7.18,1.35-8.23,11.81-16.89,10.91-1.25-.12-2.84,1.73-4,2.89-3.84,3.71-7.54,7.55-11.34,11.28-3.07,3-8.68.79-11,5.62-2.93,6-10.32,5.52-14.65,9.49-4.58,4.2-8.84,8.75-13.24,13.15-7.59-1-10.31,5.61-14.69,9.48-4.65,4.11-8.95,8.64-13.22,13.16-2.49,2.64-4.93,5-8.94,4.2-5.93,9-17.79,10.14-24.42,18.33-2.22,2.74-4.57,5.82-7.57,7.41-5.78,3.06-12.86,4.12-17.9,8-5.41,4.14-10.36,8.39-16.77,11.23a72.77,72.77,0,0,0-17.13,10.59c-4.6,3.8-11.39,6.32-17.37,9s-9.77,10.35-15.7,13.74c-5.15,2.95-10.74,4.79-14.61,9.72-3.23,4.12-9.13,3.39-13.21,7.14-2.52,2.31-7.34,3-10.71,6-8.32,7.41-14.23,7.36-25.36,2-4.47-2.16-8.85-4.64-13.27-6.57s-9.54-.32-14.36-4.36c-3.21-2.69-10.16-1.91-15.21-1.15-6.12.92-9-4.74-13.83-5.37-6.12-.79-12.41-.19-18.63-.19h-16c-11.39-10.27-25.19-3.48-37.78-5.22-5.23-.72-12,1.89-15.65-.59-5.49-3.71-10.45-5.38-16.77-4.94-5.31.36-10.66.07-16,.07-3.4-9.09-12.83-2.9-18.35-7.26-5.24-4.13-12-5.68-16.75-11.25-8.07-9.41-17.21-17.94-26.26-26.46-4.15-3.91-6.95-7.81-5.62-13.73.19-.85.37-2.34,0-2.58-6.41-3.9-5-12.67-10.63-17,1.32-6.49-2.87-11.11-4.94-16.59-2.29-6.06-9.09-11.16-5.74-19-6.52-5-5.64-12.27-5.24-19.1.34-5.64-7.21-7.47-5.63-13.83,1-4.19.19-8.84.19-13.28,0-5.33.68-10.77-.14-16-1.59-9.95,5.08-21.39-5.2-29.79l.09-37.27c9.43-7.56,4.67-18,5-27.15.23-7.15,9.82-11.06,5.62-19.1,3.31-10.83-7.52-18.76-5.67-29.82,1.59-9.51,1.13-19.59,0-29.22-.54-4.52-6.17-7.84-5.11-13.84.92-5.25.63-10.63-4.85-13.91-.12-7.06.13-14.14-.47-21.16-.64-7.47,3.45-16.19-5.14-21.82,1.35-6.56-3.25-14,3.48-19.85,3.91-3.38,2.16-8.58,1.49-12.5-1.19-7,8.16-9.44,6.09-16.29C345.23,668.91,346.46,663.46,351.85,663.65ZM736.32,781.12c-3.7-.13-5.48,1.65-26.7,47.52,0,4.39-.2,8.78.15,13.14.08,1,1.93,2,3.11,2.8.14.09,1.67-1.11,1.71-1.77.26-4.33-.38-8.83.56-13,.88-3.85,5.09-7.46,4.82-11-.72-9.44,1.35-17,9.16-22.73,1.11-.81,1.51-2.88,1.78-4.44a20.9,20.9,0,0,0,0-5.24c0-.07-2-.38-2.47,0a74.64,74.64,0,0,0-16.95,21.82c-3.18,6-.88,11.85-1.81,17.68-.14.85,0,1.75,21.34-39.56,3.7.14,5.48-1.64,8.45-10.24a19.45,19.45,0,0,0-3,2.58,1.59,1.59,0,0,0,2.25,2.26,10.72,10.72,0,0,0,2.43-3.15C741.18,777.71,740,776.84,736.32,781.12Zm57.55,90.78c8,0,16.32,1.44,23.81-.48,5.42-1.39,10-5.54,16.53-5.18,2.71.15,5.49-4.53,8.43-4.77,8.45-.7,9.84-13,19.41-11.24.49.09,1.66-1.09,1.79-1.8,2.25-12.24,14.81-21.1,11.4-35.23-.6-2.51-.29-5.32,0-8,.47-5.11-1.07-7-6.65-8.61s-10.12-4.91-16.53-5.16c-7.39-.29-13,2.41-19.19,5.42-2.86,1.4-7.15-.44-10.47.42-3.89,1-7.42,3.42-11.14,5.15-1.48.69-4.2,1-4.37,1.82-.65,3.33,2.57,2.6,4.35,3.73,7,4.36,19.44,4.17,16.08,18-.24,1,1.87,2.88,3.25,3.8,2.29,1.51,2.51,3.54.09,3.67-12.27.64-24.56.83-36.85.9-1.39,0-2.67-2.26-4.18-2.57-6.61-1.37-10.91-7.8-18-8-3.52-6.38-6.89-12.8-9.78-19.53-1.26-2.94-3.73-5.09-4.45-8.86-.9-4.69-6-4.9-10-1.37-6.53,5.71-6.92,15.85-15,20.43a3.13,3.13,0,0,0-1.34,2.06c-1.49,12.26.75,23.72,8,33.87,2,2.84,4.87,5.14,7.47,7.55,3.17,2.93,6.48,5.72,9.73,8.57,8.51-3.41,13.58,6.61,21.73,5.48C783.16,871.31,788.56,871.9,793.87,871.9Zm30.75-122.65c-10.36-2.14-20.48,1.87-29.72,8.19-4.14,2.83-10.31,2-12.88,7.35-9.55-.44-12.45,8.53-18.25,13.31-1,.85-.53,5.16.69,6.84,2.57,3.53,5.95,6.51,9.23,9.46,4.46,4,16.84,4.38,21.37-.23,4.33-4.42,8.85-7.79,14.83-9.19,3.79-8,13.17-.67,18.45-7.17,4-4.92,11.55-1.59,17.49-1.93,7-.4,14.15.2,21.17-.4,1.11-.09,2.89-4.35,2.54-6.37a9.18,9.18,0,0,0-4.5-5.9C852.43,757.32,841.33,747,824.62,749.25ZM688.26,1130.88c-.59-.59-1.31-1.76-1.75-1.67a16.88,16.88,0,0,0-3.59,1.67c.59.6,1.32,1.77,1.76,1.67A16.33,16.33,0,0,0,688.26,1130.88ZM719.53,854l-1.9-3.44c-.59.59-1.77,1.32-1.67,1.76a17,17,0,0,0,1.67,3.58Z"/><path d="M926.36,562.19c10.67,0,21.35-.08,32,0,7.65.07,14.86-.44,22.15,4.83,4.79,3.47,13.93-2.58,19.3,4.79.72,1,3.16.75,4.82,1,5,.83,10.28-1.76,15,2.72,4.19,4,10.47,4.67,14.91,9.3,5.15,5.37,13.81,6.66,18.29,13.45,9-.22,12.39,8.39,19,12.1,13.9,7.81,15.55,10.65,24,25.19,1.76,3,4.16,5.26,3.74,9.19-.67,6.18-.35,11.85,5,16.76,1.72,1.59,1.57,8.67-.16,10-8.68,6.48-3.07,11.17.18,17.46,4.24,8.19,6.77,17.26,14.3,23.39,3.52,2.85,1.07,8.26,5.42,11.34,1.94,1.36,1.66,6.31,1.83,9.65.26,5.33-1,10.93.31,16,1.83,7.21-6.28,10.57-5.4,16.5,1.12,7.61-3.82,11.35-8.34,15.26-4.73,4.1-6.8,9.46-9.68,14.68s-8.58,8.89-12.79,13.47c-1,1.09-1.14,3.09-1.38,4.72-.87,5.78,2.53,12.64-4.36,16.88-.33,6.08.1,12.34-1.21,18.21-1.6,7.21-6.32,13.59-6.32,21.36-5.69,4.25-5,12.28-11.1,16.94-8.42,6.4-15.47,14.66-22.8,22.4-5.49,5.81-12.9,7.64-19.88,10-6.5,2.23-10.14-1.48-9.07-8.21a27.05,27.05,0,0,1,2.16-7.09c3.14-6.71,5.94-13.74,9.73-19.92,3.46-5.65,7.89-10.76,11.51-16.53,2.7-4.3,1.59-10.58,7-13.27,2-1,1.84-2.7-.6-3.65a8.27,8.27,0,0,0-5.06-.43,7.81,7.81,0,0,0-4,3.19c-3.47,5.58-10,6.22-14.71,9.57-3.05,2.16-6.23,4.77-9.05,2.43-3.11-2.58-8.19-4.62-7.59-10,.2-1.75-2.84-5.81,2.52-5.36,7.55-7.55,17.38-13.92,22-23s11.59-14.84,17.63-22c-.8-7.45,5.66-10.25,9.43-14.78.55-.66,1.66-1.37,1.6-2-1.2-11.09,8.42-18.43,10.15-27.71,2.41-12.9.61-26.57.61-39.91-8.59-8.72-4.57-19.71-5.26-29.82-.28-4-1.34-5.88-5.87-6.62-6.44-1-9.43-7.41-13.73-11.6-1.51-1.47-1.57-4.69-1.77-7.16-.28-3.53.18-7.13-.16-10.65-.23-2.43-.55-5.63-2.12-7-5.32-4.67-7.65-11.13-11.49-16.6-5-7.17-12.23-12.83-18.57-19.07-3.64-3.57-10.28-2.14-12.87-7.56-10,3.18-16.72-8.28-27.11-5.88a48,48,0,0,1-21.21,0c-10.36-2.44-16.81,8.08-27.28,6-9.42-1.85-19.52-.79-29.26-.15-2.92.2-5.51,3.64-8.51,5-4.46,2.07-9.07,4.78-13.78,5.16-7.8.62-15.73-.28-23.57-.92-.69,0-1.88-3-1.59-4.41,1.17-5.47,4.82-9.69,10.19-10.18s9.55-1.59,14.1-5.19c3.36-2.66,10.41,1.7,14.23-4.13.7-1.08,3-1.49,4.58-1.54,6.85-.24,14.1,1.19,19.13-5.41h21.35c7.11,0,14.23,0,21.35,0,1.69,0,3.73.1,5-.77a6.09,6.09,0,0,0,2-4.35,6.17,6.17,0,0,0-1.73-4.47c-1.15-.93-3.19-1-4.84-1-8.9-.09-17.79-.16-26.68,0-9.66.17-19.31.6-29,.91-6.06,9.7-19.35-.86-25.79,9.21-1.07,1.67-7.07,1.46-10.13.32-7.39-2.73-9.47,8.63-16.54,5.55-6.12,8.2-16.91,12.51-19.16,24.14-.56,2.9-4.39,5.71-7.38,7.36-1.66.92-6.64-.28-6.79-1.11-1.31-7.44-4.13-15.33,3.17-21.65a50.63,50.63,0,0,0,7.51-7.56c8.05-10.7,20.63-14.37,31.5-20.67a17.58,17.58,0,0,1,4.57-1.84c7.39-1.77,15.31,3,22.67-3.57,5.46-4.9,13.57-1.22,20.48-1.68,8-.53,16-.12,24-.12ZM1091.3,786.58c3.67-3.67,8.51-6.64,10.47-10.92,2.72-5.91,8-10.84,8.25-17.68.35-9.67.18-19.37,0-29.06-.06-3.75-9-19.39-12.21-21.25-.74-.42-3.52,1.15-3.51,1.21,2,6.17-5.7,8.22-5.68,13.64,0,6.74,1.73,13.74-5,19.25-1.68,1.37-1.57,8.41.19,9.85,5.82,4.79,4.53,10.73,5,16.68S1086.52,780.49,1091.3,786.58Zm-14.49-128.27c2.58,0,4.35,0,6.11,0,5.26-.1,5.33-.65,3.33-5.29-2.72-6.29-5.9-12-11.22-16.6-6-5.21-11.25-11.22-17-16.75-5.45-5.28-14.42-5.8-18.36-13.12-3.61-6.7-12.28-5.63-16.71-11.08-.26-.31-3.12.6-3.45,1.45-.6,1.53-1,4.15-.09,5.1,5.34,5.86,11,11.38,16.65,17s11.61,10.92,16.75,17c4.86,5.72,6.91,13.32,13,18.55C1069.65,657.77,1073.16,658.7,1076.81,658.31Zm-14.76,184.44a34,34,0,0,0,.08,5c.1.69,1,1.4,1.73,1.82a2.37,2.37,0,0,0,1.73,0c2-7.78,9.93-13.76,7.09-23a3.89,3.89,0,0,0-1.76-1.81,2.82,2.82,0,0,0-1.73,0C1068.51,831.42,1061.12,835.36,1062.05,842.75Zm-5.34,19.76,2.67,4c.89-1.35,2.62-2.79,2.49-4-.25-2.28-1.6-4.44-2.49-6.65Zm-126.26-269,3.44-1.9c-.59-.59-1.31-1.77-1.75-1.67a16.58,16.58,0,0,0-3.58,1.67Zm38.15-4.57c-.59.59-1.77,1.32-1.67,1.76a17,17,0,0,0,1.67,3.58c.6-.59,1.77-1.32,1.67-1.76A16.55,16.55,0,0,0,968.6,588.89Zm108.7,98-1.9-1.9a16.58,16.58,0,0,0-1.67,3.58c-.1.44,1.08,1.16,1.67,1.76Z"/><path d="M357.19,658.31c0-2.65-1.13-6.52.19-7.75,6.93-6.44,11.84-15.22,21.17-18.95,0,2.65,1.13,6.52-.19,7.75C371.44,645.8,366.52,654.57,357.19,658.31Z"/><path d="M421.27,567.61c.8,5.44-.79,10-5.45,13.47-3.13,2.35-8,3.14-9.14,1.36-2.37-3.64,1.46-4.25,2.77-5.54,3.69-3.67,7-7.28,7.5-12.85.07-.74,2.82-1.24,4.32-1.86v5.42Z"/><path d="M394.57,610.25c-.86-8.29,2.25-13.93,10.68-16C406.11,602.51,403,608.16,394.57,610.25Z"/><path d="M430.62,547.5c.44,1.59,1.77,3.74,1.17,4.66a85.93,85.93,0,0,1-7.94,10,2.47,2.47,0,0,1-2.48,0c-.45-.44.08-1.71-.13-2.55-1.66-6.73,4.42-8.9,7.56-12.78C428.92,546.62,430,547.24,430.62,547.5Z"/><path d="M389.23,615.59c.86,8.28-2.25,13.93-10.68,16C377.69,623.32,380.8,617.68,389.23,615.59Z"/><path d="M408.35,589.33c.62.61,1.76,1.49,1.65,1.69a10.82,10.82,0,0,1-2.42,3.14,1.6,1.6,0,0,1-2.26-2.26A18.8,18.8,0,0,1,408.35,589.33Z"/><path d="M389.23,615.59c-.13-3.7,1.64-5.48,5.34-5.34Q394.78,615.79,389.23,615.59Z"/><path d="M357.19,658.31q.21,5.54-5.34,5.34Q351.66,658.1,357.19,658.31Z"/><path d="M584.59,183.52c2.32.59,2.95,4.91,1.13,8.57a3.56,3.56,0,0,1-1.79,1.61c-2.44.94-3.18.07-2.5-2.45.61-2.26.87-4.61,1.47-6.87C583,184,584,183.8,584.59,183.52Z"/><path d="M597.48,169.42c-1.05.83-2.65,2.57-3.07,2.32-3.21-1.88-1-3.4.73-4.64a2.35,2.35,0,0,1,2.26,0C597.79,167.53,597.48,168.63,597.48,169.42Z"/></svg>