<svg id="Layer_1" data-name="Layer 1" xmlns="http://www.w3.org/2000/svg" viewBox="0 0 1200 1200"><title>BB_Artboard 44</title><path d="M274.06,953.93c4.28-10.24,4-10.27,4.4-15.3.7-8.15-2.94-17.13,4.25-24.15,0-6.48.1-13,0-19.45-.08-3.54-5.7-4.85-4.18-9,.91-2.48,3.53-4.45,4-6.92.71-3.46.37-7.19.05-10.76-.09-1-1.67-2.71-2.61-2.74-7.2-.23-14.42-.47-21.6,0-5.4.34-7-4.17-10.25-6.63,1-5.86-6.06-9.1-4.54-15.55,1.12-4.78.19-10,.22-15.08q.12-15.06.28-30.14c9.41-6.2-1.1-18.5,7.55-25a9.43,9.43,0,0,0-1.53-2.93c-4.3-5.67-2.51-10.26,2-14.91,1.06-1.09,1.09-4.05-1-5.72s-7.23-.89-7.1,1.39c.36,5.91-6.92,9.17-4.61,15.54,2.43,6.69-6.29,10.51-4.53,17.7,1.33,5.44.26,11.46.26,17.22-7,8.65-3.53,18.89-4.28,28.47-.33,4.15-1.05,5.27-4.64,5.3-5,0-10.1.23-15.12-.07-3.22-.19-5,2-7.4,3.13-8.14,3.94-15.66-.85-16.1-9.65-.07-1.44,0-2.88,0-4.32-.46-8.68-8.67-14-16.13-9.12-4.91,3.23-9.35,2.29-14.08,2.7-4.34.37-6.15-5.85-11.11-4.66-.35.08-1.87-2.24-1.78-3.35.28-3.53-3.68-4.64-4.06-7-.8-4.8-.23-9.39-4.4-13.54-1.8-1.8-.13-6.91-.34-10.5-.41-6.82,2.11-14.3-4.29-19.83,0-5,.52-10.15-.1-15.11-1.38-10.94,4.36-22.81-4.22-32.8,0-5.76.28-11.54-.08-17.28-.34-5.4,2.31-11.45-3.47-15.94-1.13-.89-.55-4-.78-6-1.25-11.67,3.39-24-4.18-35-1-1.47-.14-4.23-.14-6.39,0-10.08-1.16-20.35.36-30.2,1.31-8.47-6.56-13.71-5-22.09,1.33-6.95.27-14.35.27-21.56-7.79-6.07-4.25-14.66-3.94-22,.23-5.68-6.68-7.4-5-13.42,1.08-3.75,1.55-8.7-3.19-11.48.28-8.57-4.69-14.24-10.69-19.34a8.2,8.2,0,0,1-1.52-1.54C87.9,486,83,484.78,84,480.57c1.59-6.86-5-10.9-4.94-17.7.09-5.62,4.37-8.42,5.15-13.28.46-2.86,4.27-5.18,6.57-7.74,5.42,1.56,7.41-6,13.4-4.59,5.48,1.25,11.48.47,17.23.21,4.89-.23,5.84,2.1,5.93,6.44,0,1.56,2.67,3.19,4.29,4.59,2.83,2.43,4.86,5.05,4.17,9.13-.22,1.31-.21,3.64.47,4,6.41,3.29,2.3,10.39,5.82,15.06,5,6.58,8.24,14.27,6.73,23.14-.32,1.86.06,5.07,1.23,5.76,5.64,3.32.6,9.93,4.53,13.36,2.43,2.13,2.64,4.57,2.89,7.52.63,7.68-2.69,16,1.8,22.95,4.88,7.51-.71,16.23,2.76,22.63,7.8,14.38,2.59,29.26,3.66,43.8.44,5.94,3.35,8.6,7.19,11.57,3.4-3.68,1.31-8.16,1.7-12.25.34-3.57-1.26-8.07.39-10.59,2.41-3.68,4.34-6.76,4.11-11.39-.39-7.9-.31-15.85,0-23.76.21-6.12-2.33-13,4.26-17.66V534.46c0-6.49-.33-13,.17-19.44.18-2.3,3.12-4.36,3.38-6.69.17-1.47-3-3.11-3.33-4.9s1.23-3.69,2.08-5.5c2.8-6,3.27-7-.72-13.11-2-3,.12-3.67,1.3-4.62,1.72-1.38,1.72-1.85,0-3.2-3.23-2.46-4.4-5.47-1-8.85.51-.51,1.36-1,1.47-1.54.62-3.37.09-7.42,1.81-10,2.72-4.13,7.07-7.14,10.42-10.9a10.69,10.69,0,0,1,9.24-3.94c7.19.32,14.42-.16,21.6.18,4.42.22,6-3.22,8.64-5.34,1.37-1.09,1.11-1.9-.59-3.11a6.07,6.07,0,0,1-2.58-5.41c.13-11.53.18-23.05,0-34.58a13,13,0,0,1,3.46-9.5c1.47-1.72,2-6.56.71-8-6.19-6.74-4.91-14.92-3.73-22.12,1.29-7.83-5.71-12.56-4.86-19.9.75-6.39.16-12.94.16-19.43-3.86-2.79-4.49-6.61-4.43-11.17.17-13.22.34-13.73,15.18-21.52,2.39-5,8.35-4.19,12.2-7.32,4.46-3.63,11.15-1.3,14.46,3.79,2.17,3.34,2.28,7.89,5.82,10.53-2.33,8.07,6.49,13.66,4.67,22.06-.7,3.26,3.14,7.27,3.81,11.13.73,4.2.17,8.62.17,12.94,6.25,5.55,4.28,13,4.19,19.82-.06,4.57,5.73,6.06,4.63,11.21-.88,4.14-.18,8.61-.18,12.93,7.79,6.08,3.4,14.58,4.23,22,.69,6.13-1.05,12.5,4.2,17.86,1.44,1.48.22,5.55.22,8.43,0,20.89-.21,41.79.1,62.67.13,8.18-2.8,17.1,4.22,24.15v84.28c-7.29,7.8-3.72,17.43-4.22,26.31-.48,8.61.25,17.3-.22,25.92-.33,6,2.67,13-3.82,17.82-.13,6.43-.29,12.86-.37,19.29-.06,4.32-.46,8.71.11,12.95s-5.11,5.06-4.41,9a21.8,21.8,0,0,0,1.36,3.74c1-.51,2-1.07,3.06-1.52,5.3-2.24,3.12-9,7.44-12.23,1.51-1.13.84-5.26,1.06-8,.27-3.51.45-7,.66-10.54,6.78-3,1.08-10.86,6-14.85,4.49-3.61-.81-11.73,6.12-14.82.55-.25.47-2.79.1-4.11-1.73-6.12,1.86-10.71,4.45-15.48s5.45-9.52,4.68-15.35c6.18-4,4.47-10.5,3.59-15.63-1.1-6.44,7-9.21,4.69-15.57-1.9-5.33,3.58-8.88,3.95-13.34.34-4.12,5.2-4.91,4.7-9-.34-2.84,0-5.75-.09-8.63-.2-4.4,5.66-6,4.59-11.23-.64-3.08-2-7.39,1.53-10,4.39-3.23.81-8.5,3.2-11.61s4.9-5.67,3.55-9.31c-2.41-6.52,3.42-10.25,4.8-15.45,1-3.68,4.44-6.53,4.16-11.28-.25-4.07-2.22-9.24,1.21-12.26,4.17-3.66,1-9.22,3.24-11.57,4.13-4.28,4.59-8.73,3.89-13.62-.63-4.36,4.48-6.28,4.14-9-1-8.08,7.1-13.83,4.79-22.07-.42-1.51,1.16-3.75,2.14-5.47,4.14-7.24,8.09-14.51,6.32-23.31-.85-4.19,3.54-6.39,3.89-9.08.51-4.06,4.25-6.16,4.43-9,.34-5.11,1.92-9.06,4.31-13.5,1.8-3.36.36-8.46.36-12.78,0-10.8-.17-21.61.08-32.41.1-4.72-1.75-9.85,3.29-13.89,1.51-1.22.9-5.32.92-8.09.08-12.25-.16-24.5.12-36.74.12-5.4-2.3-11.56,3.65-15.82.76-.55.56-2.63.56-4,0-16.44,0-32.87,0-48-2-2.53-2.74-2-4.12-.54-7.53,7.74-15.23,15.33-22.87,23-1,1-3,2.09-2.9,3.05.24,4.07-2.36,6.28-4.54,9-1.07,1.36.45,4-1.69,5.76-12.7,10.34-16.94,25.94-24.47,39.53-4.22,7.61-8.34,15.41-11.83,23.21-4.62,10.34-13.6,16-20.37,23.93-1.79,2.1-.13.45-1.16-1.14-3.82-5.91-11.63.3-15.16-5.86-1.64-2.84-5.33-.73-8-1.35-3.6-.86-8.2-5.57-8.23-8.48-.09-6.49,0-13,0-19.45,7.73-6.09,4.28-14.64,4-22-.24-5.64,6.64-7.4,4.91-13.42-1.08-3.76-.18-7.72,2.83-11.76,2.5-3.35.83-9.54,2.18-14.12.7-2.34,3.78-3.86,3.47-7.21s-.07-7-.07-10.71c-5.12-.38-6.06,3.74-8.52,5.56a27.07,27.07,0,0,0-6.08,6.1c-1.9,2.71-2.87,6.08-4.76,8.79-1.62,2.32-4.9,3.8-5.8,6.25-1.2,3.27-1.67,6.69-4.81,8.83,2,5.63-6.76,7.52-4.61,13.21-3.43,6.76-12.95,18.67-18.35,22.62a5.84,5.84,0,0,1-3.8,1.12c-4.07-.48-9,2.08-12.08-1.9-3.68-4.72-5.82,3.31-7.55.94-3.2-4.35-9.09-2.81-12.38-7.34-3.53-4.85-1.75-9.62-1.92-14.35-.39-10.79-.33-21.61,0-32.41.15-5.4-2.06-11.3,3.56-15.94,1.48-1.22.65-5.39.66-8.21,0-18,0-36,.06-54a17.48,17.48,0,0,0-3.74-11.57c-2.08-2.79-.36-8.3-.75-12.56-.1-1.13-1.79-2.09-2.69-3.17-3.67-4.41-9.31-5.47-14.11-7.72-2.76-1.3-7.19-1.34-9.53,2.46-1.17,1.89-1.87,1.88-3.14.2s-4.34-3.13-4.3-4.62c.16-7.77-4.89-7.06-9.95-7-2.41,0-4-1.4-3.67-4s-1.64-6.56,1.37-7.94a269,269,0,0,0,26.83-13.6c3.18-1.91,8.45-.35,12.76-.35,6.48,0,13.12.86,19.41-.26,5.84-1,8.74,3.59,13.34,4.74,5,1.23,8.09,4.39,8.74,10.37.31,2.78,3.66,5.14,4.52,8.91a24.41,24.41,0,0,0,4.5,8.7c3.15,3.78,4.6,7.55,3.42,11.58-1.89,6.48,6.07,9.1,4.77,15.6-1.24,6.24-.27,12.92-.27,19.4,0,5.76-.12,11.53.12,17.28a4.3,4.3,0,0,0,2.43,3c1.19.48,3.42.55,4.07-.19,5.62-6.43,12.76-10.18,20.74-12.72a4.62,4.62,0,0,0,2.8-2.66c1.28-6,4-10.21,10.92-10.4.75,0,2.18-2.24,2-3.26-1-7,6-4.2,8.51-6.92,3.82-4.1,7.84-9.62,12.68-10.79,7.48-1.82,15.74-.71,23.64-.29,1.66.08,4,2.24,4.65,4,2.4,6.21,8.09,11.22,6.89,18.79-.44,2.8-.36,5.69,2.41,7.62,3,2.13.29,3.37-.9,4.54-3.13,3.07-.9,6.82-1.48,10.2-.08.42.82,1.15,1.41,1.49a1.56,1.56,0,0,0,1.47-.1q21.45-21.35,42.82-42.76c2-2,3.72-4.95,6.18-5.94,5.55-2.23,10-7.23,16.7-6.69,2.86.24,5.78-.18,8.64.1,4.16.39,8.6-1.49,12.45,1.16,1.75,1.21,4.42,3,4.39,4.52-.16,5.89,7,8.73,5.42,15.24s2.74,14.38-4.2,19.92c-.38.31-.24,1.33-.24,2,0,7.21-.82,14.53.21,21.58,1.1,7.52-6.68,12-4.87,19.93,1.56,6.85.32,14.33.32,21.54v21.61c0,1.43-.42,3.92.1,4.15,7.11,3,1.75,11.07,6.11,14.84,3.35,2.89,3.71,7.6,2.17,9.63-5.83,7.66-3.62,16.14-4,24.35-.35,7.58,1.42,15.51-4.37,22,0,6.49.42,13-.1,19.44-.61,7.45,3.33,15.82-4,22.13-.38.32-.23,1.33-.23,2,0,5.76-.79,11.66.19,17.25,1.21,6.88-5.93,10.84-4.72,17.73,1,5.59-.13,11.51.3,17.24.35,4.65-1.75,7.73-4.08,11.4-1.28,2-2.08,4.79-3.41,7.2-.64,1.18,2.83,4.11,2.91,6.3.36,9.35.15,18.72.15,28.09-7.81,8.52-4.63,19.07-3.81,28.42.59,6.7-5.55,9.61-4.95,15.55.57,5.71.12,11.52.12,17.28-7.76,6.08-3.9,14.58-4.08,22-.14,5.84-6.5,9-4.82,15.56,1.19,4.66,0,9.93-.08,14.93-6.54,3.05-1.65,10.91-6.14,14.72-3.38,2.86-2,6.55-2,9.93a3.93,3.93,0,0,0,2.37,3c2,.4,5.12.82,5.57-1.63,1.1-6,7-10.35,5-17.5-1.73-6.3,7.31-10.56,4.28-17.57,5.47-3,2.45-9.59,4.95-13,2.88-3.87,3.25-7.37,3.79-11.58.31-2.43,3.43-4.44,4-6.92,1.14-5.28-2.1-11.63,4.1-15.62.76-4.67-.9-10.19,4.58-13.23-3-7,5.52-11.13,4.42-17.6-1-5.9,6.89-8.92,4.56-15.58-1.15-3.25,5-4.64,4.21-9-.51-2.78,0-5.74-.12-8.62-.3-7.05,6-12.3,5.26-19.44,3.56-2.26,3.75-5.74,3.41-9.4-.42-4.43.78-7.81,3.93-11.47,2.28-2.64-.82-7.86,3.18-11.63s-.79-11.57,5.86-14.75c0-5-.41-10.12.13-15.11.42-3.94,5.6-6.27,4.23-11.2-1.48-5.29,2.8-8.95,4-13.4,1.27-4.7.28-10,.28-15.05,8.88-5.15-.22-17.2,8.59-22.38,0-3.59-.51-7.3.22-10.74.68-3.17,3.5-5.93,4-9.08.75-4.91.31-10,.38-15,7.21-3.24,1.08-12.74,7.64-16.29.27-4.21-1-9.66,1.11-12.38,5.59-7.06,4.26-14.75,3.8-22.21-.38-6.05,6.12-9.2,4.75-15.56-1-4.82-2-11.11.25-14.81,2.74-4.55,4.4-8.52,3.87-13.61,5.22-3.22,5-8.45,4.19-13.31-1.1-6.59,1.69-10.89,6.43-14.73a29.88,29.88,0,0,0,6.08-6.12c4.67-6.92,11.31-7.41,18.78-7.09,6.53.28,10.29,2.66,12.23,9.1,1.35,4.47,4.81,5.33,7.46,2.83s5.49-4.81,7.57-7.69c3-4.12,6.92-4.36,11.33-4.14,5.56.29,12.28-1.51,15.06,5.09,3.28,7.82,10.34,15.36,4.14,24.86-.75,1.15-2.32,2.16-2.38,3.3-.26,5,.84,10.33-.39,15-1.16,4.45-5.78,8.2-3.94,13.37,2.09,5.9-5.29,8-4.54,13.39.58,4.24.11,8.63.11,12.95-6.53,3.22-2.39,10.63-5.78,14.84a12.38,12.38,0,0,0-3,7.5c-.43,5.39,2.31,11.28-2.89,16.1-3.62,3.35,1.46,10.32-4.68,13.14-.19,7.74-4.25,14.05-7.64,20.6-.61,1.19-1.61,2.28-1.89,3.53-1,4.65,2.13,9.89-2.62,14.1-3.77,3.33-1.15,8.11-1.71,12.2-.66,4.73-5.54,7.56-4.71,13.38.62,4.31-5.72,7.7-4,13.3,1.4,4.65-1.64,7.9-4.27,11.16,3.41,9.57-6.58,16.93-4.32,26.3-2.82,6.31-5.93,12.55-4.32,19.82-6.87,3.52-1.73,12.21-7.13,16.59-1.25,1-1.39,3.79-1.45,5.77-.18,5.75,0,11.52-.07,17.28,0,4.31-.08,8.61-.12,12.92-5.48,3-2.26,9.9-4.9,13-6.22,7.21-3,14.69-2.92,22.14a2,2,0,0,0,1.46,1.4c.53,0,1.51-1,1.46-1.41-.95-8.53,7.27-15.08,5.07-23.9-.87-3.45,2.13-5.23,4.24-6.78,4-3,5.07-6.73,4.32-11.23-.78-4.68,1.13-8.15,4.36-11.18-1.63-8,6.25-13.8,5-21.7,5-5,5.83-12.06,9.34-17.71,1.52-2.45,3.77-4.37,2.91-7.44-1.73-6.14,2-10.61,4.38-15.51,2-4.21,3.41-9.08,6.49-12.33,3.61-3.82-.06-9.27,3-11.66,4.32-3.33,2.16-10,7.46-12.2-1.24-6,2.15-10.52,4.61-15.38s6-9.39,4.56-15.4c4.38-2.1,4.18-7,5.88-10.54,2.29-4.79,7-9,6.63-14.41-.42-6.05,6.67-9.31,4.59-15.53-.83-2.49,2-3.56,2.63-5.36,1.93-5.68,5.88-10.28,6.48-16.93.46-5,5.24-9.58,3.82-15.55,4.67-10.31,4.94-22.86,14.38-30.7,4.86-4-.12-5.31-1.15-7.73,5.64-5.64,11-11.55,16.94-16.73,3.69-3.21,3.75-6.95,4.75-11.13,1.22-5.13,5.44-9.52,4.32-15.44,6.55-3.06,1.8-10.76,6.08-14.8a6.68,6.68,0,0,0,2.16-3.38c.82-5.36-1.37-10.84,3.65-16,2.74-2.81-.58-9.87,4.92-12.9,0-4.91,0-9.43,4.17-13.58,1.81-1.77.31-6.89.31-10.5,0-10.08-.06-20.17,0-30.25,0-4.26-2.87-3.93-5.75-4.23-7.25-.75-6.44-1-7.42-6.92-1.66-10,6.13-13.53,11.33-19,6.24,2.41,10.24-3.46,15.52-4.18,5-.68,10.08.07,15.1-.21,4.83-.26,6.38,1.95,5.78,6.36,5.08,3.23,4.49,8.35,4.45,13.29,5.31,2.22,3,9.18,7.51,12.15,1.14.74,1,3.89,1,5.93.07,13.69.12,27.37,0,41.06,0,2.22-1.52,3.9-5.21,3.41-.32,0,.57.25.89-.07a1.87,1.87,0,0,0,0-1.82c-1-1.42-2.24-3.2-3.76-.6-.2.35,1.21,1.64,2.84,2.49-.11,5.5,3.83,12.33-.78,16.38-5,4.41.81,12-5.87,15-1.63,5.07-.12,11.26-5.35,15,2.86,6.36-5.34,10.12-4.08,15.42,1.44,6-6.32,8-4.53,13.36,1.7,5.08-3.53,7.11-4.59,11.12-1.37,5.16-5.16,9.35-4.32,15.57.81,6.05-6.33,10.68-4.55,17.42-4.5,2.68-4,7.08-3.87,11.35-5.79,4.81-4.2,11.45-4.29,17.64,0,2.55-1.06,6.33,2.46,6.71,2,.22,1-3.89,2-5.3a58.37,58.37,0,0,1,8.71-9.35c3-2.71,4.84-6.9,10.3-6.7,2,.08,4.33-3.42,6.14-5.61a28.59,28.59,0,0,1,13.52-9.11c-.85-6.15,4.9-8.08,7.59-12,3-4.3,9.07-2.89,12.16-7.49,2.75-4.1,7-7.24,10.51-10.8,20.36-20.35,41-40.4,60.8-61.3,4.2-4.44,10-4.71,13.81-8.85.78-.84,2.46-1,3.76-1.21.63-.12,1.72,0,2,.33,4.47,7.07,12.68,1.3,17.39,4.8,5.36,4,11.91,8.36,10.54,17.1-.16,1,1.21,2.32,1.87,3.48.5-.38,1.21-.66,1.49-1.17,3.7-6.56,12-6.68,16.65-12.11s10.53-9.89,15.05-15.45,13-5.41,16.74-12.06a4.72,4.72,0,0,1,3.32-2.15c7.91-.19,15.84-.26,23.74,0,2.2.08,3.39,1.9,3.27,4.49a6,6,0,0,0,1.65,3.56c1.37,1.62,3.34,3.07,2.52,5.42-2.21,6.27,5.84,9.3,4.54,15.53-.85,4,.37,8.27-3.83,11.46-7.16,5.43-12,13.17-21,17.15-6.13,2.74-10.37,9.73-15.46,14.82l-24.43,24.42q-7.62,7.63-15.26,15.26C891,216.4,888.73,223.8,884,227.7c-2.41,2-5.74,1.34-7.32,3.06-2.62,2.86-6.31,2.76-8.92,4.64-1.83,1.32-2.15,4.71-3.21,7.15-2.25,5.22-8.7,3.72-12,7.55s-6.76,7.66-11,9.85c-2.36,1.22-5,1.92-7,3.95-6.57,6.65-13.26,13.19-19.79,19.89-2,2-.12-1.21.94,1.47.19.47,1.09.77,1.71.95,4.25,1.2,5.85-3.11,9-4.39,11.32-4.68,22.91-9,31-19.06,8.47-2.6,13.55-9.54,19.58-15.26,4.93,1.53,6.7-4.66,11.09-4.52s6-6.31,11-4.63c7.84-7.85,17.36-3,26.18-3.3,1,0,2,1.87,3,2.92.78.82,7,14.67,7.15,16.44.18,2.11,0,4.1,2,5.71,3.32,2.76,3.46,5.82.2,8.86-3.07,2.86-1.8,8.27-6.1,10.42.3,5.42-2.14,7.11-7.6,7s-9.3,5.06-14.51,6.46c-3.09,6.25-11,5.76-15,10.65-7.88-1.89-8.64,9.29-15.85,8.64-6.22,6.56-15.54,8.84-21.58,15.75-2.69,3.08-5.51,5.56-10.28,6.54s-4.73,8.6-8,11.25c-7.85,6.45-10.92,16.21-18,23-7.28,6.95-14.24,14.24-21.25,21.29-5.94,0-11.7-.16-17.45,0-6.36.21-10.59-6.83-17.6-4.89-1,.28-3-2.81-4.51-4.33-2.41-2.39-2.68-5.05-.16-7.31,2.35-2.11,4.24-4.93,2.5-7.28-1.93-2.63-3.83-6.26-8-6.47a69,69,0,0,0-8.63,0c-4.48.34-8.24-.32-11.36-4.21-.85-1.05-4.12-.16-7.29-.16,1,.67,1.73,0,1-2a2.67,2.67,0,0,0-1.31-1.43,8,8,0,0,0-3.64-.79c-1.15.15-2.2,1.09-3.3,1.69.75.84,1.35,2.1,2.28,2.43,1.19.42,2.65.1,5,.1-.8,6.25-4.77,9.28-11.44,8.69-2.86-.25-5.76.06-8.64-.07-3.67-.16-3.69,2.44-5.11,4.94-3.77,6.59-7.93,13.66-17.63,12.48-1.08-.13-2.28,1.31-3.51,1.82-11.61,4.81-19.44,2.48-25.19-7.44-.33-.58-1-1.22-.91-1.76.73-6.19-2.14-12.91,2.14-18.52,1.55-2,2-3.16-.33-4.42-.55-.3-1.42,0-2.14-.05-2.61-.13-3.75,1.3-4.05,3.71-.34,2.74.22,7.06-1.25,7.92-6.23,3.67.18,11.81-5.95,15-1.05,5.31-6.51,8.92-5.75,14.91.73,5.78-7.05,8.81-4.6,15.59,1,2.87-5,4.62-4.14,8.94.54,2.74.51,5.73-2.32,7.63-2.12,1.42-1.91,3.57-1.93,5.69-.05,4.88.45,9.44-3.9,13.69-2.4,2.34.87,7.87-3.18,11.58-4.46,4.08.63,10.9-3.12,15.92-2.79,3.74-6.87,8.22-6.63,12.14.46,7.46-4.53,13.44-4.29,19.83.25,6.9-2.69,12.36-5.26,17.46-2.3,4.55-4.53,8.45-3.86,13.56.84,6.46-6.49,10.4-4.65,17.74,1.45,5.83-6.3,10.64-4.44,17.41-4.32,2.11-2.47,8.72-6.24,10.08s-8.53.28-12.84.42c-.52,0-1.16.88-1.47,1.49a1.7,1.7,0,0,0,.35,1.48c2.79,3.18,5.71,5.91,10.4,6.28,2.07.16,1.87,1.67.16,3s-3.07,2.62-3,5.24c.17,5.52,1.21,11.45-4.23,15.5,1.08,5.26-2.31,9-4,13.45-1.87,4.91-7.33,9.06-4.64,15.39-5.36,4.07-4.15,10-4.34,15.5-.17,4.82-6.56,7.69-4.3,13.34s-3,8.89-4.59,13.24c-1.87,5.14-5.59,9.66-4,15.59,1.28,4.88-5.14,6.38-4.48,11.2a53.35,53.35,0,0,1,0,12.94c-.37,3.31-5.72,4.89-4.14,9,2.27,5.86-5.59,7.76-4.58,13.4.88,4.88.35,10.06.12,15.09-.12,2.71,1.56,6.22-1.31,8-4.12,2.55-1.64,8.4-6,10.59-1.81.9-3.37,3.13-5.1,3.2-8.49.34-17,.15-26.41.15,0-6.81-.8-12.59.2-18,1.2-6.49-5.79-9.31-5.51-15.2.08-1.62-1.38-.62-3,.22q-15.63,8.32-17.52-8.17a11.93,11.93,0,0,0-3.17-7.42c-2.62-2.92,3.69-3.63,2.29-5.94s-5.33-4.85-3.38-7c6.17-6.79,3.43-14.69,4.12-22.17,7-6.24,3.47-14.54,4.34-22a7.94,7.94,0,0,0-2.88-7.5,125.39,125.39,0,0,1-10.68-10.7c-1.84-2.09-4-1.58-5.89-1.28-.88.13-2,2.07-2.09,3.27-.42,4.66,1.61,10.59-6.86,9.95-1.71-.13-1.91,1.76-.73,2.91,4.87,4.81,4.54,9.83.2,14.72-3.4,3.83.75,9.51-4.31,13.58-3.19,2.56-3.51,8.46-5.78,12.5a34,34,0,0,0-4.7,13.34c-.39,3.31-3.65,6.92-5.15,10.69-.72,1.82-3,2.55-3.16,5.23-.24,4.11,2.18,9-1.44,12.24-3.27,2.95-2.75,6.28-2.72,9.75,0,2.6-1.4,3.47-3.72,4.1-5.18,1.4-9.26,6.36-15.55,4.34a6.28,6.28,0,0,0-7.42,2.81,4.22,4.22,0,0,1-5.72,1.17c-3.43-2.57-6.08-6.13-9.36-8.93-2.11-1.81-1.29-3.89-1.48-5.92-.56-6.1,2.26-13-4.33-17.66,0-3.6-1.42-8.15.25-10.64,7-10.51,3-22,4-33,.4-4.13-.7-8.28,3.4-11.73,1.52-1.28.91-5.31.93-8.09.09-9.36-.18-18.74.12-28.09.18-5.41-1.87-11.12,3.47-16,1.85-1.69.71-6.77.75-10.3.08-6.49-.06-13,0-19.46.08-4.83-1.39-10.2,4.05-13.44.08-4.28.56-8.62.08-12.85-.24-2.13-2.85-3-5.07-2.44-1.23.31-3.2,1.32-3.26,2.13-.33,4.29.88,9-.51,12.82-1.09,3-5,5-3.94,9.15,1.1,4.29-3.53,5.88-4.19,9-.71,3.46.46,7.31-.32,10.74-.87,3.84-4.77,6.43-5.11,10.87-.14,1.76-1.69,1.43-3-.29-1.08-1.46-2.89-3.72-4.39-.64-.81,1.67-1.12,4.19,1,5.77a3.88,3.88,0,0,0,1.8.82c4.1.33,7.16.21,2.58,5.49-3.38,3.9.2,11.33-5.73,14.82,2.34,7-4.19,11.27-5.46,17.25-.48,2.25-3.86,4-3.17,7.27,1.53,7.23-1.94,12.28-7.27,16.42-1.63,1.27-1.52,1.82.2,3.15,3.25,2.52,4.15,5.53.86,8.87-.95,1-2.5,2.37-2.32,3.27,2.45,12.12-7,20.26-10,30.52-.53,1.82-3.78,2.57-3,5.19,1.93,6.78-6.07,10.86-4.46,17.7,1.52,6.4-1.49,12-4.1,17.69-1.66,3.6-4.8,6.24-4.81,11.13a19.79,19.79,0,0,1-5.17,12.68c-3.21,3.27-2.05,8.08-5.78,10.79-3.52,2.56-1.4,6.69-1.52,10.06a11.69,11.69,0,0,1-3,7.53c-2.54,3.17-2,6.78.26,7.15a10.25,10.25,0,0,0,5.79-.62c9.32-4.56,10.42-4.62,16.32,1.26,5.07,5.07,12,9.45,14.51,15.6s.55,14.18.55,21.39c0,7.92.07,15.85,0,23.77-.05,3.62.18,6.68,3.11,9.65,1.54,1.57.24,5.58,1.37,7.95,3,6.36-10.95,11.93-.64,18.31.17,6.41,1.45,13,.22,19.18-1.42,7.14,6.06,10.8,4.85,17.76-1.1,6.29-.32,12.93-.11,19.41,0,.65,1.69,1.38,2.72,1.78.27.1,1.44-1,1.41-1.44-.42-6.38,7.14-10.62,4.46-17.69-2-5.32,6.13-7.4,4.49-13.38-1.07-3.91.12-8.43.3-12.68,8.25-4.76-.68-15.87,7.61-20.67.4-.23.38-1.25.49-1.91,1-6.1-2.21-12.69,2.54-18.42,4.12-5,1.29-11,1.62-16.54.27-4.45.41-8.37,4.4-11.3.67-.5.59-3.65,0-4-5.83-3.41-2.2-6.4.09-9.58.34-.48,0-1.41,0-2.13,0-6.49-.51-13,.15-19.44.63-6,5.22-10.84,4.46-17.71-.71-6.32,5.65-10.1,10-12.69s10.64-1.39,15-5.43c.54-.5,2.9.14,3.75,1,6.23,6,12.29,12.16,18.52,18.39,0,6.35.14,12.82-.05,19.28-.13,4.44,5.61,6,4.58,11.22-1,4.85-.21,10.05-.21,15.09,0,4.32.49,8.72-.15,12.94-.53,3.5,8.16,5.86,1,9.77.78,3.73,4.43,6.21,3.64,10.85-.83,4.91-.18,10.06-.18,15.1v25.94c0,4.32.39,8.69-.1,13-.69,6.1,5.19,9.49,5.67,15,0,.19,1.08.55,1.43.37.62-.3,1.48-.94,1.49-1.47.15-4.31.13-8.62.15-12.93,5.12-3.25,4.5-8.34,4.35-13.34-.13-4.32.4-8.7-.13-13-.74-5.94,6.74-8.77,4.77-15.61-1.2-4.16-2.36-10,3.08-13.69.81-.54.67-2.54.89-3.87.93-5.43-2.1-11.54,2.29-16.32,4.08-4.44-.32-10.77,2.35-14.06,5.21-6.41,3.14-13.31,4.14-20.06,1.2-8.08-4.11-17.33,4.16-24.18,0-7.92.08-15.84,0-23.76,0-4.37,6-6.18,4.56-11.08,4.45-5.64,11-8.71,17.31-10.27,9.95-2.46,14.15.41,21.1,12.81a28.73,28.73,0,0,0,4.95,6.5c2.65,2.65,4.12,5.2,4.08,9.21-.22,22.33-.14,44.67,0,67,0,1.16,1.28,2.32,2,3.48a15.47,15.47,0,0,0,2.22-3.18c2.1-5.71,6.44-11.15,4.26-17.61-2.82-8.4,4.92-14.23,4.52-22s-.11-15.85,0-23.77a2.41,2.41,0,0,1,1.27-1.59c5.79-3,.37-10.11,4.66-13.13,3.45-2.41,1.56-6.69,4.45-9.1,2.68-2.23,4.52-5.28,8.93-4.71a70.89,70.89,0,0,0,12.95.06c4.16-.24,7.08.45,6.64,5.55a2.92,2.92,0,0,0,.79,1.8c4,4.86,10.68,7.89,11.91,14.48,1.05,5.56-.76,11.71.5,17.18,1.19,5.17,5.08,9.42,4.24,15.59-.87,6.37-.2,13-.2,19.43,0,5.76.37,11.56-.09,17.28-.57,7.16,6.07,12.14,4.71,19.88s-.29,15.8-.29,23.73v21.61c0,7.21.17,14.42-.07,21.61a11.88,11.88,0,0,0,3.58,9.44c2.1,2.21,1,5.31-1.6,7.21-2,1.51-2.84,4.53-1.76,5.55,5.43,5.18,4.05,11.63,4.15,17.82.09,5.77-.21,11.54.08,17.29.31,6.11-2.46,13.07,4.26,17.67,0,5.74,0,11.49.19,17.24,0,.52,1.24,1.54,1.41,1.44,1-.55,2.46-1.26,2.62-2.12,1-5.33-2.44-11.61,3.54-15.85.3-5.64,0-11.39,1.08-16.89.72-3.81,5.19-6.29,4.25-11.23-.79-4.2-.55-8.51,3.76-11.43.73-.5.19-2.69.47-4,1.1-5.36-2.09-11.13,2.55-16.28,4.26-4.73.69-11,1.78-16.51.25-1.28.56-2.93,1.45-3.66,4-3.22,4.31-8.44,6.69-12.49,2.21-3.75.08-9.85.6-14.84.41-4,5.27-6.22,4.34-11.22-.76-4.09-.4-8,3.4-11.6,2.84-2.64-1.28-8.5,3.24-11.51.59-.39,1.41-.95,1.48-1.52.61-4.82-.52-10.84,2-14.2,3.57-4.82,2.09-9.42,2.74-14.13s-1.39-9.57,2.82-14c3.57-3.8.69-9.55,1.7-14.33,7.4-3.9,1.29-14.1,8.44-18.12.35-10.36,11.23-8.76,16-14.1,6.22.19,12.87-1.56,17.39,5.13,2,2.94,6.09,4.73,7.31,7.81,2.21,5.56,6.9,9.91,7,16.61.12,6.13-2.09,12.5,2.24,18.49,4,5.53,1.5,12.38,1.82,18.63.34,6.47-.05,13,.12,19.45.13,4.81,5.7,7.53,4.52,13.39-1.11,5.54-.24,11.48-.24,17.24,0,5,0,10.08.09,15.12,0,.52.88,1.16,1.49,1.48a1.61,1.61,0,0,0,1.47-.29c1.92-2.06,5.69-4.74,5.28-6.22-2.51-9,6.2-15.94,4.4-24.18-1.31-6,5.42-8,4.68-13.41-.58-4.24-.12-8.63-.12-13,6.79-6.28,4.87-14.69,3.93-21.94-.79-6,6.62-7.43,5-13.46-1-3.64-1.82-8.48,2.73-11.77,1.21-.88.95-3.82,1.32-5.82.61-3.35-1.44-7.12,1.84-10.06,3.62-3.26,2.78-9.39,7.63-12a9.17,9.17,0,0,0,3-3c5.8-8.79,14.79-6.92,23.11-6.7,1.67,0,3.13,2.64,4.94,3.57,6.24,3.19,5.86,10.87,10.6,15.16,2.76,2.5,4.1,2.91,4.83-1.13,1.42-7.86,8.87-7.7,13.27-11.51s9.59-1.43,14.36-1.72c1.51-.09,3.79,2.2,4.66,3.94,2.48,4.94,4.48,10.13,9.29,13.42,2.14,1.46,1.85,3.63,1.85,5.72,0,4.92-1,10,4.17,13.51.67.45.72,3.56.06,4-5,3.49-4.28,8.49-4.26,13.48q.11,31.34,0,62.68c0,3.59-.4,7.18,3.25,9.49.38.24.76,1.28.6,1.45-7,7.71-2.91,14.64,0,22.76,2.31,6.36.07,14.27.58,21.43.47,6.76-2.66,14.14,3.71,20.17,1.47,1.39.47,5.47.48,8.31,0,11.53.26,23.06-.11,34.58-.14,4.17,1.6,6.72,4.45,9a6.89,6.89,0,0,0,3,1.26c.32.06,1.2-1,1.23-1.53.25-6.2-1.37-12.82,4.37-17.66v-21.61c0-6.49-.22-13,.08-19.45.21-4.73-1.92-10,3.34-13.84,1.15-.83.85-3.93.87-6,.09-7.2-.2-14.42.12-21.61.24-5.41-2.35-11.62,3.69-15.76.42-.29.5-1.25.53-1.9q.55-12.76,1-25.52c6.89-6.61,1.73-15,3.26-22.41,1.14-5.5-2.41-12,1.55-16.57s2.48-9.33,2.75-14.06a158.11,158.11,0,0,0,0-17.28c-.14-2.77,2.3-3.45,3.08-5.25,1.6-3.72,4.23-7.21,5.29-10.74,1.6-5.38,3.88-9.24,9.26-9.78s11.33-1.43,15.43,4.5c2.42,3.5,5.81,6.42,9.1,9.2,4.09,3.45,5.76,7.35,5.63,12.89-.39,16.56,0,33.14-.2,49.71-.09,7.53,2.09,15.5-4.11,22.13-1.08,1.15-1.08,5.08,0,6.19,6.38,6.6,3.46,14.65,4.28,22.12.09.86,1.59,1.62,2.57,2.24.13.09,1.39-.92,1.41-1.45.16-5,0-10,.28-15,.24-4.78,5.65-7.56,4.51-13.39-1.09-5.55-.24-11.48-.24-17.24,0-5.05.86-10.28-.21-15.08-1.31-5.85,6.42-7.4,4.79-13.46a32.53,32.53,0,0,1,0-15c1-4.41,4.07-8.35,6.22-12.5,5,1.91,6.66-4.73,11.18-4.4,4.1.31,9.13-1.19,8.44,6-.08.8,1.81,2.61,2.72,2.56,4.83-.25,6.38,2,5.78,6.44,8.94,6,8.9,15,8.79,24.52-.37,31-.56,62,.09,92.93.22,10.2-4.23,21.4,4.09,30.64,0,10.08-.06,20.17,0,30.25,0,4.24.35,8.47.69,12.7a2,2,0,0,0,1.45,1.39c.54,0,1-.89,1.53-1.42,2.34-2.54,5.46-4.36,5-8.77-.46-5-.1-10.08-.1-15.12,0-5.77.74-11.66-.21-17.26s4.14-8.77,4.38-13.38c.49-9.34,1.39-19-.24-28-1.32-7.38,5.37-11.21,4.82-17.74-.47-5.7,0-11.47.06-17.21,6.23-3.9,4.61-10.3,3.9-15.54-.93-6.86,6.67-10.53,4.85-17.76-1.37-5.42-.27-11.46-.27-17.23,6.47-6.34,3.89-14.45,4.32-22,7.56-7.76,3.89-17.49,4.05-26.31.11-5.91,6.84-9.36,4.57-15.49-2.1-5.68,4-8.56,4.34-13.35.31-4.15,3.82-6.81,6.47-7.83,3.76-1.45,8.46-.51,12.76-.46a2.22,2.22,0,0,1,1.55,1.32c1,3.25,1.44,6.61,4.57,9,2.84,2.15,5.06,5.11,7.73,7.53s.5,7.07,4.51,9c2.28,1.11,2,4.75.94,5.57-4.08,3.11-3.67,7.16-4.05,11.45-.85,9.56,3.38,19.77-4,28.65-1.41,1.71-.2,5.6-.2,8.48,0,18.73.14,37.46-.09,56.19-.06,5.4,2.07,11.3-3.54,16-1.48,1.23-.66,5.39-.67,8.2-.06,10.81-.11,21.62,0,32.42,0,4.37.08,8.35-4,11.46-1.06.81-1.18,4.1.93,5.65,2.58,1.88,2.9,4.36,3.16,7.4.53,5.9-6.18,9.11-4.7,15.56,1.09,4.73,0,10,0,15-6.41,3.37-1,6.38.29,9.5.75,1.85,1.5,3.71,2.37,5.5.3.62,1.21,1,1.46,1.56a5.64,5.64,0,0,1-2.13,7.34c-2.21,1.54-2.51,4.77-1.56,5.64,7.89,7.13,3.27,16.22,3.93,24.33.36,4.47-5.27,7.64-4.29,13.35s.21,11.49.21,17.26c0,5-.38,10.12.11,15.11.54,5.45-4,7.2-6.67,10.21-.64.72-3.5.74-4.06,0-3.52-4.35-9.72-6.57-10.91-12.68-.9-4.67-5.77-7.54-4.64-13.37,1.08-5.55.29-11.48.22-17.24,0-4.23-5.46-6.06-4.5-11.21.91-4.88.19-10,.19-15.1,0-4.32.14-8.65-.08-13-.07-1.21-.93-3.06-1.87-3.39a5.42,5.42,0,0,0-5.84.8c-5.58,4.86-6.4,6.46-2.61,11.92,2.62,3.79,1.75,5.94-.81,9.1-2.68,3.31-2.84,4.44-.18,7.14,2.83,2.88,1.85,4-.36,6.35-3.31,3.57,1.14,9.84-4.5,13.43-1.69,1.07,1.26,2.92,3.34,2.69,2.73-.29,3.75,1.25,4.27,3.52,1.55,6.82-4.63,11.13-5.69,17.14-.09.53-2.48,1-3.75.92-3.78-.31-6.9.45-9.42,3.61a4.11,4.11,0,0,1-3.87.67c-4.72-2.59-10.86-4.53-13.42-8.62-3-4.84-7.67-9.69-7.13-16.44.28-3.58.58-7.31-.13-10.76-.52-2.48-2.94-4.5-4.1-6.92-4.15-8.62-4.42-8.66-4.2-19.8.09-4.34-2.35-6.32-4.68-9s-3.57-.88-4,1-.61,3.84-2,5.7c-2.2,2.89-1.94,3.52,2.11,4.26,4.21.78,4.08,1.71,1.69,4.91-3,4-2.69,4.85-.59,7.27a31,31,0,0,0,4.6,4.57c4.35,3.25,2.44,7.66,2.46,11.74-5.47,3.24-3.7,8.64-4.07,13.45-.42,5.71-3.91,8.85-11,10-2,.33-4.27-.51-5.81,1.72-1.81,2.62-4.44,3.48-7.32,2.14-2.42-1.12-1.33-3.73-1.87-5.67-.34-1.22-2.24-2-2.67-3.2-1.78-5.15-12.74-1.35-10.19-10.54,1.5-5.4-6.59-7.53-4.4-13.37,1.76-4.67-5.09-6.31-4.37-11.17.62-4.23-.51-8.75.28-12.92,1.17-6.17-6.12-9.18-4.69-15.58,1.08-4.8,1.45-10.49-.17-14.94-1.35-3.72-4.8-6.65-4-11.32.36-2.06-.11-4.17-2.82-3.64-.69.13-1.39,2.33-1.38,3.56,0,2.68-1.31,3.91-3.66,4.14-2.14.2-4.38-.25-6.46.16a4.24,4.24,0,0,0-2.8,2.59c-.45,2-.42,5.39,1.77,5.45,5.68.15,7.38,2.56,6.82,7.87-.38,3.56.13,7.21-.15,10.79-.17,2.27-1.52,3.43-4.23,3.53-12.16.45-13,.83-13,3.33-.17,5.2,4.65,6.75,7.06,10.06a21.38,21.38,0,0,0,2,2c-3.12,2.91-6,6.27-9.45,8.62-4,2.66-3.16,7.48-5.94,10.64-2,2.27,1.7,8.14,4.8,7.79.66-.07,1.11-2.26,1.62-3.49s.82-3.44,1.49-3.55c2.68-.44,2.91,1.62,2.85,3.72-.11,3.57-.14,7.15-.2,10.72-5.52,3-3.47,8.67-4.73,13.2-.23.84-2.22,1.51-3.48,1.67-2.13.27-5.42-.82-6.27.24-2.89,3.58-7.58,3.28-10.65,5.85-2.72,2.29-4.45,3.45-4.92-1.28a9.91,9.91,0,0,0-7.78-8.84c-7.91-1.85-10-6.63-9.6-13.89a99.19,99.19,0,0,0-.43-10.6c-7-4.42-1.75-12.12-4.72-17.48a13.07,13.07,0,0,0-6.1-5.13c-.75-.31-3.07,2.66-4.41,4.34-.79,1-1.06,2.41-1.57,4.64.67-1,0-1.73-2-1a2.69,2.69,0,0,0-1.43,1.3,8,8,0,0,0-.79,3.65c.15,1.15,1.09,2.2,1.69,3.29.85-.74,2.1-1.34,2.43-2.27.42-1.19.1-2.65.1-5,2.74-1.49,4.19.18,4.25,2.42.2,7.92-.27,15.87.16,23.77.55,10.16-1.7,14.13-10.2,16-3,.66-19.93-3.56-22.76-4.06-3-.54-5.33-1.28-7.23-3.59-.91-1.11-2.94-2.1-2.89-3.07.35-7.71-2.11-15.73,1.38-23.06,1.24-2.6,4.19-4.44-1-5-2.31-.26-4.6-.73-4.83-2.89-.46-4.27-.14-8.63-.14-13s.08-8.65,0-13c-.09-4.13.26-7.89-3.09-11.83-2.2-2.58.63-9.33-1.52-12.07-5.53-7-3.46-14.7-4-22.21-.75-9.59,2.73-19.83-4.3-28.46,0-6.49.09-13-.11-19.45,0-.72-1.64-1.5-2.65-2-.2-.11-1.42.93-1.41,1.43.09,5,.48,10-4.47,13.31,0,5,.51,10.15-.15,15.1-.62,4.58-5.48,7.76-4.34,13.39.84,4.15.16,8.61.16,12.93,0,5-1,10.34.24,15.07,1.68,6.54-3.84,10.2-4.51,15.56-.27,2.13.05,4.32-.07,6.47-.27,5.06-.31,5.07-6.53,5.51-1.43.1-2.89-.1-4.29.13-.58.09-1.55,1.19-1.45,1.42.46,1,1,2.3,1.95,2.71,4.63,2.11,8.37,7.45,5.76,10.17-4.7,4.89-3.7,10.24-4.12,15.74-.36,4.72,1.66,9.74-2.81,14-3.43,3.28-.59,8.22-1.5,12.28-1.18,5.26-5.58,8.69-9.5,10.93-4.46,2.54-8.71,6.77-14.71,6.14-2.07-.21-3.94-.1-5.79-1.79-3-2.74-5-6.22-10-7.24s-4.51-2.24-3.23-11.5c.29-2.12,1-5.21-.11-6.33-5.73-5.92-4.85-13.21-3.94-19.93,1-7.51-6.46-12-4.88-19.92,1.52-7.62.33-15.78.33-23.7,0-7.2.77-14.52-.26-21.57-.75-5.18-5.38-9.28-4.27-15.57,1-5.59.2-11.49.2-17.25V969.31c0-5.76,0-11.53,0-17.29,0-3.86-.46-4.45-4.4-1.8-2.76,1.85-5.28,1.78-8,1.67-4.4-.18-5.73,3.73-8.36,5.87-.18.15.73,2.51,1.46,2.72,1.93.56,5.34-.7,5.58,1.77.72,7.08.57,14.24.68,21.37a2.19,2.19,0,0,1-1,1.7c-3.85,1.84-2,6.87-4.65,8.83-4.52,3.36-2.64,7.78-2.93,11.82-.25,3.59-.14,7.2,0,10.8.13,4.37-5.65,6-4.58,11.23.64,3.08,2,7.37-1.57,10-4.38,3.22-.61,8.71-3.18,11.61a33.39,33.39,0,0,0-7.72,16.27,60.22,60.22,0,0,0-.08,19.37c1.28,8.92-2.08,15.13-8.78,20.27-.35.27-.05,1.39-.05,3.07,0,.32.25-.57-.07-.89a1.89,1.89,0,0,0-1.82,0c-1.42,1-3.2,2.24-.6,3.76.35.2,1.64-1.21,2.49-2.84,4.28-1.3,5.22,2.13,4.1,4.52-1.72,3.68-4.91,6.49-4.23,11.29.37,2.61.29,6.37-1.27,7.88s-5.25.79-7.95,1.35c-1.24.27-2.33,1.29-3.49,2,1,.76,2,2.09,3.12,2.17,2.22.16,4.75.33,5.24,2.5a22.64,22.64,0,0,1-.12,8.52c-.14.85-2.15,1.93-3.32,2-3.44.08-5.23,1.32-5.07,5,.12,2.87.09,5.76,0,8.64-.07,2.47-1.59,3.16-3.89,3.93a88.35,88.35,0,0,0-12.72,5.74c-9.42,4.89-12.65,3.94-17.93-5.72-.63-1.16-.89-3.53-1.43-3.57-6.44-.39-8-4-7.33-9.75.46-4.27-.69-8.82.27-12.91,1.49-6.33-5.09-9.55-4.73-15.55.32-5.3,2.7-11.52-3.12-15.94-.83-.63-.82-2.52-.95-3.86-.78-8.16,2.15-16.72-4.08-24.34-1.76-2.16.06-7-.34-10.58-.68-6,2.62-13-3.85-17.82-.13-7.87-.18-15.73-.44-23.59-.09-2.74.11-7.25-1.22-7.86-4.39-2-.78-9.46-5.92-8.9-2.77.3-.58,6.76-4.59,8.58-1.48.67-.92,1.75.65,3,3.31,2.71,3.61,5.78.33,8.86-.52.49-1.39,1-1.47,1.53-.61,4.82-1.07,9.66-1.58,14.49-5.56,3.44-3,9-3.35,13.69-.17,2.38-.8,4.07-3,4.84-1.27.45-3.3-.15-4,.62a26.48,26.48,0,0,1-14.09,7.61c-6.06,1.23-8.89-6.07-12.82-9.85-3.13-3-6.34-2.42-9.79-2.69-4.61-.35-4.08-2.31-1.31-4.8.54-.48,1-1,1.53-1.52-8.15-6.85-2.42-16.12-4.22-24.07-1-4.56-5.66-7.71-4.47-13.37a33.88,33.88,0,0,0,0-12.89c-.46-2.42-3.07-4.44-4.75-6.62-.43-.56-1-1.41-1.52-1.42a2.05,2.05,0,0,0-1.46,1.41c-.33,4.22,1.14,9.8-1,12.42-5.27,6.38-4.45,13.34-3.74,20,.58,5.65-3.88,8.78-4.45,13.38-.61,5-.14,10.06-.14,15.1-7.35,2.78-2,10.67-6,14.81a8.85,8.85,0,0,0-2.82,5.35c-.7,5.5,2.71,11.73-1.84,16.43-4.31,4.45-1.41,9.52-2.35,14.2-.46,2.26-1.71,3.14-4.24,3.65-3.17.63-5.92,3.18-9.08,4-4,1-6.09,5.7-11.17,4.58-5.43-1.21-9.84-4.41-14.38-7-6.41-3.63-10.09-9.61-8.78-17.84.65-4.09.33-8-3.28-11.7-1.86-1.9-.53-6.76-1-10.24-.79-6.15,2.24-12.8-2.36-18.46-4.13-5.08-1.45-11-1.72-16.49-.23-4.52-5.79-6.06-4.7-11.2a37.45,37.45,0,0,0,0-12.89c-.25-1.73-2.87-3-4.2-4.7-1.92-2.42-3.77-1.44-4.12.67-1,6-6.67,10.77-4.51,17.65,1,3.21-1.49,5.21-3.62,7.09-3.19,2.83-6.82,5.58-.77,9.17a22.71,22.71,0,0,0-2.74,3.09,9.71,9.71,0,0,0-1.41,3.71c-.55,4.41,9.11,6.88,2.38,12.54-4.75,4-.84,9.71-2.62,14s-5.37,8.09-4.13,13.41c-5.08,4.14-4.48,9.9-4.29,15.49.12,3.64-1.63,5.16-5.07,4.84-3.74-.35-6.51.78-9.43,3.46-8.05,7.38-11.28,6.95-19.29-.33-3-2.74-4.76-7.39-9.85-7.43-2.55,0-3.88-1.33-3.92-3.8-.07-4.32-.21-8.66.05-13,.15-2.53-1.2-4-2.76-5.36-4-3.59,1.17-10.3-4.57-13.23-1.56-.79-2.2-4.29-4.43-2.35-1.11,1-.75,3.72-.8,5.68,0,.49.94,1,1.44,1.52,3.11,3.13,2,4.69-1.95,4.5-3.64-.18-4.46,3.17-6.72,4.68a11.55,11.55,0,0,0-1.54,1.51c.85.84,1.61,2.23,2.59,2.4,2.09.37,4.33-.12,6.44.21,1.24.19,2.33,1.28,3.48,2-.44.51-.86,1-1.33,1.52-2,2-4,4.11-6.12,6.1-1.13,1.09-.83,1.94.84,3.09,3.66,2.52,3.64,7.85,2.1,9.53-5,5.52-3.83,11.73-4,17.92-7,7-3.81,16-4.22,24.13-.21,4.36-3.91,5.63-5.86,8.41-7.88-1.1-13.68,6.36-21.69,5.15-2.79-.42-5.4-.16-7.62-2.62-3.85-4.28-8.08-8.2-12.49-12.61,0-6.1.17-12.54-.05-19-.19-5.45,2-11.64-4.18-15.53,0-4.3.11-8.63-.24-12.91-.07-.85-2-1.92-3.16-2.22-2.18-.54-5.52.69-5.1,2.24,2.22,8.28-7.36,13.77-4.65,22.07,1.38,4.21-2.15,7.23-5,8.46a43.78,43.78,0,0,0-13.58,9.2c-.62.6-4-2.42-5.89-2.16-6.31.86-6.25,1.13-7.67-.78-.42-.57-1.42-1-1.45-1.54-.35-6.4-5.27-9.69-9.29-13.41-3.38-3.13-4.32-6.5-4.94-11.06-.71-5.14-5.89-9.49-3.93-15.54,1.8-5.56-6.18-7.38-4.57-13.39,1.43-5.38-7.11-9-4.1-15.43-2.25-3.35-4.47-6.66-5.4-10.75-.34-1.53-2.69-1.22-2.78.64a10.61,10.61,0,0,1-4.77,8.85c-4.16,2.8-5,6.71-4.32,11.19.94,6.77-2.5,10.45-8.41,12.72-3.1,1.2-5.92,3.69-9,4.07-4.17.52-6.49,7.75-10.83,4-4.7-4.07-13.37-3.85-14.56-10.65-.9-5.07-4.42-6.94-6.68-10.3-1.09-1.63-2.38-3.71-2.23-5.48.5-5.84-1.41-10.57-4.2-15.64-2.19-4,2-9.8-2.73-14-3.79-3.38-1.67-8.11-1.7-12.16,0-4.52-5.68-6-4.72-11.21.7-3.8,2-8.73-2.76-11.69a2.92,2.92,0,0,1-1.28-1.61c-1.41-6.69,3.38-14.39-3.31-20.23-.35-7.06-.91-14.11-1-21.17a31.53,31.53,0,0,0-3.93-15.73c-2.44-4.47.8-12.06-1.68-16.46-2.29-4.07-2.7-7.61-3.17-11.74-.69-6,2.72-13.06-4-17.78-.1-5.72,1.55-12.33-.79-16.91s-4.4-8.49-3.84-13.58c-8.35-6.8-2.75-16.11-4.24-24.14-.63-3.39,3.19-4.37,4.69-6.66,3.55-5.43,8.59-7.07,14.79-6,1.4.22,3.43-.53,4.2.19,5.76,5.43,11.07,11.35,17,16.61,3.34,3,1.64,8.4,6,10.58a2.08,2.08,0,0,1,.78,1.77c-2,10,6.26,18.34,4.54,28.49-.78,4.64-1,9.54,3.57,13.73,1.83,1.66.17,6.85.65,10.36.84,6.11-2,12.38,2.48,18.45,3.92,5.37,1.19,12.39,1.77,18.65,6.09,3.86,4.12,10,4.31,15.49.13,3.57-1,7.78.52,10.54,1.64,3,4.17,5.35,4.34,9.08,0,.53,1,1,1.46,1.53.78-1,2.19-2,2.24-3,.23-5,.1-10.07.1-15.11,7.76-8.53,3.62-18.9,4.19-28.46.6-10,1.22-20.31-.25-30.18-1-6.56-4.59-12.55-4.26-19.88.25-5.26,3.15-7.72,6.19-10.44,1.34-1.19,4.81-.5,5.58-1.74,5-8,12.58-8.19,20.69-7.83,3.88.18,6.91.14,7,5.38,0,1.66,2.17,3.42,3.57,4.91,3,3.14,7.27,5.64,8.81,9.33s.77,8.52.3,12.78c-.65,5.9,5.83,9.26,4.62,15.54-.93,4.83-.08,10,0,15,7.4,6.21,3.2,14.62,4.09,22.05.49,4.09.23,7.75,3.09,11.82,2.41,3.43,1.68,9.62,1.13,14.44-.91,8,6,13.82,5.57,21.62,0,.33,2.41,1.21,3.63,1.11s3.38-1,3.43-1.71c.38-5.7,1.09-11.52.3-17.1-.87-6.16,3.15-10.42,4.21-15.58a44.92,44.92,0,0,0,0-19.31c-2-7.92,6-12.4,4.83-19.91-1-6.32-.21-12.93-.21-19.41,0-5.76,1.17-11.84-.27-17.21-2.13-7.9,6.67-12.51,4.59-19.88,3.29-5.4,7.23-9.82,13.29-12.56,7.68-3.48,9.79-4.45,15.55-4.23,2.15.09,4.17.09,5.66,2.05.86,1.14,2.59,1.9,2.92,3.11,1.55,5.61,5.24,9.56,9.13,13.59,1.16,1.2,1,3.94,1,6,.06,18,0,36,.11,54,0,2.24,1.52,3.91,4.25,5.4,0,4.19-.25,6.29.11,8.27.17.91,1.53,1.64,2.46,2.3.09.06,1.29-.86,1.34-1.38a46.22,46.22,0,0,0,.3-8c-.09-1.09-1.28-2.83-2.18-3C272,951.42,275.08,954.86,274.06,953.93Zm547.6,127.72c1.11-.06,2.68.26,3.72-.33a4.06,4.06,0,0,0,1.88-3.15c-.26-1.79-1-4-2.25-5-1.58-1.26-1.67.12-2.14,1.86-.82,3-4.44,1.94-6.77,2.86-.58.24-1,.93-1.46,1.42.9.79,1.68,1.94,2.73,2.27,1.23.4,2.7.1,5.71-14.06,1.47-3.69-1-6.88-4.46-9.9-1.44-1.24-2.12-2-3.1-.79-.43.51-1,1.14-1,1.69.11,4.11-1.27,8.67,3.38,11.51,1.72,1,2.58,3.9,5.14,2.83C823.51,1072.61,823.08,1070.13,821.66,1081.65Zm-165.15-735c.49-.4,1-.79,1.47-1.21,5.1-4.59,7-10.94,9.33-17.06.27-.71-1.2-2.91-2.08-3-1.87-.29-5.3-1.07-5.46,1.26-.41,6.11-3.12,11.28-5.24,16.73-.19.48.2,1.3.53,1.83A8.54,8.54,0,0,0,656.51,346.61Zm369.8,704.29c.34-1.64-1.52-3.65-3.4-3.89-3.24-.41-4.83,1.82-6.77,3.66-3,2.83-3.12,2.89.16,5.81,1.24,1.1,2.34,4.14,4.21,2.54C1022.91,1057,1026.46,1055.3,1026.31,1050.9ZM252.44,713.09a15.8,15.8,0,0,0-.08-4.19c-.33-1.22-1.36-2.24-2.08-3.35-.72,1.11-1.86,2.14-2.06,3.34a19,19,0,0,0,0,6.29c.2,1.2,1.34,2.23,2.06,3.34a31.81,31.81,0,0,0,2.12-3.34A5.39,5.39,0,0,0,252.44,713.09Zm779.44,246.66c1.48.35,1.75.15,5.88-4.16.48-.5,1-1,1.46-1.47-1.08-.72-2.11-1.94-3.26-2.07-4.48-.5-6.54,2-5.35,6.16C1030.78,958.79,1031.45,959.24,1031.88,959.75Zm-296.27,96c4.49.23,6.64-2.22,5.23-6.28-.27-.79-2.28-1.85-2.63-1.59a38.53,38.53,0,0,0-4.49,4.28c-.47.48-.92,1-1.39,1.47C733.42,1054.3,734.51,1055,735.61,1055.71Zm156.75,6.6c-.65-.64-1.1-1.51-1.63-1.56-1.88-.16-4-.53-5.62.09-2.51,1-1.51,3.59-1.37,5.5,0,.62,2.28,1.82,2.58,1.57A81.72,81.72,0,0,0,892.36,1062.31ZM730.82,1106.9c2.16-1.27,2.25-5.53.08-7.14a1.62,1.62,0,0,0-1.44-.1c-2.2,1.2-2.26,5.5-.1,7.11C729.7,1107,730.33,1106.87,730.82,1106.9Zm-275.88-23.78c-1.27-2.16-5.53-2.25-7.14-.08a1.62,1.62,0,0,0-.1,1.44c1.2,2.2,5.49,2.26,7.1.1C455.05,1084.24,454.9,1083.62,454.94,1083.12Zm289.64-43.23c-1.27-2.16-5.53-2.25-7.14-.08a1.66,1.66,0,0,0-.11,1.44c1.21,2.2,5.5,2.26,7.11.1C744.69,1041,744.54,1040.39,744.58,1039.89Zm152-23c.19-2.15-.37-4.27-2.8-3.62s-2.29,5.4-.12,7c.33.24,1.3.28,1.39.1C895.64,1019.28,896.08,1018.07,896.56,1016.92ZM274.18,969.26c-2.15-.19-4.27.37-3.62,2.8s5.39,2.29,7,.12c.25-.33.28-1.3.11-1.4C276.54,970.18,275.32,969.74,274.18,969.26Zm384.74-26a35.45,35.45,0,0,0,3.49-1.52c.18-.09.14-1.06-.1-1.4-1.61-2.16-6.38-2.21-7,.12S656.77,943.49,658.92,943.3Zm263.93-26.46c-1.06-1.6-1.79-2.69-2.51-3.79-.72,1.1-2.12,2.26-2,3.27.2,1.84,1.29,3.59,2,5.38ZM246.65,743.77c2.16-1.26,2.25-5.53.08-7.14a1.62,1.62,0,0,0-1.44-.1c-2.2,1.2-2.27,5.5-.1,7.11C245.53,743.89,246.15,743.74,246.65,743.77ZM416,564.37c-1.27-2.17-5.53-2.25-7.14-.08a1.6,1.6,0,0,0-.1,1.43c1.2,2.21,5.5,2.27,7.11.1C416.15,565.49,416,564.86,416,564.37Zm167.74,538.27,1.54-1.54a13.58,13.58,0,0,0-2.9-1.35c-.35-.08-.94.87-1.42,1.35Zm.92-15.13-1.54-1.54a13.81,13.81,0,0,0-1.35,2.9c-.08.36.87.94,1.35,1.42Zm-351.07,2.16,1.53-1.54a13.58,13.58,0,0,0-2.9-1.35c-.35-.08-.94.87-1.42,1.35Zm727.17-31.18-1.54-2.78c-.48.48-1.43,1.07-1.35,1.42a13.11,13.11,0,0,0,1.35,2.9ZM870,1057.25l-1.53-1.54a13.86,13.86,0,0,0-1.36,2.9c-.07.36.88.94,1.36,1.42C869,1059.09,869.5,1058.15,870,1057.25Zm33-31.8c-.48.48-1.43,1.07-1.35,1.42a13.11,13.11,0,0,0,1.35,2.9c.48-.48,1.43-1.06,1.35-1.42A13.11,13.11,0,0,0,903.05,1025.45Zm27.48-7.11L929,1016.8a13.18,13.18,0,0,0-1.35,2.91c-.08.35.87.94,1.35,1.42ZM292,815.16l1.53,2.79c.48-.48,1.44-1.07,1.36-1.42a13.93,13.93,0,0,0-1.36-2.91ZM313.59,746l1.54,2.78c.48-.48,1.43-1.06,1.35-1.42a13.58,13.58,0,0,0-1.35-2.9ZM183.28,686.1c-.48-.48-1.07-1.43-1.42-1.35A13.4,13.4,0,0,0,179,686.1c.48.48,1.07,1.43,1.43,1.35A13.81,13.81,0,0,0,183.28,686.1Zm210.28-28.72,1.54-1.54a13.11,13.11,0,0,0-2.9-1.35c-.36-.08-.94.87-1.42,1.35C391.72,656.36,392.66,656.87,393.56,657.38Zm-12.05-88.62L380,567.22a13.58,13.58,0,0,0-1.35,2.9c-.08.35.87.94,1.35,1.42Zm337.81-449c-.48-.48-1.06-1.43-1.42-1.35a13.81,13.81,0,0,0-2.9,1.35c.48.48,1.07,1.43,1.42,1.35A13.11,13.11,0,0,0,719.32,119.79Z"/><path d="M1009.73,735.81c-6.53,4.32-8,4.32-10.38,4.32h1c0-.64.25-1.46-.05-1.89-1-1.42-2.24-3.2-3.76-.6-.2.35,1.21,1.64,2.84,2.5-.74,6.13-4.7,9.54-11.11,8.53-5.36-.84-8.78,2.8-13.12,4.23-3.8,1.25-9.27-.78-12.11,1.27-7.14,5.16-14.39,3.11-21.73,2.41-.6-.06-1-2.27.66-3.48,4.3,0,6.45.1,8.59-.06.55,0,1.55-1.22,1.46-1.36a27.57,27.57,0,0,0-3.13-4.57c-1.2-1.34-2.52-3.56-4.53-.73-.41.58-1.05,1-1.5,1.54-1.26,1.58-3.93,2.55-2.86,5.11.22.51,2.69.07,2,.07-6.58-.6-10.4.29-13.07,4.28-.22.33-1.34,0-3,0,1,.67,1.73,0,1-2a2.58,2.58,0,0,0-1.3-1.43,8,8,0,0,0-3.64-.8c-1.16.16-2.21,1.1-3.3,1.7.75.84,1.35,2.09,2.27,2.42,1.2.43,2.65.11,5,.11.5,1.23-.05,3.54-.51,3.52-5.78-.24-8.82,6.35-15.27,5.39-5.22-.78-11.62-2.27-15.5,3.92l-17.23.14c-6.81,8.31-16.13,4-24.12,3.89-6.18,0-9.49,5.6-15.5,4.89-5.68-.66-11.51-.1-17.26-.15-2.84,0-5.68-.14-8.5-.39-.55,0-1-1-1.53-1.47.91-.81,1.71-2.16,2.73-2.35,2.75-.5,5.59-.42,8.37-.76a2.15,2.15,0,0,0,1.43-1.47c0-.46-.76-1.22-1.35-1.48-5.6-2.47-13.13,2.44-17.53-4.61-.86.8-2.28,1.48-2.48,2.42-.43,2.06-.16,4.18,1.87,5.64s2.53,4.07,0,4.27c-7.14.57-14.36.19-21.55.07-.51,0-1.54-1.21-1.44-1.42.5-1,1.2-2.52,2-2.64,2.78-.42,5.65-.26,8.47-.52.55,0,1.23-.87,1.46-1.49a1.71,1.71,0,0,0-.85-1.44c-6.22-1.64-12.53-1.26-18.77-.27-.71.11-1.58,2.32-1.51,3.51.16,2.69-1.22,4.31-3.44,4.33-22.31.13-44.64.43-66.94-.16-5.49-.15-1.58-3.41,0-5.11,1.08-1.14,1-2.74-.86-2.92-3.36-.34-7.32-2-10.08,1-3.81,4.11-7.07,4.23-10.49-.14-1.1-1.41-1.9-1.16-3.1.56-1.83,2.62-4.95,3.83-7.2,1.83-2.86-2.56-5.51-3.93-9.38-3.7-5,.31-10.5,1.3-15-.27s-8.41-3.66-13.37-4.45c-3.51-.56-6.56-4.77-11.25-3.87-7.71,1.48-13.74-1-18.64-7.29-2-2.6-6.93-.83-8.85-4.63-.62-1.23-2.93-2.17-2.84-3.08.72-7.41-3.52-15.7,3.94-22.09,1.1-.94-.38-5.59,1.77-5.36,5.55.57,7.66-5.57,13.16-5.26,10.77.61,21.59.18,32.39.18,9.36,0,18.75-.46,28.06.16,6,.41,9.21-5.89,15.54-4.7,5.56,1,11.48.21,17.24.21s11.53-.21,17.27.1c2.74.14,3.51-2.07,5.26-3.06,3.89-2.18,7.86-2.44,11.67.37a22.15,22.15,0,0,0,2.94,2c6.44-7.32,14.87-2.82,22.29-3.58,7.84-.8,15.82-.18,23.74-.18h54c4.21,0,8.25-.49,11.62,3.55,1.49,1.78,2.65-4.57,5.89-2.35,1.68,1.14,2.51,3.2,5.19,3.26s3.52-2.1,5.3-3,3.88-1,5.79-1.66c.61-.2,1.54-1.29,1.46-1.43-.61-1-1.39-2.5-2.22-2.56-3.57-.28-7.21.13-10.78-.18-4.71-.42-10.24,2.17-13.69-3.4-3.1.7-6.42,5.16-9.16-.52-4.27-.12-8.54-.33-12.82-.33q-69.11,0-138.21.05c-5.87,0-11,0-15.12-5.59-2.31-3.14-4.68-7.38-9.74-7.45-2.51,0-3.83-1.36-3.85-3.89,0-2.87-.12-5.76,0-8.63.18-3.76-1.83-4.77-5.17-4.8-5-.05-10.82,1.25-14.66-.92-5.44-3.07-9.46-8.7-13.89-13.43-.79-.84-.65-2.58-.88-3.91-1.13-6.51,7.1-10.73,4.31-17.65,3.38-3.64,6.65-7.39,10.2-10.84.81-.78,2.61-.72,4-.74,7.2-.06,14.42.34,21.59-.14,6.05-.4,13,2.62,17.88-3.73.32-.41,1.27-.35,1.93-.48,7.5-1.44,15.28,2.46,22.8-2.42,6.91-4.49,15.31-1.89,22.91-1.58,5.1.21,6.8-4.78,11.18-4.68,5,.13,10.08,0,15.12,0,4.31,0,8.63,0,12.94-.08.53,0,1.55-1.17,1.44-1.42-.42-1-1.07-2.57-1.86-2.71-5.34-1-11.53,2.34-15.91-3.41-.84-1.12-2-.62-3,1-1.91,2.87-4.9,2.28-7.69,2.28-13.67,0-27.35-.07-41,0-4.79,0-10.19-1.65-13.54,3.76l-12.74.52c-6.27-6.78-14.49-3.85-22-4.24a187.18,187.18,0,0,0-21.58.12c-1.65.1-3.47,4.06-4.65,3.8-2.44-.56-3.34-4.48-6.9-4-3.86.5-5.06-3.89-8.94-4.65-5.95-1.16-8.86-6.14-8.11-12.76a53.94,53.94,0,0,0,0-10.78c-.27-3.18,1.26-5.08,3.1-7.44,4-5.16,10.13-7,15.1-10.63,3.58-2.61,3.23-3.52-1.51-5.61-1.22-.53-3.32-1.28-3.34-2-.29-7.89-.1-15.8-.39-23.68-.1-2.66,1.59-3.77,3-5.29,3.76-4.13,8.36-6.81,13.27-9.55,4-2.24,9.54-2.3,12.28-7.18a20.22,20.22,0,0,1,6.06-6.09c2.71-1.89,6.07-2.85,8.78-4.75,2.32-1.62,3.89-5.3,6.22-5.72,3.77-.69,6-3.08,9-4.54a36.14,36.14,0,0,1,7.28-3.08c11.43-2.46,21.16-8.14,31.08-13.83,2.83-1.62,6.68-1.65,8.77-4.8,5.72-8.63,16-10,23.92-15.26,1.13-.75,2.17-2,3.38-2.2,5.36-.84,11.94,2.37,15.59-3.95,2.81-4.88,9-3.56,12.13-7.52.73-.91,2.39-1.08,5.78.91,2.16,1.82,2.4,1,2.11.51-.61-1.08-1.38-2.74-2.28-2.88-4-.64-1.48,2.55-1.91,3.92A3,3,0,0,0,782.4,437c.42.07,1.17-2-.39-5.61-2.16-3.21-2.44-4.37-2.12-4.56,9.05-5.39,19.34-8.46,27.89-14.84.25-.19,2.17,1.36,2.86,2.4,1.21,1.82,2.78,2,2.93.09.49-6.27,3.74-8.23,9.51-7.2v5.28c0,.33.25-.57-.08-.89a1.87,1.87,0,0,0-1.82,0c-1.42,1-3.2,2.23-.6,3.75.35.21,1.64-1.21,2.5-2.84,3.55-1,7.11-.9,10.66-1,.53,0,1.54-1,1.46-1.32-.27-1-.88-2.77-1.47-2.81-3.54-.27-7.1-.13-10.65-.13-.5-2.69,1.17-4.22,3.35-4.23,6,0,7.42-6.08,11.58-8.29,1.38-.74,4,0,5.65.86,2.05,1.13,4,5.25,5.24-.24.87-3.94.59-7.31,5.52-2.48,1.78,1.74-.9,2.92,1.3,1.07a5.87,5.87,0,0,0,1.87-3.44c.83-6.4,7.09-8.38,10.34-12.79.57-.78,2.65-.92,3.88-.66,8.16,1.75,13.16-2.82,18-8.32,3.16-3.59,14.7-8.47,21.71-7.78,1.31.42.72-.54-.1-1.2a1.29,1.29,0,0,0-1.83,1.83,8.77,8.77,0,0,0,2.55,2c.16.09.87-.83-.62-2.59-1.48-2.48-1.06-4.73-.45-4.78,5.65-.48,11.37-1.13,17-.65,6.15.53,9.47-5.2,15-5.73,1.14-.11.68-1.81-1-2.94-2-1.4-2.41-4.13,0-4.23,7.75-.32,10.36-7,14.73-11.24,2.07-2-1.79-7.6,1.86-9.72,2.84-1.64,6-2.84,9-4.47,3.92-2.15,10,.6,13-4.89,3.57-.05,7.3.52,10.69-.29,6.25-1.52,9.66,5.43,15.48,4.54,2.14,4.15,5.24,8.11,6.13,12.51.84,4.19.32,8.37,4.45,11.26.69.48.76,3.4,0,4.06-6.54,6.18-11.58,13.93-20.88,17.15-5,1.72-9.48,5-13.86,8.55-4.9,4-11.28,8.72-18.52,6.72-6-1.67-7.84,6.45-13.38,4.51-4.24,6.93-13.18,7.62-18.09,13.58a9.79,9.79,0,0,1-9.29,3.78c-1.29-.14-3.12,0-3.89.83a40.33,40.33,0,0,1-13.46,9.32c-4.84,2.07-9.9,4.11-14.3,7.13s-9.77,4.24-14.2,7.65c-4.07,3.13-10.43,3.36-14.35,6.6s-9.77,2.31-12.19,7.31c-4.34-1.1-6.55,2-8.84,4.66-2.48,2.86-5.2,4.75-9.17,4-3.31-.65-5,3-7.19,3.32-6.27,1-9.39,5.72-13.43,9.44-6-1.47-10.36,2.64-15.47,4.29a13.66,13.66,0,0,0-5.1,3.35c-1.61,1.43-2.89,3.29-4.63,4.51-3.93,2.73-10.15-1.32-13.25,4.58-2.09,4-7.34,3.92-10.12,6.41-3.75,3.37-9.82,2.27-12.21,7.32-5-1.92-7.17,3.37-11.05,4.66-7.51,2.5-14.55,6.65-21.39,10.77-3.46,2.08-8.39,1.59-10.52,6s-7.39,3.53-10.3,6.23c-2.31,2.13-4.73,2.46-7.46,3-1.93.41-2,1.89-.74,3,2.17,1.74,4.36,5.09,6.43,5,6.75-.25,14.38,3.11,20-3.54,3.23,3.2,6.34,4.22,9.16-.47a10.44,10.44,0,0,1,1.51,1.54c2.43,3.74,6.36,3.31,9.63,2.6,4.52-1,7.81-5.37,13.38-4.32,4.17.79,8.63.41,12.92.1,8.17-.59,16.86,2.52,24.31-4.06,1.61-1.43,5.59,0,8.45-.24,10.26-.9,21.22,3,30.59-4.29,7.2,0,14.42.39,21.58-.11,6.75-.47,14.37,2.89,20-3.85.33-.39,1.3-.23,2-.37,7.48-1.47,15.2,2.44,22.77-2.48,6.82-4.44,15.26-1,22.94-1.81,1.42-.16,3.85.5,4.17-.1,4.75-8.83,15.72.08,20.81-7.42a2.76,2.76,0,0,1,1.67-1.11c5.35-.84,11.6,2.5,15.84-3.47,4.91-.3,9.82-.65,14.74-.88,5.51-.25,8.92-6.11,15.55-4.63,6.17,1.37,12.88.29,19.36.29,5.76,0,11.51,0,17.27,0,4.2,0,5.3.14,5,6.73-.28,5.61,6.63,7.41,4.88,13.4-1.16,4-.13,8.58-.24,12.89-.15,5.95-9.24,14.41-15.54,14.5-4.32.07-8.75.62-12.93-.13-5.54-1-7.44,6.33-13.41,4.7-3.91-1.06-8.44,0-12.65.46-.68.08-1.5,2.26-1.54,3.49s.65,3.43,1.34,3.57c5.41,1.09,11,2.34,16-1.41,4.56-3.4,9.09-3.6,13.15.6,1.43,1.47,2,1.92,3.14.43,3.71-5,9.14-2.4,15.82-1.79,1.31.42.72-.54-.1-1.2a1.84,1.84,0,0,0-1.82,0,1.83,1.83,0,0,0,0,1.81,8.64,8.64,0,0,0,2.55,2c.16.09.86-.83-.62-2.59-1.48-2.49-1.19-4.6-.42-4.8,4-1,8.35-2.28,11.62,1.67,1.63,2,4.61,2.78,5.58,1.72,5.13-5.6,11.71-3.5,17.8-4.34,2.46-.34,3.48-3.79,6.83-4.41,3.7-.68,4.24,7,8.2,2.58,2.26-2.51,4.89-2.34,7.72-2.33,13.68,0,27.38.35,41-.17,5.12-.19,7.65,2.55,10.86,5.36,4,3.52,6.3,7.34,5.58,12.91a32.44,32.44,0,0,0,0,10.77c1.94,9-5.3,12.47-9.86,17.59-.43.49-1.27,1.17-1.68,1-8.88-3-15.72,4.62-24.16,4.57-5.43,0-11.85-2.55-16.23,2.19-3.92,4.24-9.56-.28-13.56,4.28-4.25,4.83-10.84,1.34-16.35,1.85-4.32.39-5.74,3.85-8.3,6.06-.79.69-1.23,3.17-.65,3.86,8.43,10.11,2.74,22,4.1,32.89.51,4.13-5.11,9.93-9.52,8.94-7.73-1.72-12.76,5.1-19.89,4.69a145.4,145.4,0,0,0-21.59.07c-5.28.48-9.1,5.8-15.57,4.4-5.51-1.18-11.48-.24-17.24-.24-6.13,7.51-14.58,3.26-22,4.38-.58.08-1.17.89-1.49,1.49a1.56,1.56,0,0,0,.23,1.47c2.68,2.08,4.07,6.09,8.46,5.65a14.88,14.88,0,0,1,4.32,0c7.23,1.42,12.78-9.33,21.18-2.23,5.83,4.93,13.7,1.72,20.63,2.09,7.91.42,16,1.07,23.72-.22,6-1,7.79,5.78,13.43,4.87,3.82-.62,8.61-2,11.84,2.54a5.12,5.12,0,0,0,3.62,1.49c6.48.14,13,.06,19.41.06,5.63,5.64,11.11,11.38,16.9,16.78,2.4,2.25,1.67,5.29,2.79,7.51,2.25,4.48-8.85,7.57-.83,12a2.09,2.09,0,0,1-.4,1.45c-4.29,3.68-7.71,7.92-9.14,13.52-1.53-1.08-4.12-3.35-4.43-3.07-7.31,6.52-16.08,3-24.14,3.61-4.39.32-6,5.7-11.22,4.68-3.82-.74-8.31-1.53-11.84,2.75-1.29,1.57-5.21,1.28-7.93,1.27-3.68,0-6.59.55-9.55,3.33-2.57,2.4-6.67,1.51-10,.3-.85-.32-1.07-2.33,3.51-7.88,1.46-4.32-1.73-2.33-5,2.21a2.08,2.08,0,0,0,0,2c.36.35,1.39-.07,2.06.1,5.45,1.35,7.2-3.59,10.39-6.07C1016.39,733.22,1015.61,732.35,1009.73,735.81ZM905.21,396.23c0-.65.25-1.54-.07-1.86a1.87,1.87,0,0,0-1.82,0c-1.42,1-3.2,2.23-.6,3.75.35.21,1.64-1.21,2.49-3.8,3,.11,4.43-1.33,5-13a36.59,36.59,0,0,0-6.2.1c-1.08.19-2,1.42-3,2.19,1.1.67,2.16,1.44,3.31,2,1.7.83,3.59,1.34,5.19,2.31,4.26,2.58,6.06,2.94,7.71.71a6,6,0,0,0,.9-3.71c-.21-3.87-3.12-3.69-5.88-3.61-.69,0-1.38,0-2.71,8.65C906.54,389.87,905.1,391.31,905.21,396.23Zm-23.54,2.39h1.93c0-.64.25-1.46-.05-1.89-1-1.42-2.24-3.2-3.76-.6-.2.35,1.21,1.64,3.81,2.49v4.32c-2,0-4-.36-5.83.11s-3.29,1.87-2.82,6.24c0-2.89,2.48-.57,0-2a2.18,2.18,0,0,0-2,0c-2,1.77-3.9,3.67-5.76,5.59-.29.3-.45,1.27-.32,1.35,1.06.63,2.21,1.58,3.33,1.58,4.34,0,4.79-.73,4.73-8.56,2.88,0,5.76,0,12.62,2.51a15.52,15.52,0,0,0-2.09-2.46,1.85,1.85,0,0,0-1.81,0,1.82,1.82,0,0,0,0,1.81,8.77,8.77,0,0,0,2.55,2c.16.09.87-.83-2.6-3.84v-4.33c1.19-.47,3.26-.75,3.42-1.46C887.61,398.9,885.7,398.47,881.67,398.62Zm-2.4,347.77c0-.65.25-1.54-.07-1.86a1.89,1.89,0,0,0-1.82,0c-1.42,1-3.2,2.24-.6,3.76.35.21,1.64-1.21,5-7.77a15.54,15.54,0,0,0-2.46,2.08c-.32.39-.06,1.25-.06,1.89.65,0,1.51.26,1.89-.06a8.73,8.73,0,0,0,2-2.54C883.21,741.69,882.29,741,879.27,746.39ZM803.84,428.84c.46.28,1.27,0,1.94,0a32.51,32.51,0,0,0-.11-6c-.17-.88-1.54-1.58-2.47-2.19a3,3,0,0,0-1.33,1.36c-.82,2.64-.78,5.16,8.24,11.84,0-.68.23-1.48-.05-2-.61-1.08-1.38-2.74-2.28-2.88-4-.64-1.48,2.55-1.91,3.92a3,3,0,0,0,2.47,4.06C808.75,437.06,809.51,435,803.84,428.84ZM775.48,465.4a3.73,3.73,0,0,0,0-1.85,26.24,26.24,0,0,0-6,0c-.88.17-1.58,1.53-2.19,2.46a3,3,0,0,0,1.36,1.34c2.65.82,5.17.78,9.36-7.88a15,15,0,0,0-2.46,2.08,1.82,1.82,0,0,0,0,1.81,1.8,1.8,0,0,0,1.81,0,8.64,8.64,0,0,0,2-2.55C779.46,460.7,778.54,460,775.48,465.4ZM758.9,731.49c-.67,0-1.47-.24-2,0-1.09.61-2.74,1.37-2.89,2.28-.63,4,2.55,1.48,3.93,1.91a3,3,0,0,0,4.06-2.48c.06-.41-2-1.17-8.11,4.49v-1.93c-.64,0-1.47-.25-1.9.05-1.42,1-3.19,2.23-.59,3.76C751.76,739.82,753.05,738.41,758.9,731.49Zm228.45,8.64a81.28,81.28,0,0,0-10,.12c-1.94.23-3.45,1.77-6.92,4.21a35.32,35.32,0,0,0-6.29.11c-.91.17-1.64,1.53-2.3,2.46-.07.09.86,1.28,1.38,1.33a45.26,45.26,0,0,0,8,.31c1.09-.09,2.83-1.28,3-2.18.67-4.13-2.77-1,.13-2a83.31,83.31,0,0,0,10-.11c1.94-.24,3.45-1.77,5.48-8.18a15.46,15.46,0,0,0-2.46,2.08,1.85,1.85,0,0,0,0,1.81,1.82,1.82,0,0,0,1.81,0,8.61,8.61,0,0,0,2-2.55C991.28,737.37,990.36,736.67,987.35,740.13ZM835.69,690.77a16.49,16.49,0,0,0-2.08-2.46,1.87,1.87,0,0,0-1.82,0,1.82,1.82,0,0,0,0,1.81,8.63,8.63,0,0,0,2.54,2c.16.08.87-.84-5.17-3.85,1.23,0,2,.25,2.55,0,2.51-1.42,0,.9,0-2,.06-5.81-.39-6.56-4.73-6.55-1.12,0-2.27,1-3.33,1.59-.13.08,0,1,.32,1.35C825.75,684.64,827.59,686.58,835.69,690.77Zm108.8-119.23a35.32,35.32,0,0,0-6.29.11c-.91.17-1.63,1.53-2.3,2.46-.06.09.86,1.28,1.38,1.33a45.26,45.26,0,0,0,8.05.31c1.09-.09,2.83-1.28,3-2.18.67-4.13-2.77-1,2.65-6a15.09,15.09,0,0,0-2.46,2.09,1.29,1.29,0,0,0,1.82,1.82,8.47,8.47,0,0,0,2-2.54C952.37,568.78,951.46,568.07,944.49,571.54Zm-18,129.69c3.53.56,4.43-3.47,6.85-4.09,1.85-.47,3-.37,2-2.33a4.62,4.62,0,0,0-3.29-2.12c-3.33-.07-8.66,4-9,6.83,0,.44,2.22,1.14,24.9-5.22-1.2-.57-2.66-1.89-3.54-1.58a54.67,54.67,0,0,0-8.91,4.33c-.15.09.61,3,1.47,3.4C940.66,701.94,947.1,698.14,926.53,701.23Zm-42.24,60.52c-4.87,0-7.69-.21-10.44.1a4.74,4.74,0,0,0-3.13,2.18c-1,1.92-.12,2.25,2,2.14,5.56-.29,11.15,0,16.72-.21.85,0,1.68-1.53,2.39-2.45,0-.07-.87-1.3-1.41-1.36-2.73-.29-5.47-.36-28.09,3.92a34.7,34.7,0,0,0-6.21.12c-.93.17-1.67,1.52-2.37,2.44,0,.08.89,1.33,1.4,1.36,4.1.22,8.21.45,12.3.3a4.51,4.51,0,0,0,3.09-2.19c1-1.91.13-2.46-2-2.1S864.4,766.07,884.29,761.75ZM696.93,597.14v.34c3.5,0,7,.18,10.49-.1a4.65,4.65,0,0,0,3.16-2.18c1-1.92.12-2.22-2-2.14-7,.25-14,0-21,.2-.85,0-1.69,1.53-2.42,2.45,0,.06.9,1.34,1.42,1.36,3.45.13,6.9.07,26.62-7.89a16.56,16.56,0,0,0-2.46,2.09,1.85,1.85,0,0,0,0,1.81,1.82,1.82,0,0,0,1.81,0,9,9,0,0,0,2-2.55C714.61,590.39,713.69,589.68,696.93,597.14Zm44-8.31c.49-2.63-1.12-4-3.28-4.24-2.9-.32-5.68.18-5.37,4.24-3.46,0-6.94-.15-10.38.12-.76.06-2.14,2.26-2,2.43,1.79,2.1,3.67,5.49,5.79,5.69,6,.56,12.17-.13,18.25-.62.52,0,1-2.23,1.25-3.47s0-2.76,4.51-8.24a18.29,18.29,0,0,0-3.07.61,2.56,2.56,0,0,0-1.34,1.45,6,6,0,0,0,0,2c4.25-.48,8.12,0,10.6,4.11.79-.9,2.18-1.74,2.27-2.7.34-4.06-.12-6.2-12.87-1.41ZM904.86,708.06a16,16,0,0,0-2.09-2.46,1.29,1.29,0,0,0-1.83,1.83,8.64,8.64,0,0,0,2.55,2c.16.08.87-.83-2.6-3.85,0-2.07.05-4.14,0-6.21-.2-6.39-.46-6.65-6.93-6.75-3.45-.05-6.9,0-40.65,2.19,1.3,1.19,1.81,2.06,2.33,2.06,6.38.1,12.76-.12,19.13.14,3.54.14,4.53-2.88,6.71-4.41,1.43-1,2.85-5.14,2.11-6.35-1.42-2.31-2.77-1.78-4.45-.05-3.42,3.51-7.69,2.72-11.45,1.08-2.15-.93-3.23-4.39-6.14-.82-2.45,3-5.45,5.56,22.06,6.15-.67,4.35,6.2,5.33,4.55,10.5-.42,1.32,2.32,2.68,4.6,2.52C895.45,705.4,898.17,705.55,904.86,708.06ZM849,580.19c0-2.1.49-4.36-.13-6.26-.67-2.07-2.92-2.84-5.07-2.32-1.21.3-2.24,1.31-3.36,2a22.8,22.8,0,0,1,2.75,3,19.56,19.56,0,0,1,1.49,3.58,30.53,30.53,0,0,1-4.28,0c-3.58-.5-4.28,3.44-6.81,4.3-4.18,1.41-6-3.85-8.93-4C815.73,579.94,806,578,800,588c-2.23,3.74-6.2,5-10.26,6.24-1.81.54-3.11,2.84-4.57,4.4a2.45,2.45,0,0,0-.47,1.44,13.23,13.23,0,0,0,3.59,1.65c3.48.73,4.47-2.82,6.74-4.2,3.43,5.86,6.35,2.92,9.08-.61,2.36-3.08,5.31-4,9.17-3.87,9.28.27,18.63-.55,27.84.3,6.71.61,10.63-7.42,17.53-4.54,2.64-2.25,5.34-4.44,7.89-6.79,1.4-1.29,2.56-2.85,5.08-5.72a87.56,87.56,0,0,0-13.7-.4,8,8,0,0,0-3.72,1.29C852.52,578.27,851.73,580.87,849,580.19Zm-51.87,151.3a29.41,29.41,0,0,1-4.2,0c-2.56-.35-4.29,1.09-4.31,3.16,0,3.25-1.61,7.14,1.91,9.58,1,.66,3.21.82,4,.16,3.69-3.14,7.1-6.63,10.55-10.06.23-.22.11-1.06-.13-1.42-.37-.55-1-1.28-1.51-1.32C801.34,731.4,799.24,731.49,797.14,731.49ZM936.79,593.15a17.22,17.22,0,0,0-4,.58c-2,.78-2,1.87-.33,2.94,2.6,1.7,3,4.18,3.21,7.17.16,2,2.94,2.68,5.1,2.24s3.35-1.57,3.42-4.22C944.4,593.81,943.9,593,936.79,593.15Zm-106,181.57a18.89,18.89,0,0,1,4.19,0c4.18.94,5.47-3.58,8.71-4.42a15.73,15.73,0,0,0,5.24-2.26c.89-.65-4.68-2.85-7.43-2-4.29,1.42-8.44,3.26-12.62,5-.57.24-.94,1-1.41,1.45ZM922.6,575.86c-3.54,0-7.1-.14-10.63.13-.65,0-1.33,1.7-1.69,2.72-.1.3.91,1.4,1.42,1.41,5.67.1,11.35.15,17-.06.63,0,1.34-1.7,1.69-2.72.1-.3-.88-1.37-1.42-1.41C926.87,575.76,924.73,575.86,922.6,575.86Zm-19.63,26c1.25-1.25,2.17-1.75,2.17-2.24,0-1.68-7.71-6.87-9.8-6.41s-3.66,1.9-3.06,4.39c.3,1.24.82,3.28,1.54,3.41A82.82,82.82,0,0,0,903,601.88Zm106.16-4.4c3.55,0,7.1.06,10.64-.07.52,0,1.51-1.11,1.41-1.41-.35-1-1.06-2.7-1.68-2.72-5.67-.21-11.35-.16-17-.06-.51,0-1.52,1.11-1.41,1.41.35,1,1,2.59,1.7,2.72A36.39,36.39,0,0,0,1009.13,597.48ZM721.49,774.72a79.49,79.49,0,0,0,8.46-.13c.63-.07,1.24-1.75,1.53-2.78.09-.31-.91-1.34-1.43-1.35-4.24-.11-8.49-.18-12.72.06-.58,0-1.23,1.75-1.52,2.78-.08.32.88,1.27,1.44,1.35A29.94,29.94,0,0,0,721.49,774.72Zm88.74-56.2c3.53,0,7.07.06,10.6-.06.52,0,1.52-1,1.43-1.36a7,7,0,0,0-1.57-2.84c-.34-.36-1.35-.06-2.06-.06-2.83,0-5.67-.15-8.48.06a9.78,9.78,0,0,0-3.63,1.4C805.06,716.45,807.59,718.45,810.23,718.52Zm244.12-134a79.49,79.49,0,0,0-8.46.13c-.64.07-1.24,1.75-1.53,2.78-.09.31.91,1.33,1.43,1.35,4.24.11,8.49.17,12.71-.07.59,0,1.23-1.75,1.53-2.78.08-.31-.88-1.26-1.45-1.35A29.78,29.78,0,0,0,1054.35,584.51Zm-280.9,8.64c2.78.53,4.92-.5,8.52-4.35a10.83,10.83,0,0,0,1.43-2.89c-1.87-.47-4.23-1.87-5.52-1.2-2.33,1.21-4.12,3.57-5.87,5.67C771.75,590.69,772.93,592.2,773.45,593.15ZM989.58,351.2c-4.22-1.31-6.29,1.69-8.65,4.12-2,2.07-2.06,4.1-.06,4.36,1.35.18,3.14.58,4-.07a33.09,33.09,0,0,0,5.88-5.71C991.09,353.56,990,352,989.58,351.2Zm-136.8,60.05-3.77,2.5,1.47,1.47a27.89,27.89,0,0,0,3,2.89,13.07,13.07,0,0,0,2.9,1.27c.42-1.89,1.67-4.15,1-5.56S854.22,412,852.78,411.25Zm-47,37.12c-1.21-1.22-1.76-2.17-2.18-2.12-1.91.27-4.44.25-5.49,1.44s-.48,3.62-.4,5.5c0,.51,1.31,1.43,1.34,1.4C801.36,452.57,803.57,450.48,805.81,448.37ZM743.1,688.24c-2,.29-4.3-.86-5.71,1.45a1.58,1.58,0,0,0,0,1.44c2.33,2,9.09,2,11.42,0a1.58,1.58,0,0,0,0-1.44C747.4,687.38,745.06,688.53,743.1,688.24ZM908.85,758.9c-1.27-2.16-5.53-2.25-7.14-.08a1.62,1.62,0,0,0-.1,1.44c1.2,2.2,5.49,2.26,7.1.1C909,760,908.81,759.39,908.85,758.9ZM783.12,688.26l-3.27,2.16c1.09.72,2.26,2.12,3.26,2,1.84-.2,3.59-1.29,5.38-2Zm126.53-77.82c1.15-.48,2.36-.92,3.49-1.53.18-.09.14-1.06-.1-1.39-1.61-2.17-6.38-2.22-7,.12S907.5,610.63,909.65,610.44ZM840.9,428.54,836,431c1.79.72,3.54,1.81,5.39,2,1,.11,2.17-1.3,3.26-2Zm34-38.45c.19-2.14-.37-4.26-2.8-3.61s-2.29,5.39-.12,7c.33.25,1.3.28,1.4.1C874,392.45,874.46,391.24,874.94,390.09ZM795.6,752.48l1.54-1.54a13.81,13.81,0,0,0-2.9-1.35c-.36-.08-1,.87-1.43,1.35Zm172.29-64.22c-.48.48-1.43,1.06-1.35,1.42a13.58,13.58,0,0,0,1.35,2.9c.48-.48,1.44-1.06,1.36-1.42A13.16,13.16,0,0,0,967.89,688.26Zm-168.59,0c-.48.48-1.43,1.06-1.35,1.42a13.11,13.11,0,0,0,1.35,2.9c.48-.48,1.43-1.06,1.35-1.42A13.11,13.11,0,0,0,799.3,688.26Zm51.88-4.32c-.48.48-1.44,1.06-1.36,1.42a13.81,13.81,0,0,0,1.35,2.9c.48-.48,1.44-1.07,1.36-1.42A13.58,13.58,0,0,0,851.18,683.94Zm104.37-5,1.54-1.54a13.66,13.66,0,0,0-2.91-1.35c-.35-.08-.94.87-1.42,1.35Zm-13-8.65,1.54-1.53a13.86,13.86,0,0,0-2.9-1.36c-.36-.07-.94.88-1.43,1.36Zm-32.42-15.13L911.7,658c.48-.48,1.43-1.07,1.35-1.42a13.44,13.44,0,0,0-1.36-2.91Zm93.86-7.4-1.54-2.78c-.48.48-1.43,1.07-1.35,1.42a13.11,13.11,0,0,0,1.35,2.9ZM878.65,604.59l-1.54-2.79c-.48.48-1.43,1.07-1.35,1.42a13.58,13.58,0,0,0,1.35,2.9Zm25.94-27.19-1.54-1.54a13.33,13.33,0,0,0-1.35,2.9c-.08.36.87.94,1.35,1.43ZM1029,566.59l1.54-1.54a13.81,13.81,0,0,0-2.9-1.35c-.36-.08-1,.87-1.43,1.35Zm-98.51-5.24L929,558.57c-.48.48-1.43,1.07-1.35,1.42a13.11,13.11,0,0,0,1.35,2.9Zm-217.69-7.1c-.48.48-1.43,1.06-1.35,1.42a13.11,13.11,0,0,0,1.35,2.9c.48-.48,1.43-1.06,1.35-1.42A13.11,13.11,0,0,0,712.84,554.25Zm226.95-10.81c-.48-.48-1.06-1.43-1.42-1.35a13.33,13.33,0,0,0-2.9,1.35c.48.48,1.07,1.43,1.42,1.35A13.11,13.11,0,0,0,939.79,543.44ZM786.33,454.82c-.48.48-1.43,1.07-1.35,1.42a13.11,13.11,0,0,0,1.35,2.9c.48-.48,1.43-1.06,1.35-1.42A13.11,13.11,0,0,0,786.33,454.82Zm2.79-14.51,1.53,1.54A13.11,13.11,0,0,0,792,439c.08-.36-.87-.94-1.35-1.42Zm140.49-54-2.78,1.53c.48.48,1.06,1.43,1.42,1.36a13.86,13.86,0,0,0,2.9-1.36ZM890.7,382l-2.78,1.54c.48.48,1.07,1.43,1.42,1.35a13.11,13.11,0,0,0,2.9-1.35Zm20.37-9.89,2.79-1.54c-.48-.48-1.07-1.43-1.42-1.35a13.66,13.66,0,0,0-2.91,1.35Zm56.82-12.35c-.48.48-1.43,1.07-1.35,1.43a13.81,13.81,0,0,0,1.35,2.9c.48-.48,1.44-1.07,1.36-1.42A13.7,13.7,0,0,0,967.89,359.71Z"/><path d="M844.69,580.19H849c.16,2.1-.27,4-2.86,3.42C845.44,583.45,845.16,581.38,844.69,580.19Z"/><path d="M732.29,588.83h8.65c.31,4.06-2.47,4.56-5.37,4.24C733.41,592.83,731.8,591.47,732.29,588.83Z"/></svg>